<?xml version="1.0" encoding="UTF-8"?>
<svg id="Layer_1" data-name="Layer 1" xmlns="http://www.w3.org/2000/svg" viewBox="0 0 249.46 171.56">
  <defs>
    <style>
      .cls-1 {
        fill: #5e7dbd;
      }

      .cls-2 {
        fill: #48aac6;
      }

      .cls-3 {
        fill: #eaeaea;
      }

      .cls-4 {
        fill: #efefdb;
      }

      .cls-5 {
        fill: #d95470;
      }

      .cls-6 {
        fill: #8ed5e8;
      }

      .cls-7 {
        fill: #8cd4e6;
      }

      .cls-8 {
        fill: #ebd1db;
      }

      .cls-9 {
        fill: #0f1417;
      }

      .cls-10 {
        fill: #0d1720;
      }

      .cls-11 {
        fill: #101417;
      }

      .cls-12 {
        fill: #90d6e9;
      }

      .cls-13 {
        fill: #0d0e10;
      }

      .cls-14 {
        fill: #1a1719;
      }

      .cls-15 {
        fill: #9789c1;
      }
    </style>
  </defs>
  <path class="cls-12" d="M160.24,86.1c1.24-.21,1.05-2.48,1.48-3.6,1.19-3.08,4.59-8.64,7.43-10.41.43-.27.67-.45,1.24-.34v6.3c.84.18.57-.14.78-.46,5.99-8.79,18.14-12.63,28.45-12.15,8.4.39,13.44,3.94,21.99-.38,2.06-1.04,4.91-4.48,7.12-2.66.63.52,2.2,3.69,2.55,4.61,1.24,3.27,2.06,8.36,1.64,11.81-.3,2.48-1.53,4.24-2,6.57,1.8.13,2.37-3.39,2.8-3.85.57-.62.59.14.7.51,1.71,5.71-1.41,9.95-1.76,15.06-.26,3.75,1.43,5.4-.1,10.04-.15.46-1.26,1.74-.94,2.03,1.17,1.08,2.81-3.94,2.98-4.54.14-.46.18-.93.17-1.41,1.35.98,1.16,3.59,1.06,5.09-.56,8.23-5.04,17.37-11.56,22.38,2.39.16,4.29-1.93,7-1.22-3.12,13.28-18.77,17.7-30.79,14.35-.18.9.19.61.68.88,1.43.77,3.05,1.19,4.56,1.77,2.11.81-.95,2.34-1.85,2.68-5.64,2.14-16.27.64-21.78-1.81-2.54-1.13-2.49-1.74-1.38-4.21,1.2-2.67,3.41-2.57,3.36-6.84-.01-.9-.53-1.36-.56-1.74-.12-1.62.76-3.58.89-5.24.28-3.67-.84-8.42-2.19-11.83-.29-.73-1.67-2.95-1.68-3.24,0-.91,2.35-1.56,2.06-3.06-.43-2.2-4.75-5.45-6.05-7.28-1.06-1.49-1.62-3.65-2.51-5.19-3.13-5.42-8.5-8.88-13.78-11.93-.04-.22.06-.53,0-.7ZM187.48,79.76c.49-.3.21-1.64-.03-2.14-1.5-3.11-6.77-2.69-9.36-4.33-1.89-.53-2.13,1.35-2.14,2.84-.03,4.69,5.45,8.79,9.91,6.73,2.12-.98-.16-2.69.27-3.06.4-.05,1.05.14,1.35-.04ZM223.58,98.33c-.41-.43.9-2.06-2.29-1.75-4.02.4-8.37,7.37-8.22,11.21,3.96.15,7.93,1.24,11.37-1.4,1.55-1.19,3.09-4.09,2.96-6.08-.21-3.31-3.32-1.46-3.82-1.98Z"/>
  <path class="cls-9" d="M144.84,40.62c.73.57,3.9,5.39,4.56,6.46.73,1.19,3.02,4.62,2.65,5.79-.2.64-.92,1-1.1,1.41-.47,1.06,2.07,4.34,2.21,6.21.08,1.12-.52,2.19-.27,3.32.05.2,1.3.78,1.38,1.84.17,2.08-1.13,6.47-2.03,8.44-.29.64-1.85,2.63-1.78,3.04.06.37,2.4,2.39,2.91,3.05,3.54,4.66,1.32,3.42,6.85,6.62s10.66,6.52,13.78,11.93c.89,1.54,1.45,3.7,2.51,5.19,1.3,1.83,5.62,5.08,6.05,7.28.3,1.5-2.06,2.15-2.06,3.06,0,.29,1.39,2.51,1.68,3.24,1.35,3.41,2.48,8.15,2.19,11.83-.13,1.66-1.01,3.62-.89,5.24.03.38.55.83.56,1.74.05,4.27-2.16,4.17-3.36,6.84-1.11,2.47-1.16,3.08,1.38,4.21,5.52,2.45,16.14,3.95,21.78,1.81.9-.34,3.96-1.87,1.85-2.68-1.51-.58-3.13-1-4.56-1.77-.49-.26-.86.03-.68-.88,12.02,3.35,27.67-1.07,30.79-14.35-2.71-.7-4.61,1.38-7,1.22,6.52-5.01,11-14.15,11.56-22.38.1-1.5.29-4.11-1.06-5.09.01.48-.03.95-.17,1.41-.18.6-1.82,5.61-2.98,4.54-.31-.29.79-1.56.94-2.03,1.54-4.63-.15-6.29.1-10.04.35-5.11,3.47-9.35,1.76-15.06-.11-.37-.13-1.13-.7-.51-.43.46-1,3.97-2.8,3.85.47-2.33,1.7-4.09,2-6.57.42-3.45-.41-8.53-1.64-11.81-.35-.93-1.93-4.1-2.55-4.61-2.21-1.83-5.05,1.61-7.12,2.66-8.55,4.32-13.58.77-21.99.38-10.31-.47-22.46,3.37-28.45,12.15-.21.31.06.64-.78.46v-6.3c-.56-.11-.8.07-1.24.34-2.84,1.77-6.25,7.33-7.43,10.41-.43,1.12-.24,3.39-1.48,3.6-.09-.27-.53-.57-.62-.96-.8-3.39,4.76-11.59,7.45-13.73,3.6-2.86,4.34-2.43,5.24,2.09,6.1-5.77,15.43-9.31,23.8-9.79,10.08-.58,16.35,4.75,26.53-1.47,2.16-1.32,2.22-2.81,5.29-2.36,1.4.2,2.73,1.66,3.5,2.8,1.56,2.31,3.56,8.22,3.71,10.98.07,1.4-.38,3.08-.29,4.13.13,1.48,1.82,3.91,2.03,5.67.53,4.52-2.84,13.36-1.95,16.3.21.71,1.07,1.41,1.38,2.12,2.17,5.02,1.19,8.98-.32,13.96-1.24,4.09-2.94,8.13-5.76,11.37,0,.56,3.86.31,3.06,3.75-.88,3.82-6.86,9.84-10.16,11.9-4.73,2.95-7.16,2.92-12.17,4.28-2.76.75-2.29,1.81-4.07,2.93-2.71,1.71-10.67,2.34-13.93,2.15-5.26-.3-9.95-2.43-14.97-3.44-3.5,3.94-6.49,6.84-11.72,8.25-4.77,1.28-10.4,1.45-15.05,3.15-2.61.95-4.15,3.08-7.07,4.12-6.58,2.34-12.62,1.74-17.14-3.67-.07-.78.11-1.69,0-2.45,1.24,1.44,2.33,2.18,3.85,3.15,6.28,4.01,9.69,2.67,15.42-1.2.37-.25,1.05-.2,1.56-.54,1.2-.79,2.35-2.86,3.49-3.86,1.31-.06-.76,2.29.67,2.08,7.54-1.9,14.54-1.26,20.85-6.45,3.47-2.85,7.39-8.12,7.34-12.77.99-.34.74.93,1.23,1.05,1.26.3.92-3.57.83-4.34-.1-.85-1.32-4.35-1.01-4.76l1.39,1.05c1.06-6.52-1.18-13.88-5.24-19.08-.46-1.18,2.15.17,2.82-.32,2.35-1.72-4.68-6.05-5.28-7.01-.55-.88-.79-2.5-1.33-3.57-2.49-4.97-6.18-8.06-10.46-11.31l-6.58-3.5c-1.14-.32.48,3-.86,1.74-.21-.19-1.89-4.28-2.39-5.13-.76-1.29-2.93-4.74-4.71-4.27-1.12.3-4.01,4.13-6.19,3.45l5.25-4.71c2.28-2.66,4.88-7.27,4.9-10.85,0-1.53-2.51.46-2.81.17.84-2.34,2.08-4.87,1.66-7.44-.41-2.52-3.06-5.63-4.81-7.43,1.2-.29,3.93,1.16,3.27-1.15-.38-1.33-2.21-3.06-2.91-4.18-1.4-2.25-2.43-4.76-4.21-6.73.07-.11-.06-.49,0-.7.38.1,1.77.79,2.1,1.05Z"/>
  <path class="cls-11" d="M51.42,47.96c-.15.72.06,1.08.7,1.4-1.18-.12-2.37,0-3.5.35.02,1.23,1.71,1.44,1.4,2.79-3.19.02-6.16,2.95-5.6,6.3l3.15-1.4c-.3,1.37-1.3,2.28-1.76,3.65-2.44,7.17,2.16,13.57,8.76,15.94l.18-2.45c.91,1.81,1.13,3.62,2.34,5.36.58.83,2.71,3.21,3.77,2.3.24-.2-.42-1.16.54-1.01s1.5,1.93,2.27,2.63c1.66,1.53,3.53,1.23,5.61,1.21,1.57,1.26,8.93,3.92,9.44,5.08.42.95-2.12.08-2.44-.01-1.27-.39-5.37-2.55-6.09-2.53-1.19.03-3.55,3.65-3.98,4.73-.54,1.37-1.94,6.98.96,5.52.65-.33,2.12-3.79,3.14-2.98-.86,1.86-2.47,4.75-2.48,6.82,0,2.18,2.25,7.52,4.48,8.16,1.93.56,1.37-1.48,1.67-2.74.1-.41.46-2.04,1.23-1.74-.84,3.76-.04,7.27,1.96,10.46.66,1.06,1.91,2.66,3.28,2.48.21-.22-.48-2.58.7-2.8.95,4.79,5.08,9.4,10.15,9.79.43-.43-1.51-3.7-.18-3.14,1.73,2.23,5.49,6.64,8.71,5.55.99-.34.15-2.09,1.09-1.7.34,1.27,3.22,1.44,3.33,1.93.26,1.25-2.35.76-2.45.87-.22.22-.58,5.35-.63,6.12-.04.65.36,1.48.29,2.44-.07,1.02-1.25,5.23-1.06,5.43.56.6.75-.44.88-.68,2.12-3.91,2.49-8.39,3.05-12.71.06-.44.53-.91.6-1.5.47-3.77-1.17-7.11-1.03-11.35l1.4-.7c-.66,2.46,1.37,5.06,1.43,7.17.15,5.06-1.81,16.09-4.44,20.44-2.15,3.55-7.63,4.33-8.19,8.78-1.36.19-1.07-.19-1.05-1.4,1.38-3.6,3.04-3.36,4.74-5.58,1.39-1.81,2.25-9.66,2.18-12.09-.1-4.09-1.52-3.49-4.72-5-2.63-1.24-2-.74-4.74-1.21-3.05-.53-6.44-2.65-8.32-5.07-.31-.4-.57-1.68-.75-1.78-.34-.2-1.29.05-2.03-.24-1.05-.42-3.55-3.19-4.15-4.24-.36-.63-1.27-3.35-1.43-3.46-.82-.59-1.6-.18-1.68.8-.25,2.88,2.4,10.86,2.96,14.37.7,4.4.95,9.07.42,13.51-.35,2.97-2.11,2.67-3.83,4.22-3.27,2.93-3.56,8.49,1.41,9.28-.51-1.3-1.01-3.28-.69-4.65.06-.25.53-.26.65-.52,1.02-2.15,1.78-3.94,4.4-4.62l.53.87c-5.38,2.55-5.27,10.86,1.59,11.04,5.5.14,2.63-2.9,3.32-6.06.04-.19,1.96-2.8,2.24-3.07.46-.43,3.34-2.41,2.59-.56-.69,1.7-3.34,2.26-3.32,5.59.03,4.88,4.66,3.73,7.92,3.03.03-.35,0-.7,0-1.05l1.05-.35c-.02,1.23-.3,1.59,1.05,1.4,0,.11.02.34,0,.35-.11.07-1.3-.11-.7.69.13.18,2.96,2.06,3.49,1.76.04-.42.17-1.64.53-1.75,1.41-.47.62.98.91,1.38.12.16.57-.03.66.03s.32.27.35.35c.11.27-.19.86.34,1.23.19.13,4.15,1.59,4.38,1.61,1.28.08,3.8-1.04,4.55-2.13.73-.23.46.52.85.87.37.33,1.67,1.38,2.03,1.5.53.17,5,.41,4.29-1.32.22-.04.5.05.7,0,1.74,1.77,1.99.08,2.7-.37s1.89-.41,2.53-.88c.84-.63.53-1.79,2.47-.85-2.25,2.53-7.29,4.61-10.65,4.56-1.89-.03-4.02-1.17-5.31-1.3-2.12-.22-3.53,1.09-6.58.22-1.52-.43-2.63-1.72-3.61-1.99-.76-.21-1.53-.05-2.45-.35-1.09-.35-2.55-2.07-3.13-2.12-1.36-.11-3.32,1.23-4.46,1.28-1.27.06-3.18-.94-4.21-.95-1.89-.03-3.64,1.23-6.21.91-1.72-.22-2.64-1.31-3.67-1.57-2.08-.54-3.27-.06-5.22-1.95-.4-.39-.68-1.54-1.06-1.64-2.28-.58-5.33,1.67-7.66,1.72-3.53.08-7.14-2.35-9.18-5.1-.48-.64-1.38-2.77-1.51-2.86-.45-.28-3.19.33-4.27.25-1.85-.13-7.4-2.09-4.54-4.1,1.79-1.25,4.22-2.11,6.41-1.81.28,1.15-1.04.52-2.11.86-.7.23-3.85,1.73-3.84,2.46,0,.64,7.5,3.13,7.35.04-.03-.7-.96-3.08-1.4-3.71-.91-1.31-2.22-1.17-3.1-2.32-1.61-2.11-1.46-5.54-.67-7.92.25-.76,1.19-1.06,1.48-1.67.41-.86.13-1.5.89-2.61.54-.79,1.84-1.9,2.78-2.12,3.9.05,7.88-1.27,11.34.96l3.03,3.09c.18-1.74.42-3.87.95-5.53.49-1.54,1.63-2.54,2.01-3.59.29-.78.11-1.62.45-2.35.55-1.2,3.88-2.07,3.96-2.41,1.14-4.33-3.02-6.45-3.79-10.17-.18-.85.06-4.13-.09-4.28-.11-.11-1.61.03-2-.45-.09-.11-.74-2.29-.77-2.58-.09-.88.75-3.81,1.11-4.78.58-1.54,1.51-2.88,2.37-4.27-.77-.67-1.74-.64-2.69-1.17-2.29-1.27-3.07-1.75-5.55-2.85-2.89-1.28-3.21-4.32-4.51-5.29-.57-.42-2.61-.98-3.67-1.58-3.8-2.15-6.95-6.43-7.26-10.86-.09-1.23.74-3.45.6-4.49-.12-.9-1.34-1.37-1.62-2.28-.42-1.39,1.06-4.31,1.96-5.43.66-.81,3.08-2.29,3.13-2.48.15-.68-1.21-1.28-.36-2.44.81-1.09,2.98-.9,4.23-.85ZM47.22,136.83c.09.28-.1.75.11,1.3.09.23,2.04,1.52,2.17,2.2.09-1.84,1.2-2.93,3.11-2.7.82.1,1.2.99,1.87,1.22.6.21,1.31.06,2.1.35,5.79,2.16,6.94,14.55-1.65,11.63,2.79,2.61,6.17,2.52,9.19.34.28-.2.25-.65.28-.67.36-.22,1.79,1.23,2.73.63.57-1.48.37-3.2,1.14-4.63,1.16-2.17,4.23-3.25,5.11-5.39.98-2.37,1.02-9.11.75-11.76-.14-1.38-2.95-13.41-3.65-13.52-1.02.37-3.25.95-2.44,2.13.18.26.82.27.88.34.39.49-1.6,1.72-2.05,2.32-.88,1.19-1.93,3.42-2.12,4.88-.09.69,0,5.13.28,5.51.36.49,3.37.45,2.49,1.28-.09.08-2.18.63-2.37.65-1.81.2-3.77-4.54-5.1-5.78-2.21-2.06-5.58-2.86-7.81-.35-.67.75-.51,2.06-1.52,1.98l.35-3.5c-1.58-.26-4.52,1.05-4.21,2.96,2.63.15,4.5,3.96,4.15,6.22-.37,2.37-1.87,1.59-3.78,1.66-.11-.42-.96-1.84-1.4-1.4,0,.23-.02.47,0,.7-.38-.23-1.02-.32-1.4-.7-.48.67.92,3.31,2.09,3.15.14-.92-.62-1.59-.7-2.45.07.04.38-.08.57.11.29.3.15,1.15.83,1.29ZM49.63,135.04c1.07-.66-1.04-6.9-3.08-5.53-1.5,1.01.74,6.98,3.08,5.53ZM45.12,131.59c-1.26-.95-1.32,2.97.7,2.8-.13-.45-.59-2.71-.7-2.8ZM50.77,138.98c-.5.31-.49,4.22-.37,5,1.06,6.99,12.43,9.02,8.74,0-.34-.83-2.29-3.43-3.05-3.61-.58-.13-1.23.43-1.95.25-.76-.19-1.89-2.57-3.36-1.66Z"/>
  <path class="cls-13" d="M51.42,47.96c1.74.07,2.89.49,4.55.7-.31-1.41,1.1-4.83.38-5.79-.38-.5-1.69-1.04-2.3-1.57-8.11-7.09-7.21-16.85-.36-24.49,2.03-2.27,6.87-5.35,7.95-7.46.19-.37.25-1.2.31-1.25.44-.38,2.57.53,2.77.32v-1.75c.81-.84,3.72,3.07,4.13,3.74,1.45,2.36,2.79,5.77,3.22,8.5.5.54,1.83-2.33,2.1-2.8l.7.7c-.22.37-.93,2.24-.7,2.45.13.12,2.22-.47,2.8,1.05.08.21-.04.73,0,1.05-2.22-1.69-5,.25-6.97,1.61-3.46,2.4-5.38,5.42-7.56,8.89-1.29.03.35-1.42.21-2.22-.01-.08-1.18-.91-1.25-.91-1.14-.04.52,3.5-1.89,2.94-1.02-.24,0,2.1.5,2.3.55.12,1.62-1.7,1.56,0-.78.23-.76,1.08-.7,1.75-.16.28-.38.41-.7,1.05-1.43,2.85-1.8,5.33-2.45,8.4-.05.22-.7.53,0,1.05,0,.35,0,.7,0,1.05-1.72.83.48,4.01-1.75,3.5-.09-.12-.26-.21-.35-.35-.17-.28.43-.95-.87-.7l-.18.35c-.66-.23-1.8-.63-2.45-.7-.64-.32-.84-.68-.7-1.4ZM63.67,21.37c.83-2.21,1.71-6.27,1.4-8.58-.05-.4.14-.71-.51-.51-.38.11-1.61.84-2.05,1.1-6.53,3.97-13.02,11.56-10.05,19.73.47,1.29,3.25,5.58,4.45,6.05s.68-.39.82-.64c1.27-2.4.28-1.71-.25-3.43-.43-1.4-1.12-3.61-.64-4.99.51-1.49,1.73-.85,1.93-1.04.14-.14-.04-3.1.73-3.82l2.08.68c.1-.07.37-1.9.62-2.36.52-.98.86-.52,1.49-2.19Z"/>
  <path class="cls-13" d="M122.1,17.17c.07-.66,2.02-5.56,2.44-6.48,1.31-2.81,4.6-7.87,8.05-7.52l-.7,2.45c1.41-.37,2.67-.94,4.2-.7l.06,2.05c11.06,6.27,20.15,19.49,9.56,30.84-1.06,1.14-2.2.54-.87,2.8-.33-.26-1.72-.95-2.1-1.05-.06.21.07.59,0,.7-.03.05-.24-.04-.35,0-.78.25-2.33-.05-2.1,1.05-.04.01.13.34-.7.35-.31,0-.64-1.04-.7.35,0,.11-.01.24,0,.35-1.94.34-1.74-1.03-2.1-2.45,2.66-.72,7.04-5.65,8.06-8.21,2.32-5.88-.93-12.71-4.9-17.16-2.11-2.37-8.58-8.11-10.58-2.87-.92,2.42-.9,4.41-.62,6.9.05.46-.04.94,0,1.4,3.16-.65,1.74.74,2.08,2.6.08.43,1.25-.02,1.42.55-.09.03-.34.39-.68.54-.73.33-1.68-.25-1.42.86-.11.03-.24-.03-.35,0-.48.12-.66.34-.7.35-.11.03-.25-.04-.35,0-.24.09-.59-.04-.7.35h-.35c.02-.11,0-.24,0-.35s.02-.24,0-.35c-.34-2.09-.87-1.48-1.4-2.1-.66-.77.47-2.66-1.75-2.1-.03-.12.03-.25,0-.35-.31-.91-2.67-.83-2.45-2.8Z"/>
  <path class="cls-11" d="M74.17,16.12c.14-.24.12-.74.39-1.16,2.53-3.93,5.95-4.84,10.45-3.74-.36-1.05-.6-3.34.17-4.2.56-.63,1.45-.14,1.88-.4.58-.35.07-6.9,3.38-6.62,1.11.1,1.8,4.32,2.49,5.58.27.5,2.04,2.74,2.43,2.82.79.17,1.22-1.78,1.71-2.45,2.53-3.45,3.62.93,5.21,2.69.76.85,4.82,3.78,5.77,3.22.07-.04.42-.94.92-1.36,3.15-2.62,6.54-.48,8.58,2.28.62.84,1.16,2.65,1.76,3.14.63.51,2.01.56,2.79,1.23-.22,1.97,2.14,1.89,2.45,2.8-1.88-.23-1.2,1.38-1.57,2.45-1.84-1.37.37-4.29-2.97-4.19.51,1.75-.79,4.1,1.57,4.53l3.33,2.81c-.16,0-.54.36-.7.35-.53-.05-1.56-1.05-2.45-.7.03-.11-.03-.25,0-.35.01-.04.64-.14.2-.72-.24-.32-.75-.23-.9-.33-.13-.09-.23-.29-.35-.35-.59-.3-1.32-.32-1.38-.37-.43-.4.72-4.45-.72-4.88-.1-.03-.23.02-.35,0,.03-1.56-1.04-3.35-1.95-4.54-.25-.33-.79-.3-.85-.36-.53-.58-.51-1.52-1.9-2.13-3.31-1.45-4.8,2.64-6.15,4.57-.97,1.39-1.93,2.73-2.8,4.2-.09.14-.55.3-.77.79-1.06,2.32-.83,4.95,1.57,6.28,1.02.56,1.8.4,2.35.63,2.45,1.02,1.54,1.17,4.9,1.4.68.05,2.33.61,3.15,0,.13.07.27.33.35.35-1.24,2.3,1.34,2.86,2.8,3.5.08.03.19.64.88.71.72.08,1.61-.48,2.06-.35.57.17.41,1.01.66,1.29.17.19.57.05.6.09,1.57,1.82,1.51,1.97,3.5,3.5.03.02-.09.49.24.71.36.24,2.47,1.26,2.82,1.33,1.67.34,1.28-.82,1.49-.99.63-.49,1.79-.44,2.8-1.92.6-.88.5-1.57.7-1.93,1.79-3.16,2.8-4.59,3.15-8.4.27.44.47.82,1.05.7.08.85-.02,1.27,0,2.1-1.7,3.2-2.36,6.72-4.9,9.45-3.06,3.29-4.77,3.02-8.31.46-1.24-.9-3.74-4.43-4.01-4.58-.4-.23-1.61-.02-2.39-.24-.85-.23-3.67-2.01-4.32-2.67-.39-.4-.84-1.56-.98-1.64-.71-.41-5.94-.18-7.28-1.12.22-1.21-.41-.34-.63-.44-.05-.02-.13-.28-.77-.61-2.78-1.44-3.51-2.45-3.15-5.78.44-4.04,2.76-4.65,4.12-7.43,1.2-2.46-1.76-2.53-3.59-3.94-1.81-1.4-2.32-2.53-3.41-4.28-1.25-1.99-2.05,2.61-2.05,3.77,0,2.76,1.41,3.1,2.12,4.9.41,1.04-.98.17-1.05.17-1.46-1.35-1.73-3.46-2.64-4.88-.64-1-2.14-1.99-2.95-3-1.13-1.41-2.34-3.67-2.81-5.41-1.48,1.31-.98,3.96-1.05,5.79-.02.67.36,1.4-.7,1.21l-1.75-1.05c-.2,1.83.16,3.19.98,4.79.73,1.4,2,2.2,2.51,3.61-2.32-.27-3.13-2.76-5.14-3.78-2.56-1.31-4.73-.63-7.02.88-.4.26-2.7,2.6-2.89,2.91l-.7-.7Z"/>
  <path class="cls-11" d="M189.23,160.32c.42.25.31,2.26.42,2.38.1.11,1.5-.03,2.08.54,1.83,1.79-3.41,5.15-4.81,5.7-4.01,1.6-9.57,1.96-13.22-.62-1.39-.98-2.4-2.69-.9-4.05.59-.54,5.76-3.16,6.68-3.46,1.28-.42,3.73-.87,5.05-.9.6-.01,4.49.29,4.69.41ZM187.88,161.33c-.19-.2-4.64,0-5.42,0-.26,0-4.19,1.57-4.81,1.84-.54.24-4.09,1.99-4.14,2.22-.49,2.17,5.11,3.68,6.85,3.67,2.17-.02,6.78-1.38,8.55-2.68.39-.29,2.23-1.82,1.58-2.26-.59-.54-3.2-.23-3.31-.35-.52-.53,1.4-1.7.7-2.45Z"/>
  <path class="cls-14" d="M186.46,18.17c.98.56.86,3.85.69,4.92-.92,5.78-7.11,8.71-12.17,5.69-1.18-.7-2.02-1.09-1.59-2.64.16-.57,1.91-3.55,2.36-4.3,1.28-2.14,3.77-6.3,6.75-5.85,1.32.2.98,1.9,1.57,2.32.46.33,1.66-.56,2.39-.14ZM183.03,19.85c-.64-.65.67-5.08-3.5-1.23-1.04.96-4.05,5.9-4.62,7.28-.96,2.3,3.13,2.89,4.81,2.71,4.7-.52,6.65-4.76,6.11-9.11-.57-.25-2.62.53-2.8.35Z"/>
  <path class="cls-14" d="M34.84,20.48c1.99,1.4,2.61,4.8,2.9,7.06.6,4.66.92,6.03-4.42,4.42-4.88-1.48-6.59-5.81-5.3-10.56,3.57.65,1.79.2,2.83-1.54.78-1.31,3.02-.07,4,.62ZM36.73,31.17c-.22-3.87-.47-9.44-4.89-10.85l-.36,2.8-2.8-.35c-.43,5.05,3.14,8.41,8.05,8.4Z"/>
  <path class="cls-14" d="M99.73,168.37c-.15.21.47,1.12.28,1.8-.57,2.11-7.66,1.37-9.25.62-2.86-1.34-4.83-6.62-2.78-9.12.8-.98,3.62.79,4.8,1.15,2.07.63,7.9,1.44,8.28,4,.2,1.35-1.11,1.24-1.33,1.54ZM99.71,166.58c-2.19-1.83-4.64-1.51-7.08-2.2-1.49-.42-2.59-1.55-4.12-1.65-.99,7.05,4.22,8.61,10.15,7.34.27-.73-1.08-1.89-.69-2.43.07-.1,1.73-.3,1.74-1.06Z"/>
  <path class="cls-11" d="M203.07,157.33c-4.24-3.29,4.85-5.26,7.39-5.12,1.39.08,4.15.9,5.24,1.76,1.7,1.34.1,1.52.2,2.23.07.5,1.49,1.1,1.36,1.76-3.48,3.99-10.53,2.2-14.18-.63ZM214.82,154.68c-3.76-1.65-8.75-1.77-11.89,1.22,3.29,2.46,9.03,4.47,12.58,1.75l-1.74-.88c-.41-1.48,1.26-.93,1.04-2.08Z"/>
  <path class="cls-14" d="M247.36,146.63c.35.34,2.52-1.05,2.04,2.18-.41,2.77-4.37,4.71-6.84,5.08-1.68.26-7.8-.44-6.56-3.06.11-.24,2.93-3.58,3.34-4.02,1.67-1.77,3.29-2.83,5.82-2.95,3.32-.17,1.83,2.39,2.22,2.77ZM245.96,144.88c-3.97.46-7.16,3.44-8.74,6.99,3.97,1.48,10.39.75,11.19-4.19h-2.8s.35-2.8.35-2.8Z"/>
  <path class="cls-14" d="M62.06,164.27c-2.3,1.41-4.11,2.72-6.96,3-.7.07-2.93.15-3.45-.04-.65-.23-.47-1.19-.92-1.53-.97-.73-3.28.27-1.7-2.76,1.87-3.6,7.59-4.28,11.13-3.18.79.25,3.47,1.51,3.89,2.06,1.23,1.59-1.19,1.95-1.99,2.44ZM62.97,162.38c-4.16-2.63-10.96-3.5-12.94,2.09,3.72-.65,1.99,1.29,2.45,1.75.49.5,4.61-.64,5.49-.98l5-2.86Z"/>
  <path class="cls-14" d="M33.04,149.98c.53.63.79.9-.07,1.92-.58.68-4.17,1.98-5.16,2.09-2.03.24-8.6-.79-8.62-3.34,0-.66.73-.46.76-.73.2-1.86-1.68-2.15,2.06-3.13,3.95-1.03,8.32,0,11.03,3.19ZM31.33,149.94c-2.94-2.52-6.75-2.81-10.34-1.56,2.37,1.89-.73,1.97.02,3.12.14.22,4.5,1.36,5.11,1.4,1.23.06,5.33-.88,6.06-1.73.35-.41-.66-1.07-.85-1.23Z"/>
  <path class="cls-14" d="M.82,112.47c.11-.19,1.76-1.89,1.99-2.03,3.65-2.32,5.63,2.37,5.15,5.5-.3,1.91-2.21,7.07-4.55,6.48-3.49-.87-4.19-7.17-2.58-9.95ZM5.83,111.4c-1.88-1.6-4.63,3.11-4.78,4.63-.14,1.37,1.46,4.88,3.02,5.02.53.05.53-.2.75-.56,1.08-1.85,2.87-7.51,1.02-9.09Z"/>
  <path class="cls-14" d="M34.98,117.59c-.22-.21-1.89.56-2.12-.88-.48-3.02,5.27-7.04,7.93-7.16,1.04-.05,1.31.59,1.71,1.39,1.52,3.07.09,7.39-3.13,8.77-5.91,2.53-3.99-1.74-4.39-2.12ZM36.03,119.34c3.42-.04,5.98-2.24,5.97-5.77,0-.57-.28-2.17-.71-2.47-1.55-1.05-7.67,3.16-7.36,5.44h2.45s-.35,2.8-.35,2.8Z"/>
  <path class="cls-8" d="M47.22,140.68c.44.63,1.36,3.02,1.4,3.71.15,3.09-7.34.6-7.35-.04,0-.72,3.14-2.23,3.84-2.46,1.07-.34,2.39.28,2.11-.86v-.35Z"/>
  <path class="cls-9" d="M139.94,120.39c.88-1.42,6.39-3.58,6.59-3.91.19-.31-.02-1.1.24-1.68,1.01-2.32,6.37-1.58,8.38-1.77.52-.05.87-.61,1.4-.65,1-.07,2.61.84,3.34,1.54-.92.45-1.97-.37-2.97-.2-.91.15-.59,1.04-1.4,1.11-1.35.12-6.23-1.25-7.12.35s3.13,1.57,2.05,2.4c-4.28-.16-8.25,2.24-10.65,5.62-.85,1.2-3.46,6.12-2.31,7.16.18.17,4.14,2.08,4.48,2.18,2.08.56,2.52-.09,4.71,1.51,3.1,2.26,4.3,9.49,3.75,13.08-.04.29-.91,3.22-1.03,3.35-.46.49-.66-.04-.71-.53-.12-1.21.43-2.94.36-4.54-.21-4.45-2.09-13.91-8.48-10.59-.8.42-1.09,1.32-2.01,1.31-.18-1.02.99-1.9.66-2.91-.53-1.6-4.58-1.47-5.92-1.12-2.26.59-3.73,4.04-4.01,4.03-.24-.01-.65-2.45-2.42.04-1.25,1.76-.3,1.08.45,1.57,1.85,1.21,2.28,4.62,1.36,6.54-.38.79-.88.86-1.32,1.31h-1.4c-.02.23.01.47,0,.7-.04.7.05,1.41,0,2.1-.2,2.99-.32,5.41.35,8.4-.27-.08-.96.09-1.05,0-.15-.15.51-1.26.35-1.39-.86-.16-2.09.12-1.73,1.21.12.36.8.43.93.64.16.26.06.53.1.6h-.35c-1.94-.93-1.63.23-2.47.85-.64.47-1.85.45-2.53.88s-.96,2.14-2.7.37c2.8-.65,5.61-2.43,7.28-4.8-.22-2.39.52-5,.44-7.28-.17-4.73-2.88-7.53.88-12.39,1.53-1.97,2.68-1.5,4.1-2.46.74-.5,1.24-1.56,2.68-2.31.68-.35,1.87-.42,2.15-.73,1.79-1.95,1.05-8.97,1.71-9.42s1.36.44,1.67-1.11c.28-1.43-.03-2.56-.25-3.95,1.07-.27.96,1.36,1.37,1.88,1.1,1.4,2.26-2.31,1.78-3.28,1.24.75.87,3.73,0,4.73-.57.66-.77.68-1.41,1.57-.2.27-2.1,2.94-.53,2.45.6-.19,1.03-2.13,1.23-2.45ZM126.19,138.63c-1.37.4-1.53,3.9-.61,5.03,3.01,3.71,3.96-6,.61-5.03Z"/>
  <path class="cls-11" d="M124.9,157.83c-.04-.06.06-.34-.1-.6-.13-.21-.81-.28-.93-.64-.36-1.09.87-1.37,1.73-1.21.16.13-.49,1.24-.35,1.39.09.09.78-.07,1.05,0,.42.12.26.56.35.7l.35.35c.02.11-.02.24,0,.35.11.75-.07,1.67,0,2.45-.89-1.06-1.33-1.5-2.1-2.8Z"/>
  <path class="cls-10" d="M223.58,98.33c.5.52,3.61-1.33,3.82,1.98.13,1.99-1.4,4.88-2.96,6.08-3.44,2.64-7.41,1.55-11.37,1.4-.15-3.84,4.2-10.81,8.22-11.21,3.19-.32,1.89,1.32,2.29,1.75ZM214.12,106.74h6.12c.63,0,3.39-1.35,3.91-1.87.75-.75,1.72-3.54,1.86-4.62.15-1.15-2.83-.17-3.15-.51-.27-.29.76-2.74-1.76-1.95-3.5,1.1-6.03,5.63-6.98,8.94Z"/>
  <path class="cls-10" d="M187.48,79.76c-.31.19-.95,0-1.35.04-.43.37,1.85,2.08-.27,3.06-4.46,2.06-9.93-2.04-9.91-6.73,0-1.49.25-3.37,2.14-2.84,2.59,1.64,7.85,1.22,9.36,4.33.24.5.52,1.84.03,2.14ZM186.48,78.75c.65-.78-1.31-1.86-1.86-2.16l-7.23-2.39c-.83,4.99,3.02,9.06,8.03,7.68l-.68-2.78c.34-.17,1.69-.29,1.75-.36Z"/>
  <path class="cls-6" d="M98.31,15.77c.07,0,1.46.87,1.05-.17-.71-1.81-2.12-2.14-2.12-4.9,0-1.16.8-5.76,2.05-3.77,1.1,1.76,1.6,2.88,3.41,4.28,1.83,1.42,4.79,1.49,3.59,3.94-1.36,2.78-3.69,3.39-4.12,7.43-.36,3.32.37,4.34,3.15,5.78-.1.34-.4.33-.7.35-.35.02-.7,0-1.05,0-1.77-2.13-6.12-.85-7.08,1.49-2,4.85,5.25,10.6,9.82,9.47,2.62-.65,5.04-3.16,2.86-5.71-.03-.34.04-.71,0-1.05-.15-1.17-1.51-3.19-2.8-3.16-.08-.27.34-.28.35-.34,1.33.94,6.57.71,7.28,1.12.14.08.59,1.24.98,1.64.65.67,3.47,2.44,4.32,2.67.79.22,1.99.01,2.39.24.27.15,2.77,3.68,4.01,4.58,3.54,2.57,5.25,2.84,8.31-.46.53-.11.81.29,1.05.7.78,1.31,1.16,1.5,1.86,2.54,1.1,1.63,1.57,2.86.94,4.81,2.3-.51,1.18-3.39,1.05-4.9-.01-.11,0-.24,0-.35l.7-.35c.83,0,.66-.34.7-.35.76-.2,1.76-.23,2.1-1.05.11-.04.32.05.35,0,1.78,1.98,2.81,4.49,4.21,6.73.7,1.12,2.52,2.85,2.91,4.18.66,2.31-2.07.87-3.27,1.15,1.75,1.8,4.41,4.91,4.81,7.43.42,2.57-.83,5.09-1.66,7.44.3.3,2.82-1.7,2.81-.17-.02,3.58-2.62,8.19-4.9,10.85l-5.25,4.71c2.18.68,5.07-3.16,6.19-3.45,1.78-.47,3.95,2.98,4.71,4.27.5.85,2.19,4.94,2.39,5.13,1.35,1.26-.27-2.06.86-1.74l6.58,3.5c4.28,3.25,7.97,6.34,10.46,11.31.53,1.07.78,2.69,1.33,3.57.6.96,7.63,5.29,5.28,7.01-.66.48-3.27-.87-2.82.32,4.06,5.19,6.3,12.56,5.24,19.08l-1.39-1.05c-.31.41.91,3.91,1.01,4.76.09.77.42,4.64-.83,4.34-.49-.12-.24-1.39-1.23-1.05.04,4.65-3.88,9.92-7.34,12.77-6.31,5.19-13.31,4.55-20.85,6.45-1.43.21.64-2.14-.67-2.08-1.14,1-2.3,3.07-3.49,3.86-.51.34-1.19.29-1.56.54-5.73,3.87-9.14,5.2-15.42,1.2-.64-.4-.32-1-.35-1.05.78.33,1.62.54,2.45.7-.33,1.1,1.31.89,2.1.35,7.04.28,11.16-8.02,5.51-12.34-1.77-1.35-1.42-1.2-2.88-2.72-1.34-1.4-2.66-1.61-4.57-1.39-2.76.31-2.29,1.65-3.53,3.12-.72.86-2.15,1.46-2.59,2.84-.06-.07-.64.08-.7,0-.22-.29.39-2.12-.35-2.45.05-.69-.04-1.4,0-2.1,1.72.39,1.27-.57,1.4-.7.44-.45.94-.51,1.32-1.31.92-1.92.49-5.33-1.36-6.54-.75-.49-1.71.19-.45-1.57,1.77-2.49,2.18-.05,2.42-.04.29.01,1.76-3.44,4.01-4.03,1.34-.35,5.39-.48,5.92,1.12.33,1.01-.84,1.89-.66,2.91.92,0,1.21-.89,2.01-1.31,6.38-3.32,8.27,6.13,8.48,10.59.08,1.6-.48,3.33-.36,4.54.05.49.25,1.02.71.53.12-.13.99-3.06,1.03-3.35.56-3.59-.65-10.83-3.75-13.08-2.19-1.59-2.63-.95-4.71-1.51-.34-.09-4.3-2.01-4.48-2.18-1.15-1.04,1.46-5.96,2.31-7.16,2.4-3.38,6.36-5.78,10.65-5.62,1.08-.83-2.92-.84-2.05-2.4s5.77-.23,7.12-.35c.8-.07.48-.96,1.4-1.11,1-.17,2.05.65,2.97.2-.73-.7-2.34-1.61-3.34-1.54-.53.04-.88.6-1.4.65-2.01.2-7.37-.54-8.38,1.77-.25.58-.05,1.37-.24,1.68-.2.33-5.7,2.49-6.59,3.91h-.7c.64-.89.84-.91,1.41-1.57.87-1,1.23-3.98,0-4.73.48.98-.68,4.68-1.78,3.28-.41-.52-.3-2.15-1.37-1.88.23,1.38.53,2.51.25,3.95-.3,1.55-1,.65-1.67,1.11s.09,7.46-1.71,9.42c-.28.31-1.47.38-2.15.73-1.44.75-1.93,1.81-2.68,2.31-1.42.96-2.58.49-4.1,2.46-3.77,4.86-1.05,7.65-.88,12.39.08,2.29-.66,4.89-.44,7.28-1.66,2.36-4.47,4.15-7.28,4.8-.2.05-.48-.04-.7,0-2.68.47-6.08.52-6.91-2.71-.88-3.42,2.28-4.57,2.71-7.44-3.93.8-5.28,5.96-4.21,9.43-2.79,1.29-5.61.71-8.04-1.03-.03-.08-.26-.3-.35-.35-1.19-3.46-.64-6.13,2.12-8.56.31-.28,2.19-.71,1.38-1.59-.25-.27-2.35.58-2.78.89-2.31,1.62-3.67,5.84-3.16,8.56-1.2.15-1.38-1.19-2.45-1.4.02-.01,0-.24,0-.35-.02-.96-.51-1.88-.35-3.15.57-4.45,6.04-5.23,8.19-8.78,2.63-4.35,4.59-15.38,4.44-20.44-.06-2.11-2.09-4.71-1.43-7.17l-1.4.7c0-.06-.42-.52-.39-1.2.05-1.04.96-1.88.74-3,3.41.43,5.04-3.31,5.78-3.5.45-.12,1.04,1.1,2.45,1.09,3.6-.02,4.59-5.63,4.37-8.44h.7c.05.18.89,1.03,1.14,1.15,2.77,1.28,4.38-4.41,4.03-6.49-.23-1.33-1.63-2.89-2.02-4.11-.49-1.53-.35-2.98-.35-4.55,1.57-.61,3.13-2.2,3.75-2.37,1.11-.31,2.24.17,3.51-.34.97-.39,1.76-1.96,2.56-2.34,1.33-.63,2.42-.36,4.1-1.5.47-.32,1.46-1.69,1.57-1.73.65-.23,1.37-.05,2.04-.26,2.18-.66,3.46-2.8,3.78-4.96.14-.96-.17-2.27.09-3.05.21-.62,1.85-1.04,2.24-2.31.52-1.72-.35-4.4-.16-5.05.12-.4.78-.46.9-.67,1.45-2.58.61-4.4-1.14-6.51-.43-.51-1.45-.84-1.72-1.43-.43-.97.1-1.61-.68-2.82-2.09-3.22-8.11-3.88-11.53-3.09-3.25.75-7.61,3.52-8.96,6.61,2.63-1.03,4.42-3.19,7.11-4.26,3.38-1.35,6.15-1.77,9.58-.36.44.18,2.84,1.73,2.91,2,.53,2-2.55-.54-2.45,1.57,3.33.4,7.72,4.2,5.59,7.7-1.31-.15-1.55-1.82-3.14-1.39,1.36,1.36,2.95,3.75,2.83,5.77-.02.35-1.3,2.88-1.44,2.97-.44.31-1.15-.91-1.74-.7.77,3,.59,8.45-3.5,8.4v-1.75s-1.05,0-1.05,0c.28,1.83-1.51,4.6-3.34,4.88-.74.11-2.05-.18-2.53.1-.21.12-.83,1.56-1.24,1.91-2.12,1.81-3.51-.08-4.21.13-.23.07-1.27,1.61-1.81,2.07-1.74,1.5-4.27,2.91-6.64,2.82-1.11-.04-.91.08-.87-1.06.38-.28,2.12-2.3,2.45-2.8,2.57-.26,2.2-2.76,2.83-4.27.25-.6,1.7-1.58,1.99-2.98.27-1.32.04-3.74-1.67-3.94-.4-1.59-1.05-1.73-1.75-3.15,2.08-.52,6.08-2.59,7.83-3.91.44-.34,1.63-1.96,1.88-2.04,1.43-.44,1.97,1.35,3.59,1.05.09-3.27-7.96-4.99-9.09-2.62-.49,1.02,2.9.29,3.14.52.13,1.88-2.42,3.23-3.89,3.98-2.49,1.27-6.08,2.22-8.88,2.31-2.14.07-4.63-.73-6.64-.34-.67.13-3.01,1.71-4.19,2.11-3.59,1.21-6.01,1.09-9.65.17-2.94-.74-8.94-3.82-11.42-3.94-2.04-.1-6.39,3.03-9.07,3.39-2.31.31-12.9-3.19-14.82-4.73-.89-.72-2.08-2.32-2.13-3.47-.06-1.31,2.13.25,2.11-1.05-1.72-2.15-7.04-1.48-6.99,1.57.86.2,2.03-.68,2.8-.19.34.22,2.08,3.56,2.97,4.39,1.04.96,4.74,2.69,6.12,3.15-.11.88-.17,1.96-.35,2.8-.2.92-.83,1.84-.65,2.89s1.75,2.2,1.97,2.96c.2.67,0,1.39.26,2.19.56,1.66,2.91,3.16,4.71,2.81.13.23.97,1.69,1.05,1.75-2.09.02-3.96.33-5.61-1.21-.76-.71-1.32-2.48-2.27-2.63s-.3.81-.54,1.01c-1.06.91-3.19-1.47-3.77-2.3-1.21-1.74-1.43-3.55-2.34-5.36l-.18,2.45c-6.6-2.37-11.2-8.76-8.76-15.94.47-1.37,1.47-2.29,1.76-3.65l-3.15,1.4c-.57-3.35,2.41-6.28,5.6-6.3.31-1.35-1.38-1.57-1.4-2.79,1.13-.34,2.32-.48,3.5-.35.65.07,1.79.47,2.45.7.26.09.56.52,1.05.35.09.14.26.23.35.35.73,1,1.64,1.39,2.11,2.01.59.77.84,2.3,1.33,3.13.99,1.67,2.35,3.94,4.26,4.66,1.05,1.54,1.48.96,2.1,1.4.03.02-.14.6.23.7.76.2,2.14-.11,3.09,0,.91.11,5.47,1.15,5.72,1.01.34-.2,2.23-3.44,2.41-4.08.9-3.21.03-5.11-.26-8.13,0-.03.33.12.32-.5s-.23-1.91-1.02-1.6c-.02-.11.02-.24,0-.35-.09-.6-.22-1.16-.35-1.75.23.01.48-.04.7,0,.05,0,.07.44.35.35.12-1.5-.48-3.17-1.45-4.32-.47-.56-3.24-2.85-3.79-1.45-.04.11,1.68,1.06,1.97,1.35.41.41.78,1.14,1.18,1.62.68.56,0,1.32,0,1.4-1.17-.77-2.05-2.21-3.25-2.87-3.8-2.08-5.29.1-8.8-4.5-.57-.75-.18-1.39-1.24-1.37s-.58.61-.7.69c-.83.6-.66-.56-.42-1.19l-.28-.2c.32-.64.54-.77.7-1.05.41-.71.66-.62.7-1.75.06-1.7-1.01.12-1.56,0-.5-.2-1.52-2.54-.5-2.3,2.41.56.75-2.98,1.89-2.94.08,0,1.24.84,1.25.91.14.81-1.5,2.25-.21,2.22,2.18-3.47,4.1-6.49,7.56-8.89,1.97-1.36,4.74-3.29,6.97-1.61.02.17.34.4.26.81-.11.57-1.17,1.54-1.48,2.35-.38.97-.41,3.07-.69,3.51-.5.77-4.86.84-6.49,4.7-3.26,7.7,4.79,8.8,9,4.28.36-.39.69-1.88,1.33-1.92.38-.03,2.98,2.21,4.38,1.33-.39-3.56,1.48-6.81,4.23-8.89,1.47-1.11,3.96-1.75,4.99-2.64.38-.33.17-.62.23-.72.78-1.27.82-1.6-.58-2.75s-2.93-1.16-4.67-1.1c.18-1.6-2.68-.05-3.18.16-.53.22-1.23-.04-1.02.89-.39.07-.87-.16-1.31.09-.4.22-2.66,2.6-2.89,3.06h-.35c-.74.08-.78.04-.7-.7,1.13-1.78,2.22-2.72,3.87-4l4.17-1.94c-2.66-.44-4.32.54-6.56,1.65-.68.34-.78,1.32-2.54.8-.58-1.52-2.66-.93-2.8-1.05-.23-.2.48-2.08.7-2.45.19-.31,2.49-2.64,2.89-2.91,2.29-1.5,4.46-2.19,7.02-.88,2,1.02,2.82,3.51,5.14,3.78-.51-1.41-1.78-2.21-2.51-3.61-.83-1.59-1.19-2.96-.98-4.79l1.75,1.05c-.03,2.88,3.85,5.9,6.5,6.27,1.16.16,2.46-.03,3.64.03ZM113,41.67h-1.4c-.35,0-.7,0-1.05,0-.36-.58-1.33-.35-1.92-.35-1.78,0-3.58.09-5.08,0-.23-.01-.47,0-.7,0-.33,0-1.86-.84-1.75.7-1.33.85-3.24,3.3-3.45,4.83-.07.53.29.71.3.77.06.75.32,1.43.35,1.75,0,.12,0,.23,0,.35-.42.38-.92,1.15-1,1.68s.3.73.3.77c0,.23,0,.47,0,.7-1.42-.17-.38.72-.35,1.05.05.57-.07,1.18,0,1.75-.66,1.29-.76,4.59,1.05,4.9.02.12-.03.25,0,.35.05.17.3.26.35.35.06.11.25.22.35.35-.04.36.05.51.35.7,1.34.86,2.98,1.47,4.55,1.75.21.04.38.42,1.16.35,1.73-.15,4.83-1.87,6.81-2.34,1.04-.25,5.71-.68,5.96-.87.13-.1.16-.83.39-1.17,1.79-2.61,2.05-3.65,2.15-6.99.02-.83-.49-1.66-.39-2.43.13-.93,1.76-1.71,1.41-2.99-.35-.38-2.26,1.34-2.09.18,1.71-1.35,2.31-3.28,2.09-5.43-.19-.25-2.51,1.96-2.98,2.09-1.42.42.42-1.98.53-2.28.54-1.54.79-3.43.7-5.07-1.12-.05-1.37,1.3-2.08,1.94-1.45,1.3-2.71,2.08-4.56,2.61ZM85.27,59.95c-.7-.67-6.13-.67-6.82,0-1.42,1.37,1.63,3.82,3.19,3.67,1.03-.1,5.12-2.24,3.64-3.67ZM143.8,92.75c-.93.88,4.39,3.42,4.58.17.1-1.84-2.32-4.13-4.04-4.39-.35-.05-.99-.17-.88.36,2.79.99,5.39,5.9.35,3.85ZM141.34,94.5c-1.64-.17.33,2.18.55,3.12,1.1,4.63-2.23,1.88-4.74,2.29,1.32,1.13,4.74,3.02,6.1,1.21,1.69-2.25-.75-4.81-1.91-6.63ZM158.84,104.3c8.33-.09,2.23-7.83-2.45-8.05l3.17,2.25c4.92,5.71-1.58,3.5-2.12,4.04l.7,4.2c1.66.23.59-2.36.7-2.45ZM133.21,108.4c1.99-1.88-.67-7.17-3.41-6.9,3.14,2.32,3.94,8.61-1.23,4.9-.29,1.7,3.32,3.24,4.64,2ZM171.02,112.29c1.34-2.18-3.58-6.92-5.89-6.59,1.46,1.48,3.99,2.51,4.38,4.85.32,1.93-2.78.82-4.02,1.1.22,1.84,1.49,2.94.7,4.89,1.7.17.78-3.56,1.05-3.85.84.35,3.32.34,3.79-.41ZM164.41,129.1c1.64-2.31-5.28-4.95-6.39-5.62-.99-.61-1.92-2.59-3.29-1.25-2.82,2.76-.29,9.92,4.02,10.67,6.72,1.17,3.79-2.65,4.32-3.38.13-.18,1.21-.22,1.34-.41ZM136.26,135.63c-4.5-6.44-9.75,7.05-2.82,7.11,3.31.03,4.1-4.07,3.35-6.7-.09-.31-.44-.29-.52-.41ZM141.24,137.26c-3.31.99-4.24,9.48,1.67,8.31,3.64-.72,3.79-9.96-1.67-8.31Z"/>
  <path class="cls-7" d="M125.95,148.38c.74.33.14,2.16.35,2.45.06.08.64-.08.7,0,.15.19-.53,3.29-.11,4.84.73,2.69,2.52,2.99,3.61,4.61.03.05-.29.65.35,1.05-1.52-.97-2.61-1.71-3.85-3.15-.02-.11.02-.24,0-.35-.05-.24-.31-.29-.35-.35-.09-.14.07-.58-.35-.7-.67-2.99-.55-5.41-.35-8.4Z"/>
  <path class="cls-4" d="M118.6,69.31c.7,1.42,1.35,1.56,1.75,3.15.29,1.16.54,2.78.27,3.95-.28,1.23-1.54,1.66-1.84,2.35-.63,1.43-.27,2.92-1.58,4.89-.33.5-2.07,2.52-2.45,2.8-2.29,1.65-6.61,2.54-9.32,3.45-.46.16-1.07.1-1.18.74.85.01,1.69.06,2.54-.08,2.06-.35,4.87-1.72,6.76-1.98,2.88-.39,3.72.11,6.79-1.08,0,1.57-.14,3.02.35,4.55-1.01-.15-.82.37-.51,1.03.44.96,1.32,2.39,1.49,3.43.24,1.45-1.25,5.72-2.94,4.31-.65-.54-.09-1.67-1.19-1.43.1.62-.14,1.55,0,2.1h-.7c-.05-.66.34-1.23-.7-1.05.27,2.11-.82,6.85-2.89,7.78-2,.9-1.66-.13-2.01-1.67-.06-.25.18-1.21-.53-.86-1.04.52-3.27,6.54-6.83,5.25,1.14-5.73-1.46-2.42-1.05.15.13.82.63,1.15,1.4,1.24.23,1.12-.68,1.96-.74,3-.04.68.39,1.14.39,1.2-.14,4.24,1.5,7.58,1.03,11.35-.07.58-.54,1.06-.6,1.5-.56,4.32-.93,8.79-3.05,12.71-.13.24-.32,1.28-.88.68-.19-.2.98-4.42,1.06-5.43.07-.96-.33-1.78-.29-2.44.05-.78.41-5.91.63-6.12.1-.11,2.71.38,2.45-.87-.1-.49-2.99-.66-3.33-1.93-.94-.4-.11,1.36-1.09,1.7-3.22,1.1-6.98-3.32-8.71-5.55-1.33-.56.61,2.71.18,3.14-5.07-.4-9.2-5-10.15-9.79-1.17.22-.49,2.58-.7,2.8-1.38.18-2.62-1.43-3.28-2.48-2-3.19-2.81-6.7-1.96-10.46-.76-.29-1.13,1.34-1.23,1.74-.3,1.26.26,3.3-1.67,2.74-2.23-.65-4.49-5.98-4.48-8.16,0-2.07,1.61-4.95,2.48-6.82-1.03-.81-2.49,2.65-3.14,2.98-2.91,1.47-1.51-4.14-.96-5.52.43-1.08,2.79-4.7,3.98-4.73.71-.02,4.81,2.14,6.09,2.53.32.1,2.86.96,2.44.01-.51-1.15-7.87-3.82-9.44-5.08-.08-.06-.92-1.52-1.05-1.75-.05-.09.12-.45-.06-.63-.37-.36-1.83-.28-2.74-1.65-.99-1.48-.23-2.28-.52-2.97-.25-.6-1.53-1.18-1.96-2.26-.69-1.72-.15-2.47.37-4.05l-1.4.7c.18-.84.24-1.92.35-2.8,1.78.59,4.95,1.22,6.91,1.66.66.15,1.44-.05,1.94.08.31.08,1.82,2.87,2.93,3.47,1.03.55,1.53-.21,2.4.35,1.67,1.07.04,3.15-.15,4.79-.83,7.31,5.62,11.24,12.2,8.71,6.33-2.43,8.31-12.86,14.28-16.6,5.27-3.31,10.14-1.39,15.81-2.81ZM86.33,92.29c-1.6.91-2.9-1.82-3.41-1.29.44,2.84,2.6,2.41,4.56,2.96,1.33.37,1.27,1.29,3.58.81,1-.21,3.29-1.71,1.12-1.68-.94.01-1.73.5-2.71.31-1.12-.22-1.65-1.59-2.54-1.71-.64-.08-.45.52-.6.61ZM97.61,91.35c-.21-.17-1.46.35-1.94.37-.23,0-3.23-.62-2.26.68.08.11,2.15.68,2.56.64.36-.03,2.09-1.31,1.64-1.68ZM84.31,96.95c-.74-.21-1.32,1.31-1.53,1.79-.7,1.56-1.35,3.44-.65,5.12,1.16,2.74,4.02,0,4.44.09.46.1,1.6,3.38,2.99,3.15-1.02-2.16-2.22-3.7-1.75-6.29-.49-.55-2.67,2.43-3.16,2.64-2.73,1.15-.81-5.24-.34-6.49ZM87.04,114.17c-.38-.24-1.1-.32-.94.4.25,1.17,1.91,3.57,3.24,3.29.47-.1.77-.99,1.44-.99.81,0,1.03,1.22,1.92,1.06l-1.41-2.79c-1.12-.38-1.52,1.26-2.54,1-.86-.22-1.45-1.81-1.71-1.98Z"/>
  <path class="cls-6" d="M92.36,154.33c0,.35.03.7,0,1.05-3.26.7-7.89,1.85-7.92-3.03-.02-3.33,2.63-3.9,3.32-5.59.75-1.85-2.13.13-2.59.56-.29.27-2.2,2.88-2.24,3.07-.69,3.16,2.18,6.2-3.32,6.06-6.86-.18-6.97-8.48-1.59-11.04l-.53-.87c-2.61.68-3.38,2.48-4.4,4.62-.13.26-.6.27-.65.52-.32,1.37.17,3.35.69,4.65-4.97-.79-4.69-6.36-1.41-9.28,1.73-1.54,3.48-1.25,3.83-4.22.53-4.44.28-9.11-.42-13.51-.56-3.51-3.21-11.49-2.96-14.37.09-.98.86-1.39,1.68-.8.16.11,1.07,2.84,1.43,3.46.6,1.05,3.1,3.83,4.15,4.24.74.29,1.7.04,2.03.24.18.1.44,1.38.75,1.78,1.88,2.42,5.27,4.54,8.32,5.07,2.73.47,2.11-.03,4.74,1.21,3.2,1.51,4.62.91,4.72,5,.06,2.43-.8,10.28-2.18,12.09-1.7,2.22-3.36,1.98-4.74,5.58-.62,1.62-.65,1.67-.7,3.5Z"/>
  <path class="cls-7" d="M47.22,136.13c1.91-.08,3.41.71,3.78-1.66s-1.52-6.07-4.15-6.22c-.31-1.91,2.63-3.22,4.21-2.96l-.35,3.5c1.01.09.86-1.23,1.52-1.98,2.23-2.51,5.59-1.71,7.81.35,1.33,1.23,3.29,5.98,5.1,5.78.18-.02,2.28-.57,2.37-.65.89-.82-2.13-.79-2.49-1.28-.28-.38-.37-4.83-.28-5.51.19-1.46,1.24-3.69,2.12-4.88.44-.6,2.44-1.83,2.05-2.32-.06-.07-.7-.08-.88-.34-.82-1.18,1.41-1.76,2.44-2.13.69.12,3.51,12.14,3.65,13.52.27,2.65.23,9.39-.75,11.76-.88,2.13-3.95,3.21-5.11,5.39-.77,1.44-.57,3.15-1.14,4.63-.94.6-2.38-.85-2.73-.63-.03.02,0,.47-.28.67-3.03,2.18-6.4,2.27-9.19-.34,8.6,2.92,7.45-9.47,1.65-11.63-.78-.29-1.5-.15-2.1-.35-.67-.23-1.05-1.12-1.87-1.22-1.9-.23-3.02.86-3.11,2.7-.13-.68-2.08-1.97-2.17-2.2-.21-.55-.02-1.02-.11-1.3-.06-.19.05-.49,0-.7ZM52.56,129.57c-1.66,1.67.05,6.39,2.35,7.11,6.16,1.93,3.58-6.95.54-7.53-.66-.12-2.42-.04-2.88.43Z"/>
  <path class="cls-15" d="M50.77,138.98c1.46-.91,2.6,1.47,3.36,1.66s1.37-.39,1.95-.25c.77.18,2.72,2.78,3.05,3.61,3.69,9.01-7.68,6.98-8.74,0-.12-.79-.13-4.69.37-5Z"/>
  <path class="cls-9" d="M99.71,158.18c2.43,1.74,5.25,2.32,8.04,1.03-1.08-3.46.28-8.63,4.21-9.43-.43,2.87-3.59,4.02-2.71,7.44.83,3.23,4.23,3.18,6.91,2.71.71,1.73-3.75,1.49-4.29,1.32-.36-.11-1.66-1.16-2.03-1.5-.39-.35-.12-1.1-.85-.87-.75,1.09-3.28,2.21-4.55,2.13-.23-.01-4.19-1.47-4.38-1.61-.53-.37-.23-.96-.34-1.23Z"/>
  <path class="cls-9" d="M94.46,155.73c1.07.21,1.24,1.55,2.45,1.4-.51-2.72.85-6.94,3.16-8.56.43-.3,2.54-1.15,2.78-.89.81.87-1.07,1.31-1.38,1.59-2.75,2.43-3.31,5.1-2.12,8.56-.1-.06-.55.13-.66-.03-.3-.4.5-1.84-.91-1.38-.36.12-.49,1.33-.53,1.75-.53.3-3.36-1.58-3.49-1.76-.6-.8.58-.63.7-.69Z"/>
  <path class="cls-15" d="M49.63,135.04c-2.34,1.45-4.58-4.52-3.08-5.53,2.04-1.37,4.15,4.86,3.08,5.53Z"/>
  <path class="cls-9" d="M93.06,150.83c-.02,1.21-.31,1.59,1.05,1.4-.16,1.27.33,2.19.35,3.15-1.36.19-1.08-.17-1.05-1.4l-1.05.35c.05-1.83.08-1.88.7-3.5Z"/>
  <path class="cls-15" d="M45.83,135.43c.08.86.84,1.53.7,2.45-1.17.16-2.58-2.48-2.09-3.15.37.38,1.02.47,1.4.7Z"/>
  <path class="cls-1" d="M45.12,131.59c.12.09.58,2.34.7,2.8-2.02.18-1.97-3.74-.7-2.8Z"/>
  <path class="cls-1" d="M45.83,135.43c-.02-.23,0-.47,0-.7.44-.44,1.29.97,1.4,1.4.05.21-.06.51,0,.7-.67-.14-.53-.99-.83-1.29-.19-.19-.51-.07-.57-.11Z"/>
  <path class="cls-4" d="M57.72,38.52c-.13.25.33,1.09-.82.64-1.2-.47-3.98-4.76-4.45-6.05-2.97-8.17,3.53-15.76,10.05-19.73.44-.26,1.67-.99,2.05-1.1.66-.2.46.11.51.51.31,2.31-.57,6.37-1.4,8.58-7.11,1.48-10.29,11.59-5.95,17.14Z"/>
  <path class="cls-10" d="M76.97,20.32c1.76.52,1.86-.46,2.54-.8,2.24-1.11,3.9-2.08,6.56-1.65l-4.17,1.94c-1.65,1.28-2.75,2.22-3.87,4-.68,1.07-1.59,2.1-1.4,3.5l2.1-2.8h.35c-.95,1.88-1.8,4.26-1.3,6.38.37,1.57,2.28,4.07,4.1,3.77.05-5.76,5.81-9.38,10.85-10.5-.06.1.15.39-.23.72-1.02.89-3.52,1.53-4.99,2.64-2.75,2.08-4.62,5.34-4.23,8.89-1.4.88-4-1.36-4.38-1.33-.64.05-.97,1.54-1.33,1.92-4.21,4.52-12.26,3.43-9-4.28,1.64-3.86,5.99-3.93,6.49-4.7.28-.43.31-2.53.69-3.51.31-.8,1.37-1.78,1.48-2.35.08-.41-.24-.64-.26-.81-.04-.32.08-.84,0-1.05ZM76.16,30.22c-3.33-4.72-13.11,9.82-2.6,7.86,1.48-.27,4.03-2,4.09-3.59,0-.23-1.36-4.09-1.49-4.27Z"/>
  <path class="cls-7" d="M60.17,36.77l.28.2c-.25.63-.42,1.79.42,1.19.12-.09-.35-.68.7-.69-.16,2.06-.47,3.78.32,5.8.31.79,1.1,1.06,1.08,1.9-.18.17-1.46-.39-1.71-.56-.92-.6-.78-1.61-1.78-1.54-.04.72-.05,1.41.16,2.11.46,1.54,3.66,4.19-.16,3.14.63,2.01,1.23.95.74,3.39-.13.65.31,1.36-.75,1.16-.31-.75-1.32-1.22-1.59-2.08-.32-1.01-.16-2.43-.16-3.52,0-.35,0-.7,0-1.05s0-.7,0-1.05c.64-3.06,1.02-5.55,2.45-8.4Z"/>
  <path class="cls-7" d="M63.67,21.37c-.63,1.67-.96,1.21-1.49,2.19-.24.46-.52,2.29-.62,2.36l-2.08-.68c-.77.72-.59,3.68-.73,3.82-.19.19-1.42-.45-1.93,1.04-.47,1.38.22,3.59.64,4.99.52,1.72,1.52,1.02.25,3.43-4.34-5.56-1.16-15.66,5.95-17.14Z"/>
  <path class="cls-11" d="M59.47,52.86c.46,1.11-.24,2.9,1.4,2.45.2-.2-.25-3.41,1.05-3.15-.33,2.92.08,5.94,1.75,8.4-1.91-.72-3.27-2.99-4.26-4.66-.49-.82-.74-2.36-1.33-3.13-.47-.62-1.38-1.01-2.11-2.01,2.23.51.03-2.67,1.75-3.5,0,1.09-.16,2.5.16,3.52.27.86,1.29,1.33,1.59,2.08Z"/>
  <path class="cls-7" d="M60.87,35.72c-.06-.67-.09-1.52.7-1.75-.04,1.13-.29,1.04-.7,1.75Z"/>
  <path class="cls-11" d="M54.57,50.06l.18-.35c1.31-.25.7.41.87.7-.49.17-.79-.26-1.05-.35Z"/>
  <path class="cls-11" d="M57.72,46.21c-.7-.52-.05-.82,0-1.05,0,.35,0,.7,0,1.05Z"/>
  <path class="cls-4" d="M128.75,18.57c-.28-2.49-.3-4.48.62-6.9,2-5.24,8.47.5,10.58,2.87,3.96,4.45,7.22,11.28,4.9,17.16-1.01,2.57-5.39,7.49-8.06,8.21-.36.1-.98-.07-1.4,0,1.27-2.78,3.54-4.56,3.85-7.87.1-1.09-.35-1.98-.35-2.28-.02-.83.08-1.25,0-2.1-.16-1.74.54-4.34-2.1-4.55.02-.1,0-.24,0-.35-.19-2.1-5.98-4.81-8.05-4.2Z"/>
  <path class="cls-5" d="M120.7,23.47c.12.06.22.26.35.35,0,.51.2.9.7,1.05-.03.1.03.24,0,.35-.65,2.73-.18,3.59,2.8,2.8-.01.23.04.5,0,.7-.18.85-2.5,3.81-2.1,4.2,1.11,1.08,2.64-3.06,3.15-3.35s.78.16,1.05.2c-.69,3.54,3.83,3.98,4.2.7.34,0,2.62-.45,3.09-.58,2.74-.77,4.71-4.78.76-4.66,1.77,1.37,1.89,1.96-.02,3.3-1.64,1.14-4.14,1.1-6.09.89-1.06-.11-2.92-.2-2.63-1.74.08-.3-.09-.8,0-1.05.98-.63,1.56-.23,1.75-1.4h.35l.7-.35c.1-.04.24.03.35,0l.7-.35c.11-.03.24.03.35,0,2.36-.54,3.82-1.15,6.3-.35.19.06.54.24.7.35l.7.7c.04.07-.03.23,0,.35v.7c0,.23.02.47,0,.7-.35,3.8-1.36,5.24-3.15,8.4-2.86-2.43-6.33,1.56-3.5,3.85-.21.16.18,1.33-1.49.99-.35-.07-2.46-1.09-2.82-1.33-.33-.22-.21-.69-.24-.71.56-1.25,1.02-1.91.28-3.27-.23-.42-.74-.49-.87-.69-.16-.24-.07-.55-.1-.59.95,0,3.03.25,2.45,1.4.77.24,1.53-1.01.83-1.4-.78-.44-2.85-.29-3.8-1.05-1.21-.07.38.87.52,1.05-.95,0-2.32.11-2.8,1.05-.03-.04-.44.1-.6-.09-.25-.28-.09-1.13-.66-1.29-.45-.13-1.34.42-2.06.35-.69-.07-.8-.68-.88-.71.49-2.13-.11-2.84-2.1-3.5.02-1.33,1.52-2.14,1.91-3.16.46-1.23-.21-2.88,1.94-2.78Z"/>
  <path class="cls-7" d="M124.9,25.57l-3.33-2.81c-2.36-.44-1.06-2.78-1.57-4.53,3.34-.1,1.14,2.82,2.97,4.19.37-1.06-.31-2.68,1.57-2.45.03.1-.03.23,0,.35.21.92.22,1.86.7,2.8.58.12.82-.2,1.04-.7.53.62,1.06.01,1.4,2.1l-2.1,1.05c-.23-.03-.47,0-.7,0Z"/>
  <path class="cls-7" d="M136.8,22.77c-1.92-.6-2.8-.31-4.55.35-.17-.57-1.34-.11-1.42-.55-.34-1.86,1.08-3.26-2.08-2.6-.04-.46.05-.94,0-1.4,2.07-.62,7.85,2.1,8.05,4.2Z"/>
  <path class="cls-9" d="M136.8,39.92c.35,1.42.16,2.79,2.1,2.45.13,1.51,1.25,4.38-1.05,4.9.63-1.95.16-3.18-.94-4.81-.7-1.03-1.08-1.22-1.86-2.54h.35c.42-.07,1.04.1,1.4,0Z"/>
  <path class="cls-11" d="M136.8,22.77c0,.11.02.25,0,.35-.02.15-.54.62-.35,1.05-2.48-.8-3.93-.19-6.3.35-.26-1.11.69-.53,1.42-.86.34-.16.6-.51.68-.54,1.75-.66,2.63-.95,4.55-.35Z"/>
  <path class="cls-11" d="M124.55,20.32c2.22-.56,1.09,1.33,1.75,2.1-.22.5-.47.82-1.04.7-.49-.94-.49-1.88-.7-2.8Z"/>
  <path class="cls-9" d="M142.39,40.27c-.34.82-1.34.85-2.1,1.05-.23-1.1,1.32-.8,2.1-1.05Z"/>
  <path class="cls-14" d="M127.7,24.87c0,.11.02.24,0,.35-.19,1.17-.77.77-1.75,1.4.08-.23.23-.48.35-.7.15-.28,1.01-1.27,1.4-1.05Z"/>
  <path class="cls-9" d="M139.59,41.67l-.7.35c.06-1.39.39-.35.7-.35Z"/>
  <path class="cls-11" d="M127.7,24.52c.02.11,0,.24,0,.35-.39-.22-1.24.77-1.4,1.05-.26.03-.6-.34-.7-.35l2.1-1.05Z"/>
  <path class="cls-14" d="M129.8,24.52l-.7.35s.22-.23.7-.35Z"/>
  <path class="cls-14" d="M128.75,24.87l-.7.35c.11-.39.46-.26.7-.35Z"/>
  <path class="cls-5" d="M115.45,13.32c-1.15,1.29-.21,1.61-.11,2.33.07.48-.33.89-.08,1.5.54,1.33,1.98.93,2.99,1.07.12.02.25-.03.35,0-.12,2.01,1.14,3.96-.58,5.63-2.93-.43-8.02-7.62-6.26-10.19.71-1.04,3.25,1.14,2.64-.15-.43-.9-3.26-1.74-3.51.33-.48,3.94,1.71,5.3,1.77,7.54.03,1-.8,2.05-.03,3.01.89,1.1,2.28.15,3.18.14.4,0,2.08.3,2.11.53.08.59-1.92,3.88-2.11,4.01-.82.61-2.47.05-3.15,0,.54-1.84-1.04-3.45-2.8-3.5.2-2.56,1.02-.63,1.92,0,.47.33,1.49,1.03,1.94,1.2.37.14,1.71.59,1.73-.15-2.04-.16-4.14-3.31-5.77-3.19-1.14.08-.82,1.67-.17,2.13-.43.14-1.84,1.47-1.75,2.1-.55-.23-1.33-.07-2.35-.63-2.4-1.33-2.63-3.96-1.57-6.28.22-.49.68-.65.77-.79,1.28,1.27,2.11,1.36,3.62.3,1.8-1.27,2.03-4.69-.82-4.49,1.35-1.94,2.84-6.03,6.15-4.57,1.38.61,1.37,1.55,1.9,2.13Z"/>
  <path class="cls-1" d="M88.16,9.48c1.06.2.68-.54.7-1.21.07-1.82-.43-4.48,1.05-5.79.48,1.74,1.68,4,2.81,5.41.81,1.01,2.31,2,2.95,3,.91,1.42,1.18,3.54,2.64,4.88-1.19-.06-2.48.13-3.64-.03-2.65-.37-6.53-3.39-6.5-6.27Z"/>
  <path class="cls-14" d="M112.65,21.37c-.06-2.24-2.25-3.6-1.77-7.54.25-2.06,3.09-1.23,3.51-.33.61,1.29-1.93-.89-2.64.15-1.76,2.57,3.34,9.76,6.26,10.19,1.72-1.66.45-3.62.58-5.63,1.44.43.29,4.48.72,4.88.05.05.79.07,1.38.37-2.15-.1-1.48,1.55-1.94,2.78-.38,1.03-1.89,1.83-1.91,3.16-.18-.06-.49.05-.7,0-.08-.02-.22-.28-.35-.35.18-.14,2.19-3.43,2.11-4.01-.03-.24-1.71-.54-2.11-.53-.4-1.25-1.92-2.76-3.15-3.15Z"/>
  <path class="cls-4" d="M104.61,19.97c.87-1.47,1.83-2.81,2.8-4.2,2.85-.19,2.62,3.23.82,4.49-1.51,1.06-2.34.97-3.62-.3Z"/>
  <path class="cls-4" d="M134.7,35.37c-.2.36-.1,1.05-.7,1.93-1.02,1.48-2.17,1.43-2.8,1.92-2.84-2.29.64-6.28,3.5-3.85Z"/>
  <path class="cls-7" d="M135.4,39.92h-.35c-.24-.41-.52-.81-1.05-.7,2.53-2.73,3.2-6.25,4.9-9.45,0,.3.46,1.19.35,2.28-.32,3.3-2.58,5.09-3.85,7.87Z"/>
  <path class="cls-4" d="M112.65,29.07c-3.36-.23-2.44-.38-4.9-1.4-.09-.63,1.32-1.96,1.75-2.1.08-.03.23,0,.35,0,1.76.05,3.33,1.66,2.8,3.5Z"/>
  <path class="cls-4" d="M125.95,33.62s-.06.35.1.59c.13.2.64.27.87.69.75,1.36.28,2.02-.28,3.27-1.99-1.52-1.93-1.67-3.5-3.5.47-.94,1.85-1.06,2.8-1.05Z"/>
  <path class="cls-8" d="M118.25,18.22c-1.01-.14-2.45.26-2.99-1.07-.25-.62.14-1.02.08-1.5-.1-.72-1.03-1.04.11-2.33.05.06.59.04.85.36.92,1.18,1.98,2.98,1.95,4.54Z"/>
  <path class="cls-4" d="M124.2,25.92c.4.65.39,1.37.35,2.1-2.97.79-3.45-.07-2.8-2.8.89-.35,1.92.65,2.45.7Z"/>
  <path class="cls-4" d="M116.85,29.42c1.99.66,2.59,1.37,2.1,3.5-1.46-.64-4.04-1.2-2.8-3.5.21.05.52-.06.7,0Z"/>
  <path class="cls-10" d="M105.31,28.37c.64.33.72.58.77.61.21.1.85-.77.63.44-.01.06-.43.08-.35.34,1.29-.03,2.65,1.98,2.8,3.16l-1.27-.64-3.27-3.55c.3-.02.6-.01.7-.35Z"/>
  <path class="cls-13" d="M136.8,23.12c2.64.21,1.94,2.81,2.1,4.55-.58.12-.78-.26-1.05-.7.02-.23,0-.47,0-.7,0-.19.2.08,0-.7-.03-.12.04-.28,0-.35-.26-.43-.34-.43-.7-.7-.16-.11-.51-.29-.7-.35-.19-.43.33-.9.35-1.05Z"/>
  <path class="cls-13" d="M125.6,25.57c.1.01.44.38.7.35-.12.22-.27.47-.35.7-.09.25.08.75,0,1.05-.09.37-.55.81-.35,1.4l-1.05-.35c.04-.2-.01-.47,0-.7.04-.73.05-1.45-.35-2.1.16.01.54-.35.7-.35.23,0,.47-.03.7,0Z"/>
  <path class="cls-14" d="M121.75,24.87c-.5-.15-.69-.54-.7-1.05.15.1.65,0,.9.33.44.59-.18.68-.2.72Z"/>
  <path class="cls-8" d="M187.88,161.33c.7.74-1.22,1.91-.7,2.45.12.12,2.72-.19,3.31.35.64.44-1.19,1.97-1.58,2.26-1.77,1.29-6.38,2.66-8.55,2.68-1.74.01-7.33-1.5-6.85-3.67.05-.23,3.6-1.98,4.14-2.22.61-.27,4.55-1.84,4.81-1.84.78,0,5.24-.2,5.42,0Z"/>
  <path class="cls-8" d="M183.03,19.85c.18.18,2.23-.6,2.8-.35.53,4.35-1.42,8.59-6.11,9.11-1.68.19-5.77-.41-4.81-2.71.58-1.38,3.59-6.32,4.62-7.28,4.18-3.85,2.86.58,3.5,1.23Z"/>
  <path class="cls-8" d="M36.73,31.17c-4.91.01-8.47-3.35-8.05-8.4l2.8.35.36-2.8c4.42,1.41,4.68,6.98,4.89,10.85Z"/>
  <path class="cls-8" d="M99.71,166.58c-.01.75-1.67.96-1.74,1.06-.39.54.97,1.7.69,2.43-5.92,1.27-11.13-.3-10.15-7.34,1.53.11,2.63,1.23,4.12,1.65,2.44.69,4.89.37,7.08,2.2Z"/>
  <path class="cls-8" d="M214.82,154.68c.21,1.15-1.46.61-1.04,2.08l1.74.88c-3.56,2.72-9.29.71-12.58-1.75,3.14-2.99,8.13-2.87,11.89-1.22Z"/>
  <path class="cls-8" d="M245.96,144.88l-.35,2.8h2.8c-.81,4.95-7.22,5.68-11.19,4.2,1.59-3.56,4.77-6.53,8.74-6.99Z"/>
  <path class="cls-8" d="M62.97,162.38l-5,2.86c-.88.35-5,1.49-5.49.98-.45-.47,1.27-2.4-2.45-1.75,1.98-5.59,8.78-4.72,12.94-2.09Z"/>
  <path class="cls-8" d="M31.33,149.94c.19.16,1.2.82.85,1.23-.73.85-4.83,1.79-6.06,1.73-.61-.03-4.97-1.17-5.11-1.4-.74-1.15,2.36-1.23-.02-3.12,3.59-1.25,7.4-.96,10.34,1.56Z"/>
  <path class="cls-8" d="M5.83,111.4c1.86,1.58.06,7.24-1.02,9.09-.21.37-.21.61-.75.56-1.56-.14-3.16-3.65-3.02-5.02.15-1.52,2.9-6.23,4.78-4.63Z"/>
  <path class="cls-8" d="M36.03,119.34l.35-2.8h-2.45c-.31-2.29,5.81-6.5,7.36-5.45.43.3.71,1.9.71,2.47,0,3.53-2.56,5.74-5.97,5.77Z"/>
  <path class="cls-9" d="M127,157.83l-.35-.35c.04.06.3.11.35.35Z"/>
  <path class="cls-8" d="M214.12,106.74c.95-3.32,3.48-7.85,6.98-8.94,2.52-.79,1.49,1.65,1.76,1.95.32.34,3.3-.64,3.15.51-.14,1.07-1.12,3.87-1.86,4.62-.52.52-3.28,1.87-3.91,1.87h-6.12Z"/>
  <path class="cls-8" d="M186.48,78.75c-.06.07-1.41.19-1.75.36l.68,2.78c-5.01,1.38-8.86-2.69-8.03-7.68l7.23,2.39c.55.3,2.51,1.37,1.86,2.16Z"/>
  <path class="cls-13" d="M113,41.67c1.85-.53,3.11-1.31,4.56-2.61.71-.63.97-1.99,2.08-1.94.09,1.63-.16,3.52-.7,5.07-.1.29-1.95,2.69-.53,2.28.47-.14,2.79-2.35,2.98-2.09.21,2.15-.38,4.08-2.09,5.43-.17,1.16,1.75-.55,2.09-.18.35,1.28-1.28,2.06-1.41,2.99-.1.77.42,1.6.39,2.43-.1,3.34-.36,4.38-2.15,6.99-.23.34-.27,1.07-.39,1.17-.25.19-4.92.62-5.96.87-1.99.47-5.08,2.2-6.81,2.34-.78.07-.95-.31-1.16-.35,1.86-1.03-.68-1.39-1.57-2.1-.74-.59-1.82-1.84-2.22-2.68-.71-1.5-.45-2.99-1.28-4.31-.67,1.4-.57,3.03-.52,4.55-1.2-.52-.56-2.2-.71-3.33-.08-.57-.34-.49-.34-.52-.07-.57.05-1.18,0-1.75.44-.17.36-.67.35-1.05,0-.23,0-.47,0-.7.62-.6.72-1.61.7-2.45,0-.12,0-.23,0-.35,3.39-4.95,5.92-7.62,12.25-7.7.35,0,.7,0,1.05,0,.39.86,1.07.09,1.4,0ZM113.71,60.21c2.92.83,4.61-3.53,4.58-5.77-.09-6.18-2.89-10.26-9.47-9.97l3.68,2.79c2.91,3.81,2.77,8.61,1.22,12.95ZM105.56,47.66c-2.87.79-2.06,7.09,1.15,3.97,1.78-1.73.93-4.54-1.15-3.97ZM111.84,59.03c-2.74,1.8-6.29,1.81-8.29-1.09-.81-1.18-1.41-4.19-1.4-5.6.02-1.49,1.14-2.86.88-4.37-5.59,3.54-2.81,14.59,3.85,14.36,1.04-.04,3.53-.69,4.35-1.27.51-.36,1.79-2.13,1.42-2.6-.53-.66-.76.54-.81.57Z"/>
  <path class="cls-9" d="M62.27,69.66c-1.38-.46-5.08-2.19-6.12-3.15-.89-.83-2.63-4.17-2.97-4.39-.78-.49-1.95.39-2.8.19-.05-3.05,5.28-3.72,6.99-1.57.02,1.3-2.17-.26-2.11,1.05.05,1.16,1.24,2.75,2.13,3.47,1.92,1.55,12.51,5.04,14.82,4.73,2.68-.36,7.03-3.49,9.07-3.39,2.48.12,8.47,3.19,11.42,3.94,3.63.92,6.06,1.04,9.65-.17,1.19-.4,3.52-1.98,4.19-2.11,2.01-.39,4.5.41,6.64.34,2.81-.09,6.39-1.04,8.88-2.31,1.47-.75,4.03-2.1,3.89-3.98-.25-.24-3.63.5-3.14-.52,1.14-2.37,9.18-.66,9.09,2.62-1.62.31-2.16-1.48-3.59-1.05-.24.07-1.43,1.7-1.88,2.04-1.75,1.32-5.75,3.39-7.83,3.91-5.67,1.43-10.54-.49-15.81,2.81-5.97,3.74-7.95,14.17-14.28,16.6-6.59,2.53-13.03-1.4-12.2-8.71.19-1.64,1.82-3.72.15-4.79-.87-.56-1.37.2-2.4-.35-1.11-.59-2.62-3.38-2.93-3.47-.5-.13-1.27.07-1.94-.08-1.96-.45-5.13-1.07-6.91-1.66ZM84.66,69.31c-.12-.12-3.04-1.08-3.32-1.08-.42,0-2.8.86-3.12,1.1-.51.38-1.4,3.5-1.08,4.16.9,1.88,3.02-1.48,4.06-2.24.49-.36.98-.66,1.53-.92.34-.16,2.7-.28,1.94-1.03ZM76.26,70.71c-1.28-.02-3.64.21-3.08,1.84.98,2.83,3.42.46,3.08-1.84ZM96.21,77s.45.06.59-.1c1.1-1.35,2.15-2.75,3.26-4.09-1.97-.34-2.74,2.72-4.2,3.85-.48-.05-.95.09-1.47-.09-2.57-.91-2.17-5.13-4.15-4.99-1.06.07-3.44,2.03-4.15,2.91-1.19,1.49-1.58,3.29-2.82,4.62-.9-2.76,2.81-5.67,3.15-7.52.22-1.17-2.6-.17-3.12.04-3.14,1.25-6.13,6.42-5.97,9.71.22,4.4,4.77,7.52,8.95,6.57,5.8-1.31,6.69-6.84,9.92-10.9ZM96.91,72.81l-3.84-.35c.28,3.79,2.98,3.92,3.84.35Z"/>
  <path class="cls-13" d="M61.57,37.47c1.07-.02.67.62,1.24,1.37,3.51,4.6,5,2.42,8.8,4.5,1.2.66,2.08,2.1,3.25,2.87.09.79.7,2.39,1.4,2.8.02.11-.02.24,0,.35.14.72.26,1.48.7,2.1.29,3.02,1.16,4.92.26,8.13-.18.64-2.07,3.88-2.41,4.08-.25.14-4.81-.9-5.72-1.01-.95-.11-2.33.2-3.09,0-.38-.1-.2-.68-.23-.7,1.51-.69-.24-2.14-.32-2.38-.49-1.48-1.75-5.85-1.43-7.18.06-.25.59-.21.67-.5.52-1.85.32-3.28,1.9-4.86l2.32-1.87c-4.2-.87-6.59,3.4-7,7-1.3-.25-.85,2.95-1.05,3.15-1.64.45-.94-1.34-1.4-2.45,1.06.21.62-.51.75-1.16.48-2.44-.12-1.38-.74-3.39,3.82,1.05.62-1.59.16-3.14-.21-.7-.2-1.39-.16-2.11,1.01-.07.86.94,1.78,1.54.25.16,1.53.73,1.71.56.03-.84-.76-1.11-1.08-1.9-.8-2.02-.48-3.74-.32-5.8ZM69.62,50.76c.05-.04.07-.76.4-1.17.63-.78,2.18-1.74,1.26-2.59-2.81-2.62-5.84,5.25-5.86,7.43-.01,1.75,1.54,5.77,3.01,6.78.38.26,3.78,1.33,4.22,1.36.82.04,2.68-1.41,2.91-2.2.34-1.17-1.31.04-1.64.11-5.01,1.02-5.25-4.23-5.35-7.63,1.71.35,2.53-1.15,1.05-2.1ZM72.29,49.4c-1.23.41-.77,4.94,1.88,3.63,1.35-.67.19-4.33-1.88-3.63Z"/>
  <path class="cls-9" d="M114.75,86.45c-.03,1.14-.24,1.02.87,1.06,2.37.09,4.9-1.32,6.64-2.82.54-.47,1.58-2,1.81-2.07.7-.21,2.09,1.68,4.21-.13.41-.35,1.03-1.79,1.24-1.91.48-.28,1.79.02,2.53-.1,1.83-.28,3.63-3.06,3.34-4.88h1.05s0,1.75,0,1.75c4.09.05,4.27-5.4,3.5-8.4.6-.22,1.3,1,1.74.7.14-.09,1.42-2.62,1.44-2.97.12-2.03-1.47-4.41-2.83-5.77,1.59-.43,1.84,1.24,3.14,1.39,2.13-3.5-2.26-7.29-5.59-7.7-.1-2.11,2.98.43,2.45-1.57-.07-.27-2.47-1.82-2.91-2-3.43-1.41-6.21-.99-9.58.36-2.68,1.07-4.48,3.23-7.11,4.26,1.35-3.09,5.71-5.86,8.96-6.61,3.41-.79,9.44-.14,11.53,3.09.78,1.21.25,1.84.68,2.82.26.6,1.29.92,1.72,1.43,1.76,2.11,2.59,3.93,1.14,6.51-.12.22-.79.28-.9.67-.19.65.68,3.33.16,5.05-.39,1.27-2.03,1.69-2.24,2.31-.27.79.05,2.09-.09,3.05-.32,2.16-1.6,4.3-3.78,4.96-.67.2-1.38.02-2.04.26-.11.04-1.1,1.41-1.57,1.73-1.69,1.14-2.77.87-4.1,1.5-.8.38-1.58,1.95-2.56,2.34-1.26.51-2.39.03-3.51.34-.62.17-2.18,1.76-3.75,2.37-3.07,1.19-3.92.69-6.79,1.08-1.9.26-4.7,1.63-6.76,1.98-.85.14-1.69.09-2.54.08.11-.64.72-.59,1.18-.74,2.71-.92,7.03-1.8,9.32-3.45Z"/>
  <path class="cls-1" d="M87.46,20.32c1.74-.06,3.25-.06,4.67,1.1s1.36,1.47.58,2.75c-5.03,1.12-10.8,4.73-10.85,10.5-1.82.3-3.74-2.2-4.1-3.77-.5-2.12.36-4.5,1.3-6.38.23-.46,2.49-2.84,2.89-3.06.44-.25.92-.01,1.31-.09,1.36-.26.99-.59,1.3-.68.43-.13,2.34-.35,2.9-.37Z"/>
  <path class="cls-2" d="M103.56,28.72c.35,0,.7.02,1.05,0l3.27,3.55,1.27.64c.04.34-.03.71,0,1.05-.68.81-.12,1.86-.53,2.8-1.54,3.57-10.17.05-10.94-3.75-.92-4.53,2.64-4.25,5.87-4.29Z"/>
  <path class="cls-10" d="M127,150.83c.44-1.38,1.86-1.98,2.59-2.84,1.23-1.47.77-2.81,3.53-3.12,1.91-.21,3.22,0,4.57,1.39,1.45,1.52,1.1,1.37,2.88,2.72,5.65,4.31,1.53,12.62-5.51,12.34-.83-.03-1.34-.2-2.1-.35-.83-.16-1.67-.37-2.45-.7-1.09-1.62-2.88-1.92-3.61-4.61-.42-1.55.26-4.64.11-4.84ZM139.82,158.41c1.87-1.97,2.54-5.19.98-7.56-1.09-1.64-2.39-.47-2.97-.86-.91-.62-.54-4.48-4.37-4.08-2.26.24-2.11,1.96-3.17,3.14s-2,.56-2.44,2.81c-1.36,7.02,8.03,10.67,11.97,6.55Z"/>
  <path class="cls-3" d="M61.92,52.16c.4-3.59,2.8-7.87,7-7l-2.32,1.87c-1.58,1.58-1.38,3.01-1.9,4.86-.08.29-.61.25-.67.5-.32,1.33.93,5.69,1.43,7.18.08.24,1.82,1.69.32,2.38-.62-.44-1.05.14-2.1-1.4-1.67-2.46-2.08-5.48-1.75-8.4Z"/>
  <path class="cls-10" d="M103.56,28.72c-3.23.04-6.78-.24-5.87,4.29.77,3.8,9.39,7.32,10.94,3.75.4-.93-.15-1.98.53-2.8,2.18,2.55-.25,5.06-2.86,5.71-4.56,1.13-11.82-4.62-9.82-9.47.96-2.34,5.31-3.62,7.08-1.49Z"/>
  <path class="cls-10" d="M164.41,129.1c-.14.19-1.21.23-1.34.41-.53.73,2.41,4.55-4.32,3.38-4.31-.75-6.84-7.91-4.02-10.67,1.37-1.34,2.3.64,3.29,1.25,1.11.67,8.02,3.31,6.39,5.62ZM163.04,128.43c-.48-2.46-3.75-3.25-5.72-4.24-.65-.32-1.07-1.56-1.79-.64-.31.4-.48,1.38-.53,1.91-.42,4.56,2.59,7,7,6.47.27-1.24-.49-2.04-.7-3.15l1.75-.36Z"/>
  <path class="cls-11" d="M104.26,112.34c-.77-.1-1.27-.43-1.4-1.24-.41-2.57,2.19-5.89,1.05-.15,3.56,1.29,5.79-4.73,6.83-5.25.71-.36.47.61.53.86.34,1.55,0,2.58,2.01,1.67,2.07-.93,3.16-5.67,2.89-7.78,1.04-.19.65.39.7,1.05.21,2.8-.78,8.42-4.37,8.44-1.4,0-1.99-1.21-2.45-1.09-.73.19-2.37,3.93-5.78,3.5Z"/>
  <path class="cls-10" d="M141.24,137.26c5.47-1.64,5.32,7.6,1.67,8.31-5.91,1.16-4.98-7.32-1.67-8.31ZM140.4,143.73c2.87,3.55,5.64-4.51,2.44-5.43-2.5-.72-3.7,3.88-2.44,5.43Z"/>
  <path class="cls-9" d="M136.26,135.63c.08.12.44.1.52.41.75,2.64-.04,6.74-3.35,6.7-6.93-.06-1.67-13.56,2.82-7.11ZM133.2,135.13c-2.69.74-2.51,6.65.27,6.63,3.31-.02,2.76-7.46-.27-6.63Z"/>
  <path class="cls-13" d="M85.27,59.95c1.49,1.43-2.61,3.57-3.64,3.67-1.56.15-4.61-2.3-3.19-3.67.69-.67,6.12-.67,6.82,0Z"/>
  <path class="cls-10" d="M158.84,104.3c-.11.09.96,2.68-.7,2.45l-.7-4.2c.54-.54,7.04,1.67,2.12-4.04l-3.17-2.25c4.68.22,10.78,7.95,2.45,8.05Z"/>
  <path class="cls-10" d="M171.02,112.29c-.46.75-2.95.76-3.79.41-.27.28.65,4.01-1.05,3.85.79-1.96-.48-3.06-.7-4.89,1.25-.27,4.35.83,4.02-1.1-.39-2.34-2.92-3.37-4.38-4.85,2.31-.33,7.23,4.41,5.89,6.59Z"/>
  <path class="cls-3" d="M98.31,59.51c-.05-1.51-.15-3.15.52-4.55.83,1.33.57,2.82,1.28,4.31.4.84,1.48,2.09,2.22,2.68.89.71,3.44,1.07,1.57,2.1-1.57-.28-3.2-.89-4.55-1.75.04-.36-.17-.48-.35-.7-.1-.13-.29-.24-.35-.35l-.35-.35c-.03-.1.02-.23,0-.35-.04-.33.01-.71,0-1.05Z"/>
  <path class="cls-11" d="M61.92,72.46l1.4-.7c-.53,1.58-1.06,2.33-.37,4.05.43,1.07,1.71,1.66,1.96,2.26.29.69-.47,1.49.52,2.97.91,1.37,2.37,1.29,2.74,1.65.18.18,0,.54.06.63-1.8.34-4.15-1.15-4.71-2.81-.27-.8-.07-1.52-.26-2.19-.22-.76-1.78-1.9-1.97-2.96s.45-1.97.65-2.89Z"/>
  <path class="cls-7" d="M110.55,41.67c-6.33.07-8.85,2.74-12.25,7.7-.03-.32-.29-1-.35-1.75.94-.96,1.57-2.35,2.46-3.33s2.68-1.72,3.14-2.97c1.5.08,3.3,0,5.08,0,.59,0,1.56-.22,1.92.35Z"/>
  <path class="cls-14" d="M120.7,92.05c.39,1.22,1.79,2.78,2.02,4.11.36,2.08-1.26,7.77-4.03,6.49-.25-.12-1.09-.96-1.14-1.15-.14-.55.1-1.48,0-2.1,1.1-.24.54.89,1.19,1.43,1.69,1.41,3.18-2.86,2.94-4.31-.18-1.04-1.05-2.47-1.49-3.43-.31-.67-.5-1.18.51-1.03Z"/>
  <path class="cls-10" d="M141.34,94.5c1.17,1.81,3.61,4.38,1.91,6.63-1.37,1.81-4.78-.08-6.1-1.21,2.51-.41,5.84,2.34,4.74-2.29-.22-.95-2.19-3.3-.55-3.12Z"/>
  <path class="cls-11" d="M120.35,72.46c1.71.2,1.94,2.62,1.67,3.94-.29,1.4-1.75,2.38-1.99,2.98-.63,1.51-.25,4.01-2.83,4.27,1.31-1.98.95-3.46,1.58-4.89.3-.69,1.56-1.12,1.84-2.35.27-1.17.02-2.79-.27-3.95Z"/>
  <path class="cls-10" d="M133.21,108.4c-1.32,1.24-4.93-.31-4.64-2,5.17,3.71,4.36-2.58,1.23-4.9,2.74-.27,5.4,5.02,3.41,6.9Z"/>
  <path class="cls-10" d="M143.8,92.75c5.04,2.05,2.44-2.86-.35-3.85-.1-.53.53-.41.88-.36,1.73.26,4.15,2.55,4.04,4.39-.18,3.25-5.51.71-4.58-.17Z"/>
  <path class="cls-10" d="M103.56,41.32c-.45,1.26-2.22,1.98-3.14,2.97s-1.52,2.37-2.46,3.33c0-.06-.37-.24-.3-.77.2-1.53,2.12-3.98,3.45-4.83.48-.31,1.23-.4,1.75-.7.23,0,.47-.01.7,0Z"/>
  <path class="cls-10" d="M74.87,44.81c-.4-.49-.77-1.22-1.18-1.62-.3-.29-2.01-1.24-1.97-1.35.55-1.4,3.32.89,3.79,1.45.97,1.15,1.57,2.82,1.45,4.32-.28.09-.29-.34-.35-.35-.25-1.21-1.17-1.74-1.75-2.45Z"/>
  <path class="cls-7" d="M98.31,59.51c.01.34-.04.72,0,1.05-1.81-.31-1.71-3.61-1.05-4.9,0,.03.26-.05.34.52.15,1.13-.49,2.81.71,3.33Z"/>
  <path class="cls-7" d="M76.62,47.26c-.22-.04-.47.02-.7,0,.12.59.26,1.15.35,1.75-.7-.41-1.31-2.01-1.4-2.8,0-.08.68-.84,0-1.4.58.71,1.5,1.24,1.75,2.45Z"/>
  <path class="cls-15" d="M78.01,23.82c-.08.74-.04.78.7.7l-2.1,2.8c-.19-1.4.72-2.43,1.4-3.5Z"/>
  <path class="cls-15" d="M139.94,120.39c-.2.32-.63,2.26-1.23,2.45-1.58.49.33-2.18.53-2.45h.7Z"/>
  <path class="cls-10" d="M83.26,21.37c-.21-.93.49-.66,1.02-.89.5-.21,3.36-1.76,3.18-.16-.56.02-2.47.24-2.9.37-.32.09.06.42-1.3.68Z"/>
  <path class="cls-7" d="M97.61,52.16s-.38-.24-.3-.77.58-1.3,1-1.68c.02.84-.08,1.85-.7,2.45Z"/>
  <path class="cls-7" d="M76.27,49.36c.79-.31,1.01,1.01,1.02,1.6s-.32.47-.32.5c-.44-.62-.56-1.38-.7-2.1Z"/>
  <path class="cls-7" d="M127.35,145.58c-.13.13.32,1.09-1.4.7.01-.23-.02-.47,0-.7h1.4Z"/>
  <path class="cls-7" d="M102.86,41.32c-.52.3-1.27.39-1.75.7-.11-1.54,1.42-.7,1.75-.7Z"/>
  <path class="cls-7" d="M135.05,161.33c-.79.54-2.43.75-2.1-.35.76.15,1.27.32,2.1.35Z"/>
  <path class="cls-7" d="M97.61,52.86c0,.38.09.88-.35,1.05-.03-.33-1.07-1.22.35-1.05Z"/>
  <path class="cls-7" d="M113,41.67c-.32.09-1,.86-1.4,0h1.4Z"/>
  <path class="cls-7" d="M99.36,62.31c-.3-.19-.39-.34-.35-.7.18.22.39.34.35.7Z"/>
  <path class="cls-7" d="M98.66,61.26c-.05-.09-.3-.18-.35-.35l.35.35Z"/>
  <path class="cls-14" d="M84.31,96.95c-.47,1.24-2.39,7.63.34,6.49.49-.21,2.67-3.18,3.16-2.64-.47,2.6.73,4.13,1.75,6.29-1.39.23-2.53-3.04-2.99-3.15-.42-.09-3.28,2.65-4.44-.09-.71-1.68-.06-3.56.65-5.12.22-.48.8-1.99,1.53-1.79Z"/>
  <path class="cls-14" d="M86.33,92.29c.15-.09-.04-.69.6-.61.89.12,1.42,1.49,2.54,1.71.98.19,1.77-.3,2.71-.31,2.17-.03-.12,1.47-1.12,1.68-2.31.48-2.25-.44-3.58-.81-1.97-.54-4.12-.12-4.56-2.96.51-.53,1.81,2.2,3.41,1.29Z"/>
  <path class="cls-14" d="M87.04,114.17c.26.17.85,1.76,1.71,1.98,1.02.26,1.42-1.38,2.54-1l1.41,2.79c-.9.16-1.12-1.07-1.92-1.06-.68,0-.97.9-1.44.99-1.34.28-2.99-2.12-3.24-3.29-.15-.72.56-.65.94-.4Z"/>
  <path class="cls-14" d="M97.61,91.35c.45.37-1.28,1.65-1.64,1.68-.4.04-2.48-.53-2.56-.64-.97-1.29,2.03-.67,2.26-.68.48-.02,1.73-.54,1.94-.37Z"/>
  <path class="cls-10" d="M52.56,129.57c.46-.47,2.23-.55,2.88-.43,3.04.58,5.62,9.47-.54,7.53-2.3-.72-4-5.43-2.35-7.11ZM57.37,135.79c.84-1.87-1.74-6.96-3.87-5.45-1.77,1.25,1.28,6.69,3.87,5.45Z"/>
  <path class="cls-2" d="M76.16,30.22c.13.19,1.5,4.05,1.49,4.27-.06,1.59-2.62,3.31-4.09,3.59-10.51,1.96-.73-12.58,2.6-7.86Z"/>
  <path class="cls-14" d="M125.95,27.67c-.29,1.55,1.57,1.64,2.63,1.74,1.96.2,4.46.25,6.09-.89,1.91-1.34,1.8-1.93.02-3.3,3.95-.12,1.98,3.89-.76,4.66-.47.13-2.75.58-3.09.58-.99.02-3.08-.52-4.2-.7-.27-.04-.53-.49-1.05-.2s-2.04,4.42-3.15,3.35c-.4-.39,1.92-3.35,2.1-4.2l1.05.35c-.2-.6.26-1.03.35-1.4Z"/>
  <path class="cls-4" d="M130.85,30.47c-.37,3.28-4.89,2.84-4.2-.7,1.12.18,3.21.72,4.2.7Z"/>
  <path class="cls-14" d="M125.95,33.62c-.15-.19-1.74-1.13-.52-1.05.95.76,3.02.62,3.8,1.05.7.4-.06,1.64-.83,1.4.58-1.15-1.5-1.39-2.45-1.4Z"/>
  <path class="cls-11" d="M137.85,26.27v-.7c.2.78,0,.51,0,.7Z"/>
  <path class="cls-11" d="M137.85,25.22l-.7-.7c.36.27.44.27.7.7Z"/>
  <path class="cls-8" d="M115.8,24.52c-.9.01-2.3.96-3.18-.14-.77-.96.06-2.01.03-3.01,1.23.38,2.75,1.9,3.15,3.15Z"/>
  <path class="cls-14" d="M109.5,25.57c-.65-.46-.97-2.05.17-2.13,1.63-.12,3.73,3.03,5.77,3.19-.01.74-1.36.29-1.73.15-.46-.18-1.48-.88-1.94-1.2-.9-.63-1.73-2.56-1.92,0-.12,0-.27-.03-.35,0Z"/>
  <path class="cls-15" d="M126.19,138.63c3.35-.97,2.41,8.74-.61,5.03-.92-1.13-.77-4.64.61-5.03Z"/>
  <path class="cls-3" d="M113.71,60.21c1.55-4.34,1.69-9.14-1.22-12.95l-3.68-2.79c6.59-.29,9.38,3.79,9.47,9.97.03,2.25-1.66,6.6-4.58,5.77Z"/>
  <path class="cls-1" d="M111.84,59.03s.28-1.23.81-.57c.37.47-.91,2.24-1.42,2.6-.82.57-3.31,1.23-4.35,1.27-6.66.23-9.44-10.82-3.85-14.36.27,1.51-.86,2.89-.88,4.37s.59,4.42,1.4,5.6c2,2.9,5.54,2.89,8.29,1.09Z"/>
  <path class="cls-3" d="M105.56,47.66c2.08-.57,2.93,2.24,1.15,3.97-3.2,3.12-4.01-3.18-1.15-3.97Z"/>
  <path class="cls-15" d="M96.21,77c-3.23,4.06-4.12,9.59-9.92,10.9-4.18.94-8.74-2.18-8.95-6.57-.16-3.29,2.83-8.46,5.97-9.71.52-.21,3.33-1.21,3.12-.04-.34,1.85-4.06,4.76-3.15,7.52,1.23-1.33,1.63-3.14,2.82-4.62.71-.88,3.09-2.84,4.15-2.91,1.98-.13,1.59,4.08,4.15,4.99.53.19,1,.05,1.47.09.16.02.32.18.35.35Z"/>
  <path class="cls-14" d="M84.66,69.31c.76.75-1.6.86-1.94,1.03-.55.26-1.04.57-1.53.92-1.04.76-3.16,4.11-4.06,2.24-.32-.67.57-3.79,1.08-4.16.32-.24,2.7-1.1,3.12-1.1.28,0,3.2.95,3.32,1.08Z"/>
  <path class="cls-3" d="M96.91,72.81c-.87,3.57-3.56,3.44-3.84-.35l3.84.35Z"/>
  <path class="cls-3" d="M76.26,70.71c.35,2.3-2.1,4.67-3.08,1.84-.56-1.63,1.8-1.87,3.08-1.84Z"/>
  <path class="cls-1" d="M95.86,76.65c1.46-1.12,2.23-4.18,4.2-3.85-1.11,1.34-2.16,2.74-3.26,4.09-.13.16-.55.06-.59.1-.03-.17-.19-.33-.35-.35Z"/>
  <path class="cls-1" d="M68.57,52.86c.1,3.4.34,8.64,5.35,7.63.33-.07,1.98-1.28,1.64-.11-.23.79-2.09,2.24-2.91,2.2-.44-.02-3.83-1.09-4.22-1.36-1.47-1.01-3.03-5.04-3.01-6.78.02-2.19,3.05-10.05,5.86-7.43.92.86-.64,1.81-1.26,2.59-.33.41-.35,1.13-.4,1.17-.11.08-.92-.15-1.25.33-.39.56.19,1.26.2,1.77Z"/>
  <path class="cls-3" d="M72.29,49.4c2.07-.7,3.23,2.97,1.88,3.63-2.65,1.3-3.11-3.22-1.88-3.63Z"/>
  <path class="cls-3" d="M69.62,50.76c1.48.95.66,2.45-1.05,2.1-.02-.51-.59-1.2-.2-1.77.33-.48,1.15-.25,1.25-.33Z"/>
  <path class="cls-15" d="M139.82,158.41c-3.93,4.13-13.33.47-11.97-6.55.44-2.25,1.38-1.62,2.44-2.81s.91-2.9,3.17-3.14c3.84-.41,3.46,3.45,4.37,4.08.58.39,1.88-.78,2.97.86,1.57,2.37.9,5.59-.98,7.56Z"/>
  <path class="cls-8" d="M163.04,128.43l-1.75.36c.21,1.11.97,1.91.7,3.15-4.41.52-7.42-1.91-7-6.47.05-.53.22-1.52.53-1.91.72-.92,1.14.32,1.79.64,1.98.99,5.25,1.79,5.72,4.24Z"/>
  <path class="cls-15" d="M140.4,143.73c-1.26-1.56-.06-6.16,2.44-5.43,3.2.93.43,8.99-2.44,5.43Z"/>
  <path class="cls-15" d="M133.2,135.13c3.03-.83,3.58,6.61.27,6.63-2.79.02-2.96-5.9-.27-6.63Z"/>
  <path class="cls-15" d="M57.37,135.79c-2.59,1.24-5.64-4.2-3.87-5.45,2.14-1.51,4.71,3.58,3.87,5.45Z"/>
</svg>