<?xml version="1.0" encoding="UTF-8"?>
<svg id="Layer_1" data-name="Layer 1" xmlns="http://www.w3.org/2000/svg" viewBox="0 0 165.07 137.88">
  <defs>
    <style>
      .cls-1 {
        fill: #ebb6c1;
      }

      .cls-2 {
        fill: #eceaea;
      }

      .cls-3 {
        fill: #e5c0ca;
      }

      .cls-4 {
        fill: #f0bdcf;
      }

      .cls-5 {
        fill: #e8b4c0;
      }

      .cls-6 {
        fill: #e8b5c1;
      }

      .cls-7 {
        fill: #d7a5b1;
      }

      .cls-8 {
        fill: #f2cdd9;
      }

      .cls-9 {
        fill: #9e79a9;
      }

      .cls-10 {
        fill: #d9d5d4;
      }

      .cls-11 {
        fill: #261e20;
      }

      .cls-12 {
        fill: #3d292c;
      }

      .cls-13 {
        fill: #f5ead5;
      }

      .cls-14 {
        fill: #3e292d;
      }

      .cls-15 {
        fill: #d28495;
      }

      .cls-16 {
        fill: #4f3c51;
      }

      .cls-17 {
        fill: #f1ccd9;
      }
    </style>
  </defs>
  <path d="M115.53,134.01c.27-.21,3.6-2.38,3.82-2.43,1.87-.44,4.46.47,6.08.38,2.43-.13,3.28-2.46,8.17-1.61,4.22.74,1.69,3.12-.6,4.64-2.68,1.78-4.07.57-6.45,1.18-.93.24-2.22,1.34-3.64,1.57-3.02.48-6.31-.23-8.41-2.52.43-.24.76-1,1.03-1.21M134.09,131.23c-1.42-.21-3.66,0-5.21,0-.13,0-1.94.97-2.26,1.22-.13.27,2.06.33,1.68,1.65-.13.45-1.26,1.17.22,1.3,2.43.22,4.94-1.94,6.43-3.65.04-.1-.77-.51-.87-.52M127.33,133.66c-3.38-1.07-5.13-2.06-8.57-.42-.43.21-3.36,1.98-2.89,2.49,4.11,1.82,8.6,1.9,11.45-2.07"/>
  <path d="M148.52,113.12c.27,2.32-3.39,4.18-5.38,4.45-1.85.24-3.33-.38-4.82-.33-.88.03-1.62.57-2.47.68-1.71.22-3.66,0-4.99-1.2-3.32-2.99,3.2-2.86,4.08-3.35.08-.05.56-1.03,1.13-1.47,3.99-3.07,8.47-.12,12.44,1.23M141.61,116.56c2.45,0,4.47-.75,5.9-2.77-2.43-.59-3.72-1.79-6.25-2.08-.08,0-.29-.35-.81-.34-.52.02-1.97.45-2.5.67-5.01,2.1.57,4.52,3.66,4.52M137.1,116.21c-2.32-1.63-2.97-2.35-5.9-1.04-.19,2.27,6.57,2.01,5.9,1.04"/>
  <path d="M5.48,109.36c1.77-.24,5.37.61,6.17,2.34.62,1.34-.95,1.62-1.55,2.27-.41.44-.38,1.13-.91,1.52-2.21,1.59-9.88-.62-9.13-3.55.23-.91,4.39-2.44,5.43-2.58M10.76,112.74c-1.9-4.27-6.89-1.92-10.06-.68.89,1.44,3.02,2.99,4.72,3.1.47.03,2.65-.31,2.92-.5.35-.25.67-2.11,2.41-1.92"/>
  <path d="M140.24,104.09c.14-.16,3.65-1.26,4.05-1.32,1.46-.23,7.4.47,7.4,2.17-.01,2.65-10.3,4.93-11.4.27-.07-.29-.18-.96-.05-1.12M150.98,104.77c-1.87.06-3.09-1.44-5.02-1.4-1.49.03-3.63,1.03-5.05,1.57,1.65,2.12,4.14,2.22,6.6,1.75l3.46-1.91Z"/>
  <path d="M127.38,109.97v-.35c.25-.15,1.71-1.45,1.39-1.73-1.28.36-1.72-.78-2.52-1.13-2.13-.93-6.28.15-7.55,2.17-.26.42-.48.42,0,1.04-2.69-1.82,3.36-4.54,5.38-4.54,1.39,0,4.93,1.27,5.58,2.45.34.62-1.41,2.67-2.28,2.09"/>
  <path d="M158.83,110.96c-1.7-2.71,5.6-4.12,6.19-2.18.69,2.23-5.41,3.43-6.19,2.18M164.33,108.93c-.89-.43-4.78-.08-4.51,1.21.28,1.31,4.22.08,4.51-1.21"/>
  <path d="M127.38,109.62v.35c-2.02,2.29-5.15,1.56-7.64.35l-.69-.35c-.09-.05-.27.05-.35,0-.48-.62-.26-.62,0-1.04,2.92,1.61,5.55,2.58,8.68.69"/>
  <path class="cls-7" d="M119.74,110.31c-.25-.12-.41-.18-.69-.35l.69.35Z"/>
  <path class="cls-6" d="M104.47,112.05c2.12-.38,6.81,4.95,2.43,5.89.13-1.34-.57-2.48-1.73-3.12.16,1.14,1.3,2.17.38,3.33-.49.62-3.34.65-3.5.48-.21-.22.26-3.75-1.74-3.11.66.98.81,1.94.7,3.12-3.7.15-6.43-1.53-5.21-5.55,2.43,1.29,4.83.62,7.29-.17.51-.17,1.07-.81,1.39-.87"/>
  <path class="cls-7" d="M105.86,108.58c-.2.29-.88,1.42-1.04,1.73l-.35.35c-.11.31.08.99,0,1.39-.32.06-.87.7-1.39.87-2.46.8-4.86,1.46-7.29.17-.18-.09-.64-.8-1.04-1.04.21-.55.39-1.01.93-1.32,1.01-.57,5.04-.78,6.71-1.27,1.26-.37,2.19-1.72,3.46-.88"/>
  <path class="cls-6" d="M104.47,110.66l.35-.35c-.07.14-.31.25-.35.35"/>
  <path class="cls-8" d="M127.33,133.66c-2.85,3.97-7.35,3.9-11.45,2.07-.48-.51,2.46-2.28,2.89-2.49,3.44-1.65,5.19-.66,8.57.42"/>
  <path class="cls-8" d="M134.09,131.23c.09.01.91.42.87.52-1.49,1.71-4,3.87-6.43,3.65-1.48-.13-.34-.86-.22-1.3.38-1.32-1.81-1.38-1.68-1.65.32-.25,2.13-1.22,2.25-1.22,1.55,0,3.79-.21,5.21,0"/>
  <path class="cls-8" d="M141.26,111.7c2.52.29,3.81,1.49,6.25,2.09-1.43,2.02-3.45,2.77-5.9,2.77-.16-1.86-2.11-3-.35-4.85"/>
  <path class="cls-4" d="M141.26,111.7c-1.76,1.86.19,2.99.35,4.85-3.08,0-8.67-2.42-3.66-4.52.53-.22,1.98-.65,2.5-.67.51-.02.73.33.81.34"/>
  <path class="cls-8" d="M137.1,116.21c.67.96-6.09,1.23-5.9-1.04,2.93-1.31,3.58-.59,5.9,1.04"/>
  <path class="cls-8" d="M10.76,112.74c-1.74-.2-2.07,1.67-2.41,1.92-.28.2-2.46.54-2.92.5-1.7-.12-3.84-1.66-4.72-3.1,3.18-1.24,8.16-3.58,10.06.68"/>
  <path d="M53.35,120.01c.17.12.27.57.49.71.58.38,4.16,2.06,2.89,3.02-2.78,2.09-9.37,2.38-12.56,1.11-1.18-.47-1.82-.73-1.12-2.02,1.66-3.1,7.35-4.77,10.31-2.82M52.7,120.68c-1.4-1.56-8.42.32-8.95,3.02,4.22,1.33,7.69,1.32,11.8-.35.71-.95-2.57-1.68-2.7-1.83-.15-.16,0-.69-.14-.85"/>
  <path d="M43.05,129.95s-.09-.51.07-.61c3.72-2.24,7.99-2.82,11.2.62,1.31,1.4-.22,1.01-.77,1.46-.61.51.27,1.37-1.58,2.06-2.7,1.01-9.01,1-9.88-2.4-.46-1.82.52-.85.95-1.13-1.66,1.3,2.77,2.92,3.82,3.12.24.05.43.39,1.18.37.63-.02,3.91-.79,4-1.26.06-.32-.46-1.03-.32-1.19.14-.15,2.05,0,2.08-.69-3.11-1.39-3.82-2.06-7.28-1.39-.84.16-2.82.53-3.47,1.04"/>
  <path d="M19.84,126.52c.11-.2,3.58-1.86,4.1-1.97,2.86-.59,5.51.27,7.78,1.97,2.23,1.68-3.12,3.28-4.47,3.42-.84.09-2.31.11-3.13.01-1.2-.15-5.07-2.09-4.29-3.43M31.25,127.52c-2.96-2.97-6.94-2.46-10.41-.68-.81,1.07,3.96,2.42,4.7,2.43,2.01.05,3.9-1.09,5.71-1.75"/>
  <path d="M42.25,114.58c-3.02.63-7.31,1.7-9.7-.83-2.36-2.51.02-2.35.62-3.06.19-.23-.16-.64.51-1.04,3.32-2,8.74.95,8.57,4.93M41.24,113.92c-.23-1.65-1.73-3.4-3.38-3.73-.5-.1-3.09-.18-3.21-.07-.29.3.51,2.31-2.09,1.72,1.58,3.82,5.51,2.55,8.67,2.08"/>
  <path class="cls-8" d="M52.7,120.68c.14.16,0,.69.14.85.13.15,3.41.88,2.7,1.83-4.1,1.67-7.58,1.68-11.8.35.53-2.7,7.55-4.58,8.95-3.02"/>
  <path class="cls-4" d="M46.52,128.91c3.46-.67,4.17,0,7.29,1.39-.04.7-1.95.53-2.08.69-.14.16.38.87.32,1.19-.09.47-3.36,1.25-4,1.26-.74.02-.93-.32-1.18-.37l1.73-.52c-2.19-.81-.39-2.53-2.08-3.64"/>
  <path class="cls-8" d="M46.52,128.91c1.69,1.11-.11,2.83,2.08,3.64l-1.73.52c-1.05-.2-5.48-1.82-3.82-3.12.65-.51,2.64-.88,3.47-1.04"/>
  <path class="cls-8" d="M31.25,127.52c-1.81.66-3.7,1.8-5.71,1.75-.74-.02-5.51-1.36-4.7-2.43,3.47-1.77,7.45-2.28,10.41.68"/>
  <path class="cls-8" d="M41.24,113.92c-3.16.47-7.1,1.74-8.67-2.08,2.61.59,1.81-1.42,2.09-1.72.11-.12,2.71-.04,3.21.07,1.64.33,3.15,2.08,3.38,3.73"/>
  <path class="cls-8" d="M150.98,104.77l-3.46,1.91c-2.46.47-4.95.37-6.6-1.75,1.41-.54,3.55-1.54,5.05-1.57,1.92-.04,3.14,1.47,5.02,1.4"/>
  <path class="cls-8" d="M118.7,108.93c1.27-2.02,5.42-3.1,7.55-2.17.79.35,1.24,1.49,2.52,1.13.32.28-1.14,1.58-1.39,1.73-3.12,1.88-5.76.92-8.68-.69"/>
  <path class="cls-4" d="M164.33,108.93c-.29,1.29-4.23,2.52-4.51,1.21-.27-1.28,3.62-1.63,4.51-1.21"/>
  <g>
    <path class="cls-5" d="M87.54,105.38c-2.92.21-5.84.18-8.75-.08-.78-.07-1.53.74-1.5,1.5.04.87.66,1.42,1.5,1.5,2.91.26,5.84.29,8.75.08.78-.06,1.54-.65,1.5-1.5-.03-.76-.66-1.56-1.5-1.5h0Z"/>
    <path class="cls-13" d="M76.9,104.55c1.91,1.18,4.22.91,6.36.91,2.36,0,4.42.04,6.61-.95,1.97-.89,2.44-3.75,1.44-5.47-1.19-2.03-3.5-2.33-5.47-1.44.82-.37-.67-.13-.91-.13-.56,0-1.11,0-1.67,0s-1.11,0-1.67,0h-.67c-.89-.06-.89,0,0,.18-4.39-2.73-8.41,4.19-4.04,6.91h0Z"/>
    <path class="cls-11" d="M82.38,110.66c-.45-.01-1.04-.39-1.57-.37-.38.02-3.46,1.98-3.56,2.17-.22.4.02,1.2-.15,1.75-1.02,3.19-6.73,4.89-9.83,4.78-7.64-.28-10.73-4.87-2.94-8.86-3.07-1.8-4.39-5.37-4.77-8.78-.09-.75.33-1.42.22-1.9-.12-.52-1.13-1.02-1.28-1.88-.25-1.39.8-2.81.92-3.81.07-.6-.29-1.17-.21-1.9.11-1.03,1.75-4.92,1.49-5.49-.68-1.54-3.08-1.84-4.41-2.52-2.15-1.1-4.54-2.31-6.4-3.84-.39-.32-.56-1.16-1.17-1.44-1.66-.76-4.42.61-6.08-.86-1.43-1.27-.49-2.72-.91-3.94-.24-.7-1.85-.83-1.71-3.18.13-2.15,1.91-2,2.11-2.26.07-.09-.43-1.49-.35-2.22.34-2.9,3.81-2.12,5.55-.9-.12-1.98.4-3.2,2.6-2.77,1.85.36,2.42,3.95,4.69,3.29-2.31-2.54-3.64-4.67-4.49-8-.11-.42.07-1.45-.02-1.54-.15-.16-2.61.19-3.26-.04s-.47-1.18-.91-1.52c-.4-.3-2.8-.72-3.71-1.15-12.84-6.05-12.96-27.36-7.91-38.55.39-.87,1.75-2.33,1.82-3,.12-1.11-1.25-2.52-.38-4.56.39-.92,2.35-.97,2.51-1.16s-.02-1.55.11-2.15c.67-2.98,4.54-1.02,4.78-1.28.06-.06-.1-1.06.31-1.59,1.28-1.65,5.57,1.36,6.79,2.3,3.75,2.85,7.27,7.85,9.5,12,1.01,1.89,2.92,7.68,4.55,8.28.54.2,1.24.08,1.74.34.54.28.86,1.49,1.21,1.52s5.26-2.53,6.42-2.91c.77-.25,1.64.03,2.27-.51.33-.43-1.74-3.99.26-4.95.4-.19,1.25-.21,1.29-.26.12-.12-.42-1.87-.34-2.56.72-6.52,11.23-8.65,15.44-4.37.96.98,1.78,2.67,1.24,4.01-1.02,2.52-2.05-.52-4.56.31-1.6.53-1.68,3.69-1.02,4.36.55.55,1.16-1.46,1.74-1.9,2.93-2.19,2.38,3.41,4.06,4.68,1.08.81,3.28.99,4.6,1.55.92.39,5.38,2.99,5.7,2.92.49-.12.7-1.28,1.24-1.54.71-.34,1.68.08,2.27-.51.46-.45,1.23-2.35,1.76-3.1C115.58,12.59,128.41.57,139.12.01c4.56-.24,2.78,2.58,3.31,3.14.59.62,8-1.84,4.86,5.2,1.13-.11,2.94,1.18,3.13,2.27.38,2.23-1.7,2.43-1.76,2.81-.15.97,1.09,3.18,1.32,4.2,2.65,12,.9,25.4-8.58,33.9-1.91,1.71-5.89,4.55-8.33,5.2-.76.2-3.88.38-4.11.58-.42.36.2,1.53-2.05,1.94-2.28.41-4.34-.27-6.34-1.3l-.7,2.77c2.36-.69,2.19,1.52,2.43,1.74.41.37,2.52-1.72,4.77-.78,1.86.78.8,2.7,1.18,3.16.12.14,1.64.31,2.05.98,1.08,1.79-.5,2.67-.61,3.79-.07.67.4,1.46.25,2.37-.48,2.84-5.36,2.47-6.51,3.4-.18.14-.99,1.92-1.48,2.51-.78.93-2.19,2.37-3.11,3.13-1.77,1.46-7.21,3.99-8.01,5.18-.88,1.31.94,3.23,1.05,4.93.1,1.6-.42,2.34.02,4.28v1.04c0,.45.04.94,0,1.39s.09,1.04,0,1.39c-.12.43-.45.86-.69,2.08-.08.4-.28.73-.35,1.04-.34,1.49-.07,2.06-.91,3.78-.62,1.28-3.28,3.86-3.25,4.73.01.44,4.37,4.37,3.12,6.41-.22.05-3.55,2.22-3.82,2.43-3.01.34-6.94.93-9.74-.5-3.44-1.75-1.28-3.66-2.24-5.39-.28-.51-1.84-.98-2.42-1.39-1.64-1.15-.66-1.53-3.3-1.73-.57-.04-1.16.02-1.74,0-1.38-.04-2.78.03-4.16,0ZM120.56,21.18l.69,2.77c2.35-4.46,5.38-7.96,9.75-10.55.55-.33,4.07-2.28,4.31-2.28h5.73c.27,1.22-1.65.5-2.08,1.21,10.41,11.27,5.77,32.38-8.84,37.64-3.09,1.11-5.65,1.02-8.86,1.38l1.39-2.77c-1.58-.72-2.9,0-4.51,0-.69.66,1.93,2.65,2.14,3.25.48,1.38-.34,3.34.73,4.63.67.8,5.93,1.71,6.15,1.48.9-.92-1.45-1.91-1.38-2.77,6.76,2.53,14.49-4.23,18.19-9.4,5.65-7.87,6.98-20.06,3.93-29.18-.25-.74-2.3-4.48-1.99-4.77,5.19.38,2.11-2.95-1.04-2.78-.28-1.05,2.27-3.21,1.06-4-.48-.31-2.59-.23-3.24-.09-1.03.23-1.32,1.27-2.33,1.31.62-4.14,1.79-5.22-3.27-4.13-8.65,1.88-14.58,7.16-20.34,13.15-.07.07-.61.07-.86.34-3.16,3.38-7.19,7.82-7.81,12.49-1.67.2-.79-2.49-1.04-2.77-2.27.59-1.61,2.16-1.04,3.81-.66-.57-1.32-.96-2.08-1.39-.11-.11-.21-.26-.35-.35-.25-.16-.57-.26-.69-.35-.2-.15-.32-.51-.78-.76-.64-.35-2.64-1.58-3.03-.63,1.17-.08,1.14,1.11,1.39,1.39.15.17,1.41.08,1.04,1.39-.2.15-.3.42-.69.35l-.35-.69c-.03-.29.07-.94,0-1.04s-1.9-1.29-2.08-1.39c-.04-.53.22-1.17-.34-1.04l-.35.69c-.17-.06-.48.04-.69,0,.12-.22.21-.48.35-.69.02-.03.42-.01.35-.34-2.79-.68-4.92-1.38-5.92-4.32-.33-.97-.09-3.04-1.34-2.26-.27.17-.44,2.86-.72,3.45-3.53-.4-4.36-7.09-.79-7.9,1.39-.32,2.2.19,3.4.28.54.04.61.07.48-.48-1.68-7.61-18.14-3.7-13.5,4.83.46.84,4.4,3.43,3.82,3.96-.75.7-4.62-3.13-6.06-2.77-.86.22-.03,1.81.21,2.2.72,1.16,1.68,1.47,2.63,2.2.29.22.64,0,.44.79-2.47-1.06-4.45-.73-6.94,0l1.73,1.04c-3.02.08-6.54,1.19-5.9,4.86-.12-.08-.5,0-.7-.16-.93-.79.07-2.65.18-3.65-1.99.52-9.76,7.63-9.51,9.13.08.49,1.19,1.39,1.8,1.23.39-.1,1.4-1.34,2.09-1.76,4.62-2.87,9.81-.2,11.32,4.77,1.39,4.58.93,7.87-2.65,11.18l-9.48.07c-.13-.1-.29-.32-.35-.35l2.77-.7c.14-.19-1.9-3.11-2.06-4-.56-3.11.7-5.74,2.74-7.97l3.48-1.89c-6.49-1.14-9.34,5.33-8.99,10.88.07,1.13.64,1.36.31,2.64-1.61-.87-1.97-2.25-2.1-3.98-.05-.75.3-2.3.18-2.63-.04-.1-1.14-1.63-1.2-1.71-.05-.06-.93.72-.95.78-.19.54.24,1.07.11,1.66-.17.83-.54,2.65-.86,3.31-.44.93-1.59,1.22-1.77,1.7-.09.25,1.02.35,1.03.69,0,.2-2.88,1.65-3.11,2.43l1.38.17c-.11,1.01-1.14,1.51-1.47,2.52-.3.93-.34,1.71-.26,2.68l1.04-.35c-.38,3.15.19,4.18,2.08,6.42,4.54,5.41,10.48,7.71,16.67,10.57-.07,0-.49.46-1.46.28-2.34-.44-5.37-3.01-7.55-1.14-2.43,2.08,1.92,2.42,2.07,2.59.46.56-1,1.63-1.33,2.3-1.84,3.83,1.05,2.04,1.67,2.55.84.69-.66.64-.69.69-5.16.4-1.43-3.3-1.77-4.62-.19-.72-1.92-.99-1.7-2.32.18-.08.45-1.21.68-1.48.48-.57,1.55-.68,1.4-1.64-5.53-2.99-2.51.4-2.78.69-.08.09-.79-.08-1.04,0-.69-.76-.07-2.53-.4-3.07-.22-.36-5.15-2.17-5.84-2.13-1.51-2.98-4.22-5.34-3.82,0-1.52.4-5.49-3.2-5.55.21-.03,1.93,2.14,1.45,2.42,2.92h-3.82c-.17,1.41-.07,1.54.7,2.43,1.2,1.39,2.45.56,2.43,1.73-1.03.61-2.11,1.89-1.05,2.96s6.31.19,6.6.51c.1.11-.16.91.07,1.31,1.05,1.81,7.55,3.84,9.42,4.98.73.44,1.67,1.84,2.14,2.03.71.29,1.06-2.85,1.9-3.12,0,.04.32.23.29.75-.14,1.9-1.51,4.09-.63,6.18l1.38-1.04c.1,1.4-.15,2.93.03,4.3.06.47,1.21,3.87,1.36,4.02,1,.99.25-2.03,1.38-1.39,0,.65.07,1.32.33,1.93s1.11,2.48,1.41,2.93c-1.19.1-1.13-1.44-1.46-1.66-.27-.18-.9-.04-1.29-.26-2.36-1.37-1.97-4.59-2.88-6.51-.25-.53-.88-.54-1.08-1.01-.48-1.14.28-2.77-.92-3.39.23,1.23-.5,2.23-.67,3.32-.15,1,.13,2.13-.04,3.08-.2,1.1-1.66,2.29-1.03,4l1.73-.35c-1,4.42-.68,7.77,2.78,10.93.65.59,2.52,1.49,2.78,2.08.28.64-.28.44-.51.52-1.3.42-4.48,1.28-5.04,2.6-.59,1.42,2.29-1.01,2.77-.52.74.75-1.14,1.37-1.33,1.97-.59,1.88.94,1.92,2.37,2.19-.3-1.26.73-3.04,1.92-3.46,1.45-.52-.97,2.76-.85,3.26.45,1.83,8.49-1.05,9.2-2.9s-1.71-.95-1.24-1.92c.6-.83,3.1-1.34,3.47-2.09s-2.41-.77-2.43-1.9c1.96.05,3.79.83,5.73,1.03,2.57.27,5.82-.11,8.24.08,1.02.08,4.01,2.05,5.11,2.7.4.24.86.95,1.04,1.04-1.22,4.02,1.51,5.7,5.21,5.55.12-1.18-.04-2.14-.7-3.12,1.99-.63,1.53,2.89,1.74,3.12.16.16,3.01.13,3.5-.48.93-1.16-.22-2.19-.38-3.33,1.17.64,1.86,1.78,1.73,3.12,4.38-.94-.31-6.28-2.43-5.89.08-.39-.11-1.08,0-1.39.03-.1.28-.21.35-.35.16-.31.84-1.44,1.04-1.73.91-1.33,2.05-2.08,2.84-3.92,1.04-2.39.84-3.99,1.33-6.24.06-.29.88-.28.96-1.17.19-2.04-1.28-4.53-2.35-6.18,1.26-.85.96,1.01,2.08.87.27-.31-1.03-4.32-1.49-4.75-.24-.23-1.17-.19-1.29-.62-.21-.77,1.32-1.24,1.73-1.56,1.06-.24,2.25-.72,2.78-1.73.09-.04.25.04.35,0,.81-.34.74-.95.69-1.73,3.94-.4,5.15-1.59,7.63-4.69.46-.57,1.34-2.45,1.46-2.53.15-.1,2.69-.53,3.5-.84s3.6-1.51,2.89-2.69c.01-.69-3.56-.52-2.63-1.38.19-.18,3.75-.43,3.11-2.57-.29-.97-2.99-.39-3.8-.21.13-1.09,2.99-2.87,1.41-4.01s-4.18,3-5.92,1.59c-.02-.22-.01-.47,0-.69.02-.38.59-1.11.35-1.73-2-.22-2.25.81-3.12,2.08-1.84,2.68-6.39,3.37-7.21,4.59-.38.56-.63,3.44-2.16,2.52.52-.76,1.1-1.63,1.04-2.6-1.91-.31-3.16.99-4.16,2.43-.1-.02-.23.02-.35,0-.34-1.86,1.79-3.39,3.38-3.73.83-.18,1.68.02,2.54-.24.26-.08,4.66-2.25,4.86-2.42.45-.38,2.19-3.45,2.25-3.97.1-.91-.96-1.55-.88-2.46.65-.22.88.59,1.26.65,1.11.19.9-2.17.75-2.84-.27-1.18-2.56-2.65-.27-2.84-.63-1.18-1.65-1.26-2.26-2.6-.92-2.04-1.28-6.31-2.16-8.94-.72-2.15-1.61-4.28-2.87-6.14,1.1-.53,1.68,1.5,2.25,1.94,1.45,1.12,4.94-3.42,4-5.23-3.72,1.61-.62-.58.15-1.76,1.78-2.69,2.59-5.77,2.28-9ZM58.78,17.71c-2.44-4.7-6.33-12.36-11.56-14.63-4.81-2.09-1.88,2.11-2.32,2.49-.53.45-2.16-1.33-2.81-1.51-4.03-1.13-1.65,2.36-1.7,4.63-1.12-.36-1.81-.98-3.12-.69-.36,1.16.43,3.01.29,3.92-.1.63-1.07,1.64-1.39,2.43-4.63,11.38-5.89,29.11,5.51,36.94,1.14.78,3.76,2.21,5.1,2.05.78-.1,1.12-1.03,1.94-.94l-.69,2.42c3.36.56,1.45-2.25,2.25-3.82.34-.67,1.52-.65,1.94-1.18s.25-1.64,1.01-2.11l-3.12-.52.34,2.08c-14.9-2.31-15.92-21.03-11.12-32.44.84-1.99,2.7-3.86,2.81-6.04,5.41-.4,8.43,6.05,9.88,10.39.34,1.01.08,3.7,1.56,3.82-.27,2.57.58,3.65.97,5.8.1.57-.33,1.19-.22,1.92.11.68,2.01,3.72,2.55,3.72,1.38-1.64,2.41-3.58,3.81-5.2.82-.94,5.3-4.67,5.38-5.03s-.39-.86-.52-.85c-.29,0-.56,1.65-1.21,1.03-.22-.21,0-1.6-.87-1.38-1.14.54.2,2.73-1.22,2.42.37-3.06-1.15-6.1-2.48-8.8-.25-.52-.94-.81-.99-.91ZM50.8,22.57c-.71-2.69-1.37-4.9-3.04-7.19-2.2-3-3.62-4.12-5.92-.55-5.54,8.59-6.02,25.83,3.76,31.67.12.07.22.28.35.35.94.51,1.85.96,2.95,1.04-.46-2.63,2.28-2.07,4.16-1.72.59.11.99.67,1.06.67.67,0,.55-2.24.52-2.77-1.43.2-2.76-.39-4.17-.35-1.31-1.12.1-3.29,0-3.44-.13-.17-1.68-.85-2.23-1.78-1.83-3.1,1.04-3.37,1.12-3.96.04-.26-.63-1.25-.6-2.06.13-3.49,3.71-1.88,4.14-2.29-.52-2.32-1.15-4.63-1.73-6.93-.03-.11.03-.24,0-.35-.05-.16-.2-.28-.35-.35ZM122.99,23.96c-1.12,2.05-2.09,4.15-3.12,6.24.41.33,3.6-2.01,5.02-.33,1.49,1.76-.53,3.29-.51,4.34.02.66.8.91.97,1.45.84,2.68-2.95,4.34-2.98,5.12,0,.16.83,1.15.91,1.83.23,2.07-4.32,2.84-5.85,2.51-.62,4.34,3,1.16,5.54,2.62,1.12.65.56,2.07.71,2.24.34.36,2.85-.23,3.47-.35,13.87-2.55,19.72-20.09,13.84-32.04-.77-1.57-2.81-4.53-4.66-4.72-1.67-.17-6.57,3.02-7.96,4.17-2.66,2.2-3.78,3.98-5.39,6.93ZM123.19,33.54c3.08-4.63-3.12-2.65-3.56-1.5-.53,1.39-.87,3.59-1.51,5.1,5.42-.21.78,1.41.16,2.77-.21.47.72,1.12.51,1.86-.19.65-3.1,1.27-1.72,2.14,1.28.82,6.22-.2,4.55-2.39-.29-.38-1.61-.28-1.41-1.09.1-.4,4.97-2.6,3.82-4.69-4.69.12-1.83-.72-.84-2.21ZM54.96,37.83c-.94-1.5-1.89-5.31-3.48-6.06-3.67-1.73.65,3.84.71,4.15.25,1.42-2.76-.45-3.11.73-.39,1.3,1.89,3.14,3.1,3.27.57.59-1.61,1.14-1.39,2.24.15.74,3.3.71,3.83.37,1.19-.76-.88-1.27-1-1.77-.09-.42.48-2.07-.06-2.92h1.39ZM57.1,40.19c.76,1.26,2.54.21,2.23-1.33-.06-.31-.88-1.72-1.07-1.73-.55.42-1.46,2.57-1.16,3.05ZM67.98,37.95c-2.31,0-2.77,5.87.36,4.06,1.83-1.05,1.49-4.06-.36-4.06ZM65.72,44.42c-.19-.15-.26-.81-.84-.69-1.97.93.09,5.26,1.43,5.81.99.41,4.23.64,5.22.32.73-.24,2.8-4.05,2.17-5.1-.31-.12-.64.35-.69.35-.44-.02-.98-.67-1.75-.19-.68.43.03,1.03.01,1.23-.05.62-1.23,1.41-1.9,1.42-1.44.01-2.21-1.27-2.61-1.42.13-1.08-.41-1.21-1.04-1.73Z"/>
    <path class="cls-7" d="M111.88,96.44v-1.04c.05.23.69.52,0,1.04Z"/>
    <path class="cls-1" d="M75.09,25.34l-1.73-1.04c2.49-.74,4.46-1.06,6.94,0,.2-.8-.15-.57-.44-.79-.95-.74-1.91-1.04-2.63-2.2-.24-.39-1.07-1.98-.21-2.2,1.44-.36,5.31,3.47,6.06,2.77.57-.54-3.36-3.12-3.82-3.96-4.63-8.53,11.83-12.45,13.5-4.83.12.55.05.52-.48.48-1.2-.09-2.01-.59-3.4-.28-3.56.81-2.74,7.5.79,7.9.28-.59.45-3.28.72-3.45,1.26-.78,1.01,1.29,1.34,2.26,1.01,2.94,3.13,3.63,5.92,4.32.08.33-.33.32-.35.34-3.3-1.61-9.99,1.2-6.26,5.04,1.59,1.64,3.96,1.72,6.1,1.57.64-.05,1.3.09,1.54-.71.6-.04.85-.13,1.39-.35.25-.1.58.12.69-.35.04-.16-.03-.35,0-.52l-.34-.18c.01-.11,0-.23,0-.35h.35c.39.07.49-.19.69-.35.4-.3.99-1.01,1.39-1.39.13.09.44.18.69.35.11.12.21.27.35.35.75.43,1.41.82,2.08,1.39-.57-1.65-1.22-3.23,1.04-3.81.25.29-.63,2.97,1.04,2.77.62-4.67,4.66-9.11,7.81-12.49.25-.27.8-.27.86-.34,2.45,1.44,3.54,3.02,3.82,5.9.31,3.22-.5,6.3-2.28,9-.78,1.17-3.88,3.36-.15,1.76.94,1.81-2.56,6.35-4,5.23-.57-.44-1.15-2.46-2.25-1.94,1.27,1.86,2.15,4,2.87,6.14.88,2.63,1.24,6.89,2.16,8.94.61,1.34,1.62,1.42,2.26,2.6-2.29.19,0,1.66.27,2.84.15.66.36,3.03-.75,2.84-.38-.07-.61-.87-1.26-.65-.08.91.98,1.56.88,2.46-.06.53-1.8,3.59-2.25,3.97-.21.18-4.6,2.34-4.86,2.42-.86.26-1.71.06-2.54.24-1.59.34-3.72,1.88-3.38,3.73-.71-.09-1.82-.06-2.52.08-1.29.25-2.31,1.33-2.99,1.47-.45.09-1.02-.22-1.56-.15-1.34.17-3.7,1.67-4.04,3.1-.19.05-.48-.04-.69,0-1.04-1.42-2.77-.38-3.82-.35-2.93.09-6.47.33-9.37,0-.1-1.83-4.23-3.29-3.82-1.04-.51-.2-2.64-1.03-2.43.34-.66-.15-2.26-.25-3.12-.35-6.19-2.86-12.13-5.16-16.67-10.57-1.89-2.25-2.45-3.28-2.08-6.42l-1.04.35c-.08-.97-.04-1.75.26-2.68.33-1.01,1.35-1.51,1.47-2.52l-1.38-.17c.23-.79,3.12-2.24,3.11-2.43-.01-.34-1.13-.44-1.03-.69.18-.48,1.32-.77,1.77-1.7.32-.66.69-2.48.86-3.31.12-.59-.3-1.12-.11-1.66.02-.06.9-.84.95-.78.07.08,1.17,1.62,1.2,1.71.13.33-.23,1.88-.18,2.63.13,1.73.49,3.11,2.1,3.98-.05.19.03.47,0,.69-1.56-.27-3.1-.61-3.84,1.19-1.9,4.57,4.93,5.93,6.44,4.36,1.31-1.36.93-3.72-.52-4.85l9.48-.07c3.58-3.32,4.04-6.61,2.65-11.18-1.51-4.97-6.7-7.64-11.32-4.77-.68.42-1.7,1.66-2.09,1.76-.61.16-1.72-.74-1.8-1.23-.25-1.51,7.52-8.61,9.51-9.13-.12,1-1.12,2.85-.18,3.65.2.17.58.09.7.16.57.37,1.03.82,1.74,1.04,3.25,1.01,7.96-.48,6.79-4.54-.21-.72-1.22-1.25-1.93-1.35-.21-.03-.47,0-.69,0ZM94.88,32.63c-.59-.64-4.55,2.76-3.81,4.16.36.41,3.03-2.63,3.38-3.02.25-.28.86-.67.43-1.14ZM91.06,46.85c.11.41.29.55.35.69.04.1-.04.25,0,.35.08.18-.04.6.18,1.02.34.65,1.25,1.55,1.9,1.76,1.17.38,1.18-.01,2.24-.02,3.1,0,6.12.18,9.21.36.17,1.12-1.59.6-2.01,1.98-1.53,5.1,8.43,4.27,9.22.89.45-1.93-.53-3.71-2.58-3.81-1.22-.06-2.03,1.13-2.78,1.22-.68.08-.91-.54-1.16-.63.73-.03,1.16-.34,1.74-.69,3.12-1.88,2.11-3.59,3.3-5.89.45-.86,2.87-1.44,2.25-3.47l-2.78.35c-1.04-1.04,2.91-5.65.36-5.89-2.16,3.81-3.7,0-6.02-1.11-5.95-2.82-12.02,1.36-13.68,7.26-.7,2.49-.37,3.36.26,5.63ZM75.44,37.13c.57-1.06-1.31-3.99-2.25-3.81-1.16.22.6,1.61.81,1.95.41.65.31,1.97,1.44,1.86ZM78.96,47.58c-.72,1.15.65,2.54,1.89,2.72,2.6.38,5.76-2.26,2.33-3.03-.71-.16-3.91-.18-4.22.32ZM92.79,52.05c-.39-.46-2.04,1.64-2.46,1.88-2.74,1.54-5.15-.67-7.77-.85-3.56-.25-6.7,2.92-9.21-.68-.36,1.76.99,2.7,1.55,4.17,1.4,3.68,2.43,9.74,6.77,11.26,5.64,1.98,8.88-5.35,9.68-9.74.18-.98-.14-2.02.12-3,.24-.92,1.71-1.71,1.3-3.03ZM87.24,69.39c-2.64.88-2.91,1.2-5.67.63-2.24-.46-.72,1.08.37,1.36,1.63.42,4.78-.08,5.29-1.99Z"/>
    <path class="cls-13" d="M94.18,75.28c1.02-.28,1.15-.72,2.12-1.18,1.14-.53,2.93-1.27,2.91.48,1.57-2.02,3.7-3.94,6.41-2.59,1.02.51.63,1.72-.13,2.27-.55.39-1.94.11-1.59.83.54,1.11,3.16-.37,2.78,2.07-.16,1.04-1.51,1.51-1.91,2.29-.21.41-.11.87-.18,1.02-.6,1.25-.87,2.37-1.39,3.47-.81,1.74-.11,1.45,0,3.3.05.93.19,3.79-.04,4.46-.29.86-1.52.42-1.67.58s0,3.75-1.04,4.33c-.26.15-.86-.28-1.01-.17-.14.1-1.06,2.62-1.45,3.19-.44.65-1.66,1.03-1.72,2-.37.21-1.26,1.77-2.08.69,1.58-3.84-2.17.02-2.08,1.73-.9.56-3.18,2.52-3.12.69.78-.94,1.51-2.5,1.17-3.74-1.15-4.24-11.56-1.61-11.62,1.85,0,.55.37.76.39.85.15.74.35.4,0,1.39-1.19-.79-2.76-1.04-3.94-1.79-.67-.43-2.93-3.49-2.66-.98-1.01-.72-2.09-.54-3.12-2.08-.3-.45-1.15-2.31-1.41-2.93s-.33-1.28-.33-1.93c-1.13-.64-.38,2.37-1.38,1.39-.15-.15-1.3-3.55-1.36-4.02-.18-1.38.07-2.91-.03-4.3l-1.38,1.04c-.88-2.09.49-4.28.63-6.18.04-.52-.29-.71-.29-.75,0-.31-.06-1.3,0-1.39.03-.05,1.53,0,.69-.69-.62-.51-3.51,1.28-1.67-2.55.32-.67,1.79-1.75,1.33-2.3-.15-.17-4.5-.51-2.07-2.59,2.18-1.87,5.21.7,7.55,1.14.97.18,1.39-.29,1.46-.28.87.1,2.46.2,3.12.35,1.08.24,2.5,1.25,3.65,1.39s-.09-1.17.17-1.38c.92-.12,1.56.59,2.43.69,2.9.33,6.44.09,9.37,0l-.52,1.04c1.47-.01,2.98-.44,4.34-.7.22-.04.5.05.69,0ZM74.4,87.77c-.24-.36.18-4.02,0-4.86-2.08,1.09-1.72,5.96.54,6.25.53.07,1.14-.31,1.56-.17,1.32.46,2.38,4.12,5.53,1.37-1.45-2.58-1.46-.23-1.93-.15-1.44.23-3.05-2.87-2.93-4.19-1.28-.2-.84,1.51-1.37,1.94-.23.19-1.37-.14-1.4-.2ZM89.02,87.12c-.32.55.14,1.6,1,1.18,1.08-.53,1.16-1.91,1.03-2.95-.29.65-1.96,1.66-2.03,1.77Z"/>
    <path class="cls-5" d="M78.84,105.82s.12.56.05.85c-.38,1.82,3.92,1.27,4.96,1.12,1.91-.28,3.9-1.58,5.12-3.03-.05,1.82,2.23-.14,3.12-.69s1.4-.08,2.08-1.73c.82,1.08,1.71-.49,2.08-.69,2.28-1.29,3.15-2.28,4.86-4.33,1.04-1.24.72-2.33,1.21-3.3.32-.62,1.41-.69,1.75-1.72.74-2.23-.03-6.16-.89-8.35.51-1.1.78-2.22,1.39-3.47,2-.51,4.43-3.12,2.79-5.05-.36-.42-1.02-.45-1.05-.5-.35-.48,1.48-1.49.82-3.03-.11-.26-1.38-1.1-1.51-1.13,1-1.43,2.25-2.74,4.16-2.43.06.97-.51,1.84-1.04,2.6,1.53.91,1.78-1.96,2.16-2.52.82-1.22,5.37-1.91,7.21-4.59.35-.03.4.45.35.69-.04.17-.57.51-.35,1.04h2.43c.31,1.71-.51,2.11-1.73,2.95l1.39.52c-.11.5.03,1.53.23,2.01.25.57.75.36.81.42.31.31-.23,1.21,1.53,1.04,2.74-.28,2.68-3.6,1.25-5.54.59.25,1.08-.28,1.39-.35.81-.18,3.51-.76,3.8.21.64,2.14-2.92,2.39-3.11,2.57-.93.87,2.64.69,2.63,1.38.71,1.18-2.11,2.4-2.89,2.69-.81.31-3.35.74-3.5.84-.12.08-1,1.96-1.46,2.53-2.48,3.1-3.69,4.29-7.63,4.69-.2.02-.52.34-.69.35-2.53.08-2.71-1.41-3.7-1.69-1.35-.38-1.53,1.74-.83,2.23.88.61,3.22-.58,3.84.85-.8.42-1.69,1.17-2.43,1.73-.41.32-1.94.79-1.73,1.56.12.44,1.05.39,1.29.62.46.44,1.76,4.45,1.49,4.75-1.11.14-.82-1.72-2.08-.87,1.07,1.66,2.54,4.14,2.35,6.18-.08.9-.9.88-.96,1.17-.49,2.25-.29,3.85-1.33,6.24-.8,1.84-1.94,2.59-2.84,3.92-1.27-.85-2.2.51-3.46.88-1.67.49-5.7.7-6.71,1.27-.55.31-.73.78-.93,1.32-1.1-.65-4.1-2.62-5.11-2.7-2.42-.19-5.68.19-8.24-.08-1.95-.2-3.77-.98-5.73-1.03.01,1.13,2.77,1.19,2.43,1.9-.36.75-2.87,1.26-3.47,2.09-.47.97,1.93.11,1.24,1.92s-8.75,4.74-9.2,2.9c-.12-.5,2.3-3.78.85-3.26-1.19.42-2.22,2.2-1.92,3.46-1.43-.27-2.96-.31-2.37-2.19.19-.6,2.07-1.22,1.33-1.97-.48-.49-3.36,1.94-2.77.52.55-1.32,3.73-2.18,5.04-2.6.22-.07.79.13.51-.52-.26-.59-2.13-1.49-2.78-2.08-3.46-3.16-3.78-6.51-2.78-10.93l-1.73.35c-.64-1.71.82-2.9,1.03-4,.18-.95-.11-2.07.04-3.08.17-1.09.9-2.1.67-3.32,1.2.61.44,2.25.92,3.39.2.47.83.48,1.08,1.01.91,1.92.52,5.14,2.88,6.51.39.22,1.02.08,1.29.26.34.22.27,1.76,1.46,1.66,1.03,1.55,2.12,1.36,3.12,2.08.59.43.81,1.04,1.27,1.34,1.62,1.03,3.17,1.93,5.13,2.15.39.02.12-.5.2-.71M64.33,104.76c-.88.6-1.1-1.63-1.73-1.73-.06.94-.18,2.42.95,2.72.49.13.97-.18,1.32-.13.54.08,1.65.81,2.25.18.8-.84-2.44-.5-1.74-2.08-.91-.3-.91.95-1.04,1.04ZM101.47,106.5c-1.16-.31-.43,1.13-1.25,1.36-.39.11-2.03-.26-2.57-.47-.6-.24-.78-.45-.69.32,1.9,1.42,4.77,2.14,4.51-1.21Z"/>
    <path class="cls-16" d="M116.74,15.29c5.76-5.98,11.69-11.27,20.34-13.15,5.05-1.1,3.88-.02,3.27,4.13,1-.04,1.29-1.08,2.33-1.31.65-.15,2.76-.23,3.24.09,1.21.79-1.33,2.95-1.06,4,3.16-.17,6.24,3.15,1.04,2.78-.32.29,1.74,4.04,1.99,4.77,3.05,9.12,1.72,21.31-3.93,29.18-3.7,5.16-11.43,11.93-18.19,9.4-.07.86,2.28,1.85,1.38,2.77-.22.23-5.49-.68-6.15-1.48-1.07-1.29-.25-3.25-.73-4.63-.21-.6-2.83-2.59-2.14-3.25,1.61,0,2.93-.72,4.51,0l-1.39,2.77c3.21-.36,5.77-.27,8.86-1.38,14.61-5.25,19.25-26.37,8.84-37.64.43-.71,2.35.01,2.08-1.21h-5.73c-.24,0-3.76,1.95-4.31,2.28-4.37,2.58-7.4,6.09-9.75,10.55l-.69-2.77c-.28-2.88-1.37-4.45-3.82-5.9Z"/>
    <path class="cls-16" d="M58.78,17.71c-2.79.47-4.94,4.77-5.21,7.28-1.49-.12-1.22-2.81-1.56-3.82-1.45-4.34-4.47-10.79-9.88-10.39-.11,2.18-1.97,4.05-2.81,6.04-4.8,11.41-3.78,30.13,11.12,32.44l-.34-2.08,3.12.52c-.76.47-.58,1.58-1.01,2.11s-1.6.5-1.94,1.18c-.79,1.57,1.12,4.38-2.25,3.82l.69-2.42c-.82-.09-1.16.84-1.94.94-1.34.16-3.96-1.27-5.1-2.05-11.4-7.83-10.15-25.56-5.51-36.94.32-.79,1.29-1.8,1.39-2.43.14-.91-.64-2.76-.29-3.92,1.31-.29,2.01.33,3.12.69.06-2.27-2.32-5.76,1.7-4.63.65.18,2.28,1.97,2.81,1.51.44-.38-2.48-4.58,2.32-2.49,5.23,2.27,9.12,9.93,11.56,14.63Z"/>
    <path class="cls-13" d="M127.15,49.62c.6-1.26-1.23-3.9-1.01-4.63.07-.24,3.02-2.63,3.62-3.34,3.86-4.65,5.58-12.94.15-17.15-2.41-1.87-4.24-1.04-6.92-.54,1.61-2.94,2.73-4.73,5.39-6.93,1.39-1.15,6.29-4.34,7.96-4.17,1.85.19,3.89,3.16,4.66,4.72,5.88,11.95.03,29.49-13.84,32.04Z"/>
    <path class="cls-13" d="M50.8,22.57c.04.15.2.28.35.35.03.1-.03.24,0,.35-3.38-1.31-5.01.89-6.2,3.68-1.94,4.54-1.59,9.89,1.19,13.98.38.55,1.8,1.61,1.86,1.98.11.61-2.17,2.01-1.71,3.25-.04.1.04.25,0,.35h-.69c-9.78-5.84-9.3-23.08-3.76-31.67,2.3-3.56,3.72-2.45,5.92.55,1.68,2.29,2.33,4.5,3.04,7.19Z"/>
    <path class="cls-1" d="M127.15,49.62c-.62.11-3.13.71-3.47.35-.16-.17.41-1.59-.71-2.24-2.54-1.46-6.16,1.72-5.54-2.62,1.53.34,6.08-.44,5.85-2.51-.07-.68-.91-1.67-.91-1.83.02-.78,3.82-2.44,2.98-5.12-.17-.54-.95-.79-.97-1.45-.03-1.04,2-2.58.51-4.34-1.42-1.68-4.61.66-5.02.33,1.03-2.09,2-4.19,3.12-6.24,2.68-.5,4.52-1.33,6.92.54,5.43,4.21,3.71,12.51-.15,17.15-.6.72-3.55,3.11-3.62,3.34-.22.73,1.62,3.37,1.01,4.63Z"/>
    <path class="cls-5" d="M52.19,66.61c.69-.04,5.62,1.77,5.84,2.13.33.53-.28,2.3.4,3.07-.27.09-.23.16-.35.35-1.98-.26-3.27,1.26-1.04,2.08.68.25,2.55.25,3.12,0-.22,1.33,1.51,1.59,1.7,2.32.35,1.32-3.39,5.02,1.77,4.62-.06.09,0,1.08,0,1.39-.84.27-1.19,3.41-1.9,3.12-.47-.19-1.41-1.58-2.14-2.03-1.87-1.14-8.38-3.18-9.42-4.98-.23-.39.03-1.2-.07-1.31-.29-.32-5.52.58-6.6-.51s.02-2.34,1.05-2.96c.32-.19.67-.29,1.04-.35.65,1.82,3.1,2.67,3.47.69.06-.34.37-2.31.35-2.43l1.74-1.04c-1.17,0-2.78-.75-2.38-2.18.48-1.72,2.4-.25,2.91-.94.15-.21-.2-.66-.19-.69.01-.04.61-.34.69-.35Z"/>
    <path class="cls-5" d="M58.78,17.71c.05.1.74.39.99.91,1.33,2.7,2.85,5.75,2.48,8.8,1.42.31.08-1.88,1.22-2.42.86-.22.65,1.18.87,1.38.65.62.92-1.03,1.21-1.03.13,0,.59.51.52.85-.08.36-4.56,4.09-5.38,5.03-1.41,1.62-2.44,3.56-3.81,5.2-.54,0-2.44-3.04-2.55-3.72-.11-.73.32-1.34.22-1.92-.39-2.15-1.24-3.24-.97-5.8s2.41-6.81,5.21-7.28Z"/>
    <path class="cls-1" d="M51.15,23.26c.58,2.31,1.21,4.61,1.73,6.93-.43.41-4.01-1.2-4.14,2.29-.03.82.64,1.8.6,2.06-.09.59-2.95.86-1.12,3.96.55.93,2.1,1.61,2.23,1.78.11.15-1.3,2.33,0,3.44-1.45.05-3.58,1.09-4.16,2.43-.46-1.23,1.82-2.64,1.71-3.25-.06-.37-1.49-1.42-1.86-1.98-2.78-4.09-3.13-9.44-1.19-13.98,1.19-2.79,2.82-5,6.2-3.68Z"/>
    <path class="cls-5" d="M104.25,112.05c2.12-.38,6.81,4.95,2.43,5.89.13-1.34-.57-2.48-1.73-3.12.16,1.14,1.3,2.17.38,3.33-.49.62-3.34.65-3.5.48-.21-.22.26-3.75-1.74-3.12.66.98.81,1.94.7,3.12-3.7.15-6.43-1.53-5.21-5.55,2.43,1.28,4.83.62,7.29-.17.51-.17,1.07-.81,1.39-.87Z"/>
    <path class="cls-16" d="M123.19,33.54c-.99,1.49-3.85,2.34.84,2.21,1.15,2.09-3.72,4.29-3.82,4.69-.2.81,1.12.71,1.41,1.09,1.67,2.19-3.27,3.2-4.55,2.39-1.38-.88,1.53-1.49,1.72-2.14.21-.74-.72-1.39-.51-1.86.62-1.36,5.27-2.98-.16-2.77.63-1.51.97-3.7,1.51-5.1.44-1.15,6.63-3.13,3.56,1.5Z"/>
    <path class="cls-2" d="M60.17,49.62c.32-1.28-.24-1.51-.31-2.64-.35-5.56,2.5-12.02,8.99-10.88l-3.48,1.89c-2.05,2.23-3.31,4.86-2.74,7.97.16.9,2.2,3.81,2.06,4l-2.77.7c-.08-.03-1.44-.3-1.74-.35.03-.22-.05-.5,0-.69Z"/>
    <path class="cls-15" d="M96.96,25.34c.21.04.53-.06.69,0,.13.05.51.25.69.35s2.01,1.28,2.08,1.39-.03.75,0,1.04c.02.22,0,.47,0,.69,0,.11.01.23,0,.35-.01.12.03.25,0,.35-.04.15-.37.41-.35.69-.54.22-.79.31-1.39.35-2.23.15-8.18-.43-7.15-3.83.75-2.46,3.57-1.76,5.41-1.38Z"/>
    <path class="cls-15" d="M60.17,50.31c.3.05,1.65.31,1.74.35.05.02.21.24.35.35,1.44,1.13,1.82,3.49.52,4.85-1.51,1.57-8.35.22-6.44-4.36.75-1.79,2.28-1.46,3.84-1.19Z"/>
    <path class="cls-7" d="M105.64,108.58c-.2.29-.88,1.42-1.04,1.73l-.35.35c-.11.31.08.99,0,1.39-.32.06-.87.7-1.39.87-2.46.8-4.86,1.46-7.29.17-.18-.09-.64-.8-1.04-1.04.21-.55.39-1.01.93-1.32,1.01-.57,5.05-.78,6.71-1.27,1.26-.37,2.19-1.72,3.46-.88Z"/>
    <path class="cls-15" d="M75.09,25.34c.22,0,.49-.03.69,0,.93,1.54,1.64,2.34.35,3.99-1.39,1.77-3.41,1.22-5.21,1.9-.7-.22-1.16-.67-1.74-1.04-.63-3.67,2.88-4.78,5.9-4.86Z"/>
    <path class="cls-16" d="M54.96,37.83h-1.39c.53.85-.03,2.51.06,2.92.11.51,2.18,1.02,1,1.77-.53.34-3.68.37-3.83-.37-.22-1.1,1.95-1.65,1.39-2.24-1.22-.13-3.49-1.97-3.1-3.27.35-1.18,3.36.69,3.11-.73-.06-.31-4.38-5.88-.71-4.15,1.59.75,2.54,4.55,3.48,6.06Z"/>
    <path class="cls-9" d="M65.72,44.42l-.35,1.73c.4.08,1.07-.11,1.39,0,.4.14,1.17,1.43,2.61,1.42.67,0,1.86-.8,1.9-1.42,1.1.73,1.87.25,1.74-1.04.05,0,.38-.47.69-.35.63,1.04-1.44,4.86-2.17,5.1-.99.32-4.23.08-5.22-.32-1.34-.55-3.41-4.88-1.43-5.81.59-.12.66.54.84.69Z"/>
    <path class="cls-12" d="M105.29,70.78c.12.02.24-.02.35,0,.13.03,1.4.87,1.51,1.13.67,1.53-1.17,2.54-.82,3.03.03.05.69.08,1.05.5,1.64,1.93-.79,4.55-2.79,5.05.07-.15-.03-.61.18-1.02.4-.78,1.75-1.25,1.91-2.29.38-2.44-2.24-.96-2.78-2.07-.35-.73,1.04-.45,1.59-.83.77-.54,1.15-1.76.13-2.27-2.71-1.35-4.84.57-6.41,2.59.02-1.75-1.77-1.02-2.91-.48-.97.46-1.1.9-2.12,1.18.34-1.43,2.7-2.93,4.04-3.1.54-.07,1.11.24,1.56.15.68-.14,1.7-1.22,2.99-1.47.7-.14,1.81-.18,2.52-.08Z"/>
    <path class="cls-7" d="M50.45,43.73c1.41-.05,2.74.54,4.17.35.03.53.15,2.78-.52,2.77-.06,0-.47-.56-1.06-.67-1.88-.35-4.61-.9-4.16,1.72-1.09-.09-2.01-.53-2.95-1.04.18-.05.28-.18.35-.35.04-.1-.04-.25,0-.35.59-1.34,2.71-2.38,4.16-2.43Z"/>
    <path class="cls-7" d="M125.42,66.61c-.31.07-.8.6-1.39.35-.21-.28-1.36-1.82-1.73-1.39-.1,1.04.57,1.63,1.04,2.43l-1.74-.69c.35-1.28-.56-2.09-.69-2.77-.02-.11,0-.23,0-.35,1.74,1.41,4.34-2.73,5.92-1.59s-1.28,2.92-1.41,4.01Z"/>
    <path class="cls-12" d="M97.31,24.65c-.14.21-.22.47-.35.69-1.84-.38-4.66-1.08-5.41,1.38-1.04,3.4,4.91,3.98,7.15,3.83-.25.8-.9.67-1.54.71-2.14.15-4.51.07-6.1-1.57-3.73-3.84,2.96-6.65,6.26-5.04Z"/>
    <path class="cls-7" d="M48.37,66.61v.35c-.46.19-2.6,2.4-2.78,2.77h-.35c-.28-1.47-2.46-.99-2.42-2.92.06-3.41,4.03.19,5.55-.21Z"/>
    <path class="cls-7" d="M58.44,71.82c.25-.08.95.09,1.04,0,.27-.29-2.76-3.68,2.78-.69.15.96-.91,1.07-1.4,1.64-.23.27-.5,1.4-.68,1.48-.57.25-2.45.25-3.12,0-.79-1.64.51-1.03.98-1.47.19-.17.02-.54.07-.62.12-.19.07-.26.35-.35Z"/>
    <path class="cls-2" d="M67.98,37.95c1.85,0,2.19,3,.36,4.06-3.14,1.81-2.67-4.06-.36-4.06Z"/>
    <path class="cls-3" d="M52.19,66.61c-.08,0-.68.31-.69.35-.89-.38-2.24-.36-3.12,0v-.35c-.4-5.34,2.31-2.98,3.82,0Z"/>
    <path class="cls-5" d="M45.25,69.74h.35c-.04.09-.34,1.55-.35,1.73-1.67-.48-1.92.67-3.12.69-.77-.88-.86-1.02-.7-2.43h3.82Z"/>
    <path class="cls-1" d="M112.58,81.87v1.39c-.1.04-.25-.04-.35,0s-.26-.05-.35,0c-.62-1.42-2.96-.23-3.84-.85-.69-.49-.52-2.61.83-2.23.99.28,1.17,1.76,3.7,1.69Z"/>
    <path class="cls-7" d="M57.1,40.19c-.3-.49.61-2.63,1.16-3.05.19,0,1.01,1.42,1.07,1.73.31,1.54-1.47,2.59-2.23,1.33Z"/>
    <path class="cls-7" d="M118.13,63.84c.87-1.26,1.12-2.3,3.12-2.08.25.62-.32,1.36-.35,1.73-1.12-.1-1.14-.08-1.04,1.04h-1.39c.05-.25,0-.73-.35-.69Z"/>
    <path class="cls-7" d="M45.25,71.47c-.03.69.12,1.44.35,2.08-.37.05-.72.16-1.04.35.02-1.17-1.23-.35-2.43-1.73,1.21-.02,1.46-1.17,3.12-.69Z"/>
    <path class="cls-7" d="M102.86,27.08c-.4.38-.99,1.09-1.39,1.39.36-1.31-.89-1.21-1.04-1.39-.25-.28-.22-1.47-1.39-1.39.39-.95,2.39.29,3.03.63.47.25.58.61.78.76Z"/>
    <path class="cls-2" d="M73.01,45.11c.13,1.29-.63,1.77-1.74,1.04.01-.2-.69-.8-.01-1.23.77-.49,1.31.16,1.75.19Z"/>
    <path class="cls-3" d="M66.77,46.15c-.31-.11-.98.08-1.39,0l.35-1.73c.63.52,1.18.66,1.04,1.73Z"/>
    <path class="cls-5" d="M120.91,63.49c-.01.22-.02.47,0,.69,0,.11-.02.24,0,.35h-1.04c-.1-1.12-.08-1.14,1.04-1.04Z"/>
    <path class="cls-7" d="M112.58,83.26v-1.39c.17,0,.5-.33.69-.35.05.78.12,1.4-.69,1.73Z"/>
    <path class="cls-7" d="M109.45,85c.74-.56,1.63-1.32,2.43-1.73.09-.05.25.04.35,0-.52,1.02-1.71,1.5-2.78,1.73Z"/>
    <path class="cls-12" d="M98.35,25.69c-.18-.09-.56-.3-.69-.35l.35-.69c.57-.13.3.51.34,1.04Z"/>
    <path class="cls-1" d="M46.29,46.5c-.07.17-.17.29-.35.35-.13-.07-.22-.27-.35-.35h.69Z"/>
    <path class="cls-5" d="M104.25,110.66l.35-.35c-.07.14-.31.25-.35.35Z"/>
    <path class="cls-1" d="M51.15,22.92c-.15-.07-.31-.19-.35-.35.15.07.3.19.35.35Z"/>
    <path class="cls-7" d="M103.9,27.77c-.14-.08-.24-.23-.35-.35.13.09.24.23.35.35Z"/>
    <path class="cls-11" d="M91.06,46.85c-.63-2.28-.96-3.14-.26-5.63,1.66-5.9,7.73-10.08,13.68-7.26,2.32,1.1,3.86,4.92,6.02,1.11,2.55.24-1.39,4.85-.36,5.89l2.78-.35c.62,2.03-1.8,2.61-2.25,3.47-1.19,2.3-.18,4.01-3.3,5.89,2.84-5.44-.63-14.86-7.63-14.56-.19.92.24.6.68.86,3.31,1.96,5.22,5.37,4.5,9.35-.14.77-2.31,4.12-2.06,4.35,1.01-.34,1.6.51,2.08.7v.35c-3.09-.19-6.11-.37-9.21-.36-1.07,0-1.08.39-2.24.02.11-1.27-1.18-2.09-2.08-2.77-.04-.1.04-.24,0-.35l-.35-.69ZM97.89,40.85c2.54-3.1-5.04-4.93-2.97.74.62.39,2.49-.16,2.97-.74ZM100.08,46.15c-1.59.78-3.32,2.82-5.21.18-.66-.91-.45-2.83-1.93-1.6s.31,3.94,1.62,4.68c.9.51,4.91.36,5.97.13,1.78-.4,3.65-4.05,2.26-5.07-.26-.19-.71,0-.97-.06-1.61-.36-2.52-.14-1.74,1.73Z"/>
    <path class="cls-11" d="M92.79,52.05c.41,1.32-1.06,2.11-1.3,3.03-.26.98.06,2.02-.12,3-.8,4.39-4.04,11.72-9.68,9.74-4.34-1.53-5.37-7.58-6.77-11.26-.56-1.47-1.92-2.41-1.55-4.17,2.51,3.6,5.65.43,9.21.68,2.62.18,5.03,2.4,7.77.85.42-.24,2.07-2.34,2.46-1.88ZM86.2,57.25c-.06.05.2,1.32-1.05.53-.96-.6-.06-3-2.33-3.57-2.73-.68-4.35,1.23-4.6,3.73l-1.73-.69c-.47.69.84,3.63,1.29,4.42.83,1.45,1.58-.59,2.09-.96,2.01-1.47,4.43-2.05,6.89-2.38.66-.09,3.11.07,3.24-.06.09-.09.26-1.99.36-2.41-.77.11-1.85-.18-2.53-.01-.34.08-.41.76-.75,1.07-.3.28-.77.24-.88.33l.69-1.73c-3.13-1.38-1.5,2.34-.69,1.73ZM78.22,55.17c-1.83-.14-1.55,1.1-.52,2.08l.52-2.08ZM89.32,60.03c-2.81-1-9.18.61-9.93,3.81-.25,1.07,1.33,2.35,2.28,2.61,4.31,1.15,7.03-2.62,7.65-6.42Z"/>
    <path class="cls-2" d="M107.37,49.97c-.58.35-1.01.67-1.74.69-.18-.06-.52.07-.69,0-.48-.18-1.07-1.03-2.08-.7-.25-.23,1.92-3.58,2.06-4.35.72-3.98-1.19-7.39-4.5-9.35-.45-.26-.88.06-.68-.86,7-.3,10.47,9.12,7.63,14.56Z"/>
    <path class="cls-15" d="M105.64,50.66c.25.09.47.71,1.16.63.75-.09,1.57-1.28,2.78-1.22,2.06.1,3.03,1.89,2.58,3.81-.79,3.38-10.75,4.2-9.22-.89.41-1.38,2.18-.86,2.01-1.98v-.35c.17.07.51-.06.69,0Z"/>
    <path class="cls-11" d="M78.96,47.58c.31-.49,3.51-.48,4.22-.32,3.43.77.27,3.41-2.33,3.03-1.24-.18-2.61-1.56-1.89-2.72Z"/>
    <path class="cls-11" d="M75.79,25.34c.71.1,1.72.64,1.93,1.35,1.17,4.06-3.54,5.56-6.79,4.54,1.8-.68,3.82-.13,5.21-1.9,1.29-1.65.58-2.45-.35-3.99Z"/>
    <path class="cls-12" d="M80.3,74.94c-.87-.1-1.51-.81-2.43-.69-.26.22.99,1.52-.17,1.38s-2.57-1.15-3.65-1.39c-.21-1.38,1.92-.55,2.43-.34-.41-2.25,3.72-.79,3.82,1.04Z"/>
    <path class="cls-12" d="M87.24,69.39c-.52,1.91-3.66,2.41-5.29,1.99-1.1-.28-2.62-1.82-.37-1.36,2.75.57,3.03.25,5.67-.63Z"/>
    <path class="cls-12" d="M94.88,32.63c.43.47-.18.87-.43,1.14-.35.39-3.03,3.42-3.38,3.02-.74-1.4,3.23-4.8,3.81-4.16Z"/>
    <path class="cls-12" d="M93.49,75.28c-1.35.25-2.86.68-4.34.7l.52-1.04c1.04-.03,2.78-1.07,3.82.35Z"/>
    <path class="cls-12" d="M75.44,37.13c-1.12.12-1.02-1.21-1.44-1.86-.22-.34-1.98-1.73-.81-1.95.94-.18,2.82,2.75,2.25,3.81Z"/>
    <path class="cls-17" d="M93.49,50.66c-.65-.21-1.57-1.1-1.9-1.76-.22-.42-.1-.84-.18-1.02.9.68,2.19,1.51,2.08,2.77Z"/>
    <path class="cls-12" d="M100.78,29.85c-.12.46-.45.25-.69.35-.02-.28.31-.54.35-.69l.35.35Z"/>
    <path class="cls-12" d="M100.78,28.81h-.35c0-.22.02-.47,0-.69l.35.69Z"/>
    <path class="cls-11" d="M100.78,29.85l-.35-.35c.03-.1-.01-.23,0-.35l.34.18c-.03.17.04.36,0,.52Z"/>
    <path class="cls-17" d="M91.41,47.54c-.06-.15-.23-.28-.35-.69l.35.69Z"/>
    <path class="cls-12" d="M96.27,101.64c.06-.97,1.28-1.35,1.72-2,.39-.57,1.3-3.09,1.45-3.19.15-.11.75.32,1.01.17,1.03-.58.88-4.17,1.04-4.33s1.38.28,1.67-.58c.23-.67.09-3.53.04-4.46-.1-1.85-.8-1.56,0-3.3.86,2.18,1.63,6.11.89,8.35-.34,1.02-1.44,1.1-1.75,1.72-.5.96-.17,2.05-1.21,3.3-1.72,2.05-2.58,3.04-4.86,4.33Z"/>
    <path class="cls-12" d="M74.4,87.77c.04.06,1.17.39,1.4.2.53-.43.09-2.13,1.37-1.94-.12,1.32,1.49,4.42,2.93,4.19.47-.08.48-2.43,1.93.15-3.15,2.75-4.21-.91-5.53-1.37-.41-.15-1.02.23-1.56.17-2.27-.29-2.62-5.16-.54-6.25.18.84-.24,4.49,0,4.86Z"/>
    <path class="cls-12" d="M78.91,105.11c-.07.21.2.72-.2.71-1.96-.21-3.52-1.12-5.13-2.15-.46-.29-.67-.91-1.27-1.34-.27-2.5,1.99.56,2.66.98,1.17.75,2.74,1,3.94,1.79Z"/>
    <path class="cls-12" d="M92.1,104.07c-.09-1.72,3.66-5.57,2.08-1.73-.68,1.65-1.19,1.18-2.08,1.73Z"/>
    <path class="cls-12" d="M89.02,87.12c.07-.12,1.74-1.13,2.03-1.77.13,1.04.04,2.42-1.03,2.95-.86.42-1.32-.63-1-1.18Z"/>
    <path class="cls-15" d="M123.34,68c.08.14.59.16.7.87.29,1.82-1.02,2.89-2.78,2.6-.06-.05-.56.15-.81-.42-.21-.48-.34-1.51-.23-2.01s1.3-1.4,1.39-1.73l1.74.69Z"/>
    <path class="cls-12" d="M124.03,66.96c1.44,1.95,1.49,5.27-1.25,5.54-1.76.18-1.22-.73-1.53-1.04,1.76.29,3.07-.78,2.78-2.6-.11-.71-.62-.73-.7-.87-.46-.8-1.14-1.38-1.04-2.43.37-.43,1.53,1.1,1.73,1.39Z"/>
    <path class="cls-12" d="M119.87,64.53h1.04c.13.68,1.04,1.5.69,2.77-.09.33-1.27,1.23-1.39,1.73l-1.39-.52c1.23-.84,2.04-1.24,1.73-2.95h-2.43c-.22-.53.31-.87.35-1.04h1.39Z"/>
    <path class="cls-12" d="M64.33,104.76c.13-.09.13-1.34,1.04-1.04-.71,1.58,2.53,1.23,1.74,2.08-.6.63-1.7-.1-2.25-.18-.34-.05-.83.26-1.32.13-1.13-.31-1.01-1.79-.95-2.72.63.1.84,2.33,1.73,1.73Z"/>
    <path class="cls-12" d="M101.47,106.5c.26,3.35-2.61,2.63-4.51,1.21-.09-.77.09-.56.69-.32.54.21,2.17.58,2.57.47.82-.23.1-1.67,1.25-1.36Z"/>
    <path class="cls-12" d="M51.49,66.96s.34.49.19.69c-.51.69-2.43-.78-2.91.94-.4,1.43,1.21,2.19,2.38,2.18l-1.74,1.04c-.08-.42-2.15-1.19-1.74-2.43-2.19,1.51-2.01,5.64,1.39,4.85-.37,1.97-2.82,1.13-3.47-.69-.23-.64-.37-1.39-.35-2.08,0-.18.3-1.64.35-1.73.18-.37,2.32-2.59,2.78-2.77.88-.36,2.24-.38,3.12,0Z"/>
    <path class="cls-15" d="M49.41,71.82c.02.12-.28,2.08-.35,2.43-3.4.78-3.58-3.34-1.39-4.85-.42,1.24,1.66,2.01,1.74,2.43Z"/>
    <path class="cls-11" d="M58.09,72.16c-.05.08.12.44-.07.62-.47.43-1.77-.17-.98,1.47-2.23-.82-.94-2.34,1.04-2.08Z"/>
    <path class="cls-9" d="M101.82,44.42c.26.06.7-.14.97.06,1.4,1.02-.47,4.67-2.26,5.07-1.06.24-5.07.38-5.97-.13-1.31-.74-3.14-3.42-1.62-4.68s1.28.69,1.93,1.6c1.9,2.64,3.62.6,5.21-.18.7-.34,2.08.54,1.74-1.73Z"/>
    <path class="cls-2" d="M97.89,40.85c-.48.58-2.35,1.13-2.97.74-2.07-5.67,5.5-3.84,2.97-.74Z"/>
    <path class="cls-10" d="M101.82,44.42c.34,2.27-1.04,1.39-1.74,1.73-.78-1.88.13-2.09,1.74-1.73Z"/>
    <path class="cls-12" d="M86.2,57.25c.11-.09.58-.05.88-.33.33-.31.41-.98.75-1.07.69-.17,1.77.12,2.53.01-.1.41-.28,2.32-.36,2.41-.13.13-2.58-.04-3.24.06-2.46.34-4.88.91-6.89,2.38-.51.37-1.26,2.41-2.09.96-.45-.79-1.76-3.73-1.29-4.42l1.73.69c.26-2.5,1.88-4.41,4.6-3.73,2.27.57,1.37,2.97,2.33,3.57,1.26.79.99-.48,1.05-.53Z"/>
    <path class="cls-15" d="M89.32,60.03c-.61,3.8-3.34,7.57-7.65,6.42-.96-.25-2.53-1.53-2.28-2.61.75-3.2,7.12-4.81,9.93-3.81Z"/>
    <path class="cls-10" d="M86.2,57.25c-.81.61-2.44-3.11.69-1.73l-.69,1.73Z"/>
    <path class="cls-10" d="M78.22,55.17l-.52,2.08c-1.04-.98-1.31-2.21.52-2.08Z"/>
    <path class="cls-14" d="M78.48,105.95c1.87.1,3.74.14,5.61.12,1.7-.02,3.51.07,5.09-.62.59-.26.08-1.12-.5-.86-.78.34-1.63.4-2.47.43s-1.69.05-2.53.06c-1.74.01-3.47-.03-5.2-.13-.64-.03-.64.97,0,1h0Z"/>
  </g>
</svg>