<?xml version="1.0" encoding="UTF-8"?>
<svg id="Layer_1" data-name="Layer 1" xmlns="http://www.w3.org/2000/svg" viewBox="0 0 165.97 171.87">
  <defs>
    <style>
      .cls-1 {
        fill: #eb7434;
      }

      .cls-2 {
        fill: #311a1e;
      }

      .cls-3 {
        fill: #d14f27;
      }

      .cls-4 {
        fill: #e9b6c9;
      }

      .cls-5 {
        fill: #ce4a46;
      }

      .cls-6 {
        fill: #938ba4;
      }

      .cls-7 {
        fill: #347338;
      }

      .cls-8 {
        fill: #2c1612;
      }

      .cls-9 {
        fill: #e5d9c4;
      }

      .cls-10 {
        fill: #efbcce;
      }

      .cls-11 {
        fill: #bd7048;
      }

      .cls-12 {
        fill: #381711;
      }

      .cls-13 {
        fill: #f6f6f5;
      }

      .cls-14 {
        fill: #dba0af;
      }

      .cls-15 {
        fill: #311b1d;
      }

      .cls-16 {
        fill: #f37533;
      }

      .cls-17 {
        fill: #f1ccd9;
      }
    </style>
  </defs>
  <path class="cls-8" d="M126.61,31.34c-.93,1.29.34.78.99,1.41.8.77,1.09,2.03,2.98.86.35-.22.12-.53.19-.67.65-.02,1.36-.11,1.6.64-.15.21-.02.49-.51.91-1.31,1.14-3.42.77-3.25,2.67.17,2,2.72,1.49,4.4,2.32,2.81,1.39.34,2.78.39,3.52.04.54,3.31,2.58,3.13,4.46-.06.58-.97.97-.49,1.45,4.41-2.18,8.61-4.76,10.66-9.46,1.48-3.39,1.56-8.31-.92-11.3,1.94-1.68,1.82,1.34,2.31,1.86.15.16.52.02.57.06.72.68,1.31,3.6,1.28,4.63-.32,8.22-5.7,12.58-12.48,16.04-.03,1.29.8,2.6.95,3.8s-.26,4.2.18,4.93c.38.62,5.21,2.35,5.46,3.8.31,1.73-2.64,4.99-4.02,5.94-.13.51,2.65,2.1,2.2,3.46-.34,1.01-5.96,3.4-7.32,3.41-.09.6.47.98.58,1.5.44,2.17-1.08,2.18-1.19,2.85-.09.51,2.21,1.79,1.57,4.37-.06.25-.6.2-.64.42-.2.96,1.49,2.68,2.06,3.66,3.56,6.14,4.18,9.41,1.94,16.26-.67,2.05-2,2.84-.16,5.28,2.05,2.71,7.63,1.15,8.65,1.89,1.13.81.17,4.95-.28,6.15-.56,1.47-3.05,4.61-3.17,5.13-.3,1.3.03,2.79-.23,4.25-.37,2.09-1.62,2.81-2.33,4.38-1.85,4.11-2.63,8.24-7.13,10.76-9.83,5.5-14.8-2.39-22.37-6.66-4.9-2.77-7.71-.52-12.93-.81-4.32-.24-7.82-2.35-12.05-1.53-1.68.33-3.47,1.28-5.33,1.21l.32,4.44c1.19-.06,2.34.2,3.5.33v.96c-1.06-.14-2.1-.46-3.2-.32l.32,5.11c.71-.31,1.91-.68,2.55,0-.07.01-.24.26-.51.3-1.29.17-2.26-.33-2.05,1.77.05.52.72.94.63,1.11-.03.06-.91-.21-.62.97l.96,1.28c-.11.03-.35.52-.83.56-.33.03-.86-.35-1.03-.19-.14.12,0,.55-.05.59-.21.18-2.7-.56-3.19-.64,2.19-.51-.02-1.55-1.28-1.92,0-.69-.38-.87-.85-1.23-4.03-3.01-8.41-5.58-12.26-8.83-.72-.29-3.05.18-3.82.47-.21.05-.35-.14-.32-.32.03-.15.45-.55.32-.64-4.16-.45-7.68-4.79-8.78-8.63-.35-1.23-.25-2.96-.72-4.07-.58-1.39-2.45-1.47-3.05-3.97-.5-2.09.6-3.1.36-4.49-.04-.27-2.09-4.14-2.26-4.31-.65-.63-2.3-.28-3.2-.48-5.2-1.15-9.18-7.37-8.88-12.55.12-2.12,1.31-4.08,1.88-5.98-1.79-3.1-3.23-6.94-5.12-9.92-1.38-2.18-3.32-3.21-4.58-5.96-.8-1.75-1.5-6.75-2.38-8,1.1-1.15,0-2.88-.02-4.32-.01-.64.24-1.17.34-1.75.04-.2-.05-.47,0-.64.41-.42,2.15-.56,2.24-.64-2.28,2.93-2.12,7.08.16,9.9,4.2-7.09,10.44-9.43,18.21-10.87.29-.05.73.11.48-.46-.23-.52-2.52-3.27-3.09-3.62-4.51-2.8-12.81,1.27-15.76,5.06.08-.08.17-1.79.32-2.24,1.33-.89,1.33-1.02,2.24-1.92,4.26-4.25,12.15-5.12,16.29-.16,1.8,2.16,5.48,6.25,6.31,8.71.33.98.27,2.03.58,2.93.8,2.3,6.56,11.86,8.18,14.18.22.32.39.67.79.81l6.19-2.51c-1.54-1.77-.91-2.31.64-3.67-1.44-.41-5.11-1.14-4.8-3.17.07-.46.73-1.03.65-1.13-.04-.04-.73-.13-1.07-.36-2.51-1.75-5.97-5.03-1.49-6.83-1.09-.97-2.9-5.12-2.51-6.33.3-.92,2.62-.98,3.47-1.17.08.44.01.89.32,1.28-.48.05-1.23.54-1.92.32-.19,2.58,1.39,4.63,2.88,6.54l-2.86,1.64c-.2,2.02,4.5,3.56,4.95,4.26.73,1.13-1.43,1.44-.49,2.4.5.5,3.77,1.47,4.14,1.13l-.48-2.23c1.87,2.63,4.37,4.44,6.87,6.39-.89-.04-1.76.33-2.88-.32-.48-.33-2.31-1.84-2.46-1.87-.66-.17-2.02.66-2.02,1.4,0,.95,1.83,1.24,1.46,1.76-2.24,1.7-4.95,2.53-7.43,3.75-.32.16-.49-.08-.4.54,1.35,1.93,8.09,15.35,9.11,15.83.52.24.51-.34.66-.6,1.01-1.65,1.78-3.45,2.69-5.15.05-.1.56-.12.66-.82.09-.66-.33-1-.34-1.1-.02-.32,0-.64,0-.96l.48-.64.16.97.64-.32c.38,4.98-2.11,5.41-2.97,9.33-.2.93-.43,1.88-.07,2.82l8.73,15.23c.34,1.16-.28,2.87.25,3.92.49.97,4.63,3.44,5.75,4.16.41.27.93.27.78.96-.74-.03-1.49.02-2.24,0-.63-.4-1.4-.6-2.02-1.01-.7-.46-1.76-2.02-2.45-1.86-.16.04-.53,1.02-1.28.64-.07-1.48.05-2.99,0-4.47-.99-.21-.7,1.1-1.41,1.62-1.6,1.17-3.89-1.38-5.1-.96-.77.27-1.11,5.93-5.47,6.08-1.94.06-4.65-1.99-5.2.21-.63,2.51.66,3.54-2.95,3.76l15.01,10.38c.84-2.25,3.51-3.19,5.73-3.54.24-4.15-.42-8.29-.61-12.43,1.27-.08.81-.09.94.8.12.76-.06,2.9.02,3.02.12.18,3.77.65,4.29.64,1.09-.03,1.13-.91,1.35-.95.95-.17,3.32.42,4.57,0,.17-.51-.62-1.03-.96-1.28,4.16.92,8.63,2.22,12.93,1.91,1.04-.08,4.01-.62,4.96-.95-.26,2.36.32,1.23,1.03,1.61.42.23,1.56,1.69,1.85,0h.31c-.1.78,1.46.91,2.24,1.27.6,1.42,1.03.62,2.08,1.59l.16-.31c.51.32,1.09.62,1.6.96.24.16.28.87.96.64l.06-1.38.26-.21c.06.16.24.32.32.64.04.14.31.26.32.32.02.14.04.53,0,.64-.18.55-1.05.54-.34,1.77s1.67.82,2.9,1.11c.11.03.23-.03.32,0,.38,1.54,1.04,1.03,1.92,1.28.1.03.22-.03.32,0,.05.02.33.21.64.32s.49.26.64.32c.11.04.29.4.61.49.78.24,3.64.54,3.22-.49.89-.09,1.71-.39,2.56-.64,1.25-.37.7-.21,1.5-.64.42-.22,1.14-.22,1.32-.38.16-.15,0-.51.05-.57.26-.34.51-.48.64-.64.09-.11.23-.2.32-.32.23-.31.42-.65.64-.96.94-.04,2-1.01,2.07-1.88.03-.33-.16-.62-.15-.68.15-1.33.55-1.67.96-2.88,1.67-.15.43-1.4.64-1.6.04-.04.56.1.84-.1,1.32-.93,1.15-1.45.44-2.78v-.32c1.07.01.46-.92.99-1.74.23-.35.86-.42.94-.73.22-.88-.45-2.82-.01-4.25.12-.39.87-1.43,1.28-1.6.19-.08.79.14.93-.02.07-.08.59-1.97.62-2.15.08-.48-.28-.67-.27-.7.1-.7.72-3.23.51-3.53-1.66-.47-3.2-.28-4.98-.62-.62-.46-.83-1.25-1.74-1.28l-.5,1.12c.04.33.59.09.65.16.66.84.69,1.94.96,2.88l-.96.64c-.21-.78-.71-1.46-.96-2.24-.07-.22.14-.77-.04-.93-.15-.12-.75.07-.87-.06-.05-.06-.36-1.49-.37-1.57,0-.11,0-.21,0-.32,0-.06.48-.51.35-1.06-.03-.13-1.2-.84-1.3-.85-.71-.08-1.52,1.14-2.24,1.6-.13.08-.21.25-.32.32-.07.05-.25-.05-.32,0-.6.4-2.2.76-2.24,1.92-.08.05-.24-.05-.32,0-.17.1-.25.28-.32.32-.08.05-.24-.05-.32,0-.17.1-.25.28-.32.32-.97.62-1.89.54-1.92,1.92-.36.07-.91.91-1.6.64v-1.6c.07-.09.09-.4.32-.64.65-.08,1.32-.32,1.6-.96.09-.04.23.04.32,0,.24-.1.3-.31.32-.32.09-.04.23.04.32,0,1.76-.72,1.68-.98,2.88-2.24,6.84-7.23,7.88-15.28,2.05-23.62-.66-.95-3.01-3.1-3.27-3.75-.08-.21-.2-.72.1-.74.64.72,1.42,1.07,2.4.96.5-.51-.94-2.89-1.34-3.13-.21-.13-4.03.31-4.93.28-.6-.02-.94-.33-1.08-.34-.98-.71-2.36-.66-3.51-.64-.24,1.01,1.43.96,1.92,1.28,4.57,3.03-.2,3.25-.64,3.84-.11.15,1.36,2.91.32,3.51-.04.03-.91.31-.96.32-.19.04-.43-.02-.64,0-.94.09-1.93-.06-2.88,0-.05.74.07,1.51,0,2.24,0,.1.02.22,0,.32-2.08,1.11-4.28.75-6.39,0-.05.51-.13,1.14-.32,1.6-.43,1.02-2.07,3.78-3.1,4.09-.92.27-2.06-.11-3.05.14-1.44.37-3.55,3.25-5.91,3.68-2.19.4-2.61-1.3-3.09-1.22-1.52.26-4.21,3.01-6.39,2.88-1.98-.12-6.68-5.43-6.92-7.63-.78-.54-3.94,3.17-4.95-.96-.15-.61-.06-2.18-.13-2.26-.21-.22-2.56.3-3.2.32-.79.03-1.49-.07-2.24-.32-.07-.04-.18-.22-.32-.32v-.96c.52-.73.78-1.78,1.28-2.55-2.4-.4-2.39-1.13-.64-2.56.25-.21.6-.62.64-.64.08-.04.22.04.32,0,.2-.07.74.14.92-.04s.35-1.77.36-2.2c1.47.5,3.79,1.02,5.01,1.86.41.28.88.36.74,1.02-2.16.41-3.86-1.34-6.06-.46-.47.19-2.44,1.97-1.45,2.07l2.07-.32c.45.42-2.42,3.16-1.91,4.15,2.24.37,3.97-.55,6.07-.95.17.16-1.4,2.98-.16,4.47.68.82,2.89-.29,3.44-.95.3-.36.59-2.65,1.19-1.93.05.06-.27.99-.19,1.6.27,2.02,1.7,4.43,3.06,5.92,2.76,3.01,3.33,2.78,6.72.96.89-.48,3.64-2.66,3.98-2.73,1.08-.22-.23,1.23.3,1.94.94,1.27,4.86-1.22,5.77-1.95.66-.53,1.95-2.46,2.1-2.54.89-.5.9,1.78,1.74,1.59,1.38-.32,3.81-5.17,3.36-6.71,2.11.75,3.67,1.68,6.07,1.28.63-1.02-1.71-3.25-.46-3.49,1.08-.21,2.2.91,2.52.96,1.59.25,1.31-.51,1.7-.65.69-.27,1.52.51.89-1.3-.27-.77-1.16-1.06-1.13-1.9.55-.31,3.08-.62,2.87-1.44-.07-.29-2.96-1.96-3.4-2-.7-.06-1.98.72-2.85.85-.47.07-.9.22-.77-.45,1.91-1.44,4.12-2.45,6.04-3.87.2-.15,2.73-2.8,2.26-1.26-.13.43-1.63,2.07-1.27,2.4,1.69.61,7.05,1.06,8.32-.15,1.14-1.09-1.65-3.59-1.29-4,2.77-.31,5.43-1.16,7.99-2.24,0-1.63-1.82-2.06-2.57-3.02-.76-.97.08-.73.82-1.43,1.2-1.15,2.19-2.1,3.02-3.53.07-.12.66-.17.6-.74-.16-1.48-5.25-3.34-6.67-4.37-.11-.08-.19-.24-.32-.32l-.32-.96,1.6.31c.02-.21-.02-.43,0-.64s0-.43,0-.64c.02-.52.02-1.07,0-1.6-.03-.61.09-1.35,0-1.92-.16-1.08-1.22-2.33-1.92-3.19-.09-.12-.23-.2-.32-.32-.17-.22.08-.47-.64-.96-.44-.3-.34-.32-.96-.32-.06-.56-.87-.54-.96-.64-.03-.04-.13-.73-.32-.96,2.95.98,5.19-.25,1.92-2.24-.77-.85-1.27-1.13-2.24-1.76-.14-.57,2.32-1.68,1.77-2.4s-5.08-1.38-5.24-1.64c-.26-.42-.32-3.67-.36-4.43l-1.91,1.6c-.5-2.72,2.05-2.41-.17-4.46-5.18-4.78-13.75-7.99-20.6-9.28-.79-.15-1.47-.13-2.24-.32-.02-.09,0-.22,0-.32.05-.91.6-.37.64-1.28,8.46.35,15.67,3.83,22.19,8.95.6.47,1.02,1.24,1.45,1.59ZM49.93,68.72c-1.08-3.29-2.21-5.9-6.2-5.4-4.9.61-10.81,4-14.09,7.64-3.9,4.32-3.51,5.59,0,10.22,3.13-7.99,11.8-13.04,20.29-12.46ZM50.15,70.73c-1.64-1.4-3.83-.59-5.63-.08-.67.96,3.66,6.74,3.17,7.32s-.7-.43-.83-.6c-.8-1.13-3.12-6.38-4.38-6.36-1.43.02-7.44,3.74-8.05,5.06-.69,1.49.86,2.37.79,3.82-1.14.27-1.29-2.54-2.07-2.23-.57.22-2.14,3.63-2.08,4.29,1.17,1.45,5.77,11.86,6.45,12.26,1.32.76,4.89-1.31,6.15,2.32.23.66.06,1.58.22,1.86.09.16,2.53,1.04,3.15,1.88.96,1.31.35,2.53.69,3.69.14.49.85.8,1.13,1.42.65,1.41.73,3.3.1,4.73-.36.82-1.72,1.86-1.5,2.7l10.72,20.22c3.97,1.96,3.89-.72,3.38-3.94-2.9-5.84-6.34-11.42-9.28-17.24-.36-.71-.85-1.41-.79-2.24.79.65,1.46,1.77,1.97,2.66,2.84,4.85,5.21,10.81,8.16,15.46.1.15.88,1.02.96,1.03,1.09.26,5.68.83,6.63.65,1.48-.29,3.48-5.01,3.37-6.2-.13-1.44-3.69-5.57-3.84-7.53.79-.19.85.67,1.2,1.19,1.51,2.24,2.14,4.99,4.39,6.48,2.81,1.87,4.41,2.45,4.79-1.65-9.33-17.18-19.38-33.96-29.01-50.97ZM47.06,105.46c-.36-.38-.92-.29-.96-.32-.28-.3.52-.91.57-1.18s-.25-.38-.26-.41c-.24-2.41-.77-2.29-2.24-3.83-.04-.05.09-.4-.06-.57-.23-.28-1.04-.23-1.18-.43-.25-.35.15-1.56-.07-1.86-.09-.12-.51.04-.61-.02-1.03-.6-1.2-1.34-2.7-1.29-3.72.1-4.34,3.89-4.01,6.89.46,4.21,6.41,11.42,10.97,8.41,1.74-1.15,1.96-3.88.53-5.38ZM49.93,120.47c-1.34-1.02-.99,3.6.8,3.19.58-.44.4-.38.25-.88-.07-.25-.95-2.24-1.05-2.31ZM52.16,124.31c-1.1-.9-.3,1.38-.08,1.85s-.2.88.72.7c.19-.51-.37-2.33-.64-2.55ZM143.22,128.14c.16-1.33-.47-1.33-.31,0h.31ZM54.09,131.33v.43c-1.11.11-.4,1.76.08,2.05.32.2.71,0,.88.07.18,1.58,4.66,4.37,6.39,3.83-1.83-2.04-3.94-2.87-6.39-3.83-.04-.36.06-.7.32-.96.14.12.93.16,1.12.64.24.05.2-.31.15-.47-.14-.45-2.97-5.9-3.19-5.6-.12,1.19.1,2.76.64,3.83Z"/>
  <path class="cls-15" d="M60.16,139.64c-.03.18.11.37.32.32-.5.19-1.96,1.34-2.66,1.66-10.6,4.87-22.14,10.07-32.38,15.54-.25.14-2.23.93-1.7,1.33,7.35,1.01,14.6,2.66,21.93,3.79,21.1,3.25,42.57,5.91,63.85,7.72,1.31.11,2.87.55,4.16.64.7.05.4-.03.47-.48.28-1.68.19-3.41.35-5.09.15-1.56.17-2.97.28-4.48.39-5.28,1.07-10.54,1.29-15.83-10.17-.89-20.25-2.47-30.35-3.83v-.96c9.36,1.08,18.9,1.9,28.23,3.23.79.11,2.73.25,3.11.73.82,1.04-.53,9.62-.67,11.54-.15,2.07-.62,15.97-1.32,16.41-5.23-.27-10.5-.71-15.74-1.28-24.46-2.67-48.77-6.6-72.97-10.74-.88-.15-5.33-.52-5.5-.73-.66-.8,1.85-1.8,2.49-2.14,10.38-5.46,23.64-12.38,34.36-16.76.79-.32,1.56-.66,2.45-.58Z"/>
  <path class="cls-12" d="M74.85,29.74c.02-1.21,3.71-3.42,4.82-4.03l-1.94-8.11c3.05-.4,5.34,1.2,7.66,2.87.82-4.52,4.71-9.07,8.65-11.32.76-.43,4.72-2.4,5.07-.95.16.64-3.83,7.25-2.85,9.08.47.14.65-.2.96-.32.55-.21,1.13-.26.96-.96.09-.04.22.04.32,0,.55-.2,1.13-.28.96-.96.1,0,.22-.01.32,0,.28.03,1.66.46,1.78.62.84,1.16-1.11,4.91,1.42,4.81.01.1,0,.22,0,.32-.04.9-.59.37-.64,1.28-1.48-1.34-1.49-4.19-1.6-6.07-2.52.69-3.24,3.1-3.52,5.43-3.74-2.84-2.31-7.75-.96-11.5-3.77,1.29-7.72,5.24-8.96,9.09-.9,2.81-.56,3.96.65,6.56-.62.67-2.93-3.05-3.2-3.35-1.31-1.46-3.07-3.16-5.1-3.36.77,3.55.85,8.9,5.11,9.91-.43,1.35-3.77-.15-2.8,1.53.21.37,6.78,4.4,7.19,4.48,1.8.35,2.17-1.44,3.91-1.22-.08.09-.11.59-.45.97-.93,1.05-2.9,2.09-4.26,1.33l-8.29-5.6c-1.04-1.17.47-1.37.54-2.46-.57-.49-3.07,1.46-3.67,1.92-2.92,2.29-5.06,5.31-7.2,8.3l.64-2.55c-.58-.63-1.8,2.08-1.92,2.23-.19.24-.58.91-.64.96-.44.4-2.16,1.16-2.88,1.6-.36.22-1.46.42-1.6.86-.44,1.35.33.93.96,1.06.27.05.61.33.96.32-.03.03.04.6-.18.92-1.52,2.22-1.8,2.28-2.05,5.15-.62-.43-.2-1.4-.33-2.01-.05-.26-.5-.26-.62-.45-.79-1.32.02-.85.44-1.38.18-.23.13-.53.19-.63.1-.14.74-.25.63-.77-.14-.66-1.9-.87-1.04-2.67.46-.96,3.22-2.04,4.25-3.1.3-.3,2.62-3.17,2.71-3.37.16-.34-.12-.45-.17-.64-.13-.52-.32-1.14-.96-.96-.07-.28,0-.92,0-1.28,1.01-.31.89.45,1.29.77.23.19.57.14.62.19.11.1.21.22.32.32.06.06-.02.61.3.81,1.3.82,1.3-.46,1.77-.82.82-.63,2.78-1.36,2.72-2.68-.01-.25-.31-.17-.31-.18Z"/>
  <path class="cls-8" d="M63.67,52.1c-1.04-.17-2.16-2.6-2.22-3.72-.04-.7.47-1.53.16-2.02-.21-.34-2.72-2.01-3.36-2.72-3.21-3.58-4.64-8.64-2.98-13.19,2.9-7.92,13.82-10.04,13.83-21.31,0-2.18-2.67-7.68,1.09-7.18.98.13,3.63,2.73,4.11,3.59,3.31,5.95,2.72,14.38-.85,20.08-1.26,2.02-4.08,4.07-3.4,6.67-.06-.05-.39,0-.62-.19-.4-.32-.29-1.08-1.29-.77.06-2.85,1.66-3.37,2.86-5.35,3.65-6.03,6-15.41.65-21.23-.32-.35-1.95-1.89-1.93-.72.08,4.96,1.57,6.82-.67,12.09-3.6,8.45-15.9,11.01-11.61,22.24.83,2.18,2.96,5.1,5.27,5.76-.06.09,0,.4-.19.63-.42.53-1.23.05-.44,1.38.12.2.57.2.62.45.13.62-.29,1.59.33,2.01-.03.31,0,.64,0,.96,0,.03-.38.21-.3.44.13.4.84.37.95.75s-.04.94,0,1.36c1.18.19.42.64.78,1.95.18.64.76.43.84,1.06.1.78.25,2.47-.98,2.41-.26-1.95-.5-3.41-.64-5.43Z"/>
  <path class="cls-15" d="M143.42,157.33c2.36,1.87,4.56,5.99-.52,5.31,1.01,2.33-1.03,2.72-2.98,2.75-3.95.05-8.17-2.53-8.86-6.57-2.18.53-4.79,1.01-7.03.49-2.46-.58-.95-1.84-1.39-2.43s-2.45-.02-2.45-1.1c-.01-4.98,10.15-6.06,13.7-4.74,2.37.88.83,1.89,1.05,2.8.11.45,6.68,2.08,8.47,3.5ZM133.92,152.14c-.94-1.16-12.47-.5-12.42,3.47l3.51-.32-1.28,2.87c1.56.6,6.51.34,7.5-.97.63-.84.43-3.14,1.46-3.66.4-.2,2.23-.16,1.23-1.4ZM144.5,161.36c-.94-4.54-6.21-4.76-9.67-6.14-.7-.28-1.11-.85-1.83-.89-2.2,6.75,2.49,10.33,8.94,9.58l-.64-2.55h3.19Z"/>
  <path class="cls-15" d="M126.61,1.63c.18-1.56,2.73-2.23,3.36-.96.52,1.06.02,5.7.24,7.43,1.2,9.49,9.14,12.25,15.26,17.33,1.25,1.03,2.94,3.04,3.19,4.63-.05-.04-.41.1-.57-.06-.49-.51-.37-3.53-2.31-1.86-.44-.53-2.52-2.09-3.19-2.56l1.27-.47c-1.06-.98-2.39-1.63-3.59-2.41-.44-.29-.83-1.51-1.84.01-6.94-4.36-9.85-9.39-9.9-17.57.42.25.9.8.96-.15.21-3.39.73-5.31-2.88-3.36-.02.21,0,.43,0,.64.31-.02.64.03.96,0-.47.84-1.49,1.76-1.92,2.56-.39-.34-.19-1-.78-.3s-2.89,4.61-.82,4.77c-.04.99-.31,2.12-.32,2.88-1.26-.02-1.17,1.97-1.28,2.88-.93.19-.65-.51-.65-1.11.03-3.72,1.37-10.45,4.8-12.3ZM125.81,2.9v.32c.21-.11.21-.21,0-.32Z"/>
  <path class="cls-15" d="M19.8,149.75c-2.63,2.42-6.75,2.37-9.89,1-4.33-1.89-1.37-2.7-1.22-3.65.13-.8-1.92-1.5,1.41-3.05,2.77-1.29,7.9-.2,10.76.85,2.11.77,0,3.87-1.07,4.85ZM20.21,146.05c-.46-.64-9.57-2.84-10.53-.49-.16.72,1.36.49.97,1.87-.11.4-1.81.48-1.61,1.32.31,1.33,5.12,1.84,6.41,1.62,1.39-.24,5.76-2.92,4.76-4.31Z"/>
  <path class="cls-15" d="M34.59,137.38c-.16.23-3.15,1.2-3.7,1.27-2.78.34-5.34-.24-7.48-2.04-3.43-2.89-1.91-4.57,1.85-5.51,3.11-.77,6.29-.51,8.86,1.51,3.72,2.92.33,2.71.19,3.38-.07.35.48,1.11.27,1.39ZM34.28,134.85c-.45-2.03-4.1-3.12-5.92-3.2-.91-.04-5.81,1.32-5.92,1.8-.45,2.07,4.53,4.15,6.26,4.27.75.06,3.94-.2,4.31-.64.66-.79-1.08-1.15-.96-1.75.14-.63,1.69-.5,2.23-.49Z"/>
  <path class="cls-12" d="M67.51,42.2c-.03.1.03.23,0,.32-.63,1.84-1.57,2.96-1.92,5.11-.05.3.04.65,0,.96-.32,2.76-.36,4.26,0,7.03.03.21-.03.44,0,.64.3,1.98,1.09,3.9,1.27,5.92.07.81.14,1.01-.63.47-.1-.28-.26-.48-.32-.64-.23-.6-1.02-3.04-1.45-3.18-2.08-.68-.25,2.15-.14,2.86-.56-.05-1.36-.05-1.92,0-.31-.39-.24-.84-.32-1.28-.02-.1.02-.22,0-.32,1.05.27.39-.82.92-1.47.33-.4,1.11-.33,1.31-.77.02-.05.01-.23,0-.32,1.23.06,1.08-1.63.98-2.41-.08-.63-.67-.42-.84-1.06-.36-1.32.4-1.76-.78-1.95-.03-.43.11-1,0-1.36-.11-.38-.82-.35-.95-.75-.07-.23.3-.42.3-.44.5.24.72.68,1.04-.07.38-.91.37-2.3.74-3.42.5-1.53,1.66-3,2.06-4.17.03-.08,0-.21,0-.32l.64-.32c.33.35.16.42,0,.96Z"/>
  <path class="cls-15" d="M122.46,15.68c.87,1.54.83,2.71,1.6.32.15.62,1.61,4.19,1.92,4.79-1.69-.81-.53,2.09-.32,2.24.38.27,1.14-.18,1.28-.64.92,1.45,1.71,1.23,2.24,3.51.01.05-.29.27-.15.63.4.98,2.01,1.46,1.74,2.56-.47-.74-1.59-1.33-2.09-1.9-1.16-1.32-2.04-2.83-3.02-4.17-.03-.04-.47.1-.58-.05-1.53-2.17-2.7-4.74-2.62-7.3Z"/>
  <path class="cls-15" d="M132.04,29.1s.4-.08.53.11c1.26,1.76.94,2.68-.22,4.36-.23-.74-.94-.66-1.6-.64-.07.14.16.45-.19.67-1.88,1.17-2.17-.08-2.98-.86-.65-.63-1.92-.12-.99-1.41.33.28,2.32,1.83,2.47,1.87.66.18,1.18-.26,1.69-.27.54-1.15.82-2.24.32-3.51.78.14,1.07.73.96-.32Z"/>
  <path class="cls-15" d="M99.77,15.05c.99-.54,1.23-1.29,2.56-.96-.44,2.28.4,4.34.64,6.39-2.53.09-.58-3.65-1.42-4.81-.11-.16-1.5-.59-1.78-.62Z"/>
  <path class="cls-8" d="M123.73,12.17c-.01,1.04.08,2.86.32,3.83-.77,2.39-.73,1.22-1.6-.32,0-.21-.02-.43,0-.64.11-.9.02-2.9,1.28-2.88Z"/>
  <path class="cls-8" d="M74.85,29.74s.3-.06.31.18c.06,1.32-1.9,2.04-2.72,2.68-.47.37-.47,1.65-1.77.82-.31-.2-.23-.75-.3-.81,2.07.28,2.66-2.46,4.47-2.88Z"/>
  <path class="cls-15" d="M24.06,64.56c-.11.59-.36,1.12-.34,1.75.03,1.43,1.13,3.16.02,4.32-.02-.03-.55.13-.64-.21-.26-.97.04-3.75.22-4.86.09-.57-.12-1.19.74-1Z"/>
  <path class="cls-8" d="M129.8,26.23c1.1.55.76.47,1.28,1.6.06.13.21.23.32.32.57.51.48.77.64.96.11,1.05-.17.46-.96.32-.04-.09-.24-.2-.32-.32.27-1.1-1.34-1.58-1.74-2.56-.15-.36.16-.58.15-.63h.32l.32.32Z"/>
  <path class="cls-15" d="M28.85,59.13c-.9.9-.9,1.02-2.24,1.92-.15.45-.24,2.16-.32,2.24s-1.82.22-2.24.64c.56-1.89,1.2-1.96,2.56-2.88.38-1.16,1.02-1.72,2.24-1.92Z"/>
  <path class="cls-8" d="M64.31,57.86c-.21.44-.98.36-1.31.77-.53.64.13,1.74-.92,1.47-.35-2.25-.4-2.73,2.24-2.24Z"/>
  <path class="cls-15" d="M98.18,16c.17.7-.41.75-.96.96.22-1.08.45-.75.96-.96Z"/>
  <path class="cls-15" d="M99.45,15.05c.18.68-.41.76-.96.96.3-.75.14-.93.96-.96Z"/>
  <path class="cls-9" d="M64.31,61.69c.49.04,1.05.36,1.6.32.06.16.22.36.32.64.25.68.67,3.08,1.04,3.43.22.2,1.12.33,1.59.71.58.47.83,1.28,1.73,1.87,2.33,1.54,3.33,1.01,5.69,1.33,1.81.25,4.57,1.08,6.35.65.45-.11.32-1.04.54-1.36.52-.76,1.91-1.47,1.91-2.81,3.15-1.6.52,1.88,1.28,3.19-.66.4-.96.79-.48,1.6.17.27,3.5,2.54,3.85,2.57.28.02,3.9-1.96,4.15-2.23.75-.81.28-1.29.46-1.94,1.82-6.55,2.68-1.32,4.82.45s4.4.8,6.68.5c.79-.1,2.8-.64,3.04-.64h4.79c.77,0,4.14-.32,4.87-.56,1.56-.51,4.46-3.17,6.06-4.17.85-.53,1.75-.91,2.65-1.34.1.01.22-.01.32,0-.08,1.7,2.93.8,2.88-.32.1-.02.22.03.32,0,1-.28,2.1-.4,2.88-1.28.31-.03.64.01.96,0,2.23-.1,6.07-.24,7.03,2.24-.84,1.43-1.83,2.38-3.02,3.53-.74.71-1.58.46-.82,1.43.75.95,2.57,1.39,2.57,3.02-2.56,1.09-5.21,1.93-7.99,2.24-.36.41,2.43,2.9,1.29,4-1.27,1.22-6.63.77-8.32.15-.36-.33,1.14-1.97,1.27-2.4.47-1.54-2.06,1.11-2.26,1.26-1.92,1.42-4.13,2.43-6.04,3.87-.13.67.3.53.77.45.87-.13,2.15-.92,2.85-.85.44.04,3.33,1.7,3.4,2,.2.82-2.32,1.13-2.87,1.44-.02.84.87,1.12,1.13,1.9.63,1.81-.2,1.04-.89,1.3-.38.15-.1.9-1.7.65-.32-.05-1.44-1.17-2.52-.96-1.25.24,1.1,2.48.46,3.49-2.4.41-3.96-.53-6.07-1.28.45,1.54-1.98,6.39-3.36,6.71-.85.19-.86-2.09-1.74-1.59-.14.08-1.43,2.01-2.1,2.54-.9.72-4.83,3.22-5.77,1.95-.53-.72.78-2.16-.3-1.94-.34.07-3.09,2.25-3.98,2.73-3.39,1.83-3.96,2.06-6.72-.96-1.36-1.48-2.79-3.89-3.06-5.92-.08-.61.24-1.54.19-1.6-.6-.72-.89,1.56-1.19,1.93-.55.66-2.76,1.77-3.44.95-1.24-1.49.33-4.31.16-4.47-2.1.4-3.83,1.32-6.07.95-.5-.99,2.37-3.73,1.91-4.15l-2.07.32c-1-.1.98-1.88,1.45-2.07,2.19-.87,3.89.87,6.06.46.14-.66-.33-.74-.74-1.02-1.23-.84-3.55-1.36-5.01-1.86-.46-.16-.47-.59-1.6-.64-2.5-1.94-5-3.76-6.87-6.39l.48,2.23c-.38.35-3.65-.62-4.14-1.13-.94-.96,1.21-1.27.49-2.4-.45-.7-5.15-2.24-4.95-4.26l2.86-1.64c-1.49-1.91-3.07-3.97-2.88-6.54.69.22,1.43-.27,1.92-.32.55-.05,1.36-.05,1.92,0ZM101.51,80.03c.8-.9,1.62-2.36,2.12-2.83.2-.19,5.49-3.03,3.02-3.69-.73-.19-3.22,2.94-4.41,2.93-3.63,2-7.8.08-11.22.25-3.52.18-3.3,2.92-7.49-.17-.79-.58-1.75-2.43-2.58-1.25.04,1.97,2.5,2.16,3.49,2.89.81.6.7,1.84,2.16,2.25.28.08.72-.22,1.06-.05.31.15,1.17,1.57,1.77,2.08,4.11,3.55,9.05,1.03,12.11-2.42ZM104.25,85.65c-3.22.73-7.79,1.92-11.02,1.92-2.87,0-5.78-2.75-8.79-1.76,5.28,2.84,9.33,4.26,15.34,2.56,1.48-.42,3.34-1.84,4.47-2.08.57-.12,1.38.12,2.03-.04.45-.1,6.86-1.46,6.27-2.19-.78-.97-7.01,1.3-8.31,1.59ZM92.74,94.6c-2.87,1.01-1.88-1.72-2.07-3.51-2.08,1.42-.93,6.21,1.67,4.25.28-.21.57,0,.4-.73Z"/>
  <path class="cls-7" d="M50.15,70.73c9.63,17.01,19.68,33.79,29.01,50.97-.38,4.1-1.98,3.52-4.79,1.65-2.25-1.49-2.88-4.25-4.39-6.48-.35-.52-.41-1.37-1.2-1.19.15,1.95,3.7,6.09,3.84,7.53.11,1.19-1.88,5.91-3.37,6.2-.95.19-5.54-.39-6.63-.65-.07-.02-.86-.88-.96-1.03-2.95-4.66-5.32-10.61-8.16-15.46-.52-.88-1.19-2.01-1.97-2.66-.06.84.43,1.54.79,2.24,2.94,5.82,6.38,11.4,9.28,17.24.51,3.22.58,5.9-3.38,3.94l-10.72-20.22c-.23-.84,1.14-1.88,1.5-2.7.63-1.43.55-3.32-.1-4.73-.28-.62-.99-.93-1.13-1.42-.34-1.17.26-2.38-.69-3.69-.62-.85-3.06-1.73-3.15-1.88-.16-.28,0-1.2-.22-1.86-1.26-3.62-4.83-1.55-6.15-2.32-.69-.4-5.29-10.81-6.45-12.26-.06-.66,1.52-4.06,2.08-4.29.78-.31.94,2.5,2.07,2.23.07-1.45-1.48-2.33-.79-3.82.61-1.32,6.62-5.04,8.05-5.06,1.27-.02,3.59,5.24,4.38,6.36.12.17.36,1.16.83.6s-3.84-6.36-3.17-7.32c1.8-.51,3.99-1.32,5.63.08ZM43.26,77.69c.04-.06.89-.26,1.23-.52.93-.71.86-1.46-.37-1.36-.56.05-7.32,3.45-7.6,3.78-.45.55,1.24,1.32,1.73,1.28.87-.06,1.66-1.53,2.74-1.29.32.32-2.49,5.04-.47,5.75.89.19,1.19-2.34,1.46-2.94.19-.42,1.21-1.04.94-2.16.96-.34,4.15,1.64,4.45.44.54-2.17-3.73-1.61-4.14-2.05-.03-.03-.03-.83.03-.92ZM40.99,90.76c-.61-2.04-1.76-4.39-2.82-6.28-.22-.4-2.07-3.82-2.61-3.3l5.43,9.58ZM48.6,84.32c.22-.38.11-1.09-.25-1.4-.93-.65-5.18,2.96-6.39,3.22-.68.57-.48,1.9.64,1.61.49-.13,5.82-3.13,6-3.43ZM51.21,83.74l-.62.46c1.93,3.14,3.54,6.47,5.36,9.66.29.5.59,1.56,1.33,1.38l-6.07-11.5ZM50.8,86.39c-.32-.28-.75-.46-1.17-.26l-6.39,3.71c.9,3.3,3.72,5.75,7.12,3.76,2.48-1.45,2.4-5.47.43-7.2ZM54.73,97.47c.12.11,1.22.04,1.45-.3,1.1-1.57-2.06-4.36-4.02-3.38-1.47.74-.57,4.34-1.25,4.82-2.03,1.43-1.35-2.5-2.1-2.74-1.97-.62-1.02,4.45.65,4.78,3.7.74,3.46-2.42,3.34-5.11,2.42-.71,1.59,1.6,1.92,1.92ZM59.52,103.22c-.56-.57-5.34,2.34-5.75,3.1-1.49,2.79.32,5.43,3.6,4.81.52-.1,4.84-2.28,5.01-2.5.15-.2-.2-1.55-.49-1.58-1.49-.15-5.71,4.51-7.01,1.6-.99-2.21,5.32-3.09,4.64-5.42ZM64.85,115.26c1.26-1.14.13-3.84-.72-4.98-1.27-1.71-4.47,1.12-5.91,2.02-.63.39-1.82.31-1.84,1.36-.03,1.78,2.81-.3,3.28-.18.68.16,2.38,4.34,5.2,1.79Z"/>
  <path class="cls-9" d="M76.77,92.36c.64-.02,2.98-.54,3.2-.32.08.08-.01,1.65.13,2.26,1,4.13,4.17.42,4.95.96.23,2.2,4.94,7.51,6.92,7.63,2.18.13,4.87-2.62,6.39-2.88.48-.08.9,1.62,3.09,1.22,2.36-.43,4.47-3.31,5.91-3.68.99-.26,2.13.13,3.05-.14,1.03-.31,2.67-3.07,3.1-4.09,1.09,1.13,2.08,2.92,2.24,4.47-3.94,3.86-3.74,6.08-5.53,10.61-.37.95-1.22,1.58-1.68,2.47-1.82,3.53-1.72,6.7,1.97,8.61,1.22.63,2.19-.15,1.98,2.01-.23,2.38-.97,3.63-.89,6.64,0,.37-.08,2.46,0,2.56-1.07.46-2.11,1.53-3.19,1.92-.94.34-3.92.88-4.96.95-4.31.31-8.78-.99-12.93-1.91-.17-.12-.44-.23-.64-.32-.18-.08-.25-.26-.64-.32-.28-.05-.65.01-.96,0,.15-.69-.37-.69-.78-.96-1.12-.72-5.26-3.19-5.75-4.16-.53-1.05.09-2.76-.25-3.92l-8.73-15.23c-.36-.95-.13-1.89.07-2.82.86-3.92,3.35-4.35,2.97-9.33,0-.11.02-.22,0-.32.84-.34,1.08-1.04.96-1.92ZM91.31,110.57v.32c.21-.11.21-.21,0-.32ZM91.15,111.21c-.87-.93-2.93,4.25-2.89,5.26.08,2.26,1.67,1.54,1.92,1.78s-.57,3.23.97,3.5c-.62-2.33.42-4.47.96-6.71-1.16-.1-1.46,1.19-2.4,1.59-1.11-1.12,1.81-5.03,1.44-5.43ZM93.06,123.99c-1.87.22-.38,2.85.8,3.19l-.8-3.19Z"/>
  <path class="cls-13" d="M77.41,149.54c-.51-.15-2.29-.39-2.55.01-.66,1.01.6.88.84,1.05,1.52,1.07,1.24.58,2.99.86.5.08,2.98.82,3.19.64l.23.41c-1.43.61-3.63-.21-4.78-.03-.78.12-1.5,1.01-2.08,1.16-1.5.37-3.47-1.14-4.87-1.69-.11-.24,2.91-.66,2.88-1.92,0-.26-.63-.13-.65-.16-.18-.28.37-.96-.64-1.6-.86-.54-1.57-.3-2.56-.32,0-.47.12-1.58-.05-1.87-.21-.34-1.67-.69-1.23.27-.21-.11-.42-.22-.64-.32-.55-.25-.37-.93-2.01-.57s-1.36,1.7-1.52,1.84-.99-.24-1.38-.21c-.24.02-.43.22-.52.22-.21.01-.43-.02-.64,0-.47.04-1.69-.13-1.89.05-.09.08.05.59-.12.8-.36.47-1.38.4-.72,1.71.55,1.09,1.96-.18.16,2.55-1.25-2.11-7.8-3.35-6.71.17-.56.6-1.51-1.43-2.14-1.76-.45-.24-3.07-1.17-2.95-.18.21,1.83.8,1.25,1.26,1.78.06.07,0,.43.18.62.29.31.94.5.99.8.01.07-.19,1.38-.25,1.43-.08.08-2.17.36-2.36.34-.75-.07-1.54-1.19-2.55-1.23-.66-.02-3.54.77-3.69,1.4s2.51,1.76,3.04,1.79c1.05.06,2.04-.97,3.35-1.31v.64c-.83.17-1.8,1.19-1.92,2.08-.11.78.87.5,1.45.49,3.13-.03,2.23-.68,3.02-2.57.03-.07.61-.33.64-.64.25.07.86-.08.96,0,.02.02.02.53,0,.64-.02.16-.5.78-.32.96.1.1.81-.09.96,0,.06.04-.15.99.96.64.3.12,1.74.36,2.09.35.19,0,.68-.47,1.11-.67,2.94-1.41,3.9-2.23,7.35-1.92v.64c-.53.19-1.13.32-1.6.64-.21.02-.45-.03-.64,0-1.55.28-3.58,1.85-4.15,3.36-.27.71.65.48,1.07.43.47-.06,2.38-.06,2.12-.92.41-.12.47-.07.96-.32,1.8-.43,1.28,1.05,1.6,2.24.83.15,1.16-.62,1.59-.96.11-.08.49-.02.78-.33,1.21-1.29,1.39-2.3.5-3.82l3.03-.97c-.3,1.39.86,1.85,2.08,1.92.19.18-1.29,1.29-1.43,1.6-.95,2.13.51,1.33,1.04,1.66.22.14.09.74.86.89.33.07,2.75.37,2.41-.65.2,0,.45.03.64,0,.4-.06,1.18-.61,1.45-.57.23.04.61.93,1.19,1.28s1.9.67,2.6.56c.44-.07,2.76-.97,2.92-1.27.46-.89-.54-1.37-.49-2.23.2-.17,3.07.33,2.87-.96.11-.02.87.68.97-.48-.74-.24-.64-.78-.97-1.44-.85-1.7-1.36-.78-3.19-.96-.05-3.12,4.72-1.47,6.71-2.87.1-.02.22.02.32,0,1.4-.23,2.94-.4,4.35-.6,1.84-.27,3.7-.52,5.56-.67-.53.63-.94,1.66-1.46,2.22-.14.15-1.34,1.23-1.42,1.3-.07.06-.41.01-.62.2-.25.22-.32.75-.53.78-.12.01-1.82-.54-2.37-.66-.11-.02-.31-.41-.75-.35-.37.05-.16.63-.21.67-1,.9-2.93,1.04-2.07,2.87.55,1.18,1.46.22.47,1.92-.04.07-.44.13-.58.53-.35,1.02-.06,1.22.9,1.07,1.06,3.48,4.5.35,4.79.64.03.03-.07.54.12.83.61.95,2.45,1.35,3.49,1.02.39-.12.6-.6.88-.72.58-.23,1.3-.12,1.77-.47.77-.58.31-2.13.45-2.27.21-.21,3.95.04,2.56-2.55l1.59.32.33-2.88c1.42.53,2.95.73,4.47.64-.02-1.71-2.55-3.17-4.07-3.44-2.08-.36-3.99.5-4.24-2.63l9.58-3.99c-.66-.61-4.65-1.82-5.19-1.71-.6.12-4.29,2.93-5.77,3.52-1.57.62-3.2.91-4.85,1.23-.64-.81.7-.5.72-1.5,0-.09-.35-1.62-.4-1.69-.75-1.11-3.45-.44-3.66-.67-.06-.06,0-.84-.18-1.24-.72-1.53-2.96-.58-4.39-.99l-1.83,2.24s-.51-.03-.64,0c-.64-.68-1.84-.31-2.55,0l-.32-5.11c1.1-.14,2.13.18,3.2.32,10.1,1.37,20.19,2.94,30.35,3.83-.22,5.29-.9,10.55-1.29,15.83-.11,1.52-.14,2.92-.28,4.48-.16,1.68-.07,3.41-.35,5.09-.07.45.22.53-.47.48-1.29-.09-2.85-.53-4.16-.64-21.28-1.81-42.75-4.47-63.85-7.72-7.33-1.13-14.58-2.78-21.93-3.79-.53-.4,1.45-1.19,1.7-1.33,10.23-5.48,21.78-10.68,32.38-15.54.69-.32,2.16-1.46,2.66-1.66.77-.29,3.1-.76,3.82-.47,3.86,3.25,8.24,5.82,12.26,8.83.47.35.85.54.85,1.23Z"/>
  <path class="cls-9" d="M80.29,129.42c.19,4.14.85,8.28.61,12.43-2.22.35-4.89,1.29-5.73,3.54l-15.01-10.38c3.61-.21,2.32-1.25,2.95-3.76.55-2.2,3.26-.14,5.2-.21,4.36-.14,4.7-5.81,5.47-6.08,1.21-.42,3.5,2.13,5.1.96.71-.52.42-1.83,1.41-1.62.05,1.48-.07,2.99,0,4.47.01.21,0,.43,0,.64Z"/>
  <path class="cls-1" d="M72.62,81.82c.89.62,2.4,1.54,3.12,2.14.6.49.45.39.07,1.05-.1.04-.24-.04-.32,0l-.64.64c-1.75,1.43-1.76,2.16.64,2.56-.5.77-.75,1.82-1.28,2.55-.04.06-.56-.14-.65.16-.34,1.11.51.7.65.8s.25.28.32.32c.44.25.7,1.03,1.92.64-.08.55-.55.53-.96.64-.1.03-.22-.03-.32,0l-.16-.32-.48.32c-.05.06,0,1,0,1.28,0,.32-.02.64,0,.96l-.32,1.92c-.91,1.7-1.68,3.5-2.69,5.15-.16.25-.14.84-.66.6-1.02-.48-7.76-13.9-9.11-15.83-.08-.62.08-.38.4-.54,2.48-1.22,5.19-2.05,7.43-3.75.37-.52-1.46-.81-1.46-1.76,0-.73,1.37-1.57,2.02-1.4.15.04,1.98,1.54,2.46,1.87Z"/>
  <path class="cls-6" d="M49.93,68.72c-8.49-.59-17.16,4.46-20.29,12.46-3.52-4.63-3.9-5.9,0-10.22,3.28-3.64,9.19-7.02,14.09-7.64,3.99-.5,5.13,2.11,6.2,5.4Z"/>
  <path class="cls-5" d="M26.29,63.29c2.95-3.79,11.25-7.86,15.76-5.06.57.35,2.86,3.1,3.09,3.62.25.57-.2.41-.48.46-7.76,1.44-14,3.77-18.21,10.87-2.28-2.82-2.44-6.97-.16-9.9Z"/>
  <path class="cls-15" d="M61.44,147.31l-2.23,2.07c.88,1.19,2.14,1.22,3.51,1.12v.32c-.82.07-2.53.36-2.84,1.16-.41,1.09.48.58.82.85.24.19.25.71.63.84,1.13.4,3.33-.4,3.31-1.88.32-.05.42-.18.64-.32.08-.05.25.05.32,0-.85,2.07.16,2.81,2.24,2.56-.16.15.51.95-1.37.56-.93-.19-.83-.83-1.26-.99-1.42-.54-2.78,1.12-4.39.75-.1.61.25.86.8.95,3.2.58,7.22-.44,10.38-.96.18-.74-.14-.52-.41-.73-1.32-1.04-1.18-.03-2.16.29-.42.14-.6-.21-.63-.2.32-.35.96-.53.97-1.11.02-.92-1.25-.45-.97-1.44,1.57.07,2.93.21,3.83-1.28.02.03.64-.1.65.16.03,1.26-2.99,1.68-2.88,1.92,1.4.55,3.36,2.07,4.87,1.69.59-.15,1.3-1.04,2.08-1.16,1.15-.18,3.35.64,4.78.03l-.23-.41s-.08-.47.05-.59c.18-.16.7.22,1.03.19.48-.04.72-.53.83-.56,1.18-.3,1.15.9,1.49.98.75.17,1.86-.6,2.66-.66-.04.45.09.89.32,1.28-1.99,1.41-6.76-.25-6.71,2.87,1.84.18,2.35-.74,3.19.96-1.87-.77-3.91-.14-5.75.32,0-1.02.54-.49,1.12-.94.67-.53,1.31-1.88.5-2.43-.14-.09-3.09-.5-3.36-.47-1.43.19-2.33,2.23-1.77,3.52l1.27-.96c-.23,2.73.79,1.64,2.24,1.28,0,.99.59.33.64.96l-1.27.32c2.38.68,3.95.77,6.39.32.2,1.29-2.67.79-2.87.96-.04.87.96,1.34.49,2.23-.16.3-2.48,1.2-2.92,1.27-.7.11-2-.2-2.6-.56s-.96-1.25-1.19-1.28c-.27-.04-1.06.51-1.45.57-.19-.81.81-.82,1.28-1.28,1.52-1.48-.23-1.32.32-2.23-.62.05-1.31-.08-1.92,0-1.01.13-3.78,1.1-4.15,2.08-.21.57,1.56.83,1.84,1.35,1.98.78,1.72-.28,1.83-.24.09.04.11.32.16.32.34,1.01-2.07.71-2.41.65-.77-.15-.63-.75-.86-.89-.53-.33-1.99.46-1.04-1.66.14-.32,1.62-1.42,1.43-1.6-1.22-.08-2.38-.53-2.08-1.92l-3.03.97c.89,1.52.71,2.52-.5,3.82-.29.31-.67.25-.78.33.16-.1,1.63-3.15,1.28-3.51-1.81-.02-2.46,1.96-2.23,3.51.27-.05.84.08.96,0-.44.34-.76,1.11-1.59.96-.32-1.19.2-2.67-1.6-2.24,1.07-.54,2.05-1.53,2.87-2.4-.59-.26-1.58-.21-2.23-.16.47-.32,1.07-.45,1.6-.64.41-.15,1.16.1,1.28-.64-.42-.03-.86.03-1.28,0-3.45-.31-4.4.51-7.35,1.92.55-2.93,1.57-1.37,3.19-2.08.96-.42,1.44-1.97.46-2.68-1.59-1.15-1.34.25-1.89.93-.38.47-2.53,2.31-3.03,1.91,1.28-1.33-.18-.91-.33-1.5-.12-.49.07-1.16.01-1.69l1.12.96c.62-1.75,1.27.46,1.75,0,.05-.05.3-1.33.3-1.46-.08-1.8-4.82-1.82-5.07-.9-.11.42.44,1.03.16,1.41-.16.21-2.49.51-2.74,1.44-.13.47.97,1.37,1.46,1.44,1.07.15,1.91-.89,3.02-.65.12,1.13-1.58.58-2.26,1.41-.22.27-.45.92-.29,1.15.03.05.91.62.96.64-1.11.35-.9-.6-.96-.64-.14-.09-.85.1-.96,0-.18-.18.3-.79.32-.96l.32-.48-.32-.16c-.1-.08-.7.07-.96,0-1.56-.41-1.6-.42-3.19,0-1.31.34-2.3,1.37-3.35,1.31-.53-.03-3.19-1.15-3.04-1.79s3.03-1.42,3.69-1.4c1.01.04,1.81,1.16,2.55,1.23.19.02,2.27-.26,2.36-.34.05-.05.26-1.36.25-1.43-.05-.3-.7-.49-.99-.8-.17-.19-.12-.55-.18-.62.38.32,2.81.8,2.24-.48-.15-.32-2.44-1.24-2.55-1.12-.03.44-.02,1.31.32,1.6-.46-.52-1.05.05-1.26-1.78-.11-.99,2.5-.06,2.95.18.63.33,1.57,2.37,2.14,1.76-1.09-3.51,5.46-2.28,6.71-.17,1.8-2.73.39-1.46-.16-2.55-.67-1.32.35-1.24.72-1.71.16-.21.03-.72.12-.8.19-.18,1.42,0,1.89-.05ZM83,152.42v.32c.21-.11.21-.21,0-.32ZM85.4,152.42c-.35-.35-.98.29-.64.64s.98-.29.64-.64ZM41.63,155.62c.8,1.95,5.19.62,2.87-.48-1.12-.53-1.83.26-2.87.48ZM75.18,156.89c-.12-1.77-3.2-2.36-4.6-1.94-.31.09-.17.68-.38.95-.27.34-1.51.57-.44,1.46,1.36,1.14,4.43-.02,6.06.16l-1.59-.32.96-.32ZM81.52,161.64c.77-.45-.22-1.74-.8-2.15-1.44-.99-2.35-.35-3.93-.68-.61,1.37-.45,2.63,1.02,3.26,1.41.61,1.42,0,2.42-.31.42-.13,1.07,0,1.29-.13Z"/>
  <path class="cls-1" d="M42.27,96.83c1.48,3.04-2.74,2.08-2.87,4.79,1.77-.39,2.73-2.33,4.79-1.92,1.47,1.54,1.99,1.42,2.24,3.83-1,1.91-1.74,2.19-3.51,3.05-.46.22-.8-.06-.64.78,2.15.45,3.12-1.15,4.79-1.92,1.43,1.5,1.21,4.23-.53,5.38-4.56,3.02-10.5-4.19-10.97-8.41-.33-3,.29-6.78,4.01-6.89,1.5-.04,1.67.7,2.7,1.29Z"/>
  <path class="cls-14" d="M86.04,145.71c.41.28-.33.49,1.6.96.22,1.99-.52,1.43-.63,1.6-.13.19-.02.7.31.63l.32-.32c2,.11.48,1.94.32,2.56-.02.09,0,.21,0,.32-.8.06-1.91.83-2.66.66-.34-.08-.31-1.29-1.49-.98l-.96-1.28c-.29-1.18.59-.91.62-.97.09-.17-.58-.59-.63-1.11-.21-2.1.77-1.6,2.05-1.77.27-.03.43-.28.51-.3.12-.03.6-.02.64,0ZM87.79,149.23v.32c.21-.11.21-.21,0-.32Z"/>
  <path class="cls-1" d="M86.04,131.02c.44.28,1.9.99,1.28,1.6-.19.19-4.74.62-5.43.64l-.32-5.11c.69-.15,1.75,1.4,2.45,1.86.62.41,1.4.61,2.02,1.01Z"/>
  <path class="cls-12" d="M81.56,128.14l.32,5.11c.69-.02,5.24-.45,5.43-.64.62-.61-.84-1.32-1.28-1.6.74.02,1.49-.03,2.24,0,.31.01.67-.05.96,0l.64.32c.2.09.47.2.64.32.34.24,1.13.77.96,1.28-1.25.42-3.62-.18-4.57,0-.23.04-.26.92-1.35.95-.52.01-4.17-.45-4.29-.64-.08-.13.1-2.26-.02-3.02-.14-.88.33-.87-.94-.8,0-.21.01-.43,0-.64.75.38,1.11-.6,1.28-.64Z"/>
  <path class="cls-12" d="M111.59,130.7s.5-.08.59.04c.5.64-1.96,2.37-1.86,2.52.6.32,3.17,1.37,3.46,1.66.17.17,0,.47.05.58,1,.47,1.33.72,2.24,1.28l-.16.31c-1.05-.97-1.48-.17-2.08-1.59-.78-.37-2.34-.49-2.24-1.27h-.31c-.29,1.69-1.43.23-1.85,0-.71-.38-1.29.75-1.03-1.61,1.09-.39,2.12-1.45,3.19-1.92Z"/>
  <path class="cls-11" d="M55.05,133.89c2.45.96,4.56,1.79,6.39,3.83-1.73.54-6.21-2.25-6.39-3.83Z"/>
  <path class="cls-7" d="M77.41,149.54c1.26.37,3.47,1.4,1.28,1.92-1.76-.28-1.47.22-2.99-.86-.24-.17-1.5-.03-.84-1.05.26-.4,2.04-.16,2.55-.01Z"/>
  <path class="cls-11" d="M54.09,131.33c-.54-1.07-.76-2.64-.64-3.83.22-.3,3.05,5.15,3.19,5.6.05.16.09.52-.15.47-.19-.48-.98-.52-1.12-.64-.08-.07-1.23-1.51-1.28-1.6Z"/>
  <path class="cls-12" d="M42.27,96.83c.1.06.52-.11.61.02.22.3-.18,1.51.07,1.86.14.2.95.15,1.18.43.14.17.01.52.06.57-2.06-.41-3.03,1.52-4.79,1.92.14-2.71,4.35-1.75,2.87-4.79Z"/>
  <path class="cls-12" d="M75.49,82.14c1.12.05,1.13.48,1.6.64,0,.43-.18,2.02-.36,2.2s-.71-.04-.92.04c.38-.67.53-.56-.07-1.05-.73-.6-2.23-1.52-3.12-2.14,1.12.65,1.98.28,2.88.32Z"/>
  <path class="cls-12" d="M46.42,103.54s.31.16.26.41c-.06.27-.85.88-.57,1.18.03.04.6-.06.96.32-1.67.77-2.64,2.36-4.79,1.92-.16-.85.18-.56.64-.78,1.78-.86,2.51-1.14,3.51-3.05Z"/>
  <path class="cls-5" d="M49.93,120.47c.1.08.98,2.06,1.05,2.31.14.5.32.44-.25.88-1.79.41-2.14-4.21-.8-3.19Z"/>
  <path class="cls-12" d="M54.09,131.33c.05.09,1.2,1.53,1.28,1.6-.26.26-.36.6-.32.96-.16-.06-.55.13-.88-.07-.48-.29-1.19-1.94-.08-2.05v-.43Z"/>
  <path class="cls-11" d="M52.16,124.31c.28.23.84,2.04.64,2.55-.92.18-.51-.26-.72-.7-.22-.47-1.02-2.75.08-1.85Z"/>
  <path class="cls-12" d="M75.17,93.32c.1-.03.22.03.32,0-.17.39.3.82.32.96.02.1,0,.21,0,.32l-.64.32-.16-.97-.48.64c0-.28-.05-1.22,0-1.28.04-.06.45.05.64,0Z"/>
  <path class="cls-12" d="M74.22,97.47l.32-1.92c0,.1.43.44.34,1.1-.1.69-.61.72-.66.82Z"/>
  <path class="cls-16" d="M104.57,22.71c6.85,1.29,15.41,4.5,20.6,9.28,2.22,2.05-.33,1.74.17,4.46l1.91-1.6c.04.75.1,4,.36,4.43.16.26,4.68.91,5.24,1.64s-1.91,1.83-1.77,2.4c.97.63,1.46.91,2.24,1.76.31.34,1.36,1.83.96,2.23-.37.37-2.44-1.11-3.19-.64-.46,1.73.55,1.49.64,1.6s.03.59.31.83c.38.32.59-.19.64-.19.61,0,.52.02.96.32l.64.96c.09.12.23.2.32.32-.24,1.33.69,2.78,1.92,3.19.09.57-.03,1.3,0,1.92-.5.21-.5,1.39,0,1.6,0,.21.03.44,0,.64l-1.91-.32c-.22,1.85.05,1.24.64,1.6.13.08.21.24.32.32-.27.96.57,1.39.64,2.23-.86.08-1.83-.39-1.6.64-.32.01-.64-.03-.96,0-.8.07-3.09.3-2.88,1.28-.1.03-.22-.02-.32,0-1.54.36-1.23.55-2.88.32-.1-.01-.22.01-.32,0-.07,0-.19-.39-.7-.27-.22.05-1.63.74-1.96.91-.21.11-.2.6-.43.65-1.12.21-1.34-.62-2.06-1.11-.28-.19-.86-.14-.91-.19-.08-.08.26-1.76.31-2.22.01-.11-.01-.21,0-.32,1.06-.78.69-3.39.64-4.65-.02-.61.33-1.28-.64-1.1-.02-.21.01-.43,0-.64-.08-1.18.51-2.22-.96-1.92-.02-.1.03-.23,0-.32-.43-1.45-.37-1.86-1.92-2.24-7.55-1.84-18.18,3.38-17.91,11.98.03.94.61,1.24.66,1.44.12.52.13,1.07.32,1.6.4,1.1,1.17,3.49,2.24,4.15s2.12-.15,1.92.96c-2.29.3-4.61,1.22-6.68-.5s-3-7.01-4.82-.45c-2.28-.83-5.83-1.31-7.99,0-.76-1.32,1.87-4.8-1.28-3.19-.8.41-1.86,2.93-2.55,2.23-.45-.45,1.14-2.75,1.18-3.6.06-1.29-.64-3.09-.56-4.47l-1.26-1.51c-.1-.31-.21-.66-.32-.96-.06-.16.09-.5-.09-.87-.02-.05-.62-.43-.87-.73-.1-.11-.22-.21-.32-.32.36-2.31-.54-1.31-1.67-1.94-.56-.32-1.22-1.08-2.16-1.58-.2-.11-.65-.2-.96-.32-.11-.04.05-.15-.64-.32-.26-.06-1.21-.32-1.28-.32-1.01-1.18-2.95-.62-4.05.12-.16.11-.07.49-.11.52-.08.08-.87-.18-.64.64-.05.06.04.22,0,.32-1.51.44-.99,5.08-1.28,5.43-.54.11-.65-.13-.89-.54-.41-.72.01-2.16-1.03-2.01-.03-.2.03-.43,0-.64.54-2.06.54-4.97,0-7.03.04-.31-.05-.66,0-.96,1.2.23.89-2.24,1.32-2.51.15-.09,1.67-.11,1.88-.04.59.2,5.06,2.68,5.9,3.21,1.48.93,5.99,5.53,6.47,5.68,2.4.73,3.94-2.65,1.69-3.45.03-1.54.17-2.04-.96-3.19-.4-3.77-4.97-6.94-8.63-6.39.01.2-.04.44,0,.64-.77-.14-3.29.25-3.77.71-.17.16-.02.51-.06.57-.09.12-.27.23-.32.32-1.05.49-1.86.71-1.6-.64.03-.09-.03-.22,0-.32,2.29-.7-.72-2.37.32-3.51.06-.05.45-.71.64-.96.99-.86.98.29,1.28.32,2.13-2.99,4.28-6.01,7.2-8.3.59-.46,3.1-2.41,3.67-1.92-.07,1.09-1.58,1.29-.54,2.46l8.29,5.6c1.36.76,3.33-.29,4.26-1.33.34-.38.37-.88.45-.97,3.26-3.8,7.98-5.88,10.54-9.26.03-.04.66.13.65-.19,0-.65-.98-1.6.3-1.41ZM111.27,39.64c-.09-.22.04-.6-.3-.81-.81-.51-4.07.65-5.04,1.07-.67.29-2.3,1.58-2.55,1.61-.53.07-.69-.94-1.67-.09-.65.56-3.58,5.62-3.77,6.46-.24,1.04-.23,3.54.74,4.2,2.11,1.45,3.92-1.4,5.46-2.48,1.23-.85,3.03-2.05,4.36-2.67,1.81-.84,7.78-2.22,8.7-3.12,2.08-2.01-3.34-4.16-4.97-3.53-.6-.31-.47.58-.96-.64Z"/>
  <path class="cls-16" d="M126.61,80.86c.14.02.48.32,1.08.34.89.04,4.72-.4,4.93-.28.39.23,1.84,2.62,1.34,3.13-.97.12-1.76-.24-2.4-.96-.3.02-.18.53-.1.74.26.65,2.61,2.8,3.27,3.75,5.82,8.34,4.79,16.39-2.05,23.62-.76.98-2.83,1.07-2.88,2.24-.09.04-.23-.04-.32,0l-.32.32c-.09.04-.23-.04-.32,0-.91.37-.65-.06-1.6.96-.22.24-.24.55-.32.64-1.26,1.47-1.96,1.86-3.2,3.03-1.1,1.04-1.64,3.11-3.36,2.1s-.9-2.78-2.38-3.21c-.52,1.28.28,2.54.18,3.84l-2.74.31c-.05-.02-.51-.41-.96-.64l-.64-.64c.01-.76-.23-.62-.64-.96l.32-4.15c-1.9.11-.87,3.46-2.87,3.19-.04-.09.04-.23,0-.32-.18-.47-.62-.29-.64-.32-1.13-2.1-1.14-3.01-.24-5.19.54-1.31,1.43-2.06,1.9-3.21,1.8-4.36,1.45-6.96,5.37-10.77.11-.1.21-.22.32-.32s.21-.22.32-.32c.64-.55,2.17-.84,1.6-2.24-.38-.67-.88-1.58-.61-2.36.26-.72,1.3-.13,1.57-1.48.02-.1,0-.22,0-.32,1.22.4.37-1.65.64-1.92.17-.17,1.97.34,2.24-.32.21-.02.45.04.64,0,.36.53.77.22.96-.32,1.04-.6-.43-3.36-.32-3.51.43-.59,5.21-.81.64-3.84-.28-.88.8-.73,1.6-.64Z"/>
  <path class="cls-9" d="M128.53,5.14c.06,8.18,2.96,13.21,9.9,17.57.32.2.55.42.96.64-.21.91.48.53.64.64.83.56,1.83,1.1,2.56,1.6.68.47,2.76,2.03,3.19,2.56,2.47,2.99,2.39,7.92.92,11.3-2.05,4.7-6.26,7.29-10.66,9.46-.48-.48.43-.87.49-1.45.18-1.88-3.09-3.92-3.13-4.46-.05-.74,2.42-2.13-.39-3.52-1.68-.83-4.23-.32-4.4-2.32s1.95-1.54,3.25-2.67c.49-.43.36-.7.51-.91,1.15-1.68,1.48-2.6.22-4.36-.14-.19-.51-.08-.53-.11-.16-.18-.07-.44-.64-.96-.11-.1-.21-.22-.32-.32-.51-1.13-.17-1.05-1.28-1.6-.1-.05-.2-.24-.32-.32h-.32c-.52-2.28-1.31-2.07-2.24-3.51-.24-.37-.78-1.25-.96-1.6-.31-.6-1.77-4.17-1.92-4.79-.24-.97-.33-2.8-.32-3.83.01-.75.28-1.89.32-2.88,0-.11-.01-.21,0-.32.31-.12.25-.39.32-.64.27-1.03.79-2.6,1.28-3.51.42-.8,1.44-1.72,1.92-2.56.36-.04.63-.22.96-.32.01,1.06,0,2.13,0,3.19Z"/>
  <path class="cls-1" d="M118.62,122.71c.65-.1,1.4-.57,2.24-.32-.68,2.48-1.1,5-1.62,7.48-.21,1.01-1.54,2.08.19,2.74.02-2.38.79-4.44,1.7-6.61,1.94-4.66,6.21-11.77,11.4-6.17,1.03.15.05-.95.29-1.29.46-.66,2.31-.63,3.08-.48,1.82.37,2.2,1.32,2.92,2.83.45.94.32,2.84,1.37.86,1.77.88,2.25,2.08,2.4,3.99-.88.52-.61-.77-1.83-1.05-3.91-.89-5.38,6.83-.49,4.81.83-.34.5-.73,1.36-.72v.32c-1.07,1.35-1.38,2.9-1.92,4.47-.41,1.2-.81,1.55-.96,2.88-1.01.49-1.33,1.72-1.92,2.56-.22.31-.41.65-.64.96l-.32.32c-.13.16-.38.3-.64.64l-2.88,1.6c-.85.25-1.67.55-2.56.64-1.22.12-2.59-.09-3.83,0-.15-.06-.33-.21-.64-.32l-.64-.32c-.09-.03-.22.03-.32,0-.52-.51-1.23-1.03-1.92-1.28-.09-.03-.21.03-.32,0l-2.56-2.88c.04-.11.02-.49,0-.64l-.32-.32c-.08-.32-.26-.47-.32-.64-.18-.5.42-1.17-.64-.96-.12.9.45,2.17-.64,1.92-.5-.33-1.09-.64-1.6-.96-.9-.56-1.24-.81-2.24-1.28-.05-.11.12-.4-.05-.58-.3-.3-2.86-1.35-3.46-1.66-.1-.15,2.36-1.88,1.86-2.52-.09-.11-.54.01-.59-.04-.08-.1,0-2.18,0-2.56.99.19.54-.49.68-1.06.31-1.35.72-3.47,1.24-4.69.32,0,.64,0,.96,0,.21,0,.45-.03.64,0-.22.86.49.7,1.28.64.1,0,.21,0,.32,0h.96c.41-.06.74-.29.96-.32ZM130.01,125.79c3.56-3.39-1.46-8.03-3.79-3.63-1.8,3.41,1.34,5.95,3.79,3.63ZM134.83,120.85c-2.56.53-3.91,5.45-1.02,6.01,4.91.95,5.14-6.86,1.02-6.01ZM129.8,128.46c-.22.09-.42.24-.64.32-1.88.68-2.38.23-3.83,1.92-.1.12-.24.22-.32.32-1.07.17-1.48,1.29-1.6,2.24-.04.31.03,2.25.07,2.63.71,5.95,8.82,6.54,11.89,2.14.43-.61,1.37-3,1.46-3.68.1-.85-.27-1.38-.32-2.05-.01-.16.99-1.15-.32-.96-.02-.1.02-.22,0-.32-.03-.15-.17-.27-.32-.32-.23-.3-.44-.64-.64-.96-.13-.21-.37-1.04-.74-1.18-.48-.18-.76-.07-1.18-.1-.11,0-.21,0-.32,0-.51-.74-1.86-.82-2.67-.58-.39.12-.49.56-.53.58Z"/>
  <path class="cls-3" d="M93.06,33.57c-1.75-.22-2.11,1.57-3.91,1.22-.42-.08-6.98-4.11-7.19-4.48-.97-1.68,2.37-.19,2.8-1.53-4.26-1.01-4.34-6.35-5.11-9.91,2.03.2,3.79,1.9,5.1,3.36.27.3,2.58,4.02,3.2,3.35-1.21-2.6-1.56-3.75-.65-6.56,1.24-3.85,5.19-7.8,8.96-9.09-1.36,3.75-2.78,8.65.96,11.5.27-2.33.99-4.74,3.52-5.43.11,1.88.12,4.73,1.6,6.07,0,.1-.02.23,0,.32.24.99.81,1.15,1.28,1.92-2.56,3.38-7.28,5.46-10.54,9.26Z"/>
  <path class="cls-12" d="M126.93,115.36v1.6c.68.27,1.24-.56,1.6-.64,1.17-.23,2.78.87,3.35.83.26-.02.65-.51,1.27-.53,2.25-.07,4.14-.31,5.82,1.41.4.41.69,1.43.76,1.48,1.04.89.43-2.12.31-2.55l.96-.64c.04.15.52.42.62,1.12.33,2.12-.95,3.88,1.93,4.63-.44,1.42.23,3.36.01,4.25-.08.31-.71.37-.94.73-.53.82.08,1.75-.99,1.74-.86-.01-.53.37-1.36.72-4.9,2.02-3.42-5.69.49-4.81,1.23.28.96,1.56,1.83,1.05-.16-1.91-.64-3.1-2.4-3.99-1.05,1.97-.93.07-1.37-.86-.72-1.51-1.1-2.47-2.92-2.83-.76-.15-2.61-.18-3.08.48-.24.34.74,1.44-.29,1.29-5.2-5.59-9.46,1.51-11.4,6.17-.9,2.16-1.67,4.23-1.7,6.61-1.73-.65-.4-1.73-.19-2.74.53-2.48.94-5.01,1.62-7.48-.83-.25-1.58.22-2.24.32.06-2.62-.62-.62-1.09-.61-.76,0-1.43-.37-2.1-.67l2.74-.31c.09-1.3-.7-2.56-.18-3.84,1.47.43.7,2.22,2.38,3.21s2.26-1.06,3.36-2.1c1.25-1.17,1.94-1.56,3.2-3.03ZM140.95,125.62c-.51-.86-3.09.76-2.85,2.34.38,2.58,3.82-.72,2.85-2.34Z"/>
  <path class="cls-1" d="M136.83,109.93c.12.2.19.45.32.64.18.65-.4.67-.64.96-.9,1.1,1.82,2.26,2.56,3.19.25.78.74,1.46.96,2.24.12.43.72,3.45-.31,2.55-.06-.05-.36-1.07-.76-1.48-1.67-1.72-3.57-1.48-5.82-1.41-.62.02-1.01.52-1.27.53-.57.04-2.18-1.07-3.35-.83.03-1.38.94-1.3,1.92-1.92l.32-.32c.08-.05.24.05.32,0l.32-.32c.08-.05.24.05.32,0,.72-.43,2.28-1.17,2.24-1.92.07-.05.25.05.32,0l.32-.32c.72-.46,1.53-1.68,2.24-1.6Z"/>
  <path class="cls-1" d="M141.62,113.44c1.78.35,3.32.15,4.98.62.21.3-.4,2.83-.51,3.53l-1.28,2.88c-.41.17-1.16,1.21-1.28,1.6-2.89-.75-1.6-2.5-1.93-4.63-.11-.7-.58-.97-.62-1.12-.26-.94-.3-2.03-.96-2.88.26-.61,1.11-.1,1.6,0Z"/>
  <path class="cls-1" d="M120.22,91.72c-.27,1.35-1.31.76-1.57,1.48-.28.77.23,1.69.61,2.36-.02-.05-.6-.25-.78-.65-.31-.69-.19-1.89-.82-2.23-.81,1.32.34,3.6-.64,4.47-.28.25-1.03.39-1.28.64-.16-1.55-1.15-3.35-2.24-4.47.19-.46.27-1.09.32-1.6,2.11.75,4.31,1.11,6.39,0Z"/>
  <path class="cls-1" d="M141.62,64.56c-.96-2.48-4.79-2.33-7.03-2.24-.23-1.03.73-.56,1.6-.64-.07-.84-.91-1.27-.64-2.23,1.42,1.03,6.51,2.89,6.67,4.37.06.57-.53.62-.6.74Z"/>
  <path class="cls-1" d="M133.32,45.08c3.28,1.99,1.03,3.22-1.92,2.24.19.23.29.92.32.96.09.1.9.08.96.64-.05,0-.27.51-.64.19-.28-.24-.23-.72-.31-.83s-1.1.14-.64-1.6c.75-.47,2.83,1,3.19.64.4-.41-.65-1.9-.96-2.23Z"/>
  <path class="cls-12" d="M141.62,129.1c.71,1.33.88,1.85-.44,2.78-.29.2-.8.06-.84.1-.21.2,1.03,1.44-.64,1.6.54-1.57.84-3.12,1.92-4.47Z"/>
  <path class="cls-11" d="M126.61,80.86c-.79-.09-1.88-.24-1.6.64-.48-.32-2.15-.27-1.92-1.28,1.15-.02,2.53-.07,3.51.64Z"/>
  <path class="cls-12" d="M137.79,112.17c0,.08.31,1.51.37,1.57.12.13.72-.06.87.06.19.15-.03.7.04.93-.73-.93-3.46-2.1-2.56-3.19l1.28.64Z"/>
  <path class="cls-12" d="M104.57,22.71c-1.28-.18-.31.76-.3,1.41,0,.32-.63.15-.65.19-.47-.77-1.04-.93-1.28-1.92.77.18,1.44.17,2.24.32Z"/>
  <path class="cls-1" d="M123.1,89.16c-.26.66-2.07.15-2.24.32-.27.27.58,2.32-.64,1.92.07-.73-.05-1.5,0-2.24.94-.06,1.94.09,2.88,0Z"/>
  <path class="cls-12" d="M146.1,117.6s.35.23.27.7c-.03.18-.55,2.07-.62,2.15-.14.16-.74-.06-.93.02l1.28-2.88Z"/>
  <path class="cls-1" d="M134.6,50.51c.7.87,1.75,2.12,1.92,3.19-1.23-.41-2.15-1.87-1.92-3.19Z"/>
  <path class="cls-11" d="M76.77,92.36c.12.87-.12,1.57-.96,1.92-.02-.13-.49-.57-.32-.96.41-.11.88-.09.96-.64-1.21.39-1.47-.4-1.92-.64.74.25,1.45.35,2.24.32Z"/>
  <path class="cls-1" d="M136.51,57.86c-.03.21.02.43,0,.64l-1.6-.31.32.96c-.59-.36-.85.25-.64-1.6l1.91.32Z"/>
  <path class="cls-12" d="M140.03,113.44c-.05-.07-.6.17-.65-.16l.5-1.12c.91.03,1.12.81,1.74,1.28-.49-.1-1.34-.61-1.6,0Z"/>
  <path class="cls-12" d="M129.8,113.44c.04-1.16,2.11-1.26,2.88-2.24-1.19,1.26-1.12,1.52-2.88,2.24Z"/>
  <path class="cls-12" d="M133.96,111.85c.05.75-1.51,1.48-2.24,1.92.03-1.15,1.63-1.52,2.24-1.92Z"/>
  <path class="cls-11" d="M137.79,111.85c0,.11,0,.21,0,.32l-1.28-.64c.24-.29.82-.31.64-.96.28.4.68.64.64,1.28Z"/>
  <path class="cls-12" d="M136.83,109.93c.1.01,1.27.73,1.3.85.13.56-.35,1.01-.35,1.06.04-.64-.36-.87-.64-1.28-.13-.19-.2-.44-.32-.64Z"/>
  <path class="cls-11" d="M74.22,90.76v.96c-.14-.1-.99.31-.65-.8.09-.3.61-.1.65-.16Z"/>
  <path class="cls-1" d="M124.69,88.84c-.19.54-.6.85-.96.32.05,0,.91-.29.96-.32Z"/>
  <path class="cls-1" d="M136.51,57.22c-.5-.21-.5-1.39,0-1.6.02.52.02,1.07,0,1.6Z"/>
  <path class="cls-12" d="M128.85,113.76c-.28.64-.95.88-1.6.96.95-1.02.69-.59,1.6-.96Z"/>
  <path class="cls-12" d="M143.22,128.14h-.31c-.16-1.33.47-1.33.31,0Z"/>
  <path class="cls-1" d="M134.28,50.19l-.64-.96c.72.49.47.74.64.96Z"/>
  <path class="cls-12" d="M130.44,114.4c.07-.04.15-.22.32-.32l-.32.32Z"/>
  <path class="cls-12" d="M131.08,114.08c.07-.04.15-.22.32-.32l-.32.32Z"/>
  <path class="cls-12" d="M129.17,113.76l.32-.32s-.08.22-.32.32Z"/>
  <path class="cls-12" d="M134.28,111.85c.11-.07.19-.24.32-.32l-.32.32Z"/>
  <path class="cls-12" d="M74.85,85.65l.64-.64s-.39.43-.64.64Z"/>
  <path class="cls-9" d="M62.71,44.12c-2.31-.66-4.44-3.58-5.27-5.76-4.29-11.23,8.01-13.79,11.61-22.24,2.25-5.27.75-7.12.67-12.09-.02-1.16,1.61.38,1.93.72,5.35,5.83,3,15.2-.65,21.23-1.2,1.98-2.8,2.5-2.86,5.35,0,.36-.07.99,0,1.28.1.41.58.77.96.96.05.19.32.3.17.64-.09.2-2.41,3.06-2.71,3.37-1.03,1.06-3.79,2.14-4.25,3.1-.86,1.79.9,2.01,1.04,2.67.11.52-.54.63-.63.77Z"/>
  <path class="cls-11" d="M66.87,41.88c-.4,1.16-1.56,2.64-2.06,4.17-.37,1.12-.36,2.52-.74,3.42-.31.75-.53.31-1.04.07,0-.32-.03-.65,0-.96.26-2.87.53-2.93,2.05-5.15.22-.32.15-.89.18-.92.05-.05,1,.15,1.18-.63h.42Z"/>
  <path class="cls-16" d="M66.87,40.92c0,.21.01.43,0,.64,0,.11.03.24,0,.32h-.42c-.18.79-1.12.59-1.18.64-.34,0-.69-.27-.96-.32-.62-.88-.37-1.44.64-1.6.92-.14,1.21.07,1.92.32Z"/>
  <path class="cls-1" d="M67.83,38.69c-1.03,1.15,1.97,2.81-.32,3.51.16-.53.33-.61,0-.96-.27-.28-.36-.22-.64-.32-.71-.25-1-.46-1.92-.32v-.32c.71-.43,2.43-1.2,2.88-1.6Z"/>
  <path class="cls-11" d="M68.46,37.73c.12-.16,1.34-2.86,1.92-2.23l-.64,2.55c-.3-.03-.29-1.18-1.28-.32Z"/>
  <path class="cls-11" d="M64.95,40.28v.32c-1.01.16-1.26.71-.64,1.6-.64-.13-1.41.29-.96-1.06.14-.44,1.24-.64,1.6-.86Z"/>
  <path class="cls-8" d="M68.15,32.62c.63-.19.83.44.96.96-.37-.19-.85-.54-.96-.96Z"/>
  <path class="cls-4" d="M144.5,161.36h-3.19s.64,2.56.64,2.56c-6.45.75-11.14-2.83-8.94-9.58.72.04,1.12.61,1.83.89,3.46,1.38,8.73,1.6,9.67,6.14Z"/>
  <path class="cls-4" d="M133.92,152.14c1,1.24-.83,1.19-1.23,1.4-1.02.52-.83,2.82-1.46,3.66-.98,1.31-5.94,1.56-7.5.97l1.28-2.87-3.51.32c-.05-3.98,11.48-4.64,12.42-3.47Z"/>
  <path class="cls-12" d="M122.14,141.24c-1.22-.29-2.16.17-2.9-1.11s.16-1.22.34-1.77l2.56,2.88Z"/>
  <path class="cls-12" d="M129.8,143.16c.41,1.03-2.44.74-3.22.49-.32-.1-.5-.45-.61-.49,1.24-.09,2.62.12,3.83,0Z"/>
  <path class="cls-12" d="M138.75,136.45c0,.06.18.35.15.68-.07.87-1.13,1.84-2.07,1.88.59-.83.9-2.07,1.92-2.56Z"/>
  <path class="cls-12" d="M117.66,137.72c1.09.26.52-1.02.64-1.92,1.06-.22.46.45.64.96l-.26.21-.06,1.38c-.68.23-.71-.48-.96-.64Z"/>
  <path class="cls-12" d="M124.37,142.52c-.88-.25-1.54.27-1.92-1.28.68.25,1.4.76,1.92,1.28Z"/>
  <path class="cls-12" d="M135.24,140.92c-.05.06.11.42-.05.57-.18.17-.91.16-1.32.38-.8.43-.25.27-1.5.64l2.88-1.6Z"/>
  <path class="cls-12" d="M125.33,142.84c-.31-.11-.59-.3-.64-.32l.64.32Z"/>
  <path class="cls-12" d="M119.58,137.72c0-.06-.28-.18-.32-.32l.32.32Z"/>
  <path class="cls-12" d="M135.87,140.28l.32-.32c-.09.12-.23.21-.32.32Z"/>
  <path class="cls-8" d="M138.43,22.71c1-1.53,1.4-.3,1.84-.01,1.2.78,2.53,1.43,3.59,2.41l-1.27.47c-.72-.5-1.72-1.04-2.56-1.6.2-.96-.41-.51-.64-.64-.41-.22-.63-.44-.96-.64Z"/>
  <path class="cls-8" d="M126.61,1.63c3.6-1.95,3.08-.03,2.88,3.36-.06.95-.54.4-.96.15,0-1.06,0-2.13,0-3.19-.33.1-.6.28-.96.32-.31.03-.64-.02-.96,0,0-.21-.03-.43,0-.64Z"/>
  <path class="cls-4" d="M20.21,146.05c.99,1.39-3.37,4.07-4.76,4.31-1.29.22-6.09-.29-6.41-1.62-.2-.83,1.5-.92,1.61-1.32.39-1.38-1.13-1.15-.97-1.87.96-2.35,10.07-.15,10.53.49Z"/>
  <path class="cls-4" d="M34.28,134.85c-.55-.02-2.1-.15-2.23.49-.13.59,1.62.96.96,1.75-.37.44-3.56.69-4.31.64-1.72-.13-6.71-2.21-6.26-4.27.11-.48,5-1.84,5.92-1.8,1.82.08,5.47,1.17,5.92,3.2Z"/>
  <path class="cls-8" d="M125.65,4.82c-.49.92-1,2.48-1.28,3.51-.31.1-.29.37-.32.64-.01.1,0,.21,0,.32-2.07-.16.21-4.05.82-4.77s.39-.04.78.3Z"/>
  <path class="cls-8" d="M125.81,2.9c.21.11.21.21,0,.32v-.32Z"/>
  <path class="cls-1" d="M68.78,53.38c-1.24,3.37-.92,9.19.95,12.31.69,1.15,1.74,1.74,2.12,3.05,3.38-.89,6.33-.15,9.68.26.46-1.5,1.17-1.93,1.32-3.63.23-2.65-.18-3.87-.97-6.24l1.26,1.51c-.09,1.38.62,3.18.56,4.47-.04.86-1.63,3.16-1.18,3.6.7.69,1.75-1.83,2.55-2.23,0,1.34-1.39,2.04-1.91,2.81-.22.33-.09,1.25-.54,1.36-1.78.44-4.53-.4-6.35-.65-2.36-.32-3.36.2-5.69-1.33-.9-.59-1.15-1.4-1.73-1.87-.48-.38-1.37-.51-1.59-.71-.37-.35-.79-2.75-1.04-3.43.78.54.71.34.63-.47-.18-2.02-.98-3.94-1.27-5.92,1.04-.15.62,1.29,1.03,2.01.23.41.35.65.89.54.29-.35-.23-4.99,1.28-5.43Z"/>
  <path class="cls-11" d="M65.91,62.01c-.55.04-1.11-.28-1.6-.32-.1-.71-1.93-3.54.14-2.86.43.14,1.23,2.58,1.45,3.18Z"/>
  <path class="cls-1" d="M65.59,55.62c-.36-2.76-.32-4.27,0-7.03.54,2.06.54,4.97,0,7.03Z"/>
  <path class="cls-8" d="M125.97,20.8c.18.34.72,1.23.96,1.6-.13.46-.9.91-1.28.64-.21-.15-1.37-3.04.32-2.24Z"/>
  <path class="cls-15" d="M131.4,28.14c-.11-.09-.26-.19-.32-.32.11.1.21.22.32.32Z"/>
  <path class="cls-15" d="M129.8,26.23l-.32-.32c.12.08.22.27.32.32Z"/>
  <path class="cls-8" d="M101.51,80.03c-3.06,3.45-8,5.97-12.11,2.42-.6-.52-1.46-1.93-1.77-2.08-.34-.16-.78.13-1.06.05-1.46-.41-1.35-1.65-2.16-2.25-.99-.74-3.45-.93-3.49-2.89.83-1.18,1.8.67,2.58,1.25,4.19,3.09,3.97.35,7.49.17,3.43-.17,7.59,1.75,11.22-.25,1.19.01,3.68-3.12,4.41-2.93,2.48.66-2.82,3.5-3.02,3.69-.5.47-1.31,1.93-2.12,2.83ZM89.87,81.81c2.66.97,4.98,1.54,7.65.15.49-.26,2.88-2.27,2.88-2.54,0-1.51-5.72-1.24-6.78-1.04-1.52.29-3.75,1.73-3.75,3.43Z"/>
  <path class="cls-1" d="M121.5,61.69c-.05.46-.39,2.14-.31,2.22.05.05.64,0,.91.19.72.49.94,1.32,2.06,1.11.23-.04.22-.53.43-.65.33-.17,1.73-.86,1.96-.91.5-.12.63.26.7.27-.9.43-1.8.81-2.65,1.34-1.6,1-4.5,3.65-6.06,4.17-.73.24-4.09.56-4.87.56h-4.79c-.23,0-2.24.54-3.04.64.21-1.11-.87-.3-1.92-.96,2.13-.45,4.43-1.35,6.59-1.56,1.38-.13,6.52.23,7.18-.19.4-.25.04-.85.17-1.14.21-.48,1.4-1.32,1.85-1.94.79-1.08,1.06-2.13,1.79-3.17ZM106.64,69.68v.32c.21-.11.21-.21,0-.32Z"/>
  <path class="cls-8" d="M104.25,85.65v.64c-1.12.24-2.99,1.67-4.47,2.08-6.02,1.69-10.06.28-15.34-2.56,3.01-.99,5.92,1.75,8.79,1.76,3.23,0,7.8-1.18,11.02-1.92Z"/>
  <path class="cls-8" d="M94.34,69.68c-.18.64.29,1.13-.46,1.94-.25.26-3.86,2.25-4.15,2.23-.35-.03-3.69-2.29-3.85-2.57-.49-.8-.18-1.2.48-1.6,2.16-1.31,5.71-.83,7.99,0Z"/>
  <path class="cls-15" d="M104.25,85.65c1.3-.3,7.52-2.57,8.31-1.59.59.74-5.83,2.09-6.27,2.19-.66.15-1.47-.08-2.03.04v-.64Z"/>
  <path class="cls-15" d="M92.74,94.6c.18.73-.12.52-.4.73-2.61,1.96-3.75-2.83-1.67-4.25.19,1.79-.8,4.53,2.07,3.51Z"/>
  <path class="cls-1" d="M130.44,63.61c.06,1.12-2.95,2.02-2.88.32,1.64.23,1.34.04,2.88-.32Z"/>
  <path class="cls-1" d="M133.64,62.33c-.77.87-1.87,1-2.88,1.28-.22-.98,2.08-1.2,2.88-1.28Z"/>
  <path class="cls-7" d="M43.26,77.69c-.06.1-.06.89-.03.92.41.44,4.68-.12,4.14,2.05-.3,1.2-3.49-.78-4.45-.44.27,1.12-.75,1.74-.94,2.16-.27.6-.57,3.14-1.46,2.94-2.02-.71.8-5.43.47-5.75-1.07-.25-1.87,1.22-2.74,1.29-.49.04-2.19-.74-1.73-1.28.27-.33,7.04-3.73,7.6-3.78,1.23-.1,1.31.66.37,1.36-.34.26-1.2.47-1.23.52Z"/>
  <path class="cls-7" d="M50.8,86.39c1.97,1.73,2.05,5.75-.43,7.2-3.4,1.99-6.22-.46-7.12-3.76l6.39-3.71c.41-.2.85-.02,1.17.26ZM46.51,92.26c2.31,1.84,5.42-1.56,3.43-3.91-.33-.26-4.12,1.75-4.34,2.08-.26.41.67,1.64.9,1.83Z"/>
  <path class="cls-7" d="M59.52,103.22c.68,2.33-5.63,3.21-4.64,5.42,1.3,2.91,5.52-1.75,7.01-1.6.29.03.64,1.38.49,1.58-.17.23-4.49,2.41-5.01,2.5-3.28.62-5.08-2.02-3.6-4.81.41-.76,5.19-3.67,5.75-3.1Z"/>
  <path class="cls-7" d="M64.85,115.26c-2.82,2.55-4.52-1.63-5.2-1.79-.47-.11-3.31,1.96-3.28.18.02-1.05,1.21-.97,1.84-1.36,1.45-.9,4.64-3.73,5.91-2.02.85,1.14,1.99,3.84.72,4.98ZM62.31,111.89c-2.44.34-.14,3.41,1.38,2.37.92-.63-.2-2.53-1.38-2.37Z"/>
  <path class="cls-7" d="M54.73,97.47c-.33-.32.5-2.63-1.92-1.92.12,2.68.36,5.84-3.34,5.11-1.67-.33-2.63-5.41-.65-4.78.76.24.08,4.17,2.1,2.74.68-.48-.22-4.08,1.25-4.82,1.96-.98,5.12,1.81,4.02,3.38-.24.34-1.34.41-1.45.3Z"/>
  <path class="cls-7" d="M48.6,84.32c-.17.3-5.5,3.3-6,3.43-1.12.28-1.32-1.05-.64-1.61,1.21-.26,5.46-3.88,6.39-3.22.36.31.47,1.02.25,1.4Z"/>
  <path class="cls-8" d="M51.21,83.74l6.07,11.5c-.74.18-1.04-.88-1.33-1.38-1.83-3.19-3.44-6.52-5.36-9.66l.62-.46Z"/>
  <path class="cls-8" d="M40.99,90.76l-5.43-9.58c.54-.53,2.39,2.9,2.61,3.3,1.06,1.89,2.2,4.24,2.82,6.28Z"/>
  <path class="cls-8" d="M117.66,97.79c-.11.1-.21.22-.32.32l-.32.32c-3.92,3.81-3.57,6.41-5.37,10.77-.47,1.15-1.37,1.9-1.9,3.21-.9,2.18-.88,3.09.24,5.19l.64.32c.04.09-.04.23,0,.32.06.14-.04.44,0,.64.59.2,1.32-.34,1.73-.33.2,0,.19.48.29.53.26.13.51.1.53.11.41.33.65.2.64.96,0,.03-.32.13-.32.31.35,0,.66.17.96.33.45.23.91.62.96.64.67.3,1.34.67,2.1.67.47,0,1.15-2.01,1.09.61-.22.03-.54.26-.96.32-.06,0-.82,0-.96,0-.11,0-.21,0-.32,0-.3-.48-.77-.56-1.28-.64-.19-.03-.43,0-.64,0-.32-.36-.71-.58-.96,0-.52,1.22-.93,3.33-1.24,4.69-.13.58.31,1.25-.68,1.06-.07-3.01.67-4.26.89-6.64.21-2.17-.76-1.38-1.98-2.01-3.69-1.91-3.79-5.08-1.97-8.61.46-.89,1.31-1.53,1.68-2.47,1.78-4.52,1.59-6.74,5.53-10.61.25-.24,1-.39,1.28-.64l.64.64Z"/>
  <path class="cls-15" d="M91.15,111.21c.37.39-2.55,4.3-1.44,5.43.94-.4,1.23-1.69,2.4-1.59-.54,2.24-1.58,4.37-.96,6.71-1.54-.28-.71-3.26-.97-3.5s-1.84.48-1.92-1.78c-.04-1.01,2.02-6.19,2.89-5.26Z"/>
  <path class="cls-15" d="M93.06,123.99l.8,3.19c-1.18-.34-2.67-2.96-.8-3.19Z"/>
  <path class="cls-8" d="M89.87,131.33l-.64-.32c.39.06.46.24.64.32Z"/>
  <path class="cls-15" d="M91.31,110.57c.21.11.21.21,0,.32v-.32Z"/>
  <path class="cls-15" d="M86.04,145.71l1.83-2.24c1.43.41,3.67-.55,4.39.99.19.4.13,1.19.18,1.24.21.22,2.91-.44,3.66.67.05.07.4,1.61.4,1.69-.02.99-1.35.68-.72,1.5,1.65-.31,3.28-.6,4.85-1.23,1.49-.59,5.18-3.4,5.77-3.52.54-.11,4.53,1.1,5.19,1.71l-9.58,3.99c.25,3.12,2.16,2.26,4.24,2.63,1.51.26,4.05,1.73,4.07,3.44-1.51.09-3.05-.11-4.47-.64l-.33,2.88-1.59-.32c1.39,2.6-2.35,2.34-2.56,2.55-.14.14.33,1.69-.45,2.27-.47.35-1.19.23-1.77.47-.28.11-.5.6-.88.72-1.04.33-2.88-.07-3.49-1.02-.19-.29-.09-.8-.12-.83-.29-.29-3.73,2.84-4.79-.64-.03-.09.02-.21,0-.32,1.45.56,1.14,1.91,3.13,1.03.42-.18.6-.66.71-.72.5-.27,1.09-.38,1.59-.64-.17,1.4.19,2.12,1.59,2.43,1.53.34,1.23-.34,2.17-.76.54-.24,1.65.31,1.61-.92-.02-.99-1.36-1.04-1.85-1.7.06-.01.18-.27.46-.28,1.7-.05,4.66,1.51,4.01-1.8-.28-1.44-2.71-.58-3.83-.8-.05-.54.71-.26.92-.84.08-.23.12-1.23.04-1.39.03.04.56-.15.65.21.32,1.25-.8,1.59,1.59,1.38-1.66-1.93.78-3.99-1.76-5.42-.57.77-2.23,1.79-2.4,2.71-.2,1.07,1.11-.04,1.62.3.27.18.22.72.31.82-.15-.33-4.19-.84-4.79-.32-.28.24-.83,2.06-.64,2.56-.83-.9-2.28-1.13-2.88-2.24.54.11,2.24.67,2.37.66.21-.02.28-.55.53-.78.21-.19.54-.14.62-.2.08-.07,1.28-1.15,1.42-1.3.52-.56.93-1.59,1.46-2.22-1.86.15-3.71.4-5.56.67-1.41.21-2.95.37-4.35.6l.64-1.28c2.37,1,2.13.23,4.48,0,.26-2.7-5.25-3.92-4.79-.32-.23-.08-.67.05-.96,0,.16-.62,1.68-2.44-.32-2.56-.35-.02-.3.32-.32.32-.34.06-.44-.45-.31-.63.12-.17.85.39.63-1.6.29.07.61.32.96.32,0,.32-.02.64,0,.96.32.03.64-.03.96,0,.21.02.43,0,.64,0,1.7,1.09,3.91,1.74,5.6.32-.54-2.81-2.59-2.06-4.64-1.28l-.32-.16c1.39-.57.93-1.4.96-2.72-.1-.1-2.42.22-2.56.32-.22-.9-1.41-.59-1.76,0-.57.95.14,1.55.16,1.92,0,.11-.01.21,0,.32-1.92-.47-1.19-.67-1.6-.96ZM105.2,157.85c.21-1.76-.83-3.66-2.55-4.15-.36,2.09.42,3.72,2.55,4.15ZM109.36,155.93c-1.18-1.72-3.01-2.56-5.11-2.23.99,1.82,3.21,2.17,5.11,2.23Z"/>
  <path class="cls-14" d="M51.85,157.85c-.16-.23.07-.87.29-1.15.68-.83,2.38-.28,2.26-1.41-1.11-.24-1.94.8-3.02.65-.49-.07-1.58-.97-1.46-1.44.25-.93,2.58-1.23,2.74-1.44.28-.38-.27-.99-.16-1.41.24-.92,4.98-.9,5.07.9,0,.13-.24,1.41-.3,1.46-.49.46-1.13-1.76-1.75,0l-1.12-.96c.06.53-.13,1.21-.01,1.69.14.59,1.6.16.33,1.5.5.4,2.65-1.45,3.03-1.91.55-.68.31-2.08,1.89-.93.98.71.5,2.26-.46,2.68-1.62.71-2.64-.85-3.19,2.08-.43.21-.92.67-1.11.67-.35,0-1.78-.23-2.09-.35-.05-.02-.92-.59-.96-.64Z"/>
  <path class="cls-14" d="M72.62,149.86c-.91,1.49-2.27,1.35-3.83,1.28-.28,1,.99.52.97,1.44-.01.58-.65.76-.97,1.11-.33.05-.7.08-.96.32-2.07.26-3.08-.49-2.24-2.56.03-.02-.15-.47.19-.67.47-.28,1.57-.2,1.72-.31.11-.08-.04-.48.01-.62.05-.12-.12-.4.05-.58.07-.07,1.61-.65,1.87-.7.75-.15,1.79.25,2.56-.32,1.01.64.46,1.32.64,1.6Z"/>
  <path class="cls-14" d="M67.51,146.03c.22.1.43.21.64.32.11.06.53-.1.61.01.41.55-.26,2.1-.94,2.39-.76.33-1.87-.98-1.59.79-.42-.43-3.31-.12-3.51.32-.06.13.04.45,0,.64-1.38.1-2.63.07-3.51-1.12l2.23-2.07c.21-.02.43.01.64,0,.21.45,2.1,1.08,2.23.96.08-.07-.05-1.3.84-1.88,1.02-.67,1.58.13,2.36-.35Z"/>
  <path class="cls-14" d="M79.01,156.89c-1.45.36-2.47,1.45-2.24-1.28l-1.27.96c-.56-1.29.34-3.34,1.77-3.52.27-.04,3.22.37,3.36.47.81.55.18,1.9-.5,2.43-.58.46-1.13-.08-1.12.94,1.84-.46,3.89-1.09,5.75-.32.33.66.23,1.19.97,1.44-.1,1.16-.85.46-.97.48-2.44.45-4,.36-6.39-.32l1.27-.32c-.05-.62-.63.04-.64-.96Z"/>
  <path class="cls-4" d="M92.11,155.3c.6,1.1,2.04,1.33,2.88,2.24.13.14.19.46.32.64-.27-.03-.92.24-1.28.32-.27.06-.65-.05-.96,0,.02.21-.04.45,0,.64-1.39.02-2.82.36-3.39-1.25-.42-1.2,1.73-.37,1.47-2.27.05-.04-.17-.62.21-.67.45-.06.65.33.75.35Z"/>
  <path class="cls-14" d="M73.9,158.17c0,1.13.62,1.85,1.6,2.24-.47.46-1.47.47-1.28,1.28-.19.03-.44,0-.64,0-.05,0-.07-.28-.16-.32-.1-.05.16,1.02-1.83.24-.28-.51-2.05-.78-1.84-1.35.37-.98,3.14-1.95,4.15-2.08Z"/>
  <path class="cls-6" d="M61.76,157.53c.65-.06,1.64-.1,2.23.16-.83.86-1.8,1.85-2.87,2.4-.49.25-.55.2-.96.32-.46.14-.87.45-1.43.32-.73-1.77,2.18-1.7,2.39-3.2.19-.03.43.02.64,0Z"/>
  <path class="cls-15" d="M49.62,156.89c-.79,1.89.1,2.54-3.02,2.57-.59,0-1.56.29-1.45-.49.12-.88,1.09-1.91,1.92-2.08.72-.15,1.78.1,2.56,0ZM48.66,157.53c-1.32-.12-2.15-.14-2.55,1.27,1.08.1,2.5.13,2.55-1.27Z"/>
  <path class="cls-15" d="M91.15,155.62c.26,1.9-1.89,1.07-1.47,2.27.57,1.6,2,1.26,3.39,1.25,0,.04.47.19.32.64-1.33-.2-2.32.21-3.51.64h-.32c.99-1.7.07-.74-.47-1.92-.85-1.83,1.08-1.97,2.07-2.87Z"/>
  <path class="cls-15" d="M61.12,157.53c-.21,1.5-3.12,1.43-2.39,3.2.56.12.98-.19,1.43-.32.26.86-1.65.86-2.12.92-.42.05-1.34.28-1.07-.43.56-1.51,2.6-3.08,4.15-3.36Z"/>
  <path class="cls-15" d="M68.15,146.35c-.44-.96,1.02-.61,1.23-.27.17.28.05,1.4.05,1.87,0,.21,0,.43,0,.64-.26.05-1.8.63-1.87.7-.17.18,0,.46-.05.58-1.74.77-1.11-.14-1.28-.32-.28-1.77.82-.46,1.59-.79.68-.29,1.36-1.85.94-2.39-.08-.11-.5.04-.61-.01Z"/>
  <path class="cls-15" d="M67.51,146.03c-.78.49-1.34-.32-2.36.35-.88.58-.76,1.81-.84,1.88-.13.12-2.03-.51-2.23-.96.09,0,.28-.2.52-.22.39-.03,1.22.36,1.38.21s-.1-1.49,1.52-1.84,1.46.33,2.01.57Z"/>
  <path class="cls-4" d="M50.25,156.25c-.03.31-.61.57-.64.64-.78.1-1.84-.15-2.56,0v-.64c1.59-.42,1.64-.41,3.19,0Z"/>
  <path class="cls-7" d="M71.98,148.27c-.77.57-1.8.17-2.56.32,0-.21,0-.43,0-.64.99.02,1.7-.22,2.56.32Z"/>
  <path class="cls-8" d="M88.91,151.14c.13.04.23.28.32.32l-.64,1.28c-.1.02-.22-.02-.32,0-.23-.39-.36-.83-.32-1.28,0-.11-.02-.23,0-.32.28.05.73-.08.96,0Z"/>
  <path class="cls-8" d="M89.87,160.41c-.28.53-.1.81,0,1.28.02.11-.03.23,0,.32-.96.15-1.24-.05-.9-1.07.14-.4.54-.46.58-.53h.32Z"/>
  <path class="cls-9" d="M63.35,156.25c.42.04.86-.03,1.28,0-.12.74-.87.49-1.28.64v-.64Z"/>
  <path class="cls-4" d="M51.21,156.89c.02-.11.02-.62,0-.64l.32.16-.32.48Z"/>
  <path class="cls-11" d="M75.17,93.32c-.18.05-.6-.06-.64,0l.48-.32.16.32Z"/>
  <path class="cls-14" d="M81.52,161.64c-.22.13-.87,0-1.29.13-.99.32-1.01.92-2.42.31-1.47-.63-1.63-1.89-1.02-3.26,1.57.33,2.49-.31,3.93.68.59.4,1.57,1.69.8,2.15Z"/>
  <path class="cls-14" d="M75.18,156.89l-.96.32,1.59.32c-1.64-.18-4.7.98-6.06-.16-1.07-.89.18-1.11.44-1.46.21-.28.07-.86.38-.95,1.4-.42,4.48.17,4.6,1.94Z"/>
  <path class="cls-9" d="M68.78,153.7s.21.34.63.2c.98-.32.84-1.34,2.16-.29.26.21.59,0,.41.73-3.17.52-7.18,1.54-10.38.96-.55-.1-.9-.34-.8-.95,1.61.38,2.97-1.28,4.39-.75.43.16.33.8,1.26.99,1.88.39,1.21-.41,1.37-.56.25-.24.63-.27.96-.32Z"/>
  <path class="cls-4" d="M62.71,150.82c.42-.04.86.02,1.28,0,.12.52-.85.29-.96.95.51-.04,1.1.07,1.6,0,.02,1.48-2.19,2.28-3.31,1.88-.37-.13-.39-.65-.63-.84-.34-.27-1.23.24-.82-.85.3-.8,2.02-1.08,2.84-1.16Z"/>
  <path class="cls-6" d="M64.31,161.37c-.12.08-.69-.05-.96,0-.23-1.56.43-3.54,2.23-3.51.35.36-1.12,3.41-1.28,3.51Z"/>
  <path class="cls-14" d="M41.63,155.62c1.04-.22,1.75-1.01,2.87-.48,2.32,1.1-2.07,2.44-2.87.48Z"/>
  <path class="cls-11" d="M73.9,158.17c.6-.08,1.3.05,1.92,0-.55.92,1.2.75-.32,2.23-.98-.39-1.59-1.11-1.6-2.24Z"/>
  <path class="cls-11" d="M62.71,149.86c1.1-.42,1.21.5,1.53.63.67.26,1.25-.53,1.03.97-.22.14-.32.27-.64.32-.5.07-1.08-.05-1.6,0,.1-.66,1.08-.43.96-.95-.42.02-.86-.04-1.28,0v-.32c.04-.19-.06-.51,0-.64Z"/>
  <path class="cls-6" d="M48.34,152.42c-.33-.28-.34-1.16-.32-1.6.11-.12,2.41.79,2.55,1.12.58,1.28-1.86.8-2.24.48Z"/>
  <path class="cls-8" d="M85.4,152.42c.35.35-.29.98-.64.64s.29-.98.64-.64Z"/>
  <path class="cls-8" d="M83,152.42c.21.11.21.21,0,.32v-.32Z"/>
  <path class="cls-6" d="M87.31,148.91s-.04-.34.32-.32l-.32.32Z"/>
  <path class="cls-6" d="M87.79,149.23c.21.11.21.21,0,.32v-.32Z"/>
  <path class="cls-8" d="M118.62,50.51c.66.81,1.44,1.27,1.92,2.24.03.09-.02.22,0,.32.15.63.38,1.25.32,1.92-.43.21-.8.85-1.6.64-.05-.1-.24-.2-.32-.32s.05-.31-.32-.64c-.75-.66-2.76-1.69-3.76-1.83-.92-.14-5.24-.01-3.5.95,2.05,1.13,2.8.65,4.12,3.23,1.78,3.49.84,6.91-1.01,10.12-.04,0-.24.46-.64.32v-1.6c.99-1.22,2.21-5.13-.18-5.44s-1.52,1.37-1.88,2.91-1.36,1.88-2.89,1.57c-1.97-.4-1.61-3.7-2.25-3.83-1.27.3-2.2,1.43-2.71,2.56-.34.77-.21,1.36-.64,1.92-.46-1.23-1.29-3.99-1.92-1.6-.05-.2-.63-.5-.66-1.44-.27-8.6,10.36-13.82,17.91-11.98ZM109.27,55.4c-4.39-1.37-4.54,5.45-.78,4.31,1.75-.53,2.06-3.91.78-4.31Z"/>
  <path class="cls-12" d="M73.58,51.78c.07,0,1.01.26,1.28.32l.64.32c.31.12.75.21.96.32,1.27,1.2,2.61,2.26,3.83,3.51.1.11.22.21.32.32.08.65.32,1.32.96,1.6.11.3.22.65.32.96.79,2.37,1.2,3.6.97,6.24-.15,1.71-.86,2.13-1.32,3.63-3.36-.41-6.31-1.16-9.68-.26-.38-1.31-1.43-1.91-2.12-3.05-1.87-3.12-2.19-8.94-.95-12.31.04-.1-.05-.26,0-.32.03-.03.37.06.53-.1s.08-.52.1-.54c1.01-.59,2.98-.68,4.15-.64ZM75.17,54.66c-7.43-3.08-6.43,8.99-2.72,12.14.62.53,3.03,1.18,2.72.16-.26-.84-1.4-1.8-1.77-3.02-.95-3.13-.81-7,1.77-9.28ZM76.81,56.62c-1.34.76-.44,4.92,2.19,3.63,1.99-.98-1.36-4.1-2.19-3.63ZM81.88,63.61c-.91-.17-.85,1-1.49,1.22-3.76,1.3-2.5-4.6-5.06-4.63s-.44,6.2,2.06,7.09c3.39,1.2,5.22-.08,4.48-3.69Z"/>
  <path class="cls-3" d="M111.27,39.64c.49,1.22.36.33.96.64.03.02-.1.47.23.63.51.24,3.42,1.05,3.6,1.29.22.3-.21.74-.47.96-1.02.84-5,1.54-6.67,2.27-1.51.66-3.51,1.85-4.91,2.76s-2.81,3.11-4.58,2.49c-1.1-.77.55-6.11,1.45-6.9.51-.45,1.2-.22,1.74-.49,1.99-1.01,3.84-2.72,6.25-3.02l-.16.64c1.38.33,1.53-1.14,2.56-1.28Z"/>
  <path class="cls-12" d="M111.27,39.64c-1.03.13-1.18,1.61-2.56,1.28l.16-.64c-2.41.3-4.25,2.01-6.25,3.02-.54.28-1.23.04-1.74.49-.91.79-2.55,6.12-1.45,6.9,1.77.62,3.17-1.57,4.58-2.49s3.39-2.1,4.91-2.76c1.68-.73,5.65-1.43,6.67-2.27.26-.21.7-.66.47-.96-.18-.24-3.1-1.05-3.6-1.29-.34-.16-.2-.61-.23-.63,1.63-.62,7.04,1.53,4.97,3.53-.92.89-6.9,2.28-8.7,3.12-1.33.62-3.13,1.81-4.36,2.67-1.54,1.07-3.35,3.92-5.46,2.48-.96-.66-.97-3.16-.74-4.2.19-.83,3.13-5.9,3.77-6.46.99-.85,1.14.16,1.67.09.25-.03,1.88-1.32,2.55-1.61.97-.42,4.23-1.58,5.04-1.07.33.21.21.59.3.81Z"/>
  <path class="cls-3" d="M82.84,50.51c-.09,4.88-2.42.67-4.18-.77-2.53-2.08-5.85-3.65-8.59-5.46,1.15-1.49,3.33-.99,4.87-1.46.28-.09.24-.61.43-.63.68-.1,2.86,1.42,3.47,1.94,1.1.93,2.16,2.29,3.04,3.19,1.13,1.15.99,1.66.96,3.19Z"/>
  <path class="cls-12" d="M73.26,41.56c-.04-.19.01-.43,0-.64,3.66-.56,8.23,2.61,8.63,6.39-.88-.89-1.94-2.25-3.04-3.19-.61-.52-2.79-2.04-3.47-1.94-.19.03-.15.55-.43.63-1.54.47-3.72-.03-4.87,1.46,2.74,1.8,6.06,3.38,8.59,5.46,1.76,1.44,4.09,5.65,4.18.77,2.25.8.71,4.18-1.69,3.45-.48-.15-4.99-4.74-6.47-5.68-.84-.53-5.31-3.01-5.9-3.21-.55-.68,0-1.28.32-1.92.05-.09.23-.2.32-.32,1.38-.6,2.71-.28,4.15-.64.13-.36-.31-.58-.32-.64Z"/>
  <path class="cls-12" d="M121.5,54.98c.01.21-.02.43,0,.64.21,2.4.24,3.33,0,5.75-.01.11.01.21,0,.32-.73,1.03-.99,2.09-1.79,3.17-.45.62-1.64,1.46-1.85,1.94-.13.29.23.89-.17,1.14-.66.42-5.79.05-7.18.19-2.16.21-4.46,1.11-6.59,1.56-1.06-.66-1.84-3.05-2.24-4.15.72.09,1.6,1.87,1.76,1.92.94.29-.05-1.62-.16-1.92.42-.56.3-1.15.64-1.92.05,1.44,1.74,3.77,3.12,4.1.28.07,4.47-.52,4.96-.65.46-.13,1.55-.86,1.83-1.21v1.6c.39.14.6-.31.64-.32,2.1-.29,2.72-.12,4.15-2.08,1.94-2.67,2.14-6.51.64-9.42.8.21,1.17-.43,1.6-.64.13-.06.45.04.64,0Z"/>
  <path class="cls-1" d="M67.51,42.52c-.26,1.35.55,1.13,1.6.64-.32.64-.87,1.24-.32,1.92-.21-.07-1.73-.05-1.88.04-.43.27-.12,2.74-1.32,2.51.35-2.15,1.28-3.27,1.92-5.11Z"/>
  <path class="cls-9" d="M101.37,63.93c.63-2.4,1.46.37,1.92,1.6.11.3,1.11,2.21.16,1.92-.16-.05-1.04-1.83-1.76-1.92-.19-.52-.2-1.07-.32-1.6Z"/>
  <path class="cls-1" d="M73.26,41.56c.01.06.45.28.32.64-1.44.36-2.77.04-4.15.64.04-.06-.11-.4.06-.57.48-.46,3-.86,3.77-.71Z"/>
  <path class="cls-1" d="M121.5,55.62c.97-.18.62.49.64,1.1.05,1.26.42,3.87-.64,4.65.24-2.42.21-3.35,0-5.75Z"/>
  <path class="cls-1" d="M73.58,51.78c-1.17-.04-3.15.05-4.15.64-.03.02.06.37-.1.54s-.51.07-.53.1c-.23-.82.56-.56.64-.64.04-.03-.06-.41.11-.52,1.09-.73,3.04-1.29,4.05-.12Z"/>
  <path class="cls-1" d="M76.45,52.74c.95.49,1.6,1.26,2.16,1.58,1.13.63,2.03-.37,1.67,1.94-1.22-1.26-2.57-2.31-3.83-3.51Z"/>
  <path class="cls-1" d="M120.54,53.06c1.47-.3.88.74.96,1.92-.19.04-.51-.06-.64,0,.06-.67-.17-1.28-.32-1.92Z"/>
  <path class="cls-1" d="M118.62,50.51c1.55.38,1.49.79,1.92,2.24-.47-.96-1.26-1.42-1.92-2.24Z"/>
  <path class="cls-1" d="M80.6,56.58c.25.3.85.68.87.73.18.37.03.71.09.87-.64-.28-.88-.95-.96-1.6Z"/>
  <path class="cls-1" d="M75.49,52.42l-.64-.32c.69.16.53.28.64.32Z"/>
  <path class="cls-12" d="M119.26,95.55c.58,1.39-.96,1.69-1.6,2.24l-.64-.64c.98-.87-.17-3.15.64-4.47.62.34.51,1.53.82,2.23.18.39.76.6.78.65Z"/>
  <path class="cls-12" d="M110.64,118.24c2,.27.97-3.08,2.87-3.19l-.32,4.15s-.28.01-.53-.11c-.1-.05-.09-.52-.29-.53-.41-.02-1.14.52-1.73.33-.05-.2.06-.5,0-.64Z"/>
  <path class="cls-12" d="M110.64,117.92l-.64-.32s.46-.15.64.32Z"/>
  <path class="cls-12" d="M114.47,120.79c-.3-.16-.61-.32-.96-.33,0-.18.32-.29.32-.31l.64.64Z"/>
  <path class="cls-12" d="M117.03,98.43l.32-.32c-.11.1-.21.21-.32.32Z"/>
  <path class="cls-15" d="M139.39,23.35c.23.12.83-.32.64.64-.16-.11-.85.27-.64-.64Z"/>
  <path class="cls-15" d="M124.05,8.97c.03-.27,0-.54.32-.64-.07.25,0,.52-.32.64Z"/>
  <path class="cls-12" d="M133,128.46c.11,0,.21,0,.32,0l1.92,1.28c.2.32.41.66.64.96.09.12.21.22.32.32.02.1-.02.22,0,.32.06.32-.13.8.32.96.04.67.42,1.2.32,2.05-.08.68-1.03,3.07-1.46,3.68-3.07,4.4-11.17,3.81-11.89-2.14-.05-.38-.11-2.32-.07-2.63.79-.5,1.03-1.5,1.6-2.24.08-.1.22-.2.32-.32,1.18-1.03,3.16-.56,3.83-1.92.22-.08.42-.23.64-.32,1.06.04,2.14-.06,3.19,0ZM130.67,129.49c-.23.05-4.02,1.7-4.23,1.83-3.88,2.38-1.66,9.28,4.46,8.3,6.41-1.03,5.88-11.43-.23-10.13Z"/>
  <path class="cls-12" d="M134.83,120.85c4.11-.85,3.89,6.96-1.02,6.01-2.89-.56-1.53-5.47,1.02-6.01ZM135.78,125.49c.98-.79,1.47-4.08-.69-3.74-2.99.47-2.31,6.17.69,3.74Z"/>
  <path class="cls-12" d="M130.01,125.79c-2.44,2.32-5.59-.22-3.79-3.63,2.33-4.41,7.35.24,3.79,3.63ZM129.76,121.48c-2.02-1.26-4.31,3.18-2.51,4.28,1.74,1.07,3.96-3.38,2.51-4.28Z"/>
  <path class="cls-11" d="M133,128.46c-1.06-.06-2.14.04-3.19,0,.04-.02.14-.46.53-.58.81-.24,2.15-.16,2.67.58Z"/>
  <path class="cls-11" d="M129.17,128.78c-.67,1.36-2.66.89-3.83,1.92,1.45-1.69,1.95-1.24,3.83-1.92Z"/>
  <path class="cls-11" d="M125.01,131.02c-.56.74-.81,1.73-1.6,2.24.11-.94.52-2.07,1.6-2.24Z"/>
  <path class="cls-12" d="M116.39,123.03c-.79.06-1.5.22-1.28-.64.51.08.98.16,1.28.64Z"/>
  <path class="cls-11" d="M136.19,131.33c1.31-.19.31.79.32.96-.45-.16-.26-.64-.32-.96Z"/>
  <path class="cls-11" d="M133.32,128.46c.43.03.7-.08,1.18.1.36.14.61.97.74,1.18l-1.92-1.28Z"/>
  <path class="cls-12" d="M117.66,123.03h-.96c.14,0,.9,0,.96,0Z"/>
  <path class="cls-12" d="M114.47,122.39c-.32,0-.64,0-.96,0,.25-.58.64-.36.96,0Z"/>
  <path class="cls-11" d="M136.19,131.02c-.11-.1-.23-.2-.32-.32.15.05.29.17.32.32Z"/>
  <path class="cls-5" d="M140.95,125.62c.97,1.62-2.47,4.92-2.85,2.34-.23-1.58,2.34-3.2,2.85-2.34Z"/>
  <path class="cls-11" d="M67.51,41.24l-.64.32c.01-.21,0-.43,0-.64.28.1.37.04.64.32Z"/>
  <path class="cls-11" d="M89.87,81.81c0-1.7,2.23-3.15,3.75-3.43,1.06-.2,6.79-.47,6.78,1.04,0,.27-2.39,2.28-2.88,2.54-2.67,1.39-4.99.83-7.65-.15Z"/>
  <path class="cls-16" d="M106.64,69.68c.21.11.21.21,0,.32v-.32Z"/>
  <path class="cls-7" d="M46.51,92.26c-.24-.19-1.17-1.42-.9-1.83.22-.33,4.01-2.34,4.34-2.08,1.99,2.35-1.12,5.75-3.43,3.91Z"/>
  <path class="cls-7" d="M62.31,111.89c1.18-.16,2.3,1.74,1.38,2.37-1.52,1.04-3.82-2.03-1.38-2.37Z"/>
  <path class="cls-14" d="M100.41,155.3c.08.17.04,1.17-.04,1.39-.21.58-.97.3-.92.84,1.13.22,3.55-.63,3.83.8.65,3.31-2.32,1.75-4.01,1.8-.28,0-.4.26-.46.28-.91.19-.97.39-1.6.64-.88-.54.14-1.23.32-1.6l1.28-.64c-1.18.91-.18-.89-.64-1.27l-.95.96c-.1-.01-.21,0-.32,0l.32-1.28c-1.28-.21-.96.25-.96,1.28-.61-.07-.81-.3-.96-.32-.13-.18-.19-.5-.32-.64-.19-.5.36-2.32.64-2.56.6-.52,4.64-.01,4.79.32Z"/>
  <path class="cls-4" d="M98.81,160.41c.5.66,1.83.71,1.85,1.7.03,1.24-1.07.68-1.61.92-.94.42-.64,1.1-2.17.76-1.39-.31-1.76-1.02-1.59-2.43-.5.26-1.1.37-1.59.64.02-.67.57-1.35,1.28-1.28.75.08.86.87,2.24.32.62-.25.69-.45,1.6-.64Z"/>
  <path class="cls-14" d="M94.02,158.49l1.28.96c.12.56-.41.21-.64.32-.4.19,1.46.44.32.96-.71-.07-1.26.61-1.28,1.28-.11.06-.29.53-.71.72-1.99.88-1.67-.48-3.13-1.03-.1-.47-.28-.75,0-1.28,1.2-.43,2.19-.84,3.51-.64.15-.44-.31-.6-.32-.64-.04-.18.02-.43,0-.64.3-.05.69.06.96,0Z"/>
  <path class="cls-14" d="M88.91,151.14c-.46-3.6,5.05-2.38,4.79.32-2.35.23-2.1,1-4.48,0-.09-.04-.19-.28-.32-.32Z"/>
  <path class="cls-13" d="M100.41,155.3c-.09-.1-.03-.64-.31-.82-.5-.34-1.81.77-1.62-.3.17-.92,1.83-1.94,2.4-2.71,2.54,1.43.1,3.49,1.76,5.42-2.39.2-1.27-.14-1.59-1.38-.09-.36-.62-.17-.65-.21Z"/>
  <path class="cls-14" d="M90.19,147.95c.85-.01,1.86.34,1.6-.64-.21-.03-.45.04-.64,0v-.32c2.06-.78,4.1-1.52,4.64,1.28-1.69,1.42-3.9.77-5.6-.32Z"/>
  <path class="cls-4" d="M88.59,146.03c-.05.26,0,.66,0,.96-.35,0-.67-.25-.96-.32-.01-.1,0-.21,0-.32.16-.4.61-.33.96-.32Z"/>
  <path class="cls-4" d="M89.23,144.43c.13-.1,2.46-.42,2.56-.32-.02,1.31.43,2.15-.96,2.72l.32.16v.32c-.26-.05-.79.12-.93-.04-.08-.09-.35-2.51-.66.04-.26-.92-.19-1.26-.96-1.28.04-.24.57-1.55.64-1.6Z"/>
  <path class="cls-7" d="M105.2,157.85c-2.14-.43-2.92-2.06-2.55-4.15,1.73.49,2.76,2.39,2.55,4.15Z"/>
  <path class="cls-7" d="M109.36,155.93c-1.9-.06-4.12-.41-5.11-2.23,2.1-.33,3.93.51,5.11,2.23Z"/>
  <path class="cls-11" d="M89.55,147.31c.31-2.54.58-.12.66-.04.14.16.68-.02.93.04.19.04.43-.03.64,0,.27.97-.74.62-1.6.64-.21,0-.43.02-.64,0-.03-.2.05-.47,0-.64Z"/>
  <path class="cls-14" d="M89.23,144.43c-.07.05-.6,1.36-.64,1.6-.35,0-.8-.08-.96.32-.02-.37-.73-.97-.16-1.92.35-.58,1.53-.9,1.76,0Z"/>
  <path class="cls-14" d="M88.59,146.03c.77.02.7.36.96,1.28.05.17-.03.44,0,.64-.32-.03-.64.03-.96,0-.02-.32.01-.64,0-.96,0-.29-.05-.7,0-.96Z"/>
  <path class="cls-8" d="M66.23,149.54c.17.18-.47,1.09,1.28.32-.06.14.1.54-.01.62-.15.11-1.25.03-1.72.31-.34.2-.15.64-.19.67-.07.05-.24-.05-.32,0,.22-1.5-.36-.71-1.03-.97-.32-.12-.43-1.04-1.53-.63.21-.44,3.09-.75,3.51-.32Z"/>
  <path class="cls-15" d="M95.3,158.17c.14.01.35.25.96.32.21.02.43,0,.64,0,.11,0,.22-.01.32,0,.21.03.43-.02.64,0-.19.28-.19.68-.32.96-.18.37-1.19,1.06-.32,1.6-1.38.55-1.49-.24-2.24-.32,1.14-.52-.72-.76-.32-.96.23-.11.76.24.64-.32l-1.28-.96c.36-.08,1-.35,1.28-.32Z"/>
  <path class="cls-14" d="M48.66,157.53c-.06,1.4-1.47,1.37-2.55,1.27.41-1.41,1.23-1.39,2.55-1.27Z"/>
  <path class="cls-13" d="M118.62,54.66l.32.64c.08.12.27.22.32.32,1.5,2.91,1.3,6.75-.64,9.42-1.43,1.96-2.05,1.79-4.15,2.08,1.85-3.21,2.8-6.63,1.01-10.12-1.31-2.57-2.07-2.09-4.12-3.23-1.74-.96,2.58-1.08,3.5-.95.99.15,3.01,1.18,3.76,1.83Z"/>
  <path class="cls-5" d="M113.83,65.84c-.28.34-1.37,1.08-1.83,1.21-.49.13-4.68.72-4.96.65-1.38-.32-3.07-2.65-3.12-4.1.5-1.13,1.44-2.25,2.71-2.56.64.13.28,3.43,2.25,3.83,1.53.31,2.53-.02,2.89-1.57s-.54-3.23,1.88-2.91,1.17,4.22.18,5.44Z"/>
  <path class="cls-13" d="M109.27,55.4c1.28.4.97,3.77-.78,4.31-3.76,1.14-3.61-5.68.78-4.31Z"/>
  <path class="cls-12" d="M118.94,55.3l-.32-.64c.37.33.24.52.32.64Z"/>
  <path class="cls-13" d="M75.17,54.66c-2.58,2.28-2.72,6.15-1.77,9.28.37,1.22,1.51,2.19,1.77,3.02.31,1.02-2.09.37-2.72-.16-3.71-3.15-4.71-15.23,2.72-12.14Z"/>
  <path class="cls-5" d="M81.88,63.61c.74,3.6-1.09,4.89-4.48,3.69-2.5-.89-4.68-7.12-2.06-7.09s1.29,5.93,5.06,4.63c.64-.22.58-1.39,1.49-1.22Z"/>
  <path class="cls-13" d="M76.81,56.62c.84-.48,4.19,2.65,2.19,3.63-2.64,1.3-3.53-2.87-2.19-3.63Z"/>
  <path class="cls-5" d="M130.67,129.49c6.11-1.3,6.64,9.1.23,10.13-6.12.98-8.34-5.91-4.46-8.3.22-.13,4.01-1.79,4.23-1.83Z"/>
  <path class="cls-5" d="M135.78,125.49c-3.01,2.43-3.68-3.28-.69-3.74,2.16-.34,1.67,2.95.69,3.74Z"/>
  <path class="cls-5" d="M129.76,121.48c1.45.9-.77,5.36-2.51,4.28-1.79-1.11.5-5.54,2.51-4.28Z"/>
  <path class="cls-11" d="M97.22,158.49l.95-.96c.46.38-.54,2.18.64,1.27l-1.28.64c.13-.27.13-.68.32-.96-.21-.02-.43.02-.64,0Z"/>
  <path class="cls-11" d="M96.26,158.49c0-1.03-.32-1.49.96-1.28l-.32,1.28c-.21,0-.43.02-.64,0Z"/>
  <path class="cls-2" d="M32.16,9.3c1.25-.19,2.05,2,2.19,2.98.39,2.63-1.03,5.87-3.86,6.38-.44.08-4.08.08-4.26-.03-1.36-.81-.51-4.03.13-5.2.85-1.55,4.14-3.88,5.8-4.14ZM28.71,12.44c-1.85,1.57-2.31,2.82-2.12,5.31,2.76-.6,5.13.98,6.37-2.48.58-1.61.54-3.5-.54-4.95-1.45.46-2.6,1.18-3.7,2.12Z"/>
  <path class="cls-17" d="M28.71,12.44l1.42.53c.02.35-.71.04-.72.36-.03,1.72,2.81.8,3.55,1.95-1.24,3.46-3.61,1.88-6.37,2.48-.19-2.49.27-3.73,2.12-5.31Z"/>
  <path class="cls-10" d="M32.96,15.27c-.74-1.15-3.58-.23-3.55-1.95,0-.32.74,0,.72-.36l-1.42-.53c1.11-.94,2.25-1.66,3.7-2.12,1.08,1.44,1.12,3.34.54,4.95Z"/>
  <path class="cls-2" d="M14.6,31.89c.26.27.39.76.39,1.13-.01,4.33-6.37,6.87-10.03,6.21-1.66-.3-.41-1.5-.5-2.25-.04-.33-1-.41-1.29-.93-.74-1.35,2.44-4.27,3.74-4.78,1.87-.72,6.24-.87,7.69.62ZM5.14,38.17c2.39.26,6.04-.51,7.6-2.49,1.68-2.13,1.47-3.54-1.39-3.88-2.2-.27-4.63.37-6.22,1.94-2.78,2.74.48,1.74.72,1.96l-.7,2.47Z"/>
  <path class="cls-17" d="M5.14,38.17l.7-2.47c-.24-.22-3.5.78-.72-1.96,1.59-1.57,4.02-2.2,6.22-1.94,2.86.34,3.07,1.75,1.39,3.88-1.56,1.97-5.21,2.75-7.6,2.49Z"/>
  <path class="cls-17" d="M158.47,81.49c.26-.94.08-1.66.36-2.57.7-2.32,3.47-4.21,5.89-4.36,1.21,4.11-.16,7.33-4.51,7.98v-1.73c-.33-.15-.69.98-.7,1.04l-1.04-.35Z"/>
  <path class="cls-2" d="M158.12,81.84c-1.74-4.88,2.99-8.79,7.64-7.98-.27,2.27.75,4.06-.21,6.21s-3.43,3.58-5.7,3.36c-.43-.31-.37-1.1-.33-1.59,0-.06.37-1.19.69-1.04v1.73c4.35-.65,5.72-3.86,4.51-7.98-2.41.16-5.19,2.04-5.89,4.36-.28.92-.1,1.63-.36,2.57-.03.12.04.26,0,.35h-.35Z"/>
  <path class="cls-17" d="M158.12,81.84h.35c-.18.39-.27.53-.35,0Z"/>
  <path class="cls-2" d="M1.5,89.88c-.63-.68-1.39-2.29-1.49-3.21-.05-.47.14-3.77.31-4.07.61-1.09,4.86.49,5.81,1.1,2.98,1.9,2.51,5.02,4.61,7.53-2.41,1.8-7.29.77-9.24-1.34ZM9.71,91.04c-1.88-1.61-1.64-4.27-3.3-5.89-1.45-1.41-3.46-1.79-5.37-2.08-1.42,6.15,3.04,8.71,8.67,7.97Z"/>
  <path class="cls-17" d="M9.71,91.04c-5.64.74-10.09-1.82-8.67-7.97,1.91.3,3.93.67,5.37,2.08,1.66,1.62,1.42,4.28,3.3,5.89Z"/>
  <path class="cls-2" d="M164.79,15.36c-.33,1.05-2.97.21-3.71-.11-3.46-1.44-4.59-5.65-3.3-8.98.21-.54.61-1.51,1.28-1.51.2,0,3.12,1.83,3.47,2.1.55.42,2.26,2.41,2.26,2.95,0,1.2.25,4.75,0,5.55ZM159.59,12.76c1.15,1.43,2.51,1.76,4.16,2.43-.04-2.44.81-3.21-.34-5.55-1.11-2.25-2.53-2.57-4.51-3.81-.75,2.68-1.19,4.59.69,6.94Z"/>
  <path class="cls-17" d="M163.4,9.64c-.43.65-1.52.14-2.1.5-.68.43-.25,2.71-1.72,2.62-1.88-2.34-1.44-4.26-.69-6.94,1.98,1.24,3.4,1.57,4.51,3.81Z"/>
  <path class="cls-10" d="M163.4,9.64c1.15,2.34.31,3.11.34,5.55-1.65-.67-3.01-.99-4.16-2.43,1.47.09,1.04-2.19,1.72-2.62.58-.37,1.67.15,2.1-.5Z"/>
</svg>