<?xml version="1.0" encoding="UTF-8"?>
<svg id="Layer_1" data-name="Layer 1" xmlns="http://www.w3.org/2000/svg" viewBox="0 0 171.52 168.28">
  <defs>
    <style>
      .cls-1 {
        fill: #e695b2;
      }

      .cls-2 {
        fill: #311a1e;
      }

      .cls-3 {
        fill: #9acbda;
      }

      .cls-4 {
        fill: #f6c75e;
      }

      .cls-5 {
        fill: #3a6731;
      }

      .cls-6 {
        fill: #7ba7af;
      }

      .cls-7 {
        fill: #eee8bd;
      }

      .cls-8 {
        fill: #96c9d3;
      }

      .cls-9 {
        fill: #fff9ee;
      }

      .cls-10 {
        fill: #caa963;
      }

      .cls-11 {
        fill: #f1e7bc;
      }

      .cls-12 {
        fill: #e9b6c9;
      }

      .cls-13 {
        fill: #0b0c0b;
      }

      .cls-14 {
        fill: #cbc59c;
      }

      .cls-15 {
        fill: #97ceb4;
      }

      .cls-16 {
        fill: #fff;
      }

      .cls-17 {
        fill: #ebd1db;
      }

      .cls-18 {
        fill: #f4f5f5;
      }

      .cls-19 {
        fill: #689760;
      }

      .cls-20 {
        fill: #f9e48f;
      }

      .cls-21 {
        fill: #2c1612;
      }

      .cls-22 {
        fill: #f6b859;
      }

      .cls-23 {
        fill: #f2cdd9;
      }

      .cls-24 {
        fill: #d4daaf;
      }

      .cls-25 {
        fill: #efbcce;
      }

      .cls-26 {
        fill: #544143;
      }

      .cls-27 {
        fill: #311b1d;
      }

      .cls-28 {
        fill: #bd7b93;
      }

      .cls-29 {
        fill: #342e2b;
      }

      .cls-30 {
        fill: #86d1ee;
      }

      .cls-31 {
        fill: #f2ca6d;
      }

      .cls-32 {
        fill: #faf5d8;
      }

      .cls-33 {
        fill: #f1ccd9;
      }
    </style>
  </defs>
  <path class="cls-27" d="M120.56,155c.22-.9-1.32-1.91,1.05-2.8,3.55-1.32,13.72-.24,13.7,4.74,0,1.07-2,.49-2.45,1.1s1.07,1.86-1.39,2.43c-2.24.53-4.85.05-7.03-.49-.69,4.04-4.91,6.63-8.86,6.57-1.95-.03-3.99-.42-2.98-2.75-5.08.68-2.88-3.44-.52-5.31,1.79-1.42,8.36-3.05,8.47-3.5ZM122.83,154.7c1.02.52.83,2.82,1.46,3.66.98,1.31,5.94,1.56,7.5.97l-1.28-2.87,3.51.32c.05-3.98-11.48-4.64-12.42-3.47-1,1.24.83,1.19,1.23,1.4ZM114.2,162.53l-.64,2.55c6.45.75,11.14-2.83,8.94-9.58-.72.04-1.12.61-1.83.89-3.46,1.38-8.73,1.6-9.67,6.14h3.19Z"/>
  <path class="cls-12" d="M111.01,162.53h3.19s-.64,2.56-.64,2.56c6.45.75,11.14-2.83,8.94-9.58-.72.04-1.12.61-1.83.89-3.46,1.38-8.73,1.6-9.67,6.14Z"/>
  <path class="cls-12" d="M121.59,153.3c-1,1.24.83,1.19,1.23,1.4,1.02.52.83,2.82,1.46,3.66.98,1.31,5.94,1.56,7.5.97l-1.28-2.87,3.51.32c.05-3.98-11.48-4.64-12.42-3.47Z"/>
  <path class="cls-21" d="M18.75,104.46c-4.1-5.65-3.66-15.99,1.88-20.66.59-.49,3.66-2.01,3.73-2.25.08-.29-.57-1.63-.63-2.2-.18-1.61.65-8.28,3.3-6.72.78.46,1.76,4.22,3.55,4.95.41.17.73-.14,1.09-.1,2.59.26,4.91-1,7.65-1.47.34-.06,1.23,0,1.27-.04.12-.11-.31-1.77.69-2.4,1.2-.74,2.32.94,2.98.5.08-.05.61-1.24.94-1.63.8-.96,2.34-2.4,3.64-1.62,1.12.68.73,2.04.85,2.17.06.06.64,0,.94.17,1.57.84.59,2.23.69,2.32,1.4.06,2.9.42,4.23.84,1.9.61,2.82,1.76,5.05,1.02,1.67-.56,2.89-4.93,3.38-5.24,2.29-1.44,3.83,4.01,3.86,5.58.01.66-.39,2.55-.21,2.81.1.15,2.61,1.18,3.15,1.52,5.1,3.2,6.89,12.08,5.07,17.52-.81,2.4-2.07,3.6-3.29,5.53-.28.45-.32.65,0,1.1-1.38-.5-.76.49-1.14,1.43-.27.69-.73,1.46-1.09,2.36-.35.87-1.74,1.29.15,1.42l4.17-3.26c.13-.12.02-.35.06-.43.55-1.06.81-.5,1.48-.94l5.18,4.24c.67.14,1.36-1.41,1.58-1.65.54-.56,2.27-2.43,2.75-2.73.41-.25.78-.47,1.28-.32.87.26,1.31,4.37,1.44,5.31,2.67,20.1-3.59,40.78-22.02,50.94-14.41,7.94-31.74,7.59-46.02-.55-4.09-2.89-8.04-5.97-11.07-10.02-5.77-7.69-8.22-16.39-9.06-25.88-.52-5.94-.3-14.66,1.49-20.36.84-2.68,3.79,1.56,4.75,2.5.27.26.67.31.73.37.04.04.07.51.33.75.27.26,1.69,1.47,1.9,1.46.73-.05,3.96-3.11,5.19-2.95.74.1,3.95,3.37,4.95,3.83.51.24,2.39-.9,2.57-1.27.24-.49-.37-2.96-.77-3.57-.56-.86-2.37-2.01-2.63-2.37M55.57,81.18c.35.04.79.49,1.29.45,1.16-.08,2.92-1.71,4.33-1.54.15-.15-.88-1.92-1.54-1.74-.47.13-.17,1.18-.75.95-.74-.28-1.9-1.31-2.96-1.7-2.03-.74-4.69-1.19-6.85-1.2.06-.94,1.44-1.11,1.26-2.16-1.4-.32-1.81,1.13-2.95,1.39.01-1.41,1.74-2.09,1.12-3.57-.11-.26.04-.39-.41-.32-1.33.21-3.6,3.08-3.16,4.56-.59.6-2.34-2.5-3.12-1.77-.43.4,1.07,2.09.03,2.4-.68.2-2.52.08-3.55.27-1.58.29-3.9,1.11-5.22,2.01-.13.09-2,1.99-1.6.81.11-.33.63-.67.51-1.2-.34-1.45-1.26.9-1.37,1.05-.39.54-1.04.65-1.36,1.19,1.62-.35,3.96,1.23,5.26,1.27,1.14.03,2.29-1.56,4.23-.81-.68.95-2.6.04-3.08,1.39.97.21,4.19,3.41,4.58,3.49.91.19,1.11-1.64.88-2.4,1.69.43.04,2.97.2,3.72.13.6,1.5,2.09,1.84,2.91.2.48.46,1.55.68,2.21.1.3-.2.95.35,1.22,1.55-.88,2.85-.57,4.5-.14-.31-1.81,1.56-4.52,1.59-5.97,0-.46-.38-1.35-.43-2.29,1.57,2.3,1.64.57,2.93-.79.48-.51,2.79-2.32,2.88-2.49.22-.4-.03-.83-.11-1.22M64.52,73.1c-.1.07-.68,1.81-.99,2.33-.99,1.66-3.8,3.66-.21,4.4,1.77.36,3.3.57,3.51-1.45.11-1.01-.94-6.21-2.31-5.28M25.41,81.19c.77.5,4.51-1.01,4.65-2.18.1-.78-1.5-1.9-2.01-2.61-.32-.45-1.44-2.9-1.65-2.93-.85-.11-1.6,3.05-1.67,3.73-.08.73.12,3.63.67,3.99M53.45,103.21c3.3,3.56,8.64,4.54,13.09,2.78,13.83-5.46,6.24-28.9-8.07-22.65-6.48,2.83-9.68,10.47-6.86,16.98.4.92,1.17,2.16,1.84,2.88M28.2,83.55c-9.48.21-12.4,13.38-6.86,19.75,4.88,5.61,14.38,5.69,18.75-.57,6.09-8.75-2.05-19.39-11.89-19.18M52.35,104.97c-.56-.51-1.34-1.59-1.75-2.25-1.25-2.01-1.25-4.73-4.06-4.72-2.93.01-2.63,2.29-3.74,4.33-.32.59-1.5,2.42-1.9,2.87-.46.52-2.88,2.38-3.64,2.8-.5.28-2.44.86-2.54.96-.12.13-.03.34.14.51.23.23,2.8,2.29,2.97,2.37.27.12.43.2.7.01,2.2-1.31,4.36-2.63,6.44-4.12.61.07.97-.04,1.63.23,1.07.43,4.47,3.43,5.35,3.24.31-.06,4.7-3.04,4.7-3.33-1.27-.98-3.15-1.83-4.31-2.9M67.27,109.05c.46.53.67,1.42,1.68.7.57-.41.06-.87.17-1.3.11-.44,1.1-.92.97-1.61l-3.44,1.39c-.15.57.4.56.63.82M87.21,114.53c-.17-2.12-.28-4.24-.59-6.35-.49-.14-.55.07-.83.26-1.11.73-2.47,3.16-3.47,3.95-.2.16-.54.32-.79.29-.86-.09-4.21-3.9-5.49-4.26-.37.53-.99,1.04-1.5,1.43-.74.56-3.51,2.84-4.07,2.98-.85.21-1.51-1.02-2.42-.93.29,1.79,2.52,3.85,2.55,5.66.02.93-.58,3.32-.83,4.36-.17.7-.77,1.5-.54,2.42-.52-.02-.75.83-.72-.5.01-.71.17-1.72.3-2.43.22-1.2.79-2.39.81-3.64.02-.81-1.71-4.28-2.24-4.42-.29-.08-.75.42-1.2.42-.49,0-1-.49-1.46-.48-.5.01-.91.71-1.96.69-1.27-.03-1.49-.88-1.96-.98-.29-.06-.95.21-1.44.18-2.02-.11-2.14-2.64-1.73-4.21-.31-.37-5.05,3.62-5.62,3.73-.33.06-.45-.04-.71-.16-1.59-.69-3.87-2.83-5.47-3.76-.72-.06-6.05,4.39-7.47,4.58-1.46.2-2.47-2.25-3.9-2.48.11.87-.46,1.78-1.28,2.04-.78.24-1.17-.23-1.79-.17-.77.08-.72,1.07-2.23.96-.76-.05-1.02-.48-1.46-.55-.77-.13-1.63.54-2.54.07-.53-.28-1.02-1.72-.92-2.34-1.38.35-3.33,2.74-4.74,2.29l-5.12-3.93c-1.36.44-4.27,3.38-5.58,2.96-.89-.29-4.51-4.96-5.77-5.69-.39,2.97-1.07,5.99-1.3,8.98-.31,4.08-.26,8.37.21,12.43.17,1.51.64,2.84.88,4.16.91,4.96,1.71,8.41,4.09,13,2.03,3.92,4.69,7.64,7.93,10.64.81.75,3.77,3.26,4.66,3.52,14.17,10.29,34.57,9.95,49.03.34.34-.23.52-.58.66-.68,5.81-4.06,9.44-7.95,12.74-14.32,1.86-3.59,3.3-7.38,4.15-11.35.06-.29-.04-.68.02-.97,1.31-6.6,1.66-11.01,1.13-17.75M65.12,112.54c.08.09,1.17.34,1.43.2.38-.22.52-1.04.54-1.46.12-2.38-2.75-3.12-4.72-2.92-.55.06-.93.48-1.21.47-.48,0-.95-.92-2.06-.41-1.17.54-1.15,4.08.48,3.97,1.31-.08.66-2.06,1.54-1.86.55.13,0,3.28,2.09,2.69.3-.09.94-.89,1.04-1.17.22-.6-.11-1.7.53-1.68.71.4.12,1.9.35,2.17M33.15,112.04c1.04-.56.61-3.98-.72-4.12-.65-.07-1.06.64-1.46.63-.34,0-.76-.63-1.44-.71-.58-.06-2.11.25-2.64.5-2.23,1.06-2.57,4.75-.42,4.05.65-.21.53-2.37,1.06-2.38.45,0,.17,1.07.24,1.41.31,1.28,1.45,2.19,2.47.93.61-.74.32-1.8,1.06-2.25.22.41.11,1.44.25,1.67.12.2,1.32.43,1.61.27M23.28,109.42c.26.27,1.7-.16,1.7-.56,0-.16-1.72-1.07-1.92-.89.13.28.17,1.4.22,1.45"/>
  <path class="cls-13" d="M52.09,105.7c.02.25.42.52.11.97-.12.18-1.28.84-1.54.89-2.28.47-3.31-1.52-5.68.17-.88-.1-1.66.07-2.58-.26-.43-.16-1.46-1.03-1.52-1.53.92-.67,1.32.21,1.93.42,1.41.5,1.87-.39,2.84-.54,1.75-.28,2.86.64,4.11.58.94-.05,1.36-.88,2.33-.69"/>
  <path class="cls-21" d="M18.75,104.46c.26.36,2.07,1.51,2.63,2.37.39.6,1,3.07.77,3.57-.18.37-2.06,1.51-2.57,1.27-1-.46-4.22-3.74-4.95-3.83-1.23-.16-4.46,2.91-5.19,2.95-.2.01-1.62-1.2-1.9-1.46-.26-.24-.28-.71-.33-.75l4.64-4.54c1.03-.15,3.14,2.77,4.04,2.79.64.02,2.11-2.1,2.85-2.37"/>
  <path class="cls-21" d="M82.94,109.32c-.23.24-.91,1.78-1.59,1.65l-5.18-4.24s-.04-.35.18-.49c.71-.44,2.05-1.36,2.85-1.11.47.15,3.04,3.61,3.73,4.18"/>
  <path class="cls-21" d="M72.54,106.16c1.07.39,1.15,1.23,2.16,1.51-.04.08.07.31-.06.43l-4.17,3.26c-1.9-.13-.5-.55-.15-1.42.36-.9.82-1.67,1.09-2.36.37-.94-.24-1.93,1.14-1.43"/>
  <path class="cls-15" d="M87.21,114.53c.53,6.74.18,11.16-1.13,17.75-2.31.6-4.68,1.29-7.04,1.73-21.45,4.05-51.45,3.5-72.86-1.1-.28-.06-.52-.22-.72-.26-.84-1.37-1.83-2.6-2.71-3.96-.23-.36-.24-.77-.84-.74-.46-4.05-.51-8.35-.21-12.43,13.18,2.25,26.59,3.55,39.99,3.59,6.32.02,13.44-.11,19.73-.54,2.72-.19,5.45-.87,8.18-.79-.02,1.25-.59,2.44-.81,3.63-7.71-1.24-10.08,8.95-17.84,7.88-4.07-.56-3.7-5.79,1.1-5.11.62.09.61,1,.35,1.34-.31.39-1.86-.42-1.97,1.2-.08,1.1,1.14,1.2,1.99,1.12,3.28-.29,3.71-4.98.48-5.9-6.02-1.71-11.24,4.57-5.98,8.81,4.42,3.57,9.79,1.15,13.66-1.86,2.43-1.89,4.6-5.4,7.9-5.06-.03,1.33.2.49.72.5,1.5.05,2.17,3.27,1.23,4.4-1.13,1.36-3.45.47-2.27-.39.37-.27.92.04.96-.98.09-2.3-3.09-1.51-3.42.66-.61,4.03,4.21,4.87,6.29,2.1.81-1.08,1.11-2.41,1.06-3.75,1.71.81,3.36,2.41,5.12,3.08,5.36,2.04,10.73-3.63,7.62-8.48-2.59-4.03-8.83-1.48-6.86,2.99.95,2.15,4.14,2.08,4.19-.42.02-1.02-.86-.81-1.7-.88l-.38.96c-1.53-2.7,1.97-3.31,3.01-.97.83,1.87-.68,4.79-2.63,5.11-4.01.66-7.89-5.03-11.67-5.85.25-1.04.84-3.43.83-4.36,5.63-.5,11.16-1.66,16.63-3.03M7.13,123.19c-.4-1.59-2.32-.54-1.46,1.04,1.76,3.21,6.29-1.93,3.23-4.52-3.72-3.14-8.27,2.3-6.44,6.63,1.74,4.11,5.82,3.47,9.02,1.53.4-.24,3.46-2.76,3.63-2.55.03.92-.12,1.85-.03,2.77.49,5.19,7.84,3.43,6.16-.87-.44-1.13-3.47-1.68-2.98.19.21.82,1.55.43,1.15,1.29-.38.82-2.11.4-2.36-.83-.49-2.46.99-4.34,3.55-3.87,1.91.35,3.96,3.32,5.39,4.61,3.64,3.31,7.8,6.29,12.76,3.62,6.65-3.58,3.69-12.45-3.68-11.32-3.05.47-4.91,5.1-1.75,6.64,3.23,1.58,4.86-2.46,2.61-2.75-.79-.1-.64.4-.84.56-1.1.91-1.62-1.72.41-2,4.97-.7,4.56,5.93.07,6.54-7.42,1.02-11.31-12.3-20.19-8.16-2.71,1.26-6.41,5.9-9.38,5.27-3.12-.67-2.28-6.46.78-6.01,1.93.28.97,2.68.34,2.19M43.4,131.36c-1.16.33-1.31,2.46.19,2.83,2.86.71,2.7-3.65-.19-2.83"/>
  <path class="cls-1" d="M86.07,132.28c-.06.29.04.68-.02.97l-12.96,12.86c-.15.02-.33-.03-.49-.01-17.89,2.56-36.59,2.61-54.56.47-.28-.03-.56-.24-.72-.26.03-.55-.32-.66-.63-.94-1.11-1.03-2.4-2.03-2.92-3.52.35-.1,1.33-1.22,1.44-1.61.72-2.54-1.34-4.25-3.76-3.31-.7-.05-.57.36-.75.71-.05.09-.23.18-.25.24-1.84-1.1-3.19-3.17-4.27-4.97,21.41,4.6,51.41,5.15,72.86,1.1,2.35-.44,4.72-1.13,7.04-1.73M76.37,138.23c-1.6-1.48-4.3-.05-4.06,2.08.52,4.65,7.42,1.03,4.06-2.08M60.3,138.57c-3.43.49-2.56,5.77.99,5.03,2.67-.55,2.44-5.52-.99-5.03M26.94,138.06c-3.57.27-2.63,6.54,1.27,5.06,2.6-.99,1.55-5.27-1.27-5.06M45.9,139.48c-3.36-2.72-6.49,3.78-2.53,4.68,3.18.72,4.41-3.17,2.53-4.68"/>
  <path class="cls-11" d="M1.7,115.52c.22-2.99.91-6.01,1.3-8.98,1.26.73,4.88,5.4,5.77,5.69,1.31.42,4.22-2.52,5.58-2.96l5.12,3.93c1.41.45,3.37-1.93,4.74-2.28-.1.61.39,2.06.92,2.34.91.47,1.78-.19,2.54-.07.44.07.7.49,1.46.55,1.51.11,1.47-.88,2.23-.96.63-.06,1.01.41,1.79.17.82-.26,1.39-1.17,1.28-2.04,1.43.24,2.44,2.68,3.9,2.48,1.43-.19,6.75-4.64,7.47-4.58,1.6.92,3.88,3.07,5.47,3.76.27.11.38.22.71.16.57-.11,5.31-4.1,5.62-3.73-.41,1.56-.29,4.09,1.73,4.21.49.03,1.15-.24,1.44-.18.46.1.68.96,1.96.98,1.04.02,1.45-.68,1.96-.69.46-.01.98.48,1.46.48.45,0,.9-.5,1.2-.42.53.14,2.25,3.61,2.24,4.42-2.73-.09-5.46.6-8.18.79-6.29.43-13.41.56-19.73.54-13.4-.04-26.81-1.34-39.99-3.59"/>
  <path class="cls-6" d="M81.9,144.61c-3.31,6.37-6.94,10.26-12.74,14.32-2.44.05-4.84.75-7.23,1.03-8.53,1-17.28,1.19-25.8.89-5.09-.18-11.82-.15-16.66-1.58-.89-.26-3.85-2.77-4.66-3.52-3.24-3.01-5.89-6.72-7.92-10.64,2.73.07,5.41.79,8.13,1.15.76.1,1.56-.04,2.31.06.17.02.45.23.73.26.05.4.67,1.12.93,1.37,1,.97,7.24,6.14,8.16,6.14v.24c-.2.02-.78.53-.87.72-1.23,2.74,3.66,4.53,3.75.81,3.89,1.54,7.99,3.04,12.25,2.97.32,0,.54-.24.59-.24.24-.02.5.04.73.02.3.4,1.13.31,1.59.29,4.86-.26,9.52-1.79,14.07-3.35-.86,3.9,6.12,3.03,3.2-1.39.44-.1,6-4.3,6.8-4.97,1.17-.96,2.15-2.17,3.36-3.08.15-.02.33.03.49.01,2.94-.43,5.85-1.13,8.8-1.51M69.72,152.41c-1.26.34-1.93,2.91-.32,3.31,3.45.85,2.54-3.91.32-3.31M18.46,152.99c-2.43,1.87,2.24,5.04,2.8,1.8.31-1.77-1.58-2.74-2.8-1.8"/>
  <path class="cls-18" d="M53.45,103.21c-.67-.73-1.45-1.96-1.84-2.88-2.82-6.51.38-14.15,6.86-16.98,14.31-6.26,21.9,17.19,8.07,22.65-4.45,1.76-9.79.77-13.09-2.78M63.81,104.5c.4-.92,1.13-1.52,1.52-2.52,1.02-2.61.76-6.16-.37-8.71-2.72-6.15-9.63-8.74-11.55-.51-.59,2.51-.06,6.23,1.2,8.49-.33-.13-1.63-1.26-1.17-.07.22.57,2.03,2.1,2.61,2.51,2.2,1.55,4.41,2.19,7.1,1.75,1.48-.25,3.67-1.51.65-.94"/>
  <path class="cls-18" d="M28.2,83.55c9.84-.21,17.98,10.43,11.89,19.18-4.36,6.26-13.87,6.18-18.75.57-5.54-6.37-2.62-19.55,6.86-19.75M27.29,105.59c.41.7,4.93.73,5.86.6,1.13-.16,4.44-1.78,4.93-2.82.9-1.92,1.48-5.67,1.31-7.79-.42-5.06-4.73-10.33-9.34-5.35-3.79,4.08-4.73,10.61-1.08,15.06-.45.2-2.45-1.03-1.68.29"/>
  <path class="cls-19" d="M38.76,81.53c-1.94-.75-3.09.84-4.23.81-1.29-.04-3.63-1.62-5.25-1.27.32-.54.97-.65,1.36-1.19.11-.15,1.03-2.49,1.37-1.05.12.52-.4.87-.51,1.2-.4,1.17,1.47-.72,1.61-.81,1.32-.9,3.64-1.72,5.22-2.01,1.03-.19,2.87-.07,3.55-.27,1.04-.3-.46-1.99-.03-2.4.78-.73,2.53,2.37,3.12,1.77-.44-1.48,1.83-4.35,3.16-4.56.45-.07.3.06.41.32.63,1.47-1.1,2.16-1.12,3.57,1.14-.26,1.55-1.72,2.95-1.39.18,1.05-1.21,1.22-1.26,2.16,2.16,0,4.82.46,6.84,1.2,1.06.39,2.21,1.42,2.96,1.7.58.22.28-.82.75-.95.66-.18,1.69,1.59,1.54,1.74-1.41-.16-3.18,1.47-4.33,1.54-.5.03-.94-.41-1.29-.45-1.01-.12-1.73-.02-2.68.18-1.95.4-2.75.84-2.99,2.86-.05.43-.05,1.02-.03,1.46.05.93.44,1.83.43,2.29-.03,1.45-1.9,4.16-1.59,5.97-1.64-.43-2.95-.74-4.5.14-.54-.27-.24-.92-.35-1.22,1.46-.63.41-1.89-.68-2.21-.34-.81-1.7-2.3-1.84-2.91-.17-.75,1.48-3.28-.2-3.71-.27-.88-1.52-2.16-2.38-2.49M45.91,91.36c1.21,1.23,2.44-1.8.79-2.32-1.35-.43-1.59,1.51-.79,2.32"/>
  <path class="cls-14" d="M69.15,158.93c-.14.1-.32.45-.66.67-14.47,9.61-34.86,9.95-49.03-.34,4.84,1.43,11.57,1.41,16.66,1.58,8.53.3,17.27.11,25.8-.89,2.39-.28,4.79-.97,7.23-1.03"/>
  <path class="cls-7" d="M68.78,121.42c-.13.71-.28,1.71-.3,2.43-3.31-.34-5.48,3.17-7.9,5.06-3.87,3.01-9.24,5.42-13.66,1.86-5.26-4.24-.04-10.52,5.98-8.81,3.23.92,2.8,5.61-.48,5.9-.85.08-2.07-.02-1.99-1.12.11-1.62,1.66-.81,1.97-1.2.27-.34.27-1.25-.35-1.34-4.8-.69-5.17,4.54-1.1,5.11,7.76,1.08,10.13-9.11,17.84-7.88"/>
  <path class="cls-7" d="M69.75,121.93c3.77.83,7.66,6.51,11.67,5.85,1.95-.32,3.46-3.24,2.63-5.11-1.04-2.34-4.53-1.73-3.01.97l.38-.97c.84.08,1.72-.14,1.7.88-.05,2.5-3.24,2.57-4.19.42-1.97-4.46,4.28-7.02,6.86-2.99,3.11,4.85-2.27,10.52-7.63,8.48-1.76-.67-3.41-2.27-5.12-3.08.05,1.34-.25,2.67-1.06,3.75-2.08,2.77-6.91,1.92-6.29-2.1.33-2.17,3.52-2.96,3.42-.66-.04,1.02-.59.72-.96.98-1.19.86,1.13,1.75,2.27.39.94-1.13.27-4.35-1.23-4.4-.23-.92.38-1.72.54-2.42"/>
  <path class="cls-11" d="M70.58,117.56c-.03-1.81-2.26-3.87-2.55-5.66.91-.09,1.57,1.14,2.42.93.57-.14,3.33-2.42,4.07-2.98.51-.39,1.14-.9,1.5-1.43,1.28.36,4.63,4.17,5.49,4.26.25.03.59-.13.79-.29,1.01-.8,2.37-3.22,3.47-3.95.28-.18.34-.39.83-.26.31,2.11.42,4.22.59,6.35-5.47,1.37-11,2.53-16.63,3.03"/>
  <path class="cls-28" d="M5.45,132.65c.2.04.44.2.72.26,1.08,1.8,2.43,3.87,4.27,4.97-.06.25-.02.68-.02.97-.04,1.95.51,2.97,2.61,2.98.22,0,.57.06.73.02.52,1.49,1.81,2.49,2.92,3.52.31.29.67.39.63.94-.76-.09-1.55.05-2.31-.06-2.72-.36-5.4-1.08-8.13-1.16-2.38-4.59-3.18-8.03-4.09-13,.87.27,1.78.35,2.67.55"/>
  <path class="cls-19" d="M52.35,104.97c-.3.04-.28.49-.26.72-.97-.18-1.39.65-2.33.69-1.25.06-2.36-.86-4.11-.58-.97.15-1.43,1.05-2.84.54-.61-.22-1.01-1.09-1.93-.42-.03-.23.03-.49.02-.73.4-.45,1.58-2.28,1.9-2.87,1.11-2.04.81-4.31,3.74-4.33,2.81-.01,2.81,2.71,4.06,4.72.41.67,1.2,1.74,1.75,2.25M45.77,102.2c-2.13.43.45,2.39,1.23,2.05.16-.07,1.17-1.08,1.22-1.24.32-1.09-1.73-.96-2.45-.81"/>
  <path class="cls-28" d="M86.05,133.26c-.85,3.97-2.29,7.76-4.15,11.35-2.95.37-5.86,1.08-8.8,1.51l12.95-12.86Z"/>
  <path class="cls-24" d="M65.12,112.54c-.23-.27.36-1.77-.35-2.17-.64-.02-.32,1.08-.53,1.68-.1.28-.73,1.08-1.04,1.17-2.08.59-1.53-2.56-2.09-2.69-.88-.2-.23,1.77-1.54,1.86-1.63.1-1.65-3.43-.48-3.97,1.11-.51,1.58.4,2.06.41.29,0,.67-.42,1.21-.47,1.96-.2,4.83.54,4.72,2.92-.02.42-.16,1.25-.54,1.46-.26.15-1.35-.11-1.43-.2"/>
  <path class="cls-24" d="M33.15,112.04c-.29.16-1.49-.07-1.61-.27-.14-.23-.03-1.26-.25-1.67-.74.46-.45,1.51-1.06,2.25-1.02,1.26-2.16.35-2.47-.93-.08-.33.21-1.41-.24-1.41-.53.01-.41,2.17-1.06,2.38-2.15.7-1.81-2.98.42-4.05.53-.25,2.06-.57,2.64-.5.69.08,1.1.7,1.44.71.4,0,.81-.7,1.46-.63,1.33.14,1.76,3.55.72,4.12"/>
  <path class="cls-24" d="M44.98,107.73c2.37-1.69,3.39.3,5.68-.17.27-.05,1.42-.71,1.54-.89.3-.45-.09-.72-.11-.97-.02-.23-.04-.68.26-.72,1.16,1.07,3.04,1.92,4.31,2.9,0,.29-4.39,3.27-4.7,3.33-.88.18-4.29-2.82-5.35-3.25-.66-.27-1.02-.16-1.63-.23"/>
  <path class="cls-24" d="M40.9,105.2c.02.24-.04.5-.02.73.06.5,1.09,1.38,1.52,1.53.92.33,1.7.16,2.58.26-2.08,1.49-4.24,2.81-6.44,4.12-.27.18-.44.11-.7-.01-.17-.08-2.74-2.14-2.97-2.37-.17-.17-.27-.38-.14-.51.09-.1,2.03-.68,2.54-.96.75-.42,3.17-2.28,3.64-2.8"/>
  <path class="cls-24" d="M25.41,81.19c-.56-.36-.75-3.27-.67-3.99.07-.67.81-3.83,1.67-3.73.21.03,1.33,2.48,1.65,2.93.5.7,2.1,1.82,2.01,2.61-.14,1.17-3.88,2.69-4.65,2.18"/>
  <path class="cls-24" d="M64.52,73.1c1.38-.92,2.42,4.27,2.31,5.28-.21,2.03-1.74,1.82-3.51,1.45-3.6-.74-.78-2.74.21-4.4.31-.52.89-2.26.99-2.33"/>
  <path class="cls-5" d="M55.57,81.18c.08.39.33.81.11,1.22-.09.17-2.39,1.98-2.88,2.49-1.3,1.37-1.37,3.1-2.93.79-.02-.44-.02-1.03.03-1.46l2.99-2.86c.96-.2,1.67-.3,2.68-.18"/>
  <path class="cls-5" d="M41.14,84.02c.23.75.03,2.59-.88,2.4-.39-.08-3.62-3.28-4.58-3.49.48-1.36,2.4-.44,3.08-1.39.86.33,2.11,1.61,2.38,2.49"/>
  <path class="cls-6" d="M5.45,132.65c-.88-.2-1.8-.28-2.67-.55-.24-1.32-.71-2.64-.88-4.16.6-.02.61.39.84.75.87,1.36,1.86,2.6,2.71,3.96"/>
  <path class="cls-24" d="M67.27,109.05c-.23-.26-.78-.25-.63-.82l3.44-1.39c.13.7-.85,1.17-.97,1.61-.11.43.4.89-.17,1.3-1,.72-1.22-.17-1.68-.7"/>
  <path class="cls-29" d="M43.86,92.85c-.22-.66-.48-1.72-.68-2.21,1.09.32,2.14,1.57.68,2.21"/>
  <path class="cls-24" d="M23.28,109.42c-.05-.05-.09-1.18-.22-1.45.2-.18,1.92.74,1.92.89,0,.4-1.44.83-1.7.56"/>
  <path class="cls-7" d="M7.13,123.19c.62.49,1.59-1.91-.34-2.19-3.06-.44-3.91,5.35-.78,6.01,2.97.63,6.67-4.01,9.38-5.27,8.88-4.14,12.77,9.18,20.19,8.17,4.49-.62,4.91-7.24-.07-6.55-2.02.28-1.5,2.91-.41,2,.19-.16.05-.66.83-.56,2.25.29.62,4.33-2.61,2.75-3.16-1.55-1.3-6.18,1.75-6.64,7.36-1.12,10.33,7.74,3.68,11.32-4.96,2.67-9.12-.31-12.76-3.62-1.42-1.29-3.48-4.26-5.39-4.61-2.56-.47-4.04,1.41-3.55,3.87.25,1.23,1.98,1.66,2.36.83.4-.86-.94-.47-1.15-1.29-.49-1.87,2.54-1.32,2.98-.19,1.68,4.31-5.67,6.06-6.16.87-.09-.92.06-1.85.03-2.77-.17-.21-3.23,2.31-3.63,2.55-3.2,1.94-7.29,2.59-9.02-1.53-1.83-4.33,2.72-9.77,6.44-6.63,3.06,2.58-1.47,7.72-3.23,4.52-.86-1.58,1.06-2.62,1.46-1.04"/>
  <path class="cls-7" d="M43.4,131.36c2.89-.82,3.05,3.54.19,2.83-1.49-.37-1.35-2.5-.19-2.83"/>
  <path class="cls-8" d="M72.61,146.1c-1.21.92-2.2,2.12-3.36,3.08-.8.66-6.37,4.87-6.8,4.97-.93.21-2.82-.33-3.2,1.39-4.55,1.56-9.21,3.08-14.07,3.35-.45.02-1.28.11-1.59-.29.39-.05.83.08,1.28-.02,1.53-.34,2.21-2.4,1.24-3.7-2.47-3.32-6.48,1.28-3.25,3.71-.05,0-.27.23-.59.24-4.26.07-8.36-1.43-12.25-2.97,0-.08.01-.17,0-.24-.13-1.09-.92-1.73-2.03-1.77-.35-.01-.72.24-.86.24-.92,0-7.16-5.17-8.16-6.14-.26-.25-.88-.97-.93-1.37,17.97,2.14,36.67,2.09,54.56-.47"/>
  <path class="cls-11" d="M45.9,139.48c1.88,1.52.64,5.41-2.53,4.68-3.95-.9-.83-7.4,2.53-4.68"/>
  <path class="cls-11" d="M26.94,138.06c2.82-.21,3.87,4.07,1.27,5.06-3.9,1.48-4.84-4.8-1.27-5.06"/>
  <path class="cls-11" d="M60.3,138.57c3.43-.49,3.67,4.48.99,5.03-3.55.74-4.43-4.54-.99-5.03"/>
  <path class="cls-11" d="M76.37,138.23c3.36,3.11-3.54,6.73-4.06,2.08-.24-2.12,2.47-3.56,4.06-2.08"/>
  <path class="cls-11" d="M13.77,141.85c-.16.04-.51-.02-.73-.02.02-.48-.31-.68-.58-.99-.56-.64-1.28-1.63-2.03-1.99,0-.29-.04-.72.02-.97.01-.06.2-.14.25-.24.2-.2.5-.62.75-.71,2.42-.94,4.48.77,3.76,3.31-.11.39-1.09,1.51-1.44,1.61"/>
  <path class="cls-28" d="M11.44,136.93c-.25.1-.55.51-.75.71.18-.35.04-.77.75-.71"/>
  <path class="cls-1" d="M43.59,158.6c-.23.03-.49-.03-.73-.02-3.22-2.42.78-7.03,3.25-3.71.97,1.3.29,3.35-1.24,3.7-.45.1-.89-.02-1.28.02"/>
  <path class="cls-28" d="M62.44,154.15c2.93,4.42-4.06,5.29-3.2,1.39.38-1.72,2.27-1.18,3.2-1.39"/>
  <path class="cls-28" d="M30.02,155.61c0,.08,0,.16,0,.24-.09,3.71-4.98,1.93-3.75-.81.08-.19.67-.7.86-.72.74-.08,1.94,1.47,2.89,1.28"/>
  <path class="cls-28" d="M18.46,152.99c1.22-.94,3.11.03,2.8,1.8-.56,3.24-5.23.07-2.8-1.8"/>
  <path class="cls-28" d="M69.72,152.41c2.22-.61,3.14,4.15-.32,3.31-1.61-.4-.94-2.96.32-3.31"/>
  <path class="cls-1" d="M30.02,155.61c-.96.19-2.15-1.36-2.89-1.28v-.24c.15,0,.51-.25.87-.24,1.11.04,1.9.68,2.03,1.77"/>
  <path class="cls-21" d="M63.81,104.5c3.02-.57.83.69-.65.94-2.7.45-4.9-.19-7.1-1.74-.58-.41-2.39-1.94-2.61-2.51-.45-1.19.85-.06,1.17.07-1.26-2.26-1.79-5.98-1.2-8.49,1.92-8.23,8.83-5.64,11.55.51,1.13,2.55,1.39,6.1.37,8.71-.39,1-1.12,1.6-1.52,2.52M56.34,91.7c-.64.39-.77,3.12.5,3.39,3.45.74,1.58-4.65-.5-3.39M63.61,98.98c-.47-.46-1.16-.74-1.82-.58-.35,2.5-2.73,5-4.51,1.99-.4-.67-.6-2.54-1.86-1.81-1.08.63.03,2.79.55,3.54,1.44,2.07,5.09,3.34,7.11,1.49,1.28-1.17,1.9-3.28.53-4.63"/>
  <path class="cls-21" d="M27.29,105.59c-.78-1.33,1.22-.09,1.68-.3-3.65-4.46-2.71-10.98,1.08-15.06,4.61-4.98,8.93.28,9.34,5.35.17,2.12-.41,5.87-1.31,7.79-.48,1.04-3.8,2.66-4.93,2.82-.93.13-5.45.11-5.86-.6M35.54,91.99c-.83-.3-1.77.7-2.01,1.4-1.11,3.26,3.29,3.28,2.71-.3-.03-.21-.64-1.08-.71-1.1M29.37,104.08c1.8,2,4.35,1.63,6.38.1,1.18-.89,3.17-4.3,2.27-5.63-.19-.28-1.08-.37-1.32-.23-.43.26-.13,4.32-2.96,4.51-2.6.18-2.27-3.38-2.69-3.7-.47-.35-1.8.75-2.08,1.18-.82,1.24-.55,2.69.41,3.76"/>
  <path class="cls-29" d="M45.91,91.36c-.8-.81-.56-2.74.79-2.32,1.64.52.42,3.54-.79,2.32"/>
  <path class="cls-21" d="M52.89,81.36l-2.99,2.86c.24-2.02,1.04-2.45,2.99-2.86"/>
  <path class="cls-14" d="M13.04,141.83c-2.1-.02-2.65-1.03-2.61-2.98.75.36,1.47,1.35,2.03,1.99.27.31.6.51.58.99"/>
  <path class="cls-13" d="M45.77,102.2c.72-.15,2.77-.28,2.45.81-.05.16-1.06,1.17-1.22,1.24-.78.33-3.36-1.62-1.23-2.05"/>
  <path class="cls-19" d="M63.61,98.98c1.36,1.35.75,3.46-.53,4.63-2.02,1.85-5.67.58-7.11-1.49-.52-.75-1.63-2.91-.55-3.54,1.26-.73,1.46,1.13,1.86,1.81,1.77,3.01,4.16.51,4.51-1.99.66-.16,1.36.12,1.82.58"/>
  <path class="cls-18" d="M56.34,91.7c2.08-1.26,3.95,4.13.5,3.39-1.27-.27-1.14-3-.5-3.39"/>
  <path class="cls-19" d="M29.37,104.08c-.96-1.07-1.22-2.52-.41-3.76.28-.43,1.61-1.52,2.08-1.18.42.31.09,3.88,2.69,3.7,2.83-.2,2.53-4.26,2.96-4.51.24-.14,1.13-.05,1.32.23.9,1.33-1.1,4.74-2.27,5.63-2.03,1.53-4.57,1.91-6.38-.1"/>
  <path class="cls-18" d="M35.54,91.99c.06.02.67.88.7,1.1.57,3.58-3.82,3.56-2.71.3.24-.7,1.18-1.69,2.01-1.4"/>
  <path class="cls-26" d="M168.11,12.76c.16.15.09.62.16.69.04.04.81.1.97.44,1.06,2.84,1.57,4.92,1.71,8,.27,6.01.32,13.72,0,19.71-.11,2.06-1.13,4.8-1.14,6.44-.67,1.21-.82,2.66-1.35,3.97-2.92,7.24-10.22,12.08-17.85,13.04-9.9,0-19.8-.02-29.69,0-.13-.23-.71-.23-.85,0-.47,0-.95,0-1.42,0-.96-.24-2.29-.24-3.26,0-2.77,0-5.77-.15-8.5,0-.14-.3-1.51-.06-1.56,0-.04.04.25.78.14.99-.57.73-.92,1.16-1.56,1.84-.92-.18-.65.32-.99.99-.16.04-.39-.03-.57,0v.57s-.09.1-.14.14c-.56-.12-.52.35-.71.57-.3.33-.42.3-.57.43-.36-.25-1.07.18-.85.71-.22.12-.3.19-.57.28-.19.07-.52-.17-.43.28-.43.25-.74.36-1.13.57l-.71-.28v.71s-.1-.02-.14,0c-.38.06-.56-.53-.57-.85,3.1-1.39,6.46-4.14,8.36-6.94.71-.15.45-.54.57-.85.35-.89.95-1.69,1.27-2.6l.29-.09h43.01c3.11-.35,6.38-1.07,9-2.83,1.92-.94,4.16-2.75,5.53-4.39.17-.21.21-.33.28-.42,2.38-2.45,3.77-5.6,4.39-8.93.02-.09-.01-.19,0-.28l.14-.28c.07-.45.28-1.42.28-1.77v-22.11c0-.2-.11-1.04-.14-1.35-.25-2.13-.98-4.15-1.84-6.09.02,0,.37-.24.42-.28"/>
  <path class="cls-26" d="M71.75,11.34c.06-.07.3-.07.39-.18.03-.03.08-.73.46-.39.11.1-.41.84.14.99-1.11,1.94-2.08,5.02-2.41,7.23-.13.89-.25,2.01-.29,2.9-.27,5.81-.27,13.06,0,18.86.05,1.18.23,2.58.43,3.75,1.38,8.2,8.19,14.87,16.29,16.51.85.17,5.5.75,5.97.43.54-.37-.54-3.28.84-3.2.16.17.35.12.42.5.46,2.51-.63,6.16-1.7,8.43-.43-.06-.75-.42-.71-.85.05-.09.1-.3.14-.43.14-.04.13-.16.14-.28.02-.19,0-.38,0-.57-10.89.56-21.15-7.34-22.96-18.14-.42-2.53-.07-3.66,0-6.02.23-6.7-.42-13.78,0-20.41.13-2.1,1.42-7.62,2.83-9.14"/>
  <path class="cls-26" d="M160.03,3.12c.05.38-.63.57-.71.85-2.87-1.36-5.92-2.49-9.14-2.69-5.75-.36-12.23.01-18.07,0-.19,0-.38,0-.57,0-14.01-.03-28.02.03-42.02,0-6.8.54-13.39,4.57-16.79,10.49-.56-.15-.03-.89-.14-.99-.38-.34-.43.35-.46.39-.09.11-.33.11-.39.18C75.22,4.79,82.15.57,89.53,0h60.23c3.04.22,5.85.91,8.62,2.14.57.26,1.21.78,1.65.97"/>
  <path class="cls-26" d="M92.29,67.17c-1.33,2.81-3.02,4.81-5.53,6.66,3.26.13,6.8-.51,9.78-1.84.01.32.19.91.57.85-2.09.97-4.29,1.82-6.66,2.13-1.08.14-2.81.19-3.9.15-.41-.02-2.04-.15-2.2-.35-.25-.31-.17-.77.15-1.01,2.77-1.46,4.63-3.36,6.24-6.01.26-.43.63-.97.85-1.42-.04.43.28.8.71.85"/>
  <path class="cls-26" d="M168.53,12.33c-.23.04-.33.35-.43.42-.06.04-.4.28-.43.28-.05.01-.9-.23-1.04-.3-.96-.47-1.98-2.42-3.07-1.54-1,.2-2.54,1.22-3.33.14-.63-.87.55-2.5.78-3.54,0-.03.14-.11.14-.22.03-.47-1.54-1.82-1.77-2.47-.09-.26-.14-.88-.08-1.13.08-.28.76-.47.71-.85.32.14,2.98.35,3.3.26.83-.25,1.61-3.88,3.49-2.45.79.6.74,3.06,1.14,3.4.76.64,3.56.22,3.55,1.98,0,1.36-2.24,1.8-3.07,2.62.27.99-.13,2.51.08,3.4M163.57,4.11c-.84.2-2.99-.61-3.51-.11-.64.63,1.01,2.11,1.38,2.66.07.1.32.43.33.45.43,1.05-1.46,2.93-.9,3.8.07.1.07.21.24.26.85.24,2.69-1.16,3.49-.95.46.12,1.7,1.71,2.29,1.97,2,.89.56-2.96,1-3.69.27-.45,2.06-1.05,2.62-1.7,1.22-1.4-2.29-1.51-3.09-1.87-.19-.14-.55-2.49-.77-2.99-.96-2.25-2.25,1.97-3.09,2.17"/>
  <path class="cls-26" d="M156.63,66.18s0-.27.32-.46c.47-.27,1.97-.68,2.66-.96,3.28-1.32,5.76-3.34,7.65-6.38.42-.68.54-1.09.85-1.7.28-.55.64-1.49,1.32-1.26.84.28-.4,2.31-.68,2.82-1.92,3.43-5.68,6.77-9.43,8-.7.23-2.53,1.01-2.69-.07"/>
  <path class="cls-26" d="M73.73,60.94c.25.21,1.08.79,1.13.99.32,1.21-.68.8-1.32.4-2.3-1.45-5.88-6.15-6.16-8.87-.06-.6.45-.98.97-.67.19.12.65,1.89.82,2.3,1.02,2.43,2.59,4.21,4.56,5.86"/>
  <path class="cls-26" d="M77.95.6c.59-.12,1.15.3.82.83-.1.16-1.33.74-1.62.93-2.42,1.59-4.4,3.54-5.81,6.09-.32.39-.96.2-1.01-.3-.06-.61,1.59-2.78,2.06-3.33.98-1.14,4.16-3.94,5.56-4.22"/>
  <path class="cls-26" d="M169.24,13.89c-.17-.35-.93-.4-.97-.44-.07-.07,0-.54-.16-.69.1-.07.2-.39.43-.42.03.12.57,1.18.71,1.56"/>
  <path class="cls-9" d="M164.57,54.28c-1.36,1.65-3.61,3.45-5.53,4.39-2.66,1.31-5.47,2.18-8.43,2.56h-43.58c.12-1,1-2.16,1.01-3.25h6.5c.97,1.44,2.76,1.18,3.83-.01,6.08-.09,12.27.13,18.28,0,.04.44-.36.66-.42,1.07-.23,1.48,1.41,2.1,2.59,1.45.79-.44.68-1.74.67-2.52,6.02-.12,11.75.68,17.47-1.59,1.04-.42,2.18-1.18,3.22-1.52.53-.18,1.75-.02,1.56-.71.21.11,1.61.53,1.8.54.25,0,.69-.43,1.04-.39"/>
  <path class="cls-16" d="M159.04,58.67c-2.62,1.76-5.89,2.48-9,2.83h-43.01c0-.09-.01-.19,0-.28h43.58c2.96-.37,5.77-1.25,8.43-2.55"/>
  <path class="cls-9" d="M164.85,51.73c.53-.56.44-.81.7-1.36.11-.25.43-.57.58-.25.7,1.48-.45,2.66-1.27,3.74-.07.09-.11.22-.28.42-.35-.04-.79.4-1.04.39-.18,0-1.58-.43-1.8-.54-.08-.04-.15-.17-.28-.14.28-.56.92-.71,1.42-.99.76-.43,1.34-.61,1.98-1.28"/>
  <path class="cls-9" d="M169.24,44.93c-.62,3.33-2.01,6.47-4.39,8.93.82-1.07,1.97-2.25,1.27-3.74-.15-.32-.46,0-.58.25-.25.55-.16.8-.7,1.36.22-.69.68-1.38.71-2.13.34-.23.48.39.57.28.15-.19.35-.64.57-.92.96-1.19,1.54-2.23,2.19-3.63.1-.21-.03-.5.36-.42"/>
  <path class="cls-16" d="M167.68,13.04c.86,1.94,1.59,3.97,1.84,6.09-.38.08-.27-.19-.35-.42-.75-2.13-1.61-4-2.99-5.81-.17-.22-1.52-1.73-1.62-1.78-.29-.13-.68.01-.99.07,1.09-.88,2.11,1.07,3.07,1.54.14.07.99.31,1.04.3"/>
  <path class="cls-26" d="M106.89,65.05c-.24.01-.48-.06-.71.07-.18.36-.48.63-.71.92.1-.21-.18-.95-.14-.99.05-.06,1.42-.31,1.56,0"/>
  <path class="cls-26" d="M103.91,67.88c-.33.35-.3.84-.99.99-.25.49-.25.26-.57.57v-.57c.18-.03.41.04.57,0,.34-.68.07-1.18.99-.99"/>
  <path class="cls-26" d="M118.65,65.05c-1.09,0-2.17,0-3.26,0,.96-.24,2.29-.24,3.26,0"/>
  <path class="cls-26" d="M100.94,70.58c-.3.27-.43.48-.85.71-.22-.53.49-.96.85-.71"/>
  <path class="cls-26" d="M97.96,72.42c-.19.1-.36.26-.71.42v-.71s.71.28.71.28Z"/>
  <path class="cls-26" d="M104.91,65.05c.18-.27.22-.69.57-.85-.12.31.14.7-.57.85"/>
  <path class="cls-26" d="M102.21,69.58c-.2.17-.33.51-.71.57.19-.21.15-.68.71-.57"/>
  <path class="cls-26" d="M120.92,65.05h-.85c.14-.23.72-.23.85,0"/>
  <path class="cls-26" d="M99.52,71.57c-.05.28-.31.22-.42.28-.09-.46.24-.22.42-.28"/>
  <path class="cls-4" d="M169.24,44.64c.04-.23.14-.27.14-.28l-.14.28Z"/>
  <path class="cls-9" d="M131.55,1.28c-.29.79-.61,1.61-.85,2.41-10.96-.07-21.92.09-32.88,0-.76,0-.83-.14-1.7.14-1.8-.13-3.65-.23-5.46-.15-8.72.39-17.76,6.08-20.03,14.84-.07.25.15.56-.3.47.33-2.21,1.3-5.29,2.41-7.23,3.4-5.93,9.99-9.95,16.79-10.49,14.01.03,28.02-.02,42.02,0"/>
  <path class="cls-9" d="M70.47,44.5c.64.42.74,1.28,1.11,1.94,4.07,7.24,11.02,11.01,19.23,11.52.72.04,2.11-.14,2.67,0,.17.04.07.27.09.29-1.39-.08-.31,2.82-.84,3.2-.46.32-5.12-.26-5.96-.43-8.1-1.64-14.91-8.31-16.29-16.51"/>
  <path class="cls-26" d="M91.73,65.9c.04-.1.01-.22.14-.28-.01.12,0,.25-.14.28"/>
  <path class="cls-9" d="M159.32,3.97c-.07.25-.01.86.08,1.13.22.66,1.8,2,1.77,2.47,0,.12-.14.19-.14.23-.29-.76-1.39-1.3-2.1-1.66-3.11-1.57-6.55-2.31-10.01-2.46-4-.17-8.11.14-12.12,0,.02-.13-.02-.29,0-.43.03-.23.42-.52-.09-.83l-4.58-1.16c5.84.01,12.32-.36,18.07,0,3.22.2,6.27,1.33,9.14,2.69"/>
  <path class="cls-30" d="M132.11,1.28l4.58,1.16c.51.31.12.6.09.83-.26.42-.45.45-.92.43-1.36-.03-2.98-.46-4.32-.72.28.76-.1.45-.3.9-.23.53-.18,1.34-.27,1.79-.02.09.01.19,0,.28-.54.04-.41.9-.71,1.35-.63.96-2.6,1.01-2.84-.21.41.08,1.07-.54,1-.92-.02-.11-.28-.06-.29-.07-.05-.07.13-.43.14-.57.21-.03.64-.03.85,0-.12.35.9.79.99.71.02-.13-.03-.31,0-.42.18-.7.36-1.43.57-2.13.24-.8.56-1.62.85-2.41h.57"/>
  <path class="cls-8" d="M163.57,4.11c.84-.2,2.12-4.42,3.09-2.17.21.5.58,2.85.77,2.99.8.36,4.3.47,3.09,1.87l-.22-.57c-.35,0-2.36,1.28-2.62,1.63-.73.98-.2,1.81-.45,2.66-.35,1.16-1.94-.67-2.33-.87-.75-.39-2.11.33-2.89.62-.54.2-.66-.01-1.13.64-.56-.87,1.33-2.75.9-3.8-.01-.03-.26-.35-.33-.45,1.42-.19,2.29-1.09,2.13-2.55"/>
  <path class="cls-8" d="M160.88,10.92c.47-.64.59-.43,1.13-.64.78-.29,2.14-1.02,2.89-.62.38.2,1.98,2.03,2.33.87.26-.85-.28-1.68.45-2.66.26-.35,2.27-1.64,2.62-1.63l.22.57c-.56.65-2.35,1.25-2.62,1.7-.44.74.99,4.58-1,3.69-.59-.26-1.83-1.85-2.29-1.97-.79-.21-2.64,1.18-3.49.95-.16-.05-.17-.16-.24-.26"/>
  <path class="cls-8" d="M163.57,4.11c.16,1.47-.71,2.37-2.13,2.55-.37-.55-2.02-2.03-1.38-2.66.52-.51,2.66.3,3.51.11M162.87,5.25c.37-.8-1.39-1.1-1.55-.62-.29.88,1.01.59,1.55.62"/>
  <path class="cls-26" d="M88.18,12.76c.66,3.13.09,6.52.28,9.71.05.48.49.33.85.35,1.38.08,2.73-.07,4.11.28v-2.9c0-.94.94-3.23,1.44-4.08,2.9-4.9,10.24-5.57,13.93-1.23l.99,1.28c.17-2.1,1.9-3.21,3.76-3.75,3.52-1.02,7.88-.71,10.34,2.27.36.44.51,1.05.99,1.34-.12-3.51,3.89-5.3,6.33-2.7,1.09-.91,2.19-1.42,3.65-1.25.79.09,2.09.62,2.36,1.4,1.29-1.36,2.88-1.87,4.66-1.05.28.13.71.58.96.6.1,0,1.33-.64,1.75-.76,4.08-1.08,7.36.96,8.36,5.03.65,2.63.57,7.94.27,10.68-.32,2.93-2.66,5.24-5.65,3.77-1.13-.55-1.88-1.92-2.13-3.12-.03-.18-.13-.35-.14-.42v-.57c0-.38.02-.76,0-1.13-.03-.56-.13-1.08-.14-1.7.23-.15.14-.54.14-.78.01-1,.08-2.22,0-3.19,0-.09.02-.23,0-.28-.08-.18-.23-.19-.43-.14-.27.07-.26.26-.29.49-.2,1.59.02,3.92,0,5.6-.25.19-.13.68-.14.99-.08,2.98-1.99,5.64-5.24,4.39-2.42-.93-2.72-3.73-2.83-5.95v-.28c-.04-.99,0-2.02,0-2.98,0-.61,0-1.23,0-1.84-1.12.38-2.36.52-3.37,1.16-.27,2.85.77,7.58-1.88,9.53-.09.07-.79.49-.84.51-.36.12-1.02.12-1.42.14-.07.41.11.25.43.28.18.02.38,0,.57,0,.19,0,.38,0,.57,0,.71.03,1.57-.02,2.27.14,1.74.41,3.11,2.52,2.69,4.25,2.02-.33,3.53.91,3.97,2.84.45,1.93-.04,4.51.14,6.52h.42c.08-1.87-.11-3.81,0-5.67,0-.09,0-.19,0-.28,0-.05,0-.1,0-.14.47-3.53,4.27-4.61,6.02-1.42l1.27-1.42c.62-.46,1.64-.54,2.38-.39.41.08,1.05.66,1.31.67.23,0,.76-.37,1.09-.46,2.96-.83,5.42-.08,6.63,2.87.33.02,0-.28,0-.35v-2.98c0-.41.21-1.64.33-2.08.84-3.12,4.95-3.22,6.01-.14.1.29.12.59.18.88.45,2.26.4,7.64-.32,9.81-.13.38-.81,1.37-.81,1.45,0,.08.94.69,1.14,1.07.16.31.44,1.62.42,1.98-.03.75-.49,1.44-.71,2.12-.64.67-1.23.85-1.98,1.28-.73.01-1.73.01-2.41-.28-.03-.01-.54-.4-.57-.42-.36-.32-.59-.91-.84-1.19-.29-.32-.55.54-.86.84-.88.85-2.23,1.19-3.41.77-.66-.24-1.29-1.08-1.56-1.7-.32-.72-.37-1.21-.42-1.98,0-.05,0-.1,0-.14-.04-.77.19-5.2,0-5.39-.02-.02-.57-.03-.57,0v6.02c0,.22-.36,1.37-.49,1.64-.73,1.58-2.48,2.13-4.04,1.41-.5-.23-.72-.55-1.13-.85-.11-.17-.31-.96-.57-.71-.03.03-.07.48-.28.78-.82,1.18-2.19,1.39-3.48.93-.28-.1-.44-.41-.69-.43-.3-.02-1.69.63-2.35.7-.04,0-.77,0-.85,0-.79-.03-2.02-.3-2.69-.71-1.51-.92-2.1-2.83-2.55-4.39-.03-.1-.11-.19-.14-.28v-.43c0-.38,0-.76,0-1.13-.1-.11-.93.55-1.13.64-1,.44-2.05.36-3.12.35,0,1.94-.16,5.04-2.21,5.94-.87.38-2.02.41-2.89.01-1.22-.55-1.98-2.26-2.23-3.51-.57-2.94-.67-11.67.46-14.34.19-.45.7-1.25,1.06-1.56.19-.16.88-.56,1.13-.71.27,0,.56-.04.71-.28.05,0,.1,0,.14,0,1.21-.16,2.46-.15,3.68-.14.07-.4-.1-.23-.31-.32-.55-.22-1.36-.42-1.81-.81-.3-.26-.73-1.27-1.06-1.28-.78,2.01-3.24,2.74-5.08,1.68-.2-.11-.47-.5-.59-.51-.1,0-1.46.66-1.89.77-1.95.51-4.06.34-5.84-.67-.22-.13-.82-.55-.99-.71-.2-.19-.84-1.34-1.13-1.13-.02.01-.03.23-.14.35-2.87,3.03-8.47,3.23-11.91,1.07-.23-.15-.49-.25-.71-.43-.17-.14-.88-1.18-1.13-.99-.22.79-1.26,1.72-1.99,2.05-2.36,1.08-9.01.98-11.34-.21-.77-.4-1.82-1.62-2.2-2.4-1.42-2.91-1.46-14.09-.45-17.18.78-2.4,2.94-3.59,5.38-2.77,1.65.55,2.46,2.2,2.8,3.79M86.91,24.1c-.09-.51.13-1,.15-1.48.09-2.57.33-9.01-.64-11.13-.9-1.94-3.6-2.12-4.81-.42-1.28,1.8-1.18,8.63-1.08,10.98.1,2.4.17,6.55,2.6,7.74,1.97.97,7.99,1.04,10.01.18,1.83-.77,2.46-3.01,1.21-4.61-1.58-2.01-5.21-1.27-7.44-1.27M118.79,19.56c-4.62-.5-9.42.77-8.77,6.43.54,4.63,6.38,5.94,9.56,3.07.65.47.73,1.19,1.72,1.38,2.25.42,2.99-1.22,3.15-3.16.24-2.89.24-9.05-1.25-11.5-1.71-2.82-6.29-3.1-9.19-2.33-2.01.54-3.79,1.9-2.73,4.19,1.27,2.73,4.88-.74,6.86.65.4.28.71.77.64,1.28M95.69,26.5c2.16,4.22,8.5,5.61,12.17,2.75,1.3-1.01,1.81-3.01.44-4.17-1.47-1.24-2.66-.13-4.1.22-1.45.35-3.54.3-4.11-1.35,1.92-.11,3.99.15,5.89,0,2.68-.2,3.6-1.21,3.47-3.91,0-.19-.14-.31-.15-.34-.29-3.09-1.78-5.55-4.96-6.31-7.95-1.89-11.93,6.7-8.65,13.11M130.08,13.8c-1.24-1.14-3.31-.5-3.85,1.08-.64,1.89-.5,8.87-.36,11.13.13,2.16.53,4.81,3.32,4.44,3.23-.43,2.14-6.35,2.34-8.57.27-2.87,4.91-1.28,5.38-4.68.62-4.46-3.96-5.48-5.8-1.76-.45-.44-.55-1.2-1.04-1.65M139.87,13.22c-1.08.17-1.7.98-1.99,1.98-.64,2.18-.59,10.27-.2,12.62.53,3.16,4.2,3.69,5.14.81.25-.75.32-2.33.36-3.18.09-1.92-.1-3.86.02-5.79.73-1.29,2.98-1.44,3.22.27.36,2.54-.58,6.84.41,9.08.8,1.82,3.23,1.95,4.34.32.82-1.21.56-2.55.64-3.89.27-4.65,1.01-12.96-6.02-12.25-1.27.13-2.27.81-3.26,1.56-.51-1.03-1.46-1.72-2.66-1.53M111.42,19.98c.14-.2-.58-.86-.71-.71v.99l.71-.28ZM160.17,43.93c.15.6.09,1.41.89,1.74,3.04,1.22,3.01-3.66,3.08-5.42.05-1.43.2-4.63-.32-5.84-.79-1.87-3.28-1.63-3.89.29-.19.58-.3,1.74-.33,2.36-.09,1.99.12,4.99.57,6.88M127.44,33.45c-2.22.16-3.77-.16-4.68,2.27-.49,1.3-.64,2.8-.71,4.18-.11,2.27-.2,8.87.79,10.69.81,1.49,2.8,1.7,3.81.28,1.07-1.5.57-3.67.93-5.31,2.44.5,6.04-.32,4.71-3.56-.3-.73-1.47-1.46-2.23-1.46h-2.62v-2.12h4.61c.71,0,1.87-.95,2.02-1.66.27-1.21.07-2.12-.96-2.73-.21-.13-.04-.22-.57-.28-.05,0-.09,0-.14,0-.47-.43-1.14-.24-1.7-.28-.02,0-.03-.13-.28-.14-.75-.04-1.65-.03-2.41,0l-.57.14ZM146.6,39.99c-.04.09.13,1.49.11,1.89-.11,2.36-.25,4.7,0,7.08.18,1.72,1.48,3.31,3.28,2.15,1.78-1.15.86-6.44,1.14-8.35.33-.77,1.77-.92,2.32-.39,1.15,1.12-.71,7.39,1.27,8.79,1.1.78,2.6.17,3.01-1.1.6-1.87.52-8.2-.24-10.03-1.22-2.96-4.84-2.86-6.95-.92-.75-1.87-2.83-1.74-3.62.14-.12.28-.23.55-.31.74M140.57,46.86c-.54.54-1.81.53-2.15-.23-.97-2.19,1.42-9.28-2.7-8.79-1.27.15-1.62,1.56-1.77,2.63-.31,2.27-.31,7.13.79,9.12,1.39,2.5,4.8,2.54,6.78.72.9,2.15,3.33,1.26,3.6-.79.34-2.55.34-7.2,0-9.75-.27-2-2.63-2.69-3.7-1.03-1.03,1.61-.29,5.44-.53,7.4-.03.27-.15.54-.34.72M133.1,39.68l-1.7.28c.38-.13,1.42,1,1.56.85l.14-1.13ZM159.18,47.05c1.32-.42.67-1.26,0-1.98v1.98ZM159.75,49.89c.06.19.03.34.14.57.63,1.24,2.16,1.5,3.33.85,1.14-.63,1.4-2.35.77-3.41-.39-.66-1.23-1.07-1.98-1.13-1.36-.11-2.46.87-2.51,2.23-.02.44.15.56.25.88"/>
  <path class="cls-26" d="M81.52,52.15c-.42-.19-.69-.43-.99-.78-.99-1.2-2.43-6.44-2.77-8.14-.25-1.28-.52-2.6.43-3.68.98-1.1,2.89-1.18,3.96-.15.42.41.52,1,.77,1.33.11.14.12.11.29.09.52-1.51,1.82-1.89,3.32-1.69,1.14.16,1.55,1.05,2.21,1.83.12-1.24,1.56-2.32,2.76-2.27.58.02,1.15.5,1.77.43.03-.34-.32-.46-.45-.75-.54-1.22,0-3.53,1.41-3.89.39-.1,2.23-.1,2.63,0,.74.17,1.55,1.46,1.65,2.18.05.39-.17,2.17-.06,2.19.57.08.31-.61.45-1.11.89-3.11,4.47-3.04,5.44-.1.35,1.06-.15,1.26,1.41,1.35.02-1.56.41-3.84,2.23-4.22,2.44-.5,3.76,1.78,3.58,3.94,2.99-.72,5.17,1.07,5.67,3.97.25,1.46.35,6.48-.07,7.79-.54,1.69-1.94,2.23-3.61,1.84-.26-.37-.73-.48-1.13-1.13-.39-.64-.64-1.53-.71-2.27-.13-1.4.09-2.97,0-4.39-.42-.08-.26.16-.28.42-.1,1.42.09,2.96,0,4.39-.14,2.16-1.36,3.61-3.68,2.98l-.28-.14c-.22-.15-.6-.62-.78-.85-.66.44-1.3,1.01-2.14,1.12-.7.1-2.55.02-3.18-.27-.52-.24-1.54-1.45-1.84-1.98-.07-.12-.01-.37-.28-.42,0-.05,0-.1,0-.14-.06-.29.06-.65-.28-.85-.01-.04.01-.1,0-.14-.1-1.24-.03-2.52-.13-3.76-.02-.25.03-.46-.22-.63-.34-.07-.2.28-.21.49-.05,1.2,0,2.42,0,3.61v1.42c-.44,1.85-1.58,3.25-3.68,2.55-.64-.21-1.11-.7-1.42-1.27-.16-.3-.31-.62-.39-.96l-.32-2.3c-.56,2.9-1.57,5.46-5.1,4.53-.2-.28-.36-.45-.71-.57l-.99-1.56c-.39,2-2.44,2.81-4.25,1.98M95.24,35.18c-2.25.31-2.1,3.48-.17,3.79,3.28.52,3.01-4.18.17-3.79M110.43,40.25v-2.62c0-.55-.51-1.54-1.03-1.8-1.23-.61-2.1.11-2.44,1.3-.49,1.74-.38,9.18-.22,11.27.11,1.44.65,3.02,2.42,2.55.64-.17,1.06-.93,1.13-1.56.19-1.56-.29-3.93.03-5.36.26-1.14,2.08-1.33,2.35-.14.34,1.51-.74,6.64,1.26,7.1.94.21,1.7-.09,2.06-1,.45-1.14.36-6.34.08-7.65-.5-2.29-2.38-3.39-4.64-2.58-.38.14-.62.44-1,.49M103.35,39.68c0-1.11.02-2.94-1.38-3.23-1.97-.4-2.16,1.62-2.17,3.08-1.72-.16-3,2.05-1.48,3.12.53.37,1.36.18,1.47.52.22.67-.05,3.01.02,3.95.06.83.27,1.97.73,2.67,1.56,2.36,6.5,1.33,5.35-1.52-.58-1.43-2.04-.39-2.46-1.08-.53-.87-.03-3.22-.07-4.25,3.55.58,3.57-3.89,0-3.26M80.53,49.18c.34.83.59,1.67,1.64,1.83,2.36.37,2.38-1.24,2.9-2.97.12-.42.23-1.01.39-1.38.09-.19.02-.22.32-.18.29.73.45,1.53.71,2.27.03.07.13.12.14.14.02.04-.01.1,0,.14.24.66.3,1.43,1.1,1.81,1.4.68,2.49-.01,3.02-1.31.69-1.69,1.59-4.66,1.98-6.45.25-1.15.73-2.78-.77-3.27-2.58-.84-2.7,3.25-3.19,4.9-.06.21.08.25-.29.21-.25-1.08-.7-4.11-1.65-4.66-1.38-.79-2.83.24-3.09,1.69l-.92,3.11c-.53-1.6-.53-6.43-3.37-5.28-1.49.6-.8,2.72-.53,3.86.39,1.69.98,3.93,1.63,5.53M95.09,39.86c-.58.13-1.14.9-1.22,1.47-.28,1.91-.35,5.72-.15,7.64.07.71.44,1.85,1.23,2.03,1.55.35,2.14-.68,2.29-2.04.18-1.64.13-4.68.01-6.36-.1-1.36-.32-3.16-2.16-2.74M105.76,46.63v-2.55l-1.28.36c.07.31-.07,1.98,0,2.05.05.04,1.07.03,1.28.14"/>
  <path class="cls-3" d="M161.27,22.57c5.53-.72,6.4,7.65,1.37,8.31-5.94.78-6.67-7.62-1.37-8.31M161.01,24.68c-.39-.27-.99.28-.81.88.32,1.07,1.36-.49.81-.88M163.98,25.39c-.79-.54-1.34,1.61-.22,1.24.4-.13.46-1.08.22-1.24M159.89,26.51c-.12-.08-.5.02-.56.23-.19.73.96,1.91,1.62,2.18,1.1.45,2.98.07,3.05-1.28-.7-.14-.83.57-1.44.75-.83.26-1.83,0-2.31-.76-.18-.29-.31-1.1-.36-1.13"/>
  <path class="cls-3" d="M72.98,32.06c2.77-.47,4.99,1.99,3.75,4.6-1.24,2.61-5.2,2.41-6.08-.35-.54-1.69.51-3.94,2.33-4.25M75,33.59c-.56-.37-.81.99-.35,1.13.7.21.49-1.04.35-1.13M72.24,34.16c-.46.14-.15,1.15.42.99.44-.12.1-1.15-.42-.99M75.71,35.15c-.38-.38-.7.73-.85.92-.4.51-.96.59-1.57.42-.16-.04-1.59-1.15-1.25-.31.27.69,1.46,1.05,2.14.91.63-.13,1.93-1.53,1.52-1.95"/>
  <path class="cls-3" d="M148.23,5.43c4.37-.68,4.85,5.14,1.35,5.74-4.2.71-4.86-5.19-1.35-5.74M148.12,6.95c-.63-.22-.77.81-.35.99.55.24.51-.74.35-.99M150.24,8.07c.21-.13.21-1-.2-1.12-.6.25-.33,1.45.2,1.12M150.28,8.54s-.21.43-.46.6c-.96.68-1.8.11-2.34-.77-.24-.03-.23,0-.21.21.07,1.39,2.24,1.82,3.12.71.32-.4.45-1.08-.12-.75"/>
  <path class="cls-3" d="M97.82,3.69c.16,1.72,1.21,3.24,1.42,4.96.01.12,0,.25.14.28.01.04-.01.1,0,.14-.38,1.42-1.57,1.74-2.83,1.13-.5-1.38.5-2.12,1.84-1.99.03-.47-.17-.88-.32-1.31-.11-.32-.66-1.31-.67-1.38,0-.05.21-.37.14-.42-.31-.25-3.33,1.16-3.97,1.13-.11.29.26.36.28.42.03.09-.02.29.04.45.29.85,1.19,3.07,1.24,3.8-.86,1.05-1.59,1.62-2.98.99-.53-1.35.53-2.26,1.84-2.13.27-.26-1.55-4.2-1.26-4.66.09-.13,2.6-.9,3.01-1.04.18-.06.33-.24.38-.25.87-.28.94-.15,1.7-.14"/>
  <path class="cls-9" d="M147.56,31.75c2.99,1.47,5.33-.85,5.65-3.77.3-2.75.38-8.05-.27-10.68.42-.03.34.24.44.48,1.09,2.54.98,7.69.84,10.51-.08,1.64-.17,3.47-1.5,4.6-1.56,1.32-4.49.95-5.17-1.13"/>
  <path class="cls-9" d="M97.11,30.47c-.3,1.62-1.57,2.49-3.08,2.8-2.46.5-8.06.68-10.23-.61-.28-.17-1.39-.92-1.14-1.34,2.32,1.2,8.98,1.29,11.34.21.73-.33,1.77-1.26,1.99-2.05.26-.19.96.86,1.13.99"/>
  <path class="cls-8" d="M118.37,50.17c.15,1.45,1.73,1.24,2.27,2.05.14.2.43,1.02.43,1.28,0,.38-.21,1.36-.72,1.35.5-1.53-.6-2.32-1.99-2.55v4.18s.15.22.15.42c0,.32-.24.7-.15,1.07-1.06,1.19-2.86,1.45-3.83,0-.34-1.99,1.39-2.87,3.11-2.19-.25-.74-.14-1.68-.14-2.48,0-.91-.43-3.34.85-3.12M115.49,56.14c-.38.1-.53.73-.16.83.64.17.93-1.03.16-.83"/>
  <path class="cls-9" d="M123.61,53c.87.39,2.02.37,2.89-.01,2.05-.9,2.2-3.99,2.21-5.94,1.07,0,2.12.09,3.12-.35.21-.09,1.04-.75,1.13-.64,0,.38,0,.76,0,1.13-.35.12-.03.34,0,.42.03.1.11.19.14.28-.29.22-1.17.57-1.49.57h-2.05c.04,2.39-.06,6.06-3.19,6.24-1.03.06-2.77-.43-2.76-1.7"/>
  <path class="cls-9" d="M111,30.61c.06.74-1.14,1.71-1.74,2.01-2.84,1.42-6.41,1.43-9.3.18-.76-.33-2.26-.93-2.13-1.91,3.43,2.17,9.04,1.97,11.91-1.07.11-.12.12-.34.14-.35.3-.21.93.95,1.13,1.13"/>
  <path class="cls-9" d="M126.45,31.32c0,.16-.27.94-.3.97-.13.11-1.03-.07-1.25.31-.05,0-.09,0-.14,0-.46.06-.39.1-.71.28-.26.15-.95.55-1.13.71-.68.38-1.98-1.16-2.18-1.12-.15.03-.33.38-.53.48-1.56.79-4.32.91-5.94.29-.8-.31-2.06-1.03-2.27-1.91,1.78,1.01,3.88,1.18,5.84.67.42-.11,1.78-.78,1.89-.77.12,0,.39.39.59.51,1.84,1.06,4.3.33,5.08-1.68.33,0,.76,1.01,1.06,1.28"/>
  <path class="cls-9" d="M130.27,32.03s.75-.44.84-.51c2.65-1.95,1.61-6.68,1.88-9.53,1.01-.64,2.25-.78,3.37-1.16,0,.61,0,1.23,0,1.84-.47.18-2.23.48-2.39.94-.23,1.98-.02,4.1-.18,6.05-.09,1.04-.22,2.3-1.12,2.92-.69-.16-1.55-.12-2.27-.14l-.14-.42Z"/>
  <path class="cls-9" d="M112.42,51.16c-.38,1.86-1.24,3.21-3.38,2.6-.68-.2-1.14-1.11-1.51-1.05-1.2,1.61-4,1.61-5.53.43-.13-.1-.97-.78-.64-.99.63.29,2.47.37,3.18.27.83-.11,1.47-.68,2.14-1.12.18.23.56.7.78.85.13.09.1.09.28.14,2.32.64,3.55-.81,3.68-2.98h.14l.14-.42c.07.74.32,1.63.71,2.27"/>
  <path class="cls-9" d="M145.29,20.55c.02.05,0,.19,0,.28-.19.1-.11.29-.14.43-.34,1.34-.16,3.95-.14,5.46,0,.24-.09.63.14.78,0,.05,0,.1,0,.14.03.28.14.5.14.57,0,.07.12.25.14.42.09.62-.28,2.45-.54,3.08-.68,1.66-1.93,2.05-3.64,1.88-.72-.07-2.5-.73-2.06-1.7,3.25,1.25,5.17-1.41,5.24-4.39.25-.19.14-.68.14-.99.02-1.69-.2-4.02,0-5.6.03-.23.02-.42.29-.49l.42.14Z"/>
  <path class="cls-8" d="M73.73,25.37c-.17-.17.17-1.51.12-1.74-.07-.29-.77-.67-.89-.95-.56-1.25,1.16-.63,1.6-.88.27-.15.45-1.54.95-1.54.58,0,.65,1.18,1,1.42.34.23,1.7.21,1.76.51,0,.58-1,1.05-1.11,1.45-.14.5.48,1.44.13,1.67-.68.44-1.27-.55-1.77-.51-.4.03-1.11.87-1.78.57"/>
  <path class="cls-3" d="M115.96,9.64c-.68.15-1.42-.38-1.98.08-.28.23-.72,1.28-1.29.85-.26-.19-.2-1.5-.29-1.62-.18-.22-1.5-.31-1.55-.8-.07-.77,1.18-.79,1.36-1.06.25-.37-.18-1.34.27-1.72.6-.51,1.15.89,1.59.97.39.08,1.44-.64,1.69-.26.37.56-.54,1.16-.5,1.77.03.56.97,1.02.71,1.78"/>
  <path class="cls-8" d="M139.2,53c.11.74,1.29.93,1.7,1.28.16.14.54.85.57,1.08.04.47-.47,1.54-.56.84-.07-.55.12-.71-.42-1.14-.38-.3-.81-.38-1.28-.35.11,1.05.26,2.21.28,3.26.01.78.12,2.08-.67,2.52-1.17.66-2.81.03-2.59-1.45.06-.42.46-.63.42-1.07.69-.01,1.3-.49,2.13-.14-.18-1.15-.19-2.36-.28-3.54-.03-.43.1-.88-.14-1.28.08,0,.81,0,.85,0"/>
  <path class="cls-3" d="M157.65,15.14c.46.27,1.63-.41,1.8.12.17.52-.63,1-.67,1.42-.04.4.77,1.17.54,1.75-.53.14-1.29-.38-1.74-.26-.43.12-.8,1.17-1.43.96-.48-.16-.05-1.34-.29-1.7-.21-.3-1.88-.37-1.33-1.25.08-.13,1.3-.29,1.47-.58.23-.39-.05-2.13,1-1.43.29.19.57.92.66.97"/>
  <path class="cls-3" d="M136.79,3.26c-.02.14.02.3,0,.43-.16.84-1.33,5.31-1.7,5.74-.99,1.18-4.04.26-3.22-1.8.53-1.32,2.02-.98,3.07-.54,0-.94.7-1.74.56-2.69-.76-.03-3.15-.9-3.73-.7-.38.13-.36,1.65-.8,1.97.08-.44.03-1.26.27-1.79.2-.46.58-.15.3-.9,1.34.26,2.96.68,4.32.72.48.01.66-.01.92-.44M132.82,7.23c-.21.25-.26.54-.28.57-.06.06-.44-.01-.41.33.1,1.09,2.42,1.49,2.93.56.07-.12.52-1.54.46-1.6-.4-.35-.49.53-.64.57-.5-.17-.66-.61-1.25-.57-.11,0-.19.14-.23.14-.13.02-.29-.01-.42,0l-.07-.14c-.08.03-.05.12-.07.14"/>
  <path class="cls-9" d="M165.13,47.62c-.19-.38-1.14-.99-1.14-1.06,0-.08.68-1.07.81-1.45.73-2.17.78-7.55.32-9.81.57.09.85,1.19.95,1.67.41,1.87.22,8.44-.52,10.17-.1.23-.18.39-.43.49"/>
  <path class="cls-9" d="M93.29,51.02c-.44.54-.55,1.39-.99,1.92-1.04,1.26-3.52,1.27-4.51-.02-.17-.23-.22-.49-.31-.62,3.53.92,4.54-1.64,5.1-4.53l.32,2.3c.07.34.22.66.39.96"/>
  <path class="cls-30" d="M118.79,34.3c.2.42.06,1.11.27,1.46.19.31,1.15.27,1.15.73,0,.55-1.16.63-1.26.8-.12.19.06,1.05-.17,1.39-.57.14-.83-.71-1.23-.83-.45-.13-1.04.32-1.46.05-.4-.25.43-.99.44-1.42,0-.51-.57-.94-.44-1.49.4-.17,1.07.31,1.33.26.37-.07.8-1.13,1.36-.96"/>
  <path class="cls-9" d="M98.95,48.61s-.01.1,0,.14c.07.28,0,.63.28.85,0,.04,0,.1,0,.14.02.11.14.26.14.42.04,1.58-.33,3.51-2.19,3.69-1.08.11-2.51-.28-2.49-1.57,2.1.7,3.25-.7,3.68-2.55.05-.21.37-.6,0-.85v-.57h.2c.15-.12,0-.34.23-.28-.08.24.1.42.14.57"/>
  <path class="cls-9" d="M117.23,42.66c.35-.08.4.34.49.57.94,2.31.4,4.62.64,6.94-1.28-.22-.85,2.21-.85,3.12-.42.32-.74.5-1.28.57-.08-.45.48-.23.65-.57.1-.2-.12-.51-.09-.77.01-.09.76-1.08.36-1.07-.26,0-.49.49-.68.66-.22.07-1.58.57-1.64.63-.07.08-.03.59.05.7.23.34,1.02-.16.93.42-.98-.03-1.44-.24-2.05-1-.16-.2-.16-.47-.22-.56,1.67.39,3.07-.15,3.61-1.84.42-1.31.32-6.33.07-7.79"/>
  <path class="cls-9" d="M86.77,51.73c-.14.88-.97,2.01-1.91,2.13-1.22.15-3.27-.16-3.33-1.71,1.81.83,3.86.01,4.25-1.98l.99,1.56Z"/>
  <path class="cls-16" d="M88.18,12.76c.34-.07.3.17.4.37.74,1.5.84,3.68.88,5.36.03,1.45-.09,2.88-.15,4.33-.36-.02-.8.12-.85-.35-.19-3.18.37-6.58-.28-9.71"/>
  <path class="cls-3" d="M128.29,5.53c-.01.13-.19.5-.14.57-.15.01-.28.09-.42.14-.06.02-.22-.05-.27.01-.06.07,0,.29-.01.41,0,.12-.02.32,0,.42.23,1.22,2.21,1.17,2.83.21.3-.45.17-1.31.71-1.35-.15,1.35-.81,2.99-2.44,2.81-1.83-.21-2.28-3-.25-3.23"/>
  <path class="cls-9" d="M115.82,53.85c.09-.58-.7-.08-.93-.42-.08-.12-.11-.62-.05-.7.06-.07,1.41-.56,1.64-.63.19-.17.43-.65.68-.66.4-.01-.35.98-.36,1.07-.03.26.19.58.09.77-.17.33-.73.12-.65.57-.13.02-.29,0-.42,0"/>
  <path class="cls-16" d="M139.34,39.68c.45-.1.12.51.57.42,0,.05,0,.1,0,.14l-.14.21.14.07c-.11,1.85.08,3.8,0,5.67h-.42c-.18-2.01.3-4.59-.14-6.52"/>
  <path class="cls-9" d="M138.35,53c.24.4.11.85.14,1.28-1.11-.23-2.46-.84-2.83-1.98.68.41,1.9.67,2.69.71"/>
  <path class="cls-3" d="M93.85,6.67c-.02-.06-.39-.14-.28-.42.64.03,3.66-1.38,3.97-1.13.07.06-.15.38-.14.42l-3.54,1.13Z"/>
  <path class="cls-3" d="M96.55,10.21c1.27.61,2.45.29,2.83-1.13.01.06.15.14.15.34-.04,1.55-2.41,2.39-2.99.79"/>
  <path class="cls-3" d="M92.15,11.91c1.39.63,2.11.06,2.98-.99.08,1.33-1.06,1.95-2.27,1.63-.44-.11-.56-.26-.7-.64"/>
  <path class="cls-3" d="M130.13,5.82c-.03.12.02.29,0,.42-.09.09-1.11-.36-.99-.71.33.05.59.39.99.28"/>
  <path class="cls-3" d="M99.38,8.93c-.14-.04-.13-.17-.14-.28.14.05.11.18.14.28"/>
  <path class="cls-26" d="M99.52,50.17h-.14c0-.17-.12-.31-.14-.42.27.05.21.3.28.42"/>
  <path class="cls-31" d="M136.37,25.94c0-.14,0-.22,0-.28v.28Z"/>
  <path class="cls-9" d="M154.79,52.72c.62,2.53,4.58,2.01,5.1-.42.03.03.53.41.57.42-.04.57.55.82.85,1.2l-1.13.92c-1.04.35-2.18,1.11-3.22,1.53-5.71,2.28-11.45,1.47-17.47,1.59-.02-1.04-.18-2.21-.28-3.26.47-.03.9.05,1.28.35.54.43.35.59.42,1.14.09.71.61-.36.56-.84-.02-.23-.4-.94-.57-1.08.44-.16,1.2-.59,1.63-.58.47.01.91.61,1.57.7,1.04.15,2.15-.13,2.75-1.05.6-.92.15-.98-.28-1.63.42.31.64.62,1.13.85.04,1.23,1.7,1.82,2.74,1.79,1.95-.06,2.45-1.73,2.79-3.35.27.62.9,1.47,1.56,1.7"/>
  <path class="cls-9" d="M162.86,53c-.5.28-1.14.44-1.42.99.14-.03.2.1.28.14.19.69-1.03.53-1.56.71l1.13-.92c-.3-.38-.89-.63-.85-1.2.67.3,1.68.3,2.41.28"/>
  <path class="cls-32" d="M128.15,6.1s.27-.04.29.07c.07.38-.59,1-1,.92-.02-.11,0-.3,0-.42.2-.06.28-.22.28-.43.14-.05.27-.13.42-.14"/>
  <path class="cls-32" d="M162.87,5.25c-.54-.03-1.84.25-1.55-.62.16-.48,1.92-.17,1.55.62"/>
  <path class="cls-22" d="M118.79,19.56c.07-.51-.24-.99-.64-1.27-1.98-1.39-5.59,2.07-6.86-.65-1.06-2.29.71-3.65,2.73-4.19,2.9-.77,7.48-.49,9.19,2.33,1.49,2.45,1.49,8.61,1.25,11.5-.16,1.94-.91,3.57-3.15,3.16-.99-.18-1.07-.91-1.72-1.38-3.19,2.88-9.03,1.56-9.56-3.07-.66-5.66,4.15-6.93,8.77-6.43M114.72,14.71c.53.53,1.13-.43.68-.75-.44-.31-1.14.29-.68.75M113.23,14.35c-1.03.21-2.23,2.03-.53,1.88.2-.44,1.21-.79,1.35-1.06.35-.72-.14-.96-.82-.82M112.94,21.01c-.55.16-.77,1.03-.14,1.22,1.39.42,1.58-1.65.14-1.22M111.52,22.69c-.19.05-.44.49-.32.7,1.46,1,1.52-1.04.32-.7M118.65,23.39h-2.2c-.37,0-1.08.53-1.17.95-.44,1.95,2.22,2.3,3.12,1,.42-.61.2-1.25.25-1.95"/>
  <path class="cls-22" d="M139.87,13.22c1.2-.19,2.15.49,2.66,1.53.98-.74,1.98-1.43,3.26-1.56,7.02-.71,6.28,7.6,6.02,12.25-.08,1.34.18,2.69-.64,3.89-1.11,1.63-3.54,1.5-4.34-.32-.99-2.24-.05-6.54-.41-9.08-.24-1.71-2.49-1.56-3.22-.27-.12,1.92.06,3.87-.02,5.79-.04.85-.11,2.43-.36,3.18-.94,2.88-4.61,2.34-5.14-.81-.39-2.35-.43-10.44.2-12.62.29-1,.91-1.8,1.99-1.98M147.51,13.93c-.14.03-.46.35-.49.49-.2.78,1.88,1.47,2.19,1.04.54-.76-1.12-1.64-1.69-1.54M139.58,14.05c-.52.15-1.4,2.29-.72,2.52.21.07.53.05.69-.12.06-.06.72-1.44.75-1.53.14-.53-.18-1.03-.72-.87M138.58,17.17c-.62.2-.05,1.24.63.77.4-.28.08-1-.63-.77"/>
  <path class="cls-22" d="M86.91,24.1c2.24,0,5.86-.74,7.44,1.27,1.25,1.6.62,3.83-1.21,4.61-2.02.85-8.04.78-10.01-.19-2.43-1.2-2.5-5.34-2.6-7.74-.1-2.35-.2-9.18,1.08-10.98,1.21-1.7,3.91-1.52,4.81.42.98,2.12.74,8.56.64,11.13-.02.49-.24.97-.15,1.48M81.84,14.71c.38.39.91.15,1.13-.29.09-.19.78-2.07.78-2.18.02-.56-.57-.93-1.1-.68-.61.28-1.31,2.65-.82,3.15M81.56,16.83c.87.88,1.89-1.36.33-1.1-.54.09-.66.76-.33,1.1"/>
  <path class="cls-22" d="M95.7,26.5c-3.28-6.41.7-15,8.65-13.11,3.18.76,4.67,3.22,4.96,6.31-.44-.02-.47.74-.68,1.09-1.74,2.93-5.79,2.28-8.67,2.6-.1.27.09.41.14.57.58,1.65,2.66,1.7,4.11,1.35,1.45-.35,2.64-1.45,4.1-.22-1,3-5.11,3.66-7.86,3.4-1.78-.17-3.29-1.02-4.75-1.98M99.2,14.63c-1.03.15-3.67,3-1.88,3.11.82.05.84-.77,1.34-1.23.31-.28.97-.44,1.15-.69.37-.52.09-1.3-.61-1.19M104.34,19.84c-.15-2.94-3.98-2.76-4.25,0h4.25ZM96.22,18.45c-.67.19-.42,1.31.36,1.09.67-.19.42-1.31-.36-1.09"/>
  <path class="cls-22" d="M132.4,33.73s.09,0,.14,0c.07.26.32.31.57.28,1.03.61,1.23,1.53.96,2.73-.16.71-1.31,1.66-2.03,1.66h-4.6v2.13h2.62c.76,0,1.93.73,2.23,1.46,1.33,3.24-2.27,4.06-4.71,3.56-.36,1.65.14,3.81-.93,5.31-1,1.41-3,1.2-3.81-.28-.99-1.82-.9-8.42-.79-10.69.07-1.38.22-2.88.71-4.18.34-.17.82-.32.71.14-.02.06.01.19,0,.28l-.1.11.1.17v.43l-.11.07s.08.04.11.07c1,.87,1.15-.86,1.82-1.38.12-.23-.08-.8-.26-.89l-.07-.14-.07.14c-.09-.03-.29,0-.42,0-.02,0-.08-.15-.2-.15-.06,0,0,.4-.72.29-.33-.12.65-.8.75-.83,1.62-.63,6.28-.52,8.1-.3M123.27,37.85c-.37.12-.44,1.33.38,1.1.71-.2.35-1.34-.38-1.1"/>
  <path class="cls-22" d="M130.08,13.8c.49.45.59,1.21,1.04,1.65,1.84-3.72,6.42-2.7,5.8,1.76-.47,3.4-5.11,1.81-5.38,4.68-.2,2.21.89,8.14-2.34,8.57-2.8.37-3.19-2.28-3.32-4.44-.14-2.26-.28-9.24.36-11.13.54-1.59,2.6-2.23,3.85-1.08M127.83,14.2c-.86.12-1.82,3.26-.09,2.33.1-.46,1.39-2.51.09-2.33M126.82,17.3c-.45.15-.22,1.07.34.93.81-.21.3-1.13-.34-.93"/>
  <path class="cls-22" d="M140.57,46.86c.19-.19.31-.46.34-.72.24-1.96-.5-5.79.53-7.4,1.07-1.66,3.43-.97,3.7,1.03.34,2.55.34,7.2,0,9.75-.28,2.06-2.71,2.94-3.6.79-1.98,1.82-5.39,1.78-6.78-.72-1.11-1.99-1.1-6.85-.79-9.12.15-1.06.5-2.48,1.77-2.63,4.12-.49,1.73,6.6,2.7,8.79.34.76,1.61.77,2.15.23M134.66,40.96c.87.48,1.74-1.87,1.28-2.21-.79-.57-1.53,1.61-1.28,2.21M135.36,41.54c-.17-.25-1.24-.11-.78.56.33.48,1.08-.14.78-.56"/>
  <path class="cls-22" d="M146.6,39.99c.09-.19.2-.46.31-.74.79-1.88,2.87-2.01,3.62-.14,2.11-1.94,5.73-2.04,6.95.92.75,1.83.84,8.15.24,10.03-.41,1.27-1.91,1.88-3.01,1.1-1.98-1.4-.12-7.68-1.27-8.79-.54-.53-1.99-.38-2.32.39-.28,1.92.64,7.2-1.14,8.35-1.8,1.16-3.1-.42-3.28-2.15-.25-2.38-.11-4.71,0-7.08.02-.4-.15-1.81-.11-1.89M154.45,38.42c-.32.1-.33.71-.09.91.3.25,1.39.57,1.64.07.29-.59-1.07-1.13-1.55-.98M148.37,38.57c-.61.16-1.16,2.05-.58,2.24.19.06.41.04.55-.13.05-.06.6-1.31.61-1.38.07-.39-.16-.84-.59-.73M148.11,41.94c.44-.7-.99-1.05-.69-.07.09.31.62.17.69.07"/>
  <path class="cls-22" d="M164.14,40.25c-.41-.08-.26.2-.32.45-.52,1.96-1.06,4.04-3.64,3.24-.46-1.89-.66-4.88-.57-6.88.03-.63.14-1.78.33-2.36.61-1.91,3.1-2.16,3.89-.29.52,1.21.37,4.42.32,5.84M161.14,35.98c.1-.06.97-2.04.22-2.1-.65.05-1.31,1.83-.88,2.1.09.06.58.06.67,0M160.39,36.57c-.49.15,0,.81.41.7.4-.1.26-.91-.41-.7"/>
  <path class="cls-22" d="M95.7,26.5c1.46.96,2.97,1.81,4.75,1.98,2.76.26,6.86-.4,7.86-3.4,1.37,1.15.86,3.16-.44,4.17-3.68,2.85-10.02,1.47-12.17-2.75"/>
  <path class="cls-9" d="M147.7,52.58c1.57.72,3.31.17,4.04-1.41.13-.27.49-1.41.49-1.64v-6.02s.55-.02.57,0c.2.19-.04,4.62,0,5.39l-.14.07.14.07c.05.77.11,1.26.42,1.98-.34,1.62-.84,3.29-2.79,3.35-1.04.03-2.7-.56-2.74-1.79"/>
  <path class="cls-9" d="M139.2,53c.66-.07,2.04-.72,2.35-.7.25.01.41.33.69.43,1.29.46,2.67.25,3.48-.93.21-.31.25-.75.28-.78.26-.25.45.54.57.71.43.65.89.71.28,1.63-.6.92-1.71,1.2-2.75,1.05-.66-.09-1.1-.69-1.57-.7-.44-.01-1.19.42-1.63.58-.41-.35-1.59-.53-1.7-1.28"/>
  <path class="cls-22" d="M109.3,19.7s.14.16.15.34c.13,2.7-.79,3.71-3.47,3.91-1.9.14-3.97-.12-5.89,0-.05-.16-.24-.29-.14-.57,2.88-.31,6.93.33,8.67-2.6.21-.35.24-1.11.68-1.09"/>
  <path class="cls-22" d="M164,47.9c-.38.52-.48,1.55-1,1.9-.93.65-2.08.37-3.11.65-.12-.23-.09-.38-.14-.57l.94-.48.33-.94c.49-.17.9-.62.57-1.13-.05-.07-.19-.13-.28-.15v-.14l.71-.29c.75.06,1.59.47,1.98,1.13"/>
  <path class="cls-9" d="M154.79,52.72c1.17.42,2.53.08,3.41-.77.31-.3.57-1.16.86-.84.25.28.48.86.84,1.19-.52,2.44-4.48,2.95-5.1.42"/>
  <path class="cls-22" d="M164.14,40.25c-.07,1.76-.04,6.64-3.08,5.42-.8-.32-.74-1.13-.89-1.74,2.59.8,3.13-1.27,3.65-3.23.06-.25-.09-.53.32-.45"/>
  <path class="cls-22" d="M159.89,50.45c1.03-.28,2.18,0,3.11-.65.52-.36.62-1.39,1-1.9.63,1.06.36,2.78-.78,3.41-1.17.65-2.7.38-3.33-.85"/>
  <path class="cls-22" d="M162.01,46.77l-.71.28v.14c.09,0,.24.07.28.15-1.11-.23-2.07,1.65-.57,1.13l-.33.94-.94.48c-.1-.32-.26-.44-.25-.88.06-1.37,1.15-2.34,2.51-2.23"/>
  <path class="cls-22" d="M130.41,33.31l.28.14c.56.05,1.23-.15,1.7.28-1.82-.22-6.49-.33-8.1.3-.1.04-1.08.71-.75.84.73.1.66-.3.72-.29.11,0,.18.15.2.15-.2.2-.91.95-.99,1.13.11-.46-.37-.31-.71-.14.91-2.42,2.45-2.11,4.68-2.27.26-.02.54-.14.57-.14.76-.03,1.66-.04,2.41,0"/>
  <path class="cls-9" d="M126.45,31.32c.45.4,1.27.6,1.81.81.21.09.38-.08.31.32-1.22,0-2.47-.02-3.68.14.22-.38,1.12-.2,1.25-.31.04-.03.31-.81.3-.97"/>
  <path class="cls-9" d="M159.18,47.05v-1.98c.67.73,1.32,1.57,0,1.98"/>
  <path class="cls-16" d="M133.11,39.68l-.14,1.13c-.13.15-1.17-.98-1.56-.85l1.7-.28Z"/>
  <path class="cls-9" d="M145.15,24.8c.02.62.11,1.14.14,1.7-.24.19-.15.69-.14.99-.23-.15-.14-.54-.14-.78-.02-1.51-.2-4.11.14-5.46.02,1.18-.03,2.36,0,3.54"/>
  <path class="cls-9" d="M145.15,24.8c-.03-1.18.02-2.36,0-3.54.03-.14-.04-.33.14-.43.08.97.01,2.19,0,3.19,0,.24.09.63-.14.78"/>
  <path class="cls-16" d="M111.42,19.98l-.71.29v-.99c.13-.15.85.51.71.71"/>
  <path class="cls-16" d="M130.27,32.03l.14.42c-.19,0-.38,0-.57,0-.06-.22-.52-.21-.57,0-.32-.03-.49.13-.42-.28.4-.02,1.06-.03,1.42-.14"/>
  <path class="cls-9" d="M145.29,27.64h-.14s0-.1,0-.14c0-.3-.09-.81.14-.99.02.37,0,.76,0,1.13"/>
  <path class="cls-9" d="M144.44,27.5c0-.31-.11-.8.14-.99,0,.31.1.8-.14.99"/>
  <path class="cls-26" d="M124.75,32.6c-.15.24-.44.29-.71.28.32-.18.25-.22.71-.28"/>
  <path class="cls-22" d="M133.11,34.02c-.25.02-.49-.02-.57-.28.52.07.36.16.57.28"/>
  <path class="cls-16" d="M129.85,32.46c-.19,0-.38.02-.57,0,.05-.21.51-.22.57,0"/>
  <path class="cls-10" d="M128,33.31s-.31.12-.57.14l.57-.14Z"/>
  <path class="cls-9" d="M145.29,28.21c0-.07-.11-.29-.14-.57h.14v.57Z"/>
  <path class="cls-9" d="M132.96,47.62c-.03-.08-.35-.3,0-.42v.42Z"/>
  <path class="cls-16" d="M145.29,20.55l-.42-.14c.2-.05.35-.04.42.14"/>
  <path class="cls-9" d="M96.12,3.83c-.05.02-.2.19-.38.25-.4.14-2.92.91-3.01,1.04-.3.46,1.52,4.4,1.26,4.66-1.31-.13-2.37.78-1.84,2.13.15.38.26.52.71.64,1.21.32,2.36-.31,2.27-1.63-.05-.73-.95-2.94-1.24-3.8-.05-.16,0-.37-.04-.46l3.54-1.13c.01.08.56,1.06.67,1.38.15.42.35.84.32,1.31-1.34-.13-2.34.6-1.84,1.98.57,1.59,2.95.76,2.98-.79,0-.21-.14-.29-.15-.34-.01-.05.01-.1,0-.14-.03-.11,0-.24-.14-.28-.21-1.72-1.26-3.24-1.42-4.96,10.96.09,21.92-.07,32.88,0-.21.7-.39,1.42-.57,2.12-.4.1-.66-.23-.99-.28-.21-.03-.64-.03-.85,0-2.03.24-1.58,3.02.25,3.23,1.64.19,2.29-1.46,2.44-2.81,0-.09-.02-.2,0-.28.43-.32.42-1.84.8-1.97.58-.2,2.97.67,3.73.7.14.95-.56,1.75-.56,2.69-1.05-.44-2.54-.78-3.07.54-.83,2.06,2.23,2.98,3.22,1.8.36-.43,1.54-4.9,1.7-5.74,4.01.13,8.13-.18,12.12,0,3.46.15,6.9.89,10.02,2.46.71.35,1.81.9,2.1,1.66-.22,1.04-1.41,2.67-.78,3.54.79,1.08,2.32.06,3.33-.14.31-.06.7-.2.99-.07.11.05,1.46,1.56,1.62,1.78,1.38,1.8,2.24,3.68,2.99,5.81.08.23-.03.5.35.42.04.3.14,1.14.14,1.35v22.11c0,.35-.22,1.32-.28,1.77,0,.01-.1.05-.14.28-.02.09.02.2,0,.28-.39-.09-.26.21-.36.42-.65,1.4-1.23,2.44-2.19,3.63-.22.27-.42.73-.57.92-.08.1-.22-.51-.57-.28.01-.37-.27-1.67-.42-1.98.25-.09.33-.26.43-.49.74-1.74.93-8.3.52-10.17-.11-.48-.39-1.58-.95-1.67-.06-.3-.08-.59-.18-.88-1.06-3.08-5.17-2.97-6.01.14-.12.44-.32,1.67-.32,2.08v2.97c0,.08.33.37,0,.35-1.21-2.95-3.67-3.7-6.63-2.87-.33.09-.87.47-1.1.46-.26,0-.9-.59-1.31-.67-.74-.15-1.76-.07-2.38.39l-1.27,1.42c-1.75-3.19-5.55-2.11-6.02,1.42-.45.08-.12-.53-.57-.43-.44-1.92-1.94-3.16-3.97-2.83.42-1.73-.95-3.84-2.69-4.25.9-.62,1.03-1.88,1.12-2.92.16-1.95-.05-4.07.18-6.05.16-.46,1.92-.76,2.39-.94,0,.96-.04,1.99,0,2.98,0,.06,0,.14,0,.28.11,2.22.42,5.02,2.84,5.95-.45.97,1.33,1.63,2.06,1.7,1.71.17,2.96-.22,3.64-1.88.25-.62.63-2.45.54-3.07.25,1.2,1,2.56,2.12,3.12.67,2.08,3.61,2.45,5.17,1.13,1.33-1.12,1.41-2.96,1.5-4.6.14-2.82.25-7.97-.84-10.51-.1-.24-.02-.5-.45-.48-1-4.07-4.28-6.11-8.36-5.03-.42.11-1.66.76-1.75.75-.25-.02-.68-.47-.96-.6-1.78-.82-3.37-.31-4.66,1.05-.27-.78-1.56-1.31-2.36-1.4-1.46-.17-2.56.34-3.65,1.25-2.44-2.6-6.45-.81-6.33,2.7-.48-.29-.63-.9-.99-1.34-2.46-2.97-6.82-3.29-10.34-2.27-1.86.54-3.59,1.65-3.76,3.76l-.99-1.28c-3.7-4.34-11.04-3.66-13.93,1.23-.5.85-1.45,3.15-1.45,4.08v2.9c-1.38-.36-2.73-.2-4.11-.28.06-1.44.18-2.88.15-4.33-.04-1.68-.14-3.86-.88-5.36-.1-.21-.07-.44-.4-.37-.33-1.59-1.14-3.24-2.8-3.79-2.44-.82-4.6.37-5.38,2.77-1.01,3.09-.97,14.28.45,17.18.39.78,1.43,2.01,2.2,2.4-.24.41.86,1.17,1.14,1.34,2.17,1.29,7.76,1.11,10.23.61,1.52-.31,2.79-1.17,3.09-2.8.22.18.48.28.71.42-.13.98,1.38,1.58,2.13,1.91,2.9,1.25,6.46,1.24,9.3-.18.6-.3,1.81-1.27,1.74-2.01.17.16.77.58.99.71.21.88,1.47,1.6,2.27,1.91,1.62.62,4.38.5,5.94-.29.19-.1.38-.45.52-.48.2-.04,1.5,1.5,2.18,1.12-.36.31-.87,1.11-1.06,1.56-1.13,2.66-1.02,11.4-.46,14.34.24,1.25,1.01,2.96,2.23,3.51-.02,1.27,1.72,1.76,2.76,1.7,3.14-.18,3.24-3.85,3.19-6.24h2.05c.32,0,1.2-.35,1.49-.57.45,1.56,1.04,3.48,2.55,4.39.37,1.14,1.73,1.76,2.83,1.98.09,1.18.1,2.4.28,3.54-.83-.34-1.44.13-2.12.14-6.01.12-12.21-.09-18.28,0-.09-.37.15-.75.15-1.07,0-.2-.15-.37-.15-.42v-4.18c1.38.23,2.48,1.02,1.98,2.55.51.01.73-.97.72-1.35,0-.26-.3-1.08-.43-1.28-.55-.81-2.12-.6-2.27-2.05-.24-2.32.3-4.63-.65-6.94-.09-.23-.14-.65-.49-.57-.5-2.9-2.67-4.68-5.67-3.97.18-2.16-1.14-4.44-3.58-3.94-1.82.38-2.21,2.66-2.23,4.22-1.56-.1-1.06-.29-1.41-1.35-.97-2.93-4.54-3.01-5.44.1-.14.5.12,1.19-.45,1.11-.11-.02.11-1.8.06-2.19-.1-.72-.91-2.01-1.65-2.18-.4-.09-2.24-.09-2.63,0-1.42.36-1.96,2.67-1.41,3.89.13.29.48.41.45.75-.62.07-1.19-.41-1.77-.43-1.2-.04-2.64,1.03-2.76,2.27-.65-.79-1.07-1.67-2.21-1.83-1.5-.21-2.8.17-3.32,1.69-.17.02-.18.05-.29-.09-.25-.33-.35-.92-.77-1.33-1.07-1.03-2.98-.95-3.96.15-.96,1.07-.69,2.39-.43,3.68.34,1.7,1.77,6.95,2.77,8.14.29.35.57.59.99.78.07,1.54,2.11,1.85,3.33,1.7.94-.12,1.77-1.25,1.91-2.13.35.11.51.28.71.57.09.12.14.39.31.62.99,1.29,3.47,1.28,4.51.02.43-.53.55-1.37.99-1.92.31.57.78,1.06,1.42,1.27-.02,1.29,1.41,1.67,2.49,1.57,1.86-.18,2.23-2.11,2.19-3.69h.14c.3.53,1.32,1.74,1.84,1.98-.34.21.51.89.64.99,1.53,1.18,4.33,1.18,5.53-.43.37-.06.83.85,1.51,1.04,2.14.62,2.99-.74,3.38-2.6.4.65.87.76,1.13,1.13.06.09.06.36.22.56.61.76,1.08.97,2.05,1,.14,0,.29.02.42,0,.53-.07.85-.25,1.28-.57,0,.8-.11,1.74.14,2.48-1.73-.67-3.45.2-3.11,2.2h-6.5c0,1.11-.88,2.26-1.01,3.26-.01.09,0,.19,0,.28l-.29.09c-.32.91-.91,1.71-1.26,2.6-.35.16-.38.58-.57.85-1.91,2.81-5.26,5.55-8.36,6.94-2.98,1.33-6.52,1.97-9.78,1.84,2.51-1.85,4.2-3.85,5.53-6.66,1.07-2.27,2.16-5.92,1.7-8.43-.07-.38-.26-.33-.42-.5-.02-.02.08-.25-.09-.29-.57-.14-1.95.05-2.67,0-8.21-.52-15.15-4.29-19.23-11.52-.37-.66-.47-1.52-1.11-1.94-.2-1.17-.38-2.56-.43-3.75-.27-5.81-.27-13.05,0-18.86.04-.89.16-2.01.29-2.9.45.09.23-.22.3-.47,2.27-8.76,11.31-14.45,20.03-14.84,1.82-.08,3.66.02,5.46.15M115.96,9.64c.26-.76-.67-1.22-.71-1.78-.04-.61.88-1.21.5-1.77-.25-.38-1.3.34-1.69.26-.44-.08-.99-1.48-1.59-.97-.44.38-.02,1.35-.27,1.72-.18.27-1.43.28-1.36,1.06.04.5,1.36.58,1.55.8.1.12.04,1.43.29,1.62.57.43,1.01-.62,1.29-.85.55-.46,1.3.07,1.98-.08M148.23,5.43c-3.51.54-2.86,6.45,1.35,5.74,3.5-.6,3.02-6.42-1.35-5.74M157.65,15.14c-.09-.05-.37-.78-.66-.97-1.05-.7-.77,1.04-1,1.43-.17.29-1.39.45-1.47.58-.55.88,1.12.95,1.33,1.25.24.36-.19,1.54.29,1.7.63.21,1-.84,1.43-.96.45-.12,1.21.4,1.74.26.24-.58-.58-1.35-.54-1.75.04-.42.84-.9.67-1.42-.17-.53-1.34.15-1.8-.12M73.73,25.37c.68.29,1.39-.54,1.78-.57.49-.04,1.09.95,1.77.51.35-.23-.27-1.17-.13-1.68.11-.4,1.1-.87,1.11-1.45-.06-.3-1.42-.28-1.76-.51-.35-.24-.43-1.42-1-1.42-.5,0-.68,1.38-.95,1.54-.44.25-2.15-.37-1.6.88.13.28.83.66.89.95.06.23-.29,1.58-.12,1.75M161.27,22.57c-5.3.69-4.57,9.1,1.37,8.31,5.03-.66,4.16-9.03-1.37-8.31M72.98,32.07c-1.83.31-2.87,2.56-2.33,4.25.88,2.76,4.84,2.96,6.08.35,1.24-2.6-.98-5.07-3.75-4.6M118.79,34.3c-.57-.17-1,.89-1.36.96-.26.05-.93-.42-1.33-.26-.13.56.44.98.44,1.49,0,.43-.84,1.17-.44,1.42.42.26,1.01-.18,1.46-.05.4.12.66.97,1.23.83.23-.34.05-1.2.17-1.39.1-.17,1.26-.26,1.26-.8,0-.46-.96-.42-1.15-.73-.22-.35-.07-1.05-.27-1.46"/>
  <path class="cls-20" d="M139.91,40.53l-.14-.07.14-.21c0,.09,0,.19,0,.28"/>
  <path class="cls-10" d="M130.7,33.45l-.28-.14c.25.01.27.14.28.14"/>
  <path class="cls-10" d="M152.8,49.04l-.14-.07.14-.07s0,.09,0,.14"/>
  <path class="cls-22" d="M110.43,40.25c.38-.06.61-.36,1-.49,2.26-.81,4.14.29,4.64,2.58.28,1.31.37,6.5-.08,7.65-.36.91-1.12,1.22-2.06,1-2-.46-.93-5.58-1.27-7.09-.27-1.19-2.09-1-2.35.14-.32,1.43.16,3.8-.03,5.36-.08.62-.49,1.39-1.13,1.56-1.77.47-2.3-1.11-2.42-2.55-.16-2.09-.28-9.54.21-11.27.34-1.2,1.21-1.92,2.44-1.3.52.26,1.03,1.26,1.03,1.8v2.62ZM108.26,36.3c-.75.06-1.08,1.95-.59,2.1.58.18,1.59-2.19.59-2.1M108.02,38.83c-.25-.25-1.13.34-.48.55.6.19.61-.42.48-.55M113.37,39.99c-1.18.32.68,1.67,1.19,1.05.41-.51-.69-1.18-1.19-1.05"/>
  <path class="cls-22" d="M103.35,39.68c3.57-.63,3.55,3.84,0,3.26.04,1.03-.45,3.38.07,4.25.42.69,1.89-.35,2.46,1.08,1.15,2.86-3.78,3.88-5.35,1.52-.46-.7-.67-1.84-.73-2.67-.07-.94.2-3.28-.02-3.95-.11-.33-.94-.15-1.47-.52-1.52-1.07-.23-3.28,1.48-3.12,0-1.46.2-3.48,2.17-3.08,1.39.28,1.38,2.12,1.38,3.23M100.89,37.01c-.37.12-.88,1.77-.16,1.83.69.07,1.24-2.18.16-1.83M101.08,39.26c-.25-.25-1.13.34-.48.55.6.19.61-.42.48-.55M100.05,40.64c.1-.1.23-.4.12-.54-.28-.39-1.86-.05-1.79.64.06.64,1.48.08,1.67-.1"/>
  <path class="cls-22" d="M95.09,39.86c1.84-.43,2.07,1.38,2.17,2.73.12,1.68.17,4.72-.01,6.36-.15,1.36-.75,2.39-2.29,2.04-.79-.18-1.16-1.31-1.23-2.03-.19-1.92-.13-5.73.15-7.64.08-.57.64-1.34,1.22-1.47M95.4,40.4c-.73-.53-1.26,1.42-.98,1.69.54.52,1.33-1.44.98-1.69M94.15,42.93c.21.34,1.22.08.77-.56-.31-.44-1.07.08-.77.56"/>
  <path class="cls-22" d="M95.24,35.18c2.84-.39,3.11,4.31-.17,3.79-1.93-.31-2.08-3.48.17-3.79M94.95,35.6c-.16.02-.76.34-.8.49.34,1.65,2.1-.69.8-.49"/>
  <g>
    <path class="cls-22" d="M80.53,49.18c-.65-1.59-1.24-3.83-1.63-5.53-.27-1.14-.96-3.26.53-3.86,2.84-1.15,2.84,3.68,3.37,5.28l.93-3.11c.26-1.45,1.71-2.48,3.09-1.69.95.54,1.4,3.58,1.65,4.66.37.04.23,0,.29-.21.49-1.65.61-5.74,3.19-4.9,1.5.49,1.02,2.11.77,3.27l-.73,1.18c-.98,2.37-1.89,6.46-5.36,4.77-.02-.04.01-.1,0-.14l-.14-.14c-.26-.74-.42-1.53-.71-2.27-.3-.04-.23-.01-.32.18-.16.37-.27.97-.39,1.38-.59.08-.74.73-1.17,1.03-.98.69-2.31.33-3.37.1M79.49,40.26c-.38.13-.54,1.61-.15,1.69.53.11,1.3-2.08.15-1.69M79.82,42.23s-.9-.17-.71.35c.21.57.99-.07.71-.35"/>
    <path class="cls-22" d="M92.72,43.08c-.39,1.79-1.29,4.76-1.98,6.45-.53,1.3-1.62,1.99-3.02,1.31-.79-.38-.86-1.15-1.1-1.81,3.46,1.69,4.38-2.41,5.36-4.77l.73-1.18Z"/>
    <path class="cls-22" d="M85.07,48.04c-.52,1.72-.53,3.34-2.9,2.97-1.05-.17-1.3-1-1.64-1.83,1.06.23,2.39.59,3.37-.1.43-.3.58-.95,1.17-1.03"/>
  </g>
  <path class="cls-9" d="M105.76,46.63c-.2-.12-1.23-.1-1.28-.14-.08-.07.06-1.74,0-2.05l1.28-.36v2.55Z"/>
  <path class="cls-9" d="M98.95,48.61c-.04-.15-.22-.33-.14-.57-.22-.05-.08.16-.23.29h-.2c0-1.2-.05-2.42,0-3.62,0-.22-.13-.56.21-.49.25.16.2.38.22.63.1,1.24.03,2.52.13,3.76"/>
  <path class="cls-16" d="M111.42,44.93c.02-.27-.14-.5.28-.42.09,1.42-.13,2.99,0,4.39l-.14.43c-.09-1.44.18-3-.14-4.39"/>
  <path class="cls-9" d="M111.57,49.32h-.14c.09-1.43-.1-2.97,0-4.39.33,1.4.05,2.96.14,4.39"/>
  <path class="cls-26" d="M99.24,49.6c-.28-.22-.21-.57-.28-.85.35.2.23.56.28.85"/>
  <path class="cls-16" d="M98.39,49.74v-.85c.37.25.05.64,0,.85"/>
  <path class="cls-20" d="M107.74,52.3c-.18-.05-.15-.05-.28-.14l.28.14Z"/>
  <path class="cls-3" d="M86.63,48.89s-.11-.07-.14-.14l.14.14Z"/>
  <path class="cls-26" d="M159.89,26.51s.18.83.36,1.13c.48.76,1.48,1.02,2.31.76.61-.19.74-.9,1.44-.75-.07,1.35-1.95,1.73-3.05,1.28-.66-.27-1.8-1.45-1.62-2.18.06-.21.43-.31.56-.23"/>
  <path class="cls-26" d="M163.98,25.38c.24.16.18,1.11-.22,1.24-1.12.36-.57-1.79.22-1.24"/>
  <path class="cls-26" d="M161.01,24.68c.55.38-.49,1.95-.81.88-.18-.59.42-1.15.81-.88"/>
  <path class="cls-26" d="M75.71,35.15c.41.42-.89,1.82-1.52,1.95-.68.14-1.87-.22-2.14-.91-.34-.85,1.08.26,1.25.31.61.17,1.17.09,1.57-.42.15-.19.47-1.3.85-.92"/>
  <path class="cls-26" d="M75,33.59c.14.1.35,1.35-.35,1.13-.46-.14-.21-1.5.35-1.13"/>
  <path class="cls-26" d="M72.24,34.16c.52-.15.86.87.42.99-.57.16-.88-.85-.42-.99"/>
  <path class="cls-26" d="M150.28,8.54c.56-.33.44.35.12.75-.89,1.11-3.06.68-3.12-.71-.01-.22-.02-.25.21-.21.53.88,1.38,1.45,2.34.77.25-.17.42-.58.46-.6"/>
  <path class="cls-26" d="M150.24,8.07c-.53.33-.8-.87-.2-1.12.41.12.41.99.2,1.12"/>
  <path class="cls-26" d="M148.12,6.95c.16.25.2,1.23-.35.99-.42-.18-.28-1.21.35-.99"/>
  <path class="cls-32" d="M115.49,56.14c.76-.2.48,1-.16.83-.37-.1-.21-.73.16-.83"/>
  <path class="cls-30" d="M133.39,7.23s.12-.13.23-.14c.59-.04.75.4,1.25.57.15-.04.24-.91.64-.57.06.06-.39,1.47-.46,1.6-.5.93-2.83.53-2.93-.56-.03-.35.35-.27.41-.33v.42c.49-.24.98-.32.85-.99"/>
  <path class="cls-32" d="M132.96,7.23c.14-.01.29.02.42,0,.13.67-.36.76-.85.99v-.42s.07-.32.28-.57h.14Z"/>
  <path class="cls-30" d="M132.96,7.23h-.14s-.01-.11.07-.14l.07.14Z"/>
  <path class="cls-30" d="M127.72,6.24c0,.21-.08.36-.28.43,0-.12-.04-.35.01-.41.05-.06.21.01.27-.01"/>
  <path class="cls-26" d="M118.65,23.39c-.05.7.18,1.34-.25,1.95-.9,1.3-3.56.95-3.12-1,.09-.42.8-.95,1.17-.95h2.2Z"/>
  <path class="cls-32" d="M113.23,14.35c.67-.14,1.17.1.82.82-.13.27-1.15.62-1.35,1.06-1.7.14-.5-1.67.53-1.88"/>
  <path class="cls-32" d="M112.94,21.01c1.44-.43,1.25,1.64-.14,1.22-.63-.19-.41-1.05.14-1.22"/>
  <path class="cls-32" d="M111.52,22.69c1.2-.35,1.15,1.7-.32.7-.12-.21.13-.64.32-.7"/>
  <path class="cls-32" d="M114.72,14.71c-.46-.46.24-1.06.68-.75.45.32-.15,1.28-.68.75"/>
  <path class="cls-32" d="M139.58,14.05c.54-.16.86.33.72.87-.02.08-.69,1.47-.75,1.53-.17.17-.48.19-.69.12-.68-.23.2-2.36.72-2.52"/>
  <path class="cls-32" d="M147.51,13.93c.57-.11,2.23.78,1.69,1.54-.31.43-2.39-.26-2.19-1.04.04-.14.35-.47.49-.49"/>
  <path class="cls-32" d="M138.58,17.17c.71-.23,1.03.49.63.77-.68.47-1.24-.57-.63-.77"/>
  <path class="cls-32" d="M81.84,14.71c-.49-.5.21-2.87.82-3.15.53-.24,1.11.12,1.1.68,0,.12-.69,1.99-.78,2.18-.22.44-.74.68-1.13.29"/>
  <path class="cls-32" d="M81.56,16.83c-.34-.34-.22-1.01.33-1.1,1.56-.26.54,1.98-.33,1.1"/>
  <path class="cls-26" d="M104.34,19.84h-4.25c.27-2.76,4.1-2.93,4.25,0"/>
  <path class="cls-32" d="M99.2,14.63c.7-.1.99.67.61,1.19-.18.25-.84.41-1.15.69-.5.45-.52,1.27-1.34,1.22-1.8-.1.84-2.95,1.88-3.11"/>
  <path class="cls-32" d="M96.22,18.45c.78-.22,1.03.91.36,1.09-.78.22-1.03-.91-.36-1.09"/>
  <path class="cls-32" d="M124.89,34.72s.11-.02.14,0c.18.09.38.67.26.89-.67.51-.82,2.24-1.82,1.38v-.57c0-.09-.01-.2,0-.28.01-.09-.03-.22,0-.28.08-.18.79-.93.99-1.13.13,0,.33-.03.42,0"/>
  <path class="cls-32" d="M123.27,37.85c.73-.24,1.09.9.38,1.1-.82.23-.76-.98-.38-1.1"/>
  <path class="cls-31" d="M123.47,36.42l-.1-.17.1-.11c-.01.08,0,.19,0,.28"/>
  <path class="cls-31" d="M123.47,36.99s-.09-.02-.11-.07l.11-.07v.14Z"/>
  <path class="cls-31" d="M125.03,34.72s-.1.01-.14,0l.07-.14.07.14Z"/>
  <path class="cls-32" d="M127.82,14.2c1.29-.19,0,1.87-.09,2.33-1.72.93-.77-2.21.09-2.33"/>
  <path class="cls-32" d="M126.82,17.3c.64-.2,1.15.71.34.93-.56.15-.79-.78-.34-.93"/>
  <path class="cls-32" d="M134.66,40.96c-.25-.59.5-2.78,1.28-2.21.46.33-.42,2.69-1.28,2.21"/>
  <path class="cls-32" d="M135.36,41.54c.3.43-.45,1.04-.78.56-.47-.68.6-.81.78-.56"/>
  <path class="cls-32" d="M148.37,38.57c.42-.11.65.34.59.73-.01.07-.57,1.32-.61,1.38-.14.17-.36.19-.55.13-.58-.19-.03-2.08.58-2.24"/>
  <path class="cls-32" d="M154.45,38.42c.48-.16,1.84.38,1.55.97-.25.51-1.34.18-1.64-.07-.24-.2-.23-.8.09-.91"/>
  <path class="cls-32" d="M148.11,41.94c-.07.1-.59.24-.69-.07-.3-.98,1.13-.64.69.07"/>
  <path class="cls-32" d="M161.14,35.98c-.09.06-.58.06-.67,0-.43-.26.24-2.05.88-2.1.76.05-.12,2.03-.22,2.1"/>
  <path class="cls-32" d="M160.39,36.57c.67-.21.81.6.41.7-.42.11-.9-.55-.41-.7"/>
  <path class="cls-32" d="M161.59,47.34c.33.51-.07.96-.57,1.13-1.5.52-.55-1.36.57-1.13"/>
  <path class="cls-32" d="M79.49,40.26c1.15-.39.38,1.79-.16,1.69-.39-.08-.23-1.56.16-1.69"/>
  <path class="cls-32" d="M79.82,42.23c.29.29-.49.92-.71.35-.2-.53.67-.39.71-.35"/>
  <path class="cls-32" d="M108.26,36.3c1.01-.09-.01,2.28-.59,2.1-.49-.15-.16-2.04.59-2.1"/>
  <path class="cls-32" d="M113.37,39.99c.49-.13,1.6.54,1.19,1.05-.51.62-2.37-.73-1.19-1.05"/>
  <path class="cls-32" d="M108.02,38.83c.13.13.12.74-.48.55-.65-.2.23-.8.48-.55"/>
  <path class="cls-32" d="M100.89,37.01c1.08-.35.53,1.9-.16,1.83-.72-.07-.21-1.72.16-1.83"/>
  <path class="cls-32" d="M100.05,40.64c-.2.19-1.61.74-1.67.1-.07-.69,1.51-1.03,1.79-.64.11.14-.02.44-.12.54"/>
  <path class="cls-32" d="M101.08,39.26c.13.13.12.74-.48.55-.65-.2.23-.8.48-.55"/>
  <path class="cls-32" d="M95.4,40.4c.35.25-.44,2.21-.98,1.69-.29-.27.25-2.22.98-1.69"/>
  <path class="cls-32" d="M94.15,42.93c-.3-.48.46-1.01.77-.56.45.64-.56.91-.77.56"/>
  <path class="cls-32" d="M94.95,35.6c1.29-.19-.46,2.14-.8.49.04-.15.64-.47.8-.49"/>
  <path class="cls-2" d="M45.88,14.53c-.33,1.05-2.97.21-3.71-.11-3.46-1.44-4.59-5.65-3.3-8.98.21-.54.61-1.51,1.28-1.51.2,0,3.12,1.83,3.47,2.1.55.42,2.26,2.41,2.26,2.95,0,1.2.25,4.75,0,5.55ZM40.67,11.93c1.15,1.43,2.51,1.76,4.16,2.43-.04-2.44.81-3.21-.34-5.55s-2.53-2.57-4.51-3.81c-.75,2.68-1.19,4.59.69,6.94Z"/>
  <path class="cls-33" d="M44.49,8.81c-.43.65-1.52.14-2.1.5-.68.43-.25,2.71-1.72,2.62-1.88-2.34-1.44-4.26-.69-6.94,1.98,1.24,3.4,1.57,4.51,3.81Z"/>
  <path class="cls-25" d="M44.49,8.81c1.15,2.34.31,3.11.34,5.55-1.65-.67-3.01-.99-4.16-2.43,1.47.09,1.04-2.19,1.72-2.62.58-.37,1.67.15,2.1-.5Z"/>
  <path class="cls-2" d="M160.35,80.46c.89.51.78,3.49.62,4.46-.84,5.24-6.45,7.9-11.04,5.16-1.07-.64-1.83-.99-1.44-2.4.14-.51,1.73-3.22,2.14-3.9,1.16-1.94,3.42-5.72,6.12-5.31,1.19.18.88,1.72,1.43,2.11.42.3,1.51-.5,2.17-.12ZM157.24,81.98c-.58-.59.61-4.61-3.18-1.12-.94.87-3.67,5.35-4.19,6.6-.87,2.08,2.84,2.62,4.37,2.45,4.26-.47,6.03-4.31,5.55-8.26-.52-.23-2.38.48-2.54.32Z"/>
  <path class="cls-17" d="M157.24,81.98c.16.16,2.02-.55,2.54-.32.48,3.95-1.28,7.79-5.55,8.26-1.53.17-5.24-.37-4.37-2.45.52-1.26,3.25-5.73,4.19-6.6,3.79-3.5,2.59.53,3.18,1.12Z"/>
  <path class="cls-2" d="M107.56,87.75c-.2-.19-1.71.51-1.92-.8-.44-2.74,4.78-6.38,7.19-6.5.94-.04,1.19.54,1.55,1.26,1.38,2.78.08,6.71-2.84,7.96-5.36,2.29-3.62-1.58-3.98-1.93ZM108.51,89.33c3.1-.03,5.42-2.03,5.42-5.24,0-.52-.25-1.97-.65-2.24-1.4-.96-6.96,2.87-6.68,4.94h2.22s-.31,2.54-.31,2.54Z"/>
  <path class="cls-17" d="M108.51,89.33l.31-2.54h-2.22c-.28-2.08,5.27-5.9,6.68-4.94.39.27.65,1.72.65,2.24,0,3.21-2.32,5.2-5.42,5.24Z"/>
  <path class="cls-2" d="M19.4,45.8c-.2-.19-1.71.51-1.92-.8-.44-2.74,4.78-6.38,7.19-6.5.94-.04,1.19.54,1.55,1.26,1.38,2.78.08,6.71-2.84,7.96-5.36,2.29-3.62-1.58-3.98-1.93ZM20.35,47.39c3.1-.03,5.42-2.03,5.42-5.24,0-.52-.25-1.97-.65-2.24-1.4-.96-6.96,2.87-6.68,4.94h2.22s-.31,2.54-.31,2.54Z"/>
  <path class="cls-17" d="M20.35,47.39l.31-2.54h-2.22c-.28-2.08,5.27-5.9,6.68-4.94.39.27.65,1.72.65,2.24,0,3.21-2.32,5.2-5.42,5.24Z"/>
  <path class="cls-2" d="M134.87,104.19c.17.12.25,1.15.36,1.23.68.49,1.93-1.59,2.76.25,1.5,3.33-1.12,7.11-4.6,7.61-1.42.2-5.65.03-5.03-2.15.08-.28,2.74-4.38,3.1-4.85.53-.69,2.52-2.72,3.41-2.09ZM134.62,106.65c-.1-.09-.1-1.18-.51-1.22-.36-.03-2.05,1.63-2.33,2.11l-2.27,4.23c4.17,1.88,8.53-.98,7.61-5.71-.5.34-2.06.98-2.5.59Z"/>
  <path class="cls-17" d="M134.62,106.65c.44.39,2-.25,2.5-.59.91,4.73-3.44,7.58-7.61,5.71l2.27-4.23c.28-.47,1.97-2.14,2.33-2.11.41.04.41,1.12.51,1.22Z"/>
  <path class="cls-27" d="M78.26,161.9c.27-.21,3.6-2.38,3.82-2.43,1.87-.44,4.46.47,6.08.38,2.43-.13,3.28-2.46,8.17-1.61,4.22.74,1.69,3.12-.6,4.64-2.68,1.78-4.07.57-6.45,1.18-.93.24-2.22,1.34-3.64,1.57-3.02.48-6.31-.23-8.41-2.52.43-.24.76-1,1.03-1.21M96.82,159.13c-1.42-.21-3.66,0-5.21,0-.13,0-1.94.97-2.26,1.22-.13.27,2.06.33,1.68,1.65-.13.45-1.26,1.17.22,1.3,2.43.22,4.94-1.94,6.43-3.65.04-.1-.77-.51-.87-.52M90.06,161.56c-3.38-1.07-5.13-2.06-8.57-.42-.43.21-3.36,1.98-2.89,2.49,4.11,1.82,8.6,1.9,11.45-2.07"/>
  <path class="cls-23" d="M90.06,161.56c-2.85,3.97-7.35,3.9-11.45,2.07-.48-.51,2.46-2.28,2.89-2.49,3.44-1.65,5.19-.66,8.57.42"/>
  <path class="cls-23" d="M96.83,159.13c.09.01.91.42.87.52-1.49,1.71-4,3.87-6.43,3.65-1.48-.13-.34-.86-.22-1.3.38-1.32-1.81-1.38-1.68-1.65.32-.25,2.13-1.22,2.25-1.22,1.55,0,3.79-.21,5.21,0"/>
</svg>