<?xml version="1.0" encoding="UTF-8"?>
<svg id="Layer_2" data-name="Layer 2" xmlns="http://www.w3.org/2000/svg" viewBox="0 0 145.2 127.34">
  <defs>
    <style>
      .cls-1 {
        fill: #deb663;
      }

      .cls-2 {
        fill: #564343;
      }

      .cls-3 {
        fill: #faf8ef;
      }
    </style>
  </defs>
  <path class="cls-3" d="M95.87,125.51L9.82,82.89c-8.72-4.36-12.31-14.92-7.99-23.67L25.69,11.09C30.02,2.35,40.61-1.22,49.34,3.14l13.25,6.55c5.47-8.86,16.88-12.28,26.42-7.58l26.28,13.05c9.53,4.7,13.74,15.88,9.99,25.57l10.11,5.03c8.75,4.32,12.31,14.92,7.96,23.64l-23.83,48.15c-4.33,8.69-14.9,12.28-23.64,7.96Z"/>
  <g>
    <path class="cls-1" d="M86.78,41.79c-3.99-1.98-8.25-2.85-12.41-2.74.28.11.56.23.84.36,5.06,2.51,7.13,8.64,4.62,13.7-2.51,5.06-8.64,7.13-13.7,4.62-5.06-2.51-7.13-8.64-4.62-13.7.37-.74.81-1.4,1.32-2.01-4.82,2.5-8.91,6.49-11.5,11.72-6.49,13.09-1.13,28.97,11.96,35.46,13.09,6.49,28.97,1.13,35.46-11.96,6.49-13.09,1.13-28.97-11.96-35.46Z"/>
    <path class="cls-2" d="M135.39,45.75l-10.11-5.01c3.75-9.72-.46-20.87-9.98-25.58l-26.29-13.03c-9.52-4.72-20.94-1.31-26.4,7.56l-13.27-6.58c-8.73-4.33-19.32-.75-23.64,7.98L1.84,59.23c-4.33,8.73-.75,19.32,7.98,23.64l86.06,42.64c8.73,4.33,19.32.75,23.64-7.98l23.85-48.14c4.33-8.73.76-19.31-7.98-23.64ZM59.5,97.06c-17.25-8.55-24.3-29.46-15.76-46.71,8.55-17.25,29.46-24.3,46.71-15.76,17.25,8.55,24.3,29.46,15.76,46.71-8.55,17.25-29.46,24.3-46.71,15.76ZM125.17,64.6c-2.75-1.36-3.87-4.7-2.51-7.45,1.36-2.75,4.7-3.87,7.45-2.51,2.75,1.36,3.87,4.7,2.51,7.45-1.36,2.75-4.7,3.88-7.45,2.51Z"/>
  </g>
</svg>