<?xml version="1.0" encoding="UTF-8"?>
<svg id="Layer_1" data-name="Layer 1" xmlns="http://www.w3.org/2000/svg" xmlns:xlink="http://www.w3.org/1999/xlink" viewBox="0 0 82.54 19.76">
  <defs>
    <style>
      .cls-1 {
        fill: url(#linear-gradient-8);
      }

      .cls-2 {
        fill: url(#linear-gradient-7);
      }

      .cls-3 {
        fill: url(#linear-gradient-5);
      }

      .cls-4 {
        fill: url(#linear-gradient-6);
      }

      .cls-5 {
        fill: url(#linear-gradient-4);
      }

      .cls-6 {
        fill: url(#linear-gradient-3);
      }

      .cls-7 {
        fill: url(#linear-gradient-2);
      }

      .cls-8 {
        fill: url(#linear-gradient);
      }

      .cls-9 {
        fill: #535352;
      }
    </style>
    <linearGradient id="linear-gradient" x1="-1101.56" y1="-244.17" x2="-1100.27" y2="-238.88" gradientTransform="translate(-1076.06 125.4) rotate(161.36)" gradientUnits="userSpaceOnUse">
      <stop offset="0" stop-color="#85c565"/>
      <stop offset="1" stop-color="#76b75a"/>
    </linearGradient>
    <linearGradient id="linear-gradient-2" x1="-1672.43" y1="-9.38" x2="-1675.56" y2="-4.93" gradientTransform="translate(-1656.27 105.26) rotate(176.56)" gradientUnits="userSpaceOnUse">
      <stop offset="0" stop-color="#fdc456"/>
      <stop offset=".31" stop-color="#fdc55b"/>
      <stop offset=".71" stop-color="#feca6a"/>
      <stop offset="1" stop-color="#ffcf7b"/>
    </linearGradient>
    <linearGradient id="linear-gradient-3" x1="78.19" y1="14.68" x2="77.1" y2="19.6" gradientUnits="userSpaceOnUse">
      <stop offset="0" stop-color="#ffcf7b"/>
      <stop offset=".29" stop-color="#feca6a"/>
      <stop offset=".69" stop-color="#fdc55b"/>
      <stop offset="1" stop-color="#fdc456"/>
    </linearGradient>
    <linearGradient id="linear-gradient-4" x1="-692.93" y1="323.12" x2="-691.47" y2="327.76" gradientTransform="translate(-694.29 -23.99) rotate(-152.49)" xlink:href="#linear-gradient"/>
    <linearGradient id="linear-gradient-5" x1="-972.23" y1="-56.31" x2="-973.13" y2="-51.32" gradientTransform="translate(-914.62 -69.67) rotate(-178.58)" gradientUnits="userSpaceOnUse">
      <stop offset=".23" stop-color="#f1696a"/>
      <stop offset=".53" stop-color="#f16e6f"/>
      <stop offset=".93" stop-color="#f27f80"/>
      <stop offset=".96" stop-color="#f38182"/>
    </linearGradient>
    <linearGradient id="linear-gradient-6" x1="5.11" y1="2.08" x2="4.07" y2="7.37" gradientUnits="userSpaceOnUse">
      <stop offset=".04" stop-color="#f38182"/>
      <stop offset=".07" stop-color="#f27f80"/>
      <stop offset=".47" stop-color="#f16e6f"/>
      <stop offset=".77" stop-color="#f1696a"/>
    </linearGradient>
    <linearGradient id="linear-gradient-7" x1="-92.2" y1="487.04" x2="-96.19" y2="491.16" gradientTransform="translate(-173.85 -434.57) rotate(-36.04)" gradientUnits="userSpaceOnUse">
      <stop offset="0" stop-color="#ee9cc3"/>
      <stop offset=".16" stop-color="#ec88b8"/>
      <stop offset=".35" stop-color="#eb77ae"/>
      <stop offset=".57" stop-color="#ea6da8"/>
      <stop offset=".83" stop-color="#ea6aa7"/>
    </linearGradient>
    <linearGradient id="linear-gradient-8" x1="-1430.05" y1="-231.68" x2="-1426.05" y2="-231.68" gradientTransform="translate(-1382.55 329.03) rotate(157.91)" gradientUnits="userSpaceOnUse">
      <stop offset="0" stop-color="#5fbae9"/>
      <stop offset=".37" stop-color="#61bbe9"/>
      <stop offset=".59" stop-color="#69c0ea"/>
      <stop offset=".78" stop-color="#78c8ed"/>
      <stop offset=".94" stop-color="#8cd3f0"/>
      <stop offset="1" stop-color="#96d9f2"/>
    </linearGradient>
  </defs>
  <g>
    <path class="cls-8" d="M42.86.03c-.4.24.04,2.54.89,3.9.5.8,1.08.94,1.47.93.31-.01.6-.19.76-.46.2-.34.35-.92-.12-1.74-.79-1.39-2.61-2.87-3.01-2.63Z"/>
    <path class="cls-9" d="M46.89,6.77c-.31.19-.72.08-.91-.23l-1.02-1.7,1.14-.68,1.02,1.7c.19.31.08.72-.23.91Z"/>
  </g>
  <g>
    <path class="cls-7" d="M14.67,14.57c.45.12,1.81-1.78,2.2-3.33.23-.91-.06-1.43-.34-1.71-.23-.22-.55-.31-.86-.24-.38.09-.9.38-1.17,1.28-.46,1.53-.28,3.87.17,3.99Z"/>
    <path class="cls-9" d="M16.76,7.01c.35.1.56.46.46.81l-.53,1.91-1.27-.35.53-1.91c.1-.35.46-.56.81-.46Z"/>
  </g>
  <g>
    <path class="cls-6" d="M77.44,19.76c.46.05,1.51-2.04,1.67-3.63.09-.94-.28-1.41-.6-1.63-.26-.18-.59-.22-.88-.1-.36.15-.83.52-.96,1.45-.22,1.59.32,3.86.78,3.92Z"/>
    <path class="cls-9" d="M78.35,11.96c.36.04.62.37.58.73l-.23,1.97-1.31-.15.23-1.97c.04-.36.37-.62.73-.58Z"/>
  </g>
  <g>
    <path class="cls-5" d="M71.32,4.85c-.42-.21-2.11,1.41-2.79,2.86-.4.85-.21,1.42.02,1.74.18.26.48.41.8.39.39-.02.96-.21,1.39-1.04.74-1.42.99-3.75.58-3.95Z"/>
    <path class="cls-9" d="M67.85,11.89c-.33-.16-.46-.56-.3-.89l.88-1.78,1.19.59-.88,1.78c-.16.33-.56.46-.89.3Z"/>
  </g>
  <g>
    <path class="cls-3" d="M56.38,10.91c.47.03,1.41-2.11,1.48-3.71.04-.94-.35-1.39-.68-1.6-.27-.17-.6-.19-.89-.06-.36.16-.81.56-.89,1.5-.14,1.59.51,3.84.98,3.87Z"/>
    <path class="cls-9" d="M56.89,3.08c.36.02.64.34.62.7l-.13,1.98-1.32-.09.13-1.98c.02-.36.34-.64.7-.62Z"/>
  </g>
  <g>
    <path class="cls-4" d="M3.25,2.45c-.42.19-.24,2.53.45,3.97.41.85.97,1.06,1.36,1.08.31.02.62-.12.81-.37.24-.31.45-.87.07-1.74-.63-1.47-2.27-3.14-2.7-2.95Z"/>
    <path class="cls-9" d="M6.51,9.59c-.33.15-.72,0-.88-.33l-.82-1.81,1.2-.55.82,1.81c.15.33,0,.72-.33.88Z"/>
  </g>
  <g>
    <path class="cls-2" d="M38.82,18.73c.45-.14.57-2.48.06-3.99-.3-.89-.82-1.17-1.21-1.25-.31-.06-.63.04-.85.26-.27.28-.56.81-.3,1.71.44,1.54,1.85,3.41,2.29,3.27Z"/>
    <path class="cls-9" d="M36.51,11.22c.35-.11.72.09.83.44l.58,1.9-1.26.39-.58-1.9c-.11-.35.09-.72.44-.83Z"/>
  </g>
  <g>
    <path class="cls-1" d="M28.75,4.03c-.44-.15-1.9,1.68-2.38,3.21-.28.9-.01,1.43.25,1.72.21.23.53.34.84.28.39-.07.92-.33,1.24-1.22.54-1.51.49-3.85.04-4Z"/>
    <path class="cls-9" d="M26.25,11.48c-.35-.12-.53-.49-.42-.84l.63-1.88,1.25.42-.63,1.88c-.12.35-.49.53-.84.42Z"/>
  </g>
  <g>
    <path class="cls-9" d="M82.54,11.53c-.37.12-.73.25-1.1.35-4.42,1.24-9.38,1.27-13.52-.91-3.47-1.82-5.89-5.17-9.47-6.8-2.77-1.26-5.72-.98-8.46.19-6.69,2.87-11.97,9.36-19.93,7.68-4.04-.85-7.64-3.06-11.61-4.15-4.13-1.14-8.17-.46-12.06,1.21-2.12.9-4.13,2.02-6.13,3.15-.06.04,0,.13.06.1,4.24-2.39,8.79-4.93,13.79-4.96,4.42-.03,8.36,2.18,12.38,3.69,3.44,1.29,6.95,1.9,10.5.67,3.18-1.09,5.93-3.12,8.73-4.91,2.85-1.82,6.08-3.69,9.6-3.4,4.23.36,7.06,3.71,10.23,6.12,3.24,2.45,7.13,3.48,11.17,3.23,2.03-.12,3.96-.57,5.83-1.2v-.08Z"/>
    <path class="cls-9" d="M82.54,11.28c-.39.13-.77.27-1.17.38-4.9,1.37-9.65,1.06-13.36-.89-1.62-.85-3.03-2.06-4.4-3.23-1.55-1.33-3.16-2.7-5.07-3.57-2.6-1.19-5.59-1.12-8.65.19-2.12.91-4.11,2.19-6.04,3.43-4.31,2.77-8.38,5.38-13.76,4.24-2.19-.46-4.3-1.35-6.34-2.2-1.7-.71-3.45-1.45-5.26-1.95-3.83-1.05-7.83-.66-12.21,1.22-2.08.89-4.02,1.96-6.15,3.16-.14.08-.18.24-.1.38.08.14.25.19.38.11,4.08-2.3,8.7-4.9,13.68-4.93,3.35-.02,6.49,1.29,9.52,2.55.91.38,1.85.77,2.78,1.12,4.11,1.55,7.5,1.76,10.65.68,2.61-.9,4.95-2.43,7.22-3.91.51-.34,1.04-.68,1.57-1.01,2.92-1.86,6.06-3.65,9.46-3.36,3.18.27,5.61,2.32,7.95,4.3.7.6,1.43,1.21,2.17,1.77,3.18,2.4,7.09,3.53,11.32,3.28,2.04-.12,3.96-.57,5.81-1.19v-.55Z"/>
  </g>
</svg>