<?xml version="1.0" encoding="UTF-8"?>
<svg id="Layer_1" data-name="Layer 1" xmlns="http://www.w3.org/2000/svg" xmlns:xlink="http://www.w3.org/1999/xlink" viewBox="0 0 1919.99 104.96">
  <defs>
    <style>
      .cls-1 {
        fill: none;
      }

      .cls-2 {
        fill: #ce2b27;
      }

      .cls-3 {
        clip-path: url(#clippath);
      }
    </style>
    <clipPath id="clippath">
      <rect class="cls-1" width="1919.99" height="104.96"/>
    </clipPath>
  </defs>
  <g class="cls-3">
    <g>
      <rect class="cls-1" x=".09" y="-71.82" width="1919.9" height="176.78" transform="translate(1920.08 33.14) rotate(180)"/>
      <path class="cls-2" d="M-33.38,77.4v261.83h1986.84V30.38l-18.47.66c-.66-14.1-10.49-25.21-21.96-24.8-11.47.41-20.24,12.17-19.59,26.27-.66-14.1-10.49-25.21-21.96-24.8-11.47.41-20.24,12.17-19.59,26.27-.66-14.1-10.49-25.21-21.96-24.8-11.47.41-20.24,12.17-19.59,26.27-.66-14.1-10.49-25.21-21.96-24.8-11.47.41-20.24,12.17-19.59,26.27-.66-14.1-10.49-25.21-21.96-24.8-11.47.41-20.24,12.17-19.58,26.27-.66-14.1-10.49-25.21-21.96-24.8-11.47.41-20.24,12.17-19.59,26.27-.66-14.1-10.49-25.21-21.96-24.8-11.47.41-20.24,12.17-19.58,26.27-.66-14.1-10.49-25.21-21.96-24.8s-20.24,12.17-19.58,26.27c-.66-14.1-10.49-25.21-21.96-24.8s-20.24,12.17-19.58,26.27c-.66-14.1-10.49-25.21-21.96-24.8s-20.24,12.17-19.58,26.27c-.66-14.1-10.49-25.21-21.96-24.8s-20.24,12.17-19.58,26.27c-.66-14.1-10.49-25.21-21.96-24.8s-20.24,12.17-19.58,26.27c-.66-14.1-10.49-25.21-21.96-24.8s-20.24,12.17-19.58,26.27c-.66-14.1-10.49-25.21-21.96-24.8-11.47.41-20.24,12.17-19.59,26.27-.66-14.1-10.49-25.21-21.96-24.8-11.47.41-20.24,12.17-19.58,26.27-.66-14.1-10.49-25.21-21.96-24.8-11.47.41-20.24,12.17-19.58,26.27-.66-14.1-10.49-25.21-21.96-24.8-11.47.41-20.24,12.17-19.59,26.27-.66-14.1-10.49-25.21-21.96-24.8-11.47.41-20.24,12.17-19.59,26.27-.66-14.1-10.49-25.21-21.96-24.8-11.47.41-20.24,12.17-19.59,26.27-.66-14.1-10.49-25.21-21.96-24.8-11.47.41-20.24,12.17-19.59,26.27-.66-14.1-10.49-25.21-21.96-24.8-11.47.41-20.24,12.17-19.58,26.27-.66-14.1-10.49-25.21-21.96-24.8-11.47.41-20.24,12.17-19.59,26.27-.66-14.1-10.49-25.21-21.96-24.8-11.47.41-20.24,12.17-19.59,26.27-.66-14.1-10.49-25.21-21.96-24.8-11.47.41-20.24,12.17-19.58,26.27l-1.94.07c-.66-14.1-10.49-25.21-21.96-24.8-11.47.41-20.24,12.17-19.58,26.27-.66-14.1-10.49-25.21-21.96-24.8s-20.24,12.17-19.58,26.27c-.66-14.1-10.49-25.21-21.96-24.8s-20.24,12.17-19.58,26.27c-.66-14.1-10.49-25.21-21.96-24.8s-20.24,12.17-19.58,26.27c-.66-14.1-10.49-25.21-21.96-24.8s-20.24,12.17-19.58,26.27c-.66-14.1-10.49-25.21-21.96-24.8s-20.24,12.17-19.58,26.27c-.66-14.1-10.49-25.21-21.96-24.8s-20.24,12.17-19.58,26.27c-.66-14.1-10.49-25.21-21.96-24.8s-20.24,12.17-19.58,26.27c-.66-14.1-10.49-25.21-21.96-24.8s-20.24,12.17-19.58,26.27c-.66-14.1-10.49-25.21-21.96-24.8s-20.24,12.17-19.58,26.27c-.66-14.1-10.49-25.21-21.96-24.8s-20.24,12.17-19.58,26.27c-.66-14.1-10.49-25.21-21.96-24.8s-20.24,12.17-19.58,26.27c-.66-14.1-10.49-25.21-21.96-24.8s-20.24,12.17-19.58,26.27c-.66-14.1-10.49-25.21-21.96-24.8s-20.24,12.17-19.58,26.27c-.66-14.1-10.49-25.21-21.96-24.8s-20.24,12.17-19.58,26.27c-.66-14.1-10.49-25.21-21.96-24.8s-20.24,12.17-19.58,26.27c-.66-14.1-10.49-25.21-21.96-24.8s-20.24,12.17-19.58,26.27c-.66-14.1-10.49-25.21-21.96-24.8s-20.24,12.17-19.58,26.27c-.66-14.1-10.49-25.21-21.96-24.8s-20.24,12.17-19.58,26.27c-.66-14.1-10.49-25.21-21.96-24.8s-20.24,12.17-19.58,26.27c-.66-14.1-10.49-25.21-21.96-24.8s-20.24,12.17-19.58,26.27c-.66-14.1-10.49-25.21-21.96-24.8s-20.24,12.17-19.59,26.27c-.66-14.1-10.49-25.21-21.96-24.8s-20.24,12.17-19.58,26.27c-.49-10.5-6.07-19.32-13.61-22.99l-.31.19Z"/>
    </g>
  </g>
</svg>