<?xml version="1.0" encoding="UTF-8"?>
<svg id="Layer_1" data-name="Layer 1" xmlns="http://www.w3.org/2000/svg" viewBox="0 0 30.26 30.4">
  <defs>
    <style>
      .cls-1 {
        fill-rule: evenodd;
      }

      .cls-1, .cls-2 {
        fill: #deb663;
      }

      .cls-3 {
        fill: #564343;
      }

      .cls-4 {
        fill: #fff;
      }
    </style>
  </defs>
  <g>
    <path class="cls-4" d="M17.89,29.99l-13.72-8.18c-1.39-.83-1.85-2.63-1.02-4.03l4.58-7.68c.83-1.4,2.63-1.85,4.02-1.02l2.11,1.26c1.02-1.4,2.96-1.82,4.48-.92l4.19,2.5c1.52.9,2.07,2.81,1.33,4.37l1.61.96c1.4.83,1.85,2.63,1.02,4.02l-4.57,7.68c-.83,1.39-2.63,1.85-4.02,1.02Z"/>
    <g>
      <path class="cls-2" d="M17.46,15.98c-.64-.38-1.33-.58-2.02-.61.05.02.09.05.13.07.81.48,1.07,1.52.59,2.33s-1.52,1.07-2.33.59-1.07-1.52-.59-2.33c.07-.12.15-.22.24-.32-.83.35-1.56.96-2.06,1.8-1.24,2.09-.56,4.79,1.53,6.03s4.79.56,6.03-1.53.56-4.79-1.53-6.03Z"/>
      <path class="cls-3" d="M25.47,17.27l-1.61-.96c.75-1.56.19-3.47-1.33-4.37l-4.19-2.5c-1.52-.9-3.46-.49-4.48.91l-2.12-1.26c-1.39-.83-3.19-.37-4.02,1.02l-4.58,7.68c-.83,1.39-.37,3.19,1.02,4.02l13.73,8.18c1.39.83,3.19.37,4.02-1.02l4.58-7.68c.83-1.39.37-3.19-1.02-4.02ZM12.22,24.8c-2.75-1.64-3.65-5.2-2.01-7.95s5.2-3.65,7.95-2.01,3.65,5.2,2.01,7.95-5.2,3.65-7.95,2.01ZM23.53,20.26c-.44-.26-.58-.83-.32-1.27s.83-.58,1.27-.32.58.83.32,1.27-.83.58-1.27.32Z"/>
    </g>
  </g>
  <path class="cls-1" d="M.83,24.25c-1.15.68-1.1,2.22.09,2.85.48.25,1.35.2,1.79-.1.64-.42.85-.82.85-1.52,0-.54-.05-.66-.32-.9-.17-.15-.44-.27-.58-.27-.15,0-.33-.08-.41-.17-.22-.26-.91-.2-1.43.11ZM2.05,25.22c.11.07.22.19.22.29,0,.2-.49.44-.73.35-.22-.08-.24-.43-.05-.62.17-.17.27-.17.56-.02Z"/>
  <path class="cls-1" d="M25.2.25c-.08.15-.19.44-.23.67-.18,1.02-1.63,2.64-2.99,3.32-.94.48-1.15.75-.88,1.15.12.19.33.29.7.35.92.14,2.35,1.27,2.72,2.14.08.2.2.68.26,1.08.12.78.36,1.13.76,1.13.34,0,.57-.36.67-1.08.1-.75.37-1.25,1.09-2.03.62-.68,1.3-1.15,1.96-1.33.49-.14.98-.69.9-1.01-.06-.24-.57-.57-.85-.57-.35,0-1.54-.68-1.93-1.11-.52-.58-.67-.87-1-1.95-.14-.47-.31-.88-.39-.93-.25-.17-.64-.09-.79.16Z"/>
  <path class="cls-1" d="M29.2,26.3c-.57.4-.09,1.3.6,1.13.37-.09.57-.56.39-.9-.25-.45-.57-.53-.99-.24Z"/>
</svg>