<?xml version="1.0" encoding="UTF-8"?>
<svg id="Layer_13" data-name="Layer 13" xmlns="http://www.w3.org/2000/svg" viewBox="0 0 781.67 534.03">
  <defs>
    <style>
      .cls-1 {
        stroke: #231f20;
        stroke-miterlimit: 10;
        stroke-width: 5px;
      }

      .cls-1, .cls-2 {
        fill: #fff;
      }

      .cls-3 {
        fill: #f9cf58;
      }
    </style>
  </defs>
  <path class="cls-1" d="M772.01,334.58c-.34-.7-1.6-2.21-1.65-2.77-.07-.78,2.07-1.73,2.63-2.18,3.31-2.65,1.57-6.3-1.09-8.68-.36-.32-1.32-.73-1.48-.99-.14-.22.27-2.46.02-3.44-.23-.89-1.35-2.27-2.11-2.8-3.43-2.4-8.67.16-10.74-1.76-.53-.49-.6-1.11-1.32-1.62-3.76-2.7-10.14-.23-13.73,1.82-9.16,5.23-21.49,15.36-28.48,23.24-7.32,8.26-14.49,17.79-18,28.35-2.19-.52-3.59.23-5.03,1.81-.43.47-1.27,2.1-1.38,2.17-.28.18-1.4-.05-1.99.1-1.29.33-2.84,2.77-3.5,3.88-6.2-4.37-13.32-8.8-20.64-10.98-2.97-.88-5.6-.28-6.74-3.8-.39-1.2-.54-2.73-.66-3.99-.14-1.36.52-3.68-1.04-4.35-2.4-1.02-5.55.79-7.04,2.64-.38.47-.7,1.66-1.14,1.81-1.51.51-3.47-2.23-3.7-3.58-.83-4.89,5.2-7.58,9.18-6,1.81.72,3.07,2.7,5.35.79,3.14-2.64-.99-9.06-3.31-11.16-4.06-3.68-12.34-3.84-17.4-2.45-10.45,2.89-17.83,15.12-11.76,25.13-3.9-.39-4.76,2.6-4.18,5.88-7.67,2.03-15.36,5.57-21.55,10.55-.22-1.54-1.53-3.2-3.05-3.69-.62-.2-1.91-.18-2.06-.27-.17-.11-1.64-2.67-2.24-3.27-1.96-1.94-2.46-.69-4.65-.12-.15-1.83-.96-3.64-1.67-5.32-6.95-16.22-25.34-33.72-39.81-43.54-5.74-3.9-16.36-11.23-21.66-3.17-4.58-.26-12.23-1.48-12.53,5.07-.03.57.4,1.2.15,1.92-.12.34-2.36,1.64-2.9,2.25-2.67,2.99-1.32,6.14,1.35,8.45.43.37,1.4.66,1.35,1.09-3.25,6.03-5.25,12.63-6.7,19.31-1.59,7.28-2.74,16.2-2.13,23.62,1.92,23.34,7.25,42.25,25.24,58.12,5.26,4.64,12.74,8.51,19.85,8.7.25,5.49,6.8,5.95,11.04,5.03,2.06-.44,3.48-1.54,5.37-2.09.11,1.5,1.59,2.77,1.92,4.09.13.54.46,4.33.3,4.48-5.96-.98-13.2,1.15-11.41,8.6.37,1.53,2.43,3.86,2.58,5.03.16,1.2-1.26,3.82-1.12,5.74.29,4.03,5.28,6.56,8.86,6.88.48.04.93-.27,1.41-.21,1.1.14,3.01,1.93,4.95,2.16,1.28.15,3.05,0,4.41,0,.08,0,.35-.34.61-.24.5.6-1.58,4.74-.1,6.85.39.55,1.94,1.08,2.05,1.4.33,1-1.11,2.83.12,5.01.89,1.57,3.59,1.71,3.94,2.19.21.3.82,3.04,1.1,3.8,1.14,3.06,2.67,5.52,4.67,8.08.43.55,2.28,2.33,2.44,2.71.17.41-.16.33-.31.42-1.86,1.09-3.1,1.59-4.3,3.55-1.95,3.17-1.64,5.86.34,8.89,1.16,1.76,1.63,1.02,2.69,1.97.62.55.58,1.16.97,1.72,1.06,1.52,4.51,3.08,6.35,3.21,1.23.09,2.76-.34,3.66-.25,2.24.21,4.51,1.2,7.38,1.17,5.43-.06,12.79-3.87,14.22-9.51.2-.78.39-5.29.98-5.4,10.38,5.02,22.17,5.8,33.08,1.97,1.02-.36,3.88-1.87,4.61-1.89.23,0,.77.12.91.34.39.63.45,3.85.8,5.03,1.52,5.11,8.81,9.51,14.02,9.26,2.19-.1,3.89-1.25,5.41-1.46,1.82-.25,3.24.5,5.69-.18,3.03-.84,2.72-2.11,4.48-3.37.45-.32,1.47-.47,2.12-.82,5.22-2.88,3.72-8.45.2-12.07-.52-.53-2.34-1.71-2.35-2.08,2.57-3.43,6.3-7.29,7.3-11.6.19-.83.27-3.75.42-3.99.47-.72,4.02-.3,4.22-3.09.05-.72-.49-2.65-.38-3.11.16-.65,2.41-1.35,2.64-3.26.16-1.35-.4-3.18-.72-4.51h4.53c3.11,0,4.97-1.82,7.41-2.64,1.19-.4,2.41-.33,3.63-.78,2.44-.89,4.97-3.68,5.21-6.34.1-1.19-.37-4.47-1.91-4.47-.17-.23,1.55-2.16,1.87-2.66,2.33-3.72,2.72-9.64-2.23-11.32-2.36-.8-4.81-.18-7.23,0,.44-1.22-1.81-4.03-1.7-4.48.23-.92,3.85-2.99,3.41-4.83.91-.04,1.46.67,2.31.99,3.83,1.43,8.31,2.55,11.77-.26,1.07-.87,1.73-2.33,2.9-2.99,1.38-.78,3.88-.87,5.63-1.48,11.26-3.92,22.56-16.23,28.16-26.51,11.61-21.33,13.39-57.56,2.62-79.46Z"/>
  <g>
    <g>
      <path class="cls-3" d="M309.2,377.39c148.56-10.53,423.83-83.99,421.43-208.26-1.47-75.9-83.04-122.3-238.88-124.76-219.54-3.47-398.35,52.75-454.83,124.76-49.81,63.5-19.26,228.92,272.27,208.26Z"/>
      <path class="cls-3" d="M373.57,348.27c-7.61,11.34,77.36,62.04,183.9,61.68,0,0-54-18.8-53.9-92.8l-130.01,31.11Z"/>
    </g>
    <polygon class="cls-3" points="69.19 98.35 10.89 94.2 0 66.22 69.19 98.35"/>
    <polygon class="cls-3" points="118.78 75.56 50.82 32.44 84.8 11.56 118.78 75.56"/>
    <polygon class="cls-3" points="174.5 54.22 154.3 5.33 180.62 0 174.5 54.22"/>
  </g>
  <g>
    <path class="cls-2" d="M205.39,129.05h5.89c-.18,2.09-.51,4-.99,5.73-.48,1.73-1.24,3.29-2.3,4.67-1.06,1.38-2.55,2.58-4.49,3.61-1.93,1.03-4.45,1.89-7.54,2.6-.15-.52-.41-1.08-.76-1.68-.35-.6-.74-1.2-1.15-1.79-.41-.6-.82-1.08-1.22-1.45,2.67-.49,4.8-1.1,6.39-1.82,1.59-.72,2.81-1.56,3.66-2.51.84-.95,1.43-2.03,1.77-3.24.34-1.21.58-2.58.74-4.12ZM199.54,103.71h30.22v27.14h-30.22v-27.14ZM204.88,108.49v2.85h19.27v-2.85h-19.27ZM204.88,115.8v2.85h19.27v-2.85h-19.27ZM204.88,123.16v2.9h19.27v-2.9h-19.27ZM216.61,127.17h5.66v10.99c0,.74.12,1.2.35,1.4.23.2.77.3,1.63.3h4.83c.52,0,.92-.14,1.2-.41.28-.28.48-.86.6-1.75.12-.89.21-2.24.28-4.05.4.31.9.61,1.5.92.6.31,1.23.57,1.89.78.66.21,1.22.4,1.68.55-.18,2.42-.51,4.3-.97,5.64s-1.13,2.26-2.02,2.78c-.89.52-2.1.78-3.63.78h-6.12c-1.81,0-3.21-.21-4.21-.64-1-.43-1.69-1.15-2.07-2.16-.38-1.01-.57-2.38-.57-4.09v-11.04Z"/>
    <path class="cls-2" d="M249.73,134.94c.89,1.53,2.15,2.66,3.77,3.38,1.63.72,3.6,1.13,5.93,1.22,1.38.06,3.04.1,4.99.11,1.95.02,3.99,0,6.12-.02,2.13-.03,4.22-.08,6.26-.16,2.04-.08,3.87-.19,5.5-.34-.22.4-.44.93-.67,1.59s-.45,1.33-.64,2c-.2.67-.35,1.27-.44,1.79-1.41.09-3.04.15-4.88.18-1.84.03-3.74.05-5.7.07-1.96.01-3.86.01-5.7,0-1.84-.02-3.47-.05-4.88-.12-2.76-.12-5.11-.57-7.04-1.33s-3.59-2.04-4.97-3.82c-.89.92-1.83,1.83-2.83,2.74-1,.9-2.08,1.85-3.24,2.83l-2.62-5.47c.98-.64,2.02-1.36,3.1-2.16,1.09-.8,2.14-1.62,3.15-2.48h4.78ZM249.73,120.17v16.97h-5.29v-11.87h-5.2v-5.11h10.49ZM239.43,106.56l4.19-3.13c.89.67,1.81,1.44,2.76,2.3.95.86,1.82,1.72,2.62,2.58.8.86,1.44,1.67,1.93,2.44l-4.55,3.5c-.43-.77-1.02-1.6-1.77-2.51-.75-.9-1.59-1.81-2.51-2.71-.92-.9-1.81-1.72-2.67-2.46ZM249.82,124.5c1.2-.58,2.65-1.33,4.35-2.25,1.7-.92,3.43-1.87,5.18-2.85l1.43,4.14c-1.38,1.01-2.8,1.99-4.25,2.94-1.46.95-2.84,1.86-4.16,2.71l-2.53-4.69ZM251.11,107.57l4.37-1.56c.58.95,1.13,1.99,1.66,3.13.52,1.13.99,2.24,1.4,3.31.41,1.07.68,2.06.81,2.94l-4.69,1.75c-.12-.86-.36-1.84-.71-2.94-.35-1.1-.77-2.24-1.26-3.4-.49-1.17-1.01-2.24-1.56-3.22ZM259.25,102.28h4.88v16.05c0,1.99-.11,3.93-.32,5.8-.21,1.87-.64,3.65-1.29,5.34s-1.58,3.25-2.81,4.69-2.87,2.74-4.92,3.91c-.25-.4-.58-.84-1.01-1.33-.43-.49-.87-.97-1.31-1.43-.44-.46-.87-.81-1.27-1.06,1.81-.95,3.24-2.02,4.3-3.2,1.06-1.18,1.86-2.45,2.39-3.79.54-1.35.9-2.78,1.08-4.3.18-1.52.28-3.07.28-4.67v-16.01ZM266.75,102.28h4.88v28.15c0,.92.08,1.5.23,1.73.15.23.49.34,1.01.34h3.17c.46,0,.76-.24.9-.71.14-.48.24-1.43.3-2.88.52.37,1.2.74,2.02,1.1s1.61.63,2.35.78c-.28,2.36-.8,4.01-1.56,4.95s-1.96,1.4-3.59,1.4h-4.46c-1.38,0-2.45-.2-3.22-.6s-1.3-1.08-1.59-2.05c-.29-.97-.44-2.32-.44-4.07v-28.15ZM270.06,121.51l3.36-3.08c.95.55,1.96,1.2,3.01,1.93,1.06.74,2.05,1.48,2.97,2.23.92.75,1.67,1.46,2.25,2.14l-3.63,3.45c-.52-.64-1.23-1.36-2.12-2.16-.89-.8-1.85-1.59-2.88-2.39-1.03-.8-2.02-1.5-2.97-2.12ZM275.31,105.96l5.52,1.79c-.61,1.04-1.25,2.12-1.91,3.22-.66,1.1-1.3,2.16-1.91,3.15-.61,1-1.2,1.88-1.75,2.64l-3.91-1.56c.49-.86.98-1.82,1.47-2.9.49-1.07.96-2.16,1.4-3.27.44-1.1.81-2.13,1.08-3.08Z"/>
    <path class="cls-2" d="M287.68,110.84c2.85.34,5.54.57,8.05.69,2.51.12,4.86.15,7.04.09,2.18-.06,4.17-.2,5.98-.41,1.41-.18,2.78-.38,4.12-.6,1.33-.21,2.65-.47,3.96-.78,1.3-.31,2.54-.64,3.7-1.01l.74,5.8c-1.01.28-2.11.54-3.29.78-1.18.25-2.4.47-3.66.67-1.26.2-2.5.38-3.73.53-3.1.34-6.5.54-10.21.6-3.71.06-7.91-.09-12.6-.46l-.09-5.89ZM296.88,126.52c-.71,1.07-1.26,2.12-1.66,3.15-.4,1.03-.6,2.05-.6,3.06,0,1.93.84,3.33,2.53,4.21,1.69.87,4.09,1.31,7.22,1.31,2.51,0,4.79-.11,6.83-.32,2.04-.21,3.87-.47,5.5-.78l-.32,5.8c-1.29.25-2.97.49-5.04.74-2.07.25-4.52.37-7.34.37-3.1-.03-5.8-.44-8.1-1.22-2.3-.78-4.08-1.95-5.34-3.5-1.26-1.55-1.89-3.41-1.89-5.59,0-1.41.21-2.8.62-4.16s1.02-2.83,1.82-4.39l5.75,1.33ZM304.42,108.67c-.18-.52-.4-1.17-.64-1.93-.25-.77-.52-1.53-.83-2.3l6.21-.74c.25,1.2.52,2.38.83,3.56.31,1.18.64,2.33,1.01,3.45.37,1.12.74,2.17,1.1,3.15.71,1.9,1.54,3.76,2.51,5.59.97,1.83,1.82,3.26,2.55,4.3.4.58.81,1.13,1.22,1.63.41.51.83.99,1.26,1.45l-2.85,4.14c-.64-.12-1.46-.25-2.44-.39s-2.05-.27-3.2-.39c-1.15-.12-2.3-.25-3.45-.37-1.15-.12-2.2-.21-3.15-.28l.46-4.88c.77.06,1.58.13,2.44.21.86.08,1.66.15,2.42.21.75.06,1.37.11,1.86.14-.55-.89-1.14-1.9-1.75-3.04-.61-1.13-1.21-2.32-1.79-3.56-.58-1.24-1.12-2.49-1.61-3.75-.49-1.29-.91-2.45-1.26-3.5-.35-1.04-.65-1.95-.9-2.71Z"/>
    <path class="cls-2" d="M345.5,104.3c-.18.77-.43,1.76-.74,2.99-.31,1.23-.65,2.51-1.04,3.86-.38,1.35-.79,2.68-1.22,4-.68,2.21-1.56,4.55-2.67,7.04-1.1,2.48-2.3,4.91-3.59,7.27-1.29,2.36-2.59,4.46-3.91,6.3l-5.57-2.85c1.04-1.29,2.07-2.71,3.08-4.28,1.01-1.56,1.96-3.17,2.85-4.83.89-1.66,1.69-3.26,2.42-4.81.72-1.55,1.3-2.95,1.73-4.21.58-1.62,1.1-3.44,1.54-5.45.44-2.01.7-3.9.76-5.68l6.35.64ZM327.61,111.2c.98.12,2.03.21,3.15.25,1.12.05,2.11.07,2.97.07,1.9,0,3.83-.11,5.77-.32,1.95-.21,3.83-.5,5.64-.85,1.81-.35,3.45-.76,4.92-1.22l.18,5.34c-1.32.34-2.89.68-4.72,1.04-1.82.35-3.75.64-5.77.87-2.02.23-4.02.34-5.98.34-.92,0-1.86-.01-2.81-.05-.95-.03-1.93-.08-2.94-.14l-.41-5.34ZM356.27,118.61c-.06.98-.08,1.96-.07,2.92.01.97.04,1.96.07,2.97.03.71.07,1.6.11,2.69.05,1.09.1,2.24.16,3.45.06,1.21.12,2.36.16,3.45.05,1.09.07,1.96.07,2.6,0,1.41-.29,2.69-.87,3.84-.58,1.15-1.51,2.06-2.78,2.74-1.27.67-3.01,1.01-5.22,1.01-1.9,0-3.62-.28-5.15-.85-1.53-.57-2.76-1.41-3.68-2.53s-1.38-2.52-1.38-4.21c0-1.5.4-2.86,1.2-4.07.8-1.21,1.96-2.16,3.47-2.85,1.52-.69,3.35-1.04,5.5-1.04,2.7,0,5.18.38,7.45,1.13,2.27.75,4.31,1.71,6.12,2.88,1.81,1.17,3.36,2.33,4.65,3.5l-3.08,4.92c-.83-.74-1.77-1.56-2.83-2.48-1.06-.92-2.24-1.78-3.54-2.58-1.3-.8-2.71-1.46-4.23-1.98-1.52-.52-3.15-.78-4.9-.78-1.32,0-2.38.26-3.17.78-.8.52-1.2,1.2-1.2,2.02s.35,1.55,1.04,2.07,1.66.78,2.92.78c1.04,0,1.87-.18,2.48-.53.61-.35,1.04-.86,1.29-1.52.25-.66.37-1.4.37-2.23,0-.71-.03-1.7-.09-2.99-.06-1.29-.13-2.71-.21-4.28-.08-1.56-.15-3.13-.21-4.69-.06-1.56-.12-2.94-.18-4.14h5.75ZM364.18,121.05c-.89-.74-1.99-1.52-3.31-2.35-1.32-.83-2.68-1.62-4.07-2.37-1.4-.75-2.61-1.36-3.66-1.82l2.94-4.55c.83.37,1.77.82,2.83,1.36,1.06.54,2.13,1.1,3.22,1.68,1.09.58,2.1,1.16,3.04,1.72.94.57,1.69,1.07,2.28,1.5l-3.27,4.83Z"/>
    <path class="cls-2" d="M380.55,108.44c-.12.55-.22,1.18-.3,1.89-.08.71-.14,1.4-.18,2.07-.05.67-.07,1.23-.07,1.66-.03,1.01-.04,2.05-.02,3.13.02,1.07.05,2.17.09,3.29.05,1.12.11,2.23.21,3.33.21,2.21.52,4.16.92,5.84.4,1.69.92,3,1.56,3.93s1.46,1.4,2.44,1.4c.52,0,1.04-.29,1.54-.87.51-.58.97-1.34,1.38-2.28s.78-1.92,1.1-2.97c.32-1.04.61-2.02.85-2.94l4.6,5.61c-1.01,2.67-2.02,4.79-3.01,6.37s-2.03,2.71-3.1,3.4c-1.07.69-2.24,1.04-3.5,1.04-1.66,0-3.23-.55-4.71-1.66-1.49-1.1-2.75-2.89-3.79-5.36-1.04-2.47-1.78-5.76-2.21-9.87-.15-1.41-.27-2.9-.35-4.46-.08-1.56-.12-3.05-.14-4.46-.02-1.41-.02-2.58-.02-3.5,0-.64-.03-1.41-.09-2.3-.06-.89-.15-1.69-.28-2.39l7.08.09ZM403.55,109.5c.86,1.04,1.69,2.32,2.48,3.82.8,1.5,1.53,3.11,2.21,4.83.67,1.72,1.27,3.47,1.79,5.27s.94,3.54,1.27,5.24c.32,1.7.53,3.26.62,4.67l-6.07,2.35c-.15-1.87-.43-3.91-.83-6.12-.4-2.21-.94-4.43-1.61-6.67-.67-2.24-1.48-4.35-2.41-6.35-.94-1.99-2.03-3.71-3.29-5.15l5.84-1.89Z"/>
    <path class="cls-2" d="M438.33,104.44c-.06.43-.12.96-.18,1.59-.06.63-.11,1.27-.14,1.93-.03.66-.06,1.28-.09,1.86-.03,1.1-.04,2.3-.02,3.59.01,1.29.02,2.59.02,3.91s.04,2.8.11,4.53c.08,1.73.18,3.52.3,5.36.12,1.84.22,3.55.3,5.13.08,1.58.11,2.86.11,3.84s-.15,1.99-.46,2.94c-.31.95-.83,1.8-1.56,2.55-.74.75-1.73,1.35-2.99,1.79-1.26.44-2.85.67-4.78.67-2.18,0-4.18-.27-6-.8-1.82-.54-3.27-1.42-4.35-2.65-1.07-1.23-1.61-2.88-1.61-4.97,0-1.59.46-3.04,1.38-4.35s2.31-2.34,4.16-3.11c1.85-.77,4.19-1.15,7.02-1.15,2.39,0,4.71.28,6.97.83,2.25.55,4.37,1.27,6.35,2.14s3.77,1.86,5.38,2.94c1.61,1.09,3,2.19,4.16,3.29l-3.54,5.47c-1.13-1.13-2.43-2.27-3.89-3.4-1.46-1.13-3.04-2.16-4.76-3.08-1.72-.92-3.55-1.66-5.5-2.23-1.95-.57-3.96-.85-6.05-.85-1.78,0-3.18.28-4.21.85-1.03.57-1.54,1.36-1.54,2.37,0,1.14.52,1.93,1.56,2.39,1.04.46,2.38.69,4,.69,1.44,0,2.47-.34,3.08-1.03.61-.69.92-1.8.92-3.33,0-.8-.03-1.91-.09-3.34-.06-1.43-.12-2.97-.18-4.65-.06-1.67-.12-3.29-.18-4.85-.06-1.56-.09-2.9-.09-4v-5.29c0-.83-.02-1.56-.05-2.21-.03-.77-.07-1.49-.11-2.16s-.09-1.29-.14-1.84c-.05-.55-.13-1.01-.25-1.38h6.95ZM434.79,113.23c.67,0,1.64,0,2.9-.02,1.26-.02,2.65-.05,4.16-.12,1.52-.06,3.05-.15,4.6-.25,1.55-.11,2.98-.22,4.3-.34l.18,5.47c-1.29.12-2.71.23-4.28.32-1.56.09-3.11.16-4.65.21-1.53.05-2.94.08-4.21.11-1.27.03-2.26.05-2.97.05l-.05-5.43Z"/>
    <path class="cls-2" d="M482.72,126.29c0-1.01-.25-1.93-.76-2.76-.51-.83-1.26-1.5-2.25-2-1-.51-2.23-.76-3.7-.76-1.66,0-3.26.14-4.81.41-1.55.28-2.93.59-4.14.94-1.21.35-2.22.65-3.01.9-.67.18-1.42.44-2.23.76-.81.32-1.56.61-2.23.85l-1.75-6.58c.8-.06,1.66-.17,2.58-.32.92-.15,1.75-.31,2.48-.46,1.13-.28,2.43-.57,3.89-.9s3.04-.61,4.76-.85c1.72-.25,3.46-.37,5.24-.37,2.45,0,4.61.45,6.46,1.36,1.85.91,3.3,2.2,4.35,3.89,1.04,1.69,1.56,3.73,1.56,6.12s-.54,4.68-1.61,6.67c-1.07,1.99-2.59,3.73-4.55,5.22-1.96,1.49-4.28,2.72-6.95,3.7-2.67.98-5.6,1.69-8.79,2.12l-3.31-5.7c2.85-.34,5.44-.83,7.75-1.47,2.31-.64,4.29-1.46,5.93-2.46,1.64-1,2.9-2.18,3.77-3.54.87-1.36,1.31-2.95,1.31-4.76ZM464.64,104.21c1.32.28,2.91.54,4.76.78,1.85.25,3.77.46,5.75.64s3.86.33,5.66.44,3.29.18,4.48.21l-.92,5.66c-1.35-.09-2.93-.21-4.74-.37-1.81-.15-3.68-.33-5.61-.53s-3.79-.41-5.59-.64c-1.79-.23-3.37-.45-4.71-.67l.92-5.52Z"/>
    <path class="cls-2" d="M209.8,196.53v-34.09h6.81v34.09h-6.81Z"/>
    <path class="cls-2" d="M224.43,196.53v-25.76h5.52l.51,3.4h.14c1.13-1.1,2.38-2.05,3.73-2.85,1.35-.8,2.9-1.2,4.65-1.2,2.79,0,4.81.91,6.07,2.74,1.26,1.82,1.89,4.36,1.89,7.61v16.05h-6.76v-15.23c0-1.99-.28-3.39-.85-4.19-.57-.8-1.5-1.2-2.78-1.2-1.04,0-1.96.25-2.74.74-.78.49-1.65,1.21-2.6,2.16v17.71h-6.76Z"/>
    <path class="cls-2" d="M261.28,197.18c-1.72,0-3.46-.34-5.22-1.01-1.76-.67-3.29-1.53-4.58-2.58l3.08-4.28c1.13.86,2.26,1.54,3.38,2.05,1.12.51,2.29.76,3.52.76,1.29,0,2.23-.25,2.83-.76.6-.51.9-1.16.9-1.96,0-.64-.26-1.19-.78-1.63-.52-.44-1.2-.84-2.02-1.2-.83-.35-1.69-.7-2.58-1.04-1.07-.43-2.14-.95-3.2-1.56-1.06-.61-1.94-1.4-2.65-2.37-.71-.97-1.06-2.17-1.06-3.61,0-1.53.4-2.89,1.2-4.07.8-1.18,1.91-2.11,3.33-2.78,1.43-.67,3.12-1.01,5.08-1.01s3.53.32,4.99.97c1.46.64,2.71,1.38,3.75,2.21l-3.04,4.09c-.92-.67-1.83-1.21-2.74-1.61-.91-.4-1.83-.6-2.78-.6-1.2,0-2.07.23-2.62.69-.55.46-.83,1.06-.83,1.79,0,.61.23,1.13.69,1.54s1.09.78,1.89,1.08c.8.31,1.64.63,2.53.97.86.31,1.71.67,2.55,1.08.84.41,1.62.91,2.32,1.5.71.58,1.26,1.3,1.68,2.14.41.84.62,1.86.62,3.06,0,1.5-.39,2.88-1.17,4.12-.78,1.24-1.93,2.22-3.45,2.94-1.52.72-3.4,1.08-5.63,1.08Z"/>
    <path class="cls-2" d="M284.83,197.18c-2.02,0-3.67-.41-4.92-1.22-1.26-.81-2.16-1.94-2.71-3.38-.55-1.44-.83-3.11-.83-5.01v-11.45h-3.63v-5.01l4-.32.78-6.95h5.57v6.95h6.39v5.34h-6.39v11.41c0,1.47.31,2.56.92,3.27.61.71,1.49,1.06,2.62,1.06.43,0,.87-.06,1.33-.18.46-.12.86-.25,1.2-.37l1.15,4.92c-.71.21-1.51.43-2.42.64-.9.21-1.92.32-3.06.32Z"/>
    <path class="cls-2" d="M299.73,197.18c-1.5,0-2.83-.33-3.98-.99-1.15-.66-2.04-1.57-2.67-2.74-.63-1.17-.94-2.48-.94-3.96,0-2.73,1.18-4.85,3.54-6.37,2.36-1.52,6.12-2.55,11.27-3.11-.03-.86-.18-1.62-.46-2.28-.28-.66-.73-1.19-1.36-1.59-.63-.4-1.48-.6-2.55-.6-1.2,0-2.38.23-3.54.69-1.17.46-2.35,1.06-3.54,1.79l-2.39-4.51c1.01-.64,2.08-1.21,3.22-1.7,1.13-.49,2.33-.9,3.59-1.22,1.26-.32,2.56-.48,3.91-.48,2.18,0,4,.43,5.47,1.29,1.47.86,2.58,2.13,3.31,3.82s1.1,3.77,1.1,6.26v15.04h-5.52l-.46-2.76h-.23c-1.1.98-2.3,1.79-3.59,2.44s-2.68.97-4.19.97ZM301.99,191.89c.95,0,1.82-.22,2.6-.67.78-.44,1.57-1.07,2.37-1.86v-5.15c-2.09.25-3.74.6-4.97,1.06-1.23.46-2.1,1-2.62,1.63-.52.63-.78,1.33-.78,2.09,0,1.01.31,1.75.94,2.21.63.46,1.45.69,2.46.69Z"/>
    <path class="cls-2" d="M329.68,207.71c-2.02,0-3.85-.24-5.47-.71-1.63-.48-2.91-1.2-3.84-2.16-.94-.97-1.4-2.22-1.4-3.75,0-1.07.31-2.07.92-2.99.61-.92,1.53-1.7,2.76-2.35v-.23c-.68-.43-1.23-1-1.68-1.7-.44-.71-.67-1.59-.67-2.67,0-.95.28-1.85.85-2.69.57-.84,1.23-1.54,2-2.09v-.18c-.89-.64-1.69-1.55-2.39-2.71-.71-1.17-1.06-2.51-1.06-4.05,0-2.02.48-3.73,1.45-5.11.97-1.38,2.25-2.42,3.84-3.13,1.59-.71,3.28-1.06,5.06-1.06.77,0,1.48.06,2.14.18.66.12,1.26.28,1.82.46h9.25v4.97h-4.37c.34.46.61,1.03.83,1.7.21.67.32,1.41.32,2.21,0,1.93-.44,3.55-1.33,4.85-.89,1.3-2.09,2.28-3.59,2.92-1.5.64-3.19.97-5.06.97-.46,0-.98-.05-1.56-.16-.58-.11-1.17-.25-1.75-.44-.34.31-.61.62-.81.94-.2.32-.3.76-.3,1.31,0,.64.3,1.15.9,1.52.6.37,1.65.55,3.15.55h4.42c3.1,0,5.47.51,7.13,1.54,1.66,1.03,2.48,2.66,2.48,4.9,0,1.75-.58,3.3-1.73,4.67s-2.78,2.45-4.88,3.27c-2.1.81-4.58,1.22-7.43,1.22ZM330.69,203.39c1.32,0,2.46-.17,3.43-.51.97-.34,1.73-.78,2.28-1.33.55-.55.83-1.17.83-1.84,0-.92-.37-1.54-1.1-1.86-.74-.32-1.79-.48-3.17-.48h-3.17c-.77,0-1.43-.02-1.98-.07-.55-.05-1.07-.13-1.56-.25-.58.46-1,.94-1.27,1.45-.26.51-.39,1.04-.39,1.59,0,1.04.55,1.85,1.66,2.44,1.1.58,2.59.87,4.46.87ZM330.05,184.21c.77,0,1.46-.18,2.07-.55.61-.37,1.1-.91,1.47-1.63.37-.72.55-1.59.55-2.6s-.18-1.86-.55-2.55c-.37-.69-.86-1.21-1.47-1.56-.61-.35-1.3-.53-2.07-.53s-1.41.18-2.02.53c-.61.35-1.1.87-1.45,1.56-.35.69-.53,1.54-.53,2.55s.18,1.88.53,2.6c.35.72.84,1.27,1.45,1.63.61.37,1.29.55,2.02.55Z"/>
    <path class="cls-2" d="M348.08,196.53v-25.76h5.52l.51,4.55h.14c.95-1.69,2.07-2.97,3.36-3.86,1.29-.89,2.61-1.33,3.96-1.33.74,0,1.33.05,1.77.16.44.11.85.24,1.22.39l-1.1,5.84c-.49-.12-.93-.22-1.31-.3-.38-.08-.87-.11-1.45-.11-.98,0-2.02.38-3.1,1.15-1.09.77-2,2.07-2.74,3.91v15.36h-6.76Z"/>
    <path class="cls-2" d="M372.83,197.18c-1.5,0-2.83-.33-3.98-.99-1.15-.66-2.04-1.57-2.67-2.74-.63-1.17-.94-2.48-.94-3.96,0-2.73,1.18-4.85,3.54-6.37,2.36-1.52,6.12-2.55,11.27-3.11-.03-.86-.18-1.62-.46-2.28-.28-.66-.73-1.19-1.36-1.59-.63-.4-1.48-.6-2.55-.6-1.2,0-2.38.23-3.54.69-1.17.46-2.35,1.06-3.54,1.79l-2.39-4.51c1.01-.64,2.08-1.21,3.22-1.7,1.13-.49,2.33-.9,3.59-1.22,1.26-.32,2.56-.48,3.91-.48,2.18,0,4,.43,5.47,1.29,1.47.86,2.58,2.13,3.31,3.82s1.1,3.77,1.1,6.26v15.04h-5.52l-.46-2.76h-.23c-1.1.98-2.3,1.79-3.59,2.44s-2.68.97-4.19.97ZM375.08,191.89c.95,0,1.82-.22,2.6-.67.78-.44,1.57-1.07,2.37-1.86v-5.15c-2.09.25-3.74.6-4.97,1.06-1.23.46-2.1,1-2.62,1.63-.52.63-.78,1.33-.78,2.09,0,1.01.31,1.75.94,2.21.63.46,1.45.69,2.46.69Z"/>
    <path class="cls-2" d="M393.71,196.53v-25.76h5.52l.51,3.45h.14c1.07-1.1,2.24-2.06,3.5-2.88,1.26-.81,2.73-1.22,4.42-1.22,1.84,0,3.32.39,4.44,1.17,1.12.78,1.99,1.89,2.6,3.33,1.23-1.26,2.49-2.32,3.79-3.2,1.3-.87,2.78-1.31,4.44-1.31,2.76,0,4.78.91,6.05,2.74s1.91,4.36,1.91,7.61v16.05h-6.72v-15.23c0-1.99-.29-3.39-.87-4.19-.58-.8-1.49-1.2-2.71-1.2-.74,0-1.51.24-2.32.71-.81.48-1.69,1.2-2.65,2.19v17.71h-6.76v-15.23c0-1.99-.29-3.39-.87-4.19-.58-.8-1.49-1.2-2.71-1.2-.71,0-1.48.24-2.32.71-.84.48-1.71,1.2-2.6,2.19v17.71h-6.76Z"/>
    <path class="cls-2" d="M456.31,159.64c-.15.83-.4,1.9-.74,3.22-.34,1.32-.83,2.81-1.47,4.46-.49,1.13-1.05,2.31-1.68,3.52-.63,1.21-1.27,2.29-1.91,3.24.4-.18.9-.34,1.52-.48.61-.14,1.25-.25,1.91-.32.66-.08,1.25-.12,1.77-.12,1.93,0,3.53.55,4.81,1.66,1.27,1.1,1.91,2.74,1.91,4.92,0,.61,0,1.36.02,2.25.02.89.04,1.82.07,2.78.03.97.06,1.91.09,2.83.03.92.05,1.75.05,2.48h-5.52c.06-.52.1-1.14.11-1.86.02-.72.03-1.48.05-2.28.01-.8.03-1.57.05-2.32.02-.75.02-1.43.02-2.05,0-1.47-.39-2.49-1.17-3.06-.78-.57-1.65-.85-2.6-.85-1.29,0-2.58.31-3.89.94-1.3.63-2.4,1.37-3.29,2.23-.67.67-1.36,1.43-2.05,2.25-.69.83-1.43,1.76-2.23,2.81l-4.92-3.68c1.99-1.84,3.72-3.62,5.17-5.34,1.46-1.72,2.69-3.42,3.7-5.11,1.01-1.69,1.84-3.37,2.48-5.06.46-1.23.84-2.51,1.13-3.84.29-1.33.47-2.58.53-3.75l6.07.51ZM439.02,163.87c1.17.18,2.51.32,4.05.41,1.53.09,2.88.14,4.05.14,2.02,0,4.24-.05,6.65-.14,2.41-.09,4.85-.25,7.34-.48,2.48-.23,4.84-.53,7.08-.9l-.05,5.34c-1.63.21-3.38.41-5.27.58-1.89.17-3.8.31-5.75.41-1.95.11-3.81.18-5.59.23-1.78.05-3.36.07-4.74.07-.61,0-1.37,0-2.28-.02-.91-.01-1.83-.05-2.78-.09-.95-.05-1.86-.1-2.71-.16v-5.38ZM475.45,176.94c-.49.15-1.07.35-1.73.58-.66.23-1.32.46-1.98.69-.66.23-1.25.45-1.77.67-1.47.58-3.21,1.29-5.22,2.12-2.01.83-4.1,1.79-6.28,2.9-1.38.74-2.55,1.46-3.5,2.16-.95.71-1.67,1.42-2.16,2.14-.49.72-.74,1.51-.74,2.37,0,.64.14,1.17.41,1.59s.69.74,1.24.99c.55.25,1.24.41,2.07.51s1.81.14,2.94.14c1.96,0,4.12-.12,6.49-.35,2.36-.23,4.55-.54,6.58-.94l-.18,5.93c-.98.12-2.22.25-3.73.39-1.5.14-3.06.24-4.67.3-1.61.06-3.15.09-4.62.09-2.39,0-4.54-.23-6.44-.69-1.9-.46-3.4-1.25-4.48-2.37-1.09-1.12-1.63-2.66-1.63-4.62,0-1.59.36-3.04,1.08-4.32.72-1.29,1.68-2.45,2.88-3.5,1.2-1.04,2.51-1.99,3.93-2.83,1.43-.84,2.83-1.62,4.21-2.32,1.41-.74,2.68-1.36,3.82-1.89,1.13-.52,2.2-.99,3.2-1.4,1-.41,1.96-.83,2.88-1.26.89-.4,1.75-.79,2.58-1.17s1.67-.79,2.53-1.22l2.3,5.34Z"/>
    <path class="cls-2" d="M133.99,221.1c-.21.43-.41.94-.58,1.54-.17.6-.31,1.16-.44,1.68-.25,1.1-.57,2.36-.97,3.77-.4,1.41-.87,2.87-1.43,4.37-.55,1.5-1.2,2.99-1.96,4.46-.75,1.47-1.6,2.85-2.55,4.14-1.38,1.81-2.99,3.52-4.83,5.13-1.84,1.61-3.89,3.05-6.16,4.32s-4.77,2.35-7.5,3.24l-5.01-5.47c3.04-.74,5.67-1.65,7.89-2.74,2.22-1.09,4.16-2.32,5.82-3.68,1.66-1.36,3.1-2.83,4.32-4.39,1.01-1.29,1.88-2.68,2.6-4.19.72-1.5,1.32-3.02,1.79-4.55.48-1.53.81-2.94.99-4.23h-21.44c-1.04,0-2.06.02-3.06.05-1,.03-1.8.08-2.42.14v-6.49c.49.03,1.06.08,1.7.14s1.32.12,2.02.16c.71.05,1.3.07,1.79.07h21.25c.46,0,1.03-.02,1.7-.07.67-.05,1.3-.15,1.89-.3l4.55,2.9Z"/>
    <path class="cls-2" d="M139.65,247.32c1.84-.86,3.65-1.85,5.43-2.99,1.78-1.13,3.44-2.35,4.99-3.63,1.55-1.29,2.91-2.58,4.09-3.86,1.18-1.29,2.08-2.48,2.69-3.59l2.99.05.09,4.46c-.61,1.07-1.5,2.25-2.65,3.52-1.15,1.27-2.48,2.57-4,3.89-1.52,1.32-3.1,2.56-4.76,3.73-1.66,1.17-3.28,2.18-4.88,3.04l-4-4.6ZM141.58,229.47c.55.06,1.23.12,2.05.18.81.06,1.53.09,2.14.09h23.28c.58,0,1.26-.04,2.02-.12.77-.08,1.35-.13,1.75-.16v5.57c-.55-.03-1.16-.05-1.82-.07-.66-.02-1.23-.02-1.73-.02h-23.37c-.64,0-1.36.02-2.14.05-.78.03-1.51.08-2.19.14v-5.66ZM163.76,223.12c-.06.55-.11,1.17-.14,1.86-.03.69-.05,1.34-.05,1.96.03,1.01.05,2.15.07,3.4.02,1.26.05,2.59.09,4,.05,1.41.09,2.86.14,4.35.05,1.49.08,2.97.09,4.44.02,1.47.04,2.91.07,4.3.03,1.4.05,2.71.05,3.93.03,1.2-.37,2.17-1.2,2.92-.83.75-1.92,1.13-3.27,1.13-.74,0-1.53,0-2.37-.02-.84-.02-1.68-.05-2.51-.09s-1.58-.08-2.25-.12l-.37-5.24c.95.12,1.92.22,2.9.3.98.08,1.78.12,2.39.12.43,0,.74-.12.92-.37.18-.25.28-.6.28-1.06,0-.86,0-1.86-.02-3.01-.02-1.15-.03-2.38-.05-3.68-.02-1.3-.03-2.64-.05-4-.02-1.36-.04-2.72-.07-4.07-.03-1.35-.06-2.64-.09-3.86-.03-1.23-.08-2.35-.14-3.36-.03-.55-.08-1.17-.14-1.86-.06-.69-.14-1.34-.23-1.95h5.93Z"/>
    <path class="cls-2" d="M180.87,219.12c.95.03,1.85.05,2.69.07.84.02,1.57.02,2.19.02h25.3c.58,0,1.28,0,2.09-.02.81-.01,1.63-.04,2.46-.07-.03.71-.05,1.45-.07,2.23-.02.78-.02,1.53-.02,2.23v22.54c0,.46,0,1.03.02,1.72.02.69.02,1.38.02,2.07s0,1.29.02,1.79c.02.51.02.77.02.8h-6.35c0-.06,0-.44.02-1.13.02-.69.03-1.51.05-2.46.02-.95.02-1.84.02-2.67v-21.21h-22.22v23.07c0,.69,0,1.36.02,2,.02.64.02,1.19.02,1.63v.76h-6.35c0-.06,0-.32.02-.78.02-.46.03-1.03.05-1.7.02-.67.03-1.36.05-2.07.01-.71.02-1.33.02-1.89v-24.72c0-.84-.03-1.59-.09-2.23ZM211.64,244.14v5.89h-27.65v-5.89h27.65Z"/>
    <path class="cls-2" d="M225.17,230.43c.55.03,1.26.07,2.12.12.86.05,1.75.08,2.69.12.94.03,1.8.05,2.6.05h24.7c1.07,0,2.09-.04,3.04-.12.95-.08,1.73-.13,2.35-.16v7.22c-.52-.03-1.3-.08-2.35-.14-1.04-.06-2.05-.09-3.04-.09h-24.7c-1.32,0-2.67.02-4.05.07-1.38.05-2.5.1-3.36.16v-7.22Z"/>
    <path class="cls-2" d="M280.41,215.26c-.12.95-.24,1.98-.34,3.08-.11,1.1-.19,2.12-.25,3.04-.03,1.26-.08,2.78-.16,4.58-.08,1.79-.14,3.67-.18,5.64s-.09,3.89-.14,5.8-.07,3.56-.07,4.97c0,1.53.28,2.75.85,3.66.57.9,1.33,1.55,2.28,1.93.95.38,2.02.58,3.22.58,1.9,0,3.63-.25,5.2-.76s2.99-1.19,4.28-2.05c1.29-.86,2.44-1.86,3.47-2.99,1.03-1.13,1.96-2.33,2.78-3.59l4.19,5.06c-.74,1.1-1.7,2.27-2.9,3.5-1.2,1.23-2.62,2.38-4.26,3.45-1.64,1.07-3.53,1.95-5.68,2.62-2.15.67-4.52,1.01-7.13,1.01s-4.7-.39-6.55-1.17c-1.86-.78-3.3-1.99-4.32-3.63-1.03-1.64-1.54-3.76-1.54-6.37,0-1.26.02-2.69.05-4.3.03-1.61.08-3.29.14-5.04.06-1.75.11-3.46.14-5.13.03-1.67.06-3.18.09-4.53.03-1.35.05-2.42.05-3.22,0-1.1-.05-2.19-.14-3.24-.09-1.06-.25-2.05-.46-2.97l7.41.09Z"/>
    <path class="cls-2" d="M306.36,220.09c.92-.03,1.79-.07,2.62-.12.83-.05,1.47-.08,1.93-.12.95-.09,2.12-.2,3.5-.32,1.38-.12,2.94-.26,4.67-.41,1.73-.15,3.58-.31,5.54-.48,1.96-.17,4-.34,6.12-.53,1.59-.12,3.19-.24,4.78-.34,1.59-.11,3.1-.2,4.53-.28,1.43-.08,2.66-.13,3.7-.16l.05,5.89c-.83,0-1.78.02-2.85.05-1.07.03-2.14.08-3.2.16s-2,.21-2.83.39c-1.38.37-2.66.99-3.84,1.86-1.18.87-2.22,1.91-3.1,3.1-.89,1.2-1.57,2.48-2.05,3.84-.48,1.36-.71,2.74-.71,4.12,0,1.5.26,2.83.78,3.98.52,1.15,1.25,2.13,2.18,2.94.94.81,2.03,1.49,3.29,2.02,1.26.54,2.61.94,4.07,1.22,1.46.28,2.97.46,4.53.55l-2.16,6.3c-1.93-.12-3.81-.43-5.63-.92-1.82-.49-3.53-1.17-5.11-2.02-1.58-.86-2.97-1.91-4.16-3.15-1.2-1.24-2.13-2.67-2.81-4.28-.67-1.61-1.01-3.41-1.01-5.41,0-2.24.35-4.28,1.06-6.12.71-1.84,1.58-3.46,2.62-4.85s2.09-2.48,3.13-3.24c-.86.09-1.89.21-3.1.34-1.21.14-2.52.29-3.91.46-1.4.17-2.81.35-4.25.53-1.44.18-2.83.39-4.16.62-1.33.23-2.54.45-3.61.67l-.6-6.3Z"/>
    <path class="cls-2" d="M347.43,229.7c.64.06,1.33.12,2.07.18.74.06,1.46.09,2.16.09h30.59c.34,0,.77-.01,1.29-.05.52-.03,1.05-.07,1.59-.12.54-.05.97-.08,1.31-.12v5.93c-.61-.06-1.28-.11-2-.14-.72-.03-1.4-.05-2.05-.05h-30.64c-.71,0-1.46.02-2.25.05-.8.03-1.49.08-2.07.14v-5.93ZM350.88,218.71c1.17,0,2.65,0,4.46-.02,1.81-.01,3.71-.08,5.7-.18,1.99-.11,3.83-.28,5.52-.53,1.17-.15,2.31-.34,3.43-.55,1.12-.21,2.19-.44,3.22-.67,1.03-.23,1.96-.48,2.81-.76.84-.28,1.56-.54,2.14-.78l3.77,5.06c-.8.18-1.49.35-2.07.51-.58.15-1.07.28-1.47.37-.95.25-1.98.48-3.08.71-1.1.23-2.24.44-3.4.62-1.17.18-2.35.37-3.54.55-1.75.25-3.6.43-5.57.55-1.96.12-3.86.22-5.7.3-1.84.08-3.44.13-4.78.16l-1.43-5.34ZM352.86,250.4c2.7-1.23,4.91-2.72,6.65-4.48,1.73-1.76,3.02-3.8,3.86-6.12.84-2.32,1.27-4.91,1.27-7.8v-9.48l6.03-.69v10.07c0,3.07-.38,5.98-1.13,8.74-.75,2.76-2,5.3-3.75,7.61s-4.11,4.36-7.08,6.14l-5.84-4Z"/>
    <path class="cls-2" d="M392.38,246.95c.58.06,1.21.12,1.89.18.67.06,1.3.09,1.89.09h25.44c.64,0,1.27-.04,1.86-.12.6-.08,1.14-.13,1.63-.16v6.03c-.49-.09-1.1-.15-1.82-.18-.72-.03-1.28-.05-1.68-.05h-25.44c-.55,0-1.17.01-1.84.05-.67.03-1.32.09-1.93.18v-6.03ZM394.72,226.8c.52.09,1.13.15,1.84.18.71.03,1.3.05,1.79.05h21.07c.55,0,1.15-.01,1.79-.05.64-.03,1.24-.09,1.79-.18v5.8c-.58-.06-1.2-.11-1.84-.14-.64-.03-1.23-.05-1.75-.05h-21.07c-.49,0-1.09.02-1.79.05-.71.03-1.32.08-1.84.14v-5.8ZM405.53,250.35v-20.38h6.03v20.38h-6.03Z"/>
    <path class="cls-2" d="M437.46,226.85c.31.58.65,1.33,1.03,2.25.38.92.77,1.89,1.17,2.9.4,1.01.79,1.99,1.17,2.94.38.95.68,1.75.9,2.39l-5.61,2.12c-.18-.61-.45-1.41-.81-2.39-.35-.98-.74-2.02-1.17-3.1-.43-1.09-.84-2.09-1.22-3.01-.38-.92-.71-1.62-.99-2.12l5.52-1.98ZM465.1,227.77c-.25.74-.45,1.37-.62,1.89-.17.52-.33,1.01-.48,1.47-.58,2.33-1.38,4.65-2.39,6.97s-2.3,4.49-3.86,6.51c-2.15,2.76-4.58,5.1-7.29,7.01-2.71,1.92-5.42,3.38-8.12,4.39l-4.83-4.92c1.69-.46,3.47-1.14,5.34-2.05,1.87-.9,3.68-2,5.43-3.29s3.25-2.71,4.51-4.28c1.04-1.32,1.97-2.83,2.78-4.53.81-1.7,1.49-3.53,2.02-5.47.54-1.95.9-3.87,1.08-5.77l6.44,2.07ZM448.13,224.41c.21.49.5,1.19.85,2.09.35.9.73,1.87,1.13,2.9.4,1.03.75,2,1.06,2.92.31.92.55,1.64.74,2.16l-5.52,1.93c-.12-.58-.34-1.32-.64-2.21-.31-.89-.64-1.83-1.01-2.83-.37-1-.74-1.96-1.1-2.88-.37-.92-.69-1.69-.97-2.3l5.47-1.79Z"/>
    <path class="cls-2" d="M492.84,215.85c-.55.8-1.09,1.66-1.61,2.58-.52.92-.92,1.63-1.2,2.12-1.04,1.84-2.32,3.75-3.84,5.73-1.52,1.98-3.24,3.9-5.17,5.75-1.93,1.86-3.99,3.55-6.16,5.08l-5.2-3.82c2.02-1.26,3.81-2.55,5.36-3.86,1.55-1.32,2.89-2.63,4.02-3.93,1.13-1.3,2.11-2.56,2.92-3.77.81-1.21,1.51-2.29,2.09-3.24.37-.58.75-1.34,1.15-2.28.4-.93.71-1.79.92-2.55l6.72,2.21ZM507.84,223.12c-.25.43-.51.94-.78,1.54-.28.6-.52,1.19-.74,1.77-.4,1.35-.96,2.89-1.68,4.62-.72,1.73-1.61,3.53-2.67,5.38-1.06,1.86-2.28,3.64-3.66,5.36-2.21,2.64-4.78,5.03-7.71,7.18-2.93,2.15-6.56,4.08-10.88,5.8l-5.43-4.88c3.13-.92,5.83-1.98,8.1-3.17,2.27-1.2,4.25-2.48,5.93-3.84,1.69-1.36,3.19-2.81,4.51-4.35,1.07-1.2,2.05-2.55,2.94-4.07.89-1.52,1.66-3.03,2.3-4.53.64-1.5,1.07-2.82,1.29-3.96h-15.5l2.12-5.2h13.16c.71,0,1.42-.05,2.14-.14.72-.09,1.34-.23,1.86-.41l4.69,2.9Z"/>
    <path class="cls-2" d="M523.29,215.26c-.12.95-.24,1.98-.34,3.08-.11,1.1-.19,2.12-.25,3.04-.03,1.26-.08,2.78-.16,4.58-.08,1.79-.14,3.67-.18,5.64s-.09,3.89-.14,5.8-.07,3.56-.07,4.97c0,1.53.28,2.75.85,3.66.57.9,1.33,1.55,2.28,1.93.95.38,2.02.58,3.22.58,1.9,0,3.63-.25,5.2-.76s2.99-1.19,4.28-2.05c1.29-.86,2.44-1.86,3.47-2.99,1.03-1.13,1.96-2.33,2.78-3.59l4.19,5.06c-.74,1.1-1.7,2.27-2.9,3.5-1.2,1.23-2.62,2.38-4.26,3.45-1.64,1.07-3.53,1.95-5.68,2.62-2.15.67-4.52,1.01-7.13,1.01s-4.7-.39-6.55-1.17c-1.86-.78-3.3-1.99-4.32-3.63-1.03-1.64-1.54-3.76-1.54-6.37,0-1.26.02-2.69.05-4.3.03-1.61.08-3.29.14-5.04.06-1.75.11-3.46.14-5.13.03-1.67.06-3.18.09-4.53.03-1.35.05-2.42.05-3.22,0-1.1-.05-2.19-.14-3.24-.09-1.06-.25-2.05-.46-2.97l7.41.09Z"/>
    <path class="cls-2" d="M549.24,220.09c.92-.03,1.79-.07,2.62-.12.83-.05,1.47-.08,1.93-.12.95-.09,2.12-.2,3.5-.32,1.38-.12,2.94-.26,4.67-.41,1.73-.15,3.58-.31,5.54-.48,1.96-.17,4-.34,6.12-.53,1.59-.12,3.19-.24,4.78-.34,1.59-.11,3.1-.2,4.53-.28,1.43-.08,2.66-.13,3.7-.16l.05,5.89c-.83,0-1.78.02-2.85.05-1.07.03-2.14.08-3.2.16s-2,.21-2.83.39c-1.38.37-2.66.99-3.84,1.86-1.18.87-2.22,1.91-3.1,3.1-.89,1.2-1.57,2.48-2.05,3.84-.48,1.36-.71,2.74-.71,4.12,0,1.5.26,2.83.78,3.98.52,1.15,1.25,2.13,2.18,2.94.94.81,2.03,1.49,3.29,2.02,1.26.54,2.61.94,4.07,1.22,1.46.28,2.97.46,4.53.55l-2.16,6.3c-1.93-.12-3.81-.43-5.63-.92-1.82-.49-3.53-1.17-5.11-2.02-1.58-.86-2.97-1.91-4.16-3.15-1.2-1.24-2.13-2.67-2.81-4.28-.67-1.61-1.01-3.41-1.01-5.41,0-2.24.35-4.28,1.06-6.12.71-1.84,1.58-3.46,2.62-4.85s2.09-2.48,3.13-3.24c-.86.09-1.89.21-3.1.34-1.21.14-2.52.29-3.91.46-1.4.17-2.81.35-4.25.53-1.44.18-2.83.39-4.16.62-1.33.23-2.54.45-3.61.67l-.6-6.3Z"/>
    <path class="cls-2" d="M181.63,269.58c-.03.25-.08.62-.14,1.13-.06.51-.11,1.01-.16,1.52-.05.51-.08.96-.11,1.36-.06.89-.12,1.86-.16,2.92s-.08,2.15-.11,3.27c-.03,1.12-.05,2.25-.07,3.38-.02,1.14-.02,2.24-.02,3.31,0,1.26.02,2.64.05,4.16.03,1.52.07,3.02.12,4.51.05,1.49.08,2.84.09,4.07.02,1.23.02,2.18.02,2.85,0,1.9-.21,3.37-.62,4.42-.41,1.04-1,1.77-1.77,2.19-.77.41-1.66.62-2.67.62-1.1,0-2.29-.22-3.54-.67-1.26-.45-2.43-1.07-3.52-1.86-1.09-.8-1.98-1.73-2.67-2.78-.69-1.06-1.04-2.2-1.04-3.43,0-1.47.56-2.94,1.68-4.39,1.12-1.46,2.61-2.8,4.46-4.02,1.85-1.23,3.86-2.21,6-2.94,2.05-.77,4.17-1.33,6.35-1.68,2.18-.35,4.14-.53,5.89-.53,2.36,0,4.49.39,6.39,1.17,1.9.78,3.42,1.92,4.55,3.43,1.13,1.5,1.7,3.31,1.7,5.43,0,1.78-.34,3.42-1.01,4.92-.67,1.5-1.76,2.8-3.24,3.89-1.49,1.09-3.46,1.94-5.91,2.55-1.04.21-2.08.38-3.1.48-1.03.11-2,.19-2.92.25l-2.12-5.93c1.04,0,2.05-.02,3.01-.07s1.85-.13,2.65-.25c1.26-.25,2.39-.61,3.4-1.1,1.01-.49,1.81-1.13,2.39-1.93.58-.8.87-1.75.87-2.85,0-1.04-.28-1.93-.85-2.67-.57-.74-1.36-1.3-2.37-1.7-1.01-.4-2.19-.6-3.54-.6-1.93,0-3.89.2-5.87.6s-3.87.95-5.68,1.66c-1.35.52-2.56,1.13-3.63,1.82-1.07.69-1.92,1.4-2.53,2.14-.61.74-.92,1.44-.92,2.12,0,.37.12.71.35,1.04s.53.61.9.85.74.44,1.13.57c.38.14.71.21.99.21.43,0,.78-.13,1.06-.39.28-.26.41-.77.41-1.54,0-.83-.02-2.02-.07-3.57-.05-1.55-.09-3.27-.14-5.17-.05-1.9-.07-3.79-.07-5.66,0-1.29,0-2.59.02-3.91.02-1.32.02-2.58.02-3.77s0-2.25.02-3.17c.02-.92.02-1.64.02-2.16,0-.34-.02-.77-.05-1.29-.03-.52-.07-1.05-.11-1.59-.05-.54-.1-.93-.16-1.17h6.35ZM166.54,277.08c1.35.15,2.54.25,3.57.3,1.03.05,1.95.07,2.78.07,1.2,0,2.51-.05,3.96-.16,1.44-.11,2.91-.26,4.42-.46,1.5-.2,2.97-.44,4.39-.71,1.43-.28,2.72-.58,3.89-.92l.14,5.7c-1.29.31-2.68.58-4.19.81-1.5.23-3.01.44-4.53.62-1.52.18-2.96.32-4.32.41-1.36.09-2.55.14-3.56.14-1.53,0-2.79-.02-3.77-.05-.98-.03-1.87-.09-2.67-.18l-.09-5.57ZM194.74,274.55c1.17.55,2.48,1.23,3.93,2.02,1.46.8,2.85,1.59,4.19,2.37,1.33.78,2.4,1.48,3.2,2.09l-2.76,4.69c-.58-.49-1.34-1.04-2.28-1.66-.94-.61-1.95-1.24-3.04-1.89-1.09-.64-2.14-1.25-3.15-1.82-1.01-.57-1.89-1.02-2.62-1.36l2.53-4.46Z"/>
    <path class="cls-2" d="M218.33,274.04c-.12.55-.22,1.18-.3,1.89-.08.71-.14,1.4-.18,2.07s-.07,1.23-.07,1.66c-.03,1.01-.04,2.05-.02,3.13.02,1.07.05,2.17.09,3.29s.11,2.23.21,3.33c.21,2.21.52,4.16.92,5.84.4,1.69.92,3,1.56,3.93.64.94,1.46,1.4,2.44,1.4.52,0,1.04-.29,1.54-.87.51-.58.97-1.34,1.38-2.28.41-.93.78-1.92,1.1-2.97.32-1.04.61-2.02.85-2.94l4.6,5.61c-1.01,2.67-2.02,4.79-3.01,6.37-1,1.58-2.03,2.71-3.1,3.4-1.07.69-2.24,1.04-3.5,1.04-1.66,0-3.23-.55-4.71-1.66-1.49-1.1-2.75-2.89-3.79-5.36-1.04-2.47-1.78-5.76-2.21-9.87-.15-1.41-.27-2.9-.35-4.46-.08-1.56-.12-3.05-.14-4.46-.02-1.41-.02-2.58-.02-3.5,0-.64-.03-1.41-.09-2.3-.06-.89-.15-1.69-.28-2.39l7.08.09ZM241.33,275.1c.86,1.04,1.69,2.32,2.48,3.82.8,1.5,1.53,3.11,2.21,4.83.67,1.72,1.27,3.47,1.79,5.27s.94,3.54,1.27,5.24c.32,1.7.53,3.26.62,4.67l-6.07,2.35c-.15-1.87-.43-3.91-.83-6.12-.4-2.21-.94-4.43-1.61-6.67-.67-2.24-1.48-4.35-2.41-6.35-.94-1.99-2.03-3.71-3.29-5.15l5.84-1.89Z"/>
    <path class="cls-2" d="M251.82,275.29c.92-.03,1.79-.07,2.62-.12.83-.05,1.47-.08,1.93-.12.95-.09,2.12-.2,3.5-.32,1.38-.12,2.94-.26,4.67-.41,1.73-.15,3.58-.31,5.54-.48,1.96-.17,4-.34,6.12-.53,1.59-.12,3.19-.24,4.78-.34,1.59-.11,3.1-.2,4.53-.28,1.43-.08,2.66-.13,3.7-.16l.05,5.89c-.83,0-1.78.02-2.85.05-1.07.03-2.14.08-3.2.16s-2,.21-2.83.39c-1.38.37-2.66.99-3.84,1.86-1.18.87-2.22,1.91-3.1,3.1-.89,1.2-1.57,2.48-2.05,3.84-.48,1.36-.71,2.74-.71,4.12,0,1.5.26,2.83.78,3.98.52,1.15,1.25,2.13,2.18,2.94.94.81,2.03,1.49,3.29,2.02,1.26.54,2.61.94,4.07,1.22,1.46.28,2.97.46,4.53.55l-2.16,6.3c-1.93-.12-3.81-.43-5.63-.92-1.82-.49-3.53-1.17-5.11-2.02-1.58-.86-2.97-1.91-4.16-3.15-1.2-1.24-2.13-2.67-2.81-4.28-.67-1.61-1.01-3.41-1.01-5.41,0-2.24.35-4.28,1.06-6.12.71-1.84,1.58-3.46,2.62-4.85s2.09-2.48,3.13-3.24c-.86.09-1.89.21-3.1.34-1.21.14-2.52.29-3.91.46-1.4.17-2.81.35-4.25.53-1.44.18-2.83.39-4.16.62-1.33.23-2.54.45-3.61.67l-.6-6.3Z"/>
    <path class="cls-2" d="M318.85,273.77c-.74.52-1.46,1.07-2.16,1.63-.71.57-1.32,1.08-1.84,1.54-.77.58-1.68,1.3-2.74,2.14s-2.16,1.72-3.31,2.62-2.26,1.79-3.33,2.64c-1.07.86-1.99,1.63-2.76,2.3-.8.71-1.33,1.28-1.61,1.73-.28.44-.27.88.02,1.31.29.43.85,1.01,1.68,1.75.67.58,1.54,1.3,2.6,2.16,1.06.86,2.21,1.8,3.45,2.83,1.24,1.03,2.51,2.09,3.82,3.17,1.3,1.09,2.56,2.16,3.77,3.22,1.21,1.06,2.29,2.05,3.24,2.97l-5.38,4.92c-1.29-1.44-2.62-2.87-4-4.28-.71-.71-1.62-1.57-2.74-2.6-1.12-1.03-2.33-2.11-3.63-3.24-1.3-1.13-2.6-2.26-3.89-3.38-1.29-1.12-2.45-2.12-3.5-3.01-1.53-1.29-2.52-2.47-2.97-3.54-.44-1.07-.38-2.14.18-3.2.57-1.06,1.62-2.22,3.15-3.47.92-.71,1.96-1.54,3.13-2.51,1.17-.97,2.36-1.96,3.59-2.99,1.23-1.03,2.39-2.02,3.5-2.99,1.1-.97,2.04-1.82,2.81-2.55.67-.67,1.35-1.36,2.02-2.07.67-.71,1.18-1.32,1.52-1.84l5.38,4.74Z"/>
    <path class="cls-2" d="M344.42,270.73c-.18.64-.38,1.4-.57,2.28-.2.87-.35,1.57-.44,2.09-.21,1.04-.48,2.32-.81,3.82-.32,1.5-.67,3.09-1.04,4.76-.37,1.67-.75,3.29-1.15,4.85-.43,1.59-.93,3.34-1.5,5.24s-1.18,3.82-1.84,5.75c-.66,1.93-1.33,3.79-2,5.57-.67,1.78-1.33,3.36-1.98,4.74l-6.44-2.16c.71-1.17,1.43-2.59,2.19-4.28.75-1.69,1.5-3.49,2.23-5.4.74-1.92,1.41-3.83,2.02-5.75.61-1.92,1.13-3.67,1.56-5.27.28-1.1.55-2.22.83-3.36s.53-2.24.76-3.31c.23-1.07.43-2.08.6-3.01.17-.94.3-1.74.39-2.42.09-.86.15-1.72.18-2.58.03-.86.02-1.56-.05-2.12l7.04.55ZM332.69,277.63c1.87,0,3.82-.09,5.84-.28,2.02-.18,4.06-.45,6.12-.8,2.05-.35,4.09-.76,6.12-1.22v5.75c-1.9.46-3.93.84-6.07,1.15-2.15.31-4.26.54-6.35.71-2.09.17-4,.25-5.75.25-1.1,0-2.1-.02-2.99-.07-.89-.05-1.75-.08-2.58-.12l-.14-5.75c1.2.12,2.22.21,3.08.28.86.06,1.76.09,2.71.09ZM349.62,296.22c-.18.64-.34,1.32-.46,2.02-.12.71-.18,1.3-.18,1.79,0,.52.11,1,.32,1.43.21.43.55.8,1.01,1.13s1.1.57,1.91.74c.81.17,1.83.25,3.06.25,1.53,0,3.1-.08,4.69-.23,1.59-.15,3.22-.38,4.88-.69l-.23,5.84c-1.29.18-2.71.34-4.28.48-1.56.14-3.27.21-5.11.21-3.86,0-6.82-.64-8.85-1.93-2.04-1.29-3.06-3.08-3.06-5.38,0-1.07.08-2.15.25-3.22.17-1.07.34-2.05.53-2.94l5.52.51ZM347.13,284.67c1.29-.15,2.71-.27,4.28-.34s3.08-.12,4.55-.12c1.32,0,2.66.03,4.02.09,1.36.06,2.72.17,4.07.32l-.14,5.52c-1.14-.15-2.39-.29-3.75-.41-1.37-.12-2.75-.18-4.16-.18-1.6,0-3.11.04-4.55.12-1.44.08-2.88.21-4.32.39v-5.38ZM359.14,272.06c.4.55.82,1.21,1.27,1.98.44.77.88,1.53,1.31,2.3.43.77.78,1.44,1.06,2.02l-3.68,1.61c-.31-.64-.66-1.35-1.06-2.12-.4-.77-.81-1.53-1.24-2.3-.43-.77-.86-1.43-1.29-1.98l3.63-1.52ZM364.57,270c.43.55.87,1.22,1.33,2,.46.78.91,1.55,1.36,2.3.44.75.79,1.4,1.03,1.96l-3.63,1.56c-.49-.98-1.07-2.07-1.75-3.27-.67-1.2-1.33-2.22-1.98-3.08l3.63-1.47Z"/>
    <path class="cls-2" d="M371.93,276.43c2.85.34,5.54.57,8.05.69,2.51.12,4.86.15,7.04.09,2.18-.06,4.17-.2,5.98-.41,1.41-.18,2.78-.38,4.12-.6s2.65-.48,3.96-.78c1.3-.31,2.54-.64,3.7-1.01l.74,5.8c-1.01.28-2.11.54-3.29.78-1.18.25-2.4.47-3.66.67-1.26.2-2.5.38-3.73.53-3.1.34-6.5.54-10.21.6-3.71.06-7.91-.09-12.6-.46l-.09-5.89ZM381.13,292.12c-.71,1.07-1.26,2.12-1.66,3.15-.4,1.03-.6,2.05-.6,3.06,0,1.93.84,3.33,2.53,4.21,1.69.87,4.09,1.31,7.22,1.31,2.51,0,4.79-.11,6.83-.32,2.04-.21,3.87-.48,5.5-.78l-.32,5.8c-1.29.25-2.97.49-5.04.74-2.07.25-4.52.37-7.34.37-3.1-.03-5.8-.44-8.1-1.22s-4.08-1.95-5.34-3.5c-1.26-1.55-1.89-3.41-1.89-5.59,0-1.41.21-2.8.62-4.16.41-1.36,1.02-2.83,1.82-4.39l5.75,1.33ZM388.67,274.27c-.18-.52-.4-1.17-.64-1.93-.25-.77-.52-1.53-.83-2.3l6.21-.74c.25,1.2.52,2.38.83,3.57.31,1.18.64,2.33,1.01,3.45.37,1.12.74,2.17,1.1,3.15.71,1.9,1.54,3.76,2.51,5.59.97,1.83,1.82,3.26,2.55,4.3.4.58.81,1.13,1.22,1.63.41.51.83.99,1.26,1.45l-2.85,4.14c-.64-.12-1.46-.25-2.44-.39-.98-.14-2.05-.27-3.2-.39-1.15-.12-2.3-.25-3.45-.37-1.15-.12-2.2-.21-3.15-.28l.46-4.88c.77.06,1.58.13,2.44.21.86.08,1.66.15,2.42.21.75.06,1.37.11,1.86.14-.55-.89-1.14-1.9-1.75-3.04-.61-1.13-1.21-2.32-1.79-3.57-.58-1.24-1.12-2.49-1.61-3.75-.49-1.29-.91-2.45-1.26-3.5-.35-1.04-.65-1.95-.9-2.71Z"/>
    <path class="cls-2" d="M419.77,274.04c-.12.55-.22,1.18-.3,1.89-.08.71-.14,1.4-.18,2.07s-.07,1.23-.07,1.66c-.03,1.01-.04,2.05-.02,3.13.02,1.07.05,2.17.09,3.29s.11,2.23.21,3.33c.21,2.21.52,4.16.92,5.84.4,1.69.92,3,1.56,3.93.64.94,1.46,1.4,2.44,1.4.52,0,1.04-.29,1.54-.87.51-.58.97-1.34,1.38-2.28.41-.93.78-1.92,1.1-2.97.32-1.04.61-2.02.85-2.94l4.6,5.61c-1.01,2.67-2.02,4.79-3.01,6.37-1,1.58-2.03,2.71-3.1,3.4-1.07.69-2.24,1.04-3.5,1.04-1.66,0-3.23-.55-4.71-1.66-1.49-1.1-2.75-2.89-3.79-5.36-1.04-2.47-1.78-5.76-2.21-9.87-.15-1.41-.27-2.9-.35-4.46-.08-1.56-.12-3.05-.14-4.46-.02-1.41-.02-2.58-.02-3.5,0-.64-.03-1.41-.09-2.3-.06-.89-.15-1.69-.28-2.39l7.08.09ZM442.77,275.1c.86,1.04,1.69,2.32,2.48,3.82.8,1.5,1.53,3.11,2.21,4.83.67,1.72,1.27,3.47,1.79,5.27s.94,3.54,1.27,5.24c.32,1.7.53,3.26.62,4.67l-6.07,2.35c-.15-1.87-.43-3.91-.83-6.12-.4-2.21-.94-4.43-1.61-6.67-.67-2.24-1.48-4.35-2.41-6.35-.94-1.99-2.03-3.71-3.29-5.15l5.84-1.89Z"/>
    <path class="cls-2" d="M466.51,282.64c-.49.06-1.12.14-1.89.23-.77.09-1.59.19-2.46.3s-1.76.22-2.65.34c-.89.12-1.72.23-2.48.32l-.6-5.89c.67.03,1.31.04,1.91.02.6-.01,1.3-.04,2.09-.07.74-.06,1.62-.15,2.65-.25,1.03-.11,2.07-.24,3.13-.39,1.06-.15,2.05-.32,2.97-.51s1.64-.37,2.16-.55l1.84,2.35c-.25.37-.55.83-.92,1.38s-.74,1.11-1.1,1.68c-.37.57-.69,1.07-.97,1.5l-2.71,8.65c-.49.71-1.1,1.59-1.82,2.67-.72,1.07-1.49,2.2-2.3,3.38-.81,1.18-1.6,2.33-2.37,3.45-.77,1.12-1.46,2.09-2.07,2.92l-3.59-5.01c.58-.74,1.26-1.59,2.02-2.55.77-.97,1.56-1.99,2.37-3.08.81-1.09,1.62-2.18,2.42-3.27.8-1.09,1.54-2.12,2.23-3.08.69-.97,1.27-1.8,1.73-2.51l.09-1.2.32-.83ZM465.95,273.77v-2.05c0-.69-.06-1.39-.18-2.09l6.72.23c-.18.71-.38,1.73-.57,3.06-.2,1.33-.4,2.86-.6,4.58-.2,1.72-.38,3.52-.55,5.4-.17,1.89-.31,3.77-.41,5.64s-.16,3.62-.16,5.24c0,1.26,0,2.53.02,3.82.02,1.29.04,2.61.07,3.96.03,1.35.09,2.75.18,4.19.03.4.08.96.14,1.68.06.72.12,1.34.18,1.86h-6.35c.06-.52.1-1.13.11-1.82.02-.69.02-1.22.02-1.59.03-1.5.06-2.9.09-4.19.03-1.29.05-2.65.07-4.09.02-1.44.05-3.11.12-5.01.03-.71.08-1.6.14-2.69.06-1.09.13-2.28.21-3.59.08-1.3.16-2.63.25-3.98.09-1.35.18-2.61.25-3.79.08-1.18.14-2.19.18-3.04s.07-1.42.07-1.73ZM495.85,306.15c-1.29-1.56-2.65-2.95-4.07-4.16-1.43-1.21-2.88-2.16-4.35-2.85-1.47-.69-2.98-1.04-4.51-1.04-.64,0-1.23.09-1.77.28-.54.18-.97.45-1.31.8-.34.35-.51.79-.51,1.31,0,.89.36,1.53,1.08,1.93.72.4,1.59.6,2.6.6,1.13,0,2.08-.35,2.85-1.06.77-.71,1.37-1.67,1.82-2.9.44-1.23.77-2.67.97-4.32.2-1.66.3-3.45.3-5.38,0-1.63-.24-3.06-.71-4.3-.48-1.24-1.14-2.21-2-2.9-.86-.69-1.89-1.04-3.08-1.04s-2.51.32-3.84.97c-1.33.64-2.65,1.48-3.96,2.51-1.3,1.03-2.55,2.16-3.75,3.38-1.2,1.23-2.27,2.44-3.22,3.63v-6.85c.95-.92,2.03-1.89,3.24-2.92,1.21-1.03,2.51-1.99,3.89-2.9,1.38-.9,2.8-1.63,4.25-2.18,1.46-.55,2.92-.83,4.39-.83,2.21,0,4.08.57,5.61,1.7,1.53,1.13,2.72,2.74,3.56,4.81.84,2.07,1.27,4.5,1.27,7.29s-.18,5.18-.53,7.43c-.35,2.25-.94,4.2-1.77,5.84s-1.97,2.91-3.43,3.82c-1.46.9-3.29,1.36-5.5,1.36-1.72,0-3.26-.26-4.62-.78-1.37-.52-2.45-1.33-3.24-2.44-.8-1.1-1.2-2.51-1.2-4.23,0-1.38.37-2.61,1.1-3.68.74-1.07,1.79-1.92,3.15-2.55,1.36-.63,2.98-.94,4.85-.94,2.85,0,5.53.66,8.05,1.98,2.51,1.32,4.97,3.27,7.36,5.84l-2.99,4.78Z"/>
    <path class="cls-2" d="M510.57,307.35c-1.17,0-2.13-.38-2.9-1.15-.77-.77-1.15-1.73-1.15-2.9s.38-2.18,1.15-2.94c.77-.77,1.73-1.15,2.9-1.15s2.13.38,2.9,1.15c.77.77,1.15,1.75,1.15,2.94s-.38,2.13-1.15,2.9c-.77.77-1.73,1.15-2.9,1.15ZM508.23,295.11l-1.24-15.73-.23-6.85h7.64l-.23,6.85-1.24,15.73h-4.69Z"/>
  </g>
</svg>