<?xml version="1.0" encoding="UTF-8"?>
<svg id="Layer_13" data-name="Layer 13" xmlns="http://www.w3.org/2000/svg" viewBox="0 0 1000 920.79">
  <defs>
    <style>
      .cls-1 {
        stroke: #231f20;
        stroke-miterlimit: 10;
        stroke-width: 5px;
      }

      .cls-1, .cls-2 {
        fill: #fff;
      }

      .cls-3 {
        fill: #55c4c1;
      }
    </style>
  </defs>
  <path class="cls-1" d="M776.59,543.29c26.02-12.05,45.2-37.38,34.58-67.08-7.43-20.77-22.85-18.85-37.47-30.71-12.57-10.19-26.02-27.92-28.12-44.3-.86-6.66-.35-13.96-.05-20.69.12-2.61,1.71-4.7-.42-7.22-4.96-5.85-12.94.41-16.28,4.92-8.49,11.47-11.03,23.66-10.43,37.89.84,19.89,8.25,30.7,19.94,45.71,4.31,5.53,21.3,18.11,10.72,25.14-9.38,6.23-21.45-8.04-27.89-13.47-17.84-15.05-36.62-24.84-59.23-30.98-2.15-3.85-3.5-7.96-6.09-11.7-2.18-3.14-9.25-10.99-13.25-7.55-1.07.92-1.09,3.25-2.54,2.17-.31-.23-1.02-3.27-1.14-3.94-.74-4.18-.33-12.73,1.38-16.62.71-1.61,6.92-7.12,2.54-7.24-6.54-.18-13.68,2.96-18.98,6.47-10,6.62-21.26,16.58-24.01,28.72-1.6.21-2.24-1.46-3.42-2.29-3.69-2.62-15.26-6.78-19.76-7.34-1.95-.24-3.96-.52-3.83,2.1.13,2.71,2.75,7.51,3.51,10.49.87,3.37,1.01,6.96,1.93,10.35.6,2.2,3.13,6.57,2.3,8.29-.39.8-2.76,1.49-3.74,2.18-7.51,5.31-15.87,12.19-22.73,18.35-2.07,1.86-6.91,8.02-9.47,7.83-1.81-.13-5.21-2.01-5.34-4.04-.4-6.3,12.91-15.95,16.92-20.74,11.2-13.4,11.57-33.94,7.42-50.18-2.05-8.01-7.03-23.69-13.56-28.79-3.91-3.05-13.78-6.25-13.78,1.47,0,3.43,2.14,9.54,2.57,13.56,2.97,27.58-10.81,42.96-30.06,59.72-7.94,6.92-14.47,8.67-19,19.54-1.52,3.64-1.71,7.47-3.66,10.73-5.42-4.96-7.17-14.91-16.41-13.44-5.47.87-6.96,6.45-8.33,11.15-4.67,15.95-8.01,33.19-12.43,49.41-4.73,17.37-10.49,34.51-15,51.91-2.4,9.24-2.3,13.72-1.39,23.17,2.39,24.73,6.62,49.34,8.9,74.1-.16,4.63-6.83,9.53-9.74,13.17-11.63,14.53-8.31,31.82-1.61,47.75,3.65,8.66,8.34,13.98,16.56,18.6,1.55.87,8.58,3.56,8.89,4.26,1.04,4.3.95,8.77,1.68,13.12,2.6,15.6,5.61,31.21,8.21,46.85,1.11,6.68,3.29,15.88,3.5,22.39.05,1.49-1.52,3.5-1.68,5.84-.41,5.89,2,17.71,4.35,23.21.83,1.96,2.45,3.61,3.07,5.4,1.8,5.21,1.93,10.26,4.64,15.69,14.88,29.84,75.66,28.16,90.08-.58,1.58-3.14,2.27-6.64,3.73-9.82,11.28-2.43,24.66-3.84,33.68-11.63,5.18-4.48,6.67-8.42,5.67-15.43-.25-1.78-1.95-3.1-1.58-4.58.29-1.19,4.88-6.06,6.02-7.57,1.17-1.55,1.98-3.34,3.23-4.84,4.27.13,8.63.47,12.91.23,6.35-.36,14.56-2.96,20.33-2.87,5.63.09,7.93,4.45,11.64,7.75,2.89,2.57,5.84,5.27,8.94,7.58,3.67,2.74,11.59,6.46,14.15,9.14,1.72,1.79.74,3.24,1.1,5.25,2.93,16.57,27.12,29.71,42.82,27.25,1.31-.21,3.25-1.21,4.32-1.15,1.29.08,4.54,1.83,6.85,2.06,3.83.38,14.37-1.01,17.5-3.15.81-.55,1.67-1.98,2.44-2.22,1.4-.42,3.79.06,5.41-.09,6.6-.64,12.8-5.62,13.3-12.54,1.23-17.06-21.79-23.68-17.44-40.73.35-1.38,2.9-7.59,3.61-8.67,1.51-2.33,4.65-1.62,4.58-6.43-.02-1.75-1.42-5.1-1.28-6.37.06-.61,2.64-3.49,3.1-5.38,1.19-4.86-1.18-5.62-2.88-9.25-6.42-13.71-11.37-29.75-17.51-43.9-.69-1.6-3.78-6.57-3.88-7.59-.07-.69.07-1.14.32-1.76.7-1.72,4.81-6.42,6.21-8.62,5.39-8.51,9.66-18.02,10.83-28.13.12-1.04-.22-2.49-.02-3.32.11-.45,1.21-.37,1.87-1.23,1.12-1.47,1.79-5.06,1.51-6.86-.46-3.04-4.62-5-5-6.47-.4-1.52,3.11-3.72,1.84-6.47-.22-.48-3.41-3.49-4.05-3.99-1.8-1.41-5.12-2.73-6.6-4.2-1.36-1.35-3.07-4.5-4.58-6.22-1.12-1.27-7.38-6.77-7.44-7.43-.1-1.11,2.48-4.03,2.48-6.33,0-1.77-2.1-4.79-2.03-5.05.09-.4,3.55-2.12,3.8-4.73.18-1.86-1.47-3.06-1.69-4.83,3.87.48,9.81-1.77,10.83-5.9.4-1.64.23-3.76.68-5.46,3.63-.74,7.32-1.18,10.94-1.98,3.29-.73,13.67-3.05,15.68-5.07,4.46-4.49-1.74-15.33-2.48-20.68,1.87-2.76,4.25-5.08,6.2-7.79,2.36-3.29,8.08-12.02,7.19-15.93-.69-3.01-11.18-9.36-14.16-10.83-2.65-1.31-10.74-3.85-12.01-5.78-.91-1.38-1.11-4.94-1.26-6.78-.33-4.03-.27-8.57-.37-12.64.18-.53,6.51-2.73,7.72-3.29Z"/>
  <g>
    <g>
      <path class="cls-3" d="M802.13,389.81c105.92-28.52,243.95-267.12,133.77-326.25C766.57-27.3,358.83-3.42,189.6,29.26c-265.71,51.3-56.18,343.5,34.92,366.33,91.1,22.83,469.17,23.43,577.61-5.77Z"/>
      <path class="cls-3" d="M545.25,527.58s-154.43-106.59-124.43-159.74c14.53-25.75,175.41,9.24,153.99,31.01-43.95,44.67-29.55,128.73-29.55,128.73Z"/>
    </g>
    <polygon class="cls-3" points="105.33 345.22 21.27 338.51 12.82 370.12 105.33 345.22"/>
    <polygon class="cls-3" points="123.43 374.88 0 418.04 31.92 457.54 123.43 374.88"/>
    <polygon class="cls-3" points="143.13 421.77 96.7 474.87 138.35 486 143.13 421.77"/>
    <polygon class="cls-3" points="831.64 421.59 841.33 492.87 884.26 506.38 831.64 421.59"/>
    <polygon class="cls-3" points="870.43 404.68 943.38 479 1000 455.58 870.43 404.68"/>
    <polygon class="cls-3" points="905.22 374.14 980.4 401.37 988.67 372.22 905.22 374.14"/>
  </g>
  <g>
    <path class="cls-2" d="M432.16,269.72c-6.76,0-12.83-.75-18.19-2.25-5.37-1.5-10.17-3.59-14.41-6.28-4.24-2.68-8.19-5.8-11.83-9.34l11.11-14.65c4.19,3.86,8.72,7.03,13.6,9.5,4.88,2.47,10.55,3.7,16.99,3.7,4.61,0,8.75-.83,12.4-2.5,3.65-1.66,6.57-4.13,8.77-7.41,2.2-3.27,3.3-7.27,3.3-11.99s-1.07-8.67-3.22-11.83c-2.15-3.17-5.05-5.58-8.69-7.25-3.65-1.66-7.73-2.5-12.24-2.5s-8.27.48-11.91,1.45c-3.65.97-7.41,2.68-11.27,5.15l-10.79-6.76,3.22-58.76h73.74v19.96h-53.29l-2.09,25.76c2.9-1.29,5.93-2.25,9.1-2.9,3.17-.64,6.52-.97,10.06-.97,7.19,0,13.93,1.34,20.21,4.02,6.28,2.68,11.32,6.84,15.13,12.48,3.81,5.63,5.72,12.86,5.72,21.65,0,6.76-1.21,12.72-3.62,17.87-2.42,5.15-5.74,9.5-9.98,13.04-4.24,3.54-9.1,6.23-14.57,8.05-5.47,1.82-11.22,2.74-17.23,2.74Z"/>
    <path class="cls-2" d="M523.13,138.51h19.96v53.29c0,6.98-.4,14.49-1.21,22.54-.8,8.05-2.28,16.21-4.43,24.47-2.15,8.27-5.31,16.1-9.5,23.51-4.19,7.41-9.72,14.01-16.58,19.8-.97-1.4-2.33-3.01-4.11-4.83-1.77-1.83-3.65-3.6-5.64-5.31-1.99-1.72-3.73-3.01-5.23-3.86,6.12-5.15,10.97-10.87,14.57-17.15,3.59-6.28,6.28-12.8,8.05-19.56,1.77-6.76,2.9-13.52,3.38-20.29.48-6.76.72-13.25.72-19.48v-53.13ZM535.69,214.98h80.82v18.84h-80.82v-18.84ZM536.49,138.51h80.34v18.84h-80.34v-18.84ZM536.65,176.99h80.98v18.35h-80.98v-18.35ZM607.81,138.51h20.61v118.98c0,5.8-.78,10.25-2.33,13.36-1.56,3.11-4.21,5.47-7.97,7.08-3.86,1.72-8.69,2.76-14.49,3.14-5.8.38-12.88.56-21.25.56-.43-1.93-1.07-4.13-1.93-6.6-.86-2.47-1.83-4.94-2.9-7.41-1.07-2.47-2.15-4.56-3.22-6.28,3.76.22,7.59.35,11.51.4,3.92.06,7.41.08,10.47.08h6.52c1.82,0,3.11-.35,3.86-1.05.75-.7,1.13-1.9,1.13-3.62v-118.66Z"/>
  </g>
</svg>