<?xml version="1.0" encoding="UTF-8"?>
<svg id="Layer_13" data-name="Layer 13" xmlns="http://www.w3.org/2000/svg" viewBox="0 0 1000 920.79">
  <defs>
    <style>
      .cls-1 {
        stroke: #231f20;
        stroke-miterlimit: 10;
        stroke-width: 5px;
      }

      .cls-1, .cls-2 {
        fill: #fff;
      }

      .cls-3 {
        fill: #55c4c1;
      }
    </style>
  </defs>
  <path class="cls-1" d="M776.59,543.29c26.02-12.05,45.2-37.38,34.58-67.08-7.43-20.77-22.85-18.85-37.47-30.71-12.57-10.19-26.02-27.92-28.12-44.3-.86-6.66-.35-13.96-.05-20.69.12-2.61,1.71-4.7-.42-7.22-4.96-5.85-12.94.41-16.28,4.92-8.49,11.47-11.03,23.66-10.43,37.89.84,19.89,8.25,30.7,19.94,45.71,4.31,5.53,21.3,18.11,10.72,25.14-9.38,6.23-21.45-8.04-27.89-13.47-17.84-15.05-36.62-24.84-59.23-30.98-2.15-3.85-3.5-7.96-6.09-11.7-2.18-3.14-9.25-10.99-13.25-7.55-1.07.92-1.09,3.25-2.54,2.17-.31-.23-1.02-3.27-1.14-3.94-.74-4.18-.33-12.73,1.38-16.62.71-1.61,6.92-7.12,2.54-7.24-6.54-.18-13.68,2.96-18.98,6.47-10,6.62-21.26,16.58-24.01,28.72-1.6.21-2.24-1.46-3.42-2.29-3.69-2.62-15.26-6.78-19.76-7.34-1.95-.24-3.96-.52-3.83,2.1.13,2.71,2.75,7.51,3.51,10.49.87,3.37,1.01,6.96,1.93,10.35.6,2.2,3.13,6.57,2.3,8.29-.39.8-2.76,1.49-3.74,2.18-7.51,5.31-15.87,12.19-22.73,18.35-2.07,1.86-6.91,8.02-9.47,7.83-1.81-.13-5.21-2.01-5.34-4.04-.4-6.3,12.91-15.95,16.92-20.74,11.2-13.4,11.57-33.94,7.42-50.18-2.05-8.01-7.03-23.69-13.56-28.79-3.91-3.05-13.78-6.25-13.78,1.47,0,3.43,2.14,9.54,2.57,13.56,2.97,27.58-10.81,42.96-30.06,59.72-7.94,6.92-14.47,8.67-19,19.54-1.52,3.64-1.71,7.47-3.66,10.73-5.42-4.96-7.17-14.91-16.41-13.44-5.47.87-6.96,6.45-8.33,11.15-4.67,15.95-8.01,33.19-12.43,49.41-4.73,17.37-10.49,34.51-15,51.91-2.4,9.24-2.3,13.72-1.39,23.17,2.39,24.73,6.62,49.34,8.9,74.1-.16,4.63-6.83,9.53-9.74,13.17-11.63,14.53-8.31,31.82-1.61,47.75,3.65,8.66,8.34,13.98,16.56,18.6,1.55.87,8.58,3.56,8.89,4.26,1.04,4.3.95,8.77,1.68,13.12,2.6,15.6,5.61,31.21,8.21,46.85,1.11,6.68,3.29,15.88,3.5,22.39.05,1.49-1.52,3.5-1.68,5.84-.41,5.89,2,17.71,4.35,23.21.83,1.96,2.45,3.61,3.07,5.4,1.8,5.21,1.93,10.26,4.64,15.69,14.88,29.84,75.66,28.16,90.08-.58,1.58-3.14,2.27-6.64,3.73-9.82,11.28-2.43,24.66-3.84,33.68-11.63,5.18-4.48,6.67-8.42,5.67-15.43-.25-1.78-1.95-3.1-1.58-4.58.29-1.19,4.88-6.06,6.02-7.57,1.17-1.55,1.98-3.34,3.23-4.84,4.27.13,8.63.47,12.91.23,6.35-.36,14.56-2.96,20.33-2.87,5.63.09,7.93,4.45,11.64,7.75,2.89,2.57,5.84,5.27,8.94,7.58,3.67,2.74,11.59,6.46,14.15,9.14,1.72,1.79.74,3.24,1.1,5.25,2.93,16.57,27.12,29.71,42.82,27.25,1.31-.21,3.25-1.21,4.32-1.15,1.29.08,4.54,1.83,6.85,2.06,3.83.38,14.37-1.01,17.5-3.15.81-.55,1.67-1.98,2.44-2.22,1.4-.42,3.79.06,5.41-.09,6.6-.64,12.8-5.62,13.3-12.54,1.23-17.06-21.79-23.68-17.44-40.73.35-1.38,2.9-7.59,3.61-8.67,1.51-2.33,4.65-1.62,4.58-6.43-.02-1.75-1.42-5.1-1.28-6.37.06-.61,2.64-3.49,3.1-5.38,1.19-4.86-1.18-5.62-2.88-9.25-6.42-13.71-11.37-29.75-17.51-43.9-.69-1.6-3.78-6.57-3.88-7.59-.07-.69.07-1.14.32-1.76.7-1.72,4.81-6.42,6.21-8.62,5.39-8.51,9.66-18.02,10.83-28.13.12-1.04-.22-2.49-.02-3.32.11-.45,1.21-.37,1.87-1.23,1.12-1.47,1.79-5.06,1.51-6.86-.46-3.04-4.62-5-5-6.47-.4-1.52,3.11-3.72,1.84-6.47-.22-.48-3.41-3.49-4.05-3.99-1.8-1.41-5.12-2.73-6.6-4.2-1.36-1.35-3.07-4.5-4.58-6.22-1.12-1.27-7.38-6.77-7.44-7.43-.1-1.11,2.48-4.03,2.48-6.33,0-1.77-2.1-4.79-2.03-5.05.09-.4,3.55-2.12,3.8-4.73.18-1.86-1.47-3.06-1.69-4.83,3.87.48,9.81-1.77,10.83-5.9.4-1.64.23-3.76.68-5.46,3.63-.74,7.32-1.18,10.94-1.98,3.29-.73,13.67-3.05,15.68-5.07,4.46-4.49-1.74-15.33-2.48-20.68,1.87-2.76,4.25-5.08,6.2-7.79,2.36-3.29,8.08-12.02,7.19-15.93-.69-3.01-11.18-9.36-14.16-10.83-2.65-1.31-10.74-3.85-12.01-5.78-.91-1.38-1.11-4.94-1.26-6.78-.33-4.03-.27-8.57-.37-12.64.18-.53,6.51-2.73,7.72-3.29Z"/>
  <g>
    <g>
      <path class="cls-3" d="M802.13,389.81c105.92-28.52,243.95-267.12,133.77-326.25C766.57-27.3,358.83-3.42,189.6,29.26c-265.71,51.3-56.18,343.5,34.92,366.33,91.1,22.83,469.17,23.43,577.61-5.77Z"/>
      <path class="cls-3" d="M545.25,527.58s-154.43-106.59-124.43-159.74c14.53-25.75,175.41,9.24,153.99,31.01-43.95,44.67-29.55,128.73-29.55,128.73Z"/>
    </g>
    <polygon class="cls-3" points="105.33 345.22 21.27 338.51 12.82 370.12 105.33 345.22"/>
    <polygon class="cls-3" points="123.43 374.88 0 418.04 31.92 457.54 123.43 374.88"/>
    <polygon class="cls-3" points="143.13 421.77 96.7 474.87 138.35 486 143.13 421.77"/>
    <polygon class="cls-3" points="831.64 421.59 841.33 492.87 884.26 506.38 831.64 421.59"/>
    <polygon class="cls-3" points="870.43 404.68 943.38 479 1000 455.58 870.43 404.68"/>
    <polygon class="cls-3" points="905.22 374.14 980.4 401.37 988.67 372.22 905.22 374.14"/>
  </g>
  <g>
    <path class="cls-2" d="M271.46,142.95c-.53.58-1,1.11-1.4,1.58-.41.48-.76.96-1.04,1.44-1.44,2.3-3.14,4.8-5.11,7.49-1.97,2.69-4.15,5.4-6.55,8.14-2.4,2.74-4.93,5.38-7.6,7.92-2.66,2.54-5.41,4.85-8.24,6.91l-7.13-6.7c2.4-1.63,4.67-3.44,6.8-5.44,2.14-1.99,4.13-4.02,5.98-6.08,1.85-2.06,3.49-4.08,4.93-6.05,1.44-1.97,2.64-3.77,3.6-5.4h-38.09c-.96,0-1.98.02-3.06.07-1.08.05-2.1.12-3.06.22-.96.1-1.68.17-2.16.22v-10.08c.62.05,1.43.14,2.41.29.98.14,2,.24,3.06.29,1.06.05,1.99.07,2.81.07h39.96c2.83,0,5.06-.26,6.7-.79l7.2,5.9ZM233.45,177.44c-1.06-1.06-2.27-2.22-3.64-3.49-1.37-1.27-2.78-2.56-4.25-3.85-1.46-1.3-2.88-2.51-4.25-3.64-1.37-1.13-2.6-2.08-3.71-2.84l7.63-6.12c.96.72,2.1,1.61,3.42,2.66,1.32,1.06,2.72,2.21,4.21,3.46,1.49,1.25,3,2.54,4.54,3.89,1.54,1.34,3,2.66,4.39,3.96,1.58,1.54,3.23,3.19,4.93,4.97,1.7,1.78,3.34,3.5,4.9,5.18,1.56,1.68,2.89,3.24,4,4.68l-8.42,6.7c-1.01-1.34-2.29-2.92-3.85-4.72-1.56-1.8-3.2-3.66-4.93-5.58-1.73-1.92-3.38-3.67-4.97-5.26Z"/>
    <path class="cls-2" d="M330.07,139.5c-.29.43-.71,1.11-1.26,2.02-.55.91-.97,1.75-1.26,2.52-1.01,2.26-2.24,4.78-3.71,7.56-1.46,2.78-3.12,5.58-4.97,8.39-1.85,2.81-3.8,5.44-5.87,7.88-2.69,3.02-5.65,6.01-8.89,8.96-3.24,2.95-6.65,5.67-10.22,8.14-3.58,2.47-7.24,4.6-10.98,6.37l-7.42-7.78c3.89-1.49,7.66-3.36,11.3-5.62,3.65-2.26,7.03-4.7,10.15-7.34,3.12-2.64,5.81-5.21,8.06-7.7,1.58-1.82,3.08-3.77,4.5-5.83,1.42-2.06,2.68-4.12,3.78-6.16,1.1-2.04,1.92-3.92,2.45-5.65h-24.41c-1.01,0-2.06.04-3.17.11-1.1.07-2.15.14-3.13.22-.98.07-1.74.13-2.27.18v-10.22c.72.05,1.61.12,2.66.22,1.06.1,2.12.17,3.2.22,1.08.05,1.98.07,2.7.07h25.42c1.58,0,3.04-.09,4.36-.29,1.32-.19,2.34-.41,3.06-.65l5.9,4.39ZM313.94,161.89c1.87,1.49,3.86,3.22,5.98,5.18,2.11,1.97,4.2,4.01,6.26,6.12,2.06,2.11,3.97,4.14,5.72,6.08,1.75,1.94,3.23,3.64,4.43,5.08l-8.21,7.13c-1.78-2.45-3.8-4.99-6.08-7.63-2.28-2.64-4.68-5.27-7.2-7.88s-5.08-5.1-7.67-7.45l6.77-6.62Z"/>
    <path class="cls-2" d="M349.37,176.29c1.25.1,2.65.19,4.21.29,1.56.1,3.16.14,4.79.14h38.88v9.43h-38.59c-1.39,0-2.99.05-4.79.14-1.8.1-3.3.19-4.5.29v-10.3ZM350.3,137.19c1.34.14,2.85.25,4.54.32,1.68.07,3.12.11,4.32.11h36.29c1.06,0,2.22-.01,3.49-.04,1.27-.02,2.22-.06,2.84-.11-.05.82-.1,1.86-.14,3.13-.05,1.27-.07,2.44-.07,3.49v37.3c0,1.25.04,2.71.11,4.39.07,1.68.13,3.05.18,4.1h-10.44c.05-1.06.08-2.22.11-3.49.02-1.27.04-2.56.04-3.85v-35.64h-32.33c-1.54,0-3.16.03-4.86.07-1.7.05-3.06.12-4.07.22v-10.01Z"/>
    <path class="cls-2" d="M424.68,149.36c.48.91,1.02,2.09,1.62,3.53.6,1.44,1.21,2.95,1.84,4.54.62,1.58,1.24,3.12,1.84,4.61.6,1.49,1.07,2.74,1.4,3.74l-8.78,3.31c-.29-.96-.71-2.21-1.26-3.74-.55-1.54-1.16-3.16-1.84-4.86-.67-1.7-1.31-3.28-1.91-4.72-.6-1.44-1.12-2.54-1.55-3.31l8.64-3.1ZM467.95,150.8c-.38,1.15-.71,2.14-.97,2.95-.26.82-.52,1.58-.76,2.3-.91,3.65-2.16,7.28-3.74,10.91s-3.6,7.02-6.05,10.19c-3.36,4.32-7.16,7.98-11.41,10.98-4.25,3-8.48,5.29-12.71,6.88l-7.56-7.7c2.64-.72,5.42-1.79,8.35-3.2,2.93-1.42,5.76-3.13,8.5-5.15,2.74-2.02,5.09-4.25,7.06-6.7,1.63-2.06,3.08-4.43,4.36-7.09,1.27-2.66,2.33-5.52,3.17-8.57.84-3.05,1.4-6.06,1.69-9.04l10.08,3.24ZM441.38,145.55c.34.77.78,1.86,1.33,3.28.55,1.42,1.14,2.93,1.76,4.54.62,1.61,1.18,3.13,1.66,4.57.48,1.44.86,2.57,1.15,3.38l-8.64,3.02c-.19-.91-.53-2.06-1.01-3.46-.48-1.39-1.01-2.87-1.58-4.43-.58-1.56-1.15-3.06-1.73-4.5-.58-1.44-1.08-2.64-1.51-3.6l8.57-2.81Z"/>
    <path class="cls-2" d="M487.03,181.4v-41.4c0-1.25-.06-2.69-.18-4.32-.12-1.63-.3-3.07-.54-4.32h11.23c-.14,1.25-.29,2.63-.43,4.14-.14,1.51-.22,3.01-.22,4.5v41.4c0,.67.02,1.62.07,2.84.05,1.22.14,2.48.29,3.78s.24,2.45.29,3.46h-11.23c.19-1.44.36-3.12.5-5.04s.22-3.6.22-5.04ZM494.74,150.01c2.4.62,5.09,1.43,8.06,2.41,2.98.98,5.98,2.03,9,3.13,3.02,1.1,5.87,2.2,8.53,3.28,2.66,1.08,4.88,2.08,6.66,2.99l-4.1,9.94c-2.02-1.06-4.25-2.12-6.7-3.2-2.45-1.08-4.93-2.12-7.45-3.13-2.52-1.01-4.99-1.94-7.42-2.81-2.42-.86-4.62-1.63-6.59-2.3v-10.3Z"/>
    <path class="cls-2" d="M563.14,129.85c-.05.38-.12.97-.22,1.76-.1.79-.18,1.58-.25,2.38-.07.79-.13,1.5-.18,2.12-.1,1.39-.18,2.92-.25,4.57-.07,1.66-.13,3.36-.18,5.11-.05,1.75-.08,3.52-.11,5.29-.02,1.78-.04,3.5-.04,5.18,0,1.97.02,4.14.07,6.52.05,2.38.11,4.73.18,7.06.07,2.33.12,4.45.14,6.37.02,1.92.04,3.41.04,4.46,0,2.98-.32,5.28-.97,6.91-.65,1.63-1.57,2.77-2.77,3.42-1.2.65-2.59.97-4.18.97-1.73,0-3.58-.35-5.54-1.04-1.97-.7-3.81-1.67-5.51-2.92-1.7-1.25-3.1-2.7-4.18-4.36-1.08-1.66-1.62-3.44-1.62-5.36,0-2.3.88-4.6,2.63-6.88,1.75-2.28,4.08-4.38,6.98-6.3,2.9-1.92,6.04-3.46,9.4-4.61,3.22-1.2,6.53-2.08,9.94-2.63,3.41-.55,6.48-.83,9.22-.83,3.7,0,7.03.61,10.01,1.84,2.98,1.22,5.35,3.01,7.13,5.36,1.78,2.35,2.66,5.18,2.66,8.5,0,2.78-.53,5.35-1.58,7.7-1.06,2.35-2.75,4.38-5.08,6.08-2.33,1.7-5.41,3.04-9.25,4-1.63.33-3.25.59-4.86.76-1.61.17-3.13.3-4.57.4l-3.31-9.29c1.63,0,3.2-.04,4.72-.11,1.51-.07,2.89-.2,4.14-.4,1.97-.38,3.74-.96,5.33-1.73,1.58-.77,2.83-1.78,3.74-3.02.91-1.25,1.37-2.74,1.37-4.46,0-1.63-.44-3.02-1.33-4.18-.89-1.15-2.12-2.04-3.71-2.66-1.58-.62-3.43-.94-5.54-.94-3.02,0-6.08.31-9.18.94-3.1.62-6.06,1.49-8.89,2.59-2.11.82-4.01,1.76-5.69,2.84-1.68,1.08-3,2.2-3.96,3.35-.96,1.15-1.44,2.26-1.44,3.31,0,.58.18,1.12.54,1.62s.83.95,1.4,1.33c.58.38,1.16.68,1.76.9.6.22,1.12.32,1.55.32.67,0,1.22-.2,1.66-.61.43-.41.65-1.21.65-2.41,0-1.3-.04-3.16-.11-5.58-.07-2.42-.14-5.12-.22-8.1-.07-2.98-.11-5.93-.11-8.86,0-2.02.01-4.06.04-6.12.02-2.06.04-4.03.04-5.9s.01-3.53.04-4.97c.02-1.44.04-2.57.04-3.38,0-.53-.02-1.2-.07-2.02-.05-.82-.11-1.64-.18-2.48-.07-.84-.16-1.45-.25-1.84h9.94ZM539.52,141.59c2.11.24,3.97.4,5.58.47,1.61.07,3.06.11,4.36.11,1.87,0,3.94-.08,6.19-.25,2.26-.17,4.56-.41,6.91-.72,2.35-.31,4.64-.68,6.88-1.12,2.23-.43,4.26-.91,6.08-1.44l.22,8.93c-2.02.48-4.2.9-6.55,1.26-2.35.36-4.72.68-7.09.97-2.38.29-4.63.5-6.77.65-2.14.14-4,.22-5.58.22-2.4,0-4.37-.02-5.9-.07-1.54-.05-2.93-.14-4.18-.29l-.14-8.71ZM583.66,137.63c1.82.86,3.88,1.92,6.16,3.17,2.28,1.25,4.46,2.48,6.55,3.71,2.09,1.22,3.75,2.32,5,3.28l-4.32,7.34c-.91-.77-2.1-1.63-3.56-2.59-1.46-.96-3.05-1.94-4.75-2.95-1.7-1.01-3.35-1.96-4.93-2.84-1.58-.89-2.95-1.59-4.1-2.12l3.96-6.98Z"/>
    <path class="cls-2" d="M604.39,163.69c2.93-.62,6.42-1.48,10.48-2.56,4.06-1.08,8.15-2.17,12.28-3.28l1.08,7.78c-3.74,1.1-7.54,2.21-11.38,3.31-3.84,1.1-7.37,2.11-10.58,3.02l-1.87-8.28ZM605.54,140.8h22.32v7.92h-22.32v-7.92ZM613.18,127.19h7.92v57.53c0,1.97-.19,3.53-.58,4.68-.38,1.15-1.15,2.06-2.3,2.74-1.06.67-2.4,1.12-4.03,1.33-1.63.22-3.62.32-5.98.32-.1-1.06-.35-2.36-.76-3.92-.41-1.56-.88-2.89-1.4-4,1.3.05,2.51.07,3.64.07s1.91-.02,2.34-.07c.43,0,.73-.08.9-.25.17-.17.25-.49.25-.97v-57.46ZM630.02,136.91h8.28v19.37c0,2.78-.13,5.86-.4,9.22-.26,3.36-.74,6.77-1.44,10.22-.7,3.46-1.69,6.79-2.99,10.01-1.3,3.21-3,6.09-5.11,8.64-.43-.53-1.06-1.16-1.87-1.91-.82-.74-1.66-1.44-2.52-2.09-.86-.65-1.58-1.14-2.16-1.48,1.87-2.3,3.36-4.83,4.46-7.6,1.1-2.76,1.92-5.59,2.45-8.5.53-2.9.88-5.76,1.04-8.57.17-2.81.25-5.46.25-7.96v-19.37ZM660.91,154.91h1.58l1.44-.29,5.4,1.94c-1.54,6.82-3.84,12.7-6.91,17.64-3.07,4.94-6.76,9.07-11.05,12.38-4.3,3.31-9.13,5.98-14.51,7.99-.48-1.01-1.18-2.21-2.09-3.6-.91-1.39-1.78-2.5-2.59-3.31,3.55-1.1,6.88-2.6,9.97-4.5,3.1-1.9,5.9-4.16,8.42-6.8,2.52-2.64,4.66-5.64,6.41-9,1.75-3.36,3.06-7.06,3.92-11.09v-1.37ZM634.49,136.91h31.18v7.92h-31.18v-7.92ZM635.35,154.91h26.86v7.56h-26.86v-7.56ZM643.85,160.02c2.26,6.58,5.78,12.23,10.58,16.96,4.8,4.73,10.94,8.1,18.43,10.12-.62.58-1.28,1.31-1.98,2.2-.7.89-1.37,1.8-2.02,2.74-.65.94-1.16,1.79-1.55,2.56-5.33-1.73-9.95-4.13-13.86-7.2-3.91-3.07-7.25-6.74-10.01-11.02-2.76-4.27-5.05-9.12-6.88-14.54l7.27-1.8ZM645.79,127.11h8.42v31.39h-8.42v-31.39ZM662.93,136.91h1.3l1.37-.29,6.34,1.22c-.67,2.78-1.44,5.6-2.3,8.46-.86,2.86-1.68,5.29-2.45,7.31l-7.56-1.66c.58-1.77,1.18-3.97,1.8-6.59.62-2.62,1.13-5.08,1.51-7.38v-1.08Z"/>
    <path class="cls-2" d="M677.76,187.67c2.59-.19,5.54-.4,8.86-.61s6.8-.48,10.48-.79c3.67-.31,7.33-.61,10.98-.9l.07,6.19c-5.28.53-10.55,1.02-15.8,1.48-5.26.46-9.88.88-13.86,1.26l-.72-6.62ZM678.55,137.84h63.43v13.1h-7.99v-7.78h-47.81v7.78h-7.63v-13.1ZM681,174.2h6.34v15.05l-6.34.58v-15.62ZM681.79,157.86h24.26v14.47h-24.26v-14.47ZM683.66,129.64h53.14v5.98h-53.14v-5.98ZM687.12,151.45h15.98v4.18h-15.98v-4.18ZM688.63,163.19v3.89h10.15v-3.89h-10.15ZM689.06,145.11h14.04v4.18h-14.04v-4.18ZM690.79,170.17h7.2v19.51l-7.2.29v-19.8ZM694.68,175.64h11.59v5.76h-11.59v-5.76ZM732.84,158.65h1.3l1.15-.29,4.61,2.45c-1.92,3.6-4.52,6.76-7.81,9.47-3.29,2.71-6.95,5-10.98,6.88-4.03,1.87-8.16,3.36-12.38,4.46-.38-.82-.94-1.78-1.66-2.88-.72-1.1-1.42-1.99-2.09-2.66,2.88-.62,5.75-1.44,8.6-2.45,2.85-1.01,5.53-2.22,8.03-3.64,2.5-1.42,4.73-2.99,6.7-4.72,1.97-1.73,3.48-3.6,4.54-5.62v-1.01ZM718.37,155.48l6.41,1.08c-1.63,2.74-3.64,5.28-6.01,7.63-2.38,2.35-5.29,4.51-8.75,6.48-.53-.67-1.24-1.44-2.12-2.3-.89-.86-1.69-1.49-2.41-1.87,3.12-1.49,5.76-3.21,7.92-5.18,2.16-1.97,3.82-3.91,4.97-5.83ZM705.77,132.23h8.5v24.19h-8.5v-24.19ZM717.79,161.96c1.63,2.21,3.79,4.16,6.48,5.87,2.69,1.71,5.81,3.13,9.36,4.28,3.55,1.15,7.34,1.99,11.38,2.52-.72.72-1.51,1.68-2.38,2.88-.86,1.2-1.51,2.26-1.94,3.17-4.22-.77-8.15-1.93-11.77-3.49-3.62-1.56-6.85-3.47-9.68-5.72-2.83-2.26-5.21-4.85-7.13-7.78l5.69-1.73ZM712.82,178.74h24.62v15.91h-7.56v-10.87h-9.86v11.02h-7.2v-16.06ZM715.34,188.1h19.3v5.26h-19.3v-5.26ZM719.3,158.65h15.62v5.11h-19.22l3.6-5.11ZM716.93,151.45h16.06v4.18h-16.06v-4.18ZM717,145.11h14.11v4.18h-14.11v-4.18Z"/>
    <path class="cls-2" d="M756.38,131.07h51.34v62.93h-9.22v-54.5h-33.41v54.5h-8.71v-62.93ZM762.58,147.71h39.1v8.21h-39.1v-8.21ZM762.58,164.41h39.1v8.21h-39.1v-8.21ZM762.58,181.04h39.1v8.42h-39.1v-8.42Z"/>
    <path class="cls-2" d="M249.32,252.32c.82-2.02,1.6-4.14,2.34-6.37.74-2.23,1.4-4.54,1.98-6.91s1.09-4.74,1.55-7.09c.46-2.35.78-4.68.97-6.98l10.51,2.16c-.19.67-.41,1.46-.65,2.38-.24.91-.46,1.8-.65,2.66-.19.86-.34,1.58-.43,2.16-.24,1.25-.58,2.76-1.01,4.54-.43,1.78-.94,3.66-1.51,5.65-.58,1.99-1.16,3.98-1.76,5.98-.6,1.99-1.21,3.83-1.84,5.51-.86,2.3-1.88,4.7-3.06,7.2-1.18,2.5-2.42,4.9-3.74,7.2-1.32,2.3-2.6,4.37-3.85,6.19l-10.08-4.25c2.3-2.98,4.45-6.26,6.44-9.86,1.99-3.6,3.59-6.98,4.79-10.15ZM284.89,250.81c-.72-1.92-1.51-3.96-2.38-6.12-.86-2.16-1.78-4.32-2.74-6.48-.96-2.16-1.9-4.2-2.81-6.12-.91-1.92-1.75-3.58-2.52-4.97l9.58-3.1c.72,1.39,1.56,3.07,2.52,5.04.96,1.97,1.92,4.04,2.88,6.23.96,2.18,1.9,4.36,2.81,6.52.91,2.16,1.73,4.1,2.45,5.83.62,1.58,1.31,3.46,2.05,5.62.74,2.16,1.51,4.4,2.3,6.73s1.54,4.6,2.23,6.8c.7,2.21,1.28,4.2,1.76,5.98l-10.66,3.46c-.62-2.83-1.34-5.71-2.16-8.64-.82-2.93-1.67-5.81-2.56-8.64-.89-2.83-1.81-5.54-2.77-8.14ZM288.71,222.95c0-1.58.4-3.04,1.19-4.36.79-1.32,1.84-2.36,3.13-3.13,1.3-.77,2.74-1.15,4.32-1.15s3.02.38,4.32,1.15c1.3.77,2.34,1.81,3.13,3.13.79,1.32,1.19,2.77,1.19,4.36s-.4,2.95-1.19,4.25c-.79,1.3-1.84,2.34-3.13,3.13s-2.74,1.19-4.32,1.19-3.02-.4-4.32-1.19c-1.3-.79-2.34-1.84-3.13-3.13-.79-1.3-1.19-2.71-1.19-4.25ZM293.17,222.95c0,1.15.41,2.12,1.22,2.92.82.79,1.8,1.19,2.95,1.19s2.14-.4,2.95-1.19c.82-.79,1.22-1.76,1.22-2.92s-.41-2.14-1.22-2.95c-.82-.82-1.8-1.22-2.95-1.22s-2.14.41-2.95,1.22c-.82.82-1.22,1.8-1.22,2.95Z"/>
    <path class="cls-2" d="M312.97,241.38c.86.05,1.97.11,3.31.18,1.34.07,2.75.13,4.21.18,1.46.05,2.82.07,4.07.07h38.66c1.68,0,3.26-.06,4.75-.18,1.49-.12,2.71-.2,3.67-.25v11.3c-.82-.05-2.04-.12-3.67-.22-1.63-.1-3.22-.14-4.75-.14h-38.66c-2.06,0-4.18.04-6.34.11-2.16.07-3.91.16-5.26.25v-11.3Z"/>
    <path class="cls-2" d="M380.15,237.92c1.06.1,2.2.19,3.42.29,1.22.1,2.39.14,3.49.14h47.16c.77,0,1.81-.04,3.13-.11,1.32-.07,2.46-.18,3.42-.32v9.36c-.86-.1-1.92-.16-3.17-.18-1.25-.02-2.38-.04-3.38-.04h-47.16c-1.06,0-2.22.03-3.49.07-1.27.05-2.41.12-3.42.22v-9.43ZM388.5,219.49c1.2.19,2.5.32,3.89.4,1.39.07,2.66.11,3.82.11h28.94c1.25,0,2.54-.04,3.89-.11,1.34-.07,2.64-.2,3.89-.4v9.29c-1.25-.1-2.54-.17-3.89-.22-1.34-.05-2.64-.07-3.89-.07h-28.87c-1.25,0-2.58.02-4,.07-1.42.05-2.68.12-3.78.22v-9.29ZM417.01,242.89c0,4.71-.41,8.92-1.22,12.64-.82,3.72-1.99,7.07-3.53,10.04-.86,1.63-2.02,3.31-3.46,5.04-1.44,1.73-3.1,3.36-4.97,4.9s-3.89,2.83-6.05,3.89l-8.42-6.12c2.54-1.01,4.99-2.45,7.34-4.32,2.35-1.87,4.25-3.86,5.69-5.98,1.82-2.78,3.05-5.86,3.67-9.22.62-3.36.94-6.96.94-10.8l10.01-.07Z"/>
    <path class="cls-2" d="M443.15,254.2c3.12-.67,6.3-1.6,9.54-2.77,3.24-1.18,6.27-2.45,9.11-3.82,2.83-1.37,5.21-2.6,7.13-3.71,2.35-1.44,4.67-3.06,6.95-4.86,2.28-1.8,4.38-3.61,6.3-5.44,1.92-1.82,3.48-3.53,4.68-5.11l7.13,6.98c-1.39,1.58-3.23,3.32-5.51,5.22-2.28,1.9-4.74,3.79-7.38,5.69-2.64,1.9-5.28,3.61-7.92,5.15-1.63,1.01-3.5,2.03-5.62,3.06-2.11,1.03-4.33,2.04-6.66,3.02-2.33.98-4.66,1.91-6.98,2.77-2.33.86-4.5,1.63-6.52,2.3l-4.25-8.5ZM468.06,249.52l9.79-1.87v25.63c0,.82.01,1.75.04,2.81.02,1.05.08,2.03.18,2.92.1.89.19,1.57.29,2.05h-10.66c.1-.48.16-1.16.18-2.05.02-.89.06-1.86.11-2.92.05-1.06.07-1.99.07-2.81v-23.76Z"/>
    <path class="cls-2" d="M502.84,241.38c.86.05,1.97.11,3.31.18,1.34.07,2.75.13,4.21.18,1.46.05,2.82.07,4.07.07h38.66c1.68,0,3.26-.06,4.75-.18,1.49-.12,2.71-.2,3.67-.25v11.3c-.82-.05-2.04-.12-3.67-.22-1.63-.1-3.22-.14-4.75-.14h-38.66c-2.06,0-4.18.04-6.34.11-2.16.07-3.91.16-5.26.25v-11.3Z"/>
    <path class="cls-2" d="M587.29,219.13c-.14.48-.35,1.15-.61,2.02-.26.86-.48,1.71-.65,2.52-.17.82-.3,1.44-.4,1.87-.24,1.01-.5,2.36-.79,4.07-.29,1.71-.59,3.62-.9,5.76-.31,2.14-.61,4.32-.9,6.55-.29,2.23-.5,4.34-.65,6.34-.14,1.99-.22,3.71-.22,5.15,0,.72.01,1.5.04,2.34.02.84.11,1.62.25,2.34.34-.86.68-1.7,1.04-2.52.36-.82.73-1.63,1.12-2.45.38-.82.74-1.63,1.08-2.45l4.39,3.6c-.67,1.97-1.36,4.03-2.05,6.19-.7,2.16-1.32,4.2-1.87,6.12-.55,1.92-.97,3.53-1.26,4.82-.1.48-.18,1.06-.25,1.73-.07.67-.11,1.22-.11,1.66,0,.38.01.85.04,1.4.02.55.06,1.07.11,1.55l-8.14.65c-.77-2.54-1.44-5.8-2.02-9.76-.58-3.96-.86-8.39-.86-13.28,0-2.69.12-5.51.36-8.46.24-2.95.52-5.8.83-8.53.31-2.74.64-5.24.97-7.52.33-2.28.6-4.12.79-5.51.14-1.01.29-2.15.43-3.42s.24-2.48.29-3.64l9.94.86ZM622.43,218.34c-.1.67-.18,1.42-.25,2.23-.07.82-.13,1.63-.18,2.45-.05.77-.1,1.8-.14,3.1-.05,1.3-.07,2.75-.07,4.36v5.08c0,3.26.05,6.33.14,9.18.1,2.86.22,5.5.36,7.92.14,2.42.28,4.64.4,6.66.12,2.02.18,3.89.18,5.62,0,1.87-.25,3.6-.76,5.18s-1.31,2.98-2.41,4.18c-1.1,1.2-2.56,2.12-4.36,2.77-1.8.65-4,.97-6.59.97-4.99,0-8.93-1.01-11.81-3.02s-4.32-4.92-4.32-8.71c0-2.45.65-4.6,1.94-6.44,1.3-1.85,3.14-3.29,5.54-4.32,2.4-1.03,5.23-1.55,8.5-1.55s6.5.36,9.29,1.08c2.78.72,5.33,1.68,7.63,2.88,2.3,1.2,4.36,2.51,6.16,3.92,1.8,1.42,3.42,2.77,4.86,4.07l-4.97,7.56c-2.74-2.59-5.4-4.82-7.99-6.7-2.59-1.87-5.17-3.31-7.74-4.32-2.57-1.01-5.22-1.51-7.96-1.51-2.02,0-3.66.38-4.93,1.15-1.27.77-1.91,1.85-1.91,3.24s.65,2.5,1.94,3.17c1.3.67,2.88,1.01,4.75,1.01,1.49,0,2.66-.25,3.53-.76.86-.5,1.48-1.25,1.84-2.23.36-.98.54-2.17.54-3.56,0-1.25-.05-2.88-.14-4.9-.1-2.02-.2-4.27-.32-6.77-.12-2.5-.23-5.1-.32-7.81-.1-2.71-.14-5.36-.14-7.96,0-2.74-.01-5.22-.04-7.45-.02-2.23-.04-3.9-.04-5,0-.53-.05-1.27-.14-2.23-.1-.96-.22-1.8-.36-2.52h10.3ZM595.07,230.51c2.06.19,4.14.35,6.23.47,2.09.12,4.21.18,6.37.18,4.42,0,8.81-.19,13.18-.58,4.37-.38,8.4-.98,12.1-1.8v9c-3.74.53-7.8.95-12.17,1.26-4.37.31-8.74.47-13.1.47-2.11,0-4.21-.04-6.3-.11-2.09-.07-4.19-.18-6.3-.32v-8.57Z"/>
    <path class="cls-2" d="M657.92,275.72c-2.83,0-5.35-.34-7.56-1.01-2.21-.67-4.18-1.56-5.9-2.66-1.73-1.1-3.26-2.3-4.61-3.6l4.9-6.77c1.01,1.01,2.1,1.92,3.28,2.74,1.18.82,2.47,1.46,3.89,1.94,1.42.48,2.94.72,4.57.72,1.82,0,3.44-.38,4.86-1.15,1.42-.77,2.53-1.88,3.35-3.35.82-1.46,1.22-3.23,1.22-5.29,0-3.07-.83-5.45-2.48-7.13-1.66-1.68-3.83-2.52-6.52-2.52-1.54,0-2.86.21-3.96.61-1.1.41-2.45,1.12-4.03,2.12l-4.82-3.1,1.44-25.92h28.51v8.93h-19.37l-1.01,11.3c1.06-.48,2.09-.84,3.1-1.08,1.01-.24,2.11-.36,3.31-.36,2.98,0,5.71.59,8.21,1.76,2.5,1.18,4.49,3.01,5.98,5.51,1.49,2.5,2.23,5.69,2.23,9.58s-.88,7.31-2.63,10.12c-1.75,2.81-4.03,4.94-6.84,6.41-2.81,1.46-5.84,2.2-9.11,2.2Z"/>
    <path class="cls-2" d="M693.92,216.97h8.93v23.83c0,3.12-.18,6.48-.54,10.08s-1.02,7.25-1.98,10.94c-.96,3.7-2.38,7.2-4.25,10.51-1.87,3.31-4.34,6.26-7.42,8.86-.43-.62-1.04-1.34-1.84-2.16-.79-.82-1.63-1.61-2.52-2.38-.89-.77-1.67-1.34-2.34-1.73,2.74-2.3,4.91-4.86,6.52-7.67,1.61-2.81,2.81-5.72,3.6-8.75.79-3.02,1.3-6.05,1.51-9.07.22-3.02.32-5.93.32-8.71v-23.76ZM699.54,251.17h36.14v8.42h-36.14v-8.42ZM699.9,216.97h35.93v8.42h-35.93v-8.42ZM699.97,234.18h36.22v8.21h-36.22v-8.21ZM731.8,216.97h9.22v53.21c0,2.59-.35,4.58-1.04,5.98-.7,1.39-1.88,2.45-3.56,3.17-1.73.77-3.89,1.23-6.48,1.4-2.59.17-5.76.25-9.5.25-.19-.86-.48-1.85-.86-2.95-.38-1.1-.82-2.21-1.3-3.31-.48-1.1-.96-2.04-1.44-2.81,1.68.1,3.4.16,5.15.18,1.75.02,3.31.04,4.68.04h2.92c.82,0,1.39-.16,1.73-.47.34-.31.5-.85.5-1.62v-53.06Z"/>
    <path class="cls-2" d="M770.46,275.36c-1.82,0-3.34-.6-4.54-1.8-1.2-1.2-1.8-2.71-1.8-4.54s.6-3.41,1.8-4.61,2.71-1.8,4.54-1.8,3.34.6,4.54,1.8c1.2,1.2,1.8,2.74,1.8,4.61s-.6,3.34-1.8,4.54c-1.2,1.2-2.71,1.8-4.54,1.8ZM766.79,256.21l-1.94-24.62-.36-10.73h11.95l-.36,10.73-1.94,24.62h-7.34Z"/>
  </g>
</svg>