<?xml version="1.0" encoding="UTF-8"?>
<svg id="Layer_1" data-name="Layer 1" xmlns="http://www.w3.org/2000/svg" viewBox="0 0 612.66 615.99">
  <defs>
    <style>
      .cls-1 {
        stroke: #231f20;
        stroke-width: 5px;
      }

      .cls-1, .cls-2, .cls-3 {
        fill: #fff;
      }

      .cls-1, .cls-2, .cls-4, .cls-5 {
        stroke-miterlimit: 10;
      }

      .cls-6, .cls-5 {
        fill: #98d4e2;
      }

      .cls-2, .cls-4 {
        stroke: #000;
      }

      .cls-4 {
        fill: none;
      }

      .cls-5 {
        stroke: #1991bf;
      }
    </style>
  </defs>
  <path class="cls-1" d="M607.21,229.25c1.85-8.18-2.23-20.77-6.82-27.68-1.28-1.93-5.89-6.45-6.4-7.58-.51-1.12-.37-5.45-.76-7.29-2.37-11.13-23.13-14.94-32.7-14.3-5.1.34-9.45,2.67-14.19,4.23-.46-.32-.66-4.88-.23-5.52.43-.64,7.52-1.96,9.02-2.41,20.92-6.36,35.11-23.31,45.49-41.76,16.58-29.47.18-60.34-24.76-78.31-6.61-4.76-27.35-15.25-31.03-20.22-.8-1.08-.8-2.53-2-3.1-2.98-1.41-6.47,4.57-7.51,3.51-1.28-2.63,3.45-7.67,1.39-9.34-3.59-2.91-8.92,2.13-11.35,4.68-12.12,12.71-14.14,23.92-19.68,39.61-2.96,8.39-6.36,18.03-9.85,26.15-.26.61-.9,2.61-1.78,2.41-.42-.09-4.45-4.51-5.32-5.28-11.83-10.44-25.67-15.93-38.43-24.68-8.12-5.57-22.72-16.63-25.51-26.17-.74-2.54-.66-6.03-2.14-8.02-4.25-5.71-13.62,1.23-16.96,5.07-2.31,2.67-3.44,7.95-7.21,6.81-1.49-.45-8.27-5.69-9.92-7.02-7.54-6.04-13.05-12.3-17.82-20.72-2.07-3.64-2.45-8.35-8.36-7.12-3.03.63-5.46,6.18-6.31,8.93-1.02,3.27-.94,5.93-.23,9.28.66,3.08,5.11,9.21-.01,9.98-1.79.27-3.94-.98-5.39.52-1.78,1.83.15,9.77.84,12.28.88,3.23,3.71,5.72-1.71,5.52-10.22-.38-17.26-.68-26.99,3.47-17.27,7.37-16.8,22.93-29.11,34-2.26,2.03-5.11,3.72-7.41,5.72-4.89,4.27-9.76,8.59-14.19,13.35l-1.28.2c-3.23-16.19-9.53-32.42-20.54-44.9-3.74-4.24-17.01-16.94-22.46-16.87-.54,0-1.44.29-1.88.59-2.73,1.93,2.48,7.16.19,7.38-.43.04-6.38-2.35-8.11-2.5-4.27-.37-3.01,3.64-3.83,6.67-1.8,6.65-12.5,14.1-17.51,19.34-10.77,11.25-31.05,37.42-32.2,52.94-1.57,21.33,6.29,36.4,22.27,49.77,9.45,7.91,27.97,15.87,40.23,16.95,1.65.14,6.41-.37,7.41.21,1.11.65,1.91,9.52,1.69,11.23-5.84-.52-11.32-3.79-17.14-4.25-5.66-.45-14.31,1.27-19.25,4.07-6.29,3.56-12.73,10.18-12.32,17.97-7.17-4.72-14.56-9.12-23.29-5.29-2.38,1.04-4.87,3.74-7.46,4-2.13.21-4.95-.75-7.13-.84-12.91-.53-20.63,3.88-31.77,4.69-8.12.59-9.84-2.52-15.93-6.12-12.38-7.32-40.01-17.42-52.49-7.24-4.77,3.89-10.11,16.14-11.73,22.15-.69,2.53-.93,8.1-2.93,9.35-3.03,1.9-4.58.65-7.16,4.7-3.71,5.83-5.43,15.82-4.8,22.62.31,3.31,3.25,10.47,2.82,12.66-.55,2.8-5.66,11.06-7.19,14.43-11.74,25.84-15.84,45.07-11.23,73.64,4.27,26.42,16.32,52.9,40.67,66.07,1.29.7,3.66,1.11,4.51,1.84,1.07.92,2.64,6.59,3.46,8.4,3.94,8.68,10.27,15.11,19.32,18.38,2.35.85,8,1.64,9.4,2.46.78.46,2.12,2.9,2.97,3.8,9.2,9.8,22.73,13.44,34.2,4.96,1.93-1.43,3.03-2.55,2.66-5.18.53.16,3.3-.98,4.24-.85,1.65,2.7,5.5,4.19,2.97,7.84-5.31,7.63-8.96,7.76-10.53,18.69-2.22,15.38,1.75,31.54,20.48,30.22,1.98-.14,6.04-1.63,7.54-1.19.55.16,5.82,5.09,7.49,6.08,5.56,3.28,11.18,3.75,17.38,2.1,1.59-.42,7.32-3.17,7.85-3.15.44.01,4.54,2.51,5.91,2.96,8.24,2.69,25.77,1.69,33.55-2.48,3.42-1.83,10.44-8.81,13.06-11.93,1.51-1.8,5.54-9.16,6.39-9.71,1.07-.69,8.11-.67,9.6-.37,2.04.42,3.85,2.75,4.89,4.43,4.77,7.66,7.1,17.14,12.35,25.35,10.31,16.1,27.91,26.95,47.43,19.88,1.6-.58,4.95-2.72,6.17-2.69,1.49.04,7.01,2.57,9.1,3.13,8.99,2.4,20.09,2.87,28.79-.85,2.49-1.07,9.23-6.25,10.55-6.36.47-.04,5.05,2.86,7.5,3.14,7.57.87,19.41-5.61,22.4-12.67,3.31-7.8.4-18.14-3.52-25.27-3.24-5.89-11-11.21.97-12.02,5.41-.37,14.98,1.44,19.3,4.88,4.1,3.26,7.09,16.2,9.66,21.69,7.14,15.22,22.57,27.11,40.05,25.5,6.17-.57,11.83-3.75,18.23-2.87,1.86.26,3.41,1.61,5.22,1.98,2.65.54,7.25.78,10.07.94,7.37.41,13.42.79,19.47-4.24,2.31-1.92,4.67-6.83,7.58-6.74,2.5.07,2.35,1.16,5.77.19,18.28-5.19,17.59-32.12,9.49-45.5-5.54-9.15-15.01-13.39-23.05-19.94.42-1.13,3.2-2.12,4.24-2.12.89,0,1.88.76,2.8.84,1.71.15,8.82-4.72,10.33-6.13,1.5-1.39,3.13-3.66,4.41-5.33,8.6-11.25,14.57-24.5,16.99-38.49.95-1.65,5.23-.85,7.04-4.81,1.66-3.61.6-10.93-.72-14.68-.56-1.61-3.29-5.47-3.18-6.56.11-1.1,2.67-2.58,3.62-3.61,3.85-4.21,6.99-11.81,1.69-16.1-3.12-2.52-7.1-4.89-10.33-7.46-12.14-9.64-22.58-20.1-39.23-20.92-1.73-.08-4.65-.61-4.87,1.69-1.5-.77-5.33-.23-7.2-.85-.59-1.14-1.87-1.29-1.7-3.13.05-.55,3.21-7.21,3.74-8.17,1.42-2.58,8.18-10.78,10.67-11.78,4.26-1.71,7.48.54,11.66.22,7.56-.56,6.22-8.5,9.71-12.73,2.4-2.91,7.17-3.56,10.54-5.13,4.68-2.18,9.56-5.81,12.05-10.4.63-1.17,1.94-5.31,2.37-5.67.67-.56,3.75-1.04,4.89-1.46,27.13-10.12,36.94-28.92,37.73-57.14.1-3.59-.79-8.86-.45-11.89.19-1.67,1.58-3.71,2.01-5.61Z"/>
  <path d="M356.15,295.09c0-6,.75-11.45,2.25-16.35,1.5-4.9,4.2-9.55,8.1-13.95,3.9-4.4,9.35-8.8,16.35-13.2,6.6-4.2,11.5-7.85,14.7-10.95,3.2-3.1,5.25-5.95,6.15-8.55.9-2.6,1.35-5.2,1.35-7.8,0-4-1.85-7.2-5.55-9.6-3.7-2.4-8.55-3.6-14.55-3.6-7.4,0-15.4,1.3-24,3.9-8.6,2.6-17.8,6.5-27.6,11.7l-20.4-39.9c11-6.4,22.8-11.45,35.4-15.15,12.6-3.7,26.2-5.55,40.8-5.55,22.2,0,39.4,4.9,51.6,14.7,12.2,9.8,18.3,22.7,18.3,38.7,0,7.6-1.15,14.6-3.45,21-2.3,6.4-6,12.35-11.1,17.85-5.1,5.5-11.85,10.95-20.25,16.35-5.8,3.8-10.4,7-13.8,9.6-3.4,2.6-5.8,5.1-7.2,7.5-1.4,2.4-2.1,5.2-2.1,8.4v7.5h-45v-12.6ZM349.85,358.99c0-10.4,3-17.7,9-21.9s13.3-6.3,21.9-6.3,15.3,2.1,21.3,6.3,9,11.5,9,21.9c0,9.8-3,16.9-9,21.3-6,4.4-13.1,6.6-21.3,6.6-8.6,0-15.9-2.2-21.9-6.6-6-4.4-9-11.5-9-21.3Z"/>
  <g>
    <g>
      <rect class="cls-2" x="71.61" y="374.22" width="179" height="179" transform="translate(-302.61 624.83) rotate(-90)"/>
      <line class="cls-4" x1="66.74" y1="462.89" x2="256.74" y2="462.97"/>
      <line class="cls-4" x1="165.86" y1="558.26" x2="165.94" y2="368.26"/>
      <polygon class="cls-5" points="165.86 409.23 219.56 462.93 165.86 516.63 73.11 462.89 165.86 409.23"/>
    </g>
    <circle class="cls-3" cx="165.86" cy="585.8" r="29.18"/>
    <circle class="cls-3" cx="284.84" cy="463.05" r="29.18"/>
    <circle class="cls-3" cx="37.5" cy="462.89" r="29.18"/>
    <circle class="cls-3" cx="165.94" cy="339.47" r="29.18"/>
    <path class="cls-6" d="M284.84,432.7c-16.67,0-30.19,13.52-30.19,30.19s13.52,30.19,30.19,30.19,30.19-13.52,30.19-30.19-13.52-30.19-30.19-30.19ZM278.29,474.66c0,.86-.7,1.55-1.55,1.55h-1.03c-2.9,0-5.26-2.35-5.26-5.26v-3.23c0-2.9,2.35-5.26,5.26-5.26h1.03c.86,0,1.55.7,1.55,1.55v10.63ZM299.23,470.96c0,2.9-2.35,5.26-5.26,5.26h-1.03c-.86,0-1.55-.7-1.55-1.55v-10.63c0-.86.7-1.55,1.55-1.55h1.03c2.9,0,5.26,2.35,5.26,5.26v3.23ZM302.4,469.35c0,.43-.35.78-.78.78s-.78-.35-.78-.78v-4.3c0-10.49-6.88-18.41-16.01-18.41s-16.01,7.91-16.01,18.41v4.3c0,.43-.35.78-.78.78s-.78-.35-.78-.78v-4.3c0-11.38,7.55-19.96,17.56-19.96s17.56,8.58,17.56,19.96v4.3Z"/>
    <g>
      <circle class="cls-6" cx="38.79" cy="464.57" r="1.75"/>
      <circle class="cls-6" cx="24.55" cy="464.57" r="1.75"/>
      <circle class="cls-6" cx="31.67" cy="464.57" r="1.75"/>
      <path class="cls-6" d="M37.5,432.7c-16.67,0-30.19,13.52-30.19,30.19s13.52,30.19,30.19,30.19,30.19-13.52,30.19-30.19-13.52-30.19-30.19-30.19ZM36.4,474.38h-3.13c-1.35,4.09-6.24,5.05-8.34,5.27-.05,0-.1,0-.14,0-.45,0-.86-.22-1.12-.59-.27-.39-.31-.89-.11-1.32l1.16-3.61c-4.56-1.02-7.9-5.11-7.9-9.86,0-5.58,4.54-10.12,10.12-10.12h9.46c5.58,0,10.12,4.54,10.12,10.12s-4.54,10.12-10.12,10.12ZM50.27,466.82l1.16,3.61c.2.43.16.93-.11,1.32-.25.37-.67.59-1.12.59-.05,0-.09,0-.14,0-.91-.1-2.29-.32-3.67-.84-.38-.14-.57-.56-.42-.94.14-.38.57-.57.94-.42,1.15.44,2.32.64,3.13.74l-1.32-4.11c-.18-.18-.25-.45-.18-.7.08-.28.32-.49.61-.53,4.31-.55,7.56-4.24,7.56-8.58,0-4.78-3.89-8.66-8.66-8.66h-9.46c-2.98,0-5.72,1.51-7.32,4.03-.22.34-.67.44-1,.23-.34-.22-.44-.67-.23-1,1.87-2.95,5.06-4.71,8.55-4.71h9.46c5.58,0,10.12,4.54,10.12,10.12,0,4.76-3.33,8.84-7.9,9.86Z"/>
    </g>
    <path class="cls-6" d="M165.86,555.61c-16.67,0-30.19,13.52-30.19,30.19s13.52,30.19,30.19,30.19,30.19-13.52,30.19-30.19-13.52-30.19-30.19-30.19ZM166.72,578.31c0-.37.21-.71.55-.88l12.12-5.98c.65-.32,1.42.15,1.42.88v18.56c0,.37-.21.71-.55.88l-12.12,5.98c-.65.32-1.42-.15-1.42-.88v-18.56ZM150.91,572.34c0-.73.76-1.2,1.42-.88l12.12,5.98c.34.17.55.51.55.88v18.56c0,.73-.76,1.2-1.42.88l-12.12-5.98c-.34-.17-.55-.51-.55-.88v-18.56ZM184.92,593.88c0,.43-.24.81-.63,1l-17.95,8.63c-.15.07-.32.11-.48.11s-.33-.04-.48-.11l-17.95-8.63c-.38-.18-.63-.57-.63-1v-19.22c0-.61.5-1.11,1.11-1.11s1.11.5,1.11,1.11v18.53l16.84,8.1,16.84-8.1v-18.53c0-.61.5-1.11,1.11-1.11s1.11.5,1.11,1.11v19.22Z"/>
    <path class="cls-6" d="M165.94,309.28c-16.67,0-30.19,13.52-30.19,30.19s13.52,30.19,30.19,30.19,30.19-13.52,30.19-30.19-13.52-30.19-30.19-30.19ZM169.35,327.35l2.11,2.11-15.44,15.44-2.11-2.11,15.44-15.44ZM172.68,330.68l2.1,2.1-15.44,15.44-2.1-2.1,15.44-15.44ZM150.14,355.27l2.46-11.08,8.62,8.62-11.08,2.46ZM162.62,351.49l-2.07-2.07,15.44-15.44,2.07,2.07-15.44,15.44ZM180.74,333.29l-1.36,1.36-8.62-8.62,1.36-1.36c1.32-1.32,3.47-1.32,4.79,0l3.83,3.83c1.32,1.32,1.32,3.47,0,4.79Z"/>
  </g>
</svg>