<?xml version="1.0" encoding="UTF-8"?>
<svg id="Layer_1" data-name="Layer 1" xmlns="http://www.w3.org/2000/svg" xmlns:xlink="http://www.w3.org/1999/xlink" viewBox="0 0 615 449">
  <defs>
    <style>
      .cls-1, .cls-2 {
        fill: none;
      }

      .cls-3 {
        stroke: #231f20;
        stroke-width: 5px;
      }

      .cls-3, .cls-4, .cls-5 {
        fill: #fff;
      }

      .cls-3, .cls-4, .cls-2, .cls-6 {
        stroke-miterlimit: 10;
      }

      .cls-7, .cls-6 {
        fill: #98d4e2;
      }

      .cls-4, .cls-2 {
        stroke: #000;
      }

      .cls-8 {
        clip-path: url(#clippath);
      }

      .cls-6 {
        stroke: #1991bf;
      }
    </style>
    <clipPath id="clippath">
      <rect class="cls-1" width="615" height="449"/>
    </clipPath>
  </defs>
  <g class="cls-8">
    <g>
      <path class="cls-3" d="M474.62,50.98c-.59-1.2-2.76-3.82-2.84-4.79-.11-1.34,3.58-2.99,4.55-3.77,5.72-4.58,2.71-10.89-1.88-14.99-.62-.56-2.27-1.27-2.55-1.71-.24-.38.47-4.25.03-5.94-.39-1.53-2.33-3.92-3.64-4.83-5.93-4.14-14.98.27-18.56-3.04-.92-.85-1.04-1.92-2.28-2.8-6.5-4.66-17.52-.4-23.72,3.14-15.82,9.04-37.13,26.53-49.21,40.16-12.65,14.27-25.04,30.73-31.1,48.98-3.79-.9-6.2.39-8.7,3.13-.74.82-2.2,3.63-2.39,3.75-.48.31-2.41-.09-3.43.17-2.23.57-4.91,4.78-6.06,6.7-10.71-7.55-23.02-15.21-35.66-18.97-5.14-1.53-9.68-.48-11.64-6.57-.67-2.08-.93-4.71-1.15-6.9-.23-2.36.9-6.36-1.81-7.52-4.15-1.77-9.59,1.36-12.17,4.55-.66.81-1.21,2.86-1.98,3.12-2.6.88-5.99-3.85-6.39-6.19-1.44-8.44,8.98-13.09,15.86-10.37,3.13,1.24,5.31,4.67,9.24,1.36,5.43-4.57-1.7-15.65-5.72-19.29-7.02-6.37-21.33-6.64-30.06-4.23-18.05,4.99-30.81,26.13-20.33,43.42-6.74-.67-8.23,4.5-7.22,10.15-13.25,3.5-26.54,9.63-37.24,18.24-.39-2.66-2.64-5.54-5.27-6.38-1.07-.34-3.3-.3-3.56-.46-.29-.18-2.83-4.62-3.88-5.65-3.39-3.35-4.24-1.19-8.04-.21-.27-3.16-1.65-6.29-2.89-9.19-12.01-28.03-43.79-58.26-68.79-75.23-9.92-6.73-28.27-19.4-37.42-5.48-7.92-.44-21.14-2.56-21.65,8.76-.04.99.69,2.08.27,3.32-.2.59-4.08,2.84-5.01,3.89-4.61,5.17-2.28,10.61,2.34,14.6.75.65,2.41,1.15,2.33,1.89-5.61,10.42-9.06,21.82-11.58,33.37-2.74,12.57-4.73,28-3.67,40.81,3.32,40.32,12.52,73,43.6,100.43,9.09,8.02,22.01,14.7,34.3,15.04.43,9.49,11.76,10.28,19.07,8.7,3.56-.77,6.01-2.66,9.28-3.6.2,2.6,2.75,4.78,3.31,7.07.23.93.8,7.47.52,7.75-10.29-1.7-22.81,1.99-19.72,14.85.64,2.65,4.2,6.66,4.47,8.7.27,2.07-2.18,6.6-1.94,9.92.5,6.96,9.12,11.34,15.3,11.88.84.07,1.61-.46,2.43-.36,1.9.24,5.2,3.33,8.56,3.73,2.22.26,5.28,0,7.62,0,.13,0,.6-.58,1.06-.42.86,1.04-2.72,8.2-.18,11.83.67.96,3.35,1.86,3.54,2.42.58,1.72-1.92,4.9.21,8.66,1.54,2.71,6.21,2.96,6.8,3.79.37.52,1.41,5.25,1.9,6.57,1.97,5.3,4.61,9.54,8.06,13.96.74.95,3.94,4.02,4.22,4.68.29.71-.28.57-.54.72-3.22,1.88-5.36,2.76-7.43,6.13-3.37,5.48-2.84,10.12.6,15.35,2,3.04,2.81,1.76,4.65,3.4,1.08.96,1,2,1.68,2.98,1.84,2.63,7.79,5.32,10.98,5.54,2.12.15,4.77-.58,6.33-.44,3.86.36,7.8,2.08,12.74,2.03,9.38-.1,22.1-6.69,24.57-16.43.34-1.35.68-9.14,1.69-9.34,17.94,8.67,38.3,10.02,57.16,3.4,1.77-.62,6.7-3.23,7.96-3.27.41-.01,1.34.21,1.57.59.68,1.1.77,6.66,1.38,8.69,2.62,8.83,15.22,16.43,24.23,16,3.78-.18,6.73-2.16,9.35-2.52,3.15-.43,5.6.87,9.83-.31,5.24-1.46,4.7-3.65,7.73-5.82.77-.55,2.54-.8,3.66-1.42,9.02-4.98,6.42-14.59.34-20.85-.89-.92-4.05-2.95-4.05-3.59,4.44-5.92,10.88-12.6,12.61-20.04.33-1.43.46-6.49.73-6.89.82-1.24,6.95-.52,7.29-5.34.09-1.24-.85-4.58-.65-5.37.27-1.12,4.17-2.34,4.56-5.63.28-2.33-.68-5.49-1.24-7.8h7.83c5.37,0,8.6-3.15,12.8-4.56,2.06-.69,4.17-.57,6.28-1.35,4.21-1.54,8.59-6.35,9-10.95.18-2.06-.63-7.73-3.3-7.72-.29-.4,2.68-3.73,3.23-4.6,4.03-6.43,4.7-16.66-3.84-19.57-4.09-1.39-8.31-.31-12.5,0,.77-2.1-3.13-6.96-2.93-7.74.4-1.58,6.65-5.17,5.89-8.35,1.57-.07,2.52,1.16,4,1.72,6.61,2.47,14.36,4.41,20.34-.46,1.85-1.51,2.99-4.03,5-5.16,2.38-1.35,6.7-1.5,9.73-2.55,19.45-6.78,38.98-28.04,48.66-45.8,20.06-36.85,23.13-99.46,4.53-137.3Z"/>
      <path d="M220.48,255.42c0-6,.75-11.45,2.25-16.35,1.5-4.9,4.2-9.55,8.1-13.95,3.9-4.4,9.35-8.8,16.35-13.2,6.6-4.2,11.5-7.85,14.7-10.95,3.2-3.1,5.25-5.95,6.15-8.55.9-2.6,1.35-5.2,1.35-7.8,0-4-1.85-7.2-5.55-9.6-3.7-2.4-8.55-3.6-14.55-3.6-7.4,0-15.4,1.3-24,3.9-8.6,2.6-17.8,6.5-27.6,11.7l-20.4-39.9c11-6.4,22.8-11.45,35.4-15.15,12.6-3.7,26.2-5.55,40.8-5.55,22.2,0,39.4,4.9,51.6,14.7,12.2,9.8,18.3,22.7,18.3,38.7,0,7.6-1.15,14.6-3.45,21-2.3,6.4-6,12.35-11.1,17.85-5.1,5.5-11.85,10.95-20.25,16.35-5.8,3.8-10.4,7-13.8,9.6-3.4,2.6-5.8,5.1-7.2,7.5-1.4,2.4-2.1,5.2-2.1,8.4v7.5h-45v-12.6ZM214.18,319.32c0-10.4,3-17.7,9-21.9,6-4.2,13.3-6.3,21.9-6.3s15.3,2.1,21.3,6.3c6,4.2,9,11.5,9,21.9,0,9.8-3,16.9-9,21.3-6,4.4-13.1,6.6-21.3,6.6-8.6,0-15.9-2.2-21.9-6.6-6-4.4-9-11.5-9-21.3Z"/>
      <g>
        <g>
          <rect class="cls-4" x="362.5" y="205.95" width="179" height="179" transform="translate(747.45 -156.54) rotate(90)"/>
          <line class="cls-2" x1="546.37" y1="296.28" x2="356.37" y2="296.21"/>
          <line class="cls-2" x1="447.25" y1="200.92" x2="447.17" y2="390.92"/>
          <polygon class="cls-6" points="447.25 349.95 393.55 296.24 447.25 242.54 540 296.28 447.25 349.95"/>
        </g>
        <circle class="cls-5" cx="447.25" cy="418.46" r="29.18"/>
        <circle class="cls-5" cx="575.48" cy="296.44" r="29.18"/>
        <circle class="cls-5" cx="327.99" cy="296.28" r="29.18"/>
        <circle class="cls-5" cx="447.25" cy="171.13" r="29.18"/>
        <path class="cls-7" d="M575.48,266.09c-16.67,0-30.19,13.52-30.19,30.19s13.52,30.19,30.19,30.19,30.19-13.52,30.19-30.19-13.52-30.19-30.19-30.19ZM568.93,308.05c0,.86-.7,1.55-1.55,1.55h-1.03c-2.9,0-5.26-2.35-5.26-5.26v-3.23c0-2.9,2.35-5.26,5.26-5.26h1.03c.86,0,1.55.7,1.55,1.55v10.63ZM589.87,304.35c0,2.9-2.35,5.26-5.26,5.26h-1.03c-.86,0-1.55-.7-1.55-1.55v-10.63c0-.86.7-1.55,1.55-1.55h1.03c2.9,0,5.26,2.35,5.26,5.26v3.23ZM593.04,302.74c0,.43-.35.78-.78.78s-.78-.35-.78-.78v-4.3c0-10.49-6.88-18.41-16.01-18.41s-16.01,7.91-16.01,18.41v4.3c0,.43-.35.78-.78.78s-.78-.35-.78-.78v-4.3c0-11.38,7.55-19.96,17.56-19.96s17.56,8.58,17.56,19.96v4.3Z"/>
        <g>
          <circle class="cls-7" cx="329.29" cy="297.97" r="1.75"/>
          <circle class="cls-7" cx="315.05" cy="297.97" r="1.75"/>
          <circle class="cls-7" cx="322.17" cy="297.97" r="1.75"/>
          <path class="cls-7" d="M327.99,266.09c-16.67,0-30.19,13.52-30.19,30.19s13.52,30.19,30.19,30.19,30.19-13.52,30.19-30.19-13.52-30.19-30.19-30.19ZM326.9,307.77h-3.13c-1.35,4.09-6.24,5.05-8.34,5.27-.05,0-.1,0-.14,0-.45,0-.86-.22-1.12-.59-.27-.39-.31-.89-.11-1.32l1.16-3.61c-4.56-1.02-7.9-5.11-7.9-9.86,0-5.58,4.54-10.12,10.12-10.12h9.46c5.58,0,10.12,4.54,10.12,10.12s-4.54,10.12-10.12,10.12ZM340.77,300.21l1.16,3.61c.2.43.16.93-.11,1.32-.25.37-.67.59-1.12.59-.05,0-.09,0-.14,0-.91-.1-2.29-.32-3.67-.84-.38-.14-.57-.56-.42-.94.14-.38.57-.57.94-.42,1.15.44,2.32.64,3.13.74l-1.32-4.11c-.18-.18-.25-.45-.18-.7.08-.28.32-.49.61-.53,4.31-.55,7.56-4.24,7.56-8.58,0-4.78-3.89-8.66-8.66-8.66h-9.46c-2.98,0-5.72,1.51-7.32,4.03-.22.34-.67.44-1,.23-.34-.22-.44-.67-.23-1,1.87-2.95,5.06-4.71,8.55-4.71h9.46c5.58,0,10.12,4.54,10.12,10.12,0,4.76-3.33,8.84-7.9,9.86Z"/>
        </g>
        <path class="cls-7" d="M447.25,388.27c-16.67,0-30.19,13.52-30.19,30.19s13.52,30.19,30.19,30.19,30.19-13.52,30.19-30.19-13.52-30.19-30.19-30.19ZM448.11,410.97c0-.37.21-.71.55-.88l12.12-5.98c.65-.32,1.42.15,1.42.88v18.56c0,.37-.21.71-.55.88l-12.12,5.98c-.65.32-1.42-.15-1.42-.88v-18.56ZM432.31,404.99c0-.73.76-1.2,1.42-.88l12.12,5.98c.34.17.55.51.55.88v18.56c0,.73-.76,1.2-1.42.88l-12.12-5.98c-.34-.17-.55-.51-.55-.88v-18.56ZM466.31,426.53c0,.43-.24.81-.63,1l-17.95,8.63c-.15.07-.32.11-.48.11s-.33-.04-.48-.11l-17.95-8.63c-.38-.18-.63-.57-.63-1v-19.22c0-.61.5-1.11,1.11-1.11s1.11.5,1.11,1.11v18.53l16.84,8.1,16.84-8.1v-18.53c0-.61.5-1.11,1.11-1.11s1.11.5,1.11,1.11v19.22Z"/>
        <path class="cls-7" d="M447.25,140.94c-16.67,0-30.19,13.52-30.19,30.19s13.52,30.19,30.19,30.19,30.19-13.52,30.19-30.19-13.52-30.19-30.19-30.19ZM450.67,159.01l2.11,2.11-15.44,15.44-2.11-2.11,15.44-15.44ZM453.99,162.33l2.1,2.1-15.44,15.44-2.1-2.1,15.44-15.44ZM431.46,186.92l2.46-11.08,8.62,8.62-11.08,2.46ZM443.94,183.15l-2.07-2.07,15.44-15.44,2.07,2.07-15.44,15.44ZM462.06,164.95l-1.36,1.36-8.62-8.62,1.36-1.36c1.32-1.32,3.47-1.32,4.79,0l3.83,3.83c1.32,1.32,1.32,3.47,0,4.79Z"/>
      </g>
    </g>
  </g>
</svg>