<?xml version="1.0" encoding="UTF-8"?>
<svg id="Layer_1" data-name="Layer 1" xmlns="http://www.w3.org/2000/svg" viewBox="0 0 752 310">
  <defs>
    <style>
      .cls-1 {
        fill: #f89f33;
      }

      .cls-2 {
        fill: none;
        stroke: #fff;
        stroke-miterlimit: 10;
        stroke-width: 4px;
      }

      .cls-3 {
        fill: #fff;
      }
    </style>
  </defs>
  <g>
    <polyline class="cls-1" points="0 0 752 0 752 310"/>
    <line class="cls-2" x1="371" y1="154.99" x2="752" y2="154.99"/>
    <line class="cls-2" x1="11.64" y1="35.99" x2="752" y2="35.99"/>
  </g>
  <g>
    <path class="cls-3" d="M449.87,144.62h-55.12V51.8h55.12v20.15h-30.03v14.56h27.82v20.15h-27.82v17.55h30.03v20.41Z"/>
    <path class="cls-3" d="M507.46,71.04c-2.95,0-5.59.63-7.93,1.89-2.34,1.26-4.33,3.08-5.98,5.46-1.65,2.38-2.91,5.26-3.77,8.65-.87,3.38-1.3,7.24-1.3,11.57,0,5.81.74,10.7,2.21,14.69,1.47,3.99,3.73,7,6.76,9.04,3.03,2.04,6.85,3.05,11.44,3.05,4.07,0,8.04-.56,11.89-1.69,3.86-1.12,7.74-2.51,11.63-4.16v21.19c-4.07,1.82-8.25,3.14-12.54,3.96-4.29.82-8.86,1.23-13.71,1.23-10.05,0-18.29-1.99-24.7-5.98-6.42-3.99-11.14-9.55-14.17-16.7-3.04-7.15-4.55-15.41-4.55-24.77,0-7.02.97-13.46,2.93-19.31,1.95-5.85,4.83-10.92,8.64-15.21,3.81-4.29,8.51-7.6,14.11-9.94,5.59-2.34,12.02-3.51,19.3-3.51,4.5,0,9.23.52,14.17,1.56,4.94,1.04,9.79,2.69,14.56,4.94l-7.67,19.76c-3.38-1.65-6.8-3.01-10.27-4.1-3.47-1.08-7.15-1.62-11.05-1.62Z"/>
    <path class="cls-3" d="M630.05,144.62h-25.22v-37.83h-29.12v37.83h-25.22V51.8h25.22v34.45h29.12v-34.45h25.22v92.82Z"/>
    <path class="cls-3" d="M736.91,98.08c0,7.19-.87,13.71-2.6,19.56-1.73,5.85-4.42,10.9-8.06,15.15-3.64,4.25-8.3,7.5-13.98,9.75-5.68,2.25-12.5,3.38-20.47,3.38s-14.54-1.13-20.21-3.38c-5.68-2.25-10.36-5.5-14.04-9.75-3.68-4.25-6.42-9.29-8.19-15.15-1.78-5.85-2.66-12.42-2.66-19.69,0-9.62,1.6-18,4.81-25.16,3.21-7.15,8.15-12.67,14.82-16.57s15.21-5.85,25.61-5.85,19.17,1.97,25.8,5.92c6.63,3.94,11.48,9.49,14.56,16.64,3.08,7.15,4.62,15.53,4.62,25.15ZM673.08,98.08c0,5.55.63,10.33,1.88,14.37,1.25,4.03,3.27,7.13,6.05,9.29,2.77,2.17,6.37,3.25,10.79,3.25s8.26-1.08,10.99-3.25c2.73-2.17,4.7-5.27,5.92-9.29,1.21-4.03,1.82-8.82,1.82-14.37,0-8.41-1.39-15.04-4.16-19.89-2.78-4.85-7.58-7.28-14.43-7.28-4.51,0-8.15,1.1-10.92,3.31-2.78,2.21-4.79,5.33-6.05,9.36-1.26,4.03-1.88,8.86-1.88,14.5Z"/>
  </g>
  <g>
    <path class="cls-3" d="M660.63,173.98h20.49v4.35h-8.01v11.19h10.08v4.32h-24.63v-4.32h9.84v-11.19h-7.77v-4.35Z"/>
    <path class="cls-3" d="M708.06,174.01v21.12h-4.77v-1.5h-16.8v-4.32h16.8v-10.98h-16.56v-4.32h21.33Z"/>
    <path class="cls-3" d="M713.05,180.67h25.05v4.56h-23.73c-.21.3-.63.51-1.08.57l-.24-5.13Z"/>
  </g>
</svg>