<?xml version="1.0" encoding="UTF-8"?>
<svg id="Layer_1" data-name="Layer 1" xmlns="http://www.w3.org/2000/svg" viewBox="0 0 752 310">
  <defs>
    <style>
      .cls-1 {
        fill: #f89f33;
      }

      .cls-2 {
        fill: none;
        stroke: #fff;
        stroke-miterlimit: 10;
        stroke-width: 4px;
      }

      .cls-3 {
        fill: #fff;
      }
    </style>
  </defs>
  <polyline class="cls-1" points="0 0 752 0 752 310"/>
  <g>
    <path class="cls-3" d="M506.62,170.01c-2.86,0-5.35-.13-7.48-.39-2.12-.26-3.96-.56-5.52-.91v-19.5c1.39.26,2.84.54,4.35.85,1.52.3,3.14.46,4.88.46,3.03,0,5.37-.61,7.02-1.82,1.64-1.21,2.81-3.05,3.51-5.52.69-2.47,1.04-5.52,1.04-9.17V48.07h25.22v83.72c0,9.27-1.41,16.73-4.22,22.36-2.82,5.63-6.7,9.69-11.63,12.16-4.94,2.47-10.66,3.71-17.16,3.71Z"/>
    <path class="cls-3" d="M646.5,94.35c0,7.19-.87,13.71-2.6,19.56-1.74,5.85-4.42,10.9-8.06,15.15-3.64,4.25-8.3,7.5-13.98,9.75-5.68,2.25-12.5,3.38-20.47,3.38s-14.54-1.13-20.22-3.38c-5.68-2.25-10.36-5.5-14.04-9.75-3.69-4.25-6.42-9.29-8.19-15.15-1.78-5.85-2.67-12.42-2.67-19.69,0-9.62,1.6-18,4.81-25.16,3.21-7.15,8.14-12.67,14.82-16.57,6.67-3.9,15.21-5.85,25.61-5.85s19.17,1.97,25.8,5.92c6.63,3.94,11.48,9.49,14.56,16.64,3.08,7.15,4.62,15.53,4.62,25.15ZM582.67,94.35c0,5.55.63,10.33,1.88,14.37,1.25,4.03,3.27,7.13,6.04,9.29,2.77,2.17,6.37,3.25,10.79,3.25s8.25-1.08,10.99-3.25c2.73-2.17,4.7-5.27,5.91-9.29,1.21-4.03,1.82-8.82,1.82-14.37,0-8.41-1.39-15.04-4.16-19.89-2.77-4.85-7.58-7.28-14.43-7.28-4.51,0-8.15,1.1-10.92,3.31-2.78,2.21-4.79,5.33-6.04,9.36-1.26,4.03-1.88,8.86-1.88,14.5Z"/>
    <path class="cls-3" d="M700.31,140.89h-25.09v-72.28h-22.62v-20.54h70.33v20.54h-22.62v72.28Z"/>
  </g>
  <g>
    <path class="cls-3" d="M635.55,176.37c2.67.72,5.55,1.8,7.5,2.82l-1.98,3.93c-1.92-1.02-4.92-2.28-7.5-3.03l1.98-3.72ZM635.94,190.02c8.94-2.64,15.66-7.38,19.8-16.23.9.81,3.03,2.4,3.99,3-4.11,8.4-11.58,14.16-19.95,16.89.06.3-.09.66-.51.87l-3.33-4.53ZM639.3,169.02c2.67.81,5.49,1.89,7.59,2.97l-2.25,3.84c-2.13-1.23-4.77-2.4-7.41-3.27l2.07-3.54ZM652.77,168.06c1.17,1.08,2.61,2.85,3.36,4.11l-2.13,1.59c-.63-1.08-2.28-3.21-3.24-4.17l2.01-1.53ZM657.51,166.47c1.17,1.11,2.64,2.88,3.39,4.02l-2.13,1.59c-.69-1.14-2.25-3.09-3.24-4.08l1.98-1.53Z"/>
    <path class="cls-3" d="M677.73,175.83v18.66h-3.6v-1.17h-12.45v-3.33h12.45v-3.69h-11.1v-3.33h11.1v-3.81h-11.76v-3.33h15.36Z"/>
    <path class="cls-3" d="M685.89,175.98c.81,1.77,1.68,4.5,2.07,6.3l-3.48.99c-.39-1.92-1.17-4.5-1.98-6.33l3.39-.96ZM703.14,176.91c-.09.24-.39.45-.81.42-2.49,8.88-7.29,14.04-13.89,16.74-.48-.75-1.65-2.16-2.49-2.85,6.06-2.19,10.77-6.9,12.69-15.78l4.5,1.47ZM693,174.81c.63,1.74,1.23,4.62,1.47,6.51l-3.69.78c-.24-2.01-.87-4.74-1.47-6.57l3.69-.72Z"/>
    <path class="cls-3" d="M722.61,185.34c-2.25-1.35-6.03-3.18-8.85-4.32v13.56h-4.89v-26.52l5.85.3c-.03.36-.3.69-.96.81v8.28l.87-1.2c3.21,1.14,7.65,3.06,10.53,4.59l-2.55,4.5Z"/>
  </g>
  <line class="cls-2" x1="369" y1="154.99" x2="752" y2="154.99"/>
  <line class="cls-2" x1="11.64" y1="35.99" x2="752" y2="35.99"/>
</svg>