<?xml version="1.0" encoding="UTF-8"?>
<svg id="Layer_1" data-name="Layer 1" xmlns="http://www.w3.org/2000/svg" viewBox="0 0 752 310">
  <defs>
    <style>
      .cls-1 {
        fill: #f89f33;
      }

      .cls-2 {
        fill: none;
        stroke: #fff;
        stroke-miterlimit: 10;
        stroke-width: 4px;
      }

      .cls-3 {
        fill: #fff;
      }
    </style>
  </defs>
  <polyline class="cls-1" points="752 0 0 0 0 310"/>
  <g>
    <path class="cls-3" d="M54.38,51.8c13.43,0,23.01,2,28.73,5.98,5.72,3.99,8.58,9.71,8.58,17.16,0,4.08-.74,7.52-2.21,10.33-1.47,2.82-3.32,5.05-5.53,6.7-2.21,1.65-4.48,2.77-6.83,3.38v.65c2.51.61,5.03,1.65,7.54,3.12,2.51,1.47,4.62,3.66,6.3,6.56,1.69,2.91,2.54,6.83,2.54,11.77,0,5.63-1.43,10.49-4.29,14.56-2.86,4.08-6.94,7.19-12.22,9.36-5.29,2.17-11.57,3.25-18.85,3.25H22.01V51.8h32.37ZM54.64,87.42c4.16,0,7.08-.87,8.77-2.6,1.69-1.73,2.54-3.81,2.54-6.24s-.96-4.44-2.86-5.79c-1.91-1.34-4.9-2.01-8.97-2.01h-7.02v16.64h7.54ZM47.1,105.75v19.5h8.84c4.33,0,7.37-.93,9.1-2.79,1.73-1.86,2.6-4.23,2.6-7.08,0-1.65-.37-3.21-1.11-4.68-.74-1.47-1.99-2.67-3.77-3.57-1.78-.91-4.23-1.37-7.35-1.37h-8.32Z"/>
    <path class="cls-3" d="M186.59,98.08c0,7.19-.87,13.71-2.6,19.56-1.74,5.85-4.42,10.9-8.06,15.15-3.64,4.25-8.3,7.5-13.98,9.75-5.68,2.25-12.5,3.38-20.47,3.38s-14.54-1.13-20.22-3.38c-5.68-2.25-10.36-5.5-14.04-9.75-3.69-4.25-6.42-9.29-8.19-15.15-1.78-5.85-2.67-12.42-2.67-19.69,0-9.62,1.6-18,4.81-25.16,3.21-7.15,8.14-12.67,14.82-16.58,6.67-3.9,15.21-5.85,25.61-5.85s19.17,1.97,25.8,5.92c6.63,3.94,11.48,9.49,14.56,16.64,3.08,7.15,4.62,15.54,4.62,25.16ZM122.76,98.08c0,5.55.63,10.33,1.88,14.37,1.25,4.03,3.27,7.13,6.04,9.29,2.77,2.17,6.37,3.25,10.79,3.25s8.25-1.08,10.99-3.25c2.73-2.17,4.7-5.27,5.91-9.29,1.21-4.03,1.82-8.82,1.82-14.37,0-8.41-1.39-15.04-4.16-19.89-2.77-4.85-7.58-7.28-14.43-7.28-4.51,0-8.15,1.1-10.92,3.31-2.78,2.21-4.79,5.33-6.04,9.36-1.26,4.03-1.88,8.86-1.88,14.5Z"/>
    <path class="cls-3" d="M280.32,98.08c0,7.19-.87,13.71-2.6,19.56-1.73,5.85-4.42,10.9-8.06,15.15-3.64,4.25-8.3,7.5-13.98,9.75-5.68,2.25-12.5,3.38-20.47,3.38s-14.54-1.13-20.21-3.38c-5.68-2.25-10.36-5.5-14.04-9.75-3.68-4.25-6.42-9.29-8.19-15.15-1.78-5.85-2.66-12.42-2.66-19.69,0-9.62,1.6-18,4.81-25.16,3.21-7.15,8.15-12.67,14.82-16.58,6.67-3.9,15.21-5.85,25.61-5.85s19.17,1.97,25.8,5.92c6.63,3.94,11.48,9.49,14.56,16.64,3.08,7.15,4.62,15.54,4.62,25.16ZM216.49,98.08c0,5.55.63,10.33,1.88,14.37,1.25,4.03,3.27,7.13,6.05,9.29,2.77,2.17,6.37,3.25,10.79,3.25s8.26-1.08,10.99-3.25c2.73-2.17,4.7-5.27,5.92-9.29,1.21-4.03,1.82-8.82,1.82-14.37,0-8.41-1.39-15.04-4.16-19.89-2.78-4.85-7.58-7.28-14.43-7.28-4.51,0-8.15,1.1-10.92,3.31-2.78,2.21-4.79,5.33-6.05,9.36-1.26,4.03-1.88,8.86-1.88,14.5Z"/>
    <path class="cls-3" d="M327.64,144.62l-18.98-66.82h-.52c.17,1.73.35,4.08.52,7.02.17,2.95.35,6.13.52,9.55.17,3.42.26,6.74.26,9.95v40.3h-22.23V51.8h33.41l19.37,65.91h.52l18.98-65.91h33.41v92.82h-23.01v-40.69c0-2.95.04-6.09.13-9.42.08-3.33.22-6.5.39-9.49s.3-5.35.39-7.08h-.52l-18.72,66.69h-23.92Z"/>
  </g>
  <line class="cls-2" x1="376" y1="158.71" y2="158.71"/>
  <line class="cls-2" x1="740.36" y1="39.71" y2="39.71"/>
  <g>
    <path class="cls-3" d="M30.72,168.85c1.17,1.02,2.67,2.7,3.42,3.81l-.84.66,3.51,1.68c-.15.24-.39.48-.69.6-2.82,11.19-7.71,17.4-17.58,21.36-.84-1.23-2.22-2.85-3.15-3.78,9.15-3.18,13.47-9,14.88-15.27H13.47v-4.32h18.15c-.75-1.05-1.98-2.55-2.82-3.36l1.92-1.38ZM37.41,173.89c-.63-1.02-2.31-2.94-3.3-3.9l1.89-1.53c1.2,1.02,2.7,2.73,3.45,3.84l-2.04,1.59Z"/>
    <path class="cls-3" d="M41.28,180.67h25.05v4.56h-23.73c-.21.3-.63.51-1.08.57l-.24-5.13Z"/>
    <path class="cls-3" d="M91.11,196.24c-.48-1.26-.93-2.34-1.41-3.3-6.69.81-14.04,1.47-18.42,1.68-.09.33-.36.63-.69.66l-1.5-5.28c.87,0,1.92-.03,3.06-.06,1.77-5.49,4.14-13.83,5.43-19.44l5.76,1.47c-.09.33-.48.57-.99.6-1.35,4.83-3.48,11.58-5.4,17.22,2.85-.12,7.92-.51,10.68-.81-1.11-1.95-2.34-3.78-3.51-5.22l3.87-2.1c2.91,3.42,5.97,8.73,7.65,12.36l-4.53,2.22Z"/>
  </g>
</svg>