<?xml version="1.0" encoding="UTF-8"?>
<svg id="Layer_1" data-name="Layer 1" xmlns="http://www.w3.org/2000/svg" viewBox="0 0 752 310">
  <defs>
    <style>
      .cls-1 {
        fill: #f89f33;
      }

      .cls-2 {
        fill: none;
        stroke: #fff;
        stroke-miterlimit: 10;
        stroke-width: 4px;
      }

      .cls-3 {
        fill: #fff;
      }
    </style>
  </defs>
  <polyline class="cls-1" points="752 0 0 0 0 310"/>
  <g>
    <path class="cls-3" d="M62.96,144.62h-25.09v-72.28H15.25v-20.54h70.33v20.54h-22.62v72.28Z"/>
    <path class="cls-3" d="M146.68,144.62l-4.55-17.42h-30.16l-4.68,17.42h-27.56l30.29-93.21h33.41l30.68,93.21h-27.43ZM132.9,91.45c-.43-1.65-1.04-4.01-1.82-7.08-.78-3.08-1.56-6.26-2.34-9.56-.78-3.29-1.39-5.98-1.82-8.06-.35,2.08-.89,4.68-1.62,7.8-.74,3.12-1.47,6.2-2.21,9.23-.74,3.03-1.36,5.59-1.88,7.67l-4.03,15.21h19.76l-4.03-15.21Z"/>
    <path class="cls-3" d="M184.12,144.62V51.8h25.09v72.54h35.75v20.28h-60.84Z"/>
    <path class="cls-3" d="M314.9,144.62h-55.12V51.8h55.12v20.15h-30.03v14.56h27.82v20.15h-27.82v17.55h30.03v20.41Z"/>
  </g>
  <line class="cls-2" x1="375" y1="158.71" y2="158.71"/>
  <line class="cls-2" x1="740.36" y1="39.71" y2="39.71"/>
  <g>
    <path class="cls-3" d="M37.77,183.52l-9.09.03.66.18c-.09.21-.33.42-.75.42-.81,4.59-2.67,9.42-8.88,12.6-.69-.75-2.58-2.4-3.54-3.09,5.73-3,7.05-6.09,7.56-10.14h-10.26v-4.23h24.3v4.23ZM34.68,175.24h-18.45v-4.23h18.45v4.23Z"/>
    <path class="cls-3" d="M51.21,183.25c-2.43,1.59-6.33,3.72-9.24,5.1-.6-1.02-1.83-2.67-2.76-3.51,7.65-3.33,16.65-9.48,21.15-14.85l4.5,3.3c-.18.24-.51.39-1.02.36-2.34,2.25-5.07,4.56-7.89,6.63l1.08.36c-.09.3-.39.57-.96.66v15.42h-4.86v-13.47Z"/>
    <path class="cls-3" d="M74.58,174.7c-.03.36-.3.66-.81.72-.12,8.85-1.02,15.63-4.89,21.3-1.05-.69-2.82-1.71-4.11-2.37,3.78-4.56,4.32-12.48,4.26-19.98l5.55.33ZM82.26,189.49c3.57-2.13,5.64-6.03,6.81-10.38.93.78,3.03,1.98,4.11,2.52-2.16,6.24-5.58,10.59-11.91,13.83-.18.33-.51.63-.78.81l-3.42-3.96.54-.72v-20.97l5.58.27c-.06.36-.3.69-.93.81v17.79Z"/>
  </g>
</svg>