<?xml version="1.0" encoding="UTF-8"?>
<svg id="Layer_1" xmlns="http://www.w3.org/2000/svg" version="1.1" viewBox="0 0 500 500">
  <!-- Generator: Adobe Illustrator 29.0.0, SVG Export Plug-In . SVG Version: 2.1.0 Build 186)  -->
  <defs>
    <style>
      .st0 {
        fill: #b2824c;
      }

      .st1 {
        fill: #e84b3b;
      }

      .st2 {
        fill: #555568;
      }

      .st3 {
        fill: #303656;
      }

      .st4 {
        fill: #fff;
      }

      .st5 {
        fill: #b1ae44;
      }

      .st6 {
        fill: #fefefe;
      }

      .st7 {
        fill: #b28146;
      }

      .st8 {
        fill: #fdfefe;
      }
    </style>
  </defs>
  <g>
    <g>
      <path class="st1" d="M445,455.4c.4-.2.8-.3,1.2-.4.2,0,.4-.1.5-.2h.4c.5-.1,1-.3,1.6-.3h0c.9-.1,1.8-.3,2.8-.3,1.5,0,2.9.2,4.1.5,1.3.3,2.6.8,3.6,1.4h0c.4.2.7.4,1,.6h0c.3.2.7.4,1,.7.3-.2.6-.5,1-.7.3-.2.7-.4,1-.6h0c1.1-.6,2.2-1.1,3.6-1.4,1.3-.3,2.7-.5,4.2-.5s2,.1,3,.3h0c.2,0,.5,0,.7.1.4,0,.7.2,1.1.3.1,0,.2,0,.4.1.4.1.9.3,1.3.5.2-.4.4-.9.7-1.3h0c3.9-8,7.7-18.3,9-23h-.5v-17.7c0-9.3-4.2-16.6-9.6-16.6s-4.1,1.2-5.7,3.2v-2.2c0-9.3-4.2-16.6-9.6-16.6s-9.6,7.3-9.6,16.6,0,1.3,0,2v.4c-1.6-2.1-3.6-3.4-5.9-3.4-5.4,0-9.6,7.3-9.6,16.6v19.4l-.8.2c1.4,4.9,4.8,14.2,8.9,22.3h.2ZM445.9,453.2c-1-2-1.9-4.1-2.8-6.2,1,.2,2.2.3,3.4.3,3.1,0,5.8-.7,7.5-1.8v6.9c-.8,0-1.6-.2-2.4-.2-1.9,0-3.8.3-5.6.9h-.1ZM467.5,413.5v24.1c-1.5.7-3.5,1-5.7,1s-4.3-.4-5.8-1.1v-26.5c1.6,2.1,3.7,3.4,5.9,3.4s4.2-1.2,5.8-3.2v2.2h-.2ZM456,439.2c1.6.6,3.7,1,5.8,1s4.1-.3,5.7-.9v13.4c-2.1.4-3.9,1.1-5.4,2h-1.7c-1.3-.7-2.8-1.4-4.4-1.8v-13.6h0ZM477.1,399c4.1,0,7.5,6.6,7.5,14.5s-3.4,14.5-7.5,14.5-7.5-6.6-7.5-14.5,3.4-14.5,7.5-14.5ZM469.6,424c1.8,3.7,4.4,6.1,7.5,6.1s5.7-2.3,7.5-6.1v9.5c-1.1,3.2-2.7,7.6-4.5,12-.9.2-1.9.3-3,.3-3.7,0-6.6-1.1-7.5-2.3v-19.5h0ZM477.1,447.3c.8,0,1.6,0,2.3-.1-.9,2.1-1.8,4.1-2.7,6-1.8-.6-3.6-.9-5.6-.9s-1,0-1.4,0v-6.8c1.7,1.1,4.3,1.8,7.5,1.8h0ZM461.8,383.5c4.1,0,7.5,6.6,7.5,14.5s-3.4,14.5-7.5,14.5-7.5-6.6-7.5-14.5,3.4-14.5,7.5-14.5ZM446.4,399c4.1,0,7.5,6.6,7.5,14.5s-3.4,14.5-7.5,14.5-7.5-6.6-7.5-14.5,3.4-14.5,7.5-14.5ZM446.4,430c3.1,0,5.7-2.3,7.5-6.1v19.5c-.9,1.2-3.8,2.3-7.5,2.3s-2.9-.2-4.1-.5c-1.3-3.2-2.5-6.3-3.4-8.9v-12.4c1.8,3.7,4.4,6.1,7.5,6.1h0Z"/>
      <path class="st1" d="M438.4,466.9v.5h4c2.6,0,5-.4,7.2-1.3-1.8-2.4-3.6-5.4-5.3-8.6-3.7,2.2-5.9,5.9-5.9,9.4h0ZM442.4,465.6h-2.1c.4-2,1.5-4,3.4-5.5,1,1.8,2,3.5,3.1,5-1.4.3-2.8.4-4.3.4h-.1Z"/>
      <path class="st1" d="M451.2,477.1c3,0,5.7-.4,8.4-1.5-2.7-1.7-5.4-4.1-8.4-7.5-.2-.2-.4-.5-.6-.7-2.5,1-5.2,1.5-8.2,1.5h-3.7c1.3,4.4,6.8,8.2,12.5,8.2h0ZM442.4,470.7c2.8,0,5.3-.4,7.7-1.2,1.9,2.2,3.8,3.9,5.6,5.4-1.4.3-2.9.4-4.4.4-4.1,0-7.7-2.1-9.6-4.6h.7,0Z"/>
      <path class="st1" d="M484.2,466.9c0-3.5-2.2-7.3-5.9-9.4-1.7,3.2-3.5,6.2-5.3,8.6,2.2.8,4.6,1.3,7.2,1.3h4v-.5h0ZM480.2,465.6c-1.5,0-3-.1-4.3-.4,1-1.6,2.1-3.3,3.1-5,1.8,1.5,3,3.5,3.4,5.5h-2.2Z"/>
      <path class="st1" d="M470.1,467.1c.1-.1.2-.2.3-.4-1.6-.8-3.1-1.8-4.6-3.1-.5-.5-1.1-1-1.7-1.6s-1.8-1.8-2.9-2.7c-1.1.9-2,1.8-2.9,2.7-.6.6-1.2,1.2-1.7,1.6-1.5,1.3-3,2.3-4.6,3.1.1.1.2.2.3.4,3.3,3.8,6.2,6.2,8.9,7.7,2.7-1.5,5.5-3.9,8.9-7.7h0ZM454.9,467.2c1-.7,2-1.4,3-2.2.6-.5,1.2-1.1,1.8-1.7.5-.5,1-1,1.6-1.5.6.5,1.1,1,1.6,1.5s1.2,1.2,1.8,1.7c1,.8,2,1.6,3,2.2-2.3,2.5-4.4,4.2-6.4,5.5-2-1.2-4-3-6.4-5.5Z"/>
      <path class="st1" d="M483.9,468.9h-3.7c-3,0-5.7-.5-8.2-1.5-.2.3-.4.5-.6.7-3,3.4-5.7,5.8-8.4,7.5,2.7,1.2,5.4,1.5,8.4,1.5,5.7,0,11.2-3.8,12.5-8.2h0ZM472.5,469.5c2.4.8,4.9,1.2,7.7,1.2h.7c-1.9,2.5-5.5,4.6-9.6,4.6s-3-.1-4.4-.4c1.8-1.5,3.6-3.2,5.6-5.4h0Z"/>
      <path class="st1" d="M456.8,456.6c-.4-.1-.7-.3-1.1-.4h0c-.4,0-.7-.2-1.1-.3h-.2c-.3,0-.7-.1-1.1-.1h-3.6c-.3,0-.5,0-.8.1-1.1.2-2.2.5-3.1.9,1.7,3.3,3.6,6.3,5.4,8.7,1.6-.8,3.1-1.8,4.6-3.1.5-.4,1-.9,1.6-1.5s1.7-1.7,2.7-2.6c-1-.7-2-1.3-3.2-1.7h-.1ZM456,459.6l-1.5,1.5c-1,.8-1.9,1.5-2.9,2.1-1.1-1.6-2.2-3.4-3.3-5.4,1-.2,2-.4,3.2-.4,2.2,0,4,.5,5.5,1.2l-1,1h0Z"/>
      <path class="st1" d="M486.7,450v-7.2c1.7-4.3,3-8.3,3.7-10.8l-1.7-.5c-.6,2-1.5,5-2.8,8.3-1.7,4.5-3.8,9.7-6,14.2-.3.5-.5,1.1-.8,1.6,0,.1-.1.3-.2.4,3.9,2.1,6.8,5.9,6.8,10.8s0,.3,0,.5h4.9v1.6h-5.1c-1.3,5.3-7.5,9.8-14.2,9.8s-7-.7-10.1-2.2c-3.1,1.5-6.3,2.2-10.1,2.2-6.7,0-12.9-4.4-14.2-9.8h-4v-1.6h3.8v-.5c0-4.1,2.5-8.4,6.7-10.8h0c-.4-.8-.7-1.5-1-2.2h0c-.3-.7-.6-1.3-.9-2-.4-.8-.7-1.6-1.1-2.3-2.7-6.2-4.9-12.3-6-16.1l-1.7.5c.8,2.9,2.2,7,4,11.5v4.6c-4.5.8-5,1.7-5,2.7v41.7c0,3.5,10.6,4.8,19.4,5.3.1,0,.3.1.4.1h.3c4.4.2,8.1.3,9.8.3,5,0,30-.3,30-5.6v-41.7c0-1-.5-1.9-5.1-2.7h.2ZM439.6,452.1c.2.5.5,1,.7,1.5-.5,0-1-.1-1.4-.2v-1.3h.7,0ZM436.8,452.5v.6c-.6-.1-1.1-.2-1.5-.3.4-.1.9-.2,1.5-.3h0ZM440.9,455.7c-3.1,2.3-5.4,5.7-5.8,9.9h-.8v-11c1.3.4,3.4.8,6.6,1.1h0ZM440.9,496.2c-3.7-.6-6-1.3-6.6-1.9v-6.6c1.3.6,3.4,1.1,6.6,1.6v6.9ZM450.7,497.2c-2.9-.2-5.5-.4-7.7-.7v-6.9c2.3.3,4.9.5,7.7.7v6.9h0ZM477.2,496.9c-4.2.4-9.4.7-15.4.7s-6.3,0-9.1-.2v-6.9c2.9.1,6,.2,9.1.2,5.5,0,10.8-.2,15.4-.7v6.9ZM489.4,494.3c-.7.8-4.3,1.7-10.1,2.4v-6.9c1.1-.1,2.1-.3,3.1-.4,3.4-.5,5.6-1.1,7-1.7v6.6h0ZM479.3,487.4v-5.8c0-.6-.5-1-1-1s-1,.5-1,1v6c-4.2.4-9.4.7-15.4.7s-6.3,0-9.1-.2v-4.9c0-.6-.5-1-1-1s-1,.5-1,1v4.8c-2.9-.2-5.5-.4-7.7-.7v-6.6c0-.6-.5-1-1-1s-1,.5-1,1v6.3c-3.7-.6-6-1.3-6.6-1.9v-14.3h1.5c2.1,5.5,8.5,9.8,15.5,9.8s7-.6,10.1-2c3.1,1.4,6.3,2,10.1,2,6.9,0,13.3-4.3,15.5-9.8h2.6v14.3c-.8.8-4.3,1.7-10.1,2.4h-.4ZM488.3,452.8c-.4.1-1,.2-1.6.3v-.7c.6.1,1.2.2,1.6.3h0ZM484.6,453.5c-.7,0-1.6.2-2.5.3.8-1.8,1.7-3.7,2.5-5.6v5.3h0ZM487.5,465.6c-.4-3.9-2.5-7.3-5.7-9.8h1.4c1.1-.1,2.1-.2,2.9-.4h.5c1.2-.2,2.1-.4,2.8-.6v11h-1.9v-.2Z"/>
      <path class="st1" d="M474.3,456h-.4c-.3,0-.7-.1-1-.1h-3.5c-.4,0-.7,0-1.1.1h-.2c-.4,0-.7.2-1.1.3h-.1c-1.7.5-3.1,1.2-4.3,2.1,1,.9,1.9,1.8,2.7,2.6s1.1,1.1,1.6,1.5c1.5,1.3,3,2.3,4.6,3.1,1.8-2.4,3.7-5.4,5.4-8.7-.4-.2-.9-.3-1.3-.5h0c-.4-.1-.8-.2-1.2-.3h-.1ZM470.9,463.2c-1-.6-2-1.3-2.9-2.1l-1.5-1.5-1-1c1.5-.7,3.4-1.2,5.5-1.2s2.2.1,3.2.4c-1.1,2-2.2,3.8-3.3,5.4h0Z"/>
    </g>
    <path class="st0" d="M445.9,453.2c-1-2-1.9-4.1-2.8-6.2,1,.2,2.2.3,3.4.3,3.1,0,5.8-.7,7.5-1.8v6.9c-.8,0-1.6-.2-2.4-.2-1.9,0-3.8.3-5.6.9h-.1Z"/>
    <path class="st0" d="M467.5,413.5v24.1c-1.5.7-3.5,1-5.7,1s-4.3-.4-5.8-1.1v-26.5c1.6,2.1,3.7,3.4,5.9,3.4s4.2-1.2,5.8-3.2v2.2h-.2Z"/>
    <path class="st0" d="M456,439.2c1.6.6,3.7,1,5.8,1s4.1-.3,5.7-.9v13.4c-2.1.4-3.9,1.1-5.4,2h-1.7c-1.3-.7-2.8-1.4-4.4-1.8v-13.6h0Z"/>
    <path class="st4" d="M477.1,399c4.1,0,7.5,6.6,7.5,14.5s-3.4,14.5-7.5,14.5-7.5-6.6-7.5-14.5,3.4-14.5,7.5-14.5Z"/>
    <path class="st0" d="M469.6,424c1.8,3.7,4.4,6.1,7.5,6.1s5.7-2.3,7.5-6.1v9.5c-1.1,3.2-2.7,7.6-4.5,12-.9.2-1.9.3-3,.3-3.7,0-6.6-1.1-7.5-2.3v-19.5h0Z"/>
    <path class="st0" d="M477.1,447.3c.8,0,1.6,0,2.3-.1-.9,2.1-1.8,4.1-2.7,6-1.8-.6-3.6-.9-5.6-.9s-1,0-1.4,0v-6.8c1.7,1.1,4.3,1.8,7.5,1.8h0Z"/>
    <path class="st4" d="M461.8,383.5c4.1,0,7.5,6.6,7.5,14.5s-3.4,14.5-7.5,14.5-7.5-6.6-7.5-14.5,3.4-14.5,7.5-14.5Z"/>
    <path class="st4" d="M446.4,399c4.1,0,7.5,6.6,7.5,14.5s-3.4,14.5-7.5,14.5-7.5-6.6-7.5-14.5,3.4-14.5,7.5-14.5Z"/>
    <path class="st0" d="M446.4,430c3.1,0,5.7-2.3,7.5-6.1v19.5c-.9,1.2-3.8,2.3-7.5,2.3s-2.9-.2-4.1-.5c-1.3-3.2-2.5-6.3-3.4-8.9v-12.4c1.8,3.7,4.4,6.1,7.5,6.1h0Z"/>
    <path class="st0" d="M439.6,452.1c.2.5.5,1,.7,1.5-.5,0-1-.1-1.4-.2v-1.3h.7,0Z"/>
    <path class="st2" d="M436.8,452.5v.6c-.6-.1-1.1-.2-1.5-.3.4-.1.9-.2,1.5-.3h0Z"/>
    <path class="st2" d="M488.3,452.8c-.4.1-1,.2-1.6.3v-.7c.6.1,1.2.2,1.6.3h0Z"/>
    <path class="st0" d="M484.6,453.5c-.7,0-1.6.2-2.5.3.8-1.8,1.7-3.7,2.5-5.6v5.3h0Z"/>
    <path class="st3" d="M442.4,465.6h-2.1c.4-2,1.5-4,3.4-5.5,1,1.8,2,3.5,3.1,5-1.4.3-2.8.4-4.3.4h-.1Z"/>
    <path class="st3" d="M442.4,470.7c2.8,0,5.3-.4,7.7-1.2,1.9,2.2,3.8,3.9,5.6,5.4-1.4.3-2.9.4-4.4.4-4.1,0-7.7-2.1-9.6-4.6h.7,0Z"/>
    <path class="st3" d="M480.2,465.6c-1.5,0-3-.1-4.3-.4,1-1.6,2.1-3.3,3.1-5,1.8,1.5,3,3.5,3.4,5.5h-2.2Z"/>
    <path class="st3" d="M454.9,467.2c1-.7,2-1.4,3-2.2.6-.5,1.2-1.1,1.8-1.7.5-.5,1-1,1.6-1.5.6.5,1.1,1,1.6,1.5s1.2,1.2,1.8,1.7c1,.8,2,1.6,3,2.2-2.3,2.5-4.4,4.2-6.4,5.5-2-1.2-4-3-6.4-5.5Z"/>
    <path class="st3" d="M472.5,469.5c2.4.8,4.9,1.2,7.7,1.2h.7c-1.9,2.5-5.5,4.6-9.6,4.6s-3-.1-4.4-.4c1.8-1.5,3.6-3.2,5.6-5.4h0Z"/>
    <path class="st3" d="M456,459.6l-1.5,1.5c-1,.8-1.9,1.5-2.9,2.1-1.1-1.6-2.2-3.4-3.3-5.4,1-.2,2-.4,3.2-.4,2.2,0,4,.5,5.5,1.2l-1,1h0Z"/>
    <path class="st3" d="M440.9,455.7c-3.1,2.3-5.4,5.7-5.8,9.9h-.8v-11c1.3.4,3.4.8,6.6,1.1h0Z"/>
    <path class="st3" d="M479.3,487.4v-5.8c0-.6-.5-1-1-1s-1,.5-1,1v6c-4.2.4-9.4.7-15.4.7s-6.3,0-9.1-.2v-4.9c0-.6-.5-1-1-1s-1,.5-1,1v4.8c-2.9-.2-5.5-.4-7.7-.7v-6.6c0-.6-.5-1-1-1s-1,.5-1,1v6.3c-3.7-.6-6-1.3-6.6-1.9v-14.3h1.5c2.1,5.5,8.5,9.8,15.5,9.8s7-.6,10.1-2c3.1,1.4,6.3,2,10.1,2,6.9,0,13.3-4.3,15.5-9.8h2.6v14.3c-.8.8-4.3,1.7-10.1,2.4h-.4Z"/>
    <path class="st3" d="M487.5,465.6c-.4-3.9-2.5-7.3-5.7-9.8h1.4c1.1-.1,2.1-.2,2.9-.4h.5c1.2-.2,2.1-.4,2.8-.6v11h-1.9v-.2Z"/>
    <path class="st3" d="M470.9,463.2c-1-.6-2-1.3-2.9-2.1l-1.5-1.5-1-1c1.5-.7,3.4-1.2,5.5-1.2s2.2.1,3.2.4c-1.1,2-2.2,3.8-3.3,5.4h0Z"/>
    <path class="st3" d="M440.9,496.2c-3.7-.6-6-1.3-6.6-1.9v-6.6c1.3.6,3.4,1.1,6.6,1.6v6.9Z"/>
    <path class="st3" d="M450.7,497.2c-2.9-.2-5.5-.4-7.7-.7v-6.9c2.3.3,4.9.5,7.7.7v6.9h0Z"/>
    <path class="st3" d="M477.2,496.9c-4.2.4-9.4.7-15.4.7s-6.3,0-9.1-.2v-6.9c2.9.1,6,.2,9.1.2,5.5,0,10.8-.2,15.4-.7v6.9Z"/>
    <path class="st3" d="M489.4,494.3c-.7.8-4.3,1.7-10.1,2.4v-6.9c1.1-.1,2.1-.3,3.1-.4,3.4-.5,5.6-1.1,7-1.7v6.6h0Z"/>
    <path class="st3" d="M489.4,467.4h-3.7v-.5c0-4.9-2.9-8.6-6.8-10.8,0-.1.1-.3.2-.4.3-.5.5-1.1.8-1.6,2.2-4.6,4.3-9.7,6-14.2,1.2-3.4,2.2-6.3,2.8-8.3l-1.5-.4c-1.3,4.7-5.1,15-9,23h0c-.2.4-.4.9-.7,1.3-.4-.2-.9-.4-1.3-.5-.1,0-.2,0-.4-.1-.4-.1-.7-.2-1.1-.3-.2,0-.5-.1-.7-.1h0c-1-.2-2-.3-3-.3-1.5,0-2.9.2-4.2.5-1.3.3-2.5.8-3.6,1.4h0c-.4.2-.7.4-1,.6s-.7.4-1,.7c-.3-.2-.7-.5-1-.7h0c-.3-.2-.7-.4-1-.6h0c-1.1-.6-2.3-1.1-3.6-1.4-1.2-.3-2.6-.5-4.1-.5s-1.9,0-2.8.3h0c-.5,0-1.1.2-1.6.3h-.4c-.2,0-.4.1-.5.2-.4.1-.8.3-1.2.4-4.1-8.1-7.6-17.4-8.9-22.3l-1.5.4c1.1,3.8,3.2,9.9,6,16.1.3.8.7,1.6,1.1,2.3.3.7.6,1.3.9,2s.7,1.4,1,2.1h0c-4.3,2.5-6.7,6.8-6.7,10.9s0,.3,0,.5h-3.8v1.6h4c1.3,5.3,7.5,9.8,14.2,9.8s7-.7,10.1-2.2c3.1,1.5,6.3,2.2,10.1,2.2,6.7,0,12.9-4.4,14.2-9.8h5.1v-1.6h-1.4ZM466.9,456.2h.1c.4,0,.7-.2,1.1-.3h.2c.3,0,.7-.1,1.1-.1h3.5c.3,0,.7,0,1,.1h.4c.4,0,.8.2,1.2.3h0c.5.1.9.3,1.3.5-1.7,3.3-3.6,6.3-5.4,8.7-1.6-.8-3.1-1.8-4.6-3.1-.5-.4-1-.9-1.6-1.5s-1.7-1.7-2.7-2.6c1.2-.9,2.7-1.6,4.3-2.1h.1ZM448.8,455.9c.3,0,.5,0,.8-.1h3.6c.4,0,.7,0,1.1.1h.2c.4,0,.7.2,1.1.3h0c.4.1.8.2,1.1.4h0c1.2.5,2.3,1.1,3.2,1.7-1,.9-1.9,1.8-2.7,2.6s-1.1,1.1-1.6,1.5c-1.5,1.3-3,2.3-4.6,3.1-1.8-2.4-3.7-5.4-5.4-8.7,1-.4,2-.7,3.1-.9h.1ZM438.4,466.9c0-3.5,2.2-7.3,5.9-9.4,1.7,3.2,3.5,6.2,5.3,8.6-2.2.8-4.6,1.3-7.2,1.3h-4v-.5h0ZM451.2,477.1c-5.7,0-11.2-3.8-12.5-8.2h3.7c3,0,5.7-.5,8.2-1.5.2.3.4.5.6.7,3,3.4,5.7,5.8,8.4,7.5-2.7,1.2-5.4,1.5-8.4,1.5h0ZM452.4,467.1c-.1-.1-.2-.2-.3-.4,1.6-.8,3.1-1.9,4.6-3.1.5-.5,1.1-1,1.7-1.6s1.8-1.8,2.9-2.7c1.1.9,2,1.8,2.9,2.7.6.6,1.2,1.2,1.7,1.6,1.5,1.3,3,2.3,4.6,3.1-.1.1-.2.2-.3.4-3.3,3.8-6.2,6.2-8.9,7.7-2.7-1.5-5.5-3.9-8.9-7.7h0ZM471.3,477.1c-3,0-5.7-.4-8.4-1.5,2.7-1.7,5.4-4.1,8.4-7.5.2-.2.4-.5.6-.7,2.5,1,5.2,1.5,8.2,1.5h3.7c-1.3,4.4-6.8,8.2-12.5,8.2h0ZM484.1,467.4h-4c-2.6,0-5-.4-7.2-1.3,1.8-2.4,3.6-5.4,5.3-8.6,3.7,2.2,5.9,5.9,5.9,9.4s0,.3,0,.5h0Z"/>
  </g>
  <g>
    <path class="st1" d="M409.7,357.6c23.8,5,37.7,1,44.8-11.3,4.8-8.4,7.7-22.6,2.7-40.6-5.1-18.3-17.3-29.1-30-31.8-12.7-2.7-28.2,2.3-40.2,17-11.8,14.5-14.8,28.7-13.8,38.3,1.6,14.2,12.7,23.4,36.5,28.3h0Z"/>
    <path class="st4" d="M415.8,328.2c9.1,1.9,15.9,3,21.2,2.3,6.5-.8,11.5-4.7,13.5-12.6,1.4-5.6-.8-15.4-4.2-21.7-3.3-6.2-9.3-6.9-12.9-7.2-2.9-.2-5.7-.7-9.2-1.4s-5.8-1.3-9-2.4c-3.4-1.1-9.1-2.9-14.7,1.4-5.7,4.5-11.6,12.6-12.5,18.2-1.3,8,1.7,13.6,7.3,16.9,4.6,2.7,11.2,4.5,20.4,6.4h.1Z"/>
    <path class="st3" d="M433.8,306.8c-.3,1.6-1.9,2.6-3.5,2.3s-2.6-1.9-2.3-3.5,1.9-2.6,3.5-2.3,2.6,1.9,2.3,3.5Z"/>
    <path class="st3" d="M430.6,323c-1-.2-2-.6-2.8-1.2-2.2-1.5-6-3.4-9.7-4.2s-7.9-.6-10.6,0c-2.7.5-6-.3-6.9-3.3,0-.3,0-.6.4-.7.3,0,.6,0,.7.4.8,2.6,3.8,2.7,5.6,2.4,2.8-.5,7.1-.7,11,.1s7.8,2.8,10.2,4.3c1.4,1,4.3,2,6.1,0,.2-.2.6-.3.8,0,.2.2.3.6,0,.8-1.2,1.5-3.1,1.8-4.8,1.4h0Z"/>
    <path class="st3" d="M418.2,293.5c-1.8,0-3.4-1.2-5-2.4-2-1.6-5-2.5-7.4-2-2.5.5-4.9,2.4-5.9,4.4s-.1,4.9,1.7,5.1c1.7.2,2.8-.7,4.1-1.9,1.5-1.4,3.6-1.8,5.4-1.2,1.6.5,3.2.8,4.5.6,1-.2,2.3-1.1,2.6-2.7h0Z"/>
    <path class="st3" d="M408,301.4c-.3,1.6.7,3.2,2.3,3.5s3.2-.7,3.5-2.3-.7-3.2-2.3-3.5-3.2.7-3.5,2.3Z"/>
    <path class="st3" d="M409.6,308c-5.4-.5-8.9.4-11,3.7-1.5,2.3-1.4,5.5-.8,7.7s-2.6,2-4.5-.7c-2.7-3.6-2.4-8.5,0-11.1,4.1-4.5,11.1-3.5,16.4.3h-.1Z"/>
    <path class="st3" d="M427.7,295.5c1.6.8,3.6.3,5.5-.2,2.4-.7,5.5-.3,7.6,1.2s3.5,4.2,3.6,6.4c.1,3.1-1.9,4.5-3.6,4-1.7-.6-2.3-1.7-3-3.4-.8-1.9-2.6-3.1-4.5-3.3-1.7-.2-3.3-.5-4.3-1.2-.8-.6-1.7-1.9-1.3-3.5h0Z"/>
    <path class="st3" d="M429.8,312.2c5.2,1.7,7.9,4,8.6,7.8.4,2.8-.9,5.6-2.3,7.4s1.5,2.8,4.4,1.2c3.9-2.3,5.6-6.8,4.5-10.1-1.9-5.8-8.8-7.6-15.1-6.3h-.1Z"/>
    <path class="st7" d="M410.7,313.2c1-1.2,2-2,3.3-2.2s2.5,0,3.6,1c-.4-1.9-2.1-2.7-3.5-2.4-2,.3-2.8,2-3.3,3.6h-.1Z"/>
    <path class="st7" d="M426.7,316.5c-.4-1.6-1-2.6-2.1-3.3-1.1-.7-2.3-1-3.7-.5,1.2-1.6,3-1.6,4.2-.8,1.7,1.1,1.7,3,1.6,4.6h0Z"/>
    <path class="st4" d="M393.9,327.7c-3.1,4-4.5,14.2-1.7,20.3-6.3-4.4-6.3-17.9,1.7-20.3Z"/>
    <path class="st4" d="M386.4,322.1c-3,3.6-4.2,12.9-1.4,18.5-6.3-4.2-6.6-16.4,1.4-18.5Z"/>
    <path class="st4" d="M436.6,336.6c1.3,4.9-1.6,14.8-6.5,19.3,7.5-1.5,13-13.8,6.5-19.3Z"/>
    <path class="st4" d="M445.7,334.5c1.4,4.5-1.3,13.5-6.2,17.5,7.5-1.3,12.7-12.4,6.2-17.5Z"/>
    <path class="st4" d="M405.8,330.3c.9.2,1.9.8,3.2,2,.9.9,1.3,1.7,1.1,2.5-.1.7-.6.9-1.5.8-1.4-.3-2.6-.3-3.5,0-.9.4-1.4.7-1.5,1.1,0,.3.1.5.6.6.3,0,1.4-.2,3.3-.9.6-.2,1.2-.3,1.6-.2.6.1,1,.4,1.4,1,.4.5.5.9.4,1.4-.2.8-1.2,2-3,3.7l.6.6c.3.3.6.7.8,1-.1-.4-.1-.8,0-1.3.1-.6.6-.8,1.4-.6.7.1,1.2.5,1.5,1.1.4,0,1.1,0,2,.1,2.8.1,4.8.3,5.9.5.9.2,1.6.6,2,1.4.4.6.5,1.5.3,2.5l-.9,4.4c0,.2,0,.4-.1.5.2.3.3.6.2,1-.1.7-.7,1-1.8.8-1.7-.3-3.6-.7-5.5-1-1.6-.2-2.7-.4-3.2-.5-1.8-.4-2.6-1.2-2.4-2.3l.7-3.4c.1-.5.2-1,.2-1.5-.3.9-.8,1.2-1.5,1.1s-1.3-.7-1.7-1.6c0,.6-.1,1.2-.3,2l-.6,2.7c-.3,1.3-1,1.8-2.2,1.6-1.1-.2-1.5-.9-1.3-2.1l.6-3.1c-.5.2-.8.2-1,.2-1.3-.3-1.8-1.1-1.5-2.6.1-.6,1.5-1.6,4.1-3.1,1.1-.6,1.7-1,1.7-1.3,0,0,0-.1-.3-.2h-.4c-.9.3-1.5.5-1.7.4-1.6-.3-2.2-1.3-1.8-2.9.1-.5.4-1,.8-1.3.4-.4,1.3-.7,2.6-1,.3-.1.5-.2.6-.4,0-.2-.2-.4-.6-.8-1.1-.8-1.6-1.5-1.5-2,.2-.8.9-1.1,2.1-.9h0ZM412.6,333.3h.2c.1,0,.2,0,.3.1.3,0,1.6,0,3.9-.2,1.5-.1,2.8,0,3.8.1,1.1.2,2.1.7,3,1.3.6.5.8.9.7,1.3-.1.5-.8.7-2,.4-1.7-.3-3.4-.4-5.2-.5-1.4,0-2.6-.1-3.3-.3-.9-.2-1.7-.5-2.2-.9-.5-.3-.7-.7-.6-1,0-.2.2-.4.6-.5h.9v.2ZM412.1,335.7c.7.1,1.1.4,1.4.8h0c.2.1.6.1,1.3.1,2.4,0,4.1,0,5.1.3,1.4.3,2.4.7,3.1,1.3.6.6.8,1.2.7,1.8-.1.5-.4,1.1-.9,1.8.2.2.2.5.2.8-.1.6-.6.8-1.6.7-1.6-.3-3.4-.6-5.3-.8-1.5-.1-2.5-.2-3.1-.3-1.6-.3-2.3-1-2.1-2l.3-1.6c.1-.6,0-1-.2-1.4-.2-.3-.3-.5-.2-.8.1-.5.5-.7,1.2-.6h.1ZM419.8,340.7c0-.1,0-.2.2-.3.2-.5.4-.8.4-.9,0-.2-.2-.4-.6-.5-.6-.1-1.4-.2-2.5-.1h-3.6c0,.3,0,.5-.2.8,0,.4.2.7.7.8h1.7c1.6,0,2.9.1,3.8.2h.1ZM412.1,347c.5,0,1.2,0,2.1-.2,0-.6,0-1.1-.2-1.5h-1.7c0,.5-.1,1.1-.2,1.7h0ZM413.4,350.8l.3-1.6c-.6,0-1.1-.1-1.5-.2-.2,0-.3,0-.5-.1l-.2.8c-.1.5.2.9.8,1,.2,0,.5,0,1,.1h.1ZM417,345.5c.2.3.3.8.2,1.4h.2c.6.2,1.2.4,1.7.6l.2-1.1c0-.4,0-.7-.4-.7s-.9,0-1.9-.1h0ZM418.2,351.2c.1-.4.3-.9.4-1.4v-.2c-.6,0-1.2-.2-1.8-.2l-.3,1.6c.7,0,1.3.1,1.7.2h0Z"/>
  </g>
  <g>
    <polygon class="st1" points="487.7 207.8 480.7 197.3 478.3 184.3 468.4 176.3 462.3 164.7 450.3 160 441.2 150.8 428.2 149.9 416.8 143.9 404.1 146.8 391.6 144.5 380.2 151.1 367.6 152.7 395.3 194.8 398.1 191.6 402.4 191.1 406.1 188.9 410.4 189.7 414.6 188.7 418.4 190.7 422.7 191 425.7 194.1 430.3 195 431.7 199.5 435.8 201.8 435.8 206.5 439.1 209.8 437.6 214.3 487.7 207.8"/>
    <path class="st4" d="M387.2,160c.5,0,1,.1,1.6.6.6.4,1,.8,1.1,1.2h.4c.6,0,1.1,0,1.6.3.1,0,.2.1.3.2h.1c.2-.3.4-.3.6-.4h.6c0-.5-.2-.8-.4-1.2-.2-.3-.3-.5-.4-.7,0-.5.2-.8.8-.8s1.2,0,1.7.3.8.7.8,1.3h0c0,.1.1,0,.2,0,.6-.3,1.2-.5,1.8-.7,0-.1-.1-.3-.2-.4-.1-.2-.2-.3-.2-.5,0-.5.2-.7.8-.8.6,0,1.1,0,1.6.2.5.3.8.6.8,1.1h0c.4.1.8.3,1.2.4.6.3.9.6.9,1s-.5.8-1.6.9c-.3,0-.5,0-.7.1,0,.3-.1.5-.2.7,0,.2-.1.3-.2.5.8,0,1.5.1,2,.4.6.3.9.8,1,1.3,0,.4,0,1-.3,1.6,0,.1.1.3.1.4,0,.5-.3.8-1,1-.9,0-1.8.2-2.8.4v.3c.4,0,.7-.1,1-.2.8,0,1.5,0,2.2.3.5.2.7.4.7.8s-.4.6-1.2.7c-.9.1-1.7.3-2.6.5v.3c.4,0,.7-.1,1-.2.8,0,1.6,0,2.3.3.5.2.8.5.8.8s-.4.6-1.3.8c-.9.1-1.7.3-2.6.5v.3c.3,0,.6-.1.9-.1,1-.1,1.9,0,2.8.4.6.3.9.6.9,1s-.5.8-1.6.9c-1.4.2-2.8.4-4.2.7-1.1.2-2,.4-2.7.4s-1.4,0-1.8-.2-.7-.4-.7-.7,0-.4.3-.6c.2-.1.4-.2.6-.2h.4c.2,0,.9-.3,2.1-.7v-.5c-.4,0-.7.1-1,.2-.7,0-1.3,0-1.8-.1-.4-.2-.6-.4-.7-.6,0-.2,0-.4.3-.6.2-.1.4-.2.6-.2h.4c.2,0,.9-.2,2-.6v-.5c-.4,0-.8.1-1,.2-.7,0-1.3,0-1.8-.1-.4-.2-.6-.4-.7-.6,0-.2,0-.4.3-.6.2-.1.4-.2.6-.2h.4c.2,0,.9-.2,2-.6v-.5c-.7.2-1.2.3-1.5.3-1.3.1-2-.3-2.1-1.1v-1.2c-.2-.4-.3-.8-.5-1-.2-.1-.3-.3-.3-.5,0-.5.2-.7.8-.8.5,0,.8,0,1.1.2.2,0,.5-.1.9-.3-.5,0-.8-.3-.9-.8l-.2-.5c-.5,0-1,0-1.4-.2h-.1c0,.3-.4.5-.9.6l-4.3,1.5c-.7,0-1.2,0-1.6-.2-.4-.1-.6-.3-.6-.6s0-.4.3-.6c.3-.3.5-.5.8-.5h.3s.3-.2.7-.4c-.1,0-.3-.2-.4-.3-.6-.5-.9-1-1-1.3,0-.8.3-1.3,1.2-1.4h.8ZM386.6,171.5c.4,0,.8,0,1.3.3.2,0,.4-.1.7-.2,1-.4,1.7-.6,2.2-.7.7,0,1.4.1,1.9.7.5.4.8,1.1.9,2v1c.1.4.1.7,0,1,.1.2.2.4.2.6,0,.5-.2.8-.7.9-.9,0-1.8.2-2.8.4-.8.1-1.3.2-1.6.2-1,0-1.7-.5-1.9-1.4v-1.1c0-.6-.1-1.2-.2-1.7,0-.4-.2-.7-.4-.9-.1-.2-.2-.3-.2-.4,0-.4.1-.6.5-.7h.1ZM386.7,166.5h.3c.1,0,.4-.2.9-.5.8-.5,1.6-.8,2.4-.9.5,0,1,0,1.4.3.4.2.6.5.6.8,0,.5-.2.7-.8.8l-3.9,1.1c-.5,0-.9,0-1.3-.2-.3-.1-.4-.3-.4-.4,0-.2,0-.3.2-.5.2-.3.4-.4.6-.4h0ZM387,169.3h.3c.1,0,.4-.2,1-.5.8-.5,1.7-.8,2.6-.8s1,0,1.4.3c.4.2.6.5.6.8,0,.5-.2.7-.8.8l-4.2,1c-.5,0-.9,0-1.3-.2-.3-.1-.4-.3-.4-.4,0-.2,0-.3.2-.5s.4-.4.6-.4h0ZM390.9,175.2v-2c0-.3-.2-.4-.5-.4s-.7.2-1.6.7h0v1.8c.1.3.3.4.5.3.3,0,.8-.1,1.2-.3.2,0,.4,0,.5-.1h-.1ZM396.6,167.6c0-.4-.2-.8-.4-1.2h0c-.5.2-.9.3-1.2.4v.6c0,.4.3.5.8.5s.4,0,.8-.2h0ZM396.7,164.3c.7-.2,1.3-.4,1.9-.6-.1-.2-.2-.4-.2-.7v-.2c-.3,0-.6.1-.9.2-.3,0-.5.1-.7.2v.5c.1.3,0,.5,0,.7h0ZM400.6,166.4v-1.1c0-.2-.2-.3-.6-.2-.3,0-.7.1-1.1.2.3.3.5.7.6,1.1v.2c.4-.1.8-.2,1.1-.3h0Z"/>
    <path class="st4" d="M413.7,160.2s.1,0,.2.2c0,0,.2,0,.3.1h.8v-1.4c.1-.5.4-.6.8-.5.4,0,.8.4,1.2.8.2.3.4.5.5.8h1.9c.7.1,1.2.5,1.6,1.2.4.5.4,1.3.2,2.2-.4,1.7-.8,2.8-1.2,3.2s-.5.3-.8.3c1.2.1,2.2.2,3.1.4-.2-.2-.4-.4-.6-.6-.4-.6-.4-1.4-.2-2.3l.3-1.2v-1.3c0-.3-.1-.5,0-.7.1-.6.5-.8,1-.7s.8.4,1,.8h.3c1.1-.2,1.8-.2,2.4,0,1,.2,1.8.6,2.3,1.1s.7,1,.6,1.7c-.3,1.5-.6,2.5-.8,3.1v.9c-.1.5-.5.6-1.1.5-.2,0-.4-.1-.7-.3-.2,0-.4-.2-.6-.2-.4,0-.9-.2-1.3-.2.8.3,1.5.6,2,1.1.7.6.9,1.4.7,2.3-.6,2.8-1.1,4.4-1.4,4.9-.3.3-.7.4-1.3.3h-.2c1,.8,1.4,1.4,1.3,2-.2,1-1,1.4-2.2,1.1-.5-.1-1.1-.6-1.8-1.6-.7-1.1-1.5-1.8-2.5-2-1.1-.3-2.4,0-3.9.5-1.5.6-2.6.8-3.4.6s-1.4-.6-1.8-1.1c-.4-.6-.5-1.1-.4-1.6,0-.2.2-.4.5-.6.1,0,.3-.1.5-.1-.2-.4-.2-.9-.1-1.5.5-2.5.8-4,.9-4.7v-1h0c-.5-.5-.6-1.1-.4-1.9,0-.3.2-.4.4-.5.6-.2,1.2-.8,1.9-1.6-.5-.1-.9-.3-1.2-.6-.3-.2-.4-.5-.3-.7,0-.3.3-.6.6-.8.3-.2.6-.2.8-.2h0v-.2ZM411.7,174.5c-.2,0-.3,0-.3.2,0,.4.1.7.7.8.3,0,.7,0,1.2-.2.3-.1.6-.2.8-.3-.8,0-1.3-.1-1.8-.2-.3,0-.5-.1-.6-.2h0ZM413.9,166.7c.3,0,.9,0,1.8.1,1,0,2,.1,2.9.2-.6-.2-1.6-.8-3.2-2,0,0-.2-.1-.3-.2-.6.7-1.1,1.2-1.5,1.5,0,.1.2.2.2.3h.1ZM414.2,169.3h.1c.4.1,1.9.2,4.6.3,1.8,0,3.3.2,4.4.5.3,0,.6.2.9.3h0c0-.5-.3-.8-1-1-1.2-.3-3.8-.5-7.9-.7h-1.2v.6h.1ZM413.9,171.4c.4,0,1.9.2,4.5.3,1.7,0,3.1.2,4.3.5.4,0,.8.2,1.1.4v-.2c0-.3.1-.5.2-.8-1.8-.3-3.7-.5-5.6-.5s-2.8-.2-3.6-.3c-.3,0-.5-.1-.7-.2,0,.3,0,.6-.1.9h0ZM423.4,174.6v-.8c-1.8-.3-3.7-.5-5.6-.6-1.5,0-2.7-.2-3.6-.4-.3,0-.5-.1-.7-.2h0c-.1.6.1.9.7,1,.4,0,1.2.2,2.3.3,2.9.2,5.2.4,6.7.8h.2ZM416.9,162.3c-.3.6-.8,1.2-1.3,1.9.9.3,1.6.5,2,.6.5.1.8,0,.9-.2l.3-1.5c.1-.5,0-.7-.5-.8h-1.4ZM426,166c0-.2.1-.4.2-.6.1-.3.2-.7.3-1.1.1-.5-.1-.8-.8-1-.3,0-.8,0-1.7.2v.3l-.3,1.5c0,.4,0,.6.5.7h.6c.4,0,.8-.1,1.2-.1h0Z"/>
    <path class="st4" d="M444,168.2c.2.2.4.5.6.9.1.5.1.8,0,1.1.4.1.7.3,1,.5.7.5,1.3,1.1,1.7,1.8.3.5.3.9.1,1.1-.3.4-.8.3-1.5-.2l-1.2-.6c.2.3.4.6.6.9.2.4.2.7,0,1-.3.4-1.1.7-2.3.9.4.3.6.7.9,1.1.2.4.3.8.1,1-.2.3-.7.3-1.3-.1-.6-.3-1.3-.6-2-.9,0,.2,0,.4-.2.7l.6.3c.7.4,1.2,1,1.5,1.6.1.2.2.5.2.6.6-.8,1.3-1.8,2-2.8.5-.7.7-1.3.6-1.8,0-.2,0-.4.1-.5.3-.4.8-.5,1.6-.2l2.2.7c.9.3,1.6.3,1.8,0v-.8c-.1-.4-.2-.7-.1-.8.1-.2.3-.2.6-.2s.5.2.9.4c1,.6,1.6,1.3,2,2,.3.6.3,1.1,0,1.4-.3.4-.9.5-1.9.2l-4.4-1.4c-.5-.2-.8-.2-.9,0s-.2.4-.1.5v.9h.1c.1.2.8.3,2.1.5.8.1,1.4.3,1.8.6.7.4,1.2,1,1.5,1.6.2.5.3.8,0,1.1-.2.3-.7.3-1.4-.2-.4-.2-.7-.4-1.1-.6v.7c0,1.2-1.3,3.8-3.9,7.8-.8,1.2-1.5,1.5-2.3,1-.4-.3-1.1-1.3-2-3-.2-.4-.4-.8-.6-1.1-.2.2-.4.4-.6.5-.7.5-1.3.6-1.9.3s-.3-.4-.4-.7v-.4c-.4.3-.9.3-1.4,0-.2-.1,0-.7.4-1.6,1.1-2.2,1.9-3.7,2.2-4.4-.2,0-.3-.1-.5-.2l-2.9,4.3c-.5.8-1.2,1-1.9.5-.6-.4-.7-1-.2-1.7l2.6-3.9c-.4-.1-.7-.3-1-.4-.1.6-.7,1.6-1.6,3-.5.7-.9,1.2-1.2,1.4-.3.1-.6.1-.8,0-.3-.2-.5-.5-.5-1s0-1.1.4-1.6c.1-.2.3-.3.7-.5.5-.3.9-.8,1.2-1.3.1-.2.3-.5.4-.9-.1-.1-.2-.3-.3-.4-.2-.4-.3-.6-.1-.8,0-.1.3-.2.5-.2s.4,0,.6.2h.1c0,.1.1.2.2.3.2.1,1,.3,2.5.7.1-.3.2-.5.3-.7-.4-.1-.7-.3-1-.5-.6-.4-1.1-.9-1.3-1.3-.2-.4-.3-.7,0-1,0-.1.3-.2.6-.2s.5,0,.7.2h.1c0,.1.1.2.2.3.2.1,1,.4,2.5.7.6.1,1,.3,1.5.5,1.1-.4,1.7-.8,2-1.2.2-.3,0-.5-.3-.8-.6-.4-1.3-.2-2.1.5-.9.8-1.6,1-2.1.7-.3-.2-.5-.6-.6-1.3,0-.7,0-1.2.3-1.6.2-.3.5-.4.9-.2.2.2.4.5.4,1s0,.5.2.6.6,0,1.3-.1c.5-.2,1-.2,1.4-.2-.1,0-.2-.1-.4-.1-1-.3-1.8-.7-2.2-1-.6-.4-1-.8-1.2-1.2s-.2-.7,0-.9c0-.1.3-.2.5-.2s.4,0,.6.2h.1s0,.1.1.1c.2.1.9.3,2.2.6h0v-1c.4-.6.9-.7,1.5-.3h0v-.5ZM440.1,183.3c.6-.7,1.4-1.6,2.2-2.8-.3,0-.6,0-1-.4,0,0-.1,0-.2-.1,0,.4-.2.9-.3,1.4-.2.6-.4,1.3-.7,1.8h0ZM441.9,185.1c.5.5,1,.8,1.4,1.1s.9.1,1.3-.5l2.7-4.1c.5-.8.8-1.4.8-2h0c-.4-.2-.8-.3-1-.5-.2-.1-.4-.3-.5-.4,0,.1-.1.2-.2.3-1.9,2.9-3.4,5-4.4,6.2h0Z"/>
    <path class="st4" d="M465.2,187.9c.6.9,1,1.9,1.2,2.9.1.7,0,1.1-.3,1.3-.4.3-.8.2-1.3-.3-1.1-1.3-2.2-2.3-3.3-3.1-.8-.5-1.2-.7-1.4-.6s-.2.3,0,.6c.4.6,1,1.1,1.9,1.7,3.5,2.4,5.8,4.2,6.7,5.5.8,1.2,1.3,2.3,1.3,3.3s-.2,1.3-.6,1.6c-.5.4-1,.3-1.3-.2-.3-.4-.7-1.1-1.3-2-.4-.6-.8-1.2-1.1-1.7-.1.3-.4.7-.8,1.1.1.1.2.2.3.4.7,1.1,1.2,2.2,1.3,3.4,0,.8,0,1.4-.5,1.7-.5.4-1.2,0-2-1.1-.6-.8-1.1-1.5-1.7-2.2l-1.4,1c.7,1.2,1.1,2.3,1.2,3.3.1,1.1,0,1.9-.5,2.2-.6.5-1.2.3-1.7-.4-.4-.5-.7-1.2-1.1-1.9-.2-.4-.5-.8-.8-1.3l-1,.7c-1.2.9-2.2.8-3-.3-.7-.9-.4-1.8.7-2.6l1.2-.8c-.9-1.1-1.9-2.2-3.1-3.3-1-1-1.6-1.6-1.9-2-.5-.8-.8-1.4-.9-1.9,0-.5,0-.7.2-.8.3-.2.6-.2,1,0,.5.2.8.5,1,.8v.2c0,.1.1.2.2.3,0,.1.2.3.5.5.2,0,.4-.2.7-.3.4-.1.8-.4,1.4-.8.2-.1.3-.3.5-.4-.4-.6-.6-1.2-.7-1.7,0-.6,0-1,.3-1.2.2-.1.5-.1.8,0s.5.3.7.6v.2c0,.1,0,.2.1.3.3.4,1.7,1.7,4.3,4,.4.4.8.7,1.2,1.1.3-.3.5-.6.6-.9l-.4-.3c-2-1.7-3.4-3.1-4.3-4.4-.8-1.2-.8-2.1.2-2.8.4-.3.8-.3,1.3-.3s1.6.5,3,1.3c.3.1.5.2.6.1l.2-.4c0-.2.1-.3.2-.3.4-.3.8,0,1.3.6h0l.3-.4ZM458.7,198.2l1.3-.9c-.3-.3-.5-.6-.8-.9-.6-.6-1.1-1.2-1.5-1.7,0,0-.1.1-.2.1-.5.4-1.1.7-1.6.9,1.1.9,2,1.7,2.8,2.5h0Z"/>
    <path class="st2" d="M437.7,214c0-.3.4-1.1.7-2.2l-24.1,3.9,19.1-15.3-1.6-.9v-.3l-18.3,14.7,10.2-22.1c-.3-.3-.8-.8-.8-.8h-1.1l-10.1,22-.8-23.4h-.3l-1.7-.2.8,24.2-12.6-20.5c-.7.8-1.3,1.4-1.4,1.6l13.5,21.9-6.3,1,.3,2,4-.6-3.2,2.6,1.3,1.6,2.8-2.2-1.5,3.2,1.8.9,1.5-3.3v3.6h2.1v-4.1c-.1,0,2,3.5,2,3.5l1.7-1.1-3.3-5.4,25.5-4.1h0l-.2-.2Z"/>
  </g>
  <path class="st5" d="M288.6,55.7c-1.3,0-2.6.6-3.5,1.5h0c-.1,0-.3,0-.4-.2-3.9-1.6-8.5-.8-10.1,3-2,4.9,2,8.6,5.7,9.5-2.3,3.6.1,10,7.9,10.5-.3,3.3,1.5,6,5,7.4,3.6,1.5,6.7.8,8.8-1.8,5.9,5.1,12.1,2.3,13-2,3.3,1.9,8.7,2.2,10.7-2.8,1.5-3.8-1.2-7.6-5.1-9.2-.2,0-.3,0-.5-.2h0c0-1.2-.6-2.4-1.4-3.3,4.5-.3,9.3.3,13.8,2.1-.3,0-.6-.3-.9-.4-4.5-1.9-9.2-2.7-13.8-2.5-.4-.3-.9-.6-1.4-.8-1.5-.6-3.1-.6-4.4,0-.4-.3-.9-.6-1.4-.8-1.5-.6-3.1-.6-4.5,0-.7-1-1.8-1.8-3-2.3s-2.5-.7-3.8-.5c-.6-1.3-1.7-2.5-3.2-3.1-.5-.2-1.1-.4-1.6-.4-.6-1.3-1.7-2.4-3.2-3-.5-.2-1.1-.4-1.6-.4-3.1-3.4-6.9-6.2-11.5-8-.3,0-.6-.2-.9-.4,4.5,2,8.2,4.9,11.2,8.4h0v-.2ZM286.9,67.9c-2.3.8-2.9.3-3.2-.3-.2-.6-.1-1.4,2.3-2,2.3-.5,4.5-.8,5.6-.9.5,0,.7,0,.7.2s0,.3-.4.5c-.9.5-2.8,1.6-5,2.4h0ZM295.9,68.3c-.6,1-2,3.1-3.8,5.1-1.9,2.1-2.8,1.8-3.4,1.3-.5-.5-.9-1.4,1.2-3.3,2.1-1.8,4.2-3.1,5.2-3.7.5-.3.7-.3.8-.2s.1.3-.1.8h0ZM296.1,80.4c-.7-.3-1.3-1.1,0-3.9,1.3-2.7,2.8-5,3.6-6.1.3-.5.6-.6.7-.5.1,0,.3.3.2.9-.2,1.3-.8,4-1.7,6.9-1,3-2.1,3-2.8,2.8h0ZM305.5,81.5c-.8,0-1.6-.5-1.5-3.3.1-2.7.6-5.1.8-6.3.1-.5.3-.7.4-.6.2,0,.4.2.5.7.3,1.2.9,3.6,1.1,6.3.3,2.8-.7,3.2-1.4,3.2h.1ZM314.1,80c-.6.3-1.4.2-2.4-2-1-2.1-1.7-4.2-1.9-5.2-.1-.4,0-.6,0-.7.1,0,.3,0,.6.4.7.8,2.1,2.5,3.4,4.6s.8,2.8.3,3h0ZM315.9,68.1c1.4.6,2.4,1.8,2.8,3.1h0c-1.1-.3-2.6-.5-4.8-.7h.3c0-1-.5-1.9-1.1-2.8.8,0,1.8,0,2.6.4h.2ZM310.1,67.2c1.5.6,2.5,1.9,2.9,3.2-1.7-.2-3.5-.5-5.4-.9,0-.9-.2-1.8-.6-2.6,1-.2,2.1-.2,3.1.3h0ZM297.1,65.4c1.5-1,3.5-1.2,5.4-.4s3.1,2.3,3.5,4h0c-1.5-.4-3-.9-4.5-1.5s-2.9-1.3-4.3-2.1h-.1ZM290.8,57.6c.9.4,1.6.9,2.1,1.6-1.1.2-2.1.6-2.9,1.3,0,0,.2.2.3.2.2.2.5.4.8.6,1.3-.8,2.9-1,4.5-.3,1,.4,1.9,1.2,2.4,2-.9.3-1.7.8-2.3,1.4-1.7-1-3.2-2.1-4.5-3.2h0c-.3-.2-.5-.4-.8-.6-1.8-1.5-3-2.4-4.1-2.9h0c1.3-.8,2.9-.9,4.4-.3h0v.2Z"/>
  <path class="st5" d="M377.5,396.4c-.4.2-.8.3-1.3.5-6.1,2.5-11.3,6.3-15.4,10.8-.7,0-1.5.3-2.2.6-2,.8-3.5,2.3-4.3,4.1-.7.1-1.4.3-2.1.6-2,.9-3.5,2.4-4.3,4.2-1.6-.2-3.4,0-5,.7s-3,1.8-4,3.1c-1.9-.7-4-.7-6,.1-.7.3-1.3.7-1.9,1.1-1.8-.7-3.9-.7-5.9.2-.7.3-1.4.7-1.9,1.1-6.1-.2-12.4.8-18.5,3.4-.4.2-.8.4-1.2.5,6.1-2.4,12.5-3.2,18.6-2.8-1.1,1.3-1.7,2.9-1.9,4.5h0c-.2,0-.5.2-.7.3-5.2,2.1-8.9,7.2-6.9,12.3,2.7,6.6,10,6.3,14.4,3.7,1.2,5.7,9.5,9.5,17.5,2.6,2.8,3.4,7,4.3,11.8,2.4,4.8-2,7.2-5.6,6.8-10,10.5-.7,13.8-9.3,10.6-14.2,4.9-1.3,10.4-6.1,7.7-12.8-2.1-5.1-8.3-6.1-13.5-4-.2,0-.4.2-.6.2h0c-1.2-1.2-2.9-2-4.7-2.1,4-4.6,9.1-8.5,15-11.2h-.1ZM357.9,420.7c-.5-.3-.6-.5-.6-.7s.3-.3,1-.2c1.4.1,4.4.4,7.5,1.2,3.3.8,3.4,1.9,3.1,2.6-.3.8-1.1,1.5-4.2.4-3-1.1-5.6-2.5-6.8-3.2h0ZM352.4,423.5c.1-.1.5-.1,1.1.2,1.4.8,4.2,2.7,7,5,2.9,2.5,2.4,3.7,1.7,4.4-.8.7-2,1-4.5-1.7-2.4-2.7-4.3-5.5-5.1-6.8-.4-.6-.3-.9-.2-1h0ZM348.5,437.1c-1.3-3.8-2-7.5-2.3-9.2-.1-.8,0-1.1.2-1.2.2,0,.5,0,1,.7,1,1.4,3.1,4.6,4.8,8.2,1.8,3.8,1,4.8,0,5.2-1,.4-2.4.3-3.7-3.7h0ZM337.9,438c.3-3.6,1.1-6.9,1.5-8.5.2-.7.4-.9.6-.9s.4.2.6.9c.4,1.5,1,4.8,1.1,8.5s-1,4.4-2,4.4-2.2-.5-1.9-4.3h0ZM328.5,436.2c1.7-2.7,3.6-5,4.5-6.1.4-.5.7-.6.9-.5.1,0,.2.3,0,.9-.4,1.3-1.2,4.1-2.6,7-1.4,3-2.5,3.1-3.3,2.7-.8-.3-1.5-1.2.3-4h.2ZM329.2,423.8c-.8,1.1-1.3,2.4-1.4,3.7h.4c-2.9.2-4.9.5-6.4,1h0c.5-1.8,1.9-3.3,3.8-4.1,1.2-.5,2.4-.6,3.5-.5h.1ZM337.7,422.6c-.5,1.1-.8,2.3-.8,3.5-2.5.6-5,1-7.2,1.2.5-1.9,1.9-3.5,3.9-4.4,1.4-.6,2.9-.7,4.2-.3h-.1ZM351,420.6h0c-1.9,1-3.8,2-5.8,2.8s-4,1.5-6.1,2h0c.5-2.3,2.2-4.4,4.6-5.4s5.2-.8,7.2.6h0ZM365.4,410.6h.1c-1.4.8-3.1,1.9-5.5,3.9-.3.3-.7.6-1,.8h0c-1.8,1.4-3.9,2.9-6.1,4.2-.9-.9-2-1.5-3.1-1.9.7-1.2,1.8-2.2,3.2-2.7,2.1-.9,4.3-.6,6,.4.4-.3.7-.6,1-.8.1-.1.3-.2.4-.3-1.1-.9-2.4-1.5-3.8-1.8.7-.9,1.6-1.7,2.8-2.2,2.1-.9,4.3-.6,6,.4h0Z"/>
  <g>
    <path class="st1" d="M288,170.5c-4.7.7-9.3,2.4-11.8,3.1-3.5,1.1-8.2,2.6-14.8,5,6.9,0,14.7-.7,20.4-1.5,1.7-2,4.1-4.6,6.2-6.7h0Z"/>
    <path class="st1" d="M289.7,162.6c-3.3.6-8.3,3.7-12,5.6-3.5,1.9-9.8,5.8-16.2,9.9,6.9-2.8,12-4.5,15.4-5.7,2.9-1,8.5-2.9,12.7-3.5.3-.3.6-.5.8-.7,2.1-1.7,4.6-3.4,7.5-4.3-2.1-1.6-5-1.9-8.2-1.3h0Z"/>
    <path class="st1" d="M285.5,175.4c-2.6,2.9-8.8,9.6-12.7,14,3.2-2.5,9-7.1,10.9-8.4,2.4-1.7,6.3-4.4,9-5.8,0-1.1.2-2,.3-2.8.5-2.5,2.1-5.6,3.8-6.7-4.1,2-8.6,6.5-11.4,9.7h.1Z"/>
    <path class="st1" d="M284,181.9c-2,1.3-8.3,6-11.4,8.2,5.8-2,15.3-5.3,20.1-7.6,0-2.1-.1-4,0-5.7-2.7,1.4-6.3,3.6-8.6,5.1h-.1Z"/>
    <path class="st1" d="M313.5,172.4c.2.3.3.6.5,1,3.6,2.1,8.2,5.9,10.6,7.8,2.8,2.3,6.9,5.8,12.4,10.9-4.4-6.1-8.9-12-11.6-15-2.8-3.2-6.3-7.8-9.2-9.6-2.8-1.7-5.6-2.5-8.1-1.8,2.4,1.8,4.1,4.3,5.4,6.7h0Z"/>
    <path class="st1" d="M315,175.5c1.2,2.7,2.5,6,3.4,8.5,5.1,2.8,12.1,6.2,18.6,8.7-5.3-4.7-9.1-7.7-12-10-2-1.6-5.8-4.8-9.9-7.1h-.1Z"/>
    <path class="st1" d="M308.9,178.2c2,2.3,4.7,6.3,6.3,8.6,1.3,1.9,5.1,8.3,7.2,11.7-2.1-5.5-5.4-13.9-6.8-17.6-1.5-4-4-9.8-7.2-13.1,1.2,1.6,1.6,5.1,1.2,7.6-.2.8-.4,1.8-.7,2.8h0Z"/>
    <path class="st1" d="M322.3,199.3c-2.1-3.2-6.3-9.8-7.7-11.7-1.6-2.2-4.2-5.6-6.2-7.9-.6,1.6-1.3,3.4-2.1,5.3,3.6,3.9,11.3,10.4,16,14.3h0Z"/>
    <path class="st1" d="M303.5,165.3c-1.7,9-5.6,29.6-7.4,38.5,3.8-8,10.8-21.9,12-28.8.8-4.2-1.1-8.6-4.6-9.7h0Z"/>
    <path class="st1" d="M294.5,172.5c-1.3,6.8.2,22.3.9,31.2,1.5-9,5.1-29.6,6.8-38.6-3.6-.2-6.9,3.2-7.7,7.4h0Z"/>
  </g>
  <g>
    <path class="st4" d="M309.2,329.6c-1.8-.3-3.4.9-3.7,2.7s.9,3.4,2.7,3.7,3.4-.9,3.7-2.7-.9-3.4-2.7-3.7Z"/>
    <path class="st4" d="M307.2,328.9c.7-.3,1.4-.4,2.2-.2.4,0,.8.2,1.1.3h0c.4-2.4,1.5-4.6,3.2-6.4,1.7-1.7,3.9-2.9,6.4-3.3h.7c-.2-4.7-3.7-8.8-8.5-9.6-5.5-.8-10.6,2.9-11.5,8.4-.4,2.4.1,4.7,1.3,6.6,1.2,1.9,2.9,3.5,5.1,4.3h0ZM307.8,320.1c.1-.4.6-.6,1-.5s.6.6.5,1c-.4,1.2-.6,2.5-.5,3.7,0,.8.2,1.6.4,2.3.1.4-.1.8-.5.9h-.2c-.3,0-.7-.2-.8-.6-.3-.9-.4-1.8-.4-2.7,0-1.4.2-2.9.6-4.3h0v.2Z"/>
    <path class="st4" d="M286.7,325.2c-.6,4.2,1.4,8.5,5.4,10.5s2,.8,3,1c.8.1,1.5.1,2.3,0h1.1c2.3-.5,4.5-1.7,6-3.6v-.8c.1-.9.5-1.6,1.1-2.2-1.8-.9-3.4-2.2-4.5-3.9,0,0,0-.1-.1-.2-.1-.2-.3-.4-.4-.6,0-.2-.2-.3-.3-.5,0-.1-.1-.3-.2-.4-.9-2-1.3-4.3-1-6.7h0c0-.2,0-.5.1-.7-.4-.1-.8-.2-1.2-.3-4.2-.6-8.5,1.4-10.5,5.4s-.8,2-1,3h.2ZM296.1,328.6c.3-.3.7-.4,1.1-.1,1,.8,2.2,1.3,3.4,1.7.8.2,1.5.3,2.3.4.4,0,.7.4.7.8v.2c0,.3-.4.6-.8.6-.9,0-1.8-.2-2.7-.4-1.4-.4-2.7-1-3.9-1.9-.3-.3-.4-.7-.1-1.1h0v-.2Z"/>
    <path class="st4" d="M290.8,336.7c-.8,1.2-1.4,2.6-1.6,4.1-.5,3.1.5,6.3,2.9,8.7,1.6,1.6,3.5,2.5,5.6,2.8,3.1.5,6.3-.5,8.7-2.9,1.5-1.6,2.5-3.5,2.8-5.5v-2c0-1.8-.6-3.6-1.7-5.2-1.1-.3-2-1.1-2.6-2.1-1.8,1.9-4.2,3.1-6.7,3.4h-1.6c-.6,0-1.2,0-1.9-.1-1.2-.2-2.3-.5-3.4-1.1h0c-.2-.1-.4-.2-.6-.3h0v.2ZM301,342.3c1-.7,1.9-1.6,2.6-2.7.4-.7.8-1.4,1.1-2.1.1-.4.6-.6,1-.5h.2c.3.2.4.6.3.9-.3.9-.7,1.7-1.2,2.4-.8,1.2-1.8,2.2-3,3.1-.3.2-.8.2-1.1-.2s-.2-.8.2-1.1h0v.2Z"/>
    <path class="st4" d="M319.6,335.9c-1-.6-2.1-.9-3.3-1.1-1.4-.2-2.8-.1-4.2.3-.6,1-1.6,1.6-2.8,1.8,1.2,2.2,1.6,4.7,1.2,7.2h0c-.4,2.4-1.4,4.6-3.2,6.4l-.5.5c1.6,2,3.9,3.3,6.4,3.7,2,.3,4.2,0,6.1-1,3-1.5,4.9-4.3,5.3-7.4.3-2,0-4.2-1-6.1s-2.4-3.3-4.1-4.2h.1ZM316.3,343.5c-.4.1-.8-.1-.9-.5-.4-1.2-1-2.3-1.7-3.3-.5-.6-1-1.2-1.7-1.7-.3-.3-.4-.7-.1-1.1h.1c.3-.3.7-.3.9-.1.7.6,1.4,1.2,1.9,1.9.9,1.1,1.6,2.4,2,3.8.1.4-.1.8-.5.9h0Z"/>
    <path class="st4" d="M314.8,323.6c-1.5,1.5-2.4,3.4-2.7,5.5v1c.7.9,1.1,2,.9,3.2,1.2-.2,2.5-.2,3.7,0,1.3.2,2.6.6,3.8,1.3,2,1.1,3.7,2.7,4.8,4.9.1.2.2.4.3.6,3.4-1.3,5.9-4.3,6.5-7.9.2-1,.2-2.1,0-3.1-.7-4.4-4.2-7.7-8.4-8.3-1-.2-2.1-.2-3.2,0-2.2.4-4.1,1.4-5.5,2.9h-.2ZM321.2,328.8c0,.4-.3.8-.8.7-1.3,0-2.5.2-3.7.6-.7.3-1.4.6-2.1,1.1-.3.2-.8.1-1-.2v-.2c-.1-.3,0-.7.3-.9.8-.5,1.6-.9,2.4-1.2,1.3-.5,2.8-.7,4.2-.7s.8.3.7.8h0Z"/>
  </g>
  <g>
    <path class="st6" d="M419.8,82.6c-2.4-.5-6.9,1.6-8.9,1-.4,0-4.6-5.1-5.7-6.1-9.2-7.8-21.1-8.9-31.6-2.8-3.6,2.1-4.2,3.4-6.7,6.1-4.2,4.5-3.1,2.8-8.5,1.8-1.1-.2-3.5.5-3.3-.8s5.9-8.4,7.2-9.8c18-18.2,47-12,57.5,10.5h0Z"/>
    <path class="st6" d="M495.3,82.6c-2.2-.3-7,1.5-8.9.9-.6-.2-4.8-5.3-6-6.3-10.4-9-27.1-8.3-36.8,1.5-1.1,1.1-2.9,4.5-4.2,4.9-.5.2-8.9-.8-8.9-1.2,2.1-4.9,6.2-9.4,10.3-12.8,18.1-15.3,44.9-7.8,54.4,13.1h.1Z"/>
    <path class="st8" d="M481.4,86.2c-2.1,0-6.1,4.1-7.5,4.1s-4.2-3.2-5.9-3.8c-3.7-1.3-8.1-1.1-11.6.7-1.2.6-3.8,3.2-4.4,3.1-.4,0-5.6-3.1-6.2-3.6-2.1-1.6,1.4-4.1,2.8-5.3,7.1-5.8,17.3-6.9,25.3-2.3,1.2.7,8.4,6,7.5,7.1h0Z"/>
    <path class="st6" d="M368.9,86.2c-.9-.9,5.5-6.1,6.4-6.7,10.5-6.4,22.9-3.1,30.6,5.9,0,.5-7.1,4.8-7.5,4.8-.7,0-2.6-2.2-3.7-2.8-3.2-1.8-7.6-2.3-11.2-1.4s-6.1,4-7.1,4.2c-1.1.2-5.5-4.4-7.4-4h0Z"/>
    <path class="st6" d="M457.5,53.7c-2.2-.3-7,1.5-8.9.9-.6-.2-4.8-5.3-6-6.3-10.4-9-27.1-8.3-36.8,1.5-1.1,1.1-2.9,4.5-4.2,4.9-.5.2-8.9-.8-8.9-1.2,2.1-4.9,6.2-9.4,10.3-12.8,18.1-15.3,44.9-7.8,54.4,13.1h.1Z"/>
    <path class="st8" d="M443.6,57.3c-2.1,0-6.1,4.1-7.5,4.1s-4.2-3.2-5.9-3.8c-3.7-1.3-8.1-1.1-11.6.7-1.2.6-3.8,3.2-4.4,3.1-.4,0-5.6-3.1-6.2-3.6-2.1-1.6,1.4-4.1,2.8-5.3,7.1-5.8,17.3-6.9,25.3-2.3,1.2.7,8.4,6,7.5,7.1h0Z"/>
  </g>
</svg>