<?xml version="1.0" encoding="UTF-8"?>
<svg id="Layer_1" data-name="Layer 1" xmlns="http://www.w3.org/2000/svg" viewBox="0 0 500 500">
  <defs>
    <style>
      .cls-1 {
        fill: #e84b3b;
      }

      .cls-2 {
        fill: #303656;
      }

      .cls-3 {
        fill: #c49d63;
      }

      .cls-4 {
        fill: #fff;
      }

      .cls-5 {
        fill: #b1ae44;
      }

      .cls-6 {
        fill: #be4f28;
      }

      .cls-7 {
        fill: #fdffff;
      }
    </style>
  </defs>
  <g>
    <g>
      <path class="cls-3" d="M122.35,137.68s-4.76-18.83-5.39-21.33c-.94-3.7.34-7.68,4.12-10.73l-6.14-37.76c-.23-.89-26.95,6.81-26.95,6.81l12.56,36.13c4.78.88,7.79,3.77,8.73,7.48.63,2.5,5.39,21.33,5.39,21.33l7.67-1.94Z"/>
      <path class="cls-6" d="M116.96,116.35c.63,2.5,5.39,21.33,5.39,21.33l-7.67,1.94s-4.76-18.83-5.39-21.33l7.67-1.94Z"/>
      <g>
        <path class="cls-6" d="M112.32,76.96c-.52-.1-1.03-.09-1.52.02-.06-1.78-1.33-3.36-3.16-3.73-1.84-.37-3.63.6-4.37,2.25-.42-.32-.91-.55-1.47-.66-1.96-.4-3.87.87-4.26,2.83-.4,1.96.87,3.87,2.83,4.26.24.05.49.07.73.07,1.09.13,3.1.26,4.61.56,1.52.31,3.42.97,4.47,1.27.22.09.46.17.7.22,1.96.4,3.87-.87,4.26-2.83.4-1.96-.87-3.87-2.83-4.26Z"/>
        <path class="cls-3" d="M107.24,78.15c-.31,1.53-.83,2.71-1.17,2.64s-.36-1.36-.05-2.89c.31-1.53.83-2.71,1.17-2.64.34.07.36,1.36.05,2.89Z"/>
        <path class="cls-3" d="M102.4,78.42c.25,1.29.23,2.37-.05,2.43-.28.06-.72-.94-.98-2.23-.25-1.29-.23-2.37.05-2.43.28-.06.72.94.98,2.23Z"/>
        <path class="cls-3" d="M110.47,80.05c-.73,1.09-1.13,2.1-.89,2.26.24.16,1.03-.59,1.76-1.67.73-1.09,1.13-2.1.89-2.26-.24-.16-1.03.59-1.76,1.67Z"/>
      </g>
      <g>
        <path class="cls-6" d="M106.81,84.15c-1.09-1.05-2.8-1.05-3.88-.02-.74-1.34-2.42-1.84-3.77-1.12-1.33.71-1.86,2.34-1.22,3.69-1.5.29-2.5,1.73-2.23,3.24.26,1.49,1.65,2.49,3.13,2.3-.19,1.52.87,2.91,2.39,3.12,1.5.21,2.88-.8,3.15-2.27,1.38.65,3.04.07,3.71-1.31.66-1.36.13-2.98-1.18-3.7,1.04-1.12,1-2.87-.1-3.93Z"/>
        <path class="cls-3" d="M101.07,85.53c-.15-.29-.52-.4-.81-.25s-.4.52-.25.81c.13.25.41.36.67.3l.6,1.12c.04.07.13.1.2.06s.1-.13.06-.2l-.6-1.12c.2-.18.26-.47.13-.72Z"/>
        <path class="cls-3" d="M99.54,86.57c-.28-.17-.65-.08-.82.2-.17.28-.08.65.2.82.24.14.53.1.73-.08l1.09.66c.07.04.16.02.21-.05.04-.07.02-.16-.05-.21l-1.09-.66c.08-.25-.02-.54-.26-.68Z"/>
        <path class="cls-3" d="M98.76,88.25c-.33,0-.6.26-.6.6,0,.33.27.6.6.6.28,0,.51-.19.58-.44h1.27c.08,0,.15-.06.15-.14,0-.08-.07-.15-.15-.15h-1.27c-.07-.26-.3-.46-.57-.46Z"/>
        <path class="cls-3" d="M98.96,90.08c-.28.17-.38.54-.21.82.17.28.54.38.82.21.24-.14.34-.42.27-.68l1.09-.65c.07-.04.1-.13.05-.21-.04-.07-.13-.1-.21-.05l-1.09.65c-.19-.19-.49-.23-.72-.09Z"/>
        <path class="cls-3" d="M101.73,85.41c.02-.33.3-.58.63-.57.33.02.58.3.57.63-.01.28-.22.5-.48.55l-.07,1.27c0,.08-.08.15-.16.14-.08,0-.15-.08-.14-.16l.07-1.27c-.25-.08-.43-.32-.42-.6Z"/>
        <path class="cls-3" d="M103.55,85.71c.18-.27.56-.35.83-.16.27.18.35.56.16.83-.15.23-.44.32-.69.23l-.71,1.06c-.05.07-.14.09-.21.04s-.09-.14-.04-.21l.71-1.06c-.18-.2-.21-.5-.05-.73Z"/>
        <path class="cls-3" d="M104.96,86.9c.3-.14.66-.01.8.29.14.3.01.66-.29.8-.25.12-.54.04-.71-.16l-1.15.54c-.08.04-.16,0-.2-.07s0-.16.07-.2l1.15-.54c-.05-.26.08-.53.33-.65Z"/>
      </g>
      <path class="cls-6" d="M115.8,97.33c-1.88-1.73-3.83-1.96-4.53-1.06-.56-.54-1.18-.76-1.74-.62-.56.14-1,.63-1.24,1.37-1.04-.46-2.65.67-3.48,3.08-.72,2.08-.61,4.01-.52,5.91,1.47-1.21,2.98-2.42,4.04-4.34.1-.18.19-.37.27-.55.85,2.36,2.31,4.04,3.75,5.7.48-2.14.97-4.31.59-6.79.16.12.32.24.5.35,1.85,1.19,3.75,1.54,5.62,1.9-.82-1.72-1.65-3.47-3.27-4.95ZM107.17,100.17c-.54,1.16-1.06,2.03-1.57,2.9.3-.95.61-1.92,1.1-3.1.58-1.37,1.1-2.22,1.24-2.16.14.06-.14,1.02-.78,2.37ZM110.78,99.36c.34,1.46.5,2.64.65,3.8-.41-1.1-.83-2.21-1.23-3.65-.46-1.68-.59-2.84-.42-2.88.17-.04.6,1.04,1,2.74ZM113.76,98.5c-1.2-.89-1.9-1.59-1.81-1.71.09-.12.96.38,2.12,1.31,1,.8,1.73,1.51,2.45,2.21-.86-.52-1.73-1.04-2.75-1.8Z"/>
    </g>
    <g>
      <path class="cls-6" d="M124.37,69.65c2.15-2.08,5.4-6.36,6.43-9.81,1.08-3.6.78-6.91-1.23-7.52-2.01-.6-4.09,1.99-5.17,5.59-1.04,3.45-.69,8.81-.03,11.73Z"/>
      <path class="cls-6" d="M125.5,70.01c3.35-1.4,7.48-2.85,11.6-3.47,3.91-.59,5.56-2.63,4.67-4.53-.86-1.82-4.69-2.45-8.15-.6-3.18,1.7-6.34,5.93-8.12,8.59Z"/>
      <path class="cls-6" d="M123.31,69.35c-2.03-3.01-4.67-6.5-7.77-9.28-2.94-2.64-3.19-5.26-1.4-6.35,1.72-1.05,5.26.54,7.13,3.99,1.72,3.17,2.03,8.45,2.04,11.64Z"/>
      <path class="cls-6" d="M126.46,74.11c-.52,1.72-2.32,2.69-4.04,2.17-1.72-.52-2.69-2.32-2.17-4.04.52-1.72,2.32-2.69,4.04-2.17s2.69,2.32,2.17,4.04Z"/>
    </g>
  </g>
  <g>
    <g>
      <path class="cls-1" d="M77.17,42.1c-.16-7.58-2.63-14.17-7.99-21.85-5.36-7.68-12.45-10.21-16.11-11.35-4.11-1.27-10.08-1.52-15.92.44-5.84,1.96-10.65,4.84-14.54,8.83-1.79-.37-2.58,1.5-1.97,2.82.62,1.35,1.74,3.23,3.73,5.17-1.34-.62-3.67-1-4.94-.72-1.47.32-1.61,2.23-.1,3.21.82,2.24,3.16,5,5.02,6.62,1.89,1.64,4.47,4.97,7.18,7.48,3.4,3.15,8.02,5.95,12.16,7.59,3.53,1.4,7.67,3.17,9.31,4.51,1.58,1.3,3.57,3.78,2.79,6.79-.98,3.76-5.38,4.66-7.88,3.72-3.04-1.15-6.28-3.32-10.47-4.69-2.34-.77-5.41-1.42-8.98-1.56-1.19-.05-1.72,1.21-.75,1.82,1.28.8,2.41,1.63,3.42,2.5,2.54.21,6.28,1.13,8.37,2.09-2.24-.48-5-.89-7.17-.98,1.4,1.42,2.49,2.95,3.24,4.65,2.05-.02,4.25.15,5.74.49-1.69,0-3.65.09-5.42.28.19.51.35,1.03.49,1.57.21.84.35,1.71.43,2.59,1.62-.22,3.33-.54,4.82-.9-1.21.59-3,1.18-4.77,1.62.07,1.57-.09,3.17-.5,4.69,1.52-.55,3.1-1.21,4.46-1.85-1.15.9-2.96,1.94-4.74,2.77-.43,1.27-1.04,2.48-1.85,3.56-.61.82-.19,1.79.83,1.39,4.15-1.62,8.34-4.73,10.55-7.19,3.24-3.61,4.76-4.32,6.17-4.98,2.23-1.06,6.04-2.1,9.08-3.74,4.03-2.17,7.31-4.63,11.13-9.49,3.63-4.62,5.34-11.6,5.2-17.9Z"/>
      <path class="cls-4" d="M36.2,19.29c.5,1.57-.37,3.24-1.94,3.74-1.57.5-3.24-.37-3.74-1.94s.37-3.24,1.94-3.74c1.57-.5,3.24.37,3.74,1.94Z"/>
      <path class="cls-1" d="M35.1,19.64c.3.96-.23,1.98-1.18,2.29-.96.3-1.98-.23-2.29-1.18-.3-.96.23-1.98,1.18-2.29.96-.3,1.98.23,2.29,1.18Z"/>
      <path class="cls-4" d="M59.86,41.22c-.37,0-.79-.06-1.24-.18-.3-.08-.72-.22-1.23-.38-2.13-.69-6.1-1.98-9.74-1.91h0c-.24,0-.44-.2-.45-.44,0-.25.19-.45.44-.46,3.78-.07,7.85,1.24,10.03,1.95.49.16.9.29,1.19.37.95.26,1.59.15,1.8-.07.03-.03.12-.12.04-.35-.19-.57-.12-1.2.19-1.77.38-.68,1.09-1.22,1.86-1.4.45-.11.73-.26.85-.46.14-.24.12-.67-.08-1.37-.4-1.44.57-3.2,2.18-3.91.67-.3,1.06-.81,1.02-1.1-.03-.24-.37-.44-.93-.55-3.66-.73-11.31.99-15.2,2.9-.22.11-.49.02-.6-.21-.11-.22-.02-.49.21-.6,4.02-1.97,11.96-3.73,15.77-2.97,1.33.26,1.6.95,1.65,1.33.08.75-.55,1.58-1.55,2.02-1.19.53-1.96,1.84-1.68,2.85.2.72.34,1.47-.02,2.07-.25.42-.72.71-1.42.88-.52.12-1.02.5-1.28.96-.13.24-.26.62-.12,1.04.16.47.07.93-.24,1.25-.32.33-.82.5-1.44.5Z"/>
      <path class="cls-4" d="M39.49,40.27c3.85-1.13,6.66-3.74,8.19-6.37,2.18-3.73,2.95-8.7,2.45-13.67-.03-.35-.48-.33-.47,0,.2,4.74-1.3,10.28-2.93,13.04-1.27,2.14-3.77,5.36-7.4,6.61-.2.07-.11.44.15.39Z"/>
      <path class="cls-4" d="M51.8,33.66c-.16,0-.31-.1-.36-.26-.06-.2.05-.42.25-.48,1.66-.53,6.12-.92,7.65-.96.23,0,.39.16.39.37,0,.21-.16.39-.37.39-1.73.05-5.97.45-7.44.93-.04.01-.08.02-.12.02Z"/>
      <path class="cls-4" d="M57.81,37.04s-.05,0-.08,0c-1.23-.25-4.13-.59-5.75-.64-.21,0-.38-.18-.37-.39,0-.21.18-.37.38-.37,0,0,0,0,.01,0,1.66.05,4.61.4,5.87.65.21.04.34.24.3.45-.04.18-.2.31-.37.31Z"/>
      <path class="cls-3" d="M28.11,28.38c.67-1.12-.17-2.73-1.12-3.95-.97-1.26-3.28-4.39-4.39-6.27-1.79-.37-2.58,1.5-1.97,2.82.62,1.35,1.74,3.23,3.73,5.17-1.34-.62-3.67-1-4.94-.72-1.47.32-1.61,2.23-.1,3.21,1.22.07,3.36.45,4.94.84,1.58.38,3.17.04,3.85-1.09Z"/>
      <path class="cls-3" d="M50.63,48.7c-1.94-1.73-5.78-4.06-9.81-5.44-3.85-1.31-12.29-4.34-15.98-7.53,1.83,1.75,4.19,4.72,6.67,7.01,3.4,3.15,8.02,5.95,12.16,7.59,3.53,1.4,7.67,3.17,9.31,4.51,1.47,1.2,3.28,3.42,2.92,6.13.37-2.16.09-3.76-.57-5.83-.72-2.25-2.68-4.66-4.69-6.44Z"/>
    </g>
    <path class="cls-4" d="M59.73,46.83c-.72,0-1.42-.19-2.02-.58-.18-.12-.23-.36-.11-.54.12-.18.36-.23.54-.11.99.65,2.38.6,3.54-.13,1.08-.68,1.64-1.75,1.49-2.86-.03-.21.12-.41.34-.44.21-.03.41.12.44.34.19,1.42-.5,2.78-1.85,3.63-.75.47-1.57.71-2.38.71Z"/>
    <path class="cls-4" d="M67.24,46.85c-.67,0-1.31-.18-1.86-.54-.18-.12-.23-.36-.11-.54.12-.18.36-.23.54-.11.89.59,2.15.54,3.19-.12.97-.61,1.48-1.58,1.34-2.58-.03-.21.12-.41.34-.44.21-.03.41.12.44.34.18,1.31-.46,2.56-1.7,3.35-.68.43-1.45.65-2.18.65Z"/>
    <path class="cls-4" d="M63.63,52.68c-1.04-.12-1.96-.63-2.53-1.44-.12-.18-.08-.42.09-.55.18-.12.42-.08.55.09.62.88,1.82,1.3,3.04,1.08,1.14-.21,1.98-.93,2.22-1.92.05-.21.26-.34.48-.29.21.05.34.27.29.48-.32,1.29-1.38,2.23-2.84,2.5-.44.08-.88.1-1.3.04Z"/>
    <path class="cls-4" d="M67.1,58.24c-1.34,0-2.54-.68-3.08-1.76-.1-.19-.02-.43.17-.53.19-.1.43-.02.53.17.42.84,1.4,1.37,2.49,1.32,1.02-.04,1.83-.55,2.17-1.37.08-.2.31-.29.51-.21.2.08.3.31.21.51-.45,1.1-1.55,1.8-2.86,1.85-.05,0-.1,0-.14,0Z"/>
    <path class="cls-4" d="M67.48,40.35c-.54,0-1.07-.11-1.56-.35-.2-.09-.28-.33-.18-.52.09-.2.33-.28.52-.18,1.07.52,2.44.28,3.49-.59.98-.82,1.4-1.95,1.11-3.03-.06-.21.07-.42.28-.48.21-.06.42.07.48.28.37,1.39-.14,2.82-1.36,3.84-.82.68-1.82,1.04-2.78,1.04Z"/>
    <path class="cls-3" d="M78.86,38.87c1.07-.13,2.09-.21,3.02-.25-.18-.5-.61-1.09-1.03-1.52-1.13-1.16-.82-1.97,1.26-3.48.35-.26.57-.57.66-.91-1.34,0-3.23.03-4.77,0,1.61-.42,3.33-.72,4.73-.95-.09-.3-.37-.72-.6-1.05-1.15-1.64-.98-2.69.3-4.35.2-.25.5-.66.57-.91-1.61.31-4.86,1.05-6.84,1.49,1.72-.85,4.84-2.05,6.46-2.55-.2-.3-.66-.55-1.1-.69-1.89-.63-2.37-2.31-1.91-4.18.09-.37.14-.69.11-.97-1.26.58-4.11,2.19-6.24,3.41,1.67-1.53,4.34-3.59,5.65-4.38-.28-.19-.65-.34-1.13-.38-2.65-.23-2.98-1.16-2.71-3.28.04-.3.03-.58-.05-.85-1.22.76-3.65,2.44-5.24,3.42,1.32-1.44,3.4-3.38,4.59-4.31-.31-.2-.86-.32-1.36-.28-3.16.25-3.84-.37-4.1-2.23-.06-.4-.15-.96-.4-1.27-.95.75-2.37,1.91-3.72,3.03.99-1.44,1.97-2.72,2.82-3.64-.34-.11-.89-.02-1.29.11-3.78,1.23-4.72.88-5-1.29-.04-.34-.19-.92-.42-1.22-.92.98-1.68,1.9-2.47,3.11.21-1.17.53-2.22.98-3.34-.47-.04-1.27.14-2.01.52-1.65.84-2.76,1.56-4.56,3.2,3.66,1.14,10.76,3.67,16.11,11.35,5.36,7.68,7.82,14.27,7.99,21.85.01.63,0,1.27-.01,1.91.62-1.24,2.16-2.61,3.65-3.65.38-.27.74-.62.98-1-.92-.16-1.94-.33-2.92-.49Z"/>
  </g>
  <path class="cls-5" d="M150.36,349.57c-.42.16-.84.32-1.26.49-6.1,2.55-11.3,6.3-15.42,10.8-.72.09-1.46.28-2.17.58-1.99.83-3.48,2.33-4.29,4.09-.71.1-1.43.28-2.14.58-2.04.85-3.54,2.41-4.34,4.21-1.64-.21-3.38,0-5.05.69s-3.04,1.79-4.04,3.1c-1.85-.7-4.01-.73-6.04.12-.71.29-1.34.68-1.92,1.12-1.82-.66-3.93-.66-5.92.18-.71.3-1.36.68-1.94,1.14-6.1-.24-12.42.82-18.52,3.37-.42.17-.83.36-1.24.55,6.15-2.35,12.49-3.22,18.58-2.8-1.1,1.28-1.74,2.85-1.85,4.46.01,0,.03-.01.05-.02-.23.09-.45.17-.66.26-5.2,2.13-8.94,7.23-6.86,12.32,2.7,6.62,10,6.29,14.41,3.72,1.2,5.68,9.51,9.48,17.49,2.64,2.76,3.42,7.03,4.32,11.81,2.37,4.78-1.96,7.19-5.6,6.77-9.98,10.48-.72,13.75-9.27,10.63-14.16,4.93-1.27,10.37-6.15,7.67-12.77-2.08-5.09-8.32-6.11-13.52-3.98-.19.08-.39.17-.59.25.02,0,.03-.02.05-.02-1.25-1.21-2.93-1.95-4.74-2.08,3.98-4.63,9.06-8.52,15.05-11.24ZM130.82,373.94c-.5-.3-.63-.54-.57-.7.06-.16.34-.3.96-.25,1.44.1,4.4.43,7.52,1.16,3.26.76,3.37,1.87,3.07,2.64-.31.8-1.13,1.49-4.23.35-2.99-1.1-5.57-2.49-6.76-3.19ZM125.27,376.7c.15-.14.51-.15,1.12.21,1.41.82,4.24,2.67,7.01,5.01,2.9,2.46,2.4,3.69,1.66,4.37-.76.7-1.98,1.03-4.5-1.74-2.42-2.67-4.28-5.46-5.1-6.81-.35-.57-.34-.89-.19-1.04ZM121.43,390.3c-1.27-3.82-2-7.46-2.27-9.23-.12-.76.03-1.12.23-1.2.2-.08.53.06.97.68,1.03,1.44,3.09,4.58,4.82,8.22,1.79,3.77.98,4.82-.02,5.23-.97.39-2.41.3-3.73-3.7ZM110.8,391.19c.34-3.62,1.07-6.92,1.49-8.5.18-.69.44-.93.65-.94.21,0,.44.22.59.87.36,1.54.98,4.83,1.12,8.45.15,3.74-.96,4.37-1.99,4.4-1,.04-2.22-.5-1.87-4.28ZM101.37,389.45c1.71-2.71,3.6-5.02,4.55-6.11.41-.47.71-.56.87-.49.15.07.24.33.09.9-.35,1.34-1.23,4.14-2.59,7.02-1.4,2.99-2.48,3.07-3.26,2.72-.76-.34-1.45-1.2.34-4.04ZM102.09,377c-.81,1.1-1.29,2.4-1.43,3.72.15-.01.29-.02.44-.04-2.94.22-4.88.55-6.39.95.01,0,.03,0,.04-.01.54-1.78,1.89-3.34,3.82-4.14,1.16-.48,2.37-.63,3.51-.48ZM110.61,375.84c-.51,1.09-.79,2.26-.82,3.45-2.53.6-4.98,1.01-7.24,1.25.49-1.86,1.87-3.52,3.87-4.36,1.4-.58,2.87-.67,4.2-.34ZM123.92,373.83s-.04.02-.06.03c0,0,0,0,0,0-1.86,1.03-3.8,1.99-5.8,2.81-1.98.81-4.03,1.49-6.06,2.05,0,0,0,0,0,0-.01,0-.02,0-.03,0,.01,0,.02,0,.03,0,.52-2.31,2.19-4.39,4.65-5.42s5.2-.75,7.21.56c.02-.01.04-.02.06-.03ZM138.28,363.77s.09-.04.13-.07c-1.4.78-3.08,1.92-5.47,3.94-.33.28-.68.56-1.03.84,0,0,0,0,0,0-1.79,1.43-3.85,2.88-6.1,4.24-.88-.86-1.95-1.51-3.12-1.93.7-1.17,1.8-2.16,3.19-2.74,2.08-.87,4.33-.64,6.02.43.35-.28.7-.56,1.03-.84.14-.12.27-.22.4-.33-1.07-.92-2.39-1.54-3.83-1.75.69-.92,1.64-1.68,2.8-2.16,2.06-.86,4.27-.65,5.96.38Z"/>
  <g>
    <path class="cls-4" d="M130.19,447.18c-1.69-.26-3.28.9-3.54,2.6s.9,3.28,2.6,3.54,3.28-.9,3.54-2.6-.9-3.28-2.6-3.54Z"/>
    <path class="cls-4" d="M128.24,446.48c.64-.25,1.35-.34,2.08-.23.39.06.76.18,1.1.34,0-.03,0-.06.01-.09.36-2.35,1.46-4.49,3.09-6.15,1.61-1.66,3.75-2.83,6.21-3.24.23-.04.46-.07.68-.09-.18-4.57-3.57-8.53-8.26-9.24-5.32-.8-10.29,2.84-11.11,8.16-.35,2.3.14,4.52,1.22,6.38,1.11,1.88,2.85,3.37,4.97,4.16ZM128.78,437.97c.13-.38.55-.59.93-.45.38.13.59.55.46.93-.4,1.15-.57,2.37-.52,3.58.03.76.15,1.52.36,2.26.11.39-.11.79-.51.91-.06.02-.11.02-.17.03-.33.01-.64-.2-.73-.53-.24-.85-.38-1.72-.41-2.6-.06-1.39.15-2.79.6-4.12Z"/>
    <path class="cls-4" d="M108.45,442.9c-.62,4.06,1.39,8.23,5.26,10.18.94.47,1.92.78,2.91.93.73.11,1.47.13,2.19.08.06,0,.12,0,.18-.01.14-.01.29-.03.43-.05.12-.02.24-.03.36-.05.04,0,.07-.02.11-.02,2.25-.44,4.32-1.66,5.79-3.52-.01-.26,0-.53.04-.79.13-.85.52-1.59,1.07-2.17-1.78-.86-3.27-2.17-4.35-3.76-.04-.05-.07-.11-.1-.16-.13-.19-.25-.39-.36-.58-.09-.15-.16-.3-.24-.45-.06-.12-.13-.24-.19-.36-.92-1.94-1.29-4.17-.94-6.46h0c.04-.23.08-.46.13-.68-.39-.11-.78-.19-1.17-.25-4.06-.62-8.23,1.38-10.17,5.25-.47.94-.78,1.92-.93,2.91ZM117.52,446.22c.24-.32.7-.39,1.03-.14.97.73,2.08,1.28,3.24,1.6.73.21,1.49.33,2.26.36.4.02.72.36.71.76,0,.06-.01.12-.03.17-.09.32-.39.55-.73.53-.88-.03-1.76-.17-2.6-.41-1.34-.38-2.61-1-3.73-1.85-.32-.24-.39-.7-.14-1.03Z"/>
    <path class="cls-4" d="M112.4,454.05c-.81,1.21-1.32,2.55-1.53,3.93-.45,2.98.47,6.12,2.77,8.4,1.52,1.5,3.41,2.4,5.37,2.7,2.98.46,6.13-.47,8.41-2.78,1.49-1.51,2.39-3.37,2.7-5.32.02-.15.03-.3.05-.45.02-.17.04-.34.05-.51.01-.25.01-.5,0-.75,0-.05,0-.1,0-.16-.07-1.75-.61-3.48-1.61-4.99-1.1-.3-1.98-1.05-2.48-2-1.76,1.82-4.05,2.98-6.5,3.32-.19.03-.38.05-.57.07-.05,0-.1,0-.15.01-.25.02-.51.03-.76.03,0,0,0,0-.01,0-.6,0-1.2-.03-1.8-.12-1.13-.17-2.26-.53-3.34-1.07h0c-.21-.11-.41-.22-.61-.33ZM122.21,459.49c1-.7,1.86-1.58,2.53-2.59.42-.63.77-1.32,1.03-2.04.14-.38.56-.58.94-.44.06.02.11.05.15.08.28.18.4.54.28.86-.31.83-.71,1.62-1.19,2.34-.77,1.16-1.76,2.17-2.91,2.98-.33.23-.79.15-1.02-.18-.23-.33-.15-.79.18-1.02Z"/>
    <path class="cls-4" d="M140.29,453.27c-.99-.53-2.06-.89-3.17-1.07-1.32-.2-2.69-.12-4.02.24-.61.94-1.59,1.59-2.7,1.78,1.13,2.15,1.54,4.58,1.18,6.93,0,.01,0,.03,0,.04,0,0,0,.01,0,.02-.34,2.25-1.38,4.42-3.1,6.17-.17.17-.33.32-.5.47,1.56,1.98,3.79,3.23,6.19,3.6,1.96.3,4.03,0,5.93-.97,2.88-1.49,4.71-4.21,5.16-7.2.3-1.97,0-4.04-.97-5.94-.93-1.79-2.33-3.18-3.97-4.07ZM137.01,460.64c-.39.12-.8-.1-.92-.49-.36-1.17-.93-2.25-1.68-3.21-.47-.6-1.01-1.14-1.62-1.61-.32-.25-.37-.71-.12-1.03.04-.05.08-.09.12-.12.26-.21.63-.21.91,0,.7.55,1.32,1.17,1.86,1.86.86,1.09,1.52,2.34,1.93,3.69.12.39-.1.8-.49.92Z"/>
    <path class="cls-4" d="M135.57,441.35c-1.4,1.44-2.35,3.3-2.66,5.33-.05.33-.08.66-.09.99.7.84,1.05,1.96.89,3.12,1.2-.21,2.4-.23,3.57-.05,1.29.2,2.53.62,3.68,1.24,1.92,1.03,3.56,2.64,4.64,4.72.11.21.2.42.29.62,3.34-1.23,5.73-4.2,6.26-7.66.15-.98.15-2.01-.02-3.05-.7-4.28-4.08-7.44-8.14-8.06-.99-.15-2.01-.15-3.05.02-2.12.35-3.96,1.35-5.36,2.77ZM141.77,446.42c0,.41-.34.73-.74.72-1.22-.02-2.43.19-3.57.61-.71.26-1.4.61-2.04,1.04-.34.23-.79.14-1.02-.2-.03-.05-.06-.1-.08-.15-.12-.31,0-.67.28-.86.73-.49,1.52-.89,2.34-1.2,1.31-.48,2.7-.72,4.1-.7.41,0,.73.34.72.75Z"/>
  </g>
  <g>
    <path class="cls-4" d="M136.14,167.77c-2.16-.33-4.17,1.15-4.5,3.31s1.15,4.17,3.31,4.5,4.17-1.15,4.5-3.31-1.15-4.17-3.31-4.5Z"/>
    <path class="cls-4" d="M133.66,166.88c.82-.32,1.72-.44,2.65-.3.5.08.97.23,1.41.43,0-.04,0-.08.01-.12.46-2.99,1.86-5.72,3.93-7.83,2.05-2.11,4.78-3.61,7.91-4.12.29-.05.58-.08.87-.11-.23-5.82-4.54-10.86-10.51-11.77-6.78-1.02-13.1,3.62-14.15,10.39-.44,2.92.17,5.76,1.56,8.13,1.42,2.39,3.62,4.29,6.32,5.3ZM134.35,156.04c.17-.49.7-.75,1.19-.58.49.17.75.7.58,1.19-.51,1.47-.73,3.02-.67,4.56.04.97.19,1.93.46,2.87.14.5-.15,1.01-.64,1.15-.07.02-.14.03-.22.03-.42.02-.81-.26-.94-.68-.31-1.08-.48-2.2-.53-3.31-.07-1.77.19-3.55.77-5.24Z"/>
    <path class="cls-4" d="M108.46,162.32c-.79,5.17,1.77,10.48,6.7,12.96,1.2.6,2.45.99,3.7,1.18.93.14,1.87.17,2.79.1.07,0,.15-.01.22-.02.18-.02.36-.04.55-.07.15-.02.3-.04.45-.07.05,0,.09-.02.14-.03,2.86-.56,5.5-2.11,7.38-4.48-.01-.33,0-.67.05-1.01.17-1.08.66-2.03,1.36-2.77-2.26-1.1-4.16-2.76-5.54-4.79-.04-.07-.09-.13-.13-.2-.16-.24-.32-.49-.46-.74-.11-.19-.21-.38-.31-.58-.08-.16-.16-.31-.24-.46-1.17-2.48-1.65-5.31-1.2-8.23h0c.05-.3.1-.58.16-.87-.49-.14-.99-.25-1.49-.32-5.17-.79-10.48,1.76-12.96,6.69-.6,1.2-.99,2.45-1.19,3.7ZM120,166.55c.31-.41.9-.49,1.31-.18,1.24.93,2.65,1.63,4.13,2.04.93.26,1.9.42,2.88.45.51.02.92.45.9.97,0,.08-.02.15-.03.22-.11.41-.49.7-.94.68-1.13-.04-2.24-.22-3.31-.52-1.71-.48-3.32-1.27-4.75-2.35-.41-.31-.49-.9-.18-1.31Z"/>
    <path class="cls-4" d="M113.49,176.52c-1.03,1.53-1.68,3.25-1.94,5.01-.58,3.79.6,7.79,3.53,10.7,1.94,1.92,4.34,3.06,6.84,3.44,3.79.58,7.8-.6,10.71-3.54,1.9-1.92,3.04-4.3,3.43-6.78.03-.19.04-.38.06-.58.02-.22.05-.43.06-.65.02-.32.02-.64.01-.95,0-.07,0-.13,0-.2-.09-2.22-.77-4.43-2.05-6.35-1.4-.39-2.52-1.33-3.16-2.55-2.24,2.32-5.16,3.79-8.28,4.23-.24.04-.48.07-.73.09-.06,0-.13,0-.19.01-.32.03-.65.04-.97.04,0,0,0,0-.01,0-.76,0-1.53-.04-2.29-.16-1.44-.22-2.88-.67-4.25-1.36h0c-.27-.13-.52-.28-.77-.42ZM125.98,183.45c1.27-.89,2.37-2.01,3.22-3.3.54-.81.98-1.68,1.32-2.59.18-.49.71-.73,1.2-.56.07.03.14.06.2.1.35.23.51.69.36,1.1-.39,1.06-.9,2.06-1.52,2.98-.98,1.48-2.24,2.77-3.7,3.79-.42.3-1,.19-1.3-.23-.3-.42-.19-1,.23-1.3Z"/>
    <path class="cls-4" d="M148.99,175.53c-1.26-.68-2.62-1.14-4.03-1.36-1.68-.25-3.42-.16-5.12.31-.78,1.19-2.02,2.02-3.44,2.27,1.45,2.73,1.96,5.84,1.5,8.82,0,.02,0,.03,0,.05,0,0,0,.02,0,.03-.44,2.87-1.76,5.63-3.95,7.85-.21.21-.42.41-.64.6,1.98,2.52,4.82,4.11,7.88,4.58,2.5.38,5.13,0,7.55-1.24,3.67-1.9,6-5.36,6.58-9.16.38-2.5,0-5.14-1.24-7.56-1.18-2.28-2.97-4.04-5.06-5.19ZM144.83,184.91c-.49.15-1.01-.13-1.17-.62-.45-1.49-1.18-2.87-2.14-4.08-.6-.76-1.29-1.45-2.06-2.06-.41-.32-.48-.91-.16-1.31.05-.06.1-.11.16-.16.33-.26.81-.27,1.15,0,.89.7,1.68,1.49,2.37,2.37,1.1,1.39,1.94,2.98,2.46,4.69.15.49-.13,1.02-.62,1.17Z"/>
    <path class="cls-4" d="M142.99,160.35c-1.79,1.83-2.99,4.2-3.38,6.79-.06.41-.1.83-.12,1.26.89,1.07,1.34,2.5,1.14,3.98,1.52-.26,3.06-.29,4.55-.06,1.64.25,3.22.78,4.68,1.58,2.45,1.31,4.53,3.36,5.9,6.01.14.27.26.53.37.79,4.25-1.57,7.29-5.35,7.97-9.76.19-1.25.19-2.56-.02-3.88-.89-5.44-5.2-9.48-10.37-10.27-1.26-.19-2.56-.19-3.89.03-2.7.44-5.05,1.72-6.83,3.53ZM150.88,166.81c0,.52-.43.93-.95.92-1.55-.03-3.1.24-4.54.78-.91.34-1.78.78-2.59,1.32-.43.29-1.01.17-1.29-.26-.04-.06-.08-.13-.1-.2-.15-.4-.01-.85.36-1.1.94-.63,1.94-1.14,2.98-1.52,1.66-.62,3.44-.92,5.22-.89.52,0,.93.43.92.95Z"/>
  </g>
  <g>
    <path class="cls-1" d="M86.91,159.61c-.41-.22-1.42-.58-1.89-.58-.39,0-.76.14-.95.33-.29-.37-.6-.76-.93-1.17.23.11.49.21.73.23.64.04,1.92-.02,2.89-.21-.55-.3-1.92-.78-2.55-.78-.55,0-1.07.2-1.32.46-.42-.52-.86-1.06-1.31-1.6.32.16.69.31,1.04.33.83.06,2.5-.02,3.77-.27-.72-.39-2.51-1.02-3.32-1.02-.74,0-1.44.27-1.75.64-.22-.27-.44-.53-.66-.79-.26-.31-.58-.65-.95-1.02.38.2.84.37,1.25.4,1,.07,2.86,0,4.39-.31-.7-.57-2.87-1.25-3.86-1.26-.91,0-1.79.35-2.14.81-.47-.45-.99-.93-1.55-1.43.39.18.82.32,1.21.35,1.14.08,3.26,0,5.01-.35-.8-.65-3.27-1.43-4.4-1.43-1.03,0-2.01.39-2.42.9-.07-.06-.14-.12-.21-.18h.02c.26-.05.45-.27.44-.53l-.02-.7c1.43-.08,3.39-.4,5.11-.86-.94-.63-3.63-1.21-5-1.18-.05,0-.11,0-.16.01l-.02-.67c.98-.26,2.01-.59,3.01-.94-.6-.32-1.84-.62-3.05-.77l-.03-1.33c.27-.1.53-.2.79-.3-.21-.1-.48-.2-.81-.29l-.03-1.19,1.81-1.18c.19-.12.28-.34.24-.56-.04-.22-.2-.39-.41-.45l-3.17-.8c-.9-4.76-3.1-7.86-6.73-9.41,0-.1-.01-.19-.03-.28-.98-5.96-6.27-9.6-13.77-9.88.79-.9,1.16-2.07.9-3.64-.47-2.84-2.54-4.38-5.24-4.78.46-.11.89-.21,1.25-.34,1.37-.49,2.4-1.07,3.39-2.45-2.17-.55-3.45-.83-4.95-.25-1.33.52-2.25,1.61-2.84,3.06-.11.02-.22.03-.33.04-4.27.7-7.41,3.28-6.76,7.26.28,1.72,1.12,2.76,2.33,3.33-6.42,2.75-9.9,7.69-8.96,13.38.02.13.05.28.14.43-3.01,2.7-4.13,6.36-3.41,11.15l-2.63,1.72c-.19.12-.28.34-.25.56.04.22.2.39.41.45l2.15.54.28.91c-.3.21-.55.4-.73.57.3.02.6.03.91.04l.38,1.24c-1.12.53-2.23,1.23-2.7,1.73,1.08.01,2.19,0,3.22-.07l.19.63c-.07.02-.15.03-.22.06-1.31.4-3.67,1.81-4.36,2.71,1.81-.12,3.79-.45,5.18-.84l.26.85c.06.19.21.32.39.36-.01.02-.03.04-.04.07-.55-.35-1.61-.41-2.59-.08-1.07.36-3.17,1.89-3.71,2.76,1.77-.23,3.8-.83,4.86-1.27.37-.15.73-.43,1.04-.72-.38.65-.72,1.28-1.02,1.85-.48-.32-1.42-.38-2.29-.08-.94.32-2.78,1.66-3.26,2.42,1.55-.2,3.34-.73,4.26-1.11.38-.16.76-.47,1.06-.78-.23.46-.42.89-.57,1.27-.13.32-.25.64-.38.96-.41-.25-1.16-.28-1.86-.05-.78.26-2.27,1.43-2.83,2.03,1.29-.17,2.89-.62,3.66-.94.32-.13.63-.39.88-.65-.25.65-.5,1.31-.73,1.93-.32-.17-.88-.19-1.4-.02-.6.2-1.74,1.1-2.17,1.56.99-.13,2.22-.48,2.81-.72.22-.09.44-.27.62-.45-.18.49-.35.97-.51,1.41-.24-.12-.63-.14-1.01-.01-.44.15-1.29.81-1.6,1.15.73-.1,1.64-.35,2.07-.53.15-.06.3-.18.42-.3-.15.41-.28.78-.39,1.1-.18-.06-.43-.06-.67.02-.32.11-.93.59-1.16.83.53-.07,1.18-.26,1.5-.39.07-.03.14-.08.21-.13-.17.48-.28.82-.33.94-.15.45.23.56.36.2.04-.12.16-.48.33-.99.01.1.03.19.07.28.14.31.49.9.83,1.31,0-.33-.12-1.1-.28-1.4-.13-.25-.34-.43-.52-.49.12-.35.26-.76.41-1.2,0,.2.03.43.11.61.19.43.68,1.24,1.14,1.81,0-.46-.16-1.53-.38-1.94-.2-.38-.54-.65-.8-.7.16-.47.34-.96.52-1.47.02.27.07.58.19.81.29.57.99,1.64,1.66,2.38-.02-.63-.31-2.05-.63-2.6-.29-.48-.74-.84-1.1-.9.25-.69.52-1.39.79-2.05.03.36.11.78.27,1.09.39.73,1.35,2.1,2.24,3.04-.05-.81-.47-2.66-.91-3.36-.39-.62-.99-1.06-1.46-1.14.14-.34.28-.67.42-.97.2-.44.42-.89.65-1.33,0,.47.08,1.03.28,1.46.44.9,1.43,2.47,2.46,3.65.15-.89-.35-3.11-.84-3.97-.45-.78-1.18-1.35-1.75-1.44.4-.76.83-1.52,1.3-2.29,0,.55.1,1.23.36,1.73.53,1.01,1.7,2.78,2.9,4.1.14-1.02-.48-3.54-1.07-4.5-.53-.88-1.38-1.52-2.03-1.6.05-.09.12-.18.17-.27l1.64-.27c.3.85.89,2.04,1.61,3.25l3.25,14.18c.1.43.51.71.95.64l34.08-5.58c.44-.07.74-.47.7-.91l-1.47-14.97c.24-1.2.38-2.32.39-3.11,0-.05-.01-.11-.02-.16l1.46-.24c.15.12.3.24.44.36-.59.29-1.19,1.16-1.42,2.17-.25,1.1-.04,3.69.42,4.61.72-1.63,1.27-3.68,1.44-4.81.09-.56-.04-1.23-.21-1.76.69.58,1.35,1.16,1.96,1.75-.51.27-1.02,1.04-1.19,1.93-.19.97.04,3.23.47,4.03.6-1.44,1.04-3.25,1.17-4.25.06-.47-.05-1.02-.2-1.47.36.35.7.7,1.04,1.05.23.24.46.51.7.78-.42.22-.85.84-1.02,1.54-.19.8,0,2.68.21,3.47.54-1.18,1.01-2.78,1.15-3.6.06-.35,0-.77-.09-1.12.46.54.94,1.12,1.4,1.69-.32.18-.64.66-.75,1.21-.13.62.06,2.06.23,2.66.39-.91.72-2.15.81-2.79.04-.26-.01-.56-.08-.83.34.42.66.84.96,1.23-.24.13-.47.5-.54.92-.08.46.11,1.52.26,1.96.26-.69.46-1.61.5-2.08.02-.2-.03-.42-.09-.62.29.37.54.71.77,1.01-.15.12-.29.36-.34.63-.06.33.08,1.1.18,1.41.19-.5.33-1.16.37-1.5,0-.09,0-.19-.02-.28.32.43.55.73.63.84.24.3.56.07.27-.3-.08-.1-.29-.39-.61-.79.08.03.16.05.24.06.34.02,1.02,0,1.54-.11-.29-.16-1.03-.42-1.36-.42-.25,0-.5.08-.64.19-.21-.27-.45-.58-.72-.92.16.07.33.13.5.15.47.03,1.42-.01,2.14-.16ZM75.94,150.78c-.3-.25-.59-.49-.89-.74.42.19.88.36,1.34.4v.26s-.45.07-.45.07ZM76.34,148.59c-.82.22-1.55.59-1.91.97-.75-.6-1.5-1.19-2.22-1.74.57.23,1.25.48,1.9.48.63,0,1.39-.11,2.22-.29v.58ZM73.46,150.91c-.08-.01-.17-.01-.25,0l-.77.13c.02-.29.03-.57.02-.82-.03-.62-.28-1.26-.52-1.8.76.55,1.48,1.08,2.18,1.6-.23.19-.46.5-.66.89ZM62.23,152.71l4.62-3.02c-.02.63.06,1.43.19,2.23l-4.82.79ZM42.79,155.9c-.12-.77-.29-1.51-.5-2.09l5.22,1.31-4.72.77ZM36.78,156.88c-.13.02-.25.07-.35.15-.33-.32-.67-.57-.95-.68.49-.72,1.01-1.46,1.56-2.22-.06.59-.09,1.28.08,1.87.07.24.17.51.28.78l-.62.1ZM39.57,156.22c-.54-1.13-1.47-2.19-2.18-2.59.21-.29.43-.6.65-.9l1.46.37c.2.85.72,1.96,1.38,3.1l-1.23.2c-.03-.06-.05-.13-.08-.19ZM38.01,151.58l-.68-.17c.56-.28,1.08-.66,1.52-1-.26.35-.54.75-.84,1.17ZM39.37,150.91c-.01.31-.02.66,0,1.01l-.61-.15c.21-.28.41-.56.62-.85ZM37.22,149.58c.34,0,.7-.02,1.08-.04.4-.02.83-.04,1.26-.07-.15.19-.3.39-.47.62-.39-.24-1.08-.43-1.87-.51ZM41.6,152.48c-.61-.9-1.38-1.64-1.96-1.95.27-.36.54-.74.81-1.12,3.71-.27,8.37-.85,13.41-1.68s9.71-1.77,13.32-2.71c.38.27.77.55,1.14.81-.43.46-.9,1.36-1.19,2.35l-11.86,7.74-13.67-3.44ZM69,146.96c-.09-.3-.2-.59-.3-.86.26.19.51.37.77.55l-.47.31ZM69.03,145.47c.47.16,1.02.34,1.59.44l-.51.33c-.38-.28-.74-.54-1.07-.77ZM68.7,145.24c-.24-.16-.45-.31-.65-.44.39-.11.77-.21,1.14-.32.44-.13.84-.25,1.22-.37-.77.34-1.4.77-1.71,1.13ZM69.27,148.22s-.01-.07-.02-.1l1.19-.78c.33.24.67.48.99.71-.54.6-1.09,1.9-1.24,3.15,0,.06-.01.13-.02.2l-1.23.2c.26-1.29.4-2.51.32-3.39ZM76.27,145.95c-.48-.02-.92,0-1.26.05-1.34.22-2.71.9-3.21,1.5-.25-.19-.49-.37-.73-.55l1.6-1.04c1.08-.14,2.35-.44,3.59-.84l.02.88ZM75.77,141.09l1.6.4-3.14,2.05c-.76-.07-1.48-.08-2.01,0-.13.02-.26.05-.39.08,2.79-1.01,3.71-1.82,3.93-2.54ZM46.37,123.15c.87-.02,1.81-.12,2.77-.28,1.16-.19,2.25-.44,3.21-.78,6.92-.46,13.64,1.77,14.88,8.1-1.02.64-5.74,2.04-15.66,3.66s-14.84,1.81-16.01,1.52c-.81-6.16,4.41-10.35,10.79-12.23ZM35.9,137.08c2.08.23,6.5-.03,15.96-1.58s14.05-2.81,15.84-3.7c3.59,1.28,5.64,4.09,6.44,8.81-.66.94-6.69,3.2-20.54,5.47s-20.29,2.05-21.22,1.37c-.74-4.66.39-7.97,3.53-10.37ZM29.75,149.5l1.38-.9c.52.53,1.7.92,4.36.98-.09.01-.18.02-.27.03-.58.1-1.34.37-2.11.73l-3.35-.85ZM31.95,152.33c1.16-.02,2.31-.12,3.3-.3l2.08.52c-.15.22-.3.43-.45.66-.66-.41-2.18-.62-3.52-.4-.33.05-.73.17-1.15.33l-.25-.82ZM34.94,154.71c.61-.21,1.18-.66,1.65-1.06-.51.76-1.03,1.55-1.55,2.36-.44-.24-1.22-.36-2.05-.31l-.17-.56c.81-.09,1.54-.23,2.13-.43ZM33.67,157.9l-.14-.45c.4-.19.77-.48,1.09-.78-.25.4-.5.8-.74,1.19l-.21.03ZM35.32,156.58c-.04.32-.07.68-.07,1.05l-.71.12c.25-.39.51-.77.78-1.17ZM74.27,169.63l-32.53,5.33-3.8-16.57.25-.04c.6,1.06,1.35,2.18,2.12,3.26.15-.75.06-2.25-.19-3.57l1.75-.29c.35.52.72,1.02,1.09,1.48.06-.39.07-.99.03-1.66l8.61-1.41,3.65.92c.07.02.15.02.23,0s.15-.04.21-.08l3.1-2.02,8.64-1.42c.18.65.37,1.22.56,1.57.2-.56.39-1.15.56-1.75l1.75-.29c.18,1.33.57,2.79.96,3.45.39-1.26.74-2.57.97-3.76l.4-.07,1.66,16.92ZM74.68,150.99c-.1-.28-.22-.56-.34-.8.31.24.61.47.91.7l-.57.09Z"/>
    <path class="cls-7" d="M46.37,123.15c.87-.02,1.81-.12,2.77-.28,1.16-.19,2.25-.44,3.21-.78,6.92-.46,13.64,1.77,14.88,8.1-1.02.64-5.74,2.04-15.66,3.66s-14.84,1.81-16.01,1.52c-.81-6.16,4.41-10.35,10.79-12.23Z"/>
    <path class="cls-7" d="M35.9,137.08c2.08.23,6.5-.03,15.96-1.58s14.05-2.81,15.84-3.7c3.59,1.28,5.64,4.09,6.44,8.81-.66.94-6.69,3.2-20.54,5.47s-20.29,2.05-21.22,1.37c-.74-4.66.39-7.97,3.53-10.37Z"/>
    <path class="cls-1" d="M54.27,119.7c.68-.75,1-1.74.78-3.05-.39-2.38-2.2-4.27-6.05-4.07.17-.48.56-.9,1.17-1,1.72-.27,3.27-.87,4.31-2.08-1.78-.56-2.64-.53-3.92-.04-1.14.44-2.17,1.78-2.67,3.21-.09.01-.19.02-.28.04-3.65.6-6.34,2.77-5.79,6.11.24,1.45.95,2.32,1.98,2.79.93.36,2.07.5,2.93.47.75-.02,1.54-.11,2.37-.24,1-.16,1.93-.38,2.75-.67.91-.39,1.71-.73,2.42-1.46Z"/>
    <path class="cls-3" d="M75.94,150.78c-.3-.25-.59-.49-.89-.74.42.19.88.36,1.34.4v.26s-.45.07-.45.07Z"/>
    <path class="cls-3" d="M76.34,148.59c-.82.22-1.55.59-1.91.97-.75-.6-1.5-1.19-2.22-1.74.57.23,1.25.48,1.9.48.63,0,1.39-.11,2.22-.29v.58Z"/>
    <path class="cls-3" d="M73.46,150.91c-.08-.01-.17-.01-.25,0l-.77.13c.02-.29.03-.57.02-.82-.03-.62-.28-1.26-.52-1.8.76.55,1.48,1.08,2.18,1.6-.23.19-.46.5-.66.89Z"/>
    <path class="cls-3" d="M62.23,152.71l4.62-3.02c-.02.63.06,1.43.19,2.23l-4.82.79Z"/>
    <path class="cls-3" d="M36.78,156.88c-.13.02-.25.07-.35.15-.33-.32-.67-.57-.95-.68.49-.72,1.01-1.46,1.56-2.22-.06.59-.09,1.28.08,1.87.07.24.17.51.28.78l-.62.1Z"/>
    <path class="cls-3" d="M39.57,156.22c-.54-1.13-1.47-2.19-2.18-2.59.21-.29.43-.6.65-.9l1.46.37c.2.85.72,1.96,1.38,3.1l-1.23.2c-.03-.06-.05-.13-.08-.19Z"/>
    <path class="cls-1" d="M38.01,151.58l-.68-.17c.56-.28,1.08-.66,1.52-1-.26.35-.54.75-.84,1.17Z"/>
    <path class="cls-1" d="M39.37,150.91c-.01.31-.02.66,0,1.01l-.61-.15c.21-.28.41-.56.62-.85Z"/>
    <path class="cls-1" d="M37.22,149.58c.34,0,.7-.02,1.08-.04.4-.02.83-.04,1.26-.07-.15.19-.3.39-.47.62-.39-.24-1.08-.43-1.87-.51Z"/>
    <path class="cls-1" d="M41.6,152.48c-.61-.9-1.38-1.64-1.96-1.95.27-.36.54-.74.81-1.12,3.71-.27,8.37-.85,13.41-1.68s9.71-1.77,13.32-2.71c.38.27.77.55,1.14.81-.43.46-.9,1.36-1.19,2.35l-11.86,7.74-13.67-3.44Z"/>
    <path class="cls-1" d="M69,146.96c-.09-.3-.2-.59-.3-.86.26.19.51.37.77.55l-.47.31Z"/>
    <path class="cls-1" d="M69.03,145.47c.47.16,1.02.34,1.59.44l-.51.33c-.38-.28-.74-.54-1.07-.77Z"/>
    <path class="cls-1" d="M68.7,145.24c-.24-.16-.45-.31-.65-.44.39-.11.77-.21,1.14-.32.44-.13.84-.25,1.22-.37-.77.34-1.4.77-1.71,1.13Z"/>
    <path class="cls-3" d="M69.27,148.22s-.01-.07-.02-.1l1.19-.78c.33.24.67.48.99.71-.54.6-1.09,1.9-1.24,3.15,0,.06-.01.13-.02.2l-1.23.2c.26-1.29.4-2.51.32-3.39Z"/>
    <path class="cls-3" d="M76.27,145.95c-.48-.02-.92,0-1.26.05-1.34.22-2.71.9-3.21,1.5-.25-.19-.49-.37-.73-.55l1.6-1.04c1.08-.14,2.35-.44,3.59-.84l.02.88Z"/>
    <path class="cls-1" d="M75.77,141.09l1.6.4-3.14,2.05c-.76-.07-1.48-.08-2.01,0-.13.02-.26.05-.39.08,2.79-1.01,3.71-1.82,3.93-2.54Z"/>
    <path class="cls-1" d="M29.75,149.5l1.38-.9c.52.53,1.7.92,4.36.98-.09.01-.18.02-.27.03-.58.1-1.34.37-2.11.73l-3.35-.85Z"/>
    <path class="cls-3" d="M31.95,152.33c1.16-.02,2.31-.12,3.3-.3l2.08.52c-.15.22-.3.43-.45.66-.66-.41-2.18-.62-3.52-.4-.33.05-.73.17-1.15.33l-.25-.82Z"/>
    <path class="cls-3" d="M34.94,154.71c.61-.21,1.18-.66,1.65-1.06-.51.76-1.03,1.55-1.55,2.36-.44-.24-1.22-.36-2.05-.31l-.17-.56c.81-.09,1.54-.23,2.13-.43Z"/>
    <path class="cls-3" d="M33.67,157.9l-.14-.45c.4-.19.77-.48,1.09-.78-.25.4-.5.8-.74,1.19l-.21.03Z"/>
    <path class="cls-3" d="M35.32,156.58c-.04.32-.07.68-.07,1.05l-.71.12c.25-.39.51-.77.78-1.17Z"/>
    <path class="cls-3" d="M74.27,169.63l-32.53,5.33-3.8-16.57.25-.04c.6,1.06,1.35,2.18,2.12,3.26.15-.75.06-2.25-.19-3.57l1.75-.29c.35.52.72,1.02,1.09,1.48.06-.39.07-.99.03-1.66l8.61-1.41,3.65.92c.07.02.15.02.23,0s.15-.04.21-.08l3.1-2.02,8.64-1.42c.18.65.37,1.22.56,1.57.2-.56.39-1.15.56-1.75l1.75-.29c.18,1.33.57,2.79.96,3.45.39-1.26.74-2.57.97-3.76l.4-.07,1.66,16.92Z"/>
    <path class="cls-3" d="M74.68,150.99c-.1-.28-.22-.56-.34-.8.31.24.61.47.91.7l-.57.09Z"/>
    <path class="cls-3" d="M42.79,155.9c-.12-.77-.29-1.51-.5-2.09l5.22,1.31-4.72.77Z"/>
    <path class="cls-1" d="M53.39,165.21c.3,1.83,2.03,3.07,3.85,2.77s3.07-2.03,2.77-3.85-2.03-3.07-3.85-2.77-3.07,2.03-2.77,3.85Z"/>
  </g>
  <g>
    <path class="cls-1" d="M60.31,406.22c-19.17,0-34.71,15.54-34.71,34.71s15.54,34.71,34.71,34.71,34.71-15.54,34.71-34.71-15.54-34.71-34.71-34.71Z"/>
    <path class="cls-2" d="M73.97,434.92c7.72,22.21,29.46,49.86,47.03,65.08H0c17.57-15.22,39.31-42.86,47.03-65.08h26.94Z"/>
    <g>
      <path class="cls-4" d="M61.76,462.92c-.84,0-1.62-.42-2.08-1.12l-3.84-5.79-4.03,4.65c-.48.55-1.17.86-1.89.86-.13,0-.26,0-.38-.03-.85-.13-1.57-.69-1.91-1.49l-2.04-4.76-6.94,5.35c-.45.35-.99.52-1.53.52-.6,0-1.2-.22-1.68-.65-.9-.81-1.08-2.15-.44-3.18,4.83-7.75,8.4-14.99,10.61-21.53.34-1.02,1.3-1.7,2.37-1.7h25.06c1.07,0,2.02.68,2.37,1.7,2.28,6.74,5.99,14.21,11.03,22.21.65,1.04.46,2.39-.46,3.21-.47.42-1.06.63-1.66.63-.56,0-1.12-.19-1.58-.56l-7.01-5.72-1.5,4.51c-.31.92-1.12,1.58-2.08,1.69-.1.01-.2.02-.29.02-.86,0-1.66-.44-2.12-1.18l-2.48-4-3.37,5.22c-.46.71-1.24,1.14-2.08,1.14h-.01Z"/>
      <path class="cls-4" d="M73.03,436.57c2.46,7.27,6.45,15.06,11.28,22.74l-9.82-8.01-2.65,7.94-4.56-7.36-5.52,8.53-5.66-8.53-6.18,7.14-3.31-7.72-9.49,7.32c4.64-7.45,8.47-15,10.85-22.05h25.06M73.03,431.57h-25.06c-2.14,0-4.05,1.37-4.74,3.4-2.15,6.36-5.64,13.43-10.36,21.01-1.28,2.05-.9,4.73.89,6.35.95.86,2.15,1.29,3.36,1.29,1.07,0,2.15-.34,3.05-1.04l4.39-3.38.77,1.79c.68,1.58,2.12,2.71,3.83,2.97.26.04.51.06.77.06,1.44,0,2.82-.62,3.78-1.73l1.87-2.16,2.03,3.05c.93,1.4,2.49,2.23,4.17,2.23.01,0,.02,0,.03,0,1.69-.01,3.25-.87,4.17-2.29l1.23-1.9.4.65c.92,1.48,2.53,2.37,4.25,2.37.19,0,.39-.01.58-.03,1.93-.23,3.55-1.54,4.16-3.38l.36-1.07,4.21,3.43c.92.75,2.04,1.13,3.16,1.13,1.19,0,2.37-.42,3.31-1.26,1.83-1.62,2.22-4.34.92-6.41-4.94-7.83-8.56-15.13-10.78-21.68-.69-2.03-2.59-3.4-4.74-3.4h0Z"/>
    </g>
  </g>
  <g>
    <path class="cls-1" d="M75.32,314.13c5.69.89,11.37,2.87,14.35,3.79,4.29,1.33,9.94,3.15,18.02,6.14-8.45,0-17.92-.83-24.87-1.77-2.08-2.38-5.02-5.65-7.5-8.16Z"/>
    <path class="cls-1" d="M73.21,304.51c3.99.72,10.1,4.49,14.61,6.88,4.32,2.3,11.97,7.01,19.68,12.03-8.43-3.37-14.66-5.54-18.8-6.99-3.5-1.22-10.39-3.52-15.42-4.31-.36-.33-.7-.63-1.01-.89-2.58-2.13-5.57-4.18-9.08-5.2,2.56-1.93,6.04-2.26,10.02-1.54Z"/>
    <path class="cls-1" d="M78.38,320.11c3.18,3.58,10.67,11.72,15.41,17.01-3.84-3.01-11.02-8.62-13.29-10.19-2.89-2.01-7.64-5.32-10.95-7.08-.08-1.28-.21-2.43-.4-3.45-.56-3.02-2.61-6.81-4.63-8.1,5.03,2.4,10.43,7.97,13.85,11.81Z"/>
    <path class="cls-1" d="M80.13,327.97c2.4,1.58,10.11,7.25,13.85,10.01-7.02-2.41-18.69-6.42-24.42-9.26.1-2.58.14-4.92.08-6.99,3.3,1.7,7.69,4.4,10.48,6.23Z"/>
    <path class="cls-1" d="M44.28,316.42c-.2.34-.4.75-.62,1.19-4.42,2.54-10.03,7.14-12.86,9.54-3.35,2.83-8.39,7.08-15.05,13.25,5.4-7.45,10.85-14.58,14.07-18.27,3.35-3.85,7.72-9.55,11.18-11.65,3.46-2.1,6.83-3.03,9.91-2.15-2.92,2.21-4.97,5.19-6.62,8.1Z"/>
    <path class="cls-1" d="M42.45,320.21c-1.42,3.23-2.99,7.33-4.08,10.3-6.16,3.36-14.71,7.53-22.6,10.55,6.49-5.68,11.11-9.4,14.64-12.18,2.45-1.93,7.05-5.81,12.04-8.67Z"/>
    <path class="cls-1" d="M49.88,323.49c-2.46,2.83-5.71,7.62-7.69,10.53-1.55,2.28-6.25,10.09-8.76,14.27,2.53-6.64,6.62-16.92,8.31-21.4,1.82-4.82,4.87-11.94,8.71-15.98-1.41,1.93-1.98,6.2-1.42,9.22.19,1.02.48,2.14.86,3.36Z"/>
    <path class="cls-1" d="M33.56,349.16c2.51-3.92,7.68-11.97,9.36-14.3,1.95-2.71,5.08-6.8,7.56-9.57.69,1.95,1.55,4.12,2.57,6.5-4.33,4.7-13.79,12.62-19.49,17.38Z"/>
    <path class="cls-1" d="M56.36,307.78c2.02,10.9,6.87,35.99,9.07,46.84-4.64-9.76-13.12-26.69-14.64-35.03-.93-5.14,1.31-10.5,5.56-11.81Z"/>
    <path class="cls-1" d="M67.31,316.54c1.57,8.33-.29,27.17-1.14,37.94-1.83-10.91-6.27-36.09-8.28-46.98,4.44-.3,8.46,3.9,9.42,9.04Z"/>
  </g>
</svg>