<?xml version="1.0" encoding="UTF-8"?>
<svg id="Layer_1" xmlns="http://www.w3.org/2000/svg" version="1.1" viewBox="0 0 500 500">
  <!-- Generator: Adobe Illustrator 29.0.0, SVG Export Plug-In . SVG Version: 2.1.0 Build 186)  -->
  <defs>
    <style>
      .st0 {
        fill: #e84b3b;
      }

      .st1 {
        fill: #303656;
      }

      .st2 {
        fill: #c49d63;
      }

      .st3 {
        fill: #fff;
      }

      .st4 {
        fill: #b1ae44;
      }

      .st5 {
        fill: #be4f28;
      }

      .st6 {
        fill: #fdffff;
      }
    </style>
  </defs>
  <g>
    <g>
      <path class="st2" d="M227,209.6s-6.2-24.4-7-27.7c-1.2-4.8.4-10,5.4-13.9l-8-49c-.3-1.2-35,8.8-35,8.8l16.3,46.9c6.2,1.1,10.1,4.9,11.3,9.7.8,3.2,7,27.7,7,27.7l10-2.5h0Z"/>
      <path class="st5" d="M220,181.9c.8,3.2,7,27.7,7,27.7l-10,2.5s-6.2-24.4-7-27.7l10-2.5Z"/>
      <g>
        <path class="st5" d="M214,130.8c-.7-.1-1.3-.1-2,0,0-2.3-1.7-4.4-4.1-4.8-2.4-.5-4.7.8-5.7,2.9-.6-.4-1.2-.7-1.9-.9-2.5-.5-5,1.1-5.5,3.7s1.1,5,3.7,5.5c.3,0,.6,0,.9,0,1.4.2,4,.3,6,.7,2,.4,4.4,1.3,5.8,1.7.3.1.6.2.9.3,2.5.5,5-1.1,5.5-3.7s-1.1-5-3.7-5.5h0Z"/>
        <path class="st2" d="M207.4,132.3c-.4,2-1.1,3.5-1.5,3.4s-.5-1.8,0-3.7c.4-2,1.1-3.5,1.5-3.4.4,0,.5,1.8,0,3.7Z"/>
        <path class="st2" d="M201.1,132.7c.3,1.7.3,3.1,0,3.2-.4,0-.9-1.2-1.3-2.9s-.3-3.1,0-3.2c.4,0,.9,1.2,1.3,2.9Z"/>
        <path class="st2" d="M211.6,134.8c-.9,1.4-1.5,2.7-1.2,2.9s1.3-.8,2.3-2.2c.9-1.4,1.5-2.7,1.2-2.9s-1.3.8-2.3,2.2Z"/>
      </g>
      <g>
        <path class="st5" d="M206.9,140.1c-1.4-1.4-3.6-1.4-5,0-1-1.7-3.1-2.4-4.9-1.5-1.7.9-2.4,3-1.6,4.8-1.9.4-3.2,2.2-2.9,4.2.3,1.9,2.1,3.2,4.1,3-.2,2,1.1,3.8,3.1,4.1,1.9.3,3.7-1,4.1-2.9,1.8.8,3.9,0,4.8-1.7.9-1.8.2-3.9-1.5-4.8,1.4-1.4,1.3-3.7-.1-5.1h0Z"/>
        <path class="st2" d="M199.4,141.9c-.2-.4-.7-.5-1.1-.3s-.5.7-.3,1.1c.2.3.5.5.9.4l.8,1.5c0,0,.2.1.3,0s.1-.2,0-.3l-.8-1.5c.2-.2.3-.6.2-.9h0Z"/>
        <path class="st2" d="M197.4,143.3c-.4-.2-.8,0-1.1.3-.2.4-.1.8.3,1.1.3.2.7.1.9-.1l1.4.8c0,0,.2,0,.3,0,0,0,0-.2,0-.3l-1.4-.8c.1-.3,0-.7-.3-.9h0Z"/>
        <path class="st2" d="M196.4,145.4c-.4,0-.8.3-.8.8s.3.8.8.8.7-.2.8-.6h1.6c.1,0,.2,0,.2-.2s0-.2-.2-.2h-1.6c0-.3-.4-.6-.8-.6h0Z"/>
        <path class="st2" d="M196.7,147.8c-.4.2-.5.7-.3,1.1.2.4.7.5,1.1.3.3-.2.4-.6.4-.9l1.4-.8c0,0,.1-.2,0-.3,0,0-.2-.1-.3,0l-1.4.8c-.2-.2-.6-.3-.9-.1h0Z"/>
        <path class="st2" d="M200.3,141.8c0-.4.4-.8.8-.7.4,0,.8.4.7.8,0,.4-.3.7-.6.7v1.7c0,.1-.2.2-.3.2-.1,0-.2,0-.2-.2v-1.7c-.2,0-.5-.4-.4-.8h0Z"/>
        <path class="st2" d="M202.6,142.1c.2-.4.7-.4,1.1-.2s.4.7.2,1.1c-.2.3-.6.4-.9.3l-.9,1.4c0,0-.2.1-.3,0s-.1-.2,0-.3l.9-1.4c-.2-.3-.3-.7,0-.9h0Z"/>
        <path class="st2" d="M204.5,143.7c.4-.2.9,0,1,.4s0,.8-.4,1c-.3.2-.7,0-.9-.2l-1.5.7c-.1,0-.2,0-.3,0s0-.2,0-.3l1.5-.7c0-.3.1-.7.4-.8Z"/>
      </g>
      <path class="st5" d="M218.5,157.2c-2.4-2.2-5-2.6-5.9-1.4-.7-.7-1.5-1-2.3-.8-.7.2-1.3.8-1.6,1.8-1.4-.6-3.4.9-4.5,4-.9,2.7-.8,5.2-.7,7.7,1.9-1.6,3.9-3.1,5.2-5.6.1-.2.2-.5.4-.7,1.1,3.1,3,5.2,4.9,7.4.6-2.8,1.2-5.6.8-8.8.2.2.4.3.6.5,2.4,1.5,4.9,2,7.3,2.5-1.1-2.2-2.1-4.5-4.2-6.4h0ZM207.3,160.9c-.7,1.5-1.4,2.6-2,3.8.4-1.2.8-2.5,1.4-4,.8-1.8,1.4-2.9,1.6-2.8.2,0-.2,1.3-1,3.1ZM212,159.9c.4,1.9.6,3.4.9,4.9-.5-1.4-1.1-2.9-1.6-4.7-.6-2.2-.8-3.7-.6-3.7s.8,1.3,1.3,3.5ZM215.9,158.7c-1.6-1.2-2.5-2.1-2.3-2.2.1-.2,1.2.5,2.8,1.7,1.3,1,2.2,2,3.2,2.9-1.1-.7-2.2-1.3-3.6-2.3h0Z"/>
    </g>
    <g>
      <path class="st5" d="M229.6,121.3c2.8-2.7,7-8.2,8.4-12.7,1.4-4.7,1-9-1.6-9.8s-5.3,2.6-6.7,7.3c-1.4,4.5-.9,11.4,0,15.2Z"/>
      <path class="st5" d="M231.1,121.8c4.4-1.8,9.7-3.7,15-4.5,5.1-.8,7.2-3.4,6.1-5.9-1.1-2.4-6.1-3.2-10.6-.8-4.1,2.2-8.2,7.7-10.5,11.1h0Z"/>
      <path class="st5" d="M228.3,120.9c-2.6-3.9-6.1-8.4-10.1-12-3.8-3.4-4.1-6.8-1.8-8.2,2.2-1.4,6.8.7,9.2,5.2,2.2,4.1,2.6,11,2.6,15.1h0Z"/>
      <path class="st5" d="M232.4,127.1c-.7,2.2-3,3.5-5.2,2.8-2.2-.7-3.5-3-2.8-5.2.7-2.2,3-3.5,5.2-2.8s3.5,3,2.8,5.2Z"/>
    </g>
  </g>
  <g>
    <g>
      <path class="st0" d="M97.5,54.8c-.2-10.2-3.5-19.1-10.7-29.4-7.2-10.3-16.7-13.7-21.7-15.3-5.5-1.7-13.5-2-21.4.6-7.8,2.6-14.3,6.5-19.6,11.9-2.4-.5-3.5,2-2.7,3.8.8,1.8,2.3,4.3,5,7-1.8-.8-4.9-1.4-6.6-1-2,.4-2.2,3-.1,4.3,1.1,3,4.2,6.7,6.8,8.9,2.5,2.2,6,6.7,9.6,10.1,4.6,4.2,10.8,8,16.3,10.2,4.8,1.9,10.3,4.3,12.5,6.1,2.1,1.7,4.8,5.1,3.8,9.1-1.3,5.1-7.2,6.3-10.6,5-4.1-1.5-8.4-4.5-14.1-6.3-3.1-1-7.3-1.9-12.1-2.1-1.6,0-2.3,1.6-1,2.4,1.7,1.1,3.2,2.2,4.6,3.4,3.4.3,8.4,1.5,11.3,2.8-3-.7-6.7-1.2-9.6-1.3,1.9,1.9,3.3,4,4.4,6.2,2.8,0,5.7.2,7.7.7-2.3,0-4.9.1-7.3.4.3.7.5,1.4.7,2.1.3,1.1.5,2.3.6,3.5,2.2-.3,4.5-.7,6.5-1.2-1.6.8-4,1.6-6.4,2.2,0,2.1-.1,4.3-.7,6.3,2-.7,4.2-1.6,6-2.5-1.5,1.2-4,2.6-6.4,3.7-.6,1.7-1.4,3.3-2.5,4.8-.8,1.1-.2,2.4,1.1,1.9,5.6-2.2,11.2-6.4,14.2-9.7,4.4-4.9,6.4-5.8,8.3-6.7,3-1.4,8.1-2.8,12.2-5,5.4-2.9,9.8-6.2,15-12.8,4.9-6.2,7.2-15.6,7-24.1h0Z"/>
      <path class="st3" d="M42.4,24.2c.7,2.1-.5,4.4-2.6,5-2.1.7-4.4-.5-5-2.6s.5-4.4,2.6-5c2.1-.7,4.4.5,5,2.6Z"/>
      <path class="st0" d="M40.9,24.6c.4,1.3-.3,2.7-1.6,3.1-1.3.4-2.7-.3-3.1-1.6-.4-1.3.3-2.7,1.6-3.1,1.3-.4,2.7.3,3.1,1.6Z"/>
      <path class="st3" d="M74.2,53.6c-.5,0-1.1,0-1.7-.2-.4-.1-1-.3-1.7-.5-2.9-.9-8.2-2.7-13.1-2.6h0c-.3,0-.6-.3-.6-.6,0-.3.3-.6.6-.6,5.1,0,10.6,1.7,13.5,2.6.7.2,1.2.4,1.6.5,1.3.3,2.1.2,2.4,0,0,0,.2-.2,0-.5-.3-.8-.2-1.6.3-2.4.5-.9,1.5-1.6,2.5-1.9.6-.1,1-.3,1.1-.6.2-.3.2-.9,0-1.8-.5-1.9.8-4.3,2.9-5.3.9-.4,1.4-1.1,1.4-1.5,0-.3-.5-.6-1.2-.7-4.9-1-15.2,1.3-20.4,3.9-.3.1-.7,0-.8-.3-.1-.3,0-.7.3-.8,5.4-2.6,16.1-5,21.2-4,1.8.4,2.2,1.3,2.2,1.8.1,1-.7,2.1-2.1,2.7-1.6.7-2.6,2.5-2.3,3.8.3,1,.5,2,0,2.8-.3.6-1,1-1.9,1.2-.7.2-1.4.7-1.7,1.3-.2.3-.4.8-.2,1.4.2.6,0,1.2-.3,1.7-.4.4-1.1.7-1.9.7h0Z"/>
      <path class="st3" d="M46.8,52.4c5.2-1.5,9-5,11-8.6,2.9-5,4-11.7,3.3-18.4,0-.5-.7-.4-.6,0,.3,6.4-1.8,13.8-3.9,17.5-1.7,2.9-5.1,7.2-9.9,8.9-.3,0-.2.6.2.5h0Z"/>
      <path class="st3" d="M63.4,43.5c-.2,0-.4-.1-.5-.4,0-.3,0-.6.3-.7,2.2-.7,8.2-1.2,10.3-1.3.3,0,.5.2.5.5,0,.3-.2.5-.5.5-2.3,0-8,.6-10,1.2,0,0-.1,0-.2,0h0Z"/>
      <path class="st3" d="M71.4,48s0,0,0,0c-1.7-.3-5.5-.8-7.7-.9-.3,0-.5-.2-.5-.5,0-.3.2-.5.5-.5h0c2.2,0,6.2.5,7.9.9.3,0,.5.3.4.6,0,.2-.3.4-.5.4h0Z"/>
      <path class="st2" d="M31.5,36.4c.9-1.5-.2-3.7-1.5-5.3-1.3-1.7-4.4-5.9-5.9-8.4-2.4-.5-3.5,2-2.7,3.8.8,1.8,2.3,4.3,5,7-1.8-.8-4.9-1.4-6.6-1-2,.4-2.2,3-.1,4.3,1.6,0,4.5.6,6.6,1.1,2.1.5,4.3,0,5.2-1.5h0Z"/>
      <path class="st2" d="M61.8,63.7c-2.6-2.3-7.8-5.5-13.2-7.3-5.2-1.8-16.5-5.8-21.5-10.1,2.5,2.4,5.6,6.4,9,9.4,4.6,4.2,10.8,8,16.3,10.2,4.8,1.9,10.3,4.3,12.5,6.1,2,1.6,4.4,4.6,3.9,8.2.5-2.9.1-5.1-.8-7.8-1-3-3.6-6.3-6.3-8.7h0Z"/>
    </g>
    <path class="st3" d="M74,61.2c-1,0-1.9-.3-2.7-.8-.2-.2-.3-.5-.2-.7s.5-.3.7-.2c1.3.9,3.2.8,4.8-.2,1.5-.9,2.2-2.4,2-3.8,0-.3.2-.6.5-.6.3,0,.6.2.6.5.3,1.9-.7,3.7-2.5,4.9-1,.6-2.1,1-3.2,1h0Z"/>
    <path class="st3" d="M84.1,61.2c-.9,0-1.8-.2-2.5-.7-.2-.2-.3-.5-.2-.7s.5-.3.7-.2c1.2.8,2.9.7,4.3-.2,1.3-.8,2-2.1,1.8-3.5,0-.3.2-.6.5-.6.3,0,.6.2.6.5.2,1.8-.6,3.4-2.3,4.5-.9.6-2,.9-2.9.9h0Z"/>
    <path class="st3" d="M79.3,69.1c-1.4-.2-2.6-.9-3.4-1.9-.2-.2-.1-.6.1-.7.2-.2.6-.1.7.1.8,1.2,2.4,1.8,4.1,1.4,1.5-.3,2.7-1.3,3-2.6,0-.3.4-.5.6-.4.3,0,.5.4.4.6-.4,1.7-1.9,3-3.8,3.4-.6.1-1.2.1-1.7,0Z"/>
    <path class="st3" d="M83.9,76.5c-1.8,0-3.4-.9-4.1-2.4-.1-.3,0-.6.2-.7s.6,0,.7.2c.6,1.1,1.9,1.8,3.3,1.8,1.4,0,2.5-.7,2.9-1.8.1-.3.4-.4.7-.3.3.1.4.4.3.7-.6,1.5-2.1,2.4-3.9,2.5h-.2,0Z"/>
    <path class="st3" d="M84.4,52.5c-.7,0-1.4-.2-2.1-.5-.3-.1-.4-.4-.2-.7.1-.3.4-.4.7-.2,1.4.7,3.3.4,4.7-.8,1.3-1.1,1.9-2.6,1.5-4.1,0-.3,0-.6.4-.7.3,0,.6,0,.7.4.5,1.9-.2,3.8-1.8,5.2-1.1.9-2.4,1.4-3.7,1.4h0Z"/>
    <path class="st2" d="M99.8,50.5c1.4-.2,2.8-.3,4.1-.3-.2-.7-.8-1.5-1.4-2-1.5-1.6-1.1-2.7,1.7-4.7.5-.3.8-.8.9-1.2-1.8,0-4.3,0-6.4,0,2.2-.6,4.5-1,6.4-1.3-.1-.4-.5-1-.8-1.4-1.5-2.2-1.3-3.6.4-5.8.3-.3.7-.9.8-1.2-2.2.4-6.5,1.4-9.2,2,2.3-1.1,6.5-2.8,8.7-3.4-.3-.4-.9-.7-1.5-.9-2.5-.9-3.2-3.1-2.6-5.6.1-.5.2-.9.1-1.3-1.7.8-5.5,2.9-8.4,4.6,2.2-2.1,5.8-4.8,7.6-5.9-.4-.2-.9-.5-1.5-.5-3.6-.3-4-1.6-3.6-4.4,0-.4,0-.8,0-1.1-1.6,1-4.9,3.3-7,4.6,1.8-1.9,4.6-4.5,6.2-5.8-.4-.3-1.2-.4-1.8-.4-4.2.3-5.2-.5-5.5-3,0-.5-.2-1.3-.5-1.7-1.3,1-3.2,2.6-5,4.1,1.3-1.9,2.6-3.7,3.8-4.9-.5-.1-1.2,0-1.7.2-5.1,1.7-6.4,1.2-6.7-1.7,0-.5-.2-1.2-.6-1.6-1.2,1.3-2.3,2.5-3.3,4.2.3-1.6.7-3,1.3-4.5-.6,0-1.7.2-2.7.7-2.2,1.1-3.7,2.1-6.1,4.3,4.9,1.5,14.5,4.9,21.7,15.3,7.2,10.3,10.5,19.2,10.7,29.4,0,.8,0,1.7,0,2.6.8-1.7,2.9-3.5,4.9-4.9.5-.4,1-.8,1.3-1.3-1.2-.2-2.6-.4-3.9-.7h0Z"/>
  </g>
  <path class="st4" d="M192.9,285.1c-.3.1-.6.2-.9.3-4.4,1.8-8.1,4.5-11,7.7-.5,0-1,.2-1.5.4-1.4.6-2.5,1.7-3.1,2.9-.5,0-1,.2-1.5.4-1.5.6-2.5,1.7-3.1,3-1.2-.1-2.4,0-3.6.5s-2.2,1.3-2.9,2.2c-1.3-.5-2.9-.5-4.3,0-.5.2-1,.5-1.4.8-1.3-.5-2.8-.5-4.2.1-.5.2-1,.5-1.4.8-4.4-.2-8.9.6-13.2,2.4-.3.1-.6.3-.9.4,4.4-1.7,8.9-2.3,13.3-2-.8.9-1.2,2-1.3,3.2,0,0,0,0,0,0-.2,0-.3.1-.5.2-3.7,1.5-6.4,5.2-4.9,8.8,1.9,4.7,7.1,4.5,10.3,2.7.9,4.1,6.8,6.8,12.5,1.9,2,2.4,5,3.1,8.4,1.7,3.4-1.4,5.1-4,4.8-7.1,7.5-.5,9.8-6.6,7.6-10.1,3.5-.9,7.4-4.4,5.5-9.1-1.5-3.6-5.9-4.4-9.7-2.8-.1,0-.3.1-.4.2,0,0,0,0,0,0-.9-.9-2.1-1.4-3.4-1.5,2.8-3.3,6.5-6.1,10.7-8h0ZM179,302.5c-.4-.2-.4-.4-.4-.5s.2-.2.7-.2c1,0,3.1.3,5.4.8,2.3.5,2.4,1.3,2.2,1.9-.2.6-.8,1.1-3,.2-2.1-.8-4-1.8-4.8-2.3h0ZM175,304.4c.1,0,.4-.1.8.1,1,.6,3,1.9,5,3.6,2.1,1.8,1.7,2.6,1.2,3.1-.5.5-1.4.7-3.2-1.2-1.7-1.9-3.1-3.9-3.6-4.9-.2-.4-.2-.6-.1-.7h0ZM172.3,314.1c-.9-2.7-1.4-5.3-1.6-6.6,0-.5,0-.8.2-.9.1,0,.4,0,.7.5.7,1,2.2,3.3,3.4,5.9,1.3,2.7.7,3.4,0,3.7-.7.3-1.7.2-2.7-2.6h0ZM164.7,314.8c.2-2.6.8-4.9,1.1-6.1.1-.5.3-.7.5-.7.1,0,.3.2.4.6.3,1.1.7,3.4.8,6,.1,2.7-.7,3.1-1.4,3.1-.7,0-1.6-.4-1.3-3.1h0ZM158,313.5c1.2-1.9,2.6-3.6,3.2-4.4.3-.3.5-.4.6-.3.1,0,.2.2,0,.6-.2,1-.9,3-1.8,5-1,2.1-1.8,2.2-2.3,1.9-.5-.2-1-.9.2-2.9ZM158.5,304.6c-.6.8-.9,1.7-1,2.7.1,0,.2,0,.3,0-2.1.2-3.5.4-4.6.7,0,0,0,0,0,0,.4-1.3,1.3-2.4,2.7-3,.8-.3,1.7-.4,2.5-.3h0ZM164.6,303.8c-.4.8-.6,1.6-.6,2.5-1.8.4-3.6.7-5.2.9.3-1.3,1.3-2.5,2.8-3.1,1-.4,2-.5,3-.2h0ZM174.1,302.4s0,0,0,0h0c-1.3.7-2.7,1.4-4.1,2-1.4.6-2.9,1.1-4.3,1.5h0,0c.4-1.6,1.6-3.1,3.3-3.9s3.7-.5,5.1.4c0,0,0,0,0,0h0ZM184.3,295.2s0,0,0,0c-1,.6-2.2,1.4-3.9,2.8-.2.2-.5.4-.7.6h0c-1.3,1-2.7,2.1-4.4,3-.6-.6-1.4-1.1-2.2-1.4.5-.8,1.3-1.5,2.3-2,1.5-.6,3.1-.5,4.3.3.2-.2.5-.4.7-.6,0,0,.2-.2.3-.2-.8-.7-1.7-1.1-2.7-1.2.5-.7,1.2-1.2,2-1.5,1.5-.6,3-.5,4.3.3h0Z"/>
  <g>
    <path class="st3" d="M201.8,400.8c-1.8-.3-3.4.9-3.7,2.7s.9,3.4,2.7,3.7,3.4-.9,3.7-2.7-.9-3.4-2.7-3.7Z"/>
    <path class="st3" d="M199.8,400.1c.7-.3,1.4-.4,2.2-.2.4,0,.8.2,1.1.3,0,0,0,0,0,0,.4-2.4,1.5-4.6,3.2-6.4,1.7-1.7,3.9-2.9,6.4-3.3.2,0,.5,0,.7,0-.2-4.7-3.7-8.8-8.5-9.6-5.5-.8-10.6,2.9-11.5,8.4-.4,2.4.1,4.7,1.3,6.6,1.2,1.9,2.9,3.5,5.1,4.3h0ZM200.4,391.3c.1-.4.6-.6,1-.5s.6.6.5,1c-.4,1.2-.6,2.5-.5,3.7,0,.8.2,1.6.4,2.3.1.4-.1.8-.5.9,0,0-.1,0-.2,0-.3,0-.7-.2-.8-.6-.3-.9-.4-1.8-.4-2.7,0-1.4.2-2.9.6-4.3h0Z"/>
    <path class="st3" d="M179.3,396.4c-.6,4.2,1.4,8.5,5.4,10.5,1,.5,2,.8,3,1,.8.1,1.5.1,2.3,0,0,0,.1,0,.2,0,.1,0,.3,0,.4,0,.1,0,.2,0,.4,0,0,0,0,0,.1,0,2.3-.5,4.5-1.7,6-3.6,0-.3,0-.5,0-.8.1-.9.5-1.6,1.1-2.2-1.8-.9-3.4-2.2-4.5-3.9,0,0,0-.1-.1-.2-.1-.2-.3-.4-.4-.6,0-.2-.2-.3-.3-.5s-.1-.3-.2-.4c-.9-2-1.3-4.3-1-6.7h0c0-.2,0-.5.1-.7-.4-.1-.8-.2-1.2-.3-4.2-.6-8.5,1.4-10.5,5.4-.5,1-.8,2-1,3h0ZM188.7,399.8c.3-.3.7-.4,1.1-.1,1,.8,2.2,1.3,3.4,1.7.8.2,1.5.3,2.3.4.4,0,.7.4.7.8,0,0,0,.1,0,.2,0,.3-.4.6-.8.6-.9,0-1.8-.2-2.7-.4-1.4-.4-2.7-1-3.9-1.9-.3-.3-.4-.7-.1-1.1h0Z"/>
    <path class="st3" d="M183.4,407.9c-.8,1.2-1.4,2.6-1.6,4.1-.5,3.1.5,6.3,2.9,8.7,1.6,1.6,3.5,2.5,5.6,2.8,3.1.5,6.3-.5,8.7-2.9,1.5-1.6,2.5-3.5,2.8-5.5,0-.2,0-.3,0-.5,0-.2,0-.3,0-.5,0-.3,0-.5,0-.8v-.2c0-1.8-.6-3.6-1.7-5.2-1.1-.3-2-1.1-2.6-2.1-1.8,1.9-4.2,3.1-6.7,3.4-.2,0-.4,0-.6,0,0,0-.1,0-.2,0-.3,0-.5,0-.8,0h0c-.6,0-1.2,0-1.9-.1-1.2-.2-2.3-.5-3.4-1.1h0c-.2-.1-.4-.2-.6-.3h0ZM193.6,413.5c1-.7,1.9-1.6,2.6-2.7.4-.7.8-1.4,1.1-2.1.1-.4.6-.6,1-.5,0,0,.1,0,.2,0,.3.2.4.6.3.9-.3.9-.7,1.7-1.2,2.4-.8,1.2-1.8,2.2-3,3.1-.3.2-.8.2-1.1-.2s-.2-.8.2-1.1h0Z"/>
    <path class="st3" d="M212.2,407.1c-1-.6-2.1-.9-3.3-1.1-1.4-.2-2.8-.1-4.2.3-.6,1-1.6,1.6-2.8,1.8,1.2,2.2,1.6,4.7,1.2,7.2h0c-.4,2.4-1.4,4.6-3.2,6.4-.2.2-.3.3-.5.5,1.6,2,3.9,3.3,6.4,3.7,2,.3,4.2,0,6.1-1,3-1.5,4.9-4.3,5.3-7.4.3-2,0-4.2-1-6.1-1-1.9-2.4-3.3-4.1-4.2h0ZM208.9,414.7c-.4.1-.8-.1-.9-.5-.4-1.2-1-2.3-1.7-3.3-.5-.6-1-1.2-1.7-1.7-.3-.3-.4-.7-.1-1.1,0,0,0,0,.1-.1.3-.2.7-.2.9,0,.7.6,1.4,1.2,1.9,1.9.9,1.1,1.6,2.4,2,3.8.1.4-.1.8-.5.9h0Z"/>
    <path class="st3" d="M207.4,394.8c-1.5,1.5-2.4,3.4-2.7,5.5,0,.3,0,.7,0,1,.7.9,1.1,2,.9,3.2,1.2-.2,2.5-.2,3.7,0,1.3.2,2.6.6,3.8,1.3,2,1.1,3.7,2.7,4.8,4.9.1.2.2.4.3.6,3.4-1.3,5.9-4.3,6.5-7.9.2-1,.2-2.1,0-3.1-.7-4.4-4.2-7.7-8.4-8.3-1-.2-2.1-.2-3.2,0-2.2.4-4.1,1.4-5.5,2.9h0ZM213.8,400c0,.4-.3.8-.8.7-1.3,0-2.5.2-3.7.6-.7.3-1.4.6-2.1,1.1-.3.2-.8.1-1-.2,0,0,0-.1,0-.2-.1-.3,0-.7.3-.9.8-.5,1.6-.9,2.4-1.2,1.3-.5,2.8-.7,4.2-.7.4,0,.8.3.7.8h0Z"/>
  </g>
  <g>
    <path class="st3" d="M153.2,49.6c-1.8-.3-3.4.9-3.7,2.7-.3,1.8.9,3.4,2.7,3.7s3.4-.9,3.7-2.7-.9-3.4-2.7-3.7Z"/>
    <path class="st3" d="M151.2,48.9c.7-.3,1.4-.4,2.2-.2.4,0,.8.2,1.1.3,0,0,0,0,0,0,.4-2.4,1.5-4.6,3.2-6.4,1.7-1.7,3.9-2.9,6.4-3.3.2,0,.5,0,.7,0-.2-4.7-3.7-8.8-8.5-9.6-5.5-.8-10.6,2.9-11.5,8.4-.4,2.4.1,4.7,1.3,6.6,1.2,1.9,2.9,3.5,5.1,4.3ZM151.7,40.1c.1-.4.6-.6,1-.5s.6.6.5,1c-.4,1.2-.6,2.5-.5,3.7,0,.8.2,1.6.4,2.3.1.4-.1.8-.5.9,0,0-.1,0-.2,0-.3,0-.7-.2-.8-.6-.3-.9-.4-1.8-.4-2.7,0-1.4.2-2.9.6-4.3h0Z"/>
    <path class="st3" d="M130.7,45.2c-.6,4.2,1.4,8.5,5.4,10.5,1,.5,2,.8,3,1,.8.1,1.5.1,2.3,0,0,0,.1,0,.2,0,.1,0,.3,0,.4,0,.1,0,.2,0,.4,0,0,0,0,0,.1,0,2.3-.5,4.5-1.7,6-3.6,0-.3,0-.5,0-.8.1-.9.5-1.6,1.1-2.2-1.8-.9-3.4-2.2-4.5-3.9,0,0,0-.1-.1-.2-.1-.2-.3-.4-.4-.6,0-.2-.2-.3-.3-.5,0-.1-.1-.3-.2-.4-.9-2-1.3-4.3-1-6.7h0c0-.2,0-.5.1-.7-.4-.1-.8-.2-1.2-.3-4.2-.6-8.5,1.4-10.5,5.4-.5,1-.8,2-1,3h0ZM140.1,48.7c.3-.3.7-.4,1.1-.1,1,.8,2.2,1.3,3.4,1.7.8.2,1.5.3,2.3.4.4,0,.7.4.7.8,0,0,0,.1,0,.2,0,.3-.4.6-.8.6-.9,0-1.8-.2-2.7-.4-1.4-.4-2.7-1-3.9-1.9-.3-.3-.4-.7-.1-1.1h0Z"/>
    <path class="st3" d="M134.8,56.7c-.8,1.2-1.4,2.6-1.6,4.1-.5,3.1.5,6.3,2.9,8.7,1.6,1.6,3.5,2.5,5.6,2.8,3.1.5,6.3-.5,8.7-2.9,1.5-1.6,2.5-3.5,2.8-5.5,0-.2,0-.3,0-.5,0-.2,0-.3,0-.5,0-.3,0-.5,0-.8v-.2c0-1.8-.6-3.6-1.7-5.2-1.1-.3-2-1.1-2.6-2.1-1.8,1.9-4.2,3.1-6.7,3.4-.2,0-.4,0-.6,0,0,0-.1,0-.2,0-.3,0-.5,0-.8,0h0c-.6,0-1.2,0-1.9-.1-1.2-.2-2.3-.5-3.4-1.1h0c-.2-.1-.4-.2-.6-.3h0ZM144.9,62.4c1-.7,1.9-1.6,2.6-2.7.4-.7.8-1.4,1.1-2.1.1-.4.6-.6,1-.5,0,0,.1,0,.2,0,.3.2.4.6.3.9-.3.9-.7,1.7-1.2,2.4-.8,1.2-1.8,2.2-3,3.1-.3.2-.8.2-1.1-.2s-.2-.8.2-1.1h0Z"/>
    <path class="st3" d="M163.6,55.9c-1-.6-2.1-.9-3.3-1.1-1.4-.2-2.8-.1-4.2.3-.6,1-1.6,1.6-2.8,1.8,1.2,2.2,1.6,4.7,1.2,7.2h0c-.4,2.4-1.4,4.6-3.2,6.4-.2.2-.3.3-.5.5,1.6,2,3.9,3.3,6.4,3.7,2,.3,4.2,0,6.1-1,3-1.5,4.9-4.3,5.3-7.4.3-2,0-4.2-1-6.1-1-1.9-2.4-3.3-4.1-4.2h0ZM160.2,63.6c-.4.1-.8-.1-.9-.5-.4-1.2-1-2.3-1.7-3.3-.5-.6-1-1.2-1.7-1.7-.3-.3-.4-.7-.1-1.1,0,0,0,0,.1-.1.3-.2.7-.2.9,0,.7.6,1.4,1.2,1.9,1.9.9,1.1,1.6,2.4,2,3.8.1.4-.1.8-.5.9h0Z"/>
    <path class="st3" d="M158.7,43.6c-1.5,1.5-2.4,3.4-2.7,5.5,0,.3,0,.7,0,1,.7.9,1.1,2,.9,3.2,1.2-.2,2.5-.2,3.7,0,1.3.2,2.6.6,3.8,1.3,2,1.1,3.7,2.7,4.8,4.9.1.2.2.4.3.6,3.4-1.3,5.9-4.3,6.5-7.9.2-1,.2-2.1,0-3.1-.7-4.4-4.2-7.7-8.4-8.3-1-.2-2.1-.2-3.2,0-2.2.4-4.1,1.4-5.5,2.9h0ZM165.1,48.9c0,.4-.3.8-.8.7-1.3,0-2.5.2-3.7.6-.7.3-1.4.6-2.1,1.1-.3.2-.8.1-1-.2,0,0,0-.1,0-.2-.1-.3,0-.7.3-.9.8-.5,1.6-.9,2.4-1.2,1.3-.5,2.8-.7,4.2-.7.4,0,.8.3.7.8h0Z"/>
  </g>
  <g>
    <path class="st0" d="M143.9,202.7c-.6-.3-2.2-.9-2.9-.9s-1.2.2-1.5.5c-.4-.6-.9-1.2-1.4-1.8.4.2.8.3,1.1.4,1,0,2.9,0,4.4-.3-.8-.5-2.9-1.2-3.9-1.2-.8,0-1.6.3-2,.7-.6-.8-1.3-1.6-2-2.5.5.3,1.1.5,1.6.5,1.3,0,3.8,0,5.8-.4-1.1-.6-3.8-1.6-5.1-1.6s-2.2.4-2.7,1c-.3-.4-.7-.8-1-1.2-.4-.5-.9-1-1.5-1.6.6.3,1.3.6,1.9.6,1.5.1,4.4,0,6.7-.5-1.1-.9-4.4-1.9-5.9-1.9s-2.7.5-3.3,1.2c-.7-.7-1.5-1.4-2.4-2.2.6.3,1.3.5,1.9.5,1.7.1,5,0,7.7-.5-1.2-1-5-2.2-6.7-2.2-1.6,0-3.1.6-3.7,1.4-.1,0-.2-.2-.3-.3h0c.4,0,.7-.4.7-.8v-1.1c2.2-.1,5.2-.6,7.8-1.3-1.4-1-5.6-1.9-7.7-1.8,0,0-.2,0-.2,0v-1c1.5-.4,3.1-.9,4.6-1.4-.9-.5-2.8-.9-4.7-1.2v-2c.4-.2.8-.3,1.2-.5-.3-.2-.7-.3-1.2-.5v-1.8s2.7-1.8,2.7-1.8c.3-.2.4-.5.4-.9,0-.3-.3-.6-.6-.7l-4.9-1.2c-1.4-7.3-4.8-12-10.3-14.4,0-.2,0-.3,0-.4-1.5-9.1-9.6-14.7-21.1-15.1,1.2-1.4,1.8-3.2,1.4-5.6-.7-4.4-3.9-6.7-8-7.3.7-.2,1.4-.3,1.9-.5,2.1-.8,3.7-1.6,5.2-3.8-3.3-.8-5.3-1.3-7.6-.4-2,.8-3.4,2.5-4.3,4.7-.2,0-.3,0-.5,0-6.6,1.1-11.4,5-10.4,11.1.4,2.6,1.7,4.2,3.6,5.1-9.8,4.2-15.2,11.8-13.7,20.5,0,.2,0,.4.2.7-4.6,4.1-6.3,9.8-5.2,17.1l-4,2.6c-.3.2-.4.5-.4.9s.3.6.6.7l3.3.8.4,1.4c-.5.3-.8.6-1.1.9.5,0,.9,0,1.4,0l.6,1.9c-1.7.8-3.4,1.9-4.1,2.7,1.7,0,3.3,0,4.9-.1l.3,1c-.1,0-.2,0-.3,0-2,.6-5.6,2.8-6.7,4.2,2.8-.2,5.8-.7,7.9-1.3l.4,1.3c0,.3.3.5.6.5,0,0,0,0,0,.1-.8-.5-2.5-.6-4-.1-1.6.6-4.9,2.9-5.7,4.2,2.7-.4,5.8-1.3,7.5-1.9.6-.2,1.1-.7,1.6-1.1-.6,1-1.1,2-1.6,2.8-.7-.5-2.2-.6-3.5-.1-1.4.5-4.3,2.5-5,3.7,2.4-.3,5.1-1.1,6.5-1.7.6-.2,1.2-.7,1.6-1.2-.4.7-.6,1.4-.9,1.9-.2.5-.4,1-.6,1.5-.6-.4-1.8-.4-2.9,0-1.2.4-3.5,2.2-4.3,3.1,2-.3,4.4-1,5.6-1.4.5-.2,1-.6,1.3-1-.4,1-.8,2-1.1,3-.5-.3-1.4-.3-2.1,0-.9.3-2.7,1.7-3.3,2.4,1.5-.2,3.4-.7,4.3-1.1.3-.1.7-.4,1-.7-.3.8-.5,1.5-.8,2.2-.4-.2-1-.2-1.5,0-.7.2-2,1.2-2.5,1.8,1.1-.1,2.5-.5,3.2-.8.2,0,.5-.3.6-.5-.2.6-.4,1.2-.6,1.7-.3,0-.7,0-1,0-.5.2-1.4.9-1.8,1.3.8-.1,1.8-.4,2.3-.6.1,0,.2-.1.3-.2-.3.7-.4,1.3-.5,1.4-.2.7.4.9.5.3,0-.2.2-.7.5-1.5,0,.1,0,.3.1.4.2.5.8,1.4,1.3,2,0-.5-.2-1.7-.4-2.1-.2-.4-.5-.7-.8-.8.2-.5.4-1.2.6-1.8,0,.3,0,.7.2.9.3.7,1,1.9,1.8,2.8,0-.7-.2-2.3-.6-3-.3-.6-.8-1-1.2-1.1.2-.7.5-1.5.8-2.3,0,.4.1.9.3,1.2.4.9,1.5,2.5,2.5,3.6,0-1-.5-3.2-1-4-.4-.7-1.1-1.3-1.7-1.4.4-1.1.8-2.1,1.2-3.1,0,.6.2,1.2.4,1.7.6,1.1,2.1,3.2,3.4,4.7,0-1.2-.7-4.1-1.4-5.1-.6-.9-1.5-1.6-2.2-1.7.2-.5.4-1,.6-1.5.3-.7.6-1.4,1-2,0,.7.1,1.6.4,2.2.7,1.4,2.2,3.8,3.8,5.6.2-1.4-.5-4.8-1.3-6.1-.7-1.2-1.8-2.1-2.7-2.2.6-1.2,1.3-2.3,2-3.5,0,.8.2,1.9.6,2.7.8,1.6,2.6,4.3,4.5,6.3.2-1.6-.7-5.4-1.6-6.9-.8-1.4-2.1-2.3-3.1-2.5,0-.1.2-.3.3-.4l2.5-.4c.5,1.3,1.4,3.1,2.5,5l5,21.7c.2.7.8,1.1,1.5,1l52.2-8.6c.7-.1,1.1-.7,1.1-1.4l-2.3-22.9c.4-1.8.6-3.6.6-4.8,0,0,0-.2,0-.2l2.2-.4c.2.2.5.4.7.5-.9.4-1.8,1.8-2.2,3.3-.4,1.7,0,5.6.6,7.1,1.1-2.5,1.9-5.6,2.2-7.4.1-.9,0-1.9-.3-2.7,1.1.9,2.1,1.8,3,2.7-.8.4-1.6,1.6-1.8,2.9-.3,1.5,0,5,.7,6.2.9-2.2,1.6-5,1.8-6.5,0-.7,0-1.6-.3-2.3.5.5,1.1,1.1,1.6,1.6.4.4.7.8,1.1,1.2-.6.3-1.3,1.3-1.6,2.4-.3,1.2,0,4.1.3,5.3.8-1.8,1.5-4.3,1.8-5.5,0-.5,0-1.2-.1-1.7.7.8,1.4,1.7,2.1,2.6-.5.3-1,1-1.2,1.9-.2.9,0,3.2.4,4.1.6-1.4,1.1-3.3,1.2-4.3,0-.4,0-.9-.1-1.3.5.6,1,1.3,1.5,1.9-.4.2-.7.8-.8,1.4-.1.7.2,2.3.4,3,.4-1.1.7-2.5.8-3.2,0-.3,0-.6-.1-.9.4.6.8,1.1,1.2,1.5-.2.2-.4.5-.5,1,0,.5.1,1.7.3,2.2.3-.8.5-1.8.6-2.3,0-.1,0-.3,0-.4.5.7.8,1.1,1,1.3.4.5.9.1.4-.5-.1-.2-.5-.6-.9-1.2.1,0,.2,0,.4,0,.5,0,1.6,0,2.4-.2-.5-.2-1.6-.6-2.1-.6s-.8.1-1,.3c-.3-.4-.7-.9-1.1-1.4.2.1.5.2.8.2.7,0,2.2,0,3.3-.2h0ZM127.1,189.2c-.5-.4-.9-.8-1.4-1.1.6.3,1.4.5,2.1.6v.4h-.7ZM127.7,185.8c-1.3.3-2.4.9-2.9,1.5-1.1-.9-2.3-1.8-3.4-2.7.9.4,1.9.7,2.9.7,1,0,2.1-.2,3.4-.4v.9s0,0,0,0ZM123.3,189.4c-.1,0-.3,0-.4,0l-1.2.2c0-.4,0-.9,0-1.3,0-.9-.4-1.9-.8-2.8,1.2.8,2.3,1.7,3.3,2.5-.3.3-.7.8-1,1.4h0ZM106.1,192.1l7.1-4.6c0,1,0,2.2.3,3.4l-7.4,1.2h0ZM76.3,197c-.2-1.2-.4-2.3-.8-3.2l8,2-7.2,1.2ZM67.1,198.5c-.2,0-.4.1-.5.2-.5-.5-1-.9-1.5-1,.8-1.1,1.6-2.2,2.4-3.4,0,.9-.1,2,.1,2.9.1.4.3.8.4,1.2l-.9.2h0ZM71.4,197.5c-.8-1.7-2.3-3.4-3.3-4,.3-.5.7-.9,1-1.4l2.2.6c.3,1.3,1.1,3,2.1,4.8l-1.9.3c0,0,0-.2-.1-.3ZM69,190.4l-1-.3c.9-.4,1.7-1,2.3-1.5-.4.5-.8,1.1-1.3,1.8h0ZM71.1,189.4c0,.5,0,1,0,1.5l-.9-.2c.3-.4.6-.9.9-1.3h0ZM67.8,187.3c.5,0,1.1,0,1.7,0,.6,0,1.3,0,1.9-.1-.2.3-.5.6-.7.9-.6-.4-1.7-.7-2.9-.8h0ZM74.5,191.8c-.9-1.4-2.1-2.5-3-3,.4-.6.8-1.1,1.2-1.7,5.7-.4,12.8-1.3,20.6-2.6s14.9-2.7,20.4-4.2c.6.4,1.2.8,1.7,1.2-.6.7-1.4,2.1-1.8,3.6l-18.2,11.9-21-5.3h0ZM116.5,183.3c-.1-.5-.3-.9-.5-1.3.4.3.8.6,1.2.8l-.7.5h0ZM116.5,181c.7.3,1.6.5,2.4.7l-.8.5c-.6-.4-1.1-.8-1.6-1.2h0ZM116,180.7c-.4-.2-.7-.5-1-.7.6-.2,1.2-.3,1.7-.5.7-.2,1.3-.4,1.9-.6-1.2.5-2.2,1.2-2.6,1.7h0ZM116.9,185.2c0,0,0-.1,0-.2l1.8-1.2c.5.4,1,.7,1.5,1.1-.8.9-1.7,2.9-1.9,4.8,0,0,0,.2,0,.3l-1.9.3c.4-2,.6-3.9.5-5.2h0ZM127.6,181.7c-.7,0-1.4,0-1.9,0-2.1.3-4.2,1.4-4.9,2.3-.4-.3-.8-.6-1.1-.8l2.4-1.6c1.7-.2,3.6-.7,5.5-1.3v1.4s0,0,0,0ZM126.9,174.3l2.5.6-4.8,3.1c-1.2-.1-2.3-.1-3.1,0-.2,0-.4,0-.6.1,4.3-1.5,5.7-2.8,6-3.9h0ZM81.8,146.8c1.3,0,2.8-.2,4.3-.4,1.8-.3,3.5-.7,4.9-1.2,10.6-.7,20.9,2.7,22.8,12.4-1.6,1-8.8,3.1-24,5.6-15.2,2.5-22.7,2.8-24.5,2.3-1.2-9.5,6.8-15.9,16.5-18.7h0ZM65.7,168.2c3.2.4,10,0,24.5-2.4,15.1-2.5,21.5-4.3,24.3-5.7,5.5,2,8.6,6.3,9.9,13.5-1,1.4-10.3,4.9-31.5,8.4-21.2,3.5-31.1,3.1-32.5,2.1-1.1-7.1.6-12.2,5.4-15.9h0ZM56.3,187.2l2.1-1.4c.8.8,2.6,1.4,6.7,1.5-.1,0-.3,0-.4,0-.9.1-2.1.6-3.2,1.1l-5.1-1.3h0ZM59.7,191.5c1.8,0,3.5-.2,5.1-.5l3.2.8c-.2.3-.5.7-.7,1-1-.6-3.3-.9-5.4-.6-.5,0-1.1.3-1.8.5l-.4-1.3h0ZM64.3,195.2c.9-.3,1.8-1,2.5-1.6-.8,1.2-1.6,2.4-2.4,3.6-.7-.4-1.9-.6-3.1-.5l-.3-.9c1.2-.1,2.4-.4,3.3-.7h0ZM62.3,200.1l-.2-.7c.6-.3,1.2-.7,1.7-1.2-.4.6-.8,1.2-1.1,1.8,0,0-.3,0-.3,0ZM64.8,198.1c0,.5-.1,1.1-.1,1.6l-1.1.2c.4-.6.8-1.2,1.2-1.8h0ZM124.5,218.1l-49.9,8.2-5.8-25.4h.4c.9,1.6,2.1,3.3,3.2,4.9.2-1.1,0-3.5-.3-5.5l2.7-.4c.5.8,1.1,1.6,1.7,2.3,0-.6.1-1.5,0-2.5l13.2-2.2,5.6,1.4c.1,0,.2,0,.4,0s.2,0,.3-.1l4.8-3.1,13.2-2.2c.3,1,.6,1.9.9,2.4.3-.9.6-1.8.9-2.7l2.7-.4c.3,2,.9,4.3,1.5,5.3.6-1.9,1.1-3.9,1.5-5.8h.6c0-.1,2.6,25.8,2.6,25.8ZM125.2,189.5c-.2-.4-.3-.9-.5-1.2.5.4.9.7,1.4,1.1h-.9c0,.1,0,.1,0,.1Z"/>
    <path class="st6" d="M81.8,146.8c1.3,0,2.8-.2,4.3-.4,1.8-.3,3.5-.7,4.9-1.2,10.6-.7,20.9,2.7,22.8,12.4-1.6,1-8.8,3.1-24,5.6-15.2,2.5-22.7,2.8-24.5,2.3-1.2-9.5,6.8-15.9,16.5-18.7h0Z"/>
    <path class="st6" d="M65.7,168.2c3.2.4,10,0,24.5-2.4,15.1-2.5,21.5-4.3,24.3-5.7,5.5,2,8.6,6.3,9.9,13.5-1,1.4-10.3,4.9-31.5,8.4-21.2,3.5-31.1,3.1-32.5,2.1-1.1-7.1.6-12.2,5.4-15.9h0Z"/>
    <path class="st0" d="M93.9,141.5c1-1.2,1.5-2.7,1.2-4.7-.6-3.6-3.4-6.5-9.3-6.2.3-.7.9-1.4,1.8-1.5,2.6-.4,5-1.3,6.6-3.2-2.7-.9-4.1-.8-6,0-1.7.7-3.3,2.7-4.1,4.9-.1,0-.3,0-.4,0-5.6.9-9.7,4.2-8.9,9.4.4,2.2,1.5,3.5,3,4.3,1.4.5,3.2.8,4.5.7,1.1,0,2.4-.2,3.6-.4,1.5-.2,3-.6,4.2-1,1.4-.6,2.6-1.1,3.7-2.2h0Z"/>
    <path class="st2" d="M127.1,189.2c-.5-.4-.9-.8-1.4-1.1.6.3,1.4.5,2.1.6v.4h-.7Z"/>
    <path class="st2" d="M127.7,185.8c-1.3.3-2.4.9-2.9,1.5-1.1-.9-2.3-1.8-3.4-2.7.9.4,1.9.7,2.9.7,1,0,2.1-.2,3.4-.4v.9s0,0,0,0Z"/>
    <path class="st2" d="M123.3,189.4c-.1,0-.3,0-.4,0l-1.2.2c0-.4,0-.9,0-1.3,0-.9-.4-1.9-.8-2.8,1.2.8,2.3,1.7,3.3,2.5-.3.3-.7.8-1,1.4h0Z"/>
    <path class="st2" d="M106.1,192.1l7.1-4.6c0,1,0,2.2.3,3.4l-7.4,1.2h0Z"/>
    <path class="st2" d="M67.1,198.5c-.2,0-.4.1-.5.2-.5-.5-1-.9-1.5-1,.8-1.1,1.6-2.2,2.4-3.4,0,.9-.1,2,.1,2.9.1.4.3.8.4,1.2l-.9.2h0Z"/>
    <path class="st2" d="M71.4,197.5c-.8-1.7-2.3-3.4-3.3-4,.3-.5.7-.9,1-1.4l2.2.6c.3,1.3,1.1,3,2.1,4.8l-1.9.3c0,0,0-.2-.1-.3Z"/>
    <path class="st0" d="M69,190.4l-1-.3c.9-.4,1.7-1,2.3-1.5-.4.5-.8,1.1-1.3,1.8h0Z"/>
    <path class="st0" d="M71.1,189.4c0,.5,0,1,0,1.5l-.9-.2c.3-.4.6-.9.9-1.3h0Z"/>
    <path class="st0" d="M67.8,187.3c.5,0,1.1,0,1.7,0,.6,0,1.3,0,1.9-.1-.2.3-.5.6-.7.9-.6-.4-1.7-.7-2.9-.8h0Z"/>
    <path class="st0" d="M74.5,191.8c-.9-1.4-2.1-2.5-3-3,.4-.6.8-1.1,1.2-1.7,5.7-.4,12.8-1.3,20.6-2.6s14.9-2.7,20.4-4.2c.6.4,1.2.8,1.7,1.2-.6.7-1.4,2.1-1.8,3.6l-18.2,11.9-21-5.3h0Z"/>
    <path class="st0" d="M116.5,183.3c-.1-.5-.3-.9-.5-1.3.4.3.8.6,1.2.8l-.7.5h0Z"/>
    <path class="st0" d="M116.5,181c.7.3,1.6.5,2.4.7l-.8.5c-.6-.4-1.1-.8-1.6-1.2h0Z"/>
    <path class="st0" d="M116,180.7c-.4-.2-.7-.5-1-.7.6-.2,1.2-.3,1.7-.5.7-.2,1.3-.4,1.9-.6-1.2.5-2.2,1.2-2.6,1.7h0Z"/>
    <path class="st2" d="M116.9,185.2c0,0,0-.1,0-.2l1.8-1.2c.5.4,1,.7,1.5,1.1-.8.9-1.7,2.9-1.9,4.8,0,0,0,.2,0,.3l-1.9.3c.4-2,.6-3.9.5-5.2h0Z"/>
    <path class="st2" d="M127.6,181.7c-.7,0-1.4,0-1.9,0-2.1.3-4.2,1.4-4.9,2.3-.4-.3-.8-.6-1.1-.8l2.4-1.6c1.7-.2,3.6-.7,5.5-1.3v1.4s0,0,0,0Z"/>
    <path class="st0" d="M126.9,174.3l2.5.6-4.8,3.1c-1.2-.1-2.3-.1-3.1,0-.2,0-.4,0-.6.1,4.3-1.5,5.7-2.8,6-3.9h0Z"/>
    <path class="st0" d="M56.3,187.2l2.1-1.4c.8.8,2.6,1.4,6.7,1.5-.1,0-.3,0-.4,0-.9.1-2.1.6-3.2,1.1l-5.1-1.3h0Z"/>
    <path class="st2" d="M59.7,191.5c1.8,0,3.5-.2,5.1-.5l3.2.8c-.2.3-.5.7-.7,1-1-.6-3.3-.9-5.4-.6-.5,0-1.1.3-1.8.5l-.4-1.3h0Z"/>
    <path class="st2" d="M64.3,195.2c.9-.3,1.8-1,2.5-1.6-.8,1.2-1.6,2.4-2.4,3.6-.7-.4-1.9-.6-3.1-.5l-.3-.9c1.2-.1,2.4-.4,3.3-.7h0Z"/>
    <path class="st2" d="M62.3,200.1l-.2-.7c.6-.3,1.2-.7,1.7-1.2-.4.6-.8,1.2-1.1,1.8,0,0-.3,0-.3,0Z"/>
    <path class="st2" d="M64.8,198.1c0,.5-.1,1.1-.1,1.6l-1.1.2c.4-.6.8-1.2,1.2-1.8h0Z"/>
    <path class="st2" d="M124.5,218.1l-49.9,8.2-5.8-25.4h.4c.9,1.6,2.1,3.3,3.2,4.9.2-1.1,0-3.5-.3-5.5l2.7-.4c.5.8,1.1,1.6,1.7,2.3,0-.6.1-1.5,0-2.5l13.2-2.2,5.6,1.4c.1,0,.2,0,.4,0s.2,0,.3-.1l4.8-3.1,13.2-2.2c.3,1,.6,1.9.9,2.4.3-.9.6-1.8.9-2.7l2.7-.4c.3,2,.9,4.3,1.5,5.3.6-1.9,1.1-3.9,1.5-5.8h.6c0-.1,2.6,25.8,2.6,25.8Z"/>
    <path class="st2" d="M125.2,189.5c-.2-.4-.3-.9-.5-1.2.5.4.9.7,1.4,1.1h-.9c0,.1,0,.1,0,.1Z"/>
    <path class="st2" d="M76.3,197c-.2-1.2-.4-2.3-.8-3.2l8,2-7.2,1.2Z"/>
    <path class="st0" d="M92.5,211.3c.5,2.8,3.1,4.7,5.9,4.2s4.7-3.1,4.2-5.9-3.1-4.7-5.9-4.2c-2.8.5-4.7,3.1-4.2,5.9Z"/>
  </g>
  <g>
    <path class="st0" d="M94.4,353.3c-30,0-54.3,24.3-54.3,54.3s24.3,54.3,54.3,54.3,54.3-24.3,54.3-54.3-24.3-54.3-54.3-54.3h0Z"/>
    <path class="st1" d="M115.8,398.2c12.1,34.8,46.1,78,73.6,101.8H0c27.5-23.8,61.5-67.1,73.6-101.8h42.2Z"/>
    <g>
      <path class="st3" d="M96.7,440.3c-.7,0-1.4-.4-1.8-1l-7.2-10.9-7.8,9c-.4.5-1,.8-1.7.8s-.2,0-.3,0c-.8-.1-1.4-.6-1.7-1.3l-4.1-9.4-12.6,9.7c-.4.3-.9.5-1.4.5s-1.1-.2-1.5-.6c-.8-.7-1-1.9-.4-2.8,7.6-12.2,13.3-23.7,16.8-34,.3-.9,1.2-1.5,2.1-1.5h39.2c1,0,1.8.6,2.1,1.5,3.6,10.7,9.5,22.5,17.4,35.1.6.9.4,2.1-.4,2.9-.4.4-.9.6-1.5.6s-1-.2-1.4-.5l-12.9-10.5-3.1,9.4c-.3.8-1,1.4-1.8,1.5,0,0-.2,0-.3,0-.8,0-1.5-.4-1.9-1l-5.3-8.5-6.7,10.4c-.4.6-1.1,1-1.8,1h0Z"/>
      <path class="st3" d="M114.3,400.7c3.8,11.4,10.1,23.6,17.7,35.6l-15.4-12.5-4.1,12.4-7.1-11.5-8.6,13.4-8.9-13.4-9.7,11.2-5.2-12.1-14.9,11.5c7.3-11.7,13.3-23.5,17-34.5h39.2M114.3,396.3h-39.2c-1.9,0-3.6,1.2-4.2,3-3.4,10.2-9,21.5-16.5,33.6-1.1,1.8-.8,4.2.8,5.6.8.8,1.9,1.1,3,1.1s1.9-.3,2.7-.9l10.3-8,2.9,6.8c.6,1.4,1.9,2.4,3.4,2.6.2,0,.5,0,.7,0,1.3,0,2.5-.6,3.4-1.5l5.8-6.7,5.6,8.5c.8,1.2,2.2,2,3.7,2h0c1.5,0,2.9-.8,3.7-2l4.8-7.5,3.4,5.5c.8,1.3,2.2,2.1,3.8,2.1s.3,0,.5,0c1.7-.2,3.2-1.4,3.7-3l2.1-6.3,10.4,8.5c.8.7,1.8,1,2.8,1s2.1-.4,2.9-1.1c1.6-1.4,2-3.9.8-5.7-7.9-12.5-13.7-24.1-17.2-34.6-.6-1.8-2.3-3-4.2-3h0Z"/>
    </g>
  </g>
  <g>
    <path class="st0" d="M71,283.1c4.2.7,8.3,2.1,10.5,2.8,3.1,1,7.3,2.3,13.2,4.5-6.2,0-13.1-.6-18.2-1.3-1.5-1.7-3.7-4.1-5.5-6h0Z"/>
    <path class="st0" d="M69.5,276c2.9.5,7.4,3.3,10.7,5,3.2,1.7,8.8,5.1,14.4,8.8-6.2-2.5-10.7-4.1-13.7-5.1-2.6-.9-7.6-2.6-11.3-3.2-.3-.2-.5-.5-.7-.7-1.9-1.6-4.1-3.1-6.6-3.8,1.9-1.4,4.4-1.7,7.3-1.1h0Z"/>
    <path class="st0" d="M73.3,287.4c2.3,2.6,7.8,8.6,11.3,12.4-2.8-2.2-8.1-6.3-9.7-7.5-2.1-1.5-5.6-3.9-8-5.2,0-.9-.2-1.8-.3-2.5-.4-2.2-1.9-5-3.4-5.9,3.7,1.8,7.6,5.8,10.1,8.6h0Z"/>
    <path class="st0" d="M74.6,293.2c1.8,1.2,7.4,5.3,10.1,7.3-5.1-1.8-13.7-4.7-17.9-6.8,0-1.9.1-3.6,0-5.1,2.4,1.2,5.6,3.2,7.7,4.6h0Z"/>
    <path class="st0" d="M48.3,284.7c-.1.2-.3.5-.5.9-3.2,1.9-7.3,5.2-9.4,7-2.5,2.1-6.1,5.2-11,9.7,3.9-5.4,7.9-10.7,10.3-13.4,2.5-2.8,5.6-7,8.2-8.5,2.5-1.5,5-2.2,7.2-1.6-2.1,1.6-3.6,3.8-4.8,5.9h0Z"/>
    <path class="st0" d="M47,287.5c-1,2.4-2.2,5.4-3,7.5-4.5,2.5-10.8,5.5-16.5,7.7,4.7-4.2,8.1-6.9,10.7-8.9,1.8-1.4,5.2-4.2,8.8-6.3h0Z"/>
    <path class="st0" d="M52.4,289.9c-1.8,2.1-4.2,5.6-5.6,7.7-1.1,1.7-4.6,7.4-6.4,10.4,1.9-4.9,4.8-12.4,6.1-15.7,1.3-3.5,3.6-8.7,6.4-11.7-1,1.4-1.4,4.5-1,6.7.1.7.4,1.6.6,2.5h0Z"/>
    <path class="st0" d="M40.5,308.7c1.8-2.9,5.6-8.8,6.8-10.5,1.4-2,3.7-5,5.5-7,.5,1.4,1.1,3,1.9,4.8-3.2,3.4-10.1,9.2-14.3,12.7h0Z"/>
    <path class="st0" d="M57.2,278.4c1.5,8,5,26.3,6.6,34.3-3.4-7.1-9.6-19.5-10.7-25.6-.7-3.8,1-7.7,4.1-8.6h0Z"/>
    <path class="st0" d="M65.2,284.8c1.1,6.1-.2,19.9-.8,27.7-1.3-8-4.6-26.4-6.1-34.4,3.2-.2,6.2,2.9,6.9,6.6Z"/>
  </g>
</svg>