<?xml version="1.0" encoding="UTF-8"?>
<svg id="Layer_1" data-name="Layer 1" xmlns="http://www.w3.org/2000/svg" viewBox="0 0 500 500">
  <defs>
    <style>
      .cls-1 {
        fill: #b2824c;
      }

      .cls-2 {
        fill: #e84b3b;
      }

      .cls-3 {
        fill: #555568;
      }

      .cls-4 {
        fill: #303656;
      }

      .cls-5 {
        fill: #fff;
      }

      .cls-6 {
        fill: #b1ae44;
      }

      .cls-7 {
        fill: #fefefe;
      }

      .cls-8 {
        fill: #b28146;
      }

      .cls-9 {
        fill: #fdfefe;
      }
    </style>
  </defs>
  <path class="cls-3" d="M496.82,456.64c-.41.1-.91.2-1.5.31v-.62c.59.1,1.09.21,1.5.31Z"/>
  <path class="cls-1" d="M493.36,457.24c-.69.09-1.45.18-2.28.26.78-1.65,1.54-3.39,2.28-5.14v4.88Z"/>
  <path class="cls-4" d="M496.01,468.35c-.36-3.58-2.32-6.75-5.22-8.97.04,0,.08,0,.13-.01.1,0,.21-.02.31-.03.22-.02.43-.05.64-.07.08,0,.16-.02.23-.02,1.02-.11,1.9-.23,2.66-.35l.5-.07h-.09c1.1-.17,1.94-.36,2.58-.55v10.08h-1.74Z"/>
  <path class="cls-4" d="M497.76,494.72c-.67.71-3.94,1.57-9.27,2.2v-6.37c.98-.11,1.92-.23,2.81-.36,3.15-.48,5.17-1.01,6.46-1.55v6.09Z"/>
  <g>
    <g>
      <path class="cls-2" d="M456.57,459.02c.35-.15.72-.28,1.09-.41.17-.06.33-.11.5-.16.11-.03.24-.06.35-.09.47-.12.95-.23,1.44-.32h0c.83-.14,1.7-.23,2.62-.23,1.38,0,2.64.18,3.78.47,1.24.32,2.36.77,3.36,1.31.01,0,.02.01.03.02.33.18.66.37.97.57h0c.32.2.62.41.92.63.29-.21.6-.42.91-.62.3-.19.62-.38.95-.56,0,0,.02,0,.02-.01.98-.53,2.07-.99,3.29-1.31,1.17-.31,2.46-.49,3.89-.49.92,0,1.84.1,2.76.28h0c.21.04.43.09.64.14.34.08.67.16,1.01.27.11.03.23.08.34.11.42.14.83.29,1.24.46.2-.4.4-.8.6-1.21,0,0,0,0,0,0,3.61-7.39,7.09-16.9,8.29-21.2l-.43-.12v-16.3c0-8.34-3.78-14.87-8.61-14.87-1.95,0-3.71,1.07-5.14,2.89v-.19c.04-.6.06-1.21.06-1.83,0-8.68-3.94-15.48-8.96-15.48s-8.96,6.8-8.96,15.48c0,.62.03,1.23.06,1.83v.12c-1.52-2-3.42-3.19-5.52-3.19-5.07,0-9.04,6.85-9.04,15.6v17.58l-.73.2c1.27,4.53,4.44,13.12,8.26,20.64ZM457.83,456.95c-.92-1.87-1.79-3.79-2.6-5.68.96.17,2,.27,3.11.27,2.88,0,5.34-.63,6.87-1.65v6.37c-.71-.09-1.45-.15-2.24-.15-1.72,0-3.48.29-5.15.84ZM477.35,420.46v22.12c-1.36.6-3.24.94-5.2.94s-3.95-.37-5.32-1v-22.07c0-.74-.03-1.47-.09-2.18,1.48,1.97,3.35,3.14,5.41,3.14s3.81-1.11,5.28-2.97c-.05.66-.08,1.32-.08,2.01ZM466.84,443.75c1.49.56,3.36.89,5.32.89s3.73-.3,5.2-.83v12.28c-1.9.38-3.54,1.05-4.95,1.86h0c-.53,0-1.02,0-1.52,0-1.18-.68-2.52-1.26-4.04-1.65v-12.53ZM486.49,407.13c3.73,0,6.87,6.09,6.87,13.3s-3.15,13.3-6.87,13.3-6.87-6.09-6.87-13.3,3.15-13.3,6.87-13.3ZM479.78,430.11c1.61,3.42,4.07,5.57,6.88,5.57s5.27-2.15,6.88-5.57v8.75c-.97,2.98-2.44,6.99-4.1,11.01-.84.15-1.77.24-2.77.24-3.38,0-6.05-1.01-6.88-2.1v-17.9ZM486.65,451.54c.75,0,1.45-.06,2.13-.14-.82,1.91-1.67,3.8-2.51,5.53-1.61-.52-3.35-.82-5.16-.82-.46,0-.9.02-1.33.05v-6.27c1.54,1.01,3.99,1.65,6.87,1.65ZM472.44,392.84c3.73,0,6.87,6.09,6.87,13.3s-3.15,13.3-6.87,13.3-6.87-6.09-6.87-13.3,3.15-13.3,6.87-13.3ZM458.27,407.13c3.73,0,6.87,6.09,6.87,13.3s-3.15,13.3-6.87,13.3-6.87-6.09-6.87-13.3,3.15-13.3,6.87-13.3ZM458.35,435.68c2.81,0,5.27-2.15,6.88-5.57v17.9c-.82,1.1-3.49,2.1-6.88,2.1-1.42,0-2.71-.18-3.79-.47-1.23-2.96-2.28-5.79-3.08-8.16v-11.38c1.61,3.42,4.07,5.57,6.87,5.57Z"/>
      <path class="cls-2" d="M450.88,470.05l.02.02h3.66c2.4,0,4.59-.38,6.64-1.15-1.68-2.24-3.34-4.99-4.9-7.95-3.59,2.07-5.59,5.7-5.41,9.09ZM454.55,468.45h-1.91c.33-1.85,1.4-3.67,3.08-5.06.91,1.65,1.85,3.22,2.81,4.65-1.25.28-2.56.41-3.97.41Z"/>
      <path class="cls-2" d="M462.68,479.23c2.75,0,5.2-.32,7.72-1.42-2.49-1.54-4.95-3.76-7.7-6.85-.19-.22-.38-.44-.58-.67-2.33.95-4.82,1.41-7.57,1.41h-3.4c1.23,4.08,6.25,7.54,11.53,7.54ZM454.55,473.31c2.55,0,4.88-.36,7.08-1.11,1.78,1.98,3.46,3.62,5.12,4.97-1.31.27-2.65.37-4.08.37-3.77,0-7.05-1.91-8.8-4.23h.67Z"/>
      <path class="cls-2" d="M492.98,470.05c.18-3.38-1.82-7.02-5.42-9.09-1.56,2.96-3.22,5.71-4.9,7.95,2.05.78,4.24,1.15,6.64,1.15h3.66s.01-.01.02-.02ZM489.3,468.45c-1.41,0-2.73-.13-3.97-.41.96-1.43,1.89-3,2.81-4.65,1.68,1.39,2.75,3.21,3.08,5.06h-1.91Z"/>
      <path class="cls-2" d="M480.08,469.75c.1-.11.2-.22.29-.34-1.47-.75-2.88-1.7-4.26-2.88-.49-.42-1.01-.95-1.56-1.51-.77-.78-1.62-1.65-2.62-2.47-1,.82-1.86,1.69-2.62,2.47-.55.56-1.08,1.09-1.56,1.51-1.38,1.18-2.79,2.14-4.26,2.88.1.11.2.23.29.34,3.07,3.46,5.68,5.66,8.15,7.05,2.47-1.39,5.08-3.59,8.15-7.05ZM466.09,469.83c.93-.6,1.84-1.27,2.73-2.04.54-.46,1.09-1.02,1.67-1.6.46-.46.93-.95,1.44-1.43.51.48.99.96,1.44,1.43.58.59,1.12,1.14,1.67,1.6.89.77,1.8,1.45,2.73,2.04-2.14,2.28-4.04,3.89-5.84,5.02-1.8-1.13-3.69-2.74-5.84-5.02Z"/>
      <path class="cls-2" d="M492.7,471.69h-3.4c-2.76,0-5.25-.46-7.57-1.41-.19.23-.38.46-.58.67-2.75,3.09-5.21,5.31-7.7,6.85,2.52,1.1,4.97,1.42,7.72,1.42,5.28,0,10.3-3.46,11.53-7.54ZM482.22,472.2c2.2.75,4.53,1.11,7.08,1.11h.67c-1.75,2.32-5.03,4.23-8.8,4.23-1.42,0-2.76-.1-4.08-.37,1.66-1.35,3.35-2.99,5.12-4.97Z"/>
      <path class="cls-2" d="M467.78,460.08c-.33-.13-.68-.24-1.04-.35-.03,0-.06-.02-.09-.03-.32-.09-.66-.17-1-.24-.07-.01-.13-.03-.2-.04-.32-.06-.65-.1-.98-.14-.09,0-.18-.02-.27-.03-.42-.04-.85-.06-1.3-.06s-.85.03-1.26.06c-.16.01-.31.03-.46.05-.24.03-.48.07-.72.11-1.03.18-2,.46-2.88.83,1.59,3.02,3.28,5.81,4.97,8.01,1.47-.71,2.88-1.65,4.25-2.82.44-.38.92-.86,1.47-1.43.71-.72,1.52-1.54,2.48-2.35-.88-.61-1.87-1.15-2.97-1.58h0ZM467.1,462.85c-.53.54-.98,1-1.37,1.33-.89.76-1.78,1.41-2.69,1.95-1.04-1.46-2.06-3.14-3.06-4.93.91-.22,1.89-.35,2.94-.35,2,0,3.66.44,5.08,1.11-.32.31-.62.61-.89.89Z"/>
      <path class="cls-2" d="M495.15,454.12v-6.58c1.59-4,2.87-7.64,3.54-9.94l-1.66-.44c-.54,1.86-1.47,4.58-2.65,7.66-1.58,4.13-3.6,8.91-5.7,13.1-.31.61-.62,1.21-.93,1.81h0c3.69,1.98,6.46,5.42,6.46,9.91,0,.15-.02.29-.03.44h4.2v1.62h-4.2c-1.19,4.64-6.85,8.73-13.01,8.73-3.5,0-6.43-.6-9.25-2.01-2.81,1.41-5.75,2.01-9.25,2.01-6.16,0-11.82-4.08-13.01-8.73h-3.86v-1.62h4.07c0-.15-.03-.29-.03-.44,0-3.75,2.42-7.7,6.61-9.94-.02-.04-.04-.07-.06-.11h0c-.34-.64-.68-1.28-1.01-1.93h0c-.31-.6-.61-1.21-.91-1.81-.35-.72-.7-1.44-1.03-2.15-2.69-5.73-4.8-11.32-5.84-14.81l-1.7.44c.78,2.62,2.17,6.43,3.95,10.6v4.23c-4.4.71-4.85,1.54-4.85,2.45v38.28c0,3.17,9.75,4.38,17.8,4.84.12.06.26.1.41.1.11,0,.21-.03.31-.06,3.99.21,7.47.24,8.98.24,4.59,0,27.5-.25,27.5-5.11v-38.28c0-.92-.44-1.76-4.85-2.48ZM452.12,455.97c.22.47.44.95.66,1.42-.46-.05-.9-.11-1.31-.16v-1.18c.21-.03.43-.06.65-.08ZM449.04,456.35v.57c-.53-.09-.99-.19-1.37-.28.37-.1.84-.19,1.37-.29ZM453.49,459.39c-2.89,2.11-4.99,5.2-5.36,9.06h-.71v-10.08c1.2.36,3.09.71,6.07,1.02ZM453.09,496.74c-3.66-.59-5.92-1.28-6.47-1.87v-6.49c1.32.56,3.34,1.1,6.47,1.59v6.76ZM461.99,497.54c-2.76-.18-5.2-.42-7.28-.7v-6.54c2.2.29,4.65.52,7.28.68v6.56ZM487.06,497.14c-3.9.38-8.7.63-14.24.63-3.03,0-5.84-.08-8.41-.21v-6.42c2.68.13,5.51.21,8.41.21,5.12,0,10-.22,14.24-.62v6.41ZM497.57,494.65c-.64.68-3.78,1.51-8.9,2.11v-6.12c.94-.11,1.85-.22,2.69-.35,3.03-.46,4.96-.97,6.2-1.49v5.85ZM488.68,488.6v-5.53s-.61-.95-1.14-.95-.48.95-.48.95v5.52c-3.9.38-8.7.63-14.24.63-3.04,0-5.84-.08-8.41-.21v-4.52s-.76-.95-1.28-.95-1.15.95-1.15.95v4.42c-2.76-.18-5.2-.42-7.28-.7v-6.02s-.03-.95-.55-.95-1.07.95-1.07.95v5.97c-3.64-.55-5.88-1.2-6.47-1.75v-13.1h3.63c1.88,5.01,7.54,8.98,13.65,8.98,3.31,0,6.16-.56,8.88-1.85,2.72,1.28,5.57,1.85,8.88,1.85,6.11,0,11.77-3.96,13.65-8.98h2.27v13.11c-.69.71-3.82,1.57-8.9,2.19ZM496.64,456.64c-.41.1-.91.2-1.5.31v-.62c.59.1,1.09.21,1.5.31ZM493.53,457.24c-.69.09-1.45.18-2.28.26.78-1.65,1.54-3.39,2.28-5.14v4.88ZM495.83,468.45c-.36-3.58-2.32-6.75-5.22-8.97.04,0,.08,0,.13-.01.1,0,.21-.02.31-.03.22-.02.43-.05.64-.07.08,0,.16-.02.23-.02,1.02-.11,1.9-.23,2.66-.35l.5-.07h-.09c1.1-.17,1.94-.36,2.58-.55v10.08h-1.74Z"/>
      <path class="cls-2" d="M483.91,459.51c-.12-.03-.25-.05-.37-.07-.29-.05-.59-.1-.9-.14-.13-.02-.25-.03-.38-.04-.43-.04-.86-.06-1.31-.06s-.89.02-1.31.06c-.1,0-.19.02-.28.03-.33.04-.66.08-.98.14-.07.01-.14.03-.21.04-.34.07-.68.15-1,.24-.03,0-.06.02-.1.03-1.53.45-2.84,1.13-3.98,1.92.95.81,1.77,1.63,2.48,2.35.55.56,1.03,1.05,1.47,1.43,1.37,1.17,2.78,2.11,4.25,2.82,1.69-2.2,3.38-4.99,4.97-8.01-.39-.17-.8-.32-1.22-.45h0c-.37-.11-.75-.21-1.14-.29ZM480.81,466.14c-.91-.54-1.8-1.19-2.69-1.95-.39-.33-.84-.8-1.37-1.33-.27-.28-.57-.58-.89-.89,1.42-.67,3.08-1.11,5.08-1.11,1.05,0,2.02.13,2.94.35-1,1.79-2.03,3.47-3.06,4.93Z"/>
    </g>
    <path class="cls-1" d="M457.83,456.95c-.92-1.87-1.79-3.79-2.6-5.68.96.17,2,.27,3.11.27,2.88,0,5.34-.63,6.87-1.65v6.37c-.71-.09-1.45-.15-2.24-.15-1.72,0-3.48.29-5.15.84Z"/>
    <path class="cls-1" d="M477.35,420.46v22.12c-1.36.6-3.24.94-5.2.94s-3.95-.37-5.32-1v-22.07c0-.74-.03-1.47-.09-2.18,1.48,1.97,3.35,3.14,5.41,3.14s3.81-1.11,5.28-2.97c-.05.66-.08,1.32-.08,2.01Z"/>
    <path class="cls-1" d="M466.84,443.75c1.49.56,3.36.89,5.32.89s3.73-.3,5.2-.83v12.28c-1.9.38-3.54,1.05-4.95,1.86h0c-.53,0-1.02,0-1.52,0-1.18-.68-2.52-1.26-4.04-1.65v-12.53Z"/>
    <path class="cls-5" d="M486.49,407.13c3.73,0,6.87,6.09,6.87,13.3s-3.15,13.3-6.87,13.3-6.87-6.09-6.87-13.3,3.15-13.3,6.87-13.3Z"/>
    <path class="cls-1" d="M479.78,430.11c1.61,3.42,4.07,5.57,6.88,5.57s5.27-2.15,6.88-5.57v8.75c-.97,2.98-2.44,6.99-4.1,11.01-.84.15-1.77.24-2.77.24-3.38,0-6.05-1.01-6.88-2.1v-17.9Z"/>
    <path class="cls-1" d="M486.65,451.54c.75,0,1.45-.06,2.13-.14-.82,1.91-1.67,3.8-2.51,5.53-1.61-.52-3.35-.82-5.16-.82-.46,0-.9.02-1.33.05v-6.27c1.54,1.01,3.99,1.65,6.87,1.65Z"/>
    <path class="cls-5" d="M472.44,392.84c3.73,0,6.87,6.09,6.87,13.3s-3.15,13.3-6.87,13.3-6.87-6.09-6.87-13.3,3.15-13.3,6.87-13.3Z"/>
    <path class="cls-5" d="M458.27,407.13c3.73,0,6.87,6.09,6.87,13.3s-3.15,13.3-6.87,13.3-6.87-6.09-6.87-13.3,3.15-13.3,6.87-13.3Z"/>
    <path class="cls-1" d="M458.35,435.68c2.81,0,5.27-2.15,6.88-5.57v17.9c-.82,1.1-3.49,2.1-6.88,2.1-1.42,0-2.71-.18-3.79-.47-1.23-2.96-2.28-5.79-3.08-8.16v-11.38c1.61,3.42,4.07,5.57,6.87,5.57Z"/>
    <path class="cls-1" d="M452.12,455.97c.22.47.44.95.66,1.42-.46-.05-.9-.11-1.31-.16v-1.18c.21-.03.43-.06.65-.08Z"/>
    <path class="cls-3" d="M449.04,456.35v.57c-.53-.09-.99-.19-1.37-.28.37-.1.84-.19,1.37-.29Z"/>
    <path class="cls-4" d="M454.55,468.45h-1.91c.33-1.85,1.4-3.67,3.08-5.06.91,1.65,1.85,3.22,2.81,4.65-1.25.28-2.56.41-3.97.41Z"/>
    <path class="cls-4" d="M454.55,473.31c2.55,0,4.88-.36,7.08-1.11,1.78,1.98,3.46,3.62,5.12,4.97-1.31.27-2.65.37-4.08.37-3.77,0-7.05-1.91-8.8-4.23h.67Z"/>
    <path class="cls-4" d="M489.3,468.45c-1.41,0-2.73-.13-3.97-.41.96-1.43,1.89-3,2.81-4.65,1.68,1.39,2.75,3.21,3.08,5.06h-1.91Z"/>
    <path class="cls-4" d="M466.09,469.83c.93-.6,1.84-1.27,2.73-2.04.54-.46,1.09-1.02,1.67-1.6.46-.46.93-.95,1.44-1.43.51.48.99.96,1.44,1.43.58.59,1.12,1.14,1.67,1.6.89.77,1.8,1.45,2.73,2.04-2.14,2.28-4.04,3.89-5.84,5.02-1.8-1.13-3.69-2.74-5.84-5.02Z"/>
    <path class="cls-4" d="M482.22,472.2c2.2.75,4.53,1.11,7.08,1.11h.67c-1.75,2.32-5.03,4.23-8.8,4.23-1.42,0-2.76-.1-4.08-.37,1.66-1.35,3.35-2.99,5.12-4.97Z"/>
    <path class="cls-4" d="M467.1,462.85c-.53.54-.98,1-1.37,1.33-.89.76-1.78,1.41-2.69,1.95-1.04-1.46-2.06-3.14-3.06-4.93.91-.22,1.89-.35,2.94-.35,2,0,3.66.44,5.08,1.11-.32.31-.62.61-.89.89Z"/>
    <path class="cls-4" d="M453.49,459.39c-2.89,2.11-4.99,5.2-5.36,9.06h-.71v-10.08c1.2.36,3.09.71,6.07,1.02Z"/>
    <path class="cls-4" d="M488.68,488.6v-5.53s-.61-.95-1.14-.95-.48.95-.48.95v5.52c-3.9.38-8.7.63-14.24.63-3.04,0-5.84-.08-8.41-.21v-4.52s-.76-.95-1.28-.95-1.15.95-1.15.95v4.42c-2.76-.18-5.2-.42-7.28-.7v-6.02s-.03-.95-.55-.95-1.07.95-1.07.95v5.97c-3.64-.55-5.88-1.2-6.47-1.75v-13.1h3.63c1.88,5.01,7.54,8.98,13.65,8.98,3.31,0,6.16-.56,8.88-1.85,2.72,1.28,5.57,1.85,8.88,1.85,6.11,0,11.77-3.96,13.65-8.98h2.27v13.11c-.69.71-3.82,1.57-8.9,2.19Z"/>
    <path class="cls-4" d="M480.81,466.14c-.91-.54-1.8-1.19-2.69-1.95-.39-.33-.84-.8-1.37-1.33-.27-.28-.57-.58-.89-.89,1.42-.67,3.08-1.11,5.08-1.11,1.05,0,2.02.13,2.94.35-1,1.79-2.03,3.47-3.06,4.93Z"/>
    <path class="cls-4" d="M453.09,496.74c-3.66-.59-5.92-1.28-6.47-1.87v-6.49c1.32.56,3.34,1.1,6.47,1.59v6.76Z"/>
    <path class="cls-4" d="M461.99,497.54c-2.76-.18-5.2-.42-7.28-.7v-6.54c2.2.29,4.65.52,7.28.68v6.56Z"/>
    <path class="cls-4" d="M487.06,497.14c-3.9.38-8.7.63-14.24.63-3.03,0-5.84-.08-8.41-.21v-6.42c2.68.13,5.51.21,8.41.21,5.12,0,10-.22,14.24-.62v6.41Z"/>
    <path class="cls-4" d="M497.76,470.07h-3.47c0-.15.03-.29.03-.44,0-4.47-2.65-7.89-6.19-9.86h0c.3-.6.6-1.2.89-1.81,2.01-4.17,3.94-8.92,5.46-13.03,1.13-3.06,2.02-5.77,2.54-7.62l-1.38-.38c-1.19,4.26-4.63,13.68-8.21,21h0c-.2.4-.4.8-.6,1.2-.4-.17-.81-.32-1.23-.46-.11-.04-.22-.08-.34-.11-.33-.1-.66-.18-1-.26-.21-.05-.42-.1-.64-.14h0c-.91-.17-1.83-.27-2.74-.27-1.41,0-2.69.18-3.85.49-1.2.32-2.28.77-3.25,1.29,0,0-.02,0-.02.01-.32.18-.64.36-.94.56-.31.2-.61.4-.9.62-.29-.21-.59-.42-.91-.62h0c-.31-.2-.63-.38-.96-.56-.01,0-.02-.01-.03-.02-.99-.54-2.1-.99-3.33-1.3-1.14-.29-2.37-.46-3.75-.46-.91,0-1.76.09-2.59.23h0c-.49.08-.97.19-1.43.31-.12.03-.23.06-.35.09-.17.05-.33.11-.5.16-.37.13-.73.26-1.08.41-3.78-7.44-6.93-15.95-8.18-20.44l-1.38.38c.97,3.47,2.94,9.03,5.45,14.73.31.71.64,1.43.97,2.14.28.6.56,1.2.85,1.8.33.68.66,1.36,1,2.03h0c-3.92,2.24-6.17,6.16-6.17,9.89,0,.15.02.29.03.44h-3.76v1.62h3.86c1.19,4.64,6.85,8.73,13.01,8.73,3.5,0,6.43-.6,9.25-2.01,2.81,1.41,5.75,2.01,9.25,2.01,6.16,0,11.82-4.08,13.01-8.73h4.2v-1.62h-.63ZM477.07,459.74s.06-.02.1-.03c.32-.09.65-.17,1-.24.07-.01.14-.03.21-.04.32-.06.64-.1.98-.14.09-.01.18-.03.28-.03.42-.04.86-.06,1.31-.06s.88.03,1.31.06c.13.01.26.03.38.04.31.04.61.08.9.14.12.02.25.04.37.07.39.08.77.18,1.14.29h0c.42.13.83.28,1.22.45-1.59,3.02-3.28,5.81-4.97,8.01-1.47-.71-2.88-1.65-4.25-2.82-.44-.38-.92-.86-1.47-1.43-.71-.72-1.52-1.54-2.48-2.35,1.13-.79,2.45-1.47,3.98-1.92ZM460.47,459.42c.24-.04.47-.08.72-.11.15-.02.3-.04.46-.05.41-.04.83-.06,1.26-.06s.88.02,1.3.06c.09,0,.18.02.27.03.34.04.66.08.98.14.07.01.13.03.2.04.34.07.68.15,1,.24.03,0,.06.02.09.03.36.1.7.22,1.04.35h0c1.11.43,2.09.97,2.97,1.58-.95.81-1.77,1.63-2.48,2.35-.55.56-1.03,1.05-1.47,1.43-1.37,1.17-2.78,2.11-4.25,2.82-1.69-2.2-3.38-4.99-4.97-8.01.88-.38,1.85-.65,2.88-.83ZM450.88,470.05c-.18-3.38,1.82-7.02,5.41-9.09,1.56,2.96,3.22,5.71,4.9,7.95-2.05.78-4.24,1.15-6.64,1.15h-3.66s-.01-.01-.02-.02ZM462.68,479.23c-5.28,0-10.3-3.46-11.53-7.54h3.4c2.76,0,5.25-.46,7.57-1.41.19.23.38.46.58.67,2.75,3.09,5.21,5.31,7.7,6.85-2.52,1.1-4.97,1.42-7.72,1.42ZM463.78,469.75c-.1-.11-.2-.22-.29-.34,1.47-.75,2.88-1.7,4.26-2.88.49-.42,1.01-.95,1.56-1.51.77-.78,1.62-1.65,2.62-2.47,1,.82,1.86,1.69,2.62,2.47.55.56,1.08,1.09,1.56,1.51,1.38,1.18,2.79,2.14,4.26,2.88-.1.11-.2.23-.29.34-3.07,3.46-5.68,5.66-8.15,7.05-2.47-1.39-5.08-3.59-8.15-7.05ZM481.17,479.23c-2.75,0-5.2-.32-7.72-1.42,2.49-1.54,4.95-3.76,7.7-6.85.19-.22.38-.44.58-.67,2.33.95,4.82,1.41,7.57,1.41h3.4c-1.23,4.08-6.25,7.54-11.53,7.54ZM492.98,470.05l-.02.02h-3.66c-2.41,0-4.59-.38-6.64-1.15,1.68-2.24,3.34-4.99,4.9-7.95,3.59,2.07,5.59,5.7,5.42,9.09Z"/>
  </g>
  <g>
    <path class="cls-2" d="M435.09,378.68c22.13,4.63,35.01.97,41.62-10.52,4.48-7.78,7.17-20.98,2.54-37.69-4.71-17.04-16.08-27.02-27.89-29.49s-26.23,2.1-37.38,15.82c-10.94,13.46-13.77,26.63-12.79,35.55,1.45,13.17,11.78,21.7,33.91,26.33Z"/>
    <path class="cls-5" d="M440.79,351.42c8.5,1.78,14.77,2.77,19.71,2.16,6.06-.74,10.65-4.35,12.55-11.67,1.34-5.17-.7-14.26-3.88-20.19-3.1-5.77-8.6-6.43-11.94-6.7-2.73-.22-5.3-.66-8.54-1.34s-5.36-1.19-8.36-2.2c-3.17-1.06-8.47-2.7-13.62,1.34-5.29,4.16-10.81,11.66-11.65,16.93-1.19,7.46,1.56,12.61,6.81,15.72,4.29,2.54,10.43,4.15,18.93,5.93Z"/>
    <path class="cls-4" d="M457.47,331.59c-.31,1.48-1.76,2.43-3.25,2.12s-2.43-1.76-2.12-3.25,1.76-2.43,3.25-2.12,2.43,1.76,2.12,3.25Z"/>
    <path class="cls-4" d="M454.53,346.54c-.93-.19-1.84-.59-2.61-1.11-2.09-1.39-5.56-3.13-9.05-3.86s-7.37-.53-9.84-.09c-2.52.44-5.59-.32-6.39-3.03-.08-.29.08-.59.37-.67.29-.08.59.08.67.37.7,2.39,3.57,2.55,5.16,2.27,2.57-.45,6.61-.66,10.25.1s7.26,2.58,9.43,4.02c1.34.89,4.04,1.89,5.64-.01.19-.23.54-.26.76-.07.23.19.26.53.07.76-1.16,1.38-2.84,1.66-4.46,1.33Z"/>
    <path class="cls-4" d="M442.94,319.15c-1.63.08-3.15-1.07-4.6-2.23-1.82-1.46-4.61-2.29-6.92-1.83-2.3.45-4.54,2.23-5.45,4.11-1.27,2.59-.11,4.56,1.57,4.71,1.63.15,2.61-.63,3.84-1.74,1.42-1.29,3.32-1.64,5.01-1.11,1.5.47,3,.78,4.16.57.93-.17,2.16-.99,2.39-2.47Z"/>
    <path class="cls-4" d="M433.49,326.57c-.31,1.48.64,2.94,2.12,3.25s2.94-.64,3.25-2.12-.64-2.94-2.12-3.25-2.94.64-3.25,2.12Z"/>
    <path class="cls-4" d="M434.97,332.64c-5.06-.48-8.24.42-10.21,3.47-1.4,2.18-1.31,5.15-.79,7.16.54,2.08-2.37,1.84-4.17-.62-2.47-3.37-2.23-7.88-.06-10.28,3.8-4.22,10.3-3.21,15.24.26Z"/>
    <path class="cls-4" d="M451.83,321.01c1.46.73,3.32.28,5.11-.2,2.26-.61,5.14-.24,7.07,1.1,1.93,1.34,3.26,3.86,3.35,5.95.12,2.88-1.73,4.22-3.33,3.69-1.55-.52-2.14-1.62-2.82-3.13-.78-1.75-2.38-2.83-4.15-3.03-1.56-.17-3.06-.49-4.04-1.15-.79-.53-1.58-1.78-1.19-3.22Z"/>
    <path class="cls-4" d="M453.72,336.57c4.82,1.59,7.38,3.69,7.96,7.28.41,2.56-.87,5.24-2.15,6.88-1.33,1.69,1.43,2.63,4.07,1.11,3.62-2.09,5.2-6.32,4.18-9.39-1.79-5.39-8.14-7.07-14.06-5.87Z"/>
    <path class="cls-8" d="M436,337.49c.93-1.16,1.84-1.82,3.03-2.03,1.19-.21,2.34.05,3.31.93-.41-1.8-1.99-2.47-3.27-2.24-1.82.33-2.56,1.9-3.06,3.34Z"/>
    <path class="cls-8" d="M450.84,340.59c-.39-1.44-.95-2.41-1.96-3.08-1.01-.67-2.17-.89-3.4-.47,1.1-1.49,2.81-1.47,3.9-.74,1.54,1.03,1.59,2.77,1.46,4.29Z"/>
    <path class="cls-5" d="M420.4,350.94c-2.9,3.68-4.16,13.17-1.62,18.82-5.83-4.11-5.89-16.59,1.62-18.82Z"/>
    <path class="cls-5" d="M413.43,345.78c-2.83,3.31-3.9,11.96-1.28,17.17-5.89-3.86-6.17-15.26,1.28-17.17Z"/>
    <path class="cls-5" d="M460.05,359.24c1.18,4.54-1.48,13.73-6.06,17.89,6.99-1.42,12.05-12.83,6.06-17.89Z"/>
    <path class="cls-5" d="M468.5,357.31c1.26,4.17-1.22,12.52-5.72,16.24,6.94-1.17,11.77-11.51,5.72-16.24Z"/>
    <path class="cls-5" d="M431.42,353.37c.82.17,1.81.78,2.99,1.84.85.79,1.19,1.56,1.04,2.29-.13.62-.58.86-1.36.73-1.35-.25-2.44-.24-3.29.04-.85.35-1.3.68-1.37.99-.06.27.12.45.54.53.26.05,1.29-.22,3.08-.81.58-.23,1.07-.31,1.47-.22.54.11.97.42,1.3.91.36.43.49.88.39,1.34-.16.75-1.09,1.89-2.81,3.43.19.16.38.34.56.54.32.32.57.62.75.91-.12-.38-.13-.78-.03-1.22.11-.55.54-.75,1.26-.6.63.13,1.09.48,1.37,1.06.36.05.99.09,1.9.13,2.65.1,4.49.25,5.52.47.82.17,1.44.6,1.88,1.27.39.6.49,1.36.29,2.29l-.86,4.12c-.04.18-.08.35-.13.5.22.27.29.57.22.91-.14.65-.69.9-1.68.75-1.59-.32-3.31-.63-5.15-.95-1.46-.22-2.47-.39-3-.5-1.69-.35-2.43-1.08-2.2-2.18l.66-3.15c.11-.51.17-.97.2-1.39-.25.8-.72,1.13-1.41.99s-1.22-.65-1.54-1.49c-.01.53-.1,1.16-.25,1.89l-.52,2.47c-.25,1.21-.95,1.7-2.09,1.46-1.02-.21-1.41-.87-1.18-1.97l.59-2.83c-.42.16-.74.22-.97.17-1.22-.25-1.69-1.04-1.41-2.37.12-.58,1.4-1.52,3.85-2.83,1.03-.54,1.57-.94,1.63-1.2.01-.06-.07-.1-.26-.14-.08-.02-.19,0-.35.08-.87.3-1.41.43-1.62.39-1.45-.3-2.01-1.2-1.7-2.69.1-.49.35-.91.74-1.24.41-.34,1.21-.66,2.4-.98.31-.1.48-.22.51-.38.04-.17-.14-.41-.52-.73-1.02-.74-1.48-1.35-1.38-1.83.16-.78.81-1.04,1.95-.8ZM437.8,356.18s.1.04.18.08c.1.05.19.08.27.1.28.06,1.5,0,3.65-.18,1.41-.12,2.57-.08,3.49.11,1.06.22,1.99.64,2.78,1.24.54.44.77.84.69,1.2-.1.48-.73.61-1.89.4-1.59-.26-3.2-.41-4.84-.46-1.35-.02-2.38-.1-3.1-.25-.88-.18-1.54-.46-2-.82-.43-.33-.61-.64-.55-.93.04-.2.22-.35.53-.46.26-.08.52-.09.8-.03ZM437.33,358.4c.62.13,1.05.38,1.32.74.01.02.03.03.04.03l.06.06c.2.04.59.06,1.17.05,2.24-.03,3.81.05,4.72.24,1.29.27,2.26.68,2.9,1.23.54.56.76,1.11.64,1.66-.1.49-.39,1.04-.85,1.63.16.21.22.46.16.74-.11.55-.6.76-1.46.64-1.49-.31-3.13-.55-4.91-.72-1.39-.1-2.35-.21-2.87-.31-1.51-.32-2.16-.94-1.97-1.87l.31-1.5c.11-.54.05-.97-.18-1.32-.21-.24-.28-.49-.23-.75.1-.49.49-.67,1.15-.53ZM444.47,362.98c.04-.11.09-.22.16-.32.22-.43.34-.71.37-.85.04-.21-.15-.36-.58-.45-.54-.11-1.31-.16-2.31-.13-1.55.03-2.65.01-3.32-.05-.03.24-.08.5-.14.79-.08.38.15.63.69.74.21.04.75.07,1.6.07,1.53.06,2.71.13,3.52.21ZM437.33,368.88c.44-.01,1.09-.06,1.96-.14.07-.56,0-1.02-.19-1.39-.58,0-1.1-.03-1.57-.09-.04.48-.1,1.02-.19,1.62ZM438.54,372.44l.31-1.5c-.55-.04-1.02-.1-1.38-.18-.15-.03-.3-.07-.44-.11l-.16.76c-.1.49.15.8.75.93.15.03.46.07.92.1ZM441.9,367.45c.17.28.24.71.22,1.26l.21.04c.57.12,1.09.3,1.58.53l.21-1.01c.08-.38-.06-.61-.41-.68-.2-.04-.8-.09-1.8-.14ZM442.99,372.82c.12-.4.25-.85.4-1.33l.03-.15c-.56-.09-1.12-.16-1.69-.22l-.32,1.52c.65.06,1.17.12,1.58.18Z"/>
  </g>
  <g>
    <polygon class="cls-2" points="496.6 222.21 491.82 214.96 490.15 206.08 483.35 200.57 479.17 192.62 470.96 189.38 464.67 183.06 455.78 182.4 447.97 178.28 439.22 180.29 430.61 178.71 422.78 183.23 414.17 184.32 433.18 213.27 435.12 211.08 438.07 210.72 440.61 209.2 443.53 209.75 446.41 209.06 449.03 210.45 451.99 210.66 454.07 212.77 457.22 213.41 458.18 216.48 461 218.04 460.99 221.26 463.22 223.59 462.25 226.64 496.6 222.21"/>
    <path class="cls-5" d="M427.62,189.37c.31-.03.69.1,1.13.38.42.29.67.57.75.85.1-.02.19-.03.29-.04.4-.04.77.03,1.1.21.08.05.15.1.21.14.03-.03.06-.06.1-.09.13-.11.27-.17.44-.18.03,0,.06,0,.11.02.07.01.12.02.17.01.03,0,.08-.02.16-.04l-.02-.03c-.03-.28-.12-.55-.26-.8-.15-.21-.23-.37-.24-.49-.03-.33.15-.51.54-.55.46-.05.85.02,1.17.21.34.21.52.49.56.86l.02.08s.09-.03.15-.06c.44-.2.84-.35,1.21-.45-.04-.1-.09-.18-.16-.26-.08-.11-.12-.22-.13-.33-.03-.32.15-.5.54-.54.4-.04.77.01,1.11.16.33.18.51.43.55.75,0,.03,0,.05,0,.08.29.04.58.12.85.23.41.18.62.4.65.67.04.35-.32.56-1.07.65-.17.03-.34.05-.5.08-.04.17-.09.34-.14.5-.04.12-.09.24-.13.33.55,0,1.01.09,1.38.26.42.23.65.54.69.91.03.3-.03.67-.18,1.11.05.09.09.19.1.31.04.36-.19.58-.68.66-.6.06-1.23.16-1.89.29l.02.21c.23-.05.46-.09.67-.11.53-.05,1.03.02,1.51.21.32.13.49.31.51.51.03.27-.25.44-.82.51-.59.09-1.17.2-1.75.33l.02.21c.23-.05.44-.09.64-.11.57-.06,1.09.01,1.58.21.34.15.52.33.54.55.03.27-.26.45-.86.52-.6.09-1.2.2-1.79.33l.02.21c.21-.05.4-.08.57-.1.68-.07,1.33.02,1.93.26.41.18.62.4.65.67.04.35-.32.56-1.07.65-.97.12-1.93.28-2.89.46-.79.15-1.4.25-1.85.3-.52.05-.94.02-1.26-.11-.3-.13-.46-.29-.48-.48-.01-.12.06-.25.21-.38.13-.1.28-.15.44-.17.02,0,.06,0,.11.02.07.01.12.02.15.01.15-.01.64-.17,1.47-.48l-.02-.36c-.25.05-.47.09-.65.11-.51.05-.92.02-1.21-.1-.29-.11-.44-.25-.46-.44-.01-.12.05-.24.18-.38.12-.1.25-.15.4-.16.03,0,.07,0,.13.01.07.01.12.02.15.01.14-.01.59-.15,1.36-.41l-.04-.36c-.26.05-.49.09-.68.11-.51.05-.92.02-1.21-.1-.29-.11-.44-.25-.46-.44-.01-.12.05-.24.18-.38.12-.1.25-.15.4-.16.03,0,.07,0,.13.01.07.01.12.02.15.01.14-.01.6-.15,1.38-.42l-.02-.32c-.47.12-.81.19-1.04.22-.89.09-1.36-.17-1.42-.78l-.09-.85c-.03-.3-.12-.52-.27-.66-.13-.1-.2-.22-.22-.37-.03-.32.15-.5.54-.54.32-.03.58,0,.79.13.12-.01.33-.07.63-.19-.37-.02-.57-.19-.61-.52l-.11-.38c-.37,0-.68-.03-.93-.13-.03-.02-.06-.03-.09-.03-.05.23-.26.36-.62.4l-2.92,1.06c-.46.05-.83,0-1.12-.16-.25-.1-.38-.23-.4-.39-.02-.15.05-.3.2-.44.2-.21.38-.33.53-.34l.22-.02c.06,0,.23-.1.48-.28-.09-.07-.18-.14-.28-.22-.42-.35-.65-.65-.67-.9-.06-.58.22-.89.83-.96ZM427.17,197.26c.28-.03.57.04.87.22.11-.02.26-.07.47-.16.7-.27,1.2-.43,1.49-.45.49-.05.93.1,1.3.45.34.31.55.77.61,1.41l.07.7c.03.26.02.48-.03.67.08.12.12.26.14.4.04.36-.12.55-.48.59-.59.06-1.22.16-1.91.3-.52.09-.88.14-1.08.16-.72,0-1.15-.32-1.28-.95-.01-.13-.02-.38-.03-.74-.03-.4-.07-.8-.11-1.19-.02-.25-.11-.45-.24-.63-.08-.12-.12-.22-.13-.31-.03-.28.09-.44.34-.46ZM427.26,193.83l.22-.02c.07,0,.28-.12.61-.35.52-.36,1.07-.56,1.67-.62.34-.03.65.03.95.18.25.16.39.34.41.54.03.32-.15.5-.54.54l-2.68.77c-.35.04-.64,0-.87-.12-.19-.08-.29-.18-.31-.3-.01-.12.04-.23.15-.33.14-.17.27-.26.39-.27ZM427.45,195.77l.22-.02c.07,0,.29-.11.66-.32.56-.32,1.15-.52,1.78-.58.35-.04.66.03.95.18.27.17.41.35.43.55.03.32-.15.5-.54.54l-2.85.66c-.35.04-.64,0-.87-.12-.19-.07-.29-.17-.31-.3-.01-.11.04-.22.15-.33.14-.16.27-.25.39-.26ZM430.16,199.82c0-.11,0-.24,0-.37,0-.3-.02-.65-.06-1.03-.02-.21-.14-.3-.35-.28-.09,0-.46.16-1.1.46-.02,0-.04,0-.05.02l.08,1.25c.02.17.11.25.29.23.24-.02.52-.08.84-.18.13-.03.24-.06.35-.09ZM434.08,194.57c-.04-.28-.13-.55-.28-.82-.01,0-.02-.02-.03-.04-.34.12-.62.21-.83.26.01.13.03.27.04.42.02.25.2.35.53.32.09,0,.28-.06.57-.15ZM434.1,192.31c.49-.17.91-.3,1.27-.41-.08-.13-.13-.3-.15-.5,0-.04,0-.1,0-.17-.21.05-.41.1-.62.15-.17.04-.33.08-.47.12l.06.34c.02.19-.01.35-.09.47ZM436.82,193.77s.01-.08.02-.13c.01-.31.02-.52,0-.61-.01-.14-.14-.19-.39-.17-.22.02-.48.08-.77.16.22.21.35.47.39.79l.02.15c.29-.08.53-.15.74-.2Z"/>
    <path class="cls-5" d="M445.8,189.52s.1.05.16.12c.06.03.12.06.18.07.1.02.28.02.54,0,.02-.07.04-.13.06-.19.02-.11.03-.26.02-.45-.02-.13-.02-.23,0-.32.07-.31.26-.43.58-.36.28.06.56.25.85.57.17.18.27.37.31.56.6-.04,1.03-.04,1.28.02.46.1.82.37,1.09.79.25.37.3.88.16,1.5-.27,1.19-.54,1.92-.81,2.19-.16.11-.33.19-.51.21.8.08,1.51.16,2.11.26-.16-.11-.29-.25-.39-.41-.24-.43-.29-.95-.16-1.57l.19-.83c.06-.29.05-.59-.04-.9-.06-.19-.08-.34-.05-.45.09-.39.32-.53.71-.45.32.07.56.26.72.56.06-.01.12-.03.19-.04.72-.12,1.27-.14,1.63-.06.67.15,1.21.4,1.61.74.36.33.49.72.38,1.19-.23,1.01-.42,1.73-.58,2.14.06.21.06.41.02.61-.07.31-.32.42-.74.33-.14-.03-.3-.09-.47-.18-.16-.06-.3-.11-.43-.14-.3-.07-.59-.12-.88-.16.55.19,1.01.44,1.38.76.46.43.62.95.48,1.55-.43,1.93-.76,3.05-.98,3.35-.2.22-.51.28-.92.19-.04,0-.07-.02-.11-.02v.02c.7.51.99.96.91,1.34-.16.7-.66.95-1.5.76-.36-.08-.77-.45-1.22-1.09-.5-.77-1.06-1.23-1.7-1.37-.78-.17-1.67-.05-2.66.36-1,.42-1.78.56-2.37.43-.55-.12-.95-.38-1.22-.77-.27-.39-.37-.76-.29-1.11.04-.16.14-.29.31-.39.1-.05.21-.08.33-.1-.14-.29-.17-.64-.08-1.03.38-1.68.58-2.75.59-3.21,0-.28.02-.51.05-.68,0-.04.02-.07.04-.1-.32-.26-.41-.68-.28-1.26.04-.17.12-.27.25-.31.4-.15.83-.52,1.29-1.11-.36-.09-.63-.22-.81-.39-.18-.14-.26-.31-.21-.5.05-.22.19-.41.4-.54.21-.12.4-.17.58-.13ZM444.45,199.3c-.13,0-.2.05-.21.12-.06.28.1.46.48.55.21.05.48,0,.82-.15.2-.08.38-.15.55-.2-.52-.04-.92-.09-1.21-.16-.17-.04-.32-.09-.44-.16ZM445.93,193.97c.22.03.63.06,1.24.08.7.03,1.35.08,1.96.13-.4-.13-1.12-.58-2.18-1.35-.06-.04-.11-.08-.17-.11-.4.47-.73.81-1,1.02.06.07.11.15.16.23ZM446.15,195.72l.07.02c.25.06,1.31.12,3.17.19,1.22.03,2.23.13,3.05.32.22.05.43.13.61.24,0-.03.01-.07.02-.09.06-.28-.17-.48-.7-.59-.81-.18-2.6-.33-5.4-.46-.31-.01-.57-.03-.8-.04,0,.14-.01.28-.03.43ZM445.97,197.16c.29.06,1.31.12,3.07.2,1.17.05,2.16.16,2.96.34.28.06.52.16.74.28.01-.04.02-.09.03-.13.03-.18.07-.36.11-.55-1.26-.2-2.54-.32-3.83-.37-1.08-.03-1.92-.11-2.5-.24-.19-.04-.35-.09-.49-.14-.02.19-.06.4-.1.61ZM452.48,199.36c.01-.09.03-.18.05-.27.02-.08.04-.17.06-.27-1.27-.22-2.55-.37-3.84-.44-1.06-.04-1.88-.13-2.45-.25-.18-.04-.34-.09-.47-.15,0,.04,0,.07,0,.1-.07.31.09.51.47.6.28.06.81.12,1.58.17,2.01.13,3.55.3,4.61.51ZM448.04,190.93c-.22.39-.52.84-.89,1.34.62.21,1.08.34,1.36.4.35.08.54.03.58-.15l.24-1.05c.07-.31-.03-.5-.31-.56-.15-.03-.48-.03-.98.02ZM454.29,193.5c.04-.12.08-.27.14-.43.09-.22.16-.46.22-.73.08-.35-.09-.57-.51-.67-.18-.04-.56,0-1.14.14,0,.07-.02.13-.03.21l-.24,1.05c-.06.28.05.45.32.51.08.02.22.02.41,0,.29-.06.56-.08.84-.08Z"/>
    <path class="cls-5" d="M466.63,194.97c.17.11.31.33.42.64.09.32.1.57.03.73.26.1.49.21.68.34.49.32.87.73,1.14,1.2.17.34.2.59.08.78-.17.26-.52.22-1.03-.11-.27-.16-.55-.31-.84-.44.17.18.31.38.41.62.12.27.11.5-.01.69-.2.3-.72.5-1.58.62.24.22.44.46.6.74.16.29.18.52.08.68-.16.24-.46.21-.91-.07-.44-.24-.9-.44-1.38-.62-.01.14-.06.3-.14.49.15.07.29.14.41.22.45.3.8.67,1.04,1.12.09.17.13.31.14.44.41-.57.86-1.22,1.34-1.95.33-.5.46-.91.39-1.24-.01-.13.02-.25.09-.37.18-.28.54-.32,1.07-.15l1.5.48c.65.23,1.07.21,1.25-.06.05-.07.03-.25-.04-.56-.09-.29-.12-.47-.07-.54.07-.11.2-.15.4-.13.15.02.35.12.6.29.67.45,1.13.9,1.36,1.36.17.44.18.77.04.98-.2.3-.64.33-1.31.11l-2.99-.99c-.36-.13-.57-.13-.65-.02-.09.13-.12.26-.1.38,0,.22,0,.43-.04.63l.08.05c.09.06.56.16,1.41.31.55.09.97.23,1.27.43.45.3.8.67,1.05,1.11.16.31.18.55.07.72-.16.24-.48.2-.97-.11-.24-.14-.49-.27-.75-.4.03.15.05.31.06.47.01.79-.89,2.58-2.71,5.35-.53.8-1.05,1.03-1.57.69-.29-.19-.76-.89-1.41-2.09-.16-.29-.28-.54-.38-.75-.15.16-.28.27-.38.36-.49.37-.91.44-1.27.2-.13-.09-.21-.26-.24-.51-.01-.08,0-.16.01-.24-.3.19-.62.18-.94-.03-.14-.09-.05-.45.28-1.09.79-1.52,1.29-2.52,1.51-3.03-.11-.05-.22-.1-.32-.14l-1.97,2.97c-.38.57-.82.68-1.33.34-.41-.27-.45-.67-.11-1.18l1.79-2.7c-.26-.09-.49-.17-.67-.26-.09.4-.45,1.08-1.08,2.03-.32.49-.61.8-.85.93-.23.1-.42.1-.55.01-.21-.14-.33-.37-.34-.69-.03-.4.06-.77.28-1.09.07-.11.23-.23.46-.37.32-.24.6-.54.84-.89.09-.13.19-.33.3-.61-.09-.1-.16-.2-.22-.29-.14-.25-.17-.44-.08-.58.06-.09.18-.14.35-.15.14,0,.28.03.39.11.02.02.05.04.08.08.04.05.09.09.12.11.12.08.71.23,1.75.45.1-.18.16-.35.21-.51-.29-.1-.51-.21-.68-.32-.44-.29-.74-.58-.9-.88-.15-.29-.17-.51-.07-.67.07-.1.2-.15.4-.15.17,0,.32.04.45.14.02.02.05.04.08.08.04.05.08.09.11.11.12.08.7.25,1.74.49.38.09.71.19,1,.31.73-.29,1.19-.57,1.38-.85.12-.18.04-.36-.24-.54-.4-.26-.88-.15-1.46.35-.61.56-1.11.72-1.47.48-.22-.15-.36-.43-.4-.86-.03-.46.04-.84.24-1.13.16-.24.35-.28.59-.12.16.11.24.34.25.69,0,.22.05.35.13.4.11.08.42.05.9-.09.36-.11.69-.16.98-.16-.09-.03-.17-.07-.25-.1-.7-.23-1.21-.45-1.54-.67-.4-.26-.67-.53-.82-.81-.13-.26-.15-.47-.05-.61.06-.09.18-.14.36-.14.15.01.29.06.42.14.02.01.04.03.07.06.03.04.06.07.09.09.11.07.61.21,1.49.41-.01-.02-.01-.04-.01-.06-.07-.33-.05-.57.04-.7.27-.41.62-.48,1.03-.21ZM463.91,205.35c.44-.46.95-1.09,1.54-1.9-.18.02-.42-.06-.72-.26-.04-.02-.09-.04-.13-.07-.05.27-.13.6-.23.99-.13.44-.28.86-.46,1.25ZM465.14,206.63c.37.32.68.57.94.74.3.2.59.08.89-.37l1.86-2.8c.35-.53.53-.99.52-1.38,0-.02,0-.05-.01-.06-.29-.11-.52-.23-.68-.34-.13-.09-.25-.17-.35-.27-.04.07-.08.14-.12.2-1.33,2-2.34,3.42-3.04,4.26Z"/>
    <path class="cls-5" d="M481.15,208.51c.42.6.7,1.27.83,2.01.07.45,0,.76-.23.92-.28.19-.57.12-.89-.24-.77-.9-1.53-1.61-2.26-2.12-.54-.35-.85-.5-.95-.43-.12.08-.12.21,0,.39.27.38.7.76,1.3,1.14,2.42,1.63,3.95,2.9,4.58,3.81.58.83.88,1.59.91,2.27.02.54-.11.92-.4,1.11-.35.25-.65.19-.9-.16-.2-.29-.49-.75-.86-1.38-.27-.42-.53-.81-.76-1.15-.07.23-.25.49-.52.77.07.08.13.17.18.24.51.73.81,1.51.92,2.33.06.56-.06.95-.34,1.14-.37.26-.83,0-1.38-.75-.38-.52-.78-1.03-1.18-1.53l-.94.67c.5.81.78,1.55.85,2.24.09.79-.02,1.29-.32,1.5-.45.31-.83.23-1.16-.25-.26-.38-.51-.8-.74-1.28-.15-.27-.32-.55-.52-.86l-.68.49c-.85.59-1.53.52-2.05-.22-.45-.65-.3-1.24.46-1.77l.79-.57c-.61-.76-1.31-1.52-2.1-2.26-.68-.66-1.11-1.12-1.3-1.39-.36-.52-.57-.96-.61-1.34.02-.31.07-.5.15-.56.2-.14.44-.15.72-.03.31.16.53.33.66.51.02.02.03.06.06.13.03.08.07.15.11.21.05.08.16.18.32.31.12-.06.28-.13.48-.22.26-.09.57-.26.93-.52.13-.09.24-.19.32-.31-.25-.43-.41-.81-.47-1.15-.06-.41,0-.68.2-.81.14-.09.33-.1.58-.01.2.09.35.22.47.39.02.03.04.07.06.13.03.08.06.14.09.17.18.26,1.16,1.18,2.95,2.76.29.26.56.5.81.75.2-.22.35-.43.44-.64-.08-.07-.17-.15-.26-.22-1.37-1.15-2.35-2.15-2.95-3.01-.57-.82-.53-1.46.11-1.91.25-.17.55-.24.89-.19.39.06,1.09.37,2.09.91.19.09.32.12.38.07.05-.03.08-.12.11-.26.03-.11.07-.19.14-.23.27-.19.56-.06.87.38ZM476.68,215.58l.88-.63c-.18-.21-.36-.42-.55-.62-.39-.42-.73-.82-1.04-1.19-.04.04-.08.07-.12.1-.37.26-.73.46-1.09.61.73.6,1.37,1.18,1.91,1.74Z"/>
    <path class="cls-3" d="M462.31,226.43c.06-.19.24-.75.47-1.49l-16.58,2.67,13.1-10.5-1.13-.62s-.06-.18-.06-.21l-12.58,10.08,6.97-15.17c-.2-.2-.52-.53-.52-.53l-.74-.05-6.96,15.15-.52-16.06-.22.05-1.18-.22.54,16.6-8.66-14.06c-.48.54-.88.99-.97,1.09l9.26,15.03-4.3.69.22,1.38,2.77-.45-2.19,1.76.87,1.09,1.91-1.53-1.02,2.23,1.27.58,1.03-2.23.08,2.45,1.39-.05-.09-2.79,1.46,2.38,1.19-.73-2.3-3.73,17.5-2.81Z"/>
  </g>
  <path class="cls-6" d="M352.18,158.81c-1.81.13-3.49.87-4.74,2.08.02,0,.03.02.05.02-.2-.09-.39-.17-.59-.25-5.2-2.13-11.44-1.11-13.52,3.98-2.7,6.62,2.74,11.5,7.67,12.77-3.12,4.89.15,13.44,10.63,14.16-.43,4.38,1.99,8.02,6.77,9.98,4.77,1.96,9.05,1.06,11.81-2.37,7.98,6.84,16.29,3.04,17.49-2.64,4.4,2.56,11.71,2.89,14.41-3.72,2.08-5.09-1.66-10.19-6.86-12.32-.22-.09-.44-.17-.66-.26.01,0,.03.01.05.02-.1-1.61-.75-3.18-1.85-4.46,6.09-.42,12.43.45,18.58,2.8-.41-.19-.82-.38-1.24-.55-6.1-2.55-12.42-3.61-18.52-3.37-.58-.45-1.22-.84-1.94-1.14-1.99-.83-4.1-.83-5.92-.18-.57-.44-1.21-.82-1.92-1.12-2.04-.85-4.2-.83-6.04-.12-1-1.32-2.37-2.41-4.04-3.1s-3.4-.9-5.05-.69c-.8-1.81-2.3-3.36-4.34-4.21-.7-.29-1.42-.48-2.14-.58-.81-1.76-2.3-3.26-4.29-4.09-.72-.3-1.45-.49-2.17-.58-4.12-4.51-9.32-8.26-15.42-10.8-.42-.17-.84-.33-1.26-.49,6,2.72,11.07,6.61,15.05,11.24ZM349.91,175.14c-3.09,1.14-3.92.45-4.23-.35-.3-.77-.19-1.87,3.07-2.64,3.12-.73,6.08-1.06,7.52-1.16.62-.05.9.09.96.25.06.16-.06.4-.57.7-1.19.71-3.77,2.09-6.76,3.19ZM362.03,175.74c-.82,1.36-2.68,4.14-5.1,6.81-2.52,2.77-3.74,2.44-4.5,1.74-.73-.68-1.24-1.91,1.66-4.37,2.77-2.35,5.6-4.19,7.01-5.01.61-.36.97-.35,1.12-.21.15.14.16.46-.19,1.04ZM362.32,192c-1-.41-1.81-1.46-.02-5.23,1.73-3.64,3.79-6.78,4.82-8.22.44-.62.77-.76.97-.68.2.08.35.43.23,1.2-.28,1.77-1.01,5.41-2.27,9.23-1.32,4-2.76,4.09-3.73,3.7ZM374.82,193.47c-1.03-.03-2.14-.66-1.99-4.4.14-3.61.76-6.91,1.12-8.45.16-.65.39-.88.59-.87.21,0,.47.25.65.94.43,1.58,1.16,4.88,1.49,8.5.35,3.78-.88,4.32-1.87,4.28ZM386.46,191.49c-.78.35-1.86.27-3.26-2.72-1.36-2.88-2.23-5.68-2.59-7.02-.15-.57-.07-.82.09-.9.16-.07.45.02.87.49.96,1.08,2.84,3.4,4.55,6.11,1.79,2.84,1.1,3.7.34,4.04ZM388.91,175.47c1.93.8,3.28,2.37,3.82,4.14.01,0,.03,0,.04.01-1.51-.4-3.45-.73-6.39-.95.15.01.3.02.44.04-.13-1.32-.62-2.61-1.43-3.72,1.14-.15,2.35,0,3.51.48ZM381.07,174.18c2,.84,3.38,2.5,3.87,4.36-2.26-.24-4.71-.65-7.24-1.25-.03-1.19-.31-2.36-.82-3.45,1.33-.33,2.8-.24,4.2.34ZM363.63,171.87c2.01-1.3,4.71-1.6,7.21-.56s4.14,3.11,4.65,5.42c.01,0,.02,0,.03,0-.01,0-.02,0-.03,0,0,0,0,0,0,0-2.03-.56-4.08-1.24-6.06-2.05-2-.82-3.95-1.78-5.8-2.81,0,0,0,0,0,0-.02-.01-.04-.02-.06-.03.02.01.04.02.06.03ZM355.17,161.39c1.16.48,2.11,1.24,2.8,2.16-1.44.22-2.76.83-3.83,1.75.13.11.26.21.4.33.33.28.68.56,1.03.84,1.7-1.07,3.94-1.3,6.02-.43,1.4.58,2.49,1.57,3.19,2.74-1.17.42-2.24,1.08-3.12,1.93-2.24-1.36-4.31-2.81-6.1-4.24,0,0,0,0,0,0-.35-.28-.7-.56-1.03-.84-2.38-2.01-4.06-3.16-5.47-3.94.05.02.09.04.13.07,1.69-1.03,3.9-1.24,5.96-.38Z"/>
  <path class="cls-6" d="M419.36,411.57c-.42.16-.84.32-1.26.49-6.1,2.55-11.3,6.3-15.42,10.8-.72.09-1.46.28-2.17.58-1.99.83-3.48,2.33-4.29,4.09-.71.1-1.43.28-2.14.58-2.04.85-3.54,2.41-4.34,4.21-1.64-.21-3.38,0-5.05.69s-3.04,1.79-4.04,3.1c-1.85-.7-4.01-.73-6.04.12-.71.29-1.34.68-1.92,1.12-1.82-.66-3.93-.66-5.92.18-.71.3-1.36.68-1.94,1.14-6.1-.24-12.42.82-18.52,3.37-.42.17-.83.36-1.24.55,6.15-2.35,12.49-3.22,18.58-2.8-1.1,1.28-1.74,2.85-1.85,4.46.01,0,.03-.01.05-.02-.23.09-.45.17-.66.26-5.2,2.13-8.94,7.23-6.86,12.32,2.7,6.62,10,6.29,14.41,3.72,1.2,5.68,9.51,9.48,17.49,2.64,2.76,3.42,7.03,4.32,11.81,2.37,4.78-1.96,7.19-5.6,6.77-9.98,10.48-.72,13.75-9.27,10.63-14.16,4.93-1.27,10.37-6.15,7.67-12.77-2.08-5.09-8.32-6.11-13.52-3.98-.19.08-.39.17-.59.25.02,0,.03-.02.05-.02-1.25-1.21-2.93-1.95-4.74-2.08,3.98-4.63,9.06-8.52,15.05-11.24ZM399.82,435.94c-.5-.3-.63-.54-.57-.7.06-.16.34-.3.96-.25,1.44.1,4.4.43,7.52,1.16,3.26.76,3.37,1.87,3.07,2.64-.31.8-1.13,1.49-4.23.35-2.99-1.1-5.57-2.49-6.76-3.19ZM394.27,438.7c.15-.14.51-.15,1.12.21,1.41.82,4.24,2.67,7.01,5.01,2.9,2.46,2.4,3.69,1.66,4.37-.76.7-1.98,1.03-4.5-1.74-2.42-2.67-4.28-5.46-5.1-6.81-.35-.57-.34-.89-.19-1.04ZM390.43,452.3c-1.27-3.82-2-7.46-2.27-9.23-.12-.76.03-1.12.23-1.2.2-.08.53.06.97.68,1.03,1.44,3.09,4.58,4.82,8.22,1.79,3.77.98,4.82-.02,5.23-.97.39-2.41.3-3.73-3.7ZM379.8,453.19c.34-3.62,1.07-6.92,1.49-8.5.18-.69.44-.93.65-.94.21,0,.44.22.59.87.36,1.54.98,4.83,1.12,8.45.15,3.74-.96,4.37-1.99,4.4-1,.04-2.22-.5-1.87-4.28ZM370.37,451.45c1.71-2.71,3.6-5.02,4.55-6.11.41-.47.71-.56.87-.49.15.07.24.33.09.9-.35,1.34-1.23,4.14-2.59,7.02-1.4,2.99-2.48,3.07-3.26,2.72-.76-.34-1.45-1.2.34-4.04ZM371.09,439c-.81,1.1-1.29,2.4-1.43,3.72.15-.01.29-.02.44-.04-2.94.22-4.88.55-6.39.95.01,0,.03,0,.04-.01.54-1.78,1.89-3.34,3.82-4.14,1.16-.48,2.37-.63,3.51-.48ZM379.61,437.84c-.51,1.09-.79,2.26-.82,3.45-2.53.6-4.98,1.01-7.24,1.25.49-1.86,1.87-3.52,3.87-4.36,1.4-.58,2.87-.67,4.2-.34ZM392.92,435.83s-.04.02-.06.03c0,0,0,0,0,0-1.86,1.03-3.8,1.99-5.8,2.81-1.98.81-4.03,1.49-6.06,2.05,0,0,0,0,0,0-.01,0-.02,0-.03,0,.01,0,.02,0,.03,0,.52-2.31,2.19-4.39,4.65-5.42s5.2-.75,7.21.56c.02-.01.04-.02.06-.03ZM407.28,425.77s.09-.04.13-.07c-1.4.78-3.08,1.92-5.47,3.94-.33.28-.68.56-1.03.84,0,0,0,0,0,0-1.79,1.43-3.85,2.88-6.1,4.24-.88-.86-1.95-1.51-3.12-1.93.7-1.17,1.8-2.16,3.19-2.74,2.08-.87,4.33-.64,6.02.43.35-.28.7-.56,1.03-.84.14-.12.27-.22.4-.33-1.07-.92-2.39-1.54-3.83-1.75.69-.92,1.64-1.68,2.8-2.16,2.06-.86,4.27-.65,5.96.38Z"/>
  <g>
    <path class="cls-2" d="M364.53,111.32c-5.69.89-11.37,2.87-14.35,3.79-4.29,1.33-9.94,3.15-18.02,6.14,8.45,0,17.92-.83,24.87-1.77,2.08-2.38,5.02-5.65,7.5-8.16Z"/>
    <path class="cls-2" d="M366.64,101.7c-3.99.72-10.1,4.49-14.61,6.88-4.32,2.3-11.97,7.01-19.68,12.03,8.43-3.37,14.66-5.54,18.8-6.99,3.5-1.22,10.39-3.52,15.42-4.31.36-.33.7-.63,1.01-.89,2.58-2.13,5.57-4.18,9.08-5.2-2.56-1.93-6.04-2.26-10.02-1.54Z"/>
    <path class="cls-2" d="M361.47,117.3c-3.18,3.58-10.67,11.72-15.41,17.01,3.84-3.01,11.02-8.62,13.29-10.19,2.89-2.01,7.64-5.32,10.95-7.08.08-1.28.21-2.43.4-3.45.56-3.02,2.61-6.81,4.63-8.1-5.03,2.4-10.43,7.97-13.85,11.81Z"/>
    <path class="cls-2" d="M359.73,125.16c-2.4,1.58-10.11,7.25-13.85,10.01,7.02-2.41,18.69-6.42,24.42-9.26-.1-2.58-.14-4.92-.08-6.99-3.3,1.7-7.69,4.4-10.48,6.23Z"/>
    <path class="cls-2" d="M395.58,113.61c.2.34.4.75.62,1.19,4.42,2.54,10.03,7.14,12.86,9.54,3.35,2.83,8.39,7.08,15.05,13.25-5.4-7.45-10.85-14.58-14.07-18.27-3.35-3.85-7.72-9.55-11.18-11.65-3.46-2.1-6.83-3.03-9.91-2.15,2.92,2.21,4.97,5.19,6.62,8.1Z"/>
    <path class="cls-2" d="M397.4,117.4c1.42,3.23,2.99,7.33,4.08,10.3,6.16,3.36,14.71,7.53,22.6,10.55-6.49-5.68-11.11-9.4-14.64-12.18-2.45-1.93-7.05-5.81-12.04-8.67Z"/>
    <path class="cls-2" d="M389.97,120.68c2.46,2.83,5.71,7.62,7.69,10.53,1.55,2.28,6.25,10.09,8.76,14.27-2.53-6.64-6.62-16.92-8.31-21.4-1.82-4.82-4.87-11.94-8.71-15.98,1.41,1.93,1.98,6.2,1.42,9.22-.19,1.02-.48,2.14-.86,3.36Z"/>
    <path class="cls-2" d="M406.29,146.35c-2.51-3.92-7.68-11.97-9.36-14.3-1.95-2.71-5.08-6.8-7.56-9.57-.69,1.95-1.55,4.12-2.57,6.5,4.33,4.7,13.79,12.62,19.49,17.38Z"/>
    <path class="cls-2" d="M383.49,104.97c-2.02,10.9-6.87,35.99-9.07,46.84,4.64-9.76,13.12-26.69,14.64-35.03.93-5.14-1.31-10.5-5.56-11.81Z"/>
    <path class="cls-2" d="M372.55,113.73c-1.57,8.33.29,27.17,1.14,37.94,1.83-10.91,6.27-36.09,8.28-46.98-4.44-.3-8.46,3.9-9.42,9.04Z"/>
  </g>
  <g>
    <path class="cls-5" d="M456.14,115.77c-2.16-.33-4.17,1.15-4.5,3.31s1.15,4.17,3.31,4.5,4.17-1.15,4.5-3.31-1.15-4.17-3.31-4.5Z"/>
    <path class="cls-5" d="M453.66,114.88c.82-.32,1.72-.44,2.65-.3.5.08.97.23,1.41.43,0-.04,0-.08.01-.12.46-2.99,1.86-5.72,3.93-7.83,2.05-2.11,4.78-3.61,7.91-4.12.29-.05.58-.08.87-.11-.23-5.82-4.54-10.86-10.51-11.77-6.78-1.02-13.1,3.62-14.15,10.39-.44,2.92.17,5.76,1.56,8.13,1.42,2.39,3.62,4.29,6.32,5.3ZM454.35,104.04c.17-.49.7-.75,1.19-.58.49.17.75.7.58,1.19-.51,1.47-.73,3.02-.67,4.56.04.97.19,1.93.46,2.87.14.5-.15,1.01-.64,1.15-.07.02-.14.03-.22.03-.42.02-.81-.26-.94-.68-.31-1.08-.48-2.2-.53-3.31-.07-1.77.19-3.55.77-5.24Z"/>
    <path class="cls-5" d="M428.46,110.32c-.79,5.17,1.77,10.48,6.7,12.96,1.2.6,2.45.99,3.7,1.18.93.14,1.87.17,2.79.1.07,0,.15-.01.22-.02.18-.02.36-.04.55-.07.15-.02.3-.04.45-.07.05,0,.09-.02.14-.03,2.86-.56,5.5-2.11,7.38-4.48-.01-.33,0-.67.05-1.01.17-1.08.66-2.03,1.36-2.77-2.26-1.1-4.16-2.76-5.54-4.79-.04-.07-.09-.13-.13-.2-.16-.24-.32-.49-.46-.74-.11-.19-.21-.38-.31-.58-.08-.16-.16-.31-.24-.46-1.17-2.48-1.65-5.31-1.2-8.23h0c.05-.3.1-.58.16-.87-.49-.14-.99-.25-1.49-.32-5.17-.79-10.48,1.76-12.96,6.69-.6,1.2-.99,2.45-1.19,3.7ZM440,114.55c.31-.41.9-.49,1.31-.18,1.24.93,2.65,1.63,4.13,2.04.93.26,1.9.42,2.88.45.51.02.92.45.9.97,0,.08-.02.15-.03.22-.11.41-.49.7-.94.68-1.13-.04-2.24-.22-3.31-.52-1.71-.48-3.32-1.27-4.75-2.35-.41-.31-.49-.9-.18-1.31Z"/>
    <path class="cls-5" d="M433.49,124.52c-1.03,1.53-1.68,3.25-1.94,5.01-.58,3.79.6,7.79,3.53,10.7,1.94,1.92,4.34,3.06,6.84,3.44,3.79.58,7.8-.6,10.71-3.54,1.9-1.92,3.04-4.3,3.43-6.78.03-.19.04-.38.06-.58.02-.22.05-.43.06-.65.02-.32.02-.64.01-.95,0-.07,0-.13,0-.2-.09-2.22-.77-4.43-2.05-6.35-1.4-.39-2.52-1.33-3.16-2.55-2.24,2.32-5.16,3.79-8.28,4.23-.24.04-.48.07-.73.09-.06,0-.13,0-.19.01-.32.03-.65.04-.97.04,0,0,0,0-.01,0-.76,0-1.53-.04-2.29-.16-1.44-.22-2.88-.67-4.25-1.36h0c-.27-.13-.52-.28-.77-.42ZM445.98,131.45c1.27-.89,2.37-2.01,3.22-3.3.54-.81.98-1.68,1.32-2.59.18-.49.71-.73,1.2-.56.07.03.14.06.2.1.35.23.51.69.36,1.1-.39,1.06-.9,2.06-1.52,2.98-.98,1.48-2.24,2.77-3.7,3.79-.42.3-1,.19-1.3-.23-.3-.42-.19-1,.23-1.3Z"/>
    <path class="cls-5" d="M468.99,123.53c-1.26-.68-2.62-1.14-4.03-1.36-1.68-.25-3.42-.16-5.12.31-.78,1.19-2.02,2.02-3.44,2.27,1.45,2.73,1.96,5.84,1.5,8.82,0,.02,0,.03,0,.05,0,0,0,.02,0,.03-.44,2.87-1.76,5.63-3.95,7.85-.21.21-.42.41-.64.6,1.98,2.52,4.82,4.11,7.88,4.58,2.5.38,5.13,0,7.55-1.24,3.67-1.9,6-5.36,6.58-9.16.38-2.5,0-5.14-1.24-7.56-1.18-2.28-2.97-4.04-5.06-5.19ZM464.83,132.91c-.49.15-1.01-.13-1.17-.62-.45-1.49-1.18-2.87-2.14-4.08-.6-.76-1.29-1.45-2.06-2.06-.41-.32-.48-.91-.16-1.31.05-.06.1-.11.16-.16.33-.26.81-.27,1.15,0,.89.7,1.68,1.49,2.37,2.37,1.1,1.39,1.94,2.98,2.46,4.69.15.49-.13,1.02-.62,1.17Z"/>
    <path class="cls-5" d="M462.99,108.35c-1.79,1.83-2.99,4.2-3.38,6.79-.06.41-.1.83-.12,1.26.89,1.07,1.34,2.5,1.14,3.98,1.52-.26,3.06-.29,4.55-.06,1.64.25,3.22.78,4.68,1.58,2.45,1.31,4.53,3.36,5.9,6.01.14.27.26.53.37.79,4.25-1.57,7.29-5.35,7.97-9.76.19-1.25.19-2.56-.02-3.88-.89-5.44-5.2-9.48-10.37-10.27-1.26-.19-2.56-.19-3.89.03-2.7.44-5.05,1.72-6.83,3.53ZM470.88,114.81c0,.52-.43.93-.95.92-1.55-.03-3.1.24-4.54.78-.91.34-1.78.78-2.59,1.32-.43.29-1.01.17-1.29-.26-.04-.06-.08-.13-.1-.2-.15-.4-.01-.85.36-1.1.94-.63,1.94-1.14,2.98-1.52,1.66-.62,3.44-.92,5.22-.89.52,0,.93.43.92.95Z"/>
  </g>
  <g>
    <path class="cls-7" d="M421.83,60.06c-2.13-.46-6.21,1.48-8.01.86-.36-.12-4.14-4.63-5.15-5.49-8.3-7.03-18.98-8.04-28.41-2.49-3.27,1.92-3.8,3.08-6.05,5.51-3.77,4.08-2.76,2.52-7.68,1.67-.95-.17-3.2.48-2.97-.75s5.29-7.6,6.47-8.79c16.25-16.42,42.36-10.77,51.79,9.49Z"/>
    <path class="cls-7" d="M489.79,60.06c-2-.26-6.33,1.32-7.98.85-.58-.16-4.29-4.73-5.42-5.71-9.33-8.09-24.41-7.48-33.13,1.32-.95.96-2.64,4.08-3.74,4.39-.49.14-7.99-.68-7.99-1.09,1.93-4.39,5.62-8.48,9.25-11.56,16.26-13.82,40.43-6.98,49.01,11.79Z"/>
    <path class="cls-9" d="M477.31,63.29c-1.89-.12-5.46,3.71-6.71,3.71-.46,0-3.79-2.92-5.32-3.46-3.35-1.18-7.3-.95-10.48.59-1.05.51-3.44,2.84-3.98,2.79-.32-.03-5.03-2.81-5.58-3.22-1.9-1.4,1.21-3.69,2.52-4.76,6.4-5.25,15.53-6.18,22.77-2.04,1.06.61,7.53,5.36,6.78,6.39Z"/>
    <path class="cls-7" d="M376.06,63.29c-.77-.8,4.97-5.54,5.77-6.02,9.44-5.72,20.64-2.82,27.51,5.33,0,.4-6.37,4.29-6.77,4.33-.64.06-2.36-1.94-3.36-2.5-2.91-1.62-6.87-2.08-10.11-1.28-2.17.54-5.5,3.63-6.41,3.77-1.03.16-4.92-3.96-6.62-3.63Z"/>
    <path class="cls-7" d="M455.8,34.09c-2-.26-6.33,1.32-7.98.85-.58-.16-4.29-4.73-5.42-5.71-9.33-8.09-24.41-7.48-33.13,1.32-.95.96-2.64,4.08-3.74,4.39-.49.14-7.99-.68-7.99-1.09,1.93-4.39,5.62-8.48,9.25-11.56,16.26-13.82,40.43-6.98,49.01,11.79Z"/>
    <path class="cls-9" d="M443.32,37.32c-1.89-.12-5.46,3.71-6.71,3.71-.46,0-3.79-2.92-5.32-3.46-3.35-1.18-7.3-.95-10.48.59-1.05.51-3.44,2.84-3.98,2.79-.32-.03-5.03-2.81-5.58-3.22-1.9-1.4,1.21-3.69,2.52-4.76,6.4-5.25,15.53-6.18,22.77-2.04,1.06.61,7.53,5.36,6.78,6.39Z"/>
  </g>
</svg>