<?xml version="1.0" encoding="UTF-8"?>
<svg id="Layer_1" data-name="Layer 1" xmlns="http://www.w3.org/2000/svg" xmlns:xlink="http://www.w3.org/1999/xlink" viewBox="0 0 615 569">
  <defs>
    <style>
      .cls-1, .cls-2 {
        fill: none;
      }

      .cls-3 {
        font-family: NotoSans-Black, 'Noto Sans';
        font-size: 300px;
        font-variation-settings: 'wght' 900, 'wdth' 100;
        font-weight: 800;
      }

      .cls-4, .cls-5 {
        fill: #98d4e2;
      }

      .cls-6, .cls-7 {
        fill: #fff;
      }

      .cls-6, .cls-2 {
        stroke: #000;
      }

      .cls-6, .cls-2, .cls-5 {
        stroke-miterlimit: 10;
      }

      .cls-8 {
        fill: #231f20;
        stroke: #231f20;
        stroke-linejoin: round;
        stroke-width: 10px;
      }

      .cls-9 {
        clip-path: url(#clippath);
      }

      .cls-5 {
        stroke: #1991bf;
      }
    </style>
    <clipPath id="clippath">
      <rect class="cls-1" width="615" height="569"/>
    </clipPath>
  </defs>
  <g class="cls-9">
    <g>
      <g>
        <path class="cls-8" d="M351.96,270.12c-.44,1.71-.27,3.83-.68,5.46-1.02,4.13-6.96,6.38-10.83,5.9.22,1.76,1.87,2.97,1.69,4.83-.25,2.61-3.71,4.33-3.8,4.73-.06.27,2.03,3.28,2.03,5.05,0,2.3-2.58,5.22-2.48,6.33.06.66,6.32,6.16,7.44,7.43,1.51,1.72,3.22,4.87,4.58,6.22,1.48,1.47,4.8,2.8,6.6,4.2.64.5,3.83,3.52,4.05,3.99,1.27,2.75-2.24,4.95-1.84,6.47.38,1.46,4.54,3.43,5,6.47.27,1.8-.39,5.39-1.51,6.86-.66.86-1.76.78-1.87,1.23-.2.83.14,2.28.02,3.32-1.17,10.11-5.44,19.63-10.83,28.13-1.39,2.2-5.5,6.89-6.21,8.62-.25.62-.4,1.07-.32,1.76.11,1.02,3.19,5.99,3.88,7.59,6.14,14.15,11.08,30.19,17.51,43.9,1.7,3.63,4.07,4.38,2.88,9.25-.46,1.89-3.04,4.77-3.1,5.38-.13,1.26,1.26,4.62,1.28,6.37.07,4.81-3.07,4.1-4.58,6.43-.7,1.09-3.26,7.29-3.61,8.67-4.35,17.06,18.67,23.67,17.44,40.73-.5,6.93-6.7,11.9-13.3,12.54-1.62.16-4.01-.32-5.41.09-.78.23-1.64,1.66-2.44,2.22-3.12,2.15-13.67,3.53-17.5,3.15-2.31-.23-5.57-1.97-6.85-2.06-1.07-.07-3.01.94-4.32,1.14-15.71,2.46-39.89-10.68-42.82-27.25-.36-2.02.62-3.46-1.1-5.25-2.57-2.68-10.48-6.4-14.15-9.14-3.09-2.32-6.05-5.01-8.94-7.58-3.71-3.3-6.01-7.66-11.64-7.75-5.77-.09-13.98,2.51-20.33,2.87-4.28.24-8.64-.09-12.91-.23-1.24,1.5-2.05,3.29-3.23,4.84-1.14,1.51-5.72,6.38-6.02,7.57-.37,1.48,1.33,2.8,1.58,4.58,1,7.01-.49,10.95-5.67,15.43-9.02,7.79-22.4,9.2-33.68,11.63-1.46,3.18-2.15,6.68-3.73,9.82-14.43,28.74-75.2,30.42-90.08.58-2.71-5.43-2.84-10.48-4.64-15.69-.62-1.79-2.24-3.44-3.07-5.4-2.34-5.5-4.76-17.32-4.35-23.21.16-2.34,1.73-4.35,1.68-5.84-.21-6.51-2.39-15.7-3.5-22.39-2.61-15.63-5.62-31.25-8.21-46.85-.72-4.35-.64-8.82-1.68-13.12-.32-.71-7.34-3.39-8.89-4.26-8.22-4.61-12.91-9.93-16.56-18.6-6.7-15.93-10.02-33.21,1.61-47.75,2.91-3.64,9.58-8.54,9.74-13.17-2.29-24.76-6.51-49.37-8.9-74.1-.91-9.45-1.01-13.93,1.39-23.17,4.51-17.4,10.28-34.55,15-51.91,4.41-16.21,7.75-33.46,12.43-49.41,1.38-4.7,2.87-10.28,8.33-11.15,9.25-1.46,10.99,8.48,16.41,13.44,1.95-3.26,2.14-7.09,3.66-10.73,4.54-10.86,11.06-12.62,19-19.54,19.24-16.76,33.02-32.14,30.06-59.72-.43-4.02-2.57-10.13-2.57-13.56,0-7.72,9.87-4.52,13.78-1.47,6.53,5.1,11.51,20.78,13.56,28.79,4.15,16.24,3.78,36.77-7.42,50.18-4,4.79-17.32,14.44-16.92,20.74.13,2.03,3.53,3.91,5.34,4.04,2.55.18,7.4-5.98,9.47-7.83,6.86-6.15,15.22-13.04,22.73-18.35.98-.69,3.35-1.38,3.74-2.18.83-1.72-1.7-6.1-2.3-8.29-.92-3.39-1.07-6.98-1.93-10.35-.77-2.98-3.38-7.78-3.51-10.49-.13-2.63,1.88-2.35,3.83-2.1,4.51.56,16.07,4.72,19.76,7.34,1.18.84,1.82,2.51,3.42,2.29,2.75-12.15,14.01-22.1,24.01-28.72,5.3-3.51,12.45-6.65,18.98-6.47,4.38.12-1.84,5.62-2.54,7.24-1.7,3.9-2.11,12.45-1.38,16.62.12.68.83,3.71,1.14,3.94,1.45,1.08,1.47-1.25,2.54-2.17,4-3.44,11.07,4.42,13.25,7.55,2.59,3.73,3.94,7.85,6.09,11.7,22.61,6.14,41.39,15.92,59.23,30.98,6.44,5.43,18.51,19.7,27.89,13.47,10.59-7.04-6.41-19.61-10.72-25.14-11.69-15.01-19.1-25.83-19.94-45.71-.6-14.23,1.95-26.42,10.43-37.89,3.34-4.51,11.31-10.77,16.28-4.92,2.13,2.51.54,4.6.42,7.22-.31,6.73-.81,14.03.05,20.69,2.11,16.39,15.55,34.11,28.12,44.3,14.63,11.86,30.05,9.94,37.47,30.71,10.62,29.7-8.56,55.03-34.58,67.08-1.21.56-7.54,2.76-7.72,3.29.1,4.08.04,8.61.37,12.64.15,1.84.35,5.41,1.26,6.78,1.27,1.93,9.36,4.46,12.01,5.78,2.98,1.47,13.47,7.82,14.16,10.83.89,3.9-4.83,12.64-7.19,15.93-1.95,2.71-4.33,5.04-6.2,7.79.75,5.35,6.95,16.18,2.48,20.68-2.01,2.03-12.39,4.35-15.68,5.07-3.63.8-7.31,1.24-10.94,1.98ZM332.31,15.6c-2.03-2.06-5.73,3.09-6.85,4.59-7.91,10.58-10.5,32.52-6.37,44.84,4.84,14.43,16.09,26.54,25.82,37.71,5.53,6.35,9.73,12.53,6.04,21.3-2.24,5.34-10.82,9.27-16.42,9.2.3,5.79,8.95,5.19,13.55,6.99,4.38,1.72,9.53,5.28,6.87,10.67-.55,1.12-2.52,2.12-2.18,3.24,4.34,2.41,9.01,8.75,7.92,13.94-.49,2.35-3.88,4.2-1.79,7.07,1.26,1.74,4.94-.99,6.51-1.93,19.93-11.9,36.13-26.05,34.35-51.65-1.2-17.27-14.25-20.59-26.49-28.14-24.92-15.35-42.59-39.8-41.28-70.1.08-1.73,1.44-6.59.32-7.73ZM105.42,167.97c.31-2.71,1.22-5.64,2.22-8.16.44-1.11,2.46-4.21,2.45-4.78-.03-1.08-3.94-2.28-3.86-5.91.07-2.79,4.29-6.13,6.65-7.36,1.57-.82,3.56-1.2,5.12-2.08,4.68-2.66,7.86-10.65,11.54-14.71-6.12-3.33-5.39-9.75-3.15-15.45,4.6-11.7,18.32-16.25,23.28-29.66,3.87-10.47,2.44-31.88-1.16-42.46-1.53-4.48-6.51-14.98-10.08-17.87-.66-.53-3.3-1.3-2.93-.04.26.88.92,1.79,1.22,3.02,3.43,13.92,3.4,26.71-3.13,39.58-8.64,17.02-21.47,27.44-36.18,38.78-10.24,7.89-13.09,22.74-8.82,34.59,3.53,9.8,9.97,23.43,15.89,31.96.26.37-.07.78.94.55ZM248.14,91.31c.11-.18-.03-.89.19-1.27,1.56-2.64,2.99-4.36,1.81-7.72-.45-1.28-1.32-1.77-1.82-2.84-1.61-3.49-5.03-14.56-8.54-15.61-3.38-1.01-3.6,4.65-2.75,7,.42,1.15,2.3,2.47.51,3.3-1.88.88-3.87-2.01-5.06-3.41-4.98-5.9-8.08-15.05-7.17-22.81.29-2.46,1.5-4.42,2.29-6.6.13-.36.49-1.12,0-1.27-4.49,2.07-9.11,4.19-12.93,7.4-6.78,5.71-17.9,19.84-16.41,29.13.25,1.57,3.56,8.31.9,8.76-1,.17-5.27-6.43-6.29-7.6-3.38-3.87-10.48-9.33-15.35-10.91-5.28-1.71-4.15,1.39-3.21,5.32,1.86,7.71,6.06,15.6,8.6,23.16.43,1.29,2.75,8.03,2.11,8.69-1.98-.13-7.55-2.01-8.39.72-1.41,4.6,5.26,4.23,8.1,6.13.4.27,2.63,1.81,1.55,2.47-4.45-2.04-10.36-2.62-13.99-4.44-6.18-3.1,2.81-9.06,6.37-9.55-.65-1.34-.44-3.88-2.65-3.3-1.22.32-8.82,5.58-10.26,6.71-9.39,7.31-19.57,17.52-26.89,26.9-1.01,1.29-5.92,8.95-6.58,9.09-.39.08-.97-.36-1.05-.65-.38-1.45,3.87-6.93,4.21-8.9.09-.53.19-1.36-.61-1.03-.52.22-4.94,6.08-5.64,7.06-1.36,1.91-2.86,5.68-4.52,6.91-2.87,2.12-14.07,2.75-13.35,7.81.3,2.1,4.36,2.59,4.61,3.89-2.31,5.04-4.98,9.48-5.44,15.2-.3,3.79-.35,9.83,3.17,12.05.69-.4.51-.9.63-1.47,1.89-8.63,1.38-15.61,6.13-23.94.46-.8,3.2-5.34,3.99-2.68.31,1.03-3.63,12.48-4.14,14.81-1.73,7.93-1.82,13.24.4,21.09,1.64,5.77,4.23,11.38,8.23,15.91.53-6.47,1.35-13.19,2.95-19.5,1.02-4.03,3.21-4.38,7.07-5.21,18.17-3.94,37.18,13.7,42.07,30.22,2.27,7.67,3.2,16.84-1.73,23.68-.48.67-1.95,1.76-2.11,2.15-.18.43,1.24,1.33.13,2.44-.91.91-3.9-.42-5.31-.62-9.84-1.39-18.31-1.47-27.79,1.96-1.91-1.35.99-2.17.58-3.75-1.58.03-5.47-4.54-5.39-1.21.05,2.27.94,5.91,1.18,8.39.85,9.1,1.19,21.1,3.01,29.82.75,3.61,2.7,5.14,5.5,7.2,8.48,6.23,18.93,11.72,29.18,14.23.23,2.51-2.97,2.23-4.82,2.06-7.02-.64-15.87-6.17-22.18-7.04-1.44-.2-5.31-.73-5.61.95l2.12,20.97c.65.57,13.91-5.73,14.27,1.55.1,2.04-4.46,9.6-6.77,8.98s.71-2.94.85-4.45c.26-2.76-1.88-2.22-3.69-1.63-6.77,2.19-4.33,3.81-3.52,9.02,2.36,15.08,2.32,31.15,3.99,46.41.84,7.7,2.69,15.1,3.71,22.55,2.13,15.5,2.58,31.52,5.61,46.9.37,1.88.79,4.21,2.2,5.64,16.85,17.01,49.1,28.42,72.85,25.5,4.53-.56,9.37-1.83,13.82-2.91.04.09,1.25.62,1.7,1.05,3.02,2.89,5.79,6.1,8.88,8.91,9.38,8.53,20.31,15.38,31.79,20.73,1.62,2.9-4.85.69-5.14,2.2-.12.65.81,4.33,1.09,5.24,3.1,9.93,20.61,20.5,30.89,19.03,4.38-.63,4.97-7.59,4.37-11.09-.29-1.7-3.54-5.41.4-3.79,3.06,1.26,4.73,6.14,4.79,9.22.03,1.3-1.09,4.78-.04,5.51,6.25.78,15.96,3.27,19.45-3.89,1.84-3.77.33-12.99-3.19-15.34-1.41-.94-4-.88-3.88-2.72.16-2.4,4.44-.8,5.87-.12,3.98,1.9,7.32,6.31,7.92,10.71.53,3.93-1.78,8.56,3.7,8.16,5.31-.39,7.61-5.04,6.96-9.93-1.21-9.07-12.51-16.53-15.65-25.86-.45-1.35-.74-5.91-2.24-5.67-1,.16-4.23,3.49-6.22,2.91-.78-.72,4.91-5.85,5.49-6.57,1.86-2.31,3.69-5.93,4.87-8.68.58-1.35,1.19-4.69,1.72-5.48.93-1.39,3.87-1.21,4.95-4.79,1.02-3.38-2.13-6.9-1.73-8.48.33-1.29,3.74-1.78,3.72-3.89-2.43-5.84-6.41-11.09-8.94-16.86-3.11-7.12-5.55-14.71-8.61-21.88-1.08-2.52-7.54-17.74-8.67-18.46-.72-.45-6.84,3.48-8.18,4.13-6.57,3.18-13.54,5.96-20.78,7.17-1.11,1.24-1.59,2.8-2.62,4.16-3.55,4.66-12.62,13.83-18.28,15.18-4.38,1.05-8.89.04-12.81-2.01-.37-.19-1.16-1.2-1.98-1.62-3.45-1.76-3.68-.37-6.67-.05-6.85.72-16.32-3.89-18.65-10.62-.82-2.37-.53-4.39-1.29-6.76-1.39-4.31-5.06-7.35-5.3-12.5-.14-2.91,2.66-13.23,4.5-15.44,2.29-2.74,6.79-3.64,9.29-6.8,1.48-1.86,1.95-4.19,3.1-6.22,2.79-4.91,9.47-10.76,14.05-14.12,4.36-3.2,9.15-5.71,13.79-8.48.52-1-1-3.52-1.04-4.9-.09-2.84,1.87-7.93,5.04-8.22.19,2.69-.62,5.1-.41,7.83.17,2.32,2.24,6.16,1.47,7.83-.56,1.21-8.81,4.6-10.76,5.76-6.39,3.8-12.94,10.22-17.07,16.39-1.67,2.49-4.31,9.01-6.38,10.14-1.02.55-2.32.65-3.41,1.25-4.9,2.72-7.66,6.79-7.93,12.42-.06,1.3.56,8.22,2.35,7.84.44-.1,4.05-6.04,5.52-7.19s4.83-2.64,3.85.43c-.49,1.53-2.74,4.05-3.54,6.24-1.99,5.45-2.75,10.31,1.18,15.14,3.64,4.48,7.84,3.96,13.12,4.46-.69-2.75-1.79-4.73-1.17-7.74.37-1.78,2.92-4.69,4.98-4.54-.67,16.55,10.69,19.41,23.26,11.19,4.73-3.09,5.62-6.38,8.76-10.3,3.02-3.77,7.51-3.63,11.83-5.11,19.01-6.55,35.32-20.91,40.4-40.91.83-3.26.33-7.47.97-9.62.32-1.08,2.59-2.06,2.76-3.52.41-3.49-7.63-7.37-6.47-9.89.28-.6,1.36-.84,1.51-1.94.46-3.21-5.87-5.95-7.84-7.81-1.52-1.43-3.09-4.26-4.65-5.93-7.21-7.7-14.79-14.46-25.41-16.94-.56-.02.86,5.69-2.6,7.57-4.64,2.53-10.96.28-15.82,2.18,2.31,2.96-.74,9.2-4.05,9.71-1.06.16-7.51.2-7.79.47.26,2.67-4.06,13.34-6.61,13.56-.99.09-1.38-.91-2.3-.87-.75,1.79-1.34,5.46-3.82,5.51,0-.56-.47-1.4-.38-2.69.12-1.75,1.68-7.01,3.61-7.39,1.37-.27,3.23,2.47,4.2-2.18.31-1.51.9-5.33-.27-6.14-2.72-1.88-3.16,2.13-4.53,4.3-3.93,6.19-15.38,16.89-22.79,17.87-2.17.29-5.08-.37-7.06.14-2.67.68-6.77,5.37-11.64,6.15-4.08.65-5.82-1.82-7.49-1.6-.9.12-5.72,3.6-7.58,4.32-1.66.65-7.74,2.43-6-1.34.91-1.97,13.49-7.88,15.33-10.97,2.83-.21,1.64,4.1,3.09,4.84,1.08.54,3.26-.62,4.39-1.13,6.24-2.82,12.17-7.43,17.07-12.16,3.45-.17-.11,5.62.14,5.87,1.68-.51,3.87-1.19,5.38-2.03,4.08-2.27,11.36-10.95,13.03-15.34.57-1.48,1.09-5.61,2.21-5.88.9-.22,1.75,1.02,2.9,1.21,1.52.25,3.44-.08,5.06.03,3.02.21,7.54.97,10.5.32,4.92-1.07-3.65-7.26.17-9.68,1.6-1.01,3.51,0,5.01.03,4.37.09,8.99-.29,13.32-.86.4-.6-2.96-5.5-1.63-7.55.28-.43,10.41-2.66,5.74-5.22-2.59-1.42-5.72.24-7.46-2.73.83-1.63,2.11-1.84,3-3.68.29-.6,1.81-4.76,1.62-4.94-4.21,1.67-7.94,4.62-12.7,4.65.39-5.16,8.01-6.74,11.98-8.97,3.96-2.23,7.67-5.51,11.52-7.96,1.62,3.12-4.78,5.97-5.22,7.5s.81,2.11.78,3.51c-.07,2.47-2.25,6.04-3.39,8.25.28,1.31,11.02,1.97,9.23,7.97-.44,1.48-2.79,1.19-1.84,2.87,3.1.6,8.57,4.55,11.24,4.9,2.96.39,1.33-6.04.2-7.45-1-1.25-3.84-1.81-1.15-3.31,2.17-1.21,4.9-.22,4.78-3.68-.19-5.97-2.02-3.88-6.28-4.77-2.57-.54-5.6-2.56-8.13-3.51l1.07-1.71c2.79.41,6.08,1.33,8.88,1.33,1.2,0,2.23-.45,3.37-.48,2.51-.07,9.26.24,11.22-1.06,2.99-1.98-3.9-12.38-3.37-12.9,7.78,1.54,15.24.48,22.95-.97,1.2-.23,7.63-1.43,7.97-1.77,1.36-1.38-.25-7.43-.84-9.34-.69-2.22-3.56-7.47-3.44-9.31.09-1.5,3.57-4.71,4.7-6.14,2.08-2.61,8.3-9.94,7.86-13.15-.34-2.53-5.9-7.17-8.15-8.38-5.17-2.77-12.13-4.89-17.87-6.06-.05-11.07-1.42-23.48-6.61-33.41-1.16-2.22-5.85-8.39-6.13-9.96-.12-.66-.26-1.16.62-1.04,1.23.17,5.04,2.61,5.99,3.54.63.61,1.47,2.55,2.13,2.77,1.55.52,3.86-2.18,3.36-3.78-.84-2.68-10.26-8.56-10.67-10.13-.27-1.01-.16-1.41.31-2.31.74-1.41,4.21-3.09,4.83-4.07.28-.45.34-.85.01-1.3-.71-.97-14.19-2.67-16.12-3.79-.52-.47-1.04-.95-1.42-1.55-5.2-8.29-11.72-17.52-19.11-24.09-11.75-10.44-40.87-30.79-56.85-28.47-2.89.42-5.84,3.98-7.94,1.58ZM86.78,148.49c-.66-.45-3.46,2.98-4.26,3.57-5.47,4.05-13.95,4.96-20.51,4.47-1.71-.13-7.43-1.51-8.48-.43l-20.88,72.33.58,1.37c6.37-3.12,11.56-2.63,16.73,2.31,2.24,2.14,7.19,10.13,10.2,9.76,1.57-.19,8.63-7.36,10.52-8.9,7.35-5.98,15.77-11.72,25.43-7.21,3.31,1.55,13.47,10.64,16.2,9.9,1.46-.39,4.47-8.24,5.59-10.11,1.61-2.68,3.82-5.64,7.22-5.94,1.28-.11,2.47.72,3.17-.21l-41.51-70.93ZM154.55,234.04c.08-1.26-1.36-1.52-2.05-2.39-6.87-8.61-8.82-25.01-5.87-35.39.45-1.6,2.71-6.21,2.38-7.25-.4-1.25-4.15-2.64-5.58-2.32-2.26.5-6.38,6.21-7.29,8.39-2.66,6.42-1.15,24.36,2.1,30.5,3,5.67,9.59,10.62,16.31,8.46ZM159.09,195.15c-1.35.4-2.74,3.99-2.83,5.27-.34,4.59,7.02,9.16,10.97,6.28,4.39-3.18-4.02-9.23-6.34-11.41-.58-.32-1.19-.32-1.81-.14ZM151.27,203.24c-.78.75-1.7,4.82-1.79,6.03-.65,8.25,6,22.07,14.38,24.57,7.64,2.27,15.04-2.33,14.4-10.59-.06-.7-.88-5.49-1.04-5.74-.93-1.49-1.63,1.16-2.11,1.73-2.5,2.94-6.28,4.12-9.85,2.18-4.45-2.41-3.91-7.35-5.68-11.26-.62-1.38-3.34-4.9-4.42-6.17-.9-1.07-2.7-1.9-3.9-.75ZM56.39,399.73c.12,11.39,2.44,22.66,4.27,33.89,2.41,14.83,5.19,29.66,7.61,44.49,1.43,8.77,13.22,13.43,20.98,14.6,5.17.78,6.25.89,6.01-4.74-.12-2.88-1.94-7.46.22-9.52,1.65.03,3,12.31,3.71,14.07s5.84,1.26,7.72,1.16c7.31-.38,16.41-2.36,23.41-4.54,1.97-.61,6.89-2,8.3-3.13,2.34-1.89,1.01-6.3,1.95-6.95,2.55-1.78.95,4.44,2.76,4.03.26-.06,3.7-2.89,4.26-3.37,1.36-1.18,9.44-9.17,9.75-10.15.56-1.74-.78-6.18-1.03-8.33-8.06-70.82-15.82-141.72-23.77-212.57-.7-6.27-.77-12.81-1.73-19.02-.29-1.87-1.48-3.36-3.34-3.86-3.62-.97-4.6.85-6.02,3.74-1.08,2.19-4,9.9-4.39,12.13-.33,1.92.3,11.53-1.25,11.88-.6.13-1.17-.66-1.36-1.17-.87-2.24-.89-8.55-1.98-9.88-.55-.68-6.22-2.67-7.84-3.59-6.01-3.43-8.53-9.24-16.33-8.64-11.88.91-11.68,7.54-18.43,14.18-2.9,2.85-4.85,1.37-4.65,7.2.23,6.95,2.07,15,2.53,22.04.14,2.12-.1,4.06-.42,6.13-.74.15-.86-.19-1.18-.73-3.35-5.67-3.26-20.35-4.87-27.32-.94-4.08-2.19-2.62-5.25-4.07-2.27-1.08-8.48-7.62-10.52-9.81-.8-.86-1.33-2.32-2.1-2.98-3.88-3.29-12.18,1.29-12.09,6.13,2.54,22.08,6.38,44.07,8.86,66.14.8,7.1.42,14.29,2.21,21.29.97.82,7.81-2.14,9.6-2.38,10.94-1.49,16.11,8.54,16.46,17.96.07,1.77-.72,4.37-.18,6.19.19.64,2.99,3.18,3.79,4.68,2.29,4.25,2.31,13.28.02,17.52-.81,1.5-2.4,1.76-1.7,4.06.42,1.35,1.57,1.09,1.64,3.9.24,9.59-7.9,15.62-15.61,19.36ZM54.82,348.4c2.02-.27,5.03,0,7.2,0,1.32,0,1.13-6.62.96-7.73-.35-2.26-2.83-6.65-4.58-8.13-3.11-2.61-9.47-1.5-12.82.26-2.75,1.44-5.89,7.43-8.1,1.6-1.34-3.53,1.07-9.89-4.48-5.7-5.64,4.25-11.41,18.82-10.47,25.74,2.24,16.36,12.62,40.31,32.66,37.97,6-.7,11.54-5.68,10.84-12.03-.19-1.78-2.27-4.99-2.06-5.84.19-.76,2.89-2.27,3.66-4.41.65-1.78,1.15-8.54.9-10.46-1.16-8.85-13.21-7.87-19.55-5.65-1.5.52-2.94,2.33-4.35,1.18-1.24-1.81,4.42-4.76,5.74-5.3.98-.4,3.55-1.37,4.44-1.49ZM166.83,516.12c7.78-1,18.08-3.25,25.08-6.9,6.47-3.37,8.83-10.72,4.31-16.79-1.13,1-6.85,3.13-6.05.24.13-.46,5.88-4.68,6.94-5.77,1.51-1.55,6.03-7.01,6.92-8.75.48-.94.99-2.05-.22-2.62-11.45-3.51-21.52-10.03-32.18-15.25l-8.61-6c.86,4.42-.18,10.12,1.61,14.27,2.18,5.06,2.99,6.88,3.84,12.68.33,2.28.1,6.37.67,8.23,1.05,3.46,7.91,3.18,10.82,3.79.88,5.24-9.69.97-10.56,1.72.19,2.37-2.57,6.35-2.57,8.23v12.92ZM159.85,473.35c-.47.1-4.57,6.62-5.72,7.84-6.21,6.61-23.95,14.46-32.87,15.83-13.46,2.06-32.11,1.47-44.75-3.87-2.09-.88-9.39-6.82-10.39-3.41-.56,1.9.5,8.89.88,11.23.56,3.36,1.73,10.26,4.81,12.13,1.4.86,3.37.95,4.8,1.55,19.37,8.2,30.98,7.45,51.34,3.47,9.99-1.95,22.6-7.43,30.6-13.86,2.8-2.25,5.05-3.52,5.32-7.38.34-4.91-.25-16.44-2.01-20.89-.25-.63-1.17-2.81-2.01-2.63ZM160.46,508.52c-.32-.27-1.51.12-1.98.31-2.33.98-6.14,4.19-8.73,5.67-6,3.44-12.16,6.48-18.91,8.19-11.52,2.92-30.93,4-42.35.84-4.96-1.37-9.77-3.55-14.62-5.29-.26,3.45,1.66,8.08,3.11,11.29,10.41,23.06,45.13,22.3,65.15,13.77,9.48-4.04,16.91-12.54,18.66-22.84.3-1.77.65-11.11-.34-11.94Z"/>
        <path class="cls-8" d="M373.91,234.89c-1.13,1.43-4.61,4.64-4.7,6.14-.11,1.84,2.75,7.08,3.44,9.31.6,1.91,2.21,7.96.84,9.34-.34.34-6.77,1.55-7.97,1.77-7.71,1.46-15.17,2.51-22.95.97-.53.51,6.36,10.92,3.37,12.9-1.96,1.3-8.71.99-11.22,1.06-1.14.03-2.17.48-3.37.48-2.81,0-6.09-.92-8.88-1.33l-1.07,1.71c-1.42-.53-3.16-1.02-4.66-1.27.04-1.4-1.22-1.96-.78-3.51s6.85-4.38,5.22-7.5c-3.85,2.45-7.56,5.73-11.52,7.96-3.97,2.24-11.6,3.82-11.98,8.97,4.76-.03,8.49-2.99,12.7-4.65.18.18-1.33,4.34-1.62,4.94-.89,1.84-2.17,2.05-3,3.68,1.74,2.97,4.87,1.31,7.46,2.73,4.67,2.56-5.47,4.79-5.74,5.22-1.33,2.05,2.03,6.96,1.63,7.55-4.34.57-8.95.95-13.32.86-1.5-.03-3.41-1.04-5.01-.03-3.82,2.42,4.75,8.61-.17,9.68-2.96.64-7.48-.12-10.5-.32-1.62-.11-3.54.22-5.06-.03-1.16-.19-2-1.42-2.9-1.21-1.12.27-1.64,4.4-2.21,5.88-1.68,4.39-8.95,13.07-13.03,15.34-1.51.84-3.7,1.52-5.38,2.03-.25-.24,3.3-6.03-.14-5.87-4.9,4.73-10.82,9.35-17.07,12.16-1.13.51-3.31,1.68-4.39,1.13-1.45-.73-.26-5.05-3.09-4.84-1.83,3.1-14.42,9-15.33,10.97-1.74,3.77,4.35,1.99,6,1.34,1.86-.72,6.68-4.2,7.58-4.32,1.67-.23,3.41,2.25,7.49,1.6,4.87-.78,8.97-5.46,11.64-6.15,1.98-.51,4.89.15,7.06-.14,7.41-.98,18.86-11.68,22.79-17.87,1.38-2.17,1.81-6.18,4.53-4.3,1.17.81.58,4.63.27,6.14-.97,4.65-2.83,1.91-4.2,2.18-1.94.38-3.49,5.64-3.61,7.39-.09,1.29.38,2.13.38,2.69-.01,2.64-1.48,5.4-1.69,8.05-4.58,3.36-11.26,9.21-14.05,14.12-1.15,2.03-1.62,4.36-3.1,6.22-2.51,3.16-7,4.06-9.29,6.8-1.84,2.21-4.64,12.53-4.5,15.44.24,5.15,3.91,8.19,5.3,12.5.76,2.37.47,4.38,1.29,6.76,2.33,6.73,11.79,11.34,18.65,10.62,2.99-.31,3.23-1.71,6.67.05.82.42,1.62,1.42,1.98,1.62.06,1.76.02,3.55-.46,5.25-.24.87-1.19,1.87-1.23,2.37-.85-.09-1.53.07-2.27.48-3.39,1.85-10.48,18.02-11.71,22.18-.59,1.99-1.16,3.53-.84,5.72-1.64.67-5.75,13.79-5.08,15.25-4.44,1.08-9.28,2.35-13.82,2.91-23.75,2.92-56.01-8.49-72.85-25.5-1.41-1.42-1.83-3.75-2.2-5.64-3.04-15.39-3.49-31.41-5.61-46.9-1.02-7.46-2.87-14.85-3.71-22.55-1.67-15.26-1.63-31.33-3.99-46.41-.81-5.21-3.26-6.82,3.52-9.02,1.81-.59,3.96-1.13,3.69,1.63-.14,1.51-3.2,3.82-.85,4.45s6.88-6.94,6.77-8.98c-.36-7.28-13.63-.97-14.27-1.55l-2.12-20.97c.3-1.68,4.17-1.15,5.61-.95,6.31.87,15.16,6.4,22.18,7.04,1.85.17,5.05.46,4.82-2.06-10.25-2.52-20.7-8-29.18-14.23-2.8-2.06-4.75-3.59-5.5-7.2-1.82-8.72-2.15-20.71-3.01-29.82,6.32-.99,12.68-1.48,19.06-1.69-.05,1.27.64,1.05,1.45,1.3,1.2.37,5.67,1.86,5.75-.45.4.09,2.62.4,2.96.42-1.53,2.44,5.35,2.67,6.47,2.44,1.75-.36,4.48-2.93,4.54-4.75.02-.46-.43-.95-.42-1.09.06-1.69,7.71-8.8,9.58-9.69,1.88-.9,5.67-1.35,5.69,1.41.02,3.37-3.57,8.31-2.99,12.09-.42.44-.83,1.7-.87,2.33-.33,4.5,3.43,2.84,5.93,4.68,2.96,2.18,3.44,5.8,8.72,5.62,3.43-.12,4.07-3.47,6.53-4.82,2.63-1.44,6.6-.68,7.85-3.58.48-1.1.35-2.61.64-3.39.65-1.75,2-3.63,2.75-5.51,1.53-3.85,1.48-10.17,7.82-7.38,3.5,4.26,7.55,8.04,11.71,11.6.49.42.54,1.25.6,1.29-1.74.97.77,3.61,1.73,4.42,4.27,3.57,9.89-.33,14.38-1.24l.83-1.48c1.31-.1,3.05.22,4.23,0-.53,2.3,3.25,1.38,4.38,1.2,1.51-.24,4.99-.63,5.36-2.47,6.25.26,12.62.08,18.84.43,3.85.22,14.22,2.56,17,1.77,1.45-.41,2.49-1.23,1.45-2.76-1.16-1.72-7.15-.38-5.88-4.64.49-1.62,4.89-2.76,6.56-3.61.88-.45,1.39-1.32,2.25-1.78.19-.1,1.03.12,1.65-.23,1-.57,4.26-2.45,4.84-3.12s.23-1.42.28-2.16c.25-.12,2.46-1.57,2.54-1.69.36,1.02.78.79,1.6.57,1.5-.39,5.26-3.04,6.6-2.65,1.63.48.69,4.85,5.29,3.48,1.82-.54,10.73-7.21,11.93-8.81.61-.81.78-1.19-.43-1.06.04-.02-.14-.64.31-.83,2.74-1.15,5.8-2.81,8.75-2.51,3.15.32,14.01,4.86,16.32,6.97,3.32,3.02-.5,9.29-1.24,12.89ZM261.56,259.15c-2.69-3.33-6.47,2.86-8.56,4.53-4.52,3.59-13.7,6.46-19.45,6.8-7.68.47-15.17-2.28-23.33-1.73-7.8.53-18.81,4.99-26.15,1.2-3.95-2.03-8.03-6.85-12.04-9.15-2.7-.62-4.31,1.02-3.18,3.62,2.13,4.93,12.04,6.32,15.28,10.98.96,1.38,1.79,4.97,3.7,5.24,3.07.43,4.37-3.41,6.66-4.76,10.71-6.28,26.09-2.97,37.57-1.44,4.05.54,4.65,5.37,7.76,5.21,3.13-.16,3.44-4.48,4.57-6.38,1.27-2.13,6.13-3.02,8.56-4.15,1.95-.91,4.13-2.16,5.78-3.53,1.77-1.47,4.76-4.05,2.83-6.45ZM290.48,283.6c-.17-.18-4.03.68-4.87.76-.56.05-1.27-.39-2.06-.32-3.31.31-6.17,2.47-8.53,4.64-1.24.11.18-.94-.4-2.11-1.09-2.19-6.3-1.62-8.28-1.07-5.86,1.64-8.5,6.09-13.43,8.17-7.87,3.31-15.17,2.13-22.56,4.12-3.48.94-5.36,3.11-.63,3.6,6.47.67,12.88-.71,19.27-1.27.61,1.89-1.76,4.08-1.59,5.66.19,1.75,3.29,3.87,4.6,2.11.15-.21.38-3.8.79-5.03,1.42-4.23,8.5-11.99,12.97-12.47,5.45-.59-.37,5.98,2.54,8.01,2.59,1.8,2.08-.39,2.61-1.55.66-1.42,9.21-6.99,11.09-7.97,2.06-1.07,4.49-1.63,6.5-2.82.59-.35,2.81-1.59,1.99-2.46ZM188.71,296.79c-1.98,1.16.64,2.57,1.88,3.07,4.78,1.93,16.16,2.48,21.33,1.95,1-.1,3.09-.27,3.21-1.48.25-2.5-2.41-1.02-3.58-1.1-2.8-.19-6.04-1.32-8.94-1.65-4.6-.52-9.29-.29-13.9-.79ZM182.91,332.32c-.72,5.7-2.81,13.09.5,18.34.88,1.4,3.45,3.72,5.18,3.65,4.69-.17,9.24-7.99,12.94-9.11,2.52-.76,6.44,1.67,5.44-2.85-1.23-5.51-9.98-.5-12.43,1.79-1.35,1.27-5.13,6.8-7.62,4.27-2.79-2.85-.41-15.03,3.17-17.61.4-.29,8.39-4.1,4.82-5.23-2.15-.68-13.64,5.28-14.15-.26-.38-4.12,6.61-4.69,5.91-7.54-.24-.98-1.26-1.22-2.16-1.07-2.98.48-7.66,3.64-11.25,4.46-2.47.57-8.92.25-10,1.01-2.69,1.87,2.27,3.66,3.83,3.77,1.26.08,7.33-1.3,7.79-.84.09.1-.07,1.98.09,2.67.6,2.59,5.62,4.09,7.95,4.55ZM193.51,413.62v7.41c0,.37,1.88,6.59,2.18,7.14.27.49,3.22,4.23,3.75,3.66-.65-3.57-2.52-7.72-2.92-11.27-.49-4.44.82-9.46.1-13.62-.18-1.06-.78-2.3-2.06-2.19s-1.74,2.16-3.16,2.09c-1.16-6.6,4.22-11.21,5.92-16.94-4.41-.6-6.56,3.59-7.94,7.09-1.92,4.85-3.07,10.68-1.6,15.8.55,1.91,2.98,5.27,4.67,2.94.55-.76.32-1.93,1.07-2.11ZM207.9,445.81l-4.66-7.83c-.52-.74-1.14-1.22-2.11-1.06-.31,4.06,2.85,8.05,6.77,8.89Z"/>
        <path class="cls-8" d="M56.39,399.73c7.71-3.75,15.85-9.77,15.61-19.36-.07-2.8-1.22-2.54-1.64-3.9-.71-2.3.89-2.56,1.7-4.06,2.29-4.25,2.27-13.27-.02-17.52-.8-1.49-3.6-4.03-3.79-4.68-.54-1.83.24-4.42.18-6.19-.35-9.42-5.52-19.45-16.46-17.96-1.79.24-8.62,3.2-9.6,2.38-1.79-7-1.42-14.19-2.21-21.29-2.47-22.07-6.31-44.07-8.86-66.14-.09-4.84,8.21-9.42,12.09-6.13.77.66,1.31,2.12,2.1,2.98,2.04,2.2,8.24,8.74,10.52,9.81,3.06,1.45,4.31-.02,5.25,4.07,1.61,6.97,1.52,21.65,4.87,27.32.32.54.44.88,1.18.73.32-2.07.56-4.01.42-6.13-.47-7.04-2.3-15.09-2.53-22.04-.19-5.83,1.75-4.35,4.65-7.2,6.75-6.64,6.55-13.26,18.43-14.18,7.8-.6,10.32,5.21,16.33,8.64,1.62.93,7.29,2.92,7.84,3.59,1.09,1.33,1.11,7.64,1.98,9.88.2.51.76,1.3,1.36,1.17,1.55-.35.92-9.96,1.25-11.88.39-2.23,3.31-9.94,4.39-12.13,1.43-2.89,2.4-4.71,6.02-3.74,1.85.49,3.05,1.99,3.34,3.86.96,6.21,1.03,12.75,1.73,19.02,7.95,70.85,15.7,141.75,23.77,212.57.25,2.16,1.59,6.59,1.03,8.33-.31.98-8.39,8.97-9.75,10.15-.56.48-3.99,3.31-4.26,3.37-1.81.41-.2-5.81-2.76-4.03-.94.65.39,5.06-1.95,6.95-1.41,1.14-6.33,2.52-8.3,3.13-7,2.18-16.1,4.17-23.41,4.54-1.89.1-7,.63-7.72-1.16s-2.05-14.04-3.71-14.07c-2.16,2.06-.34,6.64-.22,9.52.23,5.63-.84,5.52-6.01,4.74-7.76-1.17-19.54-5.82-20.98-14.6-2.42-14.82-5.2-29.66-7.61-44.49-1.83-11.22-4.15-22.49-4.27-33.89ZM119.5,293.65c2.51,2.64,2.09-3.91,2.01-5.18-.32-5.17-1.64-10.43-2.2-15.59-2.78-2.45-3,.92-2.88,3.29.98,2.61,1.86,16.2,3.07,17.48ZM81.71,375.5c-.45,0-.88-.11-1.29.19-.64.47-.49,7.15-.39,8.49.7,10.05,3.8,20.96,5.43,30.99.67,4.13.71,8.39,1.46,12.51.37,2.06.5,5.18,2.41,6.26-.11-2.96.66-5.67.42-8.68-.31-4.01-1.18-9.37-1.75-13.5-1.66-12.15-4.54-24.15-6.29-36.28ZM104.16,387.79c1.75-.25,11.97-1.03,12.28-2.34.12-.53-.47-1.07-1.01-1.03l-23.97,4.22c-.7,3.53,6.7-.51,7.62.42.58,1.61-1.79,10.46-1.27,11.01.26.27,1.33.05,1.6-.72,1-2.81,1.04-7.68,1.36-10.71.68-.77,9.99,4.81,11.31,5.01,1.56.24,1.92-1.17.42-1.71l-8.34-4.15ZM119.28,399.74c-2.9.86-.93,4.93.85,5.35,3.93.93,5.29-7.16-.85-5.35ZM116.43,402.19l-22.57,3.89-.71,1.61c.74.71,18.05-2.64,20.25-3.25.54-.15,4.34-.94,3.04-2.25ZM106.7,418.28c5.5-9.29-10.06-11.92-9.7-1.94.02.67.98,3.06.81,3.21-.14.12-4.06-.28-1.84,1.64l24.39-3.02c1.99-.44,2.29-2.21-.12-1.83-4.47.7-8.98,1.65-13.54,1.94ZM116.01,431.41c.6.57,2.63-.66,3.19-1.25,5.02-5.24-2.71-11.05-9-7.31-2.68,1.59-8.24,9.24-11.55,6.64-2.58-2.02,1.01-3.73,2.95-4.02.43-2.85-2.87-.99-4.03,0-3.31,2.83-.29,6.77,3.28,6.28,5.16-.71,7.95-7.75,12.43-8.35,3.2-.43,7.2,1.02,5.2,4.78-.43.81-3.37,2.37-2.48,3.23ZM118.89,439.58c-3.52.27-13.77,1.69-16.4,3.5-5.54,3.82-3.58,16.52,3.61,17.51,3.1.43,13.06-.98,16.37-1.76s3.5-4.12.44-5.32c-4.64.11-10.68,2.28-15.16,2.07s-5.64-6.74-1.78-8.59c3.19-1.53,14.72-1.42,16.41-3.07,1.08-1.06.4-3.91-1.16-4.37-.88-.26-1.51-.02-2.33.04ZM123.55,462.43l-19.83,3.06c-2.41.89-2.12,4.28.32,4.8,2.24.48,6.51-1.94,7.54,1.33.69,2.18.24,4.54,1.57,6.9,3.35,5.97,14.47,3.61,14.67-4.17.03-1.32-1.01-8.69-1.41-9.93s-1.58-2.01-2.86-1.99Z"/>
        <path class="cls-8" d="M248.14,91.31c2.11,2.4,5.05-1.17,7.94-1.58,15.98-2.31,45.1,18.04,56.85,28.47,7.39,6.57,13.91,15.79,19.11,24.09.37.6.9,1.08,1.42,1.55,1.93,1.12,15.41,2.82,16.12,3.79.33.45.27.86-.01,1.3-.61.97-4.08,2.66-4.83,4.07-.47.9-.58,1.29-.31,2.31.42,1.57,9.83,7.44,10.67,10.13.5,1.59-1.81,4.3-3.36,3.78-.65-.22-1.5-2.16-2.13-2.77-.95-.93-4.76-3.38-5.99-3.54-.88-.12-.74.38-.62,1.04.28,1.57,4.97,7.74,6.13,9.96,5.19,9.93,6.56,22.34,6.61,33.41,5.74,1.17,12.7,3.3,17.87,6.06,2.25,1.2,7.8,5.85,8.15,8.38.44,3.21-5.78,10.54-7.86,13.15.74-3.6,4.56-9.87,1.24-12.89-2.32-2.11-13.17-6.65-16.32-6.97-2.95-.3-6,1.36-8.75,2.51-.45.19-.28.81-.31.83-.34.18-2.18.26-3.25.77-2.14,1.02-8.09,4.96-9.67,5.16-1.03.13-.52-1.38-1.1-2.29-1.8-2.83-8.46.9-10.15,2.9-.83.97-.63,1.64-.82,1.93-.08.13-2.29,1.58-2.54,1.69-.29.13-1.24-.05-1.99.32-1.85.91-5.06,2.78-4.78,5.18-.86.46-1.36,1.33-2.25,1.78-1.67.85-6.07,1.98-6.56,3.61-1.28,4.26,4.72,2.93,5.88,4.64,1.04,1.53,0,2.35-1.45,2.76-2.79.79-13.15-1.55-17-1.77-6.23-.35-12.59-.17-18.84-.43-5.85-.24-5,.4-9.74,1.27-1.19.22-2.92-.1-4.23,0-2.72.2-7.16.98-9.51.87-.45-.02-7.09-2.36-7.43-2.56-.06-.04-.11-.87-.6-1.29-4.15-3.57-8.2-7.35-11.71-11.6-6.33-2.79-6.28,3.54-7.82,7.38-.75,1.88-2.1,3.76-2.75,5.51-1.33-1.33-2.12-2.69-4-3.41-5.25-2.01-20.76-1.7-24.79,2.56-.58-3.78,3.01-8.73,2.99-12.09-.02-2.76-3.81-2.3-5.69-1.41-1.87.89-9.52,8-9.58,9.69-1.71-.43-2.17,1.03-3.24,1.63-2.47,1.38-4.45,1.94-7.34,1.76-.34-.02-2.56-.34-2.96-.42-3.82-.82-2.7-1-7.2-.85-6.38.22-12.73.7-19.06,1.69-.23-2.48-1.13-6.12-1.18-8.39-.07-3.33,3.82,1.24,5.39,1.21.4,1.59-2.5,2.41-.58,3.75,9.48-3.42,17.95-3.34,27.79-1.96,1.4.2,4.39,1.52,5.31.62,1.11-1.1-.32-2-.13-2.44.17-.39,1.63-1.48,2.11-2.15,4.92-6.84,4-16.01,1.73-23.68-4.89-16.52-23.89-34.16-42.07-30.22-3.86.84-6.05,1.18-7.07,5.21-1.6,6.31-2.42,13.02-2.95,19.5-4-4.54-6.59-10.14-8.23-15.91-2.23-7.85-2.13-13.16-.4-21.09.51-2.34,4.45-13.78,4.14-14.81-.8-2.65-3.54,1.88-3.99,2.68-4.76,8.33-4.24,15.31-6.13,23.94-.13.57.06,1.07-.63,1.47-3.52-2.23-3.48-8.26-3.17-12.05.46-5.72,3.13-10.16,5.44-15.2-.24-1.31-4.31-1.8-4.61-3.89-.72-5.06,10.49-5.69,13.35-7.81,1.66-1.23,3.16-5,4.52-6.91.7-.99,5.12-6.85,5.64-7.06.79-.33.7.5.61,1.03-.34,1.97-4.59,7.45-4.21,8.9.08.29.66.73,1.05.65.67-.14,5.58-7.8,6.58-9.09,7.31-9.38,17.49-19.59,26.89-26.9,1.45-1.12,9.04-6.38,10.26-6.71,2.21-.58,2,1.96,2.65,3.3-3.55.49-12.54,6.45-6.37,9.55,3.63,1.82,9.54,2.4,13.99,4.44,2.4,1.1,3.69,2.06,6.35,2.96.27,1.95,2.78,3.96,4.23,5.3,1.11,1.03,5.49,4.74,6.55,4.89,5.76.77,14.23-.66,16.65-6.7.23-.58-.03-1.43.1-1.79.43-1.24,16.19-16.58,18.41-18.65,1.81-1.68,8.74-6.69,9.54-8.04ZM148.62,146.79c-.6-.02-1.2-.04-1.79.1l-6.68,2.02c-3.17.4-8.99,5.75-5.95,8.71l13.59,5.46c3.58,2.52,7.67,4.1,11.38,6.41,11.63,7.21,20.56,19.16,26.93,31.09,1.12-.04,1.09-1.08,1.09-1.9-.02-3.68-2.02-7.67-2.17-11-.24-5.37,3.38-8.04.86-15.47-1.2-3.55-5.71-13.06-8.47-15.67-2.79-12.16-19.07-17.43-28.8-9.74ZM257.45,145.1c-2.3,1-4.93,2.69-6.78,3.39-4.73,1.8-6.19,3.3-9.31,7.42-4.53,5.97-8,12.89-5.17,20.4,1.29,3.43,1.48,1.93,4,2.77,2.31.78-.26,3.68-.86,5.3-1.68,4.53-2.7,9.24-2.88,14.09-.1,2.9,2.16.04,2.73-1.12,1.9-3.84,2.25-9.04,4.95-12.84,2.22-3.12,9.95-9.04,13.35-11.21,12.76-8.18,26.58-7.68,40.64-11.02,4.35-1.04,6.4-5.94,2.29-9.12-1.26-.97-1.73-.81-2.74-1.28-3.66-1.7-18.79-9.34-22.02-7.2-.28-.58-.78-1.12-1.38-1.37-2.5-1.04-12.76-.34-15.58.73-.76.29-1.15,1.02-1.25,1.06ZM245.17,225.99c-.02,1.27.49,4.54,1.69,5.08-2.58-.55-.29,2.27.25,2.93,1.23,1.52,2.91,2.29,3.99,3.64,1.65,2.07.96,4.58,4.13,4.76,4.5.25,14.21-3.3,19.8-3.7,3.7-.26,8.54-.17,12.29-.02,2.34.09,14.38,1.91,15.4.4,1.51-2.25-4.19-3.02-4.19-3.56,6.65-5.73,11.56-13.32,14.29-21.7,1.84-5.65,1.54-10.15.94-15.99-.36-3.54-2.83-18.07-5.83-19.69-.68-.37-4.71-.81-5.79-.87-11.27-.7-22.83,1.03-32.99,6.01-11.82,5.79-25.03,18.99-26.12,32.75-.2,2.52-.83,9.24,2.13,9.97Z"/>
        <path class="cls-8" d="M272.7,417.86c3.92,2.06,8.43,3.06,12.81,2.01,5.66-1.35,14.73-10.52,18.28-15.18,1.03-1.35,1.5-2.92,2.62-4.16,7.24-1.21,14.21-3.99,20.78-7.17,1.34-.65,7.47-4.58,8.18-4.13,1.14.72,7.6,15.94,8.67,18.46,3.06,7.17,5.5,14.76,8.61,21.88,2.52,5.77,6.51,11.02,8.94,16.86.01,2.11-3.39,2.6-3.72,3.89-.4,1.58,2.75,5.1,1.73,8.48-1.08,3.58-4.02,3.4-4.95,4.79-.53.79-1.14,4.14-1.72,5.48-1.18,2.75-3.02,6.37-4.87,8.68-.58.72-6.27,5.85-5.49,6.57,1.99.59,5.21-2.75,6.22-2.91,1.49-.24,1.78,4.32,2.24,5.67,3.13,9.33,14.44,16.78,15.65,25.86.65,4.89-1.65,9.54-6.96,9.93-5.48.4-3.17-4.23-3.7-8.16-.6-4.4-3.94-8.81-7.92-10.71-1.43-.68-5.7-2.28-5.87.12-.13,1.84,2.47,1.78,3.88,2.72,3.52,2.34,5.03,11.57,3.19,15.34-3.5,7.16-13.21,4.67-19.45,3.89-1.05-.73.07-4.21.04-5.51-.06-3.08-1.73-7.96-4.79-9.22-3.94-1.62-.69,2.1-.4,3.79.6,3.51,0,10.47-4.37,11.09-10.28,1.47-27.79-9.1-30.89-19.03-.28-.91-1.21-4.58-1.09-5.24.28-1.51,6.76.71,5.14-2.2-11.47-5.35-22.41-12.2-31.79-20.73-3.09-2.81-5.86-6.02-8.88-8.91-.45-.43-1.66-.96-1.7-1.05-.67-1.46,3.44-14.57,5.08-15.25.25-.1.97.19,1.21-.05,1.24-1.21,4.71-10.56,5.92-12.94,1.16-2.3,8.1-12.51,8.14-13.47.03-.65-.48-1.43-.44-1.92s.99-1.5,1.23-2.37c.48-1.7.52-3.5.46-5.25ZM323.51,493.25c-5.18.28-9.73,2.84-15.05,3.39-1.42.15-4.6-.92-5.5.83-1.13,2.2.73,2.83,2.53,2.99,4.6.43,11.14-1.55,15.02-4.08.4-.26,3.72-2.51,3-3.14Z"/>
        <path class="cls-8" d="M271.43,335.69c2.48-.04,3.07-3.72,3.82-5.51.92-.04,1.31.96,2.3.87,2.54-.22,6.87-10.89,6.61-13.56.28-.27,6.73-.3,7.79-.47,3.31-.51,6.36-6.75,4.05-9.71,4.86-1.91,11.19.35,15.82-2.18,3.46-1.89,2.04-7.59,2.6-7.57,10.62,2.48,18.2,9.25,25.41,16.94,1.56,1.67,3.14,4.5,4.65,5.93,1.97,1.86,8.31,4.61,7.84,7.81-.16,1.1-1.24,1.34-1.51,1.94-1.17,2.52,6.88,6.4,6.47,9.89-.17,1.47-2.44,2.45-2.76,3.52-.64,2.15-.14,6.36-.97,9.62-5.08,20-21.39,34.36-40.4,40.91-4.31,1.49-8.81,1.35-11.83,5.11-3.14,3.92-4.03,7.21-8.76,10.3-12.56,8.22-23.93,5.37-23.26-11.19-2.06-.15-4.62,2.76-4.98,4.54-.62,3.01.48,4.99,1.17,7.74-5.28-.49-9.47.02-13.12-4.46-3.93-4.83-3.17-9.68-1.18-15.14.8-2.18,3.05-4.71,3.54-6.24.98-3.07-2.46-1.52-3.85-.43-1.47,1.15-5.08,7.1-5.52,7.19-1.79.38-2.41-6.54-2.35-7.84.27-5.64,3.03-9.7,7.93-12.42,1.08-.6,2.39-.7,3.41-1.25,2.07-1.13,4.72-7.65,6.38-10.14,4.13-6.17,10.68-12.59,17.07-16.39,1.94-1.16,10.2-4.54,10.76-5.76.77-1.68-1.29-5.51-1.47-7.83-.2-2.73.6-5.13.41-7.83-3.17.29-5.13,5.38-5.04,8.22.05,1.39,1.56,3.91,1.04,4.9-4.63,2.77-9.42,5.27-13.79,8.48.22-2.65,1.68-5.4,1.69-8.05Z"/>
        <path class="cls-8" d="M86.78,148.49l41.51,70.93c-.7.93-1.89.1-3.17.21-3.4.29-5.6,3.26-7.22,5.94-1.13,1.87-4.13,9.72-5.59,10.11-2.73.73-12.89-8.35-16.2-9.9-9.66-4.52-18.07,1.22-25.43,7.21-1.89,1.54-8.95,8.71-10.52,8.9-3.01.37-7.96-7.62-10.2-9.76-5.17-4.94-10.36-5.43-16.73-2.31l-.58-1.37,20.88-72.33c1.05-1.07,6.77.31,8.48.43,6.56.48,15.04-.42,20.51-4.47.8-.59,3.6-4.02,4.26-3.57Z"/>
        <path class="cls-8" d="M332.31,15.6c1.13,1.15-.24,6.01-.32,7.73-1.32,30.3,16.35,54.75,41.28,70.1,12.25,7.54,25.29,10.87,26.49,28.14,1.78,25.6-14.43,39.75-34.35,51.65-1.57.94-5.25,3.67-6.51,1.93-2.09-2.87,1.3-4.72,1.79-7.07,1.09-5.19-3.58-11.52-7.92-13.94-.34-1.12,1.63-2.12,2.18-3.24,2.66-5.39-2.49-8.95-6.87-10.67-4.6-1.8-13.25-1.2-13.55-6.99,5.6.07,14.18-3.86,16.42-9.2,3.69-8.77-.51-14.95-6.04-21.3-9.73-11.17-20.98-23.27-25.82-37.71-4.13-12.32-1.54-34.26,6.37-44.84,1.12-1.5,4.82-6.65,6.85-4.59Z"/>
        <path class="cls-8" d="M186.31,113.33c1.08-.66-1.15-2.2-1.55-2.47-2.85-1.91-9.52-1.53-8.1-6.13.84-2.73,6.4-.84,8.39-.72.64-.66-1.67-7.4-2.11-8.69-2.54-7.56-6.75-15.45-8.6-23.16-.95-3.94-2.07-7.04,3.21-5.32,4.86,1.58,11.97,7.04,15.35,10.91,1.02,1.17,5.29,7.77,6.29,7.6,2.66-.45-.65-7.19-.9-8.76-1.49-9.29,9.63-23.42,16.41-29.13,3.82-3.21,8.43-5.33,12.93-7.4.5.15.13.92,0,1.27-.79,2.19-2,4.14-2.29,6.6-.91,7.76,2.18,16.91,7.17,22.81,1.18,1.4,3.18,4.29,5.06,3.41,1.79-.84-.09-2.15-.51-3.3-.85-2.36-.63-8.02,2.75-7,3.51,1.05,6.93,12.13,8.54,15.61.49,1.07,1.37,1.56,1.82,2.84,1.18,3.36-.25,5.09-1.81,7.72-.23.38-.09,1.09-.19,1.27-.8,1.35-7.73,6.36-9.54,8.04-2.23,2.07-17.98,17.41-18.41,18.65-6.4,1.58-10.52,5.5-17.48,2.87-3.57-1.35-5.79-3.12-10.05-4.56-2.66-.9-3.95-1.86-6.35-2.96Z"/>
        <path class="cls-8" d="M105.42,167.97c-1.01.23-.69-.18-.94-.55-5.92-8.53-12.36-22.15-15.89-31.96-4.27-11.84-1.42-26.69,8.82-34.59,14.71-11.34,27.54-21.76,36.18-38.78,6.53-12.87,6.57-25.65,3.13-39.58-.3-1.22-.97-2.14-1.22-3.02-.37-1.26,2.27-.49,2.93.04,3.57,2.88,8.56,13.38,10.08,17.87,3.6,10.58,5.02,31.99,1.16,42.46-4.96,13.41-18.68,17.96-23.28,29.66-2.24,5.69-2.97,12.12,3.15,15.45-3.68,4.06-6.86,12.05-11.54,14.71-1.56.88-3.55,1.27-5.12,2.08-2.36,1.23-6.59,4.57-6.65,7.36-.09,3.64,3.83,4.83,3.86,5.91.02.57-2.01,3.67-2.45,4.78-1,2.52-1.91,5.45-2.22,8.16Z"/>
        <path class="cls-8" d="M159.85,473.35c.84-.18,1.76,2,2.01,2.63,1.76,4.45,2.36,15.98,2.01,20.89-.27,3.86-2.53,5.13-5.32,7.38-8,6.43-20.61,11.91-30.6,13.86-20.36,3.98-31.96,4.73-51.34-3.47-1.43-.61-3.4-.7-4.8-1.55-3.08-1.88-4.25-8.77-4.81-12.13-.39-2.34-1.44-9.33-.88-11.23,1-3.4,8.3,2.53,10.39,3.41,12.63,5.34,31.29,5.93,44.75,3.87,8.92-1.37,26.66-9.22,32.87-15.83,1.15-1.22,5.24-7.74,5.72-7.84Z"/>
        <path class="cls-8" d="M54.82,348.4c-.89.12-3.46,1.09-4.44,1.49-1.32.54-6.98,3.49-5.74,5.3,1.41,1.15,2.85-.65,4.35-1.18,6.34-2.22,18.39-3.2,19.55,5.65.25,1.92-.26,8.68-.9,10.46-.77,2.14-3.48,3.66-3.66,4.41-.21.85,1.87,4.06,2.06,5.84.69,6.35-4.84,11.33-10.84,12.03-20.04,2.34-30.43-21.62-32.66-37.97-.95-6.91,4.83-21.48,10.47-25.74,5.55-4.19,3.14,2.18,4.48,5.7,2.21,5.83,5.35-.15,8.1-1.6,3.35-1.76,9.71-2.88,12.82-.26,1.76,1.48,4.23,5.86,4.58,8.13.17,1.12.36,7.73-.96,7.73-2.17,0-5.18-.27-7.2,0ZM57.57,375.08c-2.35.31-9.41-3.5-11.03-2.36-1.21.85-.04,2.98,1.14,3.57,1.78.9,9.49,1.63,9.9-1.21Z"/>
        <path class="cls-8" d="M160.46,508.52c.98.84.64,10.18.34,11.94-1.75,10.3-9.18,18.8-18.66,22.84-20.03,8.54-54.75,9.29-65.15-13.77-1.45-3.22-3.36-7.84-3.11-11.29,4.84,1.73,9.65,3.92,14.62,5.29,11.42,3.16,30.83,2.08,42.35-.84,6.76-1.71,12.91-4.75,18.91-8.19,2.58-1.48,6.39-4.7,8.73-5.67.47-.2,1.66-.58,1.98-.31Z"/>
        <path class="cls-8" d="M166.83,516.12v-12.92c0-1.88,2.76-5.86,2.57-8.23.87-.75,11.44,3.52,10.56-1.72-2.91-.61-9.77-.33-10.82-3.79-.56-1.85-.33-5.94-.67-8.23-.85-5.8-1.66-7.62-3.84-12.68-1.79-4.15-.75-9.85-1.61-14.27l8.61,6c10.67,5.21,20.74,11.74,32.18,15.25,1.21.58.7,1.69.22,2.62-.89,1.74-5.41,7.2-6.92,8.75-1.06,1.09-6.81,5.31-6.94,5.77-.8,2.88,4.92.75,6.05-.24,4.52,6.08,2.16,13.42-4.31,16.79-6.99,3.64-17.3,5.9-25.08,6.9Z"/>
        <path class="cls-8" d="M154.55,234.04c-6.72,2.16-13.31-2.79-16.31-8.46-3.25-6.14-4.76-24.07-2.1-30.5.91-2.19,5.03-7.9,7.29-8.39,1.43-.32,5.17,1.08,5.58,2.32.34,1.04-1.92,5.65-2.38,7.25-2.95,10.39-1,26.78,5.87,35.39.7.87,2.13,1.13,2.05,2.39Z"/>
        <path class="cls-8" d="M151.27,203.24c1.2-1.15,3-.32,3.9.75,1.07,1.27,3.8,4.79,4.42,6.17,1.76,3.91,1.23,8.85,5.68,11.26,3.57,1.93,7.35.76,9.85-2.18.48-.57,1.19-3.22,2.11-1.73.15.25.98,5.03,1.04,5.74.65,8.26-6.75,12.87-14.4,10.59-8.39-2.5-15.03-16.32-14.38-24.57.1-1.21,1.01-5.29,1.79-6.03Z"/>
        <path class="cls-8" d="M321.4,277.24c2.53.95,5.56,2.98,8.13,3.51,4.26.89,6.09-1.2,6.28,4.77.11,3.46-2.61,2.47-4.78,3.68-2.69,1.5.16,2.06,1.15,3.31,1.13,1.41,2.75,7.83-.2,7.45-2.67-.35-8.13-4.3-11.24-4.9-.95-1.67,1.4-1.39,1.84-2.87,1.79-5.99-8.96-6.66-9.23-7.97,1.14-2.2,3.32-5.78,3.39-8.25,1.5.25,3.24.74,4.66,1.27Z"/>
        <path class="cls-8" d="M159.09,195.15c.62-.18,1.23-.18,1.81.14,2.32,2.18,10.72,8.23,6.34,11.41-3.96,2.87-11.31-1.7-10.97-6.28.09-1.28,1.48-4.87,2.83-5.27Z"/>
        <path class="cls-8" d="M261.56,259.15c1.93,2.39-1.06,4.98-2.83,6.45-1.65,1.37-3.83,2.63-5.78,3.53-2.43,1.13-7.29,2.02-8.56,4.15-1.13,1.9-1.45,6.21-4.57,6.38-3.11.16-3.71-4.67-7.76-5.21-11.49-1.53-26.86-4.84-37.57,1.44-2.29,1.34-3.59,5.19-6.66,4.76-1.91-.27-2.74-3.85-3.7-5.24-3.23-4.66-13.15-6.05-15.28-10.98-1.12-2.6.49-4.23,3.18-3.62,4.01,2.3,8.09,7.12,12.04,9.15,7.34,3.78,18.36-.67,26.15-1.2,8.16-.55,15.64,2.19,23.33,1.73,5.75-.35,14.94-3.22,19.45-6.8,2.1-1.67,5.88-7.85,8.56-4.53ZM240.32,273.12c-2.59-.46-3.94,2.49-1.93,3.5,2.55,1.28,3.26-3.26,1.93-3.5ZM191.39,274.7c-1.62.19-4.29-.84-4.23,1.44.1,3.31,4.99,2,4.23-1.44Z"/>
        <path class="cls-8" d="M182.91,332.32c-2.33-.46-7.35-1.96-7.95-4.55-.16-.69,0-2.57-.09-2.67-.46-.47-6.53.92-7.79.84-1.56-.1-6.51-1.9-3.83-3.77,1.09-.76,7.53-.44,10-1.01,3.59-.82,8.27-3.98,11.25-4.46.9-.15,1.92.1,2.16,1.07.71,2.85-6.29,3.42-5.91,7.54.52,5.54,12-.42,14.15.26,3.57,1.12-4.42,4.93-4.82,5.23-3.58,2.58-5.97,14.76-3.17,17.61,2.48,2.53,6.26-3,7.62-4.27,2.44-2.29,11.2-7.31,12.43-1.79,1.01,4.52-2.92,2.1-5.44,2.85-3.7,1.11-8.25,8.93-12.94,9.11-1.73.06-4.3-2.25-5.18-3.65-3.31-5.25-1.22-12.64-.5-18.34Z"/>
        <path class="cls-8" d="M290.48,283.6c.82.86-1.39,2.11-1.99,2.46-2,1.19-4.44,1.75-6.5,2.82-1.88.98-10.44,6.55-11.09,7.97-.54,1.15-.03,3.35-2.61,1.55-2.91-2.03,2.91-8.6-2.54-8.01-4.47.49-11.55,8.24-12.97,12.47-.41,1.23-.64,4.82-.79,5.03-1.3,1.76-4.41-.36-4.6-2.11-.17-1.58,2.2-3.77,1.59-5.66-6.39.56-12.8,1.94-19.27,1.27-4.73-.49-2.85-2.66.63-3.6,7.39-1.99,14.69-.81,22.56-4.12,4.94-2.08,7.57-6.53,13.43-8.17,1.98-.55,7.19-1.12,8.28,1.07.58,1.18-.84,2.22.4,2.11,2.36-2.16,5.23-4.33,8.53-4.64.78-.07,1.49.37,2.06.32.84-.07,4.7-.94,4.87-.76Z"/>
        <path class="cls-8" d="M221.46,244.21c-.29.78-.16,2.28-.64,3.39-1.25,2.9-5.23,2.14-7.85,3.58-2.46,1.35-3.1,4.7-6.53,4.82-5.28.18-5.76-3.44-8.72-5.62-2.5-1.84-6.26-.18-5.93-4.68.05-.64.46-1.89.87-2.33,4.04-4.26,19.55-4.57,24.79-2.56,1.88.72,2.67,2.08,4,3.41Z"/>
        <path class="cls-8" d="M193.51,413.62c-.74.17-.52,1.35-1.07,2.11-1.69,2.33-4.12-1.03-4.67-2.94-1.47-5.12-.32-10.95,1.6-15.8,1.39-3.49,3.53-7.69,7.94-7.09-1.71,5.73-7.08,10.33-5.92,16.94,1.42.06,1.86-1.99,3.16-2.09s1.88,1.13,2.06,2.19c.72,4.16-.59,9.18-.1,13.62.4,3.55,2.26,7.69,2.92,11.27-.53.57-3.48-3.17-3.75-3.66-.3-.55-2.18-6.76-2.18-7.14v-7.41Z"/>
        <path class="cls-8" d="M349.77,218.37c1.21-.13,1.04.25.43,1.06-1.2,1.6-10.11,8.27-11.93,8.81-4.59,1.36-3.66-3.01-5.29-3.48-1.33-.39-5.1,2.26-6.6,2.65-.82.22-1.24.44-1.6-.57.19-.29,0-.96.82-1.93,1.69-2,8.35-5.73,10.15-2.9.58.91.06,2.42,1.1,2.29,1.58-.2,7.52-4.14,9.67-5.16,1.07-.51,2.91-.59,3.25-.77Z"/>
        <path class="cls-8" d="M271.01,425.48c-.04.48.47,1.27.44,1.92-.04.96-6.98,11.18-8.14,13.47-1.2,2.38-4.68,11.73-5.92,12.94-.24.24-.96-.05-1.21.05-.32-2.2.25-3.73.84-5.72,1.23-4.16,8.32-20.33,11.71-22.18.74-.41,1.43-.56,2.27-.48Z"/>
        <path class="cls-8" d="M188.71,296.79c4.61.5,9.3.27,13.9.79,2.9.33,6.14,1.46,8.94,1.65,1.17.08,3.83-1.4,3.58,1.1-.12,1.21-2.21,1.37-3.21,1.48-5.17.53-16.55-.01-21.33-1.95-1.24-.5-3.86-1.91-1.88-3.07Z"/>
        <path class="cls-8" d="M261.27,245.9l-.83,1.48c-4.5.9-10.11,4.81-14.38,1.24-.96-.8-3.47-3.45-1.73-4.42.34.21,6.98,2.54,7.43,2.56,2.35.12,6.79-.67,9.51-.87Z"/>
        <path class="cls-8" d="M180.38,239.55c0,.13.44.63.42,1.09-.07,1.81-2.8,4.38-4.54,4.75-1.11.23-8,0-6.47-2.44,2.89.18,4.87-.38,7.34-1.76,1.07-.6,1.54-2.05,3.24-1.63Z"/>
        <path class="cls-8" d="M207.9,445.81c-3.93-.84-7.08-4.83-6.77-8.89.97-.16,1.58.32,2.11,1.06l4.66,7.83Z"/>
        <path class="cls-8" d="M275.24,244.63c-.37,1.84-3.85,2.23-5.36,2.47-1.12.18-4.91,1.1-4.38-1.2,4.74-.87,3.89-1.51,9.74-1.27Z"/>
        <path class="cls-8" d="M322.25,228.54c-.05.74.29,1.51-.28,2.16s-3.84,2.55-4.84,3.12c-.62.35-1.47.14-1.65.23-.28-2.4,2.93-4.28,4.78-5.18.76-.37,1.7-.19,1.99-.32Z"/>
        <path class="cls-8" d="M166.83,242.51c-.07,2.31-4.55.82-5.75.45-.82-.25-1.5-.03-1.45-1.3,4.5-.15,3.38.02,7.2.85Z"/>
        <path class="cls-8" d="M118.89,439.58c.81-.06,1.44-.3,2.33-.04,1.56.46,2.25,3.31,1.16,4.37-1.68,1.65-13.22,1.54-16.41,3.07-3.86,1.85-2.85,8.38,1.78,8.59s10.52-1.96,15.16-2.07c3.06,1.2,2.92,4.52-.44,5.32s-13.27,2.19-16.37,1.76c-7.19-.99-9.15-13.7-3.61-17.51,2.63-1.81,12.88-3.23,16.4-3.5Z"/>
        <path class="cls-8" d="M123.55,462.43c1.28-.02,2.46.75,2.86,1.99s1.45,8.61,1.41,9.93c-.19,7.78-11.32,10.14-14.67,4.17-1.33-2.37-.88-4.73-1.57-6.9-1.04-3.27-5.31-.85-7.54-1.33-2.44-.52-2.73-3.91-.32-4.8l19.83-3.06ZM118.01,468.35c-4.65,1.06-1.7,10.97,3.91,7.72,2.42-1.4,2.29-9.14-3.91-7.72Z"/>
        <path class="cls-8" d="M81.71,375.5c1.76,12.13,4.64,24.13,6.29,36.28.56,4.13,1.43,9.49,1.75,13.5.24,3.01-.53,5.71-.42,8.68-1.91-1.09-2.04-4.21-2.41-6.26-.75-4.12-.79-8.38-1.46-12.51-1.63-10.03-4.73-20.94-5.43-30.99-.09-1.34-.24-8.02.39-8.49.41-.3.84-.18,1.29-.19Z"/>
        <path class="cls-8" d="M104.16,387.79l8.34,4.15c1.5.53,1.15,1.94-.42,1.71-1.32-.2-10.64-5.78-11.31-5.01-.32,3.03-.36,7.9-1.36,10.71-.28.77-1.34,1-1.6.72-.52-.55,1.85-9.4,1.27-11.01-.93-.92-8.32,3.11-7.62-.42l23.97-4.22c.54-.04,1.13.51,1.01,1.03-.31,1.31-10.53,2.09-12.28,2.34Z"/>
        <path class="cls-8" d="M106.7,418.28c4.56-.29,9.07-1.23,13.54-1.94,2.4-.38,2.11,1.4.12,1.83l-24.39,3.02c-2.22-1.92,1.7-1.52,1.84-1.64.18-.15-.78-2.54-.81-3.21-.36-9.98,15.2-7.35,9.7,1.94ZM99.57,419.05c.66.41,4.54-.22,5.22-.78,1.41-1.17,2.13-4.57.44-5.94-2.96-2.4-6.77.67-6.61,4.03.02.48.72,2.54.95,2.68Z"/>
        <path class="cls-8" d="M116.01,431.41c-.89-.85,2.05-2.42,2.48-3.23,2-3.76-2-5.21-5.2-4.78-4.48.6-7.27,7.64-12.43,8.35-3.57.49-6.59-3.44-3.28-6.28,1.16-.99,4.46-2.85,4.03,0-1.94.29-5.53,2-2.95,4.02,3.31,2.6,8.87-5.05,11.55-6.64,6.29-3.74,14.02,2.07,9,7.31-.57.59-2.6,1.82-3.19,1.25Z"/>
        <path class="cls-8" d="M119.5,293.65c-1.21-1.28-2.09-14.87-3.07-17.48-.12-2.37.1-5.75,2.88-3.29.56,5.16,1.88,10.42,2.2,15.59.08,1.27.5,7.82-2.01,5.18Z"/>
        <path class="cls-8" d="M116.43,402.19c1.3,1.31-2.5,2.1-3.04,2.25-2.2.61-19.5,3.96-20.25,3.25l.71-1.61,22.57-3.89Z"/>
        <path class="cls-8" d="M119.28,399.74c6.14-1.81,4.77,6.28.85,5.35-1.78-.42-3.75-4.49-.85-5.35Z"/>
        <path class="cls-8" d="M245.17,225.99c-2.96-.73-2.33-7.45-2.13-9.97,1.09-13.76,14.3-26.96,26.12-32.75,10.15-4.97,21.72-6.7,32.99-6.01,1.08.07,5.11.51,5.79.87,3,1.62,5.47,16.15,5.83,19.69.6,5.83.89,10.33-.94,15.99-2.72,8.39-7.64,15.97-14.29,21.7,0,.54,5.7,1.31,4.19,3.56-1.02,1.51-13.06-.31-15.4-.4-3.75-.14-8.59-.24-12.29.02-5.59.4-15.3,3.95-19.8,3.7-3.17-.18-2.48-2.69-4.13-4.76-1.07-1.35-2.75-2.12-3.99-3.64-.54-.66-2.83-3.48-.25-2.93.36.16,1.38.04,2.28.46,2.55,1.21,5.44,5.04,8.94,5.04h6.56l-4.67-3.17c-2.89-2.69-7.19-11.8-7.19-15.68v-8.05c0-2.3-3.08,2.5-3.34,3.02-1.28,2.64-4.25,10.59-4.29,13.29ZM289.22,235.31c1.37-.12,2.89.31,4.22-.23,2.21-.89,7.77-7.21,9.26-9.38,5.79-8.49,8.37-17.8,4.64-27.77-1.03-2.76-6.01-12.05-9.63-10.27-2.08,1.02.76,3.75,1.34,5.01,5.51,12.13,2.25,23.03-3.67,34.18l-6.15,8.46ZM275.56,188.81c-2.34.34-10.58,5.9-11.54,7.97-1.35,2.92,2.62,6.85,5.49,7.2,7.48.9,16.14-10.72,8.43-14.78-.93-.49-1.33-.55-2.38-.4ZM289.95,200.26c-5.09,1.04-3.19,6.18-3.37,9.33-.08,1.33-1.87,7.18-2.49,8.52-1.06,2.27-2.56,3.54-4.91,4.41-7.94,2.92-11.09-1.98-12.35-9.06-.41-2.3.82-5.49-3.11-3.86-8.94,3.72-6.63,11.67-2.37,18.23,4.65,7.18,11.15,9.76,19.5,6.95,7.73-2.6,15.74-15.51,16.41-23.4.43-4.99-.48-12.51-7.31-11.12Z"/>
        <path class="cls-8" d="M297.68,151.87c-4.71-.48-.26,2.22-.1,4.09.23,2.66-5.98,3.69-7.95,4.17-9.51,2.33-18.46,2.57-27.68,6.62-4.72,2.07-10.15,6.2-14.68,7.77-3.97,1.37-7.95.22-7.59-4.59.66-8.73,7.18-13.13,11.01-19.53.47-.79.52-1.15-.03-1.92,1.84-.7,4.48-2.39,6.78-3.39-.35,1.93,3.48,0,4.45,0h11.86c.26,0,.89.62,1.64.45.42-.1.23-.85.27-.88,3.24-2.14,18.37,5.5,22.02,7.2Z"/>
        <path class="cls-8" d="M177.42,156.53c2.76,2.61,7.27,12.12,8.47,15.67-2.98-.64-1.87,2.91-2.22,4.77-.48,2.58-2.34,5.73-5.39,4.76-7.56-9.41-17.74-16.11-28.36-21.62-2.26-1.17-8.97-3.5-10.4-4.84-.8-.75-1.55-2.89-.99-3.76.35-.54,5-.79,3.5-2.6-.61.06-1.26-.07-1.86,0l6.68-2.02c.59-.15,1.19-.12,1.79-.1,6.02.19,10.63-.93,16.74,1.26,3.52,1.26,9.35,5.92,12.06,8.48Z"/>
        <path class="cls-8" d="M250.68,148.49c.55.77.5,1.13.03,1.92-3.83,6.4-10.35,10.8-11.01,19.53-.37,4.81,3.62,5.97,7.59,4.59,4.53-1.57,9.96-5.7,14.68-7.77,9.22-4.05,18.17-4.29,27.68-6.62,1.96-.48,8.17-1.51,7.95-4.17-.16-1.87-4.61-4.57.1-4.09,1.01.47,1.48.31,2.74,1.28,4.1,3.18,2.06,8.08-2.29,9.12-14.06,3.35-27.89,2.84-40.64,11.02-3.39,2.18-11.13,8.1-13.35,11.21-2.7,3.8-3.05,9-4.95,12.84-.57,1.15-2.83,4.02-2.73,1.12.17-4.86,1.2-9.56,2.88-14.09.6-1.62,3.17-4.52.86-5.3-2.52-.85-2.71.65-4-2.77-2.84-7.51.64-14.42,5.17-20.4,3.12-4.12,4.57-5.62,9.31-7.42Z"/>
        <path class="cls-8" d="M140.15,148.91c.6-.08,1.25.05,1.86,0,1.5,1.81-3.15,2.07-3.5,2.6-.56.87.2,3.01.99,3.76,1.43,1.35,8.14,3.67,10.4,4.84,10.62,5.51,20.81,12.21,28.36,21.62,3.05.97,4.91-2.18,5.39-4.76.35-1.86-.76-5.41,2.22-4.77,2.51,7.43-1.11,10.1-.86,15.47.15,3.33,2.15,7.33,2.17,11,0,.82.03,1.87-1.09,1.9-6.37-11.93-15.3-23.88-26.93-31.09-3.71-2.3-7.8-3.89-11.38-6.41l-13.59-5.46c-3.03-2.96,2.78-8.31,5.95-8.71Z"/>
        <path class="cls-8" d="M245.17,225.99c.03-2.69,3.01-10.65,4.29-13.29.25-.52,3.34-5.32,3.34-3.02v8.05c0,3.89,4.3,12.99,7.19,15.68l4.67,3.17h-6.56c-3.5,0-6.39-3.83-8.94-5.04-.91-.43-1.93-.31-2.28-.46-1.21-.54-1.71-3.82-1.69-5.08Z"/>
        <path class="cls-8" d="M220.19,117.99c-.13.36.14,1.21-.1,1.79-2.42,6.04-10.89,7.47-16.65,6.7-1.06-.14-5.43-3.86-6.55-4.89-1.45-1.34-3.96-3.35-4.23-5.3,4.26,1.44,6.48,3.21,10.05,4.56,6.96,2.63,11.08-1.29,17.48-2.87Z"/>
        <path class="cls-8" d="M177.42,156.53c-2.71-2.56-8.54-7.22-12.06-8.48-6.11-2.19-10.71-1.07-16.74-1.26,9.73-7.68,26.01-2.42,28.8,9.74Z"/>
        <path class="cls-8" d="M275.66,144.67s.16.78-.27.88c-.75.17-1.38-.45-1.64-.45h-11.86c-.97,0-4.8,1.93-4.45,0,.1-.04.49-.78,1.25-1.06,2.82-1.07,13.08-1.78,15.58-.73.6.25,1.1.79,1.38,1.37Z"/>
        <path class="cls-8" d="M323.51,493.25c.73.63-2.59,2.88-3,3.14-3.87,2.53-10.42,4.5-15.02,4.08-1.8-.17-3.66-.79-2.53-2.99.9-1.75,4.08-.68,5.5-.83,5.32-.56,9.87-3.12,15.05-3.39Z"/>
        <path class="cls-8" d="M57.57,375.08c-.41,2.84-8.11,2.11-9.9,1.21-1.18-.6-2.35-2.72-1.14-3.57,1.62-1.14,8.68,2.67,11.03,2.36Z"/>
        <path class="cls-8" d="M191.39,274.7c.76,3.44-4.13,4.76-4.23,1.44-.07-2.28,2.61-1.26,4.23-1.44Z"/>
        <path class="cls-8" d="M240.32,273.12c1.33.24.62,4.78-1.93,3.5-2.01-1.01-.66-3.96,1.93-3.5Z"/>
        <path class="cls-8" d="M118.01,468.35c6.2-1.42,6.33,6.32,3.91,7.72-5.61,3.25-8.57-6.66-3.91-7.72Z"/>
        <path class="cls-8" d="M99.57,419.05c-.23-.14-.92-2.21-.95-2.68-.17-3.37,3.65-6.43,6.61-4.03,1.69,1.37.97,4.77-.44,5.94-.67.56-4.56,1.18-5.22.78Z"/>
        <path class="cls-8" d="M289.95,200.26c6.83-1.4,7.73,6.13,7.31,11.12-.67,7.89-8.68,20.8-16.41,23.4-8.35,2.81-14.85.23-19.5-6.95-4.26-6.57-6.57-14.52,2.37-18.23,3.93-1.63,2.7,1.56,3.11,3.86,1.26,7.08,4.41,11.98,12.35,9.06,2.35-.86,3.86-2.14,4.91-4.41.63-1.35,2.41-7.2,2.49-8.52.18-3.15-1.72-8.28,3.37-9.33Z"/>
        <path class="cls-8" d="M289.22,235.31l6.15-8.46c5.91-11.15,9.18-22.05,3.67-34.18-.58-1.27-3.42-3.99-1.34-5.01,3.62-1.78,8.6,7.51,9.63,10.27,3.73,9.98,1.15,19.28-4.64,27.77-1.48,2.17-7.04,8.49-9.26,9.38-1.33.53-2.85.11-4.22.23Z"/>
        <path class="cls-8" d="M275.56,188.81c1.04-.15,1.45-.09,2.38.4,7.71,4.05-.95,15.68-8.43,14.78-2.87-.35-6.83-4.28-5.49-7.2.95-2.07,9.19-7.63,11.54-7.97Z"/>
      </g>
      <path class="cls-7" d="M369.4,179.34c26.02-12.05,45.2-37.38,34.58-67.08-7.43-20.77-22.85-18.85-37.47-30.71-12.57-10.19-26.02-27.92-28.12-44.3-.86-6.66-.35-13.96-.05-20.69.12-2.61,1.71-4.7-.42-7.22-4.96-5.85-12.94.41-16.28,4.92-8.49,11.47-11.03,23.66-10.43,37.89.84,19.89,8.25,30.7,19.94,45.71,4.31,5.53,21.3,18.11,10.72,25.14-9.38,6.23-21.45-8.04-27.89-13.47-17.84-15.05-36.62-24.84-59.23-30.98-2.15-3.85-3.5-7.96-6.09-11.7-2.18-3.14-9.25-10.99-13.25-7.55-1.07.92-1.09,3.25-2.54,2.17-.31-.23-1.02-3.27-1.14-3.94-.74-4.18-.33-12.73,1.38-16.62.71-1.61,6.92-7.12,2.54-7.24-6.54-.18-13.68,2.96-18.98,6.47-10,6.63-21.26,16.58-24.01,28.72-1.6.21-2.24-1.46-3.42-2.29-3.69-2.62-15.26-6.78-19.76-7.34-1.95-.24-3.96-.52-3.83,2.1.13,2.71,2.75,7.51,3.51,10.49.87,3.37,1.01,6.96,1.93,10.35.6,2.2,3.13,6.57,2.3,8.29-.39.8-2.76,1.49-3.74,2.18-7.51,5.31-15.87,12.19-22.73,18.35-2.07,1.86-6.91,8.02-9.47,7.83-1.81-.13-5.21-2.01-5.34-4.04-.4-6.3,12.91-15.95,16.92-20.74,11.2-13.4,11.57-33.94,7.42-50.18-2.05-8.01-7.03-23.69-13.56-28.79-3.91-3.05-13.78-6.25-13.78,1.47,0,3.43,2.14,9.54,2.57,13.56,2.97,27.58-10.81,42.96-30.06,59.72-7.94,6.92-14.47,8.67-19,19.54-1.52,3.64-1.71,7.47-3.66,10.73-5.42-4.96-7.17-14.91-16.41-13.44-5.47.87-6.96,6.45-8.33,11.15-4.67,15.95-8.01,33.19-12.43,49.41-4.73,17.37-10.49,34.51-15,51.91-2.4,9.24-2.3,13.72-1.39,23.17,2.39,24.73,6.62,49.34,8.9,74.1-.17,4.63-6.83,9.53-9.74,13.17-11.63,14.53-8.31,31.82-1.61,47.75,3.65,8.66,8.34,13.98,16.56,18.6,1.55.87,8.58,3.56,8.89,4.26,1.04,4.3.95,8.77,1.68,13.12,2.6,15.6,5.61,31.21,8.21,46.85,1.11,6.68,3.29,15.88,3.5,22.39.05,1.49-1.52,3.5-1.68,5.84-.41,5.89,2,17.71,4.35,23.21.83,1.96,2.45,3.61,3.07,5.4,1.8,5.21,1.93,10.26,4.64,15.69,14.88,29.84,75.66,28.16,90.08-.58,1.58-3.14,2.27-6.64,3.73-9.82,11.28-2.43,24.66-3.84,33.68-11.63,5.18-4.48,6.67-8.42,5.67-15.43-.25-1.78-1.95-3.1-1.58-4.58.29-1.19,4.88-6.06,6.02-7.57,1.17-1.55,1.98-3.34,3.23-4.84,4.27.13,8.63.47,12.91.23,6.35-.36,14.56-2.96,20.33-2.87,5.63.09,7.93,4.45,11.64,7.75,2.89,2.57,5.84,5.27,8.94,7.58,3.67,2.74,11.59,6.46,14.15,9.14,1.72,1.79.74,3.24,1.1,5.25,2.94,16.57,27.12,29.71,42.82,27.25,1.31-.21,3.25-1.21,4.32-1.14,1.29.08,4.54,1.83,6.85,2.06,3.83.38,14.37-1.01,17.5-3.15.81-.55,1.67-1.98,2.44-2.22,1.4-.42,3.79.06,5.41-.09,6.6-.64,12.8-5.62,13.3-12.54,1.23-17.06-21.79-23.68-17.44-40.73.35-1.38,2.9-7.59,3.61-8.67,1.51-2.33,4.65-1.62,4.58-6.43-.02-1.75-1.42-5.1-1.28-6.37.06-.61,2.64-3.49,3.1-5.38,1.19-4.86-1.18-5.62-2.88-9.25-6.42-13.71-11.37-29.75-17.51-43.9-.69-1.6-3.78-6.57-3.88-7.59-.07-.69.07-1.14.32-1.76.7-1.72,4.81-6.42,6.21-8.62,5.39-8.51,9.66-18.02,10.83-28.13.12-1.04-.22-2.49-.02-3.32.11-.45,1.21-.37,1.87-1.23,1.12-1.47,1.79-5.06,1.51-6.86-.46-3.04-4.62-5-5-6.47-.4-1.52,3.11-3.72,1.84-6.47-.22-.48-3.41-3.49-4.05-3.99-1.8-1.41-5.12-2.73-6.6-4.2-1.36-1.35-3.07-4.5-4.58-6.22-1.12-1.27-7.38-6.77-7.44-7.43-.1-1.11,2.48-4.03,2.48-6.33,0-1.77-2.1-4.79-2.03-5.05.09-.4,3.55-2.12,3.8-4.73.18-1.86-1.47-3.06-1.69-4.83,3.87.48,9.81-1.77,10.83-5.9.4-1.64.23-3.76.68-5.46,3.63-.74,7.32-1.18,10.94-1.98,3.29-.73,13.67-3.05,15.68-5.07,4.46-4.49-1.74-15.33-2.48-20.68,1.87-2.76,4.25-5.08,6.2-7.79,2.36-3.29,8.08-12.02,7.19-15.93-.69-3.01-11.18-9.36-14.16-10.83-2.65-1.31-10.74-3.85-12.01-5.78-.91-1.38-1.11-4.94-1.26-6.78-.33-4.03-.27-8.57-.37-12.64.18-.53,6.51-2.73,7.72-3.29Z"/>
      <text class="cls-3" transform="translate(129.57 422.63)"><tspan x="0" y="0">?</tspan></text>
      <g>
        <circle class="cls-7" cx="444.91" cy="537.68" r="29.18"/>
        <circle class="cls-7" cx="567.54" cy="419.41" r="29.18"/>
        <circle class="cls-7" cx="318.9" cy="419.26" r="29.18"/>
        <circle class="cls-7" cx="444.72" cy="290.35" r="29.18"/>
        <rect class="cls-6" x="354.47" y="325.01" width="179" height="179"/>
        <line class="cls-2" x1="444.8" y1="320.14" x2="444.72" y2="510.14"/>
        <line class="cls-2" x1="349.43" y1="419.26" x2="539.43" y2="419.34"/>
        <polygon class="cls-5" points="498.46 419.26 444.76 472.96 391.06 419.26 444.8 326.51 498.46 419.26"/>
        <path class="cls-4" d="M567.54,389.07c-16.67,0-30.19,13.52-30.19,30.19s13.52,30.19,30.19,30.19,30.19-13.52,30.19-30.19-13.52-30.19-30.19-30.19ZM560.99,431.03c0,.86-.7,1.55-1.55,1.55h-1.03c-2.9,0-5.26-2.35-5.26-5.26v-3.23c0-2.9,2.35-5.26,5.26-5.26h1.03c.86,0,1.55.7,1.55,1.55v10.63ZM581.93,427.33c0,2.9-2.35,5.26-5.26,5.26h-1.03c-.86,0-1.55-.7-1.55-1.55v-10.63c0-.86.7-1.55,1.55-1.55h1.03c2.9,0,5.26,2.35,5.26,5.26v3.23ZM585.1,425.71c0,.43-.35.78-.78.78s-.78-.35-.78-.78v-4.3c0-10.49-6.88-18.41-16.01-18.41s-16.01,7.91-16.01,18.41v4.3c0,.43-.35.78-.78.78s-.78-.35-.78-.78v-4.3c0-11.38,7.55-19.96,17.56-19.96s17.56,8.58,17.56,19.96v4.3Z"/>
        <g>
          <circle class="cls-4" cx="320.2" cy="420.94" r="1.75"/>
          <circle class="cls-4" cx="305.96" cy="420.94" r="1.75"/>
          <circle class="cls-4" cx="313.08" cy="420.94" r="1.75"/>
          <path class="cls-4" d="M318.9,389.07c-16.67,0-30.19,13.52-30.19,30.19s13.52,30.19,30.19,30.19,30.19-13.52,30.19-30.19-13.52-30.19-30.19-30.19ZM317.81,430.75h-3.13c-1.35,4.09-6.24,5.05-8.34,5.27-.05,0-.1,0-.14,0-.45,0-.86-.22-1.12-.59-.27-.39-.31-.89-.11-1.32l1.16-3.61c-4.56-1.02-7.9-5.11-7.9-9.86,0-5.58,4.54-10.12,10.12-10.12h9.46c5.58,0,10.12,4.54,10.12,10.12s-4.54,10.12-10.12,10.12ZM331.67,423.18l1.16,3.61c.2.43.16.93-.11,1.32-.25.37-.67.59-1.12.59-.05,0-.09,0-.14,0-.91-.1-2.29-.32-3.67-.84-.38-.14-.57-.56-.42-.94.14-.38.57-.57.94-.42,1.15.44,2.32.64,3.13.74l-1.32-4.11c-.18-.18-.25-.45-.18-.7.08-.28.32-.49.61-.53,4.31-.55,7.56-4.24,7.56-8.58,0-4.78-3.89-8.66-8.66-8.66h-9.46c-2.98,0-5.72,1.51-7.32,4.03-.22.34-.67.44-1,.23-.34-.22-.44-.67-.23-1,1.87-2.95,5.06-4.71,8.55-4.71h9.46c5.58,0,10.12,4.54,10.12,10.12,0,4.76-3.33,8.84-7.9,9.86Z"/>
        </g>
        <path class="cls-4" d="M444.91,507.49c-16.67,0-30.19,13.52-30.19,30.19s13.52,30.19,30.19,30.19,30.19-13.52,30.19-30.19-13.52-30.19-30.19-30.19ZM445.77,530.19c0-.37.21-.71.55-.88l12.12-5.98c.65-.32,1.42.15,1.42.88v18.56c0,.37-.21.71-.55.88l-12.12,5.98c-.65.32-1.42-.15-1.42-.88v-18.56ZM429.96,524.21c0-.73.76-1.2,1.42-.88l12.12,5.98c.34.17.55.51.55.88v18.56c0,.73-.76,1.2-1.42.88l-12.12-5.98c-.34-.17-.55-.51-.55-.88v-18.56ZM463.96,545.75c0,.43-.24.81-.63,1l-17.95,8.63c-.15.07-.32.11-.48.11s-.33-.04-.48-.11l-17.95-8.63c-.38-.18-.63-.57-.63-1v-19.22c0-.61.5-1.11,1.11-1.11s1.11.5,1.11,1.11v18.53l16.84,8.1,16.84-8.1v-18.53c0-.61.5-1.11,1.11-1.11s1.11.5,1.11,1.11v19.22Z"/>
        <path class="cls-4" d="M444.72,260.16c-16.67,0-30.19,13.52-30.19,30.19s13.52,30.19,30.19,30.19,30.19-13.52,30.19-30.19-13.52-30.19-30.19-30.19ZM448.14,278.23l2.11,2.11-15.44,15.44-2.11-2.11,15.44-15.44ZM451.47,281.55l2.1,2.1-15.44,15.44-2.1-2.1,15.44-15.44ZM428.93,306.15l2.46-11.08,8.62,8.62-11.08,2.46ZM441.41,302.37l-2.07-2.07,15.44-15.44,2.07,2.07-15.44,15.44ZM459.53,284.17l-1.36,1.36-8.62-8.62,1.36-1.36c1.32-1.32,3.47-1.32,4.79,0l3.83,3.83c1.32,1.32,1.32,3.47,0,4.79Z"/>
      </g>
    </g>
  </g>
</svg>