<?xml version="1.0" encoding="UTF-8"?>
<svg id="Layer_1" xmlns="http://www.w3.org/2000/svg" xmlns:xlink="http://www.w3.org/1999/xlink" version="1.1" viewBox="0 0 615 569">
  <!-- Generator: Adobe Illustrator 29.0.0, SVG Export Plug-In . SVG Version: 2.1.0 Build 186)  -->
  <defs>
    <style>
      .st0, .st1 {
        fill: none;
      }

      .st2, .st3 {
        fill: #98d4e2;
      }

      .st4, .st5 {
        fill: #fff;
      }

      .st4, .st1 {
        stroke: #000;
      }

      .st4, .st1, .st3 {
        stroke-miterlimit: 10;
      }

      .st6 {
        fill: #231f20;
        stroke: #231f20;
        stroke-linejoin: round;
        stroke-width: 10px;
      }

      .st7 {
        clip-path: url(#clippath);
      }

      .st3 {
        stroke: #1991bf;
      }
    </style>
    <clipPath id="clippath">
      <rect class="st0" width="615" height="569"/>
    </clipPath>
  </defs>
  <g class="st7">
    <g>
      <g>
        <path class="st6" d="M352,270.1c-.4,1.7-.3,3.8-.7,5.5-1,4.1-7,6.4-10.8,5.9.2,1.8,1.9,3,1.7,4.8-.2,2.6-3.7,4.3-3.8,4.7,0,.3,2,3.3,2,5s-2.6,5.2-2.5,6.3c0,.7,6.3,6.2,7.4,7.4,1.5,1.7,3.2,4.9,4.6,6.2,1.5,1.5,4.8,2.8,6.6,4.2.6.5,3.8,3.5,4,4,1.3,2.8-2.2,5-1.8,6.5.4,1.5,4.5,3.4,5,6.5.3,1.8-.4,5.4-1.5,6.9-.7.9-1.8.8-1.9,1.2-.2.8.1,2.3,0,3.3-1.2,10.1-5.4,19.6-10.8,28.1-1.4,2.2-5.5,6.9-6.2,8.6-.2.6-.4,1.1-.3,1.8.1,1,3.2,6,3.9,7.6,6.1,14.1,11.1,30.2,17.5,43.9,1.7,3.6,4.1,4.4,2.9,9.2-.5,1.9-3,4.8-3.1,5.4-.1,1.3,1.3,4.6,1.3,6.4,0,4.8-3.1,4.1-4.6,6.4-.7,1.1-3.3,7.3-3.6,8.7-4.4,17.1,18.7,23.7,17.4,40.7-.5,6.9-6.7,11.9-13.3,12.5-1.6.2-4-.3-5.4,0-.8.2-1.6,1.7-2.4,2.2-3.1,2.2-13.7,3.5-17.5,3.2-2.3-.2-5.6-2-6.9-2.1-1.1,0-3,.9-4.3,1.1-15.7,2.5-39.9-10.7-42.8-27.2-.4-2,.6-3.5-1.1-5.2-2.6-2.7-10.5-6.4-14.1-9.1-3.1-2.3-6-5-8.9-7.6-3.7-3.3-6-7.7-11.6-7.8-5.8,0-14,2.5-20.3,2.9-4.3.2-8.6,0-12.9-.2-1.2,1.5-2.1,3.3-3.2,4.8-1.1,1.5-5.7,6.4-6,7.6-.4,1.5,1.3,2.8,1.6,4.6,1,7-.5,11-5.7,15.4-9,7.8-22.4,9.2-33.7,11.6-1.5,3.2-2.1,6.7-3.7,9.8-14.4,28.7-75.2,30.4-90.1.6-2.7-5.4-2.8-10.5-4.6-15.7-.6-1.8-2.2-3.4-3.1-5.4-2.3-5.5-4.8-17.3-4.3-23.2.2-2.3,1.7-4.4,1.7-5.8-.2-6.5-2.4-15.7-3.5-22.4-2.6-15.6-5.6-31.2-8.2-46.9-.7-4.4-.6-8.8-1.7-13.1-.3-.7-7.3-3.4-8.9-4.3-8.2-4.6-12.9-9.9-16.6-18.6-6.7-15.9-10-33.2,1.6-47.8,2.9-3.6,9.6-8.5,9.7-13.2-2.3-24.8-6.5-49.4-8.9-74.1-.9-9.4-1-13.9,1.4-23.2,4.5-17.4,10.3-34.6,15-51.9,4.4-16.2,7.8-33.5,12.4-49.4,1.4-4.7,2.9-10.3,8.3-11.2,9.2-1.5,11,8.5,16.4,13.4,1.9-3.3,2.1-7.1,3.7-10.7,4.5-10.9,11.1-12.6,19-19.5,19.2-16.8,33-32.1,30.1-59.7-.4-4-2.6-10.1-2.6-13.6,0-7.7,9.9-4.5,13.8-1.5,6.5,5.1,11.5,20.8,13.6,28.8,4.1,16.2,3.8,36.8-7.4,50.2-4,4.8-17.3,14.4-16.9,20.7.1,2,3.5,3.9,5.3,4,2.6.2,7.4-6,9.5-7.8,6.9-6.2,15.2-13,22.7-18.3,1-.7,3.4-1.4,3.7-2.2.8-1.7-1.7-6.1-2.3-8.3-.9-3.4-1.1-7-1.9-10.3-.8-3-3.4-7.8-3.5-10.5-.1-2.6,1.9-2.3,3.8-2.1,4.5.6,16.1,4.7,19.8,7.3,1.2.8,1.8,2.5,3.4,2.3,2.8-12.2,14-22.1,24-28.7,5.3-3.5,12.4-6.7,19-6.5,4.4.1-1.8,5.6-2.5,7.2-1.7,3.9-2.1,12.5-1.4,16.6.1.7.8,3.7,1.1,3.9,1.4,1.1,1.5-1.2,2.5-2.2,4-3.4,11.1,4.4,13.2,7.6,2.6,3.7,3.9,7.8,6.1,11.7,22.6,6.1,41.4,15.9,59.2,31,6.4,5.4,18.5,19.7,27.9,13.5,10.6-7-6.4-19.6-10.7-25.1-11.7-15-19.1-25.8-19.9-45.7-.6-14.2,2-26.4,10.4-37.9,3.3-4.5,11.3-10.8,16.3-4.9,2.1,2.5.5,4.6.4,7.2-.3,6.7-.8,14,0,20.7,2.1,16.4,15.5,34.1,28.1,44.3,14.6,11.9,30,9.9,37.5,30.7,10.6,29.7-8.6,55-34.6,67.1-1.2.6-7.5,2.8-7.7,3.3.1,4.1,0,8.6.4,12.6.1,1.8.4,5.4,1.3,6.8,1.3,1.9,9.4,4.5,12,5.8,3,1.5,13.5,7.8,14.2,10.8.9,3.9-4.8,12.6-7.2,15.9-2,2.7-4.3,5-6.2,7.8.8,5.4,7,16.2,2.5,20.7-2,2-12.4,4.4-15.7,5.1-3.6.8-7.3,1.2-10.9,2h0ZM332.3,15.6c-2-2.1-5.7,3.1-6.9,4.6-7.9,10.6-10.5,32.5-6.4,44.8,4.8,14.4,16.1,26.5,25.8,37.7,5.5,6.3,9.7,12.5,6,21.3-2.2,5.3-10.8,9.3-16.4,9.2.3,5.8,9,5.2,13.5,7,4.4,1.7,9.5,5.3,6.9,10.7-.5,1.1-2.5,2.1-2.2,3.2,4.3,2.4,9,8.8,7.9,13.9-.5,2.4-3.9,4.2-1.8,7.1,1.3,1.7,4.9-1,6.5-1.9,19.9-11.9,36.1-26.1,34.4-51.7-1.2-17.3-14.2-20.6-26.5-28.1-24.9-15.3-42.6-39.8-41.3-70.1,0-1.7,1.4-6.6.3-7.7h0ZM105.4,168c.3-2.7,1.2-5.6,2.2-8.2.4-1.1,2.5-4.2,2.4-4.8,0-1.1-3.9-2.3-3.9-5.9,0-2.8,4.3-6.1,6.7-7.4,1.6-.8,3.6-1.2,5.1-2.1,4.7-2.7,7.9-10.6,11.5-14.7-6.1-3.3-5.4-9.8-3.2-15.4,4.6-11.7,18.3-16.2,23.3-29.7,3.9-10.5,2.4-31.9-1.2-42.5-1.5-4.5-6.5-15-10.1-17.9-.7-.5-3.3-1.3-2.9,0,.3.9.9,1.8,1.2,3,3.4,13.9,3.4,26.7-3.1,39.6-8.6,17-21.5,27.4-36.2,38.8-10.2,7.9-13.1,22.7-8.8,34.6,3.5,9.8,10,23.4,15.9,32,.3.4,0,.8.9.6h0ZM248.1,91.3c.1-.2,0-.9.2-1.3,1.6-2.6,3-4.4,1.8-7.7-.4-1.3-1.3-1.8-1.8-2.8-1.6-3.5-5-14.6-8.5-15.6-3.4-1-3.6,4.7-2.8,7,.4,1.2,2.3,2.5.5,3.3-1.9.9-3.9-2-5.1-3.4-5-5.9-8.1-15-7.2-22.8.3-2.5,1.5-4.4,2.3-6.6.1-.4.5-1.1,0-1.3-4.5,2.1-9.1,4.2-12.9,7.4-6.8,5.7-17.9,19.8-16.4,29.1.2,1.6,3.6,8.3.9,8.8-1,.2-5.3-6.4-6.3-7.6-3.4-3.9-10.5-9.3-15.4-10.9-5.3-1.7-4.1,1.4-3.2,5.3,1.9,7.7,6.1,15.6,8.6,23.2.4,1.3,2.8,8,2.1,8.7-2-.1-7.6-2-8.4.7-1.4,4.6,5.3,4.2,8.1,6.1.4.3,2.6,1.8,1.6,2.5-4.4-2-10.4-2.6-14-4.4-6.2-3.1,2.8-9.1,6.4-9.6-.6-1.3-.4-3.9-2.6-3.3-1.2.3-8.8,5.6-10.3,6.7-9.4,7.3-19.6,17.5-26.9,26.9-1,1.3-5.9,8.9-6.6,9.1-.4,0-1-.4-1.1-.6-.4-1.4,3.9-6.9,4.2-8.9,0-.5.2-1.4-.6-1-.5.2-4.9,6.1-5.6,7.1-1.4,1.9-2.9,5.7-4.5,6.9-2.9,2.1-14.1,2.8-13.3,7.8.3,2.1,4.4,2.6,4.6,3.9-2.3,5-5,9.5-5.4,15.2-.3,3.8-.3,9.8,3.2,12.1.7-.4.5-.9.6-1.5,1.9-8.6,1.4-15.6,6.1-23.9.5-.8,3.2-5.3,4-2.7.3,1-3.6,12.5-4.1,14.8-1.7,7.9-1.8,13.2.4,21.1,1.6,5.8,4.2,11.4,8.2,15.9.5-6.5,1.4-13.2,2.9-19.5,1-4,3.2-4.4,7.1-5.2,18.2-3.9,37.2,13.7,42.1,30.2,2.3,7.7,3.2,16.8-1.7,23.7-.5.7-1.9,1.8-2.1,2.1-.2.4,1.2,1.3.1,2.4s-3.9-.4-5.3-.6c-9.8-1.4-18.3-1.5-27.8,2-1.9-1.4,1-2.2.6-3.8-1.6,0-5.5-4.5-5.4-1.2,0,2.3.9,5.9,1.2,8.4.9,9.1,1.2,21.1,3,29.8.8,3.6,2.7,5.1,5.5,7.2,8.5,6.2,18.9,11.7,29.2,14.2.2,2.5-3,2.2-4.8,2.1-7-.6-15.9-6.2-22.2-7-1.4-.2-5.3-.7-5.6,1l2.1,21c.6.6,13.9-5.7,14.3,1.5.1,2-4.5,9.6-6.8,9s.7-2.9.9-4.5c.3-2.8-1.9-2.2-3.7-1.6-6.8,2.2-4.3,3.8-3.5,9,2.4,15.1,2.3,31.1,4,46.4.8,7.7,2.7,15.1,3.7,22.5,2.1,15.5,2.6,31.5,5.6,46.9.4,1.9.8,4.2,2.2,5.6,16.9,17,49.1,28.4,72.9,25.5,4.5-.6,9.4-1.8,13.8-2.9,0,0,1.2.6,1.7,1,3,2.9,5.8,6.1,8.9,8.9,9.4,8.5,20.3,15.4,31.8,20.7,1.6,2.9-4.9.7-5.1,2.2-.1.6.8,4.3,1.1,5.2,3.1,9.9,20.6,20.5,30.9,19,4.4-.6,5-7.6,4.4-11.1-.3-1.7-3.5-5.4.4-3.8,3.1,1.3,4.7,6.1,4.8,9.2,0,1.3-1.1,4.8,0,5.5,6.2.8,16,3.3,19.5-3.9,1.8-3.8.3-13-3.2-15.3-1.4-.9-4-.9-3.9-2.7.2-2.4,4.4-.8,5.9-.1,4,1.9,7.3,6.3,7.9,10.7.5,3.9-1.8,8.6,3.7,8.2,5.3-.4,7.6-5,7-9.9-1.2-9.1-12.5-16.5-15.6-25.9-.5-1.4-.7-5.9-2.2-5.7-1,.2-4.2,3.5-6.2,2.9-.8-.7,4.9-5.9,5.5-6.6,1.9-2.3,3.7-5.9,4.9-8.7.6-1.4,1.2-4.7,1.7-5.5.9-1.4,3.9-1.2,5-4.8,1-3.4-2.1-6.9-1.7-8.5.3-1.3,3.7-1.8,3.7-3.9-2.4-5.8-6.4-11.1-8.9-16.9-3.1-7.1-5.5-14.7-8.6-21.9-1.1-2.5-7.5-17.7-8.7-18.5-.7-.5-6.8,3.5-8.2,4.1-6.6,3.2-13.5,6-20.8,7.2-1.1,1.2-1.6,2.8-2.6,4.2-3.5,4.7-12.6,13.8-18.3,15.2-4.4,1-8.9,0-12.8-2-.4-.2-1.2-1.2-2-1.6-3.5-1.8-3.7-.4-6.7,0-6.9.7-16.3-3.9-18.6-10.6-.8-2.4-.5-4.4-1.3-6.8-1.4-4.3-5.1-7.4-5.3-12.5-.1-2.9,2.7-13.2,4.5-15.4,2.3-2.7,6.8-3.6,9.3-6.8,1.5-1.9,1.9-4.2,3.1-6.2,2.8-4.9,9.5-10.8,14.1-14.1,4.4-3.2,9.1-5.7,13.8-8.5.5-1-1-3.5-1-4.9,0-2.8,1.9-7.9,5-8.2.2,2.7-.6,5.1-.4,7.8.2,2.3,2.2,6.2,1.5,7.8-.6,1.2-8.8,4.6-10.8,5.8-6.4,3.8-12.9,10.2-17.1,16.4-1.7,2.5-4.3,9-6.4,10.1-1,.5-2.3.6-3.4,1.2-4.9,2.7-7.7,6.8-7.9,12.4,0,1.3.6,8.2,2.4,7.8.4-.1,4.1-6,5.5-7.2s4.8-2.6,3.9.4c-.5,1.5-2.7,4-3.5,6.2-2,5.5-2.8,10.3,1.2,15.1,3.6,4.5,7.8,4,13.1,4.5-.7-2.8-1.8-4.7-1.2-7.7.4-1.8,2.9-4.7,5-4.5-.7,16.5,10.7,19.4,23.3,11.2,4.7-3.1,5.6-6.4,8.8-10.3,3-3.8,7.5-3.6,11.8-5.1,19-6.5,35.3-20.9,40.4-40.9.8-3.3.3-7.5,1-9.6.3-1.1,2.6-2.1,2.8-3.5.4-3.5-7.6-7.4-6.5-9.9.3-.6,1.4-.8,1.5-1.9.5-3.2-5.9-6-7.8-7.8-1.5-1.4-3.1-4.3-4.6-5.9-7.2-7.7-14.8-14.5-25.4-16.9-.6,0,.9,5.7-2.6,7.6-4.6,2.5-11,.3-15.8,2.2,2.3,3-.7,9.2-4,9.7-1.1.2-7.5.2-7.8.5.3,2.7-4.1,13.3-6.6,13.6-1,0-1.4-.9-2.3-.9-.8,1.8-1.3,5.5-3.8,5.5,0-.6-.5-1.4-.4-2.7.1-1.8,1.7-7,3.6-7.4,1.4-.3,3.2,2.5,4.2-2.2.3-1.5.9-5.3-.3-6.1-2.7-1.9-3.2,2.1-4.5,4.3-3.9,6.2-15.4,16.9-22.8,17.9-2.2.3-5.1-.4-7.1.1-2.7.7-6.8,5.4-11.6,6.1-4.1.6-5.8-1.8-7.5-1.6-.9.1-5.7,3.6-7.6,4.3-1.7.6-7.7,2.4-6-1.3.9-2,13.5-7.9,15.3-11,2.8-.2,1.6,4.1,3.1,4.8,1.1.5,3.3-.6,4.4-1.1,6.2-2.8,12.2-7.4,17.1-12.2,3.4-.2-.1,5.6.1,5.9,1.7-.5,3.9-1.2,5.4-2,4.1-2.3,11.4-11,13-15.3.6-1.5,1.1-5.6,2.2-5.9.9-.2,1.8,1,2.9,1.2,1.5.2,3.4,0,5.1,0,3,.2,7.5,1,10.5.3,4.9-1.1-3.6-7.3.2-9.7,1.6-1,3.5,0,5,0,4.4,0,9-.3,13.3-.9.4-.6-3-5.5-1.6-7.5.3-.4,10.4-2.7,5.7-5.2-2.6-1.4-5.7.2-7.5-2.7.8-1.6,2.1-1.8,3-3.7.3-.6,1.8-4.8,1.6-4.9-4.2,1.7-7.9,4.6-12.7,4.6.4-5.2,8-6.7,12-9,4-2.2,7.7-5.5,11.5-8,1.6,3.1-4.8,6-5.2,7.5s.8,2.1.8,3.5c0,2.5-2.2,6-3.4,8.2.3,1.3,11,2,9.2,8-.4,1.5-2.8,1.2-1.8,2.9,3.1.6,8.6,4.5,11.2,4.9,3,.4,1.3-6,.2-7.5-1-1.2-3.8-1.8-1.1-3.3,2.2-1.2,4.9-.2,4.8-3.7-.2-6-2-3.9-6.3-4.8-2.6-.5-5.6-2.6-8.1-3.5l1.1-1.7c2.8.4,6.1,1.3,8.9,1.3s2.2-.5,3.4-.5c2.5,0,9.3.2,11.2-1.1,3-2-3.9-12.4-3.4-12.9,7.8,1.5,15.2.5,23-1,1.2-.2,7.6-1.4,8-1.8,1.4-1.4-.2-7.4-.8-9.3-.7-2.2-3.6-7.5-3.4-9.3,0-1.5,3.6-4.7,4.7-6.1,2.1-2.6,8.3-9.9,7.9-13.1-.3-2.5-5.9-7.2-8.1-8.4-5.2-2.8-12.1-4.9-17.9-6.1,0-11.1-1.4-23.5-6.6-33.4-1.2-2.2-5.9-8.4-6.1-10-.1-.7-.3-1.2.6-1,1.2.2,5,2.6,6,3.5.6.6,1.5,2.6,2.1,2.8,1.5.5,3.9-2.2,3.4-3.8-.8-2.7-10.3-8.6-10.7-10.1-.3-1-.2-1.4.3-2.3.7-1.4,4.2-3.1,4.8-4.1.3-.4.3-.9,0-1.3-.7-1-14.2-2.7-16.1-3.8-.5-.5-1-.9-1.4-1.6-5.2-8.3-11.7-17.5-19.1-24.1-11.8-10.4-40.9-30.8-56.9-28.5-2.9.4-5.8,4-7.9,1.6h0ZM86.8,148.5c-.7-.4-3.5,3-4.3,3.6-5.5,4.1-13.9,5-20.5,4.5-1.7-.1-7.4-1.5-8.5-.4l-20.9,72.3.6,1.4c6.4-3.1,11.6-2.6,16.7,2.3,2.2,2.1,7.2,10.1,10.2,9.8,1.6-.2,8.6-7.4,10.5-8.9,7.3-6,15.8-11.7,25.4-7.2,3.3,1.6,13.5,10.6,16.2,9.9,1.5-.4,4.5-8.2,5.6-10.1,1.6-2.7,3.8-5.6,7.2-5.9,1.3-.1,2.5.7,3.2-.2l-41.5-70.9h0ZM154.6,234c0-1.3-1.4-1.5-2.1-2.4-6.9-8.6-8.8-25-5.9-35.4.4-1.6,2.7-6.2,2.4-7.2-.4-1.2-4.1-2.6-5.6-2.3-2.3.5-6.4,6.2-7.3,8.4-2.7,6.4-1.1,24.4,2.1,30.5,3,5.7,9.6,10.6,16.3,8.5h0ZM159.1,195.1c-1.4.4-2.7,4-2.8,5.3-.3,4.6,7,9.2,11,6.3,4.4-3.2-4-9.2-6.3-11.4-.6-.3-1.2-.3-1.8-.1h0ZM151.3,203.2c-.8.8-1.7,4.8-1.8,6-.6,8.2,6,22.1,14.4,24.6,7.6,2.3,15-2.3,14.4-10.6,0-.7-.9-5.5-1-5.7-.9-1.5-1.6,1.2-2.1,1.7-2.5,2.9-6.3,4.1-9.9,2.2-4.4-2.4-3.9-7.4-5.7-11.3-.6-1.4-3.3-4.9-4.4-6.2-.9-1.1-2.7-1.9-3.9-.8h0ZM56.4,399.7c.1,11.4,2.4,22.7,4.3,33.9,2.4,14.8,5.2,29.7,7.6,44.5,1.4,8.8,13.2,13.4,21,14.6,5.2.8,6.2.9,6-4.7-.1-2.9-1.9-7.5.2-9.5,1.7,0,3,12.3,3.7,14.1s5.8,1.3,7.7,1.2c7.3-.4,16.4-2.4,23.4-4.5,2-.6,6.9-2,8.3-3.1,2.3-1.9,1-6.3,1.9-7,2.6-1.8.9,4.4,2.8,4,.3,0,3.7-2.9,4.3-3.4,1.4-1.2,9.4-9.2,9.8-10.1.6-1.7-.8-6.2-1-8.3-8.1-70.8-15.8-141.7-23.8-212.6-.7-6.3-.8-12.8-1.7-19-.3-1.9-1.5-3.4-3.3-3.9-3.6-1-4.6.9-6,3.7-1.1,2.2-4,9.9-4.4,12.1-.3,1.9.3,11.5-1.2,11.9-.6.1-1.2-.7-1.4-1.2-.9-2.2-.9-8.6-2-9.9-.6-.7-6.2-2.7-7.8-3.6-6-3.4-8.5-9.2-16.3-8.6-11.9.9-11.7,7.5-18.4,14.2-2.9,2.9-4.8,1.4-4.7,7.2.2,6.9,2.1,15,2.5,22,.1,2.1,0,4.1-.4,6.1-.7.1-.9-.2-1.2-.7-3.3-5.7-3.3-20.4-4.9-27.3-.9-4.1-2.2-2.6-5.2-4.1-2.3-1.1-8.5-7.6-10.5-9.8-.8-.9-1.3-2.3-2.1-3-3.9-3.3-12.2,1.3-12.1,6.1,2.5,22.1,6.4,44.1,8.9,66.1.8,7.1.4,14.3,2.2,21.3,1,.8,7.8-2.1,9.6-2.4,10.9-1.5,16.1,8.5,16.5,18,0,1.8-.7,4.4-.2,6.2.2.6,3,3.2,3.8,4.7,2.3,4.2,2.3,13.3,0,17.5-.8,1.5-2.4,1.8-1.7,4.1.4,1.4,1.6,1.1,1.6,3.9.2,9.6-7.9,15.6-15.6,19.4h0ZM54.8,348.4c2-.3,5,0,7.2,0s1.1-6.6,1-7.7c-.3-2.3-2.8-6.6-4.6-8.1-3.1-2.6-9.5-1.5-12.8.3-2.8,1.4-5.9,7.4-8.1,1.6-1.3-3.5,1.1-9.9-4.5-5.7-5.6,4.2-11.4,18.8-10.5,25.7,2.2,16.4,12.6,40.3,32.7,38,6-.7,11.5-5.7,10.8-12-.2-1.8-2.3-5-2.1-5.8.2-.8,2.9-2.3,3.7-4.4.7-1.8,1.2-8.5.9-10.5-1.2-8.9-13.2-7.9-19.5-5.6-1.5.5-2.9,2.3-4.3,1.2-1.2-1.8,4.4-4.8,5.7-5.3,1-.4,3.5-1.4,4.4-1.5h0ZM166.8,516.1c7.8-1,18.1-3.2,25.1-6.9,6.5-3.4,8.8-10.7,4.3-16.8-1.1,1-6.9,3.1-6.1.2.1-.5,5.9-4.7,6.9-5.8,1.5-1.5,6-7,6.9-8.8.5-.9,1-2-.2-2.6-11.4-3.5-21.5-10-32.2-15.2l-8.6-6c.9,4.4-.2,10.1,1.6,14.3,2.2,5.1,3,6.9,3.8,12.7.3,2.3.1,6.4.7,8.2,1.1,3.5,7.9,3.2,10.8,3.8.9,5.2-9.7,1-10.6,1.7.2,2.4-2.6,6.4-2.6,8.2v12.9h0ZM159.9,473.4c-.5.1-4.6,6.6-5.7,7.8-6.2,6.6-23.9,14.5-32.9,15.8-13.5,2.1-32.1,1.5-44.8-3.9-2.1-.9-9.4-6.8-10.4-3.4-.6,1.9.5,8.9.9,11.2.6,3.4,1.7,10.3,4.8,12.1,1.4.9,3.4,1,4.8,1.5,19.4,8.2,31,7.5,51.3,3.5,10-2,22.6-7.4,30.6-13.9,2.8-2.2,5.1-3.5,5.3-7.4.3-4.9-.2-16.4-2-20.9-.2-.6-1.2-2.8-2-2.6h0ZM160.5,508.5c-.3-.3-1.5.1-2,.3-2.3,1-6.1,4.2-8.7,5.7-6,3.4-12.2,6.5-18.9,8.2-11.5,2.9-30.9,4-42.3.8-5-1.4-9.8-3.5-14.6-5.3-.3,3.5,1.7,8.1,3.1,11.3,10.4,23.1,45.1,22.3,65.1,13.8,9.5-4,16.9-12.5,18.7-22.8.3-1.8.6-11.1-.3-11.9h0Z"/>
        <path class="st6" d="M373.9,234.9c-1.1,1.4-4.6,4.6-4.7,6.1-.1,1.8,2.8,7.1,3.4,9.3.6,1.9,2.2,8,.8,9.3-.3.3-6.8,1.5-8,1.8-7.7,1.5-15.2,2.5-23,1-.5.5,6.4,10.9,3.4,12.9-2,1.3-8.7,1-11.2,1.1-1.1,0-2.2.5-3.4.5-2.8,0-6.1-.9-8.9-1.3l-1.1,1.7c-1.4-.5-3.2-1-4.7-1.3,0-1.4-1.2-2-.8-3.5s6.9-4.4,5.2-7.5c-3.9,2.5-7.6,5.7-11.5,8-4,2.2-11.6,3.8-12,9,4.8,0,8.5-3,12.7-4.6.2.2-1.3,4.3-1.6,4.9-.9,1.8-2.2,2-3,3.7,1.7,3,4.9,1.3,7.5,2.7,4.7,2.6-5.5,4.8-5.7,5.2-1.3,2,2,7,1.6,7.5-4.3.6-9,1-13.3.9-1.5,0-3.4-1-5,0-3.8,2.4,4.8,8.6-.2,9.7-3,.6-7.5-.1-10.5-.3-1.6-.1-3.5.2-5.1,0-1.2-.2-2-1.4-2.9-1.2-1.1.3-1.6,4.4-2.2,5.9-1.7,4.4-9,13.1-13,15.3-1.5.8-3.7,1.5-5.4,2-.2-.2,3.3-6-.1-5.9-4.9,4.7-10.8,9.4-17.1,12.2-1.1.5-3.3,1.7-4.4,1.1-1.4-.7-.3-5-3.1-4.8-1.8,3.1-14.4,9-15.3,11-1.7,3.8,4.4,2,6,1.3,1.9-.7,6.7-4.2,7.6-4.3,1.7-.2,3.4,2.2,7.5,1.6,4.9-.8,9-5.5,11.6-6.1,2-.5,4.9.1,7.1-.1,7.4-1,18.9-11.7,22.8-17.9,1.4-2.2,1.8-6.2,4.5-4.3,1.2.8.6,4.6.3,6.1-1,4.6-2.8,1.9-4.2,2.2-1.9.4-3.5,5.6-3.6,7.4,0,1.3.4,2.1.4,2.7,0,2.6-1.5,5.4-1.7,8-4.6,3.4-11.3,9.2-14.1,14.1-1.1,2-1.6,4.4-3.1,6.2-2.5,3.2-7,4.1-9.3,6.8-1.8,2.2-4.6,12.5-4.5,15.4.2,5.1,3.9,8.2,5.3,12.5.8,2.4.5,4.4,1.3,6.8,2.3,6.7,11.8,11.3,18.6,10.6,3-.3,3.2-1.7,6.7,0,.8.4,1.6,1.4,2,1.6,0,1.8,0,3.5-.5,5.2-.2.9-1.2,1.9-1.2,2.4-.9,0-1.5,0-2.3.5-3.4,1.9-10.5,18-11.7,22.2-.6,2-1.2,3.5-.8,5.7-1.6.7-5.8,13.8-5.1,15.2-4.4,1.1-9.3,2.4-13.8,2.9-23.8,2.9-56-8.5-72.9-25.5-1.4-1.4-1.8-3.8-2.2-5.6-3-15.4-3.5-31.4-5.6-46.9-1-7.5-2.9-14.9-3.7-22.5-1.7-15.3-1.6-31.3-4-46.4-.8-5.2-3.3-6.8,3.5-9,1.8-.6,4-1.1,3.7,1.6-.1,1.5-3.2,3.8-.9,4.5s6.9-6.9,6.8-9c-.4-7.3-13.6-1-14.3-1.5l-2.1-21c.3-1.7,4.2-1.1,5.6-1,6.3.9,15.2,6.4,22.2,7,1.9.2,5.1.5,4.8-2.1-10.2-2.5-20.7-8-29.2-14.2-2.8-2.1-4.8-3.6-5.5-7.2-1.8-8.7-2.1-20.7-3-29.8,6.3-1,12.7-1.5,19.1-1.7,0,1.3.6,1.1,1.4,1.3,1.2.4,5.7,1.9,5.8-.4.4,0,2.6.4,3,.4-1.5,2.4,5.4,2.7,6.5,2.4,1.8-.4,4.5-2.9,4.5-4.8,0-.5-.4-.9-.4-1.1,0-1.7,7.7-8.8,9.6-9.7,1.9-.9,5.7-1.4,5.7,1.4,0,3.4-3.6,8.3-3,12.1-.4.4-.8,1.7-.9,2.3-.3,4.5,3.4,2.8,5.9,4.7,3,2.2,3.4,5.8,8.7,5.6,3.4-.1,4.1-3.5,6.5-4.8,2.6-1.4,6.6-.7,7.9-3.6.5-1.1.4-2.6.6-3.4.6-1.8,2-3.6,2.8-5.5,1.5-3.9,1.5-10.2,7.8-7.4,3.5,4.3,7.6,8,11.7,11.6.5.4.5,1.2.6,1.3-1.7,1,.8,3.6,1.7,4.4,4.3,3.6,9.9-.3,14.4-1.2l.8-1.5c1.3-.1,3,.2,4.2,0-.5,2.3,3.2,1.4,4.4,1.2,1.5-.2,5-.6,5.4-2.5,6.2.3,12.6,0,18.8.4,3.9.2,14.2,2.6,17,1.8,1.5-.4,2.5-1.2,1.5-2.8-1.2-1.7-7.1-.4-5.9-4.6.5-1.6,4.9-2.8,6.6-3.6.9-.4,1.4-1.3,2.2-1.8.2-.1,1,.1,1.6-.2,1-.6,4.3-2.4,4.8-3.1s.2-1.4.3-2.2c.2-.1,2.5-1.6,2.5-1.7.4,1,.8.8,1.6.6,1.5-.4,5.3-3,6.6-2.6,1.6.5.7,4.9,5.3,3.5,1.8-.5,10.7-7.2,11.9-8.8.6-.8.8-1.2-.4-1.1,0,0-.1-.6.3-.8,2.7-1.1,5.8-2.8,8.8-2.5,3.1.3,14,4.9,16.3,7,3.3,3-.5,9.3-1.2,12.9h0ZM261.6,259.1c-2.7-3.3-6.5,2.9-8.6,4.5-4.5,3.6-13.7,6.5-19.4,6.8-7.7.5-15.2-2.3-23.3-1.7-7.8.5-18.8,5-26.1,1.2-3.9-2-8-6.9-12-9.1-2.7-.6-4.3,1-3.2,3.6,2.1,4.9,12,6.3,15.3,11,1,1.4,1.8,5,3.7,5.2,3.1.4,4.4-3.4,6.7-4.8,10.7-6.3,26.1-3,37.6-1.4,4.1.5,4.6,5.4,7.8,5.2,3.1-.2,3.4-4.5,4.6-6.4,1.3-2.1,6.1-3,8.6-4.1,1.9-.9,4.1-2.2,5.8-3.5,1.8-1.5,4.8-4,2.8-6.5h0ZM290.5,283.6c-.2-.2-4,.7-4.9.8-.6,0-1.3-.4-2.1-.3-3.3.3-6.2,2.5-8.5,4.6-1.2.1.2-.9-.4-2.1-1.1-2.2-6.3-1.6-8.3-1.1-5.9,1.6-8.5,6.1-13.4,8.2-7.9,3.3-15.2,2.1-22.6,4.1-3.5.9-5.4,3.1-.6,3.6,6.5.7,12.9-.7,19.3-1.3.6,1.9-1.8,4.1-1.6,5.7.2,1.8,3.3,3.9,4.6,2.1.1-.2.4-3.8.8-5,1.4-4.2,8.5-12,13-12.5,5.5-.6-.4,6,2.5,8,2.6,1.8,2.1-.4,2.6-1.5.7-1.4,9.2-7,11.1-8,2.1-1.1,4.5-1.6,6.5-2.8.6-.4,2.8-1.6,2-2.5h0ZM188.7,296.8c-2,1.2.6,2.6,1.9,3.1,4.8,1.9,16.2,2.5,21.3,2,1-.1,3.1-.3,3.2-1.5.2-2.5-2.4-1-3.6-1.1-2.8-.2-6-1.3-8.9-1.6-4.6-.5-9.3-.3-13.9-.8h0ZM182.9,332.3c-.7,5.7-2.8,13.1.5,18.3.9,1.4,3.4,3.7,5.2,3.6,4.7-.2,9.2-8,12.9-9.1,2.5-.8,6.4,1.7,5.4-2.9-1.2-5.5-10-.5-12.4,1.8-1.4,1.3-5.1,6.8-7.6,4.3-2.8-2.9-.4-15,3.2-17.6.4-.3,8.4-4.1,4.8-5.2-2.1-.7-13.6,5.3-14.1-.3-.4-4.1,6.6-4.7,5.9-7.5-.2-1-1.3-1.2-2.2-1.1-3,.5-7.7,3.6-11.2,4.5-2.5.6-8.9.2-10,1-2.7,1.9,2.3,3.7,3.8,3.8,1.3,0,7.3-1.3,7.8-.8,0,.1,0,2,0,2.7.6,2.6,5.6,4.1,7.9,4.5h0ZM193.5,413.6v7.4c0,.4,1.9,6.6,2.2,7.1.3.5,3.2,4.2,3.8,3.7-.6-3.6-2.5-7.7-2.9-11.3-.5-4.4.8-9.5.1-13.6-.2-1.1-.8-2.3-2.1-2.2s-1.7,2.2-3.2,2.1c-1.2-6.6,4.2-11.2,5.9-16.9-4.4-.6-6.6,3.6-7.9,7.1-1.9,4.9-3.1,10.7-1.6,15.8.6,1.9,3,5.3,4.7,2.9.6-.8.3-1.9,1.1-2.1h0ZM207.9,445.8l-4.7-7.8c-.5-.7-1.1-1.2-2.1-1.1-.3,4.1,2.9,8,6.8,8.9h0Z"/>
        <path class="st6" d="M56.4,399.7c7.7-3.8,15.8-9.8,15.6-19.4,0-2.8-1.2-2.5-1.6-3.9-.7-2.3.9-2.6,1.7-4.1,2.3-4.2,2.3-13.3,0-17.5-.8-1.5-3.6-4-3.8-4.7-.5-1.8.2-4.4.2-6.2-.3-9.4-5.5-19.5-16.5-18-1.8.2-8.6,3.2-9.6,2.4-1.8-7-1.4-14.2-2.2-21.3-2.5-22.1-6.3-44.1-8.9-66.1,0-4.8,8.2-9.4,12.1-6.1.8.7,1.3,2.1,2.1,3,2,2.2,8.2,8.7,10.5,9.8,3.1,1.4,4.3,0,5.2,4.1,1.6,7,1.5,21.6,4.9,27.3.3.5.4.9,1.2.7.3-2.1.6-4,.4-6.1-.5-7-2.3-15.1-2.5-22-.2-5.8,1.8-4.4,4.7-7.2,6.8-6.6,6.6-13.3,18.4-14.2,7.8-.6,10.3,5.2,16.3,8.6,1.6.9,7.3,2.9,7.8,3.6,1.1,1.3,1.1,7.6,2,9.9.2.5.8,1.3,1.4,1.2,1.6-.4.9-10,1.2-11.9.4-2.2,3.3-9.9,4.4-12.1,1.4-2.9,2.4-4.7,6-3.7,1.9.5,3.1,2,3.3,3.9,1,6.2,1,12.8,1.7,19,7.9,70.8,15.7,141.8,23.8,212.6.2,2.2,1.6,6.6,1,8.3-.3,1-8.4,9-9.8,10.1-.6.5-4,3.3-4.3,3.4-1.8.4-.2-5.8-2.8-4-.9.6.4,5.1-1.9,7-1.4,1.1-6.3,2.5-8.3,3.1-7,2.2-16.1,4.2-23.4,4.5-1.9.1-7,.6-7.7-1.2s-2.1-14-3.7-14.1c-2.2,2.1-.3,6.6-.2,9.5.2,5.6-.8,5.5-6,4.7-7.8-1.2-19.5-5.8-21-14.6-2.4-14.8-5.2-29.7-7.6-44.5-1.8-11.2-4.2-22.5-4.3-33.9h0ZM119.5,293.6c2.5,2.6,2.1-3.9,2-5.2-.3-5.2-1.6-10.4-2.2-15.6-2.8-2.5-3,.9-2.9,3.3,1,2.6,1.9,16.2,3.1,17.5h0ZM81.7,375.5c-.4,0-.9-.1-1.3.2-.6.5-.5,7.1-.4,8.5.7,10,3.8,21,5.4,31,.7,4.1.7,8.4,1.5,12.5.4,2.1.5,5.2,2.4,6.3-.1-3,.7-5.7.4-8.7-.3-4-1.2-9.4-1.8-13.5-1.7-12.1-4.5-24.1-6.3-36.3h0ZM104.2,387.8c1.8-.2,12-1,12.3-2.3.1-.5-.5-1.1-1-1l-24,4.2c-.7,3.5,6.7-.5,7.6.4.6,1.6-1.8,10.5-1.3,11,.3.3,1.3,0,1.6-.7,1-2.8,1-7.7,1.4-10.7.7-.8,10,4.8,11.3,5,1.6.2,1.9-1.2.4-1.7l-8.3-4.1h0ZM119.3,399.7c-2.9.9-.9,4.9.8,5.4,3.9.9,5.3-7.2-.8-5.4ZM116.4,402.2l-22.6,3.9-.7,1.6c.7.7,18-2.6,20.2-3.2.5-.1,4.3-.9,3-2.2h0ZM106.7,418.3c5.5-9.3-10.1-11.9-9.7-1.9,0,.7,1,3.1.8,3.2-.1.1-4.1-.3-1.8,1.6l24.4-3c2-.4,2.3-2.2-.1-1.8-4.5.7-9,1.6-13.5,1.9h0ZM116,431.4c.6.6,2.6-.7,3.2-1.2,5-5.2-2.7-11-9-7.3-2.7,1.6-8.2,9.2-11.6,6.6-2.6-2,1-3.7,2.9-4,.4-2.9-2.9-1-4,0-3.3,2.8-.3,6.8,3.3,6.3,5.2-.7,7.9-7.8,12.4-8.4,3.2-.4,7.2,1,5.2,4.8-.4.8-3.4,2.4-2.5,3.2h0ZM118.9,439.6c-3.5.3-13.8,1.7-16.4,3.5-5.5,3.8-3.6,16.5,3.6,17.5,3.1.4,13.1-1,16.4-1.8s3.5-4.1.4-5.3c-4.6.1-10.7,2.3-15.2,2.1s-5.6-6.7-1.8-8.6c3.2-1.5,14.7-1.4,16.4-3.1,1.1-1.1.4-3.9-1.2-4.4-.9-.3-1.5,0-2.3,0h0ZM123.6,462.4l-19.8,3.1c-2.4.9-2.1,4.3.3,4.8,2.2.5,6.5-1.9,7.5,1.3.7,2.2.2,4.5,1.6,6.9,3.3,6,14.5,3.6,14.7-4.2,0-1.3-1-8.7-1.4-9.9s-1.6-2-2.9-2h0Z"/>
        <path class="st6" d="M248.1,91.3c2.1,2.4,5.1-1.2,7.9-1.6,16-2.3,45.1,18,56.9,28.5,7.4,6.6,13.9,15.8,19.1,24.1.4.6.9,1.1,1.4,1.6,1.9,1.1,15.4,2.8,16.1,3.8.3.4.3.9,0,1.3-.6,1-4.1,2.7-4.8,4.1-.5.9-.6,1.3-.3,2.3.4,1.6,9.8,7.4,10.7,10.1.5,1.6-1.8,4.3-3.4,3.8-.6-.2-1.5-2.2-2.1-2.8-1-.9-4.8-3.4-6-3.5-.9-.1-.7.4-.6,1,.3,1.6,5,7.7,6.1,10,5.2,9.9,6.6,22.3,6.6,33.4,5.7,1.2,12.7,3.3,17.9,6.1,2.2,1.2,7.8,5.9,8.1,8.4.4,3.2-5.8,10.5-7.9,13.1.7-3.6,4.6-9.9,1.2-12.9-2.3-2.1-13.2-6.6-16.3-7-3-.3-6,1.4-8.8,2.5-.5.2-.3.8-.3.8-.3.2-2.2.3-3.2.8-2.1,1-8.1,5-9.7,5.2-1,.1-.5-1.4-1.1-2.3-1.8-2.8-8.5.9-10.1,2.9-.8,1-.6,1.6-.8,1.9,0,.1-2.3,1.6-2.5,1.7-.3.1-1.2,0-2,.3-1.9.9-5.1,2.8-4.8,5.2-.9.5-1.4,1.3-2.2,1.8-1.7.9-6.1,2-6.6,3.6-1.3,4.3,4.7,2.9,5.9,4.6,1,1.5,0,2.4-1.5,2.8-2.8.8-13.1-1.6-17-1.8-6.2-.4-12.6-.2-18.8-.4-5.9-.2-5,.4-9.7,1.3-1.2.2-2.9-.1-4.2,0-2.7.2-7.2,1-9.5.9-.4,0-7.1-2.4-7.4-2.6,0,0-.1-.9-.6-1.3-4.1-3.6-8.2-7.4-11.7-11.6-6.3-2.8-6.3,3.5-7.8,7.4-.8,1.9-2.1,3.8-2.8,5.5-1.3-1.3-2.1-2.7-4-3.4-5.2-2-20.8-1.7-24.8,2.6-.6-3.8,3-8.7,3-12.1,0-2.8-3.8-2.3-5.7-1.4-1.9.9-9.5,8-9.6,9.7-1.7-.4-2.2,1-3.2,1.6-2.5,1.4-4.4,1.9-7.3,1.8-.3,0-2.6-.3-3-.4-3.8-.8-2.7-1-7.2-.9-6.4.2-12.7.7-19.1,1.7-.2-2.5-1.1-6.1-1.2-8.4,0-3.3,3.8,1.2,5.4,1.2.4,1.6-2.5,2.4-.6,3.8,9.5-3.4,17.9-3.3,27.8-2,1.4.2,4.4,1.5,5.3.6,1.1-1.1-.3-2-.1-2.4.2-.4,1.6-1.5,2.1-2.1,4.9-6.8,4-16,1.7-23.7-4.9-16.5-23.9-34.2-42.1-30.2-3.9.8-6.1,1.2-7.1,5.2-1.6,6.3-2.4,13-2.9,19.5-4-4.5-6.6-10.1-8.2-15.9-2.2-7.9-2.1-13.2-.4-21.1.5-2.3,4.4-13.8,4.1-14.8-.8-2.6-3.5,1.9-4,2.7-4.8,8.3-4.2,15.3-6.1,23.9-.1.6,0,1.1-.6,1.5-3.5-2.2-3.5-8.3-3.2-12.1.5-5.7,3.1-10.2,5.4-15.2-.2-1.3-4.3-1.8-4.6-3.9-.7-5.1,10.5-5.7,13.3-7.8,1.7-1.2,3.2-5,4.5-6.9.7-1,5.1-6.9,5.6-7.1.8-.3.7.5.6,1-.3,2-4.6,7.4-4.2,8.9,0,.3.7.7,1.1.6.7-.1,5.6-7.8,6.6-9.1,7.3-9.4,17.5-19.6,26.9-26.9,1.4-1.1,9-6.4,10.3-6.7,2.2-.6,2,2,2.6,3.3-3.6.5-12.5,6.4-6.4,9.6,3.6,1.8,9.5,2.4,14,4.4,2.4,1.1,3.7,2.1,6.4,3,.3,1.9,2.8,4,4.2,5.3,1.1,1,5.5,4.7,6.6,4.9,5.8.8,14.2-.7,16.6-6.7.2-.6,0-1.4.1-1.8.4-1.2,16.2-16.6,18.4-18.7,1.8-1.7,8.7-6.7,9.5-8h0ZM148.6,146.8c-.6,0-1.2,0-1.8.1l-6.7,2c-3.2.4-9,5.8-5.9,8.7l13.6,5.5c3.6,2.5,7.7,4.1,11.4,6.4,11.6,7.2,20.6,19.2,26.9,31.1,1.1,0,1.1-1.1,1.1-1.9,0-3.7-2-7.7-2.2-11-.2-5.4,3.4-8,.9-15.5-1.2-3.6-5.7-13.1-8.5-15.7-2.8-12.2-19.1-17.4-28.8-9.7h0ZM257.5,145.1c-2.3,1-4.9,2.7-6.8,3.4-4.7,1.8-6.2,3.3-9.3,7.4-4.5,6-8,12.9-5.2,20.4,1.3,3.4,1.5,1.9,4,2.8,2.3.8-.3,3.7-.9,5.3-1.7,4.5-2.7,9.2-2.9,14.1-.1,2.9,2.2,0,2.7-1.1,1.9-3.8,2.2-9,4.9-12.8,2.2-3.1,9.9-9,13.4-11.2,12.8-8.2,26.6-7.7,40.6-11,4.4-1,6.4-5.9,2.3-9.1-1.3-1-1.7-.8-2.7-1.3-3.7-1.7-18.8-9.3-22-7.2-.3-.6-.8-1.1-1.4-1.4-2.5-1-12.8-.3-15.6.7-.8.3-1.1,1-1.2,1.1h0ZM245.2,226c0,1.3.5,4.5,1.7,5.1-2.6-.6-.3,2.3.2,2.9,1.2,1.5,2.9,2.3,4,3.6,1.6,2.1,1,4.6,4.1,4.8,4.5.2,14.2-3.3,19.8-3.7,3.7-.3,8.5-.2,12.3,0,2.3,0,14.4,1.9,15.4.4,1.5-2.2-4.2-3-4.2-3.6,6.6-5.7,11.6-13.3,14.3-21.7,1.8-5.6,1.5-10.1.9-16-.4-3.5-2.8-18.1-5.8-19.7-.7-.4-4.7-.8-5.8-.9-11.3-.7-22.8,1-33,6-11.8,5.8-25,19-26.1,32.8-.2,2.5-.8,9.2,2.1,10h0Z"/>
        <path class="st6" d="M272.7,417.9c3.9,2.1,8.4,3.1,12.8,2,5.7-1.4,14.7-10.5,18.3-15.2,1-1.4,1.5-2.9,2.6-4.2,7.2-1.2,14.2-4,20.8-7.2,1.3-.6,7.5-4.6,8.2-4.1,1.1.7,7.6,15.9,8.7,18.5,3.1,7.2,5.5,14.8,8.6,21.9,2.5,5.8,6.5,11,8.9,16.9,0,2.1-3.4,2.6-3.7,3.9-.4,1.6,2.8,5.1,1.7,8.5-1.1,3.6-4,3.4-5,4.8-.5.8-1.1,4.1-1.7,5.5-1.2,2.8-3,6.4-4.9,8.7-.6.7-6.3,5.9-5.5,6.6,2,.6,5.2-2.8,6.2-2.9,1.5-.2,1.8,4.3,2.2,5.7,3.1,9.3,14.4,16.8,15.6,25.9.6,4.9-1.6,9.5-7,9.9-5.5.4-3.2-4.2-3.7-8.2-.6-4.4-3.9-8.8-7.9-10.7-1.4-.7-5.7-2.3-5.9.1-.1,1.8,2.5,1.8,3.9,2.7,3.5,2.3,5,11.6,3.2,15.3-3.5,7.2-13.2,4.7-19.5,3.9-1-.7,0-4.2,0-5.5,0-3.1-1.7-8-4.8-9.2-3.9-1.6-.7,2.1-.4,3.8.6,3.5,0,10.5-4.4,11.1-10.3,1.5-27.8-9.1-30.9-19-.3-.9-1.2-4.6-1.1-5.2.3-1.5,6.8.7,5.1-2.2-11.5-5.4-22.4-12.2-31.8-20.7-3.1-2.8-5.9-6-8.9-8.9-.4-.4-1.7-1-1.7-1-.7-1.5,3.4-14.6,5.1-15.2.2-.1,1,.2,1.2,0,1.2-1.2,4.7-10.6,5.9-12.9,1.2-2.3,8.1-12.5,8.1-13.5,0-.6-.5-1.4-.4-1.9s1-1.5,1.2-2.4c.5-1.7.5-3.5.5-5.2h0ZM323.5,493.2c-5.2.3-9.7,2.8-15,3.4-1.4.1-4.6-.9-5.5.8-1.1,2.2.7,2.8,2.5,3,4.6.4,11.1-1.5,15-4.1.4-.3,3.7-2.5,3-3.1h0Z"/>
        <path class="st6" d="M271.4,335.7c2.5,0,3.1-3.7,3.8-5.5.9,0,1.3,1,2.3.9,2.5-.2,6.9-10.9,6.6-13.6.3-.3,6.7-.3,7.8-.5,3.3-.5,6.4-6.8,4-9.7,4.9-1.9,11.2.4,15.8-2.2,3.5-1.9,2-7.6,2.6-7.6,10.6,2.5,18.2,9.2,25.4,16.9,1.6,1.7,3.1,4.5,4.6,5.9,2,1.9,8.3,4.6,7.8,7.8-.2,1.1-1.2,1.3-1.5,1.9-1.2,2.5,6.9,6.4,6.5,9.9-.2,1.5-2.4,2.5-2.8,3.5-.6,2.1-.1,6.4-1,9.6-5.1,20-21.4,34.4-40.4,40.9-4.3,1.5-8.8,1.4-11.8,5.1-3.1,3.9-4,7.2-8.8,10.3-12.6,8.2-23.9,5.4-23.3-11.2-2.1-.1-4.6,2.8-5,4.5-.6,3,.5,5,1.2,7.7-5.3-.5-9.5,0-13.1-4.5-3.9-4.8-3.2-9.7-1.2-15.1.8-2.2,3.1-4.7,3.5-6.2,1-3.1-2.5-1.5-3.9-.4-1.5,1.1-5.1,7.1-5.5,7.2-1.8.4-2.4-6.5-2.4-7.8.3-5.6,3-9.7,7.9-12.4,1.1-.6,2.4-.7,3.4-1.2,2.1-1.1,4.7-7.6,6.4-10.1,4.1-6.2,10.7-12.6,17.1-16.4,1.9-1.2,10.2-4.5,10.8-5.8.8-1.7-1.3-5.5-1.5-7.8-.2-2.7.6-5.1.4-7.8-3.2.3-5.1,5.4-5,8.2,0,1.4,1.6,3.9,1,4.9-4.6,2.8-9.4,5.3-13.8,8.5.2-2.6,1.7-5.4,1.7-8h0Z"/>
        <path class="st6" d="M86.8,148.5l41.5,70.9c-.7.9-1.9.1-3.2.2-3.4.3-5.6,3.3-7.2,5.9-1.1,1.9-4.1,9.7-5.6,10.1-2.7.7-12.9-8.4-16.2-9.9-9.7-4.5-18.1,1.2-25.4,7.2-1.9,1.5-9,8.7-10.5,8.9-3,.4-8-7.6-10.2-9.8-5.2-4.9-10.4-5.4-16.7-2.3l-.6-1.4,20.9-72.3c1-1.1,6.8.3,8.5.4,6.6.5,15-.4,20.5-4.5.8-.6,3.6-4,4.3-3.6h0Z"/>
        <path class="st6" d="M332.3,15.6c1.1,1.1-.2,6-.3,7.7-1.3,30.3,16.4,54.8,41.3,70.1,12.2,7.5,25.3,10.9,26.5,28.1,1.8,25.6-14.4,39.8-34.4,51.7-1.6.9-5.2,3.7-6.5,1.9-2.1-2.9,1.3-4.7,1.8-7.1,1.1-5.2-3.6-11.5-7.9-13.9-.3-1.1,1.6-2.1,2.2-3.2,2.7-5.4-2.5-8.9-6.9-10.7-4.6-1.8-13.2-1.2-13.5-7,5.6,0,14.2-3.9,16.4-9.2,3.7-8.8-.5-14.9-6-21.3-9.7-11.2-21-23.3-25.8-37.7-4.1-12.3-1.5-34.3,6.4-44.8,1.1-1.5,4.8-6.6,6.9-4.6h0Z"/>
        <path class="st6" d="M186.3,113.3c1.1-.7-1.1-2.2-1.6-2.5-2.9-1.9-9.5-1.5-8.1-6.1.8-2.7,6.4-.8,8.4-.7.6-.7-1.7-7.4-2.1-8.7-2.5-7.6-6.8-15.4-8.6-23.2-.9-3.9-2.1-7,3.2-5.3,4.9,1.6,12,7,15.4,10.9,1,1.2,5.3,7.8,6.3,7.6,2.7-.4-.6-7.2-.9-8.8-1.5-9.3,9.6-23.4,16.4-29.1,3.8-3.2,8.4-5.3,12.9-7.4.5.2.1.9,0,1.3-.8,2.2-2,4.1-2.3,6.6-.9,7.8,2.2,16.9,7.2,22.8,1.2,1.4,3.2,4.3,5.1,3.4,1.8-.8,0-2.2-.5-3.3-.9-2.4-.6-8,2.8-7,3.5,1.1,6.9,12.1,8.5,15.6.5,1.1,1.4,1.6,1.8,2.8,1.2,3.4-.2,5.1-1.8,7.7-.2.4,0,1.1-.2,1.3-.8,1.3-7.7,6.4-9.5,8-2.2,2.1-18,17.4-18.4,18.7-6.4,1.6-10.5,5.5-17.5,2.9-3.6-1.3-5.8-3.1-10.1-4.6-2.7-.9-3.9-1.9-6.4-3h0Z"/>
        <path class="st6" d="M105.4,168c-1,.2-.7-.2-.9-.6-5.9-8.5-12.4-22.1-15.9-32-4.3-11.8-1.4-26.7,8.8-34.6,14.7-11.3,27.5-21.8,36.2-38.8,6.5-12.9,6.6-25.7,3.1-39.6-.3-1.2-1-2.1-1.2-3-.4-1.3,2.3-.5,2.9,0,3.6,2.9,8.6,13.4,10.1,17.9,3.6,10.6,5,32,1.2,42.5-5,13.4-18.7,18-23.3,29.7-2.2,5.7-3,12.1,3.1,15.4-3.7,4.1-6.9,12.1-11.5,14.7-1.6.9-3.6,1.3-5.1,2.1-2.4,1.2-6.6,4.6-6.7,7.4,0,3.6,3.8,4.8,3.9,5.9,0,.6-2,3.7-2.4,4.8-1,2.5-1.9,5.4-2.2,8.2Z"/>
        <path class="st6" d="M159.9,473.4c.8-.2,1.8,2,2,2.6,1.8,4.5,2.4,16,2,20.9-.3,3.9-2.5,5.1-5.3,7.4-8,6.4-20.6,11.9-30.6,13.9-20.4,4-32,4.7-51.3-3.5-1.4-.6-3.4-.7-4.8-1.5-3.1-1.9-4.2-8.8-4.8-12.1-.4-2.3-1.4-9.3-.9-11.2,1-3.4,8.3,2.5,10.4,3.4,12.6,5.3,31.3,5.9,44.8,3.9,8.9-1.4,26.7-9.2,32.9-15.8,1.1-1.2,5.2-7.7,5.7-7.8h0Z"/>
        <path class="st6" d="M54.8,348.4c-.9.1-3.5,1.1-4.4,1.5-1.3.5-7,3.5-5.7,5.3,1.4,1.1,2.8-.6,4.3-1.2,6.3-2.2,18.4-3.2,19.5,5.6.2,1.9-.3,8.7-.9,10.5-.8,2.1-3.5,3.7-3.7,4.4-.2.9,1.9,4.1,2.1,5.8.7,6.4-4.8,11.3-10.8,12-20,2.3-30.4-21.6-32.7-38-1-6.9,4.8-21.5,10.5-25.7,5.5-4.2,3.1,2.2,4.5,5.7,2.2,5.8,5.3-.1,8.1-1.6,3.3-1.8,9.7-2.9,12.8-.3,1.8,1.5,4.2,5.9,4.6,8.1.2,1.1.4,7.7-1,7.7-2.2,0-5.2-.3-7.2,0h0ZM57.6,375.1c-2.3.3-9.4-3.5-11-2.4-1.2.9,0,3,1.1,3.6,1.8.9,9.5,1.6,9.9-1.2h0Z"/>
        <path class="st6" d="M160.5,508.5c1,.8.6,10.2.3,11.9-1.8,10.3-9.2,18.8-18.7,22.8-20,8.5-54.8,9.3-65.2-13.8-1.4-3.2-3.4-7.8-3.1-11.3,4.8,1.7,9.7,3.9,14.6,5.3,11.4,3.2,30.8,2.1,42.4-.8,6.8-1.7,12.9-4.8,18.9-8.2,2.6-1.5,6.4-4.7,8.7-5.7.5-.2,1.7-.6,2-.3h0Z"/>
        <path class="st6" d="M166.8,516.1v-12.9c0-1.9,2.8-5.9,2.6-8.2.9-.8,11.4,3.5,10.6-1.7-2.9-.6-9.8-.3-10.8-3.8-.6-1.9-.3-5.9-.7-8.2-.9-5.8-1.7-7.6-3.8-12.7-1.8-4.1-.8-9.9-1.6-14.3l8.6,6c10.7,5.2,20.7,11.7,32.2,15.2,1.2.6.7,1.7.2,2.6-.9,1.7-5.4,7.2-6.9,8.8-1.1,1.1-6.8,5.3-6.9,5.8-.8,2.9,4.9.8,6.1-.2,4.5,6.1,2.2,13.4-4.3,16.8-7,3.6-17.3,5.9-25.1,6.9h0Z"/>
        <path class="st6" d="M154.6,234c-6.7,2.2-13.3-2.8-16.3-8.5-3.2-6.1-4.8-24.1-2.1-30.5.9-2.2,5-7.9,7.3-8.4,1.4-.3,5.2,1.1,5.6,2.3.3,1-1.9,5.6-2.4,7.2-2.9,10.4-1,26.8,5.9,35.4.7.9,2.1,1.1,2.1,2.4h0Z"/>
        <path class="st6" d="M151.3,203.2c1.2-1.1,3-.3,3.9.8,1.1,1.3,3.8,4.8,4.4,6.2,1.8,3.9,1.2,8.9,5.7,11.3,3.6,1.9,7.4.8,9.9-2.2.5-.6,1.2-3.2,2.1-1.7.1.2,1,5,1,5.7.6,8.3-6.8,12.9-14.4,10.6-8.4-2.5-15-16.3-14.4-24.6.1-1.2,1-5.3,1.8-6h0Z"/>
        <path class="st6" d="M321.4,277.2c2.5,1,5.6,3,8.1,3.5,4.3.9,6.1-1.2,6.3,4.8.1,3.5-2.6,2.5-4.8,3.7-2.7,1.5.2,2.1,1.1,3.3,1.1,1.4,2.8,7.8-.2,7.5-2.7-.4-8.1-4.3-11.2-4.9-1-1.7,1.4-1.4,1.8-2.9,1.8-6-9-6.7-9.2-8,1.1-2.2,3.3-5.8,3.4-8.2,1.5.2,3.2.7,4.7,1.3Z"/>
        <path class="st6" d="M159.1,195.1c.6-.2,1.2-.2,1.8.1,2.3,2.2,10.7,8.2,6.3,11.4-4,2.9-11.3-1.7-11-6.3,0-1.3,1.5-4.9,2.8-5.3h0Z"/>
        <path class="st6" d="M261.6,259.1c1.9,2.4-1.1,5-2.8,6.5-1.6,1.4-3.8,2.6-5.8,3.5-2.4,1.1-7.3,2-8.6,4.1-1.1,1.9-1.4,6.2-4.6,6.4-3.1.2-3.7-4.7-7.8-5.2-11.5-1.5-26.9-4.8-37.6,1.4-2.3,1.3-3.6,5.2-6.7,4.8-1.9-.3-2.7-3.9-3.7-5.2-3.2-4.7-13.1-6-15.3-11-1.1-2.6.5-4.2,3.2-3.6,4,2.3,8.1,7.1,12,9.1,7.3,3.8,18.4-.7,26.1-1.2,8.2-.5,15.6,2.2,23.3,1.7,5.8-.4,14.9-3.2,19.4-6.8,2.1-1.7,5.9-7.9,8.6-4.5h0ZM240.3,273.1c-2.6-.5-3.9,2.5-1.9,3.5,2.6,1.3,3.3-3.3,1.9-3.5ZM191.4,274.7c-1.6.2-4.3-.8-4.2,1.4.1,3.3,5,2,4.2-1.4Z"/>
        <path class="st6" d="M182.9,332.3c-2.3-.5-7.4-2-7.9-4.5-.2-.7,0-2.6,0-2.7-.5-.5-6.5.9-7.8.8-1.6-.1-6.5-1.9-3.8-3.8,1.1-.8,7.5-.4,10-1,3.6-.8,8.3-4,11.2-4.5.9-.1,1.9.1,2.2,1.1.7,2.9-6.3,3.4-5.9,7.5.5,5.5,12-.4,14.1.3,3.6,1.1-4.4,4.9-4.8,5.2-3.6,2.6-6,14.8-3.2,17.6,2.5,2.5,6.3-3,7.6-4.3,2.4-2.3,11.2-7.3,12.4-1.8,1,4.5-2.9,2.1-5.4,2.9-3.7,1.1-8.2,8.9-12.9,9.1-1.7,0-4.3-2.2-5.2-3.6-3.3-5.2-1.2-12.6-.5-18.3h0Z"/>
        <path class="st6" d="M290.5,283.6c.8.9-1.4,2.1-2,2.5-2,1.2-4.4,1.8-6.5,2.8-1.9,1-10.4,6.5-11.1,8-.5,1.1,0,3.4-2.6,1.5-2.9-2,2.9-8.6-2.5-8-4.5.5-11.6,8.2-13,12.5-.4,1.2-.6,4.8-.8,5-1.3,1.8-4.4-.4-4.6-2.1-.2-1.6,2.2-3.8,1.6-5.7-6.4.6-12.8,1.9-19.3,1.3-4.7-.5-2.9-2.7.6-3.6,7.4-2,14.7-.8,22.6-4.1,4.9-2.1,7.6-6.5,13.4-8.2,2-.5,7.2-1.1,8.3,1.1.6,1.2-.8,2.2.4,2.1,2.4-2.2,5.2-4.3,8.5-4.6.8,0,1.5.4,2.1.3.8,0,4.7-.9,4.9-.8h0Z"/>
        <path class="st6" d="M221.5,244.2c-.3.8-.2,2.3-.6,3.4-1.2,2.9-5.2,2.1-7.9,3.6-2.5,1.4-3.1,4.7-6.5,4.8-5.3.2-5.8-3.4-8.7-5.6-2.5-1.8-6.3-.2-5.9-4.7,0-.6.5-1.9.9-2.3,4-4.3,19.6-4.6,24.8-2.6,1.9.7,2.7,2.1,4,3.4h0Z"/>
        <path class="st6" d="M193.5,413.6c-.7.2-.5,1.4-1.1,2.1-1.7,2.3-4.1-1-4.7-2.9-1.5-5.1-.3-11,1.6-15.8,1.4-3.5,3.5-7.7,7.9-7.1-1.7,5.7-7.1,10.3-5.9,16.9,1.4,0,1.9-2,3.2-2.1s1.9,1.1,2.1,2.2c.7,4.2-.6,9.2-.1,13.6.4,3.5,2.3,7.7,2.9,11.3-.5.6-3.5-3.2-3.8-3.7-.3-.5-2.2-6.8-2.2-7.1v-7.4h0Z"/>
        <path class="st6" d="M349.8,218.4c1.2-.1,1,.2.4,1.1-1.2,1.6-10.1,8.3-11.9,8.8-4.6,1.4-3.7-3-5.3-3.5-1.3-.4-5.1,2.3-6.6,2.6-.8.2-1.2.4-1.6-.6.2-.3,0-1,.8-1.9,1.7-2,8.4-5.7,10.1-2.9.6.9,0,2.4,1.1,2.3,1.6-.2,7.5-4.1,9.7-5.2,1.1-.5,2.9-.6,3.2-.8h0Z"/>
        <path class="st6" d="M271,425.5c0,.5.5,1.3.4,1.9,0,1-7,11.2-8.1,13.5-1.2,2.4-4.7,11.7-5.9,12.9-.2.2-1,0-1.2,0-.3-2.2.2-3.7.8-5.7,1.2-4.2,8.3-20.3,11.7-22.2.7-.4,1.4-.6,2.3-.5h0Z"/>
        <path class="st6" d="M188.7,296.8c4.6.5,9.3.3,13.9.8,2.9.3,6.1,1.5,8.9,1.6,1.2,0,3.8-1.4,3.6,1.1-.1,1.2-2.2,1.4-3.2,1.5-5.2.5-16.6,0-21.3-2-1.2-.5-3.9-1.9-1.9-3.1h0Z"/>
        <path class="st6" d="M261.3,245.9l-.8,1.5c-4.5.9-10.1,4.8-14.4,1.2-1-.8-3.5-3.4-1.7-4.4.3.2,7,2.5,7.4,2.6,2.4.1,6.8-.7,9.5-.9h0Z"/>
        <path class="st6" d="M180.4,239.6c0,.1.4.6.4,1.1,0,1.8-2.8,4.4-4.5,4.8-1.1.2-8,0-6.5-2.4,2.9.2,4.9-.4,7.3-1.8,1.1-.6,1.5-2.1,3.2-1.6h0Z"/>
        <path class="st6" d="M207.9,445.8c-3.9-.8-7.1-4.8-6.8-8.9,1-.2,1.6.3,2.1,1.1l4.7,7.8h0Z"/>
        <path class="st6" d="M275.2,244.6c-.4,1.8-3.9,2.2-5.4,2.5-1.1.2-4.9,1.1-4.4-1.2,4.7-.9,3.9-1.5,9.7-1.3Z"/>
        <path class="st6" d="M322.2,228.5c0,.7.3,1.5-.3,2.2s-3.8,2.6-4.8,3.1c-.6.4-1.5.1-1.6.2-.3-2.4,2.9-4.3,4.8-5.2.8-.4,1.7-.2,2-.3h0Z"/>
        <path class="st6" d="M166.8,242.5c0,2.3-4.6.8-5.8.4-.8-.2-1.5,0-1.4-1.3,4.5-.1,3.4,0,7.2.9Z"/>
        <path class="st6" d="M118.9,439.6c.8,0,1.4-.3,2.3,0,1.6.5,2.2,3.3,1.2,4.4-1.7,1.6-13.2,1.5-16.4,3.1-3.9,1.9-2.8,8.4,1.8,8.6s10.5-2,15.2-2.1c3.1,1.2,2.9,4.5-.4,5.3s-13.3,2.2-16.4,1.8c-7.2-1-9.2-13.7-3.6-17.5,2.6-1.8,12.9-3.2,16.4-3.5h0Z"/>
        <path class="st6" d="M123.6,462.4c1.3,0,2.5.8,2.9,2s1.4,8.6,1.4,9.9c-.2,7.8-11.3,10.1-14.7,4.2-1.3-2.4-.9-4.7-1.6-6.9-1-3.3-5.3-.9-7.5-1.3-2.4-.5-2.7-3.9-.3-4.8l19.8-3.1h0ZM118,468.4c-4.7,1.1-1.7,11,3.9,7.7,2.4-1.4,2.3-9.1-3.9-7.7Z"/>
        <path class="st6" d="M81.7,375.5c1.8,12.1,4.6,24.1,6.3,36.3.6,4.1,1.4,9.5,1.8,13.5.2,3-.5,5.7-.4,8.7-1.9-1.1-2-4.2-2.4-6.3-.8-4.1-.8-8.4-1.5-12.5-1.6-10-4.7-20.9-5.4-31,0-1.3-.2-8,.4-8.5.4-.3.8-.2,1.3-.2h0Z"/>
        <path class="st6" d="M104.2,387.8l8.3,4.1c1.5.5,1.2,1.9-.4,1.7-1.3-.2-10.6-5.8-11.3-5-.3,3-.4,7.9-1.4,10.7-.3.8-1.3,1-1.6.7-.5-.5,1.8-9.4,1.3-11-.9-.9-8.3,3.1-7.6-.4l24-4.2c.5,0,1.1.5,1,1-.3,1.3-10.5,2.1-12.3,2.3h0Z"/>
        <path class="st6" d="M106.7,418.3c4.6-.3,9.1-1.2,13.5-1.9,2.4-.4,2.1,1.4.1,1.8l-24.4,3c-2.2-1.9,1.7-1.5,1.8-1.6.2-.1-.8-2.5-.8-3.2-.4-10,15.2-7.4,9.7,1.9h0ZM99.6,419c.7.4,4.5-.2,5.2-.8,1.4-1.2,2.1-4.6.4-5.9-3-2.4-6.8.7-6.6,4,0,.5.7,2.5.9,2.7h0Z"/>
        <path class="st6" d="M116,431.4c-.9-.9,2.1-2.4,2.5-3.2,2-3.8-2-5.2-5.2-4.8-4.5.6-7.3,7.6-12.4,8.4-3.6.5-6.6-3.4-3.3-6.3,1.2-1,4.5-2.9,4,0-1.9.3-5.5,2-2.9,4,3.3,2.6,8.9-5,11.6-6.6,6.3-3.7,14,2.1,9,7.3-.6.6-2.6,1.8-3.2,1.2h0Z"/>
        <path class="st6" d="M119.5,293.6c-1.2-1.3-2.1-14.9-3.1-17.5-.1-2.4,0-5.8,2.9-3.3.6,5.2,1.9,10.4,2.2,15.6,0,1.3.5,7.8-2,5.2h0Z"/>
        <path class="st6" d="M116.4,402.2c1.3,1.3-2.5,2.1-3,2.2-2.2.6-19.5,4-20.2,3.2l.7-1.6,22.6-3.9h0Z"/>
        <path class="st6" d="M119.3,399.7c6.1-1.8,4.8,6.3.8,5.4-1.8-.4-3.8-4.5-.8-5.4Z"/>
        <path class="st6" d="M245.2,226c-3-.7-2.3-7.4-2.1-10,1.1-13.8,14.3-27,26.1-32.8,10.1-5,21.7-6.7,33-6,1.1,0,5.1.5,5.8.9,3,1.6,5.5,16.1,5.8,19.7.6,5.8.9,10.3-.9,16-2.7,8.4-7.6,16-14.3,21.7,0,.5,5.7,1.3,4.2,3.6-1,1.5-13.1-.3-15.4-.4-3.8-.1-8.6-.2-12.3,0-5.6.4-15.3,3.9-19.8,3.7-3.2-.2-2.5-2.7-4.1-4.8-1.1-1.4-2.8-2.1-4-3.6-.5-.7-2.8-3.5-.2-2.9.4.2,1.4,0,2.3.5,2.6,1.2,5.4,5,8.9,5h6.6l-4.7-3.2c-2.9-2.7-7.2-11.8-7.2-15.7v-8.1c0-2.3-3.1,2.5-3.3,3-1.3,2.6-4.2,10.6-4.3,13.3h0ZM289.2,235.3c1.4-.1,2.9.3,4.2-.2,2.2-.9,7.8-7.2,9.3-9.4,5.8-8.5,8.4-17.8,4.6-27.8-1-2.8-6-12.1-9.6-10.3-2.1,1,.8,3.8,1.3,5,5.5,12.1,2.2,23-3.7,34.2l-6.1,8.5h0ZM275.6,188.8c-2.3.3-10.6,5.9-11.5,8-1.4,2.9,2.6,6.9,5.5,7.2,7.5.9,16.1-10.7,8.4-14.8-.9-.5-1.3-.6-2.4-.4h0ZM290,200.3c-5.1,1-3.2,6.2-3.4,9.3,0,1.3-1.9,7.2-2.5,8.5-1.1,2.3-2.6,3.5-4.9,4.4-7.9,2.9-11.1-2-12.4-9.1-.4-2.3.8-5.5-3.1-3.9-8.9,3.7-6.6,11.7-2.4,18.2,4.6,7.2,11.1,9.8,19.5,6.9,7.7-2.6,15.7-15.5,16.4-23.4.4-5-.5-12.5-7.3-11.1h0Z"/>
        <path class="st6" d="M297.7,151.9c-4.7-.5-.3,2.2-.1,4.1.2,2.7-6,3.7-8,4.2-9.5,2.3-18.5,2.6-27.7,6.6-4.7,2.1-10.1,6.2-14.7,7.8-4,1.4-7.9.2-7.6-4.6.7-8.7,7.2-13.1,11-19.5.5-.8.5-1.1,0-1.9,1.8-.7,4.5-2.4,6.8-3.4-.4,1.9,3.5,0,4.5,0h11.9c.3,0,.9.6,1.6.4.4-.1.2-.9.3-.9,3.2-2.1,18.4,5.5,22,7.2h0Z"/>
        <path class="st6" d="M177.4,156.5c2.8,2.6,7.3,12.1,8.5,15.7-3-.6-1.9,2.9-2.2,4.8-.5,2.6-2.3,5.7-5.4,4.8-7.6-9.4-17.7-16.1-28.4-21.6-2.3-1.2-9-3.5-10.4-4.8-.8-.8-1.6-2.9-1-3.8.4-.5,5-.8,3.5-2.6-.6,0-1.3,0-1.9,0l6.7-2c.6-.1,1.2-.1,1.8-.1,6,.2,10.6-.9,16.7,1.3,3.5,1.3,9.4,5.9,12.1,8.5h0Z"/>
        <path class="st6" d="M250.7,148.5c.6.8.5,1.1,0,1.9-3.8,6.4-10.4,10.8-11,19.5-.4,4.8,3.6,6,7.6,4.6,4.5-1.6,10-5.7,14.7-7.8,9.2-4.1,18.2-4.3,27.7-6.6,2-.5,8.2-1.5,8-4.2-.2-1.9-4.6-4.6.1-4.1,1,.5,1.5.3,2.7,1.3,4.1,3.2,2.1,8.1-2.3,9.1-14.1,3.4-27.9,2.8-40.6,11-3.4,2.2-11.1,8.1-13.4,11.2-2.7,3.8-3.1,9-4.9,12.8-.6,1.1-2.8,4-2.7,1.1.2-4.9,1.2-9.6,2.9-14.1.6-1.6,3.2-4.5.9-5.3-2.5-.9-2.7.6-4-2.8-2.8-7.5.6-14.4,5.2-20.4,3.1-4.1,4.6-5.6,9.3-7.4h0Z"/>
        <path class="st6" d="M140.1,148.9c.6,0,1.2,0,1.9,0,1.5,1.8-3.1,2.1-3.5,2.6-.6.9.2,3,1,3.8,1.4,1.4,8.1,3.7,10.4,4.8,10.6,5.5,20.8,12.2,28.4,21.6,3.1,1,4.9-2.2,5.4-4.8.4-1.9-.8-5.4,2.2-4.8,2.5,7.4-1.1,10.1-.9,15.5.1,3.3,2.1,7.3,2.2,11,0,.8,0,1.9-1.1,1.9-6.4-11.9-15.3-23.9-26.9-31.1-3.7-2.3-7.8-3.9-11.4-6.4l-13.6-5.5c-3-3,2.8-8.3,5.9-8.7h0Z"/>
        <path class="st6" d="M245.2,226c0-2.7,3-10.6,4.3-13.3.2-.5,3.3-5.3,3.3-3v8.1c0,3.9,4.3,13,7.2,15.7l4.7,3.2h-6.6c-3.5,0-6.4-3.8-8.9-5-.9-.4-1.9-.3-2.3-.5-1.2-.5-1.7-3.8-1.7-5.1h0Z"/>
        <path class="st6" d="M220.2,118c-.1.4.1,1.2-.1,1.8-2.4,6-10.9,7.5-16.6,6.7-1.1-.1-5.4-3.9-6.6-4.9-1.4-1.3-4-3.3-4.2-5.3,4.3,1.4,6.5,3.2,10.1,4.6,7,2.6,11.1-1.3,17.5-2.9h0Z"/>
        <path class="st6" d="M177.4,156.5c-2.7-2.6-8.5-7.2-12.1-8.5-6.1-2.2-10.7-1.1-16.7-1.3,9.7-7.7,26-2.4,28.8,9.7h0Z"/>
        <path class="st6" d="M275.7,144.7s.2.8-.3.9c-.8.2-1.4-.4-1.6-.4h-11.9c-1,0-4.8,1.9-4.5,0,.1,0,.5-.8,1.2-1.1,2.8-1.1,13.1-1.8,15.6-.7.6.2,1.1.8,1.4,1.4h0Z"/>
        <path class="st6" d="M323.5,493.2c.7.6-2.6,2.9-3,3.1-3.9,2.5-10.4,4.5-15,4.1-1.8-.2-3.7-.8-2.5-3,.9-1.8,4.1-.7,5.5-.8,5.3-.6,9.9-3.1,15-3.4h0Z"/>
        <path class="st6" d="M57.6,375.1c-.4,2.8-8.1,2.1-9.9,1.2-1.2-.6-2.3-2.7-1.1-3.6,1.6-1.1,8.7,2.7,11,2.4h0Z"/>
        <path class="st6" d="M191.4,274.7c.8,3.4-4.1,4.8-4.2,1.4,0-2.3,2.6-1.3,4.2-1.4Z"/>
        <path class="st6" d="M240.3,273.1c1.3.2.6,4.8-1.9,3.5-2-1-.7-4,1.9-3.5Z"/>
        <path class="st6" d="M118,468.4c6.2-1.4,6.3,6.3,3.9,7.7-5.6,3.2-8.6-6.7-3.9-7.7Z"/>
        <path class="st6" d="M99.6,419c-.2-.1-.9-2.2-.9-2.7-.2-3.4,3.7-6.4,6.6-4,1.7,1.4,1,4.8-.4,5.9-.7.6-4.6,1.2-5.2.8h0Z"/>
        <path class="st6" d="M290,200.3c6.8-1.4,7.7,6.1,7.3,11.1-.7,7.9-8.7,20.8-16.4,23.4-8.4,2.8-14.9.2-19.5-6.9-4.3-6.6-6.6-14.5,2.4-18.2,3.9-1.6,2.7,1.6,3.1,3.9,1.3,7.1,4.4,12,12.4,9.1,2.4-.9,3.9-2.1,4.9-4.4.6-1.4,2.4-7.2,2.5-8.5.2-3.1-1.7-8.3,3.4-9.3h0Z"/>
        <path class="st6" d="M289.2,235.3l6.1-8.5c5.9-11.1,9.2-22.1,3.7-34.2-.6-1.3-3.4-4-1.3-5,3.6-1.8,8.6,7.5,9.6,10.3,3.7,10,1.1,19.3-4.6,27.8-1.5,2.2-7,8.5-9.3,9.4-1.3.5-2.9.1-4.2.2h0Z"/>
        <path class="st6" d="M275.6,188.8c1-.1,1.5,0,2.4.4,7.7,4.1-1,15.7-8.4,14.8-2.9-.4-6.8-4.3-5.5-7.2,1-2.1,9.2-7.6,11.5-8h0Z"/>
      </g>
      <path class="st5" d="M369.4,179.3c26-12.1,45.2-37.4,34.6-67.1-7.4-20.8-22.9-18.8-37.5-30.7-12.6-10.2-26-27.9-28.1-44.3-.9-6.7-.4-14,0-20.7.1-2.6,1.7-4.7-.4-7.2-5-5.8-12.9.4-16.3,4.9-8.5,11.5-11,23.7-10.4,37.9.8,19.9,8.2,30.7,19.9,45.7,4.3,5.5,21.3,18.1,10.7,25.1-9.4,6.2-21.5-8-27.9-13.5-17.8-15.1-36.6-24.8-59.2-31-2.1-3.8-3.5-8-6.1-11.7-2.2-3.1-9.2-11-13.2-7.5-1.1.9-1.1,3.2-2.5,2.2-.3-.2-1-3.3-1.1-3.9-.7-4.2-.3-12.7,1.4-16.6.7-1.6,6.9-7.1,2.5-7.2-6.5-.2-13.7,3-19,6.5-10,6.6-21.3,16.6-24,28.7-1.6.2-2.2-1.5-3.4-2.3-3.7-2.6-15.3-6.8-19.8-7.3-1.9-.2-4-.5-3.8,2.1.1,2.7,2.8,7.5,3.5,10.5.9,3.4,1,7,1.9,10.3.6,2.2,3.1,6.6,2.3,8.3-.4.8-2.8,1.5-3.7,2.2-7.5,5.3-15.9,12.2-22.7,18.3-2.1,1.9-6.9,8-9.5,7.8-1.8-.1-5.2-2-5.3-4-.4-6.3,12.9-15.9,16.9-20.7,11.2-13.4,11.6-33.9,7.4-50.2-2.1-8-7-23.7-13.6-28.8-3.9-3.1-13.8-6.2-13.8,1.5s2.1,9.5,2.6,13.6c3,27.6-10.8,43-30.1,59.7-7.9,6.9-14.5,8.7-19,19.5-1.5,3.6-1.7,7.5-3.7,10.7-5.4-5-7.2-14.9-16.4-13.4-5.5.9-7,6.4-8.3,11.2-4.7,16-8,33.2-12.4,49.4-4.7,17.4-10.5,34.5-15,51.9-2.4,9.2-2.3,13.7-1.4,23.2,2.4,24.7,6.6,49.3,8.9,74.1-.2,4.6-6.8,9.5-9.7,13.2-11.6,14.5-8.3,31.8-1.6,47.8,3.6,8.7,8.3,14,16.6,18.6,1.5.9,8.6,3.6,8.9,4.3,1,4.3,1,8.8,1.7,13.1,2.6,15.6,5.6,31.2,8.2,46.9,1.1,6.7,3.3,15.9,3.5,22.4,0,1.5-1.5,3.5-1.7,5.8-.4,5.9,2,17.7,4.3,23.2.8,2,2.4,3.6,3.1,5.4,1.8,5.2,1.9,10.3,4.6,15.7,14.9,29.8,75.7,28.2,90.1-.6,1.6-3.1,2.3-6.6,3.7-9.8,11.3-2.4,24.7-3.8,33.7-11.6,5.2-4.5,6.7-8.4,5.7-15.4-.2-1.8-1.9-3.1-1.6-4.6.3-1.2,4.9-6.1,6-7.6,1.2-1.5,2-3.3,3.2-4.8,4.3.1,8.6.5,12.9.2,6.4-.4,14.6-3,20.3-2.9,5.6,0,7.9,4.5,11.6,7.8,2.9,2.6,5.8,5.3,8.9,7.6,3.7,2.7,11.6,6.5,14.1,9.1,1.7,1.8.7,3.2,1.1,5.2,2.9,16.6,27.1,29.7,42.8,27.2,1.3-.2,3.2-1.2,4.3-1.1,1.3,0,4.5,1.8,6.9,2.1,3.8.4,14.4-1,17.5-3.2.8-.5,1.7-2,2.4-2.2,1.4-.4,3.8,0,5.4,0,6.6-.6,12.8-5.6,13.3-12.5,1.2-17.1-21.8-23.7-17.4-40.7.4-1.4,2.9-7.6,3.6-8.7,1.5-2.3,4.6-1.6,4.6-6.4,0-1.8-1.4-5.1-1.3-6.4,0-.6,2.6-3.5,3.1-5.4,1.2-4.9-1.2-5.6-2.9-9.2-6.4-13.7-11.4-29.8-17.5-43.9-.7-1.6-3.8-6.6-3.9-7.6,0-.7,0-1.1.3-1.8.7-1.7,4.8-6.4,6.2-8.6,5.4-8.5,9.7-18,10.8-28.1.1-1-.2-2.5,0-3.3.1-.5,1.2-.4,1.9-1.2,1.1-1.5,1.8-5.1,1.5-6.9-.5-3-4.6-5-5-6.5-.4-1.5,3.1-3.7,1.8-6.5-.2-.5-3.4-3.5-4-4-1.8-1.4-5.1-2.7-6.6-4.2-1.4-1.4-3.1-4.5-4.6-6.2-1.1-1.3-7.4-6.8-7.4-7.4-.1-1.1,2.5-4,2.5-6.3s-2.1-4.8-2-5c0-.4,3.5-2.1,3.8-4.7.2-1.9-1.5-3.1-1.7-4.8,3.9.5,9.8-1.8,10.8-5.9.4-1.6.2-3.8.7-5.5,3.6-.7,7.3-1.2,10.9-2,3.3-.7,13.7-3,15.7-5.1,4.5-4.5-1.7-15.3-2.5-20.7,1.9-2.8,4.2-5.1,6.2-7.8,2.4-3.3,8.1-12,7.2-15.9-.7-3-11.2-9.4-14.2-10.8-2.6-1.3-10.7-3.9-12-5.8-.9-1.4-1.1-4.9-1.3-6.8-.3-4-.3-8.6-.4-12.6.2-.5,6.5-2.7,7.7-3.3h0Z"/>
      <g>
        <circle class="st5" cx="444.9" cy="537.7" r="29.2"/>
        <circle class="st5" cx="567.5" cy="419.4" r="29.2"/>
        <circle class="st5" cx="318.9" cy="419.3" r="29.2"/>
        <circle class="st5" cx="444.7" cy="290.4" r="29.2"/>
        <rect class="st4" x="354.5" y="325" width="179" height="179"/>
        <line class="st1" x1="444.8" y1="320.1" x2="444.7" y2="510.1"/>
        <line class="st1" x1="349.4" y1="419.3" x2="539.4" y2="419.3"/>
        <polygon class="st3" points="498.5 419.3 444.8 473 391.1 419.3 444.8 326.5 498.5 419.3"/>
        <path class="st2" d="M567.5,389.1c-16.7,0-30.2,13.5-30.2,30.2s13.5,30.2,30.2,30.2,30.2-13.5,30.2-30.2-13.5-30.2-30.2-30.2ZM561,431c0,.9-.7,1.5-1.5,1.5h-1c-2.9,0-5.3-2.4-5.3-5.3v-3.2c0-2.9,2.3-5.3,5.3-5.3h1c.9,0,1.5.7,1.5,1.5v10.6h0ZM581.9,427.3c0,2.9-2.3,5.3-5.3,5.3h-1c-.9,0-1.5-.7-1.5-1.5v-10.6c0-.9.7-1.5,1.5-1.5h1c2.9,0,5.3,2.4,5.3,5.3v3.2h0ZM585.1,425.7c0,.4-.3.8-.8.8s-.8-.4-.8-.8v-4.3c0-10.5-6.9-18.4-16-18.4s-16,7.9-16,18.4v4.3c0,.4-.3.8-.8.8s-.8-.4-.8-.8v-4.3c0-11.4,7.5-20,17.6-20s17.6,8.6,17.6,20v4.3h0Z"/>
        <g>
          <circle class="st2" cx="320.2" cy="420.9" r="1.8"/>
          <circle class="st2" cx="306" cy="420.9" r="1.8"/>
          <circle class="st2" cx="313.1" cy="420.9" r="1.8"/>
          <path class="st2" d="M318.9,389.1c-16.7,0-30.2,13.5-30.2,30.2s13.5,30.2,30.2,30.2,30.2-13.5,30.2-30.2-13.5-30.2-30.2-30.2ZM317.8,430.8h-3.1c-1.4,4.1-6.2,5-8.3,5.3h-.1c-.5,0-.9-.2-1.1-.6-.3-.4-.3-.9-.1-1.3l1.2-3.6c-4.6-1-7.9-5.1-7.9-9.9s4.5-10.1,10.1-10.1h9.5c5.6,0,10.1,4.5,10.1,10.1s-4.5,10.1-10.1,10.1h0ZM331.7,423.2l1.2,3.6c.2.4.2.9-.1,1.3-.2.4-.7.6-1.1.6h-.1c-.9-.1-2.3-.3-3.7-.8-.4-.1-.6-.6-.4-.9.1-.4.6-.6.9-.4,1.1.4,2.3.6,3.1.7l-1.3-4.1c-.2-.2-.2-.5-.2-.7,0-.3.3-.5.6-.5,4.3-.5,7.6-4.2,7.6-8.6s-3.9-8.7-8.7-8.7h-9.5c-3,0-5.7,1.5-7.3,4-.2.3-.7.4-1,.2-.3-.2-.4-.7-.2-1,1.9-3,5.1-4.7,8.5-4.7h9.5c5.6,0,10.1,4.5,10.1,10.1s-3.3,8.8-7.9,9.9h0Z"/>
        </g>
        <path class="st2" d="M444.9,507.5c-16.7,0-30.2,13.5-30.2,30.2s13.5,30.2,30.2,30.2,30.2-13.5,30.2-30.2-13.5-30.2-30.2-30.2ZM445.8,530.2c0-.4.2-.7.5-.9l12.1-6c.6-.3,1.4.2,1.4.9v18.6c0,.4-.2.7-.5.9l-12.1,6c-.6.3-1.4-.2-1.4-.9v-18.6ZM430,524.2c0-.7.8-1.2,1.4-.9l12.1,6c.3.2.5.5.5.9v18.6c0,.7-.8,1.2-1.4.9l-12.1-6c-.3-.2-.5-.5-.5-.9v-18.6ZM464,545.8c0,.4-.2.8-.6,1l-18,8.6c-.1,0-.3.1-.5.1s-.3,0-.5-.1l-18-8.6c-.4-.2-.6-.6-.6-1v-19.2c0-.6.5-1.1,1.1-1.1s1.1.5,1.1,1.1v18.5l16.8,8.1,16.8-8.1v-18.5c0-.6.5-1.1,1.1-1.1s1.1.5,1.1,1.1v19.2h0Z"/>
        <path class="st2" d="M444.7,260.2c-16.7,0-30.2,13.5-30.2,30.2s13.5,30.2,30.2,30.2,30.2-13.5,30.2-30.2-13.5-30.2-30.2-30.2ZM448.1,278.2l2.1,2.1-15.4,15.4-2.1-2.1,15.4-15.4ZM451.5,281.5l2.1,2.1-15.4,15.4-2.1-2.1,15.4-15.4ZM428.9,306.1l2.5-11.1,8.6,8.6-11.1,2.5ZM441.4,302.4l-2.1-2.1,15.4-15.4,2.1,2.1-15.4,15.4ZM459.5,284.2l-1.4,1.4-8.6-8.6,1.4-1.4c1.3-1.3,3.5-1.3,4.8,0l3.8,3.8c1.3,1.3,1.3,3.5,0,4.8Z"/>
      </g>
      <path d="M159.5,338.1c0-6,.8-11.4,2.2-16.4,1.5-4.9,4.2-9.6,8.1-13.9,3.9-4.4,9.4-8.8,16.4-13.2,6.6-4.2,11.5-7.9,14.7-10.9,3.2-3.1,5.2-5.9,6.1-8.6s1.4-5.2,1.4-7.8c0-4-1.9-7.2-5.5-9.6-3.7-2.4-8.6-3.6-14.6-3.6s-15.4,1.3-24,3.9c-8.6,2.6-17.8,6.5-27.6,11.7l-20.4-39.9c11-6.4,22.8-11.4,35.4-15.1s26.2-5.6,40.8-5.6c22.2,0,39.4,4.9,51.6,14.7,12.2,9.8,18.3,22.7,18.3,38.7s-1.1,14.6-3.5,21c-2.3,6.4-6,12.4-11.1,17.9s-11.9,10.9-20.2,16.4c-5.8,3.8-10.4,7-13.8,9.6s-5.8,5.1-7.2,7.5c-1.4,2.4-2.1,5.2-2.1,8.4v7.5h-45v-12.6h0ZM153.2,402c0-10.4,3-17.7,9-21.9,6-4.2,13.3-6.3,21.9-6.3s15.3,2.1,21.3,6.3c6,4.2,9,11.5,9,21.9s-3,16.9-9,21.3-13.1,6.6-21.3,6.6-15.9-2.2-21.9-6.6-9-11.5-9-21.3h0Z"/>
    </g>
  </g>
</svg>