<?xml version="1.0" encoding="UTF-8"?>
<svg id="Layer_1" data-name="Layer 1" xmlns="http://www.w3.org/2000/svg" viewBox="0 0 120 120">
  <defs>
    <style>
      .cls-1 {
        fill: #f89f33;
      }

      .cls-2 {
        fill: #fff;
      }
    </style>
  </defs>
  <circle class="cls-1" cx="60" cy="60" r="60"/>
  <path class="cls-2" d="M81.87,73.87h-7.81v12.85h-10.42v-12.85h-26.71v-7.9l26.96-39.4h10.16v38.64h7.81v8.65ZM63.65,51.78c0-1.18.01-2.39.04-3.65.03-1.26.07-2.51.13-3.74.06-1.23.11-2.35.17-3.36.06-1.01.11-1.79.17-2.35h-.34c-.5,1.06-1.05,2.17-1.64,3.32-.59,1.15-1.25,2.23-1.97,3.23l-13.61,19.99h17.05v-13.44Z"/>
</svg>