<?xml version="1.0" encoding="UTF-8"?>
<svg id="Layer_1" data-name="Layer 1" xmlns="http://www.w3.org/2000/svg" viewBox="0 0 120 120">
  <defs>
    <style>
      .cls-1 {
        fill: #f89f33;
      }

      .cls-2 {
        fill: #fff;
      }
    </style>
  </defs>
  <circle class="cls-1" cx="60" cy="60" r="60"/>
  <path class="cls-2" d="M77.67,40.44c0,2.69-.55,5.04-1.64,7.06-1.09,2.02-2.59,3.65-4.49,4.91-1.9,1.26-4.12,2.17-6.64,2.73v.25c4.82.56,8.46,2.04,10.92,4.45,2.46,2.41,3.7,5.6,3.7,9.58,0,3.47-.84,6.58-2.52,9.32-1.68,2.74-4.27,4.9-7.77,6.47-3.5,1.57-7.99,2.35-13.48,2.35-3.25,0-6.27-.27-9.07-.8-2.8-.53-5.43-1.36-7.9-2.48v-9.32c2.52,1.29,5.21,2.27,8.06,2.94,2.86.67,5.54,1.01,8.06,1.01,4.87,0,8.32-.88,10.33-2.65,2.02-1.76,3.02-4.21,3.02-7.35,0-2.02-.5-3.67-1.51-4.96-1.01-1.29-2.65-2.25-4.91-2.9-2.27-.64-5.22-.97-8.86-.97h-5.04v-8.48h5.12c3.53,0,6.31-.39,8.36-1.18,2.04-.78,3.5-1.88,4.37-3.28.87-1.4,1.3-3.02,1.3-4.87,0-2.41-.78-4.28-2.35-5.63-1.57-1.34-3.92-2.02-7.06-2.02-2.02,0-3.84.22-5.46.67-1.62.45-3.11,1.02-4.45,1.72-1.34.7-2.6,1.44-3.78,2.23l-5.04-7.31c2.24-1.68,4.94-3.11,8.11-4.28,3.16-1.18,6.87-1.76,11.13-1.76,6.22,0,11.02,1.3,14.41,3.91,3.39,2.6,5.08,6.15,5.08,10.63Z"/>
</svg>