<?xml version="1.0" encoding="UTF-8"?>
<svg id="Layer_1" data-name="Layer 1" xmlns="http://www.w3.org/2000/svg" viewBox="0 0 120 120">
  <defs>
    <style>
      .cls-1 {
        fill: #f89f33;
      }

      .cls-2 {
        fill: #fff;
      }
    </style>
  </defs>
  <circle class="cls-1" cx="60" cy="60" r="60"/>
  <path class="cls-2" d="M80.03,86.72h-41.08v-7.81l15.29-15.46c3.02-3.08,5.5-5.73,7.43-7.94,1.93-2.21,3.36-4.27,4.28-6.17.92-1.9,1.39-3.98,1.39-6.22,0-2.74-.78-4.8-2.35-6.17-1.57-1.37-3.64-2.06-6.22-2.06s-4.87.52-7.06,1.55c-2.18,1.04-4.45,2.51-6.8,4.41l-5.8-6.97c1.68-1.46,3.47-2.79,5.38-3.99,1.9-1.2,4.06-2.17,6.47-2.9,2.41-.73,5.21-1.09,8.4-1.09,3.86,0,7.18.69,9.95,2.06,2.77,1.37,4.91,3.26,6.43,5.67,1.51,2.41,2.27,5.21,2.27,8.4s-.64,6.24-1.93,8.99c-1.29,2.74-3.15,5.45-5.59,8.11-2.44,2.66-5.33,5.59-8.69,8.78l-9.49,9.16v.5h27.72v9.16Z"/>
</svg>