<?xml version="1.0" encoding="UTF-8"?>
<svg id="Layer_1" data-name="Layer 1" xmlns="http://www.w3.org/2000/svg" xmlns:xlink="http://www.w3.org/1999/xlink" viewBox="0 0 614 326">
  <defs>
    <style>
      .cls-1, .cls-2 {
        fill: none;
      }

      .cls-3 {
        stroke: #231f20;
        stroke-width: 5px;
      }

      .cls-3, .cls-2, .cls-4, .cls-5 {
        stroke-miterlimit: 10;
      }

      .cls-3, .cls-6, .cls-4 {
        fill: #fff;
      }

      .cls-2, .cls-4 {
        stroke: #000;
      }

      .cls-2, .cls-4, .cls-5 {
        stroke-width: 1.02px;
      }

      .cls-7, .cls-5 {
        fill: #98d4e2;
      }

      .cls-5 {
        stroke: #1991bf;
      }

      .cls-8 {
        clip-path: url(#clippath);
      }
    </style>
    <clipPath id="clippath">
      <rect class="cls-1" width="614" height="326"/>
    </clipPath>
  </defs>
  <g class="cls-8">
    <g>
      <g>
        <path class="cls-3" d="M599.52,175.86c-3.98-2.28-8.27-.76-12.12,1.09-.26.09-.42-.05-.31-.31.14-.32,1.97-2.2,2.42-2.88.7-1.08,1.35-2.33,1.72-3.58.3-1.04.38-2.92.77-3.68.28-.55,3.24-3,3.99-3.85,8.88-9.97,14.87-30,14.21-43.22-.33-6.58-5.69-21.55-9.16-27.28-3.41-5.63-10.55-12.8-16.7-15.29-1.29-.52-7.23-2.26-7.74-3.29-.15-.3,1.47-3.86,1.71-4.66,2.53-8.63.81-18.38-4.59-25.49-1.61-2.12-2.89-4.17-5.91-3.65-3.27.56-3.44,3.51-4.47,5.91-1.73,4.06-6.86,11.78-10.25,14.54-2.2,1.79-2.22.56-4.66.63-2.52.07-2.9.77-5.66-.25-7.73-2.86-14.13-6.97-22.72-7.78-.71-.07-2.65.17-3.08-.1-.6-.38.83-1.37,1.11-1.87,1.71-3.03-1.04-7.11-4.39-7.16-.72-.01-1.53.32-2.11.23-1.36-.2-.44-2.02-.36-2.89.53-5.79-4.63-7.73-9.44-5.84-3.02,1.19-6.6,5.4-8.5,8.02-.46.64-2.67,4.43-2.93,4.5-.39.12-2.99-1.99-3.75-2.35-3.16-1.52-6.68-2.18-8.52,1.51-1.35,2.7-.34,4.69.75,7.21-6.94-.42-13.74,1.47-20.38,3.24-2.67.71-8.68,3.12-11.03,2.65-.93-.19-1.7-1.2-2.81-1.23-1.29-.04-2.3.96-2.99,1.02-.32.03-4.26-2.78-4.74-3.23-3.92-3.73-6.06-10.13-8.64-14.66-1.43-2.52-4.53-4.06-6.93-1.77-7.25,6.91-7.57,23.63-4.55,32.53.33.97,1.34,2.12,1.03,3.13-.27.87-3.56,1.48-4.52,1.84-9.89,3.7-16.79,12.01-21.75,21.05-9.69,17.65-8.56,37.4.56,55.02,3.26,6.29,7.65,10.46,12.91,15.05-.05,1.87,1.94,4.71,2.01,6.25.02.54-.31,1.93-.94,2-.4.04-3.99-1.3-5.11-1.46-10.07-1.43-10.85,9.83-6.31,16.05.37.51,1.47,1.2,1.37,1.8-3.64,2.98-6.9,9.73-2.35,13.36,2.19,1.75,7.33,2.23,10.06,2.01,1.14-.09,3.57-.98,4.4-.81.52.11,3.72,2.4,4.74,2.9,2.32,1.13,6.25,1.93,8.13,3.21,1.1.76,1.29,2.42,2.33,3.49.65.67,2.1,1.15,2.33,2.01.06.23.23,1.74.23,2.01,0,3.84-.55,5.96.34,10.02,1.66,7.56,6.31,10.75,9.39,17.09,2.83,5.83-2.03,8.39-4.21,13.17-1.96,4.28-2.93,12.95,2.46,15.07,1.09.43,2.67.43,3.43.8.5.24,1.85,2.56,2.67,3.27,2.12,1.86,4.37,2.31,7.09,1.6,1-.26,3.09-1.55,3.72-1.59.63-.04,2.67,1.26,3.85,1.43,2.67.37,4.12-.3,6.26-1.68,3.52-2.28,10.6-6.89,12.37-10.51.32-.66,2.18-5.48,2.18-5.87v-3.07c13.35,4.52,26.85,5.07,40.41,1.12.68-.2,4.73-1.73,4.92-1.54-.2,3.94,2.62,7.67,4.83,10.75,3.61,5.04,9.42,11.89,16.37,10.35.65-.14,1.75-.74,2.22-.73.39,0,1.76.96,2.38,1.2,3.12,1.21,6.41.86,9.05-1.23.83-.65,1.5-1.85,2.33-2.33,3.15-1.85,6.74-1.46,8.15-5.83,1.41-4.37-.07-9.88-2.36-13.72-1.21-2.04-3.83-4.35-3.78-6.81.05-2.16,3.1-5.01,4.42-6.83,3.1-4.25,7.21-11.21,7.66-16.49.35-4.02-.57-7.45-1.27-11.33,1.11.11,2.25-.33,3.07-1.06.35-.31.53-.95.96-1.16.63-.31,2.05-.45,2.86-.74,4.33-1.57,5.58-3.24,8.8-6.03,1.46-1.26,3.75-.6,5.57-.79,6.12-.61,11.75-4.83,8.79-11.49-.35-.79-1.68-2.42-1.69-3,0-.66.54-.82.83-1.31,1.86-3.01,2.41-6.83,2.59-10.34.16-3.29-.13-4.42-3.04-6.08Z"/>
        <path class="cls-3" d="M433.84,255.36c.33-.41.79-.49,1.19-1.14,1.14-1.86.29-4.16-.8-5.85-.85-1.33-2.52-2.36-3.59-3.62-3.64-4.28-7.34-13.33-6.88-18.96.07-.85.92-3.59.81-3.98-.08-.28-3.29-3.98-3.78-4.5-1.42-1.52-2.53-2.55-4.24-3.7-.11-.07-.23-.41-.56-.6-2.07-1.18-2.87-.94-3.4,1.41-1.39,6.1-.86,14.36-.9,20.71-.02,2.65-.38,5.36-.23,8.05.22,4,1.52,7.87,1.91,11.86.22,2.19-.12,5.73.31,7.53.12.52.43.96.89,1.23,1.82,1.04,7.85.22,10.14.03.81-.07,1.75.11,2.53-.01,1.29-.21,2.12-2.57,2.87-3.59,1.14-1.55,2.5-3.32,3.73-4.85Z"/>
        <path class="cls-3" d="M581.84,216c-.86-1.78-3.01-.69-4.28-.06-.6.3-1.15.55-1.68.97-4.6,3.65-1.82,7.07-2.14,11.84-.34,5.13-4.87,13.52-7.96,17.67-1.04,1.4-3.38,3.4-3.64,5.05-.25,1.53,1.06,3.53,1.82,4.86.52.91,2.49,4.27,3.43,4.31.39,3.04,2.44,3.2,4.99,3.19,1.33,0,2.98.07,4.24,0,2.44-.15,4.12-1.25,4.49-3.77.44-3,.56-7.01.7-10.1.33-7.22.02-14.42,0-21.62,0-2.78,1.01-10.32.04-12.33Z"/>
      </g>
      <path d="M470.44,189.43c0-6,.75-11.45,2.25-16.35,1.5-4.9,4.2-9.55,8.1-13.95,3.9-4.4,9.35-8.8,16.35-13.2,6.6-4.2,11.5-7.85,14.7-10.95,3.2-3.1,5.25-5.95,6.15-8.55.9-2.6,1.35-5.2,1.35-7.8,0-4-1.85-7.2-5.55-9.6-3.7-2.4-8.55-3.6-14.55-3.6-7.4,0-15.4,1.3-24,3.9-8.6,2.6-17.8,6.5-27.6,11.7l-20.4-39.9c11-6.4,22.8-11.45,35.4-15.15,12.6-3.7,26.2-5.55,40.8-5.55,22.2,0,39.4,4.9,51.6,14.7,12.2,9.8,18.3,22.7,18.3,38.7,0,7.6-1.15,14.6-3.45,21-2.3,6.4-6,12.35-11.1,17.85-5.1,5.5-11.85,10.95-20.25,16.35-5.8,3.8-10.4,7-13.8,9.6-3.4,2.6-5.8,5.1-7.2,7.5-1.4,2.4-2.1,5.2-2.1,8.4v7.5h-45v-12.6ZM464.14,253.33c0-10.4,3-17.7,9-21.9s13.3-6.3,21.9-6.3,15.3,2.1,21.3,6.3,9,11.5,9,21.9c0,9.8-3,16.9-9,21.3-6,4.4-13.1,6.6-21.3,6.6-8.6,0-15.9-2.2-21.9-6.6-6-4.4-9-11.5-9-21.3Z"/>
      <rect class="cls-4" x="66.96" y="80.18" width="178.06" height="182.97"/>
      <line class="cls-2" x1="156.81" y1="75.2" x2="156.74" y2="269.41"/>
      <line class="cls-2" x1="61.95" y1="176.52" x2="250.95" y2="176.6"/>
      <polygon class="cls-5" points="210.19 176.52 156.74 261.73 103.36 176.52 156.78 121.63 210.19 176.52"/>
      <g>
        <circle class="cls-6" cx="278.37" cy="176.75" r="29.18"/>
        <path class="cls-7" d="M278.37,146.41c-16.67,0-30.19,13.52-30.19,30.19s13.52,30.19,30.19,30.19,30.19-13.52,30.19-30.19-13.52-30.19-30.19-30.19ZM271.82,188.37c0,.86-.7,1.55-1.55,1.55h-1.03c-2.9,0-5.26-2.35-5.26-5.26v-3.23c0-2.9,2.35-5.26,5.26-5.26h1.03c.86,0,1.55.7,1.55,1.55v10.63ZM292.76,184.67c0,2.9-2.35,5.26-5.26,5.26h-1.03c-.86,0-1.55-.7-1.55-1.55v-10.63c0-.86.7-1.55,1.55-1.55h1.03c2.9,0,5.26,2.35,5.26,5.26v3.23ZM295.93,183.05c0,.43-.35.78-.78.78s-.78-.35-.78-.78v-4.3c0-10.49-6.88-18.41-16.01-18.41s-16.01,7.91-16.01,18.41v4.3c0,.43-.35.78-.78.78s-.78-.35-.78-.78v-4.3c0-11.38,7.55-19.96,17.56-19.96s17.56,8.58,17.56,19.96v4.3Z"/>
      </g>
      <g>
        <circle class="cls-6" cx="33.82" cy="176.52" r="29.18"/>
        <g>
          <circle class="cls-7" cx="35.11" cy="178.2" r="1.75"/>
          <circle class="cls-7" cx="20.87" cy="178.2" r="1.75"/>
          <circle class="cls-7" cx="27.99" cy="178.2" r="1.75"/>
          <path class="cls-7" d="M33.82,146.33c-16.67,0-30.19,13.52-30.19,30.19s13.52,30.19,30.19,30.19,30.19-13.52,30.19-30.19-13.52-30.19-30.19-30.19ZM32.72,188.01h-3.13c-1.35,4.09-6.24,5.05-8.34,5.27-.05,0-.1,0-.14,0-.45,0-.86-.22-1.12-.59-.27-.39-.31-.89-.11-1.32l1.16-3.61c-4.56-1.02-7.9-5.11-7.9-9.86,0-5.58,4.54-10.12,10.12-10.12h9.46c5.58,0,10.12,4.54,10.12,10.12s-4.54,10.12-10.12,10.12ZM46.59,180.44l1.16,3.61c.2.43.16.93-.11,1.32-.25.37-.67.59-1.12.59-.05,0-.09,0-.14,0-.91-.1-2.29-.32-3.67-.84-.38-.14-.57-.56-.42-.94.14-.38.57-.57.94-.42,1.15.44,2.32.64,3.13.74l-1.32-4.11c-.18-.18-.25-.45-.18-.7.08-.28.32-.49.61-.53,4.31-.55,7.56-4.24,7.56-8.58,0-4.78-3.89-8.66-8.66-8.66h-9.46c-2.98,0-5.72,1.51-7.32,4.03-.22.34-.67.44-1,.23-.34-.22-.44-.67-.23-1,1.87-2.95,5.06-4.71,8.55-4.71h9.46c5.58,0,10.12,4.54,10.12,10.12,0,4.76-3.33,8.84-7.9,9.86Z"/>
        </g>
      </g>
      <g>
        <circle class="cls-6" cx="156.81" cy="295.97" r="29.18"/>
        <path class="cls-7" d="M156.81,265.78c-16.67,0-30.19,13.52-30.19,30.19s13.52,30.19,30.19,30.19,30.19-13.52,30.19-30.19-13.52-30.19-30.19-30.19ZM157.68,288.48c0-.37.21-.71.55-.88l12.12-5.98c.65-.32,1.42.15,1.42.88v18.56c0,.37-.21.71-.55.88l-12.12,5.98c-.65.32-1.42-.15-1.42-.88v-18.56ZM141.87,282.5c0-.73.76-1.2,1.42-.88l12.12,5.98c.34.17.55.51.55.88v18.56c0,.73-.76,1.2-1.42.88l-12.12-5.98c-.34-.17-.55-.51-.55-.88v-18.56ZM175.87,304.05c0,.43-.24.81-.63,1l-17.95,8.63c-.15.07-.32.11-.48.11s-.33-.04-.48-.11l-17.95-8.63c-.38-.18-.63-.57-.63-1v-19.22c0-.61.5-1.11,1.11-1.11s1.11.5,1.11,1.11v18.53l16.84,8.1,16.84-8.1v-18.53c0-.61.5-1.11,1.11-1.11s1.11.5,1.11,1.11v19.22Z"/>
      </g>
      <g>
        <circle class="cls-6" cx="156.45" cy="47.69" r="29.18"/>
        <path class="cls-7" d="M156.45,17.5c-16.67,0-30.19,13.52-30.19,30.19s13.52,30.19,30.19,30.19,30.19-13.52,30.19-30.19-13.52-30.19-30.19-30.19ZM159.87,35.57l2.11,2.11-15.44,15.44-2.11-2.11,15.44-15.44ZM163.19,38.89l2.1,2.1-15.44,15.44-2.1-2.1,15.44-15.44ZM140.65,63.49l2.46-11.08,8.62,8.62-11.08,2.46ZM153.13,59.71l-2.07-2.07,15.44-15.44,2.07,2.07-15.44,15.44ZM171.25,41.51l-1.36,1.36-8.62-8.62,1.36-1.36c1.32-1.32,3.47-1.32,4.79,0l3.83,3.83c1.32,1.32,1.32,3.47,0,4.79Z"/>
      </g>
    </g>
  </g>
</svg>