<?xml version="1.0" encoding="UTF-8"?>
<svg id="Layer_1" data-name="Layer 1" xmlns="http://www.w3.org/2000/svg" xmlns:xlink="http://www.w3.org/1999/xlink" viewBox="0 0 113.45 113.45">
  <defs>
    <style>
      .cls-1 {
        clip-path: url(#clippath);
      }

      .cls-2 {
        fill: none;
      }

      .cls-2, .cls-3 {
        stroke-width: 0px;
      }

      .cls-3 {
        fill: #fff;
      }
    </style>
    <clipPath id="clippath">
      <rect class="cls-2" width="113.45" height="113.45"/>
    </clipPath>
  </defs>
  <g class="cls-1">
    <g id="Group_152" data-name="Group 152">
      <path id="Path_253" data-name="Path 253" class="cls-3" d="M56.72,0l9.49,95.4c-16.72,3.45-33.76-4.23-42.25-19.03-1.03-1.4-.74-3.37.66-4.4,1.4-1.03,3.37-.74,4.4.66.14.19.25.39.35.6,5.2,9.1,14.39,15.2,24.79,16.47,17.38,2.26,33.51-9.42,36.79-26.64,3.5-18.3-8.36-35.39-25.5-38.73-13.35-2.6-24.75,1.3-33.47,12-3.14,3.94-5.27,8.59-6.18,13.54,1.86-1.39,3.55-2.69,5.28-3.95,1.33-1.09,3.3-.9,4.39.43.1.12.19.25.27.39.82,1.32.51,3.04-.71,3.99-3.77,2.89-7.57,5.73-11.39,8.54-1.38.99-3.3.68-4.3-.7,0-.01-.02-.02-.03-.04-2.81-3.69-5.6-7.41-8.34-11.14-1.03-1.38-.76-3.33.62-4.36,1.38-1.03,3.33-.76,4.36.62,1.21,1.54,2.37,3.13,3.68,4.87.15-.54.25-.92.35-1.3,4.38-15.92,14.68-25.89,30.78-29.19,21.39-4.15,42.1,9.82,46.25,31.21,4.12,21.22-9.61,41.81-30.79,46.17M64.11,53.99c2.6,0,5.21-.03,7.81-.03,1.71-.21,3.26,1.01,3.46,2.71.21,1.71-1.01,3.26-2.71,3.46-.21.03-.43.03-.64.01-3.37.02-6.77.2-10.12-.08-4.36-.57-7.67-4.2-7.85-8.6-.04-1.55,0-3.1,0-4.64h-.03c0-1.58-.02-3.17,0-4.75-.01-1.71,1.36-3.1,3.07-3.11,1.71-.01,3.1,1.36,3.11,3.07.04,2.71.01,5.42.02,8.13s1.16,3.84,3.87,3.83"/>
    </g>
  </g>
</svg>