<?xml version="1.0" encoding="UTF-8"?>
<svg id="Layer_1" data-name="Layer 1" xmlns="http://www.w3.org/2000/svg" xmlns:xlink="http://www.w3.org/1999/xlink" viewBox="0 0 5364.95 708.28">
  <defs>
    <style>
      .cls-1 {
        clip-path: url(#clippath);
      }

      .cls-2 {
        fill: none;
      }

      .cls-2, .cls-3, .cls-4, .cls-5 {
        stroke-width: 0px;
      }

      .cls-3 {
        fill: url(#linear-gradient);
      }

      .cls-4 {
        fill: #00362f;
      }

      .cls-5 {
        fill: #267c59;
      }
    </style>
    <clipPath id="clippath">
      <rect class="cls-2" width="5364.95" height="708.28"/>
    </clipPath>
    <linearGradient id="linear-gradient" x1="-2026.44" y1="766.37" x2="6575.23" y2="766.37" gradientTransform="translate(0 974.34) scale(1 -1)" gradientUnits="userSpaceOnUse">
      <stop offset=".07" stop-color="#cb7e2b"/>
      <stop offset=".09" stop-color="#d38936"/>
      <stop offset=".13" stop-color="#e29f4a"/>
      <stop offset=".19" stop-color="#eeb05a"/>
      <stop offset=".25" stop-color="#f6bc65"/>
      <stop offset=".34" stop-color="#fbc36c"/>
      <stop offset=".6" stop-color="#fdc56e"/>
      <stop offset=".66" stop-color="#fcc670"/>
      <stop offset=".7" stop-color="#fccc7a"/>
      <stop offset=".74" stop-color="#fcd58a"/>
      <stop offset=".78" stop-color="#fce1a1"/>
      <stop offset=".82" stop-color="#fcf2be"/>
      <stop offset=".83" stop-color="#fcf8c8"/>
    </linearGradient>
  </defs>
  <g class="cls-1">
    <rect class="cls-2" x="-1618.36" y="-83.12" width="8601.66" height="708.31"/>
    <g>
      <rect class="cls-5" x="-1618.36" y="74.23" width="8601.66" height="1723.79"/>
      <g>
        <path class="cls-4" d="M6881.32-23.44c-2791.01,195.29-5595.08,195.53-8386.13.77l-113.55-7.92v428.36l113.55,7.92c2791.05,194.77,5595.12,194.52,8386.13-.77l101.99-7.15V-30.59l-101.99,7.15h0Z"/>
        <path class="cls-3" d="M6881.32-75.97c-2791.01,195.29-5595.08,195.53-8386.13.77l-113.55-7.92v428.36l113.55,7.92c2791.05,194.77,5595.12,194.52,8386.13-.77l101.99-7.15V-83.12l-101.99,7.15h0Z"/>
      </g>
    </g>
    <g>
      <path class="cls-4" d="M417.97,182.4c0-12.11.58-19.06,21.04-21.23,3.57-.39,19.64-1.98,23.02-2.56,6.95-1.01,13.9-2.56,21.04-4.15,1.01-.19,5.74-1.21,8.54-1.21,9.12,0,14.86,8.54,14.86,17.27,0,15.05-11.29,17.27-48.78,20.65-7.91.77-9.31,2.8-9.31,5.36v12.5h44.44c8.54,0,16.26,2.56,16.26,15.05s-3.96,17.27-16.84,17.27v83.91c0,8.15-2.56,15.68-14.28,15.68-10.9,0-16.84-2.8-16.84-15.68v-83.91h-12.69v8.73c0,28.76-5.16,58.34-13.7,74.6-5.93,11.48-10.52,14.48-17.85,14.48-10.33,0-17.85-7.33-17.85-15.68,0-3.96,1.4-6.37,3.38-9.7-3.18,1.79-5.36,1.79-6.37,1.79-5.93,0-8.73-4.15-12.11-8.73v18.43c0,5.55-1.01,15.68-13.7,15.68-10.13,0-15.87-3.18-15.87-15.68v-14.48c-7.72,9.12-12.88,15.05-19.83,15.05-9.12,0-17.66-7.33-17.66-17.85,0-4.58,1.59-8.93,8.93-14.09,8.93-6.37,14.09-10.13,22.63-19.45h-13.08c-3.57,0-15.87,0-15.87-13.27,0-9.94,4.15-14.86,15.87-14.86h19.06v-7.91h-20.41c-5.93,0-15.87,0-15.87-13.7s7.33-15.05,15.49-15.05h3.38c-.58-3.96-.77-5.16-3.57-16.84-9.12-.19-11.48-6.76-11.48-13.08,0-12.5,4.97-15.68,14.48-15.68h18.05c0-3.57,0-13.27,14.28-13.27,11.29,0,16.26,3.38,16.26,13.27h17.27c4.15,0,14.67,0,14.67,14.28,0,8.93-2.56,14.48-12.5,14.48-.58,2.8-3.76,14.48-4.15,16.84,6.95,0,16.45,0,16.45,13.9s-8.15,14.86-15.68,14.86h-17.08v7.91h15.3c3.57,0,15.68,0,15.68,13.27,0,9.94-4.15,14.86-15.68,14.86h-8.73c4.78,5.74,7.53,8.15,14.86,14.86,2.17,2.17,4.97,4.78,5.55,9.31,2.8-6.76,7.14-23.02,7.14-48.78v-67.46h-.1ZM372.95,209.56c1.98-9.31,2.36-10.9,3.18-16.84h-14.86c.39,2.8,2.99,15.05,3.38,16.84h8.35-.05Z"/>
      <path class="cls-4" d="M597.13,308.14c0,4.78,3.38,4.78,6.76,4.78,4.15,0,23.02,0,24.22-.19,2.17-.39,2.17-1.79,2.56-5.36.77-10.33,10.71-10.52,14.09-10.52,16.07,0,16.07,11.29,16.07,15.05,0,26.2-15.05,26.39-23.59,26.39h-48.98c-21.62,0-23.02-7.91-23.02-25.77v-9.51c0-7.14,1.79-16.07,15.68-16.07,2.8,0,4.34.19,5.55.58-.58-1.21-1.01-2.36-1.01-4.34,0-3.57,1.21-5.93,1.79-7.14h-6.95c-17.66,0-20.6-3.18-20.6-20.65v-7.72c0-17.47,2.99-20.65,20.6-20.65h22.2c14.48,0,20.65,1.4,20.65,18.43,1.59-1.01,8.35-5.55,9.7-6.56-5.93-14.09-8.93-30.35-10.9-45.84h-59.49c-2.8,0-4.78,1.21-4.78,4.78v30.74c0,21.81-5.36,42.27-11.48,50.57.77-.19,1.79-.39,2.99-.39,4.97,0,17.08,3.76,17.08,13.9,0,6.56-6.37,21.23-8.73,26.2-6.13,12.5-10.71,20.22-20.22,20.22-10.33,0-18.62-8.15-18.62-15.87,0-4.78,1.98-7.72,9.12-18.87,2.17-3.57,4.78-7.53,6.76-11.73,3.38-6.76,3.57-7.53,3.96-8.35-.77.19-1.79.39-3.18.39-9.94,0-18.62-7.33-18.62-15.68,0-3.38.77-5.36,4.15-13.7,3.18-7.91,5.93-16.26,5.93-42.27v-18.43c0-21.81,10.52-27.36,27.55-27.36h65.24c-.19-7.72,1.4-15.87,16.07-15.87,12.5,0,16.84,4.58,17.27,15.87h8.35c-1.98-2.36-2.99-3.96-2.99-6.56,0-7.14,10.52-9.51,16.07-9.51,10.9,0,18.87,11.1,18.62,16.07,3.18,0,12.5.19,12.5,12.69s-7.53,13.08-13.27,13.08h-37.88c.77,9.7,1.79,15.49,3.38,20.65,1.21-2.17,6.37-11.73,7.53-13.7,1.21-1.79,4.15-6.37,11.1-6.37,8.15,0,15.49,6.37,15.49,13.7s-10.52,23.4-20.6,35.51c1.01,1.01,2.99,2.99,5.16,2.99,1.98,0,3.96-1.59,5.55-4.15,2.17-3.76,3.96-6.95,9.51-6.95s15.3,4.15,15.3,12.69c0,9.94-8.73,31.56-24.8,34.5,2.99,2.17,23.02,26.78,23.02,38.26s-11.48,16.45-18.43,16.45c-8.93,0-10.9-3.96-19.25-21.04-2.8-5.93-5.36-9.51-7.14-12.5-2.99-4.58-3.57-6.56-3.57-9.12,0-6.95,5.55-11.73,12.5-13.9-9.7-3.38-15.68-9.51-20.41-15.05-7.14,5.74-11.1,9.12-16.65,9.12-5.93,0-8.35-2.56-10.52-4.97-.58,1.21-1.4,2.56-3.57,4.15,12.69,6.37,17.66,8.93,17.66,16.45,0,9.12-7.14,17.08-14.28,17.08-4.34,0-7.91-2.17-16.07-7.14-3.76-2.17-6.37-3.57-9.31-5.16.58,1.79,1.4,3.76,1.4,7.33v6.13l-.15.19ZM610.4,197.88c3.96,0,13.27.19,13.27,12.11,0,10.9-7.33,12.3-13.27,12.3h-39.08c-5.16,0-13.08-.77-13.08-11.48,0-7.33,1.59-12.88,13.08-12.88h39.08v-.05ZM599.49,248.64c0-2.36-1.4-3.18-3.18-3.18h-9.7c-1.79,0-3.18.77-3.18,3.18v4.15c0,2.36,1.4,3.18,3.18,3.18h9.7c1.79,0,3.18-1.01,3.18-3.18v-4.15Z"/>
      <path class="cls-4" d="M795.29,173.47c-1.79-2.8-3.76-5.74-3.76-8.93,0-7.33,9.94-14.09,20.02-14.09,5.16,0,8.35,1.01,14.86,11.92,3.96,6.56,4.15,9.12,3.96,11.1h16.65c2.17-3.76,5.36-10.13,7.33-13.9,2.36-4.58,4.58-7.53,13.27-7.53s19.45,3.57,19.45,11.73c0,3.96-1.98,7.14-3.96,10.13,18.62,0,18.87,12.3,18.87,25.57v8.15c0,3.76-.19,16.26-15.68,16.26-1.01,0-6.95,0-11.29-2.56.39,3.76.39,4.58.39,10.9v36.48c0,12.11-.19,19.06-7.72,23.4-4.34,2.56-9.94,2.56-20.84,2.56v10.13c0,5.16.39,5.16,11.1,5.16,12.3,0,13.7,0,14.67-5.93.19-1.98,1.4-11.29,1.98-12.88,1.79-4.34,5.93-5.93,12.88-5.93,12.3,0,17.08,3.57,17.08,13.9,0,2.36-1.01,24.61-5.55,31.75-3.96,5.93-9.31,7.72-15.49,7.91-6.95.39-29.53.39-32.33.39-31.94,0-36.91-.58-36.91-26.2v-18.24h-10.33c-13.9,36.48-55.92,45.6-71.99,45.6-5.36,0-9.31-.58-11.92-3.96-3.38-4.34-4.78-9.51-4.78-13.51,0-10.9,7.14-12.11,18.05-13.7,23.98-3.57,28.76-8.73,33.92-14.48-22,0-23.59-7.33-23.59-26.01v-36.48c0-6.37,0-6.95.39-10.52-2.99,1.59-6.13,2.17-9.31,2.17-13.7,0-16.84-6.95-16.84-16.26v-8.15c0-14.28,0-25.19,19.25-26.01-1.4-2.17-2.99-4.34-2.99-7.14,0-7.72,9.94-13.7,20.22-13.7,3.76,0,6.95.39,13.51,8.54,1.59,1.98,5.93,7.33,6.37,12.3h21.04l.05.05ZM750.66,207.58c0,.58-.19.77-.19,1.79,4.58-3.18,11.73-3.18,19.25-3.18h79.71c8.93,0,15.3,0,20.02,3.76v-8.54c0-1.98-1.21-3.18-3.18-3.18h-112.47c-2.17,0-3.18,1.21-3.18,3.18v6.13l.05.05ZM845.04,231.18v-3.18c0-2.17-1.01-3.18-3.18-3.18h-64.46c-2.17,0-3.18,1.21-3.18,3.18v3.18h70.83,0ZM845.04,247.25h-70.83v6.37h70.83v-6.37ZM845.04,269.68h-70.83v3.18c0,2.17,1.21,3.18,3.18,3.18h64.46c2.17,0,3.18-1.01,3.18-3.18v-3.18h0Z"/>
      <path class="cls-4" d="M966.44,305.39c0,11.48-9.51,20.65-20.6,20.65s-20.65-9.31-20.65-20.65,9.31-20.65,20.65-20.65,20.6,8.93,20.6,20.65ZM957.13,260.32c-1.01,6.37-1.79,13.08-10.9,13.08s-10.52-5.16-11.73-13.08l-7.72-52.16v-35.9c0-6.76,1.4-17.47,18.87-17.47,13.9,0,19.25,5.93,19.25,17.47v35.9l-7.72,52.16h-.05Z"/>
      <path class="cls-4" d="M1044.85,229.97c-4.58,0-11.48-.39-13.27-10.33-2.56,1.59-6.56,3.76-10.71,5.93-6.13,3.18-12.69,6.13-18.05,6.13-9.7,0-16.45-9.51-16.45-19.45s5.93-13.08,13.46-15.87c28.18-10.9,42.27-22.2,55.73-34.69,7.14-6.76,12.5-11.73,26.2-11.73s19.45,5.36,26.2,11.73c13.46,12.3,27.99,23.98,56.55,35.13,7.14,2.8,12.69,5.55,12.69,15.49,0,10.52-7.33,19.45-16.45,19.45-8.15,0-23.21-8.54-31.94-13.9-1.21,10.33-6.37,12.11-13.51,12.11h-70.45ZM1008.13,272.43c-11.92,0-15.68-7.14-15.68-15.3,0-11.29,5.16-16.65,15.68-16.65h132.88c12.88,0,25.19,1.01,25.19,18.24,0,22.82-25.77,46.03-34.11,52.98-33.73,27.36-72.57,30.74-74.6,30.74-10.52,0-16.45-10.52-16.45-19.25s5.55-12.11,13.51-14.09c23.98-6.13,31.12-7.91,43.43-14.86,15.87-9.12,21.42-18.43,21.42-20.22,0-1.59-1.59-1.59-3.38-1.59h-107.89,0ZM1103.72,200.06c-6.95-5.74-12.3-11.1-16.45-15.3-2.99-2.8-4.15-3.57-5.55-3.57-1.59,0-3.38,1.4-4.58,2.8-3.57,3.38-10.52,10.33-17.47,16.07,0,0,44.05,0,44.05,0Z"/>
      <path class="cls-4" d="M1352.31,166.52c3.96,0,16.07,0,16.07,14.86,0,12.11-4.97,16.84-16.07,16.84h-42.85v16.07h36.67c6.56,0,15.68,1.4,15.68,14.28,0,10.71-3.18,16.45-15.68,16.45h-36.67v23.21h49.8c6.13,0,15.87.77,15.87,15.68s-8.93,15.68-15.87,15.68h-49.8v26.01c0,6.76-1.01,15.68-16.07,15.68s-17.66-5.16-17.66-15.68v-26.01h-74.79c-5.16,0-15.87-.19-15.87-15.49s9.94-15.87,15.87-15.87h11.29v-29.14c0-4.15.19-5.93.58-7.91-1.79,1.4-3.76,2.99-8.15,2.99-10.13,0-20.41-9.31-20.41-19.64,0-6.37.19-6.56,15.49-22,11.29-11.48,18.05-23.02,23.59-32.33,3.18-5.55,5.93-9.12,14.09-9.12,8.73,0,20.41,5.16,20.02,15.49h94.81l.05-.05ZM1241.23,198.27c-1.59,2.36-6.76,9.7-12.88,16.84,3.76-.58,6.37-.77,8.73-.77h38.7v-16.07h-34.55ZM1275.73,268.28v-23.21h-25.77c-2.99,0-4.58,1.59-4.58,4.58v18.62h30.35Z"/>
      <path class="cls-4" d="M1467.53,291.88c-10.52,16.26-22.44,24.42-38.7,24.42-30.16,0-41.64-30.54-41.64-58.91,0-67.65,51.19-95.01,96.41-95.01,13.46,0,42.27,2.56,62.68,21.62,17.08,16.07,23.4,41.25,23.4,61.91,0,24.8-7.91,49.8-27.17,65.24-20.41,16.65-47.82,20.84-57.13,20.84-16.84,0-17.47-15.49-17.47-18.05,0-13.9,8.35-15.3,19.25-17.08,15.49-2.36,46.03-7.91,46.03-52.98,0-33.53-19.25-46.8-36.29-48.4-3.38,28.18-14.28,73.58-29.34,96.41h-.05ZM1420.73,257.76c0,14.67,5.36,21.04,10.33,21.04,6.56,0,10.71-8.35,13.27-13.7,2.36-5.36,13.08-30.74,18.43-68.81-24.99,7.33-42.03,28.37-42.03,61.47Z"/>
      <path class="cls-4" d="M1726.64,182.78c20.22,0,21.81,12.11,21.81,19.64,0,9.51-7.53,64.46-52.35,99.59-28.76,22.63-73,32.33-82.32,32.33-11.29,0-16.84-9.31-16.84-18.62,0-11.29,5.93-12.69,18.62-15.49,29.53-6.56,65.04-17.27,84.68-57.71,5.16-10.71,8.54-22.82,8.54-24.8,0-2.8-1.59-2.8-5.74-2.8h-52.35c-12.88,16.26-24.8,26.78-31.75,31.94-4.58,3.57-9.51,5.93-14.67,5.93-10.52,0-17.66-9.51-17.66-17.66,0-6.56,1.21-7.33,15.68-18.62,2.56-1.98,20.41-16.26,35.13-44.63,4.78-9.31,7.72-14.86,18.43-14.86,6.95,0,19.25,3.57,19.25,13.27,0,3.57-.77,6.13-3.96,12.5h55.54-.05Z"/>
      <path class="cls-4" d="M1818.85,257.57c0,8.35-2.99,16.65-18.24,16.65-11.1,0-18.43-3.96-18.43-16.65v-78.75c0-8.54,2.99-16.65,18.24-16.65,11.1,0,18.43,3.96,18.43,16.65v78.75ZM1916.65,246.28c0,22.2-3.57,43.81-24.42,62.1-23.4,20.84-64.08,24.8-76.38,24.8-3.96,0-9.7,0-14.48-5.55-3.57-4.34-4.58-9.51-4.58-13.27,0-14.09,9.51-14.86,20.02-15.87,53.75-4.78,62.68-24.99,62.68-50.76v-71.22c0-11.1,5.55-16.84,18.24-16.84,10.33,0,18.82,3.18,18.82,16.84v69.82l.1-.05Z"/>
      <path class="cls-4" d="M1971.61,198.46c-7.53,0-17.08-2.99-17.08-16.65,0-11.1,6.13-16.84,17.08-16.84h95.2c8.15,0,24.42.58,24.42,19.45,0,13.7-12.88,43.43-30.35,68.03,18.24,12.88,31.75,24.22,46.42,37.3,7.53,6.76,11.73,11.29,11.73,19.06,0,11.1-9.7,19.83-20.22,19.83-7.72,0-11.73-4.34-16.45-9.7-10.71-12.11-28.76-29.96-41.83-41.25-22.63,24.61-60.89,52.98-75.56,52.98-9.31,0-16.84-9.51-16.84-19.25,0-7.91,3.57-9.94,16.07-16.84,65.43-36.28,84.49-91.44,84.49-93.8,0-2.17-2.17-2.17-4.15-2.17h-72.81l-.1-.14Z"/>
      <path class="cls-4" d="M2293.54,171.3c11.92,0,20.41,4.34,20.41,16.65,0,24.99-28.18,62.87-68.03,90.23,4.15,3.96,15.49,15.49,15.49,15.49,5.93,5.93,9.94,10.33,9.94,17.27,0,10.9-10.9,20.02-21.23,20.02-7.33,0-10.52-3.38-18.87-12.88-17.27-19.64-27.79-31.75-48.78-48.59-11.73-9.51-14.86-12.5-14.86-19.06,0-9.7,10.13-18.43,19.06-18.43,5.74,0,9.12,2.36,12.69,4.97,5.55,3.76,12.88,9.94,21.81,17.47,6.95-4.34,28.18-17.08,41.83-37.49,1.79-2.8,5.55-8.35,5.55-10.71,0-1.59-1.98-1.59-4.34-1.59h-107.31c-10.9,0-17.27-5.55-17.27-16.65,0-13.7,9.51-16.65,17.27-16.65h136.65v-.05Z"/>
      <path class="cls-4" d="M2361.24,198.46c-7.53,0-17.08-2.99-17.08-16.65,0-11.1,6.13-16.84,17.08-16.84h95.2c8.15,0,24.42.58,24.42,19.45,0,13.7-12.88,43.43-30.35,68.03,18.24,12.88,31.75,24.22,46.42,37.3,7.53,6.76,11.73,11.29,11.73,19.06,0,11.1-9.7,19.83-20.22,19.83-7.72,0-11.73-4.34-16.45-9.7-10.71-12.11-28.76-29.96-41.83-41.25-22.63,24.61-60.89,52.98-75.56,52.98-9.31,0-16.84-9.51-16.84-19.25,0-7.91,3.57-9.94,16.07-16.84,65.43-36.28,84.49-91.44,84.49-93.8,0-2.17-2.17-2.17-4.15-2.17h-72.81l-.1-.14Z"/>
      <path class="cls-4" d="M2573.26,173.47c0,2.36-3.96,27.55-4.58,32.71-1.59,15.49-2.17,30.93-2.17,46.61,0,21.04,1.21,37.88,3.18,52.98.77,5.93,1.21,10.9,1.21,12.88,0,10.33-6.13,14.86-16.65,14.86-3.76,0-13.08,0-16.26-10.13-2.8-9.31-5.16-41.45-5.16-71.6,0-37.88,3.96-66.63,5.93-77.54,1.4-7.53,4.34-15.3,16.26-15.3.58,0,2.36,0,4.78.19,9.31,1.21,13.51,5.55,13.51,14.28l-.05.05ZM2635.55,177.04c-.19-6.37.19-18.24,17.47-18.24s17.85,11.48,17.85,18.24l.19,14.67c2.8,0,16.65-.58,17.66-.58,4.34,0,16.65,0,16.65,16.45,0,15.49-10.9,15.87-17.47,16.26-1.79,0-16.26.77-16.65.77l.58,37.3c31.12,16.84,35.71,26.01,35.71,34.11,0,9.31-7.91,19.06-17.47,19.06-6.13,0-8.54-2.56-14.28-9.12-.39-.39-5.16-4.78-6.13-5.74-.39,4.78-.58,10.33-4.34,17.08-8.35,14.28-26.78,16.45-37.68,16.45-36.09,0-48.98-21.23-48.98-41.45,0-22.82,16.84-40.48,47.19-40.48,5.36,0,8.73.39,11.48.77l-.58-26.59c-6.56.19-34.89.58-40.87.58s-17.85,0-17.85-16.65c0-14.09,9.51-15.3,12.69-15.87,1.79-.19,39.66-.77,45.21-.77l-.39-16.26h0ZM2625.22,280.15c-4.78,0-17.08,1.01-17.08,12.88,0,11.1,11.29,12.5,15.49,12.5,3.76,0,11.48-1.21,13.51-7.14.77-2.17.77-3.38.77-15.68-3.57-1.4-6.76-2.56-12.69-2.56Z"/>
      <path class="cls-4" d="M2836.71,161.16c2.99-2.8,6.95-6.37,12.88-6.37,9.7,0,20.41,10.71,20.41,19.06,0,5.36-2.17,10.13-6.13,13.9l-46.03,42.65,51.97,65.04c1.4,1.59,4.34,6.13,4.34,11.29,0,9.31-10.71,19.25-20.65,19.25-4.97,0-9.51-2.17-12.69-5.93l-51.19-63.69-17.27,16.26v35.71c0,6.95-1.4,17.66-18.82,17.66-13.9,0-19.25-5.93-19.25-17.66v-136.07c0-6.76,1.4-17.47,18.87-17.47,13.51,0,19.25,5.36,19.25,17.47v48.2l64.27-59.3h.05Z"/>
      <path class="cls-4" d="M2932.92,174.05c0,10.71-8.54,19.45-19.45,19.45s-19.45-8.73-19.45-19.45,8.93-19.25,19.45-19.25,19.45,8.54,19.45,19.25ZM2931.52,309.15c0,8.15-2.17,16.84-17.27,16.84-11.73,0-19.06-3.18-19.06-16.84v-94.62c0-8.15,2.36-16.84,17.47-16.84,11.48,0,18.87,3.18,18.87,16.84v94.62h0Z"/>
      <path class="cls-4" d="M3038.06,171.68c0-8.15,2.36-16.84,17.47-16.84,11.73,0,19.06,2.99,19.06,16.84v137.47c0,10.71-4.34,16.84-18.24,16.84-11.73,0-18.24-3.57-18.24-15.3-3.96,4.97-13.27,15.3-31.36,15.3-33.73,0-51.39-32.71-51.39-65.48,0-28.56,14.48-62.87,50.18-62.87,20.41,0,29.14,9.7,32.52,13.7v-39.66h0ZM2992.99,261.72c0,5.74.19,33.73,22.63,33.73s22.44-27.79,22.44-33.73c0-5.16,0-33.53-22.44-33.53s-22.63,28.37-22.63,33.53Z"/>
      <path class="cls-4" d="M3209.45,231.56c0,7.72-6.56,13.08-18.05,13.08s-14.86-4.15-16.26-7.91c-1.79-5.16-3.96-11.29-20.02-11.29-9.12,0-16.65,2.99-16.65,8.15,0,5.93,5.93,7.14,31.56,12.88,19.06,4.34,43.23,10.71,43.23,37.68,0,34.89-34.11,41.83-56.94,41.83-40.48,0-57.71-21.23-57.71-35.9,0-9.12,6.37-15.05,17.66-15.05,11.92,0,13.7,3.96,17.47,12.5,2.56,5.55,6.56,9.7,22.44,9.7s20.6-3.18,20.6-8.73-7.72-7.33-12.69-8.54c-30.35-7.14-42.46-9.94-51.77-18.24-5.93-5.36-9.7-14.48-9.7-23.79,0-21.81,16.84-40.24,52.98-40.24,53.17,0,53.95,33.1,53.95,33.92l-.1-.05Z"/>
      <path class="cls-4" d="M3341.76,260.56c0,7.53,0,32.14,28.95,32.14s28.95-24.61,28.95-32.14v-88.25c0-8.35,2.56-17.47,18.62-17.47,12.11,0,19.45,3.96,19.45,17.47v89.46c0,11.73-1.01,36.28-21.42,50.95-13.7,9.94-29.96,13.27-45.84,13.27-25.57,0-44.63-9.51-54.96-22.2-6.37-7.72-11.92-21.04-11.92-42.03v-89.46c0-6.13,1.01-17.47,18.62-17.47,11.73,0,19.45,3.76,19.45,17.47v88.25h.1Z"/>
      <path class="cls-4" d="M3510.78,308.33c0,6.95-1.4,17.66-18.87,17.66-13.51,0-19.25-5.55-19.25-17.66v-120.77c0-21.81,10.13-28.56,28.56-28.56h36.48c23.79,0,32.52,4.78,36.09,6.95,12.5,7.53,24.8,22.44,24.8,46.03,0,21.23-10.13,38.26-23.21,46.8-12.5,8.15-33.34,8.15-37.68,8.15h-26.97v41.45l.05-.05ZM3510.78,234.17h25.19c19.06,0,23.59-9.94,23.59-21.23,0-13.08-6.56-21.04-23.59-21.04h-19.64c-3.57,0-5.55,2.17-5.55,5.55v36.72Z"/>
      <path class="cls-4" d="M3659.73,204.78c-3.76.19-21.04,1.59-24.42,1.59-7.91,0-16.07-4.97-16.07-18.05,0-7.33,1.79-16.84,14.86-18.24,6.37-.77,88.44-4.15,140.03-4.15,10.9,0,23.21,0,23.21,16.45,0,17.66-11.92,17.85-23.02,18.05-39.66.58-79.52,35.71-79.52,67.46,0,24.22,23.59,26.97,50.76,26.97h18.24c8.73,0,15.68,4.58,15.68,16.45,0,20.6-16.26,20.6-30.74,20.6-19.64,0-39.28-2.36-57.32-9.94-18.43-7.53-32.52-24.42-32.52-50.37,0-23.02,10.71-39.28,18.82-48.78,9.31-11.1,17.85-16.65,25.19-21.42-9.12.77-26.97,2.36-43.23,3.38h.05ZM3741.03,225.05c-.19-.58-.58-1.98-.58-3.38,0-3.96,4.97-6.56,8.15-6.56s5.74,2.17,9.7,10.13c.58,1.01,5.93,11.29,5.93,16.26,0,5.36-5.74,6.76-8.15,6.76-4.15,0-4.78-1.21-10.13-13.51-.77-1.59-4.58-8.15-4.97-9.7h.05ZM3761.49,215.69c-.19-.58-.58-1.98-.58-3.38,0-3.96,5.16-6.56,8.35-6.56,3.38,0,5.74,2.56,9.7,10.33,1.21,2.36,5.74,11.29,5.74,16.07s-4.78,6.76-8.15,6.76c-4.15,0-4.58-1.01-10.13-13.51-.77-1.59-4.58-8.35-4.97-9.7h.05Z"/>
      <path class="cls-4" d="M3989.19,159.19c2.99,0,13.08,0,13.08,12.69,0,6.76-3.38,10.13-5.93,10.9-1.59.58-3.76.58-5.16.58-4.34,12.11-9.12,17.85-12.11,21.23,5.16,1.79,13.9,4.58,15.68,5.36,5.16,2.56,6.13,6.76,6.13,10.52,0,5.55-2.8,14.48-11.48,16.07,4.34.77,5.36,3.96,5.36,6.95,0,6.95-5.93,6.95-7.72,6.95h-61.47v4.78h51.77c1.98,0,7.72,0,7.72,6.76s-5.93,6.76-7.72,6.76h-51.77v4.78h51.97c1.59,0,7.53,0,7.53,6.56s-5.93,6.37-7.53,6.37h-51.97v4.78h51.58c7.91,0,21.81,0,21.81,17.27,0,8.73-3.18,23.59-11.48,28.76-4.97,3.18-9.94,3.18-24.99,3.18-13.7,0-20.22-.39-21.42-9.51-1.21.19-2.17.39-3.76.39-5.36,0-6.76-2.36-7.53-3.96-.58-1.21-3.96-9.94-3.96-12.88,0-6.37,4.97-7.91,7.72-8.73h-22.63c1.59.39,4.15,1.21,6.13,4.78,2.36,4.34,3.96,14.48,3.96,17.85,0,11.29-11.73,11.29-13.7,11.29-5.16,0-10.13-1.79-11.29-7.14-.39-1.79-2.56-15.68-2.56-17.47,0-5.16,2.8-8.15,8.15-9.31h-24.42c1.59.39,4.34,1.21,6.13,3.96,1.98,2.99,3.76,11.48,3.76,18.62,0,3.96,0,13.08-13.9,13.08s-13.7-7.53-13.7-25.57c0-6.37,2.36-8.73,7.53-10.13h-24.99c4.97,2.56,7.91,5.93,7.91,10.9,0,1.98-3.76,25.57-18.62,25.57-8.35,0-17.85-6.13-17.85-15.3,0-3.38.58-4.34,5.93-13.7,5.16-8.93,5.93-10.13,11.1-10.13-7.53-4.58-7.53-12.3-7.53-23.21v-17.66c0-22,3.96-25.77,26.01-25.77h23.79c-1.79-.58-3.96-1.4-5.55-3.96h-29.34c-3.38,0-13.27,0-13.27-12.88-.77.39-2.17.77-3.76.77-6.56,0-11.29-6.76-11.29-13.08,0-4.78,2.8-7.33,5.16-9.31,7.33-6.56,8.15-7.33,15.49-15.49-.19-1.01-.19-1.59-.19-2.56h-7.72c-2.8,0-10.9,0-10.9-10.33s8.35-10.33,10.9-10.33h7.72c0-6.95,6.95-8.35,14.86-8.35,2.8,0,13.08,0,13.08,8.35h12.5c0-6.95,6.37-8.35,14.48-8.35s12.5,2.8,12.5,8.35h8.15c3.96,0,10.71.58,10.71,10.33,0,1.79-.19,3.76-1.21,5.93,7.91-7.14,8.73-8.15,17.08-18.24,2.56-2.99,5.93-7.14,13.7-7.14,2.56,0,6.13.58,8.93,2.17,3.38,1.98,4.34,4.78,4.34,6.95h30.16l-.05-.05ZM3880.91,212.75c.77-1.4,2.56-8.35,2.56-11.29,0-1.79-1.21-2.8-2.8-2.8h-33.53c-1.21,1.4-1.59,2.17-3.38,3.96h20.84c3.96,0,12.11.19,13.08,11.48,1.21,0,2.36-.39,3.18-1.4l.05.05ZM3856.11,220.47c2.8,0,2.8-2.17,2.8-3.38s-.39-2.99-2.8-2.99h-9.31c-1.59,0-2.8,1.4-2.8,2.99s.77,3.38,2.8,3.38h9.31ZM3857.51,249.61c-2.99,0-2.99,1.98-2.99,5.55h40.05v-5.55h-37.1.05ZM3894.62,267.9h-40.05v5.55h40.05v-5.55ZM3854.52,285.51c0,3.57,0,5.55,2.99,5.55h37.1v-5.55h-40.1ZM3871.17,185.58c-.77-2.17-.77-4.34-.77-6.76h-12.5c0,2.56,0,4.34-.77,6.76h14.09-.05ZM3984.08,236.34c-1.98-.19-13.27-2.56-29.14-12.3-9.94,5.93-24.99,11.29-32.71,11.29-10.71,0-12.69-9.94-12.69-14.09s1.21-7.53,5.74-9.7c2.17-1.21,14.28-4.78,17.08-5.55-1.4-1.59-2.56-2.56-4.97-5.55-1.4.77-3.96,2.17-7.14,2.17-7.33,0-12.3-8.35-12.3-15.49,0-4.78,1.98-6.76,3.18-8.15-1.21.39-2.36.77-5.55.77h-8.15c0,2.99-.19,4.34-1.01,5.93,13.27,1.21,13.27,11.48,13.27,15.49,0,5.55-1.21,20.02-3.38,26.2-2.36,6.13-4.97,7.91-8.93,8.93h86.66l.05.05ZM3944.37,305.58c4.58,2.56,6.37,6.56,7.53,11.29,1.01,0,6.13.19,7.33.19,6.13,0,6.56-6.13,6.56-8.54,0-2.99-2.36-2.99-4.15-2.99h-17.27v.05ZM3945.96,183.36c1.98,2.8,8.73,8.54,10.13,9.51,2.8-2.56,4.97-5.93,6.76-9.51h-16.89Z"/>
      <path class="cls-4" d="M4085.84,169.51c0-12.69,14.67-14.67,19.64-14.67,12.5,0,14.28,6.37,18.43,20.84,10.13-.58,13.51-.77,25.77-2.36,3.18-.39,8.15-1.01,11.1-1.01,3.96,0,14.48.19,14.48,14.86,0,2.17,0,10.33-9.31,13.08-6.13,1.79-15.68,2.56-33.34,3.96,2.36,6.37,2.8,7.53,3.76,9.31,11.48-.77,22.63-2.17,29.53-3.18,7.14-1.21,8.15-1.21,9.94-1.21,13.27,0,13.27,12.5,13.27,14.67,0,8.35-5.16,12.5-11.73,13.9-7.14,1.59-24.99,3.18-26.2,3.38.58,1.21,6.37,10.13,9.7,13.9,5.36,6.13,7.91,9.31,7.91,15.49,0,9.94-8.35,17.27-17.66,17.27-1.21,0-3.38-.19-8.93-1.98-14.09-4.78-26.39-8.73-48.01-8.73-4.58,0-18.87,0-26.39,3.96-2.36,1.21-6.95,4.15-6.95,8.73,0,12.11,26.78,12.88,38.07,12.88s25.57-.77,46.61-5.55c10.13-2.17,12.11-2.8,14.67-2.8,8.73,0,14.48,6.95,14.48,16.45,0,12.88-8.73,15.05-14.86,16.84-13.08,3.57-29.53,6.37-54.14,6.37-30.16,0-80.34-2.36-80.34-41.06,0-32.71,35.32-41.06,65.67-41.06,17.66,0,23.59,1.4,28.37,2.56-2.56-3.76-3.96-5.93-6.76-11.29-45.02,1.79-49.99,1.98-61.91,1.98-5.55,0-23.79,0-28.37-1.21-2.8-.77-7.91-3.96-7.91-13.27,0-12.69,8.73-14.09,15.3-14.09,3.96,0,21.23.39,24.61.39,15.3,0,30.74,0,46.03-1.01-2.56-6.13-3.18-7.72-4.15-9.94-29.14.77-29.96.77-40.87.77-23.59,0-25.19-.39-27.99-2.17-4.78-2.99-5.74-8.54-5.74-12.5,0-14.67,9.51-14.67,20.22-14.67,5.55,0,29.53.58,34.5.39,4.15,0,6.76-.19,10.71-.39-.58-2.17-1.4-4.97-1.4-7.91l.19.1Z"/>
      <path class="cls-4" d="M4285.6,291.88c-10.52,16.26-22.44,24.42-38.7,24.42-30.16,0-41.64-30.54-41.64-58.91,0-67.65,51.19-95.01,96.41-95.01,13.46,0,42.27,2.56,62.68,21.62,17.08,16.07,23.4,41.25,23.4,61.91,0,24.8-7.91,49.8-27.17,65.24-20.41,16.65-47.82,20.84-57.13,20.84-16.84,0-17.47-15.49-17.47-18.05,0-13.9,8.35-15.3,19.25-17.08,15.49-2.36,46.03-7.91,46.03-52.98,0-33.53-19.25-46.8-36.29-48.4-3.38,28.18-14.28,73.58-29.34,96.41h-.05ZM4238.79,257.76c0,14.67,5.36,21.04,10.33,21.04,6.56,0,10.71-8.35,13.27-13.7,2.36-5.36,13.08-30.74,18.43-68.81-24.99,7.33-42.03,28.37-42.03,61.47Z"/>
      <path class="cls-4" d="M4469.68,214.92c-3.76,0-15.87,0-15.87-14.48,0-11.48,4.58-16.45,15.87-16.45h33.53v-17.08c0-4.78.39-16.07,14.86-16.07,11.73,0,16.84,4.15,16.84,16.07v17.08h38.89c3.57,0,16.07,0,16.07,14.67,0,12.5-5.93,16.26-16.07,16.26h-27.36c13.7,26.39,26.78,40.87,38.07,53.17,4.78,5.16,5.93,7.91,5.93,13.27,0,11.73-9.7,19.64-17.47,19.64-6.56,0-9.94-4.34-12.69-7.91,0,1.01.19,1.98.19,3.96,0,14.28-8.54,14.86-14.09,14.86h-11.48v13.51c0,6.13-1.21,16.07-14.67,16.07-11.29,0-17.08-3.57-17.08-16.07v-13.51h-11.48c-4.58,0-17.66,0-15.49-18.24-5.16,5.74-7.72,7.91-12.5,7.91-6.76,0-10.71-4.15-12.5-6.13v29.77c0,3.57,0,16.26-15.3,16.26-14.09,0-17.08-7.33-17.08-16.26v-69.82c-.77.19-1.98.58-3.76.58-9.31,0-17.27-8.35-17.27-20.41,0-5.93,1.01-7.53,11.48-23.59,10.52-15.87,16.07-37.68,18.62-48.01,1.79-6.95,4.34-12.3,14.86-12.3,6.76,0,17.27,2.36,17.27,12.88,0,4.78-1.98,16.26-8.93,36.91v67.46c16.65-15.87,31.36-33.92,42.65-53.94h-24.22l.15-.05ZM4503.21,282.18v-28.56c-6.37,12.5-11.1,20.02-18.05,29.14,1.98-.19,2.99-.58,6.56-.58h11.48ZM4546.44,282.18c3.76,0,4.78.39,6.76,1.01-12.69-18.87-12.88-19.25-18.24-29.34v28.37h11.48v-.05Z"/>
      <path class="cls-4" d="M4616.26,284.16c0,8.93-.58,26.97-2.99,40.24-.77,3.96-2.36,7.53-7.72,7.53-3.76,0-7.72-2.17-7.72-7.72,0-2.8,2.8-14.86,3.18-17.47,1.21-7.53,1.4-9.12,2.36-23.02.19-4.58.58-9.12,6.76-9.12s6.13,5.74,6.13,9.51v.05ZM4747.6,220.08v5.55h8.73c22,0,26.01,3.76,26.01,25.77v11.48c0,20.41-2.8,25.77-24.61,25.77,5.74,10.71,12.88,15.49,17.27,18.24,11.92,7.72,13.9,8.73,13.9,16.07,0,6.56-4.58,17.66-16.45,17.66-8.35,0-26.59-13.27-38.07-33.92-14.09,24.42-31.12,33.92-38.07,33.92-10.9,0-16.07-9.51-16.45-17.08-4.34,16.45-16.26,17.08-30.16,17.08-12.88,0-21.23,0-21.23-16.07,0-8.54,3.38-14.09,12.69-14.09,1.79,0,10.13.19,11.73,0,3.18-.19,6.76-.77,7.72-12.5.19-1.59,1.4-18.43,1.4-20.65,0-4.15-1.21-4.15-4.58-4.15h-28.76c-20.41,0-23.98-3.76-23.98-25.77v-63.88c0-22,3.57-26.01,23.98-26.01h48.01c3.96,0,12.69.19,12.69,13.9s-8.35,13.9-12.69,13.9h-14.28v6.37h9.12c1.4,0,4.97,0,7.33,1.79,1.98-2.56,13.51-10.71,15.68-12.69,7.72-7.53,9.51-9.51,19.06-21.81,6.13-8.15,16.84-8.15,19.64-8.15,12.88,0,17.27,4.97,20.41,8.73,12.88,15.05,14.28,16.65,29.53,28.95,4.78,3.96,6.56,7.53,6.56,12.88,0,9.12-6.37,18.43-15.3,18.43-4.34,0-7.91-2.8-11.92-6.37-2.99,6.13-7.72,6.56-12.3,6.56h-2.56l-.05.1ZM4630.35,279.57c.39,2.17,1.21,9.94,1.21,22.63,0,9.31,0,14.48-6.37,14.48-3.18,0-5.36-1.4-5.36-5.16,0-3.18.77-18.43.77-22,0-1.59-.39-9.12-.19-10.52.77-2.99,3.57-3.38,4.15-3.57,3.18-.39,5.36,1.4,5.74,4.15h.05ZM4629.97,191.71h10.9v-6.37h-8.15c-1.98,0-2.8,1.4-2.8,2.99v3.38h.05ZM4640.87,213.52h-10.9v6.37h10.9v-6.37ZM4629.97,241.7v3.57c0,1.59.77,2.99,2.8,2.99h8.15v-6.56h-10.95ZM4635.71,291.88c-.19-1.79-1.21-9.94-1.21-11.73,0-3.57,1.98-4.58,3.96-4.78,4.15-.39,4.97,1.98,5.55,4.78.58,3.57,1.59,12.11,1.59,22.2,0,3.38,0,6.76-4.78,6.76-5.16,0-5.16-3.76-5.16-5.74v-11.48h.05ZM4656.94,280.97c.77,4.97,1.79,12.5,1.79,20.22,0,2.36,0,5.16-4.58,5.16-3.96,0-3.96-1.01-4.34-10.9-.19-2.8-1.98-16.65-1.98-17.08,0-1.79,1.4-3.38,4.15-3.38,3.96,0,4.34,1.79,4.97,5.93v.05ZM4716.05,220.08c-4.97,0-8.73-.77-11.73-5.93-5.55,4.97-8.54,6.95-12.88,6.95-4.97,0-10.13-3.18-13.27-8.93-1.59.77-2.56,1.4-6.76,1.4h-9.12v6.37h8.54c2.99,0,11.48,0,11.48,10.71s-8.35,11.1-11.48,11.1h-8.54v6.56h3.18c5.16,0,9.12,0,13.27,2.8,5.36,3.38,6.13,8.93,6.13,15.05,0,14.28-1.59,35.9-3.57,50.37,1.21-2.56,3.96-4.34,6.37-5.93,12.11-7.33,17.47-11.1,23.4-21.81-21.81,0-23.98-6.37-23.98-25.77v-11.48c0-22,3.76-25.77,25.77-25.77h6.95v-5.55h-3.76v-.14ZM4713.25,251.83c-2.17,0-3.18,1.4-3.18,3.18v4.34c0,1.98,1.01,3.18,3.18,3.18h5.55c.39-2.36.58-4.78.77-10.71h-6.37.05ZM4743.79,193.49c-4.34-5.55-5.55-7.33-7.53-10.52-.77-1.21-1.4-1.79-2.56-1.79s-1.4.19-2.8,2.56c-2.56,3.96-6.76,9.12-7.14,9.7h20.02v.05ZM4747.36,251.83c-.19,6.37-.39,8.54-.58,10.71h7.14c1.98,0,2.99-1.21,2.99-3.18v-4.34c0-1.79-1.01-3.18-2.99-3.18,0,0-6.56,0-6.56,0Z"/>
      <path class="cls-4" d="M4867.03,163.72c1.98-4.34,5.55-8.15,15.87-8.15s17.66,3.76,17.66,12.5c0,2.56-1.01,5.16-1.4,6.56,20.6-.58,33.34-1.01,49.99-1.79,2.56-.19,5.16-.19,5.93-.19,9.7,0,16.84,3.76,16.84,15.68,0,10.13-4.58,14.09-13.08,15.3-5.36.77-60.7,2.56-77.73,2.8-3.76,5.74-4.34,6.56-7.33,11.92,11.92-5.74,21.42-5.93,23.59-5.93,4.78,0,11.73,1.21,17.66,4.78,6.56,3.76,9.94,9.12,11.1,11.1,15.05-5.36,30.93-9.7,37.88-9.7,11.48,0,15.05,10.33,15.05,17.85,0,13.9-9.7,15.68-23.4,18.24-11.1,1.98-19.06,4.15-22.44,5.16.58,7.91.77,15.3.77,18.62,0,7.33,0,19.64-16.45,19.64-5.36,0-12.11-1.4-15.3-7.53-1.59-2.99-1.59-8.54-1.4-19.06-15.87,6.76-25.57,12.69-25.57,23.21,0,7.72,13.51,9.7,31.75,9.7,10.33,0,20.65-.77,41.64-4.15,3.57-.58,6.37-.58,6.56-.58,11.92,0,13.27,11.92,13.27,15.87,0,12.3-7.14,14.28-14.09,16.26-4.58,1.4-16.45,3.38-38.46,3.38-32.14,0-43.81-1.59-56.12-6.37-12.3-4.97-21.23-15.3-21.23-29.34,0-30.35,33.53-48.01,54.52-57.9-3.38-2.17-6.95-2.17-8.35-2.17-22.82,0-38.07,20.65-48.59,34.69-3.96,5.36-7.53,10.33-16.07,10.33-9.7,0-16.65-8.35-16.65-17.08,0-6.37,2.56-9.94,13.9-22,7.72-8.35,14.09-15.49,28.76-38.26-13.9.19-23.21.19-26.78-.77-7.33-1.79-9.94-9.12-9.94-14.86,0-12.3,8.35-15.3,17.47-15.49,15.49-.19,24.42-.19,35.32-.58.77-1.79,3.96-9.94,4.78-11.48l.05-.19Z"/>
      <path class="cls-4" d="M5048.11,305.39c0,11.48-9.51,20.65-20.6,20.65s-20.65-9.31-20.65-20.65,9.31-20.65,20.65-20.65,20.6,8.93,20.6,20.65ZM5038.8,260.32c-1.01,6.37-1.79,13.08-10.9,13.08s-10.52-5.16-11.73-13.08l-7.72-52.16v-35.9c0-6.76,1.4-17.47,18.87-17.47,13.9,0,19.25,5.93,19.25,17.47v35.9l-7.72,52.16h-.05Z"/>
    </g>
  </g>
</svg>