<?xml version="1.0" encoding="UTF-8"?>
<svg id="Layer_1" data-name="Layer 1" xmlns="http://www.w3.org/2000/svg" viewBox="0 0 52.45 65.37">
  <defs>
    <style>
      .cls-1 {
        fill: #374f6d;
      }

      .cls-1, .cls-2 {
        stroke-width: 0px;
      }

      .cls-2 {
        fill: #fff;
      }
    </style>
  </defs>
  <path class="cls-2" d="M26.21,65.37c-1.54,0-3.83-.43-6-2.47-5.94-5.56-10.6-11.26-14.24-17.39-2.85-4.79-4.64-9.31-5.48-13.81C.12,29.72-.04,28,0,26.45-.06,15.11,7.39,4.78,18.18,1.28c2.61-.85,5.32-1.28,8.05-1.28,10.04,0,19.33,5.93,23.69,15.11,2.52,5.31,3.16,11.1,1.9,17.18-.98,4.75-2.94,9.37-6.15,14.52-2.65,4.24-5.86,8.33-9.83,12.5-1.18,1.24-2.39,2.43-3.63,3.59-2.19,2.03-4.47,2.46-6.01,2.46Z"/>
  <path class="cls-1" d="M6.84,26.53c-.1-8.32,5.25-16.09,13.45-18.75,9.26-3.01,19.23,1.35,23.46,10.26,1.96,4.12,2.3,8.43,1.39,12.87-.92,4.45-2.87,8.46-5.26,12.29-2.58,4.13-5.63,7.89-8.98,11.41-1.08,1.13-2.18,2.23-3.33,3.29-.9.84-1.79.85-2.67.01-5.05-4.73-9.51-9.94-13.05-15.9-2.14-3.61-3.86-7.41-4.63-11.57-.25-1.34-.41-2.68-.37-3.91ZM26.2,36.9c5.92,0,10.67-4.72,10.68-10.63,0-5.93-4.71-10.67-10.62-10.69-5.95-.01-10.7,4.71-10.7,10.66,0,5.92,4.73,10.66,10.64,10.66Z"/>
</svg>