<?xml version="1.0" encoding="UTF-8"?>
<svg xmlns="http://www.w3.org/2000/svg" xmlns:xlink="http://www.w3.org/1999/xlink" viewBox="0 0 1204.06 164.09">
  <defs>
    <style>
      .cls-1 {
        fill: none;
      }

      .cls-2 {
        stroke: #aae028;
        stroke-linecap: round;
        stroke-linejoin: round;
        stroke-width: 10.72px;
      }

      .cls-2, .cls-3 {
        fill: #9bd415;
      }

      .cls-4 {
        fill: #bde4e6;
      }

      .cls-5 {
        clip-path: url(#clippath);
      }
    </style>
    <clipPath id="clippath">
      <rect class="cls-1" x="1583.53" y="-699.17" width="1917" height="1078.31" transform="translate(5084.06 -320.02) rotate(-180)"/>
    </clipPath>
  </defs>
  <g id="hero-desktop-sunbeams">
    <g class="cls-5">
      <path class="cls-4" d="M2542.03-2149.92c79.45,0,159.6,4.77,238.22,14.16l-236.28,1977.1,705.25-1862.13c150.55,57.02,294.17,132.39,426.86,224.03L2543.8-157.17l-.35,2.97.61-.15,1491.5-1324.19c106.74,120.23,198.81,253.2,273.65,395.22L2548.3-155.4l1932.55-476.61c38.36,155.53,57.89,316,58.05,476.95l-1995.05,2.01h-.02s-.02,0-.02,0l-.51.06h0v-.1s-.25.04-.25.04c-.04,0-.08.02-.13.03-.09,0-.19,0-.31-.01l.08.07c-.09.03-.19.05-.29.09l.18-.16c-.08,0-.16,0-.26,0-.02.07-.05.13-.07.21,0,0,.02,0,0,0-.05.16-.1.33-.15.51l.05.12.33.08-.19.28.6,1.57-.84-1.22-.89,1.29.63-1.66-.18-.26.31-.08.06-.16c-.04-.17-.09-.32-.14-.47,0,0,0,0,0,0h0c-.02-.08-.05-.15-.07-.21-.09,0-.17,0-.25,0l.19-.17c-.05-.12-.1-.23-.14-.33.1.05.25.11.43.18l.06-.15s0-.03,0-.05h0s0-.35,0-.35c-.02-.01-.02-.03-.02-.04,0-.03.01-.07.02-.1,0,.03.01.06.02.09,0,.11-.01.24-.02.4l.13-.35.39-.09-.23-.33.61-1.62-.87,1.25-1.06-1.53.75,1.97-.19.27.25.06h-.29s-.19.27-.19.27l-.36.16.48.43c-.13,0-.25,0-.34.01-.17-.04-.3-.06-.36-.07l-.03-.23-.63.33-1.69-.89-1993.26,5.75v-4.91c0-160.94,19.36-321.42,57.56-476.98l1932.68,474.55-1761.43-926.16c74.73-142.15,166.72-275.25,273.4-395.62L2540-154.35l.64.16-.37-3.09-1133.76-1638.46c132.52-91.7,275.98-167.16,426.37-224.3L2540.11-158.6l-238.62-1976.89c79.38-9.58,160.31-14.44,240.54-14.44ZM2540.69-153.73l-.02-.17h-.17s.19.17.19.17ZM2542.71-153.63l-.11-.06s-.05.09-.07.15c.08-.04.14-.07.18-.09ZM2542.59-153.05h0s0,0,0,0ZM2542.03-153.05h0s0,0,0,0t0,0ZM2542.02-152.52l.08-.21s-.05-.02-.07-.03h0s0,.07,0,.07v-.07s-.06.02-.09.03l.08.2ZM2541.34-153.63s0,0,0,0h0s0,0,0,0ZM2541.48-153.03l.17.15c-.09-.03-.17-.05-.25-.07l.08-.07ZM2542.3-152.79c.16.14.3.25.41.33l-.11.07c.04.06-.05-.09-.32-.38h.02ZM2541.77-152.77c-.19.21-.29.36-.34.43l-.08-.12c.11-.08.25-.19.4-.32l.02.02ZM2543.43-151.89l.66.16,1493.94,1321.38c-106.31,120.19-227.04,227.47-358.83,318.85L2543.79-148.95l-.36-2.94ZM2540.62-151.89l-.35,2.95-1130.64,1640.76c-132.08-91.01-253.13-197.96-359.8-317.87L2540.02-151.74l.6-.15ZM2548.3-150.7l1933.52,472.67c-38.32,156.76-95.78,308.76-170.79,451.79L2548.3-150.7ZM2535.69-150.67L775.8,779.03c-75.42-142.77-133.33-294.56-172.11-451.15l1932-478.54ZM2540.09-147.43l-234.3,1977.33c-160.38-19.01-318.2-57.53-469.08-114.5L2540.09-147.43ZM2543.98-147.36l709.11,1860.59c-150.64,57.41-308.28,96.41-468.53,115.92l-240.58-1976.51Z"/>
    </g>
  </g>
  <g id="hero-desktop-h1-banner">
    <g>
      <path class="cls-2" d="M127.71,120.84c5.29-27.69,10.58-55.39,15.87-83.08-37.49-7.29-74.79-15.33-111.96-24.12,15.29,23,30.9,45.76,46.84,68.31-24.17,14.06-48.52,27.74-73.1,41.07,57.85,13.7,116.02,25.54,174.62,35.53,1.84-11.01,2.76-16.51,4.61-27.52-18.99-3.24-37.94-6.64-56.88-10.19Z"/>
      <path class="cls-2" d="M1076.35,120.84c-5.29-27.7-10.58-55.39-15.87-83.09,37.49-7.29,74.79-15.33,111.96-24.12-15.29,23-30.9,45.76-46.84,68.31,24.17,14.06,48.52,27.74,73.1,41.07-57.85,13.7-116.02,25.54-174.62,35.53-1.84-11.01-2.76-16.51-4.61-27.52,18.99-3.24,37.94-6.64,56.88-10.19Z"/>
      <path class="cls-2" d="M1068.84,115.9c-308.93,57.1-624.68,57.1-933.61,0,6.94-36.85,13.88-73.7,20.82-110.54,295.24,54.52,596.73,54.52,891.97,0,6.94,36.85,13.88,73.7,20.82,110.54Z"/>
      <path class="cls-3" d="M127.71,120.84c5.29-27.69,10.58-55.39,15.87-83.08-37.49-7.29-74.79-15.33-111.96-24.12,15.29,23,30.9,45.76,46.84,68.31-24.17,14.06-48.52,27.74-73.1,41.07,57.85,13.7,116.02,25.54,174.62,35.53,1.84-11.01,2.76-16.51,4.61-27.52-18.99-3.24-37.94-6.64-56.88-10.19Z"/>
      <path class="cls-3" d="M1076.35,120.84c-5.29-27.7-10.58-55.39-15.87-83.09,37.49-7.29,74.79-15.33,111.96-24.12-15.29,23-30.9,45.76-46.84,68.31,24.17,14.06,48.52,27.74,73.1,41.07-57.85,13.7-116.02,25.54-174.62,35.53-1.84-11.01-2.76-16.51-4.61-27.52,18.99-3.24,37.94-6.64,56.88-10.19Z"/>
      <path class="cls-3" d="M1068.84,115.9c-308.93,57.1-624.68,57.1-933.61,0,6.94-36.85,13.88-73.7,20.82-110.54,295.24,54.52,596.73,54.52,891.97,0,6.94,36.85,13.88,73.7,20.82,110.54Z"/>
    </g>
  </g>
</svg>