<?xml version="1.0" encoding="UTF-8"?>
<svg xmlns="http://www.w3.org/2000/svg" xmlns:xlink="http://www.w3.org/1999/xlink" viewBox="0 0 1920 1080">
  <defs>
    <style>
      .cls-1 {
        fill: none;
      }

      .cls-2 {
        fill: #9dc16e;
      }

      .cls-3 {
        fill: #7dab47;
      }

      .cls-4 {
        clip-path: url(#clippath-1);
      }

      .cls-5 {
        fill: #7ab730;
      }

      .cls-6 {
        fill: #bde4e6;
      }

      .cls-7 {
        clip-path: url(#clippath);
      }
    </style>
    <clipPath id="clippath">
      <rect class="cls-1" x="1.5" y=".84" width="1917" height="1078.31" transform="translate(1920 1080) rotate(-180)"/>
    </clipPath>
    <clipPath id="clippath-1">
      <rect class="cls-1" x="1940" y=".16" width="613.91" height="486.84"/>
    </clipPath>
  </defs>
  <g id="hero-desktop-sunbeams">
    <g class="cls-7">
      <path class="cls-6" d="M960-1449.91c79.45,0,159.6,4.77,238.22,14.16l-236.28,1977.1,705.25-1862.13c150.55,57.02,294.17,132.39,426.86,224.03L961.77,542.84l-.35,2.97.61-.15,1491.5-1324.19c106.74,120.23,198.81,253.2,273.65,395.22L966.27,544.61,2898.82,68c38.36,155.53,57.89,316,58.05,476.95l-1995.05,2.01h-.02s-.02,0-.02,0l-.51.06h0v-.1s-.25.04-.25.04c-.04,0-.08.02-.13.03-.09,0-.19,0-.31-.01l.08.07c-.09.03-.19.05-.29.09l.18-.16c-.08,0-.16,0-.26,0-.02.07-.05.13-.07.21,0,0,.02,0,0,0-.05.16-.1.33-.15.51l.05.12.33.08-.19.28.6,1.57-.84-1.22-.89,1.29.63-1.66-.18-.26.31-.08.06-.16c-.04-.17-.09-.32-.14-.47,0,0,0,0,0,0h0c-.02-.08-.05-.15-.07-.21-.09,0-.17,0-.25,0l.19-.17c-.05-.12-.1-.23-.14-.33.1.05.25.11.43.18l.06-.15s0-.03,0-.05h0s0-.35,0-.35c-.02-.01-.02-.03-.02-.04,0-.03.01-.07.02-.1,0,.03.01.06.02.09,0,.11-.01.24-.02.4l.13-.35.39-.09-.23-.33.61-1.62-.87,1.25-1.06-1.53.75,1.97-.19.27.25.06h-.29s-.19.27-.19.27l-.36.16.48.43c-.13,0-.25,0-.34.01-.17-.04-.3-.06-.36-.07l-.03-.23-.63.33-1.69-.89-1993.26,5.75v-4.91c0-160.94,19.36-321.42,57.56-476.98l1932.68,474.55L-808.06-381.63c74.73-142.15,166.72-275.25,273.4-395.62L957.97,545.66l.64.16-.37-3.09L-175.52-1095.74c132.52-91.7,275.98-167.16,426.37-224.3L958.08,541.41l-238.62-1976.89c79.38-9.58,160.31-14.44,240.54-14.44ZM958.67,546.28l-.02-.17h-.17s.19.17.19.17ZM960.68,546.38l-.11-.06s-.05.09-.07.15c.08-.04.14-.07.18-.09ZM960.56,546.96h0s0,0,0,0ZM960,546.96h0s0,0,0,0t0,0ZM959.99,547.49l.08-.21s-.05-.02-.07-.03h0s0,.07,0,.07v-.07s-.06.02-.09.03l.08.2ZM959.32,546.38s0,0,0,0h0s0,0,0,0ZM959.45,546.98l.17.15c-.09-.03-.17-.05-.25-.07l.08-.07ZM960.27,547.22c.16.14.3.25.41.33l-.11.07c.04.06-.05-.09-.32-.38h.02ZM959.74,547.24c-.19.21-.29.36-.34.43l-.08-.12c.11-.08.25-.19.4-.32l.02.02ZM961.4,548.12l.66.16,1493.94,1321.38c-106.31,120.19-227.04,227.47-358.83,318.85L961.76,551.06l-.36-2.94ZM958.59,548.12l-.35,2.95L-172.39,2191.83c-132.08-91.01-253.13-197.96-359.8-317.87L958,548.27l.6-.15ZM966.27,549.31l1933.52,472.67c-38.32,156.76-95.78,308.76-170.79,451.79L966.27,549.31ZM953.66,549.34l-1759.89,929.69c-75.42-142.77-133.33-294.56-172.11-451.15l1932-478.54ZM958.07,552.58l-234.3,1977.33c-160.38-19.01-318.2-57.53-469.08-114.5L958.07,552.58ZM961.95,552.65l709.11,1860.59c-150.64,57.41-308.28,96.41-468.53,115.92l-240.58-1976.51Z"/>
    </g>
  </g>
  <g id="hero-desktop-background-upper">
    <g class="cls-4">
      <g>
        <g>
          <path class="cls-5" d="M1933.01,2.11c-6.65,2.46-36.41,9.72-38.18-1.46-.29-1.83,1.45-2.7,2.48-3.97,4.42-5.51,8.55-11.93,13.82-16.73,3.64-3.32,8.25-6.08,12.42-8.42,9.49-5.34,20.43-10.13,30.17-3.73,9.39,6.17,1.46,17.59-4,23.23-5.46,5.64-9.06,8.26-16.71,11.08Z"/>
          <path class="cls-2" d="M1881.72,10.14c5.96-5.24,12.46-9.69,19.27-13.52,6.82-3.8,13.97-6.99,21.38-9.23-7.15,2.96-13.87,6.8-20.16,11.17-6.28,4.39-12.14,9.34-17.29,14.86l-3.2-3.28Z"/>
          <path class="cls-2" d="M1827.21-32.33c12.23,9.88,24.32,19.67,37.36,27.75,6.52,4.04,13.24,7.62,20.25,10.56,7.02,2.95,14.33,5.32,21.78,7.36,7.45,2.02,15.04,3.7,22.71,5.21,7.69,1.51,15.35,2.95,23.04,4.05,15.38,2.22,30.92,3.24,46.39,2.35,31.07-1.69,61.72-9.58,92.56-15.65,15.38-3.22,30.69-6.68,45.74-11.05,7.51-2.24,14.98-4.62,22.37-7.26,7.39-2.63,14.68-5.54,21.97-8.53-6.91,3.78-14.04,7.17-21.32,10.22-7.31,2.96-14.73,5.69-22.25,8.09-15.05,4.78-30.35,8.66-45.68,12.27l-22.99,5.35c-7.64,1.78-15.32,3.62-23.03,5.3-15.42,3.36-31.06,6.18-46.95,7.46-15.93,1.31-31.97.66-47.76-1.21-7.92-.92-15.75-2.2-23.53-3.52-7.8-1.34-15.63-2.86-23.41-4.76-7.78-1.91-15.5-4.27-23.05-7.25-7.56-2.99-14.84-6.69-21.77-10.8-13.9-8.23-26.51-18.06-38.93-27.69l6.52-8.23Z"/>
        </g>
        <g>
          <path class="cls-3" d="M1942.56,94.26c-1.26-7.62-4.97-31.97-16.91-30.68-1.95.21-1.88,2.46-2.56,3.95-2.97,6.41-6.78,13.19-8.27,20.1-1.03,4.78-1.36,10.14-1.34,14.72.05,10.45.92,22.15,10.91,26.95,9.99,4.81,15.43-6.84,17.37-14.64,1.94-7.8,2.26-11.64.8-20.4Z"/>
          <path class="cls-2" d="M1916.58,30.39c9.81,3.4,20.19,5.26,30.71,5.39,10.52.15,21.1-1.34,31.49-3.63-10.16,3.13-20.65,5.51-31.41,6.24-10.75.75-21.72-.28-32.28-2.99l1.5-5.01Z"/>
          <path class="cls-2" d="M1880.15,6.25c13.65,6.57,26.38,14.93,37.98,24.54,11.64,9.59,22.08,20.45,31.83,31.76,4.88,5.67,9.56,11.46,14.25,17.21,4.68,5.77,9.33,11.57,13.94,17.4,9.21,11.67,18.27,23.44,27.14,35.37,8.91,11.88,17.52,24.04,26.23,36,8.75,11.97,17.69,23.82,26.38,35.87,8.68,12.06,17.18,24.29,24.95,36.99,7.75,12.7,14.71,25.95,19.9,39.89-6.76-13.24-14.08-26.08-21.99-38.59-7.91-12.5-16.55-24.54-25.4-36.43-8.85-11.88-17.97-23.59-26.92-35.45-8.95-11.89-17.68-23.83-26.76-35.55-9.04-11.74-18.21-23.38-27.53-34.91-4.66-5.76-9.36-11.48-14.1-17.18-4.74-5.7-9.48-11.39-14.38-16.87-9.81-10.98-20.2-21.41-31.57-30.6-11.36-9.19-23.71-17.08-36.89-23.25l2.94-6.21Z"/>
        </g>
      </g>
      <g>
        <g>
          <path class="cls-5" d="M1860.43,332.79c-3.03,1.38-6.49,3.07-8.02,5.4-2.11,3.22-1.2,7.75,1.23,10.71,4.58,5.6,12.98,6.24,20.01,4.53,6.51-1.58,12.28-4.98,17.24-9.49,2.17-1.98,11.81-12.68,8.09-14.89-1.54-.91-3.4-1.04-5.18-1.14-6.13-.34-12.31-.69-18.41.09-4.14.53-8.27,1.58-12.03,3.44-.85.42-1.86.87-2.92,1.35Z"/>
          <path class="cls-5" d="M1946.32,354.54c-2.51-3.48-24.35-24.9-28.6-19.25-.7.92-.78,2.05-.85,3.13-.31,4.69-1.86,10.12-.96,14.85.62,3.27,2.39,6.99,3.79,10.22,3.18,7.37,8.43,14.92,19.61,17.28,10.89,1.81,12.07-8.07,11.89-13.13-.17-4.81-1.98-9.1-4.87-13.1Z"/>
          <path class="cls-5" d="M1870.92,289.49c3.77-1.69,7.62-2.79,10.89-3.2,6.35-.8,12.77-.07,19.12.66,3.87.44,14.54-.43,13.07,6.36-1.85,8.59-15.55,18.74-22.49,23.19-10.15,6.52-40.12,11.99-37.6-9.06.94-7.9,8.8-14.29,17-17.95Z"/>
          <path class="cls-5" d="M1877.54,376.61c-1.49,3.51-2.73,7.6-1.39,11.7,1.57,4.82,6.39,8.07,10.77,8.55,8.29.91,14.53-6.1,17.68-13.99,2.75-6.88,3.54-14.51,2.96-22.31-.39-5.15-1.34-17.94-9.1-12.53-10,6.97-15.47,17.39-20.92,28.58Z"/>
          <path class="cls-5" d="M1906.59,276.61c9.79-6.1,27.48-20.63,17.13-24.58-4.07-1.55-8.61,0-12.61.64-5.01.79-9.98,1.62-15.06,2.06-5.84.51-11.15.59-15.82,4.44-5.78,4.75-3.55,10.86,1.97,15.05,5.15,3.91,12.94,7.02,19.4,5.02,1-.31,2.8-1.25,4.99-2.62Z"/>
          <path class="cls-2" d="M1914.44,320.53l1.08,1.26c.36.42.6.84.9,1.26.6.84,1.08,1.69,1.6,2.54,1,1.71,1.91,3.43,2.78,5.17,1.74,3.48,3.33,7,4.84,10.56,1.49,3.57,2.9,7.16,4.17,10.81.63,1.82,1.23,3.66,1.76,5.52.49,1.86,1.02,3.74,1.12,5.67-.66-3.79-2.25-7.32-3.75-10.84-1.55-3.5-3.24-6.95-4.99-10.35-1.77-3.39-3.63-6.74-5.6-10-.98-1.63-2.01-3.23-3.08-4.76-1.06-1.51-2.23-3.04-3.37-4.1l2.56-2.75Z"/>
          <path class="cls-2" d="M1926.02,291.52c-1.03-.06-2.03-.21-3.18-.13l-1.68.04-1.72.14c-1.15.07-2.3.22-3.46.37-1.16.13-2.32.3-3.48.5-4.64.74-9.28,1.67-13.88,2.78-4.6,1.1-9.18,2.33-13.71,3.75l-3.37,1.12-3.33,1.24c-1.08.48-2.2.89-3.24,1.44l-1.58.82-1.45,1.03,1.36-1.16,1.51-.97c1.01-.65,2.09-1.15,3.14-1.74l3.24-1.54,3.29-1.43c4.42-1.83,8.91-3.46,13.45-4.98,4.54-1.52,9.14-2.87,13.82-4.05,1.17-.3,2.34-.58,3.53-.83,1.18-.26,2.37-.52,3.59-.71l1.82-.31,1.88-.21c1.22-.19,2.6-.15,3.95-.16l-.5,4.95Z"/>
          <path class="cls-2" d="M1912.47,325.61c-4.3,1.68-8.63,3.09-12.97,4.48-4.34,1.38-8.7,2.69-13.08,3.95-4.38,1.25-8.77,2.46-13.18,3.58-4.41,1.1-8.84,2.18-13.34,2.87,4.46-.91,8.82-2.19,13.16-3.5,4.34-1.33,8.66-2.74,12.96-4.2,4.3-1.47,8.57-2.99,12.83-4.57,4.24-1.59,8.49-3.22,12.58-5.04l1.04,2.43Z"/>
          <path class="cls-2" d="M1938.39,252.88c-3.25.7-6.52,1.61-9.77,2.53-3.25.93-6.48,1.92-9.71,2.94-3.22,1.03-6.43,2.09-9.62,3.22-3.18,1.14-6.37,2.31-9.44,3.74,3-1.58,6.13-2.9,9.26-4.2,3.14-1.29,6.3-2.51,9.48-3.7,3.18-1.18,6.37-2.33,9.59-3.42,3.22-1.09,6.44-2.15,9.77-3.05l.45,1.94Z"/>
          <path class="cls-2" d="M1959.33,213.34c-5.16,13.35-10.51,26.6-15.86,39.86l-16.33,39.65c-5.53,13.18-11.12,26.33-16.76,39.47l-8.53,19.67c-2.84,6.56-5.84,13.06-9.75,19.15,1.74-7.03,4.29-13.68,6.87-20.34l7.65-20.01,15.01-40.13,29.84-80.29,7.88,2.97Z"/>
        </g>
        <path class="cls-2" d="M1883.53,18.09c2.71,8.46,5.85,17.05,9,25.57,3.16,8.53,6.39,17.05,9.66,25.56,6.53,17.02,13.23,33.98,19.92,50.95,13.41,33.92,27.08,67.76,41.03,101.47,13.9,33.73,28.01,67.38,42.67,100.79,14.68,33.41,29.9,66.51,46.69,98.9-5.6-7.26-10.25-15.19-14.76-23.14l-3.31-6.01c-1.09-2.01-2.12-4.05-3.18-6.08-2.13-4.04-4.16-8.14-6.19-12.24-8.12-16.38-15.93-32.89-23.62-49.46-15.35-33.15-30.19-66.53-44.75-100.03-14.5-33.52-28.71-67.17-42.68-100.93-6.97-16.89-13.79-33.83-20.54-50.82-3.36-8.5-6.7-17.01-9.97-25.56-3.27-8.57-6.49-17.08-9.44-25.98l9.46-2.98Z"/>
      </g>
      <path class="cls-2" d="M1914.67,16.76c34.05,17.51,68.18,34.88,102.45,51.92,17.12,8.56,34.27,17.04,51.5,25.33l51.8,24.85,103.53,49.91c17.29,8.27,34.51,16.74,51.55,25.56,17.04,8.8,33.89,18.06,49.72,28.98-17.42-8.12-34.41-16.84-51.58-25.28-17.18-8.42-34.53-16.47-51.98-24.34l-104.6-47.64-52.25-23.96c-17.42-8.04-34.74-16.28-52.02-24.59-34.51-16.71-68.85-33.74-103.11-50.92l4.99-9.83Z"/>
    </g>
  </g>
</svg>