<?xml version="1.0" encoding="UTF-8"?>
<svg xmlns="http://www.w3.org/2000/svg" xmlns:xlink="http://www.w3.org/1999/xlink" viewBox="0 0 1204.06 164.09">
  <defs>
    <style>
      .cls-1 {
        fill: none;
      }

      .cls-2 {
        stroke: #aae028;
        stroke-linecap: round;
        stroke-linejoin: round;
        stroke-width: 10.72px;
      }

      .cls-2, .cls-3 {
        fill: #9bd415;
      }

      .cls-4 {
        fill: #bde4e6;
      }

      .cls-5 {
        fill: #f2f2f2;
      }

      .cls-6 {
        clip-path: url(#clippath);
      }
    </style>
    <clipPath id="clippath">
      <rect class="cls-1" x="1583.53" y="-699.17" width="1917" height="1078.31" transform="translate(5084.06 -320.02) rotate(-180)"/>
    </clipPath>
  </defs>
  <g id="hero-desktop-sunbeams">
    <g class="cls-6">
      <path class="cls-4" d="M2542.03-2149.92c79.45,0,159.6,4.77,238.22,14.16l-236.28,1977.1,705.25-1862.13c150.55,57.02,294.17,132.39,426.86,224.03L2543.8-157.17l-.35,2.97.61-.15,1491.5-1324.19c106.74,120.23,198.81,253.2,273.65,395.22L2548.3-155.4l1932.55-476.61c38.36,155.53,57.89,316,58.05,476.95l-1995.05,2.01h-.02s-.02,0-.02,0l-.51.06h0v-.1s-.25.04-.25.04c-.04,0-.08.02-.13.03-.09,0-.19,0-.31-.01l.08.07c-.09.03-.19.05-.29.09l.18-.16c-.08,0-.16,0-.26,0-.02.07-.05.13-.07.21,0,0,.02,0,0,0-.05.16-.1.33-.15.51l.05.12.33.08-.19.28.6,1.57-.84-1.22-.89,1.29.63-1.66-.18-.26.31-.08.06-.16c-.04-.17-.09-.32-.14-.47,0,0,0,0,0,0h0c-.02-.08-.05-.15-.07-.21-.09,0-.17,0-.25,0l.19-.17c-.05-.12-.1-.23-.14-.33.1.05.25.11.43.18l.06-.15s0-.03,0-.05h0s0-.35,0-.35c-.02-.01-.02-.03-.02-.04,0-.03.01-.07.02-.1,0,.03.01.06.02.09,0,.11-.01.24-.02.4l.13-.35.39-.09-.23-.33.61-1.62-.87,1.25-1.06-1.53.75,1.97-.19.27.25.06h-.29s-.19.27-.19.27l-.36.16.48.43c-.13,0-.25,0-.34.01-.17-.04-.3-.06-.36-.07l-.03-.23-.63.33-1.69-.89-1993.26,5.75v-4.91c0-160.94,19.36-321.42,57.56-476.98l1932.68,474.55-1761.43-926.16c74.73-142.15,166.72-275.25,273.4-395.62L2540-154.35l.64.16-.37-3.09-1133.76-1638.46c132.52-91.7,275.98-167.16,426.37-224.3L2540.11-158.6l-238.62-1976.89c79.38-9.58,160.31-14.44,240.54-14.44ZM2540.69-153.73l-.02-.17h-.17s.19.17.19.17ZM2542.71-153.63l-.11-.06s-.05.09-.07.15c.08-.04.14-.07.18-.09ZM2542.59-153.05h0s0,0,0,0ZM2542.03-153.05h0s0,0,0,0t0,0ZM2542.02-152.52l.08-.21s-.05-.02-.07-.03h0s0,.07,0,.07v-.07s-.06.02-.09.03l.08.2ZM2541.34-153.63s0,0,0,0h0s0,0,0,0ZM2541.48-153.03l.17.15c-.09-.03-.17-.05-.25-.07l.08-.07ZM2542.3-152.79c.16.14.3.25.41.33l-.11.07c.04.06-.05-.09-.32-.38h.02ZM2541.77-152.77c-.19.21-.29.36-.34.43l-.08-.12c.11-.08.25-.19.4-.32l.02.02ZM2543.43-151.89l.66.16,1493.94,1321.38c-106.31,120.19-227.04,227.47-358.83,318.85L2543.79-148.95l-.36-2.94ZM2540.62-151.89l-.35,2.95-1130.64,1640.76c-132.08-91.01-253.13-197.96-359.8-317.87L2540.02-151.74l.6-.15ZM2548.3-150.7l1933.52,472.67c-38.32,156.76-95.78,308.76-170.79,451.79L2548.3-150.7ZM2535.69-150.67L775.8,779.03c-75.42-142.77-133.33-294.56-172.11-451.15l1932-478.54ZM2540.09-147.43l-234.3,1977.33c-160.38-19.01-318.2-57.53-469.08-114.5L2540.09-147.43ZM2543.98-147.36l709.11,1860.59c-150.64,57.41-308.28,96.41-468.53,115.92l-240.58-1976.51Z"/>
    </g>
  </g>
  <g id="hero-desktop-h1-banner">
    <g>
      <path class="cls-2" d="M127.71,120.84c5.29-27.69,10.58-55.39,15.87-83.08-37.49-7.29-74.79-15.33-111.96-24.12,15.29,23,30.9,45.76,46.84,68.31-24.17,14.06-48.52,27.74-73.1,41.07,57.85,13.7,116.02,25.54,174.62,35.53,1.84-11.01,2.76-16.51,4.61-27.52-18.99-3.24-37.94-6.64-56.88-10.19Z"/>
      <path class="cls-2" d="M1076.35,120.84c-5.29-27.7-10.58-55.39-15.87-83.09,37.49-7.29,74.79-15.33,111.96-24.12-15.29,23-30.9,45.76-46.84,68.31,24.17,14.06,48.52,27.74,73.1,41.07-57.85,13.7-116.02,25.54-174.62,35.53-1.84-11.01-2.76-16.51-4.61-27.52,18.99-3.24,37.94-6.64,56.88-10.19Z"/>
      <path class="cls-2" d="M1068.84,115.9c-308.93,57.1-624.68,57.1-933.61,0,6.94-36.85,13.88-73.7,20.82-110.54,295.24,54.52,596.73,54.52,891.97,0,6.94,36.85,13.88,73.7,20.82,110.54Z"/>
      <path class="cls-3" d="M127.71,120.84c5.29-27.69,10.58-55.39,15.87-83.08-37.49-7.29-74.79-15.33-111.96-24.12,15.29,23,30.9,45.76,46.84,68.31-24.17,14.06-48.52,27.74-73.1,41.07,57.85,13.7,116.02,25.54,174.62,35.53,1.84-11.01,2.76-16.51,4.61-27.52-18.99-3.24-37.94-6.64-56.88-10.19Z"/>
      <path class="cls-3" d="M1076.35,120.84c-5.29-27.7-10.58-55.39-15.87-83.09,37.49-7.29,74.79-15.33,111.96-24.12-15.29,23-30.9,45.76-46.84,68.31,24.17,14.06,48.52,27.74,73.1,41.07-57.85,13.7-116.02,25.54-174.62,35.53-1.84-11.01-2.76-16.51-4.61-27.52,18.99-3.24,37.94-6.64,56.88-10.19Z"/>
      <path class="cls-3" d="M1068.84,115.9c-308.93,57.1-624.68,57.1-933.61,0,6.94-36.85,13.88-73.7,20.82-110.54,295.24,54.52,596.73,54.52,891.97,0,6.94,36.85,13.88,73.7,20.82,110.54Z"/>
    </g>
    <g>
      <path class="cls-5" d="M322.53,104.33c.41.63,1.21,2.05,1.05,3.68-.28,2.91-3.88,6.08-7.83,5.7-1.4-.13-2.73-.91-3.54-2.22l-12.42-19.11-3.61,2.7-1.06,10.94c-.15,1.57-.66,5.63-6.94,5.02-4.25-.41-6.43-2.15-6.03-6.28l3.8-39.33c.15-1.57.66-5.63,6.95-5.02,4.25.41,6.43,2.15,6.03,6.28l-1.1,11.4,17.81-13.49c1.52-1.14,2.52-1.75,4.21-1.59,3.26.31,6.39,4.38,6.13,6.99-.17,1.75-1.02,3.31-2.42,4.35l-13.75,10.41,12.73,19.55Z"/>
      <path class="cls-5" d="M341.93,110.51c-.17,1.98-.87,5.38-6.52,4.9-3.73-.32-6.38-1.48-6-5.96l2.31-27.13c.17-1.98.87-5.38,6.46-4.91,3.79.32,6.44,1.49,6.06,5.97l-2.31,27.13ZM345.71,70.19c-.31,3.61-3.48,6.39-7.2,6.07-3.61-.31-6.33-3.53-6.02-7.2.32-3.73,3.59-6.38,7.14-6.08,3.67.31,6.39,3.48,6.07,7.2Z"/>
      <path class="cls-5" d="M374.47,72.93c.15-1.98.81-5.39,6.41-4.98,3.73.28,6.45,1.47,6.13,5.9l-2.95,39.87c-.28,3.79-2.32,5.28-6.75,4.95-4.14-.31-5.5-1.7-5.84-4.24-1.52,1.53-3.89,3.52-8.03,3.21-9.38-.69-14.37-10.15-13.6-20.46.66-8.86,5.93-18.31,16.07-17.56,2.27.17,5.61,1,7.8,3.92l.79-10.61ZM362.73,98.5c-.16,2.16-.37,8.18,4.23,8.52,4.66.34,5.4-5.64,5.56-7.79.15-1.98.37-8.18-4.29-8.52-4.72-.35-5.36,5.93-5.5,7.8Z"/>
      <path class="cls-5" d="M424.92,93.13c-.13,2.1-1.95,4.16-6.03,3.91-2.51-.15-4.28-.9-5.05-2.71-.66-1.62-1.43-2.43-4.93-2.64-2.39-.14-4.19.57-4.26,1.67-.08,1.28,4.47,2.61,8.44,3.79,5.12,1.48,12.47,3.8,11.98,11.97-.59,9.68-9.45,12.01-17.68,11.52-11.9-.72-16.68-6.92-16.42-11.12.18-2.92,2.28-4.78,5.96-4.56,3.09.19,3.98,1.06,5.43,4.13.63,1.27,2.34,1.96,5.49,2.15,4.32.26,5.42-.55,5.49-1.72.08-1.28-.67-1.5-8.21-3.72-6.9-2.06-12.48-4.74-12.03-12.14.16-2.68,1.78-11.95,17-11.03,12.89.78,14.96,8.17,14.82,10.5Z"/>
      <path class="cls-5" d="M478.97,78.93c.06-1.58.34-5.66,6.65-5.41,4.26.17,6.54,1.78,6.37,5.92l-1.02,25.75c-.24,6.07-1.93,11.74-6.97,15.16-4.2,2.82-9.09,3.62-13.7,3.44-7.53-.3-13.14-3.38-16.03-7.36-2.33-3.19-3.2-7.9-3.01-12.75l1.02-25.81c.06-1.58.34-5.66,6.65-5.41,4.26.17,6.54,1.78,6.38,5.92l-1,25.4c-.08,2.1-.32,8.06,6.51,8.33,6.83.27,7.07-5.8,7.15-7.79l1-25.4Z"/>
      <path class="cls-5" d="M513.28,119.52c-.04,1.58-.25,5.67-6.56,5.52-4.26-.1-6.57-1.68-6.47-5.82l.83-34.99c.16-6.78,3.48-8.8,9.09-8.67l10.11.24c4.91.12,8.4.73,10.82,2.3,4.03,2.61,7.37,7.25,7.21,14.02-.16,6.6-3.55,11.61-7.4,13.97-2.91,1.8-7.01,2.23-11.39,2.13l-5.96-.14-.27,11.45ZM513.82,96.56l5.43.13c4.21.1,5.59-1.68,5.66-4.6.07-3.04-1.53-4.66-5.44-4.75l-4.21-.1c-.82-.02-1.24.38-1.25,1.14l-.19,8.18Z"/>
      <path class="cls-5" d="M591.59,80.96c0-1.58.12-5.67,6.44-5.66,4.27,0,6.6,1.53,6.6,5.68l-.05,39.51c0,3.57-2.4,5.67-8.54,5.66-3.1,0-7.48-.3-8.94-4.51l-9.78-28.36h-.12s.69,4.73.69,4.73l-.03,22.44c0,1.58-.12,5.67-6.44,5.66-4.27,0-6.6-1.53-6.6-5.68l.05-39.45c0-3.62,2.4-5.72,8.54-5.72,3.16,0,7.42.24,8.88,4.51l9.84,28.36h.12l-.69-4.74.03-22.44Z"/>
      <path class="cls-5" d="M623.51,110.56c.82,4.26,3.29,5.62,6.39,5.58,1.64-.02,3.62-.34,4.54-1.7.92-1.36,1.95-3.01,5.28-3.05,2.1-.03,6.03.56,6.08,4.53.03,2.16-3.14,9.74-15.06,9.91-16.65.23-19.5-11.48-19.6-18.85-.09-6.6,2.55-19.03,17.8-19.24,15.6-.21,17.26,14.55,17.29,16.42.08,6.08-5.88,6.16-7.81,6.18l-14.9.2ZM632.16,101.85c.76,0,1.4-.14,1.39-.95,0-.52-.69-3.5-4.55-3.44-3.97.05-4.81,2.93-5.26,4.51l8.42-.11Z"/>
      <path class="cls-5" d="M671.25,119.96c-.53,3.93-3.83,5.14-7.27,5.24-3.74.11-6.08-1.93-6.91-4.53l-8.35-25.95c-.13-.46-.27-1.4-.29-1.75-.12-4.03,3.29-5.53,6.33-5.62,1.69-.05,4.75.33,5.55,3.93l3.81,16.55c.14.7.26,1.04.61,1.03.35-.01.4-.36.5-1.07l1.99-15.96c.33-2.58,1.85-4.91,6.11-5.03,6.08-.18,6.87,2.9,7.21,4.64l2.86,15.82c.14.87.26,1.04.56,1.04.41-.01.4-.3.55-1.07l2.91-16.75c.15-.94.7-4.11,5.43-4.25,3.56-.1,6.43,1.86,6.52,5.07.02.82-.07,1.52-.18,1.93l-6.83,26.39c-1.05,4.06-4.54,4.87-6.99,4.94-2.04.06-6.38-.22-7.27-4.82l-3.5-17.96c-.07-.23-.14-.64-.43-.63-.35,0-.4.36-.45.66l-2.46,18.13Z"/>
      <path class="cls-5" d="M734.7,94.03c.09,2.1-1.5,4.34-5.59,4.52-2.51.11-4.35-.45-5.3-2.17-.83-1.54-1.68-2.27-5.18-2.11-2.39.11-4.11,1-4.06,2.11.06,1.28,4.72,2.13,8.79,2.89,5.25.94,12.8,2.48,13.17,10.65.43,9.69-8.15,12.94-16.38,13.3-11.91.53-17.31-5.15-17.5-9.35-.13-2.92,1.77-4.99,5.45-5.16,3.09-.14,4.06.64,5.83,3.55.75,1.19,2.53,1.7,5.68,1.56,4.32-.19,5.33-1.11,5.28-2.28-.06-1.28-.82-1.43-8.55-2.84-7.08-1.33-12.9-3.41-13.23-10.82-.12-2.69.52-12.08,15.76-12.75,12.9-.57,15.73,6.56,15.84,8.89Z"/>
      <path class="cls-5" d="M756.23,115.98c.11,1.98-.11,5.45-5.77,5.76-3.73.2-6.53-.58-6.77-5.08l-2.17-39.92c-.11-1.98.11-5.45,5.72-5.75,3.79-.21,6.59.64,6.83,5.07l2.17,39.92Z"/>
      <path class="cls-5" d="M774.75,104.92c1.03,4.21,3.57,5.45,6.66,5.25,1.63-.11,3.6-.53,4.44-1.93.85-1.4,1.79-3.1,5.11-3.32,2.1-.13,6.05.25,6.3,4.22.14,2.16-2.64,9.89-14.54,10.66-16.62,1.07-20.06-10.47-20.53-17.82-.43-6.59,1.58-19.13,16.79-20.11,15.57-1.01,17.98,13.65,18.1,15.52.39,6.06-5.56,6.45-7.48,6.57l-14.87.96ZM782.94,95.78c.76-.05,1.39-.21,1.34-1.02-.03-.53-.87-3.46-4.72-3.21-3.96.26-4.65,3.17-5.02,4.78l8.4-.54Z"/>
      <path class="cls-5" d="M804.38,75.49c-.15-1.98,0-5.45,5.59-5.88,3.73-.28,6.6.44,6.94,4.92l.45,5.89,2.16-.16c2.04-.16,4.72.4,5.03,4.54.36,4.78-2.89,5.2-4.29,5.31l-2.16.16,1.05,13.81c.21,2.74,1.2,2.66,2.77,2.54,3.15-.24,4.53,1.82,4.72,4.27.41,5.42-4.52,6.09-7.32,6.3-9.61.73-12.01-3.01-12.54-10.07l-1.21-15.91-1.17.09c-2.1.16-4.72-.4-5.03-4.54-.36-4.78,2.89-5.2,4.29-5.31l1.17-.09-.45-5.89Z"/>
      <path class="cls-5" d="M831.97,73.33c-.17-1.98-.05-5.45,5.54-5.93,3.73-.32,6.6.38,6.98,4.86l.5,5.88,2.15-.18c2.04-.17,4.72.36,5.08,4.49.41,4.77-2.84,5.23-4.24,5.35l-2.16.18,1.18,13.8c.23,2.74,1.22,2.65,2.8,2.52,3.14-.27,4.55,1.78,4.76,4.23.46,5.42-4.46,6.13-7.26,6.37-9.61.82-12.04-2.9-12.64-9.95l-1.36-15.9-1.17.1c-2.1.18-4.72-.36-5.08-4.49-.41-4.78,2.84-5.23,4.24-5.35l1.17-.1-.5-5.88Z"/>
      <path class="cls-5" d="M869,97.49c1.17,4.17,3.74,5.33,6.83,5.03,1.63-.16,3.58-.64,4.38-2.07.8-1.43,1.69-3.16,5.01-3.48,2.09-.2,6.05.06,6.43,4.02.21,2.15-2.32,9.97-14.19,11.12-16.58,1.6-20.38-9.83-21.09-17.16-.64-6.57.96-19.17,16.14-20.64,15.53-1.5,18.41,13.07,18.59,14.93.58,6.05-5.35,6.62-7.27,6.81l-14.83,1.43ZM876.9,88.1c.76-.07,1.38-.25,1.31-1.07-.05-.52-.98-3.43-4.82-3.06-3.96.38-4.55,3.32-4.87,4.93l8.38-.81Z"/>
      <path class="cls-5" d="M911.82,103.1c.21,1.97.18,5.45-5.45,6.06-3.72.41-6.55-.23-7.04-4.7l-2.95-27.07c-.26-2.38.11-5.48,5.45-6.06,5.64-.61,6.38,1.95,6.9,4.01,1.74-2.95,4.14-5.21,6.98-5.52,3.14-.34,5.75,2.02,6.16,5.85.16,1.45.48,6-4.58,7.08-3.28.65-7.53,1.58-6.97,6.75l1.48,13.59Z"/>
    </g>
  </g>
</svg>