<?xml version="1.0" encoding="UTF-8"?>
<svg id="mobile-h1-banner" xmlns="http://www.w3.org/2000/svg" viewBox="0 0 1107.4 178.88">
  <defs>
    <style>
      .cls-1 {
        stroke: #aae028;
        stroke-linecap: round;
        stroke-linejoin: round;
        stroke-width: 10.72px;
      }

      .cls-1, .cls-2 {
        fill: #9bd415;
      }
    </style>
  </defs>
  <path class="cls-1" d="M968.17,131.04c-4.3-30.61-8.59-61.23-12.89-91.84,41.45-5.96,82.73-12.74,123.91-20.36-17.99,24.36-36.31,48.44-54.99,72.27,25.71,16.7,51.64,33,77.83,48.93q-81.26,16.03-168.91,29.47c-1.42-12.15-2.57-17.84-3.99-29.99q20.69-4.14,39.03-8.48Z"/>
  <path class="cls-1" d="M962.59,126.56c-270.6,62.61-547.18,62.61-817.78,0,6.08-40.4,12.16-80.8,18.24-121.2,258.61,59.78,522.69,59.78,781.3,0,6.08,40.4,12.16,80.8,18.24,121.2Z"/>
  <path class="cls-1" d="M139.23,131.04c4.3-30.61,8.59-61.23,12.89-91.84-41.45-5.96-82.73-12.74-123.91-20.36,17.99,24.36,36.31,48.44,54.99,72.27-25.71,16.7-51.64,33-77.83,48.93q81.26,16.03,168.91,29.47c1.42-12.15,2.57-17.84,3.99-29.99q-20.69-4.14-39.03-8.48Z"/>
  <path class="cls-2" d="M968.17,131.04c-4.3-30.61-8.59-61.23-12.89-91.84,41.45-5.96,82.73-12.74,123.91-20.36-17.99,24.36-36.31,48.44-54.99,72.27,25.71,16.7,51.64,33,77.83,48.93q-81.26,16.03-168.91,29.47c-1.42-12.15-2.57-17.84-3.99-29.99q20.69-4.14,39.03-8.48Z"/>
  <path class="cls-2" d="M962.59,126.56c-270.6,62.61-547.18,62.61-817.78,0,6.08-40.4,12.16-80.8,18.24-121.2,258.61,59.78,522.69,59.78,781.3,0,6.08,40.4,12.16,80.8,18.24,121.2Z"/>
  <path class="cls-2" d="M139.23,131.04c4.3-30.61,8.59-61.23,12.89-91.84-41.45-5.96-82.73-12.74-123.91-20.36,17.99,24.36,36.31,48.44,54.99,72.27-25.71,16.7-51.64,33-77.83,48.93q81.26,16.03,168.91,29.47c1.42-12.15,2.57-17.84,3.99-29.99q-20.69-4.14-39.03-8.48Z"/>
</svg>