<?xml version="1.0" encoding="UTF-8"?>
<svg xmlns="http://www.w3.org/2000/svg" xmlns:xlink="http://www.w3.org/1999/xlink" viewBox="0 0 1125 1636">
  <defs>
    <style>
      .cls-1 {
        fill: none;
      }

      .cls-2 {
        fill: #9dc16e;
      }

      .cls-3 {
        fill: #86bd5b;
      }

      .cls-4 {
        fill: #9dcb69;
      }

      .cls-5 {
        fill: #ab9355;
      }

      .cls-6 {
        fill: #7dab47;
      }

      .cls-7 {
        fill: #bca0ca;
      }

      .cls-8 {
        fill: #7aab52;
      }

      .cls-9 {
        fill: #f3f1ea;
      }

      .cls-10 {
        clip-path: url(#clippath-1);
      }

      .cls-11 {
        clip-path: url(#clippath-3);
      }

      .cls-12 {
        clip-path: url(#clippath-4);
      }

      .cls-13 {
        clip-path: url(#clippath-2);
      }

      .cls-14 {
        clip-path: url(#clippath-7);
      }

      .cls-15 {
        clip-path: url(#clippath-6);
      }

      .cls-16 {
        clip-path: url(#clippath-9);
      }

      .cls-17 {
        clip-path: url(#clippath-8);
      }

      .cls-18 {
        clip-path: url(#clippath-5);
      }

      .cls-19 {
        fill: #7ab730;
      }

      .cls-20 {
        fill: #fff;
      }

      .cls-21 {
        fill: #5fa832;
      }

      .cls-22 {
        fill: #76bbce;
      }

      .cls-23 {
        fill: #fac54c;
      }

      .cls-24 {
        fill: #bde4e6;
      }

      .cls-25 {
        fill: #83b858;
      }

      .cls-26 {
        fill: #eb708f;
      }

      .cls-27 {
        clip-path: url(#clippath);
      }
    </style>
    <clipPath id="clippath">
      <rect class="cls-1" x="-1145" width="1125" height="1636"/>
    </clipPath>
    <clipPath id="clippath-1">
      <rect class="cls-1" x="-1699.64" y="-69.83" width="2232.28" height="1255.66" transform="translate(-1141.5 -25.5) rotate(-90)"/>
    </clipPath>
    <clipPath id="clippath-2">
      <rect class="cls-1" x="-1144" width="1123" height="404"/>
    </clipPath>
    <clipPath id="clippath-3">
      <rect class="cls-1" x="-520.5" width="500.5" height="418"/>
    </clipPath>
    <clipPath id="clippath-4">
      <rect class="cls-1" width="1125" height="1636"/>
    </clipPath>
    <clipPath id="clippath-5">
      <rect class="cls-1" x="-554.64" y="-69.83" width="2232.28" height="1255.66" transform="translate(3.5 1119.5) rotate(-90)"/>
    </clipPath>
    <clipPath id="clippath-6">
      <rect class="cls-1" x="1146" width="1123" height="404"/>
    </clipPath>
    <clipPath id="clippath-7">
      <rect class="cls-1" x="1145" width="489.27" height="388"/>
    </clipPath>
    <clipPath id="clippath-8">
      <rect class="cls-1" x="-1145" y="311" width="1125" height="1325"/>
    </clipPath>
    <clipPath id="clippath-9">
      <rect class="cls-1" x="-536.53" y="707" width="682.67" height="943.63" transform="translate(-390.4 2357.63) rotate(180)"/>
    </clipPath>
  </defs>
  <g id="mobile-hero-sunbeams">
    <g class="cls-27">
      <g class="cls-10">
        <path class="cls-24" d="M1733.68,558c0,92.52-5.55,185.85-16.49,277.4L-585.07,560.27l2168.38,821.24c-66.4,175.31-154.16,342.55-260.87,497.06L-586.81,560.06l-3.46-.41.17.71,1541.98,1736.79c-140,124.3-294.84,231.51-460.22,318.66L-588.87,565.3-33.87,2815.69c-181.11,44.67-367.97,67.41-555.39,67.6l-2.34-2323.17v-.03s0-.02,0-.02l-.07-.59h0s.12-.02.12-.02l-.05-.27s-.02-.1-.03-.15c0-.1.01-.22.02-.37l-.08.1c-.03-.11-.06-.22-.1-.34l.18.21c0-.09,0-.19,0-.3-.08-.03-.16-.06-.24-.08,0,0,0,.02,0,0-.18-.06-.38-.12-.59-.17l-.14.05-.09.38-.33-.22-1.83.7,1.42-.98-1.5-1.03,1.94.73.3-.21.09.36.18.07c.19-.05.38-.11.55-.17,0,0,0,0,0-.01h0c.08-.02.16-.05.24-.08,0-.11,0-.2,0-.29l.2.22c.14-.06.27-.11.39-.16-.06.12-.13.29-.21.5l.17.07s.04,0,.05,0h-.01s.42,0,.42,0c.01-.02.03-.02.04-.02.04,0,.08.02.11.02-.03,0-.07.02-.11.02-.13,0-.28-.01-.47-.02l.41.15.11.45.38-.26,1.89.72-1.46-1.01,1.78-1.23-2.3.87-.31-.22-.07.29v-.34s-.32-.22-.32-.22l-.19-.42-.5.56c0-.15-.01-.29-.02-.4.05-.2.07-.35.09-.42l.27-.03-.39-.73,1.04-1.97-6.7-2321.08h5.72c187.41,0,374.28,22.54,555.43,67.02L-588.78,550.28,489.7-1500.84c165.52,87.02,320.52,194.14,460.68,318.36L-590.09,555.63l-.18.75,3.6-.43L1321.26-764.27c106.78,154.32,194.65,321.36,261.19,496.49L-585.15,555.76,1716.87,277.9c11.16,92.43,16.82,186.67,16.82,280.1ZM-590.81,556.45l.19-.02v-.19s-.19.22-.19.22ZM-590.93,558.79l.07-.13c-.05-.03-.11-.06-.17-.09.04.1.08.17.11.21ZM-591.6,558.65h0s0,0,0,0ZM-591.61,558h0s0,0,0,0t0,0ZM-592.22,557.99l.25.09s.02-.05.03-.08h0s-.08,0-.08,0h.08s-.02-.07-.04-.1l-.24.09ZM-590.92,557.2s0,0,0,.01h0s0-.01,0-.01ZM-591.62,557.36l-.17.19c.03-.1.06-.2.09-.29l.09.1ZM-591.9,558.31c-.16.18-.29.35-.38.48l-.08-.12c-.07.04.1-.06.45-.37l.02.02ZM-591.93,557.7c-.24-.22-.42-.34-.5-.39l.14-.1c.09.13.22.29.38.47l-.02.02ZM-592.96,559.63l-.19.76-1538.7,1739.64c-139.96-123.8-264.88-264.38-371.29-417.84L-596.38,560.05l3.42-.42ZM-592.96,556.36l-3.43-.41-1910.6-1316.58c105.98-153.8,230.52-294.76,370.15-418.98L-593.13,555.67l.17.7ZM-594.34,565.3l-550.4,2251.52c-182.54-44.62-359.54-111.54-526.09-198.88L-594.34,565.3ZM-594.38,550.62L-1676.97-1498.71c166.25-87.82,343-155.25,525.35-200.42L-594.38,550.62ZM-598.15,555.75l-2302.53-272.83c22.13-186.76,66.99-370.53,133.33-546.22L-598.15,555.75ZM-598.22,560.28l-2166.59,825.73c-66.86-175.42-112.27-358.98-134.98-545.58L-598.22,560.28Z"/>
      </g>
    </g>
  </g>
  <g id="mobile-hero-background-upper">
    <g class="cls-13">
      <g class="cls-11">
        <path class="cls-2" d="M2.25,3.38c-12.33,8.86-24.86,17.91-38.57,25.38-6.84,3.72-13.99,7.04-21.4,9.66-7.4,2.62-14.94,4.62-22.52,6.19-7.58,1.57-15.19,2.76-22.77,3.78-7.56,1.01-15.17,1.96-22.85,2.58-15.32,1.26-30.83,1.32-46.17-.5-15.3-1.79-30.3-5.06-45.08-8.84-7.39-1.89-14.74-3.93-22.05-5.92l-22.01-5.97c-14.68-4.02-29.32-8.3-43.69-13.44-7.18-2.58-14.24-5.47-21.2-8.59-6.92-3.2-13.69-6.73-20.23-10.61,6.94,3.14,13.87,6.21,20.92,9.01,7.04,2.81,14.17,5.37,21.34,7.79,14.39,4.75,29.05,8.63,43.79,12.27,29.57,6.93,58.89,15.63,88.83,18.35,14.91,1.39,29.95.95,44.88-.65,7.46-.79,14.92-1.91,22.39-3.1,7.45-1.19,14.84-2.55,22.11-4.24,3.63-.85,7.22-1.81,10.79-2.84,3.55-1.07,7.06-2.21,10.5-3.51,6.87-2.59,13.49-5.82,19.92-9.49C-27.93,13.34-15.91,4.32-3.75-4.8L2.25,3.38Z"/>
        <g>
          <g>
            <path class="cls-19" d="M-1.55,398.84c.16.76.38,1.51.65,2.27.88,2.48,3.73,5.37,5.82,6.97,3.86,2.95,9.47,3.27,13.22,1.67,7.1-3.01,8.27-11.12,6.51-18.5-2.03-8.51-7.16-15.65-13.03-21.96-3.12-3.35-6.6-7.54-10.38-10.12-8.96-6.12-5.7,4.16-5.29,9.28.81,10.23.31,20.24,2.51,30.39Z"/>
            <path class="cls-19" d="M18.31,280.26c4.37.07,9.09.6,11.81,3.44,3.2,3.34,2.45,8.96-.51,13.08-5.59,7.79-16.87,10.57-26.55,10.24-6-.21-13-1.92-17.61-5.96-5.25-4.6-9.58-10.06-12.53-16.41-.49-1.04-.94-2.23-.58-3.32.56-1.7,2.69-2.2,4.47-2.36,7.29-.65,13.52.86,20.53,1.95,6.76,1.05,14.11-.78,20.97-.66Z"/>
            <path class="cls-6" d="M14.14,348.84c-4.45-2.8-24.33-11.81-21.27-19.77.93-2.4,4.02-2.94,6.59-3.12,6.95-.47,13.95-.93,20.85-.05,9.43,1.2,17.38,4.41,21.78,13,4.41,8.61-.77,17.17-10.9,16.85-6.21-.2-11.8-3.61-17.06-6.92Z"/>
            <path class="cls-21" d="M-21.65,255.9c-5.58-1.69-10.84-4.24-14.96-7.13-4.96-3.47-17.4-14.64-6.72-19.05,5.24-2.16,11.17-3.26,16.76-4.01,7.26-.97,14.48-2.25,21.81-2.67,5.15-.3,10.44-.73,14.94.85,4.5,1.58,8.15,5.61,8.1,11.51-.08,9.14-9.11,18.76-17.35,21.39-6.74,2.15-14.95,1.42-22.57-.89Z"/>
            <path class="cls-2" d="M-18.03,324.24l1.53.06c.51.02.94.13,1.42.19.94.12,1.82.33,2.71.52,1.77.4,3.5.87,5.21,1.37,3.43,1.01,6.79,2.15,10.13,3.37,3.33,1.23,6.63,2.54,9.87,3.97,1.62.72,3.23,1.47,4.81,2.27,1.56.84,3.15,1.66,4.51,2.79-1.45-1.02-3.08-1.7-4.69-2.4-1.63-.67-3.28-1.29-4.94-1.86-3.33-1.15-6.7-2.18-10.09-3.13-3.39-.94-6.8-1.78-10.23-2.5-1.71-.36-3.43-.67-5.13-.91-.85-.1-1.71-.24-2.52-.27-.41-.02-.84-.08-1.22-.06l-1.12.04-.25-3.44Z"/>
            <path class="cls-2" d="M-44.3,269.47c.78.66,1.49,1.36,2.39,1.95l1.3.92,1.36.85c.9.58,1.84,1.12,2.78,1.65.93.55,1.89,1.06,2.85,1.56,3.84,2.02,7.78,3.9,11.78,5.62,4,1.73,8.05,3.35,12.16,4.8l3.1,1.03,3.14.93c1.06.24,2.11.55,3.18.73l1.61.26,1.64.04-1.64.04-1.63-.19c-1.09-.13-2.15-.39-3.23-.58l-3.19-.79-3.16-.89c-4.2-1.26-8.33-2.7-12.43-4.25-4.1-1.55-8.15-3.25-12.13-5.12-1-.46-1.99-.94-2.97-1.45-.99-.5-1.97-1-2.93-1.56l-1.45-.82-1.42-.91c-.96-.57-1.86-1.34-2.78-2.07l1.68-1.76Z"/>
            <path class="cls-2" d="M-195.67-71.25c8.37,18.88,16.46,37.8,24.59,56.72l24.35,56.74c8.16,18.89,16.29,37.79,24.57,56.61,4.15,9.4,8.31,18.8,12.6,28.11,2.11,4.68,4.33,9.27,6.51,13.91l6.66,13.93,53.1,111.51,13.28,27.89c4.39,9.32,8.72,18.68,12.93,28.09,8.42,18.81,16.62,37.77,22.5,57.59-9.14-18.52-17.33-37.33-26.17-55.9-4.41-9.28-8.93-18.51-13.52-27.71l-13.89-27.56-55.39-110.4-6.9-13.81c-2.26-4.64-4.57-9.3-6.74-13.97-4.43-9.33-8.7-18.71-12.97-28.1-8.52-18.77-16.88-37.59-25.15-56.45l-24.78-56.57c-8.26-18.85-16.5-37.72-24.95-56.41l9.37-4.22Z"/>
          </g>
          <g>
            <path class="cls-6" d="M33.81,233.42c1.79,2.23,3.93,4.76,6.2,5.54,3.13,1.08,6.71-.64,8.67-3.29,3.7-5,2.45-12.14-.46-17.63-2.7-5.09-6.75-9.18-11.56-12.35-2.11-1.39-13.07-7.15-14.12-3.59-.44,1.47-.14,3.05.15,4.56,1.01,5.18,2.04,10.4,3.97,15.32,1.31,3.34,3.07,6.55,5.41,9.3.53.62,1.12,1.37,1.74,2.15Z"/>
            <path class="cls-6" d="M24.23,158.49c2.45-2.77,4.86-6.18,4.9-10.57.04-5.16-3.4-10.06-7.29-12.17-7.36-3.98-15.28.32-20.62,6.62-8.36,9.86-12.83,24.16-8.61,36.7,2.55.56,5.1-.78,7.37-2.07,4.05-2.3,8.71-4.08,12.23-7.07,4.16-3.53,8.31-7.44,12.01-11.44Z"/>
            <path class="cls-19" d="M33.74,157.26c-2.37,2.83-15.59,25.56-9.98,27.91.92.38,1.87.22,2.79.05,3.97-.73,8.82-.59,12.58-2.34,2.59-1.21,5.32-3.47,7.71-5.32,5.47-4.21,10.65-10.18,10.25-20-.8-9.46-9.28-8.35-13.46-7.12-3.97,1.16-7.16,3.57-9.89,6.83Z"/>
            <path class="cls-19" d="M-4.48,233.85c-2.2-2.79-3.94-5.76-4.98-8.4-2.01-5.12-2.76-10.63-3.5-16.07-.45-3.32-3.44-12.02,2.53-12.24,7.55-.27,18.91,8.99,24.09,13.82,7.58,7.08,18.48,30.89.41,33.25-6.78.89-13.77-4.31-18.55-10.36Z"/>
            <path class="cls-19" d="M66.7,209.89c3.24.49,6.91.66,10.04-1.32,3.68-2.33,5.37-7.03,4.85-10.79-1-7.1-8.16-10.81-15.4-11.77-6.31-.83-12.84.12-19.22,2.26-4.21,1.41-14.66,4.92-8.51,10.24,7.92,6.86,17.77,9.21,28.24,11.37Z"/>
            <path class="cls-2" d="M12.15,191.02l.82-1.17c.28-.39.58-.68.86-1.02.57-.68,1.18-1.26,1.78-1.87,1.21-1.19,2.45-2.32,3.72-3.41,2.53-2.18,5.13-4.26,7.78-6.27,2.66-2,5.35-3.93,8.12-5.76,2.78-1.79,5.58-3.66,8.71-4.77-3.02,1.36-5.62,3.43-8.24,5.42-2.59,2.04-5.11,4.17-7.57,6.35-2.45,2.19-4.85,4.45-7.14,6.78-1.15,1.16-2.26,2.36-3.31,3.57-1.04,1.21-2.07,2.5-2.7,3.68l-2.83-1.55Z"/>
            <path class="cls-2" d="M-14.47,187.52c.17.87.26,1.73.56,2.68l.39,1.39.48,1.4c.31.94.67,1.87,1.04,2.8.36.94.74,1.87,1.15,2.79,1.6,3.71,3.36,7.38,5.26,10.98,1.89,3.6,3.88,7.16,6.03,10.62l1.65,2.57,1.74,2.51c.63.79,1.21,1.64,1.89,2.4l1.02,1.14,1.17.99-1.26-.89-1.12-1.05c-.75-.7-1.4-1.5-2.11-2.25l-1.97-2.37-1.88-2.44c-2.46-3.29-4.77-6.69-7-10.16-2.23-3.46-4.33-7.01-6.3-10.66-.5-.91-.98-1.83-1.44-2.77-.47-.93-.93-1.87-1.35-2.84l-.64-1.45-.57-1.52c-.41-.98-.68-2.14-.97-3.25l4.23-.63Z"/>
            <path class="cls-2" d="M-21.93,186.97c.86-.41,1.74-.75,2.59-1.29l1.28-.75,1.26-.83c.85-.54,1.66-1.13,2.48-1.73.83-.58,1.63-1.2,2.43-1.83,3.21-2.49,6.33-5.12,9.35-7.86,3.02-2.74,5.97-5.56,8.8-8.5l2.08-2.24,2-2.31c.61-.81,1.29-1.58,1.85-2.43l.85-1.27.67-1.38-.6,1.41-.79,1.32c-.53.88-1.17,1.68-1.75,2.53l-1.9,2.41-1.98,2.35c-2.7,3.09-5.53,6.05-8.44,8.95-2.91,2.9-5.92,5.68-9.05,8.36-.78.67-1.57,1.33-2.38,1.97-.8.65-1.61,1.29-2.46,1.89l-1.26.92-1.33.86c-.85.6-1.86,1.07-2.84,1.57l-.84-2.11Z"/>
            <path class="cls-2" d="M16.81,191.59c2.31,3.23,4.4,6.53,6.48,9.86,2.07,3.33,4.09,6.68,6.06,10.06,1.97,3.38,3.9,6.78,5.77,10.22,1.85,3.44,3.69,6.91,5.21,10.51-1.7-3.52-3.69-6.88-5.71-10.22-2.03-3.34-4.12-6.63-6.24-9.91-2.13-3.27-4.31-6.51-6.52-9.72-2.22-3.2-4.48-6.39-6.86-9.41l1.81-1.38Z"/>
            <path class="cls-2" d="M-86.65,176.32c12.22,1.47,24.39,3.12,36.56,4.78l36.49,5.21c12.15,1.82,24.3,3.69,36.43,5.61l18.2,2.94c6.06.98,12.12,2.1,18.02,4.07-6.22.04-12.31-.67-18.4-1.41l-18.29-2.13-36.61-4.01-73.21-7.85.81-7.19Z"/>
          </g>
        </g>
        <g>
          <path class="cls-21" d="M-7.01,69.66c-2.32.88-17.53,9.81-15.02,13.03.41.53,1.02.74,1.62.95,2.56.88,5.35,2.56,8.12,2.77,1.91.15,4.25-.28,6.26-.57,4.58-.66,9.58-2.45,12.58-8.32,2.65-5.79-2.68-7.93-5.52-8.59-2.7-.63-5.37-.27-8.03.74Z"/>
          <path class="cls-19" d="M-5.07,111.28c1.73,1.36,3.82,2.66,6.31,2.54,2.92-.15,5.46-2.34,6.38-4.71,1.75-4.48-1.21-9.01-5.13-11.95-3.42-2.56-7.55-4.16-11.98-5-2.93-.56-10.19-1.95-8.35,3.18,2.37,6.62,7.36,11.23,12.77,15.95Z"/>
        </g>
      </g>
    </g>
    <g class="cls-12">
      <g class="cls-18">
        <path class="cls-24" d="M2878.68,558c0,92.52-5.55,185.85-16.49,277.4L559.93,560.27l2168.38,821.24c-66.4,175.31-154.16,342.55-260.87,497.06L558.19,560.06l-3.46-.41.17.71,1541.98,1736.79c-140,124.3-294.84,231.51-460.22,318.66L556.13,565.3l555,2250.39c-181.11,44.67-367.97,67.41-555.39,67.6l-2.34-2323.17v-.03s0-.02,0-.02l-.07-.59h0s.12-.02.12-.02l-.05-.27s-.02-.1-.03-.15c0-.1.01-.22.02-.37l-.08.1c-.03-.11-.06-.22-.1-.34l.18.21c0-.09,0-.19,0-.3-.08-.03-.16-.06-.24-.08,0,0,0,.02,0,0-.18-.06-.38-.12-.59-.17l-.14.05-.09.38-.33-.22-1.83.7,1.42-.98-1.5-1.03,1.94.73.3-.21.09.36.18.07c.19-.05.38-.11.55-.17,0,0,0,0,0-.01h0c.08-.02.16-.05.24-.08,0-.11,0-.2,0-.29l.2.22c.14-.06.27-.11.39-.16-.06.12-.13.29-.21.5l.17.07s.04,0,.05,0h-.01s.42,0,.42,0c.01-.02.03-.02.04-.02.04,0,.08.02.11.02-.03,0-.07.02-.11.02-.13,0-.28-.01-.47-.02l.41.15.11.45.38-.26,1.89.72-1.46-1.01,1.78-1.23-2.3.87-.31-.22-.07.29v-.34s-.32-.22-.32-.22l-.19-.42-.5.56c0-.15-.01-.29-.02-.4.05-.2.07-.35.09-.42l.27-.03-.39-.73,1.04-1.97-6.7-2321.08h5.72c187.41,0,374.28,22.54,555.43,67.02L556.22,550.28,1634.7-1500.84c165.52,87.02,320.52,194.14,460.68,318.36L554.91,555.63l-.18.75,3.6-.43,1907.93-1320.22c106.78,154.32,194.65,321.36,261.19,496.49L559.85,555.76l2302.01-277.87c11.16,92.43,16.82,186.67,16.82,280.1ZM554.19,556.45l.19-.02v-.19s-.19.22-.19.22ZM554.07,558.79l.07-.13c-.05-.03-.11-.06-.17-.09.04.1.08.17.11.21ZM553.4,558.65h0s0,0,0,0ZM553.39,558h0s0,0,0,0t0,0ZM552.78,557.99l.25.09s.02-.05.03-.08h0s-.08,0-.08,0h.08s-.02-.07-.04-.1l-.24.09ZM554.08,557.2s0,0,0,.01h0s0-.01,0-.01ZM553.38,557.36l-.17.19c.03-.1.06-.2.09-.29l.09.1ZM553.1,558.31c-.16.18-.29.35-.38.48l-.08-.12c-.07.04.1-.06.45-.37l.02.02ZM553.07,557.7c-.24-.22-.42-.34-.5-.39l.14-.1c.09.13.22.29.38.47l-.02.02ZM552.04,559.63l-.19.76-1538.7,1739.64c-139.96-123.8-264.88-264.38-371.29-417.84L548.62,560.05l3.42-.42ZM552.04,556.36l-3.43-.41L-1361.99-760.63c105.98-153.8,230.52-294.76,370.15-418.98L551.87,555.67l.17.7ZM550.66,565.3L.26,2816.82c-182.54-44.62-359.54-111.54-526.09-198.88L550.66,565.3ZM550.62,550.62L-531.97-1498.71c166.25-87.82,343-155.25,525.35-200.42L550.62,550.62ZM546.85,555.75L-1755.68,282.91c22.13-186.76,66.99-370.53,133.33-546.22L546.85,555.75ZM546.78,560.28l-2166.59,825.73c-66.86-175.42-112.27-358.98-134.98-545.58L546.78,560.28Z"/>
      </g>
    </g>
    <g class="cls-15">
      <g class="cls-14">
        <g>
          <g>
            <path class="cls-19" d="M1139.43,1.55c-5.3,1.96-29.01,7.75-30.43-1.16-.23-1.46,1.16-2.15,1.97-3.17,3.52-4.39,6.82-9.51,11.02-13.33,2.9-2.65,6.58-4.85,9.9-6.71,7.57-4.26,16.28-8.07,24.05-2.97,7.49,4.92,1.16,14.02-3.19,18.51-4.35,4.49-7.22,6.58-13.32,8.83Z"/>
            <path class="cls-2" d="M1098.55,7.95c4.75-4.18,9.93-7.73,15.36-10.78,5.43-3.03,11.13-5.57,17.04-7.35-5.7,2.36-11.05,5.42-16.07,8.9-5,3.5-9.68,7.45-13.78,11.84l-2.55-2.62Z"/>
            <path class="cls-2" d="M1055.11-25.9c9.74,7.88,19.38,15.68,29.78,22.12,5.2,3.22,10.55,6.08,16.14,8.42,5.6,2.35,11.42,4.24,17.36,5.87,5.94,1.61,11.99,2.95,18.1,4.16,6.13,1.2,12.24,2.35,18.36,3.22,12.26,1.77,24.64,2.58,36.97,1.88,24.76-1.35,49.19-7.64,73.77-12.47,12.26-2.56,24.46-5.33,36.46-8.81,5.98-1.79,11.94-3.68,17.82-5.79,5.89-2.1,11.7-4.42,17.51-6.8-5.51,3.01-11.19,5.71-16.99,8.14-5.83,2.36-11.74,4.53-17.73,6.44-11.99,3.81-24.19,6.9-36.41,9.78l-18.32,4.26c-6.09,1.42-12.21,2.88-18.35,4.22-12.29,2.67-24.75,4.92-37.42,5.94-12.69,1.04-25.48.53-38.07-.97-6.31-.74-12.55-1.75-18.75-2.81-6.22-1.07-12.45-2.28-18.65-3.8-6.2-1.52-12.36-3.4-18.37-5.78-6.03-2.38-11.83-5.33-17.35-8.6-11.07-6.56-21.13-14.39-31.03-22.07l5.2-6.56Z"/>
          </g>
          <g>
            <path class="cls-6" d="M1147.04,74.99c-1.01-6.07-3.96-25.48-13.48-24.45-1.56.17-1.49,1.96-2.04,3.14-2.37,5.11-5.4,10.51-6.59,16.02-.82,3.81-1.08,8.08-1.07,11.73.04,8.33.73,17.65,8.7,21.48,7.97,3.83,12.3-5.45,13.85-11.67,1.55-6.21,1.8-9.27.64-16.26Z"/>
            <path class="cls-2" d="M1097.3,4.85c10.87,5.24,21.02,11.9,30.27,19.56,9.28,7.64,17.6,16.3,25.37,25.32,3.89,4.52,7.62,9.13,11.36,13.72,3.73,4.6,7.44,9.22,11.11,13.87,7.34,9.3,14.56,18.69,21.63,28.19,7.1,9.47,13.96,19.16,20.91,28.69,6.97,9.54,14.1,18.98,21.03,28.59,6.92,9.61,13.69,19.36,19.88,29.48,6.18,10.12,11.72,20.69,15.86,31.79-5.39-10.55-11.22-20.79-17.52-30.76-6.31-9.96-13.19-19.56-20.24-29.03-7.05-9.47-14.32-18.8-21.46-28.25-7.13-9.48-14.09-18.99-21.33-28.34-7.2-9.36-14.51-18.64-21.94-27.82-3.72-4.59-7.46-9.15-11.24-13.69-3.78-4.54-7.56-9.08-11.46-13.45-7.82-8.75-16.1-17.07-25.16-24.39-9.05-7.32-18.9-13.62-29.4-18.53l2.34-4.95Z"/>
          </g>
        </g>
        <g>
          <g>
            <path class="cls-19" d="M1081.59,265.1c-2.42,1.1-5.17,2.45-6.39,4.31-1.68,2.57-.95,6.18.98,8.54,3.65,4.46,10.35,4.97,15.95,3.61,5.19-1.26,9.79-3.97,13.74-7.57,1.73-1.58,9.41-10.11,6.45-11.87-1.22-.73-2.71-.83-4.13-.91-4.89-.27-9.81-.55-14.68.07-3.3.42-6.59,1.26-9.59,2.74-.68.34-1.48.69-2.33,1.08Z"/>
            <path class="cls-19" d="M1089.94,230.59c3.01-1.34,6.07-2.23,8.68-2.55,5.06-.64,10.18-.05,15.24.53,3.08.35,11.58-.34,10.42,5.06-1.48,6.84-12.39,14.94-17.92,18.49-8.09,5.19-31.97,9.55-29.97-7.22.75-6.3,7.02-11.39,13.55-14.3Z"/>
            <path class="cls-19" d="M1095.22,300.02c-1.18,2.8-2.18,6.06-1.11,9.33,1.25,3.84,5.09,6.43,8.59,6.82,6.6.73,11.58-4.86,14.09-11.15,2.19-5.48,2.82-11.56,2.36-17.78-.31-4.11-1.07-14.29-7.26-9.99-7.97,5.55-12.33,13.86-16.67,22.78Z"/>
            <path class="cls-19" d="M1118.37,220.32c7.81-4.87,21.9-16.45,13.65-19.59-3.24-1.23-6.86,0-10.05.51-3.99.63-7.96,1.29-12,1.64-4.66.4-8.89.47-12.61,3.53-4.6,3.79-2.83,8.66,1.57,11.99,4.11,3.11,10.31,5.59,15.46,4,.79-.25,2.23-1,3.98-2.09Z"/>
            <path class="cls-2" d="M1124.63,255.32l.86,1.01c.29.34.48.67.72,1.01.48.67.86,1.35,1.27,2.03.79,1.36,1.52,2.73,2.21,4.12,1.38,2.77,2.66,5.58,3.85,8.42,1.19,2.84,2.31,5.71,3.32,8.61.51,1.45.98,2.92,1.4,4.4.39,1.48.81,2.98.89,4.52-.53-3.02-1.79-5.84-2.99-8.64-1.24-2.79-2.58-5.54-3.98-8.25-1.41-2.71-2.89-5.37-4.46-7.97-.78-1.3-1.6-2.57-2.45-3.79-.85-1.21-1.77-2.43-2.69-3.26l2.04-2.19Z"/>
            <path class="cls-2" d="M1133.86,232.2c-.82-.05-1.62-.16-2.53-.11l-1.34.03-1.37.11c-.91.06-1.83.18-2.76.3-.92.11-1.85.24-2.77.4-3.7.59-7.4,1.33-11.06,2.22-3.67.88-7.32,1.86-10.92,2.99l-2.69.9-2.66.99c-.86.38-1.75.71-2.58,1.15l-1.26.66-1.15.82,1.09-.93,1.2-.77c.81-.52,1.67-.92,2.5-1.38l2.58-1.22,2.62-1.14c3.52-1.46,7.1-2.76,10.72-3.97,3.62-1.21,7.28-2.29,11.01-3.22.93-.24,1.87-.46,2.82-.66.94-.21,1.89-.41,2.86-.56l1.45-.25,1.49-.17c.97-.15,2.07-.12,3.15-.13l-.4,3.95Z"/>
            <path class="cls-2" d="M1123.06,259.38c-3.43,1.34-6.87,2.47-10.34,3.57-3.46,1.1-6.94,2.15-10.42,3.15-3.49,1-6.99,1.96-10.5,2.85-3.52.88-7.05,1.74-10.63,2.29,3.55-.72,7.03-1.75,10.49-2.79,3.46-1.06,6.9-2.18,10.33-3.35,3.42-1.17,6.83-2.38,10.22-3.64,3.38-1.27,6.77-2.56,10.02-4.02l.83,1.94Z"/>
            <path class="cls-2" d="M1143.72,201.41c-2.59.56-5.2,1.28-7.79,2.02-2.59.74-5.17,1.53-7.74,2.34-2.57.82-5.13,1.67-7.67,2.57-2.54.91-5.07,1.84-7.52,2.98,2.39-1.26,4.88-2.31,7.38-3.35,2.5-1.03,5.02-2,7.55-2.95,2.53-.94,5.08-1.85,7.64-2.73,2.57-.87,5.13-1.72,7.78-2.43l.36,1.55Z"/>
            <path class="cls-2" d="M1160.41,169.9c-4.11,10.64-8.37,21.2-12.64,31.76l-13.01,31.6c-4.41,10.5-8.86,20.99-13.36,31.46l-6.8,15.68c-2.26,5.22-4.65,10.41-7.77,15.27,1.38-5.6,3.42-10.91,5.47-16.21l6.09-15.95,11.96-31.98,23.78-63.99,6.28,2.37Z"/>
          </g>
          <path class="cls-2" d="M1099.99,14.29c2.16,6.74,4.66,13.59,7.17,20.38,2.52,6.8,5.1,13.59,7.7,20.37,5.2,13.56,10.54,27.08,15.88,40.6,10.69,27.04,21.58,54,32.7,80.87,11.08,26.88,22.32,53.7,34.01,80.32,11.7,26.63,23.83,53.01,37.21,78.82-4.46-5.79-8.17-12.11-11.77-18.45l-2.64-4.79c-.87-1.6-1.69-3.23-2.53-4.84-1.7-3.22-3.31-6.49-4.93-9.75-6.47-13.05-12.7-26.21-18.82-39.42-12.24-26.42-24.06-53.02-35.66-79.72-11.56-26.72-22.88-53.53-34.01-80.44-5.55-13.46-10.99-26.96-16.37-40.5-2.68-6.77-5.34-13.56-7.94-20.37-2.61-6.83-5.18-13.62-7.53-20.71l7.54-2.37Z"/>
        </g>
        <path class="cls-2" d="M1124.81,13.23c27.14,13.96,54.34,27.8,81.65,41.38,13.64,6.82,27.31,13.58,41.05,20.19l41.29,19.8,82.51,39.78c13.78,6.59,27.51,13.34,41.08,20.37,13.58,7.01,27.01,14.39,39.62,23.1-13.88-6.47-27.43-13.42-41.11-20.15-13.69-6.71-27.52-13.12-41.43-19.39l-83.37-37.96-41.64-19.09c-13.89-6.41-27.69-12.98-41.46-19.59-27.51-13.32-54.87-26.89-82.18-40.58l3.98-7.83Z"/>
      </g>
    </g>
  </g>
  <g id="mobile-hero-background-lower">
    <g class="cls-17">
      <path class="cls-20" d="M333,727.79c-12.97-1.62-29.68.26-51.22,8.27-35.09,13.06-52.16,67.07-52.16,67.07,0,0,5.51-24.35-22.27-29.8-24.16-4.75-33.62,13.03-33.62,13.03,0,0-37.26-13.04-83.83,13.04-104.6,58.58-74.52,231.01-74.52,231.01,0,0-7.45-42.85-106.19-57.75-98.74-14.9-121.09,74.52-121.09,74.52,0,0-37.26-24.22-72.66,0-31.5,21.55-30.54,62.29-29.95,70.99-1.57-15.53-19.31-134.77-193.61-126.88-123.97,5.61-160.22,80.11-160.22,80.11-11.18-33.53-55.89-37.26-87.56-33.53-31.67,3.73-46.57,37.26-46.57,37.26,0,0-13.04-13.04-33.53-14.9-20.49-1.86-37.26,20.49-37.26,20.49,0-44.71-31.67-119.23-98.74-136-67.07-16.77-124.82,35.4-124.82,35.4,1.86-27.94,1.86-91.29-39.12-102.46-40.99-11.18-67.07,18.63-67.07,18.63,0,0,29.81-33.53,22.36-81.97-15.67-101.86-119.2-85.52-119.2-85.52-17.78-43.19-67.1-29.98-67.1-29.98,0-29.81-29.81-74.52-100.6-96.88-39.03-12.33-82.39-4.19-113.44,5.59v798.48H333v-678.21Z"/>
      <g>
        <g>
          <path class="cls-8" d="M-628.46,1452.68c-.56-9.05,11.01-17.24,26.38-19.11-.16-5.97,2.66-13.1,7.98-19.56-5.5-2.17-9.66-6.42-10.9-11.96-1.13-5.05.39-10.16,3.73-14.29-11.72-1.65-20.44-7.91-20.08-14.93.4-7.76,11.73-13.49,25.31-12.79,3.25.17,6.33.69,9.13,1.49-2.79-5.25-4.43-12.12-4.3-19.65.29-16.2,8.64-29.19,18.64-29.01,6.18.11,11.54,5.23,14.67,12.94,5.98-3.03,16.35-.26,25.2,7.29,2.51,2.14,4.66,4.47,6.41,6.86.88-1.61,1.99-3.04,3.3-4.28-3.04-1.34-5.41-3.3-6.53-5.81-2.75-6.12,2.77-13,12.36-15.6-6.26-4.24-10.33-10.82-9.74-16.75.78-7.81,9.33-11.52,19.09-8.29.24.08.45.2.68.28-1.78-8.98.28-16.09,5.79-17.44,5.42-1.33,12.67,3.29,18.45,11.05.03-1.73.18-3.47.48-5.22,1.91-11.07,8.79-18.14,16.03-17.15,2.41-2.47,5.33-4.77,8.68-6.71,2.93-1.7,5.93-2.97,8.87-3.84-.58-.3-1.15-.6-1.73-.93-10.67-6.13-16.47-16.05-12.97-22.14,3.15-5.47,12.74-5.99,22.39-1.59.04-2.77.36-5.67,1.03-8.62,3.24-14.29,13.03-24.25,21.85-22.25,5.8,1.31,9.72,7.47,10.83,15.58,9.03-8.86,20.35-11.95,26.61-6.75,1.68,1.4,2.84,3.27,3.5,5.46,2.92-2.24,6.26-3.55,9.59-3.81.01-.11,0-.23.02-.34,1.38-8.73,13.96-14,28.1-11.76,2.54.4,4.95,1.02,7.2,1.82-1.14-8.52,2.8-16.51,9.96-18.96,2.32-.79,4.72-.9,7.06-.46-.43-1.57-.77-3.22-.99-4.93-1.56-11.92,2.7-22.3,9.51-23.19,2.12-.28,4.24.4,6.19,1.82,1.54-9.84,9.18-17,17.6-16.18,6.07.59,10.89,5.21,13,11.45,1.73-1.33,3.67-2.17,5.76-2.34,5.24-.43,10.21,3.29,13.64,9.36,6.46-6.83,14.37-9.78,20.13-6.72,3.84,2.04,5.99,6.37,6.4,11.74,8.28-7.02,17.97-9.11,22.41-4.53,3.53,3.64,2.74,10.48-1.4,17.17,4.62.55,8.71,2.81,11.11,6.66,4.69,7.5,1.21,18.12-7.77,23.73-.81.51-1.65.94-2.49,1.33,6.45,2.5,11.33,6.46,13.56,10.87.32-.07.63-.15.96-.17,4.6-.36,9.97,3.18,14.9,9.15,3.55-13.18,15.23-19.02,26.91-12.94,7.66,3.99,13.44,12.12,15.94,21.18,1.28-13.87,8.8-24.08,17.14-23,5.61.73,10.18,6.39,12.42,14.25.05-.05.09-.11.14-.16,6.24-5.87,16.2-.74,23.8,11.45,5.03-12.96,13.03-20.36,18.65-16.75,3.09,1.99,4.86,6.93,5.22,13.27,8.39-7,18.54-5.21,23.14,4.47,4.79,10.08,1.72,24.79-6.85,32.86-.21.19-.43.31-.64.5,7.26,8.33,10.74,19.15,8.05,27.42-2.94,9.04-12.34,12.22-22.62,8.58.63,3.9.82,7.64.67,11.09,4.13-3.81,8.84-5.57,13.13-4.3,8.4,2.49,11.94,15.53,7.91,29.14-.4,1.35-.87,2.64-1.38,3.89,7.72-1.77,14.5-.28,16.78,4.27,2.09,4.18-.16,9.84-5.22,14.72,2.86.62,5.39,1.86,7.4,3.83,1.77,1.73,2.98,3.89,3.71,6.32,6.23-15.1,18.2-24.48,26.88-20.98,7.96,3.21,10.33,16.15,6.06,29.99,5.55-5.52,12.04-8.2,18.07-6.65,11.15,2.87,16.72,19.08,13.12,36.99,7.65-.48,13.89,1.73,16.43,6.57,4.38,8.36-3.92,21.36-18.56,29.03-3.21,1.68-6.45,2.94-9.6,3.84,1.6,2.68,2.57,5.69,2.71,8.9.42,9.75-6.83,18.34-17.24,21.67,7.63,7.9,10.87,17.15,7.45,24.35-3.22,6.78-11.56,10.14-21.65,9.75,1.9,8.65-.87,20.4-8.15,31.09-2.63,3.86-5.62,7.21-8.76,10,.4,0,.8,0,1.21.02,16.23.74,29.05,8.87,28.63,18.14-.42,9.07-13.35,15.87-29.1,15.47,6.03,8,7.21,18.19,2.09,25.69-6.74,9.88-21.78,11.35-33.61,3.29-.29-.2-.51-.44-.79-.64-3.86,12.41-11.95,20.88-20.9,20.47-8.81-.4-15.99-9.29-18.8-21.69-1.29,2.24-2.75,4.46-4.44,6.61-11.93,15.24-29.24,21.62-38.66,14.25-6.59-5.16-7.55-15.69-3.45-26.77-2.23.92-4.46,1.64-6.64,2.2-1.26,2.4-2.97,4.69-5.18,6.66-.68.61-1.39,1.16-2.12,1.68,4.98.37,8.86,2.31,10.42,5.72,3.03,6.64-3.95,16.33-15.58,21.63-1.55.71-3.1,1.29-4.64,1.77,5.8,6.22,8.18,13.42,5.43,18.95-4.19,8.42-18.63,9.75-32.26,2.97-1.35-.67-2.62-1.41-3.85-2.18.43,8.49-2.39,15.38-7.62,16.95-7,2.09-15.64-6.14-19.3-18.38,0-.03-.02-.06-.02-.09-1.91,1.61-3.99,2.82-6.13,3.72-4.48,4.72-10.54,8.98-17.72,12.1-4.56,1.98-9.14,3.3-13.55,4.03.36.24.72.46,1.08.7,14.18,9.87,21.1,24.44,15.46,32.54-5.52,7.92-21,6.7-34.94-2.59.89,10.62-3.83,20.44-12.68,24.29-11.66,5.06-26.02-2.14-32.08-16.1-.15-.34-.21-.68-.35-1.02-10.51,8.97-22.58,12-30.4,6.55-7.69-5.36-9.11-17.42-4.6-30.16-2.43,1.28-5,2.45-7.74,3.43-19.37,6.94-38.55,2.86-42.84-9.1-3-8.38,2.11-18.39,12.08-26.03-4.53-.78-8.69-2.1-12.33-3.78-4.51.25-9.24-2.86-13.08-8.09.17,9.54-3.01,17.43-9.48,21.07-11.89,6.68-30.3-3.51-41.12-22.77-1.87-3.34-3.37-6.72-4.55-10.08-5.69,16.88-17.64,28.04-29.12,25.96-9.52-1.73-16.12-12.11-17.76-25.74-.2.07-.39.16-.59.24-15.4,5.44-31.56-.58-36.11-13.44-.52-1.48-.85-2.99-1.03-4.51-14.26,3.43-28.37-2.49-32.56-14.36-1.2-3.41-1.45-6.95-.9-10.42-17.5-5-29.44-16.77-27.71-28.5,1.32-8.92,10.24-15.56,22.43-18.11-2.86-3.18-5.23-7.05-6.8-11.49-5.44-15.4.58-31.56,13.44-36.11,3.42-1.21,6.97-1.45,10.46-.9-1.31-4.52-1.73-8.79-1.33-12.52-17.27,9.97-36.22,9.5-42.49-1.15-4.43-7.52-1.34-18.1,6.86-27.29-15.83.28-28.73-6.47-29.3-15.67Z"/>
          <path class="cls-25" d="M-28.7,1413.38c-.79-.56-1.26-1.3-1.2-2.07.12-1.43,1.98-2.45,4.25-2.39-.22-.93-.08-1.74.46-2.15.93-.71,2.7.03,3.95,1.66.27.36.5.73.67,1.1.29-.25.64-.44,1.03-.52,1.19-.26,2.39.45,3.02,1.65.81-1.1,1.87-1.69,2.83-1.43,1.46.41,2.1,2.65,1.44,5-.12.42-.27.82-.45,1.19,1.47-.03,2.75.8,3.02,2.06.09.41.06.82-.06,1.21.28-.04.56-.07.86-.07.72-.01,1.36.13,1.94.33.67-.18,1.38-.3,2.1-.27.04,0,.09,0,.13.01-.08-.12-.15-.24-.21-.37-.72-1.54-.09-3.66,1.41-4.74,1.26-.91,2.73-.77,3.59.22.13-2.29,1.27-4.43,2.73-4.95,1.6-.57,2.97,1,3.08,3.53,1.13-1.1,2.52-1.61,3.48-1.17,1.26.58,1.32,2.58.13,4.46-.1.15-.2.3-.31.44.85-.36,1.56-.37,1.92.03.71.8-.19,2.9-1.99,4.71-.24.24-.48.46-.73.67,1.16.5,1.77,1.43,1.47,2.54-.46,1.68-2.85,3.09-5.35,3.16-.25,0-.48,0-.71-.02.32,1.3.05,2.62-.79,3.31-1.12.91-2.82.34-3.79-1.29,0,0,0,0,0-.01-1.2,1.81-3.13,2.81-4.37,2.24-.63-.29-.95-.93-.98-1.73-.24.17-.5.32-.81.45,1.03,1.23,1.38,2.63.74,3.55-.42.61-1.2.89-2.12.85,1.03,1.54,1.19,3.23.33,3.89-.69.53-1.83.26-2.89-.58-.18.77-.65,1.42-1.35,1.76-1.37.65-3.1-.15-3.88-1.79-.07-.15-.13-.3-.18-.45-.82,1.57-2.13,2.49-3.29,2.17-1.34-.37-1.99-2.29-1.58-4.42-.89.17-1.69.02-2.2-.51-.63-.66-.66-1.74-.21-2.87-1.07-.28-1.99-1.27-2.28-2.6-.04-.18-.06-.35-.07-.52-2.3.42-4.36-.35-4.67-1.78-.31-1.41,1.21-2.95,3.43-3.54-.19-.11-.39-.23-.58-.36-2.01-1.39-2.95-3.52-2.09-4.77.18-.25.41-.45.7-.59-1.98-.44-3.38-1.71-3.14-2.85.22-1.04,1.76-1.61,3.54-1.38Z"/>
        </g>
        <g>
          <path class="cls-3" d="M343.8,1375.28c4.91-3.32,7.95-7.86,7.95-12.87,0-7.52-6.82-13.97-16.6-16.85,4.05-6.77,5.08-13.85,2.01-18.94-1.22-2.03-3-3.55-5.15-4.59,4.88-5.52,6.84-12.92,4.33-19.42-3.49-9.01-14.17-12.91-24.34-9.16.36-2.76-.06-5.28-1.4-7.29-4.3-6.45-16.35-5.16-26.92,2.87-1.52,1.16-2.92,2.4-4.2,3.68-.77-2.62-2.09-5.01-4.02-6.94-5.96-5.96-15.57-5.65-23.11.13-.39-2.72-1.01-5.5-1.92-8.3-2.96-9.17-8.12-16.36-13.7-20.08,2.96-1.43,5.3-3.56,6.61-6.44,4.45-9.74-3.91-23.88-18.68-31.58-3.05-1.59-6.13-2.76-9.15-3.56,7.28-10.04,9.19-21.37,4.02-26.54-5.75-5.76-18.07-1.71-27.5,9.04-.51.58-.99,1.17-1.46,1.76-.2-3.67-.81-7.51-1.92-11.4-4.77-16.8-16.51-27.87-26.22-24.72-6.95,2.25-10.96,11.17-10.95,22.21-4.7-4.47-10.77-6.44-16.54-4.66-7.1,2.19-11.75,9.45-12.46,18.04-1.61-2.51-3.57-4.97-5.87-7.28-7.87-7.87-17.19-11.46-23.48-9.76-7.5-3.94-20.35-1.29-31.95,7.33-.77.57-1.51,1.17-2.24,1.77.66-4.6.85-9.53.45-14.65-1.75-22.14-13.55-39.15-26.35-38-9.16.82-16.33,10.74-19.04,24.41-4.72-6.86-11.74-11.01-19.33-10.43-9.33.72-16.88,8.39-19.89,18.82-1.38-3.56-3.19-7.16-5.47-10.67-9.97-15.31-24.7-22.79-32.89-16.71-7.57,5.62-6.9,20.84,1.1,35.19-7.11-.17-13.75,2.65-18,8.44-2.58,3.52-3.85,7.72-4.11,12.1-2.01-1.18-4.23-2.2-6.53-3.14,10.02-17.62,10.31-36.98.25-44.3-8.27-6.02-21.08-2.09-31.89,8.6-3.82-12.97-18.63-19.68-33.27-15.01-13.05,4.17-21.55,15.99-20.78,27.77-1.19-.81-2.42-1.59-3.7-2.33-18.3-10.58-38.09-9.37-44.21,2.7-3.83,7.55-1.39,17.57,5.45,26.6-14.58,1.84-25.47,13.5-24.58,26.72.24,3.64,1.38,7.01,3.16,10-.41.19-.83.36-1.24.57-15.83,7.88-25.25,22.1-21.03,31.76,2.28,5.22,8.08,8.03,15.43,8.26,0,2.6.28,5.35.92,8.2-9.37-2.28-18.7,1.2-22.75,9.29-1.33,2.66-1.94,5.55-1.93,8.49-2.79-.78-5.81-1.31-8.99-1.48-14.52-.79-26.62,5.75-27.05,14.6-.24,5.13,3.5,9.9,9.5,13.17-10.74,12.75-13.78,28.53-6.62,36.17,3.87,4.14,9.98,5.07,16.66,3.26-2.44,2.37-4.49,4.9-6.15,7.46-5.73-.5-11.09,5.6-12.61,14.99-.25,1.52-.37,3.03-.39,4.54-4.71-6.74-10.61-10.77-15.02-9.61-4.49,1.18-6.17,7.36-4.72,15.17-.19-.07-.36-.18-.56-.25-7.95-2.81-14.91.42-15.55,7.21-.48,5.16,2.83,10.88,7.93,14.57-7.81,2.26-12.31,8.24-10.07,13.56,2.29,5.45,10.74,8.13,18.87,6,.2-.05.4-.12.6-.18-.79,2.11-1.34,4.53-1.59,7.18-1.03,11,3.52,21.81,10.16,24.16,1.46.51,2.88.53,4.25.2-.44,1.53-.7,3.13-.7,4.79,0,5.42,2.54,10.31,6.6,13.79-7.89,4.17-12.7,10.59-11.51,16.52,1.5,7.46,11.94,11.49,23.97,9.61-2.8,5.71-3.32,11.46-.89,15.96,3.65,6.75,12.92,8.77,23.1,5.94-.35,8.33,2.17,15.25,7.4,18.13,2.09,1.15,4.42,1.53,6.86,1.28-.19.85-.32,1.69-.42,2.54-3.95-.79-7.32.44-9.17,4.05-1.59,3.12-1.79,7.44-.85,12.12-2.4-.57-4.95-.8-7.59-.59-12.77,1.03-22.77,11.46-22.35,23.31.4,11.23,10.03,19.68,21.91,19.66-4.48,10.09-5.49,20.86-1.87,27.41,5,9.06,16.91,6.64,26.71-5.36.32,9.51,3.8,17.7,9.31,20.37,7.06,3.41,14.92-3.44,18.26-15.47,2.24,8.27,5.96,13.64,9.98,13.32,4.19-.34,7.62-6.75,9.18-15.92.19.52.36,1.04.56,1.56,6.39,16.63,17.12,25.31,23.96,19.38,1.91-1.66,3.29-4.31,4.18-7.59,2.55.67,5.09.95,7.55.86-4.78,9.55-5.31,19.2-.43,25.07,6.41,7.71,20.01,6.33,32.29-2.54,1.88,2.3,4.22,4.12,6.98,5.22,9.61,3.84,20.68-2.26,26-13.68,1.04.73,2.15,1.35,3.35,1.83,10.41,4.16,22.62-3.25,27.28-16.55.06-.17.1-.35.16-.52,9.37,6.52,19.3,7.92,25.36,2.54,7.31-6.49,6.59-20.69-.96-33.91,2.71,1.09,5.61,1.99,8.67,2.6,4.56.92,9.01,1.15,13.14.8-3.64,6.27-4.42,12.8-1.37,17.08,4.69,6.61,16.62,5.39,26.64-2.73,1.42-1.15,2.72-2.39,3.9-3.67-1.98,10.47.77,19.86,6.41,21.3,1.93.49,3.95-.02,5.88-1.3-1.9,8.78-.1,16.61,4.69,18.57,5,2.04,11.56-2.99,15.61-11.51,5.71,9.88,14.53,15.12,20.82,11.85.4-.21.78-.46,1.15-.72,2.82,6.55,8.56,10.7,14.58,9.82,5.2-.76,9.27-5.07,10.97-10.82,1.54,1.3,3.27,2.1,5.15,2.27,6.96.62,13.4-7.64,15.39-19.04,4.77,5.51,10.55,8.07,15.27,6.02,2.5-1.09,4.32-3.37,5.5-6.35-.14,1.82.05,3.65.71,5.39,2.66,7.07,11.24,10.04,19.17,6.64.7-.3,1.35-.65,1.99-1.02-.08.21-.16.41-.24.62-4,11.57-1.82,23.09,4.87,25.73,6.1,2.41,13.84-3.41,18.19-13.22.64.8,1.33,1.58,2.08,2.34,7.04,7.13,15.83,9.43,19.65,5.14,2.73-3.07,2.15-8.68-.96-14.24,4.93,1.07,9.84-.38,12.75-4.33,4.32-5.86,2.61-15-3.75-20.67.02-.01.04-.02.06-.03,8.67-4.64,13.69-12.69,11.21-17.98-.07-.14-.17-.25-.25-.39,14.07,7.45,28.77,6.38,33.66-2.83,3.4-6.4,1.18-15.12-4.9-22.89,1.74-.47,3.5-1.07,5.27-1.81,13.28-5.55,21.63-16.62,18.66-24.72-1.52-4.15-5.73-6.7-11.26-7.47.84-.57,1.66-1.17,2.46-1.86,8.89-7.63,11.84-19.77,7.39-28.48,1.63-2.52,2.98-5.55,3.95-8.98,1.29,1.26,2.68,2.47,4.19,3.6,11.31,8.54,24.18,9.87,28.75,2.98,2.34-3.53,2.03-8.55-.33-13.74.88.42,1.78.82,2.72,1.14,11.61,4,23.56-1.14,26.69-11.49,2.39-7.9-1.05-16.53-7.97-21.97,15.07-6.77,24.14-20.26,20.27-30.25-3.53-9.12-16.62-12.16-30.39-7.64,4.84-7.16,5.81-15.96,2.5-22.64,1.63-4.36,2.18-9.89,1.51-15.85.8.65,1.63,1.26,2.53,1.82,9.89,6.1,21.78,3.89,26.55-4.94,2.45-4.53,2.53-9.91.71-14.91,8.47.58,15.39-2.31,17.07-7.87,2.12-7-4.78-15.73-15.67-20.36Z"/>
          <path class="cls-5" d="M144.11,1488.39c-.53.05-1.01.29-1.52.43-.16.04-.34.08-.5.02-.13-.04-.22-.13-.33-.21-.41-.28-.98-.29-1.47-.15-.49.14-.91.41-1.33.68-1.51.98-3.17,1.87-4.64,2.87-1.53,1.04-2.83,2.57-4.16,3.8-10.85,10.09-20.04,35.4-30.24,46-10.26,10.66-21.88,23.65-31.74,34.59-9.78,10.84-19.92,21.7-29.59,32.62.17-8.82.3-17.65.51-26.47.17-7.54.36-15.08.55-22.62.17-6.64,2.47-15.21-6.64-17.6-1.88,2.2-5.31,1.71-7.78.57-3.73-1.72-6.85-4.44-8.87-7.7-1.01-1.64-1.75-3.42-3.01-4.92-1.26-1.5-3.21-2.72-5.31-2.58-1.46.1-2.76.83-4.13,1.28-1.37.45-3.11.56-4.12-.39-.44-.41-.66-.96-.84-1.5-.49-1.47-.7-3.04-1.55-4.38-.84-1.34-2.58-2.43-4.25-2.01.41,2.42-1.04,5.18-1,7.77.03,2.28.14,4.57.21,6.85.16,5.24.31,10.49.46,15.73.34,12.17.67,24.35.96,36.52.56,23.3,1.31,46.65,1.45,69.99-3.06-.98-6.19-2.74-9.45-6.03-8.47-8.57-17.77-20.36-27.06-32.14.39-9.31.9-20.51.81-21.91-1.23-17.84,2.33-27.94,1.1-45.78-.78-11.29-1.55-22.57-2.33-33.86-.36-5.21-.18-10.75-1.4-15.85-1.37-5.72-4.92-11.02-5.92-16.81-.2-1.14-.27-2.32-.79-3.38-.52-1.06-1.62-2-2.92-2-7.61,0-4.71,18.94-4.71,23.12,0,9.46,0,18.92.01,28.38.01,22.71.02,45.42.03,68.14-3.61-4.27-7.15-8.24-10.55-11.68-7.35-7.43-13.99-32.48-23.66-37.53-11.35-5.93-23.27-13.17-31.21-22.74-1.23-1.48-2.36-3.06-3.91-4.28-1.55-1.22-3.65-2.07-5.69-1.74.59,9.22,9.65,18.13,15.2,25.76,5.33,7.33,10.65,14.67,15.98,22,22.31,30.7,44.61,61.41,66.92,92.11,9.62,13.24,19.24,26.48,28.86,39.72-3.01,49.82-20.42,241.1-20.42,241.1l77.79,2.06s-9.97-150.34-13.23-197.91c-.06-.95-.12-1.9-.18-2.85-1.79-31.19-1.17-62.57-.65-93.81,12.27-16.13,24.54-32.27,36.81-48.4,13.96-18.35,27.91-36.7,41.87-55.04,6.77-8.91,13.37-17.95,20.34-26.74,1.09-1.38,3.28-2.8,3.86-4.41.77-2.15-1.16-3.22-1.5-5.05-.14-.74.38-1.43.87-2.04.71-.88,1.42-1.76,2.12-2.64.67-.83,1.34-2,.6-2.78-.26-.28-.66-.44-1.01-.62-2.68-1.4-2.69-3.74-1.32-5.96.71-1.15,1.65-2.19,2.62-3.18.47-.48.96-.94,1.44-1.41.7-.69.33-.76.6-1.53.1-.27.27-.54.22-.82-.07-.47-.7-.72-1.23-.67Z"/>
          <g>
            <path class="cls-4" d="M221.07,1597.16c-2.46-3.25-5.07-6.62-8.84-8.43-3.65-1.72-8.57-2.25-10-6.01-.67-1.75-.29-3.7-.16-5.57.46-6.49-3.18-8.49-7.26-12.48-3.25-3.19-6.86-6.42-5.93-11.42.55-2.96,2.57-5.61,5.28-6.92,1.06-.52-8.04-11.67-7.59-13.39.46-1.76,1.72-3.19,2.49-4.83.77-1.64.92-3.9-.52-5.01-1.37-1.07-3.35-.52-4.99.08-5.41,1.98-10.82,3.95-16.22,5.93-1.74.64-3.86,1.22-5.31.06-.66-.53-1.05-1.34-1.75-1.81-1-.67-2.34-.48-3.48-.12-7.17,2.3-11.15,9.82-17.15,14.36-4.52,3.42-12.69,6.65-13.27,13.36-.56,6.5,5.77,6.06,9.17,10.45,1.6,2.07,2.02,5.34.15,7.17-.72.7-1.71,1.12-2.72,1.14-2.21.04-3.99-1.69-5.71-3.07-2.1-1.69-6.14-5.15-8.85-5.51-2.3-.3-6.13,2.34-6.41,4.86-.07.65.23,1.27.48,1.87.86,2.05.54,4.21,1.2,6.22.52,1.59,1.73,2.85,2.48,4.32-1.98-.73-8.88-3.75-10-.19-.96,3.05,4.57,9.48,12.4,14.41-5.2,3.3-1.94,10.23,1.39,13.55,1.9,1.9,4.3,2.48,6.29,4.03,2.42,1.88,3.03,5.37,4.06,8.15.29.77.59,1.57,1.13,2.19.58.66,1.38,1.08,2.18,1.45,2.69,1.25,5.53,2.19,8.44,2.78.72.15,1.46.27,2.2.17.78-.11,1.49-.47,2.21-.77,5.19-2.16,11.55-1.19,15.87,2.41,1.58,1.32,2.91,2.96,4.66,4.04,1.75,1.08,4.18,1.48,5.8.19,2.96-2.35.36-5.42,1.19-8.16.68-2.26,2.77-2.14,4.24-3.7,4.74-5.01-2.96-12.42-6.76-15.22,6.74,1.42,11.51.14,12.07-3.12.11,1.88.89,3.67,2.5,4.89,3.09,2.35,7.7,1.71,10.36-1.4,1.34,3.64,4.06,5.65,6.93,4.7,5.05-1.67,3.7-8.71,9.82-6.47,5.15,1.89,9.54,6.18,15.35,5.86.59-.03,1.22-.14,1.62-.56.86-.9.12-2.36-.63-3.35-2.8-3.7-5.61-7.41-8.41-11.11ZM174.07,1592.99c-2.84-1.7-6.08-3.16-9.43-4.14,1.6-2.93.58-7.28-2.97-11.04-.07-.08-.16-.14-.24-.22,2.83,1.4,5.65,1.58,7.68.17,2.79-1.94,3.3-6.31,1.67-10.92.88.46,1.81.89,2.8,1.24.61.22,1.21.37,1.82.53-.09.07-.19.12-.28.2-2.32,2.22-1.79,6.67,1.18,9.95.08.09.16.16.24.24-.84.65-1.56,1.45-2.1,2.39-1.95,3.41-.71,7.3,2.73,8.9-1.26.81-2.29,1.74-3.11,2.7ZM183.53,1603.57c-.02-.26,0-.49-.06-.77-.14-.58-.4-1.18-.72-1.78.14-.03.27-.04.41-.07.42-.1.83-.21,1.24-.33-.53.94-.77,1.94-.86,2.95ZM184.28,1570.29c-.48-.47-.99-.86-1.5-1.21.68-.11,1.31-.27,1.92-.48-.15.55-.32,1.1-.41,1.69Z"/>
            <path class="cls-4" d="M126.29,1283.31c.3.17.56.31.85.46.41.96.94,1.92,1.68,2.85-1.41,2.16-1.99,4.85-1.62,7.4.09.61.28,1.29.82,1.6,1.05.61,2.2-.61,2.74-1.7,1.01-2.01,1.73-4.15,2.31-6.32.97.9,1.92,2.02,3.03,3.65.81,1.18,6.15,12.64,6.44,12.69,3.97.55,8.29,2.37,12.44,5.29.47-1.44,1.05-2.74,1.68-3.98-.25.86-.31,1.81-.28,2.71.09,2.65,1.08,5.91,3.71,6.3,2.03.3,3.77-1.37,5.15-2.9,1.84-2.04,4.55-5.01,4.48-7.99-.08-3.44-2.95-5.92-2.36-9.88.34-2.26,1.96-4.18,2.36-6.46.52-2.93-.01-3.94,1.55-6.7,1.12-1.97.61-4.7-1.14-6.14-1.15-.94-2.66-1.3-4.03-1.89-1.37-.58-2.75-1.58-3.01-3.05-.31-1.76,1.11-3.33,2.5-4.46,1.39-1.13,2.98-2.36,3.21-4.13,1.59-11.93-24.18-1.52-27.94.68-4.69,2.75-10.91,7.45-13.47,13.09-.21-.34-.42-.68-.63-1.02-2.33-.58-4.61,1.88-4.51,4.28.1,2.4,1.93,4.43,4.03,5.6ZM148.6,1275.85c1.98.54,6.74,3.23,7.09,5.34.19,1.17-.4,2.42-1.43,3.01-.9.52-2.08.55-2.83,1.28-1.15,1.11-.59,3.05.22,4.43,1.23,2.1,2.86,3.97,4.78,5.46,1.09.85,2.3,1.61,3.1,2.75.8,1.13,1.07,2.8.18,3.86-.56.66-1.44.96-2.08,1.55-.13.11-.2.26-.3.39.01-.02.02-.04.03-.06-1.04,1.77-8.72-10.72-9.08-11.74-1.83-5.19-1.51-10.41-3.54-15.52-.1-.25-.21-.52-.34-.77,1.39-.26,2.81-.35,4.18.02ZM138.73,1277.97c.34-.19.71-.35,1.07-.53,0,.02,0,.04,0,.05-.13,1.72.21,3.64-.83,5.01-1.09,1.43-3.27,1.5-4.89.7.16-.73.37-1.45.76-2.09.86-1.45,2.42-2.33,3.9-3.15Z"/>
            <path class="cls-4" d="M29.07,1382.99c.63-.36.99-1.05,1.3-1.71,2.99-6.39,4.49-13.48,4.33-20.54-.03-1.57-.14-3.17.28-4.67,4-14.13,29.45-5.57,37.49-.02,3.09,2.13,4.74,4.92,6.16,8.35.86,2.09,1.38,7.36,3.24,8.79,2.43,1.87,2.72.42,4.91-1.45,3.21-2.74,6.06-5.41,9.34-7.66,2.47,1.16,4.88,2.19,5.06,2.1,5.4-2.58,10.43-4.08,14.72-4.39-.19-1.58-.26-3.23-.07-4.98-4.07,1.14-11.82,5.02-13.39-.57-.35-1.24-1.22-2.27-2.3-2.96.07-1.93.43-3.86,1.06-5.79-.69,1.38-11.84-1.41-13.01-2.31-2.75-2.12-4.17-7.28-5.74-10.42-.88-1.77-1.87-3.65-3.62-4.57-2.68-1.41-6.16-.06-8.89-1.38-1.29-.63-2.24-1.78-3.14-2.9-3.78-4.69-10.15-9.88-11.56-15.76-.79-3.31-.81-7.07-.46-10.86,4.19.01,7.23-1.17,10.45,3.97-.39-7.55,5.36-15.95,14.87-22.03-1.16-.28-2.32-.61-3.47-1.04-5.2-1.95-9.62-5.3-12.91-9.76-4.16-5.64-4.4-8.19-1.51-14.73,2.27-5.12,2.96-10.92,1.97-16.43-.38-2.09-1.03-4.22-2.47-5.8-1.01-1.11-2.34-1.86-3.68-2.52-9.27-4.51-20.51-4.75-29.96-.65-2.92,1.27-5.68,2.93-8.71,3.93-4.63,1.54-9.2.38-13.84,1.6-4.91,1.28-9.42,1.22-14.34-.17-4.26-1.21-10.87-9.61-14.87-6.26-2.14,1.78-1.56,5.12-2.05,7.86-1.07,6.03-7.6,9.35-13.55,10.84-3.06.77-6.4,1.28-9.3.05-2.91-1.23-5-4.84-3.57-7.65,1.49-2.94,6.24-4.97,4.83-7.95-1.49-3.14-6.87-.38-9.6-2.52-1.37-1.08-1.6-3.04-2.49-4.55-1.87-3.18-6.37-3.71-9.91-2.65-3.53,1.05-6.62,3.27-10.13,4.42-7.14,2.33-15.64-.52-19.95-6.67-2.38,1.13-5.76,1.93-7.91,3.44-2.09,1.48-3.14,3.88-5.08,5.54-3.85,3.28-8.86,6.82-13.81,8.16-7.32,1.98-21.09-5.51-25.45,3.69-.68,1.44-.79,3.11-1.52,4.52-.92,1.78-2.77,3.08-3.14,5.04-.82,4.3,5.81,6.99,5.64,11.37-.1,2.53-2.56,4.65-2.26,7.16.23,1.97,2.04,3.31,3.69,4.4,1.73,1.15,3.45,2.29,5.18,3.44,1.77,1.18,3.69,2.4,5.81,2.36,4.08-.07,6.66-4.81,6.36-8.88-.1-1.38-.42-2.79-.07-4.13,2.4-9.24,16.77-6.1,22.34-3.45,1.86.89,14.41-10.66,15.98-12.3.87-.91,1.99-1.91,3.23-1.65,1.93.4,1.97,3.09,1.89,5.06-.02.47,0,.97.29,1.33.35.42.97.5,1.51.44,2.1-.22,3.75-1.83,5.68-2.69,3.98-1.78,9.15.3,10.93,4.25-.73.18-1.45.35-2.18.57-16.63,4.95-18.82,9.94-13.02,31.04,1.32,4.8-.52,6.83-2.62,9.35-2.19,2.63-5.77,5.24-2.7,9.93,2.64,4.03,5.35.88,8.16-1.22,3.71-2.76,6.01-11.81,11.99-5.8,10.56-1.08,15.95-11.63,12.17-24.55-1.35-4.63-1.17-8.07,1.49-11.31.2-3.01-.13-4.49-.77-5.12,2.27-1.3,4.9-2.81,6.84-2.79.26,0,.77.15,1.4.39,2.5.95,7.04,3.41,7.04,4.56,2.69-4.49,5.97-7.99,9.8-9.88,6.39-3.15,19.31-2.07,20.87,6.35.7,3.79-.3,7.66-.47,11.51-.17,3.85.85,8.23,4.2,10.14,3.5,1.99,8.01.38,11.15-2.14,3.14-2.52,5.56-5.89,8.92-8.11,4.23-2.81,9.81-3.49,14.59-1.79,4.79,1.7,8.68,5.74,10.2,10.59.83,2.66.98,5.51,1.8,8.18.89,2.9,2.67,5.41,4.94,7.38,5.55,10.72,7.22,21.86,3.48,30.2-2.77,6.17-10.62,12.33-17.83,11.25-4.67-.7-5.15-3.95-9.47-.21-2.32,2.01-4.12,4.87-5.77,7.41-7.01,10.79-11.75,22.96-25.89,25.53-6.05,1.1-12.33.1-17.75-2.81-6.73-3.62-8.06-7.47-16.37-7.15-.48.02-.98.05-1.38.3-.82.52-.9,1.66-.89,2.64.02,1.27.05,2.61.73,3.68,1.56,2.45,8.43,1.51,10.94,1.84,4.36.57,8.73,1.58,12.77,3.36,4.31,1.89,10.21,5.36,11.86,10.13,2.04,5.89-4.96,7.16-9.55,7.97-3.61.64-7.16,1.62-10.6,2.91-2.8,1.05-5.76,2.57-6.86,5.34-.4,1.01-.51,2.11-.91,3.12-.54,1.38-1.57,2.5-2.58,3.58-4.46,4.79-9.42,9.85-15.88,10.9-1.73.28-4.17,1.16-3.59,2.81.21.6.79.97,1.36,1.25,4.62,2.23,9.32-.6,14.13.3,6.57,1.23,7.84,10.68,13.61,14.06,2.7,1.58,6.08,1.63,8.81,3.15.32.18.59.4.88.61-.76-1.43-1.09-3.07-1.36-4.68-.85-4.96-2.23-11.76.19-16.5,2.65-5.21,9.73-5.86,15.24-5.61-1.15-13.1,2.64-24.19,11.26-28.99,8.48-4.72,15.81.97,24.57,1.9.76.08,1.57.14,2.24-.24Z"/>
            <path class="cls-4" d="M278.15,1349.54c-.23-.58-.46-1.16-.67-1.74-7.27-.79-14.57-1.31-21.84-2.03-5.08-.5-7.05,1.51-11.73,3.13-6.56,2.27-13.43,3.11-18.97-1.9-.64-.58-1.25-1.21-1.65-1.98-1.23-2.36-.17-5.22.84-7.68,1.03-2.5,2.01-5.11,1.89-7.81-.12-2.7-1.63-5.52-4.2-6.35-3.46-1.13-7.09,1.81-8.44,5.19-1.35,3.38-1.2,7.15-1.84,10.74-.78,4.38-2.41,8.89-6.27,11.05-3.76,2.1-8.27,1.99-11.82,4.78-4.85,3.82-6.24,11.13-3.8,16.8,2.44,5.67,8.16,9.58,14.25,10.59.88.15,1.8.24,2.66-.03.99-.3,1.77-1.04,2.64-1.61,4.81-3.17,9.51-2.07,11.81,2.53,2.41,4.8,4.94,10.18,10.85,11.23,1.65.29,3.48.11,4.81-.91,1.06-.82,1.69-2.07,2.23-3.3,2.71-6.14,4.26-12.8,4.54-19.51.07-1.71.11-3.57,1.21-4.88.66-.79,1.6-1.26,2.52-1.71,3.36-1.65,6.77-3.32,10.44-4.06,9.47-1.91,16.25,3.73,23.96,7.78,2.16,1.13,5.17,1.43,6.75-.43-4.17-5.47-7.59-11.51-10.16-17.89Z"/>
            <path class="cls-4" d="M62.8,1457.85c-1.78,2.32-3.07,6.49-3.14,9.77-.06,3.06.94,5.35,3.61,4.62,1.48-.4,6.3-13.47,5.77-14.54-2.02-4.1-4.16-2.56-6.25.15Z"/>
            <path class="cls-4" d="M213.06,1485.47c.51-.28,1.04-.41,1.57-.46.96-.1,1.95.06,2.91.03,1.5-.04,3.16-.7,4.04-2.92.89-2.22.31-6.21-1.19-6.41-.45-.06-.88.21-1.33.28-3,.46-4.79-5.94-8.08-4.34-2.2,1.07-4.23,5.99-4.46,9.93-.39,6.85,3.78,7.4,4.05,9.88-.29-2.69,1.03-5.2,2.47-5.99Z"/>
            <path class="cls-4" d="M109.78,1456.28c3.07-6.43,7.24-13.6,7.31-20.53.07-8.02,1.65-10.14,6.25-10.97,1.73,2.62,2.8,4.7,1.98,4.71,5.38-.07,11.31.97,17.37,3.11-1.68-1.79-3.31-3.72-3.35-6.23-.01-.7,2.18-7.04,3.22-6.16-3.02-2.52-7.07-5.23-11.16-8.16-.02-.37-.02-.7-.05-1.09-.27.16-.52.32-.79.47-6.68-4.85-13.28-10.34-15.4-16.7.1.29-4.47,1.78-4.89,1.94-3.68,1.49-3.27.1-5.07,3.49-5.23,9.89,3.5,10.94,9.52,14.11.72.38,2.5,2.37,4.41,4.78-3.44,2.69-6.64,5.72-9.55,9.42-2.76,3.51-5.59,3.98-9.37,2.78-14.08-4.48-18.07-1.6-26.52,18.81,3.44-.8,5.52-.91,7.41-1.78,8.62-3.94,16.93-7.48,22.32,7.57,1.14,3.17,5.04,3.15,6.33.43Z"/>
            <path class="cls-4" d="M74.73,1502c-14.73.27-15.25-5.14-7.85-14.41.4-.49.27-1.77.39-2.68-.8-3.44-3.03-3.6-4.94-3.37-9.62,1.13-19.28,1.3-28.91,2.22-1.9,3.33-1.31,7.64-2.32,11.31-1.49,5.51-7.32,8.14-5.57,15.82,2.03,5.27,5.06,4,8.16,2.37,2.82-3.17,3.62-.58,4.16,2.75,4.53-4.15,8.1-10.36,13.54-12.48,2.09-.82,4.57-4.26,6.53-.76,1.64,2.94,2.74,8.05.88,10.55-4.85,6.53-4.67,16.69-9.6,22.88,4.16,10.45,5.69-.14,7.7-2.21,7.57-7.75,4.56-24.58,17.83-31.99Z"/>
          </g>
        </g>
      </g>
      <g class="cls-16">
        <g>
          <g>
            <path class="cls-23" d="M-240.99,1081.53l-3.63,19.44s239.11,23.06,286.98,41.88l10.93-32.85s-199.02-22.29-294.29-28.47Z"/>
            <path class="cls-26" d="M51.93,1096.42c-153.14,15.46-283.15-15.06-289.63-17l10.05-45.92c1.38.41,157.24,41.3,282.66,15.82l-3.08,47.09Z"/>
            <path class="cls-22" d="M55.38,1034.75c-121.13,46.92-277.9,13.73-284.13,11.6l6.92-43.1c1.31.45,159.97,34.58,270.39-20.89l6.82,52.39Z"/>
          </g>
          <path class="cls-9" d="M7.52,1207.16c-.15-.77-.51-1.69-1.29-1.74-.32-.02-.63.13-.91.28-12.76,6.46-26.3,11.33-40.19,14.69-5.35,1.29-12.2,1.58-6.33-5.18.69-.8,1.39-1.59,2.08-2.39,6.26-7.24,12.47-14.67,17.06-23.11,2.28-4.19,4.06-8.65,5.22-13.28.58-2.31,1.01-4.66,1.28-7.03.21-1.84.75-4.43-.52-6.02-1.1-1.37-14.47,6.87-15.95,7.64-5.4,2.81-10.9,5.43-16.48,7.84-8.68,3.75-17.58,7-26.64,9.7-4.88,37.52,3.03,62.85,35.43,81.28,8.58-4.68,16.64-10.25,23.51-16.95,11.35-11.06,27.01-28.43,23.74-45.72Z"/>
        </g>
      </g>
      <path class="cls-7" d="M13.88,408.27c.26,20.69-6.63,41.22-18.23,58.25-12.9,18.93-27.17,32.23-49.26,45.77-12.98,7.95-18.05,7.75-32.9,3.01-11.28-3.6-31.92-16.54-41.5-23.68-14.78-11.01-26.6-25.85-33.99-42.74-18.78-42.96-4.84-96.99,36.28-120.69,32.92-18.97,77.59-13,105.81,11.71,15.57,13.64,26.33,28.81,31.31,48.89,1.59,6.41,2.39,12.94,2.47,19.48Z"/>
    </g>
  </g>
</svg>