<?xml version="1.0" encoding="UTF-8"?>
<svg id="Layer_1" data-name="Layer 1" xmlns="http://www.w3.org/2000/svg" viewBox="0 0 314.5 62.33">
  <defs>
    <style>
      .cls-1 {
        fill: #56aabf;
        stroke: #fff;
        stroke-linejoin: round;
        stroke-width: 4px;
      }

      .cls-2 {
        fill: #fff;
        stroke-width: 0px;
      }
    </style>
  </defs>
  <path class="cls-1" d="M310.33,2H8.08c-3.36,0-6.08,2.72-6.08,6.08v46.17c0,3.36,2.72,6.08,6.08,6.08h302.68c1.26,0,2.1-1.31,1.58-2.46l-11.96-26.19,11.55-27.27c.48-1.14-.36-2.41-1.6-2.41Z"/>
  <g>
    <path class="cls-2" d="M27.73,36.66c-.67,1.18-1.3,1.47-1.93,1.47-.71,0-1.26-.34-2.52-2.1v13.02c0,1.76-.67,2.81-3.36,2.81-2.94,0-2.94-2.06-2.94-2.81v-11.17c-.88.8-1.26,1.05-2.18,1.05-2.52,0-3.23-2.39-3.23-3.78,0-1.68.59-2.14,2.98-4.03,2.73-2.18,5.63-6.43,5.63-7.14,0-.38-.42-.38-.84-.38h-4.75c-1.93,0-2.86-.88-2.86-3.19,0-2.77,2.1-2.81,2.86-2.81h2.39v-3.23c0-1.93.84-2.77,3.4-2.77,2.86,0,2.9,1.93,2.9,2.77v3.23c1.18,0,3.86,0,3.86,3.07,0,.76-.21,2.02-.59,3.28-.63,2.1-1.72,3.99-2.39,5.17.34.42.84,1.01,1.89,1.97.55.5,1.51,1.39,1.68,1.6v-10.17c0-3.99,1.85-5.08,5.08-5.08h3.28v-3.15c0-1.55.46-2.65,3.02-2.65,2.73,0,2.73,1.89,2.73,2.65v3.15h3.57c3.32,0,5.08,1.18,5.08,5.08v15.21c0,3.95-1.76,5.12-5.08,5.12h-3.57v6.34c0,1.22-.25,2.69-2.9,2.69-2.86,0-2.86-1.81-2.86-2.69v-6.34h-3.28c-3.28,0-5.08-1.13-5.08-5.12v-1.05ZM36.09,27.38v-4.24h-1.93c-.55,0-.84.29-.84.84v3.4h2.77ZM36.09,32.63h-2.77v3.53c0,.59.29.88.84.88h1.93v-4.41ZM41.85,27.38h2.86v-3.4c0-.55-.29-.84-.88-.84h-1.97v4.24ZM41.85,32.63v4.41h1.97c.59,0,.88-.34.88-.88v-3.53h-2.86Z"/>
    <path class="cls-2" d="M53.69,46.7c0-1.47.76-2.02,2.73-3.23,1.26-.76,2.48-1.76,3.7-2.9,1.39-1.34,2.02-1.6,2.94-1.6,1.93,0,3.28,1.6,3.28,2.98,0,.88-.04,1.6-3.78,4.91-.76.67-2.48,2.02-4.03,2.98-.67.38-1.09.46-1.6.46-1.64,0-3.23-1.72-3.23-3.61ZM56.88,38.21c-.71,0-3.07,0-3.07-2.73,0-2.1.84-3.07,3.07-3.07h33.48c.8,0,3.11,0,3.11,2.9,0,2.52-1.68,2.9-3.11,2.9h-13.32v8.23c0,5.08-2.9,5.17-7.27,5.17-1.01,0-2.65-.04-3.61-.13-2.44-.25-2.56-2.65-2.56-3.23,0-3.07,2.44-3.07,3.19-3.07.38,0,2.02.04,2.35.04.84,0,1.43-.08,1.43-1.47v-5.54h-13.69ZM65.91,30.23c-1.01,0-1.68-.17-2.27-1.01-.59.38-4.28,2.6-6.39,2.6-1.85,0-3.19-1.93-3.19-3.65s1.13-2.27,2.81-2.98c3.4-1.43,5.75-2.52,7.81-4.62h-7.69c-1.09,0-3.11-.21-3.11-2.9,0-2.86,2.39-2.86,3.11-2.86h11.01c.92-2.39,1.34-3.44,3.7-3.44.21,0,3.57,0,3.57,2.44,0,.42-.08.76-.13,1.01h15.12c2.23,0,3.07.97,3.07,3.02,0,2.69-2.27,2.73-3.07,2.73h-7.73c2.39,1.93,4.03,3.19,6.72,4.24,2.98,1.13,3.82,1.47,3.82,3.23,0,1.43-1.01,3.7-3.23,3.7-2.02,0-5.21-2.02-6.26-2.73-.55,1.09-1.43,1.22-2.39,1.22h-15.29ZM78.26,24.81c-1.81-1.81-2.6-2.9-3.4-4.24h-2.35c-.76,1.22-1.76,2.56-3.36,4.24h9.12ZM86.41,48.67c-1.93-1.47-3.4-2.65-5.21-4.66-.55-.63-.92-1.18-.92-2.02,0-1.72,1.72-3.19,3.4-3.19,1.13,0,1.51.38,3.44,2.18.88.84,2.6,2.14,3.57,2.77,1.34.84,2.48,1.55,2.48,3.02,0,1.76-1.6,3.57-3.23,3.57-.97,0-1.34,0-3.53-1.68Z"/>
    <path class="cls-2" d="M106.44,29.6c0,5.33-.38,10.71-2.31,16.47-1.55,4.62-2.9,5.17-4.2,5.17-1.43,0-4.07-.92-4.07-3.32,0-1.01.21-1.39,1.76-4.62.67-1.43,1.39-4.24,1.72-6.43.34-2.48.38-5.04.38-6.89v-14.87c0-1.26.21-3.11,3.07-3.11,2.69,0,3.65.8,3.65,3.11v14.49ZM119.59,46.28c0,1.43-.34,3.11-3.07,3.11s-3.65-.8-3.65-3.11v-30.25c0-1.22.21-3.11,3.07-3.11,2.69,0,3.65.8,3.65,3.11v30.25ZM133.75,48.71c0,1.47-.38,3.11-3.07,3.11s-3.65-.8-3.65-3.11V15.11c0-1.55.42-3.11,3.02-3.11.63,0,2.27.13,2.77.55.92.76.92,2.06.92,2.56v33.61Z"/>
    <path class="cls-2" d="M147.81,48c-1.55,1.01-4.96,3.07-6.6,3.07-2.14,0-3.36-2.31-3.36-3.82,0-1.81,1.3-2.31,3.32-3.07,1.72-.67,3.78-1.85,5.42-2.86.59-.38,1.18-.55,1.81-.55,1.89,0,3.07,2.02,3.07,3.4s-1.72,2.56-3.65,3.82ZM160.79,40.69v8.11c0,.5,0,1.85-.97,2.56-.42.38-2.06.5-2.65.5-2.1,0-2.9-1.01-2.9-3.07v-8.11h-9.87c-3.32,0-5.08-1.18-5.08-5.12v-18.69c0-2.73,1.43-3.07,3.32-3.07,2.27,0,2.94,1.18,2.94,3.07v16.8c0,.8.42,1.18,1.13,1.18h27.77c2.81,0,3.02,1.6,3.02,3.07,0,2.23-1.34,2.77-3.02,2.77h-6.72c.46.13.84.21,2.69,1.34,1.34.8,2.81,1.6,4.2,2.23,1.76.8,2.9,1.43,2.9,2.94s-1.3,3.82-3.44,3.82c-1.64,0-5.04-2.27-6.76-3.4-3.02-1.97-3.44-2.65-3.44-3.78,0-1.3.84-2.73,2.39-3.15h-5.5ZM174.48,28.34c0,3.99-1.89,5-4.96,5h-16.8c-3.15,0-5-1.09-5-5v-10.67c0-3.91,1.85-5,5-5h16.8c3.07,0,4.96,1.01,4.96,5v10.67ZM168.44,18.93v-.92c0-.5-.25-.8-.76-.8h-13.19c-.5,0-.8.29-.8.8v.92h14.74ZM168.44,22.29h-14.74v1.64h14.74v-1.64ZM168.44,27.29h-14.74v.88c0,.5.25.8.8.8h13.19c.55,0,.76-.38.76-.8v-.88Z"/>
  </g>
  <path class="cls-2" d="M270.07,10.23c-11.56,0-20.93,9.37-20.93,20.93s9.37,20.93,20.93,20.93,20.93-9.37,20.93-20.93-9.37-20.93-20.93-20.93ZM279.38,32.15l-9.31,9.88-9.31-9.88c-.8-.88-.74-2.24.14-3.04.86-.78,2.18-.74,2.99.09l4.02,4.27v-11.01c0-1.19.96-2.15,2.15-2.15s2.15.96,2.15,2.15v11.01l4.03-4.27c.83-.85,2.19-.87,3.04-.04.83.81.87,2.13.09,2.99Z"/>
</svg>