<?xml version="1.0" encoding="UTF-8"?>
<svg id="Layer_1" data-name="Layer 1" xmlns="http://www.w3.org/2000/svg" xmlns:xlink="http://www.w3.org/1999/xlink" version="1.1" viewBox="0 0 83.4 84.9">
  <defs>
    <style>
      .cls-1 {
        clip-path: url(#clippath);
      }

      .cls-2 {
        fill: none;
      }

      .cls-2, .cls-3, .cls-4 {
        stroke-width: 0px;
      }

      .cls-3 {
        fill: #56aabf;
      }

      .cls-4 {
        fill: #fff8ed;
      }
    </style>
    <clipPath id="clippath">
      <rect class="cls-2" y="0" width="83.4" height="84.9"/>
    </clipPath>
  </defs>
  <g id="Group_797" data-name="Group 797">
    <circle id="Ellipse_21" data-name="Ellipse 21" class="cls-3" cx="42" cy="42" r="34"/>
    <g id="Group_413" data-name="Group 413">
      <g class="cls-1">
        <g id="Group_412" data-name="Group 412">
          <path id="Path_451" data-name="Path 451" class="cls-4" d="M52.7,32l-16.5,17.2-5.5-6c-.8-.8-2-.9-2.9-.2,0,0,0,0,0,0-.8.8-.9,2.1-.1,3l8.4,9.2,19.6-20.3c.8-.8.8-2.2,0-3-.8-.8-2.1-.8-2.9,0,0,0,0,0,0,0"/>
          <path id="Path_452" data-name="Path 452" class="cls-4" d="M41.7,0C18.7,0,0,19,0,42.5s18.7,42.5,41.7,42.5,41.7-19,41.7-42.5S64.7,0,41.7,0M69.7,49.8c-.5,2-4,3-4.9,4.8-.9,1.9.6,5.3-.6,6.9s-4.9.9-6.5,2.2-1.7,5-3.5,5.9c-1.8.9-4.8-1.4-6.8-.9-1.9.4-3.6,3.8-5.7,3.8s-3.8-3.3-5.7-3.8c-2-.5-4.9,1.8-6.8.9-1.8-.9-1.9-4.7-3.5-5.9s-5.2-.5-6.5-2.2.2-5-.6-6.9c-.9-1.8-4.4-2.8-4.9-4.8-.4-2,2.4-4.4,2.4-6.5s-2.8-4.5-2.4-6.5c.5-2,4-3,4.9-4.8.9-1.9-.6-5.3.6-6.9s4.9-.9,6.5-2.2,1.7-5,3.5-5.9c1.8-.9,4.8,1.4,6.8.9,1.9-.5,3.6-3.8,5.7-3.8s3.8,3.3,5.7,3.8c2,.5,4.9-1.8,6.8-.9,1.8.9,1.9,4.7,3.5,5.9s5.2.5,6.5,2.2-.2,5,.6,6.9c.9,1.8,4.4,2.8,4.9,4.8.4,2-2.4,4.4-2.4,6.5s2.8,4.5,2.4,6.5"/>
        </g>
      </g>
    </g>
  </g>
</svg>