<?xml version="1.0" encoding="UTF-8"?>
<svg id="Layer_1" data-name="Layer 1" xmlns="http://www.w3.org/2000/svg" xmlns:xlink="http://www.w3.org/1999/xlink" version="1.1" viewBox="0 0 85 86.6">
  <defs>
    <style>
      .cls-1 {
        clip-path: url(#clippath);
      }

      .cls-2 {
        fill: none;
      }

      .cls-2, .cls-3, .cls-4 {
        stroke-width: 0px;
      }

      .cls-3 {
        fill: #56aabf;
      }

      .cls-4 {
        fill: #fff8ed;
      }
    </style>
    <clipPath id="clippath">
      <rect class="cls-2" width="85" height="86.6"/>
    </clipPath>
  </defs>
  <circle id="Ellipse_22" data-name="Ellipse 22" class="cls-3" cx="41.5" cy="43.5" r="34.5"/>
  <g id="Group_415" data-name="Group 415">
    <g class="cls-1">
      <g id="Group_414" data-name="Group 414">
        <path id="Path_453" data-name="Path 453" class="cls-4" d="M40.3,59.6c0,.8.2,2.4,1.7,2.4.8,0,1.5-.4,2.2-.8-.7-2.3-1.1-4.6-1.2-7-1.7,1.3-2.6,3.3-2.6,5.4"/>
        <path id="Path_454" data-name="Path 454" class="cls-4" d="M26.6,39.6c0,2.3,1.5,2.9,2.9,2.9,3,0,5.5-2.4,5.6-5.5v-2.3c-1.3.5-2.6.8-3.9,1-3,.7-4.6,1.3-4.6,3.9"/>
        <path id="Path_455" data-name="Path 455" class="cls-4" d="M49.1,56c1-1.5,1.8-3.1,2.4-4.8-.9,0-1.8,0-2.6.3,0,1.5,0,3,.3,4.5"/>
        <path id="Path_456" data-name="Path 456" class="cls-4" d="M42.5,0C19,0,0,19.4,0,43.3s19,43.3,42.5,43.3,42.5-19.4,42.5-43.3S66,0,42.5,0M54.8,68.8c-1.5.2-2.9-.9-3.1-2.4,0-.2,0-.4,0-.7,0-2.5,1.4-2.7,3.2-2.9,3.6-.3,6-1.6,6-5.6,0-1.3-.3-2.6-1.1-3.6-.6-.8-1.5-1.4-2.5-1.6-1.4,3.6-3.4,7-6,9.9.2.5.3,1,.4,1.5,0,1.8-1.5,3.1-3.3,3.2-.7,0-1.4-.2-1.8-.7-1.6,1-3.5,1.6-5.4,1.7-3.6,0-6.5-2.9-6.5-7.9s5.1-10.3,8.2-11.8c0-.5,0-2.7,0-3.2h-.5l-18.2,17.8c-.3.3-.9.3-1.2,0,0,0,0,0,0,0-.3-.4-.3-.9,0-1.3l13.6-13.4c-.7-.6-1.2-1.5-1.3-2.4-1.1,1.2-3.2,3.2-8.2,3.2-8.2,0-9.4-6.5-9.4-9.5,0-7.6,6.6-8.6,11.5-9.3,4.6-.7,6.1-.9,6.1-2.7s-.3-2.6-3.8-2.6-3.3.8-4.7,3.2c-.9,1.3-2.5,2-4,1.9-1.3,0-4.2-.3-4.2-3.2s2-8.8,13-8.8,12.2,0,12.2,9.5v13.7l14.2-13.9c.3-.3.9-.3,1.2,0,0,0,0,0,0,0,.3.4.3.9,0,1.3l-9.7,9.5c0,.3,0,.5,0,.8,1.5,0,3.2,0,5.6-.2,1.3,0,7.3-.4,8.1-.4s3.2,0,3.2,3.1c.2,1.4-.8,2.7-2.2,2.9h0c-2.1.3-11.9.5-14.9.6,0,.3,0,1.3,0,1.5,1.2-.2,2.5-.3,3.7-.3,6,0,8.6,1.3,10.4,2.8,2.7,2.1,4.3,5.4,4.1,8.8,0,8.8-7.4,11.2-12.5,11.2"/>
      </g>
    </g>
  </g>
</svg>