<?xml version="1.0" encoding="UTF-8"?>
<svg id="Layer_1" data-name="Layer 1" xmlns="http://www.w3.org/2000/svg" xmlns:xlink="http://www.w3.org/1999/xlink" viewBox="0 0 65.62 57.47">
  <defs>
    <style>
      .cls-1 {
        fill: none;
      }

      .cls-2 {
        fill: #fff;
      }

      .cls-3 {
        opacity: .35;
      }

      .cls-4 {
        opacity: .3;
      }

      .cls-5 {
        opacity: .15;
      }

      .cls-6 {
        fill: #336ec2;
      }

      .cls-7 {
        clip-path: url(#clippath);
      }
    </style>
    <clipPath id="clippath">
      <path class="cls-1" d="M39.74.23C28.69-.46,17.55.4,6.74,2.75c-1.8.39-3.67.86-5.07,2.06C.26,6.01-.52,8.15.39,9.75c.61,1.08,1.82,1.69,3,2.06,4.17,1.32,8.69.56,13.05.96s9.21,2.7,10.01,7c.32,1.72-.07,3.52.28,5.23.36,1.71,2,3.42,3.65,2.84,2.41-.85,1.5-4.84,3.38-6.57,1.58-1.46,4.34-.39,5.42,1.46s1.02,4.13,1.11,6.28c.15,3.76-2.26,10-.36,13.24,2.49,4.23,5.47-.25,6.71-1.99,1.62-2.26,3.48-1.49,3.73,1.74.33,4.33,1.2,8.54,2.49,11.18.91,1.88,2.41,3.88,4.47,4.23,3.05.51,5.18-4.05,6-7.04,3.07-11.16,3.52-23.54-1.59-33.93C56.65,6.06,45.05-1.6,33.64.36"/>
    </clipPath>
  </defs>
  <path class="cls-2" d="M39.74.23C28.69-.46,17.55.4,6.74,2.75c-1.8.39-3.67.86-5.07,2.06C.26,6.01-.52,8.15.39,9.75c.61,1.08,1.82,1.69,3,2.06,4.17,1.32,8.69.56,13.05.96s9.21,2.7,10.01,7c.32,1.72-.07,3.52.28,5.23.36,1.71,2,3.42,3.65,2.84,2.41-.85,1.5-4.84,3.38-6.57,1.58-1.46,4.34-.39,5.42,1.46s1.02,4.13,1.11,6.28c.15,3.76-2.26,10-.36,13.24,2.49,4.23,5.47-.25,6.71-1.99,1.62-2.26,3.48-1.49,3.73,1.74.33,4.33,1.2,8.54,2.49,11.18.91,1.88,2.41,3.88,4.47,4.23,3.05.51,5.18-4.05,6-7.04,3.07-11.16,3.52-23.54-1.59-33.93C56.65,6.06,45.05-1.6,33.64.36"/>
  <g class="cls-7">
    <g class="cls-4">
      <path class="cls-6" d="M2.73,1.39C-1.71,1.89-2.56,7.52-.73,10.93c4.09,7.67,13.82,3.57,20.03,6.61,5.96,2.92,1.07,11.7,7.39,14.58,2.26,1.03,4.88.71,6.83-.8,1.03-.8,3.03-5.78,3.73-5.9-1.05-.28-2.1-.56-3.15-.83,6.28,5.72-4.23,16.8,2.97,22.26,2.67,2.02,5.96,1.4,8.6-.36,1.18-.79,2.99-2.12,3.49-3.5-.37-.33-.74-.66-1.11-.99.14.53.26,1.07.35,1.61.02,1,.34,2.18.5,3.15.95,6,4.67,13.7,12.04,12.09,8.49-1.85,12.45-14.38,12.35-21.78-.04-2.81-3.61-2.93-4.58-.62-1.46,3.51-3.03,7.47-4.89,10.8-.75,1.35-2.12,4.27-3.51,4.77-2.11.75-3.44-1.3-4.09-2.88-1.54-3.77-1.11-9.1-3.87-12.15-1.36-1.5-3.37-2.26-5.58-.71-1.52,1.06-2.76,5.74-4.95,4.9-1.58-.6.1-5.47.29-6.87.36-2.66.55-5.63-.05-8.28-.88-3.91-4.22-9.06-8.72-6.1-2.12,1.39-1.29,4.27-3.1,5.41-1.48.93-1.51-2.65-1.7-4.15-.65-5.04-3.68-8.41-8.67-9.74C14.94,10.16-1.8,12.33,3.38,2.51c.24-.45-.05-1.19-.64-1.12h0Z"/>
    </g>
    <g class="cls-5">
      <path class="cls-6" d="M26.16-17.38C7.85-30.04-19.05-9.27-12.45,11.61c6.8,21.52,32.93,15.82,49.34,20.62-.82-.24-6.14-.54-5.33-2.67.17-.46,1.89,4.25.7.61,4.82,14.87,4.89,33.87,23.56,38.04,17.28,3.86,27.67-11.63,31.25-26.35,2.75-11.32-5.47-37.07-17.74-18.58-3.75,5.64-4.97,23.83-9.27,23.53-4.3-.31-3.95-13.11-5.48-18.33-5.31-18.13-17.14-17.61-33.31-19.25C6.55,7.72,4.23,2.75,11.32-1.11c3.54-2.77,26.21-8.41,14.84-16.28h0Z"/>
    </g>
  </g>
  <g class="cls-3">
    <path class="cls-6" d="M45.56,5.98c-.03.06-.07.12-.1.18l-.04.1c-.02.06-.02.12,0,.17,0,.04.01.08.03.11.02.05.05.1.09.14l.09.07.1.04c.06.02.12.02.17,0,.06,0,.11-.02.16-.05.06-.03.12-.07.18-.1.07-.04.13-.1.18-.18.04-.08.07-.16.07-.25l-.02-.13c-.02-.08-.07-.16-.13-.22-.04-.05-.1-.08-.16-.1-.06-.03-.12-.05-.19-.04-.17,0-.34.09-.43.24h0Z"/>
  </g>
  <g class="cls-5">
    <path class="cls-6" d="M51.29,8.85c.16,0,.31-.14.31-.31s-.13-.31-.31-.31c-.16,0-.31.14-.31.31s.13.31.31.31h0Z"/>
  </g>
  <g class="cls-3">
    <path class="cls-6" d="M49.13,11.37c.22,0,.23-.35,0-.35s-.23.35,0,.35h0Z"/>
  </g>
  <g class="cls-5">
    <path class="cls-6" d="M60.4,41.46c.14,0,.27-.12.27-.27s-.12-.27-.27-.27c-.14,0-.27.12-.27.27s.12.27.27.27h0Z"/>
  </g>
  <g class="cls-3">
    <path class="cls-6" d="M63.38,34.38c.25,0,.5-.22.49-.49s-.21-.49-.49-.49c-.25,0-.5.22-.49.49s.21.49.49.49h0Z"/>
  </g>
  <g class="cls-5">
    <path class="cls-6" d="M57.92,29.85c.14,0,.27-.12.26-.26s-.11-.26-.26-.26c-.14,0-.27.12-.26.26s.11.26.26.26h0Z"/>
  </g>
  <g class="cls-3">
    <path class="cls-6" d="M15,4.78c.26,0,.27-.41,0-.41s-.27.41,0,.41h0Z"/>
  </g>
  <g class="cls-5">
    <path class="cls-6" d="M21.46,6.83h.13c.06,0,.12,0,.17-.03.05-.02.1-.05.14-.09.04-.04.07-.09.09-.14.03-.05.04-.11.04-.17l-.02-.12c-.02-.07-.06-.14-.11-.2l-.09-.07c-.07-.04-.14-.06-.22-.06h-.13c-.06,0-.12.02-.17.05-.05.02-.1.05-.14.09-.04.04-.07.09-.09.14-.03.05-.04.11-.04.17l.02.12c.02.07.06.14.11.19l.09.07c.07.04.14.06.22.06h0Z"/>
  </g>
  <g class="cls-3">
    <path class="cls-6" d="M27.1,2.8c.12,0,.22-.1.22-.22s-.1-.22-.22-.22-.22.1-.22.22.1.22.22.22h0Z"/>
  </g>
</svg>