<?xml version="1.0" encoding="UTF-8"?>
<svg id="Layer_2" data-name="Layer 2" xmlns="http://www.w3.org/2000/svg" xmlns:xlink="http://www.w3.org/1999/xlink" viewBox="0 0 103.35 46.82">
  <defs>
    <style>
      .cls-1 {
        fill: none;
      }

      .cls-2, .cls-3 {
        opacity: .15;
      }

      .cls-2, .cls-4 {
        fill: #336ec2;
      }

      .cls-5 {
        fill: #fff;
      }

      .cls-6 {
        opacity: .35;
      }

      .cls-7 {
        opacity: .3;
      }

      .cls-8 {
        clip-path: url(#clippath);
      }
    </style>
    <clipPath id="clippath">
      <path class="cls-1" d="M5.39,17.97C.4,20.17-1.41,23.44,1.17,25.9c.77.73,1.87.97,2.92,1.1,3.58.43,7.21-.15,10.8.14,3.59.29,7.44,1.72,9.12,4.91.92,1.75,1.25,4.04,2.99,4.99,3.97,2.17,6.96-5.41,11.48-5.69,2.14-.14,3.97,1.43,5.98,2.18,7.16,2.65,11.77-4.96,17.82-1.99,2.08,1.02,4.86,4.87,7.18,4.87,2.55,0,3.76-3.33,5.41-3.82,3.11-.93,5.36,2.97,6.11,6.13.75,3.16.53,8.13,4.01,8.13s2.76-11.35,7.35-13.01c2.35-.85,4.96-.76,7.3-1.64,2.34-.88,4.45-3.43,3.47-5.73-.89-2.1-3.56-2.55-5.72-3.28-6.46-2.18-10.24-8.64-14.36-14.07S72.46-1.54,65.93.43c-5.06,1.53-8.24,6.95-13.34,8.35-7.27,2.01-14.57-4.98-21.99-3.6-2.29.42-4.35,1.62-6.36,2.79-6.57,3.84-13.86,7.81-18.85,10.01Z"/>
    </clipPath>
  </defs>
  <path class="cls-5" d="M5.39,17.97C.4,20.17-1.41,23.44,1.17,25.9c.77.73,1.87.97,2.92,1.1,3.58.43,7.21-.15,10.8.14,3.59.29,7.44,1.72,9.12,4.91.92,1.75,1.25,4.04,2.99,4.99,3.97,2.17,6.96-5.41,11.48-5.69,2.14-.14,3.97,1.43,5.98,2.18,7.16,2.65,11.77-4.96,17.82-1.99,2.08,1.02,4.86,4.87,7.18,4.87,2.55,0,3.76-3.33,5.41-3.82,3.11-.93,5.36,2.97,6.11,6.13.75,3.16.53,8.13,4.01,8.13s2.76-11.35,7.35-13.01c2.35-.85,4.96-.76,7.3-1.64,2.34-.88,4.45-3.43,3.47-5.73-.89-2.1-3.56-2.55-5.72-3.28-6.46-2.18-10.24-8.64-14.36-14.07S72.46-1.54,65.93.43c-5.06,1.53-8.24,6.95-13.34,8.35-7.27,2.01-14.57-4.98-21.99-3.6-2.29.42-4.35,1.62-6.36,2.79-6.57,3.84-13.86,7.81-18.85,10.01Z"/>
  <g>
    <g class="cls-6">
      <path class="cls-4" d="M31.04,8.27l-.03.05c-.05.08-.07.17-.07.27,0,.1.02.19.07.27l.03.05c.04.07.09.13.16.18.04.04.09.07.14.08.08.04.16.06.24.05l.17-.02.15-.06c.07-.04.13-.09.18-.16.04-.04.07-.09.08-.14.04-.08.06-.16.05-.24l-.02-.17-.06-.15c-.04-.07-.09-.13-.16-.18-.04-.04-.09-.07-.14-.08-.08-.04-.16-.06-.24-.05l-.17.02-.15.06c-.1.06-.17.13-.23.23h0Z"/>
    </g>
    <g class="cls-6">
      <path class="cls-4" d="M28.76,11.37v-.06s0-.02,0-.03c0-.04,0-.07-.01-.11l-.02-.1-.03-.07s-.04-.06-.08-.08c-.02-.02-.04-.03-.07-.04-.04-.02-.07-.03-.12-.03h-.08s-.05.03-.07.04c-.04.02-.06.04-.08.08-.03.03-.04.06-.05.1l-.02.1s-.01.07-.01.11v.03s0,.04,0,.06c0,.04,0,.09.03.12.01.04.04.07.07.1.03.03.06.05.1.07.04.02.08.03.12.03h.09c.05-.03.1-.05.14-.09l.05-.07c.03-.05.04-.1.04-.16h0Z"/>
    </g>
    <g class="cls-3">
      <path class="cls-4" d="M34.47,11.5c.19,0,.37-.17.37-.37s-.16-.37-.37-.37c-.19,0-.37.17-.37.37s.16.37.37.37h0Z"/>
    </g>
    <g class="cls-6">
      <path class="cls-4" d="M69,4.27c.08,0,.15-.01.21-.05.07-.02.13-.06.18-.11.05-.05.09-.11.11-.18.03-.07.05-.14.05-.21l-.02-.15c-.03-.09-.07-.17-.14-.24l-.11-.09c-.09-.05-.18-.07-.28-.07-.08,0-.15.01-.21.05-.07.02-.13.06-.18.11-.05.05-.09.11-.11.18-.03.07-.05.14-.05.21l.02.15c.03.09.07.17.14.24l.11.09c.09.05.18.07.28.07h0Z"/>
    </g>
    <g class="cls-3">
      <path class="cls-4" d="M65.06,7.61c.22,0,.42-.19.41-.41s-.18-.41-.41-.41c-.22,0-.42.19-.41.41s.18.41.41.41h0Z"/>
    </g>
    <g class="cls-6">
      <path class="cls-4" d="M74.51,7.48l.03-.17-.02.05h0s-.02.03-.03.04l.02-.02.04-.05.03-.06s.01-.07,0-.1c0-.02,0-.04-.02-.06,0-.02-.02-.04-.03-.05-.01-.02-.03-.03-.04-.04-.02-.02-.03-.03-.05-.03-.03-.02-.06-.02-.1-.02h-.07s-.04.03-.06.03l-.05.04-.04.05-.03.06s-.01.07,0,.1c0,.02,0,.04.02.06.01.03.03.06.05.08l.02.02-.03-.05h0s-.01-.03-.02-.05l.03.17.02.04s.03.04.05.05c.01.01.03.02.04.02.02.01.05.02.07.02h.05s.03-.02.04-.03c.02-.01.04-.03.05-.05.02-.02.03-.04.03-.06h0Z"/>
    </g>
    <g class="cls-3">
      <path class="cls-4" d="M87.54,21.41c.16,0,.32-.14.31-.31s-.14-.31-.31-.31c-.16,0-.32.14-.31.31s.14.31.31.31h0Z"/>
    </g>
    <g class="cls-6">
      <path class="cls-4" d="M85.45,26.88c.23,0,.46-.2.45-.45s-.2-.45-.45-.45c-.23,0-.46.2-.45.45s.2.45.45.45h0Z"/>
    </g>
    <g class="cls-6">
      <path class="cls-4" d="M81.98,23.84c.24,0,.24-.38,0-.38s-.24.38,0,.38h0Z"/>
    </g>
    <g class="cls-3">
      <path class="cls-4" d="M42.58,23.78c.19,0,.37-.17.36-.36s-.16-.36-.36-.36c-.19,0-.37.17-.36.36s.16.36.36.36h0Z"/>
    </g>
    <g class="cls-3">
      <path class="cls-4" d="M35.16,21.84c.14,0,.28-.12.27-.27s-.12-.27-.27-.27c-.14,0-.28.12-.27.27s.12.27.27.27h0Z"/>
    </g>
    <g class="cls-6">
      <path class="cls-4" d="M27.05,22.44c.23,0,.23-.35,0-.35s-.23.35,0,.35h0Z"/>
    </g>
    <g class="cls-6">
      <path class="cls-4" d="M40.49,20.33c.2,0,.4-.18.39-.39s-.17-.39-.39-.39c-.2,0-.4.18-.39.39s.17.39.39.39h0Z"/>
    </g>
    <g class="cls-3">
      <path class="cls-4" d="M64.36,22.37c.18,0,.35-.16.34-.34s-.15-.34-.34-.34c-.18,0-.35.16-.34.34s.15.34.34.34h0Z"/>
    </g>
    <g class="cls-3">
      <path class="cls-4" d="M53.7,14.41c.14,0,.27-.12.26-.26s-.11-.26-.26-.26c-.14,0-.27.12-.26.26s.11.26.26.26h0Z"/>
    </g>
  </g>
  <g class="cls-8">
    <g class="cls-7">
      <path class="cls-4" d="M-1.44,17.05c-2.76,3.16-1.88,8.13,1.2,10.88,5.42,4.83,13.34.61,19.14,3.8,4.2,2.3,5.67,8.32,11.36,7.89,2.51-.19,3.9-1.86,5.87-3.11,3.6-2.27,6.84.77,10.7.89,2.91.08,5.49-1.07,8.14-2.1,4.19-1.62,6.48-.86,10.27,1.3,2.07,1.18,4.28,2.29,6.74,2.01,1.09-.12,2.03-.53,2.99-1.05,2.02-1.1,1.71-.93,2.75,1.38,1.81,4.04,3.78,10.86,9.85,9.19,6.02-1.65,3.73-9.03,8.43-11.59,4.75-2.58,10.55-3.92,10.87-10.45.23-4.62-3.53-11.21-8.89-9.65-1.6.47-1.99,2.36-.94,3.56,1.77,2.01,5.35,3.8,3.63,7.14-1.14,2.2-4.68,2.91-6.71,3.85-1.89.88-3.68,1.95-4.96,3.64-1.54,2.05-.98,4.97-2.27,6.84-1.9,2.76-3-2.42-3.5-3.68-.54-1.35-1.07-2.74-1.91-3.94-1.13-1.61-2.46-2.89-4.55-2.91-3.07-.02-4.51,2.66-7.67,1.53-2.61-.93-4.55-3.01-7.35-3.65-5.79-1.34-10.6,4.07-16.14,2.86-2.75-.6-5.02-2.16-7.93-1.83-3.04.35-4.13,2.8-6.73,3.76-2.83,1.05-4.32-2.29-5.94-4.02-1.82-1.95-3.96-3.32-6.55-3.98-4.41-1.13-20.07,1.42-17.43-7.14.42-1.37-1.49-2.56-2.47-1.44h0Z"/>
    </g>
    <path class="cls-2" d="M112.96,20.19c-.27-7.03-5.15-11.75-11.01-14.85-8.78-4.64-17.77,4.4-10.24,11.74.52.51.51-5.18.93-4.64.54.71-1.78-4.38-1.24,6.03.15,2.94,6.09,4.53,2.47,5.56-2.2.63-5.1.77-5.87,4.02-.69,2.88-4.28,2.6-7.73-.77-2.95-2.89-6.62-3.2-10.36-3.17-3.23.03-4.82,1.37-6.57.46-2.81-1.47-5.53-3.47-8.72-3.31-2.89.14-4.46,1.58-6.64,3.4-.41.34-2.65,2.66-5.1,1.85-1.18-.39-3.12-1.99-4.36-2.43-1.44-.52-2.99-.9-4.54-.94-1.58-.05-3.29.3-4.81.7-.23.06-1.06.37-1.74.65-.78.33-2,.26-2.63-.3-.94-.83-1.74-1.95-2.18-2.47-1.84-2.16-2.92-2.78-6.32-2.78-1.86,0-5.72,1.39-8.03,0-1.66-.99,4.51-3.79,2.78-4.79-1.39-.81-11.44-1.26-12.81-.2-6.81,5.23-2.98,14.53,3.78,17.73,3.51,1.67,7.18.57,10.63,1.65,2.65.83,4.57,3.73,7.07,5.03,3.41,1.76,7.03,1.91,10.72.99,1.36-.34,2.23-.89,3.37-.71,1.8.27,3.61,1.95,5.48,2.38,3.39.78,6.83.32,10.06-.85,1.57-.57,3.07-1.48,4.7-1.88.15-.03.28-.05.39-.07.42-.08.84-.02,1.22.17.33.16.64.33.95.52,2.17,1.02,4.23,1.88,6.66,2.02.54.03,1.16-.06,1.81-.19.85-.18,1.68.26,2.07,1.04,1.12,2.26,3.06,4.09,5.59,4.51,2.64.45,5.18.87,7.71,1.04.08,0,.17.02.25.04,3.58.88,7.29.34,11.1-1.72.04-.02.09-.04.13-.06,1.91-.77,3.75-1.71,5.5-2.8.07-.05.15-.09.23-.12,1.97-.85,3.95-1.68,5.72-2.94,3.25-2.3,5.58-5.57,6.9-9.31.18-.51.34-1.03.48-1.55,1.41-2.68,2.29-5.59,2.17-8.65Z"/>
  </g>
</svg>