<?xml version="1.0" encoding="UTF-8"?>
<svg id="Layer_1" data-name="Layer 1" xmlns="http://www.w3.org/2000/svg" xmlns:xlink="http://www.w3.org/1999/xlink" viewBox="0 0 151.28 61.7">
  <defs>
    <style>
      .cls-1 {
        fill: none;
      }

      .cls-2 {
        opacity: .3;
      }

      .cls-2, .cls-3 {
        fill: #336ec2;
      }

      .cls-4 {
        fill: #fff;
      }

      .cls-5 {
        opacity: .35;
      }

      .cls-6 {
        opacity: .15;
      }

      .cls-7 {
        clip-path: url(#clippath);
      }
    </style>
    <clipPath id="clippath">
      <path class="cls-1" d="M145.52,28.49c-4.3-3.45-8.94-6.84-14.35-7.84-5.95-1.1-12.18.81-18.08-.5-7.56-1.69-12.92-8.19-19.27-12.63C80.49-1.77,62.35-1.76,47.08,3.79S18.85,19.74,6.54,30.34c-2.56,2.2-5.22,4.59-6.24,7.81-1.03,3.22.49,9.01,6.04,7.97,1.82.02,3.57-.61,5.33-1.06,4.17-1.08,8.6-1.19,12.78-.15,6.57,1.64,12.1,5.98,18.33,8.62,6.9,2.92,14.68,3.71,22.02,2.22,6.42-1.3,12.4-4.26,18.78-5.74,6.38-1.48,13.76-1.2,18.61,3.21,1.34,1.21,2.45,2.72,4.03,3.59,1.58.87,3.9.83,4.86-.69.93-1.46.16-3.43.65-5.09.91-3.09,4.18-3.74,6.37-1.38,2.19,2.37.25,9.66,4.14,9.66,5.06,0,2.33-9.41,3.7-11.24,1.37-1.83,5.09-1.4,5.22,2.98.07,2.31.33,4.61.88,6.85.56,2.24,2.76,4.45,4.92,3.64.84-.31,1.46-1.02,1.96-1.76,3.09-4.6,2.37-11.31,6.33-15.19,1.73-1.7,4.24-2.68,5.4-4.81,2.15-3.96-1.62-8.46-5.13-11.28Z"/>
    </clipPath>
  </defs>
  <g class="cls-7">
    <path class="cls-4" d="M145.52,28.49c-4.3-3.45-8.94-6.84-14.35-7.84-5.95-1.1-12.18.81-18.08-.5-7.56-1.69-12.92-8.19-19.27-12.63C80.49-1.77,62.35-1.76,47.08,3.79S18.85,19.74,6.54,30.34c-2.56,2.2-5.22,4.59-6.24,7.81-1.03,3.22.49,9.01,6.04,7.97,1.82.02,3.57-.61,5.33-1.06,4.17-1.08,8.6-1.19,12.78-.15,6.57,1.64,12.1,5.98,18.33,8.62,6.9,2.92,14.68,3.71,22.02,2.22,6.42-1.3,12.4-4.26,18.78-5.74,6.38-1.48,13.76-1.2,18.61,3.21,1.34,1.21,2.45,2.72,4.03,3.59,1.58.87,3.9.83,4.86-.69.93-1.46.16-3.43.65-5.09.91-3.09,4.18-3.74,6.37-1.38,2.19,2.37.25,9.66,4.14,9.66,5.06,0,2.33-9.41,3.7-11.24,1.37-1.83,5.09-1.4,5.22,2.98.07,2.31.33,4.61.88,6.85.56,2.24,2.76,4.45,4.92,3.64.84-.31,1.46-1.02,1.96-1.76,3.09-4.6,2.37-11.31,6.33-15.19,1.73-1.7,4.24-2.68,5.4-4.81,2.15-3.96-1.62-8.46-5.13-11.28Z"/>
    <path class="cls-2" d="M135.52,11.22c-4.83-.82-6.44,5.4-1.99,7.23,7.86,3.26,20.77,10.55,12.67,19.63-2.57,2.88-7.21,2.36-8.57,7.95-.66,2.69,1.43,10.03-1.83,10.17-3.26.14-2.51-4.41-2.43-5.58.14-3.09-1.95-5.85-4.43-5.78-6.34.19-4.1,8.45-4.72,10.25-.88,2.54-3.98,1.86-3.6-1.99.41-4.21-3.1-7.69-8.02-5.24-2.67,1.33-2.64,4.69-6,3.44-2.97-1.11-5.2-4.18-8.24-5.47-5.71-2.42-12.16-1.88-18-.16-6.79,2-13.21,5.86-20.4,6.27-7.74.45-15.34-2.33-22.18-5.7-5.75-2.83-11.41-6.47-17.94-7.11-3.21-.31-6.12.44-9.26.92-5.52.84-9.57-3.26-7.09-8.99.49-1.13-.68-2.97-1.98-1.98-4.81,3.69-6.17,10.71-1.85,15.43,6.34,6.93,14.48,1.43,22.15,3.59,8.72,2.46,16.12,8.47,24.97,10.92,8.42,2.33,16.77,2.06,24.99-.9,7.33-2.64,16.91-8.19,24.58-3.67,3.49,2.05,5.9,5.1,10.07,5.9,2.58.49,5.3.03,7.44-1.45.15.35.29.66.39.86,1.46,2.99,4.03,5.24,7.36,5.79,2.98.5,6.16-.48,8.09-2.86.02-.03.04-.06.06-.08.84.78,1.84,1.43,3.06,1.9.86.33,1.75.51,2.64.55,1.34.62,3.01.57,4.47-.68.44-.38.83-.77,1.19-1.17,1.43-1.16,2.47-2.8,2.75-4.8.07-.49.05-.94,0-1.37.6-2.05,1.06-4.18,1.82-6.36,1.16-3.3,3.82-5.06,5.91-7.74,1.74-2.23,2.8-4.7,3.28-7.49,2.03-12-8.07-22.35-19.34-24.27Z"/>
    <g class="cls-6">
      <path class="cls-3" d="M-2.06,15.65c-7.67,2.39-8.22,13.1-7.19,19.79,1.41,9.16,7.51,16.72,16.15,20.11,9.1,3.57,18.76,1.19,27.93,3.66,9.99,2.69,18.17,8.24,28.93,8.15,10.52-.09,18.81-5.28,28.73-7.54,8.54-1.94,16.52,3.64,24.65,5.45,21.26,4.74,47.4-6.26,52.19-29.28,2.63-12.64-1.52-24.49-10.43-33.66-8.68-8.94-25.39-19.19-36.53-8.89-4.03,3.73-4.04,9.59-1.83,14.18,3.37,6.98,13.24,8.27,18.12,12.84,2.31,2.16,3.39,2.93,4.58,6.15-.6-1.63.22,2.15.02.43.21,1.84-.12,2.74-.29,3.29-1.11,3.58-4.67,7.18-9.47,9.03-6.41,2.47-12.28,1.74-18.9-.11-7.9-2.2-15.37-4.25-23.64-3.06-7.72,1.11-14.4,4.9-21.83,7.02-7.02,2.01-13.07-.18-19.66-2.64-7.37-2.75-14.63-4.11-22.52-3.98-6.58.11-13.19.96-18.04-3.88-1.97-1.96-3.56-3.77-4.48-6.44-1.05-3.06-.54-6.03-2.27-8.91-.83-1.38-2.63-2.21-4.21-1.71h0Z"/>
    </g>
  </g>
  <g>
    <g class="cls-5">
      <path class="cls-3" d="M62.02,7.21c-.02.08-.05.16-.07.24-.05.19,0,.39.14.53s.34.19.53.14c.08-.02.16-.05.24-.07.12-.03.22-.09.3-.18.08-.09.14-.19.18-.3.03-.12.03-.24,0-.36-.03-.12-.09-.22-.18-.3-.09-.08-.19-.14-.3-.18-.12-.03-.24-.03-.36,0-.12.03-.22.09-.3.18-.08.09-.14.19-.18.3h0Z"/>
    </g>
    <g class="cls-5">
      <path class="cls-3" d="M48.65,14.6v-.11s0-.04,0-.05c0-.04,0-.08-.01-.12,0-.02-.02-.04-.02-.05l-.02-.05-.06-.08-.04-.03s-.05-.04-.09-.05c-.03-.01-.03-.02-.05-.02,0,0,0,0-.01,0-.03,0-.01-.02-.09-.01,0,0-.09.01-.09.01,0,0,0,0,0,0,0,0,0,0,0,0,0,0,0,0,0,0,0,0,0,0,0,0,0,0-.09.04-.09.04l-.04.03s-.05.04-.07.07l-.03.04-.04.09h0s0,.07-.01.11c0,0,0,0,0,0v.05s0,.08,0,.12c0,.05,0,.1.03.15.02.05.04.09.08.12.03.04.08.06.12.08.05.02.09.03.15.03h.1c.06-.03.12-.06.17-.11l.06-.08c.03-.06.05-.12.05-.19h0Z"/>
    </g>
    <g class="cls-5">
      <path class="cls-3" d="M74.21,13.36v-.11s-.02-.03-.02-.05v-.03s0,0,0-.01c0-.03,0-.06-.01-.09,0-.03-.02-.05-.03-.08-.03-.05-.06-.08-.11-.11-.05-.03-.1-.04-.16-.04-.06,0-.11.01-.16.04-.05.03-.08.06-.11.11-.01.02-.02.05-.03.08,0,.03,0,.06-.01.09,0,0,0,0,0,.01v.03s0,.03-.01.05v.11s0,.09.01.13c.01.04.04.08.07.11.03.03.07.06.11.07.04.02.08.03.13.03h.09c.06-.03.11-.06.15-.1l.05-.07c.03-.05.05-.11.05-.17h0Z"/>
    </g>
    <g class="cls-6">
      <path class="cls-3" d="M129.79,25.26c.18,0,.38-.08.51-.21s.22-.33.21-.51-.07-.38-.21-.51-.31-.21-.51-.21c-.18,0-.38.08-.51.21s-.22.33-.21.51.07.38.21.51.31.21.51.21h0Z"/>
    </g>
    <g class="cls-5">
      <path class="cls-3" d="M123.58,27.63c.18,0,.35-.16.35-.35s-.15-.35-.35-.35c-.18,0-.35.16-.35.35s.15.35.35.35h0Z"/>
    </g>
    <g class="cls-6">
      <path class="cls-3" d="M136.5,28.27c.26,0,.51-.23.49-.49s-.22-.49-.49-.49c-.26,0-.51.23-.49.49s.22.49.49.49h0Z"/>
    </g>
    <g class="cls-6">
      <path class="cls-3" d="M63.18,30.89c.2,0,.39-.17.38-.38s-.17-.38-.38-.38c-.2,0-.39.17-.38.38s.17.38.38.38h0Z"/>
    </g>
    <g class="cls-6">
      <path class="cls-3" d="M21.18,27.19c.21,0,.41-.19.4-.4s-.18-.4-.4-.4c-.21,0-.41.19-.4.4s.18.4.4.4h0Z"/>
    </g>
    <g class="cls-5">
      <path class="cls-3" d="M26.39,29.67c.17,0,.34-.07.46-.19s.2-.3.19-.46c-.02-.35-.29-.65-.65-.65-.17,0-.34.07-.46.19s-.2.3-.19.46c.02.35.29.65.65.65h0Z"/>
    </g>
  </g>
</svg>