<?xml version="1.0" encoding="UTF-8"?>
<svg id="Layer_2" data-name="Layer 2" xmlns="http://www.w3.org/2000/svg" xmlns:xlink="http://www.w3.org/1999/xlink" viewBox="0 0 199 51.87">
  <defs>
    <style>
      .cls-1 {
        fill: none;
      }

      .cls-2, .cls-3, .cls-4 {
        fill: #336ec2;
      }

      .cls-2, .cls-5 {
        opacity: .15;
      }

      .cls-3 {
        opacity: .3;
      }

      .cls-6 {
        fill: #fff;
      }

      .cls-7 {
        opacity: .35;
      }

      .cls-8 {
        clip-path: url(#clippath);
      }
    </style>
    <clipPath id="clippath">
      <path class="cls-1" d="M7.43,13.93C4.86,15.06.27,19.39.02,22.18c-.22,2.35,1.76,4.45,3.99,5.21,2.24.76,4.67.5,7.02.27,19.41-1.9,44.37-.87,63.65,2.08,3.2.49,8.27,1.02,10.63,3.24,5.62,5.3-.66,18.89,4.31,18.89,4.64,0,2.82-4.47,2.24-11.28-.45-5.34,1.04-9.78,4.72-8.77,4.81,1.33,1.99,9.05,3.31,12.43,1.82,4.64,6.25,2.58,6.96.99,1.33-2.98,0-6.55,0-8.28,0-9.61,8.31-7.95,8.31-.51s2.93,7.97,5.44,7.97c4.47,0,5.16-5.5,7.79-8.45,6.79-7.62,41.26-2.15,62.4-6.53,3.46-.72,8.85-2.42,8.15-5.67-.62-5.03-13.63-3.13-20.52-4.59C159.42,15.14,143.37-1.12,123.98.06c-16.39,1-30.39,14.51-46.8,14.06-11.52-.31-21.69-7.48-32.93-10.03C29.98.85,12.36,6.95,2.46,17.74c-1.79,1.95-1.7,3.23-1.34,5.85.36,2.62,3.97,4.58,5.76,2.64"/>
    </clipPath>
  </defs>
  <g class="cls-8">
    <path class="cls-6" d="M7.43,13.93C4.86,15.06.27,19.39.02,22.18c-.22,2.35,1.76,4.45,3.99,5.21,2.24.76,4.67.5,7.02.27,19.41-1.9,44.37-.87,63.65,2.08,3.2.49,8.27,1.02,10.63,3.24,5.62,5.3-.66,18.89,4.31,18.89,4.64,0,2.82-4.47,2.24-11.28-.45-5.34,1.04-9.78,4.72-8.77,4.81,1.33,1.99,9.05,3.31,12.43,1.82,4.64,6.25,2.58,6.96.99,1.33-2.98,0-6.55,0-8.28,0-9.61,8.31-7.95,8.31-.51s2.93,7.97,5.44,7.97c4.47,0,5.16-5.5,7.79-8.45,6.79-7.62,41.26-2.15,62.4-6.53,3.46-.72,8.85-2.42,8.15-5.67-.62-5.03-13.63-3.13-20.52-4.59C159.42,15.14,143.37-1.12,123.98.06c-16.39,1-30.39,14.51-46.8,14.06-11.52-.31-21.69-7.48-32.93-10.03C29.98.85,12.36,6.95,2.46,17.74c-1.79,1.95-1.7,3.23-1.34,5.85.36,2.62,3.97,4.58,5.76,2.64"/>
    <path class="cls-3" d="M202.28,12.09c-3.2-2.96-8.03,1.91-4.78,4.78,3.25,2.87.03,7.05-3.1,8.26-3.27,1.27-7.06.98-10.5.96-7.1-.04-14.19.16-21.27.78-7.35.64-14.69,1.61-21.95,2.94-5.25.96-10.96,1.45-14.23,6.19-1.33,1.93-2.1,6.03-4.59,6.67-4.35,1.12-4.57-3.17-4.67-6.04-.14-3.94-2.94-8.33-7.44-7.06-4.96,1.41-3.95,7.53-3.84,11.44.03.97.28,3.96-.86,4.61-2.08,1.19-3.08-3.08-3.21-3.97-.43-3.03-.04-6.08-.57-9.14-.26-1.49-1.79-2.25-3.12-2.38-4.51-.43-6.38,4.03-6.71,7.85-.25,2.91.61,7.25-.53,9.97-.6,1.42-.31,1.31-1.07,1.07-.3-.1-.62-.5-.91-1.01-.25-1.32-.36-2.56-.35-2.9.1-2.31.65-4.47.4-6.79-.39-3.64-2.07-6.76-5.25-8.72-7.66-4.71-18.8-5.52-27.59-6.2-10.19-.78-20.44-.32-30.63.23-5.27.28-10.55.57-15.82.82-3.25.15-6.78.19-6.77-4,0-2.59,1.43-5.06,2.58-7.31.94-1.84-1.47-4.01-3-2.32-3.01,3.32-5.74,6.91-5.64,11.63.09,4.18,2.8,7.72,6.87,8.74,5.82,1.45,13.06-.03,18.99-.35,6.83-.37,13.66-.73,20.5-.77,7.04-.03,14.14.23,21.11,1.31,5.44.84,17.79,1.71,17.78,8.94,0,1.25-.08,2.46-.15,3.65-.73.71-1.11,1.79-.76,3.17.19.73.48,1.64.87,2.63.27,1.63.85,3.24,2,4.87.49.69,1.05,1.32,1.65,1.87,1.19,1.57,2.54,2.86,3.99,3.5,1.13.6,2.51.74,3.76.32,1.06-.36,2.21-1.21,2.41-2.41.03-.17.06-.35.08-.52.06-.38.06-.75.03-1.1.54-1.13.41-2.5-.19-3.54.73-1.19,1.27-2.48,1.54-3.64.03-.12.06-.33.09-.63.99,1.62,2.5,2.92,4.88,3.64,5.23,1.58,9.13-2.8,9.97-7.52.53.79,1.2,1.51,2,2.16,4.15,3.36,10.35,3.4,14.03-.62,2.77-3.02,2.96-6.82,7.07-8.48,4.39-1.78,10-2.15,14.66-2.88,10.23-1.6,20.6-2.28,30.95-2.25,7.16.02,15.99.9,21.28-5.03,3.91-4.38,4.46-11.3,0-15.42Z"/>
    <path class="cls-2" d="M207.06,18.24c-.33-3.23-3.57-5.83-6.53-5.7-.39.02-.76-.15-1.07-.38-4.14-3.16-9.05-3.11-14.04-4.53-2.31-.66-4.57,2.63-2.49,4.28,1.75,1.4,7.1,4.02,9.72,6.78.62.65.6,1.69-.03,2.32-.25.25-.51.5-.78.73-.09.08-.18.15-.29.21-4.24,2.54-12.49,1.92-17.1,1.76-7.03-.23-12.26-.91-20.38-1.16-3.17-.1-15.41.62-17.15,1.12-11.86,3.39-11.31,11.96-14.54,13.17-1.99.75-2.76-1.69-4.1-5.72-1.24-3.73-3.97-6.24-9.32-4.1-1.86.75-3.6,2.49-5.84,1.74-2.24-.75-3.09-3.16-5.72-5.22-3.48-2.73-14.91-3.23-21.87-3.23s-16.51-.09-23.79.15c-6.97.22-13.93.52-20.9.79-5.91.23-13.83,1.85-19.45-.44-3.42-1.4-3.31-4.07-1.49-7.06,2.91-4.78,9.22-7.25,13.97-9.73,8.92-4.66,2.78-19.79-6.93-16.44C2.58-7.48-13.3,2.5-11.88,19.97c.66,8.15,5.57,15.04,12.75,18.83,7.52,3.97,16.02,3.77,24.26,3.37,16.35-.79,32.96-2.42,49.33-1.36,1.12.07,2.22.17,3.32.3.99.12,1.66,1,1.49,1.98h0c-.71,4.07-.23,7.83,2.05,11.3,1.17,1.77,2.66,2.88,4.26,3.88.15.09.28.21.39.35,2.03,2.51,4.97,4.13,9.43,4.52,5.95.51,10.3-5.11,10.32-10.59,0-.61.36-1.16.9-1.42,1.47-.72,2.8-1.76,3.98-3.13,0,0,0,0,0,0,1.74,2.03,4.1,3.45,6.73,4.04.39.09.78.15,1.17.2.36.04.7.2.95.45,1.09,1.09,2.58,1.73,4.4,1.5,6.88-.87,13.73-2.25,20.49-3.82,5.43-1.26,12.64-2.26,15.95-7.36.5-.78.87-1.59,1.13-2.43.23-.74.91-1.25,1.68-1.2,1,.06,2.01.13,3.02.19,6.26.43,12.2.3,17.77-.87.1-.02.19-.03.29-.03.44,0,.89-.04,1.36-.13.88-.17,1.76-.39,2.62-.63.08-.02.16-.04.23-.04,3.69-.37,7.26-1.4,10.47-3.58,5.29-3.59,8.85-9.55,8.19-16.04ZM80.38,38.09c.15-.58.14-.52-.01.17-.11.56-.23,1.12-.37,1.68,0,0,0,.01,0,.02-.71-.64-.97-1.32.38-1.86Z"/>
  </g>
  <g>
    <g class="cls-7">
      <path class="cls-4" d="M32.61,8.98c.27,0,.53-.24.52-.52s-.23-.52-.52-.52c-.27,0-.53.24-.52.52s.23.52.52.52h0Z"/>
    </g>
    <g class="cls-7">
      <path class="cls-4" d="M27.31,12.2c.18,0,.35-.16.34-.34s-.15-.34-.34-.34c-.18,0-.35.16-.34.34s.15.34.34.34h0Z"/>
    </g>
  </g>
  <g>
    <g class="cls-7">
      <path class="cls-4" d="M65.59,14.78c.24,0,.24-.37,0-.37s-.24.37,0,.37h0Z"/>
    </g>
    <g class="cls-7">
      <path class="cls-4" d="M121.26,28.39c.2,0,.39-.18.38-.38s-.17-.38-.38-.38c-.2,0-.39.18-.38.38s.17.38.38.38h0Z"/>
    </g>
    <g class="cls-7">
      <path class="cls-4" d="M70.31,18.29c.27,0,.28-.43,0-.43s-.28.43,0,.43h0Z"/>
    </g>
    <g class="cls-7">
      <path class="cls-4" d="M123.9,5.3l-.18.08c-.09.05-.16.12-.21.21-.05.09-.08.19-.08.3,0,.11.03.21.08.3.05.09.12.16.21.21l.18.08c.11.06.22.09.35.09.12,0,.24-.03.35-.09.21-.12.34-.35.34-.59s-.13-.47-.34-.59c-.11-.06-.22-.09-.35-.09-.12,0-.24.03-.35.09h0Z"/>
    </g>
    <g class="cls-7">
      <path class="cls-4" d="M131.45,7.66c.15,0,.29-.13.28-.28s-.12-.28-.28-.28c-.15,0-.29.13-.28.28s.12.28.28.28h0Z"/>
    </g>
    <g class="cls-7">
      <path class="cls-4" d="M157.55,18.9c.17,0,.34-.15.33-.33s-.15-.33-.33-.33c-.17,0-.34.15-.33.33s.15.33.33.33h0Z"/>
    </g>
    <g class="cls-7">
      <path class="cls-4" d="M186.88,21.58c.15,0,.29-.13.28-.28s-.12-.28-.28-.28c-.15,0-.29.13-.28.28s.12.28.28.28h0Z"/>
    </g>
    <g class="cls-7">
      <path class="cls-4" d="M163.51,17.75h.11s.04-.01.06-.01h.03c.06,0,.13-.01.18-.03.11-.03.21-.09.29-.17.04-.04.07-.09.1-.13.12-.19.12-.46,0-.66-.03-.05-.06-.09-.1-.13-.08-.08-.18-.14-.29-.17-.06-.02-.12-.02-.18-.02h-.03s-.04,0-.06,0h-.11c-.09-.01-.18,0-.26.05-.08.03-.16.07-.22.14-.07.06-.11.13-.14.22-.04.08-.06.17-.06.26l.02.18c.03.11.09.21.17.3l.14.11c.1.06.22.09.34.09h0Z"/>
    </g>
    <g class="cls-5">
      <path class="cls-4" d="M38.88,12.11l-.12-.02h-.06c-.07-.02-.14-.04-.2-.04-.08,0-.15.01-.21.05-.07.02-.13.06-.18.11-.05.05-.09.11-.11.18-.03.07-.05.14-.05.21l.02.15c.03.09.07.17.14.24l.11.09c.09.05.18.07.28.08.07,0,.14-.02.2-.03h.06s.08-.03.12-.03l.12-.05c.06-.03.11-.08.14-.13.03-.03.05-.07.07-.11.03-.06.05-.13.04-.2l-.02-.14-.05-.12c-.03-.06-.08-.11-.13-.14-.05-.04-.11-.08-.17-.09h0Z"/>
    </g>
    <g class="cls-5">
      <path class="cls-4" d="M55.15,12.53c.23,0,.23-.36,0-.36s-.23.36,0,.36h0Z"/>
    </g>
    <g class="cls-5">
      <path class="cls-4" d="M14.64,17.98c.2,0,.21-.32,0-.32s-.21.32,0,.32h0Z"/>
    </g>
    <g class="cls-5">
      <path class="cls-4" d="M27.56,20.15c.31,0,.6-.27.59-.59s-.26-.59-.59-.59c-.31,0-.6.27-.59.59s.26.59.59.59h0Z"/>
    </g>
    <g class="cls-5">
      <path class="cls-4" d="M61.94,16.52l-.09-.03.25.25c0-.06-.03-.11-.06-.16l-.08-.1s-.1-.08-.16-.1c-.06-.03-.12-.05-.19-.04-.07,0-.13.01-.19.04-.06.02-.11.05-.16.1-.05.04-.08.1-.1.16-.03.06-.05.12-.04.19l.02.13c.02.08.07.16.13.22l.1.08c.08.04.16.07.25.07l.13-.02c.06-.02.12-.04.17-.09.05-.03.1-.08.13-.14.03-.05.05-.1.06-.16l-.25.25.09-.03.08-.03s.07-.05.09-.08c.02-.02.03-.04.04-.07.02-.04.03-.08.03-.12v-.09s-.03-.05-.04-.08c-.02-.04-.05-.07-.08-.09-.03-.03-.07-.05-.11-.06h0Z"/>
    </g>
    <g class="cls-5">
      <path class="cls-4" d="M118.03,9.76c.16,0,.33-.07.45-.19s.19-.29.19-.45c-.02-.34-.28-.63-.63-.63-.16,0-.33.07-.45.19s-.19.29-.19.45c.02.34.28.63.63.63h0Z"/>
    </g>
    <g class="cls-5">
      <path class="cls-4" d="M146.71,15.88l-.04-.08c-.03-.07-.1-.13-.16-.17-.04-.03-.09-.04-.14-.04-.05,0-.1.01-.14.04-.06.04-.13.1-.16.17l-.04.08c-.04.06-.05.13-.05.2,0,.07.02.14.05.2.07.12.2.2.34.2s.27-.08.34-.2c.04-.06.05-.13.05-.2,0-.07-.02-.14-.05-.2h0Z"/>
    </g>
    <g class="cls-5">
      <path class="cls-4" d="M127.04,22.79v-.06s0-.02,0-.03c0,0,0-.01,0-.02,0-.03,0-.06-.01-.08-.01-.05-.04-.1-.08-.13-.01,0-.02-.02-.03-.03h-.02s0-.02,0-.02c-.03-.03-.06-.05-.1-.06-.02,0-.04,0-.06,0-.02,0-.04,0-.06,0-.04.01-.07.03-.1.06,0,0,0,0,0,0h-.02s-.02.03-.03.04c-.04.04-.06.08-.08.13,0,.03,0,.06-.01.08,0,0,0,.01,0,.02v.03s0,.04,0,.06c0,.04,0,.08.03.12.01.04.03.07.07.1.03.03.06.05.1.07.04.02.08.03.12.03h.08c.05-.03.1-.05.14-.09l.05-.06s.04-.1.04-.16h0Z"/>
    </g>
    <g class="cls-5">
      <path class="cls-4" d="M108.09,24.11c.17,0,.33-.15.32-.32s-.14-.32-.32-.32c-.17,0-.33.15-.32.32s.14.32.32.32h0Z"/>
    </g>
    <g class="cls-5">
      <path class="cls-4" d="M182.16,22.67c.2,0,.38-.17.37-.37s-.16-.37-.37-.37c-.2,0-.38.17-.37.37s.16.37.37.37h0Z"/>
    </g>
  </g>
</svg>