<svg xmlns="http://www.w3.org/2000/svg" width="49" height="33" viewBox="0 0 49 33">
  <g id="グループ_1008" data-name="グループ 1008" transform="translate(-6810 -9918)">
    <rect id="長方形_208" data-name="長方形 208" width="49" height="33" transform="translate(6810 9918)" fill="none"/>
    <g id="icon_insta" transform="translate(6819 9919.217)">
      <path id="パス_4" data-name="パス 4" d="M2590.028-11688.353c4.024,0,4.5.016,6.09.088a8.381,8.381,0,0,1,2.8.517,4.674,4.674,0,0,1,1.733,1.121,4.618,4.618,0,0,1,1.128,1.725,8.254,8.254,0,0,1,.518,2.785c.073,1.582.088,2.057.088,6.063s-.015,4.479-.088,6.063a8.262,8.262,0,0,1-.52,2.785,4.63,4.63,0,0,1-1.126,1.725,4.672,4.672,0,0,1-1.734,1.12,8.334,8.334,0,0,1-2.8.518c-1.589.072-2.065.088-6.09.088s-4.5-.016-6.09-.088a8.359,8.359,0,0,1-2.8-.517,4.682,4.682,0,0,1-1.733-1.122,4.639,4.639,0,0,1-1.127-1.726,8.251,8.251,0,0,1-.519-2.783c-.072-1.584-.088-2.057-.088-6.062s.016-4.48.088-6.062a8.262,8.262,0,0,1,.519-2.784,4.635,4.635,0,0,1,1.127-1.725,4.635,4.635,0,0,1,1.732-1.123,8.335,8.335,0,0,1,2.8-.516c1.589-.072,2.066-.088,6.09-.088m0-2.7c-4.093,0-4.606.017-6.214.089a11.15,11.15,0,0,0-3.658.7,7.425,7.425,0,0,0-2.67,1.73,7.353,7.353,0,0,0-1.738,2.657,10.987,10.987,0,0,0-.7,3.644c-.073,1.6-.091,2.108-.091,6.183s.017,4.585.091,6.184a10.953,10.953,0,0,0,.7,3.641,7.345,7.345,0,0,0,1.738,2.659,7.425,7.425,0,0,0,2.67,1.73,11.151,11.151,0,0,0,3.658.7c1.607.072,2.121.09,6.214.09s4.606-.018,6.213-.089a11.08,11.08,0,0,0,3.659-.7,7.422,7.422,0,0,0,2.669-1.73,7.331,7.331,0,0,0,1.738-2.659,10.953,10.953,0,0,0,.7-3.641c.073-1.6.091-2.109.091-6.184s-.017-4.585-.091-6.184a10.981,10.981,0,0,0-.7-3.643,7.356,7.356,0,0,0-1.738-2.658,7.41,7.41,0,0,0-2.669-1.73,11.182,11.182,0,0,0-3.659-.7C2594.634-11691.032,2594.121-11691.049,2590.028-11691.049Z" transform="translate(-2574.957 11691.055)" fill="#fff"/>
      <path id="パス_5" data-name="パス 5" d="M2705.044-11568.5a7.513,7.513,0,0,0-7.531,7.5,7.513,7.513,0,0,0,7.531,7.5,7.513,7.513,0,0,0,7.531-7.5,7.513,7.513,0,0,0-7.531-7.5Zm0,12.361a4.878,4.878,0,0,1-4.889-4.866,4.876,4.876,0,0,1,4.889-4.867,4.877,4.877,0,0,1,4.888,4.867,4.877,4.877,0,0,1-4.888,4.868Z" transform="translate(-2689.973 11576.004)" fill="#fff"/>
      <ellipse id="楕円形_1" data-name="楕円形 1" cx="1.86" cy="1.851" rx="1.86" ry="1.851" transform="translate(21.225 5.172)" fill="#fff"/>
    </g>
  </g>
</svg>
