<?xml version="1.0" encoding="UTF-8"?><svg id="Layer_1" xmlns="http://www.w3.org/2000/svg" viewBox="0 0 89.45 91.1"><defs><style>.cls-1{fill:#c53b30;stroke-width:0px;}</style></defs><path class="cls-1" d="M44.72,0C20.02,0,0,20.39,0,45.55s20.02,45.55,44.72,45.55,44.72-20.39,44.72-45.55S69.42,0,44.72,0ZM70.95,42.39c-.23,4.44-2.05,8.24-4.54,11.78-3.04,4.33-6.55,8.21-10.73,11.43-2.04,1.58-4.14,3.06-6.55,4.05-2.79,1.16-5.47.96-8.17-.36-3.72-1.82-6.89-4.37-9.84-7.25-3.3-3.23-6.16-6.82-8.51-10.82-2.1-3.57-2.93-7.46-2.64-11.6.19-2.67.87-5.2,2.31-7.46,2.02-3.16,4.77-5.32,8.47-6.06,3.01-.6,5.86-.08,8.58,1.33,2.26,1.17,4.15,2.79,5.7,4.82.1.14.22.26.38.45.44-.5.83-.94,1.21-1.39,2.23-2.61,4.96-4.37,8.31-5.09,5.44-1.18,10.5.97,13.53,5.77,2,3.17,2.68,6.67,2.49,10.39Z"/></svg>