<?xml version="1.0" encoding="UTF-8"?><svg id="Layer_1" xmlns="http://www.w3.org/2000/svg" viewBox="0 0 252.15 236.24"><defs><style>.cls-1{fill:#000;}.cls-1,.cls-2,.cls-3,.cls-4{stroke-width:0px;}.cls-2{fill:#231815;}.cls-3{fill:#595757;}.cls-4{fill:#c53b30;}</style></defs><path class="cls-4" d="M244.73,236.24H86.55s-2.17-26.14-1.61-35.22c.57-9.08,2.18-24.32,2.67-27.9.57-4.12,1.98-7.17,3.83-9.5,12.13,4.54,36.45,7.23,49.11,6.52,13.62-.75,29.32-2.93,40.67-6.15,7.25-2.05,15.32-4.92,24.3-9.55,10.03,3.88,18.82,7.94,24.12,16.83,4.59,7.7,7.16,20.59,9.55,32.2,2.04,9.88,4.12,21.57,5.54,32.76h0Z"/><path class="cls-4" d="M63.43,170.85c.14,6.24-.99,16.59-2.55,23.26-1.56,6.67-3.9,19.36-7.02,27.73-.92-11.06-.38-20.51.36-28.02.92-9.43,3.47-20.28,9.22-22.98h0Z"/><path class="cls-3" d="M89.29,117.94c1-7.9.66-15.22-.8-25.44-1.74-12.29-2.6-19.59.14-36.97,1.7-10.79,7.82-22.6,11.18-28.23,5.18-8.65,9.43-12.72,14.45-14.42,3.46-1.17,7.76-1.23,10.78-.67,3.79-5.39,10.81-6.42,17.4-5.67,9.17,1.04,15.98,4.54,22.79,9.27,6.81,4.73,15.6,16.55,19.01,25.53,2.86,7.56,6.43,20.81,7.38,26.29.95,5.48,2.65,28.18,2.46,36.32-.19,8.13,0,25.91.19,29.31.19,3.41,2.46,11.42,3.97,13.24-4.73.38-10.78-2.65-14.38-5.11-3.59-2.46-8.89-6.05-10.78-11.73-1.89-5.67-3.4-15.51-3.79-19.1,4.16-4.73,7.95-11.54,8.52-15.51,5.63-.77,7.18-4.16,7.75-6.24.56-2.08,2.08-8.13,2.84-11.73.75-3.59,1.32-6.62.19-10.4-1.13-3.78-2.27-5.86-3.79-6.05-1.51-.19-3.22.38-4.35,2.08-.56-3.02-1.51-5.67-2.27-7.94-.76-2.27-1.52-3.97-4.73-5.3-3.22-1.32-14.37-6.43-22.13-10.59-7.75-4.16-15.89-8.51-19.86-11.73-3.97-3.22-7-6.43-8.32-8.89-6.24,3.79-10.57,7.54-14.68,13.15-3.63,4.95-7.07,11.82-8.02,18.63-.95,6.81-.85,9.18-.85,11.45-3.22,4.91-5.02,12.39-5.39,15.6,2.08,5.87,2.93,7.42,3.69,10.64.76,3.22,1.99,10.43,7.66,9.79,3.12,6.74,6.1,10.64,9.83,14.18,3.31,3.14,5.68,6.81,5.68,10.59s-.19,6.78-2.46,11.4c-1.97,4.01-5.88,8.86-16.26,12.81,1.94-6.43,2.91-10.88,3.28-12.96.38-2.08.66-4.74-1.2-6.88-1.85-2.13-3.55-4.68-4.73-6.64-.9-1.49-3.24-2.67-4.98-1.65-1.01.6-2.09,1.47-2.67,2.18l-2.75-2.62h0Z"/><path class="cls-1" d="M86.93,98.6c.78,6.4.99,9.21.68,12.25-.12,1.13.7,2.14,1.83,2.25.07.01.14.01.21.01,1.04,0,1.93-.79,2.04-1.84.36-3.48.09-6.73-.68-13.17-.26-2.17-.54-4.18-.81-6.15-1-7.34-1.87-13.68-1.45-24.05.8-19.58,5.04-30.18,13.11-43.99,7.44-12.74,15.34-12.74,20.57-12.74,1.13,0,2.05-.92,2.05-2.05s-.92-2.05-2.05-2.05c-7.49,0-16.15,1.14-24.11,14.76-8.23,14.08-12.84,25.56-13.68,45.9-.43,10.73.46,17.24,1.49,24.77.26,1.94.54,3.93.8,6.08h0Z"/><path class="cls-1" d="M101.46,93.62c-.59-.82-.85-1.92-1.21-3.43-.37-1.54-.83-3.47-1.83-5.91-1.17-2.84-2.63-6.39-2.16-10.35.01-.13,0-.26-.01-.38.03-.09.06-.17.09-.26.74-2.22,1.61-4.41,2.49-6.54.29,3.7.8,8.1,1.72,12.67.33,1.65.61,3.32.91,5.1.63,3.79,1.28,7.65,2.45,11.36-.68-.34-1.51-.97-2.42-2.26h0ZM116.93,138.17c.32.19.68.28,1.03.28.71,0,1.4-.37,1.78-1.03,2.51-4.32,4.01-11.32,3.85-15.16-.22-5.05-2.93-8.65-5.83-11.78l-.42-.46c-1.8-1.93-4.03-4.33-7.17-9.82-2.76-4.83-3.75-10.7-4.69-16.37-.29-1.73-.58-3.52-.93-5.23-1.25-6.28-2.01-14-2.01-20.65,0-5.51,1.09-13.65,4.16-20,2.76-5.73,6.7-10.63,12.41-15.44.87-.73.97-2.02.25-2.89-.73-.87-2.02-.98-2.89-.25-6.16,5.19-10.44,10.53-13.46,16.79-3.36,6.97-4.56,15.82-4.56,21.79,0,.36,0,.79.01,1.27-.63,1.79-1.39,3.65-2.18,5.59-.99,2.42-2.01,4.93-2.86,7.5-1.06,3.18-2.38,7.14-2.47,15.34,0,.85.67,1.55,1.53,1.56h.02c.84,0,1.53-.68,1.53-1.52.03-2.13.14-3.93.3-5.51.4,1.19.84,2.29,1.24,3.26.91,2.21,1.32,3.94,1.69,5.46.41,1.71.76,3.19,1.7,4.5,1.55,2.17,3.29,3.43,5.34,3.83.1.02.2.03.3.03.18,0,.35-.03.52-.09.44,1.04.92,2.08,1.5,3.08,3.37,5.9,5.89,8.6,7.72,10.57l.42.44c3.28,3.54,4.6,6.11,4.73,9.16.14,3.19-1.25,9.39-3.3,12.93-.56.98-.23,2.23.75,2.8h0Z"/><path class="cls-1" d="M122.8,17.63c-.96.6-1.25,1.87-.66,2.83,4.74,7.59,15.96,13.82,25.86,19.31,3.85,2.14,8.13,4.36,12.14,6.34-5-1.02-11.46.28-14.96,2.25-.74.42-1,1.36-.59,2.1.29.5.81.79,1.35.79.26,0,.51-.07.75-.2,3.19-1.8,9.64-2.93,13.78-1.68.82.25,1.67-.22,1.92-1.03.12-.4.07-.82-.11-1.17,4.77,2.33,8.92,4.22,11.14,5.11,2.94,1.17,4.26,7.8,4.26,12.13,0,1.04.78,1.92,1.81,2.04,1.03.12,1.99-.54,2.24-1.54.23-.94.82-1.81,1.44-2.1.22-.11.52-.19,1.01.03,1.51.69,2.27,3.39,2.27,8.01,0,4.9-.34,7.5-1.37,10.31-1.29,3.55-2.19,6.24-2.76,8.25-.23.81-1.48,1.86-2.63,2.3.23-1.79.35-3.64.35-5.37,0-1.13-.92-2.05-2.05-2.05h-.01c-1.13,0-2.05.93-2.04,2.06.01,3.41-.51,7.26-1.37,10.05-.84,2.74-1.31,3.96-2.37,5.78-1.49,2.55-3.01,4.63-4.65,6.34-.03.04-.06.08-.09.11-.05.06-.1.12-.15.19-.03.06-.06.11-.09.17-.03.06-.07.12-.09.18-.03.07-.05.14-.06.21-.02.06-.04.11-.05.18-.02.09-.02.17-.02.25,0,.05-.02.09-.02.14v.04h0c.01,4.63,1.42,13.48,3.77,20.37,1.75,5.12,5.41,9.62,10.31,12.66,5.81,3.6,9.18,4.96,13.31,6.48.23.09.47.13.71.13.84,0,1.62-.51,1.93-1.35.39-1.06-.15-2.24-1.21-2.63-4.02-1.48-7.07-2.71-12.57-6.12-4.03-2.5-7.16-6.33-8.59-10.49-2.29-6.7-3.4-14.4-3.53-18.32,1.64-1.81,3.16-3.92,4.64-6.45,1.27-2.18,1.85-3.75,2.74-6.64.15-.51.3-1.04.43-1.6,1.54-.06,3.18-.71,4.53-1.71.65,7.64-.79,14.63-2.35,21.19-1.65,6.88-1.85,13.82-.56,18.58.19.68.81,1.13,1.49,1.13.13,0,.27-.02.4-.06.82-.22,1.3-1.07,1.08-1.89-1.15-4.21-.92-10.75.58-17.06,1.83-7.67,3.48-15.94,2.05-25.28.05-.13.1-.26.13-.39.55-1.91,1.43-4.52,2.68-7.98,1.16-3.2,1.59-6.21,1.61-11.34,2.25,14.9,2.23,31.05,2.22,41.38v2.07c0,11.43.1,16.78.32,24.45.03,1.11.95,1.99,2.05,1.99h.06c1.13-.03,2.02-.97,2-2.11-.22-7.63-.32-12.95-.32-24.33v-2.06c.02-12.51.04-33.44-3.89-50.78-3.86-17.02-7.91-30.41-15.1-40.42-8.77-12.22-19.61-17.55-27.15-19.87-8.62-2.65-16.99-1.81-23.57,2.38-.96.61-1.24,1.88-.63,2.83.61.96,1.88,1.24,2.83.63,5.55-3.53,12.71-4.21,20.16-1.92,6.94,2.13,16.92,7.05,25.03,18.34,6.66,9.26,10.52,21.89,14.21,37.95-.68-1.13-1.61-2.06-2.88-2.65-1.49-.68-3.09-.68-4.5,0-.02.01-.04.02-.06.03-.67-4.01-2.33-9.05-6.37-10.67-4.26-1.7-15.81-7.19-24.95-12.27-8.99-5-20.19-11.21-24.36-17.9-.6-.96-1.86-1.25-2.83-.66h0Z"/><path class="cls-1" d="M126.23,118.7c4.42,2.01,9.08,3.02,13.89,3.02,1.36,0,2.74-.09,4.12-.25,5.02-.59,12.39-2.77,17.55-6.32.7-.48.88-1.44.39-2.14-.48-.7-1.44-.88-2.14-.39-4.72,3.24-11.52,5.24-16.16,5.79-5.71.67-11.22-.18-16.38-2.53-.77-.35-1.69,0-2.04.77-.35.77-.01,1.68.76,2.04h0Z"/><path class="cls-1" d="M120.08,61.77c-2.02,0-3.66,1.64-3.66,3.66s1.64,3.66,3.66,3.66,3.66-1.64,3.66-3.66-1.64-3.66-3.66-3.66h0Z"/><path class="cls-1" d="M158.55,62.54c0-2.02-1.64-3.66-3.65-3.66s-3.66,1.64-3.66,3.66,1.64,3.65,3.66,3.65,3.65-1.64,3.65-3.65h0Z"/><path class="cls-1" d="M127.02,92.43c-.85-.06-1.59.57-1.65,1.42-.07.84.56,1.58,1.41,1.65.48.03,1,.06,1.54.08,2.83,4.55,7.37,6.17,11.12,6.17.4,0,.8-.02,1.19-.06,4.31-.4,7.59-2.07,10.02-5.12.53-.67.42-1.64-.25-2.17-.66-.52-1.63-.42-2.16.25-1.91,2.39-4.41,3.65-7.9,3.98-2.53.24-5.76-.5-8.15-3.03,7.35-.16,16.8-1.34,21.91-2.88.81-.25,1.27-1.11,1.03-1.92-.25-.82-1.11-1.28-1.92-1.03-5.56,1.68-18.74,3.23-26.19,2.65h0Z"/><path class="cls-1" d="M125.18,52.55c.22-.82-.28-1.66-1.1-1.88-3.52-.91-11.13-.07-15.01,2.21-.74.43-.98,1.37-.55,2.1.29.49.8.76,1.33.76.26,0,.53-.07.78-.21,3.31-1.94,10.14-2.54,12.68-1.88.82.22,1.66-.28,1.88-1.1h0Z"/><path class="cls-1" d="M136.19,80.26s.08,0,.12,0c.79,0,1.47-.62,1.53-1.42.25-3.18-.25-8.63-.7-11.12-.15-.84-.95-1.39-1.8-1.24-.83.15-1.39.96-1.24,1.79.47,2.59.87,7.66.66,10.33-.06.85.57,1.59,1.42,1.65h0Z"/><path class="cls-1" d="M104.09,113.52c-3.58-5.49-6.67-10.23-8.51-19.44-.17-.83-.97-1.38-1.81-1.21-.83.17-1.37.98-1.21,1.81,1.96,9.79,5.36,15,8.95,20.52l.8,1.23c4.94,7.64,5.88,13.14,5.88,20.61,0,.85.69,1.54,1.54,1.54s1.54-.69,1.54-1.54c0-7.87-1.04-14.05-6.37-22.28l-.8-1.24h0Z"/><path class="cls-1" d="M178.48,38.09s.06,0,.09,0c.81,0,1.49-.64,1.53-1.46.05-.85-.6-1.57-1.45-1.62-6.28-.33-25.57-5.74-34.43-11.98-.7-.49-1.66-.32-2.15.37-.48.7-.32,1.66.38,2.15,9.44,6.64,29.3,12.18,36.04,12.53h0Z"/><path class="cls-1" d="M55.24,200.01c.8-9.01,1.25-12.54,2.48-17.02,1.13-4.09,2.47-6.89,4.1-9.17-.08,1.83-.19,3.79-.33,5.89-.46,6.65-4.67,26.49-5.51,30.4-.29,1.35-.85,3.59-1.56,6.36.06-5.29.33-10.96.82-16.46h0ZM72.64,84.94c1.41-.56,3.05.72,3.8,2.28.64,1.32.96,3.23,1.24,4.93.22,1.27.4,2.37.71,3.26.56,1.65,1.73,5.51,2.43,8.89.66,3.16,1.02,5.69,1.13,7.95-1.97-.1-3.96.31-5.35,1.24-.19-4.01-.62-9.48-1.03-11.71-.47-2.58-1.58-7.23-2.3-10.31l-.3-1.25c-.77-3.27-.88-5.04-.34-5.26h0ZM84.59,117.22c1.98,1.59,5.04,4.59,6.43,6.53.01.01.02.02.03.03.02.02.03.05.05.07,1.19,1.45,1.84,3.06,2.47,4.61.29.73.57,1.41.89,2.05.6,1.19,1.25,2.66.95,3.47-.21.58-1.7,1.61-2.5,1.73-.11.02-.22.05-.32.08-.17-.59-.33-1.18-.5-1.75-.58-2-1.32-3.31-2.41-4.91-2.47-3.61-4.58-6.42-6.09-8.13-1.97-2.24-3.81-3.17-6-3,.49-.42.9-.77,1.17-1.03.99-.89,4.41-.91,5.83.23h0ZM56.79,223.68c1.45-5.56,2.71-10.37,3.21-12.71.85-3.96,5.11-24.05,5.59-30.98.3-4.33.43-8.02.54-11.26.06-1.59.11-3.11.18-4.61.11-2.48-.74-6.75-1.49-10.51-.44-2.18-.86-4.24-.94-5.32-.1-1.25-.38-2.87-.68-4.58-.39-2.25-.92-5.32-.75-6.45.36-2.33,1.21-4.11,1.69-4.5.43-.34.7-.83.76-1.37.23-2.13,1.9-3.89,3-5.05l.33-.34c.42-.44,2.14-1.92,3.94-3.43,1.4-.76,3.02-1.05,4.3-1.27.31-.05.59-.1.84-.15,1.07-.22,2.11-.22,3.98,1.89,1,1.13,2.82,3.41,5.86,7.84.96,1.4,1.53,2.41,1.99,4.01.48,1.7.99,3.45,1.49,5.46.17.66.44,2.24-.54,2.63-.73.3-2.44.46-3.05-.92-.09-.22-.23-.39-.4-.54.01-1.2-.02-2.52-.06-3.7-.06-1.57-.92-4.02-2.7-5.68-1.35-1.25-2.51-2.34-3.83-3.85-1.53-1.76-3.6-2.55-5.81-2.26-1.62.22-3.23.5-6.51,1.82-.79.32-1.17,1.21-.86,2.01.31.79,1.21,1.17,2,.85,2.95-1.19,4.37-1.44,5.77-1.63,1.19-.16,2.22.26,3.08,1.24,1.42,1.62,2.7,2.81,4.05,4.07,1.02.95,1.68,2.58,1.72,3.53.04,1.16.16,4.67-.06,5.98-.13.26-1.05.48-1.37.34-.55-.29-2.51-2.09-2.6-4.57-.02-.58-.36-1.11-.89-1.35-2.95-1.35-3.53-1.72-3.9-2.48-.23-.48-.71-.81-1.24-.86-.53-.06-1.05.18-1.38.61-1.45,1.95-2.9,2.88-4.55,2.94-.85.03-1.51.74-1.48,1.59.03.85.71,1.5,1.59,1.49,2.09-.07,3.95-.96,5.65-2.69.76.63,1.78,1.16,3.23,1.83.4,2.57,1.97,4.52,3.21,5.56-.21.47-.18,1.02.13,1.48,1.54,2.29,2.11,6.4,2.44,9.74.08.79.75,1.39,1.53,1.39.05,0,.1,0,.15,0,.85-.09,1.47-.84,1.39-1.68-.46-4.64-1.16-7.71-2.25-9.92.51-.07,1.01-.22,1.48-.45.68-.34,1.19-.83,1.53-1.41.87.55,1.9.83,2.92.83.77,0,1.54-.15,2.24-.43,2.17-.87,3.08-3.2,2.4-6.09,1.82-.32,4.79-2.01,5.64-4.37.82-2.27-.06-4.56-1.15-6.71-.25-.48-.49-1.09-.75-1.74-.56-1.4-1.25-3.08-2.38-4.72.46-1.03.97-1.29,1.54-1.47h.02c.23.25.6.84.93,1.36,1.08,1.73,2.99,4.14,4.54,5.75.94.98,1.28,2.43.88,3.8-.5,1.69-1.23,4.99-1.86,7.91-.22,1.01-.43,1.94-.6,2.69-.6,2.66-2.63,6.3-4.54,9.51-1.2,2.03-2.45,3.73-3.65,5.37-.94,1.29-1.83,2.5-2.59,3.73-1.74,2.8-3.53,5.71-4.34,10.06-.81,4.32-2.82,26.58-2.99,34.3-.13,6.02.66,20.44,1.45,31.02h4.12c-.8-10.47-1.59-24.95-1.47-30.93.17-7.9,2.22-29.9,2.91-33.63.67-3.6,2.19-6.05,3.8-8.65.68-1.1,1.52-2.25,2.42-3.47,1.2-1.64,2.57-3.51,3.88-5.7.94-1.59,1.87-3.22,2.68-4.81,5.28-1.4,10.53-4.16,13.49-7.12.8-.8.8-2.1,0-2.9-.8-.8-2.1-.8-2.9,0-1.89,1.88-5.07,3.74-8.51,5.05.09-.31.18-.62.25-.92.17-.76.38-1.7.6-2.72.59-2.7,1.33-6.07,1.79-7.62.82-2.78.11-5.77-1.86-7.81-1.35-1.4-3.08-3.59-4.04-5.12-1.07-1.69-2.53-4.02-5.62-3.06-1.25.39-2.26,1.05-3.05,2.02-1.64-1.78-3.62-3.64-5.11-4.83-.32-.25-.67-.47-1.04-.67-.04-2.82-.43-5.91-1.26-9.89-.75-3.59-1.95-7.58-2.58-9.38-.19-.57-.36-1.56-.54-2.6-.32-1.97-.7-4.2-1.6-6.04-1.82-3.75-5.69-5.61-9-4.31-4.14,1.62-2.9,6.87-2.16,10.02l.3,1.26c.72,3.04,1.81,7.63,2.26,10.11.47,2.53,1.06,11.1,1.07,14.33-.29.25-.59.5-.9.75-3.47,2.9-5.8,4.86-6.5,5.62l-.3.31c-1.21,1.27-3.39,3.55-4,6.68-1.38,1.6-2.21,4.28-2.54,6.46-.27,1.8.23,4.7.76,7.77.28,1.62.55,3.15.63,4.21.11,1.31.52,3.39,1.01,5.79.67,3.36,1.5,7.54,1.42,9.52-.05,1.11-.1,2.25-.14,3.41-4.2,4.09-6.55,8.2-8.3,14.55-1.32,4.79-1.78,8.45-2.61,17.74-.93,10.57-1.1,21.74-.44,29.88.02.22.07.43.15.62-.53,2.06-1.05,4.11-1.54,6.1h4.23c1.04-4.14,2.19-8.56,3.24-12.56h0Z"/><path class="cls-1" d="M249.36,217.67c-1.77-10.2-5.2-28.79-8.29-38.79-3-9.71-5.56-15.12-12.87-21.48-6.61-5.76-20.24-10.89-27.25-13.01-1.08-.33-2.23.28-2.56,1.37-.33,1.08.29,2.23,1.37,2.56.54.17,1.14.35,1.77.56-9.92,7.27-29.05,12.7-52.83,14.95-15.94,1.52-36.64-.05-50.33-3.8-1.09-.3-2.22.35-2.52,1.44-.3,1.09.34,2.22,1.44,2.53,10.63,2.91,24.81,4.53,38.22,4.53,4.68,0,9.27-.2,13.58-.61,25.34-2.41,45.73-8.44,55.95-16.55.35-.27.58-.64.69-1.03,6.66,2.45,15.24,6.21,19.78,10.16,6.59,5.73,8.83,10.48,11.64,19.6,3.02,9.77,6.41,28.17,8.17,38.27.95,5.45,1.85,11.72,2.69,17.87h4.14c-.86-6.36-1.81-12.89-2.79-18.57h0Z"/><path class="cls-1" d="M210.36,210.01c-.19-1.12-1.25-1.86-2.37-1.67-1.12.19-1.86,1.25-1.67,2.37,1.04,5.96,2.14,15.98,2.92,25.53h4.13c-.79-9.73-1.92-19.99-3.01-26.23h0Z"/><path class="cls-2" d="M16.08,50.73c1.63,0,3.17.26,4.58.87,3.41,1.46,6.05,3.69,8.31,6.18-.1-1.36-.09-2.63.11-3.9.54-3.4,1.78-5.99,2.73-7.55,1.8-2.96,3.79-5.35,6.05-7.46-2.64.72-5.12,1.27-7.43,1.64-2.03.31-4.39.62-6.74.11-2.08-.44-3.91-1.45-5.46-2.37-1.75-1.03-3.43-2.38-5.08-3.93.95,2.7,1.54,5.35,1.28,7.74h0c-.38,3.58-2.44,6.94-4.9,9.77,2.27-.67,4.48-1.09,6.55-1.09h0ZM31.4,65.29c-.54,0-1.05-.25-1.39-.7-2.83-3.88-5.99-7.83-10.69-9.84-4.53-1.94-12.29,1.44-16.93,3.46-.8.35-1.73.04-2.16-.71-.43-.75-.24-1.72.46-2.23,6.23-4.61,9.9-9.43,10.34-13.58h0c.39-3.65-2.05-8.83-4.2-13.4l-.8-1.72c-.35-.77-.09-1.69.62-2.15.71-.47,1.65-.34,2.22.3,3.97,4.51,7.39,8.4,11.1,10.59,1.32.78,2.86,1.64,4.43,1.97,1.79.38,3.78.12,5.51-.15,4.9-.78,10.65-2.42,17.1-4.89.83-.31,1.76.05,2.15.84.39.79.11,1.75-.63,2.21-6.09,3.77-10.3,7.07-13.78,12.81-.65,1.07-1.81,3.31-2.27,6.3-.31,2.01-.02,4.2.4,7.22l.23,1.74c.1.78-.33,1.52-1.06,1.81-.21.08-.42.12-.63.12h0Z"/></svg>