<?xml version="1.0" encoding="UTF-8"?><svg id="Layer_1" xmlns="http://www.w3.org/2000/svg" xmlns:xlink="http://www.w3.org/1999/xlink" viewBox="0 0 677.1 236.64"><defs><style>.cls-1,.cls-2,.cls-3{font-size:60.49px;}.cls-4,.cls-5{letter-spacing:-.03em;}.cls-6{stroke-width:4.6px;}.cls-6,.cls-7,.cls-8,.cls-3{fill:none;stroke-linejoin:round;}.cls-6,.cls-8{stroke:#fff;stroke-linecap:round;}.cls-7{filter:url(#drop-shadow-2);stroke-width:5.68px;}.cls-7,.cls-9,.cls-3{font-family:ShinMGoPro-Ultra-90ms-RKSJ-H, 'A-OTF Shin Maru Go Pro';}.cls-7,.cls-10,.cls-11,.cls-3,.cls-12{stroke:#c02d58;}.cls-7,.cls-13,.cls-14{font-size:61.14px;}.cls-15,.cls-13{letter-spacing:-.31em;}.cls-9,.cls-16,.cls-10,.cls-11,.cls-17,.cls-18,.cls-19,.cls-12{fill:#fff;}.cls-2,.cls-20{letter-spacing:-.31em;}.cls-16,.cls-10,.cls-11,.cls-17,.cls-18,.cls-12{font-family:ShinMGoPro-DeBold-90ms-RKSJ-H, 'A-OTF Shin Maru Go Pro';font-weight:700;}.cls-16,.cls-12{font-size:48.09px;}.cls-21{letter-spacing:-.04em;}.cls-10{stroke-width:1.86px;}.cls-10,.cls-11,.cls-5,.cls-12{stroke-miterlimit:10;}.cls-10,.cls-17{font-size:29.87px;}.cls-11{stroke-width:2.15px;}.cls-11,.cls-18{font-size:34.39px;}.cls-22{letter-spacing:-.02em;}.cls-23{letter-spacing:-.02em;}.cls-24{letter-spacing:-.36em;}.cls-25{letter-spacing:0em;}.cls-8{stroke-width:5.87px;}.cls-3{filter:url(#drop-shadow-1);stroke-width:5.62px;}.cls-26{letter-spacing:0em;}.cls-5{stroke:#354672;}.cls-5,.cls-12{stroke-width:3px;}.cls-27{fill:#c63c30;}.cls-27,.cls-19{stroke-width:0px;}.cls-28{letter-spacing:-.38em;}.cls-29{letter-spacing:0em;}.cls-30{font-size:41.22px;}.cls-31{letter-spacing:-.33em;}.cls-32{letter-spacing:-.05em;}.cls-33{font-size:40.78px;}</style><filter id="drop-shadow-1" filterUnits="userSpaceOnUse"><feOffset dx="1.61" dy="1.61"/><feGaussianBlur result="blur" stdDeviation="1.61"/><feFlood flood-color="#7c1a50" flood-opacity=".75"/><feComposite in2="blur" operator="in"/><feComposite in="SourceGraphic"/></filter><filter id="drop-shadow-2" filterUnits="userSpaceOnUse"><feOffset dx="1.62" dy="1.62"/><feGaussianBlur result="blur-2" stdDeviation="1.62"/><feFlood flood-color="#7c1a50" flood-opacity=".75"/><feComposite in2="blur-2" operator="in"/><feComposite in="SourceGraphic"/></filter></defs><text class="cls-12" transform="translate(29.96 219.5)"><tspan x="0" y="0">早</tspan><tspan class="cls-26" x="48.09" y="0">割</tspan><tspan class="cls-22" x="96.23" y="0">は</tspan><tspan class="cls-25" x="143.35" y="0" xml:space="preserve">  4</tspan><tspan class="cls-21" x="205.68" y="0">月</tspan><tspan x="251.99" y="0">2</tspan><tspan class="cls-23" x="282.28" y="0">9</tspan><tspan class="cls-28" x="311.71" y="0">日</tspan><tspan class="cls-29" x="341.53" y="0">（</tspan><tspan class="cls-21" x="389.62" y="0">月</tspan><tspan class="cls-24" x="435.93" y="0">）</tspan><tspan class="cls-4" x="466.66" y="0"> </tspan><tspan class="cls-32" x="481.37" y="0">ま</tspan><tspan class="cls-31" x="527.2" y="0">で！</tspan></text><rect class="cls-27" x="193.81" y="166.09" width="298.69" height="70.55" rx="5.9" ry="5.9"/><text class="cls-16" transform="translate(29.96 219.5)"><tspan x="0" y="0">早</tspan><tspan class="cls-26" x="48.09" y="0">割</tspan><tspan class="cls-22" x="96.23" y="0">は</tspan><tspan class="cls-25" x="143.35" y="0" xml:space="preserve">  6</tspan><tspan class="cls-21" x="205.68" y="0">月</tspan><tspan x="251.99" y="0">1</tspan><tspan class="cls-23" x="282.28" y="0">7</tspan><tspan class="cls-28" x="311.71" y="0">日</tspan><tspan class="cls-29" x="341.53" y="0">（</tspan><tspan class="cls-21" x="389.62" y="0">月</tspan><tspan class="cls-24" x="435.93" y="0">）</tspan><tspan class="cls-5" x="466.66" y="0"> </tspan><tspan class="cls-32" x="481.37" y="0">ま</tspan><tspan class="cls-31" x="527.2" y="0">で！</tspan></text><polyline class="cls-6" points="320.34 66.64 336.36 90.68 320.34 114.72"/><polyline class="cls-8" points="283.06 60.04 303.48 90.68 283.06 121.31"/><text class="cls-3" transform="translate(13.87 115.82) rotate(.12)"><tspan x="0" y="0">3500</tspan><tspan class="cls-20" x="156.78" y="0">円！</tspan></text><rect class="cls-19" x="577.9" y="9.47" width="78.02" height="105.96" rx="8.13" ry="8.13" transform="translate(172.44 -369.9) rotate(38.43)"/><text class="cls-9" transform="translate(.03 115.81) rotate(.12)"><tspan class="cls-33" x="0" y="0"> </tspan><tspan class="cls-1" x="13.58" y="0">3500</tspan><tspan class="cls-2" x="170.36" y="0">円！</tspan></text><rect class="cls-19" x="356.33" y="42.48" width="278.04" height="93.68" rx="9.74" ry="9.74"/><text class="cls-7" transform="translate(373.86 113.86) rotate(.12)"><tspan x="0" y="0">3000</tspan><tspan class="cls-15" x="158.47" y="0">円！</tspan></text><text class="cls-9" transform="translate(359.86 113.84) rotate(.12)"><tspan class="cls-30" x="0" y="0"> </tspan><tspan class="cls-14" x="13.73" y="0">3000</tspan><tspan class="cls-13" x="172.2" y="0">円！</tspan></text><text class="cls-17" transform="translate(16.02 49.11)"><tspan x="0" y="0">通常</tspan></text><text class="cls-10" transform="translate(16.02 49.11)"><tspan x="0" y="0">通常</tspan></text><text class="cls-17" transform="translate(16.02 49.11)"><tspan x="0" y="0">通常</tspan></text><text class="cls-11" transform="translate(595.96 34.01) rotate(37.86)"><tspan x="0" y="0">早割</tspan></text><text class="cls-18" transform="translate(595.96 34.01) rotate(37.86)"><tspan x="0" y="0">早割</tspan></text></svg>