<?xml version="1.0" encoding="UTF-8"?>
<svg id="Layer_1" data-name="Layer 1" xmlns="http://www.w3.org/2000/svg" version="1.1" xmlns:xlink="http://www.w3.org/1999/xlink" viewBox="0 0 384.8 403.8">
  <defs>
    <style>
      .cls-1 {
        clip-path: url(#clippath-2);
      }

      .cls-2 {
        isolation: isolate;
      }

      .cls-3 {
        fill: none;
      }

      .cls-3, .cls-4, .cls-5, .cls-6, .cls-7 {
        stroke-width: 0px;
      }

      .cls-8 {
        clip-path: url(#clippath-1);
      }

      .cls-9 {
        clip-path: url(#clippath-4);
      }

      .cls-4 {
        fill: #f7f8f8;
      }

      .cls-10 {
        clip-path: url(#clippath);
      }

      .cls-11 {
        clip-path: url(#clippath-3);
      }

      .cls-5 {
        fill: #c53b30;
      }

      .cls-6 {
        fill: #fff;
      }

      .cls-7 {
        fill: #313133;
      }
    </style>
    <clipPath id="clippath">
      <rect class="cls-3" y="19" width="384.8" height="384.8"/>
    </clipPath>
    <clipPath id="clippath-1">
      <rect class="cls-3" x="112.1" y="180.4" width="99.3" height="41.3"/>
    </clipPath>
    <clipPath id="clippath-2">
      <rect class="cls-3" y="19" width="384.8" height="384.8"/>
    </clipPath>
    <clipPath id="clippath-3">
      <rect class="cls-3" x="112.1" y="180.4" width="99.3" height="41.3"/>
    </clipPath>
    <clipPath id="clippath-4">
      <rect class="cls-3" x="30" y="1" width="141.4" height="36.3"/>
    </clipPath>
  </defs>
  <g id="Group_409" data-name="Group 409">
    <g id="Group_276" data-name="Group 276">
      <g class="cls-10">
        <g id="Group_275" data-name="Group 275">
          <path id="Path_351" data-name="Path 351" class="cls-4" d="M358.9,403.8H25.9c-14.3,0-25.9-11.6-25.9-25.9V44.9c0-14.3,11.6-25.9,25.9-25.9h333c14.3,0,25.9,11.6,25.9,25.9v333c0,14.3-11.6,25.9-25.9,25.9"/>
          <path id="Path_352" data-name="Path 352" class="cls-7" d="M324.9,294.2c0,7.8-6.4,14.2-14.2,14.2h-75.7c-7.8,0-14.2-6.4-14.2-14.2v-134.8c0-7.8,6.4-14.2,14.2-14.2h75.7c7.8,0,14.2,6.4,14.2,14.2v134.8ZM59.9,280v-6.8h72.5l7.8,19.4c.7,1.8,2.5,3,4.4,3h67c.3,4.7,1.9,9.2,4.7,12.9h-127.9c-15.8-.1-28.5-12.8-28.5-28.5M147.7,286.1l-5.2-12.9h68.8v12.9h-63.6ZM77.8,127.5c0-7.2,5.9-13.1,13.1-13.1h187.6c7.2,0,13.1,5.9,13.1,13.1v8.3h-56.6c-13.1,0-23.6,10.6-23.7,23.7v104.3H77.7V127.5h.1ZM310.7,135.8h-9.7v-8.3c0-12.5-10.1-22.6-22.6-22.6H90.8c-12.5,0-22.6,10.1-22.6,22.6v136.3h-13.2c-2.6,0-4.7,2.1-4.7,4.7h0v11.5c0,20.9,17,37.8,37.9,37.9h222.4c13.1,0,23.6-10.6,23.7-23.7v-134.8c.1-13-10.5-23.6-23.6-23.6"/>
          <path id="Path_353" data-name="Path 353" class="cls-7" d="M272.9,290.3c-8.7-.1-8.7-13.1,0-13.3,8.7.2,8.7,13.1,0,13.3M272.9,267.5c-21.2.6-21.2,31.6,0,32.2,21.2-.5,21.2-31.6,0-32.2"/>
          <path id="Path_354" data-name="Path 354" class="cls-7" d="M291.8,157h-37.9c-6.2,0-6.2,9.4,0,9.5h37.9c6.2-.1,6.2-9.5,0-9.5"/>
        </g>
      </g>
    </g>
    <g id="Group_278" data-name="Group 278">
      <g class="cls-8">
        <g id="Group_277" data-name="Group 277">
          <path id="Path_355" data-name="Path 355" class="cls-7" d="M135.3,195.2c1-.2,2.1-.3,3.2-.3s6,0,9.1,2.4c3.6,3.3,3.9,8.8.6,12.4-1,1.1-2.3,2-3.8,2.5-1.8.6-3.8.9-5.7.9s-3,0-3-2.1,1.4-1.8,2.3-1.8c2.3,0,7.9,0,7.9-5.2s-4.1-5.3-7.2-5.3-2.2.1-3.3.3v5.2c0,3.2,0,8.9-6.1,8.9-3.8.1-7-2.9-7.1-6.8v-.4c0-6.3,6.2-8.7,9-9.8v-3.7c-2,.1-6.1.1-6.2.1-1.2,0-2.5,0-2.5-2s1.6-2,2.4-2c4,0,4.5,0,6.3-.1v-2.3c0-.8,0-2.2,2.1-2.2s2.1,1.3,2.1,2.2v2.1c2.8-.1,3.1-.1,3.4-.1,1-.2,1.9.5,2.1,1.5v.5c0,1.4-.9,1.8-1.1,1.9-.4.1-.9.2-4.5.3v2.9h0ZM131.2,200.2c-1.8.7-5,2.2-5,5.5,0,1.7,1.1,3.2,2.8,3.4,1.5,0,2.2-1.4,2.2-5v-3.9ZM142.9,185.2c2.1,0,8.1,5.2,8.1,7.5-.1,1.2-1.1,2.2-2.3,2.2s-1.2-.4-2.2-1.9c-1.2-1.7-2.8-3.2-4.6-4.3-.9-.4-1.3-1.4-.9-2.3.1-.2.2-.4.4-.5.4-.4,1-.6,1.5-.7"/>
          <path id="Path_356" data-name="Path 356" class="cls-7" d="M167.3,185.3c-.2-1,.5-1.9,1.5-2h.5c1.7,0,2.2.7,2.2,2v2.3h7.7c2.6,0,4.1.9,4.1,4.1v11c0,3.3-1.6,4.1-4.1,4.1h-7.7v5.8c.2,1-.5,1.9-1.5,2h-.5c-1.7,0-2.2-.7-2.2-2v-5.8h-7.6c-2.5,0-4.1-.8-4.1-4.1v-11c0-3.2,1.5-4.1,4.1-4.1h7.6v-2.3ZM159.7,195.3h7.6v-4.1h-6.5c-.5-.1-1,.3-1.1.8v3.3ZM167.3,203v-4.2h-7.6v3.1c-.1.5.3,1,.8,1.1h6.8ZM171.4,191.3v4.1h7.6v-2.9c.1-.6-.3-1.1-.9-1.1h-6.7q0-.1,0-.1ZM179.1,198.8h-7.6v4.2h6.5c.5.1,1.1-.3,1.2-.8v-3.4h-.1,0Z"/>
          <path id="Path_357" data-name="Path 357" class="cls-7" d="M216.2,209.8c1-.1,1.8.5,2,1.5v.4c.1,1-.6,1.9-1.6,2h-14.5c-6,0-7.8-2.7-8.4-3.7-.7.9-1.4,1.8-2.2,2.7-1,1.1-1.5,1.5-2.3,1.5-1.3-.1-2.3-1.1-2.2-2.4,0-.9.3-1.2,1.8-2.4.5-.4,1.7-1.6,2.4-2.2v-6.6c0-.2,0-1-.8-1h-1.4c-.9.1-1.8-.5-1.9-1.5v-.4c0-1.5.6-2.1,2-2.1h2.3c3,0,3.7.7,3.7,3.7v6c.4,3.9,4.3,4.5,6.8,4.5h14.3,0ZM189.7,183.6c1.1,0,3.3,1.9,4.4,2.8,1.9,1.6,2.1,2.1,2.1,2.8-.1,1.2-1,2.2-2.2,2.2s-1.1-.3-2.1-1.2c-.9-.9-2.4-2.1-2.6-2.3-1-.8-1.7-1.4-1.7-2.1-.1-1.1.8-2.2,2.1-2.2M200.4,188.2c-1.1,0-2-.9-2-2s.9-2,2-2h5.9c3.4,0,3.5,1.5,3.8,4.5.4,4.3,1.9,8.5,4.4,12.1.6.8,1.7,2,2.6,3,.5.5.9,1.1,1,1.8-.1,1.2-1.1,2.2-2.3,2.3-1,0-2-.8-3.3-2.5-2.2-2.9-3.7-6.2-4.6-9.7-1,2.9-2.4,5.6-4.2,8-1.3,1.7-3.4,4.2-5,4.2-1.2-.1-2.2-1.1-2.2-2.3s.3-1,.6-1.3c1.8-1.4,3.4-3.1,4.7-5,2.7-3.9,4.1-8.6,4.1-10.3s0-.8-.8-.8h-4.7Z"/>
          <path id="Path_358" data-name="Path 358" class="cls-7" d="M242.1,192c0-1.2.4-2.3,2.2-2.3s2.4,1.2,2.4,3.1-.3,5.3-.4,5.9c3.1,1.3,4.2,2,4.2,3.3s-.9,2.4-2,2.4-.8-.1-2.9-1.2c-1.9,6.9-6.6,10.2-9.1,10.2-1.2-.1-2.1-1-2.1-2.2s.4-1.3,3.2-3c3.1-1.9,3.8-5.7,4-6.8-2.3-.9-4.7-1.5-7.1-2-.7,2.7-1.6,5.3-2.7,7.8-1.2,2.8-2.7,4.4-5.1,4.4s-6.1-2.3-6.1-6.9,2.6-7.4,6.4-8.5c1.4-.5,2.9-.7,4.4-.8.1-.5.8-3,.9-3.3.2-.7.3-1.4.4-2.1,0-.6-.3-.9-1.3-.9s-5.1.3-6.1.3-2.3,0-2.3-2.1,1.5-2.1,2.8-2.1c2.1,0,5.6-.2,7.7-.2s3.6,0,3.6,2.8c-.1,1.2-.2,2.4-.5,3.6-.1.7-1,3.6-1.1,4.2,2.2.4,4.4.9,6.5,1.6.1-1.8.1-2.1.1-5.2M228.1,199.6c-2.2.7-3.8,2.7-3.7,5,0,2.2,1.4,2.8,2,2.8.9,0,1.5-.9,2.3-3,.7-1.7,1.3-3.5,1.8-5.3-.8.1-1.6.3-2.4.5"/>
        </g>
      </g>
    </g>
    <g id="Group_338" data-name="Group 338">
      <g id="Group_276-2" data-name="Group 276-2">
        <g class="cls-1">
          <g id="Group_275-2" data-name="Group 275-2">
            <path id="Path_351-2" data-name="Path 351-2" class="cls-4" d="M358.9,403.8H25.9c-14.3,0-25.9-11.6-25.9-25.9V44.9c0-14.3,11.6-25.9,25.9-25.9h333c14.3,0,25.9,11.6,25.9,25.9v333c0,14.3-11.6,25.9-25.9,25.9"/>
            <path id="Path_352-2" data-name="Path 352-2" class="cls-7" d="M324.9,294.2c0,7.8-6.4,14.2-14.2,14.2h-75.7c-7.8,0-14.2-6.4-14.2-14.2v-134.8c0-7.8,6.4-14.2,14.2-14.2h75.7c7.8,0,14.2,6.4,14.2,14.2v134.8ZM59.9,280v-6.8h72.5l7.8,19.4c.7,1.8,2.5,3,4.4,3h67c.3,4.7,1.9,9.2,4.7,12.9h-127.9c-15.8-.1-28.5-12.8-28.5-28.5M147.7,286.1l-5.2-12.9h68.8v12.9h-63.6ZM77.8,127.5c0-7.2,5.9-13.1,13.1-13.1h187.6c7.2,0,13.1,5.9,13.1,13.1v8.3h-56.6c-13.1,0-23.6,10.6-23.7,23.7v104.3H77.7V127.5h.1ZM310.7,135.8h-9.7v-8.3c0-12.5-10.1-22.6-22.6-22.6H90.8c-12.5,0-22.6,10.1-22.6,22.6v136.3h-13.2c-2.6,0-4.7,2.1-4.7,4.7h0v11.5c0,20.9,17,37.8,37.9,37.9h222.4c13.1,0,23.6-10.6,23.7-23.7v-134.8c.1-13-10.5-23.6-23.6-23.6"/>
            <path id="Path_353-2" data-name="Path 353-2" class="cls-7" d="M272.9,290.3c-8.7-.1-8.7-13.1,0-13.3,8.7.2,8.7,13.1,0,13.3M272.9,267.5c-21.2.6-21.2,31.6,0,32.2,21.2-.5,21.2-31.6,0-32.2"/>
            <path id="Path_354-2" data-name="Path 354-2" class="cls-7" d="M291.8,157h-37.9c-6.2,0-6.2,9.4,0,9.5h37.9c6.2-.1,6.2-9.5,0-9.5"/>
          </g>
        </g>
      </g>
      <g id="Group_278-2" data-name="Group 278-2">
        <g class="cls-11">
          <g id="Group_277-2" data-name="Group 277-2">
            <path id="Path_355-2" data-name="Path 355-2" class="cls-5" d="M135.3,195.2c1-.2,2.1-.3,3.2-.3s6,0,9.1,2.4c3.6,3.3,3.9,8.8.6,12.4-1,1.1-2.3,2-3.8,2.5-1.8.6-3.8.9-5.7.9s-3,0-3-2.1,1.4-1.8,2.3-1.8c2.3,0,7.9,0,7.9-5.2s-4.1-5.3-7.2-5.3-2.2.1-3.3.3v5.2c0,3.2,0,8.9-6.1,8.9-3.8.1-7-2.9-7.1-6.8v-.4c0-6.3,6.2-8.7,9-9.8v-3.7c-2,.1-6.1.1-6.2.1-1.2,0-2.5,0-2.5-2s1.6-2,2.4-2c4,0,4.5,0,6.3-.1v-2.3c0-.8,0-2.2,2.1-2.2s2.1,1.3,2.1,2.2v2.1c2.8-.1,3.1-.1,3.4-.1,1-.2,1.9.5,2.1,1.5v.5c0,1.4-.9,1.8-1.1,1.9-.4.1-.9.2-4.5.3v2.9h0ZM131.2,200.2c-1.8.7-5,2.2-5,5.5,0,1.7,1.1,3.2,2.8,3.4,1.5,0,2.2-1.4,2.2-5v-3.9ZM142.9,185.2c2.1,0,8.1,5.2,8.1,7.5-.1,1.2-1.1,2.2-2.3,2.2s-1.2-.4-2.2-1.9c-1.2-1.7-2.8-3.2-4.6-4.3-.9-.4-1.3-1.4-.9-2.3.1-.2.2-.4.4-.5.4-.4,1-.6,1.5-.7"/>
            <path id="Path_356-2" data-name="Path 356-2" class="cls-5" d="M167.3,185.3c-.2-1,.5-1.9,1.5-2h.5c1.7,0,2.2.7,2.2,2v2.3h7.7c2.6,0,4.1.9,4.1,4.1v11c0,3.3-1.6,4.1-4.1,4.1h-7.7v5.8c.2,1-.5,1.9-1.5,2h-.5c-1.7,0-2.2-.7-2.2-2v-5.8h-7.6c-2.5,0-4.1-.8-4.1-4.1v-11c0-3.2,1.5-4.1,4.1-4.1h7.6v-2.3ZM159.7,195.3h7.6v-4.1h-6.5c-.5-.1-1,.3-1.1.8v3.3ZM167.3,203v-4.2h-7.6v3.1c-.1.5.3,1,.8,1.1h6.8ZM171.4,191.3v4.1h7.6v-2.9c.1-.6-.3-1.1-.9-1.1h-6.7q0-.1,0-.1ZM179.1,198.8h-7.6v4.2h6.5c.5.1,1.1-.3,1.2-.8v-3.4h-.1,0Z"/>
            <path id="Path_357-2" data-name="Path 357-2" class="cls-5" d="M216.2,209.8c1-.1,1.8.5,2,1.5v.4c.1,1-.6,1.9-1.6,2h-14.5c-6,0-7.8-2.7-8.4-3.7-.7.9-1.4,1.8-2.2,2.7-1,1.1-1.5,1.5-2.3,1.5-1.3-.1-2.3-1.1-2.2-2.4,0-.9.3-1.2,1.8-2.4.5-.4,1.7-1.6,2.4-2.2v-6.6c0-.2,0-1-.8-1h-1.4c-.9.1-1.8-.5-1.9-1.5v-.4c0-1.5.6-2.1,2-2.1h2.3c3,0,3.7.7,3.7,3.7v6c.4,3.9,4.3,4.5,6.8,4.5h14.3,0ZM189.7,183.6c1.1,0,3.3,1.9,4.4,2.8,1.9,1.6,2.1,2.1,2.1,2.8-.1,1.2-1,2.2-2.2,2.2s-1.1-.3-2.1-1.2c-.9-.9-2.4-2.1-2.6-2.3-1-.8-1.7-1.4-1.7-2.1-.1-1.1.8-2.2,2.1-2.2M200.4,188.2c-1.1,0-2-.9-2-2s.9-2,2-2h5.9c3.4,0,3.5,1.5,3.8,4.5.4,4.3,1.9,8.5,4.4,12.1.6.8,1.7,2,2.6,3,.5.5.9,1.1,1,1.8-.1,1.2-1.1,2.2-2.3,2.3-1,0-2-.8-3.3-2.5-2.2-2.9-3.7-6.2-4.6-9.7-1,2.9-2.4,5.6-4.2,8-1.3,1.7-3.4,4.2-5,4.2-1.2-.1-2.2-1.1-2.2-2.3s.3-1,.6-1.3c1.8-1.4,3.4-3.1,4.7-5,2.7-3.9,4.1-8.6,4.1-10.3s0-.8-.8-.8h-4.7Z"/>
            <path id="Path_358-2" data-name="Path 358-2" class="cls-5" d="M242.1,192c0-1.2.4-2.3,2.2-2.3s2.4,1.2,2.4,3.1-.3,5.3-.4,5.9c3.1,1.3,4.2,2,4.2,3.3s-.9,2.4-2,2.4-.8-.1-2.9-1.2c-1.9,6.9-6.6,10.2-9.1,10.2-1.2-.1-2.1-1-2.1-2.2s.4-1.3,3.2-3c3.1-1.9,3.8-5.7,4-6.8-2.3-.9-4.7-1.5-7.1-2-.7,2.7-1.6,5.3-2.7,7.8-1.2,2.8-2.7,4.4-5.1,4.4s-6.1-2.3-6.1-6.9,2.6-7.4,6.4-8.5c1.4-.5,2.9-.7,4.4-.8.1-.5.8-3,.9-3.3.2-.7.3-1.4.4-2.1,0-.6-.3-.9-1.3-.9s-5.1.3-6.1.3-2.3,0-2.3-2.1,1.5-2.1,2.8-2.1c2.1,0,5.6-.2,7.7-.2s3.6,0,3.6,2.8c-.1,1.2-.2,2.4-.5,3.6-.1.7-1,3.6-1.1,4.2,2.2.4,4.4.9,6.5,1.6.1-1.8.1-2.1.1-5.2M228.1,199.6c-2.2.7-3.8,2.7-3.7,5,0,2.2,1.4,2.8,2,2.8.9,0,1.5-.9,2.3-3,.7-1.7,1.3-3.5,1.8-5.3-.8.1-1.6.3-2.4.5"/>
          </g>
        </g>
      </g>
    </g>
  </g>
  <g id="Group_285" data-name="Group 285">
    <g class="cls-9">
      <g id="Group_284" data-name="Group 284">
        <path id="Path_384" data-name="Path 384" class="cls-5" d="M153.2,37.3H48.2c-10,0-18.2-8.1-18.2-18.2S38.1.9,48.2.9h105c10,0,18.2,8.1,18.2,18.2s-8.2,18.2-18.2,18.2h0"/>
      </g>
    </g>
  </g>
  <g class="cls-2">
    <path class="cls-6" d="M77.2,21.6c0,1.4-.5,2.5-1.5,3.3s-2.4,1.2-4.3,1.2-3.1-.3-4.4-.9v-3.1c.7.3,1.5.6,2.3.9s1.6.4,2.4.4,1.4-.2,1.7-.5c.3-.3.5-.7.5-1.2s0-.7-.4-1-.6-.5-1.1-.8c-.5-.2-1-.5-1.6-.8s-.8-.4-1.2-.6c-.4-.2-.8-.5-1.2-.9-.4-.4-.7-.8-1-1.3-.2-.5-.4-1.1-.4-1.8,0-1.4.5-2.5,1.4-3.3,1-.8,2.3-1.2,3.9-1.2s1.6.1,2.3.3c.7.2,1.5.5,2.3.8l-1.1,2.6c-.7-.3-1.4-.5-1.9-.7-.6-.2-1.2-.2-1.8-.2s-1.1.1-1.5.4c-.3.3-.5.7-.5,1.1,0,.6.2,1,.7,1.3s1.2.7,2.2,1.2c.8.4,1.5.8,2.1,1.2.6.4,1,.9,1.3,1.5.7.6.8,1.3.8,2.1Z"/>
    <path class="cls-6" d="M84.9,23.6c.4,0,.7,0,1.1-.1s.7-.2,1-.3v2.4c-.4.2-.8.3-1.3.4s-1.1.2-1.7.2-1.4-.1-1.9-.4-1-.6-1.3-1.2-.5-1.4-.5-2.4v-5.8h-1.6v-1.4l1.8-1.1.9-2.5h2.1v2.6h3.4v2.5h-3.4v5.8c0,.5,0,.8.4,1,.2.2.6.3,1,.3Z"/>
    <path class="cls-6" d="M94.3,13.8c1.7,0,3,.5,3.9,1.4,1,.9,1.5,2.3,1.5,4v1.6h-7.7c0,.9.3,1.7.8,2.2s1.2.8,2.2.8,1.5-.1,2.1-.2c.6-.2,1.3-.4,2-.7v2.5c-.6.3-1.2.5-1.9.6-.6.1-1.4.2-2.4.2s-2.3-.2-3.2-.7-1.6-1.1-2.2-2c-.5-.9-.8-2-.8-3.4s.2-2.6.7-3.5,1.1-1.6,2-2.1,1.9-.7,3-.7ZM94.4,16.1c-.6,0-1.2.2-1.6.6s-.7,1-.7,1.9h4.6c0-.7-.2-1.3-.6-1.8s-1-.7-1.7-.7Z"/>
    <path class="cls-6" d="M109.1,13.8c1.3,0,2.4.5,3.3,1.6.8,1,1.3,2.6,1.3,4.6s-.4,3.6-1.3,4.7-2,1.6-3.3,1.6-1.6-.2-2.1-.5-.9-.7-1.3-1.1h-.2c0,.6.2,1.2.2,1.8v4.8h-3.3V14h2.7l.5,1.6h.2c.3-.5.8-.9,1.3-1.3.4-.4,1.1-.5,2-.5ZM108,16.4c-.9,0-1.5.3-1.8.8-.4.5-.5,1.3-.5,2.4v.4c0,1.2.2,2,.5,2.7.3.6,1,.9,1.9.9s1.3-.3,1.7-.9c.4-.6.5-1.5.5-2.7,0-2.4-.8-3.6-2.3-3.6Z"/>
    <path class="cls-6" d="M129.4,26h-3.3v-10.6c0-.6,0-1.2,0-1.6,0,.1-.2.2-.5.5-.2.2-.5.4-.7.6l-1.8,1.5-1.6-2,5.1-4h2.7v15.6Z"/>
  </g>
</svg>