<?xml version="1.0" encoding="UTF-8"?>
<svg id="Layer_1" data-name="Layer 1" xmlns="http://www.w3.org/2000/svg" viewBox="0 0 309.45 107.43">
  <defs>
    <style>
      .cls-1 {
        stroke-linejoin: round;
      }

      .cls-1, .cls-2 {
        fill: none;
        stroke-linecap: round;
        stroke-width: 3px;
      }

      .cls-1, .cls-2, .cls-3 {
        stroke: #fff;
      }

      .cls-2, .cls-3 {
        stroke-miterlimit: 10;
      }

      .cls-4 {
        fill: #b769a7;
      }

      .cls-4, .cls-5 {
        stroke-width: 0px;
      }

      .cls-5, .cls-3 {
        fill: #fff;
      }

      .cls-3 {
        stroke-width: .25px;
      }
    </style>
  </defs>
  <polygon class="cls-4" points="265.54 76.19 31.79 87.17 38.49 57.97 30.28 28.13 264.02 17.15 257.36 47.84 265.54 76.19"/>
  <path class="cls-2" d="M245.81,57.01c62,1,90.67,23.43,23.68,44.73"/>
  <polyline class="cls-1" points="267.25 95.5 260.31 104.87 271.24 105.93"/>
  <g>
    <circle class="cls-4" cx="18.87" cy="50.66" r="2.22"/>
    <circle class="cls-4" cx="31.18" cy="91.45" r="2.22"/>
    <path class="cls-4" d="M5.46,79.74c-.32-.22-.6-.48-.83-.8-.08-.11-.14-.1-.23-.02l-2.19,1.71c-.49.38-1.15.23-1.42-.31-.1-.21-.11-.43-.05-.66l.21-.66c.06-.16,0-.29-.13-.39-.17-.12-.34-.24-.49-.38-.35-.32-.41-.81-.15-1.2.11-.16.22-.31.33-.46.13-.18.13-.26,0-.45-.11-.16-.22-.32-.33-.48-.25-.37-.24-.81.01-1.12.26-.32.68-.43,1.09-.27.84.33,1.67.66,2.5.99.15.06.26.02.32-.13.84-2.09,3.37-3.02,5.35-1.98.51.27.96.62,1.3,1.08.08.11.14.11.25.03.71-.56,1.43-1.12,2.15-1.68.37-.29.78-.32,1.13-.08.38.26.5.64.35,1.11-.06.2-.13.39-.19.59-.05.15-.01.27.12.36.17.12.35.25.5.39.35.32.41.82.14,1.2-.11.16-.23.32-.34.48-.1.14-.1.28,0,.41.12.17.24.34.35.51.25.37.24.81-.02,1.12-.26.32-.68.42-1.1.26-.83-.32-1.66-.65-2.49-.98-.16-.06-.27-.02-.33.13-.84,2.08-3.35,3.01-5.34,1.99-.18-.09-.33-.2-.5-.31,0,0,.03,0,.03,0Z"/>
  </g>
  <g>
    <circle class="cls-4" cx="268.19" cy="2.22" r="2.22"/>
    <circle class="cls-4" cx="279.74" cy="43.24" r="2.22"/>
    <path class="cls-4" d="M295.13,19.54c.16-.36.25-.73.27-1.12,0-.14.06-.16.19-.14.92.09,1.84.18,2.76.26.62.06,1.1-.42,1.03-1.03-.03-.23-.14-.43-.31-.58-.18-.15-.35-.29-.53-.44-.13-.11-.17-.24-.1-.4.08-.19.15-.38.21-.58.12-.45-.09-.91-.52-1.09-.17-.07-.35-.14-.53-.21-.21-.08-.25-.15-.24-.38,0-.2.02-.39.02-.59,0-.45-.23-.82-.61-.94-.39-.13-.8,0-1.07.36-.53.72-1.05,1.45-1.58,2.18-.09.13-.21.15-.34.06-1.83-1.31-4.47-.74-5.58,1.21-.29.5-.47,1.03-.52,1.61-.01.14-.06.17-.19.16-.9-.09-1.81-.17-2.71-.26-.47-.05-.83.15-1,.54-.18.42-.08.8.3,1.12.16.13.32.26.48.39.12.1.15.22.09.37-.08.2-.16.39-.22.6-.12.45.09.91.53,1.09.18.08.36.15.54.22.16.06.23.18.23.35,0,.21-.02.41-.02.62,0,.45.23.81.62.94.39.13.8,0,1.06-.37.52-.72,1.05-1.44,1.57-2.16.1-.14.22-.16.35-.06,1.83,1.3,4.44.74,5.57-1.19.1-.17.17-.35.25-.53h0Z"/>
  </g>
  <g>
    <path class="cls-5" d="M63.67,41c.05.96-.35,1.29-1.2,1.33l-5.11.27c-.86.04-1.28-.25-1.33-1.2l-.08-1.61c-.03-.61.1-.86.33-1.08-.49.13-.68.18-.87.19-.55.03-.73-.57-.75-.86-.02-.43.18-.64.61-.72,1.18-.24,1.63-.33,2.73-.76-.37-.24-.65-.45-1.13-.85-.35.25-1.13.75-1.47.77-.46.02-.74-.5-.76-.82-.02-.41.24-.56.44-.66,1.63-.89,1.75-1.01,2.74-2.01.07-.08.29-.26.67-.28.38-.02.82.16.83.48,0,.1-.02.17-.04.22l2.8-.15c.3-.02,1-.05,1.05.75.03.52-.27.94-.67,1.37-.43.44-.81.73-1.17,1,.98.28,1.52.34,2.48.43.55.06.92.1.95.77,0,.17,0,.84-.69.87-.2,0-.58-.04-.82-.07.28.23.37.54.4,1.01l.08,1.61h-.02ZM62.07,38.2c-1.22-.27-2.02-.61-2.43-.77-1,.52-1.83.82-2.46,1.03l4.89-.26ZM62.04,39.84c0-.19-.13-.28-.3-.27l-3.95.21c-.18,0-.28.12-.27.3l.04.81c0,.19.12.29.3.28l3.95-.21c.22,0,.27-.17.27-.31,0,0-.04-.81-.04-.81ZM58.11,34.83c.48.36.9.62,1.51.93.38-.23.75-.47,1.06-.75.12-.1.18-.17.18-.23,0-.09-.09-.09-.14-.09l-2.6.14h-.01Z"/>
    <path class="cls-5" d="M74.89,40.13c.06,1.15-.48,1.46-1.36,1.51l-6.31.33c-.9.05-1.45-.23-1.51-1.36l-.33-6.32c-.06-1.13.45-1.46,1.36-1.51l6.31-.33c.88-.05,1.45.21,1.51,1.36l.33,6.32ZM72.97,34.24c-.01-.22-.14-.34-.36-.33l-5.27.28c-.23,0-.34.15-.33.36l.29,5.61c.01.22.14.34.36.33l5.27-.28c.23,0,.34-.15.33-.36l-.29-5.61ZM72.43,38.24c.05.97-.37,1.29-1.2,1.33l-1.93.1c-.83.04-1.28-.22-1.33-1.2l-.12-2.32c-.05-.98.37-1.3,1.2-1.34l1.93-.1c.83-.04,1.28.23,1.33,1.21l.12,2.32ZM70.95,36.24c0-.17-.11-.28-.3-.27l-1.15.06c-.23,0-.28.17-.28.3l.1,1.81c0,.18.12.28.31.27l1.15-.06c.23,0,.27-.16.27-.3,0,0-.1-1.81-.1-1.81Z"/>
    <path class="cls-5" d="M77.94,32.85c0,.16-.07.87-.08,1.02-.03.45-.12,1.92-.03,3.6.02.34.06,1.19.17,1.9.03.15.17,1.05.17,1.13.02.31-.04.8-.84.84-.61.03-.75-.31-.87-.75-.06-.24-.23-1.22-.31-2.69-.13-2.57.02-4.64.1-5.06.11-.58.45-.6.87-.62.18,0,.78.03.81.63h.01ZM84.73,40.24c-.46.23-1.94.35-2.3.37-1.74.09-3.5-.11-3.59-1.92,0,0-.09-1.77,1.07-1.83.42-.02.95.16.98.61,0,.19-.02.26-.18.61-.11.23-.14.35-.13.45.02.41.49.53,1.52.48.5-.03,1.02-.13,1.31-.17.15-.03.8-.17.93-.17.53-.03.78.28.8.74.03.54-.17.72-.42.84h0ZM83.72,34.19c-.17,0-.91.04-1.07.05-.46.02-1.68.11-2.57.21-.03,0-.24.03-.31.04-.5.03-.85-.19-.88-.77-.04-.7.42-.79.61-.83.23-.05,1.5-.19,3.16-.28.33-.02,1.15-.06,1.39,0,.33.06.5.36.52.74.04.73-.46.84-.86.86h0Z"/>
    <path class="cls-5" d="M88,32.35c0,.13-.13,1.44-.15,1.72-.04.84-.04,1.7,0,2.55.05.92.15,1.88.32,2.79.04.23.09.53.1.66.03.5-.27.74-.76.76-.2,0-.65.02-.82-.48-.18-.52-.38-2.23-.46-3.72-.12-2.27.08-4.08.14-4.34.06-.29.22-.66.93-.6.52.05.67.29.69.67h.01ZM91.48,32.32c-.03-.29-.05-.88.79-.92.84-.04.88.51.89.83l.06.9c.17-.02,1.02-.1,1.06-.1.22,0,.8-.04.85.75.03.52-.26.7-.39.74-.15.06-.24.06-1.42.18l.14,2.09c.86.41,1.35.76,1.67,1.03.22.19.37.42.38.69.02.46-.34.94-.79.96-.29.02-.4-.09-.79-.47-.03-.03-.39-.31-.48-.37,0,.59,0,1.89-2.1,2-1.86.1-2.6-.94-2.65-2-.06-1.24.83-2.16,2.36-2.24.33-.02.56,0,.72.02l-.11-1.57c-.73.07-1.62.12-2.35.15-.26,0-.84.04-.88-.75-.03-.62.35-.74.56-.78.11-.02,2.14-.15,2.55-.18l-.07-.97h0ZM91.13,37.76c-.25,0-1.03.11-.99.84.04.72.82.7.98.69.21,0,.67-.09.78-.45.05-.16.05-.22,0-.95-.22-.08-.41-.15-.77-.13Z"/>
    <path class="cls-5" d="M105.46,38.53c.34-.02.8.07.83.71.04.79-.52.84-.75.85l-3,.16c-1.85.1-2.99-.35-3.84-1.36-.26.67-.49,1.1-.75,1.44-.12.14-.28.31-.59.32-.45.02-.93-.34-.95-.78-.01-.21.03-.35.26-.71.76-1.21.92-2.23,1.02-2.98.07-.47.14-.78.7-.81.25,0,.88.05.91.59.01.26-.1,1.04-.15,1.32.19.29.55.85,1.34,1.15l-.18-3.37-2.11.11c-.43.02-.81-.05-.83-.7-.06,0-.15.04-.29.05-.45.02-.79-.1-.83-.73l-.05-.91c-.05-.97.37-1.29,1.21-1.33l2.67-.14v-.22c-.04-.51.4-.62.7-.63.49-.03.89.04.92.55v.22l2.7-.14c.83-.04,1.28.23,1.33,1.2l.05.91c.02.35-.03.78-.72.81-.17,0-.25,0-.33-.03.04.47-.14.76-.71.79l-2.15.11.05,1.02,2.45-.13c.19,0,.75-.03.79.63.03.5-.16.75-.71.78l-2.45.13.07,1.26c.29,0,.45,0,.61,0l2.81-.15-.03.02ZM103.93,33.48h.28l-.03-.62c-.01-.2-.12-.29-.31-.28l-5.81.3c-.2,0-.29.12-.28.31l.03.62c.08-.02.15-.03.3-.04l5.81-.3h0Z"/>
    <path class="cls-5" d="M110.54,38.16c.25.25.27.52.27.58.02.32-.12.47-.82.75-1.06.43-2.07.7-2.34.71-.53.03-.72-.53-.74-.83-.02-.46.23-.51.66-.62,1.06-.27,1.41-.37,1.85-.53l-.64.03c-.78.04-1.26-.2-1.31-1.18l-.13-2.4c-.05-.97.38-1.27,1.18-1.31l5.93-.31c.78-.04,1.26.2,1.31,1.18l.13,2.4c.05.98-.39,1.27-1.18,1.31l-.65.03c.66.17,1.32.26,2,.35.25.03.57.08.59.54.01.21-.05.88-.64.91-.3.02-1.4-.18-2.28-.44-.72-.21-1-.29-1.02-.71,0-.07,0-.31.22-.59l-2.39.12h0ZM115.28,31.56c.05.97-.13,1.17-1.12,1.22l-5.38.28c-.98.05-1.19-.12-1.24-1.1l-.02-.29c-.05-.95.11-1.16,1.12-1.21l5.38-.28c1-.05,1.19.12,1.24,1.09,0,0,.02.29.02.29ZM114.21,34.47v-.17c-.02-.12-.09-.19-.22-.19l-4.91.26c-.12,0-.19.08-.19.21v.17l5.32-.28ZM108.95,35.6l.02.38,5.31-.28-.02-.38-5.31.28ZM109.01,36.82v.19c.02.12.09.18.22.18l4.91-.26c.14,0,.19-.08.19-.2v-.19l-5.32.28ZM113.56,31.79c.18,0,.17-.13.16-.32,0-.1-.07-.17-.19-.17l-4.3.23c-.14,0-.17.09-.17.19.01.2.02.31.19.3l4.3-.23h0Z"/>
    <path class="cls-5" d="M119.64,30.36c.08-.31.27-.53.68-.55.35-.02.94.04.97.63.01.23-.06.63-.15,1.15.68-.06,1.17-.05,1.55.1,1.09.41,1.36,1.88,1.41,2.94.16,2.98-.36,4.36-2.13,4.45-.55.03-1.1-.07-1.61-.29-.17-.08-.45-.23-.47-.64,0-.09,0-.84.65-.87.17,0,.21,0,.55.11.12.04.4.12.66.1.45-.02.57-.25.68-.89.07-.49.11-1.18.06-2.09-.06-1.09-.24-1.48-1.23-1.42-.15,0-.3.03-.41.04-.31,1.45-.69,2.9-1.16,4.29-.46,1.36-.7,1.69-1.18,1.72-.47.02-.99-.34-1.01-.75-.01-.26.07-.42.34-.96.14-.3.82-1.8,1.31-4.05-.78.12-1.06.17-1.13.17-.69.04-.78-.48-.79-.76-.01-.2,0-.63.41-.77.32-.11.78-.17,1.82-.27.04-.22.17-1.2.21-1.39h-.03ZM123.51,31.7c-.13-.12-.17-.31-.18-.41-.02-.3.19-.5.26-.56.08-.07.25-.17.49-.18.66-.03,1.49.85,1.9,1.58.73,1.27.81,2.79.81,2.87.01.22.05.89-.87.94-.68.04-.78-.4-.81-.7-.12-.99-.31-2.35-1.12-3.09,0,0-.48-.45-.48-.45ZM124.51,29.84c-.05-.07-.07-.2-.08-.24-.01-.21.24-.35.4-.36.19,0,.3.13.52.47.17.28.39.63.4.89.02.28-.28.37-.39.38-.05,0-.2.01-.33-.21-.04-.07-.22-.41-.26-.48s-.22-.37-.27-.45h.01ZM125.72,29.6c-.05-.08-.06-.18-.07-.24-.01-.21.23-.35.4-.36.19,0,.29.13.5.46.16.24.4.69.41.9.01.24-.23.36-.39.37-.06,0-.21.01-.32-.2-.05-.08-.22-.42-.26-.48-.04-.07-.23-.37-.27-.45Z"/>
    <path class="cls-5" d="M136.07,37.84c-.44.15-1.64.38-3.25.46-.35.02-1.88.09-2.92-.16-.38-.1-1.88-.45-1.96-1.94-.07-1.41,1.23-2.54,1.76-2.57.56-.03.89.41.91.74,0,.25-.16.47-.45.75-.49.47-.5.67-.49.83.04.86,1.81.81,2.73.76.53-.03,1.68-.11,2.79-.39.55-.14.62-.15.73-.15.56-.03.81.26.84.73.03.54-.17.76-.68.94h0ZM129.18,31.54c-.21.01-.89.05-.93-.76s.55-.85.94-.87c.13,0,1.42-.04,1.7-.06.56-.03,3.4-.24,3.55-.25.45-.02,1.02,0,1.05.72.03.51-.18.66-.84,1.14-.25.19-1.37,1.06-1.6,1.21-.15.09-.35.21-.58.22-.44.02-.84-.31-.87-.73,0-.25.12-.43.43-.66.07-.06.4-.24.46-.3-.98.14-2.3.28-3.31.33h0ZM134.09,32.69c-.05-.07-.06-.16-.07-.24,0-.2.23-.34.4-.35.17,0,.29.1.5.45.07.11.39.65.4.9,0,.27-.28.36-.4.37-.05,0-.19,0-.31-.2-.05-.08-.22-.42-.26-.49-.04-.07-.23-.38-.26-.44ZM135.14,32.09c-.04-.08-.05-.16-.05-.19,0-.21.24-.34.4-.35.18,0,.29.1.52.47.02.04.37.61.38.87,0,.23-.23.36-.4.37-.05,0-.19,0-.31-.2-.05-.07-.2-.39-.25-.48-.04-.07-.25-.42-.29-.49h0Z"/>
    <path class="cls-5" d="M141.24,29.41c-.03-.66.73-.74.89-.75.29-.02.55.06.72.43.07.16.3.9.36,1.05.48-.06.83-.11,1.22-.17.04,0,1.1-.18,1.16-.19.28-.01.79.03.83.78.03.51-.26.64-.5.73-.33.13-1.34.26-1.95.33.49.76.97,1.3,1.3,1.63.35.36.46.52.47.78.02.42-.31.81-.78.84-.19,0-.27-.03-.88-.23-.84-.28-1.72-.41-2.6-.37-1.06.06-1.91.49-1.87,1.27.05.94,1.48.92,2.41.87,1.28-.07,1.89-.22,2.85-.47.21-.05.28-.07.38-.07.74-.04.79.59.79.74,0,.26-.07.56-.42.73-.5.24-1.85.53-3.26.6-1.85.1-2.66-.17-3.22-.45-.7-.35-1.15-1.07-1.19-1.9-.05-1.02.52-2.53,3.21-2.67.97-.05,1.61.1,2,.18-.46-.57-.69-.89-.94-1.31-1.25.13-2.16.19-3.18.24-1.02.05-1.59.08-1.63-.72-.04-.78.58-.82.81-.83.27-.01,1.44-.05,1.68-.07.86-.04,1.19-.07,1.61-.12-.21-.54-.27-.7-.28-.91v.03ZM144.52,28.49c0-.26.27-.35.4-.36.21-.01.3.13.46.44.26.49.3.66.3.8.02.32-.32.36-.38.37-.2.01-.28-.08-.35-.23-.04-.07-.16-.38-.19-.44-.15-.24-.24-.41-.25-.57h.01ZM145.75,28.53c-.04-.08-.04-.17-.04-.17,0-.28.3-.35.39-.36.15,0,.29.04.46.42.15.34.31.77.32.94.02.37-.35.39-.39.39-.22.01-.29-.11-.39-.38-.05-.11-.06-.15-.15-.36-.04-.08-.19-.4-.21-.47h0Z"/>
    <path class="cls-5" d="M149.47,29.47c0,.12-.03.71-.03.83,0,.38-.03,1.24,0,2.01.08,1.5.35,2.48.61,2.87.09.13.27.27.51.26.46-.02.72-.52.88-1.15.15-.58.21-.82.71-.85.48-.03.9.23.93.72.04.7-.46,1.7-.74,2.11-.2.29-.72,1.03-1.77,1.09-2.51.13-2.73-4.1-2.79-5.33-.03-.55-.08-2.29.02-2.69.12-.54.47-.59.87-.61.75-.04.79.59.79.73h0ZM155.43,35.4c-.11-2.01-.23-4.37-1.4-4.7-.11-.03-.6-.07-.71-.09-.24-.05-.5-.19-.53-.74-.02-.4.12-.84.81-.88.55-.03,1.77.15,2.5,1.21s1.01,3.28,1.1,5.03c.02.39.02,1.05-.82,1.09-.9.05-.93-.56-.95-.93h0Z"/>
    <path class="cls-5" d="M163.54,30.8c.34-.03,1.9-.14,2.21-.18.04,0,.22-.02.29-.03.38-.02.74.11.77.67.04.68-.42.74-1.02.78-.33.03-1.85.14-2.16.17l.07,1.01c1.13.3,2.39,1.03,3.01,1.49.34.26.4.49.41.66.02.46-.32.97-.82,1-.25,0-.4-.05-.77-.35-.19-.15-.65-.48-1.13-.78-.28-.17-.44-.24-.61-.32,0,.62-.02,1.96-2.32,2.08-1.96.1-3.08-.69-3.14-1.86-.06-1.15.95-2.08,2.88-2.18.38-.02.63,0,.8,0l-.04-.64c-.42.02-2.23.14-2.6.16-.49.03-.72.04-.89-.05-.18-.1-.31-.31-.33-.61-.03-.51.28-.72.71-.74.84-.04,2.17-.12,3.01-.17l-.06-.74c-.39.02-2.08.13-2.43.15h-.25c-.45.04-.68.05-.84-.04-.21-.1-.32-.34-.34-.61-.04-.72.53-.75.82-.77.09,0,.49-.01.58-.02.38-.03,2.03-.13,2.37-.15l-.03-.4c-.05-.65.48-.76.79-.77.43-.02.83.09.88.69l.03.37c.37-.03,2-.15,2.34-.19.02,0,.23-.02.3-.03.31-.02.74.07.77.68.04.68-.41.72-.84.77-.39.04-2.12.16-2.47.19l.06.74h-.01ZM161.18,34.23c-.28,0-1.31.11-1.28.77.02.44.53.63,1.28.59.31-.02.71-.08.86-.36.09-.17.09-.34.06-.9-.18-.05-.46-.13-.92-.11h0Z"/>
    <path class="cls-5" d="M174.99,31.7c.11.28.27.68.3,1.31.1,1.85-.97,2.93-2.89,3.34-.77.17-1.43.22-1.58.23-.2,0-.93.05-.97-.77-.04-.68.45-.71.98-.73.61-.04,1.5-.13,2.13-.5.51-.3.61-.69.66-.86-.31.26-.62.52-1.54.57-1.5.08-2.61-.68-2.68-1.96-.06-1.12.79-2.13,2.5-2.22.37-.02.86-.01,1.37.15l-.04-.66c-1.85.13-2.51.18-3.65.24-1.06.06-1.15.05-1.31.02-.16-.03-.46-.16-.49-.69-.04-.74.52-.78.9-.8.27-.01,1.46-.07,1.71-.08,1.13-.07,1.59-.1,2.72-.18l-.03-.28c-.02-.22-.07-.86.79-.9.86-.04.89.57.9.79v.26c.24-.01,1.28-.11,1.5-.12.34-.02.82.03.85.7.04.7-.44.78-.8.81-.21.02-.33.03-1.46.11l.12,2.22h0ZM173.36,32.13c-.04-.81-1.03-.79-1.19-.78-.47.02-1.19.26-1.16.9.04.75.95.79,1.21.77.58-.03,1.17-.3,1.14-.9h0Z"/>
    <path class="cls-5" d="M60.12,49.05c.19-.03.48-.09.9-.11.58-.03,2.05,0,2.97.69.67.5.95,1.29.99,2.01.09,1.8-1.17,3.04-3.48,3.16-.33.02-1,.05-1.05-.75-.04-.68.54-.71.87-.73.45-.02,1.96-.1,1.89-1.57-.07-1.3-1.23-1.42-2.2-1.37-.4.02-.56.05-.81.11l.08,1.62c.05.92.14,2.71-1.89,2.81-1.54.08-2.41-1-2.47-2.19-.11-2.06,1.91-2.95,2.63-3.26l-.05-1.03c-.24.02-1.25.1-1.46.11l-.41.02c-.26,0-.85.04-.89-.72-.03-.55.29-.71.56-.76.08,0,1.64-.13,2.12-.16l-.03-.49c-.02-.37-.02-.85.75-.89s.82.46.84.79l.02.43c.5-.05.68-.07.81-.07.23,0,.81-.04.85.72.03.54-.29.69-.38.72-.16.05-.27.07-1.2.16,0,0,.04.75.04.75ZM58.65,50.99c-.36.19-1.24.66-1.2,1.57.02.47.33.85.75.83.45-.02.55-.51.51-1.26,0,0-.06-1.14-.06-1.14ZM62.33,45.76c.51-.03,1.42.67,1.93,1.16.44.42.7.74.72,1.08.03.49-.42.85-.83.87-.34.02-.5-.18-.75-.49-.56-.69-.8-.86-1.51-1.34-.3-.2-.32-.5-.32-.53,0-.22.17-.46.2-.48.06-.06.28-.27.57-.28h-.01Z"/>
    <path class="cls-5" d="M71.62,50.87l3.45-.18c.37-.02.76.05.79.64.03.51-.09.8-.71.83l-3.45.18.08,1.56c.02.44-.08.77-.72.8-.61.03-.85-.14-.88-.72l-.08-1.56-3.39.18c-.34.02-.76-.04-.79-.64-.03-.51.1-.8.71-.83l3.39-.18-.04-.76-1.9.1c-.83.04-1.29-.23-1.34-1.21l-.13-2.55c-.05-.99.4-1.29,1.21-1.33l5.49-.29c.82-.04,1.29.21,1.34,1.2l.13,2.55c.05.96-.36,1.3-1.21,1.34l-1.99.1.04.76h0ZM73.08,46.88l-.02-.36c0-.19-.12-.28-.3-.27l-4.32.23c-.19,0-.28.12-.27.3l.02.36,4.88-.26h.01ZM73.14,48.04l-4.88.26.02.39c0,.18.12.28.3.27l4.32-.23c.19,0,.28-.13.27-.3l-.02-.39h-.01Z"/>
    <path class="cls-5" d="M78.57,53.32c-1.05.05-1.9-.77-1.98-2.34-.06-1.19.35-2.36,1.15-3.23-.14-.45-.46-1.43-.48-1.83-.04-.73.66-.79.83-.8.44-.02.57.19.66.43.06.18.24,1.04.28,1.2.62-.35,1.3-.55,2.02-.67.05-.46.13-1.14.24-1.37.13-.26.37-.34.65-.36.52-.03.92.2.94.61.01.21-.13.92-.18,1.12,2.19.29,3.17,1.61,3.26,3.41.06,1.25-.32,2.5-1.31,3.25-1.05.79-2.33.95-2.65.97-.79.04-.85-.64-.86-.78-.03-.61.27-.66.85-.79.76-.15,2.49-.51,2.38-2.63-.09-1.77-1.42-1.93-1.98-2-.19.65-.65,2.24-1.08,3.14.29.22.44.33.45.59.02.46-.39.91-.74.93-.14,0-.34-.04-.53-.16-.81,1.07-1.39,1.28-1.92,1.31ZM78.37,49.29c-.27.5-.37,1.13-.35,1.55.02.46.16.96.58.93.24,0,.42-.13.86-.76-.43-.52-.78-1.05-1.1-1.73h0ZM80.22,49.6c.19-.47.43-1.19.6-2.02-.31.07-.84.19-1.38.56.35.85.69,1.34.78,1.47h0Z"/>
    <path class="cls-5" d="M89.05,44.84c0,.16-.07.87-.08,1.02-.03.45-.12,1.92-.03,3.6.02.35.06,1.19.17,1.9.03.15.17,1.05.17,1.13.02.31-.04.8-.84.84-.61.03-.75-.31-.87-.75-.06-.24-.23-1.23-.31-2.69-.13-2.57.02-4.65.1-5.06.11-.58.45-.6.87-.62.18,0,.78.03.81.63h.01ZM95.84,52.23c-.46.23-1.94.35-2.3.37-1.73.09-3.5-.11-3.59-1.92,0,0-.09-1.77,1.07-1.83.42-.02.95.16.98.61,0,.19-.02.26-.18.61-.11.24-.14.35-.13.45.02.41.49.53,1.52.48.5-.03,1.02-.13,1.31-.17.15-.03.8-.17.93-.18.53-.03.78.28.8.74.03.54-.17.72-.42.84h0ZM94.83,46.19c-.17,0-.91.04-1.07.04-.46.02-1.68.11-2.57.21-.03,0-.24.03-.31.04-.5.03-.85-.19-.88-.77-.04-.7.42-.79.61-.83.23-.05,1.5-.19,3.16-.28.33-.02,1.15-.06,1.39,0,.33.06.5.36.52.74.04.73-.46.84-.86.86h0Z"/>
    <path class="cls-5" d="M101.55,46.88c.19-.03.48-.09.9-.11.58-.03,2.05,0,2.97.69.67.5.95,1.29.99,2.01.09,1.8-1.17,3.04-3.48,3.16-.33.02-1,.05-1.05-.75-.04-.68.54-.71.87-.73.45-.02,1.97-.1,1.89-1.57-.07-1.3-1.23-1.42-2.2-1.37-.4.02-.56.05-.81.11l.08,1.62c.05.92.14,2.71-1.89,2.81-1.54.08-2.41-1-2.47-2.19-.11-2.06,1.91-2.95,2.63-3.26l-.05-1.03c-.24.02-1.25.1-1.46.11l-.41.02c-.26,0-.85.04-.89-.72-.03-.55.29-.71.56-.76.08,0,1.64-.13,2.12-.16l-.03-.49c-.02-.37-.02-.85.75-.89s.82.46.84.79l.02.43c.5-.05.68-.07.81-.07.23,0,.81-.04.85.72.03.54-.29.69-.38.72-.17.05-.27.07-1.2.16,0,0,.04.75.04.75ZM100.08,48.82c-.36.19-1.24.66-1.2,1.57.02.47.33.85.75.83.45-.02.55-.51.51-1.26,0,0-.06-1.14-.06-1.14ZM103.76,43.59c.51-.03,1.42.67,1.93,1.16.44.42.7.74.72,1.08.03.49-.42.85-.83.87-.34.02-.5-.18-.75-.49-.56-.69-.8-.86-1.51-1.34-.3-.2-.32-.5-.32-.53-.01-.22.16-.46.19-.48.06-.06.28-.27.57-.28h0Z"/>
    <path class="cls-5" d="M111.19,43.37c-.01-.2-.04-.77.72-.81.67-.04.87.24.9.73l.03.63,2.25-.12c.88-.05,1.41.23,1.46,1.33l.18,3.47c.06,1.12-.46,1.42-1.32,1.46l-2.25.12.08,1.57c.01.2.04.77-.72.81-.66.03-.87-.22-.9-.73l-.08-1.57-2.23.12c-.87.05-1.41-.2-1.47-1.32l-.18-3.47c-.06-1.1.44-1.43,1.33-1.47l2.23-.12-.03-.63ZM109.3,46.55l2.05-.11-.05-1.03-1.76.09c-.23,0-.29.16-.28.31l.04.73h0ZM111.47,48.82l-.06-1.07-2.05.11.04.77c0,.19.1.29.31.28l1.76-.09ZM112.91,45.33l.05,1.03,2.05-.11-.04-.73c0-.18-.11-.29-.31-.28l-1.76.09h0ZM115.09,47.57l-2.05.11.06,1.07,1.76-.09c.21,0,.29-.13.28-.31l-.04-.77h0Z"/>
    <path class="cls-5" d="M120.23,43.3c0,.1.02,1.49.02,1.7,0,1.44,0,1.87.07,3.07.05,1.04.18,2.03,1.95,1.94,1.83-.1,2.67-.92,2.87-2.55.08-.63.14-1.08.83-1.11.16,0,.94-.04.98.71.02.46-.1,1.65-.84,2.76-.78,1.16-2.06,1.7-3.71,1.79-1.56.08-2.52-.26-3.15-1.02-.3-.36-.56-.84-.66-2.78-.04-.72-.16-4.43-.15-4.51.02-.44.15-.79.89-.83.86-.04.89.6.9.84h0Z"/>
    <path class="cls-5" d="M128.52,41.8c.18,0,.41.02,1.27.68.44.33.93.72.95,1.12.02.39-.33.89-.81.91-.27,0-.34-.04-.94-.56-.15-.14-.86-.68-1.01-.81-.16-.14-.24-.32-.24-.43-.03-.54.39-.9.78-.92h0ZM137.16,49.45c.74-.04.78.58.79.7,0,.09.04.77-.72.81l-4.5.24c-1.68.09-2.28-.59-2.55-.92-.17.31-.31.5-.57.8-.29.33-.44.46-.73.48-.5.03-.9-.42-.93-.9-.02-.33.14-.51.37-.71.38-.32.44-.38.8-.71l-.1-1.93c0-.07,0-.27-.2-.26l-.28.02c-.52.03-.74-.28-.76-.68-.03-.57.18-.82.73-.85l.65-.03c1.09-.06,1.31.13,1.36,1.22l.1,1.9c.14.87,1.01,1.14,1.95,1.09l4.58-.24v-.03ZM132,43.36c-.18,0-.78.04-.82-.72-.04-.75.5-.81.74-.83l1.87-.1c1.17-.06,1.24.47,1.37,1.41.11.8.35,1.57.7,2.3.36.74.77,1.26,1.31,1.79.5.5.61.64.62.92.02.42-.35.92-.84.95-.31.02-.69-.09-1.4-1.05-.5-.67-.87-1.41-1.11-2.22-.33,1.05-.77,1.76-1.1,2.22-.41.58-1,1.29-1.53,1.32-.54.03-.88-.48-.9-.83,0-.25.13-.46.19-.5.67-.64,1.05-1.01,1.57-1.92.65-1.13.86-2.32.85-2.62,0-.15-.11-.18-.24-.18l-1.28.07h0Z"/>
    <path class="cls-5" d="M144.92,43.38c.04-.23.16-.57.8-.61.8-.04.94.44.97,1.03.03.55,0,1.32,0,1.85.79.31,1.32.53,1.35,1.07.02.36-.25.95-.75.97-.25,0-.39-.06-.8-.26-.35,1.67-1.61,3.07-2.58,3.12-.42.02-.86-.36-.88-.81-.02-.41.12-.51,1.04-1.18.23-.17.75-.67.87-1.78-.76-.29-1.21-.4-1.88-.48-.08.41-.27,1.39-.75,2.52-.27.63-.67,1.29-1.5,1.34-.96.05-2.15-.74-2.23-2.26-.05-.96.36-2.15,1.79-2.75.63-.26,1.17-.32,1.41-.35.02-.14.15-.73.16-.83,0-.15.07-.58.07-.66,0-.22-.15-.24-.32-.23-.29.02-1.55.18-1.81.19-.22,0-.84.04-.88-.75-.04-.81.56-.84.94-.86l.58-.03c.3-.02,1.89-.15,1.93-.15.29-.02,1.18-.06,1.23.85.02.37-.09,1.08-.11,1.23-.02.2-.2,1.06-.23,1.24.76.11,1.13.19,1.65.31,0-.27-.1-1.49-.06-1.74h0ZM140.83,46.48c-.51.25-.9.7-.86,1.39.03.61.43.73.55.73.22,0,.37-.28.54-.75.3-.88.38-1.31.42-1.56-.26.07-.44.11-.65.2h0Z"/>
    <path class="cls-5" d="M149.85,44.41c3.33-2.17,3.74-2.43,4.84-3.43.23-.21.45-.4.79-.42.43-.02.96.23.98.78.02.3-.07.55-.76,1.08-1.24.95-2.57,1.75-3.93,2.52-.46.26-.59.35-.58.51,0,.14.12.22.48.36,1.1.42,2.96,1.13,4.75,2.14.54.31.9.51.92,1,.02.4-.32.93-.86.96-.32.02-.58-.1-.87-.29-1.68-1.06-2.21-1.41-3.95-2.18-.28-.12-1.49-.61-1.73-.73-.25-.11-.81-.39-.84-1.1-.04-.68.45-1,.77-1.2h-.01Z"/>
    <path class="cls-5" d="M160.31,40.53c.15-.22.38-.28.61-.29.41-.02.89.08.92.65,0,.17,0,.33-.05.62.44-.03,1.13-.09,1.57-.12.23-.02,1.28-.13,1.49-.14.22,0,.83-.03.87.74.04.71-.49.79-.81.82-.08,0-1.94.19-3.34.29-.08.52-.58,3.18-1.36,5.73-.13.44-.28.84-.8.87-.29.02-.97-.11-1-.7,0-.23.14-.62.23-.84.43-1.11,1.01-3.27,1.26-4.94-.97.05-1.11.06-1.29,0-.18-.03-.45-.21-.48-.7-.03-.54.19-.81.8-.84.19,0,.99-.04,1.16-.05.09-.88.1-.96.2-1.11h.02ZM165.42,49.3c-2.48.13-3.58-.21-3.66-1.58,0-.14-.06-1.27.97-1.33.38-.02.79.12.81.49,0,.11-.02.19-.04.24-.05.17-.06.21-.06.31,0,.19.13.31.51.35.29.04.64.03.88.02.29-.02.85-.07,1.53-.18.12-.02.35-.06.47-.07.47-.02.75.22.77.71.04.74-.32.94-2.19,1.04h0ZM166.88,45.04c-.13.12-.28.15-.52.16-.18,0-.96,0-1.12.02-.66.03-.99.08-1.93.2-.06,0-.22.03-.38.04-.69.04-.73-.64-.73-.75-.02-.32.1-.63.59-.77.65-.18,1.87-.28,2.57-.31,1.58-.08,1.71.17,1.74.82,0,.16-.05.44-.23.6h0ZM165.36,40.27c-.04-.09-.04-.18-.04-.19,0-.27.28-.35.4-.36.21,0,.31.15.43.41.09.19.33.7.34.97.02.35-.33.39-.39.39-.16,0-.25-.06-.32-.19-.05-.08-.16-.44-.21-.56-.06-.13-.15-.34-.21-.47h0ZM166.58,40.04c-.02-.06-.04-.12-.04-.17-.02-.33.36-.36.39-.37.2,0,.31.11.46.44.07.16.3.7.31.94.02.33-.32.37-.38.38-.08,0-.25,0-.35-.24-.04-.07-.16-.42-.18-.49-.04-.08-.19-.4-.21-.48h0Z"/>
    <path class="cls-5" d="M172.06,40.32c-.04-.67.73-.74.89-.75.29-.02.55.07.72.43.07.15.29.86.33.99.62-.06,1.05-.13,1.81-.26.16-.03.45-.09.59-.09.32-.02.79.07.83.78.02.42-.17.59-.34.67-.32.15-.48.17-2.14.4.45.71.98,1.34,1.34,1.69.35.36.46.52.47.78.02.42-.31.81-.78.84-.19,0-.27-.03-.88-.23-.84-.28-1.72-.41-2.6-.37-1.06.06-1.91.49-1.87,1.27.05.94,1.48.92,2.42.87,1.28-.07,1.89-.23,2.85-.48.21-.05.28-.07.38-.07.74-.04.79.59.79.74,0,.26-.06.57-.42.74-.5.24-1.85.53-3.26.6-1.85.1-2.66-.17-3.22-.45-.7-.35-1.15-1.07-1.19-1.9-.05-1.02.52-2.53,3.21-2.67.97-.05,1.61.09,2,.18-.25-.3-.66-.82-.97-1.36-1.04.1-2.1.17-3.15.23-1.02.05-1.59.08-1.63-.72-.04-.77.58-.8.81-.82.12,0,.31,0,.43,0,.63,0,.95-.04,1.32-.06.6-.03,1.02-.07,1.52-.11-.17-.45-.24-.65-.25-.86h-.01Z"/>
    <path class="cls-5" d="M180.31,40.43c0,.13-.03.71-.03.83,0,.38-.03,1.24,0,2.01.08,1.5.35,2.48.61,2.87.09.13.27.27.51.26.46-.02.72-.52.88-1.15.15-.58.21-.82.71-.85.48-.02.9.23.93.72.04.7-.46,1.7-.74,2.11-.21.29-.72,1.03-1.77,1.09-2.51.13-2.73-4.1-2.79-5.32-.03-.55-.08-2.29.02-2.69.12-.54.47-.59.87-.61.75-.04.79.59.79.73h0ZM186.27,46.36c-.11-2.01-.23-4.37-1.4-4.7-.11-.03-.6-.07-.71-.09-.24-.05-.5-.19-.53-.74-.02-.4.12-.84.81-.88.55-.03,1.77.15,2.5,1.21.73,1.06,1.01,3.28,1.1,5.02.02.39.02,1.05-.82,1.09-.9.05-.93-.56-.95-.93v.02Z"/>
    <path class="cls-5" d="M190.9,44.29c-.03.33-.07.63-.5.66-.42.02-.51-.2-.59-.6l-.51-2.78-.11-2.01c-.02-.29,0-.85.85-.89.65-.03.93.23.96.8l.1,2.01-.22,2.82h.02ZM191.48,46.58c.03.56-.4,1.04-.95,1.07s-1.03-.4-1.06-.96c-.03-.57.4-1.03.95-1.06.55-.03,1.03.39,1.06.95Z"/>
    <path class="cls-5" d="M62.81,71.09v-.25c-.04-.52.47-.59.68-.6.38-.02.85,0,.88.52v.25l1.28-.07c.23-.01.76-.02.8.65.03.53-.15.8-.72.83l-1.26.07v.23c.04.48-.3.63-.71.66-.47.02-.82-.09-.85-.57v-.23l-2.78.15v.23c.04.49-.37.64-.69.66-.31.02-.8-.04-.83-.58v-.23l-1.29.07c-.23.01-.76.02-.8-.66-.03-.52.14-.79.72-.82l1.27-.07v-.25c-.04-.52.46-.59.66-.6.32-.02.83-.01.85.52v.25l2.78-.15h0ZM63.4,77.39c.37.4.8.73,2.51,1.06.37.08.73.17.76.67.02.33-.15.93-.78.96-.65.03-3-.62-4.07-2.26-.43.74-1.06,1.29-1.71,1.72-.57.37-1.51.91-2.13.94s-.85-.58-.86-.9c0-.2.04-.36.16-.48.16-.17.23-.19,1.26-.54.19-.06,1.04-.4,1.6-1.02l-2.58.14c-.57.03-.78-.22-.8-.74-.04-.68.51-.73.73-.74l.33-.02-.06-1.1c-.05-1,.4-1.29,1.2-1.33l1.84-.1c-.03-.54.06-.85.79-.89.71-.04.74.51.76.81l1.83-.1c.78-.04,1.28.18,1.33,1.2l.06,1.1.32-.02c.58-.03.78.22.8.75.04.67-.5.72-.73.73l-2.56.13v.03ZM60.87,75.04l-1.29.07c-.18,0-.29.11-.28.3l.04.71,1.52-.08c.02-.14.04-.35.03-.65l-.02-.35ZM62.43,75.2c0,.22,0,.51,0,.75l1.57-.08-.04-.71c0-.19-.12-.28-.3-.27l-1.23.06v.24h0Z"/>
    <path class="cls-5" d="M70.48,71.71c.18,0,.64-.03.67.56.02.45-.11.69-.6.71l-2.9.15c-.2,0-.65.02-.68-.6-.03-.56.3-.66.61-.67l2.9-.15ZM70.11,70.23c.18,0,.64-.02.67.55.03.53-.33.6-.61.62l-2.35.12c-.2.01-.64.02-.67-.54-.03-.52.31-.61.61-.63,0,0,2.35-.12,2.35-.12ZM70.21,73.32c.19,0,.65-.03.68.58.03.55-.32.64-.62.65l-2.28.12c-.18,0-.65.03-.68-.58-.03-.56.35-.64.62-.65l2.28-.12ZM70.29,74.88c.17,0,.65-.03.68.57.03.62-.43.64-.66.65l-2.24.12c-.17,0-.65.03-.68-.57-.03-.59.39-.64.62-.65l2.28-.12ZM71.11,78.41c.05.98-.1,1.2-1.11,1.25l-1.17.06c-.99.05-1.18-.14-1.23-1.13l-.04-.84c-.05-1.01.13-1.2,1.12-1.25l1.14-.06c.98-.05,1.2.1,1.25,1.13l.04.84ZM69.8,77.76c0-.12-.07-.18-.2-.18l-.44.02c-.14,0-.19.08-.19.2l.03.55c0,.13.08.2.21.19l.44-.02c.13,0,.18-.09.18-.21l-.03-.55ZM74.97,71.77c1.01-.05,1.26.2,1.31,1.19l.04.75h.16c.47-.03.59.3.61.58.03.62-.34.68-.61.69l-4.8.25c-.17,0-.66.04-.69-.57-.03-.52.22-.68.62-.7l.56-.03s.1-.37.17-.87l-.36.02c-.15,0-.64.03-.67-.53-.03-.58.45-.61.61-.62l.62-.03c.03-.2.04-.32.06-.54l-.89.05c-.17,0-.66.04-.69-.59-.03-.64.45-.66.63-.67l4.39-.23c.17,0,.66-.04.69.59.03.64-.45.66-.63.67l-1.98.1c-.03.24-.04.26-.08.54l.92-.05h.01ZM76.77,77.98c.06,1.11-.14,1.34-1.25,1.4l-2.45.13c-1.11.06-1.34-.14-1.4-1.26l-.06-1.17c-.06-1.11.14-1.33,1.26-1.39l2.45-.13c1.1-.06,1.33.13,1.39,1.25l.06,1.17ZM75.23,77.11c0-.19-.17-.25-.26-.25l-1.6.08c-.1,0-.26.09-.25.27l.04.7c0,.17.16.25.27.25l1.6-.08c.08,0,.25-.08.24-.28l-.04-.7h0ZM73.86,72.98c-.03.21-.08.47-.16.87l1.11-.06-.03-.61c-.01-.22-.19-.24-.26-.24l-.65.03h0Z"/>
    <path class="cls-5" d="M78.53,72.22c-.54.03-.81-.33-.84-.83-.02-.45.11-.82.71-.92.44-.07,5.39-.51,7.42-.62.57-.03,1.17-.06,1.21.73.04.85-.52.9-1.11.93-.63.04-1.26.19-2.17.77-1.04.67-2.05,1.89-1.99,3.11.07,1.31,1.16,1.54,2.92,1.45l.9-.05c.39-.02.81.12.85.74.05.98-.71,1.02-1.46,1.06-.3.02-1.27.06-2.33-.16-.57-.12-2.47-.5-2.59-2.76-.06-1.18.43-2.07.99-2.76.5-.62.93-.92,1.31-1.19-.55.07-3.53.46-3.8.47l-.02.03ZM84.3,73.03c-.04-.07-.07-.15-.07-.23-.01-.21.24-.35.4-.36.18,0,.29.1.53.48.08.13.37.65.38.86.01.28-.27.37-.4.38-.05,0-.19,0-.3-.21-.05-.07-.22-.41-.26-.48s-.24-.38-.27-.45h0ZM85.35,72.43c-.04-.07-.05-.14-.05-.19-.01-.21.24-.34.39-.35.21-.01.32.15.53.49.15.23.38.63.39.85.01.23-.22.36-.4.37-.05,0-.19,0-.31-.2-.05-.07-.22-.41-.25-.47-.05-.08-.25-.43-.29-.5h0Z"/>
    <path class="cls-5" d="M91.2,77.62c.02.3.02.87-.84.92-.87.04-.93-.49-.94-.82l-.4-7.65c-.02-.29-.02-.87.84-.92.86-.04.93.49.94.82l.09,1.71c1.92.48,3.56,1.19,4.06,1.4.7.31.91.5.93.92.02.45-.26,1.05-.82,1.08-.26.01-.49-.08-.85-.28-1.03-.54-2.1-1.03-3.22-1.36l.22,4.18h0Z"/>
    <path class="cls-5" d="M99.06,74.06c.02.41-.1.8-.83.84-.54.03-.9-.14-.93-.75l-.23-4.3c-.02-.4.08-.81.83-.85.55-.03.9.15.93.76l.23,4.3ZM104.25,73.13c.04.69.14,2.68-1.82,3.83-1.23.72-2.6.95-3.26.99-.19,0-.48.03-.71-.22-.19-.19-.24-.44-.25-.63-.04-.67.42-.75,1-.83,1.72-.26,2.33-.67,2.74-1.12.52-.57.57-1.18.53-1.86l-.2-3.84c-.02-.47.17-.82.84-.85.51-.03.91.13.94.76l.2,3.77h0Z"/>
    <path class="cls-5" d="M106.32,73.45c-.24-.72-.31-.87-.64-1.57-.06-.11-.11-.24-.11-.39-.02-.46.45-.69.8-.71.37-.02.54.15.76.57.24.47.76,1.69.78,1.99.02.47-.4.74-.91.77-.44.02-.59-.39-.67-.66h-.01ZM112.98,70.93c0,.17-.17,2.1-1.18,3.72-1.38,2.25-3.8,2.84-4.12,2.86-.57.03-.76-.54-.77-.79-.02-.45.25-.55.9-.79,1.1-.4,2.99-1.17,3.48-4.29.13-.78.14-.87.2-.99.15-.32.43-.37.59-.38.07,0,.17,0,.28.03.32.06.6.24.62.64h0ZM108.61,72.84c-.12-.46-.26-.92-.47-1.43-.12-.29-.16-.39-.16-.53-.02-.47.44-.68.79-.7.43-.02.6.19.79.61.24.53.64,1.72.65,1.99.04.71-.76.75-.95.76-.45.02-.58-.46-.64-.7h-.01Z"/>
    <path class="cls-5" d="M121.13,68.91c1.08-.06,1.14.62,1.16.94.03.49-.24,3.39-2.48,5.34-1.61,1.42-3.88,1.95-4.23,1.97-.63.03-.84-.49-.86-.83-.03-.55.21-.62.99-.85,1.51-.45,3.34-1.13,4.29-3.34.25-.58.43-1.31.43-1.47,0-.17-.1-.16-.34-.15l-2.89.15c-.35.5-1.6,2.15-2.37,2.19-.48.03-.86-.41-.88-.8-.02-.32.03-.37.68-.92.66-.56,1.43-1.57,1.85-2.53.28-.62.39-.87.91-.9.37-.02.92.15.94.6,0,.16-.01.32-.21.75l3.01-.16h0Z"/>
    <path class="cls-5" d="M124.46,70.63c-.31.02-.84,0-.88-.74-.04-.7.39-.82.79-.84l4.13-.22-.05-.95c-.02-.36.05-.78.77-.82.54-.03.85.17.88.73l.05.95,1.66-.09c.31-.02.84-.01.88.74.04.7-.4.82-.79.84l-1.66.09.23,4.48c.08,1.49-.99,1.55-1.74,1.59-1.2.06-1.77.09-1.81-.81-.04-.67.35-.78.69-.8.1,0,.57,0,.66-.01.36-.02.54-.08.52-.43l-.14-2.58c-.81,1.19-1.62,1.95-2.05,2.33-.55.49-1.46,1.29-2.01,1.32s-.82-.52-.84-.87.23-.53.63-.77c.22-.14,1.39-.87,2.61-2.2.19-.21.55-.62.94-1.14l-3.48.18v.02Z"/>
    <path class="cls-5" d="M134.49,68.87c-.29.02-.83-.04-.87-.75-.03-.55.28-.82.78-.85l7.11-.37c.37-.02,1.15,0,1.2.85.02.47-.19,1.43-.87,2.45-.61.91-1.5,1.64-1.93,1.66-.47.02-.89-.4-.91-.84-.02-.33.11-.43.56-.74.63-.44,1.19-1.33,1.17-1.6,0-.12-.1-.12-.29-.11l-5.96.31h0ZM138.84,70.21c.07,1.35-.17,2.71-.9,3.85-.73,1.12-1.96,1.98-2.57,2.01-.43.02-.86-.39-.88-.86-.02-.38.08-.44.93-.97,1.8-1.11,1.77-2.65,1.75-4.01,0-.38,0-.86.8-.9.82-.04.85.53.86.88h.01Z"/>
    <path class="cls-5" d="M146.93,74.7c.02.3.02.87-.84.92-.87.04-.93-.49-.94-.82l-.4-7.65c-.02-.29-.02-.87.84-.92.86-.04.93.49.94.82l.09,1.71c1.92.48,3.56,1.19,4.06,1.4.7.31.91.5.93.92.02.45-.26,1.05-.82,1.08-.26.01-.49-.08-.85-.28-1.03-.54-2.1-1.03-3.22-1.36l.22,4.18h0Z"/>
    <path class="cls-5" d="M154.79,71.14c.02.41-.1.8-.83.84-.54.03-.9-.14-.93-.75l-.23-4.3c-.02-.4.08-.81.83-.85.55-.03.9.15.93.76l.23,4.3ZM159.99,70.21c.04.69.14,2.68-1.82,3.83-1.23.72-2.6.95-3.26.99-.19,0-.48.03-.71-.22-.19-.19-.24-.44-.25-.63-.04-.67.42-.75,1-.83,1.72-.26,2.33-.67,2.74-1.12.52-.57.57-1.18.53-1.86l-.2-3.84c-.02-.47.17-.82.83-.85.51-.03.91.13.94.76l.2,3.77Z"/>
    <path class="cls-5" d="M162.49,70.93c-.26.01-.92.05-.96-.81-.04-.83.51-.91.87-.93l7.46-.39c.26-.01.92-.05.96.81.04.85-.54.91-.87.93l-7.46.39Z"/>
    <path class="cls-5" d="M174.81,73.24c.02.3.02.87-.84.92-.87.04-.93-.49-.94-.82l-.4-7.65c-.02-.29-.02-.87.84-.92.86-.04.93.49.95.82l.09,1.71c1.92.48,3.56,1.19,4.06,1.4.7.31.91.5.93.92.02.45-.26,1.05-.82,1.08-.26.01-.49-.08-.85-.28-1.04-.54-2.1-1.03-3.22-1.36l.22,4.18h-.02Z"/>
    <path class="cls-5" d="M183.61,64.56c.05-.15.19-.4.73-.43.38-.02.85.09.88.57,0,.17-.06.37-.09.44,1.05-.09,2.92-.26,3.15-.27.39-.02.81.12.84.71.03.64-.43.74-.59.77-.25.05-3.08.29-4.18.37-.27.47-.28.5-.44.81.62-.39,1.16-.43,1.31-.44.22-.01.6.01.93.18.4.21.59.52.66.64.61-.25,1.63-.63,2.03-.65.71-.04.78.67.79.81.03.64-.41.77-.8.87-1.13.31-1.16.32-1.63.48.05.41.1.82.11,1.03.03.48.06,1.07-.74,1.11-.77.04-.83-.52-.84-.69-.02-.22-.03-.58-.04-.8-.89.45-1.51.84-1.48,1.44.02.47.71.55,1.79.49.73-.04,1.45-.17,2.16-.31.18-.04.32-.05.4-.05.54-.03.72.33.74.72.03.57-.33.7-.46.75-.78.28-2.12.35-2.42.37-1.57.08-2.2,0-2.78-.2-.65-.22-1.13-.74-1.17-1.44-.08-1.57,1.65-2.6,2.84-3.22-.17-.15-.38-.21-.6-.2-1.17.06-1.97,1.19-2.21,1.54-.09.12-.44.64-.52.75-.13.16-.32.33-.63.35-.47.03-.82-.38-.84-.76-.02-.33.15-.54.68-1.19.5-.61.8-1.05,1.5-2.26-.19,0-1.01.06-1.18.07-.23.01-.87.05-.91-.72-.04-.73.57-.77.8-.79,1.22-.08,1.36-.08,1.98-.12.07-.2.16-.52.25-.73h-.02Z"/>
    <path class="cls-5" d="M193.9,66.67c-.19,0-.77.04-.81-.67-.03-.55.19-.79.73-.81l1.92-.1-.05-1.02c0-.21-.03-.76.67-.8.55-.03.82.16.85.72l.05,1.02,2.15-.11c.18,0,.77-.04.81.67.03.6-.26.79-.73.81l-1.63.09c.5.94,1.34,1.95,1.73,2.32.19.19.39.37.57.56.24.23.31.37.33.61.03.56-.42.98-.79,1-.33.02-.51-.19-.79-.51.04.07.08.16.09.38.04.7-.42.74-.65.75l-.74.04.04.85c0,.27,0,.78-.67.81-.54.03-.81-.14-.85-.73l-.04-.85-.76.04c-.22.01-.74.04-.78-.67,0-.19.02-.27.03-.35-.37.46-.49.59-.75.61-.37.02-.6-.23-.68-.33l.09,1.7c0,.17.04.77-.7.81-.66.03-.82-.3-.84-.73l-.2-3.89s-.14.11-.33.12c-.43.02-.85-.33-.88-.92-.02-.29.04-.39.56-1.27.19-.31.59-1.19.79-2.07.21-.94.22-.97.36-1.08.14-.12.34-.14.45-.15.27,0,.84.05.87.58,0,.27-.11.97-.43,2.01l.2,3.74c.07-.08.41-.43.47-.5.46-.51,1.24-1.49,1.83-2.76l-1.48.08h-.01ZM196.02,70.26l-.09-1.81c-.3.69-.67,1.33-1.11,1.94.12-.07.31-.09.45-.1l.76-.04h0ZM198.28,70.14c.31-.02.4.04.47.09-.31-.37-.92-1.15-1.3-1.84l.09,1.79.74-.04Z"/>
    <path class="cls-5" d="M208.56,66.17l.02.4.56-.03c1.1-.06,1.31.14,1.36,1.23l.03.66c.06,1.16-.18,1.31-1.31,1.37.42.68.8.91,1.44,1.25.17.1.38.22.4.57.02.31-.17.86-.74.89-.43.02-1.47-.64-2.17-1.79-.5,1.11-1.48,1.99-1.98,2.01-.55.03-.8-.49-.82-.81-.02-.36.19-.5.37-.62.65-.43.97-.69,1.28-1.39-1.1.06-1.37-.06-1.43-1.22l-.03-.66c-.06-1.08.13-1.31,1.22-1.36l.48-.02-.02-.4h-.29c-.28.03-.47-.02-.61-.29-.31.31-.45.41-.66.42-.28.01-.54-.16-.7-.45-.1.06-.14.08-.34.09l-.53.03.02.44.51-.03c.14,0,.55-.03.58.49.03.53-.38.55-.53.56l-.51.03.02.48h.19c.76-.05,1.02.2,1.05.86.02.37.07,2.38-.15,3.11-.2.66-.57.81-1.5.85-.58.03-.74.02-.91-.15-.13-.13-.19-.4-.2-.57-.02-.44.16-.69.57-.71.1,0,.52-.02.62-.02.16-.03.4-.05.45-.65.03-.3.04-1.12.04-1.27,0-.23-.1-.25-.28-.24l-1.57.08c-1.01.05-1.22-.13-1.28-1.22l-.18-3.43c-.06-1.08.12-1.31,1.15-1.36l2.54-.13c.2,0,.62-.02.65.63.03.66-.36.69-.58.7l-.78.04.02.45.53-.03c.27-.01.35.04.43.11.1-.13.67-.58.77-.69.43-.45.52-.57.99-1.26.23-.34.56-.45.93-.47.63-.03.85.2,1.03.4.79.85.81.87,1.68,1.5.26.19.36.35.38.62.02.45-.27.89-.67.92-.25.01-.43-.12-.69-.33-.11.35-.38.39-.6.4h-.25ZM201.87,69.96c0,.15.06,1.32-.06,2.14-.02.18-.08.37-.36.39-.19,0-.39-.08-.41-.37,0-.15.11-.78.12-.91.04-.38.06-.53.06-1.2,0-.25,0-.48.31-.5.3-.02.32.29.33.44h.01ZM202.62,69.73c.03.1.08.54.12,1.19.03.49.04.74-.27.76-.18,0-.29-.06-.3-.26,0-.18-.02-.98-.03-1.14,0-.09-.04-.48-.03-.55.02-.17.18-.21.21-.21.18,0,.26.04.3.21ZM202.28,65.09l.67-.04-.02-.45-.48.03c-.13,0-.18.09-.18.21v.25h0ZM203,66.11l-.67.04.02.44.67-.04-.02-.44ZM202.41,67.64v.28c.02.13.09.2.21.19l.48-.03-.03-.48-.67.04h0ZM203.36,69.83c.1.46.14.95.16,1.16,0,.09,0,.27-.24.29-.23.01-.28-.19-.29-.3-.02-.42-.02-.55-.06-.77,0-.07-.07-.42-.08-.46,0-.25.16-.26.2-.26.2-.01.24.02.31.35h0ZM204.08,69.87c.04.22.12.57.14.93,0,.09,0,.25-.23.26-.2,0-.21-.05-.27-.56-.02-.14-.15-.85-.15-.89,0-.07.04-.18.2-.19.21-.02.23.08.31.46h0ZM206.86,67.93c-.13,0-.2.07-.19.21l.02.32c0,.13.07.2.21.19l.41-.02c0-.23.02-.42,0-.72l-.45.02h0ZM208.48,64.9c-.27-.31-.33-.38-.52-.62-.1-.14-.11-.16-.19-.16-.05,0-.07.04-.14.15-.13.25-.33.5-.47.69l1.31-.07h.01ZM208.65,67.84v.72l.48-.03c.12,0,.19-.08.19-.21l-.02-.32c0-.12-.08-.19-.21-.19l-.44.02h0Z"/>
    <path class="cls-5" d="M213.85,63.55c0,.1.02,1.49.02,1.7,0,1.44,0,1.87.07,3.07.05,1.05.18,2.04,1.95,1.94,1.83-.1,2.67-.93,2.88-2.55.08-.63.14-1.08.83-1.11.16,0,.94-.04.98.71.02.46-.1,1.65-.84,2.76-.78,1.16-2.06,1.7-3.71,1.79-1.56.08-2.52-.25-3.15-1.02-.3-.36-.56-.84-.66-2.78-.04-.72-.16-4.43-.15-4.51.02-.44.15-.79.89-.83.86-.04.89.6.9.84h-.01Z"/>
    <path class="cls-5" d="M227.23,67.07c.49.15,2.11.64,3.32,1.61.31.25.48.42.5.76.03.56-.39,1.09-.9,1.12-.39.02-.66-.23-1.17-.68-.51-.47-1.09-.84-1.73-1.09.07.9.18,2.47-2.39,2.61-1.55.08-3-.46-3.09-2.08-.08-1.46,1.17-2.39,3.08-2.49.28-.01.45-.01.62,0l-.33-3.87c-.05-.52.15-.9.81-.93.68-.04.94.25.97.84l.04.74c.34-.02.85-.04,1.93-.14.1,0,.72-.07.75-.07.74-.04.8.58.82.79.04.79-.54.85-.82.88-.23.02-1.24.13-2.56.2l.15,1.83v-.03ZM224.85,68.29c-.36.02-1.46.13-1.42.92.04.66.77.72,1.19.7.25-.01.74-.06.89-.39.09-.22.1-.32.05-1.19-.24-.04-.4-.06-.72-.05h0Z"/>
    <path class="cls-5" d="M235.01,70.95c-.36.02-.59,0-.79-.18-.15-.14-.27-.36-.29-.62-.04-.69.47-.75.8-.78,1.24-.13,2.44-.22,3.25-.94.63-.56.7-1.26.68-1.57-.02-.45-.24-.84-.5-1.02-.35-.24-.82-.27-1.19-.25-.31.02-1.57.17-2.99.96-.16.09-.84.51-1,.58-.21.09-.33.11-.41.12-.63.03-.9-.56-.92-.9-.03-.53.3-.72,1.46-1.27,1.26-.59,2.96-.97,3.75-1.01.69-.04,1.83.04,2.56.6.82.64,1,1.59,1.02,2.07.18,3.45-3.54,4.11-5.45,4.21h.02ZM233.6,61.59c.17,0,.88.1,1.02.11.62.07,1.95.14,3.32.14.46,0,1.1,0,1.14.76,0,.27-.08.58-.25.73-.15.13-.35.16-.6.18-.69.04-3.54-.11-4.68-.31-.46-.08-.7-.36-.67-.81.04-.58.35-.77.71-.79h0Z"/>
    <path class="cls-5" d="M245.77,61.09c.6.86.65.9,1.95,1.85.71.52,1.45,1.1,1.51,2.13.04.75-.42,2.19-1.98,2.99l-.02-.03c.37-.35.67-.67.95-1.1.46-.69.56-1.23.55-1.55-.03-.63-.49-.93-.87-1.14-.26-.14-1.45-.7-1.69-.82l.26,5.04c.03.61-.91,1.82-1.64,1.86-.29.01-.62-.15-.63-.51-.03-.51.5-1.36,1.91-1.55l-.38-7.16h.08Z"/>
  </g>
  <path class="cls-3" d="M182.08,34.22c0,1.16-.95,2.07-2.09,2.07s-2.07-.91-2.07-2.07.97-2.09,2.07-2.09,2.09.89,2.09,2.09ZM178.88,34.22c0,.61.5,1.12,1.12,1.12s1.12-.49,1.12-1.12-.52-1.12-1.12-1.12-1.12.48-1.12,1.12Z"/>
</svg>