<?xml version="1.0" encoding="UTF-8"?>
<svg id="Layer_1" data-name="Layer 1" xmlns="http://www.w3.org/2000/svg" viewBox="0 0 255.61 90.57">
  <defs>
    <style>
      .cls-1 {
        stroke-width: 5.68px;
      }

      .cls-1, .cls-2, .cls-3, .cls-4, .cls-5, .cls-6, .cls-7 {
        stroke: #7e4895;
      }

      .cls-1, .cls-2, .cls-3, .cls-7 {
        fill: none;
        stroke-linejoin: round;
      }

      .cls-2 {
        stroke-width: 5.87px;
      }

      .cls-2, .cls-3 {
        stroke-linecap: round;
      }

      .cls-3 {
        stroke-width: 4.6px;
      }

      .cls-8 {
        fill: #7e4895;
      }

      .cls-8, .cls-9 {
        stroke-width: 0px;
      }

      .cls-4 {
        stroke-width: 3px;
      }

      .cls-4, .cls-5, .cls-6 {
        stroke-miterlimit: 10;
      }

      .cls-4, .cls-5, .cls-6, .cls-9 {
        fill: #fff;
      }

      .cls-5 {
        stroke-width: 2.15px;
      }

      .cls-6 {
        stroke-width: 1.86px;
      }

      .cls-7 {
        stroke-width: 5.62px;
      }
    </style>
  </defs>
  <g>
    <g>
      <path class="cls-4" d="M20.71,79.36h6.4c.44,0,1.1.09,1.1.99,0,.73-.2,1.15-1.1,1.15h-6.4v3.15c0,.6-.15,1.1-1.12,1.1-.9,0-1.21-.29-1.21-1.1v-3.15h-6.32c-.4,0-1.1-.07-1.1-1.01,0-.73.22-1.14,1.1-1.14h6.32v-1.7h-3.54c-1.43,0-2.13-.5-2.13-2.13v-4.44c0-1.67.73-2.12,2.13-2.12h9.51c1.37,0,2.13.44,2.13,2.12v4.44c0,1.63-.71,2.13-2.13,2.13h-3.65v1.7ZM24.17,72.4v-.83c0-.38-.2-.62-.62-.62h-7.95c-.44,0-.62.24-.62.62v.83h9.2ZM24.17,74.16h-9.2v.9c0,.4.2.64.62.64h7.95c.44,0,.62-.24.62-.64v-.9Z"/>
      <path class="cls-4" d="M35.77,74.25v.92h2.49c.17,0,.92,0,.92.75s-.73.75-.92.75h-2.49v.95h3.32c.33,0,.92.05.92.84,0,.66-.38.84-.92.84h-8.74c-.35,0-.95-.05-.95-.84,0-.6.33-.84.95-.84h3.33v-.95h-2.53c-.7,0-.86-.42-.86-.75,0-.75.73-.75.92-.75h2.47v-.92h-1.78c-.2,0-.7-.02-.86-.5-.09.02-.2.06-.42.06-.92,0-.95-.66-.95-.97v-.92c0-1.78.42-2.18,2.25-2.18h1.71v-.5c0-.33.05-.9.99-.9.82,0,1.17.22,1.17.9v.5h1.65c1.81,0,2.25.38,2.25,2.18v.92c0,.26,0,.97-.95.97-.17,0-.24-.02-.35-.04-.2.48-.64.48-.86.48h-1.76ZM38.98,83.36c0,1.69-.37,2.05-2.11,2.05h-4.27c-1.74,0-2.13-.35-2.13-2.05v-1.19c0-1.69.37-2.05,2.13-2.05h4.27c1.7,0,2.11.33,2.11,2.05v1.19ZM33.68,72.29c0-.24.15-.71.81-.79h-2.35c-.37,0-.55.17-.55.53v.73c.07,0,.17-.02.31-.02h1.78v-.46ZM36.85,82.19c0-.26-.09-.44-.44-.44h-3.33c-.33,0-.46.17-.46.44v1.04c0,.29.15.46.46.46h3.33c.33,0,.44-.18.44-.46v-1.04ZM37.53,72.75c.13,0,.15,0,.27.02v-.73c0-.37-.18-.53-.55-.53h-2.31c.27.04.82.17.82.79v.46h1.76ZM42.39,80.72c0,.29,0,.99-1.03.99-.93,0-1.04-.53-1.04-.99v-10.12c0-.28,0-1.01,1.03-1.01s1.04.68,1.04,1.01v10.12ZM43.76,69.49c0-.37.04-1.1,1.06-1.1.94,0,1.08.55,1.08,1.1v13.96c0,.46,0,1.61-1.04,1.98-.44.15-1.03.17-2.49.17-.83,0-1.81,0-1.81-1.3,0-1.12.88-1.12,1.17-1.12.57,0,1.52,0,1.61-.02.37-.05.42-.4.42-.71v-12.96Z"/>
      <path class="cls-4" d="M51.62,70.18c0,.26-.37,2.47-.42,2.93-.16,1.5-.26,3.19-.26,4.65,0,1.91.15,3.78.33,5,.04.28.13.84.13,1.1,0,.79-.51,1.06-1.17,1.06-.44,0-.97-.07-1.17-.86-.28-1.12-.48-4.09-.48-6.43,0-4.11.6-7.31.68-7.62.11-.4.31-1.03,1.43-.88.88.11.93.64.93,1.04ZM58.24,70.33c-.02-.44.04-1.28,1.23-1.28s1.23.81,1.23,1.26l.02,1.96c1.98-.07,2.2-.09,2.29-.09.31,0,1.17,0,1.17,1.15,0,1.08-.68,1.14-1.81,1.17-.26.02-1.38.05-1.61.05l.06,4.05c1.74.93,2.69,1.83,2.99,2.11.5.46.66.84.66,1.21,0,.7-.59,1.32-1.21,1.32-.44,0-.53-.09-1.32-.93-.31-.33-.64-.59-1.23-1.04-.02.81-.05,1.5-.35,2.11-.7,1.45-2.66,1.58-3.46,1.58-3.12,0-4.36-1.72-4.36-3.61,0-2.22,1.78-3.61,4.31-3.61.75,0,1.26.11,1.59.18l-.07-3.26c-2.02.05-2.84.07-4.64.07-.38,0-1.23,0-1.23-1.15s.75-1.12,1.48-1.14c2.05-.02,2.29-.02,4.33-.07l-.06-2.03ZM56.84,79.73c-.6,0-2.24.17-2.24,1.67s1.61,1.58,2.05,1.58c.37,0,1.36-.07,1.67-.81.18-.42.17-1.1.13-2.11-.42-.17-.83-.33-1.61-.33Z"/>
      <path class="cls-4" d="M79.53,80.85c-1.08,0-1.65-.84-1.65-1.76,0-.51.22-.97.38-1.25l4.64-7.83c.33-.55.93-1.17,1.89-1.17,1.23,0,1.69.88,1.69,1.52v8.32h.5c.35,0,1.19.07,1.19,1.06,0,1.1-.95,1.1-1.19,1.1h-.5v2.36c0,.73-.35,1.23-1.25,1.23-.79,0-1.34-.28-1.34-1.23v-2.36h-4.36ZM83.89,78.69v-5.92c0-.07-.04-.33-.27-.33-.13,0-.22.07-.28.18l-3.26,5.52c-.05.09-.09.18-.09.28,0,.22.18.27.31.27h3.59Z"/>
      <path class="cls-4" d="M93.86,79.88c-.07.92-.27,3.02-1.43,4.86-.57.9-.83,1.03-1.32,1.03-.77,0-1.43-.6-1.43-1.15,0-.33.15-.59.42-1.03.86-1.36,1.65-3.06,1.65-6.29v-5.99c0-1.8.79-2.29,2.27-2.29h8.3c1.45,0,2.27.48,2.27,2.29v11.97c0,.44,0,1.67-1.03,2.07-.55.22-1.08.22-2.68.22-.64,0-1.63,0-1.91-.09-.64-.22-.73-.86-.73-1.19,0-1.14.79-1.14,1.12-1.14.31,0,1.65.06,1.92.06.5,0,.95-.04.95-.7v-2.62h-8.39ZM102.25,73.46v-1.48c0-.44-.22-.68-.68-.68h-6.84c-.48,0-.68.24-.68.68v1.48h8.19ZM94.06,75.57v2.2h8.19v-2.2h-8.19Z"/>
      <path class="cls-4" d="M108.74,84.04c-1.28,0-1.47-1.06-1.47-1.43,0-2.09,2.77-4.1,3.68-4.76,2.97-2.16,3.63-2.64,3.63-4.4,0-1.41-.79-2.44-2.24-2.44-2.02,0-2.31,1.94-2.35,2.42-.06.51-.09,1.19-1.23,1.19-.31,0-1.3-.09-1.3-1.23,0-1.47,1.12-4.54,4.86-4.54,2.66,0,4.84,1.65,4.84,4.76,0,2.68-1.41,3.67-3.74,5.28-.77.55-2.79,1.96-2.79,2.71,0,.22.26.26.44.26h4.89c.35,0,1.19.09,1.19,1.08,0,1.1-.95,1.1-1.19,1.1h-7.24Z"/>
      <path class="cls-4" d="M123.17,79c-2.25,0-4.42-1.56-4.42-4.97,0-3.12,1.85-5.19,4.78-5.19,1.69,0,2.97.75,3.65,1.56.64.77,1.56,2.14,1.56,5.85,0,1.58,0,8.19-5.37,8.19-3.13,0-4.38-2.35-4.38-3.35,0-.51.4-1.06,1.25-1.06.93,0,1.1.42,1.32,1.03.09.28.44,1.21,1.81,1.21,2.47,0,2.66-3.12,2.73-4.51-.4.4-1.23,1.25-2.93,1.25ZM121.4,73.96c0,.44,0,2.93,2.31,2.93,1.25,0,2.38-.9,2.38-2.93,0-1.91-.97-2.95-2.42-2.95-1.98,0-2.27,1.94-2.27,2.95Z"/>
      <path class="cls-4" d="M145.33,82.75c0,1.87-.79,2.46-2.46,2.46h-9.02c-1.65,0-2.46-.57-2.46-2.46v-11.09c0-1.89.79-2.46,2.46-2.46h9.02c1.65,0,2.46.57,2.46,2.46v11.09ZM142.91,75.99v-3.76c0-.5-.26-.79-.81-.79h-7.5c-.46,0-.79.22-.79.79v3.76h9.09ZM133.82,78.17v4.01c0,.53.29.81.79.81h7.5c.51,0,.81-.27.81-.81v-4.01h-9.09Z"/>
      <path class="cls-4" d="M155.3,69.69c1.08-1.23,1.54-1.38,1.91-1.38.51,0,.95.38.95.9,0,.37-.13.51-.6,1.01-.48.51-1.06,1.23-1.54,2.16-.7,1.39-1.04,3.08-1.04,4.69,0,4.12,1.89,6.12,2.86,7.15.2.22.33.42.33.71,0,.51-.44.9-.95.9-.38,0-.84-.17-1.92-1.39-1.52-1.76-2.73-4.38-2.73-7.37s1.14-5.53,2.75-7.38Z"/>
      <path class="cls-4" d="M163.94,79.88c-.07.92-.27,3.02-1.43,4.86-.57.9-.83,1.03-1.32,1.03-.77,0-1.43-.6-1.43-1.15,0-.33.15-.59.42-1.03.86-1.36,1.65-3.06,1.65-6.29v-5.99c0-1.8.79-2.29,2.27-2.29h8.3c1.45,0,2.27.48,2.27,2.29v11.97c0,.44,0,1.67-1.03,2.07-.55.22-1.08.22-2.68.22-.64,0-1.63,0-1.91-.09-.64-.22-.73-.86-.73-1.19,0-1.14.79-1.14,1.12-1.14.31,0,1.65.06,1.92.06.5,0,.95-.04.95-.7v-2.62h-8.39ZM172.34,73.46v-1.48c0-.44-.22-.68-.68-.68h-6.84c-.48,0-.68.24-.68.68v1.48h8.19ZM164.15,75.57v2.2h8.19v-2.2h-8.19Z"/>
      <path class="cls-4" d="M180.12,84.46c-1.06,1.23-1.54,1.37-1.91,1.37-.49,0-.95-.37-.95-.9,0-.37.13-.5.6-1.01.64-.68,2.58-2.75,2.58-6.85s-1.94-6.18-2.58-6.85c-.48-.51-.6-.64-.6-1.01,0-.53.46-.9.95-.9.39,0,.86.17,1.92,1.39,1.52,1.74,2.73,4.36,2.73,7.37s-1.15,5.55-2.75,7.39Z"/>
      <path class="cls-4" d="M204.62,74.62c.68-.02,3.7-.09,4.33-.11.22-.02.38-.02.46-.02.35,0,1.08.05,1.08,1.04s-.66,1.01-1.58,1.03c-.68.02-3.65.11-4.25.13l.04,2.14c2.24.73,4.36,2.25,5.22,2.95.75.6.75,1.01.75,1.19,0,.71-.59,1.37-1.23,1.37-.48,0-.75-.22-1.3-.73-.49-.46-1.36-1.1-2.24-1.67-.5-.31-.86-.51-1.19-.68-.09,1.81-.5,3.79-4.1,3.79-2.99,0-5.17-1.19-5.17-3.43,0-1.94,1.76-3.46,5.09-3.46.83,0,1.39.09,1.74.13l-.04-1.58c-1.41.02-3.65.05-5.06.05-1.08,0-1.78,0-1.78-1.04,0-.82.55-1.03,1.1-1.03,1.59,0,4.12-.04,5.7-.04l-.04-1.67c-1.43.02-3.7.05-5.13.05-1.1,0-1.8,0-1.8-1.06s.84-1.03,1.28-1.03h.99c.73,0,3.96-.04,4.62-.04l-.02-1.04c-.02-.88.62-1.08,1.21-1.08.7,0,1.19.24,1.21,1.08l.02.99c.71-.02,3.88-.09,4.54-.13.22,0,.4-.02.46-.02.28,0,1.1.02,1.1,1.04s-.68,1.04-1.52,1.06c-2.03.07-2.27.06-4.54.13l.04,1.65ZM200.43,80.06c-.79,0-2.71.15-2.71,1.52,0,.99,1.21,1.43,2.58,1.43s1.83-.42,1.94-1.15c.05-.33.05-.53.05-1.5-.35-.11-.9-.29-1.87-.29Z"/>
      <path class="cls-4" d="M214.9,72.68c-.22.02-1.19.11-1.39.11-1.06,0-1.21-.75-1.21-1.26,0-.79.31-1.17,1.19-1.26.95-.09,11.2-.44,13.16-.44,1.04,0,1.89,0,1.89,1.17s-.84,1.23-1.85,1.23c-1.47.02-2.58.31-4.43,1.45-1.26.77-3.68,2.75-3.68,5.44,0,2.51,2.13,3.21,5.52,3.21,1.47,0,1.63-.02,1.91.05.61.15.79.59.79,1.08,0,1.41-1.1,1.41-2.22,1.41-2.6,0-4.64-.53-5.88-1.1-1.83-.84-2.62-2.68-2.62-4.44,0-1.34.33-3.08,2.35-5.11,1.04-1.04,1.78-1.48,2.57-1.94-2.02.13-4.05.26-6.07.4ZM223.83,74.89c-.05-.11-.09-.24-.09-.35,0-.35.4-.55.66-.55.29,0,.44.15.84.83.22.37.68,1.28.68,1.58,0,.46-.48.59-.7.59s-.38-.18-.5-.38c-.13-.24-.29-.6-.42-.84-.07-.13-.4-.73-.48-.86ZM225.79,74.03c-.07-.15-.09-.26-.09-.37,0-.33.38-.53.64-.53.33,0,.46.22.81.79.13.2.71,1.16.71,1.59,0,.38-.38.57-.68.57-.24,0-.42-.2-.48-.29-.07-.15-.38-.79-.44-.9-.07-.15-.42-.73-.48-.86Z"/>
      <path class="cls-4" d="M234.22,82.9c0,.84-.7,1.54-1.54,1.54s-1.54-.7-1.54-1.54.7-1.54,1.54-1.54,1.54.68,1.54,1.54ZM233.48,79.02c-.06.51-.22.92-.79.92s-.77-.29-.83-.9l-.51-5.08v-3.87c0-.64.27-1.25,1.3-1.25.93,0,1.34.46,1.34,1.25v3.87l-.51,5.06Z"/>
    </g>
    <rect class="cls-8" x="72.86" y="63.69" width="113.81" height="26.88" rx="5.25" ry="5.25"/>
    <g>
      <path class="cls-9" d="M20.71,79.36h6.4c.44,0,1.1.09,1.1.99,0,.73-.2,1.15-1.1,1.15h-6.4v3.15c0,.6-.15,1.1-1.12,1.1-.9,0-1.21-.29-1.21-1.1v-3.15h-6.32c-.4,0-1.1-.07-1.1-1.01,0-.73.22-1.14,1.1-1.14h6.32v-1.7h-3.54c-1.43,0-2.13-.5-2.13-2.13v-4.44c0-1.67.73-2.12,2.13-2.12h9.51c1.37,0,2.13.44,2.13,2.12v4.44c0,1.63-.71,2.13-2.13,2.13h-3.65v1.7ZM24.17,72.4v-.83c0-.38-.2-.62-.62-.62h-7.95c-.44,0-.62.24-.62.62v.83h9.2ZM24.17,74.16h-9.2v.9c0,.4.2.64.62.64h7.95c.44,0,.62-.24.62-.64v-.9Z"/>
      <path class="cls-9" d="M35.77,74.25v.92h2.49c.17,0,.92,0,.92.75s-.73.75-.92.75h-2.49v.95h3.32c.33,0,.92.05.92.84,0,.66-.38.84-.92.84h-8.74c-.35,0-.95-.05-.95-.84,0-.6.33-.84.95-.84h3.33v-.95h-2.53c-.7,0-.86-.42-.86-.75,0-.75.73-.75.92-.75h2.47v-.92h-1.78c-.2,0-.7-.02-.86-.5-.09.02-.2.06-.42.06-.92,0-.95-.66-.95-.97v-.92c0-1.78.42-2.18,2.25-2.18h1.71v-.5c0-.33.05-.9.99-.9.82,0,1.17.22,1.17.9v.5h1.65c1.81,0,2.25.38,2.25,2.18v.92c0,.26,0,.97-.95.97-.17,0-.24-.02-.35-.04-.2.48-.64.48-.86.48h-1.76ZM38.98,83.36c0,1.69-.37,2.05-2.11,2.05h-4.27c-1.74,0-2.13-.35-2.13-2.05v-1.19c0-1.69.37-2.05,2.13-2.05h4.27c1.7,0,2.11.33,2.11,2.05v1.19ZM33.68,72.29c0-.24.15-.71.81-.79h-2.35c-.37,0-.55.17-.55.53v.73c.07,0,.17-.02.31-.02h1.78v-.46ZM36.85,82.19c0-.26-.09-.44-.44-.44h-3.33c-.33,0-.46.17-.46.44v1.04c0,.29.15.46.46.46h3.33c.33,0,.44-.18.44-.46v-1.04ZM37.53,72.75c.13,0,.15,0,.27.02v-.73c0-.37-.18-.53-.55-.53h-2.31c.27.04.82.17.82.79v.46h1.76ZM42.39,80.72c0,.29,0,.99-1.03.99-.93,0-1.04-.53-1.04-.99v-10.12c0-.28,0-1.01,1.03-1.01s1.04.68,1.04,1.01v10.12ZM43.76,69.49c0-.37.04-1.1,1.06-1.1.94,0,1.08.55,1.08,1.1v13.96c0,.46,0,1.61-1.04,1.98-.44.15-1.03.17-2.49.17-.83,0-1.81,0-1.81-1.3,0-1.12.88-1.12,1.17-1.12.57,0,1.52,0,1.61-.02.37-.05.42-.4.42-.71v-12.96Z"/>
      <path class="cls-9" d="M51.62,70.18c0,.26-.37,2.47-.42,2.93-.16,1.5-.26,3.19-.26,4.65,0,1.91.15,3.78.33,5,.04.28.13.84.13,1.1,0,.79-.51,1.06-1.17,1.06-.44,0-.97-.07-1.17-.86-.28-1.12-.48-4.09-.48-6.43,0-4.11.6-7.31.68-7.62.11-.4.31-1.03,1.43-.88.88.11.93.64.93,1.04ZM58.24,70.33c-.02-.44.04-1.28,1.23-1.28s1.23.81,1.23,1.26l.02,1.96c1.98-.07,2.2-.09,2.29-.09.31,0,1.17,0,1.17,1.15,0,1.08-.68,1.14-1.81,1.17-.26.02-1.38.05-1.61.05l.06,4.05c1.74.93,2.69,1.83,2.99,2.11.5.46.66.84.66,1.21,0,.7-.59,1.32-1.21,1.32-.44,0-.53-.09-1.32-.93-.31-.33-.64-.59-1.23-1.04-.02.81-.05,1.5-.35,2.11-.7,1.45-2.66,1.58-3.46,1.58-3.12,0-4.36-1.72-4.36-3.61,0-2.22,1.78-3.61,4.31-3.61.75,0,1.26.11,1.59.18l-.07-3.26c-2.02.05-2.84.07-4.64.07-.38,0-1.23,0-1.23-1.15s.75-1.12,1.48-1.14c2.05-.02,2.29-.02,4.33-.07l-.06-2.03ZM56.84,79.73c-.6,0-2.24.17-2.24,1.67s1.61,1.58,2.05,1.58c.37,0,1.36-.07,1.67-.81.18-.42.17-1.1.13-2.11-.42-.17-.83-.33-1.61-.33Z"/>
      <path class="cls-9" d="M82.44,79c-2.25,0-4.42-1.56-4.42-4.97,0-3.12,1.85-5.19,4.78-5.19,1.69,0,2.97.75,3.65,1.56.64.77,1.56,2.14,1.56,5.85,0,1.58,0,8.19-5.37,8.19-3.13,0-4.38-2.35-4.38-3.35,0-.51.4-1.06,1.25-1.06.93,0,1.1.42,1.32,1.03.09.28.44,1.21,1.81,1.21,2.47,0,2.66-3.12,2.73-4.51-.4.4-1.23,1.25-2.93,1.25ZM80.66,73.96c0,.44,0,2.93,2.31,2.93,1.25,0,2.38-.9,2.38-2.93,0-1.91-.97-2.95-2.42-2.95-1.98,0-2.27,1.94-2.27,2.95Z"/>
      <path class="cls-9" d="M93.86,79.88c-.07.92-.27,3.02-1.43,4.86-.57.9-.83,1.03-1.32,1.03-.77,0-1.43-.6-1.43-1.15,0-.33.15-.59.42-1.03.86-1.36,1.65-3.06,1.65-6.29v-5.99c0-1.8.79-2.29,2.27-2.29h8.3c1.45,0,2.27.48,2.27,2.29v11.97c0,.44,0,1.67-1.03,2.07-.55.22-1.08.22-2.68.22-.64,0-1.63,0-1.91-.09-.64-.22-.73-.86-.73-1.19,0-1.14.79-1.14,1.12-1.14.31,0,1.65.06,1.92.06.5,0,.95-.04.95-.7v-2.62h-8.39ZM102.25,73.46v-1.48c0-.44-.22-.68-.68-.68h-6.84c-.48,0-.68.24-.68.68v1.48h8.19ZM94.06,75.57v2.2h8.19v-2.2h-8.19Z"/>
      <path class="cls-9" d="M111.85,77.33c-.64,0-1.06-.29-1.06-.99,0-1.01.75-1.01,1.34-1.01,1.92,0,2.02-1.72,2.02-2.25,0-1.25-.77-2.07-2-2.07-.46,0-1.81.04-2.11,1.92-.09.51-.18,1.08-1.23,1.08-.66,0-1.23-.31-1.23-1.12,0-1.12.99-4.05,4.62-4.05,2.8,0,4.51,1.78,4.51,4.16,0,2.07-1.26,2.79-1.7,3.04.86.55,2.2,1.39,2.2,3.76s-1.34,4.64-4.93,4.64c-1.69,0-3.22-.48-4.16-1.8-.57-.81-.9-1.76-.9-2.42s.4-1.14,1.25-1.14c1.12,0,1.21.57,1.34,1.39.11.66.83,1.78,2.36,1.78.59,0,2.47-.24,2.47-2.47,0-.7-.11-2.46-2.47-2.46h-.31Z"/>
      <path class="cls-9" d="M128.74,76.63c0,1.14-.09,4.27-1.43,6.1-.77,1.03-2.13,1.7-3.56,1.7-1.52,0-2.86-.75-3.55-1.7-1.34-1.87-1.45-4.93-1.45-6.1,0-1.34.13-4.25,1.45-6.08,1.04-1.47,2.82-1.71,3.55-1.71,4.42,0,4.98,4.82,4.98,7.79ZM121.34,76.63c0,3.17.5,5.63,2.42,5.63s2.42-2.49,2.42-5.63-.49-5.63-2.42-5.63-2.42,2.47-2.42,5.63Z"/>
      <path class="cls-9" d="M145.33,82.75c0,1.87-.79,2.46-2.46,2.46h-9.02c-1.65,0-2.46-.57-2.46-2.46v-11.09c0-1.89.79-2.46,2.46-2.46h9.02c1.65,0,2.46.57,2.46,2.46v11.09ZM142.91,75.99v-3.76c0-.5-.26-.79-.81-.79h-7.5c-.46,0-.79.22-.79.79v3.76h9.09ZM133.82,78.17v4.01c0,.53.29.81.79.81h7.5c.51,0,.81-.27.81-.81v-4.01h-9.09Z"/>
      <path class="cls-9" d="M155.3,69.69c1.08-1.23,1.54-1.38,1.91-1.38.51,0,.95.38.95.9,0,.37-.13.51-.6,1.01-.48.51-1.06,1.23-1.54,2.16-.7,1.39-1.04,3.08-1.04,4.69,0,4.12,1.89,6.12,2.86,7.15.2.22.33.42.33.71,0,.51-.44.9-.95.9-.38,0-.84-.17-1.92-1.39-1.52-1.76-2.73-4.38-2.73-7.37s1.14-5.53,2.75-7.38Z"/>
      <path class="cls-9" d="M163.94,79.88c-.07.92-.27,3.02-1.43,4.86-.57.9-.83,1.03-1.32,1.03-.77,0-1.43-.6-1.43-1.15,0-.33.15-.59.42-1.03.86-1.36,1.65-3.06,1.65-6.29v-5.99c0-1.8.79-2.29,2.27-2.29h8.3c1.45,0,2.27.48,2.27,2.29v11.97c0,.44,0,1.67-1.03,2.07-.55.22-1.08.22-2.68.22-.64,0-1.63,0-1.91-.09-.64-.22-.73-.86-.73-1.19,0-1.14.79-1.14,1.12-1.14.31,0,1.65.06,1.92.06.5,0,.95-.04.95-.7v-2.62h-8.39ZM172.34,73.46v-1.48c0-.44-.22-.68-.68-.68h-6.84c-.48,0-.68.24-.68.68v1.48h8.19ZM164.15,75.57v2.2h8.19v-2.2h-8.19Z"/>
      <path class="cls-9" d="M180.12,84.46c-1.06,1.23-1.54,1.37-1.91,1.37-.49,0-.95-.37-.95-.9,0-.37.13-.5.6-1.01.64-.68,2.58-2.75,2.58-6.85s-1.94-6.18-2.58-6.85c-.48-.51-.6-.64-.6-1.01,0-.53.46-.9.95-.9.39,0,.86.17,1.92,1.39,1.52,1.74,2.73,4.36,2.73,7.37s-1.15,5.55-2.75,7.39Z"/>
      <path class="cls-9" d="M204.62,74.62c.68-.02,3.7-.09,4.33-.11.22-.02.38-.02.46-.02.35,0,1.08.05,1.08,1.04s-.66,1.01-1.58,1.03c-.68.02-3.65.11-4.25.13l.04,2.14c2.24.73,4.36,2.25,5.22,2.95.75.6.75,1.01.75,1.19,0,.71-.59,1.37-1.23,1.37-.48,0-.75-.22-1.3-.73-.49-.46-1.36-1.1-2.24-1.67-.5-.31-.86-.51-1.19-.68-.09,1.81-.5,3.79-4.1,3.79-2.99,0-5.17-1.19-5.17-3.43,0-1.94,1.76-3.46,5.09-3.46.83,0,1.39.09,1.74.13l-.04-1.58c-1.41.02-3.65.05-5.06.05-1.08,0-1.78,0-1.78-1.04,0-.82.55-1.03,1.1-1.03,1.59,0,4.12-.04,5.7-.04l-.04-1.67c-1.43.02-3.7.05-5.13.05-1.1,0-1.8,0-1.8-1.06s.84-1.03,1.28-1.03h.99c.73,0,3.96-.04,4.62-.04l-.02-1.04c-.02-.88.62-1.08,1.21-1.08.7,0,1.19.24,1.21,1.08l.02.99c.71-.02,3.88-.09,4.54-.13.22,0,.4-.02.46-.02.28,0,1.1.02,1.1,1.04s-.68,1.04-1.52,1.06c-2.03.07-2.27.06-4.54.13l.04,1.65ZM200.43,80.06c-.79,0-2.71.15-2.71,1.52,0,.99,1.21,1.43,2.58,1.43s1.83-.42,1.94-1.15c.05-.33.05-.53.05-1.5-.35-.11-.9-.29-1.87-.29Z"/>
      <path class="cls-9" d="M214.9,72.68c-.22.02-1.19.11-1.39.11-1.06,0-1.21-.75-1.21-1.26,0-.79.31-1.17,1.19-1.26.95-.09,11.2-.44,13.16-.44,1.04,0,1.89,0,1.89,1.17s-.84,1.23-1.85,1.23c-1.47.02-2.58.31-4.43,1.45-1.26.77-3.68,2.75-3.68,5.44,0,2.51,2.13,3.21,5.52,3.21,1.47,0,1.63-.02,1.91.05.61.15.79.59.79,1.08,0,1.41-1.1,1.41-2.22,1.41-2.6,0-4.64-.53-5.88-1.1-1.83-.84-2.62-2.68-2.62-4.44,0-1.34.33-3.08,2.35-5.11,1.04-1.04,1.78-1.48,2.57-1.94-2.02.13-4.05.26-6.07.4ZM223.83,74.89c-.05-.11-.09-.24-.09-.35,0-.35.4-.55.66-.55.29,0,.44.15.84.83.22.37.68,1.28.68,1.58,0,.46-.48.59-.7.59s-.38-.18-.5-.38c-.13-.24-.29-.6-.42-.84-.07-.13-.4-.73-.48-.86ZM225.79,74.03c-.07-.15-.09-.26-.09-.37,0-.33.38-.53.64-.53.33,0,.46.22.81.79.13.2.71,1.16.71,1.59,0,.38-.38.57-.68.57-.24,0-.42-.2-.48-.29-.07-.15-.38-.79-.44-.9-.07-.15-.42-.73-.48-.86Z"/>
      <path class="cls-9" d="M234.22,82.9c0,.84-.7,1.54-1.54,1.54s-1.54-.7-1.54-1.54.7-1.54,1.54-1.54,1.54.68,1.54,1.54ZM233.48,79.02c-.06.51-.22.92-.79.92s-.77-.29-.83-.9l-.51-5.08v-3.87c0-.64.27-1.25,1.3-1.25.93,0,1.34.46,1.34,1.25v3.87l-.51,5.06Z"/>
    </g>
  </g>
  <g>
    <polyline class="cls-3" points="110.78 30.3 116.47 38.84 110.78 47.38"/>
    <polyline class="cls-2" points="97.54 27.96 104.79 38.84 97.54 49.72"/>
    <g>
      <path class="cls-7" d="M15.08,42.66c0,1.22-.42,5.65-6.14,5.64-1.98,0-3.72-.44-4.94-1.96-.79-.99-1.2-2.24-1.2-3.2,0-.92.54-1.85,2.22-1.84.43,0,2.06.05,2.25,1.36.13.77.23,1.65,1.56,1.66.82,0,1.57-.47,1.57-1.78,0-.56,0-2.02-1.63-2.02-.58,0-1.8,0-1.8-1.83,0-1.85,1.12-1.85,1.79-1.84.88,0,1.14-.73,1.14-1.74,0-.95-.45-1.48-1.09-1.48-.79,0-1.16.28-1.31,1.26-.07.52-.22,1.59-2.13,1.59-.97,0-2.23-.33-2.23-1.79,0-1.5,1.21-5.07,5.66-5.06,3.52,0,5.73,2.16,5.73,5.25,0,1.33-.5,2.6-1.6,3.39,2.04,1.57,2.14,3.61,2.14,4.41Z"/>
      <path class="cls-7" d="M18.04,32.65c.24-2.3,1.36-2.55,2.82-2.55h5.5c.92.01,2.02.34,2.02,2.04,0,1.65-1.08,1.97-2.02,1.97h-4.25c-.28,0-.49.16-.52.46l-.18,1.76c.43-.26.95-.56,2.17-.55,2.77,0,5.43,2.1,5.42,5.92-.01,4.81-3.24,6.63-6.24,6.62-4.55,0-6.03-3.45-6.03-4.63,0-1.35,1.12-1.78,2.13-1.78,1.8,0,2.15.89,2.38,1.53.17.45.62.88,1.37.88,1.44,0,1.72-1.2,1.72-2.38,0-1.25-.53-2.17-1.71-2.17-.34,0-.86.04-1.31.41-.56.45-.97.77-1.94.77-.52,0-2.21-.07-2.02-1.85l.68-6.44Z"/>
      <path class="cls-7" d="M42.93,39.02c0,3.05-.64,9.34-6.16,9.33-5.54-.01-6.11-6.37-6.1-9.36,0-3.07.62-9.34,6.14-9.33,5.5.01,6.11,6.26,6.12,9.36ZM35.3,39c0,1.57.1,5.35,1.47,5.35s1.49-3.76,1.49-5.35c0-1.57-.1-5.35-1.47-5.35s-1.49,3.78-1.49,5.35Z"/>
      <path class="cls-7" d="M56.85,39.05c0,3.05-.64,9.34-6.16,9.33-5.54-.01-6.11-6.37-6.1-9.36,0-3.07.62-9.34,6.14-9.33,5.5.01,6.11,6.27,6.12,9.36ZM49.22,39.03c0,1.57.1,5.35,1.47,5.35s1.49-3.76,1.49-5.35c0-1.57-.1-5.35-1.47-5.35s-1.49,3.78-1.49,5.35Z"/>
      <path class="cls-7" d="M63.13,42.57v5.59c-.01.75-.19,1.98-1.91,1.97-1.61,0-2.23-.56-2.23-1.98l.03-15.38c0-1.68.82-2.81,2.82-2.81l12.93.03c1.87,0,3.03.67,3.02,3.04l-.03,14.07c0,3.05-1.92,3.05-4.22,3.04-2.21,0-3.76,0-3.76-2.11,0-1.31.71-2.15,2.05-2.14.21,0,1.18.04,1.38.05.47-.02.47-.17.47-.54v-2.79s-10.56-.02-10.56-.02ZM66.38,38.68v-4.75s-2.83,0-2.83,0c-.28,0-.41.21-.41.41v4.34s3.23,0,3.23,0ZM70.38,38.69h3.33s0-4.33,0-4.33c0-.19-.13-.41-.41-.41h-2.92s0,4.74,0,4.74Z"/>
      <path class="cls-7" d="M85.87,45.88c0,1.42-1.17,2.58-2.58,2.57-1.42,0-2.58-1.17-2.57-2.58,0-1.44,1.19-2.58,2.58-2.57,1.42,0,2.58,1.14,2.57,2.58ZM80.92,31.84c0-.56.05-2.08,2.37-2.08,1.57,0,2.45.56,2.44,2.09v3.59s-.86,5.54-.86,5.54c-.11.73-.28,1.57-1.53,1.57-1.25,0-1.48-.65-1.61-1.57l-.83-5.54v-3.59Z"/>
    </g>
    <rect class="cls-9" x="216.05" y="2.11" width="32.57" height="44.23" rx="7.93" ry="7.93" transform="translate(65.38 -139.15) rotate(38.43)"/>
    <g>
      <path class="cls-9" d="M14.98,41.04c0,1.22-.42,5.65-6.14,5.64-1.98,0-3.72-.44-4.94-1.97-.79-.99-1.2-2.24-1.2-3.2,0-.92.54-1.85,2.22-1.84.43,0,2.06.05,2.25,1.36.13.77.23,1.66,1.56,1.66.82,0,1.57-.47,1.57-1.78,0-.56,0-2.02-1.63-2.02-.58,0-1.8,0-1.8-1.83,0-1.85,1.12-1.85,1.79-1.84.88,0,1.14-.73,1.14-1.74,0-.95-.45-1.48-1.09-1.48-.79,0-1.16.28-1.31,1.26-.07.52-.22,1.59-2.13,1.58-.97,0-2.23-.33-2.23-1.79,0-1.5,1.21-5.07,5.66-5.06,3.52,0,5.73,2.16,5.73,5.25,0,1.33-.5,2.6-1.6,3.39,2.04,1.57,2.14,3.61,2.14,4.41Z"/>
      <path class="cls-9" d="M17.95,31.04c.24-2.3,1.36-2.55,2.82-2.55h5.5c.92.01,2.02.34,2.02,2.04,0,1.65-1.08,1.97-2.02,1.97h-4.25c-.28,0-.49.16-.52.46l-.18,1.76c.43-.26.95-.56,2.17-.55,2.77,0,5.43,2.1,5.42,5.92-.01,4.81-3.24,6.63-6.24,6.62-4.55,0-6.03-3.45-6.03-4.63,0-1.35,1.12-1.78,2.13-1.78,1.8,0,2.15.88,2.38,1.53.17.45.62.88,1.37.88,1.44,0,1.72-1.2,1.72-2.38,0-1.25-.53-2.17-1.71-2.17-.34,0-.86.04-1.31.41-.56.45-.97.77-1.94.77-.52,0-2.21-.07-2.02-1.85l.68-6.44Z"/>
      <path class="cls-9" d="M42.83,37.4c0,3.05-.64,9.34-6.16,9.33-5.54-.01-6.11-6.37-6.1-9.36,0-3.07.62-9.34,6.14-9.33,5.5.01,6.11,6.26,6.12,9.36ZM35.2,37.39c0,1.57.1,5.35,1.47,5.35s1.49-3.76,1.49-5.35c0-1.57-.1-5.35-1.47-5.35s-1.49,3.78-1.49,5.35Z"/>
      <path class="cls-9" d="M56.75,37.44c0,3.05-.64,9.34-6.16,9.33-5.54-.01-6.11-6.37-6.1-9.36,0-3.07.62-9.34,6.14-9.33,5.5.01,6.11,6.27,6.12,9.36ZM49.12,37.42c0,1.57.1,5.35,1.47,5.35s1.49-3.76,1.49-5.35c0-1.57-.1-5.35-1.47-5.35s-1.49,3.78-1.49,5.35Z"/>
      <path class="cls-9" d="M63.04,40.95v5.59c-.01.75-.19,1.98-1.91,1.97-1.61,0-2.23-.56-2.23-1.98l.03-15.38c0-1.68.82-2.81,2.82-2.81l12.93.03c1.87,0,3.03.67,3.02,3.04l-.03,14.07c0,3.05-1.92,3.05-4.22,3.04-2.21,0-3.76,0-3.76-2.11,0-1.31.71-2.15,2.05-2.14.21,0,1.18.05,1.38.05.47-.02.47-.17.47-.54v-2.79s-10.56-.02-10.56-.02ZM66.29,37.07v-4.75s-2.83,0-2.83,0c-.28,0-.41.21-.41.41v4.34s3.23,0,3.23,0ZM70.28,37.08h3.33s0-4.33,0-4.33c0-.19-.13-.41-.41-.41h-2.92s-.01,4.74-.01,4.74Z"/>
      <path class="cls-9" d="M85.78,44.26c0,1.42-1.17,2.58-2.58,2.57s-2.58-1.17-2.57-2.58c0-1.44,1.19-2.58,2.58-2.57,1.42,0,2.58,1.14,2.57,2.58ZM80.82,30.22c0-.56.05-2.08,2.37-2.08,1.57,0,2.45.56,2.44,2.09v3.59s-.86,5.54-.86,5.54c-.11.73-.28,1.57-1.53,1.56-1.25,0-1.48-.65-1.61-1.57l-.83-5.54v-3.59Z"/>
    </g>
    <rect class="cls-9" x="123.56" y="16.89" width="116.06" height="39.1" rx="9.5" ry="9.5"/>
    <g>
      <g>
        <path class="cls-1" d="M146.51,40.63c0,1.46-.5,6.71-7.29,6.7-2.35,0-4.42-.52-5.87-2.33-.94-1.18-1.42-2.66-1.42-3.81,0-1.1.64-2.19,2.63-2.19.51,0,2.45.06,2.68,1.61.15.92.28,1.97,1.86,1.97.97,0,1.86-.56,1.87-2.12,0-.66,0-2.4-1.94-2.4-.69,0-2.14,0-2.14-2.17,0-2.2,1.33-2.19,2.12-2.19,1.05,0,1.35-.87,1.36-2.06,0-1.12-.53-1.76-1.3-1.76-.94,0-1.38.33-1.56,1.5-.08.61-.26,1.89-2.53,1.88-1.15,0-2.65-.39-2.65-2.12,0-1.79,1.44-6.02,6.73-6.01,4.19,0,6.81,2.57,6.8,6.24,0,1.58-.59,3.09-1.9,4.03,2.42,1.87,2.54,4.29,2.54,5.24Z"/>
        <path class="cls-1" d="M163.05,36.27c0,3.62-.76,11.1-7.33,11.09-6.59-.01-7.26-7.57-7.25-11.12,0-3.65.74-11.1,7.3-11.09,6.54.01,7.26,7.44,7.28,11.12ZM153.99,36.25c0,1.86.11,6.36,1.75,6.36,1.63,0,1.77-4.46,1.78-6.35,0-1.86-.11-6.36-1.75-6.36-1.63,0-1.77,4.49-1.77,6.35Z"/>
        <path class="cls-1" d="M179.59,36.31c0,3.62-.76,11.1-7.33,11.09-6.59-.01-7.26-7.57-7.25-11.12,0-3.65.74-11.1,7.3-11.09,6.54.01,7.26,7.44,7.28,11.12ZM170.53,36.29c0,1.86.11,6.36,1.75,6.36,1.63,0,1.77-4.46,1.78-6.35,0-1.86-.11-6.36-1.75-6.36-1.63,0-1.77,4.49-1.77,6.35Z"/>
        <path class="cls-1" d="M196.13,36.34c0,3.62-.76,11.1-7.32,11.09-6.59-.01-7.26-7.57-7.25-11.12,0-3.65.74-11.1,7.3-11.09,6.54.01,7.26,7.44,7.28,11.12ZM187.07,36.32c0,1.86.11,6.36,1.75,6.36,1.63,0,1.77-4.46,1.77-6.35,0-1.86-.11-6.36-1.75-6.36-1.63,0-1.77,4.49-1.77,6.35Z"/>
        <path class="cls-1" d="M203.6,40.52v6.64c-.02.89-.22,2.35-2.27,2.34-1.91,0-2.65-.67-2.65-2.35l.04-18.28c0-1.99.98-3.34,3.35-3.34l15.37.03c2.22,0,3.6.8,3.59,3.61l-.04,16.72c0,3.62-2.28,3.62-5.01,3.61-2.63,0-4.47,0-4.46-2.51,0-1.56.85-2.55,2.43-2.55.25,0,1.4.06,1.63.06.56-.03.56-.2.56-.64v-3.32s-12.55-.03-12.55-.03ZM207.46,35.9v-5.64s-3.36,0-3.36,0c-.33,0-.49.25-.49.48v5.16s3.84,0,3.84,0ZM212.21,35.92h3.96s.01-5.15.01-5.15c0-.23-.15-.49-.48-.49h-3.47s-.01,5.63-.01,5.63Z"/>
        <path class="cls-1" d="M230.62,44.46c0,1.69-1.38,3.06-3.07,3.06-1.68,0-3.06-1.38-3.06-3.07,0-1.71,1.41-3.06,3.07-3.06,1.69,0,3.06,1.36,3.06,3.07ZM224.73,27.77c0-.66.06-2.48,2.81-2.47,1.86,0,2.91.67,2.91,2.48v4.26s-1.02,6.58-1.02,6.58c-.13.87-.34,1.86-1.82,1.86-1.48,0-1.76-.77-1.91-1.87l-.98-6.59v-4.26Z"/>
      </g>
      <g>
        <path class="cls-9" d="M146.4,39.63c0,1.46-.5,6.71-7.29,6.7-2.35,0-4.42-.52-5.87-2.34-.94-1.18-1.42-2.66-1.42-3.81,0-1.1.64-2.19,2.63-2.19.51,0,2.45.06,2.68,1.61.15.92.28,1.97,1.86,1.97.97,0,1.86-.56,1.87-2.12,0-.66,0-2.4-1.94-2.4-.69,0-2.14,0-2.14-2.17,0-2.2,1.33-2.19,2.12-2.19,1.05,0,1.35-.87,1.36-2.06,0-1.12-.53-1.76-1.3-1.76-.94,0-1.38.33-1.56,1.5-.08.61-.26,1.89-2.53,1.88-1.15,0-2.65-.39-2.65-2.12,0-1.79,1.44-6.02,6.73-6.01,4.19,0,6.81,2.57,6.8,6.24,0,1.58-.59,3.09-1.9,4.03,2.42,1.87,2.54,4.29,2.54,5.24Z"/>
        <path class="cls-9" d="M162.94,35.28c0,3.62-.76,11.1-7.33,11.09-6.59-.01-7.26-7.57-7.25-11.12,0-3.65.74-11.1,7.3-11.09,6.54.01,7.26,7.44,7.28,11.12ZM153.88,35.26c0,1.86.11,6.36,1.75,6.36,1.63,0,1.77-4.46,1.78-6.35,0-1.86-.11-6.36-1.75-6.36-1.63,0-1.77,4.49-1.77,6.35Z"/>
        <path class="cls-9" d="M179.48,35.31c0,3.62-.76,11.1-7.33,11.09-6.59-.01-7.26-7.57-7.25-11.12,0-3.65.74-11.1,7.3-11.09,6.54.01,7.26,7.44,7.28,11.12ZM170.42,35.29c0,1.86.11,6.36,1.75,6.36,1.63,0,1.77-4.46,1.78-6.35,0-1.86-.11-6.36-1.75-6.36-1.63,0-1.77,4.49-1.77,6.35Z"/>
        <path class="cls-9" d="M196.02,35.35c0,3.62-.76,11.1-7.32,11.09-6.59-.01-7.26-7.57-7.25-11.12,0-3.65.74-11.1,7.3-11.09,6.54.01,7.26,7.44,7.28,11.12ZM186.96,35.33c0,1.86.11,6.36,1.75,6.36,1.63,0,1.77-4.46,1.77-6.35,0-1.86-.11-6.36-1.75-6.36-1.63,0-1.77,4.49-1.77,6.35Z"/>
        <path class="cls-9" d="M203.49,39.52v6.64c-.02.89-.22,2.35-2.27,2.34-1.91,0-2.65-.67-2.65-2.35l.04-18.28c0-1.99.98-3.34,3.35-3.34l15.37.03c2.22,0,3.6.8,3.59,3.61l-.04,16.72c0,3.62-2.28,3.62-5.01,3.61-2.63,0-4.47,0-4.46-2.51,0-1.56.85-2.55,2.43-2.55.25,0,1.4.05,1.63.06.56-.03.56-.2.56-.64v-3.32s-12.55-.03-12.55-.03ZM207.35,34.91v-5.64s-3.36,0-3.36,0c-.33,0-.49.25-.49.48v5.16s3.84,0,3.84,0ZM212.1,34.92h3.96s.01-5.15.01-5.15c0-.23-.15-.49-.48-.49h-3.47s-.01,5.63-.01,5.63Z"/>
        <path class="cls-9" d="M230.5,43.46c0,1.69-1.38,3.06-3.07,3.06-1.68,0-3.06-1.38-3.06-3.07,0-1.71,1.41-3.06,3.07-3.06,1.69,0,3.06,1.36,3.06,3.07ZM224.62,26.78c0-.66.06-2.48,2.81-2.47,1.86,0,2.91.67,2.91,2.48v4.26s-1.02,6.58-1.02,6.58c-.13.87-.34,1.86-1.82,1.86-1.48,0-1.76-.77-1.91-1.87l-.98-6.59v-4.26Z"/>
      </g>
    </g>
    <g>
      <path class="cls-9" d="M12.4,23.53c.58,0,.65.39.65.62,0,.08,0,.66-.65.66h-4.7c-1.88,0-2.44-.9-2.61-1.18-.18.28-.3.42-.64.77-.37.38-.51.51-.76.51-.41,0-.73-.4-.73-.79,0-.31.07-.37.59-.78.22-.18.57-.51.73-.69v-2.07c0-.06,0-.31-.24-.31h-.43c-.44,0-.62-.25-.62-.6,0-.47.18-.68.66-.68h.73c.98,0,1.19.21,1.19,1.19v1.97c.07.48.29,1.38,2.12,1.38h4.71ZM3.84,15.17c.2,0,.43.05,1.38.89.64.56.71.69.71.92,0,.37-.33.74-.68.74-.26,0-.41-.13-.68-.39-.29-.3-.82-.72-1.12-1.01-.14-.12-.28-.24-.28-.49,0-.32.32-.67.67-.67ZM8.13,17.53c-.18-.14-.37-.29-.55-.42-.14-.11-.19-.17-.19-.33,0-.14.08-.24.2-.34h-.95c-.25,0-.56-.05-.56-.53,0-.53.41-.53.56-.53h4.71c.34,0,.91,0,.91.63,0,.5-.18.77-1.71,1.53h.91c.95,0,1.19.2,1.19,1.16v3.34c0,1.07-.32,1.17-1.33,1.17-.55,0-.92,0-.92-.57,0-.19.06-.4.28-.46.03-.01.4-.01.46-.01.11,0,.27,0,.27-.3v-.42h-1.39v1.17c0,.47-.23.59-.66.59-.54,0-.58-.38-.58-.59v-1.17h-1.36v1.18c0,.46-.23.6-.62.6-.61,0-.63-.47-.63-.62v-3.9c0-1.01.28-1.16,1.22-1.16h.74ZM8.77,19.07v-.58h-1.11c-.18,0-.24.1-.24.25v.33h1.36ZM8.77,19.96h-1.36v.58h1.36v-.58ZM8.45,16.44c.33.2.9.66.96.71.29-.15.47-.24.84-.48.04-.02.16-.11.16-.17,0-.05-.08-.06-.14-.06h-1.82ZM10.01,19.07h1.39v-.33c0-.17-.08-.25-.25-.25h-1.13v.58ZM11.4,19.96h-1.39v.58h1.39v-.58Z"/>
      <path class="cls-9" d="M22.18,16.33c1.01,0,1.22.28,1.22,1.33v.85c0,.38-.15.62-.63.62-.42,0-.69-.12-.69-.62v-.74c0-.19-.07-.32-.32-.32h-6.31c-.23,0-.32.12-.32.32v.74c0,.37-.16.62-.63.62-.41,0-.68-.13-.68-.62v-.85c0-1.09.22-1.33,1.26-1.33h.52c-.07-.14-.14-.25-.29-.47-.06-.08-.12-.17-.12-.32,0-.32.39-.49.73-.49s.42.13.65.49c.17.29.34.57.44.79h.93v-.74c0-.33.13-.59.61-.59.44,0,.69.12.69.59v.74h.98c.19-.29.25-.38.48-.81.18-.35.25-.49.64-.49.25,0,.7.11.7.49,0,.15-.06.25-.2.49-.03.04-.18.26-.2.32h.53ZM16.28,20.62c-.83,0-1.02-.19-1.02-1.08v-.5c0-.87.17-1.08,1.02-1.08h4.68c.84,0,1.02.2,1.02,1.08v.5c0,.88-.19,1.08-1.02,1.08h-1.69v.46h2.47c.72,0,1.16.22,1.16,1.15v1.29c0,1.16-.64,1.16-1.68,1.16-.76,0-.83-.03-.92-.08-.21-.11-.28-.35-.28-.55,0-.56.38-.56.64-.56.12,0,.65.02.73.01.16-.03.18-.18.18-.29v-.67c0-.2-.12-.3-.31-.3h-1.99v2.22c0,.16,0,.66-.64.66-.56,0-.7-.26-.7-.66v-2.22h-1.96c-.19,0-.3.1-.3.3v1.53c0,.16,0,.66-.64.66-.57,0-.7-.28-.7-.66v-1.81c0-.87.37-1.14,1.15-1.14h2.45v-.48h-1.65ZM20.73,19.1c0-.15-.08-.2-.21-.2h-3.8c-.15,0-.21.07-.21.2v.38c0,.13.06.2.21.2h3.8c.13,0,.21-.05.21-.2v-.38Z"/>
    </g>
    <g>
      <path class="cls-6" d="M12.4,23.53c.58,0,.65.39.65.62,0,.08,0,.66-.65.66h-4.7c-1.88,0-2.44-.9-2.61-1.18-.18.28-.3.42-.64.77-.37.38-.51.51-.76.51-.41,0-.73-.4-.73-.79,0-.31.07-.37.59-.78.22-.18.57-.51.73-.69v-2.07c0-.06,0-.31-.24-.31h-.43c-.44,0-.62-.25-.62-.6,0-.47.18-.68.66-.68h.73c.98,0,1.19.21,1.19,1.19v1.97c.07.48.29,1.38,2.12,1.38h4.71ZM3.84,15.17c.2,0,.43.05,1.38.89.64.56.71.69.71.92,0,.37-.33.74-.68.74-.26,0-.41-.13-.68-.39-.29-.3-.82-.72-1.12-1.01-.14-.12-.28-.24-.28-.49,0-.32.32-.67.67-.67ZM8.13,17.53c-.18-.14-.37-.29-.55-.42-.14-.11-.19-.17-.19-.33,0-.14.08-.24.2-.34h-.95c-.25,0-.56-.05-.56-.53,0-.53.41-.53.56-.53h4.71c.34,0,.91,0,.91.63,0,.5-.18.77-1.71,1.53h.91c.95,0,1.19.2,1.19,1.16v3.34c0,1.07-.32,1.17-1.33,1.17-.55,0-.92,0-.92-.57,0-.19.06-.4.28-.46.03-.01.4-.01.46-.01.11,0,.27,0,.27-.3v-.42h-1.39v1.17c0,.47-.23.59-.66.59-.54,0-.58-.38-.58-.59v-1.17h-1.36v1.18c0,.46-.23.6-.62.6-.61,0-.63-.47-.63-.62v-3.9c0-1.01.28-1.16,1.22-1.16h.74ZM8.77,19.07v-.58h-1.11c-.18,0-.24.1-.24.25v.33h1.36ZM8.77,19.96h-1.36v.58h1.36v-.58ZM8.45,16.44c.33.2.9.66.96.71.29-.15.47-.24.84-.48.04-.02.16-.11.16-.17,0-.05-.08-.06-.14-.06h-1.82ZM10.01,19.07h1.39v-.33c0-.17-.08-.25-.25-.25h-1.13v.58ZM11.4,19.96h-1.39v.58h1.39v-.58Z"/>
      <path class="cls-6" d="M22.18,16.33c1.01,0,1.22.28,1.22,1.33v.85c0,.38-.15.62-.63.62-.42,0-.69-.12-.69-.62v-.74c0-.19-.07-.32-.32-.32h-6.31c-.23,0-.32.12-.32.32v.74c0,.37-.16.62-.63.62-.41,0-.68-.13-.68-.62v-.85c0-1.09.22-1.33,1.26-1.33h.52c-.07-.14-.14-.25-.29-.47-.06-.08-.12-.17-.12-.32,0-.32.39-.49.73-.49s.42.13.65.49c.17.29.34.57.44.79h.93v-.74c0-.33.13-.59.61-.59.44,0,.69.12.69.59v.74h.98c.19-.29.25-.38.48-.81.18-.35.25-.49.64-.49.25,0,.7.11.7.49,0,.15-.06.25-.2.49-.03.04-.18.26-.2.32h.53ZM16.28,20.62c-.83,0-1.02-.19-1.02-1.08v-.5c0-.87.17-1.08,1.02-1.08h4.68c.84,0,1.02.2,1.02,1.08v.5c0,.88-.19,1.08-1.02,1.08h-1.69v.46h2.47c.72,0,1.16.22,1.16,1.15v1.29c0,1.16-.64,1.16-1.68,1.16-.76,0-.83-.03-.92-.08-.21-.11-.28-.35-.28-.55,0-.56.38-.56.64-.56.12,0,.65.02.73.01.16-.03.18-.18.18-.29v-.67c0-.2-.12-.3-.31-.3h-1.99v2.22c0,.16,0,.66-.64.66-.56,0-.7-.26-.7-.66v-2.22h-1.96c-.19,0-.3.1-.3.3v1.53c0,.16,0,.66-.64.66-.57,0-.7-.28-.7-.66v-1.81c0-.87.37-1.14,1.15-1.14h2.45v-.48h-1.65ZM20.73,19.1c0-.15-.08-.2-.21-.2h-3.8c-.15,0-.21.07-.21.2v.38c0,.13.06.2.21.2h3.8c.13,0,.21-.05.21-.2v-.38Z"/>
    </g>
    <g>
      <path class="cls-9" d="M12.4,23.53c.58,0,.65.39.65.62,0,.08,0,.66-.65.66h-4.7c-1.88,0-2.44-.9-2.61-1.18-.18.28-.3.42-.64.77-.37.38-.51.51-.76.51-.41,0-.73-.4-.73-.79,0-.31.07-.37.59-.78.22-.18.57-.51.73-.69v-2.07c0-.06,0-.31-.24-.31h-.43c-.44,0-.62-.25-.62-.6,0-.47.18-.68.66-.68h.73c.98,0,1.19.21,1.19,1.19v1.97c.07.48.29,1.38,2.12,1.38h4.71ZM3.84,15.17c.2,0,.43.05,1.38.89.64.56.71.69.71.92,0,.37-.33.74-.68.74-.26,0-.41-.13-.68-.39-.29-.3-.82-.72-1.12-1.01-.14-.12-.28-.24-.28-.49,0-.32.32-.67.67-.67ZM8.13,17.53c-.18-.14-.37-.29-.55-.42-.14-.11-.19-.17-.19-.33,0-.14.08-.24.2-.34h-.95c-.25,0-.56-.05-.56-.53,0-.53.41-.53.56-.53h4.71c.34,0,.91,0,.91.63,0,.5-.18.77-1.71,1.53h.91c.95,0,1.19.2,1.19,1.16v3.34c0,1.07-.32,1.17-1.33,1.17-.55,0-.92,0-.92-.57,0-.19.06-.4.28-.46.03-.01.4-.01.46-.01.11,0,.27,0,.27-.3v-.42h-1.39v1.17c0,.47-.23.59-.66.59-.54,0-.58-.38-.58-.59v-1.17h-1.36v1.18c0,.46-.23.6-.62.6-.61,0-.63-.47-.63-.62v-3.9c0-1.01.28-1.16,1.22-1.16h.74ZM8.77,19.07v-.58h-1.11c-.18,0-.24.1-.24.25v.33h1.36ZM8.77,19.96h-1.36v.58h1.36v-.58ZM8.45,16.44c.33.2.9.66.96.71.29-.15.47-.24.84-.48.04-.02.16-.11.16-.17,0-.05-.08-.06-.14-.06h-1.82ZM10.01,19.07h1.39v-.33c0-.17-.08-.25-.25-.25h-1.13v.58ZM11.4,19.96h-1.39v.58h1.39v-.58Z"/>
      <path class="cls-9" d="M22.18,16.33c1.01,0,1.22.28,1.22,1.33v.85c0,.38-.15.62-.63.62-.42,0-.69-.12-.69-.62v-.74c0-.19-.07-.32-.32-.32h-6.31c-.23,0-.32.12-.32.32v.74c0,.37-.16.62-.63.62-.41,0-.68-.13-.68-.62v-.85c0-1.09.22-1.33,1.26-1.33h.52c-.07-.14-.14-.25-.29-.47-.06-.08-.12-.17-.12-.32,0-.32.39-.49.73-.49s.42.13.65.49c.17.29.34.57.44.79h.93v-.74c0-.33.13-.59.61-.59.44,0,.69.12.69.59v.74h.98c.19-.29.25-.38.48-.81.18-.35.25-.49.64-.49.25,0,.7.11.7.49,0,.15-.06.25-.2.49-.03.04-.18.26-.2.32h.53ZM16.28,20.62c-.83,0-1.02-.19-1.02-1.08v-.5c0-.87.17-1.08,1.02-1.08h4.68c.84,0,1.02.2,1.02,1.08v.5c0,.88-.19,1.08-1.02,1.08h-1.69v.46h2.47c.72,0,1.16.22,1.16,1.15v1.29c0,1.16-.64,1.16-1.68,1.16-.76,0-.83-.03-.92-.08-.21-.11-.28-.35-.28-.55,0-.56.38-.56.64-.56.12,0,.65.02.73.01.16-.03.18-.18.18-.29v-.67c0-.2-.12-.3-.31-.3h-1.99v2.22c0,.16,0,.66-.64.66-.56,0-.7-.26-.7-.66v-2.22h-1.96c-.19,0-.3.1-.3.3v1.53c0,.16,0,.66-.64.66-.57,0-.7-.28-.7-.66v-1.81c0-.87.37-1.14,1.15-1.14h2.45v-.48h-1.65ZM20.73,19.1c0-.15-.08-.2-.21-.2h-3.8c-.15,0-.21.07-.21.2v.38c0,.13.06.2.21.2h3.8c.13,0,.21-.05.21-.2v-.38Z"/>
    </g>
    <g>
      <g>
        <path class="cls-5" d="M232.22,14.45l3.96,3.08c.27.21.64.59.2,1.14-.35.45-.68.62-1.23.19l-3.96-3.08-1.52,1.95c-.29.37-.62.61-1.22.14-.56-.43-.61-.76-.22-1.26l1.52-1.95-3.91-3.04c-.25-.19-.65-.57-.2-1.15.35-.45.68-.6,1.23-.17l3.91,3.04.82-1.05-2.19-1.7c-.88-.69-1.08-1.33-.29-2.34l2.13-2.74c.8-1.03,1.48-.96,2.34-.29l5.88,4.57c.85.66,1.1,1.29.29,2.34l-2.13,2.74c-.78,1.01-1.46.97-2.34.29l-2.26-1.75-.82,1.05ZM236.87,12.89l-5.69-4.42-.43.56c-.19.25-.18.49.08.7l4.92,3.82c.27.21.5.15.69-.1l.43-.56ZM237.71,11.81l.4-.51c.19-.24.18-.48-.09-.68l-4.92-3.82c-.27-.21-.5-.15-.68.09l-.4.51,5.69,4.42Z"/>
        <path class="cls-5" d="M241.6,25.7c-.81,1.04-1.21,1.09-2.29.26l-2.64-2.05c-1.08-.84-1.15-1.24-.33-2.29l.57-.74c.81-1.04,1.21-1.09,2.3-.25l2.64,2.05c1.05.82,1.14,1.22.32,2.28l-.57.74ZM240.85,23.95c.12-.16.15-.32-.06-.48l-2.06-1.6c-.2-.16-.36-.12-.49.05l-.5.65c-.14.18-.13.35.06.5l2.06,1.6c.2.16.36.1.49-.07l.5-.65ZM244,18.53l-.44.57,1.54,1.2c.1.08.57.44.21.91s-.81.11-.93.02l-1.54-1.2-.46.59,2.05,1.59c.2.16.54.47.16.96-.32.41-.64.34-.97.08l-5.41-4.2c-.21-.17-.56-.49-.18-.98.29-.37.61-.36.99-.06l2.06,1.6.46-.59-1.56-1.22c-.43-.33-.33-.67-.17-.88.36-.46.81-.11.93-.02l1.53,1.19.44-.57-1.1-.85c-.12-.1-.42-.35-.29-.72-.07-.03-.15-.06-.29-.17-.57-.44-.27-.87-.12-1.06l.44-.57c.85-1.1,1.31-1.15,2.44-.26l1.05.82.24-.31c.16-.2.47-.53,1.04-.08.51.4.62.7.29,1.12l-.24.31,1.02.79c1.12.87,1.21,1.32.35,2.43l-.44.57c-.12.16-.47.6-1.06.14-.1-.08-.14-.13-.2-.19-.35.2-.63-.01-.76-.12l-1.09-.85ZM251.23,19.42c.18-.23.55-.66,1.19-.17.58.45.4.86.14,1.2l-6.71,8.64c-.22.28-.78,1-1.6.72-.34-.12-.71-.39-1.62-1.1-.51-.4-1.12-.87-.5-1.68.54-.69,1.08-.27,1.26-.13.35.27.94.73,1.01.76.25.14.45-.05.6-.24l6.23-8.01ZM243.65,16.31c.11-.15.43-.37.88-.1l-1.45-1.13c-.23-.18-.42-.16-.59.06l-.35.45s.11.07.2.14l1.1.85.22-.28ZM244.98,25.71c-.14.18-.48.61-1.11.12-.58-.45-.39-.83-.17-1.11l4.86-6.26c.13-.17.48-.62,1.12-.13.63.49.32.92.16,1.13l-4.86,6.26ZM245.81,18.44c.08.06.09.07.16.14l.35-.45c.18-.23.14-.42-.08-.59l-1.43-1.11c.15.15.43.5.13.88l-.22.28,1.09.85Z"/>
      </g>
      <g>
        <path class="cls-9" d="M232.22,14.45l3.96,3.08c.27.21.64.59.2,1.14-.35.45-.68.62-1.23.19l-3.96-3.08-1.52,1.95c-.29.37-.62.61-1.22.14-.56-.43-.61-.76-.22-1.26l1.52-1.95-3.91-3.04c-.25-.19-.65-.57-.2-1.15.35-.45.68-.6,1.23-.17l3.91,3.04.82-1.05-2.19-1.7c-.88-.69-1.08-1.33-.29-2.34l2.13-2.74c.8-1.03,1.48-.96,2.34-.29l5.88,4.57c.85.66,1.1,1.29.29,2.34l-2.13,2.74c-.78,1.01-1.46.97-2.34.29l-2.26-1.75-.82,1.05ZM236.87,12.89l-5.69-4.42-.43.56c-.19.25-.18.49.08.7l4.92,3.82c.27.21.5.15.69-.1l.43-.56ZM237.71,11.81l.4-.51c.19-.24.18-.48-.09-.68l-4.92-3.82c-.27-.21-.5-.15-.68.09l-.4.51,5.69,4.42Z"/>
        <path class="cls-9" d="M241.6,25.7c-.81,1.04-1.21,1.09-2.29.26l-2.64-2.05c-1.08-.84-1.15-1.24-.33-2.29l.57-.74c.81-1.04,1.21-1.09,2.3-.25l2.64,2.05c1.05.82,1.14,1.22.32,2.28l-.57.74ZM240.85,23.95c.12-.16.15-.32-.06-.48l-2.06-1.6c-.2-.16-.36-.12-.49.05l-.5.65c-.14.18-.13.35.06.5l2.06,1.6c.2.16.36.1.49-.07l.5-.65ZM244,18.53l-.44.57,1.54,1.2c.1.08.57.44.21.91s-.81.11-.93.02l-1.54-1.2-.46.59,2.05,1.59c.2.16.54.47.16.96-.32.41-.64.34-.97.08l-5.41-4.2c-.21-.17-.56-.49-.18-.98.29-.37.61-.36.99-.06l2.06,1.6.46-.59-1.56-1.22c-.43-.33-.33-.67-.17-.88.36-.46.81-.11.93-.02l1.53,1.19.44-.57-1.1-.85c-.12-.1-.42-.35-.29-.72-.07-.03-.15-.06-.29-.17-.57-.44-.27-.87-.12-1.06l.44-.57c.85-1.1,1.31-1.15,2.44-.26l1.05.82.24-.31c.16-.2.47-.53,1.04-.08.51.4.62.7.29,1.12l-.24.31,1.02.79c1.12.87,1.21,1.32.35,2.43l-.44.57c-.12.16-.47.6-1.06.14-.1-.08-.14-.13-.2-.19-.35.2-.63-.01-.76-.12l-1.09-.85ZM251.23,19.42c.18-.23.55-.66,1.19-.17.58.45.4.86.14,1.2l-6.71,8.64c-.22.28-.78,1-1.6.72-.34-.12-.71-.39-1.62-1.1-.51-.4-1.12-.87-.5-1.68.54-.69,1.08-.27,1.26-.13.35.27.94.73,1.01.76.25.14.45-.05.6-.24l6.23-8.01ZM243.65,16.31c.11-.15.43-.37.88-.1l-1.45-1.13c-.23-.18-.42-.16-.59.06l-.35.45s.11.07.2.14l1.1.85.22-.28ZM244.98,25.71c-.14.18-.48.61-1.11.12-.58-.45-.39-.83-.17-1.11l4.86-6.26c.13-.17.48-.62,1.12-.13.63.49.32.92.16,1.13l-4.86,6.26ZM245.81,18.44c.08.06.09.07.16.14l.35-.45c.18-.23.14-.42-.08-.59l-1.43-1.11c.15.15.43.5.13.88l-.22.28,1.09.85Z"/>
      </g>
    </g>
  </g>
</svg>