<?xml version="1.0" encoding="UTF-8"?>
<svg id="Layer_1" data-name="Layer 1" xmlns="http://www.w3.org/2000/svg" viewBox="0 0 716.87 163.37">
  <defs>
    <style>
      .cls-1 {
        fill: #582b66;
      }

      .cls-1, .cls-2, .cls-3, .cls-4 {
        stroke-width: 0px;
      }

      .cls-2 {
        fill: #8f519a;
      }

      .cls-5 {
        opacity: .5;
      }

      .cls-3 {
        fill: #fff;
      }

      .cls-4 {
        fill: #f08812;
      }
    </style>
  </defs>
  <g class="cls-5">
    <g>
      <path class="cls-1" d="M546.29,72.09s-.01.05-.01.08c-.37,3.68-1.98,6.83-4.66,9.13-.42.36-.85.69-1.3,1,.01-.28.03-.57.06-.85.21-1.97,1.05-4.92,3.88-7.73.62-.61,1.29-1.16,2.03-1.63Z"/>
      <path class="cls-1" d="M546.29,72.09s-.01.05-.01.08c-.37,3.68-1.98,6.83-4.66,9.13-.42.36-.85.69-1.3,1,.01-.28.03-.57.06-.85.21-1.97,1.05-4.92,3.88-7.73.62-.61,1.29-1.16,2.03-1.63Z"/>
      <path class="cls-1" d="M544.5,61.63c-.4.41-.82.79-1.26,1.15,2.3,2.5,3.37,5.75,3.05,9.31-.74.47-1.41,1.02-2.03,1.63-2.83,2.81-3.67,5.76-3.88,7.73-.03.28-.05.57-.06.85-2.15,1.47-4.71,2.36-7.63,2.65-1.32.12-2.7.17-4.17.17-.77,0-1.58-.01-2.42-.04-.15-.01-.3-.01-.45-.02-.39,1.05-.84,2.07-1.35,3.05-1.75,3.38-4.34,6.12-7.67,8.15-3.24,1.97-7.28,3.08-12.02,3.29-.42.02-.77.02-1.1.02-3.88,0-7.22-.8-9.93-2.39-4.15-2.44-6.31-6.53-5.95-11.22.13-1.72.6-3.3,1.37-4.68-2.2-.66-4.14-1.58-5.82-2.78-1.21-.86-2.89-2.4-3.96-4.87-.34.31-.68.59-1.01.83-2.33,1.72-5.31,2.81-8.86,3.24-1.82.21-3.86.32-6.05.32-1.01,0-2.08-.02-3.18-.07-3.11-.13-6.48-.29-10.13-.49-3.85-.2-7.34-.4-10.47-.6-3.55-.22-6.53-.63-9.12-1.24-1.67-.39-3.18-.93-4.54-1.62.63,1.96.9,4.09.83,6.37-.09,3.37-1.26,6.53-3.36,9.12-2.38,2.99-6.06,4.65-10.32,4.65h-.49c-4.76-.15-8.99-1.81-12.59-4.95-3.06-2.66-5.65-6.17-7.7-10.42-.68-1.39-1.3-2.85-1.85-4.37-.55,1.4-1.15,2.74-1.8,4.03-2.09,4.16-4.74,7.61-7.87,10.22-3.67,3.07-7.94,4.63-12.69,4.63h-.07c-3.73-.02-7.09-1.47-9.74-4.19-2.63-2.72-3.99-6.12-3.99-9.87v-.13c-1.53,1.68-3.25,3.26-5.13,4.72-3.3,2.55-7.28,4.61-11.82,6.12-4.43,1.48-9.61,2.29-15.38,2.41h-.59c-4.74,0-8.73-1.21-11.86-3.6-3.7-2.83-5.72-6.67-5.83-11.11-.1-3.57.84-6.82,2.78-9.63,2.14-3.09,5.73-5.2,10.68-6.25.18-.04.36-.08.54-.12h-.86c-5.5,0-9.77-.76-13.04-2.33-1.15-.55-2.19-1.21-3.1-1.99-.49,3.44-1.85,6.7-4.05,9.74-1.59,2.19-3.44,4.25-5.52,6.13.16,1.29.25,2.52.3,3.69.1,2.38-.12,4.69-.65,6.86-.65,2.69-1.83,5-3.51,6.86-2.17,2.43-5.11,3.8-8.49,3.95-.26.01-.51.02-.75.02-4.47,0-7.31-1.82-8.9-3.35-1.1-1.05-2.36-2.67-3.14-4.99-1.36.3-2.59.48-3.72.54-.32.02-.64.03-.94.03-4.32,0-7.18-1.66-8.81-3.04-1.72-1.46-2.97-3.2-3.67-5.15-1.17,2.54-2.62,4.93-4.32,7.13-2.74,3.52-6.08,6.42-9.94,8.62-3.97,2.27-8.42,3.6-13.21,3.96-.49.04-.96.05-1.41.05-3.16,0-5.92-.83-8.2-2.47-2.93-2.11-4.71-5.32-5-9.05-.07-.96-.03-1.91.13-2.85-1.02.48-2.14.87-3.35,1.14-1.23.28-2.47.43-3.67.43-4.23,0-8.05-1.74-11.03-5.03-.15-.16-.29-.33-.43-.5,0,.04-.01.07-.01.11-.4,4.46-1.72,8.43-3.91,11.81-2.29,3.56-5.73,6.41-10.22,8.48-3.96,1.83-9,3.06-15.39,3.75-3.06.33-5.9.5-8.44.5-3.08,0-5.76-.24-8.2-.72-4.85-.96-8.86-2.84-11.91-5.59-.31,1.56-.88,3.06-1.69,4.47-2,3.48-5.54,5.71-9.97,6.29-.89.12-1.79.18-2.67.18-3.72,0-7.27-1.03-10.54-3.07-3.45-2.15-6.57-5.2-9.27-9.08-.9-1.29-1.75-2.65-2.54-4.06-.33,1.47-.72,2.91-1.16,4.29-1.43,4.47-3.52,8.29-6.2,11.35-3.17,3.62-7.18,5.83-11.89,6.56-.71.11-1.42.16-2.13.16-2.91,0-5.74-.96-8.18-2.79-2.99-2.24-4.88-5.39-5.47-9.09-.41-2.58-.34-5,.21-7.2.37-1.5.85-3.07,1.47-4.79.43-1.22.87-2.72,1.3-4.46.38-1.51.62-3.57.73-6.11.11-2.65-.08-6.04-.56-10.07-.62-5.07.21-9.58,2.49-13.34,2.55-4.23,6.61-6.87,11.75-7.63.82-.12,1.64-.18,2.43-.18,2.56,0,4.89.63,6.94,1.88.98.61,1.89,1.32,2.7,2.14.61-1.11,1.34-2.14,2.2-3.07,2.16-2.34,5.12-3.78,8.78-4.28.88-.12,1.76-.18,2.6-.18,4.37,0,8.22,1.61,11.14,4.64,2.91,3.04,4.79,7.07,5.58,11.99.63,3.76,1.35,6.91,2.14,9.34-.27-3.18-.3-6.23-.1-9.08.31-4.3,1.52-8.28,3.58-11.82,2.22-3.79,5.66-6.91,10.24-9.27,4.21-2.17,9.53-3.58,16.25-4.31,2.63-.29,5.11-.43,7.4-.43,3.62,0,6.89.36,9.72,1.08,5.07,1.29,9.18,3.57,12.22,6.77,1.94,2.05,3.53,4.37,4.74,6.96.04-.11.08-.23.13-.34,1.77-4.21,5.07-7.45,9.54-9.35,2.19-.93,4.72-1.69,7.68-2.29.77-2.59,2.31-4.88,4.46-6.65,2.28-1.85,5.32-2.93,9.05-3.21.63-.05,1.25-.07,1.84-.07,2.98,0,5.57.62,7.69,1.84,2.47,1.43,4.37,3.49,5.53,5.98,2.92.17,5.46.55,7.69,1.17,4.62,1.28,8.28,4.02,10.59,7.95,1.96,3.33,3.08,7.71,3.43,13.4.09,1.56.1,3.1,0,4.63,1.62-1.58,3.7-2.82,6.21-3.71l.14-.05c2.86-.94,5.13-2.1,6.75-3.45,1.86-1.54,3.39-3.13,4.54-4.72,1.45-2.01,2.76-3.92,3.89-5.67,1.45-2.29,3.26-4.1,5.35-5.34,2.16-1.29,4.76-2,7.72-2.11.19-.01.37-.01.56-.01,3.22,0,6.24,1.1,8.75,3.2.75-3.7,2.96-6.91,6.42-9.23,3.64-2.44,8.56-3.69,15.04-3.83.42-.01.84-.02,1.25-.02,6.11,0,10.77,1.06,14.22,3.23,1.97,1.23,3.55,2.76,4.71,4.51.17-.26.35-.51.53-.75,1.86-2.53,5.52-5.55,12.37-5.58,4.86,0,8.95,2.09,11.59,5.9.61.88,1.13,1.81,1.55,2.82.76-2.12,1.85-4.02,3.25-5.69,3.14-3.73,7.5-5.7,12.59-5.7h.2c4.44.06,7.33,1.75,8.98,3.16.87.76,1.65,1.6,2.31,2.53.76-1,1.64-1.89,2.63-2.67,1.98-1.57,4.38-2.51,7.15-2.79.28-.51.58-1,.92-1.49,1.78-2.58,4.11-4.67,6.93-6.18,2.74-1.47,5.73-2.22,8.88-2.22.19,0,.39,0,.59.01,3.34.1,6.47,1.02,9.3,2.75,2.72,1.67,4.92,3.89,6.56,6.58,1.78,2.97,2.61,6.17,2.49,9.55-.13,3.42-1.17,6.57-3.12,9.36-.02.03-.04.05-.06.08,1.62-.16,3.38-.24,5.27-.24.75,0,1.54.01,2.34.04,3.29.1,6.87.26,10.64.46,3.61.19,7.06.41,10.27.65,3.49.26,6.6.72,9.25,1.38,3.48.87,6.32,2.33,8.43,4.35,1.04,1,2.17,2.42,2.93,4.34.37-.33.77-.63,1.19-.92-.32-.36-.63-.73-.92-1.12-1.32-1.77-2.83-4.84-2.51-9.31.24-3.41,1.63-6.38,4-8.59,1.86-1.74,4.16-3.01,6.83-3.78,2.15-.62,4.35-.95,6.56-.99.9-.04,1.87-.06,2.89-.06s2.06.02,3.19.05c2.17.08,4.35.17,6.54.27,2.2.11,4.16.24,5.83.38.93.08,2.16.22,3.77.41,1.5.18,3.12.39,4.88.62,1.81.24,3.64.53,5.43.86,1.73.31,3.27.62,4.57.9,1.93.4,3.88,1.11,5.74,2.09,2.27,1.2,4.14,2.82,5.56,4.81,1.76,2.51,2.52,5.57,2.19,8.87-.35,3.47-1.59,6.32-3.68,8.47Z"/>
      <path class="cls-1" d="M654.85,84.6c-.81,5.16-3.7,7.89-5.98,9.26-2.47,1.51-5.55,2.32-9.12,2.42-.38.01-.78.02-1.18.02-2.39,0-5.1-.2-8.06-.6-3.09-.41-6.44-.89-10.06-1.41-3.82-.55-7.28-1.07-10.39-1.55-3.52-.54-6.46-1.22-8.98-2.06-3.36-1.12-6.03-2.8-7.94-4.99-1.05-1.2-2.18-2.97-2.72-5.34-.26.28-.52.56-.8.83-1.93,1.91-4.08,3.65-6.43,5.18-.06,1.26-.16,2.49-.3,3.68-.28,2.36-.87,4.61-1.74,6.67-1.08,2.56-2.62,4.65-4.56,6.22-2.12,1.71-4.72,2.62-7.49,2.62-.51,0-1.02-.03-1.54-.09-4.84-.57-7.56-2.93-8.98-4.82-.92-1.22-1.91-3.02-2.31-5.43-.55.03-1.08.04-1.59.04-.77,0-1.51-.03-2.19-.11-4.81-.52-7.63-2.75-9.15-4.53-2.08-2.44-3.12-5.3-3.02-8.31.45-.31.88-.64,1.3-1,2.68-2.3,4.29-5.45,4.66-9.13,0-.03,0-.05.01-.08,1.8-1.2,3.95-2.04,6.43-2.49l.16-.02c2.97-.48,5.4-1.26,7.22-2.33,2.09-1.22,3.85-2.55,5.25-3.94,1.73-1.74,3.33-3.41,4.75-4.98,1.8-2.02,3.87-3.52,6.13-4.41,1.67-.66,3.54-1,5.54-1,.78,0,1.6.05,2.43.15,3.52.43,6.59,2.11,8.88,4.86,1.35,1.62,2.82,4.19,3.01,7.78,2.37-1.51,5.3-2.36,8.71-2.53.65-.04,1.34-.05,2.05-.05,2.17,0,4.61.16,7.26.49,3.26.4,6.82.88,10.57,1.42,3.55.51,6.98,1.04,10.2,1.58,3.46.58,6.52,1.32,9.1,2.22,3.4,1.18,6.1,2.89,8.02,5.09,1.75,2.02,3.67,5.51,2.85,10.67Z"/>
    </g>
    <g>
      <path class="cls-1" d="M368.32,125.06c1.3.01,2.87.49,2.85,2.89-.03,2.43-1.58,2.84-2.91,2.83-3.82-.04-7.64-.07-11.45-.09-2.9-.01-3.17-2.56-3.17-3.21,0-3.17,2.46-5.81,5.96-8.34,3.78-2.75,4.94-3.56,4.96-6.06,0-.58,0-2.71-1.82-2.72-2.03-.02-2.23,1.95-2.36,3.24-.1.86-1.1,1.9-3.16,1.89-1.71,0-3.39-.78-3.39-2.87,0-2.34,1.8-8.03,8.85-7.98,5.23.04,8.67,3.56,8.6,8.58-.06,4.65-2.6,6.55-6.38,9.35-.69.52-2.56,2.01-2.56,2.32,0,.12.15.12.43.13,1.85.01,3.7.03,5.54.05Z"/>
      <path class="cls-1" d="M392.3,118.48c-.1,4.37-1.22,13.35-9.14,13.19-7.96-.14-8.66-9.25-8.61-13.53.06-4.4,1.05-13.38,9.11-13.24,8.03.16,8.71,9.14,8.64,13.57ZM381.27,118.26c-.04,2.25.02,7.66,2,7.7,1.98.04,2.24-5.34,2.29-7.62.05-2.24,0-7.66-2-7.7-2-.04-2.25,5.38-2.29,7.62Z"/>
      <path class="cls-1" d="M410,125.97c1.3.04,2.86.56,2.78,2.96-.08,2.43-1.64,2.81-2.97,2.76-3.82-.13-7.63-.24-11.45-.34-2.9-.08-3.11-2.64-3.1-3.28.08-3.17,2.59-5.75,6.14-8.21,3.84-2.66,5.02-3.45,5.1-5.94.02-.58.05-2.71-1.76-2.76-2.03-.06-2.27,1.9-2.43,3.19-.12.86-1.14,1.88-3.2,1.82-1.71-.05-3.37-.86-3.32-2.95.06-2.33,1.98-7.99,9.03-7.78,5.23.16,8.58,3.76,8.41,8.77-.16,4.64-2.75,6.49-6.59,9.2-.7.5-2.6,1.95-2.61,2.26,0,.12.15.13.43.14,1.85.06,3.69.11,5.54.18Z"/>
      <path class="cls-1" d="M419.09,127.5c-1.89-.07-3.16-1.72-3.08-3.87.04-1.26.49-2.32.82-2.83,2.69-4.14,5.4-8.27,8.13-12.4.97-1.44,2.41-2.15,3.91-2.08,2.6.11,3.3,1.96,3.25,3.04-.19,4.31-.39,8.63-.58,12.94.8.1,2.57.3,2.44,2.94-.13,2.7-1.86,2.75-2.7,2.77-.03.77-.07,1.54-.1,2.31-.05,1.17-.41,2.88-3.34,2.75-2.1-.09-3.27-.85-3.18-3.03.03-.77.06-1.54.1-2.31-1.89-.08-3.77-.15-5.66-.22ZM425.2,122.02c.09-2.06.17-4.12.26-6.18,0-.12-.05-.22-.15-.22-.13,0-.16.06-.22.15-1.22,1.86-2.44,3.72-3.65,5.58-.1.15-.16.24-.17.33,0,.15.09.19.27.2,1.22.05,2.44.1,3.66.15Z"/>
      <path class="cls-1" d="M464.94,130.81c-.02.37.16,1.92.14,2.26-.08,1.26-1.39,1.88-3.18,1.77-2.47-.15-2.72-1.03-3.04-1.97-.85.69-2.08,1.66-5.13,1.49-5.39-.31-6.01-4.43-5.9-6.46.27-5.01,4.55-5.42,7.87-5.72,2.78-.24,3.66-.34,3.72-1.32.03-.55-.33-1.31-1.97-1.41-1.55-.09-1.83.26-2.76,1.38-.47.56-1.5,1.15-2.99,1.06-.53-.03-3.04-.26-2.92-2.44.09-1.66,1.94-5.36,8.99-4.95,1.28.07,8.17.49,7.77,6.7-.2,3.2-.41,6.41-.61,9.61ZM459.07,125.85c-.35.13-2.2.52-2.65.61-1.38.32-2.14.55-2.22,1.97-.07,1.14.66,1.42,1.43,1.47.83.05,3.21-.33,3.39-3.28.02-.26.03-.51.05-.77Z"/>
      <path class="cls-1" d="M472.58,112.99c.07-1.04.41-2.84,3.41-2.64,2,.14,3.46.73,3.3,3.1-.07,1.03-.15,2.07-.22,3.1.38.03.77.05,1.15.08,1.09.08,2.46.58,2.3,2.76-.18,2.52-1.93,2.48-2.67,2.43-.38-.03-.77-.05-1.15-.08-.17,2.42-.34,4.85-.51,7.27-.1,1.44.43,1.48,1.26,1.54,1.67.12,2.24,1.3,2.14,2.59-.21,2.85-2.84,2.82-4.31,2.72-5.08-.35-6.05-2.48-5.81-6.19.19-2.79.37-5.59.56-8.38-.21-.01-.41-.03-.62-.04-1.12-.07-2.46-.56-2.32-2.74.16-2.52,1.91-2.5,2.66-2.45.21.01.42.03.62.04.07-1.03.14-2.07.21-3.1Z"/>
      <path class="cls-1" d="M518.15,133.9c.22.33.65,1.08.57,1.94-.14,1.53-2.04,3.21-4.13,3.02-.74-.07-1.45-.47-1.88-1.16-2.21-3.34-4.44-6.67-6.68-10-.63.48-1.27.96-1.9,1.44-.16,1.92-.32,3.84-.49,5.76-.07.83-.31,2.97-3.64,2.69-2.24-.19-3.41-1.08-3.24-3.26.56-6.91,1.11-13.82,1.67-20.73.07-.83.3-2.97,3.68-2.69,2.28.19,3.46,1.09,3.28,3.27-.17,2-.34,4.01-.51,6.01,3.13-2.4,6.28-4.79,9.44-7.18.81-.61,1.34-.93,2.25-.85,1.75.16,3.44,2.29,3.31,3.67-.09.92-.54,1.74-1.28,2.29-2.44,1.84-4.87,3.68-7.29,5.52,2.29,3.41,4.57,6.83,6.84,10.25Z"/>
      <path class="cls-1" d="M531.57,116.17c-.19,1.9-1.9,3.34-3.89,3.14-1.93-.19-3.37-1.9-3.18-3.83.19-1.96,1.95-3.34,3.86-3.15,1.97.19,3.41,1.88,3.21,3.84ZM529.3,137.37c-.1,1.04-.5,2.82-3.48,2.54-1.97-.19-3.37-.82-3.14-3.18.45-4.76.9-9.52,1.36-14.27.1-1.04.49-2.83,3.47-2.54,2.02.2,3.43.83,3.2,3.19-.47,4.76-.94,9.51-1.41,14.27Z"/>
      <path class="cls-1" d="M548.02,118.15c.11-1.04.52-2.82,3.52-2.5,1.99.22,3.43.9,3.17,3.23-.78,6.97-1.55,13.94-2.33,20.92-.22,1.99-1.33,2.73-3.67,2.47-2.18-.24-2.88-.99-3.01-2.34-.83.78-2.12,1.78-4.3,1.55-4.95-.52-7.45-5.56-6.9-10.98.47-4.65,3.41-9.56,8.82-8.99,1.21.13,2.98.62,4.1,2.2.2-1.86.4-3.71.6-5.57ZM541.34,131.39c-.12,1.13-.32,4.3,2.11,4.55,2.46.26,2.96-2.87,3.08-4,.11-1.04.34-4.3-2.14-4.56-2.51-.27-2.95,3.03-3.05,4.01Z"/>
      <path class="cls-1" d="M575.55,130.28c-.14,1.1-1.17,2.12-3.33,1.85-1.33-.16-2.24-.61-2.6-1.59-.31-.87-.69-1.32-2.55-1.54-1.27-.15-2.25.17-2.32.75-.08.67,2.3,1.51,4.37,2.25,2.68.94,6.51,2.4,5.98,6.68-.63,5.07-5.39,6-9.71,5.49-6.26-.74-8.61-4.13-8.36-6.33.17-1.53,1.34-2.45,3.28-2.22,1.63.19,2.08.67,2.76,2.33.29.68,1.18,1.1,2.84,1.3,2.28.27,2.89-.12,2.96-.73.08-.67-.31-.81-4.24-2.21-3.6-1.29-6.48-2.86-6.04-6.74.16-1.4,1.27-6.24,9.38-5.29,6.86.82,7.72,4.78,7.57,6Z"/>
      <path class="cls-1" d="M607,125.58c.11-.82.48-2.95,3.83-2.47,2.27.32,3.4,1.29,3.09,3.46-.64,4.48-1.29,8.95-1.93,13.43-.46,3.17-1.66,6.04-4.5,7.56-2.37,1.25-4.98,1.41-7.4,1.08-3.95-.55-6.75-2.44-8.08-4.67-1.08-1.79-1.31-4.3-.97-6.83.59-4.49,1.19-8.99,1.78-13.48.11-.82.45-2.95,3.81-2.5,2.27.31,3.41,1.27,3.11,3.43-.6,4.42-1.2,8.84-1.81,13.26-.15,1.1-.57,4.2,3.03,4.7,3.59.5,4.04-2.67,4.19-3.7.62-4.42,1.24-8.84,1.86-13.25Z"/>
      <path class="cls-1" d="M623.84,149.05c-.12.82-.51,2.94-3.81,2.45-2.23-.33-3.34-1.3-3.02-3.47.9-6.08,1.79-12.15,2.69-18.23.52-3.53,2.42-4.37,5.4-3.93,1.79.27,3.58.54,5.37.81,2.6.4,4.43.96,5.6,1.96,1.97,1.65,3.42,4.31,2.86,7.83-.54,3.43-2.69,5.8-4.89,6.77-1.66.74-3.85.68-6.16.32-1.04-.16-2.09-.32-3.14-.48-.3,1.99-.6,3.98-.9,5.96ZM625.64,137.09c.96.14,1.91.29,2.87.44,2.22.34,3.07-.49,3.31-2.01.24-1.58-.49-2.54-2.57-2.85-.74-.11-1.49-.23-2.23-.34-.43-.07-.68.11-.74.51-.21,1.42-.43,2.84-.64,4.26Z"/>
    </g>
  </g>
  <g>
    <g>
      <path class="cls-4" d="M70.19,109.46c-2.92,0-5.74-.96-8.18-2.79-3-2.25-4.89-5.39-5.48-9.1-.41-2.58-.33-4.99.21-7.2.37-1.5.85-3.07,1.47-4.79.44-1.22.88-2.72,1.3-4.46.38-1.52.62-3.58.73-6.12.11-2.65-.08-6.04-.55-10.06-.63-5.08.21-9.58,2.48-13.35,2.55-4.22,6.62-6.86,11.75-7.63.83-.12,1.64-.18,2.43-.18,2.56,0,4.89.64,6.94,1.89.99.61,1.89,1.32,2.71,2.14.6-1.11,1.34-2.14,2.2-3.07,2.16-2.34,5.11-3.78,8.77-4.28.88-.12,1.76-.18,2.6-.18,4.37,0,8.22,1.61,11.14,4.64,2.91,3.03,4.79,7.06,5.58,11.98.66,3.98,1.43,7.27,2.27,9.74.81,2.39,1.62,4.31,2.43,5.71.9,1.57,1.72,2.86,2.44,3.84,1.07,1.45,2.01,2.89,2.81,4.28,1.13,1.99,1.87,4.29,2.19,6.84.43,3.34-.22,6.63-1.88,9.52-2,3.48-5.54,5.72-9.97,6.3-.89.12-1.79.18-2.67.18-3.72,0-7.27-1.03-10.54-3.07-3.45-2.15-6.57-5.2-9.27-9.08-.9-1.29-1.74-2.64-2.54-4.06-.33,1.47-.72,2.91-1.16,4.3-1.43,4.47-3.52,8.28-6.2,11.34-3.17,3.62-7.17,5.83-11.89,6.56-.71.11-1.42.17-2.13.17Z"/>
      <path class="cls-4" d="M148.36,98.68c-3.08,0-5.77-.23-8.2-.72-5.06-1-9.2-3-12.3-5.96-2.99-2.84-5.21-6.47-6.58-10.78-1.14-3.57-2-7.72-2.57-12.34-.51-4.14-.63-8.07-.37-11.71.31-4.3,1.52-8.28,3.58-11.82,2.22-3.79,5.66-6.91,10.24-9.27,4.21-2.17,9.52-3.58,16.25-4.32,2.62-.29,5.11-.43,7.4-.43,3.62,0,6.89.36,9.72,1.08,5.07,1.29,9.18,3.57,12.22,6.76,2.86,3.01,4.95,6.64,6.21,10.78,1.07,3.51,1.82,7.4,2.21,11.56.44,4.64.49,8.88.15,12.61-.41,4.45-1.72,8.43-3.91,11.81-2.3,3.56-5.74,6.41-10.22,8.48-3.96,1.83-8.99,3.05-15.39,3.75-3.05.33-5.89.5-8.43.5ZM150.94,68.79c1.18-.13,2.35-.26,3.53-.38l-.43-4.09c-1.19.13-2.38.26-3.57.39l.47,4.09Z"/>
      <path class="cls-4" d="M217.88,92.37c-3.16,0-5.92-.83-8.2-2.48-2.93-2.11-4.7-5.32-4.99-9.05-.08-.95-.03-1.91.13-2.84-1.02.48-2.14.86-3.35,1.14-1.23.28-2.47.43-3.68.43-4.23,0-8.04-1.74-11.03-5.03-3.18-3.5-5.08-8.46-5.64-14.75-.52-5.77-.03-10.34,1.5-13.96,1.77-4.21,5.07-7.45,9.54-9.35,2.19-.93,4.72-1.69,7.68-2.28.77-2.6,2.31-4.89,4.46-6.65,2.27-1.86,5.32-2.94,9.04-3.22.63-.05,1.25-.07,1.84-.07,2.99,0,5.58.62,7.7,1.85,2.47,1.43,4.37,3.49,5.53,5.98,2.92.17,5.45.56,7.69,1.17,4.62,1.28,8.28,4.02,10.59,7.95,1.96,3.33,3.08,7.72,3.43,13.4.28,4.64-.26,9.17-1.61,13.49-1.34,4.28-3.38,8.2-6.07,11.65-2.74,3.52-6.08,6.42-9.94,8.62-3.97,2.27-8.42,3.6-13.21,3.96-.49.04-.95.05-1.41.05ZM212.89,63.4c-.04,1.48-.19,2.91-.45,4.27-.05.29-.12.57-.18.85,2.46-1.36,3.76-2.45,4.44-3.14.82-.84,1.41-1.67,1.71-2.39-1.84.14-3.68.27-5.52.42Z"/>
      <path class="cls-4" d="M275.94,88.56c-4.47,0-7.3-1.82-8.89-3.35-1.1-1.05-2.36-2.67-3.14-4.99-1.36.3-2.6.48-3.72.54-.32.02-.64.03-.94.03-4.32,0-7.18-1.65-8.81-3.04-2.68-2.27-4.19-5.23-4.38-8.56-.11-2,.26-5.04,2.6-8.26,1.75-2.4,4.34-4.23,7.69-5.42l.15-.05c2.85-.95,5.12-2.11,6.75-3.45,1.86-1.54,3.39-3.13,4.54-4.73,1.45-2.01,2.76-3.92,3.89-5.67,1.45-2.28,3.26-4.09,5.34-5.34,2.16-1.29,4.76-2,7.73-2.11.18,0,.37-.01.55-.01,3.32,0,6.43,1.17,8.98,3.38,1.99,1.73,4.38,4.87,4.56,10.03.17,4.82-1.26,9.36-4.25,13.48-1.59,2.19-3.44,4.25-5.52,6.14.15,1.28.25,2.51.3,3.68.1,2.38-.12,4.69-.65,6.86-.66,2.7-1.84,5-3.51,6.86-2.17,2.43-5.12,3.8-8.5,3.95-.25.01-.51.02-.75.02Z"/>
      <path class="cls-4" d="M319.3,86.34c-4.74,0-8.73-1.21-11.86-3.6-3.7-2.83-5.72-6.67-5.83-11.11-.09-3.58.84-6.82,2.79-9.63,2.13-3.09,5.72-5.2,10.68-6.26.18-.04.36-.08.54-.12-.29,0-.57,0-.86,0-5.51,0-9.77-.76-13.04-2.33-4.96-2.38-7.79-6.85-7.96-12.59-.15-5.11,2.23-9.58,6.7-12.58,3.64-2.44,8.55-3.69,15.04-3.83.42,0,.84-.01,1.24-.01,6.12,0,10.77,1.06,14.23,3.23,1.96,1.23,3.54,2.76,4.71,4.51.17-.26.34-.51.52-.75,1.86-2.52,5.52-5.54,12.37-5.58,4.86,0,8.94,2.09,11.59,5.9,2.18,3.13,3.24,7.09,3.24,12.1,0,2.19-.24,4.7-.71,7.47-.48,2.83-1.31,5.81-2.45,8.86-1.19,3.18-2.87,6.33-4.99,9.35-2.18,3.1-4.92,5.95-8.16,8.45-3.3,2.55-7.27,4.61-11.81,6.12-4.43,1.48-9.61,2.29-15.38,2.41-.2,0-.4,0-.6,0Z"/>
      <path class="cls-4" d="M365.95,87.28c-3.73-.02-7.09-1.47-9.74-4.18-2.62-2.73-3.99-6.13-3.99-9.87,0-2.61.45-4.99,1.33-7.07.62-1.44,1.35-2.94,2.19-4.48.62-1.14,1.29-2.56,2-4.22.6-1.44,1.18-3.49,1.66-5.9.53-2.61.88-5.98,1.03-10.05.18-5.13,1.71-9.44,4.53-12.79,3.14-3.72,7.5-5.69,12.59-5.69h.2c4.44.05,7.33,1.75,8.98,3.16,2.09,1.81,3.6,4.11,4.52,6.86.68,2.08,1.11,4.31,1.28,6.67.14,1.93.21,3.93.18,5.94-.07,4.74-.63,9.44-1.65,14.01-1.07,4.68-2.57,8.97-4.48,12.76-2.09,4.17-4.74,7.61-7.87,10.22-3.67,3.07-7.94,4.63-12.69,4.63h-.07Z"/>
      <path class="cls-4" d="M410.52,88.14c-4.76-.15-8.99-1.81-12.59-4.95-3.06-2.65-5.65-6.16-7.7-10.42-1.88-3.88-3.32-8.28-4.26-13.04-.92-4.64-1.34-9.41-1.26-14.17.03-2,.18-4.04.42-6.08.27-2.34.83-4.62,1.66-6.74,1.07-2.72,2.71-4.97,4.9-6.69,1.98-1.57,4.38-2.51,7.14-2.78.28-.51.59-1.01.92-1.49,1.78-2.58,4.11-4.67,6.93-6.18,2.74-1.47,5.73-2.22,8.88-2.22.19,0,.39,0,.59,0,3.35.1,6.47,1.03,9.3,2.75,2.72,1.67,4.92,3.88,6.56,6.58,1.78,2.97,2.61,6.17,2.49,9.55-.12,3.42-1.17,6.57-3.11,9.36-1.81,2.58-4.14,4.64-6.93,6.13-2.1,1.11-4.3,1.8-6.59,2.07.1.95.21,1.82.35,2.61.42,2.48.93,4.5,1.5,6.03.63,1.68,1.24,3.08,1.8,4.16.83,1.6,1.53,3.17,2.1,4.66.81,2.14,1.18,4.53,1.1,7.11-.1,3.37-1.26,6.53-3.36,9.12-2.38,2.98-6.06,4.65-10.33,4.65-.16,0-.32,0-.48,0Z"/>
      <path class="cls-4" d="M461.3,72.03c-1.01,0-2.08-.02-3.18-.07-3.11-.13-6.48-.3-10.13-.49-3.85-.2-7.34-.4-10.47-.6-3.55-.23-6.54-.63-9.12-1.24-3.44-.81-6.25-2.24-8.34-4.25-1.86-1.78-4.05-4.99-3.85-10.13.21-5.16,2.66-8.19,4.68-9.82,2.26-1.83,5.2-3.02,8.72-3.53,2.05-.3,4.39-.45,6.96-.45.75,0,1.54.01,2.34.04,3.29.11,6.86.26,10.63.46,3.61.19,7.07.41,10.27.65,3.49.26,6.6.73,9.25,1.38,3.48.86,6.32,2.33,8.43,4.35,1.93,1.85,4.15,5.15,3.8,10.37-.35,5.2-2.96,8.18-5.1,9.75-2.33,1.72-5.31,2.81-8.86,3.24-1.82.22-3.86.33-6.05.33Z"/>
      <path class="cls-4" d="M501.5,93.57c-3.88,0-7.22-.81-9.92-2.39-4.15-2.44-6.32-6.53-5.95-11.22.13-1.72.6-3.3,1.37-4.68-2.2-.65-4.14-1.58-5.82-2.77-2.04-1.45-5.41-4.84-4.95-11.26.29-3.97,2.2-7.31,5.4-9.49-.32-.36-.63-.73-.92-1.12-1.32-1.78-2.84-4.84-2.52-9.32.25-3.41,1.63-6.37,4-8.58,1.86-1.74,4.16-3.02,6.84-3.79,2.15-.62,4.35-.95,6.56-.99.9-.04,1.87-.06,2.89-.06s2.06.02,3.2.06c2.17.07,4.35.16,6.53.27,2.2.11,4.16.23,5.83.38.94.08,2.17.21,3.77.41,1.5.18,3.13.39,4.88.62,1.81.24,3.64.53,5.43.86,1.74.32,3.27.62,4.58.9,1.93.4,3.88,1.11,5.74,2.09,2.27,1.2,4.14,2.82,5.55,4.82,1.77,2.51,2.52,5.57,2.19,8.86-.35,3.48-1.59,6.33-3.68,8.47-.4.41-.82.79-1.26,1.15,2.32,2.52,3.39,5.81,3.04,9.39-.37,3.67-1.98,6.83-4.65,9.13-2.4,2.07-5.41,3.3-8.93,3.65-1.33.12-2.7.17-4.17.17-.77,0-1.58-.02-2.43-.05-.15,0-.3-.01-.44-.02-.39,1.05-.84,2.06-1.35,3.05-1.75,3.38-4.34,6.12-7.67,8.15-3.24,1.97-7.28,3.08-12.02,3.29-.42.02-.77.02-1.11.02Z"/>
      <path class="cls-4" d="M567.1,99.55c-.51,0-1.02-.03-1.54-.09-4.84-.57-7.56-2.94-8.98-4.82-.92-1.22-1.91-3.02-2.31-5.43-.55.03-1.08.05-1.59.05-.77,0-1.51-.04-2.19-.11-4.81-.52-7.63-2.75-9.15-4.53-2.28-2.67-3.3-5.84-2.96-9.16.21-1.97,1.05-4.92,3.88-7.73,2.12-2.1,4.96-3.48,8.46-4.12l.15-.03c2.97-.48,5.4-1.26,7.23-2.33,2.08-1.22,3.85-2.54,5.25-3.94,1.73-1.73,3.33-3.41,4.75-4.98,1.79-2.02,3.87-3.51,6.13-4.41,1.67-.66,3.54-1,5.54-1,.78,0,1.6.05,2.43.15,3.52.43,6.59,2.11,8.89,4.86,1.68,2.02,3.54,5.5,2.9,10.62-.61,4.8-2.75,9.05-6.36,12.63-1.92,1.91-4.08,3.64-6.43,5.17-.05,1.26-.15,2.49-.3,3.68-.28,2.37-.87,4.62-1.74,6.68-1.08,2.56-2.62,4.65-4.57,6.21-2.12,1.72-4.71,2.63-7.49,2.63Z"/>
      <path class="cls-4" d="M636.57,90.3c-2.39,0-5.1-.2-8.06-.6-3.09-.42-6.44-.89-10.06-1.41-3.82-.55-7.28-1.07-10.39-1.55-3.52-.55-6.46-1.22-8.99-2.06-3.36-1.12-6.03-2.8-7.94-4.99-1.7-1.94-3.59-5.34-2.92-10.44.67-5.12,3.39-7.91,5.55-9.35,2.43-1.62,5.46-2.54,9.02-2.72.66-.03,1.34-.05,2.06-.05,2.17,0,4.61.16,7.26.49,3.26.4,6.82.88,10.57,1.43,3.54.51,6.97,1.04,10.19,1.58,3.46.58,6.52,1.32,9.1,2.22,3.4,1.18,6.1,2.9,8.02,5.1,1.76,2.02,3.67,5.5,2.85,10.67-.81,5.15-3.7,7.88-5.98,9.26-2.48,1.5-5.55,2.32-9.12,2.42-.38.01-.78.02-1.18.02Z"/>
      <path class="cls-3" d="M71.21,99.42c-1.75.27-3.37-.15-4.85-1.26-1.48-1.11-2.37-2.59-2.67-4.44-.25-1.6-.23-3.04.09-4.31.31-1.27.73-2.63,1.25-4.08.52-1.45,1.03-3.17,1.52-5.17.49-1.99.8-4.51.93-7.54.13-3.03-.07-6.78-.6-11.23-.43-3.47.06-6.39,1.49-8.74,1.43-2.36,3.63-3.76,6.61-4.21,1.8-.27,3.31-.03,4.52.71,1.21.74,2.18,1.82,2.91,3.23.73,1.41,1.3,2.98,1.7,4.71.41,1.73.74,3.47.99,5.23.6,4.19.77,8.38.5,12.57-.27,4.19-.98,8.05-2.1,11.58-1.13,3.52-2.71,6.45-4.74,8.77-2.03,2.32-4.55,3.71-7.55,4.18ZM115.65,93.23c-3.01.39-5.82-.23-8.45-1.86-2.62-1.63-5.01-3.99-7.16-7.07-2.15-3.08-3.96-6.61-5.42-10.58-1.46-3.97-2.5-8.07-3.09-12.32-.25-1.76-.41-3.53-.48-5.34-.07-1.8.07-3.5.42-5.09.35-1.59,1.03-2.93,2.03-4.01,1-1.08,2.48-1.76,4.44-2.03,3.14-.43,5.66.34,7.54,2.3,1.88,1.96,3.1,4.67,3.66,8.12.74,4.42,1.59,8.06,2.56,10.91.97,2.85,1.97,5.18,3,6.98,1.03,1.8,2,3.32,2.9,4.54.9,1.22,1.68,2.42,2.34,3.57.66,1.16,1.09,2.54,1.3,4.15.23,1.81-.1,3.47-.97,5-.88,1.53-2.42,2.43-4.63,2.72Z"/>
      <path class="cls-3" d="M156.01,88.26c-5.93.64-10.74.61-14.45-.12-3.71-.73-6.61-2.1-8.72-4.1-2.11-2-3.67-4.58-4.67-7.73-1-3.15-1.76-6.83-2.28-11.03-.45-3.66-.56-7.1-.33-10.3.23-3.2,1.1-6.1,2.61-8.69,1.51-2.59,3.95-4.75,7.3-6.48,3.35-1.73,7.93-2.92,13.72-3.55,5.94-.65,10.8-.48,14.55.47,3.75.96,6.67,2.54,8.75,4.73,2.09,2.2,3.6,4.83,4.54,7.91.94,3.08,1.58,6.45,1.93,10.13.4,4.22.45,7.97.15,11.26-.3,3.29-1.23,6.14-2.78,8.54-1.55,2.4-3.94,4.34-7.17,5.83-3.23,1.49-7.61,2.52-13.14,3.12ZM146.27,73.88c4.81-.54,9.62-1.07,14.43-1.57.95-.1,1.64-.95,1.54-1.9-.52-5.02-1.05-10.04-1.57-15.06-.1-.95-.95-1.65-1.91-1.55-4.86.51-9.73,1.04-14.59,1.59-.95.11-1.64.97-1.53,1.92.57,5.02,1.14,10.03,1.71,15.05.11.95.96,1.63,1.91,1.52Z"/>
      <path class="cls-3" d="M218.74,82.37c-2.02.15-3.63-.21-4.83-1.08-1.21-.87-1.88-2.11-2-3.73-.08-.98.17-1.93.73-2.83.57-.91,1.39-1.65,2.46-2.23,2.94-1.56,5.2-3.15,6.8-4.8,1.59-1.64,2.71-3.33,3.36-5.05.65-1.72,1-3.44,1.06-5.15.04-1.09.04-2.17,0-3.24-.03-.99-.87-1.77-1.86-1.7-5.8.41-11.6.84-17.4,1.31-.95.08-1.65.9-1.59,1.85.07,1.09.12,2.18.16,3.26.06,1.65-.05,3.19-.32,4.62-.27,1.43-.82,2.65-1.66,3.65-.84,1.01-2.11,1.7-3.81,2.09-3.06.7-5.63-.1-7.73-2.41-2.1-2.31-3.36-5.82-3.79-10.52-.4-4.51-.09-8.01.96-10.5,1.05-2.49,2.95-4.32,5.7-5.5,2.47-1.05,5.73-1.87,9.79-2.44.8-.11,1.43-.75,1.49-1.56.07-.9.22-1.79.45-2.67.34-1.31,1.06-2.42,2.16-3.32,1.1-.9,2.77-1.44,5-1.6,2.33-.17,4.12.1,5.37.82,1.25.72,2.14,1.71,2.67,2.96.35.82.61,1.66.8,2.54.17.81.89,1.37,1.71,1.36,3.97-.03,7.22.31,9.73,1.01,2.82.78,4.91,2.33,6.27,4.63,1.36,2.31,2.17,5.7,2.44,10.17.23,3.79-.21,7.41-1.29,10.88-1.09,3.47-2.72,6.59-4.87,9.37-2.16,2.78-4.76,5.04-7.81,6.78-3.05,1.74-6.43,2.75-10.16,3.03Z"/>
      <path class="cls-3" d="M259.8,70.81c-1.98.1-3.54-.33-4.68-1.3-1.15-.97-1.76-2.12-1.83-3.45-.06-1.18.34-2.37,1.22-3.58.88-1.21,2.3-2.16,4.25-2.85,3.72-1.23,6.75-2.81,9.09-4.74,2.34-1.93,4.27-3.96,5.8-6.07,1.52-2.11,2.89-4.1,4.1-5.98.87-1.37,1.86-2.38,2.97-3.04,1.11-.66,2.54-1.03,4.29-1.09,1.7-.07,3.2.47,4.51,1.61,1.3,1.14,1.99,2.74,2.06,4.8.11,3.2-.85,6.19-2.87,8.97-1.82,2.51-4.03,4.78-6.63,6.8-.52.41-.77,1.07-.65,1.72.15.78.28,1.58.38,2.39.15,1.18.25,2.33.29,3.46.07,1.72-.08,3.34-.45,4.86-.37,1.52-.99,2.76-1.86,3.73-.87.97-2.01,1.49-3.42,1.55-1.87.08-3.31-.36-4.31-1.32-1.01-.96-1.55-2.31-1.63-4.03-.05-1.13-.11-2.14-.18-3.02,0,0,0-.02,0-.03-.09-1.15-1.27-1.88-2.36-1.47-1.29.49-2.52.9-3.68,1.23-1.78.51-3.25.79-4.42.86Z"/>
      <path class="cls-3" d="M316.03,45.66c-4.98.11-8.71-.42-11.18-1.6-2.48-1.19-3.76-3.28-3.85-6.28-.08-2.61,1.08-4.72,3.5-6.34,2.41-1.62,6.14-2.5,11.16-2.61,5.23-.12,9.05.59,11.46,2.1,2.4,1.51,3.62,3.58,3.66,6.18.04,3-1.11,5.15-3.45,6.44-2.34,1.29-6.11,1.99-11.29,2.1ZM319.74,76.37c-3.33.07-5.97-.63-7.9-2.11-1.93-1.48-2.94-3.32-2.99-5.54-.05-2.02.45-3.79,1.5-5.32,1.05-1.53,3.13-2.63,6.23-3.29,3.4-.76,6.44-1.6,9.13-2.51,2.69-.91,5.02-2.09,6.99-3.54,1.97-1.45,3.55-3.37,4.73-5.74,1.18-2.38,1.96-5.41,2.33-9.11.23-2.51.99-4.64,2.26-6.37,1.28-1.73,3.47-2.61,6.58-2.63,2.43-.01,4.3.92,5.6,2.78,1.3,1.87,1.94,4.53,1.95,7.97,0,1.77-.2,3.85-.61,6.24-.41,2.39-1.11,4.9-2.1,7.54-.99,2.64-2.37,5.21-4.14,7.73-1.77,2.52-3.99,4.81-6.66,6.88-2.67,2.07-5.89,3.72-9.67,4.98-3.78,1.26-8.19,1.93-13.24,2.04Z"/>
      <path class="cls-3" d="M385.31,37.54c-.13-1.77-.44-3.42-.93-4.92-.5-1.51-1.29-2.73-2.36-3.65-1.08-.92-2.53-1.39-4.34-1.42-3.01-.03-5.4,1.02-7.18,3.12-1.77,2.1-2.71,4.9-2.83,8.4-.17,4.48-.56,8.2-1.17,11.18-.59,2.98-1.3,5.42-2.09,7.31-.8,1.89-1.57,3.51-2.31,4.86-.74,1.35-1.36,2.64-1.88,3.84-.51,1.21-.76,2.63-.76,4.25,0,1.88.65,3.48,1.93,4.81,1.29,1.32,2.81,1.99,4.58,2,3.03.01,5.72-.96,8.09-2.94,2.36-1.97,4.38-4.6,6.04-7.92,1.66-3.3,2.95-7,3.89-11.1.92-4.1,1.42-8.27,1.48-12.5.02-1.77-.03-3.54-.16-5.31Z"/>
      <path class="cls-3" d="M425.81,23.75c-1.04-1.7-2.42-3.1-4.15-4.16-1.74-1.07-3.65-1.63-5.73-1.69-2.08-.06-4.03.39-5.83,1.35s-3.26,2.27-4.39,3.91c-.73,1.06-1.24,2.19-1.52,3.38-.2.85-1.02,1.41-1.89,1.28-.47-.07-.95-.11-1.46-.12-1.97-.04-3.54.4-4.69,1.31-1.16.91-2.04,2.12-2.64,3.64-.59,1.52-1.01,3.17-1.21,4.96-.22,1.79-.34,3.57-.37,5.34-.07,4.29.31,8.5,1.13,12.65.82,4.15,2.04,7.92,3.68,11.3,1.63,3.38,3.61,6.08,5.94,8.1,2.33,2.03,5,3.08,8.03,3.17,2.23.06,3.89-.59,4.98-1.97,1.11-1.36,1.69-2.96,1.74-4.78.05-1.63-.15-3.06-.63-4.31-.47-1.24-1.06-2.54-1.75-3.9-.7-1.34-1.42-2.99-2.14-4.93-.74-1.95-1.36-4.4-1.87-7.36-.51-2.97-.78-6.7-.81-11.18,0-.38-.01-.75-.03-1.11,1.55.83,3.23,1.27,5.05,1.32,2.06.06,3.98-.39,5.76-1.33,1.78-.95,3.25-2.25,4.4-3.89,1.14-1.63,1.74-3.46,1.82-5.48.07-1.96-.41-3.8-1.44-5.52ZM417.69,31.17c-.58.57-1.31.84-2.19.82-.83-.03-1.54-.35-2.14-.95-.61-.61-.9-1.3-.87-2.09.02-.83.35-1.53.98-2.07.64-.55,1.37-.81,2.21-.79.88.02,1.6.33,2.15.91s.81,1.29.79,2.13c-.02.79-.33,1.47-.92,2.04Z"/>
      <path class="cls-3" d="M448.37,61.51c-3.82-.2-7.29-.4-10.39-.6-3.1-.2-5.74-.55-7.92-1.06-2.18-.51-3.84-1.32-4.99-2.43-1.16-1.11-1.7-2.64-1.62-4.61.08-1.97.74-3.46,1.99-4.46,1.25-1.01,2.99-1.68,5.21-2,2.23-.32,4.91-.44,8.04-.34,3.13.1,6.63.25,10.48.45,3.64.19,7.02.41,10.12.64,3.1.23,5.78.63,8.04,1.19,2.26.56,3.98,1.41,5.16,2.55,1.18,1.14,1.71,2.69,1.58,4.66-.13,1.96-.86,3.43-2.18,4.41-1.32.98-3.12,1.6-5.42,1.87-2.29.28-4.98.35-8.06.22-3.09-.13-6.43-.3-10.05-.49Z"/>
      <path class="cls-3" d="M502.29,83.59c-2.95.1-5.29-.36-7.04-1.38-1.74-1.03-2.55-2.49-2.4-4.41.1-1.28.59-2.21,1.48-2.81.89-.6,1.92-1.07,3.09-1.42,1.18-.35,2.28-.77,3.31-1.25,1.04-.48,1.75-1.25,2.14-2.31.14-.43.25-.84.33-1.23.08-.39.17-.8.25-1.24-2.39-.2-4.76-.44-7.11-.72-2.36-.28-4.24-.55-5.65-.81-2.12-.41-3.89-1.12-5.33-2.14-1.44-1.02-2.07-2.63-1.92-4.84.13-1.87.99-3.27,2.58-4.22,1.58-.95,3.47-1.53,5.65-1.77,1.14-.16,2.58-.25,4.31-.26,1.73-.01,3.55.02,5.48.1,1.93.08,3.79.17,5.58.27,1.8.1,3.33.21,4.61.32,1.02.09,2.38.22,4.07.39,1.69.17,3.49.38,5.4.63,1.91.25,3.73.52,5.46.8,1.73.29,3.12.58,4.17.88,1.96.54,3.55,1.34,4.76,2.39,1.21,1.06,1.73,2.45,1.56,4.16-.18,1.81-.9,3.26-2.17,4.35-1.26,1.09-2.9,1.73-4.92,1.93-1.6.14-3.47.17-5.62.1-1.6-.06-3.17-.13-4.71-.22-.86-.05-1.63.53-1.79,1.37-.4,2.07-1.06,4-1.99,5.79-1.14,2.2-2.81,3.96-5.01,5.3-2.2,1.34-5.05,2.08-8.57,2.24ZM512.01,49.44c-1.54-.13-3.37-.29-5.5-.47-2.13-.18-4.24-.39-6.34-.63-2.1-.24-3.94-.47-5.52-.69-1.63-.27-3.17-.72-4.62-1.35-1.45-.63-2.61-1.53-3.48-2.7-.87-1.17-1.24-2.67-1.11-4.49.11-1.57.68-2.84,1.71-3.8,1.03-.96,2.33-1.67,3.9-2.12,1.57-.45,3.16-.69,4.78-.71,1.62-.07,3.49-.07,5.62,0,2.13.07,4.27.16,6.42.26,2.15.1,4.01.23,5.56.36.88.08,2.05.2,3.52.38,1.47.18,3.07.38,4.79.61,1.73.23,3.42.5,5.09.8,1.67.3,3.11.59,4.34.86,1.33.27,2.63.75,3.89,1.41,1.26.67,2.27,1.53,3.03,2.6.75,1.07,1.05,2.38.89,3.95-.18,1.81-.74,3.19-1.66,4.14-.93.95-2.05,1.59-3.38,1.93-1.33.34-2.72.54-4.17.6-1.86.02-3.93-.03-6.2-.14-2.26-.11-4.42-.24-6.48-.4-2.05-.16-3.75-.29-5.08-.41Z"/>
      <path class="cls-3" d="M551.27,79.22c-1.97-.21-3.44-.89-4.42-2.03-.98-1.14-1.4-2.37-1.26-3.7.12-1.17.71-2.29,1.77-3.34,1.06-1.05,2.61-1.76,4.66-2.14,3.87-.62,7.12-1.69,9.74-3.23,2.62-1.54,4.86-3.22,6.7-5.07,1.84-1.84,3.51-3.59,5.01-5.25,1.08-1.21,2.22-2.05,3.42-2.53,1.2-.48,2.67-.61,4.42-.39,1.69.21,3.09.98,4.2,2.31,1.11,1.33,1.53,3.02,1.27,5.07-.4,3.18-1.83,5.97-4.27,8.4-2.2,2.19-4.75,4.07-7.64,5.65-.58.32-.93.93-.91,1.59.02.8.02,1.6,0,2.42-.04,1.19-.13,2.34-.26,3.46-.21,1.71-.61,3.29-1.22,4.72-.61,1.44-1.42,2.57-2.43,3.39-1.02.82-2.23,1.15-3.63.98-1.86-.22-3.21-.88-4.05-1.99-.84-1.11-1.16-2.52-.97-4.24.13-1.12.23-2.13.31-3.01,0,0,0-.02,0-.03.1-1.15-.96-2.06-2.09-1.83-1.36.28-2.64.49-3.83.63-1.84.22-3.34.26-4.5.14Z"/>
      <path class="cls-3" d="M619.49,78.4c-3.79-.55-7.23-1.06-10.31-1.54-3.08-.48-5.68-1.07-7.8-1.78-2.12-.71-3.71-1.66-4.76-2.87-1.05-1.21-1.45-2.79-1.2-4.74.26-1.95,1.05-3.37,2.39-4.27,1.33-.89,3.13-1.4,5.38-1.52,2.25-.12,4.94.01,8.05.39,3.12.38,6.59.85,10.42,1.4,3.62.52,6.97,1.04,10.05,1.56,3.08.51,5.71,1.15,7.92,1.92,2.2.76,3.84,1.77,4.93,3.01,1.08,1.24,1.47,2.84,1.16,4.78-.31,1.94-1.17,3.34-2.57,4.19-1.4.85-3.26,1.31-5.58,1.37-2.32.07-5-.11-8.07-.52-3.07-.41-6.4-.88-9.99-1.4Z"/>
    </g>
    <g>
      <path class="cls-4" d="M367.32,122.06c1.3.01,2.87.49,2.85,2.89-.03,2.43-1.58,2.84-2.91,2.83-3.82-.04-7.64-.07-11.45-.09-2.9-.01-3.17-2.56-3.17-3.21,0-3.17,2.46-5.81,5.96-8.34,3.78-2.75,4.94-3.56,4.96-6.06,0-.58,0-2.71-1.82-2.72-2.03-.02-2.23,1.95-2.36,3.24-.1.86-1.1,1.9-3.16,1.89-1.71,0-3.39-.78-3.39-2.87,0-2.34,1.8-8.03,8.85-7.98,5.23.04,8.67,3.56,8.6,8.58-.06,4.65-2.6,6.55-6.38,9.35-.69.52-2.56,2.01-2.56,2.32,0,.12.15.12.43.13,1.85.01,3.7.03,5.54.05Z"/>
      <path class="cls-4" d="M391.3,115.48c-.1,4.37-1.22,13.35-9.14,13.19-7.96-.14-8.66-9.25-8.61-13.53.06-4.4,1.05-13.38,9.11-13.24,8.03.16,8.71,9.14,8.64,13.57ZM380.27,115.26c-.04,2.25.02,7.66,2,7.7,1.98.04,2.24-5.34,2.29-7.62.05-2.24,0-7.66-2-7.7-2-.04-2.25,5.38-2.29,7.62Z"/>
      <path class="cls-4" d="M409,122.97c1.3.04,2.86.56,2.78,2.96-.08,2.43-1.64,2.81-2.97,2.76-3.82-.13-7.63-.24-11.45-.34-2.9-.08-3.11-2.64-3.1-3.28.08-3.17,2.59-5.75,6.14-8.21,3.84-2.66,5.02-3.45,5.1-5.94.02-.58.05-2.71-1.76-2.76-2.03-.06-2.27,1.9-2.43,3.19-.12.86-1.14,1.88-3.2,1.82-1.71-.05-3.37-.86-3.32-2.95.06-2.33,1.98-7.99,9.03-7.78,5.23.16,8.58,3.76,8.41,8.77-.16,4.64-2.75,6.49-6.59,9.2-.7.5-2.6,1.95-2.61,2.26,0,.12.15.13.43.14,1.85.06,3.69.11,5.54.18Z"/>
      <path class="cls-4" d="M418.09,124.5c-1.89-.07-3.16-1.72-3.08-3.87.04-1.26.49-2.32.82-2.83,2.69-4.14,5.4-8.27,8.13-12.4.97-1.44,2.41-2.15,3.91-2.08,2.6.11,3.3,1.96,3.25,3.04-.19,4.31-.39,8.63-.58,12.94.8.1,2.57.3,2.44,2.94-.13,2.7-1.86,2.75-2.7,2.77-.03.77-.07,1.54-.1,2.31-.05,1.17-.41,2.88-3.34,2.75-2.1-.09-3.27-.85-3.18-3.03.03-.77.06-1.54.1-2.31-1.89-.08-3.77-.15-5.66-.22ZM424.2,119.02c.09-2.06.17-4.12.26-6.18,0-.12-.05-.22-.15-.22-.13,0-.16.06-.22.15-1.22,1.86-2.44,3.72-3.65,5.58-.1.15-.16.24-.17.33,0,.15.09.19.27.2,1.22.05,2.44.1,3.66.15Z"/>
      <path class="cls-4" d="M463.94,127.81c-.02.37.16,1.92.14,2.26-.08,1.26-1.39,1.88-3.18,1.77-2.47-.15-2.72-1.03-3.04-1.97-.85.69-2.08,1.66-5.13,1.49-5.39-.31-6.01-4.43-5.9-6.46.27-5.01,4.55-5.42,7.87-5.72,2.78-.24,3.66-.34,3.72-1.32.03-.55-.33-1.31-1.97-1.41-1.55-.09-1.83.26-2.76,1.38-.47.56-1.5,1.15-2.99,1.06-.53-.03-3.04-.26-2.92-2.44.09-1.66,1.94-5.36,8.99-4.95,1.28.07,8.17.49,7.77,6.7-.2,3.2-.41,6.41-.61,9.61ZM458.07,122.85c-.35.13-2.2.52-2.65.61-1.38.32-2.14.55-2.22,1.97-.07,1.14.66,1.42,1.43,1.47.83.05,3.21-.33,3.39-3.28.02-.26.03-.51.05-.77Z"/>
      <path class="cls-4" d="M471.58,109.99c.07-1.04.41-2.84,3.41-2.64,2,.14,3.46.73,3.3,3.1-.07,1.03-.15,2.07-.22,3.1.38.03.77.05,1.15.08,1.09.08,2.46.58,2.3,2.76-.18,2.52-1.93,2.48-2.67,2.43-.38-.03-.77-.05-1.15-.08-.17,2.42-.34,4.85-.51,7.27-.1,1.44.43,1.48,1.26,1.54,1.67.12,2.24,1.3,2.14,2.59-.21,2.85-2.84,2.82-4.31,2.72-5.08-.35-6.05-2.48-5.81-6.19.19-2.79.37-5.59.56-8.38-.21-.01-.41-.03-.62-.04-1.12-.07-2.46-.56-2.32-2.74.16-2.52,1.91-2.5,2.66-2.45.21.01.42.03.62.04.07-1.03.14-2.07.21-3.1Z"/>
      <path class="cls-4" d="M517.15,130.9c.22.33.65,1.08.57,1.94-.14,1.53-2.04,3.21-4.13,3.02-.74-.07-1.45-.47-1.88-1.16-2.21-3.34-4.44-6.67-6.68-10-.63.48-1.27.96-1.9,1.44-.16,1.92-.32,3.84-.49,5.76-.07.83-.31,2.97-3.64,2.69-2.24-.19-3.41-1.08-3.24-3.26.56-6.91,1.11-13.82,1.67-20.73.07-.83.3-2.97,3.68-2.69,2.28.19,3.46,1.09,3.28,3.27-.17,2-.34,4.01-.51,6.01,3.13-2.4,6.28-4.79,9.44-7.18.81-.61,1.34-.93,2.25-.85,1.75.16,3.44,2.29,3.31,3.67-.09.92-.54,1.74-1.28,2.29-2.44,1.84-4.87,3.68-7.29,5.52,2.29,3.41,4.57,6.83,6.84,10.25Z"/>
      <path class="cls-4" d="M530.57,113.17c-.19,1.9-1.9,3.34-3.89,3.14-1.93-.19-3.37-1.9-3.18-3.83.19-1.96,1.95-3.34,3.86-3.15,1.97.19,3.41,1.88,3.21,3.84ZM528.3,134.37c-.1,1.04-.5,2.82-3.48,2.54-1.97-.19-3.37-.82-3.14-3.18.45-4.76.9-9.52,1.36-14.27.1-1.04.49-2.83,3.47-2.54,2.02.2,3.43.83,3.2,3.19-.47,4.76-.94,9.51-1.41,14.27Z"/>
      <path class="cls-4" d="M547.02,115.15c.11-1.04.52-2.82,3.52-2.5,1.99.22,3.43.9,3.17,3.23-.78,6.97-1.55,13.94-2.33,20.92-.22,1.99-1.33,2.73-3.67,2.47-2.18-.24-2.88-.99-3.01-2.34-.83.78-2.12,1.78-4.3,1.55-4.95-.52-7.45-5.56-6.9-10.98.47-4.65,3.41-9.56,8.82-8.99,1.21.13,2.98.62,4.1,2.2.2-1.86.4-3.71.6-5.57ZM540.34,128.39c-.12,1.13-.32,4.3,2.11,4.55,2.46.26,2.96-2.87,3.08-4,.11-1.04.34-4.3-2.14-4.56-2.51-.27-2.95,3.03-3.05,4.01Z"/>
      <path class="cls-4" d="M574.55,127.28c-.14,1.1-1.17,2.12-3.33,1.85-1.33-.16-2.24-.61-2.6-1.59-.31-.87-.69-1.32-2.55-1.54-1.27-.15-2.25.17-2.32.75-.08.67,2.3,1.51,4.37,2.25,2.68.94,6.51,2.4,5.98,6.68-.63,5.07-5.39,6-9.71,5.49-6.26-.74-8.61-4.13-8.36-6.33.17-1.53,1.34-2.45,3.28-2.22,1.63.19,2.08.67,2.76,2.33.29.68,1.18,1.1,2.84,1.3,2.28.27,2.89-.12,2.96-.73.08-.67-.31-.81-4.24-2.21-3.6-1.29-6.48-2.86-6.04-6.74.16-1.4,1.27-6.24,9.38-5.29,6.86.82,7.72,4.78,7.57,6Z"/>
      <path class="cls-4" d="M606,122.58c.11-.82.48-2.95,3.83-2.47,2.27.32,3.4,1.29,3.09,3.46-.64,4.48-1.29,8.95-1.93,13.43-.46,3.17-1.66,6.04-4.5,7.56-2.37,1.25-4.98,1.41-7.4,1.08-3.95-.55-6.75-2.44-8.08-4.67-1.08-1.79-1.31-4.3-.97-6.83.59-4.49,1.19-8.99,1.78-13.48.11-.82.45-2.95,3.81-2.5,2.27.31,3.41,1.27,3.11,3.43-.6,4.42-1.2,8.84-1.81,13.26-.15,1.1-.57,4.2,3.03,4.7,3.59.5,4.04-2.67,4.19-3.7.62-4.42,1.24-8.84,1.86-13.25Z"/>
      <path class="cls-4" d="M622.84,146.05c-.12.82-.51,2.94-3.81,2.45-2.23-.33-3.34-1.3-3.02-3.47.9-6.08,1.79-12.15,2.69-18.23.52-3.53,2.42-4.37,5.4-3.93,1.79.27,3.58.54,5.37.81,2.6.4,4.43.96,5.6,1.96,1.97,1.65,3.42,4.31,2.86,7.83-.54,3.43-2.69,5.8-4.89,6.77-1.66.74-3.85.68-6.16.32-1.04-.16-2.09-.32-3.14-.48-.3,1.99-.6,3.98-.9,5.96ZM624.64,134.09c.96.14,1.91.29,2.87.44,2.22.34,3.07-.49,3.31-2.01.24-1.58-.49-2.54-2.57-2.85-.74-.11-1.49-.23-2.23-.34-.43-.07-.68.11-.74.51-.21,1.42-.43,2.84-.64,4.26Z"/>
    </g>
  </g>
  <path class="cls-2" d="M304.71,155.62c-.81.13-1.62.12-2.43-.04-.28-.05-.35.05-.39.3-.3,1.93-.61,3.86-.93,5.79-.21,1.29-1.45,2.02-2.64,1.55-.46-.18-.8-.5-1.01-.95-.21-.44-.41-.88-.62-1.32-.15-.33-.4-.47-.76-.42-.43.06-.87.11-1.31.12-1,.01-1.81-.66-1.96-1.65-.06-.4-.1-.8-.15-1.19-.06-.47-.17-.59-.65-.7-.4-.09-.81-.17-1.21-.27-.92-.22-1.55-.91-1.6-1.76-.06-.87.43-1.64,1.31-1.99,1.76-.7,3.53-1.39,5.29-2.07.49-.19.49-.19.3-.67-1.7-4.44.86-9.52,5.43-10.78,1.18-.32,2.37-.42,3.57-.21.29.05.38-.02.42-.31.29-1.9.6-3.79.9-5.69.16-.99.75-1.62,1.64-1.75.96-.14,1.68.27,2.13,1.21.19.39.37.79.55,1.19.14.3.37.43.71.39.45-.06.89-.12,1.34-.12.99-.01,1.81.67,1.96,1.66.06.41.11.82.16,1.23.04.36.24.57.59.65.43.09.86.18,1.28.28.92.22,1.53.91,1.59,1.77.06.87-.44,1.63-1.32,1.98-1.75.69-3.5,1.37-5.26,2.06q-.5.2-.32.68c1.69,4.44-.84,9.48-5.4,10.77-.4.11-.81.17-1.21.24Z"/>
  <path class="cls-2" d="M13.84,102.73c-.78-.25-1.5-.64-2.14-1.14-.23-.18-.33-.12-.49.09-1.15,1.58-2.31,3.15-3.48,4.72-.78,1.05-2.21,1.13-3.06.17-.33-.37-.48-.81-.47-1.31.01-.49.03-.97.06-1.46.02-.37-.14-.6-.48-.72-.41-.15-.82-.3-1.22-.49-.89-.44-1.31-1.42-.99-2.36.13-.38.28-.75.41-1.13.16-.45.12-.61-.26-.92-.32-.27-.64-.52-.95-.79-.72-.62-.96-1.51-.62-2.29.35-.8,1.14-1.26,2.07-1.17,1.89.19,3.77.38,5.65.58.52.05.52.06.58-.45.52-4.73,5.13-8.07,9.76-7.09,1.19.25,2.3.71,3.27,1.45.23.18.35.15.52-.08,1.13-1.55,2.27-3.09,3.41-4.64.59-.81,1.41-1.1,2.26-.81.92.31,1.37,1.01,1.34,2.05-.01.44-.04.87-.05,1.31-.01.33.13.55.45.67.42.15.85.3,1.25.5.88.44,1.3,1.43.98,2.37-.13.39-.28.78-.42,1.16-.13.34-.05.62.23.85.34.28.68.55,1.01.84.71.62.95,1.51.6,2.3-.35.8-1.14,1.24-2.08,1.15-1.87-.19-3.74-.38-5.62-.58q-.54-.06-.6.46c-.53,4.72-5.09,8.04-9.73,7.1-.41-.08-.8-.22-1.19-.34Z"/>
  <circle class="cls-2" cx="139.27" cy="22.95" r="2.75"/>
  <circle class="cls-2" cx="179.27" cy="112.95" r="2.75"/>
  <circle class="cls-2" cx="326.35" cy="104.02" r="2.75"/>
  <circle class="cls-2" cx="282.37" cy="16.69" r="2.75"/>
  <circle class="cls-2" cx="482.77" cy="2.75" r="2.75"/>
  <circle class="cls-2" cx="462.96" cy="90.35" r="2.75"/>
  <circle class="cls-2" cx="679.2" cy="103.62" r="2.75"/>
  <circle class="cls-2" cx="647.34" cy="29.2" r="2.75"/>
  <path class="cls-2" d="M701.94,59.82c-.82.06-1.63-.03-2.41-.26-.28-.08-.35.01-.42.27-.48,1.9-.97,3.79-1.47,5.68-.33,1.27-1.63,1.87-2.78,1.3-.45-.22-.75-.58-.92-1.04-.17-.46-.33-.91-.49-1.37-.12-.35-.35-.5-.72-.49-.44.02-.87.03-1.31,0-.99-.08-1.74-.83-1.79-1.83-.02-.4-.03-.8-.04-1.2-.02-.48-.12-.61-.58-.76-.39-.13-.79-.25-1.18-.38-.9-.31-1.45-1.05-1.43-1.9.02-.88.59-1.59,1.49-1.85,1.82-.53,3.64-1.05,5.46-1.57.5-.14.5-.14.37-.63-1.28-4.58,1.75-9.4,6.42-10.22,1.2-.21,2.4-.2,3.57.13.28.08.38.01.45-.27.47-1.86.96-3.72,1.43-5.58.25-.97.9-1.55,1.8-1.59.97-.05,1.65.43,2.01,1.41.15.41.29.83.44,1.24.11.31.33.46.67.45.45-.02.9-.03,1.35,0,.99.08,1.74.84,1.79,1.83.02.41.03.83.04,1.24,0,.37.19.59.53.7.42.13.84.26,1.25.4.89.31,1.44,1.05,1.42,1.91-.02.87-.59,1.58-1.5,1.84-1.81.52-3.62,1.04-5.43,1.56q-.52.15-.38.65c1.27,4.58-1.73,9.36-6.39,10.21-.41.07-.82.09-1.23.12Z"/>
</svg>