<?xml version="1.0" encoding="UTF-8"?>
<svg id="Layer_1" data-name="Layer 1" xmlns="http://www.w3.org/2000/svg" xmlns:xlink="http://www.w3.org/1999/xlink" viewBox="0 0 535.66 569.13">
  <defs>
    <style>
      .cls-1 {
        clip-path: url(#clippath);
      }

      .cls-2 {
        fill: none;
      }

      .cls-2, .cls-3 {
        stroke-width: 0px;
      }

      .cls-3 {
        fill: #8f519a;
      }
    </style>
    <clipPath id="clippath">
      <rect class="cls-2" width="535.66" height="569.13"/>
    </clipPath>
  </defs>
  <g class="cls-1">
    <path class="cls-3" d="M303.03,32.48l-36.56-22.39c-12.62-7.73-29.14-3.19-36.03,9.9l-19.98,37.93c-4.99,9.48-15.37,14.85-25.99,13.46l-42.51-5.59c-14.67-1.93-27.91,8.94-28.89,23.7l-2.82,42.78c-.71,10.69-8,19.82-18.27,22.87l-41.1,12.19c-14.18,4.21-21.86,19.52-16.75,33.4l14.82,40.23c3.71,10.06.76,21.36-7.39,28.32l-32.59,27.85c-11.25,9.61-12.03,26.73-1.71,37.33l29.9,30.72c7.48,7.68,9.38,19.2,4.77,28.88l-18.45,38.7c-6.37,13.35-.12,29.31,13.62,34.8l39.81,15.9c9.95,3.98,16.38,13.73,16.1,24.44l-1.11,42.86c-.38,14.79,11.81,26.83,26.59,26.25l42.84-1.67c10.71-.42,20.55,5.88,24.65,15.78l16.41,39.6c5.66,13.67,21.7,19.7,34.97,13.17l38.46-18.95c9.61-4.74,21.16-2.98,28.94,4.39l31.1,29.5c10.73,10.18,27.84,9.17,37.3-2.2l27.43-32.95c6.86-8.24,18.12-11.33,28.22-7.76l40.41,14.3c13.95,4.94,29.16-2.94,33.18-17.18l11.65-41.26c2.91-10.31,11.94-17.72,22.63-18.57l42.74-3.37c14.75-1.16,25.45-14.55,23.33-29.19l-6.14-42.43c-1.53-10.61,3.7-21.05,13.12-26.17l37.67-20.46c13-7.06,17.33-23.64,9.44-36.16l-22.86-36.27c-5.72-9.07-5.18-20.73,1.34-29.24l26.09-34.02c9-11.74,6.21-28.64-6.08-36.87l-35.64-23.83c-8.91-5.96-13.17-16.83-10.67-27.26l10-41.69c3.45-14.39-5.97-28.7-20.55-31.21l-42.25-7.28c-10.56-1.82-18.87-10.02-20.83-20.56l-7.82-42.15c-2.7-14.55-17.13-23.78-31.47-20.15l-41.56,10.54c-10.39,2.63-21.32-1.48-27.39-10.31l-24.29-35.33c-8.38-12.19-25.32-14.76-36.94-5.61l-33.68,26.53c-8.42,6.63-20.08,7.32-29.22,1.72Z"/>
  </g>
</svg>