<?xml version="1.0" encoding="UTF-8"?>
<svg id="Layer_1" data-name="Layer 1" xmlns="http://www.w3.org/2000/svg" viewBox="0 0 314.99 66.33">
  <defs>
    <style>
      .cls-1 {
        fill: #fff;
        stroke-width: 0px;
      }

      .cls-2 {
        fill: #d3587c;
        stroke: #fff;
        stroke-miterlimit: 10;
        stroke-width: 4px;
      }
    </style>
  </defs>
  <path class="cls-2" d="M312.62,4.12c.78-.78.23-2.12-.88-2.12H3.24c-1.11,0-1.66,1.34-.88,2.12l28.17,28.17c.49.49.49,1.27,0,1.76L2.37,62.21c-.78.78-.23,2.12.88,2.12h308.5c1.11,0,1.66-1.34.88-2.12l-28.17-28.17c-.49-.49-.49-1.27,0-1.76l28.17-28.17Z"/>
  <g>
    <path class="cls-1" d="M118.98,28.55h13.53c1.05,0,3.15.13,3.15,3.02,0,2.52-.88,3.49-3.15,3.49h-13.53v14.91c0,1.89-.71,3.11-3.07,3.11-.67,0-2.39-.08-2.9-.5-.92-.76-.92-2.1-.92-2.6v-14.91h-13.44c-1.39,0-3.11-.38-3.11-2.98s.76-3.53,3.11-3.53h13.44v-7.18c-2.18.08-9.37.29-11.13.29-.97,0-3.07,0-3.07-2.98,0-3.15,1.72-3.11,4.75-3.15.97,0,11.93-.29,19.58-1.26,1.51-.17,3.07-.42,4.62-.67.71-.13,1.68-.29,2.27-.29,1.05,0,1.76.29,2.23.8.76.88,1.01,2.1,1.01,2.94,0,1.97-1.09,2.6-3.15,2.94-3.53.55-6.34.8-10.21,1.09v7.48-.02Z"/>
    <path class="cls-1" d="M162.41,15.32c.04-1.09.5-2.23,2.81-2.23,2.48,0,3.28.71,3.32,2.23h6.13c.84,0,2.98.13,2.98,2.48,0,1.97-1.39,2.52-2.98,2.52h-6.13c-.04.29-.04.38-.13.63,1.55,0,3.4.17,3.4,1.81v.59h3.24c1.22,0,2.56.29,2.56,2.27,0,1.76-.92,2.31-2.56,2.31h-3.24c0,3.95-1.09,4.45-4.75,4.45h-7.73c-1.89,0-3.4,0-4.2-1.26-.59-.92-.59-1.64-.59-3.19h-5.21v4.41c0,.63.34,1.05,1.05,1.05h22.77c.63,0,2.44,0,2.44,2.14,0,1.55-.59,2.35-2.44,2.35h-12.39v1.22h14.28c.92,0,2.56.08,2.56,2.39,0,2.02-1.22,2.39-2.56,2.39h-8.7c3.24,1.85,5.63,2.39,6.76,2.65,2.44.5,3.91.88,3.91,2.9,0,.59-.17,1.47-.71,2.14-.46.59-1.09.84-2.02.84-3.23,0-10.04-3.15-13.53-6.38v4.16c0,1.26-.29,3.02-2.9,3.02-2.27,0-3.4-.63-3.4-3.02v-4.24c-4.5,4.16-11.72,6.47-13.48,6.47-2.18,0-2.86-1.85-2.86-2.94,0-2.02,1.39-2.35,4.07-2.98,1.22-.29,4.5-1.34,6.68-2.6h-8.65c-.67,0-2.6,0-2.6-2.39s1.81-2.39,2.6-2.39h14.24v-1.22h-6.22c-3.11,0-4.96-1.01-4.96-4.96v-5h-3.15c-1.13,0-2.52-.21-2.52-2.27,0-1.68.84-2.31,2.52-2.31h3.15v-.59c0-1.68,1.68-1.93,3.65-1.81-.04-.21-.08-.29-.08-.63h-6.26c-.84,0-2.98-.13-2.98-2.48,0-1.93,1.39-2.52,2.98-2.52h6.26c.04-1.26.76-2.23,2.81-2.23,2.52,0,3.28.71,3.32,2.23h9.44ZM165.52,22.72c0-.11.01-.25.04-.42-1.64.04-3.11-.34-3.15-1.97h-9.41c-.21,2.14-2.9,2.02-3.7,1.97,0,.13.04.25.04.42v.63h5.21v-.59c0-1.68,1.47-1.89,3.02-1.89,1.81,0,2.94.38,2.94,1.89v.59h5v-.63h0ZM160.52,27.92v.8c0,.38.21.71.71.71h3.57c.55,0,.71-.38.71-.71v-.8h-5,.01Z"/>
    <path class="cls-1" d="M189.71,49.39c-1.55,1.01-4.96,3.07-6.59,3.07-2.14,0-3.36-2.31-3.36-3.82,0-1.81,1.3-2.31,3.32-3.07,1.72-.67,3.78-1.85,5.42-2.86.59-.38,1.18-.55,1.81-.55,1.89,0,3.07,2.02,3.07,3.4s-1.72,2.56-3.66,3.82h0ZM202.69,42.08v8.11c0,.5,0,1.85-.97,2.56-.42.38-2.06.5-2.65.5-2.1,0-2.9-1.01-2.9-3.07v-8.11h-9.87c-3.32,0-5.08-1.18-5.08-5.12v-18.69c0-2.73,1.43-3.07,3.32-3.07,2.27,0,2.94,1.18,2.94,3.07v16.8c0,.8.42,1.18,1.13,1.18h27.77c2.81,0,3.02,1.6,3.02,3.07,0,2.23-1.34,2.77-3.02,2.77h-6.72c.46.13.84.21,2.69,1.34,1.34.8,2.81,1.6,4.2,2.23,1.76.8,2.9,1.43,2.9,2.94s-1.3,3.82-3.44,3.82c-1.64,0-5.04-2.27-6.76-3.4-3.02-1.97-3.45-2.65-3.45-3.78,0-1.3.84-2.73,2.39-3.15h-5.5,0ZM216.38,29.73c0,3.99-1.89,5-4.96,5h-16.8c-3.15,0-5-1.09-5-5v-10.67c0-3.91,1.85-5,5-5h16.8c3.07,0,4.96,1.01,4.96,5v10.67h0ZM210.34,20.32v-.92c0-.5-.25-.8-.76-.8h-13.19c-.5,0-.8.29-.8.8v.92h14.75ZM210.34,23.68h-14.74v1.64h14.74v-1.64ZM210.34,28.68h-14.74v.88c0,.5.25.8.8.8h13.19c.55,0,.76-.38.76-.8v-.88h-.01Z"/>
  </g>
</svg>