<?xml version="1.0" encoding="UTF-8"?>
<svg id="Layer_1" data-name="Layer 1" xmlns="http://www.w3.org/2000/svg" viewBox="0 0 314.5 62.33">
  <defs>
    <style>
      .cls-1 {
        fill: #eac947;
        stroke: #fff;
        stroke-linejoin: round;
        stroke-width: 4px;
      }

      .cls-2 {
        fill: #fff;
        stroke-width: 0px;
      }
    </style>
  </defs>
  <path class="cls-1" d="M310.33,2H8.08c-3.36,0-6.08,2.72-6.08,6.08v46.17c0,3.36,2.72,6.08,6.08,6.08h302.68c1.26,0,2.1-1.31,1.58-2.46l-11.96-26.19,11.55-27.27c.48-1.14-.36-2.41-1.6-2.41Z"/>
  <g>
    <path class="cls-2" d="M35.5,34.68c4.33,0,5.21.8,5.21,5.21v1.93c0,1.01,0,2.52-.42,3.4,1.89.08,2.06.08,2.06-1.13v-10.92h-15c-.76,0-2.65,0-2.65-2.6s1.76-2.65,3.07-2.65c-1.39-.84-1.43-2.48-1.43-2.73,0-1.6.67-1.89,3.07-2.73,1.13-.42,2.73-1.01,3.91-2.73h-4.83c-.67,0-2.6,0-2.6-2.56s1.89-2.56,2.6-2.56h6.26c.17-1.6.34-3.02,3.07-3.02,3.24,0,2.98,1.97,2.9,3.02h7.27c.67,0,2.65,0,2.65,2.56s-1.93,2.56-2.65,2.56h-4.75c2.23,1.97,3.19,2.27,6.43,3.24.29.08,1.43.63,1.43,2.18,0,.67-.25,2.02-1.34,2.81,1.39.21,1.81,1.43,1.81,2.56,0,1.34-.55,2.65-2.23,2.65h-1.22v13.15c0,4.45-.63,5.25-6.72,5.25-3.36,0-5.17-.17-5.17-3.23,0-.63.13-1.01.17-1.3h-4.83c-4.37,0-5.21-.8-5.21-5.21v-.63c-.13,1.64-1.22,2.06-2.73,2.69-1.81.76-7.86,3.11-9.45,3.11-2.06,0-2.69-2.35-2.69-3.53,0-1.05.38-2.02,1.39-2.48.25-.13,2.69-.76,3.19-.92v-11.59h-1.47c-1.13,0-3.07-.17-3.07-2.81,0-2.18.67-3.28,3.07-3.28h1.47v-7.39c0-1.3.34-3.07,2.9-3.07,2.27,0,3.36.67,3.36,3.07v7.39h1.18c.71,0,2.65,0,2.65,2.9,0,2.39-.84,3.19-2.6,3.19h-1.22v9.79c.71-.21,1.18-.34,1.64-.34,1.68,0,2.31,1.68,2.39,2.86v-.88c0-4.37.84-5.21,5.21-5.21h3.95ZM46.6,27.92c-3.95-1.3-6.81-4.33-8.02-6.3-.97,1.72-3.36,5-7.6,6.3h15.63ZM35.8,39.77c0-.55-.25-.8-.8-.8h-2.81c-.55,0-.8.29-.8.8v1.85c0,.55.25.8.8.8h2.81c.5,0,.8-.25.8-.8v-1.85Z"/>
    <path class="cls-2" d="M77.04,27.25h10.67c.92,0,2.94.21,2.94,2.94s-1.26,3.28-2.94,3.28h-10.67v10.63h13.48c.71,0,3.11,0,3.11,2.98,0,2.73-1.39,3.28-3.11,3.28h-33.61c-.71,0-3.11,0-3.11-2.98,0-2.6,1.26-3.28,3.11-3.28h13.4v-10.63h-10.5c-1.05,0-2.94-.29-2.94-2.94s1.22-3.28,2.94-3.28h10.5v-7.86h-12.22c-.71,0-3.15,0-3.15-2.98,0-2.73,1.47-3.23,3.15-3.23h31.3c.71,0,3.11,0,3.11,2.98,0,2.65-1.39,3.23-3.11,3.23h-12.35v7.86ZM87.29,36.7c1.68,1.93,2.06,2.6,2.06,3.61,0,1.89-2.06,3.28-3.61,3.28-1.18,0-1.39-.25-3.03-2.14-1.09-1.26-2.48-2.81-2.48-2.86-.13-.17-.67-.92-.67-1.81,0-1.05,1.13-3.07,3.66-3.07.84,0,1.55.04,4.07,2.98Z"/>
    <path class="cls-2" d="M105.81,48c-1.55,1.01-4.96,3.07-6.59,3.07-2.14,0-3.36-2.31-3.36-3.82,0-1.81,1.3-2.31,3.32-3.07,1.72-.67,3.78-1.85,5.42-2.86.59-.38,1.18-.55,1.81-.55,1.89,0,3.07,2.02,3.07,3.4s-1.72,2.56-3.66,3.82ZM118.79,40.69v8.11c0,.5,0,1.85-.97,2.56-.42.38-2.06.5-2.65.5-2.1,0-2.9-1.01-2.9-3.07v-8.11h-9.87c-3.32,0-5.08-1.18-5.08-5.12v-18.69c0-2.73,1.43-3.07,3.32-3.07,2.27,0,2.94,1.18,2.94,3.07v16.8c0,.8.42,1.18,1.13,1.18h27.77c2.81,0,3.02,1.6,3.02,3.07,0,2.23-1.34,2.77-3.02,2.77h-6.72c.46.13.84.21,2.69,1.34,1.34.8,2.81,1.6,4.2,2.23,1.76.8,2.9,1.43,2.9,2.94s-1.3,3.82-3.44,3.82c-1.64,0-5.04-2.27-6.76-3.4-3.02-1.97-3.45-2.65-3.45-3.78,0-1.3.84-2.73,2.39-3.15h-5.5ZM132.48,28.34c0,3.99-1.89,5-4.96,5h-16.8c-3.15,0-5-1.09-5-5v-10.67c0-3.91,1.85-5,5-5h16.8c3.07,0,4.96,1.01,4.96,5v10.67ZM126.44,18.93v-.92c0-.5-.25-.8-.76-.8h-13.19c-.5,0-.8.29-.8.8v.92h14.74ZM126.44,22.29h-14.74v1.64h14.74v-1.64ZM126.44,27.29h-14.74v.88c0,.5.25.8.8.8h13.19c.55,0,.76-.38.76-.8v-.88Z"/>
  </g>
  <path class="cls-2" d="M270.07,10.23c-11.56,0-20.93,9.37-20.93,20.93s9.37,20.93,20.93,20.93,20.93-9.37,20.93-20.93-9.37-20.93-20.93-20.93ZM279.38,32.15l-9.31,9.88-9.31-9.88c-.8-.88-.74-2.24.14-3.04.86-.78,2.18-.74,2.99.09l4.02,4.27v-11.01c0-1.19.96-2.15,2.15-2.15s2.15.96,2.15,2.15v11.01l4.03-4.27c.83-.85,2.19-.87,3.04-.04.83.81.87,2.13.09,2.99Z"/>
</svg>