<?xml version="1.0" encoding="UTF-8"?>
<svg id="Layer_1" data-name="Layer 1" xmlns="http://www.w3.org/2000/svg" viewBox="0 0 138.09 21.65">
  <defs>
    <style>
      .cls-1 {
        fill: #f08812;
        stroke-width: 0px;
      }
    </style>
  </defs>
  <g id="Group_385" data-name="Group 385">
    <path id="Icon_awesome-star" data-name="Icon awesome-star" class="cls-1" d="M10.1.75l-2.76,5.6-6.18.9c-.74.11-1.25.8-1.14,1.54.04.29.18.56.39.77l4.47,4.36-1.06,6.15c-.13.74.37,1.43,1.1,1.56.29.05.59,0,.86-.14l5.53-2.91,5.53,2.91c.66.35,1.48.09,1.83-.57.14-.26.19-.56.14-.85l-1.06-6.15,4.47-4.35c.54-.52.55-1.38.02-1.91-.21-.21-.48-.35-.77-.39l-6.18-.9L12.52.75c-.33-.67-1.14-.94-1.81-.61-.27.13-.48.35-.61.61Z"/>
    <path id="Icon_awesome-star-2" data-name="Icon awesome-star-2" class="cls-1" d="M38.96.75l-2.76,5.6-6.18.9c-.74.11-1.25.8-1.14,1.54.04.29.18.56.39.77l4.47,4.36-1.06,6.15c-.13.74.37,1.43,1.1,1.56.29.05.59,0,.86-.14l5.53-2.91,5.53,2.91c.66.35,1.48.09,1.83-.57.14-.26.19-.56.14-.85l-1.06-6.15,4.47-4.35c.54-.52.55-1.38.02-1.91-.21-.21-.48-.35-.77-.39l-6.18-.9-2.76-5.6c-.33-.67-1.14-.94-1.81-.61-.27.13-.48.35-.61.61Z"/>
    <path id="Icon_awesome-star-3" data-name="Icon awesome-star-3" class="cls-1" d="M67.83.75l-2.76,5.6-6.18.9c-.74.11-1.25.8-1.14,1.54.04.29.18.56.39.77l4.47,4.36-1.06,6.15c-.13.74.37,1.43,1.1,1.56.29.05.59,0,.86-.14l5.53-2.91,5.53,2.91c.66.35,1.48.09,1.83-.57.14-.26.19-.56.14-.85l-1.06-6.15,4.47-4.35c.54-.52.55-1.38.02-1.91-.21-.21-.48-.35-.77-.39l-6.18-.9-2.76-5.6c-.33-.67-1.14-.94-1.81-.61-.27.13-.48.35-.61.61Z"/>
    <path id="Icon_awesome-star-4" data-name="Icon awesome-star-4" class="cls-1" d="M96.7.75l-2.76,5.6-6.18.9c-.74.11-1.25.8-1.14,1.54.04.29.18.56.39.77l4.47,4.36-1.06,6.15c-.13.74.37,1.43,1.1,1.56.29.05.59,0,.86-.14l5.53-2.91,5.53,2.91c.66.35,1.48.09,1.83-.57.14-.26.19-.56.14-.85l-1.06-6.15,4.47-4.35c.54-.52.55-1.38.02-1.91-.21-.21-.48-.35-.77-.39l-6.18-.9-2.76-5.6c-.33-.67-1.14-.94-1.81-.61-.27.13-.48.35-.61.61Z"/>
    <path id="Icon_awesome-star-5" data-name="Icon awesome-star-5" class="cls-1" d="M125.56.75l-2.76,5.6-6.18.9c-.74.11-1.25.8-1.14,1.54.04.29.18.56.39.77l4.47,4.36-1.06,6.15c-.13.74.37,1.43,1.1,1.56.29.05.59,0,.86-.14l5.53-2.91,5.53,2.91c.66.35,1.48.09,1.83-.57.14-.26.19-.56.14-.85l-1.06-6.15,4.47-4.35c.54-.52.55-1.38.02-1.91-.21-.21-.48-.35-.77-.39l-6.18-.9-2.76-5.6c-.33-.67-1.14-.94-1.81-.61-.27.13-.48.35-.61.61Z"/>
  </g>
</svg>