<?xml version="1.0" encoding="UTF-8"?>
<svg id="Layer_1" data-name="Layer 1" xmlns="http://www.w3.org/2000/svg" viewBox="0 0 138.09 21.65">
  <defs>
    <style>
      .cls-1 {
        fill: none;
      }

      .cls-1, .cls-2 {
        stroke-width: 0px;
      }

      .cls-2 {
        fill: #f08812;
      }
    </style>
  </defs>
  <path id="Icon_awesome-star" data-name="Icon awesome-star" class="cls-2" d="M10.1.75l-2.76,5.6-6.18.9c-.74.11-1.25.8-1.14,1.54.04.29.18.56.39.77l4.47,4.36-1.06,6.15c-.13.74.37,1.43,1.1,1.56.29.05.59,0,.86-.14l5.53-2.91,5.53,2.91c.66.35,1.48.09,1.83-.57.14-.26.19-.56.14-.85l-1.06-6.15,4.47-4.35c.54-.52.55-1.38.02-1.91-.21-.21-.48-.35-.77-.39l-6.18-.9L12.52.75c-.33-.67-1.14-.94-1.81-.61-.27.13-.48.35-.61.61Z"/>
  <path id="Icon_awesome-star-2" data-name="Icon awesome-star-2" class="cls-2" d="M38.96.75l-2.76,5.6-6.18.9c-.74.11-1.25.8-1.14,1.54.04.29.18.56.39.77l4.47,4.36-1.06,6.15c-.13.74.37,1.43,1.1,1.56.29.05.59,0,.86-.14l5.53-2.91,5.53,2.91c.66.35,1.48.09,1.83-.57.14-.26.19-.56.14-.85l-1.06-6.15,4.47-4.35c.54-.52.55-1.38.02-1.91-.21-.21-.48-.35-.77-.39l-6.18-.9-2.76-5.6c-.33-.67-1.14-.94-1.81-.61-.27.13-.48.35-.61.61Z"/>
  <path id="Icon_awesome-star-3" data-name="Icon awesome-star-3" class="cls-2" d="M67.83.75l-2.76,5.6-6.18.9c-.74.11-1.25.8-1.14,1.54.04.29.18.56.39.77l4.47,4.36-1.06,6.15c-.13.74.37,1.43,1.1,1.56.29.05.59,0,.86-.14l5.53-2.91,5.53,2.91c.66.35,1.48.09,1.83-.57.14-.26.19-.56.14-.85l-1.06-6.15,4.47-4.35c.54-.52.55-1.38.02-1.91-.21-.21-.48-.35-.77-.39l-6.18-.9-2.76-5.6c-.33-.67-1.14-.94-1.81-.61-.27.13-.48.35-.61.61Z"/>
  <path id="Icon_awesome-star-4" data-name="Icon awesome-star-4" class="cls-2" d="M96.7.75l-2.76,5.6-6.18.9c-.74.11-1.25.8-1.14,1.54.04.29.18.56.39.77l4.47,4.36-1.06,6.15c-.13.74.37,1.43,1.1,1.56.29.05.59,0,.86-.14l5.53-2.91,5.53,2.91c.66.35,1.48.09,1.83-.57.14-.26.19-.56.14-.85l-1.06-6.15,4.47-4.35c.54-.52.55-1.38.02-1.91-.21-.21-.48-.35-.77-.39l-6.18-.9-2.76-5.6c-.33-.67-1.14-.94-1.81-.61-.27.13-.48.35-.61.61Z"/>
  <path class="cls-1" d="M125.56.75l-2.76,5.6-6.18.9c-.74.11-1.25.8-1.14,1.54.04.29.18.56.39.77l4.47,4.36-1.06,6.15c-.13.74.37,1.43,1.1,1.56.29.05.59,0,.86-.14l5.53-2.91,5.53,2.91c.66.35,1.48.09,1.83-.57.14-.26.19-.56.14-.85l-1.06-6.15,4.47-4.35c.54-.52.55-1.38.02-1.91-.21-.21-.48-.35-.77-.39l-6.18-.9-2.76-5.6c-.33-.67-1.14-.94-1.81-.61-.27.13-.48.35-.61.61Z"/>
  <path class="cls-2" d="M126.78,2.81l-2.65,5.37-5.92.86,4.29,4.18-1.01,5.89,5.3-2.78,5.3,2.78-1.01-5.89,4.29-4.18-5.92-.86-2.65-5.37M126.77,0c.48,0,.97.25,1.22.75l2.76,5.6,6.18.9c1.11.16,1.55,1.53.75,2.31l-4.47,4.36,1.06,6.15c.19,1.11-.98,1.94-1.96,1.43l-5.53-2.91-5.53,2.91c-.98.52-2.15-.31-1.96-1.43l1.06-6.15-4.47-4.36c-.8-.78-.36-2.15.75-2.31l6.18-.9,2.76-5.6c.25-.5.73-.75,1.21-.75Z"/>
</svg>