<?xml version="1.0" encoding="UTF-8"?>
<svg id="Layer_1" data-name="Layer 1" xmlns="http://www.w3.org/2000/svg" xmlns:xlink="http://www.w3.org/1999/xlink" viewBox="0 0 856 42.67">
  <defs>
    <style>
      .cls-1 {
        clip-path: url(#clippath);
      }

      .cls-2 {
        fill: none;
      }

      .cls-2, .cls-3, .cls-4 {
        stroke-width: 0px;
      }

      .cls-3 {
        fill: #fff;
      }

      .cls-4 {
        fill: #f08812;
      }
    </style>
    <clipPath id="clippath">
      <rect class="cls-2" width="856" height="42.67"/>
    </clipPath>
  </defs>
  <g class="cls-1">
    <path class="cls-3" d="M869.41,173.55l5.83-147.33c-4.2-.15-8.73-.42-8.74-1.15,0-3.12-14.89-10.51-14.88-7.6,0,.8-15.14,4.42-15.14,5.99,0,.14-14.8-9.17-14.8-7.61,0,.22-14.98,1.3-14.99-.12,0,1.19-14.99-.16-14.99,0,0,1.97-15.07,4.11-15.07,3.35,0,.75-14.86-6.56-14.86-5.38,0,2.83-15,1.89-15,.56,0-2.99-14.94-4.49-14.94-2.12,0-3.08-15.01,3.3-15.01.99-.02-6.9-15.17,3.78-15.16,7.37-.02-6.37-14.92,4.61-14.93-2.27,0-1.15-14.87-.17-14.88-4.57,0-2.79-14.98-1.67-14.98-.31,0-2.83-15.06,1.56-15.05,3.04.02,7.43-14.96-2.79-14.96-1.33-.01-4.45-15.01,5.34-15.01,1.35,0-1.99-14.93-2.91-14.93-2.95,0-1.54-14.91-6-14.9-4.28,0,1.69-15.08,13.1-15.1,5.83,0,3.79-14.87-4.5-14.87-6.23,0-.11-15.07,14.82-15.09,5.7,0-.32-15,5.93-15.01,1.55,0,.1-14.85-4.37-14.86-7.44,0,2.25-15.11,13.19-15.12,8.19,0,.49-14.91-6.06-14.91-4.69,0-2.52-14.93-4.89-14.92-4.31,0-3.82-15.03,6.69-15.04,3.75.02,6.14-15,5.08-15.01,1.97,0-1.27-15-3.66-14.99.4-.01-4.12-14.98-5.92-14.97-.91,0,2.59-14.91-9.02-14.91-7.4,0-2.1-14.98,6.34-14.99.27,0-1.19-15.03,4.75-15.03,4.77,0,.32-15.01,3.3-15.01,4.31,0-3.85-14.97-8.02-14.96-3.37-.02-9.67-14.97-7.01-14.96-4.78,0,2.3-14.98,1.15-14.99-.68,0,1.23-15,8.65-15,7.87,0-2.52-14.97-1.26-14.97-4.4,0,.56-14.98.17-14.98,0,.02,7.12-14.99-1.98-14.98.11,0-.49-14.97,6.32-14.97,3.07,0-.43-15.01-8.49-15.01-7.59,0-1.81-14.95,4.86-14.94,8.53,0-3.68-14.97,3.78-14.98-.59,0,.38-15.04-8.88-15.03-5.9,0-2.7-14.99-2.13-14.98.72,0-1.6-14.94,2.48-14.94,4.24,0,4.54-15,.17-15-1.56,0,1.79-15-1.86-15-.94,0-3.82-14.9,7.59-14.91,4.89,0,3.57-15.05-.72-15.06-4.22,0,1.61-14.1.94-14.1,1.65,0-5.48-14.19-2.44-14.18-.23,0,5.56-14.19-1.81-14.19.77,0-.31-12.95,7.78-12.95,7.93,0,2.15-14.46-2-14.46-.62,0-1.57-13.83,1.4-13.82,3.33,0,.53-1.37,1.28-3.21,2.07l-5.95,150.47,889.77-2.19-.03.03Z"/>
    <path class="cls-4" d="M867.87,556.88l5.3-478.18c-.56-.63-.92-1.02-.92-1.04,0,.04.72-17.1.73-16.45,0-.01-13.74-11.35-13.71-9.39,0,.33-3.06-17.86-3.05-16.63.03,2.64-13.36-7.79-13.33-5.63,0,.06-13.49-4.67-13.46-2.26,0-.23-12.99.59-13.03-2.73,0,.09-15.32-1.49-15.3.68-.02-1.79-15.18,2.68-15.19,1.38-.02-1.34-14.97-6.31-14.93-3.44-.04-2.99-15.18-4.15-15.12.52,0-.26-15.15-6.11-15.14-5.05,0,.39-15.07,7.17-15.09,5.95.05,3.79-15.21-3.87-15.23-5.08.07,5.7-14.84.44-14.81,2.27,0-.2-14.82,2.57-14.85-.15-.07-5.5-14.79,2.91-14.76,5.41-.03-2.69-14.96-6.13-14.96-5.97.05,3.9-14.81,3.81-14.87-.81-.08-6.32-14.78,4.28-14.78,4.12-.05-3.67-14.84,1.34-14.88-1.46-.04-3.49-14.74,7.44-14.77,4.54-.02-1.49-14.79,4.78-14.86-.2.04,3.11-14.91-5.49-14.82,1.79-.05-4.21-14.97-7.94-14.93-4.74-.02-1.68-14.93-6.51-14.86-.22,0,.7-14.78,4.15-14.77,5.02.04,3.39-14.84,1.09-14.85.27-.02-1.92-14.97-6.58-14.97-6.56,0-.49-14.83,1.02-14.82,1.58-.04-3.28-14.85.76-14.87-1.22.02,1.47-14.77,4.25-14.73,6.96-.02-1.99-14.88-1.85-14.86-.34-.04-2.91-14.9-2.57-14.92-4.14.04,3.46-14.83.92-14.8,2.93-.02-1.56-14.82,1.7-14.8,3.02.01,1.1-14.65,1.64-14.73-4.65-.05-3.96-14.69-2.81-14.67-1.96-.03-2.35-14.68-2.29-14.59,4.48.02,1.29-14.73-8.2-14.67-3.44-.06-4.54-14.57,13.77-14.66,6.81.06,5.09-14.67-2.25-14.67-2.03,0-.72-14.52,3.42-14.6-3.38.03,2.66-14.58,1.21-14.61-1.08-.02-1.73-14.94,1.66-14.9,4.92-.05-4.02-14.12-7.97-14.13-9.27-.02-1.95-14.9,8.23-14.95,3.81.04,2.89-14.21-1.67-14.24-4.5.07,5.53-14.57,3.01-14.61-.56-.05-3.62-14.48.43-14.51-1.73,0,.15-14.82.22-14.8,1.64-.03-2.38-14.25-10.73-14.21-7.09.08,6.51-14.8,2.51-14.81,2.28.03,2.39-14.77-4.6-14.74-1.6.07,5.95-14.66,3.1-14.67,2.09-.03-2.21-16.4.73-16.37,2.81-.03-2.04-16.36.43-16.33,2.62-.02-1.6-16.3,2.53-16.3,2.76-.07-5.76-15.5,1.58-15.44,6.48,0,.61-13.59,1.76-13.58,2.36-.02-1.4-13.63,1.52-13.62,2.18.04,3.41-14.29,1.36-14.31-.88.07,5.79-13.22,1.99-13.19,4.05,0-.68-.76-.6-1.89-.17l-5.49,483.13,888.3,35.15v.02Z"/>
  </g>
</svg>