<?xml version="1.0" encoding="UTF-8"?>
<svg id="Layer_1" data-name="Layer 1" xmlns="http://www.w3.org/2000/svg" viewBox="0 0 156.14 156.48">
  <defs>
    <style>
      .cls-1 {
        fill: #986bae;
        stroke-width: 0px;
      }
    </style>
  </defs>
  <path class="cls-1" d="M116.52,1.61c-8.25,2.91-14.51,9.51-22.83,12.17-9.05,2.9-18.87,2.38-28.07,1.31-16.28-1.9-42.72-6.22-55.74,7.74C-.15,33.58-2.38,50.43,2.46,64.15c4.84,13.72,15.87,24.38,28.54,30.91,7.97,4.11,16.82,6.87,23.54,12.86,11.84,10.55,15.86,27.36,27.72,38.18,9.93,9.06,24.57,12.74,37.63,8.84,22.38-6.69,39.39-37.28,22.2-57.18-4.78-5.53-10.62-10.69-12.4-17.9-1.22-4.96-.24-10.49,2.61-14.79,5.47-8.22,14.73-8.86,19.8-18.47,5.95-11.28,5.46-25.74-2.45-35.56-7.7-9.55-21.46-13.56-33.14-9.43Z"/>
</svg>