<?xml version="1.0" encoding="UTF-8"?>
<svg id="Layer_1" data-name="Layer 1" xmlns="http://www.w3.org/2000/svg" viewBox="0 0 169.6 156.35">
  <defs>
    <style>
      .cls-1 {
        fill: #582b66;
        stroke-width: 0px;
      }
    </style>
  </defs>
  <path class="cls-1" d="M30.61,25.97c-1.11,8.68,1.96,17.23.6,25.87-1.48,9.38-6.36,17.92-11.46,25.66-9.02,13.68-24.78,35.35-18.17,53.26,5.09,13.79,19.13,23.37,33.56,25.22,14.43,1.85,28.91-3.2,40.45-11.58,7.26-5.27,13.7-11.93,22.08-15.23,14.75-5.82,31.57-1.85,46.57-7.58,12.56-4.79,22.44-16.21,24.83-29.63,4.1-22.99-15.57-51.96-41.08-45.56-7.09,1.78-14.32,4.68-21.57,3.02-4.98-1.14-9.48-4.5-12.03-8.99-4.88-8.59-1.28-17.14-7.58-25.99C79.41,4.04,66.28-2.03,53.95.62c-11.99,2.58-21.76,13.07-23.34,25.35Z"/>
</svg>