<svg id="Group_503" data-name="Group 503" xmlns="http://www.w3.org/2000/svg" xmlns:xlink="http://www.w3.org/1999/xlink" width="73.602" height="52.493" viewBox="0 0 73.602 52.493">
  <defs>
    <clipPath id="clip-path">
      <rect id="Rectangle_127" data-name="Rectangle 127" width="73.602" height="52.493" fill="#fff"/>
    </clipPath>
  </defs>
  <g id="Group_148" data-name="Group 148" transform="translate(0 0)" clip-path="url(#clip-path)">
    <path id="Path_249" data-name="Path 249" d="M36.741,13.351c-.4.414-.773.825-1.166,1.219q-3.529,3.542-7.068,7.074a.868.868,0,0,0-.274.679q.011,12.157.009,24.313a3.487,3.487,0,0,1-6.946.526,7.23,7.23,0,0,1-.049-.845q0-5.024,0-10.045a3.657,3.657,0,0,0-.047-.627,1.053,1.053,0,0,0-1.184-.841.952.952,0,0,0-.954.967c-.02,1.65-.02,3.3-.023,4.949q-.006,2.973,0,5.944a3.481,3.481,0,0,1-6.5,1.923,4.212,4.212,0,0,1-.5-2.068q0-6.684,0-13.369V23.128a1.93,1.93,0,0,1,.007-.437,1.072,1.072,0,0,0-.43-1.068Q9.04,19.093,6.5,16.538q-2.638-2.631-5.271-5.265a3.662,3.662,0,0,1-1.151-1.9,3.4,3.4,0,0,1,1.409-3.58,3.318,3.318,0,0,1,3.873-.117A3.781,3.781,0,0,1,6.1,6.25q3.941,3.92,7.863,7.857a9.456,9.456,0,0,0,2.494,1.94,8.108,8.108,0,0,0,8.973-1.187c.8-.709,1.536-1.482,2.293-2.237,2.154-2.149,4.347-4.26,6.437-6.47a3.963,3.963,0,0,1,5.391.027c2.735,2.835,5.54,5.6,8.348,8.368a8.052,8.052,0,0,0,10.939.179c1.223-1.141,2.4-2.337,3.581-3.518C64.167,9.476,65.894,7.725,67.644,6a3.5,3.5,0,0,1,5.9,1.979,3.215,3.215,0,0,1-.932,2.956c-1.6,1.628-3.219,3.235-4.833,4.847q-3,3-6,5.983a.414.414,0,0,0-.1.44q.7,2.932,1.4,5.865,1.441,6.029,2.885,12.058c.016.07.02.142.034.246H61.653v.362q0,2.925,0,5.848a3.7,3.7,0,0,1-.739,2.386,3.372,3.372,0,0,1-3.448,1.286,3.26,3.26,0,0,1-2.7-2.628,5.056,5.056,0,0,1-.122-1.177c-.011-1.98-.006-3.962,0-5.944,0-.143-.053-.189-.179-.189L52.6,40.3c-.185,0-.169.132-.169.255q0,1.564-.006,3.13c0,1.011.01,2.022,0,3.033a3.541,3.541,0,0,1-1.147,2.638,3.474,3.474,0,0,1-5.678-1.665,4.186,4.186,0,0,1-.149-1.148c-.017-2.022-.014-4.044-.01-6.066,0-.2-.021-.275-.256-.272-1.31.016-2.622.009-3.934.009-.054,0-.11-.007-.185-.011a1.328,1.328,0,0,1,.016-.2q1.325-5.6,2.655-11.2c.516-2.177,1.027-4.353,1.551-6.527a.572.572,0,0,0-.176-.631c-1.486-1.456-2.951-2.931-4.425-4.4l-3.766-3.75c-.034-.033-.072-.064-.173-.155" transform="translate(0 2.154)" fill="#fff"/>
    <path id="Path_250" data-name="Path 250" d="M24.715,8.151A8.18,8.18,0,1,1,16.559,0a8.153,8.153,0,0,1,8.156,8.151" transform="translate(3.609 0)" fill="#fff"/>
    <path id="Path_251" data-name="Path 251" d="M47.978,8.173a8.182,8.182,0,0,1-16.363.077,8.182,8.182,0,1,1,16.363-.077" transform="translate(13.656 0.001)" fill="#fff"/>
  </g>
</svg>
