<svg id="Group_153" data-name="Group 153" xmlns="http://www.w3.org/2000/svg" xmlns:xlink="http://www.w3.org/1999/xlink" width="83.335" height="83.335" viewBox="0 0 83.335 83.335">
  <defs>
    <clipPath id="clip-path">
      <rect id="Rectangle_129" data-name="Rectangle 129" width="83.335" height="83.335" fill="#fff"/>
    </clipPath>
  </defs>
  <g id="Group_152" data-name="Group 152" transform="translate(0 0)" clip-path="url(#clip-path)">
    <path id="Path_253" data-name="Path 253" d="M41.938,0,48.91,70.081A29.027,29.027,0,0,1,17.871,56.1a2.311,2.311,0,1,1,3.972-2.308A24.345,24.345,0,0,0,40.051,65.887,24.321,24.321,0,0,0,67.076,46.315c2.571-13.441-6.138-26-18.734-28.448-9.806-1.907-18.181.958-24.584,8.818a22.488,22.488,0,0,0-4.54,9.945c1.363-1.021,2.61-1.977,3.88-2.9a2.291,2.291,0,0,1,3.426.606A2.225,2.225,0,0,1,26,37.269q-4.151,3.179-8.37,6.27A2.261,2.261,0,0,1,14.455,43q-3.1-4.068-6.13-8.183a2.288,2.288,0,1,1,3.659-2.748c.892,1.133,1.739,2.3,2.7,3.576.107-.4.182-.679.259-.958C18.164,22.994,25.73,15.666,37.55,13.244A28.981,28.981,0,0,1,48.91,70.081m-1.543-30.42c1.913-.007,3.826-.024,5.738-.025a2.286,2.286,0,1,1,.08,4.547c-2.479.013-4.971.148-7.432-.058a6.629,6.629,0,0,1-5.764-6.314c-.033-1.135,0-2.274,0-3.41H39.97c0-1.163-.014-2.327,0-3.489a2.27,2.27,0,1,1,4.541-.032c.028,1.99.008,3.98.012,5.97s.849,2.818,2.84,2.811" transform="translate(-0.271 0)" fill="#fff"/>
  </g>
</svg>
