<svg id="Group_151" data-name="Group 151" xmlns="http://www.w3.org/2000/svg" xmlns:xlink="http://www.w3.org/1999/xlink" width="41.131" height="60.03" viewBox="0 0 41.131 60.03">
  <defs>
    <clipPath id="clip-path">
      <rect id="Rectangle_128" data-name="Rectangle 128" width="41.131" height="60.03" fill="#fff"/>
    </clipPath>
  </defs>
  <g id="Group_150" data-name="Group 150" clip-path="url(#clip-path)">
    <path id="Path_252" data-name="Path 252" d="M41.131,20.442a30.177,30.177,0,0,1-1.888,9.891,86.1,86.1,0,0,1-11.579,21.14c-1.859,2.6-3.84,5.109-5.8,7.633-.959,1.235-1.622,1.228-2.591.015C13.725,52.176,8.547,44.982,4.667,36.941A48.326,48.326,0,0,1,.355,24.615,20.579,20.579,0,0,1,16.364.5c7.341-1.556,13.758.585,19.016,5.923a19.769,19.769,0,0,1,5.75,14.023M20.524,31.392a9.916,9.916,0,1,0-9.9-9.94,9.879,9.879,0,0,0,9.9,9.94" transform="translate(0 0)" fill="#fff"/>
  </g>
</svg>
