<?xml version="1.0" encoding="UTF-8"?>
<svg id="Layer_1" data-name="Layer 1" xmlns="http://www.w3.org/2000/svg" viewBox="0 0 212.5 212.5">
  <defs>
    <style>
      .cls-1 {
        fill: #fff;
      }

      .cls-2 {
        fill: #37376e;
      }
    </style>
  </defs>
  <circle class="cls-2" cx="106.25" cy="106.25" r="106.25"/>
  <circle class="cls-1" cx="86.82" cy="59.92" r="22.82"/>
  <path class="cls-1" d="M110.01,169.7c-1.83,0-3.31-1.48-3.31-3.31v-46.27c0-6.08,2.12-11.66,5.64-16.05-4.96-9.6-14.97-16.17-26.53-16.17-16.49,0-29.85,13.36-29.85,29.85v53.8c0,2.13,1.72,3.85,3.85,3.85h52c2.13,0,3.85-1.72,3.85-3.85v-1.85h-5.66Z"/>
  <path class="cls-1" d="M152.53,164.42c1.57,0,2.85-1.27,2.85-2.85v-39.77c0-12.19-9.88-22.07-22.07-22.07h0c-12.19,0-22.07,9.88-22.07,22.07v39.77c0,1.57,1.27,2.85,2.85,2.85h38.44Z"/>
  <circle class="cls-1" cx="134.13" cy="76.13" r="18.69"/>
</svg>