<?xml version="1.0" encoding="UTF-8"?>
<svg id="Layer_1" data-name="Layer 1" xmlns="http://www.w3.org/2000/svg" viewBox="0 0 487.07 466.36">
  <defs>
    <style>
      .cls-1 {
        fill: #f79531;
      }

      .cls-2 {
        fill: #e3683b;
      }

      .cls-3 {
        fill: #e6e4d0;
      }

      .cls-4 {
        fill: #94181b;
      }

      .cls-5 {
        fill: #f9b64b;
      }

      .cls-6 {
        fill: #7a88c3;
      }

      .cls-7 {
        fill: #db7427;
      }

      .cls-8 {
        fill: #fff;
      }

      .cls-9 {
        fill: #93cef0;
      }

      .cls-10 {
        fill: #fff1db;
      }

      .cls-11 {
        fill: #fcb42a;
      }

      .cls-12 {
        fill: #fff58a;
      }

      .cls-13 {
        fill: #ffe171;
      }

      .cls-14 {
        fill: #f8ab91;
      }

      .cls-15 {
        fill: #a63238;
      }

      .cls-16 {
        fill: #86addb;
      }

      .cls-17 {
        fill: #bb5427;
      }

      .cls-18 {
        fill: #f05c22;
      }

      .cls-19 {
        fill: #f38063;
      }

      .cls-20 {
        fill: #f37a64;
      }
    </style>
  </defs>
  <g>
    <path class="cls-1" d="M366.46,86.29c-.41,3.23-.29,7.22,2.71,9.22.46.31.95.54,1.45.71.25.46.51.91.78,1.36,2.32,3.6,5.43,6.73,8.97,9.14,3.88,2.64,8.45,4.31,13.17,4.28,5.51-.04,10.73-2.19,15.39-4.99,4.13-2.49,7.88-5.64,11.07-9.25,3.63-4.11,6.48-8.89,8.49-13.99.05-.13.26-.08.21.06-.02.07-.05.13-.07.2,1.19,1.55,1.97,3.42,3.42,4.77,1.18,1.1,3.56,1.89,4.74.3.65-.88.47-2.25.28-3.26-.19-1.01-.54-2-1.03-2.91-.51-.94-1.15-1.8-1.93-2.54-.71-.67-1.8-1.2-2.18-2.14-.37-.89.09-1.84.59-2.58.66-.99,1.38-1.92,1.97-2.97,1.14-2.04,1.91-4.32,1.9-6.67,0-1.17-.2-2.32-.62-3.41-.37-.95-.96-2.16-1.9-2.65-2.21-1.15-3.74,2.66-4.35,4.12-1.01,2.43-1.61,5-2.01,7.59-.21,1.36-.36,2.73-.48,4.1,0,.04,0,.08,0,.11-.05-.07-.09-.13-.14-.2-.02.09-.05.17-.07.26-2.03-2.54-4.04-5.1-6.21-7.51-2.72-3.02-5.61-5.9-8.65-8.6-1.48-1.32-3.04-2.67-4.68-3.95-4.83-3.77-10.33-6.89-16.55-6.46-4.06.28-7.4,2.42-10.01,5.43-2.57,2.96-4.65,6.39-6.54,9.82-1.95,3.54-3.58,7.25-4.88,11.08-1.26,3.72-2.32,7.61-2.82,11.52Z"/>
    <path class="cls-18" d="M381.89,46.98c-1.2,2.34-2.12,4.78-2.88,7.28,2.06-2.53,4.49-4.78,7.61-5.9,3.89-1.4,8.3-.9,12.09.57,2.75,1.06,5.25,2.6,7.61,4.34-.23-1.51-.56-3.01-1.05-4.46-1.11-3.28-3.12-6.42-6.14-8.23-2.86-1.7-6.45-1.98-9.6-.95-3.61,1.18-5.95,4.07-7.63,7.34Z"/>
    <path class="cls-18" d="M379.86,107.44c-.02.55,0,1.11.04,1.67.11,1.47.16,3.41,1.3,4.51,1.41,1.36,3.44.29,4.58-.87.53-.54.99-1.15,1.4-1.81-2.05-.6-4.02-1.48-5.83-2.56-.5-.3-1-.61-1.48-.94Z"/>
    <path class="cls-11" d="M407.08,55.28c-3.69-3.17-7.89-6.27-12.76-6.54-6.8-.38-12.6,4.86-16.53,10.42-4.78,6.76-8.12,14.53-9.73,22.65-.68,3.42-.79,7.57,1.96,9.71,2.08,1.62,5.08,1.41,7.55.49,4.87-1.81,8.52-5.82,12.63-8.99,6.37-4.92,14.21-7.84,22.22-8.52,1.96-.17,3.94-.2,5.91-.09,1,.05,5.28,1.21,5.98.74,1.87-1.25-4.85-7.7-6-8.96-3.52-3.86-7.28-7.5-11.24-10.91Z"/>
    <path class="cls-18" d="M427.82,72.11c.03-1.24.19-2.49.34-3.72.25-2.19.51-4.77,1.85-6.62.67-.92,1.58-1.69,2.74-1.87.86-.14,1.71,0,2.35.63.52.51.67,1.18.77,1.87.3,2.2-.03,4.55-.73,6.66-.81,2.46-2.14,4.7-3.93,6.57-1.13,1.19-3.24.28-3.22-1.33,0,0,0,0,0,0,0-.01-.01-.03-.01-.04-.19-.69-.17-1.43-.15-2.13Z"/>
    <path class="cls-18" d="M428.54,79.72c.09-.16.2-.3.34-.43.04-.78.7-1.49,1.52-1.46.18,0,.18.01,0,.04.13-.02.26-.04.39-.05.41-.02.8.16,1.14.37.41.25.84.55,1.19.88.57.55,1.06,1.19,1.54,1.81,1.02,1.32,1.81,2.82,2.12,4.47.18.93-.05,1.82-.82,2.41-.7.54-1.78.68-2.55.18-1.29-.83-2.4-1.84-3.33-3.05-1.06-1.37-2.49-3.43-1.53-5.16Z"/>
    <path class="cls-18" d="M373.41,99.89c-.2.02-.4.04-.6.06-.43-.51-.85-1.03-1.25-1.56-.07-.13-.15-.26-.22-.39.54-.21,1.16-.22,1.76-.26.84-.06,1.68-.18,2.5-.35.82-.17,1.64-.32,2.45-.55.4-.11.8-.21,1.21-.29.47-.1.97-.08,1.44-.21.26-.07.5.28.28.47-.35.29-.61.66-.99.93-.39.29-.8.54-1.25.73-.83.37-1.69.72-2.58.94-.9.22-1.83.37-2.75.48Z"/>
    <path class="cls-12" d="M381.36,49.58c.1-.44.13-.9.28-1.32.15-.42.35-.83.53-1.23.38-.83.87-1.6,1.39-2.35,1-1.44,2.19-2.8,3.64-3.8,1.37-.95,3.02-1.57,4.67-1.79,1.52-.2,3.34-.08,4.56.94.11.09.02.31-.12.29-.76-.08-1.51-.25-2.27-.25-.74,0-1.47.06-2.19.22-1.52.34-2.9,1.07-4.12,2.03-1.27,1-2.33,2.25-3.22,3.6-.43.65-.82,1.33-1.23,2-.2.32-.36.71-.6,1.01-.24.31-.52.58-.75.91-.2.28-.65.12-.57-.24Z"/>
    <path class="cls-12" d="M365.92,88.43c.07-2.17.61-4.34,1.25-6.4,1.24-4.01,2.74-7.95,4.44-11.79,1.67-3.79,3.53-7.49,5.61-11.07,2-3.43,4.16-6.77,7.38-9.18.81-.61,1.67-1.12,2.6-1.53.97-.42,2.13-.61,3.17-.75.99-.13,2.07.02,3.03.28.96.25,1.77.82,2.62,1.32.21.13.07.5-.18.42-1.53-.54-3.3-.08-4.8.35-.39.11-.78.22-1.16.36-.36.13-.66.36-.99.56-.65.4-1.4.77-1.97,1.21-1.35,1.04-2.5,2.39-3.39,3.67-1.03,1.47-1.97,3-2.86,4.56-3.88,6.77-6.86,13.65-9.09,21.12-.62,2.08-1.2,4.19-1.55,6.34-.05.28-.1.57-.15.85-.02.11-.04.21-.05.32,0,.06-.04.27-.04.3-.06.51-.1,1.02-.11,1.53-.03,1.14-.08,2.23-.32,3.35-.17.77-1.25,1.04-1.78.47-1.57-1.7-1.71-4.07-1.64-6.28Z"/>
    <path class="cls-12" d="M404.78,73.64c.27-.56,1-1.09,1.58-1.19.48-.08.95-.14,1.42,0,.6.16,1.16.63,1.45,1.18.33.63.39,1.27.11,1.93-.23.55-.76,1.17-1.4,1.25-.51.07-.85.15-1.36.01-.27-.08-.49-.2-.7-.35h0c-.3-.2-.6-.41-.83-.7-.53-.66-.65-1.36-.28-2.13Z"/>
    <path class="cls-12" d="M391.84,64.97l-.05.12c.04-.25.17-.47.3-.68.16-.26.37-.53.65-.67.18-.09.36-.16.55-.23.37-.15,1-.04,1.33.17.32.21.56.47.7.82.34.79.03,1.69-.7,2.15-.34.21-.73.34-1.14.3-.07,0-.13-.01-.2-.02-.2-.02-.38-.05-.56-.12,0,0,0,0,0,0-.41-.09-.72-.41-.88-.79-.16-.37-.13-.7,0-1.05Z"/>
    <path class="cls-12" d="M393.84,72.24c.2-.73.79-1.33,1.52-1.52.06-.02.12-.03.19-.04.4-.11.81-.11,1.21,0,.39.11.72.3,1.01.59.57.57.8,1.43.59,2.22-.45,1.64-2.61,2.24-3.81,1.01-.05-.05-.09-.09-.14-.13-.58-.48-.75-1.43-.56-2.12Z"/>
    <path class="cls-12" d="M395.84,77.9c.04-.33.29-.58.62-.6.1-.03.2-.05.3-.04.06,0,.12.01.17.02.17.02.31.04.46.1.14.06.28.14.39.26.11.12.21.25.29.39.22.42.2,1.01-.17,1.35-.37.34-.9.42-1.35.17-.13-.07-.26-.17-.36-.27-.08-.08-.16-.17-.22-.27-.11-.19-.14-.39-.16-.6,0-.05-.01-.11-.02-.16-.01-.12.01-.24.05-.36Z"/>
    <path class="cls-11" d="M412.95,78.11c-.54.05.12-.03.31-.03.29,0,.47.07.71.16.49.18.87.36,1.28.7.67.58.65,1.69.14,2.34-.55.71-1.51.89-2.3.46-.7-.37-1.27-1.14-1.48-1.88-.26-.94.46-1.67,1.34-1.76Z"/>
    <path class="cls-11" d="M406.57,86.85s0,0,0,0c.06-.39.24-.79.52-1.05.38-.35.81-.52,1.33-.55.14,0,.27.02.4.04.33.04.57.13.88.28.14.11.29.22.43.33l.33.43c.18.31.29.72.29,1.08,0,.36-.11.77-.29,1.08-.24.4-.6.7-1.02.88-.71.3-1.51.2-2.12-.28-.68-.53-.99-1.41-.77-2.25Z"/>
    <path class="cls-11" d="M405.32,93.84c.06-.21.17-.4.32-.56.09-.07.17-.13.25-.2.2-.11.41-.17.64-.17.17,0,.34.03.49.11.16.05.29.14.41.26.12.11.21.25.26.41.08.15.11.31.11.49-.02.11-.03.22-.04.33-.06.21-.17.4-.32.56-.09.07-.17.13-.25.2-.2.11-.41.17-.64.17-.17,0-.34-.03-.49-.11-.16-.05-.29-.14-.41-.26-.12-.11-.21-.25-.26-.41-.08-.15-.11-.31-.11-.49.01-.11.03-.22.04-.33Z"/>
    <path class="cls-3" d="M375.79,78.76c.84,3.84,3.3,8.3,7.71,8.49,3.85.16,5.92-3.79,6.39-7.1.55-3.91-.55-8.33-4.04-10.57-1.73-1.11-3.77-1.44-5.73-.75-.88.31-1.69.83-2.34,1.5-.33.34-.6.73-.86,1.12-.28.42-.53.74-.9,1.08,0,0-.02.01-.03.02-.61,1.98-.64,4.18-.2,6.21Z"/>
    <path class="cls-4" d="M363.79,70.42c-1.65,3.14-1.5,7.03.36,10.04.63-1.13.93-2.42,1.03-3.71.11-1.34.02-2.7-.3-4-.2-.82-.54-1.69-1.09-2.33Z"/>
    <path class="cls-3" d="M364.15,69.79c.59.5,1,1.3,1.25,1.98.51,1.43.7,3.06.62,4.57-.08,1.51-.46,2.98-1.09,4.36-.08.16-.16.34-.25.52.36.48.77.92,1.21,1.33.27-1.31.59-2.61.94-3.9.97-3.57,2.22-7.06,3.74-10.44-.67-.41-1.41-.7-2.14-.8-1.87-.26-3.32.87-4.27,2.37Z"/>
    <path class="cls-4" d="M375.98,72.55c-.61,1.98-.64,4.18-.2,6.21.41,1.87,1.21,3.9,2.43,5.5.21-.19.42-.38.61-.59.53-.56.97-1.2,1.33-1.89.7-1.33,1.07-2.83,1.09-4.32.02-1.49-.31-2.99-1.04-4.3-.45-.8-1.05-1.62-1.89-2.02-.31-.15-.67-.22-1.03-.21-.13.17-.24.34-.36.52-.28.42-.53.74-.9,1.08,0,0-.02.01-.03.02Z"/>
    <path class="cls-4" d="M365.45,84.82c.36-2.07.82-4.13,1.37-6.16,1.1-4.07,2.58-8.03,4.39-11.84,1.83-3.84,4.02-7.51,6.55-10.94,2.32-3.15,5.08-6.16,8.85-7.52,3.89-1.4,8.3-.9,12.09.57,3.88,1.5,7.27,3.95,10.46,6.57,6.57,5.39,12.64,11.6,17.56,18.55.62.87,1.21,1.75,1.77,2.66.06.1-.09.22-.16.12-2.55-3.16-5.01-6.39-7.73-9.4-2.72-3.02-5.61-5.9-8.65-8.6-5.85-5.2-12.9-10.98-21.23-10.4-4.06.28-7.4,2.42-10.01,5.43-2.57,2.96-4.65,6.4-6.54,9.82-1.95,3.54-3.58,7.25-4.88,11.08-1.26,3.72-2.32,7.61-2.82,11.52-.41,3.23-.29,7.22,2.71,9.22,2.77,1.84,6.5,1.07,9.48.21.8-.23,1.59-.45,2.41-.64.65-.15,1.13.82.47,1.13-3.14,1.47-6.96,2.22-10.38,1.46-1.62-.36-3.13-1.22-4.19-2.51-1.12-1.38-1.65-3.06-1.84-4.8-.2-1.85,0-3.72.32-5.54Z"/>
    <path class="cls-4" d="M371,96.93c2.35,3.88,5.63,7.24,9.38,9.79,3.88,2.64,8.45,4.31,13.17,4.28,5.51-.04,10.73-2.19,15.39-4.99,4.13-2.49,7.88-5.64,11.07-9.26,3.63-4.11,6.48-8.9,8.49-13.99.05-.13.26-.08.21.06-3.31,9.37-9.92,17.56-18.23,22.97-4.5,2.93-9.72,5.36-15.11,5.96-4.87.54-9.85-.89-14.03-3.36-4.69-2.78-8.34-6.9-11-11.61.22.06.44.11.66.15Z"/>
    <path class="cls-4" d="M363.21,69.48c1.04-1.72,2.69-3.14,4.8-2.99,1.17.08,2.2.53,3.04,1.22-.07.23-.13.46-.21.69-.74-.51-1.59-.87-2.43-.98-1.94-.27-3.43.96-4.38,2.54-2.05,3.44-1.83,7.91.53,11.13.55.75,1.22,1.43,1.95,2.01-.1.37-.19.74-.28,1.1-.83-.61-1.58-1.32-2.22-2.13-1.35-1.71-2.16-3.74-2.35-5.91-.2-2.31.34-4.7,1.53-6.68Z"/>
    <path class="cls-4" d="M375.33,80.97c.77,2.14,1.94,4.22,3.73,5.66,1.8,1.45,4.06,2.3,6.38,1.71,4.24-1.08,5.92-6,5.99-9.9.08-4.61-2.17-9.28-6.69-10.93-2.02-.74-4.12-.71-6.07.22-1.48.71-3.52,2.34-3.39,4.17-.13.3-.25.61-.35.92-.82,2.67-.53,5.56.4,8.15ZM375.98,72.55s.02-.01.03-.02c.37-.34.62-.66.9-1.08.26-.4.53-.78.86-1.12.65-.67,1.46-1.19,2.34-1.5,1.96-.69,4-.36,5.73.75,3.49,2.24,4.59,6.66,4.04,10.57-.47,3.31-2.54,7.27-6.39,7.1-4.41-.19-6.86-4.65-7.71-8.49-.45-2.03-.41-4.23.2-6.21Z"/>
    <path class="cls-4" d="M377.96,85.28c-.1-.12-.21-.24-.3-.36-.02-.03-.05-.06-.07-.09.41-.39.85-.74,1.23-1.16.53-.57.97-1.2,1.33-1.89.7-1.33,1.07-2.83,1.09-4.32.02-1.49-.31-2.99-1.04-4.3-.45-.8-1.05-1.62-1.89-2.02-.8-.38-1.92-.27-2.51.43-.08.09-.19-.03-.15-.12.58-1.34,2.19-1.41,3.31-.72,1.25.77,2.07,2.23,2.54,3.59.91,2.64.51,5.68-.86,8.09-.61,1.08-1.51,2.3-2.67,2.87Z"/>
    <path class="cls-4" d="M364.2,82.02c-.21-.23-.42-.45-.63-.67.18-.25.36-.5.51-.77.67-1.16.99-2.49,1.1-3.82.11-1.34.02-2.69-.3-4-.23-.93-.63-1.92-1.33-2.58.1-.2.2-.4.29-.6.75.46,1.27,1.41,1.55,2.21.51,1.43.7,3.06.62,4.57-.08,1.51-.46,2.98-1.09,4.36-.18.4-.43.86-.72,1.31Z"/>
    <path class="cls-4" d="M378.56,55.8c-.32.39-.62.79-.91,1.2.64-3.21,1.75-6.34,3.12-9.3,1.58-3.43,3.8-6.71,7.36-8.28,3.13-1.39,6.81-1.47,9.97-.15,3.33,1.4,5.73,4.33,7.19,7.56.95,2.1,1.51,4.34,1.85,6.61.06.38.11.76.16,1.15-.28-.3-.59-.58-.91-.84-.23-1.67-.58-3.33-1.12-4.93-1.11-3.28-3.11-6.42-6.14-8.23-2.86-1.7-6.45-1.98-9.6-.95-3.61,1.18-5.95,4.07-7.63,7.34-1.44,2.82-2.49,5.78-3.33,8.81Z"/>
    <g>
      <path class="cls-4" d="M399.1,46.33c.76-1.38,1.68-2.67,2.38-4.09.05-.1.1-.19.14-.29.07.06.17.15.19.17.14.13.27.27.39.41.01.01.02.02.03.03,0,0,0,0,0,0-.69,1.49-1.5,2.96-2.7,4.1-.23.22-.59-.06-.44-.34Z"/>
      <path class="cls-4" d="M396.67,39.34s0-.03.01-.05c.02,0,.04.01.06.02.11.04.22.08.33.12,0,.04-.02.09-.03.13-.32,1.55-.65,3.17-1.28,4.62-.07.16-.29.04-.27-.11.27-1.59.8-3.16,1.17-4.73Z"/>
      <path class="cls-4" d="M390.65,38.94c.11-.03.21-.05.32-.08-.03.5-.07.99-.1,1.49-.12,1.72-.12,3.49-.41,5.19-.02.13-.21.09-.22-.03-.05-1.75.19-3.53.32-5.28.03-.43.06-.86.09-1.29Z"/>
    </g>
    <g>
      <path class="cls-18" d="M393.42,104.09c.25,1.31.42,2.62.64,3.94.28,1.64.62,3.26,1.03,4.87.64,2.54,1.34,5.71,3.97,6.93,1.07.5,2.43.62,3.49.02,1.28-.73,1.59-2.27,1.6-3.62.01-2.98-.93-5.93-2.2-8.59-.7-1.47-1.51-2.87-2.38-4.25-.71-1.12-1.37-2.26-2.08-3.38-.05.13-.1.25-.15.37-.31.71-.73,1.36-1.25,1.92-.68.74-1.64,1.47-2.67,1.79Z"/>
      <path class="cls-4" d="M393.36,103.75c.28,1.42.47,2.85.71,4.28.28,1.64.62,3.26,1.03,4.87.64,2.54,1.34,5.71,3.97,6.93,1.07.49,2.43.62,3.49.02,1.28-.72,1.59-2.27,1.6-3.62.01-2.98-.93-5.93-2.2-8.59-.7-1.47-1.51-2.87-2.38-4.25-.78-1.23-1.5-2.49-2.29-3.72.04-.09.07-.18.1-.26.91,1.22,1.87,2.41,2.69,3.69.87,1.37,1.7,2.77,2.41,4.23,1.36,2.8,2.41,5.93,2.33,9.08-.03,1.36-.37,2.82-1.48,3.71-.9.73-2.11.91-3.23.72-2.91-.49-4.38-3.23-5.24-5.78-.63-1.85-1.06-3.77-1.45-5.69-.36-1.81-.69-3.63-.72-5.47.23-.04.45-.09.66-.16Z"/>
      <path class="cls-4" d="M392.02,103.87c1.35-.52,2.58-.94,3.6-2.03.48-.51.87-1.1,1.15-1.74.27-.61.31-1.3.72-1.82.02-.03.08-.02.09.01.34.67.04,1.44-.24,2.1-.31.71-.73,1.35-1.25,1.92-.97,1.06-2.51,2.1-4.01,1.94-.22-.02-.26-.3-.05-.37Z"/>
    </g>
    <path class="cls-4" d="M379.21,106.35s.08.06.11.09c0,0,.23.2.26.22.1.1.2.19.3.3-.05.71-.04,1.42.01,2.15.11,1.47.16,3.41,1.3,4.51,1.41,1.36,3.44.29,4.58-.87.63-.64,1.17-1.39,1.63-2.2.19.03.39.06.58.08-.95,2.09-2.58,3.99-4.82,4.26-3.38.4-3.76-3.69-3.93-6.08-.06-.8-.09-1.64-.01-2.46Z"/>
    <path class="cls-4" d="M427.91,82.17c1.66,1.67,2.43,4,4.15,5.62,1.18,1.1,3.56,1.89,4.74.3.65-.88.47-2.25.28-3.26-.19-1.01-.54-2-1.03-2.91-.51-.94-1.15-1.8-1.93-2.54-.71-.67-1.79-1.2-2.18-2.14-.37-.89.09-1.84.59-2.58.66-.99,1.38-1.92,1.97-2.97,1.14-2.04,1.91-4.32,1.9-6.67,0-1.17-.2-2.32-.62-3.41-.37-.95-.96-2.16-1.9-2.65-2.21-1.15-3.74,2.66-4.35,4.12-1.01,2.43-1.61,5-2.01,7.6-.21,1.36-.36,2.73-.48,4.1,0,.04,0,.07,0,.11-.24-.35-.48-.7-.73-1.05.09-.96.19-1.92.33-2.88.36-2.64.92-5.26,1.88-7.74.73-1.88,1.8-4.8,4.03-5.32,2.4-.56,3.78,2.37,4.27,4.23.64,2.42.42,4.99-.43,7.34-.44,1.22-1.03,2.39-1.72,3.49-.32.51-.66,1-1.01,1.49-.38.52-.83,1.06-1,1.69-.22.82.27,1.23.9,1.64.51.33.99.71,1.43,1.13.81.77,1.5,1.68,2.04,2.66.57,1.04.98,2.16,1.18,3.33.2,1.12.3,2.36-.2,3.43-1.02,2.17-4.02,2.32-5.84,1.15-1.15-.73-1.99-1.82-2.73-2.94-.83-1.27-1.67-2.54-2.16-3.98-.12-.37.38-.63.64-.37Z"/>
    <g>
      <path class="cls-4" d="M435.73,60.84c.1.19.19.37.27.57-.43,1.33-.95,2.63-1.57,3.88-.07.14-.31.04-.25-.11.53-1.45,1.05-2.89,1.55-4.34Z"/>
      <path class="cls-4" d="M432.23,61.66c.36-1.09.71-2.19,1.05-3.29.09.05.18.11.27.16.09.06.18.12.28.19-.27,1.09-.55,2.18-.85,3.26-.72,2.55-1.48,5.2-2.71,7.56-.12.22-.44.06-.39-.16.56-2.62,1.52-5.18,2.36-7.72Z"/>
    </g>
    <path class="cls-4" d="M404.53,32.31c2.14,1.69,3.88,3.74,5.14,6.16.62,1.18,1.1,2.45,1.46,3.73.17.61.28,1.23.42,1.85.06.27.13.57.29.81.14.21.39.32.5.55.07.15.03.3-.1.39-.42.28-.89-.08-1.13-.43-.33-.49-.41-1.1-.52-1.67-.28-1.43-.72-2.82-1.31-4.14-1.17-2.62-2.87-5.06-5.01-6.99-.18-.16.08-.4.26-.26Z"/>
    <path class="cls-4" d="M408.31,30.67c1.21,1.29,2.25,2.72,3.04,4.3.73,1.46,1.62,3.28,1.51,4.94-.02.28-.42.44-.56.15-.36-.73-.54-1.52-.79-2.3-.26-.8-.57-1.58-.94-2.34-.74-1.53-1.66-2.97-2.75-4.27-.28-.33.18-.82.49-.49Z"/>
    <path class="cls-4" d="M440.49,54.05c-.16-.35.34-.67.53-.31,1.48,2.71,2.39,5.71,2.57,8.79.09,1.52.01,3.04-.2,4.54-.11.79-.26,1.58-.46,2.35-.16.6-.34,1.45-.97,1.7-.14.06-.32-.04-.4-.16-.32-.53.02-1.32.17-1.87.18-.71.34-1.42.46-2.15.23-1.42.3-2.88.24-4.32-.12-2.95-.74-5.88-1.94-8.58Z"/>
    <path class="cls-4" d="M444.43,71.07c.2-1.5.71-2.94.99-4.44.28-1.51.4-3.07.44-4.6,0-.27.43-.35.49-.07.31,1.61.37,3.19.19,4.82-.18,1.59-.48,3.24-1.41,4.58-.26.37-.75.13-.7-.29Z"/>
    <path class="cls-4" d="M441.37,98.38c1.27-1.4,2.9-2.4,3.84-4.09.9-1.61,1.01-3.61-.15-5.13-.16-.21.2-.49.37-.28,2.68,3.41-.16,8.51-3.68,9.99-.32.13-.64-.21-.38-.5Z"/>
    <path class="cls-18" d="M393.62,61.35c.73.38,1.47.73,2.06,1.33.56.57.98,1.28,1.27,2.03.56,1.47.55,3.14-.16,4.54,2.03,1.38,3.14,3.61,3.46,6.01.31,2.29-.19,5.36-2.29,6.71-.22.14-.49-.14-.35-.35.59-.93,1.23-1.83,1.59-2.88.37-1.09.53-2.22.46-3.37-.15-2.3-1.39-4.56-3.34-5.81-.12-.08-.17-.23-.09-.36.77-1.31.84-2.89.35-4.31-.46-1.34-1.6-2.94-3.07-3.23-.23-.05-.1-.43.13-.31Z"/>
    <path class="cls-18" d="M407.24,70.73c1.37.68,2.29,2.03,2.5,3.54.18,1.29-.04,3.4-1.34,4.08-.2.1-.52-.07-.42-.32.22-.57.6-1.05.79-1.63.2-.63.26-1.29.19-1.95-.14-1.35-.74-2.67-1.86-3.48-.14-.1-.02-.32.14-.24Z"/>
    <path class="cls-18" d="M409.61,92.27c.13-.45.45-.84.68-1.25.28-.51.48-1.05.64-1.6.32-1.12.33-2.27.05-3.39-.04-.17.2-.23.25-.07.37,1.14.47,2.35.28,3.53-.16.99-.62,2.53-1.56,3.05-.18.1-.4-.06-.34-.26Z"/>
    <path class="cls-18" d="M413.76,85.68c1.95-1.95,2.64-5.18,1.01-7.54-.1-.15.13-.33.25-.2,2.03,2.31,1.79,6.46-1.01,8.05-.2.11-.42-.16-.25-.32Z"/>
    <path class="cls-8" d="M377.21,73.13l.09-.64c.11-.41.32-.76.62-1.06.16-.12.32-.25.48-.37.37-.22.78-.33,1.21-.33.33-.01.64.06.92.21.3.1.55.26.77.49.23.22.4.47.49.77.15.29.22.59.21.92-.03.21-.06.42-.09.64-.11.41-.32.76-.62,1.06-.16.12-.32.25-.48.37-.37.22-.78.33-1.21.33-.33.01-.64-.06-.92-.21-.3-.1-.55-.26-.77-.49-.23-.22-.4-.47-.49-.77-.15-.29-.22-.59-.21-.92Z"/>
    <path class="cls-8" d="M377.55,80.21c.05-.17.13-.32.26-.44.12-.12.27-.21.44-.26.18-.05.35-.05.53,0,.02,0,.05.02.07.03.08.03.16.07.25.1.12.06.22.15.29.27.06.06.11.14.13.23.06.12.09.26.09.4,0,0,0,.01,0,.02,0,.14-.02.27-.09.39-.04.13-.11.23-.21.33-.07.05-.14.11-.21.16-.16.09-.33.14-.51.14,0,0-.01,0-.01,0-.1-.01-.19-.02-.28-.04-.13-.03-.25-.09-.35-.18-.08-.05-.14-.11-.18-.18-.09-.1-.15-.22-.18-.35,0-.02-.02-.05-.03-.07-.05-.18-.05-.35,0-.53Z"/>
    <path class="cls-8" d="M365.01,70.56c1.43,0,1.43,2.22,0,2.22-1.43,0-1.43-2.22,0-2.22Z"/>
    <path class="cls-8" d="M363.74,76.93s.06-.01.08-.02c.08-.04.16-.07.25-.07.24,0,.47.21.45.45-.01.25-.2.45-.45.45-.09,0-.18-.02-.25-.07-.03,0-.06-.01-.08-.02-.16-.03-.29-.21-.28-.37,0-.16.11-.33.28-.37Z"/>
  </g>
  <g>
    <path class="cls-14" d="M382.5,397.32c-.29,1.88-1.08,5.04.21,6.73,2.77,3.64,8.94-8.84,9.81-10.56,1.43-2.8,2.76-5.65,4.04-8.52.87-1.95,1.64-3.97,2.57-5.91.01,0,.03,0,.04.01.27.08.54.17.8.28.11.05.22.09.33.14.04.02.08.03.12.05,0,0,.02,0,.03.01.04.02.08.04.11.05.17.08.33.16.5.23-.36,3.61-.87,7.21-1.01,10.85-.16,4.39.18,8.93.9,13.26.34,2.04.57,4.57,1.72,6.34.53.81,1.4,1.51,2.42,1.5,1.19-.01,1.82-1.1,2.2-2.09.76-1.96,1.24-4.07,1.75-6.11.54-2.13,1.16-4.21,1.59-6.37.48-2.47.87-4.95,1.13-7.45.26-2.43.2-4.98.78-7.36.06-.24.26-.29.43-.21,0,0,0-.01,0-.01.01-.28.42-.45.57-.17,1,1.86,1.29,4.15,1.87,6.18.61,2.1,1.27,4.19,2,6.26,1.5,4.27,3.25,8.44,5.25,12.5.76,1.54,1.78,3.94,3.92,3.39,1.99-.51,2.76-2.64,2.72-4.49-.04-2.13-.7-4.27-1.17-6.33-.51-2.19-1.04-4.37-1.61-6.55-.49-1.9-1-3.8-1.53-5.69.22-.09.46-.17.72-.25.05-.02.11-.04.16-.05h0c.23-.07.47-.14.71-.22.19.44.38.89.58,1.33.76,1.69,1.58,3.35,2.47,4.97.82,1.5,1.64,3.11,2.69,4.47.69.89,2.11,1.76,2.96.54.5-.72.61-1.85.64-2.69.06-1.83-.31-3.68-.71-5.45-.82-3.59-2.14-7.05-3.47-10.48-1.3-3.33-2.71-6.64-3.79-10.05.02-.05.04-.09.06-.14-.09-.1-.13-.23-.08-.39,1.89-5.06,3.96-10.04,5.64-15.18,1.64-5.03,3.05-10.13,4.19-15.29,2.31-10.46,3.5-21.18,3.25-31.89-.14-5.78-.3-12.02-2.67-17.38-2.12-4.8-6.03-8.49-10.22-11.54-8.4-6.12-17.9-10.97-27.57-14.77-5.41-2.13-10.96-3.9-16.6-5.35-5.16-1.33-10.38-2.13-15.6-3.09.09.34.18.69.26,1.03,2.02,8.3,1.01,17.14,4.58,25.07.9,2.01,1.97,3.92,2.98,5.87,1.12.47,2.22.98,3.29,1.45,2.87,1.24,5.67,2.64,8.43,4.09,5.17,2.72,10.45,5.61,14.77,9.59,2.08,1.92,4.05,4.13,5.13,6.78,1.09,2.68,1.11,5.63.77,8.46-.37,3.04-1.09,6.05-1.77,9.04-.71,3.12-1.48,6.24-2.31,9.33-1.68,6.29-3.45,12.68-5.79,18.77.27-.12.55-.23.82-.35.39-.16.68.49.3.68-6.38,3.15-12.96,5.99-18.45,10.63-1.32,1.11-2.54,2.31-3.66,3.62-1.03,1.21-2.62,2.85-2.74,4.52-.16,2.22,3.99.73,5.1.36,1.98-.65,3.85-1.61,5.67-2.62,1.97-1.1,3.88-2.28,5.74-3.54.88-.6,1.74-1.31,2.63-1.98.21.33.43.65.67.97.09.12.18.24.27.35.08.09.15.19.23.28-1.83,3.24-3.74,6.43-5.46,9.73-2.29,4.42-4.3,9.05-5.73,13.83-.68,2.29-1.23,4.62-1.59,6.99Z"/>
    <path class="cls-14" d="M209.19,376.32c-1.79,13.09-1.29,27.97,6.05,39.44,1.83,2.85,4.18,5.19,7.04,7,2.71,1.72,5.67,3,8.64,4.18,6.26,2.51,12.76,4.42,19.37,5.74,3.28.65,6.59,1.09,9.9,1.53,1.59.21,3.17.5,4.67,1.09,1.49.58,2.89,1.37,4.29,2.14,5.44,2.96,11.35,5.01,17.45,6.07,6.13,1.07,12.47,1.14,18.62.16,1.18-.19,3.16-.42,3.5-1.84.47-1.94-1.95-2.85-3.39-3.15-1.88-.39-3.79-.65-5.71-.82.02-.29.03-.57.03-.86,0-.07,0-.13,0-.19,0-.29,0-.58,0-.87,4.48-.66,8.91-1.4,12.99-3.58,2.38-1.28,5.05-3.09,6.5-5.44,1.01-1.65-.22-2.68-1.86-2.74-.65-.02-1.29.07-1.92.2-.06-.24-.11-.46-.16-.68-.02-.08-.04-.17-.05-.25-.06-.31-.1-.62-.09-.93,1.19-.57,2.33-1.24,3.43-2.03,1.56-1.13,2.99-2.47,4.22-3.95.67-.8,1.26-1.73.34-2.62-.7-.68-1.75-.7-2.66-.6-4.19.46-8.24,2.14-12.33,3.08-2.67.61-5.48,1.03-8.23.88-.03-.19-.07-.38-.11-.56-.01-.07-.03-.13-.04-.19-.07-.34-.14-.67-.2-1.01.97-.24,1.93-.48,2.89-.76,2.19-.65,4.33-1.45,6.4-2.41,2.01-.93,3.96-2.01,5.82-3.21,1.82-1.18,3.77-2.46,5.29-4.02.61-.63,1.48-1.68.95-2.58-.56-.95-2.32-1.06-3.29-1.09-2.25-.08-4.51.44-6.7.9-4.49.94-8.91,2.16-13.38,3.16-3.98.89-8.01,1.58-12.07,1.64-.09-.14-.19-.29-.29-.43-.07-.1-.15-.2-.23-.3-.19-.24-.4-.47-.62-.69.25-.21.51-.42.76-.64.9-.79,1.79-1.6,2.63-2.45,1.63-1.64,3.12-3.42,4.22-5.46,1-1.85,2.33-5.04.27-6.69-2.27-1.82-5.48.13-7.58,1.26-4.71,2.55-8.97,5.65-13.22,8.89-.93.71-1.58.7-2.69.42-1.34-.34-2.67-.72-3.99-1.11-2.48-.73-4.94-1.51-7.37-2.4-2.63-.96-5.23-2.03-7.8-3.16-1.53-.68-3.09-1.36-4.59-2.14-.03-.16-.05-.31-.08-.47-.17-.08-.34-.15-.51-.23-.12-1.16-.21-2.32-.32-3.46-.28-3.07-.47-6.15-.56-9.23-.18-6.26.12-12.44.68-18.68.26-2.83.6-5.66,1.01-8.47-2.55.45-5.16.52-7.73.23-6.26-.71-12.55-3.5-16.95-8.06-.55-.57-1.09-1.18-1.59-1.8-1.98,4.84-3.88,9.7-5.38,14.74-1.9,6.39-3.39,12.92-4.29,19.53Z"/>
    <path class="cls-20" d="M166.93,275.17c.04.15,0,.28-.1.36,4.4,6,8.74,12.03,13.3,17.91,5.15,6.65,10.52,13.11,16.1,19.41.88,1,1.78,1.98,2.67,2.96-.53-5.98.68-12.09,3.34-17.48,1.72-3.49,4.07-6.66,6.94-9.28-5.28-2.1-10.77-5.5-11.71-11.57-.9-5.83,2.93-11.81,6.81-15.82,2.03-2.1,4.58-4.37,7.42-5.41-.25-2.61-.23-5.24-.07-7.7.47-6.93,2.25-13.74,5.22-20.02,1.47-3.11,3.21-6.13,5.29-8.86,2.11-2.77,4.81-5.32,8.23-6.31,1.24-.36,2.78-.5,3.86.35,1.26.99,1.12,2.65.88,4.06-.54,3.22-2.14,6.86-.18,9.89.86,1.34,2.37,2.23,3.95,1.57,1.63-.68,2.49-2.48,3.15-4.01,1.38-3.23,2.52-6.55,3.97-9.75-1.55-1.54-3.05-3.13-4.58-4.65-1.56-1.55-3.11-3.09-4.67-4.64-.28-.27-.55-.55-.83-.82-4.95,3.36-9.32,7.42-13.73,11.45-4.8,4.38-9.51,8.84-14.16,13.38-9.29,9.07-18.27,18.46-26.96,28.11-4.85,5.39-9.61,10.87-14.28,16.43.05.15.09.3.13.45Z"/>
    <path class="cls-14" d="M62.37,172.3c.45,16.25,9.72,30.42,21.4,41.11,2.8,2.56,5.74,4.96,8.78,7.24,6.17-8.69,12.81-17.01,19.91-25.02,2.61-2.94,5.28-5.82,8.03-8.64-1.51-1.56-3.01-3.15-4.47-4.77-4.73-5.24-9.15-10.8-12.78-16.87-.91-1.52-1.75-3.06-2.52-4.64-.01.03-.03.06-.04.09-.07-.2-.15-.41-.22-.61-.06-.12-.12-.25-.17-.37,0-.02.02-.04.03-.07-.06-.17-.12-.35-.17-.52,1.09-2.58,2.06-5.21,2.91-7.89,3.25-10.3,4.66-21.09,4.21-31.88-.17-4.05-.68-8.05-1.39-12.01-.03.09-.06.18-.1.27-.14-.66-.28-1.32-.44-1.97.38-2.35-.21-4.76-1.97-6.73-2.66-2.98-6.62-4.37-10.34-5.45-3.57-1.04-7.25-1.73-10.77-2.89-3.34-1.1-6.6-2.58-9.3-4.88-3.06-2.61-5.22-6.4-8.81-8.36-3.13-1.71-8.96-1.44-9.27,3.12-.16,2.34,1.06,4.75,2.34,6.62.33.49.69.96,1.07,1.42-.15.31-.3.62-.45.94-.01.03-.03.06-.04.1-.14.31-.27.62-.4.94-.2-.03-.4-.06-.61-.06-1.13-.02-2.28.35-3.11,1.13-1.12,1.06-1.52,2.79-1.29,4.36t0,0c0,.08.01.15.02.23,0,.08.02.16.03.23.05.33.11.65.2.96-1.09.55-1.93,1.55-2.19,2.7-.15.33-.22.69-.17,1.05h0s.01.07.02.11c0,.04.02.08.03.11l.29,1,.03.11c-.6.35-1.11.85-1.46,1.46-.4.69-.53,1.33-.39,1.96.04,0,.08-.02.12-.02,0,.11.01.22.04.33.02.11.04.22.07.33,0,0,0,.01,0,.02.06.27.11.55.17.83-.58.11-1.14.33-1.66.66-3.79,2.43.57,6.86,2.51,8.95,4.78,5.13,11.26,8.72,17.5,11.76.82.4,1.65.79,2.49,1.18,0,.04.01.08.03.12.03.12.07.23.11.34h0c.18.11.36.22.55.31-1.68,6.2-3.52,12.35-5.11,18.58-1.92,7.51-3.43,15.22-3.22,23.01Z"/>
    <path class="cls-14" d="M134.12,116.78c.01,8.31,3.04,16.27,6.61,23.65,2.05,4.26,4.27,8.44,6.51,12.6,1.11,2.07,2.23,4.14,3.37,6.2.62,1.12,1.27,2.23,1.86,3.37.9-.73,1.81-1.43,2.7-2.13,4.61-3.59,9.4-6.96,14.34-10.08,4.84-3.05,9.82-5.87,14.93-8.44.22-.11.45-.22.67-.34-1.09-1.66-2.13-3.35-3.12-5.07-3.3-5.71-6.16-11.7-8.41-17.9-.61-1.69-1.23-3.4-1.76-5.14.08-.18.15-.35.23-.53-.08-.31-.16-.61-.26-.92.97-2.27,1.79-4.61,2.51-6.97,1.57-5.23,2.62-10.6,3.54-15.97.46-2.66.89-5.33,1.35-7.99.43-2.48.66-5.26,1.95-7.47,1.33-2.28,3.58-3.83,4.94-6.09.38-.62.69-1.26.96-1.92.03-.07.06-.14.09-.21.16-.4.3-.81.42-1.22,0-.02.01-.04.02-.06.13-.51.22-1.03.27-1.56.96-2.26.72-4.9-.14-7.16-1.13-2.98-3.26-5.54-5.29-7.95-1.97-2.33-4.07-4.55-6.28-6.65-2.17-2.06-4.45-4-6.83-5.81-2.14-1.63-4.72-3.03-5.86-5.58-.71-1.59-1.03-3.3-2.07-4.74-.95-1.31-2.33-2.34-3.97-2.52-1.48-.17-3.18.37-3.92,1.75-.19.35-.32.76-.38,1.19-.2.09-.4.19-.59.29-.11.06-.21.12-.32.18-.31.19-.62.39-.92.62-.96-.59-2.03-.87-3.12-.16-.99.65-1.37,2.01-1.18,3.22-.16.07-.32.14-.48.22-.01,0-.03.01-.04.02-.45.21-.89.45-1.32.7-1.43-1.24-3.02-2.47-4.66-.92-1.33,1.26-1.08,3.34-.39,5.17-.13.02-.26.05-.39.08-.08.02-.16.04-.24.06,0,0,0,0,0,0-.18.05-.36.12-.54.19-1.28-1.7-2.75-3.24-4.6-4.4-1.6-1-3.73-1.61-5.22-.08-1.48,1.52-1.27,3.73-.7,5.6,1.18,3.85,3.36,7.57,5.46,10.99,2.11,3.45,4.48,6.74,6.96,9.92,1.41,1.8,2.85,3.57,4.32,5.32.24.29.48.57.73.85.11.79.2,1.57.27,2.36-.02-.02-.04-.04-.05-.07.14,5-1.02,10.05-2.39,14.82-1.77,6.15-4.13,12.1-6.08,18.19-1.92,5.97-3.49,12.15-3.48,18.46Z"/>
    <path class="cls-20" d="M216.75,322.22c-2.48,5.69-1.15,12.34,2.13,17.45.35.54.71,1.07,1.11,1.57,3.62,4.68,8.92,7.92,14.66,9.23,3.19.73,6.52.89,9.76.42,1.84-.27,4.09-.67,5.88-1.64.1.03.19.06.29.09h0c.09.03.19.06.28.1.17.06.33.13.5.19.32.12.65.24.99.33.3.08.59.09.86.04,9.68,8.47,22.98,11.32,35.56,11.89,16.15.74,32.61-1.33,47.75-7.15,14.01-5.38,27.69-14.27,35.87-27.14,3.92-6.17,6.47-13.22,7.05-20.52.29-3.6.12-7.25-.6-10.79-.79-3.89-2.36-7.36-4.11-10.89-1.8-3.62-3.51-7.21-4.34-11.19-.82-3.97-1.1-7.99-1.55-12.01-.32-2.88-.87-5.71-1.67-8.46-1.41-4.83-3.59-9.4-6.63-13.53-.11-.15-.23-.3-.34-.46-2.02,1.33-4.44,1.67-6.83,1.08-5.98-1.47-10.15-6.93-13.97-11.36-1.04-1.21-2.09-2.41-3.21-3.54-1.11-1.13-2.36-2.3-4.06-2.2-1.62.1-3.09,1.09-4.56,1.67-1.21.48-2.48.82-3.77,1.01-5.17.79-10.63-.58-14.83-3.7-.02-.02-.04-.03-.06-.05-1,1.38-2.12,2.67-3.35,3.85-5.09,4.87-11.7,7.78-18.56,9.1-2.13.41-4.3.68-6.46.82-.71.05-1.46.12-2.21.16-2.09,4.76-4.74,9.28-7.92,13.41-6.36,8.27-15.25,15.2-25.23,18.48-.44.14-.88.28-1.33.42.57,2.17,1.03,4.37,1.41,6.59.75,4.41,1.34,8.92,1.28,13.4-.11,8-3.1,15.25-7.91,21.56-.53.69-1.08,1.39-1.65,2.08.08.02.15.04.23.06-.19.12-.38.24-.57.36-.26.16-.53.33-.79.49-.31.2-.62.41-.92.63-.89-.16-1.79-.28-2.7-.33-3.26-.21-6.63.26-9.53,1.84-2.69,1.47-4.7,3.82-5.91,6.61Z"/>
    <path class="cls-14" d="M250.3,306.76c-.12-7.84,1.72-15.88,5.61-23.75,5.96-12.08,15.75-21.44,27.28-28.22,12.71-7.48,26.96-11.67,41.43-14.15,11.29-1.93,25.39-2.25,32.47,8.52,3.97,6.04,4.64,13.48,6.88,20.2,2.49,7.46,7.34,13.84,10.04,21.22,4.7,12.82,1.62,27.49-5.96,38.55-7.81,11.4-19.8,19.54-32.63,24.35-12.26,4.6-25.77,6.13-38.7,3.84-12.47-2.21-24.03-8.22-32.63-17.57-8.93-9.71-13.61-21.13-13.8-33Z"/>
    <path class="cls-20" d="M387.09,261.32c-.98,9.57-1.09,19.25.43,28.78.09.58.19,1.15.3,1.73-2.74-1.44-5.51-2.82-8.35-4.05-1.07-.46-2.17-.98-3.29-1.45-1.01-1.95-2.08-3.86-2.98-5.87-3.57-7.93-2.55-16.77-4.58-25.07-.08-.34-.17-.69-.26-1.03,5.22.96,10.44,1.76,15.6,3.09,1.16.3,2.32.61,3.47.94-.12.98-.23,1.95-.33,2.93Z"/>
    <path class="cls-20" d="M243.44,378.83c0,.21.02.43.02.64-2.32-2.63-4.92-5.01-7.65-7.22-6.27-5.08-13.78-9.54-21.81-11-.57-.1-1.14-.19-1.71-.26.37-1.41.77-2.81,1.18-4.21,1.5-5.04,3.4-9.9,5.38-14.74.5.63,1.03,1.23,1.59,1.8,4.4,4.56,10.69,7.35,16.95,8.06,2.57.29,5.18.22,7.73-.23-.41,2.82-.75,5.64-1.01,8.47-.56,6.23-.86,12.42-.68,18.68Z"/>
    <path class="cls-20" d="M62.37,172.3c-.21-7.79,1.3-15.5,3.22-23.01,1.59-6.22,3.43-12.38,5.11-18.58-.19-.09-.37-.19-.55-.31h0c-.04-.12-.07-.23-.11-.34-.01-.04-.02-.08-.03-.12-.83-.38-1.66-.78-2.49-1.18-6.24-3.04-12.72-6.63-17.5-11.76-1.58-1.7-4.76-4.95-3.84-7.41,2.44.88,4.93,1.6,7.44,2.21,8.03,1.96,16.4,3.07,24.67,3.11,7.37.03,15.09-.63,21.86-3.77,1.97-.92,3.94-2.25,5.51-3.9.03.16.07.32.1.47.03-.09.07-.18.1-.27.23,1.29.44,2.58.62,3.87-1.38,1.04-2.29,2.49-2.91,4.14-.11.3-.24.6-.36.9-2.32,5.63-4.9,11.15-7.27,16.75-3.54,8.35-6.93,16.78-9.76,25.4-1.32,4.01-2.52,8.07-3.43,12.19-.86,3.93-1.65,8.02-1.59,12.06.07,4.31.99,8.57,3.87,11.92,1.49,1.72,3.56,2.98,5.72,3.66,2.45.77,4.84.65,7.34.28,7.29-1.09,13.17-6.72,17.1-12.61.61-.91,1.18-1.85,1.72-2.82,1.17,1.28,2.37,2.54,3.57,3.79-2.74,2.82-5.42,5.69-8.02,8.64-7.1,8.01-13.74,16.33-19.91,25.02-3.04-2.28-5.98-4.68-8.78-7.24-11.68-10.69-20.95-24.86-21.4-41.11Z"/>
    <path class="cls-20" d="M134.12,116.78c0-6.31,1.57-12.49,3.48-18.46,1.95-6.09,4.31-12.04,6.08-18.19,1.37-4.76,2.53-9.82,2.39-14.82.02.02.04.04.05.07-.07-.79-.15-1.58-.27-2.36-.25-.29-.5-.57-.73-.85-1.47-1.75-2.91-3.52-4.32-5.32-2.49-3.19-4.85-6.47-6.96-9.92-1.99-3.26-4.07-6.79-5.28-10.44,1.31,1.68,2.72,3.28,4.23,4.79,2.51,2.53,5.23,4.84,7.99,7.1,1.54,1.26,3.11,2.56,4.82,3.58,3.12,1.86,6.37,3.52,9.67,5.04,4.51,2.07,9.07,4.03,13.82,5.47,4.42,1.34,9.15,2.38,13.79,2.38,1.46,0,3.02-.09,4.57-.33-.1.31-.21.63-.33.93-.03.07-.05.14-.09.21-.27.65-.58,1.29-.96,1.92-.77,1.27-1.81,2.32-2.82,3.39-1.19.36-2.31.99-3.23,1.81-1.22,1.09-2.42,2.2-3.6,3.34-10.81,10.41-19.9,23.01-23.89,37.66-.67,2.45-1.36,4.91-1.87,7.41-.58,2.81-1.16,5.78-.97,8.68.25,3.78,1.21,7.49,3.92,10.31,2.88,2.99,6.94,4.4,11.04,4.45,6.68.09,13.13-2.32,18.25-6.51.71,1.19,1.45,2.37,2.21,3.53-.22.11-.45.22-.67.34-5.11,2.57-10.1,5.39-14.93,8.44-4.94,3.12-9.73,6.48-14.34,10.08-.89.69-1.8,1.4-2.7,2.13-.59-1.14-1.24-2.25-1.86-3.37-1.14-2.06-2.26-4.13-3.37-6.2-2.23-4.17-4.45-8.34-6.51-12.6-3.57-7.39-6.6-15.34-6.61-23.65Z"/>
    <path class="cls-10" d="M328.54,274.74c-.96-4.29-.61-8.86,1.41-12.81,1.92-3.75,5.35-6.76,9.36-8.06,4.41-1.43,9.32-.47,12.98,2.32,1.87,1.42,3.14,3.37,4.04,5.51,1.52,2.66,2.34,5.67,2.42,8.78.05,2.16-.35,4.22-.88,6.29-.51,2.03-1.32,3.91-2.6,5.57-2.4,3.11-5.96,5.41-9.88,5.96-8.25,1.16-15.15-6.01-16.84-13.56Z"/>
    <path class="cls-10" d="M258.79,295.81c-1.2-9.63,7.45-17.25,16.64-17.43,1.97-.04,3.92.28,5.76.91.7-.06,1.27.05,2.02.4,1.02.47,1.95,1.13,2.81,1.86,1.68,1.43,3.05,3.33,4.15,5.23,2.23,3.84,3.6,8.5,3.23,12.96-.36,4.36-2.23,8.37-5.59,11.24-3.46,2.96-7.79,4.36-12.32,3.57-4.22-.74-8.05-3.39-10.85-6.55-3.06-3.43-5.27-7.6-5.84-12.19Z"/>
    <path class="cls-20" d="M215.57,416.57c4.61,3.42,9.46,6.45,14.98,8.14,5.61,1.71,11.67,2.24,17.5,2.65,3.48.24,6.98.53,10.36,1.44,3.22.86,6.28,2.24,9.25,3.73,5.68,2.85,11.18,5.78,17.38,7.31,3.4.84,6.86,1.33,10.36,1.49,1.8.08,3.6.08,5.4-.01,1.82-.09,3.6-.4,5.41-.19,1.17.14,1.49,2.12.4,2.6-1.58.7-3.21.85-4.92,1.01-1.63.15-3.26.24-4.89.25-3.32.03-6.63-.26-9.91-.74-6.57-.97-12.87-3.02-18.82-5.97-2.91-1.44-5.82-2.97-8.88-4.08-3.24-1.17-6.63-1.71-10.03-2.17-3.18-.43-6.37-.79-9.51-1.48-2.97-.65-5.8-1.54-8.62-2.66-3.06-1.21-6.05-2.53-8.82-4.32-2.81-1.81-5.16-3.92-6.88-6.79-.1-.17.11-.31.25-.21Z"/>
    <path class="cls-20" d="M427.66,375.4c-.64-1.8-1.31-3.38-1.52-5.3-.2-1.78.03-3.57.37-5.33.68-3.54,1.87-6.99,2.9-10.44,2.1-7,4.22-14,5.92-21.11,1.67-7.01,3.16-14.12,3.66-21.32.28-3.93.27-7.88-.07-11.81-.18-2-.43-3.99-.78-5.97-.17-.95-.36-1.9-.57-2.85-.25-1.1-.24-2.17-.46-3.27-.09-.45.57-.85.81-.36.34.71.83,1.35,1.15,2.06.39.86.6,1.86.86,2.77.49,1.74.91,3.5,1.22,5.28.61,3.52.96,7.07,1.06,10.64.2,7.21-.41,14.58-1.88,21.64-1.51,7.28-3.58,14.42-5.69,21.55-.58,1.97-1.17,3.93-1.76,5.9-.64.27-1.13.85-1.15,1.76-.04,2.49-.9,4.72-1.62,7.14-.78,2.61-.99,5.28-.34,7.94.89,3.62,2.47,7.11,3.59,10.66,1.19,3.75,2.13,7.58,2.34,11.52,0,.18.04.35.08.52-.48.35-1.28.15-1.37-.65-.2-1.88-.37-3.75-.83-5.6-.44-1.75-1.01-3.47-1.66-5.15-1.32-3.45-3.03-6.75-4.27-10.22Z"/>
    <path class="cls-20" d="M426.58,405.96c-.11-1.16-.32-2.3-.57-3.44-.56-2.58-1.34-5.11-1.9-7.69-.58-2.67-1-5.37-1.46-8.07-.23-1.33-.43-2.66-.62-4-.18-1.32-.46-2.76-.23-4.08.13-.73,1.31-.94,1.64-.25.59,1.21.76,2.66,1.03,3.97.29,1.39.6,2.78.94,4.17.67,2.68,1.56,5.32,2.45,7.94.85,2.49,1.58,5.04,2.11,7.63.28,1.37.51,2.75.64,4.14.14,1.43.25,2.89-.78,4.03-.75.83-1.87.5-2.48-.26-.89-1.1-.66-2.74-.8-4.08Z"/>
    <path class="cls-20" d="M282.6,406.29c.48-.59.66-1.38,1.12-1.99.45-.58,1-1.1,1.47-1.67.9-1.1,1.76-2.26,2.55-3.43.8-1.19,1.52-2.43,2.15-3.71.65-1.31,1.04-2.81,1.77-4.07.76-1.31,2.48-.44,2.32.91-.18,1.51-1.04,3.11-1.72,4.46-.69,1.38-1.47,2.7-2.35,3.96-.89,1.28-1.86,2.44-2.98,3.53-.52.51-1.06,1.07-1.65,1.5-.69.51-1.54.6-2.28,1.01-.33.18-.65-.22-.41-.5Z"/>
    <path class="cls-20" d="M296.69,414.72c1.8-1.24,4.12-1.62,6.15-2.38,2.2-.82,4.33-1.78,6.43-2.84,2.02-1.02,3.98-2.13,5.88-3.36.92-.6,1.82-1.22,2.71-1.87.91-.66,1.85-1.42,2.97-1.62.27-.05.65.17.53.51-.75,1.98-3.18,3.33-4.86,4.48-1.96,1.35-3.99,2.59-6.1,3.69-2.08,1.09-4.25,2.03-6.45,2.86-2.15.81-4.59,1.93-6.92,1.7-.61-.06-.89-.8-.34-1.17Z"/>
    <path class="cls-20" d="M293.63,427.25c.36-1.33,1.8-1.87,2.99-2.2,1.43-.39,2.87-.68,4.33-.94,2.84-.49,5.71-.95,8.45-1.89,2.61-.89,5.1-2.1,7.46-3.53,1.12-.68,2.21-1.42,3.25-2.21.87-.67,1.84-1.75,3.03-1.53.13.03.2.15.21.27.16,1.22-1.13,2.12-1.97,2.82-1.03.87-2.09,1.68-3.2,2.44-2.31,1.58-4.8,2.86-7.4,3.89-2.68,1.06-5.43,1.78-8.23,2.43-1.5.35-3.01.68-4.5,1.07-1.25.32-2.87.96-4.07.17-.26-.17-.43-.47-.34-.79Z"/>
    <path class="cls-20" d="M288.07,434.83c.81-.92,2.45-1.06,3.57-1.19,4.76-.55,9.51-1.14,14.16-2.37,2.44-.65,4.85-1.48,7.13-2.57,1.14-.55,2.23-1.18,3.33-1.82,1.13-.66,2.27-.98,3.51-1.34.31-.09.59.26.43.54-.48.91-.94,1.73-1.72,2.42-.89.79-1.94,1.39-2.98,1.97-2,1.12-4.12,2.06-6.28,2.84-4.44,1.62-9.03,2.56-13.69,3.25-1.15.17-2.3.33-3.46.48-1.15.15-2.64.34-3.7-.28-.71-.42-.85-1.33-.3-1.94Z"/>
    <path class="cls-20" d="M322.56,297.99c.3-1.3.68-2.79,1.37-3.94.8-1.34,2.52-1.91,3.92-1.14,1.46.8,1.78,2.49,1.14,3.92-.21.46-.45.91-.7,1.35-.02.21-.04.41-.06.59-.24,2.09-1.18,4.15-3.29,4.89-1.1.39-2.25-.4-2.59-1.42-.45-1.35-.11-2.9.21-4.25Z"/>
    <path class="cls-20" d="M282.88,324.93c2.15-1.69,4.41-3.29,6.87-4.5,2.45-1.21,5.6-2.58,8.4-2.37,1.71.13,3.26,1.05,3.69,2.8.48,1.92-.77,3.37-2.07,4.58-3.1,2.86-6.87,4.7-10.79,6.16-.92.44-1.87.82-2.85,1.13-2.26.71-6.54,2.1-7.64-1-1.1-3.1,2.35-5.18,4.39-6.79Z"/>
    <path class="cls-20" d="M343.97,299.17c.78-1.67,2.16-2.72,3.69-3.64,1.55-.93,3.14-1.76,4.8-2.49,3.32-1.46,6.74-2.61,10.27-3.41,1.27-.29,2.62.13,3.32,1.28.64,1.04.59,2.71-.37,3.56-2.01,1.78-4.18,3.32-6.6,4.5-.9.44-1.82.86-2.77,1.16-1.5.68-3.03,1.28-4.6,1.76-1.95.6-4.96,1.81-6.82.46-1.08-.78-1.52-1.92-.93-3.19Z"/>
    <path class="cls-17" d="M278.22,235.62c.07,0,.13-.01.2-.02.1,0,.2,0,.3-.01,0,.02-.02.04-.03.06.22,0,.44,0,.66-.02,1.82-.07,3.64-.23,5.45-.48,3.72-.52,7.41-1.47,10.86-2.98,5.3-2.32,10.12-6.05,13.31-10.91.07.04.14.09.22.12.02-.03.04-.05.06-.08,3.13,2.47,7.06,3.85,11.08,3.92,2.63.04,5.22-.49,7.62-1.57,2.52-1.13,4.95-2.09,7.44-.34,2.28,1.6,4.07,4.05,5.87,6.14,1.92,2.23,3.85,4.48,6.09,6.39,2.16,1.84,4.76,3.54,7.66,3.79,3.06.26,5.55-1.52,7.08-4.06,2.86-4.77,2.71-10.8,1.16-15.97-1.62-5.38-4.76-10.45-8.75-14.39-4.14-4.09-10.01-7.05-15.96-5.9-2.2.42-4.83,1.08-5.76-1.64-.49-1.44-.54-3.08-.78-4.57-.26-1.62-.56-3.24-1-4.83-1.52-5.47-4.9-10.34-9.41-13.77-3.82-2.9-10.45-6.29-15.03-3.33.04.05.09.09.13.14-.02.02-.05.04-.07.07-.01,0-.27.18-.33.22-.21.13-.42.26-.63.39-2.19-2.38-4.74-4.43-7.58-6-3.44-1.91-7.99-3.47-11.62-1.13-1.71,1.1-2.5,2.8-2.81,4.67.05.03.1.06.15.09-.02.19-.04.38-.06.58-.02.31-.03.61-.04.92-.71-.47-1.44-.9-2.2-1.28-3.11-1.57-7.42-2.14-10.19.44-2.78,2.58-2.36,6.76-1.42,10.06,1.07,3.77,2.36,7.38,2.92,11.28.29,1.99.46,4.02.46,6.04,0,1.25-.12,2.56-.67,3.71-.57,1.19-1.67,1.99-3,2.04-1.6.07-3.1-.75-4.66-.98-6.91-.99-12.83,4.41-16.02,9.96-1.75,3.05-3.03,6.33-4.32,9.6-1.06,2.7-2.03,6.57-4.78,8.07-2.32,1.27-4.77-.13-5.96-2.23-1.54-2.71-.74-5.71-.15-8.57.3-1.46,1.07-4.48-1.02-4.91-1.61-.34-3.52.66-4.82,1.49-3.04,1.92-5.21,4.96-7.07,7.97-3.57,5.77-6.02,12.2-7.24,18.88-.82,4.48-1.18,9.26-.66,13.89-.24.06-.46.17-.66.3,0,.15.01.3.02.45-1.13.8-2.32,1.51-3.44,2.33-1.44,1.07-2.78,2.28-3.99,3.61-2.33,2.55-4.37,5.63-5.38,8.96-1.09,3.6-.48,7.19,1.99,10.08,2.42,2.84,5.88,4.45,9.31,5.73.45.17.82.82.35,1.21-5.51,4.6-9.17,11.1-10.48,18.14-.66,3.53-.72,7.2-.1,10.75.7,3.98,2.14,8.07,5.02,11.01,1.47,1.5,3.24,2.67,5.14,3.57,1.26.6,2.6,1.16,3.96,1.62-1.1-3.39-1.36-7.01-.41-10.57.84-3.16,2.57-6.13,5.09-8.24,2.78-2.32,6.26-3.48,9.85-3.74,2.24-.16,4.5.03,6.71.49.33-.37.65-.74.96-1.12,2.39-2.9,4.48-6.07,6.03-9.51,3.59-7.96,3.07-16.55,1.79-24.98-.39-2.54-.88-5.08-1.51-7.57-.02,0-.04.01-.06.02-.01-.14-.03-.29-.05-.43,0,0,0,0,0,0-.02-.08-.04-.16-.06-.23,0,0,.02,0,.03-.01-.05-.35-.11-.71-.19-1.06.08-.02.15-.04.23-.06,5.09-1.36,10.01-3.5,14.43-6.38,8.33-5.44,14.68-13.69,19.01-22.56.43-.88.85-1.78,1.24-2.68.09-.02.19-.04.28-.06,0,0,0,0,0-.01.02,0,.04,0,.05,0,.02,0,.05,0,.07-.01.06,0,.09-.01.1-.02h0Z"/>
    <path class="cls-9" d="M163.19,270.51c1.36.92,2.52,1.89,3.24,3.29,8.29-9.82,16.87-19.4,25.74-28.72,9.04-9.49,18.34-18.74,27.9-27.71,2.64-2.48,5.29-4.96,8-7.38,2.2-1.97,4.52-3.94,7.11-5.41-.27-.27-.54-.54-.82-.81-.73-.73-1.44-1.36-1.94-2.25-.03,0-.05,0-.08,0-2.17,1.8-4.45,3.48-6.65,5.25-2.58,2.08-5.14,4.2-7.66,6.36-4.87,4.18-9.69,8.41-14.37,12.8-9.42,8.82-18.32,18.16-26.76,27.92-2.39,2.77-4.73,5.58-7.06,8.4-1.14,1.39-2.28,2.78-3.39,4.2-1.07,1.36-2.08,2.78-3.27,4.04Z"/>
    <path class="cls-2" d="M92.8,222.15c-1.25,1.75-2.47,3.52-3.67,5.3,18.24,12.79,37.4,24.33,57.31,34.49,5.35,2.73,10.77,5.36,16.21,7.94,0,.05,0,.11.01.16,1.53-2.56,3.59-4.87,5.42-7.21,1.99-2.56,4.04-5.07,6.12-7.55,4.2-5.01,8.56-9.89,13.05-14.64,8.92-9.44,18.33-18.55,28.34-26.83,2.71-2.25,5.45-4.46,8.23-6.63,2.46-1.93,4.92-3.92,7.49-5.72-4.12-22.16-16.58-41.45-29.13-59.75-.73-1.07-1.44-2.17-2.21-3.2-.41-.55-.9-1.14-1.64-1.18-.73-.04-1.53.42-2.18.7-2.59,1.08-5.14,2.22-7.67,3.43-.9.43-1.81.87-2.71,1.32-3.89,1.93-7.71,4.01-11.44,6.23-4.71,2.79-9.28,5.8-13.71,9.02-2.81,2.04-5.68,4.13-8.34,6.42-1.35,1.16-2.66,2.38-3.87,3.68-.98,1.04-1.87,2.13-2.67,3.31-.38.55-.9,1.16-1.07,1.82-.26.99.64,1.81,1.22,2.49,2.13,2.55,4.26,5.09,6.39,7.63,2.04,2.45,4.08,4.89,6.13,7.33.55.65,1.1,1.31,1.64,1.96.03.12.06.24.09.36.04.16.08.33.11.49.03.14.06.29.09.44-2.46,2.33-4.81,4.76-7.05,7.3-.12-.05-.23-.1-.34-.15-.14-.06-.28-.12-.42-.18-.19-.08-.38-.15-.58-.21-1.09-1.26-2.15-2.56-3.23-3.83-2.16-2.51-4.36-4.99-6.61-7.43-2.29-2.48-4.62-4.93-6.99-7.33-.9-.91-2.09-2.62-3.46-2.82-1.59-.24-3.04,1.63-4.05,2.6-9.21,8.87-17.85,18.3-25.77,28.29-3.11,3.92-6.12,7.91-9.02,11.98Z"/>
    <path class="cls-7" d="M200.52,318.17c-.62-3.54-.56-7.22.1-10.75,1.31-7.04,4.96-13.54,10.48-18.14.47-.39.1-1.04-.35-1.21-3.43-1.27-6.89-2.89-9.31-5.73-2.47-2.89-3.08-6.48-1.99-10.08,1.01-3.33,3.05-6.41,5.38-8.96,1.21-1.33,2.55-2.54,3.99-3.61,1.12-.83,2.31-1.53,3.44-2.34,0-.15,0-.3-.02-.46.21-.14.43-.24.66-.3-.52-4.63-.16-9.41.66-13.89,1.22-6.67,3.67-13.11,7.24-18.88,1.86-3.01,4.04-6.05,7.07-7.97,1.31-.83,3.21-1.82,4.82-1.49,2.08.43,1.32,3.45,1.02,4.91-.59,2.86-1.39,5.86.15,8.57,1.19,2.1,3.64,3.5,5.96,2.23,2.75-1.51,3.72-5.38,4.78-8.07,1.28-3.26,2.56-6.55,4.32-9.6,3.2-5.55,9.11-10.94,16.02-9.96,1.56.22,3.06,1.05,4.66.98,1.33-.06,2.43-.86,3-2.04.55-1.14.67-2.45.67-3.71,0-2.02-.17-4.04-.46-6.04-.56-3.9-1.85-7.51-2.92-11.28-.94-3.3-1.36-7.48,1.42-10.06,2.78-2.58,7.08-2.01,10.19-.44.75.38,1.49.81,2.2,1.28.01-.31.02-.61.04-.92.01-.2.03-.39.06-.58-.05-.03-.1-.06-.15-.09.31-1.87,1.1-3.57,2.81-4.67,3.63-2.35,8.18-.78,11.62,1.13,2.83,1.57,5.38,3.62,7.58,6,.21-.13.42-.26.63-.39.06-.04.31-.22.33-.22.02-.02.05-.04.07-.07-.04-.05-.09-.09-.13-.14,4.58-2.97,11.21.43,15.03,3.33,4.51,3.43,7.89,8.3,9.41,13.77.44,1.58.74,3.2,1,4.83.24,1.49.28,3.13.78,4.57.93,2.72,3.57,2.06,5.76,1.64,5.95-1.15,11.82,1.81,15.96,5.9,3.99,3.94,7.13,9.01,8.75,14.39,1.5,4.97,1.69,10.74-.84,15.41-.19-.48-.38-.96-.59-1.43-.56-1.31-1.3-2.53-2.11-3.7-1.54-2.22-3.1-4.43-4.89-6.45-3.09-3.48-6.69-6.5-10.34-9.35-2.61-2.03-5.39-3.91-8.37-5.34-.44-.21-.88-.43-1.33-.64-.51-6.14-2.18-12.08-6.31-16.93-3.6-4.22-9.12-6.37-14.55-6.64-2.37-.12-4.83.22-7.13.77-2.08.5-4.22,1.3-6.02,2.48-3.86,2.53-7.14,5.74-9.27,9.89-1.82,3.55-3.29,7.2-4.27,11.06-.58,2.28-1.05,4.58-1.45,6.89-5.28-.95-10.45-.34-15.41,2.07-5.06,2.46-8.82,6.9-12.15,11.27-2.94,3.85-4.36,8.45-5.34,13.13-.2.96-.37,1.94-.55,2.93-.53.07-1.05.15-1.53.23-2.17.34-4.18,1.3-6.2,2.17-3.89,1.35-7.88,2.43-11.63,4.18-4.45,2.08-8.87,5.86-11.11,10.29-1.41,2.78-2.55,5.41-3.06,8.46-.38,2.28-.78,4.53-.89,6.84-.11,2.3.2,4.61.5,6.88.46,3.51,1.68,6.7,2.96,9.99.91,2.31,2.02,4.53,3.36,6.62-.16.14-.33.27-.49.41-2.41,2.1-4.49,4.63-6.4,7.17-1.24,1.64-2.31,3.41-3.2,5.26-1.39,2.91-2.75,5.84-3.58,8.97-.81,3.07-1.32,6.27-1.58,9.43,0,.06,0,.11-.01.17-1.43-.8-2.76-1.76-3.9-2.93-2.87-2.93-4.32-7.03-5.02-11.01Z"/>
    <g>
      <path class="cls-19" d="M146.34,222.63c1.38-5.02,4.38-9.14,7.48-13.22,5.1-6.74,10.97-12.91,17.43-18.36,6.88-5.8,14.23-10.99,22.22-15.13,6.44-3.34,13.84-5.91,20.98-4.79,3.57,6.65,6.83,13.45,9.62,20.45-.08.12-.17.25-.25.37-2.34,3.46-5.07,6.48-8.08,9.32-.1.1-.19.2-.28.3-1.6,1.76-3.18,3.55-4.8,5.29-3.32,3.57-7.01,6.86-10.51,10.26-3.51,3.41-7.2,6.66-10.8,9.98-3.67,3.39-7.36,6.72-11.32,9.78-3.71,2.86-8.07,5.36-12.67,6.4-2.74.62-5.67.78-8.4.05-3.4-.9-6.01-2.9-8.12-5.63-3.21-4.16-3.89-10.07-2.52-15.04Z"/>
      <path class="cls-19" d="M161.86,164.08c.65-1.97,2.03-3.8,3.67-5.34,1.24-1.17,2.79-2.17,4.2-3.17,1.26-.89,2.54-1.74,3.88-2.53,2.47-1.46,4.97-2.81,7.64-3.94,3.17-1.35,6.43-2.68,9.82-3.46,2.67-.61,5.25-.83,7.77-.62,3.5,4.75,6.92,9.59,10.11,14.54-6.56,8.53-22.48,11.87-32.97,13.83-1.68.31-3.38.72-5.06.68-2.67-.06-5.16-.61-6.97-2.24-2.22-2-3.03-4.86-2.09-7.73Z"/>
      <path class="cls-19" d="M109.43,219.03c.83-9.13,5.36-17.83,11.39-24.63,1.65-1.86,3.53-3.78,5.68-5.03,3.89-2.27,8.71-2.75,12.75-.5,5.87,3.27,7.35,10.5,5.58,16.57-.64,2.18-1.61,4.28-2.74,6.29-.38,1.23-.83,2.42-1.32,3.63-.82,2.04-2.33,3.86-3.69,5.55-1.13,1.41-2.37,2.74-3.72,3.95-.7.64-1.45,1.3-2.23,1.94-1.25,1.43-2.55,2.82-3.91,4.17-2.62,2.59-6.39,3.48-9.84,2.13-1.5-.59-2.67-1.44-3.68-2.69-.49-.61-.88-1.23-1.18-1.87-2.2-2.57-3.37-6.17-3.07-9.51Z"/>
    </g>
    <g>
      <path class="cls-5" d="M146.61,176.6c-.25-.29-.49-.59-.74-.88-.57-.68-1.48-1.51-1.22-2.49.17-.65.7-1.27,1.07-1.82.81-1.17,1.69-2.27,2.67-3.31,1.22-1.29,2.52-2.51,3.87-3.68,2.66-2.29,5.53-4.38,8.34-6.42,4.43-3.22,9-6.23,13.71-9.02,3.74-2.22,7.55-4.29,11.44-6.23.9-.45,1.8-.88,2.71-1.32,2.53-1.21,5.09-2.35,7.67-3.43.65-.27,1.45-.73,2.18-.7.74.04,1.23.63,1.64,1.18.77,1.04,1.48,2.14,2.21,3.2.1.15.2.3.3.45-3.12,1.04-6.19,2.2-9.23,3.45-17.32,7.14-33.18,17.99-46.64,31Z"/>
      <path class="cls-5" d="M197.5,165.81c-4.19,1.8-8.4,3.55-12.58,5.38-1.49.66-2.99,1.32-4.45,2.05-2.22,1.11-4.27,2.57-6.3,3.98-5.72,3.98-11.07,8.36-16.07,13.11-1.6-1.92-3.21-3.84-4.81-5.76,3.22-3.13,6.57-6.13,10.05-8.97,1.84-1.5,3.72-2.97,5.63-4.38.57-.43,1.15-.85,1.73-1.26.04-.03.08-.06.12-.09.13-.09.27-.18.4-.27.93-.65,1.86-1.29,2.8-1.92,4.06-2.71,8.25-5.21,12.56-7.49,4.19-2.21,8.49-4.22,12.88-5.97.38-.15.76-.3,1.14-.45.53-.2,1.05-.39,1.58-.59,1.05-.38,2.11-.75,3.17-1.1,1.04-.34,2.08-.67,3.13-.99,1.62,2.47,3.22,4.95,4.77,7.47-.93.49-1.87.97-2.82,1.43-4.25,2.08-8.61,3.96-12.96,5.82Z"/>
      <path class="cls-5" d="M113.37,233.34c.18-.39.35-.79.53-1.18,0-.02.02-.04.03-.06.25-.54.49-1.08.75-1.62,2.33-5.01,4.87-9.95,8.03-14.49,1.69-2.43,3.46-4.81,5.32-7.12.19-.23.37-.46.56-.69.09-.1.17-.21.26-.31.45-.54.91-1.07,1.38-1.6,1.01-1.16,2.05-2.29,3.11-3.4,2.09-2.19,4.28-4.28,6.57-6.26,1.16-1,2.36-1.98,3.57-2.91.49-.37.99-.73,1.48-1.09,1.26,1.41,2.5,2.83,3.73,4.26.48.56.96,1.13,1.43,1.69-2.94,3.27-5.74,6.69-8.4,10.23-8.87,11.8-16.21,24.78-22.55,38.1-3.12-1.86-6.23-3.76-9.31-5.69.63-1.38,1.24-2.77,1.86-4.15.55-1.23,1.09-2.47,1.64-3.7Z"/>
      <path class="cls-5" d="M92.8,222.15c2.9-4.07,5.92-8.06,9.02-11.98,7.92-9.99,16.56-19.42,25.77-28.29,1.01-.97,2.46-2.84,4.05-2.6,1.37.2,2.56,1.91,3.46,2.82.94.95,1.88,1.92,2.81,2.89-4.68,3.48-9.01,7.4-12.98,11.7-4.26,4.63-8.24,9.59-11.73,14.83-3.13,4.7-5.65,9.78-7.99,14.91-1.31,2.88-2.59,5.77-3.88,8.66-.07.17-.15.33-.22.5-4.04-2.65-8.03-5.36-11.99-8.13,1.2-1.78,2.43-3.54,3.67-5.3Z"/>
      <path class="cls-5" d="M154.35,209.42s.07-.08.1-.12c.06-.07.1-.12.13-.16.02-.02.04-.05.06-.07.28-.33.56-.67.84-1,.57-.66,1.14-1.32,1.72-1.97,1.19-1.35,2.41-2.67,3.66-3.97,2.51-2.61,5.12-5.12,7.83-7.52,2.76-2.43,5.62-4.75,8.58-6.93.22-.16.47-.39.72-.58.06-.02.16-.06.26-.14.19-.13.37-.26.56-.39.75-.52,1.5-1.04,2.26-1.54,1.12-.74,2.23-1.53,3.41-2.16,3.07-1.66,6.34-2.96,9.55-4.33,4.45-1.9,8.92-3.77,13.35-5.72,3.76-1.65,7.53-3.33,11.15-5.28,1.42,2.58,2.76,5.19,4.03,7.84-.14.05-.27.11-.41.16-11.31,4.54-21.63,11.31-31.05,18.99-9.42,7.68-17.93,16.43-25.87,25.62-4.15,4.8-8.16,9.73-12.07,14.73-3.59,4.59-7.22,9.2-10.52,14-1.86,2.71-3.61,5.48-5.28,8.3-3.09-1.66-6.16-3.36-9.22-5.09.67-1.4,1.34-2.79,2.03-4.17,6.76-13.55,14.59-26.74,24.19-38.49Z"/>
      <path class="cls-5" d="M164.04,237.7c.89-1.13,1.8-2.25,2.7-3.37.51-.63,1.02-1.26,1.54-1.88.06-.08.13-.16.19-.24.17-.2.34-.4.51-.61,1.91-2.29,3.86-4.55,5.84-6.78,7.98-8.99,16.56-17.5,26.05-24.88,1.19-.92,2.39-1.83,3.61-2.72.1-.07.2-.14.3-.21.25-.17.49-.35.74-.52.57-.4,1.14-.79,1.71-1.17,2.47-1.66,4.99-3.24,7.58-4.71,2.52-1.43,5.09-2.77,7.72-3.98,1.28-.59,2.58-1.16,3.88-1.7.06-.03.13-.05.19-.08,1.45,3.84,2.7,7.76,3.67,11.77-1.31,1.11-2.68,2.16-4.06,3.18-.46.34-.92.68-1.38,1.01-.11.08-.22.16-.33.24.17-.12.21-.16-.43.31-.89.63-1.79,1.26-2.68,1.89-2.17,1.52-4.34,3.05-6.48,4.61-3.38,2.47-6.47,5.21-9.55,8.04-3.97,3.66-7.86,7.39-11.68,11.2-7.62,7.59-14.95,15.48-21.96,23.64-4.74,5.5-9.22,11.22-13.73,16.91-3.83-1.85-7.65-3.72-11.44-5.66,2.15-3.59,4.43-7.1,6.9-10.48,3.42-4.68,7-9.27,10.6-13.81Z"/>
    </g>
    <g>
      <path class="cls-13" d="M162.12,163.41c.72-1.72,1.97-3.31,3.42-4.67,1.24-1.17,2.79-2.17,4.2-3.17,1.26-.89,2.54-1.74,3.88-2.53,2.47-1.46,4.97-2.81,7.64-3.94,3.17-1.35,6.43-2.68,9.82-3.46,1.2-.28,2.38-.47,3.55-.58-.46.18-.91.36-1.36.55-11.05,4.56-21.51,10.63-31.14,17.81Z"/>
      <path class="cls-13" d="M197.5,165.81c-4.19,1.8-8.4,3.55-12.58,5.38-.51.22-1.02.45-1.52.68-2.62.59-5.14,1.08-7.41,1.5-1.68.31-3.38.72-5.06.68-1.64-.04-3.22-.26-4.61-.81.88-.68,1.77-1.36,2.67-2.02.57-.43,1.15-.85,1.73-1.26.04-.03.08-.06.12-.09.13-.09.27-.18.4-.27.93-.65,1.86-1.29,2.8-1.92,4.06-2.71,8.25-5.21,12.56-7.49,4.19-2.21,8.49-4.22,12.88-5.97.38-.15.76-.3,1.14-.45.53-.2,1.05-.39,1.58-.59.66-.24,1.33-.47,1.99-.7,1.63,2.33,3.22,4.69,4.75,7.07-.55.71-1.17,1.39-1.84,2.03-3.18,1.47-6.4,2.86-9.62,4.24Z"/>
      <path class="cls-13" d="M122.71,215.98c1.69-2.43,3.46-4.81,5.32-7.12.19-.23.37-.46.56-.69.09-.1.17-.21.26-.31.45-.54.91-1.07,1.38-1.6,1.01-1.16,2.05-2.29,3.11-3.4,2.09-2.19,4.28-4.28,6.57-6.26,1.16-1,2.36-1.98,3.57-2.91.1-.08.21-.16.31-.23,1.8,3.26,2.14,7.33,1.26,11.06-1.13,1.4-2.24,2.82-3.32,4.26-5.2,6.91-9.87,14.23-14.12,21.79-.14.14-.27.28-.41.41-2.62,2.59-6.39,3.48-9.84,2.13-1.18-.46-2.15-1.09-3.01-1.95.11-.23.21-.46.32-.69,2.33-5.01,4.87-9.95,8.03-14.49Z"/>
      <path class="cls-13" d="M113.21,211.51c-1.29,1.94-2.48,3.95-3.6,6,1.17-8.58,5.52-16.7,11.21-23.12,1.65-1.86,3.53-3.78,5.68-5.03,2.51-1.46,5.41-2.18,8.23-1.91-3.47,2.83-6.74,5.91-9.79,9.22-4.26,4.63-8.24,9.59-11.73,14.83Z"/>
      <path class="cls-13" d="M149.16,216.14c1.67-2.29,3.4-4.53,5.19-6.72.04-.05.07-.08.1-.12.06-.07.1-.12.13-.16.02-.02.04-.05.06-.07.28-.33.56-.67.84-1,.57-.66,1.14-1.32,1.72-1.97,1.19-1.35,2.41-2.67,3.66-3.97,2.51-2.61,5.12-5.12,7.83-7.52,2.76-2.43,5.62-4.75,8.58-6.93.22-.16.47-.39.72-.58.06-.02.16-.06.26-.14.19-.13.37-.26.56-.39.75-.52,1.5-1.04,2.26-1.54,1.12-.74,2.23-1.53,3.41-2.16,3.07-1.66,6.34-2.96,9.55-4.33,4.45-1.9,8.92-3.77,13.35-5.72,1.45-.64,2.91-1.28,4.36-1.94.92.03,1.83.11,2.74.25,1.12,2.09,2.21,4.19,3.27,6.31-9.6,4.43-18.46,10.41-26.64,17.08-9.42,7.68-17.93,16.43-25.87,25.62-4.15,4.8-8.16,9.73-12.07,14.73-1.06,1.36-2.13,2.73-3.19,4.09-.38-.41-.74-.84-1.09-1.29-3.21-4.16-3.89-10.07-2.52-15.04.64-2.33,1.63-4.46,2.82-6.49Z"/>
      <path class="cls-13" d="M166.75,234.33c.51-.63,1.02-1.26,1.54-1.88.06-.08.13-.16.19-.24.17-.2.34-.4.51-.61,1.91-2.29,3.86-4.55,5.84-6.78,7.98-8.99,16.56-17.5,26.05-24.88,1.19-.92,2.39-1.83,3.61-2.72.1-.07.2-.14.3-.21.25-.17.49-.35.74-.52.57-.4,1.14-.79,1.71-1.17,2.47-1.66,4.99-3.24,7.58-4.71,2.38-1.35,4.81-2.62,7.29-3.78.68,1.57,1.34,3.15,1.98,4.74-.08.12-.17.25-.25.37-2.34,3.46-5.07,6.48-8.08,9.32-.1.1-.19.2-.28.3-1.6,1.76-3.18,3.55-4.8,5.29-3.32,3.57-7.01,6.86-10.51,10.26-3.51,3.41-7.2,6.66-10.8,9.98-3.67,3.39-7.36,6.72-11.32,9.78-3.71,2.86-8.07,5.36-12.67,6.4-1.97.45-4.03.65-6.05.46,1.56-2.02,3.14-4.02,4.72-6.01.89-1.13,1.8-2.25,2.7-3.37Z"/>
    </g>
    <path class="cls-16" d="M333.22,271.81c-.44-3.12-.14-6.57,1.83-9.15,1.8-2.36,4.72-3.32,7.61-3,3.15.36,5.81,2.08,7.72,4.56,2.4,3.12,3.51,7.12,3.93,10.98.6,5.47-2.49,12.2-8.92,11.38-3.24-.41-5.99-2.64-7.98-5.1-2.25-2.78-3.7-6.14-4.19-9.68Z"/>
    <path class="cls-16" d="M270.73,297.43c-.48-3.17-.29-6.65,1.64-9.33,1.75-2.44,4.71-3.92,7.7-3.95,3.12-.03,5.88,1.62,7.8,4,2.28,2.83,3.49,6.51,3.88,10.09.63,5.9-2.19,13.19-9.24,12.84-3.22-.16-6.01-1.81-8.01-4.3-2.13-2.65-3.27-6.02-3.77-9.35Z"/>
    <path class="cls-15" d="M325.27,240.95c.28-1,1.12-1.45,2.12-1.51,1.38-.09,2.84.05,4.22.1,1.4.05,2.79.14,4.18.26,1.4.12,2.88.15,4.25.45.24.05.43.18.55.34.45,0,.9.02,1.34.09.48.07.54.78.16,1.01-2.2,1.3-5.29,1.39-7.78,1.46-2.73.08-5.5-.24-8.18-.75-.62-.12-1.04-.86-.87-1.45Z"/>
    <path class="cls-15" d="M258.24,273.62c2.25-5.05,5.31-9.71,8.66-14.1.18-.23.57-.38.89-.35.08-.12.16-.25.24-.37.12-.18.39-.08.35.14-.03.14-.05.28-.08.42.13.08.24.18.35.34.31.43.15.97-.14,1.34-.4.53-.8,1.07-1.2,1.6-.63,1.65-1.44,3.25-2.3,4.78-1.48,2.64-3.31,5.08-5.66,7.01-.6.49-1.45-.06-1.11-.81Z"/>
    <path class="cls-15" d="M314.9,289.88c1.24-.45,2.17-1.24,3.51-1.45,1.06-.16,2.12-.16,3.18-.01,2.18.31,4.3,1.32,5.79,2.94,2.56,2.78,3.71,8.58.2,11.12-.33.24-.88-.14-.73-.53.6-1.6,1.19-3.22,1.09-4.96-.11-1.85-.92-3.6-2.29-4.85-1.39-1.27-3.26-2-5.13-2.12-1.91-.12-3.74.66-5.63.31-.24-.05-.21-.38,0-.45Z"/>
    <path class="cls-15" d="M316.31,321.97c.95-.36,2.05.21,2.99.45,1.07.27,2.16.49,3.27.54,2.32.11,4.54-.73,6.53-1.89,2.73-1.6,4.94-4.3,6.06-7.32.18.38.38.75.59,1.12,0,.02,0,.03-.01.05-.33,1.01-.79,1.97-1.36,2.86-1.19,1.84-2.77,3.24-4.49,4.55-2.06,1.57-4.31,2.63-6.94,2.69-1.22.03-2.46-.15-3.65-.41-1.16-.25-2.7-.39-3.45-1.4-.35-.47.01-1.06.48-1.24Z"/>
    <path class="cls-15" d="M331.21,304.12c.06-.16.24-.23.37-.11.99.85,1.27,2.42,1.75,3.58.57,1.38,1.27,2.71,2.05,3.98.79,1.27,1.67,2.48,2.65,3.6.83.95,2.25,1.92,2.56,3.2.09.38-.21.65-.58.6-1.41-.19-2.52-1.82-3.37-2.84-.97-1.17-1.86-2.41-2.63-3.72-.78-1.3-1.45-2.67-2.02-4.07-.5-1.23-1.29-2.89-.8-4.22Z"/>
    <path class="cls-15" d="M312.15,331.78c.23-1.47,1.15-2.66,1.71-4.02.55-1.33.94-2.73,1.17-4.15.23-1.42.27-2.88.15-4.31-.06-.7-.18-1.4-.25-2.1-.08-.85-.07-1.7-.22-2.55-.06-.31.36-.55.54-.24.86,1.44,1.47,2.73,1.68,4.41.2,1.64.15,3.3-.07,4.93-.22,1.59-.63,3.14-1.25,4.62-.62,1.48-1.33,3.13-2.83,3.87-.34.17-.69-.08-.63-.46Z"/>
    <path class="cls-15" d="M250.9,349.18c.33-.1.62-.26.86-.48,9.77,9.5,23.78,12.6,36.99,13.2,16.15.74,32.6-1.33,47.75-7.15,14.01-5.38,27.69-14.27,35.87-27.14,3.92-6.17,6.47-13.22,7.05-20.52.29-3.6.12-7.25-.6-10.79-.79-3.89-2.36-7.36-4.11-10.89-1.8-3.62-3.51-7.21-4.34-11.19-.82-3.97-1.1-7.99-1.55-12.01-.88-7.95-3.53-15.51-8.3-21.99-.27-.37-.55-.74-.84-1.1.2-.13.4-.27.6-.41,4.05,4.76,6.87,10.72,8.33,16.68,2.02,8.3,1.01,17.14,4.58,25.07,1.68,3.75,3.95,7.18,5.32,11.07,1.19,3.38,1.85,6.95,2.01,10.53.33,7.28-1.34,14.63-4.51,21.18-6.71,13.85-19.51,23.83-33.23,30.18-15.24,7.06-32.28,10.06-49.02,9.98-13.58-.06-28.34-2.11-39.38-10.66-1.35-1.05-2.62-2.18-3.82-3.4-.02-.02-.03-.04-.04-.05.13-.04.25-.07.38-.11Z"/>
    <path class="cls-15" d="M214.23,323.79c.84-3.16,2.57-6.13,5.09-8.24,2.78-2.33,6.26-3.48,9.85-3.74,4.03-.28,8.14.53,11.84,2.13,1.76.76,3.41,1.73,4.87,2.97,1.47,1.25,2.38,2.61,3.14,4.37.15.36-.4.68-.65.4-4.11-4.63-10-7.51-16.18-7.9-3.26-.21-6.63.26-9.53,1.84-2.69,1.47-4.7,3.82-5.91,6.61-2.74,6.29-.83,13.76,3.24,19.02,3.62,4.68,8.92,7.92,14.66,9.23,3.19.73,6.52.89,9.76.42,3.02-.44,7.14-1.24,8.53-4.32.07-.16.31-.08.32.08.05,2.96-4.11,4.09-6.38,4.66-3.09.77-6.31.96-9.47.6-6.26-.71-12.55-3.5-16.95-8.06-5.07-5.25-8.16-12.79-6.22-20.06Z"/>
    <path class="cls-15" d="M225.42,324.35c2.36-.45,4.9.48,7.07,1.33,2.38.93,4.56,2.17,6.45,3.89.07.07-.01.17-.1.14-2.22-1.05-4.48-2.08-6.81-2.86-2.18-.73-4.59-.94-6.67-1.92-.24-.11-.21-.53.06-.59Z"/>
    <path class="cls-15" d="M235.74,333.8c.54-.53,1.23-.83,1.89-1.18.65-.35,1.32-.7,2.04-.86.11-.02.19.1.11.19-.5.54-1.14.93-1.77,1.3-.64.38-1.26.83-1.99,1.02-.26.07-.49-.26-.28-.46Z"/>
    <path class="cls-15" d="M336.25,253.13c2.4-1.3,5.17-1.99,7.9-1.84,2.61.14,5.71.87,7.13,3.28.35.59-.19,1.42-.89,1.22-1.94-.55-3.75-1.51-5.79-1.69-2-.18-4,.16-5.86.89-4.07,1.59-6.95,5.49-8.36,9.51-1.63,4.63-1.97,10.11-.03,14.69,1.79,4.21,5.33,7.7,9.85,8.79,2.5.6,5.16.44,7.59-.39,1.25-.43,2.44-1.05,3.52-1.82,1.02-.73,1.79-1.69,2.76-2.48.06-.05.15.03.13.09-.74,2.05-3.1,3.6-5,4.47-2.19,1-4.65,1.45-7.06,1.27-4.88-.36-9.31-3.4-12-7.4-5.87-8.74-3.48-23.38,6.13-28.6Z"/>
    <path class="cls-15" d="M278.27,314.82c2.78-.94,5.5-1.94,7.95-3.59,2.42-1.63,4.54-3.69,6.37-5.95.06-.08.18.02.14.1-2.88,5.02-8.55,9.19-14.39,9.85-.24.03-.27-.33-.06-.4Z"/>
    <path class="cls-15" d="M257.9,293.92c-.09-1.35.14-2.71.52-4.01.76-2.65,2.19-5.04,4.19-6.94,4.28-4.08,10.5-5.93,16.34-5.31,1.51.16,3.06.43,4.46,1.05,1.48.65,2.53,1.59,3.45,2.9.3.42-.17,1.1-.68.92-2.78-.97-5.77-1.99-8.74-2.07-3.16-.08-6.37.58-9.19,2.02-2.78,1.42-5.04,3.54-6.54,6.29-.73,1.34-1.16,2.73-1.45,4.22-.14.69-.25,1.38-.31,2.08-.07.8-.38,1.57-.28,2.38.04.37-.49.4-.61.09-.23-.62-.66-1.14-.87-1.76-.19-.58-.25-1.26-.29-1.87Z"/>
    <path class="cls-15" d="M199.66,320.4c-1.82-7.37-.77-15.3,2.57-22.09,1.72-3.49,4.07-6.66,6.94-9.28-5.29-2.1-10.77-5.5-11.71-11.57-.9-5.83,2.93-11.81,6.81-15.82,2.13-2.2,4.83-4.59,7.83-5.55.04.15.07.31.1.46.01.07.02.11.03.14,0,.03,0,.08,0,.14.01.17.02.34.02.52-1.13.8-2.32,1.51-3.44,2.34-1.45,1.07-2.78,2.28-3.99,3.61-2.33,2.55-4.37,5.63-5.38,8.96-1.09,3.6-.48,7.19,1.99,10.08,2.42,2.84,5.88,4.45,9.31,5.73.45.17.82.82.35,1.21-5.51,4.6-9.17,11.1-10.48,18.14-.66,3.53-.72,7.21-.1,10.75.7,3.98,2.14,8.07,5.02,11.01,1.47,1.5,3.24,2.67,5.14,3.57,1.37.65,2.83,1.25,4.3,1.73.04.15.08.3.15.44.04.08.07.16.11.23-1.43-.26-2.82-.58-4.21-1.13-1.77-.7-3.44-1.6-4.95-2.76-3.47-2.67-5.39-6.68-6.42-10.86Z"/>
    <path class="cls-15" d="M211.62,248.54c.47-6.93,2.26-13.74,5.22-20.02,1.47-3.11,3.21-6.13,5.29-8.86,2.11-2.77,4.81-5.32,8.23-6.31,1.24-.36,2.78-.5,3.86.35,1.26.99,1.12,2.65.88,4.07-.54,3.21-2.14,6.85-.18,9.89.86,1.34,2.37,2.23,3.95,1.57,1.63-.68,2.49-2.48,3.15-4.01,1.45-3.39,2.63-6.89,4.19-10.23,2.82-6.05,7.3-11.88,14.12-13.51,1.46-.35,2.97-.47,4.46-.29.82.1,1.61.29,2.4.53.89.27,1.89.66,2.84.43,1.7-.42,2-2.6,2.04-4.05.05-1.96-.1-3.93-.35-5.87-.27-2.14-.7-4.26-1.28-6.34-.56-2-1.29-3.95-1.78-5.97-.74-3.1-.88-6.73,1.05-9.45,1.93-2.73,5.43-3.64,8.6-3.07,3.31.59,6.26,2.59,8.79,4.72,5.33,4.48,9.11,10.69,10.88,17.4.42,1.61.61,3.28.7,4.94.02.33-.53.43-.59.09-1.19-6.83-3.96-13.14-8.62-18.31-2.27-2.51-4.95-4.83-7.98-6.36-3.11-1.57-7.42-2.15-10.19.44-2.77,2.58-2.36,6.77-1.42,10.06,1.07,3.77,2.36,7.37,2.92,11.28.29,2,.46,4.02.46,6.04,0,1.25-.12,2.56-.67,3.71-.57,1.19-1.67,1.99-3,2.04-1.6.07-3.1-.75-4.66-.98-6.91-.99-12.83,4.41-16.02,9.96-1.75,3.05-3.03,6.33-4.32,9.6-1.06,2.7-2.03,6.57-4.78,8.07-2.32,1.27-4.77-.13-5.96-2.23-1.54-2.71-.74-5.71-.15-8.57.3-1.46,1.07-4.48-1.02-4.91-1.61-.34-3.52.66-4.82,1.49-3.04,1.92-5.21,4.96-7.07,7.97-3.57,5.77-6.02,12.2-7.24,18.88-1.27,6.99-1.45,14.72,1.12,21.45.67,1.76,1.57,3.46,2.52,5.09.15.26-.21.6-.43.35-4.9-5.54-5.63-13.99-5.15-21.06Z"/>
    <path class="cls-15" d="M282.72,169.54c.16-1.38.59-2.71,1.46-3.9,2.6-3.57,7.49-3.6,11.26-2.18,7.51,2.83,13.62,9.26,16.91,16.48,1.89,4.15,2.95,8.58,2.61,13.15-.03.36-.53.37-.56,0-.63-7.4-3.11-14.57-7.99-20.25-2.35-2.74-5.17-5.09-8.33-6.84-3.44-1.91-7.99-3.47-11.62-1.13-1.9,1.23-2.65,3.17-2.89,5.29-.28-.22-.56-.43-.85-.63Z"/>
    <path class="cls-15" d="M309.26,221.31c3.13,2.47,7.06,3.85,11.08,3.92,2.63.04,5.22-.49,7.62-1.57,2.52-1.13,4.96-2.09,7.44-.34,2.28,1.61,4.07,4.05,5.87,6.14,1.92,2.23,3.85,4.48,6.09,6.39,2.15,1.84,4.76,3.54,7.66,3.79,3.06.26,5.55-1.52,7.08-4.06,2.86-4.77,2.71-10.8,1.16-15.97-1.62-5.38-4.76-10.45-8.75-14.39-4.14-4.09-10.01-7.05-15.96-5.9-2.2.42-4.83,1.08-5.76-1.63-.49-1.44-.54-3.08-.78-4.57-.26-1.62-.56-3.24-1-4.83-1.52-5.47-4.9-10.34-9.41-13.77-3.97-3.02-10.99-6.56-15.56-2.95-.23-.25-.46-.5-.7-.75.52-.44,1.11-.81,1.75-1.1,2.65-1.22,5.7-.82,8.37.13,5.47,1.95,10.2,5.87,13.36,10.72,1.62,2.49,2.82,5.24,3.54,8.12.42,1.68.71,3.4.97,5.11.21,1.36.1,4.27,1.84,4.6,1.3.24,2.83-.48,4.12-.64,1.5-.19,3.03-.12,4.52.11,2.96.47,5.79,1.71,8.24,3.43,4.86,3.4,8.65,8.51,11.08,13.89,2.32,5.15,3.47,11.03,2.07,16.59-.7,2.76-2.01,5.55-4.23,7.4-2.16,1.81-4.91,2.33-7.62,1.66-5.98-1.47-10.16-6.93-13.97-11.36-1.04-1.21-2.09-2.41-3.21-3.54-1.11-1.13-2.36-2.3-4.06-2.2-1.62.1-3.09,1.09-4.56,1.67-1.21.48-2.48.82-3.77,1.01-5.17.79-10.63-.58-14.83-3.7-.17-.13-.33-.26-.5-.39.28-.33.55-.68.81-1.03Z"/>
    <path class="cls-15" d="M278.01,235.65c.46,0,.91,0,1.36-.01,1.82-.07,3.64-.23,5.45-.48,3.72-.52,7.41-1.47,10.86-2.98,5.92-2.59,11.25-6.94,14.36-12.67,1.91-3.52,2.84-7.49,3.81-11.34.05-.2.35-.12.31.08-.64,3.59-1.34,7.16-2.92,10.48-1.39,2.92-3.36,5.56-5.7,7.8-5.08,4.87-11.7,7.78-18.56,9.1-2.14.41-4.3.68-6.47.82-.97.07-2.01.17-3.05.2.18-.33.36-.67.54-1Z"/>
    <path class="cls-15" d="M227.49,269.06c5.27-.19,10.42-.34,15.55-1.72,5.09-1.37,10.01-3.5,14.43-6.38,8.33-5.44,14.68-13.69,19.01-22.56,2.47-5.05,4.36-10.34,5.82-15.76.07-.25.43-.15.38.1-1.99,9.87-6.16,19.31-12.31,27.29-6.36,8.27-15.25,15.2-25.23,18.48-5.58,1.84-11.98,2.97-17.78,1.57-.57-.14-.46-1,.12-1.02Z"/>
    <path class="cls-15" d="M236.83,311.18c2.39-2.9,4.48-6.07,6.03-9.51,3.59-7.95,3.07-16.55,1.78-24.98-.42-2.77-.97-5.52-1.67-8.23.21-.12.42-.24.62-.39.68,2.44,1.21,4.93,1.64,7.44.75,4.41,1.34,8.92,1.28,13.4-.11,8-3.1,15.25-7.91,21.56-.78,1.02-1.6,2.04-2.46,3.04-.41-.07-.82-.12-1.23-.17.66-.7,1.3-1.42,1.92-2.17Z"/>
    <path class="cls-15" d="M428.1,277.56c-8.4-6.12-17.9-10.97-27.57-14.77-5.41-2.13-10.96-3.9-16.59-5.35-5.31-1.37-10.7-2.18-16.08-3.18-.06-.23-.12-.45-.2-.67,4.9.32,9.82,1.36,14.58,2.46,5.23,1.21,10.38,2.75,15.43,4.59,10,3.65,19.63,8.44,28.48,14.34,4.27,2.85,8.42,6.11,11.28,10.42,3.22,4.84,3.99,10.61,4.36,16.29.7,10.78-.12,21.62-2.1,32.23-1.14,6.09-2.66,12.12-4.51,18.04-1.82,5.82-3.81,11.71-6.46,17.22-.21.45-.98.12-.8-.34,1.89-5.06,3.96-10.04,5.64-15.18,1.64-5.03,3.05-10.13,4.19-15.29,2.31-10.46,3.5-21.18,3.25-31.89-.14-5.78-.3-12.02-2.67-17.38-2.12-4.8-6.03-8.49-10.22-11.54Z"/>
    <path class="cls-15" d="M397.26,354.74c1.8-5.74,3.82-11.4,5.45-17.2,1.64-5.85,3.11-11.76,4.28-17.72.58-2.92,1.04-5.98.49-8.94-.57-3.06-2.37-5.55-4.52-7.72-4.03-4.05-9.11-6.93-14.1-9.63-2.91-1.57-5.88-3.03-8.88-4.44-1.19-.56-2.38-1.11-3.58-1.65-.17-.42-.34-.84-.53-1.25,1.22.51,2.42,1.07,3.59,1.58,2.87,1.24,5.67,2.64,8.43,4.09,5.17,2.72,10.45,5.61,14.78,9.59,2.08,1.92,4.05,4.13,5.12,6.78,1.09,2.68,1.11,5.63.77,8.46-.37,3.04-1.09,6.05-1.77,9.04-.71,3.13-1.48,6.24-2.31,9.33-1.69,6.31-3.46,12.73-5.82,18.85-.48.26-.94.54-1.4.82Z"/>
    <path class="cls-15" d="M422.78,378.06c-.02-.26.38-.38.5-.15.79,1.56,1.19,3.3,1.78,4.94.63,1.76,1.33,3.5,2.09,5.21.76,1.69,1.58,3.35,2.47,4.97.82,1.5,1.64,3.11,2.69,4.47.69.89,2.11,1.76,2.96.54.5-.72.61-1.85.64-2.69.06-1.83-.31-3.68-.71-5.45-.82-3.59-2.14-7.05-3.47-10.48-1.54-3.95-3.24-7.88-4.37-11.97-.04-.14.17-.24.24-.11,1.96,3.8,3.38,7.87,4.93,11.85,1.57,4.02,3.13,8.09,3.88,12.36.36,2.05,1.27,8.06-2.27,7.98-1.63-.04-2.57-1.49-3.34-2.72-1.15-1.84-2.21-3.74-3.18-5.67-1.05-2.09-2-4.23-2.84-6.41-.82-2.11-1.81-4.38-1.99-6.66Z"/>
    <path class="cls-15" d="M413.72,386.26c-.36-1.34-.8-2.69-.74-4.09.01-.28.42-.45.57-.17,1,1.86,1.29,4.15,1.87,6.18.61,2.1,1.27,4.19,2,6.26,1.5,4.27,3.25,8.44,5.25,12.5.76,1.54,1.78,3.94,3.92,3.39,1.99-.51,2.76-2.65,2.72-4.49-.04-2.13-.7-4.27-1.18-6.33-.51-2.19-1.04-4.37-1.61-6.55-.63-2.43-1.29-4.86-1.98-7.27-.68-2.37-1.73-4.87-1.91-7.34-.01-.16.22-.22.3-.09,1.28,2.11,1.81,4.81,2.5,7.17.7,2.41,1.37,4.83,2.01,7.27.67,2.56,1.3,5.13,1.9,7.7.48,2.06,1.14,4.25.95,6.38-.14,1.66-.89,3.21-2.34,4.11-1.35.84-2.98.81-4.21-.24-1.58-1.35-2.36-3.73-3.21-5.56-1.05-2.27-2.03-4.56-2.93-6.89-1-2.58-1.91-5.2-2.72-7.85-.42-1.35-.81-2.72-1.17-4.09Z"/>
    <path class="cls-15" d="M374.19,371.16c.89-1.69,2.39-3.21,3.73-4.54,2.81-2.78,5.98-5.1,9.38-7.11,3.9-2.3,8.03-4.28,12.21-6.03.39-.16.68.49.3.68-6.38,3.15-12.96,5.99-18.45,10.63-1.32,1.11-2.54,2.31-3.66,3.62-1.03,1.22-2.62,2.85-2.74,4.52-.16,2.22,3.99.73,5.1.36,1.98-.66,3.85-1.61,5.67-2.62,1.96-1.1,3.88-2.28,5.74-3.54,1.8-1.22,3.5-2.91,5.53-3.71.35-.14.72.33.51.63-1.2,1.79-3.35,3.01-5.11,4.21-1.91,1.3-3.88,2.52-5.89,3.65-1.99,1.11-4.04,2.14-6.21,2.84-1.58.51-4.05,1.35-5.62.43-1.47-.87-1.16-2.75-.49-4.03Z"/>
    <path class="cls-15" d="M380.8,401.78c-.07-2.42.48-4.97.99-7.32,1.16-5.27,3.14-10.35,5.56-15.16,2.52-5.01,5.28-9.97,8.4-14.65.4-.3.8-.6,1.2-.9-2.3,4.29-4.89,8.43-7.13,12.75-2.29,4.42-4.3,9.05-5.73,13.83-.68,2.29-1.23,4.62-1.59,6.99-.29,1.88-1.07,5.04.21,6.73,2.77,3.64,8.94-8.84,9.81-10.56,1.43-2.8,2.76-5.65,4.04-8.52,1.32-2.97,2.41-6.11,4.18-8.85.22-.34.77-.16.68.26-.69,2.99-2.08,5.77-3.32,8.57-1.27,2.87-2.59,5.73-4,8.54-1.36,2.71-2.74,5.47-4.46,7.97-1.26,1.83-3.36,4.67-5.88,4.54-2.16-.11-2.9-2.41-2.95-4.23Z"/>
    <path class="cls-15" d="M400.49,408.36c-1.22-4.72-1.62-9.7-1.42-14.56.23-5.47.4-11.11,1.67-16.46.07-.28.54-.24.52.06-.32,4.44-1.05,8.83-1.22,13.28-.16,4.39.18,8.93.91,13.26.34,2.04.57,4.57,1.73,6.34.53.81,1.4,1.51,2.42,1.5,1.19-.01,1.82-1.1,2.2-2.09.76-1.96,1.24-4.07,1.75-6.11.54-2.13,1.16-4.21,1.59-6.37.48-2.47.87-4.95,1.14-7.45.26-2.43.2-4.98.78-7.36.1-.39.6-.27.65.08.34,2.42-.14,4.99-.45,7.4-.31,2.41-.67,4.82-1.1,7.22-.45,2.51-.85,5.05-1.49,7.53-.54,2.09-.98,4.43-1.98,6.37-.85,1.64-2.51,2.56-4.32,1.9-1.95-.71-2.86-2.63-3.35-4.52Z"/>
    <path class="cls-15" d="M209.13,404.49c-1.87-6.9-2.3-14.14-1.85-21.25.88-14.09,4.72-28.13,10.19-41.1.31-.73.63-1.46.96-2.17.25.44.49.89.74,1.33-2.09,5.1-4.11,10.19-5.69,15.5-1.9,6.39-3.39,12.92-4.29,19.53-1.79,13.09-1.29,27.97,6.05,39.44,1.82,2.85,4.18,5.19,7.04,7,2.71,1.71,5.67,3,8.64,4.18,6.26,2.51,12.76,4.42,19.37,5.74,3.28.65,6.59,1.09,9.9,1.53,1.59.21,3.17.5,4.67,1.09,1.49.58,2.89,1.37,4.29,2.14,5.44,2.96,11.35,5.01,17.45,6.07,6.13,1.07,12.47,1.14,18.62.16,1.18-.19,3.16-.42,3.5-1.84.47-1.94-1.95-2.85-3.39-3.16-3.42-.72-6.95-.99-10.43-1.07-1.73-.04-3.46,0-5.18.1-.62.04-.62-.91-.01-.96,3.7-.28,7.41-.24,11.1.16,1.7.19,3.43.4,5.11.78,1.32.31,2.67.87,3.42,2.07.63,1.01.72,2.31-.02,3.29-.73.97-2.02,1.34-3.16,1.55-3.14.58-6.37.83-9.56.84-6.43.02-12.87-1.02-18.96-3.09-3.05-1.04-6.01-2.33-8.85-3.85-1.62-.87-3.23-1.82-4.99-2.39-1.72-.55-3.52-.75-5.3-.96-7.05-.84-14.01-2.34-20.77-4.51-3.33-1.07-6.61-2.29-9.81-3.66-3.06-1.31-6.06-2.83-8.67-4.92-5.37-4.29-8.34-11.09-10.1-17.58Z"/>
    <path class="cls-15" d="M244,388.07c-.28-3.07-.47-6.15-.56-9.23-.18-6.26.12-12.45.68-18.68.27-2.94.62-5.88,1.05-8.8.08-.02.16-.05.24-.08-1.03,7.42-1.44,14.87-1.41,22.37.02,3.82.17,7.65.45,11.46.17,2.28.48,4.55.74,6.82-.29-.14-.58-.27-.88-.4-.12-1.16-.21-2.32-.32-3.46Z"/>
    <path class="cls-15" d="M241.88,390.26c2.51.87,4.91,2.04,7.36,3.06,2.62,1.09,5.28,2.09,7.97,3.01,2.61.9,5.24,1.76,7.89,2.52,1.27.36,2.54.71,3.83,1.03.68.17.89.29,1.66-.21.2-.13.39-.33.57-.48.62-.52,1.24-1.02,1.87-1.52,2.26-1.78,4.64-3.41,7.1-4.91,2.34-1.43,4.84-3.05,7.46-3.91,1.95-.64,4.38-.58,5.83,1.07,1.49,1.68,1.14,4.17.37,6.09-1.01,2.54-2.69,4.79-4.55,6.76-.97,1.03-2.01,2-3.07,2.93-.97.85-1.88,1.78-3.09,2.27-.32.13-.63-.29-.46-.57.61-.97,1.51-1.61,2.37-2.36.9-.79,1.79-1.6,2.63-2.45,1.63-1.64,3.12-3.42,4.22-5.46,1-1.85,2.33-5.04.27-6.69-2.27-1.82-5.48.13-7.58,1.26-4.71,2.55-8.97,5.65-13.22,8.89-.93.71-1.59.7-2.69.42-1.34-.34-2.67-.72-3.99-1.11-2.48-.73-4.94-1.51-7.37-2.4-2.63-.97-5.23-2.03-7.8-3.16-2.62-1.16-5.3-2.33-7.67-3.94-.07-.05-.04-.19.06-.16Z"/>
    <path class="cls-15" d="M295.8,416.51c2.15-.71,4.4-1.14,6.58-1.78,2.19-.65,4.33-1.45,6.4-2.41,2.01-.93,3.96-2.01,5.82-3.21,1.82-1.18,3.77-2.46,5.29-4.02.61-.63,1.48-1.68.95-2.58-.56-.95-2.32-1.06-3.29-1.09-2.25-.09-4.51.44-6.7.9-4.49.94-8.91,2.16-13.38,3.16-4.78,1.07-9.62,1.84-14.52,1.6.29-.22.58-.44.86-.65,9.98-.65,19.45-3.98,29.25-5.76,2.11-.38,4.31-.7,6.43-.21,1.69.39,3.2,1.54,2.6,3.46-.61,1.93-2.65,3.24-4.19,4.39-2.01,1.51-4.15,2.86-6.38,4.03-2.38,1.25-4.87,2.31-7.43,3.16-2.61.86-5.44,1.66-8.21,1.6-.33,0-.4-.47-.09-.57Z"/>
    <path class="cls-15" d="M294.7,427.74c7.95-2.21,16.9-2.27,23.8-7.26,1.56-1.13,2.99-2.47,4.22-3.95.67-.8,1.26-1.73.34-2.62-.7-.68-1.75-.7-2.66-.6-4.19.46-8.24,2.14-12.33,3.08-3.91.9-8.11,1.38-12.02.24-.04-.01-.07-.03-.1-.05.55-.04,1.11-.11,1.65-.22,3.95.48,7.83-.28,11.67-1.35,2.29-.64,4.55-1.38,6.86-1.97,1.83-.47,4.01-1.19,5.92-.84,1.41.26,2.8,1.44,2.64,2.99-.17,1.63-2.01,3.16-3.12,4.21-3.09,2.91-6.84,4.84-10.91,5.99-2.62.74-5.3,1.21-7.97,1.72-2.63.5-5.23.94-7.89,1.21-.34.04-.41-.5-.09-.59Z"/>
    <path class="cls-15" d="M295.23,436.61c5.95-1.01,12.01-1.36,17.44-4.26,2.38-1.27,5.05-3.09,6.5-5.44,1.01-1.65-.22-2.68-1.86-2.74-1.47-.05-2.84.49-4.29.63-.1,0-.15-.12-.08-.19,1.58-1.55,6.15-2.38,7.43.05,1.34,2.55-2.53,5.48-4.23,6.75-5.81,4.36-13.71,5.89-20.83,5.64-.25,0-.34-.41-.07-.46Z"/>
    <path class="cls-15" d="M232.49,201.05c.96.45,1.63,1.15,2.38,1.89.81.79,1.62,1.57,2.43,2.36,1.67,1.62,3.33,3.25,4.99,4.87,1.47,1.44,3.01,2.85,4.5,4.3-.02.05-.04.1-.05.15-.11.41-.23.81-.35,1.22-1.68-1.66-3.31-3.39-4.97-5.04-1.56-1.54-3.11-3.09-4.67-4.64-.8-.8-1.6-1.6-2.4-2.39-.8-.8-1.58-1.48-2.08-2.5-.07-.14.06-.29.21-.22Z"/>
    <path class="cls-15" d="M166.52,275.96c0-.38-.06-.73-.14-1.07,4.55,6.2,9.05,12.45,13.76,18.54,5.15,6.65,10.52,13.11,16.1,19.41,1.08,1.22,2.18,2.42,3.28,3.62.03.62.12,1.25.26,1.87-1.18-1.28-2.35-2.58-3.51-3.88-2.8-3.12-5.54-6.3-8.22-9.52-5.23-6.29-10.26-12.75-15.07-19.37-2.25-3.1-4.4-6.31-6.45-9.56,0,0,0-.01,0-.02Z"/>
    <path class="cls-15" d="M166.05,274.24c8.41-9.98,17.11-19.7,26.11-29.15,9.04-9.49,18.34-18.74,27.9-27.71,2.64-2.48,5.29-4.96,8-7.38,2.4-2.14,4.93-4.29,7.8-5.78.02.02.06.05.12.08.12.08.24.16.36.24.13.09.22.18.35.3-5.27,3.45-9.85,7.72-14.49,11.95-4.79,4.38-9.51,8.84-14.16,13.38-9.3,9.07-18.27,18.46-26.96,28.11-4.89,5.44-9.68,10.96-14.38,16.56-.37.44-1-.17-.64-.61Z"/>
    <path class="cls-15" d="M162.43,270.41c1.55-2.71,3.73-5.13,5.65-7.59,1.99-2.55,4.04-5.07,6.12-7.55,4.2-5.01,8.56-9.89,13.05-14.64,8.92-9.44,18.33-18.55,28.34-26.83,2.71-2.25,5.45-4.46,8.22-6.63,2.8-2.19,5.59-4.47,8.55-6.45l.18.63c-2.24,1.87-4.6,3.61-6.87,5.44-2.58,2.08-5.14,4.2-7.66,6.36-4.87,4.18-9.69,8.42-14.37,12.8-9.42,8.82-18.32,18.16-26.76,27.92-2.39,2.77-4.73,5.58-7.06,8.4-1.14,1.39-2.28,2.79-3.39,4.2-1.07,1.36-2.08,2.78-3.27,4.04,1.76,1.19,3.2,2.47,3.75,4.66.12.46-.55.65-.7.2-.64-1.82-1.83-3.78-3.68-4.53-.15-.06-.2-.29-.12-.42Z"/>
    <path class="cls-15" d="M87.94,227.33c7.44-11.12,15.62-21.66,24.52-31.7,4.51-5.08,9.21-9.98,14.11-14.7,1.94-1.87,4.34-4.29,7.03-2.24,1.28.97,2.37,2.27,3.49,3.42,1.22,1.25,2.44,2.51,3.64,3.78,2.69,2.85,5.32,5.75,7.89,8.71,1.67,1.92,3.4,3.83,4.94,5.86-.37.28-.68.63-.94,1-1.34-1.51-2.61-3.08-3.92-4.62-2.16-2.51-4.36-4.99-6.61-7.43-2.29-2.48-4.62-4.93-6.99-7.33-.9-.91-2.09-2.62-3.46-2.82-1.59-.24-3.04,1.63-4.05,2.6-9.21,8.87-17.85,18.3-25.77,28.29-4.44,5.6-8.7,11.36-12.7,17.28,18.24,12.79,37.4,24.33,57.31,34.49,5.36,2.73,10.77,5.36,16.21,7.94.01.3.06.59.14.88-20.46-9.22-40.16-20.14-58.97-32.22-5.29-3.4-10.51-6.9-15.67-10.5-.22-.15-.38-.45-.2-.7Z"/>
    <path class="cls-15" d="M144.34,171.42c2.51-4.5,6.84-7.83,10.82-10.94,4.61-3.6,9.4-6.96,14.34-10.08,4.84-3.05,9.82-5.87,14.93-8.44,2.56-1.28,5.14-2.51,7.76-3.66,1.19-.53,2.39-1.04,3.59-1.55,1.1-.46,2.28-1.03,3.47-.56.93.36,1.54,1.18,2.09,1.97.88,1.26,1.74,2.53,2.61,3.8,1.71,2.49,3.4,4.99,5.07,7.51,3.3,4.99,6.49,10.05,9.44,15.25,6.49,11.43,11.8,23.64,14.18,36.63.01.06.01.11.01.16,0,0-.01,0-.02,0-.46.02-.88.14-1.24.35-.02-.04-.03-.08-.04-.13-4.07-22.28-16.58-41.65-29.18-60.02-.73-1.07-1.44-2.16-2.21-3.2-.41-.55-.9-1.14-1.64-1.18-.73-.04-1.53.42-2.18.7-2.58,1.08-5.14,2.22-7.67,3.43-4.83,2.3-9.55,4.82-14.15,7.55-4.71,2.79-9.28,5.8-13.71,9.02-4.25,3.08-8.6,6.26-12.21,10.09-.98,1.04-1.86,2.13-2.67,3.31-.38.55-.9,1.16-1.07,1.82-.26.99.64,1.81,1.22,2.5,2.13,2.54,4.26,5.09,6.39,7.63,2.04,2.44,4.08,4.89,6.13,7.33.71.85,1.43,1.69,2.14,2.54-.18.15-.35.31-.52.47-.71-.83-1.41-1.67-2.12-2.49-1.98-2.32-3.96-4.64-5.94-6.95-1.98-2.32-3.96-4.64-5.93-6.96-.73-.86-1.74-1.77-2.2-2.83-.47-1.09-.03-2.08.51-3.05Z"/>
    <path class="cls-15" d="M139.02,220.73c3.68-7.83,9.05-14.96,14.83-21.36,5.76-6.37,12.29-12.03,19.39-16.87,4.08-2.78,8.43-5.17,12.9-7.25.07-.03.14.07.07.11-15.17,8.12-28.65,19.33-38.85,33.22-2.91,3.96-5.48,8.13-8.06,12.3-.11.18-.37.03-.28-.15Z"/>
    <path class="cls-15" d="M126.98,33.61c.06-1.55.65-3.21,1.89-4.2,1.3-1.04,3-1.01,4.48-.4,2.02.83,3.74,2.45,5.15,4.07,1.08,1.24,2.06,2.58,2.76,4.06-.13.19-.26.39-.38.58-1.75-2.81-3.71-5.52-6.57-7.31-1.6-1-3.73-1.61-5.22-.08-1.48,1.52-1.27,3.73-.7,5.6,1.18,3.85,3.36,7.57,5.46,10.99,2.11,3.45,4.48,6.74,6.96,9.92,1.41,1.8,2.85,3.57,4.32,5.32,1.41,1.69,3.12,3.38,4.15,5.34.19.36-.22.67-.53.43-1.83-1.37-3.27-3.4-4.71-5.15-1.45-1.75-2.87-3.51-4.26-5.3-2.85-3.68-5.54-7.48-7.87-11.52-1.12-1.95-2.15-3.95-3.07-6-.87-1.97-1.94-4.15-1.85-6.36Z"/>
    <path class="cls-15" d="M133.16,120.33c-1.15-13.05,4.68-25.15,8.65-37.23,1.1-3.34,2.07-6.73,2.73-10.18.56-2.96.82-5.97.93-8.98.19.21.38.42.57.63.28,5.24-.92,10.56-2.36,15.56-1.77,6.15-4.13,12.1-6.08,18.19-1.92,5.97-3.49,12.15-3.48,18.46,0,8.31,3.04,16.26,6.61,23.65,2.05,4.26,4.27,8.43,6.5,12.6,1.11,2.07,2.23,4.14,3.37,6.2.72,1.3,1.47,2.59,2.14,3.92-.05.05-.09.1-.14.16-.18.23-.42.47-.68.71-.68-1.06-1.29-2.17-1.9-3.28-1.04-1.89-2.08-3.78-3.1-5.68-2.03-3.78-4.04-7.57-5.97-11.4-3.7-7.35-7.06-15.05-7.79-23.33Z"/>
    <path class="cls-15" d="M137.03,41.18c1.14-2.33,3.43-4.09,5.24-5.91,1.78-1.78,3.58-3.57,5.63-5.04,3.85-2.76,9.06-4.79,13.85-4.03.3.05.32.57.01.62-2.33.37-4.7.67-6.96,1.39-2.34.74-4.55,1.86-6.52,3.32-1.95,1.44-3.64,3.19-5.38,4.87-1.76,1.71-3.48,3.84-5.73,4.91-.08.04-.17-.04-.13-.12Z"/>
    <path class="cls-15" d="M140.47,29.31c-2.03,1.92-.38,5.77.9,7.68-.05.07-.1.15-.15.22-1.35-1.28-2.14-2.86-2.41-4.71-.21-1.41-.17-3.21.88-4.32,2.48-2.6,6.99.22,7.73,3.08.07.27-.22.52-.47.38-1.84-1-4.1-4.58-6.47-2.33Z"/>
    <path class="cls-15" d="M147.34,25.21c1.78-1.37,5.95-.82,5.9,1.96,0,.24-.29.37-.47.21-1.25-1.11-2.91-2.43-4.61-1.32-1.51.99-1.6,3.6-.45,4.88.12.14-.03.41-.21.29-2.03-1.43-2.17-4.47-.15-6.02Z"/>
    <path class="cls-15" d="M163.01,63.98c2.82.74,5.51,1.82,8.39,2.39,2.87.57,5.96,1.03,8.89.75,2.79-.27,5.79-1.26,7.22-3.86,1.32-2.4,1.12-5.33.17-7.81-1.13-2.98-3.26-5.54-5.29-7.94-1.97-2.33-4.06-4.55-6.28-6.65-2.17-2.06-4.45-4-6.83-5.81-2.14-1.63-4.72-3.03-5.86-5.59-.71-1.59-1.03-3.3-2.07-4.74-.95-1.31-2.33-2.34-3.97-2.52-1.48-.17-3.18.37-3.92,1.75-.61,1.16-.6,2.93.22,3.97.1.12-.08.31-.21.22-2-1.36-2.03-4.05-.41-5.76,1.91-2.02,5.2-1.8,7.33-.27,1.23.89,2.16,2.14,2.8,3.51.74,1.59.99,3.4,2.14,4.78,1.1,1.33,2.64,2.25,4.02,3.27,1.39,1.04,2.75,2.12,4.07,3.24,2.74,2.32,5.32,4.82,7.74,7.47,2.29,2.52,4.63,5.18,6.35,8.13,1.55,2.67,2.48,5.74,1.88,8.84-.56,2.83-2.46,5-5.14,6.03-3.24,1.25-7.14.8-10.49.31-1.9-.28-3.79-.67-5.64-1.19-1.81-.5-3.69-1.05-5.33-1.99-.28-.16-.12-.62.21-.54Z"/>
    <path class="cls-15" d="M159.39,129.48c3.56-3.25,6.73-6.9,9.19-11.05,2.48-4.17,4.31-8.7,5.71-13.34,1.57-5.23,2.62-10.6,3.54-15.97.46-2.66.89-5.33,1.35-7.99.43-2.48.65-5.26,1.95-7.47,1.33-2.28,3.57-3.83,4.94-6.09.67-1.1,1.15-2.26,1.49-3.45.4-.56.76-1.16,1.05-1.78-.13,1.32-.47,2.63-.97,3.82-.94,2.23-2.45,3.9-4.07,5.66-.87.94-1.67,1.93-2.17,3.11-.56,1.34-.77,2.8-1.02,4.22-.49,2.78-.93,5.57-1.39,8.36-1.71,10.41-3.67,20.99-8.84,30.32-2.6,4.69-5.91,9.08-10.39,12.11-.28.19-.63-.23-.38-.46Z"/>
    <path class="cls-15" d="M172.34,112.23c.51,1.61.99,3.22,1.56,4.81,1.13,3.17,2.4,6.28,3.83,9.33,2.5,5.36,5.5,10.47,8.91,15.31-.3.23-.66.46-1.04.69-1.27-1.9-2.47-3.84-3.61-5.81-3.3-5.71-6.16-11.7-8.41-17.9-.61-1.69-1.23-3.4-1.76-5.14.19-.42.36-.85.52-1.28Z"/>
    <path class="cls-15" d="M65.9,114.42c4.33.99,8.67,1.88,13.11,2.14,4.42.26,8.91.04,13.27-.76,4.24-.78,8.73-2.32,11.34-5.97,2.4-3.36,2.57-7.65-.25-10.82-2.66-2.98-6.62-4.37-10.35-5.45-3.57-1.04-7.25-1.73-10.77-2.89-3.34-1.1-6.6-2.58-9.29-4.88-3.06-2.61-5.22-6.4-8.81-8.36-3.13-1.71-8.96-1.45-9.27,3.12-.16,2.34,1.05,4.75,2.34,6.62,1.34,1.95,3.02,3.62,4.91,5.03.19.14-.04.4-.23.32-3.92-1.82-7.09-5.65-8.01-9.9-.39-1.79-.24-3.71.95-5.17,1.01-1.24,2.54-1.89,4.1-2.1,4.16-.54,7.43,1.9,10.11,4.79,1.49,1.6,2.87,3.32,4.53,4.76,1.59,1.38,3.42,2.47,5.33,3.34,3.82,1.74,7.95,2.73,11.98,3.82,3.94,1.06,8.07,2.23,11.36,4.75,3.12,2.4,4.89,6.08,3.81,10-1.12,4.09-4.51,6.92-8.34,8.44-4.92,1.96-10.64,2.37-15.89,2.32-5.41-.05-10.99-.73-16.09-2.59-.34-.13-.23-.65.14-.56Z"/>
    <path class="cls-15" d="M44.84,110.13c.14-1.42,1.07-2.72,2.24-3.51,3.12-2.1,8.21.04,8.9,3.75.07.37-.35.7-.66.41-1.11-1.07-2.06-2.35-3.5-3.02-1.43-.67-2.98-.54-4.3.31-3.79,2.43.57,6.86,2.51,8.95,4.78,5.13,11.26,8.72,17.5,11.76,1.74.85,3.5,1.65,5.26,2.44,1.85.82,3.79,1.53,5.5,2.62.05.03.02.12-.04.1-1.95-.45-3.77-1.33-5.6-2.13-1.93-.84-3.84-1.7-5.74-2.61-3.65-1.76-7.22-3.71-10.57-6.01-3.3-2.27-6.51-4.91-9.2-7.89-1.27-1.41-2.51-3.18-2.31-5.17Z"/>
    <path class="cls-15" d="M49.02,106.57c-.32-.01-.65.01-.97.07-.36-.61-.45-1.49-.37-2.09.19-1.41,1.21-2.62,2.43-3.31,2.08-1.18,5.01-.77,6.71.9-.21.37-.35.77-.44,1.2-1.48-.94-3.04-1.78-4.87-1.23-.98.29-1.82.96-2.33,1.85-.53.93-.58,1.76-.16,2.62Z"/>
    <path class="cls-15" d="M52.25,96.05c1.53-.65,3.26-.57,4.81-.01.64.23,1.34.55,1.98.96-.29.31-.51.67-.67,1.07-.29-.17-.58-.34-.88-.47-1.16-.54-2.43-.78-3.7-.56-2.36.4-4.15,2.85-3.18,5.23.07.16-.18.3-.29.18-2.04-2.2-.59-5.33,1.94-6.39Z"/>
    <path class="cls-15" d="M52.47,96.45s-.04,0-.06,0c-.18.04-.34.1-.49.19-.95-1.86-.65-4.21.95-5.78,1.7-1.68,5.59-2.39,7.13-.1.15.22-.08.56-.35.48-.97-.31-1.82-.73-2.87-.75-1.13-.02-2.28.35-3.11,1.13-1.23,1.17-1.6,3.14-1.2,4.82Z"/>
    <path class="cls-15" d="M61.76,175.8c-.72-7.75.44-15.54,2.21-23.08,1.03-4.41,2.28-8.77,3.52-13.13.87-3.07,1.73-6.15,2.63-9.22.19.12.39.24.59.34-1.68,6.2-3.52,12.35-5.11,18.58-1.92,7.51-3.43,15.22-3.22,23.01.45,16.25,9.72,30.42,21.4,41.11,2.98,2.73,6.13,5.27,9.38,7.69l-.51.93c-2.6-1.94-5.16-3.93-7.61-6.06-6.03-5.23-11.56-11.2-15.69-18.07-4.05-6.73-6.85-14.25-7.58-22.1Z"/>
    <path class="cls-15" d="M88.22,179.83c1.37-2.28,3.02-4.41,4.48-6.63,1.47-2.24,2.84-4.54,4.09-6.9,2.54-4.78,4.64-9.79,6.27-14.95,3.25-10.3,4.66-21.09,4.21-31.88-.19-4.62-.82-9.17-1.7-13.69.13-.4.22-.81.29-1.22,2.48,9.4,2.91,19.48,1.95,29.09-1.09,10.81-4.12,21.4-8.96,31.13-1.37,2.77-2.89,5.46-4.55,8.06-1.63,2.55-3.4,5.23-5.6,7.33-.23.22-.64-.04-.47-.34Z"/>
    <path class="cls-15" d="M100.58,159.04s.02-.07.03-.1c2.43,4.76,5.2,9.33,8.4,13.63,3.76,5.05,7.97,9.74,12.36,14.26-.06.07-.12.14-.17.21-.1.13-.19.27-.28.4-1.66-1.71-3.3-3.44-4.9-5.21-4.73-5.24-9.15-10.8-12.78-16.87-1.08-1.8-2.07-3.65-2.95-5.54.1-.26.19-.52.29-.78Z"/>
    <path class="cls-15" d="M54.52,108.7c.14-1.87.66-3.72,1.26-5.47.79-2.32,1.8-4.57,3.02-6.7,2.41-4.2,5.66-8.06,9.77-10.67.13-.08.29.1.18.22-3.4,3.32-6.49,6.9-8.81,11.08-1.16,2.09-2.12,4.29-2.85,6.57-.66,2.06-1.07,4.18-1.69,6.25-.23-.46-.5-.9-.86-1.26Z"/>
    <path class="cls-4" d="M276.97,295.96c.03-1.55.79-3.11,2.13-3.93,1.31-.8,2.73-.8,3.99-.18,1.86.75,3.03,2.59,3.66,4.44.66,1.94.77,4.47-.48,6.18-1.83,2.51-5.16,1.57-6.84-.5-1.36-1.67-2.51-3.8-2.46-6.02Z"/>
    <path class="cls-4" d="M338.1,270.75c.64-2.21,3.09-3.78,5.35-3,3.46,1.2,5.1,5.71,4.91,9.09-.12,2.14-1.97,3.92-4.21,3.33-1.47-.38-2.6-1.19-3.49-2.24-.74-.57-1.33-1.34-1.72-2.2-.72-1.56-1.34-3.24-.84-4.98Z"/>
    <path class="cls-8" d="M343,264.23c1.55-.45,3.24.48,3.69,2.03.45,1.55-.48,3.24-2.03,3.69-1.55.45-3.24-.48-3.69-2.03-.45-1.55.48-3.24,2.03-3.69Z"/>
    <path class="cls-8" d="M347.56,272.36c2.09-.61,3.05,2.64.95,3.25-2.09.61-3.05-2.64-.95-3.25Z"/>
    <path class="cls-8" d="M281.75,288.82c1.45-.42,3.04.45,3.46,1.9.42,1.45-.45,3.03-1.9,3.46-1.45.42-3.04-.45-3.46-1.9-.42-1.45.45-3.03,1.9-3.46Z"/>
    <path class="cls-8" d="M285.56,295.47c1.66-.48,2.41,2.09.75,2.57-1.66.48-2.41-2.09-.75-2.57Z"/>
    <g>
      <g>
        <path class="cls-9" d="M355,308.79c.94-1.12,2.32-1.9,3.76-2.1,7.56-1.07,8.11,11.84,1.17,12.23-3.27.18-5.78-2.72-6.1-5.8-.16-1.57.14-3.11,1.17-4.33Z"/>
        <path class="cls-9" d="M386.42,155.72c-.08-1.11.46-2.46,1.27-3.22.74-.7,1.78-1.06,2.79-1.06.88,0,1.53.45,2.28.74,1.07,1.49,1.86,3.06,1.51,5.07-.22,1.27-.92,2.74-2.25,3.1-1.33.36-2.78-.31-3.73-1.22-.99-.95-1.77-1.99-1.87-3.42Z"/>
        <path class="cls-9" d="M408.39,160.8c7.02,1.82,5.86,12.25.8,15.29-1.03.62-1.8.58-2.87.08-.67-.31-1.3-.73-1.86-1.22-2.6-2.3-3.34-5.89-2.52-9.19.75-2.99,3.06-5.83,6.45-4.96Z"/>
        <path class="cls-9" d="M429.72,233.47c1.03-1.08,2.5-1.67,3.96-1.15,3.7,1.33,5.82,5.6,5.48,9.35-.13,1.43-.51,3.02-1.52,4.09-1.11,1.18-2.78,1.22-4.17.5-1.43-.74-2.41-2.14-3.21-3.5-.91-1.53-1.7-3.19-1.88-4.98-.15-1.58.23-3.15,1.34-4.31Z"/>
        <path class="cls-9" d="M384.93,210.76c2.12-2.35,5.03-2.47,7.66-.9,4.71,2.58,6.94,7.61,9.64,11.99,2.57,4.18,2.25,10.11-1.72,13.46-2.66,2.25-5.81,1.12-8.27-.81-4.83-3.78-7.88-9.32-9-15.29-.54-2.87-.36-6.18,1.69-8.45Z"/>
      </g>
      <path class="cls-9" d="M403.02,273.65c1.57,1.46,3.7,2.49,5.84,1.71,2.1-.76,3.73-2.7,4.64-4.69.7-1.53,1.11-3.16,1.26-4.82-.16-1.16-.21-2.32-.48-3.47-.31-1.29-.76-2.58-1.31-3.78-.96-2.08-2.38-4.1-4.8-4.45-4.6-.67-7.71,3.57-8.6,7.57-.93,4.16.29,8.99,3.46,11.93Z"/>
      <path class="cls-6" d="M353.82,313.12c-.16-1.57.14-3.11,1.17-4.33.94-1.12,2.32-1.9,3.76-2.1,7.56-1.07,8.11,11.84,1.17,12.23-3.27.18-5.78-2.72-6.1-5.8ZM355.92,316.1c1.06,1.44,2.85,2.24,4.63,1.82,1.6-.37,2.65-1.72,3.05-3.25.83-3.18-1.45-7.08-5.24-6-3.19.91-4.39,4.78-2.44,7.42Z"/>
      <path class="cls-6" d="M427.36,239c-.78-3.6.47-8.14,4.62-8.79,10.07-1.59,11.69,19.33,2.58,17.86-1.88-.3-3.4-1.57-4.48-3.08-1.25-1.74-2.26-3.9-2.72-5.99ZM430.26,242.76c.8,1.35,1.78,2.76,3.21,3.5,1.39.71,3.05.68,4.17-.5,1.01-1.07,1.39-2.66,1.52-4.09.34-3.75-1.78-8.01-5.48-9.35-1.45-.52-2.93.07-3.95,1.15-1.12,1.17-1.49,2.74-1.34,4.31.17,1.8.97,3.45,1.88,4.98Z"/>
      <path class="cls-6" d="M397.81,262.68c.62-4.88,3.93-10.25,9.33-10.43,3.1-.11,5.39,1.65,6.86,4.27,1.2,2.15,2,4.91,1.8,7.49.08,2.2-.28,4.42-1.06,6.48-.87,2.3-2.32,4.57-4.5,5.82-2.22,1.27-4.75,1.12-6.88-.26-4.42-2.87-6.18-8.31-5.55-13.37ZM403.02,273.65c1.57,1.46,3.7,2.49,5.84,1.71,2.1-.76,3.73-2.7,4.64-4.69.7-1.53,1.11-3.16,1.26-4.82-.16-1.16-.21-2.32-.48-3.47-.31-1.29-.76-2.58-1.31-3.78-.96-2.08-2.38-4.1-4.8-4.45-4.6-.67-7.71,3.57-8.6,7.57-.93,4.16.29,8.99,3.46,11.93Z"/>
      <path class="cls-6" d="M382.14,221.08c-.69-3.05-.8-6.62.67-9.47,1.37-2.67,4.1-4.68,7.2-4.3,8.08.99,14.99,12.63,15.04,20.13.02,2.88-.83,5.76-2.75,7.96-2.23,2.56-5.31,3.21-8.38,1.81-3-1.37-5.54-4-7.46-6.63-2.06-2.82-3.56-6.09-4.33-9.5ZM392.24,234.5c2.46,1.93,5.61,3.06,8.27.81,3.97-3.35,4.29-9.28,1.72-13.46-2.7-4.39-4.93-9.41-9.64-11.99-2.63-1.58-5.54-1.46-7.66.9-2.05,2.27-2.23,5.58-1.69,8.45,1.11,5.98,4.17,11.51,9,15.29Z"/>
      <path class="cls-6" d="M387.37,151c1.01-.73,2.3-1.11,3.54-1.01.85.07,1.97.4,2.51,1.14,1.46,1.14,2.19,3.31,2.23,5.06.07,2.52-1.33,5.45-4.14,5.59-1.3.07-2.6-.45-3.62-1.23-1.03-.79-1.58-1.9-2.02-3.1-.82-2.28-.58-4.95,1.49-6.45ZM388.29,159.13c.95.91,2.4,1.58,3.73,1.22,1.34-.36,2.04-1.83,2.25-3.1.35-2.02-.44-3.59-1.51-5.07-.76-.29-1.4-.73-2.28-.74-1.01,0-2.05.36-2.79,1.06-.81.76-1.35,2.11-1.27,3.22.1,1.42.88,2.47,1.87,3.42Z"/>
      <path class="cls-6" d="M400.8,166.87c.56-3.72,3.15-7.67,7.39-7.38,9.08.62,7.16,13.09,2.18,17.45-1.64,1.44-3.37,1.14-5.14.09-3.55-2.13-5.03-6.16-4.43-10.15ZM404.46,174.95c.56.49,1.18.91,1.86,1.22,1.07.5,1.83.54,2.87-.08,5.06-3.04,6.23-13.47-.8-15.29-3.39-.88-5.7,1.97-6.45,4.96-.82,3.29-.08,6.89,2.52,9.18Z"/>
      <path class="cls-8" d="M356.78,312.36c.02-.21.05-.42.07-.63.07-.32.21-.6.41-.84.1-.19.25-.34.43-.45.24-.23.52-.38.85-.47.07-.03.14-.06.22-.1.29-.1.59-.12.88-.06.29,0,.57.09.82.24.15.11.31.23.46.34.29.28.5.61.61,1,.01.08.02.16.04.23.03.22.07.43.1.65-.02.21-.05.42-.07.63-.07.32-.21.6-.41.84-.1.19-.25.34-.43.45-.15.16-.33.27-.55.33-.19.12-.4.18-.62.18-.21.06-.43.07-.64.01-.32-.01-.62-.1-.9-.27-.17-.12-.34-.25-.51-.37-.13-.16-.27-.33-.4-.49-.09-.2-.18-.4-.27-.6-.03-.22-.07-.43-.1-.65Z"/>
      <path class="cls-8" d="M403.35,260.81c-.48-1.98.53-4.07,2.56-4.66,1.89-.55,4.18.58,4.66,2.56.48,1.98-.53,4.07-2.56,4.66-1.89.55-4.18-.58-4.66-2.56Z"/>
      <path class="cls-8" d="M387.37,214.82c-.25-1.72,1.95-3.39,3.54-2.8,1.11.41,2.11.98,2.83,1.89,1.42.77,2.47,2.49,2.78,4,.33,1.62-.63,2.93-2.29,3.09-1.66.16-3.31-.62-4.56-1.65-1.42-1.17-2.03-2.77-2.29-4.54Z"/>
      <path class="cls-8" d="M430.87,236.83c0-.39.09-.77.28-1.11.31-.51.76-.91,1.34-1.08.29-.1.59-.12.88-.06.29,0,.57.09.82.24.27.13.48.32.65.56.21.22.35.48.43.78.03.2.06.4.09.6,0,.39-.09.77-.28,1.11-.31.51-.76.91-1.34,1.08-.29.1-.59.12-.88.06-.29,0-.57-.09-.82-.24-.27-.13-.48-.32-.65-.56-.21-.22-.35-.48-.43-.78-.03-.2-.06-.4-.09-.6Z"/>
      <path class="cls-8" d="M403.64,166.57c-.02-1.46,1.01-2.8,2.4-3.2,1.19-.34,2.45.27,2.94,1.39.29.65.28,1.36.02,1.97.01.42-.08.86-.25,1.26-.2.45-.55.81-.94,1.1-.14.1-.96.45-.53.28.46-.18-.41.18-.39.18-.35.1-.81.13-1.15.02-1.3-.39-2.08-1.67-2.1-2.99Z"/>
      <path class="cls-8" d="M388.51,155.22c.01-.44.15-.89.47-1.2.21-.21.48-.4.76-.47.3-.07.59-.08.9-.01.22.05.42.14.58.29.19.12.34.27.46.47.06.14.12.28.19.42.09.3.09.6.02.9-.02.13-.04.26-.06.4-.07.26-.19.48-.37.68-.19.2-.42.34-.68.41-.26.08-.53.08-.8.02-.26-.07-.48-.19-.68-.37-.09-.1-.17-.2-.26-.3-.18-.15-.3-.34-.37-.55-.11-.2-.17-.43-.16-.66Z"/>
    </g>
  </g>
</svg>