<?xml version="1.0" encoding="UTF-8"?>
<svg id="Layer_1" data-name="Layer 1" xmlns="http://www.w3.org/2000/svg" viewBox="0 0 487.07 466.36">
  <defs>
    <style>
      .cls-1 {
        fill: #f79531;
      }

      .cls-2 {
        fill: #f79f81;
      }

      .cls-3 {
        fill: #dd4420;
      }

      .cls-4 {
        fill: #ea6225;
      }

      .cls-5 {
        fill: #e6e4d0;
      }

      .cls-6 {
        fill: #94181b;
      }

      .cls-7 {
        fill: #f9b64b;
      }

      .cls-8 {
        fill: #7a88c3;
      }

      .cls-9 {
        fill: #ef9045;
      }

      .cls-10 {
        fill: #51637d;
      }

      .cls-11 {
        fill: #fff;
      }

      .cls-12 {
        fill: #93cef0;
      }

      .cls-13 {
        fill: #848f65;
      }

      .cls-14 {
        fill: #78bab9;
      }

      .cls-15 {
        fill: #fff1db;
      }

      .cls-16 {
        fill: #fcb42a;
      }

      .cls-17 {
        fill: #700607;
      }

      .cls-18 {
        fill: #fff58a;
      }

      .cls-19 {
        fill: #eb6f38;
      }

      .cls-20 {
        fill: #82bdb8;
      }

      .cls-21 {
        fill: #a63238;
      }

      .cls-22 {
        fill: #4a8f91;
      }

      .cls-23 {
        fill: #f05c22;
      }

      .cls-24 {
        fill: #fbc9b3;
      }
    </style>
  </defs>
  <g>
    <path class="cls-23" d="M345.56,332.67c-1.09,3.88-1.76,7.87-2.54,11.82,3.06-8.02,7.69-16.01,15.77-19.74,4.05-1.87,8.62-2.2,12.94-1.12,4.47,1.12,8.53,3.53,12.08,6.43,3.61,2.95,6.7,6.47,9.49,10.19,1.68,2.24,3.23,4.58,4.67,6.98-.17-.65-.34-1.29-.51-1.94-.51-1.9-1.05-3.8-1.64-5.68-1.17-3.75-2.56-7.45-4.39-10.94-1.76-3.35-3.92-6.54-6.63-9.19-2.57-2.51-5.57-4.56-8.89-5.95-3.21-1.35-6.73-2.09-10.21-1.86-3.43.23-6.72,1.5-9.49,3.52-5.64,4.11-8.81,10.91-10.64,17.46Z"/>
    <path class="cls-1" d="M322.41,383.26c-.57,2,.23,3.88,1.51,5.42,1.48,1.78,3.44,3.18,5.22,4.64,2.08,1.7,4.16,3.41,6.24,5.11,3.69,3.01,19.23,18.97,40.49,20.34,8.45.54,17.27-2.4,23.11-8.71,1.03-1.11,1.94-2.32,2.73-3.6-.13,0-.27,0-.41,0,.9-.39,1.76-.85,2.56-1.4.8-.43,1.53-1.01,2.13-1.68,1.63-1.82,2.31-4.26,2.62-6.64.3-2.31.33-4.67.32-7.01-.01-2.2-.12-4.39-.31-6.58-.77-8.82-2.98-17.5-6.48-25.64-.95-2.22-2-4.39-3.15-6.52-.96-1.78-1.98-3.52-3.06-5.22-2.39-3.75-5.07-7.37-8.11-10.61-5.95-6.34-14.35-12.25-23.5-11.03-8.83,1.18-15.04,8.7-18.58,16.32-2.2,4.72-3.68,9.73-5.31,14.68-1.48,4.48-3.07,8.92-5.42,13.05-1.14,2-2.45,3.92-3.97,5.66-1.47,1.68-3.17,3.1-4.85,4.57-1.52,1.33-3.22,2.86-3.79,4.87Z"/>
    <path class="cls-23" d="M302.35,387.74c-.79,1.42-1.31,2.96-1.48,4.57-.09.81-.14,1.73.17,2.5.3.74.98,1.13,1.74,1.27,1.7.31,3.58-.25,5.23-.66,1.86-.47,3.69-1.05,5.47-1.76,1.75-.7,3.46-1.51,5.11-2.44,1.36-.76,2.65-1.62,3.93-2.49-1.16-1.6-1.8-3.43-1.27-5.54.54-2.13,2.12-3.79,3.73-5.19.5-.44,1.01-.86,1.52-1.28-.31-.86-.61-1.72-.92-2.58-.6-1.67-1.19-3.33-1.88-4.96-1.33-3.13-3.04-6.18-5.45-8.61-1.2-1.22-2.58-2.36-4.13-3.12-1.56-.77-3.56-1.08-4.85.35-1.09,1.21-1.32,2.97-.96,4.51.45,1.93,1.61,3.61,2.68,5.25,1.19,1.83,2.43,3.63,3.72,5.4.66.91,1.33,1.81,2.02,2.7.61.8,1.35,1.56,1.81,2.46.39.76.48,1.7-.2,2.32-.66.61-1.71.61-2.55.67-2.04.14-4.12.05-6.1.65-3.11.93-5.77,3.16-7.35,5.99Z"/>
    <path class="cls-16" d="M326.53,379.81c.98-2.04,2.72-3.59,4.36-5.17,8.92-8.59,11.78-21.37,15.71-33.11,2.06-6.14,7.69-11.09,13.07-14.7,3.98-2.66,9.27-2.8,13.8-1.25,4.53,1.54,8.4,4.57,11.85,7.9,5.5,5.31,12.75,11.33,15.36,19.02,2.78,8.19-3.97,8.29-10.33,8.79-9.05.72-18.22-.69-26.72,3.17-5.56,2.53-8.87,8.19-13.08,12.62-4.39,4.62-10.03,8.04-16.15,9.8-2.44.7-5.41,1.03-7.23-.75-1.62-1.58-1.61-4.29-.63-6.33Z"/>
    <path class="cls-18" d="M324.52,381.2c.58-1.27,1.58-2.19,2.64-3.07.21-.17.42-.35.62-.53.11-.09.21-.19.32-.29,0,0,.01-.01.02-.02.46-.43.91-.86,1.35-1.31,1.65-1.68,3.14-3.51,4.5-5.42.33-.47.66-.95.98-1.43,0,0,.04-.06.08-.13.04-.06.17-.26.17-.26.18-.28.35-.56.53-.84.63-1.03,1.24-2.08,1.81-3.15,1.21-2.26,2.3-4.58,3.31-6.93,2.15-5,3.96-10.14,5.93-15.21,1.8-4.63,3.69-9.53,7.21-13.17,1.89-1.96,4.13-3.42,6.8-4.04,1.34-.31,2.65-.4,4.01-.19.64.1,1.24.43,1.8.76.27.16.43.37.65.58.19.18.43.3.64.46.2.14.03.47-.2.42-.24-.05-.49-.12-.74-.08-.26.04-.49.13-.76.15-.53.04-1.03.21-1.56.26-.24.02-.49.06-.73.1-.1.02-.2.04-.3.06-.04.01-.17.04-.2.05-.53.14-1.05.28-1.57.47-.26.1-.52.2-.77.32-.09.04-.18.09-.28.13-.02.01-.23.12-.26.14-.45.25-.88.53-1.31.81-.42.28-.83.58-1.22.9-.08.06-.15.13-.23.2-.01.01-.03.02-.04.03-.02.02-.04.04-.07.07-.24.23-.47.47-.7.71-.37.41-.73.83-1.06,1.27-.17.22-.33.44-.49.67-.08.11-.16.23-.23.34-.02.03-.03.05-.05.08,0,.02-.04.06-.08.13-.61,1-1.16,2.03-1.66,3.08-1.05,2.24-1.96,4.56-2.86,6.87-3.74,9.63-6.96,19.53-12.84,28.13-1.45,2.12-3.05,4.15-4.84,6-.99,1.03-2.03,2-3.12,2.92-.6.51-1.15.97-1.9,1.27-.29.12-.57.28-.86.39-.37.14-.76.15-1.14.17-1.01.06-1.73-.94-1.31-1.88Z"/>
    <path class="cls-18" d="M348.9,324.48c.67-1.28,1.47-2.5,2.35-3.65.86-1.12,1.81-2.17,2.85-3.13.54-.5,1.09-.99,1.67-1.43.55-.43,1.2-.76,1.79-1.13,1.35-.85,2.78-1.55,4.29-2.06.2-.07.37.23.18.33-1.19.63-2.36,1.32-3.47,2.1-1.11.78-2.12,1.72-3.1,2.65-1.97,1.86-3.64,4.03-4.9,6.43-.36.69-.74,1.37-1.09,2.07-.35.7-.79,1.34-1.16,2.03-.15.28-.56.15-.52-.17.16-1.41.46-2.78,1.13-4.05Z"/>
    <path class="cls-18" d="M309.21,365.97c-.09-.35-.16-.62-.05-1,.13-.42.4-.81.68-1.14,1.04-1.2,2.45-1.93,4-2.18,1.75-.29,3.96-.11,5.48.85.31.2.43.81-.04.92-1.54.37-3.16.11-4.68.61-.3.1-.59.21-.87.35-.21.1-.46.24-.77.44-.55.37-.77.61-1.2,1.21-.14.19-.27.39-.47.53-.12.08-.25.13-.38.17-.02,0-.05.02-.1.05-.48.21-.97.17-1.34-.24-.14-.15-.21-.31-.26-.5-.08-.28-.02-.12,0-.06Z"/>
    <path class="cls-18" d="M304.73,387.93c.43-1.14.95-2.23,1.57-3.28.63-1.06,1.46-1.99,2.32-2.86.17-.17.52,0,.37.24-.6.99-1.06,2.03-1.55,3.07-.49,1.04-.89,2.12-1.19,3.23-.29,1.09-.49,2.2-.59,3.33-.05.59-.1,1.19-.13,1.78-.03.62.1,1.35-.36,1.84-.3.33-.9.46-1.25.1-.56-.58-.45-1.29-.41-2.04.03-.62.09-1.23.21-1.85.23-1.21.58-2.4,1.01-3.56Z"/>
    <path class="cls-18" d="M358.67,340.09c.64-.4,1.52-.54,2.22-.2.48.23.9.69,1.21,1.1.24.31.41.73.52,1.11.11.36.18.69.13,1.07,0,.13-.03.26-.08.38,0,.02,0,.03-.01.06-.22.92-1.25,1.34-2.02.75-.11-.07-.21-.14-.32-.21-.11-.08-.19-.16-.29-.24-.07-.06-.41-.29-.04-.06-.16-.1-.32-.21-.48-.31.05.04-.04-.01-.18-.09-.33-.19-.66-.36-.87-.7-.08-.15-.15-.29-.23-.44-.04-.08-.05-.11-.03-.08-.03-.05-.06-.11-.1-.19-.04-.16-.08-.33-.11-.49-.11-.51.24-1.18.67-1.45Z"/>
    <path class="cls-18" d="M351.77,347.79c.67-.96,1.89-1.08,2.89-.59.76.37,1.52,1.15,1.51,2.04,0,.55-.13.99-.54,1.37-.36.33-.9.54-1.39.42-.24-.06-.48-.11-.7-.23,0,0,0,0,0,0,0,0-.01,0-.01,0-.14,0-.29.02-.41,0-.36-.08-.63-.24-.93-.44.53.34.32.2.17.14-.49-.2-.82-.69-.93-1.19-.13-.57.03-1.04.36-1.51Z"/>
    <path class="cls-18" d="M350.05,359.41c.26-.3.57-.51.93-.65.59-.3,1.37-.21,1.96.03.27.11.55.32.78.53.55.5.93,1.15.95,1.92.04,1.27-.96,2.26-2.25,2.07,0,0-.02,0-.03,0-.13,0-.26-.01-.39-.04-.11-.02-.22-.05-.33-.06-.25-.02-.5-.07-.74-.2-.21-.11-.45-.26-.63-.43-.57-.57-.9-1.27-.76-2.1.07-.4.24-.75.5-1.06Z"/>
    <path class="cls-18" d="M339.84,377.82c.48-.57,1.17-.76,1.9-.68.05,0,.09.01.13.02.44.11.8.29,1.11.63.25.27.46.63.51,1.01.06.27.06.54.03.82-.04.13-.08.26-.13.39-.08.19-.2.34-.36.47-.08.07-.17.14-.27.2-.03.03-.07.05-.1.07-.24.15-.46.23-.72.3.07-.02.15-.03.22-.05-.03,0-.06.02-.09.03-1.23.44-2.59-.41-2.72-1.71-.05-.52.13-1.1.47-1.5Z"/>
    <path class="cls-1" d="M374.61,347.44c1-1.18,2.8-1.02,3.72.18.55.71.8,1.59.7,2.49-.04.35-.13.7-.32,1-.29.44-.82.82-1.38.75h-.3c-.17-.04-.34-.12-.5-.19-.12-.06-.25-.12-.37-.17-.26-.13-.52-.27-.77-.41-1.34-.7-1.79-2.46-.78-3.65Z"/>
    <path class="cls-1" d="M368.78,354.47c.22-.96.87-1.45,1.79-1.64,1.32-.29,2.33.9,2.97,1.86.54.81.86,1.65.77,2.63-.05.57-.64,1.03-1.17,1.08-1,.09-1.88-.36-2.68-.91-1-.68-1.99-1.68-1.68-3.01Z"/>
    <path class="cls-1" d="M381.78,339.99c1.22-.28,2.27.57,2.45,1.76.07.42.06.87-.02,1.28-.03.14-.04.28-.07.41-.06.32-.2.55-.39.76-.33.47-.97.73-1.52.48-.07-.02-.17-.06-.31-.1-.23-.11-.43-.27-.58-.48-.03-.03-.07-.07-.1-.1-.42-.41-.66-.84-.91-1.37-.52-1.1.37-2.4,1.45-2.65Z"/>
    <path class="cls-1" d="M390.12,344.18c.5-.32,1.16-.48,1.76-.35.87.19,1.38.85,1.75,1.6.23.47.32.99.24,1.51-.12.76-.79,1.56-1.64,1.41-.39-.07-.69-.23-.97-.51-.13-.13-.27-.26-.39-.4,0,0,0,0,0,0,.21.26.03.06-.07-.04-.05-.03-.1-.06-.15-.1-.31-.2-.54-.42-.72-.75,0,0-.02-.02-.07-.11-.1-.18-.19-.36-.27-.54-.23-.59,0-1.37.54-1.72Z"/>
    <g>
      <path class="cls-1" d="M357.73,360.86c.38-.79,1.07-1.17,1.89-1.32,1.34-.25,2.82.91,3.45,2.02.6,1.06.97,2.31.3,3.44-.4.68-1.23,1.12-2.01.71-.33-.17-.62-.35-.93-.57-.1-.07-.61-.38-.69-.53-.09-.06-.2-.14-.34-.23,0,0,.01,0,.02,0,0,0-.01,0-.02,0-.01,0-.02-.01-.03-.02-.29-.2-.23-.12-.12-.05-.08-.05-.16-.11-.2-.13-.45-.25-.85-.53-1.13-.98-.44-.73-.57-1.55-.19-2.34Z"/>
      <path class="cls-1" d="M359.41,364.38h0s-.1-.03-.16-.07c.06.04.12.07.15.07Z"/>
    </g>
    <path class="cls-1" d="M355.86,366.42c1.48-1.04,3.66-.38,4.29,1.34.25.69.31,1.54.13,2.29-.03.21-.09.42-.18.62-.16.33-.39.61-.69.82-.3.21-.64.33-1.01.37-.22.02-.43,0-.64-.04-.76-.09-1.54-.43-2.1-.91-1.4-1.18-1.27-3.45.21-4.49Z"/>
    <path class="cls-1" d="M337.4,382.69c.38-.45.98-.76,1.56-.81.9-.08,1.58.34,2.14.99.25.29.44.67.52,1.05.13.36.24.72.23,1.1.12.72-.39,1.36-1.06,1.53-.41.17-.85.14-1.28.09-.46.05-.93-.12-1.33-.32-1.34-.68-1.77-2.46-.78-3.63Z"/>
    <path class="cls-5" d="M368.2,387.16c1.11,2.68,3.25,4.81,5.63,6.4,2.47,1.66,5.36,2.84,8.28,3.38,2.83.52,6.12.36,8.26-1.82,1.21-1.24,1.94-2.87,2.55-4.47.58-1.52,1.02-3.09,1.3-4.69.55-3.12.51-6.4-.47-9.43-2.74-8.44-10.91-10.42-18.27-5.98-5.41,3.26-9.9,10.22-7.27,16.6Z"/>
    <path class="cls-6" d="M321.26,383.2c.54-2.13,2.12-3.79,3.73-5.19,1.75-1.53,3.6-2.89,5.16-4.64,6.77-7.6,8.94-17.89,12.26-27.21,3.05-8.56,7.74-17.42,16.39-21.41,4.05-1.87,8.62-2.2,12.94-1.12,4.47,1.12,8.54,3.53,12.08,6.43,3.61,2.95,6.7,6.47,9.49,10.19,2.75,3.68,5.17,7.59,7.27,11.67,4.16,8.08,6.99,16.85,8.36,25.83.69,4.5,1,9.05.93,13.6-.07,4.65-.21,10.14-4.07,13.39-.7.58-1.48,1.05-2.31,1.34-4.06,7.49-11.97,12.21-20.23,13.61-10.29,1.75-20.87-1.57-29.75-6.65-9.38-5.37-17.56-12.62-25.87-19.46-3.07-2.53-7.55-5.78-6.38-10.39ZM323.92,388.68c1.48,1.78,3.44,3.18,5.22,4.64,2.08,1.7,4.16,3.41,6.24,5.11,3.96,3.24,7.96,6.45,12.18,9.36,8.38,5.78,17.98,10.46,28.31,10.98,8.45.42,17.27-2.4,23.11-8.71,1.03-1.11,1.94-2.32,2.73-3.6-.14,0-.27,0-.41,0,.9-.39,1.76-.85,2.56-1.4.81-.43,1.53-1.01,2.13-1.68,1.63-1.82,2.31-4.26,2.62-6.64.3-2.31.33-4.67.32-7.01-.01-2.2-.12-4.39-.31-6.58-.77-8.82-2.98-17.5-6.48-25.64-1.75-4.07-3.83-8-6.21-11.74-2.39-3.75-5.07-7.37-8.11-10.61-5.95-6.34-14.35-12.25-23.5-11.03-8.83,1.18-15.04,8.7-18.59,16.32-4.19,9.01-5.79,19.05-10.73,27.73-1.14,2-2.45,3.92-3.97,5.66-1.47,1.68-3.17,3.1-4.85,4.57-1.52,1.33-3.22,2.86-3.79,4.87-.57,2,.23,3.88,1.51,5.42Z"/>
    <path class="cls-6" d="M373.96,400.04c.52.35.76.92,1.1,1.43.33.5.69.99,1.07,1.45.72.88,1.55,1.68,2.44,2.39,1.77,1.42,3.84,2.51,6.03,3.11,4.88,1.34,9.8.14,14.34-1.81,1.32-.56,2.6-1.2,3.89-1.82,1.32-.63,2.62-1.39,4.03-1.77.17-.04.36.15.21.3-.94.94-2.11,1.64-3.24,2.32-1.16.7-2.35,1.35-3.57,1.94-2.43,1.17-4.98,2.11-7.64,2.6-5.1.95-10.27-.16-14.46-3.23-1.11-.81-2.11-1.76-3.02-2.8-.46-.53-.89-1.09-1.28-1.67-.4-.59-.88-1.22-.87-1.95,0-.54.53-.8.97-.51Z"/>
    <path class="cls-6" d="M370.28,400.73c.46-.33.93-.39,1.47-.47.55-.08,1.11-.18,1.66-.3,1.1-.24,2.18-.62,3.25-.95.33-.1.57.32.28.54-.96.73-2.04,1.2-3.19,1.54-1.02.29-2.44.75-3.43.19-.21-.12-.26-.41-.05-.56Z"/>
    <g>
      <path class="cls-23" d="M354.19,420.25c-.93,1.06-1.83,2.32-2,3.75-.15,1.24.47,2.37,1.51,3.02,1.1.68,2.43.81,3.68.54,1.43-.3,2.72-1.04,3.92-1.85,1.21-.83,2.35-1.75,3.41-2.76,1.19-1.13,2.27-2.37,3.25-3.69.85-1.15,1.67-2.37,2.39-3.61-1.51.2-3.14-.25-4.35-1.11-.69-.48-1.27-1.12-1.72-1.84-1.07.81-2.33,1.32-3.48,2.01-1.23.75-2.41,1.59-3.51,2.51-1.11.92-2.15,1.93-3.1,3.01Z"/>
      <path class="cls-6" d="M355.17,417.45c1.34-1.24,2.77-2.36,4.31-3.34,1.46-.94,3.1-2.04,4.86-2.21.35-.03.45.39.22.59-1.12.94-2.51,1.48-3.75,2.24-1.23.75-2.41,1.59-3.51,2.51-1.11.92-2.15,1.93-3.09,3.01-.93,1.06-1.83,2.32-2,3.75-.15,1.24.47,2.37,1.51,3.02,1.1.68,2.43.81,3.68.54,1.43-.3,2.72-1.04,3.92-1.85,1.21-.83,2.36-1.75,3.41-2.76,1.19-1.13,2.27-2.37,3.24-3.69.85-1.16,1.68-2.39,2.41-3.64.14-.01.27-.03.41-.06-.56,1.35-1.2,2.61-2.03,3.84-.91,1.33-1.93,2.59-3.05,3.75-1.11,1.15-2.31,2.2-3.59,3.15-1.27.93-2.65,1.82-4.17,2.27-1.41.42-2.87.43-4.23-.14-1.28-.53-2.36-1.58-2.7-2.95-.8-3.2,2.03-6.06,4.16-8.03Z"/>
      <path class="cls-6" d="M363.47,409.3c.1-.22.38-.17.48.02.19.37.22.79.29,1.2.08.44.2.87.37,1.28.36.87.94,1.61,1.67,2.19,1.67,1.3,3.75,1.34,5.71.83.14-.04.28.16.13.25-1.87,1.09-4.41.69-6.13-.52-.84-.59-1.52-1.42-2-2.32-.43-.81-.96-2.03-.52-2.93Z"/>
      <g>
        <path class="cls-6" d="M353.07,422.58c2.1-1.63,4.24-3.2,6.31-4.87.12-.1.25.1.13.19-2,1.72-3.93,3.53-5.9,5.28-.66.58-1.32,1.15-1.99,1.72-.03-.13-.06-.26-.09-.39-.02-.11-.07-.24-.07-.36,0,.48,0-.08-.02-.19,0-.03,0-.06,0-.08.54-.44,1.09-.87,1.64-1.3Z"/>
        <path class="cls-6" d="M360.95,419.97c.13-.11.33.11.21.23-1.81,1.68-3.59,3.39-5.36,5.12-.74.72-1.46,1.47-2.19,2.22-.16-.08-.33-.17-.48-.26,0,0,0,0,0,0-.02-.02-.04-.04-.06-.05.8-.82,1.63-1.61,2.44-2.4,1.74-1.7,3.58-3.3,5.45-4.85Z"/>
        <path class="cls-6" d="M362.55,422.33c.07-.08.19.02.12.1-1.59,1.98-3.21,4-4.95,5.88-.17,0-.34-.02-.52-.03.61-.66,1.22-1.32,1.83-1.98,1.19-1.31,2.36-2.63,3.51-3.98Z"/>
      </g>
    </g>
    <path class="cls-6" d="M337.65,360.64c.86-2.14,1.73-4.26,2.37-6.48.63-2.18,1.12-4.4,1.56-6.63.88-4.47,1.56-8.99,2.66-13.41,1.67-6.76,4.57-13.65,9.88-18.36,2.63-2.33,5.79-3.91,9.26-4.51,3.46-.6,7-.24,10.33.83,7.05,2.28,12.82,7.37,16.67,13.61,4.23,6.85,6.44,14.69,8.32,22.45.22.91.36,1.85.55,2.77.03.13-.19.18-.23.05-.27-.94-.58-1.87-.82-2.81-.24-.95-.49-1.9-.75-2.85-.51-1.9-1.05-3.8-1.64-5.68-1.17-3.75-2.56-7.45-4.39-10.94-1.76-3.34-3.92-6.54-6.63-9.19-2.57-2.51-5.57-4.56-8.89-5.95-3.21-1.35-6.73-2.09-10.21-1.86-3.43.23-6.72,1.5-9.49,3.52-5.64,4.11-8.81,10.91-10.64,17.46-1.15,4.09-1.83,8.3-2.67,12.46-.87,4.3-1.87,8.59-3.49,12.68-.41,1.03-.86,2.03-1.43,2.98-.12.2-.41.06-.32-.15Z"/>
    <path class="cls-6" d="M299.82,390.57c.87-3.38,3.03-6.36,5.93-8.29,1.45-.96,3.06-1.64,4.77-1.98,1.09-.22,2.21-.27,3.32-.32,1.06-.04,2.23.02,3.27-.23,1.15-.28.16-1.47-.26-2-.71-.91-1.42-1.83-2.11-2.75-1.38-1.85-2.71-3.75-3.99-5.67-2.05-3.09-4.88-6.93-3.24-10.81.68-1.6,2.12-2.78,3.89-2.84,1.98-.08,3.81.99,5.34,2.14,5.85,4.38,8.54,11.66,10.32,18.48-.19.15-.36.32-.53.5-.31-.88-.63-1.77-.94-2.65-.6-1.67-1.19-3.33-1.88-4.96-1.33-3.13-3.04-6.18-5.45-8.61-1.2-1.22-2.58-2.36-4.13-3.12-1.56-.77-3.56-1.08-4.85.35-1.09,1.21-1.32,2.97-.96,4.51.45,1.93,1.61,3.61,2.68,5.25,1.19,1.83,2.43,3.63,3.72,5.4.66.91,1.33,1.81,2.02,2.7.61.8,1.35,1.56,1.81,2.46.39.76.48,1.7-.2,2.32-.66.61-1.71.61-2.55.67-2.04.14-4.12.05-6.1.65-3.11.93-5.77,3.16-7.35,5.99-.79,1.42-1.31,2.96-1.48,4.57-.09.81-.15,1.73.17,2.5.3.74.98,1.13,1.74,1.27,1.7.31,3.58-.25,5.23-.66,1.86-.47,3.69-1.05,5.47-1.76,1.75-.7,3.46-1.51,5.11-2.44,1.55-.87,3.01-1.86,4.47-2.85.25.35.54.67.85.98-.72.56-1.48,1.08-2.26,1.58-1.71,1.09-3.49,2.07-5.33,2.93-1.81.85-3.68,1.58-5.58,2.18-1.87.6-3.81,1.14-5.76,1.41-1.71.24-3.83.12-4.89-1.47-1.01-1.53-.69-3.74-.26-5.42Z"/>
    <path class="cls-6" d="M299.47,402.9c.9-.48,1.92-.71,2.89-1.01,1.02-.31,2.03-.64,3.03-1,.97-.35,1.94-.72,2.9-1.1,1.01-.41,2.04-.79,3.01-1.28.11-.06.21.14.1.19-.9.48-1.77,1.02-2.68,1.47-.98.49-1.98.94-2.99,1.35-.99.4-1.98.77-3,1.09-.99.32-2.06.68-3.11.69-.19,0-.36-.29-.15-.4Z"/>
    <path class="cls-6" d="M302.07,404.65c1.34-.33,2.72-.46,4.06-.81,1.34-.34,2.66-.78,3.94-1.32.15-.06.27.17.13.25-1.27.67-2.58,1.23-3.95,1.62-1.34.39-2.73.73-4.14.65-.2-.01-.23-.35-.04-.4Z"/>
    <path class="cls-6" d="M312.72,349.86c2.47,1.18,4.69,2.9,6.67,4.78,1.99,1.89,3.76,4.03,5.11,6.42.03.06-.05.12-.09.06-1.58-2.2-3.32-4.3-5.31-6.15-1.99-1.86-4.22-3.39-6.51-4.87-.14-.09-.05-.32.12-.24Z"/>
    <path class="cls-6" d="M299.98,355.33c.36-.76.79-1.48,1.26-2.18.93-1.4,2.09-2.52,3.37-3.59.14-.12.34.11.21.23-1.13,1.1-2.09,2.45-2.89,3.81-.39.67-.73,1.36-1.04,2.07-.15.36-.3.71-.43,1.08-.13.35-.21.67-.58.81-.14.05-.32,0-.39-.12-.37-.59.23-1.55.49-2.11Z"/>
    <path class="cls-6" d="M295.47,355.03c.3-.75.66-1.47,1.07-2.18.8-1.4,1.83-2.6,2.92-3.78.17-.18.44.05.29.25-.94,1.24-1.67,2.65-2.32,4.05-.31.68-.6,1.38-.85,2.09-.26.71-.45,1.44-.94,2.03-.2.25-.58.09-.63-.2-.12-.79.16-1.54.46-2.27Z"/>
    <path class="cls-6" d="M366.55,379.38c1.08-3.63,3.38-6.73,6.3-9.09,2.69-2.19,5.98-3.65,9.43-4.05,1.66-.19,3.4-.16,5.02.25,1.57.4,3.25,1.14,4.26,2.46.48.63.74,1.38.82,2.16.02.16-.01.29-.07.4.49.6.91,1.23,1.26,1.86,1.69,3.02,2.27,6.5,2.09,9.92-.18,3.52-1.12,7.19-2.79,10.3-.84,1.58-2,2.96-3.6,3.81-1.43.76-3.06,1.07-4.67,1.07-3.3,0-6.6-1.07-9.5-2.6-2.85-1.5-5.52-3.6-7.23-6.36-1.88-3.04-2.35-6.71-1.33-10.13ZM368.2,387.16c1.11,2.68,3.25,4.81,5.63,6.4,2.47,1.66,5.36,2.84,8.28,3.38,2.83.52,6.12.36,8.26-1.82,1.21-1.24,1.94-2.87,2.55-4.47.58-1.52,1.02-3.09,1.3-4.69.55-3.12.51-6.4-.47-9.43-2.74-8.44-10.91-10.42-18.27-5.98-5.41,3.26-9.9,10.22-7.27,16.6Z"/>
    <path class="cls-6" d="M380.92,382.47c.59-3.13,2-6.06,4.04-8.51.95-1.14,2.1-2.21,3.67-2.26.72-.02,1.42.14,2.05.44.02,0,.04,0,.06.03h0c.66.32,1.25.79,1.74,1.35,1.03,1.19,1.51,2.75,1.8,4.27.33,1.73.44,3.51.37,5.27-.11,3.18-.64,6.73-2.6,9.34-.84,1.12-1.99,2.02-3.35,2.4-.15.04-.31.08-.46.11-.1.02-.2.05-.3.07-.55.1-1.08.11-1.58.04-.57-.06-1.11-.21-1.6-.5-.08-.05-.16-.1-.24-.15-1.21-.71-2.18-1.89-2.81-3.2-1.29-2.67-1.33-5.83-.79-8.7Z"/>
    <path class="cls-6" d="M378.59,358.72c.37-.2.72-.46,1.08-.68.39-.24.8-.47,1.18-.73.71-.49,1.37-1.14,2.24-1.31.26-.05.45.23.42.45-.12,1-1.06,1.67-1.86,2.13-.41.24-.84.46-1.3.6-.51.15-.99.17-1.52.2-.32.02-.58-.47-.24-.65Z"/>
    <path class="cls-6" d="M401.94,357.38c.62-.34,1.33-.22,2.02-.17.75.06,1.52.09,2.26.24.37.08.34.6-.03.66-.72.11-1.45.11-2.18.13-.65.01-1.44.12-2.02-.23-.2-.13-.32-.48-.05-.63Z"/>
    <path class="cls-23" d="M369.12,351.89c1.08-.98,2.82-1.36,4.19-.84-.34-.71-.61-1.46-.66-2.26-.08-1.07.25-2.24,1.08-2.96,1.49-1.29,3.98-.28,4.1,1.69,0,.14-.18.15-.21.02-.36-1.65-2.66-2.29-3.71-.93-1.29,1.67-.16,3.88.75,5.43.2.34-.23.82-.55.5-1.21-1.22-3.25-1.18-4.48.02-.69.67-1.02,1.64-1.07,2.58-.05,1.06.32,2.02.59,3.02.06.23-.22.52-.43.3-1.62-1.7-1.3-5.02.4-6.57Z"/>
    <path class="cls-23" d="M356.55,365.79c.5-.23,1.05-.33,1.58-.31-.92-1.34-1.54-2.89-.66-4.45.4-.7,1.02-1.2,1.83-1.3.75-.1,1.5.17,1.9.83.11.18-.14.36-.27.19-.44-.57-1.21-.7-1.87-.48-.75.26-1.13.95-1.16,1.72-.05,1.68,1,2.99,2.04,4.2.38.45-.3.98-.73.66-.74-.56-1.77-.47-2.55-.01-.95.56-1.4,1.62-1.42,2.7-.02,1.16.41,2.28,1.03,3.24.33.5.7.98,1.09,1.43.36.42.83.83.98,1.39.06.24-.14.41-.37.34-.67-.22-1.16-.91-1.6-1.44-.45-.54-.87-1.12-1.22-1.74-.69-1.25-1.07-2.71-.79-4.13.25-1.26,1.01-2.32,2.19-2.85Z"/>
    <path class="cls-23" d="M346.41,367.29c.55-1.55,2.04-2.58,3.64-2.74-.63-1.21-.6-2.72.15-3.9.86-1.34,2.56-2.01,4.11-1.67.19.04.14.34-.05.3-1.4-.23-2.9.44-3.55,1.73-.61,1.2-.35,2.72.51,3.72.27.31-.1.71-.43.68-1.5-.14-3.06.83-3.51,2.3-.22.7-.12,1.46.15,2.13.14.34.32.67.54.97.2.27.4.54.45.88.02.17-.12.33-.28.34-.94.08-1.59-1.18-1.8-1.93-.26-.92-.23-1.9.09-2.8Z"/>
    <path class="cls-23" d="M349.51,385.38c.13-.02.16.16.05.21-1.17.55-2.17,1.79-2.18,3.12,0,.62.19,1.24.53,1.76.33.49.8.84,1.17,1.29.14.17-.05.37-.23.35-1.55-.12-2.35-2.26-2.26-3.58.11-1.6,1.32-2.94,2.91-3.17Z"/>
    <path class="cls-23" d="M347.47,398.13c.24-1.02,1.05-1.94,2.15-1.92.16,0,.23.22.06.29-.78.29-1.26.99-1.43,1.78-.17.81.11,1.48.54,2.15.1.15-.02.42-.23.35-1.09-.33-1.34-1.66-1.11-2.65Z"/>
    <path class="cls-23" d="M339.51,381.14c-.55-1.15-1.04-2.52-.38-3.68.57-1,1.97-1.72,2.97-.88.26.22-.06.57-.33.39-.91-.6-2.06.32-2.25,1.23-.24,1.12.39,2.27.92,3.22.18.32-.1.63-.44.52-1.55-.5-3.34,1.05-3.18,2.64.07.72.42,1.43.87,1.99.49.6,1.19.96,1.7,1.54.17.2,0,.56-.26.56-1.04.01-1.91-.83-2.46-1.64-.59-.87-.83-1.85-.67-2.89.27-1.71,1.82-3.12,3.52-3Z"/>
    <path class="cls-23" d="M357.98,340.56c.71-1.07,2.64-1.36,3.32-.12.14.26-.2.51-.38.27-.63-.82-2.08-.58-2.51.33-.26.56-.14,1.23.17,1.75.15.26.35.48.57.68.2.17.4.29.5.53.06.14-.05.27-.19.3-.72.13-1.4-.96-1.63-1.51-.29-.71-.3-1.57.14-2.22Z"/>
    <path class="cls-23" d="M350.76,348.08c.3-1.04,1.06-1.9,2.17-2.05.18-.02.24.25.07.31-.84.28-1.39,1.06-1.53,1.92-.15.91.15,1.56.58,2.32.12.21-.07.44-.3.35-1.07-.39-1.27-1.9-1-2.86Z"/>
    <path class="cls-23" d="M388.56,344.8c.24-.74.85-1.41,1.61-1.63,1.53-.43,3.31.58,3.31,2.27,0,.2-.29.24-.32.03-.18-1.17-1.69-2.45-2.86-1.69-.48.31-.8.79-.95,1.33-.07.27-.1.56-.05.84.05.27.16.48.03.74-.06.11-.2.2-.33.17-.78-.2-.63-1.49-.44-2.07Z"/>
    <path class="cls-23" d="M380.36,339.84c1.04-.77,2.58-.44,3.22.66.07.13-.09.23-.18.13-.65-.72-1.93-.97-2.73-.34-.38.29-.6.75-.66,1.22-.06.5.11.92.24,1.38.05.18-.15.34-.3.21-1.01-.8-.49-2.59.41-3.26Z"/>
    <path class="cls-6" d="M310.86,356.95c4.04,1.99,7.28,5.12,9.46,9.07.06.11-.09.22-.16.11-2.47-3.56-5.73-6.67-9.38-9-.1-.07-.03-.24.08-.18Z"/>
    <path class="cls-6" d="M309.06,359.37c1.14.66,2.16,1.54,3.15,2.41,1.03.91,2.02,1.87,2.96,2.87.11.11-.05.3-.16.19-.94-.96-1.93-1.87-2.95-2.74-1.02-.87-2.12-1.65-3.11-2.55-.08-.08,0-.24.11-.17Z"/>
    <path class="cls-6" d="M308.23,364.87c-.09-.2-.17-.41-.25-.61-.04-.1-.07-.2-.11-.3.8.57,1.55,1.23,2.3,1.84,1.04.85,2.07,1.7,3.11,2.54.16.13-.04.37-.21.24-1.04-.8-2.08-1.59-3.12-2.39-.57-.44-1.16-.87-1.74-1.32Z"/>
    <path class="cls-6" d="M302.99,393.17c4.49-1.2,8.84-2.71,13.03-4.74.17-.08.32.2.15.29-4.1,2.17-8.56,3.81-13.14,4.61-.1.02-.13-.14-.04-.17Z"/>
    <path class="cls-6" d="M301.18,390.75c2.17-.52,4.38-.89,6.54-1.46,2.16-.58,4.29-1.28,6.38-2.08.14-.05.22.16.08.22-2.11.83-4.26,1.56-6.45,2.16-2.12.58-4.31,1.15-6.51,1.33-.09,0-.13-.13-.04-.15Z"/>
    <path class="cls-6" d="M302.33,386.82c3.46-.61,6.91-1.13,10.31-2,.18-.05.29.23.1.28-3.39.93-6.88,1.72-10.4,1.92-.13,0-.14-.17-.02-.2Z"/>
    <g>
      <path class="cls-6" d="M389.48,324.86c0,.25-.01.5-.02.74-.05,1.47-.03,2.96-.23,4.42-.03.18-.31.17-.32-.01-.08-1.47.06-2.95.14-4.42.02-.4.04-.8.07-1.2.12.16.24.31.36.47Z"/>
      <path class="cls-6" d="M383.06,317.95c.02.25.04.49.06.74.13,1.57.22,3.15.29,4.73.07,1.53.25,3.16.01,4.69-.02.16-.24.13-.27-.01-.26-1.54-.15-3.17-.22-4.73-.07-1.58-.16-3.15-.28-4.73-.03-.38-.06-.76-.09-1.14.16.15.33.3.49.45Z"/>
      <path class="cls-6" d="M376.27,313.56c.06.24.12.49.18.73.28,1.19.51,2.39.69,3.6.18,1.23.34,2.48.27,3.72-.01.16-.24.13-.27-.01-.23-1.21-.31-2.45-.48-3.66-.18-1.26-.41-2.51-.7-3.74-.07-.3-.14-.6-.22-.9.18.09.35.18.53.26Z"/>
      <path class="cls-6" d="M368.38,311.45c.07.2.15.4.22.6.47,1.3.91,2.62,1.32,3.94.39,1.27.82,2.56,1.02,3.88.02.14-.19.18-.24.05-.47-1.3-.78-2.66-1.18-3.98-.4-1.3-.82-2.58-1.28-3.86-.08-.24-.17-.47-.26-.71.13.02.27.04.4.07Z"/>
      <path class="cls-6" d="M362.29,311.95c.42.82.83,1.64,1.23,2.48.55,1.15,1.05,2.32,1.54,3.49.5,1.17,1.02,2.39,1.29,3.63.04.18-.24.28-.34.12-.64-1.07-1.1-2.28-1.59-3.42-.5-1.17-1.03-2.32-1.54-3.49-.39-.87-.78-1.75-1.17-2.62.19-.07.38-.13.57-.2Z"/>
      <path class="cls-6" d="M353.13,317.19c1.45,1.64,2.76,3.5,3.48,5.53.04.12-.14.23-.21.11-.7-1.18-1.33-2.39-2.08-3.54-.43-.66-.9-1.29-1.39-1.9.06-.07.13-.13.19-.2Z"/>
    </g>
    <path class="cls-11" d="M384.4,390.01c.13-.26.31-.48.55-.65.13-.07.25-.13.38-.2.28-.1.57-.13.87-.08.23.03.43.12.61.25.19.1.35.25.47.43.13.18.21.37.25.59.07.21.08.43.03.66-.05.14-.09.28-.14.42-.13.26-.31.48-.55.65-.13.07-.25.13-.38.2-.28.1-.57.13-.87.08-.23-.03-.43-.12-.61-.25-.19-.1-.35-.25-.47-.43-.13-.18-.22-.37-.25-.59-.07-.21-.08-.43-.03-.66.05-.14.09-.28.14-.42Z"/>
    <g>
      <path class="cls-5" d="M403.42,384.15c.39.99.87,1.95,1.44,2.85.56.88,1.26,1.76,2.25,2.16,2.06.85,4.22-.65,5.32-2.32,1.27-1.94,1.94-4.34,2.35-6.59.43-2.39.49-4.85.16-7.26-.3-2.27-.85-4.95-2.63-6.55-4.06-3.66-8.14,2.03-9.24,5.37-1.3,3.95-1.19,8.48.34,12.35Z"/>
      <path class="cls-6" d="M401.11,372.97c.58-2.72,1.73-5.52,3.75-7.5,1.84-1.8,5.2-3.48,7.69-2.01.69.41.36,1.34-.42,1.3-.4-.02-.8-.04-1.2-.05.21.05.43.12.63.21,2.1.85,3.24,3.12,3.8,5.19,1.38,5.08.97,10.81-1.17,15.62-.98,2.21-2.61,4.28-5.11,4.76-1.21.23-2.4-.03-3.4-.73-1.02-.71-1.74-1.8-2.35-2.86-2.38-4.18-3.23-9.22-2.23-13.94ZM403.42,384.15c.39.99.87,1.95,1.44,2.85.56.88,1.26,1.76,2.25,2.16,2.06.85,4.22-.65,5.32-2.32,1.27-1.94,1.94-4.34,2.35-6.59.43-2.39.49-4.85.16-7.26-.3-2.27-.85-4.95-2.63-6.55-4.06-3.66-8.14,2.03-9.24,5.37-1.3,3.95-1.19,8.48.34,12.35Z"/>
      <path class="cls-6" d="M406.31,374.73c.67-2.91,2.87-6.72,6.04-5.73,3.23,1.01,3.73,5.19,3.41,8.47-.31,3.16-1.17,8.6-4.39,9.82-1.52.58-2.91-.3-3.74-1.65-.92-1.5-1.39-3.41-1.61-5.21-.23-1.88-.13-3.84.3-5.71Z"/>
      <path class="cls-11" d="M406.27,371.93c.08-.25.16-.5.24-.75.22-.46.55-.84.97-1.14.22-.12.44-.23.66-.35.5-.18,1-.23,1.52-.14.4.06.75.2,1.07.45.34.18.61.43.82.76.23.31.38.66.43,1.03.12.38.14.76.05,1.15-.08.25-.16.5-.24.75-.22.46-.55.84-.97,1.14-.22.12-.44.23-.66.35-.5.18-1,.23-1.52.14-.4-.06-.75-.2-1.07-.45-.34-.18-.61-.43-.82-.76-.23-.31-.38-.66-.43-1.03-.12-.38-.14-.76-.05-1.15Z"/>
      <path class="cls-11" d="M408.4,381.7c.12-.24.28-.44.5-.59.11-.06.23-.12.34-.18.26-.09.52-.12.79-.07.21.03.39.11.55.23.17.09.32.22.43.39.12.16.2.34.22.54.06.19.07.39.03.6-.04.13-.08.26-.12.39-.12.24-.28.44-.5.59-.11.06-.23.12-.34.18-.26.09-.52.12-.79.07-.21-.03-.39-.11-.55-.23-.17-.09-.32-.22-.43-.39-.12-.16-.2-.34-.22-.54-.06-.19-.07-.39-.03-.6.04-.13.08-.26.12-.39Z"/>
    </g>
    <path class="cls-11" d="M385.65,374.86c1.15-.75,2.67-.64,3.74.18.96.73,1.44,2.08,1.22,3.26-.26,1.43-1.31,2.62-2.78,2.84-1.4.21-2.76-.82-3.23-2.1-.15-.4-.21-.84-.2-1.26-.21-1.11.28-2.29,1.24-2.92Z"/>
  </g>
  <g>
    <path class="cls-2" d="M216.95,365.63c.6,1.03,1.16,2.08,1.71,3.12,1.49,2.84,2.78,5.8,3.9,8.8,2.33,6.24,3.93,12.73,5.07,19.28,1.14,6.54,1.91,13.2,2.21,19.84.29,6.57-.22,13.71-4.46,19.07-1.2,1.51-2.69,2.82-3.58,4.56-.74,1.45-.89,3.6.37,4.84,1.52,1.5,4.36.3,5.94-.56,1.19-.64,2.27-1.46,3.23-2.4.2.09.4.17.62.24.05.02.09.03.14.04.11.03.22.06.33.08h.01c.13.03.27.05.41.06.2,5.02-1.04,10.18-1.48,15.1-.13,1.48-.45,3.27-.06,4.72.24.89.86,1.47,1.78.97.38-.21.7-.56.99-.95.05.14.11.28.16.43.16-.17.3-.35.43-.54.23.47.47.93.9,1.32.72.66,1.68,1.1,2.66,1.17.77.05,1.44-.13,2.04-.47-.02-.03-.04-.05-.05-.08.42-.21.82-.45,1.18-.75.89.82,1.82,1.43,3.22,1.35.31-.02.62-.07.91-.15.04.02.08.05.12.07.14-.08.32-.1.5,0,.29.16.6.28.9.37,2.01.58,4.19-.42,5.61-1.94,1.79-1.93,2.72-4.61,3.61-7.03,1.84-5.06,3.09-10.32,3.89-15.64,1.62-10.8,1.43-21.79.81-32.66-1.18-20.45-4.42-40.96-12.31-59.96-3.57-8.59-8.15-16.65-13.55-24.18-2.91,2.15-5.9,4.25-8.99,6.13.79.24,1.55.59,2.25,1.03,2.44,1.54,4.03,4.1,4.84,6.82,3.46,11.6-5.25,24.24-16.24,27.88Z"/>
    <path class="cls-2" d="M84.42,298.31c-.39,1.1-.76,2.21-1.14,3.32.14,2.33.28,4.65.44,6.98.81,12.24,1.92,24.47,3.84,36.59.48,3.05,1,6.09,1.62,9.11.52,2.55,1.43,5.78,4.62,5.72,1.44-.02,2.9-.52,4.31-.79.6-.12,1.2-.23,1.8-.34-.39-2.67-.4-5.43,0-8.02.51-3.2,1.98-6.64,5.21-7.86,3.42-1.3,7.14.36,9.98,2.25,1.79,1.19,3.47,2.54,5.36,3.57,2.02,1.1,4.2,1.59,6.47,1.82,4.07.41,8.36.11,12.14,1.94,3.05,1.48,5.3,4.23,6.58,7.33,2.55,6.19,1.02,14.52-4.83,18.34-3.73,2.44-8.62,2.1-12.83,1.41-2.54-.41-5.04-1.07-7.45-1.95-.55-.2-1.11-.41-1.66-.63-1.19.29-2.41.48-3.57.7-3.14.6-6.29,1.21-9.44,1.82-.32.06-.65.12-.98.19,1.32,1.02,2.69,1.99,4.1,2.89,3.33,2.13,6.86,3.94,10.52,5.43,7.52,3.07,15.59,4.81,23.67,5.52,8.25.72,16.7.46,24.87-.97,8.36-1.46,16.16-4.6,22.66-10.13,3.42-2.91,6.44-6.26,9.2-9.79,1.41-1.81,2.74-3.67,4.05-5.55.44-.63.86-1.28,1.29-1.92-.03-.01-.05-.02-.08-.03.24-.32.47-.65.7-.99,2.37,1.13,5.13,1.5,7.92,1.04.91-.15,1.82-.37,2.69-.66,4.46-1.44,8.41-4.5,11.28-8.15,3.41-4.33,5.41-9.89,4.84-15.44-.58-5.55-4.16-10.62-10.2-10.44-3.25.1-6.26,1.59-8.54,3.85-.81.8-1.58,1.7-2.28,2.67-.02,0-.04,0-.05,0-.21,0-.42,0-.63-.02-.05.08-.11.16-.16.24-1.31-.06-2.59-.59-3.65-1.43-1.94-1.53-3.02-3.72-3.49-6.12-.51-2.59-.43-5.24-.57-7.86-.15-2.59-.42-5.19-.86-7.75-.85-4.94-2.33-9.86-5.04-14.12-3.06-4.78-7.61-8.12-12.93-10.04-11.91-4.29-25.19-2.9-37.49-1.54-12.37,1.37-25.09,3-37.39.15-5.51-1.28-10.86-3.54-15.46-6.85-.65-.47-1.3-.96-1.93-1.49-1.59,3.43-3.15,6.87-4.59,10.37-1.04,2.52-1.99,5.06-2.91,7.63Z"/>
    <path class="cls-2" d="M1.29,322.38c-.16.66-.39,1.42-.15,2.09.44,1.19,1.68-.59,2.07-1.01l1.87-2.03.04.04c.09.09.17.18.26.28.03.03.06.06.08.09.02.03.05.06.07.09,0,0,0,0,0,0,.04.06.08.12.13.17.13.17.28.3.44.41-.54,1.42-.98,2.87-1.31,4.38-.5,2.31-.76,4.68-.72,7.05.02,1.01.07,2.14.67,3,.53.76,2.12,1.2,2.57.11.1.06.2.13.3.19.15.09.3.18.46.26.07.04.14.07.22.11,0,0,.01,0,.02,0,.19.09.39.15.58.18.07.31.16.61.3.9.6,1.27,2.49,2.41,3.78,1.49.16.07.32.13.48.19.27.1.54.2.8.31.02,0,.03.01.05.02.02,0,.03,0,.05.01h0c.15.05.3.06.44.05.11.39.25.77.47,1.08.74,1.04,1.96.76,2.76-.05,1.22-1.25,1.75-3.45,2.39-5.03l2.29-5.61c.76-1.87,1.52-3.74,2.3-5.6.29-.68.59-1.35.89-2.02.24.08.48.16.71.23h.01c.37.12.75.22,1.14.29-.03,1.05-.12,2.1-.1,3.15.04,1.86.79,4.5,2.91,4.98,2.26.52,3.43-2.25,3.92-3.95.66-2.3.82-4.69,1.14-7.05.29-2.16.74-4.31,1.71-6.29.89-1.81,2.15-3.43,3.57-4.86,3.05-3.06,6.77-5.5,10.35-7.9,3.71-2.5,7.42-5.11,11.37-7.25-.32-3.89-.65-7.78-1-11.67-1-.92-2-1.84-3-2.76-2.88-2.64-5.89-5.21-8.5-8.13-1.8-2-3.27-4.2-4.44-6.54-3.47,3-6.94,5.98-10.23,9.19-4.18,4.07-8.21,8.31-12.05,12.7-3.91,4.46-7.6,9.09-11.07,13.89-3.57,4.94-7.1,10.04-9.4,15.72-.66,1.64-1.22,3.33-1.64,5.05Z"/>
    <path class="cls-2" d="M182.53,213.25c-1.18,1.18-2.35,2.37-3.52,3.56,6.32,7.88,15.14,13.48,23.32,19.25,4.79,3.38,9.54,6.89,13.71,11.03,4.3,4.27,7.82,9.24,10.45,14.69,4.32,8.95,6.32,18.85,6.7,28.76.72-1.11,1.41-2.23,2.07-3.38,2.51-4.37,4.57-9,5.74-13.91,2.03-8.49,1.5-17.35-1.05-25.67-2.54-8.29-7.19-15.98-13.58-21.86-6.74-6.21-15.27-10.32-24.22-12.15-6.59-1.35-13.16-1.34-19.64-.31Z"/>
    <path class="cls-2" d="M286.56,212.09c-2.95,4.86-4.19,10.57-4.82,16.2-.68,5.98-1.15,12.2-.78,18.22.18,2.88.62,5.77,1.59,8.5.95,2.67,2.58,6.14,5.27,7.44.82.39,1.68.5,2.55.46.91-.04,1.82-.23,2.7-.41,1.6-.33,3.18-.75,4.73-1.25,3.15-1,6.19-2.3,9.18-3.71,10.69-5.03,20.91-11.41,29.43-19.66,8.76-8.48,15.24-18.86,18.11-30.76,1.69-7,2.35-14.19,3.12-21.33.73-6.87,1.45-13.74,2.26-20.61-1.38-.1-2.76-.21-4.14-.35-4.65-.46-9.28-1.15-13.76-2.51-3.72-1.13-8.26-2.51-10.68-5.78-1.32-1.79-1.94-3.96-2.14-6.2-1.46,3.42-2.78,6.9-3.98,10.38-2.09,6.09-3.69,12.35-4.78,18.7-.96,5.59-1.31,11.75-5.03,16.35-3.51,4.33-9.12,6.51-13.97,8.92-2.92,1.45-5.85,2.9-8.77,4.36-.38.18-.75.37-1.12.56-1.65.82-3.3,1.67-4.96,2.47Z"/>
    <path class="cls-2" d="M227.72,172.01c1.63-.13,3.25-.15,4.79-.09,6.12.22,12.15,1.67,17.94,3.59,10.03,3.33,19.66,8.3,27.8,15.1,4.23-4.24,8.62-8.34,12.82-12.61,3.08-3.12,5.97-6.42,8.19-10.22,2.18-3.72,3.76-7.78,4.68-11.99,3.18-14.62-2.71-28.82-7.39-42.4-2.12-6.13-3.96-12.34-4.7-18.76-3.95,3.48-7.93,6.93-11.99,10.29-3.33,2.76-6.69,5.52-10.18,8.08-2.74,2.01-5.8,3.84-9.16,4.41-.11.99-.19,1.99-.23,2.99-.1,2.71.03,5.43.28,8.12.27,2.87.68,5.71,1.13,8.55.42,2.66,1.14,5.41,1.25,8.1.11,2.61-1.47,3.85-3.54,5.06-2.26,1.33-4.5,2.67-6.72,4.06-4.54,2.84-8.98,5.83-13.33,8.94-3.95,2.83-7.83,5.75-11.64,8.77Z"/>
    <path class="cls-24" d="M93.3,320.73c4.14-4.81,9.98-7.93,16.43-7.52,6.74.43,12.92,3.44,19.31,5.33,6.8,2.01,13.76,3.32,20.8,4.05,6.72.7,13.51,1.06,20.13,2.51,6.52,1.43,12.84,4.04,17.91,8.47,4.26,3.72,7.54,8.63,9.34,13.99,1.83,5.44,1.99,11.41.46,16.94-.78,2.84-1.96,5.61-3.46,8.14-1.51,2.54-3.23,5.09-5.26,7.25-8.55,9.08-20.84,12.95-33.09,12.87-7.09-.05-13.99-1.27-20.67-3.31-9.9-2.08-19.74-5.64-28.1-11.18-9.63-6.37-17.11-15.52-19.9-26.86-2.6-10.55-1.16-22.24,6.1-30.68Z"/>
    <path class="cls-24" d="M255.41,458.43c-.62-.15-1.23-.34-1.83-.56-.88-.44-1.71-.95-2.51-1.52-1.09-.97-2.09-2.04-3-3.19-1.72-2.53-3.09-5.28-4.23-8.12-.72-1.99-1.36-4-1.92-6.04-2.21-8.04-3.39-16.33-4.31-24.6-.45-4.29-.83-8.59-1.23-12.89-.35-3.76-.69-7.54-1.24-11.28-.42-2.88-1.07-5.73-1.63-8.58-.68-3.43-1.38-6.85-2.15-10.26-.35-1.54-.71-3.08-1.09-4.62,4.2-5.61,7.89-11.62,11.03-17.87,1.38-2.75,2.7-5.55,3.9-8.41,1.22,2.44,2.36,4.91,3.41,7.44,7.89,19.01,11.13,39.52,12.31,59.96.63,10.87.82,21.86-.81,32.66-.8,5.32-2.05,10.58-3.89,15.64-.27.73-.54,1.48-.83,2.23Z"/>
    <path class="cls-24" d="M35.83,279.75c-4.34,5.81-8.36,11.85-12.47,17.82-4.45,6.47-9.3,12.62-13.28,19.41-1.91,3.26-3.67,6.59-5.29,9.99,0-.02,0-.04.01-.06.33-1.51.78-2.97,1.31-4.38-.16-.11-.31-.24-.44-.41-.04-.05-.09-.11-.13-.17h0s-.05-.07-.07-.1c-.03-.03-.05-.06-.08-.09-.08-.1-.17-.19-.26-.28-.01-.01-.03-.03-.04-.04l-1.87,2.03c-.39.42-1.63,2.19-2.07,1.01-.24-.67-.01-1.43.15-2.09.42-1.72.97-3.41,1.64-5.05,2.3-5.68,5.83-10.78,9.4-15.72,3.47-4.8,7.17-9.44,11.07-13.89,3.85-4.39,7.87-8.62,12.05-12.7,1.29-1.26,2.61-2.48,3.95-3.69.3.88.61,1.75.94,2.62-1.55,1.9-3.04,3.85-4.5,5.81Z"/>
    <path class="cls-24" d="M329.6,186.15c-.72,4.38-1.82,8.69-3.47,12.81-1.08,2.32-2.39,4.46-3.92,6.5-2.59,3.08-5.56,5.78-8.76,8.21-3.43,2.42-7.06,4.56-10.69,6.65-7.03,4.04-14.23,7.76-21.38,11.58.11-1.21.24-2.42.38-3.62.64-5.63,1.87-11.34,4.82-16.2,1.66-.81,3.31-1.65,4.96-2.47.38-.19.75-.37,1.12-.56,2.92-1.45,5.85-2.9,8.77-4.36,4.85-2.41,10.47-4.59,13.97-8.92,3.72-4.6,4.07-10.75,5.03-16.35,1.08-6.35,2.68-12.61,4.78-18.7.57-1.67,1.18-3.35,1.81-5.01,1.15,1.49,2.4,2.9,3.74,4.23-.1,8.75.03,17.51-1.16,26.2Z"/>
    <path class="cls-24" d="M239.36,163.24c4.35-3.11,8.79-6.1,13.33-8.94,2.22-1.39,4.47-2.73,6.72-4.06,2.07-1.21,3.65-2.45,3.54-5.06-.11-2.69-.83-5.44-1.25-8.1-.45-2.84-.86-5.69-1.13-8.55-.13-1.35-.22-2.7-.27-4.05,1.14-.52,2.27-1.06,3.38-1.63.13,1.12.26,2.24.4,3.36.48,3.88,1.05,7.74,1.68,11.6.54,3.3,1.23,6.6,1.66,9.92.2,2.47.16,4.94-.13,7.4-.48,2.63-1.23,5.18-2.23,7.66-1.75,3.77-3.99,7.27-6.53,10.56-1.08,1.32-2.21,2.61-3.36,3.87-1.56-.61-3.14-1.18-4.73-1.7-5.79-1.92-11.82-3.37-17.94-3.59-1.54-.06-3.16-.04-4.79.09,3.81-3.01,7.69-5.94,11.64-8.77Z"/>
    <path class="cls-2" d="M125.88,327.47c2.11.93,3.7,4.44,3.11,6.66-.57,2.14-3.48,2.69-4.69.77-.63-1.01-.67-1.91-.91-3-.23-1.05-.42-2.05-.27-3.18.17-1.33,1.75-1.69,2.77-1.24Z"/>
    <path class="cls-15" d="M95.6,295.68c3.41-4.02,9.29-5.42,14.24-3.78,5.01,1.67,8.64,5.63,10.33,10.59,2.05,6.04.72,12.76-2.34,18.22-.8,1.42-1.86,3.02-3.12,4.49-1.93,2.55-4.42,4.68-7.42,5.28-4.97,1-10.42-2-13.56-5.71-1.65-1.95-2.93-4.08-3.73-6.52-.83-2.54-.86-5.22-.58-7.86.55-5.21,2.79-10.73,6.18-14.74Z"/>
    <path class="cls-15" d="M157.6,320.4c1.74-4.2,4.82-8.02,9.46-9,5.34-1.14,11.34.06,15.67,3.43,1.72,1.34,3.58,3.7,4.43,6.16.62,1.34,1.13,2.74,1.48,4.17.96,3.91,1.01,8.01.07,11.93-1.01,4.2-2.95,8.32-6.34,11.12-3.44,2.84-8.32,4.34-12.76,4.16-2.55-.1-5.14-.65-7.28-2.11-1.96-1.34-3.53-3.14-4.7-5.2-2.06-3.64-2.96-7.86-2.85-12.03.12-4.36,1.14-8.6,2.81-12.62Z"/>
    <path class="cls-7" d="M190.43,205.39c-2.32,2.28-4.63,4.58-6.93,6.89,5.06-.76,10.28-.7,15.25-.03,9.2,1.24,18.1,4.83,25.41,10.6,13.89,10.97,20.84,29.59,18.11,47.02-.85,5.39-2.72,10.51-5.25,15.34-1.16,2.21-2.43,4.38-3.77,6.51.05,2.02.04,4.04-.03,6.05-.39,10.79-2.23,22.67-8.41,31.82,3.4-2.3,6.85-4.53,10.2-6.92.64-.45,1.27-.91,1.9-1.38,5.25-3.91,10.32-8.06,15.17-12.44,9.64-8.7,18.42-18.36,26.2-28.74,2.26-3.01,4.42-6.08,6.5-9.22,1.57-2.35,3.02-4.79,4.59-7.15-2.82-.29-4.7-2.69-6.02-5.01-1.4-2.46-2.24-5.19-2.72-7.98-1.04-6.04-.51-12.3-.06-18.38.49-6.52,1.35-13.25,4.42-19.13.34-.64.7-1.27,1.09-1.88.19-.09.39-.18.58-.26.04-.07.09-.14.13-.21,0,0,0,0,0-.01,1.09-.54,2.18-1.08,3.26-1.62.71-.35,1.42-.7,2.13-1.06-3.8-6.53-8.7-12.21-14.43-17.03-2.72-2.29-5.64-4.39-8.71-6.28-5.17-3.19-10.68-5.8-16.39-7.86-5.64-2.03-11.51-3.66-17.5-4.22-2.82-.26-5.66-.28-8.47.05-12.7,10.13-24.66,21.18-36.25,32.56Z"/>
    <path class="cls-22" d="M248.81,104.96c-.02,2.01.21,4.01.93,5.91,1.41,3.76,4.77,6.03,8.81,5.97.6,0,1.19-.06,1.77-.16,3.8-.61,7.13-2.89,10.16-5.19,3.4-2.58,6.71-5.27,9.99-8.01,3.77-3.14,7.47-6.36,11.17-9.59,5.61-4.92,11.18-9.88,16.85-14.72-12.13,9.28-24.13,18.73-36.33,27.93-3.3,2.49-6.8,5.02-10.97,5.75-3.61.64-7.47-.21-9.92-3.08-1.23-1.44-2.01-3.07-2.46-4.81Z"/>
    <path class="cls-22" d="M331.56,140.72c-.33.98-.61,1.99-.82,3.04-.25,1.3-.44,2.69-.49,4.1-.09,2.61.29,5.26,1.61,7.43,1.07,1.77,2.78,2.9,4.62,3.76,2.11.99,4.32,1.76,6.56,2.41,4.38,1.26,8.9,2.03,13.43,2.45,1.34.13,2.68.23,4.02.32,7.77.53,15.58.57,23.36,1.14,9.1.67,18.19,1.7,27.2,3.22,3.25.55,6.49,1.14,9.73,1.79-23.83-6.69-47.6-13.72-71.96-18.22-4.69-.87-9.83-1.72-13.66-4.8-2.19-1.77-3.36-4.13-3.6-6.65Z"/>
    <path class="cls-14" d="M333.58,135.14c-1.06,2.01-1.52,4.26-.92,6.7,1.2,4.93,6.37,7.08,10.81,8.22,2.65.68,5.35,1.1,8.04,1.62,3.15.6,6.3,1.25,9.43,1.93,6.55,1.43,13.06,3,19.55,4.68,12.86,3.31,25.61,7.01,38.38,10.62,5.64,1.6,11.29,3.17,16.95,4.7,7.28,1.96,14.58,3.84,21.92,5.57,6.38,1.5,12.79,2.86,19.24,4.03,1.65.3,3.29.59,4.95.86,1.43.24,3.92,1.14,4.3-.93.23-1.25-.13-2.67-.31-3.91-.21-1.39-.45-2.77-.73-4.15-4.25-21.11-16.39-39.72-30.84-55.32-1.38-1.49-2.78-2.95-4.21-4.38,0,0-.01-.01-.02-.02-.06.02-.13.03-.21.02-25.16-1.97-50.77-4-75.75.87-11.33,2.21-22.9,5.72-32.93,11.56-2.93,1.71-6.03,4.22-7.67,7.32Z"/>
    <path class="cls-14" d="M250.09,94.05c-.64,2.6-1.03,5.31-.81,7.99.08.97.24,1.94.5,2.89.99,3.65,3.56,6.49,7.4,7.1,4.45.7,8.62-1.48,12.14-3.96,3.71-2.62,7.28-5.46,10.88-8.23,3.63-2.78,7.26-5.58,10.88-8.37,7.25-5.59,14.53-11.13,21.83-16.65,4.33-3.27,8.68-6.52,13.07-9.72,10.43-7.62,21.05-15,31.97-21.92,1.64-1.04,3.29-2.06,4.95-3.07-.9-3.8-1.99-7.47-3.76-10.97-1.79-3.52-4.07-6.78-6.72-9.71-5.8-6.42-13.34-11.19-21.34-14.39-4.78-1.91-9.75-3.3-14.79-4.31-.02.02-.04.04-.06.06-13.33,10.49-25.13,22.95-35.44,36.4-10.32,13.47-19.03,28.18-25.86,43.72-1.87,4.27-3.71,8.6-4.84,13.13Z"/>
    <g>
      <path class="cls-9" d="M205.88,196.91c8.94-8.42,18.09-16.62,27.72-24.24.52.03,1.03.07,1.55.12,2.49.23,4.95.65,7.39,1.21-3.63,3.11-7.2,6.29-10.72,9.52-10.17,9.33-19.92,19.09-29.61,28.91-.11.11-.23.23-.34.34-1.03-.2-2.07-.37-3.12-.51-2.44-.33-4.93-.51-7.43-.52,4.73-5.07,9.52-10.07,14.56-14.82Z"/>
      <path class="cls-9" d="M252.56,176.98s.06.02.08.03c2.92,1.05,5.79,2.26,8.59,3.6-2.21,1.76-4.35,3.6-6.44,5.48-9.26,8.3-18.14,17.02-27.31,25.41-2.84,2.6-5.68,5.18-8.53,7.77-2.4-1.44-4.93-2.68-7.53-3.71,4.4-4.45,8.83-8.87,13.31-13.25,8.98-8.76,18.18-17.3,27.83-25.33Z"/>
      <path class="cls-9" d="M261.96,191.42c2.11-1.87,4.27-3.68,6.51-5.4.36-.28.73-.55,1.09-.82,2.53,1.59,4.96,3.32,7.26,5.19-3.94,3.84-7.92,7.66-11.9,11.47-10.6,10.13-21.28,20.19-31.72,30.49-2.05-2.85-4.41-5.48-7.05-7.82,7.75-7.09,15.46-14.22,23.13-21.4,4.2-3.93,8.37-7.9,12.68-11.71Z"/>
      <path class="cls-9" d="M290.03,204.76c-4.3,3.61-8.59,7.23-12.87,10.87-10.11,8.6-20.11,17.32-29.79,26.4-2.18,2.05-4.35,4.12-6.5,6.21-.79-2.79-1.82-5.51-3.07-8.13,14.94-14.81,30.4-29.08,45.46-43.77,2.48,2.61,4.74,5.42,6.76,8.42Z"/>
      <path class="cls-9" d="M242.53,267.81c.34-3.02.4-6.07.19-9.09,8.84-8.84,18.07-17.29,27.47-25.53,3.8-3.33,7.62-6.63,11.46-9.9-.56,2.99-.87,6.05-1.1,9.06-.08,1.04-.16,2.08-.23,3.13-2.49,2.15-4.97,4.3-7.45,6.46-8.36,7.28-16.69,14.59-25.22,21.67-1.7,1.41-3.41,2.81-5.12,4.2Z"/>
      <path class="cls-9" d="M232.39,307.6c2.74-1.94,5.44-3.94,8.11-5.98,15.93-12.24,30.26-26.33,44.61-40.35.9,1.03,1.97,1.86,3.26,2.25-4.94,5.71-9.3,11.93-13.88,17.93-.66.87-1.33,1.73-2.01,2.59-.09.11-.15.19-.19.24-.07.09-.15.18-.22.27-.34.43-.69.85-1.04,1.27-1.37,1.65-2.77,3.26-4.24,4.82-2.85,3.04-6,5.77-9.1,8.54-6.04,5.39-12.15,10.7-18.51,15.71-1.57,1.23-3.15,2.45-4.74,3.64-.47.35-.94.7-1.41,1.05-.05.04-.1.07-.13.1-.16.12-.32.23-.48.35-.81.58-1.62,1.16-2.44,1.73-.51.35-1.02.7-1.53,1.05,2.03-4.8,3.25-10,3.96-15.22Z"/>
      <path class="cls-9" d="M238.54,282.05c1.16-.89,2.32-1.78,3.47-2.68,13.13-10.24,25.6-21.26,38.16-32.19.1,1.18.24,2.36.44,3.54.13.75.29,1.49.47,2.23-2.76,2.69-5.52,5.39-8.28,8.08-8.43,8.21-16.93,16.36-25.85,24.04-4.46,3.84-9.02,7.57-13.71,11.13.03-1.5.03-3-.01-4.49,1.35-2.12,2.61-4.3,3.77-6.51.54-1.04,1.05-2.08,1.53-3.15Z"/>
    </g>
    <path class="cls-22" d="M100.96,349.83c-.7,2.91-.66,5.95-.28,8.92.64-.11,1.28-.22,1.92-.32,3.04-.48,6.1-.85,9.16-1.1,2.81-.23,5.85-.62,8.62.12,2.42.64,4.12,2.25,5.05,4.56,1.7,4.2,1.61,10.2-2.27,13.2-.76.59-1.61,1.02-2.5,1.34,1.65.62,3.33,1.12,5.05,1.51,3.7.85,8.01,1.59,11.75.57,6.85-1.86,9.51-10.06,7.83-16.37-.83-3.12-2.62-6.07-5.32-7.9-3.25-2.21-7.26-2.25-11.04-2.48-3.7-.22-7.09-.84-10.27-2.85-3.07-1.94-5.85-4.56-9.53-5.26-1.99-.37-4.02-.05-5.58,1.3-1.41,1.23-2.18,2.98-2.61,4.76Z"/>
    <path class="cls-22" d="M67.29,239.05c-3.27.52-6.59.59-9.83-.14,3.15,18.67,4.69,37.54,6.01,56.42.39,5.52.76,11.04,1.14,16.55.85,12.22,1.81,24.44,3.14,36.62.37,3.39.67,6.83,1.13,10.25.36,2.66.82,5.29,1.49,7.86,1.31,5.04,4.37,10.42,9.09,12.97,5.48,2.95,12.07,1.66,17.87.54,2.31-.44,4.62-.89,6.92-1.33,3.98-.77,7.96-1.53,11.94-2.3,2.65-.51,5.58-1.02,7.36-3.27,1.63-2.07,1.92-4.93,1.58-7.46-.36-2.74-1.39-5.68-4.14-6.8-2.59-1.05-5.66-.64-8.38-.44-3.07.23-6.13.58-9.17,1.05-2.96.45-5.92,1.3-8.89,1.58-5.85.55-6.41-6.11-7.17-10.36-2.07-11.61-3.33-23.35-4.21-35.1-.31-4.07-.58-8.15-.83-12.23-1.22-19.8-1.98-39.63-4.33-59.34-.3-2.49-.62-4.97-.95-7.45-1,.4-2.06.72-3.13.84-2.16.71-4.41,1.2-6.64,1.56Z"/>
    <path class="cls-3" d="M81.54,271.77c.6,8.88,1.04,17.77,1.55,26.65.09-.26.19-.52.28-.78.89-2.47,1.86-4.91,2.88-7.32,1.47-3.47,3.11-6.91,4.96-10.21.09-.05.19-.1.28-.15,0,0,0,0,0,0,.09-.05.18-.09.27-.13.09-.05.19-.1.29-.14.08-.04.16-.09.24-.14.42.35.84.69,1.28,1.02,4.15,3.1,8.95,5.32,13.93,6.71,11.84,3.28,24.38,1.89,36.4.53,12.15-1.37,24.75-2.91,36.78.09,5.21,1.3,10.24,3.59,14.03,7.48,3.28,3.36,5.48,7.62,6.88,12.08,1.63,5.17,2.22,10.61,2.42,16,.12,3.07.05,6.37,1.52,9.16,1.07,2.03,3.27,3.64,5.58,3.63.38-.61.81-1.21,1.3-1.79,1.98-2.34,4.59-4.09,7.61-4.75,1.21-.27,2.48-.37,3.72-.27,2.06-3.02,3.72-6.29,4.96-9.85,2.13-6.16,3.13-12.68,3.53-19.16.19-3.02.25-6.06.15-9.1-.29-9.52-2.06-19.04-5.97-27.72-2.56-5.68-6.04-10.9-10.41-15.35-4.18-4.26-8.97-7.84-13.82-11.27-8.33-5.88-17.35-11.54-23.79-19.57-.78-.97-1.51-1.97-2.21-3.01-6.82-10.23-8.05-23.49-3.82-34.97.33-.9.7-1.77,1.09-2.64-.09.08-.19.15-.28.23.15-.28.31-.55.45-.83-2.37.57-4.54,1.91-6.52,3.29-2.21,1.53-4.25,3.29-6.12,5.22-1.5,1.57-2.81,3.23-4,4.98-.12-.04-.24-.07-.36-.11-.03-.01-.06-.02-.09-.03-.09-.03-.17-.06-.26-.09h0c-.18-.06-.36-.13-.54-.2.14-2.72-.06-5.43-.11-8.17-.13-6.85,2.23-13,5.92-18.7,1.82-2.81,3.89-5.46,5.99-8.07-9.65,3.97-17.96,10.59-24.23,18.88-.02.07-.04.15-.07.22-.05-.03-.11-.06-.16-.09-.01,0-.03-.02-.04-.02-.04-.02-.08-.04-.12-.06-.04-.02-.08-.04-.12-.06-.11-.05-.21-.09-.32-.13.78-2.78,1.42-5.59,1.88-8.44,1.42-8.75,1.22-17.73-.51-26.42-.83-4.15-2.03-8.2-3.59-12.12.42,8.7-.04,17.46-1.72,26.01-.89,4.5-2.19,8.94-4.19,13.08-1.83,3.78-4.28,7.2-7.01,10.37-5.35,6.2-11.7,11.48-16.8,17.91-4.96,6.26-8.16,13.67-9.32,21.58-.12.85-.22,1.7-.29,2.55-.01.01-.03.02-.04.04-.14.14-.27.28-.4.4-.02.02-.04.04-.06.05-.1.09-.19.17-.28.25-.05.05-.1.09-.16.13-.06.05-.12.1-.18.14-.96-3.93-1.52-7.95-1.68-11.94-.43-10.96,2.44-21.94,7.89-31.43,2.29-3.99,5.03-7.7,8.18-11.03-3.54,1.95-7.13,3.82-10.47,6.1-4.11,2.8-7.84,6.13-11.14,9.84-6.61,7.42-11.47,16.41-14.06,26.01-.95,3.51-1.59,7.1-1.9,10.72-.34.15-.69.3-1.04.44-.35.14-.7.27-1.05.41-.79-5.98-1.67-11.95-2.52-17.93-3.35,5.75-8.24,10.52-12.5,15.58-4.7,5.59-9.01,11.56-12.04,18.24-4.39,9.67-5.77,21.55-1.18,31.27.84,1.78,1.88,3.49,3.14,5.1,2.6,3.33,5.87,6.09,8.97,8.93,1.02.93,2.05,1.87,3.07,2.8-1.04-11.38-2.25-22.75-3.84-34.06-.43-3.06-.9-6.12-1.39-9.18-.07-.44.32-.62.67-.53.07-.14.2-.26.39-.31,4.03-1.16,8.12-2.09,12.26-2.78,2.03-.34,4.11-.74,6.17-.86,1.22-.07,2.5.29,2.7,1.65.03.21-.13.52-.32.61-.12.06-.24.11-.36.16,2.02,11.7,3,23.57,3.79,35.42Z"/>
    <path class="cls-4" d="M147.56,228.72c0-.25.12-.23.06.39,0,0,0-.02,0-.02,0-.12-.04-.25-.06-.37Z"/>
    <g>
      <path class="cls-19" d="M138.96,237.81c.09.2.17.39.26.59-.24-.54.32.73.39.88,0,0,.05.12.09.2.06.12.23.49.25.54.21.45.44.89.66,1.33.47.9.84,1.8,1.38,2.61.64.96,1.11,1.71,1.36,2.85.23,1.04-.6,2.24-1.78,1.9-.99-.29-1.72-.62-2.49-1.34-.67-.62-1.27-1.15-1.96-1.73-.66-.55-1.26-1.19-1.85-1.81-.3-.31-.59-.62-.88-.94-.14-.16-.29-.32-.43-.48-.18-.22-.36-.44-.54-.67.22.29.17.23-.15-.17-2.27-2.79-4.32-5.74-5.84-9.01-.89-1.91-1.72-3.84-2.42-5.84-.68-1.95-.94-4.12-1.24-6.15-.55-3.76-.65-7.58-.34-11.37.38-4.66,1.15-9.25,2.32-13.77,1.18-4.55,2.8-8.93,4.48-13.32.77-2.01,1.55-4.02,2.33-6.02.19-.5.39-1,.58-1.5.07-.17.13-.34.2-.52,0-.02.02-.04.02-.07.37-.98.74-1.96,1.1-2.95,1.33-3.67,2.64-7.34,3.69-11.1.58-2.09,1.09-4.2,1.5-6.34.42-2.25.63-4.46.92-6.51.28-2,.29-4,.43-6.01.15-2.17.14-4.33-.05-6.49-.05-.6.83-.87,1.12-.34.89,1.62,1.68,3.3,2.35,5.03.72,1.85,1.09,3.75,1.42,5.7.66,3.99.49,7.93.09,11.94-.78,7.87-2.81,15.41-5.12,22.95-1.26,4.13-2.55,8.25-3.66,12.42-1.11,4.16-2.28,8.26-2.96,12.51-.16.99-.3,1.98-.41,2.97,0,.08-.02.18-.04.28,0,.07,0,.17-.02.35-.04.53-.08,1.06-.11,1.6-.1,1.97-.1,3.95.03,5.92.06.88.14,1.75.24,2.62.05.44.11.87.17,1.31.02.14.04.28.06.42.16.82.33,1.64.51,2.46.14.65.25,1.3.35,1.96.04.22.08.43.12.65.76,3.83,1.9,7.67,3.36,11.28.16.4.33.79.5,1.19Z"/>
      <path class="cls-19" d="M88.92,192.09c.38-.73.76-1.47,1.19-2.18.52-.85,1.22-1.48,1.86-2.23,1.12-1.32,1.95-2.9,2.92-4.33,1.95-2.86,4.09-5.59,6.4-8.16,1.15-1.28,2.35-2.52,3.58-3.73.82-.8,2.07.38,1.29,1.23-2.36,2.57-4.57,5.28-6.56,8.15-.99,1.43-1.93,2.89-2.81,4.38-.86,1.46-1.75,2.94-2.09,4.62-.63,3.13-2.4,6.42-2.84,9.35-.26,1.74-.59,3.48-.84,5.22-.13.95-.17,1.24-.22,1.89-.07.87-.1,1.73-.13,2.6-.05,1.69,0,3.38.15,5.07.07.75.17,1.51.29,2.25.02.11.07.39.1.52.08.41.17.82.27,1.23.35,1.47.78,2.93,1.3,4.35.25.69.52,1.37.8,2.04.07.16.25.56.28.64.14.29.28.58.42.87,1.37,2.72,2.93,5.33,4.76,7.76.22.3.45.59.68.88.07.09.14.18.21.27.01.01.02.02.03.04.51.61,1.03,1.21,1.56,1.79,1,1.1,2.05,2.15,3.14,3.17,1.13,1.06,2.3,2.07,3.5,3.04.53.42,1.16,1.1,1.78,1.37-.1-.04-.73-.52-.09-.07.13.09.26.19.39.28.35.24.7.49,1.05.72,2.84,1.91,5.84,3.56,8.93,5,.84.39,1.7.77,2.55,1.14.43.18.86.36,1.29.53.19.07.37.15.56.22.09.03.41.16.52.2,1.65.61,3.32,1.19,5.01,1.72,3.7,1.16,7.47,2.1,11.26,2.9,7.64,1.59,15.38,2.46,23.11,3.45,7.75,1,15.48,2.48,22.44,6.19,5.81,3.09,10.74,7.4,14.83,12.53,3.97,4.97,6.97,10.7,7.9,17.04.1.67.21,1.35.26,2.02.05.8-.27,1.66-.46,2.45-.26,1.05-1.49,1.08-2.08.34-.51-.63-1.12-1.07-1.46-1.84-.28-.63-.59-1.25-.92-1.87-.72-1.32-1.41-2.66-2.17-3.96-1.55-2.67-3.26-5.32-5.18-7.75-.05-.06-.1-.12-.15-.18-.05-.06-.14-.16-.17-.21-.24-.28-.48-.56-.72-.84-.52-.59-1.06-1.17-1.61-1.74-1.07-1.09-2.2-2.13-3.37-3.12-.57-.47-1.15-.94-1.74-1.38-.21-.16-.42-.31-.64-.47-.05-.04-.54-.38-.7-.5-1.3-.9-2.65-1.72-4.04-2.48-1.35-.73-2.73-1.38-4.15-1.96-.15-.06-.29-.12-.44-.18-.19-.07-.24-.13-.23-.15-.31-.11-.71-.18-.88-.24-.99-.33-1.97-.65-2.97-.93-3.87-1.11-7.85-1.78-11.84-2.33-7.88-1.07-15.77-1.87-23.58-3.44-14.58-2.93-28.98-8.28-40.17-18.36-9.8-8.83-16.57-21.05-16.62-34.45-.03-7.24,1.95-14.11,5.22-20.4Z"/>
      <path class="cls-19" d="M182.21,259.25c-4.96-2.21-10.9-6.31-16.04-6.51-6.81-.28-13.02-1.47-18.62-5.55-3.07-2.24-5.64-5.14-7.24-8.6-1.74-3.75-2.69-7.76-2.9-11.89-.41-8.17,1.33-16.33,3.73-24.1,2.45-7.92,5.31-15.71,8.02-23.54,1.48-4.26,2.81-8.66,4.89-12.68,1.04-2.01,2.35-3.82,3.8-5.56.62-.74,1.28-1.23,2-1.78-2.47,1.88-3.7,9.26-4.39,12.15-1.29,5.38-.36,10.66-.7,16.08-.3,4.76-2.9,8.78-4.17,13.3-1.03,3.66-1.95,7.36-2.62,11.1-.32,1.78-.68,3.62-.77,5.42.06-1.1-.01.24-.03.5-.03.45-.06.9-.08,1.35-.33,6.8.22,15.16,5.85,19.82.11.09.22.18.33.27.36.2.7.43,1.04.66-4.84-8.04-5.45-17.99-3.26-27.02,1.5-6.18,4.28-11.98,7.5-17.43,3.3-5.59,7.06-11.18,11.42-16.02-.33,1.04-.63,2.09-.91,3.13-3.15,11.74-2.37,29.24,7.93,37.81,3.3,3.78,6.94,7.26,10.67,10.62,7.51,6.74,15.48,12.98,22.54,20.21,6.69,6.84,12.34,14.62,15.69,23.65,3.56,9.6,4.08,20.09-.08,29.58-.74,1.68-3.51.96-3.49-.82.01-1.12.04-2.25-.22-3.35-.29-1.24-.64-2.47-1.02-3.68-.74-2.37-1.41-4.74-2.41-7.02-1.9-4.29-4.76-8.39-7.98-11.8-7.84-8.3-18.16-13.71-28.47-18.3Z"/>
    </g>
    <path class="cls-20" d="M70.95,241.35c2.27.02,3.82,1.59,4.07,3.77.59,5.05.61,10.19.92,15.27.31,5.02.65,10.04,1.03,15.05.75,10.1,1.55,20.19,2.51,30.27.95,10.01,2.02,20.01,3.21,30,.58,4.86,1.13,9.74,1.85,14.58.06.41.13.83.19,1.24.01.06.02.13.03.16.06.29.11.58.17.87.22,1.1.47,2.19.76,3.26.28,1.01.6,2.01.98,3,.13.33.26.66.4.99.04.09.17.35.22.45.16.31.32.62.5.93.28.5.63.96.92,1.45,0,.02.01.03.02.04.02.02.04.04.07.06.15.13.71.53.44.39.04.02.09.05.13.07-.17-.1.38.09.62.15.02,0,.05,0,.08.01.37.02.73.05,1.1.06,1.14.02,2.28.02,3.41,0,1.51-.41,3.14-.55,4.6-.76,2.03-.3,4.05-.61,6.08-.85,2.24-.26,4.48-.53,6.72-.79,2.33-.27,5.24-.49,7.17,1.11.54.45.72,1.47.32,2.06-1.13,1.71-3.44,2.61-5.38,2.97-.66.12-1.32.24-1.98.36-.8.43-1.71.72-2.54,1.02-2.5.89-5.22,1.32-7.83,1.74-2.5.4-5.01.73-7.52.99-2.91.3-5.83.58-8.55-.73-2.41-1.16-4.07-3.46-5.27-5.78-1.13-2.18-2.02-4.47-2.66-6.84-1.27-4.73-1.76-9.65-2.38-14.49-2.62-20.77-4.74-41.61-6.28-62.5-.44-5.91-.79-11.82-1.12-17.73-.16-2.89-.31-5.78-.45-8.67-.15-3.02-.41-6.06-.34-9.08.05-2.05,1.56-4.09,3.77-4.07Z"/>
    <path class="cls-22" d="M57.31,237.58c4.03-1.16,8.12-2.09,12.26-2.78,2.03-.34,4.11-.74,6.16-.86,1.22-.07,2.5.29,2.7,1.65.03.21-.13.52-.32.61-1.31.61-2.73,1.14-4.18,1.3-2.16.71-4.41,1.2-6.64,1.56-3.31.53-6.66.59-9.94-.17-.64-.15-.69-1.12-.04-1.3Z"/>
    <path class="cls-20" d="M106.95,344c.83-.04,1.55,0,2.3.41.77.42,1.47.97,2.23,1.43,1.46.88,2.97,1.66,4.53,2.36,3.06,1.36,6.3,2.31,9.59,2.86,3.36.56,6.94.27,10.2,1.27,3.13.95,5.9,3.14,7.58,5.95,1.91,3.2,2.67,7.19,2.71,10.88,0,.71-.99,1.09-1.38.42-2.7-4.73-4.8-11.83-10.89-13.13-1.55-.33-3.13-.34-4.71-.47-1.71-.14-3.41-.4-5.08-.75-3.26-.7-6.46-1.79-9.47-3.22-1.65-.78-3.26-1.67-4.79-2.67-.77-.5-1.53-1.03-2.27-1.58-.89-.66-1.28-1.36-1.5-2.43-.13-.65.23-1.29.94-1.33Z"/>
    <path class="cls-3" d="M102.61,206.71c1.05-3.2,2.43-6.28,4.02-9.24,3.28-6.11,7.39-11.74,11.37-17.4,4.01-5.7,7.99-11.49,10.97-17.81,3.23-6.86,4.93-14.32,5.28-21.89.2-4.32-.06-8.62-.55-12.91-.25-2.21-.56-4.4-.96-6.59-.39-2.09-1.08-4.19-1.13-6.32,0-.39.55-.6.75-.23.91,1.65,1.25,3.53,1.68,5.36.44,1.87.81,3.74,1.13,5.63.65,3.82.95,7.7.97,11.57.04,7.62-1.12,15.26-3.86,22.39-5.08,13.26-14.95,23.81-22.03,35.94-3.9,6.67-6.59,13.88-7.92,21.5-.11.62-1.07.51-1.09-.1-.13-3.44.29-6.64,1.36-9.91Z"/>
    <path class="cls-21" d="M123.89,325.77c2.92-1.65,7.84-.38,9.61,2.47.04.07-.02.18-.11.15-2.66-.94-5.64-3-8.55-1.59-1.48.72-2,2.33-1.83,3.89.18,1.65,1.15,3.03,1.41,4.64.04.24-.28.32-.43.2-2.7-2.29-3.63-7.76-.11-9.75Z"/>
    <path class="cls-21" d="M200.27,358.51c2.42,5.27,7.9,7.68,13.53,6.76,5.56-.91,10.54-4.44,13.98-8.8,3.41-4.33,5.41-9.89,4.84-15.43-.57-5.55-4.16-10.62-10.2-10.44-3.25.1-6.26,1.59-8.54,3.85-2.31,2.28-4.3,5.39-5.39,8.44-.02.06-.11.04-.09-.02.92-3.08,1.91-5.92,4.02-8.41,1.98-2.34,4.59-4.09,7.61-4.75,2.8-.61,5.87-.34,8.33,1.21,2.44,1.54,4.03,4.1,4.84,6.82,3.58,11.99-5.86,25.12-17.38,28.22-6.06,1.63-14.38-.31-16.47-7.03-.17-.54.68-.97.93-.42Z"/>
    <path class="cls-21" d="M213.55,351.53c.85-.98,1.75-1.93,2.69-2.83,1.79-1.71,3.69-3.22,5.88-4.34.08-.04.19.06.11.13-1.79,1.57-3.67,3.1-5.4,4.77-.84.82-1.66,1.67-2.43,2.56-.73.84-1.36,1.89-2.27,2.53-.18.12-.47-.07-.39-.28.34-.99,1.13-1.78,1.8-2.55Z"/>
    <path class="cls-21" d="M216.49,350.43c.78.12,1.38.8,1.74,1.46.11.2-.16.36-.3.18-.44-.58-1.05-.91-1.61-1.34-.15-.12,0-.33.17-.31Z"/>
    <path class="cls-21" d="M104.37,379.39c1.49,1.17,3.03,2.27,4.62,3.29,3.33,2.13,6.86,3.93,10.52,5.43,7.52,3.07,15.59,4.81,23.67,5.52,8.25.72,16.7.45,24.87-.97,8.36-1.46,16.16-4.59,22.66-10.13,3.42-2.91,6.44-6.26,9.2-9.79,1.41-1.81,2.74-3.67,4.05-5.55.52-.75,1.02-1.52,1.52-2.28.24.07.49.13.75.16-.47.74-.96,1.46-1.44,2.18-1.11,1.68-2.27,3.31-3.48,4.92-2.49,3.32-5.2,6.49-8.23,9.33-6.19,5.81-13.55,9.71-21.83,11.63-8.21,1.9-16.83,2.44-25.23,2.01-8.26-.42-16.48-1.89-24.27-4.7-4.26-1.54-8.39-3.46-12.27-5.82-1.96-1.19-3.84-2.49-5.65-3.9-.41-.32-.82-.64-1.22-.97.59-.09,1.17-.19,1.74-.35Z"/>
    <path class="cls-21" d="M216.67,365.16c.7,1.18,1.35,2.39,1.98,3.59,1.49,2.84,2.78,5.79,3.9,8.8,2.33,6.24,3.93,12.73,5.07,19.28,1.14,6.54,1.91,13.2,2.21,19.84.29,6.57-.22,13.71-4.46,19.07-1.2,1.51-2.69,2.82-3.58,4.56-.74,1.45-.89,3.6.37,4.84,1.52,1.5,4.36.3,5.94-.56,1.66-.9,3.12-2.13,4.33-3.58.05-.06.1-.1.15-.13-.02.71-.12,1.43-.24,2.15-1.97,1.87-4.49,3.24-7.16,3.73-2.82.51-4.9-1.3-4.87-4.15.04-3.27,2.83-5.37,4.64-7.77,2.29-3.02,3.38-6.75,3.81-10.47.44-3.76.25-7.57-.05-11.33-.27-3.45-.62-6.89-1.07-10.32-.92-6.99-2.25-13.93-4.35-20.67-1.16-3.73-2.55-7.39-4.23-10.93-.94-1.98-2.01-3.86-3.1-5.74.24-.07.47-.14.7-.23Z"/>
    <path class="cls-21" d="M27.39,320.86s.06.1.08.16c.56,2.04.15,4.14.19,6.21.04,1.86.79,4.5,2.91,4.98,2.26.52,3.43-2.25,3.92-3.95.66-2.3.82-4.69,1.14-7.05.29-2.16.74-4.31,1.71-6.29.89-1.81,2.15-3.43,3.57-4.86,3.05-3.07,6.77-5.5,10.35-7.9,3.78-2.54,7.57-5.22,11.6-7.38.02.19.04.38.07.57-3.52,2.46-7.21,4.7-10.71,7.21-3.86,2.77-8.02,5.48-11.2,9.05-1.65,1.85-2.9,3.97-3.53,6.37-.66,2.5-.76,5.1-1.15,7.65-.45,2.99-1.95,9.11-6.32,7.74-1.94-.6-3.16-2.68-3.5-4.58-.35-1.89-.08-3.83-.1-5.75.36-.72.69-1.46.98-2.21Z"/>
    <path class="cls-21" d="M15.03,327.19c.56-1.92,1.13-3.85,2.33-5.46.18-.24.5.01.46.25-.34,2.02-1.21,3.91-1.77,5.87-.53,1.84-.94,3.72-1.24,5.62-.3,1.93-.53,3.91-.28,5.87.1.8.24,1.84.73,2.53.74,1.04,1.96.76,2.76-.05,1.22-1.25,1.75-3.45,2.39-5.03.76-1.87,1.52-3.74,2.29-5.61.76-1.87,1.52-3.74,2.3-5.6.81-1.92,1.72-3.79,2.57-5.69.09-.19.43-.07.35.14-.62,1.73-1.17,3.48-1.83,5.21-.67,1.76-1.36,3.51-2.05,5.26-1.39,3.51-2.6,7.19-4.22,10.6-.54,1.14-1.37,2.17-2.64,2.51-1.14.31-2.27-.16-2.9-1.14-1.61-2.5-1.06-6.31-.64-9.06.32-2.1.78-4.18,1.38-6.22Z"/>
    <path class="cls-21" d="M.77,320.25c.46-1.54,1.04-3.04,1.69-4.51,1.35-3.05,3.04-5.94,4.87-8.73,7.08-10.77,15.62-20.86,24.88-29.83,4.36-4.22,8.89-8.45,13.72-12.19.06.15.12.29.18.44-3.61,3.13-7.24,6.23-10.67,9.57-4.18,4.07-8.21,8.31-12.05,12.7-3.91,4.46-7.6,9.09-11.07,13.89-3.57,4.94-7.1,10.04-9.4,15.72-.67,1.64-1.22,3.33-1.64,5.05-.16.66-.39,1.42-.15,2.09.44,1.19,1.68-.59,2.07-1.01l3.37-3.65c-.06.13-.12.25-.18.38-.33.74-.6,1.49-.85,2.26l-1.17,1.27c-.7.76-1.64,2.29-2.84,2.25-.94-.03-1.41-.87-1.52-1.72-.17-1.32.36-2.75.74-4Z"/>
    <path class="cls-21" d="M10.24,313.89c.06-.06.18.01.13.09-2.42,4.1-4.55,8.24-5.57,12.92-.5,2.31-.76,4.68-.72,7.04.02,1.01.07,2.14.67,3,.54.78,2.21,1.23,2.6.04.23-.69,1.31-.46,1.12.26-.51,1.9-3.05,2-4.28.74-1.76-1.8-1.26-5.23-1.03-7.48.6-5.95,2.82-12.31,7.08-16.62Z"/>
    <path class="cls-21" d="M9.9,327.37c.91-2.65,1.92-5.64,3.76-7.79.12-.14.37,0,.32.17-.66,2.16-1.73,4.21-2.49,6.34-.79,2.23-1.47,4.49-2.08,6.78-.49,1.85-1.07,4.01-.22,5.84.63,1.34,2.69,2.53,3.98,1.33.65-.61,1.66.36,1,.95-1.37,1.24-3.27,1.05-4.7,0-1.73-1.27-2.06-3.43-1.81-5.44.35-2.77,1.33-5.55,2.23-8.18Z"/>
    <path class="cls-21" d="M83.37,297.65c.89-2.47,1.86-4.91,2.88-7.32,1.55-3.65,3.28-7.27,5.25-10.74.18.16.36.32.52.5-1.63,3.5-3.22,7.02-4.7,10.6-1.04,2.52-1.99,5.06-2.91,7.63-.61,1.7-1.15,3.43-1.79,5.12,0-1.09-.04-2.19-.14-3.27.28-.84.58-1.68.88-2.51Z"/>
    <path class="cls-21" d="M83.9,269.17c2.55,4.43,5.55,8.32,9.67,11.4,4.15,3.1,8.95,5.32,13.93,6.71,11.84,3.28,24.38,1.89,36.4.53,12.14-1.37,24.75-2.91,36.78.09,5.21,1.3,10.24,3.59,14.03,7.47,3.28,3.36,5.48,7.62,6.88,12.08,1.63,5.17,2.22,10.61,2.42,16,.12,3.07.05,6.37,1.52,9.16,1.13,2.16,3.55,3.84,6.01,3.6-.29.35-.56.72-.81,1.1-1.31-.06-2.59-.59-3.65-1.43-1.94-1.53-3.02-3.72-3.49-6.12-.51-2.59-.43-5.24-.58-7.86-.15-2.59-.42-5.19-.86-7.75-.85-4.94-2.33-9.86-5.04-14.12-3.06-4.78-7.61-8.12-12.92-10.04-11.91-4.29-25.19-2.9-37.49-1.54-12.37,1.37-25.09,3-37.39.15-5.51-1.28-10.86-3.54-15.46-6.85-4.34-3.12-8.45-7.36-10.24-12.5-.06-.17.19-.28.28-.13Z"/>
    <path class="cls-21" d="M56.04,218.1c5.31-6.69,11.81-12.44,15.83-20.07.24-.46.84-.23.91.21.88,6.14,1.73,12.28,2.66,18.41,1.59-17.97,11.04-35.07,25.5-45.92,5.31-3.98,11.35-6.71,16.99-10.16.59-.36,1.35.48.8.98-8.24,7.34-14.38,16.92-17.45,27.53-2.94,10.18-2.95,21.1-.19,31.32,1.55,5.75,4,11.17,7.05,16.27.09.14-.12.27-.22.13-6.11-8.75-9.36-19.55-9.78-30.17-.44-10.96,2.44-21.94,7.89-31.43,2.29-3.99,5.03-7.7,8.18-11.04-3.54,1.95-7.13,3.82-10.47,6.1-4.11,2.8-7.84,6.13-11.14,9.84-6.61,7.42-11.46,16.41-14.06,26.01-1.47,5.44-2.19,11.05-2.13,16.68,0,.78-1.1.8-1.2.05-.95-7.71-2.08-15.4-3.18-23.09-3.35,5.75-8.24,10.52-12.5,15.58-4.7,5.59-9.01,11.56-12.04,18.24-5.19,11.45-6.17,25.98,1.96,36.37,2.6,3.33,5.87,6.09,8.97,8.94,1.1,1.01,2.2,2.01,3.3,3.01.03.52.07,1.04.12,1.56-1.07-.98-2.14-1.97-3.22-2.96-2.88-2.64-5.89-5.21-8.5-8.13-4.21-4.69-6.69-10.46-7.46-16.7-1.72-13.96,4.94-26.93,13.38-37.57Z"/>
    <path class="cls-21" d="M161.23,189.79c3.32-5.67,7.76-10.63,13.03-14.56.32-.24.68.19.52.5-5.74,11.58-5.57,25.87,1.3,36.95,6.3,10.15,16.7,16.64,26.25,23.38,4.79,3.38,9.54,6.89,13.71,11.04,4.3,4.27,7.82,9.24,10.45,14.69,5.36,11.12,7.15,23.72,6.71,35.97-.39,10.89-2.27,22.88-8.58,32.07-.33-.1-.67-.16-1.01-.2,2.12-3.07,3.82-6.4,5.08-10.03,2.13-6.16,3.13-12.68,3.53-19.16.78-12.45-.66-25.36-5.81-36.82-2.56-5.68-6.04-10.9-10.41-15.35-4.17-4.26-8.97-7.84-13.82-11.27-9.33-6.59-19.53-12.89-25.99-22.58-6.82-10.23-8.05-23.49-3.82-34.97.33-.89.69-1.77,1.09-2.64-4.69,3.73-8.65,8.33-11.69,13.5-3.27,5.58-5.2,11.67-6.51,17.97-.01.07-.13.06-.13-.01.41-6.51,2.82-12.86,6.1-18.45Z"/>
    <path class="cls-21" d="M101.22,215.01c-.3,2.06-.45,4.13-.47,6.19-.29-1.07-.59-2.13-.88-3.2.61-7.4,2.97-14.68,6.82-20.82,4.35-6.93,10.55-12.4,16.2-18.23,2.94-3.03,5.78-6.2,8.1-9.74,2.59-3.94,4.39-8.3,5.63-12.84,2.84-10.43,3.5-21.74,2.75-32.5-.03-.46.58-.49.74-.13,7.21,16.31,8.04,35.33,2.32,52.23-1.6,4.73-3.62,9.39-6.45,13.52-.07.1-.23.02-.17-.09,2-4.02,3.95-8.07,5.41-12.32,1.39-4.06,2.45-8.24,3.14-12.48,1.42-8.76,1.22-17.73-.51-26.42-.83-4.15-2.03-8.2-3.59-12.12.42,8.7-.04,17.46-1.72,26.01-.89,4.5-2.19,8.94-4.19,13.08-1.82,3.78-4.28,7.2-7.01,10.37-5.35,6.2-11.7,11.48-16.8,17.91-4.96,6.26-8.16,13.67-9.32,21.59Z"/>
    <path class="cls-21" d="M142.11,174.82c.12-.37.23-.75.34-1.13,6.35-9.42,15.73-16.69,26.32-20.78.43-.17.67.4.43.7-4.33,5.41-8.83,11.06-11.15,17.68-1.18,3.36-1.59,6.79-1.49,10.34.1,3.34.33,6.65-.12,9.98-.51,3.86-1.81,7.54-3.76,10.9-.11.18-.37.03-.29-.16,1.51-3.29,2.55-6.78,3.09-10.36.55-3.65.23-7.26.16-10.92-.13-6.85,2.23-13,5.92-18.7,1.82-2.81,3.89-5.46,5.99-8.07-10.28,4.23-19.05,11.47-25.44,20.52Z"/>
    <path class="cls-21" d="M156.29,189.17c1.35-1.87,2.87-3.62,4.44-5.2,1.89-1.9,3.97-3.62,6.2-5.12,2.23-1.5,4.59-2.93,7.34-3.01.11,0,.15.17.03.19-2.64.46-5.03,1.92-7.19,3.43-2.21,1.53-4.26,3.29-6.12,5.22-1.83,1.91-3.37,3.96-4.76,6.12.04-.54.06-1.09.06-1.65Z"/>
    <path class="cls-6" d="M176.16,301.59c1.12-.81,2.66-.36,3.86.03,1.42.46,2.78,1.11,4.01,1.98,2.08,1.47,4.51,3.92,4.65,6.62.01.23-.29.37-.45.2-.87-.86-1.51-1.88-2.34-2.78-.9-.98-1.92-1.83-3.04-2.54-1.07-.68-2.22-1.22-3.43-1.58-1.12-.32-2.42-.35-3.33-1.17-.25-.22-.17-.59.08-.77Z"/>
    <path class="cls-13" d="M162.42,323.31c2.37-1.75,5.61-2.5,8.5-1.81,3.18.77,5.39,3.34,6.69,6.23,3.61,8-1.21,24.06-12.66,20.25-2.98-.99-5.18-3.27-6.45-6.11-2.67-5.99-1.6-14.49,3.92-18.56Z"/>
    <path class="cls-13" d="M95.92,311.27c1.31-3.02,3.52-5.68,6.54-7.09,2.78-1.3,5.96-1.33,8.69.15,2.7,1.48,4.71,4.18,5.48,7.15,1.34,5.18-.65,11.76-4.91,15.06-6.07,4.7-15.15,2.59-17.26-5.14-.88-3.23.17-7.15,1.46-10.13Z"/>
    <path class="cls-21" d="M235.25,323c11.69,14.71,18.52,33.2,22.33,51.39,2.23,10.64,3.48,21.46,4.15,32.3.7,11.2.94,22.53-.69,33.66-.91,6.23-2.43,12.38-4.78,18.23-.96,2.4-2.14,4.94-4.31,6.49-1.84,1.32-4.3,1.74-6.34.67-.62-.32-.09-1.28.52-.95,2.24,1.23,4.88.19,6.51-1.57,1.79-1.93,2.72-4.61,3.61-7.03,1.84-5.06,3.09-10.32,3.89-15.64,1.62-10.8,1.44-21.79.81-32.66-1.18-20.45-4.42-40.95-12.31-59.96-3.63-8.74-8.31-16.93-13.83-24.57.15-.12.3-.24.45-.37Z"/>
    <path class="cls-21" d="M232.17,437.95c1.72,6.43-.23,13.3-.81,19.77-.13,1.48-.45,3.27-.06,4.72.24.89.86,1.47,1.78.97.7-.38,1.21-1.27,1.64-1.9,1.94-2.81,3.42-5.92,4.37-9.2.54-1.88.92-3.8,1.11-5.74.18-1.85.03-3.73.3-5.56.04-.28.46-.27.54-.02.55,1.8.39,3.76.21,5.61-.17,1.83-.5,3.65-.97,5.42-.99,3.68-2.6,7.22-4.82,10.31-.72,1.01-1.66,2.36-3.06,2.34-1.24-.02-1.9-1.11-2.12-2.2-.34-1.65-.03-3.5.13-5.16.19-1.9.45-3.78.71-5.67.62-4.55.99-9.04.7-13.63-.01-.21.31-.27.36-.06Z"/>
    <path class="cls-21" d="M234.59,462.21c.25.52.5,1.03.97,1.46.72.66,1.68,1.1,2.66,1.17,2.34.16,3.86-1.89,4.8-3.76,1.18-2.37,2.09-4.9,2.92-7.41.89-2.7,1.47-5.49,2.4-8.17.06-.16.35-.17.33.03-.2,3.3-1.28,6.6-2.35,9.71-.95,2.75-1.91,5.81-3.65,8.18-1.29,1.75-3.24,2.82-5.43,2.31-1.18-.28-2.7-1.18-3.44-2.38.29-.36.57-.73.81-1.13Z"/>
    <path class="cls-21" d="M241.67,463.79c.81.69,1.68,1.16,2.93,1.09,1.96-.11,3.55-1.46,4.58-3.05,2.26-3.51,2.62-7.92,4.7-11.51.05-.08.16-.03.15.06-.36,2.67-1.49,5.32-2.37,7.85-.74,2.12-1.62,4.2-3.22,5.82-1.28,1.29-3.05,2.21-4.9,2.04-.99-.09-2.12-.51-2.87-1.25.37-.32.7-.68,1.01-1.06Z"/>
    <path class="cls-21" d="M236.89,321.27c5.25-3.91,10.32-8.06,15.17-12.44,9.63-8.7,18.42-18.36,26.2-28.75,2.26-3.01,4.42-6.08,6.5-9.22,1.64-2.48,3.17-5.04,4.83-7.51.24,0,.48,0,.72-.03-1.27,2.42-2.79,4.73-4.28,7.01-1.79,2.73-3.64,5.41-5.56,8.05-3.82,5.26-7.89,10.33-12.19,15.2-8.7,9.84-18.35,18.87-28.79,26.84-4.46,3.4-9.06,6.87-13.93,9.78-.35-.18-.71-.32-1.09-.42,4.15-2.82,8.38-5.52,12.41-8.52Z"/>
    <path class="cls-21" d="M186.83,207.68c7.55-7.49,15.24-14.85,23.17-21.92,7.89-7.03,16.03-13.79,24.5-20.09,4.24-3.16,8.57-6.2,12.98-9.1,2.24-1.47,4.5-2.91,6.78-4.3,1.12-.68,2.24-1.36,3.37-2.02,1.13-.66,2.43-1.23,3.4-2.13,1.38-1.29,1.09-3.12.83-4.81-.23-1.55-.48-3.09-.72-4.63-.48-3.1-.96-6.2-1.27-9.33-.31-3.09-.46-6.19-.29-9.29.05-.96.12-1.92.23-2.88.25-.04.5-.08.74-.16-.13,1.13-.24,2.25-.28,3.39-.1,2.71.03,5.43.28,8.13.27,2.86.68,5.71,1.13,8.55.42,2.66,1.14,5.41,1.25,8.1.11,2.61-1.47,3.85-3.54,5.06-2.26,1.32-4.5,2.67-6.72,4.06-4.54,2.84-8.98,5.83-13.33,8.94-17.54,12.54-33.57,27.06-48.93,42.15-4.01,3.94-7.99,7.93-11.94,11.94-.06-.09-.12-.19-.19-.28-.1-.16-.21-.32-.32-.48,2.93-2.98,5.88-5.94,8.85-8.89Z"/>
    <path class="cls-21" d="M299.26,167.79c2.18-3.72,3.76-7.78,4.68-11.99,3.18-14.62-2.71-28.82-7.39-42.4-2.18-6.32-4.07-12.71-4.76-19.33.12-.1.23-.2.35-.3,2.12,13.24,8.25,25.52,11.6,38.45,1.8,6.97,2.72,14.22,1.61,21.39-1.31,8.44-5.26,16.06-10.97,22.36-3.49,3.85-7.31,7.41-11,11.06-1.54,1.52-3.07,3.05-4.61,4.57-.26-.24-.53-.46-.82-.67,4.32-4.35,8.82-8.54,13.12-12.91,3.08-3.12,5.97-6.42,8.19-10.22Z"/>
    <path class="cls-21" d="M286.78,210.87s0,0,0-.01c1.08-.54,2.18-1.08,3.26-1.62,2.92-1.45,5.83-2.9,8.75-4.35,2.79-1.39,5.6-2.73,8.35-4.18,2.37-1.25,4.73-2.66,6.62-4.59,4.28-4.39,4.69-10.75,5.66-16.48,1.05-6.15,2.58-12.22,4.57-18.13,1.1-3.25,2.33-6.45,3.72-9.58.62-1.39,1.28-2.74,1.97-4.07-.03.5-.06,1-.08,1.5-1.63,3.74-3.11,7.57-4.42,11.4-2.09,6.09-3.69,12.35-4.78,18.7-.96,5.59-1.31,11.75-5.03,16.35-3.51,4.33-9.12,6.51-13.98,8.92-3.3,1.64-6.59,3.27-9.89,4.91-1.91.95-3.81,1.93-5.74,2.84.33-.53.65-1.06.99-1.59Z"/>
    <path class="cls-21" d="M284.98,213.22c.73-1.39,1.58-2.7,2.54-3.95.32-.41.91.15.59.56-4.09,5.3-5.63,11.93-6.37,18.46-.68,5.99-1.15,12.2-.78,18.22.18,2.88.62,5.77,1.59,8.5.95,2.67,2.58,6.14,5.27,7.44,1.66.8,3.52.41,5.25.06,1.6-.33,3.18-.75,4.73-1.25,3.15-1.01,6.19-2.3,9.18-3.71,10.69-5.03,20.91-11.41,29.43-19.66,8.76-8.48,15.24-18.86,18.11-30.76,1.69-7,2.36-14.19,3.12-21.33.76-7.08,1.49-14.16,2.34-21.23.17,0,.33,0,.5,0-.48,5.59-1.07,11.18-1.64,16.76-.77,7.6-1.37,15.25-2.84,22.75-1.28,6.53-3.4,12.83-6.67,18.64-2.92,5.2-6.61,9.94-10.78,14.2-8.59,8.78-19.11,15.56-30.15,20.85-2.97,1.42-5.99,2.77-9.1,3.85-1.66.58-3.35,1.08-5.06,1.47-1.48.34-3.08.73-4.6.65-2.97-.16-4.92-2.64-6.28-5.03-1.4-2.47-2.24-5.19-2.72-7.98-1.04-6.04-.51-12.3-.06-18.38.49-6.52,1.35-13.25,4.42-19.13Z"/>
    <path class="cls-21" d="M226.63,172.1c2-.22,4-.26,5.88-.19,6.12.22,12.15,1.67,17.94,3.59,11.56,3.83,22.58,9.85,31.39,18.32,4.4,4.23,8.29,9.1,11.17,14.49-.19.11-.38.22-.57.34-5.62-9.85-13.74-17.82-23.41-23.79-5.17-3.19-10.68-5.8-16.39-7.86-5.64-2.03-11.51-3.66-17.5-4.22-3.22-.3-6.49-.28-9.69.22-.04,0-.08.01-.12.02.43-.31.86-.61,1.29-.92Z"/>
    <path class="cls-21" d="M182.6,212.42c5.34-.9,10.88-.88,16.15-.17,9.2,1.24,18.1,4.83,25.41,10.6,13.89,10.97,20.84,29.59,18.11,47.02-.85,5.39-2.72,10.51-5.25,15.34-1.31,2.49-2.74,4.92-4.28,7.3,0-.39,0-.78-.03-1.18.89-1.36,1.76-2.75,2.58-4.16,2.51-4.37,4.57-9,5.74-13.91,2.03-8.49,1.5-17.35-1.05-25.67-2.54-8.29-7.19-15.98-13.58-21.86-6.74-6.21-15.27-10.32-24.22-12.15-6.91-1.41-13.8-1.34-20.58-.16.34-.33.68-.65,1.01-.99Z"/>
    <g>
      <path class="cls-12" d="M46.12,214.22c1.71,2.96,5.56,5.56,8.94,5.95,3.38.39,6.71-1.67,6.75-5.3.05-5.29-6.63-9.73-11.55-8.63-3.59.8-6.13,4.51-4.14,7.97Z"/>
      <path class="cls-12" d="M184.48,71.34c-1.58,2.56-1.76,7.03,1.01,8.92,1.49,1.02,3.29.31,4.37-.97,2.07-2.46,3.03-9.82-1.37-10.72-1.61-.33-3.27,1.58-4.01,2.77Z"/>
      <path class="cls-12" d="M190.42,104.97c-3.13,6.33-2.34,13.83.34,20.17,1.33,3.14,3.28,6.61,6.5,8.14,3.08,1.46,6.14.04,8.18-2.4,5.79-6.92,8.03-25.29,1.15-32.2-5.78-5.81-13.4.68-16.17,6.29Z"/>
      <path class="cls-12" d="M91.36,83.72c-2.39.71-3.62,3.27-2.51,5.55,1.06,2.19,4.07,2.85,6.05,1.51,3.92-2.66,1.13-8.45-3.54-7.07Z"/>
      <path class="cls-12" d="M51.11,128.63c-2.55-3.16-7.23-1.06-7.21,2.92.01,2.55,2.32,5.01,4.99,4.64,3.46-.49,4.19-5.11,2.22-7.56Z"/>
      <path class="cls-12" d="M79.52,111.68c-4.13,1.11-7.11,4.28-7.96,8.48-.91,4.52.64,9,3.25,12.67,2.66,3.74,6.36,6.94,10.2,9.42,3.98,2.56,8.67,4.48,13.48,4.27,3.86-.17,7.95-1.76,10.58-4.66,2.82-3.11,3.48-7.34,2.32-11.3-2.54-8.72-12-15.95-20.53-18.36-3.67-1.04-7.63-1.51-11.34-.51Z"/>
      <path class="cls-12" d="M21.36,162.79c-1.31,4.07.08,8.68,1.73,12.45,3.29,7.54,10.19,14.85,18.42,16.79,4.14.97,8.98.14,11.72-3.37,2.52-3.23,3.16-8.01,2.94-11.99-.53-9.18-6.27-17.65-15.01-21.15-3.83-1.53-8.04-1.83-11.93-.36-3.48,1.31-6.7,4.01-7.86,7.63Z"/>
      <path class="cls-11" d="M203.32,100.57c3.31,1.51,4.73,6.07,3.07,9.22-.13.25-.29.48-.46.68-.23.88-.6,1.7-1.09,2.4-.73,1.04-1.63,1.79-2.97,1.84-1.24.05-2.5-.59-3.14-1.67-.74-1.24-1.39-2.63-1.68-4.05-.16-.79-.29-1.6-.29-2.41,0-.35.02-.69.05-1.03.04-.37.07-.74.11-1.12,0-.06.01-.12.02-.17.32-3.23,3.31-5.09,6.38-3.69Z"/>
      <path class="cls-11" d="M199.98,117.56c.2-.3.38-.56.63-.81.71-.71,1.71-1.04,2.69-.8.99.23,1.74.97,2.06,1.92.11.33.16.65.2,1.01.02.55-.1,1.06-.36,1.54-.25.46-.6.83-1.04,1.1l-.69.32c-.51.16-1.03.17-1.55.05-.4-.08-.75-.25-1.06-.51-.33-.2-.6-.47-.79-.82-.27-.45-.42-.93-.44-1.45-.02-.55.1-1.06.36-1.54Z"/>
      <path class="cls-11" d="M188.03,69.42c3.44.81,2.19,6.15-1.25,5.34-3.44-.81-2.19-6.15,1.25-5.34Z"/>
      <path class="cls-11" d="M93.22,117.62c2.21-.19,4.3,1.1,5.98,2.36.59.44,1.11.91,1.59,1.47,1.19,1.39,1.67,2.57,1.93,4.38.25,1.83-1.21,3.71-2.76,4.41-.52.23-1.02.36-1.52.4-.29.11-.59.21-.9.27-2.46.51-4.74-.31-6.55-2.01-1.46-1.37-2.88-3.25-2.96-5.34-.12-3.11,2.08-5.67,5.2-5.94Z"/>
      <path class="cls-11" d="M101.43,131.28c.22-.39.51-.7.89-.94.2-.09.39-.18.59-.27.44-.13.88-.15,1.32-.04.34.07.64.21.9.44.28.17.51.4.67.7.19.28.3.58.32.91.09.33.08.66-.01,1-.08.21-.16.42-.24.63-.22.39-.51.7-.89.94-.2.09-.39.18-.59.27-.44.13-.88.15-1.32.04-.34-.07-.64-.21-.9-.44-.28-.17-.51-.4-.67-.7-.19-.28-.3-.58-.32-.91-.09-.33-.08-.66.01-1,.08-.21.16-.42.24-.63Z"/>
      <path class="cls-11" d="M33.06,159.25c2.45-1.52,5.5-1.14,7.88.32.39.16.76.35,1.1.58,2.05,1.33,3.58,3.23,4.23,5.62.76,2.81-.55,5.65-2.99,7.15-2.35,1.44-5.41,1.3-7.72-.13-2.13-1.31-3.97-3.49-4.89-5.81-1.1-2.8-.24-6.11,2.38-7.73Z"/>
      <path class="cls-11" d="M45.26,173.61c.1-.14.21-.29.31-.43.18-.2.4-.35.65-.44.24-.13.49-.2.77-.2.11-.01.22-.03.33-.04.4-.01.77.08,1.13.26.34.19.6.44.81.76.28.5.4,1.07.27,1.64-.06.29-.18.55-.37.77-.15.24-.35.44-.6.58-.33.2-.68.31-1.06.33-.4.01-.78-.08-1.13-.26-.09-.06-.18-.12-.27-.18-.14-.1-.29-.21-.43-.31-.2-.18-.35-.4-.44-.65-.09-.15-.15-.32-.15-.5-.07-.27-.07-.54,0-.81l.2-.52Z"/>
      <path class="cls-11" d="M50.73,209.22c.22-.41.53-.73.93-.98.2-.09.41-.19.61-.28.46-.14.92-.15,1.38-.05.36.07.67.22.94.45.29.18.53.42.7.73.2.29.31.61.34.95.09.34.09.69-.01,1.04-.08.22-.17.44-.25.66-.22.41-.53.73-.93.98-.2.09-.41.19-.61.28-.46.14-.92.15-1.38.05-.36-.07-.67-.22-.94-.45-.29-.18-.53-.42-.7-.73-.2-.29-.31-.61-.34-.95-.09-.34-.09-.69.01-1.04l.25-.66Z"/>
      <path class="cls-8" d="M91.27,82.38c4.61-1.07,8.23,3.1,6.01,7.41-1.14,2.22-3.65,3.36-6.08,2.83-2.39-.52-4.08-2.7-4.09-5.13-.01-2.48,1.77-4.55,4.17-5.11ZM88.85,89.27c1.06,2.19,4.07,2.85,6.05,1.51,3.92-2.65,1.13-8.45-3.54-7.07-2.39.71-3.62,3.27-2.51,5.55Z"/>
      <path class="cls-8" d="M43.49,128.19c2.73-4.31,8.64-2.66,9.69,2.02,1.2,5.35-4.77,9.75-8.92,5.48-1.91-1.97-2.25-5.17-.77-7.5ZM43.91,131.55c.01,2.55,2.32,5.01,4.99,4.64,3.46-.49,4.19-5.11,2.22-7.56-2.55-3.16-7.23-1.06-7.21,2.92Z"/>
      <path class="cls-8" d="M48.01,205.58c4.45-2.21,9.69-.1,12.7,3.52,1.25,1.5,2.08,3.29,2.21,5.26.26,3.9-2.67,6.77-6.46,7.06-4.16.31-8.74-2.67-11.06-6-2.39-3.44-1.13-7.98,2.6-9.83ZM46.12,214.22c1.71,2.96,5.56,5.56,8.94,5.95,3.38.39,6.71-1.67,6.75-5.3.05-5.29-6.63-9.73-11.55-8.63-3.59.8-6.13,4.51-4.14,7.97Z"/>
      <path class="cls-8" d="M25.96,155.28c4.12-2.53,9.04-3.02,13.66-1.69,9.6,2.76,15.93,11.24,17.49,20.93.68,4.25.38,8.97-1.51,12.89-1.96,4.06-6.08,6.32-10.51,6.41-5.01.11-9.76-2.38-13.6-5.41-3.51-2.76-6.43-6.29-8.53-10.23-2.1-3.93-3.82-8.68-3.4-13.2.38-4.1,2.95-7.57,6.41-9.7ZM23.09,175.24c3.29,7.54,10.19,14.85,18.42,16.79,4.14.97,8.98.14,11.72-3.37,2.53-3.23,3.17-8.01,2.94-12-.53-9.18-6.27-17.65-15.01-21.15-3.83-1.53-8.04-1.83-11.93-.36-3.48,1.31-6.7,4.01-7.86,7.63-1.31,4.07.09,8.68,1.73,12.45Z"/>
      <path class="cls-8" d="M75.56,111.78c4.11-2.38,9.14-2.39,13.67-1.38,9.39,2.09,18.43,8.81,22.42,17.71,1.75,3.91,2.07,8.47-.06,12.31-2.03,3.66-5.83,6.17-9.84,7.14-9.97,2.41-20.18-4.37-26.45-11.58-3.11-3.58-5.48-7.94-5.57-12.79-.09-4.54,1.81-9.08,5.85-11.41ZM71.56,120.16c-.91,4.52.64,9,3.25,12.67,2.66,3.74,6.36,6.94,10.2,9.41,3.98,2.56,8.67,4.48,13.47,4.27,3.86-.17,7.95-1.76,10.58-4.66,2.81-3.11,3.48-7.34,2.32-11.31-2.54-8.72-12-15.95-20.53-18.36-3.67-1.04-7.63-1.51-11.34-.51-4.13,1.11-7.11,4.29-7.96,8.48Z"/>
      <path class="cls-8" d="M188.5,106.2c2.26-5.92,9.21-13.63,16.26-10.35,3.86,1.79,5.68,5.9,6.26,9.89,1.17,7.99.84,18.18-3.94,25.05-1.78,2.56-4.46,4.68-7.74,4.43-3.77-.28-6.58-3.42-8.35-6.5-3.85-6.72-5.3-15.17-2.49-22.52ZM190.77,125.14c1.33,3.15,3.28,6.62,6.5,8.14,3.08,1.46,6.13.04,8.18-2.4,5.79-6.92,8.03-25.29,1.15-32.2-5.78-5.8-13.4.68-16.17,6.29-3.13,6.33-2.34,13.83.35,20.17Z"/>
      <path class="cls-12" d="M61.89,86.07c-2.58,3.98-1.22,9.05,1.91,13.49,1.55,2.2,3.74,4.67,7.01,5.94,3.14,1.22,6.03.51,7.84-.97,5.15-4.17,5.91-16.26-1.38-21.41-6.13-4.33-13.1-.59-15.38,2.94Z"/>
      <path class="cls-11" d="M74.21,84.14c3.36,1.27,5.12,4.42,3.74,6.4-.11.16-.24.29-.4.42-.16.57-.45,1.09-.88,1.52-.64.64-1.46,1.07-2.77,1-1.21-.07-2.5-.59-3.21-1.36-.82-.89-1.57-1.86-1.97-2.83-.22-.54-.41-1.09-.47-1.63-.03-.23-.03-.46-.03-.69,0-.25.01-.49.02-.74,0-.04,0-.08,0-.11.06-2.13,2.86-3.14,5.97-1.97Z"/>
      <path class="cls-8" d="M60.09,86.74c1.76-3.77,7.98-8.38,15.16-5.64,3.93,1.5,6.03,4.38,6.92,7.09,1.77,5.42,2.24,12.2-1.92,16.42-1.55,1.57-4.02,2.77-7.25,2.36-3.73-.48-6.73-2.79-8.7-4.99-4.3-4.79-6.38-10.54-4.2-15.23ZM63.8,99.56c1.55,2.2,3.73,4.67,7.01,5.94,3.14,1.22,6.03.51,7.84-.96,5.15-4.17,5.91-16.26-1.39-21.41-6.13-4.33-13.1-.59-15.38,2.94-2.57,3.98-1.22,9.05,1.91,13.49Z"/>
      <path class="cls-8" d="M186.01,68.03c5.7-3.77,9.21,7.6,5.24,11.04-.73,1.28-1.85,2.29-3.27,2.63-3.33.79-5.4-2.71-5.68-5.55-.3-3.06,1.12-6.41,3.72-8.13ZM185.49,80.26c1.49,1.02,3.29.31,4.37-.97,2.07-2.46,3.03-9.82-1.37-10.72-1.61-.33-3.27,1.58-4.01,2.78-1.58,2.56-1.76,7.03,1.01,8.92Z"/>
    </g>
    <path class="cls-6" d="M163.37,312.32c.73-1.6,2.81-2.01,4.38-2.28,1.84-.32,3.7-.34,5.56-.17,3.78.34,7.3,1.47,10.25,3.92,5.45,4.52,7.51,11.65,6.73,18.51-.26,2.24-.76,4.46-1.51,6.58-.35,1-.75,1.98-1.19,2.95-.51,1.14-1.11,2.07-1.8,3.1-.08.12-.32.06-.26-.1,2.37-6.62,4.42-13.56,2.2-20.54-1.94-6.12-6.41-10.85-12.88-11.92-1.93-.32-3.91-.41-5.86-.2-1.76.19-3.49,1.19-5.25.98-.4-.05-.51-.53-.37-.83Z"/>
    <path class="cls-6" d="M90.33,301.91c1.11-3.28,2.71-6.33,5.54-8.43,5.45-4.04,13.16-3.66,18.59.19,1.57,1.11,2.93,2.42,4.12,3.93,1.02,1.3,2.16,3.31,1.96,5.02-.04.36-.58.61-.88.39-.53-.38-.82-.87-1.22-1.37-.47-.58-.96-1.14-1.42-1.73-.93-1.21-1.89-2.34-3.07-3.33-2.2-1.85-4.95-3.08-7.82-3.39-6.11-.65-11.96,2.89-14.28,8.57-.68,1.66-1.1,3.41-1.48,5.17-.4,1.81-.53,3.71-1.12,5.48-.07.22-.38.2-.4-.04-.21-1.71.06-3.48.29-5.19.24-1.79.62-3.56,1.2-5.27Z"/>
    <path class="cls-21" d="M90.7,204.02c.26,2.57.71,5.22,1.24,7.75.5,2.38,1.15,4.74,1.97,7.03,1.69,4.76,4.09,9.26,7.05,13.35,5.93,8.21,14.23,14.82,23.77,18.31,12.4,4.54,25.97,3.98,38.87,6.08,11.76,1.92,23.79,5.61,32.92,13.58,8.01,7,14.62,18.09,12.98,29.1-.04.3-.54.25-.53-.05.1-5.11-.69-10.08-2.78-14.76-2.13-4.76-5.32-9.03-9.12-12.59-9.04-8.48-21.31-12.34-33.3-14.32-12.82-2.12-26.29-1.6-38.67-5.96-9.24-3.26-17.34-9.32-23.4-16.99-3.43-4.34-6.2-9.19-8.17-14.36-.98-2.56-1.76-5.2-2.29-7.89-.26-1.33-.47-2.67-.62-4.01-.16-1.41-.06-2.85-.02-4.27,0-.07.1-.07.11,0Z"/>
    <path class="cls-21" d="M122.88,203.93c.02-.08.15-.05.13.03-3.1,12.36-.96,25.76,5.79,36.56,1.92,3.06,4.25,5.82,6.63,8.53.23.26-.1.62-.37.39-4.82-4.09-8.24-9.94-10.53-15.78-2.36-6-3.51-12.49-3.34-18.93.1-3.67.68-7.28,1.69-10.8Z"/>
    <path class="cls-21" d="M85.12,246.85c1.41,1.15,2.94,2.2,4.39,3.31,1.53,1.16,3.06,2.3,4.63,3.39,3,2.08,6.12,3.99,9.33,5.73,6.49,3.52,13.37,6.33,20.47,8.35,3.09.88,6.22,1.61,9.38,2.19-6.14-3.43-12.19-7.24-16.36-13.03-.3-.41.23-.85.63-.67,7.1,3.32,14.55,5.86,22.2,7.55,3.75.83,7.54,1.45,11.35,1.87,3.98.44,7.98.55,11.98.84.31.02.34.47.02.5-7.8.62-15.96-.6-23.56-2.28-7.1-1.57-14.03-3.87-20.67-6.83,4.59,5.55,11.06,9.15,17.31,12.57.49.27.18.96-.34.88-14.73-2.29-28.89-7.87-41.23-16.25-1.69-1.15-3.37-2.35-4.98-3.61-1.7-1.33-3.19-2.81-4.76-4.28-.14-.13.06-.34.21-.22Z"/>
    <path class="cls-17" d="M100.84,315.38c.13-.44.32-.82.55-1.15.14-.36.3-.7.49-1.04,1.38-2.41,4.65-3.95,6.99-1.8,1.63,1.49,1.9,4.52,1.53,6.56-.35,1.95-1.67,3.77-3.46,4.46-.64.36-1.37.51-2.18.35-.37-.07-.71-.2-1.04-.38-2.49-1.05-3.63-4.54-2.89-7.01Z"/>
    <path class="cls-17" d="M164.62,329.82c1.9-2.23,5.28-2.03,6.92.41,2.19,3.27,1.53,7.87-1.22,10.59-1.72,1.71-4.42,1.39-5.76-.59-.98-1.45-2.12-3.68-1.64-5.5.05-1.7.64-3.67,1.7-4.91Z"/>
    <path class="cls-11" d="M168.73,328.77c.22-.37.52-.66.91-.88.36-.24.76-.38,1.19-.42.43-.11.86-.11,1.3.01l.83.31c.51.28.91.67,1.22,1.16.12.26.23.51.35.77.17.57.19,1.14.06,1.72v.04c-.1.45-.29.84-.58,1.17-.22.37-.52.66-.9.88-.36.24-.76.38-1.19.42-.43.11-.86.11-1.3-.01-.27-.1-.55-.21-.83-.31-.51-.28-.91-.67-1.22-1.16-.12-.26-.23-.51-.35-.77-.17-.57-.19-1.14-.06-1.72v-.04c.09-.45.28-.84.57-1.17Z"/>
    <path class="cls-11" d="M171.86,335.55c1.61.38,1.03,2.89-.59,2.51-1.61-.38-1.03-2.89.59-2.51Z"/>
    <path class="cls-11" d="M106.38,310.58c.07-.28.2-.53.4-.74.14-.25.33-.45.57-.6.2-.2.43-.35.7-.43.24-.15.51-.23.79-.24.42-.11.85-.1,1.28.01.27.1.54.21.81.31.23.16.45.33.68.49.17.21.35.43.52.64.11.25.23.5.34.75.05.28.09.55.14.83.03.45-.05.87-.24,1.27-.07.28-.2.53-.4.74-.22.36-.51.65-.89.86-.04.03-.07.06-.11.09-.34.23-.72.36-1.12.4-.41.1-.81.1-1.23-.01-.26-.1-.52-.2-.78-.3-.48-.26-.86-.63-1.15-1.09-.02-.04-.04-.09-.06-.13-.11-.25-.23-.5-.34-.75-.05-.28-.09-.55-.14-.83-.03-.45.05-.87.24-1.27Z"/>
    <path class="cls-11" d="M110.02,317.33c1.34.31.85,2.39-.49,2.08-1.34-.31-.85-2.39.49-2.08Z"/>
    <path class="cls-10" d="M57.31,237.58c4.03-1.16,8.12-2.09,12.26-2.78,2.03-.34,4.11-.74,6.16-.86,1.22-.07,2.5.29,2.7,1.65.03.21-.13.52-.32.61-1.31.61-2.73,1.14-4.18,1.3-2.16.71-4.41,1.2-6.64,1.56-3.31.53-6.66.59-9.94-.17-.64-.15-.69-1.12-.04-1.3ZM72.1,236.75c1.51-.48,3.04-.81,4.52-1.39-1.76-.35-8.16,1-8.95,1.15-2.32.44-4.62.95-6.91,1.54,2.22.18,4.46.04,6.68-.31,1.57-.25,3.12-.62,4.67-.99Z"/>
    <path class="cls-10" d="M57.38,238.38c4.14,24.3,5.52,48.94,7.24,73.49.85,12.22,1.81,24.44,3.14,36.62.66,6.02,1.09,12.24,2.62,18.11,1.31,5.04,4.37,10.42,9.09,12.97,5.48,2.95,12.07,1.66,17.87.54,6.29-1.21,12.58-2.42,18.87-3.64,2.65-.51,5.58-1.02,7.36-3.27,1.63-2.06,1.92-4.93,1.58-7.46-.36-2.74-1.39-5.68-4.14-6.8-2.59-1.05-5.66-.64-8.38-.44-3.07.23-6.13.58-9.17,1.05-2.96.45-5.92,1.3-8.89,1.58-5.85.55-6.41-6.11-7.17-10.36-2.07-11.61-3.33-23.35-4.21-35.1-1.8-23.86-2.32-47.8-5.16-71.58-.34-2.85-.71-5.7-1.1-8.54-.05-.39.61-.5.68-.12,2.13,12,3.13,24.18,3.95,36.33.82,12.27,1.36,24.56,2.18,36.83.81,12.24,1.92,24.47,3.84,36.59.48,3.05,1,6.09,1.62,9.11.52,2.55,1.43,5.77,4.62,5.72,1.44-.02,2.9-.51,4.31-.79,1.5-.29,3-.56,4.51-.79,3.04-.48,6.1-.85,9.16-1.1,2.81-.23,5.85-.62,8.62.12,2.42.64,4.12,2.25,5.05,4.56,1.7,4.2,1.61,10.2-2.27,13.2-2.23,1.72-5.2,2.07-7.88,2.58-3.14.61-6.29,1.21-9.43,1.82-3.26.63-6.51,1.27-9.77,1.88-2.89.54-5.82,1.02-8.77,1-5.49-.04-10.42-2.18-13.71-6.66-3.22-4.39-4.24-10.16-4.98-15.44-1.75-12.41-2.81-24.92-3.81-37.41-2.01-25.16-3.67-50.37-7.19-75.38-.43-3.06-.89-6.12-1.38-9.18-.12-.72,1.01-.75,1.13-.04Z"/>
    <path class="cls-10" d="M103.57,345.07c-1.41,1.22-2.18,2.98-2.61,4.76-.74,3.06-.65,6.25-.22,9.38-.26.03-.52.09-.77.16-.46-2.82-.5-5.75-.07-8.5.51-3.2,1.98-6.64,5.21-7.86,3.42-1.3,7.14.36,9.98,2.25,1.78,1.19,3.47,2.54,5.36,3.57,2.02,1.1,4.21,1.59,6.47,1.82,4.07.41,8.36.11,12.14,1.94,3.05,1.48,5.3,4.23,6.58,7.33,2.55,6.19,1.01,14.52-4.83,18.34-3.73,2.44-8.62,2.1-12.83,1.41-2.54-.41-5.04-1.07-7.45-1.95-.75-.27-1.51-.55-2.26-.87.62-.21,1.26-.39,1.92-.48,1.8.7,3.65,1.26,5.53,1.69,3.7.85,8.01,1.59,11.75.57,6.85-1.86,9.51-10.06,7.83-16.37-.83-3.12-2.62-6.07-5.32-7.9-3.25-2.21-7.26-2.25-11.04-2.48-3.7-.22-7.09-.84-10.27-2.85-3.07-1.94-5.84-4.56-9.53-5.26-1.98-.37-4.02-.05-5.58,1.3Z"/>
    <path class="cls-10" d="M250.9,88.62c2.97-8.21,6.88-16.17,11.05-23.83,4.17-7.65,8.8-15.06,13.87-22.15,10.09-14.13,21.91-26.95,35.09-38.24,1.62-1.39,3.23-2.77,4.88-4.13.38-.32.84.22.44.54-13.33,10.49-25.13,22.95-35.44,36.4-10.32,13.47-19.03,28.18-25.86,43.72-1.88,4.27-3.71,8.6-4.84,13.13-.88,3.54-1.28,7.31-.31,10.88.99,3.64,3.56,6.49,7.4,7.1,4.45.7,8.62-1.48,12.14-3.97,3.71-2.62,7.27-5.46,10.88-8.22,3.63-2.78,7.26-5.58,10.88-8.37,7.25-5.59,14.53-11.13,21.83-16.65,14.64-11.06,29.53-21.82,45.04-31.64,1.82-1.15,3.66-2.29,5.51-3.4,0,.19,0,.39,0,.58-15.87,10.03-31.16,20.85-46.17,32.13-15.16,11.39-30,23.19-45.14,34.62-3.3,2.49-6.8,5.02-10.97,5.75-3.61.63-7.47-.21-9.92-3.08-4.96-5.81-2.67-14.77-.37-21.15Z"/>
    <path class="cls-10" d="M316,0c9.26,1.86,18.52,4.9,26.5,10.04,6.94,4.47,12.93,10.51,16.86,17.81,2.06,3.82,3.72,8.1,4.11,12.45.03.29-.43.37-.5.09-.91-3.9-2.01-7.67-3.83-11.26-1.79-3.52-4.07-6.78-6.72-9.71-5.8-6.42-13.34-11.19-21.34-14.39-4.92-1.97-10.04-3.38-15.23-4.4-.42-.08-.27-.73.15-.64Z"/>
    <path class="cls-10" d="M274.32,66.61c7.08-9.95,14.96-19.44,23.15-28.49,8.15-9.01,16.91-17.53,26.6-24.88,2.69-2.04,5.44-3.99,8.27-5.83.58-.38,1.17-.77,1.76-1.15.12.07.24.13.36.18.08.03.16.06.24.1-.4.24-.8.49-1.19.74-2.49,1.6-4.92,3.29-7.3,5.05-4.94,3.65-9.64,7.61-14.14,11.78-8.86,8.22-16.92,17.26-24.57,26.59-4.36,5.32-8.53,10.8-12.93,16.09-.12.14-.37-.04-.26-.19Z"/>
    <path class="cls-10" d="M289.8,68.1c8.63-8.21,18.17-15.55,27.86-22.47,9.7-6.93,19.75-13.33,30.14-19.18,2.5-1.41,5.02-2.77,7.56-4.09.07.14.15.27.22.41-17.49,9.52-34.24,20.4-49.9,32.71-5.31,4.17-10.46,8.54-15.66,12.84-.15.12-.38-.07-.23-.22Z"/>
    <path class="cls-10" d="M248.99,102.06c-.31,2.96-.31,5.99.75,8.81,1.41,3.76,4.77,6.03,8.81,5.97,4.55-.07,8.43-2.7,11.93-5.35,3.4-2.58,6.71-5.27,9.99-8.01,12.95-10.81,25.21-22.43,38.44-32.92,3.74-2.96,7.54-5.85,11.47-8.55,2.23-1.53,4.49-3.06,6.81-4.49-.57.44-1.14.87-1.71,1.31-.75.58-1.5,1.17-2.24,1.77-.62.42-1.25.85-1.86,1.28-3.65,2.57-7.23,5.25-10.73,8.02-7.01,5.54-13.74,11.44-20.44,17.35-6.73,5.95-13.43,11.94-20.35,17.67-3.33,2.76-6.69,5.52-10.18,8.08-3.35,2.46-7.17,4.65-11.46,4.59-4.03-.06-7.42-2.28-9-5.98-1.47-3.44-1.51-7.6-.68-11.2.02-.09.06-.15.12-.19.07.62.2,1.23.33,1.85Z"/>
    <path class="cls-10" d="M332.75,134.58c2.6-5.32,8.31-8.14,13.41-10.54,5.47-2.57,11.15-4.65,16.96-6.31,25.01-7.1,51.31-6.16,76.96-4.24,2.36.18,4.69.44,7.05.41,2.59-.03,3.23,1.01,4.9,2.68,1.27,1.28,2.52,2.57,3.75,3.89,2.46,2.64,4.84,5.36,7.12,8.16,4.54,5.61,8.68,11.55,12.22,17.84,3.96,7.03,7.16,14.5,9.33,22.28.74,2.65,1.36,5.34,1.84,8.06.22,1.23.41,2.47.58,3.71.15,1.1.38,2.34-.06,3.41-.35.86-1.08,1.3-2,1.32-1.54.04-3.2-.45-4.71-.71-3.44-.59-6.87-1.23-10.28-1.91-13.55-2.72-26.93-6.15-40.26-9.81-26.78-7.37-53.4-15.61-80.75-20.67-4.69-.87-9.83-1.72-13.66-4.8-3.96-3.19-4.58-8.34-2.41-12.78ZM332.65,141.84c1.2,4.93,6.38,7.08,10.81,8.22,2.65.68,5.35,1.1,8.04,1.62,3.15.61,6.3,1.25,9.43,1.94,6.55,1.42,13.06,3,19.55,4.67,12.86,3.31,25.61,7.01,38.38,10.62,12.9,3.64,25.83,7.2,38.88,10.26,6.38,1.5,12.79,2.86,19.24,4.04,1.65.3,3.3.59,4.95.86,1.43.24,3.92,1.14,4.3-.93.23-1.25-.13-2.67-.31-3.9-.21-1.39-.45-2.77-.72-4.15-4.25-21.11-16.39-39.72-30.84-55.32-1.38-1.49-2.79-2.96-4.23-4.4-.06.02-.13.03-.2.02-25.17-1.97-50.78-4-75.75.87-11.33,2.21-22.9,5.72-32.93,11.56-4.83,2.81-10.11,7.81-8.6,14.02Z"/>
    <path class="cls-10" d="M334.97,132.35c-1.21,1.95-2.41,3.88-2.98,6.16-.09.35-.07.67.03.95-.55,1.38-.99,2.81-1.29,4.3-.73,3.7-.91,8.18,1.12,11.53,1.07,1.77,2.78,2.9,4.62,3.76,2.11.99,4.32,1.76,6.56,2.41,4.38,1.26,8.9,2.03,13.43,2.45,9.1.86,18.27.79,27.38,1.46,9.1.67,18.2,1.7,27.2,3.23,10.25,1.73,20.48,3.87,30.44,6.86.21.06.14.39-.08.34-9.39-2.23-18.79-4.35-28.31-5.92-9.61-1.58-19.28-2.79-29-3.5-9.43-.69-18.92-.6-28.33-1.53-4.65-.46-9.28-1.15-13.76-2.51-3.72-1.13-8.26-2.51-10.68-5.78-2.47-3.35-2.5-8.03-1.9-11.97.67-4.4,2.39-9.02,5.55-12.25Z"/>
    <path class="cls-10" d="M401.25,130.33c9.79-.97,19.8-.6,29.6.05,9.75.65,19.45,1.9,29.05,3.7,2.77.52,5.54,1.07,8.3,1.68.15.21.3.42.44.63-7.08-1.48-14.2-2.77-21.39-3.68-9.76-1.24-19.59-1.96-29.43-2.11-5.52-.08-11.03.08-16.55.08-.23,0-.24-.34-.01-.36Z"/>
    <path class="cls-10" d="M413.14,145.7c10.02,1.17,19.99,3.06,29.88,5.02,9.9,1.96,19.78,4.14,29.55,6.67,2.85.74,5.69,1.5,8.53,2.28.04.11.07.22.11.32-16.88-4.4-33.96-8.12-51.14-11.14-5.66-.99-11.35-1.85-17.01-2.85-.2-.04-.12-.33.07-.31Z"/>
    <path class="cls-3" d="M180.25,182.72c.24-.15.56.2.33.4-5.64,4.84-7.14,12.95-4.84,19.84,2.49,7.46,8.65,13.1,14.86,17.58,7.05,5.08,14.79,9.24,21.05,15.36,5.25,5.14,9.43,11.27,12.38,17.99,1.63,3.72,2.87,7.62,3.68,11.6.41,2.04.73,4.11.92,6.19.19,2.05.39,4.17-.25,6.15-.23.7-1.28.85-1.51.05-.53-1.78-.52-3.63-.68-5.47-.16-1.86-.4-3.72-.76-5.55-.71-3.68-1.79-7.28-3.2-10.74-2.82-6.91-7.05-13.32-12.36-18.57-11.47-11.34-30.12-17.04-35.53-33.67-2.36-7.25-.94-16.84,5.92-21.16Z"/>
    <path class="cls-3" d="M41.07,229.34c1.88-5.42,5.14-10.2,8.98-14.42,4.44-4.88,9.64-9.57,15.38-12.86.37-.21.77.26.47.58-3.84,4.15-8.38,7.6-12.29,11.7-3.82,4-7.22,8.48-9.35,13.62-4.04,9.77-1.83,20.39,3.2,29.33,2.85,5.08,6.5,9.61,9.88,14.32.46.65-.47,1.3-1.03.84-4.2-3.49-7.69-7.93-10.48-12.61-2.69-4.52-4.85-9.45-5.82-14.64-1-5.31-.72-10.74,1.05-15.86Z"/>
    <path class="cls-3" d="M36.98,232.25c.69,3.65.58,7.42,1.07,11.11.5,3.79,1.24,7.57,2.31,11.24,1.96,6.72,5.1,13.15,9.59,18.56,1.19,1.43,2.47,2.79,3.83,4.07,1.43,1.34,2.91,2.5,4.08,4.09.41.56-.22,1.42-.88,1.22-3.31-1.03-5.92-3.94-8.15-6.49-2.36-2.68-4.43-5.62-6.17-8.74-3.71-6.65-6.03-14.08-7.02-21.61-.29-2.24-.49-4.49-.59-6.75-.11-2.24-.2-4.44.24-6.65.16-.81,1.52-.92,1.68-.06Z"/>
    <path class="cls-3" d="M223.23,242.97c3.23,6.09,6.3,12.34,8.47,18.89,2.18,6.56,3.73,13.35,4.44,20.23,1.38,13.36-.75,26.97-7,38.93-1.52,2.9-3.27,5.68-5.25,8.29-1.19.03-2.36.19-3.5.48.04-.04.07-.08.11-.13,2.04-2.45,3.85-5.09,5.42-7.87,3.15-5.54,5.37-11.57,6.71-17.79,2.8-13,1.74-26.48-1.85-39.22-2.08-7.37-4.7-14.61-8.1-21.47-.18-.36.35-.7.54-.34Z"/>
    <path class="cls-3" d="M117.05,286.12c13.4,5.86,28.1,4.71,42.36,4.24,12.65-.42,25.92.15,36.82,7.33,5.1,3.36,9.26,8.04,11.42,13.8.25.67-.79.97-1.06.32-4.35-10.4-15.37-16.33-25.99-18.29-13.84-2.56-27.94.03-41.87-.72-7.54-.41-15.51-2.1-22.01-6.08-.39-.24-.07-.79.33-.61Z"/>
    <path class="cls-3" d="M84.01,268.34c3.39,6.41,7.93,11.92,13.91,16.08,5.98,4.15,12.87,6.92,19.99,8.34,8.58,1.7,17.4,1.6,26.06.63,8.63-.96,17.05-3.03,25.61-4.41,9.11-1.47,18.89-1.83,27.22,2.76.24.13.04.49-.2.37-7.93-4.22-17.01-3.86-25.64-2.56-8.71,1.31-17.24,3.5-25.99,4.56-15.83,1.92-32.59.83-46.3-8.08-6.46-4.2-12.4-10.14-15.05-17.51-.08-.22.27-.38.38-.17Z"/>
    <path class="cls-3" d="M160.95,275.01c6.94-.33,14.06,1.74,20.19,4.91,5.15,2.66,9.49,6.48,12.35,11.55,4.88,8.64,5.69,18.81,8.59,28.15.81,2.59,1.77,5.14,3.06,7.54,1.29,2.39,2.93,4.6,4.62,6.73.2.25-.19.49-.4.33-3.69-2.8-5.84-7.18-7.41-11.44-1.67-4.53-2.67-9.27-3.76-13.96-1.09-4.72-2.23-9.47-4.2-13.91-2.29-5.17-5.84-9.44-10.63-12.47-6.79-4.3-14.59-6.02-22.46-7.07-.2-.03-.16-.33.03-.34Z"/>
    <path class="cls-3" d="M198.86,239.82c14.6,3.6,27.63,13.36,35.09,26.46,7.42,13.04,8.3,28.87,2.4,42.67-1.6,3.74-3.7,7.26-6.25,10.42-1.28,1.59-2.68,3.09-4.19,4.47-1.48,1.35-3.01,2.72-4.86,3.52-.49.21-.88-.51-.53-.86,1.24-1.23,2.69-2.2,3.99-3.36,1.3-1.16,2.52-2.4,3.65-3.72,2.3-2.67,4.24-5.64,5.81-8.8,3.17-6.36,4.84-13.47,4.88-20.58.09-14.73-7.27-28.27-18.36-37.68-6.31-5.36-13.88-9.42-21.78-11.9-.4-.13-.27-.75.15-.64Z"/>
    <path class="cls-3" d="M103.08,197.57c3.51-6.12,8.2-11.44,12.47-17.03,4.46-5.85,8.16-12.09,10.29-19.17,2.33-7.75,3.16-16.03,1.93-24.04-.02-.12.18-.15.2-.03,1.18,6.83,1.25,13.88-.26,20.66-1.52,6.85-4.46,13.27-8.43,19.05-4.01,5.83-8.79,11.08-12.78,16.91-3.96,5.79-6.8,12.18-8.09,19.1-1.45,7.73-.87,15.6,1.06,23.19.08.31-.36.44-.47.14-4.52-12.54-2.49-27.32,4.08-38.78Z"/>
  </g>
</svg>