<?xml version="1.0" encoding="UTF-8"?>
<svg id="Layer_1" data-name="Layer 1" xmlns="http://www.w3.org/2000/svg" viewBox="0 0 676.14 302.56">
  <defs>
    <style>
      .cls-1 {
        fill: #000;
        stroke-width: 0px;
      }

      .cls-2 {
        fill: #f28a20;
      }

      .cls-2, .cls-3, .cls-4 {
        stroke-linecap: round;
        stroke-linejoin: round;
      }

      .cls-2, .cls-4 {
        stroke: #ee6300;
        stroke-width: 8px;
      }

      .cls-3 {
        stroke: #000;
        stroke-width: 3px;
      }

      .cls-3, .cls-4 {
        fill: none;
      }
    </style>
  </defs>
  <polygon class="cls-4" points="149.28 4 292.32 256.28 4 256.28 149.28 4"/>
  <polygon class="cls-2" points="87.34 111.56 210.27 111.56 149.28 4 87.34 111.56"/>
  <line class="cls-3" x1="87.34" y1="59.19" x2="208.98" y2="59.19"/>
  <g>
    <path class="cls-1" d="M230.71,45.76c-.59,1.77-1.29,3.54-2.09,5.23v18.6h-1.91v-15.03c-.81,1.34-1.64,2.55-2.52,3.6-.19-.48-.72-1.53-1.05-2.01,2.31-2.68,4.43-6.76,5.72-10.9l1.85.51ZM247.62,67.63c0,.83-.16,1.37-.67,1.66-.59.3-1.37.32-2.58.32-.08-.48-.35-1.23-.59-1.69.81.03,1.5.03,1.74,0,.24,0,.3-.05.3-.3v-3.33h-2.52v5.15h-1.48v-5.15h-2.52v5.15h-1.45v-5.15h-2.44v5.34h-1.69v-9.07c-.43,2.84-1.31,5.8-3.01,8.11-.3-.38-1.05-.99-1.48-1.23,2.74-3.76,3.06-8.94,3.06-12.62v-4.72h14.82v6.01h-13.02c0,.62-.03,1.29-.08,1.96h13.61v9.55ZM248.16,46.59v1.69h-17.02v-1.69h17.02ZM234.12,51.69v2.84h11.03v-2.84h-11.03ZM237.85,62.75v-3.06h-2.44v3.06h2.44ZM241.82,62.75v-3.06h-2.52v3.06h2.52ZM245.82,62.75v-3.06h-2.52v3.06h2.52Z"/>
    <path class="cls-1" d="M274.63,56.92v1.8h-16.08c-1.15,4.75-3.27,8.48-6.36,10.9-.35-.35-1.15-1.07-1.66-1.4,2.95-2.04,4.88-5.37,5.9-9.5h-5.45v-1.8h10.79v-2.44h-8.29v-1.69h8.29v-2.34h-9.58v-1.77h5.45c-.43-.88-1.1-1.96-1.8-2.82l1.69-.7c.89,1.02,1.8,2.39,2.15,3.33l-.4.19h6.9l-.21-.08c.67-.97,1.5-2.5,1.96-3.54l2.09.59c-.64,1.07-1.37,2.17-2.01,3.03h5.64v1.77h-9.85v2.34h8.51v1.69h-8.51v2.44h10.84ZM265.93,67.18h8.16v1.77h-18.14v-1.77h7.94v-4.7h-5.4v-1.74h13.82v1.74h-6.39v4.7Z"/>
    <path class="cls-1" d="M285.26,45.76c-.75,1.99-1.69,3.95-2.76,5.8v17.98h-1.88v-15.06c-.86,1.23-1.77,2.33-2.71,3.3-.21-.46-.75-1.5-1.13-1.93,2.63-2.58,5.1-6.58,6.63-10.66l1.85.56ZM301.9,68.25h-14.65v1.31h-1.85v-16.37h1.85v13.31h14.65v1.75ZM292.62,51.85c.11-.67.19-1.45.27-2.25h-7.17v-1.75h7.33c.08-.97.16-1.91.21-2.74l1.99.11c-.05.83-.16,1.72-.24,2.63h6.74v1.75h-6.95c-.08.8-.19,1.58-.29,2.25h5.77v12.56h-10.66v-12.56h3.01ZM298.33,53.38h-6.84v2.17h6.84v-2.17ZM298.33,57h-6.84v2.2h6.84v-2.2ZM298.33,60.66h-6.84v2.23h6.84v-2.23Z"/>
    <path class="cls-1" d="M303.84,65.3l1.21-1.61c1.13,1.13,2.55,2.17,4.83,2.17s4.19-1.69,4.19-4.35-1.61-4.24-4.08-4.24c-1.32,0-2.15.43-3.27,1.18l-1.32-.83.62-9.21h9.58v2.09h-7.43l-.48,5.72c.89-.48,1.74-.81,2.93-.81,3.27,0,5.93,1.88,5.93,6.01s-3.11,6.47-6.44,6.47c-3.06,0-4.94-1.29-6.25-2.6Z"/>
    <path class="cls-1" d="M319.31,57.92c0-6.42,2.34-9.85,6.15-9.85s6.12,3.46,6.12,9.85-2.31,9.98-6.12,9.98-6.15-3.57-6.15-9.98ZM329.18,57.92c0-5.61-1.5-7.89-3.73-7.89s-3.76,2.28-3.76,7.89,1.5,8.03,3.76,8.03,3.73-2.42,3.73-8.03Z"/>
  </g>
  <g>
    <path class="cls-1" d="M123.17,280.75v12.56h-2.04v-1.53h-7.7v8.7h-2.07v-8.7h-7.68v1.66h-1.96v-12.7h9.64v-4.78h2.07v4.78h9.74ZM111.36,289.83v-7.11h-7.68v7.11h7.68ZM121.13,289.83v-7.11h-7.7v7.11h7.7Z"/>
    <path class="cls-1" d="M151.15,292.88h-10.82v5.23c0,1.18-.32,1.77-1.29,2.07-.97.3-2.5.32-4.94.32-.13-.56-.54-1.4-.83-1.91,2.04.05,3.87.05,4.38.03.56-.03.7-.16.7-.56v-5.18h-10.74v-1.85h10.74v-1.93h1.02c1.32-.64,2.68-1.5,3.78-2.36h-11.08v-1.77h13.1l.4-.11,1.29.97c-1.66,1.72-4.16,3.41-6.52,4.54v.67h10.82v1.85ZM130.02,286.36h-1.91v-5.93h4.11c-.51-.99-1.45-2.36-2.25-3.36l1.66-.75c.99,1.1,2.09,2.63,2.58,3.65l-.91.46h5.48c-.32-1.13-1.18-2.74-1.99-3.92l1.74-.64c.91,1.26,1.83,2.98,2.17,4.11l-1.15.46h4.75c1.02-1.23,2.2-3.01,2.87-4.27l2.07.7c-.83,1.21-1.83,2.5-2.74,3.57h4.16v5.93h-1.93v-4.16h-18.71v4.16Z"/>
    <path class="cls-1" d="M174.31,289.23c-1.4,2.84-3.52,5.05-6.15,6.74,2.85,1.29,6.2,2.15,9.93,2.6-.43.43-.97,1.32-1.21,1.85-4.05-.56-7.65-1.66-10.71-3.33-3.22,1.66-6.95,2.71-10.82,3.33-.21-.48-.78-1.37-1.18-1.77,3.65-.51,7.14-1.34,10.09-2.68-2.2-1.5-4.05-3.35-5.42-5.53l.27-.11h-1.15v-1.85h14.63l.4-.08,1.32.83ZM156.63,289.1h-1.88v-5.42h4.27c-.32-.97-1.07-2.44-1.77-3.54l1.72-.48c.78,1.1,1.58,2.55,1.91,3.52l-1.58.51h11.68c.89-1.34,1.91-3.19,2.5-4.56l2.01.62c-.73,1.32-1.66,2.76-2.47,3.95h4.59v5.42h-1.96v-3.65h-19v3.65ZM176.09,277.5c-5.37,1.13-13.66,1.8-20.61,2.07-.03-.51-.27-1.23-.46-1.69,6.87-.29,15.08-.99,19.67-1.99l1.4,1.61ZM160.98,290.34c1.29,1.85,3.09,3.38,5.26,4.62,2.09-1.21,3.87-2.71,5.1-4.62h-10.36ZM165.67,283.52c-.16-1.05-.72-2.71-1.34-3.95l1.8-.4c.64,1.23,1.23,2.87,1.42,3.89l-1.88.46Z"/>
    <path class="cls-1" d="M180.5,298.36c.94-1.32,1.26-3.68,1.34-5.93l1.26.24c-.13,2.36-.43,4.91-1.48,6.33l-1.13-.64ZM191.79,289.18s0,.51-.03.78c-.27,6.6-.59,8.96-1.21,9.77-.4.46-.81.64-1.42.7-.54.05-1.48.05-2.39,0-.05-.48-.19-1.18-.46-1.58.91.05,1.74.05,2.09.05.32,0,.51-.03.72-.27.27-.35.48-1.26.64-3.3l-.91.38c-.24-.97-.83-2.42-1.45-3.49l.94-.35c.56.99,1.21,2.33,1.45,3.25.11-1.1.19-2.52.27-4.32h-8v-13.69h9.5v1.69h-3.54v2.31h2.98v1.61h-2.98v2.39h2.98v1.61h-2.98v2.47h3.78ZM184.76,292.75c.3,1.58.46,3.57.43,4.88l-1.1.16c.05-1.34-.11-3.33-.38-4.91l1.05-.13ZM183.77,278.79v2.31h2.6v-2.31h-2.6ZM186.37,282.71h-2.6v2.39h2.6v-2.39ZM183.77,289.18h2.6v-2.47h-2.6v2.47ZM186.7,296.96c-.11-1.15-.56-2.95-1.05-4.32l.99-.21c.51,1.34.99,3.14,1.1,4.27l-1.05.27ZM199.12,276c1.61,2.63,4.21,5.18,6.63,6.47-.35.46-.78,1.15-1.05,1.69-2.39-1.5-4.94-4.03-6.39-6.36-1.29,2.28-3.7,4.94-6.33,6.6-.21-.46-.64-1.18-.99-1.56,2.63-1.56,5.18-4.35,6.33-6.84h1.8ZM199.95,293.02c1.05,2.68,2.98,4.8,5.58,5.85-.4.35-.99,1.1-1.26,1.58-2.63-1.23-4.56-3.54-5.69-6.47-.83,2.44-2.6,4.72-6.31,6.5-.27-.4-.83-1.07-1.26-1.4,3.62-1.66,5.23-3.81,5.96-6.07h-4.43v-6.6h4.94v-2.12h-3.19v-1.64h8.29v1.64h-3.33v2.12h5.1v6.6h-4.4ZM197.32,291.49c.13-.89.16-1.77.16-2.63v-.89h-3.25v3.52h3.09ZM199.26,287.97v.91c0,.86-.03,1.74-.13,2.6h3.49v-3.52h-3.35Z"/>
  </g>
  <polygon class="cls-2" points="529.11 6 672.14 258.28 383.82 258.28 529.11 6"/>
  <line class="cls-3" x1="415.51" y1="151.3" x2="640.45" y2="151.3"/>
  <g>
    <path class="cls-1" d="M294.86,140.06c-.59,1.77-1.29,3.54-2.09,5.23v18.6h-1.91v-15.03c-.8,1.34-1.64,2.55-2.52,3.6-.19-.48-.72-1.53-1.05-2.01,2.31-2.68,4.43-6.76,5.72-10.9l1.85.51ZM311.77,161.93c0,.83-.16,1.37-.67,1.66-.59.3-1.37.32-2.58.32-.08-.48-.35-1.23-.59-1.69.81.03,1.5.03,1.75,0,.24,0,.29-.05.29-.3v-3.33h-2.52v5.15h-1.48v-5.15h-2.52v5.15h-1.45v-5.15h-2.44v5.34h-1.69v-9.07c-.43,2.84-1.32,5.8-3.01,8.11-.3-.38-1.05-.99-1.48-1.23,2.74-3.76,3.06-8.94,3.06-12.62v-4.72h14.82v6.01h-13.02c0,.62-.03,1.29-.08,1.96h13.61v9.55ZM312.31,140.89v1.69h-17.02v-1.69h17.02ZM298.27,145.99v2.84h11.03v-2.84h-11.03ZM302,157.05v-3.06h-2.44v3.06h2.44ZM305.98,157.05v-3.06h-2.52v3.06h2.52ZM309.97,157.05v-3.06h-2.52v3.06h2.52Z"/>
    <path class="cls-1" d="M338.78,151.22v1.8h-16.08c-1.15,4.75-3.27,8.48-6.36,10.9-.35-.35-1.15-1.07-1.66-1.4,2.95-2.04,4.88-5.37,5.91-9.5h-5.45v-1.8h10.79v-2.44h-8.29v-1.69h8.29v-2.34h-9.58v-1.77h5.45c-.43-.88-1.1-1.96-1.8-2.82l1.69-.7c.89,1.02,1.8,2.39,2.15,3.33l-.4.19h6.9l-.21-.08c.67-.97,1.5-2.5,1.96-3.54l2.09.59c-.64,1.07-1.37,2.17-2.01,3.03h5.64v1.77h-9.85v2.34h8.51v1.69h-8.51v2.44h10.84ZM330.08,161.48h8.16v1.77h-18.14v-1.77h7.94v-4.7h-5.39v-1.74h13.82v1.74h-6.39v4.7Z"/>
    <path class="cls-1" d="M349.42,140.06c-.75,1.99-1.69,3.95-2.76,5.8v17.98h-1.88v-15.06c-.86,1.23-1.77,2.33-2.71,3.3-.21-.46-.75-1.5-1.13-1.93,2.63-2.58,5.1-6.58,6.63-10.66l1.85.56ZM366.06,162.55h-14.66v1.31h-1.85v-16.37h1.85v13.31h14.66v1.75ZM356.77,146.15c.11-.67.19-1.45.27-2.25h-7.17v-1.75h7.33c.08-.97.16-1.91.21-2.74l1.99.11c-.05.83-.16,1.72-.24,2.63h6.74v1.75h-6.95c-.08.8-.19,1.58-.29,2.25h5.77v12.56h-10.66v-12.56h3.01ZM362.49,147.68h-6.84v2.17h6.84v-2.17ZM362.49,151.3h-6.84v2.2h6.84v-2.2ZM362.49,154.95h-6.84v2.23h6.84v-2.23Z"/>
    <path class="cls-1" d="M368,159.6l1.21-1.61c1.13,1.13,2.55,2.17,4.83,2.17s4.19-1.69,4.19-4.35-1.61-4.24-4.08-4.24c-1.32,0-2.15.43-3.27,1.18l-1.32-.83.62-9.21h9.58v2.09h-7.43l-.48,5.72c.89-.48,1.75-.81,2.93-.81,3.27,0,5.93,1.88,5.93,6.01s-3.11,6.47-6.44,6.47c-3.06,0-4.94-1.29-6.25-2.6Z"/>
    <path class="cls-1" d="M383.46,152.22c0-6.42,2.34-9.85,6.15-9.85s6.12,3.46,6.12,9.85-2.31,9.98-6.12,9.98-6.15-3.57-6.15-9.98ZM393.34,152.22c0-5.61-1.5-7.89-3.73-7.89s-3.76,2.28-3.76,7.89,1.5,8.03,3.76,8.03,3.73-2.42,3.73-8.03Z"/>
  </g>
  <g>
    <path class="cls-1" d="M503.85,280.53v1.74h-23.14v-1.74h10.41v-2.55h2.01v2.55h10.71ZM502.83,300.12c0,1.07-.24,1.66-1.07,2.01-.89.29-2.28.29-4.51.29-.11-.54-.38-1.34-.64-1.85,1.72.05,3.22.05,3.7,0,.46,0,.54-.13.54-.51v-7.43h-17.04v9.85h-1.91v-11.54h20.94v9.18ZM499.48,283.77v5.48h-14.36v-5.48h14.36ZM497.49,285.2h-10.47v2.6h10.47v-2.6ZM488.98,300.01v1.34h-1.77v-7h10.15v5.66h-8.37ZM488.98,295.8v2.74h6.6v-2.74h-6.6Z"/>
    <path class="cls-1" d="M515.35,294.05c-.46-.91-1.5-2.68-2.36-4.08v12.48h-1.88v-12.48c-.91,2.93-2.12,5.74-3.38,7.49-.21-.54-.7-1.32-1.05-1.77,1.69-2.25,3.41-6.44,4.24-10.12h-3.73v-1.85h3.92v-5.74h1.88v5.74h3.25v1.85h-3.25v2.04c.81.99,2.98,4.13,3.49,4.91l-1.13,1.53ZM528.23,289.7c-.75,2.42-1.83,4.64-3.3,6.58,1.85,2.01,4.11,3.6,6.68,4.54-.46.38-1.1,1.18-1.37,1.72-2.52-1.05-4.72-2.68-6.58-4.72-1.85,1.99-4.24,3.62-7.19,4.75-.24-.43-.72-1.18-1.05-1.56,2.93-1.1,5.26-2.71,7.06-4.7-1.4-1.88-2.52-4.03-3.35-6.39l1.72-.48c.7,1.93,1.64,3.73,2.84,5.34,1.18-1.66,2.01-3.52,2.55-5.5l1.99.43ZM521.81,285.3c-1.1,2.2-2.82,4.48-4.59,6.07-.3-.38-.94-.94-1.37-1.23,1.69-1.42,3.3-3.65,4.13-5.56l1.83.72ZM531.1,283.77h-14.63v-1.85h6.28v-3.95h1.96v3.95h6.39v1.85ZM527.1,284.5c1.72,1.72,3.62,4.08,4.48,5.69l-1.69.97c-.78-1.58-2.6-4.05-4.35-5.8l1.56-.86Z"/>
    <path class="cls-1" d="M554.14,291.23c-1.4,2.84-3.52,5.05-6.15,6.74,2.85,1.29,6.2,2.15,9.93,2.6-.43.43-.97,1.32-1.21,1.85-4.05-.56-7.65-1.66-10.71-3.33-3.22,1.66-6.95,2.71-10.82,3.33-.21-.48-.78-1.37-1.18-1.77,3.65-.51,7.14-1.34,10.09-2.68-2.2-1.5-4.05-3.35-5.42-5.53l.27-.11h-1.15v-1.85h14.63l.4-.08,1.32.83ZM536.45,291.1h-1.88v-5.42h4.27c-.32-.97-1.07-2.44-1.77-3.54l1.72-.48c.78,1.1,1.58,2.55,1.91,3.52l-1.58.51h11.68c.89-1.34,1.91-3.19,2.5-4.56l2.01.62c-.72,1.32-1.66,2.76-2.47,3.95h4.59v5.42h-1.96v-3.65h-19v3.65ZM555.91,279.5c-5.37,1.13-13.66,1.8-20.61,2.07-.03-.51-.27-1.23-.46-1.69,6.87-.29,15.08-.99,19.67-1.99l1.4,1.61ZM540.8,292.34c1.29,1.85,3.09,3.38,5.26,4.62,2.09-1.21,3.87-2.71,5.1-4.62h-10.36ZM545.49,285.52c-.16-1.05-.72-2.71-1.34-3.95l1.8-.4c.64,1.23,1.24,2.87,1.42,3.89l-1.88.46Z"/>
    <path class="cls-1" d="M560.32,300.36c.94-1.32,1.26-3.68,1.34-5.93l1.26.24c-.13,2.36-.43,4.91-1.48,6.33l-1.13-.64ZM571.62,291.18s0,.51-.03.78c-.27,6.6-.59,8.96-1.21,9.77-.4.46-.8.64-1.42.7-.54.05-1.48.05-2.39,0-.05-.48-.19-1.18-.46-1.58.91.05,1.75.05,2.09.05.32,0,.51-.03.72-.27.27-.35.48-1.26.64-3.3l-.91.38c-.24-.97-.83-2.42-1.45-3.49l.94-.35c.56.99,1.21,2.33,1.45,3.25.11-1.1.19-2.52.27-4.32h-8v-13.69h9.5v1.69h-3.54v2.31h2.98v1.61h-2.98v2.39h2.98v1.61h-2.98v2.47h3.79ZM564.58,294.75c.29,1.58.46,3.57.43,4.88l-1.1.16c.05-1.34-.11-3.33-.38-4.91l1.05-.13ZM563.59,280.79v2.31h2.6v-2.31h-2.6ZM566.19,284.71h-2.6v2.39h2.6v-2.39ZM563.59,291.18h2.6v-2.47h-2.6v2.47ZM566.52,298.96c-.11-1.15-.56-2.95-1.05-4.32l.99-.21c.51,1.34.99,3.14,1.1,4.27l-1.05.27ZM578.94,278c1.61,2.63,4.21,5.18,6.63,6.47-.35.46-.78,1.15-1.05,1.69-2.39-1.5-4.94-4.03-6.39-6.36-1.29,2.28-3.7,4.94-6.33,6.6-.21-.46-.64-1.18-.99-1.56,2.63-1.56,5.18-4.35,6.33-6.84h1.8ZM579.77,295.02c1.05,2.68,2.98,4.8,5.58,5.85-.4.35-.99,1.1-1.26,1.58-2.63-1.23-4.56-3.54-5.69-6.47-.83,2.44-2.6,4.72-6.31,6.5-.27-.4-.83-1.07-1.26-1.4,3.62-1.66,5.23-3.81,5.96-6.07h-4.43v-6.6h4.94v-2.12h-3.19v-1.64h8.29v1.64h-3.33v2.12h5.1v6.6h-4.4ZM577.14,293.49c.13-.89.16-1.77.16-2.63v-.89h-3.25v3.52h3.09ZM579.08,289.97v.91c0,.86-.03,1.74-.13,2.6h3.49v-3.52h-3.36Z"/>
  </g>
</svg>