<?xml version="1.0" encoding="UTF-8"?>
<svg id="Layer_1" data-name="Layer 1" xmlns="http://www.w3.org/2000/svg" viewBox="0 0 1027.12 673.86">
  <defs>
    <style>
      .cls-1, .cls-2 {
        isolation: isolate;
      }

      .cls-1, .cls-3 {
        opacity: .2;
      }

      .cls-4 {
        stroke: #7a4f9f;
      }

      .cls-4, .cls-3 {
        fill: none;
        stroke-miterlimit: 10;
        stroke-width: 11.72px;
      }

      .cls-5 {
        fill: #fff;
      }

      .cls-6 {
        fill: #7a4f9f;
      }

      .cls-3 {
        stroke: #000;
      }
    </style>
  </defs>
  <rect class="cls-5" x="109.47" y="237.92" width="808.2" height="197.98" rx="45.06" ry="45.06" transform="translate(-44.78 80.97) rotate(-8.64)"/>
  <g>
    <g class="cls-1">
      <g class="cls-2">
        <path d="M228.4,350.8l35.3-5.36,8.95,58.87-12.42,1.89-.72-4.73-22.88,3.48,3.88,25.54-12.42,1.89-3.88-25.54-21.6,3.28.81,5.33-11.83,1.8-9.04-59.46,33.43-5.08-2.02-13.31,15.22-1.41c.05,1-.65,1.71-2.38,2.28l1.6,10.55ZM217.69,364.03l-21.6,3.28,1.54,10.16,21.6-3.28-1.54-10.16ZM200.88,398.77l21.6-3.28-1.59-10.45-21.6,3.28,1.59,10.45ZM253,358.66l-22.88,3.48,1.54,10.16,22.88-3.48-1.54-10.16ZM234.9,393.6l22.88-3.48-1.59-10.45-22.88,3.48,1.59,10.45Z"/>
      </g>
      <g class="cls-2">
        <path d="M283.15,331.28c6.64,3.23,14.87,8.23,18.94,12.46l-8.17,9.31c-3.78-4.27-11.88-9.8-18.47-13.34l7.7-8.43ZM302.86,365.41l4.76,31.36c7.63,9.03,19.56,7.22,36.82,4.6,11.34-1.72,24.71-4.06,33.76-6.24-.85,3.06-1.85,9.06-1.92,12.6-7.24,1.5-17.46,3.26-27.13,4.73-22.09,3.36-33.92,5.16-45.21-4.73-3.75,4.5-7.61,9.03-10.91,12.55.17,1.08-.14,1.74-1.08,2.18l-7.99-12.1c3.85-3.21,8.39-7.23,12.2-11.34l-3.18-20.91-11.54,1.75-1.66-10.95,23.08-3.51ZM310.26,329.08l27.32-4.15c5.86,27.96,15.52,51.02,37.8,58.22-2.56,2.41-6.16,7.29-7.89,10.48-13.44-5.42-22.49-15.85-28.97-29.3-2.79,14.85-8.74,27.46-18.86,36.56-2.04-2.11-6.72-5.74-9.59-7.32,12.1-10.01,17.65-26.59,17.92-46.11l4.05.09c-.99-3.18-1.91-6.57-2.73-9.98l-17.36,2.64-1.69-11.14Z"/>
        <path d="M457.73,355.4c-.25.34-.62.6-.98.86-2.96,9.73-8.06,17.97-14.76,25.04,10.17,1.88,21.75,2.35,34.35,1.64-2.23,3.26-4.66,9.18-5.92,12.81-14.98.36-28.22-1.16-39.88-4.84-9.86,6.84-21.67,12.07-34.77,16.18-1.75-2.86-6.02-7.76-8.98-9.94,11.34-3.04,21.75-6.94,30.49-11.8-6.36-3.37-12.16-7.64-17.3-12.91l7.69-4.5-10.35,1.57-1.56-10.26,50.89-7.73,2.09-.82,8.77,3.31-1.78-11.74-64.39,9.79,1.99,13.12-11.04,1.68-3.55-23.37,13.81-2.1c-1.42-2.71-3.64-6.01-5.63-8.53l8.02-3.64c-4.8.93-9.6,1.86-14.32,2.68-.63-2.83-2.7-7.16-4.18-9.56,26.1-4.87,55.62-11.78,73.21-18.19l9.81,8.8c-.36.26-.84.43-1.43.52-.39.06-.9.04-1.41.01-15.54,5.29-37.79,10.89-59.42,15.28,2.81,3.21,5.76,7.4,7.13,10.42l-1.32.6,14.4-2.19c-1.18-3.15-3.11-7.2-5.21-10.41l10.19-3.97c2.57,3.64,5.34,8.57,6.34,11.85l-3.04,1.27,13.41-2.04c1.87-4.93,3.75-11.16,4.54-15.92l14.65,2.11c-.27.85-1.22,1.29-2.6,1.5-1.04,3.08-2.59,6.85-4.17,10.42l14.3-2.17,3.55,23.37-11.64,1.77ZM411.13,367.42c4.69,4.33,10.57,7.78,17.5,10.26,5.1-4.31,9.2-9.17,11.99-14.74l-29.49,4.48Z"/>
      </g>
      <g class="cls-2">
        <path d="M490.13,340.89c-2.4,4.8-4.95,9.23-7.67,13.27-1.63-2.78-5.54-8.54-7.73-11.03,7.65-10.75,14.42-28.62,17.48-45.64l14.12,2.6c-.16.93-.99,1.46-2.58,1.6-1.59,6.8-3.48,13.64-5.8,20.25l4.01.5c-.06.92-.76,1.63-2.31,2.07l9.91,65.18-11.74,1.78-7.69-50.59ZM566.13,307.85l1.78,11.74-11.54,1.75,6.95,45.76c1.78,11.74-1.54,15.07-24.75,18.39-.99-3.18-3.77-8.2-5.94-11.21,4.37-.46,8.92-1.05,12.18-1.55,6.51-.99,7-1.06,6.58-3.83l-6.95-45.76-38.06,5.78-1.78-11.74,38.06-5.78-3.09-20.31,14.7-1.53c.05,1-.44,1.78-2.38,2.28l2.7,17.75,11.54-1.75ZM529,362.33c-3.04-6.1-10.19-15.3-16.54-21.9l9.59-6.6c6.42,6.39,13.87,14.94,17.24,21.19l-10.29,7.31Z"/>
        <path d="M656.47,320.06c-.28.14-.46.27-.76.32-.49.07-1.02-.05-1.46-.28-7.07,3.29-16.35,7.93-23.23,11.8.5,1.94.84,4.21,1.2,6.58.36,2.37.75,4.93.99,7.82l-12.29,2.78c-.26-3.69-.68-7.77-1.21-10.61-7.11,5.01-11.96,10.9-11.4,14.65.66,4.34,6.35,5.29,17.5,3.6,8.68-1.32,18.2-3.07,24.29-4.8l1.93,11.41c-5.04,1.37-13.5,2.76-24.65,4.45-19.03,2.89-29.14.09-31-12.14-1.2-7.89,7.69-18.42,20.52-27.63-.73-2.81-2.61-5.25-5.57-4.8-6.51.99-12.9,5.39-19.6,15.79-1.95,3.12-5.01,7.52-8.62,12.31l-10.07-7.15c3.6-4.18,7.79-9.15,10.29-13.27,3.57-5.69,7.09-15.1,7.91-22.29l-3.73.67c-2.17.33-12.81,2.05-15.29,2.32l-1.69-11.14c5.57-.54,12.67-1.62,17.01-2.28l5.21-.89c.27-4.18.27-8.21.09-13.33l15.31-.81c-.05,1.02-.83,1.84-2.18,2.25-.01,3.23-.35,6.31-.68,9.49,7.76-1.38,19.14-4.83,29.15-9.98l3.74,11.34c-9,4.5-22.43,7.75-34.47,10.18-.98,5.5-2.01,9.99-3.08,12.27l.1-.02c3.13-3.3,7.94-6.15,12.78-6.88,5.72-.87,11.36,2.41,13.98,9.68,7.1-4.41,15.86-9.17,22.52-13.11l6.43,11.74Z"/>
        <path d="M733.11,269.36l8.43,3.06c-.11.62-.61,1.3-1.35,1.72-2.07,9.6-5.78,18.43-10.73,26.35,7.42,4.32,15.65,7.41,24.36,8.91-2.12,2.64-4.83,7.39-6.07,10.51-8.79-2.09-17.11-5.67-24.61-10.59-6.13,7.49-13.45,13.75-21.47,18.7-1.04-1.56-3.19-3.75-5.3-5.65l-4.5,2.9c-.52-1.43-1.17-3.05-2.03-4.74l-5.17,1.19,6.14,40.43-10.36,1.57-4.84-31.85c-.39.76-1.15,1.08-1.95,1.1.24,8.23-.29,18-2.14,24.44-2.38-1.05-6.38-2.16-8.91-2.88,1.64-5.8,1.7-15.39,1.31-23.91l11.65.95-1.17-7.69c-4.39.97-8.31,1.77-11.54,2.36-.15,1.03-.88,1.54-1.55,1.75l-4.16-11.47,7.1-1.08c1.28-2.21,2.62-4.64,3.86-7.14-3.52-3.9-8.96-8.53-13.69-11.74l4.49-8.96,2.47,1.64c2.02-5.96,3.88-13,4.86-18.5l12.26,2.98c-.31.65-1.23,1.2-2.51,1.39-1.64,5.8-4.56,13.81-7.19,19.76,1.39,1.2,2.79,2.4,3.97,3.53,2.6-6.15,4.98-12.36,6.6-17.65l11.91,3.34c-.39.76-1.31,1.31-2.6,1.5-3.38,8.28-8.79,19.19-14,28.06l10.24-1.66c-1.49-2.5-3.26-4.85-4.9-7.02l7.94-4.84c3.97,4.84,8.22,10.96,10.82,16.11,5.78-3.8,11.03-8.44,15.58-13.67-2.9-2.48-5.52-5.11-8.08-8.05-1.82,3.3-3.96,6.45-6.42,9.55-2.15-2.2-6.57-5.36-9.45-6.43,8.64-10.19,13.38-22.82,15.27-32.99l13.74.13c-.06.92-.78,1.53-2.14,1.84-.52,1.9-1.02,3.89-1.62,5.9l15.78-2.4,1.7-.76ZM695.28,348.36c-1.68-5.09-5.59-12.87-8.88-18.63l8.34-4.19c3.49,5.72,7.34,13.11,9.22,18.17l-8.68,4.65ZM744.61,354.99c-9.5-4.1-26.12-8.54-39.61-10.33l5.55-9.32c13.36,1.6,29.73,5.77,39.55,9.32l-5.49,10.32ZM711.74,283.41l-.66,1.61c2.72,3.32,5.93,6.46,9.38,9.27,2.6-4.13,4.76-8.49,6.37-13.18l-15.09,2.29ZM734.06,333.99c-4.99-2.97-14.22-6.62-21.54-8.33l5.48-8.4c7.39,1.5,16.48,4.86,21.72,7.5l-5.66,9.23Z"/>
      </g>
      <g class="cls-2">
        <path d="M828.72,252.42l11.84,4.86c-.27.85-1.27,1.6-2.32,1.97-6.72,10.91-17.57,25.17-28.26,34.46l5.38,35.4c1.8,11.83-2.93,14.57-26.11,18.09-1.23-3.44-4.19-8.34-6.58-11.41,4.68-.41,9.92-1.11,13.57-1.66,6.31-.96,6.8-1.03,6.44-3.4l-6.85-45.07,6.36-.66c5.55-5.28,11.08-12.08,15.29-18.26l-57.79,8.78-1.77-11.64,68.64-10.43,2.16-1.03Z"/>
      </g>
    </g>
    <rect class="cls-3" x="131.62" y="256.72" width="773.18" height="167.38" rx="32.16" ry="32.16" transform="translate(-45.26 81.71) rotate(-8.64)"/>
  </g>
  <g>
    <g class="cls-2">
      <g class="cls-2">
        <path class="cls-6" d="M223.75,347.29l35.3-5.36,8.95,58.87-12.42,1.89-.72-4.73-22.88,3.48,3.88,25.54-12.42,1.89-3.88-25.54-21.6,3.28.81,5.33-11.83,1.8-9.04-59.46,33.43-5.08-2.02-13.31,15.22-1.41c.05,1-.65,1.71-2.38,2.28l1.6,10.55ZM213.05,360.52l-21.6,3.28,1.54,10.16,21.6-3.28-1.54-10.16ZM196.23,395.26l21.6-3.28-1.59-10.45-21.6,3.28,1.59,10.45ZM248.35,355.16l-22.88,3.48,1.54,10.16,22.88-3.48-1.54-10.16ZM230.25,390.09l22.88-3.48-1.59-10.45-22.88,3.48,1.59,10.45Z"/>
      </g>
      <g class="cls-2">
        <path class="cls-6" d="M278.5,327.77c6.64,3.23,14.87,8.23,18.94,12.46l-8.17,9.31c-3.78-4.27-11.88-9.8-18.47-13.34l7.7-8.43ZM298.22,361.91l4.76,31.36c7.63,9.03,19.56,7.22,36.82,4.6,11.34-1.72,24.71-4.06,33.76-6.24-.85,3.06-1.85,9.06-1.92,12.6-7.24,1.5-17.46,3.26-27.13,4.73-22.09,3.36-33.92,5.16-45.21-4.73-3.75,4.5-7.61,9.03-10.91,12.55.17,1.08-.14,1.74-1.08,2.18l-7.99-12.1c3.85-3.21,8.39-7.23,12.2-11.34l-3.18-20.91-11.54,1.75-1.66-10.95,23.08-3.51ZM305.61,325.57l27.32-4.15c5.86,27.96,15.52,51.02,37.8,58.22-2.56,2.41-6.16,7.29-7.89,10.48-13.44-5.42-22.49-15.85-28.97-29.3-2.79,14.85-8.74,27.46-18.86,36.56-2.04-2.11-6.72-5.74-9.59-7.32,12.1-10.01,17.65-26.59,17.92-46.11l4.05.09c-.99-3.18-1.91-6.57-2.73-9.98l-17.36,2.64-1.69-11.14Z"/>
        <path class="cls-6" d="M453.08,351.89c-.25.34-.62.6-.98.86-2.96,9.73-8.06,17.97-14.76,25.04,10.17,1.88,21.75,2.35,34.35,1.64-2.23,3.26-4.66,9.18-5.92,12.81-14.98.36-28.22-1.16-39.88-4.84-9.86,6.84-21.67,12.07-34.77,16.18-1.75-2.86-6.02-7.76-8.98-9.94,11.34-3.04,21.75-6.94,30.49-11.8-6.36-3.37-12.16-7.64-17.3-12.91l7.69-4.5-10.35,1.57-1.56-10.26,50.89-7.73,2.09-.82,8.77,3.31-1.78-11.74-64.39,9.79,1.99,13.12-11.04,1.68-3.55-23.37,13.81-2.1c-1.42-2.71-3.64-6.01-5.63-8.53l8.02-3.64c-4.8.93-9.6,1.86-14.32,2.68-.63-2.83-2.7-7.16-4.18-9.56,26.1-4.87,55.62-11.78,73.21-18.19l9.81,8.8c-.36.26-.84.43-1.43.52-.39.06-.9.04-1.41.01-15.54,5.29-37.79,10.89-59.42,15.28,2.81,3.21,5.76,7.4,7.13,10.42l-1.32.6,14.4-2.19c-1.18-3.15-3.11-7.2-5.21-10.41l10.19-3.97c2.57,3.64,5.34,8.57,6.34,11.85l-3.04,1.27,13.41-2.04c1.87-4.93,3.75-11.16,4.54-15.92l14.65,2.11c-.27.85-1.22,1.29-2.6,1.5-1.04,3.08-2.59,6.85-4.17,10.42l14.3-2.17,3.55,23.37-11.64,1.77ZM406.48,363.92c4.69,4.33,10.57,7.78,17.5,10.26,5.1-4.31,9.2-9.17,11.99-14.74l-29.49,4.48Z"/>
      </g>
      <g class="cls-2">
        <path class="cls-6" d="M485.48,337.38c-2.4,4.8-4.95,9.23-7.67,13.27-1.63-2.78-5.54-8.54-7.73-11.03,7.65-10.75,14.42-28.62,17.48-45.64l14.12,2.6c-.16.93-.99,1.46-2.58,1.6-1.59,6.8-3.48,13.64-5.8,20.25l4.01.5c-.06.92-.76,1.63-2.31,2.07l9.91,65.18-11.74,1.78-7.69-50.59ZM561.48,304.35l1.78,11.74-11.54,1.75,6.95,45.76c1.78,11.74-1.54,15.07-24.75,18.39-.99-3.18-3.77-8.2-5.94-11.21,4.37-.46,8.92-1.05,12.18-1.55,6.51-.99,7-1.06,6.58-3.83l-6.95-45.76-38.06,5.78-1.78-11.74,38.06-5.78-3.09-20.31,14.7-1.53c.05,1-.44,1.78-2.38,2.28l2.7,17.75,11.54-1.75ZM524.36,358.82c-3.04-6.1-10.19-15.3-16.54-21.9l9.59-6.6c6.42,6.39,13.87,14.94,17.24,21.19l-10.29,7.31Z"/>
        <path class="cls-6" d="M651.82,316.55c-.28.14-.46.27-.76.32-.49.07-1.02-.05-1.46-.28-7.07,3.29-16.35,7.93-23.23,11.8.5,1.94.84,4.21,1.2,6.58.36,2.37.75,4.93.99,7.82l-12.29,2.78c-.26-3.69-.68-7.77-1.21-10.61-7.11,5.01-11.96,10.9-11.4,14.65.66,4.34,6.35,5.29,17.5,3.6,8.68-1.32,18.2-3.07,24.29-4.8l1.93,11.41c-5.04,1.37-13.5,2.76-24.65,4.45-19.03,2.89-29.14.09-31-12.14-1.2-7.89,7.69-18.42,20.52-27.63-.73-2.81-2.61-5.25-5.57-4.8-6.51.99-12.9,5.39-19.6,15.79-1.95,3.12-5.01,7.52-8.62,12.31l-10.07-7.15c3.6-4.18,7.79-9.15,10.29-13.27,3.57-5.69,7.09-15.1,7.91-22.29l-3.73.67c-2.17.33-12.81,2.05-15.29,2.32l-1.69-11.14c5.57-.54,12.67-1.62,17.01-2.28l5.21-.89c.27-4.18.27-8.21.09-13.33l15.31-.81c-.05,1.02-.83,1.84-2.18,2.25-.01,3.23-.35,6.31-.68,9.49,7.76-1.38,19.14-4.83,29.15-9.98l3.74,11.34c-9,4.5-22.43,7.75-34.47,10.18-.98,5.5-2.01,9.99-3.08,12.27l.1-.02c3.13-3.3,7.94-6.15,12.78-6.88,5.72-.87,11.36,2.41,13.98,9.68,7.1-4.41,15.86-9.17,22.52-13.11l6.43,11.74Z"/>
        <path class="cls-6" d="M728.47,265.86l8.43,3.06c-.11.62-.61,1.3-1.35,1.72-2.07,9.6-5.78,18.43-10.73,26.35,7.42,4.32,15.65,7.41,24.36,8.91-2.12,2.64-4.83,7.39-6.07,10.51-8.79-2.09-17.11-5.67-24.61-10.59-6.13,7.49-13.45,13.75-21.47,18.7-1.04-1.56-3.19-3.75-5.3-5.65l-4.5,2.9c-.52-1.43-1.17-3.05-2.03-4.74l-5.17,1.19,6.14,40.43-10.36,1.57-4.84-31.85c-.39.76-1.15,1.08-1.95,1.1.24,8.23-.29,18-2.14,24.44-2.38-1.05-6.38-2.16-8.91-2.88,1.64-5.8,1.7-15.39,1.31-23.91l11.65.95-1.17-7.69c-4.39.97-8.31,1.77-11.54,2.36-.15,1.03-.88,1.54-1.55,1.75l-4.16-11.47,7.1-1.08c1.28-2.21,2.62-4.64,3.86-7.14-3.52-3.9-8.96-8.53-13.69-11.74l4.49-8.96,2.47,1.64c2.02-5.96,3.88-13,4.86-18.5l12.26,2.98c-.31.65-1.23,1.2-2.51,1.39-1.64,5.8-4.56,13.81-7.19,19.76,1.39,1.2,2.79,2.4,3.97,3.53,2.6-6.15,4.98-12.36,6.6-17.65l11.91,3.34c-.39.76-1.31,1.31-2.6,1.5-3.38,8.28-8.79,19.19-14,28.06l10.24-1.66c-1.49-2.5-3.26-4.85-4.9-7.02l7.94-4.84c3.97,4.84,8.22,10.96,10.82,16.11,5.78-3.8,11.03-8.44,15.58-13.67-2.9-2.48-5.52-5.11-8.08-8.05-1.82,3.3-3.96,6.45-6.42,9.55-2.15-2.2-6.57-5.36-9.45-6.43,8.64-10.19,13.38-22.82,15.27-32.99l13.74.13c-.06.92-.78,1.53-2.14,1.84-.52,1.9-1.02,3.89-1.62,5.9l15.78-2.4,1.7-.76ZM690.63,344.85c-1.68-5.09-5.59-12.87-8.88-18.63l8.34-4.19c3.49,5.72,7.34,13.11,9.22,18.17l-8.68,4.65ZM739.96,351.48c-9.5-4.1-26.12-8.54-39.61-10.33l5.55-9.32c13.36,1.6,29.73,5.77,39.55,9.32l-5.49,10.32ZM707.09,279.9l-.66,1.61c2.72,3.32,5.93,6.46,9.38,9.27,2.6-4.13,4.76-8.49,6.37-13.18l-15.09,2.29ZM729.41,330.49c-4.99-2.97-14.22-6.62-21.54-8.33l5.48-8.4c7.39,1.5,16.48,4.86,21.72,7.5l-5.66,9.23Z"/>
      </g>
      <g class="cls-2">
        <path class="cls-6" d="M824.07,248.91l11.84,4.86c-.27.85-1.27,1.6-2.32,1.97-6.72,10.91-17.57,25.17-28.26,34.46l5.38,35.4c1.8,11.83-2.93,14.57-26.11,18.09-1.23-3.44-4.19-8.34-6.58-11.41,4.68-.41,9.92-1.11,13.57-1.66,6.31-.96,6.8-1.03,6.44-3.4l-6.85-45.07,6.36-.66c5.55-5.28,11.08-12.08,15.29-18.26l-57.79,8.78-1.77-11.64,68.64-10.43,2.16-1.03Z"/>
      </g>
    </g>
    <rect class="cls-4" x="126.98" y="253.22" width="773.18" height="167.38" rx="32.16" ry="32.16" transform="translate(-44.78 80.97) rotate(-8.64)"/>
  </g>
</svg>