<?xml version="1.0" encoding="UTF-8"?><svg id="Layer_4_copy" xmlns="http://www.w3.org/2000/svg" viewBox="0 0 16.34 27.74"><defs><style>.cls-1{fill:#000;stroke-width:0px;}</style></defs><path class="cls-1" d="m2.81,0c.36.11.64.31.9.58,4.01,4.02,8.02,8.03,12.03,12.04.79.79.8,1.68.01,2.46-4.03,4.03-8.06,8.06-12.09,12.09-.61.61-1.36.73-2.01.34-.23-.14-.4-.34-.58-.52-.22-.22-.45-.44-.66-.67-.51-.57-.53-1.39-.06-1.98.09-.12.2-.23.31-.34,3.28-3.28,6.56-6.56,9.84-9.84q.3-.3,0-.6C7.2,10.27,3.91,6.97.62,3.68.22,3.29-.03,2.85.03,2.27c.03-.35.17-.65.4-.89.32-.33.65-.65.97-.98.2-.2.45-.29.7-.39h.7Z"/></svg>