<?xml version="1.0" encoding="utf-8"?>
<!-- Generator: Adobe Illustrator 28.0.0, SVG Export Plug-In . SVG Version: 6.00 Build 0)  -->
<svg version="1.1" id="Layer_1" xmlns="http://www.w3.org/2000/svg" xmlns:xlink="http://www.w3.org/1999/xlink" x="0px" y="0px"
	 viewBox="0 0 1237.1 1160.3" style="enable-background:new 0 0 1237.1 1160.3;" xml:space="preserve">
<style type="text/css">
	.st0{fill:#EF8006;}
	.st1{fill:none;stroke:#EF8006;stroke-width:9;stroke-miterlimit:10;}
	.st2{fill:#62574B;}
</style>
<g>
	<g>
		<path class="st0" d="M748.2,39h97.4c1.4,0,2.5-1.1,2.5-2.5v0c0-1.4-1.1-2.5-2.5-2.5h-97.6c0.1,1.2,0.2,2.5,0.3,3.7
			C748.2,38.1,748.2,38.6,748.2,39z"/>
		<path class="st0" d="M845.6,41.5h-99.8l0-2.9c0-0.3,0-0.5,0-0.8c0-1.1-0.1-2.2-0.3-3.6l-0.3-2.7h100.4c2.8,0,5,2.2,5,5
			S848.4,41.5,845.6,41.5z"/>
	</g>
	<g>
		<path class="st0" d="M253.3,39H494c-0.2-1.7-0.4-3.3-0.4-5H253.3c-1.4,0-2.5,1.1-2.5,2.5v0C250.8,37.9,251.9,39,253.3,39z"/>
		<path class="st0" d="M496.8,41.5H253.3c-2.8,0-5-2.2-5-5s2.2-5,5-5h242.6l0.1,2.4c0.1,1.6,0.2,3.3,0.4,4.8L496.8,41.5z
			 M253.3,36.5h237.9H253.3z"/>
	</g>
	<g>
		<path class="st0" d="M983.8,303.5l24.3-4.2c1.4-0.2,2.3-1.6,2-2.9l0,0c-0.3-1.3-1.5-2.2-2.9-2l-24.3,4.2c-1.4,0.2-2.3,1.6-2,2.9v0
			C981.2,302.8,982.5,303.7,983.8,303.5z"/>
		<path class="st0" d="M983.4,306c-2.4,0-4.5-1.7-4.9-4.1c-0.3-1.3,0-2.7,0.8-3.8c0.8-1.1,1.9-1.8,3.3-2.1l24.3-4.2
			c2.7-0.5,5.3,1.3,5.8,4c0.3,1.3,0,2.7-0.8,3.8s-1.9,1.8-3.3,2.1l-24.3,4.2C984,306,983.7,306,983.4,306z M983.4,301L983.4,301
			l0.4,2.5L983.4,301z"/>
	</g>
	<g>
		<path class="st0" d="M146.9,36.5L146.9,36.5c0,1.4,1.1,2.5,2.5,2.5h62.9c1.4,0,2.5-1.1,2.5-2.5v0c0-1.4-1.1-2.5-2.5-2.5h-62.9
			C148,34,146.9,35.1,146.9,36.5z"/>
		<path class="st0" d="M212.3,41.5h-62.9c-2.8,0-5-2.2-5-5s2.2-5,5-5h62.9c2.8,0,5,2.2,5,5S215.1,41.5,212.3,41.5z M149.4,36.5
			L149.4,36.5h62.9H149.4z"/>
	</g>
	<g>
		<path class="st0" d="M886.6,39h316.7c13.4,0,24.2,10.8,24.2,24.2v43.2c0,1.4,1.1,2.5,2.5,2.5l0,0c1.4,0,2.5-1.1,2.5-2.5V63.2
			c0-16.1-13.1-29.2-29.2-29.2H886.6c-1.4,0-2.5,1.1-2.5,2.5v0C884.1,37.9,885.2,39,886.6,39z"/>
		<path class="st0" d="M1230,111.4c-2.8,0-5-2.2-5-5V63.2c0-12-9.7-21.7-21.7-21.7H886.6c-2.8,0-5-2.2-5-5s2.2-5,5-5h316.7
			c17.5,0,31.7,14.2,31.7,31.7v43.2C1235,109.1,1232.7,111.4,1230,111.4z M886.6,36.5h316.7c14.7,0,26.7,12,26.7,26.7
			c0-14.7-12-26.7-26.7-26.7H886.6z"/>
	</g>
	<g>
		<path class="st0" d="M121.4,277.6c0.2-1.4-0.7-2.6-2-2.9l-78.7-13.5c-16.9-2.9-29.1-17.4-29.1-34.6V115.3c0-1.4-1.1-2.5-2.5-2.5h0
			c-1.4,0-2.5,1.1-2.5,2.5v111.3c0,19.6,14,36.2,33.3,39.5l78.7,13.5C119.9,279.9,121.2,279,121.4,277.6L121.4,277.6z"/>
		<path class="st0" d="M119,282.2c-0.3,0-0.6,0-0.9-0.1l-78.7-13.5C18.9,265.1,4,247.5,4,226.7V115.3c0-2.8,2.2-5,5-5s5,2.2,5,5
			v111.3c0,15.9,11.4,29.4,27.1,32.1l78.7,13.5c2.7,0.5,4.5,3,4.1,5.8c-0.2,1.3-0.9,2.5-2,3.2C121,281.9,120,282.2,119,282.2z
			 M43.6,264.3l75.4,13l0,0L43.6,264.3z M9,226.7c0,13,6.6,24.5,16.8,31.3C15.6,251.2,9,239.6,9,226.7z"/>
	</g>
	<g>
		<path class="st0" d="M436.4,331.7L436.4,331.7c0.2-1.4-0.7-2.6-2-2.9l-274.5-47.1c-1.4-0.2-2.7,0.7-2.9,2l0,0
			c-0.2,1.4,0.7,2.6,2,2.9l274.5,47.1C434.8,334,436.1,333.1,436.4,331.7z"/>
		<path class="st0" d="M433.9,336.3c-0.3,0-0.6,0-0.9-0.1l-274.5-47.1c-2.7-0.5-4.5-3-4.1-5.8c0.2-1.3,0.9-2.5,2-3.2
			c1.1-0.8,2.4-1.1,3.7-0.8l274.5,47.1c2.7,0.5,4.5,3,4.1,5.8c-0.2,1.3-0.9,2.5-2,3.2C435.9,336,434.9,336.3,433.9,336.3z
			 M159.4,284.2l274.5,47.1l0,0L159.4,284.2z"/>
	</g>
	<g>
		<path class="st0" d="M945.5,307.5c-0.3-1.3-1.5-2.2-2.9-2l-312.9,54.1c-5.2,0.9-10.5,0.9-15.7,0l-139.3-23.9
			c-1.4-0.2-2.7,0.7-2.9,2l0,0c-0.2,1.4,0.7,2.6,2,2.9l139.3,23.9c2.9,0.5,5.8,0.7,8.6,0.7c2.9,0,5.8-0.2,8.7-0.8l312.9-54.1
			C944.8,310.2,945.8,308.9,945.5,307.5L945.5,307.5z"/>
		<path class="st0" d="M621.8,367.8c-3,0-6.1-0.3-9.1-0.8l-139.3-23.9c-2.7-0.5-4.5-3-4.1-5.8c0.2-1.3,0.9-2.5,2-3.2
			c1.1-0.8,2.4-1.1,3.7-0.8l139.3,23.9c4.9,0.8,9.9,0.8,14.8,0l312.9-54.1c2.7-0.5,5.3,1.3,5.8,4v0c0.3,1.3,0,2.7-0.8,3.8
			c-0.8,1.1-1.9,1.8-3.3,2.1l-312.9,54.1C627.9,367.6,624.9,367.8,621.8,367.8z M619.5,362.8c3.6,0.2,7.1,0,10.6-0.7L943,308l0,0
			l-312.9,54.1C626.6,362.7,623,363,619.5,362.8z"/>
	</g>
	<g>
		<path class="st0" d="M1230,144.9c-1.4,0-2.5,1.1-2.5,2.5v79.4c0,17.1-12.2,31.6-29.1,34.6l-150.7,26.1c-1.4,0.2-2.3,1.6-2,2.9l0,0
			c0.3,1.3,1.5,2.2,2.9,2l150.7-26.1c19.3-3.3,33.2-19.9,33.2-39.5v-79.4C1232.5,146,1231.3,144.9,1230,144.9L1230,144.9z"/>
		<path class="st0" d="M1048.1,294.8c-2.4,0-4.5-1.7-4.9-4.1c-0.3-1.3,0-2.7,0.8-3.8c0.8-1.1,1.9-1.8,3.3-2.1l150.7-26.1
			c15.7-2.7,27-16.2,27-32.1v-79.4c0-2.8,2.2-5,5-5s5,2.2,5,5v79.4c0,20.8-14.9,38.4-35.3,41.9l-150.7,26.1
			C1048.6,294.8,1048.3,294.8,1048.1,294.8z M1230,147.4L1230,147.4v79.4V147.4z"/>
	</g>
	<g>
		<path class="st0" d="M11.5,74.4V63.2C11.5,49.8,22.4,39,35.7,39h72.7c1.4,0,2.5-1.1,2.5-2.5v0c0-1.4-1.1-2.5-2.5-2.5H35.7
			C19.6,34,6.5,47.1,6.5,63.2v11.2c0,1.4,1.1,2.5,2.5,2.5h0C10.4,76.9,11.5,75.7,11.5,74.4z"/>
		<path class="st0" d="M9,79.4c-2.8,0-5-2.2-5-5V63.2c0-17.5,14.2-31.7,31.7-31.7h72.7c2.8,0,5,2.2,5,5s-2.2,5-5,5H35.7
			c-12,0-21.7,9.7-21.7,21.7v11.2C14,77.1,11.8,79.4,9,79.4z"/>
	</g>
</g>
<g>
	<g>
		<path class="st0" d="M788.5,974.6h148.6c1.4,0,2.5-1.1,2.5-2.5l0,0c0-1.4-1.1-2.5-2.5-2.5H788.3c0.1,0.8,0.1,1.6,0.1,2.4
			C788.5,972.8,788.5,973.7,788.5,974.6z"/>
		<path class="st0" d="M937.1,977.1H785.9l0.1-2.6c0-0.8,0-1.7,0-2.4c0-0.8-0.1-1.5-0.1-2.3l-0.2-2.7h151.5c2.8,0,5,2.2,5,5
			S939.9,977.1,937.1,977.1z"/>
	</g>
	<g>
		<path class="st0" d="M832.5,1152.2H554.6c-1.4,0-2.5,1.1-2.5,2.5l0,0c0,1.4,1.1,2.5,2.5,2.5h277.9c1.4,0,2.5-1.1,2.5-2.5l0,0
			C835,1153.3,833.9,1152.2,832.5,1152.2z"/>
		<path class="st0" d="M832.5,1159.7H554.6c-2.8,0-5-2.2-5-5s2.2-5,5-5h277.9c2.8,0,5,2.2,5,5S835.3,1159.7,832.5,1159.7z
			 M554.6,1154.7h277.9H554.6z"/>
	</g>
	<g>
		<path class="st0" d="M975.6,972.1L975.6,972.1c0,1.4,1.1,2.5,2.5,2.5h56.3c1.4,0,2.5-1.1,2.5-2.5l0,0c0-1.4-1.1-2.5-2.5-2.5h-56.3
			C976.7,969.6,975.6,970.7,975.6,972.1z"/>
		<path class="st0" d="M1034.4,977.1h-56.3c-2.8,0-5-2.2-5-5s2.2-5,5-5h56.3c2.8,0,5,2.2,5,5S1037.2,977.1,1034.4,977.1z
			 M978.1,972.1h56.3H978.1z"/>
	</g>
	<g>
		<path class="st0" d="M1072.9,972.1c0,1.4,1.1,2.5,2.5,2.5h130.8c13.4,0,24.3,10.9,24.3,24.2v54.6c0,1.4,1.1,2.5,2.5,2.5l0,0
			c1.4,0,2.5-1.1,2.5-2.5v-54.6c0-16.1-13.2-29.2-29.3-29.2h-130.8C1074,969.6,1072.9,970.7,1072.9,972.1L1072.9,972.1z"/>
		<path class="st0" d="M1233.1,1058.4c-2.8,0-5-2.2-5-5v-54.6c0-12-9.8-21.7-21.8-21.7h-130.8c-2.8,0-5-2.2-5-5s2.2-5,5-5h130.8
			c17.6,0,31.8,14.2,31.8,31.7v54.6C1238.1,1056.1,1235.8,1058.4,1233.1,1058.4z M1206.2,972.1c14.8,0,26.8,12,26.8,26.7
			C1233.1,984.1,1221,972.1,1206.2,972.1l-130.8,0L1206.2,972.1z"/>
	</g>
	<g>
		<path class="st0" d="M5.9,1039.4c1.4,0,2.5-1.1,2.5-2.5v-38.1c0-13.3,10.9-24.2,24.3-24.2H338c1.4,0,2.5-1.1,2.5-2.5l0,0
			c0-1.4-1.1-2.5-2.5-2.5H32.8c-16.2,0-29.3,13.1-29.3,29.2v38.1C3.4,1038.3,4.6,1039.4,5.9,1039.4L5.9,1039.4z"/>
		<path class="st0" d="M5.9,1041.9c-2.8,0-5-2.2-5-5v-38.1c0-17.5,14.3-31.7,31.8-31.7H338c2.8,0,5,2.2,5,5s-2.2,5-5,5H32.8
			c-12,0-21.8,9.7-21.8,21.7v38.1C10.9,1039.7,8.7,1041.9,5.9,1041.9z M5.9,998.8l0,38.1L5.9,998.8z"/>
	</g>
	<g>
		<path class="st0" d="M453.8,1157.2h59.8c1.4,0,2.5-1.1,2.5-2.5l0,0c0-1.4-1.1-2.5-2.5-2.5h-59.8c-1.4,0-2.5,1.1-2.5,2.5l0,0
			C451.3,1156.1,452.4,1157.2,453.8,1157.2z"/>
		<path class="st0" d="M513.7,1159.7h-59.8c-2.8,0-5-2.2-5-5s2.2-5,5-5h59.8c2.8,0,5,2.2,5,5S516.4,1159.7,513.7,1159.7z
			 M453.8,1154.7h59.8H453.8z"/>
	</g>
	<g>
		<path class="st0" d="M415.4,1154.7c0-1.4-1.1-2.5-2.5-2.5H32.8c-13.4,0-24.3-10.9-24.3-24.2v-50.1c0-1.4-1.1-2.5-2.5-2.5h0
			c-1.4,0-2.5,1.1-2.5,2.5v50.1c0,16.1,13.2,29.2,29.3,29.2h380.1C414.2,1157.2,415.4,1156.1,415.4,1154.7L415.4,1154.7z"/>
		<path class="st0" d="M412.9,1159.7H32.8c-17.6,0-31.8-14.2-31.8-31.7v-50.1c0-2.8,2.2-5,5-5s5,2.2,5,5v50.1
			c0,12,9.8,21.7,21.8,21.7h380.1c2.8,0,5,2.2,5,5S415.6,1159.7,412.9,1159.7z M5.9,1128c0,14.7,12,26.7,26.8,26.7h380.1v0l-380.1,0
			C18,1154.7,5.9,1142.7,5.9,1128z"/>
	</g>
	<g>
		<path class="st0" d="M1233.1,1091.8c-1.4,0-2.5,1.1-2.5,2.5v33.6c0,13.3-10.9,24.2-24.3,24.2H873.5c-1.4,0-2.5,1.1-2.5,2.5l0,0
			c0,1.4,1.1,2.5,2.5,2.5h332.7c16.2,0,29.3-13.1,29.3-29.2v-33.6C1235.6,1093,1234.4,1091.8,1233.1,1091.8L1233.1,1091.8z"/>
		<path class="st0" d="M1206.2,1159.7H873.5c-2.8,0-5-2.2-5-5s2.2-5,5-5h332.7c12,0,21.8-9.7,21.8-21.7v-33.6c0-2.8,2.2-5,5-5
			s5,2.2,5,5v33.6C1238.1,1145.4,1223.8,1159.7,1206.2,1159.7z M873.5,1154.7h332.7H873.5z M1233.1,1094.3L1233.1,1094.3v33.6
			V1094.3z"/>
	</g>
	<g>
		<path class="st0" d="M378.9,974.6H451c-0.2-1.7-0.4-3.3-0.5-5h-71.6c-1.4,0-2.5,1.1-2.5,2.5l0,0
			C376.4,973.5,377.5,974.6,378.9,974.6z"/>
		<path class="st0" d="M453.9,977.1h-75c-2.8,0-5-2.2-5-5s2.2-5,5-5h73.9l0.2,2.3c0.1,1.6,0.3,3.2,0.5,4.8L453.9,977.1z
			 M378.9,972.1h69.3H378.9z"/>
	</g>
</g>
<g>
	<g>
		<path class="st0" d="M280.3,458.2h112.1c-0.1-1.2-0.2-2.4-0.3-3.6c0-0.5,0-0.9,0-1.4H280.3c-1.4,0-2.5,1.1-2.5,2.5l0,0
			C277.8,457.1,278.9,458.2,280.3,458.2z"/>
		<path class="st0" d="M395.1,460.7H280.3c-2.8,0-5-2.2-5-5s2.2-5,5-5h114.3l0,2.9c0,0.3,0,0.6,0,0.9c0,1,0.1,2.1,0.3,3.5
			L395.1,460.7z M280.3,455.7h109.4H280.3z"/>
	</g>
	<g>
		<path class="st0" d="M595.3,570.1v-80.8c-1.7-0.1-3.4-0.3-5-0.5v81.4c0,1.4,1.1,2.5,2.5,2.5l0,0
			C594.2,572.6,595.3,571.5,595.3,570.1z"/>
		<path class="st0" d="M592.8,575.1c-2.8,0-5-2.2-5-5v-84.3l2.9,0.5c1.5,0.2,3.1,0.4,4.8,0.5l2.4,0.1v83.2
			C597.8,572.9,595.6,575.1,592.8,575.1z"/>
	</g>
	<g>
		<path class="st0" d="M648.7,583.1v-95.5c-1.7-0.1-3.4-0.2-5-0.4v95.9c0,1.4,1.1,2.5,2.5,2.5l0,0
			C647.5,585.6,648.7,584.5,648.7,583.1z"/>
		<path class="st0" d="M646.2,588.1c-2.8,0-5-2.2-5-5v-98.8l2.8,0.4c1.6,0.2,3.2,0.4,4.8,0.4l2.4,0.1v97.9
			C651.2,585.9,648.9,588.1,646.2,588.1z"/>
	</g>
	<g>
		<path class="st0" d="M1136.8,458.2h69.6c13.4,0,24.2,10.8,24.2,24.2v123.7c0,1.4,1.1,2.5,2.5,2.5l0,0c1.4,0,2.5-1.1,2.5-2.5V482.4
			c0-16.1-13.1-29.2-29.2-29.2h-69.6c-1.4,0-2.5,1.1-2.5,2.5l0,0C1134.3,457.1,1135.4,458.2,1136.8,458.2z"/>
		<path class="st0" d="M1233.1,611.1c-2.8,0-5-2.2-5-5V482.4c0-12-9.7-21.7-21.7-21.7h-69.6c-2.8,0-5-2.2-5-5s2.2-5,5-5h69.6
			c17.5,0,31.7,14.2,31.7,31.7v123.7C1238.1,608.8,1235.8,611.1,1233.1,611.1z M1136.8,455.7h69.6c14.7,0,26.7,12,26.7,26.7
			c0-14.7-12-26.7-26.7-26.7H1136.8z"/>
	</g>
	<g>
		<path class="st0" d="M646.2,672.2L646.2,672.2c1.4,0,2.5-1.1,2.5-2.5v-45.6c0-1.4-1.1-2.5-2.5-2.5l0,0c-1.4,0-2.5,1.1-2.5,2.5
			v45.6C643.7,671.1,644.8,672.2,646.2,672.2z"/>
		<path class="st0" d="M646.2,674.7c-2.8,0-5-2.2-5-5v-45.6c0-2.8,2.2-5,5-5s5,2.2,5,5v45.6C651.2,672.5,648.9,674.7,646.2,674.7z
			 M646.2,624.1l0,45.6L646.2,624.1z"/>
	</g>
	<g>
		<path class="st0" d="M848.4,458.2h247.4c1.4,0,2.5-1.1,2.5-2.5l0,0c0-1.4-1.1-2.5-2.5-2.5H848.4c0,0.5,0.1,0.9,0.1,1.4
			C848.5,455.8,848.5,457,848.4,458.2z"/>
		<path class="st0" d="M1095.8,460.7h-250l0.1-2.6c0.1-1.3,0.1-2.4,0-3.3c0-0.3,0-0.6-0.1-0.9l-0.2-3.1h250.1c2.8,0,5,2.2,5,5
			S1098.5,460.7,1095.8,460.7z"/>
	</g>
	<g>
		<path class="st0" d="M497.6,822.6c-0.5-1.2-1.9-1.8-3.1-1.3L314.8,885c-9.9,3.5-20.9,3.5-30.8,0l-80.2-28.5
			c-1.3-0.5-2.7,0.2-3.2,1.5l0,0c-0.5,1.3,0.2,2.8,1.5,3.3l80.2,28.5c5.5,2,11.3,2.9,17.1,2.9s11.6-1,17.1-2.9L496.2,826
			C497.5,825.5,498.2,824,497.6,822.6L497.6,822.6z"/>
		<path class="st0" d="M299.4,895.2c-6.1,0-12.2-1-17.9-3.1l-80.2-28.5c-1.3-0.5-2.3-1.4-2.9-2.6s-0.6-2.6-0.1-3.9
			c1-2.6,3.8-3.8,6.3-2.9l80.2,28.5c9.4,3.3,19.7,3.3,29.1,0L493.7,819c2.4-0.9,5.2,0.3,6.2,2.7l0,0c0.6,1.3,0.6,2.7,0,4
			c-0.5,1.3-1.6,2.3-2.9,2.7l-179.7,63.7C311.6,894.1,305.5,895.2,299.4,895.2z M202.9,858.9l80.2,28.5c5.2,1.8,10.7,2.8,16.2,2.8
			s11-0.9,16.2-2.8l179.7-63.7l0,0l-179.7,63.7c-10.5,3.7-22,3.7-32.5,0L202.9,858.9z"/>
	</g>
	<g>
		<path class="st0" d="M592.8,608.6c-1.4,0-2.5,1.1-2.5,2.5v151.5c0,14.8-9.4,28.1-23.3,33.1l-33.8,12c-1.4,0.5-2,2-1.4,3.4l0,0
			c0.5,1.2,1.9,1.8,3.1,1.3l33.8-12c16-5.7,26.7-20.8,26.7-37.8V611.1C595.3,609.7,594.2,608.6,592.8,608.6L592.8,608.6z"/>
		<path class="st0" d="M534.1,814.9c-1.9,0-3.8-1.1-4.6-3c-0.6-1.3-0.6-2.7,0-4s1.6-2.3,2.9-2.7l33.8-12c13-4.6,21.7-16.9,21.7-30.7
			V611.1c0-2.8,2.2-5,5-5s5,2.2,5,5v151.5c0,18-11.4,34.1-28.3,40.1l-33.8,12C535.2,814.8,534.6,814.9,534.1,814.9z M581,789.9
			c-3.7,3.5-8.1,6.2-13.1,8l-33.8,12l33.8-12C572.8,796.2,577.3,793.4,581,789.9z M592.8,611.1L592.8,611.1v151.5V611.1z"/>
	</g>
	<g>
		<path class="st0" d="M8.4,531.9v-49.5c0-13.4,10.8-24.2,24.2-24.2h206.6c1.4,0,2.5-1.1,2.5-2.5l0,0c0-1.4-1.1-2.5-2.5-2.5H32.6
			c-16.1,0-29.2,13.1-29.2,29.2v49.5c0,1.4,1.1,2.5,2.5,2.5h0C7.3,534.4,8.4,533.2,8.4,531.9z"/>
		<path class="st0" d="M5.9,536.9c-2.8,0-5-2.2-5-5v-49.5c0-17.5,14.2-31.7,31.7-31.7h206.6c2.8,0,5,2.2,5,5s-2.2,5-5,5H32.6
			c-12,0-21.7,9.7-21.7,21.7v49.5C10.9,534.6,8.7,536.9,5.9,536.9z"/>
	</g>
	<g>
		<path class="st0" d="M1233.1,644.6c-1.4,0-2.5,1.1-2.5,2.5v115.5c0,14.8-9.4,28.1-23.3,33.1l-127.5,45.2c-1.4,0.5-2,2-1.4,3.4l0,0
			c0.5,1.2,1.9,1.8,3.1,1.3l127.5-45.2c16-5.7,26.7-20.8,26.7-37.8V647.1C1235.6,645.7,1234.4,644.6,1233.1,644.6L1233.1,644.6z"/>
		<path class="st0" d="M1080.6,848.2c-1.9,0-3.8-1.1-4.6-3c-0.6-1.3-0.6-2.7,0-4c0.5-1.3,1.6-2.3,2.9-2.7l127.5-45.2
			c13-4.6,21.7-16.9,21.7-30.7V647.1c0-2.8,2.2-5,5-5s5,2.2,5,5v115.5c0,18-11.4,34.1-28.3,40.1l-127.5,45.2
			C1081.7,848.1,1081.1,848.2,1080.6,848.2z M1214.9,794.7c-2.1,1.3-4.4,2.4-6.8,3.2l-127.5,45.2L1208,798
			C1210.4,797.1,1212.7,796,1214.9,794.7z M1233.1,647.1L1233.1,647.1v115.5V647.1z"/>
	</g>
	<g>
		<path class="st0" d="M1044.1,855.9c-0.5-1.2-1.9-1.8-3.1-1.3L955,885c-9.9,3.5-20.9,3.5-30.8,0L672,795.6
			c-14-5-23.3-18.2-23.3-33.1v-51.9c0-1.4-1.1-2.5-2.5-2.5l0,0c-1.4,0-2.5,1.1-2.5,2.5v51.9c0,16.9,10.7,32.1,26.7,37.8l252.2,89.4
			c5.5,2,11.3,2.9,17.1,2.9c5.8,0,11.6-1,17.1-2.9l86-30.5C1044,858.8,1044.7,857.2,1044.1,855.9L1044.1,855.9z"/>
		<path class="st0" d="M939.6,895.2c-6.1,0-12.2-1-17.9-3.1l-252.2-89.4c-17-6-28.3-22.1-28.3-40.1v-51.9c0-2.8,2.2-5,5-5s5,2.2,5,5
			v51.9c0,13.8,8.7,26.1,21.7,30.7l252.2,89.4c9.4,3.3,19.7,3.3,29.1,0l86-30.5c2.4-0.9,5.2,0.3,6.2,2.7l0,0c0.6,1.3,0.6,2.7,0,4
			s-1.6,2.3-2.9,2.7l-86,30.5C951.8,894.1,945.8,895.2,939.6,895.2z M664.9,795c2,1.1,4.1,2.1,6.3,2.9l252.2,89.4
			c5.2,1.8,10.7,2.8,16.2,2.8c5.6,0,11-0.9,16.2-2.8l86-30.5l0,0l-86,30.5c-10.5,3.7-22,3.7-32.5,0L671.2,798
			C669,797.2,666.9,796.2,664.9,795z"/>
	</g>
	<g>
		<path class="st0" d="M166.6,846.1L166.6,846.1c0.5-1.3-0.2-2.8-1.5-3.3l-50.8-18c-1.3-0.5-2.7,0.2-3.2,1.5l0,0
			c-0.5,1.3,0.2,2.8,1.5,3.3l50.8,18C164.7,848,166.1,847.4,166.6,846.1z"/>
		<path class="st0" d="M164.3,850.2c-0.6,0-1.1-0.1-1.7-0.3l-50.8-18c-1.3-0.5-2.3-1.4-2.9-2.6s-0.6-2.6-0.1-3.9
			c1-2.6,3.8-3.8,6.3-2.9l50.8,18c1.3,0.5,2.3,1.4,2.9,2.6s0.6,2.6,0.1,3.9l0,0C168.2,849,166.3,850.2,164.3,850.2z M113.5,827.2
			l50.8,18l2.3,0.9l-2.3-0.9l0,0L113.5,827.2z"/>
	</g>
	<g>
		<path class="st0" d="M77.2,814.4c0.5-1.3-0.2-2.8-1.5-3.3l-43.9-15.6c-14-5-23.3-18.2-23.3-33.1V572.8c0-1.4-1.1-2.5-2.5-2.5h0
			c-1.4,0-2.5,1.1-2.5,2.5v189.7c0,17,10.7,32.1,26.7,37.8L74,815.9C75.3,816.3,76.7,815.7,77.2,814.4L77.2,814.4z"/>
		<path class="st0" d="M74.9,818.5c-0.6,0-1.1-0.1-1.7-0.3l-43.9-15.6c-17-6-28.3-22.1-28.3-40.1V572.8c0-2.8,2.2-5,5-5s5,2.2,5,5
			v189.7c0,13.8,8.7,26.1,21.7,30.7l43.9,15.6c1.3,0.5,2.3,1.4,2.9,2.6s0.6,2.6,0.1,3.9C78.8,817.3,76.9,818.5,74.9,818.5z
			 M24.1,794.7c2.2,1.3,4.5,2.4,6.9,3.3l43.9,15.6l2.3,0.9l-2.3-0.9l0,0L31,798C28.5,797.1,26.2,796,24.1,794.7z"/>
	</g>
</g>
<g>
	<g>
		<path class="st0" d="M581.3,23.9h4.7v9.3h9v-9.3h4.7v23.7H595V37.4h-9v10.2h-4.7V23.9z"/>
		<path class="st0" d="M604.1,38.6c0-5.8,4.1-9.4,8.4-9.4c4.9,0,7.5,3.6,7.5,8.5c0,0.9-0.1,1.8-0.2,2.2h-11c0.4,2.9,2.3,4.5,5,4.5
			c1.5,0,2.8-0.4,4-1.2l1.6,2.9c-1.8,1.2-4,2-6.2,2C608,48,604.1,44.6,604.1,38.6z M615.9,36.8c0-2.4-1.1-3.9-3.4-3.9
			c-1.9,0-3.6,1.3-3.9,3.9H615.9z"/>
		<path class="st0" d="M623.8,42.6V22.1h4.7v20.7c0,1.1,0.5,1.4,0.9,1.4c0.2,0,0.3,0,0.6-0.1l0.6,3.5c-0.5,0.2-1.3,0.4-2.4,0.4
			C624.9,48,623.8,45.9,623.8,42.6z"/>
		<path class="st0" d="M633.8,42.6V22.1h4.7v20.7c0,1.1,0.5,1.4,0.9,1.4c0.2,0,0.3,0,0.6-0.1l0.6,3.5c-0.5,0.2-1.3,0.4-2.4,0.4
			C635,48,633.8,45.9,633.8,42.6z"/>
		<path class="st0" d="M642.8,38.6c0-6,4.1-9.4,8.6-9.4c4.5,0,8.6,3.5,8.6,9.4s-4.1,9.4-8.6,9.4C646.9,48,642.8,44.6,642.8,38.6z
			 M655.2,38.6c0-3.4-1.4-5.6-3.8-5.6c-2.4,0-3.8,2.2-3.8,5.6c0,3.4,1.4,5.6,3.8,5.6C653.8,44.2,655.2,42,655.2,38.6z"/>
	</g>
</g>
<path class="st1" d="M715.4,69.2h-191c-18,0-32.7-14.6-32.7-32.7v0c0-18,14.6-32.7,32.7-32.7h191c18,0,32.7,14.6,32.7,32.7v0
	C748.1,54.5,733.5,69.2,715.4,69.2z"/>
<g>
	<g>
		<path class="st0" d="M465.5,443.1h14.5v4h-9.8v5.5h8.3v4h-8.3v6.3h10.1v4h-14.9V443.1z"/>
		<path class="st0" d="M484.8,448.9h3.8l0.4,2.4h0.1c1.6-1.5,3.4-2.8,5.8-2.8c3.9,0,5.5,2.7,5.5,7.2v11.2h-4.7v-10.6
			c0-2.8-0.8-3.7-2.5-3.7c-1.5,0-2.4,0.7-3.7,2v12.3h-4.7V448.9z"/>
		<path class="st0" d="M501.1,473.6l0.8-3.5c0.5,0.2,1,0.3,1.5,0.3c1.5,0,2-1,2-3v-18.5h4.7v18.4c0,3.8-1.5,6.9-6,6.9
			C502.7,474.1,501.8,473.9,501.1,473.6z M505,443.4c0-1.5,1.1-2.6,2.7-2.6c1.6,0,2.8,1,2.8,2.6c0,1.6-1.1,2.6-2.8,2.6
			C506.1,446,505,445,505,443.4z"/>
		<path class="st0" d="M514,457.8c0-6,4.1-9.4,8.6-9.4c4.5,0,8.6,3.5,8.6,9.4s-4.1,9.4-8.6,9.4C518.1,467.2,514,463.8,514,457.8z
			 M526.4,457.8c0-3.4-1.4-5.6-3.8-5.6c-2.4,0-3.8,2.2-3.8,5.6c0,3.4,1.4,5.6,3.8,5.6C525,463.4,526.4,461.2,526.4,457.8z"/>
		<path class="st0" d="M534,473.6l0.9-3.6c0.3,0.1,0.8,0.2,1.2,0.2c1.8,0,2.8-1.2,3.4-2.7l0.3-1.1l-7-17.6h4.7l2.8,8.3
			c0.5,1.6,1,3.3,1.5,5.1h0.2c0.4-1.7,0.9-3.4,1.3-5.1l2.5-8.3h4.5l-6.4,18.5c-1.6,4.2-3.5,6.7-7.5,6.7
			C535.4,474,534.7,473.9,534,473.6z"/>
		<path class="st0" d="M559,460.5c0-3.3,2.1-5.2,4.4-6.7c-1-1.8-1.5-3.6-1.5-5.1c0-3.3,2.4-6,6.2-6c3.4,0,5.5,2,5.5,5.2
			c0,3.1-2.6,5.1-5.1,6.8c1.4,1.8,3.2,3.5,5.1,4.9c1.2-1.7,2.3-3.7,2.9-6h4.3c-0.9,2.9-2.1,5.7-4,8.1c1.5,0.9,3,1.5,4.2,1.7
			l-1.2,3.8c-1.9-0.4-3.9-1.2-5.9-2.5c-2,1.5-4.4,2.5-7.3,2.5C561.8,467.2,559,464.2,559,460.5z M567.3,463.6c1.2,0,2.3-0.4,3.5-1.2
			c-2-1.7-3.8-3.6-5.3-5.5c-1.2,1-2,2-2,3.3C563.4,462.2,565,463.6,567.3,463.6z M566.7,451.8c1.9-1.1,3.3-2.3,3.3-4
			c0-1.2-0.5-2-1.8-2c-1.4,0-2.4,1.1-2.4,2.9C565.8,449.7,566.1,450.7,566.7,451.8z"/>
		<path class="st0" d="M591.8,443.1h14.5v4h-9.8v5.5h8.3v4h-8.3v6.3h10.1v4h-14.9V443.1z"/>
		<path class="st0" d="M613.2,457.4l-5.2-8.6h5.1l1.8,3.2c0.5,1,1.1,2,1.6,3h0.1c0.4-1,0.9-2,1.3-3l1.5-3.2h4.9L619,458l5.6,8.8
			h-5.1l-2-3.3c-0.6-1-1.2-2.1-1.7-3.1h-0.2c-0.5,1-1,2.1-1.5,3.1l-1.7,3.3h-4.9L613.2,457.4z"/>
		<path class="st0" d="M627.6,448.9h3.8l0.4,1.9h0.1c1.5-1.3,3.4-2.3,5.3-2.3c4.4,0,7,3.6,7,9.1c0,6.1-3.7,9.7-7.6,9.7
			c-1.6,0-3.1-0.7-4.4-2l0.2,2.9v5.4h-4.7V448.9z M639.4,457.6c0-3.4-1.1-5.3-3.6-5.3c-1.2,0-2.3,0.6-3.5,1.9v7.9
			c1.1,1,2.3,1.3,3.2,1.3C637.8,463.4,639.4,461.5,639.4,457.6z"/>
		<path class="st0" d="M648.2,461.8v-20.5h4.7V462c0,1.1,0.5,1.4,0.9,1.4c0.2,0,0.3,0,0.6-0.1l0.6,3.5c-0.5,0.2-1.3,0.4-2.4,0.4
			C649.4,467.2,648.2,465.1,648.2,461.8z"/>
		<path class="st0" d="M657.4,461.9c0-3.8,3.1-5.9,10.3-6.6c-0.1-1.8-0.9-3.1-3.1-3.1c-1.7,0-3.3,0.7-4.9,1.7l-1.7-3.1
			c2.1-1.3,4.7-2.4,7.5-2.4c4.5,0,6.9,2.7,6.9,7.9v10.5h-3.8l-0.3-1.9h-0.1c-1.6,1.3-3.4,2.4-5.4,2.4
			C659.5,467.2,657.4,465,657.4,461.9z M667.8,461.8v-3.6c-4.4,0.5-5.9,1.8-5.9,3.4c0,1.4,1,2,2.4,2
			C665.6,463.6,666.6,462.9,667.8,461.8z"/>
		<path class="st0" d="M677.2,448.9h3.8l0.4,2.4h0.1c1.6-1.5,3.4-2.8,5.8-2.8c3.9,0,5.5,2.7,5.5,7.2v11.2h-4.7v-10.6
			c0-2.8-0.8-3.7-2.5-3.7c-1.5,0-2.4,0.7-3.7,2v12.3h-4.7V448.9z"/>
		<path class="st0" d="M696.9,461.9c0-3.8,3.1-5.9,10.3-6.6c-0.1-1.8-0.9-3.1-3.1-3.1c-1.7,0-3.3,0.7-4.9,1.7l-1.7-3.1
			c2.1-1.3,4.7-2.4,7.5-2.4c4.5,0,6.9,2.7,6.9,7.9v10.5H708l-0.3-1.9h-0.1c-1.6,1.3-3.4,2.4-5.4,2.4
			C699,467.2,696.9,465,696.9,461.9z M707.2,461.8v-3.6c-4.4,0.5-5.9,1.8-5.9,3.4c0,1.4,1,2,2.4,2C705,463.6,706,462.9,707.2,461.8z
			"/>
		<path class="st0" d="M716.7,460.5v-7.9h-2.5v-3.5l2.8-0.2l0.5-4.8h3.9v4.8h4.4v3.7h-4.4v7.9c0,2,0.8,3,2.4,3
			c0.6,0,1.3-0.2,1.8-0.4l0.8,3.4c-1,0.3-2.2,0.7-3.8,0.7C718.4,467.2,716.7,464.5,716.7,460.5z"/>
		<path class="st0" d="M729.1,443.4c0-1.5,1.1-2.6,2.8-2.6c1.6,0,2.7,1,2.7,2.6c0,1.6-1.1,2.6-2.7,2.6
			C730.2,446,729.1,445,729.1,443.4z M729.5,448.9h4.7v17.9h-4.7V448.9z"/>
		<path class="st0" d="M738.1,457.8c0-6,4.1-9.4,8.6-9.4c4.5,0,8.6,3.5,8.6,9.4s-4.1,9.4-8.6,9.4
			C742.2,467.2,738.1,463.8,738.1,457.8z M750.5,457.8c0-3.4-1.4-5.6-3.8-5.6c-2.4,0-3.8,2.2-3.8,5.6c0,3.4,1.4,5.6,3.8,5.6
			C749.1,463.4,750.5,461.2,750.5,457.8z"/>
		<path class="st0" d="M759.3,448.9h3.8l0.4,2.4h0.1c1.6-1.5,3.4-2.8,5.8-2.8c3.9,0,5.5,2.7,5.5,7.2v11.2h-4.7v-10.6
			c0-2.8-0.8-3.7-2.5-3.7c-1.5,0-2.4,0.7-3.7,2v12.3h-4.7V448.9z"/>
	</g>
</g>
<path class="st1" d="M815.4,488.4h-391c-18,0-32.7-14.6-32.7-32.7v0c0-18,14.6-32.7,32.7-32.7h391c18,0,32.7,14.6,32.7,32.7v0
	C848.1,473.7,833.5,488.4,815.4,488.4z"/>
<g>
	<g>
		<path class="st0" d="M516.2,980.2l2.7-3.3c1.7,1.6,3.9,2.6,6,2.6c2.5,0,3.8-1.1,3.8-2.7c0-1.8-1.4-2.3-3.6-3.2l-3.2-1.3
			c-2.4-1-4.8-2.9-4.8-6.4c0-3.9,3.4-6.8,8.2-6.8c2.8,0,5.5,1.1,7.4,3l-2.4,3c-1.5-1.2-3.1-2-5-2c-2.1,0-3.4,0.9-3.4,2.5
			c0,1.7,1.7,2.3,3.7,3.1l3.1,1.3c2.9,1.2,4.8,3,4.8,6.4c0,3.9-3.2,7.2-8.7,7.2C521.6,983.6,518.5,982.4,516.2,980.2z"/>
		<path class="st0" d="M536.2,974.2c0-5.8,4.1-9.4,8.4-9.4c4.9,0,7.5,3.6,7.5,8.5c0,0.9-0.1,1.8-0.2,2.2h-11c0.4,2.9,2.3,4.5,5,4.5
			c1.5,0,2.8-0.4,4-1.2l1.6,2.9c-1.8,1.2-4,2-6.2,2C540.1,983.6,536.2,980.1,536.2,974.2z M548,972.4c0-2.4-1.1-3.9-3.4-3.9
			c-1.9,0-3.6,1.3-3.9,3.9H548z"/>
		<path class="st0" d="M554.8,974.2c0-5.8,4.1-9.4,8.4-9.4c4.9,0,7.5,3.6,7.5,8.5c0,0.9-0.1,1.8-0.2,2.2h-11c0.4,2.9,2.3,4.5,5,4.5
			c1.5,0,2.8-0.4,4-1.2l1.6,2.9c-1.8,1.2-4,2-6.2,2C558.7,983.6,554.8,980.1,554.8,974.2z M566.6,972.4c0-2.4-1.1-3.9-3.4-3.9
			c-1.9,0-3.6,1.3-3.9,3.9H566.6z"/>
		<path class="st0" d="M586.1,974.5l-7.1-15h5l2.4,5.8c0.7,1.8,1.3,3.4,2,5.2h0.1c0.7-1.8,1.4-3.5,2.1-5.2l2.4-5.8h4.9l-7.1,15v8.7
			h-4.7V974.5z"/>
		<path class="st0" d="M597.4,974.2c0-6,4.1-9.4,8.6-9.4c4.5,0,8.6,3.5,8.6,9.4c0,6-4.1,9.4-8.6,9.4
			C601.5,983.6,597.4,980.2,597.4,974.2z M609.8,974.2c0-3.4-1.4-5.6-3.8-5.6c-2.4,0-3.8,2.2-3.8,5.6c0,3.4,1.4,5.6,3.8,5.6
			C608.4,979.8,609.8,977.6,609.8,974.2z"/>
		<path class="st0" d="M618.3,976.5v-11.2h4.7v10.6c0,2.8,0.8,3.7,2.5,3.7c1.5,0,2.4-0.6,3.6-2.2v-12.1h4.7v17.9H630l-0.4-2.6h-0.1
			c-1.5,1.8-3.3,3-5.7,3C620,983.6,618.3,980.9,618.3,976.5z"/>
		<path class="st0" d="M645,980.2l2.7-3.3c1.7,1.6,3.9,2.6,6,2.6c2.5,0,3.8-1.1,3.8-2.7c0-1.8-1.4-2.3-3.6-3.2l-3.2-1.3
			c-2.4-1-4.8-2.9-4.8-6.4c0-3.9,3.4-6.8,8.2-6.8c2.8,0,5.5,1.1,7.4,3l-2.4,3c-1.5-1.2-3.1-2-5-2c-2.1,0-3.4,0.9-3.4,2.5
			c0,1.7,1.7,2.3,3.7,3.1l3.1,1.3c2.9,1.2,4.8,3,4.8,6.4c0,3.9-3.2,7.2-8.7,7.2C650.5,983.6,647.3,982.4,645,980.2z"/>
		<path class="st0" d="M665,974.2c0-6,4.1-9.4,8.6-9.4s8.6,3.5,8.6,9.4c0,6-4.1,9.4-8.6,9.4S665,980.2,665,974.2z M677.4,974.2
			c0-3.4-1.4-5.6-3.8-5.6s-3.8,2.2-3.8,5.6c0,3.4,1.4,5.6,3.8,5.6S677.4,977.6,677.4,974.2z"/>
		<path class="st0" d="M685.1,974.2c0-6,4.1-9.4,8.6-9.4c4.5,0,8.6,3.5,8.6,9.4c0,6-4.1,9.4-8.6,9.4
			C689.2,983.6,685.1,980.2,685.1,974.2z M697.5,974.2c0-3.4-1.4-5.6-3.8-5.6c-2.4,0-3.8,2.2-3.8,5.6c0,3.4,1.4,5.6,3.8,5.6
			C696.1,979.8,697.5,977.6,697.5,974.2z"/>
		<path class="st0" d="M706.2,965.3h3.8l0.4,2.4h0.1c1.6-1.5,3.4-2.8,5.8-2.8c3.9,0,5.5,2.7,5.5,7.2v11.2h-4.7v-10.6
			c0-2.8-0.8-3.7-2.5-3.7c-1.5,0-2.4,0.7-3.7,2v12.3h-4.7V965.3z"/>
	</g>
</g>
<path class="st1" d="M755,1004.7H484c-18,0-32.7-14.6-32.7-32.7v0c0-18,14.6-32.7,32.7-32.7h271c18,0,32.7,14.6,32.7,32.7v0
	C787.7,990.1,773,1004.7,755,1004.7z"/>
<g>
	<path class="st2" d="M401.8,129.9h8.1v13.3h0.1l9.5-13.3h8.8l-10.1,13.5l12,20.1h-8.8l-7.9-13.7l-3.6,5v8.8h-8.1V129.9z"/>
	<path class="st2" d="M432.5,130.1c0-2.5,1.8-4.1,4.5-4.1c2.7,0,4.5,1.6,4.5,4.1c0,2.5-1.8,4.1-4.5,4.1
		C434.3,134.3,432.5,132.6,432.5,130.1z M433,137.8h8v25.6h-8V137.8z"/>
	<path class="st2" d="M446.1,150.6c0-8.4,5.3-13.4,10.6-13.4c2.8,0,4.5,1,6.2,2.7l-0.3-3.8v-8.5h8v36h-6.5l-0.6-2.5h-0.2
		c-1.8,1.8-4.3,3.1-6.7,3.1C450.2,164,446.1,159,446.1,150.6z M462.6,155.3v-10.1c-1.2-1.1-2.7-1.5-4-1.5c-2.2,0-4.2,2.1-4.2,6.8
		c0,4.9,1.6,7,4.4,7C460.3,157.5,461.5,157,462.6,155.3z"/>
	<path class="st2" d="M474.8,160.5l3.6-5c2.3,1.8,4.5,2.7,6.5,2.7c2.1,0,3-0.8,3-2c0-1.5-2.5-2.2-5.1-3.3c-3.1-1.2-6.5-3.3-6.5-7.6
		c0-4.8,3.9-8.1,9.9-8.1c4,0,7,1.6,9.1,3.3l-3.6,4.8c-1.8-1.3-3.6-2.2-5.3-2.2c-1.8,0-2.7,0.6-2.7,1.8c0,1.5,2.2,2.1,4.9,3.1
		c3.2,1.2,6.8,3.1,6.8,7.7c0,4.7-3.7,8.4-10.7,8.4C481.4,164,477.5,162.6,474.8,160.5z"/>
	<path class="st2" d="M510.8,147.7v-17.8h8v18.6c0,6.3,1.9,8.6,5.6,8.6c3.6,0,5.7-2.2,5.7-8.6v-18.6h7.7v17.8
		c0,11.3-4.5,16.4-13.4,16.4C515.4,164,510.8,159,510.8,147.7z"/>
	<path class="st2" d="M545.3,129.9h11.8c7.3,0,13.4,2.7,13.4,10.9c0,8-6.1,11.5-13.2,11.5h-3.9v11.1h-8.1V129.9z M556.8,146
		c3.9,0,5.8-1.8,5.8-5.1c0-3.4-2.2-4.5-6-4.5h-3.3v9.7H556.8z"/>
	<path class="st2" d="M577.6,145.6c1.9-2,5.2-6.3,8.1-9.6c3.4-3.9,6.7-4.1,10.1-0.8c3.3,3.1,6.9,7.8,9.4,10.6
		c3,3.2,6.5,6.9,10.9,10.8l-5.7,6.6c-3.1-3-6.8-7.2-9.5-10.4c-2.7-3.3-6-7.6-8.1-10c-1.4-1.5-2.2-1.3-3.4,0.1
		c-1.6,2.1-4.5,6.3-6.3,8.7c-1.1,1.6-2.1,3.4-3,4.7l-6.7-6.8C575,148.3,576.2,147.1,577.6,145.6z"/>
	<path class="st2" d="M640.9,132.6c0,0.9,0,1.7,0,2.6c3.6-0.1,8.6-0.3,12.2-0.6l0.3,6.5c-3.6,0.3-8.7,0.5-12.3,0.6
		c0.1,2.5,0.3,5.6,0.5,8.5c5.7,1.8,10.5,4.8,13.5,7.7l-4.2,6.5c-2.3-2.3-5.4-4.9-9-6.7v0.6c0,4.2-1.9,8.3-10.3,8.3
		c-6.6,0-12.2-2.2-12.2-8.8c0-5.1,4.3-9,12.8-9c0.7,0,1.4,0,2.1,0.1c-0.2-3.5-0.3-7.2-0.3-9.4c0-2.8,0-4.9-0.1-6.8
		c-0.1-2.6-0.2-4.5-0.5-5.7h8.2C641.2,128.4,641,130.7,640.9,132.6z M630.9,159.9c2.7,0,3.4-1.1,3.4-4V155c-1.1-0.2-2.2-0.3-3.3-0.3
		c-2.9,0-4.7,0.9-4.7,2.6C626.4,159.4,628.5,159.9,630.9,159.9z"/>
	<path class="st2" d="M677.3,144.1c-4.8,0-9.3,1.5-11.4,2.2c-1.3,0.4-3.3,1.2-4.7,1.7l-2-7.7c1.7-0.1,3.8-0.5,5.4-0.8
		c3.4-0.8,8.4-2,13.7-2c7.5,0,12.6,4.3,12.6,11.7c0,9.6-9,15.8-22,17.5l-3.9-6.8c11.3-1.2,18.2-4.5,18.2-11
		C683.2,146.3,681.3,144.1,677.3,144.1z M687,128.5l-1.1,6.7c-5.4-0.4-15.6-1.3-20.8-2.2l1-6.5C671.6,127.6,682.1,128.5,687,128.5z"
		/>
	<path class="st2" d="M704.2,153.9c0,2.5,2.3,4.5,8.4,4.5c6,0,11.7-0.7,16-1.8l0,7.7c-4.3,0.9-9.5,1.5-15.8,1.5
		c-10.9,0-16.1-3.7-16.1-10.2c0-2.7,0.6-5,0.9-6.6l7.2,0.6C704.5,151.2,704.2,152.5,704.2,153.9z M712.4,130.6
		c4.5,0,10-0.3,13.5-0.6v7.3c-3.2,0.3-9.1,0.5-13.5,0.5c-4.8,0-8.8-0.2-12.5-0.5v-7.2C703.3,130.4,707.5,130.6,712.4,130.6z"/>
	<path class="st2" d="M745.2,128.7c1.9,0,9.9-0.4,12.7-0.7c1.7-0.2,2.8-0.4,3.5-0.6l4.3,5c-1.1,0.7-3.1,2-4.2,2.9
		c-3.1,2.4-6.4,5.2-9.2,7.3c5.6-0.5,12.7-0.9,17.6-0.9l0,6.4c-4.3-0.3-8.9-0.3-11.7,0c-4,0.5-6.9,3-6.9,6.4c0,3,2.3,4.3,6.3,4.7
		c2.4,0.2,5.4,0.2,7.1,0.1l-1.4,7.2c-11.8,0.5-18.9-3-18.9-10.8c0-2.2,0.9-4.7,2.2-6.3c-3.7,0.3-8.2,0.9-12.2,1.7l-0.6-6.6
		c2.4-0.2,5.6-0.6,8-0.9c3.5-2.2,8.7-6.7,11.4-9.1c-1.8,0.1-6,0.4-7.8,0.5c-1.1,0.1-2.7,0.3-4.4,0.5l-0.3-6.9
		C742.2,128.6,743.6,128.7,745.2,128.7z"/>
	<path class="st2" d="M778.5,159.4c0-2.7,1.9-4.5,4.6-4.5c2.7,0,4.6,1.8,4.6,4.5s-1.9,4.6-4.6,4.6C780.3,164,778.5,162,778.5,159.4z
		 M778.9,137.2l-0.3-7.5h8.8l-0.3,7.5l-1.4,14.2h-5.6L778.9,137.2z"/>
	<path class="st2" d="M290.9,186v15.3c0,1.1,0.1,3,0.2,4.2h-7.9c0-0.9,0.2-2.8,0.2-4.2V186c0-0.9,0-2.4-0.2-3.6h7.9
		C291,183.6,290.9,184.4,290.9,186z M311.7,186.9v9.8c0,9-2.1,13.5-5.5,17.1c-3,3.1-7.7,5.4-11,6.5l-5.7-6c4.7-1,8.2-2.7,10.9-5.5
		c3-3.2,3.6-6.4,3.6-12.6v-9.3c0-2-0.1-3.5-0.3-4.9h8.2C311.8,183.4,311.7,184.9,311.7,186.9z"/>
	<path class="st2" d="M354.1,198.3c-1.5,4.3-3.4,8.5-6.7,12.3c-4.5,5-10.3,8.3-16.1,9.9l-5.4-6.2c7-1.5,12.2-4.5,15.5-7.7
		c2.2-2.2,3.4-4.5,4.2-6.5h-20.5c-1.1,0-3.7,0-5.7,0.2v-7c2.1,0.2,4.2,0.3,5.7,0.3h21.4c1.7,0,3.1-0.2,3.8-0.5l4.8,3
		C354.8,196.8,354.3,197.7,354.1,198.3z M328.7,182.6h17.1c1.4,0,4-0.1,5.3-0.3v7c-1.3-0.1-3.7-0.2-5.4-0.2h-17c-1.5,0-3.7,0-5,0.2
		v-7C324.9,182.5,327.1,182.6,328.7,182.6z"/>
	<path class="st2" d="M370.6,203l-6.7,2.5c-0.8-2.4-2.9-8.3-4.1-10.5l6.6-2.3C367.7,195.2,369.7,200.4,370.6,203z M392.4,197.8
		c-1.2,4.3-3.1,8.9-6,12.8c-4.2,5.5-9.9,9.4-15.3,11.5l-5.7-5.8c4.8-1.2,11.3-4.6,15.1-9.4c3-3.7,5.1-9.9,5.5-15.4l7.7,2.5
		C393,195.7,392.7,196.8,392.4,197.8z M380.6,200.2l-6.5,2.2c-0.6-2.2-2.5-7.6-3.7-10.1l6.5-2.1C377.8,192.2,380,198.1,380.6,200.2z
		"/>
	<path class="st2" d="M418.2,186.7h7.2c1.5,0,3.3-0.2,4.5-0.6l5.5,3.4c-0.6,1-1.3,2.3-1.8,3.7c-1.2,3.7-3.6,9.7-7.8,14.8
		c-4.4,5.4-9.8,9.5-18.3,13l-6.5-5.8c9.7-3,14.4-6.8,18.2-11.1c2.8-3.1,5.4-8.3,5.9-11.2h-11.2c-3.2,4-7.2,7.9-11.3,10.8l-6.1-4.5
		c8-4.9,11.6-10.3,14-14.1c0.8-1.3,1.9-3.6,2.4-5.4l8,2.6C420,183.7,418.9,185.5,418.2,186.7z"/>
	<path class="st2" d="M469.1,190c-1.5,3.3-3.9,7.8-6.8,11.9c4.4,3.8,9.8,9.5,12.2,12.6l-6.3,5.4c-2.9-4.1-6.7-8.4-10.8-12.3
		c-4.7,4.9-10.6,9.4-16.5,12.3l-5.7-5.9c7.3-2.7,14.4-8.2,18.4-12.6c2.9-3.3,5.4-7.3,6.3-10.2h-14c-2,0-4.5,0.3-5.8,0.4v-7.7
		c1.6,0.2,4.5,0.4,5.8,0.4h15c2.2,0,4.4-0.3,5.4-0.7l4.5,3.3C470.6,187.3,469.6,188.8,469.1,190z"/>
	<path class="st2" d="M491,188.2c-0.2,4.7-0.5,14.4-0.5,19.4c0,4.3,2.5,5.7,5.5,5.7c7,0,11.7-4.1,15-9.1l4.9,6.1
		c-2.8,4.3-9.5,10.5-20,10.5c-7.9,0-12.8-3.6-12.8-11.4c0-5.7,0.4-17.7,0.4-21.1c0-2.4-0.2-4.9-0.7-6.9l8.8,0.1
		C491.3,183.5,491.1,186.2,491,188.2z"/>
	<path class="st2" d="M520.5,185.7c4.2-0.4,11-0.9,19.3-1.6c4.5-0.4,9.8-0.7,13.1-0.8l0,7c-2.3,0-6.2,0-8.6,0.5
		c-4.9,1.1-9,6.3-9,11.7c0,6.6,6.2,9.2,14,9.7l-2.6,7.6c-10-0.8-18.6-6.2-18.6-15.8c0-6.2,3.3-10.9,5.7-13.1
		c-3.9,0.4-11.8,1.3-17.2,2.5l-0.7-7.4C517.7,185.8,519.7,185.7,520.5,185.7z"/>
	<path class="st2" d="M583.1,209.1c3.2,3.5,8.1,5.9,14.8,6.9c-1.4,1.4-3.2,4-4,5.7c-7.9-1.7-13.1-5.1-16.8-10.4
		c-2.7,4.5-7.7,8.1-17.3,10.4c-0.6-1.7-2.2-4.1-3.5-5.4c7.8-1.7,11.8-4.1,14-7.2h-13.8v-5.7h16.1c0.2-1,0.3-2,0.5-3
		c-4.1,0.2-8.2,0.3-12,0.3c-0.1-1.6-0.8-4-1.4-5.5c9.1-0.1,19.1-0.7,26.8-1.9c-0.4-1.2-1.3-2.9-2.3-4.5h-1.9
		c-1.3,1.8-2.6,3.5-3.8,4.8c-1.3-1-4.1-2.6-5.7-3.3c0.5-0.5,1.1-1,1.6-1.5h-2.9c0.5,1.2,1,2.4,1.3,3.3l-5.9,2.2
		c-0.3-1.5-1.1-3.6-2-5.6h-0.2c-1.1,1.9-2.3,3.6-3.6,5c-1.3-1-4.1-2.6-5.7-3.3c3-2.7,5.5-7.3,6.7-11.8l6.3,1.4
		c-0.3,1.1-0.7,2.2-1.2,3.3h9.4v2.8c1.6-2.3,3-4.9,3.8-7.5l6.3,1.5c-0.4,1.1-0.8,2.1-1.3,3.1h12.1v5.4h-6.2c0.5,0.9,1,1.7,1.3,2.4
		l-5.6,2.1c1.5-0.2,2.9-0.5,4.2-0.8l3.5,5.4c-4.2,0.9-9,1.5-14,2c-0.1,1.2-0.3,2.4-0.5,3.6h17.5v5.7H583.1z"/>
	<path class="st2" d="M621.2,205c-2.7,3.1-6.7,5.5-10.7,7.1c-0.7-0.9-1.8-2.2-2.9-3.1c-0.4,4.2-1.4,8.5-3.3,11.7
		c-0.9-1.1-3.4-3.3-4.5-4c2.3-4.2,2.4-10.1,2.4-14.5v-10h3c-0.1-1.1-0.4-2.6-0.7-3.7l1.5-0.3h-4.5v-5.3h7v-3.6h6.3v3.6h6.7v5.3H619
		l0.9,0.2c-0.6,1.5-1,2.8-1.4,3.8h3.1v5.3h-6.1l4.3,1.8c-2.4,2.5-6,4.4-9.3,5.6c-0.6-0.9-1.6-1.9-2.6-2.8v0.1c0,1.8-0.1,3.9-0.3,6
		c3.2-1.1,6.8-3,8.6-5.1L621.2,205z M622.3,211.3c-2.8,4.5-7.2,7.6-12.6,9.7c-0.8-1.3-2.2-3.2-3.5-4.3c4.5-1.4,8.7-4,10.8-7.2
		L622.3,211.3z M608,201c2.5-0.9,5.4-2.2,7-3.6h-7V201z M609.7,188.1c0.4,1.2,0.7,2.7,0.8,3.6l-1.6,0.4h6.4l-2.2-0.5
		c0.3-1,0.7-2.4,1-3.6H609.7z M637.9,212.5c2.1,1.7,4.8,4.1,6.2,5.7l-5.1,3.5c-1.3-1.8-4.2-4.5-6.3-6.4l4.2-2.7h-9.1l4.1,2.7
		c-2.3,2.3-6.2,5.1-9.3,6.6c-1-1.2-2.9-3-4.3-4c2.7-1.2,5.8-3.4,7.7-5.3h-3.1v-24.2h5.9l0.3-2.3H622v-5.4h20.7v5.4h-7.2
		c-0.2,0.8-0.5,1.6-0.7,2.3h7v24.2H637.9z M636,193h-7.5v1.9h7.5V193z M636,199.4h-7.5v1.9h7.5V199.4z M636,205.8h-7.5v1.9h7.5
		V205.8z"/>
	<path class="st2" d="M649.8,185.7c4.2-0.4,11-0.9,19.3-1.6c4.5-0.4,9.8-0.7,13.1-0.8l0,7c-2.3,0-6.2,0-8.6,0.5
		c-4.9,1.1-9,6.3-9,11.7c0,6.6,6.2,9.2,14,9.7l-2.6,7.6c-10-0.8-18.6-6.2-18.6-15.8c0-6.2,3.3-10.9,5.7-13.1
		c-3.9,0.4-11.8,1.3-17.2,2.5l-0.7-7.4C647,185.8,649,185.7,649.8,185.7z M679.3,200.1l-4,1.8c-1.2-2.6-2-4.1-3.4-6.2l3.9-1.6
		C677,195.7,678.5,198.4,679.3,200.1z M684.7,197.7l-4,1.9c-1.3-2.6-2.2-4-3.6-6l3.9-1.8C682.1,193.5,683.8,196.1,684.7,197.7z"/>
	<path class="st2" d="M692.3,212.1v-23.7c0-2-0.3-4.2-0.6-5.7h8.6c-0.3,2.1-0.5,3.7-0.5,5.7v22.2c6.6-2,16.4-7.7,22.3-14.6l3.9,6.2
		c-6.3,7.4-15.7,12.7-26,16.3c-0.7,0.2-1.8,0.6-3.1,1.4l-5.2-4.5C692.2,214.1,692.3,213.2,692.3,212.1z"/>
	<path class="st2" d="M740.1,203l-6.7,2.5c-0.8-2.4-2.9-8.3-4.1-10.5l6.6-2.3C737.1,195.2,739.2,200.4,740.1,203z M761.8,197.8
		c-1.2,4.3-3.1,8.9-6,12.8c-4.2,5.5-9.9,9.4-15.3,11.5l-5.7-5.8c4.8-1.2,11.3-4.6,15.1-9.4c3-3.7,5.1-9.9,5.5-15.4l7.7,2.5
		C762.4,195.7,762.1,196.8,761.8,197.8z M750,200.2l-6.5,2.2c-0.6-2.2-2.5-7.6-3.7-10.1l6.5-2.1C747.2,192.2,749.4,198.1,750,200.2z
		"/>
	<path class="st2" d="M799.6,190c-1.5,3.3-3.9,7.8-6.8,11.9c4.4,3.8,9.8,9.5,12.2,12.6l-6.3,5.4c-2.9-4.1-6.7-8.4-10.8-12.3
		c-4.7,4.9-10.6,9.4-16.5,12.3l-5.7-5.9c7.3-2.7,14.4-8.2,18.4-12.6c2.9-3.3,5.4-7.3,6.3-10.2h-14c-2,0-4.5,0.3-5.8,0.4v-7.7
		c1.6,0.2,4.5,0.4,5.8,0.4h15c2.2,0,4.4-0.3,5.4-0.7l4.5,3.3C801,187.3,800.1,188.8,799.6,190z"/>
	<path class="st2" d="M826.6,206.9c8.1-4.7,14.2-11.7,17.2-18l4.2,7.7c-3.6,6.4-10,12.6-17.5,17.1c-4.6,2.7-10.4,5-16.1,5.9
		l-4.6-7.2C816.4,211.5,822.2,209.5,826.6,206.9z M828.2,192.2l-5.6,5.7c-2.4-2.6-8.1-7.6-11.3-9.9l5.2-5.5
		C819.6,184.6,825.5,189.3,828.2,192.2z"/>
	<path class="st2" d="M860.9,187.2c-0.5,2.3-2.2,11.9-2.2,16.1c0,0.1,0,0.9,0,1c0.6-1.3,1.2-2.2,1.8-3.5l3.3,2.6
		c-1.3,4.1-2.7,9-3.2,11.6c-0.1,0.7-0.3,1.8-0.3,2.2c0,0.5,0,1.3,0,2l-6.3,0.4c-0.9-3-1.8-8.7-1.8-14.8c0-6.9,1.3-14.4,1.8-17.7
		c0.2-1.3,0.5-3.4,0.5-5.1l7.6,0.6C861.8,183.6,861.1,186.4,860.9,187.2z M872.4,208.6c0,2,1.9,2.7,5.6,2.7c4,0,7.2-0.4,11.3-1.2
		l0.1,7.4c-3,0.5-6.5,0.9-11.8,0.9c-7.9,0-11.8-2.9-11.8-7.7c0-1.9,0.3-3.8,0.8-6.2l6.2,0.5C872.5,206.5,872.4,207.5,872.4,208.6z
		 M888,185.3v7c-5.9,0.5-13.8,0.5-19.8,0l0-7C874.1,186.1,883,185.8,888,185.3z"/>
	<path class="st2" d="M908.6,213.7c0,4.1-3.3,7.5-7.5,7.5c-4.1,0-7.5-3.4-7.5-7.5s3.4-7.5,7.5-7.5
		C905.2,206.2,908.6,209.5,908.6,213.7z M904.8,213.7c0-2.1-1.7-3.7-3.7-3.7c-2,0-3.7,1.7-3.7,3.7s1.7,3.7,3.7,3.7
		C903.1,217.4,904.8,215.8,904.8,213.7z"/>
</g>
<g>
	<path class="st2" d="M224.3,1049.5c0,0.4,0,0.8,0,1.3c3.5-0.2,7-0.5,10.9-1.2l0,6.2c-2.7,0.4-6.7,0.8-11,0.9c0,1.3,0,2.6,0,3.7
		c4.6-0.2,8.2-0.6,11.7-1l0,6.4c-4,0.4-7.2,0.7-11.5,0.8c0.1,1.4,0.2,3,0.3,4.5c5.5,1.6,9.7,4.5,12.3,6.7l-3.9,6.1
		c-2.2-2.1-4.9-4.3-8.1-5.8v0.9c0,4.2-3.4,7.1-9.4,7.1c-7.6,0-11.5-3-11.5-8c0-4.8,4.3-8.2,11.5-8.2c0.8,0,1.5,0,2.2,0.1
		c0-1-0.1-2.1-0.1-3.1h-2.2c-2.4,0-7.6-0.2-10.4-0.6l-0.1-6.4c2.8,0.5,8.5,0.9,10.6,0.9h2c0-1.2,0-2.5,0-3.7h-1.4
		c-2.7,0-7.7-0.4-10.8-0.8l-0.1-6.2c3.4,0.5,8.3,1,10.9,1h1.5v-1.5c0-0.9-0.1-2.3-0.3-3.3h7.4
		C224.5,1047.2,224.4,1048.4,224.3,1049.5z M214.5,1080c2.3,0,3.6-0.6,3.6-2.9c0-0.3,0-0.8,0-1.3c-1.1-0.2-2.2-0.3-3.4-0.3
		c-2.5,0-4,1-4,2.2C210.6,1079.2,212.1,1080,214.5,1080z"/>
	<path class="st2" d="M259.9,1051.4c0,0.2-0.1,0.5-0.2,0.8c2.3-0.4,4.6-0.8,6.9-1.3v6.8c-2.6,0.6-5.4,1.1-8.4,1.4
		c-0.4,1.9-0.9,3.9-1.3,5.7c-1.6,6.3-4.6,15.4-7.2,21l-7.6-2.6c2.7-4.5,6.2-14,7.9-20.3c0.3-1,0.6-2.1,0.8-3.2c-0.8,0-1.6,0-2.3,0
		c-2.3,0-4-0.1-5.6-0.2l-0.2-6.8c2.4,0.3,3.9,0.4,5.8,0.4c1.2,0,2.4,0,3.6-0.1c0.1-0.7,0.2-1.3,0.2-1.8c0.2-1.9,0.3-3.9,0.1-5
		l8.3,0.6C260.6,1048.2,260.1,1050.4,259.9,1051.4z M265.4,1075.4c0,1.9,1.4,3.1,5.4,3.1c3.1,0,6.2-0.4,9.6-0.9l-0.3,6.9
		c-2.6,0.3-5.6,0.6-9.4,0.6c-7.9,0-12.1-2.8-12.1-7.4c0-2.3,0.5-4.7,0.9-6.4l6.5,0.6C265.7,1073.1,265.4,1074.5,265.4,1075.4z
		 M271.6,1059.9c2.5,0,5.2,0.1,8,0.4l-0.1,6.5c-2.2-0.3-5-0.6-7.8-0.6c-3.2,0-6,0.1-8.9,0.5v-6.3
		C265.3,1060.1,268.7,1059.9,271.6,1059.9z"/>
	<path class="st2" d="M294.4,1046.1l7.9,0.2c-0.3,1.4-0.7,3.7-1,6.4l1.7,2.3c-0.4,0.5-1,1.5-1.7,2.4c3.4-2.8,7.6-5.4,11.7-5.4
		c6.6,0,10.7,5.3,10.7,13.9c0,2.5-0.1,4.9-0.5,7c1.5,1.1,3,2.5,4.5,4l-3.5,5.6c-0.9-1.1-1.9-2.2-2.9-3.1c-1.7,3.2-4.5,5.1-9,5.1
		c-5.4,0-9.4-2.4-9.4-7.8c0-4.2,3.6-7.5,9.5-7.5c1.5,0,2.9,0.2,4.4,0.6c0.1-1.3,0.2-2.7,0.2-4.2c0-4.3-1.9-7.4-5.2-7.4
		c-4,0-8.3,3.8-11.7,7.7c0,1.3-0.1,2.5-0.1,3.6c0,3.4,0,7.8,0.3,12.1c0,0.8,0.2,2.7,0.4,3.9h-7.5c0.1-1.2,0.1-3,0.1-3.7
		c0-2.7,0.1-5.1,0.2-7.9c-1.7,2.5-3.5,5.2-4.8,6.9l-4.2-6c2.5-3.2,6.8-8.5,9.4-12.4c0-0.8,0.1-1.6,0.2-2.4c-2.3,0.3-5.5,0.7-7.9,1
		l-0.7-6.9c1.4,0,2.6,0,4.5,0c1.2-0.1,2.8-0.3,4.5-0.5c0.1-1.4,0.1-2.6,0.1-3C294.7,1049.1,294.7,1047.6,294.4,1046.1z
		 M311.8,1078.5c1.7,0,2.8-1.1,3.7-3c-1.3-0.5-2.5-0.8-3.7-0.8c-1.6,0-3,0.6-3,1.8C308.8,1078,310.2,1078.5,311.8,1078.5z"/>
	<path class="st2" d="M334.2,1079c0-2.7,1.9-4.5,4.6-4.5s4.6,1.8,4.6,4.5s-1.9,4.6-4.6,4.6C336.1,1083.5,334.2,1081.6,334.2,1079z
		 M334.7,1056.8l-0.3-7.5h8.8l-0.3,7.5l-1.4,14.2H336L334.7,1056.8z"/>
	<path class="st2" d="M365,1070.2c-3,3.7-6.6,7.6-9.7,10.8l-4.2-5.7c2.5-2.4,6.5-6.6,10.2-10.8L365,1070.2z M359.9,1058.8
		c-1.5-2-5-4.9-7.6-6.8l4.6-4.9c2.6,1.7,6.3,4.3,8,6.3L359.9,1058.8z M380.9,1062.6c0,5.4,3,14.1,13.5,18.7c-1.3,1.6-3.2,4.3-4.2,6
		c-7.3-3.3-11.7-10.5-12.7-14.5c-1.2,3.9-6.1,10.9-14.3,14.5c-0.8-1.5-2.8-4.4-4-5.5c11.3-4.5,14.7-13.5,14.7-19.1v-4h-2.5
		c-1.3,3-2.9,5.7-4.5,7.8c-1.4-1-4.5-2.7-6.2-3.5c3.9-4,6.6-11,7.9-18.2l6.8,1.2c-0.4,2.1-1,4.2-1.6,6.2h14l1.3-0.4l4.9,2.9
		c-1.4,4.7-3.5,9.3-5.4,12.6c-1.4-0.7-4-2.1-5.5-2.7c0.8-1.5,1.7-3.7,2.5-6h-4.7V1062.6z"/>
	<path class="st2" d="M437.2,1045.9v41.4H430v-2.4h-25.2v2.4H398v-41.4H437.2z M430,1078.8v-26.2h-25.2v26.2H430z M426.9,1056.9
		v17.7h-19v-17.7H426.9z M420.3,1062.6H414v6.4h6.3V1062.6z"/>
	<path class="st2" d="M452.3,1052.6c-0.5,2.3-2.1,12.8-2.1,17c0,0.1,0,0.9,0,1c0.5-1.3,1.1-2.2,1.7-3.5l3.3,2.7
		c-1.4,4-2.7,8.6-3.2,11.2c-0.1,0.6-0.3,1.7-0.3,2.1c0,0.5,0,1.3,0,2l-6.2,0.4c-0.9-3.1-1.8-8.3-1.8-14.4c0-6.9,1.3-15.3,1.8-18.7
		c0.2-1.3,0.4-3.4,0.5-5.1l7.5,0.6C453.1,1049,452.5,1051.8,452.3,1052.6z M475.1,1050.5c0,0.9-0.1,2.3-0.1,4.2
		c2.3-0.3,4.5-0.6,6.5-1v6.8c-2,0.3-4.2,0.5-6.6,0.7c0.1,4.1,0.3,7.3,0.5,10c3.8,1.6,6.6,3.9,8.6,5.8l-3.7,5.7
		c-1.7-1.6-3.3-2.9-4.8-4.1c-0.6,4.2-3.4,6.8-9.3,6.8c-6.3,0-10.5-2.7-10.5-7.8c0-5,4.1-8.3,10.4-8.3c0.8,0,1.5,0,2.2,0.1
		c-0.1-2.4-0.3-5.1-0.3-8c-0.9,0-1.7,0-2.5,0c-2.7,0-5.4-0.1-8.1-0.3l0-6.5c2.6,0.3,5.3,0.4,8.1,0.4c0.9,0,1.7,0,2.5,0
		c0-2.1,0-3.8-0.1-4.6c0-0.7-0.2-2.2-0.4-3.1h7.8C475.2,1048.3,475.1,1049.5,475.1,1050.5z M465.6,1079c2.2,0,3-1.2,3-3.6v-0.3
		c-1-0.3-2-0.4-3-0.4c-2.1,0-3.5,0.8-3.5,2.2C462.1,1078.5,463.6,1079,465.6,1079z"/>
	<path class="st2" d="M491.5,1077.7V1054c0-2-0.3-4.2-0.6-5.7h8.5c-0.3,2.1-0.5,3.7-0.5,5.7v22.2c6.6-2,16.4-7.7,22.3-14.6l3.9,6.2
		c-6.3,7.4-15.7,12.7-26,16.3c-0.7,0.2-1.8,0.6-3.1,1.4l-5.2-4.5C491.5,1079.7,491.5,1078.8,491.5,1077.7z"/>
	<path class="st2" d="M539.3,1068.6l-6.7,2.5c-0.8-2.4-2.9-8.3-4.1-10.5l6.6-2.3C536.4,1060.8,538.4,1066,539.3,1068.6z
		 M561.1,1063.4c-1.2,4.3-3.1,8.9-6,12.8c-4.2,5.5-9.9,9.4-15.3,11.5l-5.7-5.8c4.8-1.2,11.3-4.6,15.1-9.4c3-3.7,5.1-9.9,5.5-15.4
		l7.7,2.5C561.7,1061.3,561.4,1062.3,561.1,1063.4z M549.3,1065.8l-6.5,2.2c-0.6-2.2-2.5-7.6-3.7-10.1l6.5-2.1
		C546.4,1057.8,548.6,1063.7,549.3,1065.8z"/>
	<path class="st2" d="M598.9,1055.6c-1.5,3.3-3.9,7.8-6.8,11.9c4.4,3.8,9.8,9.5,12.2,12.6l-6.3,5.4c-2.9-4.1-6.7-8.4-10.8-12.3
		c-4.7,4.9-10.6,9.4-16.5,12.3l-5.7-5.9c7.3-2.7,14.4-8.2,18.4-12.6c2.9-3.3,5.4-7.3,6.3-10.2h-14c-2,0-4.5,0.3-5.8,0.4v-7.7
		c1.6,0.2,4.5,0.4,5.8,0.4h15c2.2,0,4.4-0.3,5.4-0.7l4.5,3.3C600.3,1052.9,599.4,1054.4,598.9,1055.6z"/>
	<path class="st2" d="M625.9,1072.5c8.1-4.7,14.2-11.7,17.2-18l4.2,7.7c-3.6,6.4-10,12.6-17.5,17.1c-4.6,2.7-10.4,5-16.1,5.9
		l-4.6-7.2C615.7,1077.1,621.5,1075,625.9,1072.5z M627.4,1057.8l-5.6,5.7c-2.4-2.6-8.1-7.6-11.3-9.9l5.2-5.5
		C618.8,1050.2,624.7,1054.9,627.4,1057.8z"/>
	<path class="st2" d="M653.2,1051.2c4.2-0.4,11-0.9,19.3-1.6c4.5-0.4,9.8-0.7,13.1-0.8l0,7c-2.3,0-6.2,0-8.6,0.5
		c-4.9,1.1-9,6.3-9,11.7c0,6.6,6.2,9.2,14,9.7l-2.6,7.6c-10-0.8-18.6-6.2-18.6-15.8c0-6.2,3.3-10.9,5.7-13.1
		c-3.9,0.4-11.8,1.3-17.2,2.5l-0.7-7.4C650.3,1051.4,652.3,1051.3,653.2,1051.2z M682.7,1065.6l-4,1.8c-1.2-2.6-2-4.1-3.4-6.2
		l3.9-1.6C680.3,1061.3,681.9,1064,682.7,1065.6z M688,1063.3l-4,1.9c-1.3-2.6-2.2-4-3.6-6l3.9-1.8
		C685.4,1059.1,687.1,1061.7,688,1063.3z"/>
	<path class="st2" d="M707.8,1050.5l-0.1,2.3c2.8-0.4,5.5-0.9,7.8-1.5l0.1,6.8c-2.5,0.5-5.4,1-8.1,1.3c0,0.9,0,1.9,0,2.9v1.8
		c2.8-0.6,5.7-0.9,7.9-0.9c7.1,0,13,3.6,13,10.3c0,5.3-2.4,9.6-10.1,11.5c-2.1,0.5-4.1,0.6-6.1,0.8l-2.5-7.1c2.2,0,4.1,0,5.6-0.3
		c3.5-0.6,6-2.2,6-5c0-2.7-2.2-4.3-6-4.3c-2.5,0-5.2,0.4-7.7,1c0.1,3.4,0.2,6.5,0.2,7.9c0,6.3-2.2,7.9-5.5,7.9
		c-4.9,0-11.2-4-11.2-9.1c0-4,4.5-8.3,10.2-10.8c0-1.2,0-2.3,0-3.5v-2.6c-0.7,0-1.3,0-1.9,0c-3.2,0-5,0-6.6-0.2l-0.1-6.6
		c2.7,0.3,4.9,0.3,6.5,0.3c0.7,0,1.4,0,2.2,0v-2.8c0-0.9-0.2-3.6-0.3-4.4h7.5C708.1,1047,707.9,1049.3,707.8,1050.5z M700.1,1078.3
		c0.7,0,1.3-0.2,1.3-1.8c0-0.9,0-2.4-0.1-4.2c-2.2,1.3-3.6,2.7-3.6,4C697.7,1077.4,699.3,1078.3,700.1,1078.3z M732,1057.1l-3.2,5.5
		c-2.1-1.7-8.5-5.2-11.2-6.4l2.9-5.3C724.1,1052.6,729.5,1055.5,732,1057.1z"/>
	<path class="st2" d="M744.2,1060.5c-2.3,1.6-4.8,3.1-7.4,4.2c-0.8-1.6-2.5-4.1-3.9-5.5c7.7-3.2,14.7-9.6,18-14.7h6.9
		c4.8,6.6,11.6,11.3,18.7,13.7c-1.6,1.7-3.1,4-4.2,6c-2.4-1.1-4.9-2.5-7.2-4.1v3.7h-20.9V1060.5z M764.1,1072.7
		c3.7,3.4,7.5,7.7,9.5,10.9l-6.1,3.7c-0.4-0.8-1-1.7-1.6-2.7c-10.3,0.6-21.2,1.1-28.9,1.4l-0.9-6.4c2.1,0,4.4-0.1,6.9-0.2
		c1-2.1,1.9-4.5,2.7-6.8H736v-6.1h37.5v6.1H764.1z M761.8,1057.9c-2.9-2.2-5.5-4.7-7.2-7c-1.7,2.3-4.1,4.7-6.9,7H761.8z
		 M753.7,1072.7c-1.1,2.2-2.3,4.5-3.4,6.6c3.6-0.1,7.3-0.3,11-0.4c-1.2-1.3-2.4-2.6-3.6-3.7l4.8-2.5H753.7z"/>
	<path class="st2" d="M788.8,1056.5c0,3,0,5.9,0.3,8.9c0.5,5.9,1.4,10,4,10c2.1,0,3.6-5.6,4.3-8.7l5.5,6.8c-3.1,8-6,10.8-9.9,10.8
		c-5.4,0-9.8-4.5-11-16.8c-0.4-4.3-0.5-9.4-0.5-12.3c0-1.4-0.1-3.3-0.4-4.9l8.4,0.1C789.1,1052.3,788.8,1055.2,788.8,1056.5z
		 M819.8,1075.1l-7.2,2.8c-0.6-6.8-2.8-18.6-8.1-24.4l7-2.2C815.9,1056.5,819.4,1068.6,819.8,1075.1z"/>
	<path class="st2" d="M846.5,1049.5c0,0.4,0,0.8,0,1.3c3.5-0.2,7-0.5,10.9-1.2l0,6.2c-2.7,0.4-6.7,0.8-11,0.9c0,1.3,0,2.6,0,3.7
		c4.6-0.2,8.2-0.6,11.7-1l0,6.4c-4,0.4-7.2,0.7-11.5,0.8c0.1,1.4,0.2,3,0.3,4.5c5.5,1.6,9.7,4.5,12.3,6.7l-3.9,6.1
		c-2.2-2.1-5-4.3-8.1-5.8v0.9c0,4.2-3.4,7.1-9.4,7.1c-7.6,0-11.5-3-11.5-8c0-4.8,4.3-8.2,11.5-8.2c0.8,0,1.5,0,2.2,0.1
		c0-1-0.1-2.1-0.1-3.1h-2.2c-2.4,0-7.6-0.2-10.4-0.6l-0.1-6.4c2.8,0.5,8.5,0.9,10.6,0.9h2c0-1.2,0-2.5,0-3.7h-1.4
		c-2.7,0-7.7-0.4-10.8-0.8l-0.1-6.2c3.4,0.5,8.3,1,10.9,1h1.5v-1.5c0-0.9-0.1-2.3-0.3-3.3h7.4
		C846.6,1047.2,846.5,1048.4,846.5,1049.5z M836.6,1080c2.3,0,3.6-0.6,3.6-2.9c0-0.3,0-0.8,0-1.3c-1.1-0.2-2.2-0.3-3.4-0.3
		c-2.5,0-4,1-4,2.2C832.8,1079.2,834.3,1080,836.6,1080z"/>
	<path class="st2" d="M876.1,1053.8c-0.2,4.7-0.5,14.4-0.5,19.4c0,4.3,2.5,5.7,5.5,5.7c7,0,11.7-4.1,15-9.1l5,6.1
		c-2.8,4.3-9.5,10.5-20,10.5c-7.9,0-12.8-3.6-12.8-11.4c0-5.7,0.4-17.7,0.4-21.1c0-2.4-0.2-4.9-0.7-6.9l8.8,0.1
		C876.4,1049.1,876.2,1051.8,876.1,1053.8z"/>
	<path class="st2" d="M920.4,1058.9v1.5c2.9-0.1,7.1-0.3,9.9-0.6l0.2,6c-2.9,0.2-7.1,0.4-10.1,0.5c0,1.8,0.2,4.3,0.4,6.8
		c4.6,1.6,8.3,4.3,10.6,6.5l-3.7,5.9c-1.8-1.8-3.9-3.9-6.5-5.5v0.2c0,3.5-1.8,6.8-8.5,6.8c-5.5,0-10.4-2.4-10.4-7.6
		c0-4.6,3.9-7.7,10.6-7.7c0.4,0,0.9,0,1.3,0c-0.1-2.4-0.3-4.9-0.3-6.8v-5.9c0-2-0.2-4-0.4-4.9h7.3
		C920.7,1055.1,920.4,1057.1,920.4,1058.9z M911.8,1080.9c1.8,0,2.6-0.9,2.6-2.9v-0.7c-0.8-0.1-1.6-0.2-2.4-0.2
		c-2.4,0-3.5,0.8-3.5,1.9C908.5,1080.1,909.9,1080.9,911.8,1080.9z"/>
	<path class="st2" d="M953.8,1063.7c-4.8,0-9.3,1.5-11.4,2.2c-1.3,0.4-3.3,1.2-4.7,1.7l-2-7.7c1.7-0.1,3.8-0.5,5.4-0.8
		c3.4-0.8,8.4-2,13.7-2c7.5,0,12.6,4.3,12.6,11.7c0,9.6-9,15.8-22,17.5l-3.9-6.8c11.3-1.2,18.2-4.5,18.2-11
		C959.7,1065.9,957.8,1063.7,953.8,1063.7z M963.5,1048l-1.1,6.7c-5.4-0.4-15.6-1.3-20.8-2.2l1-6.5
		C948.1,1047.2,958.6,1048,963.5,1048z"/>
	<path class="st2" d="M977,1079c0-2.7,1.9-4.5,4.6-4.5s4.6,1.8,4.6,4.5s-1.9,4.6-4.6,4.6C978.9,1083.5,977,1081.6,977,1079z
		 M977.5,1056.8l-0.3-7.5h8.8l-0.3,7.5l-1.3,14.2h-5.6L977.5,1056.8z"/>
</g>
<g>
	<g>
		<path class="st2" d="M109.6,549.2c0,0,0,2.1,0,2.9c-0.6,19.5-1.1,26.8-3,29.2c-1.4,1.9-2.7,2.5-4.8,2.9c-1.7,0.3-4.5,0.3-7.1,0.2
			c-0.1-1.8-1-4.7-2.2-6.6c2.7,0.2,5.3,0.2,6.5,0.2c0.9,0,1.4-0.2,1.9-0.8c1.3-1.3,1.8-7.7,2.3-22H92c-1.1,2.1-2.4,4-3.6,5.6
			c-0.9-0.8-2.7-2.1-4.2-3.1c1.4,2.8,2.7,5.9,3.2,8.2l-4.9,2.2c-0.1-0.7-0.3-1.4-0.5-2.2l-1.8,0.1v3.5l4-1.3
			c1.1,2.7,2.3,6.2,2.8,8.5l-5,1.8c-0.3-1.8-1-4.2-1.8-6.5v12.4h-5.8v-13.9c-0.4,4-1.3,8.1-2.4,10.8c-1.1-0.7-3.6-1.8-4.9-2.3
			c1.2-2.6,1.8-6.7,2.1-10.4l5.3,0.9v-3l-6.3,0.5l-0.5-5.6l3.6-0.1c0.5-0.7,1-1.4,1.6-2.1c-1.3-2-3.3-4.3-5.1-6l3-4.5l0.9,0.8
			c1.1-2.4,2.2-5.3,2.9-7.6l5.8,2c-1.7,3.2-3.6,6.7-5.1,9.2c0.3,0.4,0.7,0.8,0.9,1.2c1.4-2.4,2.8-4.8,3.8-6.9l5.5,2.2
			c-1.8,2.8-3.9,5.8-6,8.7l3.7-1.7c3.2-3.5,5.8-9.1,7.1-14.8l6.8,1.5c-0.5,2-1.2,4-1.9,5.9H109.6z M80,561c-0.4-0.9-0.7-1.7-1.1-2.4
			c-0.7,0.9-1.3,1.8-2,2.6L80,561z M93.5,573.2c-0.8-2.8-3-7.1-5.2-10.3l5.2-2.6c2.2,3.1,4.7,7.2,5.6,10L93.5,573.2z"/>
		<path class="st2" d="M115.1,573.8h7.1v-18.2h-6.2v-4.9c3.6-0.7,5.9-1.6,8.3-3.1h5.9v26.2h6v6.5h-21.1V573.8z"/>
		<path class="st2" d="M156.4,575.9h-8.8v4.2h-6v-35.6h14.8V575.9z M147.6,550.3v6.8h2.7v-6.8H147.6z M150.3,570.1v-7.4h-2.7v7.4
			H150.3z M178.7,560.6v3.1h3.8v5.7h-3.8v8.5c0,3-0.5,4.6-2.5,5.5c-2,0.9-4.5,1.1-7.7,1.1c-0.2-1.8-1.2-4.4-2-6.1
			c1.9,0.1,4.3,0.1,5,0.1c0.7,0,0.9-0.1,0.9-0.7v-8.4h-15.1v-5.7h15.1v-3.1h-15.1v-5.7h9.5v-3h-8.3v-5.6h8.3v-4.5h6.4v4.5h8.6v5.6
			h-8.6v3h9.6v5.7H178.7z M163.3,579.8c-0.8-2.1-2.9-5.2-4.9-7.4l5.2-3c2,2.1,4.3,5,5.3,7.2L163.3,579.8z"/>
		<path class="st2" d="M193.8,560.3v24.3h-6.5v-41.1h17.9v16.8H193.8z M193.8,548.1v1.5h5.3v-1.5H193.8z M199.1,555.7v-1.8h-5.3v1.8
			H199.1z M226,577.1c0,3.3-0.6,5.2-2.6,6.3c-2,1.1-4.7,1.2-8.7,1.2c-0.1-1.1-0.5-2.7-1-4.2h-10.2v2.3h-5.9v-20.1h17.7v15.4h3
			c0.8,0,1.1-0.3,1.1-1v-16.6h-11.7v-17H226V577.1z M203.5,567.4v1.9h5.7v-1.9H203.5z M209.3,575.7v-1.9h-5.7v1.9H209.3z
			 M213.9,548.1v1.5h5.5v-1.5H213.9z M219.4,555.8v-1.9h-5.5v1.9H219.4z"/>
		<path class="st2" d="M253.9,582.8l-4.1-6.5c1.9-0.2,3.1-0.5,4.4-0.8c5.7-1.4,9.5-5.4,9.5-11.3c0-5.8-2.8-9.9-8-11.2
			c-0.6,3.6-1.4,7.6-2.7,11.7c-2.7,9-6.7,15-12,15c-5.6,0-9.8-6-9.8-13.7c0-10.7,9.2-19.8,21.2-19.8c11.5,0,18.7,7.9,18.7,18.1
			C271.2,573.9,265.6,580.8,253.9,582.8z M241.2,571.3c1.8,0,3.1-2.7,4.8-8c1-3.1,1.8-6.6,2.3-10.1c-6.7,1.8-10,7.9-10,12.1
			C238.3,569.3,239.6,571.3,241.2,571.3z"/>
		<path class="st2" d="M307.9,555.5c2.4,6.6,6.2,13.4,10.3,17.6c-1.5,1.1-3.7,3.4-4.9,5.1c-1.1-1.3-2.1-2.8-3.1-4.5v3.7h-5.4v6.8
			h-6.4v-6.8h-5.1v-4.1c-1.1,1.8-2.4,3.5-3.7,4.9c-1-1.4-2.9-3.5-4.3-4.6v10.9h-6.2v-22c-0.7,0.9-1.4,1.8-2.2,2.7
			c-0.6-1.6-2.3-5.3-3.5-6.9c3.6-4,7.1-10.2,9-16.3l6.2,1.9c-0.9,2.7-2.1,5.4-3.4,8.2V573c4.2-4.1,8-10.8,10.3-17.5h-7.9v-6.2h10.7
			v-7.2h6.4v7.2h11.9v6.2H307.9z M298.5,571.6v-8.9c-1.2,3.1-2.6,6.2-4,8.9H298.5z M309.1,571.6c-1.6-2.9-3-6.1-4.2-9.5v9.5H309.1z"
			/>
		<path class="st2" d="M327.3,571.2c0.4,2.7,0.5,6.1,0.4,8.3l-2.8,0.4c0.2-2.2,0.1-5.6-0.2-8.3c-0.2,4-0.7,7.9-2.5,10.4l-3.2-1.7
			c1.6-2.3,2.1-6,2.3-9.9l3.5,0.7v0.4L327.3,571.2z M354.9,571.9c1.8,3.2,4.5,5.9,7.9,7.5c-1.3,1.2-3.2,3.6-4.1,5.1
			c-3.4-1.9-5.9-5-7.8-8.8c-1.8,3.4-4.8,6.5-9.7,9c-0.6-1-1.8-2.4-2.8-3.5c-0.2,0.6-0.4,1-0.6,1.3c-0.8,1.1-1.7,1.6-2.8,1.8
			c-1,0.2-2.4,0.3-4,0.2c-0.1-1.5-0.6-3.6-1.4-5c1,0.1,1.8,0.1,2.3,0.1c0.5,0,0.8-0.1,1.2-0.6c0.3-0.4,0.5-1.3,0.7-3l-1.4,0.5
			c-0.2-1.6-1-4-1.8-5.8l2.4-0.8c0.4,0.8,0.8,1.7,1.1,2.6c0-1,0.1-2.3,0.2-3.7h-12.6v-25.5h16.9v5.2h-4.2v1.6h3.3v2.1
			c3.9-2.4,7.6-7,9.4-10.5h5.6c2.6,4,6.3,8.1,10.3,9.8c-1.1,1.5-2.4,3.9-3.2,5.7c-0.8-0.5-1.7-1.1-2.5-1.8v2.2h-3.9v1.7h7.7v12.4
			H354.9z M326.9,548.6v1.6h2.3v-1.6H326.9z M326.9,555.1v2h2.3v-2H326.9z M326.9,563.9h2.3v-2h-2.3V563.9z M330.4,570.9
			c0.6,2.3,1.2,5.4,1.3,7.3l-2.7,0.5c0-2-0.5-5-1.1-7.4L330.4,570.9z M339.7,563.9c0,0,0,1.4,0,2.1c-0.3,6.6-0.5,10.8-0.9,13.4
			c3.9-2.1,6.1-4.7,7.3-7.5h-5.8v-12.4h7.3v-1.7h-4.1v-2.3c-1,0.9-2.2,1.8-3.3,2.4c-0.5-1.3-1.5-3.2-2.4-4.6v1.8h-3.3v2h3.3v4.9
			h-3.3v2H339.7z M347.3,567.3c0.1-1.1,0.2-2.1,0.2-3.1h-2.1v3.1H347.3z M354.2,552.9c-1.7-1.8-3.1-3.6-4.2-5.4
			c-0.9,1.7-2.3,3.6-4,5.4H354.2z M355.5,564.2h-2.2c0,1,0,2.1-0.1,3.1h2.3V564.2z"/>
		<path class="st2" d="M370.5,575v-23.7c0-2-0.3-4.2-0.6-5.7h8.5c-0.3,2.1-0.5,3.7-0.5,5.7v22.2c6.6-2,16.4-7.7,22.3-14.6l3.9,6.2
			c-6.3,7.4-15.7,12.7-26,16.3c-0.7,0.2-1.8,0.6-3.1,1.4l-5.2-4.5C370.5,577,370.5,576.1,370.5,575z"/>
		<path class="st2" d="M418.3,565.9l-6.7,2.5c-0.8-2.4-2.9-8.3-4.1-10.5l6.6-2.3C415.3,558.1,417.4,563.3,418.3,565.9z M440,560.7
			c-1.2,4.3-3.1,8.9-6,12.8c-4.2,5.5-9.9,9.4-15.3,11.5l-5.7-5.9c4.8-1.2,11.3-4.6,15.1-9.4c3-3.7,5.1-9.9,5.5-15.4l7.7,2.5
			C440.6,558.6,440.3,559.7,440,560.7z M428.3,563.1l-6.5,2.2c-0.6-2.2-2.5-7.6-3.7-10.1l6.5-2.1C425.4,555.1,427.6,561,428.3,563.1
			z"/>
		<path class="st2" d="M477.8,552.9c-1.5,3.3-3.9,7.8-6.8,11.9c4.4,3.8,9.8,9.5,12.2,12.6l-6.3,5.4c-2.9-4.1-6.7-8.4-10.8-12.3
			c-4.7,4.9-10.6,9.4-16.5,12.3l-5.7-5.9c7.3-2.7,14.4-8.2,18.4-12.6c2.9-3.3,5.4-7.3,6.3-10.2h-14c-2,0-4.5,0.3-5.8,0.4v-7.7
			c1.6,0.2,4.5,0.4,5.8,0.4h15c2.2,0,4.4-0.3,5.4-0.7l4.5,3.3C479.3,550.2,478.3,551.7,477.8,552.9z"/>
		<path class="st2" d="M504.9,569.8c8.1-4.7,14.2-11.7,17.2-18l4.2,7.7c-3.6,6.4-10,12.6-17.5,17.1c-4.6,2.7-10.4,5-16.1,5.9
			l-4.6-7.2C494.7,574.4,500.5,572.3,504.9,569.8z M506.4,555.1l-5.6,5.7c-2.4-2.6-8.1-7.6-11.3-9.9l5.2-5.5
			C497.8,547.5,503.7,552.2,506.4,555.1z"/>
		<path class="st2" d="M79.2,602c4-0.2,8.3-0.6,12.1-1.3l0,6.3c-4.2,0.5-9.7,0.9-14.5,1.1c-0.6,1.2-1.2,2.3-1.8,3.2
			c0.9-0.3,3.2-0.5,4.5-0.5c2.7,0,4.8,1.1,6,3.2c1.8-0.9,3.3-1.4,4.9-2.2c2-0.9,3.8-1.7,5.8-2.7l2.7,6.3c-1.6,0.5-4.4,1.5-6.1,2.2
			c-1.7,0.7-3.9,1.5-6.3,2.6c0,2.5,0.1,5.5,0.2,7.5H80c0.1-1.2,0.2-2.8,0.2-4.5c-2.8,1.7-4,3.2-4,4.9c0,1.9,1.4,2.7,5.6,2.7
			c4,0,9.1-0.5,13.1-1.4l-0.2,7c-2.7,0.4-8.5,0.8-13,0.8c-7.4,0-12.7-1.9-12.7-7.9c0-5.9,5.4-9.6,10.3-12.2
			c-0.7-0.7-1.6-0.9-2.5-0.9c-2.3,0-5.1,1.5-6.6,3c-1.4,1.4-2.7,3-4.2,5.1l-5.8-4.4c4.2-3.8,7.4-7.5,9.6-11.6
			c-1.8,0-5.1-0.1-7.5-0.3v-6.3c2.2,0.4,5.7,0.5,8.1,0.5h1.8c0.4-1.7,0.7-3.4,0.8-4.9l7.2,0.6C80,598.9,79.7,600.3,79.2,602z"/>
		<path class="st2" d="M132.4,627.1c3.6,2.3,8.3,4.3,12.9,5.4c-1.4,1.3-3.4,3.9-4.4,5.5c-4.9-1.7-9.9-4.5-13.9-7.9v8.4h-6.7v-8.4
			c-3.9,3.6-8.8,6.5-13.8,8.2c-1-1.6-3-4.1-4.4-5.4c4.6-1.3,9.3-3.4,12.9-5.9h-11.5v-5.6h16.7V619h-5.7v-4.5c-3,1.8-6.3,3.8-9,5.4
			l-3.2-5.4c2.7-1.2,6.7-3.3,10.7-5.4l1.5,4.5v-13.4h5.1c0.4-1.5,0.7-3.1,0.8-4.5l7.4,0.8c-0.5,1.3-1,2.6-1.5,3.7h6.3v4
			c1.9-1.8,4.2-4.2,5.6-6.2l5.6,3.4c-2.4,2.6-5.2,5.2-7.4,6.9l-3.8-2.5v5.1l1.9-2.2c3.2,1.6,8.1,4.2,10.5,6.1l-4,4.9
			c-1.8-1.6-5.3-3.8-8.4-5.6v4.9H127v2.5H144v5.6H132.4z M109.7,609.4c-1.3-2.1-4.3-5-6.8-7l4.5-3.7c2.6,1.8,5.7,4.5,7.2,6.6
			L109.7,609.4z M126.5,605.2h-5.8v2.2h5.8V605.2z M120.7,614.1h5.8v-2.2h-5.8V614.1z"/>
		<path class="st2" d="M160.3,605.1c-0.2,4.7-0.5,14.4-0.5,19.4c0,4.3,2.5,5.7,5.5,5.7c7,0,11.7-4.1,15-9.1l4.9,6.1
			c-2.8,4.3-9.5,10.5-20,10.5c-7.9,0-12.8-3.6-12.8-11.4c0-5.7,0.4-17.7,0.4-21.1c0-2.4-0.2-4.9-0.7-6.9l8.8,0.1
			C160.7,600.4,160.4,603.1,160.3,605.1z"/>
		<path class="st2" d="M209.8,602.9c-2.3,3.3-4.9,8.1-7.1,11.8c1.4-0.4,2.8-0.6,4.3-0.6c3.6,0,5.5,2.2,5.8,6.1c0.1,1.6,0,5.3,0.2,7
			c0.2,1.5,1.3,2,2.5,2c3.3,0,5.4-4.4,6.8-10.4l5.9,4.8c-2.3,8-6.7,13.2-13.9,13.2c-5.1,0-7.8-3-8.1-6.6c-0.2-2.3-0.2-6.1-0.3-7.6
			c-0.1-1.3-0.9-2.2-2.2-2.2c-2.7,0-4.8,2.8-6.3,6.5c-1.1,2.6-2.4,7.5-3.1,9.9l-7.7-2.6c3.3-9,12.2-27.3,14.6-31.5
			c0.6-1.3,1.6-3,2.5-5.2l7.7,3.1C210.8,601.5,210.3,602.3,209.8,602.9z"/>
		<path class="st2" d="M231.4,602.5c4.2-0.4,11-0.9,19.3-1.6c4.5-0.4,9.8-0.7,13.1-0.8l0,7c-2.3,0-6.2,0-8.6,0.5
			c-4.9,1.1-9,6.3-9,11.7c0,6.6,6.2,9.2,14,9.7l-2.6,7.6c-10-0.8-18.6-6.2-18.6-15.8c0-6.2,3.3-10.9,5.7-13.1
			c-3.9,0.4-11.8,1.3-17.2,2.5l-0.7-7.4C228.6,602.7,230.5,602.6,231.4,602.5z M260.9,616.9l-4,1.8c-1.2-2.6-2-4.1-3.4-6.2l3.9-1.6
			C258.5,612.6,260.1,615.3,260.9,616.9z M266.2,614.6l-4,1.9c-1.3-2.6-2.2-4-3.6-6l3.9-1.8C263.7,610.4,265.3,613,266.2,614.6z"/>
		<path class="st2" d="M278.5,607.9c0,3,0,5.9,0.3,8.9c0.5,5.9,1.4,10,4.1,10c2.1,0,3.6-5.6,4.3-8.7l5.5,6.8c-3.1,8-6,10.8-9.9,10.8
			c-5.4,0-9.8-4.5-11-16.8c-0.5-4.3-0.5-9.4-0.5-12.3c0-1.4-0.1-3.3-0.4-4.9l8.4,0.1C278.7,603.6,278.5,606.5,278.5,607.9z
			 M309.5,626.4l-7.2,2.8c-0.6-6.8-2.8-18.6-8.1-24.4l7-2.2C305.5,607.8,309.1,620,309.5,626.4z"/>
		<path class="st2" d="M331.2,602.7c0,0.2-0.1,0.5-0.2,0.8c2.3-0.4,4.6-0.8,6.9-1.3v6.8c-2.6,0.6-5.4,1.1-8.4,1.4
			c-0.4,1.9-0.9,3.9-1.3,5.7c-1.6,6.3-4.6,15.4-7.2,21l-7.6-2.6c2.7-4.5,6.2-14,7.9-20.3c0.3-1,0.6-2.1,0.8-3.2c-0.8,0-1.6,0-2.3,0
			c-2.3,0-4-0.1-5.6-0.2l-0.2-6.8c2.4,0.3,3.9,0.4,5.8,0.4c1.2,0,2.4,0,3.6-0.1c0.1-0.7,0.2-1.3,0.2-1.8c0.2-1.9,0.3-3.9,0.1-5
			l8.3,0.6C331.9,599.5,331.4,601.7,331.2,602.7z M336.7,626.8c0,1.9,1.4,3.1,5.4,3.1c3.1,0,6.2-0.4,9.6-0.9l-0.3,6.9
			c-2.6,0.3-5.6,0.6-9.4,0.6c-7.9,0-12.1-2.8-12.1-7.4c0-2.3,0.5-4.7,0.9-6.4l6.5,0.6C337,624.4,336.7,625.8,336.7,626.8z
			 M342.9,611.2c2.5,0,5.2,0.1,8,0.4l-0.1,6.5c-2.2-0.3-5-0.6-7.8-0.6c-3.2,0-6,0.1-8.9,0.5v-6.3C336.6,611.4,340,611.2,342.9,611.2
			z"/>
		<path class="st2" d="M374.2,603.2c0,0.2-0.1,0.5-0.2,0.8c2.3-0.4,4.6-0.8,6.9-1.3v6.8c-2.6,0.6-5.5,1.1-8.4,1.4
			c-0.5,1.9-0.9,3.9-1.4,5.7c-1.7,6.3-4.6,15.4-7.2,21l-7.6-2.6c2.7-4.5,6.3-14,7.9-20.3c0.3-1,0.6-2.1,0.8-3.2c-0.8,0-1.5,0-2.2,0
			c-2.3,0-4-0.1-5.6-0.2l-0.2-6.8c2.4,0.3,3.8,0.4,5.8,0.4c1.2,0,2.4,0,3.6-0.1c0.1-0.7,0.2-1.3,0.3-1.8c0.2-1.9,0.3-3.9,0.1-5
			l8.3,0.6C374.9,599.9,374.5,602.1,374.2,603.2z M379.8,627.2c0,1.9,1.4,3.1,5.4,3.1c3,0,6.2-0.4,9.6-0.9l-0.3,6.9
			c-2.6,0.3-5.6,0.7-9.4,0.7c-7.9,0-12.1-2.9-12.1-7.5c0-2.3,0.5-4.7,0.8-6.4l6.5,0.6C380,624.8,379.8,626.3,379.8,627.2z
			 M386,611.6c2.5,0,5.2,0.1,8,0.4l-0.1,6.5c-2.2-0.3-5-0.6-7.8-0.6c-3.3,0-6,0.1-8.9,0.5v-6.3C379.7,611.9,383,611.6,386,611.6z
			 M392.7,606l-4.3,1.8c-0.9-1.8-2.2-4.5-3.5-6.3l4.2-1.7C390.3,601.5,391.9,604.4,392.7,606z M398.3,603.8l-4.2,1.8
			c-0.9-1.8-2.3-4.5-3.6-6.2l4.2-1.7C395.9,599.3,397.5,602.2,398.3,603.8z"/>
		<path class="st2" d="M418.2,611.2c-0.1-0.4-0.3-0.8-0.4-1.1c-0.3-0.9-0.5-1.6-0.7-2.2c-4.2,0.2-9.3,0.1-15-0.5l-0.4-6.2
			c5.3,0.6,9.6,0.8,13.6,0.7c-0.4-1.3-0.9-2.7-1.4-4.1l7.3-0.8c0.2,1.6,0.5,3,0.7,4.4c3-0.4,5.8-1,8.6-1.9l0.9,6.2
			c-2.4,0.7-5.1,1.2-8,1.6c0.1,0.5,0.3,1,0.5,1.6c0.2,0.5,0.4,1.1,0.6,1.7c3.6-0.5,6.2-1.2,8.4-1.8l1.1,6.4c-2,0.5-4.2,0.9-6.6,1.3
			c0.6,1.1,1.2,2.2,1.8,3.1c0.7,1,1.3,1.7,2.2,2.6l-3.2,4.9c-2.5-0.4-7.8-1.1-11.2-1.4l0.5-5.2c1.6,0.1,3.8,0.3,5,0.4
			c-0.7-1.3-1.4-2.5-1.9-3.7c-5.5,0.3-12.7,0.3-19.4-0.1l-0.4-6.4C407.5,611.3,413.3,611.4,418.2,611.2z M408.7,626.5
			c0,3.1,3.1,4.2,8.4,4.2c4.3,0,8.4-0.4,11.6-1l-0.4,6.9c-3.1,0.5-7.6,0.9-11.2,0.9c-9.1,0-15-2.7-15.2-9.5c-0.1-3.1,1-5.5,2.1-7.7
			l6.8,1.3C409.6,623.1,408.7,624.6,408.7,626.5z"/>
		<path class="st2" d="M461.2,600.8c0,0.4,0,0.8,0,1.3c3.5-0.2,7-0.5,10.9-1.2l0,6.2c-2.7,0.4-6.7,0.8-11,0.9c0,1.3,0,2.6,0,3.7
			c4.6-0.2,8.2-0.6,11.7-1l0,6.4c-4,0.4-7.2,0.7-11.5,0.8c0.1,1.4,0.2,3,0.3,4.5c5.5,1.6,9.7,4.5,12.3,6.7l-3.9,6.1
			c-2.2-2.1-4.9-4.3-8.1-5.8v0.9c0,4.2-3.4,7.1-9.4,7.1c-7.6,0-11.5-3-11.5-8c0-4.8,4.3-8.2,11.5-8.2c0.8,0,1.5,0,2.2,0.1
			c0-1-0.1-2.1-0.1-3.1h-2.2c-2.4,0-7.6-0.2-10.4-0.6l-0.1-6.4c2.8,0.5,8.5,0.9,10.6,0.9h2c0-1.2,0-2.5,0-3.7H453
			c-2.7,0-7.7-0.4-10.8-0.8l-0.1-6.2c3.4,0.5,8.3,1,10.9,1h1.5v-1.5c0-0.9-0.1-2.3-0.3-3.3h7.4C461.4,598.5,461.3,599.8,461.2,600.8
			z M451.4,631.3c2.3,0,3.6-0.6,3.6-2.9c0-0.3,0-0.8,0-1.3c-1.1-0.2-2.2-0.3-3.4-0.3c-2.5,0-4,1-4,2.2
			C447.5,630.5,449,631.3,451.4,631.3z"/>
		<path class="st2" d="M504.1,602.1v0.5c4.2,0,10.2-0.1,12.6,0l-0.1,6.4c-2.7-0.1-6.9-0.2-12.6-0.3c0,2.2,0,4.5,0,6.3
			c1.2,1.8,1.8,4,1.8,6.4c0,5.8-3.7,13.6-15,16.6l-5.8-5.8c3.9-0.8,7.6-1.9,10.3-4c-0.3,0-0.5,0-0.8,0c-3.3,0-8-2.8-8-8.6
			c0-5.4,4.4-8.8,9.6-8.8c0.4,0,0.8,0,1.1,0c0-0.8,0-1.5,0-2.3c-6.7,0.1-13.4,0.4-18.9,0.6l-0.2-6.5c5.2,0,13.2-0.1,19-0.2
			c0-0.2,0-0.4,0-0.5c-0.2-2.2-0.4-3.8-0.5-4.5h7.9C504.4,598.5,504.2,601.3,504.1,602.1z M496,622.4c1.4,0,3-1,2.5-4.5
			c-0.6-0.8-1.4-1.2-2.5-1.2c-1.4,0-2.9,0.9-2.9,2.9C493.1,621.3,494.6,622.4,496,622.4z"/>
		<path class="st2" d="M529.3,630.6c0,4.1-3.3,7.5-7.5,7.5c-4.1,0-7.5-3.4-7.5-7.5c0-4.1,3.4-7.5,7.5-7.5
			C526,623.1,529.3,626.4,529.3,630.6z M525.5,630.6c0-2.1-1.7-3.7-3.7-3.7c-2,0-3.7,1.7-3.7,3.7c0,2.1,1.7,3.7,3.7,3.7
			C523.9,634.3,525.5,632.6,525.5,630.6z"/>
		<path class="st2" d="M89.4,665.2c-0.1-0.4-0.3-0.8-0.4-1.1c-0.3-0.9-0.5-1.6-0.7-2.2c-4.2,0.2-9.3,0.1-15-0.5l-0.4-6.2
			c5.3,0.6,9.6,0.8,13.6,0.7c-0.4-1.3-0.9-2.7-1.4-4.1l7.3-0.8c0.2,1.6,0.5,3,0.7,4.4c3-0.4,5.8-1,8.6-1.9l0.9,6.2
			c-2.4,0.7-5.1,1.2-8,1.6c0.1,0.5,0.3,1,0.5,1.6c0.2,0.5,0.4,1.1,0.6,1.7c3.6-0.5,6.2-1.2,8.4-1.8l1.1,6.4c-2,0.5-4.2,0.9-6.6,1.3
			c0.6,1.1,1.2,2.2,1.8,3.1c0.7,1,1.3,1.7,2.2,2.6l-3.2,4.9c-2.5-0.4-7.8-1.1-11.2-1.4l0.5-5.2c1.6,0.1,3.8,0.3,5,0.4
			c-0.7-1.3-1.4-2.5-1.9-3.7c-5.5,0.3-12.7,0.3-19.4-0.1l-0.4-6.4C78.7,665.3,84.5,665.4,89.4,665.2z M79.9,680.5
			c0,3.1,3.1,4.2,8.4,4.2c4.3,0,8.4-0.4,11.6-1l-0.4,6.9c-3.1,0.5-7.6,0.9-11.2,0.9c-9.1,0-15-2.7-15.2-9.5c-0.1-3.1,1-5.5,2.1-7.7
			l6.8,1.3C80.9,677.1,79.9,678.6,79.9,680.5z"/>
		<path class="st2" d="M112.1,667.4c3-0.9,10.8-3.4,16.3-3.4c7.6,0,12.4,4.5,12.4,11.7c0,7.8-6.5,14-22,15l-2.9-6.7
			c10.6-0.3,17.6-3,17.6-8.4c0-3.1-2.2-5.2-5.8-5.2c-5,0-13.5,3.5-17.9,5.4l-2.8-7.1C108.3,668.4,110.8,667.8,112.1,667.4z"/>
		<path class="st2" d="M160.7,663.9c3.3-1.9,6.7-3.6,8.6-4.8c1.9-1.1,3.4-2,4.7-3.1l3.8,6.3c-1.6,0.9-3.2,1.8-5,2.7
			c-2.7,1.3-8,3.7-11.9,6.3c-3.5,2.3-6,4.7-6,7.7c0,3,2.9,4.4,8.6,4.4c4.5,0,10.6-0.8,14.8-1.8l-0.1,7.9c-4.1,0.7-8.6,1.1-14.6,1.1
			c-9.3,0-16.4-2.5-16.4-10.8c0-5.1,3.2-8.8,7.3-11.9c-2.1-3.9-4.2-8.5-6.2-13.2l6.8-2.8C156.9,656.5,158.9,660.6,160.7,663.9z"/>
		<path class="st2" d="M197.9,686.6c-0.6-0.7-1.4-1.6-2.2-2.6v8.5h-6.3v-7.5c-1.4,1.9-3.1,3.7-4.6,5c-1-1.4-2.9-3.6-4.2-4.6
			c2.8-1.8,5.7-4.8,7.6-7.9h-6.3v-5.4h7.5v-2.7h-7.6v-5.3h3.6c-0.2-1.3-0.6-2.8-1.1-4.1l2.4-0.6h-4.4v-5.3h7.1v-3.8h6.3v3.8h7.1v5.3
			H199l1.9,0.4c-0.8,1.7-1.4,3.2-1.9,4.3h3.9v5.3h-7.3v2.7h6.9v5.4h-6.9v0c1.6,1,5,3.6,6,4.4L197.9,686.6z M189.4,659.4
			c0.6,1.3,1.1,3,1.2,4.1l-2,0.5h7.7l-2.7-0.5c0.5-1.2,1-2.7,1.4-4.1H189.4z M210.3,664.6h13.5v6H220v21.8h-6.3v-21.8h-3.3
			c-0.1,6.7-1.3,16.1-6.9,22c-0.8-1.4-3.2-3.7-4.7-4.5c4.9-5.4,5.4-13.1,5.4-19.2v-15.7l3.6,1c4.1-1.1,8.2-2.5,10.9-4l5.2,4.7
			c-4,1.8-9,3.2-13.5,4.2V664.6z"/>
		<path class="st2" d="M239.1,659.1c-0.2,4.7-0.5,14.4-0.5,19.4c0,4.3,2.5,5.7,5.5,5.7c7,0,11.7-4.1,15-9.1l4.9,6.1
			c-2.8,4.3-9.5,10.5-20,10.5c-7.9,0-12.8-3.6-12.8-11.4c0-5.7,0.4-17.7,0.4-21.1c0-2.4-0.2-4.9-0.7-6.9l8.8,0.1
			C239.4,654.4,239.2,657.1,239.1,659.1z"/>
		<path class="st2" d="M276.2,661.9c0,3,0,5.9,0.3,8.9c0.5,5.9,1.4,10,4.1,10c2.1,0,3.6-5.6,4.3-8.7l5.5,6.8c-3.1,8-6,10.8-9.9,10.8
			c-5.4,0-9.8-4.5-11-16.8c-0.5-4.3-0.5-9.4-0.5-12.3c0-1.4-0.1-3.3-0.4-4.9l8.4,0.1C276.5,657.6,276.2,660.5,276.2,661.9z
			 M307.2,680.4l-7.2,2.8c-0.6-6.8-2.8-18.6-8.1-24.4l7-2.2C303.3,661.8,306.8,674,307.2,680.4z"/>
		<path class="st2" d="M328.2,655.8l-0.1,2.3c2.8-0.4,5.5-0.9,7.8-1.5l0.1,6.8c-2.5,0.5-5.4,1-8.1,1.3c0,0.9,0,1.9,0,2.9v1.8
			c2.8-0.6,5.7-0.9,7.9-0.9c7.1,0,13,3.6,13,10.3c0,5.3-2.4,9.6-10.1,11.5c-2.1,0.5-4.1,0.6-6.1,0.8l-2.5-7.1c2.2,0,4.1,0,5.6-0.3
			c3.5-0.6,6-2.2,6-5c0-2.7-2.2-4.3-6-4.3c-2.5,0-5.2,0.4-7.7,1c0.1,3.4,0.2,6.5,0.2,7.9c0,6.3-2.2,7.9-5.5,7.9
			c-4.9,0-11.2-4-11.2-9.1c0-4,4.5-8.3,10.2-10.8c0-1.2,0-2.3,0-3.5v-2.6c-0.7,0-1.4,0-1.9,0c-3.2,0-5,0-6.6-0.2l-0.1-6.6
			c2.7,0.3,4.9,0.3,6.5,0.3c0.7,0,1.4,0,2.2,0v-2.8c0-0.9-0.2-3.6-0.3-4.4h7.5C328.5,652.3,328.3,654.6,328.2,655.8z M320.5,683.6
			c0.7,0,1.3-0.2,1.3-1.8c0-0.9,0-2.4-0.1-4.2c-2.2,1.3-3.6,2.7-3.6,4C318.1,682.7,319.7,683.6,320.5,683.6z M352.4,662.4l-3.2,5.5
			c-2.1-1.7-8.5-5.2-11.2-6.4l2.9-5.3C344.5,657.9,349.9,660.8,352.4,662.4z"/>
		<path class="st2" d="M391.4,668c-1.6,5.9-4.1,10.7-7.4,14.4c3.3,1.8,7.3,3.1,11.9,3.9c-1.4,1.4-3.3,4.2-4.2,6
			c-5.1-1.2-9.4-2.9-12.9-5.3c-3.2,2.3-6.9,4.1-11.1,5.4c-0.8-1.7-2.4-4.2-3.7-5.5c3.6-0.9,6.8-2.4,9.6-4.3
			c-1.9-2.1-3.6-4.5-5.1-7.2c-2,5.6-5.1,11-9.7,15.4c-1.4-1.8-3.4-3.4-5.6-4.7c7.6-6.3,10.6-15.8,11.8-23.7h-9.9v-6.3h10.5
			c0.2-2.6,0.2-4.8,0.3-6.3h6.8c-0.1,1.6-0.1,3.8-0.4,6.3h22.2v6.3h-22.9c-0.2,1.3-0.4,2.6-0.7,3.9h14.7l1.2-0.3L391.4,668z
			 M373.8,672.7c1.3,2.2,2.9,4.2,4.8,5.9c1.6-1.8,3-3.7,4.1-5.9H373.8z"/>
		<path class="st2" d="M409.9,681.7c1.5,2.8,4.2,4,8.5,4.1c5.6,0.3,16.5,0.1,23.2-0.5c-0.7,1.5-1.7,4.5-2,6.3
			c-5.9,0.3-15.5,0.4-21.2,0.1c-5.1-0.2-8.5-1.4-11.1-4.8c-1.7,1.7-3.5,3.2-5.8,5.2l-3-6.5c1.7-1,3.5-2.2,5.3-3.6v-8.8H399v-6h10.9
			V681.7z M405.6,662.2c-1.2-2.2-4.2-5.3-6.6-7.5l5-3.7c2.5,2,5.6,4.9,7,7L405.6,662.2z M417.2,665.7c-0.2-0.9-0.6-2.1-1-3h-5v-4.6
			h11.4v-1.6h-8.4V652h8.4v-2.2h6.5v2.2h8.8v4.5h-8.8v1.6h11.5v4.6h-5.1l0.4,0.1c-0.7,1.1-1.3,2.1-1.8,2.9h5.9v4.5h-11v1.4h9.4v4.4
			h-9.4v1.4h11v4.6h-11v2.3h-6.5v-2.3h-10.7v-4.6h10.7v-1.4h-9v-4.4h9v-1.4h-10.9v-4.5H417.2z M428.1,665.5c0.3-0.9,0.7-1.8,1-2.8
			h-6.7c0.4,1,0.8,2,0.9,2.8l-0.9,0.2h6.3L428.1,665.5z"/>
		<path class="st2" d="M463,656.4c-0.1,0.6-0.2,1.5-0.4,2.8c3.1,0,5.9-0.3,7.7-0.6l-0.2,6.5c-2.5,0.3-4.8,0.4-8.4,0.4
			c-0.2,1.6-0.4,3.3-0.6,5h0c2.6,0,6-0.2,8.8-0.5l-0.2,6.4c-2.2,0.2-4.8,0.4-7.5,0.4h-1.8c-0.1,1-0.1,1.9-0.1,2.6c0,3.4,2.2,5,6.2,5
			c6,0,8.9-2.8,8.9-6c0-3.1-1.7-5.7-4.5-8.5l7.6-1.6c2.9,4,4.2,7.2,4.2,11c0,6.8-6.2,12.2-16.6,12.2c-7.6,0-12.7-3.3-12.7-10.9
			c0-1,0.1-2.5,0.3-4.2c-3.1-0.3-5.9-0.8-8.1-1.4l0.4-6.6c2.8,0.9,5.7,1.5,8.5,1.8c0.2-1.7,0.4-3.4,0.6-5c-3-0.3-6-0.9-8.5-1.6
			l0.3-6.3c2.5,0.9,5.7,1.4,9,1.7c0.1-1.1,0.2-2.1,0.3-3c0.2-2.4,0.2-3.3,0.1-4.5l7.6,0.4C463.4,653.8,463.2,655.1,463,656.4z"/>
		<path class="st2" d="M489.4,656.5c4.2-0.4,11-0.9,19.3-1.6c4.5-0.4,9.8-0.7,13.1-0.8l0,7c-2.3,0-6.2,0-8.6,0.5
			c-4.9,1.1-9,6.3-9,11.7c0,6.6,6.2,9.2,14,9.7l-2.6,7.6c-10-0.8-18.6-6.2-18.6-15.8c0-6.2,3.3-10.9,5.7-13.1
			c-3.9,0.4-11.8,1.3-17.2,2.5l-0.7-7.4C486.5,656.7,488.5,656.6,489.4,656.5z M518.9,670.9l-4,1.8c-1.2-2.6-2-4.1-3.4-6.2l3.9-1.6
			C516.5,666.6,518.1,669.3,518.9,670.9z M524.2,668.6l-4,1.9c-1.3-2.6-2.2-4-3.6-6l3.9-1.8C521.6,664.4,523.3,667,524.2,668.6z"/>
		<path class="st2" d="M225.7,719.2c-0.1-0.4-0.3-0.8-0.4-1.1c-0.3-0.9-0.5-1.6-0.7-2.2c-4.2,0.2-9.3,0.1-15-0.5l-0.4-6.2
			c5.3,0.6,9.6,0.8,13.6,0.7c-0.4-1.3-0.9-2.7-1.4-4.1l7.3-0.8c0.2,1.6,0.5,3,0.7,4.4c3-0.4,5.8-1,8.6-1.9l0.9,6.2
			c-2.4,0.7-5.1,1.2-8,1.6c0.1,0.5,0.3,1,0.5,1.6c0.2,0.5,0.4,1.1,0.6,1.7c3.6-0.5,6.2-1.2,8.4-1.8l1.1,6.4c-2,0.5-4.2,0.9-6.6,1.3
			c0.6,1.1,1.2,2.2,1.8,3.1c0.7,1,1.3,1.7,2.2,2.6l-3.2,4.9c-2.5-0.4-7.8-1.1-11.2-1.4l0.5-5.2c1.6,0.1,3.8,0.3,5,0.4
			c-0.7-1.3-1.4-2.5-1.9-3.7c-5.5,0.3-12.7,0.3-19.4-0.1l-0.4-6.4C215.1,719.3,220.8,719.4,225.7,719.2z M216.2,734.5
			c0,3.1,3.1,4.2,8.4,4.2c4.3,0,8.4-0.4,11.6-1l-0.4,6.9c-3.1,0.5-7.6,0.9-11.2,0.9c-9.1,0-15-2.7-15.2-9.5c-0.1-3.1,1-5.5,2.1-7.7
			l6.8,1.3C217.2,731.1,216.2,732.6,216.2,734.5z"/>
		<path class="st2" d="M255.6,707.7c2.4,0,11.4-0.1,14.1-0.4c2.2-0.2,3.4-0.4,4-0.5l3.4,4.8c-1.2,0.7-2.3,1.4-3.5,2.2
			c-2.5,1.7-6.5,4.9-9,6.8c1.2-0.2,2.1-0.3,3.1-0.3c7.7,0,13.8,4.9,13.8,11.7c0,7-5.1,13.2-16.7,13.2c-6.3,0-11.6-3-11.6-7.9
			c0-4,3.6-7.6,8.7-7.6c5.5,0,9,3.2,9.8,7.5c1.8-1.2,2.7-3,2.7-5.2c0-3.9-4-6.3-8.9-6.3c-6.6,0-11.3,4-15.6,9.2l-4.9-5.1
			c2.9-2.2,8.1-6.7,10.8-8.9c2.5-2.1,6.7-5.3,8.9-7.2c-2.2,0-6.9,0.2-9.3,0.4c-1.4,0.1-3,0.2-4,0.4l-0.2-7.1
			C252.4,707.6,254.1,707.7,255.6,707.7z M263.5,739.1c0.7,0,1.4,0,2-0.1c-0.2-2.5-1.6-4.1-3.5-4.1c-1.5,0-2.3,0.9-2.3,1.8
			C259.7,738.1,261.2,739.1,263.5,739.1z"/>
		<path class="st2" d="M296.6,711.9c-0.5,2.3-2.1,12.8-2.1,17c0,0.1,0,0.9,0,1c0.5-1.3,1.1-2.2,1.7-3.5l3.3,2.7
			c-1.4,4.1-2.7,8.6-3.2,11.2c-0.1,0.6-0.3,1.7-0.3,2.1c0,0.5,0,1.3,0,2l-6.2,0.4c-0.9-3.1-1.8-8.3-1.8-14.4
			c0-6.9,1.3-15.3,1.8-18.7c0.2-1.3,0.4-3.4,0.5-5.1l7.5,0.6C297.4,708.3,296.8,711.1,296.6,711.9z M319.4,709.8
			c0,0.9-0.1,2.3-0.1,4.2c2.3-0.3,4.5-0.6,6.5-1v6.8c-2,0.3-4.2,0.5-6.6,0.7c0.1,4.1,0.3,7.3,0.5,10c3.8,1.6,6.6,3.9,8.6,5.8
			l-3.7,5.7c-1.7-1.6-3.3-2.9-4.8-4.1c-0.6,4.2-3.4,6.8-9.3,6.8c-6.3,0-10.5-2.7-10.5-7.8c0-5,4.1-8.3,10.4-8.3c0.8,0,1.5,0,2.2,0.1
			c-0.1-2.4-0.3-5.1-0.3-8c-0.9,0-1.7,0-2.5,0c-2.7,0-5.4-0.1-8.1-0.3l0-6.5c2.6,0.3,5.3,0.4,8.1,0.4c0.9,0,1.7,0,2.5,0
			c0-2.1,0-3.8-0.1-4.6c0-0.7-0.2-2.2-0.4-3.1h7.8C319.5,707.6,319.4,708.8,319.4,709.8z M309.9,738.3c2.2,0,3-1.2,3-3.6v-0.3
			c-1-0.3-2-0.4-3-0.4c-2.1,0-3.5,0.8-3.5,2.2C306.4,737.8,307.9,738.3,309.9,738.3z"/>
		<path class="st2" d="M365.1,710l-3.1,1.3c2.7,0,5.3,0,6.7,0l-0.1,6.5c-2.7-0.1-6.9-0.3-12.6-0.3c0,2.1,0,4.4,0,6.3
			c1.2,1.8,1.8,4,1.8,6.5c0,5.8-3.7,13.6-15,16.7l-5.8-5.8c3.9-0.8,7.6-1.9,10.3-4c-0.3,0-0.5,0-0.8,0c-3.3,0-8-2.8-8-8.6
			c0-5.4,4.4-8.8,9.6-8.8c0.4,0,0.8,0,1.1,0c0-0.8,0-1.5,0-2.3c-6.8,0.1-13.4,0.4-18.9,0.7l-0.2-6.6c5.2,0,13.2-0.1,19-0.2
			c0-0.2,0-0.4,0-0.5c-0.2-2.2-0.4-3.8-0.5-4.5h7.8c-0.1,0.9-0.3,3.6-0.4,4.5v0.5c1.3,0,2.7,0,4.2,0c-0.8-1.6-1.6-3.1-2.7-4.7
			l4.4-1.8C363.2,706.5,364.3,708.5,365.1,710z M348,731.2c1.5,0,3-1,2.5-4.5c-0.5-0.8-1.4-1.2-2.5-1.2c-1.4,0-2.8,0.9-2.8,2.9
			C345.1,730,346.6,731.2,348,731.2z M371.5,708.7l-4.5,1.8c-0.9-1.8-1.8-3.6-3.1-5.2l4.5-1.8C369.6,705.2,370.7,707.1,371.5,708.7z
			"/>
		<path class="st2" d="M382.5,738.6c0,4.1-3.3,7.5-7.5,7.5c-4.1,0-7.5-3.4-7.5-7.5c0-4.1,3.4-7.5,7.5-7.5
			C379.2,731.1,382.5,734.4,382.5,738.6z M378.7,738.6c0-2.1-1.7-3.7-3.7-3.7c-2,0-3.7,1.7-3.7,3.7c0,2.1,1.7,3.7,3.7,3.7
			C377.1,742.3,378.7,740.6,378.7,738.6z"/>
	</g>
</g>
<g>
	<g>
		<path class="st2" d="M757.1,569c2.5,3.5,6,6.8,9.5,8.9c-1.5,1.2-3.6,3.6-4.6,5.2c-2.8-2.2-5.6-5.3-7.9-8.7v10.2h-6.6v-9.9
			c-2.4,3.4-5.3,6.3-8.4,8.3c-1-1.6-3-3.9-4.5-5.2v6.7h-6.2V562c-0.9,1.1-1.8,2.1-2.7,3c-0.5-1.6-2.3-5.2-3.4-6.8
			c4-3.9,7.9-10.1,10.2-16.3l6.1,2c-1.1,2.8-2.5,5.8-4,8.6v25.2c3.7-1.9,7.3-5.2,9.9-8.7h-8.1v-5.9h11.1v-3.2h-8.3v-16.2h24v16.2
			H754v3.2h11.1v5.9H757.1z M745.3,554.2h11.2v-4.8h-11.2V554.2z"/>
		<path class="st2" d="M783,554.4h-15.2v-5.1H783V554.4z M781.8,582.2h-7.2v1.7h-5v-15.6h12.3V582.2z M788.6,548.4h-5.1v-4.5h5.1v-2
			h5.8v2h4.4v-2h5.8v2h5.3v4.5h-5.3v1.9h-2c-0.4,0.7-0.7,1.3-1,1.9h7v3.9h-7.5v0.9h6.6v3.1h-6.6v0.9h6.6v3.1h-6.6v0.9h8.6v3.9h-23.6
			v-8.6c-0.2,0.2-0.4,0.4-0.6,0.6c-0.8-0.8-2.5-2.2-3.7-3.1v2.9h-12.2v-4.9h12.2v1.4c2.3-2,4.2-5,5.4-8l1.4,0.4V548.4z M769.7,562
			h12.2v4.9h-12.2V562z M781.7,548h-11.8v-4.9h11.8V548z M774.5,573.3v3.8h2.1v-3.8H774.5z M809.1,571.5c-1.5,2.8-3.6,5-6.1,6.8
			c2.4,0.5,5,0.9,7.7,1.1c-1.3,1.2-2.9,3.6-3.6,5.1c-4-0.5-7.6-1.4-10.9-2.7c-3.6,1.3-7.5,2.2-11.7,2.8c-0.5-1.4-1.6-3.6-2.6-4.9
			c2.8-0.3,5.6-0.7,8.1-1.3c-1.2-0.8-2.2-1.7-3.2-2.7l3.8-1.4H784v-4.5h20.3l1-0.2L809.1,571.5z M794.4,548.4v1.9h-2.7l0.5,0.1
			c-0.2,0.6-0.5,1.2-0.8,1.8h4.3c0.4-1,0.8-2,1-2.8l2,0.3v-1.3H794.4z M795.4,556.1h-3.6v0.9h3.6V556.1z M795.4,560h-3.6v0.9h3.6
			V560z M795.4,564h-3.6v0.9h3.6V564z M792.8,574.4c1,0.7,2.2,1.4,3.6,2c1.3-0.6,2.4-1.3,3.4-2H792.8z"/>
		<path class="st2" d="M838.6,560.7c-1.3,1-2.8,2-4.2,3h15.1v20.7h-6.8v-1.1h-13.9v1.3h-6.5v-14.3c-2,0.9-4.1,1.7-6.2,2.5
			c-0.8-1.4-2.7-4.1-3.9-5.4c5.5-1.7,10.8-3.9,15.6-6.7h-13.9V555h13.9v-3.1h-10.1v-5.6h10.1v-4.4h6.5v4.4h9v2.3
			c1.6-1.8,3.1-3.6,4.4-5.6l5.6,2.9c-2.3,3.3-4.9,6.3-7.8,9.1h9.1v5.7H838.6z M842.7,569h-13.9v2h13.9V569z M842.7,577.9v-2h-13.9v2
			H842.7z M834.2,555h2.1c1.3-1,2.5-2.1,3.7-3.1h-5.8V555z"/>
		<path class="st2" d="M871.2,570.8c-0.5-1.2-1.1-2.7-1.8-4.3v18.1h-5.9v-14.7c-1,2.7-2.1,5.1-3.3,6.9c-0.5-1.8-1.9-4.3-2.8-5.8
			c2.5-3.4,4.6-9.1,5.7-14h-4.5v-6h5v-9.1h5.9v9.1h4.1v6h-4.1v1.5c1.2,1.7,4.4,6.6,5.1,7.7L871.2,570.8z M900.2,567.6
			c-1.8,1.8-3.9,3.6-5.6,5c1.8,1.9,3.9,3.5,6.5,4.5c-1.3,1.2-3.2,3.6-4.1,5.3c-2.8-1.6-5-3.9-6.8-6.6v2.6c0,2.7-0.5,4.3-2.1,5.2
			c-1.7,0.9-3.8,1.1-6.7,1.1c-0.2-1.7-0.9-4.1-1.6-5.7c-1.8,1-3.5,1.9-5,2.7l-2.8-5.5c2.6-1.1,6.4-3,10.2-4.8l1.7,5.3
			c-1.3,0.7-2.6,1.5-4,2.2c1.3,0.1,2.8,0.1,3.3,0.1c0.5,0,0.7-0.2,0.7-0.7v-14.6h-10.2v-5.3h10.2v-1.1h-8.2v-4.8h8.2v-1h-9.3v-5.1h4
			c-0.4-1-0.9-2-1.4-2.9l5.1-1.7c0.9,1.4,1.9,3.2,2.4,4.6h5.1c0.7-1.5,1.3-3.4,1.7-4.7l6.5,1.5c-0.8,1.2-1.4,2.2-2.1,3.2h3.4v5.1
			h-9.1v1h8.2v4.8h-8.2v1.1h10.1v5.3h-10.1v1.6c0.4,1,0.9,2.1,1.4,3c1.3-1.3,2.8-2.9,3.7-4.2L900.2,567.6z M878.4,572.8
			c-0.8-1.5-2.6-3.9-4.1-5.6l4.4-2.9c1.6,1.6,3.5,3.8,4.4,5.3L878.4,572.8z"/>
		<path class="st2" d="M914.2,550.1c-0.5,2.3-2.2,11.9-2.2,16.1c0,0.1,0,0.9,0,1c0.6-1.3,1.2-2.2,1.8-3.5l3.3,2.6
			c-1.3,4.1-2.7,9-3.2,11.6c-0.1,0.7-0.3,1.8-0.3,2.2c0,0.5,0,1.3,0,2l-6.3,0.4c-0.9-3-1.8-8.7-1.8-14.8c0-6.9,1.3-14.4,1.8-17.7
			c0.2-1.3,0.5-3.4,0.5-5.1l7.6,0.6C915,546.5,914.3,549.3,914.2,550.1z M925.6,571.5c0,2,1.9,2.7,5.6,2.7c4,0,7.2-0.4,11.3-1.2
			l0.1,7.4c-3,0.5-6.5,0.9-11.8,0.9c-7.9,0-11.8-2.9-11.8-7.7c0-1.9,0.3-3.8,0.8-6.2l6.2,0.5C925.7,569.4,925.6,570.4,925.6,571.5z
			 M941.2,548.2v7c-5.9,0.5-13.8,0.5-19.8,0l0-7C927.3,548.9,936.2,548.7,941.2,548.2z"/>
		<path class="st2" d="M957.4,549.9c-0.5,2.3-2.1,12.8-2.1,17c0,0.1,0,0.9,0,1c0.5-1.3,1.1-2.2,1.7-3.5l3.3,2.7
			c-1.4,4-2.7,8.6-3.2,11.2c-0.1,0.6-0.3,1.7-0.3,2.1c0,0.5,0,1.3,0,2l-6.2,0.4c-0.9-3.1-1.8-8.3-1.8-14.4c0-6.9,1.3-15.3,1.8-18.7
			c0.2-1.3,0.4-3.4,0.5-5.1l7.5,0.6C958.2,546.3,957.6,549.1,957.4,549.9z M980.2,547.8c0,0.9-0.1,2.3-0.1,4.2
			c2.3-0.3,4.5-0.6,6.5-1v6.8c-2,0.3-4.2,0.5-6.6,0.7c0.1,4.1,0.3,7.3,0.4,10c3.8,1.6,6.6,3.9,8.6,5.8l-3.7,5.7
			c-1.7-1.6-3.3-2.9-4.8-4.1c-0.6,4.2-3.4,6.8-9.3,6.8c-6.3,0-10.5-2.7-10.5-7.8c0-5,4.1-8.3,10.4-8.3c0.8,0,1.5,0,2.2,0.1
			c-0.1-2.4-0.3-5.1-0.3-8c-0.9,0-1.7,0-2.5,0c-2.7,0-5.4-0.1-8.1-0.3l0-6.5c2.6,0.3,5.3,0.4,8.1,0.4c0.9,0,1.7,0,2.5,0
			c0-2.1,0-3.8-0.1-4.6c0-0.7-0.2-2.2-0.4-3.1h7.8C980.3,545.6,980.2,546.8,980.2,547.8z M970.7,576.3c2.2,0,3-1.2,3-3.6v-0.3
			c-1-0.3-2-0.4-3-0.4c-2.1,0-3.5,0.8-3.5,2.2C967.2,575.8,968.7,576.3,970.7,576.3z"/>
		<path class="st2" d="M1001.3,548.7l8,1.7c-0.4,1.4-1,4.1-1.2,5.2c-0.6,3.4-2.3,9.3-3.7,13.2c-1.6,4.5-4.4,9.9-6.6,13.1l-7.7-3.2
			c2.8-3.6,5.5-8.5,7.1-12.6C999.1,560.8,1000.7,554.8,1001.3,548.7z M1012.8,550.4l7.3-2.3c1.9,3.6,5.1,10.9,6.7,15
			c1.5,3.9,3.9,11.2,5.1,15.9l-8.1,2.7c-1.3-5.8-2.7-11.2-4.5-16.1C1017.7,560.8,1014.7,553.9,1012.8,550.4z M1028,541.8
			c3.1,0,5.6,2.5,5.6,5.6c0,3.1-2.5,5.6-5.6,5.6s-5.6-2.5-5.6-5.6C1022.4,544.3,1024.9,541.8,1028,541.8z M1028,549.8
			c1.3,0,2.4-1.1,2.4-2.4s-1.1-2.4-2.4-2.4s-2.4,1.1-2.4,2.4S1026.7,549.8,1028,549.8z"/>
		<path class="st2" d="M1055.6,569.8c8.1-4.7,14.2-11.7,17.2-18l4.2,7.7c-3.6,6.4-10,12.6-17.5,17.1c-4.6,2.7-10.4,5-16.1,5.9
			l-4.6-7.2C1045.4,574.4,1051.2,572.3,1055.6,569.8z M1057.2,555.1l-5.6,5.7c-2.4-2.6-8.1-7.6-11.3-9.9l5.2-5.5
			C1048.6,547.5,1054.5,552.2,1057.2,555.1z"/>
		<path class="st2" d="M1112.8,553.9c-1.1,4.2-2.9,11.1-6.8,16.3c-4,5.4-10.4,10.1-18.3,12.6l-5.9-6.5c9-2,14.1-6,17.7-10.4
			c2.9-3.6,4.4-8,4.9-11.6h-19.8c-2.2,0-4.7,0.1-5.8,0.2v-7.7c1.4,0.2,4.4,0.4,5.8,0.4h19.8c1,0,2.7,0,4.1-0.4l5.4,3.5
			C1113.5,551.3,1113.1,553,1112.8,553.9z"/>
		<path class="st2" d="M1122.7,575v-23.7c0-2-0.3-4.2-0.6-5.7h8.5c-0.3,2.1-0.5,3.7-0.5,5.7v22.2c6.6-2,16.4-7.7,22.3-14.6l3.9,6.2
			c-6.3,7.4-15.8,12.7-26,16.3c-0.7,0.2-1.8,0.6-3.1,1.4l-5.2-4.5C1122.6,577,1122.7,576.1,1122.7,575z"/>
		<path class="st2" d="M735.5,619.9l-6.7,2.5c-0.8-2.4-2.9-8.3-4.1-10.5l6.6-2.3C732.6,612.1,734.6,617.3,735.5,619.9z M757.3,614.7
			c-1.2,4.3-3.1,8.9-6,12.8c-4.2,5.5-9.9,9.4-15.3,11.5l-5.7-5.8c4.8-1.2,11.3-4.6,15.1-9.4c3-3.7,5.1-9.9,5.5-15.4l7.7,2.5
			C757.9,612.6,757.6,613.7,757.3,614.7z M745.5,617.1l-6.5,2.2c-0.6-2.2-2.5-7.6-3.7-10.1l6.5-2.1
			C742.7,609.1,744.9,615,745.5,617.1z"/>
		<path class="st2" d="M769.2,604.1c0-1.8-0.2-4.1-0.5-5.9h8.5c-0.2,1.7-0.5,3.7-0.5,5.9v6.2c6.1,1.8,14.8,4.9,18.6,6.8l-3.1,7.6
			c-4.5-2.3-10.7-4.7-15.5-6.4v11.6c0,1.2,0.3,4.8,0.5,6.8h-8.5c0.3-1.9,0.5-5,0.5-6.8V604.1z"/>
		<path class="st2" d="M816.4,609.9c3.3-1.9,6.7-3.6,8.6-4.8c1.9-1.1,3.4-2,4.7-3.1l3.8,6.3c-1.6,0.9-3.2,1.8-5,2.7
			c-2.7,1.3-8,3.7-11.9,6.3c-3.5,2.3-6,4.7-6,7.7c0,3,2.9,4.4,8.6,4.4c4.5,0,10.6-0.8,14.8-1.8l-0.1,7.9c-4.1,0.7-8.6,1.1-14.6,1.1
			c-9.3,0-16.4-2.5-16.4-10.8c0-5.1,3.2-8.8,7.3-11.9c-2.1-3.9-4.2-8.5-6.2-13.2l6.8-2.8C812.6,602.5,814.6,606.6,816.4,609.9z"/>
		<path class="st2" d="M878.6,605.8c0,0,0,2,0,2.8c-0.4,18.2-0.7,25-2.1,27.1c-1.1,1.7-2.2,2.2-3.8,2.6c-1.4,0.3-3.5,0.3-5.7,0.3
			c-0.1-1.8-0.9-4.5-1.9-6.2c1.8,0.2,3.3,0.2,4.2,0.2c0.7,0,1.1-0.2,1.5-0.8c0.9-1.2,1.2-6.4,1.4-19.9h-2.7
			c-0.6,12.2-2.7,21.2-10,27.2c-0.6-1-1.8-2.4-2.9-3.6c-6.8,0.7-13.9,1.3-19.1,1.8l-0.7-5.4c2.5-0.1,5.5-0.3,8.8-0.5v-1.9h-7.6v-4.5
			h7.6v-1.2h-7.4v-14.3h7.4v-1.1h-8.5v-4.6h8.5v-1.1c-2.4,0.1-4.9,0.2-7.2,0.3c-0.2-1.3-0.8-3.3-1.4-4.6c6.7-0.3,14.4-1.1,19.5-2.2
			l2.7,4.8c-2.3,0.5-5,0.9-7.8,1.2v1.6h8.1v4.6h-8.1v1.1h7.6v14.3h-7.6v1.2h7.8v4.5c2.8-4.5,3.7-10.3,4-17.5h-3.6v-6h3.7v-9.1h6.3
			c0,3.2,0,6.3,0,9.1H878.6z M843.4,614.6h2.2v-1.4h-2.2V614.6z M845.6,619.6v-1.3h-2.2v1.3H845.6z M851.5,613.2v1.4h2.2v-1.4H851.5
			z M853.7,618.3h-2.2v1.3h2.2V618.3z M851.5,630.8l7.2-0.5c0.2-0.3,0.5-0.6,0.7-1h-7.8V630.8z"/>
		<path class="st2" d="M923.7,598.4v6.1h-17.4v2.8h7.6V628h-21.4v-20.7h7.2v-2.8h-17v-6.1H923.7z M916,606.6h6.3v32H916V636h-25.4
			v2.6h-6.3v-32h6.3v23.3H916V606.6z M897.9,615.2h2.4v-2.6h-2.4V615.2z M897.9,622.7h2.4v-2.7h-2.4V622.7z M908.3,612.6h-2.5v2.6
			h2.5V612.6z M908.3,620.1h-2.5v2.7h2.5V620.1z"/>
		<path class="st2" d="M946.8,602c4-0.2,8.3-0.6,12.1-1.3l0,6.3c-4.2,0.5-9.7,0.9-14.5,1.1c-0.6,1.2-1.2,2.3-1.8,3.2
			c0.9-0.3,3.2-0.5,4.5-0.5c2.7,0,4.8,1.1,6,3.2c1.8-0.9,3.3-1.4,4.9-2.2c2-0.9,3.8-1.7,5.8-2.7l2.7,6.3c-1.6,0.5-4.4,1.5-6.1,2.2
			c-1.7,0.7-3.9,1.5-6.3,2.6c0,2.5,0.1,5.5,0.2,7.5h-6.5c0.1-1.2,0.2-2.8,0.2-4.5c-2.8,1.7-4,3.2-4,4.9c0,1.9,1.4,2.7,5.6,2.7
			c4,0,9.1-0.5,13.1-1.4l-0.2,7c-2.7,0.4-8.5,0.8-13,0.8c-7.4,0-12.7-1.9-12.7-7.9c0-5.9,5.4-9.6,10.3-12.2
			c-0.7-0.7-1.6-0.9-2.5-0.9c-2.3,0-5.1,1.5-6.6,3c-1.4,1.4-2.7,3-4.2,5.1l-5.8-4.4c4.2-3.8,7.4-7.5,9.6-11.6
			c-1.8,0-5.1-0.1-7.5-0.3v-6.3c2.2,0.4,5.7,0.5,8.1,0.5h1.8c0.4-1.7,0.7-3.4,0.8-4.9l7.2,0.6C947.6,598.9,947.3,600.3,946.8,602z"
			/>
		<path class="st2" d="M978.8,618.5c-1.8-1.3-5.8-3.5-8.5-4.9l3.5-4.9c2.5,1.1,6.6,3.1,8.6,4.3L978.8,618.5z M970.7,633.7
			c2.4-3.3,5.8-8.8,8.5-14l4.8,4.4c-2.4,4.7-5.1,9.6-7.8,14.1L970.7,633.7z M980.5,606.1c-1.8-1.3-5.6-3.5-8.1-4.9l3.7-4.7
			c2.4,1.2,6.3,3.2,8.3,4.4L980.5,606.1z M1001.7,615.1v4.8h9.1v18.4h-6.2v-1.6h-12.1v1.8h-5.9v-18.6h9v-4.8H984v-6.3h11.5v-4.1
			c-2.7,0.4-5.5,0.7-8.1,0.9c-0.3-1.6-1.1-4.1-1.8-5.6c7.6-0.7,15.7-2.2,20.7-4.4l5,5.1c-2.8,1.1-6,2-9.4,2.7v5.3h11v6.3H1001.7z
			 M1004.6,625.8h-12.1v5h12.1V625.8z"/>
		<path class="st2" d="M1054.8,631.2c0,3.2-0.7,4.9-2.7,5.9c-2.1,1-4.9,1.2-8.9,1.1c-0.2-1.8-1.2-4.6-2.1-6.3
			c2.2,0.2,5.1,0.1,5.9,0.1c0.8,0,1.1-0.3,1.1-1v-5.4h-8V638h-6.6v-12.2h-8.1c-0.9,4.9-2.6,9.7-5.7,13.1c-1-1.2-3.7-3.4-5.2-4.2
			c4.9-5.4,5.3-13.5,5.3-19.8v-16.1h34.9V631.2z M1033.7,619.6v-4.5h-7.2c0,1.4,0,2.9-0.1,4.5H1033.7z M1026.4,605v4.1h7.2V605
			H1026.4z M1048.3,605h-8v4.1h8V605z M1048.3,619.6v-4.5h-8v4.5H1048.3z"/>
		<path class="st2" d="M1073,605.1c-0.2,4.7-0.5,14.4-0.5,19.4c0,4.3,2.5,5.7,5.5,5.7c7,0,11.7-4.1,15-9.1l5,6.1
			c-2.8,4.3-9.5,10.5-20,10.5c-7.9,0-12.8-3.6-12.8-11.4c0-5.7,0.4-17.7,0.4-21.1c0-2.4-0.2-4.9-0.7-6.9l8.8,0.1
			C1073.3,600.4,1073.1,603.1,1073,605.1z"/>
		<path class="st2" d="M1102.5,602.5c4.2-0.4,11-0.9,19.3-1.6c4.5-0.4,9.8-0.7,13.1-0.8l0,7c-2.3,0-6.2,0-8.6,0.5
			c-4.9,1.1-9,6.3-9,11.7c0,6.6,6.2,9.2,14,9.7l-2.6,7.6c-10-0.8-18.6-6.2-18.6-15.8c0-6.2,3.3-10.9,5.7-13.1
			c-3.9,0.4-11.8,1.3-17.2,2.5l-0.7-7.4C1099.7,602.7,1101.7,602.6,1102.5,602.5z"/>
		<path class="st2" d="M1135.4,627.9l5.7-4.9c3.1,2.6,7.6,7.2,9.6,9.8l-5.8,5C1142.3,634.5,1138.5,630.6,1135.4,627.9z"/>
		<path class="st2" d="M740.8,668.9l-4,6.1c-2.7-1.9-7.3-4.9-10.5-6.6l4-6C733.5,664.1,738.2,667.2,740.8,668.9z M743.5,679
			c7.7-4.3,14.2-10.6,17.8-17.1l4.2,7.5c-4.3,6.3-10.8,12-18.2,16.2c-4.6,2.6-11.2,4.9-15.1,5.5l-4.1-7.2
			C733.1,683,738.4,681.7,743.5,679z M747.8,658.6l-4,6c-2.7-1.8-7.3-4.7-10.4-6.5l4-6C740.4,653.8,745.2,656.8,747.8,658.6z"/>
		<path class="st2" d="M800.3,660.9c-1.5,3.3-3.9,7.8-6.8,11.9c4.4,3.8,9.8,9.5,12.2,12.6l-6.3,5.4c-2.9-4.1-6.7-8.4-10.8-12.3
			c-4.7,4.9-10.6,9.4-16.5,12.3l-5.7-5.9c7.3-2.7,14.4-8.2,18.4-12.6c2.9-3.3,5.4-7.3,6.3-10.2h-14c-2,0-4.5,0.3-5.8,0.4v-7.7
			c1.6,0.2,4.5,0.4,5.8,0.4h15c2.2,0,4.4-0.3,5.4-0.7l4.5,3.3C801.8,658.2,800.8,659.7,800.3,660.9z"/>
		<path class="st2" d="M814.3,665h29.5c0.9,0,3.2-0.1,4.5-0.3v7.1c-1.2-0.1-3.1-0.1-4.5-0.1h-10.1c-0.3,4.5-1.4,8.1-3,11.1
			c-1.5,3.2-5,6.8-9.1,8.9l-6.4-4.6c3-1.1,6.2-3.7,8-6.2c1.8-2.6,2.6-5.7,2.9-9.2h-11.7c-1.3,0-3.3,0.1-4.5,0.2v-7.1
			C811.1,664.9,812.9,665,814.3,665z M820.1,653.5h18c1.7,0,3.6-0.1,5.2-0.4v7c-1.7-0.1-3.5-0.2-5.2-0.2h-18c-1.6,0-3.7,0.1-5.2,0.2
			v-7C816.4,653.3,818.6,653.5,820.1,653.5z"/>
		<path class="st2" d="M869.7,659.6c-1.5,4.5-4.8,14.7-7,20.7c4.8-0.5,10.2-1.1,14.3-1.6c-1.4-3-2.9-5.8-4.3-7.6l6.8-2.8
			c3.2,5,7.6,13.7,9.8,18.9l-7.4,3.3c-0.5-1.5-1.2-3.2-2-5c-7.4,0.9-20.3,2.2-25.8,2.8c-1.1,0.1-3,0.4-4.5,0.6l-1.3-8
			c1.6,0,3.8,0,5.4,0c0.2,0,0.5,0,0.7,0c2.6-6.8,6.1-18,7.5-22.9c0.7-2.4,0.9-4,1.2-5.7l8.6,1.8
			C871.2,655.6,870.5,657.6,869.7,659.6z"/>
		<path class="st2" d="M894.5,665.9c1.1-0.4,2.2-0.9,3.3-1.4c-0.5-1.1-1.1-2.2-1.7-3.2c-0.7-1.2-1.9-3.1-2.9-4.3l7.1-2.7
			c0.4,0.9,1.4,3,1.9,3.8c0.6,1.2,1.2,2.4,1.8,3.7c2.3-1,4.6-2,6.8-2.7c-1.6-1.7-4.3-4.3-5.8-5.5l5-3.5c1.7,1.3,5,4.2,6.5,5.8
			l-3.5,2.5c2.1-0.6,4.1-0.9,6.1-0.9c7.3,0,11.8,4.6,11.8,10c0,6.9-4.9,10.9-11.7,10.9c-2.4,0-5.4-0.6-7.1-1.3l0.2-6.8
			c2.2,0.9,4.4,1.5,6.1,1.5c2.5,0,5.2-1.3,5.2-4.6c0-2.1-1.9-3.6-4.7-3.6c-3.2,0-7.9,1.7-12.4,3.8c0.4,0.8,0.7,1.6,1,2.3
			c1.9,4.5,5.8,14.8,7.2,19.9l-7.5,1.9c-1.4-5.8-3.8-13.7-6-18.8c-0.3-0.8-0.6-1.5-0.9-2.2c-3.1,1.6-5.8,3-7.6,3.9l-3.1-6.9
			C891.7,667,893.8,666.3,894.5,665.9z"/>
		<path class="st2" d="M950.1,674.6c-1.6,0.4-3.3,0.9-5,1.3v9.9c0,3-0.5,4.6-2.2,5.6c-1.7,1-4,1.2-7.3,1.2c-0.2-1.7-1-4.3-1.8-6
			c1.6,0.1,3.4,0.1,4,0.1c0.6,0,0.9-0.2,0.9-0.9v-8.3l-4.5,1.1l-1.5-6.3c1.7-0.3,3.8-0.8,6-1.2V664h-5.2v-6h5.2v-8.1h6.4v8.1h4.2v6
			h-4.2v5.6l4.2-1L950.1,674.6z M951.1,671.4h22.4v20.9h-6.5v-1.7h-9.8v1.9h-6.2V671.4z M967.3,663.7c2.1,0,2.4-0.7,2.7-4.9
			c1.4,1,4.1,2,5.9,2.3c-0.8,6.6-2.6,8.4-8.1,8.4H960c-6.9,0-8.7-1.8-8.7-7.7v-12h6.5v5.4c4-1,7.9-2.4,10.7-3.8l4.8,4.7
			c-4.6,1.9-10.3,3.4-15.5,4.5v1.2c0,1.8,0.4,1.9,2.9,1.9H967.3z M957.3,676.7v1.8h9.8v-1.8H957.3z M967.1,685.6v-2h-9.8v2H967.1z"
			/>
		<path class="st2" d="M1010.5,679.2h9.7v4.9h-9.7v2.5c0,2.8-0.5,4.3-2.6,5.1c-2,0.8-4.5,0.9-7.6,0.9c-0.3-1.7-1.2-4-2-5.6
			c1.8,0.1,4.3,0.1,5,0.1c0.7,0,0.9-0.1,0.9-0.6v-2.3H993c1.4,1.1,2.9,2.3,3.7,3.3l-4.8,4c-1.1-1.5-3.6-3.8-5.6-5.3l2.4-2h-10v-4.9
			h25.4v-1.3c-2.7,0-5.3,0-7.2-0.1c-4.5-0.2-7.3-1.1-9.4-4c-2.1,1.4-4.3,2.8-6.9,4.4l-2.2-5.1c1.6-0.7,3.5-1.6,5.3-2.6v-4.9H979
			v-4.9h10.7v8.9c1.3,2.4,3.7,3.4,7.3,3.5c5.6,0.2,17.5,0.1,24-0.4c-0.5,1.2-1.3,3.5-1.6,4.9c-2.4,0.1-5.6,0.2-9,0.2V679.2z
			 M986,659.6c-1.2-1.7-3.9-4.2-6.1-5.9l4.2-3.6c2.2,1.5,5.1,3.8,6.4,5.5L986,659.6z M1001.9,657.6h-11.2v-4.3h6.2
			c-0.4-0.9-0.8-1.8-1.2-2.7l5.3-0.9c0.7,1,1.4,2.4,1.8,3.6h5.4c0.6-1.2,1.2-2.6,1.6-3.6l6.2,0.9c-0.6,1-1.2,1.9-1.8,2.7h6.1v4.3
			h-12.5l-0.5,0.9h9.3v13.6h-22.5v-13.6h7.6L1001.9,657.6z M1010.3,661.2h-10.1v1h10.1V661.2z M1010.3,664.8h-10.1v1h10.1V664.8z
			 M1010.3,668.4h-10.1v1.1h10.1V668.4z"/>
		<path class="st2" d="M1043.6,663c-0.1,1.7-0.2,3.3-0.5,5h17.1c0,0,0,1.9-0.2,2.7c-0.8,12-1.7,17.1-3.6,19.2
			c-1.5,1.7-3.1,2.2-5.4,2.4c-1.8,0.2-4.9,0.2-7.9,0.1c-0.1-1.9-1.1-4.6-2.3-6.4c3.1,0.3,6.2,0.3,7.6,0.3c1,0,1.6-0.1,2.2-0.6
			c1.1-0.9,1.8-4.5,2.4-11.5h-11c-1.8,7.4-5.6,14.2-14.6,18.9c-0.9-1.8-2.9-4.2-4.6-5.6c12-5.6,13-15.2,13.4-24.4h-12.4v-6.3h16.9
			v-7.2h6.8v7.2h17.5v6.3H1043.6z"/>
		<path class="st2" d="M1076.3,671.7c-1.7-1.5-5.4-3.6-8.3-4.8l3.4-4.9c2.8,1,6.7,2.8,8.6,4.3L1076.3,671.7z M1081.9,677.9
			c-2.2,4.7-4.6,9.6-7.2,14l-5.7-4.2c2.2-3.4,5.4-8.8,7.9-14L1081.9,677.9z M1078.9,659.8c-1.7-1.6-5.4-3.8-8.3-5.1l3.6-4.8
			c2.8,1.1,6.6,3,8.5,4.6L1078.9,659.8z M1105.3,692.6c-0.3-1-0.8-2.2-1.4-3.5c-7.8,0.7-16.1,1.4-22.1,1.8l-0.9-6.6l3.2-0.1
			c1.3-3.2,2.7-7.1,3.6-10.6h-6.9v-6.2h11.1V662h-8.9v-6.2h8.9v-6h6.8v6h9.3v6.2h-9.3v5.4h11.5v6.2h-15.3l0.5,0.1
			c-1.3,3.5-2.9,7.1-4.4,10.2c3-0.2,6.3-0.4,9.5-0.5c-1-1.5-2-3.1-3.1-4.4l5.7-3c3.3,4,6.9,9.3,8.2,13.2L1105.3,692.6z"/>
		<path class="st2" d="M1133.1,656c4-0.2,8.3-0.6,12.1-1.3l0,6.3c-4.2,0.5-9.7,0.9-14.5,1.1c-0.6,1.2-1.2,2.3-1.8,3.2
			c0.9-0.3,3.2-0.5,4.5-0.5c2.7,0,4.8,1.1,6,3.2c1.8-0.9,3.3-1.4,4.9-2.2c2-0.9,3.8-1.7,5.8-2.7l2.7,6.3c-1.6,0.5-4.4,1.5-6.1,2.2
			c-1.7,0.7-3.9,1.5-6.3,2.6c0,2.5,0.1,5.5,0.2,7.5h-6.5c0.1-1.2,0.2-2.8,0.2-4.5c-2.8,1.7-4,3.2-4,4.9c0,1.9,1.4,2.7,5.6,2.7
			c4,0,9.1-0.5,13.1-1.4l-0.2,7c-2.7,0.4-8.5,0.8-13,0.8c-7.4,0-12.7-1.9-12.7-7.9c0-5.9,5.4-9.6,10.3-12.2
			c-0.7-0.7-1.6-0.9-2.5-0.9c-2.3,0-5.1,1.5-6.6,3c-1.4,1.4-2.7,3-4.2,5.1l-5.8-4.4c4.2-3.8,7.4-7.5,9.6-11.6
			c-1.8,0-5.1-0.1-7.5-0.3v-6.3c2.2,0.4,5.7,0.5,8.1,0.5h1.8c0.4-1.7,0.7-3.4,0.8-4.9l7.2,0.6C1133.9,652.9,1133.6,654.3,1133.1,656
			z"/>
		<path class="st2" d="M765.9,716.4h-18v-5.1h18V716.4z M764.2,744.3h-8.8v1.6h-5.5v-15.6h14.3V744.3z M750.1,717.7h14.2v4.9h-14.2
			V717.7z M750.1,724h14.2v4.9h-14.2V724z M764.2,710h-14v-4.9h14V710z M755.4,735.4v3.8h3.2v-3.8H755.4z M790.7,736.8h-9.4v9.8
			h-6.5v-9.8h-9.6v-5.9h9.6v-3.5h-7.2v-5.8h7.2v-3.4h-8.1v-5.9h3.5c-0.5-1.9-1.4-4.4-2.4-6.3l5.3-1.9c1.4,2.3,2.6,5.3,3,7.3
			l-2.3,0.9h8.4l-2.1-0.7c1-2.2,2.3-5.4,2.9-7.9l6.4,1.8c-1.3,2.5-2.5,4.9-3.6,6.8h4.3v5.9h-8.7v3.4h7.6v5.8h-7.6v3.5h9.4V736.8z"/>
		<path class="st2" d="M805.8,713.1c-0.2,4.7-0.5,14.4-0.5,19.4c0,4.3,2.5,5.7,5.5,5.7c7,0,11.7-4.1,15-9.1l5,6.1
			c-2.8,4.3-9.5,10.5-20,10.5c-7.9,0-12.8-3.6-12.8-11.4c0-5.7,0.4-17.7,0.4-21.1c0-2.4-0.2-4.9-0.7-6.9l8.8,0.1
			C806.2,708.4,805.9,711.1,805.8,713.1z"/>
		<path class="st2" d="M856.4,713.7c-2.8,2.1-8.5,6.4-11.3,8.9c-2.2,1.9-2.1,2.3,0,4.2c3,2.6,11.8,9.5,16.3,13.7l-6.4,5.9
			c-1.4-1.6-2.9-3.2-4.4-4.7c-2.5-2.6-9-8.1-13-11.7c-4.6-4-4.3-6.7,0.4-10.6c3.6-2.9,9.4-7.7,12.4-10.6c1.5-1.5,3.1-3.1,4-4.3
			l6.3,5.6C859.1,711.5,857.6,712.7,856.4,713.7z"/>
		<path class="st2" d="M875.1,733.3c0,2.6,2.3,4.5,8.4,4.5c6,0,11.7-0.7,16-1.8l0,7.7c-4.3,0.9-9.5,1.5-15.8,1.5
			c-11,0-16.1-3.7-16.1-10.2c0-2.7,0.5-5,0.9-6.6l7.2,0.6C875.4,730.5,875.1,731.8,875.1,733.3z M901.5,711.1l-4.3,1.8
			c-0.1-0.2-0.2-0.4-0.4-0.7v4.4c-3.2,0.3-9.1,0.5-13.5,0.5c-4.8,0-8.8-0.2-12.5-0.5v-7.2c3.4,0.4,7.6,0.5,12.5,0.5
			c3.9,0,8.6-0.2,12.1-0.5c-0.5-1-1.1-2-1.7-2.8l4.2-1.7C899.1,706.6,900.7,709.6,901.5,711.1z M907.1,708.9l-4.2,1.8
			c-0.9-1.8-2.3-4.5-3.6-6.2l4.2-1.7C904.7,704.5,906.3,707.4,907.1,708.9z"/>
		<path class="st2" d="M922.1,716.6H905v-5.1h17.1V716.6z M942.3,740.5c0.5,0,0.7-0.8,0.8-6.2c1.2,1,3.8,2,5.4,2.5
			c-0.5,7.4-2,9.4-5.5,9.4h-2.5c-4.5,0-5.4-1.9-5.4-7.3v-10.7h-1.4c-0.6,7.4-2,14.2-9.2,18.5c-0.7-1.4-2.2-3.5-3.6-4.8v3h-8.3v1.6
			h-5.4V731h13.8v10.2c5.1-3.1,5.9-7.8,6.3-12.9h-3.7v-16.3h3c-0.6-1.9-1.7-4.2-2.7-6l5.8-1.8c1.4,2.2,2.8,5.1,3.4,7.1l-2.2,0.8h8.4
			l-2.4-0.7c0.9-2.1,1.9-5.2,2.4-7.5l6.8,1.7c-1.1,2.4-2.1,4.8-3.1,6.5h3.5v16.3h-5.1v10.7c0,1.4,0,1.6,0.4,1.6H942.3z M920.4,723
			h-13.2v-4.9h13.2V723z M907.2,724.5h13.2v4.9h-13.2V724.5z M920.5,710h-13v-4.9h13V710z M915.3,736.1h-2.8v3.8h2.8V736.1z
			 M939.6,717.5h-9.9v5.2h9.9V717.5z"/>
		<path class="st2" d="M957.7,734.2v3.7h-6v-31.8h16.4v28.1H957.7z M957.7,712v5.1h4.3V712H957.7z M962.1,728.3V723h-4.3v5.3H962.1z
			 M991.6,739.4c0,3.2-0.6,4.9-2.6,5.9c-2,1-4.6,1.2-8.4,1.2c-0.3-1.8-1.3-4.7-2.2-6.3c2.2,0.1,4.9,0.1,5.6,0.1c0.8,0,1.1-0.3,1.1-1
			v-6.8h-9.1c-1.2,5.4-3.7,10.8-8.7,14.4c-1-1.3-3.6-3.5-5-4.4c7.6-5.4,8.2-13.8,8.2-20.6v-16.4h21V739.4z M985.1,726.7v-4.6H977
			c0,1.4,0,3-0.2,4.6H985.1z M977,711.6v4.6h8.1v-4.6H977z"/>
		<path class="st2" d="M1008,713.1c-0.2,4.7-0.5,14.4-0.5,19.4c0,4.3,2.5,5.7,5.5,5.7c7,0,11.7-4.1,15-9.1l5,6.1
			c-2.8,4.3-9.5,10.5-20,10.5c-7.9,0-12.8-3.6-12.8-11.4c0-5.7,0.4-17.7,0.4-21.1c0-2.4-0.2-4.9-0.7-6.9l8.8,0.1
			C1008.4,708.4,1008.1,711.1,1008,713.1z"/>
		<path class="st2" d="M1058.4,708.8c0,0.4,0,0.8,0,1.3c3.5-0.2,7-0.5,10.9-1.2l0,6.2c-2.7,0.4-6.7,0.8-11,0.9c0,1.3,0,2.6,0,3.7
			c4.6-0.2,8.2-0.6,11.7-1l0,6.4c-4,0.4-7.2,0.7-11.5,0.8c0.1,1.4,0.2,3,0.3,4.5c5.5,1.6,9.7,4.5,12.3,6.7l-3.9,6.1
			c-2.2-2.1-5-4.3-8.1-5.8v0.9c0,4.2-3.4,7.1-9.4,7.1c-7.6,0-11.5-3-11.5-8c0-4.8,4.3-8.2,11.5-8.2c0.8,0,1.5,0,2.2,0.1
			c0-1-0.1-2.1-0.1-3.1h-2.2c-2.4,0-7.6-0.2-10.4-0.6l-0.1-6.4c2.8,0.5,8.5,0.9,10.6,0.9h2c0-1.2,0-2.5,0-3.7h-1.4
			c-2.7,0-7.7-0.4-10.8-0.8l-0.1-6.2c3.4,0.5,8.3,1,10.9,1h1.5v-1.5c0-0.9-0.1-2.3-0.3-3.3h7.4
			C1058.6,706.5,1058.4,707.8,1058.4,708.8z M1048.5,739.3c2.3,0,3.6-0.6,3.6-2.9c0-0.3,0-0.8,0-1.3c-1.1-0.2-2.2-0.3-3.4-0.3
			c-2.5,0-4,1-4,2.2C1044.7,738.5,1046.2,739.3,1048.5,739.3z"/>
		<path class="st2" d="M1101.3,710.1v0.5c4.2,0,10.2-0.1,12.6,0l-0.1,6.4c-2.7-0.1-6.9-0.2-12.6-0.3c0,2.2,0,4.5,0,6.3
			c1.2,1.8,1.8,4,1.8,6.4c0,5.8-3.7,13.6-15,16.6l-5.8-5.8c3.9-0.8,7.6-1.9,10.3-4c-0.3,0-0.5,0-0.8,0c-3.3,0-8-2.8-8-8.6
			c0-5.4,4.4-8.8,9.6-8.8c0.4,0,0.8,0,1.1,0c0-0.8,0-1.5,0-2.3c-6.7,0.1-13.4,0.4-18.9,0.6l-0.2-6.5c5.2,0,13.2-0.1,19-0.2
			c0-0.2,0-0.4,0-0.5c-0.2-2.2-0.4-3.8-0.5-4.5h7.9C1101.6,706.5,1101.4,709.3,1101.3,710.1z M1093.2,730.4c1.4,0,3-1,2.5-4.5
			c-0.6-0.8-1.4-1.2-2.5-1.2c-1.4,0-2.9,0.9-2.9,2.9C1090.3,729.3,1091.7,730.4,1093.2,730.4z"/>
		<path class="st2" d="M1126.5,738.6c0,4.1-3.3,7.5-7.5,7.5c-4.1,0-7.5-3.4-7.5-7.5c0-4.1,3.4-7.5,7.5-7.5
			C1123.2,731.1,1126.5,734.4,1126.5,738.6z M1122.7,738.6c0-2.1-1.7-3.7-3.7-3.7c-2,0-3.7,1.7-3.7,3.7c0,2.1,1.7,3.7,3.7,3.7
			C1121,742.3,1122.7,740.6,1122.7,738.6z"/>
	</g>
</g>
</svg>
