<?xml version="1.0" encoding="UTF-8"?>
<svg id="Layer_1" data-name="Layer 1" xmlns="http://www.w3.org/2000/svg" xmlns:xlink="http://www.w3.org/1999/xlink" viewBox="0 0 292.14 184.74">
  <defs>
    <style>
      .cls-1 {
        fill: none;
      }

      .cls-2 {
        fill: #faf8ef;
      }

      .cls-3 {
        fill: #763718;
      }

      .cls-4 {
        clip-path: url(#clippath);
      }
    </style>
    <clipPath id="clippath">
      <rect class="cls-1" width="292.14" height="184.74"/>
    </clipPath>
  </defs>
  <g class="cls-4">
    <path class="cls-2" d="M288.45,130.84c.73,6.79-4.67,13.73-4.89,20.37-.23,6.8,4.66,14.1,3.48,20.66-1.2,6.68-8.34,11.81-10.45,18.16-2.14,6.42.49,14.8-2.52,20.8-3.02,6.03-11.32,8.95-15.15,14.47-3.84,5.53-3.67,14.32-8.26,19.25-4.58,4.92-13.35,5.4-18.6,9.64-5.22,4.22-7.52,12.7-13.33,16.16-5.75,3.42-14.3,1.4-20.57,4-6.16,2.55-10.77,10.04-17.37,11.72-6.44,1.64-14.07-2.71-20.86-1.98-6.79.73-13.32,6.61-19.96,6.39-6.8-.23-12.91-6.56-19.47-7.74-6.68-1.2-14.6,2.6-20.95.48-6.42-2.14-10.48-9.94-16.48-12.94-6.03-3.02-14.71-1.62-20.23-5.45-5.53-3.84-7.25-12.46-12.18-17.05-4.92-4.58-13.65-5.65-17.89-10.9-4.22-5.22-3.44-13.97-6.9-19.78-3.42-5.75-11.49-9.24-14.09-15.51-2.55-6.16.67-14.33-1.01-20.93-1.64-6.44-8.39-12.06-9.13-18.86-.73-6.79,4.67-13.73,4.89-20.37.23-6.8-4.66-14.1-3.48-20.66,1.2-6.68,8.34-11.81,10.45-18.16,2.14-6.42-.49-14.8,2.52-20.8,3.02-6.03,11.32-8.95,15.15-14.47,3.84-5.53,3.67-14.32,8.26-19.25,4.58-4.92,13.35-5.4,18.6-9.64,5.22-4.22,7.52-12.7,13.34-16.16,5.75-3.42,14.3-1.4,20.57-4,6.16-2.55,10.77-10.04,17.37-11.72,6.44-1.64,14.07,2.71,20.86,1.98,6.79-.73,13.32-6.61,19.96-6.39,6.8.23,12.91,6.56,19.47,7.74,6.68,1.2,14.6-2.6,20.95-.48,6.42,2.14,10.48,9.94,16.48,12.94,6.03,3.02,14.71,1.62,20.23,5.45,5.53,3.84,7.25,12.46,12.18,17.05,4.92,4.58,13.65,5.65,17.89,10.9,4.22,5.22,3.44,13.97,6.9,19.78,3.42,5.75,11.49,9.24,14.09,15.51,2.55,6.16-.67,14.33,1.01,20.93,1.64,6.44,8.39,12.06,9.13,18.86"/>
    <g>
      <path class="cls-3" d="M243.18,53.42c-2.21,3.38-4.5,6.5-7.86,8.7-1.71,1.12-3.51,1.87-5.63,1.83-3.35-.07-5.24-1.77-5.46-5.12-.05-.74,0-1.49,0-2.65-1.55,2.2-2.85,4.12-4.48,5.78-2.53,2.58-5.38,4.45-9.18,4.39-3.23-.05-5.26-1.68-5.93-4.86-.12-.55,0-1.16-.57-1.78-1.28,1.53-2.47,3.09-3.81,4.53-2.93,3.16-6.24,5.6-10.89,5.27-2.67-.19-4.68-1.43-6.09-3.65-1.68-2.64-2.23-5.61-2.48-8.67-.06-.68.51-1.95-.65-1.91-1.23.05-2.96-.68-3.54,1.45-.67,2.5-1.8,4.83-3.16,7.04-1.92,3.12-4.32,5.8-7.45,7.74-2.95,1.83-6.15,2.44-9.57,1.68-3.73-.83-5.94-3.26-7.12-7.11-1.76,1.79-3.36,3.48-5.04,5.1-2.97,2.85-6.44,4.72-10.56,5.36-4.59.71-8.33-1.49-9.86-5.84-1.1-3.15-1.01-6.3-.09-9.49-2.64.41-2.82.55-3.63,2.88-2.08,5.97-5.54,10.92-10.82,14.5-3.1,2.1-6.5,2.8-10.16,1.88-2.27-.57-4.13-1.8-5.23-3.89-.61-1.16-1-1-1.78-.17-2.57,2.75-5.47,5.07-9.02,6.45-1.02.39-2.05.7-3.17.72-4.18.07-5.95-1.99-5.43-6.15.66-5.34,2.3-10.39,4.15-15.4.13-.36.27-.73.58-1.56-2.97,2.36-5.16,4.8-7.24,7.37-4.01,4.94-7.04,10.45-9.58,16.26-1.28,2.93-3.72,4.04-6.89,3.38-2.46-.51-3.24-1.6-2.7-4.03.42-1.88,1-3.73,1.62-6.01-3.26,3.94-6.49,7.34-10.26,10.17-5.01,3.76-10.43,6.63-16.67,7.82-11.5,2.2-21.66-4.93-23.38-16.5-1.06-7.13.34-13.93,3.05-20.49,6.58-15.94,17.84-27.59,33-35.55,4.03-2.12,8.43-3.57,13.06-3.03,6.82.79,10.69,5.37,10.31,12.23-.3,5.48-2.36,10.27-6.84,13.72-1.71,1.32-3.7,2-5.93,1.97-3.69-.05-5.51-3.11-3.75-6.39.58-1.09,1.53-1.85,2.36-2.72,1.98-2.06,3.19-4.48,3.28-7.37.08-2.82-1.25-3.89-3.98-3.32-4.35.91-8.04,3.14-11.2,6.11-9.9,9.28-15.6,20.8-17.69,34.17-.4,2.54-.35,5.03.11,7.52,1.26,6.78,5.9,9.73,12.75,8.07,6.47-1.57,11.84-5.13,16.8-9.42,2.79-2.41,5.22-5.16,7.59-7.97.72-.86,1.14-1.84,1.47-2.89,2.65-8.54,5-17.18,8.39-25.48,1.73-4.24,3.48-8.53,6.9-11.79,1.77-1.69,3.87-2.62,6.37-2.54,3.08.1,4.66,2.56,3.42,5.38-.37.83-.9,1.6-1.41,2.36-5.54,8.35-8.98,17.66-12.34,27.01-.64,1.78-1.26,3.57-2.04,5.78,3-4.1,6.02-7.64,9.46-10.77,2.51-2.29,5.16-4.43,8.66-4.99,2.88-.46,4.49.97,4.56,3.87.04,1.76-.44,3.4-.97,5.04-1.63,5.01-3.56,9.93-4.39,15.18-.11.67-.43,1.44.22,1.93.75.57,1.54.15,2.24-.27,1.76-1.04,3.27-2.39,4.32-4.12.86-1.41.34-3.13.72-4.7,2.15-9.04,6.66-16.33,15.29-20.46,3.6-1.72,7.31-2.09,10.66.74,2.45,2.07,2.71,5.04,3.2,7.94.14.85-.68,2.32.65,2.46,1.46.16,2.96-.44,3.68-2.02,1.65-3.59,3.84-6.79,6.81-9.42,3.47-3.07,7.31-5.38,12.12-5.43,4.23-.05,6.84,3.61,5.45,7.64-.62,1.82-1.67,3.4-3.13,4.66-.91.78-1.93,1.32-3.13.64-1.11-.63-1.27-1.61-1.07-2.81.3-1.75-.47-2.29-2.2-1.72-1.57.52-2.65,1.65-3.47,2.96-2.43,3.91-3.91,8.18-4.02,12.81-.09,3.87,1.81,5.31,5.57,4.46,1.5-.34,2.83-1.03,3.93-2.04,3.1-2.82,5.77-5.76,7.06-10.08,2.15-7.2,6.33-13.21,12.91-17.25,1.78-1.09,3.72-1.84,5.81-2.01,5.47-.44,9.26,3.04,9.54,8.69.04.74,0,1.49.02,2.24.02.83-.22,1.78,1.16,1.83,1.2.04,1.8-.44,2.01-1.6,2.04-11.51,6.48-22.08,12.57-31.98,2-3.25,4.45-6.13,7.6-8.34,1.61-1.13,3.38-1.91,5.44-1.88,2.63.04,4.13,1.09,5,3.63.92,2.7.9,5.48.22,8.16-3.2,12.62-9.18,23.67-18.78,32.62-.08.08-.18.15-.26.23-.77.82-2.25,1.01-2.48,2.24-.35,1.83.02,3.67.71,5.39,1.03,2.57,3.5,3.41,5.74,1.75,3.69-2.73,6.66-6.18,8.45-10.44,3.15-7.51,7.77-13.76,14.88-17.95,1.8-1.06,3.74-1.74,5.8-2.07,1.51-.24,3.02-.13,4.37.57,1.57.8,3.05,1.58,4.92,1.71,1.79.12,2.64,1.84,2.08,3.8-.5,1.76-1.28,3.44-1.91,5.16-1.48,4.04-2.95,8.09-3.15,12.45-.04.9-.25,1.94.72,2.49,1.03.59,1.85-.15,2.66-.67,1.74-1.13,2.84-2.81,3.89-4.53,3.37-5.53,4.84-11.72,6.3-17.93.77-3.27.8-3.27-2.51-3.04-1.27.09-2.53-.01-3.76-.3-1.55-.37-1.99-1.36-1.38-2.86.39-.98,1.17-1.54,2.05-1.99,2.16-1.11,4.48-1.78,6.85-2.21,1.45-.26,2.24-.92,2.78-2.33,1.71-4.42,4.09-8.47,7.43-11.89,1.34-1.37,2.8-2.52,4.94-2.37,2.88.19,4.28,2.2,3.09,4.86-1.17,2.61-2.6,5.11-3.9,7.67-.23.45-.76.95-.47,1.4.37.57,1.03.12,1.57.08,1.76-.13,3.49-.62,5.3-.24,1.38.29,2.59.75,2.95,2.24.38,1.58-.08,2.95-1.36,4.01-1.32,1.09-2.92,1.59-4.54,1.96-1.9.43-3.83.75-5.79.71-1.13-.02-1.79.36-2.16,1.5-1.94,6-4.07,11.94-4.87,18.24-.22,1.75-.59,3.75,1.23,4.85,1.75,1.05,3.3-.18,4.73-1.12,1.15-.76,2.1-1.77,3.04-2.78.61-.67.9-1.37.92-2.31.18-8.01,3.88-14.35,9.55-19.72,2.41-2.28,5.1-4.08,8.38-4.88,4.91-1.19,8.97,1.12,9.78,5.55.33,1.81-.06,3.55-.68,5.23-2.65,7.22-7.73,11.92-15.01,14.3-2.41.79-2.62,1.56-1.02,3.59,1.47,1.85,3.4,2.47,5.67,1.97,3.21-.7,5.51-2.7,7.35-5.31,1.43-2.02,2.39-2.49,3.53-1.74,1.12.73,1.26,2.1.13,4.01-3.11,5.25-7.19,9.4-13.38,10.79-5.43,1.22-9.66-.72-12.44-5.61-.67-1.18-.99-.88-1.6-.02-1.85,2.59-4.04,4.84-6.89,6.36-1.92,1.02-3.97,1.59-6.12,1.43-3.65-.27-6.08-3.09-6.47-7.29-.04-.45,0-.91,0-1.36ZM101.79,68.01c.26,1.76.21,3.69,2.1,4.48,1.96.82,3.55-.15,4.89-1.59,2.16-2.34,3.33-5.18,4.19-8.19.19-.67.02-1.15-.48-1.68-2.23-2.38-2.59-5.27-1.08-8.04.37-.68,1.2-1.43.36-2.12-.76-.63-1.44.28-2.12.63-.15.08-.28.2-.4.32-4.49,4.49-6.69,10.03-7.46,16.18ZM213.81,54.17c.1.87.09,1.85.98,2.4.85.52,1.68.12,2.43-.3.55-.3,1.11-.64,1.55-1.08,4.66-4.54,7.62-9.99,8.67-16.44.23-1.44-.45-2.06-1.82-2.02-1.31.04-2.46.59-3.47,1.36-5.25,4.05-7.51,9.67-8.35,16.07ZM168.84,43.28c-1.29.06-2.09.66-2.75,1.34-4.6,4.64-6.87,10.36-7.36,16.78-.13,1.68.43,3.34,2.27,4.07,1.74.7,3.01-.26,4.13-1.36,2.63-2.59,3.83-5.92,4.72-9.4.16-.64-.1-1.05-.52-1.52-3.16-3.49-3.31-6.14-.48-9.92ZM191.68,44.63c6.18-7.32,10.16-15.77,13.22-24.71.46-1.35.84-2.74.74-4.2-.03-.46-.03-.95-.5-1.2-.55-.3-1,.05-1.4.37-.86.69-1.51,1.58-2.06,2.52-4.96,8.48-8.23,17.58-10,27.23ZM272.35,42.02c4.41-2.55,7.09-5.94,8.68-10.21.42-1.13,1.54-2.7,0-3.54-1.41-.76-2.59.61-3.43,1.67-2.74,3.42-4.2,7.42-5.24,12.08Z"/>
      <path class="cls-3" d="M224.88,121.17c-2.67,4.02-5.59,7.16-9.62,9.14-2.31,1.13-4.75,1.34-7.22,1.06-2.1-.24-3.58-1.42-4.22-3.53-.37-1.21-.69-2.43-.57-4.1-1.15,1.38-2.05,2.51-3,3.6-3.27,3.75-6.96,6.8-12.08,7.69-5.16.9-9.18-2.35-9.43-7.62-.29-6.38,1.62-12.34,3.28-18.36.32-1.16.68-2.31,1.07-3.45.35-1.04.29-1.51-1.04-1.19-1.4.33-2.84.29-4.26-.09-1.13-.3-2.1-.84-2.33-2.03-.22-1.18.47-2.1,1.37-2.79,1.73-1.32,3.79-2.02,5.88-2.28,2.4-.3,3.64-1.38,4.53-3.64,1.58-4.01,3.69-7.78,6.82-10.86,1.68-1.65,3.8-1.96,5.82-.9,2.1,1.11,2.75,2.99,1.68,5.23-.96,2.02-2.05,3.98-3.08,5.96-.18.35-.51.75-.26,1.11.26.38.74.17,1.12.09,1.65-.34,3.32-.27,4.98-.14,1.49.12,2.83.7,3.2,2.38.36,1.63-.31,2.89-2.06,3.73-2.57,1.24-5.36,1.7-8.15,1.96-2.02.19-3.08.97-3.65,3.04-1.46,5.36-3.42,10.58-4.17,16.13-.07.51-.15,1.02-.17,1.53-.06,1.41-.03,2.86,1.46,3.58,1.63.79,3.06.05,4.25-1.01,2.34-2.06,4.19-4.56,5.94-7.12,3.3-4.8,5.65-10.1,8.11-15.35.63-1.35,1.23-2.73,2-4,1.15-1.89,3.03-2.67,4.97-2.27,2.49.51,3.6,2.15,3.09,4.65-.83,4.06-2.72,7.79-3.82,11.77-.55,1.99-1.11,3.98-1.41,6.02-.17,1.18-.58,2.58.72,3.27,1.28.68,2.45-.15,3.42-1,3.18-2.81,5.54-6.26,7.65-9.9,2.83-4.88,4.83-10.15,6.98-15.34.78-1.89,2.12-2.77,4.08-2.84,3.82-.14,5.73,2.29,4.61,6.01-2.33,7.74-4.71,15.46-7.09,23.19-.91,2.96-.93,2.92,2.07,2.84,3.1-.09,6.2-.14,9.16,1.04,1.93.77,3.48,1.98,4.5,3.81.61,1.1.79,2.27.38,3.49-.66,2-1.39,2.18-2.85.72-3.33-3.33-7.46-3.62-11.83-3.26-3.07.25-4.72,1.52-5.69,4.69-2.14,7.01-4.67,13.93-8.69,20.17-3.68,5.71-8.26,10.43-14.61,13.15-2.58,1.11-5.28,1.49-8.07.79-4.65-1.16-7.23-5.57-6.35-10.69.97-5.6,4.03-10.06,7.64-14.21,5.81-6.7,12.8-11.8,20.99-15.23.97-.41,1.6-.97,1.89-2.02.59-2.09,1.27-4.15,2.04-6.62ZM219.82,136.6c-5,2.65-9.37,6.02-12.97,10.33-2.7,3.23-5.05,6.67-5.89,10.91-.17.87-.36,1.78.43,2.38.81.62,1.77.4,2.62.03,1.32-.59,2.46-1.45,3.5-2.45,6.16-5.86,9.37-13.44,12.31-21.21Z"/>
      <path class="cls-3" d="M100.46,93.55c-4.52-.1-8.67,1.4-12.79,3-6.39,2.48-12.59,5.32-17.79,9.91-2.35,2.07-4.23,4.52-5.04,7.64-.18.68-.33,1.39-.13,2.04.5,1.62-.43,2.23-1.72,2.56-2.75.7-5.13-.22-7.14-2-1.98-1.75-2.09-4.14-1.58-6.53.56-2.6,2.14-4.65,3.88-6.6,5.17-5.76,11.88-9.11,18.89-11.93,6.51-2.62,13.22-4.58,20.2-5.45,4.28-.54,8.58-.62,12.81.5,8.18,2.16,12.07,8.66,10.23,16.91-1.25,5.6-4.22,10.17-8.52,13.82-6.93,5.86-14.68,10.2-23.76,11.78-.28.05-.57.1-.85.12-3.05.28-3.06.27-3.92,3.18-1.82,6.22-3.33,12.51-4.51,18.89-.72,3.88-3.5,6.12-7.4,5.91-2.73-.15-4.67-2.11-4.86-4.85-.2-2.91.37-5.72,1.09-8.49,3.67-14.07,8.25-27.81,14.78-40.85.49-.97,1.01-1.94,1.64-2.82,1.3-1.82,4.23-2.46,6.22-1.45,1.81.92,2.46,2.75,1.68,5.21-1.62,5.14-3.33,10.25-4.97,15.38-.57,1.78-.5,1.88,1.35,1.43,8.47-2.05,14.99-6.71,19.03-14.55,1.03-2,1.6-4.17,1.55-6.46-.07-3.58-2.23-5.93-5.79-6.27-.85-.08-1.72-.01-2.58-.01Z"/>
      <path class="cls-3" d="M162.46,113.8c1.65-3.45,3.2-6.38,5.72-8.67,2.13-1.93,4.64-2.43,6.97-1.28,2.1,1.04,3.13,3.07,2.76,5.96-.31,2.41-1.1,4.69-2.92,6.46-.99.95-2.14,1.32-3.47.85-1.26-.44-1.91-1.32-2.04-2.69-.13-1.36-.7-1.53-1.79-.59-1.23,1.06-2.15,2.38-2.9,3.81-2.9,5.51-4.96,11.33-6.49,17.35-.98,3.83-4.68,5.14-7.95,2.84-.99-.7-1.59-1.61-1.56-2.89.03-1.2-.03-2.4.26-3.62-1.65,2.45-3.27,4.92-5.74,6.63-2.24,1.55-4.55,2.86-7.42,2.81-3.3-.06-5.21-1.87-5.34-5.2-.02-.62,0-1.24,0-2.17-2.38,2.62-4.24,5.31-6.83,7.32-2.61,2.02-5.49,3.03-8.8,2.77-3.64-.29-6.12-3.26-6.02-7.49.13-5.05,1.82-9.68,4.35-13.98,4.1-6.96,9.47-12.52,17.42-15.04,3.43-1.08,6.68-.8,9.58,1.54.51.41,1.08.59,1.73.66,3.07.34,4.08,2.1,2.7,4.92-1.81,3.72-3.52,7.47-4.71,11.43-.46,1.54-.95,3.07-.97,4.7-.03,2.26,1.06,2.93,3.04,1.77,1.76-1.03,3.12-2.52,4.28-4.18,4.06-5.84,6.39-12.4,7.96-19.27.62-2.73,2.7-4.22,5.43-3.79,2.34.37,3.56,2.32,3.25,5.22-.12,1.13-.29,2.26-.49,3.83ZM119.07,131.75c0,2.15,1.1,2.91,2.95,2.31,1.17-.38,2.14-1.08,3.03-1.9,4.56-4.23,7.79-9.26,9.33-15.33.25-.99.8-2.12-.03-2.93-.9-.89-2.17-.47-3.28-.23-.54.12-1.06.43-1.55.72-1.63.99-3,2.3-4.25,3.72-3.49,3.99-5.56,8.62-6.2,13.65Z"/>
    </g>
    <g>
      <path class="cls-3" d="M-6.56,207.05c14.23-8.09,24.37-2.37,29.86,2.87,2.37,2.25,4.29,4.93,5.75,7.85,3.36,6.73,6.85,11.41,10.01,14.66,6.66,6.86,17.87,6.2,23.58-1.48,1.76-2.37,2.75-4.55,3.2-5.71.52-1.34,1.12-2.66,1.81-3.92,9.32-17.08,30.66-25.23,56.95-4.85,12.11,9.39,22.23,12.61,29.8,13.26,10.43.89,19.07-7.91,17.98-18.33-1.13-10.79-7.59-18.5-7.59-18.5-3.12-4.23-5.22-8.03-6.57-11.42-1.02-3.23-1.43-4.62-1.91-7.34-1.04-12.37,12.89-20.92,23.43-13.58,6.74,4.7,9.89,13.48,11.08,17.79.69,2.49,1.63,4.91,2.84,7.19,3.24,6.09,6.86,10.28,10.17,13.16,7.85,6.82,19.5,7.03,27.5.39.75-.62,1.26-1.13,1.51-1.4.41-.43.82-.86,1.25-1.28,2.19-2.17,4.35-3.98,6.42-5.48,12.12-8.82,29.39-3.68,34.52,10.4.68,1.88,1.23,3.95,1.61,6.24,1.42,8.62,4.43,14.7,7.47,18.86,4.64,6.35,13.37,8.11,20.07,4,4.23-2.6,6.63-5.49,6.63-5.49,29.81-33,50.52-8.84,50.52-8.84v266.06H-39.77s-.17-283.03-.17-283.03c0,0,10.99,20.62,33.38,7.9Z"/>
      <circle class="cls-3" cx="225.58" cy="181.71" r="4.4"/>
      <circle class="cls-3" cx="152.94" cy="149.93" r="4.96" transform="translate(-14.56 283.4) rotate(-82.98)"/>
      <circle class="cls-3" cx="13.74" cy="134.02" r=".85"/>
      <circle class="cls-3" cx="82.35" cy="149.93" r=".85"/>
      <circle class="cls-3" cx="70.57" cy="165.81" r="7.13"/>
      <circle class="cls-3" cx="43.78" cy="162.73" r="3.09" transform="translate(-15.82 5.11) rotate(-5.65)"/>
      <circle class="cls-3" cx="99.92" cy="177.25" r="10.52"/>
      <circle class="cls-3" cx="132.32" cy="151.36" r="1.55" transform="translate(-50.89 234.14) rotate(-73.16)"/>
      <circle class="cls-3" cx="248.64" cy="150.64" r="1.55"/>
      <circle class="cls-3" cx="236.94" cy="150.64" r=".71"/>
      <circle class="cls-3" cx="142.79" cy="163.97" r="2.13"/>
      <path class="cls-3" d="M42.16,181.84c.89,0,1.62.73,1.62,1.62s-.73,1.62-1.62,1.62-1.62-.73-1.62-1.62.73-1.62,1.62-1.62Z"/>
      <circle class="cls-3" cx="275.86" cy="179.58" r="2.13"/>
    </g>
  </g>
</svg>