<svg xmlns="http://www.w3.org/2000/svg" width="223.037" height="67.396" viewBox="0 0 223.037 67.396">
  <g id="KidsUP_Logp_KidsUP_Logo_02" transform="translate(-18.51 -58.65)">
    <ellipse id="楕円形_4628" data-name="楕円形 4628" cx="35.396" cy="33.698" rx="35.396" ry="33.698" transform="translate(18.51 58.65)" fill="#fff"/>
    <g id="グループ_897" data-name="グループ 897" transform="translate(20.227 60.407)">
      <g id="グループ_892" data-name="グループ 892">
        <g id="グループ_890" data-name="グループ 890">
          <path id="パス_5599" data-name="パス 5599" d="M19.38,91.481c0,17.629,15.1,31.922,33.7,31.9L53.039,59.54c-18.6,0-33.659,14.312-33.659,31.941Z" transform="translate(-19.38 -59.54)" fill="#83c0da"/>
          <path id="パス_5600" data-name="パス 5600" d="M70.088,91.442c0-17.629-15.1-31.922-33.7-31.9l.039,63.843C55.026,123.383,70.088,109.071,70.088,91.442Z" transform="translate(-2.81 -59.54)" fill="#ef8200"/>
        </g>
        <path id="パス_5601" data-name="パス 5601" d="M81.331,76.265s-.237.02-.671.059-1.086.1-1.915.158-1.816.138-2.961.217-2.448.158-3.85.217c-1.4.079-2.941.158-4.56.2-1.619.059-3.317.138-5.093.158-1.757.039-3.593.079-5.429.1-1.856.02-3.731.039-5.607.039s-3.771,0-5.607-.039c-1.856,0-3.672-.059-5.429-.1s-3.474-.1-5.093-.158-3.139-.118-4.56-.2c-1.4-.059-2.7-.138-3.85-.217-1.145-.059-2.152-.158-2.961-.217-.829-.059-1.461-.118-1.915-.158-.434-.039-.671-.059-.671-.059s.237-.02.671-.059,1.086-.1,1.915-.158,1.816-.138,2.961-.217,2.448-.158,3.85-.217c1.4-.079,2.941-.158,4.56-.2,1.619-.059,3.317-.118,5.093-.158,1.757-.039,3.593-.079,5.429-.1,1.856-.02,3.731-.039,5.607-.039s3.771,0,5.607.039c1.856,0,3.672.059,5.429.1s3.474.1,5.093.158c1.619.039,3.139.118,4.56.2,1.4.059,2.7.138,3.85.217,1.145.059,2.152.158,2.961.217.829.059,1.461.118,1.915.158.434.039.671.059.671.059Z" transform="translate(-17.646 -44.363)" fill="#fff"/>
        <path id="パス_5602" data-name="パス 5602" d="M69.617,65.44s-.158.1-.434.3-.691.494-1.224.829-1.224.711-2.014,1.145a2.156,2.156,0,0,1-.3.158c-.1.039-.217.1-.316.138-.217.1-.434.2-.671.3-.454.2-.928.434-1.441.632s-1.066.395-1.619.592c-.138.059-.276.1-.415.158l-.217.079-.237.079c-.3.079-.592.158-.888.257-.592.158-1.2.336-1.836.513-.632.158-1.323.276-2.014.415a41.061,41.061,0,0,1-4.225.592,19.776,19.776,0,0,1-2.191.138c-.75.02-1.5.059-2.251.079-.73-.02-1.441-.059-2.152-.079a20.69,20.69,0,0,1-2.172-.138,39.968,39.968,0,0,1-4.244-.592c-.671-.138-1.342-.237-1.994-.395-.632-.178-1.263-.355-1.875-.513-.3-.079-.612-.178-.908-.257l-.118-.039h-.059l-.059-.039h-.02L33.51,69.7c-.138-.059-.276-.1-.415-.158-.553-.2-1.086-.395-1.579-.572-.513-.2-1.007-.434-1.461-.632-.237-.1-.454-.2-.671-.3a2.193,2.193,0,0,0-.316-.138,2.16,2.16,0,0,0-.3-.158c-.79-.434-1.461-.79-2.014-1.145-.533-.355-.948-.651-1.224-.829-.276-.2-.434-.3-.434-.3s.178.059.494.178.79.3,1.362.533a8.2,8.2,0,0,0,.987.336c.355.118.75.257,1.165.395a12.932,12.932,0,0,0,1.323.375c.474.118.948.276,1.461.395.533.118,1.086.237,1.658.375.138.039.276.059.434.1l.217.059.2.039c.3.059.592.1.888.158.592.1,1.2.217,1.836.336.632.1,1.283.158,1.935.237l.987.118.494.059.513.039c.671.039,1.362.1,2.033.158.671.079,1.4.059,2.112.079.711,0,1.441.039,2.152.059.691,0,1.382-.039,2.073-.059.711-.02,1.4,0,2.093-.079.691-.059,1.382-.1,2.053-.158l.513-.039a4.2,4.2,0,0,0,.494-.059l.987-.118,1.935-.237c.632-.118,1.263-.237,1.875-.336.3-.059.612-.1.908-.158l.2-.039.217-.059c.138-.039.276-.059.415-.1.553-.118,1.106-.257,1.619-.375s1.007-.276,1.481-.415.928-.237,1.323-.395c.415-.138.79-.276,1.145-.395s.691-.217.987-.336c.592-.237,1.046-.415,1.362-.553.316-.118.494-.178.494-.178Z" transform="translate(-13.808 -53.812)" fill="#fff"/>
        <path id="パス_5603" data-name="パス 5603" d="M36.975,120.641s-.02-.237-.059-.671-.1-1.086-.158-1.915-.138-1.816-.217-2.961-.158-2.448-.217-3.85c-.079-1.4-.158-2.941-.2-4.56-.059-1.619-.138-3.317-.158-5.093-.039-1.757-.079-3.593-.1-5.429-.02-1.856-.039-3.731-.039-5.607s0-3.771.039-5.607c0-1.856.059-3.672.1-5.429s.1-3.474.158-5.093.118-3.139.2-4.56c.059-1.4.138-2.7.217-3.85.059-1.145.158-2.152.217-2.961.059-.829.118-1.461.158-1.915.039-.434.059-.671.059-.671s.02.237.059.671.1,1.086.158,1.915.158,1.816.217,2.961c.079,1.145.158,2.448.217,3.85.079,1.4.158,2.941.2,4.56.059,1.619.118,3.317.158,5.093.039,1.757.079,3.593.1,5.429.02,1.856.039,3.731.039,5.607s0,3.771-.039,5.607c0,1.856-.059,3.672-.1,5.429s-.1,3.474-.158,5.093c-.039,1.619-.118,3.139-.2,4.56-.059,1.4-.138,2.7-.217,3.85-.059,1.145-.158,2.152-.217,2.961-.059.829-.118,1.461-.158,1.915C36.995,120.4,36.975,120.641,36.975,120.641Z" transform="translate(-3.356 -58.634)" fill="#fff"/>
        <path id="パス_5604" data-name="パス 5604" d="M51.8,60.48s-.375.039-1.066.1c-.178,0-.375.039-.572.039-.217.02-.434.059-.691.1-.237.039-.513.079-.79.118s-.572.1-.888.158a29.815,29.815,0,0,0-4.462,1.184,30.456,30.456,0,0,0-5.389,2.468,29.856,29.856,0,0,0-8.173,6.909l-.316.395-.3.375-.592.77c-.375.533-.77,1.086-1.106,1.658a29.905,29.905,0,0,0-3.376,7.482,28.937,28.937,0,0,0-.888,4.126,33.817,33.817,0,0,0-.3,4.244v1.086c.02.375.059.711.079,1.066.039.691.138,1.4.217,2.093a28.985,28.985,0,0,0,.908,4.126,29.905,29.905,0,0,0,3.376,7.482c.355.572.73,1.105,1.125,1.639l.592.77c.2.257.395.513.612.77.2.237.415.513.612.73l.671.73c.217.257.434.454.651.671l.651.651a30.879,30.879,0,0,0,10.976,6.613,29.494,29.494,0,0,0,4.462,1.165c.316.059.612.118.888.158s.553.079.79.118c.257.039.474.059.691.1.217,0,.395.039.572.039.691.059,1.066.1,1.066.1s-.375,0-1.066.039H48.7a8.026,8.026,0,0,1-.928-.079,27.056,27.056,0,0,1-4.659-.77,28.872,28.872,0,0,1-5.764-2.132,29.948,29.948,0,0,1-6.12-4.027c-.237-.217-.494-.434-.75-.671a8.132,8.132,0,0,1-.73-.691c-.237-.237-.474-.454-.691-.691-.276-.257-.474-.513-.711-.77a27.055,27.055,0,0,1-2.586-3.317,30.421,30.421,0,0,1-3.81-7.956A30.2,30.2,0,0,1,20.945,95.2c-.1-.75-.217-1.5-.257-2.29-.02-.395-.059-.79-.079-1.145l-.039-1.145a32.3,32.3,0,0,1,.355-4.58A32.968,32.968,0,0,1,21.932,81.6a29.452,29.452,0,0,1,1.639-4.165,30.955,30.955,0,0,1,2.172-3.79c.395-.592.829-1.165,1.244-1.737.217-.276.454-.553.671-.829l.336-.395.336-.375a32.05,32.05,0,0,1,2.882-2.8,29.947,29.947,0,0,1,6.12-4.027,27,27,0,0,1,5.764-2.132,27.439,27.439,0,0,1,4.639-.79c.316-.02.632-.059.928-.079.3,0,.553,0,.809-.02h1.263c.691.02,1.066.039,1.066.039Z" transform="translate(-18.221 -58.644)" fill="#fff"/>
        <path id="パス_5605" data-name="パス 5605" d="M36.429,120.661s.3-.039.829-.118a.463.463,0,0,0,.217-.039,1.041,1.041,0,0,0,.237-.059c.158-.039.336-.079.513-.138a4.159,4.159,0,0,0,.592-.2c.2-.079.434-.158.651-.257a12.1,12.1,0,0,0,2.961-1.954,17.759,17.759,0,0,0,2.961-3.494,29.192,29.192,0,0,0,2.527-4.837c.178-.454.375-.908.533-1.382s.336-.967.474-1.421c.158-.494.3-1.007.454-1.52.138-.513.257-1.007.395-1.52a54.632,54.632,0,0,0,1.145-6.436c.1-1.106.217-2.231.276-3.356.02-.572.079-1.125.079-1.7V90.555a63.807,63.807,0,0,0-.355-6.791,50.847,50.847,0,0,0-1.165-6.436c-.138-.513-.257-1.027-.395-1.52-.158-.494-.3-.987-.454-1.481l-.039-.158-.059-.178-.118-.375c-.079-.237-.178-.494-.257-.73-.178-.474-.355-.908-.533-1.362a30.853,30.853,0,0,0-2.527-4.837,17.759,17.759,0,0,0-2.961-3.494A12.1,12.1,0,0,0,39.45,61.24c-.217-.1-.454-.178-.651-.257a4.161,4.161,0,0,0-.592-.2c-.2-.039-.355-.1-.533-.138l-.237-.059c-.079,0-.138-.02-.217-.02-.533-.079-.829-.118-.829-.118h.829a8.494,8.494,0,0,1,2.369.375,11.176,11.176,0,0,1,3.356,1.7,17.168,17.168,0,0,1,3.494,3.415,26.815,26.815,0,0,1,3.04,4.9c.217.474.454.948.651,1.421l.3.711.158.355.079.178.079.2c.178.513.355,1.007.553,1.52.178.513.316,1.046.494,1.579s.3,1.066.434,1.619c.059.276.138.553.2.829l.178.829c.1.553.237,1.125.336,1.7.079.573.178,1.145.257,1.717a55.974,55.974,0,0,1,.474,7.008l-.039,1.8c0,.592-.059,1.184-.079,1.777-.059,1.184-.217,2.349-.336,3.494-.079.572-.178,1.145-.257,1.717-.1.572-.217,1.125-.336,1.7-.059.276-.1.553-.178.829-.059.276-.138.553-.2.829-.138.553-.257,1.086-.434,1.639a2.239,2.239,0,0,1-.276,1.619c-.178.494-.355,1.027-.533,1.52a11.864,11.864,0,0,1-.612,1.54c-.2.474-.513,1.145-.73,1.619a21.346,21.346,0,0,1-2.468,4.363,20.833,20.833,0,0,1-4.165,3.672,11.924,11.924,0,0,1-3.356,1.7,10.3,10.3,0,0,1-2.369.375h-.829Z" transform="translate(-2.81 -58.654)" fill="#fff"/>
        <path id="パス_5606" data-name="パス 5606" d="M44.884,60.48s-.3.039-.829.118a.463.463,0,0,0-.217.039,1.041,1.041,0,0,0-.237.059c-.158.039-.336.079-.513.138a4.163,4.163,0,0,0-.592.2c-.2.079-.434.158-.651.257a12.1,12.1,0,0,0-2.961,1.954,17.759,17.759,0,0,0-2.961,3.494,29.193,29.193,0,0,0-2.527,4.837c-.178.454-.375.908-.533,1.382s-.336.967-.474,1.421c-.158.494-.3,1.007-.454,1.52-.138.513-.257,1.007-.395,1.52-.454,1.9-.474,4.383-1.046,6.376a3.538,3.538,0,0,0-.138,1.007c0,2.132-.336,3.711-.336,5.8a58.5,58.5,0,0,0,.395,6.752,50.846,50.846,0,0,0,1.165,6.436c.138.513.257,1.027.395,1.52.158.494.3.987.454,1.481l.039.158.059.178.118.375c.079.237.178.494.257.73.178.474.355.908.533,1.362.75,1.777,3.3,2.586,4.225,4.007.928,1.4.237,3.415,1.263,4.323a12.1,12.1,0,0,0,2.961,1.954c.217.1.454.178.651.257a4.159,4.159,0,0,0,.592.2c.2.039.355.1.533.138l.237.059c.079,0,.138.02.217.02.533.079.829.118.829.118h-.829a8.495,8.495,0,0,1-2.369-.375,11.176,11.176,0,0,1-3.356-1.7,17.569,17.569,0,0,1-3.494-3.4,26.816,26.816,0,0,1-3.04-4.9c-.217-.474-.454-.948-.651-1.421l-.3-.711-.158-.355-.079-.178-.079-.2c-.178-.513-.355-1.007-.553-1.52-.178-.513-.316-1.046-.494-1.579s-.3-1.086-.434-1.619c-.059-.276-.138-.553-.2-.829l-.178-.829c-.1-.553-.237-1.125-.336-1.7-.079-.572-.178-1.145-.257-1.717a52.654,52.654,0,0,1,0-14.1c.079-.572.178-1.145.257-1.717.1-.573.217-1.125.336-1.7.059-.276.1-.553.178-.829.059-.276.138-.553.2-.829.138-.553.257-1.086.434-1.639.158-.533.316-1.086.494-1.6.178-.494.355-1.007.533-1.5.2-.533.415-1.007.612-1.481s.434-.948.651-1.421a26.767,26.767,0,0,1,3.02-4.9,17.168,17.168,0,0,1,3.494-3.415,11.924,11.924,0,0,1,3.356-1.7,10.3,10.3,0,0,1,2.369-.375H44.9Z" transform="translate(-11.304 -58.644)" fill="#fff"/>
        <path id="パス_5607" data-name="パス 5607" d="M36.989,120.71s-.079-.118,0-.138h.02c.178,0,.355-.039.573-.039h0c.217-.039.434-.059.691-.1s.513-.079.79-.118.572-.1.888-.158a29.816,29.816,0,0,0,4.462-1.184,30.457,30.457,0,0,0,5.389-2.468,29.856,29.856,0,0,0,8.173-6.909l.316-.395.3-.375.592-.77c.375-.533.77-1.086,1.106-1.639a29.905,29.905,0,0,0,3.376-7.482,28.939,28.939,0,0,0,.888-4.126c.079-.711.178-1.4.217-2.112.02-.355.059-.711.059-1.066V90.585a29.958,29.958,0,0,0-.276-4.264,28.984,28.984,0,0,0-.908-4.126,30.229,30.229,0,0,0-3.376-7.482c-.355-.573-.73-1.106-1.125-1.639l-.592-.77c-.2-.257-.395-.513-.612-.77-.2-.237-.415-.513-.612-.73l-.671-.73c-.217-.257-.434-.454-.651-.671l-.651-.651a21.251,21.251,0,0,0-5.587-4.146h0a30.279,30.279,0,0,0-5.389-2.448,29.5,29.5,0,0,0-4.462-1.165c-.316-.059-.612-.118-.888-.158s-.553-.079-.79-.118c-.257-.039-.474-.059-.691-.1h0c-.217,0-.395-.039-.572-.039h-.02c-.079,0-.079-.118,0-.138h2.093a8.03,8.03,0,0,1,.928.079,27.056,27.056,0,0,1,4.659.77,44.974,44.974,0,0,1,7.383,2.606h0a34.414,34.414,0,0,1,4.5,3.553c.237.217.494.434.75.671a8.135,8.135,0,0,1,.73.691l.691.691c.257.257.474.513.711.77a27.055,27.055,0,0,1,2.586,3.317,30.421,30.421,0,0,1,3.81,7.956A30.712,30.712,0,0,1,67,85.729a35.634,35.634,0,0,1,.158,4.8l-.039,1.184c0,.375-.039.77-.059,1.145-.039.77-.158,1.52-.257,2.29a33.665,33.665,0,0,1-1.007,4.442,37.945,37.945,0,0,1-1.54,4.738,23.527,23.527,0,0,1-2.27,3.218c-.395.592-.809,1.165-1.244,1.737-.217.276-.454.553-.671.829l-.336.395-.336.375a32.051,32.051,0,0,1-2.882,2.8,29.947,29.947,0,0,1-6.12,4.027,27,27,0,0,1-5.764,2.132,27.442,27.442,0,0,1-4.639.79c-.316.02-.632.059-.928.079-.3,0-.573,0-.809.02H36.969Z" transform="translate(-2.323 -58.663)" fill="#fff"/>
        <path id="パス_5608" data-name="パス 5608" d="M25.14,89.146s.158-.1.434-.3.691-.494,1.224-.829,1.224-.711,2.014-1.145a2.16,2.16,0,0,1,.3-.158c.1-.039.217-.1.316-.138.217-.1.434-.2.671-.3.454-.2.928-.434,1.441-.632s1.066-.395,1.619-.592c.138-.059.276-.1.415-.158l.217-.079.237-.079c.3-.079.592-.158.888-.257.592-.158,1.2-.336,1.836-.513.632-.158,1.323-.276,1.994-.415a41.841,41.841,0,0,1,4.225-.592,19.78,19.78,0,0,1,2.191-.138c.73-.02,1.461-.059,2.211-.079.73.02,1.461.059,2.191.079a20.694,20.694,0,0,1,2.172.138,39.97,39.97,0,0,1,4.244.592c.671.138,1.342.237,1.994.395.632.178,1.263.355,1.875.513.3.079.612.178.908.257l.118.039h.059l.059.039h.02l.217.079c.138.059.276.1.415.158.553.2,1.086.395,1.579.573.513.2,1.007.434,1.461.632.237.1.454.2.671.3a2.2,2.2,0,0,0,.316.138,2.158,2.158,0,0,0,.3.158c.79.434,1.461.79,2.014,1.145.533.355.948.651,1.224.829.276.2.434.3.434.3s-.178-.059-.494-.178-.79-.3-1.362-.533a8.2,8.2,0,0,0-.987-.336c-.355-.118-.75-.257-1.165-.395a12.925,12.925,0,0,0-1.323-.375c-.474-.118-.948-.276-1.461-.395-.533-.118-1.086-.237-1.658-.375-.138-.039-.276-.059-.434-.1l-.217-.059-.2-.039c-.3-.059-.592-.1-.888-.158-.592-.1-1.2-.217-1.836-.336-.632-.1-1.283-.158-1.935-.237l-.987-.118-.494-.059-.513-.039c-.671-.039-1.362-.1-2.033-.158-.671-.079-1.4-.059-2.112-.079-.711,0-1.421-.039-2.132-.059-.711,0-1.421.039-2.112.059-.711.02-1.4,0-2.093.079-.691.059-1.382.1-2.053.158l-.513.039a4.2,4.2,0,0,0-.494.059l-.987.118-1.935.237c-.632.118-1.263.237-1.875.336-.3.059-.612.1-.908.158l-.2.039-.217.059c-.138.039-.276.059-.415.1-.553.118-1.106.257-1.619.375s-1.007.276-1.481.415-.928.237-1.323.395c-.415.138-.79.276-1.145.395s-.691.217-.987.336c-.592.237-1.046.415-1.362.553-.316.118-.494.178-.494.178Z" transform="translate(-13.769 -36.931)" fill="#fff"/>
        <g id="グループ_891" data-name="グループ 891" transform="translate(3.563 8.548)">
          <path id="パス_5609" data-name="パス 5609" d="M46.2,66.358s.158-.138.237-.2l.2-.178a1.765,1.765,0,0,0-.237-.178,2.066,2.066,0,0,0-.592-.217,1.053,1.053,0,0,0-.553.079,2.014,2.014,0,0,0-1.342-.75.961.961,0,0,1-.237-.02,3.423,3.423,0,0,0-3.178,1.481,3.947,3.947,0,0,0-1.875,3.85,12.72,12.72,0,0,0,1.461,4.6,3.867,3.867,0,0,1,.908,2.566c-.079,0-.118-.059-.158-.118a.2.2,0,0,0-.059-.02l-.217.039s-.059,0-.079-.039c-.039-.059-.059-.1-.1-.158v-.059a.758.758,0,0,1,.237-.691l-.178-.3c-.395.118-1.027.494-1.086,1.086l-.039-.1c-.454.1-1.3.711-1.046,1.54a2.272,2.272,0,0,0,1.8,1.461,3.184,3.184,0,0,0,.434,0,1.6,1.6,0,0,0,.375-.079,1.512,1.512,0,0,0,.711.059,2.6,2.6,0,0,0,2.231-1.639,2.309,2.309,0,0,0,.257-1.56,2.488,2.488,0,0,0,.079-.553,5.792,5.792,0,0,0-.651-2.211,9.75,9.75,0,0,1-1.007-3.613,1.7,1.7,0,0,1,.02-.316c.138-.612.691-2.724,1.342-3.08-.217.3-.276.592.138,1.066.039.039.059.079.1.1l.612-.553c.494-.494.987-.888,1.5-1.362ZM39.586,78.2s-.158.02-.276-.3V77.67a1.1,1.1,0,0,1,.079-.454c0,.02.059.316.059.336a.218.218,0,0,0,.059.178,1.132,1.132,0,0,1,.1.474Z" transform="translate(-4.594 -62.884)" fill="#fff"/>
          <path id="パス_5610" data-name="パス 5610" d="M64.286,82.78a3.394,3.394,0,0,0-2.014.355,2.12,2.12,0,0,0-.612,1.323c.059.513-.513.948-2.626,1.8-1.007.395-1.342-.118-1.6-.948-.612-2.152-.415-2.25-2.112-3.85-.967-.888-1.283-1.2-.711-1.461a.279.279,0,0,1,.178-.02,5.274,5.274,0,0,0,3.2-.928.63.63,0,0,0,.138-.118l.592-.474h0c3-2.606,1.027-3.83,1.3-7.028,0-.178.217-.276.237-.553l.158-.809a2.385,2.385,0,0,0-.138-1.224c-1.224-3.06-3.948-3.81-6.929-3.751-2.784.079-4.165.336-6.337,2.941v.02a8.858,8.858,0,0,0-1.56,4.383,13.977,13.977,0,0,0,.138,1.8v.02a.991.991,0,0,1,.039.237v.02a4.877,4.877,0,0,0,.928,2.329,2.458,2.458,0,0,0,.375.415,16.708,16.708,0,0,0,2.191,1.994,6.481,6.481,0,0,0,1.165.592.357.357,0,0,1-.039.671c-3.277.79-9.476,2.428-9.871,4.777-.375,2.172-3.534,1.244-2.9,5.646.178,1.165,1.224,1.046,2.172.572,2.152-1.046,1.283-1.184,1.263-2.626-.079-2.626,3.672-4.264,6.159-4.758a.358.358,0,0,1,.395.494c-.533,1.145.276,4.363-1.757,6.909-2.685,3.415-6.2,2.685-5.31,3.178,1.106.612,3.534,3.909.612,4.225-2.053.217-1.619-2.922-2.764-3.494-.75-.375-2.724,2.152-2.961,3.751a4.049,4.049,0,0,0,.2,2.547c.039.079.316.474.415.494.829.2,1.421-1.263,1.757-2.369a.356.356,0,0,1,.651-.059c1.165,2.152,2.784,3.751,4.876.928.533-.711,2.408-1.619,3.257-.967,1.7,1.342,6.613,2.033,8.686.415a.353.353,0,0,1,.533.118c.276.513.77,1.481,1.3,2.507.809,1.52.079,3.553,1.007,4.126a5.466,5.466,0,0,0,3.4-.612c5.251-2.882,1.125-4.4-1.125-3.04a.348.348,0,0,1-.533-.316,15.426,15.426,0,0,0-.1-3.435c-.316-1.441-2.152-2.487-1.382-2.784s1.717-1.046.987-1.3c-.711-.237-4.363-2.527-4.56-4.422a8.42,8.42,0,0,1,1.007-3.948.346.346,0,0,1,.573-.079c2.211,2.349,4.027,2.211,5.9-.73a.414.414,0,0,1,.217-.158,3.222,3.222,0,0,0,2.25-1.639c.336-.73.237-1.461-.3-1.7Z" transform="translate(-7.539 -62.683)" fill="#fff" fill-rule="evenodd"/>
          <path id="パス_5611" data-name="パス 5611" d="M42.476,94.884c3.04,2.073,2.468,6.337,2.9,9.969.039.316,1.342-.77,3.3.494,1.2.79-7.344,3.79-7.048,1.7.592-4.086-.573-9.575-5.152-11.075a.158.158,0,0,0-.217.118,6.6,6.6,0,0,1-8.923,4.8c-1.9-.711-3.04-2.9-3.534-2.784a7.161,7.161,0,0,0-1.3,2.448c-.178.77-1.441,1.6-1.3-1.323a11.368,11.368,0,0,1,1.441-5.074c1.717-2.389,1.954.375,3.04,2.014.73,1.105,2.764,1.954,3.889,1.52a5.446,5.446,0,0,0,2.961-3.474c0-.691-.316-1.5.908-4.086.849-1.757.632-3.435,1.007-3.929a.171.171,0,0,0-.158-.276c-1.086.178-3.988.73-4.995,1.658-1.283,1.145-.869.573-1.619.276-1.382-.553-.967,3.889-3.593,1.54-1.994-1.8.632-3.81,1.875-3.79a2.511,2.511,0,0,0,1.816-.849c1.52-2.606,6.692-1.994,9.081-2.961a5.3,5.3,0,0,0,1.52-1.027.177.177,0,0,0-.02-.276c-.079-.059-.158-.1-.217-.138a.1.1,0,0,1-.059-.02c-2.093-.513-2.27-.513-3.415-1.54-.138-.118-.217.928-.671.494a3.753,3.753,0,0,1-1.323-2.7,13.651,13.651,0,0,1,.118-6.041,8.8,8.8,0,0,1,6.791-5.922.178.178,0,0,1,.2.237c0,.039-.02.059-.02.1a.166.166,0,0,0,.276.158,4.12,4.12,0,0,1,2.784-1.244c.158,0,.158.454.059.572a.7.7,0,0,0-.158.592c.02.178.2.079.336-.039.355-.316,1.066-.1,1.8-.217.3-.039.217.2.1.3h0c-.118.1-.178.217-.039.237,2.428.217.375,2.231,4.284,1.9,1.2-.1.987,1.9-1.046,3.08-.059.039-.1.059-.118.118-.651,2.191.474,4.659-.1,6.594-.908,3.1-3.711,3.711-6.258,3.81a.17.17,0,0,0-.079.316c2.408,1.342,1.184,3.317,3.771,5.8a13.944,13.944,0,0,0,3.672,2.428c.967.494.553,1.263,1.086.77,3.85-3.455,4.738,4.047,1.342,2.507-.553-.257-1.125-.572-1.6-.415-2.586.888-2.251.948-5.231-.869a5.48,5.48,0,0,1-2.053-2.27c-.375-1.954-1.6,3.771-.118,5.745h0Z" transform="translate(-21.185 -63.87)" fill="#fff" fill-rule="evenodd"/>
        </g>
      </g>
      <g id="グループ_896" data-name="グループ 896" transform="translate(82.812 5.219)">
        <g id="グループ_893" data-name="グループ 893" transform="translate(22.513)">
          <path id="パス_5612" data-name="パス 5612" d="M72.787,64.348a2.855,2.855,0,0,0-.02,1.007c.039.059.178.474.217.592a3.334,3.334,0,0,0,.651.967,3.785,3.785,0,0,0,.434.355h.039l.079.079a.939.939,0,0,1,.276.1,1.48,1.48,0,0,0,.316.079c.257.039.434.02.711.039.039-.039.039-.02.1-.039a.593.593,0,0,0,.3-.138c.118-.118.118-.079.2-.276.217-.474-.118-.434-.217-.592a2.489,2.489,0,0,1-.138-.316,2.666,2.666,0,0,0-.395-.533l-.237-.237c-.059-.039-.059-.059-.118-.1-.039-.039-.079-.059-.118-.1a4.86,4.86,0,0,0-1.046-.79,2.208,2.208,0,0,0-.375-.059c-.1-.039-.079-.158-.3-.158a.746.746,0,0,0-.336.118h0Z" transform="translate(-72.733 -60.191)" fill="#fff" fill-rule="evenodd"/>
          <path id="パス_5613" data-name="パス 5613" d="M72.91,65.007s.039.079.079.178c.039.079.059.079.138.118.1.059.355.434.711.2.276-.178.138-.138.3-.237.316-.2.395-.2.592-.454.415-.513.276-.553.612-.967.079-.1.138-.257.217-.316.059-.039.118-.039.178-.079a.475.475,0,0,0,.118-.158c.237-.257.276-.474.632-.276.138.079.474.355.73.059a.482.482,0,0,0,.138-.395V62.5a3.957,3.957,0,0,0-1.6,0A4.4,4.4,0,0,0,73.8,63.626c-.039.039-.059.079-.1.118a4.513,4.513,0,0,0-.632.928c-.059.118-.079.217-.138.316h0Z" transform="translate(-72.56 -61.955)" fill="#fff" fill-rule="evenodd"/>
          <path id="パス_5614" data-name="パス 5614" d="M77.607,67.726a3.365,3.365,0,0,1-1.737-.316c-.3-.118-.75-.355-1.046-.513a1.5,1.5,0,0,0-.355-.178c-.059,0,0,0-.059-.02l-.039-.039a.154.154,0,0,1,.1.039,1.77,1.77,0,0,0,.908,0h0c-.257-.02-.434,0-.691-.039a1.479,1.479,0,0,1-.316-.079,2.4,2.4,0,0,0-.276-.1s-.059.059-.059,0h-.039a2.643,2.643,0,0,1-.711-.592,1.7,1.7,0,0,1-.276-.355,4.438,4.438,0,0,0-.217-.434,3.552,3.552,0,0,0,.651,1.342,3.632,3.632,0,0,0,.948,1.027,3.958,3.958,0,0,0,1.5.494,3.562,3.562,0,0,0,1.718-.158h0Z" transform="translate(-72.676 -59.343)" fill="#fff" fill-rule="evenodd"/>
          <path id="パス_5615" data-name="パス 5615" d="M72.77,65.315s.257-.533.3-.612a4.226,4.226,0,0,1,2.586-2.093,4.359,4.359,0,0,1,1.678-.079c-.079-.2-.474-.3-.671-.316a3.413,3.413,0,0,0-2.843,1.125,4.236,4.236,0,0,0-.454.553,4.4,4.4,0,0,0-.592,1.421h0Z" transform="translate(-72.696 -62.184)" fill="#fff" fill-rule="evenodd"/>
          <path id="パス_5616" data-name="パス 5616" d="M76.028,62.908h0a.341.341,0,0,0-.059-.079.207.207,0,0,0-.079-.059q0,.03.059.059c.039.039.039,0,.079.059h0Z" transform="translate(-69.657 -61.613)" fill="#fff" fill-rule="evenodd"/>
          <path id="パス_5617" data-name="パス 5617" d="M76.6,62.758c-.059.118-.178.2-.237.316-.178.237-.138.355-.375.513a1.127,1.127,0,0,0-.158.138c-.237.257-.039.1-.355.237a2.463,2.463,0,0,0-.809.632,1.835,1.835,0,0,0-.2.1c-.059.059-.059.1-.118.178s-.1.059-.138.158a1.421,1.421,0,0,0,.118.948c.079.138.138.237.217.375.079.158.158.178.316.276.454.276.494.079.691-.257.059-.1.079-.079.158-.138.178-.138.3-.434.375-.494a.939.939,0,0,0,.395.217c0,.138-.118.316-.178.711a6.093,6.093,0,0,0,0,.849c-.355-.039-.494-.138-.75.336-.039.079-.158.158-.257.3a1.316,1.316,0,0,0-.178.415c-.178.829.474,1.184,1.184.829a4.862,4.862,0,0,0,.533-.336c.237-.217.217-.257.533-.355.178-.039.237-.158.415-.158a.871.871,0,0,0,.75-.415,2.134,2.134,0,0,0,.217-.355c.059-.118.1-.355.178-.415a2.709,2.709,0,0,0,.2-1.283,5.119,5.119,0,0,0-.711-2.231,3.365,3.365,0,0,0-.671-.79c-.059-.039-.039-.039-.079-.059s-.039-.039-.059-.059l-.257-.158s-.178-.1-.276-.138c-.079.02-.138.039-.217.059s-.138.059-.217.079h0Z" transform="translate(-71.335 -61.74)" fill="#fff" fill-rule="evenodd"/>
        </g>
        <g id="グループ_895" data-name="グループ 895" transform="translate(0 6.854)">
          <g id="グループ_894" data-name="グループ 894" transform="translate(78.929 3.187)">
            <path id="パス_5618" data-name="パス 5618" d="M104.942,67.31h0a3.665,3.665,0,0,1,3.672,3.672v17.53a11.768,11.768,0,0,0,.849,5.192q1.3,2.9,5.685,2.9c2.922,0,4.8-.967,5.666-2.9a12.063,12.063,0,0,0,.849-5.192V70.982a3.665,3.665,0,0,1,3.672-3.672h0a3.665,3.665,0,0,1,3.672,3.672v17.55c0,3.672-.572,6.534-1.7,8.568q-3.168,5.626-12.141,5.626T103.008,97.1c-1.145-2.053-1.7-4.9-1.7-8.568V70.982a3.665,3.665,0,0,1,3.672-3.672Z" transform="translate(-101.31 -67.231)" fill="#fff"/>
            <path id="パス_5619" data-name="パス 5619" d="M141.444,87.13c-2.053,1.717-4.975,2.566-8.785,2.566h-3.652a3.623,3.623,0,0,0-3.632,3.632v5.31a3.623,3.623,0,0,1-3.632,3.632h0a3.623,3.623,0,0,1-3.632-3.632V70.9a3.623,3.623,0,0,1,3.632-3.632h11.391a12.186,12.186,0,0,1,8.291,2.7c2.053,1.8,3.1,4.6,3.1,8.39q0,6.189-3.08,8.765Zm-5.587-12.615a5.935,5.935,0,0,0-3.889-1.165h-2.961a3.623,3.623,0,0,0-3.632,3.632v3.04a3.623,3.623,0,0,0,3.632,3.632h2.961a5.524,5.524,0,0,0,3.889-1.263,5.117,5.117,0,0,0,1.382-3.988A4.8,4.8,0,0,0,135.857,74.515Z" transform="translate(-84.945 -67.27)" fill="#fff"/>
          </g>
          <path id="パス_5620" data-name="パス 5620" d="M73.887,73.765A129.147,129.147,0,0,0,65.3,86.853l-.928,1.8-.1.138.039.454a1.767,1.767,0,0,1,.454.039c.336.039.79.079,1.382.138.513.059.849.1,1.007.1,1.165.217,2.329.474,3.514.809,1.184.316,2.112.592,2.823.829s1.737.592,3.119,1.105,2.369.849,2.981,1.027a1.24,1.24,0,0,1,.671.592,1.028,1.028,0,0,1,.039.869,1.082,1.082,0,0,1-.572.671,1.107,1.107,0,0,1-.869.059l-3.04-1.106-3.04-1.066C72.11,93.072,71.2,92.8,70.1,92.5c-1.125-.3-2.231-.533-3.336-.711a4.989,4.989,0,0,0-.829-.1c-.612-.059-1.086-.1-1.421-.138l-.138-.039c.217,4.343.355,7.521.415,9.515a1.213,1.213,0,0,1-.316.829,1.042,1.042,0,0,1-.79.375,1.179,1.179,0,0,1-.829-.316,1.042,1.042,0,0,1-.375-.79c-.059-1.935-.217-5.31-.454-10.147a1.836,1.836,0,0,1-.454-.415,1.082,1.082,0,0,1-.237-.79.672.672,0,0,1,.039-.276,1.432,1.432,0,0,0,.1-.237c.039-.118.1-.276.178-.454l.276-.553q-.148-3.02-.237-5.33c-.039-1.125,0-3.751.1-7.857a55.141,55.141,0,0,0-.237-7.62,1.12,1.12,0,0,1,.257-.849,1.031,1.031,0,0,1,.75-.434,1.145,1.145,0,0,1,.849.257,1.031,1.031,0,0,1,.434.75,57.386,57.386,0,0,1,.237,7.956c-.1,4.047-.118,6.613-.1,7.719l.039,1.421q2.724-4.679,7.956-11.9a1.089,1.089,0,0,1,.73-.434,1.19,1.19,0,0,1,.849.2,1.045,1.045,0,0,1,.454.73,1.241,1.241,0,0,1-.2.869Z" transform="translate(-61.329 -65.169)" fill="#fff"/>
          <path id="パス_5621" data-name="パス 5621" d="M76.464,68.881q1.1,11.934,1.106,31.941a1.152,1.152,0,0,1-.336.809,1.074,1.074,0,0,1-.809.336,1.152,1.152,0,0,1-.809-.336,1.074,1.074,0,0,1-.336-.809q0-20.047-1.105-31.744a1.1,1.1,0,0,1,.257-.829,1.153,1.153,0,0,1,.79-.415,1.1,1.1,0,0,1,.849.257,1.2,1.2,0,0,1,.415.809Z" transform="translate(-48.823 -63.542)" fill="#fff"/>
          <path id="パス_5622" data-name="パス 5622" d="M93.387,66.632q.148,1.569.178,3.2c.039,1.086.039,2.408,0,3.948s-.039,2.566-.039,3.06c0,2.843-.079,10.66-.257,16.385-.178,5.705-.257,6.455-.257,9.3a1.152,1.152,0,0,1-.336.809,1.074,1.074,0,0,1-.809.336,1.152,1.152,0,0,1-.809-.336,1.074,1.074,0,0,1-.336-.809c0-1.9.039-.494.1-2.843a9.607,9.607,0,0,1-6.337.237,8.787,8.787,0,0,1-3.79-2.053,6.972,6.972,0,0,1-1.994-3.08,8.69,8.69,0,0,1-.316-3.415,8.192,8.192,0,0,1,1.007-3.218,7.029,7.029,0,0,1,2.27-2.487A5.864,5.864,0,0,1,84.9,84.655c2.093-.059,4.165.849,6.258,2.764.059-2.626.1-8.508.1-10.562,0-.573,0-1.619.039-3.119s.039-2.764.02-3.81a23.869,23.869,0,0,0-.2-2.981,1.119,1.119,0,0,1,.257-.869,1.153,1.153,0,0,1,.79-.415,1.1,1.1,0,0,1,.849.257,1.152,1.152,0,0,1,.415.75ZM90.959,90.479c-2.112-2.428-4.126-3.593-6.021-3.534a4.082,4.082,0,0,0-3.593,2.349,5.86,5.86,0,0,0-.73,2.329,5.562,5.562,0,0,0,.257,2.428,5.414,5.414,0,0,0,1.461,2.191A6.254,6.254,0,0,0,85.115,97.7a6.722,6.722,0,0,0,5.606-.553.167.167,0,0,0,.138-.039c.039-.829.059-1.994.118-3.494.039-1.5.059-2.507.059-3.04l-.1-.1Z" transform="translate(-44.761 -65.656)" fill="#fff"/>
          <path id="パス_5623" data-name="パス 5623" d="M100.3,74.269a6.912,6.912,0,0,0-2.27-3.514,4.451,4.451,0,0,0-3.08-1.007,4.32,4.32,0,0,0-2.862,1.441A7.02,7.02,0,0,0,90.428,75.1a9.227,9.227,0,0,0,.178,4.777,15.374,15.374,0,0,0,1.224,2.29c.513.79,1.2,1.816,2.112,3.04s1.54,2.112,1.915,2.665a24.434,24.434,0,0,1,2.7,4.955,9.353,9.353,0,0,1,.553,4.817,5.436,5.436,0,0,1-2.843,4.047,4.162,4.162,0,0,1-5.824-1.145,11.678,11.678,0,0,1-2.014-5.37,1.129,1.129,0,0,1,.237-.849,1.045,1.045,0,0,1,.73-.454,1.19,1.19,0,0,1,.849.2,1.141,1.141,0,0,1,.474.73,10.075,10.075,0,0,0,1.56,4.363,2.048,2.048,0,0,0,1.145.869,2.42,2.42,0,0,0,1.737-.375,3.2,3.2,0,0,0,1.658-2.389,7.527,7.527,0,0,0-.474-3.79,23.668,23.668,0,0,0-2.369-4.343c-.276-.395-.888-1.244-1.836-2.527s-1.718-2.389-2.27-3.277a15.344,15.344,0,0,1-1.362-2.645,11.7,11.7,0,0,1-.375-5.982,9.466,9.466,0,0,1,2.349-5.172A6.407,6.407,0,0,1,94.811,67.4a6.613,6.613,0,0,1,4.58,1.441A9.417,9.417,0,0,1,102.53,73.5a1.193,1.193,0,0,1-.059.869,1.082,1.082,0,0,1-.671.572,1.1,1.1,0,0,1-.869-.039,1.176,1.176,0,0,1-.592-.671Z" transform="translate(-35.406 -63.975)" fill="#fff"/>
        </g>
      </g>
    </g>
  </g>
</svg>
