<?xml version="1.0" encoding="UTF-8"?>
<svg id="Layer_1" data-name="Layer 1" xmlns="http://www.w3.org/2000/svg" xmlns:xlink="http://www.w3.org/1999/xlink" viewBox="0 0 1919.1 150.3">
  <defs>
    <style>
      .cls-1 {
        fill: none;
      }

      .cls-2 {
        fill: #519768;
      }

      .cls-3 {
        clip-path: url(#clippath);
      }
    </style>
    <clipPath id="clippath">
      <rect class="cls-1" width="1919.1" height="150.3"/>
    </clipPath>
  </defs>
  <g class="cls-3">
    <path class="cls-2" d="M2652.34,496.54c-68.28.97-143.72,5.14-225.14,5.79-70.87.56-146.21,4.74-225.19,5.09-72.25.32-147.55-1.52-225.22-1.34-73.14.17-148.39,7.03-225.2,7.09-73.79.06-149.03-17.12-225.22-17.13-74.31-.02-149.54,17.54-225.22,17.46-74.77-.07-149.99-3.29-225.22-3.39-75.21-.11-150.42-6.07-225.21-6.2-75.66-.13-150.88-5.06-225.22-5.2-76.17-.14-151.42,11.83-225.24,11.72-76.79-.12-152.04-4.14-225.21-4.22-77.63-.08-152.92-11.85-225.21-11.86-78.92-.01-154.29,1.44-225.23,1.54-81.29.12-156.76,11.92-225.19,12.25-2.73-.09-9.32-3.45-9.87-7.27-.22-1.81,14.24-5.41,14.19-9.19-.61-33-2.02-106-1.79-179.7.23-71.55-2.18-143.67-2.56-179.94,0-3.39-6.07-6.4-6.06-9.05.38-15.8.98-14.58,6.66-14.51,18.63.04,99.92-3.46,225.04-3.46,64.29,0,140.15-3.53,225.03-3.53,69.44,0,144.92,3.93,225.04,3.92,71.63,0,146.98,4.33,225.03,4.32,72.92,0,148.2,1.43,225.04,1.43,73.82,0,149.07-5.98,225.03-5.99,74.56,0,149.8-4.85,225.05-4.86,75.25,0,150.5,4.37,225.06,4.37,75.97,0,151.23,8.72,225.06,8.72,76.84,0,152.13-1,225.05-1,78.06,0,153.41-7.15,225.05-7.15,80.12,0,155.61-7.83,225.05-7.81,84.89.01,160.76,6.67,225.05,6.7,125.28.05,206.89-7.54,225.32-7.43,1.71.6-6.82,11.19-6.69,21.28-.31,38.97,9.28,115.24,9.45,191.25.17,76.95,8.42,153.88,7.62,191.42-.05,1.96-8.86-4.1-8.92-4.1"/>
    <path class="cls-2" d="M83.89,52.94c-1.2-1.91-4.49-2.32-5.42-4.8-1.13-3.41,1.44-6.68,3.26-9.41,7.27-10.19,14.48-20.41,21.75-30.54,1.24-1.68,2.7-3.5,4.36-4.63,4.71-3.34,8.86,1.94,11.39,5.57,7.4,10.41,14.86,20.76,22.16,31.19,1.28,1.9,2.6,4.36,2.45,6.54-.04,2.99-3.69,4.02-5.27,5.65-1.51,1.91,1,4.49,2.13,6.16,3.43,4.44,6.87,8.87,10.3,13.31,1.8,2.39,3.64,4.69,4.17,7.35.84,4.11-3.24,5.5-6.55,5.88-5.35.6-4.54,2.98-1.99,6.54,3.52,4.76,7.11,9.47,10.65,14.21,6.01,7.56,4.95,12.86-5.7,12.86-28.25-.18-56.58.53-84.8-.27-8.39-1.27-6.05-7.45-2.2-12.35,3.5-4.7,7.04-9.36,10.53-14.03.91-1.3,2.17-2.95,2.28-4.45.09-2.24-2.97-2.25-4.84-2.66-1.27-.23-2.61-.54-3.68-1.2-3.64-2.17-1.82-6.53.44-9.56,3.96-5.32,8.12-10.51,12.14-15.76,1.06-1.59,3.12-3.62,2.47-5.56l-.02-.05Z"/>
    <path class="cls-2" d="M190.62,69.69c-.89-1.43-3.35-1.73-4.04-3.58-.84-2.55,1.07-4.99,2.43-7.02,5.42-7.61,10.81-15.24,16.24-22.79.93-1.25,2.01-2.61,3.26-3.46,3.52-2.49,6.61,1.45,8.5,4.16,5.52,7.77,11.09,15.49,16.54,23.28.95,1.42,1.94,3.25,1.82,4.88-.03,2.23-2.75,3-3.93,4.22-1.13,1.43.74,3.35,1.59,4.59,2.56,3.31,5.13,6.62,7.69,9.93,1.34,1.78,2.72,3.5,3.11,5.49.63,3.07-2.41,4.1-4.89,4.39-3.99.45-3.39,2.22-1.48,4.88,2.62,3.55,5.31,7.07,7.95,10.61,4.49,5.65,3.69,9.6-4.26,9.6-21.08-.14-42.23.39-63.29-.2-6.26-.94-4.51-5.56-1.64-9.22,2.61-3.51,5.26-6.98,7.86-10.47.68-.97,1.62-2.2,1.7-3.32.07-1.67-2.21-1.68-3.61-1.98-.95-.17-1.95-.4-2.75-.9-2.71-1.62-1.35-4.87.33-7.14,2.95-3.97,6.06-7.84,9.06-11.77.79-1.18,2.33-2.7,1.84-4.15l-.02-.03Z"/>
    <rect class="cls-1" width="1919.1" height="150.3"/>
    <path class="cls-2" d="M295.04,97.07c-3.19,2.78-6.12,5.34-9.05,7.9-1.92,1.68-3.82,3.39-5.75,5.05-.68.59-1.07,1.21-1.12,2.16-.1,1.91-1.34,3.02-3.08,2.96-1.62-.06-2.74-1.28-2.76-3.12-.02-2.2-.02-4.4.07-6.6.1-2.63,2.41-3.85,4.66-2.44.67.42,1.03.31,1.54-.14,5.55-4.9,11.12-9.78,16.7-14.66.64-.57.92-1.26,1.04-2.09.23-1.61.81-2.97,2.1-4.16,12.62-11.64,24.98-23.55,36.06-36.71,3.42-4.06,6.72-8.21,9.21-12.93.63-1.2,1.12-2.45,1.59-3.72.44-1.18,1.35-1.82,2.66-1.83,1.3-.01,2.3.57,2.71,1.76,2.76,8.01,8.23,14.26,13.52,20.57,10.11,12.05,21.21,23.17,32.62,33.99,1.15,1.09,1.57,2.41,1.74,3.86.12,1.01.52,1.77,1.26,2.45,5.38,4.87,10.75,9.75,16.09,14.66.63.58,1.03.61,1.78.16,2.09-1.26,4.39.03,4.46,2.5.06,2.3.03,4.61-.06,6.91-.07,1.73-1.26,2.88-2.83,2.9-1.68.02-2.91-1.1-2.99-2.89-.05-.92-.29-1.6-.98-2.22-4.72-4.26-9.4-8.55-14.11-12.82-.1-.09-.24-.14-.51-.29.8,4.39,1.58,8.65,2.36,12.91.46,2.51-.74,3.96-3.29,3.94-11.16-.1-22.32-.21-33.48-.31-.81,0-1.55,0-2.04-.88-4.64-8.3-9.26-16.6-12.68-25.5-.65-1.68-1.13-3.41-1.48-5.18-.26-1.33-1.09-2.16-2.47-2.21-1.38-.05-2.32.72-2.61,2.03-1.25,5.8-4.05,10.96-6.7,16.17-2.43,4.77-5.11,9.4-7.83,14.01-.53.89-1.13,1.24-2.16,1.23-11.26-.14-22.52-.22-33.78-.34-2.34-.03-3.54-1.56-3.08-3.87.86-4.26,1.73-8.51,2.68-13.17"/>
  </g>
</svg>