<?xml version="1.0" encoding="UTF-8"?>
<svg id="Layer_1" data-name="Layer 1" xmlns="http://www.w3.org/2000/svg" xmlns:xlink="http://www.w3.org/1999/xlink" viewBox="0 0 595.28 550.83">
  <defs>
    <style>
      .cls-1 {
        fill: none;
      }

      .cls-2 {
        fill: #e74e57;
      }

      .cls-3 {
        fill: #47353a;
      }

      .cls-3, .cls-4 {
        font-family: ShinMGoPro-Bold-83pv-RKSJ-H, 'A-OTF Shin Maru Go Pro';
        font-size: 12px;
        font-weight: 700;
      }

      .cls-5 {
        opacity: .1;
      }

      .cls-5, .cls-6 {
        isolation: isolate;
      }

      .cls-6 {
        opacity: .05;
      }

      .cls-4, .cls-7 {
        fill: #519868;
      }

      .cls-8 {
        fill: #f0b930;
      }

      .cls-9 {
        clip-path: url(#clippath-17);
      }

      .cls-10 {
        clip-path: url(#clippath-19);
      }

      .cls-11 {
        clip-path: url(#clippath-11);
      }

      .cls-12 {
        clip-path: url(#clippath-16);
      }

      .cls-13 {
        clip-path: url(#clippath-18);
      }

      .cls-14 {
        clip-path: url(#clippath-10);
      }

      .cls-15 {
        clip-path: url(#clippath-26);
      }

      .cls-16 {
        clip-path: url(#clippath-20);
      }

      .cls-17 {
        clip-path: url(#clippath-21);
      }

      .cls-18 {
        clip-path: url(#clippath-22);
      }

      .cls-19 {
        clip-path: url(#clippath-23);
      }

      .cls-20 {
        clip-path: url(#clippath-24);
      }

      .cls-21 {
        clip-path: url(#clippath-25);
      }

      .cls-22 {
        clip-path: url(#clippath-1);
      }

      .cls-23 {
        clip-path: url(#clippath-3);
      }

      .cls-24 {
        clip-path: url(#clippath-4);
      }

      .cls-25 {
        clip-path: url(#clippath-2);
      }

      .cls-26 {
        clip-path: url(#clippath-7);
      }

      .cls-27 {
        clip-path: url(#clippath-6);
      }

      .cls-28 {
        clip-path: url(#clippath-9);
      }

      .cls-29 {
        clip-path: url(#clippath-8);
      }

      .cls-30 {
        clip-path: url(#clippath-5);
      }

      .cls-31 {
        fill: #533d7d;
      }

      .cls-32 {
        fill: #fcf3e5;
      }

      .cls-33 {
        clip-path: url(#clippath);
      }

      .cls-34 {
        fill: #fdb719;
      }
    </style>
    <clipPath id="clippath">
      <rect class="cls-1" x="0" y="-198.1" width="595.28" height="841.89"/>
    </clipPath>
    <clipPath id="clippath-1">
      <rect class="cls-1" x="524" y="243.79" width="94" height="94"/>
    </clipPath>
    <clipPath id="clippath-2">
      <rect class="cls-1" x="524.2" y="244.29" width="71.8" height="93.32"/>
    </clipPath>
    <clipPath id="clippath-3">
      <rect class="cls-1" x="0" y="-198.1" width="595.28" height="841.89"/>
    </clipPath>
    <clipPath id="clippath-4">
      <rect class="cls-1" x="111" y="288.79" width="30" height="30"/>
    </clipPath>
    <clipPath id="clippath-5">
      <rect class="cls-1" x="111.35" y="289.48" width="28.83" height="29.2"/>
    </clipPath>
    <clipPath id="clippath-6">
      <rect class="cls-1" x="0" y="-198.1" width="595.28" height="841.89"/>
    </clipPath>
    <clipPath id="clippath-7">
      <rect class="cls-1" x="-26" y="265.79" width="100" height="141"/>
    </clipPath>
    <clipPath id="clippath-8">
      <rect class="cls-1" x="0" y="266.76" width="73.39" height="139.54"/>
    </clipPath>
    <clipPath id="clippath-9">
      <rect class="cls-1" x="0" y="-198.1" width="595.28" height="841.89"/>
    </clipPath>
    <clipPath id="clippath-10">
      <rect class="cls-1" x="460" y="47.79" width="81" height="99"/>
    </clipPath>
    <clipPath id="clippath-11">
      <rect class="cls-1" x="460.84" y="48.49" width="79.71" height="97.35"/>
    </clipPath>
    <clipPath id="clippath-16">
      <rect class="cls-1" x="0" y="-198.1" width="595.28" height="841.89"/>
    </clipPath>
    <clipPath id="clippath-17">
      <rect class="cls-1" x="475" y="323.79" width="25" height="26"/>
    </clipPath>
    <clipPath id="clippath-18">
      <rect class="cls-1" x="475.07" y="324.1" width="24.8" height="24.8"/>
    </clipPath>
    <clipPath id="clippath-19">
      <rect class="cls-1" x="517" y="433.79" width="79" height="80"/>
    </clipPath>
    <clipPath id="clippath-20">
      <rect class="cls-1" x="517.31" y="434.75" width="78.22" height="78.14"/>
    </clipPath>
    <clipPath id="clippath-21">
      <rect class="cls-1" x="0" y="-198.1" width="595.28" height="841.89"/>
    </clipPath>
    <clipPath id="clippath-22">
      <rect class="cls-1" x="-16" y="24.79" width="100" height="102"/>
    </clipPath>
    <clipPath id="clippath-23">
      <rect class="cls-1" x="0" y="20.52" width="83.76" height="105.29"/>
    </clipPath>
    <clipPath id="clippath-24">
      <rect class="cls-1" x="0" y="-198.1" width="595.28" height="841.89"/>
    </clipPath>
    <clipPath id="clippath-25">
      <rect class="cls-1" x="543" y="47.79" width="28" height="29"/>
    </clipPath>
    <clipPath id="clippath-26">
      <rect class="cls-1" x="543.54" y="48.49" width="27.36" height="27.34"/>
    </clipPath>
  </defs>
  <rect class="cls-32" width="595.28" height="550.83"/>
  <rect class="cls-1" x="0" y="-198.1" width="595.28" height="841.89"/>
  <g class="cls-33">
    <g class="cls-5">
      <g class="cls-22">
        <g class="cls-25">
          <path class="cls-2" d="M570.97,244.29c41.17.21,61.93,49.41,33.51,79.05-9.49,9.94-23.54,15.28-37.29,14.1-25.15-1.61-45.22-25.17-42.78-50.29,1.63-23.79,22.62-43.18,46.49-42.86h.08ZM608.05,290.94c-.16-32.72-39.28-49.35-62.89-26.7-8.99,8.53-13.18,21.75-10.67,33.92,3.51,19.05,22.86,32.71,41.99,29.5,17.83-2.53,31.76-18.64,31.57-36.65v-.07Z"/>
          <path class="cls-2" d="M593.59,268.38c1.98,2.32-1.51,9-2.58,11.79-2.83,6.33-5.12,13.2-9.54,18.33-3.68,4.39-8.79,7.14-14.01,9.36-4.56,1.88-10.34,4.69-14.63,5.89-4.41,1.21-5.98-.38-4.76-4.79,1.22-4.31,4.03-10.08,5.92-14.64,2.22-5.2,4.98-10.27,9.36-13.93,5.16-4.43,12.09-6.72,18.45-9.55,2.79-1.07,9.52-4.56,11.77-2.48l.02.02ZM570.9,286.4c-3.42-.05-5.66,3.9-3.87,6.81,1.71,3.03,6.35,2.91,7.9-.21,1.58-2.87-.69-6.63-3.96-6.6h-.07Z"/>
        </g>
      </g>
    </g>
  </g>
  <g class="cls-23">
    <g class="cls-6">
      <g class="cls-24">
        <g class="cls-30">
          <path class="cls-31" d="M116.22,289.72c-3.18,1.48-3.43,11.12-4.11,15.18-.24,3.43-2.07,12.16,1,13.54,3.23,1.33,10.99-3.15,15.21-4.89,3.1-1.59,10.38-4.3,11.7-7.3,1.36-3.23-6.27-7.4-8.93-9.38-3.58-2.16-11.64-8.67-14.83-7.16l-.04.02Z"/>
        </g>
      </g>
    </g>
  </g>
  <g class="cls-27">
    <g class="cls-5">
      <g class="cls-26">
        <g class="cls-29">
          <path class="cls-2" d="M40.34,350.92c-.74-1.21-.13-2.88.03-4.23.47-2.78,1.2-6.13-.17-8.7-2.37-3.15-6.33,2.4-7.95-3.7-.45-1.45-.76-3.14-1.14-4.66-1.06-4.53-3.23-8.59-6.13-12.23-2.29-2.86-5.45-5.85-8.44-2.03-.92,1.11-1.74,2.51-2.46,3.81-1.85,3.4-3.88,6.77-4.68,10.49-.78,2.57-.24,8.51-2.67,9.72-1.59.6-3.58-.37-5.23-.23-3.42.34-1.81,5.82-1.17,8.02.9,3.4,4.55,7.75,3.41,10.04-1.08,1.38-3.47.79-5.5.34-4.3-1.16-8.23-3.65-11.49-6.76-11.01-10.15-14.17-25.95-10.26-40.22.8-2.97,4.58-16.87,8.84-11.01,1.71,2.61,2.68,6.55,4.27,9.51.7,1.31,3.36,6.35,4.95,4.38,1.22-2.68.49-6,.75-9.92.09-2.29.34-4.58.78-6.83,1.11-6.07,4.13-11.65,5.17-17.7.45-2.49.42-5.18.79-7.65,1.1-9.05,10.04-2.49,13.92.87,9.45,8.05,16.3,18.81,20.56,30.58.74,1.72,2.37,6.73,4.2,3.67.8-1.43,1.49-4.63,2.51-6.17,3.38-5.26,10.12,7.79,11.47,10.49,5.36,10.69,6.32,24.58-2.49,33.38-1.76,2.01-9.6,8.56-11.84,6.78l-.02-.03Z"/>
          <path class="cls-2" d="M-5.3,384.16c-.11-.37-.85-.64-1.89-.84-3.28-.78-7.44-.38-9.99-2.92-1.91-2.35-.69-6.54-.36-9.54.52-4.1,1.5-7.79,6.49-7.3,10.91,1.33,21.75,3.22,32.63,4.77,2.83.53,5.68.11,8.2-1.29,9.05-4.61,18.09-9.23,27.16-13.84,1.23-.61,2.56-1.26,3.87-1.57,4.66-1.2,6.35,4.38,8.1,7.57,1.42,2.83,2.95,6.03.63,8.33-2.14,2.08-5.18,3.14-7.72,4.58-3.09,1.58-.94,2.06.97,2.35,6.43,1,11.91.81,10.31,9.36-.63,3.15-.34,7.2-2.96,9.46-1.31.97-3.15.95-4.77.79-11.22-1.47-22.41-3.47-33.57-4.87-2.29-.21-4.5.45-6.52,1.51-8.7,4.42-17.39,8.86-26.1,13.28-1.61.8-3.4,1.73-5.14,2.13-4,1.1-5.66-3.43-7.18-6.25-1.23-2.56-3.29-5.93-2.18-8.42,1.7-3.15,5.74-4.11,8.59-5.87.93-.53,1.52-1.02,1.42-1.4v-.04Z"/>
        </g>
      </g>
    </g>
  </g>
  <g class="cls-28">
    <g class="cls-5">
      <g class="cls-14">
        <g class="cls-11">
          <path class="cls-7" d="M467.16,93.03c-1.41-1.06-3.92-.42-5.29-1.97-1.78-2.17-.84-5.27-.28-7.76,2.42-9.46,4.79-18.93,7.24-28.34.43-1.57.98-3.3,1.87-4.59,2.49-3.76,6.99-1.08,9.86.85,8.31,5.49,16.65,10.92,24.9,16.46,1.46,1.02,3.12,2.44,3.62,4.07.82,2.19-1.55,3.96-2.24,5.6-.56,1.82,1.99,2.98,3.28,3.88,3.74,2.26,7.49,4.52,11.24,6.79,1.98,1.23,3.97,2.38,5.1,4.18,1.77,2.76-.81,4.91-3.11,6.12-3.72,1.94-2.46,3.44.39,5.32,3.9,2.47,7.84,4.89,11.74,7.34,6.5,3.81,7.22,7.96-.53,10.96-20.6,7.81-41.01,16.3-61.77,23.65-6.46,1.44-6.5-3.72-5.08-8.37,1.22-4.4,2.49-8.79,3.71-13.17.3-1.2.75-2.75.41-3.88-.57-1.66-2.79-.8-4.27-.57-.99.19-2.05.34-3.02.16-3.26-.56-3.16-4.24-2.37-7.08,1.39-4.98,2.95-9.93,4.4-14.89.32-1.45,1.25-3.51.23-4.74l-.03-.03Z"/>
        </g>
      </g>
    </g>
  </g>
  <g class="cls-12">
    <g class="cls-6">
      <g class="cls-9">
        <g class="cls-13">
          <path class="cls-31" d="M487.47,348.91h0c-6.85,0-12.4-5.55-12.4-12.4s5.55-12.4,12.4-12.4,12.4,5.55,12.4,12.4-5.55,12.4-12.4,12.4"/>
        </g>
      </g>
    </g>
  </g>
  <g class="cls-6">
    <g class="cls-10">
      <g class="cls-16">
        <path class="cls-31" d="M557.22,512.88c-11.19.11-21.73-4.59-29.26-12.8-19.6-20.46-10.96-55.88,16.03-65.01,4.27-1.21,5.9,1.15,3.43,4.82-1.87,2.74-3.65,5.56-4.68,8.7-7.73,22.81,12.14,45.02,35.67,39.85,3.15-.71,6.13-1.94,8.9-3.64,1.91-1.07,4.28-3.33,6.42-3.11,4.55,1.05-.87,10.15-2.29,12.46-7.32,11.6-20.43,19.04-34.17,18.73h-.06Z"/>
        <path class="cls-31" d="M566.7,475.09c-2.38-.18-3.24-2.73-4.56-4.49-.69-.98-1.53-1.84-2.5-2.55-2.17-1.53-6.49-3.48-3.9-6.6,1.32-1.48,3.41-2.22,4.84-3.62,1.61-1.38,2.49-3.59,3.88-5.08,1.85-1.99,3.99-1.06,5.33,1.02,1.18,1.84,2.36,3.77,4.23,5,1.72,1.28,4.32,2.17,4.47,4.56-.16,2.39-2.76,3.28-4.49,4.57-.98.69-1.85,1.53-2.56,2.49-1.32,1.67-2.31,4.55-4.71,4.69h-.05Z"/>
        <path class="cls-31" d="M592.55,444.86c-.16,1.91-2.63,2.63-3.69,4.03-1.13,1.19-2.03,3.37-3.83,3-1.12-.23-1.94-1.67-2.78-2.65-.78-.98-1.84-1.68-2.79-2.48-1.51-1.16-1.49-2.74.04-3.87.97-.78,2.02-1.49,2.8-2.48.93-1.09,1.74-2.7,3.13-2.69,1.73.11,2.42,2.15,3.55,3.21,1.09,1.32,3.49,2.14,3.56,3.89v.04Z"/>
      </g>
    </g>
  </g>
  <text class="cls-3" transform="translate(168.45 392.29)"><tspan x="0" y="0"> </tspan></text>
  <text class="cls-4" transform="translate(438.55 392.29)"><tspan x="0" y="0"> </tspan></text>
  <text class="cls-4" transform="translate(450.35 392.29)"><tspan x="0" y="0"> </tspan></text>
  <path class="cls-32" d="M87.14,125.55c-.15-.24-.36-.42-.59-.58l-.8,3.79c.27-.05.54-.15.77-.3.47-.31.8-.79.91-1.33.11-.53,0-1.11-.3-1.58"/>
  <path class="cls-32" d="M159.92,140.38c-.32.04-.62.14-.89.32-.46.3-.8.79-.91,1.32-.12.55,0,1.12.3,1.59.18.27.42.48.69.64l.82-3.88Z"/>
  <g class="cls-17">
    <g class="cls-5">
      <g class="cls-18">
        <g class="cls-19">
          <path class="cls-8" d="M59.68,56.69c1.42,8.48,22.59,8.05,24.08-.41.15-5.54-7.42-7.08-12.12-6.98h-.12c-4.71.16-11.95,2.03-11.84,7.39"/>
          <path class="cls-8" d="M-15.64,43.63v28.37c3.19,7.06,8.99,13.27,17.66,17.2,9.47,4.12,20.77,3.6,29.83-1.34,23.9-13.43,22.37-43.85,4.46-57.53l-6.85,4.55-7.9-9.19-10.16,6.61-6.13-7.27c-10.04,3.07-17.18,10.12-20.91,18.6"/>
          <path class="cls-8" d="M14.42,102.54c-3.16,2.35-4.11,7.17-4.04,11.29v.12c.15,4.72,2.02,11.96,7.38,11.86,8.11-1.58,7.77-19.32,1.61-23.33-1.55-1.03-3.38-1.05-4.94.05"/>
          <path class="cls-8" d="M45.69,92.2c.19,6.18,5.76,11.92,11.39,13.86,8.59,2.82,12.61-4.72,8.08-11.86-2.61-4.48-8.59-8.83-13.67-8.36h-.1c-3.38.23-5.81,3.03-5.7,6.36"/>
        </g>
      </g>
    </g>
  </g>
  <g class="cls-20">
    <g class="cls-5">
      <g class="cls-21">
        <g class="cls-15">
          <path class="cls-34" d="M565.55,70.53c-2.83,2.61-5.79,5.98-9.45,5.18-3.09-.84-6.43-4.4-8.83-6.9-1.95-2.26-4.2-4.57-3.65-7.6.95-3.72,5.59-7.8,8.48-10.33,4.93-4.24,7.89-2.28,12.19,1.71,2.42,2.37,5.9,5.66,6.55,8.7.57,3.55-2.69,6.44-5.23,9.2l-.05.04Z"/>
        </g>
      </g>
    </g>
  </g>
</svg>