<?xml version="1.0" encoding="UTF-8"?>
<svg id="Layer_1" data-name="Layer 1" xmlns="http://www.w3.org/2000/svg" viewBox="0 0 295.88 220.98">
  <defs>
    <style>
      .cls-1 {
        fill: #553b7d;
      }

      .cls-2 {
        fill: #e74e57;
      }

      .cls-3 {
        fill: #f0b930;
      }

      .cls-4 {
        fill: #519868;
      }

      .cls-5, .cls-6 {
        fill: #ec8123;
      }

      .cls-6 {
        fill-rule: evenodd;
      }

      .cls-7 {
        fill: #533d7d;
      }

      .cls-8 {
        fill: #fdb719;
      }
    </style>
  </defs>
  <path class="cls-2" d="M157.13,130.14c1.74-3.12,3.95-5.63,7.09-7.18,4.77-2.36,9.76-.75,12.43,4.02.55.98.95,2.05,1.5,3.24,1.08-1.82,2.02-3.7,3.66-4.98,5.77-4.5,13.79-4.25,18.03,5.06,1.38,3.03,1.84,6.22,2.15,9.42.33,3.46.27,6.91.26,10.37-.03,7.65-.8,15.27.52,22.97.27,1.55.85,3.08,1.38,4.59.29.82.22,1.57-.2,2.15-1.56,2.19-3.78,3.28-6.63,3.03-2.53-.22-4.19-1.7-5.1-3.98-1.88-4.74-2.21-9.6-2.01-14.5.18-4.61.41-9.22.65-13.83.13-2.55.37-5.1.19-7.68-.12-1.79-.57-3.48-1.6-5.01-1.26-1.86-2.86-2.13-4.39-.63-2.07,2.04-2.7,4.78-3.1,7.55-1.08,7.33-.96,14.75-.77,22.18.05,1.84.14,3.77-1.99,4.54-2.78,1.01-5.68,1.53-8.41-.35-1.26-.87-1.29-2.4-1.3-3.78-.08-7.59-.16-15.18-.24-22.77-.02-2.08-.47-4.09-1.21-6.02-1.09-2.85-3.75-3.2-5.62-.76-1.82,2.37-2.53,5.22-3.04,8.07-1.47,8.26-1.2,16.6-.46,24.95.22,2.43-.48,3.73-2.78,4.64-1.31.52-2.71.79-4.1.73-3.28-.14-5.15-.89-5.42-4.41-.05-.62-.08-1.23-.08-1.85.06-10.55.11-21.11.2-31.66.03-3.08.22-6.16.31-9.24.03-1.14.47-2.06,1.46-2.62,2.2-1.25,4.54-1.28,6.8-.32,1.66.7,1.51,2.49,1.81,4.06"/>
  <path class="cls-2" d="M37.41,53.16c-10.56,5.04-17.45,15.78-16.46,26.38.68,7.2,5.01,11.81,11.36,14.7,4.35,1.98,8.89,3.7,13.34,5.64,2.41,1.05,4.6,2.44,6.03,4.68,2.07,3.25,1.11,6.88-2.49,9.28-2.54,1.7-5.3,2.23-8.11,2.1-2.36-.12-3.95-1.31-4.77-3.36-.33-.83-.71-1.65-.92-2.53-.56-2.42-2.23-3.31-4.76-3.23-5.02.15-8.43,3.52-8.26,8.29.22,6.2,3.71,10.14,9.35,12.14,8.37,2.96,16.99,1.41,25.03-3.68,6.85-4.32,10.05-10.68,9.5-18.07-.51-6.93-4.58-11.65-10.31-14.87-4.05-2.27-8.57-3.66-12.76-5.56-3.15-1.43-5.96-3.2-7.51-6.35-2.21-4.51-.49-10.23,4.29-13.17,5.24-3.22,9.18-2.99,10.97,2.55.33,1.02.69,2.04.93,3.1.36,1.61,1.44,2.41,3,2.65,1.75.28,3.52-.09,5.21-.93,3.47-1.72,4.95-5.61,4.03-9.95-2.26-10.54-12.17-14.42-20.37-12.01-2.01.24-4.17,1.17-6.31,2.18"/>
  <path class="cls-8" d="M117.99,60.04c-.78-2.12-2.12-3.19-4.4-3.14-3.95.09-6.07,2.37-5.89,6.31.41,9.37.53,18.57.76,27.93.1,4.04-.27,8.1-.17,12.19.1,3.86,2.09,5.14,5.84,5.06.29,0,.66-.02.97-.07,2.85-.41,4.62-1.95,4.92-4.83.17-1.68.1-3.25.05-4.85-.2-6.54-.31-12.91.46-19.43.31-2.58,1.06-5.07,2.6-7.23.81-1.14,2.13-1.55,3.46-1.36s1.82,1.05,2.22,2.18c.52,1.49.85,2.93.85,4.48.02,5.14.24,10.27.02,15.38-.12,2.61-.09,5.23.37,7.76.21,1.2.73,2.04,1.88,2.41,2.37.77,4.53.43,6.79-.48.8-.32,1.15-1,1.32-1.83.37-1.79.26-3.62.26-5.46,0-5.39,0-10.63,1.1-15.96.4-1.95,1.21-3.77,2.39-5.42.71-.99,1.67-1.82,2.9-1.72,1.23.09,1.52,1.2,1.81,2.13.28.93.33,1.71.32,2.64-.12,6.3-1.36,12.18-1.84,18.54-.32,4.16-.04,8.57,1.91,12.46,1.51,3.02,4.02,4.27,7.3,2.84,2.86-1.25,3.43-4.07,2.4-6.97-1.03-2.9-1.59-5.8-1.35-8.89.4-5.21,1.49-10.02,1.83-15.3.34-5.28.72-10.49-1.53-15.65-2.6-5.98-8.15-6.73-13.35-2.89-1.6,1.18-2.89,3.23-4.32,4.63-.9-2.42-1.26-5.17-2.88-7.28-1.89-2.48-3.98-3.4-7.23-2.81-4.89.88-8.46,3.84-11.04,8.08-.3-1.05-.39-2.46-.76-3.46"/>
  <path class="cls-7" d="M66.32,146.88c1.37-4.29,3.48-8.26,7.42-11.05,3.25-2.3,5.64-1.83,7.66,1.18,1.17,1.75,1.68,3.74,2.18,5.75.29,1.15.5,2.49,2.01,2.63,5.35.48,10.27-2.78,9.98-8.32-.61-11-10.86-20.64-25-14.01-9.29,4.33-14.51,12.07-17.4,21.14-2.61,8.19-2.67,16.32-1.05,24.37,1.32,6.58,3.96,12.38,9.26,16.94,8.07,6.95,21.67,7.64,30.62-.18,5.56-4.86,8.03-10.78,6.87-17.79-.52-3.16-2.78-5.11-5.92-5.18-3.41-.08-5.84,1.83-6.33,5.03-.29,1.87-.68,3.71-1.47,5.47-1.05,2.38-2.89,3.91-5.54,4.53-4.4,1.03-7.87-.29-10.54-3.97-2.46-3.4-3.52-7.27-3.85-11.41-.91-5.03-.52-10.08,1.1-15.12"/>
  <path class="cls-4" d="M171.05,55.44c-.44-.03-.88-.06-1.32-.06-2.47.01-3.58,1.08-3.78,3.63-.63,8.11-1.34,16.21-1.88,24.32-.36,5.36-1.03,10.7-.73,16.09.1,1.82.86,2.9,2.53,3.52,1.62.6,3.21.28,4.79.07,2.33-.32,3.32-1.51,3.47-3.93.33-5.32.46-10.65.98-15.95.44-4.61.63-9.34,2.81-13.57.68-1.32,1.37-3.02,3.09-2.65,1.64.36,1.9,2.16,2.1,3.68.55,4.15.17,8.27-.14,12.41-.37,4.85-1,9.71-.55,14.6.29,3.11,2.42,4.61,5.97,4.57,2.65-.03,4.18-1.59,4.45-4.58.55-6.24,1-12.49,1.67-18.71.34-3.2,1.03-6.37,2.64-9.16.58-1.01,1.27-2.13,2.59-1.92,1.39.22,1.62,1.6,1.89,2.76.58,2.55.66,5.14.64,7.73-.07,6.5-.92,12.95-.39,19.49.32,4.01.88,7.96,3.12,11.51,1.89,2.99,5.57,3.73,8.82,1.85,2.7-1.57,3.25-4.24,1.39-7.52-2.21-3.88-2.8-8.03-2.73-12.24.13-7.53.48-15.04.69-22.57.08-2.82-.39-5.61-1.31-8.29-2.53-7.33-9.64-9.37-14.99-4.43-1.83,1.69-2.96,3.95-4.57,5.97-1.42-4.16-3-8.11-7.59-8.7-4.48-.57-6.89,2.96-9.57,6.34-.58-3.57-1.09-4.06-4.06-4.24"/>
  <path class="cls-4" d="M245.76,132.38c-8.2-8.15-17.87-10.41-28.13-10.08-4,.13-6.81,6.26-4.96,10.15.21.45.6,1.06.97,1.15,1.76.43,1.45,1.6,1.36,2.81-.84,10.64-2.82,21.05-3.15,31.76-.6,5.91-1.24,11.8-1.81,17.71-.24,2.42,1.03,3.99,3.54,4.6.7.17,1.4.28,2.11.4,4.07.7,6.35-.9,6.68-4.9.4-4.74.65-9.52,1.01-14.27.21-2.82.26-2.81,3.18-2.49.69.08,1.39,0,2.08.04,12.11.62,23.38-6.96,23.19-21.36-.06-5.73-1.69-11.17-6.07-15.53M237.32,153.7c-3.05,3.22-7.04,3.98-11.5,3.59-.9-.08-1.05-.59-.98-1.32.15-1.62.3-3.25.38-4.07.44-5.7,1.59-10.43,1.77-15.36.03-.94.3-1.66,1.44-1.29,2.84.92,5.73,1.76,8.05,4,4.05,3.91,4.46,10.64.85,14.45"/>
  <path class="cls-2" d="M143.07,171.76c-.34-1.57-.91-3.07-1.17-4.67-1.52-9.32-3-18.62-4.62-27.88-.74-4.24-2.12-8.31-4.53-11.92-4.14-6.18-10.33-8.07-17.05-4.82-6.3,3.05-9.74,8.52-11.53,14.93-.72,2.57.3,3.81,2.98,4.44.89.21,1.84.29,2.77.33,2.89.11,3.45-.29,4.59-2.85.78-1.75,1.55-3.52,3.1-4.83,2.03-1.72,3.81-1.78,5.55.11,3.39,3.68,4.07,8.35,4.58,13.33-.6-.22-.9-.3-1.16-.44-4.37-2.22-8.73-2.09-13.15.21-9.4,4.91-13.59,16.72-9.12,26.53,2.78,6.11,10.23,9.22,17.02,7.12,4.53-1.4,7.54-4.53,10.31-8.25.27.63.49,1.13.71,1.63,1.87,4.38,1.95,4.03,6.99,3.06.18-.04.35-.15.53-.22,3.35-1.32,3.96-2.4,3.21-5.84M128.86,160.8c-.93,4.23-3.11,7.67-7.18,9.72-4.24,2.13-7.27-.15-8.12-4.28-.54-4.35,1.78-8.47,5.57-9.96,2.65-1.04,8.26.88,9.57,3.28.21.39.26.81.16,1.24"/>
  <path class="cls-3" d="M101.06,63.01c-.13-1.26-.32-2.66-1.64-3.14-2.32-.84-4.64-.46-6.79,1.02-1.82,1.25-1.96,3.11-1.79,5.06.59,6.54.68,13.14.46,19.76-.08,2.24-.34,4.54-1.36,6.65-.85,1.77-1.74,3.85-3.99,3.98-2.33.14-2.95-1.94-3.58-3.67-1.64-4.5-1.76-9.35-1.68-14.23.07-4.11.85-8.2,1.39-12.3.16-1.26.11-2.48-.86-3.3-1.93-1.64-4.23-1.52-6.62-.68-2.18.76-3.21,2.41-3.66,4.7-1.04,5.32-1.29,10.62-1.34,15.89-.07,6.66.4,13.18,3.44,19.01,5.09,9.78,18.15,10.6,25.72,1.58,3.54-4.23,4-9.11,3.74-14-.34-6.41-.5-12.83-.9-19.23-.17-2.37-.28-4.74-.52-7.09"/>
  <path class="cls-1" d="M242.87,97.39c-1.26-1.42-2.86-1.53-4.45-.38-1.22.89-2.47,1.97-4.06,2.32-2.31.51-4.24-.16-5.63-2.18-1.49-2.17-1.93-4.59-2.1-7.18-.06-1.01.41-1.36,1.43-1.4,1.71-.06,3.77.07,5.49-.06,6.12-.44,10.32-2.73,12.01-8.9,1.69-6.18.78-11.99-3.18-17.02-3.65-4.64-10.32-6.51-15.25-4.62-5.15,1.97-5.86,5.54-7.43,9.99-2.12,5.98-2.77,11.99-2.8,18.38,0,1.48-.07,3.21.18,4.78.62,3.85.98,7.73,3.22,11.18,5.99,9.24,15.63,11.94,23.53,3.54,3.01-3.19,1.38-5.82-.96-8.46M227.23,76.64c.63-2.44,1.26-4.99,2.56-7.32.63-1.13,1.5-2.15,3.03-2.02s2.7,1.24,3.43,2.58c.39.71.71,1.33.83,2.14.8,5.5-2.66,7.17-7.71,7.23-2.19.03-2.72-.39-2.14-2.62"/>
  <path class="cls-1" d="M261.79,61.74c-2.3-.94-4.6-1.16-6.68.2-.99.65-1.56,1.55-1.62,2.87-.26,5.03-.53,10.06-.84,15.07-.21,3.41-.37,6.83-.77,10.19-.94,8.03-.72,16.22-1.12,24.31-.08,1.55.57,3.12,2.21,3.64,1.71.54,3.49.89,5.23.57,2.37-.44,3.61-1.83,3.76-4.37.53-8.9.98-17.83,1.54-26.74.2-3.2.42-6.45,2.45-8.93,1.05-1.27,2.28-2.21,4.02-1.74,1.72.47,2.78,1.93,3.36,3.68.62,1.88.74,3.78.71,5.69-.07,3.29,1.21,4.57,4.3,4.42.62-.03,1.25-.16,1.81-.38,3.71-1.46,4.66-4.77,4.6-8.89-.13-8.02-5.43-14.56-12.74-15.63-2.65-.39-5.03.33-7.54,1.14-.07-2.3-.58-4.27-2.66-5.12"/>
  <path class="cls-7" d="M239.98,196.83c-2.62.03-5.08-1.07-6.84-2.99-4.58-4.78-2.56-13.05,3.74-15.19,1-.28,1.38.27.8,1.13-.44.64-.85,1.3-1.09,2.03-1.81,5.33,2.83,10.52,8.33,9.31.74-.17,1.43-.45,2.08-.85.45-.25,1-.78,1.5-.73,1.06.25-.2,2.37-.54,2.91-1.71,2.71-4.77,4.45-7.98,4.38h-.01Z"/>
  <path class="cls-7" d="M242.19,188.01c-.56-.04-.76-.64-1.06-1.05-.16-.23-.36-.43-.58-.6-.51-.36-1.52-.81-.91-1.54.31-.35.8-.52,1.13-.85.38-.32.58-.84.91-1.19.43-.46.93-.25,1.25.24.28.43.55.88.99,1.17.4.3,1.01.51,1.04,1.07-.04.56-.65.77-1.05,1.07-.23.16-.43.36-.6.58-.31.39-.54,1.06-1.1,1.1h-.01Z"/>
  <path class="cls-7" d="M248.23,180.94c-.04.45-.61.61-.86.94-.26.28-.47.79-.89.7-.26-.05-.45-.39-.65-.62-.18-.23-.43-.39-.65-.58-.35-.27-.35-.64,0-.9.23-.18.47-.35.65-.58.22-.26.41-.63.73-.63.4.03.57.5.83.75.25.31.82.5.83.91h0Z"/>
  <path class="cls-8" d="M32.83,148.07c6.6-1.09,10.21,7.2,4.94,11.3-1.52,1.15-3.57,1.56-5.41,1.06-6.51-1.85-6.18-10.99.46-12.35h.02Z"/>
  <path class="cls-8" d="M27.53,148.88c.08.62-.33,1.16-.94,1.27-1.12.2-2.36-.58-2.93-1.53-.85-1.46.38-2.49,1.86-1.93.91.31,1.91,1.23,2.01,2.17v.02Z"/>
  <path class="cls-8" d="M41.3,158.45c.92-.22,2.13.41,2.73,1.15,1.02,1.18.5,2.67-1.15,2.39-1.08-.2-2.26-1.1-2.46-2.22-.11-.61.26-1.18.87-1.32h.02Z"/>
  <path class="cls-8" d="M39.37,147.86c-.61.08-1.15-.33-1.26-.93-.21-1.12.58-2.37,1.53-2.94,1.47-.85,2.49.38,1.92,1.86-.31.9-1.23,1.91-2.17,2h-.02Z"/>
  <path class="cls-8" d="M29.81,161.62c.22.92-.41,2.13-1.16,2.73-1.18,1.02-2.67.49-2.39-1.16.2-1.08,1.1-2.26,2.22-2.46.61-.11,1.18.26,1.32.87v.02Z"/>
  <path class="cls-8" d="M34.56,164.7c-.12-.75-.08-1.66.43-2.17.25-.24.59-.29.9-.15,1.24.56,1.79,3.8.35,4.31-.98.16-1.52-1.11-1.67-1.96v-.02Z"/>
  <path class="cls-8" d="M43.98,151.23c.86-.15,2.28-.07,2.41.94-.04,1.59-3.9,2.24-4.39.74-.17-.98,1.1-1.52,1.96-1.67h.02Z"/>
  <path class="cls-8" d="M33.38,143.88c.12.75.09,1.66-.43,2.18-.26.24-.59.29-.9.15-1.24-.56-1.79-3.79-.35-4.31.98-.17,1.52,1.11,1.67,1.96v.02Z"/>
  <path class="cls-8" d="M23.96,157.35c-.86.15-2.29.08-2.41-.94.02-1.55,3.88-2.27,4.39-.73.15.97-1.1,1.51-1.96,1.67h-.02Z"/>
  <path class="cls-4" d="M5.05,176.29c-.15-.33-.67-.47-.76-.89-.1-.57.38-1.04.74-1.44,1.4-1.47,2.79-2.95,4.19-4.41.24-.24.51-.5.81-.65.83-.43,1.38.51,1.7,1.15.95,1.84,1.92,3.67,2.85,5.51.16.33.32.76.25,1.11-.07.48-.68.56-.97.79-.29.27.06.74.2,1.04.45.79.9,1.58,1.35,2.37.24.42.48.84.5,1.28.04.68-.64.81-1.18.8-.87-.02-.8.38-.47,1.01.46.84.93,1.68,1.39,2.52.79,1.35.51,2.18-1.21,1.94-4.53-.67-9.1-1.2-13.62-1.96-1.32-.39-.8-1.34-.07-2.04.67-.68,1.34-1.34,2.01-2.02.18-.19.41-.42.47-.66.07-.36-.43-.43-.72-.54-.2-.07-.41-.15-.57-.28-.53-.43-.14-1.09.29-1.53.76-.76,1.54-1.5,2.31-2.26.21-.23.58-.51.52-.84h0Z"/>
  <path class="cls-2" d="M40.84,185.28c9.62.05,14.48,11.55,7.83,18.48-2.22,2.32-5.5,3.57-8.72,3.3-5.88-.38-10.57-5.88-10-11.76.38-5.56,5.29-10.1,10.87-10.02h.02ZM49.51,196.19c-.04-7.65-9.18-11.54-14.7-6.24-2.1,1.99-3.08,5.08-2.49,7.93.82,4.45,5.34,7.65,9.82,6.9,4.17-.59,7.42-4.36,7.38-8.57v-.02Z"/>
  <path class="cls-2" d="M46.13,190.92c.46.54-.35,2.1-.6,2.76-.66,1.48-1.2,3.09-2.23,4.29-.86,1.03-2.06,1.67-3.28,2.19-1.07.44-2.42,1.1-3.42,1.38-1.03.28-1.4-.09-1.11-1.12.29-1.01.94-2.36,1.38-3.42.52-1.21,1.16-2.4,2.19-3.26,1.21-1.04,2.83-1.57,4.31-2.23.65-.25,2.22-1.07,2.75-.58h0ZM40.82,195.13c-.8-.01-1.32.91-.9,1.59.4.71,1.49.68,1.85-.05.37-.67-.16-1.55-.93-1.54h-.02Z"/>
  <path class="cls-8" d="M263.03,130c-.91.49-1.74.94-2.58,1.39-.55.3-1.09.6-1.64.89-.19.1-.32.23-.38.45-.13.45-.48.65-.89.54-.38-.1-.58-.45-.49-.89.11-.53.23-1.05.37-1.57.17-.62.78-.79,1.24-.33.14.14.23.13.38.05,1.59-.87,3.17-1.73,4.76-2.59.18-.1.29-.25.36-.44.14-.37.35-.66.72-.88,3.63-2.09,7.21-4.26,10.56-6.8,1.03-.78,2.04-1.59,2.89-2.58.21-.25.4-.52.58-.8.17-.26.42-.36.73-.29.31.07.52.26.55.56.23,2.06,1.19,3.84,2.11,5.62,1.76,3.41,3.8,6.66,5.93,9.85.22.32.24.66.21,1.01-.02.25.03.45.17.65,1.02,1.45,2.03,2.9,3.04,4.36.12.17.21.2.42.13.57-.19,1.04.25.93.84-.11.55-.24,1.1-.39,1.64-.11.41-.45.62-.83.54-.4-.09-.63-.42-.56-.85.04-.22.02-.4-.11-.58-.89-1.27-1.78-2.54-2.67-3.81-.02-.03-.05-.05-.11-.1-.04,1.09-.09,2.14-.13,3.2-.03.62-.39.9-1,.76-2.65-.62-5.3-1.25-7.95-1.88-.19-.05-.37-.08-.44-.32-.66-2.23-1.31-4.45-1.65-6.75-.06-.44-.08-.87-.07-1.31,0-.33-.14-.57-.47-.66-.33-.08-.59.05-.73.34-.61,1.32-1.55,2.39-2.47,3.49-.83,1-1.72,1.96-2.62,2.91-.17.18-.33.23-.58.18-2.67-.64-5.35-1.27-8.02-1.9-.56-.13-.76-.56-.52-1.09.43-.97.87-1.93,1.35-2.99"/>
  <path class="cls-2" d="M288.86,175.52c-.16-.26-.03-.61,0-.9.1-.59.26-1.3-.03-1.85-.51-.67-1.35.51-1.69-.79-.1-.31-.16-.67-.24-.99-.23-.96-.69-1.83-1.3-2.6-.49-.61-1.16-1.24-1.79-.43-.2.24-.37.53-.52.81-.39.72-.83,1.44-.99,2.23-.17.55-.05,1.81-.57,2.07-.34.13-.76-.08-1.11-.05-.73.07-.39,1.24-.25,1.7.19.72.97,1.65.73,2.14-.23.29-.74.17-1.17.07-.91-.25-1.75-.78-2.44-1.44-2.34-2.16-3.01-5.52-2.18-8.56.17-.63.97-3.59,1.88-2.34.36.56.57,1.39.91,2.02.15.28.71,1.35,1.05.93.26-.57.1-1.28.16-2.11.02-.49.07-.97.17-1.45.24-1.29.88-2.48,1.1-3.76.1-.53.09-1.1.17-1.63.23-1.92,2.14-.53,2.96.19,2.01,1.71,3.47,4,4.37,6.5.16.36.51,1.43.89.78.17-.3.32-.98.53-1.31.72-1.12,2.15,1.66,2.44,2.23,1.14,2.27,1.34,5.23-.53,7.1-.37.43-2.04,1.82-2.52,1.44h0Z"/>
  <path class="cls-2" d="M279.15,182.59c-.02-.08-.18-.14-.4-.18-.7-.17-1.58-.08-2.12-.62-.41-.5-.15-1.39-.08-2.03.11-.87.32-1.66,1.38-1.55,2.32.28,4.62.68,6.94,1.01.6.11,1.21.02,1.74-.27,1.93-.98,3.85-1.96,5.78-2.94.26-.13.54-.27.82-.33.99-.26,1.35.93,1.72,1.61.3.6.63,1.28.13,1.77-.46.44-1.1.67-1.64.97-.66.34-.2.44.21.5,1.37.21,2.53.17,2.19,1.99-.13.67-.07,1.53-.63,2.01-.28.2-.67.2-1.01.17-2.38-.31-4.77-.74-7.14-1.04-.49-.04-.96.1-1.39.32-1.85.94-3.7,1.88-5.55,2.82-.34.17-.72.37-1.09.45-.85.23-1.2-.73-1.53-1.33-.26-.54-.7-1.26-.46-1.79.36-.67,1.22-.88,1.83-1.25.2-.11.32-.22.3-.3h0Z"/>
  <path class="cls-4" d="M72.66,35.51c-1.26,1.16-2.58,2.66-4.21,2.31-1.38-.38-2.87-1.96-3.94-3.08-.87-1.01-1.87-2.04-1.63-3.39.42-1.66,2.49-3.48,3.78-4.61,2.2-1.89,3.51-1.02,5.43.76,1.08,1.06,2.63,2.52,2.92,3.88.25,1.58-1.2,2.87-2.33,4.1l-.02.02Z"/>
  <path class="cls-2" d="M226.41,50.06c-1.59.64-3.36,1.58-4.76.67-1.16-.84-1.99-2.85-2.59-4.27-.46-1.25-1.03-2.57-.32-3.75.98-1.4,3.56-2.37,5.17-2.97,2.72-.99,3.65.29,4.81,2.64.63,1.37,1.56,3.29,1.35,4.66-.32,1.57-2.14,2.26-3.64,3.01h-.03Z"/>
  <path class="cls-8" d="M263.91,169.84c-1.26,1.17-2.58,2.66-4.21,2.31-1.38-.38-2.87-1.96-3.94-3.08-.87-1.01-1.87-2.04-1.63-3.39.42-1.66,2.49-3.48,3.78-4.61,2.2-1.89,3.51-1.02,5.43.76,1.08,1.06,2.63,2.52,2.92,3.88.25,1.58-1.2,2.87-2.33,4.1l-.02.02Z"/>
  <path class="cls-7" d="M71.7,53.07h0c-1.54,0-2.79-1.25-2.79-2.79s1.25-2.79,2.79-2.79,2.79,1.25,2.79,2.79-1.25,2.79-2.79,2.79"/>
  <path class="cls-1" d="M207.48,201.6h0c-1.74,0-3.15-1.41-3.15-3.15s1.41-3.15,3.15-3.15,3.15,1.41,3.15,3.15-1.41,3.15-3.15,3.15"/>
  <path class="cls-7" d="M269.43,201.77h0c-1.54,0-2.79-1.25-2.79-2.79s1.25-2.79,2.79-2.79,2.79,1.25,2.79,2.79-1.25,2.79-2.79,2.79"/>
  <path class="cls-4" d="M275.02,150.44h0c-1.54,0-2.79-1.25-2.79-2.79s1.25-2.79,2.79-2.79,2.79,1.25,2.79,2.79-1.25,2.79-2.79,2.79"/>
  <path class="cls-2" d="M91.53,55.25h0c-1.54,0-2.79-1.25-2.79-2.79s1.25-2.79,2.79-2.79,2.79,1.25,2.79,2.79-1.25,2.79-2.79,2.79"/>
  <path class="cls-3" d="M239.98,32.58h0c-1.54,0-2.79-1.25-2.79-2.79s1.25-2.79,2.79-2.79,2.79,1.25,2.79,2.79-1.25,2.79-2.79,2.79"/>
  <path class="cls-2" d="M272.23,109.63h0c-1.54,0-2.79-1.25-2.79-2.79s1.25-2.79,2.79-2.79,2.79,1.25,2.79,2.79-1.25,2.79-2.79,2.79"/>
  <path class="cls-7" d="M28.41,177.29h0c-1.54,0-2.79-1.25-2.79-2.79s1.25-2.79,2.79-2.79,2.79,1.25,2.79,2.79-1.25,2.79-2.79,2.79"/>
  <path class="cls-4" d="M253.09,38.68c-1.28.62-1.33,4.54-1.58,6.19-.08,1.39-.77,4.95.49,5.49,1.32.52,4.44-1.35,6.15-2.08,1.25-.66,4.19-1.81,4.71-3.03.53-1.32-2.59-2.97-3.68-3.76-1.47-.85-4.78-3.45-6.07-2.82h-.01Z"/>
  <path class="cls-2" d="M7.45,126.58c-1.12.88-.34,4.72-.23,6.38.22,1.38.3,5,1.64,5.27,1.4.23,4.06-2.26,5.57-3.33,1.08-.91,3.71-2.65,3.96-3.96.24-1.4-3.16-2.35-4.4-2.89-1.61-.53-5.4-2.36-6.53-1.47h-.01Z"/>
  <path class="cls-4" d="M86.86,198.04c-1.38-.34-3.92,2.64-5.17,3.75-.95,1.02-3.75,3.32-3.13,4.54.68,1.24,4.28,1.8,6.06,2.33,1.39.29,4.38,1.29,5.56.68,1.25-.67-.1-3.94-.43-5.24-.58-1.59-1.47-5.71-2.87-6.04h-.01Z"/>
  <path class="cls-6" d="M148.73,7.03c-.05.13-.04.51-.02.67.03.04.12.32.15.4.1.24.26.47.44.64.09.08.19.17.29.23h.03s.03.02.05.05c.06,0,.12.04.18.06.07.02.14.04.21.05.18.03.3.02.47.02.02-.02.03-.01.06-.02.08-.01.16-.05.2-.1.07-.08.08-.05.13-.18.14-.32-.08-.29-.15-.39-.02-.03-.07-.16-.09-.21-.08-.15-.15-.24-.27-.35-.06-.06-.09-.1-.16-.15-.03-.03-.04-.04-.08-.07-.03-.03-.05-.04-.08-.07-.13-.12-.55-.47-.7-.53-.09-.04-.24-.03-.25-.04-.06-.03-.06-.1-.2-.11-.11,0-.16.06-.23.08"/>
  <path class="cls-6" d="M148.93,6.29s.02.05.05.12c.02.05.05.06.09.08.07.04.23.28.47.13.18-.11.09-.09.2-.16.22-.13.26-.14.4-.3.28-.34.19-.37.41-.65.05-.06.1-.17.15-.21.04-.03.08-.03.11-.06.03-.03.05-.07.08-.1.16-.16.19-.31.42-.18.1.05.32.24.49.04.07-.08.09-.12.09-.26v-.11c-.2-.08-.81-.07-1.07,0-.46.12-1,.41-1.32.75-.03.03-.04.05-.07.08-.18.22-.28.35-.42.61-.04.07-.06.14-.09.21"/>
  <path class="cls-6" d="M152,9.84c-.51,0-.67,0-1.16-.22-.2-.08-.51-.24-.7-.35-.06-.04-.17-.11-.23-.12-.04-.01,0,0-.04-.02l-.02-.02s.04,0,.06.02c.3.07.32.04.61,0h0c-.17-.01-.29,0-.47-.03-.07-.01-.14-.03-.21-.05-.07-.02-.13-.05-.18-.06-.01,0-.04.03-.04,0t-.02-.01s0,0,0,0c0,0,0,0,0,0-.19-.11-.36-.26-.47-.39-.07-.08-.13-.14-.19-.24-.03-.05-.13-.27-.14-.29.05.32.28.68.43.89.2.28.35.5.63.68.24.15.67.28,1.01.32.41.05.8.03,1.16-.11"/>
  <path class="cls-6" d="M148.75,6.35s.17-.35.2-.41c.4-.72.94-1.14,1.73-1.4.46-.15.64-.06,1.12-.05-.05-.13-.32-.19-.45-.22-.74-.11-1.42.28-1.91.75-.1.1-.22.25-.3.38-.14.22-.34.65-.4.95"/>
  <path class="cls-6" d="M152.97,5.13h0s-.01-.02-.05-.05c-.02-.02-.02-.02-.06-.04.01.02.02.03.04.05.03.02.02.01.06.04"/>
  <path class="cls-6" d="M152.22,4.94c-.04.07-.11.14-.16.21-.11.16-.1.23-.25.34-.06.04-.06.05-.1.09-.16.17-.03.07-.24.15-.35.15-.47.38-.55.42-.05.03-.09.04-.12.07-.04.03-.04.06-.08.11-.04.05-.06.04-.09.1-.08.15.01.51.08.63.05.09.1.16.15.25.06.11.1.12.21.19.3.18.33.05.46-.17.04-.07.06-.05.11-.09.12-.1.19-.29.25-.33.07.05.15.12.26.15,0,.09-.09.21-.12.47-.02.18,0,.38,0,.57-.24-.03-.32-.09-.51.22-.03.05-.11.11-.18.2-.06.08-.09.17-.12.28-.11.55.32.79.8.56.08-.04.29-.17.36-.22.16-.14.15-.17.36-.23.11-.03.15-.1.28-.11.29-.02.38-.12.5-.28.06-.08.11-.14.15-.24.04-.08.07-.23.11-.28.12-.16.15-.63.13-.86-.03-.53-.21-1.05-.48-1.48-.07-.12-.35-.48-.45-.53-.03-.03-.03-.02-.06-.04-.02-.02-.03-.03-.04-.05l-.18-.11c-.05-.03-.12-.07-.19-.09-.05.02-.1.02-.15.04-.05.02-.09.04-.14.05"/>
  <path class="cls-5" d="M188.93,11h0c1.36,0,2.46,1.09,2.46,2.44v11.67c0,1.58.19,2.73.56,3.46.58,1.29,1.86,1.93,3.81,1.93s3.22-.64,3.8-1.93c.38-.73.56-1.88.56-3.46v-11.67c0-1.35,1.1-2.44,2.46-2.44s2.46,1.09,2.46,2.44v11.68c0,2.44-.38,4.34-1.14,5.7-1.42,2.49-4.13,3.74-8.13,3.74s-6.71-1.25-8.14-3.74c-.76-1.36-1.14-3.26-1.14-5.7v-11.68c0-1.35,1.1-2.44,2.45-2.44"/>
  <path class="cls-5" d="M224.34,24.17c-1.37,1.14-3.33,1.71-5.88,1.71h-2.45c-1.34,0-2.43,1.08-2.43,2.42v3.54c0,1.34-1.09,2.42-2.43,2.42s-2.43-1.08-2.43-2.42V13.37c0-1.34,1.09-2.42,2.43-2.42h7.64c2.32,0,4.17.6,5.55,1.8,1.38,1.2,2.07,3.06,2.07,5.58,0,2.75-.69,4.69-2.06,5.83M220.6,15.78c-.62-.52-1.49-.77-2.61-.77h-1.98c-1.34,0-2.43,1.08-2.43,2.42v2.02c0,1.34,1.09,2.42,2.43,2.42h1.98c1.12,0,1.99-.28,2.61-.84.62-.56.93-1.44.93-2.66s-.31-2.08-.93-2.59"/>
  <path class="cls-5" d="M142.02,14.55c-2.59,3.55-4.51,6.45-5.76,8.72l-.62,1.19-.06.09.03.31c.1,0,.21.01.31.03.23.02.53.05.92.09.35.04.57.06.68.06.78.14,1.57.32,2.35.54.79.21,1.42.4,1.89.55.47.15,1.17.4,2.09.73.92.34,1.59.57,2,.69.2.08.35.21.45.4.09.18.1.38.03.58-.07.2-.2.35-.38.44-.18.09-.38.11-.58.05l-2.03-.73-2.03-.7c-.45-.16-1.05-.34-1.8-.54-.75-.19-1.49-.35-2.23-.47-.06-.02-.25-.04-.55-.06-.41-.04-.73-.07-.95-.09l-.09-.03c.14,2.9.24,5.01.28,6.33,0,.2-.07.39-.21.55-.14.16-.32.24-.52.24s-.39-.07-.55-.21c-.16-.14-.25-.32-.25-.52-.04-1.29-.14-3.54-.31-6.76-.12-.08-.23-.17-.31-.27-.12-.14-.17-.32-.15-.52,0-.06,0-.12.03-.18.02-.04.04-.09.06-.15.02-.08.06-.18.12-.31l.19-.37c-.06-1.35-.11-2.53-.15-3.55-.02-.75,0-2.5.06-5.23.04-2.2-.01-3.89-.15-5.08-.02-.2.04-.39.17-.57.13-.17.3-.27.51-.29.2-.02.39.04.57.17.17.13.27.3.29.51.16,1.26.22,3.03.15,5.29-.06,2.69-.08,4.4-.06,5.14l.03.95c1.21-2.08,2.99-4.72,5.33-7.92.12-.16.29-.26.49-.29.21-.03.4.01.57.14.17.12.28.28.31.49.03.2-.02.4-.14.58"/>
  <path class="cls-5" d="M152.12,12.38c.49,5.3.74,12.39.74,21.25,0,.2-.08.38-.23.53-.15.15-.33.23-.54.23s-.39-.08-.54-.23c-.15-.15-.23-.33-.23-.53,0-8.89-.25-15.93-.74-21.13-.02-.2.03-.39.17-.55.13-.16.31-.26.52-.27.22-.02.4.03.57.17.16.13.26.31.28.53"/>
  <path class="cls-5" d="M166.19,9.47c.06.69.1,1.4.12,2.12.02.72.02,1.6,0,2.63-.02,1.03-.03,1.71-.03,2.03,0,1.9-.06,7.1-.17,10.9-.11,3.8-.17,4.3-.17,6.2,0,.2-.08.38-.23.54-.15.15-.33.23-.54.23s-.39-.08-.54-.23c-.15-.15-.23-.33-.23-.54,0-1.26.02-.33.06-1.9-1.29.53-2.71.58-4.25.15-1.03-.28-1.87-.74-2.54-1.36-.67-.62-1.11-1.3-1.34-2.05-.23-.74-.3-1.5-.21-2.28.08-.77.31-1.49.68-2.14.37-.67.88-1.22,1.52-1.65.65-.43,1.37-.65,2.17-.67,1.4-.04,2.79.57,4.19,1.84.04-1.75.06-5.67.06-7.03,0-.39,0-1.08.03-2.08.02-1,.02-1.84.01-2.54-.01-.69-.06-1.35-.14-1.99-.02-.22.04-.42.17-.58.13-.16.31-.25.52-.28.21-.02.4.04.57.17.16.13.26.3.28.51M164.56,25.34c-1.42-1.61-2.76-2.4-4.03-2.36-1.03.02-1.83.54-2.4,1.56-.27.47-.43.98-.49,1.54-.06.56,0,1.1.17,1.62.17.52.5,1,.99,1.45.48.45,1.1.77,1.86.98,1.44.41,2.69.29,3.76-.37.04,0,.07,0,.09-.03.02-.55.05-1.33.08-2.33.03-1,.05-1.67.05-2.02l-.06-.06Z"/>
  <path class="cls-5" d="M177.09,15.68c-.35-1.06-.86-1.84-1.52-2.34-.67-.5-1.36-.72-2.06-.67-.71.05-1.35.37-1.92.96-.57.59-.94,1.46-1.11,2.6-.23,1.37-.18,2.43.12,3.18.21.49.48,1,.82,1.53.34.53.81,1.2,1.42,2.02.6.82,1.03,1.41,1.28,1.77.8,1.16,1.41,2.26,1.82,3.3.41,1.04.53,2.11.37,3.21-.18,1.18-.82,2.08-1.91,2.69-.8.45-1.56.58-2.28.4-.62-.16-1.16-.55-1.63-1.16-.66-.86-1.11-2.05-1.35-3.58-.02-.2.03-.39.15-.57.12-.17.29-.27.49-.31.21-.03.4.02.57.14.17.12.28.28.32.49.2,1.28.55,2.25,1.05,2.9.25.33.5.52.77.58.33.08.72,0,1.17-.24.64-.37,1.01-.9,1.11-1.59.12-.82.02-1.66-.32-2.52-.34-.87-.87-1.83-1.58-2.89-.18-.26-.6-.83-1.23-1.68-.64-.86-1.14-1.59-1.52-2.19-.38-.6-.68-1.19-.91-1.76-.41-1-.49-2.32-.25-3.97.23-1.43.75-2.57,1.57-3.44.82-.87,1.79-1.34,2.89-1.42,1.09-.08,2.11.24,3.06.96.95.72,1.66,1.76,2.11,3.1.06.2.05.4-.05.58-.09.18-.24.31-.45.38-.21.07-.4.06-.59-.03-.18-.09-.32-.24-.4-.44"/>
  <path class="cls-5" d="M102.47,0c-12.55,0-22.73,9.88-22.73,22.07s10.18,22.07,22.73,22.07,22.73-9.88,22.73-22.07S115.02,0,102.47,0M102.47,42.78c-11.77,0-21.32-9.27-21.32-20.71S90.69,1.37,102.47,1.37s21.32,9.27,21.32,20.7-9.55,20.71-21.32,20.71"/>
  <path class="cls-5" d="M102.48,3.31s0,0,0,0c0,0,0,0,0,0-10.52-.67-19.79,8.05-19.71,18.61-.07,10.55,9.17,19.58,19.68,18.93,0,0,0,0,0,0,0,0,0,0,0,0,.01,0,.02,0,.04,0,0,0,0,.02,0,.03,0,0,0-.02,0-.03.01,0,.02,0,.04,0,0,0,0,0,0,0,0,0,0,0,0,0,10.51.65,19.75-8.38,19.68-18.93.07-10.56-9.19-19.28-19.71-18.61M120.75,21.92c-2.23-.21-4.49-.36-6.77-.46-.07-3.36-.86-6.7-2.39-9.69,1.45-.68,2.79-1.53,3.96-2.56,3.57,3.6,5.23,8.18,5.19,12.71M102.47,3.31s0,0,0,0c3.38,1.87,5.9,4.67,7.59,7.95-2.28.65-4.66,1.01-7.05,1.06-.1-3.03-.27-6.05-.55-9.02M101.76,21.22c-3.1.02-6.25.07-9.39.19.07-3.15.74-6.29,2.01-9.12,2.34.91,4.91,1.39,7.5,1.44-.07,2.51-.1,5.02-.12,7.49M101.76,22.63c.01,1.9.03,3.82.07,5.75-2.79.07-5.57.63-8.05,1.69-.88-2.42-1.35-5.02-1.41-7.62,3.14.12,6.29.16,9.39.18M103.17,22.64c3.1-.02,6.25-.07,9.39-.18-.06,2.63-.54,5.24-1.43,7.68-2.47-1.08-5.24-1.66-8.03-1.74.04-1.93.06-3.85.07-5.76M103.17,21.22c-.02-2.48-.05-4.98-.12-7.5,2.58-.07,5.14-.57,7.48-1.49,1.29,2.85,1.97,6.01,2.03,9.18-3.14-.12-6.29-.16-9.39-.18M109.55,5.03c2.33,1.1,4.28,2.47,5.86,4.03-1.35.75-2.79,1.38-4.27,1.87-.04-.06-.07-.13-.11-.19-1.93-3.31-4.92-6.15-8.56-7.43,2.46.17,4.87.73,7.07,1.72M102.47,3.3s0,0,0,0h0c-.28,2.96-.44,5.99-.54,9.02-2.39-.04-4.78-.37-7.08-1.01,1.68-3.3,4.22-6.14,7.62-8.01,0,0,0,0,0,0h0s0,0,0,0M102.45,3.31c-3.63,1.28-6.63,4.11-8.55,7.43-.05.09-.1.17-.15.26-1.51-.48-2.96-1.1-4.34-1.85,3.1-3.21,7.52-5.45,13.04-5.84M89.28,9.27c1.19,1.03,2.55,1.89,4.02,2.56-1.5,2.97-2.29,6.29-2.35,9.63-2.28.1-4.54.25-6.77.46.03-4.61,1.82-9.18,5.1-12.65M95.39,38.81c-7.75-3.65-11.25-10.3-11.21-16.87,2.23.21,4.49.36,6.77.46.06,2.81.62,5.61,1.7,8.21-1.46.74-2.8,1.66-3.95,2.77,1.36-.8,2.8-1.46,4.29-1.99.27.58.56,1.15.88,1.7,1.92,3.31,4.9,6.47,8.53,7.76-2.44-.17-4.83-1.04-7.02-2.03M102.42,40.84c-3.34-1.82-5.89-5.03-7.56-8.3-.26-.51-.49-1.02-.71-1.55,2.49-.76,5.11-1.17,7.73-1.21.1,3.6.27,7.53.6,11.05-.02,0-.03,0-.05,0M102.47,40.84c.33-3.52.5-7.45.6-11.05,2.62.07,5.22.49,7.7,1.27-.21.5-.43,1-.68,1.48-1.67,3.27-4.22,6.47-7.56,8.3-.02,0-.03,0-.05,0M102.53,40.84c3.63-1.29,6.61-4.45,8.53-7.76.31-.53.59-1.07.85-1.62,1.51.55,2.96,1.24,4.33,2.08-1.15-1.15-2.5-2.1-3.97-2.86,1.1-2.61,1.67-5.43,1.73-8.27,2.28-.1,4.54-.25,6.77-.46-.08,8.96-6.74,18.07-18.22,18.9"/>
  <path class="cls-5" d="M114.25,22.56s.8,1.17,1.93,1.08c1.1-.09,2.01-1.37,2.28-1.8.06-.09.15-.16.26-.19.26-.07.49-.09.72-.29.67-.58.62-1.75-.18-2.08-.57-.24-.77.54-1.23,1.01-.27.28-.26.57-.22.75.03.12,0,.24-.07.34-.2.28-.66.76-1.37.82-.81.07-1.14-.38-1.25-.57-.03-.05-.04-.11-.04-.17-.12-2.34-1.99-2.8-1.95-3.1.02-.18.18-.17.18-.17,4.42-.55,3.59-3.55,3.59-3.55-.34-1.04-.13-1.89-.11-1.97,0,0,0-.01,0-.02,1.07-4.19-4.48-4.62-5.97-3.72-.16.1-.36.08-.5-.05-.13-.12-.31-.19-.5-.19-.14,0-.27.04-.38.1-.14.08-.32.08-.46-.02-.47-.33-1.49-.75-2.73.68-1.69,1.97-1.12,3.99.11,5.68.32.44.42.77.41.99,0,0,0,0,0,0,0,.06-.02.12-.05.17-.06.13-.18.19-.3.19,0,0,0,0,0,0,0,0,0,0,0,0-.03,0-.07,0-.1-.02-.01,0-.03,0-.04-.01,0,0,0,0,0,0-.06-.03-.1-.08-.14-.13,0-.01-.02-.02-.02-.04,0-.01,0-.03-.01-.04-.06-.15-.05-.38.12-.67,0,0-.41.23-.6.6-.23.46.21.92.21.92-.89-.14-.35-1.01-.35-1.01,0,0-.28.12-.43.26-.67.61-.31,1.43.19,1.59.6.2,1,.13,1.18.07.08-.03.17-.02.25,0,1.45.38,1.72-.88,1.77-1.36h0s0,0,0,0,.02-.08.08-.07c.06,0,.08.07.08.07.17.48.38,1.49,1.89,1.44.02,0,.02,0,.04,0,.01,0,.02,0,.04,0,.12,0,.22.1.22.22,0,.09-.06.17-.14.2,0,0,0,0,0,0,0,0-1.4-.25-3.04.37-.55.21-1.92.94-2.73,1.84-.52.57-.85,1.34-.89,1.45-.01.03-.04.05-.06.05-.75.14-1.14.9-1.23,1.1-.01.03-.05.05-.08.05-.25-.05-.43.04-.56.16-.18.16-.45.18-.62,0-.49-.5-1.63-.6-2.27-1.57-.85-1.29-1.04-3.12-2.18-3.5-.59-.2-.74-.03-.75-.19-.02-.24.83-.33.94-.34,0,0,.02,0,.03,0l.78-.13c3.46-.77,2.59-3.76,2.59-3.76,0,0-.37-2.72-.03-2.78.34-.06,1.08-.64,1.21-1.3.15-.73-.5-.5-.5-.5,0,0-1.52.62-1.57-.4s-1.31-.44-1.11-.74c.2-.3.04-.56.04-.56,0,0-.13-.25-.45-.01-.18.14-.78.48-.78.48-.06.02-.13-.03-.12-.1.03-.13.06-.37.07-.78.02-.69-1.35.31-1.85.7-.06.04-.14,0-.14-.07.03-.67-1.52.12-1.52.12-3.51,1.46-3.26,5.57-3.16,6.95.1,1.38.8,2.08,1.12,2.02.32-.06.3-.45.3-.45.26.77,2.2.89,2.38,1.33.19.45-.49.11-2.24.16-1.2.04-3.08.71-4.03,1.81-.28.33-.28.51-.5.77-.2.24-.68.33-.97.33-.2,0-.4.02-.58.09-1.83.71-.9,2.07-.9,2.07,0,0,.4.76,1.22.57.59-.13.25-.48.95-.96.12-.09.63.05.98-.33.04-.04,1.65-1.36,3.03-1.27.38.02.69.37.67.74-.05.76-.65,1.75-.91,2.08-.93,1.17-.45,2.34-.44,2.53,0,.01,0,.02,0,.04-.09.18-.87,1.7-2.13,2.09-1.34.42-2.43-1.5-2.43-1.51,0-.02.47-1.13-.83-1.37-1.78-.32-1.96,4.13-1.96,4.21,0,.45.37.86.61.86.73.09.98-1.7,1.09-1.85.13-.17.31-.16.43.01.98,1.43,2.94,1.84,2.97,1.85h0c3.21.61,4.54-2.73,4.74-3.28.01-.04.06-.07.11-.05,3.13.89,3.36,4.52,3.25,6.22-.11,1.72.95,1.3,2.58.82,1.63-.48,1.84-.58,1.45-1.33-.32-.61-1.26-.31-1.61-.17-.06.02-.12-.03-.12-.09.38-3.56-1.03-5.34-2.18-7.09-.5-.77.11-2.64.21-2.79.04-.06.13-.04.15.03.3.92,1.77,2.02,3.15,2.42.96.28,1.71.09,2.09-.05.15-.06.32-.02.45.08.57.45,1.58,0,1.93-.5.04-.06.35-.25-.08-1.21-.26-.59.39-1.17.39-1.17,2.91-2.86,3.79-1.69,3.8-1.68h0c.52,5.08-3.45,6.15-4.32,6.32-.07.01-.09.1-.04.15,1.26,1.22,1.59,2.28.37,2.66-.39.12-.82-.09-1.09-.63-.24-.47-.34-1.24-.62-1.47-.42-.35-1.05.42-1.52,1.09-1.13,1.6-.77,2.99-.11,3.11.66.12.86-.53,1.07-1.37.15-.58.12-.31.78.55.71.94,1.91,1.17,2.33.35.85-1.69,2.27-1.2,2.36-1.17,0,0,0,0,.01,0,2.57,1.49,4.79.89,5.62.57.27-.1.57-.01.73.23.29.44.46,1.12.56,1.57.05.25.03.51-.04.75-.06.18-.11.41-.08.6.22,1.49,2.73.76,3.9-.15.7-.54.45-1.16.22-1.37-.63-.57-1.67-.09-2.07.1-.41.19-.34-.2-.34-.2.33-2.35-.64-3.18-.92-3.52-.28-.34-.02-.42-.02-.42,0,0,.3-.02.61-.37.31-.35.02-.46.02-.46,0,0-.92-.39-2.28-1.69-1.36-1.3-.28-2.85-.05-3.42.24-.57.38-.28.38-.28"/>
  <path class="cls-2" d="M116.28,205.48c-1.16,1.74-4.24,4.24-4.88,5.68-.12.5.4.71,1.29.83,1.67.19,3.57.52,4.49,2.06,1.08,1.64.41,4.04-1.4,4.79-2.24.9-4.82.26-7.18.21-4.05-.23-10.45-.22-8.94-5.94,2.11-4.37,7.12-6.68,9.99-10.58,1.99-2.21,3.3-6.4-.8-6.97-2.68-.33-4.64,3.06-7.2,2.95-1.45-.02-2.7-1.21-2.88-2.63-.23-4.68,6.53-7.85,10.7-7.67,9.43.08,12.46,10.29,6.94,17.1l-.12.16Z"/>
  <path class="cls-2" d="M144.93,217.33c-4.34,5.44-13.48,4.41-17.75-.49-4.32-4.81-4.43-11.98-3.25-18.04,1.44-8.66,10.87-13.2,18.81-9.98,8.85,4.25,7.49,21.66,2.34,28.33l-.15.18ZM140.6,198.55c-.82-1.69-2.59-2.97-4.55-2.41-4.79.91-5.61,6.38-5.29,10.57.48,6,6.36,8.67,9.51,2.94,1.32-3.18,1.78-7.7.44-10.91l-.1-.19Z"/>
  <path class="cls-2" d="M171.28,204.64c-.73,1.11-1.56,2.12-2.39,3.18-1.1,1.67-4.19,4.14-1.09,4.08,1.11-.02,2.4-.09,3.42.34,2.53.85,2.84,4.37.75,5.87-2.49,1.74-6.29,1.43-9.33,1.93-1.96.12-4.09.62-5.96-.1-2.14-.82-2.64-3.46-1.82-5.42,2.73-5.76,8.96-9.91,11.26-16.05,1.23-3.53-2.46-6.12-5.51-3.91-1.22.82-2.43,2.03-3.85,2.09-1.74.13-3.15-1.41-3.37-3.19-.42-3.92,4-6.44,7.29-7.17,10.95-1.93,17.08,9.45,10.71,18.17l-.11.17Z"/>
  <path class="cls-2" d="M186.48,217.71c-1.77.31-3.9.37-5.2-1.05-1.45-1.61-.68-4.36,1.28-5.14,1.61-.8,3.63-.66,5.21-1.49,2.03-.92,1.78-3.69-.34-4.35-1.38-.49-3.07-.23-4.52-.37-4.24-.26-3.52-5.24-3.57-8.28.17-2.91-.55-6.75,1.39-8.86,2.46-2.24,6.2-1.03,9.22-1.06,1.83.11,3.79.2,5.03,1.36,1.35,1.2,1.38,3.44.06,4.65-.77.77-2,1.1-3.13,1.15-1.75.14-3.99-.4-4.69.76-.56.84-.44,2.17.27,2.88.9.85,2.34.84,3.47,1.28,1.89.6,3.56,2.02,4.6,3.65,1.09,1.63,1.33,3.74,1.09,5.69-.51,5.55-4.93,8.17-9.92,9.12l-.22.04Z"/>
</svg>