<?xml version="1.0" encoding="UTF-8"?>
<svg id="Layer_1" data-name="Layer 1" xmlns="http://www.w3.org/2000/svg" viewBox="0 0 128.71 185.87">
  <defs>
    <style>
      .cls-1 {
        fill: #6396b6;
      }
    </style>
  </defs>
  <path class="cls-1" d="M36.91,168.53c-.67.06-1.35,0-1.95-.29-1.5-.73-2.06-2.66-1.85-4.32.46-3.6,3.58-3.81,6.47-4.56,3.33-.86,6.63-1.81,9.9-2.86,6.06-1.94,12.01-4.22,17.78-6.9,9.96-4.61,19.42-10.4,27.73-17.6,12.87-11.14,23.15-26.01,26.11-43.01.71-4.07.99-8.21.77-12.33-.75-14.42-7.59-27.73-17.68-37.86-13.59-13.65-32.05-21.5-50.57-25.78-9.02-2.09-18.23-3.36-27.46-4.04-5.18-.38-10.37-.56-15.56-.59-3.54-.02-12.06,1.3-10.39-5.16C1.01.15,3.98-.03,6.58,0c3.81.05,7.61,0,11.42.13,7.21.25,14.41.83,21.55,1.82,12.79,1.77,25.47,4.82,37.42,9.76,6.39,2.64,12.56,5.83,18.32,9.66,20.37,13.52,32.2,32.85,33.33,54.41.86,16.47-4.93,32.67-14.41,45.99-12.56,17.65-31.13,30.18-50.96,38.36-8.17,3.37-16.57,5.75-25.05,8.15-.42.12-.85.21-1.29.25Z"/>
  <path class="cls-1" d="M51.21,181.04c-.03.37-.11.78-.26,1.23-.57,1.79-2.35,3-4.18,3.4s-3.75.14-5.61-.18c-8.62-1.49-17.14-4.14-24.55-8.78-1.54-.97-3.06-2.05-4.12-3.53-4.77-6.67,4.59-14.96,8.76-19.18,6.23-6.3,13.03-12,19.81-17.69.58-.48,1.18-.98,1.91-1.18,1.53-.41,3.19.75,3.67,2.26s0,3.2-.89,4.51c-.89,1.31-2.15,2.33-3.38,3.33-4.01,3.28-7.92,6.68-11.71,10.2-3.66,3.39-8.1,6.89-11.07,10.9-2.36,3.18,2.23,4.62,4.82,5.66,2.43.98,4.94,1.71,7.42,2.55,3.98,1.34,8.1,2.65,12.33,2.81,2.57.1,7.33.06,7.03,3.68Z"/>
</svg>