<?xml version="1.0" encoding="UTF-8"?>
<svg id="Layer_1" data-name="Layer 1" xmlns="http://www.w3.org/2000/svg" viewBox="0 0 1067.49 334.31">
  <defs>
    <style>
      .cls-1 {
        fill: #91c4ea;
      }
    </style>
  </defs>
  <path class="cls-1" d="M898.22,74.78c-27.51,4.67-54.3,12.27-82.62,15.06-16.86,2-35.55,3.15-53.81,3.58-125.92.58-275.42,9.6-377.34-29.32-14.1-5.34-27.08-11.52-41.45-15.81-62.85-17.38-157.22-19.11-213.78-13.51C65.28,41.11-.36,95.71,0,162.9c.84,76.47,66.31,120.96,135.94,130.76,134.57,13.38,297.91,37.03,436.6-4.57,83.57-25.1,161.45-63.14,228.75-57.44,23.63,1.45,45.04,5.93,69.23,2.97,46.83-5.72,118.74-23.92,156.54-52.95,19.93-17.26,49.74-50.54,37.62-77.77-7.61-16.1-25.01-25.62-41.75-30.59-39.93-10.41-84.5-3.51-124.47,1.42l-.25.04Z"/>
  <path class="cls-1" d="M706.83,302.6c4.19,51.98,137.39,36.05,121.34-18.67-16.84-57.43-125.52-33.25-121.34,18.67Z"/>
  <path class="cls-1" d="M398.14,21.73c-13.19,37.24,89.56,66.41,90.74,12.62.82-37.31-78.13-48.2-90.74-12.62Z"/>
  <path class="cls-1" d="M500.22,60.66c-5.2,20.25,41.72,30.97,39.82,2.56-1.32-19.71-34.85-21.91-39.82-2.56Z"/>
</svg>