<?xml version="1.0" encoding="UTF-8"?>
<svg id="Layer_1" xmlns="http://www.w3.org/2000/svg" xmlns:xlink="http://www.w3.org/1999/xlink" version="1.1" viewBox="0 0 1027.1 673.9">
  <!-- Generator: Adobe Illustrator 30.1.0, SVG Export Plug-In . SVG Version: 2.1.1 Build 136)  -->
  <defs>
    <style>
      .st0, .st1, .st2 {
        isolation: isolate;
      }

      .st0, .st2 {
        opacity: .2;
      }

      .st3 {
        stroke: #248;
      }

      .st3, .st2 {
        fill: none;
        stroke-miterlimit: 10;
        stroke-width: 11.7px;
      }

      .st4 {
        fill: #248;
      }

      .st2 {
        stroke: #000;
      }

      .st5 {
        fill: #fff;
      }
    </style>
  </defs>
  <g id="nPeGeR.tif">
    <image id="Layer_0" width="210" height="39" transform="translate(1815 1060)" xlink:href="winter-ended-1.png"/>
  </g>
  <rect class="st5" x="109.3" y="238.3" width="808.2" height="198" rx="45.1" ry="45.1" transform="translate(-44.7 80.6) rotate(-8.6)"/>
  <g>
    <g class="st0">
      <g class="st1">
        <path d="M228.4,350.8l35.3-5.4,9,58.9-12.4,1.9-.7-4.7-22.9,3.5,3.9,25.5-12.4,1.9-3.9-25.5-21.6,3.3.8,5.3-11.8,1.8-9-59.5,33.4-5.1-2-13.3,15.2-1.4c0,1-.6,1.7-2.4,2.3l1.6,10.5h0ZM217.7,364l-21.6,3.3,1.5,10.2,21.6-3.3-1.5-10.2ZM200.9,398.8l21.6-3.3-1.6-10.5-21.6,3.3,1.6,10.5ZM253,358.7l-22.9,3.5,1.5,10.2,22.9-3.5-1.5-10.2ZM234.9,393.6l22.9-3.5-1.6-10.5-22.9,3.5,1.6,10.5Z"/>
      </g>
      <g class="st1">
        <path d="M283.1,331.3c6.6,3.2,14.9,8.2,18.9,12.5l-8.2,9.3c-3.8-4.3-11.9-9.8-18.5-13.3l7.7-8.4h.1ZM302.9,365.4l4.8,31.4c7.6,9,19.6,7.2,36.8,4.6,11.3-1.7,24.7-4.1,33.8-6.2-.9,3.1-1.9,9.1-1.9,12.6-7.2,1.5-17.5,3.3-27.1,4.7-22.1,3.4-33.9,5.2-45.2-4.7-3.8,4.5-7.6,9-10.9,12.5.2,1.1-.1,1.7-1.1,2.2l-8-12.1c3.9-3.2,8.4-7.2,12.2-11.3l-3.2-20.9-11.5,1.8-1.7-11,23.1-3.5h0ZM310.3,329.1l27.3-4.1c5.9,28,15.5,51,37.8,58.2-2.6,2.4-6.2,7.3-7.9,10.5-13.4-5.4-22.5-15.9-29-29.3-2.8,14.9-8.7,27.5-18.9,36.6-2-2.1-6.7-5.7-9.6-7.3,12.1-10,17.6-26.6,17.9-46.1h4c-1-3.1-1.9-6.5-2.7-9.9l-17.4,2.6-1.7-11.1h.2Z"/>
        <path d="M457.7,355.4c-.2.3-.6.6-1,.9-3,9.7-8.1,18-14.8,25,10.2,1.9,21.8,2.4,34.4,1.6-2.2,3.3-4.7,9.2-5.9,12.8-15,.4-28.2-1.2-39.9-4.8-9.9,6.8-21.7,12.1-34.8,16.2-1.8-2.9-6-7.8-9-9.9,11.3-3,21.8-6.9,30.5-11.8-6.4-3.4-12.2-7.6-17.3-12.9l7.7-4.5-10.4,1.6-1.6-10.3,50.9-7.7,2.1-.8,8.8,3.3-1.8-11.7-64.4,9.8,2,13.1-11,1.7-3.5-23.4,13.8-2.1c-1.4-2.7-3.6-6-5.6-8.5l8-3.6c-4.8.9-9.6,1.9-14.3,2.7-.6-2.8-2.7-7.2-4.2-9.6,26.1-4.9,55.6-11.8,73.2-18.2l9.8,8.8c-.4.3-.8.4-1.4.5h-1.4c-15.5,5.3-37.8,10.9-59.4,15.3,2.8,3.2,5.8,7.4,7.1,10.4l-1.3.6,14.4-2.2c-1.2-3.1-3.1-7.2-5.2-10.4l10.2-4c2.6,3.6,5.3,8.6,6.3,11.9l-3,1.3,13.4-2c1.9-4.9,3.8-11.2,4.5-15.9l14.6,2.1c-.3.9-1.2,1.3-2.6,1.5-1,3.1-2.6,6.9-4.2,10.4l14.3-2.2,3.5,23.4-11.6,1.8h0v-.2ZM411.1,367.4c4.7,4.3,10.6,7.8,17.5,10.3,5.1-4.3,9.2-9.2,12-14.7l-29.5,4.5h0Z"/>
      </g>
      <g class="st1">
        <path d="M490.1,340.9c-2.4,4.8-5,9.2-7.7,13.3-1.6-2.8-5.5-8.5-7.7-11,7.6-10.8,14.4-28.6,17.5-45.6l14.1,2.6c-.2.9-1,1.5-2.6,1.6-1.6,6.8-3.5,13.6-5.8,20.2l4,.5c0,.9-.8,1.6-2.3,2.1l9.9,65.2-11.7,1.8-7.7-50.6h0ZM566.1,307.9l1.8,11.7-11.5,1.8,7,45.8c1.8,11.7-1.5,15.1-24.8,18.4-1-3.2-3.8-8.2-5.9-11.2,4.4-.5,8.9-1,12.2-1.5,6.5-1,7-1.1,6.6-3.8l-7-45.8-38.1,5.8-1.8-11.7,38.1-5.8-3.1-20.3,14.7-1.5c0,1-.4,1.8-2.4,2.3l2.7,17.8,11.5-1.8h0v-.2ZM529,362.3c-3-6.1-10.2-15.3-16.5-21.9l9.6-6.6c6.4,6.4,13.9,14.9,17.2,21.2l-10.3,7.3h0Z"/>
        <path d="M656.5,320.1c-.3.1-.5.3-.8.3-.5,0-1,0-1.5-.3-7.1,3.3-16.3,7.9-23.2,11.8.5,1.9.8,4.2,1.2,6.6s.8,4.9,1,7.8l-12.3,2.8c-.3-3.7-.7-7.8-1.2-10.6-7.1,5-12,10.9-11.4,14.6.7,4.3,6.3,5.3,17.5,3.6,8.7-1.3,18.2-3.1,24.3-4.8l1.9,11.4c-5,1.4-13.5,2.8-24.7,4.5-19,2.9-29.1,0-31-12.1-1.2-7.9,7.7-18.4,20.5-27.6-.7-2.8-2.6-5.2-5.6-4.8-6.5,1-12.9,5.4-19.6,15.8-2,3.1-5,7.5-8.6,12.3l-10.1-7.1c3.6-4.2,7.8-9.1,10.3-13.3,3.6-5.7,7.1-15.1,7.9-22.3l-3.7.7c-2.2.3-12.8,2-15.3,2.3l-1.7-11.1c5.6-.5,12.7-1.6,17-2.3l5.2-.9c.3-4.2.3-8.2,0-13.3l15.3-.8c0,1-.8,1.8-2.2,2.2,0,3.2-.3,6.3-.7,9.5,7.8-1.4,19.1-4.8,29.2-10l3.7,11.3c-9,4.5-22.4,7.8-34.5,10.2-1,5.5-2,10-3.1,12.3h0c3.1-3.3,7.9-6.2,12.8-6.9,5.7-.9,11.4,2.4,14,9.7,7.1-4.4,15.9-9.2,22.5-13.1l6.4,11.7h.5Z"/>
        <path d="M733.1,269.4l8.4,3.1c0,.6-.6,1.3-1.3,1.7-2.1,9.6-5.8,18.4-10.7,26.4,7.4,4.3,15.7,7.4,24.4,8.9-2.1,2.6-4.8,7.4-6.1,10.5-8.8-2.1-17.1-5.7-24.6-10.6-6.1,7.5-13.5,13.8-21.5,18.7-1-1.6-3.2-3.8-5.3-5.6l-4.5,2.9c-.5-1.4-1.2-3-2-4.7l-5.2,1.2,6.1,40.4-10.4,1.6-4.8-31.9c-.4.8-1.2,1.1-2,1.1.2,8.2-.3,18-2.1,24.4-2.4-1-6.4-2.2-8.9-2.9,1.6-5.8,1.7-15.4,1.3-23.9l11.7,1-1.2-7.7c-4.4,1-8.3,1.8-11.5,2.4-.2,1-.9,1.5-1.5,1.8l-4.2-11.5,7.1-1.1c1.3-2.2,2.6-4.6,3.9-7.1-3.5-3.9-9-8.5-13.7-11.7l4.5-9,2.5,1.6c2-6,3.9-13,4.9-18.5l12.3,3c-.3.6-1.2,1.2-2.5,1.4-1.6,5.8-4.6,13.8-7.2,19.8,1.4,1.2,2.8,2.4,4,3.5,2.6-6.1,5-12.4,6.6-17.6l11.9,3.3c-.4.8-1.3,1.3-2.6,1.5-3.4,8.3-8.8,19.2-14,28.1l10.2-1.7c-1.5-2.5-3.3-4.9-4.9-7l7.9-4.8c4,4.8,8.2,11,10.8,16.1,5.8-3.8,11-8.4,15.6-13.7-2.9-2.5-5.5-5.1-8.1-8-1.8,3.3-4,6.5-6.4,9.5-2.2-2.2-6.6-5.4-9.5-6.4,8.6-10.2,13.4-22.8,15.3-33h13.7c0,1.1-.8,1.7-2.1,2-.5,1.9-1,3.9-1.6,5.9l15.8-2.4,1.7-.8h0l-.2-.2ZM695.3,348.4c-1.7-5.1-5.6-12.9-8.9-18.6l8.3-4.2c3.5,5.7,7.3,13.1,9.2,18.2l-8.7,4.6h.1ZM744.6,355c-9.5-4.1-26.1-8.5-39.6-10.3l5.5-9.3c13.4,1.6,29.7,5.8,39.5,9.3l-5.5,10.3h0ZM711.7,283.4l-.7,1.6c2.7,3.3,5.9,6.5,9.4,9.3,2.6-4.1,4.8-8.5,6.4-13.2l-15.1,2.3h0ZM734.1,334c-5-3-14.2-6.6-21.5-8.3l5.5-8.4c7.4,1.5,16.5,4.9,21.7,7.5l-5.7,9.2h0Z"/>
      </g>
      <g class="st1">
        <path d="M828.7,252.4l11.8,4.9c-.3.9-1.3,1.6-2.3,2-6.7,10.9-17.6,25.2-28.3,34.5l5.4,35.4c1.8,11.8-2.9,14.6-26.1,18.1-1.2-3.4-4.2-8.3-6.6-11.4,4.7-.4,9.9-1.1,13.6-1.7,6.3-1,6.8-1,6.4-3.4l-6.8-45.1,6.4-.7c5.5-5.3,11.1-12.1,15.3-18.3l-57.8,8.8-1.8-11.6,68.6-10.4,2.2-1h0Z"/>
      </g>
    </g>
    <rect class="st2" x="131.4" y="257.1" width="773.2" height="167.4" rx="32.2" ry="32.2" transform="translate(-45.1 81.3) rotate(-8.6)"/>
  </g>
  <g>
    <g class="st1">
      <path class="st4" d="M223.8,347.3l35.3-5.4,9,58.9-12.4,1.9-.7-4.7-22.9,3.5,3.9,25.5-12.4,1.9-3.9-25.5-21.6,3.3.8,5.3-11.8,1.8-9-59.5,33.4-5.1-2-13.3,15.2-1.4c0,1-.6,1.7-2.4,2.3l1.6,10.5h-.1ZM213.1,360.5l-21.6,3.3,1.5,10.2,21.6-3.3-1.5-10.2ZM196.2,395.3l21.6-3.3-1.6-10.5-21.6,3.3,1.6,10.5ZM248.4,355.2l-22.9,3.5,1.5,10.2,22.9-3.5-1.5-10.2ZM230.2,390.1l22.9-3.5-1.6-10.5-22.9,3.5,1.6,10.5Z"/>
    </g>
    <g class="st1">
      <path class="st4" d="M278.5,327.8c6.6,3.2,14.9,8.2,18.9,12.5l-8.2,9.3c-3.8-4.3-11.9-9.8-18.5-13.3l7.7-8.4h.1ZM298.2,361.9l4.8,31.4c7.6,9,19.6,7.2,36.8,4.6,11.3-1.7,24.7-4.1,33.8-6.2-.9,3.1-1.9,9.1-1.9,12.6-7.2,1.5-17.5,3.3-27.1,4.7-22.1,3.4-33.9,5.2-45.2-4.7-3.8,4.5-7.6,9-10.9,12.5.2,1.1-.1,1.7-1.1,2.2l-8-12.1c3.9-3.2,8.4-7.2,12.2-11.3l-3.2-20.9-11.5,1.8-1.7-11,23.1-3.5h0ZM305.6,325.6l27.3-4.1c5.9,28,15.5,51,37.8,58.2-2.6,2.4-6.2,7.3-7.9,10.5-13.4-5.4-22.5-15.9-29-29.3-2.8,14.9-8.7,27.5-18.9,36.6-2-2.1-6.7-5.7-9.6-7.3,12.1-10,17.6-26.6,17.9-46.1h4c-1-3.1-1.9-6.5-2.7-9.9l-17.4,2.6-1.7-11.1h.2Z"/>
      <path class="st4" d="M453.1,351.9c-.2.3-.6.6-1,.9-3,9.7-8.1,18-14.8,25,10.2,1.9,21.8,2.4,34.4,1.6-2.2,3.3-4.7,9.2-5.9,12.8-15,.4-28.2-1.2-39.9-4.8-9.9,6.8-21.7,12.1-34.8,16.2-1.8-2.9-6-7.8-9-9.9,11.3-3,21.8-6.9,30.5-11.8-6.4-3.4-12.2-7.6-17.3-12.9l7.7-4.5-10.4,1.6-1.6-10.3,50.9-7.7,2.1-.8,8.8,3.3-1.8-11.7-64.4,9.8,2,13.1-11,1.7-3.5-23.4,13.8-2.1c-1.4-2.7-3.6-6-5.6-8.5l8-3.6c-4.8.9-9.6,1.9-14.3,2.7-.6-2.8-2.7-7.2-4.2-9.6,26.1-4.9,55.6-11.8,73.2-18.2l9.8,8.8c-.4.3-.8.4-1.4.5h-1.4c-15.5,5.3-37.8,10.9-59.4,15.3,2.8,3.2,5.8,7.4,7.1,10.4l-1.3.6,14.4-2.2c-1.2-3.1-3.1-7.2-5.2-10.4l10.2-4c2.6,3.6,5.3,8.6,6.3,11.9l-3,1.3,13.4-2c1.9-4.9,3.8-11.2,4.5-15.9l14.6,2.1c-.3.9-1.2,1.3-2.6,1.5-1,3.1-2.6,6.9-4.2,10.4l14.3-2.2,3.5,23.4-11.6,1.8h0v-.2ZM406.5,363.9c4.7,4.3,10.6,7.8,17.5,10.3,5.1-4.3,9.2-9.2,12-14.7l-29.5,4.5h0Z"/>
    </g>
    <g class="st1">
      <path class="st4" d="M485.5,337.4c-2.4,4.8-5,9.2-7.7,13.3-1.6-2.8-5.5-8.5-7.7-11,7.6-10.8,14.4-28.6,17.5-45.6l14.1,2.6c-.2.9-1,1.5-2.6,1.6-1.6,6.8-3.5,13.6-5.8,20.2l4,.5c0,.9-.8,1.6-2.3,2.1l9.9,65.2-11.7,1.8-7.7-50.6h0ZM561.5,304.4l1.8,11.7-11.5,1.8,7,45.8c1.8,11.7-1.5,15.1-24.8,18.4-1-3.2-3.8-8.2-5.9-11.2,4.4-.5,8.9-1,12.2-1.5,6.5-1,7-1.1,6.6-3.8l-7-45.8-38.1,5.8-1.8-11.7,38.1-5.8-3.1-20.3,14.7-1.5c0,1-.4,1.8-2.4,2.3l2.7,17.8,11.5-1.8h0v-.2ZM524.4,358.8c-3-6.1-10.2-15.3-16.5-21.9l9.6-6.6c6.4,6.4,13.9,14.9,17.2,21.2l-10.3,7.3Z"/>
      <path class="st4" d="M651.8,316.5c-.3.1-.5.3-.8.3-.5,0-1,0-1.5-.3-7.1,3.3-16.3,7.9-23.2,11.8.5,1.9.8,4.2,1.2,6.6s.8,4.9,1,7.8l-12.3,2.8c-.3-3.7-.7-7.8-1.2-10.6-7.1,5-12,10.9-11.4,14.6.7,4.3,6.3,5.3,17.5,3.6,8.7-1.3,18.2-3.1,24.3-4.8l1.9,11.4c-5,1.4-13.5,2.8-24.7,4.5-19,2.9-29.1,0-31-12.1-1.2-7.9,7.7-18.4,20.5-27.6-.7-2.8-2.6-5.2-5.6-4.8-6.5,1-12.9,5.4-19.6,15.8-2,3.1-5,7.5-8.6,12.3l-10.1-7.1c3.6-4.2,7.8-9.1,10.3-13.3,3.6-5.7,7.1-15.1,7.9-22.3l-3.7.7c-2.2.3-12.8,2-15.3,2.3l-1.7-11.1c5.6-.5,12.7-1.6,17-2.3l5.2-.9c.3-4.2.3-8.2,0-13.3l15.3-.8c0,1-.8,1.8-2.2,2.2,0,3.2-.3,6.3-.7,9.5,7.8-1.4,19.1-4.8,29.2-10l3.7,11.3c-9,4.5-22.4,7.8-34.5,10.2-1,5.5-2,10-3.1,12.3h0c3.1-3.3,7.9-6.2,12.8-6.9,5.7-.9,11.4,2.4,14,9.7,7.1-4.4,15.9-9.2,22.5-13.1l6.4,11.7h.5Z"/>
      <path class="st4" d="M728.5,265.9l8.4,3.1c0,.6-.6,1.3-1.3,1.7-2.1,9.6-5.8,18.4-10.7,26.4,7.4,4.3,15.7,7.4,24.4,8.9-2.1,2.6-4.8,7.4-6.1,10.5-8.8-2.1-17.1-5.7-24.6-10.6-6.1,7.5-13.5,13.8-21.5,18.7-1-1.6-3.2-3.8-5.3-5.6l-4.5,2.9c-.5-1.4-1.2-3-2-4.7l-5.2,1.2,6.1,40.4-10.4,1.6-4.8-31.9c-.4.8-1.2,1.1-2,1.1.2,8.2-.3,18-2.1,24.4-2.4-1-6.4-2.2-8.9-2.9,1.6-5.8,1.7-15.4,1.3-23.9l11.7,1-1.2-7.7c-4.4,1-8.3,1.8-11.5,2.4-.2,1-.9,1.5-1.5,1.8l-4.2-11.5,7.1-1.1c1.3-2.2,2.6-4.6,3.9-7.1-3.5-3.9-9-8.5-13.7-11.7l4.5-9,2.5,1.6c2-6,3.9-13,4.9-18.5l12.3,3c-.3.6-1.2,1.2-2.5,1.4-1.6,5.8-4.6,13.8-7.2,19.8,1.4,1.2,2.8,2.4,4,3.5,2.6-6.1,5-12.4,6.6-17.6l11.9,3.3c-.4.8-1.3,1.3-2.6,1.5-3.4,8.3-8.8,19.2-14,28.1l10.2-1.7c-1.5-2.5-3.3-4.9-4.9-7l7.9-4.8c4,4.8,8.2,11,10.8,16.1,5.8-3.8,11-8.4,15.6-13.7-2.9-2.5-5.5-5.1-8.1-8-1.8,3.3-4,6.5-6.4,9.5-2.2-2.2-6.6-5.4-9.5-6.4,8.6-10.2,13.4-22.8,15.3-33h13.7c0,1.1-.8,1.7-2.1,2-.5,1.9-1,3.9-1.6,5.9l15.8-2.4,1.7-.8h0l-.2-.2ZM690.6,344.9c-1.7-5.1-5.6-12.9-8.9-18.6l8.3-4.2c3.5,5.7,7.3,13.1,9.2,18.2l-8.7,4.6h.1ZM740,351.5c-9.5-4.1-26.1-8.5-39.6-10.3l5.5-9.3c13.4,1.6,29.7,5.8,39.5,9.3l-5.5,10.3h0ZM707.1,279.9l-.7,1.6c2.7,3.3,5.9,6.5,9.4,9.3,2.6-4.1,4.8-8.5,6.4-13.2l-15.1,2.3h0ZM729.4,330.5c-5-3-14.2-6.6-21.5-8.3l5.5-8.4c7.4,1.5,16.5,4.9,21.7,7.5l-5.7,9.2h0Z"/>
    </g>
    <g class="st1">
      <path class="st4" d="M824.1,248.9l11.8,4.9c-.3.9-1.3,1.6-2.3,2-6.7,10.9-17.6,25.2-28.3,34.5l5.4,35.4c1.8,11.8-2.9,14.6-26.1,18.1-1.2-3.4-4.2-8.3-6.6-11.4,4.7-.4,9.9-1.1,13.6-1.7,6.3-1,6.8-1,6.4-3.4l-6.8-45.1,6.4-.7c5.5-5.3,11.1-12.1,15.3-18.3l-57.8,8.8-1.8-11.6,68.6-10.4,2.2-1h0Z"/>
    </g>
  </g>
  <rect class="st3" x="126.8" y="253.6" width="773.2" height="167.4" rx="32.2" ry="32.2" transform="translate(-44.7 80.6) rotate(-8.6)"/>
</svg>