<?xml version="1.0" encoding="UTF-8"?>
<svg xmlns="http://www.w3.org/2000/svg" viewBox="0 0 353.71 337.23">
  <defs>
    <style>
      .cls-1 {
        mix-blend-mode: multiply;
        opacity: .6;
      }

      .cls-2 {
        fill: #a5a5a5;
      }

      .cls-3 {
        isolation: isolate;
      }

      .cls-4 {
        fill: #95adb8;
      }

      .cls-5 {
        fill: #fff;
      }

      .cls-6 {
        fill: #0d0a0a;
      }
    </style>
  </defs>
  <g class="cls-3">
    <g id="Layer_1" data-name="Layer 1">
      <g>
        <g>
          <g>
            <path class="cls-5" d="M0,90.24l67.84,156.39c8.46-28.19,23.52-41.14,41.27-47.9,17.79-6.67,38.27-7.15,58.37-8.48,20.15-1.24,39.92-3.33,57.13-11.34,17.24-7.93,31.92-21.78,42.69-44.64l-49.17-113.35c-12.27,19.4-28.46,29.76-47.23,34.16-2.45.59-4.94,1.07-7.47,1.46-16.84,2.63-35.42,1.25-54.29-.79-21.66-2.26-43.71-5.41-63.08-2.38C26.73,56.49,10.07,65.77,0,90.24Z"/>
            <g>
              <g>
                <g>
                  <path class="cls-6" d="M209.29,53.79c5.51-5.04,10.55-11.19,15.05-18.56-2.07-4.77-4.14-9.54-6.21-14.31-4.57,7.21-9.68,13.19-15.26,18.07,2.14,4.93,4.28,9.86,6.42,14.8Z"/>
                  <path class="cls-6" d="M198.51,80.83c6.3-3.22,12.2-7.38,17.62-12.64-2.14-4.93-4.28-9.86-6.41-14.78-5.49,5.1-11.46,9.1-17.83,12.15,2.21,5.09,4.42,10.18,6.63,15.28Z"/>
                  <path class="cls-6" d="M172.17,72c7.09-1.42,13.85-3.58,20.2-6.68-2.21-5.09-4.41-10.18-6.62-15.26-6.43,2.94-13.26,4.93-20.42,6.19,2.28,5.25,4.56,10.51,6.84,15.76Z"/>
                </g>
                <g>
                  <path class="cls-6" d="M157.68,90.49c7.54-.36,14.86-1.24,21.86-2.86-2.28-5.25-4.55-10.5-6.83-15.75-7.07,1.46-14.46,2.16-22.08,2.36,2.35,5.42,4.7,10.83,7.05,16.25Z"/>
                  <path class="cls-6" d="M127.85,73.63c7.93.53,15.76.82,23.36.6-2.35-5.41-4.69-10.82-7.04-16.23-7.68.06-15.58-.4-23.58-1.1,2.42,5.58,4.84,11.16,7.26,16.74Z"/>
                </g>
                <g>
                  <path class="cls-6" d="M111.97,88.91c7.93.53,15.89,1.13,23.75,1.48-2.42-5.57-4.84-11.15-7.25-16.72-7.93-.52-15.96-1.29-23.97-1.99,2.49,5.74,4.98,11.49,7.47,17.23Z"/>
                  <path class="cls-6" d="M81.32,70.14c7.81.24,15.79.89,23.8,1.6-2.49-5.74-4.98-11.48-7.47-17.22-8.08-.87-16.14-1.69-24.02-2.11,2.56,5.91,5.13,11.82,7.69,17.72Z"/>
                </g>
                <g>
                  <path class="cls-6" d="M67.06,89.17c7.23-1.09,14.8-1.39,22.54-1.3-2.56-5.9-5.12-11.81-7.68-17.71-7.81-.26-15.46-.13-22.76.79,2.63,6.07,5.27,12.15,7.9,18.22Z"/>
                  <path class="cls-6" d="M38.95,76.25c6.47-2.85,13.45-4.5,20.77-5.37-2.63-6.07-5.27-12.14-7.9-18.21-7.39.71-14.45,2.18-21,4.86,2.71,6.24,5.41,12.48,8.12,18.73Z"/>
                </g>
                <g>
                  <path class="cls-6" d="M30.06,107.64c5.19-5.79,11.09-9.93,17.51-12.89-2.71-6.24-5.41-12.47-8.12-18.71-6.49,2.79-12.47,6.76-17.73,12.37,2.78,6.41,5.56,12.82,8.34,19.23Z"/>
                  <path class="cls-6" d="M8.56,109.98c3.67-9.3,8.26-16.47,13.56-22-2.78-6.41-5.56-12.81-8.34-19.22-5.38,5.36-10.04,12.35-13.79,21.48,2.85,6.58,5.71,13.16,8.56,19.74Z"/>
                </g>
              </g>
              <g>
                <g>
                  <path class="cls-6" d="M221.96,83c5.37-5.37,10.27-11.83,14.63-19.52-2.07-4.77-4.14-9.54-6.21-14.31-4.43,7.53-9.4,13.83-14.85,19.04,2.14,4.93,4.28,9.86,6.42,14.8Z"/>
                  <path class="cls-6" d="M211.59,110.99c6.16-3.55,11.92-8.03,17.2-13.62-2.14-4.93-4.28-9.86-6.41-14.78-5.35,5.42-11.18,9.74-17.41,13.12,2.21,5.09,4.42,10.18,6.63,15.28Z"/>
                  <path class="cls-6" d="M185.66,103.11c6.94-1.74,13.57-4.23,19.78-7.66-2.21-5.09-4.41-10.18-6.62-15.26-6.28,3.27-12.98,5.59-19.99,7.17,2.28,5.25,4.56,10.51,6.84,15.76Z"/>
                </g>
                <g>
                  <path class="cls-6" d="M171.59,122.57c7.4-.69,14.58-1.9,21.43-3.85-2.28-5.25-4.55-10.5-6.83-15.75-6.93,1.78-14.18,2.82-21.65,3.35,2.35,5.42,4.7,10.83,7.05,16.25Z"/>
                  <path class="cls-6" d="M142.19,106.67c7.79.2,15.47.16,22.93-.39-2.35-5.41-4.69-10.82-7.04-16.23-7.53.39-15.29.26-23.15-.11,2.42,5.58,4.84,11.16,7.26,16.74Z"/>
                </g>
                <g>
                  <path class="cls-6" d="M126.73,122.92c7.79.2,15.6.47,23.31.49-2.42-5.57-4.84-11.15-7.25-16.72-7.78-.19-15.67-.62-23.53-.99,2.49,5.74,4.98,11.49,7.47,17.23Z"/>
                  <path class="cls-6" d="M96.5,105.13c7.66-.09,15.5.22,23.36.59-2.49-5.74-4.98-11.48-7.47-17.21-7.94-.54-15.85-1.02-23.58-1.1,2.56,5.91,5.13,11.82,7.69,17.72Z"/>
                </g>
                <g>
                  <path class="cls-6" d="M82.67,125.15c7.08-1.43,14.5-2.07,22.1-2.31-2.56-5.9-5.12-11.81-7.68-17.71-7.67.07-15.17.54-22.32,1.8,2.63,6.07,5.27,12.15,7.9,18.22Z"/>
                  <path class="cls-6" d="M54.99,113.22c6.32-3.19,13.16-5.18,20.33-6.39-2.63-6.07-5.27-12.14-7.9-18.21-7.25,1.04-14.16,2.86-20.55,5.88,2.71,6.24,5.42,12.48,8.12,18.73Z"/>
                </g>
                <g>
                  <path class="cls-6" d="M46.53,145.6c5.04-6.13,10.8-10.62,17.07-13.92-2.71-6.24-5.41-12.47-8.12-18.71-6.34,3.13-12.17,7.44-17.29,13.4,2.78,6.41,5.56,12.82,8.34,19.23Z"/>
                  <path class="cls-6" d="M25.47,148.95c3.52-9.64,7.96-17.15,13.11-23.03-2.78-6.41-5.56-12.81-8.34-19.22-5.23,5.7-9.75,13.04-13.34,22.51,2.85,6.58,5.71,13.16,8.56,19.74Z"/>
                </g>
              </g>
              <g>
                <g>
                  <path class="cls-6" d="M234.63,112.22c5.23-5.69,9.99-12.48,14.21-20.49-2.07-4.77-4.14-9.54-6.21-14.31-4.3,7.85-9.12,14.48-14.43,20,2.14,4.93,4.28,9.86,6.42,14.8Z"/>
                  <path class="cls-6" d="M224.67,141.15c6.02-3.87,11.64-8.68,16.77-14.59-2.14-4.93-4.28-9.86-6.41-14.78-5.21,5.75-10.89,10.39-16.99,14.1,2.21,5.09,4.42,10.18,6.63,15.28Z"/>
                  <path class="cls-6" d="M199.16,134.23c6.8-2.07,13.28-4.88,19.35-8.64-2.21-5.09-4.41-10.18-6.62-15.26-6.14,3.59-12.69,6.24-19.57,8.14,2.28,5.25,4.56,10.51,6.84,15.76Z"/>
                </g>
                <g>
                  <path class="cls-6" d="M185.51,154.64c7.26-1.02,14.29-2.56,21.01-4.83-2.28-5.25-4.55-10.5-6.83-15.75-6.78,2.11-13.89,3.48-21.22,4.33,2.35,5.42,4.7,10.83,7.05,16.25Z"/>
                  <path class="cls-6" d="M156.52,139.71c7.64-.13,15.18-.5,22.5-1.38-2.35-5.41-4.69-10.82-7.04-16.23-7.39.72-15,.92-22.72.88,2.42,5.58,4.84,11.16,7.26,16.73Z"/>
                </g>
                <g>
                  <path class="cls-6" d="M141.48,156.94c7.64-.13,15.32-.2,22.88-.51-2.42-5.57-4.84-11.15-7.25-16.72-7.64.14-15.38.04-23.1,0,2.49,5.74,4.98,11.48,7.47,17.23Z"/>
                  <path class="cls-6" d="M111.68,140.13c7.52-.43,15.21-.45,22.92-.41-2.49-5.74-4.98-11.48-7.47-17.21-7.79-.21-15.56-.36-23.14-.1,2.56,5.91,5.13,11.82,7.69,17.72Z"/>
                </g>
                <g>
                  <path class="cls-6" d="M98.28,161.12c6.94-1.76,14.21-2.74,21.66-3.32-2.56-5.9-5.12-11.81-7.68-17.71-7.52.41-14.87,1.22-21.88,2.81,2.63,6.07,5.27,12.15,7.9,18.22Z"/>
                  <path class="cls-6" d="M71.02,150.19c6.17-3.53,12.86-5.85,19.89-7.41-2.63-6.07-5.27-12.14-7.9-18.21-7.1,1.38-13.87,3.54-20.11,6.89,2.71,6.24,5.41,12.48,8.12,18.72Z"/>
                </g>
                <g>
                  <path class="cls-6" d="M63,183.57c4.89-6.47,10.5-11.3,16.62-14.94-2.71-6.24-5.41-12.47-8.12-18.71-6.2,3.47-11.88,8.12-16.85,14.42,2.78,6.41,5.56,12.82,8.34,19.23Z"/>
                  <path class="cls-6" d="M42.37,187.92c3.37-9.99,7.66-17.84,12.67-24.06-2.78-6.41-5.56-12.81-8.34-19.22-5.08,6.05-9.45,13.73-12.89,23.54,2.85,6.58,5.71,13.16,8.56,19.74Z"/>
                </g>
              </g>
              <g>
                <g>
                  <path class="cls-6" d="M247.3,141.43c5.09-6.01,9.71-13.12,13.79-21.46-2.07-4.77-4.14-9.54-6.21-14.31-4.16,8.17-8.84,15.12-14.01,20.97,2.14,4.93,4.28,9.86,6.42,14.8Z"/>
                  <path class="cls-6" d="M237.76,171.31c5.88-4.2,11.36-9.33,16.35-15.56-2.14-4.93-4.28-9.86-6.41-14.78-5.07,6.07-10.61,11.04-16.57,15.07,2.21,5.09,4.42,10.18,6.63,15.28Z"/>
                  <path class="cls-6" d="M212.66,165.34c6.66-2.4,13-5.54,18.93-9.62-2.21-5.09-4.41-10.18-6.62-15.26-6,3.92-12.41,6.89-19.15,9.12,2.28,5.25,4.56,10.51,6.84,15.76Z"/>
                </g>
                <g>
                  <path class="cls-6" d="M199.42,186.72c7.11-1.35,14.01-3.21,20.58-5.82-2.28-5.25-4.55-10.5-6.83-15.75-6.64,2.44-13.61,4.13-20.8,5.32,2.35,5.42,4.7,10.83,7.05,16.25Z"/>
                  <path class="cls-6" d="M170.85,172.76c7.5-.46,14.9-1.16,22.07-2.38-2.35-5.41-4.69-10.82-7.04-16.23-7.25,1.05-14.72,1.58-22.29,1.87,2.42,5.58,4.84,11.16,7.26,16.74Z"/>
                </g>
                <g>
                  <path class="cls-6" d="M156.24,190.95c7.5-.47,15.03-.87,22.45-1.51-2.42-5.57-4.84-11.15-7.25-16.72-7.49.48-15.09.71-22.67,1.01,2.49,5.74,4.98,11.49,7.47,17.23Z"/>
                  <path class="cls-6" d="M126.86,175.12c7.37-.76,14.92-1.12,22.49-1.42-2.49-5.74-4.98-11.48-7.47-17.22-7.65.13-15.27.31-22.71.91,2.56,5.91,5.13,11.82,7.69,17.72Z"/>
                </g>
                <g>
                  <path class="cls-6" d="M113.89,197.1c6.79-2.1,13.92-3.42,21.22-4.33-2.56-5.9-5.12-11.81-7.68-17.71-7.38.74-14.58,1.89-21.45,3.82,2.63,6.07,5.27,12.15,7.9,18.22Z"/>
                  <path class="cls-6" d="M87.06,187.16c6.02-3.87,12.57-6.53,19.45-8.43-2.63-6.07-5.27-12.14-7.9-18.21-6.95,1.72-13.57,4.22-19.67,7.91,2.71,6.24,5.42,12.48,8.12,18.72Z"/>
                </g>
                <g>
                  <path class="cls-6" d="M79.47,221.54c4.74-6.82,10.2-11.98,16.18-15.96-2.71-6.24-5.41-12.47-8.12-18.71-6.05,3.81-11.58,8.8-16.4,15.45,2.78,6.41,5.56,12.82,8.34,19.23Z"/>
                  <path class="cls-6" d="M59.28,226.89c3.22-10.33,7.36-18.53,12.22-25.09-2.78-6.41-5.56-12.81-8.34-19.22-4.93,6.39-9.15,14.41-12.44,24.57,2.85,6.58,5.71,13.16,8.56,19.74Z"/>
                </g>
              </g>
            </g>
          </g>
          <g class="cls-1">
            <path class="cls-4" d="M53.27,213.05l14.57,33.58c8.46-28.19,23.52-41.14,41.27-47.9,17.79-6.67,38.27-7.15,58.37-8.48,20.15-1.24,39.92-3.33,57.13-11.34,17.24-7.93,31.92-21.78,42.69-44.64l-49.17-113.35c-12.27,19.4-28.46,29.76-47.23,34.16-2.45.59-4.94,1.07-7.47,1.46,11.2,18.26,18.9,40.49,12.33,59.88-14.77,43.55-59.97,40.48-91.96,62.47-13.47,9.26-23.26,21-30.52,34.14Z"/>
          </g>
        </g>
        <path class="cls-2" d="M347.73,335.35c.69,1.58,2.52,2.3,4.1,1.62h0c1.58-.69,2.31-2.52,1.62-4.1L209.87,1.88c-.69-1.58-2.52-2.31-4.1-1.62h0c-1.58.69-2.31,2.52-1.62,4.1l143.58,330.99Z"/>
      </g>
    </g>
  </g>
</svg>