<?xml version="1.0" encoding="UTF-8"?>
<svg xmlns="http://www.w3.org/2000/svg" version="1.1" viewBox="0 0 82.121 62.626">
  <defs>
    <style>
      .cls-1 {
        fill: #fff;
      }
    </style>
  </defs>
  <!-- Generator: Adobe Illustrator 28.7.1, SVG Export Plug-In . SVG Version: 1.2.0 Build 142)  -->
  <g>
    <g id="Layer_1">
      <g>
        <path class="cls-1" d="M62.908,28.988c.001,7.178.014,14.355-.004,21.532-.008,3.356-2.078,6.052-5.293,6.995-3.844,1.127-8.007-1.229-8.986-5.115-.137-.545-.385-.963-.767-1.36-2.331-2.424-4.873-4.548-8.026-5.843-2.311-.949-4.688-1.601-7.199-1.693-.879-.032-1.76-.051-2.634-.138-.794-.079-1.061.175-1.051,1.01.045,3.602.029,7.204.015,10.806-.014,3.567-2.111,6.282-5.543,7.215-4.252,1.156-8.871-2.218-8.956-6.627-.076-3.921-.038-7.844-.012-11.767.005-.696-.154-1.113-.836-1.42-1.514-.683-2.6-1.85-3.287-3.358-.221-.485-.51-.653-1.036-.668C4.432,38.418.308,34.405.021,29.731c-.344-5.601,3.623-9.893,8.508-10.419,1.073-.115,1.638-.419,2.188-1.368,1.339-2.313,3.45-3.498,6.156-3.505,4.563-.011,9.126.028,13.688-.017,2.537-.025,5.044-.318,7.48-1.126,3.576-1.187,6.592-3.211,9.198-5.904.692-.715,1.23-1.433,1.542-2.439,1.033-3.339,4.515-5.396,7.982-4.873,3.456.522,6.123,3.535,6.137,7.053.029,7.284.009,14.569.01,21.853ZM48.381,28.896c0-4.935.002-9.87-.005-14.806,0-.227.125-.543-.119-.663-.249-.123-.412.18-.589.319-3.873,3.039-8.266,4.821-13.14,5.424-.58.072-.769.299-.768.861.012,5.922.012,11.845,0,17.767-.001.578.222.773.787.844,4.872.609,9.265,2.393,13.137,5.433.174.136.334.45.588.3.222-.131.104-.443.105-.673.006-4.935.004-9.87.004-14.806ZM28.847,28.942c0-2.905-.015-5.811.012-8.716.006-.646-.173-.886-.853-.881-3.518.029-7.037.006-10.555.017-1.957.006-2.887.944-2.891,2.91-.009,4.425-.009,8.849,0,13.274.004,1.964.938,2.898,2.898,2.903,3.492.01,6.984-.019,10.475.021.77.009.936-.265.928-.972-.033-2.852-.014-5.704-.014-8.556ZM57.988,28.897c0-6.988.002-13.977-.002-20.965-.001-1.821-.913-2.95-2.348-2.943-1.438.008-2.332,1.13-2.332,2.959-.003,13.977,0,27.953-.004,41.93,0,.431.04.852.159,1.265.285.989,1.196,1.683,2.194,1.678,1.004-.006,1.896-.7,2.183-1.694.135-.467.153-.943.153-1.426-.003-6.935-.002-13.87-.002-20.805ZM19.361,49.631c0,1.761-.011,3.522.005,5.283.008.914.236,1.757,1.059,2.296.723.474,1.492.538,2.28.157.96-.464,1.317-1.315,1.324-2.297.026-3.682.007-7.365.019-11.047.002-.488-.193-.661-.668-.652-1.067.019-2.136.034-3.202-.006-.626-.024-.843.187-.831.822.034,1.814.012,3.629.013,5.443ZM9.633,28.967c0-1.36-.016-2.721.009-4.081.009-.491-.129-.647-.641-.6-2.139.198-3.982,2.292-4.007,4.598-.025,2.301,1.891,4.482,4.044,4.644.469.035.61-.101.603-.559-.021-1.333-.008-2.667-.007-4.001Z"/>
        <path class="cls-1" d="M76.04,33.766c-1.198,0-2.396.018-3.594-.004-1.443-.026-2.46-1.081-2.444-2.496.016-1.365,1.037-2.4,2.448-2.412,2.422-.02,4.845-.023,7.267.002,1.397.014,2.405,1.076,2.404,2.453,0,1.376-1.009,2.423-2.408,2.451-1.224.025-2.449.005-3.673.006Z"/>
        <path class="cls-1" d="M70.344,24.17c-1.286-.023-2.04-.467-2.483-1.352-.457-.912-.438-1.884.26-2.624,1.684-1.783,3.417-3.524,5.199-5.208.921-.87,2.381-.731,3.274.146.916.9,1.052,2.387.155,3.334-1.668,1.761-3.41,3.454-5.144,5.151-.41.401-.958.57-1.26.552Z"/>
        <path class="cls-1" d="M77.321,45.723c-.019,1.029-.487,1.797-1.416,2.227-.925.427-1.878.362-2.617-.344-1.736-1.657-3.439-3.351-5.094-5.088-.903-.948-.798-2.425.101-3.338.901-.915,2.386-1.049,3.334-.153,1.744,1.648,3.418,3.37,5.101,5.081.424.431.616.992.591,1.614Z"/>
      </g>
    </g>
  </g>
</svg>