<?xml version="1.0" encoding="UTF-8"?>
<svg xmlns="http://www.w3.org/2000/svg" version="1.1" viewBox="0 0 32.429 44.92">
  <defs>
    <style>
      .cls-1 {
        fill: #ada9a3;
      }

      .cls-2 {
        fill: #02a3f0;
      }
    </style>
  </defs>
  <!-- Generator: Adobe Illustrator 28.7.1, SVG Export Plug-In . SVG Version: 1.2.0 Build 142)  -->
  <g>
    <g id="Layer_1">
      <g>
        <path class="cls-2" d="M24.791,30.691c-.085-.263-.218-.323-.48-.27-.583.118-.998.239-1.291.665-.961,1.397-2.325,1.991-3.706,2.041q-1.121-.002-1.381.794c-.341,1.046-.684,2.092-1.023,3.139-.06.186-.125.367-.055.577.587,1.782,2.068,4.999,2.655,6.781.073.221.174.465.444.498.302.036.432-.217.571-.426.08-.12.141-.251.209-.379.647-1.23,1.112-2.913,1.76-4.142.359-.681.4-.694,1.072-.364,1.376.677,3.384,1.811,4.763,2.481.223.108.484.23.713.031.227-.197.153-.466.075-.708-1.037-3.21-3.291-7.507-4.325-10.718Z"/>
        <path class="cls-2" d="M16.464,32.393c-.516-.206-.924-.024-1.348.212-2.028,1.131-4.437.558-5.621-1.443-.153-.259-.808-.684-1.191-.787-.619-.165-.84-.122-1.006.22-1.112,2.964-2.141,5.183-2.982,7.776-.078.239-.135.485-.175.632-.007.483.186.642.547.552.208-.052.406-.149.6-.244,1.281-.628,3.192-1.714,4.472-2.343.647-.318.702-.3,1.039.337.709,1.341,1.231,3.137,1.943,4.476.126.238.266.515.58.506.328-.01.423-.313.506-.566.965-2.951,1.919-5.905,2.887-8.855.093-.284-.008-.376-.252-.473Z"/>
        <path class="cls-1" d="M16.214,4.417c-6.303,0-11.431,5.128-11.431,11.431s5.128,11.431,11.431,11.431,11.431-5.128,11.431-11.431-5.128-11.431-11.431-11.431ZM20.974,22.89c-.197.159-.433.262-.684.295-.115.015-.125.017-2.31.017-1.048,0-2.61-.001-4.941-.005-.545,0-1.035-.269-1.31-.718-.291-.475-.297-1.09-.015-1.643.055-.108.124-.209.206-.299l3.825-4.228c.013-.014.026-.028.039-.042.887-.902,1.503-1.601,1.882-2.137.373-.529.563-1.048.563-1.541s-.165-.913-.491-1.245c-.324-.33-.746-.498-1.252-.498-.66,0-1.368.389-1.995,1.096-.326.368-.808.588-1.29.588h0c-.602,0-1.125-.332-1.363-.867-.094-.21-.346-.954.334-1.71.43-.478.802-.805,1.286-1.126.929-.62,1.994-.934,3.166-.934,1.317,0,2.219.531,3.168,1.328.967.811,1.457,1.931,1.457,3.327,0,.761-.197,1.502-.584,2.2-.369.663-.872,1.568-1.93,2.673l-2.506,2.785c.396-.001.802-.002,1.201-.002,1.211,0,2.122.006,2.708.018.646.013,1.192.396,1.39.974.206.601-.006,1.251-.553,1.695Z"/>
        <path class="cls-1" d="M30.793,19.177c.253-1.115,1.635-2.136,1.635-3.328s-1.382-2.213-1.635-3.328c-.262-1.152.534-2.67.033-3.709-.51-1.056-2.197-1.377-2.922-2.284-.728-.912-.668-2.628-1.58-3.356-.907-.724-2.566-.287-3.622-.797-1.039-.501-1.728-2.076-2.879-2.337-1.115-.253-2.416.86-3.609.86S13.722-.216,12.606.037c-1.152.262-1.841,1.837-2.879,2.338-1.057.51-2.715.072-3.623.797-.912.728-.852,2.444-1.58,3.356-.725.907-2.412,1.228-2.922,2.284-.501,1.039.295,2.557.033,3.709-.253,1.115-1.636,2.136-1.636,3.328s1.382,2.213,1.636,3.329c.262,1.151-.534,2.669-.033,3.709.51,1.056,2.198,1.377,2.922,2.284.728.912.668,2.628,1.58,3.356.907.724,2.566.287,3.622.796,1.039.501,1.728,2.076,2.879,2.338,1.115.253,2.416-.861,3.608-.861s2.493,1.114,3.609.861c1.152-.262,1.84-1.836,2.879-2.338,1.056-.51,2.715-.072,3.622-.796.912-.728.852-2.444,1.58-3.356.724-.907,2.412-1.228,2.922-2.284.501-1.039-.294-2.557-.033-3.708ZM16.214,28.534c-6.994,0-12.685-5.691-12.685-12.685S9.22,3.163,16.214,3.163s12.685,5.69,12.685,12.685-5.69,12.685-12.685,12.685Z"/>
      </g>
    </g>
  </g>
</svg>