<?xml version="1.0" encoding="UTF-8"?>
<svg id="Layer_1" data-name="Layer 1" xmlns="http://www.w3.org/2000/svg" viewBox="0 0 32.43 44.92">
  <defs>
    <style>
      .cls-1 {
        fill: #ada9a3;
      }
    </style>
  </defs>
  <path class="cls-1" d="M16.23,15.88c-1.2,0-2.03.87-2.03,2.61s.89,2.59,2.01,2.59c1.05,0,2-.69,2-2.61s-1.02-2.59-1.98-2.59Z"/>
  <path class="cls-1" d="M16.21,4.42c-6.31,0-11.43,5.12-11.43,11.43s5.12,11.43,11.43,11.43,11.43-5.12,11.43-11.43-5.12-11.43-11.43-11.43ZM16.4,23.64c-1.9,0-3.16-.93-3.79-1.71-.69-.85-1.52-2.21-1.52-5.68,0-3.07.58-8.2,5.52-8.2,3.36,0,4.54,2.38,4.54,3.36,0,.4-.29,1.23-1.47,1.23-1.11,0-1.27-.44-1.52-1.12-.24-.6-.73-.91-1.52-.91-.87,0-2.21.24-2.38,3.77.62-.53,1.14-.98,2.59-.98,3.08,0,4.52,2.41,4.52,4.97,0,2.72-1.6,5.26-4.95,5.26Z"/>
</svg>