<?xml version="1.0" encoding="UTF-8"?>
<svg xmlns="http://www.w3.org/2000/svg" version="1.1" viewBox="0 0 153.767 7.688">
  <defs>
    <style>
      .cls-1 {
        fill: #02a3f0;
      }
    </style>
  </defs>
  <!-- Generator: Adobe Illustrator 28.7.1, SVG Export Plug-In . SVG Version: 1.2.0 Build 142)  -->
  <g>
    <g id="Layer_1">
      <g>
        <g>
          <rect class="cls-1" width="3.844" height="3.844"/>
          <rect class="cls-1" x="3.844" y="3.844" width="3.844" height="3.844"/>
          <rect class="cls-1" x="7.688" width="3.844" height="3.844"/>
          <rect class="cls-1" x="11.533" y="3.844" width="3.844" height="3.844"/>
          <rect class="cls-1" x="15.377" width="3.844" height="3.844"/>
          <rect class="cls-1" x="19.221" y="3.844" width="3.844" height="3.844"/>
          <rect class="cls-1" x="23.065" width="3.844" height="3.844"/>
          <rect class="cls-1" x="26.909" y="3.844" width="3.844" height="3.844"/>
          <rect class="cls-1" x="30.753" width="3.844" height="3.844"/>
          <rect class="cls-1" x="34.598" y="3.844" width="3.844" height="3.844"/>
          <rect class="cls-1" x="38.442" width="3.844" height="3.844"/>
          <rect class="cls-1" x="42.286" y="3.844" width="3.844" height="3.844"/>
          <rect class="cls-1" x="46.13" width="3.844" height="3.844"/>
          <rect class="cls-1" x="49.974" y="3.844" width="3.844" height="3.844"/>
          <rect class="cls-1" x="53.818" width="3.844" height="3.844"/>
          <rect class="cls-1" x="57.663" y="3.844" width="3.844" height="3.844"/>
          <rect class="cls-1" x="61.507" width="3.844" height="3.844"/>
          <rect class="cls-1" x="65.351" y="3.844" width="3.844" height="3.844"/>
          <rect class="cls-1" x="69.195" width="3.844" height="3.844"/>
          <rect class="cls-1" x="73.039" y="3.844" width="3.844" height="3.844"/>
        </g>
        <g>
          <rect class="cls-1" x="76.884" width="3.844" height="3.844"/>
          <rect class="cls-1" x="80.728" y="3.844" width="3.844" height="3.844"/>
          <rect class="cls-1" x="84.572" width="3.844" height="3.844"/>
          <rect class="cls-1" x="88.416" y="3.844" width="3.844" height="3.844"/>
          <rect class="cls-1" x="92.26" width="3.844" height="3.844"/>
          <rect class="cls-1" x="96.104" y="3.844" width="3.844" height="3.844"/>
          <rect class="cls-1" x="99.949" width="3.844" height="3.844"/>
          <rect class="cls-1" x="103.793" y="3.844" width="3.844" height="3.844"/>
          <rect class="cls-1" x="107.637" width="3.844" height="3.844"/>
          <rect class="cls-1" x="111.481" y="3.844" width="3.844" height="3.844"/>
          <rect class="cls-1" x="115.325" width="3.844" height="3.844"/>
          <rect class="cls-1" x="119.17" y="3.844" width="3.844" height="3.844"/>
          <rect class="cls-1" x="123.014" width="3.844" height="3.844"/>
          <rect class="cls-1" x="126.858" y="3.844" width="3.844" height="3.844"/>
          <rect class="cls-1" x="130.702" width="3.844" height="3.844"/>
          <rect class="cls-1" x="134.546" y="3.844" width="3.844" height="3.844"/>
          <rect class="cls-1" x="138.39" width="3.844" height="3.844"/>
          <rect class="cls-1" x="142.235" y="3.844" width="3.844" height="3.844"/>
          <rect class="cls-1" x="146.079" width="3.844" height="3.844"/>
          <rect class="cls-1" x="149.923" y="3.844" width="3.844" height="3.844"/>
        </g>
      </g>
    </g>
  </g>
</svg>