<?xml version="1.0" encoding="UTF-8"?>
<svg id="Layer_1" data-name="Layer 1" xmlns="http://www.w3.org/2000/svg" viewBox="0 0 54.12 44.96">
  <defs>
    <style>
      .cls-1 {
        fill: #3a3a3a;
      }

      .cls-2 {
        fill: #fff;
      }
    </style>
  </defs>
  <path class="cls-1" d="M20.85,32.13c.15.68.16,1.11.04,1.8-.2,1.08-1.33,1.38-1.35,2.48-.03,1.5.91,2.69,2.37,3.03,1.16-.77,1.7-1.69,1.81-3.07.16-1.99-.96-3.64-2.87-4.23h0Z"/>
  <path class="cls-2" d="M21.63,33.06c.69.34,1.06.77,1.28,1.51.25.84.12,1.51-.41,2.2.1-.82.07-1.32-.15-2.11-.18-.66-.34-1.02-.72-1.59h0Z"/>
  <path class="cls-1" d="M16.6,44.66c.54-.44.81-.77,1.13-1.39.51-.97-.2-1.9.46-2.78.9-1.2,2.37-1.56,3.73-.93.44,1.32.3,2.37-.46,3.54-1.1,1.67-3,2.28-4.87,1.57h0Z"/>
  <path class="cls-2" d="M17.79,44.42c.75.16,1.31.05,1.94-.4.71-.51,1.03-1.11,1.03-1.99-.42.71-.76,1.08-1.42,1.58-.54.41-.9.59-1.55.81h0Z"/>
  <path class="cls-1" d="M17.48,30.24c0,.65-.09,1.04-.34,1.64-.41.94-1.5.97-1.75,1.97-.34,1.36.26,2.64,1.52,3.26,1.22-.46,1.9-1.18,2.29-2.42.56-1.78-.11-3.52-1.72-4.45h0Z"/>
  <path class="cls-2" d="M17.99,31.25c.56.45.8.92.85,1.64.05.81-.21,1.4-.84,1.92.27-.72.34-1.18.31-1.96-.02-.64-.1-1-.32-1.6h0Z"/>
  <path class="cls-1" d="M10.97,40.76c.59-.29.9-.53,1.33-1.03.67-.78.22-1.77,1.01-2.43,1.07-.9,2.49-.92,3.59-.06.12,1.29-.23,2.22-1.17,3.12-1.35,1.28-3.21,1.44-4.76.4h0Z"/>
  <path class="cls-2" d="M12.11,40.78c.65.31,1.18.32,1.85.04.75-.31,1.17-.8,1.35-1.59-.53.56-.92.82-1.62,1.14-.58.26-.94.35-1.58.41h0Z"/>
  <path class="cls-1" d="M14.13,28.24c-.14.6-.3.93-.66,1.42-.57.77-1.57.57-2,1.43-.59,1.17-.32,2.46.7,3.28,1.2-.16,1.98-.67,2.6-1.72.89-1.5.64-3.23-.63-4.42h0Z"/>
  <path class="cls-2" d="M14.39,29.27c.42.53.54,1.01.43,1.67-.13.75-.48,1.23-1.17,1.57.39-.6.56-1.01.69-1.72.11-.58.12-.93.05-1.52h0Z"/>
  <path class="cls-1" d="M5.99,36.45c.6-.14.93-.3,1.42-.66.77-.57.57-1.57,1.43-2,1.17-.59,2.46-.32,3.28.7-.16,1.2-.67,1.98-1.72,2.6-1.5.89-3.23.64-4.42-.63h0Z"/>
  <path class="cls-2" d="M7.02,36.71c.53.42,1.01.54,1.67.43.75-.13,1.23-.48,1.57-1.17-.6.39-1.01.56-1.72.69-.58.11-.93.12-1.52.05h0Z"/>
  <path class="cls-1" d="M11.7,25.39c-.25.51-.47.78-.9,1.16-.68.58-1.55.19-2.12.88-.79.94-.81,2.17-.05,3.14,1.13.11,1.94-.2,2.72-1.02,1.12-1.18,1.26-2.8.35-4.15h0Z"/>
  <path class="cls-2" d="M11.72,26.38c.27.57.28,1.03.04,1.61-.27.66-.7,1.02-1.39,1.18.49-.47.72-.8.99-1.42.22-.51.31-.82.36-1.38h0Z"/>
  <path class="cls-1" d="M2.57,31.15c.57,0,.91-.07,1.43-.3.82-.36.85-1.31,1.72-1.52,1.19-.3,2.31.23,2.84,1.33-.4,1.06-1.03,1.66-2.11,2-1.55.49-3.07-.1-3.89-1.5h0Z"/>
  <path class="cls-2" d="M3.46,31.6c.39.49.8.7,1.43.74.71.04,1.22-.18,1.67-.73-.63.23-1.03.3-1.71.27-.55-.02-.88-.08-1.4-.28h0Z"/>
  <path class="cls-1" d="M10.15,22.35c-.34.41-.59.62-1.06.86-.74.39-1.45-.15-2.12.35-.91.69-1.19,1.81-.71,2.84,1.01.33,1.81.23,2.69-.36,1.27-.84,1.74-2.29,1.19-3.71h0Z"/>
  <path class="cls-2" d="M9.96,23.26c.12.57.04,1-.31,1.48-.39.54-.85.78-1.51.78.54-.32.82-.58,1.2-1.08.31-.41.45-.69.62-1.18h0Z"/>
  <path class="cls-1" d="M.62,25.68c.52.12.84.12,1.37.03.82-.15,1.05-1.01,1.89-1.03,1.14-.02,2.05.69,2.31,1.8-.59.88-1.28,1.3-2.34,1.38-1.51.12-2.78-.73-3.22-2.19h0Z"/>
  <path class="cls-2" d="M1.33,26.28c.26.53.59.81,1.15.97.64.19,1.15.09,1.68-.32-.63.08-1,.05-1.61-.11-.5-.14-.78-.26-1.21-.55h0Z"/>
  <path class="cls-1" d="M9.37,19.26c-.39.3-.67.44-1.15.56-.76.2-1.29-.44-2-.12-.98.43-1.46,1.39-1.24,2.44.84.52,1.6.59,2.53.24,1.33-.49,2.06-1.72,1.87-3.12h0Z"/>
  <path class="cls-2" d="M9,20.04c0,.55-.18.92-.59,1.28-.47.41-.94.53-1.54.39.56-.18.87-.35,1.32-.73.37-.31.56-.53.81-.94h0Z"/>
  <path class="cls-1" d="M0,20.29c.45.22.74.29,1.24.31.78.04,1.17-.7,1.93-.54,1.04.22,1.72,1.06,1.72,2.13-.72.68-1.44.91-2.42.76-1.4-.21-2.37-1.25-2.47-2.67h0Z"/>
  <path class="cls-2" d="M.52,20.98c.12.53.36.86.84,1.13.54.31,1.03.33,1.59.07-.59-.06-.92-.16-1.44-.44-.43-.23-.66-.4-.99-.75h0Z"/>
  <path class="cls-1" d="M9.44,15.88c-.42.19-.7.26-1.16.27-.73.02-1.08-.67-1.8-.53-.98.19-1.63.96-1.64,1.96.66.65,1.33.87,2.25.75,1.31-.17,2.24-1.13,2.36-2.45h0Z"/>
  <path class="cls-2" d="M8.95,16.52c-.12.5-.35.8-.8,1.04-.51.28-.97.29-1.49.03.55-.05.87-.14,1.36-.39.4-.21.62-.36.94-.69h0Z"/>
  <path class="cls-1" d="M.7,14.85c.36.29.61.42,1.06.54.7.2,1.21-.39,1.87-.08.9.42,1.35,1.33,1.12,2.3-.8.47-1.5.52-2.36.19-1.24-.48-1.9-1.64-1.69-2.95h0Z"/>
  <path class="cls-2" d="M1.03,15.59c0,.51.15.86.53,1.2.43.39.87.51,1.44.39-.52-.18-.81-.34-1.22-.7-.34-.3-.51-.5-.74-.89h0Z"/>
  <path class="cls-1" d="M10.29,12.88c-.43.09-.69.09-1.12,0-.67-.13-.84-.84-1.52-.86-.93-.03-1.68.53-1.91,1.44.47.73,1.03,1.07,1.89,1.16,1.23.12,2.28-.56,2.66-1.74h0Z"/>
  <path class="cls-2" d="M9.71,13.36c-.22.43-.49.65-.95.78-.52.15-.94.06-1.36-.28.51.07.82.06,1.32-.07.41-.1.64-.2,1-.43h0Z"/>
  <path class="cls-1" d="M2.55,10.11c.27.34.47.51.85.72.6.33,1.18-.1,1.72.32.73.57.95,1.49.54,2.33-.82.26-1.48.16-2.19-.33-1.02-.7-1.38-1.89-.92-3.04h0Z"/>
  <path class="cls-2" d="M2.69,10.85c-.11.47-.04.81.23,1.21.31.45.68.65,1.22.66-.44-.27-.66-.48-.96-.9-.25-.34-.36-.57-.49-.97h0Z"/>
  <path class="cls-1" d="M11.7,10.33c-.41,0-.65-.06-1.02-.23-.58-.26-.59-.94-1.21-1.11-.84-.23-1.64.13-2.04.91.27.76.71,1.19,1.48,1.45,1.1.37,2.19-.03,2.79-1.02h0Z"/>
  <path class="cls-2" d="M11.06,10.65c-.29.34-.58.49-1.03.51-.51.02-.87-.14-1.18-.54.45.17.73.22,1.21.21.4,0,.62-.05,1-.18h0Z"/>
  <path class="cls-1" d="M5.23,6.18c.17.37.32.56.63.84.48.42,1.1.16,1.5.65.55.68.55,1.56,0,2.23-.81.06-1.38-.16-1.93-.76-.78-.85-.86-2.01-.2-2.96h0Z"/>
  <path class="cls-2" d="M5.21,6.88c-.2.4-.21.73-.05,1.15.19.47.48.73.98.86-.34-.34-.5-.58-.69-1.02-.15-.36-.21-.59-.24-.98h0Z"/>
  <path class="cls-1" d="M13.51,8.31c-.37-.09-.58-.19-.88-.42-.47-.36-.34-.98-.87-1.26-.72-.38-1.53-.23-2.05.4.09.75.4,1.24,1.04,1.63.92.57,2,.43,2.75-.34h0Z"/>
  <path class="cls-2" d="M12.87,8.46c-.33.25-.63.32-1.04.25-.47-.09-.76-.31-.96-.74.37.25.62.36,1.06.45.36.08.58.09.95.05h0Z"/>
  <path class="cls-1" d="M8.5,3.17c.08.37.17.58.39.89.34.49.97.37,1.23.91.36.73.17,1.53-.47,2.03-.75-.11-1.22-.44-1.59-1.09-.53-.94-.36-2.01.44-2.74h0Z"/>
  <path class="cls-2" d="M8.33,3.8c-.26.32-.34.62-.28,1.03.07.47.29.77.71.99-.24-.38-.34-.63-.41-1.07-.06-.36-.07-.58-.01-.95h0Z"/>
  <path class="cls-1" d="M15.61,6.9c-.32-.16-.48-.3-.71-.57-.36-.43-.1-.96-.52-1.33-.57-.5-1.34-.52-1.95-.07-.08.7.1,1.21.6,1.7.72.71,1.73.81,2.58.26h0Z"/>
  <path class="cls-2" d="M15,6.9c-.36.16-.64.16-1,0-.41-.18-.63-.44-.72-.88.28.31.49.46.87.63.31.15.51.2.85.24h0Z"/>
  <path class="cls-1" d="M12.13,1.17c0,.35.04.57.17.89.21.51.8.54.93,1.09.17.74-.17,1.43-.86,1.75-.66-.26-1.02-.66-1.22-1.33-.29-.97.09-1.91.98-2.4h0Z"/>
  <path class="cls-2" d="M11.84,1.71c-.31.24-.44.49-.47.88-.03.44.1.76.44,1.05-.14-.4-.17-.64-.15-1.06.02-.34.06-.54.19-.86h0Z"/>
  <path class="cls-1" d="M17.79,5.95c-.25-.21-.38-.37-.53-.67-.23-.47.11-.9-.2-1.32-.42-.57-1.11-.76-1.76-.47-.22.62-.16,1.12.19,1.68.5.8,1.4,1.1,2.29.78h0Z"/>
  <path class="cls-2" d="M17.23,5.82c-.36.07-.62.01-.91-.21-.33-.25-.48-.54-.47-.95.19.34.35.52.66.76.25.2.42.29.73.4h0Z"/>
  <path class="cls-1" d="M15.82,0c-.08.32-.09.52-.03.85.08.51.62.66.62,1.18,0,.71-.45,1.27-1.15,1.41-.54-.37-.79-.81-.83-1.47-.06-.94.49-1.72,1.39-1.98h0Z"/>
  <path class="cls-2" d="M15.44.43c-.33.15-.51.35-.62.7-.12.39-.07.71.18,1.04-.04-.39-.02-.62.09-1,.09-.31.17-.48.35-.75h0Z"/>
  <path class="cls-1" d="M20.09,2.51c-.32-.01-.5.01-.8.12-.47.17-.51.7-.99.79-.66.13-1.27-.19-1.53-.81.25-.58.62-.89,1.22-1.04.87-.23,1.69.14,2.1.94h0Z"/>
  <path class="cls-2" d="M19.62,2.23c-.2-.28-.42-.41-.77-.45-.39-.05-.68.06-.94.36.36-.11.58-.13.95-.1.31.03.48.07.76.19h0Z"/>
  <path class="cls-1" d="M16.9,2.71c-6.01,2.2-9.5,5.28-11.63,11.32-3.95,11.24,4.2,22.33,16.31,25.93,3.64,1.08,6.09,1.3,8.31,4.86h2.14c-2.31-3.7-6.39-4.62-10.18-5.75C9.91,35.51,1.97,25.04,5.78,14.21c2.07-5.89,5.33-9.17,11.2-11.31l-.07-.18h0Z"/>
  <path class="cls-1" d="M33.27,32.13c-.15.68-.16,1.11-.04,1.8.2,1.08,1.33,1.38,1.35,2.48.03,1.5-.91,2.69-2.37,3.03-1.16-.77-1.7-1.69-1.81-3.07-.16-1.99.96-3.64,2.87-4.23h0Z"/>
  <path class="cls-2" d="M32.49,33.06c-.69.34-1.06.77-1.28,1.51-.25.84-.12,1.51.41,2.2-.1-.82-.07-1.32.15-2.11.18-.66.34-1.02.72-1.59h0Z"/>
  <path class="cls-1" d="M37.53,44.67c-.54-.44-.81-.77-1.13-1.39-.51-.97.2-1.9-.46-2.78-.9-1.2-2.37-1.56-3.73-.93-.44,1.32-.3,2.37.47,3.54,1.1,1.66,3,2.28,4.87,1.57h0Z"/>
  <path class="cls-2" d="M36.34,44.42c-.75.16-1.31.05-1.93-.4-.71-.51-1.03-1.12-1.03-1.99.42.71.76,1.08,1.42,1.58.54.41.9.59,1.55.81h0Z"/>
  <path class="cls-1" d="M36.65,30.25c0,.65.08,1.04.34,1.64.41.94,1.5.98,1.75,1.97.34,1.36-.26,2.64-1.52,3.26-1.22-.46-1.9-1.18-2.29-2.42-.56-1.77.11-3.52,1.72-4.45h0Z"/>
  <path class="cls-2" d="M36.13,31.26c-.56.45-.8.92-.85,1.64-.05.81.21,1.4.84,1.92-.27-.72-.34-1.18-.31-1.95.02-.64.1-1,.32-1.6h0Z"/>
  <path class="cls-1" d="M43.15,40.77c-.59-.29-.9-.53-1.33-1.03-.67-.78-.22-1.77-1.01-2.43-1.07-.9-2.49-.93-3.59-.06-.12,1.29.23,2.23,1.17,3.12,1.35,1.28,3.21,1.44,4.76.41h0Z"/>
  <path class="cls-2" d="M42.02,40.79c-.65.31-1.18.32-1.85.04-.75-.31-1.17-.8-1.35-1.59.54.56.92.82,1.62,1.14.58.26.94.35,1.58.41h0Z"/>
  <path class="cls-1" d="M39.99,28.25c.14.59.3.93.66,1.42.57.77,1.57.57,2,1.43.6,1.17.32,2.46-.7,3.28-1.2-.16-1.98-.67-2.6-1.72-.89-1.5-.64-3.23.63-4.42h0Z"/>
  <path class="cls-2" d="M39.73,29.28c-.42.53-.54,1.01-.43,1.67.13.75.48,1.23,1.17,1.57-.39-.6-.56-1.01-.69-1.71-.11-.58-.12-.93-.05-1.52h0Z"/>
  <path class="cls-1" d="M48.13,36.46c-.6-.14-.93-.3-1.42-.66-.77-.57-.57-1.57-1.43-2-1.17-.59-2.46-.32-3.28.7.16,1.2.67,1.98,1.72,2.6,1.5.89,3.23.64,4.42-.63h0Z"/>
  <path class="cls-2" d="M47.1,36.72c-.53.42-1.01.54-1.67.43-.75-.13-1.23-.48-1.57-1.17.6.39,1.01.56,1.72.69.58.11.93.12,1.52.05h0Z"/>
  <path class="cls-1" d="M42.42,25.39c.25.51.46.78.9,1.16.68.58,1.55.19,2.12.88.79.94.81,2.17.05,3.14-1.13.11-1.94-.2-2.72-1.02-1.12-1.18-1.26-2.8-.35-4.15h0Z"/>
  <path class="cls-2" d="M42.4,26.38c-.27.57-.28,1.03-.04,1.61.27.66.7,1.02,1.39,1.18-.49-.47-.72-.8-.99-1.42-.23-.51-.31-.82-.36-1.38h0Z"/>
  <path class="cls-1" d="M51.55,31.16c-.57,0-.91-.07-1.43-.3-.82-.36-.85-1.31-1.72-1.52-1.19-.3-2.31.23-2.84,1.33.4,1.06,1.03,1.66,2.11,2,1.55.49,3.07-.1,3.89-1.5h0Z"/>
  <path class="cls-2" d="M50.67,31.61c-.4.49-.8.7-1.43.74-.71.04-1.22-.18-1.67-.73.63.23,1.03.3,1.71.27.55-.02.88-.08,1.4-.28h0Z"/>
  <path class="cls-1" d="M43.98,22.36c.34.41.59.62,1.06.86.74.39,1.45-.15,2.12.35.91.69,1.19,1.81.71,2.84-1.01.33-1.81.23-2.69-.35-1.27-.84-1.74-2.29-1.19-3.71h0Z"/>
  <path class="cls-2" d="M44.17,23.26c-.12.57-.04,1,.3,1.48.39.54.85.78,1.52.78-.54-.32-.82-.58-1.2-1.08-.31-.42-.45-.69-.62-1.18h0Z"/>
  <path class="cls-1" d="M53.5,25.68c-.52.12-.84.12-1.37.03-.82-.15-1.05-1.01-1.89-1.03-1.14-.02-2.05.69-2.31,1.8.59.88,1.28,1.29,2.34,1.38,1.51.12,2.78-.73,3.22-2.19h0Z"/>
  <path class="cls-2" d="M52.79,26.28c-.26.53-.58.81-1.15.97-.64.19-1.15.09-1.68-.32.62.08,1,.05,1.61-.11.5-.13.78-.26,1.21-.55h0Z"/>
  <path class="cls-1" d="M44.76,19.26c.39.31.67.44,1.15.56.76.2,1.29-.44,2-.12.97.43,1.46,1.4,1.24,2.44-.85.52-1.6.59-2.53.24-1.33-.49-2.06-1.72-1.87-3.12h0Z"/>
  <path class="cls-2" d="M45.12,20.05c0,.55.18.91.59,1.28.46.41.94.53,1.54.4-.56-.18-.87-.35-1.32-.73-.37-.31-.56-.53-.81-.94h0Z"/>
  <path class="cls-1" d="M54.12,20.29c-.45.22-.74.29-1.24.31-.78.04-1.17-.7-1.93-.54-1.04.22-1.72,1.06-1.72,2.13.72.68,1.44.91,2.42.76,1.4-.21,2.37-1.25,2.47-2.67h0Z"/>
  <path class="cls-2" d="M53.6,20.99c-.12.53-.36.86-.84,1.13-.54.31-1.03.33-1.59.06.59-.06.92-.16,1.44-.44.43-.23.65-.4.99-.75h0Z"/>
  <path class="cls-1" d="M44.68,15.88c.42.19.7.26,1.16.27.73.02,1.08-.67,1.8-.53.98.19,1.63.96,1.64,1.96-.66.65-1.33.87-2.25.75-1.32-.17-2.24-1.13-2.36-2.45h0Z"/>
  <path class="cls-2" d="M45.18,16.52c.12.5.35.8.8,1.04.51.28.97.29,1.49.04-.55-.05-.87-.14-1.36-.39-.4-.21-.62-.36-.94-.69h0Z"/>
  <path class="cls-1" d="M53.42,14.85c-.36.29-.61.42-1.06.54-.7.2-1.21-.39-1.87-.08-.9.42-1.35,1.33-1.12,2.3.8.47,1.5.52,2.36.19,1.23-.48,1.9-1.64,1.69-2.95h0Z"/>
  <path class="cls-2" d="M53.1,15.59c0,.51-.15.86-.53,1.2-.43.39-.87.51-1.44.39.52-.18.81-.34,1.22-.7.34-.3.51-.5.74-.89h0Z"/>
  <path class="cls-1" d="M43.83,12.89c.43.09.69.09,1.12,0,.67-.13.84-.84,1.52-.86.93-.03,1.68.53,1.91,1.44-.47.73-1.03,1.07-1.89,1.16-1.23.12-2.27-.56-2.66-1.74h0Z"/>
  <path class="cls-2" d="M44.42,13.37c.22.43.49.65.95.78.52.15.94.06,1.36-.28-.51.07-.82.06-1.32-.07-.41-.1-.64-.2-1-.43h0Z"/>
  <path class="cls-1" d="M51.57,10.11c-.27.34-.47.51-.85.72-.6.33-1.18-.1-1.72.32-.73.57-.95,1.49-.54,2.33.82.26,1.48.16,2.19-.33,1.02-.7,1.38-1.89.92-3.04h0Z"/>
  <path class="cls-2" d="M51.43,10.85c.11.47.04.81-.23,1.21-.31.45-.68.65-1.22.66.44-.27.66-.48.96-.9.25-.34.36-.57.49-.97h0Z"/>
  <path class="cls-1" d="M42.43,10.34c.41,0,.65-.06,1.02-.23.58-.26.59-.94,1.21-1.11.84-.23,1.64.13,2.04.91-.27.76-.71,1.19-1.48,1.45-1.1.37-2.19-.03-2.79-1.02h0Z"/>
  <path class="cls-2" d="M43.06,10.65c.29.34.58.49,1.03.51.51.02.87-.14,1.18-.54-.45.17-.73.22-1.21.21-.39,0-.62-.05-1-.18h0Z"/>
  <path class="cls-1" d="M48.89,6.18c-.17.37-.32.56-.63.83-.48.42-1.1.16-1.5.65-.55.68-.55,1.56,0,2.23.81.06,1.38-.16,1.93-.76.78-.85.86-2.01.2-2.96h0Z"/>
  <path class="cls-2" d="M48.92,6.89c.2.4.21.73.05,1.15-.19.47-.48.73-.98.86.34-.34.5-.58.69-1.02.15-.36.21-.59.24-.98h0Z"/>
  <path class="cls-1" d="M40.61,8.31c.37-.09.58-.19.88-.42.47-.36.34-.98.87-1.26.72-.38,1.53-.23,2.05.4-.09.75-.4,1.24-1.04,1.63-.92.57-2,.43-2.75-.35h0Z"/>
  <path class="cls-2" d="M41.25,8.46c.33.25.63.32,1.04.25.47-.09.76-.31.96-.74-.37.25-.62.36-1.06.45-.36.08-.58.09-.95.05h0Z"/>
  <path class="cls-1" d="M45.62,3.17c-.08.37-.17.58-.39.89-.34.49-.97.37-1.23.91-.36.73-.17,1.53.47,2.03.75-.11,1.22-.44,1.59-1.09.53-.94.36-2.01-.44-2.74h0Z"/>
  <path class="cls-2" d="M45.8,3.81c.26.32.34.62.28,1.03-.07.47-.29.77-.71.99.24-.38.34-.63.41-1.07.06-.36.07-.58.01-.95h0Z"/>
  <path class="cls-1" d="M38.51,6.91c.32-.16.48-.3.71-.57.36-.43.1-.96.52-1.33.57-.5,1.34-.52,1.95-.07.08.7-.1,1.21-.6,1.7-.72.71-1.73.81-2.58.26h0Z"/>
  <path class="cls-2" d="M39.13,6.91c.36.16.64.16,1,0,.41-.18.63-.44.72-.88-.29.31-.49.46-.87.63-.31.15-.51.2-.85.24h0Z"/>
  <path class="cls-1" d="M41.99,1.17c0,.35-.04.57-.17.89-.21.52-.8.54-.93,1.09-.17.74.17,1.43.85,1.75.66-.26,1.02-.66,1.22-1.33.29-.97-.09-1.91-.98-2.4h0Z"/>
  <path class="cls-2" d="M42.28,1.72c.31.24.44.49.48.88.03.44-.1.76-.44,1.05.14-.4.17-.65.15-1.06-.02-.34-.06-.54-.19-.86h0Z"/>
  <path class="cls-1" d="M36.34,5.96c.25-.21.38-.37.53-.67.23-.47-.11-.9.2-1.32.42-.57,1.11-.76,1.76-.47.22.62.16,1.12-.19,1.68-.51.8-1.4,1.1-2.29.78h0Z"/>
  <path class="cls-2" d="M36.9,5.83c.36.07.62.01.91-.21.33-.25.48-.54.47-.95-.19.34-.35.52-.66.76-.25.2-.42.29-.73.4h0Z"/>
  <path class="cls-1" d="M38.3,0c.08.32.09.52.03.85-.08.51-.62.66-.62,1.18,0,.71.45,1.27,1.15,1.41.54-.37.79-.81.83-1.47.06-.94-.49-1.72-1.39-1.98h0Z"/>
  <path class="cls-2" d="M38.68.44c.33.15.51.36.62.7.12.39.07.71-.18,1.04.04-.39.02-.62-.09-1-.09-.31-.17-.48-.35-.75h0Z"/>
  <path class="cls-1" d="M34.03,2.51c.32-.01.5.02.8.13.47.17.51.7.99.79.66.13,1.27-.19,1.53-.81-.25-.58-.62-.89-1.22-1.04-.87-.23-1.69.14-2.1.94h0Z"/>
  <path class="cls-2" d="M34.5,2.23c.2-.28.42-.41.77-.45.39-.05.68.06.94.36-.36-.11-.58-.13-.95-.1-.31.03-.48.07-.76.19h0Z"/>
  <path class="cls-1" d="M37.22,2.71c6.01,2.2,9.5,5.28,11.63,11.32,3.95,11.24-4.2,22.33-16.31,25.93-3.64,1.08-6.09,1.3-8.31,4.86h-2.14c2.31-3.7,6.39-4.62,10.18-5.75,11.95-3.55,19.89-14.03,16.08-24.86-2.07-5.89-5.33-9.17-11.2-11.31l.07-.18h0Z"/>
  <path class="cls-1" d="M28.07,15.37c3.85,0,5.87,3.27,5.87,6.71,0,4.28-2.77,7.19-6.67,7.19-2.31,0-4.09-1.16-5.08-2.41-1.13-1.47-2-3.37-2-7.46,0-3.25.43-11.07,7.36-11.07,4.26,0,6.09,3.08,6.09,4.67,0,.72-.53,1.97-2.53,1.97-1.85,0-2.17-.79-2.5-1.56-.19-.46-.7-.6-1.13-.6-.55,0-1.64,0-1.9,3.39.75-.67,1.59-.84,2.48-.84ZM25.45,22.25c0,2.12,1.01,2.55,1.56,2.55.6,0,1.59-.48,1.59-2.55s-.96-2.55-1.59-2.55c-.53,0-1.56.41-1.56,2.55Z"/>
</svg>