<?xml version="1.0" encoding="UTF-8"?>
<svg xmlns="http://www.w3.org/2000/svg" version="1.1" viewBox="0 0 131.643 42.111">
  <defs>
    <style>
      .cls-1 {
        fill: none;
        stroke: #000;
        stroke-miterlimit: 10;
        stroke-width: 2.258px;
      }

      .cls-2 {
        font-family: NotoSansCJKjp-Black-83pv-RKSJ-H, 'Noto Sans CJK JP';
        font-size: 15.057px;
        font-weight: 800;
      }
    </style>
  </defs>
  <!-- Generator: Adobe Illustrator 28.7.1, SVG Export Plug-In . SVG Version: 1.2.0 Build 142)  -->
  <g>
    <g id="Layer_1">
      <g>
        <text class="cls-2" transform="translate(16.859 26.376)"><tspan x="0" y="0">YOUTUBE</tspan></text>
        <g>
          <path d="M97.198,20.535c-.042-7.713,6.303-14.028,14.028-14.021,7.71.007,14.022,6.322,14.008,14.05-.014,7.697-6.319,14.001-14.037,13.993-7.718-.008-14.043-6.321-13.999-14.022ZM111.199,32.16c6.397-.007,11.607-5.171,11.633-11.578.026-6.417-5.2-11.664-11.596-11.671-6.408-.007-11.648,5.22-11.65,11.621-.002,6.395,5.222,11.625,11.613,11.628Z"/>
          <path d="M108.857,20.55c0-1.284,0-2.569,0-3.853,0-.118-.002-.238.013-.355.091-.699.681-.954,1.255-.538,1.865,1.353,3.727,2.71,5.592,4.064.205.149.385.312.42.578.048.364-.15.599-.424.797-1.24.897-2.477,1.797-3.715,2.696-.641.465-1.278.937-1.927,1.392-.394.277-.844.2-1.077-.161-.129-.2-.137-.43-.137-.659,0-1.321,0-2.642,0-3.962Z"/>
        </g>
        <rect class="cls-1" x="1.129" y="1.129" width="129.384" height="38.812" rx="19.406" ry="19.406"/>
      </g>
    </g>
  </g>
</svg>