<?xml version="1.0" encoding="UTF-8"?>
<svg id="Layer_1" data-name="Layer 1" xmlns="http://www.w3.org/2000/svg" viewBox="0 0 324.307 42.972">
  <defs>
    <style>
      .cls-1, .cls-2 {
        fill: #e48038;
      }

      .cls-3 {
        fill: #fff;
      }

      .cls-4 {
        fill: #84bed5;
      }

      .cls-2 {
        fill-rule: evenodd;
      }
    </style>
  </defs>
  <g>
    <path class="cls-1" d="m181.392,27.577c.976,1.183,2.159,2.188,6.92,3.371,1.034.266,2.04.592,2.04,2.011,0,.916-.562,2.602-2.336,2.602-1.834,0-8.368-2.188-11.148-6.978-1.33,2.011-3.193,3.488-5.085,4.612-1.656.946-4.406,2.336-6.15,2.336s-2.307-1.774-2.307-2.661c0-.562.178-1.006.533-1.33.473-.444.68-.504,3.637-1.331.532-.148,2.986-.976,4.671-2.632h-7.303c-1.626,0-2.158-.739-2.158-2.218,0-1.921,1.537-1.981,2.158-1.981h.946v-3.104c0-2.839,1.331-3.578,3.578-3.578h5.204c0-1.538.296-2.396,2.365-2.396,2.011,0,2.011,1.538,2.011,2.396h5.174c2.218,0,3.578.71,3.578,3.578v3.104h.917c1.626,0,2.158.739,2.158,2.248,0,1.893-1.508,1.951-2.158,1.951h-7.245Zm-.739-17.859v-.709c0-1.479,1.449-1.597,2.041-1.597,1.064,0,2.395.118,2.395,1.597v.709h3.577c.651,0,2.159.06,2.159,1.952,0,1.508-.532,2.247-2.159,2.247h-3.577v.65c0,1.359-.976,1.744-2.13,1.744-1.33,0-2.306-.385-2.306-1.744v-.65h-7.835v.65c0,1.39-1.183,1.744-2.07,1.744s-2.247-.236-2.247-1.744v-.65h-3.608c-.65,0-2.158-.06-2.158-1.981,0-1.479.503-2.218,2.158-2.218h3.608v-.709c0-1.479,1.419-1.597,1.981-1.597.917,0,2.336.089,2.336,1.597v.709h7.835Zm-6.061,10.852h-3.637c-.503,0-.828.267-.828.799v2.01h4.287c.089-.384.178-.976.178-1.833v-.976Zm4.376.681c0,.62-.059,1.448-.148,2.128h4.435v-2.01c0-.532-.296-.799-.798-.799h-3.489v.681Z"/>
    <path class="cls-1" d="m203.177,12.615c.503,0,1.804,0,1.804,1.687,0,1.271-.414,1.922-1.804,1.922h-8.19c-.561,0-1.833-.03-1.833-1.805,0-1.597.946-1.804,1.833-1.804h8.19Zm-.827-4.228c.502,0,1.803.029,1.803,1.655,0,1.509-1.035,1.656-1.803,1.656h-6.653c-.562,0-1.804-.03-1.804-1.626,0-1.479.976-1.686,1.804-1.686h6.653Zm-.178,8.723c.532,0,1.833,0,1.833,1.744,0,1.567-1.005,1.744-1.833,1.744h-6.446c-.502,0-1.833,0-1.833-1.744,0-1.597,1.094-1.744,1.833-1.744h6.446Zm0,4.405c.473,0,1.833,0,1.833,1.715,0,1.745-1.301,1.745-1.951,1.745h-6.328c-.473,0-1.833,0-1.833-1.715,0-1.656,1.183-1.745,1.833-1.745h6.446Zm1.804,10.083c0,2.779-.473,3.37-3.311,3.37h-3.312c-2.809,0-3.312-.562-3.312-3.37v-2.366c0-2.868.533-3.37,3.341-3.37h3.223c2.78,0,3.371.474,3.371,3.37v2.366Zm-3.607-2.011c0-.325-.178-.532-.533-.532h-1.241c-.385,0-.562.207-.562.532v1.566c0,.355.206.563.562.563h1.241c.355,0,.533-.237.533-.563v-1.566Zm15.464-16.145c2.868,0,3.518.739,3.518,3.549v2.128h.444c1.33,0,1.626.946,1.626,1.745,0,1.745-1.064,1.862-1.833,1.862h-13.572c-.473,0-1.863,0-1.863-1.715,0-1.478.71-1.893,1.863-1.893h1.597c.029-.059.325-1.034.621-2.424h-1.006c-.413,0-1.803,0-1.803-1.597,0-1.656,1.36-1.656,1.803-1.656h1.745c.118-.562.148-.887.236-1.508h-2.513c-.473,0-1.863,0-1.863-1.774,0-1.803,1.361-1.803,1.863-1.803h12.419c.473,0,1.862,0,1.862,1.773,0,1.804-1.36,1.804-1.862,1.804h-5.589c-.118.68-.148.739-.295,1.508h2.602Zm4.169,17.771c0,3.135-.592,3.755-3.726,3.755h-6.919c-3.134,0-3.755-.591-3.755-3.755v-3.312c0-3.135.592-3.726,3.755-3.726h6.919c3.105,0,3.726.562,3.726,3.726v3.312Zm-4.228-2.661c0-.532-.444-.739-.71-.739h-4.524c-.296,0-.739.207-.739.739v1.981c0,.473.414.739.739.739h4.524c.236,0,.71-.178.71-.739v-1.981Zm-3.253-11.856c-.118.591-.296,1.301-.591,2.424h3.134v-1.715c0-.62-.503-.709-.71-.709h-1.833Z"/>
    <path class="cls-1" d="m181.392,27.577c.976,1.183,2.159,2.188,6.92,3.371,1.034.266,2.04.592,2.04,2.011,0,.916-.562,2.602-2.336,2.602-1.834,0-8.368-2.188-11.148-6.978-1.33,2.011-3.193,3.488-5.085,4.612-1.656.946-4.406,2.336-6.15,2.336s-2.307-1.774-2.307-2.661c0-.562.178-1.006.533-1.33.473-.444.68-.504,3.637-1.331.532-.148,2.986-.976,4.671-2.632h-7.303c-1.626,0-2.158-.739-2.158-2.218,0-1.921,1.537-1.981,2.158-1.981h.946v-3.104c0-2.839,1.331-3.578,3.578-3.578h5.204c0-1.538.296-2.396,2.365-2.396,2.011,0,2.011,1.538,2.011,2.396h5.174c2.218,0,3.578.71,3.578,3.578v3.104h.917c1.626,0,2.158.739,2.158,2.248,0,1.893-1.508,1.951-2.158,1.951h-7.245Zm-.739-17.859v-.709c0-1.479,1.449-1.597,2.041-1.597,1.064,0,2.395.118,2.395,1.597v.709h3.577c.651,0,2.159.06,2.159,1.952,0,1.508-.532,2.247-2.159,2.247h-3.577v.65c0,1.359-.976,1.744-2.13,1.744-1.33,0-2.306-.385-2.306-1.744v-.65h-7.835v.65c0,1.39-1.183,1.744-2.07,1.744s-2.247-.236-2.247-1.744v-.65h-3.608c-.65,0-2.158-.06-2.158-1.981,0-1.479.503-2.218,2.158-2.218h3.608v-.709c0-1.479,1.419-1.597,1.981-1.597.917,0,2.336.089,2.336,1.597v.709h7.835Zm-6.061,10.852h-3.637c-.503,0-.828.267-.828.799v2.01h4.287c.089-.384.178-.976.178-1.833v-.976Zm4.376.681c0,.62-.059,1.448-.148,2.128h4.435v-2.01c0-.532-.296-.799-.798-.799h-3.489v.681Z"/>
    <path class="cls-1" d="m203.177,12.615c.503,0,1.804,0,1.804,1.687,0,1.271-.414,1.922-1.804,1.922h-8.19c-.561,0-1.833-.03-1.833-1.805,0-1.597.946-1.804,1.833-1.804h8.19Zm-.827-4.228c.502,0,1.803.029,1.803,1.655,0,1.509-1.035,1.656-1.803,1.656h-6.653c-.562,0-1.804-.03-1.804-1.626,0-1.479.976-1.686,1.804-1.686h6.653Zm-.178,8.723c.532,0,1.833,0,1.833,1.744,0,1.567-1.005,1.744-1.833,1.744h-6.446c-.502,0-1.833,0-1.833-1.744,0-1.597,1.094-1.744,1.833-1.744h6.446Zm0,4.405c.473,0,1.833,0,1.833,1.715,0,1.745-1.301,1.745-1.951,1.745h-6.328c-.473,0-1.833,0-1.833-1.715,0-1.656,1.183-1.745,1.833-1.745h6.446Zm1.804,10.083c0,2.779-.473,3.37-3.311,3.37h-3.312c-2.809,0-3.312-.562-3.312-3.37v-2.366c0-2.868.533-3.37,3.341-3.37h3.223c2.78,0,3.371.474,3.371,3.37v2.366Zm-3.607-2.011c0-.325-.178-.532-.533-.532h-1.241c-.385,0-.562.207-.562.532v1.566c0,.355.206.563.562.563h1.241c.355,0,.533-.237.533-.563v-1.566Zm15.464-16.145c2.868,0,3.518.739,3.518,3.549v2.128h.444c1.33,0,1.626.946,1.626,1.745,0,1.745-1.064,1.862-1.833,1.862h-13.572c-.473,0-1.863,0-1.863-1.715,0-1.478.71-1.893,1.863-1.893h1.597c.029-.059.325-1.034.621-2.424h-1.006c-.413,0-1.803,0-1.803-1.597,0-1.656,1.36-1.656,1.803-1.656h1.745c.118-.562.148-.887.236-1.508h-2.513c-.473,0-1.863,0-1.863-1.774,0-1.803,1.361-1.803,1.863-1.803h12.419c.473,0,1.862,0,1.862,1.773,0,1.804-1.36,1.804-1.862,1.804h-5.589c-.118.68-.148.739-.295,1.508h2.602Zm4.169,17.771c0,3.135-.592,3.755-3.726,3.755h-6.919c-3.134,0-3.755-.591-3.755-3.755v-3.312c0-3.135.592-3.726,3.755-3.726h6.919c3.105,0,3.726.562,3.726,3.726v3.312Zm-4.228-2.661c0-.532-.444-.739-.71-.739h-4.524c-.296,0-.739.207-.739.739v1.981c0,.473.414.739.739.739h4.524c.236,0,.71-.178.71-.739v-1.981Zm-3.253-11.856c-.118.591-.296,1.301-.591,2.424h3.134v-1.715c0-.62-.503-.709-.71-.709h-1.833Z"/>
    <path class="cls-1" d="m242.595,19.903c.824,0,1.648.309,1.648,1.57,0,1.029-.515,1.596-1.648,1.596h-6.668v6.642c0,1.056-.488,1.647-1.544,1.647-.721,0-1.596-.231-1.596-1.647v-6.642h-6.668c-.849,0-1.647-.335-1.647-1.57,0-1.056.515-1.596,1.647-1.596h6.668v-6.668c0-1.056.515-1.621,1.544-1.621.67,0,1.596.18,1.596,1.621v6.668h6.668Z"/>
    <path class="cls-1" d="m252.44,9.695c-.056-.141-.112-.294-.196-.477-.126-.295-.197-.463-.197-.672,0-.814,1.094-.912,1.374-.912.393,0,.813.057,1.234,1.233.083.21.196.603.168.827h1.093c.196-.379.323-.631.49-1.066.225-.573.393-.91,1.094-.91.477,0,1.346.225,1.346,1.01,0,.266-.085.406-.421.98.757.126,1.318.449,1.318,1.738v.925c0,.926-.463,1.136-1.15,1.136-.168,0-.378-.014-.547-.07-.041.687-.448.968-.84,1.22-.828.519-1.234.7-1.71.911h3.532c.252,0,1.121,0,1.121,1.037,0,.967-.701,1.066-1.121,1.066h-4.36v1.568c0,1.738-.827,1.837-2.537,1.837-.574,0-1.415,0-1.723-.07-.575-.141-.687-.813-.687-1.122,0-.967.729-1.051,1.079-1.051.154,0,.799.014.939.014.42-.014.449-.168.449-.561v-.615h-4.388c-.322,0-1.135-.029-1.135-1.053,0-.869.547-1.051,1.135-1.051h4.388c0-.196,0-.477.532-.631.197-.056.827-.322.827-.463,0-.112-.098-.112-.14-.112h-3.742c-.309,0-.884,0-.953-.91-.098.027-.225.056-.449.056-.771,0-1.205-.252-1.205-1.107v-.953c0-1.22.49-1.668,1.471-1.738-.028-.056-.168-.294-.196-.351-.196-.364-.238-.532-.238-.673,0-.546.645-.953,1.345-.953.421,0,.757.085,1.22,1.065.126.253.266.604.294.897h1.486Zm-3.084,2.705c.07-.014.196-.056.337-.056h6.966c.196,0,.575,0,.771.056v-.477c0-.126-.07-.21-.211-.21h-7.638c-.141,0-.225.084-.225.21v.477Z"/>
    <path class="cls-1" d="m278.355,8.433c.182,0,.939,0,.939.841,0,.827-.757.827-.939.827h-.855c-.084.225-.14.406-.225.603h1.879c.224,0,.925,0,.925.786,0,.826-.631.84-.925.84h-11.55c-.196,0-.939,0-.939-.8,0-.826.729-.826.939-.826h1.962c-.056-.266-.098-.406-.154-.603h-1.009c-.21,0-.925,0-.925-.827,0-.812.673-.841.925-.841h3.798c0-.364.099-.869,1.08-.869.869,0,1.289.183,1.289.869h3.785Zm-3.855,8.858h4.051c.364,0,.743.07.743.673,0,.532-.253.701-.743.701h-4.051v.336h4.654c.252,0,.925,0,.925.813,0,.8-.603.84-.925.84h-11.55c-.21,0-.939,0-.939-.826,0-.812.673-.827.939-.827h4.668v-.336h-4.051c-.211,0-.743,0-.743-.645,0-.477.168-.729.743-.729h4.051v-.336h-2.635c-1.556,0-1.837-.267-1.837-1.837v-.616c0-1.556.266-1.836,1.837-1.836h7.512c1.556,0,1.836.266,1.836,1.836v.616c0,1.557-.266,1.837-1.836,1.837h-2.649v.336Zm-2.228-3.014v-.448h-1.921c-.154,0-.224.084-.224.225v.224h2.145Zm0,1.065h-2.145v.238c0,.141.084.225.224.225h1.921v-.463Zm-.407-5.228c.07.238.084.28.182.588h2.706c.098-.266.098-.294.182-.588h-3.07Zm2.635,4.162h2.173v-.224c0-.141-.07-.225-.225-.225h-1.948v.448Zm0,1.065v.463h1.948c.155,0,.225-.084.225-.225v-.238h-2.173Z"/>
    <path class="cls-1" d="m290.016,19.969c0,.266,0,1.135-1.093,1.135-1.024,0-1.122-.7-1.122-1.135v-4.851c-.785.141-1.416-.588-1.416-1.373,0-.477.168-.743.491-1.22,1.009-1.514,1.36-3.14,1.514-3.854.098-.477.238-.953,1.065-.953.448,0,1.219.126,1.219.939,0,.322-.182,1.43-.658,2.846v8.466Zm1.373-4.051c-.238,0-1.121,0-1.121-1.01,0-.799.378-1.107,1.121-1.107h2.621v-.742h-1.261c-1.107,0-1.752-.38-1.752-1.738v-1.5c0-1.359.645-1.752,1.752-1.752h4.779c1.108,0,1.739.393,1.739,1.752v1.5c0,1.358-.645,1.738-1.739,1.738h-1.331v.742h2.607c.253,0,1.135,0,1.135,1.01,0,.841-.42,1.107-1.135,1.107h-1.542c.799,1.135,1.248,1.541,2.243,2.438.392.351.434.603.434.785,0,.631-.589,1.289-1.219,1.289-.434,0-.673-.209-1.234-.869-.645-.729-1.079-1.43-1.289-1.794v2.187c0,.268,0,1.122-1.037,1.122-.813,0-1.15-.337-1.15-1.122v-2.088c-.322.42-.911,1.219-1.934,2.13-.351.308-.589.407-.841.407-.673,0-1.191-.659-1.191-1.29,0-.462.28-.701.714-1.009.898-.646,1.388-1.01,2.271-2.187h-1.64Zm5.579-5.593c0-.225-.112-.337-.337-.337h-3.013c-.224,0-.337.112-.337.337v.519c0,.224.113.335.337.335h3.013c.225,0,.337-.111.337-.335v-.519Z"/>
    <path class="cls-1" d="m316.812,13.297c.491,0,.771.069,1.009.182-.182-.14-.224-.168-.897-.744-.462.058-1.219.128-3.125.239-.884.043-5.593.239-5.817.239-.785,0-1.108-.267-1.108-1.038,0-.687.337-.91.995-.938.225-.015,1.262-.015,1.501-.015.041-.056.265-.364.546-.841h-2.439c-.701,0-.953-.294-.953-1.009,0-.897.687-.897.953-.897h4.528c-.043-.658.35-.869,1.275-.869.967,0,1.191.28,1.191.869h4.556c.701,0,.953.295.953,1.01,0,.896-.701.896-.953.896h-1.57c2.046,1.317,2.173,1.668,2.173,2.032,0,.561-.547,1.233-1.234,1.233-.224,0-.365-.069-.462-.111.49.322.63.784.63,1.514v4.261c0,.49-.056,1.107-.589,1.485-.238.169-.434.281-2.172.281-1.444,0-2.131,0-2.131-1.094,0-.953.786-.953,1.01-.953.07,0,1.121.028,1.177.028.21,0,.35-.015.35-.253v-.252h-5.915v1.416c0,.715-.28,1.135-1.247,1.135-1.121,0-1.121-.854-1.121-1.135v-4.92c0-1.374.645-1.752,1.752-1.752h7.134Zm-6.518,2.06h5.915v-.238c0-.126-.084-.21-.224-.21h-5.481c-.139,0-.21.084-.21.21v.238Zm5.915,1.388h-5.915v.448h5.915v-.448Zm-3.714-6.363c-.084.126-.49.701-.575.813.029,0,1.612-.028,2.986-.085-.028-.069-.07-.153-.07-.322,0-.195.056-.322.084-.406h-2.425Z"/>
    <path class="cls-1" d="m247.772,34.321c-.799,0-1.093-.688-1.093-1.248,0-.645.406-.896.855-.98.547-.855.729-1.136,1.472-2.369-.505-.574-.73-.827-1.388-1.5-.715-.742-.897-.967-.897-1.443,0-.743.519-1.205.967-1.205.126,0,.224.042.28.069.393-.799.687-1.541.939-2.158.379-.911.603-1.304,1.22-1.304.687,0,1.261.505,1.261,1.136,0,.715-1.275,2.901-1.794,3.798.127.141.21.225.547.604.238-.463.603-1.234.855-1.696.112-.21.322-.575.883-.575.266,0,.449.084.561.127.126-.589.448-.855,1.177-.855h.518v-1.5c0-.42.071-1.135,1.038-1.135.813,0,1.219.252,1.219,1.135v1.5h1.164c1.205,0,2.186,0,2.186,1.794,0,2.131-.028,4.262-.252,6.378-.252,2.368-.771,2.621-2.93,2.621-.224,0-.63,0-.967-.084-.518-.112-.813-.631-.813-1.191,0-.673.365-1.191.982-1.191.126,0,.7.042.826.042.449,0,.589-.07.701-1.416.085-.925.126-3.378.126-4.373,0-.28-.097-.28-.35-.28h-.687c-.084,4.457-1.556,6.532-2.144,7.316-.799,1.037-1.094,1.122-1.472,1.122-.631,0-1.318-.421-1.318-1.107,0-.351.113-.449.421-.869-1.808.448-3.841.841-4.093.841m2.341-2.621c.49-.07.995-.168,1.359-.238-.084-.364-.266-1.149-.266-1.275,0-.07,0-.154.014-.225-.561.897-.659,1.037-1.107,1.738m3.504-4.682c-.112,0-.435,0-.687-.126-.112.266-.574,1.191-1.415,2.593.322-.28.687-.28.784-.28.701,0,.828.364,1.178,1.794.476-1.261.63-2.621.658-3.98h-.518Z"/>
    <path class="cls-1" d="m262.769,33.101c.967-.336,1.864-.645,2.341-2.103.336-1.065.35-1.079.504-1.233.238-.21.603-.224.743-.224.252,0,.645.056.953.279.182.141.28.337.28.631,0,.449-.322,2.019-1.261,3.196-1.037,1.304-2.537,1.85-3.28,1.85-1.051,0-1.163-1.135-1.163-1.289,0-.63.21-.883.883-1.107m2.158-4.303c0,.294,0,1.149-1.121,1.149-.967,0-1.261-.393-1.261-1.149v-5.537c0-.28,0-1.135,1.107-1.135.995,0,1.275.406,1.275,1.135v5.537Zm9.629-1.107c0,1.374-.644,1.752-1.751,1.752h-5.032c-1.107,0-1.752-.378-1.752-1.752v-3.448c0-1.359.645-1.738,1.752-1.738h5.032c1.107,0,1.751.379,1.751,1.738v3.448Zm-6.209-2.621h3.911v-.435c0-.126-.07-.21-.21-.21h-3.49c-.141,0-.211.084-.211.21v.435Zm0,1.766v.477c0,.127.07.211.211.211h3.49c.14,0,.21-.084.21-.211v-.477h-3.911Zm2.958,5.972c0,.336.196.336.42.336h.715c.449,0,.449-.21.491-1.051.014-.491.042-1.149,1.009-1.149,1.205,0,1.205.771,1.205,1.275,0,.7-.084,1.836-.378,2.438-.365.715-.659.743-3.07.743-1.752,0-2.733,0-2.733-1.767v-2.957c0-.267,0-1.135,1.107-1.135.981,0,1.234.435,1.234,1.135v2.131Z"/>
    <path class="cls-1" d="m287.717,24.327c1.43,0,1.542.855,1.542,1.388,0,.673-.533,4.556-3.7,7.036-2.033,1.599-5.158,2.285-5.817,2.285-.799,0-1.192-.659-1.192-1.317,0-.8.421-.897,1.318-1.094,2.089-.462,4.598-1.22,5.985-4.079.364-.757.603-1.611.603-1.752,0-.195-.113-.195-.407-.195h-3.7c-.911,1.148-1.752,1.892-2.243,2.256-.322.252-.673.421-1.037.421-.743,0-1.248-.673-1.248-1.248,0-.462.084-.519,1.108-1.317.182-.14,1.444-1.149,2.481-3.154.336-.658.547-1.051,1.303-1.051.491,0,1.36.253,1.36.939,0,.252-.056.435-.281.883h3.925Z"/>
    <path class="cls-1" d="m293.855,28.854c-.238,0-1.149,0-1.149-1.121,0-.925.575-1.149,1.149-1.149h9.265c.687,0,1.416.21,1.416,1.317,0,.547-.532,4.106-3.798,5.859-2.075,1.107-4.416,1.275-4.738,1.275-.266,0-.659-.015-.967-.393-.196-.252-.294-.603-.294-.897,0-.854.63-.98.981-1.023,2.228-.294,4.345-.574,5.55-2.564.266-.435.463-.939.463-1.093,0-.183-.098-.211-.323-.211h-7.555Zm8.803-5.747c.252,0,1.135,0,1.135,1.136,0,1.107-.757,1.163-1.135,1.163h-7.737c-.252,0-1.136,0-1.136-1.135,0-1.121.799-1.164,1.136-1.164h7.737Z"/>
    <path class="cls-1" d="m309.524,25.434c-.533,0-1.206-.21-1.206-1.178,0-.784.435-1.191,1.206-1.191h6.728c.575,0,1.724.042,1.724,1.374,0,.967-.911,3.069-2.145,4.809,1.29.91,2.243,1.709,3.28,2.634.533.477.827.8.827,1.346,0,.785-.687,1.402-1.43,1.402-.546,0-.826-.309-1.163-.688-.757-.854-2.032-2.116-2.958-2.915-1.597,1.738-4.303,3.742-5.34,3.742-.658,0-1.191-.673-1.191-1.359,0-.561.252-.701,1.135-1.191,4.626-2.565,5.972-6.462,5.972-6.63,0-.154-.155-.154-.295-.154h-5.144Z"/>
  </g>
  <g>
    <path class="cls-2" d="m67.158,6.838c-.047.126-.039.5-.018.653.028.033.113.312.143.384.098.234.252.461.428.621.084.077.181.163.28.228l.027.015c.035.013.027.007.048.03.057.01.117.04.181.061.065.021.134.035.206.049.174.031.29.017.458.024.022-.019.026-.014.062-.019.08-.014.158-.051.198-.094.072-.077.074-.054.127-.175.137-.31-.079-.285-.141-.379-.02-.03-.064-.152-.089-.199-.077-.147-.151-.233-.263-.341-.057-.055-.086-.094-.152-.148-.033-.026-.04-.035-.076-.068-.029-.027-.051-.041-.079-.066-.128-.122-.53-.456-.679-.515-.088-.034-.236-.028-.247-.033-.058-.03-.057-.101-.192-.104-.107-.003-.156.054-.222.077"/>
    <path class="cls-2" d="m67.346,6.124c.046.024.021.047.051.115.02.046.043.057.085.082.068.041.228.275.462.128.179-.112.088-.09.194-.152.209-.124.251-.131.386-.295.271-.327.185-.36.398-.629.047-.06.096-.171.146-.201.039-.024.073-.026.109-.058.034-.028.051-.063.083-.097.153-.16.186-.304.408-.178.093.054.307.237.473.04.069-.081.087-.113.086-.255l-.008-.109c-.189-.08-.781-.066-1.034-.002-.452.116-.974.403-1.28.729-.026.028-.042.048-.067.077-.179.21-.276.341-.406.598-.036.072-.054.139-.086.206"/>
    <path class="cls-2" d="m70.337,9.574c-.498.002-.648-.009-1.133-.211-.193-.08-.494-.232-.678-.338-.061-.035-.169-.103-.227-.119-.036-.011-.006.004-.034-.016l-.021-.021c.039.003.035,0,.058.021.295.065.313.042.596,0l-.002-.006c-.167-.008-.282.007-.454-.024-.072-.013-.139-.026-.205-.048-.063-.021-.122-.051-.178-.06-.013.008-.042.033-.04-.004q-.011-.004-.021-.011s-.007-.002-.008-.006c-.002-.004-.006-.004-.009-.007-.186-.104-.347-.248-.462-.379-.069-.08-.125-.133-.184-.234-.027-.046-.122-.263-.141-.277.053.313.277.661.423.867.192.27.342.486.616.662.23.149.654.275.979.314.396.047.776.025,1.125-.104"/>
    <path class="cls-2" d="m67.17,6.182c.024-.021.162-.34.196-.401.385-.696.912-1.112,1.688-1.36.452-.145.627-.058,1.091-.053-.049-.13-.308-.188-.439-.209-.719-.11-1.378.271-1.855.734-.097.094-.21.239-.293.364-.137.21-.329.631-.388.925"/>
    <path class="cls-2" d="m71.277,4.991l.008-.003c-.022-.034-.014-.019-.045-.043-.025-.021-.019-.023-.057-.037.013.018.016.027.039.044.028.02.022.01.055.039"/>
    <path class="cls-2" d="m70.552,4.808c-.042.071-.11.133-.16.203-.112.153-.094.225-.245.329-.056.039-.058.048-.1.091-.158.162-.03.063-.233.149-.343.143-.456.368-.532.412-.046.027-.086.04-.122.069-.043.034-.041.062-.079.112-.036.047-.062.044-.092.1-.073.142.015.493.081.613.048.086.093.151.141.242.056.104.098.12.201.181.295.175.318.054.445-.162.037-.062.054-.047.104-.087.116-.094.188-.282.247-.323.065.052.145.12.256.147-.009.09-.083.206-.116.454-.024.181,0,.365-.006.551-.232-.026-.317-.087-.494.215-.028.048-.105.107-.173.197-.055.073-.091.162-.113.269-.111.537.314.77.773.541.073-.036.285-.161.347-.215.157-.139.144-.167.349-.225.111-.031.148-.1.271-.108.279-.02.369-.117.484-.272.058-.078.103-.141.148-.235.034-.073.066-.225.112-.271.114-.154.143-.611.129-.837-.034-.515-.208-1.022-.465-1.445-.072-.118-.338-.472-.433-.512-.032-.029-.027-.02-.055-.039-.023-.017-.026-.026-.039-.044l-.171-.105c-.051-.029-.119-.067-.183-.086-.046.016-.094.022-.141.039-.047.017-.088.037-.136.052"/>
    <path class="cls-1" d="m106.281,10.71h0c1.32,0,2.39,1.063,2.39,2.375v11.36c0,1.536.183,2.657.548,3.365.568,1.253,1.806,1.88,3.713,1.88,1.897,0,3.13-.627,3.698-1.88.366-.708.548-1.829.548-3.365v-11.36c0-1.312,1.07-2.375,2.39-2.375s2.39,1.063,2.39,2.375v11.371c0,2.377-.37,4.228-1.113,5.553-1.382,2.428-4.02,3.641-7.913,3.641s-6.536-1.213-7.928-3.641c-.742-1.325-1.113-3.176-1.113-5.553v-11.371c0-1.312,1.07-2.375,2.39-2.375"/>
    <path class="cls-1" d="m140.75,23.523c-1.336,1.107-3.244,1.661-5.724,1.661h-2.383c-1.309,0-2.37,1.054-2.37,2.354v3.446c0,1.3-1.06,2.354-2.369,2.354s-2.369-1.054-2.369-2.354V13.017c0-1.3,1.06-2.354,2.369-2.354h7.431c2.26,0,4.061.585,5.405,1.754,1.343,1.169,2.015,2.979,2.015,5.431,0,2.676-.669,4.568-2.005,5.676m-3.64-8.168c-.604-.503-1.45-.754-2.539-.754h-1.928c-1.309,0-2.37,1.054-2.37,2.354v1.969c0,1.3,1.061,2.354,2.37,2.354h1.928c1.089,0,1.935-.271,2.539-.815.604-.543.906-1.404.906-2.584s-.302-2.021-.906-2.522"/>
    <path class="cls-1" d="m60.628,14.161c-2.517,3.453-4.385,6.281-5.603,8.483l-.6,1.161-.06.089.03.298c.1,0,.2.01.3.03.219.02.519.05.899.089.339.04.559.06.659.06.759.14,1.523.312,2.292.521.769.208,1.384.387,1.843.535.46.148,1.139.387,2.038.714.899.328,1.548.551,1.948.67.199.08.344.209.434.388s.1.367.03.565-.195.342-.375.432c-.179.089-.37.104-.569.045l-1.977-.715-1.978-.685c-.44-.158-1.024-.332-1.753-.521-.73-.188-1.453-.342-2.173-.461-.06-.02-.24-.04-.539-.06-.4-.039-.709-.069-.929-.089l-.09-.03c.14,2.818.23,4.872.27,6.162,0,.198-.07.377-.21.535-.14.159-.31.238-.509.238s-.38-.069-.54-.208c-.16-.139-.24-.308-.24-.506-.04-1.25-.14-3.443-.299-6.578-.12-.079-.22-.169-.3-.269-.12-.139-.17-.308-.15-.506,0-.06.01-.119.03-.179.02-.039.04-.089.06-.148.02-.079.06-.179.12-.298l.18-.357c-.06-1.31-.11-2.46-.15-3.453-.02-.734,0-2.431.06-5.09.04-2.144-.01-3.79-.15-4.941-.02-.198.035-.382.165-.551.13-.168.294-.263.495-.282.199-.02.384.034.554.163.169.13.264.293.284.491.16,1.23.21,2.947.15,5.149-.06,2.62-.08,4.287-.06,5.001l.03.923c1.179-2.024,2.907-4.594,5.184-7.709.12-.159.28-.254.48-.283.199-.03.384.015.554.134s.27.278.3.477-.015.387-.135.565"/>
    <path class="cls-1" d="m70.456,12.048c.479,5.159.719,12.056.719,20.687,0,.2-.075.373-.225.522-.149.148-.324.223-.524.223s-.375-.074-.524-.223c-.15-.149-.225-.322-.225-.522,0-8.65-.24-15.507-.719-20.567-.02-.198.034-.377.165-.536.129-.158.299-.248.509-.268s.394.035.554.163c.16.13.25.303.27.521"/>
    <path class="cls-1" d="m84.149,9.22c.06.675.1,1.365.12,2.069s.02,1.558,0,2.56c-.02,1.002-.03,1.662-.03,1.979,0,1.846-.055,6.909-.164,10.61-.111,3.701-.165,4.184-.165,6.029,0,.198-.075.372-.225.521-.15.149-.325.224-.525.224s-.374-.074-.524-.224c-.15-.148-.225-.322-.225-.521,0-1.23.02-.319.06-1.848-1.258.517-2.637.566-4.135.149-.999-.277-1.823-.719-2.472-1.325-.65-.604-1.084-1.27-1.304-1.994-.22-.724-.289-1.463-.209-2.218.079-.754.299-1.448.659-2.083.359-.655.854-1.191,1.483-1.607.63-.417,1.334-.635,2.113-.655,1.358-.039,2.716.556,4.075,1.786.04-1.706.06-5.516.06-6.845,0-.377.01-1.052.03-2.024.019-.972.025-1.796.015-2.471-.011-.674-.055-1.319-.135-1.935-.02-.218.034-.406.165-.565.129-.159.299-.248.509-.269.21-.02.394.035.555.164.159.13.249.292.269.491m-1.588,15.447c-1.378-1.567-2.687-2.331-3.925-2.292-1,.021-1.778.526-2.338,1.519-.26.456-.419.957-.479,1.502-.06.547-.005,1.072.165,1.579.169.506.489.978.958,1.413.47.437,1.074.755,1.814.953,1.397.396,2.616.278,3.655-.357.04,0,.07-.01.09-.029.02-.536.045-1.29.075-2.263.03-.972.045-1.627.045-1.965l-.06-.06Z"/>
    <path class="cls-1" d="m94.757,15.263c-.34-1.032-.834-1.791-1.483-2.277-.65-.486-1.319-.704-2.008-.654-.689.049-1.314.361-1.873.937-.559.576-.919,1.42-1.078,2.53-.22,1.33-.18,2.362.119,3.097.2.476.465.972.794,1.487.33.517.789,1.172,1.379,1.965.589.794,1.004,1.37,1.243,1.727.78,1.131,1.369,2.203,1.768,3.215.4,1.013.52,2.054.36,3.126-.18,1.151-.799,2.023-1.858,2.62-.779.436-1.518.564-2.217.386-.6-.158-1.129-.535-1.588-1.131-.64-.833-1.079-1.994-1.319-3.482-.02-.198.03-.382.15-.551s.28-.268.479-.298c.2-.029.385.015.555.134.169.119.274.278.314.477.2,1.25.539,2.192,1.019,2.828.24.317.489.506.749.565.32.079.699,0,1.139-.238.619-.357.978-.873,1.079-1.548.12-.794.015-1.612-.315-2.456-.33-.843-.844-1.781-1.543-2.812-.18-.258-.58-.804-1.199-1.638-.619-.833-1.114-1.543-1.483-2.128-.37-.585-.665-1.156-.884-1.712-.4-.972-.479-2.262-.24-3.87.22-1.389.729-2.505,1.529-3.349.798-.843,1.738-1.305,2.816-1.384,1.059-.079,2.053.233,2.982.938.929.705,1.613,1.712,2.052,3.021.06.199.046.387-.045.565-.09.179-.235.303-.434.372-.2.07-.39.061-.569-.029-.18-.09-.31-.233-.39-.432"/>
    <path class="cls-3" d="m-.001,21.485C-.001,33.352,9.905,42.971,22.124,42.971s22.124-9.619,22.124-21.485S34.343,0,22.124,0-.001,9.619-.001,21.485"/>
    <path class="cls-1" d="m22.124,41.635c11.46,0,20.75-9.021,20.75-20.149S33.584,1.335,22.124,1.335"/>
    <path class="cls-4" d="m22.124,1.335C10.664,1.335,1.374,10.356,1.374,21.485s9.29,20.149,20.75,20.149"/>
    <path class="cls-3" d="m22.132,3.217s-.006-.002-.008-.003c-.003,0-.006.002-.008.003C11.874,2.563,2.857,11.052,2.927,21.332c-.071,10.27,8.924,19.06,19.156,18.424,0,0,.002,0,.004,0,0,0-.002,0-.003,0,.013,0,.025,0,.038,0,0,.008.001.017.002.024,0-.008,0-.017.002-.024.013,0,.025,0,.037,0,0,0,0,0-.002,0,0,0,.002,0,.004,0,10.228.634,19.225-8.155,19.155-18.424.072-10.282-8.942-18.771-19.188-18.115m17.79,18.122c-2.17-.205-4.374-.349-6.589-.449-.065-3.27-.839-6.523-2.322-9.432,1.411-.661,2.716-1.491,3.857-2.495,3.478,3.507,5.09,7.96,5.054,12.376M22.124,3.217s.004,0,.007,0c3.285,1.816,5.745,4.551,7.384,7.741-2.218.635-4.534.979-6.86,1.033-.101-2.95-.262-5.895-.531-8.775m-.688,17.44c-3.014.021-6.081.065-9.139.181.064-3.067.716-6.12,1.954-8.882,2.281.882,4.783,1.352,7.301,1.405-.068,2.445-.099,4.887-.116,7.296m0,1.373c.012,1.852.032,3.722.072,5.599-2.72.064-5.419.612-7.838,1.642-.86-2.36-1.319-4.884-1.373-7.421,3.058.115,6.123.16,9.139.181m1.376,0c3.014-.02,6.08-.063,9.139-.179-.055,2.556-.522,5.1-1.394,7.476-2.408-1.049-5.1-1.613-7.817-1.695.039-1.878.06-3.749.072-5.602m0-1.374c-.016-2.41-.047-4.853-.116-7.3,2.514-.07,5.008-.555,7.277-1.453,1.252,2.775,1.914,5.845,1.979,8.932-3.058-.115-6.124-.159-9.14-.179m6.205-15.767c2.272,1.07,4.167,2.407,5.707,3.926-1.319.733-2.713,1.338-4.156,1.817-.035-.062-.068-.124-.104-.186-1.878-3.224-4.789-5.984-8.327-7.229,2.392.16,4.734.706,6.88,1.672m-6.892-1.677s.003.002.005.003h-.005c-.269,2.885-.431,5.83-.531,8.779-2.331-.034-4.658-.36-6.892-.978,1.639-3.216,4.11-5.973,7.416-7.801.002,0,.004,0,.007,0h-.006s.004-.002.006-.003m-.012.005c-3.538,1.245-6.449,4.006-8.328,7.229-.049.084-.095.17-.143.255-1.464-.473-2.882-1.072-4.226-1.803,3.022-3.124,7.316-5.301,12.697-5.682m-12.819,5.807c1.158,1.005,2.48,1.836,3.912,2.492-1.463,2.894-2.226,6.126-2.291,9.374-2.215.101-4.42.243-6.589.447.034-4.489,1.767-8.939,4.968-12.313m5.939,28.747c-7.542-3.553-10.951-10.027-10.907-16.424,2.17.204,4.374.348,6.589.447.055,2.737.607,5.464,1.656,7.986-1.42.719-2.722,1.614-3.84,2.692,1.321-.775,2.722-1.42,4.173-1.937.262.564.546,1.118.859,1.656,1.871,3.226,4.773,6.3,8.304,7.556-2.376-.165-4.702-1.018-6.834-1.978m6.842,1.978c-3.252-1.775-5.735-4.891-7.363-8.074-.252-.491-.479-.995-.691-1.507,2.424-.741,4.969-1.133,7.521-1.176.092,3.509.26,7.334.581,10.761-.016,0-.032-.003-.048-.004m.052.004c.321-3.428.488-7.249.581-10.755,2.549.063,5.084.476,7.492,1.237-.204.487-.422.97-.663,1.439-1.627,3.184-4.11,6.299-7.362,8.074-.016,0-.032.003-.048.004m.056-.005c3.531-1.255,6.433-4.329,8.303-7.555.299-.514.572-1.041.823-1.579,1.469.54,2.882,1.211,4.21,2.02-1.12-1.117-2.433-2.042-3.869-2.786,1.067-2.54,1.628-5.289,1.684-8.051,2.216-.1,4.42-.243,6.589-.449-.077,8.717-6.564,17.586-17.74,18.4"/>
    <path class="cls-3" d="m33.595,21.954s.774,1.142,1.879,1.053c1.07-.086,1.956-1.337,2.222-1.751.058-.09.15-.155.255-.182.257-.064.474-.088.701-.285.656-.568.601-1.705-.175-2.027-.556-.229-.748.525-1.197.986-.262.27-.252.559-.214.728.027.116,0,.237-.072.334-.198.268-.638.736-1.331.796-.793.069-1.113-.367-1.214-.556-.026-.049-.038-.106-.041-.162-.114-2.272-1.937-2.728-1.904-3.016.021-.17.175-.165.175-.165,4.301-.541,3.497-3.459,3.497-3.459-.331-1.012-.128-1.842-.109-1.919.002-.005,0-.009.003-.015,1.042-4.073-4.364-4.5-5.809-3.624-.155.094-.354.074-.489-.046-.13-.115-.301-.185-.488-.185-.134,0-.259.036-.367.098-.14.083-.312.077-.444-.018-.454-.323-1.455-.73-2.655.666-1.646,1.915-1.087,3.888.109,5.531.312.43.412.748.4.965,0,.002.001.004.001.006,0,.061-.019.113-.045.163-.059.125-.171.184-.287.184-.003,0-.005,0-.008,0s-.005,0-.008,0c-.032-.002-.062-.009-.093-.02-.014-.004-.028-.006-.041-.013-.002,0-.005-.004-.007-.005-.057-.029-.102-.074-.135-.13-.008-.012-.017-.021-.023-.034-.006-.012-.008-.024-.012-.037-.058-.15-.047-.367.114-.651,0,0-.399.221-.583.586-.226.449.202.897.202.897-.87-.137-.345-.987-.345-.987,0,0-.268.12-.413.253-.652.593-.297,1.39.184,1.551.587.195.976.123,1.15.066.079-.025.163-.022.243-.002,1.409.374,1.672-.859,1.721-1.328,0-.003,0-.006,0-.009,0-.002.015-.072.079-.071.058,0,.076.064.076.064.169.467.371,1.447,1.838,1.397.014,0,.022.004.034.005.013-.003.025-.008.038-.008.116,0,.21.094.21.21,0,.092-.058.167-.14.196l-.002.004s-1.366-.244-2.958.364c-.534.203-1.866.918-2.653,1.793-.503.56-.823,1.304-.863,1.412-.01.027-.034.046-.063.051-.732.135-1.111.873-1.201,1.074-.015.032-.047.052-.081.045-.238-.044-.415.038-.548.159-.175.158-.441.176-.605.006-.474-.49-1.588-.587-2.206-1.527-.826-1.257-1.011-3.032-2.125-3.407-.575-.192-.715-.03-.73-.182-.025-.233.803-.318.913-.329.01,0,.018-.002.028-.004l.759-.125c3.365-.752,2.518-3.661,2.518-3.661,0,0-.362-2.645-.031-2.703.331-.059,1.051-.623,1.181-1.262.146-.712-.481-.488-.481-.488,0,0-1.478.602-1.528-.389-.051-.991-1.272-.428-1.077-.72.194-.291.039-.544.039-.544,0,0-.127-.243-.433-.01-.178.136-.763.471-.763.471-.062.023-.126-.029-.113-.094.026-.129.055-.356.064-.761.016-.67-1.314.301-1.805.68-.055.043-.135,0-.133-.069.026-.657-1.477.113-1.477.113-3.416,1.42-3.176,5.424-3.078,6.767.097,1.341.777,2.021,1.086,1.965.31-.058.294-.438.294-.438.253.749,2.138.869,2.318,1.292.188.44-.478.107-2.182.159-1.171.034-2.999.687-3.919,1.765-.271.317-.271.497-.485.75-.197.233-.662.324-.945.324-.192,0-.387.021-.567.091-1.777.694-.871,2.015-.871,2.015,0,0,.393.738,1.185.559.576-.13.247-.464.926-.937.122-.085.611.053.955-.324.037-.041,1.611-1.327,2.95-1.241.365.023.671.356.648.722-.046.738-.631,1.702-.883,2.02-.904,1.138-.439,2.274-.433,2.467,0,.014-.002.023-.008.036-.088.178-.849,1.653-2.071,2.032-1.301.402-2.365-1.464-2.366-1.466,0-.017.457-1.103-.81-1.33-1.734-.31-1.909,4.019-1.909,4.104,0,.441.363.837.596.837.712.083.949-1.653,1.06-1.802.122-.165.3-.156.416.014.958,1.394,2.86,1.79,2.893,1.796.002.002,0,0,.003.002,3.122.597,4.421-2.66,4.612-3.195.015-.042.061-.064.104-.052,3.046.864,3.273,4.397,3.165,6.056-.11,1.673.926,1.264,2.514.798,1.588-.466,1.795-.564,1.412-1.298-.31-.593-1.231-.301-1.569-.169-.059.022-.117-.027-.111-.09.365-3.461-1.004-5.2-2.117-6.901-.489-.747.106-2.572.201-2.713.041-.059.127-.044.149.024.292.896,1.719,1.964,3.07,2.36.93.272,1.665.089,2.034-.053.151-.058.313-.02.44.082.55.434,1.536-.008,1.883-.489.039-.055.34-.243-.078-1.176-.257-.573.376-1.143.376-1.143,2.834-2.784,3.69-1.647,3.697-1.639t0,0c.511,4.942-3.36,5.982-4.202,6.15-.066.013-.087.095-.039.142,1.228,1.19,1.548,2.216.363,2.59-.382.121-.794-.09-1.064-.609-.236-.455-.332-1.204-.601-1.429-.407-.339-1.021.409-1.475,1.057-1.097,1.562-.75,2.909-.104,3.029.646.12.833-.518,1.038-1.328.143-.57.121-.305.756.532.696.92,1.864,1.139,2.265.345.83-1.641,2.213-1.172,2.296-1.142.004,0,.005.002.009.005,2.507,1.446,4.663.865,5.472.556.26-.1.558-.015.709.219.278.431.45,1.095.541,1.53.05.242.033.491-.041.727-.054.176-.102.398-.074.588.214,1.453,2.658.738,3.791-.146.68-.53.442-1.129.214-1.334-.614-.555-1.623-.091-2.018.094-.395.185-.33-.198-.33-.198.323-2.292-.619-3.094-.894-3.428-.274-.335-.018-.404-.018-.404,0,0,.298-.02.598-.362s.014-.443.014-.443c0,0-.898-.381-2.223-1.642-1.325-1.262-.274-2.778-.045-3.332.23-.554.367-.274.367-.274"/>
  </g>
</svg>