<?xml version="1.0" encoding="UTF-8"?><svg id="Layer_1" xmlns="http://www.w3.org/2000/svg" viewBox="0 0 636.32 264.21"><defs><style>.cls-1{stroke-linejoin:round;}.cls-1,.cls-2,.cls-3{fill:none;}.cls-1,.cls-4,.cls-3{stroke:#016775;stroke-linecap:round;}.cls-1,.cls-3{stroke-width:5px;}.cls-5{fill:#ed8a66;}.cls-5,.cls-2,.cls-6,.cls-7{stroke-width:0px;}.cls-4{fill:#016775;stroke-width:.75px;}.cls-4,.cls-3{stroke-miterlimit:10;}.cls-6{fill:#f3d475;}.cls-7{fill:#ffc05a;}</style></defs><path class="cls-6" d="M502.19,21.31c-3.12.24-6.21.75-9.25,1.49-18.41,4.48-43.02,7.92-71.82,7.94-76.15.05-162.92,4.98-218.98-18.89C174.62.12,81.6-1.98,57,4.71,20.21,14.71,0,41.71,0,62.71c0,42.01,43.28,61.95,83.21,65,65.05,4.98,162.87,16.38,233-2,70.13-18.38,98.51-35.24,150-27,25,4,91-13,107-25,32.74-24.55,30-41,6-51-20.63-8.6-57.56-2.89-77.01-1.4Z"/><path class="cls-4" d="M63.53,52.73l.2.14c1.68,1.16,3.5,2.25,5.48,3.28,2.26,1.17,4.21,2.03,5.85,2.58.63.21.95.43.96.68.01.21-.17.39-.53.54-1.03.43-1.86.66-2.47.69-.5.03-1.21-.23-2.12-.76-3.29-1.91-6.54-4.2-9.77-6.89l-2.3.23c-1.87,2.77-4.65,5.29-8.34,7.57-2,1.25-3.24,1.88-3.71,1.91-.55.03-.84-.24-.87-.8-.01-.29.11-.53.37-.74.11-.08.39-.25.86-.51,3.25-1.81,6.04-4.17,8.39-7.09l-7.31.76c-.24.02-.46-.03-.67-.15-.34-.19-.52-.46-.54-.8-.02-.37.12-.67.43-.9.14-.1.29-.15.47-.17l9.13-.97c.52-.91.93-1.8,1.23-2.67-3.72.56-5.92.85-6.6.89-.61.03-1.05-.18-1.3-.62-.22-.38-.34-.74-.35-1.07-.02-.31.08-.59.3-.84.07-.1.32-.32.74-.66,2.03-1.68,3.92-3.52,5.65-5.53.45-.52.87-.79,1.26-.81.26-.01.52.07.77.26.31.21.47.49.49.83.02.42-.22.88-.74,1.39-1.83,1.82-3.65,3.4-5.46,4.75,5.38-.55,9.74-1.18,13.09-1.88-.84-.7-1.56-1.27-2.16-1.68-.34-.24-.52-.52-.54-.85-.01-.22.05-.42.2-.6.18-.23.39-.35.66-.36.24-.01.62.14,1.13.45,3.77,2.34,5.68,4.01,5.73,5.01.01.29-.07.54-.26.76-.27.32-.58.49-.95.51-.38.02-.84-.26-1.36-.85-.23-.27-.51-.57-.82-.88-2.15.51-4.39.95-6.72,1.34-.11.02-.22.03-.33.05.1.19.15.37.16.54.02.38-.23,1.13-.76,2.23l11.61-1.23h.07c.27-.04.52.04.75.24.21.19.32.42.33.71.02.46-.15.8-.52,1.02-.11.07-.23.11-.36.12l-8.48.88ZM67.73,61.56c.34-.02.64.12.89.4.21.23.32.49.34.77.02.37-.18.74-.59,1.1-1.74,1.56-4.15,3-7.23,4.31-2.53,1.09-5.07,1.88-7.64,2.37-.19.03-.32.05-.41.05-.6.03-.92-.26-.95-.87-.02-.3.1-.52.36-.68.11-.07.6-.22,1.48-.44,2.21-.58,4.65-1.57,7.31-2.98,1.9-1.01,3.69-2.19,5.37-3.54.38-.32.73-.48,1.06-.5ZM61.41,55.08c.33-.02.62.11.86.38.21.24.32.49.34.76.02.31-.14.64-.48,1s-.95.85-1.84,1.46c-2.04,1.43-4.29,2.61-6.77,3.53-.29.1-.51.16-.67.17-.35.02-.61-.14-.77-.47-.09-.17-.13-.32-.14-.45-.01-.23.09-.43.32-.59.11-.08.45-.24,1.03-.48,1.62-.64,3.43-1.76,5.43-3.35.6-.48,1.14-.95,1.63-1.4.37-.35.72-.53,1.06-.55ZM64.17,58.3c.26-.01.52.1.78.34.23.22.35.48.37.79.02.41-.22.83-.73,1.27-1.08.92-2.58,1.9-4.5,2.92-2.06,1.1-4.04,1.92-5.94,2.48-.22.07-.39.1-.52.11-.62.03-.95-.27-.99-.92-.02-.3.06-.51.21-.63.16-.12.64-.32,1.44-.59,2.81-.98,5.67-2.68,8.6-5.09.53-.43.95-.66,1.27-.68Z"/><path class="cls-4" d="M88.29,49.43c-.73,2.93-1.45,5.25-2.15,6.96-1.64,3.96-3.69,7.15-6.16,9.57-.39.38-.74.56-1.05.55-.19,0-.36-.09-.52-.25-.24-.23-.36-.49-.34-.77.01-.23.29-.65.85-1.26,1.95-2.11,3.69-5.16,5.21-9.15.55-1.44,1.09-3.24,1.64-5.4l-4.83.43c-.09,0-.15,0-.2,0-.7-.03-1.04-.41-1-1.15.03-.67.4-1.03,1.1-1.09l5.44-.44c.45-2.12.76-3.95.95-5.48.1-.82.55-1.21,1.34-1.18s1.18.43,1.15,1.17c-.01.26-.06.6-.14,1.02-.1.51-.32,1.71-.65,3.58-.04.27-.09.5-.13.69l2.91-.23c.17-.02.32-.02.48-.01,1.58.07,2.33.93,2.26,2.59-.06,1.38-.29,3.42-.7,6.12-.74,4.98-1.66,8.64-2.77,11-.51,1.09-1.26,1.61-2.26,1.56-.81-.04-1.87-.37-3.17-1.01-1.19-.59-1.78-1.14-1.76-1.64.02-.56.32-.83.88-.8.19,0,.44.09.75.25.9.45,1.69.68,2.37.71.45.02.77-.11.97-.39.32-.44.7-1.49,1.16-3.16.57-2.07,1.02-4.14,1.33-6.2.48-3.25.74-5.2.77-5.85s-.25-.95-.85-.98c-.02,0-.07,0-.15,0l-2.73.24ZM107.12,62.17c.76.06,1.12.44,1.09,1.17s-.4,1.05-1.1,1.07l-8.16.18v.05c-.04.86-.47,1.26-1.29,1.23-.69-.03-1.04-.45-1.05-1.25l-.1-15.23c.03-.86.44-1.27,1.24-1.23.59.03.97.3,1.13.82l7.09-.53c.18-.01.4-.02.66,0,1.29.06,1.91.78,1.85,2.17,0,.16-.02.29-.03.36l-1.32,11.18ZM104.88,62.22l1.04-10.55c.01-.3,0-.51-.04-.63-.08-.28-.29-.42-.66-.44-.11,0-.21,0-.31,0l-5.99.48v11.29s5.95-.15,5.95-.15Z"/><path class="cls-4" d="M117.76,54.49c-1.12,2.43-2.44,4.82-3.97,7.19-.27.42-.57.63-.89.63-.19,0-.35-.07-.49-.2-.2-.16-.3-.36-.3-.58s.23-.71.69-1.47c1.68-2.75,3.19-5.98,4.54-9.66l-3.36.41c-.09.01-.18.02-.26.02-.7,0-1.05-.33-1.05-.99s.35-1,1.04-1.09l4.05-.51v-6.54c0-.69.37-1.04,1.1-1.04.36,0,.66.13.89.38.15.18.23.4.23.66v6.26l2.5-.31s.12-.02.21-.02c.68,0,1.02.36,1.02,1.07,0,.6-.34.95-1,1.04l-2.73.33v2.09c1.69,1.16,2.91,2.07,3.67,2.73.42.36.63.73.63,1.12,0,.25-.09.47-.28.66-.23.24-.48.36-.76.36-.36,0-.79-.27-1.28-.82-.41-.47-1.06-1.15-1.98-2.04v14.44c0,.25-.08.47-.23.66-.22.24-.52.36-.89.36-.73,0-1.1-.34-1.1-1.02v-14.12ZM133.84,60.32v8.45c0,.26-.08.49-.23.69-.22.3-.54.44-.95.44-.49,0-.85-.19-1.05-.56-.1-.16-.15-.36-.15-.58v-8.31l-6.88.35c-.88.04-1.32-.3-1.32-1.04s.38-1.11,1.15-1.15l7.05-.38v-3.52c0-.36.12-.65.36-.87.24-.21.52-.31.84-.31.27,0,.52.08.74.25.3.22.44.53.44.94v3.39l7.75-.43h.08c.82.02,1.23.38,1.23,1.07,0,.75-.4,1.14-1.19,1.19l-7.89.4ZM132.56,44.3l2.44-.23c.19-.01.32-.02.41-.02,1.34,0,2.01.58,2.01,1.73,0,.22-.04.54-.12.97-.3,1.67-.44,3.05-.44,4.15,0,.57.11.94.33,1.1.14.1.47.15.97.15.75,0,1.24-.05,1.48-.15.27-.1.44-.35.49-.74.06-.34.08-1.09.08-2.26,0-.66.23-.99.69-.99s.76.26.86.79c.3,1.59.44,2.75.44,3.47,0,.82-.38,1.36-1.14,1.61-.71.24-1.72.36-3.03.36-1.13,0-1.94-.09-2.44-.28-.75-.27-1.12-.95-1.12-2.02,0-1.32.14-2.84.43-4.58.06-.31.08-.53.08-.67,0-.36-.23-.54-.69-.54h-.25l-1.91.18c-.67,2.74-1.88,5.03-3.64,6.86-.65.67-1.34,1.25-2.09,1.73-.35.22-.65.33-.91.33-.21,0-.39-.09-.54-.26-.13-.15-.2-.31-.2-.46,0-.24.26-.6.79-1.07,1.96-1.78,3.33-4.08,4.1-6.9l-3.36.3c-.07.01-.12.02-.15.02-.67,0-1-.34-1-1.02,0-.6.37-.94,1.1-1l3.84-.35c.16-.97.31-2.09.43-3.37.09-.9.5-1.35,1.23-1.35h.07c.23,0,.45.07.66.21.29.2.43.5.43.91,0,.63-.12,1.76-.35,3.39Z"/><path class="cls-4" d="M151.52,62.28c.71-1.65,1.24-2.79,1.58-3.42.19-.36.41-.54.67-.54.14,0,.27.03.38.1.26.15.4.36.4.61,0,.12-.06.34-.18.64-.85,2.17-1.37,3.95-1.58,5.33-.07.49-.22.89-.48,1.2-.25.3-.53.44-.84.44-.63,0-1.14-.45-1.55-1.35-.71-1.61-1.07-4.02-1.07-7.21,0-2.71.3-6.79.91-12.25.09-.82.17-1.35.25-1.58.2-.55.59-.82,1.19-.82.42,0,.75.15.99.46.18.22.26.5.26.84,0,.16-.04.53-.13,1.09-.34,2.12-.65,4.97-.94,8.54-.11,1.47-.16,2.68-.16,3.64,0,1.11.1,2.54.31,4.28ZM160.15,59.38c.32,0,.61.17.87.51,1.25,1.61,4.1,2.42,8.54,2.42.46,0,.87-.02,1.22-.05.18-.01.3-.02.38-.02.5,0,.87.16,1.13.49.18.22.26.48.26.77,0,.47-.19.85-.57,1.14-.26.19-.76.28-1.51.28-2.32,0-4.44-.25-6.37-.74-1.86-.46-3.25-1.26-4.2-2.4-.47-.57-.71-1.05-.71-1.45,0-.26.09-.48.25-.66.19-.2.42-.3.71-.3ZM169.35,48.38c-2.03,0-4.71.5-8.02,1.5-.32.1-.56.15-.72.15-.51,0-.84-.21-1.02-.64-.07-.16-.1-.31-.1-.44,0-.38.33-.71.99-.99,1.86-.77,3.78-1.34,5.79-1.71,1.1-.2,2.06-.3,2.9-.3,1.63,0,2.45.44,2.45,1.32,0,.76-.48,1.14-1.45,1.14l-.82-.02Z"/><path class="cls-4" d="M182.21,62.79l.12-.26c.78-1.77,1.28-2.85,1.5-3.26.16-.31.38-.46.64-.46.14,0,.27.03.38.1.26.15.4.36.4.61,0,.12-.06.34-.18.64-.84,2.18-1.37,3.96-1.58,5.33-.07.49-.22.89-.48,1.2-.25.3-.53.44-.84.44-.61,0-1.12-.43-1.51-1.28-.71-1.55-1.07-3.95-1.07-7.19,0-2.64.24-6.5.71-11.56.15-1.66.27-2.63.34-2.93.18-.71.59-1.07,1.25-1.07.42,0,.75.15.99.46.18.22.26.49.26.82,0,.15-.04.52-.13,1.1-.35,2.44-.66,5.54-.94,9.32-.11,1.55-.17,2.79-.17,3.72,0,1.11.1,2.53.31,4.26ZM196.43,48.05v-4.89c0-.73.4-1.1,1.2-1.1s1.19.37,1.19,1.1v4.66l.3-.03,2.25-.21c.81-.07,1.26-.1,1.33-.1.76,0,1.14.38,1.14,1.15,0,.58-.28.94-.82,1.09-.1.03-1.06.13-2.88.3-.08,0-.52.04-1.32.13,0,3.67.06,7.28.17,10.83,2.07.95,3.62,1.79,4.64,2.5.57.41.86.83.86,1.28,0,.38-.14.7-.43.95-.19.16-.41.25-.66.25-.32,0-.7-.16-1.14-.48-.91-.69-2-1.38-3.27-2.06-.33,2.16-1.94,3.24-4.84,3.24-2.08,0-3.77-.54-5.07-1.63-.96-.8-1.45-1.69-1.45-2.67s.45-1.84,1.35-2.45c.78-.54,1.79-.81,3.04-.81s2.75.29,4.58.87c-.11-3.86-.16-7.07-.16-9.61-1.73.18-3.91.41-6.53.69-.2.02-.35.03-.45.03-.78,0-1.17-.4-1.17-1.19,0-.54.29-.88.86-1.04.1-.02,1.36-.17,3.79-.44l3.03-.33.48-.05ZM196.63,62.28c-1.95-.76-3.47-1.14-4.54-1.14-1.31,0-1.96.4-1.96,1.19,0,.5.29.95.87,1.35.75.52,1.8.77,3.16.77,1.14,0,1.87-.22,2.17-.66.2-.29.3-.74.3-1.37v-.15Z"/><path class="cls-4" d="M212.33,44.33v23.72c0,.25-.09.47-.26.64-.24.24-.55.36-.92.36-.46,0-.81-.16-1.05-.49-.1-.14-.15-.31-.15-.51v-23.51c-.54-.12-.81-.47-.81-1.04,0-.6.36-.94,1.07-1.02l6.91-.71c.13-.01.27-.02.41-.02,1.14,0,1.71.46,1.71,1.37,0,.45-.31,1.23-.92,2.34-.98,1.73-1.83,3.07-2.55,4.02,1.15,1.02,2.02,2.2,2.62,3.54.48,1.08.72,2.1.72,3.08,0,.66-.15,1.21-.44,1.65-.43.64-1.05.95-1.88.95-.98,0-2.05-.36-3.23-1.07-.44-.27-.66-.55-.66-.82,0-.49.27-.74.81-.74.19,0,.43.05.74.15.4.13.82.2,1.23.2.64,0,.95-.4.95-1.19,0-.7-.2-1.46-.61-2.27-.51-1.03-1.28-1.98-2.32-2.85-.19-.15-.28-.34-.28-.56,0-.46.24-.76.71-.89.6-.93,1.2-2.09,1.79-3.47.17-.41.25-.67.25-.79,0-.29-.19-.43-.56-.43h-.16l-3.13.36ZM223.62,54.95v12.02c1.14-.37,2.57-1.07,4.3-2.09.41-.24.75-.36,1.02-.36.23,0,.43.09.59.28.17.19.26.39.26.61,0,.3-.15.57-.45.82-1.12.95-2.72,1.96-4.81,3.03-.87.44-1.44.66-1.71.66-.33,0-.69-.2-1.07-.59-.33-.34-.5-.86-.5-1.55v-23.24c-.75,0-1.12-.35-1.12-1.04,0-.61.37-.96,1.12-1.04l10.85-1.1c.18-.02.31-.03.41-.03,1.33,0,1.99.7,1.99,2.09,0,.12,0,.22-.02.3l-.87,10.62c-.05.68-.43,1.02-1.13,1.02-.74,0-1.11-.37-1.12-1.12l-7.75.72ZM223.62,47.56l8.33-.76.2-2.65c-.01-.53-.22-.76-.64-.69l-.07.02-7.82.81v3.28ZM223.62,52.96l7.9-.77.26-3.42-8.17.79v3.41ZM231.23,61.19c2.26,2.24,4.58,3.99,6.96,5.27.74.4,1.1.73,1.1,1.02,0,.22-.22.41-.67.56-.9.31-1.65.46-2.24.46-.43,0-.8-.13-1.12-.4-2.81-2.28-5.64-5.28-8.48-8.99-1.23-1.6-1.84-2.57-1.84-2.9,0-.26.13-.49.38-.67.21-.14.42-.21.62-.21.26,0,.51.13.74.4.07.07.36.47.89,1.22.63.9,1.42,1.88,2.39,2.93.04-.04.1-.09.17-.15,1.19-.92,2.48-2.19,3.85-3.8.44-.52.85-.77,1.24-.77.35,0,.66.14.92.41.26.29.4.6.4.94,0,.32-.22.69-.67,1.1-1.43,1.31-2.97,2.5-4.63,3.59Z"/><path class="cls-4" d="M247.48,54.33c.88-1.9,1.56-2.85,2.04-2.85.12,0,.24.03.36.1.24.15.36.37.36.66,0,.16-.22.75-.67,1.76-.55,1.24-.91,2.08-1.07,2.52-.31.8-.72,1.2-1.25,1.2s-.98-.31-1.32-.92c-.66-1.19-.99-2.95-.99-5.28,0-2.67.23-5.43.69-8.3.14-.95.58-1.43,1.32-1.43s1.15.38,1.15,1.15c0,.11-.03.4-.1.86-.47,3.23-.71,5.89-.71,8,0,.85.06,1.69.18,2.54ZM257.78,41.42c.7,0,1.16.34,1.38,1.02.45,1.38.67,3.56.67,6.54,0,7-.93,12.07-2.78,15.21-.89,1.51-2.05,2.79-3.49,3.82-.45.32-.85.48-1.19.48-.25,0-.46-.09-.63-.28-.11-.12-.16-.26-.16-.43,0-.34.2-.7.59-1.07,1.56-1.46,2.7-3.12,3.42-4.99,1.11-2.9,1.66-7.17,1.66-12.81,0-1.91-.16-3.83-.49-5.75-.04-.23-.07-.42-.07-.58,0-.78.36-1.17,1.07-1.17Z"/><path class="cls-4" d="M274.77,49.82c.93-2.52,1.65-4.63,2.16-6.3.24-.81.69-1.22,1.35-1.22.15,0,.3.02.43.07.51.15.76.5.76,1.05,0,.33-.7,2.39-2.09,6.19.4-.02.8-.03,1.2-.03,3.34,0,5,1.43,5,4.28s-.54,5.75-1.63,8.74c-.59,1.61-1.34,3.02-2.24,4.23-.57.76-1.27,1.14-2.09,1.14s-1.78-.72-2.95-2.16c-.65-.79-.97-1.33-.97-1.61,0-.18.09-.34.26-.49s.35-.23.53-.23.46.15.81.46c1.1.93,1.77,1.4,2.02,1.4.41,0,.94-.66,1.6-1.99.58-1.16,1.05-2.43,1.4-3.79.51-1.91.76-3.69.76-5.33,0-.82-.19-1.42-.56-1.78-.4-.38-1.07-.58-2.01-.58-.49,0-1.19.04-2.07.12-1.46,3.64-3.17,7.32-5.12,11.03-.22.43-.34.66-.38.71-.25.4-.63.59-1.12.59-.26,0-.5-.07-.71-.21-.33-.23-.5-.54-.5-.92,0-.3.2-.79.61-1.48,1.51-2.59,3.05-5.75,4.61-9.48-1.3.14-2.58.3-3.85.48-.22.03-.38.05-.49.05-.81,0-1.22-.36-1.22-1.09s.39-1.15,1.17-1.28c.99-.16,2.77-.35,5.33-.54ZM288.7,48.07c.32,0,.7.21,1.15.63,1.82,1.69,3.46,3.73,4.9,6.12.28.45.41.88.41,1.28,0,.5-.2.88-.61,1.12-.25.15-.5.23-.76.23-.4,0-.71-.16-.96-.48-.11-.13-.27-.41-.49-.82-1.22-2.35-2.67-4.46-4.36-6.32-.2-.22-.3-.47-.3-.76s.1-.53.3-.71c.2-.2.43-.3.71-.3ZM291.32,44.45c.28,0,.58.12.91.36,1.36.93,2.39,1.96,3.09,3.08.2.31.29.59.29.84,0,.3-.11.54-.34.74-.2.16-.43.25-.71.25-.31,0-.61-.24-.9-.71-.75-1.16-1.57-2.2-2.48-3.11-.32-.31-.48-.58-.48-.82,0-.42.21-.63.63-.63ZM294.21,42.39c.54,0,1.43.55,2.68,1.66,1.04.93,1.56,1.68,1.56,2.26,0,.35-.12.62-.36.81-.21.15-.42.23-.64.23-.31,0-.61-.21-.9-.64-.76-1.09-1.59-2.06-2.48-2.93-.32-.31-.48-.57-.48-.77,0-.41.21-.61.63-.61Z"/><path class="cls-4" d="M304.63,59.22c.4,0,.8.32,1.2.97.87,1.42,2.24,2.38,4.12,2.9,1.3.35,2.92.53,4.87.53,1.62,0,3.28-.13,4.97-.4.21-.03.36-.05.46-.05.54,0,.92.2,1.14.61.09.15.13.34.13.54,0,.75-.4,1.2-1.19,1.37-1.27.27-3.09.41-5.45.41-4.2,0-7.25-.8-9.14-2.4-.9-.77-1.55-1.64-1.96-2.62-.14-.34-.21-.61-.21-.81,0-.42.17-.72.51-.91.18-.1.36-.15.54-.15ZM309.54,44.48c3.05,0,5.79.42,8.23,1.27,1.45.49,2.17,1.19,2.17,2.09,0,.58-.4,1.05-1.2,1.4-.77.34-1.86.89-3.27,1.66-.59.32-1.03.48-1.3.48-.48,0-.72-.24-.72-.71,0-.31.19-.59.56-.84,1.15-.79,1.94-1.31,2.35-1.55.23-.13.35-.25.35-.35s-.16-.2-.48-.3c-.53-.16-1.29-.34-2.3-.53-1.56-.27-2.99-.41-4.3-.41-1.04,0-2.17.09-3.37.26-.35.04-.58.07-.69.07-.25,0-.48-.06-.69-.16-.36-.19-.54-.49-.54-.91,0-.59.35-.98,1.04-1.17.8-.21,2.2-.31,4.18-.31ZM321.67,43.94c.26,0,.57.12.91.36,1.36.93,2.39,1.96,3.09,3.08.2.31.29.59.29.84,0,.3-.11.54-.34.74-.2.16-.43.25-.71.25-.31,0-.61-.24-.9-.71-.72-1.12-1.55-2.16-2.48-3.11-.32-.32-.48-.59-.48-.82,0-.42.21-.63.63-.63ZM324.57,41.9c.54,0,1.43.55,2.68,1.65,1.04.93,1.56,1.68,1.56,2.26,0,.35-.12.62-.36.81-.21.15-.42.23-.64.23-.31,0-.61-.21-.9-.64-.78-1.12-1.61-2.09-2.48-2.91-.32-.31-.48-.57-.48-.77,0-.41.21-.61.63-.61Z"/><path class="cls-4" d="M342.63,48.12c-.86-1.37-1.74-2.99-2.67-4.86-.16-.34-.25-.62-.25-.84,0-.44.19-.76.58-.95.23-.11.47-.16.71-.16.54,0,.98.37,1.33,1.12.82,1.77,1.75,3.48,2.78,5.15,2.76-.64,4.73-1.17,5.93-1.61.34-.12.61-.18.81-.18.43,0,.75.19.95.56.11.19.16.41.16.66,0,.54-.35.92-1.05,1.15-1.5.5-3.36,1.03-5.58,1.56,1.39,2.26,2.74,4.08,4.03,5.47.51.54.76,1.08.76,1.63,0,.25-.11.5-.35.74-.32.32-.73.48-1.23.48-.12,0-.34-.03-.64-.1-1.91-.41-3.19-.65-3.84-.74-.61-.08-.92-.32-.92-.74,0-.49.37-.74,1.12-.74.53,0,1.41.04,2.65.13-1.25-1.49-2.58-3.36-3.99-5.6-3.3.75-6.4,1.32-9.3,1.73-1.19.16-1.9.25-2.14.25-.87,0-1.3-.43-1.3-1.28,0-.52.28-.86.84-1.02.13-.04.45-.09.95-.15,2.38-.25,5.6-.8,9.65-1.65ZM346.73,65.49h.28c.24,0,.46.05.64.15.45.24.67.62.67,1.14,0,.83-.53,1.25-1.58,1.25-3.33,0-5.98-.71-7.95-2.12-.8-.58-1.43-1.24-1.89-1.98-.64-1.04-.95-2.08-.95-3.13,0-.82.31-1.23.92-1.23.58,0,.95.37,1.1,1.12.32,1.48,1.08,2.59,2.3,3.33,1.63.99,3.78,1.48,6.45,1.48ZM352.69,42.75c.26,0,.57.12.91.35,1.35.94,2.38,1.98,3.09,3.09.2.31.3.58.3.82,0,.31-.11.56-.35.76-.2.16-.43.25-.71.25-.31,0-.61-.24-.9-.71-.74-1.14-1.56-2.18-2.49-3.11-.32-.32-.48-.59-.48-.82,0-.42.21-.63.62-.63ZM355.58,40.71c.54,0,1.43.55,2.68,1.66,1.04.92,1.56,1.67,1.56,2.24,0,.35-.12.62-.36.81-.21.15-.42.23-.64.23-.31,0-.61-.21-.9-.64-.8-1.15-1.63-2.12-2.49-2.91-.32-.3-.48-.55-.48-.77,0-.41.21-.61.62-.61Z"/><path class="cls-4" d="M364.72,46.23c.82,0,1.24.54,1.24,1.61,0,3.07.32,5.94.95,8.61.6,2.54,1.45,4.49,2.54,5.86.24.31.46.46.64.46.2,0,.4-.21.59-.64,1.05-2.23,1.84-3.34,2.37-3.34.15,0,.31.04.48.12.28.15.43.4.43.74,0,.15-.07.4-.21.72-.47,1.08-1.02,2.51-1.65,4.31-.35.99-.91,1.48-1.66,1.48s-1.63-.56-2.59-1.68c-1.07-1.26-1.99-2.92-2.73-4.99-.66-1.83-1.11-3.86-1.35-6.07-.28-2.56-.41-4.37-.41-5.43,0-1.17.46-1.76,1.37-1.76ZM381.96,46.42c.29,0,.59.16.87.48,1.22,1.41,2.55,3.34,3.98,5.79,1.24,2.12,1.86,3.51,1.86,4.18,0,.47-.21.84-.63,1.1-.26.18-.54.26-.82.26-.46,0-.83-.2-1.09-.61-.05-.08-.19-.38-.41-.91-1.34-3.33-2.84-6.09-4.49-8.28-.28-.35-.41-.67-.41-.97,0-.25.09-.47.28-.64.26-.27.55-.41.86-.41Z"/><path class="cls-4" d="M405.3,45.73v-3.61c0-.79.39-1.19,1.17-1.19s1.19.4,1.19,1.19v3.47c1.72-.08,3.07-.12,4.03-.12,1.2,0,1.79.38,1.79,1.15s-.51,1.19-1.53,1.19c-1.25,0-2.68.03-4.3.1v5.09c1.34-.13,2.38-.29,3.13-.46.26-.07.48-.1.66-.1.76,0,1.14.41,1.14,1.23,0,.59-.36.96-1.07,1.1-1.03.21-2.31.4-3.85.56v6.47c2.03.79,3.97,1.72,5.83,2.8.63.35.94.79.94,1.32,0,.19-.04.37-.13.54-.2.45-.55.67-1.05.67-.21,0-.52-.13-.94-.4-1.46-.92-3.12-1.82-4.97-2.68-.48,1.42-1.36,2.38-2.62,2.9-.97.38-2.2.58-3.7.58-1.82,0-3.33-.48-4.53-1.43-.98-.79-1.46-1.67-1.46-2.63,0-.55.27-1.08.81-1.6,1.15-1.13,2.72-1.7,4.69-1.7,1.29,0,2.88.27,4.79.82v-5.5c-1.22.07-2.32.1-3.29.1-1.61,0-2.71-.04-3.29-.12-.71-.1-1.07-.48-1.07-1.14,0-.77.36-1.15,1.08-1.15.13,0,.32.01.56.03.56.06,1.29.08,2.2.08,1.36,0,2.63-.05,3.8-.15v-5.12c-3.23.24-5.85.54-7.89.91-.17.03-.33.05-.48.05-.8,0-1.2-.38-1.2-1.14,0-.66.44-1.06,1.33-1.22,2.32-.41,5.06-.71,8.23-.92ZM405.1,63.2c-1.9-.66-3.44-.99-4.61-.99-.97,0-1.76.21-2.39.63-.35.23-.53.47-.53.71,0,.36.24.72.72,1.07.72.52,1.65.77,2.78.77,1.99,0,3.24-.5,3.77-1.51.07-.14.15-.37.25-.67Z"/><path class="cls-4" d="M435,46.41c-.04-1.5-.08-2.41-.1-2.72-.06-.83-.08-1.44-.08-1.81,0-.92.41-1.38,1.22-1.38.74,0,1.16.35,1.27,1.04.01.11.05,1.18.12,3.21l.03,1.1v.36c4.75-.42,7.47-.63,8.15-.63.85,0,1.27.4,1.27,1.2,0,.58-.26.97-.79,1.15-.15.04-.53.08-1.12.1-1.69.08-3.98.21-6.87.41l-.64.05c.05,2.4.08,4.31.08,5.73v2.63c0,.91-.17,1.64-.51,2.19-.14,3.57-1.26,6.3-3.34,8.21-1.05.97-1.87,1.45-2.44,1.45-.24,0-.44-.08-.59-.25-.15-.18-.23-.37-.23-.58,0-.33.29-.75.87-1.27,1.43-1.28,2.42-2.93,2.96-4.94-.44.18-.84.26-1.22.26-.8,0-1.71-.42-2.72-1.25-1.6-1.29-2.4-2.8-2.4-4.53,0-1.06.53-2.12,1.58-3.18,1.19-1.17,2.34-1.76,3.46-1.76.79,0,1.51.31,2.17.94,0-.95-.03-2.02-.07-3.21v-.26c-4.7.43-8.96.89-12.79,1.4-.25.03-.44.05-.56.05-.9,0-1.35-.42-1.35-1.27,0-.7.4-1.1,1.19-1.19,2.86-.34,7.35-.77,13.45-1.28ZM434.62,58.95c0-1.9-.12-3.27-.36-4.12-.28-.94-.72-1.42-1.33-1.42-.68,0-1.35.38-1.99,1.15-.46.54-.69,1.05-.69,1.55,0,.99.4,1.87,1.2,2.65.66.64,1.25.95,1.76.95s.97-.26,1.42-.77Z"/><path class="cls-4" d="M465.17,46.92c.24.5.36,1.25.36,2.24,0,3.28-1.28,6.96-3.85,11.05-1.91,3.03-3.7,4.54-5.37,4.54-1.17,0-2.22-.6-3.13-1.79-1.16-1.51-1.74-3.49-1.74-5.93s.98-4.9,2.93-7.1c1.54-1.73,3.44-3.06,5.71-3.97,2.05-.83,4.18-1.25,6.39-1.25,3.09,0,5.66.93,7.7,2.8,2.19,2,3.29,4.57,3.29,7.72,0,2.85-.89,5.34-2.68,7.46-1.35,1.6-3.06,2.82-5.14,3.65-.35.14-.66.21-.92.21-.34,0-.59-.12-.76-.35-.12-.16-.18-.33-.18-.49,0-.24.11-.47.33-.69.11-.1.55-.37,1.32-.81,1.21-.67,2.28-1.61,3.21-2.83,1.42-1.83,2.12-3.87,2.12-6.11,0-2.62-.94-4.75-2.82-6.39-1.56-1.35-3.37-2.02-5.43-2.02l-1.25.05h-.1ZM462.93,47.31c-3.26.9-5.74,2.55-7.44,4.96-1.09,1.54-1.63,3.11-1.63,4.71,0,1.74.37,3.19,1.12,4.33.47.72.93,1.09,1.37,1.09.8,0,1.79-.9,2.96-2.7,1.2-1.83,2.16-3.83,2.88-5.98.56-1.69.84-3.21.84-4.56,0-.37-.03-.99-.1-1.84Z"/><path class="cls-4" d="M499.89,47.28c-4.28.88-8.59,1.63-12.92,2.26-1.65.24-2.57.36-2.77.36-.9,0-1.35-.46-1.35-1.37,0-.5.25-.86.76-1.05.18-.08.77-.16,1.78-.26,2.03-.2,4.86-.58,8.48-1.15,3.46-.55,6.52-1.1,9.19-1.65.36-.08.66-.12.9-.12.63,0,1.07.23,1.32.69.16.3.25.59.25.87,0,.45-.4.84-1.19,1.17-2.05.86-3.86,2.25-5.42,4.18-1.84,2.27-2.77,4.6-2.77,6.98,0,1.82.64,3.39,1.93,4.69,1.08,1.09,2.39,1.85,3.95,2.29.79.22,1.19.67,1.19,1.37,0,.81-.44,1.22-1.33,1.22s-2.05-.43-3.46-1.3c-3.23-1.98-4.84-4.65-4.84-8.03,0-1.73.43-3.48,1.28-5.25,1.07-2.2,2.75-4.16,5.02-5.89ZM506.28,41.54c.26,0,.57.12.92.36,1.36.93,2.39,1.96,3.09,3.09.2.31.29.58.29.82,0,.31-.11.56-.34.76-.2.16-.43.25-.71.25-.31,0-.61-.24-.92-.71-.73-1.15-1.56-2.19-2.48-3.11-.32-.33-.48-.61-.48-.84,0-.42.21-.63.63-.63ZM509.18,39.49c.55,0,1.44.55,2.68,1.66,1.04.93,1.56,1.68,1.56,2.26,0,.35-.12.62-.36.81-.21.15-.42.23-.64.23-.31,0-.61-.21-.91-.64-.76-1.09-1.58-2.06-2.48-2.93-.32-.31-.48-.57-.48-.77,0-.41.21-.61.63-.61Z"/><path class="cls-4" d="M516.86,61.57c.33,0,.71.16,1.13.49,1.96,1.5,3.46,3.05,4.49,4.63.26.4.4.76.4,1.1,0,.53-.2.93-.59,1.2-.29.21-.59.31-.89.31-.43,0-.86-.31-1.3-.92-1.36-1.95-2.68-3.51-3.95-4.66-.33-.3-.49-.61-.49-.95,0-.27.11-.53.33-.76.26-.3.55-.44.87-.44Z"/><path class="cls-4" d="M52.8,88.45c-.03-1.44-.05-2.71-.05-3.8,0-1.01.09-1.64.26-1.88.21-.29.52-.43.92-.43.83,0,1.25.46,1.25,1.38v4.15c1.38-.35,2.39-.63,3.01-.84.31-.11.56-.16.76-.16.53,0,.89.22,1.09.66.09.19.13.38.13.59,0,.54-.34.92-1.02,1.14-.73.25-2.06.63-3.97,1.12,0,.54.01,1.39.03,2.57.04,2.13.07,3.53.07,4.2,2.96-1.21,5.92-1.81,8.87-1.81,1.8,0,3.31.34,4.53,1.02,1.9,1.05,2.85,2.67,2.85,4.84s-.61,3.73-1.84,4.84c-1.27,1.15-3.06,1.73-5.37,1.73-.78,0-1.35-.06-1.71-.16-.55-.15-.82-.48-.82-.97,0-.56.3-.84.89-.84l.77.02c1.68,0,3.01-.37,4-1.1.97-.71,1.45-1.79,1.45-3.23,0-1.24-.47-2.23-1.4-2.96-.88-.7-2.06-1.05-3.56-1.05-2.72,0-5.61.69-8.66,2.06.06,2.35.08,4.46.08,6.34,0,1.02-.15,1.74-.44,2.16-.4.56-1.02.84-1.88.84-1.43,0-2.89-.6-4.4-1.81-1.11-.88-1.66-1.74-1.66-2.6,0-1.98,1.98-4.04,5.94-6.21l-.02-.61-.02-1.99-.03-2.04-.03-2.04v-.63c-2.52.59-4.16.89-4.91.89-.87,0-1.3-.41-1.3-1.22,0-.69.49-1.1,1.47-1.23,1.28-.19,2.85-.49,4.71-.91ZM52.96,100.68c-2.39,1.39-3.59,2.58-3.59,3.56,0,.46.44.97,1.33,1.53.73.46,1.33.69,1.79.69.25,0,.4-.14.44-.43.03-.15.05-.6.05-1.35,0-.7-.01-1.9-.03-3.59v-.41ZM65.34,84.4c.82,0,2.16.68,4,2.04.72.54,1.28,1.01,1.68,1.43.31.32.46.65.46,1,0,.38-.18.71-.54.99-.22.16-.45.25-.69.25-.4,0-.85-.27-1.37-.82-.92-.98-2.12-2-3.61-3.06-.48-.35-.72-.7-.72-1.04,0-.53.26-.79.79-.79Z"/><path class="cls-4" d="M90.05,101.37l-6.19.41.05.43c.01.08.02.14.02.2,0,.3-.1.54-.31.74-.22.22-.52.33-.89.33-.73,0-1.15-.36-1.23-1.07l-1.78-14.47c-.02-.19-.03-.31-.03-.36,0-.44.2-.75.59-.94.2-.1.41-.15.63-.15.7,0,1.14.29,1.32.86l7.84-.67v-4.89c0-.3.09-.54.26-.74.23-.27.54-.41.94-.41.49,0,.85.19,1.07.56.1.18.15.37.15.59v4.69l7.92-.69c.16-.01.29-.02.38-.02,1.51,0,2.27.78,2.27,2.35,0,.21,0,.37-.02.49l-1.12,12.89c-.06.71-.46,1.07-1.2,1.07-.54,0-.91-.21-1.1-.63-.1-.2-.14-.43-.12-.69l.03-.51-7.05.46v8.12c0,.29-.09.53-.26.74-.23.26-.54.4-.94.4-.49,0-.85-.19-1.07-.56-.1-.16-.15-.36-.15-.58v-7.95ZM90.05,92.76v-4.03l-7.59.66.44,3.93,7.14-.56ZM90.05,94.75l-6.91.53.49,4.46,6.42-.43v-4.56ZM92.47,92.58l7.75-.61.23-2.85c.01-.13.02-.24.02-.31,0-.6-.3-.91-.91-.91h-.21l-6.88.61v4.07ZM92.47,99.16l7.23-.49.36-4.69-7.59.59v4.59Z"/><path class="cls-4" d="M115.62,104.33c1.76.03,4.04.34,6.85.91,5.45,1.1,11,1.74,16.64,1.94,1.29.06,1.94.22,1.94.49,0,.19-.3.5-.91.95-1.05.79-2.07,1.19-3.06,1.19-.33,0-.93-.06-1.79-.16-4.09-.53-8.79-1.44-14.09-2.73-2.2-.54-4.16-.81-5.91-.81-.88,0-2.08.24-3.62.71-.21.07-.39.1-.54.1-.4,0-.68-.18-.86-.53-.09-.19-.13-.38-.13-.58,0-.49.29-.82.86-.99.47-.13,1.13-.25,1.98-.35,2.23-2.12,3.34-3.51,3.34-4.16,0-.26-.28-.55-.84-.87-.6-.36-.91-.81-.91-1.35,0-.69.54-2.2,1.61-4.53l-4.21.99c-.2.04-.37.07-.51.07-.44,0-.75-.18-.92-.53-.11-.22-.16-.42-.16-.59,0-.57.32-.92.95-1.04l5.91-1.12c.18-.03.36-.05.54-.05.47,0,.83.14,1.09.41.21.22.31.49.31.82,0,.47-.24,1.01-.71,1.63-.48.66-.98,1.51-1.48,2.57-.15.33-.23.6-.23.81,0,.29.26.55.77.81.15.07.47.22.95.48.68.35,1.02.75,1.02,1.19,0,.48-.35,1.08-1.04,1.79-.55.57-1.5,1.42-2.85,2.54ZM112.97,82.03c.29,0,.63.12,1.02.35,1.84,1.12,3.17,2.04,3.97,2.77.42.37.63.76.63,1.15,0,.25-.09.51-.28.77-.24.34-.58.51-1.02.51-.46,0-.93-.27-1.42-.82-.72-.81-1.78-1.81-3.16-2.98-.36-.32-.54-.63-.54-.92,0-.55.27-.82.81-.82ZM129.25,93.1c-1.64,3.7-3.98,6.84-7.05,9.42-.9.76-1.51,1.14-1.83,1.14-.21,0-.39-.09-.54-.26-.19-.2-.28-.41-.28-.63s.09-.44.28-.64c.04-.06.34-.33.89-.82,1.77-1.61,3.36-3.64,4.79-6.07,1.04-1.78,1.82-3.54,2.34-5.28-.83-2.03-1.58-4.17-2.24-6.42-.11-.36-.16-.62-.16-.77,0-.35.16-.61.49-.79.23-.12.46-.18.69-.18.36,0,.64.16.82.49.08.13.31.89.69,2.29,2.06,7.61,5.61,13.31,10.63,17.1.81.61,1.22,1.05,1.22,1.3,0,.19-.18.33-.54.43-.67.2-1.34.3-2.01.3-.59,0-1.11-.21-1.56-.64-2.23-2.16-4.44-5.48-6.63-9.94Z"/><path class="cls-4" d="M159.03,85.52c-1.23.36-2.95.71-5.15,1.04-1.49.22-2.4.33-2.72.33-.76,0-1.14-.4-1.14-1.2,0-.46.14-.79.43-.99.2-.13.65-.21,1.35-.25,2.56-.11,4.93-.45,7.13-1.02.36-.1.69-.15.97-.15.54,0,.96.19,1.29.58.34.41.51.81.51,1.22,0,.36-.16.87-.48,1.53-1.43,2.91-3.02,5.98-4.77,9.2,3.07.2,6.18.72,9.33,1.58.25-1.03.47-2.24.64-3.64.09-.79.51-1.19,1.27-1.19s1.15.42,1.15,1.27c0,1.12-.21,2.55-.64,4.3,1.15.41,2.03.74,2.63,1,.6.27.91.69.91,1.23,0,.22-.05.44-.17.66-.21.38-.52.58-.94.58-.21,0-.45-.06-.71-.18-.68-.3-1.49-.63-2.44-1-1.29,3.38-3.11,5.92-5.43,7.62-.52.37-.96.56-1.32.56-.46,0-.69-.24-.69-.71,0-.26.22-.61.66-1.04,1.87-1.79,3.34-4.2,4.43-7.24-3.54-1.04-6.83-1.63-9.88-1.76-1.9,3.27-3.19,5.3-3.89,6.09-1.12,1.32-2.21,1.98-3.28,1.98-.67,0-1.31-.32-1.91-.97-.92-1.02-1.38-2.3-1.38-3.84,0-3.26,3.06-5.04,9.17-5.35,1.88-3.42,3.58-6.8,5.12-10.14l-.07-.1ZM152.75,97.93c-1.69.12-3.01.44-3.97.97-1.09.59-1.63,1.35-1.63,2.27,0,.75.13,1.36.4,1.83.2.37.44.56.74.56.57,0,1.22-.53,1.96-1.6.63-.92,1.46-2.27,2.5-4.03Z"/><path class="cls-4" d="M180.51,103.25l.12-.26c.78-1.77,1.28-2.85,1.5-3.26.16-.31.38-.46.64-.46.14,0,.27.03.38.1.26.15.4.36.4.61,0,.12-.06.34-.18.64-.84,2.18-1.37,3.96-1.58,5.33-.07.49-.22.89-.48,1.2-.25.3-.53.44-.84.44-.61,0-1.12-.43-1.51-1.28-.71-1.55-1.07-3.95-1.07-7.19,0-2.64.24-6.5.71-11.56.15-1.66.27-2.63.34-2.93.18-.71.59-1.07,1.25-1.07.42,0,.75.15.99.46.18.22.26.49.26.82,0,.15-.04.52-.13,1.1-.35,2.44-.66,5.54-.94,9.32-.11,1.55-.17,2.79-.17,3.72,0,1.11.1,2.53.31,4.26ZM194.73,88.51v-4.89c0-.73.4-1.1,1.2-1.1s1.19.37,1.19,1.1v4.66l.3-.03,2.25-.21c.81-.07,1.26-.1,1.33-.1.76,0,1.14.38,1.14,1.15,0,.58-.28.94-.82,1.09-.1.03-1.06.13-2.88.3-.08,0-.52.04-1.32.13,0,3.67.06,7.28.17,10.83,2.07.95,3.62,1.79,4.64,2.5.57.41.86.83.86,1.28,0,.38-.14.7-.43.95-.19.16-.41.25-.66.25-.32,0-.7-.16-1.14-.48-.91-.69-2-1.38-3.27-2.06-.33,2.16-1.94,3.24-4.84,3.24-2.08,0-3.77-.54-5.07-1.63-.96-.8-1.45-1.69-1.45-2.67s.45-1.84,1.35-2.45c.78-.54,1.79-.81,3.04-.81s2.75.29,4.58.87c-.11-3.86-.16-7.07-.16-9.61-1.73.18-3.91.41-6.53.69-.2.02-.35.03-.45.03-.78,0-1.17-.4-1.17-1.19,0-.54.29-.88.86-1.04.1-.02,1.36-.17,3.79-.44l3.03-.33.48-.05ZM194.93,102.73c-1.95-.76-3.47-1.14-4.54-1.14-1.31,0-1.96.4-1.96,1.19,0,.5.29.95.87,1.35.75.52,1.8.77,3.16.77,1.14,0,1.87-.22,2.17-.66.2-.29.3-.74.3-1.37v-.15Z"/><path class="cls-4" d="M213.94,88.45c-.03-1.44-.05-2.71-.05-3.8,0-1.01.09-1.64.26-1.88.21-.29.52-.43.92-.43.83,0,1.25.46,1.25,1.38v4.15c1.38-.35,2.39-.63,3.01-.84.31-.11.56-.16.76-.16.53,0,.89.22,1.09.66.09.19.13.38.13.59,0,.54-.34.92-1.02,1.14-.73.25-2.06.63-3.97,1.12,0,.54.01,1.39.03,2.57.04,2.13.07,3.53.07,4.2,2.96-1.21,5.92-1.81,8.87-1.81,1.8,0,3.31.34,4.53,1.02,1.9,1.05,2.85,2.67,2.85,4.84s-.61,3.73-1.84,4.84c-1.27,1.15-3.06,1.73-5.36,1.73-.78,0-1.35-.06-1.71-.16-.55-.15-.83-.48-.83-.97,0-.56.3-.84.89-.84l.77.02c1.68,0,3.01-.37,4-1.1.97-.71,1.45-1.79,1.45-3.23,0-1.24-.46-2.23-1.4-2.96-.88-.7-2.06-1.05-3.56-1.05-2.72,0-5.61.69-8.66,2.06.05,2.35.08,4.46.08,6.34,0,1.02-.15,1.74-.45,2.16-.4.56-1.02.84-1.88.84-1.43,0-2.89-.6-4.39-1.81-1.11-.88-1.66-1.74-1.66-2.6,0-1.98,1.98-4.04,5.94-6.21l-.02-.61-.02-1.99-.03-2.04-.03-2.04v-.63c-2.52.59-4.16.89-4.9.89-.87,0-1.3-.41-1.3-1.22,0-.69.49-1.1,1.46-1.23,1.29-.19,2.85-.49,4.71-.91ZM214.11,100.68c-2.39,1.39-3.59,2.58-3.59,3.56,0,.46.44.97,1.33,1.53.74.46,1.33.69,1.79.69.25,0,.4-.14.45-.43.03-.15.05-.6.05-1.35,0-.7-.01-1.9-.03-3.59v-.41ZM226.49,84.4c.83,0,2.16.68,4,2.04.72.54,1.28,1.01,1.68,1.43.31.32.46.65.46,1,0,.38-.18.71-.54.99-.22.16-.45.25-.69.25-.4,0-.85-.27-1.37-.82-.92-.98-2.12-2-3.61-3.06-.48-.35-.72-.7-.72-1.04,0-.53.26-.79.79-.79Z"/><path class="cls-4" d="M253.86,95.49v3.87l12.35-.81c.2.01.36.06.49.13.36.21.54.54.54.99,0,.68-.32,1.04-.97,1.09l-12.41.79v7.74c0,.29-.1.53-.3.72-.26.27-.59.41-.99.41-.53,0-.9-.2-1.14-.59-.1-.16-.15-.35-.15-.54v-7.57l-12.1.79c-.15.01-.29-.01-.43-.07-.44-.19-.66-.54-.66-1.05,0-.67.34-1.03,1.02-1.07l12.17-.79v-3.84l-5.42.4v.12c0,.35-.15.64-.45.86-.23.18-.49.26-.79.26-.75,0-1.16-.37-1.24-1.12l-1.32-12.54c0-.1-.02-.15-.02-.16,0-.43.2-.74.59-.94.21-.1.43-.15.66-.15.51,0,.87.21,1.09.64l16.2-1.27c.07-.01.16-.02.3-.02,1.46,0,2.19.68,2.19,2.04,0,.1,0,.23-.03.4l-1.45,11.23c-.1.75-.51,1.12-1.22,1.12-.36,0-.65-.11-.87-.33-.19-.2-.28-.44-.28-.72,0-.07,0-.13.02-.2l.02-.2-5.42.4ZM260.19,87.39l.31-2.78c0-.06.02-.1.02-.15,0-.22-.08-.38-.25-.48-.15-.09-.3-.12-.44-.1l-.07.02-15.03,1.19.35,3.42,15.11-1.12ZM259.94,89.43l-14.65,1.05.38,3.56,13.86-1.02.41-3.59Z"/><path class="cls-4" d="M287.07,88.12c.4-1.62.69-3.17.89-4.64.1-.78.52-1.17,1.27-1.17.89,0,1.33.4,1.33,1.2,0,.66-.31,2.18-.94,4.58,3.13.37,5.48,1.63,7.06,3.77,1.3,1.74,1.94,3.87,1.94,6.39s-.79,4.68-2.37,6.63c-1.22,1.51-2.78,2.73-4.69,3.65-.37.19-.71.28-1.01.28-.34,0-.6-.13-.77-.38-.1-.15-.15-.31-.15-.48,0-.25.12-.49.35-.71.09-.09.47-.35,1.15-.79,1.81-1.15,3.18-2.76,4.1-4.82.51-1.13.76-2.28.76-3.44,0-2.79-.98-4.92-2.93-6.4-1.07-.81-2.44-1.31-4.08-1.48-1.4,4.31-3.16,8.03-5.28,11.16.59,1.12,1.12,2,1.58,2.63.31.42.46.8.46,1.14,0,.37-.15.67-.46.91-.23.18-.47.26-.71.26-.4,0-.76-.24-1.1-.71-.47-.67-.91-1.41-1.32-2.22-2.14,2.52-3.92,3.79-5.35,3.79-.87,0-1.66-.38-2.37-1.15-1.22-1.33-1.83-3.08-1.83-5.25,0-2.96,1.59-5.83,4.76-8.61-.55-1.92-1.03-3.47-1.45-4.64-.07-.19-.1-.36-.1-.51,0-.37.17-.7.51-.97.23-.19.48-.28.76-.28.54,0,.9.24,1.09.72.13.32.41,1.27.84,2.85.1.36.22.82.38,1.38,2.44-1.5,5-2.4,7.69-2.68ZM278.06,94.55c-2.07,2.08-3.11,4.17-3.11,6.26,0,1.31.29,2.4.86,3.29.35.54.74.81,1.15.81.89,0,2.23-1.2,4.03-3.59-1.14-2.26-2.12-4.52-2.93-6.77ZM286.46,90.37c-2.35.36-4.5,1.21-6.47,2.55.73,2.22,1.58,4.32,2.55,6.3,1.56-2.66,2.86-5.61,3.92-8.86Z"/><path class="cls-4" d="M308.62,102.73c.71-1.65,1.24-2.79,1.58-3.42.19-.36.41-.54.67-.54.14,0,.27.03.38.1.26.15.4.36.4.61,0,.12-.06.34-.18.64-.84,2.17-1.37,3.95-1.58,5.33-.07.49-.22.89-.48,1.2-.25.3-.53.44-.84.44-.62,0-1.14-.45-1.55-1.35-.71-1.61-1.07-4.02-1.07-7.21,0-2.71.3-6.79.9-12.25.09-.82.17-1.35.25-1.58.2-.55.59-.82,1.19-.82.42,0,.75.15.99.46.18.22.26.5.26.84,0,.16-.04.53-.13,1.09-.34,2.12-.65,4.97-.94,8.54-.11,1.47-.17,2.68-.17,3.64,0,1.11.1,2.54.31,4.28ZM317.24,99.84c.32,0,.61.17.87.51,1.25,1.61,4.1,2.42,8.54,2.42.46,0,.87-.02,1.22-.05.18-.01.3-.02.38-.02.5,0,.87.16,1.14.49.18.22.26.48.26.77,0,.47-.19.85-.58,1.14-.25.19-.76.28-1.51.28-2.32,0-4.44-.25-6.37-.74-1.86-.46-3.25-1.26-4.2-2.4-.47-.57-.71-1.05-.71-1.45,0-.26.08-.48.25-.66.19-.2.42-.3.71-.3ZM326.45,88.84c-2.03,0-4.7.5-8.02,1.5-.32.1-.56.15-.72.15-.51,0-.84-.21-1.02-.64-.07-.16-.1-.31-.1-.44,0-.38.33-.71.99-.99,1.86-.77,3.79-1.34,5.79-1.71,1.1-.2,2.06-.3,2.9-.3,1.63,0,2.45.44,2.45,1.32,0,.76-.48,1.14-1.45,1.14l-.82-.02Z"/><path class="cls-4" d="M340.69,104.6c.42,0,.81.12,1.19.35.76.45,1.13,1.11,1.13,1.99,0,.59-.2,1.11-.61,1.56-.46.5-1.04.76-1.74.76-.38,0-.75-.09-1.09-.28-.81-.45-1.22-1.14-1.22-2.06,0-.67.24-1.23.71-1.68.46-.43,1.01-.64,1.63-.64ZM341.79,100.79c-.06.82-.42,1.23-1.1,1.23s-1.09-.41-1.12-1.23l-.74-17.81v-.12c0-.36.11-.66.31-.91.36-.46.88-.69,1.55-.69.6,0,1.09.2,1.46.61.28.3.4.66.38,1.1l-.74,17.81Z"/><path class="cls-3" d="M538.75,55.64c113.36-10.13,125.87,68.79,34.72,93.04"/><path class="cls-1" d="M577,133.34c-3.15,3.15-21.52,16.55-19.03,19.86,1.67,2.22,17.44,6.2,24.83,4.97"/><path class="cls-5" d="M538.06,79c.25-.31.38-.69.29-1.21-.32-1.91-7.95-7.19-5.49-9.22.46-.38.6.03,1.08,0,1.99-.14,4.39,1.45,6.06,2.32,1.58.81,3.62,2.96,5.49,2.82.67-.05,1.31-.3,1.93-.56,2.4-.97,4.79-1.93,7.19-2.9.63-.26,1.29-.51,1.97-.47.68.05,1.39.49,1.49,1.17.08.54-.22,1.05-.51,1.51-.93,1.48-1.86,2.96-2.79,4.44-2.01,3.2.27,3.99,2.85,5.42,1.13.62,4.74,1.8,5.12,3.23.54,2.05-8.82.47-10.48.34-1.97-.16-1.56.87-1.79,2.54-.2,1.46-.49,2.95-.96,4.35-.8,2.39-2.44,4.75-4.35,1.68-1.15-1.86-1.32-4.7-2.91-6.33-2.28-2.33-6.17-.6-8.96-.73-.89-.04-4.62.02-5.2-.85-1.28-1.92,6.88-5.47,8.13-6.29.61-.4,1.39-.72,1.82-1.25Z"/><path class="cls-7" d="M41.29,10.59c.25-.31.38-.69.29-1.21-.32-1.91-7.95-7.19-5.49-9.22.46-.38.6.03,1.08,0,1.99-.14,4.39,1.45,6.06,2.32,1.58.81,3.62,2.96,5.49,2.82.67-.05,1.31-.3,1.93-.56,2.4-.97,4.79-1.93,7.19-2.9.63-.26,1.29-.51,1.97-.47.68.05,1.39.49,1.49,1.17.08.54-.22,1.05-.51,1.51-.93,1.48-1.86,2.96-2.79,4.44-2.01,3.2.27,3.99,2.85,5.42,1.13.62,4.74,1.8,5.12,3.23.54,2.05-8.82.47-10.48.34-1.97-.16-1.56.87-1.79,2.54-.2,1.46-.49,2.95-.96,4.35-.8,2.39-2.44,4.75-4.35,1.68-1.15-1.86-1.32-4.7-2.91-6.33-2.28-2.33-6.17-.6-8.96-.73-.89-.04-4.62.02-5.2-.85-1.28-1.92,6.88-5.47,8.13-6.29.61-.4,1.39-.72,1.82-1.25Z"/><circle class="cls-2" cx="5.17" cy="259.04" r="5.17"/></svg>