<?xml version="1.0" encoding="UTF-8"?><svg id="Layer_1" xmlns="http://www.w3.org/2000/svg" xmlns:xlink="http://www.w3.org/1999/xlink" viewBox="0 0 466 725"><defs><style>.cls-1{fill:#2db999;}.cls-1,.cls-2,.cls-3,.cls-4,.cls-5{stroke-width:0px;}.cls-2{fill:#3ae9d8;}.cls-3{fill:none;}.cls-4{fill:#2d7068;}.cls-6{clip-path:url(#clippath);}.cls-5{fill:#2fc5b4;}</style><clipPath id="clippath"><rect class="cls-3" width="466" height="725"/></clipPath></defs><g class="cls-6"><path class="cls-1" d="M341.58-3c9.43,16.67,42.82,91.22,53.03,120.02,0,0,69.38,82.61,69.38,82.61,0,0-27.92-19.06-52.79-36.83,12.65,37.07,23.41,74.32,32.25,112.17l59.75,69.91s-27.42-18.32-52.31-35.71c8.23,40.88,14.32,83.05,18.08,125.89l48.6,49.48s-25.55-9.85-46.52-18.92c6.58,127.86-11.62,257.92-10.99,259.39C676.57,503.52,612.42,140.03,341.58-3Z"/><path class="cls-4" d="M388.31,564.46l26.17,9.41c10.06-7,19.8-14.27,28.17-23.7,9.21-10.36,8.1-25.02,18.55-32.76,12.59-9.33,29.36-12.39,42.37-21.47,12.26-8.54,19.92-20.56,26.3-34.84,5.61-12.56,10.59-15.52,21.88-21.53,31.07-16.54,70.27-33.42,85.46-69.24-27.81,11.53-97.79,21.66-179.38,103.2-28.25,28.24-49.88,55.49-69.52,90.93Z"/><path class="cls-4" d="M399.59,545.9l27.07-1.72c5.3-22.08,11.77-40.91,19.34-63.05,16.99-49.68,37.09-97.32,70.43-138.58,6.32-7.81,13.51-15.1,20.71-22.1,3.35-3.26,13.5-9.39,15.36-13.28,7-14.59-19.58-6.04-27.49-2.08-32.21,16.16-63.28,40.06-75.72,74.79-5.74,16.02-13.22,22.55-22.73,36.32-10.33,14.97-11.38,33.85-8.42,49.53-13.16,14.8-21.06,35.8-18.63,54.69.65,5.02,4.72,11.39,3.88,16.42-.46,2.73-1.98,5.84-3.81,9.06Z"/><path class="cls-4" d="M258.26,246.98c1.57,1.35-.39,14.76-.28,17.4.23,5.45,1.11,10.71,3.33,15.72,5.27,11.89,16.1,20.85,14.01,35.01-1.07,7.34-3.77,14.83-1.8,21.98,2.53,9.19,12.07,15.12,14.7,24.27,3.1,10.78-4.27,21.67-5.11,32.86-.55,7.38,1.85,14.77,5.75,21.05,3.56,5.73,8.43,10.82,10.36,17.28,2.7,9.05-.87,18.24-2.33,27.15-1.34,8.15,1.93,15.49,2.93,23.65,1.66,13.4-7.14,27.61-2.91,40.86,2.19,6.86,6.95,6.66,10.24,11.98.03.05.05.1.07.15l23.81,4.56c1.62-11.52,3.26-23.09,3.26-23.1,12.39-92.8-1.06-206.48-76.05-270.81Z"/><path class="cls-4" d="M107.67,355.36s45.58,28.96,91.87,37.44c16.36,3,18.42,24.49,33.07,33.26,13.41,8.03,31.33,7.61,44.32,14.76,14.68,8.08,11.5,24.03,22.79,36.11,13.94,14.91,32.92,10.65,49.13,18.61,12.52,6.15,17.77,20.41,28.51,30.47l35.32-2.24c-20.81-37.97-52.46-79.23-96.79-113.2-62.17-47.65-131.49-78.95-208.23-55.2Z"/><path class="cls-4" d="M260.94,487.12c38.87,5.17,73.84,16.11,110.29,30.65,17.49,6.98,55.72,37.86,55.72,37.86l-1.09.42-16.98,3.33c-10.29-1.61-21.19-8.47-31.48-8.16-14.37.44-19.87-4.91-32.45-9.27-7.83-2.71-14.84-.46-23.48-2.3-10.49-2.23-15.97-6.64-26.8-6.74-12.89-.12-26.82,1.43-37.25-7.62-10.55-9.16-6.67-10.59-21.81-9.2-34.8,3.2-73.67.72-105.2-15.37,39.19-20.28,88.02-19.25,130.51-13.6Z"/><path class="cls-2" d="M197.55,600.42c69.08,18.48,140.61,20.99,209.26,42.78,22.01,6.99,46.22,13.07,66.63,23.88,17.32,9.18,32.57,22.6,48.14,34.43,14.71,11.18,25.34,25.63,34.1,41.54-16.02-11.12-36.14-15.07-53.15-24.15-20.46-10.91-43.12-17.75-65.39-24.81-45.21-14.33-91.01-24.42-137.14-35.07-17.34-4-34.57-9.6-51.99-14.06-21.22-5.44-41.52-14.18-60.69-24.72-25.1-13.81-48.95-29.78-70.24-48.5,7.25,3.52,14.6,6.86,22.15,9.85,18.86,7.47,38.71,13.58,58.33,18.83Z"/><path class="cls-5" d="M5,495.63c20.05-7.51,43.77-8.69,64.92-10.84,65.53-6.65,121.36,22.64,180.38,46.83,31.6,12.95,65.23,15.31,97.39,25.04,31.53,9.53,61.9,22.86,90.27,39.61,35.38,20.88,58.2,51.43,83.43,83.21,15.18,19.12,27.74,40.41,34.77,63.91-.16-.11-.32-.21-.48-.32-8.77-15.91-19.39-30.36-34.1-41.54-15.57-11.83-30.82-25.26-48.14-34.43-20.41-10.82-44.62-16.9-66.63-23.88-68.65-21.79-140.18-24.31-209.26-42.78-19.61-5.25-39.47-11.35-58.33-18.83-7.54-2.99-14.9-6.32-22.15-9.85-7.23-6.35-14.16-13.02-20.75-20.04-24.52-26.1-57.09-45.86-91.32-56.08Z"/><path class="cls-2" d="M504.26,631.43c-7.74-13.86-17.98-25.86-28.13-38.11-19.37-23.38-41.08-40.65-65.6-57.85-22.32-15.65-43-35.89-55.59-60.66-16.26-32-11.82-69.52-31.58-100.92-11.98-19.05-30.25-33.27-43.68-51.38-8.28-11.18-15.11-23.76-20.81-36.36-3.33-7.36-11.39-41.27-17.17-54.32,1,6.55,4.88,31.14,8,41.86,7.21,24.8,15.46,48.84,21.53,73.98,5.95,24.64,10.85,48.65,20.21,72.45,8.32,21.16,20.65,42.39,33.53,61.33,21.8,32.07,49.77,58.48,78.05,84.52,27.54,25.35,60.26,44.56,86.01,71.88,15.19,16.12,26.8,34.47,39.17,52.35-1.23-4.75-2.51-9.5-3.8-14.24-1.52-4.58-3.21-9.09-5.19-13.48-4.75-10.53-9.29-20.9-14.95-31.03Z"/><path class="cls-5" d="M402.19,401.46c-32.02-35.32-69.91-64.63-101.84-100.16-12.17-13.54-22.27-28.53-33.19-42.98-4.08-5.4-18.66-27.47-25.7-28.15,0,0,.09.6.25,1.64,5.78,13.05,13.84,46.96,17.17,54.32,5.7,12.6,12.52,25.19,20.81,36.36,13.43,18.12,31.69,32.33,43.68,51.38,19.76,31.4,15.32,68.92,31.58,100.92,12.59,24.77,33.27,45.01,55.59,60.66,24.52,17.2,46.24,34.47,65.6,57.85,10.15,12.25,20.39,24.25,28.13,38.11,5.65,10.13,10.2,20.5,14.95,31.03,1.98,4.39,3.67,8.9,5.19,13.48-2.84-10.45-5.7-20.88-8.15-31.32-3.85-16.39-6.8-33.21-9.71-49.79-12.65-72.1-55.34-139.31-104.35-193.37Z"/></g></svg>