<?xml version="1.0" encoding="UTF-8"?><svg id="Layer_1" xmlns="http://www.w3.org/2000/svg" xmlns:xlink="http://www.w3.org/1999/xlink" viewBox="0 0 89.44 91.09"><defs><style>.cls-1{fill:#016775;}.cls-1,.cls-2,.cls-3{stroke-width:0px;}.cls-2{fill:none;}.cls-3{fill:#f3d475;}.cls-4{clip-path:url(#clippath);}</style><clipPath id="clippath"><rect class="cls-2" y="0" width="89.44" height="91.09"/></clipPath></defs><g id="Group_422"><circle id="Ellipse_20" class="cls-3" cx="45" cy="45.25" r="41"/><g class="cls-4"><g id="Group_421"><path id="Path_458" class="cls-1" d="m43.4,60.05c-.26-1.29-1.29-2.29-2.59-2.5-.45-.04-.9.12-1.22.44-1.43,1.57-2.78,3.21-4.17,4.82-.49.48-.66,1.19-.45,1.83.55,1.12,1.57,1.95,2.78,2.26.44-.23.85-.51,1.22-.85,1.28-1.45,2.54-2.92,3.74-4.43.35-.44.79-1.12.68-1.57"/><path id="Path_459" class="cls-1" d="m43.19,64.12c-1.02,1.14-1.96,2.36-2.96,3.53-.41.45-.48,1.12-.17,1.65.41.91,1.32,1.5,2.32,1.51.3-.07.59-.21.83-.4,1.01-1.15,1.98-2.35,2.94-3.55.77-.96.66-1.71-.37-2.66-.59-.74-1.66-.85-2.4-.27-.07.06-.14.12-.2.19"/><path id="Path_460" class="cls-1" d="m42.85,50.89c.18-.27.34-.56.46-.87-.06-1.21-.74-2.31-1.79-2.91-.93-.79-2.32-.67-3.1.26-.09.1-.17.22-.23.34-1.11,1.41-2.28,2.77-3.45,4.14-1.7,2.01-3.43,3.99-5.1,6.01-.21.33-.31.72-.26,1.11.14,1.33,1.06,2.46,2.33,2.87.86.5,1.97.21,2.48-.65.4-.49.8-.97,1.21-1.46,2.48-2.95,4.97-5.9,7.45-8.85"/><path id="Path_461" class="cls-1" d="m29.14,44.28c.86-1.05,1.81-1.95,3.25-1.78.85.16,1.68.39,2.49.69-.09-.12-.24-.33-.38-.54-.96-1.45-.93-3.34.08-4.76,1.9-2.31,3.85-4.57,5.79-6.84,1.14-1.34,1.15-1.33-.21-2.44-.02-.02-.04-.03-.06-.05-2.84-2.67-6.69-4.02-10.58-3.71-3,.15-5.83,1.48-7.86,3.7-4.18,4.52-4.18,10.94-1.32,15.89,1.17,1.92,2.68,3.61,4.45,5,1.45-1.72,2.92-3.42,4.34-5.15"/><path id="Path_462" class="cls-1" d="m34.99,48.42c.39-.45.47-1.09.22-1.63-.14-.32-.31-.62-.52-.9-.55-1.14-1.92-1.63-3.06-1.08-.33.16-.61.39-.83.68-1.92,2.23-3.86,4.44-5.75,6.7-.54.5-.92,1.15-1.11,1.86-.11,1.52,1.72,3.12,2.99,3.17.39-.16.75-.37,1.08-.62.61-.62,1.14-1.31,1.7-1.97,1.75-2.07,3.49-4.16,5.28-6.2"/><path id="Path_463" class="cls-1" d="m66.53,26.8c-3.2-3.03-7.61-4.42-11.97-3.8-2.7.28-5.23,1.42-7.23,3.25-1.11,1.08-2.17,2.23-3.16,3.42-2.44,2.82-4.87,5.65-7.27,8.5-.66.58-1.05,1.41-1.08,2.29.06,1.11.99,2.16,1.9,1.89,1.82-.52,3.47-1.51,4.78-2.87,1.23-1.28,2.33-2.69,3.49-4.04.99-1.14,1.16-1.14,2.44-.34,4.08,2.57,8.45,3.81,13.23,2.73,2.33-.53,4.61-1.26,6.9-1.97.49-.22,1.06,0,1.28.5.02.05.04.09.05.14.2.52-.09.97-.65,1.2-2.53,1.1-5.19,1.85-7.92,2.22-1.61.19-3.24.25-4.86.37l12.61,11.3c.83-1.1,1.84-2.26,2.65-3.56,1.64-2.64,2.38-5.75,2.1-8.85-.2-3.44-1.58-6.7-3.9-9.25-1.07-1.11-2.2-2.16-3.39-3.15"/><path id="Path_464" class="cls-1" d="m48.42,64.19c.79,2.18-.3,3.7-1.65,5.09.48.43.89.8,1.31,1.15.86.89,2.28.9,3.17.04.05-.05.09-.09.13-.14.94-.88,1.01-2.36.14-3.32-1.03-.94-2.07-1.88-3.1-2.83"/><path id="Path_465" class="cls-1" d="m44.72,0C20.02,0,0,20.39,0,45.54s20.02,45.54,44.72,45.54,44.72-20.39,44.72-45.54S69.42,0,44.72,0m28.04,50.05c-.91,1.26-1.95,2.44-2.92,3.66-.21.23-.36.51-.42.81-.08,2.43-2.12,4.34-4.55,4.27-.12,0-.23-.01-.35-.03-.24-.02-.47,0-.71-.01.1,2.97-1.89,4.69-4.74,4.54-.19,3.11-1.71,4.95-4.97,5.07.04,1.15-.36,2.28-1.11,3.16-1.46,1.84-4.14,2.15-5.98.69-.19-.15-.36-.31-.52-.49-.02-.02-.03-.05-.04-.07-.81-.84-.85-.87-1.59-.05-.91,1.13-2.45,1.54-3.81,1.03-1.47-.4-2.6-1.58-2.95-3.06-.06-.23-.13-.46-.2-.74-1.26-.08-2.45-.61-3.36-1.48-.76-.72-1.3-1.62-1.58-2.63-.07-.24-.33-.57-.53-.59-2.61-.31-4.68-2.34-5.05-4.94-2.33,0-4.41-1.48-5.19-3.68-.75-1.88.07-3.24,1.26-4.48-.95-.96-1.88-1.9-2.81-2.85-1.68-1.78-2.9-3.94-3.55-6.3-1.44-4.35-.8-9.12,1.76-12.93,1.94-2.99,5-5.08,8.5-5.79,4.55-.98,9.3.09,12.99,2.94.69.53,1.34,1.11,1.95,1.72.32.3.56.34.85-.04,1.03-1.42,2.26-2.69,3.66-3.76,1.56-1.14,3.31-2,5.17-2.52,4.58-1.4,9.55-.67,13.52,2,2.87,1.78,5.36,4.12,7.31,6.88,4.09,5.93,4.08,13.77-.04,19.68"/><path id="Path_466" class="cls-1" d="m62.37,48.27c-2.64-2.34-5.26-4.69-7.9-7.03-.82-.81-1.72-1.55-2.67-2.21-1.3-.73-2.64-1.39-4.02-1.96-.24-.08-.51-.03-.71.13-.65.7-1.24,1.45-1.85,2.19-2.37,2.88-5.13,5.02-9.03,5.06.26.44.53.91.82,1.4.2-.1.38-.23.54-.37.78-.85,1.98-1.16,3.07-.8,2.24.38,4.02,2.09,4.5,4.31.09.34.26.65.51.9,1.26,1.16,2.55,2.28,3.83,3.42,2.27,2.01,4.53,4.03,6.81,6.03.78.87,1.77,1.53,2.87,1.93,1.14.31,2.31-.36,2.62-1.5.09-.31.1-.64.04-.96-.22-1.03-.83-1.94-1.7-2.53-2.23-1.96-4.45-3.93-6.66-5.91-1.82-1.63-3.62-3.29-5.45-4.92-.42-.26-.55-.81-.29-1.23.05-.08.12-.16.19-.22.43-.49.88-.39,1.32,0,.94.81,1.88,1.63,2.81,2.45,2.25,1.99,4.48,4,6.73,5.98,1.45,1.28,2.9,2.58,4.4,3.8,1.09.86,2.65.77,3.62-.23,1.03-1.26.86-3.11-.38-4.16-1.32-1.22-2.7-2.36-4.04-3.55"/><path id="Path_467" class="cls-1" d="m49.21,55.7l-4.44-3.94c-1.07,1.28-2.11,2.53-3.03,3.61,1.02.85,1.95,1.58,2.81,2.38s1.64,1.76,2.51,2.58c1.6,1.49,3.23,2.93,4.87,4.37.57.59,1.22,1.08,1.93,1.47,1.17.42,2.46-.17,2.9-1.33.47-1.06.19-2.3-.7-3.05-2.3-2.02-4.58-4.06-6.86-6.09"/></g></g></g></svg>