<?xml version="1.0" encoding="UTF-8"?><svg id="Layer_1" xmlns="http://www.w3.org/2000/svg" xmlns:xlink="http://www.w3.org/1999/xlink" viewBox="0 0 89.45 91.1"><defs><style>.cls-1{fill:#016775;}.cls-1,.cls-2,.cls-3{stroke-width:0px;}.cls-2{fill:none;}.cls-3{fill:#f3d475;}.cls-4{clip-path:url(#clippath);}</style><clipPath id="clippath"><rect class="cls-2" y="0" width="89.45" height="91.1"/></clipPath></defs><g id="Group_420"><circle id="Ellipse_19" class="cls-3" cx="45" cy="45.25" r="42"/><g id="Group_419"><g class="cls-4"><g id="Group_416"><path id="Path_457" class="cls-1" d="m44.72,0C20.02,0,0,20.39,0,45.55s20.02,45.55,44.72,45.55,44.72-20.4,44.72-45.55S69.42,0,44.72,0m26.23,42.39c-.23,4.44-2.05,8.24-4.54,11.78-2.98,4.33-6.6,8.19-10.73,11.43-1.99,1.63-4.19,3-6.55,4.05-2.64,1.12-5.64.99-8.17-.36-3.65-1.87-6.97-4.32-9.84-7.24-3.31-3.21-6.17-6.85-8.51-10.82-2.06-3.5-2.98-7.55-2.64-11.6.13-2.64.92-5.21,2.32-7.46,3.45-5.95,11.02-8.05,17.05-4.73,2.23,1.16,4.18,2.81,5.7,4.82.1.14.22.26.38.45.44-.5.83-.94,1.21-1.39,2.12-2.58,5.04-4.38,8.31-5.09,5.29-1.26,10.78,1.09,13.54,5.77,1.9,3.11,2.78,6.75,2.49,10.39"/></g></g></g></g></svg>