<svg xmlns="http://www.w3.org/2000/svg" width="156.809" height="24.243" viewBox="0 0 156.809 24.243">
  <g id="Group_795" data-name="Group 795" transform="translate(-532.191 -2680.498)">
    <g id="Group_794" data-name="Group 794">
      <path id="Icon_awesome-star" data-name="Icon awesome-star" d="M12.747.842,9.655,7.111,2.739,8.119A1.516,1.516,0,0,0,1.9,10.7l5,4.876L5.721,22.469a1.514,1.514,0,0,0,2.2,1.6l6.188-3.252,6.188,3.252a1.515,1.515,0,0,0,2.2-1.6L21.307,15.58l5-4.876a1.516,1.516,0,0,0-.838-2.585L18.556,7.111,15.464.842a1.516,1.516,0,0,0-2.718,0Z" transform="translate(530.75 2680.499)" fill="#016775"/>
      <path id="Icon_awesome-star-2" data-name="Icon awesome-star" d="M12.747.842,9.655,7.111,2.739,8.119A1.516,1.516,0,0,0,1.9,10.7l5,4.876L5.721,22.469a1.514,1.514,0,0,0,2.2,1.6l6.188-3.252,6.188,3.252a1.515,1.515,0,0,0,2.2-1.6L21.307,15.58l5-4.876a1.516,1.516,0,0,0-.838-2.585L18.556,7.111,15.464.842a1.516,1.516,0,0,0-2.718,0Z" transform="translate(563.62 2680.499)" fill="#016775"/>
      <path id="Icon_awesome-star-3" data-name="Icon awesome-star" d="M12.747.842,9.655,7.111,2.739,8.119A1.516,1.516,0,0,0,1.9,10.7l5,4.876L5.721,22.469a1.514,1.514,0,0,0,2.2,1.6l6.188-3.252,6.188,3.252a1.515,1.515,0,0,0,2.2-1.6L21.307,15.58l5-4.876a1.516,1.516,0,0,0-.838-2.585L18.556,7.111,15.464.842a1.516,1.516,0,0,0-2.718,0Z" transform="translate(596.49 2680.499)" fill="#016775"/>
      <path id="Icon_awesome-star-4" data-name="Icon awesome-star" d="M12.747.842,9.655,7.111,2.739,8.119A1.516,1.516,0,0,0,1.9,10.7l5,4.876L5.721,22.469a1.514,1.514,0,0,0,2.2,1.6l6.188-3.252,6.188,3.252a1.515,1.515,0,0,0,2.2-1.6L21.307,15.58l5-4.876a1.516,1.516,0,0,0-.838-2.585L18.556,7.111,15.464.842a1.516,1.516,0,0,0-2.718,0Z" transform="translate(629.36 2680.499)" fill="#016775"/>
      <path id="Icon_awesome-star-5" data-name="Icon awesome-star" d="M12.747.842,9.655,7.111,2.739,8.119A1.516,1.516,0,0,0,1.9,10.7l5,4.876L5.721,22.469a1.514,1.514,0,0,0,2.2,1.6l6.188-3.252,6.188,3.252a1.515,1.515,0,0,0,2.2-1.6L21.307,15.58l5-4.876a1.516,1.516,0,0,0-.838-2.585L18.556,7.111,15.464.842a1.516,1.516,0,0,0-2.718,0Z" transform="translate(662.23 2680.499)" fill="#016775"/>
    </g>
  </g>
</svg>
