<?xml version="1.0" encoding="UTF-8"?>
<svg id="Layer_1" xmlns="http://www.w3.org/2000/svg" xmlns:xlink="http://www.w3.org/1999/xlink" version="1.1" viewBox="0 0 48 22">
  <!-- Generator: Adobe Illustrator 29.6.1, SVG Export Plug-In . SVG Version: 2.1.1 Build 9)  -->
  <defs>
    <style>
      .st0 {
        fill: none;
      }

      .st1 {
        fill: #696969;
        opacity: .6;
      }

      .st1, .st2, .st3, .st4, .st5, .st6, .st7, .st8, .st9, .st10, .st11, .st12, .st13, .st14, .st15, .st16, .st17, .st18, .st19, .st20, .st21, .st22, .st23, .st24, .st25, .st26, .st27, .st28, .st29, .st30, .st31, .st32, .st33, .st34, .st35, .st36, .st37, .st38, .st39, .st40, .st41, .st42, .st43, .st44, .st45, .st46, .st47, .st48, .st49, .st50, .st51, .st52 {
        mix-blend-mode: multiply;
      }

      .st2 {
        fill: #878787;
        opacity: .5;
      }

      .st3 {
        fill: #6e6e6e;
        opacity: .6;
      }

      .st4 {
        fill: #fff;
        opacity: 0;
      }

      .st5 {
        fill: #505050;
        opacity: .7;
      }

      .st6 {
        fill: #646464;
        opacity: .6;
      }

      .st7 {
        fill: #4b4b4b;
        opacity: .7;
      }

      .st8 {
        fill: #0a0a0a;
        opacity: 1;
      }

      .st9 {
        fill: #d7d7d7;
        opacity: .2;
      }

      .st10 {
        fill: #141414;
        opacity: .9;
      }

      .st11 {
        fill: #b9b9b9;
        opacity: .3;
      }

      .st12 {
        fill: #5a5a5a;
        opacity: .6;
      }

      .st13 {
        fill: #f0f0f0;
        opacity: 0;
      }

      .st14 {
        fill: #aaa;
        opacity: .3;
      }

      .st15 {
        fill: #7d7d7d;
        opacity: .5;
      }

      .st16 {
        fill: #555;
        opacity: .7;
      }

      .st17 {
        fill: #232323;
        opacity: .9;
      }

      .st18 {
        fill: #828282;
        opacity: .5;
      }

      .st19 {
        fill: #cdcdcd;
        opacity: .2;
      }

      .st20 {
        fill: #1e1e1e;
        opacity: .9;
      }

      .st21 {
        fill: #969696;
        opacity: .4;
      }

      .st53 {
        isolation: isolate;
      }

      .st22 {
        fill: #373737;
        opacity: .8;
      }

      .st23 {
        fill: #414141;
        opacity: .7;
      }

      .st24 {
        fill: #5f5f5f;
        opacity: .6;
      }

      .st25 {
        fill: #9b9b9b;
        opacity: .4;
      }

      .st27 {
        fill: #c8c8c8;
        opacity: .2;
      }

      .st28 {
        fill: #fafafa;
        opacity: 0;
      }

      .st54 {
        clip-path: url(#clippath-1);
      }

      .st29 {
        fill: #f5f5f5;
        opacity: 0;
      }

      .st30 {
        fill: #e1e1e1;
        opacity: .1;
      }

      .st55 {
        fill: #3d3d3d;
      }

      .st31 {
        fill: #787878;
        opacity: .5;
      }

      .st32 {
        fill: #737373;
        opacity: .5;
      }

      .st56 {
        fill: #121212;
      }

      .st57 {
        fill: #d4e4eb;
      }

      .st33 {
        fill: #dcdcdc;
        opacity: .1;
      }

      .st34 {
        fill: #919191;
        opacity: .4;
      }

      .st58 {
        fill: url(#_ÂÁ_Ï_ÌÌ_È_ËÂÌÚ_112);
      }

      .st58, .st59 {
        mix-blend-mode: color-dodge;
      }

      .st60 {
        opacity: .5;
      }

      .st35 {
        fill: #ebebeb;
        opacity: 0;
      }

      .st36 {
        fill: #0f0f0f;
        opacity: .9;
      }

      .st59 {
        fill: url(#_ÂÁ_Ï_ÌÌ_È_ËÂÌÚ_1121);
      }

      .st37 {
        fill: #a5a5a5;
        opacity: .4;
      }

      .st38 {
        fill: #3c3c3c;
        opacity: .8;
      }

      .st39 {
        fill: #bebebe;
        opacity: .3;
      }

      .st40 {
        fill: #afafaf;
        opacity: .3;
      }

      .st41 {
        fill: #323232;
        opacity: .8;
      }

      .st42 {
        fill: #d2d2d2;
        opacity: .2;
      }

      .st43 {
        fill: #b4b4b4;
        opacity: .3;
      }

      .st44 {
        fill: #2d2d2d;
        opacity: .8;
      }

      .st45 {
        fill: #a0a0a0;
        opacity: .4;
      }

      .st46 {
        fill: #191919;
        opacity: .9;
      }

      .st47 {
        fill: #282828;
        opacity: .8;
      }

      .st48 {
        fill: #464646;
        opacity: .7;
      }

      .st49 {
        fill: #050505;
        opacity: 1;
      }

      .st61 {
        clip-path: url(#clippath);
      }

      .st50 {
        fill: #e6e6e6;
        opacity: 0;
      }

      .st51 {
        fill: #c3c3c3;
        opacity: .2;
      }

      .st52 {
        fill: #8c8c8c;
        opacity: .5;
      }
    </style>
    <clipPath id="clippath">
      <path class="st0" d="M8.4,14.1h0c0,1,.8,1.8,1.8,1.8h32.8c1,0,1.8-.8,1.8-1.8h0c0-1-.8-1.8-1.8-1.8H10.2c-1,0-1.8.8-1.8,1.8Z"/>
    </clipPath>
    <linearGradient id="_ÂÁ_Ï_ÌÌ_È_ËÂÌÚ_112" data-name="¡ÂÁ˚ÏˇÌÌ˚È „‡‰ËÂÌÚ 112" x1="-458.7" y1="299.3" x2="-458.7" y2="262.9" gradientTransform="translate(485.3 295.2) scale(1 -1)" gradientUnits="userSpaceOnUse">
      <stop offset="0" stop-color="#575757"/>
      <stop offset="0" stop-color="#646464"/>
      <stop offset="0" stop-color="#a6a6a6"/>
      <stop offset="0" stop-color="#d0d0d0"/>
      <stop offset=".1" stop-color="#e0e0e0"/>
      <stop offset=".2" stop-color="#dedede"/>
      <stop offset=".2" stop-color="#d6d6d6"/>
      <stop offset=".2" stop-color="#c2c2c2"/>
      <stop offset=".2" stop-color="#a1a1a1"/>
      <stop offset=".3" stop-color="#838383"/>
      <stop offset=".3" stop-color="#878787"/>
      <stop offset=".4" stop-color="#949494"/>
      <stop offset=".4" stop-color="#ababab"/>
      <stop offset=".5" stop-color="#e6e6e6"/>
      <stop offset=".5" stop-color="#e8e8e8"/>
      <stop offset=".6" stop-color="#e5e5e5"/>
      <stop offset=".6" stop-color="#dcdcdc"/>
      <stop offset=".6" stop-color="#cdcdcd"/>
      <stop offset=".7" stop-color="#b8b8b8"/>
      <stop offset=".7" stop-color="#9d9d9d"/>
      <stop offset=".7" stop-color="#8f8f8f"/>
      <stop offset=".7" stop-color="#aaa"/>
      <stop offset=".8" stop-color="#c6c6c6"/>
      <stop offset=".8" stop-color="#d7d7d7"/>
      <stop offset=".9" stop-color="#dedede"/>
      <stop offset=".9" stop-color="#c6c6c6"/>
      <stop offset="1" stop-color="#adadad"/>
    </linearGradient>
    <clipPath id="clippath-1">
      <path class="st0" d="M8.4,6.4h0c0,1,.8,1.8,1.8,1.8h32.8c1,0,1.8-.8,1.8-1.8h0c0-1-.8-1.8-1.8-1.8H10.2c-1,0-1.8.8-1.8,1.8Z"/>
    </clipPath>
    <linearGradient id="_ÂÁ_Ï_ÌÌ_È_ËÂÌÚ_1121" data-name="¡ÂÁ˚ÏˇÌÌ˚È „‡‰ËÂÌÚ 112" x1="-451" x2="-451" gradientTransform="translate(477.6 287.5) scale(1 -1)" xlink:href="#_ÂÁ_Ï_ÌÌ_È_ËÂÌÚ_112"/>
  </defs>
  <g class="st53">
    <g id="Layer_11" data-name="Layer_1">
      <rect class="st57" x="0" y="0" width="24" height="22" transform="translate(24 22) rotate(-180)"/>
      <g>
        <rect class="st55" x="1.2" y="5.7" width="12.8" height="8.8" transform="translate(17.7 2.5) rotate(90)"/>
        <image class="st26" width="9" height="14" transform="translate(3 3)" xlink:href="ring-binder-blue-1.png"/>
        <g>
          <g>
            <g class="st60">
              <path class="st4" d="M17.4,18.3c6.7,1,12.2.2,12.2-1.7,0-1.9-5.4-4.3-12.2-5.2-6.7-1-12.2-.2-12.2,1.7,0,1.9,5.4,4.3,12.2,5.2Z"/>
              <path class="st28" d="M17.3,18.3c6.6,1,12,.2,12-1.7,0-1.9-5.4-4.2-12-5.2-6.6-1-12-.2-12,1.7,0,1.9,5.4,4.2,12,5.2Z"/>
              <path class="st29" d="M17.2,18.2c6.5.9,11.8.2,11.9-1.7,0-1.9-5.3-4.2-11.8-5.1-6.5-.9-11.8-.2-11.9,1.7,0,1.9,5.3,4.2,11.8,5.1Z"/>
              <path class="st13" d="M17.1,18.2c6.4.9,11.7.2,11.7-1.7,0-1.9-5.2-4.1-11.6-5-6.4-.9-11.7-.2-11.7,1.7,0,1.9,5.2,4.1,11.6,5Z"/>
              <path class="st35" d="M17,18.1c6.3.9,11.5.2,11.5-1.7,0-1.8-5.1-4.1-11.5-5-6.3-.9-11.5-.2-11.5,1.7,0,1.8,5.1,4.1,11.5,5Z"/>
              <path class="st50" d="M16.9,18.1c6.2.9,11.3.2,11.3-1.7,0-1.8-5-4-11.3-4.9-6.2-.9-11.3-.2-11.3,1.7,0,1.8,5,4,11.3,4.9Z"/>
              <path class="st30" d="M16.8,18c6.1.9,11.1.1,11.1-1.6,0-1.8-5-3.9-11.1-4.8-6.1-.9-11.1-.1-11.1,1.6,0,1.8,5,3.9,11.1,4.8Z"/>
              <path class="st33" d="M16.7,18c6,.9,10.9.1,11-1.6,0-1.8-4.9-3.9-10.9-4.8-6-.9-10.9-.1-11,1.6,0,1.8,4.9,3.9,10.9,4.8Z"/>
              <path class="st9" d="M16.6,17.9c5.9.9,10.8.1,10.8-1.6,0-1.7-4.8-3.8-10.7-4.7-5.9-.9-10.8-.1-10.8,1.6,0,1.7,4.8,3.8,10.7,4.7Z"/>
              <path class="st42" d="M16.5,17.9c5.8.8,10.6.1,10.6-1.6,0-1.7-4.7-3.8-10.6-4.6-5.8-.8-10.6-.1-10.6,1.6,0,1.7,4.7,3.8,10.6,4.6Z"/>
              <path class="st19" d="M16.3,17.8c5.7.8,10.4.1,10.4-1.6,0-1.7-4.6-3.7-10.4-4.6-5.7-.8-10.4-.1-10.4,1.6,0,1.7,4.6,3.7,10.4,4.6Z"/>
              <path class="st27" d="M16.2,17.8c5.6.8,10.2.1,10.2-1.6,0-1.7-4.6-3.7-10.2-4.5-5.6-.8-10.2-.1-10.2,1.6,0,1.7,4.6,3.7,10.2,4.5Z"/>
              <path class="st51" d="M16.1,17.7c5.5.8,10,.1,10.1-1.5,0-1.6-4.5-3.6-10-4.4-5.5-.8-10-.1-10.1,1.5,0,1.6,4.5,3.6,10,4.4Z"/>
              <path class="st39" d="M16,17.7c5.4.8,9.9,0,9.9-1.5,0-1.6-4.4-3.6-9.8-4.4-5.4-.8-9.9,0-9.9,1.5,0,1.6,4.4,3.6,9.8,4.4Z"/>
              <path class="st11" d="M15.9,17.6c5.3.8,9.7,0,9.7-1.5,0-1.6-4.3-3.5-9.7-4.3-5.3-.8-9.7,0-9.7,1.5,0,1.6,4.3,3.5,9.7,4.3Z"/>
              <path class="st43" d="M15.8,17.6c5.2.8,9.5,0,9.5-1.5,0-1.6-4.2-3.5-9.5-4.2-5.2-.8-9.5,0-9.5,1.5,0,1.6,4.2,3.5,9.5,4.2Z"/>
              <path class="st40" d="M15.7,17.5c5.1.7,9.3,0,9.3-1.5,0-1.6-4.1-3.4-9.3-4.2-5.1-.7-9.3,0-9.3,1.5,0,1.6,4.1,3.4,9.3,4.2Z"/>
              <path class="st14" d="M15.6,17.5c5,.7,9.1,0,9.2-1.5,0-1.5-4.1-3.4-9.1-4.1-5-.7-9.1,0-9.2,1.5,0,1.5,4.1,3.4,9.1,4.1Z"/>
              <path class="st37" d="M15.5,17.4c4.9.7,9,0,9-1.5,0-1.5-4-3.3-8.9-4-4.9-.7-9,0-9,1.5,0,1.5,4,3.3,8.9,4Z"/>
              <path class="st45" d="M15.4,17.4c4.8.7,8.8,0,8.8-1.4,0-1.5-3.9-3.3-8.7-3.9-4.8-.7-8.8,0-8.8,1.4,0,1.5,3.9,3.3,8.7,3.9Z"/>
              <path class="st25" d="M15.3,17.3c4.7.7,8.6,0,8.6-1.4,0-1.5-3.8-3.2-8.6-3.9-4.7-.7-8.6,0-8.6,1.4,0,1.5,3.8,3.2,8.6,3.9Z"/>
              <path class="st21" d="M15.2,17.3c4.6.7,8.4,0,8.4-1.4,0-1.4-3.7-3.1-8.4-3.8-4.6-.7-8.4,0-8.4,1.4,0,1.4,3.7,3.1,8.4,3.8Z"/>
              <path class="st34" d="M15.1,17.2c4.5.6,8.2,0,8.3-1.4,0-1.4-3.7-3.1-8.2-3.7-4.5-.7-8.2,0-8.3,1.4,0,1.4,3.7,3.1,8.2,3.7Z"/>
              <path class="st52" d="M15,17.2c4.4.6,8.1,0,8.1-1.4,0-1.4-3.6-3-8-3.7-4.4-.6-8.1,0-8.1,1.4,0,1.4,3.6,3,8,3.7Z"/>
              <path class="st2" d="M14.9,17.1c4.3.6,7.9,0,7.9-1.4,0-1.4-3.5-3-7.8-3.6-4.3-.6-7.9,0-7.9,1.4,0,1.4,3.5,3,7.8,3.6Z"/>
              <path class="st18" d="M14.8,17.1c4.2.6,7.7,0,7.7-1.3,0-1.3-3.4-2.9-7.7-3.5-4.2-.6-7.7,0-7.7,1.3,0,1.3,3.4,2.9,7.7,3.5Z"/>
              <path class="st15" d="M14.7,17c4.1.6,7.5,0,7.5-1.3,0-1.3-3.3-2.9-7.5-3.5-4.1-.6-7.5,0-7.5,1.3,0,1.3,3.3,2.9,7.5,3.5Z"/>
              <path class="st31" d="M14.6,16.9c4,.6,7.3,0,7.4-1.3,0-1.3-3.2-2.8-7.3-3.4-4-.6-7.3,0-7.4,1.3,0,1.3,3.2,2.8,7.3,3.4Z"/>
              <path class="st32" d="M14.5,16.9c3.9.6,7.2,0,7.2-1.3,0-1.3-3.2-2.8-7.1-3.3-3.9-.6-7.2,0-7.2,1.3,0,1.3,3.2,2.8,7.1,3.3Z"/>
              <path class="st3" d="M14.3,16.8c3.8.5,7,0,7-1.3,0-1.3-3.1-2.7-6.9-3.3-3.8-.5-7,0-7,1.3,0,1.3,3.1,2.7,6.9,3.3Z"/>
              <path class="st1" d="M14.2,16.8c3.7.5,6.8,0,6.8-1.3,0-1.2-3-2.7-6.7-3.2-3.7-.5-6.8,0-6.8,1.3,0,1.2,3,2.7,6.7,3.2Z"/>
              <path class="st6" d="M14.1,16.7c3.6.5,6.6,0,6.6-1.3,0-1.2-2.9-2.6-6.6-3.1-3.6-.5-6.6,0-6.6,1.3,0,1.2,2.9,2.6,6.6,3.1Z"/>
              <path class="st24" d="M14,16.7c3.5.5,6.4,0,6.5-1.2,0-1.2-2.8-2.6-6.4-3.1-3.5-.5-6.4,0-6.5,1.2,0,1.2,2.8,2.6,6.4,3.1Z"/>
              <path class="st12" d="M13.9,16.6c3.4.5,6.3,0,6.3-1.2,0-1.2-2.8-2.5-6.2-3-3.4-.5-6.3,0-6.3,1.2,0,1.2,2.8,2.5,6.2,3Z"/>
              <path class="st16" d="M13.8,16.6c3.3.5,6.1,0,6.1-1.2,0-1.1-2.7-2.5-6-2.9-3.3-.5-6.1,0-6.1,1.2,0,1.1,2.7,2.5,6,2.9Z"/>
              <path class="st5" d="M13.7,16.5c3.2.5,5.9,0,5.9-1.2,0-1.1-2.6-2.4-5.8-2.9-3.2-.5-5.9,0-5.9,1.2,0,1.1,2.6,2.4,5.8,2.9Z"/>
              <path class="st7" d="M13.6,16.5c3.1.4,5.7,0,5.7-1.2,0-1.1-2.5-2.4-5.7-2.8-3.1-.4-5.7,0-5.7,1.2,0,1.1,2.5,2.4,5.7,2.8Z"/>
              <path class="st48" d="M13.5,16.4c3,.4,5.5,0,5.6-1.2,0-1.1-2.4-2.3-5.5-2.7-3-.4-5.5,0-5.6,1.2,0,1.1,2.4,2.3,5.5,2.7Z"/>
              <path class="st23" d="M13.4,16.4c2.9.4,5.4,0,5.4-1.1,0-1.1-2.4-2.2-5.3-2.7-2.9-.4-5.4,0-5.4,1.1,0,1.1,2.4,2.2,5.3,2.7Z"/>
              <path class="st38" d="M13.3,16.3c2.8.4,5.2-.1,5.2-1.1,0-1-2.3-2.2-5.1-2.6-2.8-.4-5.2.1-5.2,1.1,0,1,2.3,2.2,5.1,2.6Z"/>
              <path class="st22" d="M13.2,16.3c2.7.4,5-.1,5-1.1,0-1-2.2-2.1-4.9-2.5-2.7-.4-5,.1-5,1.1,0,1,2.2,2.1,4.9,2.5Z"/>
              <path class="st41" d="M13.1,16.2c2.6.4,4.8-.1,4.8-1.1,0-1-2.1-2.1-4.8-2.5-2.6-.4-4.8.1-4.8,1.1,0,1,2.1,2.1,4.8,2.5Z"/>
              <path class="st44" d="M13,16.2c2.5.4,4.6-.1,4.7-1.1,0-1-2-2-4.6-2.4-2.5-.4-4.6.1-4.7,1.1,0,1,2,2,4.6,2.4Z"/>
              <path class="st47" d="M12.9,16.1c2.4.3,4.5-.1,4.5-1.1,0-.9-1.9-2-4.4-2.3-2.4-.3-4.5.1-4.5,1.1,0,.9,1.9,2,4.4,2.3Z"/>
              <path class="st17" d="M12.8,16.1c2.3.3,4.3-.1,4.3-1.1,0-.9-1.9-1.9-4.2-2.3-2.3-.3-4.3.1-4.3,1.1,0,.9,1.9,1.9,4.2,2.3Z"/>
              <path class="st20" d="M12.7,16c2.2.3,4.1-.1,4.1-1,0-.9-1.8-1.9-4-2.2-2.2-.3-4.1.1-4.1,1,0,.9,1.8,1.9,4,2.2Z"/>
              <path class="st46" d="M12.6,16c2.1.3,3.9-.2,3.9-1,0-.9-1.7-1.8-3.8-2.1-2.1-.3-3.9.2-3.9,1,0,.9,1.7,1.8,3.8,2.1Z"/>
              <path class="st10" d="M12.5,15.9c2,.3,3.7-.2,3.8-1,0-.8-1.6-1.8-3.7-2.1-2-.3-3.7.2-3.8,1,0,.8,1.6,1.8,3.7,2.1Z"/>
              <path class="st36" d="M12.3,15.9c1.9.3,3.5-.2,3.6-1,0-.8-1.5-1.7-3.5-2-1.9-.3-3.5.2-3.6,1,0,.8,1.5,1.7,3.5,2Z"/>
              <path class="st8" d="M12.2,15.8c1.8.3,3.4-.2,3.4-1,0-.8-1.5-1.7-3.3-1.9-1.8-.3-3.4.2-3.4,1,0,.8,1.5,1.7,3.3,1.9Z"/>
              <path class="st49" d="M12.1,15.8c1.7.2,3.2-.2,3.2-1,0-.8-1.4-1.6-3.1-1.9-1.7-.2-3.2.2-3.2,1,0,.8,1.4,1.6,3.1,1.9Z"/>
              <path class="st26" d="M12,15.7c1.6.2,3-.2,3-.9,0-.8-1.3-1.6-2.9-1.8-1.6-.2-3,.2-3,.9,0,.8,1.3,1.6,2.9,1.8Z"/>
            </g>
            <g class="st61">
              <rect class="st56" x="24.6" y="-4.3" width="4" height="36.4" transform="translate(12.7 40.5) rotate(-90)"/>
              <rect class="st58" x="24.8" y="-4.1" width="3.6" height="36.4" transform="translate(12.5 40.7) rotate(-90)"/>
              <image class="st26" width="43" height="6" transform="translate(5 11)" xlink:href="ring-binder-blue-2.png"/>
            </g>
          </g>
          <g>
            <g class="st60">
              <path class="st4" d="M17.4,10.6c6.7,1,12.2.2,12.2-1.7,0-1.9-5.4-4.3-12.2-5.2-6.7-1-12.2-.2-12.2,1.7,0,1.9,5.4,4.3,12.2,5.2Z"/>
              <path class="st28" d="M17.3,10.6c6.6,1,12,.2,12-1.7,0-1.9-5.4-4.2-12-5.2-6.6-1-12-.2-12,1.7,0,1.9,5.4,4.2,12,5.2Z"/>
              <path class="st29" d="M17.2,10.5c6.5.9,11.8.2,11.9-1.7,0-1.9-5.3-4.2-11.8-5.1-6.5-.9-11.8-.2-11.9,1.7,0,1.9,5.3,4.2,11.8,5.1Z"/>
              <path class="st13" d="M17.1,10.5c6.4.9,11.7.2,11.7-1.7,0-1.9-5.2-4.1-11.6-5-6.4-.9-11.7-.2-11.7,1.7,0,1.9,5.2,4.1,11.6,5Z"/>
              <path class="st35" d="M17,10.4c6.3.9,11.5.2,11.5-1.7,0-1.8-5.1-4.1-11.5-5-6.3-.9-11.5-.2-11.5,1.7,0,1.8,5.1,4.1,11.5,5Z"/>
              <path class="st50" d="M16.9,10.4c6.2.9,11.3.2,11.3-1.7,0-1.8-5-4-11.3-4.9-6.2-.9-11.3-.2-11.3,1.7,0,1.8,5,4,11.3,4.9Z"/>
              <path class="st30" d="M16.8,10.3c6.1.9,11.1.1,11.1-1.6,0-1.8-5-3.9-11.1-4.8-6.1-.9-11.1-.1-11.1,1.6,0,1.8,5,3.9,11.1,4.8Z"/>
              <path class="st33" d="M16.7,10.3c6,.9,10.9.1,11-1.6,0-1.8-4.9-3.9-10.9-4.8-6-.9-10.9-.1-11,1.6,0,1.8,4.9,3.9,10.9,4.8Z"/>
              <path class="st9" d="M16.6,10.2c5.9.9,10.8.1,10.8-1.6,0-1.7-4.8-3.8-10.7-4.7-5.9-.9-10.8-.1-10.8,1.6,0,1.7,4.8,3.8,10.7,4.7Z"/>
              <path class="st42" d="M16.5,10.2c5.8.8,10.6.1,10.6-1.6,0-1.7-4.7-3.8-10.6-4.6-5.8-.8-10.6-.1-10.6,1.6,0,1.7,4.7,3.8,10.6,4.6Z"/>
              <path class="st19" d="M16.3,10.1c5.7.8,10.4.1,10.4-1.6,0-1.7-4.6-3.7-10.4-4.6-5.7-.8-10.4-.1-10.4,1.6,0,1.7,4.6,3.7,10.4,4.6Z"/>
              <path class="st27" d="M16.2,10.1c5.6.8,10.2.1,10.2-1.6,0-1.7-4.6-3.7-10.2-4.5-5.6-.8-10.2-.1-10.2,1.6,0,1.7,4.6,3.7,10.2,4.5Z"/>
              <path class="st51" d="M16.1,10c5.5.8,10,.1,10.1-1.5,0-1.6-4.5-3.6-10-4.4-5.5-.8-10-.1-10.1,1.5,0,1.6,4.5,3.6,10,4.4Z"/>
              <path class="st39" d="M16,10c5.4.8,9.9,0,9.9-1.5,0-1.6-4.4-3.6-9.8-4.4-5.4-.8-9.9,0-9.9,1.5,0,1.6,4.4,3.6,9.8,4.4Z"/>
              <path class="st11" d="M15.9,9.9c5.3.8,9.7,0,9.7-1.5,0-1.6-4.3-3.5-9.7-4.3-5.3-.8-9.7,0-9.7,1.5,0,1.6,4.3,3.5,9.7,4.3Z"/>
              <path class="st43" d="M15.8,9.9c5.2.8,9.5,0,9.5-1.5,0-1.6-4.2-3.5-9.5-4.2-5.2-.8-9.5,0-9.5,1.5,0,1.6,4.2,3.5,9.5,4.2Z"/>
              <path class="st40" d="M15.7,9.8c5.1.7,9.3,0,9.3-1.5,0-1.6-4.1-3.4-9.3-4.2-5.1-.7-9.3,0-9.3,1.5,0,1.6,4.1,3.4,9.3,4.2Z"/>
              <path class="st14" d="M15.6,9.8c5,.7,9.1,0,9.2-1.5,0-1.5-4.1-3.4-9.1-4.1-5-.7-9.1,0-9.2,1.5,0,1.5,4.1,3.4,9.1,4.1Z"/>
              <path class="st37" d="M15.5,9.7c4.9.7,9,0,9-1.5,0-1.5-4-3.3-8.9-4-4.9-.7-9,0-9,1.5,0,1.5,4,3.3,8.9,4Z"/>
              <path class="st45" d="M15.4,9.7c4.8.7,8.8,0,8.8-1.4,0-1.5-3.9-3.3-8.7-3.9-4.8-.7-8.8,0-8.8,1.4,0,1.5,3.9,3.3,8.7,3.9Z"/>
              <path class="st25" d="M15.3,9.6c4.7.7,8.6,0,8.6-1.4,0-1.5-3.8-3.2-8.6-3.9-4.7-.7-8.6,0-8.6,1.4,0,1.5,3.8,3.2,8.6,3.9Z"/>
              <path class="st21" d="M15.2,9.5c4.6.7,8.4,0,8.4-1.4,0-1.4-3.7-3.1-8.4-3.8-4.6-.7-8.4,0-8.4,1.4,0,1.4,3.7,3.1,8.4,3.8Z"/>
              <path class="st34" d="M15.1,9.5c4.5.6,8.2,0,8.3-1.4,0-1.4-3.7-3.1-8.2-3.7-4.5-.7-8.2,0-8.3,1.4,0,1.4,3.7,3.1,8.2,3.7Z"/>
              <path class="st52" d="M15,9.4c4.4.6,8.1,0,8.1-1.4,0-1.4-3.6-3-8-3.7-4.4-.6-8.1,0-8.1,1.4,0,1.4,3.6,3,8,3.7Z"/>
              <path class="st2" d="M14.9,9.4c4.3.6,7.9,0,7.9-1.4,0-1.4-3.5-3-7.8-3.6-4.3-.6-7.9,0-7.9,1.4,0,1.4,3.5,3,7.8,3.6Z"/>
              <path class="st18" d="M14.8,9.3c4.2.6,7.7,0,7.7-1.3,0-1.3-3.4-2.9-7.7-3.5-4.2-.6-7.7,0-7.7,1.3,0,1.3,3.4,2.9,7.7,3.5Z"/>
              <path class="st15" d="M14.7,9.3c4.1.6,7.5,0,7.5-1.3,0-1.3-3.3-2.9-7.5-3.5-4.1-.6-7.5,0-7.5,1.3,0,1.3,3.3,2.9,7.5,3.5Z"/>
              <path class="st31" d="M14.6,9.2c4,.6,7.3,0,7.4-1.3,0-1.3-3.2-2.8-7.3-3.4-4-.6-7.3,0-7.4,1.3,0,1.3,3.2,2.8,7.3,3.4Z"/>
              <path class="st32" d="M14.5,9.2c3.9.6,7.2,0,7.2-1.3,0-1.3-3.2-2.8-7.1-3.3-3.9-.6-7.2,0-7.2,1.3,0,1.3,3.2,2.8,7.1,3.3Z"/>
              <path class="st3" d="M14.3,9.1c3.8.5,7,0,7-1.3,0-1.3-3.1-2.7-6.9-3.3-3.8-.5-7,0-7,1.3,0,1.3,3.1,2.7,6.9,3.3Z"/>
              <path class="st1" d="M14.2,9.1c3.7.5,6.8,0,6.8-1.3,0-1.2-3-2.7-6.7-3.2-3.7-.5-6.8,0-6.8,1.3,0,1.2,3,2.7,6.7,3.2Z"/>
              <path class="st6" d="M14.1,9c3.6.5,6.6,0,6.6-1.3,0-1.2-2.9-2.6-6.6-3.1-3.6-.5-6.6,0-6.6,1.3,0,1.2,2.9,2.6,6.6,3.1Z"/>
              <path class="st24" d="M14,9c3.5.5,6.4,0,6.5-1.2,0-1.2-2.8-2.6-6.4-3.1-3.5-.5-6.4,0-6.5,1.2,0,1.2,2.8,2.6,6.4,3.1Z"/>
              <path class="st12" d="M13.9,8.9c3.4.5,6.3,0,6.3-1.2,0-1.2-2.8-2.5-6.2-3-3.4-.5-6.3,0-6.3,1.2,0,1.2,2.8,2.5,6.2,3Z"/>
              <path class="st16" d="M13.8,8.9c3.3.5,6.1,0,6.1-1.2,0-1.1-2.7-2.5-6-2.9-3.3-.5-6.1,0-6.1,1.2,0,1.1,2.7,2.5,6,2.9Z"/>
              <path class="st5" d="M13.7,8.8c3.2.5,5.9,0,5.9-1.2,0-1.1-2.6-2.4-5.8-2.9-3.2-.5-5.9,0-5.9,1.2,0,1.1,2.6,2.4,5.8,2.9Z"/>
              <path class="st7" d="M13.6,8.8c3.1.4,5.7,0,5.7-1.2,0-1.1-2.5-2.4-5.7-2.8-3.1-.4-5.7,0-5.7,1.2,0,1.1,2.5,2.4,5.7,2.8Z"/>
              <path class="st48" d="M13.5,8.7c3,.4,5.5,0,5.6-1.2,0-1.1-2.4-2.3-5.5-2.7-3-.4-5.5,0-5.6,1.2,0,1.1,2.4,2.3,5.5,2.7Z"/>
              <path class="st23" d="M13.4,8.7c2.9.4,5.4,0,5.4-1.1,0-1.1-2.4-2.2-5.3-2.7-2.9-.4-5.4,0-5.4,1.1,0,1.1,2.4,2.2,5.3,2.7Z"/>
              <path class="st38" d="M13.3,8.6c2.8.4,5.2-.1,5.2-1.1,0-1-2.3-2.2-5.1-2.6-2.8-.4-5.2.1-5.2,1.1,0,1,2.3,2.2,5.1,2.6Z"/>
              <path class="st22" d="M13.2,8.6c2.7.4,5-.1,5-1.1,0-1-2.2-2.1-4.9-2.5-2.7-.4-5,.1-5,1.1,0,1,2.2,2.1,4.9,2.5Z"/>
              <path class="st41" d="M13.1,8.5c2.6.4,4.8-.1,4.8-1.1,0-1-2.1-2.1-4.8-2.5-2.6-.4-4.8.1-4.8,1.1,0,1,2.1,2.1,4.8,2.5Z"/>
              <path class="st44" d="M13,8.5c2.5.4,4.6-.1,4.7-1.1,0-1-2-2-4.6-2.4-2.5-.4-4.6.1-4.7,1.1,0,1,2,2,4.6,2.4Z"/>
              <path class="st47" d="M12.9,8.4c2.4.3,4.5-.1,4.5-1.1,0-.9-1.9-2-4.4-2.3-2.4-.3-4.5.1-4.5,1.1,0,.9,1.9,2,4.4,2.3Z"/>
              <path class="st17" d="M12.8,8.4c2.3.3,4.3-.1,4.3-1.1,0-.9-1.9-1.9-4.2-2.3-2.3-.3-4.3.1-4.3,1.1,0,.9,1.9,1.9,4.2,2.3Z"/>
              <path class="st20" d="M12.7,8.3c2.2.3,4.1-.1,4.1-1,0-.9-1.8-1.9-4-2.2-2.2-.3-4.1.1-4.1,1,0,.9,1.8,1.9,4,2.2Z"/>
              <path class="st46" d="M12.6,8.3c2.1.3,3.9-.2,3.9-1,0-.9-1.7-1.8-3.8-2.1-2.1-.3-3.9.2-3.9,1,0,.9,1.7,1.8,3.8,2.1Z"/>
              <path class="st10" d="M12.5,8.2c2,.3,3.7-.2,3.8-1,0-.8-1.6-1.8-3.7-2.1-2-.3-3.7.2-3.8,1,0,.8,1.6,1.8,3.7,2.1Z"/>
              <path class="st36" d="M12.3,8.2c1.9.3,3.5-.2,3.6-1,0-.8-1.5-1.7-3.5-2-1.9-.3-3.5.2-3.6,1,0,.8,1.5,1.7,3.5,2Z"/>
              <path class="st8" d="M12.2,8.1c1.8.3,3.4-.2,3.4-1,0-.8-1.5-1.7-3.3-1.9-1.8-.3-3.4.2-3.4,1,0,.8,1.5,1.7,3.3,1.9Z"/>
              <path class="st49" d="M12.1,8.1c1.7.2,3.2-.2,3.2-1,0-.8-1.4-1.6-3.1-1.9-1.7-.2-3.2.2-3.2,1,0,.8,1.4,1.6,3.1,1.9Z"/>
              <path class="st26" d="M12,8c1.6.2,3-.2,3-.9,0-.8-1.3-1.6-2.9-1.8-1.6-.2-3,.2-3,.9,0,.8,1.3,1.6,2.9,1.8Z"/>
            </g>
            <g class="st54">
              <rect class="st56" x="24.6" y="-12" width="4" height="36.4" transform="translate(20.4 32.8) rotate(-90)"/>
              <rect class="st59" x="24.8" y="-11.8" width="3.6" height="36.4" transform="translate(20.2 33) rotate(-90)"/>
              <image class="st26" width="43" height="6" transform="translate(5 3)" xlink:href="ring-binder-blue-3.png"/>
            </g>
          </g>
        </g>
      </g>
    </g>
  </g>
</svg>