<?xml version="1.0" encoding="UTF-8"?>
<svg id="Layer_1" xmlns="http://www.w3.org/2000/svg" xmlns:xlink="http://www.w3.org/1999/xlink" version="1.1" viewBox="0 0 1920 294">
  <!-- Generator: Adobe Illustrator 29.6.1, SVG Export Plug-In . SVG Version: 2.1.1 Build 9)  -->
  <defs>
    <style>
      .st0 {
        fill: none;
      }

      .st1 {
        clip-path: url(#clippath-1);
      }

      .st2 {
        clip-path: url(#clippath-2);
      }

      .st3, .st4 {
        isolation: isolate;
      }

      .st3, .st4, .st5 {
        fill: #336ec2;
      }

      .st3, .st6 {
        opacity: .2;
      }

      .st4 {
        opacity: .3;
      }

      .st7 {
        fill: #fff;
      }

      .st8 {
        opacity: .3;
      }

      .st9 {
        clip-path: url(#clippath);
      }
    </style>
    <clipPath id="clippath">
      <rect class="st0" width="1920" height="294"/>
    </clipPath>
    <clipPath id="clippath-1">
      <rect class="st0" y="-76" width="1920" height="370"/>
    </clipPath>
    <clipPath id="clippath-2">
      <path class="st0" d="M137.2-74.7C98.4-66.7,21.1-47.4-15-31.1-58.7-11.4-126.3,26.3-92.6,49.9c13,9.1,76,9.9,91.8,10.6,29.6,1.3,82.8-.8,112.4.5,10.7.5,22.1,1.2,30.8,7.4,26,18.8,14.3,75.1,46.2,78.5,31.4,3.4,35.1-54.1,65.9-61.1,31.1-7.1,47,74,77.9,82.2,22.8,6,27-84.3,64.1-84.3s32.2,50,54.9,50,31.1-44.3,69.9-43.3c57.9,1.6,154.5,16.2,210,32.8,47.5,14.2,99,39.2,143.8,17.8,20.6-9.8,36-28.2,56.5-38.1,22-10.5,64.6,20.6,88.9,21.2,42.6.9,68-29,110.7-28.1,19.2.4,42.1,3,51,20.1,3.7,7.1,12.9,41.7,17.1,48.5,14.2,22.5,39.2-20.3,63.1-32,42.2-20.6,91.6-17.1,138.4-13.1,31.5,2.7,65.9,6.6,87.9,29.3,14.1,14.6,29.9,38.1,48.1,29.1,11.8-5.8,14.9-23.2,27.2-27.9,16.5-6.3,29.7,14.4,35.3,31.2,9.6,28.8,19.2,57.5,28.7,86.3,4.2,12.7,12.4,28.1,25.7,26.5,12.5-1.5,17.4-16.7,19.5-29,6-34.5-9.6-103.4,17.9-103.4s31.6,53,60.8,51.4c35.3-1.9,7.3-99,34.3-99s0,74.2,33.7,74.2,45.1-64.6,91.1-87.7c9.2-4.6,95.3-18.6,101.2-27,19.1-27-53-69.9-80.5-88.3-48.8-32.7-107.6-65.9-163.1-46.5-31,10.9-55.4,37.1-87.3,44.7-72.8,17.4-142.6-67.9-214.5-47.1-15.3,4.4-28.9,13.5-44.2,17.8-54.7,15.7-109.7-31-166.4-26.5-28.2,2.3-53.8,17-81.4,23-66.1,14.3-132.4-22.8-200-24.7-108.7-3-212,84.6-317.1,56.7-40.8-10.8-77.5-38.7-119.8-39.2-35-.4-67.1,18.2-101.4,25.2-99.9,20.3-198.8-59.7-299.4-43.5h0Z"/>
    </clipPath>
  </defs>
  <g class="st9">
    <g class="st1">
      <g>
        <path class="st7" d="M137.2-74.7C98.4-66.7,21.1-47.4-15-31.1-58.7-11.4-126.3,26.3-92.6,49.9c13,9.1,76,9.9,91.8,10.6,29.6,1.3,82.8-.8,112.4.5,10.7.5,22.1,1.2,30.8,7.4,26,18.8,14.3,75.1,46.2,78.5,31.4,3.4,35.1-54.1,65.9-61.1,31.1-7.1,47,74,77.9,82.2,22.8,6,27-84.3,64.1-84.3s32.2,50,54.9,50,31.1-44.3,69.9-43.3c57.9,1.6,154.5,16.2,210,32.8,47.5,14.2,99,39.1,143.8,17.8,20.6-9.8,36-28.2,56.5-38.1,22-10.5,64.6,20.7,88.9,21.2,42.6.9,68-29,110.7-28.1,19.2.4,42.1,3,51,20.1,3.7,7.1,12.9,41.7,17.1,48.5,14.2,22.5,39.2-20.3,63.1-32,42.2-20.6,91.6-17.1,138.4-13.1,31.5,2.7,65.9,6.6,87.9,29.3,14.1,14.6,29.9,38.1,48.1,29.1,11.8-5.8,14.9-23.2,27.2-27.9,16.5-6.3,29.7,14.4,35.3,31.2,9.6,28.8,19.2,57.5,28.7,86.3,4.2,12.7,12.4,28.1,25.7,26.5,12.5-1.5,17.4-16.6,19.5-29,6-34.5-9.6-103.4,17.9-103.4s31.6,53,60.8,51.4c35.3-1.9,7.3-98.9,34.3-98.9s0,74.2,33.7,74.2,45.1-64.6,91.1-87.7c9.2-4.6,95.3-18.6,101.2-27,19.1-27-53-69.9-80.5-88.3-48.8-32.7-107.6-65.9-163.1-46.5-31,10.9-55.4,37-87.3,44.7-72.8,17.4-142.6-67.9-214.5-47.1-15.3,4.4-28.9,13.5-44.2,17.8-54.7,15.7-109.7-31-166.4-26.5-28.2,2.3-53.8,17-81.4,23-66.1,14.3-132.4-22.8-200-24.7-108.7-3-212,84.6-317.1,56.7-40.8-10.8-77.5-38.7-119.8-39.2-35-.4-67.1,18.2-101.4,25.2-99.9,20.3-198.8-59.7-299.4-43.5h0Z"/>
        <g class="st2">
          <g>
            <path class="st4" d="M-85.7-14.1c-34.2,13.3-58.6,71.1-14,88.1,18.8,7.2,41.7,7.1,61.5,8.2,29.8,1.7,59.7,1.6,89.6,2.4,12.7.3,25.5,1,38.2,1.6,10.7.5,36.1-3.8,43.4,4,6.2,6.5,6.8,23.2,10,31.8,4.1,11.2,9.5,22.4,18.1,30.9,16.9,16.9,41.3,18.2,59.4,2.8,8.4-7.2,14.8-17.1,20.3-26.6,5.4-9.3,14.5-34.3,26.3-19.1,10.8,14,11.2,38,20.3,53.8,10.5,18.4,27.9,30.8,49.8,28,22.7-2.9,36.2-20.3,44.5-40.1,3.3-7.8,5.2-20.7,10.9-27.1,8.1-9.2,13.9,1.4,23,8.5,20.4,15.9,41.8,19.8,64.5,5.3,14.4-9.2,25.7-19.5,42.4-25,16.2-5.3,33.2-6.8,50.1-6.2,72.8,2.3,136.3,41.6,205.5,58.8,33.1,8.2,69,11.1,101.8-.4,28.5-10,46.3-46.1,77.8-42.8,32.4,3.3,61.7,20.8,95.1,18.8,30.9-1.8,64.2-23.2,94.8-18.7,26.8,3.9,31.1,42.2,52.7,56.1,25.7,16.6,48.8,1.2,72.7-10.4,34.7-16.9,74.3-24.5,112.7-21.5,18.4,1.4,41.3,4.5,57.9,13.1,11,5.7,19.7,16.6,28.7,25,17.5,16.4,38.1,34.6,63.9,28.6,10.5-2.5,19.4-8.5,27.4-15.6,3.6-3.3,7.7-7,10.5-10.9.6-.8,4.9-4.1,4.9-5.1,0-1.6-7.7-1.7-8.4.4.2-.6,12.1,24.3,12.9,27.2,3.1,12.4,4.8,25,7.7,37.5,5.5,23.8,15.1,45.4,34.3,61.2,18.4,15.1,46.6,26.4,63.3,2.5,10.1-14.4,17.4-37.6,17.4-55.1,0-17.1-4.7-34.2-3.1-51.4.2-2.3,2.7-10.4,2.2-12.2.4-1.2.8-2.5,1.3-3.7-5.9-.3-11.9-.6-17.8-.9-.8,2.7,11.8,16.1,13.9,18.3,20.6,22.1,50,26.3,72.4,3.7,8.9-9,14.2-19.8,17.6-31.8,1.4-5.1,10.1-32.6,7.5-36.6-1.6-2.6-23.4-1.1-23.1-1.6-.7,1.3,1.7,6.7,2.2,8.7,1.3,5.2,2.4,10.3,4.2,15.3,5.2,14.6,14.5,23.4,28.6,30.1,62.5,29.9,70.5-54.3,113.8-72.1,37.2-15.2,92.2-18,100.3-67.1,7.2-43.6-44.2-86.2-73.3-111-23.8-20.3-48.5-36.8-77.6-48.5-25-10.1-41.8,30.9-18.3,43.3,25.7,13.6,49.6,30.8,71,50.5,14.6,13.4,39.9,33.2,46.4,52.5,3.1,9.1-1.1,11-12,15.7-20.5,8.9-43,12.1-63.4,21.6-19.1,8.9-33.1,21.5-44.1,39.4-4.4,7.2-8.7,21.8-15.7,26.7-12.4,8.6-10-6.6-13.3-17.5-6-19.8-20.7-35.2-42.8-31.1-26.3,4.9-32,31.2-36.1,53.4-.7,3.7-2.5,22.2-6.7,23-2.5.5-20-26.3-24.9-29.1-25.6-14.2-50.4,8.5-58,32-9.3,28.7,3.4,55.7-.3,83.9-.5,3.7-8.2,16.2-7.5,21.7-.5,1.1-1,2.1-1.6,3.2,17.5-2.7,21.2-6.2,11.1-10.3-4.1-5.2-9.9-7.8-13.6-13.7-22.2-36.4-8.2-88.2-47.3-116-17.4-12.4-35.4-11.3-51.4,2.8-5.4,4.8-12,16.7-18.8,19.1-8.2,2.9-19-11-25.1-16.7-17-16-31.8-29.7-54.4-37.2-32.3-10.7-67.8-15-101.7-11.4-33.4,3.6-66.5,14.3-96.5,29.4-7.7,3.9-19.5,14.6-27.9,10.8-9-4.1-16.3-26.2-22.5-34.1-40.1-51.4-97-11.4-147.5-6.8-31.4,2.9-61.4-15.7-92.4-18.6-29.5-2.7-48.4,9-69.7,28.3-53,48.2-132.3,7.5-189.2-13.5-56-20.8-119.1-39.2-179.1-25-13.5,3.2-27.1,8.4-39.1,15.4-7.8,4.6-21,19.4-29.2,20.4-11.3,1.3-20.8-12.2-29.2-18-9.4-6.5-19.6-10.9-31.1-10-19.2,1.5-31,14.9-38.8,31.3-4.5,9.5-11.7,46.9-27.3,41-13.7-5.2-17.5-42.9-23.4-55.2-9.4-19.7-28.7-34-51.3-31.3-31.1,3.8-36.2,33.2-52.3,54.2-10.7,13.8-16,2.8-21.1-10.5-4.6-12-5.2-25.7-11.1-37.1-12.6-24.1-38.6-23.7-62.4-23.8-28.7-.1-57.5-2-86.2-2.5-28.1-.5-56.5-.2-84.5-2.3-5.1-.4-20.6.3-24.6-3.7-8.1-8.2,6.9-32.8,12.5-38,6.4-6-.2-18.9-9-15.5h0Z"/>
            <path class="st3" d="M2043.8.8c-13.3-36.5-39.3-64.5-68.9-88.4-6.7-6.6-14.4-12.5-23-17.4-1.2-.8-2.3-1.7-3.4-2.5,0,.2-.1.3-.2.5-56.7-30-120.2,15.2-67.6,52.3,2.1,1.5-7.7-3.6-5.1-1.7.5,1.3,30.4,27,30.6,46,0,7-.3,8.5-4.7,14.8-29.3,53.9-106.9,23.5-151.3,53.9-19.6,1.9-27.1,45.5-46.6,47.3-20.5,1.8-46.3-39-65.7-44.2-38.3-10.3-66,35.3-103,47.6-37.4,12.4-62.3-45.5-97.8-56.5-36.9-11.5-74.9-11.5-112.9-6.4-35.9,4.8-72.4,16.3-108.8,14.4-36.4-1.9-66-29.3-102.6-16.4-34.5,12.3-48.6,41-89.4,29.9-39.5-10.8-72.6-31.2-114.7-14.9-36.6,14.2-45.5,26.8-86.1,17.3-33.3-7.7-66.3-16.5-99.6-24-68.4-15.3-140.8-24.3-209.3-4.1-20,5.9-37.7,17.5-57.2,24.1-21.7,7.4-48.2-14.5-71.9-12.2-23.6,2.3-39,35.8-54.9,33.9-17.7-2.1-24.4-44.2-66.6-44.2s-52.3,40.5-67.5,37.1c-11.5-2.6-15.6-37.2-23.6-43.8-18.6-23.6-70.8-27-111.3-21.9-28.5,3.6-78.9,4.1-105.6-7.6-35.2-15.3,12.4-43.6-18.5-59.6-28.5-14.8-52.4,31.3-53.1,52.9-2.4,73.9,84.4,76.7,136.6,75.8,32.8-.5,71-.7,97.6,21.6,29.5,24.6,44.3,60.6,90.8,47.6,11.7-3.3,36.4-13.7,44.1-23.8.9-1.2,2-1.8,2.8-2.1,3,3,5.8,7.8,7.9,10.6,34.5,45.6,97.7,66.7,130.4,4.3,1.9.7,3.7,1.5,4.4,1.7,32,12.1,53.7,18,87.2,6.4,30.5-10.6,56.8-23.3,89.7-24.7,64.5-2.8,129.1,17.6,190.4,34.8,30.8,8.6,64.1,18.4,96.3,17.1,28.9-1.2,46.9-17.5,73.2-24.2,27.4-7,50.5,11.8,76.7,18.4,33.8,8.5,63.6,1.6,95-12.7,4.3-1.9,8.7-3.8,13.1-5.8,27.6,50.4,80.1,79.1,136.3,55.3,22.1-9.3,37.7-29.9,59.9-38.1,29.4-10.8,57.3,7.2,83.6,18.5,11.1,4.7,22,8.8,33,12.4,15.8,51.2,96.8,55,138.8,50.6,3.7-.4,7.5-.8,11.4-1.2,6,15.3,11.5,30.7,22.9,43.4,41.7,46.1,116.9,26.7,125.9-32.1,43-19.5,116.2-41.4,125.4-95.4,96.9,14.8,230.3-44.8,186.6-164.3h0ZM320.6,105.8c-.3.4-.4.7-.4.8,0-.3,0-.6.4-.8ZM334.6,103.8c3.4-.5,3.1,6.8,0,0h0ZM388.2,139.3c0-.3.9,0,2.2.4-1.2,1-2.2,1.2-2.2-.4Z"/>
            <g>
              <g class="st6">
                <path class="st5" d="M219.4,14.6c1.9,0,3.6-1.6,3.6-3.6s-1.6-3.6-3.6-3.6-3.6,1.6-3.6,3.6,1.6,3.6,3.6,3.6h0Z"/>
                <path class="st5" d="M502.2,38.3s0,0,0-.1l-.9.9h.5c0,0,.8-.4.8-.4.4-.2.7-.5.9-.8.2-.2.3-.4.4-.7.2-.4.3-.8.3-1.2h0c0-.4,0-.8-.3-1.2-.1-.4-.3-.7-.6-1-.3-.3-.6-.5-1-.7-.4-.2-.8-.3-1.2-.3h-.8c-.5.3-1,.5-1.4.9l-.5.6c-.3.5-.4,1-.4,1.6h0c0,.3,0,.5.1.8.1.4.3.8.6,1.1.1.2.3.4.6.6.3.3.7.5,1.1.6h.5c0,0-.9-.8-.9-.8,0,0,0,0,0,.1,0,.3.2.5.4.6s.5.3.7.3c.2,0,.4,0,.6-.2.3-.1.5-.5.6-.7h0Z"/>
                <path class="st5" d="M556.7,26.2c2.1,0,2.1-3.2,0-3.2s-2.1,3.2,0,3.2h0Z"/>
                <path class="st5" d="M931.1,1.4c2,0,3.8-1.7,3.8-3.8,0-2-1.7-3.8-3.8-3.8s-3.8,1.7-3.8,3.8,1.7,3.8,3.8,3.8h0Z"/>
                <path class="st5" d="M796.2,37.9c1.7,0,3.3-1.5,3.2-3.2s-1.4-3.2-3.2-3.2-3.3,1.5-3.2,3.2,1.4,3.2,3.2,3.2h0Z"/>
                <path class="st5" d="M745.6,30.8c1.5,0,3-1.3,2.9-2.9s-1.3-2.9-2.9-2.9-3,1.3-2.9,2.9,1.3,2.9,2.9,2.9h0Z"/>
                <path class="st5" d="M1231.3,3.5c1.3,0,2.6-1.2,2.5-2.5s-1.1-2.5-2.5-2.5-2.6,1.2-2.5,2.5c0,1.4,1.1,2.5,2.5,2.5h0Z"/>
                <path class="st5" d="M1693.4,37.4c1.4,0,2.8-1.2,2.7-2.7s-1.2-2.7-2.7-2.7-2.8,1.2-2.7,2.7,1.2,2.7,2.7,2.7h0Z"/>
              </g>
              <g class="st8">
                <path class="st5" d="M526.3,23.7c1.3,0,2.5-1.1,2.5-2.5s-1.1-2.5-2.5-2.5-2.5,1.1-2.5,2.5,1.1,2.5,2.5,2.5h0Z"/>
                <path class="st5" d="M317.2,27.2c1.4,0,2.7-1.2,2.6-2.6s-1.2-2.6-2.6-2.6-2.7,1.2-2.6,2.6,1.2,2.6,2.6,2.6h0Z"/>
                <path class="st5" d="M1531.5,70.8c1.2,0,2.4-1.1,2.3-2.3s-1-2.3-2.3-2.3-2.4,1.1-2.3,2.3,1,2.3,2.3,2.3h0Z"/>
                <path class="st5" d="M1558.5,47.2c1.3,0,2.5-1.1,2.4-2.4s-1.1-2.4-2.4-2.4-2.5,1.1-2.4,2.4,1.1,2.4,2.4,2.4h0Z"/>
              </g>
            </g>
          </g>
        </g>
      </g>
    </g>
  </g>
</svg>