<?xml version="1.0" encoding="UTF-8"?>
<svg id="Layer_1" data-name="Layer 1" xmlns="http://www.w3.org/2000/svg" xmlns:xlink="http://www.w3.org/1999/xlink" viewBox="0 0 1920 94.85">
  <defs>
    <style>
      .cls-1 {
        fill: none;
      }

      .cls-2, .cls-3, .cls-4 {
        fill: #336ec2;
      }

      .cls-2, .cls-5 {
        opacity: .15;
      }

      .cls-3 {
        opacity: .3;
      }

      .cls-6 {
        clip-path: url(#clippath-1);
      }

      .cls-7 {
        clip-path: url(#clippath-2);
      }

      .cls-8 {
        fill: #fff;
      }

      .cls-9 {
        opacity: .35;
      }

      .cls-10 {
        clip-path: url(#clippath);
      }
    </style>
    <clipPath id="clippath">
      <rect class="cls-1" width="1920" height="94.85"/>
    </clipPath>
    <clipPath id="clippath-1">
      <rect class="cls-1" y="16.31" width="1920" height="370"/>
    </clipPath>
    <clipPath id="clippath-2">
      <path class="cls-1" d="M137.25,17.62C98.44,25.66,21.12,44.94-15.01,61.23c-43.72,19.71-111.31,57.34-77.58,80.95,12.99,9.09,75.97,9.87,91.81,10.56,29.61,1.29,82.83-.8,112.44.49,10.69.47,22.07,1.16,30.75,7.41,26.04,18.77,14.27,75.06,46.19,78.51,31.36,3.39,35.15-54.07,65.9-61.1,31.13-7.12,47.04,74,77.91,82.18,22.79,6.04,26.98-84.32,64.09-84.32s32.24,50.01,54.91,50.01,31.14-44.3,69.89-43.26c57.86,1.55,154.53,16.16,209.97,32.78,47.5,14.24,99,39.15,143.78,17.84,20.56-9.79,36.02-28.22,56.55-38.07,21.95-10.53,64.57,20.65,88.9,21.18,42.65.93,68.05-29.01,110.7-28.08,19.22.42,42.14,3.01,50.97,20.09,3.66,7.07,12.86,41.73,17.1,48.47,14.18,22.53,39.18-20.33,63.11-31.99,42.19-20.56,91.62-17.08,138.38-13.14,31.49,2.65,65.89,6.62,87.92,29.28,14.14,14.55,29.9,38.07,48.11,29.12,11.84-5.82,14.86-23.21,27.17-27.94,16.5-6.34,29.74,14.43,35.33,31.2,9.58,28.76,19.15,57.52,28.73,86.28,4.23,12.7,12.39,28.09,25.69,26.52,12.47-1.47,17.4-16.65,19.54-29.02,5.97-34.46-9.64-103.37,17.91-103.37s31.57,52.99,60.75,51.42c35.31-1.9,7.28-98.95,34.26-98.95s0,74.21,33.73,74.21,45.06-64.62,91.07-87.7c9.16-4.6,95.28-18.6,101.19-26.98,19.05-27.02-52.99-69.91-80.46-88.3-48.8-32.66-107.64-65.95-163.06-46.51-30.96,10.87-55.36,37.05-87.28,44.69-72.81,17.42-142.56-67.93-214.47-47.09-15.29,4.43-28.94,13.46-44.24,17.84-54.7,15.66-109.68-31.02-166.39-26.45-28.16,2.27-53.76,17.02-81.37,22.99-66.13,14.3-132.41-22.79-200.04-24.65-108.68-2.98-211.99,84.62-317.07,56.74-40.83-10.83-77.51-38.7-119.75-39.15-34.96-.37-67.11,18.25-101.37,25.21C336.77,81.42,237.87,1.39,137.25,17.62Z"/>
    </clipPath>
  </defs>
  <g class="cls-10">
    <g class="cls-6">
      <g>
        <path class="cls-8" d="M137.25,17.62C98.44,25.66,21.12,44.94-15.01,61.23c-43.72,19.71-111.31,57.34-77.58,80.95,12.99,9.09,75.97,9.87,91.81,10.56,29.61,1.29,82.83-.8,112.44.49,10.69.47,22.07,1.16,30.75,7.41,26.04,18.77,14.27,75.06,46.19,78.51,31.36,3.39,35.15-54.07,65.9-61.1,31.13-7.12,47.04,74,77.91,82.18,22.79,6.04,26.98-84.32,64.09-84.32s32.24,50.01,54.91,50.01,31.14-44.3,69.89-43.26c57.86,1.55,154.53,16.16,209.97,32.78,47.5,14.24,99,39.15,143.78,17.84,20.56-9.79,36.02-28.22,56.55-38.07,21.95-10.53,64.57,20.65,88.9,21.18,42.65.93,68.05-29.01,110.7-28.08,19.22.42,42.14,3.01,50.97,20.09,3.66,7.07,12.86,41.73,17.1,48.47,14.18,22.53,39.18-20.33,63.11-31.99,42.19-20.56,91.62-17.08,138.38-13.14,31.49,2.65,65.89,6.62,87.92,29.28,14.14,14.55,29.9,38.07,48.11,29.12,11.84-5.82,14.86-23.21,27.17-27.94,16.5-6.34,29.74,14.43,35.33,31.2,9.58,28.76,19.15,57.52,28.73,86.28,4.23,12.7,12.39,28.09,25.69,26.52,12.47-1.47,17.4-16.65,19.54-29.02,5.97-34.46-9.64-103.37,17.91-103.37s31.57,52.99,60.75,51.42c35.31-1.9,7.28-98.95,34.26-98.95s0,74.21,33.73,74.21,45.06-64.62,91.07-87.7c9.16-4.6,95.28-18.6,101.19-26.98,19.05-27.02-52.99-69.91-80.46-88.3-48.8-32.66-107.64-65.95-163.06-46.51-30.96,10.87-55.36,37.05-87.28,44.69-72.81,17.42-142.56-67.93-214.47-47.09-15.29,4.43-28.94,13.46-44.24,17.84-54.7,15.66-109.68-31.02-166.39-26.45-28.16,2.27-53.76,17.02-81.37,22.99-66.13,14.3-132.41-22.79-200.04-24.65-108.68-2.98-211.99,84.62-317.07,56.74-40.83-10.83-77.51-38.7-119.75-39.15-34.96-.37-67.11,18.25-101.37,25.21C336.77,81.42,237.87,1.39,137.25,17.62Z"/>
        <g class="cls-7">
          <path class="cls-3" d="M-85.66,78.18c-34.18,13.33-58.62,71.08-14.04,88.05,18.82,7.16,41.65,7.07,61.48,8.19,29.82,1.69,59.72,1.6,89.57,2.4,12.74.34,25.45.99,38.19,1.58,10.69.5,36.14-3.76,43.45,3.99,6.18,6.54,6.8,23.23,9.98,31.8,4.15,11.17,9.5,22.36,18.05,30.88,16.92,16.87,41.34,18.19,59.45,2.8,8.45-7.18,14.82-17.07,20.32-26.58,5.4-9.33,14.51-34.35,26.34-19.07,10.8,13.96,11.24,38.03,20.28,53.82,10.53,18.41,27.89,30.81,49.76,28,22.72-2.93,36.16-20.28,44.52-40.15,3.3-7.84,5.18-20.66,10.86-27.06,8.14-9.16,13.89,1.4,23.01,8.51,20.42,15.94,41.84,19.83,64.5,5.3,14.38-9.22,25.67-19.52,42.38-25.04,16.18-5.34,33.15-6.79,50.1-6.25,72.8,2.32,136.28,41.62,205.52,58.76,33.08,8.19,69.05,11.12,101.75-.36,28.52-10.01,46.29-46.05,77.78-42.81,32.39,3.33,61.73,20.75,95.06,18.78,30.89-1.83,64.15-23.24,94.83-18.72,26.84,3.95,31.12,42.19,52.7,56.14,25.65,16.59,48.85,1.24,72.66-10.36,34.65-16.89,74.29-24.5,112.7-21.5,18.44,1.44,41.3,4.52,57.91,13.06,11.04,5.68,19.72,16.61,28.66,24.99,17.48,16.38,38.06,34.58,63.93,28.55,10.54-2.46,19.45-8.46,27.39-15.65,3.6-3.26,7.67-6.96,10.54-10.9.61-.83,4.89-4.13,4.87-5.06-.04-1.62-7.74-1.7-8.43.36.21-.63,12.14,24.29,12.87,27.24,3.07,12.38,4.82,25.04,7.68,37.47,5.48,23.85,15.11,45.44,34.32,61.25,18.38,15.13,46.58,26.43,63.33,2.55,10.13-14.44,17.4-37.56,17.36-55.11-.04-17.1-4.65-34.25-3.05-51.39.21-2.27,2.73-10.42,2.2-12.16.42-1.25.84-2.49,1.26-3.74-5.95-.29-11.9-.59-17.84-.88-.85,2.71,11.8,16.05,13.88,18.29,20.57,22.15,50.04,26.27,72.4,3.68,8.87-8.96,14.22-19.79,17.64-31.84,1.45-5.12,10.05-32.65,7.54-36.57-1.63-2.55-23.42-1.15-23.13-1.65-.74,1.26,1.69,6.74,2.19,8.72,1.3,5.16,2.37,10.3,4.18,15.32,5.25,14.57,14.52,23.39,28.55,30.12,62.47,29.95,70.52-54.32,113.83-72.07,37.16-15.23,92.25-18.05,100.34-67.06,7.19-43.56-44.2-86.16-73.28-110.99-23.84-20.35-48.47-36.75-77.56-48.47-24.98-10.07-41.79,30.94-18.27,43.35,25.72,13.56,49.63,30.84,71.04,50.47,14.56,13.35,39.89,33.18,46.43,52.46,3.1,9.12-1.06,10.99-11.99,15.72-20.52,8.88-43.03,12.05-63.43,21.56-19.07,8.89-33.12,21.52-44.07,39.44-4.38,7.17-8.72,21.8-15.72,26.66-12.38,8.61-10.01-6.6-13.33-17.47-6.03-19.77-20.72-35.15-42.77-31.06-26.32,4.89-31.97,31.19-36.08,53.44-.68,3.7-2.52,22.17-6.66,23.01-2.52.51-19.97-26.31-24.91-29.05-25.58-14.18-50.43,8.51-58.01,32-9.26,28.69,3.39,55.68-.29,83.85-.48,3.69-8.23,16.16-7.49,21.72-.52,1.08-1.03,2.15-1.55,3.23,17.49-2.73,21.2-6.17,11.13-10.33-4.05-5.16-9.95-7.78-13.56-13.71-22.19-36.41-8.17-88.17-47.27-116.03-17.38-12.39-35.44-11.3-51.36,2.83-5.45,4.83-12.02,16.73-18.82,19.13-8.25,2.91-19.01-11.01-25.08-16.74-16.97-16.03-31.8-29.74-54.37-37.23-32.31-10.74-67.77-15.04-101.67-11.4-33.44,3.59-66.52,14.27-96.52,29.38-7.65,3.85-19.53,14.6-27.88,10.81-9.03-4.11-16.34-26.19-22.51-34.09-40.14-51.43-96.96-11.45-147.46-6.81-31.39,2.89-61.36-15.67-92.36-18.55-29.51-2.74-48.44,8.99-69.67,28.3-53.04,48.25-132.32,7.54-189.18-13.53-56.05-20.78-119.14-39.21-179.1-25.01-13.53,3.21-27.07,8.43-39.11,15.42-7.84,4.55-20.95,19.42-29.24,20.37-11.28,1.29-20.77-12.16-29.17-17.99-9.35-6.48-19.57-10.86-31.11-9.98-19.2,1.47-31.01,14.87-38.78,31.31-4.51,9.53-11.73,46.92-27.28,40.98-13.73-5.25-17.49-42.86-23.37-55.22-9.38-19.71-28.67-34.05-51.3-31.27-31.12,3.82-36.15,33.19-52.32,54.15-10.68,13.83-16.01,2.77-21.05-10.46-4.58-12-5.16-25.68-11.13-37.13-12.57-24.11-38.62-23.65-62.38-23.75-28.69-.12-57.45-2.04-86.16-2.5-28.13-.45-56.46-.16-84.53-2.26-5.1-.38-20.59.33-24.56-3.71-8.09-8.24,6.94-32.79,12.5-37.99,6.43-6.01-.22-18.88-9-15.46h0Z"/>
          <path class="cls-2" d="M2043.84,93.08c-13.34-36.46-39.34-64.53-68.91-88.39-6.71-6.62-14.41-12.47-23.02-17.41-1.15-.82-2.3-1.65-3.45-2.47-.07.17-.14.33-.21.5-56.72-30-120.24,15.15-67.64,52.32,2.06,1.45-7.69-3.59-5.06-1.69.48,1.28,30.36,26.98,30.59,46.01-.08,6.96-.26,8.51-4.65,14.77-29.31,53.91-106.89,23.55-151.31,53.87-19.61,1.94-27.08,45.5-46.64,47.26-20.48,1.84-46.35-39-65.68-44.2-38.29-10.3-66.02,35.34-102.97,47.57-37.39,12.38-62.34-45.45-97.78-56.51-36.95-11.53-74.86-11.5-112.88-6.4-35.87,4.81-72.37,16.32-108.82,14.39-36.36-1.92-66.01-29.34-102.57-16.36-34.53,12.26-48.6,40.96-89.39,29.87-39.55-10.75-72.57-31.21-114.67-14.9-36.63,14.19-45.46,26.76-86.14,17.33-33.26-7.71-66.26-16.52-99.58-23.99-68.39-15.32-140.76-24.27-209.27-4.06-20.04,5.92-37.67,17.48-57.18,24.11-21.74,7.38-48.21-14.48-71.89-12.2-23.64,2.27-38.96,35.81-54.85,33.93-17.68-2.09-24.43-44.25-66.59-44.25s-52.28,40.48-67.46,37.1c-11.52-2.56-15.6-37.22-23.61-43.85-18.55-23.61-70.83-26.98-111.31-21.92-28.52,3.56-78.93,4.05-105.62-7.56-35.25-15.33,12.39-43.57-18.55-59.61-28.52-14.78-52.38,31.27-53.07,52.91-2.36,73.94,84.36,76.65,136.58,75.79,32.75-.54,70.98-.66,97.58,21.56,29.5,24.64,44.32,60.65,90.81,47.58,11.7-3.29,36.45-13.69,44.06-23.79.94-1.24,2-1.81,2.84-2.09,3.04,2.96,5.76,7.77,7.9,10.6,34.46,45.62,97.67,66.66,130.4,4.27,1.87.72,3.66,1.46,4.4,1.74,31.99,12.07,53.68,18.01,87.18,6.35,30.52-10.63,56.8-23.29,89.67-24.73,64.51-2.82,129.07,17.61,190.44,34.75,30.75,8.59,64.06,18.42,96.35,17.08,28.94-1.2,46.92-17.5,73.24-24.21,27.39-6.98,50.55,11.8,76.73,18.39,33.8,8.5,63.58,1.59,94.96-12.7,4.26-1.94,8.73-3.83,13.13-5.84,27.59,50.37,80.09,79.07,136.28,55.31,22.05-9.32,37.71-29.95,59.9-38.11,29.41-10.82,57.26,7.25,83.59,18.49,11.1,4.74,22.03,8.84,33.03,12.36,15.76,51.16,96.77,55,138.84,50.62,3.69-.38,7.52-.83,11.4-1.25,5.99,15.3,11.46,30.73,22.93,43.42,41.68,46.11,116.88,26.68,125.92-32.1,43.02-19.46,116.24-41.44,125.44-95.39,96.92,14.8,230.34-44.76,186.6-164.26ZM320.62,198.11c-.26.39-.44.68-.41.77-.08-.29.08-.55.41-.77ZM334.62,196.1c3.44-.47,3.12,6.8,0,0h0ZM388.17,231.58c0-.27.94-.05,2.22.37-1.25.98-2.2,1.23-2.22-.37Z"/>
          <g>
            <g class="cls-5">
              <path class="cls-4" d="M226.16,69.46c1.65,0,3.24-1.45,3.16-3.16s-1.39-3.16-3.16-3.16c-1.65,0-3.24,1.45-3.16,3.16s1.39,3.16,3.16,3.16h0Z"/>
              <path class="cls-4" d="M931.11,93.66c1.96,0,3.85-1.73,3.76-3.76s-1.65-3.76-3.76-3.76c-1.96,0-3.85,1.73-3.76,3.76s1.65,3.76,3.76,3.76h0Z"/>
              <path class="cls-4" d="M1025.55,63.21c1.03,0,2.02-.91,1.98-1.98s-.87-1.98-1.98-1.98c-1.03,0-2.02.91-1.98,1.98s.87,1.98,1.98,1.98h0Z"/>
              <path class="cls-4" d="M1492.71,56.03c1.98,0,1.99-3.08,0-3.08s-1.99,3.08,0,3.08h0Z"/>
              <path class="cls-4" d="M1469.62,67.31c-.11-.53-.23-1.07-.34-1.6l-.34-.81c-.21-.4-.51-.71-.88-.95-.21-.21-.46-.36-.75-.44-.41-.21-.84-.31-1.31-.29l-.9.12-.81.34c-.4.21-.71.51-.95.88-.3.33-.5.71-.61,1.16-.11.53-.23,1.07-.34,1.6-.18.67-.18,1.33,0,2,.18.64.5,1.19.97,1.66l.76.59c.59.34,1.22.51,1.9.51.52.02,1-.09,1.45-.32.47-.15.87-.41,1.21-.78.47-.47.79-1.02.97-1.66.18-.67.18-1.33,0-2h0Z"/>
              <path class="cls-4" d="M1828.32,67.37c1.45,0,2.83-1.27,2.77-2.77s-1.22-2.77-2.77-2.77c-1.45,0-2.83,1.27-2.77,2.77s1.22,2.77,2.77,2.77h0Z"/>
              <path class="cls-4" d="M23.78,79.6c1.93,0,1.94-3,0-3s-1.94,3,0,3h0Z"/>
              <path class="cls-4" d="M377.94,91.88c1.03,0,2.02-.91,1.98-1.98s-.87-1.98-1.98-1.98c-1.03,0-2.02.91-1.98,1.98s.87,1.98,1.98,1.98h0Z"/>
              <path class="cls-4" d="M1231.31,95.81c1.32,0,2.59-1.16,2.53-2.53s-1.11-2.53-2.53-2.53c-1.32,0-2.59,1.16-2.53,2.53s1.11,2.53,2.53,2.53h0Z"/>
              <path class="cls-4" d="M1312.26,91.56c2.14,0,2.14-3.32,0-3.32s-2.14,3.32,0,3.32h0Z"/>
              <path class="cls-4" d="M1002.13,86.17c.02-.11.03-.22.05-.34l-2.3,2.3.44-.06,1.18-.5c.58-.31,1.04-.73,1.39-1.27.31-.31.52-.67.64-1.09.31-.59.45-1.22.43-1.9h0c.03-.68-.12-1.32-.43-1.9-.2-.61-.54-1.14-1.02-1.59-.45-.48-.98-.82-1.59-1.02-.59-.31-1.22-.45-1.9-.43l-1.31.18c-.84.23-1.56.66-2.18,1.27l-.77,1c-.45.77-.67,1.6-.67,2.49h0c.06.44.12.88.18,1.31.15.64.45,1.2.88,1.68.22.37.52.67.89.89.48.44,1.04.73,1.68.88l.44.06-2.3-2.3c.02.11.03.22.05.34l.33.77c.2.38.48.68.83.91.2.2.44.34.72.42.39.2.8.3,1.25.28l.86-.12.77-.33c.38-.2.68-.48.91-.83.29-.31.48-.68.58-1.1h0Z"/>
            </g>
            <g class="cls-9">
              <path class="cls-4" d="M182.31,82.26c1.5,0,3.08-.65,4.14-1.71s1.78-2.68,1.71-4.14c-.14-3.17-2.57-5.85-5.85-5.85-1.5,0-3.08.65-4.14,1.71s-1.78,2.68-1.71,4.14c.14,3.17,2.57,5.85,5.85,5.85h0Z"/>
              <path class="cls-4" d="M964.84,66.81c1.43,0,2.93-.62,3.94-1.63s1.69-2.55,1.63-3.94c-.14-3.02-2.45-5.57-5.57-5.57-1.43,0-2.93.62-3.94,1.63s-1.69,2.55-1.63,3.94c.14,3.02,2.45,5.57,5.57,5.57h0Z"/>
              <path class="cls-4" d="M1857.8,71.53c-.23-.02-.46-.04-.69-.06-.7-.03-1.35.12-1.95.44-.63.2-1.17.55-1.63,1.05l-.79,1.02c-.46.79-.69,1.64-.69,2.55.01.23.04.46.06.69l.2,1.51.57,1.36c.36.66.85,1.2,1.47,1.6.35.35.77.6,1.26.73.44.26.92.39,1.44.39.5.14,1.01.14,1.51,0,.51,0,.99-.13,1.44-.39.71-.23,1.32-.62,1.83-1.18l.89-1.15.57-1.36.2-1.51-.2-1.51-.57-1.36c-.36-.66-.85-1.2-1.47-1.6-.35-.35-.77-.6-1.26-.73-.68-.36-1.41-.52-2.19-.49h0Z"/>
              <path class="cls-4" d="M1816.52,91.46c1.7,0,3.32-1.49,3.24-3.24s-1.42-3.24-3.24-3.24c-1.7,0-3.32,1.49-3.24,3.24s1.42,3.24,3.24,3.24h0Z"/>
              <path class="cls-4" d="M1268.41,60.36c2.19,0,4.29-1.93,4.19-4.19s-1.84-4.19-4.19-4.19c-2.19,0-4.29,1.93-4.19,4.19s1.84,4.19,4.19,4.19h0Z"/>
            </g>
          </g>
        </g>
      </g>
    </g>
  </g>
</svg>