<?xml version="1.0" encoding="UTF-8"?>
<svg id="Layer_1" data-name="Layer 1" xmlns="http://www.w3.org/2000/svg" xmlns:xlink="http://www.w3.org/1999/xlink" viewBox="0 0 3073.12 184.52">
  <defs>
    <style>
      .cls-1 {
        fill: none;
      }

      .cls-2 {
        fill: #dfb862;
      }

      .cls-3 {
        clip-path: url(#clippath-1);
      }

      .cls-4 {
        fill: #fff;
      }

      .cls-5 {
        fill: #cba35a;
      }

      .cls-6 {
        clip-path: url(#clippath);
      }
    </style>
    <clipPath id="clippath">
      <rect class="cls-1" x="-3133.12" width="3073.12" height="184.52"/>
    </clipPath>
    <clipPath id="clippath-1">
      <rect class="cls-1" width="3073.12" height="184.52" transform="translate(3073.12 184.52) rotate(180)"/>
    </clipPath>
  </defs>
  <g class="cls-6">
    <path class="cls-4" d="M-33.79,94.58L7.73,1151.18l-3214.85,13.33V63.47c13.57-1.1,27.22-11.65,40.91-3.07,13.69-21.67,27.42-1.9,41.14-4.88,13.72-35.66,27.42,5.77,41.06-5.68,13.64-9.21,27.22,1.06,40.68-5.48,5.84,12.86,12.33,7.12,19.19,14.27,6.85-2.59,14.07-21.24,21.33-21.22,7.27-.7,14.6-14.5,21.7.77,7.09,6.46,13.95-8.6,20.27-6.25,8.27,1.19,16.85,10.99,25.19.42,3.03,7.84,6.12,5.31,9.26-1.31,3.14-10.51,6.32-15.82,9.53-17.98,3.21,16.71,6.44,19.66,9.68,22.67,3.24,2.24,6.49-8.06,9.73-4.6,14.35,7.26,9.35-17.74,14.35-10.24,12.5,12.5,30,12.5,30,32.5,3.75-2.5,8.12-8.75,12.5-12.19s8.75-4.06,12.51,4.69c0-2.51,0-7.51,2.49-5.01,7.5,10,25,0,37.5-2.5,2.5,0,5,5,7.5,7.5,5-12.5,17.52,4.99,22.57,2.48-.07-4.98-.07-12.48-.07-17.48,9.38,16.88,28.6,26.72,47.11,23.2,6.17-1.17,12.26-3.82,17.89-8.15,15,12.44,22.5,12.44,32.5-5.06,2.5,5,2.5,10,7.5,12.5s12.5-2.5,10-10c10,5,10,15,12.5,25v-12.5c12.5,42.5,60,32.5,95,25,5,0,7.5,2.5,7.5,7.5,0-2.5,2.5-2.5,2.5-5l7.5,22.5c2.5-5,2.5-12.5,5-17.5,0,2.5,2.5,7.5,2.5,7.5,17.5,2.5,0-20,12.5-20,10,0,2.5,12.5,7.5,15,7.5-15,22.5-27.5,39.41-17.58,6.13,1.8,11.99,3.52,17.77,4.45,11.56,1.88,22.81.62,35.31-9.38,5,7.5,15-5,17.5,5,5-2.5,5-10,7.5-10,12.5-2.5,7.5,25,22.5,20,2.5,0,7.5-7.5,5-15,12.5,12.5,30,2.5,37.5-10,0,5,2.5,12.5,5,15,12.5,2.5,17.5-17.5,29.66-14.34,7.89,7.77,15.66-15.76,23.39-.44,3.86,1.96,7.71-7.88,11.56-10.52,3.84-14.03,7.68,3.1,11.51,14.52,3.84,1.63,7.67,11.24,11.51,5.99,3.84-9.72,7.69-4.12,11.55-12.95,3.86,18.87,7.74,8.56,11.63-4.76,3.89-.79,7.81-17.56,11.74,12.47,2.26-5.26,4.55,8.66,6.86,18.17,2.31,8.87,4.64,9.86,6.98-3.99,4.67-14.17,9.36-9.43,13.96-8.62,4.59,11.04,9.09,30.5,13.36,15.98,2.14,13.96,4.22,4.97,6.23,15.68,2.01,13.72,3.95-30.26,5.81-19.11,2.88,19.94,5.63-3.15,8.51,6.9,2.88-12.52,5.88-16,9.27,6.41,4.92-24.55,11.32,15.2,17.77.89,3.22-32.13,6.46,1.95,9.52-16.85,3.06,8.75,5.95-4.31,8.5,15.75,4.32-12.31,8.65-1.99,12.98-6.12,4.33,7.35,8.66,30.09,12.97,6.23,6.42-26.85,12.78,2.71,19.14-1.4,3.18,4.03,6.35-22.81,9.54-18.69,3.18,18.16,6.37,1.77,9.57,16.53.58-5.01,15.94-5,19.48-.41,7.48-.45,13.85-40.59,20.36-8.09,3.25-3.9,6.54,3.99,10.01-11.3,3.47-5.58,7.13-5.32,11.13,5.33,5.6-1.42,11.2-.01,16.8,6.46,5.6-8.03,11.2,2.23,16.8-5.83,5.6,15.28,11.2-6.35,16.79.77,5.59-3.43,11.17,6.11,16.74,2.76,5.57,6.37,11.13-3.91,16.68-2.69,5.54-10.94,11.07-2.99,16.58,7.61,4.61,19.16,9.48,9.06,14.46-1.57,2.49-9.08,5.01-7.34,7.54-11.36,2.53-4.64,5.08-3.67,7.62,17.02,5.08-20.52,10.14-3.19,15.04,6.86,4.9,11.64,9.64,2.73,14.09.2,3.13-5.48,5.81,3.24,8.29,18.26,1.24,12.89,2.42,13.19,3.58,8.35,1.16,9.2,2.3,4.2,3.45-21.45,2.29-5.35,4.6-15.42,7.17-13.47,2.57,13.29,5.4-7.98,8.72,14.9,2.92,11.22,5.67,23.7,8.31,14.58,2.64,6.27,5.19-5.8,7.72-14.89,2.53-14.78,5.04-5.55,7.62-12.17,2.58,12.31,5.22,20.51,8.01,8.5,4.38-9.89,9.04.54,13.77-.92,4.73-3.77,9.53-2.5,14.2-12.33,4.12,28.34,7.37.2,11.48-.42,3.95-4.48,7.47,10.62,10.98,7.98,3.51-8.34,7.01-6.72,10.92-13.79,4.36,4.35,8.78,5.99,13.19,1.17,4.41-5.26,8.81-2.26,13.14-5.47,3.82-3.97,7.7,6.51,11.55,5.65,1.92,5.14,3.84,15.3,5.74,11.57,1.9-5.5,3.78-3.52,5.62-21.47,6.25,4.02,12.04-7.58,17.7-9.4,5.66-7.6,11.19,2.6,16.95-11.02,3.78-14,7.35-4.82,10.97,1.25,3.62-3.88,7.29,9.06,11.29-7.57,6.96-19.07,13.76-6.64,20.45-5.87,6.69,3.08,13.28-9.66,19.81,2.81,6.53-11.84,13,1.49,19.46-4.85,6.46.56,12.9,4.06,19.39,8.74,6.48-5.47,13-3.45,19.61,6.41,6.6-6.41,13.29-7.71,20.11,2.85,5.27-4.57,11.33-15.52,17.3,6.24,5.97-4.43,11.86-2.3,16.8,5.86,8.11,4.24,17.21-17.82,25.69,1.01,4.86-22.26,8.7-15.95,12.46-15.67,3.75-4.71,7.42,3.26,11.94,19.7,3.7,2.53,6.62-20.96,9.54-13.71,2.92,2.75,5.83-5.09,9.51,18.35,5.13,22.18,9.03-6.49,14.32,10.32,2.43-10.47,4.84,5.92,7.23-11.76,1.2-19.37,2.4-9.52,3.59,6.59,1.19,19.77,2.39,14.84,3.59,13.66,2.39,4.62,4.79,11.02,7.2,17.99,1.21,19.05,2.42,2.04,3.64-7.07,1.22-7.68,2.44-18.29,3.67-2.68,5.19,6.76,9.91,5.83,14.42,10.74,4.51,8.7,8.81,5.1,13.17.62,4.36,11.92,8.79,6.35,13.55-.72,4.76,17.71,9.86-13.85,15.56-1.93,4.3,2.85,8.64,13,12.9,5.2,4.26,5.27,8.45-44.2,12.45-15.06,4.26-1.22,8.94-14.48,13.45-7.01,2.62-14.27,4.95-11.3,7.27-16.57,2.32-8.05,4.64-17.31,7.25,15.91,7.66-11.84,9.78-21.01,16.15-9.24,2.86-13.41,5.96-15.43,9.17-19.65,3.21.52,6.52,8.75,9.82,15.76,4.82,2.06,9.45-6.28,14.15-8.7,4.69,6.06,9.45-21.53,14.53-7.85,4.51-4.3,9.19-20.76,13.95-10.82,4.75-7.69,9.58-15.45,14.36,9.16,3.92,1.55,9.8,16.08,13.56-.23,2.01,13.33,3.11,6.92,4.22,1,1.1-5.92,2.2-11.36,4.21,3.9,1.6,1.81,3.42-25.49,5.26-15.09,1.84-3.27,3.69,12.82,5.35,14.68,4.55,17,9.13,14.27,13.7,13.75,4.57-1.19,9.12,1.41,13.61-10.12,3.87-1.45,7.77-14.32,11.68-20.27,1.96-13.43,3.92-2.5,5.88-1.23,1.96,5.19,3.93,19.71,5.89,21.84,3.92,7.93,7.84-4.28,11.73-11.53,3.89-12.2,7.76-9.02,11.58,12.09,3.85,10.11,7.14,10.05,10.41,14.51,3.27,4.47,6.54,5.14,10.33-8.23,8.04,1.4,16.85-5.08,24.37,4.77,5.33,18.23,7.69-5.59,13.66,7.79,6.28-4.06,11.76,5.1,17.97,9.13,8.96-2.44,18.04,20.05,27.42,13.49,4.69,4.93,9.45-.06,14.31,5.86,4.86-15.02,9.81,2.4,14.87,1.62,8-4.76,16.47-.11,24.85-2.61,8.39,10.4,16.69,21.97,24.35-6.14,3.86,12.43,7.55,21.75,11.16,5.65,3.61-49.9,7.15-7.52,10.72-13.98,1.78-17.71,3.57-31.19,5.38-24.86,1.81,1.77,3.63,2.44,5.49,14.03,3.71-23.6,7.55,9.95,11.6,5.61,3.65-17.49,7.32-5.84,10.99-1.99,1.84,10.3,3.67,12.48,5.5,16.88,1.83,25.37,3.66.46,5.49-14.7,10.58-11.32,12.61-8.7,22.15-9.06,3.6-9.61,7.25-10.45,10.94,1.69,3.69-12.95,7.41,22.21,11.14-2.36,2.99,5.08,5.85-1.45,8.69,14.06,2.85-8.83,5.69-16.05,8.66-21.43,2.44-17.86,4.81-47.9,7.12-14.94,2.32-4.13,4.58,21.93,6.83,15.79,2.25-26.94,4.49-4.59,6.74-19.14,2.26-10.84,4.53,8.55,6.86,14.31,4.07,6.82,6.45-16.23,9.09-13.55,2.65-5.41,5.55-7.24,10.68,7.89,8.7,6.82,12.77-27.03,20-4.44,2.65-1.9,5.56-20.13,8.66-23.33,3.11-26.17,6.41-19.82,9.85,5.21,3.44,2.08,7.02-10.63,10.66,1.82,3.65-9.78,7.37-25.52,11.1,10.45,3.73,10.08,7.48,24.65,11.16,15.99,3.69,9.16,7.33-3.97,10.85-4.22,7.05-15.55,13.62-16.1,19.24-6.92,4.1,13,8.05,6.51,11.92,9.92,3.87,17.88,7.65-12.35,11.42-8.15,7.53,3.87,15-12.55,22.9,3.67,4.7,1.53,9.54-2.35,14.4-2.45,4.86,1.66,9.72,5.44,14.47,10.33,4.72,30,9.63.94,14.64,12.09,5.01-10.56,10.13-2,15.26-10.17,5.13-21.09,10.27-10.38,15.34-9.94,2.53,6.73,5.05,6.98,7.54,16.86,2.48-5.68,4.94-18.32,7.36-7.84,2.03-2.47,4.08-1.98,6.14,11.69,2.07-.29,4.15,3.81,6.25-17.87,4.19-15.98,8.42-12.02,12.65,6.97,8.46-.03,16.9,3.89,24.95-.68,3.8,20.2,5.36,2.98,6.68,11.97.67,25.51,1.27,10.08,2.08,5.27.81-9.66,1.8-8.41,3.25-23,3.13-21.37,7.57,8.68,10.22-3.12,4.7,17.7,7.88,3.69,13.01-9.21,1.67,15.92,3.46,16.56,5.36,5.69,1.89-15.29,3.88-14.5,5.94-17.22,4.11,23.26,8.5,15.59,12.91,10.07,4.41-4.83,8.85,3.09,13.09.8,4.23-10.46,8.25-13.81,11.81.87,3.18,4.31,6.38,23.63,9.57,8.17,3.2-35.31,6.39-21.24,9.59,6.59,3.2-9.4,6.4-4.57,9.6-18.19,3.2-8.43,6.4-2.23,9.6,3.05,6.4,4.4,12.8,17.49,19.19,8.23,3.19-22.83,6.39-13.82,9.58-21.4,3.19,8.05,6.38,20.83,9.56,13.56,4.26,40.64,7.53-30.31,10.73,18.51,3.19-38.31,6.31,23.63,10.26-14.06,4.73,3.8,8.57-3.06,12.37,12.75,3.81-7,7.59,3.55,12.22-3.72,5.54,14.32,7.32,19.19,12.28,3.06,2.64,22.25,4.56,1.78,7.44,5.66,2.95-17.66,6.4-9.27,9.9-3.35s7.05,14.47,10.17,12.4c4.54,25.49,9.4,5.43,14.42.88,5.02-3.8,10.22-4.15,15.43.53,10.42-.54,20.92-1.57,30.31-1.57Z"/>
    <path class="cls-2" d="M-3267.83,157.68l34.03,734.17L29.95,954.07V144.35c-6.13,8.19-13.72,12.86-20.35,20.71-5.38,17.71-9.93,10.31-15.57,18.07-5.65,8.34-12.4-7.25-22.17,5.97-3.26-20.06-6.43-3.28-9.17-3.77-5.59,4.78-10.91-6.79-16.23-12.61-5.33-1.83-10.67,2.22-16.32-12.94-6.38-19.95-13.25-1.72-20.48-13.2-7.23-3.88-14.81-2.45-22.62-10.26-7.81-1.36-15.84-4.94-23.96-13.02-8.12,4.33-16.33-14.11-24.49-5.33-8.16-1.53-16.27.58-24.2-.04-3.97,1.99-7.89,10.88-11.74,2.54-3.86,1.44-7.65-16.15-11.37-14.38-5.99-9.35-12.29-18.31-18.73-3.44-6.44,1.43-13.03,2.9-19.64-3.11-13.2-7.57-26.42-26.62-38.51.99-.21-5.31-2.15,36.66-12.97,22.03-3.58,4.8-7.11-23.17-10.58-1.19-6.9-10.62-13.85-6.75-20.86-4.63-7.02-6.45-14.09,19.31-21.22-2.73-7.8-4.6-15.44,16.49-23.06-.94-7.62-34.73-15.23,33.67-22.98.2-10.08,5.03-20.16-17.39-30.23.03-5.04,10.62-10.08,12.46-15.12,10.7-5.04-1.76-10.08-7.1-15.12-10.85-7.6,13.03-13.2,22.91-18.31.93-5.11,25.93-9.73,9.22-15.38,2.63-7.54,5.6-16.55,7.65-25.45,1.27-4.45,4.94-8.88,6.05-13.08,9.11-4.21-1.89-8.19-.33-11.76-10.06-4.68-9.55-9.36-11.32-14.03-8.69-4.67,6.2-9.35,7.98-14.03,9.58-4.67,23.8-9.34,9.68-14.01-5.45-4.67,9.1-9.34-8.74-14.01,5.77-4.67-7.7-9.34-19.92-14-19.6-4.67,6.88-9.33-12.6-13.99,2.24-4.67-7.91-9.33,8.68-13.99,12.33-4.66-5.04-9.32,5.12-13.98,8.24-4.66-.12-9.32,6.11-13.98,6.72-4.66,4.61-9.32,3.26-13.97-9.57-4.66-7.06-9.32-14.27-13.97-4.62-4.66,2.66-9.31,6.25-13.97,11.89-9.31-13.88-18.62,15.1-27.93-1.66-9.31,3.97-18.62-.37-27.93,6.47-9.31-9.09-18.63,16.04-27.94,3.44-4.66,8.88-9.32,7.54-13.98,7.41-4.66-2.69-9.32,2.1-13.98-6.47-5.78,10.69-9.71,12.19-13.43,10.76-3.72-10.59-7.24-11-12.2-10.98-6.31,7.21-12.79-4.66-19.32-1.28-6.54-20.49-13.14,13.51-19.71,9.15-6.57,14.78-13.11,13.13-19.52,15.63-6.41-1.96-12.69,2.78-18.74-3.24-5.41,12.03-8.41,27.82-11,16.8-2.59,2.87-4.78-13.42-8.56-17.35-5.73,7.11-11.23-5.2-16.61-2.9-5.38-1.69-10.65-9.01-15.92-19.58-5.28-17.31-10.56-11.85-15.98-19.68-5.42-6.37-10.97,6.91-16.79-3.12-6.82-13.53-13.61-11.29-20.43,3.32-3.41-3.34-6.82-10.24-10.24-14.9-3.42,2.62-6.85-4.68-10.3,2.53-6.9,8.61-13.85,1.17-20.92,10.88-3.53-1.15-7.09-8.68-10.69-13.55-3.59-9.9-7.22-1.26-10.88,2.42-9.59,6.51-4.59-21.61-14.59-14.47-3.75-12.22-5.62,6.61-7.5,4.17-1.87,21.33-3.75,19.33-7.5,18.33-5.42,6.52-10.62,4.55-15.66-1.95-5.04-2.02-9.89,7.19-14.62,6.48-4.72,2.22-9.31,13.87-13.78,13.08-4.48-14.35-8.85-4.84-13.16,8.68-4.3,9-8.54,5.97-12.74,10.6-4.2,25.06-8.37-3.31-12.53,10.61-2.5-11.38-5-23.61-7.5-20-5,22.84-7.5,13.96-5,12.5-5-4.12-10.47-16.09-16.1-8.74-5.62,1.06-11.4,2.12-17.03-4.08-5.62,1.3-11.1.83-16.1,1.21-5-9.07-9.53,4.72-13.28,14.1-3.75,3.8-9.37,17.78-15.31-.31-5.94-2.99-12.19-13.04-17.19-17.19-5,18.79-15,7.5-23.49.44-4.76-3.85-9.27-8.51-14.54-14.08-7.02-19.05-14.02-9.68-21.03-15.39-7-2.46-14.01-12.29-21.04,1.55-7.03-8.42-14.08-9.39-21.17-9.02-7.09-10.24-14.22,18.28-21.4-.76-7.18,12.06-14.43-6.46-21.75-.57-7.32-.76-14.71,1.49-22.2-4.1-7.2-9.59-14.41,2.47-21.63-.32-7.21,20.95-14.42-1.17-21.63.23-6.04,3.22-11.95-8.8-17.81-7.27-5.86-8.23-11.66-3.89-17.46,8.15-5.8,2.24-11.61-16.52-17.49-8.22-5.88,8.11-11.82,10.35-17.89,12.28-6.18-5.6-12.41-3.72-18.67.63s-12.56,9.94-18.88,8.11c-6.32,13.62-12.66,15.89-19.01,12.05-6.35,6.88-12.71,29.74-19.08-2.99-6.36-11.61-12.73,3.18-19.08,7.82-6.35,4.59-12.7-10.95-19.02-3.59-8.72-11.48-17.45.78-26.17-.53-8.72,6.22-17.45,14.14-26.17.62-8.72-6.52-17.45,12.11-26.17,5.72-4.36,9.67-8.72,11.93-13.09,7.27-4.36-6.86-8.73,1.37-13.09-13.01-8.72,24.44-17.45,6.64-26.18,12.12-8.72,3.76-17.45.29-26.17-12.2-4.36,8.56-8.73,5.1-13.09,4.72-4.36-5.42-8.72-18.64-13.09-11.1-8.72.76-17.45-11.15-26.18,6.28-8.72-3.14-17.45-11.88-26.17-2.86-8.72,5.46-17.45-3.4-26.17,2.77-8.72,9.53-17.45,2.11-26.17-.33-8.73-1.72-17.45-10.38-26.17.29-7.48-8.99-14.95-8.9-22.42-.51-7.48-7.05-14.95,3.05-22.43.55-7.48-10.82-14.95,17.3-22.42,14.03-7.48,6.28-14.95-4.87-22.43-14.06-5.34,16.54-10.69,2.31-16.02-6.43-5.34-2.59-10.67-9.68-16,7.34-5.33-.84-10.65-2.65-15.98-2.65-5.32,17.88-10.64-20.21-15.96,4.52-2.66-8.43-5.31-10.12-7.97-17.22-2.66-12.44-5.31,1.6-7.97,7.61-5.31-4.19-10.62,10.35-15.92,10.84.3,3.31.49-26.41.55-26.9.06,10.95,0,11.15-.19-4.94-.38,14.69-1.28-2.66-2.76,19.69-1.17-7.28-4.3,9.96-8.48-15.77-4.18,18.51-9.41,14.14-14.77,11.92-5.35-5.95-10.83,10.77-15.52,6.99-4.69.56-8.58,4.27-10.75-7.34-3.29,7.9-6.5,11.79-9.64,22.03-3.14,11.25-6.22-5.05-9.24-.07-3.02-5.7-6.01-20.81-8.95-2.19-2.95,7.66-5.86-15.36-8.76-20.69-5.8,10.15-11.54-5.4-17.36,4.27-5.82-7.92-11.72,2.67-17.84,2.47-2.12-18.79-3.59-13.43-5.1-11.29-1.51,16.03-3.09,13.79-5.45,13.18-5.74-18.67-11.47,14.48-17.18-4.23-2.32,8.57-4.65,14.99-6.97,12.24-2.33-4.31-4.65-2.73-6.98-17.19-4.66-14.48-9.32,11.76-14,1.41-4.67,3.06-9.35-5.43-14.04,11.12-4.69-2.45-9.38-8.32-14.08-12.44-6.25-10.44-12.35-16.11-18.34-2.19-5.99,5.42-11.86,1.62-17.64,2.26-6.29,5.81-13.81-2.1-20.07-.01-3.13-16.13-5.94-10.75-8.14-12.64-2.19,3.13-3.75-.38-4.38,19.07,0-23.36-2.5-12.15-7.5-10-8.75,12.36-15.62,20-23.12,16.88-3.75,14.4-7.66,8.05-12.03,10.67-4.38,9.48-9.22-11.56-14.84-5.04-2.5-6.88-2.5,18.58-2.5,12.5-2.5-8.85-2.5-3.55-2.5-10-6.25-1.92-9.38-4.8-12.19,20.31-2.81,17.27-5.31,28.9-10.31,22.19-.62,8.5-1.72-17.87-3.44-21.46-1.72-9.29-4.06-15.06-7.19-10.41-3.12-4.61-7.03-19.54-11.88-10.16-4.85-15-10.62-16.1-17.5-10.46-5-36.78-10-8.16-12.5-20,0,11.95-2.5.65-2.5,5-2.5-15.1-2.5-20.36-5-10-5-1.92-8.75-18.62-12.81,9.38-4.06-6.18-8.44,9.91-14.69,5.62-7.5,3.32-10-23.9-12.5-25,0,11.31,2.5,14.74-2.5,5-2.5,8.99-5-7.72-5-5-10,8.69-5,12.6-10,25-5,1.81-2.5-12.29-3.71-5.72-3.75,14.84-7.58-1.85-11.41-6.36-3.84,9.93-7.7-25.81-11.59-11.98-3.89,19.31-7.79-6.43-11.71,5.48-3.92-4.78-7.85-11.98-11.8-13.99-3.94-.45-7.88,2.88-11.82,8.66-7.88-13.11-15.74-15-23.51-17.87-3.89,4.86-7.75,11.32-11.58,13.54-3.83-.79-7.63,7.78-11.4.1-3.22-10.31-5.67-22.5-8.04-14.19-2.37,2.77-4.66,6.76-7.58,17.7-6.57,11.97-13.19,3.43-19.84,3.51-6.66-8.28-13.36-9.18-20.1,1.86-5.45-7.77-10.9-22.39-16.34-15.18-5.45,1.55-10.9,22.58-16.34,19.18-5.45-17.65-10.89-.77-16.34-8.02-5.45,12.36-10.89,13.62-16.34,12.04-5.45,15.37-10.9,19.39-16.34,9.09-5.45,1.65-10.9-19.01-16.34-5.06-8.43,8.61-16.38-13.62-24.27,1.5-3.95.11-7.88-11.68-11.85,9.32-3.98-5.11-7.99-8.37-12.1-9.16-3.83,11.27-7.63,20.18-11.4,22.43-3.77,13.02-7.52-7.54-11.25-7.83-7.46-2.87-14.85-13.93-22.24-14.43-7.38-21.25-14.75,10.32-22.17-1.4-7.42,20.58-14.89,24.51-22.47,6.44-7.74-1.94-15.48-.32-23.2,10.75-7.72,3.18-15.43,4.54-23.12-.09-15.39-19.65-30.73,15.23-46,12.86-15.27-1.05-30.49,19.99-45.63,14.24-15.14,7.1-30.21,21.71-45.19,14.8Z"/>
  </g>
  <g class="cls-3">
    <path class="cls-4" d="M-26.21,89.93l-41.52-1056.6,3214.85-13.33V121.04c-13.57,1.1-27.22,11.65-40.91,3.07-13.69,21.67-27.42,1.9-41.13,4.88-13.72,35.66-27.42-5.77-41.06,5.68-13.64,9.21-27.22-1.06-40.68,5.48-5.84-12.86-12.33-7.12-19.19-14.27-6.85,2.59-14.07,21.24-21.33,21.22-7.27.7-14.6,14.5-21.7-.77-7.09-6.46-13.95,8.6-20.27,6.25-8.27-1.19-16.85-10.99-25.19-.42-3.03-7.84-6.12-5.31-9.26,1.31-3.14,10.51-6.32,15.82-9.53,17.98-3.21-16.71-6.44-19.66-9.68-22.67-3.24-2.24-6.49,8.06-9.73,4.6-14.35-7.26-9.35,17.74-14.35,10.24-12.5-12.5-30-12.5-30-32.5-3.75,2.5-8.12,8.75-12.5,12.19s-8.75,4.06-12.51-4.69c0,2.51,0,7.51-2.49,5.01-7.5-10-25,0-37.5,2.5-2.5,0-5-5-7.5-7.5-5,12.5-17.52-4.99-22.57-2.48.07,4.98.07,12.48.07,17.48-9.38-16.88-28.6-26.72-47.11-23.2-6.17,1.17-12.26,3.82-17.89,8.15-15-12.44-22.5-12.44-32.5,5.06-2.5-5-2.5-10-7.5-12.5s-12.5,2.5-10,10c-10-5-10-15-12.5-25v12.5c-12.5-42.5-60-32.5-95-25-5,0-7.5-2.5-7.5-7.5,0,2.5-2.5,2.5-2.5,5l-7.5-22.5c-2.5,5-2.5,12.5-5,17.5,0-2.5-2.5-7.5-2.5-7.5-17.5-2.5,0,20-12.5,20-10,0-2.5-12.5-7.5-15-7.5,15-22.5,27.5-39.41,17.58-6.13-1.8-11.99-3.52-17.77-4.45-11.56-1.88-22.81-.62-35.31,9.38-5-7.5-15,5-17.5-5-5,2.5-5,10-7.5,10-12.5,2.5-7.5-25-22.5-20-2.5,0-7.5,7.5-5,15-12.5-12.5-30-2.5-37.5,10,0-5-2.5-12.5-5-15-12.5-2.5-17.5,17.5-29.66,14.34-7.89-7.77-15.66,15.76-23.39.44-3.86-1.96-7.71,7.88-11.56,10.52-3.84,14.03-7.68-3.1-11.51-14.52-3.84-1.63-7.67-11.24-11.51-5.99-3.84,9.72-7.69,4.12-11.55,12.95-3.86-18.87-7.74-8.56-11.63,4.76-3.89.79-7.81,17.56-11.74-12.47-2.26,5.26-4.54-8.66-6.85-18.17-2.31-8.87-4.64-9.86-6.98,3.99-4.67,14.17-9.36,9.43-13.96,8.62-4.59-11.04-9.09-30.5-13.36-15.98-2.14-13.96-4.22-4.97-6.23-15.68-2.01-13.72-3.95,30.26-5.81,19.11-2.88-19.94-5.63,3.15-8.51-6.9-2.88,12.52-5.88,16-9.27-6.41-4.92,24.55-11.32-15.2-17.77-.89-3.22,32.13-6.46-1.95-9.52,16.85-3.06-8.75-5.95,4.31-8.5-15.75-4.32,12.31-8.65,1.99-12.98,6.12-4.33-7.35-8.66-30.09-12.97-6.23-6.42,26.85-12.78-2.71-19.14,1.4-3.18-4.03-6.35,22.81-9.54,18.69-3.18-18.16-6.37-1.77-9.57-16.53-.58,5.01-15.94,5-19.48.41-7.48.45-13.85,40.59-20.36,8.09-3.25,3.9-6.54-3.99-10.01,11.3-3.47,5.58-7.13,5.32-11.13-5.33-5.6,1.42-11.2.01-16.8-6.46-5.6,8.03-11.2-2.23-16.8,5.83-5.6-15.28-11.2,6.35-16.79-.77-5.59,3.43-11.17-6.11-16.74-2.76-5.57-6.37-11.13,3.91-16.68,2.69-5.54,10.94-11.07,2.99-16.58-7.61-4.61-19.16-9.48-9.06-14.46,1.57-2.49,9.08-5.01,7.34-7.54,11.36-2.53,4.64-5.08,3.67-7.62-17.02-5.08,20.52-10.14,3.19-15.04-6.86-4.9-11.64-9.64-2.73-14.09-.2-3.13,5.48-5.81-3.24-8.29-18.26-1.24-12.89-2.42-13.19-3.58-8.35-1.16-9.2-2.3-4.2-3.45,21.45-2.29,5.35-4.6,15.42-7.17,13.47-2.57-13.29-5.4,7.98-8.72-14.9-2.92-11.22-5.67-23.7-8.31-14.58-2.64-6.27-5.19,5.8-7.72,14.89-2.53,14.78-5.04,5.55-7.62,12.17-2.58-12.31-5.22-20.51-8.01-8.5-4.38,9.89-9.04-.54-13.77.92-4.73,3.77-9.53,2.5-14.2,12.33-4.12-28.34-7.37-.2-11.48.42-3.95,4.48-7.47-10.62-10.98-7.98-3.51,8.34-7.01,6.72-10.92,13.79-4.36-4.35-8.78-5.99-13.19-1.17-4.41,5.26-8.81,2.26-13.14,5.47-3.82,3.97-7.7-6.51-11.55-5.65-1.92-5.14-3.84-15.3-5.74-11.57-1.9,5.5-3.78,3.52-5.62,21.47-6.25-4.02-12.04,7.58-17.7,9.4-5.66,7.6-11.19-2.6-16.95,11.02-3.78,14-7.35,4.82-10.97-1.25-3.62,3.88-7.29-9.06-11.29,7.57-6.96,19.07-13.76,6.64-20.45,5.87-6.69-3.08-13.28,9.66-19.81-2.81-6.53,11.84-13-1.49-19.46,4.85-6.46-.56-12.9-4.06-19.39-8.74-6.48,5.47-13,3.45-19.61-6.41-6.6,6.41-13.29,7.71-20.11-2.85-5.27,4.57-11.33,15.52-17.3-6.24-5.97,4.43-11.86,2.3-16.8-5.86-8.11-4.24-17.21,17.82-25.69-1.01-4.86,22.26-8.7,15.95-12.46,15.67-3.75,4.71-7.42-3.26-11.94-19.7-3.7-2.53-6.62,20.96-9.54,13.71-2.92-2.75-5.83,5.09-9.51-18.35-5.13-22.18-9.03,6.49-14.32-10.32-2.43,10.47-4.84-5.92-7.23,11.76-1.2,19.37-2.4,9.52-3.59-6.59-1.19-19.77-2.39-14.84-3.59-13.66-2.39-4.62-4.79-11.02-7.2-17.99-1.21-19.05-2.42-2.04-3.64,7.07-1.22,7.68-2.44,18.29-3.67,2.68-5.19-6.76-9.91-5.83-14.42-10.74-4.51-8.7-8.81-5.1-13.17-.62-4.36-11.92-8.79-6.35-13.55.72-4.76-17.71-9.86,13.85-15.56,1.93-4.3-2.85-8.64-13-12.9-5.2-4.26-5.27-8.45,44.2-12.45,15.06-4.26,1.22-8.94,14.48-13.45,7.01-2.62,14.27-4.95,11.3-7.27,16.57-2.32,8.05-4.64,17.31-7.25-15.91-7.66,11.84-9.78,21.01-16.15,9.24-2.86,13.41-5.96,15.43-9.17,19.65-3.21-.52-6.52-8.75-9.82-15.76-4.82-2.06-9.45,6.28-14.15,8.7-4.69-6.06-9.45,21.53-14.53,7.85-4.51,4.3-9.19,20.76-13.95,10.82-4.75,7.69-9.58,15.45-14.36-9.16-3.92-1.55-9.8-16.08-13.56.23-2.01-13.33-3.11-6.92-4.22-1-1.1,5.92-2.2,11.36-4.21-3.9-1.6-1.81-3.42,25.49-5.26,15.09-1.84,3.27-3.69-12.82-5.35-14.68-4.55-17-9.13-14.27-13.7-13.75-4.57,1.19-9.12-1.41-13.62,10.12-3.87,1.45-7.77,14.32-11.68,20.27-1.96,13.43-3.92,2.5-5.88,1.23-1.96-5.19-3.93-19.71-5.89-21.84-3.92-7.93-7.84,4.28-11.73,11.53-3.89,12.2-7.76,9.02-11.58-12.09-3.85-10.11-7.14-10.05-10.41-14.51-3.27-4.47-6.54-5.14-10.33,8.23-8.04-1.4-16.85,5.08-24.37-4.77-5.33-18.23-7.69,5.59-13.66-7.79-6.28,4.06-11.76-5.1-17.97-9.13-8.96,2.44-18.04-20.05-27.42-13.49-4.69-4.93-9.45.06-14.31-5.86-4.86,15.02-9.81-2.4-14.87-1.62-8,4.76-16.47.11-24.85,2.61-8.39-10.4-16.69-21.97-24.35,6.14-3.86-12.43-7.55-21.75-11.16-5.65-3.61,49.9-7.15,7.52-10.72,13.98-1.78,17.71-3.57,31.19-5.38,24.86-1.81-1.77-3.63-2.44-5.49-14.03-3.71,23.6-7.55-9.95-11.6-5.61-3.65,17.49-7.32,5.84-10.99,1.99-1.84-10.3-3.67-12.48-5.5-16.88-1.83-25.37-3.66-.46-5.49,14.7-10.58,11.32-12.61,8.7-22.15,9.06-3.6,9.61-7.26,10.45-10.94-1.69-3.69,12.95-7.41-22.21-11.14,2.36-2.99-5.08-5.85,1.45-8.69-14.06-2.85,8.83-5.69,16.05-8.66,21.43-2.44,17.86-4.81,47.9-7.12,14.94-2.32,4.13-4.58-21.93-6.83-15.79-2.25,26.94-4.49,4.59-6.74,19.14-2.26,10.84-4.53-8.55-6.86-14.31-4.07-6.82-6.45,16.23-9.09,13.55-2.65,5.41-5.56,7.24-10.68-7.89-8.7-6.82-12.77,27.03-20,4.44-2.65,1.9-5.56,20.13-8.66,23.33-3.11,26.17-6.41,19.82-9.85-5.21-3.44-2.08-7.02,10.63-10.66-1.82-3.65,9.78-7.37,25.52-11.1-10.45-3.73-10.08-7.47-24.65-11.16-15.99-3.69-9.16-7.33,3.97-10.85,4.22-7.05,15.55-13.62,16.1-19.24,6.92-4.1-13-8.05-6.51-11.92-9.92-3.87-17.88-7.65,12.35-11.42,8.15-7.53-3.87-15,12.55-22.9-3.67-4.7-1.53-9.54,2.35-14.4,2.45-4.86-1.66-9.72-5.44-14.47-10.33-4.72-30-9.63-.94-14.64-12.09-5.01,10.56-10.13,2-15.26,10.17-5.13,21.09-10.27,10.38-15.34,9.94-2.53-6.73-5.05-6.98-7.54-16.86-2.48,5.68-4.94,18.32-7.36,7.84-2.03,2.47-4.08,1.98-6.14-11.69-2.07.29-4.15-3.81-6.25,17.87-4.19,15.98-8.42,12.02-12.65-6.97-8.46.03-16.9-3.89-24.95.68-3.8-20.2-5.36-2.98-6.68-11.97-.67-25.51-1.27-10.08-2.08-5.27-.81,9.66-1.8,8.41-3.25,23-3.13,21.37-7.57-8.68-10.22,3.12-4.7-17.7-7.88-3.69-13.01,9.21-1.67-15.92-3.46-16.56-5.36-5.69-1.89,15.29-3.88,14.5-5.94,17.22-4.11-23.26-8.5-15.59-12.92-10.07-4.41,4.83-8.85-3.09-13.08-.8-4.23,10.46-8.25,13.81-11.81-.87-3.18-4.31-6.38-23.63-9.57-8.17-3.2,35.31-6.39,21.24-9.59-6.59-3.2,9.4-6.4,4.57-9.6,18.19-3.2,8.43-6.4,2.23-9.6-3.05-6.4-4.4-12.8-17.49-19.19-8.23-3.19,22.83-6.39,13.82-9.58,21.4-3.19-8.05-6.38-20.83-9.56-13.56-4.26-40.64-7.53,30.31-10.73-18.51-3.19,38.31-6.31-23.63-10.26,14.06-4.73-3.8-8.56,3.06-12.37-12.75-3.81,7-7.59-3.55-12.22,3.72-5.54-14.32-7.32-19.19-12.28-3.06-2.64-22.25-4.56-1.78-7.44-5.66-2.95,17.66-6.4,9.27-9.9,3.35s-7.05-14.47-10.17-12.4c-4.54-25.49-9.4-5.43-14.42-.88-5.02,3.8-10.22,4.15-15.43-.53-10.42.54-20.92,1.57-30.31,1.57Z"/>
    <path class="cls-5" d="M3207.83,26.84l-34.03-734.17L-89.95-769.56V40.17c6.13-8.19,13.72-12.86,20.35-20.71,5.38-17.71,9.93-10.31,15.58-18.07,5.65-8.34,12.4,7.25,22.17-5.97,3.26,20.06,6.44,3.28,9.17,3.77,5.59-4.78,10.91,6.79,16.23,12.61,5.33,1.83,10.67-2.22,16.32,12.94,6.38,19.95,13.25,1.72,20.48,13.2,7.23,3.88,14.81,2.45,22.62,10.26,7.81,1.36,15.84,4.94,23.96,13.02,8.12-4.33,16.33,14.11,24.49,5.33,8.16,1.53,16.27-.58,24.2.04,3.97-1.99,7.89-10.88,11.74-2.54,3.86-1.44,7.65,16.15,11.37,14.38,5.99,9.35,12.29,18.31,18.73,3.44,6.44-1.43,13.03-2.9,19.63,3.11,13.2,7.57,26.42,26.62,38.51-.99.21,5.31,2.15-36.66,12.97-22.03,3.58-4.8,7.11,23.17,10.58,1.19,6.9,10.62,13.85,6.75,20.86,4.63,7.02,6.45,14.09-19.31,21.22,2.73,7.8,4.6,15.44-16.49,23.06.94,7.62,34.73,15.23-33.67,22.98-.2,10.08-5.03,20.16,17.39,30.23-.03,5.04-10.62,10.08-12.46,15.12-10.7,5.04,1.76,10.08,7.1,15.12,10.85,7.6-13.03,13.2-22.91,18.31-.93,5.11-25.93,9.73-9.22,15.38-2.63,7.54-5.6,16.55-7.65,25.45-1.27,4.45-4.94,8.88-6.05,13.08-9.11,4.21,1.89,8.19.33,11.76,10.06,4.68,9.55,9.36,11.32,14.03,8.69,4.67-6.2,9.35-7.98,14.03-9.58,4.67-23.8,9.34-9.68,14.01,5.45,4.67-9.1,9.34,8.74,14.01-5.77,4.67,7.7,9.33,19.92,14,19.6,4.67-6.88,9.33,12.6,13.99-2.24,4.67,7.91,9.33-8.68,13.99-12.33,4.66,5.04,9.32-5.12,13.98-8.24,4.66.12,9.32-6.11,13.98-6.72,4.66-4.61,9.31-3.26,13.97,9.57,4.66,7.06,9.31,14.27,13.97,4.62,4.66-2.66,9.31-6.25,13.97-11.89,9.31,13.88,18.62-15.1,27.93,1.66,9.31-3.97,18.62.37,27.94-6.47,9.31,9.09,18.63-16.04,27.94-3.44,4.66-8.88,9.32-7.54,13.98-7.41,4.66,2.69,9.32-2.1,13.98,6.47,5.78-10.69,9.71-12.19,13.43-10.76,3.72,10.59,7.24,11,12.2,10.98,6.31-7.21,12.79,4.66,19.32,1.28,6.54,20.49,13.14-13.51,19.71-9.15,6.57-14.78,13.11-13.13,19.51-15.63,6.41,1.96,12.69-2.78,18.74,3.24,5.41-12.03,8.41-27.82,11-16.8,2.59-2.87,4.78,13.42,8.56,17.35,5.73-7.11,11.23,5.2,16.61,2.9,5.38,1.69,10.65,9.01,15.92,19.58,5.28,17.31,10.56,11.85,15.98,19.68,5.42,6.37,10.97-6.91,16.79,3.12,6.82,13.53,13.61,11.29,20.42-3.32,3.41,3.34,6.82,10.24,10.24,14.9,3.42-2.62,6.85,4.68,10.3-2.53,6.9-8.61,13.85-1.17,20.92-10.88,3.53,1.15,7.09,8.68,10.69,13.55,3.59,9.9,7.22,1.26,10.88-2.42,9.59-6.51,4.59,21.61,14.59,14.47,3.75,12.22,5.62-6.61,7.5-4.17,1.87-21.33,3.75-19.33,7.5-18.33,5.42-6.52,10.62-4.55,15.66,1.95,5.04,2.02,9.89-7.19,14.62-6.48,4.72-2.22,9.31-13.87,13.78-13.08,4.48,14.35,8.85,4.84,13.16-8.68,4.3-9,8.54-5.97,12.74-10.6,4.2-25.06,8.37,3.31,12.53-10.61,2.5,11.38,5,23.61,7.5,20,5-22.84,7.5-13.96,5-12.5,5,4.12,10.47,16.09,16.1,8.74,5.62-1.06,11.4-2.12,17.03,4.08,5.62-1.3,11.1-.83,16.1-1.21,5,9.07,9.53-4.72,13.28-14.1,3.75-3.8,9.37-17.78,15.31.31,5.94,2.99,12.19,13.04,17.19,17.19,5-18.79,15-7.5,23.49-.44,4.76,3.85,9.27,8.51,14.54,14.08,7.02,19.05,14.02,9.68,21.03,15.39,7,2.46,14.01,12.29,21.04-1.55,7.03,8.42,14.08,9.39,21.17,9.02,7.09,10.24,14.22-18.28,21.4.76,7.18-12.06,14.43,6.46,21.75.57,7.32.76,14.71-1.49,22.2,4.1,7.2,9.59,14.41-2.47,21.63.32,7.21-20.95,14.42,1.17,21.63-.23,6.04-3.22,11.95,8.8,17.81,7.27,5.86,8.23,11.66,3.89,17.46-8.15,5.8-2.24,11.61,16.52,17.49,8.22,5.88-8.11,11.82-10.35,17.89-12.28,6.18,5.6,12.41,3.72,18.67-.63s12.56-9.94,18.88-8.11c6.32-13.62,12.66-15.89,19.01-12.05,6.35-6.88,12.71-29.74,19.08,2.99,6.36,11.61,12.73-3.18,19.08-7.82,6.35-4.59,12.7,10.95,19.02,3.59,8.72,11.48,17.45-.78,26.17.53,8.72-6.22,17.45-14.14,26.17-.62,8.72,6.52,17.45-12.11,26.17-5.72,4.36-9.67,8.72-11.93,13.09-7.27,4.36,6.86,8.73-1.37,13.09,13.01,8.72-24.44,17.45-6.64,26.18-12.12,8.72-3.76,17.45-.29,26.17,12.2,4.36-8.56,8.73-5.1,13.09-4.72,4.36,5.42,8.72,18.64,13.09,11.1,8.72-.76,17.45,11.15,26.18-6.28,8.72,3.14,17.45,11.88,26.17,2.86,8.72-5.46,17.45,3.4,26.17-2.77,8.72-9.53,17.45-2.11,26.17.33,8.73,1.72,17.45,10.38,26.17-.29,7.48,8.99,14.95,8.9,22.42.51,7.48,7.05,14.95-3.05,22.43-.55,7.47,10.82,14.95-17.3,22.42-14.03,7.47-6.28,14.95,4.87,22.42,14.06,5.35-16.54,10.69-2.31,16.03,6.43,5.34,2.59,10.67,9.68,16-7.34,5.33.84,10.65,2.65,15.98,2.65,5.32-17.88,10.64,20.21,15.96-4.52,2.66,8.43,5.31,10.12,7.97,17.22,2.66,12.44,5.31-1.6,7.97-7.61,5.31,4.19,10.62-10.35,15.92-10.84-.3-3.31-.49,26.41-.55,26.9-.06-10.95,0-11.15.19,4.94.38-14.69,1.28,2.66,2.76-19.69,1.17,7.28,4.3-9.96,8.48,15.77,4.18-18.51,9.41-14.14,14.77-11.92,5.35,5.95,10.83-10.77,15.52-6.99,4.69-.56,8.58-4.27,10.75,7.34,3.29-7.9,6.5-11.79,9.64-22.03,3.14-11.25,6.22,5.05,9.24.07,3.03,5.7,6.01,20.81,8.95,2.19,2.95-7.66,5.86,15.36,8.76,20.69,5.8-10.15,11.54,5.4,17.36-4.27,5.82,7.92,11.72-2.67,17.84-2.47,2.12,18.79,3.58,13.43,5.1,11.29,1.51-16.03,3.09-13.79,5.45-13.18,5.74,18.67,11.47-14.48,17.18,4.23,2.32-8.57,4.65-14.99,6.97-12.24,2.33,4.31,4.65,2.73,6.98,17.19,4.66,14.48,9.32-11.76,14-1.41,4.67-3.06,9.35,5.43,14.04-11.12,4.69,2.45,9.38,8.32,14.08,12.44,6.24,10.44,12.35,16.11,18.34,2.19,5.99-5.42,11.87-1.62,17.64-2.26,6.29-5.81,13.81,2.1,20.07.01,3.13,16.13,5.94,10.75,8.14,12.64,2.19-3.13,3.75.38,4.38-19.07,0,23.36,2.5,12.15,7.5,10,8.75-12.36,15.62-20,23.12-16.88,3.75-14.4,7.66-8.05,12.03-10.67,4.38-9.48,9.22,11.56,14.84,5.04,2.5,6.88,2.5-18.58,2.5-12.5,2.5,8.85,2.5,3.55,2.5,10,6.25,1.92,9.38,4.8,12.19-20.31,2.81-17.27,5.31-28.9,10.31-22.19.62-8.5,1.72,17.87,3.44,21.46,1.72,9.29,4.06,15.06,7.19,10.41,3.12,4.61,7.03,19.54,11.88,10.16,4.85,15,10.62,16.1,17.5,10.46,5,36.78,10,8.16,12.5,20,0-11.95,2.5-.65,2.5-5,2.5,15.1,2.5,20.36,5,10,5,1.92,8.75,18.62,12.81-9.38,4.06,6.18,8.44-9.91,14.69-5.62,7.5-3.32,10,23.9,12.5,25,0-11.31-2.5-14.74,2.5-5,2.5-8.99,5,7.72,5,5,10-8.69,5-12.6,10-25,5-1.81,2.5,12.29,3.71,5.72,3.76-14.84,7.58,1.85,11.42,6.36,3.83-9.93,7.7,25.81,11.58,11.98,3.89-19.31,7.79,6.43,11.71-5.48,3.92,4.78,7.85,11.98,11.79,13.99,3.94.45,7.88-2.88,11.82-8.66,7.88,13.11,15.74,15,23.51,17.87,3.88-4.86,7.75-11.32,11.58-13.54,3.83.79,7.63-7.78,11.4-.1,3.22,10.31,5.67,22.5,8.04,14.19,2.37-2.77,4.67-6.76,7.58-17.7,6.57-11.97,13.19-3.43,19.84-3.51,6.66,8.28,13.36,9.18,20.1-1.86,5.45,7.77,10.9,22.39,16.34,15.18,5.45-1.55,10.9-22.58,16.34-19.18,5.45,17.65,10.89.77,16.34,8.02,5.45-12.36,10.9-13.62,16.35-12.04,5.45-15.37,10.9-19.39,16.34-9.09,5.45-1.65,10.9,19.01,16.34,5.06,8.44-8.61,16.38,13.62,24.27-1.5,3.95-.11,7.88,11.68,11.85-9.32,3.98,5.11,7.99,8.37,12.1,9.16,3.83-11.27,7.63-20.18,11.4-22.43,3.77-13.02,7.52,7.54,11.25,7.83,7.46,2.87,14.85,13.93,22.24,14.43,7.38,21.25,14.75-10.32,22.17,1.4,7.42-20.58,14.89-24.51,22.47-6.44,7.74,1.94,15.48.32,23.2-10.75,7.72-3.18,15.43-4.54,23.12.09,15.39,19.65,30.73-15.23,46-12.86,15.28,1.05,30.49-19.99,45.63-14.24,15.14-7.1,30.21-21.71,45.19-14.8Z"/>
  </g>
</svg>