<?xml version="1.0" encoding="UTF-8"?>
<svg id="Layer_1" data-name="Layer 1" xmlns="http://www.w3.org/2000/svg" viewBox="0 0 80.87 58.92">
  <defs>
    <style>
      .cls-1 {
        fill: #deb663;
      }

      .cls-2 {
        fill: #c9a059;
      }

      .cls-3 {
        fill: #fff;
      }
    </style>
  </defs>
  <g>
    <path class="cls-1" d="M78.71,34.23c-.08.49-.56.81-1.05.73h-.06c-1.41-.28-2.8.07-3.93.82-1.12.77-1.97,1.96-2.24,3.4-.09.48-.56.81-1.06.72l-40.48-7.76c-.48-.09-.81-.56-.72-1.07.28-1.43-.06-2.85-.83-3.97-.76-1.13-1.96-1.97-3.39-2.25l-.08-.02c-.45-.13-.73-.58-.64-1.03l2.11-11.06c.1-.49.57-.82,1.06-.72h.05c1.42.26,2.81-.07,3.93-.83,1.14-.77,1.97-1.96,2.25-3.39.09-.5.56-.81,1.05-.73l40.48,7.76c.49.1.82.57.72,1.06-.27,1.44.07,2.86.84,3.98.76,1.13,1.95,1.96,3.38,2.24l.1.02c.44.14.71.58.62,1.04l-2.11,11.06Z"/>
    <path class="cls-2" d="M34.65,7.04l40.53,7.77c.49.1.82.57.72,1.07-.27,1.44.07,2.86.84,3.99.76,1.14,1.96,1.97,3.39,2.25l.1.02c.44.14.71.58.63,1.04h0l-2.11,11.07c-.08.49-.56.81-1.06.73h-.06c-1.41-.28-2.81.07-3.93.82-1.13.77-1.97,1.97-2.24,3.41-.09.48-.56.81-1.07.72h0l-40.53-7.77c-.48-.09-.81-.56-.72-1.07.28-1.43-.06-2.85-.83-3.98-.76-1.14-1.97-1.97-3.4-2.25l-.08-.02c-.45-.13-.73-.58-.64-1.03h0l2.11-11.08c.1-.49.57-.82,1.07-.72h.05c1.42.26,2.82-.07,3.93-.83,1.14-.77,1.97-1.97,2.25-3.4.09-.5.56-.81,1.06-.73h0ZM74.01,16.44l-38.86-7.45c-.5,1.53-1.51,2.81-2.78,3.67-1.27.86-2.83,1.33-4.45,1.23l-1.79,9.39c1.54.51,2.81,1.51,3.67,2.78.87,1.28,1.33,2.83,1.23,4.44l38.86,7.45c.51-1.54,1.5-2.82,2.77-3.68,1.27-.86,2.84-1.32,4.46-1.22l1.78-9.4c-1.53-.5-2.8-1.5-3.67-2.78-.86-1.28-1.31-2.83-1.22-4.44h0Z"/>
    <path class="cls-2" d="M75.49,16.86c.06-.32-.09-.62-.36-.77-.43-.24-.97.02-1.06.49l-.54,2.86c-.06.3.08.61.36.76.43.24.97,0,1.06-.49l.54-2.84ZM69.92,38.24c-.06.31.09.62.36.77.43.24.97-.02,1.06-.5l.51-2.66c.06-.32-.09-.62-.36-.77-.43-.24-.97.02-1.06.5l-.51,2.66ZM71.1,32.09c-.05.31.09.62.37.77.43.24.96-.01,1.06-.5l.54-2.84c.06-.31-.09-.62-.36-.77-.43-.24-.97.02-1.06.5l-.55,2.85ZM72.31,25.76c-.05.31.09.62.37.77.43.24.96-.01,1.06-.49l.54-2.85c.06-.31-.08-.61-.35-.77-.43-.24-.97.01-1.06.49l-.55,2.85Z"/>
    <path class="cls-2" d="M35.29,9.08c.06-.32-.09-.62-.36-.77-.43-.24-.97.02-1.06.49l-.54,2.86c-.06.3.08.61.36.76.43.24.97,0,1.06-.49l.54-2.84ZM29.72,30.46c-.06.31.09.62.36.77.43.24.97-.02,1.06-.5l.51-2.66c.06-.32-.09-.62-.36-.77-.43-.24-.97.02-1.06.5l-.51,2.66ZM30.9,24.31c-.05.31.09.62.37.77.43.24.96-.01,1.06-.5l.54-2.84c.06-.31-.09-.62-.36-.77-.43-.24-.97.02-1.06.5l-.55,2.85ZM32.11,17.98c-.05.31.09.62.37.77.43.24.96-.01,1.06-.49l.54-2.85c.06-.31-.08-.61-.35-.77-.43-.24-.97.01-1.06.49l-.55,2.85Z"/>
    <g>
      <path class="cls-3" d="M39.7,14c-.5-.09-.82-.57-.72-1.07.09-.48.56-.81,1.07-.72l28.22,5.41c.49.1.81.58.72,1.07-.1.49-.57.82-1.07.72l-28.22-5.41Z"/>
      <path class="cls-3" d="M36.78,29.33c-.49-.1-.82-.57-.73-1.07.1-.49.57-.82,1.07-.72l28.22,5.41c.5.09.82.57.74,1.06-.1.49-.57.82-1.07.72l-28.23-5.4Z"/>
    </g>
    <g>
      <path class="cls-3" d="M51.77,23.26c.21-1.08.43-2.15.62-3.24.08-.43.25-.58.7-.48,1.69.36,1.42.08,1.16,1.64-.02.14-.05.28-.08.42-.08.34.08.4.37.32.41-.12.82-.24,1.23-.35.42-.11.41-.47.45-.78.06-.46.26-.62.73-.51,1.64.36,1.38.08,1.15,1.61-.12.79-.36,1.42-1.25,1.56-.3.05-.24.24-.1.39,1.28,1.34.41,2.8.08,4.14-.15.63-.98.02-1.5.02-.32,0-.47-.19-.4-.53.11-.52.2-1.04.3-1.56.08-.41-.42-1.5-.76-1.7-.31-.18-.82.11-.91.53-.16.76-.31,1.51-.44,2.28-.06.37-.22.53-.62.44-1.81-.38-1.5-.08-1.22-1.7.15-.84.32-1.68.48-2.52Z"/>
      <path class="cls-3" d="M45.05,22.02c.17-.9.34-1.8.52-2.7.17-.83.57-1.11,1.38-.96,1.18.22,2.36.45,3.54.68.79.16,1.06.57.93,1.35-.07.42-.16.84-.24,1.26-.02.1-.02.23-.08.29-.53.49-1.06-.04-1.59-.04-.3,0-.44-.2-.35-.5.12-.42-.07-.58-.47-.65-1.5-.26-1.22-.4-1.5.97-.13.64-.23,1.28-.38,1.92-.11.45-.03.71.48.74.2.01.4.06.6.12.43.12.59,0,.79-.44.35-.76.98-.07,1.48-.1.3-.02.56.12.47.53-.12.54-.18,1.09-.33,1.61-.15.55-.56.81-1.11.72-1.3-.23-2.6-.48-3.9-.75-.62-.13-.9-.58-.78-1.24.17-.94.36-1.88.54-2.82Z"/>
      <path class="cls-3" d="M58.47,24.62c.17-.9.34-1.8.52-2.69.17-.83.57-1.11,1.38-.96,1.06.2,2.11.42,3.17.61.41.07.54.26.45.67-.37,1.73-.07,1.45-1.68,1.18-.3-.05-.6-.11-.9-.17-.32-.07-.59-.12-.68.34-.09.48.24.48.54.54.6.12,1.2.24,1.8.35.32.06.45.22.38.55-.38,1.9-.08,1.54-1.72,1.27-.34-.06-.68-.12-1.02-.2-.29-.06-.46.02-.52.33-.07.33.04.49.37.55.62.11,1.23.25,1.86.35.4.07.55.24.46.66-.37,1.75-.08,1.46-1.67,1.19-.78-.14-1.56-.29-2.33-.45-.81-.17-1.08-.57-.93-1.4.17-.9.35-1.8.52-2.69Z"/>
      <path class="cls-3" d="M39.14,16.85c.76.15,1.51.31,2.28.43.45.07.62.24.53.73-.26,1.38-.24,1.4-1.6,1.14-.49-.1-.64.06-.73.52-.27,1.5-.59,2.99-.85,4.5-.09.51-.3.62-.79.52-1.57-.35-1.36-.08-1.09-1.59.23-1.28.47-2.56.75-3.83.1-.48-.05-.64-.51-.73-1.46-.29-1.33.03-1.05-1.61.09-.51.3-.63.79-.52.75.18,1.52.3,2.27.45Z"/>
      <path class="cls-3" d="M67.91,22.42c.8.16,1.6.32,2.4.46.34.06.47.21.42.58-.19,1.49-.18,1.5-1.68,1.24-.43-.07-.58.07-.65.47-.27,1.5-.59,2.99-.86,4.5-.09.5-.25.7-.8.58-1.57-.35-1.36-.08-1.09-1.59.23-1.26.47-2.52.74-3.77.1-.47.03-.69-.5-.79-1.46-.28-1.32.03-1.04-1.61.09-.51.31-.63.79-.51.75.18,1.52.3,2.27.45Z"/>
      <path class="cls-3" d="M44.16,21.91c-.21,1.08-.43,2.15-.62,3.23-.08.44-.27.57-.7.48-1.68-.36-1.44-.08-1.15-1.65.35-1.9.75-3.79,1.09-5.69.1-.55.31-.7.85-.57,1.5.34,1.31.08,1.04,1.57-.16.88-.34,1.76-.51,2.63Z"/>
    </g>
  </g>
  <g>
    <path class="cls-1" d="M50.18,48.41c-.21.45-.75.64-1.2.43l-.05-.03c-1.3-.61-2.73-.63-4.01-.19-1.28.46-2.4,1.4-3.03,2.72-.21.44-.75.64-1.21.42L3.48,33.99c-.44-.21-.64-.75-.42-1.21.63-1.31.66-2.77.21-4.05-.45-1.29-1.4-2.4-2.71-3.04l-.08-.04c-.4-.24-.56-.74-.36-1.16l4.85-10.16c.22-.45.76-.65,1.21-.42l.04.02c1.31.61,2.74.64,4.01.19,1.3-.45,2.4-1.4,3.04-2.71.22-.46.75-.64,1.2-.43l37.18,17.78c.45.22.65.76.42,1.21-.63,1.32-.66,2.78-.2,4.06.45,1.29,1.39,2.39,2.7,3.03l.09.04c.39.25.54.74.34,1.16l-4.85,10.16Z"/>
    <path class="cls-2" d="M14.47,10.93l37.23,17.81c.45.22.65.76.42,1.21-.63,1.32-.66,2.79-.2,4.07.45,1.29,1.39,2.4,2.71,3.03l.09.04c.39.25.54.74.34,1.16h0l-4.86,10.17c-.21.45-.75.64-1.21.44l-.05-.03c-1.3-.61-2.74-.63-4.02-.19-1.28.46-2.41,1.4-3.04,2.72-.21.44-.75.64-1.21.42h0L3.45,34c-.44-.21-.64-.75-.42-1.21.64-1.31.67-2.78.21-4.06-.45-1.29-1.4-2.41-2.71-3.04l-.08-.04c-.4-.24-.56-.75-.36-1.16H.09l4.86-10.17c.22-.45.76-.65,1.21-.42l.04.02c1.31.61,2.74.64,4.02.19,1.3-.45,2.41-1.4,3.04-2.71.22-.46.75-.64,1.21-.43h0ZM50.15,30.02L14.45,12.95c-.87,1.35-2.17,2.34-3.63,2.85-1.45.51-3.07.57-4.61.06l-4.11,8.63c1.36.89,2.34,2.17,2.85,3.63.52,1.46.57,3.07.06,4.61l35.7,17.07c.89-1.36,2.17-2.35,3.62-2.86,1.45-.51,3.08-.56,4.62-.05l4.11-8.64c-1.35-.87-2.33-2.16-2.85-3.63-.51-1.45-.55-3.07-.05-4.6h0Z"/>
    <path class="cls-2" d="M51.47,30.8c.14-.29.07-.62-.15-.84-.36-.34-.94-.23-1.15.21l-1.25,2.62c-.13.28-.08.61.16.83.36.34.94.24,1.15-.21l1.25-2.61ZM40.66,50.06c-.14.28-.07.62.15.84.36.34.94.23,1.15-.21l1.17-2.45c.14-.29.07-.62-.15-.84-.36-.34-.94-.23-1.15.21l-1.17,2.45ZM43.35,44.42c-.13.29-.07.62.16.83.36.34.93.23,1.15-.21l1.25-2.61c.14-.28.07-.62-.15-.84-.36-.34-.94-.23-1.15.21l-1.26,2.62ZM46.13,38.6c-.13.29-.07.62.16.84.36.34.93.23,1.15-.21l1.24-2.62c.14-.28.08-.61-.15-.83-.36-.34-.95-.23-1.15.21l-1.26,2.62Z"/>
    <path class="cls-2" d="M14.57,13.07c.14-.29.07-.62-.15-.84-.36-.34-.94-.23-1.15.21l-1.25,2.62c-.13.28-.08.61.16.83.36.34.94.24,1.15-.21l1.25-2.61ZM3.75,32.33c-.14.28-.07.62.15.84.36.34.94.23,1.15-.21l1.17-2.45c.14-.29.07-.62-.15-.84-.36-.34-.94-.23-1.15.21l-1.17,2.45ZM6.45,26.68c-.13.29-.07.62.16.83.36.34.93.23,1.15-.21l1.25-2.61c.14-.28.07-.62-.15-.84-.36-.34-.94-.23-1.15.21l-1.26,2.62ZM9.23,20.87c-.13.29-.07.62.16.84.36.34.93.23,1.15-.21l1.24-2.62c.14-.28.08-.61-.15-.83-.36-.34-.95-.23-1.15.21l-1.26,2.62Z"/>
    <g>
      <path class="cls-3" d="M17.58,18.95c-.46-.22-.65-.76-.42-1.21.21-.44.75-.64,1.21-.42l25.93,12.4c.45.22.64.77.42,1.21-.22.45-.76.65-1.21.42l-25.93-12.4Z"/>
      <path class="cls-3" d="M10.86,33.03c-.45-.22-.65-.76-.43-1.22.22-.45.76-.65,1.21-.42l25.93,12.4c.46.22.65.76.44,1.22-.22.45-.76.65-1.21.42l-25.93-12.39Z"/>
    </g>
    <g>
      <path class="cls-3" d="M26.9,30.97c.48-.99.96-1.97,1.42-2.97.18-.4.39-.5.8-.29,1.54.78,1.36.44.7,1.88-.06.13-.12.26-.18.39-.16.31-.03.41.27.4.43,0,.85-.02,1.28-.02.44,0,.52-.35.63-.64.18-.43.4-.53.84-.31,1.5.77,1.31.43.7,1.85-.32.73-.71,1.28-1.61,1.19-.3-.03-.3.17-.2.36.89,1.62-.32,2.81-.97,4.02-.31.57-.95-.23-1.46-.36-.31-.08-.41-.3-.25-.61.24-.47.46-.95.69-1.43.18-.38-.02-1.56-.31-1.83-.25-.25-.82-.1-1.01.28-.35.69-.68,1.39-1.01,2.09-.16.34-.34.46-.71.27-1.65-.82-1.43-.46-.74-1.96.35-.78.74-1.54,1.11-2.31Z"/>
      <path class="cls-3" d="M20.71,28.06c.4-.83.79-1.65,1.19-2.48.37-.76.83-.93,1.58-.58,1.09.51,2.17,1.03,3.25,1.56.72.35.88.82.55,1.55-.18.39-.37.77-.55,1.16-.04.09-.08.22-.15.26-.64.33-1.01-.31-1.53-.44-.29-.08-.37-.3-.21-.57.23-.38.08-.58-.29-.75-1.38-.63-1.08-.69-1.7.56-.29.58-.55,1.18-.85,1.76-.22.41-.21.68.28.84.19.06.38.16.55.26.38.23.57.15.88-.23.53-.65.96.18,1.46.28.3.06.51.26.32.63-.25.49-.45,1-.73,1.48-.28.49-.74.65-1.26.41-1.2-.55-2.39-1.12-3.58-1.72-.57-.28-.72-.79-.44-1.39.4-.87.82-1.73,1.24-2.59Z"/>
      <path class="cls-3" d="M33.04,33.98c.4-.82.79-1.65,1.19-2.47.37-.76.83-.93,1.58-.58.97.46,1.94.94,2.92,1.39.38.18.46.38.27.76-.8,1.58-.44,1.38-1.92.71-.28-.13-.55-.26-.82-.4-.29-.15-.54-.27-.74.16-.2.44.11.53.38.66.55.27,1.09.54,1.65.79.3.14.38.32.23.63-.85,1.74-.47,1.46-1.98.79-.32-.14-.63-.29-.93-.45-.27-.14-.45-.1-.59.19-.15.31-.09.49.22.63.57.26,1.13.56,1.71.81.37.17.47.37.28.75-.8,1.6-.45,1.39-1.92.72-.72-.33-1.43-.68-2.14-1.03-.75-.37-.9-.83-.54-1.59.39-.83.79-1.65,1.19-2.47Z"/>
      <path class="cls-3" d="M16.31,21.56c.7.33,1.39.69,2.09,1,.42.18.54.39.32.84-.6,1.27-.59,1.3-1.84.69-.45-.22-.64-.1-.83.32-.64,1.38-1.33,2.75-1.97,4.13-.21.47-.45.53-.89.3-1.43-.73-1.3-.43-.65-1.81.55-1.18,1.11-2.36,1.7-3.52.22-.44.12-.63-.31-.84-1.34-.65-1.29-.31-.6-1.82.21-.47.45-.53.89-.3.68.36,1.39.68,2.09,1.01Z"/>
      <path class="cls-3" d="M42.72,34.25c.73.35,1.46.71,2.2,1.05.32.15.4.32.26.67-.56,1.39-.56,1.41-1.94.78-.4-.18-.58-.08-.75.29-.65,1.38-1.33,2.75-1.97,4.13-.21.46-.42.61-.92.35-1.43-.74-1.3-.43-.65-1.81.54-1.16,1.09-2.32,1.67-3.46.22-.43.2-.66-.28-.89-1.34-.64-1.29-.3-.6-1.82.21-.47.46-.53.89-.3.68.36,1.39.68,2.09,1.01Z"/>
      <path class="cls-3" d="M19.88,27.72c-.48.99-.96,1.97-1.42,2.97-.19.41-.4.48-.8.28-1.53-.78-1.37-.44-.69-1.88.82-1.75,1.68-3.47,2.49-5.23.23-.51.47-.6.97-.34,1.36.71,1.25.41.61,1.78-.38.81-.77,1.61-1.16,2.42Z"/>
    </g>
  </g>
</svg>