<?xml version="1.0" encoding="UTF-8"?>
<svg id="Layer_1" data-name="Layer 1" xmlns="http://www.w3.org/2000/svg" viewBox="0 0 80.87 58.92">
  <defs>
    <style>
      .cls-1 {
        fill: #deb663;
      }

      .cls-2 {
        fill: #c9a059;
      }

      .cls-3 {
        fill: #fff;
      }
    </style>
  </defs>
  <g>
    <path class="cls-1" d="M58.78,10.34c.32.38.26.95-.12,1.28l-.05.03c-1.11.91-1.74,2.2-1.89,3.55-.14,1.35.24,2.77,1.16,3.9.31.38.26.95-.13,1.28l-31.98,26.01c-.38.31-.95.26-1.28-.14-.91-1.13-2.22-1.79-3.58-1.92-1.36-.15-2.77.24-3.91,1.15l-.07.05c-.39.26-.91.19-1.2-.17l-7.11-8.73c-.31-.39-.26-.96.13-1.28l.03-.03c1.11-.92,1.75-2.2,1.89-3.54.15-1.37-.24-2.77-1.15-3.91-.32-.39-.26-.95.12-1.27L41.63.58c.4-.31.97-.26,1.28.13.93,1.13,2.23,1.79,3.59,1.92,1.36.15,2.76-.23,3.89-1.15l.08-.07c.39-.25.9-.17,1.19.19l7.11,8.73Z"/>
    <path class="cls-2" d="M9.62,26.59L41.64.55c.4-.31.97-.26,1.28.13.93,1.13,2.24,1.79,3.59,1.92,1.36.15,2.76-.23,3.9-1.15l.08-.07c.39-.25.9-.17,1.2.19h0l7.12,8.74c.32.38.26.95-.12,1.28l-.05.03c-1.11.91-1.74,2.2-1.89,3.55-.14,1.36.24,2.78,1.16,3.91.31.38.26.95-.13,1.28h0l-32.02,26.04c-.38.31-.95.26-1.28-.14-.91-1.14-2.22-1.79-3.58-1.92-1.36-.15-2.78.24-3.91,1.15l-.07.05c-.39.26-.91.19-1.21-.17h0l-7.12-8.74c-.31-.39-.26-.97.13-1.28l.03-.03c1.11-.92,1.75-2.21,1.89-3.55.15-1.37-.24-2.78-1.15-3.91-.32-.39-.26-.95.12-1.28h0ZM42.14,2.5L11.44,27.47c.85,1.37,1.18,2.96,1.02,4.49-.16,1.53-.8,3.02-1.92,4.19l6.04,7.41c1.38-.85,2.96-1.18,4.49-1.02,1.54.16,3.02.8,4.19,1.92l30.7-24.96c-.85-1.38-1.2-2.96-1.03-4.49.16-1.53.81-3.02,1.93-4.2l-6.06-7.41c-1.37.85-2.95,1.18-4.49,1.02-1.53-.16-3.01-.81-4.18-1.92h0Z"/>
    <path class="cls-2" d="M43.41,1.64c-.21-.25-.53-.33-.83-.22-.46.18-.61.75-.31,1.13l1.84,2.25c.19.24.52.33.81.21.46-.18.62-.74.31-1.13l-1.83-2.24ZM56.2,19.65c.2.25.53.33.83.22.46-.18.61-.75.3-1.13l-1.71-2.11c-.21-.25-.53-.33-.83-.22-.46.18-.61.75-.3,1.13l1.71,2.11ZM52.24,14.8c.2.24.53.33.82.21.46-.18.61-.74.3-1.13l-1.83-2.24c-.2-.25-.53-.33-.83-.22-.46.18-.61.75-.3,1.13l1.83,2.25ZM48.17,9.8c.2.24.53.33.82.21.46-.18.61-.74.31-1.13l-1.84-2.24c-.2-.25-.52-.33-.82-.22-.46.18-.62.75-.31,1.13l1.83,2.25Z"/>
    <path class="cls-2" d="M11.6,27.41c-.21-.25-.53-.33-.83-.22-.46.18-.61.75-.31,1.13l1.84,2.25c.19.24.52.33.81.21.46-.18.62-.74.31-1.13l-1.83-2.24ZM24.38,45.43c.2.25.53.33.83.22.46-.18.61-.75.3-1.13l-1.71-2.11c-.21-.25-.53-.33-.83-.22-.46.18-.61.75-.3,1.13l1.71,2.11ZM20.43,40.58c.2.24.53.33.82.21.46-.18.61-.74.3-1.13l-1.83-2.24c-.2-.25-.53-.33-.83-.22-.46.18-.61.75-.3,1.13l1.83,2.25ZM16.36,35.58c.2.24.53.33.82.21.46-.18.61-.74.31-1.13l-1.84-2.24c-.2-.25-.52-.33-.82-.22-.46.18-.62.75-.31,1.13l1.83,2.25Z"/>
    <g>
      <path class="cls-3" d="M18.2,27.2c-.39.32-.97.26-1.28-.14-.31-.38-.26-.95.13-1.28L39.35,7.66c.39-.31.97-.25,1.28.14.31.39.26.97-.13,1.28l-22.29,18.13Z"/>
      <path class="cls-3" d="M28.06,39.3c-.4.31-.97.26-1.29-.13-.31-.39-.26-.97.13-1.28l22.29-18.13c.39-.32.97-.26,1.29.12.31.39.26.97-.14,1.28l-22.29,18.14Z"/>
    </g>
    <g>
      <path class="cls-3" d="M33.05,23.92c-.69-.85-1.37-1.72-2.08-2.56-.28-.34-.28-.57.08-.85,1.36-1.06.98-1.04,2,.17.09.11.18.22.27.33.21.27.36.2.48-.07.17-.39.34-.78.53-1.17.19-.39-.1-.62-.31-.85-.31-.35-.31-.59.08-.89,1.33-1.03.95-1,1.97.16.53.6.85,1.19.39,1.97-.15.26.03.34.24.33,1.85-.11,2.4,1.49,3.22,2.6.38.52-.62.76-.95,1.16-.2.24-.44.24-.66-.04-.33-.42-.66-.82-1-1.23-.27-.32-1.42-.65-1.79-.51-.33.12-.44.7-.18,1.04.48.61.96,1.21,1.46,1.8.24.29.26.51-.06.76-1.45,1.14-1.02,1.09-2.09-.16-.55-.65-1.08-1.33-1.62-1.99Z"/>
      <path class="cls-3" d="M27.78,28.27c-.58-.71-1.16-1.42-1.73-2.13-.53-.66-.49-1.15.15-1.68.93-.76,1.86-1.52,2.8-2.27.63-.5,1.12-.45,1.63.16.28.33.54.66.81,1,.06.08.17.16.17.25.03.72-.71.78-1.05,1.19-.19.23-.43.21-.61-.05-.25-.37-.49-.32-.8-.06-1.16.98-1.08.68-.22,1.77.4.51.84,1,1.22,1.52.27.37.53.48.88.11.14-.15.3-.27.47-.38.37-.25.38-.45.17-.89-.36-.75.58-.79.87-1.2.18-.24.45-.35.71-.02.34.43.71.84,1.03,1.29.32.46.27.95-.17,1.31-1.01.85-2.04,1.68-3.08,2.5-.5.39-1.02.31-1.45-.2-.61-.73-1.21-1.48-1.81-2.23Z"/>
      <path class="cls-3" d="M38.4,19.66c-.58-.71-1.16-1.42-1.73-2.13-.53-.66-.49-1.15.15-1.67.83-.69,1.68-1.35,2.51-2.04.32-.27.54-.25.8.08,1.09,1.4,1.06.99-.18,2.04-.23.2-.47.39-.71.58-.26.2-.47.38-.18.74.31.37.52.13.76-.06.48-.38.95-.76,1.42-1.15.25-.21.45-.2.67.06,1.21,1.51,1.12,1.05-.14,2.13-.26.22-.53.44-.8.65-.24.18-.28.36-.08.61.21.27.4.29.66.07.48-.41.99-.78,1.46-1.19.31-.27.54-.27.8.07,1.1,1.41,1.07,1-.17,2.04-.61.51-1.23,1.01-1.85,1.5-.65.52-1.13.46-1.67-.19-.58-.71-1.15-1.42-1.73-2.13Z"/>
      <path class="cls-3" d="M20.02,29.47c.6-.49,1.21-.96,1.8-1.46.34-.3.58-.32.89.07.89,1.08.92,1.09-.16,1.96-.39.31-.37.53-.07.89.98,1.17,1.91,2.38,2.89,3.55.33.39.28.63-.11.93-1.28.98-.94.99-1.91-.18-.83-1-1.66-2.01-2.45-3.04-.3-.39-.52-.38-.89-.08-1.16.93-.83,1.03-1.91-.23-.33-.39-.29-.64.11-.93.62-.46,1.21-.97,1.81-1.45Z"/>
      <path class="cls-3" d="M42.78,11.02c.63-.51,1.27-1.02,1.89-1.54.27-.22.46-.23.72.05,1.01,1.1,1.03,1.11-.13,2.09-.34.28-.32.49-.06.8.97,1.18,1.91,2.38,2.89,3.55.33.39.38.64-.07.98-1.28.97-.94.99-1.92-.19-.82-.99-1.63-1.98-2.42-2.99-.29-.38-.51-.47-.93-.13-1.15.93-.83,1.04-1.9-.23-.33-.39-.28-.64.11-.93.62-.46,1.21-.97,1.81-1.45Z"/>
      <path class="cls-3" d="M27.12,28.87c.69.85,1.37,1.71,2.08,2.55.29.34.26.57-.09.84-1.36,1.05-.99,1.05-2-.18-1.23-1.49-2.42-3.01-3.66-4.49-.36-.43-.34-.68.11-1.02,1.22-.93.9-.95,1.87.21.57.69,1.13,1.39,1.69,2.08Z"/>
    </g>
  </g>
  <g>
    <path class="cls-1" d="M72.36,31.99c.21.45,0,.99-.44,1.2l-.05.02c-1.3.6-2.24,1.69-2.73,2.95-.48,1.28-.48,2.74.13,4.07.2.45,0,.99-.45,1.2l-37.53,17.03c-.45.2-.99,0-1.2-.46-.6-1.33-1.7-2.29-2.97-2.77-1.27-.49-2.74-.48-4.07.12l-.08.03c-.44.15-.93-.05-1.12-.47l-4.66-10.25c-.2-.46,0-1,.45-1.2l.04-.02c1.31-.61,2.25-1.69,2.73-2.95.49-1.29.48-2.74-.12-4.07-.21-.46,0-.99.44-1.2l37.53-17.03c.46-.2,1,0,1.2.45.61,1.33,1.71,2.29,2.98,2.77,1.28.49,2.73.47,4.06-.12l.09-.04c.44-.14.91.06,1.11.48l4.66,10.25Z"/>
    <path class="cls-2" d="M20.7,35.22l37.58-17.06c.46-.2,1,0,1.2.46.61,1.33,1.71,2.3,2.99,2.77,1.28.49,2.73.48,4.06-.12l.09-.04c.44-.14.92.06,1.11.49h0l4.67,10.26c.22.45,0,.99-.44,1.2l-.05.02c-1.31.6-2.24,1.69-2.73,2.95-.48,1.28-.48,2.74.13,4.08.2.45,0,.99-.46,1.2h0l-37.58,17.06c-.45.2-.99,0-1.2-.46-.6-1.33-1.7-2.3-2.97-2.77-1.28-.49-2.74-.48-4.08.12l-.08.03c-.44.15-.93-.05-1.12-.47h0l-4.67-10.26c-.2-.46,0-1,.45-1.2l.04-.02c1.31-.61,2.26-1.69,2.73-2.95.49-1.29.48-2.75-.12-4.08-.21-.46,0-.99.44-1.2h0ZM58.26,20.18l-36.03,16.35c.47,1.54.39,3.17-.15,4.61-.54,1.44-1.54,2.72-2.92,3.57l3.96,8.7c1.55-.47,3.17-.39,4.61.15,1.45.54,2.72,1.54,3.57,2.92l36.03-16.35c-.47-1.55-.4-3.17.14-4.61.54-1.44,1.55-2.72,2.93-3.57l-3.98-8.7c-1.54.47-3.15.39-4.61-.15-1.44-.54-2.7-1.55-3.56-2.92h0Z"/>
    <path class="cls-2" d="M59.71,19.67c-.14-.29-.43-.45-.74-.42-.49.06-.78.57-.58,1.02l1.21,2.65c.13.28.42.45.73.41.49-.06.79-.56.58-1.02l-1.2-2.63ZM67.51,40.34c.13.29.43.45.74.42.49-.05.78-.57.57-1.02l-1.12-2.47c-.14-.29-.43-.45-.74-.42-.49.06-.78.57-.57,1.02l1.12,2.47ZM64.91,34.64c.14.28.43.45.74.41.49-.06.78-.56.57-1.02l-1.2-2.63c-.13-.29-.43-.45-.74-.42-.49.06-.78.57-.57,1.02l1.2,2.64ZM62.25,28.77c.14.28.43.45.74.41.49-.06.78-.56.58-1.02l-1.21-2.63c-.13-.29-.42-.45-.73-.42-.49.06-.79.57-.58,1.02l1.2,2.64Z"/>
    <path class="cls-2" d="M22.39,36.52c-.14-.29-.43-.45-.74-.42-.49.06-.78.57-.58,1.02l1.21,2.65c.13.28.42.45.73.41.49-.06.79-.56.58-1.02l-1.2-2.63ZM30.19,57.19c.13.29.43.45.74.42.49-.05.78-.57.57-1.02l-1.12-2.47c-.14-.29-.43-.45-.74-.42-.49.06-.78.57-.57,1.02l1.12,2.47ZM27.6,51.49c.14.28.43.45.74.41.49-.06.78-.56.57-1.02l-1.2-2.63c-.13-.29-.43-.45-.74-.42-.49.06-.78.57-.57,1.02l1.2,2.64ZM24.93,45.62c.14.28.43.45.74.41.49-.06.78-.56.58-1.02l-1.21-2.63c-.13-.29-.42-.45-.73-.42-.49.06-.79.57-.58,1.02l1.2,2.64Z"/>
    <g>
      <path class="cls-3" d="M28.84,37.99c-.46.21-1,0-1.2-.46-.2-.45,0-.99.45-1.2l26.17-11.88c.46-.2,1,0,1.2.46.2.46,0,1-.45,1.2l-26.17,11.88Z"/>
      <path class="cls-3" d="M35.3,52.19c-.46.2-1,0-1.21-.46-.2-.46,0-1,.45-1.2l26.17-11.88c.46-.21,1,0,1.22.44.2.46,0,1-.46,1.2l-26.17,11.89Z"/>
    </g>
    <g>
      <path class="cls-3" d="M44.03,38.59c-.45-1-.89-2.01-1.36-3-.19-.4-.13-.62.29-.8,1.59-.68,1.21-.75,1.9.67.06.13.12.26.18.39.13.32.29.28.48.05.27-.33.53-.67.81-.99.28-.33.06-.62-.08-.9-.22-.41-.15-.65.3-.84,1.55-.65,1.17-.73,1.87.65.36.71.53,1.36-.12,2-.21.21-.06.34.15.38,1.82.36,1.95,2.05,2.46,3.33.24.6-.79.58-1.21.89-.26.18-.49.12-.63-.2-.21-.49-.43-.96-.66-1.44-.18-.38-1.21-.99-1.6-.95-.35.04-.61.56-.44.96.31.71.62,1.42.95,2.11.16.34.13.56-.25.72-1.69.74-1.27.8-1.98-.69-.37-.77-.71-1.56-1.06-2.33Z"/>
      <path class="cls-3" d="M37.83,41.45c-.38-.83-.76-1.67-1.13-2.5-.34-.78-.18-1.24.57-1.58,1.09-.5,2.18-1,3.28-1.48.73-.32,1.2-.15,1.54.57.18.39.35.78.53,1.17.04.09.12.2.1.28-.16.7-.88.58-1.32.89-.25.17-.47.09-.58-.2-.15-.42-.39-.43-.76-.26-1.37.65-1.22.38-.67,1.66.26.6.55,1.18.8,1.78.17.43.39.59.82.33.17-.11.36-.19.56-.25.42-.14.48-.34.39-.82-.15-.82.76-.62,1.15-.94.23-.19.52-.23.69.16.21.51.48.99.66,1.51.19.53.02.99-.49,1.23-1.2.57-2.4,1.11-3.61,1.64-.58.25-1.07.04-1.35-.56-.41-.86-.79-1.74-1.19-2.61Z"/>
      <path class="cls-3" d="M50.29,35.82c-.38-.83-.76-1.66-1.13-2.5-.34-.78-.18-1.23.57-1.58.98-.45,1.97-.88,2.94-1.34.38-.18.59-.1.75.28.7,1.63.78,1.23-.69,1.93-.27.13-.55.26-.83.38-.3.13-.55.25-.36.67.21.44.47.26.75.13.56-.25,1.12-.49,1.67-.75.3-.14.49-.08.63.23.78,1.77.82,1.3-.67,2.03-.31.15-.63.29-.94.43-.28.12-.36.28-.24.57.14.31.32.38.62.23.57-.27,1.15-.51,1.72-.78.37-.18.59-.13.76.27.71,1.64.78,1.24-.68,1.93-.72.34-1.44.66-2.17.98-.76.33-1.21.16-1.57-.61-.38-.83-.75-1.67-1.13-2.5Z"/>
      <path class="cls-3" d="M30.02,40.64c.7-.32,1.42-.62,2.11-.96.41-.2.64-.16.85.29.59,1.27.61,1.29-.65,1.85-.46.21-.49.42-.29.84.65,1.38,1.25,2.78,1.9,4.16.22.46.11.68-.34.88-1.49.63-1.16.72-1.81-.66-.55-1.18-1.09-2.36-1.6-3.56-.19-.45-.41-.5-.84-.31-1.35.61-1.07.79-1.78-.71-.22-.46-.11-.69.34-.87.72-.29,1.41-.63,2.12-.95Z"/>
      <path class="cls-3" d="M56.72,28.58c.74-.33,1.49-.66,2.22-1.01.32-.15.5-.1.68.23.7,1.32.72,1.33-.66,1.99-.4.19-.43.39-.26.76.64,1.38,1.25,2.79,1.9,4.16.22.46.2.72-.32.93-1.49.62-1.16.72-1.81-.67-.54-1.16-1.07-2.33-1.58-3.51-.19-.44-.38-.58-.86-.36-1.35.61-1.06.79-1.78-.71-.22-.47-.11-.69.35-.87.72-.29,1.41-.63,2.12-.95Z"/>
      <path class="cls-3" d="M37.04,41.87c.45,1,.89,2.01,1.36,3,.19.41.11.62-.3.79-1.58.68-1.22.76-1.89-.68-.81-1.75-1.58-3.52-2.4-5.27-.24-.51-.15-.75.36-.96,1.42-.59,1.12-.69,1.75.68.38.81.74,1.63,1.11,2.44Z"/>
    </g>
  </g>
</svg>