<?xml version="1.0" encoding="UTF-8"?>
<svg id="Layer_1" data-name="Layer 1" xmlns="http://www.w3.org/2000/svg" xmlns:xlink="http://www.w3.org/1999/xlink" viewBox="0 0 1920 446.84">
  <defs>
    <style>
      .cls-1 {
        fill: none;
      }

      .cls-2 {
        fill: #48c1c6;
      }

      .cls-3 {
        fill: #784e9e;
      }

      .cls-4 {
        fill: #8f72b1;
      }

      .cls-5 {
        fill: #c561a4;
      }

      .cls-6 {
        fill: #4a2d7e;
      }

      .cls-7 {
        fill: #00a7a2;
      }

      .cls-8 {
        clip-path: url(#clippath);
      }
    </style>
    <clipPath id="clippath">
      <rect class="cls-1" width="1920" height="446.84"/>
    </clipPath>
  </defs>
  <g class="cls-8">
    <g>
      <path class="cls-7" d="M9.45-4.63c1.93,2.67,4.01,5.25,6.23,7.72,7.61,8.4,16.87,15.42,27.07,20.37,10.43,5.06,21.54,7.49,32.99,8.88,22.51,2.73,48.22,2,66.79,17.1,14.28,11.61,19.53,29.28,21.32,46.94,1.87,18.48.76,37.23,4.23,55.55,3.38,17.82,12.55,33.02,26.56,44.5,14.44,11.83,31.77,19.53,48.91,26.57,17.92,7.35,36.25,13.89,53.47,22.83,15.61,8.1,30.58,18.42,40.75,33.02-11.03-36.81-22.14-73.73-36.38-109.44-15.58-39.05-35.19-76.53-61.51-109.47-18.48-23.12-39.5-43.91-60.62-64.57h8.83c16.62,16.29,33.07,32.74,48.2,50.45,27.44,32.12,48.42,68.71,64.88,107.53,16.35,38.53,28.73,78.69,39.89,118.99.83,2.99,1.62,6,2.41,9.01,5.59-16.74,10.67-33.66,14.48-50.91,4.48-20.27,7.44-41.15,6.27-61.95-1.11-19.68-6.02-39.28-16.29-56.25-13.29-21.95-34.35-37.57-49.11-58.38-12.61-17.77-18.16-37.76-20.94-58.49h6.23c1.97,14.44,5.39,28.65,11.92,41.79,11.58,23.27,32.83,39.29,48.59,59.44,13.17,16.82,21.28,36.7,24.32,57.8,6.08,42.19-5.82,85.02-19.02,124.72-1.62,4.86-3.25,9.72-4.92,14.56-.81,2.34-4.11,2.04-5.02,0-15.87-35.35-56.65-48.84-89.94-62.13-33.54-13.39-72.14-29.69-84.4-66.98-5.9-17.97-5.44-37.13-6.36-55.79-.85-17.25-2.69-35.97-14.41-49.63-15.74-18.33-41.97-18.61-64.13-20.9-11.73-1.21-23.46-2.99-34.45-7.43-10.46-4.23-20.16-10.44-28.42-18.11C12.24,7.52,7.29,1.68,3.09-4.63h6.37Z"/>
      <path class="cls-7" d="M366.55,187.31c-24.11-5.23-46.8-16.44-65.76-32.18-1.64,29.76-12.87,58.69-31.8,81.76-1.66,2.02-4.9-.41-3.25-2.45,19.26-23.69,30.23-53.53,30.97-84.05.04-1.58,2.28-2.45,3.42-1.44,19.15,16.8,42.15,28.52,66.92,34.39,2.48.58,2.02,4.53-.52,3.98"/>
      <path class="cls-7" d="M304.33,59.46c-14.31.27-28.91-2.55-42.6-6.59-12.11-3.57-23.74-8.56-34.72-14.75,5.25,19.32,5.99,39.69,2.58,59.44-3.74,21.7-12.34,42.58-25.23,60.44-7.2,9.98-15.78,19.12-25.53,26.65-2.14,1.65-4.65-1.63-2.55-3.32,33.24-26.88,52.41-69.32,50.95-112.06-.4-11.84-2.32-23.66-5.88-34.96-.67-2.13,1.48-3.72,3.35-2.58,11.94,7.33,24.84,13.04,38.27,17.04,13.57,4.04,27.3,5.66,41.36,6.8,2.17.18,2.24,3.84,0,3.88"/>
      <path class="cls-7" d="M1901.79.32h-7.19c3.15,5.4,6.02,10.98,8.35,16.85,7.32,18.43,8.93,38.58,6.77,58.17-2.29,20.7-8.66,40.81-16.42,60.06-6.61,16.38-14.42,32.23-22.7,47.81-.28-3.09-.56-6.19-.89-9.28-4.34-41.58-9.91-83.24-19.66-123.94-4.04-16.85-8.94-33.44-14.77-49.67h-6.42c7.8,21.33,13.93,43.3,18.75,65.55,8.14,37.57,12.99,75.81,17.78,113.95-7.61-16.08-20.68-28.74-34.73-39.31-15.5-11.66-32.5-21.14-48.96-31.36-15.74-9.77-31.56-20.23-43.84-34.29-11.92-13.64-18.45-30.15-18.84-48.29-.19-8.8.66-17.54,1.73-26.26h-5.53c-1.57,12.75-2.65,25.56-.71,38.32,5.92,38.81,41.3,61.27,72.16,80.02,30.63,18.61,68.62,38.66,78.43,76.14.56,2.17,3.77,3.01,4.96.83,2.45-4.5,4.86-9.02,7.26-13.55,19.59-36.98,38.41-77.25,39.39-119.86.49-21.32-4.22-42.26-14.43-61.03-.16-.3-.33-.59-.5-.88"/>
      <path class="cls-7" d="M1908.91,94.3c-22.91-9.14-43.43-23.95-59.53-42.62-6.54,29.08-22.4,55.76-44.88,75.37-1.97,1.72-4.76-1.22-2.8-2.95,22.91-20.18,38.66-47.8,44.45-77.77.3-1.55,2.65-2.04,3.61-.85,16.11,19.73,36.85,35.1,60.32,44.98,2.34.99,1.25,4.8-1.17,3.84"/>
      <path class="cls-7" d="M1776.56.32c-12.24,23.5-31.07,43.5-54.32,56.62-2.35,1.33-.41,4.98,1.97,3.7,10.86-5.82,20.83-13.41,29.59-22.06,11.23-11.11,20.51-24.13,27.57-38.26h-4.81Z"/>
      <path class="cls-6" d="M492.18,9.14h10.31c11.43,10.43,22.58,21.16,33.42,32.22,3.78,3.86,7.51,7.76,11.21,11.69.39-.11.83-.13,1.32,0,12.03,3.23,23.75,8.35,34.98,13.66,5.55,2.62,11.02,5.39,16.4,8.33,5.5,2.99,11.23,6.08,16.18,9.94,1.85,1.44.45,5.14-1.96,3.96-5.46-2.68-10.68-5.96-16.02-8.89-5.48-3.01-11.05-5.86-16.71-8.53-9.07-4.27-18.37-7.82-27.67-11.46,13.19,14.33,25.89,29.12,38.04,44.35,12.13,15.2,23.68,30.85,34.69,46.88.02,0,.03,0,.04,0,12.56,2.35,24.74,7.02,36.19,12.63,11.51,5.64,22.37,12.39,31.96,20.92,1.93,1.72-.92,4.8-2.98,3.37-10.13-7.02-20.51-13.79-31.61-19.18-9.44-4.59-19.21-8.04-29.16-11.21,3.3,4.9,6.56,9.83,9.75,14.81,15.13,23.56,29.36,47.94,41.15,73.36,1.45,3.14,2.99,6.24,4.49,9.36,1.27,2.66-2.81,4.6-4.14,1.97-12.55-24.79-26.71-48.93-41.51-72.43-12.11-19.24-25.07-37.95-38.72-56.12.27,3.1.52,6.21.89,9.29.72,5.88,1.64,11.73,2.75,17.55,2.2,11.48,5.07,22.85,8.31,34.08.66,2.31-3.17,3.57-4.03,1.31-4.25-11.16-7.43-22.66-9.66-34.39-1.1-5.82-2.01-11.67-2.72-17.56-.7-5.84-1.48-11.92-1.28-17.82-1.15-1.49-2.28-2.99-3.44-4.47-17.1-21.94-35.31-43.02-54.52-63.14-9.01-9.42-18.24-18.63-27.67-27.62,1.11,4.58,2.02,9.25,3.2,13.77,1.74,6.71,3.67,13.38,5.77,19.98,2.11,6.62,4.45,13.16,6.93,19.65,2.55,6.66,5.53,13.23,7.64,20.03.84,2.7-3.13,3.49-4.39,1.42-3.71-6.1-6.34-13.01-8.88-19.67-2.47-6.47-4.74-13.01-6.85-19.6-2.11-6.6-4.03-13.27-5.74-19.99-1.74-6.83-3.93-14.07-4.39-21.13-.02-.25.02-.49.07-.73-3.84-3.58-7.73-7.12-11.64-10.63"/>
      <path class="cls-5" d="M709.48,249c-8.47-11.77-22.43-16.2-31.18-9.9-8.75,6.3-8.98,20.94-.51,32.71s22.43,16.2,31.18,9.9c8.75-6.3,8.98-20.94.51-32.71"/>
      <path class="cls-6" d="M707.99,269.97c-1.52-2.11-4.95-2.24-7.67-.29-2.72,1.96-3.69,5.25-2.17,7.36,1.52,2.11,4.95,2.24,7.67.29,2.72-1.96,3.69-5.25,2.17-7.36"/>
      <path class="cls-5" d="M633.34,197.53c-3.9-13.96-15.47-22.94-25.86-20.04s-15.64,16.57-11.75,30.53c3.9,13.96,15.47,22.94,25.86,20.04,10.38-2.9,15.64-16.57,11.75-30.53"/>
      <path class="cls-6" d="M624.72,216.71c-.7-2.51-3.88-3.81-7.1-2.91-3.22.9-5.27,3.66-4.57,6.17.7,2.51,3.88,3.81,7.1,2.91,3.22-.9,5.27-3.66,4.57-6.17"/>
      <path class="cls-5" d="M712.04,164.15c-13.1-6.22-27.46-3.37-32.08,6.37-4.63,9.74,2.24,22.67,15.33,28.89,13.1,6.22,27.46,3.37,32.09-6.37,4.63-9.74-2.24-22.67-15.34-28.89"/>
      <path class="cls-6" d="M720.85,183.24c-2.35-1.12-5.42.43-6.85,3.45-1.44,3.02-.69,6.38,1.66,7.5,2.35,1.12,5.42-.43,6.85-3.45,1.44-3.02.69-6.38-1.66-7.49"/>
      <path class="cls-5" d="M625.65,65.98c-13.1-6.22-27.46-3.37-32.08,6.37-4.63,9.74,2.24,22.67,15.33,28.89,13.1,6.22,27.46,3.37,32.09-6.37,4.63-9.74-2.24-22.67-15.34-28.89"/>
      <path class="cls-6" d="M634.46,85.07c-2.35-1.12-5.42.43-6.85,3.45-1.44,3.02-.69,6.38,1.66,7.5,2.35,1.12,5.42-.43,6.85-3.45,1.44-3.02.69-6.38-1.66-7.49"/>
      <path class="cls-5" d="M547.97,106.02c-3.9-13.96-15.47-22.94-25.86-20.04s-15.64,16.57-11.75,30.53c3.9,13.96,15.47,22.94,25.86,20.04,10.38-2.9,15.64-16.57,11.75-30.53"/>
      <path class="cls-6" d="M539.35,125.19c-.7-2.51-3.88-3.81-7.1-2.91-3.22.9-5.27,3.66-4.57,6.17.7,2.51,3.88,3.81,7.1,2.91,3.22-.9,5.27-3.66,4.57-6.17"/>
      <path class="cls-3" d="M1463.33,225.85s41.71,50.47,34.96,110.01c-6.75,59.54-58.72,105.48-58.72,105.48,0,0-80.17-123.6,23.76-215.49"/>
      <path class="cls-3" d="M1413.64,184.47s22.78,36.63-6.39,78.72c-29.16,42.09-56.95,46.56-56.95,46.56,0,0-8.18-98.16,63.33-125.29"/>
      <path class="cls-3" d="M1623.23,156.19s68.34-23.54,135.2,50.11c0,0-93.44,12.34-135.2-50.11"/>
      <path class="cls-3" d="M1508.35,14.93h-47.98c9.99,48.68,96.58,60.61,96.58,60.61-11.16-31.16-30.27-49.64-48.59-60.61"/>
      <path class="cls-3" d="M1354.17,14.93c-66.27,58.78-16.99,116.32-16.99,116.32,61.79-18.24,44.28-88.92,34.88-116.32h-17.89Z"/>
      <path class="cls-3" d="M1630.04,118.05s31.03-27.14,89.31,10.13c0,0-36.63,22.78-89.31-10.13"/>
      <path class="cls-4" d="M1362.46,14.93c-.27,1.5-.48,3.02-.77,4.51-4.68,24.19-12,47.57-20.4,70.7-1.44,3.97,5.22,6.59,6.93,2.71,10.14-22.97,17.04-47.45,21.72-72.08.37-1.94.62-3.9.96-5.84h-8.44Z"/>
      <path class="cls-4" d="M1514.54,39.36c4.19,2.17,7.45-3.9,3.5-6.37-9.95-6.23-20.08-12.19-30.26-18.05h-17.52c14.64,8.36,29.31,16.69,44.28,24.42"/>
      <path class="cls-4" d="M1678.15,172.26c-40.31-17.96-79.87-37.34-118.17-59.05,14.32,3.37,28.9,5.86,43.43,7.83,19.42,2.64,39.02,4.43,58.62,4.61,4.64.04,4.29-6.79-.19-7.1-19.35-1.33-38.63-3.01-57.83-5.78-19.1-2.76-37.92-6.67-56.8-10.61-1.74-.37-3.07.35-3.83,1.46-14.37-8.5-28.56-17.36-42.51-26.62-15.74-10.45-30.8-21.97-46.67-32.2-1.04-.67-2.11-.55-2.99-.05-5.94-8.93-11.98-17.8-18.11-26.6-.75-1.08-1.54-2.14-2.29-3.22h-11.39c23.98,34.03,46.65,68.98,67.8,104.84,22.29,37.8,42.98,76.57,61.99,116.12,18.93,39.38,36.62,79.51,52.19,120.34,1.92,5.04,3.84,10.07,5.81,15.08,1.58,4.01,7.91,2.23,6.51-1.98-13.85-41.73-30.93-82.63-49.37-122.51-18.42-39.85-38.59-78.87-60.46-116.94-14.04-24.45-28.83-48.46-44.21-72.09,10.12,7.9,20.88,15.12,31.42,22.31,14.08,9.59,28.37,18.89,42.92,27.76,28.9,17.61,58.66,33.77,89.2,48.34,17.16,8.2,34.65,15.69,52.41,22.49,3.65,1.4,6.09-4.82,2.5-6.42"/>
      <path class="cls-4" d="M1440.89,84.21s0-.02,0-.03c.19-1.22-.2-2.2-.84-2.93-2.31-8.21-4.73-16.4-7.35-24.51-4.55-14.09-9.63-28.04-15.14-41.8h-8.78c8.88,24.25,17.05,48.7,23.92,73.59-5.79,23.52-11.19,47.08-18.03,70.34-3.71,12.61-7.61,25.15-11.8,37.6-4.18,12.43-8.89,24.7-12.85,37.2-1.23,3.89,5.01,6.39,6.72,2.62,10.78-23.89,18.5-49.59,25.76-74.73,5.37-18.61,10.53-37.5,14.53-56.54.93,3.71,1.86,7.42,2.73,11.15,10.11,43.82,16.24,88.5,18.4,133.42,1.21,25.22,1.31,50.58.16,75.81-.22,4.74,6.99,4.44,7.31-.2,3.19-45.31,1.85-90.72-3.8-135.8-4.45-35.46-11.38-70.7-20.93-105.17"/>
      <path class="cls-2" d="M1037.67,122.41c-.88-2.57-1.77-5.17-2.69-7.73-3.18-8.85-6.65-17.65-10.44-26.32-13.84-31.64-29.56-61.09-46.24-88.36h-202.28c11.44,21.38,23.78,41.88,36.76,61.39,1.26,1.92,2.54,3.8,3.81,5.68,37.5,55.3,79.66,102.68,118.65,140.87,1.54,1.5,3.06,3.01,4.58,4.47,63.87,61.85,118.22,98.63,127.66,104.87.97.62,1.45.94,1.45.94,0,0,.06-3.9-.11-10.89-.67-28.32-4.94-107.54-31.15-184.92"/>
      <path class="cls-7" d="M828.55,0c-3.68,20.83-8.94,41.39-15.78,61.39,1.26,1.91,2.54,3.8,3.82,5.68,2.68-7.68,5.1-15.45,7.34-23.23,4.13-14.41,7.44-29.06,9.96-43.84h-5.34Z"/>
      <path class="cls-7" d="M1058.68,285.39c-24.61-52.86-50.9-104.96-78.75-156.2-11.34-20.85-22.98-41.54-34.84-62.09,7.93,5.46,16.07,10.62,24.17,15.74,11.53,7.26,23.17,14.29,34.95,21.09,11.03,6.37,22.19,12.53,33.46,18.48-.88-2.57-1.77-5.17-2.69-7.74-19.84-10.5-39.35-21.59-58.48-33.42-12.44-7.69-24.55-15.93-36.94-23.68-11.27-19.34-22.83-38.51-34.54-57.58h-6.09c14.07,22.83,27.84,45.84,41.25,69.06,6.58,25.99,9.04,52.95,7.04,79.69-1.5,20.08-5.55,40.05-11.99,59.19,1.54,1.51,3.06,3.01,4.58,4.47,1.66-4.86,3.15-9.76,4.5-14.66,7.77-28.13,10.61-57.8,7.95-86.84-.88-9.66-2.38-19.17-4.47-28.56,5.84,10.24,11.63,20.52,17.34,30.83,28.07,50.69,54.56,102.21,79.44,154.54,7.83,16.44,15.45,32.99,22.89,49.57.97.62,1.46.95,1.46.95,0,0,.06-3.9-.11-10.89-3.34-7.32-6.73-14.64-10.14-21.95"/>
    </g>
  </g>
</svg>