<?xml version="1.0" encoding="UTF-8"?>
<svg id="Layer_1" data-name="Layer 1" xmlns="http://www.w3.org/2000/svg" xmlns:xlink="http://www.w3.org/1999/xlink" viewBox="0 0 1920 399.13">
  <defs>
    <style>
      .cls-1 {
        fill: none;
      }

      .cls-2 {
        fill: #48c1c6;
      }

      .cls-3 {
        fill: #784e9e;
      }

      .cls-4 {
        fill: #8f72b1;
      }

      .cls-5 {
        fill: #cbb7d7;
      }

      .cls-6 {
        fill: #c561a4;
      }

      .cls-7 {
        fill: #4a2d7e;
      }

      .cls-8 {
        fill: #00a7a2;
      }

      .cls-9 {
        clip-path: url(#clippath);
      }
    </style>
    <clipPath id="clippath">
      <rect class="cls-1" width="1920" height="399.13"/>
    </clipPath>
  </defs>
  <g class="cls-9">
    <path class="cls-5" d="M3737.77-569.13V399.13H1.37v-164.33c48.61-16.56,98.01-30.18,149.06-37.72,149.31-22.06,284.25,40.49,431.05,49.04C843.17,261.35,1026.4,1.35,1290.03,24.67c143.92,12.72,275.38,91.25,421.28,90.57,125.81-.57,237.08-65.13,339.9-130.99,95.6-61.22,190.81-128.98,300.82-161.88,131.38-39.3,265.03-10.17,396.42,13.19,138.86,24.68,273.73,32.01,402.42-34.42,106.24-54.82,194.36-137.85,287.23-211.72,85.18-67.76,177.41-130.73,285.08-155.45,4.85-1.11,9.7-2.16,14.59-3.09"/>
    <g>
      <path class="cls-3" d="M1312.54,133.68c6.64,19.06,8.5,39.69,5.6,59.65,21.48-11.56,46.48-16.06,70.66-12.7,2.12.29,1.8,3.6-.32,3.31-24.76-3.33-50.28,1.75-71.91,14.25-1.12.65-2.68-.54-2.47-1.78,3.56-20.54,1.92-41.61-4.55-61.41-.65-1.98,2.3-3.35,3-1.33"/>
      <g>
        <path class="cls-3" d="M1248.27,237.95c8.23-19.19,10.14-40.56,19.8-59.21,7.46-14.41,19.05-26.21,32.32-35.39,14.02-9.69,29.87-16.54,45.93-22.07,13.66-4.7,27.65-8.38,41.73-11.62-1.76,1.83-3.52,3.67-5.26,5.52-23.37,24.99-46.13,50.78-66.05,78.64-20.07,28.06-36.67,58.33-47.38,91.2-11.37,34.87-17.38,71.15-27.08,106.47-.54,1.96-1.13,3.89-1.7,5.84h5.27c1.41-4.85,2.76-9.72,4.01-14.63,9.04-35.45,15.31-71.73,27.82-106.21,11.77-32.44,29.56-62.13,50.18-89.68,18.85-25.19,39.89-48.7,60.88-72.12-5.85,13.33-6.67,28.19-5.66,42.55,1.11,15.84,4.37,31.43,6.88,47.08,2.41,14.97,4.43,30.36,2.33,45.49-2.04,14.69-8.73,27.58-19.74,37.54-11.31,10.24-24.88,17.47-36.98,26.67-11.56,8.79-21.67,19.99-23.67,34.92-2.33,17.3,6.53,33.19,13.94,48.4h4.85c-.07-.15-.14-.31-.22-.46-7.86-16.45-18.86-34.88-12.78-53.7,4.53-14.01,16.82-23.28,28.5-31.25,12.64-8.61,26.21-16.47,36.24-28.26,20.81-24.48,15.72-58.39,10.74-87.53-4.93-28.91-12.92-63.15,4.99-89.32,1.03-1.51-.17-3.94-2.15-3.51-4.1.9-8.19,1.84-12.27,2.78-33.36,7.73-68.34,17.7-95.21,39.96-13.44,11.13-23.85,25.28-29.98,41.65-7.34,19.61-9.45,41.28-20.76,59.3-9.73,15.51-24.28,27.03-39.1,37.39-15.04,10.51-30.87,20.08-44.67,32.27v7.07c4.88-4.57,10.03-8.87,15.43-12.89,28.69-21.37,63.94-38.23,78.81-72.91"/>
        <path class="cls-3" d="M1249.83,231.71c6.3,9.88,10.56,21.28,13.58,32.56,2.67,9.98,4.15,20.23,4.52,30.54,11.25-11.92,25.16-21.12,40.4-27.18,16.74-6.65,35-9.56,52.97-8.18,10.04.77,20.09,2.86,29.51,6.45,2.06.79.85,3.94-1.23,3.2-32.96-11.74-70.77-7-100,12.25-8.1,5.34-15.53,11.72-21.9,19.03-1.2,1.37-3.23.56-3.23-1.24.02-11.47-1.5-22.91-4.44-34-2.97-11.2-7.7-21.48-12.91-31.78-.81-1.59,1.72-3.2,2.71-1.65"/>
        <path class="cls-3" d="M1209.33,313.85c18.8,23.49,29.86,52.92,30.94,83,0,.19.05.35.11.5h3.11c.03-.05.09-.1.12-.15,2.87-5.64,6.51-10.88,10.72-15.61,14.85-16.68,36.94-26.66,59.29-26.39,2.14.03,2.49-3.28.33-3.34-6.64-.17-13.27.52-19.72,2.07-20.97,5.03-39.6,18.38-50.86,36.72-.52-6.74-1.5-13.43-2.99-20.02-6.79-30.08-23.24-57.75-46.65-77.85-1.69-1.45-3.71,1.34-2.04,2.77,6.44,5.54,12.34,11.67,17.65,18.3"/>
        <path class="cls-3" d="M1179.21,397.35h4.06c-8.26-19.16-18-37.67-29.24-55.27v7.03c2.97,4.81,5.84,9.69,8.59,14.63,6.08,10.92,11.61,22.15,16.59,33.61"/>
        <path class="cls-7" d="M1455.47,355.73s0,.02.02.03c-7.06,13.63-13.64,27.49-19.74,41.58h6.18c.57-1.3,1.1-2.62,1.68-3.92.62-1.41,1.26-2.81,1.9-4.21,4.33-2.13,8.42-5.04,12.36-7.8,3.97-2.78,7.85-5.7,11.62-8.74,7.6-6.14,14.67-12.88,21.08-20.25,1.3-1.5-1.09-3.78-2.5-2.4-6.85,6.68-13.94,13.13-21.38,19.16-3.76,3.05-7.63,5.98-11.6,8.77-2.08,1.46-4.22,2.84-6.36,4.23,7.84-16.88,16.33-33.45,25.53-49.62,11.24-19.76,23.18-39.3,36.22-57.93,1.39-1.98-1.59-4.17-3.02-2.22-1.68,2.28-3.32,4.59-5.02,6.85-13.79,18.32-25.88,38.01-37.04,58.02-2.36,4.23-4.66,8.48-6.92,12.76-1.56-8.4-2.84-16.79-3.18-25.36-.4-10.09.47-20.2,1.63-30.22.23-2.04-3.09-2.9-3.58-.85-2.45,10.22-3.12,20.66-2.75,31.14.37,10.43,1.7,21.02,4.86,30.99"/>
        <path class="cls-6" d="M1493.87,258.07c-5.22,10.66-3.02,22.44,4.9,26.32,7.92,3.88,18.58-1.61,23.79-12.27,5.22-10.65,3.03-22.44-4.9-26.32-7.92-3.88-18.58,1.61-23.8,12.27"/>
        <path class="cls-7" d="M1509.58,251.04c-.94,1.91.3,4.44,2.76,5.64,2.46,1.2,5.21.63,6.15-1.28.94-1.91-.3-4.44-2.76-5.64-2.46-1.2-5.21-.63-6.15,1.28"/>
        <path class="cls-6" d="M1486.16,332.88c-8.57,8.21-10.57,20.02-4.47,26.4,6.1,6.37,17.99,4.89,26.56-3.32,8.57-8.2,10.57-20.02,4.47-26.39-6.1-6.37-17.99-4.89-26.56,3.32"/>
        <path class="cls-7" d="M1503.32,331.69c-1.54,1.47-1.25,4.27.64,6.25,1.89,1.98,4.67,2.39,6.21.91s1.25-4.27-.64-6.25c-1.89-1.98-4.68-2.39-6.21-.91"/>
        <path class="cls-6" d="M1431.67,289c.57,11.85,8.18,21.11,16.99,20.69,8.81-.43,15.49-10.38,14.92-22.23-.57-11.85-8.18-21.11-16.99-20.69-8.81.43-15.49,10.38-14.92,22.23"/>
        <path class="cls-7" d="M1442.04,275.26c.1,2.13,2.4,3.74,5.14,3.61,2.73-.13,4.87-1.96,4.77-4.09-.1-2.13-2.4-3.75-5.14-3.61-2.73.13-4.87,1.96-4.77,4.09"/>
        <path class="cls-6" d="M1395.81,397.35h29.09c.93-2.93,1.39-6.2,1.22-9.63-.57-11.85-8.18-21.12-16.99-20.69-8.81.42-15.49,10.37-14.92,22.23.14,2.89.7,5.62,1.59,8.1"/>
        <path class="cls-7" d="M1404.58,375.52c.1,2.13,2.4,3.74,5.14,3.61,2.73-.13,4.87-1.96,4.77-4.09-.1-2.13-2.4-3.75-5.14-3.61s-4.87,1.96-4.77,4.09"/>
      </g>
    </g>
    <g>
      <path class="cls-3" d="M360.25,260.42s-78.93-44.77-38.59-172.8c0,0,86.17,64.63,38.59,172.8"/>
      <path class="cls-3" d="M438.57,286.18s-28.56-43.83-17.83-90.49c10.73-46.66,56.13-78.45,56.13-78.45,0,0,52.5,105.36-38.3,168.94"/>
      <path class="cls-3" d="M474.28,323.51s-14.78-31.14,12.17-61.92c26.95-30.79,49.41-31.83,49.41-31.83,0,0-2.36,78.67-61.58,93.76"/>
      <path class="cls-3" d="M305.33,327.06s-56.38,12.53-102.82-51.98c0,0,75.3-1.37,102.82,51.98"/>
      <path class="cls-3" d="M539.53,399.13c-2.04-15.66-9.35-26.47-9.35-26.47-19.16,3.36-29.99,13.7-35.8,26.47h45.15Z"/>
      <path class="cls-3" d="M296.49,356.73s-27.08,18.75-69.99-16.1c0,0,31.14-14.78,69.99,16.1"/>
      <path class="cls-4" d="M360.25,260.42c11.03,33.3,23.52,66.1,37.45,98.3,5.88,13.59,12.05,27.05,18.44,40.41h8.27c-4.92-10.23-9.76-20.51-14.38-30.89-14.29-32.02-27.21-64.67-38.74-97.78-11.48-32.97-21.9-66.43-30.58-100.25-1.07-4.17-2.14-8.34-3.25-12.5-.89-3.33-6.08-2.48-5.35.99,7.23,34.38,17.11,68.39,28.15,101.72"/>
      <path class="cls-4" d="M263.18,309.35c30.38,17.9,60.05,36.85,88.49,57.54-11.07-3.96-22.41-7.26-33.77-10.14-15.18-3.85-30.58-7.03-46.13-8.94-3.68-.45-4.02,5.01-.49,5.66,15.24,2.8,30.4,5.87,45.39,9.81,14.91,3.91,29.5,8.72,44.13,13.54,1.35.45,2.47,0,3.17-.82,9.88,7.46,19.57,15.18,29.1,23.14h9.96c-10.21-8.8-20.61-17.38-31.26-25.65-21.36-16.58-43.53-32.1-66.46-46.43-12.89-8.05-26.09-15.58-39.58-22.58-2.77-1.44-5.27,3.28-2.57,4.87"/>
      <path class="cls-4" d="M450.69,399.13c-.06-.39-.14-.77-.2-1.16,6.72-18.15,13.13-36.37,20.66-54.22,4.08-9.67,8.31-19.28,12.76-28.79,4.44-9.49,9.29-18.81,13.56-28.37,1.33-2.98-3.4-5.52-5.09-2.69-10.72,17.99-19.16,37.7-27.2,57.01-5.95,14.29-11.74,28.82-16.63,43.58-.4-3.03-.81-6.06-1.16-9.1-4.08-35.7-4.91-71.73-2.57-107.58,1.31-20.13,3.52-40.28,6.71-60.2.6-3.74-5.15-4.15-5.82-.5-6.62,35.69-9.65,71.86-9.23,108.16.33,28.04,2.59,56.12,6.91,83.86h7.31Z"/>
    </g>
    <g>
      <path class="cls-2" d="M708.82,388.8c.82,3.45,1.71,6.89,2.61,10.33h166.2c-20.81-32.79-42.7-62.43-63.76-88.34-1.3-1.6-2.59-3.19-3.88-4.75-54.12-65.79-101.89-106.69-110.2-113.65-.85-.7-1.28-1.06-1.28-1.06,0,0-.48,3.7-1.08,10.38-2.42,27.04-6.93,102.92,9.66,179.43.56,2.54,1.13,5.11,1.73,7.65"/>
      <path class="cls-8" d="M792.22,399.13c.5-11.16,1.74-22.29,3.83-33.28,3.6-18.95,9.61-37.53,17.82-55.06-1.3-1.6-2.59-3.19-3.88-4.75-2.11,4.45-4.05,8.95-5.88,13.48-10.17,25.26-16,52.41-16.86,79.61h4.98Z"/>
      <path class="cls-8" d="M707.09,381.14c.56,2.54,1.13,5.11,1.73,7.65,4.97,3.4,9.9,6.85,14.81,10.33h8.88c-8.38-6.12-16.84-12.14-25.42-17.99"/>
      <path class="cls-8" d="M762.8,380.93c2.46,6.08,5.01,12.13,7.52,18.2h5.39c-.19-.45-.38-.9-.57-1.35-21.24-51.29-40.89-103.21-58.91-155.72-5.67-16.5-11.14-33.08-16.43-49.67-.85-.7-1.28-1.06-1.28-1.06,0,0-.48,3.7-1.08,10.38,2.39,7.33,4.82,14.67,7.28,22,17.71,52.98,37.1,105.44,58.09,157.23"/>
    </g>
  </g>
</svg>