<?xml version="1.0" encoding="UTF-8"?>
<svg id="Layer_1" data-name="Layer 1" xmlns="http://www.w3.org/2000/svg" xmlns:xlink="http://www.w3.org/1999/xlink" viewBox="0 0 290.36 184.74">
  <defs>
    <style>
      .cls-1 {
        fill: none;
      }

      .cls-2 {
        fill: #784e9e;
      }

      .cls-3 {
        fill: #f8d78e;
      }

      .cls-4 {
        fill: #a4ddf0;
      }

      .cls-5 {
        fill: #ebc8c6;
      }

      .cls-6 {
        fill: #fafaf7;
      }

      .cls-7 {
        clip-path: url(#clippath);
      }
    </style>
    <clipPath id="clippath">
      <rect class="cls-1" width="290.36" height="184.74"/>
    </clipPath>
  </defs>
  <g class="cls-7">
    <path class="cls-4" d="M288.45,130.84c.73,6.79-4.67,13.73-4.89,20.37-.23,6.8,4.66,14.1,3.48,20.66-1.2,6.68-8.34,11.81-10.45,18.16-2.14,6.42.49,14.8-2.52,20.8-3.02,6.03-11.32,8.95-15.15,14.47-3.84,5.53-3.67,14.32-8.26,19.25-4.58,4.92-13.35,5.4-18.6,9.64-5.22,4.22-7.52,12.7-13.33,16.16-5.75,3.42-14.3,1.4-20.57,4-6.16,2.55-10.77,10.04-17.37,11.72-6.44,1.64-14.07-2.71-20.86-1.98-6.79.73-13.32,6.61-19.96,6.39-6.8-.23-12.91-6.56-19.47-7.74-6.68-1.2-14.6,2.6-20.95.48-6.42-2.14-10.48-9.94-16.48-12.94-6.03-3.02-14.71-1.62-20.23-5.45-5.53-3.84-7.25-12.46-12.18-17.05-4.92-4.58-13.65-5.65-17.89-10.9-4.22-5.22-3.44-13.97-6.9-19.78-3.42-5.75-11.49-9.24-14.09-15.51-2.55-6.16.67-14.33-1.01-20.93-1.64-6.44-8.39-12.06-9.13-18.86-.73-6.79,4.67-13.73,4.89-20.37.23-6.8-4.66-14.1-3.48-20.66,1.2-6.68,8.34-11.81,10.45-18.16,2.14-6.42-.49-14.8,2.52-20.8,3.02-6.03,11.32-8.95,15.15-14.47,3.84-5.53,3.67-14.32,8.26-19.25,4.58-4.92,13.35-5.4,18.6-9.64,5.22-4.22,7.52-12.7,13.34-16.16,5.75-3.42,14.3-1.4,20.57-4,6.16-2.55,10.77-10.04,17.37-11.72,6.44-1.64,14.07,2.71,20.86,1.98,6.79-.73,13.32-6.61,19.96-6.39,6.8.23,12.91,6.56,19.47,7.74,6.68,1.2,14.6-2.6,20.95-.48,6.42,2.14,10.48,9.94,16.48,12.94,6.03,3.02,14.71,1.62,20.23,5.45,5.53,3.84,7.25,12.46,12.18,17.05,4.92,4.58,13.65,5.65,17.89,10.9,4.22,5.22,3.44,13.97,6.9,19.78,3.42,5.75,11.49,9.24,14.09,15.51,2.55,6.16-.67,14.33,1.01,20.93,1.64,6.44,8.39,12.06,9.13,18.86"/>
    <g>
      <path class="cls-5" d="M40.88,41.35c-.1,0-.21,0-.32,0-.89-.09-1.35-.81-1.5-1.04-1.02-1.6-1.04-3.7-1.07-5.23,0-.26,0-.51-.02-.74,0-.26.13-.52.35-.66.14-.09.37-.17.64-.07,1.72-.22,4.82.38,6.66,1.08.32.12.49.46.42.8-.42,1.88-1.78,3.79-3.75,5.24-.34.25-.84.57-1.42.61M39.42,35h0c.02,1.45.05,3.24.85,4.51.22.35.37.41.47.42.26.02.63-.25.75-.33,1.44-1.06,2.52-2.43,3-3.77-1.65-.54-3.81-.89-5.08-.82M38.69,34.28h0,0ZM38.76,33.64h0,0"/>
      <path class="cls-3" d="M218.92,160.64c-2.43-.29-3.85-1.73-4.15-4.3-.26-2.2-.41-4.4-.6-6.55-.68-.2-.81.26-1,.55-7.17,11.25-23.03,12.13-30.94,1.02-1.39-1.96-1.43-1.93-2.6.17-5.67,10.21-17.96,13.43-27.4,7.18-.35-.24-.71-.48-1.05-.73-.71-.5-1.06-.42-1.02.56.06,1.14.17,2.29.12,3.43-.11,1.92-1.16,3.21-2.93,3.47-3.4.49-6.8.95-10.21,1.29-2.7.26-3.88-.69-4.4-3.37-.4-2.01-.65-4.06-1.01-6.09-.1-.53-.01-1.44-.85-1.29-.78.14-.35.92-.32,1.39.1,2,.36,4.01.43,6.01.08,2.84-.92,4.02-3.75,4.42-2.91.42-5.84.78-8.76,1.08-2.89.31-4.14-.58-4.69-3.38-.23-1.17-.47-1.43-1.62-.68-6.98,4.57-16.7,3.64-22.48-2.11-1.35-1.34-1.35-1.33-2.09.37-1.35,3.14-3.36,5.42-5.88,7.02-.34-2.22-.34-4.56-.33-6.78-.21-7.13,4.06-11.75,11.43-12.36.23-.02.47-.03.71-.05,3.71-.31,7.42-.66,11.14-1.01l2.18-.2,8.73-.7c8.46-.67,16.92-1.35,25.38-2.05,10.57-.87,19.38-1.64,27.72-2.4l4.18-.34c7.13-.59,14.97-1.21,23.95-1.87,1.12-.09,2.26-.2,3.4-.3,1.25-.11,2.5-.22,3.75-.33l1.49-.12c2.39-.19,7.39-.57,10.46,2.72,2.58,2.76,2.81,6.48,2.98,9.2.03.39.05.77.08,1.14.11,1.55.27,3.75-.04,5.99"/>
      <path class="cls-6" d="M261.29,126.92c-.63-4.71-3.77-7.47-8.52-7.53-2.01-.02-4.03,0-6.02.2-1.44.15-1.88-.32-1.98-1.71-.94-12.03-1.96-24.05-2.91-36.07-.14-1.81-.36-3.58-1.23-5.16-.45-.82-.34-1.51.12-2.29.97-1.67,1.96-3.34,2.82-5.07,3.48-7.01,4.02-14.43,3.79-21.97,0-.22-.03-.44-.03-.65.06-4.5-.79-8.57-4.85-11.15-.52-.32-.56-.86-.49-1.44.76-6.34-1.28-11.77-4.84-16.7-8.23-11.43-22.88-13.76-34.77-5.48-.98.69-1.62.66-2.35-.17-2.15-2.43-4.9-3.25-8.15-2.94-3.63.36-7.24.88-10.84,1.57-2.44.47-4.6,1.57-6.01,3.74-.74,1.14-1.19.88-1.89.07-1.74-2.02-3.99-3.01-6.69-2.97-3.26.06-6.49.69-9.7,1.34-.91.19-1.68.13-2.47-.35-1.56-.94-3.32-1.25-5.14-1.13-2.82.2-5.64.4-8.46.67-4.3.39-7.61,2.31-9.26,6.59-.34.88-.72.81-1.46.48-3.57-1.62-7.24-2.98-11.19-3.5-6.72-.89-13.4-.37-20.08.99-2.27.46-4.3,1.35-5.91,3.07-.81.87-1.57.91-2.61.55-4.02-1.39-8.13-2.5-12.47-2.48-6.04.03-12.1.31-17.84,2.63-1.85.74-3.22.8-5,.09-14.21-5.61-30.23,4.13-32.04,19.5-.97,8.29,1.25,15.6,6.35,21.98.78.96,2.38,1.86,2.01,3.03-.39,1.2-2.18,1.56-3.41,2.1-5.88,2.51-6.61,8.83-4.96,12.86,1.33,3.25,3.06,6.26,5.21,9.05,1.93,2.53,4.37,4.54,6.66,6.7.89.84.81,1.53.33,2.55-3.78,8.02-3.48,15.95-.03,23.71,1.47,3.32,3.84,6.05,6.12,8.81.66.78.63,1.22-.28,1.76-1.09.64-2.09,1.47-3.21,2.06-5.48,2.91-5.94,8.93-4.14,13.06,2.28,5.22,5.61,9.64,10.07,13.12,4.18,3.26,8.24,6.64,12.26,10.07,2.4,2.05,4.81,4.05,7.84,5.22,5.24,2.01,12.29,1.62,17.93-1.07.71-.34,1.52-.08,1.94.57.41.65.91,1.26,1.5,1.81,2.1,1.95,5.04,2.78,8.73,2.48h.1c3.68-.22,7.36-.5,10.15-.73,1.36-.11,6.77-.58,8.12-.69,2.04-.17,4.09-.33,6.18-.47l2.83-.23c7.76-.64,15.52-1.29,23.28-1.94,7.76-.65,15.51-1.3,23.27-1.94,6.77-.56,13.55-1.11,20.32-1.65h.19c1.31-.19,2.76-.34,4.43-.48,1.49-.12,2.99-.22,4.49-.32,1.53-.11,3.07-.22,4.6-.34,2.72-.23,6.32-.58,9.95-1.35l.24-.06.33-.11c2.25-.72,3.78-1.94,4.82-3.39.55-.77,1.46-1.14,2.38-1.11h.02c1.5.06,3.04-.04,4.55-.19,6.07-.65,12.11-1.51,18.19-1.97,3.92-.29,6.8-1.9,9.11-5.09,2.69-3.72,5.52-7.33,8.33-10.96,1.59-2.06,2.43-4.36,2.43-6.88-.01-4.25-.18-8.5-.74-12.7M256.46,144.06c-3.22,4.23-6.46,8.43-9.68,12.65-.75.99-1.73,1.51-2.93,1.63-7.31.76-14.63,1.52-21.93,2.27-.81.09-1.64.1-2.45.07-.19,0-.37-.02-.54-.04-2.43-.28-3.85-1.73-4.15-4.31-.26-2.2-.41-4.4-.6-6.55-.68-.2-.81.26-1,.55-7.17,11.25-23.03,12.13-30.94,1.02-1.39-1.96-1.43-1.93-2.6.17-5.67,10.21-17.96,13.43-27.4,7.18-.35-.24-.71-.48-1.05-.73-.71-.5-1.06-.42-1.02.56.06,1.14.17,2.29.11,3.43-.11,1.92-1.16,3.21-2.93,3.47-3.4.49-6.8.95-10.21,1.29-2.7.26-3.88-.69-4.4-3.37-.4-2.01-.65-4.06-1.01-6.09-.1-.53-.01-1.44-.85-1.29-.78.14-.35.92-.32,1.39.1,2,.36,4.01.43,6.01.08,2.84-.92,4.02-3.75,4.42-2.91.42-5.84.78-8.76,1.08-2.89.31-4.14-.58-4.69-3.38-.23-1.17-.47-1.43-1.62-.68-6.98,4.58-16.7,3.64-22.48-2.11-1.35-1.35-1.35-1.34-2.09.37-1.35,3.14-3.36,5.42-5.88,7.02-1.89,1.19-4.04,2-6.42,2.49-5.94,1.22-11.2-.07-15.76-4.16-4.45-3.98-9.19-7.66-13.85-11.43-3.9-3.17-6.64-7.23-8.73-11.75-1.3-2.83-.47-5.55,2.2-7.31,2.73-1.78,5.49-3.5,8.31-5.11.98-.56.88-.83.21-1.44-2.6-2.41-4.84-5.14-6.92-8-4.56-6.26-5.5-13.3-3.43-20.9.56-2.04,1.56-3.89,2.96-5.5.72-.84.6-1.33-.14-2-1.85-1.7-3.57-3.54-5.45-5.2-3.57-3.14-6-7.1-7.97-11.36-1.61-3.45-.69-6.1,2.68-8.04,2.38-1.37,4.82-2.66,7.25-3.97,1.74-.93,1.74-.91.42-2.22-3.21-3.17-6.05-6.65-8.12-10.7-3.97-7.76-2.85-17.73,2.59-24.04,6.31-7.3,17.15-8.88,25.34-3.61,1.03.66,1.6.91,2.34-.39.66-1.2,1.85-1.92,3.18-2.19,5.74-1.12,11.48-2.12,17.33-1.65,4.45.35,8.55,1.66,12.43,3.71.47.26.94.49,1.43.71.15.06.32.05.48.07,1.03-4.35,1.9-5.09,6.3-5.95,4.68-.92,9.34-1.53,14.1-1.28,7.21.4,13.53,2.86,19.12,7.22.39.29.76.57,1.13.87.59-.32.32-.8.3-1.18-.03-1.31-.19-2.61-.18-3.92.04-3.22,1.77-5.37,4.95-5.81,3.29-.45,6.61-.64,9.92-.89,1.47-.11,2.79.34,3.84,1.36.58.55,1.16.58,1.91.44,3-.52,6.03-.97,9.04-1.51,3.2-.56,5.45.61,6.95,3.4,1.7,3.16,3.47,6.29,5.23,9.41.2.35.22.86.99,1.02-.09-2.22-.16-4.35-.26-6.48-.03-.7-.16-1.4-.21-2.11-.18-3.89,1.45-6.01,5.34-6.6,3.23-.49,6.48-.86,9.74-1.16,3.69-.33,5.95,1.56,6.45,5.21.12.85.18,1.71.25,2.52.61.17.78-.24.98-.54,8.5-12.59,27.49-12.5,35.66,2.43,1.14,2.08,1.92,4.31,2.45,6.64.63,2.76-.12,5.04-2.22,6.99-.75.7-1.66,1.26-2.24,2.27,1.12.48,2.2.13,3.25.07,4.02-.2,6.06,1.59,6.3,5.59.41,6.54.5,13.05-1.56,19.49-1.32,4.14-3.73,7.75-5.83,11.49-.48.86-.59,1.32.23,2.03,1.36,1.15,1.98,2.74,1.98,4.6,0,4.21.43,8.36,1.08,12.49.28,1.78.11,3.6.25,5.38.64,7.85,1.35,15.7,1.99,23.55.09,1,.59,1.07,1.4.99,2.93-.25,5.86-.52,8.79-.67,4.07-.21,5.94,1.6,6.13,5.7.14,3.05.33,6.09.53,9.13.14,2.09-.36,4.02-1.66,5.73"/>
      <path class="cls-2" d="M257.59,129.21c-.19-4.11-2.06-5.92-6.13-5.7-2.93.15-5.86.42-8.79.67-.81.08-1.32.01-1.4-.99-.64-7.85-1.35-15.7-1.99-23.55-.14-1.78.04-3.6-.25-5.38-.65-4.13-1.07-8.28-1.08-12.49,0-1.86-.62-3.45-1.98-4.6-.82-.7-.71-1.17-.23-2.03,2.1-3.74,4.5-7.35,5.83-11.49,2.06-6.44,1.97-12.95,1.56-19.49-.25-4.01-2.29-5.79-6.3-5.59-1.05.06-2.13.4-3.25-.08.58-1.01,1.49-1.57,2.24-2.27,2.1-1.95,2.86-4.24,2.22-6.99-.53-2.34-1.31-4.57-2.45-6.65-8.17-14.92-27.16-15.01-35.66-2.43-.2.29-.36.71-.98.54-.08-.81-.14-1.68-.25-2.52-.5-3.65-2.76-5.54-6.45-5.21-3.25.3-6.5.67-9.74,1.15-3.88.6-5.52,2.71-5.34,6.6.04.7.17,1.4.2,2.11.1,2.13.17,4.26.26,6.48-.92-.2-.77-.9-1.14-1.21-1.68-1.41-3.15-3.06-3.66-5.22-1.32-5.62-3.93-8.18-8.38-7.41-3,.53-6.03.98-9.04,1.51-.75.14-1.33.11-1.91-.44-1.05-1.02-2.38-1.47-3.84-1.36-3.31.25-6.63.44-9.92.9-3.18.43-4.91,2.59-4.95,5.81-.01,1.3.14,2.61.18,3.92.02.38.29.86-.3,1.18-.38-.29-.75-.58-1.13-.87-5.59-4.36-11.91-6.82-19.11-7.22-4.76-.25-9.42.36-14.1,1.28-4.39.86-5.27,1.6-6.3,5.95-.16-.01-.33,0-.48-.07-.49-.22-.96-.45-1.43-.71-3.88-2.05-7.97-3.36-12.43-3.71-5.84-.47-11.59.53-17.33,1.65-1.34.26-2.52.99-3.18,2.19-.74,1.31-1.31,1.05-2.34.39-8.19-5.27-19.03-3.69-25.34,3.61-5.44,6.32-6.56,16.28-2.59,24.04,2.07,4.05,4.92,7.53,8.12,10.7,1.32,1.31,1.32,1.28-.42,2.21-2.43,1.3-4.86,2.6-7.25,3.97-3.36,1.93-4.28,4.59-2.68,8.04,1.98,4.26,4.41,8.22,7.97,11.36,1.88,1.65,3.6,3.5,5.45,5.2.74.67.86,1.16.14,2-1.4,1.61-2.4,3.46-2.96,5.5-2.07,7.6-1.13,14.64,3.43,20.9,2.08,2.86,4.32,5.59,6.92,8,.68.62.77.89-.21,1.45-2.82,1.61-5.59,3.34-8.31,5.11-2.67,1.75-3.5,4.48-2.2,7.3,2.09,4.52,4.83,8.58,8.73,11.75,4.65,3.77,9.39,7.44,13.85,11.43,4.56,4.08,9.82,5.38,15.76,4.16,3.25-.67,6.11-1.94,8.4-3.98.73-.65,1.85-.28,1.98.67.58,3.92,2.39,6.73,8.01,6.21,8.13-.45,16.27-1.31,24.41-1.88,23.23-1.92,46.47-3.91,69.7-5.76,7.65-.98,15.61-.82,23.14-2.41l.17-.06c2.56-.82,3.55-2.82,3.87-5.16.09-.66.87-1.02,1.37-.6.78.65,1.83,1.01,3.14,1.07.81.03,1.63.02,2.45-.07,7.3-.75,14.62-1.51,21.93-2.27,1.2-.12,2.18-.65,2.93-1.63,3.23-4.22,6.47-8.42,9.68-12.65,1.3-1.71,1.79-3.63,1.66-5.73-.2-3.04-.39-6.08-.53-9.13M197.42,45.15c.09-5.83.44-11.69,2.92-17.22,2.22-4.96,5.18-9.33,10.49-11.38,5.37-2.06,10.45-1.67,15.1,1.67,4.17,3.01,6.86,6.97,7.92,12.08.39,1.89.19,2.35-1.67,2.86-2.86.79-5.6,1.95-8.37,2.99-1.29.49-2.03.27-2.47-1.07-.43-1.28-.94-2.54-1.61-3.69-1.45-2.48-4.5-2.62-6.45-.39-.82.94-1.3,2.06-1.63,3.23-2.32,7.93-2.01,15.67,1.08,23.17.32.78.79,1.53,1.28,2.22,1.62,2.3,3.79,3.42,6.71,2.67,2.93-.76,4.45-2.83,5.23-5.64.24-.85-.07-1.09-.86-1.02-1.19.11-2.38.19-3.58.27,0,.02,0,.04,0,.06-.26.02-.54.02-.8.06q-4.03.53-4.36-3.44c-.16-2.05-.1-4.13-.57-6.16-.25-1.08.28-1.67,1.36-1.77,6.71-.59,13.43-1.38,20.15-1.73,1-.05,1.56.34,1.61,1.34.31,5.71.48,11.42-1.03,17.07-1.09,4.06-2.96,7.77-6.23,10.53-7.93,6.7-19.59,5.77-26.16-2.29-5.69-6.97-8.22-15.27-8.06-24.39M156.19,21c2.9-.41,5.82-.83,8.72-1.33,1.31-.22,2.02.19,2.68,1.37,5.08,9.21,10.23,18.36,15.38,27.53.12.23.31.42.46.63-.36-4.16.08-8.34-.61-12.37-.6-3.49-.69-7.03-.9-10.54-.12-1.85-.12-3.69-.49-5.51-.36-1.76.1-2.33,1.83-2.55,2.92-.37,5.83-.74,8.75-1.07,1.87-.21,2.38.32,2.49,2.24.3,5.42.44,10.86,1.16,16.24.47,3.49.41,7.05.62,10.56.28,4.82,1.17,9.58.9,14.45-.04.87-.06,1.78.15,2.6,1.02,3.98.28,8.14.87,12.17.29,2.03-.23,2.53-2.26,2.82-2.75.4-5.51.69-8.27,1.09-1.19.18-1.94-.21-2.45-1.29-3.26-6.98-7.44-13.41-11.28-20.04-1.22-2.12-2.2-4.39-3.7-6.42-.7.62-.36,1.29-.29,1.87.96,8.57,1.65,17.17,2.03,25.81.1,2.15-.16,2.45-2.28,2.73-2.71.35-5.41.66-8.11,1-1.51.19-2.23-.43-2.24-1.96,0-4.47-.56-8.89-.87-13.31-.39-5.5-1-11.01-1.55-16.51-.16-1.57-.37-3.12-.29-4.71.19-4.27-1.04-8.37-1.05-12.65-.01-3.64-.53-7.26-.82-10.89-.09-1.08.23-1.79,1.43-1.97M140.52,20.17c1.51-.12,3.03-.22,4.54-.34v-.11c1.46-.11,2.93-.19,4.39-.32,1.16-.1,1.79.39,1.72,1.54-.13,2.63.12,5.23.34,7.82.11,1.35-.55,1.9-1.77,2.02-2.76.27-5.53.53-8.29.82-1.09.11-1.6-.41-1.69-1.45-.25-2.7-.5-5.41-.76-8.11-.11-1.13.35-1.78,1.53-1.87M139.46,37.38c-.05-1.37.54-2.14,2.01-2.23,2.93-.19,5.85-.41,8.76-.94,1.77-.33,2.39.23,2.47,2.04.12,2.61.06,5.23.63,8.46-.01,4.56.99,9.69.93,14.93-.02,1.46.2,2.93.42,4.36.31,1.94.48,3.88.33,5.85-.23,2.96.6,5.83.62,8.77.02,2.34-.14,2.54-2.38,2.78-2.97.33-5.94.69-8.9,1.09-1.29.18-1.91-.22-2.01-1.58-.44-6.22-.81-12.46-1.44-18.66-.49-4.91-.26-9.87-1-14.78-.5-3.29-.33-6.72-.43-10.09M64.17,27.31c1.72-.28,3.44-.57,5.15-.91,5.24-1.04,10.42-.8,15.46.55,6.52,1.77,11.26,5.76,14.11,11.92.12.24.23.49.37.71.05.08.18.11.43.26.17-2.15.15-4.17-.39-6.17-.66-2.47-.41-5.08-.89-7.58-.16-.84.43-1.3,1.22-1.48,6.55-1.49,13.12-2.31,19.65-.68,5.92,1.47,11.13,4.23,15.03,8.98,3.05,3.71,4.08,8.14,3.99,13.01-.12,6.8-2.83,12.43-7.65,17.19-.97.96-.83,1.59-.19,2.61,2.58,4.13,4.67,8.57,7.43,12.59.55.8.16,1.47-.56,1.94-2.47,1.58-4.94,3.13-7.42,4.67-1.03.64-1.76.48-2.31-.71-1.95-4.19-3.98-8.34-6-12.49-.36-.75-.56-1.95-1.51-1.89-1.32.1-2.58.79-3.76,1.51-.24.14-.22.48-.15.76.93,3.89.73,7.99,1.79,11.86.37,1.36.02,2.03-1.54,2.36-3,.64-6.07.53-9.04,1.4-1.03.29-1.76-.19-1.72-1.3.09-3.52-.7-6.92-1.21-10.33-.57-3.8-.77-7.65-1.43-11.43-.6-3.46-.66-7.02-1.19-10.5-.22-1.36-.26-2.77-.73-4.25-.57.39-.56.74-.58,1.06-.35,7.7-4.81,12.89-10.82,17.07-2.59,1.8-5.46,3.11-8.55,3.75-1.3.28-1.63.86-1.55,2.17.24,4.12.66,8.23,1.28,12.3.22,1.42-.2,2.16-1.68,2.37-2.91.42-5.82.91-8.73,1.36-1.08.17-1.68-.38-1.71-1.41-.15-5.41-1.33-10.65-1.9-15.99-.69-6.58-1.39-13.16-1.97-19.75-.36-4.11-1.09-8.16-1.26-12.3-.14-3.57-.72-7.11-1.2-10.65-.26-1.85-.03-2.26,1.76-2.55M37.16,86.29c-3-2.83-5.09-6.29-6.86-10.01-.44-.93-.17-1.53.71-2.01,2.69-1.48,5.48-2.8,8.09-4.49.95-.62,1.73-.38,2.28.63.68,1.22,1.41,2.41,2.14,3.58.77,1.24,1.7,2.36,3.04,3.02,2.28,1.12,4.21-.11,4.23-2.67.02-1.42-.45-2.63-1.32-3.72-2.95-3.69-6.41-6.86-9.88-10.04-2.65-2.44-4.76-5.36-6.56-8.48-3.49-6.07-3.35-17.29,4.76-22.62,2.3-1.5,4.74-2.27,7.41-2.38,5.75-.58,10.01,1.92,13.32,6.27,1.17,1.53,2.18,3.17,2.94,4.97.47,1.1.34,1.93-.82,2.6-2.48,1.44-4.92,2.95-7.37,4.44-.99.6-1.77.45-2.33-.53-.36-.66-.7-1.32-1.04-1.99-.58-1.1-1.25-2.13-2.24-2.9-.99-.78-2.07-.9-3.21-.35-1.07.51-1.41,1.52-1.46,2.6-.11,2.29.68,4.22,2.05,5.98,2.8,3.62,6.4,6.43,9.66,9.57,2.92,2.79,5.68,5.66,7.65,9.23,3.96,7.17,1.18,17.24-5.89,21.32-5.81,3.36-14.57,2.45-19.3-2.01M251.68,140.8c-6.32.09-12.55,1.43-18.84,1.91-1.62.11-3.24.27-4.87.4-1.12.09-1.74-.37-1.76-1.55-.12-4.69-1.04-9.26-1.16-13.96-.1-4-.87-7.97-1.41-12-.08,1.07-.14,2.14-.24,3.21-.58,6.21-2.76,11.77-7.39,16.18-8.54,8.14-18.63,7.16-26.04-.73-2.11-2.24-3.48-4.99-4.52-7.91-.15-.44-.16-1.13-.76-1.1-.62.04-.54.74-.65,1.19-1.41,5.87-4.4,10.64-9.58,13.98-6.21,4.02-12.3,3.96-18.38.28-4.72-2.85-7.56-7.11-9.37-12.24-.23-.65-.25-1.39-.79-1.91-.57.31-.3.77-.27,1.16.52,6.01,1.06,12.02,1.58,18.02.18,2.07-.21,2.58-2.29,2.69-2.72.15-5.4.64-8.1,1.01-1.5.21-2.07-.34-2.16-1.79-.36-5.52-.78-11.05-1.16-16.57-.14-2.08-.11-2.11-2.2-1.8-2.54.36-5.06.81-7.6,1.13-1.1.14-1.38.68-1.28,1.66.31,3.13.45,6.29.94,9.39.39,2.43.39,4.88.69,7.29.18,1.51-.45,2.24-1.98,2.38-2.82.27-5.63.59-8.44.95-1.33.17-1.97-.36-1.93-1.67.14-4.11-.98-8.08-.84-12.19.02-.4.16-1-.35-1.13-.69-.17-.76.54-.88.96-1.55,5.68-5.87,8.78-10.65,11.38-2.19,1.19-4.66,1.4-7.03,1.23-4.5-.34-8.66-1.6-11.9-4.96-2.05-2.13-4.08-4.23-5.18-7.08-.11-.28-.22-.63-.94-.57.11,1.94.22,3.82-.12,5.71-1.15,6.52-6.23,11.66-12.71,12.7-6.27,1.01-11.58-.61-15.64-5.51-1.85-2.24-3.41-4.66-4.72-7.27-.51-1.03-.3-1.7.67-2.31,2.39-1.5,4.73-3.07,7.12-4.55,1.49-.92,2.19-.72,3.03.75.88,1.54,1.82,3.03,3.04,4.33.62.68,1.31,1.26,2.17,1.6,2.08.81,3.75-.28,3.88-2.54.08-1.41-.15-2.72-1.14-3.76-2.58-2.7-4.86-5.69-7.82-8.02-3.56-2.81-6.42-6.29-8.72-10.19-2.79-4.73-3.12-10.01-1.56-15.3,2.61-8.83,12.72-13.08,20.75-9.06,4.24,2.12,6.93,5.57,9.05,9.64.46.88.38,1.74-.48,2.32-2.59,1.78-5.22,3.53-7.87,5.21-1.01.65-1.73.1-2.22-.83-.83-1.57-1.61-3.16-2.98-4.35-1.04-.9-2.17-1.48-3.54-.82-1.46.7-1.69,2.07-1.62,3.51.06,1.46.61,2.73,1.43,3.89,1.69,2.36,3.63,4.48,5.81,6.4,3.58,3.13,6.98,6.45,10.17,9.99.76.84,1.39,1.81,2.16,2.82.43-.72.13-1.22.08-1.73-1.07-9.16-1.15-18.24,3.05-26.99,2.45-5.09,6.41-8.77,11.65-10.09,7.33-1.85,14.5,1.4,16.41,9.47.67,2.85,1.16,5.7,1.41,8.63.14,1.86-.22,2.2-2.08,2.57-2.79.56-5.64.26-8.41.98-1.28.34-1.93-.45-1.94-1.71-.02-1.2-.06-2.4-.33-3.56-.23-1.03-.56-2.06-1.72-2.32-1.24-.29-2.09.56-2.72,1.48-1.44,2.09-1.99,4.52-2.59,6.92-1.01,4.02-.87,8.05-.21,12.01.35,2.08,1.38,4.05,2.15,6.05.13.33.45.61.72.85,2.96,2.56,9.15.98,10.58-2.75.59-1.54,1.02-3.14,1.41-4.74.4-1.6,1.05-2.14,2.5-1.58,1.77.68,3.63.98,5.47,1.38,1.88.42,2.35.11,2.03-1.86-.58-3.53-.56-7.14-.96-10.7-.6-5.38-.86-10.81-1.28-16.23-.15-1.89-.35-3.78-.55-5.67-.11-1.14.21-2.07,1.48-2.09,2.95-.06,5.81-.94,8.74-1.12,1.34-.09,1.99.41,1.95,1.69-.12,5.53,1.42,10.86,1.3,16.4-.06,2.67.81,5.25.74,7.94-.02.71.43.96,1.05.89,3.25-.33,6.49-.69,9.73-1.03.56-.07.74-.39.73-.91-.04-.76,0-1.53-.1-2.28-.86-6.83-1.07-13.74-1.74-20.6-.23-2.41.21-2.86,2.63-3.13,2.32-.25,4.65-.45,6.94-.95,1.95-.43,2.73.16,2.72,2.27-.05,6.72,1.27,13.29,1.38,19.98,0,.21.07.4.14.77.61-.46.47-1.02.56-1.49.62-3.84,1.35-7.67,3.25-11.18,4.35-8.05,13.81-12.14,21.37-9.13,5.36,2.13,9.56,5.62,11.92,11.04.62,1.42,1.24,2.83,1.9,4.33.73-.77.65-1.64.83-2.41,1.53-6.88,4.93-12.37,11.62-15.35,4.58-2.04,9.02-1.76,13.52.2,7.13,3.12,10.6,8.97,12.6,16.11.11.41.23.82.33,1.21.62-.07.45-.49.43-.75-.26-3.04-.4-6.09-.85-9.08-.54-3.61-.35-7.29-.77-10.9-.14-1.18.57-1.81,1.61-1.87,2.89-.17,5.69-1.03,8.55-1.29,1.72-.16,2.24.2,2.27,1.87.14,8.07,1.48,15.99,1.83,24.05.31,6.89,1.31,13.72,1.89,20.58.14,1.63.75,2.01,2.32,1.94,3.91-.16,7.79-.89,11.71-.78,1.98.05,2.35.22,2.18,2.22-.23,2.76.28,5.42.51,8.13.19,2.23-.17,2.68-2.34,2.71M177.78,29.53l-6.32-10.57-.74,2.27,6.66,9.11.4-.81Z"/>
      <path class="cls-6" d="M251.68,140.81c-6.31.08-12.54,1.42-18.83,1.9-1.63.12-3.25.27-4.88.4-1.12.09-1.73-.38-1.76-1.55-.12-4.68-1.04-9.26-1.16-13.96-.1-4-.87-7.97-1.42-11.99-.07,1.07-.13,2.14-.23,3.2-.59,6.21-2.78,11.77-7.4,16.18-8.53,8.14-18.62,7.16-26.04-.72-2.11-2.26-3.48-5-4.51-7.92-.15-.44-.16-1.13-.75-1.1-.61.03-.54.74-.66,1.18-1.4,5.86-4.4,10.64-9.57,13.98-6.22,4.01-12.3,3.97-18.39.29-4.72-2.86-7.56-7.12-9.37-12.24-.23-.64-.25-1.39-.79-1.9-.57.31-.29.77-.26,1.15.52,6.01,1.06,12.02,1.58,18.02.18,2.06-.21,2.58-2.29,2.68-2.72.15-5.41.64-8.1,1.02-1.5.21-2.07-.34-2.17-1.79-.35-5.53-.78-11.05-1.15-16.58-.14-2.08-.11-2.11-2.21-1.8-2.53.36-5.06.81-7.6,1.13-1.1.14-1.38.68-1.28,1.66.31,3.13.45,6.29.94,9.39.39,2.43.4,4.87.68,7.3.18,1.5-.45,2.23-1.97,2.38-2.81.27-5.64.59-8.44.95-1.34.17-1.98-.36-1.93-1.66.13-4.11-.99-8.08-.84-12.19.01-.4.15-1.01-.35-1.14-.69-.17-.76.54-.88.96-1.55,5.68-5.87,8.78-10.66,11.38-2.18,1.19-4.66,1.41-7.01,1.23-4.5-.35-8.66-1.6-11.89-4.96-2.06-2.13-4.08-4.23-5.18-7.07-.11-.27-.22-.63-.94-.57.12,1.94.23,3.82-.11,5.72-1.15,6.51-6.23,11.65-12.72,12.69-6.26,1.01-11.58-.6-15.64-5.51-1.84-2.23-3.41-4.65-4.71-7.26-.52-1.03-.31-1.71.67-2.32,2.38-1.49,4.72-3.07,7.12-4.54,1.49-.92,2.18-.72,3.02.75.88,1.54,1.83,3.03,3.04,4.34.62.68,1.32,1.26,2.18,1.6,2.08.82,3.74-.28,3.88-2.54.09-1.4-.15-2.73-1.15-3.77-2.58-2.7-4.84-5.69-7.81-8.02-3.57-2.81-6.42-6.3-8.72-10.19-2.79-4.73-3.12-10.02-1.56-15.3,2.61-8.84,12.73-13.08,20.75-9.07,4.25,2.12,6.94,5.57,9.06,9.64.45.87.37,1.74-.49,2.33-2.6,1.77-5.22,3.52-7.86,5.21-1.02.65-1.74.1-2.23-.83-.83-1.57-1.6-3.16-2.97-4.35-1.04-.91-2.17-1.48-3.54-.82-1.46.7-1.68,2.07-1.62,3.51.06,1.46.6,2.73,1.43,3.89,1.69,2.36,3.62,4.48,5.81,6.39,3.58,3.13,6.99,6.45,10.17,9.98.76.84,1.39,1.81,2.15,2.83.43-.72.14-1.23.07-1.72-1.07-9.17-1.15-18.25,3.06-27,2.44-5.09,6.41-8.77,11.64-10.1,7.32-1.86,14.5,1.4,16.41,9.47.67,2.85,1.17,5.71,1.4,8.64.16,1.85-.21,2.2-2.08,2.57-2.79.57-5.63.26-8.41.99-1.29.33-1.93-.46-1.94-1.71-.02-1.19-.06-2.39-.33-3.56-.23-1.03-.56-2.06-1.71-2.33-1.25-.29-2.09.56-2.72,1.49-1.45,2.09-1.99,4.51-2.58,6.91-1,4.02-.88,8.06-.22,12,.35,2.09,1.38,4.05,2.15,6.06.13.33.44.61.72.85,2.97,2.56,9.15.97,10.59-2.76.59-1.54,1.01-3.15,1.41-4.74.39-1.6,1.05-2.14,2.5-1.57,1.76.69,3.63.97,5.47,1.39,1.88.42,2.36.11,2.02-1.87-.58-3.54-.55-7.14-.96-10.7-.6-5.38-.86-10.82-1.29-16.22-.15-1.89-.36-3.78-.55-5.67-.11-1.14.2-2.07,1.48-2.1,2.95-.06,5.81-.93,8.74-1.12,1.34-.09,1.97.41,1.95,1.69-.12,5.53,1.42,10.86,1.29,16.4-.06,2.67.82,5.25.74,7.94-.02.71.42.96,1.05.9,3.24-.34,6.49-.7,9.73-1.04.55-.06.74-.39.72-.9-.04-.76,0-1.53-.1-2.29-.86-6.83-1.06-13.74-1.74-20.59-.23-2.41.21-2.87,2.63-3.13,2.32-.25,4.65-.45,6.95-.95,1.95-.43,2.73.15,2.71,2.27-.05,6.72,1.27,13.28,1.38,19.98,0,.2.07.41.14.77.61-.47.47-1.02.55-1.49.62-3.85,1.36-7.68,3.26-11.19,4.35-8.06,13.81-12.14,21.36-9.14,5.37,2.13,9.57,5.63,11.93,11.05.62,1.42,1.24,2.83,1.9,4.33.73-.78.65-1.65.82-2.42,1.54-6.87,4.94-12.37,11.61-15.35,4.59-2.04,9.03-1.76,13.53.2,7.13,3.11,10.6,8.97,12.6,16.11.11.41.23.81.34,1.21.62-.07.45-.5.42-.75-.26-3.04-.4-6.09-.85-9.08-.53-3.61-.34-7.28-.77-10.89-.14-1.19.57-1.81,1.6-1.87,2.89-.17,5.69-1.03,8.57-1.29,1.71-.15,2.24.2,2.26,1.88.13,8.06,1.48,15.99,1.84,24.04.3,6.89,1.31,13.71,1.89,20.59.14,1.63.75,2,2.33,1.94,3.91-.16,7.78-.89,11.7-.79,1.98.05,2.35.22,2.18,2.22-.22,2.75.28,5.43.51,8.13.19,2.23-.17,2.68-2.34,2.71"/>
      <path class="cls-6" d="M101.08,49.9c-.57.39-.56.74-.58,1.05-.35,7.71-4.82,12.89-10.82,17.07-2.6,1.81-5.47,3.11-8.55,3.76-1.29.27-1.63.86-1.55,2.16.25,4.13.66,8.23,1.28,12.3.22,1.43-.21,2.16-1.68,2.37-2.91.41-5.82.9-8.72,1.35-1.09.17-1.68-.37-1.71-1.41-.16-5.4-1.33-10.65-1.9-16-.7-6.58-1.4-13.16-1.97-19.75-.36-4.11-1.09-8.15-1.25-12.3-.14-3.57-.72-7.12-1.21-10.66-.25-1.85-.03-2.26,1.76-2.55,1.72-.28,3.44-.57,5.15-.91,5.24-1.04,10.41-.8,15.46.55,6.53,1.76,11.26,5.76,14.11,11.92.11.24.23.49.36.71.05.08.17.11.43.26.17-2.15.15-4.17-.38-6.16-.66-2.47-.42-5.08-.9-7.59-.16-.84.43-1.3,1.22-1.48,6.55-1.49,13.12-2.31,19.65-.68,5.92,1.48,11.13,4.24,15.03,8.98,3.05,3.71,4.08,8.14,3.99,13.02-.13,6.8-2.83,12.43-7.65,17.18-.97.96-.83,1.59-.19,2.6,2.58,4.13,4.67,8.57,7.43,12.6.55.8.16,1.47-.57,1.94-2.46,1.57-4.93,3.13-7.42,4.67-1.03.64-1.76.48-2.31-.71-1.95-4.19-3.98-8.33-5.99-12.49-.37-.76-.57-1.95-1.52-1.88-1.32.09-2.59.79-3.76,1.5-.25.15-.22.49-.16.76.93,3.89.73,7.99,1.79,11.86.37,1.37.02,2.03-1.54,2.36-3,.64-6.07.53-9.04,1.4-1.03.3-1.75-.19-1.73-1.3.09-3.52-.69-6.92-1.21-10.33-.57-3.8-.78-7.65-1.43-11.43-.59-3.45-.65-7.01-1.19-10.49-.21-1.37-.26-2.77-.73-4.26M111.92,42.4c.75,4.67,1.57,9.73,2.39,14.79.03.16.04.32.07.48.19.93.81.78,1.5.6,2.26-.59,4.17-1.84,6.15-3.06,3.86-2.38,4.84-6.13,4.92-10.03.06-2.73-.8-5.43-3.28-7.2-3.42-2.43-7.29-2.84-11.39-2.49-1.05.09-1.28.62-1.03,1.54.43,1.62.74,3.27.66,5.38M88.81,47.87c.06-2.07-1-3.93-2.74-5.43-2.33-2-5.12-2.81-8.19-2.81-2.15,0-2.19.13-1.96,2.24.54,4.79,1.09,9.59,1.5,14.39.33,3.79.36,3.87,3.95,2.25,4.87-2.19,7.62-6,7.44-10.65"/>
      <path class="cls-6" d="M183.41,49.19c-.35-4.16.09-8.34-.6-12.37-.6-3.49-.69-7.02-.9-10.55-.11-1.84-.11-3.69-.49-5.51-.36-1.76.09-2.33,1.83-2.55,2.92-.37,5.83-.74,8.75-1.07,1.87-.21,2.38.32,2.49,2.24.3,5.42.44,10.86,1.17,16.24.47,3.49.4,7.05.61,10.56.28,4.81,1.17,9.58.91,14.45-.05.87-.06,1.78.15,2.6,1.03,3.98.28,8.14.87,12.17.3,2.04-.23,2.54-2.26,2.83-2.75.4-5.51.7-8.26,1.09-1.19.17-1.94-.21-2.45-1.3-3.27-6.97-7.43-13.41-11.28-20.04-1.23-2.12-2.21-4.39-3.71-6.42-.7.62-.36,1.29-.29,1.87.96,8.57,1.65,17.17,2.04,25.81.1,2.16-.16,2.46-2.29,2.73-2.7.35-5.4.66-8.11,1-1.51.19-2.24-.42-2.24-1.96,0-4.46-.56-8.89-.88-13.31-.39-5.5-1-11.01-1.55-16.5-.16-1.57-.36-3.12-.29-4.71.19-4.27-1.04-8.37-1.05-12.65-.01-3.64-.52-7.26-.82-10.89-.09-1.08.23-1.8,1.43-1.97,2.91-.42,5.82-.83,8.72-1.33,1.31-.22,2.03.18,2.68,1.37,5.08,9.21,10.24,18.36,15.38,27.53.13.22.3.42.45.63"/>
      <path class="cls-6" d="M221.53,55.93c-.27.02-.54.03-.81.06q-4.02.53-4.35-3.44c-.16-2.06-.1-4.14-.57-6.16-.25-1.09.28-1.68,1.36-1.77,6.72-.59,13.42-1.38,20.15-1.73,1-.05,1.55.34,1.61,1.34.32,5.71.48,11.42-1.03,17.07-1.08,4.06-2.95,7.76-6.23,10.53-7.93,6.7-19.59,5.76-26.16-2.29-5.69-6.97-8.22-15.27-8.07-24.38.1-5.83.44-11.7,2.92-17.23,2.22-4.96,5.18-9.32,10.49-11.37,5.37-2.07,10.45-1.68,15.1,1.67,4.17,3,6.86,6.97,7.93,12.08.39,1.88.18,2.35-1.68,2.86-2.86.79-5.59,1.95-8.36,2.99-1.29.49-2.03.27-2.48-1.08-.42-1.27-.93-2.54-1.61-3.69-1.44-2.47-4.5-2.62-6.45-.39-.82.94-1.3,2.06-1.64,3.23-2.32,7.94-2.01,15.67,1.08,23.17.32.79.79,1.53,1.28,2.22,1.62,2.3,3.79,3.42,6.71,2.67,2.93-.76,4.46-2.84,5.23-5.64.24-.85-.06-1.1-.85-1.03-1.19.1-2.39.18-3.58.27,0,.02,0,.04,0,.05"/>
      <path class="cls-6" d="M45.2,27.1c5.75-.58,10.01,1.92,13.32,6.27,1.17,1.53,2.18,3.17,2.94,4.97.47,1.11.34,1.93-.82,2.6-2.48,1.44-4.92,2.95-7.37,4.43-.98.59-1.77.45-2.33-.54-.37-.65-.7-1.32-1.05-1.99-.57-1.1-1.25-2.12-2.24-2.9-.98-.77-2.07-.89-3.2-.35-1.07.51-1.41,1.52-1.46,2.6-.11,2.28.68,4.22,2.05,5.98,2.81,3.62,6.4,6.44,9.67,9.57,2.91,2.79,5.68,5.66,7.64,9.23,3.96,7.17,1.17,17.24-5.89,21.32-5.81,3.35-14.58,2.45-19.3-2-3-2.83-5.1-6.3-6.86-10.01-.44-.94-.17-1.53.71-2.01,2.7-1.49,5.49-2.81,8.09-4.49.95-.62,1.73-.38,2.28.63.67,1.22,1.4,2.41,2.14,3.59.78,1.24,1.7,2.35,3.04,3.01,2.28,1.12,4.21-.11,4.23-2.67.01-1.42-.45-2.63-1.32-3.72-2.95-3.7-6.41-6.86-9.88-10.04-2.66-2.44-4.77-5.36-6.56-8.48-3.49-6.07-3.35-17.29,4.76-22.61,2.29-1.51,4.73-2.27,7.4-2.39"/>
      <path class="cls-6" d="M153.34,44.71c-.01,4.56.99,9.68.92,14.93-.02,1.46.2,2.93.42,4.37.3,1.94.48,3.87.33,5.85-.23,2.96.61,5.82.62,8.77.01,2.34-.14,2.53-2.39,2.78-2.97.33-5.94.69-8.91,1.09-1.29.18-1.91-.23-2.01-1.58-.44-6.22-.81-12.46-1.43-18.66-.5-4.91-.26-9.88-1-14.78-.49-3.3-.32-6.72-.43-10.09-.04-1.36.53-2.14,2.01-2.23,2.92-.19,5.85-.4,8.75-.94,1.78-.33,2.4.23,2.48,2.04.11,2.61.06,5.23.63,8.46"/>
      <path class="cls-6" d="M145.06,19.72c1.46-.11,2.93-.2,4.39-.33,1.16-.1,1.79.39,1.73,1.55-.14,2.63.12,5.22.34,7.82.11,1.35-.55,1.9-1.78,2.02-2.76.27-5.52.53-8.28.81-1.09.11-1.6-.41-1.69-1.45-.25-2.7-.51-5.4-.77-8.1-.11-1.14.35-1.79,1.53-1.87,1.52-.11,3.03-.22,4.55-.33,0-.04,0-.08,0-.12"/>
      <path class="cls-2" d="M111.92,42.4c.08-2.12-.23-3.76-.66-5.38-.25-.92-.02-1.46,1.03-1.54,4.09-.35,7.96.06,11.39,2.49,2.49,1.77,3.34,4.47,3.28,7.2-.08,3.9-1.07,7.65-4.92,10.03-1.98,1.22-3.89,2.47-6.15,3.06-.69.18-1.31.34-1.5-.6-.03-.16-.05-.32-.07-.48-.82-5.06-1.63-10.12-2.39-14.79"/>
      <path class="cls-2" d="M88.81,47.87c.18,4.65-2.57,8.46-7.44,10.65-3.59,1.62-3.63,1.54-3.95-2.25-.42-4.81-.97-9.6-1.5-14.39-.23-2.11-.19-2.23,1.96-2.24,3.07,0,5.86.81,8.19,2.81,1.74,1.49,2.8,3.35,2.74,5.43"/>
      <path class="cls-2" d="M169.23,122.95c-.91.26-1.96-.13-2.84-.38-1.23-.38-2.45.79-3.63,1.17-2.55.87-5.57-1.15-6.05-3.71-.23-.89.33-1.88,0-2.72-1.08-1.25-2.95-2.22-3.02-4.16-.2-2.36,1.78-4.81,4.03-5.41.44-.12.92-.24,1.22-.58.24-.26.38-.64.51-.98.48-1.79,1.74-3.44,3.67-3.55,1.48-.2,3.05.18,4.08,1.24.6.53.91,1.35,1.55,1.82.61.41,1.42.17,2.14.22,2.05.05,3.8,1.55,4.17,3.54.35,1.27.3,2.66-.48,3.81-.35.58-.95,1.09-1.15,1.73-.13.42-.02.88.08,1.3.91,2.98-1.26,5.99-4.16,6.62l-.13.03ZM164.12,112.3c-.2,1.28-1.63.23-2.34.22-.58-.05-1.14.71-.7,1.15.94.73,3.38-.75,1.98,1.61-.23.45-.58,1.03-.24,1.45.36.29,1.02-.18,1.24-.64.38-.68.63-1.68,1.3-.86.46.53,1.41,1.7,2.07.83.32-.5-.22-1.03-.68-1.27-.63-.3-1.48-1.11-.43-1.54.69-.24,2.19-.28,1.84-1.37-.61-1.29-1.73.16-2.48.53-.88.38-.88-.69-.69-1.37.29-.88-.28-1.63-1.12-1.16-.79.47.07,1.87.25,2.34v.09Z"/>
      <path class="cls-2" d="M207.83,120.12c-.91.26-1.96-.13-2.84-.38-1.23-.38-2.45.79-3.63,1.17-2.55.87-5.57-1.15-6.05-3.71-.23-.89.33-1.88,0-2.72-1.08-1.25-2.95-2.22-3.02-4.16-.2-2.36,1.78-4.81,4.03-5.41.44-.12.92-.24,1.22-.58.24-.26.38-.64.51-.98.48-1.79,1.74-3.44,3.67-3.55,1.48-.2,3.05.18,4.08,1.24.6.53.91,1.35,1.55,1.82.61.41,1.42.17,2.14.22,2.05.05,3.8,1.55,4.17,3.54.35,1.27.3,2.66-.48,3.81-.35.58-.95,1.09-1.15,1.73-.13.42-.02.88.08,1.3.91,2.98-1.26,5.99-4.16,6.62l-.13.03ZM202.71,109.47c-.2,1.28-1.63.23-2.34.22-.58-.05-1.14.71-.7,1.15.94.73,3.38-.74,1.98,1.61-.23.45-.58,1.03-.24,1.45.36.29,1.02-.18,1.24-.64.38-.68.63-1.68,1.3-.86.46.53,1.41,1.7,2.07.83.32-.5-.22-1.03-.68-1.27-.63-.3-1.48-1.11-.43-1.54.69-.24,2.19-.28,1.84-1.37-.61-1.29-1.73.16-2.48.53-.88.38-.88-.69-.69-1.37.29-.88-.28-1.63-1.12-1.16-.79.47.07,1.87.25,2.34v.09Z"/>
      <path class="cls-6" d="M96.16,167.24c.53-.04,1.19.09,1.27,1.07.08,1-.53,1.22-1.08,1.27l-4.67.39c-1.19.1-1.38-.94-1.41-1.2-.11-1.3.8-2.46,2.12-3.63,1.43-1.26,1.87-1.64,1.78-2.66-.02-.24-.1-1.11-.83-1.05-.82.07-.83.88-.84,1.41,0,.36-.38.82-1.21.89-.69.06-1.4-.2-1.47-1.06-.08-.96.45-3.35,3.28-3.58,2.1-.17,3.62,1.14,3.79,3.19.16,1.9-.8,2.78-2.23,4.07-.26.24-.96.92-.95,1.04,0,.05.07.04.18.04l2.25-.19Z"/>
      <path class="cls-6" d="M102.7,162.01c2.02-.17,3.22,1.46,3.37,3.26.18,2.24-1.14,3.89-3.18,4.06-1.21.1-2.19-.43-2.76-1.04-.66-.72-1.19-1.68-1.37-3.82-.14-1.7-.25-5.82,3.38-6.11,2.23-.18,3.32,1.35,3.39,2.18.03.38-.19,1.06-1.24,1.14-.97.08-1.17-.32-1.38-.71-.12-.23-.39-.29-.62-.27-.29.02-.86.07-.85,1.86.36-.38.8-.51,1.26-.55M101.63,165.72c.09,1.11.64,1.29.93,1.27.32-.03.81-.32.72-1.4-.09-1.07-.61-1.3-.94-1.27-.28.02-.8.28-.71,1.4"/>
      <path class="cls-6" d="M108.8,169.25c-.85.07-1.41-.56-1.46-1.2-.02-.23.03-.43.07-.53l3.02-9.44c.11-.32.47-.86,1.13-.92.76-.06,1.39.46,1.45,1.22.02.19,0,.36-.06.51l-3.02,9.44c-.15.43-.56.87-1.13.92"/>
      <path class="cls-6" d="M110.82,158.2c.07-.21.32-.6.77-.64.58-.05.97.36,1.01.84.01.14,0,.25-.04.34l-3.03,9.45c-.07.21-.32.6-.77.64-.58.05-.98-.36-1.02-.83-.01-.14.01-.27.05-.36l3.03-9.45Z"/>
      <path class="cls-6" d="M121.82,164.43c.06.72.03,3.33-3.32,3.61-1.16.1-2.2-.07-2.99-.91-.51-.54-.81-1.25-.86-1.82-.04-.54.22-1.11,1.21-1.19.25-.02,1.21-.08,1.39.68.11.45.22.96,1,.89.48-.04.9-.35.83-1.12-.03-.33-.1-1.19-1.06-1.11-.34.03-1.06.09-1.15-.98-.09-1.08.57-1.14.96-1.17.52-.04.63-.48.58-1.07-.04-.55-.33-.85-.71-.82-.47.04-.67.22-.71.81-.01.31-.05.94-1.17,1.03-.57.05-1.33-.08-1.4-.94-.07-.88.46-3.03,3.07-3.25,2.07-.17,3.47.98,3.62,2.8.06.78-.16,1.55-.77,2.07,1.27.82,1.43,2.01,1.47,2.48"/>
      <path class="cls-6" d="M124.52,167.95c-.85.07-1.41-.56-1.46-1.2-.02-.23.03-.43.07-.53l3.02-9.44c.11-.32.47-.86,1.13-.92.76-.06,1.39.46,1.45,1.22.02.19,0,.36-.05.51l-3.02,9.44c-.15.43-.55.87-1.13.92"/>
      <path class="cls-6" d="M126.54,156.91c.07-.21.32-.6.77-.64.58-.05.97.36,1.01.84.01.14,0,.25-.04.34l-3.02,9.45c-.07.21-.32.6-.77.64-.58.05-.98-.36-1.02-.83-.01-.14.01-.27.05-.36l3.02-9.45Z"/>
      <path class="cls-6" d="M131.69,160.17c-.58.05-.95-.43-1-1.03-.07-.91.45-1.04.9-1.14.31-.07,1.06-.28,1.36-1.33.14-.49.26-.88,1.07-.95.82-.07,1.15.4,1.18.73l.74,8.96c.04.46,0,1.19-1.21,1.29-.82.07-1.43-.09-1.51-1.07l-.46-5.54-1.07.09Z"/>
      <path class="cls-6" d="M142.93,158.69c2.01-.17,3.22,1.46,3.36,3.26.19,2.24-1.14,3.89-3.18,4.06-1.21.1-2.19-.43-2.76-1.04-.66-.72-1.19-1.68-1.37-3.82-.14-1.7-.25-5.82,3.38-6.11,2.23-.18,3.32,1.35,3.39,2.18.03.38-.19,1.06-1.24,1.14-.97.08-1.17-.32-1.38-.71-.12-.23-.39-.29-.62-.27-.29.02-.86.07-.85,1.86.36-.38.8-.51,1.26-.55M141.85,162.41c.09,1.11.64,1.29.93,1.27.32-.03.81-.32.72-1.4-.09-1.07-.61-1.3-.94-1.27-.27.02-.8.28-.71,1.4"/>
      <path class="cls-6" d="M149.88,158.89c.24-.2,1.09-.91,2.32-1.02.78-.07,1.59.15,2.35.61.88.55,1.18.72,1.63.68.29-.02.76-.15,1.16-.44.48-.34.55-.4.8-.42.54-.04,1.08.35,1.14.99.02.25.04.68-.99,1.3-.37.24-1.03.6-1.92.68-1.16.1-1.75-.27-2.96-1.02-.25-.16-.66-.27-1.07-.24-.63.05-1,.36-1.14.49-.38.31-.46.38-.77.41-.49.04-1.03-.28-1.08-.95-.04-.48.18-.75.54-1.04"/>
      <path class="cls-6" d="M168.7,161.25c.53-.04,1.19.09,1.27,1.07.08,1-.53,1.22-1.08,1.27l-4.67.39c-1.19.1-1.38-.94-1.41-1.2-.11-1.3.8-2.46,2.12-3.63,1.43-1.26,1.87-1.64,1.78-2.66-.02-.24-.1-1.11-.83-1.05-.82.07-.83.88-.84,1.41,0,.36-.38.82-1.21.89-.69.06-1.4-.2-1.47-1.06-.08-.96.45-3.35,3.28-3.58,2.1-.17,3.62,1.14,3.79,3.19.16,1.9-.8,2.78-2.23,4.07-.26.24-.96.92-.95,1.04,0,.05.07.04.18.04l2.25-.19Z"/>
      <path class="cls-6" d="M175.24,156.02c2.01-.17,3.22,1.46,3.36,3.26.19,2.24-1.14,3.89-3.18,4.06-1.21.1-2.19-.43-2.76-1.04-.66-.72-1.19-1.68-1.37-3.82-.14-1.7-.25-5.81,3.38-6.11,2.23-.18,3.32,1.35,3.39,2.18.03.38-.19,1.06-1.24,1.14-.97.08-1.17-.32-1.38-.71-.12-.23-.39-.29-.62-.27-.29.02-.86.07-.85,1.86.36-.38.8-.51,1.26-.55M174.17,159.74c.09,1.11.64,1.29.93,1.27.32-.03.81-.32.72-1.4-.09-1.07-.61-1.3-.94-1.27-.27.02-.8.28-.71,1.4"/>
      <path class="cls-6" d="M181.34,163.26c-.85.07-1.41-.56-1.46-1.2-.02-.23.03-.43.07-.53l3.02-9.44c.11-.32.47-.86,1.13-.92.76-.06,1.39.46,1.45,1.22.02.19,0,.36-.05.51l-3.02,9.44c-.11.32-.47.86-1.13.92"/>
      <path class="cls-6" d="M183.36,152.22c.07-.21.32-.6.77-.64.58-.05.97.36,1.01.84.01.14,0,.25-.04.34l-3.02,9.45c-.07.21-.32.6-.77.64-.58.05-.98-.36-1.02-.83-.01-.14.01-.27.05-.36l3.02-9.45Z"/>
      <path class="cls-6" d="M188.49,160.12c-.77.06-1.36-.55-1.44-1.43-.04-.52.08-.97.19-1.2l2.66-5.46c.32-.64.85-1,1.46-1.05,1.04-.09,1.42.63,1.46,1.07l.44,5.31c.33,0,1.05-.01,1.14,1.07.09,1.11-.61,1.22-.95,1.27l.08.94c.04.48-.01,1.19-1.21,1.29-.86.07-1.37-.18-1.44-1.07l-.08-.94-2.31.19ZM190.69,157.58l-.21-2.53c0-.05-.03-.09-.07-.08-.05,0-.06.03-.08.07l-1.19,2.46c-.03.07-.06.1-.05.14,0,.06.04.07.12.07l1.49-.12Z"/>
      <path class="cls-6" d="M197.06,161.96c-.85.07-1.41-.56-1.46-1.2-.02-.23.03-.43.07-.53l3.02-9.44c.11-.32.47-.86,1.13-.92.76-.06,1.39.46,1.45,1.22.02.19,0,.36-.05.51l-3.02,9.44c-.11.32-.47.86-1.13.92"/>
      <path class="cls-6" d="M199.08,150.92c.07-.21.32-.6.77-.64.58-.05.97.36,1.01.84.01.14,0,.25-.04.34l-3.02,9.45c-.07.21-.32.6-.77.64-.58.05-.98-.36-1.02-.83-.01-.14.01-.27.05-.36l3.02-9.45Z"/>
      <path class="cls-6" d="M204.2,158.82c-.77.06-1.36-.55-1.44-1.43-.04-.52.08-.97.19-1.2l2.66-5.46c.32-.64.85-1,1.46-1.05,1.04-.09,1.42.63,1.46,1.07l.44,5.31c.33,0,1.05-.01,1.14,1.07.09,1.11-.61,1.22-.95,1.27l.08.95c.04.48-.01,1.19-1.21,1.29-.86.07-1.37-.18-1.44-1.07l-.08-.94-2.31.19ZM206.4,156.28l-.21-2.53c0-.05-.03-.09-.07-.08-.05,0-.06.03-.08.07l-1.19,2.46c-.03.07-.06.1-.05.14,0,.06.04.07.12.07l1.49-.12Z"/>
    </g>
  </g>
</svg>