<?xml version="1.0" encoding="UTF-8"?>
<svg id="Layer_4_copy" data-name="Layer 4 copy" xmlns="http://www.w3.org/2000/svg" viewBox="0 0 341.18 129.56">
  <defs>
    <style>
      .cls-1 {
        fill: #f08521;
      }

      .cls-1, .cls-2 {
        stroke: #f18523;
        stroke-miterlimit: 10;
      }

      .cls-2 {
        fill: #fff;
        stroke-width: 8px;
      }

      .cls-3 {
        fill: #f18523;
      }
    </style>
  </defs>
  <path class="cls-2" d="M325.71,125.56H54.82c-4.77,0-9.22-2.12-11.84-5.65L5.69,69.77c-2.25-3.03-2.25-6.95,0-9.98L42.98,9.65c2.62-3.53,7.07-5.65,11.84-5.65h270.89c6.33,0,11.47,4.54,11.47,10.15v101.27c0,5.6-5.13,10.15-11.47,10.15Z"/>
  <g>
    <path class="cls-3" d="M46.79,84.18c17.67-13.54,32.97-26.29,32.97-36.22,0-5.98-4.66-9.23-9.85-9.23-5.71,0-9.58,2.73-15.03,8.18l-8.97-8.88c7.12-7.91,16-11.69,24.71-11.69,13.8,0,24.35,7.3,24.35,21.1,0,12.4-10.38,22.51-23.04,33.41,3.52-.35,6.42-.7,9.5-.7h16.18v13.01h-50.82v-8.97Z"/>
    <path class="cls-3" d="M125.56,21.67h10.11l-19.34,87.57h-10.2l19.43-87.57Z"/>
    <path class="cls-3" d="M142.36,84.18c15.83-14.77,27.34-25.67,27.34-34.64,0-6.07-3.25-9.23-8.53-9.23-4.48,0-7.91,3.17-11.08,6.33l-8.53-8.44c6.42-6.77,12.4-10.11,21.72-10.11,12.66,0,21.45,8.09,21.45,20.57,0,10.64-9.94,21.98-19.78,32.18,3.25-.44,7.74-.88,10.73-.88h12.05v13.19h-45.37v-8.97Z"/>
    <path class="cls-3" d="M196.43,76.89c0-7.65,4.75-12.31,10.73-15.56v-.35c-5.01-3.78-8.53-8.44-8.53-15.03,0-11.08,8.7-17.85,20.75-17.85s19.61,6.86,19.61,17.58c0,5.98-3.87,10.81-8.26,13.72v.44c6.15,3.34,10.99,8.26,10.99,16.79,0,10.11-9.14,17.76-22.86,17.76-12.84,0-22.42-7.12-22.42-17.5ZM227.2,76.01c0-5.28-5.1-7.21-13.01-10.55-2.55,2.37-4.4,5.89-4.4,9.58,0,5.36,4.31,8.44,9.41,8.44,4.57,0,8-2.29,8-7.47ZM226.32,46.73c0-4.75-2.73-7.74-7.3-7.74-3.6,0-6.68,2.11-6.68,6.95s4.13,7.21,10.46,9.76c2.29-2.9,3.52-5.8,3.52-8.97Z"/>
  </g>
  <circle class="cls-2" cx="286.43" cy="60.5" r="30.9"/>
  <path class="cls-1" d="M286.54,44.76c-1,1.38-2.23,2.8-3.72,4.24-1.48,1.45-3.12,2.83-4.92,4.15-1.8,1.32-3.68,2.51-5.65,3.55-.22-.41-.52-.89-.89-1.42-.38-.53-.78-1.06-1.2-1.57-.43-.51-.83-.95-1.22-1.31,2.09-1,4.08-2.22,5.98-3.68s3.59-2.99,5.08-4.59c1.49-1.6,2.68-3.12,3.55-4.55h5.54c1,1.41,2.08,2.75,3.26,4.01,1.18,1.26,2.43,2.42,3.75,3.48,1.32,1.06,2.7,2,4.12,2.82,1.42.83,2.86,1.52,4.32,2.08-.66.68-1.28,1.44-1.88,2.28-.6.84-1.14,1.67-1.62,2.5-1.38-.73-2.77-1.57-4.17-2.51-1.4-.95-2.74-1.95-4.03-3.02-1.29-1.07-2.47-2.15-3.55-3.24-1.08-1.09-2-2.16-2.75-3.21ZM271.28,68.88h30.86v4.52h-30.86v-4.52ZM273.21,58.06h26.6v4.52h-26.6v-4.52ZM275.07,63.71l4.26-1.79c.44.58.87,1.22,1.31,1.91.44.69.84,1.37,1.2,2.04.36.67.63,1.28.8,1.84l-4.55,2c-.15-.53-.38-1.15-.71-1.86-.33-.7-.69-1.42-1.09-2.15-.4-.73-.81-1.4-1.22-2ZM277.36,50.55h18.4v4.59h-18.4v-4.59ZM283.63,52.41h5.65v18.69h-5.65v-18.69ZM293.28,62.03l5.06,1.82c-.75,1.09-1.51,2.16-2.26,3.21-.75,1.04-1.45,1.93-2.08,2.66l-3.97-1.64c.39-.56.78-1.18,1.18-1.88.4-.69.78-1.4,1.15-2.13.36-.73.67-1.41.91-2.04Z"/>
</svg>