<?xml version="1.0" encoding="UTF-8"?>
<svg id="Layer_2" data-name="Layer 2" xmlns="http://www.w3.org/2000/svg" viewBox="0 0 239.57 117.92">
  <defs>
    <style>
      .cls-1 {
        fill: #fff;
        stroke-width: 5.88px;
      }

      .cls-1, .cls-2 {
        stroke: #f18523;
        stroke-miterlimit: 10;
      }

      .cls-2 {
        fill: #f08521;
        stroke-width: .5px;
      }

      .cls-3 {
        fill: #f18523;
      }
    </style>
  </defs>
  <path class="cls-1" d="M198.17,114.98H46.77c-4.11,0-7.95-1.56-10.21-4.15L4.4,73.98c-1.94-2.22-1.94-5.11,0-7.33L36.56,29.8c2.26-2.59,6.1-4.15,10.21-4.15h151.4c5.46,0,9.89,3.34,9.89,7.46v74.42c0,4.12-4.43,7.46-9.89,7.46Z"/>
  <g>
    <path class="cls-3" d="M31.32,84.57c12.99-9.95,24.23-19.32,24.23-26.62,0-4.39-3.42-6.78-7.24-6.78-4.2,0-7.04,2-11.05,6.01l-6.59-6.53c5.23-5.81,11.76-8.59,18.15-8.59,10.14,0,17.9,5.36,17.9,15.51,0,9.11-7.62,16.54-16.93,24.55,2.58-.26,4.72-.52,6.98-.52h11.89v9.56H31.32v-6.59Z"/>
    <path class="cls-3" d="M89.21,38.63h7.43l-14.21,64.35h-7.49l14.28-64.35Z"/>
    <path class="cls-3" d="M105.29,84.57c12.99-9.95,24.23-19.32,24.23-26.62,0-4.39-3.42-6.78-7.24-6.78-4.2,0-7.04,2-11.05,6.01l-6.59-6.53c5.23-5.81,11.76-8.59,18.15-8.59,10.14,0,17.9,5.36,17.9,15.51,0,9.11-7.62,16.54-16.93,24.55,2.58-.26,4.72-.52,6.98-.52h11.89v9.56h-37.34v-6.59Z"/>
    <path class="cls-3" d="M153.75,78.82c0-5.75,2.65-9.24,7.88-12.28v-.26c-4.07-2.39-6.2-6.07-6.27-10.47-.13-8.2,6.59-13.76,16.99-13.76s16.54,5.36,16.67,13.05c.06,4.85-2.2,8.08-6.33,10.98v.26c6.46,3.42,8.53,7.36,8.53,12.4,0,7.3-7.24,13.24-18.86,13.24s-18.61-5.69-18.61-13.18ZM180.11,78.36c0-4.13-3.55-5.62-12.02-8.2-2.78,2.33-4.13,4.72-4.13,7.43,0,3.94,3.68,6.46,8.79,6.46,4.65,0,7.37-2.71,7.37-5.69ZM179.53,56.4c-.06-3.17-2.2-6.33-7.62-6.33-3.81,0-6.52,2.39-6.46,5.81.06,4.01,5.17,5.88,10.72,7.43,2.58-2.58,3.42-4.39,3.36-6.91Z"/>
  </g>
  <circle class="cls-1" cx="213.93" cy="25.64" r="22.71"/>
  <path class="cls-2" d="M213.78,14.07c-.72,1.01-1.62,2.03-2.7,3.08-1.08,1.05-2.27,2.05-3.57,3.02-1.31.96-2.67,1.82-4.1,2.58-.16-.3-.38-.64-.65-1.03-.27-.39-.56-.77-.87-1.14-.31-.37-.6-.69-.89-.95,1.52-.72,2.96-1.61,4.34-2.67s2.61-2.17,3.69-3.33c1.09-1.16,1.94-2.27,2.58-3.31h4.02c.72,1.02,1.51,1.99,2.37,2.91.86.92,1.76,1.76,2.72,2.53.96.77,1.96,1.45,2.99,2.05,1.03.6,2.08,1.1,3.14,1.51-.48.49-.93,1.05-1.36,1.65-.43.61-.82,1.21-1.18,1.81-1.01-.53-2.02-1.14-3.03-1.83-1.01-.69-1.99-1.42-2.92-2.2-.94-.78-1.79-1.56-2.58-2.35-.79-.79-1.45-1.57-2-2.33ZM202.7,31.58h22.41v3.28h-22.41v-3.28ZM204.1,23.73h19.31v3.28h-19.31v-3.28ZM205.45,27.83l3.1-1.3c.32.42.64.89.95,1.39.32.5.61,1,.87,1.48.26.49.46.93.58,1.34l-3.31,1.46c-.11-.39-.28-.84-.52-1.35-.24-.51-.5-1.03-.79-1.56-.29-.53-.59-1.01-.89-1.46ZM207.12,18.28h13.36v3.33h-13.36v-3.33ZM211.67,19.63h4.1v13.57h-4.1v-13.57ZM218.68,26.61l3.68,1.32c-.55.79-1.09,1.57-1.64,2.33-.55.76-1.05,1.4-1.51,1.93l-2.88-1.19c.28-.41.57-.86.86-1.36.29-.5.57-1.02.83-1.55.26-.53.49-1.02.66-1.48Z"/>
</svg>