<?xml version="1.0" encoding="UTF-8"?>
<svg id="Layer_2" data-name="Layer 2" xmlns="http://www.w3.org/2000/svg" viewBox="0 0 183.16 117.92">
  <defs>
    <style>
      .cls-1 {
        fill: #fff;
        stroke: #f18523;
        stroke-miterlimit: 10;
        stroke-width: 5.88px;
      }

      .cls-2 {
        fill: #f18523;
        stroke-width: 0px;
      }
    </style>
  </defs>
  <path class="cls-1" d="M150.14,114.98H35.99c-3.1,0-6-1.56-7.7-4.15L4.04,73.98c-1.46-2.22-1.46-5.11,0-7.33L28.29,29.8c1.71-2.59,4.6-4.15,7.7-4.15h114.15c4.12,0,7.46,3.34,7.46,7.46v74.42c0,4.12-3.34,7.46-7.46,7.46Z"/>
  <g>
    <path class="cls-2" d="M37.16,84.57c12.99-9.95,24.23-19.32,24.23-26.62,0-4.39-3.42-6.78-7.24-6.78-4.2,0-7.04,2-11.05,6.01l-6.59-6.53c5.23-5.81,11.76-8.59,18.15-8.59,10.14,0,17.9,5.36,17.9,15.51,0,9.11-7.62,16.54-16.93,24.55,2.58-.26,4.72-.52,6.98-.52h11.89v9.56h-37.34v-6.59Z"/>
    <path class="cls-2" d="M95.05,38.63h7.43l-14.21,64.35h-7.49l14.28-64.35Z"/>
    <path class="cls-2" d="M109.72,81.85h10.21v-26.1h-8.85v-7.11c5.17-1.03,8.53-2.33,11.89-4.39h8.46v37.6h8.66v9.3h-30.37v-9.3Z"/>
  </g>
  <circle class="cls-1" cx="157.52" cy="25.64" r="22.71"/>
  <polygon class="cls-2" points="169.99 29.55 169.99 34.99 145.05 34.99 145.05 29.55 154.55 29.55 154.55 23.37 146.73 23.37 146.73 17.93 154.55 17.93 154.55 10.31 160.34 10.31 160.34 17.93 168.28 17.93 168.28 23.37 160.34 23.37 160.34 29.55 169.99 29.55"/>
</svg>