<?xml version="1.0" encoding="UTF-8"?>
<svg id="Layer_4_copy" data-name="Layer 4 copy" xmlns="http://www.w3.org/2000/svg" viewBox="0 0 302.83 129.56">
  <defs>
    <style>
      .cls-1 {
        fill: #f18523;
        stroke-width: 0px;
      }

      .cls-2 {
        fill: #fff;
        stroke: #f18523;
        stroke-miterlimit: 10;
        stroke-width: 8px;
      }
    </style>
  </defs>
  <path class="cls-2" d="M288.68,125.56H48.97c-4.22,0-8.16-2.12-10.48-5.65L5.49,69.77c-1.99-3.03-1.99-6.95,0-9.98L38.49,9.65c2.32-3.53,6.26-5.65,10.48-5.65h239.71c5.6,0,10.15,4.54,10.15,10.15v101.27c0,5.6-4.54,10.15-10.15,10.15Z"/>
  <g>
    <path class="cls-1" d="M53.3,84.18c17.67-13.54,32.97-26.29,32.97-36.22,0-5.98-4.66-9.23-9.85-9.23-5.71,0-9.58,2.73-15.03,8.18l-8.97-8.88c7.12-7.91,16-11.69,24.71-11.69,13.8,0,24.35,7.3,24.35,21.1,0,12.4-10.38,22.51-23.04,33.41,3.52-.35,6.42-.7,9.5-.7h16.18v13.01h-50.82v-8.97Z"/>
    <path class="cls-1" d="M132.07,21.67h10.11l-19.34,87.57h-10.2l19.43-87.57Z"/>
    <path class="cls-1" d="M152.03,80.49h13.89v-35.52h-12.05v-9.67c7.03-1.41,11.61-3.17,16.18-5.98h11.52v51.17h11.78v12.66h-41.32v-12.66Z"/>
  </g>
  <circle class="cls-2" cx="242.91" cy="60.5" r="30.9"/>
  <polygon class="cls-1" points="259.88 65.81 259.88 73.22 225.94 73.22 225.94 65.81 238.87 65.81 238.87 57.41 228.23 57.41 228.23 50 238.87 50 238.87 39.64 246.75 39.64 246.75 50 257.56 50 257.56 57.41 246.75 57.41 246.75 65.81 259.88 65.81"/>
</svg>