<?xml version="1.0" encoding="UTF-8"?>
<svg id="Layer_1" data-name="Layer 1" xmlns="http://www.w3.org/2000/svg" xmlns:xlink="http://www.w3.org/1999/xlink" viewBox="0 0 577 474.5">
  <defs>
    <style>
      .cls-1 {
        fill: #76cee1;
        stroke: #76cee1;
        stroke-miterlimit: 10;
        stroke-width: 58px;
      }

      .cls-2 {
        fill: #f7f0e5;
      }

      .cls-3 {
        fill: url(#linear-gradient);
      }
    </style>
    <linearGradient id="linear-gradient" x1="288.5" y1="55.25" x2="288.5" y2="419.26" gradientUnits="userSpaceOnUse">
      <stop offset=".29" stop-color="#0795cf"/>
      <stop offset=".6" stop-color="#038abb"/>
      <stop offset="1" stop-color="#0080a6"/>
    </linearGradient>
  </defs>
  <g>
    <polygon class="cls-1" points="362.35 93.28 232.98 88.97 196.9 137.08 137.48 170.26 131.38 189.17 128.51 294.76 142.88 380.83 180.88 385.86 421.99 382.27 453.43 275.88 449.84 185.3 397.36 147.2 362.35 93.28"/>
    <path class="cls-1" d="M180.79,303.96c0,1.48,0,2.59,0,3.69.02,4.23-1.9,5.98-5.79,7.05-1.88.52-3.87.67-5.82.91-1.76.21-2.2-.26-2.26-2.02-.22-7.2-.42-14.4-.71-21.6-.05-1.3.36-1.65,1.6-1.72,1.96-.11,3.93-.33,5.84-.73,4.4-.93,6.57,1.4,6.7,5.18.11,3.2.73,6.39.43,9.22ZM218.49,238.62c.48-1.88.83-3.83.67-5.83-.21-2.56-.22-5.13-.14-7.7.24-7.89-.3-15.77-.15-23.42,0-3.27.01-6.3,0-9.33-.01-1.76-.91-2.81-2.65-3.09-1.86-.3-3.61.28-5.41.61-1.35.25-2.02,1.06-2.49,2.1-.43.94-.65,1.97-.64,3.07.03,3.07.24,6.14.27,9.2.09,10.79.01,21.58-.02,32.36,0,1.08.18,2.1.55,3.09.38,1.04,1.11,1.59,2.24,1.76,1.34.19,2.68.13,3.97-.09,1.64-.28,3.37-.97,3.82-2.73ZM481.55,283.14c-.5.2-.71-.31-.94-.62-2.98-4.09-6.18-7.98-9.97-11.35-.68-.6-1.28-1.3-1.92-1.96,1.7,6.17,3.56,12.24,4.53,18.53.71,4.61,1.22,9.24,1.78,13.87.77,6.27.68,12.54.49,18.82-.03.94-.15,2.2-1,2.55-.98.41-1.4-.87-1.83-1.52-2.51-3.79-5.44-7.27-8.11-10.94-.61-.84-1.31-1.63-2.19-2.72.74,2.85,1.45,5.35,2.03,7.89.89,3.92,1.75,7.85,2.22,11.85.73,6.22.88,12.48.48,18.7-.24,3.73-.06,7.53-1.02,11.2-.06.22-.12.44-.2.66-.43,1.16-.84,1.28-1.54.26-1.5-2.2-2.84-4.51-4.34-6.7-1.73-2.52-3.56-4.98-5.32-7.41-.4.14-.39.34-.39.51-.09,4.32-.24,8.63-.26,12.95-.03,7.35-1.55,14.45-3.4,21.52-1.42,5.42-3,10.78-4.93,16.03-.58,1.57-.85,3.31-2.03,4.64-.23.26-.25.83-.67.78-.53-.06-.61-.63-.74-1.06-.73-2.41-1.44-4.83-2.17-7.24-.5-1.66-1.01-3.32-1.51-4.96-.22-.05-.26.09-.26.21-.1,3.49-.19,6.98-.29,10.46-.18,6.01-.39,12.02-.54,18.03-.03,1.39-.87,1.7-1.98,1.73-2.25.06-4.5.12-6.75.2-6.2.21-12.4.21-18.6.4-9.23.28-18.46.4-27.69.6-4.82.1-9.64.19-14.47.19-1.6,0-3.2-.2-4.8-.31-.92-.07-1.34-.71-1.63-1.47-1.94-5.05-3.45-10.23-5.05-15.39-.19-.61-.41-1.21-.68-2.01-.89,1.52-2.23,1.5-3.63,1.6-4.81.34-9.51-.24-14.16-1.4-1.51-.38-3.01-.79-4.52-1.17-.37-.1-.85-.5-1.1-.03-.22.41.3.72.58.99,1.43,1.36,2.73,2.86,4.29,4.09.38.3.91.61.73,1.21-.15.51-.72.53-1.14.64-3.71.95-7.48.72-11.22.39-3.19-.28-6.37-.62-9.53-1.19-4.48-.79-8.83-1.99-13.07-3.62-.88-.34-1.75-.68-2.82-1.1.47,1.49,1.11,2.63,2.01,3.6.92.98,1.59,2.13,2.34,3.23.5.74.38,1.27-.55,1.54-.75.22-1.51.42-2.29.44-4.83.12-9.6-.36-14.39-.95-4.97-.62-9.82-1.61-14.62-2.99-5.73-1.65-11.04-4.22-16.17-7.21-.2-.12-.38-.28-.59-.35-.5-.18-1.02-.95-1.41-.55-.5.52-.11,1.28.26,1.9,1.49,2.53,2.98,5.06,4.46,7.6.29.5.84,1.02.55,1.62-.32.65-1.07.37-1.64.37-3.56.02-7.01-.78-10.49-1.39-7.21-1.25-13.92-3.88-20.46-7.06-1.85-.9-3.79-1.64-5.65-2.52-.74-.35-1.07-.18-1.31.56-.84,2.67-1.19,5.45-1.84,8.16-.63,2.62-1.09,5.28-2.07,7.81-.28.73-.57,1.46-.96,2.13-.92,1.63-2.06,2.49-4.22,2.62-9.47.56-18.92-.19-28.38-.18-6.61.01-13.22-.28-19.83-.45-6.89-.18-13.77-.35-20.66-.56-3.24-.1-3.33-.22-3.33-3.52-.02-6.66-.02-13.32-.07-19.99-.02-2.32-.38-4.63-.4-6.99-.74,2.5-1.66,4.91-2.43,7.37-.31,1.01-.6,2.03-.98,3.01-.24.62-.4,1.43-1.25,1.48-.94.06-1.16-.78-1.45-1.44-1.38-3.21-2.47-6.52-3.5-9.85-1.61-5.21-2.95-10.49-4.23-15.8-1.7-7.07-1.88-14.25-2.03-21.46-.04-1.94-.11-3.89.05-6.09-1.23.98-1.76,2.13-2.5,3.08-2.34,3.01-4.44,6.19-6.49,9.4-.41.64-.8,1.6-1.64,1.49-.89-.11-.64-1.19-.85-1.85-.28-.87-.36-1.79-.39-2.72-.15-4.58-.73-9.14-.73-13.73,0-3.53.34-7.05.65-10.56.36-4.11,1.27-8.13,2.02-12.18.45-2.42,1.1-4.81,1.69-7.21.16-.63.28-1.24.27-2.35-1.39,2.21-3.17,3.58-4.49,5.37-2.14,2.92-4.29,5.84-6.44,8.76-.31.42-.55,1.08-1.24.88-.66-.2-.57-.85-.61-1.4-.15-2.2-.54-4.4-.44-6.59.19-4.3.1-8.61.59-12.9.33-2.91.3-5.85.68-8.76.52-4.04,1.21-8.04,2.17-12,.9-3.69,2.03-7.32,3.32-10.89.12-.33.38-.65.15-1-.24-.12-.4-.03-.53.1-3.96,3.97-7.73,8.11-10.94,12.73-.1.15-.21.3-.33.44-.29.34-.54.86-1.07.72-.57-.15-.45-.72-.47-1.17-.29-6.27.44-12.44,1.82-18.55,2.01-8.92,4.68-17.62,8.69-25.87,1.74-3.59,3.6-7.13,5.41-10.69.29-.57.55-1.14.95-1.97-1.51.51-2.62,1.19-3.69,1.92-1.97,1.34-3.89,2.77-5.83,4.15-.32.23-.58.73-1.05.45-.42-.25-.22-.75-.25-1.15-.73-11.34,2.71-21.51,8.57-31.03,2.55-4.14,4.65-8.56,7.6-12.46,1.27-1.68,2.66-3.28,3.99-4.92.31-.38.76-.68.82-1.34-1.52.3-2.93.78-4.3,1.37-3.74,1.62-7.69,2.7-11.48,4.17-.32.13-.64.19-.87-.12-.23-.33.01-.6.17-.88,2.43-4.33,4.92-8.64,8.26-12.34,10.34-11.43,22.7-20.08,36.63-26.58,4.57-2.13,9.29-3.94,13.75-6.32,1.46-.78,2.83-1.66,3.99-3.15-3.62.35-7.09.19-10.55.24-.41,0-.83,0-1.24,0-.22,0-.49.01-.61-.22-.16-.32.1-.51.29-.7.32-.33.65-.65.99-.96,6.19-5.48,12.32-11.01,18.59-16.4,3.55-3.05,6.99-6.23,10.44-9.39.2-.19.41-.37.65-.51,1.39-.84,1.36-.79-.02-1.85-3.97-3.03-6.33-7.2-8.14-11.73-2.28-5.7-3.01-11.63-2.23-17.67,1.27-9.76,5.54-17.62,14.86-21.95,1.51-.7,3.23-.93,4.66.3,1.49,1.28,1.45,2.96.91,4.69-.19.61-.37,1.22-.55,1.84-1.11,3.87-.41,7.53,1.43,11.01,3.19,6.04,8.51,8.34,15.04,8.26,6.89-.08,4.61.69,9.91-3.91,6.65-5.78,14.2-10.08,22.44-13.18,3.99-1.5,8.1-2.63,12.26-3.49,5.26-1.09,10.62-1.48,16.01-1.23.05,0,.1,0,.14,0,1.05.36,2.61.14,2.94,1.35.3,1.07-1.11,1.51-1.86,2.12-1.72,1.37-3.48,2.69-5.21,4.06-1.38,1.09-2.47,2.46-3.41,3.94-.14.23-.41.45-.19.72.21.26.51.09.77.03,1.9-.42,3.67-1.18,5.42-1.99,7.13-3.31,14.45-6.13,22.05-8.13,4.5-1.19,9.09-2.07,13.81-2.16,2.29-.04,4.56-.37,6.85.08.9.18,1.82.25,2.64.72,1.25.71,1.28,1.02.07,1.73-3.06,1.79-5.75,4.07-8.44,6.46,1.88-.53,3.76-1.1,5.66-1.57,3.6-.89,7.24-1.5,10.93-1.89,4.1-.43,8.15-.23,12.21.31,2.91.39,5.77,1.03,8.53,2.1,1.47.57,2.43,1.78,3.62,2.7.47.37.28.7-.07,1.02-.55.5-1.19.86-1.87,1.14-2.49,1.05-4.76,2.48-7.17,3.81.46.46.95.5,1.37.49,4.49-.1,8.59,1.43,12.5,3.34,5.04,2.46,10.15,2.06,15.13.51,5.1-1.59,9-4.87,10.13-10.45.71-3.52,1.04-7.1-.74-10.49-.47-.9-.47-1.89-.35-2.83.15-1.12.88-1.72,2.06-1.84,3.12-.31,5.76.78,8.14,2.69,5.3,4.24,8.72,9.64,10.43,16.23,1.17,4.54,1.11,9.01.33,13.59-.79,4.62-2.23,8.96-4.63,12.98-1.72,2.88-4.13,5.1-6.64,7.15,5.4,3.9,10.12,8.59,15.2,12.85,5.66,4.75,11.18,9.66,16.69,14.58.56.5,1.82.67,1.56,1.51-.29.96-1.55.59-2.32.59-3.66.01-7.31-.19-10.93-.87-.24.57.24.67.49.84,3.26,2.27,6.86,3.9,10.46,5.52,9.59,4.33,19.04,8.95,27.66,15.05,6.68,4.73,12.35,10.55,17.4,16.96,2.48,3.14,4.36,6.68,6.09,10.29.1.21.26.43.11.63-.25.33-.58.13-.89.06-2.55-.61-4.96-1.65-7.41-2.53-2.26-.81-4.43-1.88-6.93-2.47.17.8.6,1.26,1.01,1.73,5.34,6.22,9.48,13.16,12.7,20.69,2.02,4.73,3.75,9.56,5,14.53.94,3.72,1.56,7.54,1.3,11.43-.04.62-.17,1.25-.71,1.57-.61.36-1-.26-1.43-.54-2.1-1.4-4.2-2.8-6.3-4.21-.61-.41-1.28-.63-2.16-.8.23,2.09,1.02,3.83,1.86,5.55,2.16,4.46,4.45,8.87,6.24,13.5,2.36,6.11,4.47,12.31,6.17,18.65,1.66,6.19,2.47,12.47,2.39,18.88,0,.39.16.92-.31,1.11ZM366.59,254.12c.03,1.28.37,1.75,1.71,1.8,3.98.16,7.96.47,11.95.72,4.76.29,9.5.87,14.27.96.67.01,1.11.06,1.18-.84.35-4.44.64-8.88.56-13.33-.02-1.07-.35-1.48-1.44-1.45-4.22.15-8.39-.92-12.62-.55-.87.08-1.28-.4-1.32-1.22-.04-.73-.06-1.47-.04-2.2.08-3.99.18-7.99.25-11.98.03-1.7.31-2.04,1.94-1.66,3.61.84,7.32.42,10.95,1,.76.12,1.09-.21,1.19-.95.55-4.17.27-8.35.2-12.52-.03-1.55-.62-1.97-2.22-1.95-3.41.05-6.76-.66-10.17-.63-1.13,0-1.68-.52-1.54-1.73.35-2.88.17-5.78.25-8.68,0-2.34,0-4.69,0-7.03,0-.64.03-1.25.96-1.08,4.33.81,8.73.92,13.1,1.37,1.21.13,1.63-.29,1.61-1.51-.09-3.99.07-7.99-.22-11.98-.13-1.75-.52-2.21-2.33-2.3-1.1-.06-2.19.02-3.3-.17-3.07-.52-6.2-.54-9.29-.88-3.49-.38-7.01-.48-10.48-1.13-.58-.11-1.19-.05-1.79-.06-.73-.01-1.1.31-1.1,1.08-.03,4.07-.1,8.12-.45,12.19-.39,4.55-.04,9.16-.32,13.75-.31,5.03.12,10.1-.39,15.14-.45,4.43-.32,8.9-.39,13.34-.14,8.17-.91,16.32-.7,24.5ZM264.34,116.67c-2.38-4.02-5.8-6.31-10.48-6.45-2.87-.09-5.76-.15-8.54.99-4.35,1.79-6.86,5.04-7.4,9.61-.37,3.12-.37,6.28,1.16,9.27,2.23,4.36,5.83,7.48,11.61,6.91,1.53.19,3.29,0,4.99-.31,2.45-.45,4.45-1.92,6.18-3.64,1.06-1.06,1.97-2.31,2.79-3.57.73-1.11,1.2-2.36,1.22-3.74.05-3.12.16-6.21-1.53-9.07ZM332.61,114.52c-2.15-3.02-4.85-5.33-8.47-6.48-2.21-.7-4.29-1.77-6.62-2.14-.73-.12-1.46-.16-2.19-.14-6.44.14-11.91,2.27-15.85,7.64-1.93,2.64-2.39,5.68-2.62,8.13.11,5.44.87,10.02,4.06,13.81,2.06,2.44,4.72,4.07,7.67,5.18,4.68,1.76,9.46,2.17,14.24.38,4.52-1.69,7.52-4.9,9.71-9.21,1.74-3.42,1.81-7.09,2.31-10.66.32-2.25-.87-4.57-2.25-6.51ZM147.7,268.57c.36.39.93.57,1.46.47s.98-.5,1.16-.99c.29-.79-.33-1.95-.48-2.74-.05-.25-.46-2.95-.3-2.98,1.58-.24,1.55-.23,1.62-2.06.2-5.74-.65-11.46-.5-17.2.12-4.64-.54-9.26-.36-13.91.01-.36-.1-.72-.15-1.09-.66-4.5-.13-9.08-.85-13.58-.06-.35-.06-.87.33-.96.59-.15.57.48.68.82.79,2.53,1.65,5.04,2.31,7.61,2.05,8.06,4.97,15.94,8.4,23.47.4.87.92,1.94,1.46,2.59,1.69,2.01,2.65-1.2,3.17-2.64,1.48-4.51,2.59-9.15,3.63-13.79,1.56-7.05,3.21-14.07,4.52-21.18.15-.79-.04-1.75.69-2.43.63.47.48,1.11.46,1.68-.03.87-.18,1.74-.15,2.61.14,4.03.43,8.06.48,12.1.13,11.07-.21,22.14.23,33.2.05,1.26.46,1.6,1.69,1.67,3.28.21,6.45-.86,9.72-.62.96.07.95-.65.95-1.32-.08-8.54.35-17.08.51-25.61.18-9.32.26-18.64.49-27.96.24-9.64.23-19.28.31-28.92.01-1.57-.09-1.65-1.54-1.21-.72.22-1.44.25-2.18.26-1.01.02-2.04-.05-3.02.12-2.93.49-5.84,1.05-8.83,1.03-.77,0-1.55.16-2.32.25-.8.1-1.15.53-1.24,1.36-.17,1.45-.46,2.89-.72,4.33-.48,2.65-1.07,5.28-1.43,7.95-.61,4.48-1.45,8.92-2.39,13.34-.73,3.43-1.72,6.81-2.58,10.22-.1.39-.06.94-.6.93-.6,0-.59-.58-.69-1.02-.51-2.18-.93-4.39-1.59-6.53-1.18-3.81-1.9-7.72-2.77-11.59-1.1-4.9-1.93-9.87-2.87-14.81-.11-.58-.44-.92-1.02-.92-.69,0-1.39,0-2.05.15-4.11.88-8.25,1.57-12.41,2.09-.71.09-1.12.29-1.13,1.06-.08,5.05-.57,10.14-.12,15.14.35,3.96.19,7.88.23,11.8.06,5.37-.16,10.73.15,16.1.29,5.03.31,10.09.38,15.13.07,4.93.11,9.87.15,14.8h-.07c.03.12.05.24.07.36.02,1.79.03,3.57.06,5.36,0,.71-.23,1.73.03,2.41.09.24.23.35.47.43.3.1.47-.06.63.27.04.23.05.47.03.7.1,1.52.11,3.04.04,4.56-.11,2.37-.41,4.72-.89,7.04-.2.98-.58,1.88-.29,2.88.24.8.77,1.52,1.51,1.93,1.14.64,2.67.49,3.66-.36.61-.52.99-1.28,1.09-2.07.11-.87-.26-1.4-.49-2.19-.17-.59-.32-1.19-.45-1.78-.27-1.22-.48-2.45-.62-3.68-.21-2.38-.28-4.73-.07-7.11.16-.32.47-.49.82-.55,1.24-.27,2.53-.3,3.79-.4-.02,1.14-.13,2.28-.33,3.41-.09.49-.26,1-.28,1.49,0,.38.08.75.39,1.08ZM196.9,301.08c-.14-4.64.23-10.1-.52-15.54-.37-2.7-.89-5.3-2.25-7.69-2.53-4.43-6.23-7.25-11.36-7.72-5.09-.47-10.17.34-15.25.58-4.17.19-8.32.58-12.49.77-1.61.07-3.21.19-4.79.41-2.06.29-2.12.39-1.93,2.42.35,3.75.54,7.5.53,11.26,0,6.06.26,12.11.46,18.16.31,9.49.76,18.98.93,28.48.04,2.06.02,4.14.3,6.18.91,6.55.14,13.18,1.01,19.74.4,3.03.21,6.14.3,9.22.02.55-.07,1.21.8,1.12,1.37-.15,2.73.15,4.12,0,3.37-.36,6.74-.72,10.14-.67.64,0,1.28-.1,1.91-.2.6-.1.79-.46.74-1.09-.46-6.03-.94-12.06-.79-18.12.02-.59-.08-1.19-.12-1.78-.33-4.7-.88-9.4-.7-14.13.03-.71.26-1.12.99-1.23.68-.11,1.35-.32,2.03-.36,4.9-.31,9.75-.95,14.42-2.52,3.89-1.31,7.21-3.47,9.11-7.29,1.59-3.2,2.4-6.63,2.41-10.22.01-2.99,0-5.97,0-9.77ZM255.94,364.85c-.07-2.29-.3-4.57-.41-6.86-.06-1.29-.29-2.65-.61-3.92-.71-2.79-1.08-5.65-1.42-8.49-.38-3.22-.89-6.43-1.35-9.63-.45-3.15-.81-6.33-1.36-9.48-.23-1.3-.5-2.6-.68-3.92-.57-4.35-1.2-8.7-1.82-13.04-.47-3.35-.95-6.7-1.43-10.05-.37-2.58-.57-5.21-1.1-7.74-.88-4.18-1.23-8.42-1.93-12.61-.57-3.41-1-6.86-1.6-10.28-.17-.97-.53-1.3-1.52-1.25-2.3.13-4.59.22-6.89.33-1.54.07-4.11.74-5.5-.05-.65-.37-1.15-.95-1.61-1.53-1.45-1.83-2.71-3.9-3.1-6.21-.51-3.03.81-4.87,2.59-7.08s3.12-4.85,4.07-7.52c1.86-5.24,2.57-11.37,2.09-16.91-1.22-13.95,2.8-43.39-6.1-53.07-4.36-3.95-11.79-2.59-17.09-1.6-11.38,2.66-14.64,12.59-14.29,23.17.17,14.94-1.36,30,.59,44.85.76,4.12,1.45,9.05,5.34,11.42,2.29,1.39,4.94,2.13,7.58,2.54,1.27.2,2.55.3,3.82.39,1.11.08,2.54-.21,3.56.31.38.19.69.5.98.82,2.36,2.68,3.09,6.51,2.67,10.05-.04.35-.1.72-.33,1-.45.55-2.1.26-2.73.29-1.22.04-2.44.1-3.66.17-1.15.07-1.72.45-1.85,1.52-.45,3.59-1.18,7.15-1.61,10.74-.52,4.31-1.22,8.6-1.8,12.9-.62,4.63-1.42,9.23-1.96,13.87-.21,1.77-.34,3.55-.59,5.32-.47,3.25-1.17,6.49-1.42,9.76-.35,4.52-1.02,9.01-1.57,13.5-.52,4.21-.77,8.47-1.74,12.63-.67,2.88-1,5.84-1.37,8.78-.28,2.22-.82,4.41-.66,6.69.07,1.02.33,1.51,1.43,1.51,5.05,0,10.11.03,15.16.1,1.22.02,1.77-.47,1.88-1.64.29-3.14.61-6.28.91-9.41.29-3.01.83-5.97,1.17-8.96.06-.5.28-.73.78-.76,2.28-.15,4.52-.68,6.84-.6,2.33.08,4.69-.07,7.01-.3,1.09-.11,1.19.28,1.29,1.16.27,2.27.39,4.56.65,6.83.4,3.35,1.25,6.64,1.24,10.05,0,.68.18,1.36.27,2.04.12.88.61,1.26,1.51,1.23,4.23-.15,8.44.22,12.67.18,1.24,0,2.49-.09,3.72.03,1.04.09,1.3-.33,1.27-1.24ZM266.79,251.93c.82,2.25,2.76,1.64,4.74,1.59,2.78-.06,5.55-.13,8.33-.19,1.53-.04,1.74-.09,1.75-1.67,0-.28,0-.55,0-.83.16-14.83-.28-29.67.17-44.5.25-8.21.04-16.44.04-24.66h.27c0-3.03,0-6.06,0-9.1,0-1.04-.22-1.98-1.54-2.01-3.95-.1-7.89.05-11.81.54-.66.08-.92.37-.88,1.09.25,4.08.08,8.16.28,12.25.22,4.54.05,9.09.07,13.64,0,1.28.07,2.56.13,3.84.16,3.25.11,6.52.14,9.78,0,.22,0,.51-.27.57-.38.1-.45-.25-.52-.49-.24-.83-.39-1.7-.68-2.51-1.25-3.49-2.5-6.99-3.84-10.45-3.41-8.85-6.87-17.69-10.28-26.54-.45-1.18-1.31-1.31-2.33-1.11-3.74.72-7.56.5-11.33,1.01-1,.13-1.37.42-1.34,1.41.07,2.06,0,4.12.25,6.18.51,4.24.33,8.53.45,12.79.22,7.85.06,15.71.07,23.57,0,6.06,0,12.12-.15,18.19-.13,5.6-.07,11.21,0,16.81.01,1.08-.31,2.42.4,3.21,1.11,1.24,3.94.29,5.34.22,1.84-.1,7.68.47,7.63-2.32-.11-6.7-.25-13.4.21-20.1.4-5.82.21-11.66.23-17.49,0-.23,0-.46.02-.69.02-.22.01-.5.32-.52.3-.02.33.25.4.47.42,1.36.81,2.73,1.27,4.07,3.93,11.39,8.33,22.62,12.47,33.94ZM316.85,363.53c-.14-1.53-.42-3.04-.8-4.53-.64-2.16-1.52-4.26-2.21-6.41-2.61-8.2-5.19-16.41-7.81-24.6-1.27-3.95-1.25-3.87,2-6.44,3.45-2.72,5.9-6.08,6.47-10.64.39-3.07.36-6.13.35-9.21-.02-6.29.23-12.58-.17-18.87-.2-3.14-.94-6.05-2.93-8.57-1.87-2.37-3.98-4.51-6.97-5.35-4.16-1.16-8.45-1.64-12.76-1.52-3.16.09-6.32.07-9.47.11-5.96.08-11.92.42-17.89.4-2.05,0-2.06,0-2.06,2.07,0,15.71,0,31.42,0,47.14h.08c0,15.11,0,30.23,0,45.34,0,4.06,0,4,4.1,4.04,3.82-.02,7.63-.56,11.45-.47.5,0,1.04.01,1.51-.07,1.97-.3,1.79-2.33,1.77-4.04,0-.62-.01-1.23-.02-1.86,0-2.3-.02-4.61-.03-6.91-.04-6.43-.09-12.86-.14-19.29,0-.9.39-1.36,1.33-1.35,1.24.02,2.48.04,3.72,0,.9-.03,1.37.39,1.57,1.21.81,3.33,1.88,6.58,2.89,9.86,2.11,6.87,4.23,13.73,6.33,20.6.34,1.1.9,1.64,2.18,1.57,3.02-.16,6.05-.08,9.08.09,2.19.1,4.42.21,6.63.11,1.5-.06,1.97-1.03,1.78-2.41ZM322.44,246.39c1.37-3.15,2.03-6.44,2.1-9.86.04-1.8-.48-3.83-.4-5.73.05-1.21,1.4-1.91,2.42-1.26,1.47.94,2.99,1.78,4.57,2.52.13.06.26.11.41.13,1.14.18,2.33,0,3.39-.47,1.16-.49,2.31-1.41,3.06-1.42,1.56.02.77,3.48.71,4.49-.04,1.95-.06,3.9-.08,5.85-.03,3.82-.04,7.64-.07,11.45-.01,1.75.7,2.44,2.45,2.37,3.18-.12,6.32.31,9.48.5,1.64.1,2.17-.29,2.18-1.99.04-7.48-.07-14.97.32-22.45.31-5.91-.01-11.84.22-17.76.29-7.25.43-14.51.29-21.76-.03-1.58.31-1.96,1.85-1.49,1.92.59,3.93.29,5.84.85.83.24,1.18-.14,1.17-.99-.02-2.34,0-4.68,0-7.03,0,0-.01,0-.02,0,0-2.3-.03-4.59.02-6.89.02-1.05-.24-1.48-1.42-1.63-2.7-.34-5.41-.25-8.1-.52-6.99-.7-13.98-1.2-21.01-1.06-1.85.04-1.86,0-1.85,1.93,0,3.63.01,7.26.02,10.89,0,2.75.31,2.62,4.07,2.74,1.21.04,2.43,0,3.64-.05s1.68.52,1.65,1.71c-.04,1.19,0,2.39,0,3.58-.04,8.81-.39,17.63-.28,26.44.01,1.03.43,3.69-.16,4.56-.13.19-.32.31-.51.43-2.44,1.48-5.43,1.91-8.21,1.38-1.42-.27-2.8-.8-4.03-1.58-1.57-.99-1.23-2.04-1.5-3.77-.43-2.76-1.68-5.05-3.72-6.86-2.47-2.19-5.1-4.2-7.58-6.38-2.59-2.26-5.58-4.04-7.97-6.55-1.47-1.55-2.97-3.15-3.11-5.36-.18-2.86-.04-5.73-.05-8.6,0-.77.45-1.45,1.15-1.77,1.8-.81,3.69-.65,5.53-.42,1.65.21,2.47,1.47,2.61,3.2.23,2.8.27,5.59.05,8.39-.11,1.42.49,1.94,1.88,2.1,3.2.36,6.42.24,9.63.45,1.22.08,1.51-.27,1.52-1.4.04-3.26-.46-6.51-.3-9.77.16-3.09-.4-6.1-.93-9.13-.78-4.49-4.01-6.32-7.6-7.34-2.1-.59-4.19-.39-6.28-.57-4.58-.4-9.14-.33-13.68.54-5.39,1.02-7.57,4.16-7.71,9.7-.06,2.2.06,4.41-.03,6.6-.1,2.4.77,4.69.61,7.11-.16,2.42-.04,4.87-.03,7.3,0,.52.05,1.04.17,1.55.8,3.39,2.7,6.18,5.01,8.67,4.18,4.51,9.16,8.04,14.44,11.16,1.24.74,2.23,1.74,2.62,3.09,1.16,4.06.91,8.17-.06,12.22-.25,1.05-1,1.76-2.24,1.96-.99.16-1.92-.09-2.87-.11-2.39-.05-3.94-1.62-3.99-4-.03-1.65,0-3.31,0-4.96h.02c0-1.65-.03-3.31.01-4.96.02-.89-.16-1.36-1.2-1.59-3.4-.76-6.9-.74-10.29-1.52-1.01-.23-1.43.27-1.35,1.29.34,4.56-.47,9.09.13,13.72.47,3.61,1.09,6.94,3.35,9.81,1.86,2.37,4.24,4.03,7.18,4.78,3.37.86,6.84.56,10.25.88,3.9.36,6.77-1.64,9.67-3.63,1.31-.9,2.32-2.18,2.98-3.72ZM368.42,286.57c-.04-4.87-.03-9.74-.02-14.61,0-.66-.16-1.27-.33-1.89-.22-.77-.67-1.1-1.5-1.1-8.03.09-16.06-.17-24.09-.5-2.94-.12-5.88-.02-8.82-.02-3.49,0-6.98,0-10.48,0-1.77,0-2,.2-2.02,1.97-.03,3.26-.02,6.52-.02,9.79,0,1.79-.02,3.59.04,5.38.03.78.15,1.5,1.29,1.57,2.27.13,3.04-.31,3.38,2.11.19,1.34.11,2.74.07,4.09-.07,2.4-.99,4.88-.99,7.21,0,1.34,1.08,2.42,2.42,2.42s2.42-1.08,2.42-2.42c0-.45-.35-1.08-.47-1.53-.78-3.08-1.08-6.29-.74-9.47.12-2.33,1.98-2.38,4.09-2.26,2.16,0,2.24.07,2.25,2.23.04,7.57-.18,15.14-.47,22.71-.33,8.53-.09,17.07-.58,25.61-.36,6.32-.21,12.67-.29,19.01,0,.28,0,.56-.05.82-.47,2.43-.51,4.89-.5,7.36,0,.76.35,1.06,1.09,1.08,5.55.15,11.1.4,16.66.3.82-.02,1.18-.31,1.15-1.14-.1-2.43.2-4.84.41-7.26.34-3.97.44-7.98.51-11.94.2-11.43.4-22.86.69-34.3.2-7.67.01-15.34.54-23,.07-1.06.36-1.49,1.5-1.31,1.81.28,3.64.42,5.49.38,1.97-.04,3.97-.14,5.92.08,1.3.14,1.47-.28,1.46-1.37ZM429.51,273.16c-1.63-.22-3.27-.52-4.91-.54-2.99-.04-5.96-.33-8.92-.65-2.56-.27-2.38-.74-3.55,2.3-.03.09-.04.18-.07.27-1.93,5.73-3.85,11.46-5.79,17.18-1.68,4.94-3.38,9.88-5.08,14.82-.13.37-.13.93-.67.91-.59-.02-.61-.57-.71-1.02-1.37-5.78-2.75-11.55-4.11-17.33-1.39-5.92-2.78-11.84-4.11-17.77-.22-.97-.69-1.14-1.59-1.28-3.92-.65-7.88-.3-11.81-.73-1.23-.13-2.44-.46-3.7-.33-.44.05-.94.1-.71.7.47,1.19.18,2.45.49,3.67.96,3.72,2.18,7.37,3.29,11.04,2.29,7.58,4.46,15.2,6.76,22.77,1.34,4.42,2.54,8.88,3.96,13.29.96,2.99,2.23,5.94,2.37,9.15.12,2.88-.19,5.77-.19,8.63-.02,8.04-.97,16.04-.94,24.08,0,1.47.04,2.94-.01,4.41-.04,1.02.38,1.41,1.39,1.36,2.2-.11,4.4-.2,6.61-.24,2.8-.05,5.61-.04,8.41-.04.77,0,1.38-.1,1.37-1.08-.05-3.82.75-7.61.72-11.39-.05-8.46.96-16.87.93-25.32,0-1.45.38-2.81.91-4.14,5.71-14.41,11.58-28.75,17.09-43.24,1.03-2.7,2.07-5.39,3.08-8.1.21-.56.46-1.24-.5-1.37ZM439.09,198.97c.35-1.86-.05-3.64-.45-5.42-.78-3.48-2.52-6.43-4.81-9.15-2.63-3.13-5.99-4.66-9.91-4.95-2.7-.21-5.37-.61-8.06-.82-3.33-.26-6.66-.63-9.98-.99-.68-.07-.84.1-.92.77-.51,4.75-.42,9.53-.45,14.28-.06,9.23-.62,18.46-.43,27.69,0,.27-.01.55-.04.83-.83,8.31-.41,16.69-1.27,25-.24,2.37.24,4.79-.33,7.14-.34,1.42-.21,2.83-.25,4.25-.02.57.22.96.85,1.04,2.96.36,5.9.9,8.87,1.07,3.14.17,2.87.48,2.9-2.8,0-.23,0-.46.03-.69.58-6.44.32-12.93.95-18.03.11-5.88-.69-5.12,4.01-5.2.14,0,.28,0,.41,0,.59,0,.91.26,1.03.87.33,1.71.75,3.4,1.05,5.11.66,3.79,1.5,7.54,2.11,11.35.53,3.29,1.85,6.41,2.13,9.77.1,1.12.59,1.81,1.99,1.96,1.35.14,3.88-.12,5.03.69,1.01.7,1.02,3.12,1.16,4.31.43,3.5.31,7.07-.36,10.54-.26,1.35-.55,2.91.34,3.95.61.72,1.72.95,2.58.58s1.44-1.32,1.42-2.27c-.01-.48-.16-.94-.29-1.4-.98-3.36-1.23-6.93-.76-10.4.24-1.77.84-3.38,1.23-5.1.37-1.6-.27-3.59-.61-5.23-.64-3.09-1.31-6.17-1.98-9.25-.79-3.61-1.6-7.22-2.4-10.83-.57-2.59-1.18-5.16-1.71-7.76-.2-.97-.16-1.91.95-2.46,4.06-2.02,5.22-5.82,5.5-9.84.37-5.3.59-10.63.36-15.96-.04-.87-.07-1.76.09-2.61ZM282.12,311.31c.55.92,3.81.22,4.84.16,3.54-.47,7.69-1.66,9.18-5.19.48-1.11.66-2.38.71-3.59.01-.93,0-1.71-1.01-1.5-4.01,1.42-7.58,3.95-10.82,6.66-.75.73-3.16,2.35-2.91,3.43v.03ZM423.24,193.62c-1.4-.74-2.9-.31-4.32-.62-1.29-.28-1.59.26-1.65,1.42-.29,5.53-.05,11.09-.62,16.61,0,1.19,0,2.39,0,3.58,0,.52.06.99.71,1.16,1.29.33,2.55.67,3.92.57,2.94-.22,5.93-2.84,5.8-5.48-.19-3.64.17-7.25.24-10.87.07-3.2-1.5-5.01-4.08-6.39ZM296.34,295.27c.68-1.95.39-5.36-.62-7.09-.87-1.55-2.5-2.47-4.17-2.95-2.56-.73-5.23-.77-7.87-.65-1.7.01-2.73.56-2.67,2.41-.02,4.75.21,9.51.05,14.27-.3,4.24.22,4.49,3.91,2.51,3.43-1.58,6.57-3.76,9.41-6.25.73-.65,1.54-1.31,1.94-2.21l.02-.05ZM231.2,310.46c-.98-5.91-1.45-11.89-2.64-17.77-.44-2.19-.61-4.44-1.4-6.57-.11-.3-.13-.71-.52-.71-.39,0-.46.4-.53.71-.46,2.27-.95,4.54-1.36,6.82-.47,2.6-.71,5.25-1.34,7.81-.66,2.67-.95,5.39-1.33,8.09-.75,5.39-1.22,10.81-1.88,16.21-.14,1.14.1,1.58,1.31,1.61,2.67.07,5.31-.21,7.96-.39.32,0,.64,0,.96,0,2.58,0,2.72-.02,2.45-2.63-.45-4.41-.96-8.81-1.68-13.18Z"/>
  </g>
  <g>
    <polygon class="cls-2" points="362.35 93.28 232.98 88.97 196.9 137.08 137.48 170.26 131.38 189.17 128.51 294.76 142.88 380.83 180.88 385.86 421.99 382.27 453.43 275.88 449.84 185.3 397.36 147.2 362.35 93.28"/>
    <path class="cls-3" d="M180.79,303.96c0,1.48,0,2.59,0,3.69.02,4.23-1.9,5.98-5.79,7.05-1.88.52-3.87.67-5.82.91-1.76.21-2.2-.26-2.26-2.02-.22-7.2-.42-14.4-.71-21.6-.05-1.3.36-1.65,1.6-1.72,1.96-.11,3.93-.33,5.84-.73,4.4-.93,6.57,1.4,6.7,5.18.11,3.2.73,6.39.43,9.22ZM218.49,238.62c.48-1.88.83-3.83.67-5.83-.21-2.56-.22-5.13-.14-7.7.24-7.89-.3-15.77-.15-23.42,0-3.27.01-6.3,0-9.33-.01-1.76-.91-2.81-2.65-3.09-1.86-.3-3.61.28-5.41.61-1.35.25-2.02,1.06-2.49,2.1-.43.94-.65,1.97-.64,3.07.03,3.07.24,6.14.27,9.2.09,10.79.01,21.58-.02,32.36,0,1.08.18,2.1.55,3.09.38,1.04,1.11,1.59,2.24,1.76,1.34.19,2.68.13,3.97-.09,1.64-.28,3.37-.97,3.82-2.73ZM481.55,283.14c-.5.2-.71-.31-.94-.62-2.98-4.09-6.18-7.98-9.97-11.35-.68-.6-1.28-1.3-1.92-1.96,1.7,6.17,3.56,12.24,4.53,18.53.71,4.61,1.22,9.24,1.78,13.87.77,6.27.68,12.54.49,18.82-.03.94-.15,2.2-1,2.55-.98.41-1.4-.87-1.83-1.52-2.51-3.79-5.44-7.27-8.11-10.94-.61-.84-1.31-1.63-2.19-2.72.74,2.85,1.45,5.35,2.03,7.89.89,3.92,1.75,7.85,2.22,11.85.73,6.22.88,12.48.48,18.7-.24,3.73-.06,7.53-1.02,11.2-.06.22-.12.44-.2.66-.43,1.16-.84,1.28-1.54.26-1.5-2.2-2.84-4.51-4.34-6.7-1.73-2.52-3.56-4.98-5.32-7.41-.4.14-.39.34-.39.51-.09,4.32-.24,8.63-.26,12.95-.03,7.35-1.55,14.45-3.4,21.52-1.42,5.42-3,10.78-4.93,16.03-.58,1.57-.85,3.31-2.03,4.64-.23.26-.25.83-.67.78-.53-.06-.61-.63-.74-1.06-.73-2.41-1.44-4.83-2.17-7.24-.5-1.66-1.01-3.32-1.51-4.96-.22-.05-.26.09-.26.21-.1,3.49-.19,6.98-.29,10.46-.18,6.01-.39,12.02-.54,18.03-.03,1.39-.87,1.7-1.98,1.73-2.25.06-4.5.12-6.75.2-6.2.21-12.4.21-18.6.4-9.23.28-18.46.4-27.69.6-4.82.1-9.64.19-14.47.19-1.6,0-3.2-.2-4.8-.31-.92-.07-1.34-.71-1.63-1.47-1.94-5.05-3.45-10.23-5.05-15.39-.19-.61-.41-1.21-.68-2.01-.89,1.52-2.23,1.5-3.63,1.6-4.81.34-9.51-.24-14.16-1.4-1.51-.38-3.01-.79-4.52-1.17-.37-.1-.85-.5-1.1-.03-.22.41.3.72.58.99,1.43,1.36,2.73,2.86,4.29,4.09.38.3.91.61.73,1.21-.15.51-.72.53-1.14.64-3.71.95-7.48.72-11.22.39-3.19-.28-6.37-.62-9.53-1.19-4.48-.79-8.83-1.99-13.07-3.62-.88-.34-1.75-.68-2.82-1.1.47,1.49,1.11,2.63,2.01,3.6.92.98,1.59,2.13,2.34,3.23.5.74.38,1.27-.55,1.54-.75.22-1.51.42-2.29.44-4.83.12-9.6-.36-14.39-.95-4.97-.62-9.82-1.61-14.62-2.99-5.73-1.65-11.04-4.22-16.17-7.21-.2-.12-.38-.28-.59-.35-.5-.18-1.02-.95-1.41-.55-.5.52-.11,1.28.26,1.9,1.49,2.53,2.98,5.06,4.46,7.6.29.5.84,1.02.55,1.62-.32.65-1.07.37-1.64.37-3.56.02-7.01-.78-10.49-1.39-7.21-1.25-13.92-3.88-20.46-7.06-1.85-.9-3.79-1.64-5.65-2.52-.74-.35-1.07-.18-1.31.56-.84,2.67-1.19,5.45-1.84,8.16-.63,2.62-1.09,5.28-2.07,7.81-.28.73-.57,1.46-.96,2.13-.92,1.63-2.06,2.49-4.22,2.62-9.47.56-18.92-.19-28.38-.18-6.61.01-13.22-.28-19.83-.45-6.89-.18-13.77-.35-20.66-.56-3.24-.1-3.33-.22-3.33-3.52-.02-6.66-.02-13.32-.07-19.99-.02-2.32-.38-4.63-.4-6.99-.74,2.5-1.66,4.91-2.43,7.37-.31,1.01-.6,2.03-.98,3.01-.24.62-.4,1.43-1.25,1.48-.94.06-1.16-.78-1.45-1.44-1.38-3.21-2.47-6.52-3.5-9.85-1.61-5.21-2.95-10.49-4.23-15.8-1.7-7.07-1.88-14.25-2.03-21.46-.04-1.94-.11-3.89.05-6.09-1.23.98-1.76,2.13-2.5,3.08-2.34,3.01-4.44,6.19-6.49,9.4-.41.64-.8,1.6-1.64,1.49-.89-.11-.64-1.19-.85-1.85-.28-.87-.36-1.79-.39-2.72-.15-4.58-.73-9.14-.73-13.73,0-3.53.34-7.05.65-10.56.36-4.11,1.27-8.13,2.02-12.18.45-2.42,1.1-4.81,1.69-7.21.16-.63.28-1.24.27-2.35-1.39,2.21-3.17,3.58-4.49,5.37-2.14,2.92-4.29,5.84-6.44,8.76-.31.42-.55,1.08-1.24.88-.66-.2-.57-.85-.61-1.4-.15-2.2-.54-4.4-.44-6.59.19-4.3.1-8.61.59-12.9.33-2.91.3-5.85.68-8.76.52-4.04,1.21-8.04,2.17-12,.9-3.69,2.03-7.32,3.32-10.89.12-.33.38-.65.15-1-.24-.12-.4-.03-.53.1-3.96,3.97-7.73,8.11-10.94,12.73-.1.15-.21.3-.33.44-.29.34-.54.86-1.07.72-.57-.15-.45-.72-.47-1.17-.29-6.27.44-12.44,1.82-18.55,2.01-8.92,4.68-17.62,8.69-25.87,1.74-3.59,3.6-7.13,5.41-10.69.29-.57.55-1.14.95-1.97-1.51.51-2.62,1.19-3.69,1.92-1.97,1.34-3.89,2.77-5.83,4.15-.32.23-.58.73-1.05.45-.42-.25-.22-.75-.25-1.15-.73-11.34,2.71-21.51,8.57-31.03,2.55-4.14,4.65-8.56,7.6-12.46,1.27-1.68,2.66-3.28,3.99-4.92.31-.38.76-.68.82-1.34-1.52.3-2.93.78-4.3,1.37-3.74,1.62-7.69,2.7-11.48,4.17-.32.13-.64.19-.87-.12-.23-.33.01-.6.17-.88,2.43-4.33,4.92-8.64,8.26-12.34,10.34-11.43,22.7-20.08,36.63-26.58,4.57-2.13,9.29-3.94,13.75-6.32,1.46-.78,2.83-1.66,3.99-3.15-3.62.35-7.09.19-10.55.24-.41,0-.83,0-1.24,0-.22,0-.49.01-.61-.22-.16-.32.1-.51.29-.7.32-.33.65-.65.99-.96,6.19-5.48,12.32-11.01,18.59-16.4,3.55-3.05,6.99-6.23,10.44-9.39.2-.19.41-.37.65-.51,1.39-.84,1.36-.79-.02-1.85-3.97-3.03-6.33-7.2-8.14-11.73-2.28-5.7-3.01-11.63-2.23-17.67,1.27-9.76,5.54-17.62,14.86-21.95,1.51-.7,3.23-.93,4.66.3,1.49,1.28,1.45,2.96.91,4.69-.19.61-.37,1.22-.55,1.84-1.11,3.87-.41,7.53,1.43,11.01,3.19,6.04,8.51,8.34,15.04,8.26,6.89-.08,4.61.69,9.91-3.91,6.65-5.78,14.2-10.08,22.44-13.18,3.99-1.5,8.1-2.63,12.26-3.49,5.26-1.09,10.62-1.48,16.01-1.23.05,0,.1,0,.14,0,1.05.36,2.61.14,2.94,1.35.3,1.07-1.11,1.51-1.86,2.12-1.72,1.37-3.48,2.69-5.21,4.06-1.38,1.09-2.47,2.46-3.41,3.94-.14.23-.41.45-.19.72.21.26.51.09.77.03,1.9-.42,3.67-1.18,5.42-1.99,7.13-3.31,14.45-6.13,22.05-8.13,4.5-1.19,9.09-2.07,13.81-2.16,2.29-.04,4.56-.37,6.85.08.9.18,1.82.25,2.64.72,1.25.71,1.28,1.02.07,1.73-3.06,1.79-5.75,4.07-8.44,6.46,1.88-.53,3.76-1.1,5.66-1.57,3.6-.89,7.24-1.5,10.93-1.89,4.1-.43,8.15-.23,12.21.31,2.91.39,5.77,1.03,8.53,2.1,1.47.57,2.43,1.78,3.62,2.7.47.37.28.7-.07,1.02-.55.5-1.19.86-1.87,1.14-2.49,1.05-4.76,2.48-7.17,3.81.46.46.95.5,1.37.49,4.49-.1,8.59,1.43,12.5,3.34,5.04,2.46,10.15,2.06,15.13.51,5.1-1.59,9-4.87,10.13-10.45.71-3.52,1.04-7.1-.74-10.49-.47-.9-.47-1.89-.35-2.83.15-1.12.88-1.72,2.06-1.84,3.12-.31,5.76.78,8.14,2.69,5.3,4.24,8.72,9.64,10.43,16.23,1.17,4.54,1.11,9.01.33,13.59-.79,4.62-2.23,8.96-4.63,12.98-1.72,2.88-4.13,5.1-6.64,7.15,5.4,3.9,10.12,8.59,15.2,12.85,5.66,4.75,11.18,9.66,16.69,14.58.56.5,1.82.67,1.56,1.51-.29.96-1.55.59-2.32.59-3.66.01-7.31-.19-10.93-.87-.24.57.24.67.49.84,3.26,2.27,6.86,3.9,10.46,5.52,9.59,4.33,19.04,8.95,27.66,15.05,6.68,4.73,12.35,10.55,17.4,16.96,2.48,3.14,4.36,6.68,6.09,10.29.1.21.26.43.11.63-.25.33-.58.13-.89.06-2.55-.61-4.96-1.65-7.41-2.53-2.26-.81-4.43-1.88-6.93-2.47.17.8.6,1.26,1.01,1.73,5.34,6.22,9.48,13.16,12.7,20.69,2.02,4.73,3.75,9.56,5,14.53.94,3.72,1.56,7.54,1.3,11.43-.04.62-.17,1.25-.71,1.57-.61.36-1-.26-1.43-.54-2.1-1.4-4.2-2.8-6.3-4.21-.61-.41-1.28-.63-2.16-.8.23,2.09,1.02,3.83,1.86,5.55,2.16,4.46,4.45,8.87,6.24,13.5,2.36,6.11,4.47,12.31,6.17,18.65,1.66,6.19,2.47,12.47,2.39,18.88,0,.39.16.92-.31,1.11ZM366.59,254.12c.03,1.28.37,1.75,1.71,1.8,3.98.16,7.96.47,11.95.72,4.76.29,9.5.87,14.27.96.67.01,1.11.06,1.18-.84.35-4.44.64-8.88.56-13.33-.02-1.07-.35-1.48-1.44-1.45-4.22.15-8.39-.92-12.62-.55-.87.08-1.28-.4-1.32-1.22-.04-.73-.06-1.47-.04-2.2.08-3.99.18-7.99.25-11.98.03-1.7.31-2.04,1.94-1.66,3.61.84,7.32.42,10.95,1,.76.12,1.09-.21,1.19-.95.55-4.17.27-8.35.2-12.52-.03-1.55-.62-1.97-2.22-1.95-3.41.05-6.76-.66-10.17-.63-1.13,0-1.68-.52-1.54-1.73.35-2.88.17-5.78.25-8.68,0-2.34,0-4.69,0-7.03,0-.64.03-1.25.96-1.08,4.33.81,8.73.92,13.1,1.37,1.21.13,1.63-.29,1.61-1.51-.09-3.99.07-7.99-.22-11.98-.13-1.75-.52-2.21-2.33-2.3-1.1-.06-2.19.02-3.3-.17-3.07-.52-6.2-.54-9.29-.88-3.49-.38-7.01-.48-10.48-1.13-.58-.11-1.19-.05-1.79-.06-.73-.01-1.1.31-1.1,1.08-.03,4.07-.1,8.12-.45,12.19-.39,4.55-.04,9.16-.32,13.75-.31,5.03.12,10.1-.39,15.14-.45,4.43-.32,8.9-.39,13.34-.14,8.17-.91,16.32-.7,24.5ZM264.34,116.67c-2.38-4.02-5.8-6.31-10.48-6.45-2.87-.09-5.76-.15-8.54.99-4.35,1.79-6.86,5.04-7.4,9.61-.37,3.12-.37,6.28,1.16,9.27,2.23,4.36,5.83,7.48,11.61,6.91,1.53.19,3.29,0,4.99-.31,2.45-.45,4.45-1.92,6.18-3.64,1.06-1.06,1.97-2.31,2.79-3.57.73-1.11,1.2-2.36,1.22-3.74.05-3.12.16-6.21-1.53-9.07ZM332.61,114.52c-2.15-3.02-4.85-5.33-8.47-6.48-2.21-.7-4.29-1.77-6.62-2.14-.73-.12-1.46-.16-2.19-.14-6.44.14-11.91,2.27-15.85,7.64-1.93,2.64-2.39,5.68-2.62,8.13.11,5.44.87,10.02,4.06,13.81,2.06,2.44,4.72,4.07,7.67,5.18,4.68,1.76,9.46,2.17,14.24.38,4.52-1.69,7.52-4.9,9.71-9.21,1.74-3.42,1.81-7.09,2.31-10.66.32-2.25-.87-4.57-2.25-6.51ZM147.7,268.57c.36.39.93.57,1.46.47s.98-.5,1.16-.99c.29-.79-.33-1.95-.48-2.74-.05-.25-.46-2.95-.3-2.98,1.58-.24,1.55-.23,1.62-2.06.2-5.74-.65-11.46-.5-17.2.12-4.64-.54-9.26-.36-13.91.01-.36-.1-.72-.15-1.09-.66-4.5-.13-9.08-.85-13.58-.06-.35-.06-.87.33-.96.59-.15.57.48.68.82.79,2.53,1.65,5.04,2.31,7.61,2.05,8.06,4.97,15.94,8.4,23.47.4.87.92,1.94,1.46,2.59,1.69,2.01,2.65-1.2,3.17-2.64,1.48-4.51,2.59-9.15,3.63-13.79,1.56-7.05,3.21-14.07,4.52-21.18.15-.79-.04-1.75.69-2.43.63.47.48,1.11.46,1.68-.03.87-.18,1.74-.15,2.61.14,4.03.43,8.06.48,12.1.13,11.07-.21,22.14.23,33.2.05,1.26.46,1.6,1.69,1.67,3.28.21,6.45-.86,9.72-.62.96.07.95-.65.95-1.32-.08-8.54.35-17.08.51-25.61.18-9.32.26-18.64.49-27.96.24-9.64.23-19.28.31-28.92.01-1.57-.09-1.65-1.54-1.21-.72.22-1.44.25-2.18.26-1.01.02-2.04-.05-3.02.12-2.93.49-5.84,1.05-8.83,1.03-.77,0-1.55.16-2.32.25-.8.1-1.15.53-1.24,1.36-.17,1.45-.46,2.89-.72,4.33-.48,2.65-1.07,5.28-1.43,7.95-.61,4.48-1.45,8.92-2.39,13.34-.73,3.43-1.72,6.81-2.58,10.22-.1.39-.06.94-.6.93-.6,0-.59-.58-.69-1.02-.51-2.18-.93-4.39-1.59-6.53-1.18-3.81-1.9-7.72-2.77-11.59-1.1-4.9-1.93-9.87-2.87-14.81-.11-.58-.44-.92-1.02-.92-.69,0-1.39,0-2.05.15-4.11.88-8.25,1.57-12.41,2.09-.71.09-1.12.29-1.13,1.06-.08,5.05-.57,10.14-.12,15.14.35,3.96.19,7.88.23,11.8.06,5.37-.16,10.73.15,16.1.29,5.03.31,10.09.38,15.13.07,4.93.11,9.87.15,14.8h-.07c.03.12.05.24.07.36.02,1.79.03,3.57.06,5.36,0,.71-.23,1.73.03,2.41.09.24.23.35.47.43.3.1.47-.06.63.27.04.23.05.47.03.7.1,1.52.11,3.04.04,4.56-.11,2.37-.41,4.72-.89,7.04-.2.98-.58,1.88-.29,2.88.24.8.77,1.52,1.51,1.93,1.14.64,2.67.49,3.66-.36.61-.52.99-1.28,1.09-2.07.11-.87-.26-1.4-.49-2.19-.17-.59-.32-1.19-.45-1.78-.27-1.22-.48-2.45-.62-3.68-.21-2.38-.28-4.73-.07-7.11.16-.32.47-.49.82-.55,1.24-.27,2.53-.3,3.79-.4-.02,1.14-.13,2.28-.33,3.41-.09.49-.26,1-.28,1.49,0,.38.08.75.39,1.08ZM196.9,301.08c-.14-4.64.23-10.1-.52-15.54-.37-2.7-.89-5.3-2.25-7.69-2.53-4.43-6.23-7.25-11.36-7.72-5.09-.47-10.17.34-15.25.58-4.17.19-8.32.58-12.49.77-1.61.07-3.21.19-4.79.41-2.06.29-2.12.39-1.93,2.42.35,3.75.54,7.5.53,11.26,0,6.06.26,12.11.46,18.16.31,9.49.76,18.98.93,28.48.04,2.06.02,4.14.3,6.18.91,6.55.14,13.18,1.01,19.74.4,3.03.21,6.14.3,9.22.02.55-.07,1.21.8,1.12,1.37-.15,2.73.15,4.12,0,3.37-.36,6.74-.72,10.14-.67.64,0,1.28-.1,1.91-.2.6-.1.79-.46.74-1.09-.46-6.03-.94-12.06-.79-18.12.02-.59-.08-1.19-.12-1.78-.33-4.7-.88-9.4-.7-14.13.03-.71.26-1.12.99-1.23.68-.11,1.35-.32,2.03-.36,4.9-.31,9.75-.95,14.42-2.52,3.89-1.31,7.21-3.47,9.11-7.29,1.59-3.2,2.4-6.63,2.41-10.22.01-2.99,0-5.97,0-9.77ZM255.94,364.85c-.07-2.29-.3-4.57-.41-6.86-.06-1.29-.29-2.65-.61-3.92-.71-2.79-1.08-5.65-1.42-8.49-.38-3.22-.89-6.43-1.35-9.63-.45-3.15-.81-6.33-1.36-9.48-.23-1.3-.5-2.6-.68-3.92-.57-4.35-1.2-8.7-1.82-13.04-.47-3.35-.95-6.7-1.43-10.05-.37-2.58-.57-5.21-1.1-7.74-.88-4.18-1.23-8.42-1.93-12.61-.57-3.41-1-6.86-1.6-10.28-.17-.97-.53-1.3-1.52-1.25-2.3.13-4.59.22-6.89.33-1.54.07-4.11.74-5.5-.05-.65-.37-1.15-.95-1.61-1.53-1.45-1.83-2.71-3.9-3.1-6.21-.51-3.03.81-4.87,2.59-7.08s3.12-4.85,4.07-7.52c1.86-5.24,2.57-11.37,2.09-16.91-1.22-13.95,2.8-43.39-6.1-53.07-4.36-3.95-11.79-2.59-17.09-1.6-11.38,2.66-14.64,12.59-14.29,23.17.17,14.94-1.36,30,.59,44.85.76,4.12,1.45,9.05,5.34,11.42,2.29,1.39,4.94,2.13,7.58,2.54,1.27.2,2.55.3,3.82.39,1.11.08,2.54-.21,3.56.31.38.19.69.5.98.82,2.36,2.68,3.09,6.51,2.67,10.05-.04.35-.1.72-.33,1-.45.55-2.1.26-2.73.29-1.22.04-2.44.1-3.66.17-1.15.07-1.72.45-1.85,1.52-.45,3.59-1.18,7.15-1.61,10.74-.52,4.31-1.22,8.6-1.8,12.9-.62,4.63-1.42,9.23-1.96,13.87-.21,1.77-.34,3.55-.59,5.32-.47,3.25-1.17,6.49-1.42,9.76-.35,4.52-1.02,9.01-1.57,13.5-.52,4.21-.77,8.47-1.74,12.63-.67,2.88-1,5.84-1.37,8.78-.28,2.22-.82,4.41-.66,6.69.07,1.02.33,1.51,1.43,1.51,5.05,0,10.11.03,15.16.1,1.22.02,1.77-.47,1.88-1.64.29-3.14.61-6.28.91-9.41.29-3.01.83-5.97,1.17-8.96.06-.5.28-.73.78-.76,2.28-.15,4.52-.68,6.84-.6,2.33.08,4.69-.07,7.01-.3,1.09-.11,1.19.28,1.29,1.16.27,2.27.39,4.56.65,6.83.4,3.35,1.25,6.64,1.24,10.05,0,.68.18,1.36.27,2.04.12.88.61,1.26,1.51,1.23,4.23-.15,8.44.22,12.67.18,1.24,0,2.49-.09,3.72.03,1.04.09,1.3-.33,1.27-1.24ZM266.79,251.93c.82,2.25,2.76,1.64,4.74,1.59,2.78-.06,5.55-.13,8.33-.19,1.53-.04,1.74-.09,1.75-1.67,0-.28,0-.55,0-.83.16-14.83-.28-29.67.17-44.5.25-8.21.04-16.44.04-24.66h.27c0-3.03,0-6.06,0-9.1,0-1.04-.22-1.98-1.54-2.01-3.95-.1-7.89.05-11.81.54-.66.08-.92.37-.88,1.09.25,4.08.08,8.16.28,12.25.22,4.54.05,9.09.07,13.64,0,1.28.07,2.56.13,3.84.16,3.25.11,6.52.14,9.78,0,.22,0,.51-.27.57-.38.1-.45-.25-.52-.49-.24-.83-.39-1.7-.68-2.51-1.25-3.49-2.5-6.99-3.84-10.45-3.41-8.85-6.87-17.69-10.28-26.54-.45-1.18-1.31-1.31-2.33-1.11-3.74.72-7.56.5-11.33,1.01-1,.13-1.37.42-1.34,1.41.07,2.06,0,4.12.25,6.18.51,4.24.33,8.53.45,12.79.22,7.85.06,15.71.07,23.57,0,6.06,0,12.12-.15,18.19-.13,5.6-.07,11.21,0,16.81.01,1.08-.31,2.42.4,3.21,1.11,1.24,3.94.29,5.34.22,1.84-.1,7.68.47,7.63-2.32-.11-6.7-.25-13.4.21-20.1.4-5.82.21-11.66.23-17.49,0-.23,0-.46.02-.69.02-.22.01-.5.32-.52.3-.02.33.25.4.47.42,1.36.81,2.73,1.27,4.07,3.93,11.39,8.33,22.62,12.47,33.94ZM316.85,363.53c-.14-1.53-.42-3.04-.8-4.53-.64-2.16-1.52-4.26-2.21-6.41-2.61-8.2-5.19-16.41-7.81-24.6-1.27-3.95-1.25-3.87,2-6.44,3.45-2.72,5.9-6.08,6.47-10.64.39-3.07.36-6.13.35-9.21-.02-6.29.23-12.58-.17-18.87-.2-3.14-.94-6.05-2.93-8.57-1.87-2.37-3.98-4.51-6.97-5.35-4.16-1.16-8.45-1.64-12.76-1.52-3.16.09-6.32.07-9.47.11-5.96.08-11.92.42-17.89.4-2.05,0-2.06,0-2.06,2.07,0,15.71,0,31.42,0,47.14h.08c0,15.11,0,30.23,0,45.34,0,4.06,0,4,4.1,4.04,3.82-.02,7.63-.56,11.45-.47.5,0,1.04.01,1.51-.07,1.97-.3,1.79-2.33,1.77-4.04,0-.62-.01-1.23-.02-1.86,0-2.3-.02-4.61-.03-6.91-.04-6.43-.09-12.86-.14-19.29,0-.9.39-1.36,1.33-1.35,1.24.02,2.48.04,3.72,0,.9-.03,1.37.39,1.57,1.21.81,3.33,1.88,6.58,2.89,9.86,2.11,6.87,4.23,13.73,6.33,20.6.34,1.1.9,1.64,2.18,1.57,3.02-.16,6.05-.08,9.08.09,2.19.1,4.42.21,6.63.11,1.5-.06,1.97-1.03,1.78-2.41ZM322.44,246.39c1.37-3.15,2.03-6.44,2.1-9.86.04-1.8-.48-3.83-.4-5.73.05-1.21,1.4-1.91,2.42-1.26,1.47.94,2.99,1.78,4.57,2.52.13.06.26.11.41.13,1.14.18,2.33,0,3.39-.47,1.16-.49,2.31-1.41,3.06-1.42,1.56.02.77,3.48.71,4.49-.04,1.95-.06,3.9-.08,5.85-.03,3.82-.04,7.64-.07,11.45-.01,1.75.7,2.44,2.45,2.37,3.18-.12,6.32.31,9.48.5,1.64.1,2.17-.29,2.18-1.99.04-7.48-.07-14.97.32-22.45.31-5.91-.01-11.84.22-17.76.29-7.25.43-14.51.29-21.76-.03-1.58.31-1.96,1.85-1.49,1.92.59,3.93.29,5.84.85.83.24,1.18-.14,1.17-.99-.02-2.34,0-4.68,0-7.03,0,0-.01,0-.02,0,0-2.3-.03-4.59.02-6.89.02-1.05-.24-1.48-1.42-1.63-2.7-.34-5.41-.25-8.1-.52-6.99-.7-13.98-1.2-21.01-1.06-1.85.04-1.86,0-1.85,1.93,0,3.63.01,7.26.02,10.89,0,2.75.31,2.62,4.07,2.74,1.21.04,2.43,0,3.64-.05s1.68.52,1.65,1.71c-.04,1.19,0,2.39,0,3.58-.04,8.81-.39,17.63-.28,26.44.01,1.03.43,3.69-.16,4.56-.13.19-.32.31-.51.43-2.44,1.48-5.43,1.91-8.21,1.38-1.42-.27-2.8-.8-4.03-1.58-1.57-.99-1.23-2.04-1.5-3.77-.43-2.76-1.68-5.05-3.72-6.86-2.47-2.19-5.1-4.2-7.58-6.38-2.59-2.26-5.58-4.04-7.97-6.55-1.47-1.55-2.97-3.15-3.11-5.36-.18-2.86-.04-5.73-.05-8.6,0-.77.45-1.45,1.15-1.77,1.8-.81,3.69-.65,5.53-.42,1.65.21,2.47,1.47,2.61,3.2.23,2.8.27,5.59.05,8.39-.11,1.42.49,1.94,1.88,2.1,3.2.36,6.42.24,9.63.45,1.22.08,1.51-.27,1.52-1.4.04-3.26-.46-6.51-.3-9.77.16-3.09-.4-6.1-.93-9.13-.78-4.49-4.01-6.32-7.6-7.34-2.1-.59-4.19-.39-6.28-.57-4.58-.4-9.14-.33-13.68.54-5.39,1.02-7.57,4.16-7.71,9.7-.06,2.2.06,4.41-.03,6.6-.1,2.4.77,4.69.61,7.11-.16,2.42-.04,4.87-.03,7.3,0,.52.05,1.04.17,1.55.8,3.39,2.7,6.18,5.01,8.67,4.18,4.51,9.16,8.04,14.44,11.16,1.24.74,2.23,1.74,2.62,3.09,1.16,4.06.91,8.17-.06,12.22-.25,1.05-1,1.76-2.24,1.96-.99.16-1.92-.09-2.87-.11-2.39-.05-3.94-1.62-3.99-4-.03-1.65,0-3.31,0-4.96h.02c0-1.65-.03-3.31.01-4.96.02-.89-.16-1.36-1.2-1.59-3.4-.76-6.9-.74-10.29-1.52-1.01-.23-1.43.27-1.35,1.29.34,4.56-.47,9.09.13,13.72.47,3.61,1.09,6.94,3.35,9.81,1.86,2.37,4.24,4.03,7.18,4.78,3.37.86,6.84.56,10.25.88,3.9.36,6.77-1.64,9.67-3.63,1.31-.9,2.32-2.18,2.98-3.72ZM368.42,286.57c-.04-4.87-.03-9.74-.02-14.61,0-.66-.16-1.27-.33-1.89-.22-.77-.67-1.1-1.5-1.1-8.03.09-16.06-.17-24.09-.5-2.94-.12-5.88-.02-8.82-.02-3.49,0-6.98,0-10.48,0-1.77,0-2,.2-2.02,1.97-.03,3.26-.02,6.52-.02,9.79,0,1.79-.02,3.59.04,5.38.03.78.15,1.5,1.29,1.57,2.27.13,3.04-.31,3.38,2.11.19,1.34.11,2.74.07,4.09-.07,2.4-.99,4.88-.99,7.21,0,1.34,1.08,2.42,2.42,2.42s2.42-1.08,2.42-2.42c0-.45-.35-1.08-.47-1.53-.78-3.08-1.08-6.29-.74-9.47.12-2.33,1.98-2.38,4.09-2.26,2.16,0,2.24.07,2.25,2.23.04,7.57-.18,15.14-.47,22.71-.33,8.53-.09,17.07-.58,25.61-.36,6.32-.21,12.67-.29,19.01,0,.28,0,.56-.05.82-.47,2.43-.51,4.89-.5,7.36,0,.76.35,1.06,1.09,1.08,5.55.15,11.1.4,16.66.3.82-.02,1.18-.31,1.15-1.14-.1-2.43.2-4.84.41-7.26.34-3.97.44-7.98.51-11.94.2-11.43.4-22.86.69-34.3.2-7.67.01-15.34.54-23,.07-1.06.36-1.49,1.5-1.31,1.81.28,3.64.42,5.49.38,1.97-.04,3.97-.14,5.92.08,1.3.14,1.47-.28,1.46-1.37ZM429.51,273.16c-1.63-.22-3.27-.52-4.91-.54-2.99-.04-5.96-.33-8.92-.65-2.56-.27-2.38-.74-3.55,2.3-.03.09-.04.18-.07.27-1.93,5.73-3.85,11.46-5.79,17.18-1.68,4.94-3.38,9.88-5.08,14.82-.13.37-.13.93-.67.91-.59-.02-.61-.57-.71-1.02-1.37-5.78-2.75-11.55-4.11-17.33-1.39-5.92-2.78-11.84-4.11-17.77-.22-.97-.69-1.14-1.59-1.28-3.92-.65-7.88-.3-11.81-.73-1.23-.13-2.44-.46-3.7-.33-.44.05-.94.1-.71.7.47,1.19.18,2.45.49,3.67.96,3.72,2.18,7.37,3.29,11.04,2.29,7.58,4.46,15.2,6.76,22.77,1.34,4.42,2.54,8.88,3.96,13.29.96,2.99,2.23,5.94,2.37,9.15.12,2.88-.19,5.77-.19,8.63-.02,8.04-.97,16.04-.94,24.08,0,1.47.04,2.94-.01,4.41-.04,1.02.38,1.41,1.39,1.36,2.2-.11,4.4-.2,6.61-.24,2.8-.05,5.61-.04,8.41-.04.77,0,1.38-.1,1.37-1.08-.05-3.82.75-7.61.72-11.39-.05-8.46.96-16.87.93-25.32,0-1.45.38-2.81.91-4.14,5.71-14.41,11.58-28.75,17.09-43.24,1.03-2.7,2.07-5.39,3.08-8.1.21-.56.46-1.24-.5-1.37ZM439.09,198.97c.35-1.86-.05-3.64-.45-5.42-.78-3.48-2.52-6.43-4.81-9.15-2.63-3.13-5.99-4.66-9.91-4.95-2.7-.21-5.37-.61-8.06-.82-3.33-.26-6.66-.63-9.98-.99-.68-.07-.84.1-.92.77-.51,4.75-.42,9.53-.45,14.28-.06,9.23-.62,18.46-.43,27.69,0,.27-.01.55-.04.83-.83,8.31-.41,16.69-1.27,25-.24,2.37.24,4.79-.33,7.14-.34,1.42-.21,2.83-.25,4.25-.02.57.22.96.85,1.04,2.96.36,5.9.9,8.87,1.07,3.14.17,2.87.48,2.9-2.8,0-.23,0-.46.03-.69.58-6.44.32-12.93.95-18.03.11-5.88-.69-5.12,4.01-5.2.14,0,.28,0,.41,0,.59,0,.91.26,1.03.87.33,1.71.75,3.4,1.05,5.11.66,3.79,1.5,7.54,2.11,11.35.53,3.29,1.85,6.41,2.13,9.77.1,1.12.59,1.81,1.99,1.96,1.35.14,3.88-.12,5.03.69,1.01.7,1.02,3.12,1.16,4.31.43,3.5.31,7.07-.36,10.54-.26,1.35-.55,2.91.34,3.95.61.72,1.72.95,2.58.58s1.44-1.32,1.42-2.27c-.01-.48-.16-.94-.29-1.4-.98-3.36-1.23-6.93-.76-10.4.24-1.77.84-3.38,1.23-5.1.37-1.6-.27-3.59-.61-5.23-.64-3.09-1.31-6.17-1.98-9.25-.79-3.61-1.6-7.22-2.4-10.83-.57-2.59-1.18-5.16-1.71-7.76-.2-.97-.16-1.91.95-2.46,4.06-2.02,5.22-5.82,5.5-9.84.37-5.3.59-10.63.36-15.96-.04-.87-.07-1.76.09-2.61ZM282.12,311.31c.55.92,3.81.22,4.84.16,3.54-.47,7.69-1.66,9.18-5.19.48-1.11.66-2.38.71-3.59.01-.93,0-1.71-1.01-1.5-4.01,1.42-7.58,3.95-10.82,6.66-.75.73-3.16,2.35-2.91,3.43v.03ZM423.24,193.62c-1.4-.74-2.9-.31-4.32-.62-1.29-.28-1.59.26-1.65,1.42-.29,5.53-.05,11.09-.62,16.61,0,1.19,0,2.39,0,3.58,0,.52.06.99.71,1.16,1.29.33,2.55.67,3.92.57,2.94-.22,5.93-2.84,5.8-5.48-.19-3.64.17-7.25.24-10.87.07-3.2-1.5-5.01-4.08-6.39ZM296.34,295.27c.68-1.95.39-5.36-.62-7.09-.87-1.55-2.5-2.47-4.17-2.95-2.56-.73-5.23-.77-7.87-.65-1.7.01-2.73.56-2.67,2.41-.02,4.75.21,9.51.05,14.27-.3,4.24.22,4.49,3.91,2.51,3.43-1.58,6.57-3.76,9.41-6.25.73-.65,1.54-1.31,1.94-2.21l.02-.05ZM231.2,310.46c-.98-5.91-1.45-11.89-2.64-17.77-.44-2.19-.61-4.44-1.4-6.57-.11-.3-.13-.71-.52-.71-.39,0-.46.4-.53.71-.46,2.27-.95,4.54-1.36,6.82-.47,2.6-.71,5.25-1.34,7.81-.66,2.67-.95,5.39-1.33,8.09-.75,5.39-1.22,10.81-1.88,16.21-.14,1.14.1,1.58,1.31,1.61,2.67.07,5.31-.21,7.96-.39.32,0,.64,0,.96,0,2.58,0,2.72-.02,2.45-2.63-.45-4.41-.96-8.81-1.68-13.18Z"/>
  </g>
</svg>