<?xml version="1.0" encoding="UTF-8"?>
<svg xmlns="http://www.w3.org/2000/svg" xmlns:xlink="http://www.w3.org/1999/xlink" viewBox="0 0 1772.73 2386.23">
  <defs>
    <style>
      .cls-1 {
        fill: none;
      }

      .cls-2 {
        fill: url(#_ÂÁ_Ï_ÌÌ_È_ËÂÌÚ_8-3);
      }

      .cls-2, .cls-3 {
        opacity: .21;
      }

      .cls-2, .cls-3, .cls-4, .cls-5, .cls-6, .cls-7, .cls-8, .cls-9, .cls-10, .cls-11, .cls-12, .cls-13, .cls-14, .cls-15, .cls-16, .cls-17, .cls-18, .cls-19, .cls-20, .cls-21 {
        mix-blend-mode: multiply;
      }

      .cls-3 {
        fill: url(#_ÂÁ_Ï_ÌÌ_È_ËÂÌÚ_8-2);
      }

      .cls-4 {
        fill: url(#_ÂÁ_Ï_ÌÌ_È_ËÂÌÚ_9-9);
      }

      .cls-4, .cls-5, .cls-6, .cls-7, .cls-8, .cls-9, .cls-10, .cls-11, .cls-20 {
        opacity: .58;
      }

      .cls-5 {
        fill: url(#_ÂÁ_Ï_ÌÌ_È_ËÂÌÚ_9-7);
      }

      .cls-6 {
        fill: url(#_ÂÁ_Ï_ÌÌ_È_ËÂÌÚ_9-8);
      }

      .cls-7 {
        fill: url(#_ÂÁ_Ï_ÌÌ_È_ËÂÌÚ_9-3);
      }

      .cls-8 {
        fill: url(#_ÂÁ_Ï_ÌÌ_È_ËÂÌÚ_9-4);
      }

      .cls-9 {
        fill: url(#_ÂÁ_Ï_ÌÌ_È_ËÂÌÚ_9-2);
      }

      .cls-10 {
        fill: url(#_ÂÁ_Ï_ÌÌ_È_ËÂÌÚ_9-5);
      }

      .cls-11 {
        fill: url(#_ÂÁ_Ï_ÌÌ_È_ËÂÌÚ_9-6);
      }

      .cls-12 {
        fill: url(#_ÂÁ_Ï_ÌÌ_È_ËÂÌÚ_8-4);
        opacity: .15;
      }

      .cls-13 {
        fill: url(#_ÂÁ_Ï_ÌÌ_È_ËÂÌÚ_12);
      }

      .cls-13, .cls-14, .cls-15, .cls-17, .cls-18, .cls-19 {
        opacity: .56;
      }

      .cls-14 {
        fill: url(#_ÂÁ_Ï_ÌÌ_È_ËÂÌÚ_10);
      }

      .cls-15 {
        fill: url(#_ÂÁ_Ï_ÌÌ_È_ËÂÌÚ_11);
      }

      .cls-22 {
        fill: url(#_ÂÁ_Ï_ÌÌ_È_ËÂÌÚ_13);
      }

      .cls-22, .cls-23, .cls-24, .cls-25, .cls-26, .cls-27, .cls-28, .cls-29, .cls-30, .cls-31, .cls-32, .cls-33, .cls-34, .cls-35, .cls-36, .cls-37, .cls-38, .cls-39, .cls-40 {
        mix-blend-mode: screen;
      }

      .cls-41 {
        isolation: isolate;
      }

      .cls-16 {
        fill: #89c0e8;
        opacity: .22;
      }

      .cls-42 {
        fill: #fff;
      }

      .cls-23 {
        fill: url(#_ÂÁ_Ï_ÌÌ_È_ËÂÌÚ_6-13);
      }

      .cls-24 {
        fill: url(#_ÂÁ_Ï_ÌÌ_È_ËÂÌÚ_6-16);
      }

      .cls-25 {
        fill: url(#_ÂÁ_Ï_ÌÌ_È_ËÂÌÚ_6-14);
      }

      .cls-26 {
        fill: url(#_ÂÁ_Ï_ÌÌ_È_ËÂÌÚ_6-15);
      }

      .cls-27 {
        fill: url(#_ÂÁ_Ï_ÌÌ_È_ËÂÌÚ_6-18);
      }

      .cls-28 {
        fill: url(#_ÂÁ_Ï_ÌÌ_È_ËÂÌÚ_6-17);
      }

      .cls-29 {
        fill: url(#_ÂÁ_Ï_ÌÌ_È_ËÂÌÚ_6-12);
      }

      .cls-30 {
        fill: url(#_ÂÁ_Ï_ÌÌ_È_ËÂÌÚ_6-11);
      }

      .cls-31 {
        fill: url(#_ÂÁ_Ï_ÌÌ_È_ËÂÌÚ_6-10);
      }

      .cls-43 {
        opacity: .41;
      }

      .cls-44 {
        opacity: .39;
      }

      .cls-17 {
        fill: url(#_ÂÁ_Ï_ÌÌ_È_ËÂÌÚ_11-3);
      }

      .cls-18 {
        fill: url(#_ÂÁ_Ï_ÌÌ_È_ËÂÌÚ_11-2);
      }

      .cls-32 {
        fill: url(#_ÂÁ_Ï_ÌÌ_È_ËÂÌÚ_6);
      }

      .cls-33 {
        fill: url(#_ÂÁ_Ï_ÌÌ_È_ËÂÌÚ_6-3);
      }

      .cls-34 {
        fill: url(#_ÂÁ_Ï_ÌÌ_È_ËÂÌÚ_6-6);
      }

      .cls-35 {
        fill: url(#_ÂÁ_Ï_ÌÌ_È_ËÂÌÚ_6-4);
      }

      .cls-36 {
        fill: url(#_ÂÁ_Ï_ÌÌ_È_ËÂÌÚ_6-9);
      }

      .cls-37 {
        fill: url(#_ÂÁ_Ï_ÌÌ_È_ËÂÌÚ_6-8);
      }

      .cls-38 {
        fill: url(#_ÂÁ_Ï_ÌÌ_È_ËÂÌÚ_6-7);
      }

      .cls-39 {
        fill: url(#_ÂÁ_Ï_ÌÌ_È_ËÂÌÚ_6-2);
      }

      .cls-40 {
        fill: url(#_ÂÁ_Ï_ÌÌ_È_ËÂÌÚ_6-5);
      }

      .cls-45 {
        clip-path: url(#clippath);
      }

      .cls-46 {
        fill: url(#_ÂÁ_Ï_ÌÌ_È_ËÂÌÚ_15);
      }

      .cls-19 {
        fill: url(#_ÂÁ_Ï_ÌÌ_È_ËÂÌÚ_8);
      }

      .cls-20 {
        fill: url(#_ÂÁ_Ï_ÌÌ_È_ËÂÌÚ_9);
      }

      .cls-21 {
        fill: url(#_ÂÁ_Ï_ÌÌ_È_ËÂÌÚ_7);
        opacity: .26;
      }
    </style>
    <clipPath id="clippath">
      <rect class="cls-1" width="1772.73" height="2386.23"/>
    </clipPath>
    <linearGradient id="_ÂÁ_Ï_ÌÌ_È_ËÂÌÚ_15" data-name="¡ÂÁ˚ÏˇÌÌ˚È „‡‰ËÂÌÚ 15" x1="-4814.15" y1="-1763.02" x2="-890.38" y2="2160.75" gradientTransform="translate(-591.02 3535.13) rotate(137.19)" gradientUnits="userSpaceOnUse">
      <stop offset=".3" stop-color="#4ec1c0"/>
      <stop offset=".47" stop-color="#4abcc1"/>
      <stop offset=".66" stop-color="#41afc4"/>
      <stop offset=".86" stop-color="#3299cb"/>
      <stop offset=".88" stop-color="#3096cc"/>
    </linearGradient>
    <linearGradient id="_ÂÁ_Ï_ÌÌ_È_ËÂÌÚ_9" data-name="¡ÂÁ˚ÏˇÌÌ˚È „‡‰ËÂÌÚ 9" x1="-2870.63" y1="-210.37" x2="-2691.18" y2="-210.37" gradientTransform="translate(-591.02 3535.13) rotate(137.19)" gradientUnits="userSpaceOnUse">
      <stop offset=".16" stop-color="#3096cc"/>
      <stop offset=".24" stop-color="#3799cd"/>
      <stop offset=".37" stop-color="#4aa3d2"/>
      <stop offset=".51" stop-color="#6ab3da"/>
      <stop offset=".68" stop-color="#97cae5"/>
      <stop offset=".85" stop-color="#d0e7f3"/>
      <stop offset=".98" stop-color="#fff"/>
    </linearGradient>
    <linearGradient id="_ÂÁ_Ï_ÌÌ_È_ËÂÌÚ_9-2" data-name="¡ÂÁ˚ÏˇÌÌ˚È „‡‰ËÂÌÚ 9" x1="-3274.37" y1="-119.78" x2="-2596.24" y2="-119.78" xlink:href="#_ÂÁ_Ï_ÌÌ_È_ËÂÌÚ_9"/>
    <linearGradient id="_ÂÁ_Ï_ÌÌ_È_ËÂÌÚ_9-3" data-name="¡ÂÁ˚ÏˇÌÌ˚È „‡‰ËÂÌÚ 9" x1="-2449.34" y1="351.54" x2="-2302.56" y2="351.54" xlink:href="#_ÂÁ_Ï_ÌÌ_È_ËÂÌÚ_9"/>
    <linearGradient id="_ÂÁ_Ï_ÌÌ_È_ËÂÌÚ_9-4" data-name="¡ÂÁ˚ÏˇÌÌ˚È „‡‰ËÂÌÚ 9" x1="-2969.99" y1="702.8" x2="-2870.25" y2="702.8" xlink:href="#_ÂÁ_Ï_ÌÌ_È_ËÂÌÚ_9"/>
    <linearGradient id="_ÂÁ_Ï_ÌÌ_È_ËÂÌÚ_9-5" data-name="¡ÂÁ˚ÏˇÌÌ˚È „‡‰ËÂÌÚ 9" x1="-4381.47" y1="575.65" x2="-3847.3" y2="575.65" xlink:href="#_ÂÁ_Ï_ÌÌ_È_ËÂÌÚ_9"/>
    <linearGradient id="_ÂÁ_Ï_ÌÌ_È_ËÂÌÚ_9-6" data-name="¡ÂÁ˚ÏˇÌÌ˚È „‡‰ËÂÌÚ 9" x1="-3957.63" y1="633.21" x2="-3744.33" y2="633.21" xlink:href="#_ÂÁ_Ï_ÌÌ_È_ËÂÌÚ_9"/>
    <linearGradient id="_ÂÁ_Ï_ÌÌ_È_ËÂÌÚ_9-7" data-name="¡ÂÁ˚ÏˇÌÌ˚È „‡‰ËÂÌÚ 9" x1="-3376.72" y1="856.43" x2="-3229.08" y2="856.43" xlink:href="#_ÂÁ_Ï_ÌÌ_È_ËÂÌÚ_9"/>
    <linearGradient id="_ÂÁ_Ï_ÌÌ_È_ËÂÌÚ_9-8" data-name="¡ÂÁ˚ÏˇÌÌ˚È „‡‰ËÂÌÚ 9" x1="-2843.86" y1="774.9" x2="-2675.6" y2="774.9" xlink:href="#_ÂÁ_Ï_ÌÌ_È_ËÂÌÚ_9"/>
    <linearGradient id="_ÂÁ_Ï_ÌÌ_È_ËÂÌÚ_6" data-name="¡ÂÁ˚ÏˇÌÌ˚È „‡‰ËÂÌÚ 6" x1="-4363.23" y1="639.2" x2="-3834.23" y2="639.2" gradientTransform="translate(-591.02 3535.13) rotate(137.19)" gradientUnits="userSpaceOnUse">
      <stop offset="0" stop-color="#4ec1c0"/>
      <stop offset="1" stop-color="#000"/>
    </linearGradient>
    <linearGradient id="_ÂÁ_Ï_ÌÌ_È_ËÂÌÚ_6-2" data-name="¡ÂÁ˚ÏˇÌÌ˚È „‡‰ËÂÌÚ 6" x1="-3944.76" y1="668.99" x2="-3700.43" y2="668.99" xlink:href="#_ÂÁ_Ï_ÌÌ_È_ËÂÌÚ_6"/>
    <linearGradient id="_ÂÁ_Ï_ÌÌ_È_ËÂÌÚ_13" data-name="¡ÂÁ˚ÏˇÌÌ˚È „‡‰ËÂÌÚ 13" x1="-3232.13" y1="-32.14" x2="-2594.08" y2="-32.14" gradientTransform="translate(-591.02 3535.13) rotate(137.19)" gradientUnits="userSpaceOnUse">
      <stop offset=".25" stop-color="#4ec1c0"/>
      <stop offset="1" stop-color="#000"/>
    </linearGradient>
    <linearGradient id="_ÂÁ_Ï_ÌÌ_È_ËÂÌÚ_6-3" data-name="¡ÂÁ˚ÏˇÌÌ˚È „‡‰ËÂÌÚ 6" x1="-2967.37" y1="725.85" x2="-2868.76" y2="725.85" xlink:href="#_ÂÁ_Ï_ÌÌ_È_ËÂÌÚ_6"/>
    <linearGradient id="_ÂÁ_Ï_ÌÌ_È_ËÂÌÚ_6-4" data-name="¡ÂÁ˚ÏˇÌÌ˚È „‡‰ËÂÌÚ 6" x1="-2838.83" y1="806.27" x2="-2667.24" y2="806.27" xlink:href="#_ÂÁ_Ï_ÌÌ_È_ËÂÌÚ_6"/>
    <linearGradient id="_ÂÁ_Ï_ÌÌ_È_ËÂÌÚ_6-5" data-name="¡ÂÁ˚ÏˇÌÌ˚È „‡‰ËÂÌÚ 6" x1="-2447.73" y1="386.15" x2="-2303.45" y2="386.15" xlink:href="#_ÂÁ_Ï_ÌÌ_È_ËÂÌÚ_6"/>
    <linearGradient id="_ÂÁ_Ï_ÌÌ_È_ËÂÌÚ_6-6" data-name="¡ÂÁ˚ÏˇÌÌ˚È „‡‰ËÂÌÚ 6" x1="-3376.18" y1="874.6" x2="-3229.37" y2="874.6" xlink:href="#_ÂÁ_Ï_ÌÌ_È_ËÂÌÚ_6"/>
    <linearGradient id="_ÂÁ_Ï_ÌÌ_È_ËÂÌÚ_6-7" data-name="¡ÂÁ˚ÏˇÌÌ˚È „‡‰ËÂÌÚ 6" x1="-1638.44" y1="1055.36" x2="-2063.87" y2="4918.09" gradientTransform="translate(-912.97 4489.52) rotate(175.9)" xlink:href="#_ÂÁ_Ï_ÌÌ_È_ËÂÌÚ_6"/>
    <linearGradient id="_ÂÁ_Ï_ÌÌ_È_ËÂÌÚ_6-8" data-name="¡ÂÁ˚ÏˇÌÌ˚È „‡‰ËÂÌÚ 6" x1="-3077.3" y1="2049.4" x2="-3397.96" y2="4960.8" gradientTransform="translate(-912.97 4489.52) rotate(175.9)" xlink:href="#_ÂÁ_Ï_ÌÌ_È_ËÂÌÚ_6"/>
    <linearGradient id="_ÂÁ_Ï_ÌÌ_È_ËÂÌÚ_12" data-name="¡ÂÁ˚ÏˇÌÌ˚È „‡‰ËÂÌÚ 12" x1="-3688.53" y1="1494.94" x2="-2452.61" y2="1494.94" gradientTransform="translate(-591.02 3535.13) rotate(137.19)" gradientUnits="userSpaceOnUse">
      <stop offset=".31" stop-color="#3096cc"/>
      <stop offset="1" stop-color="#fff"/>
    </linearGradient>
    <linearGradient id="_ÂÁ_Ï_ÌÌ_È_ËÂÌÚ_11" data-name="¡ÂÁ˚ÏˇÌÌ˚È „‡‰ËÂÌÚ 11" x1="-3599.39" y1="1440.01" x2="-1607.25" y2="1440.01" gradientTransform="translate(-591.02 3535.13) rotate(137.19)" gradientUnits="userSpaceOnUse">
      <stop offset=".41" stop-color="#3096cc"/>
      <stop offset="1" stop-color="#fff"/>
    </linearGradient>
    <linearGradient id="_ÂÁ_Ï_ÌÌ_È_ËÂÌÚ_11-2" data-name="¡ÂÁ˚ÏˇÌÌ˚È „‡‰ËÂÌÚ 11" x1="-1858" y1="-114.65" x2="-263.57" y2="-114.65" xlink:href="#_ÂÁ_Ï_ÌÌ_È_ËÂÌÚ_11"/>
    <linearGradient id="_ÂÁ_Ï_ÌÌ_È_ËÂÌÚ_11-3" data-name="¡ÂÁ˚ÏˇÌÌ˚È „‡‰ËÂÌÚ 11" x1="-2370.94" y1="1183.46" x2="-34.74" y2="1183.46" xlink:href="#_ÂÁ_Ï_ÌÌ_È_ËÂÌÚ_11"/>
    <linearGradient id="_ÂÁ_Ï_ÌÌ_È_ËÂÌÚ_10" data-name="¡ÂÁ˚ÏˇÌÌ˚È „‡‰ËÂÌÚ 10" x1="-4802.44" y1="-606.46" x2="-1764.86" y2="3183.04" gradientTransform="translate(-912.97 4489.52) rotate(175.9)" gradientUnits="userSpaceOnUse">
      <stop offset="0" stop-color="#fff"/>
      <stop offset=".59" stop-color="#3096cc"/>
    </linearGradient>
    <linearGradient id="_ÂÁ_Ï_ÌÌ_È_ËÂÌÚ_9-9" data-name="¡ÂÁ˚ÏˇÌÌ˚È „‡‰ËÂÌÚ 9" x1="-2266.6" y1="4934.33" x2="-2266.6" y2="1052.87" gradientTransform="translate(-912.97 4489.52) rotate(175.9)" xlink:href="#_ÂÁ_Ï_ÌÌ_È_ËÂÌÚ_9"/>
    <linearGradient id="_ÂÁ_Ï_ÌÌ_È_ËÂÌÚ_6-9" data-name="¡ÂÁ˚ÏˇÌÌ˚È „‡‰ËÂÌÚ 6" x1="-2429.59" y1="4934.37" x2="-2429.59" y2="1052.64" gradientTransform="translate(-912.97 4489.52) rotate(175.9)" xlink:href="#_ÂÁ_Ï_ÌÌ_È_ËÂÌÚ_6"/>
    <linearGradient id="_ÂÁ_Ï_ÌÌ_È_ËÂÌÚ_8" data-name="¡ÂÁ˚ÏˇÌÌ˚È „‡‰ËÂÌÚ 8" x1="-2647.28" y1="-273.35" x2="-2667.29" y2="-720.39" gradientTransform="translate(-591.02 3535.13) rotate(137.19)" gradientUnits="userSpaceOnUse">
      <stop offset="0" stop-color="#3096cc"/>
      <stop offset=".52" stop-color="#fff"/>
    </linearGradient>
    <linearGradient id="_ÂÁ_Ï_ÌÌ_È_ËÂÌÚ_8-2" data-name="¡ÂÁ˚ÏˇÌÌ˚È „‡‰ËÂÌÚ 8" x1="-2022.1" y1="-401.86" x2="-662.95" y2="-401.86" xlink:href="#_ÂÁ_Ï_ÌÌ_È_ËÂÌÚ_8"/>
    <linearGradient id="_ÂÁ_Ï_ÌÌ_È_ËÂÌÚ_8-3" data-name="¡ÂÁ˚ÏˇÌÌ˚È „‡‰ËÂÌÚ 8" x1="-2573.67" y1="1844.9" x2="-1723.01" y2="1844.9" xlink:href="#_ÂÁ_Ï_ÌÌ_È_ËÂÌÚ_8"/>
    <linearGradient id="_ÂÁ_Ï_ÌÌ_È_ËÂÌÚ_8-4" data-name="¡ÂÁ˚ÏˇÌÌ˚È „‡‰ËÂÌÚ 8" x1="-5580.35" y1="-48.24" x2="-3344.51" y2="-48.24" xlink:href="#_ÂÁ_Ï_ÌÌ_È_ËÂÌÚ_8"/>
    <linearGradient id="_ÂÁ_Ï_ÌÌ_È_ËÂÌÚ_7" data-name="¡ÂÁ˚ÏˇÌÌ˚È „‡‰ËÂÌÚ 7" x1="-3931.17" y1="800.27" x2="-59.31" y2="800.27" gradientTransform="translate(-591.02 3535.13) rotate(137.19)" gradientUnits="userSpaceOnUse">
      <stop offset="0" stop-color="#3096cc"/>
      <stop offset=".37" stop-color="#fff"/>
    </linearGradient>
    <linearGradient id="_ÂÁ_Ï_ÌÌ_È_ËÂÌÚ_6-10" data-name="¡ÂÁ˚ÏˇÌÌ˚È „‡‰ËÂÌÚ 6" x1="-1868.5" y1="-10.93" x2="-2069.07" y2="-10.93" xlink:href="#_ÂÁ_Ï_ÌÌ_È_ËÂÌÚ_6"/>
    <linearGradient id="_ÂÁ_Ï_ÌÌ_È_ËÂÌÚ_6-11" data-name="¡ÂÁ˚ÏˇÌÌ˚È „‡‰ËÂÌÚ 6" x1="-2506.32" y1="-300.68" x2="-2888.33" y2="-300.68" xlink:href="#_ÂÁ_Ï_ÌÌ_È_ËÂÌÚ_6"/>
    <linearGradient id="_ÂÁ_Ï_ÌÌ_È_ËÂÌÚ_6-12" data-name="¡ÂÁ˚ÏˇÌÌ˚È „‡‰ËÂÌÚ 6" x1="-2394.04" y1="1807.78" x2="-2629.69" y2="1807.78" xlink:href="#_ÂÁ_Ï_ÌÌ_È_ËÂÌÚ_6"/>
    <linearGradient id="_ÂÁ_Ï_ÌÌ_È_ËÂÌÚ_6-13" data-name="¡ÂÁ˚ÏˇÌÌ˚È „‡‰ËÂÌÚ 6" x1="-3837.87" y1="769.74" x2="-3947.5" y2="769.74" xlink:href="#_ÂÁ_Ï_ÌÌ_È_ËÂÌÚ_6"/>
    <linearGradient id="_ÂÁ_Ï_ÌÌ_È_ËÂÌÚ_6-14" data-name="¡ÂÁ˚ÏˇÌÌ˚È „‡‰ËÂÌÚ 6" x1="-3442.65" y1="625.04" x2="-3841.37" y2="625.04" xlink:href="#_ÂÁ_Ï_ÌÌ_È_ËÂÌÚ_6"/>
    <linearGradient id="_ÂÁ_Ï_ÌÌ_È_ËÂÌÚ_6-15" data-name="¡ÂÁ˚ÏˇÌÌ˚È „‡‰ËÂÌÚ 6" x1="871.66" y1="-80.51" x2="-3507.36" y2="3429.62" gradientTransform="translate(-912.97 4489.52) rotate(175.9)" xlink:href="#_ÂÁ_Ï_ÌÌ_È_ËÂÌÚ_6"/>
    <linearGradient id="_ÂÁ_Ï_ÌÌ_È_ËÂÌÚ_6-16" data-name="¡ÂÁ˚ÏˇÌÌ˚È „‡‰ËÂÌÚ 6" x1="1988.7" y1="79.42" x2="-2681.93" y2="3823.3" gradientTransform="translate(-912.97 4489.52) rotate(175.9)" xlink:href="#_ÂÁ_Ï_ÌÌ_È_ËÂÌÚ_6"/>
    <linearGradient id="_ÂÁ_Ï_ÌÌ_È_ËÂÌÚ_6-17" data-name="¡ÂÁ˚ÏˇÌÌ˚È „‡‰ËÂÌÚ 6" x1="5704.45" y1="-2086.7" x2="-11268.53" y2="11518.47" gradientTransform="translate(-912.97 4489.52) rotate(175.9)" xlink:href="#_ÂÁ_Ï_ÌÌ_È_ËÂÌÚ_6"/>
    <linearGradient id="_ÂÁ_Ï_ÌÌ_È_ËÂÌÚ_6-18" data-name="¡ÂÁ˚ÏˇÌÌ˚È „‡‰ËÂÌÚ 6" x1="2068.73" y1="207.47" x2="-15053.6" y2="13932.36" gradientTransform="translate(-912.97 4489.52) rotate(175.9)" xlink:href="#_ÂÁ_Ï_ÌÌ_È_ËÂÌÚ_6"/>
  </defs>
  <g class="cls-41">
    <g id="Layer_1" data-name="Layer 1">
      <g class="cls-45">
        <g class="cls-43">
          <g>
            <path class="cls-46" d="M263.4,1238.42c-627.85,721.09-1715.3,1301.5-1715.3,1301.5l501.44,742.15s53.54-323.69,536.98-1017.06C-20.01,1700.66,619.27,1025.53,767.73,1849.91c150.25,834.35-331.39,1818.73-331.39,1818.73l526.32-350.06s-51.31-59.88-80.11-670.75c-28.36-601.54,194.01-867.48,447.71-702.05,249.54,162.72,417.05,529.78,417.05,529.78l39.54-38.46c-129.34-375.77-284.61-594.15,188-940.16,449-328.73,1368.43-554.72,1368.43-554.72,0,0,716.45-214.72-70.79-.23-857.24,233.56-1061.09,115.13-532.05-133.19,500.49-234.92,996.87-219.65,996.87-219.65,0,0,897-579.11,160.91-203.98-804.93,410.22-1766.04-63.01-1458.7-325.34,549.75-469.23,1315.39-147.64,1315.39-147.64l-731.98-651.19S2688.36-46.37,2085.16,185.25C1217.68,518.34-116.58,315.85-116.58,315.85l-623.18,523.28S2440.76,73.74,1455.64,524.69C360.62,1025.95-739.75,839.13-739.75,839.13c0,0-459,526.59-449.13,519.21,9.86-7.37,2037.53-792.08,1452.28-119.92ZM-977.58,2642.77c-62.06,5.18,184.78-243.03,236.45-219.03,32.32,15.01-174.4,213.85-236.45,219.03ZM-715.31,2551.28c-67.22-14.14,147.89-280.26,179.51-242.69,27.73,32.95-112.29,256.83-179.51,242.69ZM740.88,3422.16c-69.35,30.81-20.81-233.83,29.18-244.31,36.45-7.64,40.18,213.49-29.18,244.31ZM845.91,2543.95c43.53,211.33-24.73,645.97-76.41,600.63-51.84-45.47,16.93-889.37,76.41-600.63ZM3079.85-272.67c18.91,27.33-133.18,67.6-157.84,53.86-24.66-13.73,129.65-94.6,157.84-53.86ZM2944.15-306.95c12.82,35.38-135.29,151.58-184.23,134.84-48.94-16.74,158.96-204.56,184.23-134.84ZM1005.54,1656.67c12.28,48.64-196.11,37.73-204.12-12.16-8.01-49.89,194.49-26,204.12,12.16ZM1673.14,1755.56c8.33,16.01-152.76,110.25-173.57,75.55-20.8-34.7,152.55-115.98,173.57-75.55ZM1335.44,1792.78c-143.33-113.14,482.42-399.5,583.14-363.29,105.43,37.9-441.07,475.43-583.14,363.29ZM2564.1,1113.23c-10.42-30.15,185.81-40,192.69-25.69,6.89,14.31-182.28,55.83-192.69,25.69ZM2533.6,1111.24c8.54,13.39-36.33,20.92-45.73,7.34-9.4-13.58,31.7-29.36,45.73-7.34ZM2502.25,850.56c1.04,24.97-219.86,44.48-224.91,25.28-5.05-19.2,223.19-66.66,224.91-25.28ZM3176.52,592.08c-11.59-21.1,116.43-25.53,126.21-8.1,9.78,17.43-114.62,29.2-126.21,8.1ZM3155.98,588.82c12.64,18.27-55.97,37.52-79.91,15.12-23.93-22.4,65.81-35.5,79.91-15.12ZM1734.75,366c80.03-129.95,604.51-228.58,582.38-122.61-22.25,106.55-636.18,209.98-582.38,122.61ZM1672.8,467.24c-4.16-31.98,242.28-73.55,251.2-39.86,6.01,22.71-247.04,71.85-251.2,39.86ZM1814.67,749.17c-25.29-362.57,1309.03-319.96,1054.99-102.17-262.16,224.74-1044.56,251.6-1054.99,102.17ZM1169.12,683.09c-13.22-21.19,128.31-91.8,151.61-52.89,9.49,15.84-138.4,74.08-151.61,52.89ZM681.03,872.26c67.3-214.18,1216.82-161.86,1205.63-16.35-11.25,146.32-1253.62,169.08-1205.63,16.35ZM1121.47,1013.1c14.53,17.33-99.92,50.26-107.61,29.91-7.69-20.35,84.76-57.16,107.61-29.91ZM986.84,1053.35c23.37,23.88-130.71,98.61-172.03,61.75-41.32-36.87,138.59-95.91,172.03-61.75ZM2412.47,1072.22c-73.66,167.3-1419.68,825.52-1784.13,405.19-371.12-428.04,1931.4-739.68,1784.13-405.19Z"/>
            <g>
              <path class="cls-20" d="M1503.69,1835.21c.18.39.26.81.49,1.19,20.8,34.7,181.89-59.53,173.57-75.55-1.11-2.13-2.73-3.86-4.64-5.34,7.95,15.28-137.28,101.18-169.42,79.7Z"/>
              <path class="cls-9" d="M1335.44,1792.78c-2.61-2.06-4.89-4.2-7-6.37,3.09,4.06,6.91,7.96,11.6,11.66,42.73,33.73,122.07,17.7,209.24-22.2,9.28-5.1,19.2-9.91,29.28-14.14,188.76-95.67,398.53-286.79,351.14-323.36,39.38,72.4-459.45,460.82-594.26,354.41Z"/>
              <path class="cls-7" d="M809.57,1658.35c28.71,42.43,212.11,49.33,200.57,3.61-.81-3.22-3.09-6.32-6.4-9.29.81,1.32,1.46,2.65,1.8,4,11.04,43.74-156.33,39.3-195.96,1.68Z"/>
              <path class="cls-8" d="M1018.21,1047.15c.07.39.11.78.25,1.15,7.69,20.35,122.14-12.59,107.61-29.92-1.03-1.23-2.25-2.29-3.55-3.26,4.51,16.1-82.83,42.14-104.31,32.03Z"/>
              <path class="cls-10" d="M2321.73,248.68c2.15-10.28-.91-18.62-8.15-25.21,3.79,5.61,5.16,12.21,3.55,19.92-20.04,95.95-519.72,189.33-579.75,143.19,29.53,57.88,563.62-38.64,584.35-137.9Z"/>
              <path class="cls-11" d="M1928.6,432.67c-.59-2.23-2.28-4.11-4.81-5.71,5.79,21.48-211.44,65.25-246.23,45.94,6.22,31.17,257.03-17.62,251.05-40.23Z"/>
              <path class="cls-5" d="M1325.33,635.49c-1.19-1.99-2.77-3.62-4.54-5.06,7.59,15.16-121.32,66.93-147.86,55.64.1.82.34,1.6.79,2.32,13.22,21.19,161.1-37.05,151.61-52.9Z"/>
              <path class="cls-6" d="M991.44,1058.64c-.81-.83-1.78-1.56-2.75-2.28,9.64,26.37-132.66,93.44-173.22,59.22.98,1.63,2.2,3.24,3.94,4.8,41.32,36.87,195.4-37.87,172.03-61.74Z"/>
            </g>
            <g>
              <path class="cls-32" d="M1734.75,366c63.46-103.05,406.34-186.38,534.58-163.64-213.47-44.3-526.99,113.26-547,130.62-19.4,16.85-46.25,39.22,25.66,59.01-15.2-5.27-20.78-13.76-13.24-25.99Z"/>
              <path class="cls-39" d="M1800.19,468.17c-62.38,10.86-125.34,14.9-127.39-.92-3.37-25.92,157.78-58.11,223.79-51.48-162.4-20.36-252.53,30.45-271.43,59.77-18.62,28.89,165.73-5.61,175.03-7.37Z"/>
              <path class="cls-22" d="M1864,1429.23c-119.87,15.54-296.77,94.33-427.74,166.84-145.21,80.39-162.09,161.55-97.55,199.14-.72-.64-2.04-1.47-3.26-2.43-126.63-99.96,347.02-335.09,528.56-363.55Z"/>
              <path class="cls-33" d="M1013.86,1043.01c-6.82-18.05,65.1-49.01,97.4-36.78-35.12-15.16-89.37,3.77-101.5,19.67-8.33,10.92.38,17.39,7,20.46-1.38-.9-2.39-2-2.9-3.35Z"/>
              <path class="cls-35" d="M814.81,1115.09c-37.18-33.18,104.73-84.27,157.9-69.28-80.98-26.68-163.89,29.11-176.99,48.84-12.16,18.3,30.11,27.51,38.05,29.06-7.56-1.51-14.07-4.26-18.96-8.62Z"/>
              <path class="cls-40" d="M992.01,1642.17c-47.9-33.93-166.32-38.04-186.4-26.21-20.08,11.83-1.71,35.43-1.71,35.43-1.12-2.22-2.09-4.49-2.48-6.88-6.93-43.15,143.59-31.09,190.59-2.35Z"/>
              <path class="cls-34" d="M1314.07,623.6c-18.7-12.27-56.17-9.22-102.9,13.77-49.48,24.34-45.87,42.75-42.06,45.72-12.28-19.69,109.05-82.02,144.95-59.5Z"/>
              <path class="cls-38" d="M871.07,1603.05c-99.88-18.27-184.05-57.96-242.73-125.64-110.04-126.91,14.98-243.59,241.48-336.23-170.65,65.59-303.04,144.35-309.11,228.02-6.07,83.67,109.25,206.82,310.36,233.85Z"/>
              <path class="cls-37" d="M2419.19,1043.85c6.47-92.09-83.27-169.33-724.72-91.88,387.06-42.83,726.58-22.33,724.72,91.88Z"/>
            </g>
            <path class="cls-13" d="M1471.68,334.12c-771.1,105.73-1588.26-18.26-1588.26-18.26l-63.77,53.55c756,49.01,1215.96,37.86,1652.03-35.28Z"/>
            <path class="cls-15" d="M1505.11,501.37c-15.21,7.39-31.57,15.13-49.47,23.32C360.62,1025.95-739.75,839.13-739.75,839.13c0,0-30.91,35.46-76.46,87.79,32.72,1.09,67.68,2.14,105.15,3.13,1132.69,30,1866.09-245.04,2216.18-428.68Z"/>
            <path class="cls-18" d="M670.76,1575.47c41.64,61.59,74.79,151.27,96.97,274.44,150.25,834.35-331.39,1818.73-331.39,1818.73l69.67-46.34c353.03-1026.43,375.93-1742.33,164.75-2046.83Z"/>
            <path class="cls-17" d="M365.11,1078.41c-10.93,40.3-43.25,92.87-101.72,160.01-627.85,721.09-1715.3,1301.5-1715.3,1301.5l36.81,54.49C-498.31,2057.08,309.22,1347.88,365.11,1078.41Z"/>
            <path class="cls-14" d="M1252.45,1908.15c25.43,7.98,51.44,20.44,77.8,37.63,249.54,162.72,417.05,529.78,417.05,529.78l22.19-21.58c-66.39-138.03-277.69-480.69-517.04-545.82Z"/>
            <path class="cls-4" d="M1531.23,961.84c-366.75,34.85-881.41,9.76-850.2-89.58,1.92-6.1,4.82-11.96,8.44-17.63-.23.35-.5.69-.73,1.04-102.25,161.52,491.57,143.65,842.48,106.17Z"/>
            <path class="cls-36" d="M1827.79,800.14c-259.85-117.98-1003.63-133.34-1135.03,49.79,117.7-160.23,910.82-144.79,1135.03-49.79Z"/>
            <path class="cls-19" d="M1616.98,2024.01c40.2,115.57-117.76-75.57-39.37,64.99,78.38,140.56-334.08-282.55-140.56-57.79,189.37,179.48,310.26,444.35,310.26,444.35l39.54-38.46c-91.83-266.8-196.66-454.26-80.63-664.38-55.01,81.86-111.43,187.5-89.24,251.3Z"/>
            <path class="cls-3" d="M847.91,2149.22c-25.63,126.37-47.08-100.05-51.78-6.18.9,39.93.71,79.9-.48,119.8,0,.56.01,1.07.02,1.63.05,3.96-.13,7.81-.44,11.6-25.03,710.08-358.89,1392.57-358.89,1392.57l526.32-350.06s-51.31-59.88-80.11-670.75c-6.42-136.16.04-255.06,16.77-355.72-48.61,282.11-20.4-295.73-51.4-142.89ZM740.88,3422.16c-69.35,30.81-20.81-233.83,29.18-244.31,36.45-7.64,40.18,213.49-29.18,244.31ZM845.91,2543.95c43.53,211.33-24.73,645.97-76.41,600.63-51.84-45.47,16.93-889.37,76.41-600.63Z"/>
            <path class="cls-2" d="M74.49,651.59c116.6-26.02,197.64-65.62,25.25-52.38-172.39,13.24,83.83-74.47-187.77-103.04-271.6-28.57,315.56-126.76-53.48-157.4l10.17-10.52-608.42,510.88s367.64-88.47,814.19-187.53c.02,0,.04-.01.06-.02Z"/>
            <path class="cls-12" d="M3586.87,500.95c-716.97,177.73-1415.71-212.06-1147.35-441.12,177.68-151.66,377.91-220.64,567.55-244.63,258.3-50.15,339.38-144.61,212.68-140.47-126.7,4.14,173.13-84.61-67.41-83.08-172.65,1.09,29.43-127.96,60.81-161.42l-7.27-6.47c-11.65,2.92-33.08,10.75-68.05,25.07-253.98,103.97-201.6-15.28-121.45-174.82-49.28,95.92-376.75,698.33-931.22,911.24-104.22,40.02-215.22,72.24-329.79,98.07-99.3,31.48-73.5,76.51-20.89,100.54-3.99-4.72-4.2-10.62.26-17.86,80.03-129.95,604.51-228.58,582.38-122.61-17.55,84.04-403.06,166.1-538.85,154.18,31.64,5.87,49.91,11.9,54.9,19.83,47.17-4.84,87.31-3.24,90.81,9.98,3.66,13.81-88.47,37.37-162.19,46.54-91.38,45.65,73.94,21.44-93.19,72.79-167.13,51.35,67.08,36.55-99.68,97.11-166.76,60.56,176.35,99.29-57.16,95.4,135.81,11.89,253.6,33.55,319.33,62.38,3.73-3.83,7.46-7.7,10.87-11.32-16.55-11.76-26.22-25.45-27.31-41.11-25.29-362.57,1309.03-319.96,1054.99-102.17-137.62,117.98-418.57,181.39-655.98,193.43-.37.02-.69.05-1.07.07-230.26,14.53-89.53,28.6-213.75,37.13-124.15,8.53,103.61,42.62-92.01,57.03,318.79-15.83,556.1,22.9,505.62,137.55-26.03,59.13-211.03,179.59-455.43,292.07,105.05-46.47,101.64,1.89,269.95-83.64,141.16-71.73-59.15,78.64,28.83,49.07,39.87-19.99,80.75-39.4,122.28-58.15,28.26-14.97,47.96-23.51,60.4-26.63,432.78-186.69,904.78-302.72,904.78-302.72,0,0,716.45-214.72-70.79-.23-857.24,233.56-1061.09,115.13-532.05-133.19,350.51-164.53,698.97-206.33,876.36-216.61,157.75-14.46-275.22-16.1-29.93-91.24ZM3079.85-272.67c18.91,27.33-133.18,67.6-157.84,53.86-24.66-13.73,129.65-94.6,157.84-53.86ZM2944.15-306.95c12.82,35.38-135.29,151.58-184.23,134.84-48.94-16.74,158.96-204.56,184.23-134.84ZM2564.1,1113.23c-10.42-30.15,185.81-40,192.69-25.69,6.89,14.31-182.28,55.83-192.69,25.69ZM2533.6,1111.24c8.54,13.39-36.33,20.92-45.73,7.34-9.4-13.58,31.7-29.36,45.73-7.34ZM2502.25,850.56c1.04,24.97-219.86,44.48-224.91,25.28-5.05-19.2,223.19-66.66,224.91-25.28ZM3155.98,588.82c12.64,18.27-55.97,37.52-79.91,15.12-23.93-22.4,65.81-35.5,79.91-15.12ZM3302.73,583.98c9.78,17.43-114.62,29.2-126.21,8.1-11.59-21.1,116.43-25.53,126.21-8.1Z"/>
            <path class="cls-21" d="M263.4,1238.42c-208.88,239.9-468.62,464.21-722.28,656.78,39.58-13.88-478.82,445.21-312.47,348.14,204.59-119.39,20.19,73.35-194.85,253.63-215.04,180.28-156.14,387.2,86.6,134.73,242.74-252.47,67.19-1.5-44.57,261.2-99.51,233.9-3.6,215.31,161.98-66.19,19.32-36.33,40.6-74.92,63.99-115.75,2.81-5.38,5.75-10.42,8.84-15.37,71.23-123.26,161.5-266.56,275.86-430.58C-20.01,1700.66,619.27,1025.53,767.73,1849.91c17.34,96.29,26.18,194.59,28.4,293.13,4.7-93.87,26.16,132.55,51.78,6.18,31-152.84,2.79,425,51.4,142.89.69-4.16,1.38-8.34,2.1-12.43,59.64-334.97,235.09-460.23,428.84-333.9,37.56,24.49,73.24,53.63,106.79,85.43-193.52-224.76,218.95,198.34,140.56,57.79-78.39-140.56,79.57,50.59,39.37-64.99-22.19-63.8,34.23-169.44,89.24-251.3,47.39-85.83,131.57-175.43,268.62-275.78,81.04-59.33,177.46-115.3,280.98-167.22-87.99,29.57,112.32-120.81-28.83-49.07-168.31,85.54-164.91,37.17-269.95,83.64-4.37,2.01-8.75,4.02-13.16,6.03-2.12,1.01-4.04,1.87-5.88,2.66-446.2,202.05-1077.34,372.36-1309.65,104.43-243.93-281.34,667.15-512.38,1278.5-542.73,195.62-14.41-32.14-48.5,92.01-57.03,124.22-8.53-16.51-22.6,213.75-37.13.38-.02.7-.05,1.07-.07-167.47,8.49-313.19-8.59-371.69-50.15-3.42,3.61-7.14,7.49-10.87,11.32,36.57,16.04,57.1,34.28,55.56,54.3-11.25,146.32-1253.62,169.08-1205.63,16.35,41.4-131.74,492.2-162.63,830.53-133.04,233.73,3.9-109.38-34.84,57.38-95.4,166.76-60.56-83.07-73.37,192.86-169.9-47.49,5.91-87.37,5.86-89-6.68-2.52-19.43,87.39-42.36,160.39-49.85-4.99-7.93-23.27-13.96-54.9-19.83-22.13-1.94-37.61-6.38-43.79-13.71-52.61-24.03-78.42-69.06,20.89-100.54C916.3,472.54-116.58,315.85-116.58,315.85l-14.76,12.4-10.17,10.52c369.03,30.64-218.13,128.83,53.48,157.4,271.6,28.56,15.39,116.28,187.77,103.04,172.39-13.24,91.35,26.37-25.25,52.38,866.89-192.3,2031.35-424.54,1381.15-126.9C802.97,823.47,148.45,877.77-273.89,872.9c-12.67.32-25.97.14-40.04-.64-20.03-.44-38.77-.96-56.92-1.58-175.15,1.77,70.13,86.54-98.8,96.79-183.88,11.15,114.62,48.12-139.66,96.69-254.28,48.56-302.2,179.75-11.2,91.71,553.69-178.88,1260.89-350.42,883.9,82.56ZM-977.58,2642.77c-62.06,5.18,184.78-243.03,236.45-219.03,32.32,15.01-174.4,213.85-236.45,219.03ZM-715.31,2551.28c-67.22-14.14,147.89-280.26,179.51-242.69,27.73,32.95-112.29,256.83-179.51,242.69ZM1673.14,1755.56c8.33,16.01-152.76,110.25-173.57,75.55-20.8-34.7,152.55-115.98,173.57-75.55ZM1918.58,1429.49c105.43,37.9-441.07,475.43-583.14,363.29-143.33-113.14,482.42-399.5,583.14-363.29ZM801.42,1644.51c-8.01-49.89,194.49-26,204.12,12.16,12.28,48.64-196.11,37.73-204.12-12.16ZM1169.12,683.09c-13.22-21.19,128.31-91.8,151.61-52.89,9.49,15.84-138.4,74.08-151.61,52.89ZM1013.86,1043.01c-7.69-20.35,84.76-57.16,107.61-29.91,14.53,17.33-99.92,50.26-107.61,29.91ZM986.84,1053.35c23.37,23.88-130.71,98.61-172.03,61.75-41.32-36.87,138.59-95.91,172.03-61.75Z"/>
            <g class="cls-44">
              <path class="cls-31" d="M847.91,2149.22c30.16-148.7,4.29,394.12,47.63,163.83-14.51-24.95-25.48-162.81-22.02-215.23,4.45-67.37-26.43-7.23-31.01,38.7-3.63,36.44-31.91-1.85-48.45-51.97.98,19.47,1.62,38.97,2.06,58.48,4.7-93.86,26.16,132.55,51.78,6.19Z"/>
              <path class="cls-30" d="M1607.07,2002.14c18.79,59.8-27,36.15-57.36,19.7-30.36-16.45,1.93,25.28,13.45,48.03,11.52,22.75,7.63,38.3-24.07,13.54-31.69-24.76-147.79-154.4-169.69-143.66-9.05,4.44,11.09,32.74,37.81,64.41,10.12,8.75,20.06,17.78,29.83,27.04-193.52-224.76,218.95,198.35,140.57,57.79-78.39-140.56,79.57,50.59,39.37-64.99-22.19-63.8,34.23-169.44,89.24-251.29.91-1.65,1.81-3.3,2.75-4.95-111.83,137.75-120.67,174.59-101.89,234.38Z"/>
              <path class="cls-29" d="M-88.03,496.17c271.6,28.56,15.39,116.28,187.77,103.04,172.39-13.24,91.35,26.37-25.25,52.38,55.4-12.29,112.04-24.75,169.37-37.22,2.6-3.47,3.04-7.04.56-10.69-20.57-30.29-176.51-3.39-188.23-32.57-11.72-29.19,78.56-66.41-48.73-86.98-127.3-20.57-139.14-40.23-58.17-69.67,80.97-29.44,143.6-71.25,38.87-84.92-8.26-.98-15.99-1.92-23.33-2.82-3.97-.49-7.29-.9-10.54-1.31-.42-.05-.84-.11-1.26-.16-17.08-2.15-31.22-4.01-42.19-5.51-11-1.5-18.64-2.59-23-3.23-.36-.05-.68-.1-1-.15-.49-.07-.9-.13-1.28-.19-.45-.07-.79-.12-1.09-.16-1.05-.16-15.81,12.24-15.81,12.24l-10.17,10.52c369.03,30.64-218.13,128.83,53.48,157.4Z"/>
              <path class="cls-23" d="M1734.49,383.86c-1.05-1.24-1.88-2.54-2.38-3.95-28.23-11.05-30.91-49.42,3.16-77.21,9.23-7.53,22.83-15.58,38.47-23.58-6.11,1.42-12.24,2.82-18.38,4.2-99.28,31.48-73.48,76.51-20.87,100.54Z"/>
              <path class="cls-25" d="M1761.37,473.46c-275.93,96.53-26.1,109.34-192.86,169.9-166.76,60.56,176.35,99.29-57.16,95.4,21.74,1.92,43.26,4.08,64.14,6.49,84.09-3.44-71.37-58.93,30.55-100.05,101.97-41.14-.59-71.09,44.36-111.93,43.78-39.78,147.44-64.9,152.81-66.18-14.11,2.51-28.26,4.67-41.83,6.35h0Z"/>
            </g>
            <path class="cls-26" d="M910.15,2235.71c56.95-258.48,188.91-375.57,342.11-327.62-244.18-82.43-310.7,142.03-342.11,327.62Z"/>
            <path class="cls-24" d="M580.32,1489.99c-208.56-129.51-490.01-66.18-1171.51,1042.89,51.61-82.24,110.49-171.47,177.7-267.87,296.8-425.69,733.44-914.35,993.81-775.02Z"/>
            <path class="cls-28" d="M-580.24,1142.96c439.26-139.67,954.47-265.97,949.59-91.3,17.32-117.78-7.75-209.31-949.59,91.3Z"/>
            <path class="cls-27" d="M1591.79,454.84c49.83-27.6,79.02-53.6,59.35-71.13-50.83-45.3-156.49-23.53-665,78.94,463.81-86.09,791.88-122.73,605.66-7.81Z"/>
          </g>
          <g>
            <path class="cls-16" d="M479.03,815.99c-11.48,4.16-32.49-31.72-13.39-35.1,19.1-3.38,24.87,30.94,13.39,35.1Z"/>
            <path class="cls-16" d="M454.1,821.21c-4.28,8.91.23,14.84,7.29,9.2,7.06-5.64-4.7-14.58-7.29-9.2Z"/>
            <path class="cls-16" d="M720.3,1330.22c8.34,5.99-13.08,25.85-19.77,19-6.69-6.85,11.43-24.99,19.77-19Z"/>
            <path class="cls-16" d="M701.64,1356.1c-5.3,5.05-1.74,9.81,2.44,7.13,4.17-2.68.81-10.23-2.44-7.13Z"/>
            <path class="cls-16" d="M652.6,1468.64c7.55-1.92,8.56,13.66-2.09,14.54-10.64.88-5.46-12.62,2.09-14.54Z"/>
            <path class="cls-16" d="M356.51,723.27c12.36-6.65,17.44,13.26,4.38,19.83-13.06,6.57-16.75-13.18-4.38-19.83Z"/>
            <path class="cls-16" d="M369.13,761.45c-1.1,4.97-10.15-.12-7.48-5.87,2.67-5.75,8.58.9,7.48,5.87Z"/>
            <path class="cls-16" d="M328.12,751.03c-1.45,8.5,8.98,9.68,11.69,4.38,2.71-5.3-10.23-12.88-11.69-4.38Z"/>
            <path class="cls-16" d="M461.9,613.22c13.94.83,9.84,24.33-3.13,27.04-12.96,2.72-9.44-27.8,3.13-27.04Z"/>
            <path class="cls-16" d="M1665.98,342.13c14.04.16,8.85,20.04-5.76,19.48-14.61-.56-8.28-19.64,5.76-19.48Z"/>
            <path class="cls-16" d="M1658.56,381.65c-3.37,3.82-8.83-5.02-3.7-8.76,5.12-3.74,7.07,4.94,3.7,8.76Z"/>
            <path class="cls-16" d="M1627.71,352.69c-5.38,6.74,3.17,12.82,8.11,9.49,4.93-3.33-2.73-16.23-8.11-9.49Z"/>
            <path class="cls-16" d="M563.84,690.03c10.19-2.35,13.85,10.02,4.44,11.02-9.4,1-9-9.97-4.44-11.02Z"/>
            <path class="cls-16" d="M1586.7,1047.49c-11.48,4.16-32.49-31.72-13.39-35.1,19.1-3.38,24.87,30.94,13.39,35.1Z"/>
            <path class="cls-16" d="M1561.77,1052.71c-4.28,8.92.23,14.84,7.29,9.2,7.06-5.64-4.71-14.58-7.29-9.2Z"/>
            <path class="cls-16" d="M1765.74,960.97c-6.13,8.16,4.67,22.9,12.16,11.93,7.49-10.98-6.03-20.08-12.16-11.93Z"/>
            <path class="cls-16" d="M27.07,303.51c.52,16.14-30.55,6.7-24.48-7.89,6.07-14.59,24.09-4.49,24.48,7.89Z"/>
            <path class="cls-16" d="M38.96,333.33c-3.59,8.42-12.74,4.04-8.93-3.87,3.81-7.91,12.52-4.55,8.93,3.87Z"/>
            <path class="cls-16" d="M1108.52,1434.87c-3.59,8.42-12.74,4.04-8.93-3.87,3.81-7.91,12.52-4.55,8.93,3.87Z"/>
            <path class="cls-16" d="M1147.67,1425.15c-4.16,1.16-19.16-4.8,1.89-11.5,21.06-6.69,20.14,5.37-1.89,11.5Z"/>
            <path class="cls-16" d="M539.29,2286.14c.52,16.14-30.55,6.7-24.48-7.89,6.07-14.59,24.09-4.49,24.48,7.89Z"/>
            <path class="cls-16" d="M551.18,2315.96c-3.59,8.42-12.74,4.04-8.93-3.87,3.81-7.91,12.52-4.55,8.93,3.87Z"/>
            <path class="cls-16" d="M905.33,1211.57c.52,16.14-30.55,6.7-24.48-7.89,6.07-14.59,24.09-4.49,24.48,7.89Z"/>
            <path class="cls-16" d="M917.22,1241.39c-3.59,8.42-12.74,4.04-8.93-3.87,3.81-7.91,12.52-4.55,8.93,3.87Z"/>
            <path class="cls-16" d="M956.38,1231.67c-4.16,1.16-19.17-4.8,1.89-11.5,21.06-6.69,20.14,5.37-1.89,11.5Z"/>
            <path class="cls-16" d="M343.17,253.27c.52,16.14-30.55,6.7-24.48-7.89,6.07-14.59,24.09-4.49,24.48,7.89Z"/>
            <path class="cls-16" d="M355.06,283.08c-3.59,8.42-12.74,4.04-8.93-3.87,3.81-7.91,12.52-4.55,8.93,3.87Z"/>
            <path class="cls-16" d="M394.21,273.37c-4.16,1.16-19.17-4.8,1.89-11.49,21.05-6.69,20.14,5.37-1.89,11.49Z"/>
            <path class="cls-16" d="M72.92,1057.16c-3.59,8.42-12.74,4.04-8.93-3.87,3.81-7.91,12.52-4.55,8.93,3.87Z"/>
            <path class="cls-16" d="M112.07,1047.44c-4.16,1.16-19.16-4.8,1.89-11.49,21.05-6.69,20.14,5.37-1.89,11.49Z"/>
          </g>
          <g>
            <path class="cls-42" d="M430.78,897.23c-.29-17.48,29.34-29.42,48.26-16.64,18.92,12.77-47.41,67.11-48.26,16.64Z"/>
            <path class="cls-42" d="M425.43,915.28c3.92-4.21,27.73,24.29,16.11,33.61-11.62,9.32-23-26.21-16.11-33.61Z"/>
            <path class="cls-42" d="M1236.96,490.69c3.1,4.85-30.45,20.78-36.57,7.2-6.12-13.58,31.12-15.72,36.57-7.2Z"/>
            <path class="cls-42" d="M433.45,954.19c8.98.54,4.23,13.5.01,12.03-4.21-1.46-5.24-12.35-.01-12.03Z"/>
            <path class="cls-42" d="M11.55,1166.1c-5.56-1.15,7.85-34.18,21.57-29.24,13.72,4.94-11.8,31.26-21.57,29.24Z"/>
            <path class="cls-42" d="M41.63,1140.87c-3.85-7.55,9.74-9.92,10.49-5.8.75,4.12-8.25,10.19-10.49,5.8Z"/>
            <path class="cls-42" d="M-16.53,250.37c-4.61-3.32,21.11-28.01,31.62-17.91,10.51,10.11-23.52,23.74-31.62,17.91Z"/>
            <path class="cls-42" d="M21.22,239.59c-.43-8.46,12.94-5.09,11.94-1.02-1,4.07-11.69,5.94-11.94,1.02Z"/>
            <path class="cls-42" d="M754.06,1391.44c-8.98-.54-4.23-13.5-.01-12.03,4.21,1.46,5.24,12.35.01,12.03Z"/>
            <path class="cls-42" d="M624.18,1198.87c4.92,7.54-8.32,11.44-9.65,7.18-1.34-4.26,6.79-11.57,9.65-7.18Z"/>
            <path class="cls-42" d="M273.51,625.62c-8.97-.78-3.86-13.6.31-12.03,4.17,1.58,4.91,12.48-.31,12.03Z"/>
            <path class="cls-42" d="M1694.38,996.89c-.33-3.26,12.72-19.24,14.56-11.03,1.84,8.21-14.23,14.29-14.56,11.03Z"/>
            <path class="cls-42" d="M739.54,1388.19c3.62,5.07-5,39.95-15.9,27.88-10.91-12.07,12.29-32.95,15.9-27.88Z"/>
            <path class="cls-42" d="M114.6,340.48c1.24-4.21,23.87-13.71,21.87-2.35-2,11.36-23.12,6.56-21.87,2.35Z"/>
            <path class="cls-42" d="M1304.51,392.02c1.67,6.84-15.91,18.6-23.04,16.27-7.13-2.33,19.75-29.71,23.04-16.27Z"/>
            <path class="cls-42" d="M304.68,617.47c7.08,5.31-7.41,15.32-18.35,13.79-10.94-1.52,4.44-24.23,18.35-13.79Z"/>
            <path class="cls-42" d="M1353.51,244.38c-8.97-.78-3.86-13.6.31-12.03,4.17,1.58,4.91,12.48-.31,12.03Z"/>
            <path class="cls-42" d="M1384.68,236.23c7.08,5.31-7.4,15.32-18.35,13.8-10.94-1.52,4.44-24.23,18.35-13.8Z"/>
            <path class="cls-42" d="M990.02,1231.96c-3.61,8.24-14.13-.69-11.3-4.14,2.83-3.45,13.4-.65,11.3,4.14Z"/>
            <path class="cls-42" d="M992.28,1199.81c7.3-5.01,12.14,11.92,7.2,21.8-4.94,9.88-21.54-11.96-7.2-21.8Z"/>
          </g>
        </g>
      </g>
    </g>
  </g>
</svg>