<?xml version="1.0" encoding="UTF-8"?>
<svg id="Layer_1" data-name="Layer 1" xmlns="http://www.w3.org/2000/svg" xmlns:xlink="http://www.w3.org/1999/xlink" viewBox="0 0 1925 44">
  <defs>
    <style>
      .cls-1 {
        fill: none;
      }

      .cls-2 {
        fill: #f7f0e5;
      }

      .cls-3 {
        fill: #3d113e;
      }

      .cls-4 {
        clip-path: url(#clippath);
      }
    </style>
    <clipPath id="clippath">
      <rect class="cls-1" width="1925" height="44" transform="translate(1925 44) rotate(180)"/>
    </clipPath>
  </defs>
  <g class="cls-4">
    <path class="cls-2" d="M1925,254.49V3.62c-5.62-1.78-9.13-3.28-19.64-3.28-16.04,0-16.04,6.19-32.07,6.19s-16.03-6.19-32.05-6.19-16.03,6.19-32.06,6.19-16.02-6.19-32.05-6.19-16.03,6.19-32.06,6.19-16.03-6.19-32.05-6.19-16.03,6.19-32.05,6.19-16.03-6.19-32.05-6.19-16.03,6.19-32.05,6.19-16.02-6.19-32.05-6.19-16.02,6.19-32.05,6.19-16.02-6.19-32.05-6.19-16.03,6.19-32.05,6.19-16.02-6.19-32.05-6.19-16.03,6.19-32.05,6.19-16.03-6.19-32.05-6.19-16.02,6.19-32.05,6.19-16.02-6.19-32.05-6.19-16.02,6.19-32.05,6.19-16.02-6.19-32.05-6.19-16.03,6.19-32.05,6.19-16.02-6.19-32.05-6.19-16.02,6.19-32.05,6.19-16.02-6.19-32.05-6.19-16.02,6.19-32.05,6.19-16.02-6.19-32.04-6.19-16.02,6.19-32.05,6.19-16.02-6.19-32.04-6.19-16.03,6.19-32.05,6.19-16.02-6.19-32.04-6.19-16.02,6.19-32.05,6.19-16.02-6.19-32.04-6.19-16.02,6.19-32.04,6.19-16.02-6.19-32.05-6.19-16.02,6.19-32.04,6.19-16.02-6.19-32.04-6.19-16.02,6.19-32.04,6.19-16.02-6.19-32.04-6.19-16.02,6.19-32.04,6.19-16.02-6.19-32.04-6.19-16.02,6.19-32.04,6.19-16.02-6.19-32.04-6.19-16.02,6.19-32.05,6.19S511.29.34,495.27.34s-16.02,6.19-32.03,6.19S447.22.34,431.2.34s-16.02,6.19-32.05,6.19S383.14.34,367.12.34s-16.02,6.19-32.03,6.19S319.07.34,303.05.34s-16.02,6.19-32.04,6.19S254.99.34,238.97.34s-16.02,6.19-32.04,6.19S190.91.34,174.89.34s-16.02,6.19-32.04,6.19S126.82.34,110.8.34s-16.02,6.19-32.04,6.19S62.74.34,46.71.34,30.69,6.53,14.67,6.53c-6.62,0-10.63-1.51-14.17-3.09v251.05h1924.5Z"/>
    <path class="cls-3" d="M2792.61,33.82c-8.28-2.61-13.32-4.83-28.71-4.83-23.27,0-23.27,8.98-46.53,8.98s-23.25-8.98-46.5-8.98-23.26,8.98-46.51,8.98-23.25-8.98-46.5-8.98-23.26,8.98-46.51,8.98-23.25-8.98-46.5-8.98-23.25,8.98-46.5,8.98-23.25-8.98-46.5-8.98-23.25,8.98-46.51,8.98-23.25-8.98-46.5-8.98-23.25,8.98-46.49,8.98-23.25-8.98-46.49-8.98-23.25,8.98-46.5,8.98-23.25-8.98-46.49-8.98-23.25,8.98-46.5,8.98-23.25-8.98-46.5-8.98-23.25,8.98-46.5,8.98-23.25-8.98-46.5-8.98-23.25,8.98-46.5,8.98-23.25-8.98-46.5-8.98-23.25,8.98-46.5,8.98-23.25-8.98-46.5-8.98-23.25,8.98-46.49,8.98-23.25-8.98-46.5-8.98-23.25,8.98-46.5,8.98-23.25-8.98-46.49-8.98-23.25,8.98-46.5,8.98-23.24-8.98-46.49-8.98-23.25,8.98-46.5,8.98-23.24-8.98-46.49-8.98-23.25,8.98-46.5,8.98-23.24-8.98-46.49-8.98-23.24,8.98-46.49,8.98-23.25-8.98-46.49-8.98-23.24,8.98-46.48,8.98-23.25-8.98-46.49-8.98-23.24,8.98-46.49,8.98-23.24-8.98-46.48-8.98-23.24,8.98-46.49,8.98-23.24-8.98-46.49-8.98-23.24,8.98-46.48,8.98-23.24-8.98-46.48-8.98-23.25,8.98-46.5,8.98-23.24-8.98-46.48-8.98-23.24,8.98-46.48,8.98-23.24-8.98-46.48-8.98-23.25,8.98-46.49,8.98-23.24-8.98-46.48-8.98-23.24,8.98-46.47,8.98-23.24-8.98-46.48-8.98-23.24,8.98-46.49,8.98-23.24-8.98-46.48-8.98-23.24,8.98-46.49,8.98-23.25-8.98-46.49-8.98-23.24,8.98-46.49,8.98-23.24-8.98-46.49-8.98-23.25,8.98-46.49,8.98-23.24-8.98-46.49-8.98-23.24,8.98-46.49,8.98c-9.47,0-15.25-2.13-20.34-4.39v97.15h2792.12V33.82Z"/>
  </g>
</svg>