<?xml version="1.0" encoding="UTF-8"?><svg id="Layer_1" xmlns="http://www.w3.org/2000/svg" viewBox="0 0 35.48 30.77"><defs><style>.cls-1{fill:#fff;stroke-width:0px;}</style></defs><path class="cls-1" d="M32.61.88h0c-2.83-1.73-6.52-.84-8.25,1.99l-6.62,10.83L11.12,2.87C9.39.04,5.7-.85,2.87.88h0C.04,2.61-.85,6.3.88,9.13l11.48,18.77c1.18,1.93,3.27,2.95,5.38,2.86,2.11.09,4.2-.94,5.38-2.86l11.48-18.77c1.73-2.83.84-6.52-1.99-8.25Z"/><path class="cls-1" d="M29.49,0c-2.02,0-3.99,1.02-5.12,2.87l-6.62,10.82L11.12,2.87C9.99,1.02,8.02,0,6,0c-1.07,0-2.15.28-3.13.88h0C.04,2.61-.85,6.3.88,9.13l11.48,18.77c1.13,1.85,3.1,2.87,5.12,2.87.08,0,.17,0,.25,0,.08,0,.17,0,.25,0,2.02,0,3.99-1.02,5.12-2.87l11.48-18.77c1.73-2.83.84-6.52-1.99-8.25h0C31.63.28,30.55,0,29.49,0h0Z"/></svg>