<?xml version="1.0" encoding="UTF-8"?><svg id="Layer_1" xmlns="http://www.w3.org/2000/svg" viewBox="0 0 224.12 920.82"><defs><style>.cls-1{fill:#fff;stroke-width:0px;}</style></defs><path class="cls-1" d="m219.95,33.12c-1.53,5.75-3.92,10.47-7.04,14.33,2.88,1.71,6.24,3,9.98,3.86-1.78,1.59-4.1,4.84-5.2,6.92-4.04-1.16-7.59-2.88-10.65-5.08-2.82,2.14-6,3.86-9.49,5.26-.8-1.65-2.26-3.98-3.67-5.69v5.57h-8.51v-4.41c-6.79.49-13.59.98-18.92,1.41l-.55-7.59c1.53-.06,3.24-.12,5.08-.24v-17.51h-4.53v-6.98h55.16v6.98h-27.73v21.18c2.57-.92,4.96-2.2,7.1-3.73-1.96-2.39-3.55-5.08-4.96-8.08l4.65-1.29h-5.69v-6.67h18l1.47-.24,5.51,2.02Zm-5.51-11.69h-40.83V2.08h40.83v19.35Zm-35.38,8.51v1.47h6.3v-1.47h-6.3Zm0,9.12h6.3v-1.65h-6.3v1.65Zm6.3,7.59v-1.59h-6.3v1.96l6.3-.37Zm20.14-39h-23.38v1.47h23.38v-1.47Zm0,6.67h-23.38v1.53h23.38v-1.53Zm-2.02,23.69c.79,1.53,1.84,2.94,3,4.29,1.1-1.35,2.02-2.75,2.82-4.29h-5.82Z"/><path class="cls-1" d="m183.96,108.35c2.02,1.16,4.65,1.78,7.96,1.9,7.65.37,22.41.18,31.53-.61-.98,2.02-2.33,6.12-2.75,8.63-8.02.43-21.06.55-28.9.18-6.92-.31-11.51-1.9-15.12-6.55-2.33,2.27-4.71,4.41-7.84,7.04l-4.1-8.88c2.27-1.35,4.78-3.06,7.16-4.84v-12h-6.37v-8.2h14.88v19.59c.8,1.53,1.9,2.69,3.25,3.55v-33.12h6.55c-.24-1.1-.67-2.2-1.1-3.18l.25-.06h-6.92v-6.8h14.88v-3.67h8.63v3.67h15.92v6.8h-6.79c-.61,1.16-1.1,2.27-1.59,3.24h7.53v25.9c0,3.43-.55,5.33-2.75,6.55-2.21,1.16-4.9,1.29-8.51,1.29-.18-1.35-.67-3.06-1.29-4.65h-8.82v1.71h-5.88v-13.53h5.2v-2.88h-6.06v-5.2h6.06v-2.57h-7.35v26.69h-7.65Zm-9.43-30.24c-1.65-2.94-5.69-7.16-9-10.16l6.79-5.02c3.37,2.69,7.59,6.67,9.55,9.55l-7.35,5.63Zm22.71-6.31c.49,1.1.86,2.27,1.04,3.24h7.22c.31-.98.67-2.14.92-3.24h-9.18Zm7.29,25.22h-4.9v2.39h4.9v-2.39Zm7.41,4.71c.67,0,.92-.24.92-.92v-19.16h-7.65v2.57h6.18v5.2h-6.18v2.88h5.33v9.43h1.41Z"/><path class="cls-1" d="m193.02,123.47c-.43,1.84-1.1,4.59-1.96,7.59,2.82-.49,5.39-1.1,7.41-1.71l.25,8.33c-2.51.67-6.12,1.47-10.16,2.08-2.82,8.39-7.9,18.85-12.79,25.83l-8.75-4.47c4.65-5.88,9.24-14.32,11.88-20.51-.61.06-1.29.06-1.9.06-2.57,0-5.02-.06-7.78-.24l-.67-8.39c2.82.31,6.37.43,8.39.43,1.53,0,3.12-.06,4.65-.18.86-3.31,1.41-6.73,1.53-9.79l9.92.98Zm14.08,18.73c-.18,2.63-.06,5.51,0,8.45.06,1.41.18,3.8.31,6.24,5.2,2.02,9.43,5.08,12.43,7.84l-4.84,7.77c-1.84-1.78-4.29-4.1-7.22-6.12-.18,5.75-3.31,10.1-12.18,10.1-7.96,0-14.14-3.73-14.14-10.65,0-6,4.78-11.2,14.02-11.2,1.04,0,2.14.06,3.12.18-.18-4.29-.43-9.24-.61-12.61h9.12Zm-8.2,20.2c-1.29-.24-2.63-.43-4.04-.43-2.94,0-4.84,1.22-4.84,2.94,0,1.9,1.71,3.24,4.22,3.24,3.61,0,4.65-2.08,4.65-5.45v-.31Zm17.57-16.1c-3.61-2.82-10.65-6.86-14.82-8.69l4.65-7.22c4.35,1.9,12.06,6,15.3,8.26l-5.14,7.65Z"/><path class="cls-1" d="m187.08,226.56h-12v5.69h-8.2v-48.48h20.2v42.79Zm-12-34.89v9.24h3.73v-9.24h-3.73Zm3.73,27v-10.04h-3.73v10.04h3.73Zm38.63-12.98v4.22h5.2v7.71h-5.2v11.63c0,4.04-.73,6.24-3.43,7.53-2.69,1.29-6.12,1.47-10.53,1.47-.31-2.45-1.59-6-2.76-8.33,2.57.12,5.88.12,6.8.12s1.22-.18,1.22-.98v-11.45h-20.57v-7.71h20.57v-4.22h-20.57v-7.77h12.98v-4.04h-11.26v-7.65h11.26v-6.12h8.75v6.12h11.69v7.65h-11.69v4.04h13.04v7.77h-5.51Zm-20.94,26.08c-1.04-2.82-3.98-7.04-6.61-10.1l7.1-4.04c2.69,2.88,5.88,6.8,7.16,9.73l-7.65,4.41Z"/><path class="cls-1" d="m221.18,290.17c0,4.1-.73,6.43-3.12,7.77-2.39,1.41-5.63,1.65-10.28,1.59-.25-2.33-1.35-6.18-2.45-8.39,2.27.18,5.2.12,6.06.12.92,0,1.22-.31,1.22-1.22v-10.65h-7.29c-.73,7.29-2.26,14.88-5.33,20.2-1.41-1.47-4.9-3.98-6.86-4.96l-5.02,2.94c-1.29-2.45-4.35-6.43-6.79-9.31l5.75-3.18h-14.82l8.2,2.39c-2.26,4.47-5.94,9.3-9.18,12.24-1.65-1.53-5.08-4.04-7.1-5.2,3.18-2.33,6.18-5.94,7.9-9.43h-7.1v-7.71h5.26v-21.61h-4.59v-7.71h4.59v-6h7.96v6h5.69v-6h8.14v6h3.98v7.71h-3.98v21.61h3.31v7.71h-6.79c1.9,2.08,4.16,4.65,5.69,6.79,3.06-7.53,3.31-17.57,3.31-25.28v-22.65h23.63v46.22Zm-42.97-34.4v2.57h5.69v-2.57h-5.69Zm0,12h5.69v-2.75h-5.69v2.75Zm0,9.61h5.69v-2.94h-5.69v2.94Zm34.4-5.88v-6.06h-6.73v1.16c0,1.53,0,3.18-.06,4.9h6.79Zm-6.73-19.53v5.69h6.73v-5.69h-6.73Z"/><path class="cls-1" d="m180.96,310.73c-.61,3.12-2.88,15.86-2.88,21.43,0,.18,0,1.16.06,1.35.86-1.65,1.59-2.88,2.33-4.59l4.41,3.49c-1.78,5.45-3.67,12.06-4.35,15.43-.12.92-.31,2.33-.31,2.88,0,.67,0,1.71.06,2.69l-8.45.55c-1.16-4.04-2.39-11.57-2.39-19.77,0-9.18,1.78-19.16,2.33-23.63.24-1.78.67-4.53.73-6.8l10.16.86c-.55,1.35-1.47,5.02-1.71,6.12Zm15.24,28.65c0,2.63,2.57,3.61,7.47,3.61,5.33,0,9.67-.43,15.12-1.59l.18,9.86c-3.98.67-8.69,1.1-15.79,1.1-10.47,0-15.73-3.86-15.73-10.28,0-2.57.37-5.14,1.1-8.26l8.26.73c-.43,1.96-.61,3.24-.61,4.84Zm20.94-31.16v9.37c-7.9.61-18.37.67-26.45,0l-.06-9.31c7.9.92,19.77.67,26.51-.06Z"/><path class="cls-1" d="m219.95,392.89c-1.53,5.75-3.92,10.47-7.04,14.32,2.88,1.71,6.24,3,9.98,3.86-1.78,1.59-4.1,4.84-5.2,6.92-4.04-1.16-7.59-2.88-10.65-5.08-2.82,2.14-6,3.86-9.49,5.27-.8-1.65-2.26-3.98-3.67-5.69v5.57h-8.51v-4.41c-6.79.49-13.59.98-18.92,1.41l-.55-7.59c1.53-.06,3.24-.12,5.08-.25v-17.51h-4.53v-6.98h55.16v6.98h-27.73v21.18c2.57-.92,4.96-2.2,7.1-3.73-1.96-2.39-3.55-5.08-4.96-8.08l4.65-1.29h-5.69v-6.67h18l1.47-.25,5.51,2.02Zm-5.51-11.69h-40.83v-19.35h40.83v19.35Zm-35.38,8.51v1.47h6.3v-1.47h-6.3Zm0,9.12h6.3v-1.65h-6.3v1.65Zm6.3,7.59v-1.59h-6.3v1.96l6.3-.37Zm20.14-39h-23.38v1.47h23.38v-1.47Zm0,6.67h-23.38v1.53h23.38v-1.53Zm-2.02,23.69c.79,1.53,1.84,2.94,3,4.29,1.1-1.35,2.02-2.75,2.82-4.29h-5.82Z"/><path class="cls-1" d="m183.96,468.12c2.02,1.16,4.65,1.78,7.96,1.9,7.65.37,22.41.18,31.53-.61-.98,2.02-2.33,6.12-2.75,8.63-8.02.43-21.06.55-28.9.18-6.92-.31-11.51-1.9-15.12-6.55-2.33,2.27-4.71,4.41-7.84,7.04l-4.1-8.88c2.27-1.35,4.78-3.06,7.16-4.84v-12h-6.37v-8.2h14.88v19.59c.8,1.53,1.9,2.69,3.25,3.55v-33.12h6.55c-.24-1.1-.67-2.2-1.1-3.18l.25-.06h-6.92v-6.79h14.88v-3.67h8.63v3.67h15.92v6.79h-6.79c-.61,1.16-1.1,2.27-1.59,3.24h7.53v25.9c0,3.43-.55,5.33-2.75,6.55-2.21,1.16-4.9,1.29-8.51,1.29-.18-1.35-.67-3.06-1.29-4.65h-8.82v1.71h-5.88v-13.53h5.2v-2.88h-6.06v-5.2h6.06v-2.57h-7.35v26.69h-7.65Zm-9.43-30.24c-1.65-2.94-5.69-7.16-9-10.16l6.79-5.02c3.37,2.69,7.59,6.67,9.55,9.55l-7.35,5.63Zm22.71-6.31c.49,1.1.86,2.27,1.04,3.24h7.22c.31-.98.67-2.14.92-3.24h-9.18Zm7.29,25.22h-4.9v2.39h4.9v-2.39Zm7.41,4.71c.67,0,.92-.25.92-.92v-19.16h-7.65v2.57h6.18v5.2h-6.18v2.88h5.33v9.43h1.41Z"/><path class="cls-1" d="m193.02,483.24c-.43,1.84-1.1,4.59-1.96,7.59,2.82-.49,5.39-1.1,7.41-1.71l.25,8.33c-2.51.67-6.12,1.47-10.16,2.08-2.82,8.39-7.9,18.85-12.79,25.83l-8.75-4.47c4.65-5.88,9.24-14.33,11.88-20.51-.61.06-1.29.06-1.9.06-2.57,0-5.02-.06-7.78-.25l-.67-8.39c2.82.31,6.37.43,8.39.43,1.53,0,3.12-.06,4.65-.18.86-3.31,1.41-6.73,1.53-9.79l9.92.98Zm14.08,18.73c-.18,2.63-.06,5.51,0,8.45.06,1.41.18,3.8.31,6.24,5.2,2.02,9.43,5.08,12.43,7.84l-4.84,7.78c-1.84-1.78-4.29-4.1-7.22-6.12-.18,5.75-3.31,10.1-12.18,10.1-7.96,0-14.14-3.73-14.14-10.65,0-6,4.78-11.2,14.02-11.2,1.04,0,2.14.06,3.12.18-.18-4.29-.43-9.24-.61-12.61h9.12Zm-8.2,20.2c-1.29-.25-2.63-.43-4.04-.43-2.94,0-4.84,1.22-4.84,2.94,0,1.9,1.71,3.25,4.22,3.25,3.61,0,4.65-2.08,4.65-5.45v-.31Zm17.57-16.1c-3.61-2.82-10.65-6.86-14.82-8.69l4.65-7.22c4.35,1.9,12.06,6,15.3,8.26l-5.14,7.65Z"/><path class="cls-1" d="m192.89,557.8c-.12,2.27-.31,4.53-.61,6.8h23.26s-.06,2.57-.25,3.73c-1.04,16.29-2.33,23.26-4.84,26.08-2.08,2.26-4.29,2.94-7.35,3.3-2.51.25-6.61.25-10.71.12-.12-2.57-1.47-6.31-3.18-8.75,4.16.37,8.45.37,10.35.37,1.35,0,2.2-.12,3.06-.8,1.47-1.22,2.51-6.12,3.24-15.67h-15c-2.39,10.1-7.65,19.34-19.83,25.65-1.29-2.45-3.92-5.69-6.31-7.59,16.29-7.65,17.63-20.69,18.24-33.24h-16.9v-8.51h22.96v-9.73h9.24v9.73h23.75v8.51h-29.14Z"/><path class="cls-1" d="m176.18,630.9c-2.33-2.08-7.41-4.9-11.33-6.49l4.59-6.73c3.86,1.35,9.06,3.8,11.69,5.82l-4.96,7.41Zm7.59,8.45c-2.94,6.43-6.3,13.04-9.73,19.1l-7.71-5.69c3-4.59,7.29-11.94,10.71-19.1l6.73,5.69Zm-4.04-24.61c-2.33-2.2-7.35-5.2-11.26-6.92l4.9-6.55c3.86,1.47,9,4.1,11.57,6.24l-5.2,7.22Zm35.87,44.57c-.43-1.41-1.1-3-1.9-4.71-10.65.98-21.85,1.84-30.12,2.51l-1.16-9,4.41-.18c1.84-4.29,3.73-9.67,4.96-14.45h-9.37v-8.45h15.12v-7.29h-12.06v-8.45h12.06v-8.14h9.24v8.14h12.61v8.45h-12.61v7.29h15.61v8.45h-20.75l.73.18c-1.84,4.78-3.92,9.67-5.94,13.83,4.1-.24,8.51-.49,12.92-.73-1.35-2.08-2.76-4.16-4.16-6l7.71-4.1c4.47,5.45,9.37,12.67,11.2,18l-8.51,4.65Z"/><path class="cls-1" d="m174.1,669.58c5.63-.49,14.69-1.22,25.65-2.14,6-.49,13.1-.92,17.45-1.1l.06,9.37c-3.12.06-8.2.06-11.51.74-6.49,1.41-12.06,8.45-12.06,15.61,0,8.82,8.26,12.3,18.67,12.86l-3.43,10.1c-13.35-1.04-24.85-8.26-24.85-21.06,0-8.2,4.41-14.57,7.65-17.51-5.14.49-15.73,1.71-22.96,3.37l-.86-9.92c2.39-.06,5.02-.18,6.18-.31Zm39.36,19.22l-5.39,2.33c-1.59-3.49-2.63-5.45-4.53-8.2l5.2-2.2c1.53,2.26,3.61,5.82,4.71,8.08Zm7.04-3.12l-5.26,2.51c-1.71-3.43-2.88-5.26-4.84-8.02l5.14-2.33c1.59,2.14,3.8,5.63,4.96,7.84Z"/><path class="cls-1" d="m201.77,725.17l7.65-6.49c4.16,3.43,10.16,9.61,12.86,12.98l-7.77,6.67c-3.55-4.35-8.57-9.49-12.73-13.16Z"/><path class="cls-1" d="m139.06,4.78v7.53h-54.06v-7.53h22.04V0h9.18v4.78h22.83Zm-1.71,44.51c0,3.86-.73,6.18-3.31,7.47-2.57,1.35-5.75,1.47-9.79,1.47-.18-1.35-.61-3.06-1.16-4.65h-15.24v2.63h-7.65v-16.83h23.57v10.59c1.53.06,3,.06,3.55,0,.8,0,1.1-.18,1.1-.86v-11.88h-32.45v21.12h-8.69v-28.41h50.08v19.34Zm-8.33-21.18h-34.04v-14.02h34.04v14.02Zm-9-8.26h-16.59v2.45h16.59v-2.45Zm-4.04,25.34h-8.14v2.57h8.14v-2.57Z"/><path class="cls-1" d="m98.04,72.79c0,3.92,0,7.84.37,11.88.73,7.84,1.9,13.35,5.39,13.35,2.75,0,4.9-7.47,5.75-11.57l7.35,9c-4.22,10.65-8.02,14.26-13.28,14.26-7.1,0-12.92-5.94-14.57-22.34-.61-5.69-.67-12.61-.67-16.41,0-1.78-.12-4.35-.55-6.49l11.08.12c-.49,2.57-.86,6.43-.86,8.2Zm41.26,24.79l-9.55,3.67c-.86-9.06-3.79-24.85-10.83-32.51l9.18-3c5.88,6.92,10.65,23.14,11.2,31.83Z"/><path class="cls-1" d="m119.65,155.98c4.65,4.53,11.88,7.1,21.92,8.02-1.9,1.96-4.35,5.69-5.51,8.2-11.02-1.71-18.3-5.57-23.51-12.18-4.04,5.26-11.45,9.55-24.24,12.18-1.04-1.96-3.55-5.57-5.57-7.53,11.88-1.96,18.18-4.96,21.37-8.69h-19.96v-8.2h5.69v-13.96h17.33v-5.63h9.37v5.63h18.18v13.96h5.14v8.2h-20.2Zm-23.51-29.94h-11.45v-7.9h11.45v-4.22h8.82v4.22h13.9v-4.22h8.88v4.22h11.57v7.9h-11.57v4.96h-8.88v-4.96h-13.9v4.96h-8.82v-4.96Zm11.02,21.73v-6.31h-8.75v6.31h8.75Zm9.37-6.31v6.31h9.12v-6.31h-9.12Z"/><path class="cls-1" d="m106.18,192.46h-23.2v-6.92h23.2v6.92Zm-1.71,38.63h-11.33v2.2h-7.41v-21.24h18.73v19.04Zm-.55-29.94h-17.94v-6.61h17.94v6.61Zm-17.94,2.08h17.94v6.61h-17.94v-6.61Zm18.06-19.71h-17.69v-6.61h17.69v6.61Zm-10.9,35.45v5.2h3.8v-5.2h-3.8Zm48.24-19.41v7.71h-35.87v-7.71h7.22c.31-1.47.61-3.06.86-4.71h-4.65v-7.47h5.82l.43-3.24h-7.22v-7.53h31.16v7.53h-15.3l-.49,3.24h12.92v12.18h5.14Zm-31.47,10.16h27.49v23.32h-8.69v-1.84h-10.47v2.08h-8.33v-23.57Zm8.33,7.9v5.69h10.47v-5.69h-10.47Zm3.92-22.77c-.31,1.65-.55,3.24-.86,4.71h6.43v-4.71h-5.57Z"/><path class="cls-1" d="m137.95,248.78s-.06,2.94-.18,4.1c-1.16,24.06-2.33,33.43-5.08,36.79-2.02,2.63-3.98,3.43-6.86,3.86-2.39.43-6.18.43-9.86.31-.12-2.63-1.41-6.67-3.12-9.24,3.73.31,7.16.31,8.88.31,1.22,0,1.96-.25,2.82-1.04,1.78-1.78,2.94-9.49,3.79-25.96h-15.24c-.98,12.73-5.39,27.79-22.28,36.98-1.47-2.2-4.84-5.69-7.04-7.29,14.51-7.35,18.67-19.41,19.77-29.69h-17.75v-9.12h18.12v-12.31h9.49v12.31h24.55Z"/><path class="cls-1" d="m112.85,300.21c-.24,1.35-.67,3.24-1.35,5.51,5.45-.31,11.14-.8,16.16-1.71l-.06,8.39c-5.57.73-12.92,1.29-19.34,1.53-.73,1.53-1.53,3.06-2.33,4.29,1.22-.37,4.29-.61,5.94-.61,3.49,0,6.43,1.41,7.96,4.22,2.45-1.16,4.41-1.96,6.49-2.94,2.63-1.1,5.14-2.27,7.71-3.49l3.55,8.39c-2.14.61-5.88,1.96-8.2,2.88-2.26.86-5.2,2.02-8.39,3.43.06,3.31.18,7.29.25,9.98h-8.63c.12-1.53.24-3.8.31-6-3.73,2.2-5.45,4.1-5.45,6.55s1.9,3.55,7.53,3.55c5.33,0,12.18-.73,17.45-1.84l-.31,9.37c-3.61.49-11.39,1.04-17.33,1.04-9.86,0-16.9-2.57-16.9-10.53s7.16-12.86,13.77-16.35c-.92-.98-2.14-1.29-3.31-1.29-3.06,0-6.8,2.02-8.82,4.04-1.78,1.9-3.55,4.04-5.57,6.8l-7.77-5.82c5.69-5.08,9.92-9.98,12.86-15.49-2.45,0-6.86-.12-10.04-.43v-8.39c3,.49,7.59.73,10.84.73h2.33c.55-2.2.92-4.47,1.04-6.55l9.61.73Z"/><path class="cls-1" d="m140.71,380.03c-3,4.71-6.43,8.94-10.35,12.79v13.1c0,4.77-.86,7.28-3.8,8.82-2.94,1.47-6.92,1.65-12.61,1.65-.37-2.63-1.78-6.86-3.06-9.31-6.73,3.61-13.96,6.55-21.55,8.82-1.29-2.14-4.29-6.18-6.06-8.14,7.9-1.96,15.3-4.59,21.98-8.02-7.22.55-14.08,1.1-19.71,1.47l-1.22-8.75c2.57-.06,5.57-.18,8.82-.31v-28.28h12.79c.67-2.02,1.29-4.1,1.65-5.88l11.02,1.04c-.8,1.65-1.71,3.31-2.63,4.84h14.39v14.51c.55-.8,1.1-1.65,1.59-2.51l8.75,4.16Zm-38.63-8.57v2.39h19.04v-2.39h-19.04Zm19.04,8.63h-19.04v2.57h19.04v-2.57Zm-19.04,11.63c5.39-.25,11.14-.55,16.84-.8.73-.67,1.47-1.29,2.2-1.9v-.12h-19.04v2.82Zm19.04,8.94c-3.18,2.33-6.61,4.47-10.16,6.37,3.18.24,7.35.18,8.57.18s1.59-.37,1.59-1.41v-5.14Z"/><path class="cls-1" d="m98.96,427.54c-.61,3.12-2.88,15.86-2.88,21.43,0,.18,0,1.16.06,1.35.86-1.65,1.59-2.88,2.33-4.59l4.41,3.49c-1.78,5.45-3.67,12.06-4.35,15.43-.12.92-.31,2.33-.31,2.88,0,.67,0,1.71.06,2.69l-8.45.55c-1.16-4.04-2.39-11.57-2.39-19.77,0-9.18,1.78-19.16,2.33-23.63.24-1.78.67-4.53.73-6.8l10.16.86c-.55,1.35-1.47,5.02-1.71,6.12Zm15.24,28.65c0,2.63,2.57,3.61,7.47,3.61,5.33,0,9.67-.43,15.12-1.59l.18,9.86c-3.98.67-8.69,1.1-15.79,1.1-10.47,0-15.73-3.86-15.73-10.28,0-2.57.37-5.14,1.1-8.26l8.26.73c-.43,1.96-.61,3.24-.61,4.84Zm20.94-31.16v9.37c-7.9.61-18.37.67-26.45,0l-.06-9.31c7.9.92,19.77.67,26.51-.06Z"/><path class="cls-1" d="m105.45,505.59c-.24.61-.49,1.16-.73,1.78h29.81v27.43h-9.37v-1.53h-18.98v1.53h-8.88v-14.82c-2.57,3.18-5.45,6-8.57,8.2-1.35-1.78-4.71-5.14-6.61-6.67,5.94-3.55,10.71-9.24,13.59-15.92h-11.08v-6.86h22.71v-1.59h-16.77v-6.31h16.77v-1.71h-20.02v-6.8h9.67c-.61-1.16-1.35-2.39-2.08-3.37l7.9-2.45c1.53,1.71,2.94,4.04,3.61,5.82h11.63c.98-1.78,2.14-4.1,2.69-5.82l9.79,2.33c-1.04,1.29-2.08,2.45-2.94,3.49h9.61v6.8h-20.69v1.71h17.32v6.31h-17.32v1.59h22.96v6.86h-34.04Zm.73,7.96v1.35h18.98v-1.35h-18.98Zm18.98,6.06h-18.98v1.35h18.98v-1.35Zm0,7.47v-1.41h-18.98v1.41h18.98Z"/><path class="cls-1" d="m99.75,541.83c-.61,1.71-1.35,4.16-1.59,5.51-1.29,5.51-3.43,17.81-2.27,23.88.8-1.47,1.84-3.98,2.69-5.69l4.47,2.88c-1.96,5.69-3.43,11.69-4.22,15.37-.24.92-.43,2.39-.43,3.06,0,.61.06,1.78.12,2.75l-8.14.8c-1.35-3.61-3.61-12.3-3.61-19.71,0-9.92,1.04-19.16,1.84-24,.31-1.84.37-4.1.43-5.82l10.71.98Zm29.57-1.04c-.25,1.47-.31,3.06-.37,4.41v6.92c3.24-.24,6.24-.55,8.51-.92l-.06,9.43c-2.26.18-5.2.37-8.45.55v2.75c0,14.33-1.71,22.47-13.22,30.12l-8.39-6.61c2.57-1.1,5.88-3.24,7.65-5.39,3.55-4.29,4.9-8.88,4.9-18.18v-2.33c-2.08.06-4.22.06-6.24.06-2.45,0-5.82-.18-9-.31v-9.18c3.12.43,5.63.61,8.82.61,2.02,0,4.16-.06,6.37-.12-.06-3-.12-5.75-.25-7.41-.12-1.47-.49-3.49-.73-4.41h10.47Z"/><path class="cls-1" d="m109.49,598.88l9.79-1.1c.61,3.24,1.47,6.18,2.26,8.88,4.29-.67,8.14-1.53,11.82-2.57l1.16,9.12c-2.75.73-6.12,1.41-9.73,1.96,1.65,3.55,3.43,6.67,4.59,8.39,1.16,1.71,2.39,3.12,3.55,4.53l-4.35,6.49c-3.67-.67-11.45-1.53-16.9-2.02l.73-7.65c2.69.25,6.43.55,8.08.67-1.47-2.57-3.18-5.88-4.71-9.37-7.04.55-15.24.61-25.9-.24l-.12-9.31c9.06,1.1,16.47,1.29,22.71.92-.31-.98-.61-1.9-.92-2.69-.49-1.41-1.22-3.73-2.08-6Zm-9.06,36.91c0,4.71,4.1,6.61,11.94,6.61,6.8,0,12.12-.67,16.41-1.41l-.55,9.18c-3.24.55-8.82,1.41-16.47,1.41-12.79,0-20.75-5.08-20.75-14.02,0-3.86,1.1-7.47,3.31-11.81l9.12,2.08c-2.02,2.82-3,5.51-3,7.96Z"/><path class="cls-1" d="m128.83,658.63c-.18.92-.37,3.92-.43,5.63-.06,2.08-.12,3.86-.12,5.51,1.16-.12,2.27-.18,3.31-.25,1.71-.12,4.41-.31,6.37-.49v8.82c-1.1-.06-4.77.06-6.43.12-.98.06-2.14.12-3.43.18-.18,4.65-.37,9.31-.86,11.69-.73,3.49-2.39,4.29-5.57,4.29-2.14,0-7.35-.61-9.67-.98l.18-7.96c1.71.31,4.16.67,5.26.67,1.04,0,1.47-.18,1.59-1.22.18-1.47.31-3.49.37-5.82-4.84.43-10.04.92-14.69,1.41-.06,5.14-.06,10.28,0,12.92.12,5.57.86,6.37,9.06,6.37,5.51,0,13.22-.73,18-1.65l-.37,9.98c-3.98.49-11.39.98-16.9.98-16.47,0-18.67-3.31-18.92-14.2-.06-2.57-.06-8.02-.06-13.41-1.1.12-1.96.24-2.69.31-1.9.25-6.31.86-7.84,1.1l-.98-9.18c1.59,0,4.65-.12,8.2-.43.8-.06,1.96-.18,3.31-.31v-4.77c0-2.88-.24-5.27-.55-7.53h10.28c-.31,2.33-.43,4.04-.43,6.98,0,1.04,0,2.57-.06,4.41,4.65-.43,9.86-.92,14.75-1.29v-5.82c0-1.59-.31-4.84-.49-6.06h9.79Z"/><path class="cls-1" d="m119.77,719.42l7.65-6.49c4.16,3.43,10.16,9.61,12.86,12.98l-7.77,6.67c-3.55-4.35-8.57-9.49-12.73-13.16Z"/><path class="cls-1" d="m58.59,35.57h-23.81v12.73c0,4.77-1.04,7.16-4.35,8.57-3.24,1.41-7.71,1.65-13.16,1.59-.55-2.63-2.33-6.79-3.8-9.18,3.92.18,8.75.18,10.16.18s1.78-.31,1.78-1.35v-12.55H1.53v-8.94h23.88v-9.67h4.29c2.2-1.35,4.41-3,6.43-4.59H8.02V3.61h37.28l2.02-.49,6.8,5.14c-5.2,5.45-12.37,11.39-19.35,15.61v2.75h23.81v8.94Z"/><path class="cls-1" d="m21.79,64.03c-1.53,4.1-3.49,8.33-5.63,12.43v42.98H7.41v-29.51c-.86,1.1-1.78,2.14-2.63,3.06-.8-2.2-3.18-7.16-4.65-9.37,5.26-5.33,10.35-13.77,13.28-22.22l8.39,2.63Zm15,40.96c-3.12,5.39-8.2,10.84-12.61,14.2-1.59-1.59-4.96-4.35-6.92-5.57,4.41-2.69,8.75-7.04,11.2-11.26l8.33,2.63Zm22.22-13.22v8.69H19.04v-8.69h7.59v-10.59h-6.12v-8.51h6.12v-10.96h8.69v10.96h7.1v-11.08h8.69v11.08h7.47v8.51h-7.47v10.59h7.9Zm-23.69,0h7.1v-10.59h-7.1v10.59Zm13.41,10.47c3.86,3.8,7.96,8.88,10.1,12.37l-7.47,4.71c-1.84-3.61-6.06-9.18-9.73-13.16l7.1-3.92Z"/><path class="cls-1" d="m28.96,124.58c-.49,1.9-1.1,4.84-1.35,6.18-.06.31-.12.67-.24,1.04,3.06-.49,6.12-1.1,9.18-1.78v9.06c-3.43.8-7.28,1.47-11.2,1.9-.55,2.57-1.16,5.2-1.78,7.59-2.14,8.33-6.18,20.51-9.61,27.92l-10.1-3.37c3.55-6,8.33-18.73,10.59-27.12l1.1-4.22c-1.1.06-2.08.06-3.06.06-3.06,0-5.45-.12-7.47-.24l-.24-9.06c3.24.37,5.14.49,7.77.49,1.59,0,3.18-.06,4.78-.12.18-.92.31-1.71.37-2.45.31-2.51.37-5.2.18-6.67l11.08.8Zm6.73,33.49c-.43,1.59-.8,3.55-.8,4.77,0,2.51,1.9,4.1,7.16,4.1,4.1,0,8.2-.49,12.86-1.29l-.37,9.24c-3.43.43-7.53.86-12.55.86-10.53,0-16.1-3.8-16.1-9.92,0-3.06.67-6.31,1.16-8.57l8.63.8Zm-4.41-15.37c3.49-.31,8.02-.61,11.88-.61,3.37,0,6.98.18,10.65.49l-.18,8.75c-3-.37-6.73-.8-10.47-.8-4.29,0-8.02.18-11.88.67v-8.51Z"/><path class="cls-1" d="m28.77,181.32c-.67,2.45-1.04,4.59-1.59,6.73l-.18.92c6.61-.37,14.39-1.29,21.55-2.75l.18,8.63c-5.82.92-15.37,2.14-23.57,2.51-.67,2.88-1.41,5.75-2.14,8.33,4.71-2.08,8.94-2.94,13.84-2.94,9.79,0,16.71,5.33,16.71,13.41,0,14.02-13.1,19.04-33.24,16.9l-2.57-9.43c12.79,2.2,25.96,1.04,25.96-7.22,0-3.06-2.82-5.82-8.02-5.82-6.8,0-12.61,2.51-15.98,6.98-.55.73-.98,1.47-1.53,2.51l-8.57-3c2.75-5.39,5.08-13.04,6.67-19.53-3.55-.12-6.92-.25-9.67-.55v-9c3.67.61,7.9,1.1,11.39,1.22.12-.61.18-1.16.24-1.65.37-2.88.43-4.47.31-6.61l10.22.37Z"/><path class="cls-1" d="m33.79,291.39l-5.51-8.51c2.51-.31,4.1-.67,5.88-1.1,7.59-1.84,12.79-7.22,12.79-15.18s-3.92-13.41-10.96-15c-.8,4.9-1.78,10.16-3.49,15.79-3.55,12-8.82,20.02-15.92,20.02s-12.98-8.02-12.98-18.3c0-14.26,12.24-26.32,28.22-26.32s24.92,10.53,24.92,24.12c0,12.24-7.35,21.85-22.96,24.49Zm-16.96-15.3c2.45,0,4.47-3.67,6.61-10.59,1.35-4.16,2.27-8.94,2.88-13.65-8.94,2.45-13.41,10.59-13.41,16.35,0,5.2,1.84,7.9,3.92,7.9Z"/><path class="cls-1" d="m58.1,310.25h-6.86v34.4c0,5.02-1.16,7.59-4.41,9-3.37,1.53-7.96,1.71-14.39,1.71-.49-2.63-2.33-7.04-3.73-9.43,4.1.31,9.67.25,11.14.25s2.02-.43,2.02-1.71v-34.22H2.14v-9h55.95v9Zm-42,30v4.59H7.47v-28.96h26.69v24.36h-18.06Zm0-15.92v7.47h9.24v-7.47h-9.24Z"/><path class="cls-1" d="m24.73,380.28c-.18-.92-.49-1.96-.86-3.06-7.96.55-15.98,1.1-22.22,1.53l-.67-8.39c1.47-.06,3.06-.12,4.78-.18,1.59-3.8,3.06-8.39,3.92-12.12l9.31,1.9c-1.29,3.37-2.69,6.79-4.1,9.86l5.75-.25c-.73-1.47-1.47-2.94-2.27-4.29l7.59-2.82c2.82,4.47,5.82,10.28,6.92,14.39v-18.06h8.88v7.77c3.43-1.47,6.73-3.12,9.24-4.65l5.57,6.43c-4.53,2.2-9.86,4.1-14.81,5.57v2.2c0,2.26.31,2.51,2.33,2.51h5.02c1.78,0,2.14-.86,2.39-5.88,1.78,1.35,5.45,2.75,7.84,3.24-.92,8.2-3.24,10.53-9.37,10.53h-7.22c-7.65,0-9.67-2.33-9.86-9.43l-8.14,3.18Zm3.86,27.73c0,3.61-.67,5.75-3,7.04-2.33,1.35-5.2,1.47-8.82,1.47-.43-2.33-1.71-5.75-2.82-7.84,1.78.12,4.1.12,4.84.06.73,0,.98-.18.98-.92v-2.39h-6.98v11.14H4.59v-35.81h24v27.24Zm-15.79-20.02v2.08h6.98v-2.08h-6.98Zm6.98,10.96v-2.39h-6.98v2.39h6.98Zm29.57,9.61c1.9,0,2.27-1.1,2.57-6.98,1.84,1.35,5.39,2.69,7.77,3.24-.92,8.88-3.18,11.45-9.49,11.45h-7.47c-7.9,0-9.86-2.51-9.86-10.22v-18.55h8.82v7.29c3.61-1.59,7.04-3.49,9.61-5.2l5.82,6.49c-4.65,2.45-10.22,4.59-15.43,6.31v3.61c0,2.33.37,2.57,2.45,2.57h5.2Z"/><path class="cls-1" d="m58.95,467.57v8.45H20.32v-8.45h15.86v-10.59h-11.26v-8.26h11.26v-8.57h-5.45c-.92,3-1.96,5.69-3.12,7.9-1.77-1.22-5.75-3.18-7.9-4.04.55-.92,1.04-1.9,1.53-3l-3.55,1.59c-.18-1.04-.55-2.27-.98-3.67v38.94H7.77v-33.61c-.37,2.14-.8,4.16-1.29,5.88l-6.49-2.33c1.41-4.16,2.45-11.08,2.88-16.22l4.9.67v-12.55h8.94v11.75l3.43-1.47c.98,1.9,1.96,4.1,2.75,6.18,1.16-4.16,1.96-8.94,2.39-13.65l8.63,1.29c-.31,2.69-.67,5.39-1.16,7.96h3.43v-11.63h8.88v11.63h11.75v8.39h-11.75v8.57h10.47v8.26h-10.47v10.59h13.9Z"/><path class="cls-1" d="m30.85,483.55c-.24,1.35-.67,3.24-1.35,5.51,5.45-.31,11.14-.8,16.16-1.71l-.06,8.39c-5.57.74-12.92,1.29-19.35,1.53-.73,1.53-1.53,3.06-2.33,4.29,1.22-.37,4.29-.61,5.94-.61,3.49,0,6.43,1.41,7.96,4.22,2.45-1.16,4.41-1.96,6.49-2.94,2.63-1.1,5.14-2.26,7.71-3.49l3.55,8.39c-2.14.61-5.88,1.96-8.2,2.88-2.27.86-5.2,2.02-8.39,3.43.06,3.31.18,7.29.25,9.98h-8.63c.12-1.53.24-3.79.31-6-3.73,2.2-5.45,4.1-5.45,6.55s1.9,3.55,7.53,3.55c5.33,0,12.18-.73,17.45-1.84l-.31,9.37c-3.61.49-11.39,1.04-17.32,1.04-9.86,0-16.9-2.57-16.9-10.53s7.16-12.86,13.77-16.34c-.92-.98-2.14-1.29-3.31-1.29-3.06,0-6.8,2.02-8.82,4.04-1.78,1.9-3.55,4.04-5.57,6.79l-7.77-5.82c5.69-5.08,9.92-9.98,12.86-15.49-2.45,0-6.86-.12-10.04-.43v-8.39c3,.49,7.59.73,10.84.73h2.33c.55-2.2.92-4.47,1.04-6.55l9.61.73Z"/><path class="cls-1" d="m36.73,566.62c3.98,11.08,11.08,20.02,22.34,24.36-2.2,1.96-5.2,5.88-6.61,8.45-10.77-4.96-17.51-13.1-22.22-23.94-3.49,9.43-9.98,17.94-22.04,23.94-1.41-2.45-4.1-5.63-6.73-7.59,13.41-6.06,19.04-15.24,21.49-25.22H2.69v-9.24h21.73c.43-5.39.37-10.77.43-15.86h9.79c-.06,5.08-.12,10.47-.61,15.86h23.51v9.24h-20.81Z"/><path class="cls-1" d="m31.53,621.84c-.18-.55-.31-1.04-.49-1.53-.37-1.16-.73-2.08-.98-2.94-5.63.24-12.37.12-19.96-.61l-.49-8.26c7.04.8,12.86,1.1,18.12.98-.55-1.78-1.1-3.55-1.78-5.51l9.67-.98c.24,2.08.61,4.04.98,5.88,3.98-.49,7.65-1.35,11.51-2.51l1.16,8.26c-3.24.92-6.86,1.65-10.65,2.14.25.67.43,1.41.67,2.08.25.67.55,1.41.86,2.27,4.84-.67,8.2-1.59,11.14-2.39l1.47,8.57c-2.69.67-5.63,1.22-8.88,1.65.86,1.53,1.65,2.94,2.45,4.16.92,1.35,1.71,2.27,2.94,3.43l-4.29,6.55c-3.37-.61-10.35-1.47-14.88-1.96l.73-6.86c2.08.18,5.02.37,6.73.49-.98-1.65-1.84-3.31-2.63-4.9-7.35.43-16.96.43-25.9-.12l-.49-8.51c8.82.8,16.53.92,22.96.61Zm-12.61,20.45c0,4.16,4.1,5.57,11.2,5.57,5.69,0,11.26-.49,15.49-1.29l-.55,9.24c-4.16.61-10.1,1.1-14.94,1.1-12.12,0-20.02-3.61-20.2-12.61-.12-4.1,1.29-7.29,2.75-10.22l9,1.65c-1.47,1.9-2.75,4.04-2.75,6.55Z"/><path class="cls-1" d="m39.18,674.05c-3.73,2.82-11.26,8.57-15.06,11.88-2.94,2.51-2.82,3.06.06,5.63,3.98,3.43,15.79,12.61,21.79,18.3l-8.51,7.9c-1.96-2.14-3.92-4.29-5.88-6.24-3.31-3.49-11.94-10.9-17.45-15.55-6.12-5.26-5.75-8.88.61-14.08,4.84-3.92,12.55-10.29,16.59-14.14,2.02-1.96,4.16-4.04,5.27-5.69l8.45,7.53c-2.2,1.59-4.22,3.18-5.88,4.47Z"/><path class="cls-1" d="m51.48,778.49c-.18-1.53-.49-3.37-.92-5.26-7.53.92-15.3,1.84-21.37,2.57l-1.29-7.04c-1.1,3.61-2.57,6.98-4.59,9.79-1.47-1.41-4.9-3.8-6.92-4.78-.43,1.41-1.16,2.45-2.39,3.18-2.27,1.47-5.45,1.78-9.73,1.78-.25-2.39-1.35-6.24-2.45-8.69,2.2.12,4.65.12,5.45.12s1.1-.31,1.1-1.16v-10.71l-6.12,1.59-1.78-8.63c2.27-.37,4.96-.92,7.9-1.59v-9.67H1.84v-8.14h6.55v-11.14h8.51v11.14h3.98v8.14h-3.98v7.77l3.86-.92,1.04,7.9c-1.59.43-3.24.92-4.9,1.35v12.98c0,1.59-.06,2.88-.31,3.98,5.51-8.33,6-20.26,6-28.71v-14.33h13.65v-9.43h8.82v9.43h13.04v8.02h-27.06v6.37c0,6.49-.49,15.3-2.75,23.14l3.98-.31c1.9-7.65,3.73-18.12,4.47-26.51l9.24,1.35c-1.35,8.39-3.31,17.39-5.14,24.37,2.51-.25,5.08-.49,7.71-.8-1.1-3.55-2.45-7.16-3.86-10.41l7.59-2.33c3.43,7.29,6.67,16.59,7.53,22.9l-8.33,2.69Z"/><path class="cls-1" d="m16.59,787.24c-.61,1.65-1.35,4.1-1.65,5.45-1.22,5.51-3.37,17.82-2.2,23.88.8-1.41,1.84-3.98,2.69-5.69l4.47,2.88c-2.02,5.69-3.43,11.69-4.22,15.37-.24.98-.43,2.39-.43,3.06s.06,1.78.12,2.75l-8.14.8c-1.41-3.61-3.61-12.3-3.61-19.71,0-9.92,1.04-19.16,1.84-24,.24-1.78.31-4.1.37-5.82l10.77,1.04Zm28.65,3.37c-.06,1.22-.06,3.92-.06,6.92,3.49-.25,6.67-.55,9.12-.92l-.06,9.37c-2.39.18-5.57.43-9.06.61v2.69c0,14.39-1.71,22.47-13.22,30.18l-8.39-6.61c2.57-1.16,5.88-3.31,7.65-5.45,3.55-4.29,4.96-8.88,4.96-18.18v-2.33c-1.9.06-3.86.06-5.69.06-2.45,0-5.82-.18-9-.31v-9.18c3.12.43,5.57.61,8.75.61,1.84,0,3.86-.06,5.82-.12,0-3-.12-5.69-.24-7.35-.12-1.53-.49-3.49-.73-4.47h10.35l-.18,4.47Zm4.9-6.86c1.16,2.45,2.45,6.18,3.06,8.45l-4.77,1.53c-.86-2.63-1.84-6.06-3-8.57l4.71-1.41Zm6.31-2.02c1.16,2.51,2.51,6.24,3.18,8.51l-4.78,1.47c-.8-2.57-1.96-6-3.18-8.45l4.77-1.53Z"/><path class="cls-1" d="m18.67,847.05c3.24,0,15.24-.18,18.79-.49,2.88-.25,4.59-.49,5.33-.73l4.53,6.43c-1.53.98-3.12,1.9-4.59,2.94-3.37,2.33-8.69,6.61-12,9.12,1.59-.31,2.82-.37,4.22-.37,10.35,0,18.43,6.61,18.43,15.67s-6.79,17.63-22.34,17.63c-8.45,0-15.49-3.98-15.49-10.59,0-5.26,4.84-10.22,11.69-10.22,7.35,0,12,4.29,13.04,9.98,2.39-1.65,3.49-3.98,3.49-6.92,0-5.14-5.27-8.39-11.88-8.39-8.75,0-15.06,5.26-20.81,12.3l-6.61-6.86c3.86-3,10.84-8.94,14.39-11.88,3.37-2.76,8.94-7.04,11.81-9.67-3,.06-9.18.31-12.43.55-1.78.12-3.92.31-5.39.55l-.31-9.43c1.9.25,4.16.37,6.12.37Zm10.53,41.87c.98,0,1.84-.06,2.69-.12-.31-3.31-2.08-5.45-4.59-5.45-2.02,0-3.12,1.22-3.12,2.39,0,1.9,1.96,3.18,5.02,3.18Z"/><path class="cls-1" d="m58.1,910.78c0,5.51-4.47,10.04-10.04,10.04s-10.04-4.53-10.04-10.04,4.53-10.04,10.04-10.04,10.04,4.53,10.04,10.04Zm-5.08,0c0-2.75-2.2-4.96-4.96-4.96s-4.96,2.2-4.96,4.96,2.27,4.96,4.96,4.96,4.96-2.2,4.96-4.96Z"/></svg>