<?xml version="1.0" encoding="utf-8"?>
<!-- Generator: Adobe Illustrator 27.7.0, SVG Export Plug-In . SVG Version: 6.00 Build 0)  -->
<svg version="1.1" id="Layer_1" xmlns="http://www.w3.org/2000/svg" xmlns:xlink="http://www.w3.org/1999/xlink" x="0px" y="0px"
	 viewBox="0 0 177 135.8" style="enable-background:new 0 0 177 135.8;" xml:space="preserve">
<style type="text/css">
	.st0{fill:#F0810D;}
	.st1{fill-rule:evenodd;clip-rule:evenodd;fill:#F0810D;}
</style>
<g>
	<path class="st0" d="M116.3,9.7l-1.7,1.9c-0.1-0.1-0.2-0.2-0.3-0.3c-1.4-1.3-1.3-2.2-0.7-3.3c-1.9,1.3-3,8-3.3,9.9c0,0.3,0,0.7,0,1
		c0.6,4.5,2.5,7.9,4.1,10.9c1.3,2.4,2.5,4.5,2.6,6.7c0,0.6,0,1.2-0.1,1.7c0.1,0.5,0.2,1,0.2,1.4c0.1,1.2-0.1,2.4-0.6,3.4
		c-1,4.2-4.8,5.2-6.5,5.7c-0.7,0.2-1.4,0.2-2.3,0c-0.4,0.1-0.8,0.2-1.1,0.3c-0.4,0.1-0.8,0.2-1.3,0.1c-2.1-0.1-4.9-1.6-6-4.1
		c-1.1-2.5,1.4-4.6,2.8-5l0.2,0.3c0-1.8,1.9-3.2,3.1-3.7l0.6,0.9c-0.6,0.7-0.6,1.6-0.5,2.2c0,0.1,0,0.1,0.1,0.2
		c0.1,0.1,0.2,0.3,0.3,0.4c0.1,0.1,0.2,0.1,0.3,0.1l0.7-0.2c0.1,0,0.1,0,0.2,0.1c0.1,0.2,0.3,0.3,0.5,0.3c0.2-2.3-1.2-4.6-3.5-7.7
		c-3.2-4.1-5-10.4-5.9-13.9c-1-4,0.6-9.6,4.8-12.4c2-3.4,5.4-5.4,9.5-5.5c0.2,0,0.5,0,0.7,0c2.3,0.1,3.6,1.1,4.4,1.9
		c0.5-0.3,1.1-0.4,1.7-0.4c0.7,0,1.4,0.3,1.9,0.5c0.3,0.1,0.5,0.3,0.8,0.5l-0.6,0.6c-0.2,0.2-0.4,0.4-0.7,0.7
		C119.1,6.7,117.7,8.1,116.3,9.7z M102.8,42.2c-0.2-0.2-0.2-0.3-0.2-0.5c0-0.1-0.3-1-0.3-1c-0.1,0.2-0.2,1.1-0.2,1.4l0.1,0.5
		c0,0.1,0,0.1,0.1,0.2c0.5,0.9,0.8,0.8,1,0.8C103.3,43.6,103,42.4,102.8,42.2z"/>
	<path class="st1" d="M172.3,52.4c-1.6-0.5-5.8,1.2-6.2,1.6c-1.1,1.4-1.7,3.5-1.6,4.3c0.3,1.6-1.4,3.1-7.7,6.3c-3,1.5-4.2,0-5.2-2.5
		c-2.5-6.5-1.9-6.9-7.6-11.3c-3.2-2.5-4.3-3.4-2.6-4.3c0.2-0.1,0.4-0.1,0.5-0.1c2.5,0,6.9-1.3,9.7-3.7c0.1-0.1,0.2-0.2,0.4-0.4
		c0.6-0.5,1.4-1.3,1.7-1.6c0,0,0,0,0.1,0c8.6-8.9,2.1-12.1,2.1-22.1c0-0.6,0.6-0.9,0.6-1.8l0.3-2.5c0-2-0.4-3-0.8-3.8
		c-4.7-9.2-13.3-10.7-22.6-9.7c-8.6,1-12.9,2.2-18.9,10.8c0,0,0,0.1-0.1,0.1c-2.3,3.9-4,9.6-3.7,14c0,0,0.4,3.7,0.9,5.5
		c0,0,0,0.1,0,0.1c0.1,0.2,0.2,0.5,0.2,0.7c0,0,0,0.1,0,0.1c0.9,2.9,1.2,4.3,3.5,6.9c0.3,0.4,0.9,0.9,1.3,1.2
		c2.2,1.5,3.7,3.6,7.4,5.6c1.2,0.7,2.6,1.2,3.8,1.5c1,0.3,1.1,1.8,0,2.1c-10,3.4-28.8,10.2-29.4,17.5c-0.5,6.8-10.7,4.8-7.4,18.3
		c0.9,3.6,4.1,2.9,6.9,1.2c6.4-3.8,3.7-4,3.2-8.5c-1-8.1,10.2-14.2,17.8-16.4c0.9-0.3,1.7,0.6,1.4,1.4c-1.3,3.7,2,13.4-3.5,21.9
		c-7.4,11.3-18.5,10-15.6,11.3c3.6,1.6,12,11.1,3.1,12.9c-6.3,1.2-5.8-8.6-9.6-10c-2.4-0.9-7.9,7.4-8.2,12.4
		c-0.3,4.4,0.5,6.7,1.3,7.8c0.2,0.2,1.1,1.4,1.4,1.4c2.6,0.4,4.1-4.3,4.8-7.8c0.2-1,1.5-1.2,2-0.4c4.2,6.3,9.7,10.8,15.4,1.5
		c1.4-2.4,7-5.7,9.9-3.9c5.7,3.7,21.1,4.5,27.1-1.1c0.5-0.5,1.3-0.4,1.7,0.2c1,1.5,2.8,4.4,4.8,7.4c2.9,4.5,1.2,11,4.3,12.5
		c1,0.5,6.6-0.3,10.4-2.8c15.5-10.4,2.3-14-4.3-9.1c-0.7,0.5-1.7,0-1.8-0.9c-0.1-2.9-0.4-7.7-1.3-10.6c-1.4-4.4-7.4-7.1-5.1-8.3
		c2.3-1.1,5-3.7,2.7-4.3c-2.3-0.6-14.3-6.6-15.4-12.4c-0.8-4.3,1-9.9,2-12.5c0.3-0.7,1.2-0.9,1.8-0.4c7.5,6.7,13.1,5.8,18.2-3.9
		c0.1-0.3,0.4-0.4,0.6-0.5c1.3-0.4,5.3-2,6.6-5.7C174.6,55.2,174.1,52.9,172.3,52.4z"/>
	<path class="st1" d="M65,96c10,5.6,9.4,18.9,11.8,30.1c0.2,1,4-2.8,10.4,0.6c4,2.1-21.8,13.7-21.4,7.2c0.7-12.8-4.4-29.4-19.1-32.8
		c-0.3-0.1-0.6,0.1-0.7,0.4c-2.1,13-13.7,20.8-26.4,17.3c-6.1-1.7-10.3-8.1-11.8-7.6c-0.7,0.3-3,5.4-3.4,7.9
		c-0.3,2.5-4.1,5.4-4.4-3.8c-0.2-5.3,1-12.6,3.1-16.1c4.7-7.8,6.2,0.6,10,5.4c2.6,3.2,9.2,5.3,12.5,3.6c5-2.4,8.4-9.4,8.2-11.5
		c-0.2-2.1-1.4-4.5,1.7-12.9c2.1-5.7,1-10.8,2-12.4c0.3-0.4-0.1-0.9-0.6-0.8C33.7,71.4,24.9,73.9,22,77c-3.7,3.9-2.5,2-5,1.3
		c-4.5-1.3-1.9,12.3-10.8,5.7c-6.7-5,0.9-12,4.8-12.2c1.2-0.1,4.5-1.2,5.4-3.1c4-8.5,20.2-8,27.4-11.6c2-1,3.7-2.7,4.5-3.6
		c0.2-0.3,0.2-0.7-0.1-0.8c-0.2-0.1-0.5-0.3-0.7-0.4c-0.1,0-0.1,0-0.2-0.1c-6.7-1-7.2-1-11.1-3.8c-0.5-0.3-0.4,3-2,1.7
		c-0.1-0.1-3.7-2-4.8-8c-0.8-4.3-3.1-11-1.3-18.7c2-8.7,8.7-17.2,19.5-20.2c0.4-0.1,0.8,0.2,0.7,0.7c0,0.1,0,0.2-0.1,0.3
		c-0.1,0.5,0.6,0.8,0.9,0.4c2.3-2.5,4.9-4.3,8.3-4.6c0.5,0,0.6,1.4,0.3,1.7c-0.4,0.5-0.5,1.2-0.3,1.9c0.1,0.5,0.6,0.2,1-0.2
		c1-1.1,3.3-0.6,5.5-1.1c0.9-0.2,0.7,0.5,0.4,0.9c0,0,0,0,0,0c-0.3,0.3-0.5,0.7,0,0.7c7.6,0,1.8,6.8,13.9,4.7
		c3.7-0.6,3.6,5.6-2.4,9.8c-0.2,0.1-0.3,0.2-0.4,0.4c-1.4,6.9,2.8,14.3,1.5,20.4c-2,9.9-10.5,12.5-18.4,13.5c-0.5,0.1-0.6,0.8-0.1,1
		c7.9,3.5,4.6,9.9,13.3,16.9c2.7,2.1,6.5,4.3,12.1,6.5c3.1,1.2,2.1,3.8,3.6,2.1c11-11.8,15.8,11.2,4.9,7.4c-1.8-0.6-3.7-1.5-5.1-0.8
		c-7.8,3.4-6.8,3.5-16.5-1.2c-2.3-1.1-6.3-4.3-7-6.5C62.1,72.2,59.9,90.2,65,96L65,96z"/>
</g>
</svg>
