<?xml version="1.0" encoding="UTF-8"?><svg id="Layer_1" xmlns="http://www.w3.org/2000/svg" viewBox="0 0 619.97 121.14"><defs><style>.cls-1{stroke-width:3px;}.cls-1,.cls-2{fill:#5a544b;stroke:#5a544b;stroke-linecap:round;stroke-linejoin:round;}.cls-3{fill:#f0810d;stroke-width:0px;}.cls-2{stroke-width:.75px;}</style></defs><path class="cls-3" d="M1.65.34h8.48c.91,0,1.65.74,1.65,1.65v42.94c0,.91.74,1.65,1.65,1.65h24.85c.91,0,1.65.74,1.65,1.65v6.83c0,.91-.74,1.65-1.65,1.65H1.65c-.91,0-1.65-.74-1.65-1.65V2C0,1.08.74.34,1.65.34Z"/><path class="cls-3" d="M87.9,10.33h-26.53c-.91,0-1.65.74-1.65,1.65v8.67c0,.91.74,1.65,1.65,1.65h24.09c.91,0,1.65.74,1.65,1.65v6.49c0,.91-.74,1.65-1.65,1.65h-24.09c-.91,0-1.65.74-1.65,1.65v11.19c0,.91.74,1.65,1.65,1.65h27.91c.91,0,1.65.74,1.65,1.65v6.83c0,.91-.74,1.65-1.65,1.65h-39.43c-.91,0-1.65-.74-1.65-1.65V2c0-.91.74-1.65,1.65-1.65h38.05c.91,0,1.65.74,1.65,1.65v6.68c0,.91-.74,1.65-1.65,1.65Z"/><path class="cls-3" d="M117.4.34h11c.7,0,1.32.44,1.56,1.1l18.78,53.08c.38,1.07-.42,2.2-1.56,2.2h-9.24c-.72,0-1.35-.46-1.57-1.15l-2.98-9.3c-.22-.68-.86-1.15-1.57-1.15h-18.37c-.71,0-1.35.46-1.57,1.13l-3.07,9.32c-.22.68-.86,1.13-1.57,1.13h-8.79c-1.14,0-1.94-1.13-1.56-2.21L115.84,1.44c.23-.66.86-1.1,1.56-1.1ZM117.74,35.42h9.89c1.12,0,1.92-1.09,1.57-2.16l-4.88-15.2c-.49-1.52-2.64-1.53-3.14-.01l-5.01,15.2c-.35,1.07.44,2.17,1.57,2.17Z"/><path class="cls-3" d="M192.82,1.8c2.08.89,3.84,2.21,5.28,3.94,1.19,1.43,2.14,3.01,2.84,4.74.7,1.73,1.04,3.71,1.04,5.93,0,2.68-.68,5.31-2.03,7.9-1.35,2.59-3.58,4.42-6.69,5.49,2.6,1.05,4.44,2.53,5.53,4.46,1.08,1.93,1.63,4.87,1.63,8.82v3.79c0,2.57.1,4.32.31,5.24.31,1.45,1.04,2.52,2.18,3.21v1.41h-13.01c-.36-1.25-.61-2.26-.76-3.02-.31-1.58-.47-3.2-.5-4.86l-.08-5.24c-.05-3.6-.67-5.99-1.86-7.19-1.19-1.2-3.43-1.8-6.71-1.8h-9.86c-.91,0-1.65.74-1.65,1.65v18.81c0,.91-.74,1.65-1.65,1.65h-8.21c-.91,0-1.65-.74-1.65-1.65V2c0-.91.74-1.65,1.65-1.65h25.32c3.85.08,6.82.56,8.9,1.45ZM168.47,11.79v11.84c0,.91.74,1.65,1.65,1.65h11.03c2.52,0,4.41-.31,5.67-.92,2.23-1.07,3.34-3.19,3.34-6.35,0-3.42-1.08-5.71-3.23-6.89-1.21-.66-3.03-.99-5.45-.99h-11.35c-.91,0-1.65.74-1.65,1.65Z"/><path class="cls-3" d="M214.72.34h9.74c.59,0,1.14.32,1.44.83l18.82,33.06c.84,1.47,3.09.88,3.09-.82V2c0-.91.74-1.65,1.65-1.65h7.67c.91,0,1.65.74,1.65,1.65v53.08c0,.91-.74,1.65-1.65,1.65h-9.17c-.59,0-1.14-.32-1.43-.83l-19.39-33.8c-.84-1.47-3.08-.87-3.08.82v32.16c0,.91-.74,1.65-1.65,1.65h-7.67c-.91,0-1.65-.74-1.65-1.65V2c0-.91.74-1.65,1.65-1.65Z"/><path class="cls-3" d="M311.74,15.03h8.36c.78,0,1.45.55,1.62,1.31l4.48,21.17c.37,1.74,2.85,1.75,3.23,0l4.59-21.18c.16-.76.84-1.3,1.61-1.3h7.83c1.1,0,1.89,1.06,1.59,2.11l-11.13,38.39c-.2.71-.85,1.19-1.59,1.19h-8.63c-.78,0-1.45-.54-1.61-1.3l-4.65-21.61c-.37-1.74-2.85-1.74-3.23,0l-4.71,21.62c-.17.76-.84,1.3-1.61,1.3h-8.74c-.74,0-1.39-.49-1.59-1.21l-10.78-38.39c-.3-1.05.5-2.1,1.59-2.1h8.19c.78,0,1.45.54,1.61,1.3l4.54,20.89c.38,1.75,2.88,1.73,3.23-.03l4.18-20.84c.15-.77.83-1.33,1.62-1.33Z"/><path class="cls-3" d="M361.22,10.06h-7.75c-.91,0-1.65-.74-1.65-1.65V1.65c0-.91.74-1.65,1.65-1.65h7.75c.91,0,1.65.74,1.65,1.65v6.76c0,.91-.74,1.65-1.65,1.65ZM353.47,15.03h7.75c.91,0,1.65.74,1.65,1.65v38.39c0,.91-.74,1.65-1.65,1.65h-7.75c-.91,0-1.65-.74-1.65-1.65V16.69c0-.91.74-1.65,1.65-1.65Z"/><path class="cls-3" d="M369.14,23.18v-7.77h5.81V5.44c0-.91.74-1.65,1.65-1.65h7.48c.91,0,1.65.74,1.65,1.65v9.98h6.77v7.77h-6.77v22.03c0,1.71.22,2.77.65,3.19.43.42,1.76.63,3.98.63.33,0,.68,0,1.05-.02.37-.01.73-.03,1.09-.06v8.15l-5.16.19c-5.15.18-8.67-.71-10.56-2.68-1.22-1.25-1.84-3.17-1.84-5.78v-25.67h-5.81Z"/><path class="cls-3" d="M429.48,15.26c2.09.89,3.82,2.26,5.16,4.1,1.14,1.56,1.84,3.16,2.09,4.81.25,1.65.38,4.33.38,8.06v22.85c0,.91-.74,1.65-1.65,1.65h-7.83c-.91,0-1.65-.74-1.65-1.65v-23.74c0-2.25-.38-4.06-1.14-5.44-.99-1.94-2.86-2.91-5.62-2.91s-5.03.96-6.51,2.89c-1.48,1.93-2.22,4.68-2.22,8.25v20.94c0,.91-.74,1.65-1.65,1.65h-7.6c-.91,0-1.65-.74-1.65-1.65V2.19c0-.91.74-1.65,1.65-1.65h7.6c.91,0,1.65.74,1.65,1.65v18.24c1.57-2.42,3.4-4.11,5.47-5.07,2.07-.96,4.25-1.43,6.53-1.43,2.56,0,4.89.45,6.99,1.34Z"/><path class="cls-3" d="M471.67.42h36.9c.91,0,1.65.74,1.65,1.65v6.6c0,.91-.74,1.65-1.65,1.65h-25.19c-.91,0-1.65.74-1.65,1.65v9.66c0,.91.74,1.65,1.65,1.65h21.68c.91,0,1.65.74,1.65,1.65v6.49c0,.91-.74,1.65-1.65,1.65h-21.68c-.91,0-1.65.74-1.65,1.65v20.34c0,.91-.74,1.65-1.65,1.65h-8.4c-.91,0-1.65-.74-1.65-1.65V2.07c0-.91.74-1.65,1.65-1.65Z"/><path class="cls-3" d="M519.52.34h8.67c.91,0,1.65.74,1.65,1.65v32.98c0,3.87.46,6.7,1.37,8.49,1.42,3.16,4.52,4.74,9.3,4.74s7.84-1.58,9.26-4.74c.91-1.78,1.37-4.61,1.37-8.49V2c0-.91.74-1.65,1.65-1.65h8.67c.91,0,1.65.74,1.65,1.65v33.01c0,5.99-.93,10.66-2.79,14-3.46,6.12-10.07,9.18-19.82,9.18s-16.37-3.06-19.86-9.18c-1.86-3.34-2.79-8.01-2.79-14V2c0-.91.74-1.65,1.65-1.65Z"/><path class="cls-3" d="M575.91.34h9.74c.59,0,1.14.32,1.44.83l18.82,33.06c.84,1.47,3.09.88,3.09-.82V2c0-.91.74-1.65,1.65-1.65h7.67c.91,0,1.65.74,1.65,1.65v53.08c0,.91-.74,1.65-1.65,1.65h-9.17c-.59,0-1.14-.32-1.43-.83l-19.39-33.8c-.84-1.47-3.08-.87-3.08.82v32.16c0,.91-.74,1.65-1.65,1.65h-7.67c-.91,0-1.65-.74-1.65-1.65V2c0-.91.74-1.65,1.65-1.65Z"/><path class="cls-1" d="M120.95,79.91l7.14,31.4,8.55-31.4h5.56l8.55,31.4,7.13-31.4h5.62l-9.94,38.6h-5.38l-8.73-32.01-8.78,32.01h-5.38l-9.89-38.6h5.56Z"/><path class="cls-1" d="M199.41,85.43c2.51,3.42,3.76,7.79,3.76,13.11,0,5.76-1.43,10.56-4.3,14.38-3.37,4.49-8.17,6.73-14.4,6.73-5.82,0-10.4-1.96-13.73-5.89-2.97-3.78-4.46-8.57-4.46-14.35,0-5.22,1.27-9.69,3.81-13.4,3.26-4.77,8.09-7.15,14.48-7.15s11.63,2.19,14.84,6.57ZM194.89,110.01c2.02-3.3,3.03-7.1,3.03-11.39,0-4.54-1.16-8.19-3.49-10.96-2.33-2.77-5.51-4.15-9.54-4.15s-7.11,1.37-9.58,4.11c-2.47,2.74-3.71,6.78-3.71,12.13,0,4.27,1.06,7.88,3.18,10.81,2.12,2.93,5.56,4.4,10.32,4.4s7.78-1.65,9.8-4.95Z"/><path class="cls-1" d="M209.89,79.91h17.52c2.88,0,5.26.43,7.13,1.29,3.55,1.65,5.33,4.69,5.33,9.12,0,2.31-.47,4.2-1.4,5.68-.94,1.47-2.25,2.65-3.93,3.55,1.48.61,2.59,1.42,3.34,2.42.75,1,1.16,2.62,1.25,4.86l.18,5.18c.05,1.47.17,2.57.36,3.28.31,1.23.86,2.01,1.65,2.37v.87h-6.28c-.17-.33-.31-.76-.41-1.29-.1-.53-.19-1.54-.26-3.05l-.31-6.44c-.12-2.52-1.04-4.21-2.76-5.07-.98-.47-2.52-.71-4.61-.71h-11.67v16.56h-5.13v-38.6ZM226.86,97.59c2.4,0,4.31-.49,5.71-1.47,1.4-.98,2.1-2.75,2.1-5.31,0-2.75-.98-4.63-2.94-5.62-1.05-.53-2.45-.79-4.2-.79h-12.52v13.19h11.85Z"/><path class="cls-1" d="M247.37,79.91h5v18.82l18.44-18.82h7.08l-15.74,15.56,16.18,23.05h-6.67l-13.24-19.37-6.05,5.91v13.46h-5v-38.6Z"/><path class="cls-2" d="M307.78,93.43h6.52l3.74,18.07,3.83-18.07h6.7l-7.13,25.08h-6.61l-3.86-18.27-3.9,18.27h-6.68l-6.9-25.08h6.9l3.83,18,3.54-18Z"/><path class="cls-2" d="M338.73,90.44h-6.52v-6.05h6.52v6.05ZM332.21,93.43h6.52v25.08h-6.52v-25.08Z"/><path class="cls-2" d="M342.43,98.33v-4.67h3.43v-7h6.36v7h3.99v4.67h-3.99v13.26c0,1.03.13,1.67.38,1.92.26.25,1.04.38,2.35.38.2,0,.4,0,.62-.01.22,0,.43-.02.64-.03v4.9l-3.05.12c-3.04.11-5.11-.43-6.23-1.61-.72-.75-1.08-1.91-1.08-3.47v-15.44h-3.43Z"/><path class="cls-2" d="M378.01,93.57c1.23.54,2.25,1.36,3.04,2.46.67.94,1.08,1.9,1.23,2.89.15.99.22,2.61.22,4.85v14.74h-6.56v-15.28c0-1.35-.22-2.44-.67-3.27-.58-1.17-1.69-1.75-3.31-1.75s-2.97.58-3.84,1.74c-.87,1.16-1.31,2.81-1.31,4.96v13.59h-6.43v-33.81h6.43v11.97c.93-1.46,2-2.47,3.22-3.05,1.22-.58,2.5-.86,3.85-.86,1.51,0,2.89.27,4.12.81Z"/><path class="cls-1" d="M404.72,79.91h26.25v4.73h-21.12v11.72h18.57v4.6h-18.57v17.55h-5.13v-38.6Z"/><path class="cls-1" d="M442.02,79.91v23.86c0,2.8.52,5.13,1.55,6.99,1.53,2.8,4.1,4.2,7.73,4.2,4.34,0,7.3-1.52,8.86-4.55.84-1.65,1.26-3.86,1.26-6.65v-23.86h5.2v21.68c0,4.75-.63,8.4-1.88,10.96-2.3,4.66-6.65,6.99-13.03,6.99s-10.72-2.33-13.01-6.99c-1.25-2.56-1.88-6.21-1.88-10.96v-21.68h5.2Z"/><path class="cls-1" d="M474.55,79.91h6.05l19.11,31.27v-31.27h4.87v38.6h-5.74l-19.4-31.25v31.25h-4.89v-38.6Z"/></svg>