<?xml version="1.0" encoding="UTF-8"?>
<svg id="Layer_1" data-name="Layer 1" xmlns="http://www.w3.org/2000/svg" viewBox="0 0 99.34 103.75">
  <defs>
    <style>
      .cls-1 {
        fill: #ed4f78;
      }

      .cls-2 {
        fill: #fff;
      }

      .cls-3 {
        fill: #f48120;
      }
    </style>
  </defs>
  <path class="cls-2" d="M.03,14.03c.22,2.56,1.57,4.81,3.7,6.15,1.83,1.16,3.69,2.3,5.54,3.42,1.26.76,7.98,4.79,7.98,4.79.78.47,1.46.88,1.59,1.79.13.9-.42,1.49-1,2.11-2.6,2.8-2.83,7.38-.49,10.43.97,1.27.89,2.46-.27,3.54-2.98,2.79-3.37,7.53-.88,10.79.96,1.25.88,2.44-.27,3.52-1.82,1.72-2.73,4.17-2.48,6.75.24,2.48,1.52,4.64,3.53,5.92,2.89,1.83,5.31,3.35,7.6,4.74,2.62,1.59,5.03,2.98,7.35,4.26,7.1,3.94,14.8,6.75,22.89,8.41.52.11.93.25,1.27.46,1.1.66,1.3,1.77,1.35,2.54.19,2.82,1.5,5,3.92,6.5.86.52,1.69,1.04,2.55,1.56.91.55,1.83,1.09,2.74,1.64,1.22.72,2.11.49,2.84-.71,3.19-5.25,6.38-10.51,9.57-15.78l16.66-27.53c.99-1.64.63-2.29-.55-3.1-.97-.67-2.02-1.39-3.07-2.03-1.45-.88-2.77-1.52-4.02-1.97-1.64-.59-3.31-.59-4.98.01-.31.12-1.27.47-2.17-.08-.6-.37-.88-.94-1.08-1.51l-1-2.76c-2.29-6.31-4.66-12.84-7.06-19.23-1.33-3.54-3.41-6.18-6.15-7.84-1.9-1.15-4.17-1.87-6.76-2.14-1.49-.16-3.1,0-5.22.52l-1.38.34c-3.62.89-7.25,1.77-10.88,2.7-1.2.31-2.26.15-3.33-.5-4.77-2.9-9.52-5.78-14.28-8.66-3.76-2.27-7.51-4.54-11.27-6.8-3.2-1.92-7.03-1.55-9.78.92C.8,8.92-.19,11.41.03,14.03Z"/>
  <path class="cls-1" d="M6.9,3.32c2.67-2.39,6.39-2.75,9.49-.89,3.65,2.19,7.29,4.4,10.94,6.6,4.62,2.8,9.23,5.58,13.86,8.4,1.04.63,2.07.78,3.23.49,3.51-.9,7.04-1.75,10.55-2.62l1.33-.33c2.06-.51,3.62-.66,5.07-.51,2.51.27,4.71.96,6.56,2.08,2.66,1.61,4.68,4.17,5.97,7.6,2.33,6.2,4.62,12.53,6.85,18.66l.97,2.67c.17.47.4.94.82,1.29.13.21.26.41.42.59.69.8,1.93,1.29,2.97,1.3.97.01,1.82-.34,2.58-.89.27-.18.55-.34.84-.48.21-.07.43-.12.64-.18,1.14.43,2.33,1.02,3.63,1.8,1.03.62,2.04,1.32,2.98,1.97,1.14.79,1.49,1.42.53,3.01l-16.16,26.71c-3.09,5.11-6.18,10.22-9.28,15.31-.7,1.16-1.57,1.39-2.75.69-.88-.53-1.78-1.06-2.66-1.59-.83-.5-1.64-1.01-2.47-1.51-.46-.28-.87-.6-1.24-.94.68-3.16-.31-6.62-3.9-8.79-2.46-1.49-4.88-1.61-6.96-.89-5.75-1.63-11.26-3.88-16.45-6.76-2.25-1.25-4.59-2.59-7.13-4.13-2.22-1.35-4.57-2.82-7.37-4.6-1.95-1.25-3.19-3.33-3.42-5.74-.24-2.5.64-4.87,2.41-6.54,1.12-1.04,1.2-2.2.26-3.41-2.41-3.16-2.03-7.76.86-10.47,1.12-1.04,1.2-2.2.26-3.43-1.72-2.25-2-5.35-.93-7.9,2.87-.97,4.4-5.48,1.03-7.62-4.58-2.92-9.17-6.13-14.03-8.57-.63-.32-1.25-.46-1.85-.48-.56-.98-.91-2.08-1.01-3.26-.22-2.54.75-4.96,2.6-6.64Z"/>
  <path class="cls-3" d="M6.9,3.32c2.67-2.39,6.39-2.75,9.49-.89,3.65,2.19,7.29,4.4,10.94,6.6,4.62,2.8,9.23,5.58,13.86,8.4,1.04.63,2.07.78,3.23.49,3.51-.9,7.04-1.75,10.55-2.62l1.33-.33c2.06-.51,3.62-.66,5.07-.51,2.51.27,4.71.96,6.56,2.08,2.66,1.61,4.68,4.17,5.97,7.6,2.33,6.2,4.62,12.53,6.85,18.66l.97,2.67c.17.47.4.94.82,1.29.13.21.26.41.42.59.69.8,1.93,1.29,2.97,1.3.97.01,1.82-.34,2.58-.89.27-.18.55-.34.84-.48.21-.07.43-.12.64-.18,1.14.43,2.33,1.02,3.63,1.8,1.03.62,2.04,1.32,2.98,1.97,1.14.79,1.49,1.42.53,3.01l-16.16,26.71c-3.09,5.11-6.18,10.22-9.28,15.31-.7,1.16-1.57,1.39-2.75.69-.88-.53-1.78-1.06-2.66-1.59-.83-.5-1.64-1.01-2.47-1.51-.46-.28-.87-.6-1.24-.94.68-3.16-.31-6.62-3.9-8.79-2.46-1.49-4.88-1.61-6.96-.89-5.75-1.63-11.26-3.88-16.45-6.76-2.25-1.25-4.59-2.59-7.13-4.13-2.22-1.35-4.57-2.82-7.37-4.6-1.95-1.25-3.19-3.33-3.42-5.74-.24-2.5.64-4.87,2.41-6.54,1.12-1.04,1.2-2.2.26-3.41-2.41-3.16-2.03-7.76.86-10.47,1.12-1.04,1.2-2.2.26-3.43-1.72-2.25-2-5.35-.93-7.9,2.87-.97,4.4-5.48,1.03-7.62-4.58-2.92-9.17-6.13-14.03-8.57-.63-.32-1.25-.46-1.85-.48-.56-.98-.91-2.08-1.01-3.26-.22-2.54.75-4.96,2.6-6.64Z"/>
  <path class="cls-2" d="M20.02,68.19c-2.01-1.28-3.29-3.44-3.53-5.92-.24-2.57.66-5.02,2.48-6.74,1.15-1.08,1.24-2.27.27-3.53-2.49-3.25-2.1-7.99.89-10.79,1.15-1.08,1.24-2.26.26-3.53-2.33-3.04-2.12-7.63.49-10.43.58-.62,1.13-1.21,1-2.11-.12-.9-.8-1.31-1.59-1.79,0,0-6.71-4.04-7.98-4.8-1.86-1.12-3.71-2.26-5.54-3.42-2.13-1.35-3.48-3.59-3.69-6.15-.22-2.61.75-5.11,2.68-6.84C8.51-.33,12.35-.69,15.54,1.22c3.76,2.26,7.52,4.53,11.28,6.8,4.76,2.88,9.52,5.77,14.28,8.67,1.08.65,2.14.81,3.34.5,3.62-.93,7.25-1.82,10.88-2.7l1.37-.34c2.12-.52,3.73-.68,5.22-.53,2.59.27,4.87.99,6.77,2.14,2.75,1.66,4.82,4.3,6.15,7.84,2.4,6.39,4.77,12.92,7.06,19.23l1.01,2.77c.21.57.48,1.14,1.09,1.51.9.54,1.85.19,2.17.08,1.66-.61,3.34-.61,4.98-.02,1.26.46,2.57,1.1,4.02,1.98,1.06.64,2.11,1.36,3.08,2.03,1.18.81,1.53,1.46.54,3.1l-16.66,27.54c-3.18,5.26-6.37,10.53-9.56,15.79-.73,1.2-1.63,1.42-2.84.7-.92-.55-1.83-1.09-2.75-1.65-.85-.51-1.7-1.03-2.54-1.56-2.42-1.5-3.74-3.69-3.93-6.5-.05-.77-.25-1.87-1.35-2.53-.34-.21-.75-.36-1.27-.46-8.09-1.65-15.79-4.48-22.89-8.4-2.33-1.29-4.73-2.68-7.35-4.27-2.3-1.39-4.72-2.9-7.61-4.75ZM92.55,52.02c-4.2-2.48-6.25-1.97-8.74,2.15l-18.46,30.5c-.4.65-.8,1.36-1.02,2.23-.48,1.85.16,3.63,1.71,4.76.68.49,1.2.87,1.62,1.13h0c2.6,1.57,3.72-.27,5.01-2.4l12.67-20.94c2.72-4.5,5.43-9,8.18-13.47.35-.57.72-1.33.51-2.21-.21-.88-.91-1.38-1.41-1.69l-.07-.04ZM57.76,17.75c-1.51.36-6.82,1.62-6.82,1.62-.65.16-1.12.74-1.13,1.41v.3c-.02.53.25,1.02.7,1.3l9.03,5.46c.69.42,1.14.93,1.26,1.44.1.4,0,.84-.28,1.3-.77,1.26-1.97.9-2.83.37L16.37,5.96l-1.47-.9c-.35-.21-.69-.42-1.04-.61-2.37-1.34-5.06-.74-6.41,1.41-1.3,2.09-.7,4.74,1.42,6.31.22.16.45.31.68.45l32.4,19.6c.52.31,1.66,1.18,1.06,2.45-.24.52-.62.88-1.09,1.02-.51.16-1.12.05-1.7-.29-1.23-.74-2.46-1.48-3.69-2.22,0,0-5.77-3.49-6.76-4.08-2.52-1.51-5.16-.95-6.57,1.39-1.34,2.21-.74,4.72,1.45,6.09,1.19.75,2.4,1.48,3.6,2.21l4.46,2.7,1.65.98c.43.26.99.62,1.49,1.04.83.71.94,1.64.31,2.55-.52.76-1.51.96-2.33.49-.55-.32-1.1-.64-1.65-.98l-2.04-1.24c-.58-.35-1.15-.69-1.74-1.03-1.2-.69-2.51-.89-3.69-.57-1.14.31-2.12,1.11-2.75,2.23-1.19,2.12-.64,4.51,1.35,5.81.77.51,1.56.99,2.35,1.47l1.27.76c.45.27.89.54,1.33.82.72.45,1.24.81,1.46,1.32.33.75.17,1.57-.39,2.13-.54.54-1.36.65-2.12.3-2.7-1.24-5.01-.65-6.34,1.6-1.26,2.14-.73,4.57,1.3,5.92.75.5,1.52.97,2.29,1.44l2.05,1.23,5.04,3.06c1.36.83,3.17,1.9,5.03,2.94,7.25,4.04,15.26,6.92,23.8,8.55,1.3.25,2.31-.22,3.01-1.38,5.64-9.35,11.29-18.69,16.96-28.03.54-.89.63-1.8.27-2.78-1.13-3.07-2.26-6.14-3.38-9.21-1.97-5.38-3.93-10.75-5.94-16.11-.97-2.59-2.61-4.63-4.72-5.92-2.51-1.52-5.55-1.91-8.78-1.14Z"/>
</svg>