<?xml version="1.0" encoding="UTF-8"?>
<svg id="Layer_1" xmlns="http://www.w3.org/2000/svg" version="1.1" viewBox="0 0 99.3 103.8">
  <!-- Generator: Adobe Illustrator 29.6.1, SVG Export Plug-In . SVG Version: 2.1.1 Build 9)  -->
  <defs>
    <style>
      .st0 {
        fill: #ed4f78;
      }

      .st1 {
        fill: #fff;
      }

      .st2 {
        fill: #117f40;
      }
    </style>
  </defs>
  <path class="st1" d="M0,14c.2,2.6,1.6,4.8,3.7,6.2,1.8,1.2,3.7,2.3,5.5,3.4,1.3.8,8,4.8,8,4.8.8.5,1.5.9,1.6,1.8.1.9-.4,1.5-1,2.1-2.6,2.8-2.8,7.4-.5,10.4,1,1.3.9,2.5-.3,3.5-3,2.8-3.4,7.5-.9,10.8,1,1.2.9,2.4-.3,3.5-1.8,1.7-2.7,4.2-2.5,6.8.2,2.5,1.5,4.6,3.5,5.9,2.9,1.8,5.3,3.3,7.6,4.7,2.6,1.6,5,3,7.4,4.3,7.1,3.9,14.8,6.8,22.9,8.4.5.1.9.2,1.3.5,1.1.7,1.3,1.8,1.3,2.5.2,2.8,1.5,5,3.9,6.5.9.5,1.7,1,2.5,1.6.9.6,1.8,1.1,2.7,1.6,1.2.7,2.1.5,2.8-.7,3.2-5.2,6.4-10.5,9.6-15.8l16.7-27.5c1-1.6.6-2.3-.6-3.1-1-.7-2-1.4-3.1-2-1.4-.9-2.8-1.5-4-2-1.6-.6-3.3-.6-5,0-.3.1-1.3.5-2.2,0-.6-.4-.9-.9-1.1-1.5l-1-2.8c-2.3-6.3-4.7-12.8-7.1-19.2-1.3-3.5-3.4-6.2-6.2-7.8-1.9-1.1-4.2-1.9-6.8-2.1-1.5-.2-3.1,0-5.2.5l-1.4.3c-3.6.9-7.2,1.8-10.9,2.7-1.2.3-2.3.1-3.3-.5-4.8-2.9-9.5-5.8-14.3-8.7-3.8-2.3-7.5-4.5-11.3-6.8-3.2-1.9-7-1.6-9.8.9C.8,8.9-.2,11.4,0,14Z"/>
  <path class="st0" d="M6.9,3.3c2.7-2.4,6.4-2.8,9.5-.9,3.6,2.2,7.3,4.4,10.9,6.6,4.6,2.8,9.2,5.6,13.9,8.4,1,.6,2.1.8,3.2.5,3.5-.9,7-1.8,10.5-2.6l1.3-.3c2.1-.5,3.6-.7,5.1-.5,2.5.3,4.7,1,6.6,2.1,2.7,1.6,4.7,4.2,6,7.6,2.3,6.2,4.6,12.5,6.8,18.7l1,2.7c.2.5.4.9.8,1.3.1.2.3.4.4.6.7.8,1.9,1.3,3,1.3,1,0,1.8-.3,2.6-.9.3-.2.6-.3.8-.5.2,0,.4-.1.6-.2,1.1.4,2.3,1,3.6,1.8,1,.6,2,1.3,3,2,1.1.8,1.5,1.4.5,3l-16.2,26.7c-3.1,5.1-6.2,10.2-9.3,15.3-.7,1.2-1.6,1.4-2.8.7-.9-.5-1.8-1.1-2.7-1.6-.8-.5-1.6-1-2.5-1.5-.5-.3-.9-.6-1.2-.9.7-3.2-.3-6.6-3.9-8.8-2.5-1.5-4.9-1.6-7-.9-5.8-1.6-11.3-3.9-16.5-6.8-2.2-1.2-4.6-2.6-7.1-4.1-2.2-1.3-4.6-2.8-7.4-4.6-2-1.2-3.2-3.3-3.4-5.7-.2-2.5.6-4.9,2.4-6.5,1.1-1,1.2-2.2.3-3.4-2.4-3.2-2-7.8.9-10.5,1.1-1,1.2-2.2.3-3.4-1.7-2.2-2-5.3-.9-7.9,2.9-1,4.4-5.5,1-7.6-4.6-2.9-9.2-6.1-14-8.6-.6-.3-1.2-.5-1.8-.5-.6-1-.9-2.1-1-3.3-.2-2.5.8-5,2.6-6.6h0Z"/>
  <path class="st2" d="M6.9,3.3c2.7-2.4,6.4-2.8,9.5-.9,3.6,2.2,7.3,4.4,10.9,6.6,4.6,2.8,9.2,5.6,13.9,8.4,1,.6,2.1.8,3.2.5,3.5-.9,7-1.8,10.5-2.6l1.3-.3c2.1-.5,3.6-.7,5.1-.5,2.5.3,4.7,1,6.6,2.1,2.7,1.6,4.7,4.2,6,7.6,2.3,6.2,4.6,12.5,6.8,18.7l1,2.7c.2.5.4.9.8,1.3.1.2.3.4.4.6.7.8,1.9,1.3,3,1.3,1,0,1.8-.3,2.6-.9.3-.2.6-.3.8-.5.2,0,.4-.1.6-.2,1.1.4,2.3,1,3.6,1.8,1,.6,2,1.3,3,2,1.1.8,1.5,1.4.5,3l-16.2,26.7c-3.1,5.1-6.2,10.2-9.3,15.3-.7,1.2-1.6,1.4-2.8.7-.9-.5-1.8-1.1-2.7-1.6-.8-.5-1.6-1-2.5-1.5-.5-.3-.9-.6-1.2-.9.7-3.2-.3-6.6-3.9-8.8-2.5-1.5-4.9-1.6-7-.9-5.8-1.6-11.3-3.9-16.5-6.8-2.2-1.2-4.6-2.6-7.1-4.1-2.2-1.3-4.6-2.8-7.4-4.6-2-1.2-3.2-3.3-3.4-5.7-.2-2.5.6-4.9,2.4-6.5,1.1-1,1.2-2.2.3-3.4-2.4-3.2-2-7.8.9-10.5,1.1-1,1.2-2.2.3-3.4-1.7-2.2-2-5.3-.9-7.9,2.9-1,4.4-5.5,1-7.6-4.6-2.9-9.2-6.1-14-8.6-.6-.3-1.2-.5-1.8-.5-.6-1-.9-2.1-1-3.3-.2-2.5.8-5,2.6-6.6h0Z"/>
  <path class="st1" d="M20,68.2c-2-1.3-3.3-3.4-3.5-5.9-.2-2.6.7-5,2.5-6.7,1.1-1.1,1.2-2.3.3-3.5-2.5-3.2-2.1-8,.9-10.8,1.1-1.1,1.2-2.3.3-3.5-2.3-3-2.1-7.6.5-10.4.6-.6,1.1-1.2,1-2.1-.1-.9-.8-1.3-1.6-1.8,0,0-6.7-4-8-4.8-1.9-1.1-3.7-2.3-5.5-3.4-2.1-1.4-3.5-3.6-3.7-6.1-.2-2.6.8-5.1,2.7-6.8C8.5-.3,12.4-.7,15.5,1.2c3.8,2.3,7.5,4.5,11.3,6.8,4.8,2.9,9.5,5.8,14.3,8.7,1.1.6,2.1.8,3.3.5,3.6-.9,7.2-1.8,10.9-2.7l1.4-.3c2.1-.5,3.7-.7,5.2-.5,2.6.3,4.9,1,6.8,2.1,2.8,1.7,4.8,4.3,6.2,7.8,2.4,6.4,4.8,12.9,7.1,19.2l1,2.8c.2.6.5,1.1,1.1,1.5.9.5,1.8.2,2.2,0,1.7-.6,3.3-.6,5,0,1.3.5,2.6,1.1,4,2,1.1.6,2.1,1.4,3.1,2,1.2.8,1.5,1.5.5,3.1l-16.7,27.5c-3.2,5.3-6.4,10.5-9.6,15.8-.7,1.2-1.6,1.4-2.8.7-.9-.6-1.8-1.1-2.8-1.7-.8-.5-1.7-1-2.5-1.6-2.4-1.5-3.7-3.7-3.9-6.5,0-.8-.2-1.9-1.3-2.5-.3-.2-.8-.4-1.3-.5-8.1-1.7-15.8-4.5-22.9-8.4-2.3-1.3-4.7-2.7-7.4-4.3-2.3-1.4-4.7-2.9-7.6-4.8h0ZM92.6,52c-4.2-2.5-6.2-2-8.7,2.2l-18.5,30.5c-.4.7-.8,1.4-1,2.2-.5,1.8.2,3.6,1.7,4.8.7.5,1.2.9,1.6,1.1h0c2.6,1.6,3.7-.3,5-2.4l12.7-20.9c2.7-4.5,5.4-9,8.2-13.5.3-.6.7-1.3.5-2.2-.2-.9-.9-1.4-1.4-1.7h0s0,0,0,0ZM57.8,17.8c-1.5.4-6.8,1.6-6.8,1.6-.7.2-1.1.7-1.1,1.4v.3c0,.5.2,1,.7,1.3l9,5.5c.7.4,1.1.9,1.3,1.4,0,.4,0,.8-.3,1.3-.8,1.3-2,.9-2.8.4L16.4,6l-1.5-.9c-.4-.2-.7-.4-1-.6-2.4-1.3-5.1-.7-6.4,1.4-1.3,2.1-.7,4.7,1.4,6.3.2.2.4.3.7.4l32.4,19.6c.5.3,1.7,1.2,1.1,2.5-.2.5-.6.9-1.1,1-.5.2-1.1,0-1.7-.3-1.2-.7-2.5-1.5-3.7-2.2,0,0-5.8-3.5-6.8-4.1-2.5-1.5-5.2-1-6.6,1.4-1.3,2.2-.7,4.7,1.5,6.1,1.2.8,2.4,1.5,3.6,2.2l4.5,2.7,1.7,1c.4.3,1,.6,1.5,1,.8.7.9,1.6.3,2.5-.5.8-1.5,1-2.3.5-.5-.3-1.1-.6-1.7-1l-2-1.2c-.6-.3-1.1-.7-1.7-1-1.2-.7-2.5-.9-3.7-.6-1.1.3-2.1,1.1-2.8,2.2-1.2,2.1-.6,4.5,1.4,5.8.8.5,1.6,1,2.4,1.5l1.3.8c.5.3.9.5,1.3.8.7.5,1.2.8,1.5,1.3.3.8.2,1.6-.4,2.1-.5.5-1.4.7-2.1.3-2.7-1.2-5-.7-6.3,1.6-1.3,2.1-.7,4.6,1.3,5.9.8.5,1.5,1,2.3,1.4l2,1.2,5,3.1c1.4.8,3.2,1.9,5,2.9,7.2,4,15.3,6.9,23.8,8.6,1.3.2,2.3-.2,3-1.4,5.6-9.3,11.3-18.7,17-28,.5-.9.6-1.8.3-2.8-1.1-3.1-2.3-6.1-3.4-9.2-2-5.4-3.9-10.8-5.9-16.1-1-2.6-2.6-4.6-4.7-5.9-2.5-1.5-5.5-1.9-8.8-1.1h0Z"/>
</svg>