<?xml version="1.0" encoding="UTF-8"?><svg id="Layer_1" xmlns="http://www.w3.org/2000/svg" viewBox="0 0 780.7 344.36"><defs><style>.cls-1{fill:#f7eddf;}.cls-1,.cls-2,.cls-3{stroke-width:0px;}.cls-2{fill:#86bbde;}.cls-3{fill:#ee7b00;}</style></defs><rect class="cls-1" x="0" y="187.17" width="780.69" height="157.19" rx="41.25" ry="41.25"/><path class="cls-3" d="M207.19,282.72c.59.73,1.76,2.42,1.76,4.48,0,3.67-4.11,8.07-9.1,8.07-1.76,0-3.52-.81-4.7-2.35l-17.83-22.38-4.18,3.82v13.8c0,1.98-.15,7.12-8.07,7.12-5.36,0-8.29-1.91-8.29-7.12v-49.61c0-1.98.15-7.12,8.07-7.12,5.36,0,8.29,1.91,8.29,7.12v14.38l20.62-19.01c1.76-1.62,2.94-2.5,5.06-2.5,4.11,0,8.51,4.7,8.51,8,0,2.2-.88,4.26-2.5,5.72l-15.93,14.68,18.28,22.9Z"/><path class="cls-3" d="M232.88,237.59c0,4.55-3.67,8.37-8.37,8.37s-8.29-3.74-8.29-8.37,3.82-8.37,8.29-8.37,8.37,3.67,8.37,8.37ZM232.44,288.45c0,2.5-.51,6.83-7.63,6.83-4.7,0-8.15-1.17-8.15-6.83v-34.2c0-2.5.51-6.83,7.56-6.83,4.77,0,8.22,1.17,8.22,6.83v34.2Z"/><path class="cls-3" d="M269.87,238.25c0-2.5.51-6.83,7.56-6.83,4.7,0,8.22,1.25,8.22,6.83v50.2c0,4.77-2.42,6.83-8,6.83-5.21,0-7.05-1.61-7.71-4.77-1.76,2.06-4.55,4.77-9.76,4.77-11.82,0-18.94-11.38-18.94-24.37,0-11.16,5.73-23.49,18.5-23.49,2.86,0,7.12.73,10.13,4.18v-13.36ZM257.54,271.35c0,2.71.29,10.27,6.09,10.27s6.24-7.56,6.24-10.27c0-2.5-.29-10.28-6.17-10.28s-6.17,7.93-6.17,10.28Z"/><path class="cls-3" d="M335.56,259.46c0,2.64-2.13,5.36-7.27,5.36-3.16,0-5.43-.81-6.53-3.01-.95-1.98-1.98-2.94-6.39-2.94-3.01,0-5.21,1.03-5.21,2.42,0,1.62,5.8,2.94,10.86,4.11,6.53,1.47,15.93,3.82,15.93,14.09,0,12.18-10.94,15.78-21.28,15.78-14.97,0-21.43-7.41-21.43-12.7,0-3.67,2.5-6.17,7.12-6.17,3.89,0,5.06,1.03,7.12,4.77.88,1.54,3.08,2.28,7.05,2.28,5.43,0,6.75-1.1,6.75-2.57,0-1.62-.95-1.83-10.57-4.04-8.81-2.05-16-4.99-16-14.31,0-3.38,1.32-15.12,20.48-15.12,16.22,0,19.38,9.1,19.38,12.04Z"/><path class="cls-3" d="M403.68,238.54c0-1.98.15-7.12,8.07-7.12,5.36,0,8.29,1.91,8.29,7.12v32.37c0,7.63-1.83,14.83-8,19.38-5.14,3.74-11.23,4.99-17.03,4.99-9.47,0-16.66-3.6-20.48-8.44-3.08-3.89-4.4-9.76-4.4-15.85v-32.44c0-1.98.15-7.12,8.07-7.12,5.36,0,8.29,1.91,8.29,7.12v31.93c0,2.64,0,10.13,8.59,10.13s8.59-7.63,8.59-10.13v-31.93Z"/><path class="cls-3" d="M449.04,288.15c0,1.98-.15,7.12-8.07,7.12-5.36,0-8.29-1.91-8.29-7.12v-43.96c0-8.51,4.11-11.16,11.16-11.16h12.7c6.17,0,10.57.66,13.65,2.57,5.14,3.16,9.47,8.88,9.47,17.39s-4.11,14.68-8.88,17.76c-3.6,2.35-8.73,3.01-14.24,3.01h-7.49v14.38ZM449.04,259.31h6.83c5.28,0,6.97-2.28,6.97-5.95s-2.05-5.8-6.97-5.8h-5.28c-1.03,0-1.54.51-1.54,1.47v10.28Z"/><path class="cls-3" d="M498.65,294.61c-1.76,3.67-3.16,5.87-6.53,5.87s-6.97-2.86-6.97-6.46c0-1.91.37-2.79,4.04-10.13.73-1.54,3.38-8.51,4.04-9.83.51-.95,1.54-3.01,4.84-3.01,1.83,0,6.83,1.03,6.83,5.87,0,3.01-3.6,12.33-6.24,17.69ZM524.12,248.01v-12.11c0-1.76,0-5.65,6.02-5.65s7.19,1.69,7.19,5.65v8.15l7.78-2.27c.22-.07,1.17-.22,2.13-.22,2.57,0,4.55,1.32,5.58,2.94.44.73.88,1.69.88,8.15,0,.44,0,11.74-.95,18.05-.51,3.67-1.32,6.24-4.33,7.56,6.39.07,6.97,3.38,6.97,6.39,0,3.52-.66,9.61-3.08,12.26-.88,1.03-2.5,2.13-5.06,2.64-1.54.37-2.2.44-10.64.44h-6.83c-15.56,0-15.85-.07-17.83-.88-5.14-2.06-5.14-7.85-5.14-9.91v-22.02c-1.39.15-3.16-.29-4.26-2.06-.66.66-2.06,2.2-4.4,2.2-1.98,0-2.72-.51-8.51-4.7-2.64-1.91-4.4-3.16-4.4-5.87s2.57-7.05,6.61-7.05c1.76,0,3.08.44,7.19,3.3.95.66,2.13,1.54,3.08,2.35.95-1.1,1.83-1.32,3.74-1.91l.95-.29v-10.64c0-1.83,0-5.65,6.09-5.65,5.58,0,7.05,1.76,7.05,5.65v6.75l4.18-1.25ZM489.7,243.16c-2.64-2.13-3.6-2.86-3.6-5.14,0-2.72,2.5-7.12,6.83-7.12,1.17,0,2.42,0,7.63,3.82,2.94,2.13,4.92,3.74,4.92,6.38,0,3.82-3.74,7.34-6.83,7.34-2.28,0-3.38-.81-8.95-5.28ZM519.94,263.2v20.84c0,1.98,0,2.35,2.5,2.42,2.42.07,14.75-.07,17.54-.07,1.69,0,2.64,0,2.79-2.86.15-1.98.22-3.96,2.86-4.84-6.09,0-6.9,0-8.29-1.98v3.38c0,4.04-1.61,5.87-7.12,5.87-6.09,0-6.09-4.26-6.09-5.87v-18.2l-4.18,1.32ZM537.33,257.7v9.03c.44-.37,1.1-.73,1.39-.73,1.03-.15,1.1-.22,1.39-.59.44-.51.73-5.8.73-6.75s-.07-1.69-.88-1.69c-.37,0-.81.15-1.47.37l-1.17.37Z"/><path class="cls-3" d="M572.71,265.84c-4.18-.37-6.02-2.2-6.02-6.9v-2.28c-.37.15-.88.29-1.61.29-3.67,0-7.19-4.26-7.19-7.93,0-2.79.66-3.3,6.17-7.93,2.79-2.35,3.6-3.38,7.34-8.22.95-1.25,2.2-2.79,5.43-2.79s7.78,1.83,7.78,5.87c0,1.69-.88,3.23-2.2,5.14,1.25-1.25,2.72-1.47,4.04-1.54l4.11-.22c-.51-1.76-.81-2.86-.81-4.11,0-4.18,4.55-5.21,7.71-5.21,5.21,0,6.02,2.35,6.75,4.77.22.59.81,3.23.95,3.74l4.62-.29c-1.47-1.83-2.05-2.72-2.05-3.96,0-2.72,3.96-4.55,7.19-4.55s4.48,1.54,5.5,2.86c2.13,2.79,2.57,3.52,2.27,4.92,5.65.07,5.65,5.36,5.65,6.17,0,1.54-.29,3.23-1.54,4.48-1.03.95-1.47,1.32-4.04,1.47l-11.38.73c3.16,3.52,3.3,3.67,4.11,3.67.37,0,.88,0,2.42-1.62,1.76-1.76,2.35-2.35,4.4-2.35,3.38,0,6.68,2.72,6.68,5.87,0,3.89-3.45,7.85-6.61,9.91,1.32,0,6.24.15,6.24,5.72s-3.74,6.31-6.68,6.31c1.54,1.03,3.38,2.57,3.38,4.84,0,1.54-.73,2.64-2.86,4.55,2.94.95,5.28,1.76,5.28,5.14,0,1.76-1.1,8.29-6.31,8.29-2.5,0-10.86-2.64-18.06-9.03.07.44.22.88.22,1.54,0,4.33-2.72,4.77-6.24,5.28-6.68,1.03-26.2,2.28-26.86,2.28-4.77,0-4.92-4.7-4.92-5.72,0-2.13.59-3.45,2.13-4.4-1.03.22-2.35.59-3.74.59-5.06,0-5.36-6.17-5.36-7.05,0-4.33,3.16-4.77,6.46-5.28,2.28-.29,3.82-.66,5.21-1.03h-5.36c-2.5,0-6.53-.44-6.53-5.94,0-4.62,2.64-6.09,6.53-6.09h7.78ZM579.39,286.39c-4.04,1.83-6.24,2.57-8.73,3.38,1.47-.07,3.74-.22,5.28-.29,1.17-.07,2.57-.15,3.45-.22v-2.86ZM608.9,265.84c-4.77-1.98-9.17-6.39-13.65-14.61l-8.15.44c-2.13.15-3.23-.15-4.11-.88-1.76-1.54-1.98-4.33-1.98-5.36,0-.59.07-2.35.73-3.52-.51.59-.88,1.1-1.32,1.69v15.34c0,2.35-.44,6.31-5.43,6.9h11.3c0-2.64.07-6.9,7.19-6.9,4.77,0,7.49,1.25,7.49,6.9h7.93ZM592.24,288.3c2.5-.22,6.53-.51,7.56-.44-1.25-1.54-2.86-3.6-5.28-8.81-1.03.95-1.32,1.25-2.27,1.98v7.27ZM607.5,277.88c.51.81,1.25,1.83,2.79,3.23.51-.44,3.01-2.72,3.6-3.23h-6.39Z"/><rect class="cls-2" x="0" width="780.69" height="157.19" rx="41.25" ry="41.25"/><path class="cls-1" d="M206.12,53.05c0-1.98.15-7.12,8.07-7.12,5.36,0,8.29,1.91,8.29,7.12v49.62c0,4.48-3.01,7.12-10.72,7.12-3.89,0-9.39-.37-11.23-5.65l-12.33-35.6h-.15l.88,5.95v28.18c0,1.98-.15,7.12-8.07,7.12-5.36,0-8.29-1.91-8.29-7.12v-49.54c0-4.55,3.01-7.19,10.72-7.19,3.96,0,9.32.29,11.16,5.65l12.4,35.6h.15l-.88-5.95v-28.18Z"/><path class="cls-1" d="M271,70.29c4.26,0,6.68,2.13,6.68,6.9,0,3.16-.81,6.97-6.68,6.97h-19.52v8c0,1.03.51,1.54,1.47,1.54h22.09c1.98,0,6.83.22,6.83,7.19,0,5.28-2.64,7.27-6.83,7.27h-28.77c-7.93,0-11.16-3.38-11.16-11.16v-38.31c0-8.88,4.48-11.16,11.16-11.16h27.08c3.16,0,6.75,1.17,6.75,7.27,0,5.36-2.79,7.27-6.75,7.27h-20.4c-1.03,0-1.47.59-1.47,1.47v6.75h19.52Z"/><path class="cls-1" d="M335.37,86.07c.22,1.32.51,1.39.73,1.39.37,0,.59-.37.73-1.39l4.77-34.79c.59-4.48,4.7-5.36,7.12-5.36,4.04,0,7.85,2.57,7.85,6.61,0,.81-.15,1.91-.29,2.72l-8.15,46.24c-1.17,6.68-5.87,8.29-10.13,8.29-5.14,0-9.83-2.42-10.5-7.19l-5.72-39.85c-.07-.44-.22-.73-.59-.73s-.51.37-.59.73l-5.73,39.85c-.73,4.92-5.65,7.19-10.57,7.19-5.8,0-9.17-3.38-10.05-8.29l-8.15-46.24c-.15-.81-.29-1.83-.29-2.57,0-4.11,3.45-6.75,8.29-6.75,3.45,0,6.24,2.13,6.68,5.36l4.77,34.79c.15,1.03.37,1.39.73,1.39.51,0,.66-.88.73-1.39l4.7-33.39c.66-4.92,5.43-6.75,9.39-6.75,5.14,0,8.95,2.5,9.54,6.75l4.7,33.39Z"/><path class="cls-1" d="M445.1,77.85c0,24.22-15.93,31.93-29.43,31.93-16.37,0-29.5-10.57-29.5-31.34,0-26.06,17.1-32.51,29.5-32.51,14.97,0,29.43,9.1,29.43,31.93ZM402.97,77.85c0,3.08,0,17.25,12.7,17.25s12.62-14.17,12.62-17.25,0-17.17-12.62-17.17-12.7,14.17-12.7,17.17Z"/><path class="cls-1" d="M471.6,102.66c0,1.98-.15,7.12-8.07,7.12-5.36,0-8.29-1.91-8.29-7.12v-43.96c0-8.51,4.11-11.16,11.16-11.16h12.7c6.17,0,10.57.66,13.65,2.57,5.14,3.16,9.47,8.88,9.47,17.39s-4.11,14.68-8.88,17.76c-3.6,2.35-8.73,3.01-14.24,3.01h-7.49v14.39ZM471.6,73.82h6.83c5.28,0,6.97-2.28,6.97-5.95s-2.05-5.8-6.97-5.8h-5.28c-1.03,0-1.54.51-1.54,1.47v10.28Z"/><path class="cls-1" d="M548.23,70.29c4.26,0,6.68,2.13,6.68,6.9,0,3.16-.81,6.97-6.68,6.97h-19.52v8c0,1.03.51,1.54,1.47,1.54h22.09c1.98,0,6.83.22,6.83,7.19,0,5.28-2.64,7.27-6.83,7.27h-28.77c-7.93,0-11.16-3.38-11.16-11.16v-38.31c0-8.88,4.48-11.16,11.16-11.16h27.08c3.16,0,6.75,1.17,6.75,7.27,0,5.36-2.79,7.27-6.75,7.27h-20.4c-1.03,0-1.47.59-1.47,1.47v6.75h19.52Z"/><path class="cls-1" d="M601.59,53.05c0-1.98.15-7.12,8.07-7.12,5.36,0,8.29,1.91,8.29,7.12v49.62c0,4.48-3.01,7.12-10.72,7.12-3.89,0-9.39-.37-11.23-5.65l-12.33-35.6h-.15l.88,5.95v28.18c0,1.98-.15,7.12-8.07,7.12-5.36,0-8.29-1.91-8.29-7.12v-49.54c0-4.55,3.01-7.19,10.72-7.19,3.96,0,9.32.29,11.16,5.65l12.4,35.6h.15l-.88-5.95v-28.18Z"/></svg>