<?xml version="1.0" encoding="UTF-8"?><svg id="Layer_1" xmlns="http://www.w3.org/2000/svg" viewBox="0 0 164.57 41.96"><defs><style>.cls-1{fill:#f7eddf;stroke-width:0px;}</style></defs><path class="cls-1" d="M145.64,40.91c-.2.35-.5,1.05-1.55,1.05-.9,0-1.65-.75-1.65-1.55,0-.2.05-.5.15-.7L161.37,1.05C161.57.65,161.92,0,162.92,0s1.65.8,1.65,1.55c0,.25-.05.5-.15.7l-18.78,38.66Z"/><path class="cls-1" d="M.15,2.25C.05,2.05,0,1.8,0,1.55,0,.8.7,0,1.65,0c1,0,1.35.65,1.55,1.05l18.78,38.66c.1.2.15.5.15.7,0,.8-.75,1.55-1.65,1.55-1.05,0-1.35-.7-1.55-1.05L.15,2.25Z"/></svg>