<?xml version="1.0" encoding="utf-8"?>
<!-- Generator: Adobe Illustrator 28.0.0, SVG Export Plug-In . SVG Version: 6.00 Build 0)  -->
<svg version="1.1" id="Layer_1" xmlns="http://www.w3.org/2000/svg" xmlns:xlink="http://www.w3.org/1999/xlink" x="0px" y="0px"
	 viewBox="0 0 490 72" style="enable-background:new 0 0 490 72;" xml:space="preserve">
<style type="text/css">
	.st0{clip-path:url(#SVGID_00000130626506800698833900000009400976506399214504_);}
	.st1{fill:#FCE7D2;}
	.st2{clip-path:url(#SVGID_00000093139216690787445330000014206332522501515668_);}
	.st3{fill:#F9CEA3;}
	.st4{enable-background:new    ;}
	.st5{fill:#63594B;}
	.st6{clip-path:url(#SVGID_00000010284185090477964450000008411765818909355453_);}
	.st7{fill:#F6B674;}
</style>
<g>
	<defs>
		<rect id="SVGID_1_" x="-448" y="1" width="428" height="72"/>
	</defs>
	<clipPath id="SVGID_00000097473325824866451270000014800436874558665868_">
		<use xlink:href="#SVGID_1_"  style="overflow:visible;"/>
	</clipPath>
	<g style="clip-path:url(#SVGID_00000097473325824866451270000014800436874558665868_);">
		<path class="st1" d="M-93.6,0.9h-332.8c-11.7,0-21.1,9.5-21.1,21.1V126H23.5L-65.8,14.3C-72.5,5.9-82.8,0.9-93.6,0.9z"/>
	</g>
</g>
<g>
	<defs>
		<rect id="SVGID_00000009555028766326751360000006952639611485983422_" width="490" height="72"/>
	</defs>
	<clipPath id="SVGID_00000173854034047338975850000006272425109639498422_">
		<use xlink:href="#SVGID_00000009555028766326751360000006952639611485983422_"  style="overflow:visible;"/>
	</clipPath>
	<g style="clip-path:url(#SVGID_00000173854034047338975850000006272425109639498422_);">
		<path class="st3" d="M414.9-0.1H78c-10.8,0-21.1,4.9-27.9,13.4L-39.1,125H532L442.7,13.3C436,4.9,425.7-0.1,414.9-0.1z"/>
		<g class="st4">
			<path class="st5" d="M87.7,38.8h28.6v3.5H87.7V38.8z M88.1,25.8H116v7.8h-3.8v-4.4H91.7v4.4h-3.6V25.8z M90.3,22.5l3.3-1.5
				c0.6,0.6,1.1,1.3,1.7,2.1c0.6,0.8,1,1.5,1.2,2.1L93,26.9c-0.2-0.6-0.6-1.3-1.1-2.1C91.3,23.9,90.8,23.2,90.3,22.5z M93.4,31.6
				h14.8V35H93.4V31.6z M100,36.8h3.9v9.9c0,1-0.1,1.7-0.4,2.3s-0.8,1-1.6,1.2s-1.7,0.4-2.7,0.5c-1,0.1-2.2,0.1-3.6,0.1
				c-0.1-0.6-0.3-1.2-0.7-1.9s-0.6-1.3-0.9-1.8c0.7,0,1.4,0,2.1,0.1c0.7,0,1.3,0,1.9,0s0.9,0,1.1,0c0.3,0,0.5,0,0.6-0.1
				c0.1-0.1,0.2-0.2,0.2-0.4V36.8z M98.3,21.8l3.4-1.2c0.5,0.7,1,1.5,1.5,2.3c0.5,0.9,0.8,1.6,1,2.3l-3.6,1.4
				c-0.2-0.6-0.5-1.4-0.9-2.3C99.2,23.4,98.8,22.5,98.3,21.8z M107,31.6h0.9l0.8-0.2l2.4,1.9c-0.7,0.8-1.5,1.6-2.5,2.4
				c-0.9,0.8-1.9,1.5-2.9,2.2s-2.1,1.3-3.1,1.8c-0.2-0.3-0.6-0.7-1-1.2c-0.4-0.4-0.8-0.8-1-1.1c0.8-0.4,1.7-0.9,2.5-1.5
				c0.8-0.6,1.6-1.2,2.3-1.8c0.7-0.6,1.2-1.2,1.6-1.7V31.6z M110.3,20.9l4.2,1.2c-0.7,1.1-1.5,2.1-2.3,3.1s-1.5,1.9-2.1,2.6
				l-3.2-1.2c0.4-0.6,0.8-1.2,1.3-1.8s0.8-1.3,1.2-2C109.7,22.2,110,21.5,110.3,20.9z"/>
		</g>
		<g class="st4">
			<path class="st5" d="M119.3,47.2h29.3v2.9h-29.3V47.2z M119.5,27.8h28.9v3h-28.9V27.8z M121.5,22.5h25.1v3h-25.1V22.5z M121.7,43
				h24.6v2.7h-24.6V43z M122.7,32h22.6v9.6h-22.6V32z M125.7,25.7l3.7-0.7c0.3,0.4,0.6,0.9,0.8,1.5c0.2,0.5,0.4,1,0.5,1.5l-3.9,0.8
				c0-0.4-0.2-0.9-0.4-1.5S126,26.2,125.7,25.7z M126.4,34.3v1.4h15.2v-1.4H126.4z M126.4,37.9v1.5h15.2v-1.5H126.4z M131.9,20.7
				h4.1v4.2h-4.1V20.7z M132,33.4h3.8v14.9H132V33.4z M138.4,24.9l4.1,0.7c-0.3,0.6-0.7,1.2-0.9,1.7s-0.5,1-0.8,1.4l-3.6-0.7
				c0.2-0.5,0.4-1,0.7-1.6C138.1,25.9,138.3,25.4,138.4,24.9z"/>
		</g>
		<g class="st4">
			<path class="st5" d="M152.9,42.5c0.6,0,1.2,0.1,1.9,0.1c0.7,0,1.4,0.1,2.1,0.1h17.3v4.2H157c-0.6,0-1.3,0-2.1,0.1
				c-0.8,0-1.5,0.1-2,0.1V42.5z M153.3,25.2c0.6,0.1,1.3,0.1,2,0.1c0.7,0,1.4,0,1.9,0h16.1c0.5,0,1,0,1.6,0c0.6,0,1,0,1.3,0
				c0,0.4,0,0.8-0.1,1.4c0,0.6,0,1.1,0,1.6v16.6c0,0.6,0,1.2,0,2c0,0.7,0.1,1.4,0.1,1.8h-4.6c0-0.5,0-1,0-1.6c0-0.6,0-1.1,0-1.7
				V29.5h-14.4c-0.7,0-1.4,0-2.2,0c-0.8,0-1.4,0.1-1.8,0.1V25.2z"/>
		</g>
		<g class="st4">
			<path class="st5" d="M183.3,33.1c0.4,0,0.9,0,1.5,0.1c0.6,0,1.2,0.1,1.9,0.1c0.7,0,1.3,0,1.8,0c0.5,0,1.2,0,2,0
				c0.8,0,1.6,0,2.6,0c0.9,0,1.9,0,2.9,0c1,0,2,0,3,0c1,0,1.9,0,2.8,0c0.9,0,1.7,0,2.4,0s1.2,0,1.6,0c0.7,0,1.5,0,2.1-0.1
				c0.7-0.1,1.2-0.1,1.6-0.1v5c-0.4,0-0.9-0.1-1.6-0.1c-0.7,0-1.4-0.1-2.1-0.1c-0.4,0-1,0-1.7,0c-0.7,0-1.5,0-2.4,0
				c-0.9,0-1.8,0-2.8,0c-1,0-2,0-3,0c-1,0-2,0-2.9,0c-0.9,0-1.8,0-2.6,0c-0.8,0-1.4,0-2,0c-0.9,0-1.9,0-2.8,0c-1,0-1.7,0.1-2.3,0.1
				V33.1z"/>
		</g>
		<g class="st4">
			<path class="st5" d="M234.6,26.2c-0.1,0.2-0.3,0.5-0.6,0.9c-0.2,0.4-0.4,0.8-0.6,1.1c-0.4,1-1,2.1-1.6,3.4
				c-0.7,1.2-1.4,2.5-2.2,3.7s-1.7,2.4-2.6,3.5c-1.2,1.3-2.5,2.7-4,4c-1.4,1.3-3,2.5-4.5,3.6c-1.6,1.1-3.2,2-4.9,2.8l-3.3-3.5
				c1.7-0.7,3.4-1.5,5-2.5c1.6-1,3.1-2.1,4.5-3.3c1.4-1.2,2.6-2.3,3.6-3.4c0.7-0.8,1.4-1.7,2-2.6s1.2-1.8,1.7-2.7
				c0.5-0.9,0.9-1.7,1.1-2.5c-0.2,0-0.6,0-1.2,0c-0.6,0-1.2,0-1.9,0s-1.5,0-2.3,0c-0.8,0-1.6,0-2.3,0c-0.7,0-1.4,0-1.9,0
				s-0.9,0-1.2,0c-0.4,0-0.9,0-1.4,0s-1,0.1-1.4,0.1c-0.4,0-0.8,0.1-1,0.1v-4.5c0.3,0,0.7,0.1,1.2,0.1c0.5,0,0.9,0.1,1.4,0.1
				s0.9,0,1.2,0c0.3,0,0.7,0,1.3,0c0.6,0,1.3,0,2,0s1.6,0,2.4,0s1.6,0,2.4,0c0.8,0,1.4,0,2,0s1,0,1.2,0c0.7,0,1.3,0,1.9-0.1
				c0.6-0.1,1-0.2,1.4-0.3L234.6,26.2z M227.4,36.1c0.8,0.7,1.7,1.4,2.7,2.3c0.9,0.9,1.9,1.8,2.8,2.7c0.9,0.9,1.8,1.8,2.5,2.7
				c0.8,0.9,1.4,1.6,2,2.3l-3.6,3.2c-0.8-1.1-1.7-2.2-2.7-3.4c-1-1.2-2.1-2.3-3.2-3.5c-1.1-1.2-2.3-2.3-3.4-3.3L227.4,36.1z"/>
		</g>
		<path class="st5" d="M404.6,20.9c0.4,0.1,0.7,0.4,1,0.7c4.6,4.6,9.2,9.2,13.8,13.8c0.9,0.9,0.9,1.9,0,2.8
			c-4.6,4.6-9.2,9.2-13.9,13.9c-0.7,0.7-1.6,0.8-2.3,0.4c-0.3-0.2-0.5-0.4-0.7-0.6c-0.3-0.2-0.5-0.5-0.8-0.8
			c-0.6-0.7-0.6-1.6-0.1-2.3c0.1-0.1,0.2-0.3,0.4-0.4c3.8-3.8,7.5-7.5,11.3-11.3c0.2-0.2,0.2-0.5,0-0.7c-3.8-3.8-7.5-7.5-11.3-11.3
			c-0.5-0.5-0.7-1-0.7-1.6c0-0.4,0.2-0.7,0.5-1c0.4-0.4,0.7-0.8,1.1-1.1c0.2-0.2,0.5-0.3,0.8-0.5L404.6,20.9L404.6,20.9z"/>
	</g>
</g>
<g>
	<defs>
		<rect id="SVGID_00000153665858906513871600000005008849693604819130_" x="510" width="428.7" height="72"/>
	</defs>
	<clipPath id="SVGID_00000083052792891955249640000011362974517210306740_">
		<use xlink:href="#SVGID_00000153665858906513871600000005008849693604819130_"  style="overflow:visible;"/>
	</clipPath>
	<g style="clip-path:url(#SVGID_00000083052792891955249640000011362974517210306740_);">
		<path class="st7" d="M917.6,0H584.8c-10.8,0-21.1,4.9-27.9,13.4L467.6,125h471.1V21.1C938.8,9.5,929.3,0,917.6,0L917.6,0z"/>
	</g>
</g>
</svg>
