<?xml version="1.0" encoding="UTF-8"?><svg id="Layer_1" xmlns="http://www.w3.org/2000/svg" viewBox="0 0 61.43 61.43"><defs><style>.cls-1{fill:#d16388;stroke-width:0px;}</style></defs><path class="cls-1" d="M30.71,0h0C13.75,0,0,13.75,0,30.71h0c0,16.96,13.75,30.71,30.71,30.71h0c16.96,0,30.71-13.75,30.71-30.71h0C61.43,13.75,47.67,0,30.71,0ZM47.73,44.58c.87.87.87,2.28,0,3.15s-2.28.87-3.15,0l-13.86-13.86-13.86,13.86c-.87.87-2.28.87-3.15,0s-.87-2.28,0-3.15l13.86-13.86-13.86-13.86c-.87-.87-.87-2.28,0-3.15s2.28-.87,3.15,0l13.86,13.86,13.86-13.86c.87-.87,2.28-.87,3.15,0s.87,2.28,0,3.15l-13.86,13.86,13.86,13.86Z"/></svg>