<?xml version="1.0" encoding="UTF-8"?><svg id="Layer_1" xmlns="http://www.w3.org/2000/svg" viewBox="0 0 53.79 53.8"><defs><style>.cls-1{fill:#f7eddf;stroke-width:0px;}</style></defs><path class="cls-1" d="M19.57,52.85C9.54,49.71,3.21,43.04.6,32.86c-.31-1.22-.43-2.47-.6-3.72v-4.41c.21-1.72.43-3.43.95-5.09C4.08,9.62,10.7,3.12,20.91.72c14.66-3.45,28.95,5.86,32.2,20.28,3.31,14.7-5.93,28.93-20.33,32.21-1.23.28-2.48.43-3.72.59h-4.41c-1.72-.21-3.43-.43-5.09-.95ZM4.55,26.95c0,12.32,10.02,22.31,22.34,22.3,12.31,0,22.3-10.03,22.29-22.36-.01-12.29-10.02-22.28-22.32-22.28-12.32,0-22.32,10-22.32,22.33Z"/><path class="cls-1" d="M31.35,40.41c.92-.02,1.61-.44,2.02-1.26.41-.82.33-1.63-.2-2.38-.16-.23-.37-.42-.56-.62-2.92-2.92-5.83-5.84-8.76-8.74-.38-.38-.37-.58,0-.95,2.98-2.95,5.94-5.93,8.91-8.89.5-.5.85-1.06.85-1.79,0-.97-.45-1.68-1.31-2.09-.85-.4-1.67-.28-2.41.29-.17.13-.31.28-.46.43-3.54,3.53-7.07,7.07-10.61,10.61-1.31,1.31-1.31,2.54,0,3.86,3.56,3.56,7.12,7.12,10.68,10.68.51.52,1.08.88,1.84.86Z"/></svg>