<?xml version="1.0" encoding="UTF-8"?><svg id="Layer_1" xmlns="http://www.w3.org/2000/svg" viewBox="0 0 53.79 53.8"><defs><style>.cls-1{fill:#f7eddf;stroke-width:0px;}</style></defs><path class="cls-1" d="M29.13,53.8h-4.41c-1.24-.17-2.49-.31-3.72-.59C6.6,49.92-2.64,35.69.67,20.99,3.92,6.58,18.22-2.73,32.88.72c10.21,2.4,16.83,8.9,19.96,18.92.52,1.66.74,3.37.95,5.09v4.41c-.17,1.25-.29,2.5-.6,3.72-2.61,10.18-8.94,16.85-18.97,19.99-1.65.52-3.37.74-5.09.95ZM26.93,4.62c-12.3,0-22.31,9.99-22.32,22.28-.01,12.33,9.98,22.35,22.29,22.36,12.33,0,22.34-9.98,22.34-22.3,0-12.33-9.99-22.33-22.32-22.33Z"/><path class="cls-1" d="M22.44,40.41c-.92-.02-1.61-.44-2.02-1.26-.41-.82-.33-1.63.2-2.38.16-.23.37-.42.56-.62,2.92-2.92,5.83-5.84,8.76-8.74.38-.38.37-.58,0-.95-2.98-2.95-5.94-5.93-8.91-8.89-.5-.5-.85-1.06-.85-1.79,0-.97.45-1.68,1.31-2.09.85-.4,1.67-.28,2.41.29.17.13.31.28.46.43,3.54,3.53,7.07,7.07,10.61,10.61,1.31,1.31,1.31,2.54,0,3.86-3.56,3.56-7.12,7.12-10.68,10.68-.51.52-1.08.88-1.84.86Z"/></svg>