<?xml version="1.0" encoding="utf-8"?>
<!-- Generator: Adobe Illustrator 28.0.0, SVG Export Plug-In . SVG Version: 6.00 Build 0)  -->
<svg version="1.1" id="Layer_1" xmlns="http://www.w3.org/2000/svg" xmlns:xlink="http://www.w3.org/1999/xlink" x="0px" y="0px"
	 viewBox="0 0 1108 588.6" style="enable-background:new 0 0 1108 588.6;" xml:space="preserve">
<style type="text/css">
	.st0{fill:none;stroke:#EF8006;stroke-width:5;stroke-miterlimit:10;}
	.st1{enable-background:new    ;}
	.st2{fill:#EF8006;}
	.st3{fill:#F9CEA3;}
	.st4{fill:none;stroke:#EF8006;stroke-width:5;stroke-linecap:round;stroke-linejoin:round;}
</style>
<path class="st0" d="M18.1,2.5h1071.8c8.6,0,15.6,7,15.6,15.6v552.4c0,8.6-7,15.6-15.6,15.6H18.1c-8.6,0-15.6-7-15.6-15.6V18.1
	C2.5,9.5,9.5,2.5,18.1,2.5z"/>
<g class="st1">
	<path class="st2" d="M303.2,86.7h7.2V66.5h-6v-4.1c3.3-0.6,5.6-1.5,7.7-2.8h4.9v27.1h6.3V92h-20V86.7z"/>
</g>
<g class="st1">
	<path class="st2" d="M340.5,67.8c-0.3,0.8-0.7,1.8-1.2,2.9h16.4c1,0,2.8,0,4-0.2v5.5c-1.4-0.1-3.1-0.1-4-0.1h-5.5
		c-0.8,9.5-4.4,16.2-11.6,20.7l-5.6-3.7c1.3-0.5,3-1.5,4-2.4c3.7-3.1,6.7-7.3,7.4-14.5h-7.9c-1.8,2.8-4.4,6.2-6.2,7.8l-5.3-3.1
		c2.9-2.2,5.3-5.2,6.8-7.6c1.3-1.9,2-4,2.5-5.8c0.3-1,0.5-2.3,0.6-3.3l6.3,1.3C341.2,66.1,340.8,66.9,340.5,67.8z"/>
</g>
<g class="st1">
	<path class="st2" d="M402.7,89.1c0,3.2-0.8,4.8-2.8,5.7c-2.2,0.9-5.3,1-9.9,1c-0.3-1.6-1.4-4.1-2.2-5.6c3.1,0.2,6.9,0.1,7.9,0.1
		c1.1,0,1.4-0.4,1.4-1.3v-6.5h-19.3c-1.2,5-3.4,9.9-7.6,13.5c-0.8-1.1-3-3.1-4.1-3.9c6.8-5.8,7.4-14.4,7.4-21.2V56h29.2V89.1z
		 M397,77.3v-5.5h-18c0,1.7-0.1,3.6-0.3,5.5H397z M379,61.2v5.5h18v-5.5H379z"/>
</g>
<g class="st1">
	<path class="st2" d="M421.7,61.5c-0.6,3-2.2,12-2.2,16.5c0,0.9,0,2,0.2,2.9c0.7-1.5,1.4-3.1,2-4.6l2.8,2.2c-1.3,3.7-2.7,8.6-3.2,11
		c-0.1,0.7-0.2,1.7-0.2,2.1c0,0.5,0,1.2,0.1,1.8l-5.2,0.4c-0.9-3.1-1.8-8.6-1.8-14.7c0-6.8,1.4-14.4,1.9-17.8c0.1-1.3,0.4-3,0.5-4.4
		l6.3,0.5C422.4,58.5,421.9,60.7,421.7,61.5z M432.8,83.5c0,2,1.7,3.2,6.3,3.2c4,0,7.3-0.4,11.3-1.2l0.1,6.1
		c-2.9,0.5-6.5,0.9-11.6,0.9c-7.7,0-11.5-2.7-11.5-7.4c0-1.8,0.3-3.6,0.8-5.8l5.2,0.5C433,81.3,432.8,82.3,432.8,83.5z M449.1,60.5
		v5.8c-5.5,0.5-13.7,0.5-19.3,0v-5.8C435.3,61.3,444.2,61.1,449.1,60.5z"/>
</g>
<g class="st1">
	<path class="st2" d="M480.4,83.8c3.4,4.1,9,6.5,16.8,7.3c-1.2,1.2-2.7,3.5-3.3,5c-8.4-1.3-13.9-4.5-17.7-9.9
		c-2.7,4.2-8,7.6-18.2,9.9c-0.6-1.2-2.1-3.3-3.3-4.5c9.6-1.8,14.4-4.5,16.5-7.7h-15.5v-5h4.3V68.5H473V64h5.6v4.5h13.5v10.3h4v5
		H480.4z M465,62.2h-8.8v-4.8h8.8v-3.4h5.3v3.4h11.1v-3.4h5.4v3.4h8.9v4.8h-8.9v4h-5.4v-4h-11.1v4H465V62.2z M472.9,78.8
		c0.1-0.5,0.1-1.1,0.1-1.6v-4h-7.7v5.7H472.9z M478.6,73.1v4.1c0,0.5,0,1,0,1.5h8.1v-5.7H478.6z"/>
</g>
<g class="st1">
	<path class="st2" d="M516.6,65.7h-16.7v-4.2h16.7V65.7z M515.3,94.1h-8.9v1.8h-4.5V80.5h13.4V94.1z M515,71.9h-13v-4h13V71.9z
		 M502,74.2h13v4h-13V74.2z M515,59.3h-12.7v-4H515V59.3z M506.4,84.8v5.1h4.3v-5.1H506.4z M542.1,72v4.7h-25.7V72h5.5
		c0.3-1.4,0.5-3,0.8-4.6h-4v-4.5h4.7c0.1-1.1,0.3-2.1,0.4-3.1H518v-4.6h22.5v4.6h-11.5l-0.4,3.1h9.6V72H542.1z M519.6,79.1h19.7
		v16.6H534v-1.6h-9.4v1.8h-5V79.1z M524.6,83.9v5.6h9.4v-5.6H524.6z M527.9,67.4c-0.3,1.6-0.5,3.2-0.8,4.6h6.1v-4.6H527.9z"/>
</g>
<g class="st1">
	<path class="st2" d="M555.2,61.5c-0.6,3-2.2,12-2.2,16.5c0,0.9,0,2,0.2,2.9c0.7-1.5,1.4-3.1,2-4.6l2.8,2.2c-1.3,3.7-2.7,8.6-3.2,11
		c-0.1,0.7-0.2,1.7-0.2,2.1c0,0.5,0,1.2,0.1,1.8l-5.2,0.4c-0.9-3.1-1.8-8.6-1.8-14.7c0-6.8,1.4-14.4,1.9-17.8c0.1-1.3,0.4-3,0.5-4.4
		l6.3,0.5C556,58.5,555.4,60.7,555.2,61.5z M566.3,83.5c0,2,1.7,3.2,6.3,3.2c4,0,7.3-0.4,11.3-1.2l0.1,6.1
		c-2.9,0.5-6.5,0.9-11.6,0.9c-7.7,0-11.5-2.7-11.5-7.4c0-1.8,0.3-3.6,0.8-5.8l5.2,0.5C566.5,81.3,566.3,82.3,566.3,83.5z
		 M582.6,60.5v5.8c-5.5,0.5-13.7,0.5-19.3,0v-5.8C568.8,61.3,577.7,61.1,582.6,60.5z"/>
</g>
<g class="st1">
	<path class="st2" d="M607.7,90.9c0,2.1-0.4,3.4-1.7,4.1c-1.3,0.8-3.2,0.9-5.9,0.9c-0.2-1.3-0.8-3.3-1.5-4.5c1.8,0,3.6,0,4,0
		c0.5,0,0.7-0.2,0.7-0.7V84h-8.4c-0.4,4.2-1.3,8.6-3.3,11.9c-0.8-0.7-2.7-1.8-3.6-2.3c2.8-4.7,3.1-11.3,3.1-16.3v-7.2
		c-0.9-0.9-2.3-2-3.2-2.5c2.9-3.3,5-8.5,6.2-13.7l4.7,1c-0.2,1-0.5,2-0.8,3h3.6l0.9-0.3l2.8,1.9c-0.8,1.9-1.7,4-2.7,5.8h5.1V90.9z
		 M596.6,62c-0.5,1.2-1,2.3-1.5,3.4h3.1c0.5-1,1-2.2,1.4-3.4H596.6z M595.4,77.3c0,0.9,0,1.8,0,2.8h2.2v-3.6h-2.2V77.3z M595.4,72.7
		h2.2v-3.4h-2.2V72.7z M601.1,72.7h2.3v-3.4h-2.3V72.7z M603.4,80.1v-3.6h-2.3v3.6H603.4z M626.4,96c-0.1-0.9-0.3-2-0.6-3.2
		c-5.9,0.7-12.1,1.4-16.6,1.8l-0.7-5.1c2.3-0.1,5.1-0.4,8.2-0.7v-7.8h-7V62.9h7v-9h4.9v9h7.5v18.1h-7.5v7.3l2.9-0.3
		c-0.5-1.5-1.1-3.1-1.8-4.5l4.2-1.4c1.9,3.9,3.6,8.9,4.1,12.1L626.4,96z M616.6,76.6v-9.3H614v9.3H616.6z M621.5,67.4v9.3h2.8v-9.3
		H621.5z"/>
</g>
<g class="st1">
	<path class="st2" d="M644.8,55.5l6.6,0.2c-0.3,1.3-0.7,3.6-1,6.3l1.7,2.2c-0.6,0.8-1.5,2.3-2.3,3.5c0,0.3,0,0.6-0.1,1
		c3.6-3.1,8.7-6.8,13.1-6.8c4.9,0,7.1,2.9,7.1,6.7c0,4.7-1.5,11.3-1.5,15.9c0,1.2,0.6,2,1.7,2c1.7,0,3.8-1.2,5.8-3.2l0.7,6.3
		c-2.1,1.9-4.8,3.3-8.5,3.3c-3.4,0-5.6-2.4-5.6-6.8c0-4.9,1.6-11.5,1.6-15.6c0-2.2-1.2-3.3-3.1-3.3c-3.3,0-8.2,4.1-11.9,8.2
		c0,1.3-0.1,2.5-0.1,3.6c0,3.7,0,7.5,0.3,11.7c0,0.8,0.2,2.4,0.3,3.5h-6.2c0.1-1,0.1-2.6,0.1-3.3c0.1-3.5,0.1-6.1,0.2-9.9
		c-1.9,2.8-4.1,6.1-5.7,8.2l-3.6-4.9c2.6-3.2,7.1-9.1,9.6-12.9c0.1-1,0.2-2.1,0.2-3.2c-2.2,0.3-5.7,0.7-8.2,1.1l-0.6-5.8
		c1.3,0,2.3,0,3.9,0c1.3-0.1,3.3-0.3,5.2-0.6c0.1-1.7,0.2-3,0.2-3.5C645,58.3,645,56.9,644.8,55.5z"/>
</g>
<g class="st1">
	<path class="st2" d="M688.3,57.9c2.4,0,12-0.2,14.6-0.4c1.8-0.2,2.9-0.3,3.4-0.5l2.9,4c-1,0.7-2.1,1.3-3.1,2.1
		c-2.4,1.7-7.2,5.7-10,7.9c1.5-0.4,2.8-0.5,4.3-0.5c7.6,0,13.5,4.8,13.5,11.3c0,7.1-5.4,12.7-16.3,12.7c-6.3,0-11-2.9-11-7.4
		c0-3.6,3.3-7,8.1-7c5.6,0,9,3.4,9.6,7.7c2.5-1.3,3.7-3.4,3.7-6.1c0-4-4-6.8-9.4-6.8c-6.9,0-11.4,3.6-16.2,9.1l-4.1-4.2
		c3.2-2.6,8.6-7.2,11.3-9.4c2.5-2.1,7.2-5.8,9.4-7.8c-2.3,0-8.5,0.3-10.9,0.5c-1.2,0.1-2.7,0.2-3.7,0.4l-0.2-5.9
		C685.5,57.9,687.1,57.9,688.3,57.9z M696.4,89.5c0.9,0,1.8,0,2.6-0.1c-0.3-2.9-1.9-4.8-4.4-4.8c-1.7,0-2.8,1-2.8,2.2
		C691.9,88.4,693.7,89.5,696.4,89.5z"/>
</g>
<g class="st1">
	<path class="st2" d="M735.5,87.2h-9.1v4h-4.9V56.6h14.1V87.2z M726.3,61.4v7.9h4.1v-7.9H726.3z M730.5,82.5V74h-4.1v8.5H730.5z
		 M757.3,71.9v3.9h4.3v4.6h-4.3v9.8c0,2.6-0.5,3.9-2.2,4.7c-1.8,0.8-4.2,0.9-7.5,0.9c-0.2-1.5-1-3.6-1.7-5c2.2,0.1,4.7,0.1,5.4,0.1
		c0.7,0,0.9-0.2,0.9-0.8v-9.7h-15.8v-4.6h15.8v-3.9h-15.9v-4.7h10.2v-4h-8.6v-4.7h8.6v-4.7h5.3v4.7h9v4.7h-9v4h10.3v4.7H757.3z
		 M742.4,81c2.1,2.2,4.5,5.2,5.4,7.4l-4.6,2.7c-0.8-2.1-3.1-5.3-5.1-7.6L742.4,81z"/>
	<path class="st2" d="M772.4,71.9v24.1h-5.3V55.6h17.2v16.2H772.4z M772.4,59.5v2.4h6.9v-2.4H772.4z M779.3,68v-2.6h-6.9V68H779.3z
		 M805.1,89.6c0,2.9-0.6,4.5-2.4,5.3c-1.8,0.9-4.4,1-8.2,1c-0.1-1.1-0.6-2.8-1.2-4.2h-11.2V94h-4.9V74.6h2.2v0l15.1,0v15.9
		c1.8,0,3.4,0,4,0c0.8,0,1.1-0.3,1.1-1V71.9h-12.2V55.6h17.6V89.6z M789.5,78.5h-7.4v2.7h7.4V78.5z M789.5,87.8V85h-7.4v2.8H789.5z
		 M792.5,59.5v2.4h7.2v-2.4H792.5z M799.7,68.1v-2.7h-7.2v2.7H799.7z"/>
</g>
<g class="st1">
	<path class="st2" d="M667.8,197.6h4.7v10.3h0.1l7.8-10.3h5.2l-7.2,9.3l8.5,14.4h-5.2l-6.1-10.7l-3.1,4v6.7h-4.7V197.6z"/>
	<path class="st2" d="M689,197.9c0-1.5,1.1-2.6,2.8-2.6c1.6,0,2.7,1,2.7,2.6c0,1.6-1.1,2.6-2.7,2.6C690.1,200.5,689,199.5,689,197.9
		z M689.4,203.4h4.7v17.9h-4.7V203.4z"/>
	<path class="st2" d="M698.1,212.4c0-5.8,3.6-9.4,7.5-9.4c2,0,3.3,0.8,4.5,2l-0.2-2.8v-6.3h4.7v25.5h-3.8l-0.4-1.9h-0.1
		c-1.3,1.3-3.1,2.3-5,2.3C701,221.8,698.1,218.3,698.1,212.4z M710,216.1v-7.9c-1.1-1-2.2-1.3-3.4-1.3c-2,0-3.7,1.9-3.7,5.5
		c0,3.7,1.3,5.6,3.7,5.6C707.9,217.9,708.9,217.4,710,216.1z"/>
	<path class="st2" d="M718,219.2l2.1-2.9c1.6,1.2,3.1,2,4.8,2c1.8,0,2.6-0.8,2.6-1.9c0-1.3-1.9-2-3.7-2.7c-2.3-0.9-4.8-2.2-4.8-5.2
		c0-3.2,2.6-5.5,6.7-5.5c2.6,0,4.6,1.1,6.1,2.2l-2.1,2.8c-1.3-0.9-2.5-1.5-3.8-1.5c-1.6,0-2.4,0.7-2.4,1.7c0,1.3,1.7,1.8,3.6,2.5
		c2.4,0.9,5,2.1,5,5.4c0,3.1-2.5,5.7-7.1,5.7C722.4,221.8,719.8,220.7,718,219.2z"/>
	<path class="st2" d="M735.8,210.7v-13.1h4.7v13.5c0,4.9,1.7,6.6,4.5,6.6c2.8,0,4.6-1.7,4.6-6.6v-13.5h4.5v13.1
		c0,7.9-3.4,11.1-9.2,11.1C739.3,221.8,735.8,218.5,735.8,210.7z"/>
	<path class="st2" d="M759.9,197.6h7.8c5.2,0,9.3,1.9,9.3,7.5c0,5.4-4.1,7.8-9.2,7.8h-3.2v8.4h-4.7V197.6z M767.4,209.2
		c3.3,0,4.8-1.4,4.8-4.1c0-2.8-1.7-3.7-5-3.7h-2.7v7.8H767.4z"/>
	<path class="st2" d="M816.1,202.4c-0.4,13.4-0.7,18.2-1.9,19.7c-0.8,1.1-1.5,1.5-2.7,1.7c-1.1,0.2-2.6,0.2-4.3,0.1
		c-0.1-1.1-0.5-2.7-1.1-3.7c1.5,0.1,2.8,0.1,3.5,0.1c0.5,0,0.8-0.1,1.2-0.6c0.8-0.9,1.2-5,1.5-15.4h-3.8c0,6.8-1.2,14.3-8.3,19.8
		c-0.7-0.9-2-1.9-3-2.6c0.5-0.4,1-0.8,1.4-1.2c-0.1-0.4-0.1-0.7-0.2-1.2c-4,0.8-8.2,1.7-11.5,2.4l-0.7-3.8c0.6-0.1,1.2-0.2,1.9-0.3
		c1.3-1.9,2.8-4.1,4.2-6.5c-1.5-2-3.9-4.5-6-6.4l2.1-3.3c0.4,0.4,0.9,0.8,1.3,1.2c1.3-2.5,2.6-5.5,3.4-8l3.9,1.4
		c-1.4,3.1-3.1,6.5-4.7,9c0.8,0.7,1.5,1.5,2.1,2.2c1-2,2-4,2.7-5.8l3.1,1v-1.5h4.4v-6.2h3.9v6.2h7.6V202.4z M797.4,215.6
		c-0.4-1.3-1-2.6-1.5-3.8c-1,1.6-2,3.2-3,4.6C794.4,216.2,795.9,216,797.4,215.6z M799,210.4c1,2,2,4.3,2.6,6.3
		c2.6-4.1,3-8.5,3-12.4h-4.4V204c-1.3,2.6-2.8,5.3-4.4,7.8L799,210.4z"/>
</g>
<g class="st1">
	<path class="st2" d="M831.2,212.9c-0.6,5.6-2.2,9.4-10.6,11.5c-0.4-1-1.3-2.6-2.1-3.4c7.2-1.4,8.1-4,8.6-8.1H831.2z M825.7,195.1
		v17.4h-3.7v-17.4H825.7z M845.5,195.5V212h-16.1v-16.4H845.5z M833.1,202.2h8.5v-3.4h-8.5V202.2z M833.1,208.7h8.5v-3.5h-8.5V208.7
		z M839.4,212.8v6.5c0,1,0.2,1.1,1.2,1.1h2.9c1,0,1.2-0.5,1.3-4.2c0.8,0.6,2.5,1.2,3.5,1.5c-0.4,5-1.4,6.3-4.4,6.3h-3.9
		c-3.7,0-4.6-1.2-4.6-4.6v-6.6H839.4z"/>
</g>
<g class="st1">
	<path class="st2" d="M856.9,198.8H873c0.9,0,2.3,0,2.8-0.1c0,0.7-0.1,2-0.1,2.9v16.6c0,1.1,0.1,2.8,0.1,3.8h-4.6c0-0.5,0-1.1,0-1.7
		h-14.6c-1.2,0-3.1,0.1-4.1,0.2V216c1.1,0.1,2.6,0.2,4,0.2h14.8v-13.2h-14.4c-1.3,0-3.1,0.1-4,0.1v-4.4
		C854.1,198.7,855.8,198.8,856.9,198.8z"/>
</g>
<g class="st1">
	<path class="st2" d="M888,206.7h17.2c1.5,0,2.9-0.1,3.7-0.2v5c-0.8,0-2.4-0.2-3.7-0.2H888c-1.8,0-4,0.1-5.2,0.2v-5
		C884,206.6,886.3,206.7,888,206.7z"/>
</g>
<g class="st1">
	<path class="st2" d="M933.1,201.6c-1.1,2.5-2.9,5.9-5,8.8c3.2,2.8,7,6.8,8.9,9.2l-3.6,3.2c-2.1-2.9-5.1-6.1-8.1-9.1
		c-3.4,3.6-7.6,6.9-12,9l-3.3-3.5c5.2-1.9,10.1-5.8,13.1-9.2c2.1-2.4,4.1-5.6,4.8-7.8H917c-1.3,0-3.1,0.2-3.8,0.2v-4.5
		c0.9,0.1,2.8,0.2,3.8,0.2h11.3c1.4,0,2.7-0.2,3.3-0.4l2.6,2C933.9,200,933.4,201,933.1,201.6z"/>
</g>
<g class="st1">
	<path class="st2" d="M785.4,280.3h-3.9v6.7h-6.6v-6.7h-13.7v-4.7l14.1-20.7h6.3V275h3.9V280.3z M774.9,275v-5.4c0-0.7,0-1.5,0-2.5
		c0-1,0.1-1.9,0.1-2.8c0-0.9,0.1-1.4,0.1-1.7H775c-0.3,0.6-0.6,1.2-0.9,1.8c-0.3,0.6-0.7,1.2-1.1,1.8l-5.9,8.9H774.9z"/>
	<path class="st2" d="M810.2,270.9c0,3.5-0.4,6.4-1.1,8.9c-0.7,2.5-1.9,4.4-3.6,5.7c-1.7,1.3-3.8,2-6.6,2c-3.9,0-6.7-1.5-8.5-4.4
		c-1.8-2.9-2.7-7-2.7-12.2c0-3.4,0.4-6.4,1.1-8.9c0.7-2.5,1.9-4.4,3.6-5.7c1.6-1.3,3.8-2,6.6-2c3.8,0,6.7,1.5,8.5,4.4
		C809.3,261.6,810.2,265.7,810.2,270.9z M794.5,270.9c0,3.7,0.3,6.4,0.9,8.3s1.8,2.8,3.5,2.8c1.7,0,2.8-0.9,3.5-2.7
		c0.7-1.8,1-4.6,1-8.3c0-3.7-0.3-6.4-1-8.3c-0.7-1.9-1.8-2.8-3.5-2.8c-1.7,0-2.9,0.9-3.5,2.8S794.5,267.2,794.5,270.9z"/>
	<path class="st2" d="M822.1,252.8v7c0,1.2,0,2.4-0.1,3.5c-0.1,1.1-0.1,1.9-0.2,2.3h0.4c0.8-1.3,1.8-2.2,3-2.7
		c1.2-0.6,2.6-0.9,4.1-0.9c2.6,0,4.8,0.7,6.4,2.1c1.6,1.4,2.4,3.7,2.4,6.9v16h-6.7v-14.4c0-3.5-1.3-5.3-4-5.3c-2,0-3.4,0.7-4.2,2.1
		c-0.8,1.4-1.1,3.4-1.1,6V287h-6.7v-34.2H822.1z"/>
</g>
<g class="st1">
	<path class="st2" d="M107,206.8v4.1H77.6v-4.1H107z"/>
	<path class="st2" d="M122,210.3v10.5c0,1.4-0.2,2.3-1.2,2.8c-0.9,0.5-2.1,0.6-3.9,0.6c-0.1-0.8-0.5-2.2-0.9-3c1,0,2.1,0,2.4,0
		c0.4,0,0.5-0.1,0.5-0.5v-10l-4.5,0.5c-0.1,4.2-0.5,9.6-2.7,13c-0.5-0.5-1.8-1.3-2.6-1.7c1.9-3,2.2-7.3,2.2-11l-1.9,0.2l-0.4-3
		l2.2-0.2v-9.9h2.9c0.4-1.4,0.7-3.1,0.9-4.4l4.1,0.6c-0.5,1.3-1,2.6-1.4,3.7h4.2v8.8l1.3-0.2l0.1,2.9L122,210.3z M114.3,208.1
		c1.4-0.1,3-0.3,4.5-0.4v-6.2h-4.5V208.1z M116.9,202.2c0.8,1.2,1.4,2.8,1.6,4l-2.4,1c-0.2-1.1-0.7-2.8-1.4-4L116.9,202.2z
		 M117.6,218.8h-2.2v-7.3h2.2V218.8z M138,208.4c-0.9,4.1-2.5,7.3-4.7,9.8c1.8,1.2,3.9,2.2,6.4,2.8c-0.8,0.7-1.8,2.2-2.3,3.1
		c-2.7-0.7-4.9-1.9-6.7-3.4c-1.9,1.5-4,2.6-6.4,3.5c-0.4-0.9-1.3-2.4-2-3.2c2.2-0.6,4.2-1.6,5.9-2.9c-1.3-1.8-2.4-3.9-3.3-6.3
		l2.9-0.7H124v-3.3h1.3c-0.6-0.6-2-1.7-2.7-2.1c2.3-1.8,2.5-4.1,2.5-6v-4.2h10.2v7.1c0,0.5,0,0.9,0,1c0.1,0.1,0.2,0.2,0.3,0.2h0.5
		c0.2,0,0.3,0,0.4-0.1c0.1-0.1,0.2-0.3,0.3-0.7c0.1-0.4,0.1-1.4,0.1-2.7c0.6,0.5,1.8,1.1,2.7,1.4c-0.1,1.3-0.2,2.7-0.4,3.3
		c-0.2,0.6-0.6,1.1-1.1,1.3c-0.4,0.3-1.2,0.4-1.7,0.4h-1.7c-0.8,0-1.6-0.3-2.1-0.8c-0.5-0.5-0.7-1.2-0.7-3.2v-3.8h-3.4v1
		c0,2.7-0.5,6-3.1,8.1h9.6l0.6-0.1L138,208.4z M128,211.1c0.6,1.7,1.5,3.3,2.6,4.7c1.2-1.3,2.1-2.9,2.8-4.7H128z"/>
	<path class="st2" d="M170.4,199.2c0,0,0,1.3,0,1.7c-0.4,14.3-0.8,19.4-2.1,21.1c-0.9,1.2-1.8,1.5-3.1,1.8c-1.2,0.2-3.1,0.1-5,0.1
		c-0.1-1.1-0.6-2.7-1.2-3.7c2,0.2,3.9,0.2,4.8,0.2c0.6,0,1-0.1,1.4-0.5c0.9-1,1.3-5.8,1.7-17.1H160c-0.8,1.9-1.8,3.7-2.8,5.1
		c-0.5-0.5-1.6-1.2-2.5-1.8v14.9h-8.5v2.3h-3.5v-23.8h3.6c0.4-1.6,0.8-3.6,0.9-5.2l4.2,0.6c-0.5,1.6-1.1,3.2-1.7,4.6h5v5.2
		c1.9-2.7,3.4-6.6,4.3-10.3l3.6,0.8c-0.4,1.4-0.8,2.7-1.2,4.1H170.4z M151.2,202.7h-5.1v5.2h5.1V202.7z M151.2,217.5v-6.3h-5.1v6.3
		H151.2z M161.9,215.7c-0.9-1.9-2.9-5.1-4.4-7.4l3-1.7c1.6,2.2,3.7,5.2,4.7,7.1L161.9,215.7z"/>
</g>
<g class="st1">
	<path class="st2" d="M186.2,200c1.6-0.3,3.1-0.6,4.3-1l0.1,3.7c-1.5,0.4-3.5,0.8-5.6,1.1c-1.5,4.5-4.3,10.1-6.8,13.7l-3.9-2
		c2.5-3.1,5.1-7.8,6.5-11.3c-0.6,0-1.1,0-1.7,0c-1.3,0-2.6,0-4-0.1l-0.3-3.7c1.4,0.2,3.1,0.2,4.3,0.2c1,0,1.9,0,2.9-0.1
		c0.4-1.8,0.8-3.7,0.9-5.3l4.4,0.4C187.1,196.6,186.7,198.2,186.2,200z M194.9,209.6c0,0.9,0.1,2.5,0.2,4.1c2.8,1,5,2.6,6.6,4.1
		l-2.1,3.4c-1.1-1-2.6-2.4-4.3-3.4c0,0.1,0,0.2,0,0.3c0,3-1.6,5.3-6.2,5.3c-4,0-7.1-1.8-7.1-5.3c0-3.1,2.6-5.5,7.1-5.5
		c0.8,0,1.5,0.1,2.2,0.1c-0.1-2.4-0.3-5.2-0.4-7.2h4C194.8,206.9,194.8,208.2,194.9,209.6z M188.5,219.7c2.2,0,2.9-1.2,2.9-3
		c0-0.2,0-0.4,0-0.6c-0.8-0.2-1.7-0.3-2.6-0.3c-1.9,0-3,0.8-3,2C185.7,218.9,186.7,219.7,188.5,219.7z M192.7,202.7l2-3.2
		c2.3,1,6.3,3.2,7.9,4.4l-2.3,3.4C198.5,205.7,194.9,203.7,192.7,202.7z"/>
</g>
<g class="st1">
	<path class="st2" d="M226.4,201.6c-1.1,2.5-2.9,5.9-5,8.8c3.2,2.8,7,6.8,8.9,9.2l-3.6,3.2c-2.1-2.9-5.1-6.1-8.1-9.1
		c-3.4,3.6-7.6,6.9-12,9l-3.3-3.5c5.2-1.9,10.1-5.8,13.1-9.2c2.1-2.4,4.1-5.6,4.8-7.8h-10.8c-1.3,0-3.1,0.2-3.8,0.2v-4.5
		c0.9,0.1,2.8,0.2,3.8,0.2h11.3c1.4,0,2.7-0.2,3.3-0.4l2.6,2C227.3,200,226.7,201,226.4,201.6z"/>
</g>
<g class="st1">
	<path class="st2" d="M248.2,199.6c0,0.1-0.1,0.1-0.1,0.2h6.4c1,0,2-0.2,2.8-0.4l3.3,2c-0.4,0.6-0.8,1.5-1.1,2.3
		c-0.9,2.8-2.7,7.1-5.6,10.7c-3,3.7-6.9,6.7-12.9,9l-3.8-3.4c6.6-2,10.1-4.7,12.9-7.9c2.2-2.5,4-6.3,4.5-8.7h-9
		c-2.1,2.8-4.9,5.6-8.1,7.7l-3.6-2.7c5.6-3.4,8.4-7.6,10-10.3c0.5-0.8,1.2-2.3,1.4-3.4l4.7,1.5C249.5,197.5,248.6,198.9,248.2,199.6
		z"/>
</g>
<g class="st1">
	<path class="st2" d="M269.5,206.7h17.2c1.5,0,2.9-0.1,3.7-0.2v5c-0.8,0-2.4-0.2-3.7-0.2h-17.2c-1.8,0-4,0.1-5.2,0.2v-5
		C265.5,206.6,267.8,206.7,269.5,206.7z"/>
</g>
<g class="st1">
	<path class="st2" d="M299.2,212.5c0.9-2.8,0.9-8.8,0.9-12.7c0-1.3-0.1-2.1-0.3-2.9h4.7c0,0.2-0.2,1.6-0.2,2.9
		c0,3.8-0.1,10.5-1,13.8c-1,3.6-3,6.8-5.7,9.2l-3.9-2.6C296.5,218.2,298.3,215.2,299.2,212.5z M308.8,218.3v-18.7
		c0-1.4-0.2-2.7-0.3-2.8h4.8c0,0.1-0.2,1.3-0.2,2.8v16.7c2.6-1.1,5.8-3.6,7.9-6.8l2.5,3.5c-2.7,3.5-7.3,6.9-10.8,8.7
		c-0.7,0.4-1.1,0.7-1.4,1l-2.7-2.2C308.7,220,308.8,219.1,308.8,218.3z"/>
</g>
<path class="st3" d="M920.4,317.1c-57.1,0-103.4,46.3-103.4,103.4S863.3,524,920.4,524s103.4-46.3,103.4-103.4
	S977.5,317.1,920.4,317.1z M920.4,464.5c-24.3,0-43.9-19.7-43.9-43.9s19.7-43.9,43.9-43.9s43.9,19.7,43.9,43.9
	S944.7,464.5,920.4,464.5z"/>
<path class="st2" d="M920.4,319.1v36c0,6.2,4.3,11.6,10.4,12.8c25.5,5,44.5,28,43.3,55.3c-1.3,27.5-23.7,49.9-51.2,51.1
	c-20.4,0.9-38.5-9.6-48.3-25.7c-3.3-5.4-9.9-7.8-15.9-5.5l-33.6,12.8c-7.3,2.8-10.5,11.3-6.9,18.2c19.3,36.8,57.8,61.9,102.2,61.9
	c63.6,0,115.9-52.8,115.3-116.4c-0.6-58.2-44.2-106-100.5-113.3C927.4,305.2,920.4,311.2,920.4,319.1L920.4,319.1z"/>
<path class="st3" d="M192.2,323.1c-57.1,0-103.4,46.3-103.4,103.4s46.3,103.4,103.4,103.4s103.4-46.3,103.4-103.4
	S249.4,323.1,192.2,323.1L192.2,323.1z M192.2,470.4c-24.3,0-43.9-19.7-43.9-43.9s19.7-43.9,43.9-43.9s43.9,19.7,43.9,43.9
	S216.5,470.4,192.2,470.4z"/>
<path class="st2" d="M294.1,426.9h-36c-6.3,0-11.6-4.5-12.8-10.6c-1.4-7.2-4.3-13.9-8.4-19.7c0,0-0.1,0-0.1,0.1
	c-1.9-2.8-4-5.4-6.4-7.8c-0.1-0.1-0.2-0.2-0.3-0.3c-3.4-3.4-7.3-6.3-11.5-8.6c0.1,0,0.1-0.1,0.1-0.1c-4.9-2.8-10.3-4.9-16-6
	c-6.1-1.2-10.6-6.5-10.6-12.8v-36c0-7.8,6.9-13.9,14.7-13c26.2,3.3,49.6,15.4,67.3,33.3c0.1,0.1,0.1,0.1,0.2,0.2
	c17.5,17.6,29.4,40.8,32.7,66.7C308,420,302,426.9,294.1,426.9L294.1,426.9z"/>
<path class="st3" d="M667.6,316.8c-57.1,0-103.4,46.3-103.4,103.4s46.3,103.4,103.4,103.4s103.4-46.3,103.4-103.4
	S724.8,316.8,667.6,316.8z M667.6,464.2c-24.3,0-43.9-19.7-43.9-43.9s19.7-43.9,43.9-43.9s43.9,19.7,43.9,43.9
	S691.9,464.2,667.6,464.2z"/>
<path class="st2" d="M667.6,304.9c-63.7,0-115.3,51.6-115.3,115.3s51.6,115.3,115.3,115.3S783,484,783,420.2
	S731.3,304.9,667.6,304.9z M667.6,473.9c-29.7,0-53.7-24-53.7-53.7s24-53.7,53.7-53.7s53.7,24,53.7,53.7S697.3,473.9,667.6,473.9z"
	/>
<g class="st1">
	<path class="st2" d="M1019.5,306.2h-4.8V293c0-0.5,0-1.3,0-2.2c0-0.9,0.1-1.7,0.1-2.4c-0.1,0.1-0.3,0.4-0.7,0.7
		c-0.4,0.3-0.7,0.6-1,0.9l-2.6,2.1l-2.3-2.9l7.4-5.9h4V306.2z"/>
	<path class="st2" d="M1025.7,296.5c0-1.3,0.1-2.6,0.3-3.9c0.2-1.3,0.5-2.5,1-3.6c0.5-1.1,1.2-2.2,2-3c0.9-0.9,2-1.6,3.3-2.1
		s2.9-0.8,4.8-0.8c0.4,0,1,0,1.6,0c0.6,0,1.1,0.1,1.5,0.2v3.9c-0.4-0.1-0.8-0.2-1.3-0.2c-0.5-0.1-1-0.1-1.4-0.1
		c-1.9,0-3.4,0.3-4.4,0.9c-1,0.6-1.8,1.4-2.2,2.5s-0.7,2.3-0.7,3.7h0.2c0.4-0.7,1-1.4,1.8-1.9s1.8-0.8,3.1-0.8c2,0,3.6,0.6,4.8,1.9
		c1.2,1.3,1.8,3,1.8,5.3c0,2.5-0.7,4.4-2.1,5.8s-3.3,2.1-5.7,2.1c-1.6,0-3-0.4-4.2-1.1c-1.3-0.7-2.3-1.8-3-3.3
		C1026.1,300.7,1025.7,298.8,1025.7,296.5z M1034,302.7c0.9,0,1.7-0.3,2.3-1c0.6-0.7,0.9-1.7,0.9-3c0-1.1-0.3-2-0.8-2.6
		c-0.5-0.6-1.3-1-2.3-1c-0.7,0-1.3,0.2-1.9,0.5c-0.5,0.3-0.9,0.7-1.2,1.2c-0.3,0.5-0.4,1-0.4,1.5c0,0.7,0.1,1.4,0.4,2.1
		s0.6,1.2,1.2,1.7C1032.6,302.5,1033.2,302.7,1034,302.7z"/>
	<path class="st2" d="M1050.2,281.9v5c0,0.9,0,1.7-0.1,2.5c-0.1,0.8-0.1,1.3-0.1,1.6h0.3c0.6-0.9,1.3-1.5,2.1-2s1.8-0.6,2.9-0.6
		c1.9,0,3.4,0.5,4.5,1.5c1.2,1,1.7,2.6,1.7,4.9v11.4h-4.8V296c0-2.5-0.9-3.8-2.8-3.8c-1.4,0-2.4,0.5-3,1.5s-0.8,2.4-0.8,4.3v8.2
		h-4.8v-24.3H1050.2z"/>
</g>
<polyline class="st4" points="1061.8,315.4 1008.2,315.4 984.8,338.8 "/>
<g class="st1">
	<path class="st2" d="M289.3,288.5c0,1.6-0.5,2.8-1.4,3.8c-0.9,0.9-2.1,1.6-3.5,1.9v0.1c1.8,0.2,3.2,0.8,4.2,1.7
		c1,0.9,1.4,2.1,1.4,3.6c0,1.3-0.3,2.5-1,3.6s-1.7,1.9-3,2.5c-1.4,0.6-3.1,0.9-5.2,0.9c-2.5,0-4.7-0.4-6.6-1.2v-4.1
		c1,0.5,2,0.9,3.1,1.1c1.1,0.3,2.1,0.4,3,0.4c1.7,0,2.9-0.3,3.6-0.9c0.7-0.6,1-1.4,1-2.5c0-0.6-0.2-1.2-0.5-1.6
		c-0.3-0.4-0.9-0.8-1.7-1c-0.8-0.2-1.9-0.3-3.3-0.3h-1.7v-3.7h1.8c1.4,0,2.5-0.1,3.2-0.4c0.7-0.3,1.2-0.6,1.5-1.1s0.4-1,0.4-1.6
		c0-0.8-0.3-1.4-0.8-1.9c-0.5-0.5-1.3-0.7-2.5-0.7c-1.1,0-2,0.2-2.8,0.6c-0.8,0.4-1.5,0.7-2,1.1l-2.2-3.3c0.9-0.6,1.9-1.2,3.2-1.6
		c1.2-0.4,2.6-0.6,4.3-0.6c2.3,0,4.2,0.5,5.6,1.4S289.3,286.8,289.3,288.5z"/>
	<path class="st2" d="M298.5,281.9v5c0,0.9,0,1.7-0.1,2.5c-0.1,0.8-0.1,1.3-0.1,1.6h0.3c0.6-0.9,1.3-1.5,2.1-2
		c0.9-0.4,1.8-0.6,2.9-0.6c1.9,0,3.4,0.5,4.5,1.5c1.2,1,1.7,2.6,1.7,4.9v11.4h-4.8V296c0-2.5-0.9-3.8-2.8-3.8c-1.4,0-2.4,0.5-3,1.5
		s-0.8,2.4-0.8,4.3v8.2h-4.8v-24.3H298.5z"/>
</g>
<polyline class="st4" points="313,315.4 269.4,315.4 246,338.8 "/>
<g class="st1">
	<path class="st2" d="M519.4,507.7h-16v-3.4l5.7-5.8c1.2-1.2,2.1-2.2,2.8-3c0.7-0.8,1.2-1.5,1.5-2.2c0.3-0.7,0.5-1.3,0.5-2.1
		c0-0.9-0.3-1.6-0.8-2c-0.5-0.4-1.2-0.7-2-0.7c-0.9,0-1.7,0.2-2.6,0.6c-0.8,0.4-1.7,1-2.6,1.7l-2.6-3.1c0.6-0.6,1.3-1.1,2.1-1.6
		c0.7-0.5,1.6-0.9,2.6-1.2c1-0.3,2.1-0.5,3.5-0.5c1.5,0,2.8,0.3,3.9,0.8c1.1,0.5,1.9,1.3,2.5,2.2c0.6,0.9,0.9,2,0.9,3.2
		c0,1.3-0.3,2.4-0.8,3.5c-0.5,1-1.2,2.1-2.2,3.1c-0.9,1-2.1,2.2-3.4,3.4l-2.9,2.8v0.2h10V507.7z"/>
	<path class="st2" d="M538.2,503h-2.8v4.7h-4.7V503H521v-3.4l10-14.8h4.4v14.4h2.8V503z M530.7,499.2v-3.9c0-0.5,0-1.1,0-1.8
		c0-0.7,0-1.4,0.1-2c0-0.6,0.1-1,0.1-1.2h-0.1c-0.2,0.4-0.4,0.8-0.6,1.2c-0.2,0.4-0.5,0.8-0.8,1.2l-4.2,6.3H530.7z"/>
	<path class="st2" d="M546,483.4v5c0,0.9,0,1.7-0.1,2.5c-0.1,0.8-0.1,1.3-0.1,1.6h0.3c0.6-0.9,1.3-1.5,2.1-2
		c0.9-0.4,1.8-0.6,2.9-0.6c1.9,0,3.4,0.5,4.5,1.5c1.2,1,1.7,2.6,1.7,4.9v11.4h-4.8v-10.2c0-2.5-0.9-3.8-2.8-3.8
		c-1.4,0-2.4,0.5-3,1.5s-0.8,2.4-0.8,4.3v8.2h-4.8v-24.3H546z"/>
</g>
<polyline class="st4" points="505.7,519.4 559.3,519.4 582.7,496 "/>
</svg>
