<?xml version="1.0" encoding="UTF-8"?><svg id="Layer_4_copy" xmlns="http://www.w3.org/2000/svg" viewBox="0 0 37.56 37.53"><defs><style>.cls-1{fill:#fff;stroke-width:0px;}</style></defs><path class="cls-1" d="m27.89,37.53c-1.6-.15-3.15-.56-4.65-1.11-3.95-1.46-7.41-3.73-10.59-6.43-3.19-2.7-5.94-5.79-8.24-9.28-1.8-2.74-3.24-5.64-4.02-8.84-.15-.61-.25-1.22-.35-1.84-.1-.59.04-1.12.34-1.64,1.13-1.95,2.52-3.7,4.01-5.37.84-.93,1.71-1.82,2.76-2.53,1.15-.78,2.44-.61,3.27.52,1.84,2.51,3.56,5.11,4.82,7.97.03.06.05.12.07.18.61,1.54.41,2.37-.84,3.46-.58.5-1.15,1.02-1.75,1.5-.27.22-.31.41-.19.73,1.64,4.29,4.51,7.47,8.63,9.51.54.27,1.09.49,1.65.7.23.09.38.05.54-.14.53-.63,1.07-1.24,1.61-1.86.14-.16.29-.3.44-.44.71-.67,1.52-.89,2.48-.57,1.15.39,2.22.95,3.27,1.55,1.76,1.01,3.46,2.13,5.11,3.31.3.21.57.46.78.76.64.9.68,1.68.09,2.61-.7,1.09-1.63,2-2.58,2.86-1.68,1.51-3.43,2.92-5.4,4.03-.39.22-.78.42-1.25.37Z"/></svg>