<?xml version="1.0" encoding="UTF-8"?><svg id="Layer_1" xmlns="http://www.w3.org/2000/svg" xmlns:xlink="http://www.w3.org/1999/xlink" viewBox="0 0 153.39 104.65"><defs><style>.cls-1{fill:#fce8d2;}.cls-1,.cls-2{stroke-width:0px;}.cls-2{fill:none;}.cls-3{clip-path:url(#clippath);}</style><clipPath id="clippath"><rect class="cls-2" width="153.39" height="104.65"/></clipPath></defs><g class="cls-3"><path class="cls-1" d="m-.24,1.01C.89-3.34,3.14-6.87,7.19-9.05c2.1-1.13,4.33-1.75,6.74-1.75,14.55.02,29.09-.01,43.64.02,7.93.02,14.28,6.38,14.29,14.33.03,16.05,0,32.09,0,48.14,0,7.26-2.25,13.91-5.14,20.46-3.85,8.73-7.45,17.57-11.14,26.37-1.6,3.81-4.97,6.1-9.13,6.11-5,.02-10,.01-15,0-3.87,0-6.01-2.57-5.27-6.38,1.6-8.29,3.23-16.57,4.84-24.85.68-3.48,1.28-6.97,2.05-10.44.28-1.29-.09-1.57-1.29-1.56-5.65.04-11.3.02-16.95.02-7.51,0-12.66-3.86-14.83-11.1-.07-.24-.16-.47-.24-.71,0-16.2,0-32.41,0-48.61Z"/><path class="cls-1" d="m153.39,55.32c-.33,1.87-.64,3.73-.99,5.6-.88,4.73-3.2,8.92-4.99,13.3-3.34,8.14-6.81,16.22-10.21,24.33-1.57,3.74-4.96,6.07-9,6.09-5.05.02-10.1.02-15.15,0-3.86,0-5.98-2.59-5.24-6.4,2.21-11.42,4.45-22.84,6.68-34.26.5-2.55.52-2.54-2.02-2.54-5.65,0-11.3.02-16.95,0-7.84-.05-14.23-6.4-14.25-14.23-.03-14.6-.03-29.19,0-43.79.02-7.74,6.42-14.16,14.14-14.18,14.4-.04,28.79-.02,43.19-.01,7.12,0,12.38,3.96,14.45,10.81.1.33.22.66.33,1v54.31Z"/></g></svg>