<?xml version="1.0" encoding="UTF-8"?>
<svg id="Layer_4_copy" data-name="Layer 4 copy" xmlns="http://www.w3.org/2000/svg" viewBox="0 0 812.72 253.09">
  <defs>
    <style>
      .cls-1 {
        fill: #79cbba;
      }

      .cls-2 {
        fill: #638baf;
      }

      .cls-3 {
        stroke-width: .96px;
      }

      .cls-3, .cls-4 {
        fill: #fff;
        stroke: #fff;
        stroke-linecap: round;
        stroke-miterlimit: 10;
      }

      .cls-4 {
        stroke-width: .94px;
      }
    </style>
  </defs>
  <path class="cls-1" d="M641.42,30.28c-3.98.36-7.93,1.11-11.81,2.21-23.51,6.66-54.95,11.77-91.73,11.8-97.26.07-208.09,7.4-279.69-28.07C223.03-1.21,104.22-4.33,72.8,5.61,25.81,20.47,0,60.59,0,91.8c0,62.43,55.28,92.06,106.28,96.59,83.08,7.4,208.02,24.34,297.6-2.97,89.57-27.31,125.82-52.37,191.59-40.12,31.93,5.94,116.23-19.32,136.66-37.15,41.82-36.48,38.32-60.93,7.66-75.79-26.35-12.78-73.52-4.29-98.36-2.08h-.01Z"/>
  <path class="cls-3" d="M81.14,80.23l.26.18c2.15,1.48,4.47,2.87,7,4.19,2.89,1.49,5.38,2.59,7.47,3.3.8.27,1.21.55,1.23.87.01.27-.22.5-.68.69-1.32.55-2.38.84-3.15.88-.64.04-1.55-.29-2.71-.97-4.2-2.44-8.35-5.36-12.48-8.8l-2.94.29c-2.39,3.54-5.94,6.76-10.65,9.67-2.55,1.6-4.14,2.4-4.74,2.44-.7.04-1.07-.31-1.11-1.02-.01-.37.14-.68.47-.95.14-.1.5-.32,1.1-.65,4.15-2.31,7.71-5.33,10.72-9.06l-9.34.97c-.31.03-.59-.04-.86-.19-.43-.24-.66-.59-.69-1.02-.03-.47.15-.86.55-1.15.18-.13.37-.19.6-.22l11.66-1.24c.66-1.16,1.19-2.3,1.57-3.41-4.75.72-7.56,1.09-8.43,1.14-.78.04-1.34-.23-1.66-.79-.28-.49-.43-.95-.45-1.37-.03-.4.1-.75.38-1.07.09-.13.41-.41.95-.84,2.59-2.15,5.01-4.5,7.22-7.06.57-.66,1.11-1.01,1.61-1.03.33-.01.66.09.98.33.4.27.6.63.63,1.06.03.54-.28,1.12-.95,1.78-2.34,2.32-4.66,4.34-6.97,6.07,6.87-.7,12.44-1.51,16.72-2.4-1.07-.89-1.99-1.62-2.76-2.15-.43-.31-.66-.66-.69-1.09-.01-.28.06-.54.26-.77.23-.29.5-.45.84-.46.31-.01.79.18,1.44.57,4.82,2.99,7.25,5.12,7.32,6.4.01.37-.09.69-.33.97-.34.41-.74.63-1.21.65-.49.03-1.07-.33-1.74-1.09-.29-.34-.65-.73-1.05-1.12-2.75.65-5.61,1.21-8.58,1.71-.14.03-.28.04-.42.06.13.24.19.47.2.69.03.49-.29,1.44-.97,2.85l14.83-1.57h.09c.34-.05.66.05.96.31.27.24.41.54.42.91.03.59-.19,1.02-.66,1.3-.14.09-.29.14-.46.15l-10.83,1.12.04-.06ZM86.51,91.51c.43-.03.82.15,1.14.51.27.29.41.63.43.98.03.47-.23.95-.75,1.4-2.22,1.99-5.3,3.83-9.23,5.5-3.23,1.39-6.48,2.4-9.76,3.03-.24.04-.41.06-.52.06-.77.04-1.18-.33-1.21-1.11-.03-.38.13-.66.46-.87.14-.09.77-.28,1.89-.56,2.82-.74,5.94-2.01,9.34-3.81,2.43-1.29,4.71-2.8,6.86-4.52.49-.41.93-.61,1.35-.64h.01ZM78.44,83.23c.42-.03.79.14,1.1.49.27.31.41.63.43.97.03.4-.18.82-.61,1.28s-1.21,1.09-2.35,1.86c-2.61,1.83-5.48,3.33-8.65,4.51-.37.13-.65.2-.86.22-.45.03-.78-.18-.98-.6-.11-.22-.17-.41-.18-.57-.01-.29.11-.55.41-.75.14-.1.57-.31,1.32-.61,2.07-.82,4.38-2.25,6.94-4.28.77-.61,1.46-1.21,2.08-1.79.47-.45.92-.68,1.35-.7h0ZM81.96,87.34c.33-.01.66.13,1,.43.29.28.45.61.47,1.01.03.52-.28,1.06-.93,1.62-1.38,1.18-3.3,2.43-5.75,3.73-2.63,1.4-5.16,2.45-7.59,3.17-.28.09-.5.13-.66.14-.79.04-1.21-.34-1.26-1.18-.03-.38.08-.65.27-.8.2-.15.82-.41,1.84-.75,3.59-1.25,7.24-3.42,10.98-6.5.68-.55,1.21-.84,1.62-.87h.01Z"/>
  <path class="cls-3" d="M112.77,76.02c-.93,3.74-1.85,6.71-2.75,8.89-2.09,5.06-4.71,9.13-7.87,12.22-.5.49-.95.72-1.34.7-.24,0-.46-.11-.66-.32-.31-.29-.46-.63-.43-.98.01-.29.37-.83,1.09-1.61,2.49-2.69,4.71-6.59,6.65-11.69.7-1.84,1.39-4.14,2.09-6.9l-6.17.55h-.26c-.89-.04-1.33-.52-1.28-1.47.04-.86.51-1.32,1.4-1.39l6.95-.56c.57-2.71.97-5.05,1.21-7,.13-1.05.7-1.55,1.71-1.51,1.01.04,1.51.55,1.47,1.49-.01.33-.08.77-.18,1.3-.13.65-.41,2.18-.83,4.57-.05.34-.11.64-.17.88l3.72-.29c.22-.03.41-.03.61-.01,2.02.09,2.98,1.19,2.89,3.31-.08,1.76-.37,4.37-.89,7.82-.95,6.36-2.12,11.04-3.54,14.05-.65,1.39-1.61,2.06-2.89,1.99-1.03-.05-2.39-.47-4.05-1.29-1.52-.75-2.27-1.46-2.25-2.09.03-.72.41-1.06,1.12-1.02.24,0,.56.11.96.32,1.15.57,2.16.87,3.03.91.57.03.98-.14,1.24-.5.41-.56.89-1.9,1.48-4.04.73-2.64,1.3-5.29,1.7-7.92.61-4.15.95-6.64.98-7.47s-.32-1.21-1.09-1.25h-.19s-3.49.31-3.49.31ZM136.82,92.29c.97.08,1.43.56,1.39,1.49-.04.93-.51,1.34-1.4,1.37l-10.42.23v.06c-.05,1.1-.6,1.61-1.65,1.57-.88-.04-1.33-.57-1.34-1.6l-.13-19.45c.04-1.1.56-1.62,1.58-1.57.75.04,1.24.38,1.44,1.05l9.06-.68c.23-.01.51-.03.84,0,1.65.08,2.44,1,2.36,2.77,0,.2-.03.37-.04.46l-1.69,14.28h-.01ZM133.96,92.35l1.33-13.47c.01-.38,0-.65-.05-.8-.1-.36-.37-.54-.84-.56h-.4l-7.65.61v14.42l7.6-.19h.01Z"/>
  <path class="cls-3" d="M150.41,82.48c-1.43,3.1-3.12,6.16-5.07,9.18-.34.54-.73.8-1.14.8-.24,0-.45-.09-.63-.26-.26-.2-.38-.46-.38-.74s.29-.91.88-1.88c2.15-3.51,4.07-7.64,5.8-12.34l-4.29.52c-.11.01-.23.03-.33.03-.89,0-1.34-.42-1.34-1.26s.45-1.28,1.33-1.39l5.17-.65v-8.35c0-.88.47-1.33,1.4-1.33.46,0,.84.17,1.14.49.19.23.29.51.29.84v8l3.19-.4s.15-.03.27-.03c.87,0,1.3.46,1.3,1.37,0,.77-.43,1.21-1.28,1.33l-3.49.42v2.67c2.16,1.48,3.72,2.64,4.69,3.49.54.46.8.93.8,1.43,0,.32-.11.6-.36.84-.29.31-.61.46-.97.46-.46,0-1.01-.34-1.63-1.05-.52-.6-1.35-1.47-2.53-2.61v18.44c0,.32-.1.6-.29.84-.28.31-.66.46-1.14.46-.93,0-1.4-.43-1.4-1.3v-18.03h0ZM170.95,89.92v10.79c0,.33-.1.63-.29.88-.28.38-.69.56-1.21.56-.63,0-1.09-.24-1.34-.72-.13-.2-.19-.46-.19-.74v-10.61l-8.79.45c-1.12.05-1.69-.38-1.69-1.33s.49-1.42,1.47-1.47l9-.49v-4.5c0-.46.15-.83.46-1.11.31-.27.66-.4,1.07-.4.34,0,.66.1.95.32.38.28.56.68.56,1.2v4.33l9.9-.55h.1c1.05.03,1.57.49,1.57,1.37,0,.96-.51,1.46-1.52,1.52l-10.08.51.03-.03ZM169.31,69.46l3.12-.29c.24-.01.41-.03.52-.03,1.71,0,2.57.74,2.57,2.21,0,.28-.05.69-.15,1.24-.38,2.13-.56,3.9-.56,5.3,0,.73.14,1.2.42,1.4.18.13.6.19,1.24.19.96,0,1.58-.06,1.89-.19.34-.13.56-.45.63-.95.08-.43.1-1.39.1-2.89,0-.84.29-1.26.88-1.26s.97.33,1.1,1.01c.38,2.03.56,3.51.56,4.43,0,1.05-.49,1.74-1.46,2.06-.91.31-2.2.46-3.87.46-1.44,0-2.48-.11-3.12-.36-.96-.34-1.43-1.21-1.43-2.58,0-1.69.18-3.63.55-5.85.08-.4.1-.68.1-.86,0-.46-.29-.69-.88-.69h-.32l-2.44.23c-.86,3.5-2.4,6.42-4.65,8.76-.83.86-1.71,1.6-2.67,2.21-.45.28-.83.42-1.16.42-.27,0-.5-.11-.69-.33-.17-.19-.26-.4-.26-.59,0-.31.33-.77,1.01-1.37,2.5-2.27,4.25-5.21,5.24-8.81l-4.29.38c-.09.01-.15.03-.19.03-.86,0-1.28-.43-1.28-1.3,0-.77.47-1.2,1.4-1.28l4.9-.45c.2-1.24.4-2.67.55-4.3.11-1.15.64-1.72,1.57-1.72h.09c.29,0,.57.09.84.27.37.26.55.64.55,1.16,0,.8-.15,2.25-.45,4.33h.03Z"/>
  <path class="cls-3" d="M193.53,92.43c.91-2.11,1.58-3.56,2.02-4.37.24-.46.52-.69.86-.69.18,0,.34.04.49.13.33.19.51.46.51.78,0,.15-.08.43-.23.82-1.09,2.77-1.75,5.05-2.02,6.81-.09.63-.28,1.14-.61,1.53-.32.38-.68.56-1.07.56-.8,0-1.46-.57-1.98-1.72-.91-2.06-1.37-5.13-1.37-9.21,0-3.46.38-8.67,1.16-15.65.11-1.05.22-1.72.32-2.02.26-.7.75-1.05,1.52-1.05.54,0,.96.19,1.26.59.23.28.33.64.33,1.07,0,.2-.05.68-.17,1.39-.43,2.71-.83,6.35-1.2,10.91-.14,1.88-.2,3.42-.2,4.65,0,1.42.13,3.24.4,5.47h-.01ZM204.55,88.72c.41,0,.78.22,1.11.65,1.6,2.06,5.24,3.09,10.91,3.09.59,0,1.11-.03,1.56-.06.23-.01.38-.03.49-.03.64,0,1.11.2,1.44.63.23.28.33.61.33.98,0,.6-.24,1.09-.73,1.46-.33.24-.97.36-1.93.36-2.96,0-5.67-.32-8.14-.95-2.38-.59-4.15-1.61-5.36-3.07-.6-.73-.91-1.34-.91-1.85,0-.33.11-.61.32-.84.24-.26.54-.38.91-.38h0ZM216.3,74.67c-2.59,0-6.02.64-10.24,1.92-.41.13-.72.19-.92.19-.65,0-1.07-.27-1.3-.82-.09-.2-.13-.4-.13-.56,0-.49.42-.91,1.26-1.26,2.38-.98,4.83-1.71,7.4-2.18,1.4-.26,2.63-.38,3.7-.38,2.08,0,3.13.56,3.13,1.69,0,.97-.61,1.46-1.85,1.46l-1.05-.03h0Z"/>
  <path class="cls-3" d="M232.73,93.08l.15-.33c1-2.26,1.63-3.64,1.92-4.16.2-.4.49-.59.82-.59.18,0,.34.04.49.13.33.19.51.46.51.78,0,.15-.08.43-.23.82-1.07,2.78-1.75,5.06-2.02,6.81-.09.63-.28,1.14-.61,1.53-.32.38-.68.56-1.07.56-.78,0-1.43-.55-1.93-1.63-.91-1.98-1.37-5.05-1.37-9.18,0-3.37.31-8.3.91-14.76.19-2.12.34-3.36.43-3.74.23-.91.75-1.37,1.6-1.37.54,0,.96.19,1.26.59.23.28.33.63.33,1.05,0,.19-.05.66-.17,1.4-.45,3.12-.84,7.08-1.2,11.9-.14,1.98-.22,3.56-.22,4.75,0,1.42.13,3.23.4,5.44h0ZM250.89,74.25v-6.25c0-.93.51-1.4,1.53-1.4s1.52.47,1.52,1.4v5.95l.38-.04,2.87-.27c1.03-.09,1.61-.13,1.7-.13.97,0,1.46.49,1.46,1.47,0,.74-.36,1.2-1.05,1.39-.13.04-1.35.17-3.68.38-.1,0-.66.05-1.69.17,0,4.69.08,9.3.22,13.83,2.64,1.21,4.62,2.29,5.93,3.19.73.52,1.1,1.06,1.1,1.63,0,.49-.18.89-.55,1.21-.24.2-.52.32-.84.32-.41,0-.89-.2-1.46-.61-1.16-.88-2.55-1.76-4.18-2.63-.42,2.76-2.48,4.14-6.18,4.14-2.66,0-4.82-.69-6.48-2.08-1.23-1.02-1.85-2.16-1.85-3.41s.57-2.35,1.72-3.13c1-.69,2.29-1.03,3.88-1.03s3.51.37,5.85,1.11c-.14-4.93-.2-9.03-.2-12.27-2.21.23-4.99.52-8.34.88-.26.03-.45.04-.57.04-1,0-1.49-.51-1.49-1.52,0-.69.37-1.12,1.1-1.33.13-.03,1.74-.22,4.84-.56l3.87-.42.61-.06-.03.03ZM251.14,92.43c-2.49-.97-4.43-1.46-5.8-1.46-1.67,0-2.5.51-2.5,1.52,0,.64.37,1.21,1.11,1.72.96.66,2.3.98,4.04.98,1.46,0,2.39-.28,2.77-.84.26-.37.38-.95.38-1.75v-.19h0Z"/>
  <path class="cls-3" d="M271.2,69.5v30.3c0,.32-.11.6-.33.82-.31.31-.7.46-1.18.46-.59,0-1.03-.2-1.34-.63-.13-.18-.19-.4-.19-.65v-30.03c-.69-.15-1.03-.6-1.03-1.33,0-.77.46-1.2,1.37-1.3l8.83-.91c.17-.01.34-.03.52-.03,1.46,0,2.18.59,2.18,1.75,0,.57-.4,1.57-1.18,2.99-1.25,2.21-2.34,3.92-3.26,5.13,1.47,1.3,2.58,2.81,3.35,4.52.61,1.38.92,2.68.92,3.93,0,.84-.19,1.55-.56,2.11-.55.82-1.34,1.21-2.4,1.21-1.25,0-2.62-.46-4.13-1.37-.56-.34-.84-.7-.84-1.05,0-.63.34-.95,1.03-.95.24,0,.55.06.95.19.51.17,1.05.26,1.57.26.82,0,1.21-.51,1.21-1.52,0-.89-.26-1.86-.78-2.9-.65-1.32-1.63-2.53-2.96-3.64-.24-.19-.36-.43-.36-.72,0-.59.31-.97.91-1.14.77-1.19,1.53-2.67,2.29-4.43.22-.52.32-.86.32-1.01,0-.37-.24-.55-.72-.55h-.2l-4,.46h.01ZM285.62,83.07v15.35c1.46-.47,3.28-1.37,5.49-2.67.52-.31.96-.46,1.3-.46.29,0,.55.11.75.36.22.24.33.5.33.78,0,.38-.19.73-.57,1.05-1.43,1.21-3.47,2.5-6.14,3.87-1.11.56-1.84.84-2.18.84-.42,0-.88-.26-1.37-.75-.42-.43-.64-1.1-.64-1.98v-29.68c-.96,0-1.43-.45-1.43-1.33,0-.78.47-1.23,1.43-1.33l13.86-1.4c.23-.03.4-.04.52-.04,1.7,0,2.54.89,2.54,2.67,0,.15,0,.28-.03.38l-1.11,13.56c-.06.87-.55,1.3-1.44,1.3-.95,0-1.42-.47-1.43-1.43l-9.9.92h.01ZM285.62,73.63l10.64-.97.26-3.38c-.01-.68-.28-.97-.82-.88l-.09.03-9.99,1.03v4.19h0ZM285.62,80.52l10.09-.98.33-4.37-10.44,1.01v4.36h.01ZM295.34,91.04c2.89,2.86,5.85,5.1,8.89,6.73.95.51,1.4.93,1.4,1.3,0,.28-.28.52-.86.72-1.15.4-2.11.59-2.86.59-.55,0-1.02-.17-1.43-.51-3.59-2.91-7.2-6.74-10.83-11.48-1.57-2.04-2.35-3.28-2.35-3.7,0-.33.17-.63.49-.86.27-.18.54-.27.79-.27.33,0,.65.17.95.51.09.09.46.6,1.14,1.56.8,1.15,1.81,2.4,3.05,3.74.05-.05.13-.11.22-.19,1.52-1.18,3.17-2.8,4.92-4.85.56-.66,1.09-.98,1.58-.98.45,0,.84.18,1.18.52.33.37.51.77.51,1.2,0,.41-.28.88-.86,1.4-1.83,1.67-3.79,3.19-5.91,4.59h-.01Z"/>
  <path class="cls-3" d="M316.09,82.27c1.12-2.43,1.99-3.64,2.61-3.64.15,0,.31.04.46.13.31.19.46.47.46.84,0,.2-.28.96-.86,2.25-.7,1.58-1.16,2.66-1.37,3.22-.4,1.02-.92,1.53-1.6,1.53s-1.25-.4-1.69-1.18c-.84-1.52-1.26-3.77-1.26-6.74,0-3.41.29-6.94.88-10.6.18-1.21.74-1.83,1.69-1.83s1.47.49,1.47,1.47c0,.14-.04.51-.13,1.1-.6,4.13-.91,7.52-.91,10.22,0,1.09.08,2.16.23,3.24h.01ZM329.25,65.78c.89,0,1.48.43,1.76,1.3.57,1.76.86,4.55.86,8.35,0,8.94-1.19,15.42-3.55,19.43-1.14,1.93-2.62,3.56-4.46,4.88-.57.41-1.09.61-1.52.61-.32,0-.59-.11-.8-.36-.14-.15-.2-.33-.2-.55,0-.43.26-.89.75-1.37,1.99-1.86,3.45-3.98,4.37-6.37,1.42-3.7,2.12-9.16,2.12-16.36,0-2.44-.2-4.89-.63-7.34-.05-.29-.09-.54-.09-.74,0-1,.46-1.49,1.37-1.49h.03Z"/>
  <path class="cls-3" d="M350.95,76.51c1.19-3.22,2.11-5.91,2.76-8.05.31-1.03.88-1.56,1.72-1.56.19,0,.38.03.55.09.65.19.97.64.97,1.34,0,.42-.89,3.05-2.67,7.91.51-.03,1.02-.04,1.53-.04,4.27,0,6.39,1.83,6.39,5.47s-.69,7.34-2.08,11.16c-.75,2.06-1.71,3.86-2.86,5.4-.73.97-1.62,1.46-2.67,1.46s-2.27-.92-3.77-2.76c-.83-1.01-1.24-1.7-1.24-2.06,0-.23.11-.43.33-.63s.45-.29.68-.29.59.19,1.03.59c1.4,1.19,2.26,1.79,2.58,1.79.52,0,1.2-.84,2.04-2.54.74-1.48,1.34-3.1,1.79-4.84.65-2.44.97-4.71.97-6.81,0-1.05-.24-1.81-.72-2.27-.51-.49-1.37-.74-2.57-.74-.63,0-1.52.05-2.64.15-1.86,4.65-4.05,9.35-6.54,14.09-.28.55-.43.84-.49.91-.32.51-.8.75-1.43.75-.33,0-.64-.09-.91-.27-.42-.29-.64-.69-.64-1.18,0-.38.26-1.01.78-1.89,1.93-3.31,3.9-7.34,5.89-12.11-1.66.18-3.3.38-4.92.61-.28.04-.49.06-.63.06-1.03,0-1.56-.46-1.56-1.39s.5-1.47,1.49-1.63c1.26-.2,3.54-.45,6.81-.69v-.04ZM368.74,74.28c.41,0,.89.27,1.47.8,2.32,2.16,4.42,4.76,6.26,7.82.36.57.52,1.12.52,1.63,0,.64-.26,1.12-.78,1.43-.32.19-.64.29-.97.29-.51,0-.91-.2-1.23-.61-.14-.17-.34-.52-.63-1.05-1.56-3-3.41-5.7-5.57-8.07-.26-.28-.38-.6-.38-.97s.13-.68.38-.91c.26-.26.55-.38.91-.38h.01ZM372.09,69.65c.36,0,.74.15,1.16.46,1.74,1.19,3.05,2.5,3.95,3.93.26.4.37.75.37,1.07,0,.38-.14.69-.43.95-.26.2-.55.32-.91.32-.4,0-.78-.31-1.15-.91-.96-1.48-2.01-2.81-3.17-3.97-.41-.4-.61-.74-.61-1.05,0-.54.27-.8.8-.8h-.01ZM375.78,67.02c.69,0,1.83.7,3.42,2.12,1.33,1.19,1.99,2.15,1.99,2.89,0,.45-.15.79-.46,1.03-.27.19-.54.29-.82.29-.4,0-.78-.27-1.15-.82-.97-1.39-2.03-2.63-3.17-3.74-.41-.4-.61-.73-.61-.98,0-.52.27-.78.8-.78h-.01Z"/>
  <path class="cls-3" d="M389.09,88.52c.51,0,1.02.41,1.53,1.24,1.11,1.81,2.86,3.04,5.26,3.7,1.66.45,3.73.68,6.22.68,2.07,0,4.19-.17,6.35-.51.27-.04.46-.06.59-.06.69,0,1.18.26,1.46.78.11.19.17.43.17.69,0,.96-.51,1.53-1.52,1.75-1.62.34-3.95.52-6.96.52-5.36,0-9.26-1.02-11.67-3.07-1.15-.98-1.98-2.09-2.5-3.35-.18-.43-.27-.78-.27-1.03,0-.54.22-.92.65-1.16.23-.13.46-.19.69-.19h.01ZM395.36,69.69c3.9,0,7.4.54,10.51,1.62,1.85.63,2.77,1.52,2.77,2.67,0,.74-.51,1.34-1.53,1.79-.98.43-2.38,1.14-4.18,2.12-.75.41-1.32.61-1.66.61-.61,0-.92-.31-.92-.91,0-.4.24-.75.72-1.07,1.47-1.01,2.48-1.67,3-1.98.29-.17.45-.32.45-.45s-.2-.26-.61-.38c-.68-.2-1.65-.43-2.94-.68-1.99-.34-3.82-.52-5.49-.52-1.33,0-2.77.11-4.3.33-.45.05-.74.09-.88.09-.32,0-.61-.08-.88-.2-.46-.24-.69-.63-.69-1.16,0-.75.45-1.25,1.33-1.49,1.02-.27,2.81-.4,5.34-.4h-.03ZM410.85,69c.33,0,.73.15,1.16.46,1.74,1.19,3.05,2.5,3.95,3.93.26.4.37.75.37,1.07,0,.38-.14.69-.43.95-.26.2-.55.32-.91.32-.4,0-.78-.31-1.15-.91-.92-1.43-1.98-2.76-3.17-3.97-.41-.41-.61-.75-.61-1.05,0-.54.27-.8.8-.8h-.01ZM414.55,66.4c.69,0,1.83.7,3.42,2.11,1.33,1.19,1.99,2.15,1.99,2.89,0,.45-.15.79-.46,1.03-.27.19-.54.29-.82.29-.4,0-.78-.27-1.15-.82-1-1.43-2.06-2.67-3.17-3.72-.41-.4-.61-.73-.61-.98,0-.52.27-.78.8-.78v-.03Z"/>
  <path class="cls-3" d="M437.62,74.34c-1.1-1.75-2.22-3.82-3.41-6.21-.2-.43-.32-.79-.32-1.07,0-.56.24-.97.74-1.21.29-.14.6-.2.91-.2.69,0,1.25.47,1.7,1.43,1.05,2.26,2.24,4.44,3.55,6.58,3.53-.82,6.04-1.49,7.57-2.06.43-.15.78-.23,1.03-.23.55,0,.96.24,1.21.72.14.24.2.52.2.84,0,.69-.45,1.18-1.34,1.47-1.92.64-4.29,1.32-7.13,1.99,1.78,2.89,3.5,5.21,5.15,6.99.65.69.97,1.38.97,2.08,0,.32-.14.64-.45.95-.41.41-.93.61-1.57.61-.15,0-.43-.04-.82-.13-2.44-.52-4.07-.83-4.9-.95-.78-.1-1.18-.41-1.18-.95,0-.63.47-.95,1.43-.95.68,0,1.8.05,3.38.17-1.6-1.9-3.3-4.29-5.1-7.15-4.21.96-8.17,1.69-11.88,2.21-1.52.2-2.43.32-2.73.32-1.11,0-1.66-.55-1.66-1.63,0-.66.36-1.1,1.07-1.3.17-.05.57-.11,1.21-.19,3.04-.32,7.15-1.02,12.33-2.11h.01ZM442.86,96.53h.36c.31,0,.59.06.82.19.57.31.86.79.86,1.46,0,1.06-.68,1.6-2.02,1.6-4.25,0-7.64-.91-10.15-2.71-1.02-.74-1.83-1.58-2.41-2.53-.82-1.33-1.21-2.66-1.21-4,0-1.05.4-1.57,1.18-1.57s1.21.47,1.4,1.43c.41,1.89,1.38,3.31,2.94,4.25,2.08,1.26,4.83,1.89,8.24,1.89h.01ZM450.47,67.48c.33,0,.73.15,1.16.45,1.72,1.2,3.04,2.53,3.95,3.95.26.4.38.74.38,1.05,0,.4-.14.72-.45.97-.26.2-.55.32-.91.32-.4,0-.78-.31-1.15-.91-.95-1.46-1.99-2.78-3.18-3.97-.41-.41-.61-.75-.61-1.05,0-.54.27-.8.79-.8h.01ZM454.16,64.88c.69,0,1.83.7,3.42,2.12,1.33,1.18,1.99,2.13,1.99,2.86,0,.45-.15.79-.46,1.03-.27.19-.54.29-.82.29-.4,0-.78-.27-1.15-.82-1.02-1.47-2.08-2.71-3.18-3.72-.41-.38-.61-.7-.61-.98,0-.52.27-.78.79-.78h.01Z"/>
  <path class="cls-3" d="M465.84,71.93c1.05,0,1.58.69,1.58,2.06,0,3.92.41,7.59,1.21,11,.77,3.24,1.85,5.73,3.24,7.48.31.4.59.59.82.59.26,0,.51-.27.75-.82,1.34-2.85,2.35-4.27,3.03-4.27.19,0,.4.05.61.15.36.19.55.51.55.95,0,.19-.09.51-.27.92-.6,1.38-1.3,3.21-2.11,5.5-.45,1.26-1.16,1.89-2.12,1.89s-2.08-.72-3.31-2.15c-1.37-1.61-2.54-3.73-3.49-6.37-.84-2.34-1.42-4.93-1.72-7.75-.36-3.27-.52-5.58-.52-6.94,0-1.49.59-2.25,1.75-2.25h-.01ZM487.85,72.17c.37,0,.75.2,1.11.61,1.56,1.8,3.26,4.27,5.08,7.4,1.58,2.71,2.38,4.48,2.38,5.34,0,.6-.27,1.07-.8,1.4-.33.23-.69.33-1.05.33-.59,0-1.06-.26-1.39-.78-.06-.1-.24-.49-.52-1.16-1.71-4.25-3.63-7.78-5.73-10.58-.36-.45-.52-.86-.52-1.24,0-.32.11-.6.36-.82.33-.34.7-.52,1.1-.52h0Z"/>
  <path class="cls-3" d="M517.67,71.29v-4.61c0-1.01.5-1.52,1.49-1.52s1.52.51,1.52,1.52v4.43c2.2-.1,3.92-.15,5.15-.15,1.53,0,2.29.49,2.29,1.47s-.65,1.52-1.95,1.52c-1.6,0-3.42.04-5.49.13v6.5c1.71-.17,3.04-.37,4-.59.33-.09.61-.13.84-.13.97,0,1.46.52,1.46,1.57,0,.75-.46,1.23-1.37,1.4-1.32.27-2.95.51-4.92.72v8.26c2.59,1.01,5.07,2.2,7.45,3.58.8.45,1.2,1.01,1.2,1.69,0,.24-.05.47-.17.69-.26.57-.7.86-1.34.86-.27,0-.66-.17-1.2-.51-1.86-1.18-3.98-2.32-6.35-3.42-.61,1.81-1.74,3.04-3.35,3.7-1.24.49-2.81.74-4.73.74-2.32,0-4.25-.61-5.79-1.83-1.25-1.01-1.86-2.13-1.86-3.36,0-.7.34-1.38,1.03-2.04,1.47-1.44,3.47-2.17,5.99-2.17,1.65,0,3.68.34,6.12,1.05v-7.02c-1.56.09-2.96.13-4.2.13-2.06,0-3.46-.05-4.2-.15-.91-.13-1.37-.61-1.37-1.46,0-.98.46-1.47,1.38-1.47.17,0,.41.01.72.04.72.08,1.65.1,2.81.1,1.74,0,3.36-.06,4.85-.19v-6.54c-4.13.31-7.47.69-10.08,1.16-.22.04-.42.06-.61.06-1.02,0-1.53-.49-1.53-1.46,0-.84.56-1.35,1.7-1.56,2.96-.52,6.46-.91,10.51-1.18v.04ZM517.41,93.6c-2.43-.84-4.39-1.26-5.89-1.26-1.24,0-2.25.27-3.05.8-.45.29-.68.6-.68.91,0,.46.31.92.92,1.37.92.66,2.11.98,3.55.98,2.54,0,4.14-.64,4.82-1.93.09-.18.19-.47.32-.86h.01Z"/>
  <path class="cls-3" d="M555.6,72.16c-.05-1.92-.1-3.08-.13-3.47-.08-1.06-.1-1.84-.1-2.31,0-1.18.52-1.76,1.56-1.76.95,0,1.48.45,1.62,1.33.01.14.06,1.51.15,4.1l.04,1.4v.46c6.07-.54,9.54-.8,10.41-.8,1.09,0,1.62.51,1.62,1.53,0,.74-.33,1.24-1.01,1.47-.19.05-.68.1-1.43.13-2.16.1-5.08.27-8.77.52l-.82.06c.06,3.07.1,5.5.1,7.32v3.36c0,1.16-.22,2.09-.65,2.8-.18,4.56-1.61,8.05-4.27,10.49-1.34,1.24-2.39,1.85-3.12,1.85-.31,0-.56-.1-.75-.32-.19-.23-.29-.47-.29-.74,0-.42.37-.96,1.11-1.62,1.83-1.63,3.09-3.74,3.78-6.31-.56.23-1.07.33-1.56.33-1.02,0-2.18-.54-3.47-1.6-2.04-1.65-3.07-3.58-3.07-5.79,0-1.35.68-2.71,2.02-4.06,1.52-1.49,2.99-2.25,4.42-2.25,1.01,0,1.93.4,2.77,1.2,0-1.21-.04-2.58-.09-4.1v-.33c-6,.55-11.44,1.14-16.34,1.79-.32.04-.56.06-.72.06-1.15,0-1.72-.54-1.72-1.62,0-.89.51-1.4,1.52-1.52,3.65-.43,9.39-.98,17.18-1.63v.04ZM555.11,88.17c0-2.43-.15-4.18-.46-5.26-.36-1.2-.92-1.81-1.7-1.81-.87,0-1.72.49-2.54,1.47-.59.69-.88,1.34-.88,1.98,0,1.26.51,2.39,1.53,3.38.84.82,1.6,1.21,2.25,1.21s1.24-.33,1.81-.98h-.01Z"/>
  <path class="cls-3" d="M594.13,72.81c.31.64.46,1.6.46,2.86,0,4.19-1.63,8.89-4.92,14.11-2.44,3.87-4.73,5.8-6.86,5.8-1.49,0-2.84-.77-4-2.29-1.48-1.93-2.22-4.46-2.22-7.57s1.25-6.26,3.74-9.07c1.97-2.21,4.39-3.91,7.29-5.07,2.62-1.06,5.34-1.6,8.16-1.6,3.95,0,7.23,1.19,9.83,3.58,2.8,2.55,4.2,5.84,4.2,9.86,0,3.64-1.14,6.82-3.42,9.53-1.72,2.04-3.91,3.6-6.57,4.66-.45.18-.84.27-1.18.27-.43,0-.75-.15-.97-.45-.15-.2-.23-.42-.23-.63,0-.31.14-.6.42-.88.14-.13.7-.47,1.69-1.03,1.55-.86,2.91-2.06,4.1-3.61,1.81-2.34,2.71-4.94,2.71-7.8,0-3.35-1.2-6.07-3.6-8.16-1.99-1.72-4.3-2.58-6.94-2.58l-1.6.06h-.13.01ZM591.27,73.31c-4.16,1.15-7.33,3.26-9.5,6.34-1.39,1.97-2.08,3.97-2.08,6.02,0,2.22.47,4.07,1.43,5.53.6.92,1.19,1.39,1.75,1.39,1.02,0,2.29-1.15,3.78-3.45,1.53-2.34,2.76-4.89,3.68-7.64.72-2.16,1.07-4.1,1.07-5.82,0-.47-.04-1.26-.13-2.35h0Z"/>
  <path class="cls-3" d="M638.48,73.27c-5.47,1.12-10.97,2.08-16.5,2.89-2.11.31-3.28.46-3.54.46-1.15,0-1.72-.59-1.72-1.75,0-.64.32-1.1.97-1.34.23-.1.98-.2,2.27-.33,2.59-.26,6.21-.74,10.83-1.47,4.42-.7,8.33-1.4,11.74-2.11.46-.1.84-.15,1.15-.15.8,0,1.37.29,1.69.88.2.38.32.75.32,1.11,0,.57-.51,1.07-1.52,1.49-2.62,1.1-4.93,2.87-6.92,5.34-2.35,2.9-3.54,5.88-3.54,8.92,0,2.32.82,4.33,2.47,5.99,1.38,1.39,3.05,2.36,5.05,2.92,1.01.28,1.52.86,1.52,1.75,0,1.03-.56,1.56-1.7,1.56s-2.62-.55-4.42-1.66c-4.13-2.53-6.18-5.94-6.18-10.26,0-2.21.55-4.44,1.63-6.71,1.37-2.81,3.51-5.31,6.41-7.52h0ZM646.64,65.94c.33,0,.73.15,1.18.46,1.74,1.19,3.05,2.5,3.95,3.95.26.4.37.74.37,1.05,0,.4-.14.72-.43.97-.26.2-.55.32-.91.32-.4,0-.78-.31-1.18-.91-.93-1.47-1.99-2.8-3.17-3.97-.41-.42-.61-.78-.61-1.07,0-.54.27-.8.8-.8h0ZM650.35,63.32c.7,0,1.84.7,3.42,2.12,1.33,1.19,1.99,2.15,1.99,2.89,0,.45-.15.79-.46,1.03-.27.19-.54.29-.82.29-.4,0-.78-.27-1.16-.82-.97-1.39-2.02-2.63-3.17-3.74-.41-.4-.61-.73-.61-.98,0-.52.27-.78.8-.78h0Z"/>
  <path class="cls-3" d="M660.15,91.52c.42,0,.91.2,1.44.63,2.5,1.92,4.42,3.9,5.73,5.91.33.51.51.97.51,1.4,0,.68-.26,1.19-.75,1.53-.37.27-.75.4-1.14.4-.55,0-1.1-.4-1.66-1.18-1.74-2.49-3.42-4.48-5.05-5.95-.42-.38-.63-.78-.63-1.21,0-.34.14-.68.42-.97.33-.38.7-.56,1.11-.56Z"/>
  <path class="cls-3" d="M67.44,125.85c-.04-1.84-.06-3.46-.06-4.85,0-1.29.11-2.09.33-2.4.27-.37.66-.55,1.18-.55,1.06,0,1.6.59,1.6,1.76v5.3c1.76-.45,3.05-.8,3.84-1.07.4-.14.72-.2.97-.2.68,0,1.14.28,1.39.84.11.24.17.49.17.75,0,.69-.43,1.18-1.3,1.46-.93.32-2.63.8-5.07,1.43,0,.69.01,1.78.04,3.28.05,2.72.09,4.51.09,5.36,3.78-1.55,7.56-2.31,11.33-2.31,2.3,0,4.23.43,5.79,1.3,2.43,1.34,3.64,3.41,3.64,6.18s-.78,4.76-2.35,6.18c-1.62,1.47-3.91,2.21-6.86,2.21-1,0-1.72-.08-2.18-.2-.7-.19-1.05-.61-1.05-1.24,0-.72.38-1.07,1.14-1.07l.98.03c2.15,0,3.84-.47,5.11-1.4,1.24-.91,1.85-2.29,1.85-4.13,0-1.58-.6-2.85-1.79-3.78-1.12-.89-2.63-1.34-4.55-1.34-3.47,0-7.17.88-11.06,2.63.08,3,.1,5.7.1,8.1,0,1.3-.19,2.22-.56,2.76-.51.72-1.3,1.07-2.4,1.07-1.83,0-3.69-.77-5.62-2.31-1.42-1.12-2.12-2.22-2.12-3.32,0-2.53,2.53-5.16,7.59-7.93l-.03-.78-.03-2.54-.04-2.61-.04-2.61v-.8c-3.22.75-5.31,1.14-6.27,1.14-1.11,0-1.66-.52-1.66-1.56,0-.88.63-1.4,1.88-1.57,1.63-.24,3.64-.63,6.02-1.16v-.04ZM67.64,141.47c-3.05,1.78-4.59,3.3-4.59,4.55,0,.59.56,1.24,1.7,1.95.93.59,1.7.88,2.29.88.32,0,.51-.18.56-.55.04-.19.06-.77.06-1.72,0-.89-.01-2.43-.04-4.59v-.52h.01ZM83.45,120.68c1.05,0,2.76.87,5.11,2.61.92.69,1.63,1.29,2.15,1.83.4.41.59.83.59,1.28,0,.49-.23.91-.69,1.26-.28.2-.57.32-.88.32-.51,0-1.09-.34-1.75-1.05-1.18-1.25-2.71-2.55-4.61-3.91-.61-.45-.92-.89-.92-1.33,0-.68.33-1.01,1.01-1.01Z"/>
  <path class="cls-3" d="M115.02,142.36l-7.91.52.06.55c.01.1.03.18.03.26,0,.38-.13.69-.4.95-.28.28-.66.42-1.14.42-.93,0-1.47-.46-1.57-1.37l-2.27-18.48c-.03-.24-.04-.4-.04-.46,0-.56.26-.96.75-1.2.26-.13.52-.19.8-.19.89,0,1.46.37,1.69,1.1l10.01-.86v-6.25c0-.38.11-.69.33-.95.29-.34.69-.52,1.2-.52.63,0,1.09.24,1.37.72.13.23.19.47.19.75v5.99l10.12-.88c.2-.01.37-.03.49-.03,1.93,0,2.9,1,2.9,3,0,.27,0,.47-.03.63l-1.43,16.46c-.08.91-.59,1.37-1.53,1.37-.69,0-1.16-.27-1.4-.8-.13-.26-.18-.55-.15-.88l.04-.65-9,.59v10.37c0,.37-.11.68-.33.95-.29.33-.69.51-1.2.51-.63,0-1.09-.24-1.37-.72-.13-.2-.19-.46-.19-.74v-10.15h-.01ZM115.02,131.36v-5.15l-9.69.84.56,5.02,9.12-.72h.01ZM115.02,133.9l-8.83.68.63,5.7,8.2-.55s0-5.82,0-5.82ZM118.11,131.13l9.9-.78.29-3.64c.01-.17.03-.31.03-.4,0-.77-.38-1.16-1.16-1.16h-.27l-8.79.78v5.2ZM118.11,139.53l9.23-.63.46-5.99-9.69.75v5.86Z"/>
  <path class="cls-3" d="M147.67,146.14c2.25.04,5.16.43,8.75,1.16,6.96,1.4,14.05,2.22,21.25,2.48,1.65.08,2.48.28,2.48.63,0,.24-.38.64-1.16,1.21-1.34,1.01-2.64,1.52-3.91,1.52-.42,0-1.19-.08-2.29-.2-5.22-.68-11.23-1.84-18-3.49-2.81-.69-5.31-1.03-7.55-1.03-1.12,0-2.66.31-4.62.91-.27.09-.5.13-.69.13-.51,0-.87-.23-1.1-.68-.11-.24-.17-.49-.17-.74,0-.63.37-1.05,1.1-1.26.6-.17,1.44-.32,2.53-.45,2.85-2.71,4.27-4.48,4.27-5.31,0-.33-.36-.7-1.07-1.11-.77-.46-1.16-1.03-1.16-1.72,0-.88.69-2.81,2.06-5.79l-5.38,1.26c-.26.05-.47.09-.65.09-.56,0-.96-.23-1.18-.68-.14-.28-.2-.54-.2-.75,0-.73.41-1.18,1.21-1.33l7.55-1.43c.23-.04.46-.06.69-.06.6,0,1.06.18,1.39.52.27.28.4.63.4,1.05,0,.6-.31,1.29-.91,2.08-.61.84-1.25,1.93-1.89,3.28-.19.42-.29.77-.29,1.03,0,.37.33.7.98,1.03.19.09.6.28,1.21.61.87.45,1.3.96,1.3,1.52,0,.61-.45,1.38-1.33,2.29-.7.73-1.92,1.81-3.64,3.24h.01ZM144.29,117.65c.37,0,.8.15,1.3.45,2.35,1.43,4.05,2.61,5.07,3.54.54.47.8.97.8,1.47,0,.32-.11.65-.36.98-.31.43-.74.65-1.3.65s-1.19-.34-1.81-1.05c-.92-1.03-2.27-2.31-4.04-3.81-.46-.41-.69-.8-.69-1.18,0-.7.34-1.05,1.03-1.05h-.01ZM165.08,131.79c-2.09,4.73-5.08,8.74-9,12.03-1.15.97-1.93,1.46-2.34,1.46-.27,0-.5-.11-.69-.33-.24-.26-.36-.52-.36-.8s.11-.56.36-.82c.05-.08.43-.42,1.14-1.05,2.26-2.06,4.29-4.65,6.12-7.75,1.33-2.27,2.32-4.52,2.99-6.74-1.06-2.59-2.02-5.33-2.86-8.2-.14-.46-.2-.79-.2-.98,0-.45.2-.78.63-1.01.29-.15.59-.23.88-.23.46,0,.82.2,1.05.63.1.17.4,1.14.88,2.92,2.63,9.72,7.17,17,13.58,21.84,1.03.78,1.56,1.34,1.56,1.66,0,.24-.23.42-.69.55-.86.26-1.71.38-2.57.38-.75,0-1.42-.27-1.99-.82-2.85-2.76-5.67-7-8.47-12.7v-.04Z"/>
  <path class="cls-3" d="M203.12,122.11c-1.57.46-3.77.91-6.58,1.33-1.9.28-3.07.42-3.47.42-.97,0-1.46-.51-1.46-1.53,0-.59.18-1.01.55-1.26.26-.17.83-.27,1.72-.32,3.27-.14,6.3-.57,9.11-1.3.46-.13.88-.19,1.24-.19.69,0,1.23.24,1.65.74.43.52.65,1.03.65,1.56,0,.46-.2,1.11-.61,1.95-1.83,3.72-3.86,7.64-6.09,11.75,3.92.26,7.89.92,11.92,2.02.32-1.32.6-2.86.82-4.65.11-1.01.65-1.52,1.62-1.52s1.47.54,1.47,1.62c0,1.43-.27,3.26-.82,5.49,1.47.52,2.59.95,3.36,1.28.77.34,1.16.88,1.16,1.57,0,.28-.06.56-.22.84-.27.49-.66.74-1.2.74-.27,0-.57-.08-.91-.23-.87-.38-1.9-.8-3.12-1.28-1.65,4.32-3.97,7.56-6.94,9.73-.66.47-1.23.72-1.69.72-.59,0-.88-.31-.88-.91,0-.33.28-.78.84-1.33,2.39-2.29,4.27-5.36,5.66-9.25-4.52-1.33-8.72-2.08-12.62-2.25-2.43,4.18-4.07,6.77-4.97,7.78-1.43,1.69-2.82,2.53-4.19,2.53-.86,0-1.67-.41-2.44-1.24-1.18-1.3-1.76-2.94-1.76-4.9,0-4.16,3.91-6.44,11.71-6.83,2.4-4.37,4.57-8.69,6.54-12.95l-.09-.13h.03ZM195.1,137.96c-2.16.15-3.84.56-5.07,1.24-1.39.75-2.08,1.72-2.08,2.9,0,.96.17,1.74.51,2.34.26.47.56.72.95.72.73,0,1.56-.68,2.5-2.04.8-1.18,1.86-2.9,3.19-5.15Z"/>
  <path class="cls-3" d="M230.55,144.76l.15-.33c1-2.26,1.63-3.64,1.92-4.16.2-.4.49-.59.82-.59.18,0,.34.04.49.13.33.19.51.46.51.78,0,.15-.08.43-.23.82-1.07,2.78-1.75,5.06-2.02,6.81-.09.63-.28,1.14-.61,1.53-.32.38-.68.56-1.07.56-.78,0-1.43-.55-1.93-1.63-.91-1.98-1.37-5.05-1.37-9.18,0-3.37.31-8.3.91-14.76.19-2.12.34-3.36.43-3.74.23-.91.75-1.37,1.6-1.37.54,0,.96.19,1.26.59.23.28.33.63.33,1.05,0,.19-.05.66-.17,1.4-.45,3.12-.84,7.08-1.2,11.9-.14,1.98-.22,3.56-.22,4.75,0,1.42.13,3.23.4,5.44h0ZM248.72,125.93v-6.25c0-.93.51-1.4,1.53-1.4s1.52.47,1.52,1.4v5.95l.38-.04,2.87-.27c1.03-.09,1.61-.13,1.7-.13.97,0,1.46.49,1.46,1.47,0,.74-.36,1.2-1.05,1.39-.13.04-1.35.17-3.68.38-.1,0-.66.05-1.69.17,0,4.69.08,9.3.22,13.83,2.64,1.21,4.62,2.29,5.93,3.19.73.52,1.1,1.06,1.1,1.63,0,.49-.18.89-.55,1.21-.24.2-.52.32-.84.32-.41,0-.89-.2-1.46-.61-1.16-.88-2.55-1.76-4.18-2.63-.42,2.76-2.48,4.14-6.18,4.14-2.66,0-4.82-.69-6.48-2.08-1.23-1.02-1.85-2.16-1.85-3.41s.57-2.35,1.72-3.13c1-.69,2.29-1.03,3.88-1.03s3.51.37,5.85,1.11c-.14-4.93-.2-9.03-.2-12.27-2.21.23-4.99.52-8.34.88-.26.03-.45.04-.57.04-1,0-1.49-.51-1.49-1.52,0-.69.37-1.12,1.1-1.33.13-.03,1.74-.22,4.84-.56l3.87-.42.61-.06-.03.03ZM248.97,144.09c-2.49-.97-4.43-1.46-5.8-1.46-1.67,0-2.5.51-2.5,1.52,0,.64.37,1.21,1.11,1.72.96.66,2.3.98,4.04.98,1.46,0,2.39-.28,2.77-.84.26-.37.38-.95.38-1.75v-.19h0Z"/>
  <path class="cls-3" d="M273.25,125.85c-.04-1.84-.06-3.46-.06-4.85,0-1.29.11-2.09.33-2.4.27-.37.66-.55,1.18-.55,1.06,0,1.6.59,1.6,1.76v5.3c1.76-.45,3.05-.8,3.84-1.07.4-.14.72-.2.97-.2.68,0,1.14.28,1.39.84.11.24.17.49.17.75,0,.69-.43,1.18-1.3,1.46-.93.32-2.63.8-5.07,1.43,0,.69.01,1.78.04,3.28.05,2.72.09,4.51.09,5.36,3.78-1.55,7.56-2.31,11.33-2.31,2.3,0,4.23.43,5.79,1.3,2.43,1.34,3.64,3.41,3.64,6.18s-.78,4.76-2.35,6.18c-1.62,1.47-3.91,2.21-6.85,2.21-1,0-1.72-.08-2.18-.2-.7-.19-1.06-.61-1.06-1.24,0-.72.38-1.07,1.14-1.07l.98.03c2.15,0,3.84-.47,5.11-1.4,1.24-.91,1.85-2.29,1.85-4.13,0-1.58-.59-2.85-1.79-3.78-1.12-.89-2.63-1.34-4.55-1.34-3.47,0-7.17.88-11.06,2.63.06,3,.1,5.7.1,8.1,0,1.3-.19,2.22-.57,2.76-.51.72-1.3,1.07-2.4,1.07-1.83,0-3.69-.77-5.61-2.31-1.42-1.12-2.12-2.22-2.12-3.32,0-2.53,2.53-5.16,7.59-7.93l-.03-.78-.03-2.54-.04-2.61-.04-2.61v-.8c-3.22.75-5.31,1.14-6.26,1.14-1.11,0-1.66-.52-1.66-1.56,0-.88.63-1.4,1.86-1.57,1.65-.24,3.64-.63,6.02-1.16v-.04ZM273.47,141.47c-3.05,1.78-4.59,3.3-4.59,4.55,0,.59.56,1.24,1.7,1.95.95.59,1.7.88,2.29.88.32,0,.51-.18.57-.55.04-.19.06-.77.06-1.72,0-.89-.01-2.43-.04-4.59v-.52ZM289.28,120.68c1.06,0,2.76.87,5.11,2.61.92.69,1.63,1.29,2.15,1.83.4.41.59.83.59,1.28,0,.49-.23.91-.69,1.26-.28.2-.57.32-.88.32-.51,0-1.09-.34-1.75-1.05-1.18-1.25-2.71-2.55-4.61-3.91-.61-.45-.92-.89-.92-1.33,0-.68.33-1.01,1.01-1.01Z"/>
  <path class="cls-3" d="M324.24,134.85v4.94l15.77-1.03c.26.01.46.08.63.17.46.27.69.69.69,1.26,0,.87-.41,1.33-1.24,1.39l-15.85,1.01v9.89c0,.37-.13.68-.38.92-.33.34-.75.52-1.26.52-.68,0-1.15-.26-1.46-.75-.13-.2-.19-.45-.19-.69v-9.67l-15.45,1.01c-.19.01-.37-.01-.55-.09-.56-.24-.84-.69-.84-1.34,0-.86.43-1.32,1.3-1.37l15.54-1.01v-4.9l-6.92.51v.15c0,.45-.19.82-.57,1.1-.29.23-.63.33-1.01.33-.96,0-1.48-.47-1.58-1.43l-1.69-16.02c0-.13-.03-.19-.03-.2,0-.55.26-.95.75-1.2.27-.13.55-.19.84-.19.65,0,1.11.27,1.39.82l20.69-1.62c.09-.01.2-.03.38-.03,1.86,0,2.8.87,2.8,2.61,0,.13,0,.29-.04.51l-1.85,14.34c-.13.96-.65,1.43-1.56,1.43-.46,0-.83-.14-1.11-.42-.24-.26-.36-.56-.36-.92,0-.09,0-.17.03-.26l.03-.26-6.92.51.03-.03ZM332.33,124.5l.4-3.55c0-.08.03-.13.03-.19,0-.28-.1-.49-.32-.61-.19-.11-.38-.15-.56-.13l-.09.03-19.2,1.52.45,4.37,19.3-1.43h0ZM332.01,127.11l-18.71,1.34.49,4.55,17.7-1.3s.52-4.59.52-4.59Z"/>
  <path class="cls-3" d="M366.66,125.43c.51-2.07.88-4.05,1.14-5.93.13-1,.66-1.49,1.62-1.49,1.14,0,1.7.51,1.7,1.53,0,.84-.4,2.78-1.2,5.85,4,.47,7,2.08,9.02,4.82,1.66,2.22,2.48,4.94,2.48,8.16s-1.01,5.98-3.03,8.47c-1.56,1.93-3.55,3.49-5.99,4.66-.47.24-.91.36-1.29.36-.43,0-.77-.17-.98-.49-.13-.19-.19-.4-.19-.61,0-.32.15-.63.45-.91.11-.11.6-.45,1.47-1.01,2.31-1.47,4.06-3.53,5.24-6.16.65-1.44.97-2.91.97-4.39,0-3.56-1.25-6.28-3.74-8.17-1.37-1.03-3.12-1.67-5.21-1.89-1.79,5.5-4.04,10.26-6.74,14.25.75,1.43,1.43,2.55,2.02,3.36.4.54.59,1.02.59,1.46,0,.47-.19.86-.59,1.16-.29.23-.6.33-.91.33-.51,0-.97-.31-1.4-.91-.6-.86-1.16-1.8-1.69-2.84-2.73,3.22-5.01,4.84-6.83,4.84-1.11,0-2.12-.49-3.03-1.47-1.56-1.7-2.34-3.93-2.34-6.71,0-3.78,2.03-7.45,6.08-11-.7-2.45-1.32-4.43-1.85-5.93-.09-.24-.13-.46-.13-.65,0-.47.22-.89.65-1.24.29-.24.61-.36.97-.36.69,0,1.15.31,1.39.92.17.41.52,1.62,1.07,3.64.13.46.28,1.05.49,1.76,3.12-1.92,6.39-3.07,9.82-3.42h-.01ZM355.15,133.64c-2.64,2.66-3.97,5.33-3.97,8,0,1.67.37,3.07,1.1,4.2.45.69.95,1.03,1.47,1.03,1.14,0,2.85-1.53,5.15-4.59-1.46-2.89-2.71-5.77-3.74-8.65ZM365.88,128.31c-3,.46-5.75,1.55-8.26,3.26.93,2.84,2.02,5.52,3.26,8.05,1.99-3.4,3.65-7.17,5.01-11.32h0Z"/>
  <path class="cls-4" d="M394.05,144.09c.87-2.11,1.52-3.56,1.94-4.37.23-.46.5-.69.82-.69.17,0,.33.04.47.13.32.19.49.46.49.78,0,.15-.07.43-.22.82-1.03,2.77-1.68,5.05-1.94,6.81-.09.63-.27,1.14-.59,1.53-.31.38-.65.56-1.03.56-.76,0-1.4-.57-1.9-1.72-.87-2.06-1.31-5.13-1.31-9.21,0-3.46.37-8.67,1.1-15.65.11-1.05.21-1.72.31-2.02.25-.7.72-1.05,1.46-1.05.52,0,.92.19,1.21.59.22.28.32.64.32,1.07,0,.2-.05.68-.16,1.39-.42,2.71-.8,6.35-1.15,10.91-.13,1.88-.21,3.42-.21,4.65,0,1.42.12,3.24.38,5.47h.01ZM404.63,140.4c.39,0,.75.22,1.07.65,1.53,2.06,5.03,3.09,10.48,3.09.56,0,1.07-.03,1.5-.06.22-.01.37-.03.47-.03.61,0,1.07.2,1.4.63.22.28.32.61.32.98,0,.6-.23,1.09-.71,1.46-.31.24-.93.36-1.85.36-2.85,0-5.45-.32-7.82-.95-2.28-.59-3.99-1.61-5.15-3.07-.58-.73-.87-1.34-.87-1.85,0-.33.1-.61.31-.84.23-.26.52-.38.87-.38h0ZM415.93,126.35c-2.49,0-5.77.64-9.84,1.92-.39.13-.69.19-.88.19-.63,0-1.03-.27-1.25-.82-.09-.2-.12-.4-.12-.56,0-.49.4-.91,1.21-1.26,2.28-.98,4.65-1.71,7.11-2.18,1.35-.26,2.53-.38,3.56-.38,2,0,3.01.56,3.01,1.69,0,.97-.59,1.46-1.78,1.46l-1.01-.03h0Z"/>
  <path class="cls-3" d="M435.14,146.48c.54,0,1.03.15,1.52.45.97.57,1.44,1.42,1.44,2.54,0,.75-.26,1.42-.78,1.99-.59.64-1.33.97-2.22.97-.49,0-.96-.11-1.39-.36-1.03-.57-1.56-1.46-1.56-2.63,0-.86.31-1.57.91-2.15.59-.55,1.29-.82,2.08-.82h0ZM436.55,141.61c-.08,1.05-.54,1.57-1.4,1.57s-1.39-.52-1.43-1.57l-.95-22.75v-.15c0-.46.14-.84.4-1.16.46-.59,1.12-.88,1.98-.88.77,0,1.39.26,1.86.78.36.38.51.84.49,1.4l-.95,22.75h0Z"/>
  <g>
    <path class="cls-2" d="M733.28,237.32c-.63.12-1.27.11-1.86-.11-1.48-.56-2.16-2.34-2.1-3.92.14-3.44,3.06-3.9,5.73-4.84,3.07-1.09,6.11-2.26,9.11-3.52,5.56-2.34,10.99-4.99,16.21-7.99,9.02-5.18,17.47-11.44,24.71-18.92,11.22-11.58,19.69-26.48,21.07-42.77.33-3.9.25-7.83-.3-11.71-1.91-13.55-9.47-25.54-19.84-34.27-13.96-11.75-32.04-17.63-49.88-20.13-8.69-1.22-17.49-1.66-26.26-1.53-4.92.07-9.84.33-14.74.74-3.34.28-11.28,2.23-10.24-4.01.5-2.98,3.29-3.39,5.74-3.57,3.6-.27,7.18-.64,10.79-.83,6.82-.36,13.67-.41,20.49-.07,12.22.61,24.44,2.43,36.13,6.11,6.25,1.96,12.34,4.46,18.1,7.6,20.35,11.07,33.13,28.33,35.99,48.59,2.18,15.47-1.94,31.25-9.77,44.61-10.39,17.7-26.88,31.08-44.92,40.45-7.43,3.86-15.17,6.81-22.97,9.77-.38.15-.79.27-1.2.34Z"/>
    <path class="cls-2" d="M747.81,247.94c0,.35-.04.74-.14,1.18-.39,1.74-1.96,3.03-3.67,3.56s-3.53.44-5.31.29c-8.26-.69-16.52-2.48-23.9-6.25-1.53-.78-3.06-1.68-4.18-2.99-5.06-5.9,3.08-14.5,6.67-18.83,5.36-6.46,11.3-12.41,17.23-18.34.51-.51,1.03-1.03,1.7-1.27,1.41-.52,3.07.44,3.66,1.83s.27,3.02-.46,4.33-1.83,2.38-2.91,3.43c-3.51,3.43-6.92,6.97-10.21,10.6s-7.07,7.18-9.55,11.21c-1.96,3.2,2.49,4.18,5.02,4.94,2.38.72,4.81,1.21,7.22,1.79,3.87.93,7.87,1.83,11.88,1.63,2.44-.12,6.92-.55,6.94,2.89Z"/>
  </g>
</svg>