<?xml version="1.0" encoding="UTF-8"?>
<svg id="Layer_4_copy" xmlns="http://www.w3.org/2000/svg" version="1.1" viewBox="0 0 812.7 253.1">
  <!-- Generator: Adobe Illustrator 29.0.0, SVG Export Plug-In . SVG Version: 2.1.0 Build 186)  -->
  <defs>
    <style>
      .st0 {
        fill: #79cbba;
      }

      .st1 {
        fill: none;
        stroke: #638baf;
        stroke-linejoin: round;
        stroke-width: 7px;
      }

      .st1, .st2, .st3 {
        stroke-linecap: round;
      }

      .st4 {
        fill: #638baf;
      }

      .st2 {
        stroke-width: 1px;
      }

      .st2, .st3 {
        fill: #fff;
        stroke: #fff;
        stroke-miterlimit: 10;
      }

      .st3 {
        stroke-width: .9px;
      }
    </style>
  </defs>
  <path class="st0" d="M641.4,30.3c-4,.4-7.9,1.1-11.8,2.2-23.5,6.7-55,11.8-91.7,11.8-97.3,0-208.1,7.4-279.7-28.1C223-1.2,104.2-4.3,72.8,5.6,25.8,20.5,0,60.6,0,91.8c0,62.4,55.3,92.1,106.3,96.6,83.1,7.4,208,24.3,297.6-3,89.6-27.3,125.8-52.4,191.6-40.1,31.9,5.9,116.2-19.3,136.7-37.2,41.8-36.5,38.3-60.9,7.7-75.8-26.3-12.8-73.5-4.3-98.4-2.1h0Z"/>
  <path class="st2" d="M81.1,80.2l.3.2c2.2,1.5,4.5,2.9,7,4.2,2.9,1.5,5.4,2.6,7.5,3.3.8.3,1.2.6,1.2.9,0,.3-.2.5-.7.7-1.3.6-2.4.8-3.2.9-.6,0-1.6-.3-2.7-1-4.2-2.4-8.3-5.4-12.5-8.8l-2.9.3c-2.4,3.5-5.9,6.8-10.7,9.7-2.5,1.6-4.1,2.4-4.7,2.4-.7,0-1.1-.3-1.1-1,0-.4.1-.7.5-.9.1,0,.5-.3,1.1-.7,4.2-2.3,7.7-5.3,10.7-9.1l-9.3,1c-.3,0-.6,0-.9-.2-.4-.2-.7-.6-.7-1,0-.5.2-.9.5-1.2.2-.1.4-.2.6-.2l11.7-1.2c.7-1.2,1.2-2.3,1.6-3.4-4.8.7-7.6,1.1-8.4,1.1-.8,0-1.3-.2-1.7-.8-.3-.5-.4-.9-.5-1.4,0-.4,0-.8.4-1.1,0-.1.4-.4.9-.8,2.6-2.2,5-4.5,7.2-7.1.6-.7,1.1-1,1.6-1,.3,0,.7,0,1,.3.4.3.6.6.6,1.1,0,.5-.3,1.1-.9,1.8-2.3,2.3-4.7,4.3-7,6.1,6.9-.7,12.4-1.5,16.7-2.4-1.1-.9-2-1.6-2.8-2.2-.4-.3-.7-.7-.7-1.1,0-.3,0-.5.3-.8.2-.3.5-.4.8-.5.3,0,.8.2,1.4.6,4.8,3,7.2,5.1,7.3,6.4,0,.4,0,.7-.3,1-.3.4-.7.6-1.2.7-.5,0-1.1-.3-1.7-1.1-.3-.3-.7-.7-1.1-1.1-2.8.7-5.6,1.2-8.6,1.7-.1,0-.3,0-.4,0,.1.2.2.5.2.7,0,.5-.3,1.4-1,2.8l14.8-1.6h0c.3,0,.7,0,1,.3.3.2.4.5.4.9,0,.6-.2,1-.7,1.3-.1,0-.3.1-.5.2l-10.8,1.1h0c0,0,0,0,0,0ZM86.5,91.5c.4,0,.8.2,1.1.5.3.3.4.6.4,1,0,.5-.2.9-.8,1.4-2.2,2-5.3,3.8-9.2,5.5-3.2,1.4-6.5,2.4-9.8,3-.2,0-.4,0-.5,0-.8,0-1.2-.3-1.2-1.1,0-.4.1-.7.5-.9.1,0,.8-.3,1.9-.6,2.8-.7,5.9-2,9.3-3.8,2.4-1.3,4.7-2.8,6.9-4.5.5-.4.9-.6,1.3-.6h0,0ZM78.4,83.2c.4,0,.8.1,1.1.5.3.3.4.6.4,1,0,.4-.2.8-.6,1.3s-1.2,1.1-2.3,1.9c-2.6,1.8-5.5,3.3-8.7,4.5-.4.1-.7.2-.9.2-.4,0-.8-.2-1-.6-.1-.2-.2-.4-.2-.6,0-.3.1-.6.4-.8.1,0,.6-.3,1.3-.6,2.1-.8,4.4-2.2,6.9-4.3.8-.6,1.5-1.2,2.1-1.8.5-.4.9-.7,1.3-.7h0ZM82,87.3c.3,0,.7.1,1,.4.3.3.4.6.5,1,0,.5-.3,1.1-.9,1.6-1.4,1.2-3.3,2.4-5.8,3.7-2.6,1.4-5.2,2.4-7.6,3.2-.3,0-.5.1-.7.1-.8,0-1.2-.3-1.3-1.2,0-.4,0-.7.3-.8.2-.2.8-.4,1.8-.8,3.6-1.2,7.2-3.4,11-6.5.7-.6,1.2-.8,1.6-.9h0Z"/>
  <path class="st2" d="M112.8,76c-.9,3.7-1.8,6.7-2.8,8.9-2.1,5.1-4.7,9.1-7.9,12.2-.5.5-.9.7-1.3.7-.2,0-.5-.1-.7-.3-.3-.3-.5-.6-.4-1,0-.3.4-.8,1.1-1.6,2.5-2.7,4.7-6.6,6.7-11.7.7-1.8,1.4-4.1,2.1-6.9l-6.2.6h-.3c-.9,0-1.3-.5-1.3-1.5,0-.9.5-1.3,1.4-1.4l6.9-.6c.6-2.7,1-5.1,1.2-7,.1-1.1.7-1.6,1.7-1.5s1.5.6,1.5,1.5c0,.3,0,.8-.2,1.3-.1.7-.4,2.2-.8,4.6,0,.3-.1.6-.2.9l3.7-.3c.2,0,.4,0,.6,0,2,0,3,1.2,2.9,3.3,0,1.8-.4,4.4-.9,7.8-.9,6.4-2.1,11-3.5,14.1-.7,1.4-1.6,2.1-2.9,2-1,0-2.4-.5-4.1-1.3-1.5-.8-2.3-1.5-2.2-2.1,0-.7.4-1.1,1.1-1,.2,0,.6.1,1,.3,1.2.6,2.2.9,3,.9.6,0,1-.1,1.2-.5.4-.6.9-1.9,1.5-4,.7-2.6,1.3-5.3,1.7-7.9.6-4.2.9-6.6,1-7.5s-.3-1.2-1.1-1.2h-.2l-3.5.3h0ZM136.8,92.3c1,0,1.4.6,1.4,1.5s-.5,1.3-1.4,1.4l-10.4.2h0c0,1.2-.6,1.7-1.7,1.6-.9,0-1.3-.6-1.3-1.6v-19.4c0-1.1.4-1.6,1.5-1.6.8,0,1.2.4,1.4,1.1l9.1-.7c.2,0,.5,0,.8,0,1.6,0,2.4,1,2.4,2.8,0,.2,0,.4,0,.5l-1.7,14.3h0,0ZM134,92.3l1.3-13.5c0-.4,0-.7,0-.8-.1-.4-.4-.5-.8-.6h-.4l-7.7.6v14.4l7.6-.2h0Z"/>
  <path class="st2" d="M150.4,82.5c-1.4,3.1-3.1,6.2-5.1,9.2-.3.5-.7.8-1.1.8s-.4,0-.6-.3c-.3-.2-.4-.5-.4-.7s.3-.9.9-1.9c2.1-3.5,4.1-7.6,5.8-12.3l-4.3.5c-.1,0-.2,0-.3,0-.9,0-1.3-.4-1.3-1.3s.4-1.3,1.3-1.4l5.2-.7v-8.3c0-.9.5-1.3,1.4-1.3s.8.2,1.1.5c.2.2.3.5.3.8v8l3.2-.4s.1,0,.3,0c.9,0,1.3.5,1.3,1.4s-.4,1.2-1.3,1.3l-3.5.4v2.7c2.2,1.5,3.7,2.6,4.7,3.5.5.5.8.9.8,1.4s-.1.6-.4.8c-.3.3-.6.5-1,.5s-1-.3-1.6-1.1c-.5-.6-1.4-1.5-2.5-2.6v18.4c0,.3-.1.6-.3.8-.3.3-.7.5-1.1.5-.9,0-1.4-.4-1.4-1.3v-18h0ZM170.9,89.9v10.8c0,.3-.1.6-.3.9-.3.4-.7.6-1.2.6s-1.1-.2-1.3-.7c-.1-.2-.2-.5-.2-.7v-10.6l-8.8.4c-1.1,0-1.7-.4-1.7-1.3s.5-1.4,1.5-1.5l9-.5v-4.5c0-.5.1-.8.5-1.1.3-.3.7-.4,1.1-.4s.7,0,.9.3c.4.3.6.7.6,1.2v4.3l9.9-.6h.1c1.1,0,1.6.5,1.6,1.4s-.5,1.5-1.5,1.5l-10.1.5h0s0,0,0,0ZM169.3,69.5l3.1-.3c.2,0,.4,0,.5,0,1.7,0,2.6.7,2.6,2.2s0,.7-.1,1.2c-.4,2.1-.6,3.9-.6,5.3s.1,1.2.4,1.4c.2.1.6.2,1.2.2,1,0,1.6,0,1.9-.2.3-.1.6-.4.6-.9,0-.4.1-1.4.1-2.9s.3-1.3.9-1.3,1,.3,1.1,1c.4,2,.6,3.5.6,4.4s-.5,1.7-1.5,2.1c-.9.3-2.2.5-3.9.5s-2.5-.1-3.1-.4c-1-.3-1.4-1.2-1.4-2.6s.2-3.6.6-5.8c0-.4.1-.7.1-.9,0-.5-.3-.7-.9-.7h-.3l-2.4.2c-.9,3.5-2.4,6.4-4.6,8.8-.8.9-1.7,1.6-2.7,2.2-.4.3-.8.4-1.2.4s-.5-.1-.7-.3c-.2-.2-.3-.4-.3-.6,0-.3.3-.8,1-1.4,2.5-2.3,4.2-5.2,5.2-8.8l-4.3.4c0,0-.1,0-.2,0-.9,0-1.3-.4-1.3-1.3s.5-1.2,1.4-1.3l4.9-.4c.2-1.2.4-2.7.6-4.3.1-1.2.6-1.7,1.6-1.7h0c.3,0,.6,0,.8.3.4.3.6.6.6,1.2,0,.8-.1,2.2-.4,4.3h0Z"/>
  <path class="st2" d="M193.5,92.4c.9-2.1,1.6-3.6,2-4.4.2-.5.5-.7.9-.7s.3,0,.5.1c.3.2.5.5.5.8s0,.4-.2.8c-1.1,2.8-1.8,5.1-2,6.8,0,.6-.3,1.1-.6,1.5-.3.4-.7.6-1.1.6-.8,0-1.5-.6-2-1.7-.9-2.1-1.4-5.1-1.4-9.2s.4-8.7,1.2-15.7c.1-1.1.2-1.7.3-2,.3-.7.8-1.1,1.5-1.1s1,.2,1.3.6c.2.3.3.6.3,1.1s0,.7-.2,1.4c-.4,2.7-.8,6.3-1.2,10.9-.1,1.9-.2,3.4-.2,4.7s.1,3.2.4,5.5h0ZM204.6,88.7c.4,0,.8.2,1.1.7,1.6,2.1,5.2,3.1,10.9,3.1s1.1,0,1.6,0c.2,0,.4,0,.5,0,.6,0,1.1.2,1.4.6.2.3.3.6.3,1,0,.6-.2,1.1-.7,1.5-.3.2-1,.4-1.9.4-3,0-5.7-.3-8.1-.9-2.4-.6-4.1-1.6-5.4-3.1-.6-.7-.9-1.3-.9-1.8s.1-.6.3-.8c.2-.3.5-.4.9-.4h0ZM216.3,74.7c-2.6,0-6,.6-10.2,1.9-.4.1-.7.2-.9.2-.6,0-1.1-.3-1.3-.8,0-.2-.1-.4-.1-.6,0-.5.4-.9,1.3-1.3,2.4-1,4.8-1.7,7.4-2.2,1.4-.3,2.6-.4,3.7-.4,2.1,0,3.1.6,3.1,1.7s-.6,1.5-1.9,1.5h-1.1s0,0,0,0Z"/>
  <path class="st2" d="M232.7,93.1v-.3c1.1-2.3,1.8-3.6,2.1-4.2.2-.4.5-.6.8-.6s.3,0,.5.1c.3.2.5.5.5.8s0,.4-.2.8c-1.1,2.8-1.8,5.1-2,6.8,0,.6-.3,1.1-.6,1.5-.3.4-.7.6-1.1.6-.8,0-1.4-.6-1.9-1.6-.9-2-1.4-5.1-1.4-9.2s.3-8.3.9-14.8c.2-2.1.3-3.4.4-3.7.2-.9.8-1.4,1.6-1.4s1,.2,1.3.6c.2.3.3.6.3,1.1s0,.7-.2,1.4c-.4,3.1-.8,7.1-1.2,11.9-.1,2-.2,3.6-.2,4.8s.1,3.2.4,5.4h0ZM250.9,74.2v-6.2c0-.9.5-1.4,1.5-1.4s1.5.5,1.5,1.4v5.9h.4s2.9-.3,2.9-.3c1,0,1.6-.1,1.7-.1,1,0,1.5.5,1.5,1.5s-.4,1.2-1,1.4c-.1,0-1.4.2-3.7.4-.1,0-.7,0-1.7.2,0,4.7,0,9.3.2,13.8,2.6,1.2,4.6,2.3,5.9,3.2.7.5,1.1,1.1,1.1,1.6s-.2.9-.5,1.2c-.2.2-.5.3-.8.3s-.9-.2-1.5-.6c-1.2-.9-2.6-1.8-4.2-2.6-.4,2.8-2.5,4.1-6.2,4.1s-4.8-.7-6.5-2.1c-1.2-1-1.9-2.2-1.9-3.4s.6-2.3,1.7-3.1c1-.7,2.3-1,3.9-1s3.5.4,5.9,1.1c-.1-4.9-.2-9-.2-12.3-2.2.2-5,.5-8.3.9-.3,0-.4,0-.6,0-1,0-1.5-.5-1.5-1.5s.4-1.1,1.1-1.3c.1,0,1.7-.2,4.8-.6l3.9-.4h.6c0,0,0,0,0,0h0ZM251.1,92.4c-2.5-1-4.4-1.5-5.8-1.5s-2.5.5-2.5,1.5.4,1.2,1.1,1.7c1,.7,2.3,1,4,1s2.4-.3,2.8-.8c.3-.4.4-.9.4-1.8v-.2h0Z"/>
  <path class="st2" d="M271.2,69.5v30.3c0,.3-.1.6-.3.8s-.7.5-1.2.5-1-.2-1.3-.6c-.1-.2-.2-.4-.2-.7v-30c-.7-.2-1-.6-1-1.3s.5-1.2,1.4-1.3l8.8-.9c.2,0,.3,0,.5,0,1.5,0,2.2.6,2.2,1.8s-.4,1.6-1.2,3c-1.2,2.2-2.3,3.9-3.3,5.1,1.5,1.3,2.6,2.8,3.4,4.5.6,1.4.9,2.7.9,3.9s-.2,1.6-.6,2.1c-.5.8-1.3,1.2-2.4,1.2s-2.6-.5-4.1-1.4c-.6-.3-.8-.7-.8-1.1,0-.6.3-.9,1-.9s.5,0,1,.2c.5.2,1,.3,1.6.3.8,0,1.2-.5,1.2-1.5s-.3-1.9-.8-2.9c-.6-1.3-1.6-2.5-3-3.6-.2-.2-.4-.4-.4-.7,0-.6.3-1,.9-1.1.8-1.2,1.5-2.7,2.3-4.4.2-.5.3-.9.3-1,0-.4-.2-.6-.7-.6h-.2l-4,.5h0,0ZM285.6,83.1v15.3c1.5-.5,3.3-1.4,5.5-2.7.5-.3,1-.5,1.3-.5s.5.1.8.4c.2.2.3.5.3.8s-.2.7-.6,1.1c-1.4,1.2-3.5,2.5-6.1,3.9-1.1.6-1.8.8-2.2.8s-.9-.3-1.4-.8c-.4-.4-.6-1.1-.6-2v-29.7c-1,0-1.4-.4-1.4-1.3s.5-1.2,1.4-1.3l13.9-1.4c.2,0,.4,0,.5,0,1.7,0,2.5.9,2.5,2.7s0,.3,0,.4l-1.1,13.6c0,.9-.5,1.3-1.4,1.3s-1.4-.5-1.4-1.4l-9.9.9h0ZM285.6,73.6l10.6-1,.3-3.4c0-.7-.3-1-.8-.9h0s-10,1.1-10,1.1v4.2h0ZM285.6,80.5l10.1-1,.3-4.4-10.4,1v4.4h0ZM295.3,91c2.9,2.9,5.9,5.1,8.9,6.7,1,.5,1.4.9,1.4,1.3s-.3.5-.9.7c-1.1.4-2.1.6-2.9.6s-1-.2-1.4-.5c-3.6-2.9-7.2-6.7-10.8-11.5-1.6-2-2.4-3.3-2.4-3.7s.2-.6.5-.9c.3-.2.5-.3.8-.3s.6.2,1,.5c0,0,.5.6,1.1,1.6.8,1.2,1.8,2.4,3,3.7,0,0,.1-.1.2-.2,1.5-1.2,3.2-2.8,4.9-4.8.6-.7,1.1-1,1.6-1s.8.2,1.2.5c.3.4.5.8.5,1.2s-.3.9-.9,1.4c-1.8,1.7-3.8,3.2-5.9,4.6h0Z"/>
  <path class="st2" d="M316.1,82.3c1.1-2.4,2-3.6,2.6-3.6s.3,0,.5.1c.3.2.5.5.5.8s-.3,1-.9,2.2c-.7,1.6-1.2,2.7-1.4,3.2-.4,1-.9,1.5-1.6,1.5s-1.2-.4-1.7-1.2c-.8-1.5-1.3-3.8-1.3-6.7s.3-6.9.9-10.6c.2-1.2.7-1.8,1.7-1.8s1.5.5,1.5,1.5,0,.5-.1,1.1c-.6,4.1-.9,7.5-.9,10.2s0,2.2.2,3.2h0ZM329.2,65.8c.9,0,1.5.4,1.8,1.3.6,1.8.9,4.6.9,8.3,0,8.9-1.2,15.4-3.5,19.4-1.1,1.9-2.6,3.6-4.5,4.9-.6.4-1.1.6-1.5.6s-.6-.1-.8-.4c-.1-.2-.2-.3-.2-.6,0-.4.3-.9.8-1.4,2-1.9,3.5-4,4.4-6.4,1.4-3.7,2.1-9.2,2.1-16.4s-.2-4.9-.6-7.3c0-.3,0-.5,0-.7,0-1,.5-1.5,1.4-1.5h0,0Z"/>
  <path class="st2" d="M351,76.5c1.2-3.2,2.1-5.9,2.8-8.1.3-1,.9-1.6,1.7-1.6s.4,0,.5,0c.6.2,1,.6,1,1.3s-.9,3.1-2.7,7.9c.5,0,1,0,1.5,0,4.3,0,6.4,1.8,6.4,5.5s-.7,7.3-2.1,11.2c-.8,2.1-1.7,3.9-2.9,5.4-.7,1-1.6,1.5-2.7,1.5s-2.3-.9-3.8-2.8c-.8-1-1.2-1.7-1.2-2.1s.1-.4.3-.6.5-.3.7-.3.6.2,1,.6c1.4,1.2,2.3,1.8,2.6,1.8.5,0,1.2-.8,2-2.5.7-1.5,1.3-3.1,1.8-4.8.6-2.4,1-4.7,1-6.8s-.2-1.8-.7-2.3c-.5-.5-1.4-.7-2.6-.7s-1.5,0-2.6.2c-1.9,4.7-4,9.3-6.5,14.1-.3.6-.4.8-.5.9-.3.5-.8.8-1.4.8s-.6,0-.9-.3c-.4-.3-.6-.7-.6-1.2s.3-1,.8-1.9c1.9-3.3,3.9-7.3,5.9-12.1-1.7.2-3.3.4-4.9.6-.3,0-.5,0-.6,0-1,0-1.6-.5-1.6-1.4s.5-1.5,1.5-1.6c1.3-.2,3.5-.4,6.8-.7h0s0,0,0,0ZM368.7,74.3c.4,0,.9.3,1.5.8,2.3,2.2,4.4,4.8,6.3,7.8.4.6.5,1.1.5,1.6s-.3,1.1-.8,1.4c-.3.2-.6.3-1,.3-.5,0-.9-.2-1.2-.6-.1-.2-.3-.5-.6-1.1-1.6-3-3.4-5.7-5.6-8.1-.3-.3-.4-.6-.4-1s.1-.7.4-.9c.3-.3.5-.4.9-.4h0ZM372.1,69.7c.4,0,.7.2,1.2.5,1.7,1.2,3,2.5,4,3.9.3.4.4.8.4,1.1s-.1.7-.4.9c-.3.2-.5.3-.9.3s-.8-.3-1.1-.9c-1-1.5-2-2.8-3.2-4-.4-.4-.6-.7-.6-1.1,0-.5.3-.8.8-.8h0ZM375.8,67c.7,0,1.8.7,3.4,2.1,1.3,1.2,2,2.2,2,2.9s-.1.8-.5,1c-.3.2-.5.3-.8.3-.4,0-.8-.3-1.1-.8-1-1.4-2-2.6-3.2-3.7-.4-.4-.6-.7-.6-1,0-.5.3-.8.8-.8h0,0Z"/>
  <path class="st2" d="M389.1,88.5c.5,0,1,.4,1.5,1.2,1.1,1.8,2.9,3,5.3,3.7,1.7.4,3.7.7,6.2.7s4.2-.2,6.4-.5c.3,0,.5,0,.6,0,.7,0,1.2.3,1.5.8.1.2.2.4.2.7,0,1-.5,1.5-1.5,1.8-1.6.3-4,.5-7,.5-5.4,0-9.3-1-11.7-3.1-1.1-1-2-2.1-2.5-3.3-.2-.4-.3-.8-.3-1,0-.5.2-.9.6-1.2.2-.1.5-.2.7-.2h0,0ZM395.4,69.7c3.9,0,7.4.5,10.5,1.6,1.9.6,2.8,1.5,2.8,2.7s-.5,1.3-1.5,1.8c-1,.4-2.4,1.1-4.2,2.1-.8.4-1.3.6-1.7.6-.6,0-.9-.3-.9-.9s.2-.8.7-1.1c1.5-1,2.5-1.7,3-2,.3-.2.5-.3.5-.4s-.2-.3-.6-.4c-.7-.2-1.6-.4-2.9-.7-2-.3-3.8-.5-5.5-.5s-2.8.1-4.3.3c-.5,0-.7,0-.9,0-.3,0-.6,0-.9-.2-.5-.2-.7-.6-.7-1.2,0-.8.5-1.2,1.3-1.5,1-.3,2.8-.4,5.3-.4h0ZM410.9,69c.3,0,.7.2,1.2.5,1.7,1.2,3,2.5,4,3.9.3.4.4.8.4,1.1s-.1.7-.4.9c-.3.2-.5.3-.9.3s-.8-.3-1.1-.9c-.9-1.4-2-2.8-3.2-4-.4-.4-.6-.8-.6-1.1,0-.5.3-.8.8-.8h0ZM414.5,66.4c.7,0,1.8.7,3.4,2.1,1.3,1.2,2,2.2,2,2.9s-.1.8-.5,1c-.3.2-.5.3-.8.3-.4,0-.8-.3-1.1-.8-1-1.4-2.1-2.7-3.2-3.7-.4-.4-.6-.7-.6-1,0-.5.3-.8.8-.8h0s0,0,0,0Z"/>
  <path class="st2" d="M437.6,74.3c-1.1-1.8-2.2-3.8-3.4-6.2-.2-.4-.3-.8-.3-1.1,0-.6.2-1,.7-1.2.3-.1.6-.2.9-.2.7,0,1.2.5,1.7,1.4,1,2.3,2.2,4.4,3.5,6.6,3.5-.8,6-1.5,7.6-2.1.4-.2.8-.2,1-.2.5,0,1,.2,1.2.7.1.2.2.5.2.8,0,.7-.5,1.2-1.3,1.5-1.9.6-4.3,1.3-7.1,2,1.8,2.9,3.5,5.2,5.1,7,.6.7,1,1.4,1,2.1s-.1.6-.5.9-.9.6-1.6.6-.4,0-.8-.1c-2.4-.5-4.1-.8-4.9-.9-.8,0-1.2-.4-1.2-.9s.5-.9,1.4-.9,1.8,0,3.4.2c-1.6-1.9-3.3-4.3-5.1-7.2-4.2,1-8.2,1.7-11.9,2.2-1.5.2-2.4.3-2.7.3-1.1,0-1.7-.6-1.7-1.6s.4-1.1,1.1-1.3c.2,0,.6-.1,1.2-.2,3-.3,7.1-1,12.3-2.1h0ZM442.9,96.5h.4c.3,0,.6,0,.8.2.6.3.9.8.9,1.5,0,1.1-.7,1.6-2,1.6-4.2,0-7.6-.9-10.1-2.7-1-.7-1.8-1.6-2.4-2.5-.8-1.3-1.2-2.7-1.2-4s.4-1.6,1.2-1.6,1.2.5,1.4,1.4c.4,1.9,1.4,3.3,2.9,4.2,2.1,1.3,4.8,1.9,8.2,1.9h0,0ZM450.5,67.5c.3,0,.7.2,1.2.4,1.7,1.2,3,2.5,4,3.9.3.4.4.7.4,1.1s-.1.7-.5,1c-.3.2-.5.3-.9.3s-.8-.3-1.1-.9c-1-1.5-2-2.8-3.2-4s-.6-.8-.6-1.1c0-.5.3-.8.8-.8h0ZM454.2,64.9c.7,0,1.8.7,3.4,2.1,1.3,1.2,2,2.1,2,2.9s-.1.8-.5,1c-.3.2-.5.3-.8.3-.4,0-.8-.3-1.1-.8-1-1.5-2.1-2.7-3.2-3.7-.4-.4-.6-.7-.6-1,0-.5.3-.8.8-.8h0Z"/>
  <path class="st2" d="M465.8,71.9c1,0,1.6.7,1.6,2.1,0,3.9.4,7.6,1.2,11,.8,3.2,1.9,5.7,3.2,7.5.3.4.6.6.8.6s.5-.3.8-.8c1.3-2.8,2.4-4.3,3-4.3s.4,0,.6.2c.4.2.5.5.5.9s0,.5-.3.9c-.6,1.4-1.3,3.2-2.1,5.5-.5,1.3-1.2,1.9-2.1,1.9s-2.1-.7-3.3-2.2c-1.4-1.6-2.5-3.7-3.5-6.4-.8-2.3-1.4-4.9-1.7-7.8-.4-3.3-.5-5.6-.5-6.9s.6-2.2,1.8-2.2h0,0ZM487.9,72.2c.4,0,.8.2,1.1.6,1.6,1.8,3.3,4.3,5.1,7.4,1.6,2.7,2.4,4.5,2.4,5.3s-.3,1.1-.8,1.4c-.3.2-.7.3-1,.3-.6,0-1.1-.3-1.4-.8,0,0-.2-.5-.5-1.2-1.7-4.2-3.6-7.8-5.7-10.6-.4-.4-.5-.9-.5-1.2s.1-.6.4-.8c.3-.3.7-.5,1.1-.5h0Z"/>
  <path class="st2" d="M517.7,71.3v-4.6c0-1,.5-1.5,1.5-1.5s1.5.5,1.5,1.5v4.4c2.2,0,3.9-.2,5.2-.2s2.3.5,2.3,1.5-.7,1.5-2,1.5-3.4,0-5.5.1v6.5c1.7-.2,3-.4,4-.6.3,0,.6-.1.8-.1,1,0,1.5.5,1.5,1.6s-.5,1.2-1.4,1.4c-1.3.3-3,.5-4.9.7v8.3c2.6,1,5.1,2.2,7.5,3.6.8.4,1.2,1,1.2,1.7s0,.5-.2.7c-.3.6-.7.9-1.3.9s-.7-.2-1.2-.5c-1.9-1.2-4-2.3-6.3-3.4-.6,1.8-1.7,3-3.3,3.7-1.2.5-2.8.7-4.7.7s-4.2-.6-5.8-1.8c-1.2-1-1.9-2.1-1.9-3.4s.3-1.4,1-2c1.5-1.4,3.5-2.2,6-2.2s3.7.3,6.1,1.1v-7c-1.6,0-3,.1-4.2.1-2.1,0-3.5,0-4.2-.2-.9-.1-1.4-.6-1.4-1.5s.5-1.5,1.4-1.5.4,0,.7,0c.7,0,1.6,0,2.8,0,1.7,0,3.4,0,4.8-.2v-6.5c-4.1.3-7.5.7-10.1,1.2-.2,0-.4,0-.6,0-1,0-1.5-.5-1.5-1.5s.6-1.3,1.7-1.6c3-.5,6.5-.9,10.5-1.2h0s0,0,0,0ZM517.4,93.6c-2.4-.8-4.4-1.3-5.9-1.3s-2.2.3-3,.8c-.5.3-.7.6-.7.9,0,.5.3.9.9,1.4.9.7,2.1,1,3.6,1,2.5,0,4.1-.6,4.8-1.9,0-.2.2-.5.3-.9h0,0Z"/>
  <path class="st2" d="M555.6,72.2c0-1.9,0-3.1-.1-3.5,0-1.1,0-1.8,0-2.3,0-1.2.5-1.8,1.6-1.8s1.5.4,1.6,1.3c0,.1,0,1.5.2,4.1v1.4s0,.5,0,.5c6.1-.5,9.5-.8,10.4-.8s1.6.5,1.6,1.5-.3,1.2-1,1.5c-.2,0-.7,0-1.4.1-2.2,0-5.1.3-8.8.5h-.8c0,3.1,0,5.6,0,7.4v3.4c0,1.2-.2,2.1-.7,2.8-.2,4.6-1.6,8.1-4.3,10.5-1.3,1.2-2.4,1.8-3.1,1.8s-.6,0-.8-.3c-.2-.2-.3-.5-.3-.7,0-.4.4-1,1.1-1.6,1.8-1.6,3.1-3.7,3.8-6.3-.6.2-1.1.3-1.6.3-1,0-2.2-.5-3.5-1.6-2-1.7-3.1-3.6-3.1-5.8s.7-2.7,2-4.1c1.5-1.5,3-2.2,4.4-2.2s1.9.4,2.8,1.2c0-1.2,0-2.6,0-4.1v-.3c-6,.6-11.4,1.1-16.3,1.8-.3,0-.6,0-.7,0-1.2,0-1.7-.5-1.7-1.6s.5-1.4,1.5-1.5c3.7-.4,9.4-1,17.2-1.6h0s0,0,0,0ZM555.1,88.2c0-2.4-.2-4.2-.5-5.3-.4-1.2-.9-1.8-1.7-1.8s-1.7.5-2.5,1.5c-.6.7-.9,1.3-.9,2,0,1.3.5,2.4,1.5,3.4.8.8,1.6,1.2,2.2,1.2s1.2-.3,1.8-1h0Z"/>
  <path class="st2" d="M594.1,72.8c.3.6.5,1.6.5,2.9,0,4.2-1.6,8.9-4.9,14.1-2.4,3.9-4.7,5.8-6.9,5.8s-2.8-.8-4-2.3c-1.5-1.9-2.2-4.5-2.2-7.6s1.2-6.3,3.7-9.1c2-2.2,4.4-3.9,7.3-5.1,2.6-1.1,5.3-1.6,8.2-1.6s7.2,1.2,9.8,3.6c2.8,2.6,4.2,5.8,4.2,9.9s-1.1,6.8-3.4,9.5c-1.7,2-3.9,3.6-6.6,4.7-.5.2-.8.3-1.2.3s-.8-.2-1-.4c-.2-.2-.2-.4-.2-.6,0-.3.1-.6.4-.9.1-.1.7-.5,1.7-1,1.5-.9,2.9-2.1,4.1-3.6,1.8-2.3,2.7-4.9,2.7-7.8s-1.2-6.1-3.6-8.2c-2-1.7-4.3-2.6-6.9-2.6h-1.6c0,0-.1,0-.1,0h0ZM591.3,73.3c-4.2,1.2-7.3,3.3-9.5,6.3-1.4,2-2.1,4-2.1,6s.5,4.1,1.4,5.5c.6.9,1.2,1.4,1.8,1.4,1,0,2.3-1.2,3.8-3.4,1.5-2.3,2.8-4.9,3.7-7.6.7-2.2,1.1-4.1,1.1-5.8s0-1.3-.1-2.3h0Z"/>
  <path class="st2" d="M638.5,73.3c-5.5,1.1-11,2.1-16.5,2.9-2.1.3-3.3.5-3.5.5-1.2,0-1.7-.6-1.7-1.8s.3-1.1,1-1.3c.2,0,1-.2,2.3-.3,2.6-.3,6.2-.7,10.8-1.5,4.4-.7,8.3-1.4,11.7-2.1.5,0,.8-.2,1.2-.2.8,0,1.4.3,1.7.9.2.4.3.8.3,1.1,0,.6-.5,1.1-1.5,1.5-2.6,1.1-4.9,2.9-6.9,5.3-2.3,2.9-3.5,5.9-3.5,8.9s.8,4.3,2.5,6c1.4,1.4,3,2.4,5,2.9,1,.3,1.5.9,1.5,1.8s-.6,1.6-1.7,1.6-2.6-.6-4.4-1.7c-4.1-2.5-6.2-5.9-6.2-10.3s.5-4.4,1.6-6.7c1.4-2.8,3.5-5.3,6.4-7.5h0ZM646.6,65.9c.3,0,.7.2,1.2.5,1.7,1.2,3,2.5,4,3.9.3.4.4.7.4,1.1s-.1.7-.4,1c-.3.2-.5.3-.9.3s-.8-.3-1.2-.9c-.9-1.5-2-2.8-3.2-4-.4-.4-.6-.8-.6-1.1,0-.5.3-.8.8-.8h0ZM650.3,63.3c.7,0,1.8.7,3.4,2.1,1.3,1.2,2,2.2,2,2.9s-.2.8-.5,1c-.3.2-.5.3-.8.3-.4,0-.8-.3-1.2-.8-1-1.4-2-2.6-3.2-3.7-.4-.4-.6-.7-.6-1,0-.5.3-.8.8-.8h0Z"/>
  <path class="st2" d="M660.2,91.5c.4,0,.9.2,1.4.6,2.5,1.9,4.4,3.9,5.7,5.9.3.5.5,1,.5,1.4,0,.7-.3,1.2-.8,1.5-.4.3-.8.4-1.1.4s-1.1-.4-1.7-1.2c-1.7-2.5-3.4-4.5-5-5.9-.4-.4-.6-.8-.6-1.2s.1-.7.4-1c.3-.4.7-.6,1.1-.6h0Z"/>
  <path class="st2" d="M67.4,125.8c0-1.8,0-3.5,0-4.8s.1-2.1.3-2.4c.3-.4.7-.6,1.2-.6,1.1,0,1.6.6,1.6,1.8v5.3c1.8-.4,3.1-.8,3.8-1.1.4-.1.7-.2,1-.2.7,0,1.1.3,1.4.8.1.2.2.5.2.8,0,.7-.4,1.2-1.3,1.5-.9.3-2.6.8-5.1,1.4,0,.7,0,1.8,0,3.3,0,2.7,0,4.5,0,5.4,3.8-1.6,7.6-2.3,11.3-2.3s4.2.4,5.8,1.3c2.4,1.3,3.6,3.4,3.6,6.2s-.8,4.8-2.3,6.2c-1.6,1.5-3.9,2.2-6.9,2.2s-1.7,0-2.2-.2c-.7-.2-1.1-.6-1.1-1.2s.4-1.1,1.1-1.1h1c2.2,0,3.8-.4,5.1-1.4,1.2-.9,1.8-2.3,1.8-4.1s-.6-2.9-1.8-3.8c-1.1-.9-2.6-1.3-4.6-1.3-3.5,0-7.2.9-11.1,2.6,0,3,0,5.7,0,8.1s-.2,2.2-.6,2.8c-.5.7-1.3,1.1-2.4,1.1-1.8,0-3.7-.8-5.6-2.3-1.4-1.1-2.1-2.2-2.1-3.3,0-2.5,2.5-5.2,7.6-7.9v-.8s0-2.5,0-2.5v-2.6s0-2.6,0-2.6v-.8c-3.2.8-5.3,1.1-6.3,1.1s-1.7-.5-1.7-1.6.6-1.4,1.9-1.6c1.6-.2,3.6-.6,6-1.2h0ZM67.6,141.5c-3.1,1.8-4.6,3.3-4.6,4.6s.6,1.2,1.7,1.9c.9.6,1.7.9,2.3.9s.5-.2.6-.6c0-.2,0-.8,0-1.7s0-2.4,0-4.6v-.5h0ZM83.4,120.7c1.1,0,2.8.9,5.1,2.6.9.7,1.6,1.3,2.2,1.8.4.4.6.8.6,1.3s-.2.9-.7,1.3c-.3.2-.6.3-.9.3-.5,0-1.1-.3-1.8-1.1-1.2-1.2-2.7-2.6-4.6-3.9-.6-.4-.9-.9-.9-1.3,0-.7.3-1,1-1h0Z"/>
  <path class="st2" d="M115,142.4l-7.9.5v.6c0,.1,0,.2,0,.3,0,.4-.1.7-.4.9-.3.3-.7.4-1.1.4-.9,0-1.5-.5-1.6-1.4l-2.3-18.5c0-.2,0-.4,0-.5,0-.6.3-1,.8-1.2.3-.1.5-.2.8-.2.9,0,1.5.4,1.7,1.1l10-.9v-6.2c0-.4.1-.7.3-.9.3-.3.7-.5,1.2-.5s1.1.2,1.4.7c.1.2.2.5.2.8v6l10.1-.9c.2,0,.4,0,.5,0,1.9,0,2.9,1,2.9,3s0,.5,0,.6l-1.4,16.5c0,.9-.6,1.4-1.5,1.4s-1.2-.3-1.4-.8c-.1-.3-.2-.6-.2-.9v-.6s-9,.6-9,.6v10.4c0,.4-.1.7-.3.9-.3.3-.7.5-1.2.5s-1.1-.2-1.4-.7c-.1-.2-.2-.5-.2-.7v-10.1h0ZM115,131.4v-5.2l-9.7.8.6,5,9.1-.7h0ZM115,133.9l-8.8.7.6,5.7,8.2-.6v-5.8h0ZM118.1,131.1l9.9-.8.3-3.6c0-.2,0-.3,0-.4,0-.8-.4-1.2-1.2-1.2h-.3l-8.8.8v5.2h0ZM118.1,139.5l9.2-.6.5-6-9.7.8v5.9h0Z"/>
  <path class="st2" d="M147.7,146.1c2.2,0,5.2.4,8.8,1.2,7,1.4,14.1,2.2,21.2,2.5,1.6,0,2.5.3,2.5.6s-.4.6-1.2,1.2c-1.3,1-2.6,1.5-3.9,1.5s-1.2,0-2.3-.2c-5.2-.7-11.2-1.8-18-3.5-2.8-.7-5.3-1-7.6-1s-2.7.3-4.6.9c-.3,0-.5.1-.7.1-.5,0-.9-.2-1.1-.7-.1-.2-.2-.5-.2-.7,0-.6.4-1.1,1.1-1.3.6-.2,1.4-.3,2.5-.4,2.9-2.7,4.3-4.5,4.3-5.3s-.4-.7-1.1-1.1c-.8-.5-1.2-1-1.2-1.7s.7-2.8,2.1-5.8l-5.4,1.3c-.3,0-.5,0-.6,0-.6,0-1-.2-1.2-.7-.1-.3-.2-.5-.2-.8,0-.7.4-1.2,1.2-1.3l7.6-1.4c.2,0,.5,0,.7,0,.6,0,1.1.2,1.4.5.3.3.4.6.4,1.1,0,.6-.3,1.3-.9,2.1-.6.8-1.2,1.9-1.9,3.3-.2.4-.3.8-.3,1,0,.4.3.7,1,1,.2,0,.6.3,1.2.6.9.4,1.3,1,1.3,1.5s-.4,1.4-1.3,2.3c-.7.7-1.9,1.8-3.6,3.2h0ZM144.3,117.7c.4,0,.8.2,1.3.4,2.4,1.4,4.1,2.6,5.1,3.5.5.5.8,1,.8,1.5s-.1.7-.4,1c-.3.4-.7.7-1.3.7s-1.2-.3-1.8-1.1c-.9-1-2.3-2.3-4-3.8-.5-.4-.7-.8-.7-1.2,0-.7.3-1.1,1-1.1h0,0ZM165.1,131.8c-2.1,4.7-5.1,8.7-9,12-1.1,1-1.9,1.5-2.3,1.5s-.5-.1-.7-.3c-.2-.3-.4-.5-.4-.8s.1-.6.4-.8c0,0,.4-.4,1.1-1.1,2.3-2.1,4.3-4.6,6.1-7.8,1.3-2.3,2.3-4.5,3-6.7-1.1-2.6-2-5.3-2.9-8.2-.1-.5-.2-.8-.2-1,0-.4.2-.8.6-1,.3-.2.6-.2.9-.2.5,0,.8.2,1.1.6.1.2.4,1.1.9,2.9,2.6,9.7,7.2,17,13.6,21.8,1,.8,1.6,1.3,1.6,1.7s-.2.4-.7.6c-.9.3-1.7.4-2.6.4s-1.4-.3-2-.8c-2.9-2.8-5.7-7-8.5-12.7h0s0,0,0,0Z"/>
  <path class="st2" d="M203.1,122.1c-1.6.5-3.8.9-6.6,1.3-1.9.3-3.1.4-3.5.4-1,0-1.5-.5-1.5-1.5s.2-1,.6-1.3c.3-.2.8-.3,1.7-.3,3.3-.1,6.3-.6,9.1-1.3.5-.1.9-.2,1.2-.2.7,0,1.2.2,1.6.7.4.5.6,1,.6,1.6s-.2,1.1-.6,1.9c-1.8,3.7-3.9,7.6-6.1,11.7,3.9.3,7.9.9,11.9,2,.3-1.3.6-2.9.8-4.6.1-1,.6-1.5,1.6-1.5s1.5.5,1.5,1.6-.3,3.3-.8,5.5c1.5.5,2.6.9,3.4,1.3.8.3,1.2.9,1.2,1.6s0,.6-.2.8c-.3.5-.7.7-1.2.7s-.6,0-.9-.2c-.9-.4-1.9-.8-3.1-1.3-1.6,4.3-4,7.6-6.9,9.7-.7.5-1.2.7-1.7.7s-.9-.3-.9-.9.3-.8.8-1.3c2.4-2.3,4.3-5.4,5.7-9.2-4.5-1.3-8.7-2.1-12.6-2.2-2.4,4.2-4.1,6.8-5,7.8-1.4,1.7-2.8,2.5-4.2,2.5s-1.7-.4-2.4-1.2c-1.2-1.3-1.8-2.9-1.8-4.9,0-4.2,3.9-6.4,11.7-6.8,2.4-4.4,4.6-8.7,6.5-12.9h0c0-.1,0-.1,0-.1h0ZM195.1,138c-2.2.1-3.8.6-5.1,1.2-1.4.8-2.1,1.7-2.1,2.9s.2,1.7.5,2.3c.3.5.6.7.9.7.7,0,1.6-.7,2.5-2,.8-1.2,1.9-2.9,3.2-5.1h0Z"/>
  <path class="st2" d="M230.6,144.8v-.3c1.1-2.3,1.8-3.6,2.1-4.2.2-.4.5-.6.8-.6s.3,0,.5.1c.3.2.5.5.5.8s0,.4-.2.8c-1.1,2.8-1.8,5.1-2,6.8,0,.6-.3,1.1-.6,1.5-.3.4-.7.6-1.1.6-.8,0-1.4-.6-1.9-1.6-.9-2-1.4-5.1-1.4-9.2s.3-8.3.9-14.8c.2-2.1.3-3.4.4-3.7.2-.9.8-1.4,1.6-1.4s1,.2,1.3.6c.2.3.3.6.3,1.1s0,.7-.2,1.4c-.4,3.1-.8,7.1-1.2,11.9-.1,2-.2,3.6-.2,4.8s.1,3.2.4,5.4h0ZM248.7,125.9v-6.2c0-.9.5-1.4,1.5-1.4s1.5.5,1.5,1.4v5.9h.4s2.9-.3,2.9-.3c1,0,1.6-.1,1.7-.1,1,0,1.5.5,1.5,1.5s-.4,1.2-1,1.4c-.1,0-1.4.2-3.7.4-.1,0-.7,0-1.7.2,0,4.7,0,9.3.2,13.8,2.6,1.2,4.6,2.3,5.9,3.2.7.5,1.1,1.1,1.1,1.6s-.2.9-.5,1.2c-.2.2-.5.3-.8.3s-.9-.2-1.5-.6c-1.2-.9-2.6-1.8-4.2-2.6-.4,2.8-2.5,4.1-6.2,4.1s-4.8-.7-6.5-2.1c-1.2-1-1.9-2.2-1.9-3.4s.6-2.4,1.7-3.1c1-.7,2.3-1,3.9-1s3.5.4,5.9,1.1c-.1-4.9-.2-9-.2-12.3-2.2.2-5,.5-8.3.9-.3,0-.4,0-.6,0-1,0-1.5-.5-1.5-1.5s.4-1.1,1.1-1.3c.1,0,1.7-.2,4.8-.6l3.9-.4h.6c0,0,0,0,0,0h0ZM249,144.1c-2.5-1-4.4-1.5-5.8-1.5s-2.5.5-2.5,1.5.4,1.2,1.1,1.7c1,.7,2.3,1,4,1s2.4-.3,2.8-.8c.3-.4.4-.9.4-1.8v-.2h0Z"/>
  <path class="st2" d="M273.2,125.8c0-1.8,0-3.5,0-4.8s.1-2.1.3-2.4c.3-.4.7-.6,1.2-.6,1.1,0,1.6.6,1.6,1.8v5.3c1.8-.4,3-.8,3.8-1.1.4-.1.7-.2,1-.2.7,0,1.1.3,1.4.8.1.2.2.5.2.8,0,.7-.4,1.2-1.3,1.5-.9.3-2.6.8-5.1,1.4,0,.7,0,1.8,0,3.3,0,2.7,0,4.5,0,5.4,3.8-1.6,7.6-2.3,11.3-2.3s4.2.4,5.8,1.3c2.4,1.3,3.6,3.4,3.6,6.2s-.8,4.8-2.4,6.2c-1.6,1.5-3.9,2.2-6.9,2.2s-1.7,0-2.2-.2c-.7-.2-1.1-.6-1.1-1.2s.4-1.1,1.1-1.1h1c2.1,0,3.8-.4,5.1-1.4,1.2-.9,1.9-2.3,1.9-4.1s-.6-2.9-1.8-3.8c-1.1-.9-2.6-1.3-4.5-1.3-3.5,0-7.2.9-11.1,2.6,0,3,.1,5.7.1,8.1s-.2,2.2-.6,2.8c-.5.7-1.3,1.1-2.4,1.1-1.8,0-3.7-.8-5.6-2.3-1.4-1.1-2.1-2.2-2.1-3.3,0-2.5,2.5-5.2,7.6-7.9v-.8s0-2.5,0-2.5v-2.6s0-2.6,0-2.6v-.8c-3.2.8-5.3,1.1-6.3,1.1s-1.7-.5-1.7-1.6.6-1.4,1.9-1.6c1.6-.2,3.6-.6,6-1.2h0s0,0,0,0ZM273.5,141.5c-3,1.8-4.6,3.3-4.6,4.6s.6,1.2,1.7,1.9c1,.6,1.7.9,2.3.9s.5-.2.6-.6c0-.2,0-.8,0-1.7s0-2.4,0-4.6v-.5h0ZM289.3,120.7c1.1,0,2.8.9,5.1,2.6.9.7,1.6,1.3,2.1,1.8.4.4.6.8.6,1.3s-.2.9-.7,1.3c-.3.2-.6.3-.9.3-.5,0-1.1-.3-1.8-1.1-1.2-1.2-2.7-2.6-4.6-3.9-.6-.4-.9-.9-.9-1.3,0-.7.3-1,1-1h0Z"/>
  <path class="st2" d="M324.2,134.9v4.9l15.8-1c.3,0,.5,0,.6.2.5.3.7.7.7,1.3,0,.9-.4,1.3-1.2,1.4l-15.9,1v9.9c0,.4-.1.7-.4.9-.3.3-.8.5-1.3.5s-1.1-.3-1.5-.8c-.1-.2-.2-.4-.2-.7v-9.7l-15.5,1c-.2,0-.4,0-.5,0-.6-.2-.8-.7-.8-1.3s.4-1.3,1.3-1.4l15.5-1v-4.9l-6.9.5h0c0,.6-.2,1-.6,1.2-.3.2-.6.3-1,.3-1,0-1.5-.5-1.6-1.4l-1.7-16c0-.1,0-.2,0-.2,0-.6.3-.9.8-1.2.3-.1.5-.2.8-.2.6,0,1.1.3,1.4.8l20.7-1.6c0,0,.2,0,.4,0,1.9,0,2.8.9,2.8,2.6s0,.3,0,.5l-1.9,14.3c-.1,1-.6,1.4-1.6,1.4s-.8-.1-1.1-.4c-.2-.3-.4-.6-.4-.9s0-.2,0-.3v-.3s-6.9.5-6.9.5h0s0,0,0,0ZM332.3,124.5l.4-3.6c0,0,0-.1,0-.2,0-.3-.1-.5-.3-.6-.2-.1-.4-.2-.6-.1h0s-19.2,1.5-19.2,1.5l.5,4.4,19.3-1.4h0ZM332,127.1l-18.7,1.3.5,4.6,17.7-1.3.5-4.6Z"/>
  <path class="st2" d="M366.7,125.4c.5-2.1.9-4.1,1.1-5.9.1-1,.7-1.5,1.6-1.5s1.7.5,1.7,1.5-.4,2.8-1.2,5.8c4,.5,7,2.1,9,4.8,1.7,2.2,2.5,4.9,2.5,8.2s-1,6-3,8.5c-1.6,1.9-3.5,3.5-6,4.7-.5.2-.9.4-1.3.4s-.8-.2-1-.5c-.1-.2-.2-.4-.2-.6,0-.3.1-.6.5-.9.1-.1.6-.4,1.5-1,2.3-1.5,4.1-3.5,5.2-6.2.6-1.4,1-2.9,1-4.4,0-3.6-1.2-6.3-3.7-8.2-1.4-1-3.1-1.7-5.2-1.9-1.8,5.5-4,10.3-6.7,14.2.8,1.4,1.4,2.6,2,3.4.4.5.6,1,.6,1.5s-.2.9-.6,1.2c-.3.2-.6.3-.9.3-.5,0-1-.3-1.4-.9-.6-.9-1.2-1.8-1.7-2.8-2.7,3.2-5,4.8-6.8,4.8s-2.1-.5-3-1.5c-1.6-1.7-2.3-3.9-2.3-6.7s2-7.4,6.1-11c-.7-2.4-1.3-4.4-1.9-5.9,0-.2-.1-.5-.1-.7,0-.5.2-.9.6-1.2.3-.2.6-.4,1-.4.7,0,1.1.3,1.4.9.2.4.5,1.6,1.1,3.6.1.5.3,1,.5,1.8,3.1-1.9,6.4-3.1,9.8-3.4h0ZM355.1,133.6c-2.6,2.7-4,5.3-4,8s.4,3.1,1.1,4.2c.5.7,1,1,1.5,1,1.1,0,2.9-1.5,5.1-4.6-1.5-2.9-2.7-5.8-3.7-8.6h0ZM365.9,128.3c-3,.5-5.8,1.6-8.3,3.3.9,2.8,2,5.5,3.3,8.1,2-3.4,3.6-7.2,5-11.3h0Z"/>
  <path class="st3" d="M394,144.1c.9-2.1,1.5-3.6,1.9-4.4.2-.5.5-.7.8-.7s.3,0,.5.1c.3.2.5.5.5.8s0,.4-.2.8c-1,2.8-1.7,5.1-1.9,6.8,0,.6-.3,1.1-.6,1.5-.3.4-.6.6-1,.6-.8,0-1.4-.6-1.9-1.7-.9-2.1-1.3-5.1-1.3-9.2s.4-8.7,1.1-15.7c.1-1.1.2-1.7.3-2,.2-.7.7-1.1,1.5-1.1s.9.2,1.2.6c.2.3.3.6.3,1.1s0,.7-.2,1.4c-.4,2.7-.8,6.3-1.1,10.9-.1,1.9-.2,3.4-.2,4.6s.1,3.2.4,5.5h0,0ZM404.6,140.4c.4,0,.8.2,1.1.6,1.5,2.1,5,3.1,10.5,3.1s1.1,0,1.5,0c.2,0,.4,0,.5,0,.6,0,1.1.2,1.4.6.2.3.3.6.3,1,0,.6-.2,1.1-.7,1.5-.3.2-.9.4-1.9.4-2.9,0-5.5-.3-7.8-.9-2.3-.6-4-1.6-5.1-3.1-.6-.7-.9-1.3-.9-1.9s.1-.6.3-.8c.2-.3.5-.4.9-.4h0ZM415.9,126.3c-2.5,0-5.8.6-9.8,1.9-.4.1-.7.2-.9.2-.6,0-1-.3-1.2-.8,0-.2-.1-.4-.1-.6,0-.5.4-.9,1.2-1.3,2.3-1,4.6-1.7,7.1-2.2,1.4-.3,2.5-.4,3.6-.4,2,0,3,.6,3,1.7s-.6,1.5-1.8,1.5h-1s0,0,0,0Z"/>
  <path class="st2" d="M435.1,146.5c.5,0,1,.1,1.5.4,1,.6,1.4,1.4,1.4,2.5s-.3,1.4-.8,2c-.6.6-1.3,1-2.2,1s-1-.1-1.4-.4c-1-.6-1.6-1.5-1.6-2.6s.3-1.6.9-2.1c.6-.6,1.3-.8,2.1-.8h0ZM436.5,141.6c0,1.1-.5,1.6-1.4,1.6s-1.4-.5-1.4-1.6l-1-22.8v-.2c0-.5.1-.8.4-1.2.5-.6,1.1-.9,2-.9s1.4.3,1.9.8c.4.4.5.8.5,1.4l-1,22.8h0Z"/>
  <path class="st4" d="M697.1,223.8c.2.3.4.6.6,1,.7,1.6.2,3.6-.8,5s-2.6,2.5-4.1,3.4c-7,4.4-14.7,7.9-22.9,9.2-1.7.3-3.5.5-5.1,0-7.6-1.7-6.2-13.5-5.9-19.1.5-8.4,1.7-16.7,2.9-25,.1-.7.2-1.4.6-2,.8-1.3,2.7-1.5,4-.7s2,2.3,2.2,3.8,0,3-.3,4.5c-.8,4.8-1.4,9.7-1.9,14.6s-1.4,10-1,14.7c.3,3.7,4.5,1.9,7,1,2.3-.8,4.6-1.9,6.9-2.9,3.7-1.6,7.4-3.2,10.5-5.8,1.9-1.6,5.2-4.6,7.3-1.8h0Z"/>
  <path class="st1" d="M714.9,94.4c43.3,27.4-1.1,78.2-32.8,118.5"/>
</svg>