<?xml version="1.0" encoding="UTF-8"?>
<svg id="Layer_1" data-name="Layer 1" xmlns="http://www.w3.org/2000/svg" xmlns:xlink="http://www.w3.org/1999/xlink" viewBox="0 0 1920 304.86">
  <defs>
    <style>
      .cls-1 {
        fill: none;
      }

      .cls-2 {
        fill: #5d3d2d;
        opacity: .06;
      }

      .cls-3 {
        fill: #fff;
      }

      .cls-4 {
        fill: #7cc163;
      }

      .cls-5 {
        clip-path: url(#clippath);
      }
    </style>
    <clipPath id="clippath">
      <rect class="cls-1" width="1920" height="304.86"/>
    </clipPath>
  </defs>
  <g class="cls-5">
    <g>
      <path class="cls-2" d="M-132.85-90.03c1.28,8.36,2.55,16.72,3.83,25.08,33.71,209.04,220.51,400.47,415.08,365.71,499.87-89.3,1046.31-124.14,1548.9-96,191.02,10.7,320.11-145.81,356.38-294.79H-132.85Z"/>
      <path class="cls-3" d="M-132.85-100.03c1.28,8.36,2.55,16.72,3.83,25.08C-95.31,134.09,88.83,270.75,284.22,240.25c496.05-73.87,999.57-103.36,1503.68-87.91,191.31,4.19,367.18-103.4,403.45-252.38H-132.85Z"/>
      <path class="cls-4" d="M-34.19-110.03l10.7,53.65C5.68,83.69,121.32,181.6,251.52,176.42c12.8-.52,25.79-2.04,39.25-4.69C702.1,93.61,1123.82,45.58,1544.22,28.9c87.2-3.46,175.66-5.64,262.11-6.41,2.86-.05,5.71-.14,8.59-.27,115.43-4.58,217.58-58.5,265.19-132.26H-34.19Z"/>
    </g>
  </g>
</svg>