<?xml version="1.0" encoding="UTF-8"?>
<svg id="Layer_1" data-name="Layer 1" xmlns="http://www.w3.org/2000/svg" viewBox="0 0 490.45 376.2">
  <defs>
    <style>
      .cls-1 {
        fill: #f06882;
      }

      .cls-2 {
        fill: #f16a5b;
      }

      .cls-3 {
        fill: #009eda;
      }

      .cls-4 {
        opacity: .2;
      }

      .cls-4, .cls-5 {
        fill: #5d3d2d;
      }

      .cls-6 {
        fill: #fdc56b;
      }

      .cls-7 {
        fill: #5f657f;
      }

      .cls-8 {
        fill: #f59f5f;
      }

      .cls-9 {
        fill: #cde8f8;
      }

      .cls-10 {
        fill: #c2151c;
      }

      .cls-11 {
        fill: #ef5323;
      }

      .cls-12 {
        fill: #ecbbcc;
      }

      .cls-13 {
        fill: #fff8ed;
      }

      .cls-14 {
        fill: #543e59;
      }

      .cls-15 {
        fill: #ffd140;
      }
    </style>
  </defs>
  <g>
    <path class="cls-12" d="M288.16,310.19c-.51-.07-1.07-.15-1.61-.23-.39-.06-.82-.16-.87-.62-.06-.58.49-.69.87-.76,1.64-.3,3.29-.58,4.95-.78,7.49-.93,14.88-2.44,22.35-3.53,1.91-.28,3.83-.47,5.74-.68.62-.07,1.29-.08,1.43.71.13.74-.46,1.07-1.02,1.29-1.58.6-3.27.66-4.92.91-6.73,1.04-13.47,2.06-20.21,3.02-2.2.32-4.43.44-6.7.66Z"/>
    <g>
      <path class="cls-12" d="M221.13,262.52c-.96,2.25-1.94,4.43-2.82,6.65-3.35,8.42-6.94,16.73-11.59,24.54-.51.85-1.01,1.7-1.55,2.52-.86,1.31-1.96,1.72-3.03,1.17-1.04-.54-1.37-1.71-.82-3.15.58-1.52,1.3-3,1.82-4.54,6.1-18.43,13.34-36.43,20.37-54.51,1.52-3.92,2.85-7.92,4.55-11.77.58-1.31.67-2.73.77-4.15.17-2.65.46-5.29,1.41-7.8.2-.53.44-1.03.87-1.41.94-.83,1.98-1,3.09-.42,1.02.54,1.59,1.83,1.3,3.1-.22.96-.57,1.89-.83,2.84-.44,1.58-.64,3.17-.66,4.82-.02,1.59-.38,3.19-1.13,4.6-2.54,4.77-3.99,9.95-5.87,14.97-.95,2.52-1.93,5.03-2.75,7.61.37-.7.74-1.4,1.13-2.09.58-1.02,1.3-1.91,2.64-1.6,1.31.31,1.51,1.37,1.45,2.53,0,.11.05.23.13.6.75-1.83,1.42-3.43,2.08-5.04,2.29-5.6,4.85-11.09,6.98-16.76.39-1.02,1.09-1.7,2.26-1.45,1.13.24,1.4,1.14,1.41,2.16,0,.56,0,1.11,0,1.95.56-.97,1.12-1.62,2.01-1.87.75-.21,1.23-.06,1.49.73.23.68.28,1.34.14,2.03-2.25,10.72-3.11,21.66-4.91,32.45-1.53,9.2-4.06,18.17-6.21,27.23-.26,1.08-.64,2.15-1.13,3.14-.72,1.43-2.12,1.86-3.19,1.13-1.08-.75-1.26-2.42-.27-3.53.52-.58.79-1.2.96-1.92,3.28-14.35,6.51-28.71,8.17-43.37.14-1.27.36-2.54.36-3.85-1.04,3.64-2.11,7.27-3.13,10.91-3.41,12.24-7.08,24.4-11.02,36.48-.47,1.43-1.05,2.82-1.65,4.19-.36.83-.85,1.79-1.98,1.38-1.07-.39-.98-1.42-.72-2.32,1.32-4.58,2.64-9.16,4.01-13.72,2.97-9.91,5.98-19.8,8.73-29.8-.93,2.34-1.9,4.66-2.79,7.02-2.79,7.34-5.12,14.85-8.14,22.11-2.55,6.14-5.33,12.19-7.68,18.42-.15.4-.32.82-.59,1.13-.6.7-1.35,1.1-2.28.64-.87-.43-1.26-1.18-1.05-2.13.16-.75.41-1.49.73-2.2,4.12-9.31,6.35-19.22,9.07-28.97.05-.19.17-.4-.12-.7Z"/>
      <path class="cls-12" d="M281.29,232.12c-1.28,4.04-1.92,8.19-2.51,12.35-1.35,9.53-3.22,18.96-5.09,28.39-.32,1.64-.48,3.31-.71,4.97-.04.3-.06.6-.14.89-.28.98-.73,1.79-1.94,1.64-.97-.12-1.61-1.02-1.48-2.22.2-1.92.47-3.83.72-5.75.77-5.88,1.31-11.77,1.45-17.7.06-2.53,0-5.06.07-7.59-.51,8.59-1.64,17.12-3.3,25.57-.31,1.6-.64,3.2-1.03,4.78-.43,1.76-1.25,2.58-2.34,2.45-1.15-.14-1.82-1.17-1.87-2.98-.11-3.57.19-7.12.37-10.68.27-5.44.59-10.88.43-16.37-.66,3.34-1.29,6.69-2,10.02-1.38,6.52-2.02,13.15-3.09,19.71-.13.8-.32,1.6-.58,2.37-.39,1.17-1.34,1.78-2.32,1.59-1.01-.2-1.72-1.23-1.56-2.47.22-1.74.54-3.48.8-5.22.94-6.32.78-12.66.56-19.02-.28-8.2-1.24-16.35-1.75-24.53-.02-.39-.15-.85.3-1.01.47-.16.65.32.85.63,1.95,2.95,2.62,6.32,3.16,9.72.69,4.37,1.01,8.78,1.51,13.22.32-1.63.63-3.27.97-4.9.8-3.91,1.28-7.88,2.28-11.75.16-.62.35-1.24.61-1.83.38-.86,1.06-1.36,2.02-1.32.99.04,1.53.7,1.84,1.56.3.82.33,1.68.33,2.54,0,3.25,0,6.5.03,9.75.49-5.25.94-10.51,1.91-15.71.09-.51.18-1.01.31-1.51.46-1.86,1.31-2.81,2.44-2.73,1.13.08,1.9,1.1,2.16,2.98.22,1.62.38,3.24.37,4.88-.01,3.09,0,6.17.14,9.28.58-3.2,1.17-6.39,1.74-9.59.69-3.89,1.81-7.68,2.78-11.51.23-.89.72-1.61,1.71-1.69.96-.08,1.62.48,2.01,1.33.65,1.42.91,2.95,1.15,4.48.72,4.58.26,9.17.14,13.75-.08,2.87-.3,5.74-.37,8.62-.17,6.35-.09,12.71-.79,19.03-.15,1.37-.39,2.72-.85,4.02-.17.48-.41.95-.71,1.36-.39.55-.92.97-1.64.63-.74-.35-.78-1.11-.51-1.67.81-1.65.73-3.42.86-5.17.1-1.37.15-2.74.17-4.12.11-6.74.14-13.48.33-20.22.13-4.42.21-8.84.09-13.26Z"/>
      <path class="cls-12" d="M239.18,305.79c1.19-.21,2.14-.36,3.09-.54,12.33-2.33,24.36-5.84,36.49-8.99,12.29-3.19,24.6-6.33,37.02-9,.79-.17,1.61-.28,2.42-.35.74-.07,1.47.12,1.55.98.07.76-.58,1.06-1.24,1.23-4.53,1.14-9.06,2.31-13.6,3.44-16.82,4.18-33.49,8.99-50.33,13.1-6.59,1.61-13.27,2.78-19.96,3.88-1.52.25-3.18-.81-3.52-2.3-.26-1.15.53-1.73,1.4-2.19,2.93-1.53,5.88-3,8.94-4.27,8.02-3.31,16.36-5.74,24.56-8.54,8.98-3.06,17.76-6.64,26.52-10.3.11-.05.2-.14.25-.41-2.31.5-4.63.97-6.93,1.5-15.27,3.5-30.35,7.72-45.34,12.29-3.57,1.09-7.26,1.74-10.85,2.7-2.83.75-5.69,1.07-8.52,1.68-.5.11-1.02.19-1.52.15-1.01-.08-1.71-.62-1.8-1.68-.08-1.05.47-1.72,1.47-1.97.79-.19,1.58-.35,2.41-.34,1.33.02,2.66.04,3.76-.96.23-.21.63-.28.96-.32,6.23-.72,12.09-2.89,18.01-4.77,16.13-5.11,32.41-9.64,49.03-12.85,3.66-.71,7.36-1.25,11.04-1.84,1.23-.2,2.48-.12,3.73-.1,1.58.02,3.15.29,4.75.06,1-.14,1.96.19,2.12,1.38.14,1.1-.63,1.73-1.59,1.84-8.41.93-15.8,4.82-23.35,8.14-12.19,5.37-24.68,9.92-37.35,14-4.08,1.31-8.12,2.79-12.08,4.45-.45.19-.99.25-1.52.9Z"/>
      <path class="cls-12" d="M267.63,314.17c5.87-.73,11.75-1.45,17.62-2.18.64-.08,1.28-.15,1.92,0,.84.18,1.4.67,1.54,1.52.13.81-.24,1.46-.95,1.81-1.46.72-2.94,1.42-4.45,2.02-1.9.76-3.84,1.42-6.1,2.25,2.22-.24,4.1-.43,5.97-.63.86-.09,1.72-.16,2.55.11,1.3.43,1.56,1.7.54,2.59-.52.46-1.18.68-1.82.94-9.71,3.96-19.87,6.25-30.14,8.16-.12.02-.24.06-.36.15,3.4.12,6.79-.08,10.17-.37,5.52-.48,10.95-1.62,16.47-2.02,1-.07,1.98,0,2.94.22.7.16,1.31.55,1.39,1.34.08.75-.29,1.34-.95,1.69-.87.46-1.74.95-2.66,1.29-6.9,2.53-13.87,4.8-21.06,6.33-.46.1-.93.16-1.4.18-.71.03-1.31-.22-1.46-.97-.15-.77.38-1.18,1.01-1.45.35-.15.73-.24,1.11-.33,6.06-1.58,12.04-3.44,17.99-5.48-2.29.28-4.58.54-6.87.83-5.79.75-11.61,1.16-17.45,1.17-2.41,0-4.8-.23-7.16-.7-.55-.11-1.1-.24-1.56-.56-.98-.69-.79-1.89.42-2.41,1.15-.49,2.41-.6,3.64-.8,8.01-1.27,15.96-2.9,23.8-4.98.12-.03.23-.1.32-.39-1.05.15-2.11.28-3.15.45-8.17,1.33-16.34,2.73-24.55,3.82-.34.04-.68.11-1.02.09-1.02-.07-1.89-.44-2.06-1.57-.16-1.08.39-1.83,1.38-2.21,2.22-.84,4.57-1.17,6.87-1.66,5.79-1.22,11.56-2.55,17.27-4.12.23-.06.52-.03.69-.39-3.53.47-7.01.94-10.49,1.39-5.75.75-11.53,1.13-17.33.92-.72-.03-1.45-.14-2.16-.31-.95-.23-1.61-.83-1.73-1.85-.12-1.02.41-1.72,1.25-2.21.83-.48,1.74-.71,2.66-.92,5.98-1.39,12.09-2.12,18.1-3.34,5.67-1.15,11.42-1.99,16.99-3.61.94-.27,1.86-.64,2.79-.98.62-.22,1.19-.2,1.65.32.5.57.45,1.19.09,1.79-.48.8-1.25,1.28-2.06,1.71-2.8,1.49-5.86,2.17-8.91,2.91-.45.11-.91.21-1.37.32.03.04.06.08.09.11Z"/>
      <path class="cls-12" d="M291.09,245.48c1.31-6.35,2.06-12.74,3.39-19.04.24-1.13.52-2.26.8-3.38.16-.63.32-1.38.86-1.69,1.14-.65,1.25-1.62,1.2-2.73-.01-.29.05-.6.12-.89.25-1.06.69-2.04,1.92-2.11,1.26-.06,1.95.8,2.26,1.92.62,2.25.73,4.58.86,6.89.45,8.28,1.86,16.46,2.29,24.74.07,1.39.01,2.79.17,4.19.77-2.44,1.01-4.95,1.32-7.44.63-5.15,1.5-10.28,1.64-15.48.02-.83.31-1.59,1.24-1.7.92-.11,1.39.55,1.64,1.34.43,1.34.36,2.74.22,4.09-.73,7.08-1.4,14.18-2.7,21.19-.42,2.29-1.2,4.47-2,6.65-.31.85-.6,1.68-.67,2.6-.09,1.19-1,1.98-2.01,1.94-1.03-.04-1.84-.88-1.92-2.06-.31-4.66-.71-9.32-.77-14-.08-6.06-.81-12.07-1.41-18.09-.21-2.12-.34-4.25-.52-6.59-.46.53-.46.99-.56,1.42-1.82,8.36-2.72,16.85-3.85,25.32-.66,4.94-1.53,9.84-2.82,14.66-.32,1.17-.78,2.27-1.48,3.27-.64.92-1.35,1.73-2.64,1.3-1.12-.37-1.74-1.51-1.49-2.95.34-1.99.53-4,.71-6.01.65-7.33.54-14.66.02-21.99-.33-4.62-.54-9.25-.89-13.87-.16-2.15.78-4.11.82-6.22.02-.8.71-1.25,1.5-1.37.91-.15,1.65.21,2.03,1.02.44.93.88,1.85,1.34,2.77.49.99.27,2-.67,2.62-.68.45-.82.99-.83,1.72-.09,4.82.34,9.61.64,14.4.07,1.19.16,2.38.24,3.56Z"/>
      <path class="cls-12" d="M249.29,235.49c-.25,4.25-1.03,8.99-1.81,13.73-1.34,8.17-2.4,16.38-3.6,24.56-.39,2.63-1.1,5.2-1.8,7.77-.44,1.6-1.22,2.24-2.22,1.94-1.09-.33-1.41-1.24-1.05-2.83,1.35-5.99,2.36-12.03,3.13-18.12,1.28-10.08,2.75-20.14,4.72-30.12.06-.29.12-.59.15-.89.06-.51.03-1.14.66-1.25.7-.13,1.07.44,1.34.99.55,1.16.49,2.42.49,4.22Z"/>
      <path class="cls-12" d="M287.82,305.27c-1.17,0-2-.33-2.15-1.33-.18-1.17.8-1.54,1.67-1.77,4.23-1.11,8.43-2.33,12.72-3.21,5.8-1.19,11.6-2.37,17.39-3.58,1.72-.36,3.4-.9,5-1.66.39-.18.82-.47,1.14,0,.32.47.05.9-.29,1.26-.57.61-1.31.97-2.04,1.32-3.46,1.69-7.21,2.47-10.92,3.36-7.01,1.68-14.04,3.25-20.97,5.26-.57.17-1.17.26-1.55.34Z"/>
      <g>
        <path class="cls-1" d="M260.32,245.1c5.85-18.69,22.83-28.75,41.94-27.42,2.63.18,3.37-3.67.67-4.12-19.36-3.25-42.56,10.47-45.6,30.64-.25,1.68,2.44,2.66,2.99.91h0Z"/>
        <path class="cls-1" d="M301.86,215.88c-.71,2.43-1.24,5.05-1.45,7.57-.12,1.48.13,3.02,1.49,3.85,1.49.91,3.15.09,4.64-.41,2.54-.86,5.09-1.67,7.61-2.6,2.39-.88,1.03-4.45-1.37-3.69-1.42.45-2.82.95-4.23,1.44-1.33.46-3.52.78-4.64,1.61-.55.14-.56.19-.04.15.55.13.71-.18.5-.92.23-.7.2-1.58.29-2.31.18-1.54.29-3.05.29-4.59,0-1.92-2.64-1.63-3.09-.09h0Z"/>
        <path class="cls-1" d="M311.01,222.79c3.82,7.62.99,18.07-3.06,25.03-2.28,3.92-5.37,7.43-8.81,10.36-3.34,2.85-7.26,4.64-10.74,7.23-1.83,1.36-.31,4.11,1.82,3.45,4.78-1.47,9.35-5.24,12.99-8.58,3.66-3.35,6.78-7.22,9.13-11.59,2.42-4.51,3.96-9.58,4.3-14.69.28-4.33.26-9.28-2.77-12.71-1.11-1.25-3.76-.3-2.86,1.5h0Z"/>
        <path class="cls-1" d="M290.06,269.11c8.49.76,16.37,3.9,22.07,10.44,4.69,5.39,7.32,12.3,5.88,19.43,1.05-.56,2.1-1.12,3.14-1.68-5.75-3.2-11.05,3.1-7.78,8.45.35-1.13.7-2.26,1.05-3.39-5.47,2.1-11.05,3.66-16.96,3.11-3-.28-6.1-.87-8.96-1.82-3.39-1.13-5.81-2.95-8.53-5.16-1.78-1.46-4.22.8-2.95,2.71,3.89,5.85,12.68,7.85,19.2,8.61,6.89.8,13.36-.78,19.76-3.23,1.41-.54,1.81-2.16,1.05-3.39.2-2.21.95-2.81,2.24-1.8,1.33.74,2.88-.35,3.14-1.68,3.69-18.29-14.63-35.08-32.27-33.94-1.88.12-2.04,3.18-.1,3.36h0Z"/>
        <path class="cls-1" d="M260.9,244.78c-.25-4.29-2.5-8.42-4.52-12.12-2.13-3.9-4.67-7.55-7.85-10.68-5.84-5.75-14.31-9.42-22.54-7.71-1.65.34-2.41,1.9-1.55,3.39,1.54,2.66-1.51,4.02-3.49,2.75-1.13-.72-2.66-.64-3.28.74-4.33,9.55-5.72,19.38-.86,28.99,4.27,8.44,11.84,14.82,20.87,17.57,2.32.71,3.59-3.36,1.26-4.14-7.79-2.58-14.41-7.83-18.22-15.18-4.42-8.52-3.06-17.03.8-25.49-1.09.25-2.19.49-3.28.74,6.19,3.98,13.65-1.57,9.74-8.47-.52,1.13-1.03,2.26-1.55,3.39,16.29-3.37,26.53,14.22,31.56,26.89.64,1.61,3.01,1.04,2.91-.67h0Z"/>
        <path class="cls-1" d="M220.05,298.83c-5.58-1.36-10.73-4.32-14.83-8.97,1.17-1.03,1.79-2.65,1.21-4.5-.6-1.91-2.38-3.11-4.2-3.66-1.51-.46-1.41-.2-.46-1.79.92-1.53,1.69-3.04,2.83-4.43,7.87-9.64,21.05-15.35,32.24-8.02,1.36.89,3.57-.61,2.32-2.13-7.19-8.69-20.34-5.99-28.62-.64-4.82,3.12-9.4,7.28-12.12,12.4-.89,1.67-2.2,4.16-1.59,6.14.28.9.88,1.51,1.7,1.92.43.21.79.28,1.25.39.31.04.62.09.93.17.77.08,1.39.47,1.85,1.19-1.86-.57-4.01,1.27-2.64,3.17,4.92,6.76,11.7,11.06,19.13,12.9,1.34.33,2.64-.69,2.64-2.07h0c0-.99-.68-1.84-1.64-2.07Z"/>
        <path class="cls-1" d="M278.79,301.55c2.55,13.15,2.56,27.59-10.69,34.89-2.39,1.32.07,4.79,2.44,3.48,13.89-7.7,16.6-25.09,11.44-39.11-.63-1.71-3.57-1.15-3.2.74h0Z"/>
        <path class="cls-1" d="M243.53,294.86c-5.5,7.19-6.11,17.21-2.92,25.5,1.65,4.28,4.19,8.4,7.53,11.56,3.87,3.65,8.99,4.54,13.56,6.95,1.23.65,2.76-.29,2.97-1.59.28-.11.57-.21.85-.32.78,2.61,4.55,1.1,3.91-1.45-1.34-5.34-8.14-3.65-8.94,1.09.99-.53,1.98-1.06,2.97-1.59-3.87-2.05-8.39-2.82-11.82-5.65-3.1-2.56-5.39-6.33-6.94-10-3.21-7.58-2.51-15.74,1.39-22.88.83-1.52-1.52-3-2.57-1.63h0Z"/>
        <path class="cls-1" d="M276.67,256.53c-.14-.12-.14-.12,0,0,.08.17.09.17.03,0,.04.17.05.2.04.09,0-.12-.01-.09-.01.1,0-.09.02-.18.04-.26-.08.22-.08.24,0,.06.05-.09.23-.49.02-.07.05-.07.1-.14.16-.21-.05.04-.11.09-.16.13.07-.06.14-.11.21-.15-.23.11-.25.13-.06.06-.18.05-.54-.01-.26.08-.14-.02-.27-.07-.37-.17.16.14.15.12-.02-.05.03.04.06.08.09.12-.1-.21-.11-.22-.03-.02.06.21.06.2,0-.03.01.08.02.15.02.23,0,.14,0,.1,0-.12-.05.22-.03.2.04-.06-.24.32.15-.13.21-.19-.18.12-.17.12.04-.02.14-.06.29-.07.44-.04-.39-.03.37.16-.03,0-.19-.1-.17-.09.08.05-.13-.12-.14-.13-.04-.01.1.12.09.11-.02-.03-.12-.18-.11-.16,0,.07-.12-.27-.03-.3-.05-.05-.02-.21-.02-.18-.02.1.04-.22.03-.18-.04.11-.15.21-.18.26-.09.15.1-.11.05-.07-.14.13-.27.12-.31.15-.11.07-.27.05-.33.07-.19.05.15-.01.08-.02-.19-.02.09,0,.17.02.26.04.42.11-.38-.14,0,.01.2.1.16.08-.11-.08.07.05.14.1.2.16-.38-.41-.08-.1-.03.01-.11-.14-.17-.3-.18-.48.02.21.03.16.03-.14-.1.36.15-.29.19-.34-.14.16-.11.14.1-.08-.15.09-.15.1,0,.01.15-.08.14-.08-.02-.01.28-.05.31-.06.09-.03-.45.03.41.08-.04,0-.22-.05-.18-.03.12.05-.08-.03-.17-.07-.24-.11.08.05.16.1.23.15-.16-.14-.14-.11.07.11-.09-.15-.19-.3-.28-.45-.86-1.36-3.31-.86-3.45.79-.34,3.82,5.44,4.65,6.91,1.45,1.43-3.12-2.46-6.07-5.26-4.56-3.25,1.76-1.33,6.67,2.03,6.72,3.88.05,4.41-5.6,1.13-7-3.53-1.51-6.31,3.88-3.29,6.05.68.49,1.62.49,2.19-.19.54-.65.45-1.64-.19-2.19h0Z"/>
        <path class="cls-1" d="M249.26,255.83c-.23-.52-.29-.9-.35-1.44-.26.57-.52,1.14-.78,1.71.19-.15.03-.02-.08,0,.34-.09-.26.03-.02,0,.25-.03-.34-.03-.09,0,.27.04-.35-.11-.1-.03.15.05.33.25-.02-.03.19.16.02.02-.05-.08.15.21-.01.01-.04-.09-.04-.14-.07-.28-.04-.43.02-.1.29-.47.16-.33-.19.2.27-.2.04-.03-.22.16.28-.12.03-.02-.26.1.31-.06.03-.01-.18.03.25.02.35.07.13.07.23.18.32.29.07.09.17.28.04.07.02.07.04.14.06.21,0-.18-.01-.19,0-.03,0,.14,0,.15.02.04.02-.11.02-.1-.02.04-.24.29.26-.18-.03.09-.03.03-.33.33-.18.22.12-.08.08-.06-.14.08-.19.02-.38.03-.57.05.23-.02.08.03-.09-.03-.14-.05-.27-.2-.09-.02-.12-.11-.17-.2-.24-.34.15.27,0-.04,0-.18,0-.35.22-.65.52-.81.11-.06.56-.12.24-.1.12-.01.38.06.13,0,.11.03.38.17.15.03.09.05.34.26.14.08.49.46,0-.03-.06-.09-.14-.15-.38-.5-.09-.06-.41-.61-1.22-.89-1.92-.72-.77.19-1.2.74-1.41,1.49.2-.72-.05.14-.07.23-.04.17-.02.66-.03.63.04.39.23.83.46,1.13.42.56,1,.95,1.66,1.15,1.15.35,2.39.19,3.29-.65,2.23-2.05.3-5.94-2.63-5.7-2.8.23-4.07,4.11-1.94,5.96,2.01,1.74,5.51.43,5.74-2.27.12-1.44-.76-2.79-2.1-3.32-1.37-.54-2.79-.28-3.81.79-.47.5-.51,1.23-.32,1.85.27.9.87,1.67,1.52,2.32,1.08,1.1,3.03-.35,2.43-1.72h0Z"/>
        <path class="cls-1" d="M241.19,278.18c-.06-.02-.11-.03-.17-.05l.81.37s-.08-.07-.12-.11c.17.24.34.48.5.72.11.26.04.8-.24.59-.47-.36-.01-1.13.56-1.07.34.04.57.38.66.66.03.09-.12.4,0,.18.11-.2-.05.1-.18.13-.11.02-.23-.01-.33,0-.09.02-.12-.1-.17-.12.32.12.08.28.06.09-.05-.41.29-.03-.12-.14.16.04-.19-.17-.1-.06-.23-.28-.27-.66-.32-1.01-.13-.84-.73-1.55-1.59-1.69-.76-.12-1.77.31-2.03,1.09-1.23,3.67,2.7,7.05,6.14,5.17,1.52-.83,2.36-2.53,1.97-4.23-.36-1.6-1.69-2.92-3.36-3.08-3.46-.33-5.58,4.74-2.33,6.56,1.46.81,3.42.38,4.32-1.05.98-1.57.41-3.68-1.13-4.65-1.67-1.05-4.01-.42-4.99,1.28-1.13,1.95.62,4.6,2.83,3.33,1.35-.78.53-2.55-.66-2.89h0Z"/>
        <path class="cls-1" d="M262.71,295.91c.04.08.09.15.14.21.03.28.05.55.08.83,0-.21-.05-.07-.03.03-.03-.14.15-.15-.02,0,.16-.14.12-.06,0-.02-.13.04-.23.07-.38.08-.23.02-.27-.25-.21-.04-.03-.11.23.32.17.22.17.27.25.63.33.94.11-.65.22-1.3.34-1.95-.51.78-1.05,1.01-1.84.85.56.78,1.12,1.55,1.68,2.33,0-.06.25-1.21.37-1.12.08.06-.4.06-.34.05.25.04.27.04.05,0-.2-.09-.35-.24-.44-.46.12-.68.24-1.36.35-2.05-.2.29-.14.08.07.08.06-.06.13-.07.19-.05.14.03.27.1.39.19.03,0,.05.1.08.11,0,0,.05-.2.03-.11.18-.95-.47-1.91-1.37-2.17-.99-.28-1.85.17-2.35,1.04-1.01,1.78,0,4.09,1.83,4.83,1.9.76,5.26-.59,4.7-3.05-.43-1.88-2.53-2.74-4.27-2.32-2.04.48-3.03,2.46-3.3,4.38-.15,1.1.58,2.13,1.68,2.33,1.81.33,3.64-.28,4.92-1.58.83-.84,1.23-1.79.83-2.95-.31-.89-.82-1.77-1.54-2.39-1.4-1.19-3.42-1.16-4.6.3-1.12,1.38-.71,3.24.76,4.13,1.54.93,3.11-1.6,1.69-2.67h0Z"/>
        <path class="cls-1" d="M283.86,283.17c-.04-.09-.08-.19-.1-.29.03.15.04.14.01-.05-.05.28-.09.57-.14.85.07-.21.14-.43.18-.65.06-.37.02-.07-.02-.08.02-.05.04-.1.06-.14-.12.17-.14.2-.06.09.08-.1.15-.2.24-.3-.12.13-.18.13,0,.04-.04.02-.44.14-.25.12.14-.01.1-.01-.11,0l.15.03c-.07-.02-.13-.04-.2-.06.17.09.19.09.06,0-.19-.21.14.12.16.14-.13-.11-.15-.2-.05-.01-.09-.16-.1-.49-.12-.2,0-.16.02-.25.06-.41-.12.4.14-.14,0,.02-.16.18.22-.26-.03.02.06-.03.12-.05.18-.08-.18.06-.19.07-.05.04.12-.02.13-.02.02,0-.15.01-.1.02.13.01.14.05.24.11.36.2-.19-.18-.18-.14.02.1.23.21.24.47.06.77.08.31,0,.54-.23.67.04-.03.08-.05.12-.08-.09.05-.53.16-.37.16.23,0-.45-.12-.03-.01.37.1-.29-.11-.04-.03.17.06.31.25-.03-.05.2.17,0,0-.06-.1.18.27-.05-.13-.07-.22-.05-.23.01-.38.07-.59.05-.07.1-.14.15-.22-.12.13-.12.14,0,.02.23-.23-.35.13.16-.12-.21.1-.07,0,.08-.01-.33.05.13.04.22.05.38.04-.13.02-.12-.06,0,.03.37.3.02-.04-1.17-1.14-3.15.07-2.99,1.58.38,3.61,5.77,2.87,6.34-.26.55-3-3.23-4.99-5.61-3.4-1.62,1.08-1.87,3.28-.47,4.65,1.15,1.13,2.91,1.18,4.25.37,1.2-.73,1.95-2.12,1.77-3.53-.17-1.35-1.19-2.53-2.46-2.96-1.65-.56-3.46.01-4.31,1.58-.34.63-.46,1.42-.4,2.13.02.19.06.43.12.58.07.13.14.26.2.39-.1-.16-.11-.15-.02.03.14.41.45.73.74,1.03,1.1,1.14,2.97-.36,2.43-1.72h0Z"/>
        <path class="cls-1" d="M273.52,257.08c-2.06,2.6-3.87,5.41-5.73,8.16-1.3,1.94-2.8,5.61-4.75,6.88-1.08.7-3.18.8-4.46,1.08-1.68.37-3.37.73-5.05,1.1-1.68.37-3.37.74-5.05,1.11-.65.14-3.69.9-3.59.94.35.49.7.97,1.04,1.46,0-.07,0-.14,0-.21-.25.54-.5,1.08-.74,1.62.06-.04.13-.08.19-.13-.7-.03-1.41-.06-2.11-.09.04.03.08.07.12.1,1.51,1.27,3.53-.68,2.5-2.29-.03-.05-.06-.09-.09-.14-.44-.68-1.3-.84-2.02-.63-.62.18-1.06.58-1.29,1.18-.28.74-.16,1.61.48,2.13,2.11,1.7,6.07-.21,8.4-.72,4.02-.88,8.4-1.4,12.29-2.74,2.93-1.01,4.26-4.34,5.86-6.78,2.25-3.42,4.6-6.83,6.55-10.43.83-1.52-1.5-2.96-2.56-1.62h0Z"/>
        <path class="cls-1" d="M263.11,274.36c-.54,6.93-1.42,14.02-1.26,20.97.05,2.05,3.35,2.14,3.6.11.82-6.9.6-14.05.72-20.99.03-1.73-2.92-1.83-3.05-.09h0Z"/>
        <path class="cls-1" d="M250.55,258.84c3.54,5.17,7.46,10.09,11.66,14.75,1.47,1.64,4.32-.24,2.87-2.02-3.97-4.86-7.95-9.72-11.99-14.52-1.27-1.51-3.68.11-2.54,1.78h0Z"/>
        <path class="cls-1" d="M264.02,275.04c5.67,3.19,11.53,6.17,17.29,9.17,1.93,1.01,3.98-2.09,2.09-3.3-5.56-3.57-11.75-6.76-18.04-8.79-1.95-.63-3.17,1.89-1.34,2.92h0Z"/>
      </g>
    </g>
  </g>
  <g>
    <path class="cls-12" d="M283.93,30.98c2.89,1.81,2.08,4.32,1.24,6.87,1.63-1.48,3.17-2.98,4.9-4.24.45-.33.92-.64,1.42-.88.82-.4,1.61-.22,2.27.37.62.56.85,1.31.56,2.11-.35.95-.78,1.87-1.32,3.14.71-.79,1.16-1.34,1.66-1.85,1.01-1.02,2.05-1.18,2.98-.48.89.67,1.07,1.82.39,3.02-1.31,2.32-2.84,4.5-4.43,6.64-1.43,1.92-2.89,3.81-4.18,5.84,1.74-1.92,3.49-3.83,5.21-5.77,1.45-1.64,2.87-3.31,4.3-4.96.8-.93,1.62-1.85,3.03-1.53,1.41.31,1.84,1.4,1.91,2.9.67-.54,1.18-.97,1.71-1.38,1.42-1.1,2.52-1.25,3.51-.49,1,.76,1.14,1.87.44,3.5-.07.15-.11.31-.29.8.82-.56,1.38-.96,1.97-1.33.97-.62,2.02-1.24,3.05-.29,1.04.95.54,2.04-.03,3.05-1.62,2.84-3.61,5.43-5.7,7.94-.32.38-.78.67-.9,1.48,1.04-.74,1.93-1.37,2.82-1.99,2.07-1.45,4.14-2.92,6.24-4.33.72-.48,1.64-1.22,2.36-.15.65.97-.18,1.73-.89,2.27-3.12,2.35-6.27,4.66-9.42,6.97-3.88,2.83-7.77,5.66-11.68,8.46-2.28,1.63-4.05,3.84-6.35,5.44-.67.47-1.32.97-2.11,1.21-.81.25-1.57.17-2.05-.6-.52-.83-.23-1.59.46-2.18,1.04-.9,2.17-1.69,3.16-2.64,3.87-3.72,7.67-7.5,11.12-11.66-.89.77-1.81,1.52-2.68,2.31-4.79,4.36-9.6,8.71-14.62,12.81-.27.22-.53.45-.82.62-.79.45-1.59.47-2.25-.19-.67-.67-.59-1.48-.13-2.25.19-.33.42-.66.71-.91.66-.58.77-.97.05-1.73-.7-.74-.96-.48-1.61-.01-1.68,1.19-3.31,2.42-4.74,3.9-.17.18-.44.37-.66.36-1.92-.03-2.9,1.47-4.13,2.53-1.2,1.04-2.35,2.14-3.53,3.2-.72.65-1.52,1.12-2.4.38-.92-.77-.64-1.73-.08-2.56,1.22-1.83,2.81-3.35,4.23-5.02.5-.59,1-1.18,1.55-1.73.68-.67,1.07-1.27.56-2.32-.42-.87.21-1.74.76-2.47,2.57-3.38,5.27-6.67,7.64-10.21,1.33-2,2.64-4,3.78-6.19-.65.55-1.29,1.12-1.95,1.65-1,.8-2,1.62-3.05,2.37-.96.68-2.07,1.07-3.07.18-1.04-.92-.65-2.08-.07-3.07,1.31-2.27,2.7-4.49,4.04-6.73.49-.83.96-1.67,1.23-2.65-1.58,1.68-3.17,3.35-4.73,5.04-3.52,3.83-7.32,7.36-11.17,10.85-.45.41-.94.74-1.52.95-.62.23-1.2.18-1.67-.29-.45-.45-.41-1-.21-1.56.42-1.17,1.21-2.08,2.05-2.94,5.09-5.17,10.04-10.47,14.82-15.93,1.24-1.42,2.58-2.77,4.31-3.63h2.06Z"/>
    <path class="cls-12" d="M335.37,137.72c-1.26-2.81-2.53-5.6-3.76-8.42-1.65-3.78-3.11-7.63-4.16-11.63-.53-2.04-.25-3.3.84-3.81,1.57-.73,2.58.28,3.6,1.24,3.51,3.29,6.37,7.08,8.62,11.32.16.3.32.61.49.9.03.06.14.07.3.15-.14-1.37-.41-2.66-.77-3.93-.15-.54-.36-1.06-.52-1.59-.43-1.41-.12-2.38.86-2.73,1.05-.38,1.98.18,2.48,1.62,3.68,10.57,7.96,20.94,10.09,32,.18.93.75,2.11-.6,2.53-1.28.4-1.69-.78-2.02-1.68-.64-1.73-1.17-3.49-1.8-5.4-.55.81-1.13,1.43-2.1,1.25-1.07-.2-1.56-1.02-1.9-1.92-1-2.7-1.93-5.42-2.94-8.11-2.18-5.8-4.64-11.46-8.1-16.64-.24-.35-.49-.7-.8-1.14-.14.57.13.95.29,1.33,3.06,7.42,6.14,14.84,9.18,22.26.73,1.79,1.35,3.62,1.72,5.53.11.54.15,1.1.17,1.66.04,1.16-.28,2.16-1.49,2.58-1.24.42-2.2-.16-2.91-1.11-1.34-1.79-2.44-3.74-3.53-5.69-2.32-4.16-4.71-8.28-7.32-12.41-.25.36-.08.62-.01.87,1.53,5.81,3.08,11.62,4.6,17.43.37,1.41.66,2.84.61,4.32-.06,1.63-.79,2.73-2.06,3.07-1.21.33-2.45-.16-3.23-1.54-.82-1.46-1.71-2.86-2.58-4.28-.37-.6-.56-.94-1.31-.41-1.24.88-2.53.34-3.98-.31.28,1.06.51,1.91.73,2.76.33,1.3.53,2.62.09,3.93-.23.68-.58,1.28-1.36,1.4-.77.12-1.16-.46-1.5-1.01-.32-.51-.65-1.03-.84-1.59-1.85-5.33-4.61-10.26-6.85-15.41-.33-.75-.66-1.49-.68-2.33-.02-.83.25-1.52.98-1.98.77-.48,1.57-.46,2.31.02.67.44,1.27.97,2.2,1.69-.89-2.05-1.72-3.74-2.26-5.53-.21-.7-.42-1.4-.35-2.15.18-1.99,2.07-2.94,3.76-1.89,1.05.66,1.7,1.68,2.41,2.65,2.73,3.74,5.22,7.65,7.64,11.62-1.05-4.27-2.1-8.55-3.14-12.82-.71-2.92-1.39-5.85-2.07-8.77-.34-1.44.06-2.46,1.07-2.83,1.02-.38,1.95.08,2.69,1.39,2.71,4.74,6.15,8.99,8.95,13.66.1-.04.2-.08.29-.12Z"/>
    <path class="cls-12" d="M353.32,116.88c.2-.96.26-1.66.78-2.18.71-.72,1.87-.76,2.67-.03.31.28.59.64.78,1.02,3,6.04,6.84,11.67,8.87,18.19.69,2.21,1.49,4.39,1.8,6.7.19,1.44-.22,2.01-1.68,2.11-.83.06-.91,1.06-1.65,1.07-1.06.02-.85.82-.97,1.46-.16.86-.57,1.54-1.47,1.77-.95.24-1.71-.15-2.23-.92-.43-.64-.77-1.34-1.08-2.04-1.54-3.45-2.82-7-4.33-10.48.31,1.07.62,2.14.94,3.21,1.11,3.71,1.89,7.49,2.08,11.37.06,1.29-.05,2.58-.67,3.76-.47.88-1.22,1.35-2.23,1.12-1.05-.24-1.04-1.1-1.03-1.95.09-5.92-1.51-11.54-3.13-17.15-1.49-5.16-2.97-10.31-4.45-15.47-.31-1.08-.46-2.18-.41-3.31.1-2.08,1.61-3,3.48-2.06,1.6.8,2.91,1.96,3.92,3.8Z"/>
    <path class="cls-12" d="M319.15,59.33c-2.35,2.17-4.69,4.35-7.05,6.51-4.69,4.29-9.4,8.55-14.73,12.04-.36.23-.72.47-1.1.67-.66.36-1.34.46-1.82-.27-.46-.7-.18-1.32.4-1.81,1.41-1.19,2.85-2.35,4.26-3.54,1.21-1.02,2.4-2.08,3.6-3.11.34-.29.66-.52.29-1.05-.61-.87-.17-1.61.4-2.32,1.43-1.8,3.2-3.22,5-4.61,1.26-.97,2.5-1.96,3.73-2.96.57-.46,1.2-.82,1.86-.34.61.45.96.21,1.43-.2,1.58-1.39,3.18-2.75,4.79-4.11.36-.3.74-.58,1.15-.82.58-.33,1.22-.58,1.79-.04.62.59.37,1.23.01,1.88-1.73,3.11-2.82,6.5-4.4,9.7,1.79-1.36,3.21-3.09,4.98-4.42,1-.75,1.97-1.54,3.19-1.89,1.99-.58,3.49.81,2.98,2.82-.28,1.13-.9,2.17-.22,3.4.23.42-.19.98-.55,1.37-3.75,4.01-7.17,8.33-11.21,12.07-1.31,1.22-2.34,1.49-3.14.77-.8-.72-.67-1.84.5-3.17,2.69-3.07,5.25-6.24,7.58-9.59.26-.38.51-.77.71-1.21-2.6,1.88-4.86,4.14-7.23,6.27-2.07,1.87-4.11,3.77-6.17,5.65-.7.64-1.49,1.21-2.38.44-.85-.74-.52-1.64.03-2.44,2.79-4.08,5.81-7.97,8.86-11.86.94-1.2,1.9-2.38,2.46-3.86Z"/>
    <path class="cls-12" d="M367.29,122.55c.87.06,1.58.53,1.9,1.41,1.44,3.95,2.62,7.98,3.71,12.04.23.86-.12,1.55-.96,1.87-.83.31-1.63.06-1.98-.73-1.72-3.86-3.94-7.53-4.65-11.79-.26-1.56.58-2.77,1.97-2.8Z"/>
    <g>
      <g>
        <path class="cls-1" d="M307.83,159.15c-2.28.59-2.36-8.86-2.38-10.21-.05-3.85.56-7.44,2.37-10.86,3.17-6.01,8.35-12.02,13.74-16.13,10.02-7.65,22.99-8.82,34.67-4.75,2.51.87,3.42-2.94,1.08-3.9-14.95-6.14-32.58-1.24-43.41,10.3-5.86,6.24-11.55,13.6-12.14,22.41-.27,4.06-.58,18.44,6.9,16.12,1.89-.58,1.11-3.47-.82-2.97h0Z"/>
        <path class="cls-1" d="M355.61,116.77c-.53,1.53-.96,3.09-1.48,4.63-.26.76.18,1.6.82,2,3.97,2.54,8.99,2.19,12.88-.32-.97-.4-1.95-.79-2.92-1.19,2.07,13.13-6.25,23.36-17.77,28.35-5.72,2.48-11.81,4.32-17.79,6.07-6.86,2.01-13.75,3.33-20.92,3.01-2.74-.12-2.72,4.09,0,4.25,8.13.48,16.11-1.42,23.83-3.8,6.8-2.1,13.81-4.18,20.14-7.5,11.77-6.16,18.51-18.14,16.34-31.44-.2-1.24-1.93-1.84-2.92-1.19-2.89,1.89-5.93,2.02-9.08.69.27.67.54,1.34.82,2,.36-1.58.79-3.14,1.14-4.72.44-2.01-2.41-2.79-3.08-.85h0Z"/>
      </g>
      <path class="cls-1" d="M328.02,67.18c-1.55-9.09-9.43-17.11-16.62-22.29-7.68-5.53-16.95-8.87-26.38-9.55-3.44-.25-9.88-1.1-12.16,2.13-1.99,2.81.46,6.57,2.71,9.53-.98.04-1.96.08-2.94.12-1.58.07-3.63-.17-5.12.5-2.76,1.24-2.76,4.69-2.57,7.29.5,6.79,4.2,12.91,8.9,17.66,4.56,4.62,10.29,8.35,16.47,10.43,1.28.43,2.6-.53,2.6-1.88h0c0-.83-.52-1.58-1.31-1.86-4.49-1.59-8.69-4.09-12.26-7.14-4.05-3.46-7.67-7.83-9.37-12.94-.58-1.74-1.99-6.44-.49-7.81.6-.55,4.17-.18,5.04-.22,1.68-.07,3.36-.14,5.04-.22,1.45-.06,2.7-1.73,1.77-3.09-1.15-1.69-2.31-3.37-3.45-5.07-.42-.62-1.95-2.28-1.07-3.19.29-.3,1.91-.19,2.37-.22,3.54-.21,7.13.04,10.61.7,6.72,1.28,13.08,3.98,18.7,7.88,5.5,3.81,10.59,9.02,13.63,15.03,1.9,3.75,3.09,8.53-.35,11.79-1.13,1.07-2.68,2.13-4.38,2.97-.72.36-1.18,1.09-1.18,1.9h0c0,1.59,1.68,2.6,3.1,1.87,1.58-.82,3.06-1.79,4.33-2.76,3.69-2.84,5.18-7.03,4.4-11.58Z"/>
    </g>
  </g>
  <g>
    <g>
      <path class="cls-4" d="M9.09,311.88s.04,0,.14,0c0,0-.02,0-.03,0-.04,0-.08,0-.11,0Z"/>
      <path class="cls-4" d="M72.23,285.79c1.93-1.64,2.28-5.17.94-7.26-1.36-2.12-4.22-3.67-6.77-2.75-14.1,5.1-27.96,10.96-41.38,17.64-.89.45-1.82.88-2.68,1.4-.42.25-1.02.78-1.49,1.16-.13.11-.2.16-.22.18-.5.38-.99.77-1.48,1.16-.73.58-1.16,1.07-1.75,1.88-.04.06-.23.26-.27.35-.01.02-.02.03-.04.05-.41.5-.76,1.03-1.1,1.56-1.12.31-2.23.61-3.35.9-.6.16-1.16.4-1.73.65-.05.02-.1.04-.13.06-.83.32-1.73.58-2.43,1.12-.14.1-.2.16-.21.19-.49.19-1.04.3-1.48.59-.28.18-.6.41-.84.66-.11.03-.22.06-.33.08-3.28.82-2.52,5.76.79,5.81h.29c.06.04.11.07.1.07.65.37,1.6.58,2.44.61,0,0,.05,0,.11,0,.13,0,.25,0,.37-.01-.16.01-.27.01-.35.02.05,0,.11.02.17.04.54.2,1.33.27,1.83.31.6.05,1.21.08,1.81.12,1.03.07,2.1-.14,3.12-.28,1.53-.2,3.08-.37,4.59-.69,4.41-.95,8.77-2.16,13.05-3.62,8.83-3.02,17.28-7.05,25.13-12.1,4.65-2.99,9.08-6.32,13.3-9.89Z"/>
      <path class="cls-4" d="M164.93,255.27c-.06-.73-.2-1.47-.29-2.19-.23-1.7-2.41-2.59-3.87-2.2-.35.09-.71.17-1.06.28-.97.29-1.68.77-2.46,1.41-.36.3-.77.58-1.1.91-.61.6-1.09,1.47-1.58,2.19-1.15,1.7-2.3,3.39-3.47,5.08-2.3,3.32-4.62,6.63-7.03,9.87-1.19,1.6-2.38,3.19-3.59,4.78-.58.77-1.17,1.53-1.76,2.3,0,0,0,.01-.01.02-.14.19-.29.38-.44.56-.33.43-.67.86-1,1.28-2.52,3.23-5.09,6.43-7.69,9.59-10.27,12.48-21.12,24.47-32.47,35.99-1.61,1.63-3.23,3.25-4.86,4.86-.75.74-1.49,1.48-2.27,2.19-.12.11-.54.39-.83.63.2-.13.38-.17.02.08-.09.06-.18.12-.26.18,0,.02-.02.03-.02.05,0-.01,0-.03.01-.04-.17.12-.34.23-.52.34-.18.11-.36.21-.54.31-.09.05-.33.15-.47.2-.17.05-.34.09-.5.14.01,0,.03,0,.04.01-.03,0-.05,0-.08,0,0,0,0,0,0,0,0,0,0,0-.01,0-.13,0-.24-.02-.27-.01-.02,0-.04,0-.06,0-.02-.01-.03-.03-.06-.04,0,0,0-.02,0-.03-.01,0-.02,0-.04,0,0,0-.02,0-.03,0-.01,0-.02-.02-.04-.02.03,0,.06,0,.09,0-.36-1.89-1.71-3.67-3.66-4.11-.9-.2-1.82-.2-2.71,0-1.37.31-2.24,1.29-3.05,2.34-.03.04-.06.07-.08.1-.05.07-.11.14-.16.2-.28.36-.56.71-.84,1.06-.63.79-1.27,1.58-1.92,2.36-1.19,1.43-2.4,2.84-3.64,4.23-2.52,2.82-5.13,5.55-7.85,8.17-2.67,2.58-5.4,5.12-8.21,7.55-1.4,1.22-2.83,2.4-4.28,3.57-.35.28-.7.56-1.06.84-.18.14-.35.28-.53.42-.02.02-.05.04-.09.07-.1.08-.23.18-.28.22-.18.14-.36.27-.54.41-.64.48-1.28.96-1.9,1.45-.44.35-.88.7-1.32,1.04-.15.12-.37.34-.53.41.13-.1.26-.2.39-.3-.13.1-.27.21-.41.31-1.06.81-2.15,1.58-3.1,2.52-1.46,1.46-2.93,3.03-4.55,4.31-.58.45-.82,1.2-.85,1.94-.06.19-.11.39-.17.58-.25.87.31,1.93,1.21,2.14.25.06.5.11.75.17.84.36,1.72.3,2.67-.13-.32.14.18-.05.2-.05.21-.07.41-.15.61-.22.41-.15.81-.3,1.22-.45.91-.34,1.82-.69,2.73-1.06,2.05-.82,3.85-1.88,5.71-3.05,3.49-2.2,6.77-4.76,10-7.31,5.99-4.73,11.52-9.95,16.66-15.59,1.56-1.71,3.07-3.46,4.54-5.24,1.54.85,3.31,1.35,5.14,1.45,4.79.24,8.86-3.03,12.09-6.17,6.14-5.96,12.1-12.11,17.88-18.42,11.82-12.9,22.9-26.46,33.28-40.55,2.86-3.88,5.69-7.79,8.47-11.73,1.36-1.92,2.7-3.86,4.03-5.8.86-1.26,1.71-2.42,2.17-3.91.25-.8.55-1.61.48-2.46Z"/>
      <path class="cls-4" d="M86.81,334.08s.01,0,.02,0c.01,0,.02,0,.04-.01-.2-.07-.36-.1-.46-.11,0,.01,0,.02,0,.04.13.04.26.06.4.08Z"/>
      <path class="cls-4" d="M89.14,332.82c-.1.07-.21.16-.25.26,0,0,0,0,0,0,.04-.07.13-.16.25-.26Z"/>
    </g>
    <path class="cls-6" d="M204.45,221.22c-.06.69-.21,1.36-.47,2-1.04,2.57-3.74,4-6.32,4.55-2.99.64-6.15.26-9-.78-1.42-.52-2.79-1.2-3.86-2.29-.22-.22-.41-.46-.57-.7.12-.54.33-1.09.65-1.62,1.72-2.94,5.17-4.81,8.42-5.49,3.22-.68,7.42-.41,9.77,2.19.57.63,1.03,1.36,1.4,2.13Z"/>
    <g>
      <path class="cls-1" d="M218.66,292.96c-.97-.24-2-.24-2.94.13-.74.29-1.39.76-1.85,1.39.18.24.36.49.55.73.64.84,1.28,1.67,1.92,2.51.36.47.72.94,1.09,1.41.17.22.45.71.72.84.33.15.3.03.38-.36.09-.46.06-.96.08-1.43.05-1.04.08-2.08.11-3.11.02-.69.04-1.38.05-2.07-.04-.01-.07-.02-.11-.03Z"/>
      <path class="cls-1" d="M215.62,268.98c0-.13,0-.27-.02-.41-.07-.85-.29-1.69-.47-2.53-.37-1.72-.75-3.43-1.09-5.16-.33-1.66-.66-3.32-.98-4.98-.32-1.64-.65-3.03-1.69-4.38-.11-.14-.24-.25-.39-.34.23.04.45.1.64.19l-5.15-22.69c-.41-1.8-.72-3.84-1.34-5.73-1.25,4.68-6.91,6.37-11.27,6.2-3.02-.11-5.96-.91-8.62-2.34-.32-.17-.68-.4-1.05-.67.08.46.21.92.38,1.39.7,1.85,1.58,3.65,2.38,5.46,1.51,3.42,3.08,6.83,4.62,10.24.1.22.2.45.3.67,1.29,2.85,2.71,5.7,3.87,8.62-.32-.12-.64-.22-.97-.31l-.02.03c2.25,1.06,4.8,1.55,7.24,1.36,1.42-.11,2.84-.44,4.18-.93.63-.23,1.25-.56,1.87-.85-.35.52-.46,1.18-.32,1.8.11.46.21.92.32,1.38-.33.33-.55.79-.54,1.39,0,.65,0,1.37.15,2,.14.61.51,1.14.79,1.69.11.22.28.38.48.5.02.08.04.17.07.25l1.03,3.97c.07.28.2.52.37.74.1.57.2,1.15.3,1.72.21,1.23.4,2.57,1.14,3.5-.27.34-.58.64-.93.91-.43.33-.89.61-1.38.86,0,.02,0,.04,0,.07,0,2.96-3.33,4.61-5.91,4.71-.4.02-.81,0-1.2-.03.2.42.39.84.59,1.26.34.72.61,1.56,1.09,2.2.99,1.34,3.26,1.62,4.81,1.6,3.39-.05,6.15-1.93,8.53-4.16-.48-3.09-1.16-6.14-1.85-9.19Z"/>
      <path class="cls-1" d="M195.69,224.77c.87-.18,1.85-.62,2.25-1.46.49-1-.15-1.92-.99-2.45-1.25-.79-3.35-1.42-5-1.07-.43.01-.84.13-1.23.42-.24.18-.42.4-.56.65-.01.02-.02.03-.04.05-.04.06-.06.12-.08.19-.18.45-.21.95-.09,1.44.64,2.53,3.63,2.66,5.73,2.23Z"/>
    </g>
    <path class="cls-14" d="M250.65,84.44c.77,11.33-.28,22.76-.94,34.08-.67,11.41-1.4,22.82-2.18,34.23-.16,2.41.06,5.47-1.42,7.52-1.4,1.93-4.13,2.92-6.27,3.75-4.86,1.89-10.06,2.82-15.27,2.75-2.35-.03-4.68-.27-6.98-.71-.1-2.92-.5-5.81-1.22-8.64-.17-.69-1.18-.66-1.37,0-.75,2.67-1.5,5.35-2.24,8.03-4.34.46-8.69.11-12.91-1.05-4.18-1.14-7.94-3.1-11.45-5.58,7.54-1.19,14.87-3.77,21.54-7.49,8.32-4.64,15.34-11.18,20.79-18.96,3-4.27,5.47-8.91,7.36-13.78.94-2.41,1.73-4.88,2.34-7.39.25-1.03.51-2.09.72-3.15-.16-.44-.31-.87-.45-1.31-.05-.16-.1-.32-.15-.49-.06-.19-.11-.38-.16-.58-.82-.05-1.63-.09-2.45-.07-1.53.03-3.04.21-4.53.52,1.16-5.34,1.95-10.76,2.34-16.21.21-2.91.3-5.83.28-8.75-.02-2.39-.18-4.77-.31-7.15-.62.13-1.23.29-1.83.48-1.81,5.8-3.43,11.66-5.12,17.5-.94,3.22-1.88,6.45-2.81,9.68-.2.68-.38,1.39-.75,2-.47.76-1.24,1.1-2.05,1.4-1.58.57-3.18,1.11-4.77,1.64-3.43,1.15-6.86,2.29-10.31,3.34-.26-9.81-.54-19.62-.8-29.43-.31.11-.63.23-.94.34-.31.12-.63.23-.94.36-.49,3.76-1.03,7.52-1.61,11.26-.45,2.92-.96,5.82-1.55,8.72-.28,1.38-.58,2.76-.9,4.13-.32,1.36-.54,2.85-1.07,4.15-.6,1.47-2.1,1.1-3.31.72-1.38-.43-2.72-.98-4-1.65-2.17-1.14-5.51-2.84-5.66-5.6-.07-1.39.18-2.84.29-4.22.13-1.58.26-3.16.39-4.75.24-2.97.49-5.94.73-8.9l1.03-12.59c-.4.04-.8.09-1.19.14-.32.04-.65.07-.97.12-2.28,10.14-5.02,20.17-8.2,30.07-9.11-1.09-17.95-4.18-25.75-9.03-.93-.58-1.93-1.15-2.71-1.93-.97-.97-1.27-2.14-1.3-3.49-.05-2.49.1-5.01.16-7.5.12-5.18.24-10.36.37-15.55.09-3.66.17-7.32.23-10.98-.17.03-.34.05-.51.08h0s-.05,0-.05,0c-.42.06-.84.12-1.26.17-8.01,19.89-12.1,41.17-14.62,62.41-.94,7.87-1.66,15.76-2.27,23.66-.3,3.9-.58,7.79-.85,11.69-.2,3.01-.4,6.02-.6,9.02-.1,1.44-.19,2.88-.28,4.32-.05.72-.08,1.44-.14,2.16-.04.48.11.78-.56.75-.41-.02-.92-.31-1.31-.45-5.71-2.03-11.31-4.25-16.76-6.91-2.99-1.46-6.03-2.95-8.84-4.74-1.3-.82-2.33-1.84-2.72-3.37-.41-1.62-.3-3.38-.37-5.04-.31-7.16-1.16-14.28-2.54-21.31-.12-.63-1.1-.6-1.25,0-1.7,7.14-2.86,14.55-3.22,21.89-2.1-1.93-4.16-3.97-5.45-6.55-1.72-3.46-1.24-7.32-.86-11.03.78-7.71,2.08-15.36,3.41-22.99,2.59-14.83,5.85-29.61,10.93-43.81,4.56-12.73,10.64-24.98,18.75-35.84,4.03-5.4,8.56-10.46,13.59-14.95,5.08-4.53,10.81-8.38,17.33-10.49,11.65-3.78,24.95-2.28,35.49,3.96.12.07.23.14.35.21-5.51.61-10.85,2.76-15.9,4.92-10.17,4.34-19.72,10.26-28.02,17.58-8.46,7.47-15.54,16.47-20.56,26.58-4.73,9.53-7.73,20.01-8.26,30.66-2.23.44-4.24,2.12-5.31,4.13-1.86,3.53-1.76,7.95-1.3,11.81.48,3.97,1.73,7.88,3.95,11.23,1.13,1.7,2.48,3.22,4.03,4.55.34.3.71.59,1.08.88.15-.17.29-.34.45-.49.03-.03.06-.06.09-.09.12-.12.25-.24.39-.35.28-.23.57-.44.88-.61.62-6.24,1.44-12.46,2.36-18.66.3-2.02.66-4.04.96-6.06-.16-.32-.29-.65-.41-.98-.04-.11-.08-.23-.12-.34-.03-.1-.06-.2-.1-.3-.04-.13-.07-.26-.11-.39-.03-.1-.05-.19-.07-.29,0-.02,0-.04-.02-.07-.03-.12-.06-.23-.08-.35h0c-.03-.14-.06-.28-.09-.42-.92-1.24-2.03-2.4-3.5-2.96-.37-.14-.75-.24-1.13-.29,1.37-8.46,4.27-16.65,8.33-24.19,2.33-4.33,5.03-8.46,8.03-12.36,3.08-4.01,6.44-7.9,10.36-11.12,7.79-6.39,17.6-9.55,27.16-12.23,10.57-2.96,21.63-5.63,32.67-4.09,18.68,2.6,33.99,16.14,41.9,32.82,4.24,8.96,6.56,18.79,7.23,28.66Z"/>
    <g>
      <path class="cls-7" d="M250.65,84.44c-.45-6.59-1.63-13.16-3.62-19.47-2.17.43-4.35.81-6.54,1.13-14.32,2.13-29.14,1.28-43.19-2.14-15.29-3.72-29.83-10.26-43.23-18.45-3.74-2.28-7.45-4.7-11.07-7.26-.44.33-.87.67-1.3,1.02-3.92,3.21-7.28,7.11-10.36,11.12-.79,1.03-1.56,2.07-2.31,3.13.78.98,1.58,1.96,2.39,2.92,1.55,1.78,3.14,3.52,4.79,5.22,2.37,2.44,4.82,4.8,7.37,7.05,1.47-4.75,3.11-9.45,4.97-14.07.42-.06.84-.11,1.26-.17h.05s0,0,0,0c.17-.03.34-.05.51-.08-.06,3.66-.14,7.32-.23,10.98-.07,2.89-.14,5.77-.2,8.66,2.19,1.72,4.44,3.37,6.73,4.95,1.95,1.3,3.94,2.56,5.95,3.76,6.36,3.78,13.02,7.03,19.9,9.75,1.87-6.51,3.55-13.07,5.04-19.68.32-.04.65-.08.97-.12.4-.05.8-.09,1.19-.14l-1.03,12.59c-.24,2.97-.49,5.94-.73,8.9-.01.14-.02.28-.03.42,1.77.59,3.55,1.14,5.34,1.66,3.14.9,6.3,1.69,9.49,2.38.37-1.98.71-3.97,1.02-5.96.58-3.74,1.12-7.5,1.61-11.26.31-.12.63-.24.94-.36.31-.12.63-.23.94-.34.17,6.3.34,12.6.52,18.9,4.14.73,8.31,1.29,12.49,1.67,1.91.14,3.82.25,5.73.32.91-3.17,1.84-6.34,2.76-9.51,1.69-5.83,3.31-11.7,5.12-17.5.6-.18,1.21-.35,1.83-.48.13,2.38.29,4.76.31,7.15.02,2.92-.07,5.84-.28,8.75-.28,3.9-.77,7.79-1.45,11.65,5.5-.11,10.99-.52,16.45-1.23.21-5.3.24-10.61-.11-15.89Z"/>
      <path class="cls-7" d="M124.62,22.7c-.17-.18-.34-.35-.5-.53-1.79,2.05-3.5,4.17-5.12,6.35-1.17,1.57-2.3,3.17-3.38,4.79.09.16.17.32.26.49,2.87,5.23,6.08,10.27,9.6,15.08,3.39-5.36,7.37-10.33,11.83-14.84-4.5-3.5-8.78-7.27-12.69-11.34Z"/>
    </g>
    <path class="cls-8" d="M243.36,188.37c.01,1.67-1.92,3.09-3.02,4.11-2.65,2.47-5.52,4.69-8.44,6.84-2.49,1.83-4.99,3.68-7.56,5.41-.78-.14-1.55-.17-2.23.03-.64.19-.55.99,0,1.22.63.26,1.32.27,1.99.37.73.11,1.45.29,2.15.52,1.31.44,2.63,1.07,3.72,1.93,1.2.94,1.56,2.39.13,3.34-1.14.75-2.72.55-4,.4-2.67-.33-5.32-1.07-7.81-2.08-2.49-1.01-4.64-2.47-6.88-3.91.62-.83,1.17-1.71,1.65-2.64,1.4-2.74,2.14-5.77,2.08-8.85-.05-2.31-.45-4.71-1.53-6.74l.38-.04c.26-.48.52-.96.79-1.45.79-1.44,1.61-2.88,2.64-4.16.52-.65,4.18-4.33,4.38-2.05.07.85-.38,1.87-.71,2.68-1.35.94-2.67,1.91-3.78,3.11-.22.24.06.55.33.43,2.99-1.36,5.42-3.71,8.19-5.46,1.31-.83,2.83-1.6,4.43-1.57.83.01,1.66.37,2.15.96-.91.69-1.79,1.41-2.62,2.11-1.25,1.05-2.44,2.16-3.56,3.34-.97,1.01-2.41,2.26-2.76,3.67-.08.32.26.56.54.41,1.25-.65,2.16-2.17,3.12-3.17,1.01-1.06,2.07-2.06,3.17-3.01,1.19-1.02,2.44-1.98,3.74-2.86,1.13-.77,2.43-1.81,3.75-2.19.22-.06.55-.17.78-.11.65.18.42.87.28,1.35-.19.65-.43,1.3-.7,1.91-.61,1.35-1.4,2.58-2.28,3.76-1.45,1.97-3.16,3.71-4.82,5.5h0c-.71.44-1.47.87-1.85,1.64-.11.22.02.53.3.51.86-.05,1.51-.54,2.22-.99.84-.54,1.69-1.07,2.54-1.58,1.6-.97,3.21-1.91,4.85-2.82,1.2-.67,4.27-2.55,4.29.14Z"/>
    <path class="cls-8" d="M240.35,106.84c-.21,1.06-.41,2.13-.67,3.18-.54,2.21-1.2,4.39-1.97,6.53-1.52,4.24-3.5,8.32-5.89,12.14-4.84,7.78-11.46,14.49-19.22,19.39-8.16,5.15-17.41,8.19-26.99,9.23-4.78.52-9.63.49-14.41-.1-5.22-.65-10.33-2.05-15.32-3.69-4.72-1.56-9.35-3.47-13.56-6.14-3.76-2.38-6.85-5.35-9.33-8.98.35-4.36.73-8.72,1.17-13.07,1.23-12.26,2.88-24.5,5.43-36.55,2.47-11.69,5.82-23.18,10.2-34.3h.05c-.39,8.75-.65,17.5-.97,26.25-.1,2.66-.35,5.38-.26,8.04.08,2.22,1.12,3.71,2.92,4.95,3.83,2.66,8.12,4.76,12.47,6.43,5.06,1.94,10.34,3.21,15.72,3.83.23.03.44-.18.5-.38,3.24-10.01,6.03-20.16,8.35-30.43l-.96,11.6c-.27,3.3-.55,6.59-.82,9.89-.14,1.65-.27,3.3-.41,4.95-.12,1.45-.42,3.02-.1,4.46.54,2.4,3.36,4,5.32,5.12,1.24.71,2.54,1.32,3.87,1.81,1.14.43,2.41.92,3.65.78,1.06-.12,1.8-.79,2.2-1.76.56-1.35.81-2.88,1.14-4.29.73-3.12,1.35-6.27,1.89-9.43.84-4.92,1.44-9.86,2-14.8.23,9.75.43,19.51.66,29.26,0,.34.34.62.68.51,3.43-1.02,6.87-2.02,10.27-3.14,1.67-.55,3.34-1.11,5-1.68,1.3-.45,2.57-.91,3.33-2.15.76-1.24,1.04-2.82,1.44-4.2.51-1.77,1.03-3.54,1.54-5.31,1.01-3.48,2.02-6.96,3.02-10.44.86-2.98,1.74-5.95,2.55-8.94.34,4.69.17,9.48-.15,14.12-.4,5.78-1.26,11.52-2.55,17.16-.09.41.26.77.68.67,1.8-.42,3.62-.66,5.47-.66.62,0,1.33.11,2.04.14Z"/>
    <path class="cls-8" d="M210.77,261.66c.82.27,2.06,1.11,1.55,2.13-.3.61-1.3,1.04-2.13,1.36-.3.11-.58.21-.79.29-4.13,1.58-8.43,1.15-12.7.57-.17-.02-.32.21-.13.31,2.39,1.32,5.2,1.66,7.91,1.5,2.05-.12,4.24-.51,6.22-1.25.44.5.82,1,.87,1.79.09,1.46-1.26,2.51-2.43,3.11-.19.1-.39.19-.58.27-2.87,1.21-6.2.94-9.19.35-.14-.03-.23.16-.1.23,2.5,1.44,5.97,1.73,8.89.79-1.06,2.99-4.31,3.45-7.26,2.82-3.22-.69-6.61-1.73-9.47-3.38-2.85-1.64-4.91-4.18-7.09-6.59-2.19-2.42-4.51-4.7-7.33-6.37.16-.11.33-.23.49-.35,1.41-1.12,2.63-2.53,3.74-3.94,2.14-2.71,3.89-5.74,5.1-8.98.65-.39,1.32-.73,2.04-1,.92-.35,1.89-.6,2.86-.84,1.14,2.6,2.28,5.22,3.56,7.74l-.02.03c-.72-.34-1.4-.73-2.04-1.18-.03-.02-.07.03-.04.05,2.04,2.23,4.7,3.25,7.7,3.45,1.42.1,2.86,0,4.26-.26,1.62-.31,3.02-1.03,4.55-1.59.88-.32,1.99-.51,2.49.48.07.13.12.27.15.41.16.69-.11,1.43-.5,2-.92,1.34-2.48,2.34-3.9,3.07-.73.37-1.47.66-2.23.87-.89.25-1.8.4-2.74.47-1.34.09-3.23-.49-4.35.42-.15.12-.16.38-.07.54.68,1.14,2.33,1,3.48.91,1.46-.1,2.82-.45,4.2-.9,1.67.25,3.4.13,5.03.67Z"/>
    <path class="cls-8" d="M119.36,92.21c-.36,1.88-.63,3.78-.92,5.66-.54,3.6-1.03,7.21-1.47,10.82-.39,3.21-.71,6.43-.99,9.66-1.29-.96-2.44-2.12-3.43-3.38-2.14-2.71-3.51-5.94-4.22-9.31-.74-3.52-.82-7.28-.07-10.81.63-2.98,2.6-6.23,6.03-6.23,1.91,0,3.18,1.47,4.38,2.77.24.26.47.53.69.82Z"/>
    <path class="cls-8" d="M83.97,327.43c.17.3.34.61.5.92-1.1,1.27-2.17,2.56-3.25,3.85-.14.1-.26.24-.33.39-1.01,1.2-2.02,2.39-3.06,3.56-2.84,3.2-5.76,6.33-8.75,9.39-5.98,6.13-12.23,11.98-18.77,17.5-1.96,1.66-4.02,3.24-6.02,4.89.33-1.72.31-3.49.2-5.23-.15-2.37-.35-4.74-.6-7.1-.49-4.7-1.16-9.41-2.32-13.99-.17-.68-.34-1.37-.52-2.08,1.55-1.49,2.99-3.14,4.42-4.7,2.23-2.43,4.46-4.86,6.65-7.32,4.07-4.57,8.1-9.17,12.09-13.81.31-.36.62-.72.93-1.08,1.18-1.37,2.35-2.75,3.52-4.13.11-.13.22-.26.34-.39,2.88,2.92,5.52,6.03,8.04,9.27,2.5,3.21,4.95,6.49,6.95,10.04Z"/>
    <path class="cls-8" d="M49.94,224.95c1.34,8.58,2.19,17.24,2.57,25.92-1.89.56-3.8.95-5.78,1.12h0c-.38.03-.77.06-1.15.07-.49.02-.8.37-.84.84-.92,10.71-2.28,21.47-4.51,31.99-.18.84-.26,2.34-1,2.94-.02.02-.05.04-.07.06-.96.67-2.72.58-3.85.68-2.7.23-5.42.21-8.12-.05-2.13-.21-4.86-.4-6.39-2.11-1.41-1.58-1.58-3.94-1.74-5.95-.84-10.74-1.82-21.5-2.32-32.27-.24-5.37-.3-10.76.08-16.12.32-4.46,1.16-8.97,5.11-11.64,3.64-2.46,8.29-3.06,12.58-3.31,2.98-.17,5.97-.22,8.96-.17,1.72.03,3.44.11,5.16.17.49,2.61.93,5.23,1.34,7.84Z"/>
    <path class="cls-2" d="M198.31,10.74c8.32,3.9,16.73,9.27,21.53,17.06-3.55-2.01-7.33-3.63-11.26-4.77-10.41-3.03-21.18-1.97-31.58.49-5.29,1.25-10.55,2.72-15.71,4.41-4.9,1.6-9.74,3.51-14.21,6.11-8.79,5.11-15.49,13.39-20.94,21.83-5.42,8.4-9.66,17.85-11.48,27.72-.2,1.09-.37,2.19-.51,3.29-.14,0-.27,0-.41.02.26-3.51.68-6.99,1.4-10.46,1.13-5.45,2.85-10.77,5.09-15.86,4.4-10.02,10.78-19.09,18.59-26.75,7.62-7.48,16.51-13.59,26.09-18.27,4.95-2.42,10.12-4.59,15.43-6.09,3.02-.86,6.15-1.43,9.29-1.24,3.06.18,5.94,1.24,8.69,2.53Z"/>
    <path class="cls-13" d="M232.23,113.66c-1.52-1.42-4.23-.93-5.9-.14-5.16,2.45-12.67,11.68-11.22,17.9.44,1.87,2.33,2.52,4.05,2.08,2.07-.53,3.86-2.1,5.42-3.5,3.3-2.97,5.91-6.47,7.33-10.7.5-1.5,1.76-4.3.32-5.64Z"/>
    <path class="cls-13" d="M178.33,126.03c-.57-5.46-4.61-10.03-9.03-12.93-2.71-1.78-5.94-3.63-9.24-3.88-1.71-.13-3.38.4-4.85,1.25-1.24.71-2.81,1.63-3.34,3-.73,1.12-.97,2.62-.77,3.99.42,2.88,2.19,5.7,3.91,8,3.23,4.32,7.82,7.94,13.26,8.83,2.64.43,5.62.33,7.77-1.46,1.97-1.64,2.55-4.34,2.29-6.79Z"/>
    <path class="cls-14" d="M225.87,127.78c-.08.08-.16.17-.25.25-1.27,1.26-2.71,2.36-4.21,3.33-.84.55-2.08,1.26-3.2,1.38-.03-.68.06-1.36.39-2.08.62-1.36,1.76-2.39,3.01-3.15,1.2-.73,3.3-1.73,4.15.02.04.08.07.16.1.25Z"/>
    <path class="cls-6" d="M218.8,289.23c0,.78,0,1.55,0,2.33-.14-.03-.26-.05-.38-.07-1.23-.19-2.59-.06-3.69.57-.56.32-1.12.86-1.56,1.49-.76-1.03-1.52-2.06-2.28-3.09-1.17-1.59-2.34-3.18-3.5-4.77-.63-.86-1.25-1.76-1.9-2.62.96.4,2.02.61,2.97.68,3.75.26,7.35-1.62,9.97-4.2.02.25.05.49.06.73.06,1.04.11,2.07.16,3.11.09,1.94.14,3.89.16,5.84Z"/>
    <path class="cls-14" d="M172.43,129.47c1.01.83,1.74,1.78,2.28,2.87-1.28.81-2.91,1.09-4.5,1.03-1.05-.04-2.08-.2-3.07-.46-.61-.42-1.22-.87-1.79-1.33-.81-.66-1.74-1.59-1.41-2.74.33-1.17,1.58-1.77,2.71-1.8,2.03-.05,4.26,1.18,5.79,2.44Z"/>
    <path class="cls-11" d="M158.41,256.8c-1.21,1.56-2.34,3.2-3.52,4.76-1.89,2.51-3.8,5-5.71,7.49-3.87,5.03-7.77,10.04-11.78,14.96-7.97,9.77-16.19,19.35-24.54,28.79-2.33,2.63-4.67,5.25-7.03,7.86-1.18,1.3-2.36,2.6-3.55,3.9-.69.76-1.4,1.5-2.05,2.29-1.64-4.15-3.74-8.19-5.94-12.02-5.64-9.81-12.96-18.67-21.54-26.04-3.62-3.11-7.46-5.97-11.49-8.53.09-.08.18-.16.28-.24,1.37-1.13,2.76-2.21,4.19-3.27,2.75-2.03,5.56-4,8.49-5.75.27-.16.55-.32.82-.48-.07-.14-.14-.28-.2-.42-.11-.24-.22-.48-.33-.72-.08-.17-.15-.34-.23-.51-1.22-.09-2.43-.24-3.64-.41.31-.92.56-1.87.81-2.78.47-1.69.86-3.41,1.17-5.14.64-3.54.97-7.14,1.04-10.74.14-7.35-.81-14.68-2.27-21.87-.75-3.68-1.64-7.34-2.59-10.97-.56-2.13-1.09-4.29-1.67-6.44,2.04.23,4.08.46,6.13.65,3.83.34,7.67.7,11.5,1.1,3.83.4,7.65.85,11.48,1.31.68.08,1.36.16,2.04.25.6,1.44,1.26,2.84,1.96,4.2,1.67,3.26,3.68,6.34,5.97,9.21,4.78,5.99,10.87,10.92,17.69,14.39,3.95,2.01,8.07,3.61,12.39,4.63,2.21.52,4.46.9,6.72,1.14,1.17.13,2.37.25,3.56.26,3.32,3.75,7.36,6.88,11.85,9.15Z"/>
    <path class="cls-11" d="M99.72,330.52c.26.82.45,1.66-.06,2.43-.41.62-1.07,1.1-1.64,1.56-2.43,1.98-5.3,3.6-8.32,4.52-.87-7.96-5.38-14.87-10.18-21.09-3.31-4.28-6.84-8.38-10.79-12.03-2.47-2.29-5.11-4.4-7.96-6.27-3.76-2.48-7.8-4.51-12.02-6.08,1.1-2.22,2.1-4.49,3.3-6.66,1.46-2.64,3.12-5.16,4.97-7.54,9.05,5.28,17.2,12.01,24.13,19.87,7.06,8.02,12.86,17.2,16.96,27.08.58,1.39,1.16,2.79,1.62,4.22Z"/>
    <path class="cls-11" d="M69.02,225.22c2.93,13,4.32,26.77.73,39.79-.24.88-.5,1.75-.79,2.61-.24.73-.44,1.58-.87,2.23-.55.82-1.39.64-2.23.46-.87-.19-1.76-.37-2.62-.6-3.09-.85-5.92-2.22-8.84-3.44.06-4.61,0-9.23-.2-13.84-.19-4.64-.52-9.27-.98-13.88-.76-7.64-1.77-15.36-3.34-22.91-.3-1.45-.63-2.89-.97-4.33-.61-2.54-1.62-5.31-3.66-6.95,2.76-.23,5.54-.33,8.31-.26,1.75.04,3.5.15,5.25.32.89.09,1.78.19,2.66.32.77.11,1.67.21,2.18.87.43.56.57,1.38.76,2.06.24.86.49,1.72.73,2.57.47,1.66.93,3.32,1.38,4.98.9,3.32,1.76,6.65,2.51,10.01ZM52.61,216.78s.01-.02,0-.02c-.01,0-.01.02,0,.02Z"/>
    <g>
      <path class="cls-10" d="M85.41,330.23c-.76.94-1.55,1.87-2.35,2.78,1.56,1.73,3.1,3.43,4.78,5.02-.41-2.71-1.28-5.32-2.43-7.81Z"/>
      <path class="cls-10" d="M50.67,301.04c1.47,1.96,3.27,3.7,5.02,5.4,1.74,1.69,3.55,3.3,5.43,4.82.61.5,1.24.99,1.86,1.47.55-.65,1.1-1.3,1.65-1.96,1.07-1.27,2.13-2.54,3.19-3.81-5.5-5.3-12.17-9.38-19.31-12.09-.29,2.25.81,4.38,2.15,6.17Z"/>
      <path class="cls-10" d="M52.7,264.29c.06-3.85.03-7.7-.11-11.55-1.58.42-3.21.7-4.84.85.75,1.97,1.34,3.99,2.24,5.91.78,1.66,1.69,3.26,2.71,4.78Z"/>
      <path class="cls-10" d="M47.57,212.09c-.6-2.67-1.59-6.01-4.24-7.26-.97,3.47-1.2,6.96-.99,10.46.57,0,1.13.03,1.7.05,1.43.05,2.86.11,4.27.23-.23-1.16-.48-2.33-.74-3.48Z"/>
    </g>
    <path class="cls-15" d="M213.51,191.05c1.54,5.66-.67,12.6-4.93,16.55-.55.51-1.22,1.23-1.97,1.4-.8.18-1.67-.43-2.36-.77-1.42-.69-2.83-1.4-4.23-2.14-2.67-1.4-5.29-2.9-7.8-4.56-2.86-1.89-5.59-3.98-8.05-6.37-1.22-1.19-2.38-2.45-3.44-3.77-.07-.08-.13-.17-.19-.25,1.52-6.19,2.88-12.41,4.03-18.67.43-2.35.84-4.71,1.21-7.07.28-1.79.66-3.63.8-5.46.06.07.13.14.21.19.64.47,1.29.91,1.96,1.33,1.34,2.3,2.98,4.44,4.61,6.54,2.1,2.71,4.3,5.34,6.61,7.88,2.31,2.54,4.71,4.98,7.21,7.33,2.48,2.33,5.42,4.4,6.36,7.85Z"/>
    <path class="cls-15" d="M185.69,159.18c-.43,1.76-.59,3.59-.89,5.36-.35,2.11-.72,4.22-1.1,6.32-.76,4.15-1.6,8.28-2.53,12.39-.51,2.26-1.06,4.52-1.63,6.76-1.53,5.98-3.28,11.91-5.2,17.78-.7,2.13-1.43,4.25-2.15,6.38-.1,1.01-.23,2.02-.39,3.03-.07.41-.13.82-.21,1.24,0,0,0,0,0,0-.11.59-.22,1.18-.36,1.76,2.01,3.91,4.39,7.62,7.16,11.06,1.15,1.42,2.36,2.8,3.63,4.12,1.14,1.19,2.38,2.36,3.12,3.85,1.64,3.32-.58,7.54-2.2,10.45-1.66,2.98-3.86,6.14-6.59,8.24-1.54,1.18-3.33,1.13-5.17.93-1.53-.17-3.05-.46-4.55-.84-2.48-.63-4.88-1.52-7.18-2.66-4.33-2.14-8.26-5.14-11.5-8.74-.73-.17-1.46-.36-2.18-.56-.24-.07-.48-.14-.72-.2-.98-.28-1.94-.6-2.9-.95-1.31-.14-2.62-.32-3.92-.55-3.7-.68-7.33-1.75-10.82-3.15-6.86-2.74-13-7.3-17.93-12.78-4.29-4.77-7.7-10.32-9.99-16.32-.28-.72-.54-1.45-.78-2.19-.65-1.97-1.22-4.03-1.16-6.13.06-2.1.93-3.95,2-5.73,2.12-3.53,4.45-6.96,6.78-10.35,2.64-3.85,5.35-7.65,8.14-11.39,2.26-3.03,4.66-5.97,6.86-9.05.35.14.7.27,1.05.4,1.48.56,2.98,1.1,4.49,1.58.95.3,2.43,1.08,3.4.46.92-.59.71-2.13.77-3.06.1-1.5.19-3,.29-4.5.45-6.88.89-13.76,1.42-20.64,4.56,6.08,11.98,9.95,18.9,12.57,9.68,3.67,19.97,5.96,30.36,5.41,1.22-.07,2.45-.17,3.67-.31Z"/>
    <path class="cls-3" d="M42.13,353.35c.45,3.88.85,7.84.75,11.76-.05,2.01-.37,4.14-1.6,5.79-.7.94-1.65,1.69-2.74,2.06.09-.27.15-.55.18-.84.27-2.15.12-4.43.04-6.59-.17-4.73-.66-9.45-1.26-14.15-.54-4.29-.99-8.64-1.92-12.86-.43-1.97-1.03-3.88-1.83-5.73-.72-1.65-1.58-3.4-3.01-4.56-.17-.14-.35-.27-.53-.38,2.43-.48,5.07,1.03,6.47,3.1.97,1.44,1.52,3.2,2.01,4.86.54,1.85,1.01,3.73,1.43,5.62.86,3.94,1.55,7.92,2.01,11.92Z"/>
    <path class="cls-9" d="M39.05,292.9c-.1.68-.28,1.35-.58,1.98-.69,1.43-1.86,2.61-3.1,3.57-2.46,1.92-5.41,3.31-8.22,4.63-2.99,1.41-6.07,2.63-9.22,3.66-3.06,1-6.31,2.11-9.52,2.47-1.76.2-3.62.05-5.09-1.03-.6-.44-1.03-.94-1.34-1.49,1.33.8,3.04.93,4.55.82,2.51-.18,5.04-.87,7.45-1.53,5.37-1.46,10.57-3.6,15.47-6.25,2.57-1.39,5.15-2.89,7.41-4.74.77-.63,1.52-1.32,2.17-2.09Z"/>
    <path class="cls-3" d="M36.45,290.3c.67-.08,1.39-.12,2.07-.25-.63,1.33-1.49,2.47-2.67,3.5-1.72,1.51-3.77,2.68-5.74,3.82-4.29,2.47-8.83,4.51-13.54,6.06-2.28.75-4.58,1.41-6.92,1.94-1.83.42-3.81.88-5.69.43-1.28-.3-2.05-1.08-2.3-2.06-.2-.78-.06-1.69.43-2.59,1.14-2.12,3.2-3.77,4.97-5.34,2.09-1.86,4.24-3.65,6.49-5.31,1.72-1.27,3.52-2.42,5.29-3.62,1.18,1.77,3.13,2.66,5.22,3.05,2.67.5,5.43.67,8.14.63,1.42-.02,2.84-.11,4.25-.27Z"/>
    <path class="cls-9" d="M37.45,368.44c0,.91,0,1.81-.02,2.72-.02.65-.04,1.49-.45,2.03-.16,0-.31-.02-.47-.04-.02,0-.04,0-.05,0,0-1.53-.13-3.09-.19-4.6-.08-1.99-.19-3.98-.34-5.96-.29-3.87-.65-7.77-1.29-11.6-.65-3.93-1.29-7.85-2.12-11.74-.58-2.7-1-6.29-3.43-8.05-1.12-.81-2.9-1-4.16-.37.05-.07.09-.14.14-.2.67-.94,1.73-1.61,2.83-1.66.03.02.06.02.09,0,.5,0,1.02.13,1.5.43,1.37.86,2.26,2.56,2.93,3.97.78,1.64,1.29,3.42,1.7,5.19.87,3.76,1.29,7.64,1.8,11.46.54,4.05,1.02,8.12,1.3,12.2.14,2.07.23,4.14.24,6.22Z"/>
    <path class="cls-9" d="M35.28,368.55c.06,1.7-.03,3.43.03,5.14-1.2-.27-2.46-1.46-3.12-2.16-1.15-1.23-2-2.72-2.75-4.22-1.63-3.32-2.85-6.83-3.98-10.34-1.52-4.73-2.24-9.69-2.54-14.67.04-2.18.13-4.36.49-6.52.21-1.29.45-2.72,1-3.97h0c.65-.62,1.62-.86,2.55-.77,1.37.15,2.39,1.06,3.06,2.22.7,1.2,1.03,2.58,1.34,3.92.38,1.69.73,3.39,1.06,5.09,1.3,6.77,2.11,13.64,2.57,20.52.13,1.92.22,3.84.28,5.77Z"/>
    <path class="cls-13" d="M251.3,85.47c-.05-1.57-.1-3.14-.15-4.71-.06-1.6-.47-2.99-.8-4.54-.02-.08-.16-.09-.17,0-.23,1.34-.61,2.59-.65,3.95-.04,1.44-.04,2.88-.07,4.32-.06,2.75-.1,5.5-.16,8.25-.12,5.57-.33,11.13-.6,16.69-.54,11.19-1.32,22.37-2.36,33.52-.29,3.13-.61,6.26-.95,9.38-.16,1.5-.31,2.99-.46,4.49-.16,1.6.05,3.04.43,4.59.08.32.56.39.72.09.64-1.2,1.21-2.38,1.44-3.74.24-1.41.39-2.84.56-4.26.32-2.73.6-5.47.87-8.21.56-5.6,1.03-11.22,1.4-16.83.74-11.17,1.05-22.36,1.05-33.56,0-3.14,0-6.29-.1-9.43Z"/>
    <path class="cls-13" d="M127.03,19.78s-.01.02,0,.02.01-.02,0-.02Z"/>
    <path class="cls-13" d="M126.02,19.81c-10.02,12.99-17.97,27.55-24.16,42.72-6.21,15.21-10.63,31.16-13.09,47.41-.68,4.49-1.22,9-1.61,13.52-.2,2.33-.35,4.66-.44,7-.09,2.32.25,4.71.51,7.01.03.25.45.37.49.07.29-1.99.61-3.98.88-5.97.27-2,.28-4.05.43-6.07.3-4.05.72-8.09,1.26-12.12,1.1-8.1,2.68-16.13,4.73-24.04,4.1-15.83,10.16-30.95,17.68-45.45,4.23-8.16,9.07-15.96,14.21-23.58.38-.57-.5-1.03-.89-.52Z"/>
    <path class="cls-13" d="M213.93,190.9c-4.23-4.68-8.96-8.89-13.16-13.61-1.94-2.18-3.83-4.4-5.63-6.7-.9-1.16-1.77-2.34-2.6-3.56-.8-1.18-1.67-2.48-2.76-3.41-.2-.17-.46,0-.42.24.43,2.78,2.53,5.34,4.13,7.55,1.76,2.43,3.67,4.74,5.64,7.01,4.22,4.88,8.13,10.04,12.45,14.82,1.44,1.59,3.78-.77,2.35-2.35Z"/>
    <path class="cls-13" d="M186.58,239.95c-.56-1.26-1.57-2.02-2.57-2.94-1.02-.94-1.99-1.93-2.93-2.95-1.74-1.89-3.33-3.9-4.8-6.01-3.05-4.38-5.57-9.12-7.74-14-4.67-10.52-7.37-21.73-11.36-32.5-2.29-6.19-4.43-12.66-7.98-18.26-.13-.2-.47-.07-.39.17,1.91,5.78,4.13,11.42,5.71,17.3,1.6,5.91,3.12,11.82,4.9,17.68,3.21,10.59,6.99,21.19,13.09,30.5,1.66,2.54,3.5,4.98,5.51,7.26.99,1.12,2.02,2.2,3.1,3.24,1.15,1.1,2.25,2.25,3.85,2.59,1.3.28,2.12-.96,1.61-2.1Z"/>
    <path class="cls-13" d="M211.25,248.85c-.2-1.1-.45-2.19-.68-3.28-.45-2.18-.9-4.37-1.36-6.55-.92-4.36-1.92-8.71-2.88-13.06-.23-1.05-1.85-.61-1.62.45.95,4.36,1.86,8.72,2.86,13.07.48,2.11.98,4.21,1.47,6.32.25,1.08.49,2.17.75,3.26.19.76.39,1.87,1.13,2.26.09.05.19.02.24-.06.48-.65.23-1.65.09-2.4Z"/>
    <path class="cls-13" d="M217.26,274.28c-.4-1.87-.9-3.72-1.36-5.58-.91-3.65-1.82-7.3-2.73-10.95-.21-.85-1.52-.49-1.31.36.92,3.65,1.84,7.3,2.75,10.95.45,1.79.87,3.6,1.37,5.37.48,1.67.77,3.67,1.59,5.21.18.33.7.17.7-.19,0-1.68-.66-3.52-1.01-5.16Z"/>
    <path class="cls-13" d="M98,215.19c-.72-.99-1.83-1.17-2.97-1.42-1.33-.29-2.67-.65-4.01-.87-2.75-.46-5.53-.79-8.29-1.16-2.68-.36-5.36-.65-8.05-.93-1.38-.15-2.75-.29-4.13-.42-1.47-.15-3.13-.57-4.47.22-.94.55-1.31,2.12-.37,2.89,1.25,1.03,2.71.94,4.25,1.05,1.38.09,2.75.19,4.13.3,2.75.21,5.5.46,8.25.67,2.68.21,5.36.45,8.04.69,1.36.12,2.74.09,4.11.14,1.22.04,2.44.21,3.45-.61.14-.11.18-.39.07-.54Z"/>
    <path class="cls-13" d="M71.85,240.48c-.07-.95-.09-1.9-.23-2.84-.28-1.89-.66-3.78-1.02-5.66-.71-3.76-1.47-7.51-2.22-11.26-.75-3.75-1.49-7.51-2.24-11.26-.34-1.66-.53-3.66-2.15-4.61-1.45-.85-3.49-.73-5.11-.88-2.08-.2-4.17-.4-6.25-.59-1.11-.1-2.21-.21-3.32-.31-1.15-.11-2.25-.28-3.38.09-1.31.43-1.73,2.35-.4,3.07,1.59.87,3.57.78,5.34.94,1.82.16,3.65.33,5.47.49,1.74.16,3.54.2,5.27.48,0,0,.13.02.25.04.03.11.06.23.07.24.22.88.39,1.76.61,2.64,1.67,6.98,3.3,13.97,5.04,20.93.48,1.92.96,3.83,1.48,5.74.28,1.02.69,1.99,1.06,2.98.3.8.61,1.6,1.24,2.2.09.09.22.04.27-.07.3-.76.27-1.56.22-2.36Z"/>
    <path class="cls-13" d="M50,217.77c-.69-1.01-2.06-1.26-3.22-1.38-1.22-.13-2.46-.17-3.68-.23-2.52-.11-5.03-.11-7.56.03-2.45.14-4.9.36-7.33.67-1.33.17-2.66.33-3.98.57-1.26.23-2.4.71-2.87,1.99-.15.39.04.82.29,1.11.87,1,2.25.9,3.43.72,1.1-.17,2.21-.34,3.31-.48,2.44-.3,4.88-.52,7.34-.65,2.39-.13,4.78-.22,7.17-.24,1.16-.01,2.32,0,3.49.02,1.11.01,2.64,0,3.44-.86.29-.32.43-.87.16-1.26Z"/>
    <path class="cls-13" d="M17.31,288.93s-.01.02,0,.02.01-.02,0-.02Z"/>
    <path class="cls-13" d="M17.03,288.43c-2.74,1.52-5.16,3.62-7.45,5.73-1.13,1.04-2.22,2.11-3.28,3.22-.94.98-2.41,2.33-2.6,3.74-.05.36.21.74.62.62,1.27-.38,2.3-1.73,3.17-2.66,1.09-1.16,2.22-2.28,3.38-3.37,2.28-2.13,4.77-4.01,7.07-6.1.64-.59-.18-1.58-.91-1.18Z"/>
    <g>
      <path class="cls-5" d="M116.4,118.64c-.13-.09-.27-.18-.4-.28-1.3-.96-2.45-2.13-3.45-3.39-2.14-2.71-3.51-5.94-4.22-9.31-.74-3.52-.82-7.28-.07-10.81.63-2.97,2.6-6.23,6.03-6.23,1.92,0,3.18,1.47,4.37,2.77.5.55.97,1.14,1.4,1.76.11-.62.21-1.24.3-1.86-.09-.13-.17-.26-.26-.39-1.03-1.49-2.25-3-4-3.66-3.32-1.26-6.86.97-8.4,3.88-1.86,3.53-1.76,7.95-1.3,11.81.47,3.97,1.72,7.88,3.95,11.23,1.13,1.7,2.49,3.22,4.03,4.55.55.47,1.14.96,1.77,1.4.05-.5.13-.99.24-1.47Z"/>
      <path class="cls-5" d="M118.92,103.22c-.67-1.66-1.96-3.13-3.1-4.5-.4-.48-1.16-1.63-1.92-1.37-.07.02-.13.09-.13.17,0,.08.04.15.09.22-.04.07-.07.15-.07.23,0,.2.18.45.27.63.23.44.48.88.74,1.31.82,1.38,1.48,3.03,2.55,4.23.6.67,1.92-.04,1.57-.91Z"/>
      <path class="cls-5" d="M120.69,87.01c-1.2,3.49-1.71,7.21-2.25,10.86-.54,3.6-1.03,7.21-1.46,10.82-.89,7.41-1.47,14.9-1.9,22.35-.24,4.23-.41,8.45-.12,12.67.01.21.3.2.32,0,.89-7.37,1.02-14.82,1.66-22.21.65-7.39,1.59-14.77,2.68-22.1.6-4.08,1.46-8.19,1.58-12.32,0-.31-.43-.34-.52-.07Z"/>
      <path class="cls-5" d="M154.37.94c-13.45,2.73-24.07,12.27-32.57,22.57-8.7,10.54-15.32,22.66-20.34,35.34-5.71,14.43-9.34,29.59-12.14,44.82-1.42,7.71-2.74,15.45-3.7,23.23-.47,3.82-1.21,7.93-.7,11.77.41,3.06,2.06,5.65,4.02,7.97,1.06,1.26,2.22,2.42,3.39,3.58.33.33.84.07.87-.36.53-6.63,1.41-13.14,2.8-19.61.95,5.54,1.57,11.14,1.81,16.76.12,2.68-.33,6,1.19,8.37,1.43,2.24,4.29,3.43,6.55,4.65,5.43,2.93,11.05,5.49,16.83,7.65,1.49.55,2.98,1.1,4.49,1.58.95.3,2.43,1.08,3.4.46.92-.59.71-2.13.77-3.06.1-1.5.2-3,.29-4.5.8-12.29,1.6-24.57,2.84-36.82,1.23-12.26,2.88-24.5,5.43-36.55,2.52-11.92,5.94-23.63,10.46-34.94.08-.21.17-.41.25-.62.02-1.03.07-2.05.13-3.08-9.27,21.17-13.8,44.07-16.52,66.92-1.4,11.75-2.31,23.55-3.12,35.35-.21,3.01-.4,6.01-.6,9.02-.09,1.44-.19,2.88-.28,4.32-.05.72-.08,1.44-.14,2.16-.04.48.11.78-.56.75-.41-.02-.92-.31-1.31-.45-5.71-2.02-11.31-4.25-16.76-6.91-2.99-1.46-6.03-2.95-8.84-4.74-1.3-.83-2.33-1.84-2.72-3.37-.41-1.62-.3-3.38-.37-5.04-.31-7.16-1.16-14.28-2.54-21.31-.12-.63-1.1-.6-1.25,0-1.7,7.14-2.86,14.55-3.22,21.89-2.1-1.93-4.17-3.97-5.45-6.55-1.72-3.46-1.24-7.32-.87-11.03.78-7.71,2.08-15.37,3.41-22.99,2.59-14.83,5.85-29.61,10.93-43.81,4.56-12.73,10.64-24.98,18.75-35.84,4.03-5.4,8.56-10.46,13.59-14.95,5.08-4.53,10.81-8.38,17.33-10.5,11.65-3.78,24.95-2.28,35.49,3.96.29.17.59.35.87.54.63-.17,1.27-.3,1.92-.4-9.84-6.55-22.28-8.59-33.82-6.24Z"/>
      <path class="cls-5" d="M247.65,62.38c-3.24-9.25-8.28-17.93-15.2-24.92-6.6-6.66-14.83-11.81-23.86-14.44-10.41-3.03-21.18-1.97-31.59.49-5.29,1.25-10.55,2.72-15.71,4.41-4.9,1.6-9.74,3.51-14.21,6.11-8.79,5.11-15.49,13.39-20.94,21.83-5.43,8.4-9.67,17.85-11.48,27.72-.24,1.31-.44,2.64-.59,3.96.27,0,.55.01.82.06,1.32-8.7,4.27-17.11,8.43-24.85,2.33-4.33,5.03-8.46,8.03-12.36,3.08-4.01,6.44-7.9,10.36-11.12,7.79-6.39,17.6-9.55,27.16-12.23,10.57-2.96,21.63-5.63,32.67-4.09,18.68,2.6,34,16.14,41.9,32.82,4.24,8.96,6.56,18.79,7.23,28.66.77,11.33-.28,22.76-.94,34.08-.67,11.41-1.39,22.82-2.18,34.23-.17,2.4.06,5.47-1.42,7.52-1.4,1.93-4.13,2.92-6.27,3.75-4.86,1.89-10.06,2.82-15.27,2.75-2.35-.03-4.68-.27-6.98-.71-.1-2.92-.5-5.81-1.22-8.64-.17-.69-1.18-.66-1.37,0-.75,2.68-1.5,5.35-2.24,8.03-4.34.46-8.69.11-12.91-1.05-4.42-1.21-8.38-3.33-12.06-6.02-1.06-.77-2.07.99-1.03,1.76,7.47,5.47,17.41,7.73,26.54,6.66.31-.04.59-.19.68-.51.54-1.9,1.07-3.81,1.61-5.71.35,2.01.56,4.04.6,6.08,0,.29.21.62.52.68,5.19,1.05,10.52,1.13,15.74.21,2.54-.45,5.03-1.13,7.44-2.03,2.22-.84,4.67-1.77,6.45-3.39,1.82-1.65,2.21-3.96,2.39-6.3.22-2.86.4-5.72.59-8.58.4-5.97.79-11.93,1.16-17.9.73-11.82,1.69-23.68,1.82-35.52.12-10.67-1.11-21.32-4.65-31.43Z"/>
      <path class="cls-5" d="M222.93,30.64c-3.56-8.29-11.47-14.32-19.32-18.5-5.36-2.86-10.86-5.49-17.1-4.96-5.78.49-11.38,2.74-16.67,5-10.17,4.34-19.72,10.25-28.02,17.58-8.45,7.47-15.54,16.47-20.56,26.58-4.84,9.74-7.87,20.48-8.29,31.38.23-.06.46-.11.7-.13.25-3.74.68-7.45,1.45-11.14,1.13-5.44,2.85-10.77,5.09-15.86,4.4-10.02,10.78-19.09,18.59-26.75,7.62-7.48,16.51-13.59,26.09-18.27,4.95-2.42,10.12-4.59,15.43-6.09,3.02-.86,6.15-1.43,9.29-1.24,3.06.18,5.94,1.24,8.69,2.53,8.81,4.13,17.72,9.9,22.34,18.46.82.41,1.59.93,2.28,1.43Z"/>
      <path class="cls-5" d="M246.43,78.17c-.53-3.86-1.46-7.67-2.82-11.32-.21-.56-1.12-.32-.91.25,4.47,11.99,4.59,25.21-.05,37.18-.15.39-.29.78-.61,1.07-.44.4-1.01.36-1.57.33-.84-.05-1.68-.1-2.53-.08-1.52.03-3.04.21-4.53.52,1.16-5.34,1.95-10.76,2.34-16.21.21-2.91.3-5.83.28-8.75-.02-2.93-.27-5.83-.39-8.75-.03-.61-.87-.73-1.05-.14-2.1,6.52-3.91,13.13-5.82,19.71-.94,3.23-1.88,6.45-2.81,9.68-.2.68-.38,1.39-.75,2-.46.76-1.24,1.1-2.05,1.39-1.58.57-3.18,1.11-4.77,1.64-3.43,1.15-6.86,2.29-10.31,3.34-.31-11.76-.66-23.52-.95-35.28-.02-.61-.86-.58-.92,0-.69,5.95-1.5,11.89-2.42,17.81-.45,2.92-.96,5.83-1.55,8.72-.28,1.38-.58,2.76-.9,4.14-.32,1.36-.54,2.85-1.07,4.15-.6,1.47-2.1,1.1-3.31.72-1.38-.43-2.72-.98-4-1.65-2.17-1.14-5.51-2.84-5.66-5.6-.07-1.39.18-2.84.29-4.22.13-1.58.26-3.17.39-4.75.24-2.97.49-5.94.73-8.9.56-6.79,1.11-13.59,1.67-20.38.05-.61-.95-.74-1.07-.14-2.58,12.93-5.9,25.7-9.94,38.24-9.11-1.09-17.95-4.18-25.75-9.03-.93-.58-1.93-1.15-2.71-1.93-.97-.97-1.27-2.15-1.3-3.49-.05-2.5.1-5.01.16-7.5.12-5.18.24-10.37.37-15.55.14-5.77.27-11.54.31-17.32,0-.19-.28-.19-.29,0-.57,10.88-.88,21.78-1.28,32.67-.1,2.66-.35,5.37-.26,8.04.08,2.22,1.12,3.71,2.92,4.95,3.83,2.66,8.12,4.76,12.47,6.43,5.06,1.94,10.34,3.21,15.72,3.83.23.03.44-.18.5-.38,3.24-10.01,6.03-20.17,8.35-30.43l-.96,11.6c-.27,3.3-.55,6.59-.82,9.89-.14,1.65-.27,3.3-.41,4.95-.12,1.45-.42,3.02-.1,4.46.54,2.4,3.36,4,5.32,5.12,1.24.71,2.54,1.32,3.88,1.81,1.14.42,2.41.92,3.65.77,1.06-.12,1.8-.79,2.2-1.76.56-1.35.81-2.88,1.14-4.29.73-3.12,1.35-6.27,1.89-9.43.84-4.92,1.44-9.86,2-14.8.23,9.75.43,19.51.66,29.26,0,.34.34.62.68.52,3.43-1.02,6.87-2.02,10.27-3.14,1.67-.55,3.34-1.11,5-1.68,1.3-.45,2.58-.91,3.33-2.15.76-1.24,1.04-2.82,1.44-4.2.51-1.77,1.03-3.54,1.54-5.31,1.01-3.48,2.02-6.96,3.02-10.44.86-2.98,1.74-5.95,2.56-8.94.34,4.69.17,9.48-.15,14.12-.4,5.78-1.26,11.52-2.54,17.16-.09.41.26.77.68.68,1.8-.42,3.62-.66,5.47-.66,1.34,0,3.18.53,4.35-.35,1-.74,1.34-2.32,1.72-3.43.56-1.62,1-3.27,1.33-4.96,1.27-6.51,1.63-13.2.72-19.79Z"/>
      <path class="cls-5" d="M241.64,103.46s-.01.02,0,.02.01-.02,0-.02Z"/>
      <path class="cls-5" d="M240.47,106.23c-.26,1.26-.48,2.54-.79,3.79-.54,2.21-1.2,4.39-1.97,6.53-1.52,4.24-3.5,8.31-5.89,12.14-4.85,7.78-11.47,14.49-19.22,19.39-8.16,5.16-17.41,8.19-26.99,9.23-4.78.52-9.63.5-14.41-.1-5.22-.65-10.33-2.05-15.32-3.69-4.72-1.56-9.35-3.47-13.56-6.14-3.99-2.53-7.24-5.73-9.79-9.67-.07,1.02-.18,2.04-.33,3.05,4.5,6.52,12.25,10.59,19.44,13.32,9.68,3.67,19.97,5.96,30.37,5.41,9.76-.52,19.39-3.4,27.92-8.16,8.32-4.64,15.34-11.18,20.79-18.96,3-4.27,5.47-8.91,7.36-13.78.94-2.41,1.73-4.88,2.34-7.39.38-1.57.78-3.18,1-4.79-.32-.05-.64-.11-.96-.17Z"/>
      <path class="cls-5" d="M204.37,127.02s-.01.02,0,.02.01-.02,0-.02Z"/>
      <path class="cls-5" d="M204.56,126.83c-.1-.24-.51-.17-.56.07-.21.96-.09,1.98-.22,2.96-.14,1.05-.41,2.09-.81,3.07-.85,2.08-2.25,3.68-4.17,4.83-1.67.99-3.67,1.38-5.6,1.16-.99-.12-1.87-.48-2.73-.96-.75-.43-1.51-1.16-2.44-1.11-.27.02-.47.21-.49.49-.12,2.24,3.67,2.95,5.27,3.15,2.27.28,4.64-.19,6.61-1.37,1.96-1.18,3.46-3.27,4.35-5.35.82-1.93,1.64-4.89.78-6.93Z"/>
      <path class="cls-5" d="M183.91,150.7c-1.53-.94-3.14-1.5-4.44-2.79-.62-.62-1.13-1.32-1.57-2.08-.39-.68-.6-1.49-1.46-1.67-.24-.05-.41.04-.55.22-1.13,1.49,1.6,4.02,2.65,4.86,1.43,1.14,3.42,2.26,5.32,1.9.21-.04.22-.34.06-.44Z"/>
      <path class="cls-5" d="M232.23,113.66c-1.52-1.42-4.23-.93-5.9-.14-5.16,2.45-12.67,11.68-11.22,17.9.44,1.87,2.33,2.52,4.05,2.08,2.07-.53,3.86-2.1,5.42-3.5,3.3-2.97,5.91-6.47,7.33-10.7.5-1.5,1.76-4.3.32-5.64ZM231.43,115.99c-.06.94-.06,1.89-.25,2.81-.72,3.52-3.06,6.76-5.55,9.24-1.27,1.26-2.71,2.36-4.21,3.33-1.48.95-4.13,2.43-5.36.31-2.47-4.29,5.48-12.2,8.21-14.83,1.45-1.39,3.25-2.66,5.35-2.61.42.01.99.06,1.37.28.58.35.48.89.44,1.46Z"/>
      <path class="cls-5" d="M178.33,126.03c-.57-5.46-4.61-10.03-9.03-12.93-2.71-1.78-5.94-3.63-9.24-3.88-1.71-.13-3.38.4-4.85,1.25-1.24.71-2.81,1.63-3.34,3-.73,1.12-.97,2.62-.77,3.99.42,2.88,2.19,5.7,3.91,8,3.23,4.32,7.82,7.94,13.26,8.83,2.64.43,5.62.33,7.77-1.46,1.97-1.64,2.55-4.34,2.29-6.79ZM176.7,129.97c-1.08,2.64-3.85,3.49-6.5,3.39-4.81-.18-9.17-2.87-12.38-6.3-1.81-1.94-3.33-4.16-4.52-6.53-2.2-4.39.34-8.62,5.41-9.5,2.73-.47,5.63.79,8,2.01,4.26,2.19,8.15,5.82,9.8,10.4.74,2.05,1.03,4.46.19,6.53Z"/>
      <path class="cls-5" d="M175.74,132.02c-.58-1.52-1.86-2.81-3.15-3.73-1.95-1.4-5.01-2.92-7.43-1.93-2.07.85-2.84,3.17-1.35,4.92.67.79,1.58,1.4,2.46,1.99.24-.04.5-.04.74.04.38.12.77.23,1.16.31-.08-.05-.16-.11-.23-.16-.89-.59-1.77-1.21-2.6-1.88-.81-.66-1.74-1.59-1.41-2.74.33-1.17,1.58-1.77,2.71-1.8,2.03-.05,4.26,1.18,5.79,2.44,1.1.9,1.87,1.96,2.43,3.17.28-.23.58-.43.88-.63Z"/>
      <path class="cls-5" d="M226.33,126.74c-1.04-1.52-2.97-1.2-4.41-.51-1.72.82-3.35,2.19-4.13,3.96-.37.83-.6,1.92-.5,2.93.1.01.2.02.3.03.14.01.28.03.41.05.02,0,.13.01.2.02.01,0,.03,0,.05,0-.1-.84-.06-1.66.35-2.55.62-1.36,1.76-2.39,3.01-3.15,1.2-.73,3.3-1.73,4.15.02.12.25.2.52.24.79.13-.14.27-.28.4-.43.1-.12.2-.24.3-.36-.09-.28-.22-.56-.39-.81Z"/>
      <path class="cls-5" d="M186.61,158.34c0-.39-.56-.46-.67-.09-.62,2.03-.79,4.2-1.14,6.29-.35,2.11-.72,4.22-1.1,6.32-.76,4.15-1.6,8.28-2.53,12.39-1.87,8.29-4.19,16.46-6.83,24.54-.72,2.21-1.48,4.41-2.23,6.62-.36,1.05-.7,2.1-1.01,3.17.36.56.66,1.17.93,1.77.09-.2.17-.39.26-.59.44-.98.84-1.98,1.19-3,.69-2.02,1.35-4.06,1.98-6.1,1.26-4.09,2.42-8.21,3.5-12.34,2.16-8.21,4.06-16.5,5.6-24.85.43-2.35.84-4.71,1.21-7.07.36-2.31.89-4.7.85-7.05Z"/>
      <path class="cls-5" d="M144.94,245.11c-.3-.01-.61-.03-.91-.05-1.94-.14-3.88-.37-5.8-.72-3.7-.68-7.33-1.75-10.82-3.15-6.86-2.74-13-7.3-17.93-12.77-4.81-5.34-8.51-11.68-10.77-18.5-.65-1.97-1.22-4.03-1.16-6.13.06-2.1.93-3.95,2-5.73,2.12-3.53,4.45-6.96,6.78-10.35,2.64-3.85,5.35-7.65,8.14-11.39,2.38-3.19,4.91-6.27,7.2-9.52-.27-.12-.53-.25-.79-.38-2.48,2.62-4.71,5.48-6.92,8.32-2.64,3.39-5.21,6.83-7.69,10.34-2.55,3.61-5.02,7.28-7.41,11-1.04,1.62-2.07,3.29-2.6,5.16-.56,1.99-.45,4.08-.04,6.09.76,3.7,2.3,7.34,4.02,10.7,1.67,3.26,3.68,6.34,5.97,9.21,4.78,5.99,10.86,10.91,17.69,14.39,3.95,2.01,8.07,3.61,12.39,4.63,2.21.52,4.46.9,6.72,1.14,1.49.16,3.03.31,4.54.25-.88-.82-1.74-1.67-2.6-2.53Z"/>
      <path class="cls-5" d="M215.12,195.05c-.07-3.21-.81-6.59-3.13-8.93-1.25-1.25-2.64-2.36-3.94-3.57-1.34-1.25-2.66-2.52-3.95-3.83-2.95-2.98-5.76-6.11-8.4-9.36-2.64-3.24-4.95-6.75-7.69-9.9-.13-.15-.33.04-.25.2,1.48,3,3.53,5.7,5.57,8.34,2.1,2.71,4.3,5.34,6.61,7.88,2.31,2.54,4.71,4.98,7.21,7.33,2.48,2.33,5.42,4.4,6.36,7.85,1.54,5.66-.67,12.6-4.93,16.56-.55.51-1.22,1.23-1.97,1.4-.8.18-1.67-.43-2.36-.77-1.42-.69-2.84-1.4-4.23-2.14-2.67-1.4-5.29-2.9-7.8-4.56-2.86-1.89-5.59-3.98-8.06-6.37-1.22-1.19-2.38-2.44-3.44-3.77-.35-.43-.67-.88-.99-1.33-.11.7-.24,1.41-.39,2.1.92,1.17,1.89,2.28,2.93,3.35,2.27,2.32,4.8,4.37,7.45,6.23,2.68,1.88,5.5,3.56,8.38,5.12,1.49.8,2.99,1.57,4.51,2.32,1.26.62,2.78,1.68,4.26,1.37,1.49-.31,2.7-1.81,3.65-2.91.99-1.14,1.84-2.39,2.53-3.73,1.4-2.74,2.14-5.77,2.08-8.85Z"/>
      <path class="cls-5" d="M187.18,240.45c-.31-1.72-1.31-3.15-2.46-4.43-2.53-2.81-5.13-5.46-7.34-8.55-2.2-3.07-4.13-6.33-5.75-9.74-3.57-7.52-5.44-15.67-7.87-23.59-2.38-7.77-5.25-15.4-8.56-22.82-1.68-3.75-3.43-7.5-5.41-11.1-.79-1.43-1.78-2.72-3.28-3.45-1.33-.66-2.86-.86-4.33-.79-1.59.08-3.15.47-4.67.9-.36.1-.2.6.15.54,2.98-.45,7-1.11,9.37,1.26,1.27,1.26,1.99,3.05,2.78,4.63.89,1.78,1.75,3.57,2.59,5.37,3.31,7.08,6.2,14.36,8.65,21.79,2.42,7.35,4.17,14.91,6.85,22.17,2.49,6.74,5.97,13.03,10.49,18.63,1.15,1.42,2.36,2.8,3.63,4.12,1.14,1.19,2.38,2.36,3.12,3.85,1.64,3.32-.58,7.53-2.2,10.45-1.66,2.98-3.86,6.14-6.59,8.24-1.54,1.18-3.33,1.13-5.18.93-1.53-.17-3.05-.46-4.55-.84-11.61-2.93-21.69-11.85-25.76-23.15-1.27-3.54-1.9-7.27-2.43-10.98-.58-4.09-1.12-8.19-1.6-12.29-.94-8.06-1.57-16.18-1.12-24.3.11-2.01.26-3.99.27-6,0-.64-.96-.79-1.12-.15-1.04,4.13-1.04,8.51-1,12.76.04,4.29.32,8.57.73,12.84.42,4.34.97,8.67,1.55,13,.55,4.09,1,8.22,2.02,12.23,3.16,12.44,12.92,22.65,24.98,26.86,2.98,1.04,6.18,1.77,9.34,1.9,1.86.08,3.54-.33,5.01-1.49,1.41-1.12,2.63-2.53,3.74-3.94,2.23-2.82,4.04-5.99,5.25-9.39.62-1.73,1.03-3.61.7-5.45Z"/>
      <path class="cls-5" d="M191.41,243.31c-1.21-.24-2.47-.1-3.68.27-.32.1-.69.22-1.09.38-.22.94-.55,1.84-.93,2.73.15-.09.29-.18.44-.27.72-.44,1.44-.81,2.23-1.11,1.11-.43,2.28-.69,3.44-.98-.13-.36-.26-.71-.4-1.01Z"/>
      <path class="cls-5" d="M210.26,251.15c-1.44.1-2.73,1.04-4.06,1.52-1.34.48-2.76.82-4.18.93-3.21.25-6.64-.69-9.28-2.54-.03-.02-.07.03-.04.05,2.04,2.23,4.7,3.25,7.7,3.45,1.42.1,2.86,0,4.26-.26,1.62-.31,3.02-1.03,4.55-1.59.88-.32,1.98-.51,2.49.48.41.8.12,1.72-.36,2.41-.92,1.34-2.48,2.34-3.9,3.07-1.57.8-3.22,1.22-4.97,1.34-1.34.09-3.23-.49-4.35.42-.15.12-.16.38-.07.54.68,1.14,2.33,1,3.48.91,1.5-.11,2.9-.47,4.32-.94,2.52-.84,5.55-2.47,6.88-4.89,1.11-2.04.25-5.09-2.47-4.9Z"/>
      <path class="cls-5" d="M212.4,260.5c-1.15-.69-2.57-.83-3.87-.96-1.53-.15-2.93-.2-4.32.52-.26.13-.16.49.08.58,2.09.73,4.37.32,6.48,1.02.82.27,2.06,1.11,1.55,2.13-.41.82-2.11,1.34-2.92,1.65-4.14,1.58-8.43,1.15-12.7.57-.18-.02-.32.21-.13.31,2.39,1.32,5.2,1.66,7.91,1.5,2.67-.16,5.6-.77,7.98-2.04,2.24-1.2,2.06-4.01-.05-5.28Z"/>
      <path class="cls-5" d="M212.83,267.55c-.17-1.23-1.24-3.04-2.71-2.3-.16.08-.22.32-.12.47.62.9,1.49,1.44,1.56,2.64.09,1.46-1.26,2.52-2.42,3.11-2.99,1.52-6.58,1.24-9.77.61-.14-.03-.23.16-.1.23,3.38,1.94,8.53,1.79,11.68-.64,1.27-.98,2.11-2.48,1.89-4.12Z"/>
      <path class="cls-5" d="M208.34,272.42c-.79,3.59-4.3,4.17-7.45,3.49-3.22-.69-6.61-1.73-9.47-3.38-2.85-1.64-4.91-4.18-7.09-6.59-2.21-2.44-4.55-4.75-7.41-6.42-.08-.04-.15.06-.09.12,2.63,2.78,5.4,5.38,7.9,8.29,2.39,2.77,4.92,5.12,8.31,6.6,1.64.72,3.35,1.26,5.06,1.77,1.8.53,3.66,1.07,5.55,1,2.57-.1,5.9-1.75,5.91-4.71,0-.69-1.07-.87-1.22-.17Z"/>
      <path class="cls-5" d="M219.24,278.02c-1.26-4.16-2.16-8.43-3.13-12.66-.95-4.18-1.9-8.35-2.85-12.53l-5.75-25.26c-.74-3.26-1.29-6.94-3.75-9.41-2.39-2.41-6.11-2.98-9.35-2.58-3.32.41-6.57,1.88-8.93,4.28-1.11,1.13-2.06,2.54-2.38,4.11-.32,1.61.15,3.11.81,4.58,1.97,4.38,4.05,8.71,6.05,13.08,1.6,3.5,3.08,7.13,4.83,10.58.33.09.65.2.97.31-1.16-2.92-2.58-5.77-3.87-8.62-1.64-3.63-3.32-7.26-4.93-10.91-.8-1.81-1.68-3.61-2.38-5.46-.67-1.78-.68-3.48.29-5.15,1.72-2.94,5.17-4.81,8.42-5.49,3.22-.68,7.42-.41,9.77,2.19,2.27,2.52,2.7,6.43,3.42,9.6l5.29,23.33,2.97,13.11c1.01,4.43,2.1,8.87,2.79,13.37.17,1.11,2.05.65,1.71-.47Z"/>
      <path class="cls-5" d="M218.83,278.28c-.08-.13-.16-.22-.29-.29-.32-.19-.73-.12-.99.13-2.39,2.25-5.18,4.17-8.6,4.22-1.55.02-3.82-.27-4.81-1.6-.48-.64-.75-1.48-1.09-2.2-.26-.55-.51-1.1-.78-1.65-.35.05-.71.08-1.06.06.28.72.61,1.42.92,2.12.38.86.69,1.89,1.32,2.61,1.18,1.36,3.28,1.95,5.01,2.07,3.88.27,7.6-1.76,10.24-4.47.25-.26.32-.68.13-.99Z"/>
      <path class="cls-5" d="M220.49,289.03c-.02-2.01-.08-4.03-.19-6.04-.06-1.04-.14-2.07-.23-3.11-.08-.89-.05-1.83-.51-2.61-.26-.45-.87-.31-1.03.13-.32.9-.1,1.93-.05,2.87.06,1.04.11,2.07.16,3.11.09,1.95.14,3.89.16,5.84.01,1.95-.02,3.9-.08,5.84-.03,1.04-.07,2.08-.11,3.11-.02.46,0,.97-.08,1.43-.08.39-.05.51-.38.36-.28-.12-.55-.61-.72-.84-.37-.47-.73-.94-1.09-1.41-.64-.84-1.28-1.68-1.92-2.51-1.2-1.57-2.36-3.16-3.53-4.75-1.17-1.59-2.33-3.18-3.5-4.77-1.17-1.6-2.3-3.33-3.7-4.73-.23-.23-.57.06-.43.33.82,1.63,1.98,3.11,3.03,4.59,1.03,1.44,2.05,2.89,3.08,4.33,2.12,3,4.23,6,6.28,9.05.63.94,1.35,2.45,2.68,2.48,1.21.03,1.73-1.13,1.84-2.16.39-3.48.35-7.06.31-10.56Z"/>
      <path class="cls-5" d="M218.41,291.49c-1.23-.19-2.59-.06-3.69.57-.64.37-1.28,1.01-1.73,1.77.24.32.46.66.65,1.01.47-.81,1.22-1.4,2.09-1.74.94-.37,1.97-.38,2.94-.13.39.1.78.3,1.16.48v-1.62c-.49-.17-1-.27-1.42-.33Z"/>
      <path class="cls-5" d="M204.43,219.88c.13,1.12-.03,2.29-.45,3.34-1.04,2.57-3.74,4-6.32,4.55-2.99.65-6.15.27-9-.78-1.42-.52-2.79-1.2-3.86-2.29-.49-.49-.8-1.02-1.06-1.58-.25.68-.47,1.37-.64,2.07.68.69,1.5,1.26,2.14,1.61,2.66,1.43,5.6,2.23,8.62,2.34,4.59.17,10.63-1.71,11.43-6.97.06-.37.08-.74.08-1.11-.29-.41-.61-.81-.94-1.2Z"/>
      <path class="cls-5" d="M196.95,220.86c-1.26-.79-3.35-1.42-5-1.06-.43.01-.84.13-1.23.42-.24.18-.42.4-.56.65-.01.02-.03.03-.04.05-.04.06-.06.12-.07.19-.18.45-.21.95-.09,1.44.64,2.53,3.63,2.66,5.73,2.23.87-.18,1.85-.62,2.25-1.46.49-1-.15-1.92-.99-2.45ZM195.5,223.14c-1.12.34-3.13.61-3.91-.5-.21-.31-.29-.57-.26-.79.92-.03,1.83-.28,2.78-.19.66.06,1.45.26,1.99.67.59.44-.12.66-.6.81Z"/>
      <path class="cls-5" d="M210.93,206.33s-.01.02,0,.02.01-.02,0-.02Z"/>
      <path class="cls-5" d="M231.4,208.04c-1.18-1.13-2.76-1.89-4.27-2.46-1.45-.55-3.48-1.28-5.03-.82-.64.19-.55.99,0,1.22.63.26,1.32.27,1.99.37.73.11,1.45.29,2.15.52,1.31.44,2.63,1.07,3.72,1.93,1.2.94,1.56,2.39.13,3.33-1.14.75-2.72.55-4,.4-2.67-.33-5.32-1.07-7.81-2.08-2.66-1.08-4.93-2.67-7.33-4.2-.28-.18-.55.21-.34.44,2.26,2.47,5.51,4.21,8.57,5.47,1.64.68,3.35,1.18,5.09,1.53,1.56.31,3.23.63,4.82.37,2.99-.48,4.72-3.72,2.32-6.02Z"/>
      <path class="cls-5" d="M244.7,188.12c-.08-1.08-.71-2.14-1.79-2.47-1.43-.43-2.83.47-4.03,1.13-1.75.97-3.47,1.97-5.17,3.01-.85.52-1.7,1.05-2.54,1.59-.74.48-1.59.91-2,1.73-.11.22.02.53.3.51.86-.05,1.51-.54,2.22-.99.84-.54,1.69-1.07,2.54-1.58,1.6-.97,3.21-1.91,4.85-2.82,1.2-.66,4.27-2.55,4.29.14.01,1.67-1.92,3.09-3.02,4.11-2.65,2.47-5.52,4.69-8.44,6.84-2.97,2.18-5.96,4.4-9.05,6.4-.08.05,0,.18.08.13,2.98-1.63,5.97-3.16,8.83-5.02,2.78-1.81,5.42-3.82,7.93-5.99,1.22-1.06,2.48-2.14,3.56-3.35.84-.93,1.55-2.07,1.45-3.37Z"/>
      <path class="cls-5" d="M239.48,177.93c-.8-.48-1.89-.22-2.68.13-2.54,1.13-4.93,3.05-7.05,4.82-1.25,1.05-2.43,2.16-3.56,3.34-.97,1.01-2.41,2.26-2.76,3.67-.08.32.26.56.54.41,1.25-.66,2.16-2.17,3.12-3.18,1.01-1.06,2.07-2.06,3.17-3.01,1.19-1.02,2.44-1.98,3.74-2.87,1.13-.77,2.43-1.81,3.76-2.19.22-.06.55-.17.78-.11.65.18.42.87.27,1.35-.19.65-.42,1.29-.7,1.91-.61,1.35-1.4,2.58-2.28,3.76-1.76,2.38-3.9,4.43-5.86,6.64-.07.08.02.23.12.16,4.2-3,8.45-7.03,9.95-12.14.28-.96.41-2.12-.58-2.72Z"/>
      <path class="cls-5" d="M232.61,181.13c.24-.22.49-.42.75-.61-.11-.23-.26-.46-.45-.65-1.2-1.27-3.22-1.2-4.77-.76-1.94.55-3.6,1.75-5.22,2.91-1.94,1.39-4.01,2.66-5.64,4.41-.22.24.06.55.33.43,2.99-1.36,5.42-3.71,8.19-5.46,1.31-.83,2.83-1.6,4.43-1.57.98.02,1.98.52,2.38,1.31Z"/>
      <path class="cls-5" d="M221.78,180.63c.08.93-.48,2.07-.81,2.92-.06.15-.12.3-.17.45.47-.32.95-.62,1.44-.9.38-.91.82-1.99.61-2.95-.16-.76-.75-1.45-1.55-1.53-.94-.1-1.92.66-2.62,1.19-1.69,1.28-2.94,3.02-4.02,4.82-.48.79-.92,1.61-1.37,2.42.26.39.49.81.68,1.23.26-.48.52-.96.79-1.44.79-1.44,1.61-2.88,2.64-4.17.52-.65,4.18-4.33,4.37-2.04Z"/>
      <path class="cls-5" d="M159.23,255.77c-1.53,1.86-2.89,3.88-4.34,5.8-1.89,2.51-3.8,5-5.71,7.49-3.86,5.03-7.77,10.04-11.78,14.96-7.97,9.77-16.19,19.34-24.54,28.79-2.33,2.63-4.67,5.25-7.03,7.86-1.18,1.3-2.36,2.6-3.55,3.9-.79.86-1.58,1.69-2.3,2.6.3.63.6,1.27.89,1.92,2.07-1.72,3.78-3.95,5.56-5.95,2.13-2.39,4.25-4.79,6.36-7.2,4.13-4.73,8.22-9.5,12.22-14.35,7.99-9.69,15.8-19.53,23.46-29.47,2.18-2.83,4.34-5.68,6.49-8.55,1.76-2.35,3.69-4.68,5.29-7.16-.34-.2-.68-.41-1.02-.63Z"/>
      <path class="cls-5" d="M102.66,264.15c-3.17-2.63-6.53-4.97-9.98-7.22-1.76-1.15-3.53-2.29-5.29-3.44-1.36-.88-3.16-2.61-4.89-2.31-.2.04-.31.28-.26.46.22.85.85,1.3,1.54,1.78.87.59,1.77,1.14,2.65,1.7l5.16,3.26c3.51,2.22,7.05,4.31,10.8,6.11.21.1.48-.18.27-.35Z"/>
      <path class="cls-5" d="M97.37,256.44c-1.47-1.21-3.06-2.27-4.51-3.51-.69-.59-1.38-1.19-2.03-1.82-.62-.59-1.17-1.38-2.01-1.64-.3-.09-.54.2-.48.48.18.85.98,1.49,1.6,2.06.7.66,1.43,1.28,2.21,1.86,1.55,1.15,3.25,2.22,5.11,2.79.12.04.23-.13.12-.21Z"/>
      <path class="cls-5" d="M96.87,260.27c-1,.29-1.99.6-2.97.9-3.31,1.02-6.55,2.24-9.73,3.6-6.4,2.73-12.72,6.02-18.48,9.92-1.62,1.1-3.21,2.24-4.76,3.43-.6.46-1.22.92-1.83,1.38.61.34,1.19.73,1.75,1.12.23-.2.47-.4.7-.6,1.37-1.13,2.76-2.22,4.19-3.27,2.75-2.03,5.56-4,8.49-5.75,5.88-3.52,12.17-6.28,18.64-8.51,1.65-.57,3.33-1.04,5.01-1.51-.34-.24-.68-.48-1.02-.72Z"/>
      <path class="cls-5" d="M79.51,317.93c-5.38-6.97-11.35-13.44-18.74-18.31-3.93-2.59-8.16-4.68-12.58-6.29-.34-.12-.73.14-.82.47-1.35,5.1,3.22,9.48,6.54,12.68,1.96,1.89,4.01,3.68,6.14,5.37.97.77,1.94,1.52,2.94,2.23.26-.25.53-.49.81-.71-.89-.69-1.79-1.38-2.67-2.09-1.88-1.53-3.69-3.14-5.43-4.83-1.75-1.7-3.56-3.44-5.02-5.4-1.34-1.79-2.45-3.91-2.15-6.17,7.43,2.82,14.35,7.12,19.98,12.74,3.07,3.06,5.87,6.35,8.54,9.76,2.5,3.21,4.95,6.49,6.95,10.04,1.86,3.31,3.3,6.86,3.87,10.6-1.93-1.82-3.68-3.8-5.47-5.78-.66-.74-2,.26-1.4,1.08,2.07,2.8,4.69,5.22,7.35,7.44.52.44,1.52.2,1.47-.61-.54-8.45-5.25-15.72-10.28-22.23Z"/>
      <path class="cls-5" d="M101.45,330.21c-1.74-5.33-4.36-10.53-7.15-15.38-5.64-9.81-12.96-18.67-21.54-26.04-4.82-4.15-10.03-7.83-15.56-10.98-.25-.14-.67-.13-.86.11-2.01,2.56-3.82,5.27-5.38,8.13-1.54,2.83-2.98,5.82-3.58,9-.05.28.33.48.48.2,1.49-2.74,2.67-5.64,4.18-8.37,1.46-2.63,3.12-5.16,4.97-7.54,9.05,5.28,17.2,12.01,24.13,19.87,7.06,8.02,12.86,17.2,16.96,27.08.58,1.39,1.16,2.79,1.62,4.22.26.82.45,1.66-.06,2.43-.41.62-1.07,1.1-1.64,1.56-2.62,2.13-5.74,3.85-9.01,4.71-1.24.33-.67,2.33.53,1.91,2.93-1.04,5.73-2.3,8.26-4.13,1.16-.84,2.44-1.74,3.28-2.92.84-1.17.81-2.54.38-3.86Z"/>
      <path class="cls-5" d="M68.39,306.26c-.17.22-.35.44-.52.65-1.08,1.29-2.15,2.58-3.24,3.87-2.08,2.47-4.17,4.94-6.28,7.39-4.25,4.96-8.55,9.87-12.88,14.77-1.24,1.41-2.47,2.83-3.7,4.25-.39.45-.78.9-1.17,1.35.13.35.26.7.39,1.05,1.57-1.5,3.02-3.17,4.46-4.74,2.23-2.43,4.46-4.86,6.65-7.32,4.39-4.92,8.72-9.88,13.01-14.89,1.18-1.37,2.35-2.75,3.52-4.13.28-.34.6-.68.91-1.02-.38-.42-.77-.83-1.17-1.23Z"/>
      <path class="cls-5" d="M85.18,327.53c-2.49,2.84-4.84,5.8-7.35,8.62-2.84,3.2-5.76,6.33-8.75,9.39-5.98,6.13-12.23,11.98-18.77,17.51-2.36,1.99-4.85,3.88-7.21,5.89-.14.7-.33,1.39-.57,2.07,2.56-1.71,4.95-3.73,7.3-5.67,3.35-2.76,6.63-5.6,9.85-8.51,6.43-5.83,12.61-11.94,18.46-18.35,2.66-2.92,5.4-5.87,7.87-8.99-.24-.67-.51-1.32-.82-1.95Z"/>
      <path class="cls-5" d="M53.21,238.54c-.91-9.11-2.16-18.33-4.31-27.24-.8-3.32-2.29-7.04-5.85-8.13-.38-.12-.78.14-.89.5-.93,3.04-1.37,6.2-1.29,9.38.02,1.01.09,2.02.22,3.02.43-.05.87-.07,1.3-.05-.29-3.75-.09-7.48.94-11.2,2.65,1.25,3.64,4.59,4.24,7.26.96,4.25,1.7,8.56,2.37,12.86,1.39,8.9,2.25,17.88,2.61,26.88.17,4.15.21,8.31.14,12.46-1.02-1.52-1.93-3.12-2.71-4.78-1.11-2.36-1.75-4.87-2.78-7.25-.22-.51-1.04-.24-1.02.28.09,2.75,1.17,5.37,2.32,7.84,1.19,2.55,2.67,4.92,4.4,7.14.49.63,1.48.07,1.49-.62.14-9.46-.23-18.94-1.18-28.35Z"/>
      <path class="cls-5" d="M71.39,227.93c-.75-3.68-1.63-7.34-2.59-10.97-.95-3.63-1.82-7.36-3.02-10.92-.56-1.68-1.63-2.64-3.38-2.95-2.02-.36-4.08-.52-6.13-.68-4.4-.33-8.83-.28-13.22.13-1.3.12-1.29,2.18,0,2.03,3.49-.39,6.99-.56,10.5-.48,1.75.04,3.5.15,5.25.32.89.09,1.78.19,2.66.32.77.11,1.67.21,2.18.87.43.56.57,1.38.76,2.05.24.86.49,1.72.73,2.58.47,1.66.93,3.31,1.38,4.98.9,3.32,1.76,6.65,2.51,10.01,2.93,13,4.32,26.78.73,39.8-.24.88-.51,1.75-.79,2.61-.24.73-.44,1.58-.87,2.23-.55.83-1.39.64-2.23.46-.87-.19-1.76-.37-2.62-.61-3.58-.99-6.83-2.68-10.27-4.02-.29-.11-.54.33-.31.53,2.61,2.17,5.96,3.53,9.15,4.63,2.52.87,6.39,2.72,8.03-.44.76-1.46,1.18-3.15,1.62-4.73.47-1.69.86-3.41,1.17-5.14.64-3.55.97-7.14,1.04-10.74.14-7.35-.81-14.68-2.27-21.87Z"/>
      <path class="cls-5" d="M75.03,270.11c.61-.42,1.25-.8,1.91-1.15-.62,0-1.24-.01-1.86-.04-1.76-.09-3.51-.33-5.26-.58-.08.27-.18.53-.27.8,1.67.53,3.39.81,5.16.95.11,0,.22.02.33.02Z"/>
      <path class="cls-5" d="M98.93,212.31c-.77-.1-1.54-.19-2.31-.29-3.88-.47-7.77-.87-11.67-1.22-3.89-.36-7.79-.67-11.7-.92-2.43-.15-4.85-.21-7.27-.23.08.25.15.51.21.77,2.35.27,4.7.54,7.06.75,3.84.34,7.67.7,11.5,1.1,3.83.4,7.65.85,11.48,1.3,1.1.13,2.19.26,3.28.4-.23-.54-.42-1.1-.59-1.66Z"/>
      <path class="cls-5" d="M52.61,216.76s-.01.02,0,.02.01-.02,0-.02Z"/>
      <path class="cls-5" d="M45.57,252.06c-.49.02-.8.37-.84.84-.92,10.71-2.28,21.47-4.51,31.99-.19.87-.26,2.44-1.07,3-.96.67-2.72.58-3.85.68-2.7.23-5.42.21-8.12-.05-2.13-.21-4.86-.4-6.39-2.11-1.41-1.58-1.58-3.94-1.74-5.95-.84-10.74-1.82-21.5-2.32-32.27-.25-5.37-.3-10.76.08-16.12.32-4.46,1.16-8.97,5.11-11.64,3.64-2.47,8.29-3.06,12.58-3.31,2.98-.17,5.97-.22,8.96-.18,2.09.03,4.17.15,6.25.2-.05-.48-.1-.96-.13-1.44-1.83-.21-3.67-.29-5.53-.36-2.87-.1-5.75-.1-8.62,0-4.26.14-8.63.6-12.53,2.46-4.19,2.01-6.66,5.66-7.43,10.2-.93,5.44-.82,11.15-.67,16.65.32,11.82,1.5,23.63,2.4,35.42.16,2.13.32,4.37,1.35,6.29,1.13,2.12,3.24,3.14,5.53,3.58,2.67.5,5.43.67,8.14.63,1.42-.02,2.84-.11,4.25-.27,1.14-.13,2.44-.17,3.47-.72,1.12-.6,1.51-1.71,1.73-2.88.29-1.53.57-3.07.85-4.6.58-3.2,1.12-6.4,1.6-9.61.93-6.23,1.68-12.49,2.24-18.77,2.45-.14,4.93-.53,7.28-1.26-.05-.63-.09-1.26-.12-1.88-2.58.84-5.18,1.39-7.93,1.49Z"/>
      <path class="cls-5" d="M39.17,288.37c-.64,2.08-1.67,3.73-3.32,5.18-1.72,1.51-3.77,2.68-5.75,3.82-4.29,2.48-8.83,4.51-13.54,6.06-2.28.75-4.59,1.41-6.92,1.94-1.84.42-3.81.88-5.69.43-2.31-.55-2.96-2.63-1.87-4.65,1.14-2.11,3.2-3.77,4.97-5.34,2.09-1.86,4.24-3.65,6.49-5.31,1.91-1.4,3.91-2.67,5.86-4.01-.06-.12-.12-.25-.17-.38-2.04.95-4,2.16-5.87,3.37-2.32,1.51-4.59,3.13-6.73,4.9-2.03,1.68-4.32,3.43-5.71,5.72-1.13,1.86-1.43,4.29.23,5.95,1.38,1.38,3.53,1.6,5.38,1.46,2.51-.18,5.03-.88,7.45-1.54,5.37-1.46,10.57-3.6,15.46-6.25,2.57-1.39,5.15-2.89,7.42-4.74,2-1.64,3.89-3.7,4.19-6.37.13-1.12-1.59-1.26-1.9-.26Z"/>
      <path class="cls-5" d="M40.3,290.32c-.16-.66-1.27-.54-1.21.16.13,1.47.03,3.04-.62,4.39-.69,1.43-1.86,2.61-3.09,3.57-2.46,1.92-5.41,3.31-8.22,4.63-2.99,1.41-6.07,2.63-9.22,3.66-3.06,1-6.31,2.11-9.52,2.47-1.76.2-3.62.05-5.09-1.03-1.48-1.09-1.94-2.55-2.05-4.31,0-.08-.11-.12-.16-.04-1.35,2.33,1.36,5.04,3.4,5.76,3.31,1.18,7.29-.05,10.52-.96,3.62-1.02,7.17-2.28,10.62-3.78,3.43-1.49,7.01-3.11,10.02-5.34,2.75-2.04,5.52-5.56,4.61-9.2Z"/>
      <path class="cls-5" d="M38.77,365.52c-.17-4.73-.66-9.45-1.26-14.15-.54-4.29-.99-8.64-1.92-12.86-.43-1.97-1.03-3.88-1.84-5.73-.72-1.65-1.58-3.4-3.01-4.56-1.55-1.26-3.57-1.41-5.29-.4-1.88,1.1-2.92,3.15-3.3,5.23-.44,2.37-.52,4.85-.57,7.26-.06,2.59.13,5.2.86,7.69.02.06.06.1.1.12.42,2.95,1.03,5.89,1.76,8.79,1,3.99,2.4,7.94,4.27,11.62.81,1.59,1.79,3.14,3.09,4.38,1.14,1.09,2.71,2.21,4.36,2.17,1.68-.05,2.51-1.44,2.7-2.95.27-2.15.12-4.43.04-6.59ZM37.43,371.16c-.03.81-.04,1.91-.83,2.37-1.44.83-3.5-1.04-4.4-2.01-1.15-1.23-2-2.72-2.74-4.22-1.63-3.32-2.85-6.83-3.98-10.34-1.52-4.73-2.24-9.69-2.54-14.67.04-2.18.13-4.36.49-6.52.28-1.72.61-3.68,1.65-5.13,1-1.4,2.85-2.21,4.42-1.23,1.37.86,2.26,2.56,2.93,3.97.78,1.64,1.29,3.42,1.7,5.19.87,3.76,1.29,7.64,1.8,11.46.54,4.05,1.02,8.12,1.3,12.2.14,2.07.23,4.14.24,6.22,0,.91,0,1.82-.02,2.72Z"/>
      <path class="cls-5" d="M44.49,362.71c-.15-2.37-.35-4.74-.6-7.1-.49-4.7-1.16-9.41-2.32-13.99-1-3.94-2-8.44-4.61-11.67-2.09-2.59-6.68-4.28-9.1-1.15-.09.11.05.25.16.16,2.81-2.49,6.83-.73,8.67,2,.97,1.44,1.52,3.2,2.01,4.86.54,1.86,1.01,3.73,1.43,5.62.86,3.94,1.55,7.92,2.01,11.92.45,3.88.86,7.84.75,11.76-.05,2.01-.37,4.14-1.6,5.79-1.12,1.5-2.88,2.52-4.78,2.25-1.01-.14-1.49,1.34-.44,1.58,3.76.86,6.98-2.36,7.96-5.72.6-2.04.59-4.2.46-6.3Z"/>
      <path class="cls-5" d="M36.27,368.55c-.08-1.99-.19-3.98-.34-5.96-.29-3.87-.65-7.77-1.29-11.6-.65-3.93-1.29-7.85-2.12-11.74-.58-2.7-1-6.29-3.43-8.05-1.72-1.25-5.05-1.02-5.53,1.42-.03.17.2.24.26.07.49-1.28,1.85-1.8,3.15-1.66,1.37.14,2.39,1.06,3.06,2.22.7,1.2,1.03,2.58,1.34,3.92.38,1.69.73,3.39,1.06,5.09,1.3,6.77,2.11,13.64,2.57,20.52.13,1.92.22,3.84.28,5.77.06,1.98-.06,3.99.07,5.97.05.68,1.01.68,1.06,0,.13-1.96-.07-4-.14-5.97Z"/>
    </g>
  </g>
  <g>
    <path class="cls-12" d="M490.45,178.16c-2.14,4.48-4.97,8.62-6.46,13.43-.65,2.09-1.63,4.06-2.68,5.99-.16.3-.32.62-.53.88-.55.68-1.24,1.15-2.12.66-.84-.47-.76-1.28-.47-2.05.68-1.76,1.42-3.5,2.08-5.27,1.98-5.23,3.38-10.63,4.65-16.07.04-.15.02-.32-.16-.54-.51,1.02-1.03,2.04-1.54,3.07-4.43,9.01-8.86,18.03-13.3,27.04-.53,1.08-1.12,2.13-1.71,3.17-.43.76-1.02,1.33-1.99.98-1-.37-1.16-1.23-.98-2.13.43-2.24,1.12-4.41,1.83-6.57,1.93-5.92,3.77-11.86,5.41-17.87.05-.2.08-.4-.05-.66-1.16,2.8-2.3,5.61-3.49,8.4-1.8,4.23-3.62,8.44-5.43,12.66-.44,1.02-.91,2.04-1.09,3.15-.12.71-.51,1.27-1.12,1.66-.83.53-1.7.69-2.5.01-.83-.7-.94-1.59-.48-2.56,7.32-15.59,13.53-31.65,20-47.59.06-.16.13-.32.2-.47.56-1.13,1.53-1.64,2.49-1.25,1.1.45,1.36,1.36,1.11,2.44-.57,2.47-1.14,4.94-1.76,7.39-1.91,7.66-3.73,15.35-6.04,22.91-.11.36-.18.73-.13,1.14.09-.14.19-.27.26-.41,4.06-8.29,8.23-16.52,11.74-25.07.31-.75.62-1.51,1-2.23.9-1.68,2.07-1.75,3.25-.22v1.8c-.69,4.59-1.37,9.18-2.41,13.8.6-.97,1.19-1.84,2.41-.91v1.29Z"/>
    <path class="cls-12" d="M430,157.63c-4.75-4.4-9.96-8.11-14.94-12.12-.94-.76-1.83-1.57-2.57-2.52-.7-.91-1.24-1.93-.58-3.08.69-1.2,1.87-1.12,2.98-.89,2.5.5,4.84,1.45,7.09,2.64.52.27,1.04.54,1.63.72-2.29-1.87-4.53-3.77-6.36-6.1-.45-.57-.92-1.14-1.28-1.77-.39-.66-.51-1.41,0-2.06.54-.69,1.29-.75,2.1-.5,2.24.7,4.16,2.01,6.15,3.21.73.44,1.45.91,2.37,1.14-1.17-1.05-2.34-2.12-3.53-3.15-1.43-1.24-1.78-2.19-1.04-2.98.68-.72,1.62-.52,3.02.74,2.17,1.96,4.38,3.76,7.27,4.7,2.48.81,4.25,2.87,6.19,4.54,3.78,3.24,7.64,6.39,10.88,10.2.75.88,1.52,1.76,1.96,2.86.66,1.65-.16,2.43-1.85,2.7-2.8.45-4.37-1.3-6.13-2.82-5.21-4.48-10.41-8.97-16.09-12.85-2.11-1.44-4.28-2.8-6.5-4.09,1.77,1.82,3.83,3.26,5.94,4.62,5.84,3.76,11.16,8.14,15.93,13.18,2.98,3.15,5.81,6.44,8.53,9.81,1.02,1.27,1.14,2.35.35,3.11-.84.8-2.05.65-3.17-.52-4.55-4.75-9.25-9.32-14.55-13.25-4.86-3.61-9.73-7.21-15.12-10.01-.48-.25-.93-.6-1.66-.6.36.61.9.88,1.35,1.21,8.77,6.36,17.23,13.08,24.95,20.7,2.14,2.11,4.28,4.22,6.41,6.33,1.11,1.1,1.14,3,.06,3.89-1.07.88-2.6.57-3.54-.81-.6-.88-1.43-1.48-2.23-2.12-9.48-7.64-19.83-13.85-30.97-18.76-3.65-1.61-7.28-3.27-10.73-5.3-.96-.56-1.89-1.19-2.54-2.14-.22-.32-.43-.68-.21-1.08.24-.44.65-.49,1.11-.44,1.3.13,2.52.5,3.7,1.05,8.48,3.95,17.12,7.57,25.15,12.42.14.08.3.12.45.18Z"/>
    <path class="cls-12" d="M415.59,173.61c3.9,3.29,7.81,6.57,11.69,9.88,2.42,2.06,4.87,4.08,7.08,6.37.91.95,1.04,2.06.43,2.91-.66.91-1.78,1.11-3,.51-.31-.15-.6-.33-.89-.51-1.38-.87-2.76-1.74-4.12-2.63-.52-.34-.8-.41-1.16.27-.67,1.28-1.73,1.63-3.03.85-3.28-1.96-6.9-3.58-9.5-6.32-2.43-2.56-5.44-4.08-8.15-6.12-1.23-.93-2.55-1.75-3.68-2.81-.4-.38-.78-.8-1.1-1.25-.62-.88-.79-1.82-.11-2.75.62-.86,1.51-1.07,2.51-.91.81.13,1.57.43,2.3.8,1.6.82,3.19,1.65,4.89,2.35-2.2-1.86-4.41-3.7-6.58-5.59-.94-.81-1.85-1.67-2.66-2.61-.95-1.1-1.03-2.41-.3-3.31.85-1.05,1.97-1.15,3.15-.7,2.85,1.09,5.52,2.57,8.21,3.99.4.21.75.55,1.58.58-2.96-1.94-5.67-3.72-8.37-5.51-.64-.43-1.3-.86-1.85-1.39-.69-.66-1.06-1.51-.53-2.44.53-.93,1.37-1,2.35-.8,6.74,1.35,12.71,4.51,18.27,8.31,6.76,4.61,13.3,9.57,19.76,14.62.47.36.89.81,1.24,1.29.32.43.4.98,0,1.43-.41.46-.94.37-1.42.11-.37-.2-.71-.48-1.04-.76-5.91-4.81-12.51-8.58-19.03-12.81.05.56.37.7.61.88,5.11,3.99,10.22,7.97,15.32,11.96.47.37.93.77,1.3,1.23.66.82.74,1.74.08,2.61-.63.82-1.5.98-2.42.57-.67-.29-1.31-.64-1.93-1.02-6.35-3.84-12.74-7.63-19.25-11.2-.18-.1-.37-.18-.55-.26-.03.06-.05.12-.08.18Z"/>
    <path class="cls-12" d="M449.2,202.89c.48-1.45.94-3.16,1.59-4.78,4.37-10.96,8.77-21.91,13.18-32.86.34-.83.74-1.65,1.15-2.45.37-.72.96-1.16,1.79-.83.81.32,1.03,1.05.78,1.82-.59,1.84-1.21,3.67-1.9,5.47-3.85,9.97-7.74,19.92-12.19,29.64-.69,1.52-1.18,3.13-1.78,4.69-.28.71-.81,1.14-1.6.99-.77-.14-.97-.75-1.01-1.7Z"/>
    <path class="cls-12" d="M446.31,196.9c.29-1.88,1.07-3.75,1.79-5.62,2.64-6.9,5.92-13.5,9.23-20.09,1.1-2.18,2.11-4.41,3.17-6.61.32-.67.7-1.43,1.62-1.08.86.33.76,1.12.62,1.87-.4,2.17-1.22,4.2-2.2,6.16-4.08,8.17-7.76,16.53-11.69,24.77-.2.43-.4.86-.65,1.25-.33.51-.72,1.08-1.42.84-.61-.21-.4-.86-.47-1.49Z"/>
    <g>
      <g>
        <path class="cls-1" d="M405.6,184.39c-5.52-7.76-7.45-17.16-5.19-26.47,2.31-9.51,8.18-16.89,14.9-23.72,1.9-1.93-.94-4.7-2.95-2.95-14.76,12.9-24.69,38.72-9.2,55.02,1.19,1.25,3.48-.42,2.44-1.88h0Z"/>
        <path class="cls-1" d="M412.93,133.88c1.52,3.44,7.52,8.83,10.04,3.02.85-1.97-.24-4.45,2.6-3.12,2.14,1,3.91,3.07,5.45,4.8,8.47,9.49,12.19,21.92,8.28,34.39-.79,2.53,3.09,3.56,3.95,1.09,4.21-12.21.82-25.6-7-35.47-2.71-3.42-6.39-7.95-10.88-8.98-1.69-.39-3.68-.08-4.76,1.4-.78,1.08-.37,2.44-.95,3.45-.05.28-.09.57-.14.85-.92.13-1.62-.16-2.1-.86-.68-.56-1.15-1.54-1.56-2.3-1.05-1.98-3.81-.24-2.95,1.72h0Z"/>
        <path class="cls-1" d="M440.3,178.82c3-7.46,11.01-11.88,18.46-13.67,3.61-.87,7.43-1.2,11.13-.73,2.65.34,5.15,1.24,7.56,2.36,2.08.97,4.75,1.85,5.72,4.06.25-.95.5-1.9.75-2.85-5.62,2.54-4.33,12.32,2,12.74-.6-1.04-1.19-2.08-1.79-3.12-4.83,11.38-13.6,19.45-24.83,24.35-2.11.92-.6,4.53,1.58,3.74,12.33-4.48,21.99-14.53,27.03-26.49.56-1.33-.82-2.55-2-2.62-2.37-.15-1.46-4.31.1-5.01,1.11-.5,1.15-1.91.75-2.85-1.01-2.33-2.97-3.46-5.16-4.56-2.85-1.44-5.8-2.82-8.94-3.5-4.66-1-9.55-.71-14.17.32-9.29,2.08-18.12,7.63-21.29,16.96-.68,2,2.35,2.73,3.1.86h0Z"/>
        <path class="cls-1" d="M411.97,188.3c-7.39-8.78-20.11-8.26-30.25-5.49-2.94.8-5.85,1.81-8.68,2.92-2.49.98-5.75,2.02-7.7,3.92-4.65,4.56,8,7.32,3.15,10.69-2.13,1.48-.22,4.92,2.07,3.53,2.5-1.51,3.77-3.98,2.93-6.89-.37-1.28-1.11-2.46-2.01-3.44-.76-.82-2.96-1.78-3.41-2.68v2.1c.69-1.49,4.76-2.7,6.09-3.23,1.84-.73,3.72-1.38,5.6-1.99,3.17-1.04,6.42-1.89,9.73-2.33,7.39-.99,14.39.36,20.29,5.1,1.56,1.25,3.52-.65,2.21-2.21h0Z"/>
        <path class="cls-1" d="M366.33,201.7c-.24,15.15,16.67,27.52,31.09,22.83,2.51-.82,1.43-4.23-1.07-3.87-6.61.96-12.97.32-18.4-3.95-4.96-3.9-7.24-9.43-8.43-15.45-.36-1.84-3.16-1.35-3.19.43h0Z"/>
        <path class="cls-1" d="M402.34,215.09c-14.28,8.91-18.99,32.35-7.52,45.4.71.81,2.05.69,2.78,0,1.75-1.67,3.03-2.18,5.06-.5.83.68,1.6,1.37,2.61,1.78,1.71.69,3.4.35,5.1-.2,3.86-1.23,7.9-3.16,11.21-5.44,8.45-5.83,14.82-13.63,16.4-23.97.38-2.51-3.47-3.59-3.85-1.06-1.6,10.7-8.96,19.12-18.47,24.01-1.56.8-3.16,1.54-4.8,2.15-2.92,1.08-3.58,1.24-6.24-.75-3.75-2.82-6.59-1.84-9.81,1.22h2.78c-9.76-11.1-5.25-31.84,6.38-39.84,1.69-1.16.16-3.9-1.63-2.79h0Z"/>
        <path class="cls-1" d="M458.21,205.05c6.87,1.97,12.18,5.99,16.55,11.62,2.01,2.58,4.04,5.48,4.82,8.7.84,3.45-.04,6.73-.61,10.13-.42,2.56,3.2,3.68,3.96,1.09,2.5-8.43.54-15.39-4.77-22.21-4.61-5.92-11.57-12.35-19.53-12.5-1.84-.03-2.17,2.67-.43,3.17h0Z"/>
        <path class="cls-1" d="M434.46,237.94c3.4,8.55,11.4,14.87,20.46,16.45,10.27,1.79,19.62-2.43,26.94-9.49,1.56-1.5-.07-3.89-2.02-3.46-1.88-1.39-1.81-2.01.22-1.85,2.53.74,3.6-3.18,1.09-3.94-3.19-.96-7.01,1.12-7.09,4.71-.08,3.66,3.62,5.78,6.88,5.07-.67-1.15-1.34-2.31-2.02-3.46-6.35,6.1-14.54,9.98-23.48,8.34-7.99-1.47-14.01-6.76-17.96-13.65-.91-1.58-3.75-.51-3.03,1.28h0Z"/>
      </g>
      <g>
        <path class="cls-1" d="M424.55,175.61c.2.05.35.17.44.34-.09-.16-.08-.15.02.05-.02-.37-.04.34-.01-.07-.04.22-.05.27-.02.14.04-.13.01-.09-.07.12.1-.17.08-.15-.06.06-.21.15-.22.18-.04.09-.31.08-.62.17-.93.25-.33-.03-.49-.11-.68-.37.1.18.1.16,0-.06.05.21.05.19,0-.07,0,.22,0,.19.01-.08.03-.14.1-.26.19-.36.09-.1.19-.17.32-.21.26-.03.29-.04.06-.04.26.04.28.03.06-.03.13.02.24.08.32.19-.15-.16-.15-.14,0,.05.07.12.09.24.08.38,0-.24,0-.24,0-.01-.09.19-.07.18.04-.02-.03.09-.09.16-.18.19.2-.11.21-.12.03-.03-.22,0-.22,0,.02,0-.13.01-.25-.02-.36-.09.19.12.19.11,0-.03.15.16.16.15.02-.02.06.09.12.19.16.29-.09-.21-.11-.21-.04,0-.03-.25-.04-.26-.03-.04-.01-.13.02-.26.1-.37-.12.19-.11.18.03-.02-.16.15-.15.14.03-.02-.2.1-.18.1.04-.01-.22.05-.2.06.06.01-.11,0-.21,0-.32,0,.26.04.29.03.06-.02.23.1.25.1.05,0-.18-.11-.18-.11.02.02-.76-.71-1.98-.76-2.74,0-.81.81-.64,1.91,0,2.74,1.91,2.45,6.13.99,6.54-1.91.44-3.12-3.1-5.69-5.8-3.77-1.4,1-2.05,2.81-1.3,4.41.58,1.24,1.97,2,3.32,1.95,1.61-.06,2.97-1.37,2.98-3,.01-1.36-.82-2.84-2.19-3.22-1.77-.5-3.29.88-3.31,2.65-.02,1.57,1.11,2.84,2.67,2.93.75.05,1.41-.61,1.49-1.32.1-.8-.37-1.38-1.09-1.67h0Z"/>
        <path class="cls-1" d="M405.23,199.8c.71.64.95.77.75.37.06.09.08.19.07.3,0,.14-.15.25-.17.37-.11.06-.11.06,0,0,.08-.05.16-.1.25-.14-.21.1.39-.13.46-.15l-1.43-.19c-.21-.12-.35-.29-.42-.5-.02-.24-.03-.25-.02-.03-.02-.12.01-.23.08-.33-.1.18-.11.19-.02.03.12-.09.09-.08-.11.05.15-.05.12-.03-.11.04-.26.08-.53.14-.8.19.63.17,1.25.33,1.88.5.13.14.22.31.25.5.02.13-.09.5.02.22-.16.4-.43.56-.86.6-.65-.65-1.3-1.3-1.95-1.95.04-.35.21-.59.51-.74.39-.22.44-.29.15-.22-1.86.27-1.77,3.31,0,3.67.92.18,1.83.02,2.5-.69.69-.73.81-1.58.66-2.53-.11-.77-1.11-1.51-1.88-1.43-1.24.12-2.23.74-2.73,1.91-.47,1.1-.34,2.41.49,3.3,1,1.06,2.67.61,3.79-.04,1.06-.61,1.78-1.66,1.86-2.89.08-1.12-.45-2.26-1.43-2.83-1.15-.67-2.69.21-3.53,1.04-1.81,1.78-.57,5.21,2.15,4.62,1.74-.37,1.28-2.97-.41-3.02h0Z"/>
        <path class="cls-1" d="M420.45,221.48c-.02-.08-.03-.35-.05-.25.03-.18.08-.38.15-.55-.08.18.19-.27.18-.26-.09.1-.06.08.08-.08.09-.09.19-.17.29-.25-.59.15-1.17.31-1.76.46.12.01.24.03.36.07-.16-.07-.14-.05.05.05-.13-.11-.12-.09.04.06-.1-.14-.1-.11.02.07-.05-.22,0-.31-.06-.08-.01-.11.01-.21.07-.29-.12.19-.12.19,0,.02.17-.11.16-.11-.03,0,.2-.07.19-.07-.02,0,.15,0,.53.11.19-.03.13.02.24.07.33.16.14.2.16.2.05.02.1.23.12.24.05.03.03.24.04.28.04.13,0-.15,0-.1-.01.14-.04.14-.11.25-.22.34.24-.22.12-.17-.36.16.22-.06.2-.05-.07,0-.24-.04-.29-.04-.14,0,.14.04.1.03-.11-.04-.18-.16-.19-.17-.03-.02-.1-.1-.16-.21-.19-.35-.03-.15-.02-.3.04-.44-.06.21-.05.19.03-.07.06-.07.48-.46.17-.22.25-.09.27-.1.06-.04.28-.02.31-.03.09-.03.29.05.32.05.1-.01.25.1.28.11.07.02-.79-.36-1.69-.35-2.34.3-.56.56-.81,1.67-.3,2.34.89,1.18,2.31,1.63,3.72,1.1,1.31-.5,2.29-1.65,2.3-3.1.03-3.14-4.32-4.54-6.11-1.98-1.58,2.26.19,5.62,2.99,5.41,1.46-.11,2.83-1.11,3.27-2.52.4-1.3-.03-2.78-1.03-3.7-.53-.49-1.17-.84-1.87-.97-1.18-.21-1.95.31-2.6,1.24-.8,1.16-.94,2.69-.57,4.03.56,2.01,3.62,1.17,3.13-.86h0Z"/>
        <path class="cls-1" d="M447.57,216.54c.11.14-.07.07-.01-.1,0,.02.01.05.02.07-.03.12-.03.11,0,0,.03-.12.03-.12.01,0-.1.1-.2.2-.29.29-.18.06-.21.07-.09.03.14-.04.1-.03-.11,0,.27.11,0,0-.13-.06-.15-.07-.27-.18-.35-.32-.18-.26-.21-.52-.09-.78.11-.31.1-.35,0-.12.26-.38.71-.56,1.17-.45.46.82.93,1.64,1.39,2.45.04-.27-.01,0-.08.09-.11.14-.21.24-.35.34.24-.18-.09.02-.23.05-.3.07.19.05-.12-.01-.36-.08.2.14-.11-.03-.14-.08-.27-.14-.38-.27-.1-.11-.16-.22-.18-.37-.01-.06-.01-.57-.03-.17,0-.16.14-.22-.01-.04.09-.11.15-.17.26-.26-.16.13-.14.08.03,0,.32-.15,0,.08-.01-.03.06,0,.12,0,.18,0-.06-.02-.12-.04-.18-.06.3.34-.08-.24.04,0,.11.21-.17-.24-.04-.03.11.17-.16-.28-.15-.27-.47-.86-1.61-1.2-2.49-.81-.82.36-1.53,1.42-1.15,2.35.67,1.65,2.16,3,4.06,2.87,1.87-.13,3.4-1.62,3.49-3.52.09-1.8-1.28-3.27-3.07-3.37-.72-.04-1.46.18-2.05.57-.87.58-1.22,1.4-1.35,2.41-.11.82.69,1.75,1.46,1.92,1.62.35,3.27-.59,3.65-2.25.37-1.6-.61-3.18-2.21-3.55-1.38-.32-2.86.33-3.54,1.57-.77,1.39-.34,3.07.67,4.2.6.68,1.76.62,2.37,0,.69-.69.58-1.67,0-2.37h0Z"/>
        <path class="cls-1" d="M449.84,192.97c-.01-.11-.02-.22-.02-.33,0,.23,0-.03.04-.14.02-.06.02-.07.06-.11.08-.07.08-.08.01-.03-.1.06-.06.05.1-.05-.08.01-.2.03-.27.06.15-.04.24.06.07,0-.19-.07,0,.03.07.05-.08-.02-.2-.25-.09-.06.11.19,0-.03,0-.1,0-.05.06-.33,0-.13-.05.21.07-.13.09-.17.09-.11.07-.1-.06.04.05-.04.09-.08.14-.12-.25.06-.07,0,.03,0-.22-.01-.12,0,.05,0,.07.01.14.03.21.04-.18-.05-.2-.05-.06,0,.12.08.2.14.3.24.21.22-.11-.23.03.05.15.32-.06-.3.03.06.02.17.03.15.02-.04,0,.08-.02.15-.03.23.11-.21.03-.08-.04.05.12-.22.07-.04-.04.05-.11.1-.21.15-.34.21-.25.02-.29.02-.14.02.12,0,.11,0-.03-.01-.37,0,.29.02-.04,0-.19,0,.09.13-.03,0-.12-.12-.23-.34-.11-.08-.06-.13-.12-.23-.13-.38,0-.13.06-.22.08-.34.02-.16.18-.1-.03.01.02-.01.42-.21.19-.13-.16.06.17.02.28.03-1.08-.15-2.17.26-2.48,1.41-.3,1.09.37,2.15,1.41,2.48,3.05.97,5.73-2.7,4.05-5.34-1.6-2.51-5.57-2.11-6.44.79-.82,2.74,1.75,5.39,4.5,4.4,1.33-.48,2.34-1.62,2.44-3.07.1-1.37-.67-2.71-1.85-3.4-3.01-1.77-6.34,1.6-4.91,4.62.66,1.39,3.11.75,2.96-.8h0Z"/>
        <text/>
        <path class="cls-1" d="M407.83,200.25c6.77.65,13.94.37,20.71-.16,2.54-.2,2.59-4.12,0-4-6.87.33-13.88.51-20.71,1.2-1.9.19-1.91,2.78,0,2.96h0Z"/>
        <path class="cls-1" d="M429.36,200.1c6.28-1.09,12.28-2.88,18.2-5.25,2.59-1.04,1.09-4.75-1.5-3.56-5.6,2.56-11.5,4.48-17.49,5.94-1.89.46-1.06,3.19.79,2.87h0Z"/>
        <path class="cls-1" d="M426.82,198.58c-2.13,6.75-4.48,13.31-7.35,19.79-.97,2.19,2.21,4.12,3.26,1.91,3.14-6.62,5.63-13.68,7.06-20.87.38-1.93-2.37-2.73-2.97-.82h0Z"/>
        <path class="cls-1" d="M426.8,200.91c6.53,4.62,12.59,9.85,19.06,14.55,1.75,1.27,3.96-1.58,2.32-3.01-6.12-5.34-13.06-9.75-19.78-14.27-1.7-1.15-3.24,1.57-1.6,2.73h0Z"/>
      </g>
    </g>
  </g>
</svg>