<?xml version="1.0" encoding="UTF-8"?>
<svg id="Layer_1" data-name="Layer 1" xmlns="http://www.w3.org/2000/svg" viewBox="0 0 215.8 306.62">
  <defs>
    <style>
      .cls-1 {
        fill: #fcc48c;
      }

      .cls-2 {
        fill: #c4e0b0;
      }

      .cls-3 {
        fill: #638aaf;
      }

      .cls-4 {
        fill: #ecbbcc;
      }

      .cls-5 {
        fill: #fc6;
      }
    </style>
  </defs>
  <g>
    <g>
      <g>
        <path class="cls-4" d="M32.98,228.78c.73-.32,1.46-.69,2.19-1.05.24.04.49.04.73.04-.49.32-.97.65-1.42,1.01-1.05.81-1.74,2.19-1.01,3.44.53,1.05,1.54,1.42,2.63,1.05,9.04-3.12,17.91-6.73,26.58-10.78,2.35-1.09.73-4.78-1.66-3.69-3.65,1.7-7.33,3.32-11.06,4.82.12-.08.28-.16.41-.24,1.3-.85.81-2.51-.24-3.24,1.78-.97,3.53-1.95,5.27-2.96,2.23-1.26.77-4.86-1.62-3.69-6.81,3.28-13.49,6.73-20.18,10.33-.2.08-.36.24-.49.36v.04c-.57.28-1.18.53-1.74.81-2.39,1.09-.73,4.82,1.62,3.73Z"/>
        <path class="cls-4" d="M22.81,210.3c1.74-.77,3.53-1.5,5.27-2.27-.28.2-.61.36-.89.53-2.27,1.3-.65,5.03,1.62,3.73,10.25-5.92,20.46-11.79,30.72-17.71,2.23-1.26.81-4.74-1.62-3.69-3.61,1.54-7.21,3.08-10.86,4.62,3-1.78,5.88-3.65,8.63-5.8,1.82-1.42,0-4.42-2.07-3.44-10.21,4.74-20.34,9.6-30.43,14.59-1.9.93-1.18,3.57.41,3.89-.97.65-1.95,1.38-2.88,2.11-1.82,1.46,0,4.34,2.11,3.44Z"/>
        <path class="cls-4" d="M29.17,219.38c2.92-1.54,5.88-3.04,8.79-4.5-3.28,2.11-6.56,4.17-9.89,6.2-2.23,1.34-.61,5.03,1.62,3.69,11.95-7.34,23.83-14.83,35.5-22.61.16-.08.28-.2.45-.28,1.95-1.3-.08-4.34-2.11-3.44-12.2,5.35-24.19,11.1-35.99,17.26-2.31,1.22-.69,4.9,1.62,3.69Z"/>
      </g>
      <path class="cls-1" d="M84.37,222.94c7.66,1.9,15.36,3.69,23.1,5.31-3.49.28-7.01.41-10.5.41-2.63.04-2.63,4.09,0,4.05,7.9,0,15.8-.69,23.63-1.99,1.99-.32,1.9-3.53,0-3.93-3.85-.73-7.7-1.5-11.51-2.31,6.16.45,12.36.69,18.56-.2,1.99-.28,1.95-3.61,0-3.93-6-1.01-12-2.03-18.03-3.04,7.58-.57,15.12-1.17,22.69-1.74,2.31-.16,2.76-3.24.57-3.97-9.81-3.36-20.18-3.93-30.35-5.43,3.93,0,7.86.16,11.79.41.16,0,.36.04.53.04,1.82.12,2.51-2.15,1.54-3.32,3.16.08,6.28.16,9.44.24,2.47.04,2.47-3.16.53-3.97-7.9-3.32-16.29-5.15-24.88-5.59-2.59-.12-2.59,3.93,0,4.05,3.04.16,6.04.53,9,1.05-6.52-.16-13.01-.32-19.53-.49-2.31-.08-2.51,2.8-.93,3.73-1.26.04-2.55.08-3.81.16-2.31.12-2.67,3.24-.53,3.97,10.86,3.81,22.45,4.17,33.72,6.04-8.79.69-17.55,1.34-26.34,2.03-2.15.16-2.92,3.57-.53,3.97.16.04.36.04.53.08,2.07.37,4.09.73,6.16,1.05-4.74-.45-9.52-.81-14.26-.65-2.27.08-2.84,3.4-.57,3.97Z"/>
      <g>
        <path class="cls-5" d="M142.36,253.58c-1.86,1.46.49,3.89,2.31,3,5.43-2.51,10.78-5.19,16.05-7.94-.53.41-1.05.85-1.58,1.26-1.7,1.38.61,4.34,2.35,3.04.12-.12.28-.2.41-.28.08-.08.2-.16.28-.24,5.47-4.09,10.94-8.19,16.41-12.32-3.73,6.28-7.98,12.28-12.68,17.87-1.58,1.9,1.13,4.62,2.72,2.72,6.89-8.19,12.85-17.1,17.79-26.62.77-1.54-.97-3.89-2.67-2.63-2.11,1.58-4.17,3.12-6.28,4.74-.57-.37-1.26-.49-1.95-.08-5.23,3.04-10.5,5.92-15.8,8.75,7.94-6.08,16.05-11.95,24.27-17.67,2.03-1.42.08-4.74-1.95-3.32-13.45,9.28-26.5,19.09-39.19,29.38-.04,0-.08.04-.12.04v.04c-.12.08-.24.2-.36.28Z"/>
        <path class="cls-5" d="M135.92,243.85c11.43-3.44,22.33-8.43,32.38-14.87,2.07-1.34.12-4.66-1.95-3.32-6.65,4.21-13.62,7.82-20.87,10.74,3.36-2.72,6.69-5.47,9.93-8.27,5.51-4.74,11.79-9.6,15.36-16.09.57-1.09-.08-2.43-1.09-2.88,1.05-1.09,2.03-2.15,3.04-3.24,1.46-1.54-.45-4.25-2.35-3.04-11.31,7.25-22.25,15.04-32.83,23.26-1.95,1.54.77,4.26,2.72,2.72,5.59-4.34,11.27-8.51,17.06-12.56-2.67,2.68-5.43,5.27-8.19,7.82,0,0-.04,0-.04.04-2.39,2.19-4.82,4.38-7.29,6.52-1.22,1.13-.45,2.63.73,3.12-2.8,2.31-5.63,4.58-8.47,6.81-1.54,1.26.12,3.77,1.86,3.24Z"/>
      </g>
      <g>
        <path class="cls-3" d="M102.62,302.26c20.6-6.03,38.81-18.41,52.8-34.69.41,1.23,1.06,2.37,1.47,3.6-11.43-1.94-23.2.66-32.8,7.32-9.22,6.39-15.21,16.24-19.07,26.52-1.02,2.71-5.04.69-4.03-2.01,4.22-11.26,10.99-21.83,21.17-28.65,10.49-7.03,23.32-9.69,35.67-7.59,1.7.29,2.05,2.54.97,3.79-14.46,16.83-33.4,29.74-54.7,35.97-2.78.81-4.3-3.43-1.51-4.25.14-.03.03,0,.03,0Z"/>
        <path class="cls-3" d="M87.33,298.72c11.76-22.34,29.24-41.61,50.97-54.49,2.49-1.47,5.03,2.25,2.53,3.73-21.09,12.5-38.05,31.07-49.47,52.77-1.35,2.56-5.4.59-4.05-1.98.08-.12.01-.02.01-.02Z"/>
        <path class="cls-3" d="M80.03,294.11c.79-20.49,7.43-39.86,14.72-58.79,1.04-2.7,5.07-.68,4.03,2.01-6.98,18.12-13.5,36.85-14.26,56.48-.11,2.87-4.61,3.23-4.5.34.02-.15,0-.03,0-.03Z"/>
        <path class="cls-3" d="M63.93,292.99c-11.09-16.7-17.93-36.15-18.57-56.19-.09-2.89,4.4-3.21,4.49-.3.62,19.28,7.13,37.89,17.81,53.97,1.61,2.42-2.11,4.97-3.71,2.56-.07-.13-.02-.03-.02-.03Z"/>
        <path class="cls-3" d="M40.08,293.38c-19.33-7.45-34.81-24.17-40.01-44.23-.42-1.62.97-3.14,2.76-2.78,21.49,4.35,32.03,25.15,39.92,43.37,1.15,2.66-3.11,4.13-4.25,1.49-7.23-16.67-16.82-36.44-36.58-40.44.86-.98,1.55-2.12,2.41-3.11,4.94,19.06,19.38,34.59,37.76,41.67,2.7,1.04.7,5.08-1.99,4.04-.11-.05-.02,0-.02,0Z"/>
        <path class="cls-3" d="M171.98,228.08c1.41,4.71-4.62,8.71-8.71,9.11-4.77.46-8.79-3.6-8.93-8.29-.13-4.65,3.29-8.64,7.79-9.42,4.64-.8,9.81,2.28,9.54,7.44-.15,2.86-4.64,3.2-4.49.3.27-5.24-7.75-3.55-8.46.66-.34,2.02.89,3.96,2.9,4.51,1.2.33,2.26.14,3.31-.44.36-.2,2.97-1.82,2.8-2.4-.83-2.77,3.42-4.27,4.25-1.49.01.04,0,0,0,0Z"/>
        <path class="cls-3" d="M155.9,244.7c-5.23,7.11-16.25,6.05-19.77-1.98-3.66-8.34,4.27-19.42,13.42-18.19-.49,1.41-.93,2.82-1.42,4.23-3.57-2.05-7.14-4.86-8.3-9.07-1.23-4.43.32-9.26,3.65-12.22,6.67-5.93,17.15-3.83,21.5,3.97-1.04-.2-2.02-.71-3.07-.91,5.74-4.28,15.55-5.52,20.97.23,5.56,5.89,2.67,14.39-2.86,18.89-.27-1.36-.65-2.68-.92-4.04,7.21.68,8.84,11.1,6.45,16.44-2.86,6.39-11.6,7.24-16.2,2.14,1.24-.62,2.51-1.16,3.76-1.78.59,7.34-4.67,14.95-12.29,16.06-3.71.54-7.5-.75-9.2-4.13-1.93-3.81-.47-8.05,1.38-11.68,1.32-2.58,5.36-.58,4.03,2.01-1.13,2.21-2.62,4.85-1.58,7.29,1.12,2.62,4.06,2.55,6.46,1.58,4.33-1.74,7.07-6.3,6.71-10.79-.14-1.79,2.31-3.51,3.66-2.01,2.66,2.95,7.56,3.26,9.26-.78,1.21-2.87.59-9.58-3.39-9.95-2.12-.2-1.95-3.05-.62-4.13,3.58-2.91,5.98-9.21,1.42-12.64-4.24-3.19-10.62-1.9-14.48.98-.91.68-2.63.78-3.2-.25-2.87-5.14-9.35-7.39-14.2-3.68-2.36,1.81-3.82,5.21-2.89,8.25.87,2.82,3.49,4.77,5.87,6.13,2.23,1.29,1.2,4.6-1.36,4.26-5.83-.78-10.65,7.38-8.31,12.29,2.41,5.07,8.99,4.75,12.12.49,1.72-2.34,5.11.62,3.41,2.94-.09.1-.02.02-.02.02Z"/>
        <path class="cls-3" d="M108.66,232.87c-2.37,4.69-8.08,6.98-12.64,4.11-4.63-2.91-4.97-8.85-1.88-13.12.99,1.12,2,2.21,2.99,3.32-4.8,2.8-11.1.49-12.31-5.25-1.17-5.59,3.03-10.47,8.24-11.54-.25,1.27-.36,2.59-.61,3.86-4.66-4.49-5.68-11.88-1.18-16.77,4.48-4.86,11.91-4.67,16.81-.37-1.17.23-2.38.24-3.55.47,2.65-5.81,9.33-8.9,15.43-6.22,5.78,2.54,7.81,10.03,3.67,14.81-.41-1.23-.97-2.41-1.39-3.64,6.17.97,10.91,6.26,10.32,12.54-.58,6.24-6.29,10.67-12.54,10.35.28-1.42.56-2.84.84-4.27,6.64,3.21,4.91,12.71.05,16.79-5.94,4.98-15.33,2.14-16.36-5.72-.37-2.88,4.12-3.17,4.49-.3.6,4.61,6.39,5.13,9.35,2.25,2.16-2.1,3.94-7.3.5-8.97-1.88-.91-1.56-4.41.76-4.29,4,.2,7.92-1.93,8.42-6.09.5-4.14-2.82-7.25-6.79-7.88-1.7-.27-2.08-2.54-1.01-3.77,2.5-2.88.57-6.94-2.91-7.99-3.77-1.14-7.27,1.06-8.78,4.37-.6,1.32-2.38,1.92-3.44.99-3.05-2.68-7.63-3.14-10.48-.09-2.82,3.01-2.14,7.63.78,10.45,1.07,1.04.82,3.39-.96,3.76-2.56.53-4.9,2.19-5.31,5.05-.45,3.14,2.68,5.37,5.37,3.8,2.26-1.32,4.54,1.2,3.04,3.28-3.68,5.07,4.6,10.02,7.49,4.31,1.31-2.58,5.34-.57,4.02,2.03-.07.11-.44-.25-.44-.25Z"/>
        <path class="cls-3" d="M114.29,218.02c-.45,4.17-6.08,6.81-9.88,6.17-4.46-.75-5.5-5.95-5.23-9.82.29-4.12,3.47-7.11,7.64-6.73,4.53.41,7,4.56,7.66,8.7.46,2.86-4.04,3.15-4.49.3-.27-1.72-1.07-3.81-2.86-4.4-1.9-.62-3.32.58-3.49,2.49-.12,1.3-.09,4.39,1.32,5,1.45.63,4.76-1.15,4.92-2.61.31-2.88,4.72-1.97,4.41.9,0,.04,0,0,0,0Z"/>
        <path class="cls-3" d="M56.48,219.7c3.27,6.37,1.07,14.52-6.01,16.9-7.07,2.38-13.79-2.65-15.04-9.74,1.31.44,2.59,1.01,3.91,1.45-4.71,5.37-13.15,1.48-16.29-3.75-3.56-5.93-1.79-13.73,4-17.38-.2,1.04-.1,2.16-.3,3.2-3.51-5.89-3.82-13.64,1.63-18.38,4.82-4.19,11.98-3.24,15.95,1.73-1.29.09-2.6-.03-3.89.06,3.3-5.63,10.57-7.95,16.51-4.61,2.5,1.4,4.76,3.43,5.18,6.33.49,3.41-1.39,6.43-2.94,9.36-.52-1.07-.86-2.2-1.39-3.27,5.42,1.35,8.93,6.61,8,12.27-.98,5.94-6.36,9.76-12.14,8.95-2.87-.4-1.96-4.81.9-4.41,7.64,1.07,9.7-10.05,2.26-11.9-1.37-.34-1.99-2-1.29-3.33,1.71-3.24,3.46-7.55-.6-9.95-3.65-2.16-8.36-1.01-10.44,2.55-.89,1.52-2.77,1.9-3.86.54-2.5-3.12-7.12-3.16-9.79-.46-3.24,3.27-2.58,8.29-.35,12.03.61,1.02.13,2.37-.94,3.05-3.45,2.17-4.87,6.66-3.09,10.5,1.33,2.89,6.57,7.26,9.46,3.97,1.39-1.59,3.68-.71,4,1.12.75,4.25,4.98,7.2,9.06,5.84,4.08-1.36,5.75-6.26,3.77-10.12-1.31-2.55,2.4-5.12,3.72-2.55.05.11,0,.02,0,.02Z"/>
        <path class="cls-3" d="M51.88,209.05c.31,4.42-2.62,8.45-7.12,8.9-4.26.43-8.14-2.99-8.63-7.2-.5-4.29,2.42-8.31,6.62-9.1,4.4-.83,9.21,2.25,9.13,7.04-.05,2.88-4.54,3.21-4.49.3.08-4.69-7.73-3.16-6.93,1.48.77,4.49,7.24,3.32,6.93-1.12-.21-2.89,4.29-3.2,4.49-.3,0,.04,0,0,0,0Z"/>
      </g>
    </g>
    <g>
      <path class="cls-2" d="M69.35,115.49c-10.05,4.21-19.78,9.1-29.13,14.69-.61-1.15-1.22-2.31-1.83-3.46,8.4-3.11,16.8-6.22,25.19-9.33,2.44-.9,3.59,2.6,1.36,3.71-6.4,3.19-12.79,6.38-19.19,9.57-.45-1.24-.91-2.47-1.36-3.71,12.43-3.47,24.86-6.93,37.29-10.4,1.98-.55,3.91,2.3,1.83,3.46-13.84,7.76-27.97,14.98-42.37,21.64-.45-1.24-.91-2.47-1.36-3.71,8.2-2.57,16.39-5.14,24.59-7.71,2.44-.77,3.68,2.67,1.36,3.71-5.52,2.48-11.05,4.96-16.57,7.44-.45-1.24-.91-2.47-1.36-3.71,8-1.93,16-3.85,24-5.78,2.41-.58,3.79,2.76,1.36,3.71-8.95,3.51-17.91,7.01-26.86,10.52.42-.5.84-1,1.26-1.51-.6,2.52-2.16,4.38-4.64,5.22-.28-1.27-.56-2.55-.85-3.82,4.57-.47,9.13-.94,13.7-1.41,1.58-.16,2.93,2,1.69,3.23-1.19,1.18-2.45,1.86-4.16,1.88-2.58.03-2.81-3.46-.33-3.94,8.17-1.59,16.12-4.02,23.81-7.19.11,1.27.22,2.53.33,3.8-2.45-.55-4.71-.34-7.02.63-.45-1.24-.91-2.47-1.36-3.71,1.68-.48,3.35-.97,5.03-1.45.61-.18,4.23-.76,4.46-1.38-.02.5-.04,1.01-.06,1.51-.04-.13-.08-.26-.13-.39-.77-2.41,2.93-3.79,3.71-1.36.64,2-.61,3.42-2.43,4.12-2.94,1.14-6.19,1.79-9.23,2.66-2.43.7-3.73-2.71-1.36-3.71,2.91-1.23,5.99-1.5,9.07-.81,1.93.43,2.17,3.04.33,3.8-8.03,3.31-16.33,5.76-24.84,7.42l-.33-3.94c.55.09,1.03-.06,1.44-.46.56,1.08,1.13,2.15,1.69,3.23-4.57.47-9.13.94-13.7,1.41-2.2.23-2.97-3.1-.85-3.82,1.61-.55,1.52-1.38,2.26-2.69.6-1.05,1.79-1.29,2.84-1.7,2.74-1.07,5.49-2.15,8.23-3.22,5.63-2.21,11.27-4.41,16.9-6.62.45,1.24.91,2.47,1.36,3.71-8,1.93-16,3.85-24,5.78-2.44.59-3.73-2.65-1.36-3.71,5.52-2.48,11.05-4.96,16.57-7.44.45,1.24.91,2.47,1.36,3.71-8.2,2.57-16.39,5.14-24.59,7.71-2.45.77-3.66-2.65-1.36-3.71,14.08-6.51,27.9-13.56,41.43-21.15.61,1.15,1.22,2.31,1.83,3.46-12.43,3.47-24.86,6.93-37.29,10.4-2.48.69-3.63-2.58-1.36-3.71,6.4-3.19,12.79-6.38,19.19-9.57l1.36,3.71c-8.4,3.11-16.8,6.22-25.19,9.33-2.03.75-3.79-2.29-1.83-3.46,9.65-5.77,19.7-10.85,30.07-15.19,2.35-.98,3.71,2.73,1.36,3.71h0Z"/>
      <path class="cls-5" d="M135.14,49.34c-.61-2.23-1.08-4.5-1.39-6.8-.27-2.02,2.44-2.78,3.58-1.31,1.88,2.42,3.9,4.73,6.07,6.89-1.07.39-2.14.78-3.2,1.18.77-3.14.55-6.49.6-9.7.06-3.48.12-6.95.17-10.43.04-2.54,3.5-2.86,3.94-.33.94,5.48,2.65,10.79,5.01,15.83.45.97-.23,2.19-1.17,2.54-1.07.39-2.08-.2-2.54-1.17-2.51-5.36-4.24-11.03-5.24-16.86,1.31-.11,2.63-.22,3.94-.33-.06,3.6-.12,7.2-.18,10.8-.06,3.41.18,7.01-.64,10.35-.32,1.31-2.07,2.3-3.2,1.18-2.42-2.4-4.68-4.95-6.77-7.64,1.19-.44,2.38-.88,3.58-1.31.26,1.95.64,3.87,1.16,5.76.28,1.03-.11,2.15-1.17,2.54-.94.34-2.25-.14-2.54-1.17h0Z"/>
      <path class="cls-5" d="M152.61,66.14c.48-5.25.39-10.49-.19-15.73-.24-2.16,3.25-3.04,3.82-.85,2.14,8.2,4.99,16.17,8.52,23.87-1.27.11-2.53.22-3.8.33,1.22-13.34-1.38-26.59-3.95-39.61-.24-1.21,1.17-2.4,2.32-2.11,2.86.72,4.44,2.9,5.34,5.61,1.22,3.7,1.79,7.7,2.63,11.5,1.95,8.8,3.9,17.6,5.85,26.4-1.31-.06-2.61-.12-3.92-.18,4.01-13.11,3.9-27.11-.46-40.12-.58-1.73,1.1-3.02,2.68-2.48,14.18,4.85,15.19,22.06,22.6,32.8-1.13.11-2.27.21-3.4.32,2.12-3.85,2.48-8.12.91-12.24,1.27-.11,2.53-.22,3.8-.33-.58,5.65-1.16,11.3-1.74,16.94-.17,1.65-2.68,2.22-3.55.8-4.86-7.9-8.49-16.41-10.76-25.4-.49-1.95,2.31-3.96,3.46-1.83,6.95,12.85,10.14,27.15,9.3,41.73-.04.65-.67,1.32-1.26,1.51-5.37,1.7-7.71-4.87-9.07-8.75-2.24-6.4-3.49-13.11-3.8-19.88-.09-1.92,2.41-2.94,3.58-1.31,4.83,6.69,7.98,14.26,9.43,22.37.41,2.29-2.99,2.8-3.82.85-.89-2.08-1.77-4.16-2.66-6.24-.78-1.83,1.65-3.43,3.11-2.21,6.71,5.65,13.38,11.55,16.86,19.81.86,2.04-2.25,3.71-3.46,1.83-3.33-5.16-5.13-11.14-4.89-17.3.09-2.24.11-5.15,2.54-6.16,2.19-.91,4.53.52,6.08,2.01-.93.09-1.85.18-2.78.27.59-.62.76-1.06.64-1.93-.14-1.01.78-2.12,1.81-2.13,2.1-.03,3.38,1.38,3.16,3.47-.26,2.53-4.15,1.83-3.89-.7l.05-.47c.11.5.23,1,.34,1.5l-.28-.32c.47.15.95.3,1.42.44h-.47c.6-.7,1.2-1.42,1.81-2.13.24,1.8-.28,3.46-1.53,4.77-.69.73-1.97,1.05-2.78.27-.19-.18-1.4-1.45-1.75-1.29-.45.21-.39,1.66-.41,1.98-.11,1.8,0,3.62.28,5.4.55,3.58,1.92,6.96,3.88,10-1.15.61-2.31,1.22-3.46,1.83-3.19-7.57-9.53-12.96-15.66-18.12,1.04-.74,2.07-1.47,3.11-2.21.89,2.08,1.77,4.16,2.66,6.24-1.27.28-2.55.56-3.82.85-1.32-7.41-4.31-14.31-8.71-20.4,1.19-.44,2.38-.88,3.58-1.31.22,4.89.91,9.73,2.2,14.46.43,1.57,2.79,11.61,5.37,10.8-.42.5-.84,1-1.26,1.51.77-13.41-2.23-26.93-8.62-38.74,1.15-.61,2.31-1.22,3.46-1.83,2.18,8.65,5.59,16.86,10.26,24.46-1.18.27-2.37.54-3.55.8.58-5.65,1.16-11.3,1.74-16.94.21-2.02,3.14-2.07,3.8-.33,1.91,5.02,1.57,10.55-1.03,15.26-.69,1.26-2.51,1.62-3.4.32-6.89-9.98-8.01-27.06-21.05-31.52.89-.83,1.79-1.65,2.68-2.48,4.57,13.63,4.85,28.42.64,42.18-.67,2.2-3.42,2.04-3.92-.18-1.59-7.2-3.19-14.4-4.78-21.6-.78-3.52-1.56-7.04-2.34-10.56-.46-2.09-.81-7.12-3.45-7.79.77-.7,1.54-1.41,2.32-2.11,2.65,13.41,5.16,26.92,3.9,40.64-.19,2.12-3.06,1.95-3.8.33-3.54-7.7-6.38-15.67-8.52-23.87,1.27-.28,2.55-.56,3.82-.85.62,5.58.65,11.16.14,16.75-.23,2.53-4.12,1.83-3.89-.7h0Z"/>
      <g id="inA5Ah">
        <g>
          <path class="cls-3" d="M156.27,70c.58-.79,1.63-1.03,2.43-.46,2.48,1.78,5.09,3.37,7.75,4.88.54.3,1.08.6,1.62.89.75.4,1.08,1.28.8,2.08-.01.03-.02.07-.03.1-.32,1.02-1.43,1.58-2.39,1.1-2.52-1.26-4.95-2.69-7.32-4.24-.89-.58-1.76-1.18-2.62-1.8-.79-.57-.92-1.69-.31-2.45.03-.03.05-.07.08-.1Z"/>
          <path class="cls-3" d="M130.43,37.97c.49-.11.62-.31.42-.86-.47-1.35-.45-2.7.49-3.89,1.02-1.29,2.33-2.04,4-2.13,1.43-.08,2.77.26,4.03.9.5.26.76.24.69-.42-.07-.65,0-1.3.1-1.95.71-4.35,5.86-6.46,9.37-3.79,1.8,1.37,3.17,3.1,3.97,5.26.55,1.48.73,3.02.77,4.58,0,.17-.08.42.15.51.23.09.32-.16.44-.28.2-.19.39-.39.57-.59,1.97-2.18,4.53-3.04,7.36-3.04,2.41,0,4.78.5,7.03,1.41,7.57,3.05,14.59,7.1,21.11,11.98,3.26,2.44,6.11,5.32,8.14,8.92,1.7,3.02,2.46,6.22,1.69,9.67-.34,1.55-1.06,2.96-1.92,4.49,2.81-.27,5.43-.24,8.01.39,4.06,1,7.16,3.19,8.58,7.29.82,2.37.29,5.17-2.14,6.04-.45.16-.28.37-.09.66,1.23,1.88,1.29,3.86.36,5.86-.63,1.36-1.7,2.1-3.25,2.07-.81-.01-1.58-.18-2.32-.49-.52-.21-.67-.15-.62.45.07.9.12,1.81.08,2.71-.11,2.43-1.42,3.98-3.74,4.58-1.63.42-3.17.12-4.61-.64-2.96-1.56-5.07-3.96-6.5-6.95-1.3-2.72-1.98-5.64-2.66-8.56-.13-.57-.3-.72-.86-.42-1.48.81-3.11,1.22-4.77,1.38-3.45.33-5.57.11-8.85-.94l-.17-.06c-.98-.31-1.49-1.39-1.12-2.34l.03-.07c.32-.84,1.23-1.3,2.09-1.06.65.18,1.31.34,1.98.48,2.53.53,5.07.68,7.6-.08.79-.24,1.53-.58,2.23-1.01.37-.23.66-.52.85-.94.38-.86,1.78-1.33,2.79-1,.79.25,1.46,1.19,1.27,1.98-.15.63-.04,1.19.11,1.77.8,3,1.4,6.05,2.69,8.9.93,2.07,2.2,3.91,4.14,5.18.91.6,1.95,1.09,2.98.41,1.03-.68.95-1.84.82-2.91-.22-1.9-.93-3.63-1.82-5.31-.5-.94-.39-1.76.31-2.47.82-.84,1.77-.81,2.54.1.96,1.13,1.95,2.22,3.19,3.07.16.11.32.22.49.31.86.45,1.46.39,1.93-.18.48-.57.43-1.19-.13-1.94-.79-1.05-2-1.62-3.1-2.29-.84-.51-1.75-.85-2.69-1.16-1.43-.48-1.75-2.2-.64-3.21.49-.44,1.03-.54,1.67-.32,1.21.42,2.36,1,3.62,1.28.51.11,1.01.26,1.53.23,1.34-.07,1.95-1.05,1.27-2.2-1.24-2.09-3.05-3.57-5.29-4.47-2.2-.89-4.5-.84-6.8-.62-1.72.17-3.37.7-5.04,1.11-.75.19-1.38.75-2.29.24-1.2-.68-1.34-2.1-.33-3.04,1.06-.99,2.06-2.03,2.92-3.21,2.63-3.57,2.81-7.27.72-11.15-1.52-2.82-3.81-4.93-6.27-6.87-6.05-4.8-12.73-8.5-19.93-11.28-1.93-.75-3.82-1.62-5.91-1.86-2.25-.26-4.13.49-5.71,2.08-1.19,1.19-2.15,2.55-3.11,3.93-1.21,1.74-2.87,1.56-3.89-.29-.54-.98-.39-1.95-.41-2.95-.05-2.04.1-4.1-.48-6.1-.53-1.8-1.51-3.26-3.09-4.29-.97-.63-1.92-.44-2.6.56-1.07,1.57-1.17,3.24-.5,4.99.36.92.84,1.77,1.33,2.63.56.99.35,1.99-.52,2.61-.87.62-1.63.51-2.44-.39-1.24-1.4-2.54-2.72-4.27-3.53-.88-.41-1.79-.66-2.77-.57-.76.07-1.09.72-.73,1.39.56,1.03,1.39,1.83,2.27,2.59.54.48,1.22.86,1.31,1.71.08.73-.07,1.36-.66,1.83-.67.54-1.41.44-2.12.02-.6-.35-1.21-.66-1.88-.84-.76-.21-1.59-.49-2.24.2-.67.7-.59,1.56-.3,2.38.73,2.03,2.1,3.51,4.03,4.43,2.44,1.16,5.03,1.38,7.69.98.54-.08.91-.29,1.08-.84.09-.31.26-.6.41-.89.51-.95,1.34-1.21,2.54-.81.82.28,1.08.93.92,2.02-.14.97-.74,1.77-.93,2.7-.58,2.79.26,5.3,1.71,7.63.97,1.57,2.14,2.96,3.41,4.26.66.67.74,1.76.1,2.45,0,0-.02.02-.03.03-.72.81-1.95.86-2.69.06-.88-.95-1.72-1.95-2.51-3-2.02-2.68-3.46-5.62-3.84-8.99-.07-.61-.21-.78-.82-.73-2.47.21-4.85-.29-7.15-1.15-4.07-1.52-7.04-4.05-7.74-8.6-.36-2.37,1-5.18,3.33-5.72Z"/>
          <path class="cls-3" d="M52.76,166.76c-2.28,2.62-5.13,2.59-7.35-.05-.84-1-1.47-2.1-1.93-3.31-.19-.5-.49-.74-1.01-.75-1.36-.03-2.63-.45-3.83-1.06-2.04-1.04-3.46-2.61-3.65-4.99-.06-.77-.41-.9-1.05-1-1.47-.23-2.86-.73-4.08-1.59-1.68-1.19-2.56-2.78-2.23-4.86.12-.78-.11-1.15-.75-1.55-1.81-1.13-3.39-2.51-4.29-4.51-.74-1.65-.46-3.22.81-4.53,1.14-1.19,2.56-1.95,4.1-2.47,4.15-1.4,8.4-1.32,12.65-.59.78.13.91-.1.91-.73,0-1.71.27-3.39.84-4.99,2.62-7.32,7.49-12.63,14.53-15.87,3.3-1.52,6.78-2.25,10.42-1.1,1.5.47,1.48.44,1.26-1.16-.42-3.01-.12-5.96.96-8.79,1.06-2.76,2.99-4.65,5.98-5.14,2.69-.44,4.75.77,6.38,2.85,1.44,1.85,1.97,4.06,2.5,6.26.23.94.68,1.71,1.4,2.35.98.86,2.13,1.42,3.28,2,1.42.71,2.85,1.38,4.23,2.16,1.18.66,1.37,1.71.66,2.85-.2.32-.36.68-.6.98-.51.63-.45,1.02.34,1.38,1.23.57,2.29,1.4,3.17,2.44,1.07,1.26,1.73,2.68,1.4,4.37-.7,3.59-4.21,6.85-8.88,6.24-2.01-.26-3.93-.83-5.86-1.4-.89-.26-.89-.24-.71.66.46,2.37.66,4.75.17,7.16-.89,4.43-3.37,7.88-6.82,10.61-5.92,4.69-12.54,7.14-20.22,5.77-.59-.1-.58.09-.44.55.36,1.18.65,2.37.6,3.49.09,3.34-.85,6.01-2.88,8.34ZM53.54,119.99c-3.13,2.57-5.58,5.72-7.37,9.35-2.81,5.68-1.75,12.15,2.69,16.74,2.76,2.85,6.1,4.65,10.04,5.1,2.66.31,5.29-.13,7.77-1.2,3.91-1.67,7.17-4.19,9.62-7.68,3.73-5.31,3.67-10.79.69-16.39-1.33-2.5-3.12-4.64-5.35-6.37-2.11-1.64-4.4-3.02-7.12-3.49-.5-.09-.98,0-1.59-.06-3.52.21-6.63,1.73-9.38,3.99ZM37.84,152.18c.86.23,1.38,1.18,1.18,2.17-.18.87-.03,1.69.2,2.51.58,2.04,2.51,2.6,4.33,2.28,1.8-.32,2.45.02,2.94,1.77.29,1.05.63,2.09,1.26,3,.72,1.03,1.5,1.08,2.35.15,2.46-2.66,2.51-7.45.16-10.62-1.28-1.73-2.8-3.23-4.25-4.81-2.14-2.33-3.57-5.08-4.34-8.16-.16-.66-.47-.95-1.12-1.08-4.23-.81-8.41-.74-12.53.57-.31.1-.61.24-.88.41-.79.49-1,1.24-.52,2.05.66,1.12,1.65,1.89,2.78,2.48.48.25,1,.43,1.49.67,1.01.5,1.36,1.53.89,2.56-.1.22-.23.44-.32.67-.53,1.32-.12,2.29,1.21,2.84.85.35,2.32.55,3.78.49.46.02.95-.05,1.38.06ZM71.83,112.63c.25,1.68.87,2.99,2.31,4.11,2.77,2.16,4.77,5.03,6.25,8.22.24.52.55.79,1.1.94,2.31.63,4.53,1.59,6.87,2.09.99.21,2,.16,2.96-.27,2.48-1.1,2.82-3.96.63-5.58-.84-.63-1.78-1.05-2.83-1.22-.76-.13-1.33-.47-1.55-1.26-.22-.78-.07-1.46.52-2.03.49-.48.85-1.07,1.22-1.64.22-.35.19-.54-.18-.78-1.11-.71-2.26-1.34-3.45-1.89-2.99-1.39-4.9-3.63-5.68-6.88-.43-1.81-1.11-3.55-2.55-4.85-.99-.9-1.84-.94-2.81,0-1.56,1.49-2.24,3.46-2.71,5.5-.26,1.12-.37,2.27-.26,3.43.05.71.05,1.41.15,2.12Z"/>
          <path class="cls-3" d="M36.19,125.57c.68.07,1.68-1.48,2.83-3.75,1.05-2.07,2.18-4.21,3.56-6.1,1.65-2.47,4.29-4.46,5.85-6.82.55-.88.07-1.41-.87-1.31-5.82.54-11.19,6.73-11.95,12.97-.2,1.59-.66,4.38.54,5h.04Z"/>
          <path class="cls-3" d="M210.07,61.48c2.44.15,2.05-6.16,1.6-7.89-.66-3.16-2.75-6.27-4.4-7.77-1.08-1.09-3.12-2.04-3.03.37.11,2.21.94,4.41,1.66,6.88.95,2.67,2.1,7.33,4.11,8.39l.06.02Z"/>
          <path class="cls-3" d="M30.62,118c1.85-.1,5.01-8.02,3.5-9.42-1.74-1.07-4.79,3.53-4.75,5.8-.08,1.19-.1,3.27,1.18,3.62h.07Z"/>
          <path class="cls-3" d="M198.1,37.14c0-.79-.39-1.71-1.21-2.36-.8-.63-1.93-.84-2.9-.53-.29.09-.59.25-.71.52-.11.25-.06.54.02.81.28.95.88,1.79,1.65,2.4,1.98,1.59,3.17.57,3.16-.85Z"/>
        </g>
      </g>
    </g>
  </g>
  <path class="cls-4" d="M168.03,167.78c-5.57,0-12.3-.94-16.9-2.25-1.12-.32-1.85-1.4-1.73-2.56.66-6.43,4.51-13.21,10.56-18.59,1.23-1.1,3.14-2.55,5.58-2.55.02,0,.05,0,.08,0,3.03.04,4.86,2.32,5.46,3.07,4.06,5.06,5,12.07,5.68,17.19.12.88.23,1.71.35,2.48,0,0,0,0,0,0,.13.87-.22,1.77-.93,2.3-.45.34-1.17.66-2.14.4-1.66.35-3.73.51-6,.51ZM154.53,161.44c5.79,1.33,13.23,1.89,17.46,1.31,0,0,0-.02,0-.02-.64-4.81-1.44-10.8-4.66-14.81-.9-1.12-1.42-1.27-1.77-1.27,0,0,0,0-.01,0-.89,0-2.01,1-2.38,1.33-4.43,3.95-7.55,8.85-8.63,13.47Z"/>
  <path class="cls-4" d="M107.46.11c-.99.4-1.99.79-2.98,1.19-.42.1-.78.29-1.09.57-.35.23-.62.53-.83.9-.23.37-.36.77-.38,1.19-.1.43-.08.85.06,1.28l.32.77c.28.48.67.87,1.15,1.15.26.11.51.22.77.32.57.15,1.14.15,1.7,0,.99-.4,1.99-.79,2.98-1.19.42-.1.78-.29,1.09-.57.35-.23.62-.53.83-.9.23-.37.36-.77.38-1.19.1-.43.08-.85-.06-1.28l-.32-.77c-.28-.48-.67-.87-1.15-1.15l-.77-.32c-.57-.15-1.14-.15-1.7,0h0Z"/>
</svg>