<?xml version="1.0" encoding="UTF-8"?>
<svg id="Layer_1" data-name="Layer 1" xmlns="http://www.w3.org/2000/svg" viewBox="0 0 600.67 446.78">
  <defs>
    <style>
      .cls-1 {
        fill: #f16a5b;
      }

      .cls-2 {
        fill: #e47d4f;
      }

      .cls-3 {
        opacity: .2;
      }

      .cls-3, .cls-4 {
        fill: #5d3d2d;
      }

      .cls-5 {
        fill: #7599be;
      }

      .cls-6 {
        fill: #f8be93;
      }

      .cls-7 {
        fill: #db7427;
      }

      .cls-8 {
        fill: #c4e0b0;
      }

      .cls-9 {
        fill: #f4a87c;
      }

      .cls-10 {
        fill: #bcc8e6;
      }

      .cls-11 {
        fill: #ecbbcc;
      }

      .cls-12 {
        fill: #fff8ed;
      }

      .cls-13 {
        fill: #99cd7d;
      }

      .cls-14 {
        fill: #a9582c;
      }

      .cls-15 {
        fill: #7cc163;
      }

      .cls-16 {
        fill: #f69652;
      }

      .cls-17 {
        fill: #91c6eb;
      }
    </style>
  </defs>
  <g>
    <path class="cls-16" d="M111.75,222.85c-2.53-5.44-9.03-7.23-14.31-4.93-5.63,2.45-9.46,9.49-5.73,15.12,1.99,3,7.11,3.7,8.92,0,.19-.37.36-.74.51-1.13.13-.35.21-.56.25-.64,0,0,.02,0,.02,0,0,.05-.03.13-.06.25.05-.08.1-.15.16-.23,3.33.84,7.38-.62,9.56-3.16,1.38-1.61,1.56-3.41.68-5.3Z"/>
    <path class="cls-16" d="M227.78,139.97c-3.3-1.66-7.47-.82-10.48,1.13-3.92,2.54-5.72,6.47-4.84,11.07.77,4.02,5.26,5.36,8.61,4.01,1.73-.01,3.48-.56,5-1.36,2.45-1.28,5.63-3.4,6.31-6.24.85-3.54-1.5-7.07-4.6-8.63Z"/>
    <path class="cls-16" d="M283.33,187.33c4.32,18.19,1.62,36.35-8.63,51.81-2.78,5.13-4.51,10.85-8.06,15.53-3.1,4.2-6.97,8.01-9.17,12.63-6.52,14.89-19.67,24.78-31.67,35.06-2.57,2.08-5.72,4.15-8.87,4.7-8.14,1.43-15.84,4.11-23.51,6.94-12.59,4.7-25.69-1.16-38.52,2.18-13.41,2.84-26.51-1.94-39.75-3.65-5.57-.68-10.31-2.87-14.7-6.25-20.82-13.76-31.28-21.73-44.08-43.87-7.16-10.17-7.6-22.6-9.23-34.48-1-7.42.98-14.48,3.02-21.42,3.72-12.64,5.95-25.46,6.89-38.62,2.34-21.06,5.71-46.36,27.38-55.99,8.87-2.36,14.96-9.59,23.53-12.57,9.44-3.8,18.76-8.1,29.03-9,9.31-1.45,18.63-3.18,28.09-2.34,13.39.87,26.86,1.31,40.19,2.75,11.3,2.56,19.35,12.44,28.97,18.44,5.38-8.5,10.91-16.35,20.54-20.06,1.21,2.08,1.06,3.46-.68,5.05-5.88,5.52-10.94,11.14-16.57,17.08,6.98,5.68,14.11,11.3,18.84,19.23,3.38,5.01,8.35,8.97,9.56,15.13,3.36,12.69,10.03,23.09,14.34,35.61,17.3.85,34.96-1.04,52.06.34v5.76h-49ZM52.22,227.29c.49,32.08,23.28,57.65,49.43,73.52,4.32,3.46,8.92,5.97,14.5,6.67,15.01,2.9,29.98,7.14,45.26,2.7,10.49-1.82,21.04,3.48,31.57-1.18,6.67-2.39,13.52-4.37,20.41-6.03,11.21-2.65,20.29-14.85,29.22-22.03,6.29-5.96,9.86-14.09,14.38-21.35,6.21-8.55,11.17-17.74,15.66-27.28,7.6-12.02,9.83-27.41,6.36-40.97-4.53-13.74-12.59-26.14-16.41-40.06-5.5-17.02-18.98-29.81-33.16-39.88-7.81-5.6-15.57-12.77-25.08-15.17-14.33-2.17-28.92-2.3-43.36-3.42-9.9-.82-19.63,1.96-29.34,3.46-6.78,1.36-12.96,4.94-19.49,7.08-7.32,2.2-14.12,5.29-20,10.25-3.3,2.78-6.49,5.7-9.88,8.36-2.2,1.72-3.86,4.57-7.44,3.94-.61-.11-1.72.81-2.1,1.53-8.89,15.32-10.7,33.5-11.24,50.87-2.43,16.46-9.46,32.24-9.27,48.99Z"/>
    <path class="cls-16" d="M257.19,440.91c-.15,2.59-.35,5.92-3.07,5.86-4.5-1.08-8.2-18.76-11.15-23.58-12.7-28.93-28.41-57-36.75-87.59-.87-2.97,3.33-5.78,4.48-1.82,2.43,12.55,6.86,24.48,12.82,35.78,4.99,12.39,10.74,24.49,17.15,36.21,4.51,8.15,7.33,16.96,10.89,25.49,1.02,2.44,1.06,5.44,4.53,6.42.78.22.92,2.65,1.1,3.23Z"/>
    <path class="cls-16" d="M168.55,339.91c2.35.3,3.01,1.42,2.93,2.99,1.01,24.42,11.43,47.36,14.82,71.5,1.2,6.51,1.91,13.1,2.95,19.64.32,3.02,2.36,6.32,1.67,9.32-5.98,7.9-6.14-8.44-7.1-11.75-3.03-19.54-7.74-38.7-12.43-57.88-1.9-8.58-3.38-17.25-4.93-25.91-.61-2.83-.21-6.03,2.09-7.91Z"/>
    <path class="cls-16" d="M124.8,334.95c7.41,2.31,0,3.36-.49,15.39-2.47,9.39-8.81,78.16-17.13,76.16-1.97-1.4-1.87-3.93-.91-6.01,7.44-24.25,8.51-49.73,13.53-74.51.7-3.9,1.56-7.92,5-11.03Z"/>
    <path class="cls-16" d="M17.02,369.97c.38-1.6.29-3.24.96-3.67,4.57-2.95,6.67-7.98,10.2-11.78,12.6-13.59,23.3-28.74,36.44-41.84,7.52,5.01-34.35,44.14-38.88,52.36-1.93,2.49-3.93,5.19-8.73,4.94Z"/>
    <path class="cls-16" d="M334.95,290.55c-2.46,4.2-3.33,4.63-6.6,3.06-5.54-2.66-10.9-5.69-16.48-8.26-7.11-3.28-14.09-6.97-22.02-8.09-2.65-.6-7.87-1.68-6.26-5.5,1.17-5.19,31.21,8.18,34.91,10.68,5.29,3.2,11.49,4.13,16.45,8.11Z"/>
    <path class="cls-16" d="M332.24,234.88c-12.88,2.82-22.74-7.9-35.32-8.53-4.89-.83-4.22-6.72,1.09-6.01,6.29.33,11.96,2.86,17.76,4.97,4,1.38,7.99,3.68,12.33,3.42,1.15-.1,2.45-1.27,3.3.09.93,1.94,1.16,3.71.84,6.06Z"/>
    <path class="cls-16" d="M57.39,290.79c1.79,5.42,1.81,5.5-2.38,6.63-5.91,1.59-10.79,5.16-15.94,8.19-7.3,4.4-14,8.32-20.91,13.58-6.04-.43-.89-7.43,2.7-8.21,12.24-6.81,23.38-15.03,36.52-20.19Z"/>
    <path class="cls-16" d="M41.37,188.06c.24,2.92-.3,4.3-2.18,5.09C33.77,195.28-.57,208.6,0,198.1c.2-1.53,1.4-2.08,3.09-2.04,13.62.71,25.07-6.02,38.27-8Z"/>
    <path class="cls-16" d="M40.88,150.33c-6.96-.42-14.03-.78-21.08-1.31-5.32-.94-12.1.17-16.49-3.22.74-1.05,1.29-2.35,2.27-3.06,3.94-1.18,8.65.21,12.78.14,5.84.35,11.67.68,17.51,1.03,3.99.02,7.31,1.37,5.01,6.42Z"/>
    <path class="cls-16" d="M145.26,38.94c5.68-1.29,3.55,6.29,4.08,9.48.91,7.49,1.84,14.98,3.07,22.42.37,2.22.19,3.97-1.39,5.46-2.82,2.31-3.71-1.94-3.75-4.07-.67-11.09-5.65-22.36-2-33.29Z"/>
    <path class="cls-16" d="M164.02,68.51c-1.46-5.44.07-11.19.07-16.75.22-3.81.43-7.63.64-11.44-.44-2.06.66-3.16,2.17-4.33.59.76,1.69,1.52,1.7,2.28.03,6.79-.11,13.59-.28,20.38-.74,3.43.75,9.35-4.3,9.86Z"/>
    <path class="cls-16" d="M264.21,129.2c-5.18.78-5.94-6.16-1.23-6.78,3.61-1.38,10.29-.99,11.15-5.73.9-2.28,3.75-2.06,4.31.37.79,7.77-8.65,10.63-14.23,12.14Z"/>
    <path class="cls-16" d="M220.15,157.42c1.74-2.89,3.16-3.11,5.69-.42,4.44,4.93,8.52,10.19,12.85,15.22,8.67,10.22,2.57,24.06-1.67,34.9-3.79,11.6-8.83,23.12-18.04,31.28-10.66,11.55-27.4,13.94-41.18,20.45-10.93,4.65-21.61,3.7-31.69-1.71-4.96-2.66-9.47-2.96-14.55-1.66-12.85,3.71-29.01-9.65-26.66-22.8,1.64-2.82,4.7-1.44,4.94,1.58,1.59,9.78,10.79,16.52,20.38,15.31,15.95-4.51,28.01,13.01,44.73,3.96,16.37-6.85,34.96-9.82,46.01-25.36,9.21-11.93,12.14-26.67,16.59-40.67,1.15-4.07.39-7.97-2.41-11.3-5.36-6.26-10.13-11.87-14.99-18.78Z"/>
    <path class="cls-16" d="M195.18,175.07c-5.13-1.03-5.97-6.84-9.07-9.87-2.89-1.51-2.97-3.54-1.94-6.14.6-2.14,1.06-5.93,4.24-4.32,4.79,2.11,7.37.57,9.91,6.4,1.67,4.54,3.48,12.57-3.13,13.93ZM193.13,162.23c-1.31,2.22-.14,3.33,1.81,4.09-.6-1.36-1.2-2.72-1.81-4.09Z"/>
    <path class="cls-16" d="M140.23,222.9c-7.36-2.41-6.63-10.24-7.45-16.26.04-5.23,6.35-1.75,7.8.84,2.68,4.79,3.31,10.95-.36,15.42Z"/>
  </g>
  <g>
    <g>
      <path class="cls-3" d="M558.71,144c-1.73-.15-3.25-.29-4.87.58-1.11.6-2.17,1.28-3.26,1.92-2.12,1.24-4.24,2.47-6.36,3.7-4.19,2.42-8.4,4.81-12.63,7.17-8.51,4.76-17.09,9.4-25.72,13.92-17.15,8.98-34.53,17.54-52.11,25.64-4.46,2.05-8.92,4.08-13.41,6.07-.15.07-.82.36-.98.44-.52.23-1.04.46-1.56.69-1.09.48-2.19.96-3.28,1.44-2.25.98-4.51,1.95-6.76,2.92-7.93,3.39-16.02,6.57-23.46,10.97-7.27,4.3-14.07,9.92-18.13,17.45-1.15,2.13-2.09,4.35-3.06,6.56-.45,1.01-.9,2.03-1.38,3.03-.35.72-.64,1.45-.9,2.21-.08.25-.17.5-.27.74.02-.09-.34.64-.35.66-.23.38-.48.75-.73,1.12-.11.15-.21.3-.32.46-.02.03-.03.04-.05.07,0,0-.01.01-.02.02-.58.65-1.09,1.35-1.69,1.97-.56.58-1.15,1.13-1.76,1.65-.13.11-.56.46-.57.47-.33.25-.66.5-1,.74-1.34.94-2.76,1.78-4.24,2.5-.26.13-.53.25-.8.38.04-.02-.67.29-.8.34-.8.33-1.6.63-2.42.9-1.57.53-3.18.96-4.8,1.32-.83.18-1.66.33-2.49.48-.06.01-.11.02-.15.03-.21.03-.43.07-.64.1-.52.08-1.04.14-1.56.21-3.48.42-6.99.56-10.5.54-1.83-.01-3.62,0-5.44.08-1.79.07-3.6-.01-5.38.09-.85.05-1.7.39-2.56.46-.84.07-1.7.04-2.53.04-.98,0-1.12,1.46-.18,1.7.82.21,1.66.38,2.46.64.92.29,1.77.81,2.69,1.03,1.68.4,3.42.67,5.12.96,3.73.63,7.49.72,11.27.63,7.25-.17,14.57-1.25,21.22-4.23,3.15-1.41,6.03-3.26,8.61-5.54,1.26-1.11,2.44-2.33,3.51-3.62.66-.81,1.39-1.87,1.88-2.39.97-1.05,1.81-2.18,2.51-3.43,1.18-2.1,2.24-4.26,3.41-6.36.57-1.02,1.17-2.03,1.82-3.01.24-.36.5-.72.75-1.08,0,0,0,0,0,0,.2-.25.4-.51.6-.76,1.26-1.54,2.55-3.04,3.99-4.42.7-.67,1.42-1.31,2.16-1.94.12-.1.25-.21.37-.31,0,0-.01,0-.02,0,0,0,.01,0,.02,0,.04-.03.08-.07.12-.1.2-.16.28-.16.25-.1.32-.23.66-.59.9-.77,3.27-2.41,6.81-4.44,10.44-6.26,1.84-.92,3.7-1.78,5.58-2.63,0,0,0,0,.02,0,.2-.09.41-.18.61-.27.46-.2.92-.4,1.38-.59.97-.41,1.94-.82,2.91-1.23,8.87-3.69,17.73-7.41,26.52-11.29,18.1-7.99,35.99-16.43,53.59-25.46,17.47-8.96,34.69-18.41,51.64-28.32,1.02-.6,2.12-1.14,3.09-1.81,1.51-1.05,2.11-2.41,2.8-4,1.11-2.53-.36-4.85-3.07-5.08Z"/>
      <path class="cls-3" d="M401.95,231.92h0c.22-.06.34-.15.37-.2-.13.09-.25.17-.37.2Z"/>
      <path class="cls-3" d="M357.87,205.49c1.39-.72,2.77-1.46,4.14-2.21.68-.37,1.39-.72,2.06-1.12.63-.38,1.31-.83,1.81-1.35.93-.95,1.21-1.93,1.68-3.14.44-1.12.03-3.04-.61-4.01-.74-1.12-1.89-2.17-3.27-2.4-1.69-.28-3.04-.26-4.62.44-.77.34-1.47.77-2.19,1.2-1.23.73-2.47,1.45-3.69,2.19-2.4,1.43-4.82,2.85-7.25,4.22-4.7,2.65-9.51,5.45-14.53,7.46,1.17-.47-.05.02-.25.1-.24.1-.48.21-.72.31-.6.25-1.2.5-1.8.75-1.33.54-2.66,1.06-4,1.55-2.58.94-5.2,1.79-7.83,2.57-2.51.75-5.04,1.35-7.6,1.91-1.2.27-2.4.56-3.61.81-.6.12-1.21.23-1.81.34-.02,0-.58.1-.7.12-.3.05-.59.09-.89.13-3.1.43-6.26.48-9.2,1.07-2.83.57-5.5,1.22-8.41,1.03-.21-.01-.3.33-.1.4,2.39.94,4.67,2.1,7.02,3.12,2.79,1.22,5.65,1.51,8.66,1.68,5.71.32,11.29-.11,16.9-1.15,11.33-2.11,22.11-6.77,32.43-11.77,2.82-1.37,5.6-2.79,8.38-4.23Z"/>
    </g>
    <path class="cls-9" d="M432.89,155.18c-1.15,5.36-4.29,10.07-7.98,14.03-2.15,2.3-4.63,4.71-7.53,6.02-1.53.69-3.23.92-4.78.58-.3.14-.6.29-.9.44-.22.11-.43.22-.64.33h0c-.34.18-.69.36-1.03.53-.25.13-.5.14-.72.08-1.37,1.07-2.69,2.24-4.07,3.29-2.34,1.78-4.75,3.47-7.24,5.03-5.03,3.13-10.42,5.7-16.1,7.4-5.64,1.69-11.53,2.46-17.41,2.08-.29-.02-.58-.04-.86-.07,0,0,0-.02,0-.03-.03-.08-.16-.07-.16.01-1.99-.18-3.95-.51-5.9-.93-4.01-.86-7.94-2.12-11.82-3.36-3.59-1.15-7.16-2.38-10.69-3.69-1.75-.65-3.5-1.32-5.24-2.01-1.52-.61-3.03-1.31-4.58-1.85,0-.77-.34-1.52-1.16-2.2-1.28-1.05-2.93-1.8-4.42-2.51-.8-.38-1.71-.86-2.65-1.23.1-.17.19-.36.26-.56,1.07-2.84-1.44-5.25-3.93-6-1.01-.3-2.21-.55-3.36-.6-.51-1.87-1.82-3.72-3.02-4.97-.36-.37-.74-.7-1.15-.98-.04-.2-.08-.4-.12-.6-.16-.89-.32-1.77-.48-2.66-.25-1.37-.49-2.73-.72-4.09-.08-.47-.17-.95-.25-1.43-.61-3.54-1.23-7.09-1.85-10.63-.63-3.64-1.16-7.31-1.72-10.97-.27-1.78-.54-3.56-.81-5.34-.08-.54-.15-1.08-.23-1.62.15.22.31.43.47.65,1.57,2.1,3.86,4,6.66,3.4,2.68-.58,4.31-3.06,5.04-5.52.94-3.2,1.07-6.73,1.25-10.04.12-2.27.2-4.55.34-6.83h.08c.6,4.91,2.2,9.75,4.32,14.06,1.92,3.89,4.44,7.5,7.48,10.6,2.34,2.39,6.87,5.51,9.66,1.94,1.58-2.02,2.21-5.12,2.57-7.6.04-.24.07-.49.1-.75,1.17,2.15,2.53,4.18,4.14,5.99,1.46,1.64,3.19,3.32,5.37,3.9,1.9.5,4.07.03,5.33-1.55,1.45-1.82,1.46-4.5,1.71-6.7.31-2.66.56-5.33.76-8,.23-3.01.39-6.02.48-9.03.04-1.49.17-3.07.17-4.63.7,2.93,1.64,5.82,2.61,8.65,1.7,4.94,3.73,9.77,6.07,14.45,2.37,4.73,5.07,9.3,8.08,13.65,2.35,3.41,6.47,7.95,11.06,5.62,2.07-1.05,3.38-3.33,3.71-5.58.04-.3.08-.61.1-.93h.13c0,.45-.05.9-.11,1.35,1.04.89,2.11,1.75,3.11,2.68,1.64,1.54,3.19,3.16,4.65,4.87,2.93,3.43,5.69,7.12,7.79,11.13.23.45.98.33,1.08-.16,1.14-5.64,3.99-11.07,8.36-14.88,4.17-3.63,10.18-6.76,15.74-4.43,4.92,2.07,5.95,7.46,4.94,12.2Z"/>
    <path class="cls-9" d="M344.84,252.22c-.1,1.12-.23,2.23-.56,3.31-.64,2.1-1.89,4.1-3.36,5.7-1.28,1.4-2.82,2.54-4.51,3.41-1.29.66-2.66,1.05-4.03,1.48-.01-.07-.08-.12-.16-.1-1.58.51-3.08,1.02-4.76,1.07-1.05.03-2.17-.11-3.21-.43-.55-.17-1.07-.38-1.56-.65-1.36-.74-2.67-1.96-3.17-3.48-.05-.16-.1-.33-.13-.5-.19-.95.06-1.93.83-2.56.13-.11.26-.18.4-.24.12-.22.24-.42.39-.62.01-.02.02-.04.04-.05.03-.05.06-.09.1-.14.04-.06.09-.11.14-.17.05-.06.1-.11.15-.16.05-.06.11-.12.17-.17.06-.06.12-.11.17-.17.18-.17.37-.32.58-.47.1-.78.55-1.54,1.17-2,.15-.34.33-.68.53-1,.05-.08.1-.16.15-.23.05-.08.11-.15.16-.23.06-.08.11-.15.17-.22.05-.06.09-.12.14-.18.25-.3.52-.58.8-.85-.03-.35-.02-.7.06-1.03.3-1.29,1.65-1.87,2.87-1.89,1.45-.02,2.67.75,3.67,1.75.66.66,1.17,1.6,1.81,2.35.02,0,.04.01.06.02.14.05.27.09.41.14.47.15.95.29,1.43.42.28.08.56.16.84.25,2.79-1.36,5.57-2.78,8.35-4.18-.16.56-.09,1.22-.14,1.8Z"/>
    <path class="cls-9" d="M330.98,233.65c.23.26.41.58.58.92-.77.54-1.54,1.09-2.29,1.65-.06.09-.13.18-.23.26-1.11.91-2.25,1.78-3.39,2.67,0,0,0,0,0,0-.41.31-.81.63-1.21.95-.09.07-.17.13-.26.2-.01.01-.02.02-.04.03-.23.18-.46.36-.68.54-.12.44-.24.88-.39,1.3-.46,1.3-1.04,3.63-2.63,3.95-3.29.67-4.3-4.17-4.17-6.46.16-2.71,1.22-5.69,3.18-7.63,2.25-2.22,5.43-1.96,8.13-.76,1.27.57,2.48,1.34,3.39,2.4Z"/>
    <path class="cls-9" d="M323.58,267.51c-.5.4-1.03.77-1.73.97-1.43.4-2.98.08-4.18-.78-1.22-.88-2.67-3.11-.71-4.04.62-.29,1.19-.25,1.72-.04.48.86,1.18,1.63,1.92,2.23.83.67,1.86,1.25,2.97,1.67Z"/>
    <path class="cls-9" d="M322.95,181.84c1.79,1.23.34,3.06-.63,4.31-1.06,1.37-2.11,2.73-3.16,4.1-2.1,2.74-4.25,5.43-6.48,8.06-.63.74-1.26,1.48-1.89,2.22-1.58-.1-3.16-.32-4.71-.66-3.2-.7-6.25-2-8.96-3.87-2.3-1.58-4.34-3.59-5.94-5.87-.79-1.13-1.49-2.34-2.06-3.6-.11-.24-.22-.48-.33-.73,2.89-1.08,5.97-1.79,9.02-2.38,0-.05.02-.09.02-.14.03-.2.07-.4.11-.59.04-.2.08-.39.13-.59,0-.03.01-.05.02-.08.04-.17.09-.33.14-.5-2.07-1.64-3.93-3.61-5.16-5.95-1.27-2.43-1.88-5.33-1.47-8.05.44-2.93,2.07-5.26,4.55-6.84,1.24-.79,2.57-1.43,3.91-2.06h0c.06,0,.11-.03.15-.07.18-.09.37-.17.55-.26.86-.41,1.78-.81,2.67-1.27.22,1.28.44,2.56.67,3.84.03.17.06.35.09.52.42.67.67,1.41.87,2.18.11.43.2.86.3,1.3.06.3.13.6.2.9.24.22.47.45.69.7.72.83,1.34,1.77,1.86,2.73.05.08.09.17.13.25.15.19.3.37.45.57.02.02.03.05.05.07.07.08.13.17.19.25.15.2.3.41.44.62.17.24.33.48.49.73.46.04.92.12,1.34.18,1.82.24,4.62,1,4.96,3.17.09.54-.03,1.05-.27,1.5.11.25.19.51.27.78.03.13.07.26.09.38.08.39.14.78.19,1.18.8.27,1.6.58,2.38.91,1.39.59,2.85,1.21,4.1,2.07Z"/>
    <path class="cls-9" d="M299.01,157.23c.04.06.08.12.12.19-1.14.49-2.27,1-3.34,1.63-1.69,1-3.11,2.28-4.14,3.86.12-.47.24-.93.37-1.39.43-1.58.68-3.39,1.36-4.88.72-1.59,2.86-1.41,4.16-.71.58.31,1.1.76,1.48,1.3Z"/>
    <path class="cls-2" d="M300.67,133.64c.15,1.01.31,2.02.46,3.02,4.68,2.5,9.54,4.66,14.56,6.41,6.82,2.19,13.87,3.6,21.01,4.16,3.46.17,6.83.1,10.27-.52,3.41-.62,6.9-1.63,10.4-1.56,4.38.09,8.63,1.09,11.89,4.21,1.99,1.91,3.9,3.78,6.14,5.38,2.39,1.45,4.93,2.63,7.56,3.59,2.59.79,5.23,1.34,7.92,1.61,1.83.05,3.65-.05,5.45-.34,1.25-.32,2.47-.74,3.65-1.26.09-.05.18-.11.26-.16-1.6-2.4-3.39-4.68-5.25-6.86-1.46-1.71-3.01-3.33-4.65-4.87-1-.94-2.07-1.8-3.11-2.68.06-.45.1-.9.11-1.35h-.13c-.02.32-.06.63-.1.93-.34,2.25-1.64,4.53-3.71,5.58-4.59,2.33-8.71-2.21-11.06-5.62-3.01-4.35-5.71-8.92-8.08-13.65-2.34-4.67-4.37-9.5-6.07-14.45-.97-2.83-1.91-5.72-2.61-8.65,0,1.56-.13,3.14-.17,4.63-.09,3.01-.26,6.02-.48,9.03-.2,2.67-.46,5.34-.76,8-.25,2.21-.27,4.88-1.71,6.7-1.25,1.58-3.43,2.05-5.33,1.55-2.18-.57-3.91-2.26-5.37-3.9-1.61-1.82-2.97-3.85-4.14-5.99-.03.25-.07.5-.1.75-.36,2.48-.99,5.58-2.57,7.6-2.79,3.57-7.32.45-9.66-1.94-3.03-3.1-5.56-6.71-7.48-10.6-2.12-4.3-3.72-9.15-4.32-14.06h-.08c-.15,2.28-.22,4.56-.34,6.84-.18,3.31-.3,6.84-1.25,10.04-.73,2.47-2.36,4.95-5.04,5.52-2.8.6-5.09-1.29-6.66-3.4-.16-.21-.32-.43-.47-.65.08.54.15,1.08.23,1.62.26,1.78.53,3.56.81,5.34Z"/>
    <path class="cls-2" d="M423.69,156.65c-1.48-1.86-3.83-1.71-5.54-.29-1.42,1.18-2.89,2.41-4.16,3.75-.69.73-1.4,1.43-1.92,2.3-.51.86-.65,1.6-.8,2.57-.09.59.19,1.4.9,1.49.96.11,1.74.25,2.7.04,1.04-.23,1.99-.79,2.92-1.28,1.71-.9,3.35-2.01,4.94-3.11,1.82-1.26,2.4-3.65.96-5.46Z"/>
    <path class="cls-2" d="M338.57,174.21c-.69-.67-1.9-.91-2.79-1.19-1.44-.45-2.91-1.4-4.45-1.22-.83.1-1.36.65-1.41,1.49-.11,1.95,1.55,3.21,3.02,4.14,1.59,1.01,4.37,1.85,5.81.21.88-1.01.79-2.48-.18-3.42Z"/>
    <path class="cls-12" d="M319.38,162.86c-1.99.52-3.94-1.14-5.34-2.33-1.26-1.08-2.42-2.27-3.46-3.56-2.37-2.94-3.86-6.31-5.21-9.79.03-.91.23-1.78.83-2.36,1.22-1.18,3.55.66,4.63,1.4,2.8,1.92,5.14,4.6,6.99,7.43.95,1.46,1.79,2.99,2.48,4.59.73,1.69,1.56,3.97-.91,4.62Z"/>
    <path class="cls-12" d="M373.9,177.62c-2.21.49-4.62-.35-6.58-1.33-2.26-1.12-4.24-2.71-6.01-4.49-1.98-2-3.72-4.24-5.33-6.54-.92-1.31-1.8-2.68-2.34-4.2-.17-.46-.29-.94-.39-1.41.01-.13.03-.26.05-.38.19-1.15.83-2.14,1.82-2.76,2.13-1.33,4.76-.19,6.88.59,4.33,1.6,8.21,4.47,11.03,8.13,2.15,2.79,6.93,11.04.88,12.38Z"/>
    <path class="cls-13" d="M466.96,186c-.39,2.27-.92,4.52-1.61,6.73-.34,1.1-.72,2.19-1.14,3.27-.44,1.14-.87,2.46-1.59,3.46-.72,1-1.93,1.31-3.04,1.68-1.41.48-2.81.96-4.22,1.43-2.75.93-5.48,1.91-8.22,2.87-5.41,1.9-10.81,3.83-16.23,5.68-6.11,2.09-12.21,4.18-18.32,6.27-4.14,1.42-8.3,2.68-12.5,3.85-.13.07-.27.14-.4.22-.07.3-.15.6-.23.9l-.08-.02c.07-.27.14-.55.2-.82-.43.23-.86.46-1.29.69-1.03,3.64-1.95,7.31-3.15,10.9-1.83,5.46-4.08,10.82-7.12,15.72-2.95,4.77-6.62,9.82-12.2,11.56-2.64.82-5.42,1.24-8.13,1.74-3.03.55-6.06,1.03-9.12,1.34-3.22.33-6.45.5-9.68.39-2.7-.09-5.32-.46-7.95-.98.3-.27.58-.54.85-.8,1.66-1.67,2.88-3.67,3.78-5.84.46-1.12.93-2.25,1.18-3.44.22-1,.58-2.34-.22-3.14,0,0,0,0,0,0,3.52-1.78,6.94-3.75,10.45-5.56,2.85-1.47,6.23-2.96,9.02-5.01,2.61-1.92,4.69-4.33,5.32-7.67.97-5.13-1.7-11.08-6.76-12.94-.93-.34-1.86-.54-2.78-.62.17-.37.29-.76.43-1.11.39-.98.7-2,.98-3.03.57-2.1,1.04-4.23,1.3-6.39.44-3.63.4-7.31-.44-10.86,11.45.53,22.86-3.06,32.68-8.79,2.96-1.73,5.81-3.65,8.55-5.72,2.09-1.58,4.37-3.21,6.15-5.19,1,.41,2.12.59,3.19.53,3.06-.18,5.7-2.05,7.97-3.96,4.88-4.11,8.96-9.49,11.22-15.48,1.12-2.98,1.6-6.47.81-9.58,1.41-2.17,2.6-4.5,3.73-6.82.81-1.66,1.57-3.34,2.28-5.04,1.59.59,3.16,1.25,4.69,2.09,4,2.18,7.62,5.1,10.71,8.45,6.33,6.84,10.22,15.59,11.31,24.83.56,4.73.43,9.53-.36,14.23Z"/>
    <path class="cls-14" d="M374.37,177.5c-.15.05-.31.09-.48.13-2.21.49-4.62-.35-6.58-1.33-2.26-1.12-4.24-2.71-6.01-4.49-.45-.45-.89-.91-1.31-1.39-.1-1.16.51-2.19,1.81-2.59,1.49-.45,3.06.14,4.37.83,2.17,1.13,4.08,2.74,5.63,4.62.8.96,1.49,2.01,2.08,3.12.19.35.34.73.49,1.11Z"/>
    <path class="cls-15" d="M343.29,191.78c3.54,1.13,7.14,2.28,10.79,3.16-7.07,5-14.44,9.41-22.16,13.39-8.28,4.27-16.78,8.48-26,10.28-8.67,1.69-19.3,1.15-26.4-4.75-6.08-5.06-5.73-13.73-1.63-19.94,2.51-3.8,6.06-6.17,10.03-7.78.06.16.12.33.19.49.55,1.31,1.23,2.57,2.02,3.76,1.63,2.44,3.69,4.55,6.06,6.28,2.76,2,5.94,3.39,9.21,4.31.93.26,1.86.47,2.81.64.72-.22,1.45-.4,2.16-.48.09-.01.18-.02.27-.03.01,0,.02,0,.04,0,.19-.01.38-.02.57-.02,1.03-1.16,2.04-2.33,3.05-3.5,2.6-3.02,5.25-6,7.8-9.08.82-.99,2.03-2.3,2.67-3.65,2.74,1.41,5.78,2.4,8.64,3.49,3.27,1.24,6.56,2.39,9.89,3.45Z"/>
    <path class="cls-14" d="M320.9,161.68c-.21.53-.66.95-1.52,1.18-1.99.52-3.94-1.13-5.34-2.33-.62-.53-1.22-1.09-1.8-1.68-.08-.35-.1-.69-.04-1.02.34-1.97,2.69-2.07,4.1-1.29,1.99,1.11,3.3,3.2,4.6,5.15Z"/>
    <path class="cls-15" d="M466.96,186c.49-2.88.72-5.81.7-8.74-1.47,1.4-2.96,2.78-4.47,4.14-7.66,6.89-16.01,13.12-25.18,17.88-9.82,5.11-20.39,8.99-31.56,9.44-3.7.15-7.51-.03-11.21-.64-1.82,5.01-3.8,9.95-6.06,14.78-3.46,7.4-7.57,14.77-12.91,20.98-5.34,6.22-12.06,11.05-20.31,12.24-3.39.49-6.76.08-9.97-.94-.14.36-.29.73-.44,1.09-.9,2.17-2.12,4.16-3.78,5.84-.27.27-.55.54-.85.8,2.63.52,5.24.89,7.95.98,3.23.11,6.47-.06,9.68-.39,3.06-.31,6.1-.79,9.12-1.34,2.71-.5,5.49-.93,8.13-1.74,5.58-1.73,9.25-6.79,12.2-11.56,3.04-4.91,5.29-10.26,7.12-15.72,1.2-3.59,2.13-7.26,3.15-10.9.43-.23.86-.46,1.29-.69-.07.27-.13.55-.2.82l.08.02c.09-.3.16-.6.23-.9.13-.07.27-.14.4-.22,4.2-1.17,8.36-2.43,12.5-3.85,6.11-2.09,12.21-4.18,18.32-6.27,5.42-1.85,10.82-3.78,16.23-5.68,2.74-.96,5.47-1.93,8.22-2.87,1.41-.48,2.81-.95,4.22-1.43,1.11-.38,2.31-.68,3.04-1.68.73-1,1.15-2.32,1.59-3.46.42-1.08.79-2.17,1.14-3.27.69-2.2,1.22-4.45,1.61-6.73Z"/>
    <path class="cls-5" d="M569.83,113.39c-.62,1.74-1.12,3.52-1.7,5.28-.75,2.31-1.53,4.6-2.33,6.89-1.6,4.55-3.52,9.1-5.56,13.48-.97,2.08-2.13,4.08-3.74,5.74-1.58,1.63-3.45,2.94-5.31,4.22-3.79,2.6-7.66,5.07-11.6,7.43-7.89,4.74-16.04,8.99-24.29,13.05-4.19,2.07-8.4,4.09-12.62,6.09-4.29,2.04-8.54,4.19-12.9,6.1-4.87,2.12-9.9,3.65-15.03,5.02-2.16.58-4.32,1.15-6.48,1.73.97-4.57,1.34-9.29,1.05-13.96-.59-9.61-3.96-18.88-10.01-26.4-3.3-4.11-7.33-7.65-11.85-10.37-1.9-1.15-3.94-2.27-6.08-3.18.49-1.24.95-2.48,1.39-3.74,2.53-7.27,4.17-14.86,4.81-22.54.01-.16.03-.32.04-.48.25-.07.5-.14.75-.2,1.85-.44,3.69-.89,5.53-1.31,3.66-.83,7.35-1.46,11.07-1.93,3.64-.46,7.29-.81,10.95-1.05,2.71-.18,5.43-.19,8.15-.28.09-.13.19-.26.29-.38.09-.11.18-.22.27-.33,0,0,.02-.02.02-.03.3-.35.61-.69.94-1.01-.78-1.44-1.56-2.89-2.32-4.34-1.13-2.16-2.21-4.34-3.26-6.53-.39-.83-.76-1.7-1.14-2.56,5.82-3.65,12.13-6.52,18.77-8.33,2.02-.56,4.07-1.01,6.14-1.36,1.67,2.72,3.56,5.32,5.38,7.93,2.22,3.18,4.47,6.34,6.6,9.58,1.89,2.87,4.62,5.76,5.06,9.3.44,3.52-.48,7.33-1.24,10.75-.51,2.31-1.22,4.56-1.88,6.82.31.88.51,1.79.63,2.71.09.63.14,1.27.18,1.92l1.14-.29c2.18-.56,4.36-1.13,6.55-1.67,1.78-.44,3.79-.75,5.29-1.9,1.55-1.19,2.51-3.03,3.54-4.65,1.2-1.89,2.4-3.77,3.61-5.65,2.57-4,5.02-8.05,7.49-12.1.16.06.34.04.47-.12.06-.07.12-.14.17-.21,1.04,1.53,2.77,2.72,4.22,3.81,1.59,1.19,3.25,2.3,4.96,3.31,3.49,2.06,7.24,3.7,11.1,4.93.92.29,1.84.56,2.78.81Z"/>
    <path class="cls-14" d="M446.37,102.43c.05,15.15-4.51,30.24-11.77,43.45-.16.3-.33.59-.49.89-.54-1.33-1.36-2.55-2.51-3.57-5.05-4.51-12.45-2.94-17.42.75-5.43,4.02-9.41,9.98-11.11,16.52-1.95-3.62-4.1-7.09-6.76-10.25-1.48-1.76-3.07-3.44-4.74-5.02-.97-.92-1.97-1.86-3.02-2.71-.4-.02-.8-.05-1.19-.07h-.13c-.51-.03-1.03-.06-1.55-.08,0,.06,0,.12,0,.18-.14,1.96-1.11,4.1-2.91,5.05-4.58,2.43-8.57-4.01-10.62-7.09-5.24-7.86-9.51-16.37-12.67-25.27-1.05-2.95-1.89-5.96-2.76-8.96-.37.08-.75.16-1.12.23,0,0-.01,0-.02,0-.6.12-1.21.23-1.82.32,0,.79.01,1.59,0,2.37-.05,2.47-.14,4.93-.28,7.4-.27,4.84-.59,9.76-1.36,14.55-.35,2.17-1.39,4.07-3.88,3.85-2.21-.2-3.97-1.96-5.4-3.5-1.8-1.93-3.27-4.09-4.51-6.39-.18.04-.36.09-.54.13h0c-.15.03-.3.07-.44.1-.11.03-.23.05-.34.08-.33.08-.65.16-.98.24,0,.12-.01.25-.03.38-.23,2.31-.77,4.71-1.74,6.82-2.06,4.5-6.69.34-8.79-1.87-5.35-5.64-8.93-12.82-10.41-20.44-.15-.77-.27-1.54-.37-2.32-.4.05-.8.09-1.2.12h-.08c-.55.05-1.11.07-1.66.05-.18,2.95-.24,5.92-.44,8.86-.2,3.05-.27,6.71-1.8,9.44-.61,1.08-1.54,2.04-2.74,2.43-1.5.49-2.93-.17-4.07-1.14-1.59-1.35-2.8-3.21-3.81-5.1-.32-.6-.62-1.2-.91-1.79-1.21-2.49-2.1-5.11-2.74-7.8-.89-3.71-1.15-7.5-.92-11.28-.29-.23-.57-.47-.84-.72,0,0-.02-.01-.02-.02-.41-.38-.79-.78-1.13-1.21-.88,2.41-2.45,5.77-4.71,4.3-1.35-.87-1.94-2.69-2.44-4.13-.54-1.54-.98-3.12-1.31-4.72-1.31-6.4-.8-13.29,2.09-19.2,2.71-5.55,7.19-10.35,12.98-12.72,2.92-1.19,6.08-1.74,9.23-1.66.02-.42.04-.84.07-1.25h0c0-.1.02-.2.03-.3,0-.06.01-.11.02-.17.04-.35.08-.7.14-1.04-.81-.42-1.62-.83-2.43-1.24-2.51-1.29-5.02-2.57-7.52-3.86-2.03-1.04-4.32-2.05-5.75-3.91-1.43-1.87-1.57-4.52.57-5.89,3.82-2.44,9.13-2.53,13.44-1.8,4.61.78,8.99,2.4,13.07,4.65,2.04,1.13,3.97,2.41,5.82,3.79.13,0,.25-.01.38-.03,0,0,0,0,0,0,.12,0,.24-.02.36-.02.33-.02.66-.04,1-.07.23-.02.45-.03.68-.05,4.92-3.1,10.01-5.82,15.45-8,6.61-2.65,13.47-4.66,20.38-6.36,7.26-1.78,14.66-3.57,22.11-4.21,3.89-.34,7.83-.32,11.68.39,3.87.71,7.6,2.06,11.11,3.84,11.85,5.99,21.45,16.09,27.86,27.63,6.55,11.77,9.72,24.97,9.76,38.41Z"/>
    <path class="cls-7" d="M328.02,50.74c-.23.01-.45.03-.68.05-.33.02-.66.04-1,.07-.12,0-.24.02-.36.02,0,0,0,0,0,0-.13.01-.25.02-.38.03-1.85-1.39-3.78-2.67-5.82-3.79-1.62-.9-3.29-1.69-5-2.37-.58.45-1.16.91-1.72,1.39-1.84,1.76-3.5,3.7-4.95,5.79-1.1,1.8-2.03,3.7-2.8,5.66.22.11.45.23.67.34.81.42,1.63.83,2.43,1.24-.06.34-.1.69-.14,1.04,0,.06-.01.11-.02.17,0,.1-.02.2-.03.3h0c-.03.42-.05.84-.07,1.25-1.34-.03-2.67.05-3.99.24-.11.67-.21,1.35-.28,2.03-.05,1.74.06,3.47.33,5.19.33,1.29.75,2.56,1.29,3.77.52.9,1.11,1.76,1.76,2.58.64.63,1.32,1.21,2.04,1.74.82.47,1.67.88,2.55,1.23,1.24.34,2.51.58,3.79.72,2.08.04,4.16-.14,6.21-.5,3.94-.92,7.74-2.39,11.38-4.16,1.26-.86,2.66-1.34,4.18-1.45.72.05,1.44.09,2.16.14,1.88.29,4.29,1.8,5.27,3.46,1.98,3.37,4.24,6.56,6.81,9.52,2.8,2.97,5.9,5.63,9.27,7.93,3.49,2.17,7.19,3.94,11.06,5.32,4.52,1.41,9.19,2.29,13.91,2.68,5.91.28,11.84-.17,17.65-1.26,6.69-1.46,13.19-3.74,19.35-6.74,5.89-3.08,11.42-6.83,16.42-11.21,1.29-1.2,2.54-2.45,3.75-3.74-1.57-5.32-3.72-10.48-6.45-15.39-6.42-11.53-16.01-21.64-27.86-27.63-3.51-1.77-7.23-3.12-11.11-3.84-3.85-.71-7.79-.73-11.68-.39-7.46.65-14.86,2.43-22.11,4.21-6.91,1.69-13.77,3.7-20.38,6.36-5.44,2.18-10.53,4.9-15.45,8Z"/>
    <path class="cls-17" d="M544.45,102.2c-.48.61-.9,1.24-1.27,1.81-1.18,1.82-2.4,3.61-3.52,5.46-2.25,3.7-4.5,7.39-6.75,11.09-.21.35-.43.7-.64,1.05-.36.13-.72.26-1.08.39-4.23,1.51-8.5,2.9-12.8,4.17-4.37,1.29-8.78,2.45-13.21,3.48-3.6.84-8.25,1.24-11.03,3.74-3.02-3.46-6.32-6.67-9.89-9.55,2.61-.31,5.2-.83,7.65-1.81,2.47-.98,4.87-2.16,6.99-3.76,2.24-1.69,4.47-3.51,5.64-6.14.42-.95.73-1.95.9-2.96.38-.76.56-1.62.49-2.51-.35-4.33-2.22-8.4-4.44-12.08-2.01-3.33-4.22-6.58-6.82-9.49-1.99-2.22-4.82-3.82-7.86-2.79-2.68.9-4.18,3.34-4.47,6.04-.43,4.01,1.71,8.13,3.49,11.6.2.39.4.77.61,1.14-4.38.68-8.74,1.39-13.1,2.16-2.49.44-4.98.89-7.47,1.36-.74-.34-1.52-.61-2.3-.8-.84-.2-1.67-.14-2.51-.2-.11-.03-1.06-.17-1.45-.16-.61.02-1.23.18-1.84.29-1.34.24-2.65.61-3.91,1.13-2.08.85-4.41,1.83-5.57,3.88-1.25,2.21-1.07,4.98.41,7.04,1.06,1.48,2.45,2.61,3.79,3.82.58.53,1.16,1.05,1.75,1.57.23.65.5,1.29.77,1.92,1.56,3.62,4.12,6.94,6.52,10.04,4.95,6.38,10.27,12.33,16.82,17.12,3,2.19,6.22,4.04,9.67,5.43,2.19.88,4.39,1.82,6.8,1.69,2.63-.13,4.97-1.38,6.33-3.49,1.37-.48,2.71-1.21,3.9-1.79,1.83-.89,3.62-1.86,5.48-2.72,3.43-1.58,6.86-3.14,10.28-4.74,5.72-2.68,11.31-5.65,16.39-9.41.42-.19.84-.39,1.26-.58,1.94-.89,3.9-1.73,5.63-2.99,4.48-3.28,6.82-8.05,8.51-13.21.54-1.65,1.13-3.32,1.63-5-3.74-3.33-7.08-7.07-9.76-11.25Z"/>
    <path class="cls-10" d="M595.6,104.74c.97.42,4.13,2.03,3.05,3.43-.45.59-1.51.65-2.19.75-.87.12-1.74.21-2.61.3-1.68.16-3.37.26-5.06.3-6.71.15-13.43-.65-19.93-2.34-7.27-1.89-14.18-5.01-20.56-8.95,14.33-.87,28.76.8,42.52,4.91,1.61.48,3.25.93,4.79,1.61Z"/>
    <path class="cls-1" d="M598.19,109.87c-.66.82-1.39,1.54-2.37,2.11-1.47.85-3.33,1.22-4.99,1.48-3.75.58-7.61.63-11.38.33-7.71-.61-15.23-2.95-22-6.66-1.86-1.02-3.65-2.14-5.38-3.37-1.63-1.17-3.16-2.74-4.93-3.71.21-.27.42-.55.63-.82,12.05,7.95,26.84,11.87,41.23,11.53,1.82-.04,3.63-.15,5.44-.34,1.2-.12,2.56-.16,3.74-.56Z"/>
    <path class="cls-10" d="M523.88,68.27c.43.45,1.69,1.69,1.28,2.39-.01.02-.02.04-.04.06-.42.56-1.72.45-2.29.38-2.05-.27-4.06-.72-6.12-.95-2.1-.23-4.2-.37-6.31-.38-4.27-.03-8.55.39-12.69,1.46-4.07,1.05-8.04,2.65-11.66,4.78-1.78,1.05-3.47,2.23-5.06,3.54-.09.08-.19.16-.28.24-.17-.08-.39-.07-.57.09-.84.73-1.65,1.49-2.46,2.26-.46.43-1.37,1.55-2.05,1.56-.28,0-.52-.18-.67-.66-.53-1.65.36-4.01,1.04-5.51,1.58-3.49,4.42-6.26,7.59-8.33,6.84-4.45,15.51-6.18,23.58-5.99,4.02.09,8.28.56,12.05,2.07,1.73.69,3.38,1.66,4.68,3.01Z"/>
    <path class="cls-1" d="M522.25,72.42c.75.13,1.76.21,2.62,0-1.62,2.44-4.96,3.35-7.81,3.55-3.38.23-6.75.16-10.12.56-1.18.14-2.37.31-3.54.51-5.39.92-10.67,2.46-15.69,4.62-3.27,1.4-6.38,3.06-9.36,4.99-.39-.8-.81-1.57-1.32-2.28.12-.13.24-.26.37-.39.07-.06.13-.13.2-.19.71-.67,1.41-1.33,2.11-2.01,5.7-4.99,12.84-8.34,20.26-9.69,4.92-.9,9.9-1.13,14.88-.72,2.5.21,4.94.64,7.41,1.06Z"/>
    <path class="cls-6" d="M370.04,230.02c-.18,2.66-1.54,4.9-3.42,6.69-.09-.11-.22-.18-.38-.17-1.16.12-2.11.81-3.26,1.04-1.25.25-2.57.12-3.78-.26-2.64-.83-4.68-2.7-5.71-5.27-1.02-2.55-.95-5.43.38-7.85,1.34-2.43,3.51-3.77,5.95-4.88.3-.03.6-.04.9-.05,5.78-.08,9.68,5.24,9.31,10.75Z"/>
    <path class="cls-16" d="M362.9,239.53c-1.76,1.11-3.62,2.1-5.4,3.06-7.13,3.83-14.55,7.14-21.95,10.39-.46-.98-1.3-1.88-1.97-2.6-.94-1.01-2.11-1.88-3.45-2.27-2.31-.66-5.26.16-6.15,2.57-.33.91-.34,1.88-.12,2.84-.29.08-.57.21-.79.33-.85.48-1.5,1.29-1.87,2.19-.21.51-.3,1.04-.31,1.56-1.11.29-2.29,1.6-2.59,2.41-.28.75-.3,1.49-.14,2.21-.36-.04-.72-.03-1.03.03-1.23.22-2.03,1.02-2.33,2.01-4.28-.82-7.66-4.5-7.77-8.94-.03-1.02.11-2.03.69-2.83,0,0,0,0,0,0,.07-.08.13-.16.2-.25,0,0,0,0,0-.01.08-.1.18-.19.28-.27,1.05-.92,2.34-1.64,3.49-2.42,1.21-.83,2.44-1.63,3.63-2.48.38-.27.81-.55,1.22-.86.79.9,1.83,1.51,3.16,1.62,2.16.18,3.42-1.32,4.21-3.15.48-1.13.91-2.29,1.27-3.47.15-.5.3-1,.4-1.5,1.18-.65,2.35-1.31,3.49-2.04,1.03-.67,2.06-1.34,3.08-2.02.56-.37,1.12-.75,1.69-1.13,3.22-2.17,6.44-4.35,9.65-6.53,2.84-1.92,5.61-3.98,8.56-5.72.97-.57,1.99-1.12,3.04-1.59-2.26,2.01-3.65,5.24-3.59,8.07.09,4.8,3.59,9.75,8.43,10.68.81.16,1.91.24,2.99.13Z"/>
    <path class="cls-6" d="M311.82,265.14c-.06,0-.11.01-.17.02-1.61.21-3.23.41-4.84.64-2.94.4-5.88.75-8.82,1.15-.06-.86-.29-1.7-.74-2.44.69-.7,1.26-1.7,1.8-2.35,1.01-1.24,2.05-2.46,3.11-3.66,1.06-1.2,2.12-2.39,3.22-3.56.09-.09.17-.18.26-.27-.02.33-.02.65,0,.97.2,3.92,2.71,7.66,6.18,9.5Z"/>
    <path class="cls-16" d="M295.73,265.32c.4.78.62,1.54.6,2.44-.21.16-.42.33-.62.47-.97.7-1.95,1.39-2.92,2.09-.81.58-1.61,1.23-2.5,1.67-.77.38-2.38.68-2.64-.55-.15-.71,1.66-1.68,2.18-2.07.88-.65,1.72-1.34,2.62-1.96,1.07-.73,2.18-1.41,3.27-2.1Z"/>
    <path class="cls-14" d="M387.54,58.16c-2.12-.35-3.68.52-5.48,1.5-1.22.67-2.41,1.38-3.6,2.12-2.41,1.51-5.62,3.28-6.19,6.32-.2,1.08.37,2.11,1.45,2.41,2.92.8,5.83-1.1,8.35-2.36,1.19-.59,2.39-1.17,3.58-1.77,1.57-.79,3.25-1.43,4.11-3.08.99-1.88.1-4.76-2.23-5.14Z"/>
    <path class="cls-14" d="M383.32,50.33c.17-2.24-1.96-4.66-4.1-5.08-2.33-.46-4.81.46-5.99,2.6-1.02,1.83-1.33,3.88-1.77,5.9-.36,1.66-.81,3.3-1.23,4.95-.4,1.55-.77,3.17-1.06,4.74-.27,1.45-.76,3.51-.02,4.9,0,.02.01.04.02.07.19.81,1.24,1.4,2.02,1.1.05-.02.1-.04.14-.05,1.52-.19,2.83-1.61,3.8-2.71,1.26-1.43,2.46-3.12,3.44-4.75.9-1.51,1.71-3.09,2.49-4.67.36-.73.71-1.46,1.02-2.21.29-.71.62-1.41.84-2.13.26-.86.32-1.74.39-2.65Z"/>
    <path class="cls-14" d="M367.38,64.7c-.07-1.02-.41-2.08-.92-3.11-.23-.45-.46-.92-.76-1.33-.72-.98-1.57-1.44-2.72-1.76-1.88-.52-4.12,1.13-3.92,3.16.1.97.23,1.85.85,2.63.4.5.83.85,1.33,1.23.89.69,1.73,1.22,2.76,1.49.13.06.27.11.41.15,1.64,1,3.81-.62,2.97-2.48Z"/>
    <path class="cls-12" d="M544.69,107.99c-2.4,2.82-4.68,5.68-6.89,8.66-2.03,2.73-3.82,5.74-7.18,6.92-1.66.58-3.38.78-5.05,1.32-1.81.58-3.62,1.17-5.43,1.75-3.62,1.17-7.24,2.32-10.84,3.54-2,.68-4,1.36-6,2.03-1.97.67-4.29,1.01-5.28,3.06-.21.44-.11,1.03.36,1.27.74.38,1.76.66,2.59.46.95-.23,1.88-.64,2.8-.95,1.87-.63,3.73-1.27,5.6-1.9,3.67-1.24,7.32-2.54,10.97-3.84,1.86-.66,3.72-1.32,5.58-1.98,1.81-.64,3.49-1.48,5.25-2.23,1.53-.65,2.93-1.48,4.11-2.66,1.16-1.16,2.07-2.55,3-3.9,2.49-3.61,4.9-7.23,7.15-11,.27-.45-.39-.96-.74-.55Z"/>
    <path class="cls-12" d="M484.25,104.73c-1.24-.5-2.45-.94-3.77-1.18-1.45-.26-2.96-.11-4.43-.05-2.9.13-5.79.52-8.66.96-2.89.45-5.77.99-8.62,1.64-1.39.32-2.77.66-4.14,1.02-1.48.39-2.88.84-3.82,2.05-.32.28-.58.59-.8.99-.3.55-.12,1.33.46,1.63.45.23.85.35,1.3.41,1.37.44,2.67.13,4.09-.25,1.37-.38,2.75-.73,4.13-1.05,2.7-.64,5.43-1.19,8.17-1.63,2.66-.43,5.35-.73,8.02-1.08,1.45-.19,2.98-.23,4.39-.62,1.29-.36,2.48-.9,3.7-1.46.51-.23.51-1.16-.02-1.38Z"/>
    <path class="cls-12" d="M441.74,77.27c-.11-3.89-1.65-7.74-3.31-11.21-1.69-3.54-3.76-6.93-6.01-10.14-4.82-6.85-10.62-12.82-17.58-17.51-3.69-2.48-7.77-4.49-12.08-5.61-4.36-1.13-9.04-1.38-13.52-.99-4.45.38-8.91,1.26-13.29,2.14-4.22.85-8.42,1.84-12.58,2.96-2.39.65-4.76,1.35-7.12,2.1-1.23.39-2.31,1.01-3.48,1.54-1.05.48-2.14.89-3.2,1.35-2.22.96-4.44,1.95-6.65,2.95-2.15.97-4.54,1.85-6.05,3.73-.3.37-.09.89.4.9,2.04.07,3.91-.77,5.81-1.48,1.96-.73,3.92-1.43,5.92-2.03,1.93-.59,3.88-1.25,5.86-1.62,2.08-.38,4.05-1,6.08-1.59,7.9-2.27,15.99-4.02,24.17-4.85,4.1-.41,8.36-.75,12.46-.23,4.06.51,7.81,1.86,11.35,3.86,3.5,1.97,6.67,4.44,9.65,7.13,2.78,2.52,5.48,5.15,7.95,7.97,2.76,3.15,5.23,6.54,7.41,10.11,2.2,3.6,4.1,7.52,6.71,10.83.35.44,1.13.33,1.11-.33Z"/>
    <path class="cls-16" d="M347.9,225.23c-2.04,1.13-3.91,2.75-5.82,4.1-1.94,1.37-3.89,2.72-5.85,4.05-1.91,1.3-3.82,2.58-5.75,3.84-1.01.67-2.08,1.29-3.07,2-.96.69-1.83,1.52-2.73,2.27-.97.82.31,2.04,1.27,1.6,1.05-.47,2.15-.89,3.14-1.48,1.05-.62,2.06-1.31,3.09-1.97,2-1.28,3.98-2.58,5.95-3.9,1.92-1.28,3.83-2.57,5.72-3.88,1.97-1.36,4.17-2.64,5.94-4.26,1.33-1.22-.42-3.22-1.91-2.4Z"/>
    <path class="cls-16" d="M314.81,247.59c-1.8-.14-3.73,1.68-5.03,2.73-1.33,1.08-3.25,2.42-3.61,4.17-.15.75.5,1.39,1.25,1.19.98-.25,1.51-.84,2.27-1.47.64-.53,1.3-1.03,1.99-1.5,1.38-.94,3.48-1.63,4.35-3.1.58-.97-.25-1.95-1.22-2.02Z"/>
    <g>
      <path class="cls-4" d="M313.33,170.57c-1.47-.44-3.33-.78-4.87-.53-1.31.21-2.32,1.07-3.1,2.11-.81,1.09-1.3,2.39-1.45,3.74-.12,1.1-.21,2.93.9,3.56.2.11.55.06.65-.18.31-.77-.02-1.49-.05-2.3-.04-.99.16-1.98.59-2.88.4-.84,1.03-1.7,1.86-2.14.99-.53,2.3-.24,3.36-.1,1.82.24,4.62,1,4.96,3.17.19,1.16-.55,2.2-1.56,2.71-1.13.57-2.43.35-3.55-.08-.55-.21-.94.75-.39.98,2.35.96,5.54.66,6.56-2.05,1.07-2.84-1.44-5.25-3.93-6Z"/>
      <path class="cls-4" d="M324.06,180.88c-1.28-1.05-2.93-1.8-4.42-2.51-.94-.45-2.06-1.03-3.17-1.43-.41.55-.89,1.05-1.42,1.48.41.13.83.24,1.23.38.87.29,1.73.62,2.57.97,1.38.59,2.85,1.21,4.1,2.07,1.79,1.23.34,3.06-.63,4.31-1.06,1.36-2.11,2.73-3.16,4.1-2.1,2.74-4.25,5.43-6.48,8.06-1.07,1.26-2.14,2.52-3.21,3.78-1.07,1.25-2.32,2.45-3.13,3.9-.04.07.05.16.11.11,1.55-1.1,2.78-2.76,4.04-4.16,1.29-1.43,2.55-2.89,3.81-4.35,2.6-3.02,5.26-6,7.8-9.08,1.65-1.99,4.85-5.26,1.96-7.63Z"/>
      <path class="cls-4" d="M309.07,171.04c.35-.11.71-.2,1.08-.26-.3-2.13-1.81-4.35-3.19-5.78-1.7-1.77-4.1-2.7-6.45-1.71-2.09.88-3.57,2.88-4.12,5.04-.35,1.37-.39,2.82-.27,4.22.1,1.18.06,3.13,1.03,3.95.21.18.54.16.69-.1.5-.91.08-1.96-.04-2.93-.15-1.2-.25-2.44-.1-3.64.25-2,1.24-3.95,3.06-4.94,2.06-1.13,4.11-.06,5.52,1.57.72.83,1.34,1.77,1.86,2.73.33.6.61,1.24.93,1.85Z"/>
      <path class="cls-4" d="M304.64,163.72c.05.27.09.54.14.8.4.21.78.44,1.14.7.06-.6-.13-1.23-.23-1.81-.16-.89-.32-1.77-.48-2.66-.33-1.84-.65-3.68-.97-5.52-.61-3.54-1.23-7.09-1.84-10.63-.63-3.64-1.16-7.31-1.72-10.97-.27-1.78-.54-3.56-.81-5.34-.27-1.8-.44-3.64-.98-5.38-.05-.16-.28-.12-.29.05-.07,1.93.29,3.86.55,5.77.24,1.78.48,3.56.73,5.35.52,3.63,1.11,7.25,1.64,10.88.51,3.54,1.08,7.07,1.68,10.59.3,1.77.61,3.55.93,5.32.17.95.34,1.91.51,2.86Z"/>
      <path class="cls-4" d="M306.21,186.77c-.65-1.15-2.31-1.62-3.4-2.24-1.26-.71-2.49-1.47-3.67-2.32-2.43-1.76-4.65-3.95-6.05-6.62-1.28-2.43-1.88-5.33-1.47-8.05.44-2.93,2.07-5.25,4.55-6.84,1.46-.93,3.05-1.66,4.61-2.4,1.02-.48,2.13-.96,3.17-1.53-.11-.4-.19-.81-.25-1.22-1.14.38-2.26.9-3.31,1.34-1.56.65-3.14,1.3-4.6,2.16-2.66,1.58-4.68,3.87-5.49,6.9-1.65,6.13,1.52,12.25,6.11,16.19,1.37,1.17,2.85,2.21,4.39,3.14.84.51,1.71.99,2.58,1.46.76.4,1.54.92,2.43.79.37-.05.6-.4.41-.75Z"/>
      <path class="cls-4" d="M298.34,155.34c-1.24-.79-2.9-1.08-4.28-.5-1.68.7-1.81,2.71-2.18,4.26-.52,2.22-1.26,4.51-1.4,6.79,0,.08.12.11.15.04.64-1.4.99-2.94,1.39-4.42.42-1.58.68-3.39,1.35-4.88.72-1.59,2.86-1.41,4.16-.71.58.32,1.1.76,1.48,1.3.31.44.46.93.85,1.33.14.14.4.07.44-.13.29-1.24-1.01-2.47-1.96-3.08Z"/>
      <path class="cls-4" d="M411.24,175.79c-2.12,1.38-3.99,3.17-6,4.7-2.34,1.78-4.75,3.48-7.25,5.03-5.03,3.13-10.42,5.7-16.1,7.4-5.64,1.69-11.53,2.46-17.41,2.08-6.43-.42-12.66-2.42-18.76-4.37-3.59-1.15-7.16-2.38-10.69-3.69-1.75-.65-3.5-1.32-5.24-2.02-1.65-.66-3.27-1.42-4.96-1.97-.05.62-.14,1.22-.28,1.8,2.79,1.46,5.91,2.48,8.84,3.59,3.27,1.23,6.56,2.39,9.89,3.45,6.31,2.01,12.79,4.1,19.43,4.59,11.88.88,23.8-2.77,33.99-8.71,2.96-1.73,5.81-3.65,8.55-5.72,2.23-1.69,4.69-3.44,6.51-5.61-.2-.16-.37-.34-.53-.54Z"/>
      <path class="cls-4" d="M340.24,175.78c-1.23-.7-2.77-.08-4.11-.06-1.49.02-2.96-.19-4.38-.63-.6-.18-1.27-.38-1.6-.96-.34-.62-.22-1.42-.16-2.08.15-1.6.8-3.27.56-4.87-.02-.13-.17-.21-.27-.1-1.3,1.33-1.51,3.66-1.69,5.43-.16,1.55-.04,3.06,1.41,3.95,1.54.96,3.65,1.26,5.42,1.4,1.62.13,4.02.36,5.06-1.14.21-.3.03-.75-.26-.92Z"/>
      <path class="cls-4" d="M322.04,159.45c-.65-2-1.64-3.94-2.73-5.73-2.29-3.74-5.37-6.88-8.8-9.6-1.7-1.35-4-2.41-5.78-.54-1.79,1.88-1.02,4.34.24,6.26.14.22.51.14.51-.14.91,2.96,2.59,5.73,4.51,8.11,1.37,1.69,2.93,3.22,4.67,4.52,1.64,1.23,3.73,2.24,5.74,1.31,1.72-.79,2.19-2.48,1.63-4.19ZM319.38,162.86c-1.99.52-3.94-1.14-5.34-2.33-1.26-1.08-2.42-2.27-3.46-3.56-2.37-2.94-3.86-6.31-5.21-9.79.03-.91.23-1.78.83-2.36,1.22-1.18,3.55.66,4.63,1.4,2.8,1.92,5.14,4.6,6.99,7.43.95,1.46,1.79,2.99,2.48,4.59.73,1.69,1.56,3.97-.91,4.62Z"/>
      <path class="cls-4" d="M319.27,158.06c-1.24-1.45-2.85-2.98-4.91-2.84-1.43.1-2.78,1.01-2.92,2.52-.05.49.02.94.17,1.36.32.22.63.44.94.67-.3-.65-.47-1.34-.36-1.95.34-1.97,2.69-2.07,4.1-1.29,2.08,1.15,3.42,3.38,4.77,5.4.06-.08.12-.16.17-.24.07-.11.14-.23.2-.35.04-.07.07-.13.11-.2-.66-1.1-1.46-2.13-2.28-3.09Z"/>
      <path class="cls-4" d="M374.7,165.36c-3.1-4.43-7.82-8.15-12.8-10.27-2.88-1.23-6.13-2.01-8.76.18-1.13.94-1.93,2.3-2.09,3.77-.19,1.69.42,2.85,1.58,4.02.28.28.77.1.86-.24.39.8.85,1.56,1.3,2.26,1.61,2.48,3.43,4.87,5.48,7.01,2.02,2.12,4.35,4.02,7.02,5.27,2.2,1.03,4.88,1.85,7.31,1.19,6.27-1.72,2.46-9.81.09-13.19ZM373.9,177.62c-2.21.49-4.62-.35-6.58-1.33-2.26-1.12-4.24-2.71-6.01-4.49-1.98-2-3.72-4.24-5.33-6.54-.92-1.31-1.8-2.68-2.34-4.2-.17-.46-.29-.94-.39-1.41.01-.13.03-.26.05-.38.19-1.15.83-2.14,1.82-2.76,2.13-1.33,4.76-.19,6.88.59,4.33,1.6,8.21,4.47,11.03,8.13,2.15,2.79,6.93,11.04.88,12.38Z"/>
      <path class="cls-4" d="M374.71,175.51c-.76-1.37-1.69-2.64-2.75-3.8-2.03-2.21-4.99-4.48-8.02-4.98-2.47-.4-5.37,1.28-4.79,4.07.4.51.83,1.02,1.26,1.51.05-.07.11-.14.16-.21-.11-.2-.21-.4-.31-.61-.69-1.55-.17-3.15,1.53-3.67,1.49-.45,3.06.14,4.37.83,2.16,1.13,4.08,2.74,5.63,4.62.8.96,1.49,2.01,2.08,3.12.33.62.56,1.32.83,1.98.37-.2.75-.41,1.13-.61-.31-.8-.76-1.59-1.13-2.26Z"/>
      <path class="cls-4" d="M431.6,143.2c-5.04-4.51-12.44-2.94-17.42.75-5.43,4.02-9.41,9.99-11.11,16.52-1.95-3.62-4.09-7.09-6.76-10.26-1.48-1.76-3.07-3.44-4.74-5.02-1.34-1.26-2.71-2.56-4.24-3.62.06.73.01,1.46-.09,2.19,1.04.89,2.11,1.75,3.11,2.68,1.64,1.54,3.19,3.16,4.65,4.87,2.93,3.43,5.69,7.12,7.79,11.13.24.45.98.33,1.08-.16,1.13-5.64,3.99-11.07,8.36-14.88,4.17-3.63,10.18-6.76,15.74-4.43,4.92,2.07,5.95,7.45,4.94,12.2-1.15,5.36-4.28,10.07-7.98,14.04-2.15,2.3-4.62,4.71-7.53,6.02-2.84,1.28-6.27.98-8.25-1.64-.23-.3-.82-.13-.66.29.92,2.43,3.65,3.53,6.13,3.39,3.06-.18,5.7-2.05,7.97-3.96,4.88-4.1,8.96-9.49,11.22-15.48,1.81-4.81,1.93-10.95-2.19-14.64Z"/>
      <path class="cls-4" d="M425.04,154.58c-1.07-.9-2.96,0-4.02.57-1.61.86-3.08,2.09-4.42,3.31-2.67,2.44-5.35,5.47-6.48,8.96-.02.06.07.11.11.06,2.24-2.5,4.12-5.26,6.61-7.54,1.25-1.15,2.57-2.27,4.01-3.18.69-.43,1.41-.82,2.2-1.04.64-.18,1.36-.1,1.92-.49.21-.14.3-.48.08-.66Z"/>
      <path class="cls-4" d="M419.97,160.72c-.78-.95-1.91-1.57-3.1-1.78-.2-.04-.32.19-.19.34.69.81,1.31,1.67,1.93,2.53.74,1.02,2.17-.1,1.36-1.08Z"/>
      <path class="cls-4" d="M447.59,108.24c1.19-14.05-1.2-28.1-7.26-40.85-5.66-11.91-14.47-22.4-25.58-29.57-6.78-4.37-14.37-7.29-22.48-7.59-7.81-.29-15.57,1.43-23.14,3.12-14.27,3.18-28.66,7.35-41.1,15.27-.88.56-1.73,1.15-2.56,1.76.42.4.84.79,1.26,1.2,5.32-3.45,10.83-6.45,16.75-8.83,6.61-2.66,13.46-4.66,20.38-6.36,7.25-1.78,14.66-3.57,22.11-4.21,3.89-.34,7.83-.31,11.68.39,3.87.71,7.6,2.06,11.1,3.84,11.85,5.99,21.45,16.09,27.86,27.63,6.55,11.77,9.72,24.97,9.76,38.41.05,15.15-4.51,30.24-11.77,43.45-.37.68-.74,1.35-1.11,2.02.17.47.29.95.38,1.43,1.73-2.47,3.13-5.19,4.46-7.89,1.7-3.46,3.17-7.03,4.44-10.67,2.53-7.27,4.17-14.86,4.81-22.54Z"/>
      <path class="cls-4" d="M333.55,57.12c-3.31-4.29-7.57-7.75-12.2-10.54-4.45-2.67-9.43-4.96-14.58-5.8-4.64-.76-10.28-.62-14.38,2-2.04,1.3-2.84,3.54-2.23,5.86.6,2.29,2.38,3.92,4.35,5.1,2.83,1.7,5.92,3.02,8.87,4.49,3.19,1.58,6.32,3.35,9.73,4.41.35.11.47-.37.22-.56-2.3-1.68-4.82-2.88-7.35-4.18-2.51-1.29-5.02-2.57-7.52-3.86-2.03-1.04-4.32-2.05-5.75-3.91-1.43-1.87-1.57-4.52.57-5.89,3.81-2.44,9.12-2.53,13.44-1.8,4.61.78,8.99,2.4,13.07,4.65,4.97,2.75,9.31,6.39,13.36,10.35.21.2.6-.08.41-.33Z"/>
      <path class="cls-4" d="M319.3,64.38c-1.28-1.16-2.32-2.09-3.96-2.75-1.53-.61-3.15-1-4.78-1.23-3.32-.46-6.7-.23-9.92.71-6.48,1.89-11.87,6.6-15.19,12.4-3.5,6.12-4.49,13.52-3.43,20.44.27,1.8.67,3.58,1.21,5.33.49,1.59,1.02,3.3,1.95,4.7.77,1.16,1.92,2.23,3.4,2.26,1.42.03,2.54-.85,3.34-1.94,1.03-1.41,1.64-3.15,2.23-4.79.65-1.8,1.19-3.64,1.79-5.45,1.23-3.73,2.89-6.96,5.49-9.92.31-.35-.09-.86-.51-.64-2.52,1.36-4,3.85-5.1,6.41-1.17,2.74-1.94,5.62-2.91,8.43-.61,1.78-2.37,7.89-5.3,6-1.35-.87-1.94-2.69-2.44-4.13-.54-1.54-.98-3.12-1.31-4.72-1.31-6.4-.81-13.29,2.08-19.2,2.72-5.55,7.19-10.35,12.98-12.72,3.15-1.28,6.57-1.82,9.96-1.63,1.76.1,3.5.42,5.18.95.79.25,1.56.57,2.34.84.91.32,1.85.46,2.73.86.13.06.29-.11.16-.22Z"/>
      <path class="cls-4" d="M318.37,90.97c.98-1.39,2.24-2.54,3.29-3.87.36-.46-.1-1.02-.62-.78-2.31,1.04-3.94,3.38-5.17,5.52-1.32,2.3-2.24,4.83-2.88,7.4-1.45,5.88-1.28,11.98-1.68,17.99-.2,3.05-.27,6.71-1.8,9.44-.6,1.08-1.54,2.04-2.74,2.43-1.5.49-2.93-.17-4.07-1.14-2.09-1.78-3.53-4.45-4.72-6.89-1.21-2.49-2.09-5.11-2.74-7.8-1.43-5.99-1.25-12.18.07-18.17.05-.23-.28-.31-.35-.09-3.75,10.53-1.52,23.37,5.15,32.3,1.57,2.1,3.86,4,6.66,3.4,2.68-.58,4.31-3.06,5.04-5.52.95-3.2,1.07-6.73,1.25-10.04.19-3.51.26-7.03.66-10.53.38-3.27,1.08-6.56,2.39-9.6.62-1.42,1.36-2.8,2.26-4.07Z"/>
      <path class="cls-4" d="M337.78,125.15c-.68-1.41-1.24-2.88-1.78-4.37-.07,1.73.16,3.48-.02,5.23-.23,2.31-.77,4.71-1.74,6.82-2.06,4.5-6.69.34-8.78-1.87-5.35-5.64-8.92-12.82-10.41-20.44-.84-4.3-.87-8.73-.71-13.09,0-.2-.3-.22-.34-.04-2.01,8.29.09,17.47,3.81,25,1.92,3.89,4.44,7.49,7.48,10.6,2.34,2.39,6.87,5.51,9.66,1.94,1.58-2.02,2.21-5.12,2.57-7.6.1-.69.2-1.42.27-2.17Z"/>
      <path class="cls-4" d="M354.17,128.22c.3-2.66.56-5.33.76-8,.23-3.01.39-6.02.48-9.03.09-2.97.5-6.27-.36-9.15-.06-.18-.2-.28-.36-.3-.22.77-.44,1.54-.63,2.32-.1.4-.2.81-.29,1.21-.05,1.3,0,2.62-.02,3.91-.05,2.47-.14,4.93-.28,7.4-.27,4.84-.59,9.76-1.36,14.55-.35,2.17-1.39,4.07-3.88,3.85-2.21-.2-3.97-1.96-5.4-3.5-2.8-3-4.81-6.54-6.36-10.32-.86-2.1-1.59-4.26-2.28-6.42-.68-2.14-1.23-4.28-2.17-6.33-.07-.16-.34-.07-.32.09.17,2.2.74,4.28,1.34,6.39.62,2.19,1.32,4.35,2.15,6.46,1.59,4.02,3.68,7.97,6.57,11.22,1.46,1.64,3.19,3.32,5.37,3.9,1.9.5,4.07.03,5.33-1.55,1.45-1.82,1.46-4.5,1.71-6.7Z"/>
      <path class="cls-4" d="M348.19,135.9c.54-.12,1.07-.23,1.61-.34-1-.91-2-1.8-2.85-2.88-1.37-1.76-2.46-3.73-3.3-5.8-.79-1.93-1.4-3.93-1.91-5.95-.27-1.07-.5-2.16-.79-3.22-.29-1.06-.7-2.09-.95-3.16-.03-.14-.27-.11-.25.04.15,1.14.15,2.29.3,3.44.14,1.09.38,2.15.63,3.22.54,2.31,1.21,4.59,2.16,6.77.88,2.01,1.97,3.9,3.34,5.62.61.77,1.28,1.55,2.03,2.26Z"/>
      <path class="cls-4" d="M387.12,143.35c.39-2.57.02-6.15-1.62-8.24-.28-.35-.83-.23-.85.25-.05,1.23.32,2.22.61,3.4.31,1.23.5,2.5.41,3.77-.14,1.96-1.11,4.1-2.91,5.05-4.58,2.43-8.57-4.01-10.62-7.09-5.24-7.86-9.51-16.37-12.67-25.28-1.7-4.79-2.87-9.75-4.45-14.57-.11.36-.21.72-.32,1.09.57,4.6,2,9.11,3.5,13.48,1.7,4.94,3.73,9.77,6.07,14.44,2.37,4.73,5.07,9.3,8.08,13.66,2.35,3.41,6.47,7.95,11.06,5.62,2.07-1.05,3.37-3.33,3.71-5.58Z"/>
      <path class="cls-4" d="M393.58,57.8c-1.22-.84-3.01-.74-4.41-.59-1.31.15-2.58.47-3.78.94,2.12-3.49,2.77-7.88,1.11-11.71-1.15-2.64-3.55-4.68-6.57-4.38-3.11.3-5.45,2.55-6.99,5.12-1.76,2.92-2.99,6.22-3.85,9.55-1-1.48-2.58-2.48-4.52-2.37-.74.04-.89,1.13-.14,1.31,1.82.46,3.67,1.68,4.17,3.58.19.71,1.29.69,1.45-.03.8-3.76,2.04-7.5,3.94-10.85,1.6-2.82,4.95-6.17,8.49-4.38,2.95,1.49,3.71,5.5,3.35,8.48-.36,2.97-1.81,5.77-4.06,7.74-.27.2-.53.41-.78.64-.64.56.25,1.7.94,1.18.24-.18.47-.37.7-.57,1.81-1.42,3.99-2.37,6.28-2.69,1.07-.15,2.74-.4,3.71.19,1.29.78.11,2.38-.58,3.14-1.7,1.88-3.75,3.48-5.93,4.76-2.15,1.27-4.48,2.06-6.72,3.12-.33.15-.15.69.19.66,3.09-.22,6.14-1.81,8.68-3.5,1.37-.91,2.67-1.94,3.86-3.07.96-.92,1.99-1.93,2.4-3.23.36-1.12.08-2.35-.92-3.04Z"/>
      <path class="cls-4" d="M301.58,182.73s-.02.02,0,.02c.01,0,.02-.02,0-.02Z"/>
      <path class="cls-4" d="M355.14,194.2c-7.4,5.31-15.11,9.95-23.22,14.14-8.28,4.27-16.78,8.48-26,10.28-8.67,1.69-19.3,1.15-26.4-4.75-6.08-5.06-5.73-13.73-1.63-19.94,4.82-7.29,13.44-9.31,21.53-10.8-.46-.34-.89-.71-1.32-1.1-7.26.58-14.89,3.49-19.72,8.84-4.84,5.35-6.97,14.03-3.08,20.5,2.29,3.81,6.37,6.17,10.42,7.68,4.57,1.71,9.48,2.32,14.33,2.09,9.88-.47,19.12-4.36,27.87-8.69,10.12-5,20.44-10.37,29.24-17.51.12-.1.2-.22.24-.34-.76-.14-1.52-.27-2.28-.4Z"/>
      <path class="cls-4" d="M311.08,200.54c-1.68-.09-3.35-.31-4.99-.67-3.2-.7-6.25-2.01-8.96-3.87-2.3-1.58-4.34-3.59-5.94-5.87-.79-1.13-1.49-2.34-2.06-3.6-.24-.53-.49-1.08-.73-1.63-.25.11-.5.22-.74.33.12.46.27.92.47,1.39.55,1.31,1.23,2.57,2.02,3.76,1.63,2.44,3.69,4.55,6.06,6.27,2.76,2,5.94,3.39,9.21,4.31,1.47.41,2.97.71,4.48.91.45-.46.91-.9,1.39-1.33-.07,0-.14,0-.21,0Z"/>
      <path class="cls-4" d="M324.7,237.59c-.93,1.29-1.11,3.07-1.63,4.56-.46,1.31-1.04,3.63-2.63,3.95-3.29.67-4.3-4.17-4.17-6.46.15-2.71,1.22-5.69,3.18-7.63,2.25-2.22,5.42-1.96,8.13-.76,1.27.57,2.48,1.34,3.39,2.4.4.46.65,1.08.95,1.66.46-.33.93-.66,1.4-.97-.23-.51-.56-1-.83-1.35-.96-1.27-2.29-2.27-3.71-2.98-3.2-1.59-7.08-2.09-10,.33-2.66,2.21-4.02,5.97-4.21,9.34-.18,3.26,1.27,7.81,5.11,8.12,2.16.18,3.42-1.32,4.21-3.15.48-1.13.91-2.29,1.27-3.47.35-1.16.7-2.3.41-3.51-.11-.44-.65-.4-.87-.1Z"/>
      <path class="cls-4" d="M341.41,256.45c-.58.27-1.01.79-1.5,1.2-.52.44-1.09.81-1.69,1.12-1.28.67-2.87,1.15-4.33,1.02-2.74-.24-5.44-1.76-7.03-4.01-.81-1.14-1.65-2.79-1.32-4.23.3-1.29,1.65-1.87,2.87-1.89,1.45-.02,2.67.75,3.67,1.75.95.96,1.6,2.52,2.78,3.2.41.24,1.06-.09.99-.6-.17-1.37-1.38-2.67-2.29-3.64-.94-1.01-2.11-1.89-3.45-2.27-2.31-.66-5.26.16-6.15,2.57-1,2.71.93,5.96,2.88,7.75,2.17,1.99,4.8,2.74,7.69,2.48,1.48-.13,2.91-.54,4.22-1.25,1.1-.6,2.73-1.62,3.02-2.94.05-.22-.18-.36-.37-.27Z"/>
      <path class="cls-4" d="M336.27,263.14c-1.83.26-3.67.64-5.52.56-1.93-.08-3.96-.74-5.58-1.8-1.45-.94-2.96-2.6-2.82-4.46.06-.84.54-1.67,1.22-2.17.57-.41,1.32-.33,1.84-.8.21-.19.14-.48-.01-.67-.55-.69-1.69-.33-2.34.04-.85.48-1.5,1.29-1.87,2.19-.84,2.08.12,4.3,1.62,5.8,3.26,3.26,9.65,4.08,13.49,1.4.04-.03.03-.11-.03-.1Z"/>
      <path class="cls-4" d="M332.22,266.02c-1.58.52-3.08,1.02-4.76,1.07-1.61.05-3.35-.3-4.77-1.07-1.51-.82-2.95-2.23-3.29-3.98-.19-.95.06-1.93.83-2.56.63-.52,1.37-.32,2.01-.72.2-.12.29-.41.15-.61-1.17-1.74-3.65.62-4.1,1.85-.83,2.24.64,4.47,2.32,5.83,3.07,2.48,8.71,3.63,11.74.4.09-.09,0-.25-.13-.21Z"/>
      <path class="cls-4" d="M324.14,267.05c-.7.56-1.33,1.16-2.29,1.42-1.43.4-2.98.08-4.18-.78-1.22-.88-2.67-3.11-.71-4.04,1.16-.55,2.15.09,3.03.8.01.01.03.02.05.03-.4-.59-.59-1.24-.62-1.9-.69-.37-1.61-.47-2.31-.35-2.27.42-3.07,2.78-1.98,4.69,1.12,1.95,3.38,3.18,5.62,3.13,1.58-.03,4.15-.91,4.87-2.57-.5-.11-.99-.25-1.48-.45Z"/>
      <path class="cls-4" d="M346.75,252.79c.22-1,.58-2.34-.22-3.14-.31-.31-.79-.27-1.1.02-.69.63-.51,1.68-.58,2.55-.1,1.12-.23,2.23-.56,3.31-.64,2.09-1.89,4.1-3.36,5.7-1.29,1.4-2.82,2.54-4.51,3.41-1.8.92-3.77,1.31-5.64,2.03-.09.04-.11.19,0,.21,3.94.62,8.35-2.14,11.01-4.82,1.66-1.67,2.88-3.67,3.78-5.84.46-1.12.93-2.25,1.18-3.44Z"/>
      <path class="cls-4" d="M371.31,231.4c.97-5.13-1.7-11.08-6.76-12.94-6.38-2.35-12.79,2.06-17.81,5.51-3.9,2.68-7.78,5.39-11.66,8.12-1.97,1.38-3.94,2.75-5.88,4.17-1.85,1.36-3.57,2.82-5.34,4.28-.04.03.01.1.06.07,1.72-.98,3.47-1.89,5.13-2.96,1.6-1.03,3.19-2.09,4.77-3.15,3.22-2.17,6.44-4.35,9.65-6.53,2.84-1.92,5.61-3.98,8.56-5.73,2.64-1.56,5.58-2.93,8.7-2.97,5.78-.08,9.68,5.24,9.31,10.75-.2,3-1.9,5.46-4.16,7.36-2.49,2.08-5.54,3.68-8.39,5.21-7.5,4.03-15.32,7.48-23.1,10.89-1.32.58-.52,2.46.81,1.82,3.67-1.76,7.31-3.64,10.95-5.47,3.65-1.83,7.19-3.88,10.82-5.75,5.52-2.85,13.03-5.78,14.34-12.68Z"/>
      <path class="cls-4" d="M366.25,236.55c-1.16.12-2.11.81-3.26,1.04-1.25.25-2.57.12-3.78-.26-2.64-.83-4.68-2.7-5.71-5.27-1.02-2.55-.95-5.43.38-7.86,1.38-2.51,3.66-3.86,6.19-5,.26-.12.09-.49-.14-.49-4.96-.07-8.54,5.49-8.46,10,.09,4.8,3.59,9.75,8.43,10.68,2.09.4,6.14.32,6.82-2.26.07-.28-.17-.62-.47-.59Z"/>
      <path class="cls-4" d="M363.11,224.32c-2.98.08-5.01,3.34-3.61,6,.76,1.44,2.4,2.32,4.02,1.92.54-.13,1.08-.41,1.51-.79.58-.29,1.08-.72,1.42-1.3,1.43-2.39-.54-5.9-3.35-5.83ZM364.51,227.91c.04.13.07.25.07.37-.17.05-.33.13-.46.24-.4.33-.74,1.03-1.31,1.1-.13-.03-.26-.08-.39-.15-.32-.18-.52-.42-.61-.7-.06-.23-.07-.46-.01-.66.35-1.3,2.23-1.57,2.71-.21Z"/>
      <path class="cls-4" d="M315.45,264.5c-.11-.1-.26-.18-.45-.22-4.38-.75-7.87-4.47-7.99-8.99-.03-1.26.18-2.5,1.18-3.36,1.05-.92,2.34-1.64,3.49-2.42,1.21-.82,2.44-1.63,3.64-2.47.51-.36,1.08-.73,1.6-1.15-.17-.32-.31-.65-.4-1.01-.9.44-1.75,1.09-2.52,1.6-1.46.96-2.91,1.92-4.37,2.88-1.08.71-2.4,1.39-3.15,2.48-.75,1.09-.9,2.51-.84,3.8.24,4.89,4.1,9.5,8.9,10.5.26.05.49,0,.67-.11,0-.51.07-1.02.24-1.52Z"/>
      <path class="cls-4" d="M307.83,251.05c-1.27.81-2.3,1.95-3.34,3.02-1.16,1.19-2.31,2.4-3.41,3.65-1.06,1.2-2.09,2.42-3.1,3.66-.78.96-2.19,2.17-2.28,3.46-.02.26.29.46.53.38,1.2-.42,2.06-2.11,2.84-3.07,1.01-1.24,2.05-2.46,3.11-3.66,1.06-1.2,2.12-2.39,3.22-3.56,1.03-1.09,2.15-2.12,2.99-3.36.22-.33-.23-.73-.55-.53Z"/>
      <path class="cls-4" d="M315.11,264.81c-1.15-.04-2.31.21-3.46.36-1.61.21-3.23.42-4.84.64-2.94.4-5.88.75-8.82,1.15-.07-1.03-.4-2.03-1.02-2.86-.64-.84-2-.09-1.44.87.56.95.85,1.85.79,2.96-.03.6.59.85,1.07.78,3.2-.52,6.4-1.12,9.61-1.64,1.53-.25,3.07-.52,4.6-.78,1.21-.21,2.47-.31,3.63-.71-.07-.24-.11-.49-.14-.75Z"/>
      <path class="cls-4" d="M298.12,267.15c-.93-.23-1.68.57-2.4,1.08-.97.7-1.95,1.39-2.92,2.09-.81.58-1.61,1.23-2.5,1.67-.77.38-2.38.68-2.64-.55-.15-.71,1.66-1.68,2.18-2.07.88-.65,1.72-1.34,2.62-1.96,1.37-.93,2.79-1.77,4.17-2.68,0-.32.06-.65.21-.94.08-.15.16-.3.25-.45-2.44,1.09-4.59,2.66-6.9,4.01-1.19.7-2.62,1.57-3.6,2.54-.67.67-.7,1.69-.23,2.51,1.21,2.12,3.72,1.63,5.45.53,1.33-.85,2.59-1.83,3.88-2.75.93-.67,2.64-1.4,2.76-2.66.02-.18-.16-.36-.32-.4Z"/>
      <path class="cls-4" d="M364.47,207.31c.5-4.16.38-8.38-.86-12.4-.03-.09-.17-.07-.16.03.4,4.14.55,8.36-.08,12.49-.3,1.97-.74,3.92-1.41,5.79-.38,1.05-.82,2.08-1.26,3.11-.34.79-.85,1.51-.66,2.39.07.35.49.43.76.29.82-.41,1.08-1.47,1.4-2.28.39-.99.7-2,.98-3.03.57-2.1,1.04-4.23,1.3-6.39Z"/>
      <path class="cls-4" d="M400.58,216.67c.06-.36-.43-.48-.55-.14-1.87,5.44-3.06,11.09-4.89,16.56-1.83,5.46-4.08,10.81-7.12,15.72-2.95,4.77-6.62,9.82-12.2,11.56-2.64.82-5.42,1.25-8.13,1.74-3.03.56-6.06,1.03-9.12,1.34-3.22.33-6.45.5-9.68.39-2.91-.1-5.73-.52-8.56-1.1-.54.53-1.14,1-1.75,1.47,5.82,1.5,12.16,1.38,18.09.78,5.92-.6,11.93-1.61,17.72-2.99,2.75-.66,5.26-1.72,7.42-3.57,2.17-1.86,3.96-4.21,5.59-6.55,3.31-4.76,5.77-10.05,7.76-15.49,1.17-3.21,2.17-6.47,3.08-9.76.91-3.29,1.8-6.59,2.35-9.96Z"/>
      <path class="cls-4" d="M468.11,189.13c1.08-4.79,1.5-9.75,1.2-14.66-.59-9.61-3.96-18.88-10.01-26.4-3.3-4.11-7.33-7.64-11.85-10.37-2-1.21-4.16-2.39-6.41-3.32-.17.67-.39,1.32-.65,1.96,1.67.6,3.31,1.3,4.91,2.17,4,2.18,7.62,5.1,10.71,8.45,6.33,6.84,10.22,15.59,11.31,24.83.56,4.73.43,9.53-.36,14.23-.39,2.27-.92,4.52-1.61,6.73-.34,1.1-.72,2.19-1.14,3.27-.44,1.14-.87,2.46-1.59,3.46-.72,1-1.93,1.31-3.04,1.68-1.41.48-2.81.96-4.22,1.43-2.75.93-5.48,1.9-8.22,2.87-5.41,1.9-10.81,3.83-16.23,5.68-6.11,2.09-12.21,4.18-18.32,6.27-4.26,1.46-8.55,2.75-12.87,3.95-.08.34-.16.68-.26,1.02,4.07-.77,8.08-2.08,11.97-3.36,5.69-1.87,11.35-3.8,17.02-5.72,5.76-1.94,11.54-3.84,17.32-5.73,2.89-.95,5.79-1.87,8.67-2.84,1.41-.48,2.81-.95,4.22-1.43,1.24-.42,2.57-.75,3.73-1.38,2.01-1.08,2.73-3.49,3.5-5.48.91-2.37,1.66-4.8,2.21-7.28Z"/>
      <path class="cls-4" d="M570.46,113.14c-.16-.07-.31-.14-.47-.22-.69,1.89-1.24,3.83-1.87,5.75-.75,2.31-1.53,4.6-2.33,6.89-1.6,4.55-3.52,9.1-5.56,13.48-.97,2.08-2.13,4.08-3.74,5.74-1.58,1.63-3.45,2.94-5.31,4.22-3.79,2.6-7.66,5.07-11.6,7.43-7.89,4.74-16.04,8.99-24.29,13.05-4.19,2.06-8.4,4.09-12.62,6.09-4.29,2.04-8.54,4.19-12.9,6.09-4.87,2.13-9.9,3.65-15.03,5.02-2.5.67-5.01,1.33-7.51,2.01-.16.81-.3,1.62-.44,2.43,2.32-.63,4.64-1.28,6.96-1.92,4.73-1.32,9.46-2.63,14.01-4.48,4.4-1.78,8.65-3.91,12.92-5.98,4.26-2.06,8.49-4.17,12.71-6.31,8.37-4.25,16.66-8.68,24.74-13.45,4.01-2.37,7.96-4.84,11.83-7.44,3.62-2.44,7.35-4.86,9.72-8.62,1.34-2.13,2.28-4.48,3.18-6.82.99-2.58,1.89-5.19,2.74-7.82,1.62-5,3.74-9.98,4.85-15.14Z"/>
      <path class="cls-4" d="M490.01,110.03c-.61-2.38-1.98-4.38-3.17-6.51-1.22-2.18-2.4-4.39-3.56-6.61-1.13-2.16-2.21-4.34-3.26-6.53-1.03-2.17-1.85-4.6-3.36-6.49-.09-.12-.31-.01-.29.13.25,2.35,1.42,4.57,2.35,6.72.99,2.29,2.03,4.57,3.1,6.82,1.08,2.26,2.22,4.49,3.41,6.7,1.19,2.2,2.25,4.46,4.1,6.18.3.28.77-.01.67-.4Z"/>
      <path class="cls-4" d="M493.82,110.34c-.32-1.42-1.5-2.63-2.34-3.79-.64-.89-1.4-2.39-2.49-2.73-.08-.02-.14.05-.15.12-.06,1.22,1.25,2.58,1.9,3.54.76,1.12,1.44,2.49,2.6,3.24.26.17.54-.12.48-.38Z"/>
      <path class="cls-4" d="M485.47,102.08c-3.18-.1-6.41.11-9.57.29-3.79.21-7.58.54-11.34,1.01-3.76.46-7.51,1-11.26,1.59-1.75.27-3.49.57-5.22.93-.23.05-.46.09-.7.14-.04.63-.1,1.25-.18,1.86.4-.11.79-.23,1.18-.32,1.84-.44,3.68-.89,5.53-1.31,3.66-.83,7.35-1.46,11.07-1.93,3.64-.46,7.29-.81,10.95-1.05,3.27-.21,6.55-.19,9.81-.34-.09-.29-.18-.57-.27-.86Z"/>
      <path class="cls-4" d="M520.84,104.92c.44,3.52-.48,7.33-1.24,10.75-.81,3.65-2.1,7.16-2.96,10.79.5-.16,1-.3,1.51-.42,1.36-2.76,2.15-5.76,2.87-8.76.86-3.58,1.73-7.43,1.66-11.13-.07-3.67-2.04-6.39-4.11-9.24-2.41-3.32-4.94-6.55-7.36-9.86-2.33-3.18-4.58-6.46-7.12-9.48-.2.02-.39.05-.59.07,1.74,2.9,3.74,5.65,5.68,8.42,2.22,3.18,4.47,6.34,6.6,9.58,1.89,2.87,4.62,5.76,5.06,9.29Z"/>
      <path class="cls-4" d="M546.28,99.73c-2.56,3.52-5.16,7.01-7.64,10.59-1.24,1.79-2.47,3.57-3.71,5.35-1.19,1.71-2.29,3.62-3.7,5.16-1.37,1.49-3.29,1.88-5.16,2.38-2.11.56-4.22,1.1-6.34,1.64-4.23,1.09-8.45,2.17-12.68,3.26-2.32.6-4.64,1.19-6.95,1.79-2.04.52-4.38.83-6.35,1.69.53.48,1,1.02,1.43,1.59,1.57-.29,3.15-.86,4.64-1.25,2.18-.56,4.36-1.12,6.55-1.68l13.3-3.41c2.18-.56,4.36-1.13,6.55-1.67,1.78-.44,3.79-.75,5.29-1.9,1.55-1.19,2.51-3.03,3.54-4.65,1.2-1.89,2.4-3.77,3.61-5.65,2.75-4.29,5.39-8.65,8.04-13,.16-.26-.23-.45-.4-.22Z"/>
      <path class="cls-4" d="M504.46,146.3c-.39-.81-.56-1.7-.95-2.52-.37-.78-.83-1.53-1.26-2.28-.88-1.5-1.9-2.92-2.95-4.3-2.05-2.69-4.37-5.18-6.82-7.5-5.06-4.79-10.79-8.88-16.78-12.42-1.68-.99-3.38-1.94-5.11-2.83-1.69-.87-3.51-1.88-5.44-1.96-.44-.02-.57.54-.32.82,1.11,1.2,2.69,1.94,4.13,2.66,1.53.77,3.06,1.57,4.57,2.39,2.97,1.61,5.87,3.36,8.66,5.25,5.6,3.79,10.77,8.28,15.11,13.48,1.26,1.51,2.44,3.07,3.57,4.67.52.74,1.03,1.48,1.54,2.23.57.84,1.33,1.58,1.83,2.46.09.17.33.02.25-.15Z"/>
      <path class="cls-4" d="M476.8,84.94s-.02.01,0,.02c.01,0,.02-.01,0-.02Z"/>
      <path class="cls-4" d="M524.55,67.12c-1.39-1.35-3.1-2.32-4.89-3.02-4.15-1.63-8.84-2.11-13.27-2.13-8.78-.04-18.25,2.14-25.28,7.62-3.48,2.72-6.38,6.4-7.2,10.82-.26,1.39-.51,4.14,1.43,4.49.47.09.88-.05,1.25-.28.07.04.16.03.23-.05.19-.2.38-.4.57-.6.07-.06.14-.13.2-.19.71-.67,1.42-1.33,2.11-2.01,5.7-5,12.84-8.34,20.26-9.69,4.92-.9,9.9-1.13,14.88-.72,2.5.21,4.94.64,7.41,1.06,1.31.22,3.41.31,4.14-1.1.78-1.51-.86-3.24-1.85-4.2ZM525.16,70.65c-.37.63-1.74.51-2.32.43-2.05-.27-4.06-.72-6.12-.95-2.1-.23-4.2-.37-6.31-.38-4.26-.03-8.55.39-12.69,1.46-4.07,1.05-8.04,2.65-11.66,4.78-1.78,1.05-3.47,2.23-5.06,3.53-.1.08-.19.16-.28.24-.17-.08-.39-.07-.57.09-.84.73-1.65,1.49-2.46,2.26-.64.61-2.2,2.57-2.73.89-.53-1.65.36-4.01,1.04-5.52,1.58-3.49,4.42-6.26,7.59-8.33,6.84-4.45,15.51-6.18,23.58-5.99,4.02.09,8.28.57,12.05,2.07,1.73.69,3.38,1.66,4.68,3.01.43.45,1.69,1.69,1.28,2.38Z"/>
      <path class="cls-4" d="M525.57,70.94c-1.1,3.57-5.14,4.79-8.51,5.03-3.38.23-6.75.16-10.13.56-6.61.78-13.12,2.5-19.23,5.13-3.32,1.43-6.49,3.12-9.52,5.08-.73-1.01-1.52-1.93-2.33-2.88-.21-.25-.56.08-.43.34.64,1.29,1.25,2.53,2.04,3.74.18.28.58.41.88.22,5.97-3.81,12.46-6.8,19.3-8.67,3.45-.95,6.98-1.59,10.54-1.95,3.55-.36,7.18-.09,10.7-.64,3.35-.52,6.63-2.27,7.69-5.7.2-.64-.81-.89-1.01-.25Z"/>
      <path class="cls-4" d="M599.16,108.6c-.97,1.33-1.87,2.54-3.33,3.39-1.47.85-3.33,1.22-4.99,1.48-3.75.58-7.61.63-11.38.33-7.71-.61-15.23-2.95-22-6.66-1.86-1.02-3.65-2.14-5.38-3.37-1.72-1.23-3.31-2.91-5.21-3.85-.19-.1-.41.11-.29.3,1.01,1.69,2.87,2.96,4.41,4.12,1.59,1.19,3.25,2.3,4.96,3.31,3.49,2.06,7.24,3.7,11.1,4.93,7.66,2.45,16.09,3.36,24.06,2.1,3.34-.53,8.32-1.86,9.51-5.5.3-.92-.98-1.24-1.47-.58Z"/>
      <path class="cls-4" d="M546.26,100.4s-.02.02,0,.02c.01,0,.02-.02,0-.02Z"/>
      <path class="cls-4" d="M600.26,106.43c-.55-1.38-2.04-2.37-3.3-3.02-1.62-.83-3.4-1.33-5.14-1.84-1.87-.56-3.75-1.07-5.64-1.54-3.85-.95-7.75-1.72-11.67-2.29-8.79-1.29-17.71-1.67-26.57-1.12-.78.05-.95.96-.56,1.4-.08.05-.15.12-.21.2-.45.65-.89,1.3-1.31,1.98-.28.44.4.96.74.55.41-.49.8-1,1.18-1.5,12.05,7.95,26.84,11.86,41.23,11.53,1.82-.04,3.63-.15,5.44-.34,1.45-.15,3.13-.17,4.46-.85,1.16-.6,1.86-1.87,1.36-3.14ZM598.65,108.17c-.45.59-1.52.66-2.19.75-.87.12-1.74.21-2.61.3-1.68.16-3.37.26-5.06.3-6.71.15-13.43-.64-19.93-2.34-7.27-1.9-14.18-5.01-20.56-8.95,14.33-.87,28.75.8,42.52,4.91,1.61.48,3.25.94,4.79,1.61.97.43,4.13,2.03,3.05,3.43Z"/>
    </g>
  </g>
  <path class="cls-11" d="M455.49,25.46c-2.39,0-4.7-.11-6.73-.33-1-.11-1.82-.83-2.07-1.8-1.6-6.34-.12-13.54,4.07-19.75.52-.77,2.09-3.1,4.96-3.51,2.56-.37,4.7.94,6.09,1.95,5.64,4.12,8.97,10.61,11.4,15.36.42.82.82,1.6,1.21,2.32,0,0,0,0,0,0,.45.84.37,1.88-.21,2.63-.32.41-1.01,1.04-2.22.92-3.81,1.49-10.42,2.21-16.5,2.21ZM472.65,22.97s0,0,0,0c0,0,0,0,0,0ZM451.03,20.5c6.05.43,13.53-.12,17.73-1.26-2.3-4.5-5.18-9.98-9.79-13.34-1.12-.82-1.96-1.17-2.57-1.08-.52.08-1.03.52-1.66,1.44-3.01,4.46-4.35,9.66-3.72,14.24Z"/>
  <path class="cls-8" d="M498.82,384.23c-.24,0-.48-.01-.72-.04-2.98-.35-4.63-2.77-5.18-3.57-3.71-5.43-4.18-12.48-4.52-17.63-.06-.88-.11-1.72-.18-2.5-.08-.89.35-1.77,1.1-2.26.49-.32,1.25-.58,2.22-.21,5.8-.61,16.42,1.61,22.76,4.12,1.06.42,1.68,1.52,1.48,2.64-1.09,6.34-5.41,12.7-11.84,17.44-1.2.88-2.98,2-5.14,2ZM493.21,362.74c.32,4.84.73,10.84,3.68,15.17.67.97,1.21,1.44,1.77,1.5.79.09,1.77-.56,2.45-1.05,4.68-3.45,8.12-7.99,9.49-12.45-5.68-1.93-13.07-3.28-17.39-3.17Z"/>
</svg>