<?xml version="1.0" encoding="UTF-8"?>
<svg id="_レイヤー_2" data-name="レイヤー 2" xmlns="http://www.w3.org/2000/svg" viewBox="0 0 155.4 113.88">
  <defs>
    <style>
      .cls-1 {
        fill: #fff;
      }

      .cls-2 {
        fill: #70b1d4;
      }
    </style>
  </defs>
  <g id="_1" data-name="1">
    <g>
      <rect class="cls-1" x="1.12" y="1.12" width="153.16" height="104.63" rx="16.19" ry="16.19"/>
      <g>
        <path class="cls-2" d="M17.31,0h120.77c4.76,0,9.1,1.95,12.23,5.09,3.13,3.13,5.09,7.47,5.09,12.23v72.24c0,4.76-1.95,9.1-5.09,12.23-3.13,3.13-7.47,5.09-12.23,5.09H38.86c-.62,0-1.12-.5-1.12-1.12s.5-1.12,1.12-1.12h0s99.22,0,99.22,0c4.14,0,7.91-1.69,10.65-4.43,2.74-2.74,4.43-6.5,4.43-10.65V17.31c0-4.14-1.69-7.91-4.43-10.65-2.74-2.74-6.5-4.43-10.65-4.43H17.31c-4.14,0-7.91,1.69-10.65,4.43-2.74,2.74-4.43,6.5-4.43,10.65v72.24c0,4.14,1.69,7.91,4.43,10.65,2.74,2.74,6.5,4.43,10.65,4.43h12.03c.62,0,1.12.5,1.12,1.12s-.5,1.12-1.12,1.12h-12.03c-4.76,0-9.1-1.95-12.23-5.09C1.95,98.65,0,94.32,0,89.56V17.31c0-4.76,1.95-9.1,5.09-12.23C8.22,1.95,12.55,0,17.31,0Z"/>
        <path class="cls-2" d="M36.86,113.75c.55-.28.77-.96.48-1.51l-5.08-9.89c-.28-.55-.96-.77-1.51-.48s-.77.96-.48,1.51l5.08,9.89c.28.55.96.77,1.51.48Z"/>
      </g>
    </g>
  </g>
</svg>