<?xml version="1.0" encoding="UTF-8"?>
<svg id="_レイヤー_2" data-name="レイヤー 2" xmlns="http://www.w3.org/2000/svg" viewBox="0 0 551.04 74">
  <defs>
    <style>
      .cls-1 {
        fill-rule: evenodd;
      }

      .cls-1, .cls-2 {
        fill: #e48038;
      }

      .cls-3 {
        fill: #fff;
      }

      .cls-4 {
        fill: #84bed5;
      }
    </style>
  </defs>
  <g id="Layer_1" data-name="Layer 1">
    <g>
      <g>
        <path class="cls-2" d="M312.38,47.49c1.68,2.04,3.72,3.77,11.92,5.81,1.78.46,3.51,1.02,3.51,3.46,0,1.58-.97,4.48-4.02,4.48s-14.41-3.77-19.2-12.02c-2.29,3.46-5.5,6.01-8.76,7.94-2.85,1.63-7.59,4.02-10.59,4.02s-3.97-3.05-3.97-4.58c0-.97.31-1.73.92-2.29.81-.76,1.17-.87,6.26-2.29.92-.25,5.14-1.68,8.04-4.53h-12.58c-2.8,0-3.72-1.27-3.72-3.82,0-3.31,2.65-3.41,3.72-3.41h1.63v-5.35c0-4.89,2.29-6.16,6.16-6.16h8.96c0-2.65.51-4.13,4.07-4.13s3.46,2.65,3.46,4.13h8.91c3.82,0,6.16,1.22,6.16,6.16v5.35h1.58c2.8,0,3.72,1.27,3.72,3.87,0,3.26-2.6,3.36-3.72,3.36h-12.48ZM311.1,16.74v-1.22c0-2.55,2.5-2.75,3.51-2.75,1.83,0,4.12.2,4.12,2.75v1.22h6.16c1.12,0,3.72.1,3.72,3.36,0,2.6-.92,3.87-3.72,3.87h-6.16v1.12c0,2.34-1.68,3-3.67,3-2.29,0-3.97-.66-3.97-3v-1.12h-13.49v1.12c0,2.39-2.04,3-3.56,3s-3.87-.41-3.87-3v-1.12h-6.21c-1.12,0-3.72-.1-3.72-3.41,0-2.55.87-3.82,3.72-3.82h6.21v-1.22c0-2.55,2.44-2.75,3.41-2.75,1.58,0,4.02.15,4.02,2.75v1.22h13.49ZM300.67,35.42h-6.26c-.87,0-1.43.46-1.43,1.38v3.46h7.38c.15-.66.31-1.68.31-3.16v-1.68ZM308.2,36.6c0,1.07-.1,2.49-.25,3.66h7.64v-3.46c0-.92-.51-1.38-1.37-1.38h-6.01v1.17Z"/>
        <path class="cls-2" d="M349.89,21.72c.87,0,3.11,0,3.11,2.91,0,2.19-.71,3.31-3.11,3.31h-14.1c-.97,0-3.16-.05-3.16-3.11,0-2.75,1.63-3.11,3.16-3.11,0,0,14.1,0,14.1,0ZM348.47,14.44c.86,0,3.1.05,3.1,2.85,0,2.6-1.78,2.85-3.1,2.85h-11.46c-.97,0-3.11-.05-3.11-2.8,0-2.55,1.68-2.9,3.11-2.9h11.46ZM348.16,29.46c.92,0,3.16,0,3.16,3,0,2.7-1.73,3-3.16,3h-11.1c-.86,0-3.16,0-3.16-3,0-2.75,1.88-3,3.16-3h11.1ZM348.16,37.05c.81,0,3.16,0,3.16,2.95s-2.24,3.01-3.36,3.01h-10.9c-.81,0-3.16,0-3.16-2.95s2.04-3.01,3.16-3.01h11.1ZM351.27,54.41c0,4.79-.81,5.8-5.7,5.8h-5.7c-4.84,0-5.7-.97-5.7-5.8v-4.07c0-4.94.92-5.8,5.75-5.8h5.55c4.79,0,5.81.82,5.81,5.8v4.07h0ZM345.06,50.95c0-.56-.31-.92-.92-.92h-2.14c-.66,0-.97.36-.97.92v2.7c0,.61.35.97.97.97h2.14c.61,0,.92-.41.92-.97v-2.7ZM371.69,23.15c4.94,0,6.06,1.27,6.06,6.11v3.66h.76c2.29,0,2.8,1.63,2.8,3.01,0,3.01-1.83,3.21-3.16,3.21h-23.37c-.81,0-3.21,0-3.21-2.95,0-2.55,1.22-3.26,3.21-3.26h2.75c.05-.1.56-1.78,1.07-4.17h-1.73c-.71,0-3.1,0-3.1-2.75s2.34-2.85,3.1-2.85h3.01c.2-.97.25-1.53.41-2.6h-4.33c-.81,0-3.21,0-3.21-3.05s2.34-3.1,3.21-3.1h21.39c.81,0,3.21,0,3.21,3.05s-2.34,3.11-3.21,3.11h-9.62c-.2,1.17-.25,1.27-.51,2.6h4.48,0ZM378.87,53.75c0,5.4-1.02,6.47-6.42,6.47h-11.92c-5.4,0-6.47-1.02-6.47-6.47v-5.7c0-5.4,1.02-6.42,6.47-6.42h11.92c5.35,0,6.42.97,6.42,6.42v5.7ZM371.58,49.17c0-.92-.76-1.27-1.22-1.27h-7.79c-.51,0-1.27.36-1.27,1.27v3.41c0,.81.71,1.27,1.27,1.27h7.79c.41,0,1.22-.31,1.22-1.27v-3.41ZM365.98,28.75c-.2,1.02-.51,2.24-1.02,4.17h5.4v-2.95c0-1.07-.87-1.22-1.22-1.22h-3.16Z"/>
        <path class="cls-2" d="M312.38,47.49c1.68,2.04,3.72,3.77,11.92,5.81,1.78.46,3.51,1.02,3.51,3.46,0,1.58-.97,4.48-4.02,4.48s-14.41-3.77-19.2-12.02c-2.29,3.46-5.5,6.01-8.76,7.94-2.85,1.63-7.59,4.02-10.59,4.02s-3.97-3.05-3.97-4.58c0-.97.31-1.73.92-2.29.81-.76,1.17-.87,6.26-2.29.92-.25,5.14-1.68,8.04-4.53h-12.58c-2.8,0-3.72-1.27-3.72-3.82,0-3.31,2.65-3.41,3.72-3.41h1.63v-5.35c0-4.89,2.29-6.16,6.16-6.16h8.96c0-2.65.51-4.13,4.07-4.13s3.46,2.65,3.46,4.13h8.91c3.82,0,6.16,1.22,6.16,6.16v5.35h1.58c2.8,0,3.72,1.27,3.72,3.87,0,3.26-2.6,3.36-3.72,3.36h-12.48ZM311.1,16.74v-1.22c0-2.55,2.5-2.75,3.51-2.75,1.83,0,4.12.2,4.12,2.75v1.22h6.16c1.12,0,3.72.1,3.72,3.36,0,2.6-.92,3.87-3.72,3.87h-6.16v1.12c0,2.34-1.68,3-3.67,3-2.29,0-3.97-.66-3.97-3v-1.12h-13.49v1.12c0,2.39-2.04,3-3.56,3s-3.87-.41-3.87-3v-1.12h-6.21c-1.12,0-3.72-.1-3.72-3.41,0-2.55.87-3.82,3.72-3.82h6.21v-1.22c0-2.55,2.44-2.75,3.41-2.75,1.58,0,4.02.15,4.02,2.75v1.22h13.49ZM300.67,35.42h-6.26c-.87,0-1.43.46-1.43,1.38v3.46h7.38c.15-.66.31-1.68.31-3.16v-1.68ZM308.2,36.6c0,1.07-.1,2.49-.25,3.66h7.64v-3.46c0-.92-.51-1.38-1.37-1.38h-6.01v1.17Z"/>
        <path class="cls-2" d="M349.89,21.72c.87,0,3.11,0,3.11,2.91,0,2.19-.71,3.31-3.11,3.31h-14.1c-.97,0-3.16-.05-3.16-3.11,0-2.75,1.63-3.11,3.16-3.11,0,0,14.1,0,14.1,0ZM348.47,14.44c.86,0,3.1.05,3.1,2.85,0,2.6-1.78,2.85-3.1,2.85h-11.46c-.97,0-3.11-.05-3.11-2.8,0-2.55,1.68-2.9,3.11-2.9h11.46ZM348.16,29.46c.92,0,3.16,0,3.16,3,0,2.7-1.73,3-3.16,3h-11.1c-.86,0-3.16,0-3.16-3,0-2.75,1.88-3,3.16-3h11.1ZM348.16,37.05c.81,0,3.16,0,3.16,2.95s-2.24,3.01-3.36,3.01h-10.9c-.81,0-3.16,0-3.16-2.95s2.04-3.01,3.16-3.01h11.1ZM351.27,54.41c0,4.79-.81,5.8-5.7,5.8h-5.7c-4.84,0-5.7-.97-5.7-5.8v-4.07c0-4.94.92-5.8,5.75-5.8h5.55c4.79,0,5.81.82,5.81,5.8v4.07h0ZM345.06,50.95c0-.56-.31-.92-.92-.92h-2.14c-.66,0-.97.36-.97.92v2.7c0,.61.35.97.97.97h2.14c.61,0,.92-.41.92-.97v-2.7ZM371.69,23.15c4.94,0,6.06,1.27,6.06,6.11v3.66h.76c2.29,0,2.8,1.63,2.8,3.01,0,3.01-1.83,3.21-3.16,3.21h-23.37c-.81,0-3.21,0-3.21-2.95,0-2.55,1.22-3.26,3.21-3.26h2.75c.05-.1.56-1.78,1.07-4.17h-1.73c-.71,0-3.1,0-3.1-2.75s2.34-2.85,3.1-2.85h3.01c.2-.97.25-1.53.41-2.6h-4.33c-.81,0-3.21,0-3.21-3.05s2.34-3.1,3.21-3.1h21.39c.81,0,3.21,0,3.21,3.05s-2.34,3.11-3.21,3.11h-9.62c-.2,1.17-.25,1.27-.51,2.6h4.48,0ZM378.87,53.75c0,5.4-1.02,6.47-6.42,6.47h-11.92c-5.4,0-6.47-1.02-6.47-6.47v-5.7c0-5.4,1.02-6.42,6.47-6.42h11.92c5.35,0,6.42.97,6.42,6.42v5.7ZM371.58,49.17c0-.92-.76-1.27-1.22-1.27h-7.79c-.51,0-1.27.36-1.27,1.27v3.41c0,.81.71,1.27,1.27,1.27h7.79c.41,0,1.22-.31,1.22-1.27v-3.41ZM365.98,28.75c-.2,1.02-.51,2.24-1.02,4.17h5.4v-2.95c0-1.07-.87-1.22-1.22-1.22h-3.16Z"/>
        <path class="cls-2" d="M417.77,34.27c1.42,0,2.84.53,2.84,2.7,0,1.77-.89,2.75-2.84,2.75h-11.48v11.44c0,1.82-.84,2.84-2.66,2.84-1.24,0-2.75-.4-2.75-2.84v-11.44h-11.48c-1.46,0-2.84-.58-2.84-2.7,0-1.82.89-2.75,2.84-2.75h11.48v-11.48c0-1.82.89-2.79,2.66-2.79,1.15,0,2.75.31,2.75,2.79v11.48h11.48Z"/>
        <path class="cls-2" d="M434.73,16.7c-.1-.24-.19-.51-.34-.82-.22-.51-.34-.8-.34-1.16,0-1.4,1.88-1.57,2.37-1.57.68,0,1.4.1,2.13,2.12.14.36.34,1.04.29,1.42h1.88c.34-.65.56-1.09.84-1.84.39-.99.68-1.57,1.88-1.57.82,0,2.32.39,2.32,1.74,0,.46-.15.7-.72,1.69,1.3.22,2.27.77,2.27,2.99v1.59c0,1.59-.8,1.96-1.98,1.96-.29,0-.65-.02-.94-.12-.07,1.18-.77,1.67-1.45,2.1-1.43.89-2.13,1.21-2.94,1.57h6.08c.43,0,1.93,0,1.93,1.79,0,1.67-1.21,1.84-1.93,1.84h-7.51v2.7c0,2.99-1.42,3.16-4.37,3.16-.99,0-2.44,0-2.97-.12-.99-.24-1.18-1.4-1.18-1.93,0-1.67,1.26-1.81,1.86-1.81.27,0,1.38.02,1.62.02.72-.02.77-.29.77-.97v-1.06h-7.56c-.55,0-1.95-.05-1.95-1.81,0-1.5.94-1.81,1.95-1.81h7.56c0-.34,0-.82.92-1.09.34-.1,1.42-.55,1.42-.8,0-.19-.17-.19-.24-.19h-6.44c-.53,0-1.52,0-1.64-1.57-.17.05-.39.1-.77.1-1.33,0-2.08-.43-2.08-1.91v-1.64c0-2.1.84-2.87,2.53-2.99-.05-.1-.29-.51-.34-.6-.34-.63-.41-.92-.41-1.16,0-.94,1.11-1.64,2.32-1.64.73,0,1.3.15,2.1,1.83.22.44.46,1.04.51,1.54h2.56ZM429.42,21.35c.12-.02.34-.1.58-.1h12c.34,0,.99,0,1.33.1v-.82c0-.22-.12-.36-.36-.36h-13.15c-.24,0-.39.14-.39.36v.82h0Z"/>
        <path class="cls-2" d="M479.35,14.52c.31,0,1.62,0,1.62,1.45s-1.3,1.42-1.62,1.42h-1.47c-.14.39-.24.7-.39,1.04h3.24c.39,0,1.59,0,1.59,1.35,0,1.42-1.09,1.45-1.59,1.45h-19.89c-.34,0-1.62,0-1.62-1.38s1.26-1.42,1.62-1.42h3.38c-.1-.46-.17-.7-.27-1.04h-1.74c-.36,0-1.59,0-1.59-1.42s1.16-1.45,1.59-1.45h6.54c0-.63.17-1.5,1.86-1.5,1.5,0,2.22.32,2.22,1.5h6.52ZM472.72,29.78h6.98c.63,0,1.28.12,1.28,1.16,0,.92-.44,1.21-1.28,1.21h-6.98v.58h8.01c.43,0,1.59,0,1.59,1.4s-1.04,1.45-1.59,1.45h-19.89c-.36,0-1.62,0-1.62-1.42s1.16-1.42,1.62-1.42h8.04v-.58h-6.98c-.36,0-1.28,0-1.28-1.11,0-.82.29-1.26,1.28-1.26h6.98v-.58h-4.54c-2.68,0-3.16-.46-3.16-3.16v-1.06c0-2.68.46-3.16,3.16-3.16h12.94c2.68,0,3.16.46,3.16,3.16v1.06c0,2.68-.46,3.16-3.16,3.16h-4.56s0,.58,0,.58ZM468.88,24.59v-.77h-3.31c-.27,0-.39.14-.39.39v.39h3.69ZM468.88,26.42h-3.69v.41c0,.24.14.39.39.39h3.31v-.8ZM468.18,17.42c.12.41.14.48.31,1.01h4.66c.17-.46.17-.51.31-1.01h-5.29ZM472.72,24.58h3.74v-.39c0-.24-.12-.39-.39-.39h-3.35v.77h0ZM472.72,26.42v.8h3.35c.27,0,.39-.14.39-.39v-.41h-3.74Z"/>
        <path class="cls-2" d="M499.44,34.39c0,.46,0,1.95-1.88,1.95-1.76,0-1.93-1.21-1.93-1.95v-8.35c-1.35.24-2.44-1.01-2.44-2.36,0-.82.29-1.28.85-2.1,1.74-2.61,2.34-5.41,2.61-6.64.17-.82.41-1.64,1.83-1.64.77,0,2.1.22,2.1,1.62,0,.55-.31,2.46-1.13,4.9v14.58h0ZM501.8,27.41c-.41,0-1.93,0-1.93-1.74,0-1.38.65-1.91,1.93-1.91h4.51v-1.28h-2.17c-1.91,0-3.02-.65-3.02-2.99v-2.58c0-2.34,1.11-3.02,3.02-3.02h8.23c1.91,0,2.99.68,2.99,3.02v2.58c0,2.34-1.11,2.99-2.99,2.99h-2.29v1.28h4.49c.44,0,1.95,0,1.95,1.74,0,1.45-.72,1.91-1.95,1.91h-2.66c1.38,1.95,2.15,2.65,3.86,4.2.68.6.75,1.04.75,1.35,0,1.09-1.01,2.22-2.1,2.22-.75,0-1.16-.36-2.13-1.5-1.11-1.26-1.86-2.46-2.22-3.09v3.77c0,.46,0,1.93-1.79,1.93-1.4,0-1.98-.58-1.98-1.93v-3.6c-.55.72-1.57,2.1-3.33,3.67-.6.53-1.01.7-1.45.7-1.16,0-2.05-1.13-2.05-2.22,0-.8.48-1.21,1.23-1.74,1.55-1.11,2.39-1.74,3.91-3.77h-2.82ZM511.41,17.78c0-.39-.19-.58-.58-.58h-5.19c-.39,0-.58.19-.58.58v.89c0,.39.19.58.58.58h5.19c.39,0,.58-.19.58-.58v-.89Z"/>
        <path class="cls-2" d="M545.58,22.9c.85,0,1.33.12,1.74.31-.31-.24-.39-.29-1.54-1.28-.8.1-2.1.22-5.38.41-1.52.07-9.63.41-10.02.41-1.35,0-1.91-.46-1.91-1.79,0-1.18.58-1.57,1.71-1.62.39-.03,2.17-.03,2.58-.03.07-.1.46-.63.94-1.45h-4.2c-1.21,0-1.64-.51-1.64-1.74,0-1.54,1.18-1.54,1.64-1.54h7.8c-.07-1.13.6-1.5,2.2-1.5s2.05.48,2.05,1.5h7.85c1.21,0,1.64.51,1.64,1.74,0,1.54-1.21,1.54-1.64,1.54h-2.7c3.52,2.27,3.74,2.87,3.74,3.5,0,.97-.94,2.12-2.13,2.12-.39,0-.63-.12-.8-.19.84.55,1.08,1.35,1.08,2.61v7.34c0,.84-.1,1.91-1.01,2.56-.41.29-.75.48-3.74.48-2.49,0-3.67,0-3.67-1.88,0-1.64,1.35-1.64,1.74-1.64.12,0,1.93.05,2.03.05.36,0,.6-.03.6-.44v-.43h-10.19v2.44c0,1.23-.48,1.95-2.15,1.95-1.93,0-1.93-1.47-1.93-1.95v-8.47c0-2.37,1.11-3.02,3.02-3.02h12.29ZM534.36,26.45h10.19v-.41c0-.22-.14-.36-.39-.36h-9.44c-.24,0-.36.14-.36.36v.41h0ZM544.54,28.84h-10.19v.77h10.19v-.77ZM538.15,17.88c-.14.22-.84,1.21-.99,1.4.05,0,2.78-.05,5.14-.15-.05-.12-.12-.26-.12-.55,0-.34.1-.55.14-.7h-4.18Z"/>
        <path class="cls-2" d="M426.69,59.1c-1.38,0-1.88-1.18-1.88-2.15,0-1.11.7-1.54,1.47-1.69.94-1.47,1.26-1.96,2.53-4.08-.87-.99-1.26-1.42-2.39-2.58-1.23-1.28-1.54-1.67-1.54-2.48,0-1.28.89-2.08,1.67-2.08.22,0,.39.07.48.12.68-1.38,1.18-2.65,1.62-3.72.65-1.57,1.04-2.25,2.1-2.25,1.18,0,2.17.87,2.17,1.96,0,1.23-2.2,5-3.09,6.54.22.24.36.39.94,1.04.41-.8,1.04-2.13,1.47-2.92.19-.36.55-.99,1.52-.99.46,0,.77.14.97.22.22-1.01.77-1.47,2.03-1.47h.89v-2.58c0-.72.12-1.95,1.79-1.95,1.4,0,2.1.43,2.1,1.95v2.58h2c2.08,0,3.76,0,3.76,3.09,0,3.67-.05,7.34-.43,10.98-.43,4.08-1.33,4.51-5.05,4.51-.39,0-1.08,0-1.67-.14-.89-.19-1.4-1.09-1.4-2.05,0-1.16.63-2.05,1.69-2.05.22,0,1.21.07,1.42.07.77,0,1.01-.12,1.21-2.44.15-1.59.22-5.82.22-7.53,0-.48-.17-.48-.6-.48h-1.18c-.14,7.68-2.68,11.25-3.69,12.6-1.38,1.79-1.88,1.93-2.53,1.93-1.09,0-2.27-.73-2.27-1.91,0-.6.19-.77.73-1.5-3.11.77-6.61,1.45-7.05,1.45M430.72,54.6c.84-.12,1.71-.29,2.34-.41-.14-.63-.46-1.98-.46-2.2,0-.12,0-.27.02-.39-.97,1.54-1.13,1.79-1.91,2.99M436.75,46.53c-.19,0-.75,0-1.18-.22-.19.46-.99,2.05-2.44,4.47.55-.48,1.18-.48,1.35-.48,1.21,0,1.43.63,2.03,3.09.82-2.17,1.08-4.51,1.13-6.85h-.89Z"/>
        <path class="cls-2" d="M452.51,57c1.67-.58,3.21-1.11,4.03-3.62.58-1.83.6-1.86.87-2.12.41-.36,1.04-.39,1.28-.39.43,0,1.11.1,1.64.48.31.24.48.58.48,1.09,0,.77-.55,3.48-2.17,5.5-1.79,2.25-4.37,3.19-5.65,3.19-1.81,0-2-1.95-2-2.22,0-1.08.36-1.52,1.52-1.91M456.23,49.59c0,.51,0,1.98-1.93,1.98-1.67,0-2.17-.68-2.17-1.98v-9.54c0-.48,0-1.95,1.91-1.95,1.71,0,2.2.7,2.2,1.95v9.54ZM472.81,47.69c0,2.37-1.11,3.02-3.02,3.02h-8.67c-1.91,0-3.02-.65-3.02-3.02v-5.94c0-2.34,1.11-2.99,3.02-2.99h8.67c1.91,0,3.02.65,3.02,2.99v5.94ZM462.12,43.17h6.74v-.75c0-.22-.12-.36-.36-.36h-6.01c-.24,0-.36.14-.36.36v.75h0ZM462.12,46.21v.82c0,.22.12.36.36.36h6.01c.24,0,.36-.14.36-.36v-.82h-6.74,0ZM467.21,56.5c0,.58.34.58.72.58h1.23c.77,0,.77-.36.85-1.81.02-.85.07-1.98,1.74-1.98,2.08,0,2.08,1.33,2.08,2.2,0,1.21-.14,3.16-.65,4.2-.63,1.23-1.13,1.28-5.29,1.28-3.02,0-4.71,0-4.71-3.04v-5.09c0-.46,0-1.95,1.91-1.95,1.69,0,2.13.75,2.13,1.95v3.67h0Z"/>
        <path class="cls-2" d="M495.48,41.89c2.46,0,2.66,1.47,2.66,2.39,0,1.16-.92,7.85-6.37,12.12-3.5,2.75-8.88,3.93-10.02,3.93-1.38,0-2.05-1.13-2.05-2.27,0-1.38.72-1.54,2.27-1.88,3.6-.8,7.92-2.1,10.31-7.02.63-1.3,1.04-2.77,1.04-3.02,0-.34-.19-.34-.7-.34h-6.37c-1.57,1.98-3.02,3.26-3.86,3.89-.55.43-1.16.72-1.79.72-1.28,0-2.15-1.16-2.15-2.15,0-.8.14-.89,1.91-2.27.31-.24,2.49-1.98,4.27-5.43.58-1.13.94-1.81,2.24-1.81.85,0,2.34.44,2.34,1.62,0,.43-.1.75-.48,1.52h6.76Z"/>
        <path class="cls-2" d="M506.05,49.69c-.41,0-1.98,0-1.98-1.93,0-1.59.99-1.98,1.98-1.98h15.96c1.18,0,2.44.36,2.44,2.27,0,.94-.92,7.07-6.54,10.09-3.57,1.91-7.6,2.2-8.16,2.2-.46,0-1.13-.03-1.67-.68-.34-.43-.51-1.04-.51-1.54,0-1.47,1.08-1.69,1.69-1.76,3.84-.51,7.48-.99,9.56-4.42.46-.75.8-1.62.8-1.88,0-.32-.17-.36-.56-.36h-13.01,0ZM521.21,39.79c.43,0,1.95,0,1.95,1.96s-1.3,2-1.95,2h-13.32c-.43,0-1.96,0-1.96-1.95s1.38-2,1.96-2h13.32Z"/>
        <path class="cls-2" d="M533.03,43.8c-.92,0-2.08-.36-2.08-2.03,0-1.35.75-2.05,2.08-2.05h11.59c.99,0,2.97.07,2.97,2.37,0,1.67-1.57,5.29-3.69,8.28,2.22,1.57,3.86,2.94,5.65,4.54.92.82,1.42,1.38,1.42,2.32,0,1.35-1.18,2.41-2.46,2.41-.94,0-1.42-.53-2-1.18-1.3-1.47-3.5-3.64-5.09-5.02-2.75,2.99-7.41,6.44-9.2,6.44-1.13,0-2.05-1.16-2.05-2.34,0-.97.43-1.21,1.95-2.05,7.97-4.42,10.28-11.13,10.28-11.42,0-.27-.27-.27-.51-.27h-8.86Z"/>
      </g>
      <g>
        <path class="cls-1" d="M115.65,11.78c-.08.22-.07.86-.03,1.12.05.06.19.54.25.66.17.4.43.79.74,1.07.14.13.31.28.48.39l.05.03c.06.02.05.01.08.05.1.02.2.07.31.11.11.04.23.06.35.08.3.05.5.03.79.04.04-.03.04-.02.11-.03.14-.02.27-.09.34-.16.12-.13.13-.09.22-.3.24-.53-.14-.49-.24-.65-.03-.05-.11-.26-.15-.34-.13-.25-.26-.4-.45-.59-.1-.09-.15-.16-.26-.25-.06-.04-.07-.06-.13-.12-.05-.05-.09-.07-.14-.11-.22-.21-.91-.79-1.17-.89-.15-.06-.41-.05-.43-.06-.1-.05-.1-.17-.33-.18-.18,0-.27.09-.38.13"/>
        <path class="cls-1" d="M115.98,10.55c.08.04.04.08.09.2.03.08.07.1.15.14.12.07.39.47.8.22.31-.19.15-.15.33-.26.36-.21.43-.23.66-.51.47-.56.32-.62.69-1.08.08-.1.17-.29.25-.35.07-.04.13-.04.19-.1.06-.05.09-.11.14-.17.26-.28.32-.52.7-.31.16.09.53.41.81.07.12-.14.15-.19.15-.44v-.19c-.34-.14-1.36-.11-1.79,0-.78.2-1.68.69-2.2,1.26-.04.05-.07.08-.12.13-.31.36-.48.59-.7,1.03-.06.12-.09.24-.15.35"/>
        <path class="cls-1" d="M121.13,16.49c-.86,0-1.12-.02-1.95-.36-.33-.14-.85-.4-1.17-.58-.11-.06-.29-.18-.39-.2-.06-.02-.01,0-.06-.03l-.04-.04c.07,0,.06,0,.1.04.51.11.54.07,1.03,0h0c-.29-.02-.49,0-.78-.05-.12-.02-.24-.04-.35-.08-.11-.04-.21-.09-.31-.1-.02.01-.07.06-.07,0-.01,0-.02-.01-.04-.02-.02-.01-.01,0-.01-.01,0,0-.01,0-.02-.01-.32-.18-.6-.43-.8-.65-.12-.14-.22-.23-.32-.4-.05-.08-.21-.45-.24-.48.09.54.48,1.14.73,1.49.33.46.59.84,1.06,1.14.4.26,1.13.47,1.69.54.68.08,1.34.04,1.94-.18"/>
        <path class="cls-1" d="M115.67,10.65s.28-.59.34-.69c.66-1.2,1.57-1.91,2.91-2.34.78-.25,1.08-.1,1.88-.09-.08-.22-.53-.32-.76-.36-1.24-.19-2.37.47-3.19,1.26-.17.16-.36.41-.5.63-.24.36-.57,1.09-.67,1.59"/>
        <path class="cls-1" d="M122.75,8.59h.01c-.04-.06-.02-.04-.08-.08-.04-.04-.03-.04-.1-.06.02.03.03.05.07.08.05.03.04.02.09.07"/>
        <path class="cls-1" d="M121.5,8.28c-.07.12-.19.23-.28.35-.19.26-.16.39-.42.57-.1.07-.1.08-.17.16-.27.28-.05.11-.4.26-.59.25-.79.63-.92.71-.08.05-.15.07-.21.12-.07.06-.07.11-.14.19-.06.08-.11.08-.16.17-.13.24.03.85.14,1.06.08.15.16.26.24.42.1.18.17.21.35.31.51.3.55.09.77-.28.06-.11.09-.08.18-.15.2-.16.32-.49.43-.56.11.09.25.21.44.25-.02.15-.14.35-.2.78-.04.31,0,.63-.01.95-.4-.04-.55-.15-.85.37-.05.08-.18.18-.3.34-.09.13-.16.28-.19.46-.19.92.54,1.33,1.33.93.13-.06.49-.28.6-.37.27-.24.25-.29.6-.39.19-.05.25-.17.47-.19.48-.03.64-.2.83-.47.1-.13.18-.24.25-.4.06-.13.11-.39.19-.47.2-.27.25-1.05.22-1.44-.06-.89-.36-1.76-.8-2.49-.12-.2-.58-.81-.75-.88-.06-.05-.05-.03-.09-.07-.04-.03-.04-.04-.07-.08l-.29-.18c-.09-.05-.2-.12-.32-.15-.08.03-.16.04-.24.07s-.15.06-.23.09"/>
        <path class="cls-2" d="M183.03,18.44h0c2.27,0,4.12,1.83,4.12,4.09v19.56c0,2.65.32,4.58.94,5.79.98,2.16,3.11,3.24,6.39,3.24s5.39-1.08,6.37-3.24c.63-1.22.94-3.15.94-5.79v-19.56c0-2.26,1.84-4.09,4.12-4.09s4.12,1.83,4.12,4.09v19.58c0,4.09-.64,7.28-1.92,9.56-2.38,4.18-6.92,6.27-13.63,6.27s-11.26-2.09-13.65-6.27c-1.28-2.28-1.92-5.47-1.92-9.56v-19.58c0-2.26,1.84-4.09,4.12-4.09"/>
        <path class="cls-2" d="M242.39,40.51c-2.3,1.91-5.59,2.86-9.86,2.86h-4.1c-2.25,0-4.08,1.82-4.08,4.05v5.93c0,2.24-1.83,4.05-4.08,4.05s-4.08-1.82-4.08-4.05v-30.94c0-2.24,1.83-4.05,4.08-4.05h12.8c3.89,0,6.99,1.01,9.31,3.02,2.31,2.01,3.47,5.13,3.47,9.35,0,4.61-1.15,7.87-3.45,9.77M236.12,26.44c-1.04-.87-2.5-1.3-4.37-1.3h-3.32c-2.25,0-4.08,1.82-4.08,4.05v3.39c0,2.24,1.83,4.05,4.08,4.05h3.32c1.88,0,3.33-.47,4.37-1.4,1.04-.94,1.56-2.42,1.56-4.45s-.52-3.48-1.56-4.34"/>
        <path class="cls-2" d="M104.41,24.39c-4.33,5.95-7.55,10.82-9.65,14.61l-1.03,2-.1.15.05.51c.17,0,.34.02.52.05.38.03.89.09,1.55.15.58.07.96.1,1.13.1,1.31.24,2.62.54,3.95.9,1.32.36,2.38.67,3.17.92.79.25,1.96.67,3.51,1.23,1.55.56,2.67.95,3.35,1.15.34.14.59.36.75.67s.17.63.05.97-.34.59-.65.74c-.31.15-.64.18-.98.08l-3.4-1.23-3.41-1.18c-.76-.27-1.76-.57-3.02-.9-1.26-.32-2.5-.59-3.74-.79-.1-.03-.41-.07-.93-.1-.69-.07-1.22-.12-1.6-.15l-.15-.05c.24,4.85.4,8.39.46,10.61,0,.34-.12.65-.36.92-.24.27-.53.41-.88.41s-.65-.12-.93-.36-.41-.53-.41-.87c-.07-2.15-.24-5.93-.51-11.33-.21-.14-.38-.29-.52-.46-.21-.24-.29-.53-.26-.87,0-.1.02-.2.05-.31.03-.07.07-.15.1-.25.03-.14.1-.31.21-.51l.31-.61c-.1-2.26-.19-4.24-.26-5.95-.03-1.26,0-4.19.1-8.77.07-3.69-.02-6.53-.26-8.51-.03-.34.06-.66.28-.95.22-.29.51-.45.85-.49.34-.03.66.06.95.28.29.22.45.5.49.85.28,2.12.36,5.08.26,8.87-.1,4.51-.14,7.38-.1,8.61l.05,1.59c2.03-3.49,5.01-7.91,8.93-13.28.21-.27.48-.44.83-.49.34-.05.66.03.95.23s.46.48.52.82-.03.67-.23.97"/>
        <path class="cls-2" d="M121.33,20.75c.82,8.88,1.24,20.76,1.24,35.62,0,.34-.13.64-.39.9-.26.25-.56.38-.9.38s-.65-.13-.9-.38c-.26-.26-.39-.55-.39-.9,0-14.9-.41-26.7-1.24-35.42-.03-.34.06-.65.28-.92.22-.27.51-.43.88-.46s.68.06.95.28c.28.22.43.52.46.9"/>
        <path class="cls-2" d="M144.91,15.88c.1,1.16.17,2.35.21,3.56s.03,2.68,0,4.41c-.03,1.73-.05,2.86-.05,3.41,0,3.18-.09,11.9-.28,18.27-.19,6.37-.28,7.21-.28,10.38,0,.34-.13.64-.39.9s-.56.39-.9.39-.64-.13-.9-.39c-.26-.25-.39-.55-.39-.9,0-2.12.03-.55.1-3.18-2.17.89-4.54.97-7.12.26-1.72-.48-3.14-1.24-4.26-2.28-1.12-1.04-1.87-2.19-2.25-3.43-.38-1.25-.5-2.52-.36-3.82.14-1.3.51-2.49,1.13-3.59.62-1.13,1.47-2.05,2.55-2.77,1.08-.72,2.3-1.09,3.64-1.13,2.34-.07,4.68.96,7.02,3.08.07-2.94.1-9.5.1-11.79,0-.65.02-1.81.05-3.49.03-1.67.04-3.09.03-4.26-.02-1.16-.09-2.27-.23-3.33-.03-.38.06-.7.28-.97.22-.27.51-.43.88-.46.36-.03.68.06.96.28.27.22.43.5.46.85M142.18,42.48c-2.37-2.7-4.63-4.01-6.76-3.95-1.72.04-3.06.91-4.03,2.62-.45.79-.72,1.65-.82,2.59-.1.94,0,1.85.28,2.72.29.87.84,1.68,1.65,2.43.81.75,1.85,1.3,3.12,1.64,2.41.68,4.5.48,6.29-.61.07,0,.12-.02.15-.05.03-.92.08-2.22.13-3.9.05-1.67.08-2.8.08-3.38,0,0-.1-.1-.1-.1Z"/>
        <path class="cls-2" d="M163.18,26.28c-.59-1.78-1.44-3.08-2.55-3.92-1.12-.84-2.27-1.21-3.46-1.13-1.19.08-2.26.62-3.23,1.61s-1.58,2.45-1.86,4.36c-.38,2.29-.31,4.07.2,5.33.34.82.8,1.67,1.37,2.56.57.89,1.36,2.02,2.37,3.38,1.01,1.37,1.73,2.36,2.14,2.97,1.34,1.95,2.36,3.79,3.04,5.54.69,1.74.9,3.54.62,5.38-.31,1.98-1.38,3.48-3.2,4.51-1.34.75-2.61.97-3.82.66-1.03-.27-1.94-.92-2.73-1.95-1.1-1.43-1.86-3.43-2.27-6-.03-.34.05-.66.26-.95s.48-.46.82-.51c.34-.05.66.03.96.23.29.2.47.48.54.82.34,2.15.93,3.77,1.75,4.87.41.55.84.87,1.29.97.55.14,1.2,0,1.96-.41,1.07-.61,1.68-1.5,1.86-2.67.21-1.37.03-2.78-.54-4.23-.57-1.45-1.45-3.07-2.66-4.84-.31-.44-1-1.38-2.06-2.82-1.07-1.43-1.92-2.66-2.55-3.66-.64-1.01-1.15-1.99-1.52-2.95-.69-1.67-.82-3.9-.41-6.66.38-2.39,1.26-4.31,2.63-5.77,1.37-1.45,2.99-2.25,4.85-2.38,1.82-.14,3.54.4,5.14,1.62s2.78,2.95,3.53,5.2c.1.34.08.67-.08.97-.15.31-.4.52-.75.64-.34.12-.67.11-.98-.05-.31-.15-.53-.4-.67-.74"/>
        <path class="cls-3" d="M0,37c0,20.44,17.06,37,38.1,37s38.1-16.56,38.1-37S59.14,0,38.1,0,0,16.56,0,37"/>
        <path class="cls-2" d="M38.1,71.7c19.74,0,35.73-15.53,35.73-34.7S57.84,2.3,38.1,2.3"/>
        <path class="cls-4" d="M38.1,2.3C18.37,2.3,2.37,17.83,2.37,37s16,34.7,35.73,34.7"/>
        <path class="cls-3" d="M38.12,5.54s-.01,0-.01,0c0,0-.01,0-.01,0C20.45,4.41,4.92,19.03,5.04,36.74c-.12,17.69,15.37,32.82,32.99,31.73h0,0,.07s0,.03,0,.04c0-.01,0-.03,0-.04h.06,0,0c17.61,1.09,33.11-14.04,32.99-31.73.12-17.71-15.4-32.33-33.04-31.2M68.75,36.75c-3.74-.35-7.53-.6-11.35-.77-.11-5.63-1.44-11.23-4-16.24,2.43-1.14,4.68-2.57,6.64-4.3,5.99,6.04,8.77,13.71,8.7,21.31M38.1,5.54h.01c5.66,3.13,9.89,7.84,12.72,13.33-3.82,1.09-7.81,1.69-11.81,1.78-.17-5.08-.45-10.15-.91-15.11M36.92,35.57c-5.19.04-10.47.11-15.74.31.11-5.28,1.23-10.54,3.36-15.3,3.93,1.52,8.24,2.33,12.57,2.42-.12,4.21-.17,8.42-.2,12.56M36.92,37.94c.02,3.19.06,6.41.12,9.64-4.68.11-9.33,1.05-13.5,2.83-1.48-4.06-2.27-8.41-2.36-12.78,5.27.2,10.54.28,15.74.31M39.29,37.94c5.19-.03,10.47-.11,15.74-.31-.09,4.4-.9,8.78-2.4,12.87-4.15-1.81-8.78-2.78-13.46-2.92.07-3.23.1-6.46.12-9.65M39.29,35.57c-.03-4.15-.08-8.36-.2-12.57,4.33-.12,8.62-.96,12.53-2.5,2.16,4.78,3.3,10.07,3.41,15.38-5.27-.2-10.55-.27-15.74-.31M49.97,8.42c3.91,1.84,7.18,4.15,9.83,6.76-2.27,1.26-4.67,2.3-7.16,3.13-.06-.11-.12-.21-.18-.32-3.23-5.55-8.25-10.3-14.34-12.45,4.12.28,8.15,1.22,11.85,2.88M38.1,5.53s0,0,0,0h0c-.46,4.97-.74,10.04-.91,15.12-4.01-.06-8.02-.62-11.87-1.68,2.82-5.54,7.08-10.29,12.77-13.43h.01-.01s0,0,.01,0M38.08,5.54c-6.09,2.14-11.11,6.9-14.34,12.45-.08.14-.16.29-.25.44-2.52-.81-4.96-1.85-7.28-3.1,5.2-5.38,12.6-9.13,21.87-9.78M16.01,15.54c1.99,1.73,4.27,3.16,6.74,4.29-2.52,4.98-3.83,10.55-3.95,16.14-3.81.17-7.61.42-11.35.77.06-7.73,3.04-15.39,8.56-21.2M26.23,65.04c-12.99-6.12-18.86-17.27-18.78-28.28,3.74.35,7.53.6,11.35.77.09,4.71,1.05,9.41,2.85,13.75-2.45,1.24-4.69,2.78-6.61,4.64,2.27-1.33,4.69-2.45,7.19-3.34.45.97.94,1.93,1.48,2.85,3.22,5.56,8.22,10.85,14.3,13.01-4.09-.28-8.1-1.75-11.77-3.41M38.02,68.45c-5.6-3.06-9.88-8.42-12.68-13.9-.43-.85-.82-1.71-1.19-2.6,4.17-1.28,8.56-1.95,12.95-2.03.16,6.04.45,12.63,1,18.53-.03,0-.06,0-.08,0M38.11,68.45c.55-5.9.84-12.48,1-18.52,4.39.11,8.76.82,12.9,2.13-.35.84-.73,1.67-1.14,2.48-2.8,5.48-7.08,10.85-12.68,13.9-.03,0-.06,0-.08,0M38.2,68.44c6.08-2.16,11.08-7.45,14.3-13.01.51-.89.99-1.79,1.42-2.72,2.53.93,4.96,2.09,7.25,3.48-1.93-1.92-4.19-3.52-6.66-4.8,1.84-4.37,2.8-9.11,2.9-13.86,3.82-.17,7.61-.42,11.35-.77-.13,15.01-11.3,30.28-30.55,31.69"/>
        <path class="cls-3" d="M57.86,37.81s1.33,1.97,3.24,1.81c1.84-.15,3.37-2.3,3.83-3.02.1-.15.26-.27.44-.31.44-.11.82-.15,1.21-.49,1.13-.98,1.03-2.94-.3-3.49-.96-.39-1.29.9-2.06,1.7-.45.46-.43.96-.37,1.25.05.2,0,.41-.12.58-.34.46-1.1,1.27-2.29,1.37-1.37.12-1.92-.63-2.09-.96-.04-.08-.07-.18-.07-.28-.2-3.91-3.34-4.7-3.28-5.19.04-.29.3-.28.3-.28,7.41-.93,6.02-5.96,6.02-5.96-.57-1.74-.22-3.17-.19-3.3,0,0,0-.02,0-.03,1.79-7.01-7.52-7.75-10-6.24-.27.16-.61.13-.84-.08-.22-.2-.52-.32-.84-.32-.23,0-.45.06-.63.17-.24.14-.54.13-.76-.03-.78-.56-2.51-1.26-4.57,1.15-2.83,3.3-1.87,6.7.19,9.52.54.74.71,1.29.69,1.66,0,0,0,0,0,.01,0,.11-.03.19-.08.28-.1.22-.29.32-.49.32h-.03c-.06,0-.11-.02-.16-.03-.02,0-.05-.01-.07-.02,0,0,0,0-.01,0-.1-.05-.18-.13-.23-.22-.01-.02-.03-.04-.04-.06-.01-.02-.01-.04-.02-.06-.1-.26-.08-.63.2-1.12,0,0-.69.38-1,1.01-.39.77.35,1.54.35,1.54-1.5-.24-.59-1.7-.59-1.7,0,0-.46.21-.71.44-1.12,1.02-.51,2.39.32,2.67,1.01.34,1.68.21,1.98.11.14-.04.28-.04.42,0,2.43.64,2.88-1.48,2.96-2.29v-.02s.03-.12.14-.12c.1,0,.13.11.13.11.29.8.64,2.49,3.17,2.41.02,0,.04,0,.06,0,.02,0,.04-.01.07-.01.2,0,.36.16.36.36,0,.16-.1.29-.24.34h0s-2.35-.41-5.09.63c-.92.35-3.21,1.58-4.57,3.09-.87.96-1.42,2.25-1.49,2.43-.02.05-.06.08-.11.09-1.26.23-1.91,1.5-2.07,1.85-.03.06-.08.09-.14.08-.41-.08-.71.07-.94.27-.3.27-.76.3-1.04.01-.82-.84-2.73-1.01-3.8-2.63-1.42-2.16-1.74-5.22-3.66-5.87-.99-.33-1.23-.05-1.26-.31-.04-.4,1.38-.55,1.57-.57.02,0,.03,0,.05,0l1.31-.22c5.79-1.3,4.34-6.3,4.34-6.3,0,0-.62-4.55-.05-4.65.57-.1,1.81-1.07,2.03-2.17.25-1.23-.83-.84-.83-.84,0,0-2.55,1.04-2.63-.67-.09-1.71-2.19-.74-1.85-1.24.33-.5.07-.94.07-.94,0,0-.22-.42-.75-.02-.31.23-1.31.81-1.31.81-.11.04-.22-.05-.19-.16.04-.22.09-.61.11-1.31.03-1.15-2.26.52-3.11,1.17-.09.07-.23,0-.23-.12.04-1.13-2.54.19-2.54.19-5.88,2.45-5.47,9.34-5.3,11.65.17,2.31,1.34,3.48,1.87,3.38.53-.1.51-.75.51-.75.44,1.29,3.68,1.5,3.99,2.22.32.76-.82.18-3.76.27-2.02.06-5.16,1.18-6.75,3.04-.47.55-.47.86-.84,1.29-.34.4-1.14.56-1.63.56-.33,0-.67.04-.98.16-3.06,1.2-1.5,3.47-1.5,3.47,0,0,.68,1.27,2.04.96.99-.22.43-.8,1.59-1.61.21-.15,1.05.09,1.64-.56.06-.07,2.77-2.29,5.08-2.14.63.04,1.16.61,1.12,1.24-.08,1.27-1.09,2.93-1.52,3.48-1.56,1.96-.76,3.92-.75,4.25,0,.02,0,.04-.01.06-.15.31-1.46,2.85-3.57,3.5-2.24.69-4.07-2.52-4.07-2.52,0-.03.79-1.9-1.39-2.29-2.99-.53-3.29,6.92-3.29,7.07,0,.76.63,1.44,1.03,1.44,1.23.14,1.63-2.85,1.83-3.1.21-.28.52-.27.72.02,1.65,2.4,4.93,3.08,4.98,3.09,0,0,0,0,0,0,5.38,1.03,7.61-4.58,7.94-5.5.03-.07.11-.11.18-.09,5.25,1.49,5.64,7.57,5.45,10.43-.19,2.88,1.59,2.18,4.33,1.37s3.09-.97,2.43-2.24c-.53-1.02-2.12-.52-2.7-.29-.1.04-.2-.05-.19-.15.63-5.96-1.73-8.95-3.65-11.88-.84-1.29.18-4.43.35-4.67.07-.1.22-.08.26.04.5,1.54,2.96,3.38,5.29,4.06,1.6.47,2.87.15,3.5-.09.26-.1.54-.03.76.14.95.75,2.65-.01,3.24-.84.07-.09.59-.42-.13-2.03-.44-.99.65-1.97.65-1.97,4.88-4.79,6.35-2.84,6.37-2.82t0,0c.88,8.51-5.79,10.3-7.24,10.59-.11.02-.15.16-.07.24,2.11,2.05,2.67,3.82.63,4.46-.66.21-1.37-.15-1.83-1.05-.41-.78-.57-2.07-1.03-2.46-.7-.58-1.76.7-2.54,1.82-1.89,2.69-1.29,5.01-.18,5.22,1.11.21,1.43-.89,1.79-2.29.25-.98.21-.53,1.3.92,1.2,1.58,3.21,1.96,3.9.59,1.43-2.83,3.81-2.02,3.95-1.97,0,0,0,0,.02,0,4.32,2.49,8.03,1.49,9.42.96.45-.17.96-.03,1.22.38.48.74.77,1.89.93,2.63.09.42.06.85-.07,1.25-.09.3-.18.69-.13,1.01.37,2.5,4.58,1.27,6.53-.25,1.17-.91.76-1.94.37-2.3-1.06-.96-2.79-.16-3.48.16s-.57-.34-.57-.34c.56-3.95-1.07-5.33-1.54-5.9-.47-.58-.03-.7-.03-.7,0,0,.51-.03,1.03-.62s.02-.76.02-.76c0,0-1.55-.66-3.83-2.83-2.28-2.17-.47-4.78-.08-5.74.4-.95.63-.47.63-.47"/>
      </g>
    </g>
  </g>
</svg>