<?xml version="1.0" encoding="UTF-8"?>
<svg id="Layer_1" data-name="Layer 1" xmlns="http://www.w3.org/2000/svg" xmlns:xlink="http://www.w3.org/1999/xlink" viewBox="0 0 2060.01 304.11">
  <defs>
    <style>
      .cls-1, .cls-2 {
        fill: none;
      }

      .cls-3 {
        fill: #f79531;
      }

      .cls-4 {
        fill: #e6e4d0;
      }

      .cls-2 {
        stroke: #fff;
        stroke-miterlimit: 10;
        stroke-width: 8px;
      }

      .cls-5 {
        fill: #94181b;
      }

      .cls-6 {
        fill: #fff;
      }

      .cls-7 {
        fill: #fcb42a;
      }

      .cls-8 {
        fill: #fff58a;
      }

      .cls-9 {
        fill: #91c5ea;
      }

      .cls-10 {
        fill: #f05c22;
      }

      .cls-11 {
        clip-path: url(#clippath);
      }
    </style>
    <clipPath id="clippath">
      <rect class="cls-1" width="2060.01" height="304.11"/>
    </clipPath>
  </defs>
  <g class="cls-11">
    <path class="cls-9" d="M2060.01,170.57l-.97-4.92c-103.88-79.62-245.87-139.43-352.08-157.68-232.44-37.87-470.4,65.31-666.25,179.31-76.77,45.06-125.46,90.22-218.43,100.7-103.78,14.94-214.03-9.07-307.43-57.67-54.53-27.27-104.97-60.66-158.95-88.78C244.57,81.82,155.27,73.14,0,90.22v1425.11h426.92v-6.24h1633.1V170.57Z"/>
    <g>
      <path class="cls-6" d="M393.73,286.16c-3.35-3.03-5.93-6.66-7.57-10.74-2.9-7.19-1.55-17.71,3.28-25.58,3.72-6.06,8.98-9.67,14.81-10.18,3.56-.31,6.42,1.42,8.96,2.94,1.98,1.19,3.84,2.31,5.87,2.47,3.25.25,4.25-2.67,5.4-7.15.22-.87.43-1.69.67-2.44.17-.54.35-1.08.52-1.62,1.64-5.15,3.34-10.48,6.31-14.64,3.47-4.88,8.16-7.44,14.36-7.83,10.98-.69,19.75,8.51,22.43,17.53h0c2.44,8.23,1.46,17.96-2.91,28.91-3.33,8.34-8.06,15.94-13.69,22-6.32,6.8-13.53,11.5-21.45,13.99-8.22,2.58-17.71,2.22-26.02-1-4.2-1.63-7.9-3.89-10.96-6.65ZM458.95,219.38c-3.36-3.03-7.64-4.99-12.41-4.69-11.51.73-14.53,10.18-17.72,20.18-.17.54-.35,1.09-.52,1.63-.21.66-.41,1.43-.62,2.24-1.03,4.03-2.59,10.12-8.86,9.63-2.8-.22-5.1-1.6-7.32-2.93-2.3-1.38-4.48-2.69-6.96-2.48-4.76.41-9.12,3.47-12.28,8.62-4.25,6.92-5.52,16.43-3.03,22.61,6.25,15.5,25.98,21.03,40.49,16.47,14.14-4.44,26.18-16.86,33.05-34.06,4.09-10.25,5.04-19.25,2.81-26.75-1.12-3.78-3.46-7.61-6.63-10.48Z"/>
      <path class="cls-6" d="M309.66,251.57c-3.86-3.49-6.23-7.94-6.73-12.72-.76-7.26,2.48-12.82,9.62-16.53,5.81-3.01,13.22-4.33,19.17-5.38.73-.13,1.43-.25,2.11-.38h0c.22-.04.44-.08.66-.12,7.19-1.35,14.52,1.23,18.67,6.56,3.67,4.71,4.24,10.72,1.58,16.47-4.01,8.66-14.59,16.73-24.09,18.36-6.55,1.13-13.78-.71-19.34-4.91-.57-.43-1.12-.89-1.64-1.36ZM334.43,219.83c-.68.12-1.39.25-2.13.38-14.48,2.57-27.38,5.9-26.08,18.31.47,4.5,2.99,8.68,7.08,11.78,4.84,3.66,11.11,5.27,16.78,4.29,8.4-1.45,18.11-8.85,21.65-16.49,2.16-4.66,1.73-9.29-1.19-13.05-3.4-4.37-9.46-6.46-15.45-5.34-.22.04-.45.08-.67.12h0Z"/>
      <path class="cls-6" d="M359.77,218.08c-1.73-1.56-2.86-3.53-3.24-5.7-.44-2.49.3-4.8,2.16-6.68,3.95-4,11.82-5.13,17.55-4.18,5.99.99,9.52,4.13,9.44,8.39-.11,6.38-9.48,10.23-13.08,11.17-3.69.97-8,.28-11.24-1.79-.58-.37-1.11-.78-1.6-1.22ZM375.97,203.16l-.27,1.63c-5.52-.91-11.95.51-14.66,3.24-1.1,1.11-1.51,2.35-1.26,3.77.42,2.38,2.07,3.88,3.37,4.71,2.49,1.59,5.79,2.12,8.61,1.38,3.67-.96,10.54-4.3,10.61-8.03.06-3.57-4.65-4.73-6.68-5.07l.27-1.63Z"/>
    </g>
    <g>
      <path class="cls-6" d="M1631.76,14.82c-3.82-2.54-8.01-3.99-12.58-4.35-6.52.38-10.1.24-16.09,3.3-4.8,2.45-8.97,6.34-11.84,10.9-6.91,10.96-8.35,26.34,1.31,36.42.47.49.97.97,1.49,1.45,3.32,6.48,9.31,11.48,16.8,13.04,7.9,1.64,15.66-1.73,21.52-6.97,4.37-3.9,7.12-8.46,9.44-13.75,4.16-9.45,3.12-20.9-1.25-30.04-2.07-4.09-5.01-7.42-8.81-9.99Z"/>
      <path class="cls-6" d="M1572.41,14.78c-1.18-2.33-2.85-4.22-5.01-5.68-3.36-2.05-7.19-3.01-11.13-2.23-2.02.32-3.81,1.11-5.36,2.36-1.69.94-3.05,2.25-4.09,3.93-1.16,1.6-1.85,3.36-2.08,5.28-.57,1.91-.62,3.87-.15,5.85.43,1.26.86,2.51,1.28,3.77,1.18,2.33,2.85,4.22,5.01,5.68,3.36,2.05,7.19,3.01,11.13,2.23,2.02-.32,3.81-1.11,5.36-2.36,1.69-.94,3.05-2.25,4.09-3.93,1.16-1.6,1.85-3.36,2.08-5.28.57-1.91.62-3.87.15-5.85-.43-1.26-.86-2.51-1.28-3.77Z"/>
      <path class="cls-6" d="M1691.29,44.06c-2.37-9.69-11.49-16.48-21.6-14.48-9.44,1.86-16.84,11.95-14.48,21.6,2.37,9.69,11.49,16.48,21.6,14.48,9.44-1.86,16.84-11.95,14.48-21.6Z"/>
    </g>
    <g>
      <path class="cls-6" d="M1177.88,251.38c-4.75-2.9-10.14-4.25-15.71-3.15-5.27,1.04-10.34,4.42-13.33,8.88-2.86,4.26-4.39,10.64-3.15,15.71,1.29,5.26,4.12,10.43,8.88,13.33,4.75,2.9,10.14,4.25,15.71,3.15,5.27-1.04,10.34-4.42,13.33-8.88,2.86-4.26,4.39-10.64,3.15-15.71-1.29-5.26-4.12-10.43-8.88-13.33Z"/>
      <path class="cls-6" d="M1191.29,214.74c-.61-.9-1.22-1.8-1.83-2.71-1.06-1.29-2.35-2.23-3.87-2.84-.92-.61-1.94-.96-3.04-1.05-1.63-.48-3.28-.52-4.97-.12-1.07.36-2.13.73-3.2,1.09-.9.61-1.8,1.22-2.71,1.83-1.29,1.06-2.23,2.35-2.84,3.87-.86,1.41-1.32,2.96-1.38,4.64-.05.54-.12,1.09-.15,1.64-.27,4.52,1.79,9.41,5.76,11.84,2.97,1.81,6.34,2.65,9.82,1.97,1.78-.28,3.36-.98,4.73-2.08,1.49-.83,2.69-1.99,3.61-3.47,2.63-3.92,2.87-8.91.84-13.14-.24-.49-.51-.97-.76-1.46Z"/>
    </g>
    <g>
      <path class="cls-6" d="M112.57,253.97c-1.14-1.69-2.29-3.38-3.43-5.08-.03-.04-.06-.08-.08-.12-.07-.1-.14-.2-.21-.29-.06-.08-.11-.16-.17-.24-.63-.9-1.45-1.63-2.47-2.18-2.27-2.35-5-4.01-8.19-5-2.13-.44-4.26-.88-6.4-1.33-2.25.14-4.5.28-6.75.41-2.13.73-4.26,1.45-6.4,2.18-1.8,1.22-3.61,2.44-5.41,3.66-2.57,2.12-4.47,4.7-5.68,7.73-1.23,1.84-1.93,3.87-2.1,6.08-.74,2.15-.89,4.34-.46,6.57-.16,2.31.28,4.5,1.3,6.57.8,3.26,2.38,6.13,4.75,8.61,1.62,1.41,3.23,2.83,4.85,4.24,1.92.96,3.84,1.92,5.77,2.88,2.13.44,4.26.88,6.4,1.33l6.75-.41c3.43-.54,6.46-1.88,9.1-4.01,1.98-1,3.59-2.42,4.83-4.25,2.35-2.27,4.01-5,5-8.19.05-.21.1-.42.15-.63.24-1.07.44-2.12.67-3.21.91-3.05.98-6.16.23-9.33-.68-2-1.36-4-2.04-6Z"/>
      <path class="cls-6" d="M204.49,254.94c1.44-1.16,2.06-2.97,2.34-4.71.17-1.09.34-2.17.51-3.26.43-2.72-1.29-5.97-3.59-7.37-1.85-1.13-3.95-1.65-6.12-1.23-2.05.4-4.03,1.72-5.19,3.46-1.52,2.26-2,5.76-.52,8.19.57.94,1.14,1.88,1.71,2.82.81,1.34,1.73,2.36,3.15,3.07,1.33.66,2.95,1.01,4.44.65,1.2-.29,2.31-.84,3.27-1.62Z"/>
      <path class="cls-6" d="M293.28,250.01c-.03-.43-.05-.86-.08-1.29-.32-2.05-1.12-3.86-2.4-5.44-.96-1.71-2.29-3.1-3.99-4.15-1.62-1.18-3.41-1.88-5.36-2.12-1.94-.58-3.92-.63-5.94-.15-2.05.32-3.86,1.12-5.44,2.4-1.71.96-3.1,2.29-4.15,3.99-.57,1.15-1.15,2.3-1.72,3.44-.88,2.57-1.06,5.18-.55,7.85.43,1.27.87,2.55,1.3,3.82,1.2,2.36,2.89,4.29,5.08,5.77,1.15.57,2.3,1.15,3.45,1.72,1.91.74,3.85.97,5.84.67,1.32.03,2.6-.15,3.83-.56,1.58-.09,3.1-.49,4.56-1.2,1.82-.92,3.31-2.23,4.45-3.92,1.13-1.7,1.78-3.57,1.94-5.6.12-1.82-.15-3.56-.83-5.23Z"/>
    </g>
    <g>
      <path class="cls-6" d="M1863.56,272.91c-3.35-3.03-5.93-6.66-7.57-10.74-2.9-7.19-1.55-17.71,3.28-25.58,3.72-6.06,8.98-9.67,14.81-10.18,3.56-.31,6.42,1.42,8.96,2.94,1.98,1.19,3.84,2.31,5.87,2.47,3.25.25,4.25-2.67,5.4-7.15.22-.87.43-1.69.67-2.44.17-.54.35-1.08.52-1.62,1.64-5.15,3.34-10.48,6.31-14.64,3.47-4.88,8.16-7.44,14.36-7.83,10.98-.69,19.75,8.51,22.43,17.53h0c2.44,8.23,1.46,17.96-2.91,28.91-3.33,8.34-8.06,15.94-13.69,22-6.32,6.8-13.53,11.5-21.45,13.99-8.22,2.58-17.71,2.22-26.02-1-4.2-1.63-7.9-3.89-10.96-6.65ZM1928.77,206.13c-3.36-3.03-7.64-4.99-12.41-4.69-11.51.73-14.53,10.18-17.72,20.18-.17.54-.35,1.09-.52,1.63-.21.66-.41,1.43-.62,2.24-1.03,4.03-2.59,10.12-8.86,9.63-2.8-.22-5.1-1.6-7.32-2.93-2.3-1.38-4.48-2.69-6.96-2.48-4.76.41-9.12,3.47-12.28,8.62-4.25,6.92-5.52,16.43-3.03,22.61,6.25,15.5,25.98,21.03,40.49,16.47,14.14-4.44,26.18-16.86,33.05-34.06,4.09-10.25,5.04-19.25,2.81-26.75-1.12-3.78-3.46-7.61-6.63-10.48Z"/>
      <path class="cls-6" d="M1779.49,238.32c-3.86-3.49-6.23-7.94-6.73-12.72-.76-7.26,2.48-12.82,9.62-16.53,5.81-3.01,13.22-4.33,19.17-5.38.73-.13,1.43-.25,2.11-.38h0c.22-.04.44-.08.66-.12,7.19-1.35,14.52,1.23,18.67,6.56,3.67,4.71,4.24,10.72,1.58,16.47-4.01,8.66-14.59,16.73-24.09,18.36-6.55,1.13-13.78-.71-19.34-4.91-.57-.43-1.12-.89-1.64-1.36ZM1804.25,206.58c-.68.12-1.39.25-2.13.38-14.48,2.57-27.38,5.9-26.08,18.31.47,4.5,2.99,8.68,7.08,11.78,4.84,3.66,11.11,5.27,16.78,4.29,8.4-1.45,18.11-8.85,21.65-16.49,2.16-4.66,1.73-9.29-1.19-13.05-3.4-4.37-9.46-6.46-15.45-5.34-.22.04-.45.08-.67.12h0Z"/>
      <path class="cls-6" d="M1829.6,204.83c-1.73-1.56-2.86-3.53-3.24-5.7-.44-2.49.3-4.8,2.16-6.68,3.95-4,11.82-5.13,17.55-4.18,5.99.99,9.52,4.13,9.44,8.39-.11,6.38-9.48,10.23-13.08,11.17-3.69.97-8,.28-11.24-1.79-.58-.37-1.11-.78-1.6-1.22ZM1845.8,189.91l-.27,1.63c-5.52-.91-11.95.51-14.66,3.24-1.1,1.11-1.51,2.35-1.26,3.77.42,2.38,2.07,3.88,3.37,4.71,2.49,1.59,5.79,2.12,8.61,1.38,3.67-.96,10.54-4.3,10.61-8.03.06-3.57-4.65-4.73-6.68-5.07l.27-1.63Z"/>
    </g>
    <g>
      <path class="cls-6" d="M1313.05,129.86c.12-.19.25-.38.39-.57,4.99-7.14,16.12-14.32,22.91-14.78,8.24-.56,16.85,2.42,21.25,4.24,11.32,4.7,20.45,13.37,25.03,23.77,2.88,6.54,3.07,14.66.46,20.2-1.69,3.59-4.45,6.02-7.99,7.02-6.55,1.86-12.39-1.81-18.04-5.35-1.87-1.18-3.81-2.39-5.7-3.34h0c-4.4-2.21-9.19-3.21-14.27-4.27-2.6-.54-5.28-1.1-7.89-1.84-4.29-1.21-8.15-3.02-11.17-5.24-3.71-2.73-6.15-6.04-7.25-9.82-.87-2.98-.08-6.43,2.26-10.01ZM1379.52,162.92c.3-.46.58-.96.83-1.49,2.25-4.79,2.06-11.9-.49-17.68-4.27-9.7-12.81-17.79-23.42-22.19-4.15-1.72-12.26-4.54-19.88-4.02-5.33.36-15.72,6.46-20.63,13.49-1.47,2.1-3.04,5.19-2.22,8,2.4,8.24,12.22,11.83,16.33,12.99,2.51.71,5.14,1.26,7.69,1.79,5.04,1.05,10.26,2.14,15.01,4.53,2.01,1.01,4.02,2.27,5.95,3.48,5.32,3.34,10.34,6.49,15.59,5,2.2-.62,3.96-1.93,5.25-3.91Z"/>
      <path class="cls-6" d="M1275.13,172.33c.99-1.5,2.12-2.9,3.38-4.15,10.71-10.61,30.34-10.59,42.01.03,3.46,3.15,5.95,7.58,7.21,12.81,1.18,4.9,1.22,10.17.11,15.24-1.39,6.41-4.52,11.86-8.8,15.36-9.94,8.11-23.97,9.78-34.13,4.07-7.6-4.28-12.92-12.61-14.22-22.27-1.03-7.69.6-15.23,4.44-21.09ZM1324.87,195.62c2.1-9.66-.47-19.77-6.4-25.17-10.53-9.59-28.2-9.65-37.83-.12-5.53,5.47-8.12,13.95-6.95,22.68,1.18,8.73,5.92,16.22,12.7,20.03,9.09,5.12,21.73,3.57,30.72-3.77,3.76-3.07,6.51-7.92,7.76-13.65h0Z"/>
      <path class="cls-6" d="M1239.08,164.23c3.76-5.73,10.7-6.58,15.39-4.43,5.01,2.29,7.15,7.37,5.43,12.95h0c-.02.07-.04.13-.06.19-1.19,3.71-4.5,8.53-8.94,10.34-2.52,1.02-5.08.91-7.4-.32-2.69-1.43-4.79-4.29-5.74-7.84-1.03-3.86-.6-7.84,1.17-10.66.05-.08.1-.15.15-.23ZM1257.01,171.85c1.27-4.15-.15-7.63-3.79-9.3-3.54-1.62-8.76-.98-11.59,3.34-.04.06-.07.11-.11.17-1.3,2.08-1.61,5.25-.81,8.26.73,2.74,2.27,4.91,4.23,5.95,1.53.81,3.15.88,4.84.19,3.35-1.36,6.2-5.37,7.19-8.46l.05-.16Z"/>
    </g>
    <path class="cls-2" d="M0,241.31c97.84-18.69,196.42-37.35,294.75-55.75,115.09-20.79,227.8-45.69,343.84-34.06,55.5,5.51,110,19.78,162.39,38.59,105.45,38.57,210.22,91.89,325.32,87.17,109.77-2.21,210.81-55.37,308.74-100.94,89.15-41.69,183.3-74.44,280.84-87.93,93.13-13.54,185.78-13.88,280.21-15.24,59.11-.73,118.33-1.44,177.43-2.17"/>
    <path class="cls-2" d="M-297.56,322.78C-155.25,264.87,31.64,89.49,373.47,89.49c171.51,0,320.62,190.14,509.09,196.04,168.26,8.08,286.04-142.36,441.17-182.21,109.8-31.98,225.95-9.81,335.92,13.3,161.55,35.08,323.1,71.49,484,106.22"/>
    <g>
      <path class="cls-10" d="M292.31,276.87c-1.45,2.12-3.1,4.23-5.3,5.62-1.93,1.22-4.33,1.68-6.5.81-2.14-.86-3.32-2.86-3-5.15.19-1.34.77-2.6,1.57-3.69,0,0,0,0,0,0,2.3-.11,4.59-.34,6.86-.68,3.15-.47,6.27-1.17,9.33-2.09-.24.5-.47,1.01-.73,1.49-.68,1.26-1.42,2.5-2.23,3.68Z"/>
      <path class="cls-10" d="M217.54,246.68c-2.94,3.29-6.23,6.66-10.63,7.67-1.2.28-2.75.48-3.9-.02-1.23-.53-1.67-1.91-1.69-3.15-.06-2.7,1.63-5.21,3.47-7.05.93-.93,1.96-1.74,2.94-2.61.84-.75,1.71-1.75,1.59-2.96-.13-1.32-1.45-2.28-2.28-3.2-.99-1.1-1.93-2.28-2.67-3.57-1.27-2.22-1.87-5.05-.76-7.47,1.05-2.28,3.54-3.32,5.96-2.98,3.16.45,5.63,2.88,7.14,5.55.99,1.76,1.62,3.79,1.82,5.84-1.32,2.14-2.27,4.46-2.49,6.93-.22,2.45.39,4.81,1.51,7.02Z"/>
      <path class="cls-3" d="M327.81,246.65c-2.57,4.06-5.76,7.72-9.35,10.91-7.29,6.49-16.26,11.06-25.67,13.59-9.54,2.56-19.6,2.92-29.34,1.34-9.88-1.6-19.3-5.21-27.8-10.5-4.09-2.55-8.07-5.5-11.48-8.92-6-6.01-8.54-14.12-3.31-21.48,1.79-2.52,4.01-4.7,6.32-6.73,2.19-1.92,4.44-3.76,6.7-5.6,4.47-3.65,8.97-7.23,13.68-10.57,4.68-3.32,9.51-6.44,14.52-9.26,4.92-2.76,10.02-5.25,15.31-7.22,4.88-1.82,10.01-3.16,15.26-3.12,11.04.09,20.78,6.6,27.88,14.6,3.92,4.42,7.31,9.4,10.29,14.5,1.39,2.38,2.59,4.92,3.01,7.66.37,2.44.19,4.93-.31,7.34-1,4.76-3.12,9.34-5.71,13.44Z"/>
      <path class="cls-10" d="M286.63,188.78c-.59.1-1.17.21-1.76.33-5.42,1.16-10.61,3.33-15.6,5.7-10.07,4.78-19.37,10.87-28.3,17.5.24-1.11.54-2.2.91-3.28.86-2.49,2.02-4.87,3.34-7.15,2.56-4.39,5.74-8.46,9.24-12.14,3.37-3.55,7.25-6.73,11.68-8.86,4.37-2.1,9.81-3.51,14.6-2.07,2.66.8,4.77,2.68,5.56,5.38.43,1.48.47,3.05.33,4.6Z"/>
      <path class="cls-7" d="M330.75,221.19c.39-4.02-2.06-7.73-4.62-10.84-7.46-9.07-17.47-16.69-29.07-18.48-12.53-1.94-25.17,3.14-35.83,10-5.59,3.6-10.88,7.61-16.19,11.6-5.27,3.96-19.72,9.97-17.2,18.68,1.05,3.63,4.24,6.33,7.75,7.73,3.51,1.4,7.35,1.68,11.12,1.91,24.83,1.49,50.62.93,73.25-9.4,4.95-2.26,10.27-5.79,10.79-11.21Z"/>
      <path class="cls-10" d="M273.74,249.42c-3.2-.41-6.43-.83-9.63-.45-3.2.38-6.42,1.63-8.54,4.06-2.12,2.43-2.89,6.17-1.31,8.98,1.64,2.93,5.35,4.18,8.7,3.87,3.34-.31,6.42-1.87,9.41-3.4-1.98.92-3.71-.48-4.72-2.42-1.02-1.94-.69-4.39.42-6.27,1.11-1.89,3.79-3.25,5.68-4.36Z"/>
      <path class="cls-8" d="M217.83,228.33c-.5-1.22-1.13-2.44-1.97-3.47-.76-.93-1.7-1.63-2.71-2.26-.48-.3-1-.54-1.54-.72-.47-.16-1.14-.43-1.61-.21-.27.12-.36.44-.13.66.34.32.92.36,1.34.55.47.21.93.48,1.33.8.84.67,1.43,1.58,1.98,2.49.59.97,1.01,2.04,1.4,3.11.36.98.59,2.73,1.79,3,.24.05.49-.05.65-.22.85-.96-.13-2.74-.53-3.73Z"/>
      <path class="cls-8" d="M332.51,226.82c.36-1.34.25-2.8-.11-4.13-.34-1.23-.7-2.47-1.13-3.68-.48-1.33-1.01-2.66-1.76-3.86-.69-1.11-1.43-2.17-2.22-3.21-3.28-4.3-7.23-8.05-11.33-11.56-2.12-1.81-4.27-3.61-6.5-5.28-2.41-1.81-4.95-3.51-7.72-4.71-2.73-1.17-5.57-1.89-8.53-2.05-2.51-.13-5.04.11-7.48.73-2.73.69-5.41,1.47-8.05,2.45-1.36.51-2.72,1.03-4.05,1.62-.66.3-1.31.62-1.97.94-.63.31-1.12.83-1.64,1.29-.2.18.01.49.24.49.58-.02,1.22.03,1.79-.11.62-.15,1.22-.38,1.83-.56,1.2-.36,2.39-.78,3.59-1.15,2.3-.7,4.59-1.29,6.94-1.64,1.18-.18,2.38-.23,3.57-.27.59-.02,1.19-.03,1.79-.01.27,0,.54.01.81.02.16,0,.32.01.49.02.03,0,.05,0,.07,0,.02,0,.05,0,.08,0,1.18.1,2.35.27,3.51.5.59.12,1.17.26,1.75.42.15.04.3.09.46.13.05.01.16.05.22.07.31.11.63.22.94.35,1.32.52,2.58,1.16,3.81,1.86.58.33,1.15.66,1.71,1.02.16.1.32.2.48.31.2.13.2.12.13.08.32.21.63.43.94.65,2.25,1.59,4.39,3.35,6.5,5.13,1.95,1.64,3.88,3.31,5.73,5.07.93.88,1.83,1.78,2.71,2.7.44.46.87.93,1.29,1.4.01.01.2.22.22.26.03.03.05.06.06.07.22.26.45.52.67.79.91,1.1,1.77,2.23,2.57,3.41.4.58.77,1.18,1.14,1.78.36.6.8,1.14,1.19,1.73.36.55.71,1.12,1.04,1.7.18.31.35.63.51.94.02.04.09.18.11.22.07.17.14.35.21.53.53,1.34,1.02,2.58,1.94,3.84.43.6,1.3.39,1.48-.3Z"/>
      <path class="cls-8" d="M285.5,185.61c.46-.7.12-1.56-.21-2.25-.34-.72-.77-1.38-1.3-1.98-1.06-1.22-2.41-2.19-3.91-2.8-1.55-.63-3.25-.84-4.92-.83-.82,0-1.65.07-2.46.19-.78.12-1.57.64-2.29.98-.26.12-.19.48.1.49.39.01.79.02,1.18.08.38.07.74.15,1.13.13.71-.04,1.41-.1,2.12-.08,1.4.03,2.81.28,4.13.76,1.28.47,2.45,1.21,3.39,2.2.43.45.8.98,1.09,1.53.33.62.46,1.35,1.07,1.76.33.22.66.16.88-.18Z"/>
      <path class="cls-8" d="M278.07,209.86c-.02-.2-.05-.34-.11-.57,0-.02-.01-.04-.02-.06-.23-.88-1.08-1.48-1.92-1.67-1.86-.42-4.1-.47-5.47,1.09-1.28,1.46-.68,3.57.92,4.45,1.78.98,3.94,0,5.48-.98.73-.47,1.21-1.4,1.12-2.27Z"/>
      <path class="cls-8" d="M265.2,205.32c-1.18.39-2.78.69-2.9,2.19-.04.51.14.87.58,1.14,1.27.78,2.44-.31,3.45-1.03,1.18-.84.29-2.77-1.13-2.3Z"/>
      <path class="cls-8" d="M273.35,217.18c-.71-.35-1.45-.5-2.24-.37-.71.11-1.28.28-1.79.85-.33.37-.64.83-.71,1.34-.13.99.43,1.86,1.42,2.09.74.17,1.56-.06,2.2-.42.08-.01.22-.1.28-.12.15-.07.3-.15.45-.23.02,0,.09-.03.19-.07,1.36-.5,1.5-2.41.19-3.06Z"/>
      <path class="cls-8" d="M277.15,233.88c-.17-.85-1.03-1.66-1.96-1.51,0,0-.01,0-.02,0-.47-.11-.97-.13-1.45-.1-.94.07-1.68.51-2.31,1.19-.84.91-.58,2.72.66,3.18.86.32,1.67.47,2.55.14.48-.18,1.01-.45,1.43-.81.81-.33,1.26-1.25,1.09-2.1Z"/>
      <path class="cls-3" d="M241.01,227.98c.15-.85-.28-1.8-1.09-2.16-.95-.42-2.04-.4-3.02-.08-1.02.33-1.87.86-2.63,1.6-.8.78-.86,2.35-.21,3.24.76,1.04,1.87,1.32,3.09,1.06,1.68-.36,3.58-1.9,3.88-3.64Z"/>
      <path class="cls-3" d="M250.51,232.3c.17-.69-.15-1.45-.66-1.9-.39-.35-.81-.6-1.34-.71-.55-.11-1.2-.13-1.72.11-.61.27-1.2.66-1.48,1.31-.22.52-.29,1.04-.18,1.6.11.53.37,1.08.8,1.42.49.39,1.2.74,1.85.62.52-.1.99-.16,1.43-.49.22-.16.45-.37.65-.57.37-.38.53-.88.66-1.39Z"/>
      <path class="cls-3" d="M246.39,220.13c.31-.82.22-1.46-.39-2.12-.5-.55-1.35-.56-2.02-.49-.98.1-1.71.78-1.94,1.72,0,.02-.01.05-.02.07-.21.87.34,1.82,1.11,2.2.02.01.05.02.07.03.88.43,1.85.14,2.51-.52.27-.27.52-.52.66-.89Z"/>
      <path class="cls-3" d="M258.23,219.36s.03-.08.05-.12c.03-.09.06-.18.08-.25.06-.08.1-.23.14-.31.3-.58.23-1.34-.13-1.87-.41-.61-1.02-.82-1.72-.85-.53-.02-1.05.11-1.52.34-1.02.5-1.47,1.43-1.47,2.54,0,1.41,1.66,2.46,2.94,1.96.72-.28,1.27-.74,1.62-1.44Z"/>
      <path class="cls-4" d="M305.84,227.93c-2.1,2.13-5.41,3.06-8.34,2.69-1.53-.19-3-.69-4.26-1.59-1.69-1.19-2.98-2.84-4.11-4.56-3.78-5.78-4.51-14.43,2.1-19.07,2.45-1.72,5.65-2.07,8.53-1.41,3.05.7,5.63,2.55,7.3,5.19,1.73,2.72,2.41,6,2.29,9.19-.13,3.33-1.11,7.13-3.51,9.56Z"/>
      <path class="cls-5" d="M307.88,224.92c-.18-.08-.35-.17-.53-.26-.91-.46-1.76-1-2.58-1.6-1.62-1.18-3.08-2.57-4.19-4.25-2.06-3.11-3.01-6.88-2.77-10.59.06-.97.21-1.94.43-2.89.12-.52.27-1.03.43-1.53.37.05.73.12,1.09.2,3.05.7,5.63,2.55,7.3,5.19,1.73,2.72,2.41,6,2.29,9.19-.09,2.15-.52,4.5-1.47,6.54Z"/>
      <path class="cls-5" d="M332.46,240.25c1.93-4.61,3.32-9.78,2.43-14.8-.49-2.75-1.67-5.29-3.07-7.69-1.52-2.61-3.2-5.12-4.95-7.58-6.6-9.23-15.14-17.7-26.37-20.81-5.14-1.42-10.44-1.38-15.63-.26-5.42,1.16-10.61,3.32-15.6,5.7-10.68,5.07-20.5,11.62-29.93,18.72-4.75,3.58-9.48,7.27-13.88,11.28-4.17,3.8-8.9,8.87-9.44,14.84-.69,7.64,6.75,14.42,12.17,18.7,8.05,6.35,17.43,10.92,27.33,13.56,9.85,2.63,20.31,3.37,30.42,1.87,9.93-1.47,19.57-5.24,27.8-10.99,8.11-5.66,14.89-13.37,18.72-22.54ZM292.79,271.14c-9.54,2.56-19.6,2.92-29.34,1.34-9.88-1.6-19.3-5.21-27.8-10.5-4.09-2.55-8.07-5.5-11.48-8.92-5.99-6.01-8.54-14.12-3.31-21.48,1.79-2.52,4.01-4.7,6.32-6.73,2.19-1.92,4.44-3.76,6.7-5.6,4.47-3.65,8.97-7.23,13.68-10.57,4.68-3.32,9.51-6.44,14.52-9.26,4.92-2.76,10.02-5.25,15.31-7.22,4.88-1.82,10.01-3.16,15.26-3.12,11.04.09,20.78,6.6,27.88,14.61,3.92,4.42,7.31,9.4,10.29,14.5,1.39,2.38,2.59,4.92,3.01,7.66.37,2.45.19,4.93-.31,7.34-1,4.76-3.12,9.34-5.71,13.44-2.57,4.06-5.76,7.72-9.35,10.91-7.29,6.49-16.26,11.06-25.67,13.59Z"/>
      <path class="cls-5" d="M331.98,240.96c.02-.36-.02-.72-.11-1.08-.17-.73-.56-1.43-1.04-1.99-1.13-1.32-2.87-1.89-4.55-2.02-1.87-.14-3.79.2-5.61.6-1.88.42-3.73,1.02-5.49,1.8-.96.42-1.89.89-2.8,1.41-.47.27-.93.55-1.38.87-.47.33-.79.74-1.16,1.17-.18.21.04.58.31.46.36-.15.76-.25,1.11-.43.37-.19.73-.43,1.09-.65.72-.44,1.46-.86,2.21-1.23,1.54-.77,3.16-1.4,4.82-1.88,1.62-.47,3.29-.82,4.98-.97,1.62-.15,3.42-.14,4.85.74.64.39,1.22.97,1.58,1.63.19.35.34.74.39,1.13.03.19.01.37.03.56.02.22.14.39.17.61.01.08.13.14.19.06.21-.28.39-.43.4-.8Z"/>
      <path class="cls-5" d="M292.11,279.02c1.03-1.37,1.97-2.81,2.83-4.3.44-.76.85-1.54,1.24-2.32.28-.56.54-1.09.71-1.66-.46.17-.92.33-1.39.48-.33.65-.62,1.33-.97,1.97-.68,1.26-1.42,2.5-2.23,3.68-1.45,2.12-3.1,4.23-5.3,5.62-1.93,1.22-4.33,1.68-6.5.81-2.14-.86-3.32-2.86-3-5.15.19-1.34.77-2.6,1.57-3.69.07-.09.14-.18.21-.28-.37.06-.74.11-1.12.13-.65.89-1.15,1.87-1.43,2.95-.61,2.38.09,4.9,2.18,6.31,1.97,1.33,4.59,1.53,6.8.73,2.67-.97,4.72-3.07,6.4-5.29Z"/>
      <path class="cls-5" d="M285.38,282.55c.48-.69.96-1.39,1.45-2.08.93-1.34,1.83-2.71,2.68-4.1.06-.09-.09-.18-.16-.1-1.05,1.32-2.06,2.67-3.03,4.04-.93,1.31-2.06,2.61-2.73,4.08-.07.16.13.28.24.16.61-.6,1.06-1.3,1.55-2Z"/>
      <path class="cls-5" d="M286.43,275.97c.06-.1-.09-.19-.17-.11-1.11,1.22-2.13,2.52-3.27,3.72-.56.59-1.13,1.16-1.72,1.71-.6.57-1.33,1.08-1.84,1.73-.1.12.04.27.18.2.68-.37,1.25-1,1.81-1.52.64-.6,1.26-1.22,1.87-1.86,1.14-1.2,2.26-2.47,3.14-3.87Z"/>
      <path class="cls-5" d="M276.49,260.42c.19-.33-.24-.61-.52-.45-1.47.82-2.73,1.96-4.2,2.79-1.47.83-3.05,1.46-4.68,1.89-3.17.83-6.9.98-9.99-.23-1.49-.59-3.06-1.61-3.61-3.2-.6-1.74.11-3.74.96-5.27,1.78-3.18,5.13-5.3,8.59-6.17,4-1,8.13-.37,12.14.23.14.02.22-.19.08-.24-1.84-.7-3.68-1.15-5.65-1.31-1.94-.15-3.9-.11-5.81.26-3.8.72-7.46,2.75-9.66,6-1.05,1.56-1.88,3.45-1.83,5.36.05,1.86,1.09,3.47,2.6,4.5,3.08,2.1,7.25,2.27,10.82,1.66,2.08-.36,4.07-1.02,5.96-1.97,1.79-.9,3.76-2.07,4.79-3.85Z"/>
      <g>
        <path class="cls-5" d="M263.35,252.34c-1.5.31-3.01.6-4.5.94-.73.16-1.45.35-2.18.52-.43.1-.98.16-1.45.31-.08.1-.16.19-.24.29-.1.12-.19.24-.28.36.62.08,1.34-.23,1.94-.39.76-.19,1.52-.38,2.27-.57,1.51-.4,3-.85,4.5-1.28.12-.03.06-.2-.06-.18Z"/>
        <path class="cls-5" d="M260.92,256.53c-1.59.31-3.18.66-4.71,1.19-.78.27-1.55.56-2.31.87-.43.17-.96.33-1.41.57,0,.01,0,.03,0,.05-.03.22-.07.43-.1.65.58-.14,1.17-.52,1.7-.74.76-.32,1.53-.61,2.3-.89,1.52-.54,3.02-1.1,4.57-1.56.08-.02.05-.16-.03-.14Z"/>
        <path class="cls-5" d="M263.87,260.25c-1.17.55-2.27,1.18-3.37,1.87-1.09.68-2.28,1.32-3.17,2.26-.2.21.05.58.32.47,1.22-.46,2.26-1.3,3.31-2.04,1.05-.75,2.06-1.52,3.02-2.38.08-.07-.02-.22-.12-.17Z"/>
      </g>
      <path class="cls-5" d="M218.45,245.66c-3.18,3.58-6.68,7.58-11.54,8.7-1.2.28-2.75.48-3.9-.02-1.23-.53-1.66-1.91-1.69-3.15-.06-2.7,1.63-5.21,3.47-7.05.93-.93,1.96-1.74,2.94-2.61.84-.75,1.71-1.75,1.59-2.97-.13-1.32-1.45-2.28-2.28-3.2-.99-1.1-1.93-2.28-2.67-3.57-1.27-2.22-1.87-5.05-.76-7.47,1.05-2.28,3.54-3.32,5.96-2.98,3.16.45,5.63,2.88,7.14,5.55,1.23,2.19,1.92,4.81,1.89,7.35.26-.4.55-.79.88-1.15,0-1.95-.37-3.88-1.16-5.7-1.2-2.77-3.24-5.31-5.99-6.66-2.48-1.21-5.65-1.22-7.94.45-2.31,1.7-3.08,4.73-2.62,7.46.52,3.08,2.45,5.61,4.52,7.86.51.55,1.18,1.08,1.56,1.74.3.53.1,1.06-.24,1.52-.84,1.12-2.11,1.9-3.1,2.88-2.03,2.03-3.89,4.49-4.29,7.41-.19,1.36-.04,2.83.72,4,.83,1.29,2.25,1.73,3.71,1.75,5.56.07,10-4.08,13.47-7.96.29-.33.58-.66.87-1-.2-.38-.38-.78-.54-1.18Z"/>
      <g>
        <path class="cls-5" d="M202.87,255.16s.05-.04.08-.05c.52-.34,1.04-.68,1.56-1.03,1-.68,1.99-1.38,2.96-2.11,1.9-1.44,3.74-2.92,5.36-4.66.06-.07-.03-.17-.11-.12-1.92,1.4-3.75,2.93-5.68,4.33-.95.7-1.9,1.38-2.88,2.04-.49.33-.98.66-1.47.98-.13.09-.27.17-.41.26.2.12.39.24.58.37Z"/>
        <path class="cls-5" d="M209.05,244.51c-1.33,1.06-2.69,2.09-4.08,3.06-.67.47-1.35.92-2.05,1.36-.75.47-1.54.88-2.23,1.44-.14.11-.04.37.15.3,1.58-.57,3.04-1.71,4.4-2.69,1.4-1.01,2.71-2.1,3.95-3.31.08-.08-.04-.22-.13-.15Z"/>
      </g>
      <g>
        <path class="cls-5" d="M213.78,228.48c-.94-2.08-2.09-4.02-3.42-5.88-.53-.73-1.08-1.44-1.65-2.14-.26,0-.51.02-.77.03.69.81,1.36,1.65,1.99,2.51,1.31,1.78,2.49,3.68,3.57,5.61.08.15.35.03.28-.13Z"/>
        <path class="cls-5" d="M210.74,230.54c-.74-1.49-1.71-2.85-2.77-4.13-1.01-1.21-2.09-2.44-3.45-3.27-.21-.13-.43.17-.31.35.87,1.36,2.04,2.52,3.08,3.74,1.03,1.21,2.03,2.44,3.1,3.61.19.21.44-.09.34-.3Z"/>
      </g>
      <path class="cls-5" d="M283.73,178.94c-4.42-2.89-10.55-1.96-15.23-.27-4.9,1.77-9.22,4.85-12.96,8.42-3.85,3.67-7.12,7.92-9.95,12.4-1.65,2.61-3.1,5.35-4.17,8.25-.75,2.03-1.36,4.14-1.6,6.29.3-.22.62-.44.94-.63.29-1.48.64-2.94,1.14-4.36.86-2.49,2.02-4.87,3.34-7.15,2.56-4.39,5.74-8.46,9.24-12.14,3.37-3.55,7.25-6.73,11.68-8.86,4.37-2.1,9.82-3.51,14.6-2.07,2.66.8,4.77,2.68,5.56,5.38.47,1.61.47,3.31.29,4.99.3-.09.61-.16.92-.21.68-3.75-.45-7.85-3.78-10.03Z"/>
      <g>
        <path class="cls-5" d="M273.25,181.04c.7-1.03,1.45-2.03,2.24-2.99-.26.04-.52.08-.78.12-.71.86-1.37,1.75-2,2.67-1.85,2.73-3.41,5.66-4.31,8.84-.05.16.21.24.28.09,1.3-3.02,2.71-6.01,4.56-8.73Z"/>
        <path class="cls-5" d="M263.69,193.06c.14-.83.3-1.66.5-2.48.39-1.61.89-3.2,1.5-4.74.9-2.25,2.01-4.41,3.34-6.44-.3.09-.6.19-.9.3-1.98,3.1-3.47,6.54-4.39,10.06-.25.93-.45,1.87-.62,2.82-.15.85-.43,1.87-.23,2.72.04.18.32.18.39.02.31-.68.3-1.54.42-2.27Z"/>
        <path class="cls-5" d="M258.22,193.3c.43-1.97.93-3.94,1.56-5.85.5-1.5,1.1-2.94,1.79-4.33-.34.24-.67.49-1,.74-.5,1.1-.93,2.22-1.31,3.34-1.3,3.79-2.31,7.85-2.62,11.86-.01.16.2.21.25.05.55-1.91.9-3.86,1.33-5.8Z"/>
        <path class="cls-5" d="M251.26,192.58c-.33.38-.65.76-.96,1.15-.33,1.7-.43,3.46-.1,5.15.05.25.39.23.4-.03.07-2.12.17-4.22.66-6.28Z"/>
      </g>
      <path class="cls-10" d="M270.5,223.61c-.87-.42-1.76-.87-2.4-1.6-.66-.75-1.05-1.69-1.12-2.69-.16-2.14,1.46-4.05,3.51-4.49.27-.06.23-.43.03-.54-1.59-.93-1.84-3.33-1.05-4.84.94-1.82,3.15-2.73,5.07-3.02.21-.03.2-.34-.02-.34-2.32.04-4.81,1.09-5.79,3.34-.41.94-.51,2.02-.26,3.02.21.84.63,1.48,1.26,1.99-2.06.7-3.6,2.76-3.61,4.95,0,2.2,1.95,4.84,4.29,4.76.29,0,.35-.42.1-.54Z"/>
      <path class="cls-10" d="M273.9,238.38c-.34-.21-.79-.28-1.17-.38-.41-.1-.8-.24-1.18-.44-.75-.41-1.44-1.08-1.78-1.87-.7-1.67-.09-3.79,1.4-4.82.14-.1,0-.31-.15-.22-1.84,1.08-2.83,3.3-2.23,5.38.32,1.09,1.03,2.02,1.98,2.63.82.53,2.29,1.13,3.17.41.25-.2.22-.52-.05-.69Z"/>
      <path class="cls-10" d="M262.32,233.48c-.63-.6-1.43-.94-2.01-1.6-.57-.65-.98-1.51-1.08-2.37-.22-1.84.9-3.79,2.57-4.57.18-.09.1-.37-.1-.31-2.08.71-3.52,2.66-3.49,4.87.01,1.1.44,2.18,1.12,3.04.66.83,1.66,1.73,2.79,1.56.31-.04.44-.4.21-.62Z"/>
      <path class="cls-10" d="M262.23,212.04c-.4-.7-.94-1.29-1.21-2.07-.27-.79-.35-1.64-.17-2.46.37-1.72,1.83-3.1,3.49-3.56.12-.03.08-.24-.04-.22-1.95.27-3.56,1.68-4.08,3.58-.25.92-.22,1.92.06,2.83.27.87.78,1.86,1.65,2.25.22.1.41-.14.3-.34Z"/>
      <path class="cls-10" d="M254.11,222.04c-.35-.63-.81-1.14-1.05-1.83-.24-.7-.3-1.45-.15-2.17.33-1.56,1.5-2.81,3.02-3.25.16-.05.07-.27-.08-.24-1.7.35-3.21,1.64-3.62,3.36-.35,1.46.06,3.78,1.54,4.51.25.12.45-.17.33-.38Z"/>
      <path class="cls-10" d="M254.35,244.94c-.05-.43-.41-.61-.69-.9-.34-.35-.62-.77-.81-1.22-.4-.94-.44-1.99,0-2.92.06-.14-.13-.22-.21-.1-.6.95-.78,2.1-.53,3.19.17.76.98,2.61,2.02,2.28.13-.04.23-.19.22-.33Z"/>
      <path class="cls-10" d="M246.54,236.61c-.63-.63-1.38-1.07-1.91-1.81-.51-.72-.85-1.57-.94-2.45-.19-1.84.65-3.7,2.16-4.77.2-.14,0-.46-.22-.32-1.71,1.11-2.82,3.09-2.68,5.15.07,1.02.43,2,1.01,2.84.55.8,1.37,1.66,2.37,1.81.26.04.4-.26.22-.44Z"/>
      <path class="cls-10" d="M242.98,222.91c-.77-.8-1.3-1.79-1.31-2.92-.01-1.03.42-2.3,1.33-2.88.13-.08.02-.32-.12-.25-.63.29-1.14.6-1.51,1.22-.36.59-.56,1.29-.59,1.98-.03.7.13,1.41.44,2.04.33.67.83,1.08,1.54,1.28.28.08.39-.3.23-.47Z"/>
      <path class="cls-10" d="M236.12,240.85c-.6-.46-1.25-.82-1.76-1.4-.54-.62-.94-1.37-1.01-2.19-.14-1.64.79-3.24,2.25-3.97.3-.15.11-.53-.12-.61-1.33-.44-1.81-2.12-1.53-3.37.36-1.62,1.75-2.74,2.77-3.96.16-.19-.08-.49-.3-.34-1.52,1.08-3.09,2.73-3.27,4.68-.12,1.34.4,2.74,1.56,3.38-1.3.98-2.12,2.57-1.98,4.23.14,1.66,1.29,3.88,3.16,4.01.24.02.46-.29.23-.47Z"/>
      <path class="cls-10" d="M242.23,249.64c-.07-.34-.25-.57-.42-.87-.15-.28-.24-.57-.28-.89-.1-.72.02-1.41.48-1.98.11-.14-.05-.32-.2-.23-.79.47-1.28,1.31-1.33,2.22-.04.83.32,2.17,1.3,2.26.31.03.5-.21.44-.51Z"/>
      <path class="cls-5" d="M295.83,191.08c1.78-.98,3.82-1.36,5.91-1.51,1.14-.2,2.31-.26,3.39-.69.37-.15.42-.66.05-.85-1.51-.75-3.38-.31-4.92.15-.8.24-1.59.54-2.32.93-.73.39-1.52.85-2,1.54-.09.13-.12.28-.11.42Z"/>
      <path class="cls-5" d="M322.19,192.73c-1.34-.61-3-.13-4.21.58-.36.21,0,.71.35.53,1.22-.62,2.44-.54,3.76-.58.28,0,.35-.41.1-.52Z"/>
      <path class="cls-5" d="M310.05,221.06c1.18-6.65-1.24-14.47-7.87-17.27-2.22-.93-4.75-1.29-7.14-.88,1.08-.31,2.2-.49,3.33-.53.8-.02,1.61-.03,2.42,0,.83.02.79-1.18.08-1.37-3.47-.95-7.5.29-10.41,2.24-3.03,2.03-5.13,5.17-5.94,8.72-.87,3.78-.15,7.57,1.73,10.92,2.02,3.59,4.7,7.41,8.79,8.74,3.21,1.04,6.83.41,9.63-1.43,3.16-2.07,4.75-5.53,5.39-9.16ZM305.84,227.93c-2.1,2.13-5.41,3.06-8.34,2.69-1.53-.19-3-.69-4.26-1.59-1.69-1.19-2.98-2.84-4.11-4.56-3.78-5.78-4.51-14.43,2.1-19.07,2.45-1.72,5.65-2.07,8.53-1.41,3.05.7,5.63,2.55,7.3,5.19,1.73,2.72,2.41,6,2.29,9.19-.13,3.33-1.11,7.13-3.51,9.56Z"/>
      <path class="cls-5" d="M308.54,225.24c-.4-.19-.8-.37-1.2-.57-.91-.46-1.76-1-2.58-1.6-1.62-1.18-3.08-2.57-4.19-4.25-2.06-3.11-3.01-6.88-2.77-10.59.06-.97.21-1.94.43-2.89.12-.53.27-1.05.44-1.56.02-.05.03-.09.04-.14-.02,0-.05-.02-.07-.02-.02,0-.05,0-.08-.02-.11-.02-.22-.05-.33-.07-.04,0-.08-.01-.12-.02-.16.46-.3.93-.43,1.4-.23.89-.4,1.8-.49,2.71-.19,1.84-.11,3.7.26,5.51.79,3.98,2.99,7.63,6.01,10.32.9.8,1.91,1.49,2.96,2.07.48.27.96.52,1.46.72.22-.33.44-.67.65-1Z"/>
      <path class="cls-6" d="M302.88,211.09c.28-.3.47-.65.56-1.04.15-.36.21-.74.17-1.14-.02-.27-.08-.53-.16-.78-.01-.03-.02-.06-.03-.1-.3-.94-1.15-1.68-2.12-1.85-.03,0-.07-.01-.1-.02-.26-.05-.52-.06-.79-.05-.4.01-.77.12-1.1.32-.38.15-.69.38-.95.7-.2.2-.36.44-.48.71-.02.06-.05.12-.07.18-.08.24-.16.48-.24.72-.09.38-.08.75.03,1.12.02.26.1.49.24.71.14.37.37.68.69.93.22.14.44.29.66.43l.72.24c.38.09.75.08,1.12-.03.38-.04.73-.18,1.05-.41.06-.03.11-.06.17-.09.25-.15.46-.34.64-.57Z"/>
      <path class="cls-6" d="M303.48,218.6c-.59-.52-1.4.41-.8.92.59.52,1.4-.41.8-.92Z"/>
      <path class="cls-5" d="M200.54,233.51c-.28-2.21-.88-4.34-.93-6.58-.05-2.27.15-4.48.79-6.67.07-.24-.33-.37-.42-.14-.8,2.16-1.34,4.48-1.37,6.79-.04,2.27.17,4.8,1.33,6.8.16.28.64.12.6-.2Z"/>
      <path class="cls-5" d="M215.22,257.48c.52-.76,1-1.55,1.49-2.33.3-.48.61-.96.91-1.44.3-.49.49-1.01.74-1.52.09-.19-.17-.36-.3-.2-.3.35-.64.65-.92,1.02-.3.4-.56.82-.84,1.23-.49.72-.97,1.44-1.47,2.15-.83,1.17-1.74,2.36-2.89,3.24-1.15.88-2.51,1.36-3.96,1.14-1.52-.23-2.87-1.02-4.36-1.35-1.43-.32-3.21-.45-4.37.62-.2.19.05.49.28.42,1.49-.45,2.8-.26,4.25.25,1.48.52,2.98,1.2,4.57,1.3,3.06.18,5.29-2.18,6.88-4.51Z"/>
      <path class="cls-5" d="M212.22,267.34c-.97.63-1.76.24-2.67-.25-.85-.46-1.59-1.04-2.35-1.63-1.33-1.05-3.57-2.62-5.21-1.25-.25.21-.15.64.21.62.97-.04,1.84.18,2.7.64.89.48,1.62,1.17,2.44,1.75.78.55,1.66,1.01,2.63,1.05.86.03,1.74-.09,2.45-.62.19-.14,0-.44-.2-.31Z"/>
      <path class="cls-5" d="M291.22,283.54c.09-.1-.02-.26-.15-.22-2.22.72-2.83,3.56-5.17,4.13-.92.22-1.88.08-2.78-.15-.91-.23-1.87-.62-2.82-.64-.23,0-.28.29-.14.42.72.72,1.85,1.13,2.82,1.37,1,.24,2.06.34,3.08.12,2.59-.56,3.57-3.23,5.16-5.03Z"/>
      <path class="cls-5" d="M268.66,275.55c-1.14.44-2.29.82-3.44,1.24-1.04.38-2.06.86-3.13,1.16-.91.26-1.9.34-2.77-.09-.83-.41-1.12-1.09-1.53-1.86-.13-.25-.56-.21-.65.05-.37.96.28,1.92,1.04,2.48.91.67,2.01.91,3.13.79,1.24-.14,2.37-.64,3.49-1.16,1.37-.64,2.69-1.36,4.06-2.01.36-.17.19-.76-.2-.6Z"/>
      <path class="cls-5" d="M256.12,183.98c.26-.06.17-.48-.09-.45-1.48.15-2.98.55-4.32,1.21-1.37.68-2.61,1.7-3.7,2.77-1.12,1.1-2.06,2.36-2.88,3.7-.94,1.55-1.66,3.26-2.79,4.7-1.04,1.34-2.47,2.36-4.1,2.82-.26.07-.23.49.04.52,3.42.44,5.49-3.12,6.86-5.66,1.55-2.86,3.43-5.5,6.16-7.35,1.49-1.01,3.05-1.84,4.81-2.26Z"/>
    </g>
    <g>
      <path class="cls-3" d="M1627,126.29c-.11,2.32,1.38,4.54,2.8,6.23,1.48,1.76,3.45,3.32,5.87,3.23.38-.01.61.44.5.76-2.79,8.35-5.73,17.82-1.5,26.25.72,1.43,1.82,2.95,3.36,3.56,1.86.74,3.53-.39,4.61-1.87,1.16-1.59,1.95-3.49,2.59-5.34.66-1.9,1.11-3.86,1.36-5.85.41-3.32.26-6.74-.4-10.04-.21-1.08-.48-2.15-.8-3.2-.08-.26.35-.41.45-.16.45,1.1.82,2.22,1.12,3.36,9.07,2.19,18.23,4.18,27.61,4.22,8.58.04,17.53-2.12,24.8-6.74,6.96-4.42,11.86-11.28,14.71-18.93,2.77-7.42,3.76-15.5,3.12-23.39-.64-7.87-2.91-15.63-6.53-22.65-3.62-7.01-8.66-13.42-14.88-18.3-3.24-2.54-6.94-4.69-11.04-5.43-3.89-.7-7.89-.06-11.5,1.49-3.71,1.6-7,4.08-9.71,7.06-2.87,3.15-5.07,6.91-6.85,10.76-1.8,3.92-3.2,8-4.51,12.1-1.39,4.36-2.75,8.73-3.99,13.13-2.52,8.93-4.52,17.94-5.24,27.2-.13,1.71-.22,3.42-.24,5.14.29.35.57.71.84,1.08.43.59-.31,1.24-.85.75-.07-.07-.15-.14-.22-.21-.03-.01-.05-.03-.06-.06-1.73-1.59-3.4-3.23-5.28-4.65-1.78-1.34-3.85-2.89-6.14-3.14-1.07-.11-2.14.14-2.92.91-.71.71-1.03,1.73-1.07,2.71Z"/>
      <path class="cls-10" d="M1642.74,88.88c.55,5.84,1.28,11.66,2.21,17.45.28-1.32.59-2.63.9-3.94,1.11-4.6,2.42-9.14,3.79-13.66,1.3-4.3,2.59-8.6,4.16-12.81,2.98-8,7.22-15.86,14.41-20.81,3.3-2.27,7.12-3.94,11.13-4.37.1-.01.19-.02.29-.03-3.99-3.92-8.43-7.32-13.49-9.8-3.27-1.6-6.97-3.18-10.69-2.86-3.43.3-6.24,2.39-8.25,5.07-2.13,2.83-3.39,6.21-4.23,9.62-.91,3.72-1.24,7.57-1.34,11.39-.1,3.99.04,8,.23,11.99.2,4.26.5,8.51.9,12.75Z"/>
      <path class="cls-10" d="M1682.22,130.23c-.27,2.02-.36,4.2.54,6.08.73,1.52,2.46,2.83,4.22,2.38.94-.24,1.72-1,2.42-1.64.65-.58,1.26-1.2,1.82-1.86,2.24-2.62,3.72-5.91,4.45-9.26.41-1.88.55-3.8.49-5.72-.02-.75-.09-1.51-.19-2.26-1.08.9-2.46,1.45-3.87,1.47-1.38.02-2.75-.44-3.86-1.26-.05.05-.09.09-.14.14-.63.64-1.22,1.33-1.77,2.05-1.09,1.44-2,3.01-2.7,4.68-.7,1.67-1.19,3.41-1.43,5.2Z"/>
      <path class="cls-10" d="M1646.96,146.48c.7,6.2-.36,12.79-3.99,17.86-1.01,1.41-2.48,2.8-4.21,2.64-1.89-.18-3.08-2.09-3.75-3.86-3.23-8.63-.88-18.24,1.5-27.14-2.88-.52-5.83-1.55-7.74-3.77-1.91-2.22-2.35-5.89-.31-7.99,1.78-1.83,4.81-1.88,7.13-.81,7.63,3.52,10.51,15.5,11.37,23.06Z"/>
      <path class="cls-7" d="M1654.15,82.86c2.48-7.05,5.16-14.19,9.85-20,4.7-5.81,11.82-10.15,19.27-9.65,10.02.67,17.86,10.19,19.19,20.15,1.33,9.96-2.6,19.95-8.06,28.38-7.8,12.07-18.9,21.98-31.77,28.37-3.12,1.55-6.43,2.92-9.91,2.97-12.22.18-8.59-12.65-7.09-20.58,1.91-10.12,5.11-19.94,8.53-29.63Z"/>
      <path class="cls-8" d="M1643,77.96c-.1-1.71-.15-3.43-.15-5.14,0-3.43.22-6.86.65-10.26.71-5.68,1.91-11.48,4.94-16.42.78-1.27,1.69-2.46,2.74-3.53,1.09-1.12,2.3-1.87,3.78-2.39.27-.1.54.22.3.44-.96.86-1.86,1.82-2.76,2.74-.88.9-1.63,1.91-2.3,2.97-1.39,2.23-2.33,4.71-3.04,7.23-1.63,5.86-2.24,12.1-2.33,18.16-.03,1.82,0,3.63.1,5.45.09,1.86.39,3.75.11,5.6-.09.56-.94.87-1.2.24-.66-1.62-.74-3.35-.85-5.08Z"/>
      <path class="cls-8" d="M1628.71,130.71c-.11-.69-.1-1.32.09-2,.32-1.13,1.12-3.19,2.6-2.97.33.05.59.25.66.59.24,1.13-.91,2.07-1.31,3.05-.21.5-.46.99-.66,1.49-.2.5-.51.96-.48,1.5,0,.17-.25.17-.29.02-.08-.34-.19-.51-.36-.8-.15-.27-.2-.59-.24-.89Z"/>
      <path class="cls-8" d="M1632.11,162.19c-.06-.54-.09-1.08-.11-1.63-.04-.94-.08-1.88-.06-2.82.04-1.9.19-3.81.43-5.7.47-3.82,1.29-7.61,2.47-11.28.33-1.05.73-2.06,1.17-3.07.23-.52.46-.99.8-1.44.33-.44.67-.88,1.01-1.32.25-.31.87-.19.8.28-.14.91-.18,1.86-.45,2.74-.28.9-.53,1.8-.82,2.69-.58,1.78-1.08,3.59-1.49,5.42-.81,3.61-1.26,7.32-1.37,11.02-.03,1.06-.07,2.12-.07,3.18,0,.5.01,1,0,1.5,0,.61-.13,1.1-.33,1.67-.23.66-1.16.71-1.48.1-.23-.44-.44-.85-.49-1.35Z"/>
      <path class="cls-8" d="M1675.97,71.19c-.08-1.33.78-2.2,1.98-2.59,1.1-.36,2.2-.13,3.21.37.75.37,1.5.91,1.84,1.71.22.53.15,1.16-.3,1.55-.24.21-.52.35-.79.51-.29.18-.39.22-.79.35-.07.02-.51.18-.27.08-.2.07-.41.14-.61.21-.15.04-.3.08-.46.11-.52.11-1.01.1-1.54.04-1.24-.15-2.2-1.07-2.28-2.34Z"/>
      <path class="cls-8" d="M1679.34,78.09c.55-1.28,1.76-2.29,3.24-2.11,1.08.13,2.3.67,2.72,1.74.26.68.32,1.29-.01,1.96-.3.61-.75.91-1.35,1.13.43-.14.32-.11-.34.12-.1,0-.19.01-.29.02-.01,0-.02,0-.04.01.11,0,.06,0-.04.02-.07.03-.13.05-.2.07-.25.08-.49.12-.73.14-.07.01-.14.03-.22.04-.85.12-1.68-.11-2.26-.76-.54-.61-.8-1.6-.47-2.37Z"/>
      <path class="cls-8" d="M1677.54,91.38c.34-.47.81-.8,1.39-.92.17-.01.34-.02.51-.03.15.02.3.06.45.09.01,0,.06,0,.14.02.62.06,1.41.38,1.63,1.03.28.85-.27,1.64-.94,2.1-.41.28-.78.5-1.31.54-.66.04-1.29-.2-1.73-.71-.49-.56-.6-1.5-.14-2.12Z"/>
      <path class="cls-8" d="M1679.98,97.84c.31-.12.63-.26.95-.34.51-.12.91-.07,1.41.06.5.13.9.37,1.3.68,1.13.88,1.05,2.48-.2,3.19-.45.26-.89.44-1.4.5-.52.06-.91.06-1.41-.13-.3-.12-.59-.3-.87-.45-1.28-.71-1.17-2.99.22-3.51Z"/>
      <g>
        <path class="cls-8" d="M1664.85,86.51c.42-.15.81-.31,1.27-.25.55.08,1,.35,1.22.84.02.05.06.17.12.35,0,.13.02.26.02.39,0,.19-.07.39-.14.56-.14.34-.49.83-.78,1.07-.39.32-.85.59-1.36.62-.77.05-1.48-.39-1.73-1.12-.37-1.08.38-2.09,1.38-2.46Z"/>
        <path class="cls-8" d="M1667.36,87.15s-.01-.03-.02-.05c-.02-.05-.01-.04.02.05Z"/>
        <path class="cls-8" d="M1667.36,87.15c.02.05.04.1.06.16-.02-.07-.04-.12-.06-.16Z"/>
      </g>
      <path class="cls-8" d="M1665.52,101.89c.23-.51.48-.91.99-1.17.27-.14.56-.2.86-.23.64-.06,1.23-.07,1.78.31.41.28.76.85.67,1.37-.12.64-.36,1.09-.87,1.51-.66.55-1.43.88-2.29.55-.87-.34-1.55-1.41-1.13-2.34Z"/>
      <path class="cls-8" d="M1679.38,113.41c.22-.09.44-.19.67-.24.41-.1.75.01,1.14.1.3.06.57.17.81.35.38.22.68.61.74,1.01.06.41-.04.9-.31,1.24-.15.24-.35.44-.6.6-.3.2-.46.33-.77.44-.32.11-.63.12-.96.11-.8-.01-1.61-.74-1.73-1.53-.12-.8.23-1.74,1.02-2.07Z"/>
      <path class="cls-8" d="M1645.3,126.81c-.04-.38.01-.77.04-1.15.05-.78.06-1.57.14-2.34.14-1.5.37-2.99.55-4.48.36-3.02.78-6.04,1.22-9.05.88-5.99,1.91-11.97,3.46-17.82,2.68-10.17,7.12-20.13,14.46-27.81,1.95-2.04,4.1-3.86,6.44-5.45,2.34-1.58,5.04-2.7,7.7-3.61.26-.09.45.26.2.39-2.24,1.18-4.18,2.66-6.16,4.22-1.92,1.51-3.71,3.14-5.39,4.91-3.39,3.57-6.23,7.75-8.56,12.08-5.25,9.77-7.55,20.84-9.17,31.74-.49,3.3-.9,6.62-1.39,9.92-.24,1.62-.48,3.24-.74,4.86-.14.88-.37,1.74-.58,2.6-.09.37-.15.77-.27,1.13-.15.43-.46.71-.77,1.02-.24.24-.66.12-.8-.15-.17-.33-.35-.63-.39-1Z"/>
      <path class="cls-8" d="M1682.41,128.98c-.03-.26-.07-.54-.01-.8.07-.28.21-.53.27-.83.06-.29.45-.34.53-.03.06.25.19.42.32.64.12.21.17.44.23.67.11.41.26.81.42,1.2.35.85.76,1.66,1.33,2.39.55.7,1.19,1.32,1.92,1.83.7.48,1.77.84,2.13,1.67.1.23.03.5-.21.62-.97.5-2.14-.27-2.9-.82-.85-.62-1.62-1.38-2.25-2.24-.61-.84-1.13-1.76-1.46-2.75-.17-.5-.26-1.02-.32-1.55Z"/>
      <path class="cls-5" d="M1646.44,143.16c.12-.02.26,0,.38.02,9.12,2.2,18.32,4.21,27.74,4.25,8.58.04,17.53-2.12,24.8-6.74,6.96-4.42,11.85-11.28,14.71-18.93,2.77-7.43,3.76-15.5,3.12-23.39-.64-7.87-2.91-15.63-6.53-22.65-3.62-7.01-8.66-13.42-14.88-18.3-3.24-2.54-6.94-4.69-11.04-5.43-3.89-.7-7.9-.06-11.5,1.5-3.71,1.6-7,4.08-9.71,7.06-2.87,3.15-5.07,6.91-6.85,10.76-1.8,3.92-3.2,8-4.51,12.11-1.39,4.36-2.75,8.73-3.99,13.13-2.52,8.93-4.52,17.94-5.24,27.2-.17,2.21-.26,4.43-.26,6.64,0,.2-.3.17-.31-.02-.28-9.46,1.26-18.82,3.46-27.99,1.11-4.6,2.42-9.14,3.79-13.66,1.3-4.3,2.59-8.6,4.16-12.81,2.98-8,7.22-15.86,14.41-20.81,3.3-2.27,7.12-3.93,11.13-4.37,4.14-.45,8.18.49,11.86,2.39,3.7,1.91,6.96,4.64,9.9,7.58,2.84,2.84,5.36,6,7.56,9.37,4.4,6.78,7.42,14.47,8.82,22.43,1.4,7.96,1.24,16.19-.71,24.05-1.96,7.91-5.79,15.53-11.8,21.12-6.43,5.98-14.98,9.2-23.59,10.33-9.41,1.23-19.02.21-28.26-1.72-2.08-.43-4.16-.9-6.23-1.39-.13-.58-.28-1.16-.43-1.74Z"/>
      <path class="cls-5" d="M1699.65,61.98s.03-.03.05-.04c-.08-.39.2-.78.42-1.09.3-.45.61-.89.91-1.34.29-.43.56-.87.8-1.33.29-.54.51-1.09.92-1.55.62-.68,1.76.02,1.7.84-.1,1.2-1.11,2.41-1.9,3.26-.39.42-.85.79-1.32,1.11-.36.24-.91.57-1.33.36-.01,0-.02.02-.04.03-.17.12-.38-.11-.21-.24Z"/>
      <path class="cls-5" d="M1686.02,114.35c.01-.29.42-.36.55-.11.57,1.15,1.05,2.27,2.02,3.16.94.86,2.21,1.44,3.5,1.47,2.72.04,5-2.07,5.71-4.6.04-.14.27-.09.25.05-.34,2.86-3.09,5.07-5.93,5.1-1.47.02-2.92-.5-4.06-1.42-1.09-.87-2.1-2.2-2.04-3.65Z"/>
      <path class="cls-5" d="M1680.8,132.22c.09-2,.5-3.99,1.12-5.89.69-2.12,1.7-4.15,2.95-6,.61-.9,1.29-1.76,2.02-2.57.23-.26.47-.51.71-.76.03.03.06.05.07.07.26.26.52.53.78.78.02.02.04.04.07.06-.13.13-.27.25-.39.38-.63.64-1.22,1.33-1.77,2.05-1.09,1.44-2,3.01-2.7,4.68-.7,1.67-1.19,3.41-1.43,5.2-.27,2.02-.36,4.2.54,6.08.73,1.52,2.46,2.83,4.22,2.38.94-.24,1.72-1,2.42-1.64.65-.58,1.26-1.2,1.82-1.86,2.24-2.62,3.72-5.91,4.45-9.27.41-1.88.55-3.8.49-5.72-.02-.84-.1-1.68-.22-2.51.23-.18.45-.37.64-.6.65,2.68.57,5.58.1,8.24-.66,3.71-2.21,7.15-4.46,10.16-.57.77-1.2,1.5-1.87,2.18-.72.74-1.51,1.5-2.45,1.94-1.82.86-3.91.15-5.28-1.21-1.62-1.61-1.95-4.01-1.85-6.19Z"/>
      <path class="cls-10" d="M1675.56,72.13c-.29-1.01-.45-2.3.06-3.27.42-.8,1.47-1.24,2.28-.76.12.07.02.27-.11.21-1.06-.47-1.85.65-1.94,1.59-.07.82.12,1.72.43,2.49.46,1.13,1.47,2.46,2.81,2.24.07-.02.15-.04.23-.05.56-.09.7.71.17.85-.05.01-.11.03-.16.04-1.48.42-1.51,2.62-.73,3.69.58.8,1.57,1.24,2.5,1.49.51.13,1.03.21,1.55.27.48.06,1.04.06,1.42.38.18.15.18.41-.03.53-.54.31-1.28.13-1.87.03-.65-.11-1.3-.25-1.92-.48-1.07-.39-2.15-1.07-2.68-2.12-.6-1.19-.52-2.92.36-3.92-1.21-.5-2.01-1.98-2.37-3.22Z"/>
      <path class="cls-10" d="M1677.55,95.96c-1.58-.78-2.82-2.38-2.67-4.2.15-1.82,1.97-3.79,3.91-3.16.2.06.2.43-.03.44-1.57.1-3.02,1.27-3.04,2.93-.02,1.78,1.57,3.11,3.19,3.45.51.11.35.82-.07.93-1.46.38-1.7,2.55-.82,3.58.55.65,1.39.98,2.22,1.12.46.08.91.07,1.38.1.39.03.88,0,1.22.22.15.1.22.34.1.49-.34.44-1.04.53-1.56.55-.58.02-1.19-.08-1.75-.24-1.09-.32-2.08-.99-2.66-1.99-.77-1.33-.54-3.26.6-4.24Z"/>
      <path class="cls-10" d="M1675.55,114.83c-.11-.82,0-1.65.4-2.38.44-.82,1.06-1.29,1.93-1.59.1-.03.21.09.11.17-1.03.76-1.85,2.34-1.57,3.63.15.68.6,1.29,1.12,1.73.41.35,1.32.57,1.51,1.1.05.15.04.3-.08.42-.65.61-1.77-.26-2.25-.71-.66-.62-1.06-1.49-1.17-2.38Z"/>
      <path class="cls-10" d="M1664.88,102.56c-.02-1.98,1.67-3.68,3.63-3.74.13,0,.14.2.01.23-1.59.29-3,1.86-2.79,3.54.1.76.52,1.42,1.11,1.91.59.49,1.32.66,1.94,1.08.22.15.21.51-.04.63-.96.45-2.05-.18-2.73-.88-.7-.72-1.13-1.75-1.14-2.76Z"/>
      <path class="cls-10" d="M1662.24,87.51c-.05-1.31.39-2.62,1.26-3.59.08-.09.26.02.21.14-.52,1.06-.75,2.22-.62,3.4.06.56.21,1.11.45,1.63.23.51.56.96.69,1.51.05.21-.19.44-.4.34-1.2-.52-1.54-2.25-1.58-3.43Z"/>
      <path class="cls-5" d="M1634.84,136.89c-2.11-.16-3.97-1.44-5.41-2.95-1.76-1.85-3.48-4.33-3.68-6.94-.19-2.37,1.01-4.86,3.41-5.56,2.59-.75,5.31.79,7.38,2.18,2.59,1.73,5.18,3.81,7.01,6.36.42.59-.31,1.24-.85.75-1.83-1.68-3.58-3.42-5.57-4.91-1.78-1.34-3.85-2.89-6.14-3.14-1.07-.11-2.14.14-2.92.91-.71.7-1.03,1.73-1.07,2.71-.11,2.32,1.38,4.54,2.8,6.23,1.48,1.76,3.45,3.32,5.87,3.23.38-.01.61.44.5.76-2.79,8.35-5.73,17.82-1.5,26.25.72,1.43,1.82,2.95,3.36,3.56,1.87.74,3.53-.39,4.61-1.87,1.16-1.59,1.95-3.49,2.59-5.34.66-1.9,1.11-3.86,1.36-5.85.55-4.41.09-8.99-1.2-13.24-.08-.26.35-.41.45-.16,1.64,3.97,2.21,8.23,1.85,12.51-.36,4.16-1.53,8.54-3.78,12.11-1.05,1.67-2.6,3.18-4.68,3.23-1.81.04-3.41-1.16-4.47-2.52-2.8-3.6-3.44-8.67-3.25-13.09.22-5.2,1.77-10.26,3.33-15.2Z"/>
      <path class="cls-5" d="M1642.74,88.88c.58,6.14,1.36,12.25,2.35,18.33-.22.58-.4,1.17-.55,1.77-.25-1.5-.49-3.01-.72-4.52-.66-4.36-1.21-8.73-1.66-13.11-.87-8.48-1.45-17.04-1.39-25.57.03-3.93.28-7.88,1.06-11.73.72-3.53,1.8-7.05,3.71-10.14,1.74-2.81,4.22-5.27,7.42-6.32,3.69-1.21,7.61-.14,11.05,1.33,6.42,2.73,12.33,6.85,16.91,12.14-.31-.03-.62-.02-.93.02-4.08-4.07-8.64-7.6-13.86-10.17-3.27-1.6-6.97-3.18-10.69-2.86-3.42.3-6.24,2.39-8.25,5.07-2.13,2.83-3.39,6.21-4.23,9.62-.91,3.72-1.24,7.57-1.34,11.39-.1,3.99.04,8,.23,11.99.2,4.26.5,8.51.9,12.75Z"/>
      <g>
        <path class="cls-5" d="M1647.29,42.06c3.8,1.11,7.54,2.41,11.22,3.89,1.95.78,3.88,1.61,5.8,2.49.1.05.05.21-.06.17-5.55-2.49-11.27-4.61-17.11-6.32.05-.07.1-.14.15-.22Z"/>
        <path class="cls-5" d="M1643.53,49.18c4.14,1,8.25,2.1,12.33,3.33,2.61.79,5.23,1.58,7.77,2.56.19.07.09.35-.1.29-4.6-1.34-9.14-2.83-13.77-4.04-2.13-.56-4.26-1.07-6.4-1.56.06-.19.12-.39.17-.58Z"/>
        <path class="cls-5" d="M1641.45,57.82c2.7.43,5.36,1.02,8,1.75,2.04.57,4.08,1.2,6.08,1.9.14.05.06.26-.07.22-4.58-1.54-9.34-2.57-14.14-3.19.05-.23.09-.45.14-.68Z"/>
        <path class="cls-5" d="M1641.27,69.43c.37.06.74.12,1.11.18,2.7.45,5.38,1.02,8.03,1.69.34.09.16.59-.18.51-2.67-.67-5.38-1.23-8.1-1.67-.27-.04-.53-.08-.8-.12-.02-.2-.04-.39-.07-.59Z"/>
        <path class="cls-5" d="M1641.58,79.2c.71.16,1.42.35,2.13.52,1.56.39,3.11.77,4.64,1.27.12.04.08.24-.05.22-1.54-.21-3.06-.52-4.59-.84-.67-.14-1.34-.27-2.02-.42-.03-.25-.06-.51-.11-.75Z"/>
      </g>
      <g>
        <path class="cls-5" d="M1637.55,166.69s.02.01-.01-.02c.18-.51.35-1.02.52-1.53,1.19-3.56,2.21-7.17,3.07-10.82.5-2.11.93-4.24,1.35-6.37.03-.17.31-.16.28.02-.99,6.45-2.73,12.81-4.95,18.96-.09-.08-.18-.16-.27-.24Z"/>
        <path class="cls-5" d="M1634.37,162.67c-.12-.15-.25-.3-.37-.45.24-.62.48-1.23.72-1.85,1.37-3.68,2.63-7.4,3.77-11.15.05-.16.29-.07.24.08-1.08,3.81-2.28,7.58-3.61,11.31-.24.68-.49,1.37-.74,2.06Z"/>
      </g>
      <path class="cls-5" d="M1638.56,180.33c.56.44,1.18.76,1.79,1.12.57.34,1.2.6,1.84.79,1.34.39,2.8.41,4.17.14,3.18-.64,5.56-3.02,7.06-5.79.92-1.7,1.57-3.55,2.02-5.42.05-.22.42-.14.39.08-.47,3.61-1.83,7.16-4.49,9.73-2.37,2.3-5.8,3.47-9.07,2.8-.88-.18-1.73-.48-2.5-.96-.78-.49-1.32-1.19-1.74-2-.16-.31.24-.71.54-.47Z"/>
      <path class="cls-5" d="M1646.53,189.73c2.45-.4,4.85-.94,6.99-2.27,2.15-1.34,3.77-3.24,5.04-5.41.11-.19.38-.03.32.16-.73,2.54-2.58,4.69-4.75,6.15-2.18,1.46-4.92,2.51-7.56,2.01-.32-.06-.42-.56-.04-.62Z"/>
      <path class="cls-5" d="M1608.12,122.7c-.26-3.44,1.62-6.48,4.67-8.03.17-.09.3.17.13.26-2.86,1.57-4.19,5.07-3.53,8.19.39,1.81,1.25,3.45,2.24,4.99.51.79,1.04,1.55,1.58,2.31.56.79,1.3,1.57,1.46,2.54.07.43-.37.69-.73.49-.91-.5-1.43-1.58-2.01-2.42-.6-.87-1.2-1.74-1.73-2.65-1.03-1.74-1.92-3.66-2.07-5.7Z"/>
      <path class="cls-5" d="M1603.7,127.61c-.05-.3.38-.38.46-.09.45,1.64,1.25,3.21,2.19,4.63.48.71,1.02,1.37,1.6,2,.52.57,1.25,1.13,1.56,1.85.13.29-.13.54-.42.48-.81-.18-1.49-.95-2.02-1.55-.6-.69-1.13-1.46-1.59-2.24-.93-1.57-1.47-3.28-1.79-5.07Z"/>
      <g>
        <path class="cls-5" d="M1682.31,137.27c-.12-.15-.23-.3-.34-.45.31-.52.61-1.03.9-1.56,1.56-2.83,2.87-5.79,3.87-8.87.05-.14.26-.07.22.07-.92,3.1-2.12,6.13-3.64,8.98-.32.61-.66,1.22-1,1.82Z"/>
        <path class="cls-5" d="M1685.25,139.82c-.06-.04-.12-.07-.14-.08-.13-.08-.25-.16-.38-.24,1.2-1.82,2.35-3.67,3.27-5.65,1.21-2.6,2.15-5.34,2.77-8.13.04-.18.36-.12.33.07-.52,2.91-1.38,5.73-2.62,8.42-.9,1.95-1.95,3.89-3.24,5.63Z"/>
      </g>
      <g>
        <path class="cls-5" d="M1627.92,122.41c.13-.07.27-.14.4-.2.03-.02.07-.03.1-.05.55.38,1.08.77,1.61,1.18,1.01.78,1.97,1.62,2.88,2.51.93.89,1.9,1.81,2.58,2.91.12.19-.16.44-.33.29-.94-.81-1.72-1.78-2.6-2.64-.94-.92-1.92-1.79-2.93-2.62-.57-.47-1.16-.92-1.75-1.36.02-.01.04-.02.04-.02Z"/>
        <path class="cls-5" d="M1625.99,125.95c2.28,1.49,4.56,2.98,6.72,4.62.11.08,0,.25-.12.18-2.25-1.33-4.42-2.81-6.58-4.29-.02-.18-.03-.34-.02-.51Z"/>
      </g>
      <g>
        <path class="cls-4" d="M1707.15,87.37c.8,2.12,1.65,4.39,3.05,6.19,1.2,1.54,3.49,3.25,5.45,1.97,1.83-1.19,2.41-3.8,2.72-5.81.74-4.81-.32-9.75-2.36-14.13-1-2.14-2.1-4.51-3.85-6.16-.97-.91-2.69-1.6-4.01-1.12-3.43,1.24-3.15,8.35-2.88,11.23.25,2.65.93,5.33,1.88,7.82Z"/>
        <path class="cls-5" d="M1703.88,81.08c-.52-3.1-.44-6.31.52-9.31.37-1.15.87-2.37,1.55-3.41.11-.23.26-.45.44-.63.02-.02.05-.05.07-.07,3-2.7,7.21,1.88,8.75,4.28,2.93,4.58,4.67,10.24,4.43,15.7-.11,2.53-.56,5.42-2.09,7.51-.69.95-1.6,1.72-2.78,1.98-1.31.29-2.63-.21-3.7-.94-2.11-1.44-3.3-3.83-4.29-6.1-1.25-2.9-2.39-5.88-2.92-9ZM1707.15,87.37c.8,2.12,1.65,4.39,3.05,6.19,1.2,1.54,3.49,3.25,5.45,1.97,1.83-1.19,2.41-3.8,2.72-5.81.74-4.81-.32-9.75-2.36-14.13-1-2.14-2.1-4.51-3.85-6.16-.97-.91-2.69-1.6-4.01-1.12-3.43,1.24-3.15,8.35-2.88,11.23.25,2.65.93,5.33,1.88,7.82Z"/>
        <path class="cls-5" d="M1712.07,75c.47-1.15,1.28-2.47,2.37-3.21.09.23.18.45.28.67-.22.23-.44.47-.64.73-.42.54-.75,1.14-1.03,1.77-.55,1.26-.82,2.6-.84,3.98-.04,3.24,1.46,6.23,3.45,8.71.59.74,1.22,1.47,1.9,2.13.44.43.9.82,1.36,1.23-.16.4-.31.8-.44,1.21-1.21-1.1-2.31-2.37-3.33-3.64-1.15-1.42-2.17-2.98-2.87-4.68-1.16-2.81-1.37-6.06-.21-8.91Z"/>
        <path class="cls-5" d="M1712.22,78.94c-.04,3.24,1.46,6.23,3.45,8.71.59.74,1.22,1.47,1.9,2.13.22.22.46.43.69.64.04-.24.08-.47.12-.7.74-4.81-.32-9.75-2.36-14.13-.45-.97-.92-1.98-1.46-2.95-.16.17-.32.35-.46.54-.42.54-.75,1.14-1.03,1.77-.55,1.26-.82,2.6-.84,3.98Z"/>
        <path class="cls-6" d="M1710.49,77.76c-.01-.18-.02-.37-.03-.55.03-.36.14-.69.34-.99l.35-.4c.28-.24.6-.4.96-.48.28-.07.55-.06.81.02.27.03.51.13.73.29.23.14.41.33.54.57.17.22.28.46.33.74.01.18.02.37.03.55-.03.36-.14.69-.34.99-.12.13-.23.26-.35.4-.28.24-.6.4-.96.48-.28.07-.55.06-.81-.02-.27-.03-.51-.13-.73-.29-.23-.14-.41-.33-.54-.57-.17-.22-.28-.46-.33-.74Z"/>
      </g>
    </g>
    <g>
      <path class="cls-3" d="M1053.15,195.21c1.25,1.6,2.42,3.74,1.42,5.76-.43.86-1.2,1.47-2.19,1.52-1.19.06-2.27-.63-3.22-1.27-2.23-1.51-4.39-3.12-6.5-4.79-.54-.43-1.09-.85-1.63-1.28-.16-.13-.34-.16-.5-.13,0,.04-.02.07-.02.11-.1.04-.17.13-.2.27-.76,4.09-1.54,8.17-2.31,12.26-.65,3.48-1.32,6.96-2.17,10.41-1.64,6.71-3.99,13.47-8.33,18.94-2.09,2.64-4.61,4.85-7.46,6.63-2.76,1.72-5.79,3.04-8.9,4-7.03,2.16-14.54,2.38-21.81,1.61-3.64-.39-7.29-.94-10.85-1.79-2.83-.67-5.68-1.61-8.12-3.23-2.5-1.65-4.3-4.07-4.77-7.07-.29-1.82-.18-3.68-.08-5.51.12-2.05.29-4.09.51-6.13.45-4.04,1.1-8.06,1.97-12.02.82-3.72,1.89-7.42,3.36-10.93,2.61-6.26,6.72-12,12.71-15.4,2.83-1.61,5.96-2.58,9.21-2.76,3.84-.21,7.64.51,11.4,1.18,4.05.72,8.11,1.4,12.17,2.1,4.1.71,8.2,1.48,12.31,2.11,1.97.3,3.94.59,5.91.84.14.02.2-.19.05-.23-.25-.06-.49-.11-.74-.16.03-.18.05-.36.07-.53.09-.67.19-1.35.31-2.01.24-1.32.52-2.62.92-3.91.81-2.63,2.01-5.13,3.22-7.6.73-1.48,1.83-3.71,3.75-3.77,1.99-.06,2.77,2.27,2.81,3.89.06,2.27-1.12,4.38-1.06,6.65.06,2.51,1.91,4.29,3.45,6.07.91,1.06,1.82,2.11,2.73,3.17.86,1,1.75,1.99,2.57,3.03Z"/>
      <path class="cls-10" d="M1002.06,184.26c-1.27-.21-2.54-.4-3.82-.54-3.6-.38-7.23-.25-10.68.94-3.24,1.12-6.14,3-8.63,5.34.1-.4.21-.8.32-1.19.99-3.44,2.55-6.81,4.71-9.68,2.01-2.67,4.7-4.91,8.05-5.56,1.62-.32,3.36-.23,4.9.39,1.43.58,2.67,1.58,3.57,2.83,1.59,2.18,2.03,4.89,1.58,7.47Z"/>
      <path class="cls-10" d="M1034.69,187.88c.53-4.27,1.88-8.43,3.96-12.19.48-.86,1.01-1.73,1.79-2.32.79-.59,1.88-.87,2.78-.46,1.16.82,1.55,2.39,1.5,3.81-.05,1.42-.45,2.82-.48,4.24-.07,3.28,1.78,6.28,3.83,8.85,2.04,2.57,4.38,5.01,5.57,8.06.58,1.49.72,3.5-.6,4.4-1.48,1.01-3.47-.18-4.66-1.52-1.19-1.34-2.4-3.01-4.19-3.11,1.43-2.73.68-6.44-1.5-8.62-2.18-2.18-5.25-2.57-7.99-1.14Z"/>
      <path class="cls-10" d="M1019.03,222.55c-.09,1.88-.46,3.8-1.34,5.48-.73,1.41-1.82,2.57-3.03,3.58-1.35,1.13-2.83,2.07-4.24,3.12-.25.18-.5.37-.74.56-.74-.9-1.83-1.4-2.97-1.44.57-1.72,1.02-3.49,1.51-5.23.57-2,1.14-4.01,1.72-6.01.52-1.82.93-3.76,1.87-5.42.8-1.41,2.18-2.6,3.87-2.61,1.66,0,2.61,1.39,3,2.85.43,1.63.44,3.44.35,5.11Z"/>
      <path class="cls-7" d="M1009.03,185.12c-9.1-1.93-19.32-2.04-26.89,3.37-5.61,4.02-8.98,10.61-10.32,17.38-.56,2.82-.79,5.8.05,8.55.84,2.75,2.94,5.26,5.73,5.95,2.61.65,5.31-.32,7.82-1.27,10.02-3.81,20.07-7.64,29.6-12.59,4.72-2.45,9.3-5.16,13.62-8.26,1.42-1.02,5.77-3.37,6.35-5.02,1.02-2.88-3.13-2.45-5.27-2.86-7-1.35-13.73-3.76-20.7-5.24Z"/>
      <path class="cls-8" d="M1000.06,177.64c-.87-1.3-2.1-2.42-3.51-3.1-1.46-.7-3.09-1.01-4.7-.86-.88.08-1.77.26-2.58.64-.68.33-1.35.69-1.97,1.12-1.46,1.03-2.74,2.4-3.5,4.03-.09.2.16.4.32.23.98-1.05,2.05-1.98,3.3-2.69.61-.35,1.25-.63,1.92-.84.39-.12.71-.15,1.02-.22.17-.04.33-.09.5-.12.21-.05.16-.04.41-.07.32-.04.65-.07.98-.08.17,0,.35,0,.52,0,.08,0,.17,0,.25.01,0,0,.16.02.19.02.32.04.64.1.95.19.16.04.31.09.47.14.01,0,.05.02.07.02.08.03.17.07.25.1.28.12.56.26.83.41.14.08.28.16.42.25.08.05.16.11.25.16.02.01.04.02.05.03.01,0,.02.02.04.03.26.2.51.4.75.63.12.11.23.23.34.34.04.05.09.09.13.14.03.04.06.07.1.11,0,0,0,0,0,0,.23.29.44.59.62.91.09.16.18.31.25.48,0,.01,0,.02.02.04.04.1.08.2.12.31.13.34.22.69.32,1.04.12.4.2.79.47,1.13.27.33.84.52,1.16.11,1.04-1.32.03-3.46-.78-4.67Z"/>
      <path class="cls-8" d="M1034.1,191.63c-.15-.19-.32-.45-.49-.59-.34-.29-.73-.45-1.16-.51-.38-.05-.75-.1-1.13-.15-.75-.1-1.5-.2-2.25-.3-1.48-.2-2.96-.39-4.44-.59-2.98-.4-5.96-.81-8.94-1.23-5.86-.83-11.71-1.67-17.6-2.24-1.55-.15-3.13-.18-4.69-.08-.77.05-1.54.27-2.28.46-.72.18-1.39.42-2.05.76-.26.14-.09.51.16.51.66,0,1.33,0,2,.03.64.02,1.26.16,1.89.21,1.23.11,2.57.3,3.85.55,2.77.55,5.55,1.02,8.33,1.54,2.93.55,5.89.95,8.83,1.41,2.92.46,5.84.92,8.76,1.41,1.63.27,3.26.54,4.9.82.82.14,1.63.27,2.45.41.42.07.84.14,1.26.21.31.05.62.11.93.1.45,0,.84-.23,1.19-.48.66-.45,1.06-1.53.5-2.23Z"/>
      <path class="cls-8" d="M1025.84,197.69c-.77.11-1.45.27-2.05.81-.11.1-.21.19-.3.31-.25.3-.35.59-.46.95-.17.6.19,1.11.67,1.39.16.13.34.22.55.26.12.03.46.14-.06-.05.23.09.46.16.69.23.02.01.05.02.07.03,1.21.6,2.72-.04,3.02-1.39.28-1.23-.78-2.74-2.14-2.54Z"/>
      <path class="cls-8" d="M1018.43,203.8c.03-.39-.03-.82-.27-1.15-.18-.26-.42-.48-.7-.65-.45-.27-.95-.23-1.44-.13-.78.16-1.68.94-1.92,1.75-.12.25-.23.5-.2.82.05.53.25.89.69,1.2.29.21.6.24.92.25.84.15,1.96-.33,2.44-.99.26-.35.44-.67.47-1.11Z"/>
      <path class="cls-8" d="M1016.15,198.14c-.11-.33-.32-.6-.6-.8-.48-.34-1.26-.44-1.76-.06-.4.3-.64.62-.88,1.05-.02.04-.06.08-.08.12-.03.04-.06.08-.09.12-.06.09-.09.2-.14.3-.17.33-.17.69-.02,1.01.17.35.42.5.78.63.44.16.91.11,1.35-.04.33-.11.64-.28.89-.52.29-.27.45-.63.58-1,.08-.23.04-.59-.04-.83Z"/>
      <g>
        <path class="cls-8" d="M1019.24,192.32c-.03-.7-.81-1.33-1.5-1.04-.26.11-.47.21-.67.41-.19.19-.29.4-.37.65-.05.15-.07.32-.06.48.01.27.12.46.29.62.11.18.34.27.54.26.1,0,.19-.04.27-.08.07-.02.14-.05.2-.09-.01,0-.02,0-.04,0,.01,0,.03,0,.04,0,0,0,0,0,0,0,0,0,0,0,.01,0h.02s.01,0,.02-.01c0,0-.01,0-.02,0,.04,0,.07,0,.11,0-.03,0-.06,0-.09,0h0c.34.01.68-.07.92-.35.2-.24.32-.53.31-.84Z"/>
        <path class="cls-8" d="M1017.96,193.53s0,0,0,0c.02,0,.03,0,.04-.01,0,0-.01,0-.02,0,0,0-.01,0-.02,0Z"/>
      </g>
      <g>
        <path class="cls-8" d="M1001.61,198.93s.04-.01.06-.02c-.02,0-.04.01-.06.02,0,0,0,0,0,0Z"/>
        <path class="cls-8" d="M1003.02,196.44c-.35-.75-1.2-1.13-2.01-.89-.48.15-.89.42-1.21.81-.29.34-.62.82-.69,1.27-.07.45-.07.87.12,1.29.21.45.6.8,1.13.67.13-.03.2-.07.31-.12.03-.01.11-.05.18-.08.19-.09.38-.2.55-.32.07-.05.13-.1.2-.14-.01,0-.03,0-.04,0,.01,0,.03,0,.05,0h0c.17-.1.13-.06.05-.02.07-.03.15-.06.18-.08.2-.08.38-.19.57-.29.73-.4.94-1.4.6-2.11Z"/>
      </g>
      <g>
        <path class="cls-8" d="M1005.82,204.09c.06-.75-.32-1.42-.97-1.8-1.72-1-4.01.94-3.43,2.73.09.35.28.64.62.82.28.15.59.18.88.11.14-.02.26-.06.38-.12-.01,0-.03,0-.04,0,.02,0,.03,0,.05,0,.02,0,.04-.02.07-.03,0,0,0,0,.01,0-.02,0-.03.01-.04.02.03,0,.06-.01.09-.02.02,0,.04,0,.06,0-.18.04,0,.01.11,0,.31.02.6.01.93-.11.71-.27,1.21-.85,1.27-1.62ZM1003.57,205.8s-.03,0-.05,0c-.02,0-.04,0-.06,0,.21-.04.4-.06.11,0Z"/>
        <path class="cls-8" d="M1003.31,205.84s.02,0,.04,0c0,0,0,0,.01,0-.01,0-.02,0-.04,0,0,0,0,0,0,0Z"/>
        <path class="cls-8" d="M1003.4,205.82s-.04,0-.06,0c-.04.02-.03.02.06,0Z"/>
      </g>
      <path class="cls-8" d="M993.94,192.05c-.55-.66-1.48-.65-2.08-.06-.35.35-.58.77-.69,1.25-.04.14-.06.29-.05.44,0,.1.09.53.05.3-.02-.15-.01-.08.04.2.04.08.07.16.11.23.05.09.3.38.11.14.2.25.56.47.89.32.13-.05.26-.09.38-.16.04-.02.09-.05.13-.08.06-.04.26-.19.3-.22,0,0,0,0,0,0,.05-.03.1-.06.15-.09.12-.07.23-.15.35-.22.72-.42.82-1.44.31-2.05Z"/>
      <path class="cls-8" d="M989.64,191.36c-.26-.38-.8-.65-1.27-.46-.32.13-.56.31-.74.62-.09.16-.16.35-.2.52-.07.35,0,.7.21.97.05.1.11.18.19.24,0,0,0,0,0,0,.23.33.67.28.87-.02.02,0,.03-.02.05-.02.07-.03.14-.06.2-.11.04-.02.15-.09.18-.12.03-.02.07-.03.12-.06.1-.06.19-.14.26-.23.3-.37.41-.92.12-1.34Z"/>
      <path class="cls-7" d="M1027.24,215.53c.08-.54-.12-1.1-.63-1.37-.29-.15-.62-.21-.94-.21-.43,0-.79.27-1.11.53-.16.14-.31.28-.47.43-.11.11-.22.23-.29.36-.02.06-.05.13-.07.19.02-.05,0-.04-.05.04-.2.3-.14.75.04,1.03.21.33.54.46.92.48h0c.4.07.84-.02,1.23-.13.65-.18,1.25-.65,1.36-1.36Z"/>
      <path class="cls-7" d="M1022.24,210.09c0-.48-.58-.91-1.04-.72-.24.1-.46.2-.62.41-.13.18-.24.39-.29.61-.07.31-.13.74-.02,1.04.06.17.22.29.4.28.32-.01.67-.21.94-.39.19-.13.34-.3.46-.49.16-.23.17-.47.17-.74Z"/>
      <path class="cls-7" d="M1030.56,207.77c-.03-.26-.12-.55-.33-.72-.46-.37-1.05-.36-1.48.05-.37.36-.51.94-.34,1.42.1.27.32.51.61.56.13.02.23.03.36,0,.19-.04.29-.14.43-.25-.05.04-.13.11-.03.04.03-.02.05-.04.07-.06,0,0,.01,0,.02-.01.4-.17.74-.57.69-1.03Z"/>
      <path class="cls-7" d="M1028.46,223.9c-.04-.44-.36-.91-.83-.98-.37-.05-.72-.05-1.04.16-.21.13-.39.36-.51.57-.09.15-.15.32-.18.49-.04.19-.05.39.01.57.05.15.13.29.25.4-.02-.02-.03-.04-.04-.05.24.33.73.46,1.06.21.1-.05.19-.11.27-.19,0,0,.01,0,.02,0,0,0-.01,0-.02,0,0,0,0,0,0,0,.07-.02.15-.04.23-.08.09-.04.16-.08.24-.13-.03.01-.05.02-.08.04.16-.08.29-.18.4-.34.13-.19.22-.43.2-.66Z"/>
      <path class="cls-5" d="M965.85,222.13c-.2,1.45-.38,2.9-.52,4.36-1.06-.18-2.07-.56-3-1.1-2.15-1.26-3.56-3.43-4.12-5.83-.42-1.79-.37-3.56.06-5.25.75.33,1.48.7,2.18,1.15,1.15.74,2.18,1.66,3.05,2.72.98,1.18,1.78,2.53,2.36,3.96Z"/>
      <path class="cls-4" d="M966.19,219.83c-.05.32-.1.64-.15.96-1.18-2.18-2.87-4.08-4.91-5.48-.85-.58-1.77-1.09-2.75-1.43.9-3.08,3.03-5.82,5.69-7.7,1.23-.87,2.57-1.59,4-2.05.69-.22,1.39-.37,2.1-.48-.55,1.45-1.03,2.93-1.45,4.42-1.08,3.86-1.89,7.81-2.52,11.76Z"/>
      <g>
        <path class="cls-8" d="M1055.32,197.79c-.4-2.68-2.49-4.6-4.53-6.18-1.04-.81-2.12-1.6-3.05-2.54-.45-.46-.79-.87-1.14-1.45-.34-.55-.5-.9-.7-1.51-.76-2.27-.51-4.74-.51-7.18,0-1.39.07-2.88-.4-4.21-.27-.75-.66-1.46-1.23-2.03-.1-.1-.21-.19-.33-.28-.09-.06-.18-.13-.27-.19.03.02.07.04.1.06-.09-.07-.37-.29-.39-.31-.41-.25-.99-.29-1.46-.23-.64.07-1.15.52-1.21,1.18-.05.61.36,1.25.99,1.36.06.01.13.03.19.04,0,0,.02,0,.02,0,.04.02.08.05.08.04.14.06.29.11.44.15,0,0,.03,0,.05,0,.05.05.11.09.16.14.04.04.07.08.11.12,0,0,0,0,.01.02.08.11.16.23.23.35.06.1.12.21.17.32,0,0,0,0,0,.01.03.08.07.17.1.25.09.25.18.5.25.76.04.13.07.27.1.41.02.07.03.14.04.21,0,.02.02.09.02.13.1.57.15,1.13.18,1.7.12,2.34,0,4.72.48,7.02.24,1.18.7,2.33,1.4,3.31.76,1.07,1.72,1.96,2.74,2.78.94.76,1.93,1.48,2.83,2.29.89.8,1.56,1.53,2.09,2.61,0,.02.04.09.04.1.04.09.07.17.11.26.06.14.11.28.15.42.04.13.07.26.1.4,0,0,0,.01,0,.02,0,.08.02.15.03.23.03.26.03.53.01.79,0-.03-.03.25-.04.3-.02.14-.05.27-.09.41-.03.1-.06.2-.09.29,0,.02-.02.06-.03.07-.04.08-.07.16-.12.25-.05.11-.12.21-.18.31,0,.01-.01.02-.02.04-.04.05-.08.11-.13.16-.21.24-.39.45-.54.74-.12.23-.22.42-.3.66-.05.14.05.32.18.39.54.28,1.3.17,1.76-.23.42-.36.76-.83,1.01-1.32.52-1.03.72-2.26.55-3.41Z"/>
        <path class="cls-8" d="M1043.26,172.28s.03.02.03.02c-.01,0-.02-.01-.03-.02Z"/>
      </g>
      <path class="cls-8" d="M1018.01,224.81c-.19-1.23-.51-2.47-1.01-3.62-.47-1.07-1.07-2.06-1.85-2.94-.39-.43-.82-.81-1.3-1.14-.41-.28-1.13-.5-1.62-.37-.29.07-.34.4-.23.62.11.22.33.38.49.56.18.19.34.35.55.52.4.32.78.65,1.13,1.03.64.71,1.15,1.56,1.52,2.43.45,1.06.71,2.17.95,3.29.12.57.22,1.13.31,1.7.09.59.28,1.15.52,1.71.11.26.52.29.58-.03.26-1.25.16-2.5-.04-3.76Z"/>
      <path class="cls-5" d="M1039.97,201.57c.37-2,.74-4,1.11-5.99.09-.5-.68-.68-.77-.17-.76,4.09-1.54,8.17-2.31,12.26-.65,3.48-1.32,6.96-2.17,10.41-1.64,6.71-3.99,13.47-8.33,18.94-2.09,2.64-4.61,4.85-7.46,6.63-2.76,1.72-5.79,3.04-8.9,4-7.03,2.16-14.54,2.38-21.81,1.61-3.64-.39-7.29-.94-10.85-1.79-2.83-.67-5.68-1.61-8.12-3.23-2.5-1.65-4.3-4.07-4.77-7.07-.29-1.82-.18-3.68-.08-5.52.11-2.05.28-4.09.51-6.13.45-4.04,1.1-8.05,1.97-12.02.82-3.72,1.89-7.42,3.36-10.93,2.61-6.26,6.72-12,12.71-15.4,2.83-1.61,5.96-2.58,9.21-2.76,3.84-.21,7.64.51,11.4,1.18,4.05.72,8.11,1.4,12.17,2.1,4.1.71,8.2,1.48,12.31,2.1,1.97.3,3.94.59,5.91.84.15.02.2-.19.05-.23-4.11-.93-8.24-1.68-12.39-2.43-4.14-.75-8.28-1.5-12.43-2.25-2.09-.38-4.18-.75-6.28-1.12-1.92-.34-3.85-.67-5.79-.87-3.6-.38-7.23-.25-10.68.94-6.21,2.15-11.2,7.11-14.44,12.71-1.93,3.34-3.37,6.98-4.41,10.69-1.08,3.86-1.89,7.81-2.52,11.76-.65,4.11-1.09,8.25-1.3,12.4-.09,1.8-.15,3.61.19,5.39.29,1.52.91,2.96,1.84,4.2,1.73,2.31,4.32,3.81,6.98,4.84,3.03,1.17,6.24,1.78,9.43,2.33,7.61,1.32,15.48,1.93,23.12.53,6.52-1.19,12.85-3.83,17.85-8.25,2.61-2.31,4.82-4.96,6.6-7.95,1.81-3.03,3.18-6.33,4.25-9.69,2.3-7.17,3.45-14.67,4.82-22.06Z"/>
      <path class="cls-5" d="M985.23,248.75c-.02-.96-.48-2.01-.94-2.84-.48-.86-1.11-1.64-1.84-2.28-.74-.65-1.58-1.18-2.49-1.55-.8-.32-1.97-.72-2.81-.37-.09.04-.11.16-.02.21.39.22.83.28,1.26.4.41.11.82.26,1.21.43.84.37,1.6.87,2.27,1.49.65.61,1.21,1.31,1.64,2.1.21.39.39.79.52,1.21.15.44.2.9.32,1.35.13.51.89.34.88-.16Z"/>
      <path class="cls-5" d="M1055.17,197.18c-.48-1.11-1.21-2.07-1.98-2.99-.93-1.11-1.9-2.2-2.84-3.3-.97-1.13-1.94-2.26-2.91-3.39-.81-.94-1.68-1.92-2.09-3.11-.84-2.48.63-4.91.85-7.35.16-1.82-.37-4.23-2.17-5.1-.89-.42-1.9-.36-2.77.09-.88.46-1.53,1.26-2.06,2.08-.66,1.01-1.15,2.14-1.67,3.23-.63,1.33-1.23,2.68-1.74,4.07-.98,2.65-1.66,5.44-1.76,8.28,0,.2,0,.4,0,.59.12.01.24.03.35.05.03-.2.06-.4.08-.61.09-.67.19-1.35.31-2.01.24-1.32.52-2.63.92-3.91.81-2.63,2.01-5.13,3.22-7.6.73-1.48,1.83-3.71,3.75-3.77,1.99-.06,2.77,2.27,2.81,3.89.06,2.27-1.12,4.38-1.06,6.65.06,2.5,1.91,4.29,3.45,6.06.91,1.06,1.82,2.11,2.73,3.17.86,1,1.75,1.99,2.57,3.03,1.25,1.6,2.42,3.74,1.42,5.76-.43.86-1.2,1.47-2.19,1.52-1.19.06-2.27-.63-3.22-1.27-2.23-1.51-4.39-3.12-6.5-4.79-.54-.43-1.09-.85-1.63-1.28-.16-.13-.34-.16-.5-.13-.07.37-.15.73-.22,1.1,2.24,1.81,4.6,3.47,6.99,5.06,1.82,1.21,4.57,3.13,6.73,1.57,1.73-1.25,1.92-3.74,1.13-5.58Z"/>
      <g>
        <path class="cls-5" d="M1044.72,172.25s-.03-.03-.05-.05c0,0-.01,0-.02,0-2.31,3.36-4.42,6.88-6.19,10.56-.02.04.04.07.06.03,1.87-3.62,3.9-7.16,6.19-10.53,0,0,0,0,0,0Z"/>
        <path class="cls-5" d="M1045.91,176.63c-.22.26-.43.52-.65.79-1.38,1.67-2.8,3.32-4.1,5.04-.06.09.05.2.12.12,1.44-1.62,2.77-3.34,4.13-5.01.15-.19.31-.38.46-.56.01-.12.02-.24.03-.37Z"/>
      </g>
      <g>
        <path class="cls-5" d="M1055.52,198.73s0-.03,0-.04c-.02-.06-.04-.12-.06-.18-1.2-1.1-2.45-2.15-3.67-3.22-1.54-1.34-3.09-2.67-4.64-4-.07-.06-.16.04-.09.1,1.52,1.36,3.03,2.73,4.56,4.08,1.3,1.15,2.59,2.32,3.92,3.44,0-.06-.02-.12-.02-.18Z"/>
        <path class="cls-5" d="M1053.52,202.11s.07-.05.1-.08c.1-.08.2-.15.3-.23-.39-.47-.8-.92-1.21-1.37-1.35-1.45-2.86-2.69-4.48-3.84-.05-.03-.1.04-.06.08,1.48,1.25,2.86,2.64,4.16,4.07.41.45.8.91,1.18,1.37Z"/>
      </g>
      <path class="cls-5" d="M1040.83,162.17c-1.68.98-3.17,2.18-4.37,3.72-1.19,1.54-2.08,3.28-2.64,5.14-.31,1.05-.56,2.16-.43,3.26.04.32.49.37.57.05.3-1.14.44-2.31.8-3.44.35-1.13.85-2.21,1.44-3.23,1.17-2.02,2.85-3.92,4.82-5.2.2-.13,0-.43-.2-.31Z"/>
      <path class="cls-5" d="M1033.59,161c-1.23,1.69-2.32,3.46-3.14,5.39-.81,1.9-1.5,3.9-1.66,5.97-.02.26.37.26.44.04.59-1.95,1.07-3.93,1.85-5.82.77-1.86,1.67-3.69,2.79-5.37.11-.17-.17-.37-.29-.2Z"/>
      <path class="cls-5" d="M1064.94,200.04c0-.19-.28-.17-.29.01-.15,2.02-1.13,3.86-2.59,5.24-.7.66-1.53,1.21-2.41,1.59-.45.2-.92.36-1.4.47-.22.05-.45.1-.67.13-.28.04-.47.11-.72.25-.23.12-.11.42.09.49.74.26,1.69-.1,2.39-.38.77-.31,1.48-.73,2.13-1.24,1.3-1.03,2.32-2.37,2.92-3.92.33-.85.52-1.73.55-2.64Z"/>
      <path class="cls-5" d="M1065.76,207.07c-.8.62-1.64,1.17-2.5,1.69-.86.52-1.79.94-2.59,1.55-.22.16-.07.5.2.43,1-.24,1.91-.84,2.76-1.41.86-.58,1.65-1.23,2.42-1.93.19-.17-.08-.49-.28-.34Z"/>
      <path class="cls-5" d="M1001.63,177.65c-1.53-2.95-4.5-4.86-7.84-4.84-7.6.03-12.36,7.81-14.58,14.15-.53,1.51-.94,3.05-1.25,4.62.24-.28.51-.54.78-.78.15-.66.31-1.32.5-1.97.99-3.44,2.55-6.81,4.71-9.68,2.01-2.67,4.7-4.91,8.05-5.56,1.62-.32,3.36-.23,4.9.39,1.43.58,2.67,1.58,3.57,2.83,1.66,2.28,2.07,5.14,1.51,7.84.13.03.27.07.4.11.58-2.36.39-4.87-.75-7.09Z"/>
      <g>
        <path class="cls-5" d="M988.66,174.56c-.63,1.84-1.27,3.68-1.9,5.53-.45,1.31-.98,2.63-1.27,3.99-.02.11.13.17.18.07.52-1.08.86-2.24,1.25-3.37.39-1.17.79-2.34,1.18-3.5.35-1.03.69-2.05,1.04-3.08-.15.13-.31.25-.48.37Z"/>
        <path class="cls-5" d="M993.93,172.98c-.19.48-.38.96-.56,1.44-.39,1.06-.76,2.12-1.1,3.2-.35,1.12-.71,2.25-.86,3.41-.02.18.25.32.33.12.42-1.04.69-2.14,1.02-3.21.33-1.1.68-2.2,1.06-3.28.2-.56.4-1.11.6-1.67-.17,0-.33,0-.5-.01Z"/>
        <path class="cls-5" d="M1000.56,176.51c-.08-.13-.16-.25-.23-.38-1.08,1.43-2.08,2.93-2.91,4.5-.06.12.11.25.19.14,1.02-1.38,2-2.79,3-4.18-.02-.03-.04-.06-.06-.09Z"/>
      </g>
      <path class="cls-5" d="M1009.84,235.51c-.93-1.31-2.54-1.87-4.1-1.58-.88.16-1.69.52-2.33,1.16-.04.04.02.1.07.06,1.41-1.34,3.76-1.48,5.29-.25,1.52,1.22,1.78,3.26,1.15,5.02-.05.15.17.2.24.09.87-1.34.57-3.24-.32-4.49Z"/>
      <path class="cls-5" d="M1019.66,223.16c.14-1.82.12-3.74-.26-5.53-.32-1.47-1.08-2.96-2.58-3.49-1.53-.54-3.26.12-4.39,1.2-1.35,1.29-1.91,3.2-2.4,4.94-.66,2.38-1.33,4.76-1.98,7.14-.6,2.17-1.29,4.35-1.79,6.55.14-.01.27-.01.41,0,.59-1.76,1.04-3.56,1.55-5.34.57-2,1.14-4.01,1.72-6.01.52-1.82.93-3.76,1.86-5.42.8-1.41,2.18-2.6,3.87-2.61,1.66,0,2.61,1.39,3,2.85.43,1.63.44,3.44.35,5.11-.09,1.88-.46,3.8-1.34,5.48-.73,1.41-1.82,2.57-3.03,3.58-1.35,1.13-2.83,2.07-4.24,3.12-.3.22-.6.45-.9.68.18.15.32.34.43.55.27-.22.55-.44.83-.65,1.32-.98,2.71-1.88,3.99-2.91,1.27-1.02,2.44-2.18,3.27-3.6,1-1.71,1.46-3.68,1.61-5.64Z"/>
      <g>
        <path class="cls-5" d="M1016.68,214.27c-.55,1.1-1.09,2.2-1.63,3.3-.99,2.04-2.01,4.06-2.86,6.17-.05.13.12.22.19.1,1.11-1.97,2.04-4.04,3-6.09.54-1.14,1.06-2.29,1.59-3.44-.1-.02-.2-.03-.29-.04Z"/>
        <path class="cls-5" d="M1019.08,217.01c-1.46,1.76-2.88,3.64-3.93,5.67-.04.08.07.13.12.06.68-1.02,1.32-2.06,2.02-3.07.58-.84,1.2-1.65,1.84-2.45-.02-.07-.03-.14-.05-.21Z"/>
      </g>
      <path class="cls-10" d="M1007.71,204.6c-.01-2.23-1.34-4.43-3.68-4.78-.67-.1-1.36-.04-1.99.18.9-1.46,1.4-3.15,1.36-4.87,0-.05-.04-.11-.09-.14-.97-.45-2.26-.23-2.86.72-.04.07.06.13.11.08.65-.67,1.65-.97,2.51-.55-.12,2.06-.9,4.03-2.28,5.56-.24.26.15.61.4.37,1.41-1.35,3.81-.96,4.96.52,1.33,1.72,1.05,4.07-.12,5.79-.34.51-.76.97-1.21,1.38-.24.22-.5.42-.77.62-.25.19-.42.42-.6.67-.1.14.05.38.22.35.67-.1,1.11-.46,1.6-.9.5-.45.94-.95,1.32-1.5.7-1.02,1.1-2.26,1.09-3.5Z"/>
      <path class="cls-10" d="M1019.06,202.23c-.5-1.06-1.74-1.88-2.91-1.76.62-1.05.89-2.29.67-3.52-.01-.08-.13-.08-.13,0,.02,1.47-.55,2.91-1.62,3.93-.27.26.1.65.4.48,1.13-.64,2.61.17,3.02,1.32.26.74.14,1.57-.17,2.27-.17.38-.4.73-.66,1.05-.22.27-.56.55-.58.91,0,.14.13.22.25.22.44.02.85-.57,1.08-.89.28-.39.51-.81.67-1.26.32-.88.39-1.9-.02-2.76Z"/>
      <path class="cls-10" d="M1028.22,198.54c-.2-.53-.52-1.01-.97-1.35-.44-.32-.92-.42-1.45-.44-.13,0-.16.22-.02.24.88.09,1.58.95,1.85,1.74.14.41.2.87.12,1.3-.09.46-.35.79-.53,1.21-.07.17.07.39.26.32,1.11-.41,1.08-2.11.74-3.02Z"/>
      <path class="cls-10" d="M1027.79,214.28c-.53-1.01-1.72-1.37-2.76-1-.15.05-.08.26.07.23.81-.17,1.8.32,2.15,1.08.17.38.17.82.06,1.22-.11.4-.37.71-.58,1.06-.1.18.09.4.28.34,1.11-.39,1.26-2.01.78-2.92Z"/>
      <path class="cls-10" d="M1019.57,190.74c-.5-.56-1.16-.89-1.91-.94-.14,0-.15.2-.02.24.62.17,1.2.54,1.6,1.04.41.5.5,1.08.73,1.66.06.15.25.14.3-.01.21-.69-.25-1.48-.7-1.98Z"/>
      <path class="cls-10" d="M995.7,193.24c.03-.66-.24-1.32-.69-1.8-.88-.95-2.18-.87-3.35-.47.1-.51,0-1.07-.4-1.45-.83-.82-2.42-.13-2.52.98,0,.03.05.05.05.01.17-.92,1.52-1.44,2.12-.61.32.45.2,1.12-.2,1.48-.15.08-.3.16-.44.24-.35.21-.09.78.3.65.16-.05.3-.13.43-.23,1-.52,2.42-.99,3.34-.2.34.3.56.75.59,1.2.03.48-.18.79-.45,1.16-.12.15-.04.45.2.42.67-.1.99-.74,1.01-1.37Z"/>
      <path class="cls-5" d="M965.59,226.53c-1.15-.16-2.26-.55-3.26-1.14-2.15-1.26-3.56-3.43-4.12-5.83-1.24-5.24,1.65-10.39,5.86-13.38,1.23-.87,2.57-1.59,4-2.05.71-.23,1.43-.37,2.16-.49.1-.02.19-.03.29-.05.07-.21.14-.41.21-.62-.06,0-.12,0-.19,0-.68-.01-1.37.11-2.03.27-1.39.35-2.71.96-3.93,1.7-2.44,1.49-4.56,3.6-5.92,6.12-1.29,2.4-1.83,5.19-1.39,7.9.43,2.61,1.74,5.08,3.91,6.65,1.2.87,2.58,1.48,4.04,1.73.07.01.13.02.2.03.05-.28.11-.56.16-.84Z"/>
      <path class="cls-5" d="M967.65,196.32c-.1.04-.28-.03-.39-.03-.1,0-.18.02-.28.04-.21.05-.42.09-.63.15-.39.11-.78.23-1.18.34-.4.11-.79.22-1.18.34-.39.12-.77.27-.99.62-.1.16,0,.36.14.45.36.23.83.16,1.22.07.42-.09.83-.21,1.24-.37.38-.15.77-.3,1.13-.49.19-.1.37-.21.54-.33.08-.05.17-.1.24-.17.09-.1.14-.3.26-.35.15-.07.03-.34-.13-.27Z"/>
      <path class="cls-5" d="M989.14,202.64c-.75-.58-1.5-1.01-2.39-1.34-.72-.26-1.93-.78-2.59-.22-.15.12-.12.35-.05.5.2.38.68.49,1.06.6.41.11.82.23,1.23.35.81.24,1.62.45,2.43.68.31.09.56-.37.3-.57Z"/>
      <g>
        <path class="cls-4" d="M993.9,224.29c-.89,2.83-3,5.19-5.86,6.43-2.81,1.22-5.9,1.3-8.65.34-2.78-.96-5.07-3.04-6.29-5.57-1.09-2.25-1.38-4.84-.95-7.36.38-2.27,1.33-4.5,2.79-6.4.89-.87,1.83-1.72,2.91-2.38,1.08-.65,2.3-1.09,3.53-1.31,2.64-.47,5.25.05,7.37,1.42,4.69,3.05,6.85,9.41,5.16,14.82Z"/>
        <path class="cls-5" d="M987.41,227.02c.19,1.27.28,2.57.23,3.87-2.7,1.06-5.63,1.09-8.25.18-2.78-.96-5.07-3.04-6.29-5.57-1.09-2.25-1.38-4.84-.95-7.36.09-.55.22-1.1.38-1.64,2.65-1.04,5.71-.94,8.2.2,4.07,1.86,6.08,6.21,6.69,10.33Z"/>
        <path class="cls-5" d="M995.36,217.35c-.59-2.9-1.96-5.6-4.12-7.66-2.09-1.99-4.91-3.16-7.99-3.13-.41,0-.82.03-1.24.07-.18.02-.36.04-.54.07-2.27.35-4.57,1.32-6.13,2.97-.5.53-.85,1.06-1.1,1.71-.02.04-.03.09-.03.13-1,1.32-1.77,2.8-2.28,4.34-.88,2.65-1,5.5-.27,8.09.8,2.82,2.69,5.26,5.25,6.82,1.36.83,2.84,1.5,4.47,1.78,1.53.26,3.15.22,4.71-.13,3.23-.72,6.12-2.65,7.79-5.44,1.75-2.92,2.11-6.51,1.48-9.63ZM993.9,224.29c-.89,2.83-3,5.19-5.86,6.43-2.81,1.22-5.9,1.3-8.65.34-2.78-.96-5.07-3.04-6.29-5.57-1.09-2.25-1.38-4.84-.95-7.36.38-2.27,1.33-4.5,2.79-6.4.89-.87,1.83-1.72,2.91-2.38,1.08-.65,2.3-1.09,3.53-1.31,2.64-.47,5.25.05,7.37,1.42,4.69,3.05,6.85,9.41,5.16,14.82Z"/>
        <path class="cls-6" d="M983.18,228.59c0-.14.02-.27.03-.41-.02-.26-.11-.5-.26-.71-.09-.09-.18-.18-.27-.28-.21-.17-.46-.27-.75-.31-.21-.04-.42-.02-.63.05-.21.04-.4.12-.57.24-.18.12-.32.26-.43.44-.14.17-.22.35-.26.56,0,.14-.02.27-.03.41.02.26.11.5.26.71.09.09.18.18.27.28.21.17.46.27.75.31.21.04.42.02.63-.05.21-.04.4-.12.57-.24.18-.12.32-.26.43-.44.14-.17.22-.35.26-.56Z"/>
        <path class="cls-6" d="M984.91,217.29c-.19-.5-.49-.92-.92-1.25-.07-.04-.14-.08-.2-.12-.23-.13-.45-.27-.68-.4-.39-.18-.8-.25-1.23-.22-.28-.04-.56,0-.83.1-.41.07-.79.23-1.14.49-.21.18-.41.36-.62.54l-.47.67c-.22.38-.32.78-.31,1.18-.07.4-.02.79.13,1.16.02.08.03.15.05.23.19.5.49.92.92,1.25.44.34.95.55,1.53.63.15,0,.3.01.45,0,.15,0,.3,0,.45,0,.57-.07,1.1-.27,1.57-.6.48-.33.85-.74,1.11-1.24.06-.13.11-.27.15-.41.06-.14.11-.27.15-.41.12-.56.08-1.09-.1-1.61Z"/>
      </g>
      <path class="cls-6" d="M963.36,222.1c-.63-.14-1.35.28-1.47.93-.12.66.26,1.32.93,1.47.63.14,1.35-.28,1.47-.93.12-.66-.26-1.32-.93-1.47Z"/>
      <path class="cls-6" d="M963.79,215.36c.02-.18.03-.36.05-.54-.02-.35-.12-.68-.31-.97-.11-.13-.22-.26-.33-.39-.27-.24-.57-.41-.93-.49-.27-.07-.53-.07-.79,0-.26.02-.5.11-.72.26-.23.13-.41.31-.54.54-.17.21-.29.44-.34.72-.02.18-.03.36-.05.54.02.35.12.68.31.97.11.13.22.26.33.39.27.24.57.41.93.49.27.07.53.07.79,0,.26-.02.5-.11.72-.26.23-.13.41-.31.54-.54.17-.21.29-.44.34-.72Z"/>
      <path class="cls-10" d="M987.99,240.15c.05-.26.06-.53.03-.8-.11-1.06-.78-1.87-1.44-2.66-.6-.72-1.27-1.43-2.14-1.85-.98-.47-2.12-.58-3.1-.07-.43.23-.8.59-1.01,1.04-.27.58-.2,1.22-.05,1.82.46,1.86,2.1,3.23,3.79,3.95.94.4,2.16.99,3.15.45.77-.41.91-1.15.76-1.89Z"/>
    </g>
    <rect class="cls-1" y="-140.05" width="2060.01" height="444.16"/>
  </g>
</svg>