<?xml version="1.0" encoding="UTF-8"?>
<svg id="Layer_1" data-name="Layer 1" xmlns="http://www.w3.org/2000/svg" xmlns:xlink="http://www.w3.org/1999/xlink" version="1.1" viewBox="0 0 89.4 91.1">
  <defs>
    <style>
      .cls-1 {
        clip-path: url(#clippath);
      }

      .cls-2 {
        fill: none;
      }

      .cls-2, .cls-3, .cls-4 {
        stroke-width: 0px;
      }

      .cls-3 {
        fill: #56aabf;
      }

      .cls-4 {
        fill: #fff8ed;
      }
    </style>
    <clipPath id="clippath">
      <rect class="cls-2" width="89.4" height="91.1"/>
    </clipPath>
  </defs>
  <circle id="Ellipse_20" data-name="Ellipse 20" class="cls-3" cx="45" cy="45.2" r="41"/>
  <g class="cls-1">
    <g id="Group_421" data-name="Group 421">
      <path id="Path_458" data-name="Path 458" class="cls-4" d="M43.4,60c-.3-1.3-1.3-2.3-2.6-2.5-.5,0-.9.1-1.2.4-1.4,1.6-2.8,3.2-4.2,4.8-.5.5-.7,1.2-.5,1.8.5,1.1,1.6,1.9,2.8,2.3.4-.2.8-.5,1.2-.8,1.3-1.4,2.5-2.9,3.7-4.4.3-.4.8-1.1.7-1.6"/>
      <path id="Path_459" data-name="Path 459" class="cls-4" d="M43.2,64.1c-1,1.1-2,2.4-3,3.5-.4.4-.5,1.1-.2,1.7.4.9,1.3,1.5,2.3,1.5.3,0,.6-.2.8-.4,1-1.2,2-2.3,2.9-3.6.8-1,.7-1.7-.4-2.7-.6-.7-1.7-.8-2.4-.3,0,0-.1.1-.2.2"/>
      <path id="Path_460" data-name="Path 460" class="cls-4" d="M42.8,50.9c.2-.3.3-.6.5-.9,0-1.2-.7-2.3-1.8-2.9-.9-.8-2.3-.7-3.1.3,0,0-.2.2-.2.3-1.1,1.4-2.3,2.8-3.5,4.1-1.7,2-3.4,4-5.1,6-.2.3-.3.7-.3,1.1.1,1.3,1.1,2.5,2.3,2.9.9.5,2,.2,2.5-.7.4-.5.8-1,1.2-1.5,2.5-3,5-5.9,7.5-8.9"/>
      <path id="Path_461" data-name="Path 461" class="cls-4" d="M29.1,44.3c.9-1,1.8-2,3.2-1.8.8.2,1.7.4,2.5.7,0-.1-.2-.3-.4-.5-1-1.5-.9-3.3,0-4.8,1.9-2.3,3.8-4.6,5.8-6.8,1.1-1.3,1.2-1.3-.2-2.4,0,0,0,0,0,0-2.8-2.7-6.7-4-10.6-3.7-3,.1-5.8,1.5-7.9,3.7-4.2,4.5-4.2,10.9-1.3,15.9,1.2,1.9,2.7,3.6,4.4,5,1.5-1.7,2.9-3.4,4.3-5.2"/>
      <path id="Path_462" data-name="Path 462" class="cls-4" d="M35,48.4c.4-.5.5-1.1.2-1.6-.1-.3-.3-.6-.5-.9-.5-1.1-1.9-1.6-3.1-1.1-.3.2-.6.4-.8.7-1.9,2.2-3.9,4.4-5.8,6.7-.5.5-.9,1.2-1.1,1.9-.1,1.5,1.7,3.1,3,3.2.4-.2.8-.4,1.1-.6.6-.6,1.1-1.3,1.7-2,1.8-2.1,3.5-4.2,5.3-6.2"/>
      <path id="Path_463" data-name="Path 463" class="cls-4" d="M66.5,26.8c-3.2-3-7.6-4.4-12-3.8-2.7.3-5.2,1.4-7.2,3.2-1.1,1.1-2.2,2.2-3.2,3.4-2.4,2.8-4.9,5.6-7.3,8.5-.7.6-1,1.4-1.1,2.3,0,1.1,1,2.2,1.9,1.9,1.8-.5,3.5-1.5,4.8-2.9,1.2-1.3,2.3-2.7,3.5-4,1-1.1,1.2-1.1,2.4-.3,4.1,2.6,8.5,3.8,13.2,2.7,2.3-.5,4.6-1.3,6.9-2,.5-.2,1.1,0,1.3.5,0,0,0,0,0,.1.2.5,0,1-.7,1.2-2.5,1.1-5.2,1.8-7.9,2.2-1.6.2-3.2.2-4.9.4l12.6,11.3c.8-1.1,1.8-2.3,2.7-3.6,1.6-2.6,2.4-5.8,2.1-8.9-.2-3.4-1.6-6.7-3.9-9.2-1.1-1.1-2.2-2.2-3.4-3.1"/>
      <path id="Path_464" data-name="Path 464" class="cls-4" d="M48.4,64.2c.8,2.2-.3,3.7-1.7,5.1.5.4.9.8,1.3,1.2.9.9,2.3.9,3.2,0,0,0,0,0,.1-.1.9-.9,1-2.4.1-3.3-1-.9-2.1-1.9-3.1-2.8"/>
      <path id="Path_465" data-name="Path 465" class="cls-4" d="M44.7,0C20,0,0,20.4,0,45.5s20,45.5,44.7,45.5,44.7-20.4,44.7-45.5S69.4,0,44.7,0M72.8,50c-.9,1.3-1.9,2.4-2.9,3.7-.2.2-.4.5-.4.8,0,2.4-2.1,4.3-4.6,4.3-.1,0-.2,0-.3,0-.2,0-.5,0-.7,0,0,3-1.9,4.7-4.7,4.5-.2,3.1-1.7,5-5,5.1,0,1.2-.4,2.3-1.1,3.2-1.5,1.8-4.1,2.2-6,.7-.2-.2-.4-.3-.5-.5,0,0,0,0,0,0-.8-.8-.8-.9-1.6,0-.9,1.1-2.5,1.5-3.8,1-1.5-.4-2.6-1.6-3-3.1,0-.2-.1-.5-.2-.7-1.3,0-2.5-.6-3.4-1.5-.8-.7-1.3-1.6-1.6-2.6,0-.2-.3-.6-.5-.6-2.6-.3-4.7-2.3-5-4.9-2.3,0-4.4-1.5-5.2-3.7-.8-1.9,0-3.2,1.3-4.5-1-1-1.9-1.9-2.8-2.8-1.7-1.8-2.9-3.9-3.5-6.3-1.4-4.3-.8-9.1,1.8-12.9,1.9-3,5-5.1,8.5-5.8,4.5-1,9.3,0,13,2.9.7.5,1.3,1.1,2,1.7.3.3.6.3.8,0,1-1.4,2.3-2.7,3.7-3.8,1.6-1.1,3.3-2,5.2-2.5,4.6-1.4,9.5-.7,13.5,2,2.9,1.8,5.4,4.1,7.3,6.9,4.1,5.9,4.1,13.8,0,19.7"/>
      <path id="Path_466" data-name="Path 466" class="cls-4" d="M62.4,48.3c-2.6-2.3-5.3-4.7-7.9-7-.8-.8-1.7-1.5-2.7-2.2-1.3-.7-2.6-1.4-4-2-.2,0-.5,0-.7.1-.7.7-1.2,1.5-1.8,2.2-2.4,2.9-5.1,5-9,5.1.3.4.5.9.8,1.4.2,0,.4-.2.5-.4.8-.8,2-1.2,3.1-.8,2.2.4,4,2.1,4.5,4.3,0,.3.3.7.5.9,1.3,1.2,2.5,2.3,3.8,3.4,2.3,2,4.5,4,6.8,6,.8.9,1.8,1.5,2.9,1.9,1.1.3,2.3-.4,2.6-1.5,0-.3,0-.6,0-1-.2-1-.8-1.9-1.7-2.5-2.2-2-4.5-3.9-6.7-5.9-1.8-1.6-3.6-3.3-5.5-4.9-.4-.3-.5-.8-.3-1.2,0,0,.1-.2.2-.2.4-.5.9-.4,1.3,0,.9.8,1.9,1.6,2.8,2.5,2.2,2,4.5,4,6.7,6,1.5,1.3,2.9,2.6,4.4,3.8,1.1.9,2.6.8,3.6-.2,1-1.3.9-3.1-.4-4.2-1.3-1.2-2.7-2.4-4-3.5"/>
      <path id="Path_467" data-name="Path 467" class="cls-4" d="M49.2,55.7l-4.4-3.9c-1.1,1.3-2.1,2.5-3,3.6,1,.8,2,1.6,2.8,2.4s1.6,1.8,2.5,2.6c1.6,1.5,3.2,2.9,4.9,4.4.6.6,1.2,1.1,1.9,1.5,1.2.4,2.5-.2,2.9-1.3.5-1.1.2-2.3-.7-3-2.3-2-4.6-4.1-6.9-6.1"/>
    </g>
  </g>
</svg>