<?xml version="1.0" encoding="UTF-8"?>
<svg id="Layer_1" data-name="Layer 1" xmlns="http://www.w3.org/2000/svg" xmlns:xlink="http://www.w3.org/1999/xlink" version="1.1" viewBox="0 0 89.4 91.1">
  <defs>
    <style>
      .cls-1 {
        clip-path: url(#clippath);
      }

      .cls-2 {
        fill: none;
      }

      .cls-2, .cls-3, .cls-4 {
        stroke-width: 0px;
      }

      .cls-3 {
        fill: #56aabf;
      }

      .cls-4 {
        fill: #fff8ed;
      }
    </style>
    <clipPath id="clippath">
      <rect class="cls-2" width="89.4" height="91.1"/>
    </clipPath>
  </defs>
  <g id="Group_420" data-name="Group 420">
    <circle id="Ellipse_19" data-name="Ellipse 19" class="cls-3" cx="45" cy="45.2" r="42"/>
    <g id="Group_419" data-name="Group 419">
      <g class="cls-1">
        <g id="Group_416" data-name="Group 416">
          <path id="Path_457" data-name="Path 457" class="cls-4" d="M44.7,0C20,0,0,20.4,0,45.5s20,45.5,44.7,45.5,44.7-20.4,44.7-45.5S69.4,0,44.7,0M70.9,42.4c-.2,4.4-2.1,8.2-4.5,11.8-3,4.3-6.6,8.2-10.7,11.4-2,1.6-4.2,3-6.5,4.1-2.6,1.1-5.6,1-8.2-.4-3.7-1.9-7-4.3-9.8-7.2-3.3-3.2-6.2-6.8-8.5-10.8-2.1-3.5-3-7.5-2.6-11.6.1-2.6.9-5.2,2.3-7.5,3.5-6,11-8,17-4.7,2.2,1.2,4.2,2.8,5.7,4.8,0,.1.2.3.4.5.4-.5.8-.9,1.2-1.4,2.1-2.6,5-4.4,8.3-5.1,5.3-1.3,10.8,1.1,13.5,5.8,1.9,3.1,2.8,6.8,2.5,10.4"/>
        </g>
      </g>
    </g>
  </g>
</svg>