<svg xmlns="http://www.w3.org/2000/svg" width="156.38" height="24.243" viewBox="0 0 156.38 24.243">
  <g id="Group_224" data-name="Group 224" transform="translate(-793 -3015)">
    <path id="Icon_awesome-star" data-name="Icon awesome-star" d="M12.747.842,9.655,7.111,2.739,8.119A1.516,1.516,0,0,0,1.9,10.7l5,4.876L5.721,22.469a1.514,1.514,0,0,0,2.2,1.6l6.188-3.252,6.188,3.252a1.515,1.515,0,0,0,2.2-1.6L21.307,15.58l5-4.876a1.516,1.516,0,0,0-.838-2.585L18.556,7.111,15.464.842a1.516,1.516,0,0,0-2.718,0Z" transform="translate(791.559 3015.001)" fill="#56aabf"/>
    <path id="Icon_awesome-star-2" data-name="Icon awesome-star" d="M12.747.842,9.655,7.111,2.739,8.119A1.516,1.516,0,0,0,1.9,10.7l5,4.876L5.721,22.469a1.514,1.514,0,0,0,2.2,1.6l6.188-3.252,6.188,3.252a1.515,1.515,0,0,0,2.2-1.6L21.307,15.58l5-4.876a1.516,1.516,0,0,0-.838-2.585L18.556,7.111,15.464.842a1.516,1.516,0,0,0-2.718,0Z" transform="translate(824.559 3015.001)" fill="#56aabf"/>
    <path id="Icon_awesome-star-3" data-name="Icon awesome-star" d="M12.747.842,9.655,7.111,2.739,8.119A1.516,1.516,0,0,0,1.9,10.7l5,4.876L5.721,22.469a1.514,1.514,0,0,0,2.2,1.6l6.188-3.252,6.188,3.252a1.515,1.515,0,0,0,2.2-1.6L21.307,15.58l5-4.876a1.516,1.516,0,0,0-.838-2.585L18.556,7.111,15.464.842a1.516,1.516,0,0,0-2.718,0Z" transform="translate(857.559 3015.001)" fill="#56aabf"/>
    <path id="Icon_awesome-star-4" data-name="Icon awesome-star" d="M12.747.842,9.655,7.111,2.739,8.119A1.516,1.516,0,0,0,1.9,10.7l5,4.876L5.721,22.469a1.514,1.514,0,0,0,2.2,1.6l6.188-3.252,6.188,3.252a1.515,1.515,0,0,0,2.2-1.6L21.307,15.58l5-4.876a1.516,1.516,0,0,0-.838-2.585L18.556,7.111,15.464.842a1.516,1.516,0,0,0-2.718,0Z" transform="translate(890.559 3015.001)" fill="#56aabf"/>
    <path id="Icon_awesome-star-half-alt" data-name="Icon awesome-star-half-alt" d="M24.079,8.121,17.149,7.112,14.052.843a1.521,1.521,0,0,0-2.723,0l-3.1,6.268L1.3,8.119A1.515,1.515,0,0,0,.46,10.7l5.014,4.877L4.287,22.47a1.519,1.519,0,0,0,1.5,1.773,1.5,1.5,0,0,0,.7-.178l6.2-3.252,6.2,3.253a1.515,1.515,0,0,0,2.2-1.6L19.9,15.582l5.015-4.876a1.515,1.515,0,0,0-.84-2.585Zm-5.764,5.833-.858.834.2,1.178.924,5.372L13.748,18.8l-1.06-.556V3.226l2.416,4.891.529,1.072,1.184.172,5.409.787-3.913,3.806Z" transform="translate(924 3015)" fill="#56aabf"/>
  </g>
</svg>
