<?xml version="1.0" encoding="UTF-8"?>
<svg id="Layer_16" data-name="Layer 16" xmlns="http://www.w3.org/2000/svg" viewBox="0 0 178.16 62.33">
  <defs>
    <style>
      .cls-1 {
        fill: #5f5ba8;
        stroke: #fff;
        stroke-linejoin: round;
        stroke-width: 4px;
      }

      .cls-2 {
        fill: #fff;
        stroke-width: 0px;
      }
    </style>
  </defs>
  <path class="cls-1" d="M174,2H8.08c-3.36,0-6.08,2.72-6.08,6.08v46.17c0,3.36,2.72,6.08,6.08,6.08h166.34c1.26,0,2.1-1.31,1.58-2.46l-11.96-26.19,11.55-27.27c.48-1.14-.36-2.41-1.6-2.41Z"/>
  <g>
    <path class="cls-2" d="M50.26,20.8c3.32,0,5,1.22,5,5v6.76c0,3.91-1.81,4.96-5,4.96h-4.03c1.18,1.09,3.44,3.19,7.81,5,2.69,1.13,3.53,1.47,3.53,3.19,0,1.81-1.26,4.03-3.36,4.03s-9.66-4.87-12.98-9.12v7.14c0,.88-.08,3.11-2.98,3.11-2.39,0-3.36-.88-3.36-3.11v-7.14c-1.89,2.39-4.29,4.33-6.81,6.05-1.6,1.05-4.62,3.02-6.09,3.02-2.35,0-3.44-2.35-3.44-3.91,0-1.81.8-2.1,3.82-3.36,1.47-.59,4.66-2.23,7.52-4.92h-4.03c-3.15,0-5-1.05-5-4.96v-6.76c0-3.78,1.68-5,5-5h9.03v-1.39h-13.82c-1.81,0-3.02-.59-3.02-2.56,0-1.72.38-2.98,3.02-2.98h13.82v-.84c0-2.02,1.64-2.44,2.94-2.44,1.72,0,3.4.38,3.4,2.44v.84h13.86c1.47,0,2.98.42,2.98,2.56,0,1.76-.38,2.98-2.98,2.98h-13.86v1.39h9.03ZM34.89,27.19v-1.93h-7.27c-.5,0-.76.29-.76.8v1.13h8.02ZM34.89,31.22h-8.02v1.18c0,.46.25.76.76.76h7.27v-1.93ZM41.19,27.19h8.23v-1.13c0-.5-.29-.8-.76-.8h-7.48v1.93ZM41.19,31.22v1.93h7.48c.46,0,.76-.25.76-.76v-1.18h-8.23Z"/>
    <path class="cls-2" d="M96.97,14.46c1.09,0,3.11.17,3.11,2.86,0,2.23-1.26,2.94-3.11,2.94h-33.86c-.67,0-3.11,0-3.11-2.77,0-2.1.97-3.02,3.11-3.02h13.61v-1.18c0-1.97,1.43-2.56,3.07-2.56,1.93,0,3.61.34,3.61,2.56v1.18h13.57ZM72.52,39.92c0,.76,0,1.39-3.44,5.33-1.09,1.3-2.06,2.18-2.98,2.98-.8.67-1.26.84-1.89.84-1.89,0-3.49-1.68-3.49-3.57,0-1.09.13-1.22,2.39-3.23.34-.29,1.72-1.6,3.57-4.03.67-.88,1.18-1.51,2.35-1.51.84,0,3.49.97,3.49,3.19ZM83.4,45.08c0,5.08-2.81,5.08-7.18,5.08-3.03,0-3.61,0-4.37-.59-.84-.71-1.05-2.18-1.05-2.98,0-1.68.76-3.11,3.07-3.11,1.93,0,2.14,0,2.39-.08.63-.21.67-.97.67-1.13v-6.13h-7.94c-3.32,0-5.08-1.18-5.08-5.12v-3.99c0-3.91,1.72-5.08,5.08-5.08h22.14c3.19,0,5.12,1.05,5.12,5.08v3.99c0,4.03-1.93,5.12-5.12,5.12h-7.73v8.95ZM89.49,28.37c0-.76-.42-1.13-1.13-1.13h-16.76c-.71,0-1.13.42-1.13,1.13v1.22c0,.71.38,1.13,1.13,1.13h16.76c.92,0,1.13-.63,1.13-1.13v-1.22ZM93.27,39.12c1.55,1.76,2.98,2.81,4.75,4.12.8.59,1.09,1.3,1.09,1.97,0,1.68-1.51,3.82-3.53,3.82-.71,0-1.47,0-4.62-2.98-1.26-1.18-2.9-2.94-3.91-4.33-.67-.97-.67-1.51-.67-1.76,0-2.18,2.31-3.28,3.53-3.28s1.51.34,3.36,2.44Z"/>
    <path class="cls-2" d="M131.45,48.07c0,.71,0,2.73-2.82,2.73-2.56,0-3.19-1.01-3.19-2.73v-20.71c-.59,1.51-1.81,1.55-2.48,1.55h-5.54c-.97,1.01-1.39,1.39-1.85,1.85h3.15c3.19,0,4.96,1.13,4.96,5v9.28c0,3.99-1.89,5-4.96,5h-8.15c-3.07,0-4.96-1.01-4.96-5v-6.81c-.25.08-.59.17-1.01.17-2.18,0-2.73-2.18-2.73-3.32,0-1.81,1.13-2.39,2.14-2.94,2.98-1.51,4.75-2.69,5.54-3.23h-4.83c-.38,0-.8,0-1.22-.17-1.3-.55-1.47-2.02-1.47-2.6,0-2.81,1.81-2.81,2.69-2.81h4.54v-3.11h-3.32c-.97,0-2.73-.13-2.73-2.73,0-2.1,1.09-2.73,2.73-2.73h3.32v-1.47c0-2.14,1.72-2.48,2.86-2.48,1.68,0,3.24.42,3.24,2.48v1.47h2.23c1.34,0,1.93.38,2.39,1.09,1.18-2.98,1.39-3.57,2.98-3.57.59,0,2.14.29,2.9,1.3.88-1.72,2.69-1.72,4.79-1.72h5.46c2.81,0,5.21,0,5.21,3.95,0,3.28-.97,5.71-2.06,8.49-1.09,2.77-1.26,3.15-1.26,3.36,0,.42.13.59,1.09,1.97,1.72,2.48,2.86,5.38,2.86,8.95,0,7.23-3.82,8.15-7.22,8.15-1.18,0-2.6-.13-3.28-1.47v2.81ZM111.37,37.86h6.6v-1.47c0-.59-.34-.8-.84-.8h-4.96c-.5,0-.8.25-.8.8v1.47ZM111.37,42.56v1.64c0,.55.29.8.8.8h4.96c.5,0,.84-.21.84-.8v-1.64h-6.6ZM116.58,23.32c.76-.92,1.43-1.89,2.23-3.28-.25.08-.55.17-1.22.17h-2.48v3.11h1.47ZM122.96,23.32c1.68,0,2.1.5,2.48,1.43v-7.31c-.92,2.1-2.1,4.03-3.4,5.88h.92ZM131.45,41.51c.55-.88,1.3-.92,2.65-.97.8,0,1.6-.34,1.6-2.6,0-3.28-1.3-5.21-2.23-6.55-1.39-1.97-1.55-2.23-1.55-2.98,0-1.13.46-2.14,1.09-3.57.97-2.1,2.14-5.71,2.14-6.47,0-.59-.38-.59-.71-.59h-2.18c-.5,0-.8.25-.8.8v22.94Z"/>
  </g>
</svg>