<?xml version="1.0" encoding="UTF-8"?>
<svg id="Layer_4_copy" xmlns="http://www.w3.org/2000/svg" version="1.1" viewBox="0 0 37.6 37.5">
  <!-- Generator: Adobe Illustrator 30.0.0, SVG Export Plug-In . SVG Version: 2.1.1 Build 123)  -->
  <path d="M27.9,37.5c-1.6-.2-3.1-.6-4.6-1.1-4-1.5-7.4-3.7-10.6-6.4-3.2-2.7-5.9-5.8-8.2-9.3-1.8-2.7-3.2-5.6-4-8.8-.2-.6-.2-1.2-.3-1.8-.1-.6,0-1.1.3-1.6,1.1-1.9,2.5-3.7,4-5.4.8-.9,1.7-1.8,2.8-2.5,1.1-.8,2.4-.6,3.3.5,1.8,2.5,3.6,5.1,4.8,8,0,0,0,.1,0,.2.6,1.5.4,2.4-.8,3.5-.6.5-1.1,1-1.8,1.5-.3.2-.3.4-.2.7,1.6,4.3,4.5,7.5,8.6,9.5.5.3,1.1.5,1.6.7.2,0,.4,0,.5-.1.5-.6,1.1-1.2,1.6-1.9.1-.2.3-.3.4-.4.7-.7,1.5-.9,2.5-.6,1.1.4,2.2,1,3.3,1.5,1.8,1,3.5,2.1,5.1,3.3.3.2.6.5.8.8.6.9.7,1.7,0,2.6-.7,1.1-1.6,2-2.6,2.9-1.7,1.5-3.4,2.9-5.4,4-.4.2-.8.4-1.2.4h0Z"/>
</svg>