<?xml version="1.0" encoding="UTF-8"?><svg id="Layer_5" xmlns="http://www.w3.org/2000/svg" viewBox="0 0 423.96 179.34"><defs><style>.cls-1{fill:#e9e9e8;stroke-width:0px;}</style></defs><path class="cls-1" d="M5.48,177.69c2.54-5.59,2.38-9.57,2.93-15.41.81-8.72,10.42-18.82,19.4-18.14,3.78.29,7.72,4.31,11.26,5.77,4.55,1.88,9.55.63,14.03-.69,3.48-1.02,1.2-6.18-2.24-5.17-12.91,3.8-19.96-9.79-33.15-3.33-5.13,2.51-9.89,8.16-12.28,13.27-3.28,7.04-2.02,14.62-5.17,21.57-1.5,3.32,3.72,5.44,5.22,2.14h0Z"/><path class="cls-1" d="M55.21,112.27c-1.99,11.06-1.66,22.36-3.05,33.5-.93,7.4-3.15,18.71,3.11,24.63,4.78,4.53,9.6,3.25,14.1-1.02,2.97-2.82,4.71-6.83,6.31-10.5,2.8-6.42,2.32-8.87,10.35-10.91,4.08-1.03,5.24,3.85,7.49,5.72,2.47,2.05,5.17,3.18,8.38,3.41,4.24.3,7.7-3.05,8.22-7.14,1.86-14.75-7.42-30.95-12.17-44.43-1.21-3.43-6.37-1.17-5.17,2.24,3.92,11.13,8.96,21.99,11.36,33.61.56,2.73.96,5.75.23,8.47-1.55,5.86-8.64-2.3-9.64-3.82-2.27-3.45-5.64-3.97-9.48-3.63-13.25,1.19-12.46,11.95-18.26,21.07-2.94,5.34-6.29,4.33-10.06-3.03-.2-2.69-.16-5.38.14-8.05.28-3.66.9-7.29,1.27-10.93.96-9.49.78-19.04,2.48-28.46.64-3.59-4.95-4.28-5.59-.72h0Z"/><path class="cls-1" d="M51.43,89.63c-7.65,10.44-18.23,26.79-16.24,40.42,1.97,13.46,18.65-2.25,21.89-5.9,2.42-2.72-2.1-6.09-4.5-3.39-2.68,3.02-5.58,6.02-9.12,8.04-5.2,2.98-2.11-6.7-1.5-8.89,2.71-9.6,8.11-18.9,13.98-26.89,2.15-2.93-2.35-6.32-4.5-3.39h0Z"/><path class="cls-1" d="M59.11,89.55c-17.65-2.53-12.44-22.97-2.67-31.71,15.79-14.12,39.3,6.1,30.1,24.1-.73,1.43.25,3.05,1.54,3.68,10.01,4.89,14.68,20.78,12.44,31.07-.77,3.56,4.82,4.24,5.59.72,2.81-12.93-3.58-30.99-15.9-37.01.51,1.22,1.03,2.45,1.54,3.68,11.46-22.42-16.33-46.7-37.21-31.8-15.53,11.08-19.35,39.54,3.84,42.86,3.61.52,4.31-5.07.73-5.59h0Z"/><path class="cls-1" d="M47.53,85.3c-15.97-2.13-14.3,17.33-10.43,27.27,1.03,2.65,5.08.89,4.05-1.76-2.57-6.59-5.86-22.7,5.81-21.14,2.82.38,3.38-4,.57-4.37h0Z"/><path class="cls-1" d="M43.53,76.41c-11.27.11-7.25,17.24-.75,21.2,2.41,1.47,5.08-2.04,2.66-3.52-3.35-2.04-8.11-13.25-1.29-13.32,2.84-.03,2.19-4.39-.62-4.37h0Z"/><path class="cls-1" d="M66.33,105.1c-.19,4.56.94,13.57,5.28,16.36,3.6,2.32,9.98-.23,13.68-1.22,3.11-.83,9.42-1.71,9.64-5.86.12-2.43-.77-4.92-1.42-7.22-.4-1.41-.84-2.82-1.26-4.22-.15-.48-.29-.96-.43-1.44-.34-1.2.17-1-.64.09,1.05-1.43-.12-3.98-2.07-3.51-6.97,1.7-13.93,3.41-20.9,5.11-2.74.67-2.15,5.04.62,4.37,6.97-1.7,13.93-3.41,20.9-5.11-.69-1.17-1.38-2.34-2.07-3.51-1.4,1.9.45,5.46,1.03,7.37.62,2.05,1.22,4.1,1.64,6.19.24,1.17-.29,1.93.58,1.16-.47.41-1.35.62-1.92.83-4.15,1.6-8.66,2.62-13.05,3.25-4.39.63-5.38-8.87-5.24-12.09.12-2.82-4.25-3.41-4.38-.57Z"/><path class="cls-1" d="M59.23,133.84c4.98-4.05,10.14-7.75,13.32-13.49,1.38-2.49-2.72-4.13-4.08-1.67-2.75,4.97-7.67,8.2-11.97,11.7-2.2,1.79.52,5.26,2.73,3.46h0Z"/><path class="cls-1" d="M52.28,94.09c3.08,6.56,8.61,12.21,15.95,13.48,2.81.49,3.36-3.89.57-4.37-5.77-1-10.08-5.76-12.47-10.86-1.21-2.57-5.26-.83-4.05,1.76h0Z"/><path class="cls-1" d="M89.88,88.28c-1.1,3.93-2.41,7.79-3.89,11.6-1.03,2.65,3.06,4.32,4.08,1.67,1.48-3.81,2.78-7.67,3.89-11.6.76-2.71-3.31-4.4-4.08-1.67h0Z"/><path class="cls-1" d="M88.81,118.01c2.63,4.52,7.24,6.9,12.45,6.61,2.84-.16,2.2-4.52-.62-4.37-3.06.17-6.22-1.31-7.78-4-1.41-2.42-5.48-.71-4.05,1.75h0Z"/><path class="cls-1" d="M54.28,153.65c5.44,4.51,13,5.16,19.79,4.83,2.84-.14,2.2-4.51-.62-4.37-5.64.28-12.01-.24-16.53-3.99-2.19-1.82-4.84,1.71-2.65,3.52h0Z"/><path class="cls-1" d="M96.65,149.87c.75-1.74,2.75-2.84,4.24-3.87,1.77-1.23,3.49-2.48,4.85-4.17,1.79-2.22-1.74-4.86-3.52-2.65-2.79,3.48-7.79,4.69-9.65,9.02-1.12,2.62,2.96,4.28,4.08,1.67h0Z"/><path class="cls-1" d="M74.28,62.17c-12.76.48-21.35,5.34-16.65,21.34,4.7,16,23.18,6.06,26.55,1.59,3.37-4.47,5.5-22.14-9.9-22.93Z"/><path class="cls-1" d="M59.28,93.83c6.38,1.91,12.74.89,18.91-1.36,4.22-1.54,10.01-4.5,11.49-9.13.86-2.7-3.22-4.38-4.08-1.67-1.14,3.58-6,5.45-9.16,6.75-4.78,1.97-10.47,2.83-15.49,1.32-2.7-.81-4.39,3.27-1.67,4.08h0Z"/><path class="cls-1" d="M71.27,68.72s-.24.28-.69.68c-.2.2-.55.41-.75.7-.19.25-.42.53-.66.84-.9,1.32-1.54,2.79-2.03,4.63-.53,1.81-.91,3.86-1.26,5.53-.14.84-.26,1.57-.32,2.14-.02.6-.04.94-.04.94,0,0-.33-.11-.88-.49-.49-.39-1.16-1.06-1.65-1.99-1.08-1.84-1.6-4.71-.79-7.53.4-1.39,1.11-2.78,2.15-3.81.47-.54,1.08-.95,1.64-1.29.55-.36,1.2-.5,1.72-.68.55-.16,1.13-.16,1.57-.17.46-.05.76.13,1.06.18.58.17.92.31.92.31Z"/><path class="cls-1" d="M107.84,133.58c5.26-2.93,10.09-6.48,15.51-9.14,9.24-4.53,20.71-.03,29.53,3.38,11.31,4.37,21.41,7.95,33.7,7.26,5.29-.3,10.4-.52,15.67.21,8.27,1.14,9.04,7.98,11.36,14.13,2.51,6.68,11.47,11.49,18.26,12.33,3.61.45,4.33-5.14.72-5.59-14.76-1.83-11.64-15.87-20.71-23.15-6.71-5.39-18.16-4.15-26.09-3.51-15.99,1.28-28.3-7.99-43.32-11.03-15.73-3.18-23.66,2.58-36.87,9.94-3.14,1.75-.94,6.94,2.24,5.17h0Z"/><path class="cls-1" d="M156.89,47.53c-8.24,29.26-18.94,57.88-23.43,88.07-.54,3.6,5.06,4.31,5.59.72,4.42-29.71,14.95-57.86,23.06-86.66.97-3.46-4.23-5.63-5.22-2.14h0Z"/><path class="cls-1" d="M161.24,50.81c13-11.78,19.8,8.02,31.65,8.32-.75-1.29-1.5-2.57-2.24-3.86-3.21,6.24-7.18,12.04-10.4,18.28-2.81,5.47-3.43,12.57-8.12,16.94,1.44.36,2.89.73,4.33,1.09-3.47-10.58-17.25-18.35-27.69-13.73-3.32,1.47-1.09,6.64,2.24,5.17,7.73-3.42,17.79,3.21,20.27,10.8.54,1.66,3.07,2.27,4.33,1.09,4.41-4.11,6.05-9.48,8.04-15.05,2.87-8.02,8.32-14.91,12.2-22.46.78-1.52-.5-3.82-2.25-3.86-5.45-.14-12.39-8.16-17.51-10.51-6.6-3.03-13.17-1.34-18.36,3.36-2.67,2.42.8,6.87,3.49,4.42h0Z"/><path class="cls-1" d="M180.81,87.36c5.81-.85,8.87,10.36,10.31,14.24.81,2.17,4.51,2.3,5.19-.05,3.09-10.56,7.78-20.41,12.04-30.53.35-.84.29-2.14-.4-2.82-4.85-4.76-8.83-8.52-15.77-9.41-3.61-.46-4.32,5.13-.72,5.59,3.17.41,5.42,1.34,7.91,3.35,4.11,3.33,1.94,5.43.09,9.62-3.19,7.22-6.14,14.48-8.36,22.06,1.73-.02,3.46-.04,5.19-.05-2.67-7.14-6.63-18.99-16.27-17.57-3.59.53-2.81,6.1.79,5.58h0Z"/><path class="cls-1" d="M6.3,165.15c9.67-.8,18.38-10,21.89-18.6,1.08-2.64-3.01-4.3-4.08-1.67-2.95,7.23-10.29,15.24-18.42,15.91-2.84.24-2.2,4.6.62,4.37h0Z"/><path class="cls-1" d="M194.18,131.98c-7.09,11.81,14.14,17.22,22.23,17.01,2.84-.08,2.19-4.44-.62-4.37-3.97.11-22-3.47-18.09-9.99,1.45-2.41-2.06-5.09-3.53-2.65h0Z"/><path class="cls-1" d="M140.17,166.38c3.66-1.71,6.43-4.74,9.08-7.72,3.55-4,3.15-4.31,8.92-4.63,5.56-.3,14.06-.83,14.39,6.42.25,5.56,2.2,8.05,6.99,10.86,2.43,1.42,5.11-2.08,2.65-3.52-3.31-1.94-5.08-3.87-5.28-7.95-.11-2.31-.19-4.57-1.69-6.47-2.48-3.13-7.92-3.4-11.49-3.67-4.42-.34-9.09-.1-13.43.8-1.78.37-2.43,2.6-3.3,3.88-2.06,3.03-5.2,6.37-8.6,7.96-2.57,1.2-.83,5.26,1.76,4.05h0Z"/><path class="cls-1" d="M147.33,157.59c6.66,5.54,19.16,8.03,26.64,2.84,2.34-1.62-.4-5.08-2.73-3.46-5.82,4.03-16.25,1.26-21.25-2.9-2.19-1.82-4.83,1.71-2.65,3.52h0Z"/><path class="cls-1" d="M12.04,170.78c.64,1.98.33,3.94-.43,5.84-.88,2.2,2.52,3.59,3.4,1.39,1.15-2.88,1.35-5.73.4-8.69-.73-2.25-4.09-.78-3.37,1.46h0Z"/><path class="cls-1" d="M17.08,169.1c.59,1.51.85,3.05,1.08,4.64.33,2.35,3.97,1.83,3.64-.51-.27-1.92-.63-3.78-1.34-5.59-.87-2.2-4.24-.74-3.37,1.46h0Z"/><path class="cls-1" d="M21.8,165.55c.14.97.39,1.99,1.11,2.7.71.7,1.72.98,2.58.3.71-.56,1.02-1.87.3-2.58-.29-.29-.3-.53-.36-.93-.34-2.34-3.98-1.83-3.64.51h0Z"/><path class="cls-1" d="M183.49,163.43c1.03,2.75,3.12,5.21,6.03,6.02.96.27,1.98,0,2.4-1,.35-.84-.04-2.13-1-2.4-2.08-.58-3.31-2.12-4.05-4.08-.83-2.22-4.2-.76-3.37,1.46h0Z"/><path class="cls-1" d="M191.88,163.65c1.33,1.9,2.9,3.47,5.11,4.27,2.23.8,3.62-2.6,1.4-3.4-1.66-.6-2.64-1.73-3.62-3.15-1.36-1.94-4.24.34-2.88,2.28h0Z"/><path class="cls-1" d="M154.07,67.15c2.4,4.02,3.7,8.57,6.1,12.59,1.2,2,4.59.57,3.37-1.46-2.4-4.03-3.7-8.57-6.1-12.59-1.2-2-4.59-.57-3.37,1.46h0Z"/><path class="cls-1" d="M155.94,58.68c5.73,8.55,10,18,14.24,27.34.98,2.15,4.35.7,3.37-1.46-4.38-9.64-8.82-19.34-14.73-28.16-1.32-1.97-4.2.32-2.88,2.28h0Z"/><path class="cls-1" d="M159.35,50.07c5.43,10.62,12.24,20.46,16.02,31.86.75,2.25,4.11.77,3.37-1.46-3.78-11.39-10.6-21.24-16.02-31.86-1.07-2.1-4.46-.65-3.38,1.46h0Z"/><path class="cls-1" d="M183.47,71.64c1.61,6.76,4.55,13.08,8.04,19.06,1.18,2.02,4.57.59,3.37-1.46-3.31-5.67-6.24-11.7-7.77-18.11-.55-2.28-4.19-1.79-3.64.51h0Z"/><path class="cls-1" d="M187.71,67.21c2.63,7,7.06,13.05,10.46,19.67,1.08,2.09,4.46.65,3.37-1.46-3.4-6.61-7.84-12.67-10.46-19.67-.83-2.22-4.2-.75-3.37,1.46h0Z"/><path class="cls-1" d="M378,5.68c-32.54-18.55-64.39,34.31-34.78,55.53,15.12,10.84,36.68,7.22,46.9-8.08,10.91-16.33,3.79-36.86-11.58-47.11-2.65-1.77-5.87,2.04-3.2,3.82,13.4,8.93,18.9,24.05,11.62,38.88-7.87,16.03-29.03,16.92-42.26,7.43-24.13-17.3,4.87-60.98,31.19-45.97,2.79,1.6,4.88-2.93,2.11-4.51Z"/><path class="cls-1" d="M340.73,14.21c-6.65-2.23-24.85-8.52-27.52,2.6-3.13,13.03,25.95,25.98,33.66,29.92,12.35,6.31,25.36,11.48,38.63,15.47,6.26,1.88,15,4.64,21.62,2.66,14.96-4.48-8.57-21.78-12.39-24.61-2.57-1.91-5.78,1.9-3.2,3.82,4.82,3.57,9.64,7.2,13.54,11.8,4.62,5.46-2.76,4.58-6.49,4.15-14.49-1.66-28.75-8.22-41.91-14.14-12.75-5.74-27.43-12.55-36.46-23.65-8.73-10.73,14.72-4.75,18.4-3.52,3.01,1.01,5.15-3.49,2.11-4.51h0Z"/><path class="cls-1" d="M375.95,24.3s.33-.16.9-.37c.27-.13.69-.14,1.19-.11.56,0,1.02.17,1.61.38.53.23,1.13.55,1.62,1,.51.43,1.03.92,1.41,1.5.45.56.74,1.19,1.06,1.84.27.65.52,1.33.68,2,.7,2.72.35,5.51-.43,7.43-.73,1.96-1.9,2.93-1.9,2.93,0,0-.12-.36-.28-.93-.14-.54-.35-1.3-.59-2.22-.47-1.76-.99-3.98-1.5-6.05-.5-2.1-1.02-3.97-1.74-5.28-.21-.26-.4-.67-.59-.86-.2-.21-.38-.53-.67-.67-.5-.34-.79-.58-.79-.58Z"/><path class="cls-1" d="M306.43,9.97s-.02-.11-.05-.33c0-.21-.13-.53-.08-.94.06-.38.13-1.05.37-1.55.2-.57.49-1.2.91-1.78,1.57-2.5,5.01-4.69,8.76-5.21.93-.15,1.88-.19,2.8-.15.92,0,1.82.2,2.68.36,1.7.44,3.19,1.13,4.31,1.94,1.13.8,1.93,1.62,2.41,2.3.48.65.7,1.07.7,1.07,0,0-.5.06-1.28.08-.76-.02-1.83.07-2.98.07-1.1.07-2.37.14-3.74.23-1.3.16-2.63.23-3.95.47-2.63.35-5.25.99-7.32,1.64-.52.18-.99.35-1.42.54-.46.19-.74.33-1.1.51-.66.47-1.03.74-1.03.74Z"/><path class="cls-1" d="M304.69,21.12s-1.1-.34-1.9-.9c-.89-.57-1.48-1.31-1.51-2.17.11-1.06.76-2.12,1.72-2.69.87-.6,1.98-.73,1.98-.73,0,0,.99.68,1.68,1.29.78.64,1.19,1.2,1.06,1.76-.04.15-.01.39-.08.59-.04.21-.12.41-.23.61-.21.4-.53.77-.94,1.11-.72.66-1.77,1.14-1.77,1.14Z"/><path class="cls-1" d="M406.37,71.21s.54-.17,1.46-.38c.48-.05.99-.31,1.51-.48.52-.15,1.11-.46,1.73-.7.62-.22,1.22-.69,1.87-.97.59-.43,1.25-.76,1.78-1.25.6-.41,1.05-.96,1.5-1.43l.59-.76c.13-.27.27-.53.43-.77.2-.53.39-1.04.45-1.62.06-.57.1-1.2,0-1.87-.11-.67-.18-1.38-.47-2.06-.19-.7-.39-1.41-.7-2.04-.31-.62-.48-1.3-.75-1.84-.28-.53-.49-1.05-.68-1.47-.36-.86-.55-1.41-.55-1.41,0,0,.53.13,1.43.48.9.34,2.18.88,3.46,1.96.33.26.68.54,1.04.82.32.34.63.71.96,1.1.69.73,1.25,1.71,1.73,2.81.3.52.42,1.15.55,1.79.13.64.31,1.28.23,1.98.05,1.4-.34,2.79-.88,4.12-.35.6-.71,1.2-1.09,1.78-.41.54-.91.98-1.37,1.45-.98.84-2.03,1.54-3.11,1.95-1.05.51-2.14.69-3.13.9-1.03.06-1.96.16-2.84,0-1.68-.14-3.21-.74-3.93-1.22-.79-.52-1.23-.88-1.23-.88Z"/></svg>