<?xml version="1.0" encoding="UTF-8"?><svg id="Layer_5" xmlns="http://www.w3.org/2000/svg" viewBox="0 0 106.64 174.08"><defs><style>.cls-1{fill:#e9e9e8;stroke-width:0px;}</style></defs><path class="cls-1" d="M34.97,74.37c-8.94,8.13-16.67,17.63-23.7,27.42C7.05,107.67-.28,116.53,0,124.27c.21,5.79,5.42,5.6,9.2,2.98,8.41-5.82,13.84-16.03,20.33-23.73-1.08-.71-2.15-1.43-3.23-2.14-4.95,9.82-10.72,19.22-15.8,28.98-4.35,8.35-10.23,18.57-9.85,28.34.24,6.03,6.02,7.49,10.51,4.8,3.94-2.36,6.88-6.81,9.63-10.35,2.42-3.13,5.99-10.7,8.72-4.89,3.66,7.77,4.9,18.89,11.9,24.6,4.79,3.9,7.61-2.52,8.75-6.15,2.99-9.56,3.37-20.25,3.97-30.17.49-8.11,1.31-16.75.2-24.84-.35-2.51-3.87-2.18-3.89.32-.05,8.07,1.91,23.22,8.59,28.63,4.75,3.85,6.33-4.33,6.43-7.22.6-17.58-3.01-36.51-6.99-53.61-.57-2.45-4.24-1.12-3.68,1.31,2.88,12.4,4.62,25.26,6.01,37.89.6,5.48,2.14,13.05.16,18.4.33-.9-4.04-9.99-4.47-11.62-1.19-4.51-2.2-9.4-2.17-14.1-1.3.11-2.59.21-3.89.32,2.04,14.78-.1,31.43-2.41,46.06-.55,3.47-1.22,7.01-2.57,10.27-1.93,4.69-6.09-5.45-6.83-7.19-2.45-5.82-3.71-14.99-8.78-19.26-3.71-3.13-8.35,3.98-10.08,6.17-2.65,3.36-5.18,6.79-8.12,9.9-4.47,4.72-7.81,2.25-6.78-3.65,3.18-18.27,16.73-34.95,24.93-51.23,1-1.98-1.8-3.83-3.23-2.14-4.47,5.3-8.46,10.98-12.9,16.3-2.3,2.75-4.76,5.44-7.72,7.49-3.97,2.75.08-7.07.52-7.98,7.22-14.74,19.31-28.84,31.42-39.83,1.86-1.69-1.11-4.23-2.94-2.56h0Z"/><path class="cls-1" d="M86.74,36.53c-12.61-.7-27.94,9.48-29.09,17.31-1.14,7.83,12.67,12.79,18.28,11.5,6.62-5.98,15.83-18.13,10.8-28.81Z"/><path class="cls-1" d="M28.95,20.01c11.09,6.03,18.79,22.75,15.65,30.01-3.14,7.27-15.42,4.61-19.52.57-2.49-8.56-3.96-25.21,3.87-30.58Z"/><path class="cls-1" d="M44.52,63.07c2.47.47,3.19-3.37.72-3.84-2.47-.47-3.2,3.37-.72,3.84h0Z"/><path class="cls-1" d="M50.34,64.17c2.47.47,3.19-3.37.72-3.84s-3.2,3.37-.72,3.84h0Z"/><path class="cls-1" d="M39.8,67.65c-.32,6.12,6.42,8.44,10.76,4.73,1.48-1.27-.23-3.8-1.72-2.52-2.69,2.31-6.2,1.44-5.99-2.46.1-1.96-2.95-1.69-3.05.25h0Z"/><path class="cls-1" d="M99.59,33.26s.19.39.42,1.08c.24.69.54,1.66.78,2.85.2,1.2.44,2.6.39,4.15-.03.77.02,1.57-.14,2.39-.12.82-.29,1.65-.46,2.48-.28.81-.58,1.63-.9,2.41-.26.81-.83,1.48-1.24,2.16-.43.68-.89,1.31-1.44,1.8-.53.52-1.04.98-1.51,1.39-.46.43-1.02.66-1.45.93-.44.26-.85.45-1.18.61-.66.31-1.06.44-1.06.44,0,0,.14-.43.43-1.09.15-.33.32-.73.54-1.14.19-.44.5-.87.69-1.41.21-.53.45-1.08.72-1.64.3-.54.5-1.16.72-1.78.2-.63.55-1.2.69-1.88.17-.67.4-1.32.61-1.98.16-.69.31-1.38.51-2.06.21-.67.29-1.4.48-2.06.36-1.34.62-2.67.98-3.79.35-1.13.66-2.11.95-2.78.27-.67.48-1.06.48-1.06Z"/><path class="cls-1" d="M17.81,80.19s-.13.32-.41.82c-.25.5-.76,1.14-1.19,1.9-.47.73-1.03,1.48-1.65,2.32-.32.4-.65.81-.98,1.23-.33.42-.69.82-1.05,1.22-.65.84-1.44,1.58-2.1,2.34-.72.72-1.38,1.41-2,2.01-.68.57-1.14,1.12-1.58,1.48-.42.37-.71.58-.71.58,0,0-.09-.33-.14-.89-.03-.56-.12-1.43.08-2.36.16-.95.47-2.04,1.01-3.08.48-1.1,1.24-2.07,2-3.06.86-.89,1.74-1.78,2.72-2.41.93-.67,1.96-1.17,2.86-1.51.89-.37,1.66-.43,2.22-.52.56-.07.91-.07.91-.07Z"/><path class="cls-1" d="M4.16,99.23s.15.17.34.42c.2.26.41.6.47,1.13.04.23.04.57.05.79,0,.24,0,.48-.05.72-.08.49-.23.91-.46,1.32-.45.77-1.21,1.32-1.97,1.57-.41.15-.77.23-1.07.32-.34.11-.53.17-.53.17,0,0-.16-.13-.34-.42-.19-.3-.35-.74-.44-1.19-.19-.97-.02-1.97.44-2.76.22-.37.54-.72.87-.98.17-.13.35-.24.54-.35.21-.12.34-.12.54-.19.21-.06.41-.11.58-.16.17-.09.36-.16.51-.22.3-.12.53-.17.53-.17Z"/><path class="cls-1" d="M105.68,44.96s.14.24.3.64c.16.4.35.95.48,1.61.11.65.26,1.34.09,2.18-.12.82-.35,1.68-.67,2.51-.71,1.51-1.76,2.85-2.84,3.6-.54.39-1.05.69-1.44.87-.39.19-.66.27-.66.27,0,0-.08-.27-.15-.69-.07-.43-.12-1.01-.1-1.67.06-1.33.36-2.85,1.01-4.2.25-.65.57-1.26.98-1.83.43-.53.79-1.22,1.22-1.7.43-.5.85-.9,1.18-1.18.33-.27.57-.41.57-.41Z"/><path class="cls-1" d="M44.61,78.56c-5.3-1.27-9.42-9.51-11.8-13.77-5.58-9.99-7.76-21.71-6.13-33C29.66,11.17,49.39-1.2,69,6.01c20.28,7.46,21.63,32.26,12.23,48.77-6.02,10.58-23.28,24.86-36.61,23.79-2.48-.2-3.23,3.64-.72,3.84,16.31,1.31,34.44-14.66,41.82-27.61,10.69-18.78,5.16-46.03-16.96-52.99C47.4-4.92,28.59,7.89,23.3,28.78c-3.05,12.04-.21,25.73,5.43,36.57,3.02,5.8,8.05,15.34,15.15,17.05,2.45.59,3.16-3.25.72-3.84Z"/></svg>