<?xml version="1.0" encoding="UTF-8"?><svg id="Layer_5" xmlns="http://www.w3.org/2000/svg" xmlns:xlink="http://www.w3.org/1999/xlink" viewBox="0 0 601.42 434.38"><defs><style>.cls-1{fill:url(#linear-gradient);}.cls-1,.cls-2,.cls-3,.cls-4,.cls-5,.cls-6,.cls-7,.cls-8{stroke-width:0px;}.cls-2{fill:url(#linear-gradient-6);}.cls-3{fill:url(#linear-gradient-5);}.cls-4{fill:url(#linear-gradient-2);}.cls-5{fill:url(#linear-gradient-7);}.cls-6{fill:url(#linear-gradient-3);}.cls-7{fill:url(#linear-gradient-8);}.cls-8{fill:url(#linear-gradient-4);}</style><linearGradient id="linear-gradient" x1="424.74" y1="2.65" x2="487.58" y2="2.65" gradientTransform="translate(470.45 -424.69) rotate(89.97)" gradientUnits="userSpaceOnUse"><stop offset=".03" stop-color="#f0e859"/><stop offset=".69" stop-color="#c0d570"/><stop offset=".99" stop-color="#1b926e"/></linearGradient><linearGradient id="linear-gradient-2" x1="526.98" y1="44.53" x2="553.29" y2="44.53" gradientTransform="translate(574.52 -438.2) rotate(90)" xlink:href="#linear-gradient"/><linearGradient id="linear-gradient-3" x1="147.7" y1="371.26" x2="471.88" y2="108.16" gradientUnits="userSpaceOnUse"><stop offset=".06" stop-color="#ffdf2f"/><stop offset=".67" stop-color="#2aac6c"/><stop offset="1" stop-color="#345aa6"/></linearGradient><linearGradient id="linear-gradient-4" x1="173.47" y1="396.18" x2="436.88" y2="115.6" gradientUnits="userSpaceOnUse"><stop offset=".06" stop-color="#fcc127"/><stop offset=".52" stop-color="#03914a"/><stop offset="1" stop-color="#0e58a5"/></linearGradient><linearGradient id="linear-gradient-5" x1="184.58" y1="406.5" x2="447.99" y2="125.91" xlink:href="#linear-gradient-4"/><linearGradient id="linear-gradient-6" x1="167.65" y1="390.41" x2="430.96" y2="109.93" xlink:href="#linear-gradient-4"/><linearGradient id="linear-gradient-7" x1="130.82" y1="355.57" x2="394.04" y2="75.19" xlink:href="#linear-gradient-4"/><linearGradient id="linear-gradient-8" x1="-697.06" y1="565.89" x2="-70.67" y2="565.89" gradientTransform="translate(741.05 -275.98) rotate(5.94)" gradientUnits="userSpaceOnUse"><stop offset="0" stop-color="#82ceec"/><stop offset=".5" stop-color="#eae66b"/><stop offset="1" stop-color="#4baf53"/></linearGradient></defs><ellipse class="cls-1" cx="468.01" cy="31.47" rx="31.47" ry="31.42" transform="translate(262.18 452.97) rotate(-67.82)"/><ellipse class="cls-4" cx="529.99" cy="101.93" rx="13.18" ry="13.16" transform="translate(235.73 554.36) rotate(-67.85)"/><path class="cls-6" d="M462.15,341.33v.05c-11.91,20.54-27.73,38.88-47.06,53.87-4.83,3.72-9.82,7.24-15.06,10.45-6.72,4.28-13.79,8.1-21.17,11.52-26.51,12.23-54.39,17.68-81.71,17.12-33.17-.66-65.53-10.14-93.67-27.27-11.75-7.13-22.74-15.59-32.77-25.33-16.23-15.65-29.87-34.55-39.84-56.31-3.41-7.44-6.31-14.98-8.65-22.58-5.14-16.36-7.94-33.08-8.45-49.64-.61-19.26,1.78-38.43,6.92-56.72,5.49-19.72,14.25-38.48,25.9-55.45,10.18-14.88,22.59-28.39,37.04-40.01,6.21-4.99,12.82-9.63,19.74-13.81,6.11-3.72,12.47-7.13,19.08-10.19,83.34-38.43,180.31-10.24,231.19,62.48,6.36,9.07,12.01,18.86,16.79,29.3,2.44,5.35,4.63,10.8,6.56,16.26,18.72,53.15,11.96,110.08-14.86,156.25Z"/><path class="cls-8" d="M283.77,367.32c-9.67,6.06-19.33,12.13-29,18.19,3.66-4.74,7.07-9.73,10.23-14.88.97-1.63,1.98-3.47,1.63-5.35-.41-1.78-1.93-3.11-3.46-4.23-19.08-14.12-41.87-23.24-65.43-26.14-1.83,12.69-2.54,25.58-2.09,38.43.36,11.67,2.04,23.85,7.84,33.74-11.75-7.13-22.74-15.59-32.77-25.33-.15-.71-.25-1.38-.36-2.09-3.21-21.1-4.78-42.45-4.68-63.81,37.04,3.11,75.76,9.63,104.71,32.97,6,4.89,11.75,10.91,13.38,18.5Z"/><path class="cls-3" d="M400.03,405.7c-6.72,4.28-13.79,8.1-21.17,11.52-26.51,12.23-54.39,17.68-81.71,17.12,7.68-8.21,14.86-16.87,21.47-25.94,2.85-3.98,5.7-8.15,6.51-13,.81-4.79-.46-9.68-1.88-14.37-9.46-31.24-25.44-60.44-46.55-85.31-3.26-3.82-6.72-7.59-11.19-9.84-3.66-1.83-7.73-2.55-11.8-3.06-38.52-5.1-77.34,2.14-113.97,13.96-5.85,1.94-11.7,3.98-17.5,6.06-5.14-16.36-7.94-33.08-8.45-49.64,1.73-.36,3.51-.66,5.24-.92,12.47-1.89,25.19-1.68,37.8-1.89,31.24-.56,62.33-3.87,93.41-7.24,7.17-.76,14.35-1.53,21.47-2.29,6.61-.71,15.98-3.52,22.44-2.34,11.3,1.99,16.84,14.58,22.95,22.88,7.28,9.94,12.16,21.51,17.71,32.51,12.47,24.87,25.34,49.69,42.28,71.86,6.41,8.36,13.43,16.36,18.21,25.79,2.44,4.84,4.07,9.63,4.73,14.12Z"/><path class="cls-2" d="M462.15,341.33v.05c-11.91,20.54-27.73,38.88-47.06,53.87-.2-57.54-.46-115.08-.71-172.61,0-2.85-.1-5.91-1.68-8.36-1.32-2.04-3.51-3.26-5.65-4.43-28.19-14.93-60.14-21.3-91.78-25.18-64.92-7.9-131.72-6.01-194.56,11.82,5.49-19.72,14.25-38.48,25.9-55.45,42.18,4.18,84.92,2.4,127.2,6.32,50.62,4.64,100.13,17.38,149.38,30.07,8.7,2.29,17.5,4.54,25.59,8.56,3.21,1.58,6.41,3.57,8.34,6.57,1.98,3.11,2.34,6.98,2.65,10.65,3.71,45.92,4.53,92.09,2.39,138.11Z"/><path class="cls-5" d="M477.01,185.07c-5.24-3.36-10.68-6.37-16.23-9.12-9.57-4.64-19.49-8.41-28.95-13.15-9.21-4.59-17.96-10.04-26.71-15.49-21.22-13.25-42.43-26.5-63.7-39.75-.87-.56-1.73-1.12-2.65-1.63-7.89-4.94-15.92-9.94-24.93-12.49-10.89-3.06-22.39-2.29-33.68-1.48-32.21,2.5-64.41,5.5-96.52,9.07,6.21-4.99,12.82-9.63,19.74-13.81h.25c12.87-.25,25.74-1.12,38.52-2.24,25.29-2.24,50.78-7.03,76.11-5.1,6.92.56,13.38,3.41,19.69,6.27,10.94,4.89,21.88,9.78,32.77,14.68,24.37,10.91,48.74,21.86,72.65,33.58,3.46,1.68,6.87,3.41,10.28,5.1,6.36,9.07,12.01,18.86,16.79,29.3,2.44,5.35,4.63,10.8,6.56,16.26Z"/><path class="cls-7" d="M336.94,174.29C229.06,120.33,125.63,83.01,67.04,76.9c-12.47-1.3-50.44-5.26-63.76,21.49-18.28,36.68,42.77,90.8,110.71,136.13,2.55-20.52,5.42-33.26,10.56-50.19-39.97-27.68-62.28-48.15-72.74-61.52,2.79.03,6.24.22,10.4.65,52.57,5.48,152.22,41.87,253.87,92.71,137.02,68.53,212.87,129,233.41,155.26-2.8-.03-6.24-.22-10.4-.65-21.3-2.22-48.73-9.06-82.51-20.36-7.74,11.38-31.61,37.15-33.84,38.54,45.39,16.23,82.86,25.39,111.51,28.38,12.47,1.3,50.44,5.26,63.76-21.49,33.69-67.58-191.31-186.67-261.06-221.56Z"/></svg>