<?xml version="1.0" encoding="UTF-8"?><svg id="Layer_5" xmlns="http://www.w3.org/2000/svg" xmlns:xlink="http://www.w3.org/1999/xlink" viewBox="0 0 191.55 191.87"><defs><style>.cls-1{fill:url(#linear-gradient-24);}.cls-1,.cls-2,.cls-3,.cls-4,.cls-5,.cls-6,.cls-7,.cls-8,.cls-9,.cls-10,.cls-11,.cls-12,.cls-13,.cls-14,.cls-15,.cls-16,.cls-17,.cls-18,.cls-19,.cls-20,.cls-21,.cls-22,.cls-23,.cls-24,.cls-25,.cls-26{stroke-width:0px;}.cls-1,.cls-26{mix-blend-mode:multiply;}.cls-2{fill:url(#linear-gradient-12);}.cls-3{fill:url(#linear-gradient-17);}.cls-4{fill:url(#linear-gradient-19);}.cls-5{fill:url(#linear-gradient-21);}.cls-6{fill:url(#linear-gradient-6);}.cls-7{fill:#faf5f0;}.cls-27{mask:url(#mask-2);}.cls-8{fill:url(#linear-gradient-13);opacity:.66;}.cls-9{fill:url(#linear-gradient-23);opacity:.27;}.cls-10{fill:url(#linear-gradient-15);}.cls-11{fill:url(#linear-gradient-11);}.cls-28{mask:url(#mask-3);}.cls-12{fill:url(#linear-gradient-5);}.cls-29{filter:url(#drop-shadow-1);}.cls-13{fill:url(#linear-gradient-16);}.cls-14{fill:url(#linear-gradient-2);}.cls-14,.cls-15{opacity:.16;}.cls-15{fill:url(#linear-gradient);}.cls-16{fill:url(#linear-gradient-20);}.cls-17{fill:url(#linear-gradient-14);}.cls-18{fill:url(#linear-gradient-7);}.cls-19{fill:url(#linear-gradient-3);}.cls-20{fill:url(#linear-gradient-9);}.cls-21{fill:url(#linear-gradient-8);}.cls-22{fill:url(#linear-gradient-25);opacity:.51;}.cls-23{fill:url(#linear-gradient-18);}.cls-30{filter:url(#luminosity-noclip);}.cls-31{mask:url(#mask-1);}.cls-32{mask:url(#mask);}.cls-24{fill:url(#linear-gradient-10);}.cls-25{fill:url(#linear-gradient-4);}.cls-26{fill:url(#linear-gradient-22);}.cls-33{filter:url(#luminosity-noclip-3);}</style><linearGradient id="linear-gradient" x1="147.77" y1="232.28" x2="-62.24" y2="-318.42" gradientUnits="userSpaceOnUse"><stop offset="0" stop-color="#c94882"/><stop offset=".89" stop-color="#aa4285"/></linearGradient><linearGradient id="linear-gradient-2" x1="140.23" y1="212.51" x2="-39.33" y2="-258.35" xlink:href="#linear-gradient"/><linearGradient id="linear-gradient-3" x1="151.48" y1="151.59" x2="40.76" y2="40.87" gradientUnits="userSpaceOnUse"><stop offset=".08" stop-color="#65388d"/><stop offset=".54" stop-color="#b94885"/><stop offset="1" stop-color="#f5ed80"/></linearGradient><linearGradient id="linear-gradient-4" x1="46.55" y1="78.74" x2="56.66" y2="44.09" gradientUnits="userSpaceOnUse"><stop offset="0" stop-color="#ec648b"/><stop offset="1" stop-color="#f9bf8b"/></linearGradient><linearGradient id="linear-gradient-5" x1="46.48" y1="78.72" x2="56.58" y2="44.06" gradientUnits="userSpaceOnUse"><stop offset="0" stop-color="#e94573"/><stop offset="1" stop-color="#f6a96e"/></linearGradient><linearGradient id="linear-gradient-6" x1="73.47" y1="49.43" x2="78.39" y2="37.54" xlink:href="#linear-gradient-4"/><linearGradient id="linear-gradient-7" x1="73.47" y1="49.42" x2="78.38" y2="37.53" xlink:href="#linear-gradient-5"/><linearGradient id="linear-gradient-8" x1="36.57" y1="107.9" x2="36.45" y2="92.42" gradientUnits="userSpaceOnUse"><stop offset="0" stop-color="#cb4a81"/><stop offset="1" stop-color="#f49d6b"/></linearGradient><linearGradient id="linear-gradient-9" x1="36.17" y1="103.41" x2="36.04" y2="87.94" gradientUnits="userSpaceOnUse"><stop offset="0" stop-color="#d13366"/><stop offset="1" stop-color="#f1896e"/></linearGradient><linearGradient id="linear-gradient-10" x1="139.94" y1="70.09" x2="121.83" y2="44.6" gradientUnits="userSpaceOnUse"><stop offset=".08" stop-color="#863b8e"/><stop offset="1" stop-color="#ba4682"/></linearGradient><linearGradient id="linear-gradient-11" x1="139.95" y1="70.09" x2="121.84" y2="44.6" gradientUnits="userSpaceOnUse"><stop offset="0" stop-color="#862281"/><stop offset=".89" stop-color="#aa4285"/></linearGradient><linearGradient id="linear-gradient-12" x1="120.52" y1="84.39" x2="109.85" y2="56.41" gradientUnits="userSpaceOnUse"><stop offset=".08" stop-color="#943c8f"/><stop offset="1" stop-color="#cf4d84"/></linearGradient><linearGradient id="linear-gradient-13" x1="120.52" y1="84.39" x2="109.85" y2="56.41" gradientUnits="userSpaceOnUse"><stop offset="0" stop-color="#752c87"/><stop offset=".89" stop-color="#aa4285"/></linearGradient><linearGradient id="linear-gradient-14" x1="97.75" y1="138.02" x2="67.66" y2="66.42" gradientUnits="userSpaceOnUse"><stop offset="0" stop-color="#8b3c8f"/><stop offset=".89" stop-color="#aa4285"/></linearGradient><linearGradient id="linear-gradient-15" x1="97.75" y1="138.02" x2="67.67" y2="66.43" gradientUnits="userSpaceOnUse"><stop offset="0" stop-color="#882b87"/><stop offset=".89" stop-color="#aa4285"/></linearGradient><linearGradient id="linear-gradient-16" x1="56.83" y1="144.8" x2="54.37" y2="119.32" gradientUnits="userSpaceOnUse"><stop offset=".08" stop-color="#923c8f"/><stop offset="1" stop-color="#cb4981"/></linearGradient><linearGradient id="linear-gradient-17" x1="56.83" y1="144.8" x2="54.37" y2="119.32" gradientUnits="userSpaceOnUse"><stop offset="0" stop-color="#893089"/><stop offset=".89" stop-color="#aa4285"/></linearGradient><linearGradient id="linear-gradient-18" x1="121.11" y1="157.81" x2="130.17" y2="105.79" gradientUnits="userSpaceOnUse"><stop offset="0" stop-color="#732f88"/><stop offset="1" stop-color="#7b398e"/></linearGradient><linearGradient id="linear-gradient-19" x1="122.56" y1="157.85" x2="124.09" y2="105.06" gradientUnits="userSpaceOnUse"><stop offset="0" stop-color="#642573"/><stop offset=".89" stop-color="#803e90"/></linearGradient><linearGradient id="linear-gradient-20" x1="152.63" y1="119.54" x2="134.69" y2="93.09" gradientUnits="userSpaceOnUse"><stop offset="0" stop-color="#64348b"/><stop offset=".88" stop-color="#8f3b8e"/></linearGradient><linearGradient id="linear-gradient-21" x1="150.1" y1="115.79" x2="132.16" y2="89.35" gradientUnits="userSpaceOnUse"><stop offset="0" stop-color="#782383"/><stop offset=".89" stop-color="#933a8e"/></linearGradient><filter id="luminosity-noclip" x="38.34" y="22.97" width="130.24" height="139.48" color-interpolation-filters="sRGB" filterUnits="userSpaceOnUse"><feFlood flood-color="#fff" result="bg"/><feBlend in="SourceGraphic" in2="bg"/></filter><filter id="luminosity-noclip-2" x="38.34" y="-12967.39" width="130.24" height="32766" color-interpolation-filters="sRGB" filterUnits="userSpaceOnUse"><feFlood flood-color="#fff" result="bg"/><feBlend in="SourceGraphic" in2="bg"/></filter><mask id="mask-1" x="38.34" y="-12967.39" width="130.24" height="32766" maskUnits="userSpaceOnUse"/><linearGradient id="linear-gradient-22" x1="61.53" y1="37.02" x2="165.45" y2="128.99" gradientUnits="userSpaceOnUse"><stop offset="0" stop-color="#fff"/><stop offset="1" stop-color="#4d4d4d"/></linearGradient><mask id="mask" x="38.34" y="22.97" width="130.24" height="139.48" maskUnits="userSpaceOnUse"><g class="cls-30"><g class="cls-31"><path class="cls-26" d="M168.58,95.89c0,29.63-17.66,55.15-43.02,66.56,23.63-20.6,44.63-48.39,26.77-93.78-7.98-20.3-30.72-35.97-53.57-21.28-12.68,8.14-25.64,28.87-42.1,28.61-7.13-.12-13.62-5.26-16.42-11.82-2.07-4.83-2.31-9.39-1.37-13.78,13.36-16.73,33.88-27.44,56.91-27.44,40.21,0,72.8,32.64,72.8,72.92Z"/></g></g></mask><linearGradient id="linear-gradient-23" x1="61.53" y1="37.02" x2="165.45" y2="128.99" gradientUnits="userSpaceOnUse"><stop offset="0" stop-color="#fad8e6"/><stop offset="1" stop-color="#f7d0e2"/></linearGradient><filter id="luminosity-noclip-3" x="37.79" y="89.99" width="35.2" height="40.3" color-interpolation-filters="sRGB" filterUnits="userSpaceOnUse"><feFlood flood-color="#fff" result="bg"/><feBlend in="SourceGraphic" in2="bg"/></filter><filter id="luminosity-noclip-4" x="37.79" y="-12967.39" width="35.2" height="32766" color-interpolation-filters="sRGB" filterUnits="userSpaceOnUse"><feFlood flood-color="#fff" result="bg"/><feBlend in="SourceGraphic" in2="bg"/></filter><mask id="mask-3" x="37.79" y="-12967.39" width="35.2" height="32766" maskUnits="userSpaceOnUse"/><linearGradient id="linear-gradient-24" x1="2167.27" y1="-1222.53" x2="2179.67" y2="-1180.57" gradientTransform="translate(-2114.37 1318.46) rotate(-.18)" gradientUnits="userSpaceOnUse"><stop offset="0" stop-color="#fff"/><stop offset="1" stop-color="#000"/></linearGradient><mask id="mask-2" x="37.79" y="89.99" width="35.2" height="40.3" maskUnits="userSpaceOnUse"><g class="cls-33"><g class="cls-28"><ellipse class="cls-1" cx="55.39" cy="110.14" rx="16.99" ry="20.66" transform="translate(-38.59 30.35) rotate(-22.97)"/></g></g></mask><linearGradient id="linear-gradient-25" x1="2167.27" y1="-1222.53" x2="2179.67" y2="-1180.57" gradientTransform="translate(-2114.37 1318.46) rotate(-.18)" xlink:href="#linear-gradient-23"/><filter id="drop-shadow-1" filterUnits="userSpaceOnUse"><feOffset dx="5" dy="5"/><feGaussianBlur result="blur" stdDeviation="2"/><feFlood flood-color="#7d4c16" flood-opacity=".3"/><feComposite in2="blur" operator="in"/><feComposite in="SourceGraphic"/></filter></defs><ellipse class="cls-15" cx="95.78" cy="95.94" rx="95.78" ry="95.94"/><ellipse class="cls-14" cx="95.78" cy="95.94" rx="81.89" ry="82.03"/><path class="cls-19" d="M168.58,95.89c0,29.63-17.66,55.15-43.02,66.56-9.1,4.09-19.17,6.36-29.78,6.36-40.19,0-72.8-32.66-72.8-72.92,0-17.21,5.95-33.02,15.89-45.48,13.36-16.73,33.88-27.44,56.91-27.44,40.21,0,72.8,32.64,72.8,72.92Z"/><path class="cls-25" d="M46.73,74.32c5.53.83,11.67-11.53,13.64-15.44.53-1.05,1.03-2.15,1.11-3.33.08-1.18-.34-2.45-1.32-3.1-1.15-.76-2.67-.47-4.01-.11-.85.23-1.69.47-2.53.72-3.63,1.1-7.45,2.7-9.39,5.96-1.89,3.19-2.97,14.48,2.5,15.31Z"/><path class="cls-12" d="M48.01,61.89c3.04-4.58,8.21-6.37,13.46-6.45.05-1.15-.36-2.37-1.32-2.99-1.15-.76-2.67-.47-4.01-.11-.85.23-1.69.47-2.53.72-3.63,1.1-7.45,2.7-9.39,5.96-1.84,3.1-2.9,13.85,2.08,15.19-1.05-4.14-.5-9,1.7-12.31Z"/><path class="cls-6" d="M80.95,43.08c-.08-.09-.16-.17-.25-.24-.45-.35-1.01-.51-1.57-.64-2.89-.66-6.17-.57-8.5,1.26-.64.51-1.24,1.32-.94,2.09.15.39.5.66.85.89.96.61,2.45,1.37,3.61,1.38.76,0,1.49-.25,2.21-.5,1.21-.42,2.32-1.15,3.5-1.7.61-.28,1.28-.64,1.45-1.29.11-.44-.06-.9-.36-1.25Z"/><path class="cls-18" d="M69.96,45.95c.68-.77,1.66-1.27,2.66-1.5,2.72-.6,5.82-.67,8.62.05.03-.06.06-.11.08-.17.11-.44-.06-.9-.36-1.25-.08-.09-.16-.17-.25-.24-.45-.35-1.01-.51-1.57-.64-2.89-.66-6.17-.57-8.5,1.26-.64.51-1.24,1.32-.94,2.09.06.15.16.28.27.4Z"/><path class="cls-21" d="M33.73,102.49c.85,1.71,1.95,3.38,3.58,4.37.28.17.59.32.91.29.67-.05,1.06-.77,1.28-1.41.26-.77.46-1.56.6-2.37.23-1.39.26-2.83-.18-4.17-.44-1.33-1.4-2.54-2.71-3.04-1.31-.5-2.96-.17-3.8.95-.57.76-.73,1.76-.6,2.7.12.94.51,1.82.93,2.67Z"/><path class="cls-20" d="M35.9,104.46c-.82-1.91-1.27-4.18.75-5.54.84-.56,1.85-.76,2.84-.66-.52-.93-1.3-1.71-2.29-2.09-1.31-.5-2.96-.17-3.8.95-.57.76-.73,1.76-.6,2.7.12.94.51,1.82.93,2.67.74,1.48,1.68,2.9,2.97,3.9-.27-.66-.52-1.31-.79-1.93Z"/><path class="cls-24" d="M114.92,53.61c-.08.19-.14.39-.19.6-.8,3.1,1.29,6.18,3.52,8.48,6.84,7.06,18.49,5.69,26.62,1.43,1.93-1.01,3.91-2.78,3.6-4.93-.22-1.52-1.53-2.63-2.79-3.5-6.08-4.2-13.41-6.56-20.8-6.71-2.06-.04-4.16.1-6.06.89-1.7.71-3.23,2.03-3.9,3.74Z"/><path class="cls-11" d="M148.46,59.18c-.22-1.52-1.53-2.63-2.79-3.5-.96-.66-1.95-1.26-2.97-1.83.27,3.05-.95,6.15-3.84,7.86-4.49,2.66-10.32,2.94-15.12.95-3.89-1.62-6.49-4.74-9.11-7.87-.41,2.9,1.52,5.73,3.61,7.88,6.84,7.06,18.49,5.69,26.62,1.43,1.93-1.01,3.91-2.78,3.6-4.93Z"/><path class="cls-2" d="M119.13,81.96c5.05-.34,5.08-6.96,1.12-9.36-2.56-1.55-8.5-2.11-8.58,2.18-.03,1.54.78,2.98,1.75,4.18,1.24,1.53,2.92,2.88,4.89,3,.29.02.56.02.82,0Z"/><path class="cls-8" d="M120.95,73.1c.78,1.32.92,3,.04,4.34-1.28,1.95-4.09,1.97-5.93.85-1.46-.89-2.6-2.17-3.36-3.68,0,.06-.02.12-.02.18-.03,1.54.78,2.98,1.75,4.18,1.24,1.53,2.92,2.88,4.89,3,.29.02.56.02.82,0,4.73-.32,5.06-6.16,1.82-8.86Z"/><path class="cls-17" d="M66.75,117.52c7.01,7.36,15.92,12.88,25.62,15.87,1.89.58,3.88,1.07,5.82.7,1.38-.26,2.66-.96,3.78-1.81,4.75-3.61,6.78-9.81,7.46-15.74.62-5.45-.07-9.07-5.02-11.96-9.36-5.48-20.78-5.3-30.85-1.77-2.69.94-5.38,2.21-7.24,4.38-1.86,2.17-2.71,5.41-1.42,7.96.46.9,1.14,1.65,1.83,2.38Z"/><path class="cls-10" d="M104.43,104.58c-.98-.57-1.99-1.07-3.01-1.52,4.26,4.49,4.75,11.67,1.47,17.58-5.42,9.76-13.17,5.37-21.78.91-6.35-3.29-12.06-7.03-15.94-12.6-.98,1.95-1.23,4.28-.25,6.2.46.9,1.14,1.65,1.83,2.38,7.01,7.36,15.92,12.88,25.62,15.87,1.89.58,3.88,1.07,5.82.7,1.38-.26,2.66-.96,3.78-1.81,4.75-3.61,6.78-9.81,7.46-15.74.62-5.45-.07-9.07-5.02-11.96Z"/><path class="cls-13" d="M53.94,145.19c2.19,1.33,4.84,1.66,6.89-.53.66-.7,1.08-1.59,1.39-2.51.42-1.24.63-2.6.31-3.87-.52-2.02-2.33-3.01-4.31-3.05-1.69-.03-3.39.29-4.95.94-1.63.68-3.28,2.02-3.25,3.79.01.88.45,1.69.95,2.42.75,1.08,1.8,2.09,2.98,2.81Z"/><path class="cls-3" d="M62.51,138.29c-.21-.81-.63-1.45-1.19-1.93,0,.05.03.09.04.13.34,2.11-.25,4.8-2.33,5.86-2.81,1.44-7.21-.11-8.99-2.9-.03.17-.05.34-.05.51.01.88.45,1.69.95,2.42.75,1.08,1.8,2.09,2.98,2.81,2.19,1.33,4.84,1.66,6.89-.53.66-.7,1.08-1.59,1.39-2.51.42-1.24.63-2.6.31-3.87Z"/><path class="cls-23" d="M112.89,158.33c.52.76,1.53,1.05,3.27.55,6.48-1.88,10-7.37,13.68-12.54,1.08-1.52,2.18-3.06,2.91-4.78.31-.73.56-1.52.49-2.31-.36-4.14-6.7-2.81-8.85-1.31-1.56,1.09-2.77,2.6-4,4.05-1.96,2.34-4.02,4.62-5.61,7.23-1.23,2-3.26,7.13-1.9,9.11Z"/><path class="cls-4" d="M118.93,155.23c-4.22.9-4.95-2.15-4.4-5.53-1.23,2.23-2.91,6.79-1.64,8.64.52.76,1.53,1.05,3.27.55,6.48-1.88,10-7.37,13.68-12.54,1.08-1.52,2.18-3.06,2.91-4.78.31-.73.56-1.52.49-2.31-.06-.66-.3-1.15-.62-1.55-.92,2.19-9.78,16.7-13.7,17.53Z"/><path class="cls-16" d="M138.37,119.73c1.07,1.55,2.53,3.12,4.42,3.19,1.56.06,2.96-.94,4.12-1.99,3.23-2.91,5.78-6.58,7.38-10.63,1.17-2.97,1.79-6.49.19-9.25-.76-1.31-1.95-2.32-3.21-3.15-2.83-1.88-6.15-3.02-9.53-3.29-1.46-.12-2.99-.06-4.31.58-2.94,1.42-3.91,5.15-3.95,8.42-.07,5.71,1.66,11.42,4.9,16.12Z"/><path class="cls-5" d="M154.47,101.05c-.76-1.31-1.95-2.32-3.21-3.15-.22-.14-.46-.26-.68-.39.79,1.89,1.3,3.87,1.43,5.75.33,4.76-2.79,11.92-8.64,11.48-6.36-.49-8.67-7.71-9.51-14.36-.25,1.07-.37,2.18-.39,3.24-.07,5.71,1.66,11.42,4.9,16.12,1.07,1.55,2.53,3.12,4.42,3.19,1.56.06,2.96-.94,4.12-1.99,3.23-2.91,5.78-6.58,7.38-10.63,1.17-2.97,1.79-6.49.19-9.25Z"/><g class="cls-32"><path class="cls-9" d="M168.58,95.89c0,29.63-17.66,55.15-43.02,66.56,23.63-20.6,44.63-48.39,26.77-93.78-7.98-20.3-30.72-35.97-53.57-21.28-12.68,8.14-25.64,28.87-42.1,28.61-7.13-.12-13.62-5.26-16.42-11.82-2.07-4.83-2.31-9.39-1.37-13.78,13.36-16.73,33.88-27.44,56.91-27.44,40.21,0,72.8,32.64,72.8,72.92Z"/></g><g class="cls-27"><ellipse class="cls-22" cx="55.39" cy="110.14" rx="16.99" ry="20.66" transform="translate(-38.59 30.35) rotate(-22.97)"/></g><g class="cls-29"><g id="zvYlT7"><path class="cls-7" d="M74.28,58.15c.24-3.8.7-4.67,2.39-4.71,1.14-.03,2.02.45,2.28,1.59.22.97.23,1.98.34,3.05h28.62c0-.72-.03-1.39,0-2.07.1-1.67,1-2.59,2.46-2.57,1.44.02,2.33,1.02,2.36,2.66.01.64,0,1.28,0,2.05,1.63,0,3.16-.02,4.69,0,7,.11,12.48,4.46,14.11,11.27.28,1.17.36,2.4.37,3.61.02,15.68.03,31.36,0,47.04,0,7.26-4.34,12.81-11.29,14.47-1.05.25-2.16.35-3.25.36-15.88.02-31.76.04-47.64,0-7.07-.02-12.56-4.42-14.2-11.3-.28-1.17-.36-2.41-.36-3.61-.02-15.64-.02-31.28-.01-46.92,0-7.35,4.3-12.89,11.32-14.56,1.17-.28,2.4-.3,3.61-.35,1.37-.06,2.74-.01,4.17-.01ZM60,82.22v1.23c0,12.15,0,24.3,0,36.45,0,6.15,4.05,10.17,10.21,10.18,15.55,0,31.1,0,46.64,0,6.2,0,10.25-4.06,10.25-10.28,0-12.11,0-24.22,0-36.32,0-.42,0-.84,0-1.25H60ZM107.81,63.04h-28.7c0,.89.09,1.7-.02,2.49-.22,1.51-1.17,2.24-2.58,2.12-1.28-.11-2.11-1.03-2.17-2.47-.03-.71,0-1.43,0-2.12-11.93-1.3-15.38,5.17-14.18,14.18h66.88c0-1.86.08-3.64-.02-5.41-.11-1.89-.77-3.62-1.95-5.14-3.23-4.13-7.72-3.92-12.24-3.67-.34,3.79-.81,4.64-2.5,4.63-1.68,0-2.09-.76-2.51-4.63Z"/><path class="cls-7" d="M93.53,110.9c-2.69,0-4.81-2.11-4.81-4.77,0-2.63,2.16-4.75,4.83-4.75,2.67,0,4.83,2.15,4.81,4.77-.02,2.68-2.14,4.76-4.83,4.76Z"/><path class="cls-7" d="M74.45,101.37c2.61.03,4.77,2.24,4.71,4.83-.06,2.66-2.18,4.71-4.86,4.7-2.67-.02-4.79-2.14-4.79-4.78,0-2.66,2.2-4.78,4.93-4.75Z"/><path class="cls-7" d="M112.79,101.37c2.63.02,4.81,2.21,4.77,4.79-.04,2.66-2.16,4.73-4.83,4.74-2.71,0-4.86-2.16-4.82-4.85.04-2.61,2.21-4.69,4.87-4.67Z"/></g></g></svg>