<?xml version="1.0" encoding="UTF-8"?><svg xmlns="http://www.w3.org/2000/svg" xmlns:xlink="http://www.w3.org/1999/xlink" viewBox="0 0 408 807"><defs><style>.cls-1{fill:#f9f5f0;}.cls-1,.cls-2,.cls-3,.cls-4,.cls-5,.cls-6,.cls-7{stroke-width:0px;}.cls-8{isolation:isolate;}.cls-2{fill:none;}.cls-3{fill:url(#radial-gradient-4);}.cls-3,.cls-4,.cls-7{mix-blend-mode:screen;}.cls-4{fill:url(#radial-gradient);}.cls-5{fill:#e73280;}.cls-6{fill:url(#radial-gradient-2);}.cls-9{clip-path:url(#clippath);}.cls-7{fill:url(#radial-gradient-3);opacity:.25;}</style><clipPath id="clippath"><rect class="cls-2" width="408" height="807"/></clipPath><radialGradient id="radial-gradient" cx="407.76" cy="454.51" fx="407.76" fy="454.51" r="407.76" gradientTransform="translate(440.81 -155.21) rotate(45)" gradientUnits="userSpaceOnUse"><stop offset=".67" stop-color="#f39414"/><stop offset=".7" stop-color="rgba(197,120,16,.81)" stop-opacity=".81"/><stop offset=".75" stop-color="rgba(145,88,11,.6)" stop-opacity=".6"/><stop offset=".79" stop-color="rgba(100,61,8,.41)" stop-opacity=".41"/><stop offset=".83" stop-color="rgba(64,39,5,.27)" stop-opacity=".27"/><stop offset=".87" stop-color="rgba(36,22,2,.15)" stop-opacity=".15"/><stop offset=".91" stop-color="rgba(16,9,1,.07)" stop-opacity=".07"/><stop offset=".95" stop-color="rgba(4,2,0,.02)" stop-opacity=".02"/><stop offset="1" stop-color="#000" stop-opacity="0"/></radialGradient><radialGradient id="radial-gradient-2" cx="157.68" cy="396.66" fx="157.68" fy="396.66" r="538.62" gradientTransform="translate(440.76 -155.08) rotate(45)" gradientUnits="userSpaceOnUse"><stop offset=".11" stop-color="#f6a526"/><stop offset="1" stop-color="#ea602f"/></radialGradient><radialGradient id="radial-gradient-3" cx="125.9" cy="453.43" fx="125.9" fy="453.43" r="556.33" gradientUnits="userSpaceOnUse"><stop offset=".14" stop-color="#f9b226"/><stop offset="1" stop-color="#ea602f"/></radialGradient><radialGradient id="radial-gradient-4" cx="-104.46" cy="1043.33" fx="-104.46" fy="1043.33" r="498.02" gradientTransform="translate(-21.21 -293.33) rotate(-33.38)" gradientUnits="userSpaceOnUse"><stop offset=".44" stop-color="#000"/><stop offset=".65" stop-color="#010100"/><stop offset=".72" stop-color="#080701"/><stop offset=".78" stop-color="#141202"/><stop offset=".82" stop-color="#252204"/><stop offset=".86" stop-color="#3b3607"/><stop offset=".89" stop-color="#564f0a"/><stop offset=".92" stop-color="#776c0e"/><stop offset=".95" stop-color="#9c8f13"/><stop offset=".97" stop-color="#c7b619"/><stop offset="1" stop-color="#f5e01e"/><stop offset="1" stop-color="#ffe920"/></radialGradient></defs><g class="cls-8"><g id="Layer_1"><g class="cls-9"><circle class="cls-4" cx="407.76" cy="454.5" r="407.76" transform="translate(-201.95 421.45) rotate(-45)"/><circle class="cls-6" cx="407.58" cy="454.51" r="274.43" transform="translate(-202.01 421.32) rotate(-45)"/><path class="cls-7" d="M143.73,530.21c-6.89-24.05-10.58-49.44-10.58-75.71,0-8.38.4-16.67,1.13-24.85,18.39-29.78,37.58-59.36,67.84-80.43,52.38-36.46,123.58-37.19,177.89-71.17,38.47-24.07,64.55-62.47,100.88-88.06,51.07,14.12,96.16,42.63,130.64,80.9-26.84,5.47-53.59,11.81-79.98,18.58-60.33,15.49-122.92,34.37-171.32,72.97-35.18,28.05-60.4,64.73-96.59,91.73-22.14,16.53-47.57,28.82-71.53,43.04-16.88,10.02-33.04,21.08-48.37,32.99ZM675.36,394.27c-29.89,19.71-57.34,42.36-81.15,68.06-39.82,42.98-69.14,93.48-116.68,130.1-49.05,37.78-111.21,56.04-169.84,78.02-14.52,5.44-29.2,11.41-43.56,18.04,14.92,9.17,30.79,16.95,47.42,23.16,16.06-11.5,33.55-21.57,51.46-30.08,46.87-22.27,97.14-35.54,146.52-50.66,50.56-15.48,101.27-33.4,146.79-60.4,16.46-35.24,25.68-74.55,25.68-116.01,0-20.69-2.31-40.85-6.65-60.23ZM627.26,619c-24.6,10.19-49.99,18.89-72.37,33.1-28.93,18.37-50.76,44.59-75.86,67.42,60.04-16.15,111.94-52.14,148.23-100.52ZM311.21,585.08c50.87-16.89,103.81-31.38,148.57-60.65,43.31-28.32,75.13-67.98,111.35-103.29,27.47-26.78,57.52-51.01,89.5-72.99-4.13-9.8-8.81-19.31-14.01-28.49-33.67,17.56-68.63,32.55-104.74,43.96-47.39,14.98-96.64,23.82-141.98,44.67-72.11,33.16-125.74,92.38-178.43,148.06-14.55,15.37-29.59,30.84-45.32,45.71,6.53,10.22,13.72,19.96,21.51,29.2,36.53-18.32,75.23-33.45,113.55-46.17ZM240.63,272.9c12.46-2.28,22.23-12.06,31.21-20.79,28.09-27.31,61.03-50.62,96.64-69.25-65.5,9.35-123.54,41.81-165.59,88.88,1.58-.33,3.16-.59,4.77-.71,11.3-.88,21.66,3.95,32.98,1.87Z"/><circle class="cls-3" cx="407.58" cy="454.51" r="274.37" transform="translate(-202.01 421.32) rotate(-45)"/><circle class="cls-5" cx="79.46" cy="78.98" r="2.62"/><path class="cls-1" d="M237.99,73.08c.67,0,1.22.44,1.42,1.16.21.77.39,1.56.71,2.3,1.85,4.38,5.07,7.19,9.68,8.4.31.08.64.12.9.32.5.36.77.84.66,1.47-.11.64-.49,1.06-1.11,1.22-1.15.29-2.28.62-3.34,1.17-3.84,1.98-6.32,5.05-7.39,9.24-.08.3-.12.61-.29.87-.34.49-.8.79-1.41.71-.65-.08-1.11-.46-1.29-1.1-.24-.89-.46-1.78-.83-2.63-1.85-4.16-4.96-6.85-9.34-8.08-.21-.06-.42-.11-.64-.16-.72-.2-1.22-.81-1.21-1.48,0-.65.5-1.26,1.21-1.44,1.13-.27,2.23-.61,3.26-1.14,3.87-1.97,6.34-5.07,7.42-9.27.09-.37.16-.74.44-1.04.31-.34.68-.54,1.16-.52Z"/><path class="cls-1" d="M148.4,27.29c.67,0,1.22.44,1.42,1.16.21.77.39,1.56.71,2.3,1.85,4.38,5.07,7.19,9.68,8.4.31.08.64.12.9.32.5.36.77.84.66,1.47-.11.64-.49,1.06-1.11,1.22-1.15.29-2.28.62-3.34,1.17-3.84,1.98-6.32,5.05-7.39,9.24-.08.3-.12.61-.29.87-.34.49-.8.79-1.41.71-.65-.08-1.11-.46-1.29-1.1-.24-.89-.46-1.78-.83-2.63-1.85-4.16-4.96-6.85-9.34-8.08-.21-.06-.42-.11-.64-.16-.72-.2-1.22-.81-1.21-1.48,0-.65.5-1.26,1.21-1.44,1.13-.27,2.23-.61,3.26-1.14,3.87-1.97,6.34-5.07,7.42-9.27.09-.37.16-.74.44-1.04.31-.34.68-.54,1.16-.52Z"/><path class="cls-1" d="M93.93,150.57c-.7,0-1.26-.46-1.45-1.23-.34-1.4-.92-2.67-1.85-3.78-1.27-1.52-2.87-2.5-4.79-2.97-.26-.06-.52-.12-.73-.28-.45-.35-.75-.8-.65-1.4.1-.64.47-1.11,1.12-1.27,1.16-.28,2.25-.71,3.24-1.39,1.83-1.27,3.02-2.98,3.58-5.13.08-.31.13-.64.33-.9.36-.46.82-.73,1.4-.63.66.11,1.11.51,1.27,1.17.22.91.53,1.79,1.01,2.6,1.29,2.17,3.16,3.56,5.6,4.18.42.11.81.24,1.09.59.69.85.3,2.07-.79,2.37-.95.26-1.87.55-2.72,1.06-2.12,1.28-3.49,3.11-4.11,5.5-.26,1.02-.76,1.49-1.56,1.49Z"/><rect class="cls-2" x="58" width="350" height="803.51"/></g></g></g></svg>