<?xml version="1.0" encoding="UTF-8"?>
<svg id="Layer_1" data-name="Layer 1" xmlns="http://www.w3.org/2000/svg" xmlns:xlink="http://www.w3.org/1999/xlink" viewBox="0 0 113.45 113.45">
  <defs>
    <style>
      .cls-1 {
        clip-path: url(#clippath);
      }

      .cls-2 {
        fill: none;
      }

      .cls-2, .cls-3 {
        stroke-width: 0px;
      }

      .cls-3 {
        fill: #fff;
      }
    </style>
    <clipPath id="clippath">
      <rect class="cls-2" x="28.73" y="15.86" width="55.99" height="81.72"/>
    </clipPath>
  </defs>
  <g class="cls-1">
    <g id="Group_150" data-name="Group 150">
      <path id="Path_252" data-name="Path 252" class="cls-3" d="M84.72,43.69c-.1,4.6-.97,9.15-2.57,13.46-3.88,10.28-9.19,19.97-15.76,28.78-2.53,3.54-5.23,6.95-7.9,10.39-1.31,1.68-2.21,1.67-3.53.02-7.55-9.45-14.6-19.25-19.88-30.19-2.71-5.3-4.68-10.95-5.87-16.78-2.96-15.07,6.76-29.71,21.79-32.83,9.99-2.12,18.73.8,25.89,8.06,5.04,5.07,7.86,11.94,7.83,19.09M56.67,58.6c7.46.01,13.51-6.02,13.52-13.48.01-7.46-6.02-13.51-13.48-13.52-7.45-.01-13.5,6.02-13.52,13.47-.05,7.43,5.94,13.49,13.37,13.53.04,0,.07,0,.11,0"/>
    </g>
  </g>
</svg>