<?xml version="1.0" encoding="UTF-8"?>
<svg id="Layer_1" data-name="Layer 1" xmlns="http://www.w3.org/2000/svg" viewBox="0 0 200 200">
  <defs>
    <style>
      .cls-1 {
        fill: #af7258;
      }

      .cls-2 {
        fill: #5d2b27;
      }
    </style>
  </defs>
  <path class="cls-1" d="M58.1,30.54c2.93.32,5.94.43,8.87.18,8.11-.7,10.4,1.18,10.05,9.46-.35,8.35.55,16.41,3.93,24.13,10.67,24.43,36.23,36.17,61.74,28.36,8.62-2.66,10.1-1.91,13.24,6.39,6.71,17.76,18.89,29.61,37.82,33.16,2.46.46,4.52,1.2,6.26,2.19V.15H17.58c.04.07.08.13.11.2,8.41,16.58,21,28.1,40.4,30.18Z"/>
  <path class="cls-2" d="M135.25,36.42c2.07.36,4.13.43,6.13.07,5.2-.78,9.69-3.49,12.61-7.62,4.77-4.77,6.55-11.82,4.42-18.02-1.5-4.27-4.77-7.69-8.9-9.4-1.28-.5-2.64-.93-4.06-1.14-4.99-.85-10.11.07-14.6,2.78-3.92,2.35-6.91,5.98-8.69,10.04-.64,1.85-1.21,3.78-1.42,5.7-.43,4.56,1.21,9.05,4.35,12.39,2.78,2.78,6.27,4.56,10.19,5.2ZM196.32,49.56c-1.04-3.13-3.57-5.43-6.7-6.17l-.7-.13c-3.48-.61-7.09.39-9.87,2.7-1.61,1.3-2.87,3-3.65,4.87-.65,1.61-.96,3.3-.91,5,.17,3.26,2,6.22,4.78,7.87.65.83,1.43,1.57,2.39,2.13,1.04.74,2.22,1.22,3.48,1.43,3.7.65,7.43-1,9.48-4.13,1.65-2.48,2.52-5.43,2.57-8.43.09-.48,0-1.26-.09-1.96-.09-.91-.35-2.09-.78-3.17Z"/>
</svg>