<?xml version="1.0" encoding="UTF-8"?>
<svg id="Layer_1" data-name="Layer 1" xmlns="http://www.w3.org/2000/svg" viewBox="0 0 121.37 121.37">
  <defs>
    <style>
      .cls-1 {
        fill: #fbb452;
      }

      .cls-2 {
        fill: #5d2b27;
      }
    </style>
  </defs>
  <g id="Group_800" data-name="Group 800">
    <circle id="Ellipse_12" data-name="Ellipse 12" class="cls-1" cx="60.69" cy="60.69" r="60.69"/>
  </g>
  <path class="cls-2" d="M71.71,56.2c-.83.49-1.59.28-2.3.28-10.14.02-20.28,0-30.41.02-3.81,0-5.78,3.58-3.84,6.92.8,1.38,2.13,1.48,3.53,1.48,10.21-.01,20.41,0,30.62,0,.73,0,1.45,0,2.18,0,.13.19.27.37.4.56-1.81,1.67-3.64,3.32-5.41,5.03-1.66,1.59-3.3,3.21-4.86,4.89-1.67,1.8-1.5,3.23.49,5.25,2.1,2.14,3.56,2.37,5.42.79.77-.65,1.46-1.4,2.18-2.12,5.16-5.16,10.33-10.31,15.48-15.48,2.37-2.38,2.38-3.84.04-6.2-5.63-5.65-11.28-11.28-16.91-16.92-1.08-1.08-2.25-2.18-3.89-1.57-1.83.68-3.19,2.04-3.81,3.93-.43,1.33.39,2.33,1.27,3.21,2.82,2.82,5.64,5.63,8.46,8.46.46.46.89.96,1.37,1.48Z"/>
</svg>