<?xml version="1.0" encoding="UTF-8"?>
<svg id="Layer_1" xmlns="http://www.w3.org/2000/svg" xmlns:xlink="http://www.w3.org/1999/xlink" version="1.1" viewBox="0 0 384.8 403.8">
  <!-- Generator: Adobe Illustrator 29.0.0, SVG Export Plug-In . SVG Version: 2.1.0 Build 186)  -->
  <defs>
    <style>
      .st0 {
        fill: none;
      }

      .st1 {
        fill: #1a1818;
      }

      .st2 {
        isolation: isolate;
      }

      .st3 {
        fill: #f7f8f8;
      }

      .st4 {
        clip-path: url(#clippath-1);
      }

      .st5 {
        fill: #fff;
      }

      .st6 {
        fill: #313133;
      }

      .st7 {
        clip-path: url(#clippath);
      }

      .st8 {
        fill: #5c2c27;
      }
    </style>
    <clipPath id="clippath">
      <rect class="st0" y="18.5" width="384.8" height="384.8"/>
    </clipPath>
    <clipPath id="clippath-1">
      <rect class="st0" x="30.2" y=".5" width="141.4" height="36.3"/>
    </clipPath>
  </defs>
  <g id="Group_283">
    <g class="st7">
      <g id="Group_282">
        <path id="Path_364" class="st3" d="M353,403.3H31.9c-17.6,0-31.8-14.3-31.8-31.8H.1V50.4c0-17.6,14.3-31.8,31.8-31.8h321.1c17.6,0,31.8,14.3,31.8,31.8h0v321.1c0,17.6-14.2,31.8-31.8,31.8h0"/>
        <path id="Path_365" class="st6" d="M274.7,273.7c-36.5,0-66.1-29.6-66.1-66.1s26.9-63.6,61.6-65.9c2.4-.2,4.7-.2,7.1-.1,30.9,1.4,56.8,23.9,62.4,54.3.7,3.9,1,7.8,1,11.7.1,36.5-29.5,66-66,66.1M274.7,151.2c-1.2,0-2.4,0-3.8.1-31.1,2.1-54.6,29-52.5,60.1s29,54.6,60.1,52.5c29.6-2,52.6-26.6,52.6-56.3s-.3-6.7-.9-10c-4.8-26-26.9-45.2-53.3-46.4h-2.2"/>
        <path id="Path_366" class="st6" d="M250.3,221.1c3.9,0,3.9-6,0-6s-3.9,6,0,6"/>
        <path id="Path_367" class="st6" d="M296.9,222.3c3.9,0,3.9-6,0-6-3.9-.1-3.9,6,0,6"/>
        <path id="Path_368" class="st6" d="M272.7,249.9c-8.4,0-16.2-4.6-20.2-11.9-.6-1.2-.2-2.6.9-3.3,1.2-.6,2.6-.2,3.3.9h0c4.9,8.8,16,12.1,24.9,7.2,3.2-1.7,5.7-4.4,7.4-7.6.6-1.2,2.1-1.7,3.2-1.1,1.2.6,1.7,2.1,1.1,3.2h0c-4,7.8-11.9,12.6-20.6,12.6"/>
        <path id="Path_369" class="st6" d="M277.2,146.4c-.1,0-.1.1,0,0h-6.6c-28.6,2-52,23.5-56.4,51.7,16,13.9,40.3,12.3,54.2-3.8,2.1-2.5,3.9-5.2,5.4-8.1,9.5,19,32.6,26.7,51.6,17.2,3.5-1.8,6.7-4,9.6-6.8-5.1-28.1-29.1-49-57.8-50.2"/>
        <path id="Path_370" class="st6" d="M305.1,162.1c0,7.3,5.9,13.2,13.2,13.2s13.2-5.9,13.2-13.2-5.9-13.2-13.2-13.2-13.2,5.9-13.2,13.2"/>
        <path id="Path_371" class="st6" d="M214.2,162.1c0,7.3,5.9,13.2,13.2,13.2s13.2-5.9,13.2-13.2-5.9-13.2-13.2-13.2-13.2,5.9-13.2,13.2"/>
        <path id="Path_372" class="st6" d="M128.9,273.7c-36.5,0-66.1-29.6-66.1-66.1s26.9-63.6,61.6-65.9c2.4-.2,4.7-.2,7.1-.1,30.9,1.4,56.8,23.9,62.4,54.3.7,3.9,1,7.8,1,11.7.1,36.5-29.5,66-66,66.1M128.9,151.2c-1.2,0-2.4,0-3.8.1-31.1,2.1-54.6,29-52.5,60.1s29,54.6,60.1,52.5c29.6-2,52.6-26.6,52.6-56.3s-.3-6.7-.9-10c-4.8-26-26.9-45.2-53.3-46.4h-2.2"/>
        <path id="Path_373" class="st6" d="M104.5,221.1c3.9,0,3.9-6,0-6s-3.9,6,0,6"/>
        <path id="Path_374" class="st6" d="M151.1,222.3c3.9,0,3.9-6,0-6-3.9-.1-3.9,6,0,6"/>
        <path id="Path_375" class="st6" d="M126.9,249.9c-8.4,0-16.2-4.6-20.2-11.9-.7-1.2-.3-2.6.9-3.3,1.2-.7,2.6-.3,3.3.9h0c4.9,8.9,16,12.2,24.9,7.3,3.2-1.7,5.7-4.4,7.4-7.6.6-1.2,2.1-1.7,3.2-1.1,1.2.6,1.7,2.1,1.1,3.2h0c-4,7.7-11.9,12.5-20.6,12.5"/>
        <path id="Path_376" class="st6" d="M68.4,198.2c4.4-28.3,27.8-49.7,56.4-51.6,1.4-.1,2.7-.1,4.1-.1s1.6,0,2.4.1c29,1.1,55.9,22.7,57.8,53l-120.7-1.4h0Z"/>
        <path id="Path_377" class="st8" d="M65.2,135.6c-1.3,0-2.4-1.1-2.4-2.4v-17.2c0-1.3,1.1-2.4,2.5-2.4s2.3,1.1,2.4,2.4v17.2c0,1.4-1.2,2.4-2.5,2.4"/>
        <path id="Path_378" class="st8" d="M73.8,127h-17.2c-1.3,0-2.4-1-2.5-2.4,0-1.3,1-2.4,2.4-2.5h17.3c1.3,0,2.4,1.1,2.4,2.5s-1.1,2.4-2.4,2.4"/>
        <path id="Path_379" class="st8" d="M200.4,292.5c-1.3,0-2.4-1.1-2.4-2.4v-17.2c0-1.3,1-2.4,2.4-2.5,1.3,0,2.4,1,2.5,2.4v17.3c-.1,1.4-1.2,2.4-2.5,2.4"/>
        <path id="Path_380" class="st8" d="M209,283.9h-17.2c-1.3,0-2.4-1-2.5-2.4,0-1.3,1-2.4,2.4-2.5h17.3c1.3,0,2.4,1,2.5,2.4,0,1.4-1.1,2.5-2.5,2.5.1,0,0,0,0,0"/>
        <path id="Path_381" class="st6" d="M196.4,142.4c-2.9,0-5.2-2.3-5.2-5.2s2.3-5.2,5.2-5.2,5.2,2.3,5.2,5.2-2.3,5.2-5.2,5.2M196.4,134.4c-1.5,0-2.8,1.2-2.8,2.8s1.2,2.8,2.8,2.8,2.8-1.2,2.8-2.8-1.3-2.8-2.8-2.8"/>
        <path id="Path_382" class="st6" d="M60.6,273c-2.9,0-5.2-2.3-5.2-5.2s2.3-5.2,5.2-5.2,5.2,2.3,5.2,5.2-2.4,5.2-5.2,5.2M60.6,265.1c-1.5,0-2.8,1.2-2.8,2.8s1.2,2.8,2.8,2.8,2.8-1.2,2.8-2.8-1.3-2.8-2.8-2.8"/>
        <path id="Path_383" class="st1" d="M43.1,141.2c0,2.2,1.8,4,4,4s4-1.8,4-4-1.8-4-4-4-4,1.8-4,4h0"/>
      </g>
    </g>
  </g>
  <g id="Group_285">
    <g class="st4">
      <g id="Group_284">
        <path id="Path_384" class="st8" d="M153.4,36.8H48.4c-10,0-18.2-8.1-18.2-18.2S38.3.4,48.4.4h105c10,0,18.2,8.1,18.2,18.2s-8.2,18.2-18.2,18.2h0"/>
      </g>
    </g>
  </g>
  <g class="st2">
    <path class="st5" d="M77.4,21.1c0,1.4-.5,2.5-1.5,3.3s-2.4,1.2-4.3,1.2-3.1-.3-4.4-.9v-3.1c.7.3,1.5.6,2.3.9s1.6.4,2.4.4,1.4-.2,1.7-.5c.3-.3.5-.7.5-1.2s0-.7-.4-1-.6-.5-1.1-.8c-.5-.2-1-.5-1.6-.8s-.8-.4-1.2-.6c-.4-.2-.8-.5-1.2-.9-.4-.4-.7-.8-1-1.3-.2-.5-.4-1.1-.4-1.8,0-1.4.5-2.5,1.4-3.3,1-.8,2.3-1.2,3.9-1.2s1.6.1,2.3.3c.7.2,1.5.5,2.3.8l-1.1,2.6c-.7-.3-1.4-.5-1.9-.7-.6-.2-1.2-.2-1.8-.2s-1.1.1-1.5.4c-.3.3-.5.7-.5,1.1,0,.6.2,1,.7,1.3s1.2.7,2.2,1.2c.8.4,1.5.8,2.1,1.2.6.4,1,.9,1.3,1.5.7.6.8,1.3.8,2.1Z"/>
    <path class="st5" d="M85.1,23.1c.4,0,.7,0,1.1-.1s.7-.2,1-.3v2.4c-.4.2-.8.3-1.3.4s-1.1.2-1.7.2-1.4-.1-1.9-.4-1-.6-1.3-1.2-.5-1.4-.5-2.4v-5.8h-1.6v-1.4l1.8-1.1.9-2.5h2.1v2.6h3.3v2.5h-3.4v5.8c0,.5,0,.8.4,1s.6.3,1.1.3Z"/>
    <path class="st5" d="M94.5,13.3c1.7,0,3,.5,3.9,1.4,1,.9,1.5,2.3,1.5,4v1.6h-7.7c0,.9.3,1.7.8,2.2s1.2.8,2.2.8,1.5-.1,2.1-.2c.6-.2,1.3-.4,2-.7v2.5c-.6.3-1.2.5-1.9.6-.6.1-1.4.2-2.4.2s-2.3-.2-3.2-.7-1.6-1.1-2.2-2c-.5-.9-.8-2-.8-3.4s.2-2.6.7-3.5,1.1-1.6,2-2.1,1.9-.7,3-.7ZM94.5,15.6c-.6,0-1.2.2-1.6.6-.4.4-.7,1-.7,1.9h4.6c0-.7-.2-1.3-.6-1.8-.3-.5-.9-.7-1.7-.7Z"/>
    <path class="st5" d="M109.2,13.3c1.3,0,2.4.5,3.3,1.6.8,1,1.3,2.6,1.3,4.6s-.4,3.6-1.3,4.7-2,1.6-3.3,1.6-1.6-.2-2.1-.5-.9-.7-1.3-1.1h-.2c0,.6.2,1.2.2,1.8v4.8h-3.3V13.5h2.7l.5,1.6h.2c.3-.5.8-.9,1.3-1.3.5-.4,1.2-.5,2-.5ZM108.2,15.9c-.9,0-1.5.3-1.8.8-.4.5-.5,1.3-.5,2.4v.4c0,1.2.2,2,.5,2.7.3.6,1,.9,1.9.9s1.3-.3,1.7-.9c.4-.6.5-1.5.5-2.7,0-2.4-.8-3.6-2.3-3.6Z"/>
    <path class="st5" d="M131.7,13.3c0,1.1-.3,2-1,2.6-.7.6-1.5,1.1-2.4,1.3h0c1.2.3,2.2.6,2.9,1.3.7.6,1,1.4,1,2.5s-.2,1.7-.7,2.5c-.4.7-1.1,1.3-2.1,1.7-.9.4-2.1.6-3.6.6s-3.2-.3-4.5-.9v-2.8c.7.3,1.4.6,2.1.8.7.2,1.4.3,2.1.3,1.2,0,2-.2,2.5-.6.5-.4.7-1,.7-1.7s-.1-.8-.3-1.1c-.2-.3-.6-.5-1.2-.7s-1.3-.2-2.3-.2h-1.2v-2.6h1.2c1,0,1.7-.1,2.2-.3s.9-.4,1-.7c.2-.3.3-.7.3-1.1,0-.6-.2-1-.5-1.3s-.9-.5-1.7-.5-1.4.1-2,.4c-.6.3-1,.5-1.4.7l-1.5-2.3c.6-.4,1.3-.8,2.2-1.1.8-.3,1.8-.4,3-.4s2.9.3,3.8,1c1,.5,1.4,1.4,1.4,2.6h0Z"/>
  </g>
</svg>