<?xml version="1.0" encoding="UTF-8"?>
<svg id="Layer_1" data-name="Layer 1" xmlns="http://www.w3.org/2000/svg" xmlns:xlink="http://www.w3.org/1999/xlink" viewBox="0 0 215 220">
  <defs>
    <style>
      .cls-1 {
        filter: url(#outer-glow-4);
      }

      .cls-2 {
        fill: url(#linear-gradient);
      }

      .cls-3 {
        fill: #5d2b27;
      }
    </style>
    <filter id="outer-glow-4" x="0" y="0" width="215" height="220" filterUnits="userSpaceOnUse">
      <feOffset dx="0" dy="0"/>
      <feGaussianBlur result="blur" stdDeviation="16.71"/>
      <feFlood flood-color="#5d2b27" flood-opacity=".5"/>
      <feComposite in2="blur" operator="in"/>
      <feComposite in="SourceGraphic"/>
    </filter>
    <linearGradient id="linear-gradient" x1="50.93" y1="110" x2="164.07" y2="110" gradientUnits="userSpaceOnUse">
      <stop offset="0" stop-color="#f6aa64"/>
      <stop offset=".09" stop-color="#f8af58"/>
      <stop offset=".23" stop-color="#fab351"/>
      <stop offset=".6" stop-color="#fbb450"/>
      <stop offset=".71" stop-color="#fab652"/>
      <stop offset=".8" stop-color="#fabe5c"/>
      <stop offset=".87" stop-color="#f9cb6c"/>
      <stop offset=".94" stop-color="#f8dd82"/>
      <stop offset="1" stop-color="#f8f29c"/>
    </linearGradient>
  </defs>
  <g class="cls-1">
    <path class="cls-2" d="M107.5,50.96c3.54,0,6.72,2.31,9.79,4.55,2.15,1.56,4.37,3.18,6.64,3.91,2.4.78,5.23.79,7.97.8,3.73.02,7.59.03,10.3,2.01,2.75,2,3.96,5.69,5.13,9.25.85,2.59,1.72,5.26,3.18,7.27,1.44,1.97,3.69,3.61,5.87,5.2,3.05,2.22,6.21,4.52,7.28,7.81,1.01,3.12-.1,6.6-1.28,10.28-.85,2.65-1.72,5.39-1.72,7.97s.88,5.32,1.72,7.97c1.18,3.68,2.29,7.15,1.28,10.28-1.07,3.29-4.23,5.58-7.28,7.81-2.18,1.58-4.43,3.22-5.87,5.2-1.46,2.01-2.34,4.68-3.18,7.27-1.17,3.56-2.38,7.25-5.13,9.25-2.72,1.98-6.57,1.99-10.3,2.01-2.74.01-5.57.02-7.97.8-2.27.74-4.49,2.35-6.64,3.91-3.08,2.24-6.26,4.55-9.79,4.55-3.54,0-6.72-2.31-9.79-4.55-2.15-1.56-4.37-3.18-6.64-3.91-2.4-.78-5.23-.79-7.97-.8-3.73-.02-7.59-.03-10.3-2.01-2.75-2-3.96-5.69-5.13-9.25-.85-2.59-1.72-5.26-3.19-7.27-1.44-1.97-3.69-3.61-5.87-5.2-3.05-2.22-6.21-4.52-7.28-7.81-.28-.86-.4-1.75-.4-2.66,0-2.4.82-4.95,1.67-7.62.85-2.65,1.72-5.39,1.72-7.97s-.88-5.32-1.72-7.97c-1.18-3.68-2.29-7.15-1.27-10.28,1.07-3.29,4.23-5.58,7.28-7.81,2.18-1.59,4.43-3.22,5.87-5.2,1.46-2.01,2.34-4.68,3.19-7.27,1.17-3.56,2.38-7.25,5.13-9.25,2.72-1.98,6.57-1.99,10.3-2.01,2.74-.01,5.57-.02,7.97-.8,2.27-.74,4.49-2.35,6.64-3.91,3.08-2.24,6.26-4.55,9.79-4.55Z"/>
  </g>
  <path class="cls-3" d="M94.04,140.27c-6.77,0-6.84-5.97-6.84-6.48,0-8.28,11.02-16.49,14.62-19.08,9.57-6.91,12.53-9,12.53-15.62,0-5.76-2.88-8.28-6.77-8.28-6.41,0-6.84,5.76-7.2,9.29-.14,1.8-2.16,3.89-6.05,3.89-3.31,0-6.77-1.44-6.77-6.05,0-4.9,3.6-18.21,19.8-18.21,12.31,0,20.23,8.35,20.23,19.94,0,10.58-6.48,15.69-11.66,19.51-6.19,4.46-10.73,7.85-10.73,9.14,0,.79,1.3.86,1.66.86h14.76c1.37,0,6.12,0,6.12,5.47s-4.54,5.62-6.12,5.62h-27.57Z"/>
</svg>