<?xml version="1.0" encoding="UTF-8"?>
<svg id="Layer_1" data-name="Layer 1" xmlns="http://www.w3.org/2000/svg" xmlns:xlink="http://www.w3.org/1999/xlink" viewBox="0 0 215 220">
  <defs>
    <style>
      .cls-1 {
        fill: #5d2b27;
      }

      .cls-2 {
        fill: url(#linear-gradient);
        filter: url(#outer-glow-3);
      }
    </style>
    <linearGradient id="linear-gradient" x1="50.38" y1="109.59" x2="163.51" y2="109.59" gradientUnits="userSpaceOnUse">
      <stop offset="0" stop-color="#f6aa64"/>
      <stop offset=".09" stop-color="#f8af58"/>
      <stop offset=".23" stop-color="#fab351"/>
      <stop offset=".6" stop-color="#fbb450"/>
      <stop offset=".71" stop-color="#fab652"/>
      <stop offset=".8" stop-color="#fabe5c"/>
      <stop offset=".87" stop-color="#f9cb6c"/>
      <stop offset=".94" stop-color="#f8dd82"/>
      <stop offset="1" stop-color="#f8f29c"/>
    </linearGradient>
    <filter id="outer-glow-3" x="0" y="0" width="215" height="220" filterUnits="userSpaceOnUse">
      <feOffset dx="0" dy="0"/>
      <feGaussianBlur result="blur" stdDeviation="16.71"/>
      <feFlood flood-color="#5d2b27" flood-opacity=".5"/>
      <feComposite in2="blur" operator="in"/>
      <feComposite in="SourceGraphic"/>
    </filter>
  </defs>
  <path class="cls-2" d="M106.95,50.55c3.54,0,6.72,2.31,9.79,4.55,2.15,1.56,4.37,3.18,6.64,3.91,2.4.78,5.23.79,7.97.8,3.73.02,7.59.03,10.3,2.01,2.75,2,3.96,5.69,5.13,9.25.85,2.59,1.72,5.26,3.18,7.27,1.44,1.97,3.69,3.61,5.87,5.2,3.05,2.22,6.21,4.52,7.28,7.81,1.01,3.12-.1,6.6-1.28,10.28-.85,2.65-1.72,5.39-1.72,7.97,0,2.59.88,5.32,1.72,7.97,1.18,3.68,2.29,7.15,1.28,10.28-1.07,3.29-4.23,5.58-7.28,7.81-2.18,1.58-4.43,3.22-5.87,5.2-1.46,2.01-2.34,4.68-3.18,7.27-1.17,3.56-2.38,7.25-5.13,9.25-2.72,1.98-6.57,1.99-10.3,2.01-2.74.01-5.57.02-7.97.8-2.27.74-4.49,2.35-6.64,3.91-3.08,2.24-6.26,4.55-9.79,4.55-3.54,0-6.72-2.31-9.79-4.55-2.15-1.56-4.37-3.18-6.64-3.91-2.4-.78-5.23-.79-7.97-.8-3.73-.02-7.59-.03-10.3-2.01-2.75-2-3.96-5.69-5.13-9.25-.85-2.59-1.72-5.26-3.19-7.27-1.44-1.97-3.69-3.61-5.87-5.2-3.05-2.22-6.21-4.52-7.28-7.81-.28-.86-.4-1.75-.4-2.66,0-2.4.82-4.95,1.67-7.62.85-2.65,1.72-5.39,1.72-7.97s-.88-5.32-1.72-7.97c-1.18-3.68-2.29-7.15-1.27-10.28,1.07-3.29,4.23-5.58,7.28-7.81,2.18-1.59,4.43-3.22,5.87-5.2,1.46-2.01,2.34-4.68,3.19-7.27,1.17-3.56,2.38-7.25,5.13-9.25,2.72-1.98,6.57-1.99,10.3-2.01,2.74-.01,5.57-.02,7.97-.8,2.27-.74,4.49-2.35,6.64-3.91,3.08-2.24,6.26-4.55,9.79-4.55Z"/>
  <path class="cls-1" d="M94.56,101.13c-2.73,0-4.61-2.09-4.61-5.11,0-4.25,2.81-4.61,5.18-4.97,1.58-.22,6.62-.86,9.14-7.27,1.01-2.66,1.73-4.54,5.76-4.54s5.47,2.38,5.47,4.1v51.91c0,3.1-.94,6.19-6.41,6.19-4.18,0-6.91-1.15-6.91-6.19v-34.12h-7.63Z"/>
</svg>