<?xml version="1.0" encoding="UTF-8"?>
<svg id="Layer_1" data-name="Layer 1" xmlns="http://www.w3.org/2000/svg" xmlns:xlink="http://www.w3.org/1999/xlink" viewBox="0 0 1000 1000">
  <defs>
    <style>
      .cls-1 {
        fill: none;
      }

      .cls-2 {
        fill: #f37e5b;
      }

      .cls-3 {
        fill: #f7bd41;
      }

      .cls-4 {
        fill: #568eca;
      }

      .cls-5 {
        opacity: .5;
      }

      .cls-6 {
        fill: #ef628f;
      }

      .cls-7 {
        fill: #00b69c;
      }

      .cls-8 {
        clip-path: url(#clippath);
      }
    </style>
    <clipPath id="clippath">
      <rect class="cls-1" x="-629.75" y="-629.75" width="2259.5" height="2259.5"/>
    </clipPath>
  </defs>
  <g class="cls-8">
    <g class="cls-5">
      <path class="cls-6" d="M424.17-10.26c.69-11.45,1.16-22.85,2.29-34.31,14.51-182.88,56.64-362.23,114.51-534.67,7.61-22.38,15.42-44.66,23.5-66.82h-221.64c-.99,6.58-1.98,13.16-2.94,19.74-7.02,48.43-12.44,97.06-17.04,145.65-4.35,48.62-7.3,97.36-9.11,146.06-1.38,48.76-1.79,97.47-.28,146.12.25,12.14,1.02,24.34,1.51,36.48l.85,18.23c.28,6.06.8,12.14,1.21,18.2l2.62,36.37,3.55,36.29c1.05,12.06,2.75,24.15,4.21,36.21,1.6,12.03,2.86,24.07,4.9,36.07l5.59,35.93,6.66,35.77c1.18,5.95,2.12,11.89,3.5,17.81l3.94,17.73,3.94,17.7c.69,2.95,1.29,5.92,2.01,8.84l2.29,8.81,9.11,35.05c3.33,11.62,6.88,23.18,10.32,34.72,3.25,11.56,7.35,22.96,11.23,34.36,3.94,11.37,7.6,22.77,12.2,33.95,4.4,11.18,8.64,22.39,13.16,33.48l14.51,32.87c20.18,43.39,43.2,85.16,69.22,124.53-18.47-43.5-33.23-88.08-44.88-133.18l-8.09-33.95c-2.34-11.4-4.43-22.83-6.64-34.2-2.4-11.32-3.86-22.85-5.62-34.31-1.68-11.45-3.55-22.8-4.63-34.36-1.21-11.51-2.56-22.94-3.69-34.42l-2.45-34.5-.63-8.59c-.17-2.89-.22-5.78-.33-8.65l-.63-17.26-.63-17.24c-.25-5.73-.11-11.51-.17-17.26l-.08-34.44.96-34.44c.16-11.43,1.07-22.94,1.68-34.39Z"/>
      <path class="cls-7" d="M404.82,397.51l-21.17-27.72c-6.8-9.45-13.35-19.05-19.99-28.53-6.77-9.36-12.83-19.33-19.08-29.05-6.19-9.77-12.53-19.41-18.2-29.52-5.78-10.02-11.67-19.93-17.37-29.96l-16.27-30.51-4.07-7.6c-1.32-2.56-2.53-5.18-3.83-7.77l-7.6-15.53-7.57-15.47c-2.56-5.12-4.79-10.46-7.19-15.69l-14.07-31.44-13.13-31.86c-4.52-10.52-8.34-21.39-12.47-32.08-4.02-10.77-8.23-21.37-11.87-32.27-61.1-172.99-95.57-353.97-112.86-535.03-4.13-45.32-7.46-90.59-9.36-135.88-.11-2.56-.2-5.12-.3-7.68h-238.64c2.87,13.31,5.81,26.59,8.84,39.84,10.96,47.91,23.4,95.35,36.65,142.46,13.27,47.11,28.08,93.75,43.67,140.01,15.78,46.2,32.93,91.91,51.07,137.14C8.58-141.51,28.02-96.85,49.19-53.02c5.15,11.01,10.82,21.83,16.22,32.74l8.18,16.27c2.73,5.42,5.67,10.77,8.51,16.16l17.21,32.13,17.98,31.72c5.86,10.63,12.34,20.95,18.59,31.36,6.33,10.35,12.39,20.82,19.14,30.98l19.74,30.53,20.62,29.96c3.5,4.96,6.77,10.02,10.44,14.87l10.82,14.59,10.82,14.59c1.79,2.4,3.55,4.85,5.4,7.24l5.67,7.1,22.58,28.33c7.79,9.28,15.72,18.36,23.57,27.53,7.68,9.22,16.05,17.98,24.23,26.79,8.23,8.78,16.22,17.73,24.95,26.05,8.56,8.45,17.02,16.96,25.63,25.25l26.65,24.12c36.07,31.44,74.09,60.24,113.88,85.63-34.55-32.24-66.19-66.96-95.18-103.42Z"/>
      <path class="cls-4" d="M340.36,428.46c-10.05-5.86-19.93-11.98-29.87-17.95-9.99-5.78-19.58-12.42-29.24-18.78-9.64-6.42-19.33-12.61-28.64-19.55-9.36-6.8-18.75-13.46-28.03-20.29l-27.29-21.26-6.83-5.29c-2.23-1.82-4.43-3.69-6.64-5.53l-13.24-11.1-13.24-11.07c-4.43-3.63-8.62-7.63-12.94-11.4l-25.63-23.02-24.95-23.76c-8.4-7.76-16.35-16.13-24.45-24.23-8.04-8.18-16.22-16.16-23.98-24.64C-80.76,57.42-185.89-93.91-275.31-252.28c-22.19-39.7-43.67-79.71-63.82-120.32-20.15-40.56-39.35-81.47-57.41-122.69l-13.24-30.97c-4.43-10.3-8.51-20.73-12.78-31.06-4.32-10.35-8.23-20.73-12.17-31.11l-11.84-31.06c-3.26-8.8-6.33-17.7-9.44-26.57h-328.77c3.24,6.34,6.5,12.68,9.79,19l8.56,16.6,8.95,16.49,17.9,32.87c2.92,5.51,6.06,10.93,9.17,16.36l9.36,16.27c6.28,10.85,12.39,21.7,18.81,32.46l19.55,32.1c6.5,10.68,13,21.39,19.77,31.77,6.75,10.43,13.3,20.98,20.18,31.28l20.57,30.95c27.75,40.94,56.44,80.98,85.93,120.29,29.49,39.29,60.16,77.59,91.41,115.23,31.28,37.64,63.8,74.2,96.84,110.13,33.23,35.79,67.48,70.57,102.42,104.52,35.33,33.65,71.26,66.52,108.45,97.96,9.17,7.96,18.75,15.53,28.11,23.29l14.1,11.56c4.68,3.85,9.55,7.52,14.34,11.29l28.77,22.36,29.35,21.67c9.66,7.3,19.77,14.12,29.71,21.09,10.02,6.88,19.8,13.99,30.09,20.51l30.45,19.88,31.03,18.97c5.2,3.11,10.27,6.39,15.58,9.33l15.83,8.95,15.78,8.89c2.64,1.49,5.26,3,7.9,4.43l8.07,4.19,32.16,16.71c10.88,5.29,21.83,10.38,32.71,15.56,10.79,5.31,21.97,9.88,33.04,14.62,11.1,4.68,22.03,9.58,33.37,13.66,11.29,4.21,22.44,8.56,33.7,12.64l34.17,11.18c45.73,14.04,92.16,24.89,138.85,31.91-44.69-15.39-87.69-34.25-128.99-55.76l-30.64-16.71Z"/>
      <path class="cls-3" d="M216.3,535.26c-12.03-.3-24.12-.5-36.21-.91l-36.15-2.18-9.06-.55c-3.03-.22-6.03-.55-9.03-.83l-18.06-1.71-18.09-1.73c-6.06-.52-12-1.46-18.03-2.2l-36.07-4.71-35.9-5.75c-12.03-1.79-23.87-4.3-35.82-6.53-11.89-2.31-23.93-4.4-35.71-7.16l-35.63-7.85-35.38-8.73c-5.89-1.51-11.84-2.89-17.7-4.49l-17.59-4.82c-11.7-3.28-23.54-6.3-35.16-9.83-46.75-13.6-92.93-29.05-138.91-45.43-45.73-16.77-91.16-34.61-136.1-53.8-44.8-19.38-89.35-39.57-133.23-61.21-43.89-21.7-87.47-44.22-130.4-68.12-42.92-23.9-85.41-48.82-127.42-74.92l-31.36-19.91c-10.49-6.61-20.76-13.57-31.17-20.37-10.41-6.72-20.68-13.88-30.98-20.98l-30.92-21.37c-10.24-7.24-20.24-14.68-30.37-22.03l-15.17-11.04c-5.07-3.69-10.13-7.38-15.06-11.21l-29.71-22.77-14.9-11.43-7.08-5.67v-494.28c12.56,17.68,25.19,35.22,37.94,52.62,53.58,72.91,109,143.39,167.49,210.69l10.93,12.69,11.18,12.36,22.36,24.78c3.69,4.21,7.49,8.2,11.32,12.22l11.45,12.09c7.65,8.04,15.23,16.22,22.96,24.15l23.46,23.57c7.82,7.87,15.61,15.78,23.76,23.46,8.1,7.71,16.05,15.58,24.31,23.18l24.67,22.93c33.26,30.29,67.43,59.86,102.37,88.74,34.91,28.88,70.82,56.69,107.24,83.92C-368.52,236.5-210.94,331.98-41.53,402.3c10.55,4.63,21.26,8.59,31.94,12.78,10.68,4.1,21.34,8.53,32.19,12.22l32.46,11.54,32.77,10.6c5.51,1.71,10.96,3.63,16.49,5.15l16.58,4.74,16.6,4.74c2.78.77,5.53,1.62,8.32,2.34l8.37,2.06,33.59,8.34c11.26,2.45,22.55,4.74,33.87,7.1,11.32,2.56,22.72,4.29,34.11,6.22,11.43,1.87,22.85,4.05,34.36,5.29,11.48,1.4,23.02,2.95,34.58,4.24l34.77,2.81c46.48,2.84,93.45,2.59,140.53-1.54-45.51,12.58-92.32,21.56-139.84,27.34l-35.74,3.66c-11.95.85-23.93,1.43-35.93,2.18-12,.91-24.01.85-36.04,1.1-12.03.17-24.12.52-36.15.06Z"/>
      <path class="cls-2" d="M-604.34,777.97c-48.9-1.96-97.88-4.79-146.81-9.17-48.93-4.38-97.91-9.86-146.89-16.63l-36.76-5.42c-12.25-1.76-24.48-3.96-36.76-5.92-12.25-1.93-24.53-4.27-36.84-6.58l-36.95-6.94c-12.25-2.45-24.42-5.18-36.67-7.76l-18.36-3.94c-5.23-1.1-10.49-2.23-15.69-3.5v-323.68c9.22,4.43,18.45,8.81,27.7,13.13l15.14,7.13,15.23,6.77,30.51,13.55c5.07,2.31,10.19,4.43,15.31,6.53l15.36,6.39c10.27,4.24,20.51,8.62,30.81,12.75l31,11.98c10.35,3.99,20.68,8.07,31.28,11.76,10.52,3.74,21.01,7.71,31.64,11.29l31.86,10.9c42.7,14.15,85.96,27.26,129.6,39.46,43.64,12.17,87.75,22.96,132.13,33.04,177.54,39.54,360.3,62.67,543.7,58.01,11.51-.08,22.91-.83,34.36-1.32,11.43-.61,22.96-.91,34.36-1.95l34.36-2.64,34.25-3.66c5.7-.66,11.48-1.1,17.15-1.98l17.04-2.42,17.13-2.42c2.84-.41,5.7-.8,8.56-1.24l8.48-1.51,34.06-6.06c11.29-2.31,22.52-4.85,33.84-7.27,11.37-2.26,22.5-5.31,33.7-8.21,11.18-2.92,22.52-5.59,33.51-9.14,11.07-3.41,22.25-6.66,33.32-10.19l32.93-11.59c43.61-16.3,86.43-35.66,127.75-58.56-36.45,30.01-75.58,57.24-116.63,81.86l-31.17,17.87c-10.54,5.64-21.26,11.04-31.94,16.6-10.6,5.73-21.56,10.55-32.46,15.67-10.93,5.07-21.83,10.3-32.99,14.76-11.12,4.63-22.25,9.36-33.45,13.9l-33.92,12.72-8.51,3.19c-2.86,1.02-5.73,1.93-8.59,2.92l-17.18,5.75-17.24,5.78c-5.75,1.98-11.56,3.55-17.37,5.34l-34.86,10.35-35.16,9.33c-11.73,3.28-23.54,5.81-35.35,8.65-11.84,2.73-23.65,5.67-35.57,7.96l-35.71,7.32-35.9,6.42c-5.98,1.05-11.98,2.2-17.98,3.11l-18.01,2.75c-12.03,1.76-24.09,3.8-36.15,5.31-48.24,6.58-96.7,11.29-145.35,15.01-48.62,3.28-97.39,5.45-146.23,6.2-48.79.52-97.72.19-146.62-1.73Z"/>
      <path class="cls-6" d="M-974.75,1056.55h16.66s33.4-.03,33.4-.03c5.56.03,11.1-.11,16.66-.25l16.63-.44c11.07-.3,22.22-.44,33.32-.88l33.21-1.68c11.07-.55,22.16-1.05,33.34-1.95,11.12-.88,22.3-1.51,33.48-2.56l33.56-3c44.77-4.46,89.59-10.05,134.42-16.68,44.82-6.64,89.51-14.7,134.14-23.54,178.28-36.1,354.66-89.32,520.3-168.17,10.49-4.74,20.6-10.05,30.87-15.17,10.21-5.2,20.62-10.16,30.59-15.75l30.31-16.38,29.82-17.29c4.93-2.92,10.02-5.7,14.84-8.78l14.62-9.14,14.62-9.2c2.45-1.54,4.9-3.03,7.32-4.6l7.13-4.85,28.66-19.38c9.36-6.72,18.61-13.6,27.95-20.4,9.47-6.69,18.39-14.01,27.45-21.2,9.03-7.21,18.31-14.26,26.9-22,8.73-7.6,17.62-15.12,26.29-22.85l25.36-23.98c33.23-32.63,64.46-67.71,92.9-105.45-21.09,42.24-45.76,83.04-73.27,122.22l-21.2,28.99c-7.32,9.47-14.92,18.75-22.41,28.17-7.38,9.53-15.42,18.42-23.29,27.51-7.93,9.09-15.75,18.31-24.12,26.93-8.29,8.73-16.52,17.59-24.92,26.29l-25.8,25.41-6.5,6.39c-2.18,2.06-4.43,4.07-6.64,6.14l-13.38,12.25-13.38,12.31c-4.43,4.13-9.11,7.93-13.68,11.92l-27.64,23.65-28.3,22.82c-9.39,7.76-19.16,14.87-28.8,22.27-9.69,7.3-19.3,14.81-29.24,21.75l-29.68,21.2-30.15,20.46c-5.07,3.39-10.08,6.88-15.17,10.16l-15.36,9.86c-10.27,6.47-20.43,13.24-30.84,19.52-41.38,25.66-83.76,49.67-126.68,72.85-43.09,22.74-86.76,44.6-131.06,65.12-44.38,20.35-89.21,39.95-134.67,58.07-45.46,18.09-91.36,35.44-137.83,51.32-46.5,15.91-93.45,30.81-140.97,44.58l-35.77,9.99c-11.92,3.36-23.98,6.33-35.99,9.53-11.98,3.25-24.17,6.08-36.34,8.98l-36.56,8.67c-12.22,2.78-24.45,5.23-36.67,7.85l-18.36,3.88c-6.14,1.29-12.28,2.59-18.39,3.69l-36.81,6.86-18.45,3.41-18.42,3c-49.73,8.32-99.53,15.34-149.31,21.34v-335c41.6,2.48,83.12,4.16,124.59,4.9l16.74.36Z"/>
      <path class="cls-7" d="M-300.18,1750.06c7.64-6.09,15.3-12.15,22.8-18.39l28.64-23.68c37.8-31.88,74.64-64.59,110.63-98.05,35.99-33.43,70.87-67.92,105.07-102.95,34.14-35.05,67.13-71.2,99.4-107.82,32.1-36.79,63.13-74.48,93.23-112.8,29.76-38.66,58.73-77.81,86.1-118.06,6.97-9.97,13.49-20.29,20.24-30.4l10.02-15.23c3.33-5.09,6.47-10.32,9.72-15.47l19.25-30.95,18.48-31.44c6.25-10.38,11.98-21.15,17.84-31.77,5.81-10.66,11.84-21.15,17.26-32.05l16.6-32.38,15.61-32.85c2.53-5.48,5.29-10.85,7.65-16.46l7.24-16.66,7.21-16.66c1.18-2.75,2.42-5.51,3.58-8.31l3.33-8.45,13.24-33.73c4.13-11.34,8.04-22.8,12.03-34.14,4.16-11.29,7.54-22.91,11.1-34.39,3.5-11.54,7.24-22.91,10.1-34.64,3-11.65,6.17-23.21,9.03-34.83l7.57-35.13c9.2-46.97,15.12-94.28,17.21-141.44-10.63,46.06-24.89,90.81-41.96,134.12l-13.41,32.21c-4.82,10.6-9.86,21.09-14.73,31.58-4.74,10.57-10.32,20.76-15.64,31.06-5.37,10.24-10.52,20.54-16.44,30.51-5.78,10.02-11.43,20.07-17.26,30.01l-18.28,29.38-4.54,7.32c-1.57,2.4-3.22,4.79-4.82,7.19l-9.64,14.35-9.61,14.29c-3.17,4.79-6.69,9.39-9.99,14.07l-20.21,27.92-21.04,27.29c-6.83,9.17-14.35,17.92-21.53,26.85-7.3,8.87-14.37,17.81-22.03,26.4-119.25,139.4-258.73,259.78-406.92,365.26-37.17,26.24-74.7,51.79-112.97,76.07-38.24,24.28-76.93,47.63-116.03,69.91l-29.43,16.38c-9.77,5.51-19.71,10.63-29.54,15.97-9.83,5.37-19.77,10.35-29.68,15.34l-29.65,15.06c-9.94,4.9-20.04,9.55-30.07,14.37l-15.03,7.13c-4.98,2.39-9.97,4.79-15.12,6.99l-30.48,13.63-15.2,6.77-15.45,6.47c-82.08,34.83-166.25,65.78-252.12,94.19-43.27,14.23-86.95,27.84-131,41.05H-300.18Z"/>
      <path class="cls-4" d="M378.02,1750.06c15.54-37.49,30.18-75.29,44.22-113.21,16.93-45.93,32.35-92.35,46.94-138.93,14.37-46.67,27.37-93.72,39.29-140.97,11.48-47.41,22-94.96,30.64-142.9,2.29-11.92,4.05-24.01,6.11-35.99l2.95-17.98c.99-6,1.73-12.06,2.62-18.09l4.98-36.1,4.07-36.26c1.49-12.01,2.34-24.17,3.39-36.26.96-12.12,2.23-24.15,2.73-36.32l2.01-36.32.91-36.37c.08-6.06.39-12.06.27-18.14l-.16-18.17-.17-18.14c-.06-3.03-.03-6.03-.11-9.06l-.41-9.06-1.62-36.21c-.85-12.06-1.93-24.09-2.86-36.1-.8-12-2.42-23.98-3.85-35.93-1.51-11.95-2.73-23.87-4.87-35.74-1.98-11.87-3.8-23.71-5.92-35.52l-7.38-35.16c-10.71-46.64-24.53-92.27-41.8-136.21,9.03,46.39,14.21,93.06,16.22,139.59l.85,34.89c-.08,11.65-.41,23.27-.61,34.83-.03,11.56-.99,23.18-1.65,34.72-.74,11.56-1.27,23.07-2.62,34.58-1.21,11.51-2.28,22.99-3.55,34.42l-4.76,34.28-1.18,8.53c-.44,2.84-.99,5.7-1.46,8.54l-2.97,17.02-2.97,16.99c-.94,5.64-2.29,11.26-3.41,16.91l-7.1,33.7-8.09,33.51c-2.53,11.15-5.81,22.22-8.78,33.29-3.06,11.04-5.89,22.11-9.36,33.07-52.23,175.86-130.73,342.54-223.16,499.18-23.32,39.1-47.22,77.7-72.28,115.45-19.25,28.98-38.96,57.54-59.12,85.65h274.05Z"/>
      <path class="cls-3" d="M586.57,653.38c4.65,10.65,9.09,21.42,13.6,32.08,4.68,10.57,8.54,21.56,12.61,32.38,4.05,10.85,8.23,21.59,11.67,32.65,3.58,11.01,7.27,21.92,10.77,32.9l9.58,33.23,2.4,8.29c.74,2.78,1.43,5.59,2.12,8.4l4.21,16.74,4.21,16.71c1.43,5.56,2.48,11.26,3.74,16.85l7.24,33.67,6.22,33.89c2.2,11.23,3.72,22.66,5.51,33.98,1.71,11.34,3.63,22.6,4.9,34.03,23.82,181.91,19.91,366.11-.83,546.81-5.4,45.18-11.54,90.17-19.08,134.86-2.78,16.44-5.69,32.84-8.74,49.2h240.8c-.06-10.96-.17-21.9-.34-32.84-.74-49.12-3.06-98.13-6.2-146.95-3.19-48.84-7.98-97.52-13.63-146.01-5.84-48.49-13.11-96.78-21.42-144.77-8.81-47.99-18.53-95.71-30.15-143.01-2.75-11.84-6.06-23.6-9.06-35.38l-4.6-17.62c-1.54-5.87-3.33-11.73-4.98-17.57l-10.13-35.02-11.01-34.77c-3.52-11.59-7.71-23.05-11.65-34.53-4.05-11.45-7.79-22.94-12.28-34.25l-12.94-34-13.96-33.59c-2.4-5.56-4.54-11.18-7.13-16.69l-7.54-16.55-7.52-16.49c-1.29-2.75-2.51-5.51-3.8-8.23l-4.07-8.12-16.19-32.41c-5.67-10.68-11.56-21.23-17.32-31.8-5.59-10.66-11.98-20.95-18.14-31.28-6.22-10.3-12.17-20.7-18.97-30.67-6.64-10.02-13.13-20.1-19.85-30.01l-21.04-29.13c-28.74-38.24-59.94-74.31-93.59-107.44,27.12,38.71,50.83,79.24,71.59,120.93l14.98,31.53Z"/>
      <path class="cls-2" d="M641.08,605c8.59,7.82,17.02,15.86,25.5,23.76,8.56,7.74,16.55,16.22,24.7,24.45,8.09,8.26,16.27,16.36,23.93,25.08,7.76,8.59,15.56,17.07,23.21,25.66l22.28,26.49,5.56,6.58c1.82,2.23,3.58,4.54,5.37,6.8l10.66,13.6,10.63,13.57c3.58,4.46,6.86,9.25,10.27,13.85l20.32,27.84,19.47,28.41c6.58,9.36,12.61,19.19,18.86,28.8,6.17,9.66,12.5,19.19,18.31,29.1,95.73,156.47,167.1,326.35,221.64,499.87,13.46,43.45,26.16,87.06,37.42,130.95,11.29,43.89,21.56,87.89,30.65,131.94l6.5,33.07c2.2,10.99,4.02,22.05,6.03,33.04,1.41,7.41,2.61,14.8,3.77,22.19h290.44c-2.58-8.02-5.15-16.03-7.86-24.03l-12.45-35.46c-4.16-11.81-8.26-23.62-12.75-35.19-4.4-11.62-8.65-23.29-13.24-34.8l-13.66-34.53c-18.64-45.81-38.38-90.97-59.06-135.52-20.68-44.58-42.7-88.41-65.45-131.75-22.77-43.31-46.97-85.85-71.83-127.84-25.06-41.93-51.32-83.07-78.47-123.54-27.56-40.25-55.84-79.87-85.68-118.37-7.32-9.69-15.12-19.11-22.66-28.63l-11.37-14.24c-3.8-4.74-7.82-9.36-11.7-14.01l-23.51-27.86-24.17-27.29c-7.96-9.17-16.44-17.92-24.7-26.82-8.37-8.81-16.47-17.79-25.17-26.32l-25.66-25.77-26.4-25c-4.43-4.13-8.7-8.4-13.3-12.36l-13.6-12.06-13.6-12c-2.28-1.98-4.52-3.99-6.83-5.95l-6.99-5.78-28-23.02c-9.53-7.43-19.19-14.7-28.74-22.03-9.44-7.43-19.44-14.26-29.3-21.17-9.86-6.88-19.55-13.96-29.79-20.29-10.16-6.47-20.18-13.05-30.34-19.36l-31.09-18.06c-41.82-23.24-85-43.5-129.19-60.08,40.5,24.34,78.66,51.74,114.59,81.36l26.49,22.72Z"/>
      <path class="cls-6" d="M671.23,538.62c11.04,3.66,21.97,7.57,32.93,11.34,10.99,3.58,21.72,8.09,32.52,12.28,10.74,4.27,21.53,8.34,32.05,13.19,10.6,4.68,21.17,9.25,31.66,14.01l31.11,15.12,7.76,3.77c2.56,1.29,5.09,2.67,7.65,4.02l15.25,8.09,15.25,8.07c5.07,2.62,10.02,5.67,15.03,8.48l29.85,17.15,29.35,18.06c9.83,5.87,19.33,12.39,28.97,18.61,9.55,6.33,19.22,12.44,28.55,19.13,151.1,104.02,285.38,230.18,405.79,366.53,29.98,34.22,59.31,68.89,87.45,104.41,28.17,35.49,55.45,71.53,81.69,108.07l19.36,27.56c6.5,9.14,12.64,18.5,18.97,27.73,6.36,9.22,12.36,18.59,18.37,27.89l18.06,27.92c5.89,9.39,11.62,18.97,17.43,28.41l8.67,14.18c2.89,4.74,5.81,9.44,8.54,14.32l16.71,28.88,8.37,14.43,8.04,14.68c42.21,76.14,80.91,154.7,117.36,235.1h272.1v-236.12c-42.81-59.31-87.47-117.79-134.42-174.75l-11.81-14.46-12.2-14.26-24.34-28.47c-3.99-4.76-8.2-9.42-12.39-14.07l-12.53-13.99c-8.4-9.28-16.63-18.64-25.14-27.84l-25.8-27.31c-8.59-9.11-17.15-18.23-25.94-26.98-8.78-8.81-17.37-17.76-26.27-26.4l-26.51-25.99c-35.68-34.28-72.08-67.48-109.09-99.78-37.01-32.3-74.97-63.38-113.36-93.72-38.44-30.31-77.84-59.33-117.62-87.58-39.95-28.11-80.7-55.01-121.95-80.95-41.55-25.55-83.51-50.25-126.41-73.27-10.66-5.89-21.61-11.32-32.35-16.96l-16.19-8.37c-5.4-2.78-10.93-5.37-16.38-8.04l-32.82-15.91-33.21-15.09c-10.96-5.12-22.27-9.69-33.45-14.43-11.23-4.65-22.27-9.58-33.67-13.82l-33.92-13.11-34.31-12.11c-5.75-1.95-11.37-4.1-17.18-5.89l-17.35-5.45-17.29-5.42c-2.89-.91-5.75-1.85-8.65-2.7l-8.76-2.42-34.94-9.64c-11.73-2.92-23.51-5.62-35.22-8.43-11.67-2.95-23.57-5.12-35.38-7.43-11.81-2.29-23.54-4.82-35.49-6.42-11.89-1.79-23.71-3.72-35.57-5.34l-35.74-3.85c-47.66-4.24-95.35-5.18-142.46-2.34,46.92,5.75,92.9,15.25,137.78,27.73l33.45,9.97Z"/>
      <path class="cls-7" d="M2116.08,993.45c-27.37-22.22-55.04-43.92-83.07-65.06l-13.33-10.13-13.49-9.77-27.01-19.6c-4.49-3.33-9.06-6.47-13.63-9.58l-13.71-9.44c-9.14-6.28-18.25-12.69-27.48-18.86l-27.84-18.17c-9.28-6.06-18.56-12.2-28.14-18.01-9.53-5.84-18.94-11.89-28.58-17.62l-28.91-17.29c-38.85-22.72-78.42-44.52-118.59-65.53-40.14-20.98-81.03-40.72-122.36-59.8-165.42-75.58-339.41-136.21-519.78-169.77-11.26-2.31-22.55-3.97-33.87-5.86-11.32-1.79-22.66-3.88-34.03-5.23l-34.14-4.57-34.28-3.52c-5.7-.52-11.45-1.29-17.18-1.62l-17.18-1.18-17.24-1.18c-2.89-.17-5.75-.41-8.65-.55l-8.62-.3-34.58-1.13c-11.51-.08-23.05.06-34.61.06-11.59-.14-23.1.52-34.66,1.02-11.54.52-23.18.8-34.69,1.98-11.51,1.02-23.13,1.9-34.69,3.03l-34.61,4.49c-46.06,6.88-91.93,16.91-137.14,30.73,41.88-21.75,85.82-40.28,131.09-55.81l34.22-11.01c11.48-3.33,23.07-6.39,34.66-9.58,11.59-3.39,23.32-5.84,35.05-8.59,11.73-2.67,23.49-5.53,35.33-7.57,11.84-2.23,23.71-4.54,35.6-6.66l35.82-5.37,9-1.35c3-.41,6-.72,8.98-1.07l18.03-2.06,18.06-2.06c6.03-.74,12.03-1.07,18.09-1.62l36.26-2.89,36.32-1.82c12.14-.77,24.23-.77,36.4-1.07,12.11-.22,24.31-.63,36.43-.41l36.45.28,36.45,1.18c6.06.22,12.17.33,18.23.69l18.2,1.07c12.14.77,24.34,1.27,36.45,2.31,48.54,3.58,96.95,9.06,145.29,15.53,48.24,6.91,96.39,14.92,144.33,24.34,47.83,9.64,95.62,20.13,143.06,32.19,47.41,12.09,94.74,25.03,141.69,39.51,46.94,14.43,93.7,29.98,140.23,46.78l34.8,12.94c11.62,4.3,23.13,8.98,34.72,13.46,11.59,4.41,23.13,9.25,34.69,14.07l34.69,14.48c11.48,4.96,22.83,10.13,34.25,15.23l17.15,7.65c2.01.91,4.02,1.79,6.03,2.7v367.08Z"/>
      <path class="cls-4" d="M500,500.93c29.41-36.92,62.03-71.72,97.06-104.3l26.76-23.98c9.17-7.71,18.5-15.23,27.81-22.88,9.2-7.79,18.92-14.81,28.5-22.08,9.64-7.21,19.22-14.62,29.21-21.28,9.91-6.86,19.8-13.79,29.82-20.57l30.53-19.49,7.65-4.87c2.59-1.6,5.2-3.08,7.79-4.65l15.61-9.2,15.67-9.25c5.2-3.14,10.57-5.86,15.86-8.81l31.94-17.4,32.46-16.44c10.79-5.64,21.83-10.57,32.79-15.78,11.01-5.15,21.97-10.49,33.12-15.2l33.43-14.59,33.76-13.74c5.67-2.26,11.29-4.63,16.96-6.8l17.07-6.42c11.37-4.21,22.74-8.73,34.22-12.69,45.82-16.49,92.26-31.17,139.07-44.93,46.86-13.3,94.11-25.58,141.71-36.45,47.63-10.66,95.57-20.51,143.81-28.8,48.24-8.23,96.73-15.64,145.49-21.53,48.79-5.89,97.83-10.71,147.14-14.29l37.09-2.31c12.36-.83,24.78-1.24,37.17-1.85,12.39-.69,24.92-.94,37.42-1.24l37.58-.88c12.5-.17,24.97-.03,37.5-.06l18.78.03c6.25,0,12.53.03,18.75.22l37.42.96,18.75.47,18.67.88c.58.03,1.13.06,1.71.08v317.07c-13.9-3.44-27.81-6.77-41.74-10l-16.3-3.83-16.3-3.44-32.66-6.91c-5.45-1.21-10.9-2.23-16.35-3.22l-16.35-3.06c-10.9-2.01-21.83-4.16-32.76-6.06l-32.82-5.26c-10.96-1.76-21.92-3.58-33.04-5.01-11.07-1.46-22.14-3.17-33.29-4.46l-33.45-4.05c-44.69-4.96-89.73-8.78-134.94-11.62-45.24-2.86-90.61-4.24-136.13-4.87-181.86-1.76-365.48,13.63-543.87,56.31-11.23,2.48-22.25,5.56-33.34,8.42-11.07,2.97-22.27,5.67-33.21,9.06l-33.07,9.72-32.74,10.71c-5.45,1.84-10.99,3.5-16.36,5.51l-16.19,5.92-16.25,5.92c-2.7,1.02-5.42,1.95-8.09,3l-7.98,3.25-32.08,13.02c-10.54,4.6-21.01,9.42-31.58,14.12-10.66,4.6-20.9,9.88-31.25,15.03-10.33,5.18-20.87,10.16-30.89,15.91-10.11,5.62-20.38,11.15-30.48,16.91l-29.76,18.17c-39.29,25-77.12,52.84-112.8,83.84Z"/>
      <path class="cls-3" d="M1747.09-646.06l-9.4,3.66-17.32,7.16-34.61,14.37c-5.75,2.34-11.48,4.87-17.21,7.43l-17.15,7.6c-11.45,5.12-22.88,10.05-34.25,15.31l-33.98,16.08c-11.32,5.37-22.63,10.68-33.67,16.36-11.07,5.62-22.25,11.01-33.21,16.8l-32.93,17.21c-43.61,23.32-86.45,47.69-128.61,72.91-42.15,25.22-83.45,51.71-124.15,78.86-40.7,27.18-80.48,55.67-119.66,84.78-39.07,29.32-77.23,59.75-114.65,90.97-37.17,31.61-73.62,63.9-108.78,97.58-8.87,8.32-17.4,17.04-26.1,25.55l-12.97,12.8c-4.3,4.27-8.48,8.73-12.72,13.08l-25.25,26.29-24.62,26.93c-8.26,8.84-16.11,18.2-24.06,27.34-7.9,9.25-16,18.23-23.54,27.78l-22.96,28.19-22.11,28.88c-3.63,4.87-7.43,9.55-10.9,14.51l-10.55,14.81-10.52,14.79c-1.76,2.45-3.52,4.9-5.23,7.38l-5.01,7.6-19.96,30.23c-6.42,10.24-12.61,20.62-18.89,30.89-6.42,10.19-12.14,20.84-18.01,31.33-5.84,10.55-11.87,20.9-17.07,31.77-5.4,10.77-10.88,21.42-16.08,32.19l-14.7,32.79c-18.75,44.03-34.39,89.07-46.26,134.78,19.99-42.84,43.23-83.65,68.94-122.47l19.82-28.72c6.88-9.39,13.99-18.58,20.95-27.84,6.8-9.33,14.4-18.17,21.75-27.12,7.38-8.89,14.57-17.9,22.44-26.43,7.71-8.59,15.34-17.26,23.1-25.74l23.98-24.94,6-6.2c2.01-2.06,4.13-4.02,6.19-6.06l24.78-24.01c4.07-4.02,8.48-7.77,12.69-11.67l25.58-23.1,26.24-22.33c8.59-7.54,17.76-14.56,26.65-21.78,8.98-7.13,17.76-14.43,27.04-21.26,145.6-111.56,307.08-200.28,473.93-272.66,41.82-17.92,83.87-35.11,126.35-50.91,42.46-15.8,85.16-30.62,128-44.27l32.21-9.91c10.71-3.36,21.5-6.3,32.21-9.47,10.74-3.22,21.48-6,32.21-8.84l32.13-8.54c10.74-2.73,21.61-5.2,32.41-7.82l16.16-3.85c5.4-1.29,10.79-2.62,16.24-3.72l32.65-6.97,16.3-3.47,16.44-3.14c87.53-17.02,176.3-29.76,266.22-39.7,2.15-.22,4.27-.47,6.42-.69v-253.36h-368.99Z"/>
      <path class="cls-2" d="M845.78-646.06c-11.35,17.27-22.53,34.63-33.55,52.06-26.1,41.38-50.85,83.59-74.81,126.13-23.76,42.65-46.26,85.99-67.73,129.74-21.09,43.97-41.27,88.3-59.69,133.37-4.71,11.21-8.98,22.66-13.46,33.95l-6.64,16.99c-2.2,5.64-4.19,11.43-6.28,17.13l-12.39,34.28-11.54,34.61c-3.96,11.45-7.32,23.18-10.88,34.78-3.44,11.65-7.19,23.16-10.21,34.94l-9.47,35.13-8.48,35.38c-1.32,5.89-2.89,11.73-4.05,17.68l-3.61,17.81-3.61,17.79c-.58,2.97-1.21,5.89-1.76,8.89l-1.49,8.95-5.95,35.74c-1.68,11.98-3.14,23.98-4.71,35.9-1.71,11.92-2.62,23.98-3.69,35.96-1.02,12-2.31,23.93-2.67,35.96-.52,12.03-1.21,24.01-1.6,35.96l-.08,35.93c.77,47.85,4.79,95.38,12.56,141.94.83-47.25,5.45-94,13.16-139.93l6.41-34.31c2.51-11.34,5.26-22.66,7.85-33.95,2.42-11.29,5.78-22.44,8.84-33.59,3.11-11.15,6.03-22.3,9.75-33.29,3.55-11.01,6.99-22,10.63-32.93l11.78-32.54,2.92-8.1c1.05-2.7,2.15-5.37,3.22-8.04l6.44-16.02,6.44-16c2.07-5.34,4.57-10.55,6.86-15.83l13.93-31.5,14.9-31.09c4.79-10.38,10.3-20.51,15.5-30.73,5.29-10.19,10.35-20.4,16.05-30.4,87.64-161.15,199.07-307.91,322.06-441.88,30.92-33.4,62.34-66.19,94.72-97.88,27.51-26.97,55.5-53.3,83.91-78.99h-309.59Z"/>
    </g>
  </g>
</svg>