<?xml version="1.0" encoding="UTF-8"?>
<svg id="Layer_1" xmlns="http://www.w3.org/2000/svg" xmlns:xlink="http://www.w3.org/1999/xlink" version="1.1" viewBox="0 0 1924 24">
  <!-- Generator: Adobe Illustrator 29.6.1, SVG Export Plug-In . SVG Version: 2.1.1 Build 9)  -->
  <defs>
    <style>
      .st0 {
        fill: none;
      }

      .st1 {
        fill: #178141;
      }

      .st2 {
        clip-path: url(#clippath);
      }
    </style>
    <clipPath id="clippath">
      <rect class="st0" width="1924" height="24"/>
    </clipPath>
  </defs>
  <g class="st2">
    <path class="st1" d="M-866.7,19.2c8.3,2.6,13.3,4.8,28.7,4.8,23.2,0,23.2-9,46.5-9s23.2,9,46.5,9,23.2-9,46.5-9,23.2,9,46.5,9,23.2-9,46.5-9,23.2,9,46.5,9,23.2-9,46.5-9,23.2,9,46.5,9,23.2-9,46.5-9,23.2,9,46.5,9,23.2-9,46.5-9,23.2,9,46.5,9,23.2-9,46.5-9,23.2,9,46.5,9,23.2-9,46.5-9,23.2,9,46.5,9,23.2-9,46.5-9S-24.6,24-1.4,24s23.2-9,46.5-9,23.2,9,46.5,9,23.2-9,46.5-9,23.2,9,46.5,9,23.2-9,46.5-9,23.2,9,46.5,9,23.2-9,46.5-9,23.2,9,46.5,9,23.2-9,46.5-9,23.2,9,46.5,9,23.2-9,46.5-9,23.2,9,46.5,9,23.2-9,46.5-9,23.2,9,46.5,9,23.2-9,46.5-9,23.2,9,46.5,9,23.2-9,46.5-9,23.2,9,46.5,9,23.2-9,46.5-9,23.2,9,46.5,9,23.2-9,46.5-9,23.2,9,46.5,9,23.2-9,46.5-9,23.2,9,46.5,9,23.2-9,46.5-9,23.2,9,46.5,9,23.2-9,46.4-9,23.2,9,46.5,9,23.2-9,46.5-9,23.2,9,46.4,9,23.2-9,46.4-9,23.2,9,46.4,9,23.2-9,46.5-9,23.2,9,46.5,9,23.2-9,46.5-9,23.2,9,46.5,9,23.2-9,46.5-9,23.2,9,46.5,9,23.2-9,46.5-9,23.2,9,46.5,9,23.2-9,46.5-9,15.2,2.1,20.3,4.4v-97.1H-866.7V19.2h0Z"/>
  </g>
</svg>