<?xml version="1.0" encoding="UTF-8"?>
<svg id="Layer_1" data-name="Layer 1" xmlns="http://www.w3.org/2000/svg" viewBox="0 0 1929.48 187">
  <defs>
    <style>
      .cls-1 {
        fill: #76cee1;
      }
    </style>
  </defs>
  <path class="cls-1" d="M1929.48,149.57c-1.02,1.96-1.88,4.06-2.8,6.03-2.32,4.95-6.68,10.16-12.09,9.33-5.75-.88-8.21-7.89-8.3-13.71-.08-5.82.87-12.21-2.48-16.98-5.34-7.62-17.41-5.42-25.14-.23-7.73,5.19-14.6,12.71-23.82,13.91-30.07,3.92-13.9-29.21-30.05-41.72-3.23-2.5-7.4-3.98-9.71-7.35-2.38-3.46-2.16-8.19-.61-12.09,1.55-3.91,4.25-7.23,6.72-10.62,4.52-6.2,8.56-13.37,8.23-21.04-.33-7.67-6.66-15.48-14.31-14.82-8.7.76-13.08,10.67-15.32,19.11-3.05,11.45-19.33,33.85-24.48,10.26-.99-4.53-2.49-9.93-6.94-11.26-3.36-1-6.99.98-9.16,3.72-2.17,2.75-3.28,6.15-4.75,9.33-5.98,13-18.68,22.69-32.8,25.03-27.76,4.6-45.15-19.24-74.18-4.8-13.6,6.77-18,20.88-29.96,29-5.11,3.46-12.24,4.57-17.44,1.24-11.26-7.21.37-21.43,3.06-30.08,2.9-9.32,3.65-19.6.43-28.96-7.32-21.28-31.55-28.84-52.21-25.04-25.17,4.62-43.59,23.39-56.79,44.21-10.7,16.87-23.55,48.61-48.85,42.69-14.42-3.38-25.82-14.37-41.24-6.25-12.69,6.69-12.46,21.79-22.15,31.33-3.17,3.12-7.83,5.1-12.12,3.91-4.67-1.3-7.71-6.07-8.46-10.86-.74-4.79.35-9.66,1.45-14.38,1.71-7.42,3.42-14.83,5.14-22.25,1.81-7.83,3.61-16.11,1.26-23.8-2.35-7.68-10.47-14.23-18.16-11.87-8.25,2.53-10.94,13.25-9.21,21.71,1.4,6.89,16.52,28.08-1.83,26.98-6.07-.36-10.88-5.6-13.04-11.28-2.16-5.68-2.33-11.89-3.26-17.9-5.22-33.92-38.26-61.2-72.55-59.92-11.49.43-24.19,4.87-32.2,13.42-11.37,12.15-4.47,13.28-.33,24.99,1.13,3.21.14,7.45-3.01,8.76-2.64,1.1-5.82-.29-7.58-2.56-1.76-2.26-2.4-5.18-2.83-8.01-1.04-6.92-1.11-14-2.89-20.76-1.79-6.76-5.71-13.43-12.09-16.28-6.39-2.85-15.32-.27-17.47,6.39-2.04,6.29,3.98,25.57-8.7,24.23-4.88-.51-8.51-4.96-10.09-9.61-1.58-4.65-1.65-9.66-2.67-14.47-2.27-10.65-9.43-20.15-19.04-25.25-14.31-7.6-44.79-6.99-52.34,10.25-4.09,9.33-.78,20.04-.33,30.22.45,10.18-4.83,22.78-15.03,22.77-7.08-.01-12.35-6.17-17.24-11.3-4.88-5.13-12.19-10-18.56-6.9-5.06,2.46-6.75,8.73-7.61,14.28-5.89,38.26-31.82.87-44.72-9.43-9.56-7.63-22.9-12.57-34.02-7.46-8.82,4.05-15.65,15.07-16.17,24.75-.5,9.3,7.26,18.19.08,26.95-4.37,5.34-12.6,7.08-18.76,3.95-3.77-1.92-7.1-5.48-11.32-5.22-4.88.3-7.91,5.89-7.66,10.78.26,4.89,2.73,9.33,4.38,13.94,7.12,19.93-3.29,44.46-22.57,53.19-54.27,24.55-67.66-62.42-114.71-53.21-6.93,1.36-13.91,4.46-20.77,6.49-6.8,2.01-13.48,2.97-19.88.16-13.5-5.93-15.33-24.59-11.68-38.89,3.65-14.29,10.71-28.69,7.53-43.1-3.06-13.85-16.5-24.68-30.68-24.73-12.53-.04-23.69,8.04-29.01,19.1-6.52,13.57-.34,29.7-2.88,44.54-1.29,7.52-3.62,15.05-8.24,21.11-4.62,6.07-11.82,10.52-19.45,10.4-9.92-.15-18.23-7.68-23.73-15.94-5.49-8.26-9.25-17.69-15.68-25.23-21.36-25.08-37.96,1.33-31.7,24.77,3.7,13.83,31.22,45.92,3.24,54.01-6.36,1.84-13.34-.81-18.33-5.16-8.25-7.2-8.99-18.48-21.97-16.48-14.3,2.21-25.36,5.58-29.85-13.2-1.66-6.94-1.23-14.18-1.35-21.31-.13-7.13-.91-14.55-4.65-20.62-7.66-12.43-25.74-14.91-39.1-9.01-9.48,4.18-28.85,35.98-35.1,34.16-3.75-1.09-6.01-5.15-6.24-9.05-.24-3.9,1.12-7.7,2.45-11.37,2.84-7.79,5.67-15.59,8.5-23.38,1.88-5.17,3.79-10.44,4.06-15.93.27-5.5-1.34-11.36-5.48-14.98-6.75-5.92-18.1-3.55-24.06,3.17-5.95,6.72-7.48,16.33-7,25.31.47,8.96,2.66,17.78,3.06,26.75.4,8.97-1.3,18.59-7.42,25.15-5.8,6.21-16.31,7.14-23.32,2.29-2.56-1.77-5.51-3.81-8.5-2.96-2.46.69-3.95,3.11-5.43,5.2-4.98,7.02-17.68,3.17-22.2-2.96-9.4-12.75,8.87-41.26-17.34-42.37-36.15-1.53-12.2,41.85-35.19,46.88-7.07,1.54-14.52-2.18-19.09-7.78-4.58-5.61-6.73-12.79-8.1-19.9-1.37-7.1-2.06-14.37-4.22-21.27-3.55-11.4-11.15-21.49-21.13-28.06-11.51-7.59-25.33-9.41-35.58,1.06-12.79,13.07-4.79,27.31-10.09,42.35-2.29,6.52-8.12,12.31-15.03,12.3-7.43-.02-13.42-6.67-15.54-13.79-2.12-7.11-1.36-14.71-1.29-22.14.06-7.43-.77-15.35-5.4-21.15-4.64-5.8-14.22-8.13-19.56-2.98-3.96,3.82-4.25,10.21-2.49,15.42,1.76,5.2,5.18,9.66,7.94,14.41,2.76,4.75,4.93,10.27,3.83,15.65-1.4,6.82-8.62,11.89-15.51,10.89-8.69-1.25-9.1-7.7-11.79-14-2.98-6.97-4.59-11.28-11.06-16.87-12.24-10.56-28.08-16.61-43.84-10.29-15.25,7.41-16.66,21.24-10.4,35.56,6.42,14.7,27.6,23.21,24.06,41-1.92,9.66-11.11,17.36-20.96,17.56-6.8.14-13.35-2.93-18.63-7.2-1.81-1.46-3.37-2.9-4.82-4.29v49.19h1929.48v-37.43Z"/>
  <path class="cls-1" d="M1440.22,94.88c7.89-6.45,15.54-13.68,23.88-19.54,3.3-2.32,6.25-4.61,8.13-7.58,1.52-2.42,2.35-5.29,2.07-9-.68-9.19-8.49-16.73-17.6-14.97-8.86,1.71-17,8.13-22.8,14.78-10.04,11.51-16.34,26.82-17.05,42.1-.78,16.9,19.17-2.36,23.37-5.79Z"/>
  <path class="cls-1" d="M887.26,86.74c4.1.68,8.35.34,12.27-.87,7.8-2.42,14.3-8.35,15.77-16.91,1.54-9-3.47-15.78-10.27-20.8-6.45-4.77-13.96-6.81-21.88-4.57-7.71,2.18-13.38,7.95-15.53,15.63-2.05,7.33.39,14.93,5.66,20.27,3.74,3.79,8.71,6.4,13.97,7.26Z"/>
  <path class="cls-1" d="M825.81,154.84c1.32,1.07,2.62,2.09,3.93,3.04,5.84,4.25,11.8,7.15,19.78,6.76,19.16-.94,31.74-19.81,25.31-37.95-6.58-24.22-34.65-39.94-56.02-22.47-8.88,5.89-11.54,17.3-9.95,27.35,2.39,10.31,9.13,16.93,16.95,23.27Z"/>
  <path class="cls-1" d="M1705.16,83.43c14.01,6.81,29.96-7.07,22.14-21.52-4.28-7.34-14.33-8.74-21.76-5.83-6.99,3.01-9.36,11.15-7.59,17.99,1.03,3.97,3.47,7.52,7.21,9.36Z"/>
  <path class="cls-1" d="M1834.93,108.38c3.52,6.94,12.02,10.18,19.78,9.76,14.14-.76,30.9-10.17,41.99-18.48,15.5-10.84,26.95-29.54,20.23-48.74-8.12-17.76-27.45-17.2-42.64-9.19-18.97,10-32.45,26.34-39.1,47.06-1.56,4.85-2.65,10.2-1.75,15.11.28,1.55.76,3.06,1.49,4.49ZM1897.7,54.09c6.54,8.67-1.11,11.45-8.91,8.26-14.28-5.83,2.96-16.16,8.91-8.26Z"/>
  <path class="cls-1" d="M1014.91,56.94c7.98-1.02,16.11-10.42,9.54-19.41-3.09-4.22-9.34-5.68-14.06-3.42-4.72,2.25-7.51,7.87-6.64,13.03,1.33,7.86,6.22,10.43,11.16,9.8Z"/>
  <path class="cls-1" d="M731.7,127.09c3.64.66,6.86.56,9.75-.52,2.45-.92,4.66-2.54,6.7-5.02,4.05-4.93,5.98-11.74,4.51-18.01-4.72-20.09-37.41-22.24-41.44-.73-2.35,12.54,9.16,22.24,20.48,24.29Z"/>
  <path class="cls-1" d="M541.91,142.72c.3-.24.58-.5.84-.75,5.22-5.2,2.04-13.49-1.65-18.62-5.87-8.16-18.99-5.24-20.72,4.68-3.86,11.15,12.6,21.86,21.53,14.69Z"/>
  <path class="cls-1" d="M337.74,109.88c10.7,4.08,23.51-8.68,15.89-18.83-3.33-4.43-10.68-8.2-15.88-5-6.08,3.75-8.4,14.62-4.22,20.55,1.01,1.44,2.4,2.59,4.21,3.28Z"/>
  <path class="cls-1" d="M485.84,55.67c13.11.3,26.67-8.52,28.74-21.88,4.63-29.82-37.91-47.78-53.06-19.94-9.24,17.09,4.63,41.77,24.31,41.82Z"/>
  <path class="cls-1" d="M597.69,52c8.23-.84,12.25-10.45,8.27-17.28-4.53-9.44-19.97-11.62-23.12.01-2.52,8.83,5.9,18.13,14.85,17.26Z"/>
  <path class="cls-1" d="M546.21,71.46c8.91.2,18.13-5.79,19.54-14.87,3.15-20.26-25.76-32.47-36.06-13.54-6.28,11.61,3.15,28.39,16.52,28.42Z"/>
</svg>