<?xml version="1.0" encoding="UTF-8"?>
<svg id="Layer_2" xmlns="http://www.w3.org/2000/svg" version="1.1" viewBox="0 0 183.2 117.9">
  <!-- Generator: Adobe Illustrator 30.0.0, SVG Export Plug-In . SVG Version: 2.1.1 Build 123)  -->
  <defs>
    <style>
      .st0 {
        fill: #fff;
        stroke: #f18523;
        stroke-miterlimit: 10;
        stroke-width: 5.9px;
      }

      .st1 {
        fill: #f18523;
      }
    </style>
  </defs>
  <path class="st0" d="M150.1,115H36c-3.1,0-6-1.6-7.7-4.2L4,74c-1.5-2.2-1.5-5.1,0-7.3L28.3,29.8c1.7-2.6,4.6-4.1,7.7-4.1h114.1c4.1,0,7.5,3.3,7.5,7.5v74.4c0,4.1-3.3,7.5-7.5,7.5h0Z"/>
  <path class="st1" d="M37.2,84.6c13-9.9,24.2-19.3,24.2-26.6s-3.4-6.8-7.2-6.8-7,2-11,6l-6.6-6.5c5.2-5.8,11.8-8.6,18.2-8.6,10.1,0,17.9,5.4,17.9,15.5s-7.6,16.5-16.9,24.5c2.6-.3,4.7-.5,7-.5h11.9v9.6h-37.3s0-6.6,0-6.6Z"/>
  <path class="st1" d="M106.3,84.6c13-9.9,24.2-19.3,24.2-26.6s-3.4-6.8-7.2-6.8-7,2-11,6l-6.6-6.5c5.2-5.8,11.8-8.6,18.2-8.6,10.1,0,17.9,5.4,17.9,15.5s-7.6,16.5-16.9,24.5c2.6-.3,4.7-.5,7-.5h11.9v9.6h-37.3s0-6.6,0-6.6Z"/>
  <path class="st1" d="M95.1,38.6h7.4l-14.2,64.3h-7.5l14.3-64.3h0Z"/>
  <circle class="st0" cx="157.5" cy="25.6" r="22.7"/>
  <path class="st1" d="M168.1,13v19.8c0,4-1.8,4.7-8.1,4.7-.2-1.2-1-3.1-1.6-4.1,1.2.1,2.8.1,3.8.1,1.5,0,1.7,0,1.7-.8v-3.3h-10.4c-.8,3.1-2.3,6.1-5.1,8.2-.6-.8-2.1-2.3-3-2.9,4.5-3.3,4.9-8.3,4.9-12.4v-9.3h17.9ZM154.2,23.1c0,.8,0,1.6-.1,2.5h9.8v-2.5h-9.7ZM163.9,16.8h-9.7v2.5h9.7v-2.5Z"/>
</svg>