<?xml version="1.0" encoding="UTF-8"?>
<svg id="Layer_1" xmlns="http://www.w3.org/2000/svg" xmlns:xlink="http://www.w3.org/1999/xlink" version="1.1" viewBox="0 0 1653.67 878.59">
  <!-- Generator: Adobe Illustrator 29.6.1, SVG Export Plug-In . SVG Version: 2.1.1 Build 9)  -->
  <defs>
    <style>
      .st0 {
        fill: none;
      }

      .st1 {
        fill: #fff;
      }

      .st2 {
        clip-path: url(#clippath);
      }
    </style>
    <clipPath id="clippath">
      <rect class="st0" width="1653.67" height="878.59"/>
    </clipPath>
  </defs>
  <g class="st2">
    <path class="st1" d="M1651.29,827.77c0,22.65-17.19,44.42-19,66.61-1.84,22.55,11.55,46.83,7.91,68.82-3.69,22.29-24.22,40.95-29.68,62.58-5.52,21.88,3.67,48.04-3.58,69.17s-30.65,36.32-39.65,56.8c-9.06,20.62-4.32,47.94-15,67.62s-36.22,30.72-48.49,49.46c-12.31,18.81-12.14,46.55-25.93,64.23-13.81,17.72-40.75,24.33-55.95,40.83-15.21,16.51-19.58,43.91-36.1,59.12-16.5,15.2-44.16,17.31-61.88,31.12-17.68,13.78-26.49,40.09-45.29,52.41-18.75,12.27-46.37,9.82-66.15,20.54-19.68,10.67-32.69,35.17-53.31,44.23-20.48,9-47.32,2.01-68.63,9.33-21.13,7.25-38.02,29.26-59.9,34.79-21.64,5.46-46.94-5.87-69.23-2.18-21.99,3.64-42.28,22.56-64.83,24.4-22.18,1.81-45.28-13.52-67.94-13.52s-45.75,15.34-67.94,13.52c-22.55-1.84-42.84-20.76-64.83-24.4-22.29-3.69-47.59,7.64-69.23,2.18-21.88-5.52-38.76-27.53-59.9-34.79s-48.16-.33-68.63-9.33c-20.62-9.06-33.63-33.56-53.31-44.23-19.78-10.72-47.4-8.27-66.15-20.54s-27.61-38.62-45.29-52.41c-17.72-13.81-45.38-15.92-61.88-31.12-16.51-15.21-20.89-42.6-36.1-59.12s-42.14-23.11-55.95-40.83-13.62-45.42-25.93-64.23-37.77-29.69-48.49-49.46c-10.67-19.68-5.94-47.01-15-67.62s-32.33-35.48-39.65-56.8c-7.25-21.13,1.94-47.3-3.58-69.17-5.46-21.64-25.99-40.29-29.68-62.58s9.75-46.27,7.91-68.81c-1.81-22.18-19-43.96-19-66.61s17.19-44.42,19-66.61-11.55-46.83-7.91-68.82c3.64-21.99,24.22-40.95,29.68-62.58,5.52-21.88-3.67-48.04,3.58-69.17s30.65-36.32,39.65-56.8,4.32-47.94,15-67.62,36.22-30.72,48.49-49.46c12.31-18.81,12.14-46.55,25.93-64.23s40.75-24.33,55.95-40.83c15.21-16.51,19.58-43.91,36.1-59.12s44.16-17.31,61.88-31.12c17.68-13.78,26.49-40.09,45.29-52.41s46.37-9.82,66.15-20.54c19.68-10.67,32.69-35.17,53.31-44.23,20.62-9.06,47.32-2.01,68.63-9.33,21.13-7.25,38.02-29.26,59.9-34.79,21.64-5.46,46.94,5.87,69.23,2.18s42.28-22.56,64.83-24.4c22.18-1.81,45.28,13.52,67.94,13.52s45.75-15.34,67.94-13.52c22.55,1.84,42.84,20.76,64.83,24.4,22.29,3.69,47.59-7.64,69.23-2.18,21.88,5.52,38.76,27.53,59.9,34.79,21.32,7.32,48.16.33,68.63,9.33,20.62,9.06,33.63,33.56,53.31,44.23s47.4,8.27,66.15,20.54,27.61,38.62,45.29,52.41c17.72,13.81,45.38,15.92,61.88,31.12,16.51,15.21,20.89,42.6,36.1,59.12,15.2,16.5,42.14,23.11,55.95,40.83s13.62,45.42,25.93,64.23c12.27,18.75,37.77,29.69,48.49,49.46,10.67,19.68,5.94,47.01,15,67.62,9,20.48,32.33,35.48,39.65,56.8,7.25,21.13-1.94,47.3,3.58,69.17,5.46,21.64,25.99,40.29,29.68,62.58,3.64,21.99-9.75,46.27-7.91,68.81,1.81,22.18,19,43.96,19,66.61Z"/>
  </g>
</svg>