<?xml version="1.0" encoding="UTF-8"?>
<svg id="Layer_1" data-name="Layer 1" xmlns="http://www.w3.org/2000/svg" xmlns:xlink="http://www.w3.org/1999/xlink" viewBox="0 0 380.99 374.14">
  <defs>
    <style>
      .cls-1 {
        filter: url(#drop-shadow-1);
      }

      .cls-2 {
        fill: #9ed7e9;
      }

      .cls-3 {
        fill: #9dd6e9;
      }

      .cls-4 {
        fill: #9fd7e9;
      }

      .cls-5 {
        fill: #5bacca;
      }

      .cls-6 {
        fill: #fff;
      }

      .cls-7 {
        fill: #3c4d7f;
      }

      .cls-8 {
        fill: #9d8dc3;
      }

      .cls-9 {
        fill: #f2eced;
      }

      .cls-10 {
        fill: #6479ba;
      }

      .cls-11 {
        fill: #f6f7f7;
      }

      .cls-12 {
        fill: #512845;
      }

      .cls-13 {
        fill: #e3526a;
      }

      .cls-14 {
        fill: #f2f2dd;
      }
    </style>
    <filter id="drop-shadow-1" x="0" y="4.16" width="387.51" height="365.64" filterUnits="userSpaceOnUse">
      <feOffset dx="6.52" dy="6.52"/>
      <feGaussianBlur result="blur" stdDeviation="0"/>
      <feFlood flood-color="#231f20" flood-opacity=".2"/>
      <feComposite in2="blur" operator="in"/>
      <feComposite in="SourceGraphic"/>
    </filter>
  </defs>
  <g class="cls-1">
    <g>
      <path class="cls-6" d="M192.09,363.28c-10.52,0-20.68-4.47-27.17-11.95-3.04-3.47-5.73-7.36-8.12-11.78-1.73,1.65-3.43,3.01-4.89,4.11-4.07,3.18-9.31,5.02-15.83,5.49-2.33.17-4.65.23-6.95.23,0,0-2.07-.02-2.08-.02-2.49,0-4.9-.35-7.19-1.06-2.81.94-5.67,1.42-8.51,1.42-3.81,0-7.53-.86-11.07-2.55-1.15-.54-2.25-1.16-3.31-1.86-.75.06-1.5.09-2.25.09-2.85,0-5.67-.47-8.36-1.4-7.01-2.33-12.08-7.43-14.16-14.29-1.15-3.94-1.74-7.8-1.77-11.58-5.89-.99-11.38-3.91-15.72-8.4-10.19-2.5-18.05-9.12-22.36-18.88-7.68-4.05-14-9.8-18.77-17.09-7.08-10.87-11.39-23.58-13.16-38.86-1.8-15.52,2.55-29.02,6.54-39.05,1.14-2.91,2.3-5.58,3.5-8.08-2.23-8.01-1.36-16.41,2.64-24.98,1.25-2.6,2.96-4.76,5.04-6.41,1.23-4.88,3.32-9.17,5.48-13.14,4.41-8.15,12.22-12.64,21.98-12.64.93,0,1.87.04,2.82.12,10.67.8,20.46,4.02,29.01,9.56l1.45-.42c2.89-.78,6.17-1.66,9.69-2.19,1.95-.32,4.15-.5,6.35-.5,1.06,0,2.15.04,3.23.13,3.59-2.03,7.46-3.08,11.41-3.08.4,0,.79,0,1.19.03-4.06-3.13-7.75-6.87-11.07-11.23-4.11-5.41-6.58-11.5-7.8-19.19-1.54-9.85.42-19.26,5.98-28.79,6.55-11.12,13.87-20.3,22.37-28.06.96-7.1,5.53-11.09,10.46-12.43,2.45-2.23,5.68-3.56,9.28-3.78l.9-.02c5.38,0,9.18,2.54,10.8,3.63,7.8,4.94,14.41,11.7,19.36,19.92.55.93,1.08,1.87,1.59,2.82.69-.84,1.22-1.71,1.58-2.64,4.48-11.41,13.69-18.98,25.95-21.63.52-2.74,1.63-4.79,2.79-6.28-.26-5.43,1.39-10.82,4.88-15.72,2.86-4.15,7.75-6.71,12.96-6.71s10.09,2.51,13.2,6.72c.62.87,1.1,1.63,1.48,2.3l.3.52.25.54c1.03,2.26,2.51,4.31,4.7,6.37,1.27-.93,2.64-1.78,4.12-2.54,2.76-1.44,5.66-2.19,8.56-2.19,8.21,0,14.84,5.99,16.24,14.61.29-.29.57-.57.86-.84,1.71-1.68,4.09-3.05,6.72-3.78,2.29-.66,4.74-1.07,7.13-1.16h.72c4.99,0,9.73,1.35,14.1,4.02,2.57-4.83,6.1-9.43,10.56-13.71l.36-.33c3.49-3.11,7.44-4.69,11.75-4.69,5,.16,9.21,2.27,11.86,5.73,1.63.97,3.16,2.32,4.43,4.13,1.98,1.32,4.23,2.59,6.59,3.92,2.05,1.15,4.09,2.31,6.07,3.54,10.92,6.73,18.5,14.61,23.16,24.07,4.57,9.28,6.2,18.69,4.83,27.97-.64,4.1-2.05,8.05-4.19,11.87-3.07,5.5-6.21,10.9-10.4,15.96,3.35,2.33,6.7,6.33,7.77,13.09,4.52,5.42,7.38,11.78,8.66,19.07.72,4.59.5,8.63-.68,12.35.33,3.66.12,7.09-.08,10.21-.06.97-.13,1.94-.17,2.91-.25,6.43-2.06,12.55-5.53,18.7-5,8.71-12.26,15.1-21.62,19.07-.04.02-.08.04-.13.05-.17.29-.34.58-.53.88-3.15,4.86-7.73,8.61-13.33,10.94-.68,1.82-1.57,3.46-2.65,4.88,1.14.7,2.28,1.47,3.4,2.29,2.86,2.04,5.76,4.27,8.68,6.51l2.57,1.97s.37.27.75.5c7.34,4.5,10.33,11.98,8.15,20.08-.44,1.79-1.1,3.5-1.96,5.12,1.12,4.17,1.02,7.77.98,9.37-.12,5.05-2.3,9.5-5.91,12.53-1.96,8.03-5.77,15.8-11.55,23.54,7.2,8.49,9.78,19.75,7.03,31.98-1.83,8.49-7.59,14.87-16.2,17.87-.92.32-1.82.57-2.71.74-2.82,2.72-6.1,4.66-9.73,5.76-2.98.97-5.81,1.09-7.66,1.09l-1.23-.02-7.77-.44c-1.11-.05-3.08-.13-5.37-.98-2.96.87-6.81,1.98-11.26,1.98-1.11,0-2.23-.07-3.35-.22-9.38-1.17-17.4-5.41-23.59-12.39-1.6,2.48-3.73,4.69-6.34,6.56-3.17,2.31-7.67,5.1-13.69,5.69-.69.08-1.57.13-2.43.13-1.25,0-2.47-.11-3.66-.31-3.05,1.72-6.2,2.88-9.54,3.51-2.71.49-5.36.74-7.95.74-4.01,0-8-.57-11.88-1.71-3.52,1.35-7.43,2.05-11.55,2.05Z"/>
      <path class="cls-6" d="M366.59,150.55c.87,4.55.23,9.15.05,13.74-.18,4.64-1.61,8.83-3.86,12.83-3.59,6.25-8.73,10.66-15.35,13.47-1.42.64-3.08.87-4.41,1.65-1.33.83-1.2,2.8-2.07,4.14-2.11,3.26-5.15,5.33-8.73,6.53-3.03,1.01-4.78,2.71-5.56,5.88-.87,3.54-2.53,4.41-6.16,3.95-.78-.09-1.56-.23-2.39-.28-1.61-.09-2.85.6-4.05,1.75-2.94,2.9-4.83,6.34-6.44,10.07-.51,1.15.23,1.75.83,2.44,1.47.05,2.9.09,4.37.18.37-1.01,1.24-.87,2.02-.87,6.3.05,11.77,2.48,16.73,6.11,3.72,2.67,7.36,5.52,11.03,8.32.64.46,1.29.92,1.98,1.33,2.25,1.38,2.94,2.94,2.25,5.52-.55,2.21-1.7,4.09-3.54,5.52-.92.74-1.06,1.38-.32,2.39,2.11,2.85,2.53,6.16,2.44,9.61-.05,1.93-1.1,3.26-3.03,3.77-1.1.28-1.56.92-1.75,2.07-1.33,9.1-5.52,16.96-11.12,24.13-1.52,1.93-3.77,3.03-5.79,4.37-.74.46-1.52,0-2.3-.18-.97.23-2.02.32-2.67,1.29,1.66,1.61,3.59,2.8,5.61,3.91,10.3,5.88,13.24,15.95,10.94,26.2-.92,4.28-3.68,6.99-7.77,8.41-.78.28-1.56.46-2.34.18-1.47-.55-2.48.09-3.26,1.29-1.56,2.3-3.63,4.05-6.34,4.87-1.56.51-3.13.55-4.74.51-2.44-.14-4.92-.28-7.4-.41-.6-.05-1.24,0-1.75-.28-2.67-1.42-5.38-1.01-8.09-.18-2.99.87-6.02,1.75-9.19,1.33-8.83-1.1-15.03-5.93-19.31-13.47-1.79-3.13-2.99-6.48-4.09-9.88-.92-2.76-2.67-4.5-5.42-5.42-3.45-1.06-6.85-1.61-10.39-.87-2.39.51-2.71,1.33-1.2,3.22,3.17,3.91,5.2,8.27,5.65,13.33.37,4.09-1.2,7.26-4.46,9.61-2.21,1.61-4.55,3.03-7.36,3.31-2.02.23-3.95-.09-5.61-1.38-.97-.78-1.56,0-2.21.46-2.67,2.16-5.56,3.77-8.96,4.41-5.06.92-9.98.6-14.8-1.01-1.06-.37-2.07-.69-3.13-1.06-.55-.18-1.01.05-1.38.32-7.26,4.78-20.32,2.8-26.98-4.87-3.95-4.5-6.85-9.56-9.19-15.03-.69-1.65-1.56-3.31-2.48-4.87-1.01-1.84-2.57-2.53-4.78-2.57-2.85-.05-4.41,1.06-5.7,3.59-1.93,3.86-5.15,6.8-8.55,9.38-2.53,1.98-5.75,2.67-8.92,2.9-2.62.18-5.24.23-7.86.18-2.16,0-4.28-.46-6.11-1.7-.87-.6-1.56-.46-2.44,0-4.14,2.21-8.41,2.9-12.83.78-1.56-.74-2.99-1.75-4.18-3.03-.78-.78-1.56-1.01-2.67-.69-2.8.87-5.65.97-8.46,0-2.9-.97-5.01-2.71-5.93-5.75-1.52-5.19-1.7-10.39-.05-15.54.51-1.65,1.7-2.99,2.8-4.37.55-.74,1.24-1.42,1.84-2.11,1.24-1.52,1.2-1.79-.05-3.26-.51-.55-.92-1.15-1.38-1.75-.83.28-1.7.41-2.57.41.37,1.66-.55,2.62-1.75,3.45-6.9,4.6-15.26,3.26-20.55-3.36-.97-1.15-1.98-1.7-3.45-1.98-7.77-1.38-13.06-5.84-15.81-13.24-.74-1.93-1.7-3.13-3.72-4.09-6.39-3.03-11.58-7.49-15.49-13.47-6.62-10.16-9.75-21.38-11.12-33.24-1.33-11.54,1.52-22.2,5.7-32.73,1.38-3.49,2.9-6.94,4.64-10.25.64-1.2.69-2.34.18-3.59-2.62-6.34-1.79-12.5,1.01-18.53.64-1.33,1.61-2.16,2.99-2.48,1.38-.37,2.11-1.2,2.25-2.62.46-4.96,2.57-9.42,4.92-13.74,2.67-4.92,7.26-6.16,12.27-5.75,8.55.64,16.5,3.13,23.68,7.95,2.67,1.84,5.52,2.25,8.64,1.47,3.59-.92,7.17-2.02,10.85-2.57,3.03-.51,6.02-.46,9.01,0,1.2.18,2.3.09,3.13-.6,5.42-4.46,10.62-2.8,15.72.51.23.14.46.32.92.64-.28-3.45,1.24-5.93,3.4-8.04,2.11-2.07,4.6-3.45,7.45-4.5,5.38-1.98,10.44-.55,15.54.83,2.48.69,2.53.64,2.07-1.98-.23-1.15-.46-2.25-.6-3.36-.14-.74-.51-1.01-1.24-1.01-14.71-.46-26.8-6.07-35.86-17.93-3.03-4-4.5-8.41-5.29-13.33-1.15-7.36.69-13.88,4.37-20.18,5.61-9.52,12.23-18.11,20.46-25.51,2.16-1.88,3.36-4.23,3.54-7.13.14-1.84.74-2.16,2.53-1.75,1.24.28,2.44.51,3.59.97.28.09.55.32.83,0,.23-.28.14-.55,0-.83-.23-.46-.41-.87-.64-1.33-.64-1.38-.18-2.16,1.33-2.25,1.43-.05,2.57.69,3.68,1.42,6.39,4.05,11.54,9.33,15.45,15.81,3.22,5.42,5.43,11.22,6.8,17.33.09.46,0,1.15.55,1.29.55.18.78-.46,1.1-.83,3.22-3.22,6.48-6.44,10.07-9.24,3.49-2.8,6.25-6.11,7.91-10.25,4.18-10.67,13.7-14.53,24.18-14.48.87,0,1.79.14,2.67.23,1.7.18,2.07-.18,1.38-1.75-.92-2.21-1.52-4.5-1.66-6.9-.09-2.02.55-2.57,2.57-2.3,1.98.32,2.9-.74,2.16-2.62-.23-.69-.6-1.33-.87-2.02-1.56-4-.69-7.72,1.7-11.08,1.24-1.79,3.77-1.56,5.06.18.23.32.46.69.64,1.01,3.63,8,10.11,13.19,17.28,17.7,1.29.78,1.93.55,2.67-1.01,1.43-3.03,3.77-5.15,6.71-6.67,3.17-1.66,5.47-.46,5.98,3.08.46,3.22,2.07,5.84,4.37,8.09,3.36,3.26,6.99,6.11,10.85,8.69.23-.37.41-.78.64-1.15,2.07-3.82,4.28-6.85,6.8-9.24.32-.32.74-.55,1.24-.69,1.43-.41,2.8-.64,4.14-.69,2.85-.05,5.47.74,8.04,2.44,5.7,3.72,8.96,9.15,9.93,16.6l.09.64c1.88-5.47,3.72-10.99,5.33-16.55,1.84-6.44,5.7-11.81,10.53-16.46.87-.78,1.84-1.38,3.08-1.38,1.52.05,2.11.97,1.47,2.34-.32.78-.6,1.56-.83,2.39-.14.41-.18.92.32,1.15.46.23.69-.18.97-.46.46-.46.92-.92,1.47-1.24,1.24-.78,1.98-.6,2.57.78.37.83,1.01,1.29,1.7,1.75,4.55,3.26,9.65,5.7,14.39,8.64,7.68,4.74,14.3,10.53,18.34,18.76,3.17,6.44,4.69,13.15,3.63,20.32-.41,2.62-1.38,5.1-2.67,7.4-3.31,5.93-6.71,11.77-11.49,16.73-5.33,5.47-11.54,9.29-19.08,10.9-.83.18-1.88.18-1.98,1.38-.09.78-.05,1.75.46,2.3.51.51,1.24-.23,1.79-.51,8-3.63,15.63-2.02,22.98,1.75,2.85,1.42,3.31,4.28,3.36,7.17,0,.87.23,1.47.83,2.02,4.28,4.14,6.67,9.19,7.68,14.99.41,2.62.37,5.19-.87,7.68-.23.41-.37.78-.28,1.29Z"/>
    </g>
  </g>
  <g>
    <g>
      <path class="cls-12" d="M318.75,300.27c1.65,1.6,3.6,2.79,5.58,3.91,10.32,5.86,13.27,15.97,10.98,26.18-.96,4.28-3.71,7-7.8,8.43-.76.27-1.55.46-2.33.19-1.5-.53-2.47.1-3.27,1.28-1.58,2.32-3.61,4.05-6.34,4.89-1.55.47-3.12.55-4.71.48-2.48-.12-4.95-.25-7.42-.4-.59-.04-1.26,0-1.75-.27-2.68-1.45-5.37-1.03-8.09-.21-3,.91-6.03,1.75-9.2,1.35-8.8-1.09-15.03-5.93-19.31-13.49-1.76-3.11-2.96-6.49-4.09-9.87-.92-2.76-2.64-4.51-5.43-5.4-3.42-1.09-6.84-1.63-10.39-.89-2.35.49-2.68,1.33-1.16,3.21,3.15,3.92,5.19,8.28,5.65,13.34.37,4.1-1.2,7.25-4.46,9.61-2.22,1.61-4.56,3.02-7.37,3.31-2.03.21-3.96-.09-5.61-1.4-.96-.76-1.57,0-2.2.49-2.68,2.12-5.58,3.75-8.98,4.39-5.03.94-9.96.62-14.81-1.02-1.03-.35-2.07-.65-3.1-1.02-.56-.2-1.02.05-1.4.3-7.27,4.8-20.29,2.82-27-4.87-3.94-4.51-6.82-9.58-9.16-15.02-.73-1.69-1.58-3.3-2.48-4.89-1.05-1.84-2.59-2.5-4.79-2.55-2.86-.06-4.41,1.05-5.68,3.57-1.95,3.86-5.16,6.79-8.55,9.38-2.57,1.96-5.75,2.65-8.94,2.9-2.62.2-5.25.23-7.88.2-2.15-.02-4.26-.48-6.08-1.7-.88-.59-1.56-.5-2.44-.03-4.14,2.22-8.41,2.9-12.82.8-1.58-.75-2.99-1.77-4.2-3.03-.78-.81-1.54-1.02-2.65-.69-2.81.84-5.66.94-8.49-.01-2.89-.97-5-2.74-5.9-5.77-1.54-5.17-1.69-10.36-.05-15.52.53-1.65,1.7-3.01,2.78-4.36.59-.73,1.25-1.41,1.85-2.14,1.24-1.51,1.22-1.78-.04-3.25-.48-.56-.92-1.16-1.38-1.74-3.42-6.38-6.58-12.87-8.61-19.85-.25-.85-.93-1.22-1.67-1.57-1.18-.56-2.5-.58-3.72-1-1.21-.41-1.79-1.13-1.86-2.5-.25-4.72,1.65-8.69,4.2-12.43.68-1,.58-1.35-.52-1.78-2.63-1.03-5.13-2.33-7.33-4.16-.68-.57-.86-1.2-.81-2.08.14-2.49,1.86-3.94,3.37-5.57,2.42-2.61,5.27-4.82,7.25-7.82,2.07-3.14,4.12-6.3,6.09-9.51,3.25-5.28,6.55-10.49,10.94-14.95,7.3-7.41,15.48-13.75,23.91-19.77,2.26-1.62,2.53-2.47,1.53-5.03-1.14-2.93-2.18-5.9-2.02-9.08.17-3.29-.87-6.05-2.7-8.71-1.52-2.2-1.84-4.79-1.51-7.42.32-2.58,1.09-5.03,2.28-7.34.8-1.56.74-3.09-.36-4.45-2.18-2.71-5.18-3.74-8.54-3.75-1.08,0-2.35.28-2.63,1.53-.29,1.28.73,1.92,1.77,2.4.58.27,1.16.56,1.72.88,1.18.66,2.2,1.52,3.09,2.53.42.48.61,1.13.21,1.65-.51.66-.94-.05-1.38-.26-3.1-1.57-6.24-3.1-9.68-3.7-11.28-1.96-21.22,1.52-30.46,7.71-.29.19-.55.43-.85.59-.37.19-.77.24-1.11-.06-.41-.37-.1-.74.08-1.07.54-.98,1.38-1.68,2.29-2.29,1.24-.82,1.37-1.27.36-2.41-1.39-1.57-3.05-2.83-4.76-4.02-5.59-3.9-11.96-5.64-18.61-6.49-2.19-.28-4.28.24-6.09,1.78-1.62,1.38-2.79,3.06-3.95,4.79-4.04,6.02-5.12,12.45-2.86,19.4.26.8,1.03,1.88-.21,2.27-1.02.32-1.32-.97-1.74-1.69-.27-.46-.34-1.03-.48-1.56-.2-.72-.49-1.39-.89-2.03-.92-1.47-2.21-1.59-3.36-.25-1.06,1.23-1.69,2.69-2.01,4.26-1.04,5.16-.56,10.15,1.77,14.91.24.49.5.83.16,1.46-4.33,7.96-7.44,16.4-9.62,25.18-2.63,10.6-3.03,21.19.61,31.63,2.78,8,5.85,15.79,11.84,22.24,5.32,5.72,11.54,9.01,19.19,9.85.49.05.99.09,1.47.19.4.09.74.35.78.8.04.45-.27.7-.64.9-.78.42-1.64.36-2.47.4-1.27.07-1.69.83-1.49,1.89.28,1.45.63,2.94,1.55,4.14,2.86,3.74,6.66,5.97,11.3,6.79,3.01.53,5.91-.15,8.83-.76.68-.14,1.76-.74,2.06.33.23.83-.84,1.07-1.48,1.39-.66.33-1.3.61-1.61,1.41-.79,2.05.03,3.97,2.37,5.02,3.56,1.59,8.97,1.56,12.15-2.21.66-.78,1.4-1.1,2.3-.35.35,1.63-.56,2.62-1.78,3.43-6.87,4.6-15.25,3.28-20.53-3.33-.94-1.18-1.96-1.74-3.42-2-7.78-1.38-13.08-5.86-15.84-13.23-.73-1.95-1.68-3.15-3.72-4.11-6.38-3-11.58-7.49-15.5-13.48-6.62-10.12-9.73-21.33-11.11-33.22-1.34-11.52,1.5-22.22,5.68-32.73,1.39-3.5,2.91-6.94,4.67-10.27.63-1.19.69-2.32.18-3.55-2.62-6.34-1.82-12.5,1.01-18.56.61-1.31,1.61-2.15,2.97-2.48,1.4-.34,2.13-1.19,2.26-2.58.47-5.01,2.59-9.43,4.92-13.75,2.64-4.91,7.26-6.17,12.29-5.78,8.51.67,16.51,3.14,23.65,7.99,2.66,1.8,5.54,2.25,8.65,1.45,3.6-.92,7.16-2,10.84-2.59,3.01-.48,6.03-.46,9.03.02,1.15.18,2.26.09,3.12-.61,5.42-4.45,10.59-2.8,15.72.52.24.15.47.32.93.62-.28-3.43,1.23-5.93,3.4-8.05,2.1-2.06,4.59-3.42,7.42-4.47,5.4-1.99,10.43-.57,15.57.83,2.49.68,2.51.61,2.05-2.01-.2-1.12-.42-2.24-.6-3.36-.11-.73-.49-.98-1.21-1-14.71-.46-26.81-6.04-35.86-17.93-3.05-4.01-4.53-8.42-5.3-13.33-1.16-7.36.67-13.87,4.37-20.15,5.6-9.51,12.23-18.15,20.47-25.52,2.13-1.91,3.37-4.22,3.54-7.11.11-1.83.7-2.17,2.54-1.76,1.21.27,2.43.49,3.58.96.26.11.55.31.8,0,.22-.26.16-.55.02-.83-.22-.44-.45-.88-.66-1.33-.65-1.36-.18-2.17,1.33-2.23,1.42-.06,2.57.68,3.69,1.4,6.39,4.06,11.54,9.32,15.41,15.83,3.23,5.41,5.45,11.21,6.82,17.34.1.46,0,1.13.54,1.29.56.16.8-.48,1.13-.82,3.2-3.25,6.45-6.45,10.04-9.28,3.5-2.76,6.28-6.11,7.9-10.24,4.2-10.66,13.73-14.52,24.19-14.46.89,0,1.78.13,2.66.23,1.71.19,2.06-.21,1.39-1.77-.94-2.21-1.53-4.5-1.65-6.9-.1-2,.54-2.56,2.55-2.26,1.99.29,2.89-.76,2.2-2.62-.26-.69-.63-1.35-.9-2.04-1.57-4.02-.68-7.72,1.7-11.08,1.26-1.79,3.76-1.58,5.08.2.23.32.45.66.61,1.02,3.66,7.97,10.14,13.17,17.32,17.67,1.29.81,1.9.56,2.64-1,1.44-3.05,3.79-5.17,6.73-6.68,3.17-1.63,5.44-.46,5.96,3.08.47,3.24,2.09,5.85,4.38,8.08,6.17,6,13.26,10.65,20.9,14.55,5.98,3.04,11.73,6.46,16.38,11.42.67.71,1.02.38,1.28-.24.33-.77.54-1.59.81-2.39,2.7-7.71,5.45-15.39,7.7-23.26,1.85-6.45,5.69-11.83,10.54-16.46.84-.8,1.81-1.39,3.04-1.37,1.56.03,2.13.96,1.51,2.34-.34.76-.63,1.56-.86,2.37-.12.42-.15.95.35,1.18.46.21.67-.22.95-.5.46-.45.93-.9,1.47-1.23,1.26-.78,1.97-.59,2.56.77.37.84,1.05,1.29,1.73,1.78,4.56,3.27,9.63,5.7,14.4,8.63,7.68,4.73,14.29,10.54,18.35,18.77,3.16,6.4,4.69,13.15,3.59,20.31-.4,2.61-1.37,5.08-2.66,7.38-3.31,5.93-6.71,11.8-11.49,16.74-5.3,5.49-11.54,9.3-19.06,10.9-.83.18-1.9.18-2.01,1.39-.07.79-.04,1.76.46,2.27.52.54,1.25-.21,1.83-.47,7.98-3.63,15.59-2.03,22.98,1.73,2.86,1.45,3.31,4.3,3.32,7.16,0,.91.26,1.48.86,2.05,4.26,4.11,6.67,9.17,7.65,14.95.45,2.64.4,5.24-.86,7.69-.21.4-.35.8-.26,1.28.86,4.59.21,9.19.03,13.78-.18,4.61-1.6,8.81-3.87,12.8-3.56,6.27-8.72,10.68-15.32,13.48-1.46.62-3.12.89-4.43,1.67-1.34.8-1.2,2.78-2.06,4.1-2.13,3.28-5.19,5.35-8.77,6.54-3.03,1-4.78,2.74-5.55,5.89-.86,3.53-2.52,4.4-6.17,3.97-.79-.09-1.57-.22-2.36-.27-1.64-.1-2.87.56-4.06,1.73-2.93,2.88-4.83,6.35-6.42,10.06-.5,1.16.21,1.74.83,2.43.3.68.62,1.34.89,2.03.41,1.03.78,2.16.16,3.15-.78,1.25-.18,1.75.77,2.45,5.55,4.09,6.57,9.61,2.71,15.11-1.22,1.73-1.87,3.53-2.1,5.6-.35,3.11-1.07,6.13-2.48,8.96-.76,1.53-1.95,2.73-2.92,4.1-.92,1.29-.78,1.9.47,2.86.47.36,1,.7,1.31,1.18,5.08,7.71,8.81,15.92,9.33,25.3.08,1.46.67,2.45,2.14,2.81ZM292.04,135.31c1.63,3.3,2.57,6.74,2.13,10.47-.34,2.9-1.2,5.64-2.73,8.1-1.91,3.07-4.8,4.54-8.41,4.37-3.87-.18-6.59-2.22-8.33-5.6-.67-1.29-1.19-2.65-1.78-3.97-.64,2.81-.42,5.53.08,8.25.04.23.23.44.37.64,2.35,3.36,7.16,5.34,10.52,4.3,1.7-.53,3.47-.84,5.26-.94,4.37-.25,7.17-2.77,9.25-6.32,1.24-2.12,1.7-4.52,2.25-6.89,1.85-7.94.32-15.13-4.56-21.64-1.35-1.79-3-3.13-5.12-3.91-.73-.27-1.3-.2-1.92.27-1.39,1.03-2.84,1.99-4.24,3.01-1.25.9-1.25,1.29.14,2.09,1.89,1.1,3.27,2.7,4.57,4.39-.88.63-1.37,1.49-1.54,2.56-.2,1.28.31,1.81,1.62,1.75.93-.04,1.62-.65,2.44-.92ZM195.28,142.4c1-2.46,2.5-4.6,4.15-6.66.36-.45.95-.87.16-1.6-4.13-3.79-6.16-3.62-9.68.71-8.17,10.04-4.93,26.08,3.32,33.43,2.24,1.99,4.86,2.98,7.96,2.26,1.54-.36,3.13-.65,4.7-.69,4.55-.12,7.85-2.56,10.65-5.73,2.54-2.87,2.31-7.45-.21-10.28-.37.29-.23.72-.31,1.08-.52,2.56-1.44,4.94-3.15,6.96-4.92,5.81-13.23,4.8-16.56-2.02-2-4.1-2.94-8.4-2.35-12.97.63.26,1.24.59,1.9.77.83.23,1.73.27,2.28-.55.55-.81.66-1.68.17-2.64-.65-1.27-1.7-1.85-3.02-2.07ZM149.92,73.49c-.37-1.06-.34-2.2-.73-3.27-1.57-4.35-4.37-7.96-6.94-11.72-.44-.65-.84-.59-1.46-.15-9.65,6.79-17.77,15-23.59,25.35-1.83,3.26-3.33,6.64-3.57,10.45-.29,4.58-.01,9.07,2.94,12.88,5.08,6.56,11.25,11.82,18.8,15.39,2.92,1.38,5.97,2.08,9.21,1.83.98-.08,1.97-.11,2.95-.26,1.11-.17,1.75-.86,1.88-1.99.13-1.15-.42-1.89-1.45-2.31-.82-.34-1.7-.58-2.47-1.01-5.78-3.22-8.65-8.49-10.21-14.65-.25-.99.37-1.41,1.27-1.62,2.06-.48,2.52-1.19,1.8-3.15-.83-2.27-.81-4.55-.5-6.88.14-1.04.55-1.47,1.68-1.23,1.42.3,2.17-.28,2.35-1.72.1-.78.03-1.58,0-2.37-.04-.87.17-1.65.58-2.42.38-.71.84-.83,1.58-.53,2.16.86,2.86.43,2.98-1.91.08-1.48-.03-2.97.34-4.43.2-.8.47-1.64,1.35-1.8,1.61-.3,1.74-1.2,1.22-2.48ZM341.87,96.95c.25-.15.52-.29.76-.47,7.48-5.35,11.24-12.78,12.47-21.76.76-5.56-.05-10.62-3.35-15.25-4.13-5.78-9-10.8-14.83-14.87-4.34-3.04-9.19-4.56-14.46-4.86-1.15-.06-1.85.32-2.33,1.38-1,2.21-2.05,4.4-2.76,6.73-1.34,4.38-1.42,8.68.79,12.84.28,2.52,1.45,4.81,1.83,7.33.16,1.08,1.14,1.23,2.12.71,1.56-.83,1.78-.73,2.18,1,.1.43.16.88.26,1.31.44,1.93,1.43,2.36,2.99,1.2.8-.6,1.29-.44,1.82.32.85,1.2,1.14,2.5.99,3.94-.12,1.18-.36,2.36-.16,3.55.24,1.4,1.02,1.8,2.32,1.25,1.36-.57,1.75-.38,1.77,1.03.06,4.06-.53,7.9-3.57,10.98-1.22,1.23-1.11,1.71.35,2.6.84.51.93,1.03.35,1.8-.92,1.22-2.1,2.1-3.42,2.8-.84.45-1.38.98-.89,2,.45.93,1.09,1.31,2.16.95,4.52-1.55,8.8-3.57,12.61-6.49ZM299.57,250.88c.82-1.61,1-3.26.5-5.02-.37-1.29-.82-2.54-1.5-3.7-.23-.4-.35-.86-.08-1.26.25-.38.64-.09.95,0,1.95.52,2.93-.47,2.37-2.46-.49-1.75-1.4-3.26-2.74-4.51-.25-.24-.82-.45-.43-.92.29-.35.73-.15,1.1.01.9.41,1.78.88,2.71,1.2,2.04.71,4.55-1.44,4.14-3.57-.4-2.08-1.59-3.67-3.39-4.94.45-.43.9-.82,1.3-1.26.46-.52.43-1.11.01-1.63-.49-.6-.97-.17-1.43.11-.79.5-1.54,1.09-2.38,1.51-3.19,1.62-6.03,3.61-8.56,6.24-3.29,3.42-7.45,5.36-12.34,5.3-.77,0-2.01.4-2.17-.57-.12-.74,1.21-.49,1.82-.85.08-.05.19-.04.29-.08,6.08-2.28,11.41-5.47,14.31-11.65.26-.54.68-.97,1.21-1.27.43-.09.87-.18,1.3-.28,7.48-1.67,13.2-5.7,16.62-12.66.64-1.3,1.06-1.68,2.51-.98,3.79,1.82,7.66-.12,8.04-4.07.15-1.54.9-1.79,2.04-1.9,2.15-.21,4.2-.77,6.12-1.74,2.39-1.21,4.2-2.95,4.87-5.67.41-1.68.03-2.19-1.67-2.1-.94.05-1.89.1-2.81-.14-.47-.12-1.07-.26-.94-.92.11-.55.6-.72,1.16-.69,4.37.2,8.43-1.13,12.39-2.71,9.22-3.7,15.33-10.4,17.7-20.01,1.81-7.35,1.81-14.83-.81-22.13-.64-1.79-1.4-3.48-2.61-4.97-1.12-1.38-2.17-2.83-3.23-4.26-.18-.25-.51-.58-.17-.91.24-.23.56-.02.83.1,1.03.44,1.8,1.21,2.57,1.99,2.11,2.14,4.17,4.32,5.34,7.2.24-.85.38-1.63.42-2.42.03-.69.02-1.4-.11-2.07-1.23-6.63-4.92-11.54-10.59-15.07-.65-.41-2.12-.51-1.73-1.36.33-.72,1.59.09,2.42.31.44.12.86.72,1.33.2.44-.49.4-1.13.14-1.69-.68-1.46-1.58-2.72-3.1-3.48-4.35-2.18-8.9-2.55-13.61-1.54-5.16,1.1-8.91,4.36-12.31,8.13-3.09,3.43-4.73,7.64-6.27,11.89-.74,2.04-1.09,4.25-2.02,6.2-2.44,5.12-6.54,8.77-11.16,11.88-.19.13-.46.12-.69.18-.9-.5-.77-1.09-.21-1.8,1.32-1.67,2.49-3.47,3.92-5.04,2.15-2.36,2.55-5.03,2-8.02-.55-2.99-1.6-5.82-2.56-8.69-1.8-5.4-5.24-9.44-9.92-12.6-1.65-1.11-3.08-.62-4.8-.23,1.33,1.35,2.55,2.51,3.69,3.75,2.48,2.7,4.39,5.68,5.12,9.39,1.79,9.12,1.23,17.85-3.89,25.92-.44.7-1.11,1.27-1.32,2.12.59.16,1.16.31,1.72.46.82,1.48-.28,1.42-1.2,1.47-3.96.21-7.93.1-11.87.53-2.87.32-5.61,1.2-8.42,1.78-1.25.26-2.37.05-3.46-.44-5.26-2.39-8.7-8.4-8.15-14.17.15-1.53.21-3.07.38-4.59.8-7.51,2.46-14.85,6.52-21.28,4.82-7.65,11.43-12.73,21.12-12.21.64.03,1.17-.2,1.66-.53,4.99-3.4,9.12-7.48,10.76-13.54.25-.91.62-1.85,1.68-1.75,1.2.11,1.31,1.22,1.34,2.17.05,1.68-.1,3.38.04,5.05.39,4.89-.57,9.46-3.03,13.71-.19.33-.53.62-.17,1.05.35.41.77.45,1.21.24,2.02-.97,4-2.02,5.14-4.08.32-.59.51-1.23,1.37-1,.88.24.9.97.87,1.67-.02.44-.15.88-.23,1.31-.56,2.86-1.65,5.49-3.4,7.84-.24.33-.48.64-.17,1.06.32.44.69.24,1.06.13.19-.06.39-.12.54-.25.67-.56,1.38-.37,1.89.09.63.57.29,1.29-.12,1.88-.37.52-.79,1.02-1.23,1.49-.31.33-.41.61-.22,1.05,1.02,2.39,1.8,4.87,2.46,7.81,1.05-2.03,2.43-3.36,3.02-5.27.84-2.69,1.76-5.45,3.63-7.6,2.04-2.34,2.26-4.72,1.68-7.65-1.26-6.39-2.42-12.76-5.91-18.42-.28-.46-.46-.99-.65-1.5-.39-1.03-.05-1.7,1.08-1.73,1.65-.04,2.63-.98,3.41-2.27.4-.67.64-1.35.15-2.08-.54-.8-1.14-.23-1.7-.05-.45.15-.87.26-1.22-.16-.38-.45-.07-.83.14-1.22.33-.61.74-1.19.95-1.84.32-1,.62-2.25-.36-2.88-1.07-.69-1.75.37-2.34,1.17-.27.36-.61.71-1.12.36-.41-.28-.36-.67-.15-1.05.45-.81.45-1.72.6-2.59.12-.69.2-1.42-.63-1.78-.76-.32-1.19.16-1.64.66-.38.43-.69,1.14-1.38.89-.61-.22-.64-.97-.71-1.55-.21-1.7-.66-3.34-1.63-4.74-2.36-3.44-4.75-6.84-5.44-11.11-.1-.62-.89-1.19-1.24-.39-1.33,2.99-2.73,6.03-1.33,9.41.78,1.87,1.63,3.72,2.5,5.55.36.76.75,1.51-.22,2.04-1.09.59-1.32-.38-1.71-1.05-2.53-4.35-5.65-8.25-9.21-11.79-5.52-5.49-12.17-9.38-19.11-12.68-6.45-3.07-12.11-7.06-17.06-12.18-2.75-2.83-4.96-5.88-5.91-9.77-.42-1.72-1.01-1.9-2.43-.81-2.69,2.05-4.47,4.71-4.49,8.17-.02,5.32.93,10.36,5,14.29.24.23.8.45.47.94-.26.39-.72.24-1.1.14-1.46-.38-2.83-.92-3.71-2.26-.71-1.07-1.43-2.13-2.15-3.2-1.21-2.65-2.32-5.36-2.87-8.23-.27-1.4-.93-2.51-2.1-3.06-3.19-1.49-5.85-3.71-8.54-5.89-4.07-3.3-7.74-6.94-9.72-11.95-.24-.6-.39-1.46-1.33-1.35-.92.11-1.32.82-1.5,1.63-.11.48-.14.97-.17,1.46-.19,2.65.82,4.93,2.15,7.13.81,1.33,1.35,2.76,1.26,4.36-.05.8-.34,1.37-1.27,1.23-1.35-.2-1.23.65-.99,1.45.22.75.59,1.47.93,2.18.24.52.43,1.01-.01,1.51-1.88-.7-2.32-2.54-3.21-4.11-.65.87-.44,1.73-.15,2.57,2.91,8.46,8.92,13.54,17.39,15.93.3.08.74-.08.79.58-1.47.65-3.05.87-4.58.42-4.39-1.27-8.67-2.78-12.2-5.89-2.14-1.88-4.71-3.1-7.51-3.24-8.51-.44-15.6,2.59-20.95,9.33-1.98,2.49-2.62,5.52-3.08,8.56-.25,1.63.38,2.13,1.87,1.68.5-.15.84-.06,1.25.15,2.81,1.48,5.86,1.77,8.95,1.75,1.5-.01,2.93-.41,4.08-1.51.97-.92,2-1.77,3-2.66,1.89-1.69,3.86-3.27,6.25-4.2,1.46-.57,2.95-.85,4.5-.42.37.1.82.24.86.71.03.43-.43.49-.72.63-2.6,1.29-4.86,3.05-7.04,4.93-3.99,3.43-6.97,7.58-8.43,12.68-.59,2.07-1.29,4.18-.86,6.42.13.68.33,1.28,1.2,1.49-.32-3.16.39-6.02,1.53-8.79.3-.74.61-1.48,1.51-1.69.59.36.34.86.2,1.32-1.26,4.14-1.19,8.22.08,12.4,1.74,5.71,5.94,8.53,11.19,10.25,1.65.54,2.77-.42,2.64-2.14-.17-2.18-.04-4.36.04-6.53.11-2.84.84-5.48,2.28-8.03,2.82-4.99,7.15-8.25,11.81-11.24.61-.39,1.24-.61,1.97-.42.87.72.29,1.1-.31,1.56-3.24,2.42-6.05,5.31-8.34,8.61-3.95,5.7-5.26,11.87-2.46,18.53.26.61.41,1.22.37,1.87-.04.81-.49,1.37-1.28,1.36-2.61,0-5.28.36-7.71-.99-.97-.54-1.42-.22-1.79.7-1,2.49-2.58,4.56-4.73,6.17-3.75,2.8-8.01,4.3-12.67,4.54-3.45.18-6.54-.92-9.16-3.21-1.15-1-2.01-2.19-1.89-3.84.51-.13.8.19,1.15.49,1.3,1.09,2.73,1.95,4.39,2.4,6.01,1.62,11.47.35,16.5-3.13,1.26-.87,2.15-2.03,2.8-3.4.95-2.01.62-3.22-1.2-4.43-2.69-1.79-5.35-3.61-7.04-6.49-.17-.28-.48-.61-.77-.66-2.46-.47-3.3-2.28-3.77-4.42-.49-4.64-.35-9.2,1.59-13.56.47-1.06-.11-1.5-1.1-1.5-2.67,0-5.2-.69-7.69-1.52-1.1-.37-2.03-.28-2.8.67-.62.77-1.28.6-1.9-.02-.42-.42-.78-.9-.92-1.5-.21-.96-.89-1.13-1.7-.93-.47.12-.93.33-1.37.56-5.92,3.15-9.76,8.28-13.08,13.85-1.31,2.2-2.75,4.54-2.5,7.2.22,2.33-1.2,3.26-2.66,4.35-.28.21-.61.4-.96.17-.36-.25-.2-.63-.14-.96.44-2.15.42-4.34.44-6.52.02-2.14-.4-4.24-1.01-6.29-.14-.48-.43-.95-1.02-.93-.58.02-.66.51-.68.97-.22,4.38-1.99,8.23-4.1,11.95-.47.83-1,1.45-2.09.54-1.04-.87-2.15-.27-2.25,1.11-.05.69.06,1.39-.02,2.08-.08.7.53,1.63-.28,2.06-.93.5-1.12-.71-1.71-1.06-.13-.07-.24-.18-.36-.26-.93-.68-1.59-.43-1.7.72-.12,1.14.11,2.27.31,3.39.09.48.16.98.14,1.47-.02.64-.29,1.1-1.03.69-.66-.36-1.3-.57-1.85.14-.51.66-.25,1.33.11,1.94.88,1.5,1.99,2.85,3.17,4.11,1.3,1.39,2.72,2.63,4.91,2.18.57-.12,1.24-.06.9.96-1.05,3.11-1.47,6.35-2.08,9.56-.72,3.76-.77,7.48-.25,11.23.56,4.05,2.16,7.37,6,9.5,3.9,2.17,7.39,4.99,10.47,8.26.12.13.3.22.52.37-.18-1.57-.48-3.03-.48-4.48,0-1.79.12-3.53-1.69-4.65-.3-.19-.49-.63-.64-.98-.3-.72-.86-1.57-.28-2.22.52-.59,1.28.08,1.93.24.19.05.37.15.56.18.38.07.81.56,1.11-.14.21-.49.05-.8-.3-1.18-2.24-2.39-3.67-5.26-4.79-8.3-.36-.98-.6-2-.42-3.06.1-.61.38-1.17,1.05-1.3.63-.12.81.44,1.07.85,1.18,1.86,2.9,3.09,4.82,4.08.4.21.84.46,1.09-.18.14-.36.63-.67.07-1.14-3.21-2.71-4.75-6.36-5.73-10.33-.48-1.94-.73-3.89-.89-5.87-.08-.9.44-1.62,1.17-1.91.79-.32.96.57,1.3,1.08,1.84,2.68,3.36,5.66,6.43,7.25,3.23,1.66,6.62,2.37,10.14,1.21,4.3-1.41,8.61-1.8,12.77.12,6.41,2.95,12.18,6.85,16.45,12.63,5.19,7.01,8.71,14.63,8.54,23.59-.03,1.5-.02,2.97-.97,4.27-1.29,1.77-2.62,3.5-4.24,4.97-2.77,2.53-5.82,4.39-9.78,4.24-1.69-.07-3.36.2-5,.64-2.73.73-5.46,1.43-8.19,2.13-.76.2-1.49.27-1.91-.61.36-.69,1.03-1.01,1.74-1.4-7.64-5.01-11.82-12.08-12.59-21.05-.77-8.95,2.42-16.55,8.69-22.96-3.18-1.13-4.53-1.33-5.78-.76-2.93,1.34-5.24,3.33-6.68,6.28-2.75,5.64-3.62,11.58-3.04,17.78.47,4.97,2.42,9.23,6.01,12.76,1.41,1.39,2.62,2.97,3.94,4.45.51.57.58,1.12.04,1.7-.99.07-1.89-.22-2.63-.84-2.51-2.09-5.18-4-7.46-6.36-7.47-7.71-15.19-15.02-25.23-19.5-6.02-2.68-12.08-4.25-18.59-3.16-2.96.49-5.7,1.77-6.9,4.95-.28.75-.54,1.54.1,2.23.69.75,1.47.27,2.21.06.55-.15,1.16-.59,1.55.19.35.71-.31.96-.71,1.27-3.25,2.54-5.84,5.68-7.87,9.22-1.83,3.2-2.55,6.65-.75,10.21.64,1.27,1.46,1.39,2.32.22.67-.91.77-2.02.91-3.1.2-1.54.56-3.03,1.37-4.36.49-.82,1.23-1.16,2.15-.68.94.49.38,1.15.15,1.78-2.35,6.39-3.92,12.89-3.01,19.77,1.13,8.56,5.03,15.61,12.3,20.28,5.8,3.72,12.44,4.98,19.36,4.51,3.23-.22,6.37-.86,9.42-1.93.45-.16.78-.15,1.04.22.33.49-.11.72-.41.95-1.07.8-2.1,1.64-3.29,2.28-2.83,1.53-3.18,3.28-1.02,5.67,1.74,1.93,3.91,3.34,6.17,4.61,2.82,1.59,5.84,2.08,9.04,1.76.69-.07,1.86-.65,1.98-.06.18.9-1.07,1.07-1.79,1.37-5.87,2.47-13.76.52-18.31-4.57-1.58-1.77-2.95-3.73-4.45-5.58-.49-.6-.89-1.45-1.8-1.41-2.92.14-5.69-.75-8.53-1.11-6.54-.83-11.99-3.6-16.07-8.89-.42-.54-.94-1.01-1.45-1.49-.71-.67-1.49-.81-2.46-.48-1.37.47-2.73,1.01-3.85,1.89-4.57,3.57-9.66,6.49-13.89,10.45-8.45,7.91-15.56,16.91-20.87,27.24-.94,1.83-2.15,3.41-3.54,4.92-2.07,2.24-4.82,3.69-6.87,5.89-2.2,2.36-2.21,4.04.82,5.33,2.52,1.07,5.02.93,7.55.13,1.15-.36,1.67-.02,1.53,1.18-.12,1-.5,2.01-1.21,2.67-2.68,2.46-4.02,5.74-5.53,8.9-1.3,2.72-.94,4.17,1.52,5.87,1.84,1.27,3.68,1.4,4.13-1.58.12-.83.35-1.65.6-2.45.12-.4.2-1.08.69-1.01.63.09.45.76.44,1.24-.11,3.18.18,6.34.55,9.5.63,5.49,2.53,10.47,6.07,14.77,2.4,2.92,5.49,4.13,9.12,3.08,5.62-1.62,11.33-1.81,17.1-1.68,1.44.03,2.86.27,4.19.89.67.31,1.35.81,1.19,1.53-.17.79-1,.19-1.52.3-.23.05-.49-.04-.74-.05-8.4-.25-16.46.67-23.81,5.37-4.86,3.11-7.96,7.06-8.72,12.87-.68,5.21,2.08,9.51,7.16,10.71,2.43.57,4.12-.84,3.91-3.27-.32-3.66.81-6.84,3.14-9.63.62-.74,1.34-1.34,2.33-1.47,1-.13,1.38.39.92,1.3-1.37,2.74-1.77,5.64-1.64,8.66.23,5.49,6.55,10.3,11.96,9.1,2.01-.45,2.64-1.42,1.91-3.31-.59-1.53-.75-3.06-.69-4.66.03-.86.01-1.94.93-2.14.9-.2,1.12.9,1.48,1.56,1.8,3.35,4.06,6.08,7.88,7.39,3.88,1.33,7.84,1.37,11.57.28,5.15-1.51,8.79-5.08,10.43-10.35.44-1.42.29-2.77-1.02-3.87-1.82-1.53-3.54-3.18-5.27-4.81-.43-.4-.78-.89-1.09-1.39-.34-.56-.33-1.16.19-1.62.55-.49,1.11-.29,1.61.13.87.73,1.67,1.56,2.6,2.21,4.03,2.83,8.6,3.95,13.45,4.09,1.41.04,2.58-.93,2.74-2.37.09-.83.02-1.68-.08-2.52-.36-3.27-1.58-6.34-2.33-9.52-.95-4.07-1.82-8.12-1.01-12.34.4-2.09.69-4.21,1.34-6.24.28-.88.1-1.37-.65-1.84-1.22-.77-2.34-1.73-3.16-2.9-.87-1.25-1.87-1.57-3.38-1.47-4.8.31-9.95-3.41-11.22-7.92-.12-.43-.52-1.03.03-1.36.52-.31.71.37,1.01.64,1.72,1.56,3.64,2.73,5.96,3.15,2.13.38,2.75-.32,2.03-2.43-.58-1.69-1.14-3.38-1.37-5.16-.1-.79-.18-1.6.21-2.33.22-.42.47-.98,1.04-.93.59.05.5.67.6,1.07.91,3.58,2.6,6.74,5.11,9.44,2.76,2.98,5.32,6.17,8.89,8.28.82.49,1.13,1.06.59,2.06-.71,1.3-1.27,2.68-1.78,4.07-1.06,2.9-2.57,5.64-2.16,8.98.5,4.13,1.75,8.02,3.14,11.89,1.56,4.34,3.08,8.69,3.14,13.39,0,.43.17.87.26,1.3.73,3.26,2.39,6.18,3.49,9.29,2.09,5.91,5.73,10.37,10.86,13.88,2.77,1.89,5.81,2.32,8.95,2.83,3.87.64,7.16-.46,10.03-2.98,2.71-2.38,3.73-7.81,1.74-10.5-1.89-2.56-4.16-4.82-7.75-4.84-.88,0-1.46-.65-1.82-1.34-.33-.63.08-1.25.5-1.76.73-.89,1.67-1.54,2.62-2.17,1.27-.85,2.5-.81,3.71.14,1.37,1.08,2.63,2.28,3.71,3.64,3.49,4.39,5.39,9.1,3.1,14.75-.59,1.45-.03,2.46,1.34,3.2.75.4,1.56.62,2.41.72,2.32.29,4.66.28,6.98.22,4.13-.11,7.8-1.92,11.31-3.79,3.5-1.86,3.82-5.53,3.54-9.01-.22-2.84-1.12-5.47-3.91-7.14-.89-.53-2.17-1.27-2.28-2.57-.12-1.49,1.04-2.27,2.19-2.91,1.04-.58,1.84,0,2.48.73,4.6,5.19,6.84,10.97,4.52,17.92-.66,1.98-.04,2.78,2.07,2.85,1.06.03,2.06-.24,3-.73,2.51-1.3,3.96-3.34,4.42-6.13,1.02-6.2-1.3-11.24-5.38-15.69-3.15-3.43-7.14-6.09-9.24-10.48-.67-1.41-1.89-2.54-3.02-3.66-.39-.39-.68-.78-.77-1.38-.5-3.25-1.57-6.35-2.88-9.35-2.28-5.26-4.99-10.17-10.83-12.35-.91-.34-1.84-.97-1.48-2.23.33-1.19,2.33-2.35,3.6-2.15.65.1,1.2.43,1.76.77,1.11.69,1.94,1.69,2.92,2.53,1.28,1.1,2.98.9,3.83-.52.76-1.27,1.53-2.6,1.67-4.1.42-4.35-.87-8.02-4.59-10.59-.5-.35-1.08-.63-.74-1.38.32-.71.95-.82,1.63-.65.43.1.85.27,1.27.41,3.21,2.23,4.48,5.73,5.59,9.18,1.19,3.71-.11,7.16-2.16,10.27-2.3,3.5-1.08,6.68.94,9.46.8,1.11,1.95,1.5,3.28.8.38-.2.69-.49,1.17-.05,3.49,3.1,7.79,3.73,12.12,3.24,5.02-.57,9.5-2.46,11.74-7.59.49-1.11.69-2.17-.23-3.18-.15-.17-.41-.35-.29-.62.15-.33.47-.27.77-.25,1.53.1,3.07.32,4.59.25,5.08-.23,9.58-1.85,13.11-5.7.63-.68.92-1.67,1.85-2.07,1.38.45,1.32,1.33.82,2.46-.71,1.62-.21,2.37,1.53,2.67,1.04.18,1.99-.02,2.88-.47,5.92-3.02,10.3-7.31,11.65-14.12.14-.7-.03-2,.92-1.92,1.17.1.78,1.34.79,2.2.03,2.11.98,2.76,2.98,1.97,1.39-.55,2.52-1.56,3.73-2.41,6.3-4.39,9.88-13.37,6.05-20.53-.18-.35-.94-.74-.22-1.22.55-.37.9.19,1.26.49,1.16.98,2.7.91,3.66-.18,2.99-3.42,1.19-9.43-3.19-10.62-1.92-.52-2.91.14-3.19,2.12-.22,1.55-.16,3.22-1.74,4.22-.48.31-.24.81-.21,1.23.23,2.55-.21,4.9-1.73,7.04-.66.93-1.07.84-1.61,0ZM250.44,313.06c1.19.05,2.37.12,3.56.14.64.01,1.61.56,1.85-.16.26-.77-.43-1.56-1.15-2.08-.4-.29-.86-.51-1.25-.81-1.41-1.09-1.91-2.6-1.94-4.3,0-.32-.04-.76.4-.86.36-.09.47.28.66.5.68.8,1.38,1.78,2.38,1.94,2.54.41,3.41,2.29,4.32,4.26.29.62.7,1.2,1.1,1.77,2.17,3.11,4.16,6.1,4.79,10.14.86,5.51,4.18,9.99,8.51,13.58,4.6,3.82,9.78,5.3,15.67,3.64,3.02-.85,5.02-2.72,6.32-5.58,1.1-2.43.32-4.79.08-7.15-.3-2.98-1.65-5.49-4.15-7.25-.93-.66-1.21-1.37-.65-2.38.55-.99,1.31-1.43,2.46-1.09,1.57.47,2.87,1.28,3.82,2.66,3.41,4.99,4.04,10.49,2.62,16.2-.67,2.7-.03,4.02,2.69,5.17.72.3,1.52.43,2.3.55,4.93.72,9.23-.46,13.46-3.28,7.24-4.82,6.91-16.28-.24-21.02-.54-.36-1.09-.72-1.76-.73-1.16-.02-1.92-.56-2.06-1.72-.14-1.18.32-2.14,1.42-2.7,1.32-.67,2.62-.48,3.82.27,5.27,3.28,7.94,8,7.77,14.25-.04,1.53-.18,3.06-.29,4.59-.07.91.34,1.53,1.12,1.91.83.4,1.43-.1,1.98-.6,1.08-1,1.82-2.22,2.21-3.64.98-3.58.8-7.12-.27-10.68-2.17-7.24-9.96-13.63-17.49-14.16-.96-.07-1.29-.3-1.16-1.33.36-2.76.35-5.52.09-8.3-.46-4.98-2.35-9.5-4.22-14.02-1.03-2.48-2.64-4.66-4.51-6.59-1.55-1.61-2.8-1.86-4.17-.87-1.35.98-2.82,1.71-4.41,2.08-3.47.81-6.12,2.71-8.08,5.63-2.12,3.16-5.28,4.71-8.81,5.61-2.23.56-4.51.68-6.72-.24-.68-.28-1.22-.08-1.82.22-3.47,1.73-7,3.25-11,3.09-.52-.02-.86.19-1.08.62-1.54,2.99-4.14,5.01-6.6,7.16-.99.87-2.13,1.43-3.37,1.83-4.26,1.36-8.56,1.51-12.9.42-1.59-.4-3.11-.99-4.62-1.61-1.44-.59-2.21.03-2,1.57.03.24.09.49.16.72,1.68,5.18,4.81,9.4,8.74,13.07.77.72,1.67,1.01,2.85.84,3.18-.45,6.3-1.45,9.56-1.28ZM206.15,146.81c.22-.02.67-.02,1.1-.12,2.36-.54,3.09-2.49,1.66-4.36-1.12-1.47-2.58-2.58-3.96-3.77-2.18-1.89-2.51-1.8-3.57.9-.04.09-.1.17-.13.26-1.17,3.26,1.45,7.24,4.91,7.09ZM277.02,136.88c-.13,1.24.46,1.83,1.63,2.08,2.04.42,3.62-.34,4.84-1.87,1.16-1.45,1.43-4.78.62-6.08-.89-1.43-2.75-2.05-3.63-1.02-1.71,1.99-3.19,4.17-3.46,6.9Z"/>
      <path class="cls-4" d="M85.27,299.35c-.9-.75-1.64-.43-2.3.35-3.17,3.78-8.59,3.81-12.15,2.21-2.34-1.05-3.16-2.97-2.37-5.02.31-.81.95-1.08,1.61-1.41.64-.32,1.71-.56,1.48-1.39-.3-1.07-1.38-.47-2.06-.33-2.92.61-5.81,1.29-8.83.76-4.64-.82-8.44-3.05-11.3-6.79-.92-1.2-1.27-2.69-1.55-4.14-.2-1.05.22-1.82,1.49-1.89.83-.04,1.69.01,2.47-.4.37-.2.68-.45.64-.9-.04-.44-.38-.71-.78-.8-.48-.11-.98-.14-1.47-.19-7.65-.84-13.87-4.13-19.19-9.85-5.99-6.44-9.05-14.24-11.84-22.24-3.64-10.44-3.23-21.03-.61-31.63,2.18-8.79,5.29-17.22,9.62-25.18.34-.63.08-.98-.16-1.46-2.33-4.76-2.81-9.76-1.77-14.91.32-1.57.95-3.03,2.01-4.26,1.15-1.33,2.44-1.22,3.36.25.4.64.69,1.31.89,2.03.14.53.21,1.1.48,1.56.42.73.72,2.01,1.74,1.69,1.24-.39.47-1.47.21-2.27-2.27-6.94-1.18-13.38,2.86-19.4,1.16-1.73,2.33-3.41,3.95-4.79,1.8-1.53,3.89-2.06,6.09-1.78,6.64.85,13.01,2.59,18.61,6.49,1.71,1.19,3.37,2.46,4.76,4.02,1.01,1.14.88,1.59-.36,2.41-.91.6-1.76,1.3-2.29,2.29-.18.32-.49.7-.08,1.07.34.3.75.26,1.11.06.3-.16.56-.4.85-.59,9.24-6.2,19.18-9.67,30.46-7.71,3.44.6,6.58,2.13,9.68,3.7.43.22.87.93,1.38.26.4-.52.22-1.17-.21-1.65-.89-1.01-1.91-1.87-3.09-2.53-.56-.32-1.14-.61-1.72-.88-1.04-.49-2.06-1.13-1.77-2.4.28-1.25,1.55-1.53,2.63-1.53,3.36,0,6.36,1.04,8.54,3.75,1.1,1.36,1.16,2.89.36,4.45-1.19,2.31-1.96,4.77-2.28,7.34-.33,2.63-.01,5.22,1.51,7.42,1.84,2.66,2.87,5.42,2.7,8.71-.16,3.17.88,6.15,2.02,9.08,1,2.56.73,3.42-1.53,5.03-8.44,6.03-16.61,12.36-23.91,19.77-4.4,4.46-7.7,9.67-10.94,14.95-1.97,3.2-4.02,6.36-6.09,9.51-1.98,3-4.83,5.22-7.25,7.82-1.51,1.63-3.23,3.09-3.37,5.57-.05.88.13,1.51.81,2.08,2.2,1.83,4.69,3.13,7.33,4.16,1.1.43,1.2.78.52,1.78-2.55,3.74-4.45,7.71-4.2,12.43.07,1.37.65,2.09,1.86,2.5,1.22.41,2.53.44,3.72,1,.74.35,1.42.72,1.67,1.57,2.03,6.98,5.19,13.47,8.61,19.85-.83.29-1.68.42-2.56.41Z"/>
      <path class="cls-4" d="M318.75,300.27c-1.46-.37-2.05-1.36-2.14-2.81-.53-9.38-4.26-17.6-9.33-25.3-.31-.48-.85-.82-1.31-1.18-1.24-.96-1.38-1.57-.47-2.86.97-1.37,2.15-2.58,2.92-4.1,1.41-2.83,2.13-5.85,2.48-8.96.23-2.07.88-3.87,2.1-5.6,3.86-5.5,2.84-11.02-2.71-15.11-.95-.7-1.55-1.2-.77-2.45.61-.99.25-2.12-.16-3.15-.27-.69-.59-1.35-.89-2.03,1.45.06,2.9.11,4.34.17.09.91.76,1.1,1.49,1.13,3.15.13,6.02,1.21,8.76,2.61,5.06,2.58,9.5,6.08,13.86,9.66,1.88,1.54,3.62,3.25,5.85,4.3.64.3.87.77.98,1.36.33,1.81-1.76,4.78-3.58,5.1-.63.11-1.14-.08-1.66-.45-1.09-.77-2.22-1.49-3.35-2.2-.93-.58-1.92-1.05-3.04-1.09-.49-.02-1.07,0-1.18.62-.09.5.28.8.74.98,1.25.5,2.38,1.24,3.47,2,4.06,2.83,6.29,6.73,6.68,11.68.06.82-.17,1.52-.97,1.81-.92.34-1.54-.24-1.94-.96-.45-.79-1.01-1.47-1.64-2.1-.26-.26-.6-.67-1.01-.34-.39.31-.15.73.04,1.08,1.94,3.56,1.55,7.39.7,11.02-1.48,6.27-4.19,12.05-8.23,17.14-2.01,2.54-4.3,4.78-6.79,6.85-.56.46-1.46.93-.56,1.88-.98.24-2.03.35-2.66,1.29Z"/>
      <path class="cls-12" d="M321.41,298.97c-.9-.95,0-1.41.56-1.88,2.48-2.07,4.77-4.31,6.79-6.85,4.04-5.1,6.76-10.88,8.23-17.14.86-3.63,1.24-7.46-.7-11.02-.19-.35-.44-.77-.04-1.08.42-.33.75.08,1.01.34.63.63,1.19,1.31,1.64,2.1.41.72,1.02,1.29,1.94.96.8-.29,1.04-1,.97-1.81-.39-4.94-2.62-8.84-6.68-11.68-1.09-.76-2.22-1.5-3.47-2-.45-.18-.83-.48-.74-.98.11-.62.69-.64,1.18-.62,1.12.03,2.11.5,3.04,1.09,1.13.71,2.26,1.43,3.35,2.2.52.37,1.03.56,1.66.45,1.82-.32,3.91-3.29,3.58-5.1-.11-.6-.35-1.07-.98-1.36-2.22-1.05-3.97-2.75-5.85-4.3-4.36-3.58-8.81-7.08-13.86-9.66-2.75-1.4-5.62-2.49-8.76-2.61-.72-.03-1.4-.22-1.49-1.13.37-.99,1.23-.84,2.01-.84,6.3.05,11.77,2.47,16.76,6.08,3.73,2.7,7.36,5.55,11.04,8.32.63.48,1.28.94,1.95,1.35,2.28,1.37,2.98,2.95,2.29,5.5-.6,2.21-1.73,4.12-3.54,5.54-.93.73-1.08,1.37-.36,2.36,2.11,2.86,2.53,6.19,2.44,9.61-.05,1.94-1.12,3.26-3.01,3.77-1.11.3-1.6.93-1.77,2.07-1.33,9.13-5.5,16.98-11.11,24.15-1.53,1.95-3.77,3.04-5.8,4.35-.74.48-1.54.03-2.3-.18Z"/>
      <path class="cls-3" d="M185.91,108.39c-.12,1.65.74,2.84,1.89,3.84,2.61,2.29,5.7,3.39,9.16,3.21,4.66-.24,8.91-1.74,12.67-4.54,2.15-1.6,3.73-3.68,4.73-6.17.37-.92.83-1.24,1.79-.7,2.43,1.34,5.1.98,7.71.99.79,0,1.24-.55,1.28-1.36.03-.65-.12-1.26-.37-1.87-2.8-6.65-1.48-12.82,2.46-18.53,2.28-3.3,5.1-6.18,8.34-8.61.61-.45,1.18-.84.31-1.56,2.06-2.72,1.73-3.99-1.44-5.52-1.11-.54-2.22-1.04-3.43-1.34-4.05-1-8.11-.86-12.18-.26-.27-.14-.55-.2-.86-.11-3.44,1.01-6.16,3.07-8.39,5.82-.19.23-.27.53-.17.84-1.84,1.2-2.91,2.99-3.73,4.97-.9.21-1.21.95-1.51,1.69-1.14,2.77-1.85,5.63-1.53,8.79-.87-.21-1.07-.81-1.2-1.49-.43-2.24.27-4.35.86-6.42,1.46-5.1,4.44-9.25,8.43-12.68,2.18-1.87,4.44-3.64,7.04-4.93.29-.14.75-.2.72-.63-.04-.47-.49-.61-.86-.71-1.55-.44-3.04-.15-4.5.42-2.4.94-4.36,2.51-6.25,4.2-1,.89-2.03,1.74-3,2.66-1.15,1.1-2.58,1.5-4.08,1.51-3.09.03-6.14-.27-8.95-1.75-.4-.21-.75-.31-1.25-.15-1.49.46-2.12-.05-1.87-1.68.46-3.04,1.1-6.07,3.08-8.56,5.36-6.74,12.44-9.77,20.95-9.33,2.8.15,5.38,1.36,7.51,3.24,3.52,3.11,7.81,4.63,12.2,5.89,1.53.44,3.11.23,4.58-.42-.05-.65-.49-.49-.79-.58-8.47-2.39-14.48-7.47-17.39-15.93-.29-.84-.5-1.7.15-2.57.89,1.57,1.33,3.41,3.21,4.11-.02.93.94,1.31,1.17,2.1.11,1.12,2.45,3.73,3.61,3.98.21.04.46-.1.69-.16.66.19,1.19.59,1.67,1.05.25,1.38.98,1.82,2.24,1.33,3.56,2.27,7.41,3.57,11.67,3.37,1.44-.07,2.68-.57,3.12-2.16.72,1.07,1.44,2.13,2.15,3.2.89,1.34,2.25,1.88,3.71,2.26.38.1.84.25,1.1-.14.33-.49-.23-.7-.47-.94-4.07-3.93-5.02-8.97-5-14.29.01-3.46,1.79-6.12,4.49-8.17,1.42-1.08,2.01-.91,2.43.81.95,3.89,3.17,6.94,5.91,9.77,4.96,5.12,10.61,9.1,17.06,12.18,6.94,3.31,13.58,7.2,19.11,12.68,3.56,3.54,6.69,7.43,9.21,11.79.39.67.62,1.64,1.71,1.05.97-.53.58-1.28.22-2.04-.86-1.84-1.72-3.68-2.5-5.55-1.41-3.38,0-6.43,1.33-9.41.35-.8,1.14-.23,1.24.39.68,4.27,3.07,7.67,5.44,11.11.96,1.4,1.42,3.04,1.63,4.74.07.57.1,1.32.71,1.55.68.25,1-.47,1.38-.89.44-.5.88-.99,1.64-.66.84.36.76,1.1.63,1.78-.15.87-.16,1.78-.6,2.59-.21.38-.26.77.15,1.05.51.35.84,0,1.12-.36.6-.8,1.27-1.86,2.34-1.17.98.63.69,1.88.36,2.88-.21.65-.62,1.23-.95,1.84-.21.39-.52.77-.14,1.22.35.42.78.31,1.22.16.57-.19,1.16-.76,1.7.05.49.73.25,1.41-.15,2.08-.78,1.3-1.76,2.23-3.41,2.27-1.12.03-1.46.7-1.08,1.73.19.51.37,1.04.65,1.5,3.49,5.66,4.65,12.04,5.91,18.42.58,2.94.36,5.32-1.68,7.65-1.87,2.14-2.79,4.9-3.63,7.6-.6,1.9-1.97,3.24-3.02,5.27-.66-2.94-1.45-5.41-2.46-7.81-.19-.44-.08-.73.22-1.05.44-.47.86-.96,1.23-1.49.41-.59.76-1.31.12-1.88-.51-.46-1.22-.65-1.89-.09-.15.12-.35.19-.54.25-.37.12-.74.32-1.06-.13-.31-.43-.07-.74.17-1.06,1.74-2.35,2.84-4.98,3.4-7.84.08-.44.21-.87.23-1.31.04-.71.02-1.43-.87-1.67-.86-.23-1.05.41-1.37,1-1.14,2.06-3.12,3.11-5.14,4.08-.43.21-.86.16-1.21-.24-.37-.43-.02-.72.17-1.05,2.46-4.25,3.42-8.81,3.03-13.71-.13-1.67.02-3.37-.04-5.05-.03-.95-.14-2.07-1.34-2.17-1.06-.09-1.44.85-1.68,1.75-1.64,6.06-5.77,10.14-10.76,13.54-.5.34-1.02.57-1.66.53-9.69-.53-16.3,4.55-21.12,12.21-4.05,6.43-5.71,13.77-6.52,21.28-.16,1.53-.23,3.06-.38,4.59-.55,5.77,2.89,11.78,8.15,14.17,1.09.49,2.21.7,3.46.44,2.81-.58,5.56-1.46,8.42-1.78,3.95-.44,7.92-.33,11.87-.53.92-.05,2.02.02,1.2-1.47,1.25-.69,2.62-1.23,3.73-2.1,1.05-.82,2.27-1.64,2.51-3.16.23-.06.51-.05.69-.18,4.62-3.11,8.72-6.76,11.16-11.88.93-1.94,1.28-4.15,2.02-6.2,1.54-4.25,3.18-8.46,6.27-11.89,3.4-3.77,7.15-7.03,12.31-8.13,4.7-1.01,9.25-.64,13.61,1.54,1.51.76,2.42,2.02,3.1,3.48.26.55.29,1.2-.14,1.69-.47.52-.89-.08-1.33-.2-.84-.22-2.09-1.03-2.42-.31-.39.84,1.08.95,1.73,1.36,5.67,3.53,9.36,8.44,10.59,15.07.13.68.14,1.38.11,2.07-.04.78-.19,1.56-.42,2.42-1.17-2.88-3.23-5.05-5.34-7.2-.77-.78-1.54-1.55-2.57-1.99-.27-.11-.59-.32-.83-.1-.34.32-.02.66.17.91,1.06,1.43,2.11,2.87,3.23,4.26,1.21,1.49,1.96,3.18,2.61,4.97,2.62,7.3,2.62,14.78.81,22.13-2.37,9.6-8.47,16.31-17.7,20.01-3.96,1.59-8.02,2.92-12.39,2.71-.56-.03-1.05.14-1.16.69-.13.65.47.8.94.92.92.24,1.87.19,2.81.14,1.7-.09,2.08.42,1.67,2.1-.67,2.72-2.48,4.46-4.87,5.67-1.92.97-3.97,1.53-6.12,1.74-1.13.11-1.89.36-2.04,1.9-.38,3.95-4.25,5.89-8.04,4.07-1.45-.7-1.87-.32-2.51.98-3.42,6.96-9.14,10.99-16.62,12.66-.43.1-.86.18-1.3.28-.1-.85.1-1.63.41-2.44.51-1.32,1.35-2.52,1.51-3.98,5.77-2.26,9.1-6.42,9.7-12.64.12-1.2.68-2.13,1.46-3,2.2-2.45,3.49-5.37,4.3-8.51.53-2.07-.41-3.59-2.34-4.01-.42-.37-.84-.74-1.26-1.1.38-.31.75-.64,1.14-.94,3.2-2.39,6.25-4.91,7.77-8.79.19-.49.61-.62,1.01-.8,6.47-3.03,12.34-6.96,17.54-11.85,3.24-3.05,6.55-6.09,8.43-10.28.95-2.12,1.05-2.14,3.05-.85.91.59,1.79,1.25,2.81,1.66.81.32,1.65.59,2.33-.2.74-.87.24-1.68-.28-2.43-.51-.74-1.11-1.42-1.89-1.88-2.27-1.32-4.64-2.45-7.23-3.05-.97-.22-1.97-.24-2.96-.11-2.36.29-4.42,1.4-6.45,2.53-.51.29-1.05.8-.78,1.45.25.59.95.67,1.55.6.49-.06.96-.28,1.44-.34,1.32-.16,2.96-.59,3.71.71.74,1.27.03,2.71-.74,4.01-1.12,1.87-2.77,3.21-4.24,4.74-7.28,7.62-16.41,12.15-26.07,15.81-.69.26-1.44.38-2.16.55-4.98,1.19-9.99,1.83-15.16,1.64-5.13-.19-10.16-.7-15.12-2.05-5.58-1.52-11.03-3.46-16.79-4.44-5.13-.87-10.18-.74-15.23.09-7.29,1.19-14.11,3.7-20.61,7.31-5.13,2.85-10.35,5.59-16.08,7.26-8.06,2.35-16.24,2.9-24.42,1.49-6.77-1.17-13.54-2.54-20.08-4.77-4.71-1.61-8.61-4.43-11.62-8.41-.53-.71-1.18-1.57-.56-2.57.61-.99,1.65-1.07,2.65-.95,1.37.16,2.73.43,4.09.72.5.11.88.09,1.14-.38.25-.43.23-.89-.11-1.24-.31-.31-.68-.57-1.07-.79-5.97-3.3-12.14-3.22-18.38-.96-1.41.51-2.9,1.17-3.44,2.83-.25.76-.38,1.58.22,2.25.58.64,1.31.54,2.07.32.86-.25,1.69-.56,2.44-1.06.79-.52,1.64-.92,2.55-1.19.92-.27,1.48-.09,2.02.86,2.85,5.03,6.61,9.12,12.07,11.44,2.46,1.05,4.92,2.09,7.45,2.98,4.26,1.49,8.67,2.42,12.98,3.73-1.46,2.66-1.23,5.54-1.11,8.4-2.84,2.81-2.88,5.92-.06,8.66,1.38,1.34,2.84,2.6,4.26,3.91,1.28,1.18,2.15,2.57,2.1,4.39-.03.82.27,1.54.63,2.25-1.1,1.84-1.06,3.81-.19,5.64.58,1.24.38,2.01-.57,2.81-1.21,1.03-1.95,2.33-2.14,3.93-1.62,1.49-2.41,3.35-2.28,5.54.08,1.37.18,2.76.46,4.11,1.09,5.25,4.72,7.65,9.7,4.16.04-.03.09-.04.14-.06.06,1.24.32,2.45.77,3.59,1.06,2.65,3.08,4.71,6.12,4.26.12,1.67.08,3.37.54,5,.86,3.06,2.99,5.49,6.67,3,1.27-.86,2.61-1.61,3.72-2.68.92-.89,1.67-.92,2.6.1,3.11,3.42,8,4.2,12.02,2.02.39,1.57,1.6,2.9,1.33,4.65-.42-.14-.84-.31-1.27-.41-.68-.16-1.31-.06-1.63.65-.34.75.24,1.03.74,1.38,3.72,2.57,5.01,6.23,4.59,10.59-.14,1.5-.91,2.83-1.67,4.1-.85,1.42-2.55,1.62-3.83.52-.97-.84-1.81-1.84-2.92-2.53-.55-.34-1.11-.67-1.76-.77-1.27-.2-3.27.96-3.6,2.15-.35,1.27.58,1.89,1.48,2.23,5.84,2.19,8.54,7.1,10.83,12.35,1.3,3,2.37,6.1,2.88,9.35.09.59.38.99.77,1.38,1.13,1.12,2.35,2.24,3.02,3.66,2.09,4.39,6.09,7.05,9.24,10.48,4.08,4.45,6.4,9.49,5.38,15.69-.46,2.79-1.91,4.83-4.42,6.13-.94.49-1.94.76-3,.73-2.11-.07-2.73-.87-2.07-2.85,2.32-6.95.08-12.73-4.52-17.92-.64-.73-1.44-1.31-2.48-.73-1.15.64-2.31,1.42-2.19,2.91.1,1.3,1.39,2.04,2.28,2.57,2.78,1.66,3.68,4.3,3.91,7.14.27,3.48-.04,7.15-3.54,9.01-3.51,1.87-7.17,3.68-11.31,3.79-2.33.06-4.66.07-6.98-.22-.85-.11-1.65-.32-2.41-.72-1.36-.73-1.92-1.75-1.34-3.2,2.29-5.64.39-10.36-3.1-14.75-1.08-1.36-2.34-2.56-3.71-3.64-1.2-.95-2.44-.99-3.71-.14-.95.63-1.89,1.28-2.62,2.17-.42.51-.82,1.13-.5,1.76.36.7.94,1.34,1.82,1.34,3.59.01,5.86,2.28,7.75,4.84,1.99,2.7.97,8.12-1.74,10.5-2.87,2.52-6.15,3.62-10.03,2.98-3.13-.52-6.17-.94-8.95-2.83-5.14-3.51-8.77-7.97-10.86-13.88-1.1-3.11-2.77-6.02-3.49-9.29-.1-.43-.26-.87-.26-1.3-.07-4.7-1.58-9.05-3.14-13.39-1.39-3.87-2.64-7.75-3.14-11.89-.4-3.34,1.11-6.07,2.16-8.98.51-1.39,1.07-2.78,1.78-4.07.55-1,.24-1.58-.59-2.06-3.57-2.11-6.13-5.3-8.89-8.28-2.51-2.7-4.2-5.86-5.11-9.44-.1-.4-.02-1.02-.6-1.07-.57-.05-.82.51-1.04.93-.39.74-.31,1.54-.21,2.33.23,1.78.8,3.47,1.37,5.16.72,2.1.1,2.8-2.03,2.43-2.32-.41-4.24-1.59-5.96-3.15-.29-.27-.49-.95-1.01-.64-.55.33-.15.92-.03,1.36,1.27,4.51,6.41,8.23,11.22,7.92,1.51-.1,2.51.22,3.38,1.47.82,1.17,1.94,2.13,3.16,2.9.75.47.93.97.65,1.84-.65,2.03-.94,4.15-1.34,6.24-.81,4.22.06,8.27,1.01,12.34.75,3.18,1.96,6.25,2.33,9.52.09.83.17,1.69.08,2.52-.16,1.44-1.33,2.42-2.74,2.37-4.85-.15-9.42-1.27-13.45-4.09-.93-.65-1.73-1.48-2.6-2.21-.5-.42-1.05-.62-1.61-.13-.52.46-.53,1.07-.19,1.62.31.5.66.99,1.09,1.39,1.73,1.63,3.45,3.28,5.27,4.81,1.31,1.1,1.46,2.45,1.02,3.87-1.64,5.27-5.28,8.84-10.43,10.35-3.72,1.09-7.69,1.04-11.57-.28-3.82-1.31-6.09-4.04-7.88-7.39-.36-.66-.58-1.76-1.48-1.56-.92.2-.9,1.28-.93,2.14-.06,1.6.1,3.13.69,4.66.73,1.88.1,2.86-1.91,3.31-5.41,1.21-11.73-3.61-11.96-9.1-.13-3.02.27-5.93,1.64-8.66.45-.91.08-1.44-.92-1.3-.98.13-1.71.74-2.33,1.47-2.33,2.79-3.46,5.97-3.14,9.63.22,2.43-1.48,3.84-3.91,3.27-5.08-1.2-7.84-5.5-7.16-10.71.76-5.81,3.86-9.76,8.72-12.87,7.35-4.71,15.41-5.63,23.81-5.37.25,0,.51.1.74.05.52-.11,1.35.49,1.52-.3.15-.71-.52-1.22-1.19-1.53-1.33-.61-2.75-.85-4.19-.89-5.76-.14-11.48.06-17.1,1.68-3.63,1.05-6.72-.16-9.12-3.08-3.53-4.3-5.43-9.28-6.07-14.77-.36-3.15-.65-6.31-.55-9.5.02-.48.19-1.15-.44-1.24-.5-.07-.57.61-.69,1.01-.25.8-.47,1.62-.6,2.45-.45,2.98-2.29,2.85-4.13,1.58-2.45-1.69-2.82-3.15-1.52-5.87,1.51-3.16,2.85-6.43,5.53-8.9.71-.65,1.09-1.67,1.21-2.67.15-1.2-.37-1.55-1.53-1.18-2.53.8-5.03.94-7.55-.13-3.03-1.29-3.02-2.97-.82-5.33,2.05-2.2,4.8-3.65,6.87-5.89,1.39-1.5,2.59-3.08,3.54-4.92,5.31-10.33,12.42-19.34,20.87-27.24,4.23-3.96,9.32-6.88,13.89-10.45,1.13-.88,2.48-1.42,3.85-1.89.96-.33,1.75-.19,2.46.48.5.47,1.03.94,1.45,1.49,4.07,5.29,9.52,8.06,16.07,8.89,2.84.36,5.61,1.25,8.53,1.11.91-.04,1.31.81,1.8,1.41,1.5,1.85,2.87,3.8,4.45,5.58,4.55,5.09,12.44,7.04,18.31,4.57.72-.3,1.97-.47,1.79-1.37-.12-.59-1.29,0-1.98.06-3.2.32-6.22-.17-9.04-1.76-2.25-1.27-4.43-2.68-6.17-4.61-2.15-2.39-1.81-4.14,1.02-5.67,1.19-.64,2.22-1.48,3.29-2.28.3-.22.74-.46.41-.95-.25-.37-.59-.38-1.04-.22-3.05,1.07-6.19,1.71-9.42,1.93-6.92.47-13.56-.79-19.36-4.51-7.27-4.67-11.17-11.72-12.3-20.28-.91-6.88.66-13.39,3.01-19.77.23-.63.79-1.29-.15-1.78-.92-.48-1.66-.14-2.15.68-.8,1.34-1.16,2.83-1.37,4.36-.14,1.08-.24,2.19-.91,3.1-.86,1.16-1.68,1.05-2.32-.22-1.8-3.56-1.09-7.01.75-10.21,2.03-3.54,4.62-6.68,7.87-9.22.4-.31,1.07-.56.71-1.27-.39-.78-1-.34-1.55-.19-.74.21-1.52.69-2.21-.06-.64-.69-.38-1.48-.1-2.23,1.2-3.18,3.94-4.46,6.9-4.95,6.51-1.08,12.57.48,18.59,3.16,10.05,4.48,17.77,11.79,25.23,19.5,2.29,2.36,4.95,4.27,7.46,6.36.74.62,1.64.91,2.63.84.3.53.76.81,1.32,1.07,2.04.97,4.2,1.53,6.35,2.15.42.88,1.15.81,1.91.61,2.73-.71,5.47-1.4,8.19-2.13,1.64-.44,3.31-.71,5-.64,3.96.16,7.01-1.71,9.78-4.24,1.62-1.48,2.95-3.21,4.24-4.97.94-1.29.94-2.77.97-4.27.18-8.96-3.35-16.58-8.54-23.59-4.27-5.78-10.04-9.68-16.45-12.63-4.16-1.91-8.47-1.53-12.77-.12-3.53,1.16-6.92.45-10.14-1.21-3.07-1.58-4.59-4.56-6.43-7.25-.34-.5-.51-1.4-1.3-1.08-.73.29-1.24,1.01-1.17,1.91.16,1.97.41,3.93.89,5.87.99,3.97,2.52,7.62,5.73,10.33.56.48.07.78-.07,1.14-.25.64-.69.39-1.09.18-1.92-.99-3.63-2.22-4.82-4.08-.26-.41-.45-.97-1.07-.85-.67.13-.95.69-1.05,1.3-.18,1.06.06,2.08.42,3.06,1.12,3.04,2.55,5.91,4.79,8.3.35.37.51.69.3,1.18-.31.7-.73.21-1.11.14-.19-.04-.37-.14-.56-.18-.65-.16-1.41-.83-1.93-.24-.58.66-.02,1.5.28,2.22.15.36.34.8.64.98,1.81,1.13,1.69,2.86,1.69,4.65,0,1.46.3,2.91.48,4.48-.22-.16-.39-.24-.52-.37-3.08-3.28-6.56-6.1-10.47-8.26-3.84-2.13-5.43-5.45-6-9.5-.52-3.75-.47-7.47.25-11.23.61-3.21,1.03-6.45,2.08-9.56.34-1.02-.33-1.08-.9-.96-2.18.45-3.61-.79-4.91-2.18-1.18-1.26-2.29-2.61-3.17-4.11-.36-.61-.61-1.28-.11-1.94.55-.72,1.18-.5,1.85-.14.74.4,1.01-.05,1.03-.69.02-.49-.05-.98-.14-1.47-.2-1.12-.43-2.25-.31-3.39.12-1.14.78-1.39,1.7-.72.12.09.23.19.36.26.59.34.78,1.55,1.71,1.06.81-.43.2-1.36.28-2.06.08-.69-.03-1.39.02-2.08.1-1.38,1.21-1.98,2.25-1.11,1.09.91,1.62.29,2.09-.54,2.11-3.72,3.88-7.57,4.1-11.95.02-.46.1-.95.68-.97.59-.02.88.44,1.02.93.6,2.05,1.03,4.15,1.01,6.29-.02,2.18,0,4.37-.44,6.52-.07.33-.23.71.14.96.34.23.68.04.96-.17,1.46-1.09,2.88-2.02,2.66-4.35-.25-2.65,1.19-5,2.5-7.2,3.32-5.57,7.17-10.71,13.08-13.85.43-.23.89-.44,1.37-.56.81-.2,1.49-.03,1.7.93.13.61.5,1.08.92,1.5.61.62,1.27.8,1.9.02.77-.96,1.7-1.04,2.8-.67,2.5.83,5.02,1.53,7.69,1.52.99,0,1.57.44,1.1,1.5-1.95,4.36-2.08,8.92-1.59,13.56-1.26-.03-2.21.92-3.41,1.08-1.2-.97-2.42-.67-3.57.04-1.92,1.17-3.55,2.68-5.01,4.39-1.51,1.77-2.64,3.72-2.87,6.08-.13,1.34-.19,2.7,1.14,3.6.06,1.67.76,3.1,1.65,4.46ZM265.08,99.28c1.25,1.38,2.11,3.2,4.18,3.64.16.45.5.73.91.93,4.39,2.19,8.89,3.2,13.75,1.57,4.94-1.66,7.58-5.16,7.4-9.84-.18-4.64-3.19-7.38-6.49-9.92-.55-.43-1.33-.67-2.12-.48-.98-1.42-2.29-2.42-3.87-3.09.43-.91-.04-1.51-.73-2.01-1.55-1.14-3.32-1.76-5.2-2.01-.67-.09-1.41-.09-1.82.67-.54-.03-1.08-.03-1.62-.09-3.26-.34-6.39.05-9.32,1.58-1.12-.6-1.84-.08-2.49.83-1.46,2.07-1.56,4.29-.99,6.67,1.04,4.34,3.69,7.73,6.39,11.11.53.67,1.25.73,2.02.44ZM247.63,157.04c-1.94.33-4.09.43-6.09,1.21-1.31.51-3.07.78-3.25,2.44-.19,1.81,1.3,2.89,2.66,3.82.56.38,1.22.68,1.88.85,3.55.96,6.87.43,9.9-1.67.99-.69,1.78-1.58,2.26-2.7.7-1.63.11-2.9-1.61-3.27-1.84-.4-3.71-.62-5.75-.68ZM265.68,129.84c-.05.72.07,1.16.57,1.31.7.21.95-.36,1.21-.83,1.81-3.12,3.58-6.26,5.41-9.36,1.24-2.09,2.68-4.03,4.61-5.56.39-.31.82-.57,1.16-.92.41-.43.44-.96.2-1.52-.3-.68-.8-.39-1.26-.3-1.35.25-2.43,1-3.52,1.8-3.49,2.56-5.16,6.27-6.61,10.14-.67,1.8-1.5,3.55-1.77,5.24ZM204.3,118.54c-.85.06-1.41.28-1.65.9-.31.8.47.87.87,1.12,3.45,2.19,6.6,4.72,9.23,7.87,1.52,1.83,3.08,3.62,4.66,5.39.43.48.87,1.3,1.68.8.87-.53.22-1.24-.06-1.82-.96-1.96-2.03-3.85-3.28-5.64-2.4-3.44-5.37-6.21-9.27-7.87-.77-.33-1.58-.55-2.18-.76ZM117.49,312.23c-.11.04-.35.1-.56.23-1.04.62-2.07,4.05-1.53,5.15.2.42.53.72,1.04.69.51-.02.86-.35.96-.79.28-1.21.83-2.31,1.28-3.45.38-.97-.17-1.81-1.19-1.82Z"/>
      <path class="cls-14" d="M297.17,215.17c-.16,1.45-1,2.66-1.51,3.98-.31.81-.5,1.59-.41,2.44-.54.3-.96.72-1.21,1.27-2.91,6.18-8.23,9.38-14.31,11.65-.09.03-.2.03-.29.08-.61.36-1.94.1-1.82.85.16.97,1.4.56,2.17.57,4.88.06,9.05-1.88,12.34-5.3,2.52-2.63,5.36-4.62,8.56-6.24.83-.42,1.58-1.01,2.38-1.51.45-.29.94-.71,1.43-.11.42.51.45,1.11-.01,1.63-.39.44-.85.83-1.3,1.26,1.8,1.27,2.99,2.86,3.39,4.94.41,2.12-2.09,4.28-4.14,3.57-.93-.32-1.81-.8-2.71-1.2-.37-.17-.81-.37-1.1-.01-.38.47.18.68.43.92,1.34,1.25,2.25,2.76,2.74,4.51.56,1.98-.42,2.97-2.37,2.46-.31-.08-.7-.37-.95,0-.27.4-.15.85.08,1.26.67,1.16,1.12,2.41,1.5,3.7.51,1.76.33,3.41-.5,5.02-1.01,1.22-1.79,2.68-3.44,3.21.41-2.67-.54-4.96-2.03-7.08-.27-.39-.6-.96-1.16-.68-.59.29-.04.8.04,1.16.55,2.33.45,4.61-.39,6.86-.9,2.4-2.18,3.33-4.75,3.33-.71,0-1.14.24-1.2.97-.37,4.44-2.34,8.09-5.49,11.17-1.35,1.32-2.56,1.44-4.02.22-.79-.66-1.61-1.32-2.19-2.2-.24-.37-.59-.57-1.01-.43-.43.15-.52.53-.52.96-.02.95.08,1.82.64,2.67.94,1.42,2.05,2.65,3.41,3.66-.76,1.09-1.51,2.17-2.27,3.26-.94.4-1.23,1.39-1.85,2.07-3.53,3.86-8.03,5.47-13.11,5.7-1.52.07-3.06-.15-4.59-.25-.3-.02-.62-.07-.77.25-.13.27.14.46.29.62.92,1,.72,2.06.23,3.18-2.24,5.12-6.71,7.02-11.74,7.59-4.34.49-8.63-.15-12.12-3.24-.49-.43-.79-.15-1.17.05-1.33.7-2.47.31-3.28-.8-2.02-2.78-3.24-5.97-.94-9.46,2.05-3.11,3.35-6.56,2.16-10.27-1.11-3.45-2.37-6.95-5.58-9.18.27-1.75-.94-3.09-1.33-4.65.61-.9,1.31-1.75,1.81-2.7,1.31-2.51.19-6.66-2.14-8.27-.46-.31-.95-.42-1.37-.1-.47.36.07.7.19,1.02.42,1.06.89,2.1,1.01,3.25.25,2.39-1.03,4-3.27,3.86-2.85-.17-5.27-1.24-6.74-3.91-.84-1.54-1.33-3.19-1.77-4.86-.14-.53-.26-1.35-.97-1.25-.62.09-.52.87-.55,1.4-.14,2.65-1.29,4.85-3.05,6.75-1.26,1.37-2.35,1.6-4,.91-1.42-.59-1.9-1.76-1.93-3.21-.04-2.13.02-4.25.43-6.35.27-1.36.12-2.67-.83-3.77-.24-.28-.53-.46-.91-.31-.33.13-.38.41-.37.73.11,3.19-1.01,6.24-1.08,9.41-3.04.45-5.06-1.61-6.12-4.26-.45-1.14-.7-2.35-.77-3.59.78-1.14,1.14-2.39.97-3.77-.04-.32-.15-.58-.48-.67-.28-.07-.44.13-.6.33-.28.34-.55.7-.87,1.01-1.95,1.89-4.9,1.74-5.87-.58-1.19-2.87-1.94-5.97-.53-9.03.44-.95.05-1-.66-1.04.19-1.59.93-2.9,2.14-3.93.95-.81,1.15-1.57.57-2.81-.86-1.83-.91-3.79.19-5.64,1.79,1.98,3.88,3.51,6.41,4.43,2.08.76,4.24.98,6.4,1.24,1.96.23,3.39,1.17,4.35,2.95,2.14,3.99,5.48,6.43,9.93,7.29.73.14,1.87.62,2.14-.21.29-.89-.97-1.09-1.62-1.31-2.81-.98-4.92-2.83-6.32-5.35-1.24-2.23-1.69-4.03,1.01-5.48.13-.07.25-.15.37-.25.8-.65,1.03-1.47.55-2.38-.52-1.01-1.25-.42-1.91-.15-4.21,1.71-8.47,2.65-13.04,1.45-3.57-.94-5.8-3.93-4.69-6.92.47-1.28.12-1.7-1.04-2.16-4.1-1.61-6.84-4.61-8.41-8.69-.27-.69-.44-1.39-.16-2.17.27-.75.08-1.39-.87-1.51-.12-2.87-.35-5.74,1.11-8.4,1.86.26,3.72.53,5.58.79,1.31.18,2.28.9,3.09,1.9,1.78,2.2,4.08,3.67,6.79,4.29,7.65,1.75,15.03,4.27,22.33,7.13,3.69,1.45,6.93,3.41,9.21,6.72,1.39,2.01,3.03,3.79,4.85,5.41,2.56,2.27,5.19,4.46,7.68,6.79,7.74,7.26,23.42,10.39,34.46,2.44,6.68-4.81,11.67-10.71,12.55-19.28.08-.81.49-1.41,1.17-1.8,4.09-2.35,7.3-5.75,10.69-8.93,3.94-3.69,7.96-7.29,12.61-10.1.42.37.84.74,1.26,1.1-.09.28-.25.56-.27.85-.36,5.08-2.55,9.18-6.63,12.24-.65.49-1.09.94-.37,1.78.37.43.54,1.07.44,1.69-.5,3.14-1.34,6.1-4.05,8.16-.9.68-1.74,1.47-2.39,2.42-.29.43-.49.77.16,1.02ZM242.72,241.71c-.79-.53-.79-.57-1.47-.54-5.9.22-11.05-1.84-15.73-5.26-.74-.54-1.38-.61-1.97-.06-.74.69.08,1.15.45,1.58,4.59,5.32,10.55,6.12,17.04,5.12.62-.09,1.24-.31,1.67-.85ZM262.65,267.8c2.01.07,3.51-1.04,4.65-3.28.61-1.2,1.45-1.38,2.48-.56.42.34.87.65,1.32.95.48.32.73.13.78-.4.1-1.03-1.4-3.17-2.6-3.58-1.31-.45-2.23.27-2.91,1.25-1.24,1.78-2.4,3.62-3.72,5.63ZM250.07,285.24c.81-.02,1.5,0,1.68-.72.19-.76-.52-.9-1.01-1.01-2.49-.57-4.66-1.87-6.9-3.01-.59-.3-1.22-.6-1.7.14-.47.73.05,1.21.54,1.64,2.17,1.92,4.8,2.66,7.39,2.97Z"/>
      <path class="cls-4" d="M250.44,313.06c-3.27-.17-6.38.83-9.56,1.28-1.17.17-2.07-.12-2.85-.84-3.93-3.67-7.06-7.89-8.74-13.07-.08-.23-.13-.48-.16-.72-.2-1.54.57-2.17,2-1.57,1.51.62,3.03,1.21,4.62,1.61,4.34,1.1,8.64.94,12.9-.42,1.24-.39,2.38-.96,3.37-1.83,2.46-2.15,5.05-4.16,6.6-7.16.22-.43.56-.64,1.08-.62,4,.17,7.53-1.36,11-3.09.61-.3,1.15-.5,1.82-.22,2.2.91,4.48.8,6.72.24,3.53-.89,6.69-2.45,8.81-5.61,1.96-2.92,4.62-4.83,8.08-5.63,1.59-.37,3.06-1.1,4.41-2.08,1.37-1,2.62-.74,4.17.87,1.87,1.94,3.48,4.11,4.51,6.59,1.87,4.52,3.77,9.04,4.22,14.02.26,2.79.27,5.55-.09,8.3-.14,1.04.2,1.27,1.16,1.33,7.53.53,15.31,6.92,17.49,14.16,1.07,3.56,1.26,7.09.27,10.68-.39,1.41-1.13,2.64-2.21,3.64-.55.51-1.15,1.01-1.98.6-.79-.38-1.19-1-1.12-1.91.12-1.53.25-3.06.29-4.59.18-6.25-2.49-10.97-7.77-14.25-1.2-.75-2.5-.94-3.82-.27-1.1.56-1.57,1.52-1.42,2.7.14,1.16.91,1.69,2.06,1.72.67.01,1.22.38,1.76.73,7.15,4.73,7.49,16.2.24,21.02-4.23,2.82-8.54,4-13.46,3.28-.78-.11-1.59-.24-2.3-.55-2.72-1.15-3.36-2.47-2.69-5.17,1.42-5.71.8-11.21-2.62-16.2-.95-1.38-2.25-2.19-3.82-2.66-1.15-.35-1.92.1-2.46,1.09-.56,1.01-.28,1.72.65,2.38,2.5,1.76,3.85,4.27,4.15,7.25.24,2.36,1.02,4.73-.08,7.15-1.3,2.85-3.3,4.73-6.32,5.58-5.9,1.65-11.07.17-15.67-3.64-4.33-3.59-7.65-8.07-8.51-13.58-.63-4.04-2.62-7.04-4.79-10.14-.4-.57-.81-1.14-1.1-1.77-.91-1.97-1.78-3.85-4.32-4.26-1-.16-1.71-1.14-2.38-1.94-.18-.21-.3-.58-.66-.5-.44.11-.4.54-.4.86.03,1.71.54,3.22,1.94,4.3.39.3.85.52,1.25.81.71.52,1.41,1.3,1.15,2.08-.24.72-1.21.17-1.85.16-1.19-.02-2.37-.09-3.56-.14Z"/>
      <path class="cls-14" d="M318.16,60.69c-2.21-4.16-2.13-8.46-.79-12.84.71-2.33,1.76-4.51,2.76-6.73.48-1.06,1.18-1.44,2.33-1.38,5.27.3,10.11,1.82,14.46,4.86,5.83,4.08,10.7,9.09,14.83,14.87,3.31,4.63,4.11,9.69,3.35,15.25-1.23,8.98-4.99,16.41-12.47,21.76-.24.17-.5.31-.76.47-.16-1.53.22-3.06.15-4.58-.33-7.01-2.23-13.58-5.67-19.71-4.01-7.14-10.56-10.35-18.18-11.97Z"/>
      <path class="cls-14" d="M144.59,124.24c-3.24.25-6.29-.45-9.21-1.83-7.54-3.57-13.72-8.83-18.8-15.39-2.95-3.81-3.23-8.3-2.94-12.88.24-3.81,1.73-7.19,3.57-10.45,5.82-10.35,13.94-18.56,23.59-25.35.62-.43,1.01-.5,1.46.15,2.57,3.75,5.37,7.36,6.94,11.72.39,1.08.36,2.21.73,3.27-2.11-.3-3.96.46-5.83,1.3-4.56,2.05-8.52,4.89-11.24,9.09-5.47,8.46-6.16,17.43-2.07,26.66,1.76,3.96,4.06,7.56,7.79,10.05,1.96,1.3,3.91,2.6,6.02,3.65Z"/>
      <path class="cls-10" d="M205.68,77.48c.82-1.97,1.89-3.76,3.74-4.97,3.37-1.85,6.55-3.98,9.41-6.55,4.07-.6,8.13-.74,12.18.26,1.22.3,2.32.81,3.43,1.34,3.16,1.53,3.5,2.8,1.44,5.52-.73-.19-1.36.02-1.97.42-4.65,2.99-8.99,6.25-11.81,11.24-1.44,2.56-2.18,5.2-2.28,8.03-.08,2.17-.21,4.35-.04,6.53.13,1.72-.99,2.68-2.64,2.14-5.24-1.73-9.45-4.55-11.19-10.25-1.27-4.19-1.34-8.26-.08-12.4.14-.46.39-.96-.2-1.32Z"/>
      <path class="cls-2" d="M275.19,277.95c.76-1.09,1.51-2.17,2.27-3.26,1.65,1.01,3.12.64,4.42-.64.63-.62,1.25-1.26,1.8-1.96,2.21-2.85,3.8-6,4.48-9.57.17-.92.53-1.39,1.49-.81.76.46,1.4.16,2.04-.3,2.53-1.81,3.62-4.48,4.43-7.32,1.66-.52,2.44-1.99,3.44-3.21.54.83.95.92,1.61,0,1.52-2.14,1.97-4.49,1.73-7.04-.04-.42-.28-.92.21-1.23,1.58-1,1.52-2.67,1.74-4.22.28-1.97,1.28-2.64,3.19-2.12,4.37,1.2,6.18,7.2,3.19,10.62-.95,1.09-2.5,1.16-3.66.18-.35-.3-.7-.86-1.26-.49-.72.48.03.87.22,1.22,3.83,7.16.25,16.14-6.05,20.53-1.21.85-2.34,1.86-3.73,2.41-2,.79-2.95.14-2.98-1.97-.01-.86.37-2.1-.79-2.2-.95-.08-.78,1.21-.92,1.92-1.35,6.81-5.73,11.1-11.65,14.12-.89.46-1.84.65-2.88.47-1.74-.3-2.24-1.04-1.53-2.67.5-1.13.55-2.01-.82-2.46Z"/>
      <path class="cls-2" d="M144.59,124.24c-2.11-1.05-4.06-2.35-6.02-3.65-3.73-2.48-6.03-6.09-7.79-10.05-4.09-9.23-3.4-18.2,2.07-26.66,2.72-4.2,6.68-7.05,11.24-9.09,1.88-.84,3.72-1.6,5.83-1.3.52,1.28.4,2.18-1.22,2.48-.87.16-1.14,1-1.35,1.8-.37,1.46-.26,2.95-.34,4.43-.13,2.34-.82,2.77-2.98,1.91-.74-.29-1.19-.18-1.58.53-.41.77-.61,1.55-.58,2.42.03.79.1,1.59,0,2.37-.18,1.44-.94,2.02-2.35,1.72-1.13-.24-1.54.18-1.68,1.23-.31,2.33-.33,4.61.5,6.88.72,1.96.26,2.67-1.8,3.15-.9.21-1.52.63-1.27,1.62,1.56,6.16,4.43,11.43,10.21,14.65.77.43,1.65.67,2.47,1.01,1.03.42,1.58,1.17,1.45,2.31-.13,1.12-.77,1.82-1.88,1.99-.97.15-1.96.18-2.95.26Z"/>
      <path class="cls-10" d="M193.96,146.89c-.59,4.57.35,8.87,2.35,12.97,3.33,6.83,11.64,7.83,16.56,2.02,1.71-2.02,2.63-4.4,3.15-6.96.07-.36-.07-.8.31-1.08,2.53,2.82,2.75,7.41.21,10.28-2.8,3.17-6.1,5.61-10.65,5.73-1.57.04-3.16.33-4.7.69-3.1.72-5.72-.26-7.96-2.26-8.25-7.35-11.49-23.39-3.32-33.43,3.52-4.33,5.54-4.5,9.68-.71.79.73.2,1.15-.16,1.6-1.65,2.06-3.15,4.2-4.15,6.66-2.87.56-3.36,1.84-1.58,4.14.09.12.17.24.26.36Z"/>
      <path class="cls-5" d="M185.91,108.39c-.89-1.36-1.59-2.79-1.65-4.46.66-.21,1.07-.57,1.13-1.36.44-5.49,3.37-9.22,8.29-11.46.6-.28,1.06-.54.89-1.29,1.2-.16,2.15-1.11,3.41-1.08.47,2.14,1.32,3.95,3.77,4.42.29.06.6.38.77.66,1.7,2.88,4.35,4.7,7.04,6.49,1.82,1.21,2.15,2.42,1.2,4.43-.65,1.37-1.54,2.54-2.8,3.4-5.04,3.49-10.49,4.75-16.5,3.13-1.67-.45-3.09-1.31-4.39-2.4-.35-.3-.64-.62-1.15-.49Z"/>
      <path class="cls-10" d="M222.4,44.26c-.23-.79-1.19-1.17-1.17-2.1.44-.5.25-1,.01-1.51-.34-.72-.7-1.43-.93-2.18-.24-.8-.36-1.65.99-1.45.93.14,1.22-.43,1.27-1.23.1-1.6-.45-3.03-1.26-4.36-1.33-2.2-2.34-4.48-2.15-7.13.03-.49.06-.99.17-1.46.19-.81.58-1.53,1.5-1.63.94-.11,1.09.74,1.33,1.35,1.99,5.01,5.65,8.65,9.72,11.95,2.69,2.18,5.35,4.4,8.54,5.89,1.17.55,1.83,1.66,2.1,3.06.55,2.87,1.66,5.57,2.87,8.23-.44,1.59-1.68,2.09-3.12,2.16-4.26.2-8.11-1.1-11.67-3.37-.4-1.03-.87-1.93-2.24-1.33-.49-.46-1.02-.86-1.67-1.05.43-.62.18-1.1-.32-1.51-.75-.62-1.5-1.25-2.26-1.87-.5-.41-1.02-.8-1.72-.44Z"/>
      <path class="cls-10" d="M289.52,131.93c-1.3-1.69-2.68-3.29-4.57-4.39-1.38-.8-1.39-1.19-.14-2.09,1.4-1.02,2.85-1.98,4.24-3.01.62-.46,1.19-.53,1.92-.27,2.12.78,3.77,2.12,5.12,3.91,4.88,6.51,6.41,13.7,4.56,21.64-.55,2.37-1.01,4.77-2.25,6.89-2.08,3.54-4.88,6.07-9.25,6.32-1.79.1-3.56.41-5.26.94-3.36,1.04-8.17-.94-10.52-4.3-.14-.2-.32-.41-.37-.64-.5-2.71-.72-5.44-.08-8.25.59,1.33,1.12,2.69,1.78,3.97,1.74,3.38,4.46,5.42,8.33,5.6,3.61.17,6.5-1.3,8.41-4.37,1.54-2.46,2.4-5.2,2.73-8.1.44-3.73-.5-7.17-2.13-10.47.52-1.02,1.99-1.91.88-3.2-.92-1.06-2.24-.58-3.41-.18Z"/>
      <path class="cls-2" d="M318.16,60.69c7.62,1.62,14.18,4.83,18.18,11.97,3.44,6.13,5.34,12.7,5.67,19.71.07,1.52-.31,3.04-.15,4.58-3.81,2.92-8.09,4.94-12.61,6.49-1.07.37-1.71-.02-2.16-.95-.49-1.02.05-1.54.89-2,1.32-.7,2.5-1.58,3.42-2.8.58-.77.49-1.28-.35-1.8-1.46-.89-1.57-1.37-.35-2.6,3.05-3.08,3.63-6.92,3.57-10.98-.02-1.41-.41-1.6-1.77-1.03-1.3.55-2.08.15-2.32-1.25-.2-1.19.04-2.37.16-3.55.15-1.44-.14-2.74-.99-3.94-.54-.76-1.02-.92-1.82-.32-1.56,1.16-2.55.73-2.99-1.2-.1-.43-.15-.88-.26-1.31-.4-1.73-.62-1.83-2.18-1-.98.52-1.96.37-2.12-.71-.38-2.51-1.55-4.81-1.83-7.33Z"/>
      <path class="cls-9" d="M192.48,174.84c-2.15-.62-4.31-1.18-6.35-2.15-.56-.27-1.02-.54-1.32-1.07.53-.58.47-1.13-.04-1.7-1.32-1.48-2.53-3.06-3.94-4.45-3.59-3.53-5.54-7.79-6.01-12.76-.58-6.2.29-12.15,3.04-17.78,1.44-2.95,3.75-4.94,6.68-6.28,1.25-.57,2.6-.37,5.78.76-6.27,6.41-9.45,14.01-8.69,22.96.77,8.97,4.95,16.05,12.59,21.05-.71.4-1.38.71-1.74,1.4Z"/>
      <path class="cls-9" d="M307.24,155.9c-.25,1.52-1.47,2.34-2.51,3.16-1.11.87-2.48,1.41-3.73,2.1-.56-.15-1.13-.3-1.72-.46.21-.85.87-1.42,1.32-2.12,5.12-8.07,5.68-16.79,3.89-25.92-.73-3.71-2.64-6.69-5.12-9.39-1.14-1.24-2.35-2.4-3.69-3.75,1.72-.39,3.15-.88,4.8.23,4.67,3.16,8.12,7.2,9.92,12.6.96,2.87,2.01,5.7,2.56,8.69.55,2.99.15,5.66-2,8.02-1.43,1.57-2.6,3.37-3.92,5.04-.56.71-.69,1.3.21,1.8Z"/>
      <path class="cls-11" d="M206.15,146.81c-3.45.15-6.08-3.82-4.91-7.09.03-.09.1-.17.13-.26,1.06-2.7,1.4-2.79,3.57-.9,1.38,1.2,2.84,2.3,3.96,3.77,1.43,1.87.7,3.82-1.66,4.36-.43.1-.88.1-1.1.12Z"/>
      <path class="cls-11" d="M277.02,136.88c.26-2.73,1.75-4.9,3.46-6.9.88-1.03,2.73-.41,3.63,1.02.81,1.3.54,4.63-.62,6.08-1.22,1.53-2.8,2.29-4.84,1.87-1.17-.24-1.76-.83-1.63-2.08Z"/>
      <path class="cls-11" d="M193.96,146.89c-.09-.12-.17-.24-.26-.36-1.78-2.3-1.29-3.58,1.58-4.14,1.33.23,2.38.8,3.03,2.07.49.96.38,1.83-.17,2.64-.55.82-1.45.78-2.28.55-.65-.18-1.27-.51-1.9-.77Z"/>
      <path class="cls-11" d="M289.52,131.93c1.17-.4,2.49-.88,3.41.18,1.11,1.28-.37,2.18-.88,3.2-.83.27-1.52.88-2.44.92-1.31.06-1.82-.47-1.62-1.75.17-1.07.66-1.92,1.54-2.56Z"/>
      <path class="cls-12" d="M309.03,185.9c-4.65,2.82-8.67,6.41-12.61,10.1-3.4,3.18-6.6,6.58-10.69,8.93-.68.39-1.08.99-1.17,1.8-.88,8.58-5.87,14.47-12.55,19.28-11.03,7.94-26.72,4.82-34.46-2.44-2.49-2.34-5.13-4.52-7.68-6.79-1.82-1.62-3.46-3.39-4.85-5.41-2.28-3.31-5.52-5.27-9.21-6.72-7.29-2.86-14.68-5.38-22.33-7.13-2.72-.62-5.01-2.09-6.79-4.29-.81-.99-1.78-1.71-3.09-1.9-1.86-.26-3.72-.53-5.58-.79-4.31-1.31-8.72-2.24-12.98-3.73-2.53-.89-4.99-1.93-7.45-2.98-5.46-2.32-9.22-6.41-12.07-11.44-.54-.95-1.11-1.13-2.02-.86-.91.26-1.77.66-2.55,1.19-.75.5-1.58.81-2.44,1.06-.76.22-1.49.32-2.07-.32-.61-.67-.47-1.49-.22-2.25.54-1.65,2.04-2.32,3.44-2.83,6.24-2.26,12.41-2.34,18.38.96.39.21.76.47,1.07.79.34.35.36.8.11,1.24-.27.46-.64.48-1.14.38-1.35-.29-2.72-.56-4.09-.72-.99-.11-2.03-.03-2.65.95-.62,1,.03,1.87.56,2.57,3.01,3.98,6.91,6.8,11.62,8.41,6.53,2.23,13.31,3.6,20.08,4.77,8.18,1.41,16.36.85,24.42-1.49,5.73-1.67,10.95-4.41,16.08-7.26,6.5-3.61,13.32-6.12,20.61-7.31,5.05-.83,10.1-.96,15.23-.09,5.75.98,11.2,2.92,16.79,4.44,4.96,1.35,9.99,1.86,15.12,2.05,5.17.2,10.18-.45,15.16-1.64.72-.17,1.47-.29,2.16-.55,9.66-3.66,18.79-8.2,26.07-15.81,1.47-1.54,3.12-2.87,4.24-4.74.78-1.3,1.48-2.73.74-4.01-.75-1.29-2.39-.86-3.71-.71-.49.06-.96.28-1.44.34-.6.07-1.3-.01-1.55-.6-.27-.64.27-1.16.78-1.45,2.03-1.14,4.09-2.24,6.45-2.53.99-.12,1.99-.11,2.96.11,2.58.6,4.95,1.72,7.23,3.05.78.45,1.38,1.14,1.89,1.88.52.75,1.02,1.56.28,2.43-.68.79-1.51.52-2.33.2-1.02-.41-1.9-1.06-2.81-1.66-2-1.3-2.1-1.27-3.05.85-1.87,4.19-5.18,7.24-8.43,10.28-5.2,4.88-11.07,8.81-17.54,11.85-.4.19-.81.31-1.01.8-1.51,3.88-4.56,6.4-7.77,8.79-.39.29-.76.62-1.14.94ZM280.13,205.16c-.25-3.46-.7-6.84-2.09-10.03-.45-1.04-.97-1.85-2.27-2.26-2.98-.94-5.21-2.83-5.97-6.05-.13-.55-.43-.77-.91-1.03-1.69-.89-3.52-1.02-5.34-1.12-4.06-.23-7.89.51-11.27,2.95-1.16.84-1.14,1.48.14,2.16.97.51,1.92,1.02,2.78,1.7,4.13,3.24,6.16,7.79,7.82,12.56.18.53.18,1.24-.36,1.47-.51.22-.85-.41-1.09-.82-1.95-3.3-4.14-6.4-7.07-8.94-6.03-5.23-12.86-8.21-20.96-7.23-3.62.44-7.22,1.31-8.27,5.69-.06.24-.16.49-.33.66-1.44,1.54-1.08,3.29-.57,5.03.28.95.64,1.87,1.03,2.78,2.17,5.08,5.71,9.25,9.07,13.54,1.88,2.41,4.15,4.41,6.63,6.14,4.21,2.94,9.02,4.34,14.04,4.86,2.47.26,5.04.34,7.51-.52,3.62-1.26,7.01-2.77,10.01-5.33,5.06-4.32,7.52-9.65,7.46-16.21ZM251.22,175.02c-2.58.05-5.15.2-7.68.64-4.68.8-8.94,2.84-13.24,4.73-3.24,1.42-3.41,1.75-3.15,5.29.08,1.1.53,1.37,1.54,1.08,5.38-1.6,10.81-1.76,16.27-.49,1.05.25,1.92,0,2.81-.53,6.26-3.76,12.81-6.01,20.2-3.78.31.09.64.25.81-.28.6-1.87-.19-3.54-1.99-4.34-4.98-2.2-10.25-2.39-15.57-2.32ZM291.73,182.4c-1.19.03-2.38.08-3.56.07-.69,0-1.01.24-.96.95.02.39-.02.79-.08,1.18-.35,2.49-1.74,4.36-3.57,5.98-.74.65-1.61,1.28-1.37,2.45.51,2.6,3.65,4.62,6.23,3.94,3.46-.91,5.88-3.27,8.19-5.86,2.24-2.52,4.79-4.78,7.81-6.29,2.19-1.1,3.99-2.52,5.49-4.41.28-.35.65-.67.42-1.17-.26-.56-.78-.55-1.28-.45-.38.08-.75.22-1.13.35-5.26,1.78-10.54,3.41-16.18,3.26ZM214.62,199.98c.64-.07,1.41.26,1.75-.68.35-.97-.52-1.08-.97-1.4-2.37-1.72-4.29-3.83-5.58-6.45-.67-1.36-1.43-1.91-3.02-1.46-3.92,1.1-7.94,1.61-12,1.82-.66.03-1.44.01-1.52.83-.09.84.66,1.07,1.35,1.3,5.52,1.89,11.26,3.1,16.74,5.14,1.05.39,2.03,1.11,3.26.9ZM223.59,185.38c0-1.9-.74-2.35-2.29-1.55-2.33,1.21-4.67,2.39-6.98,3.62-1.58.84-1.85,2.01-.68,3.37.86,1.01,1.82,1.98,2.86,2.8,1.99,1.57,3.85,1.1,5.23-1.01,1.5-2.28,1.51-4.87,1.87-7.23ZM273.51,182.45c-.02,2.02.4,3.92,1.4,5.69.84,1.51,2.83,2.21,4.31,1.28,1.97-1.23,3.5-2.89,4.09-5.24.27-1.09-.05-1.79-1.16-2.18-2.14-.75-4.26-1.58-6.39-2.37-1.63-.6-2.26-.15-2.27,1.63,0,.39.02.79.03,1.18Z"/>
      <path class="cls-5" d="M278.84,82.09c1.58.67,2.9,1.66,3.87,3.09-.56.62-.33,1.11.16,1.67,1.41,1.59,2.86,3.16,4.15,4.84,2.3,2.99,1.91,6.1-1,8.48-3.98,3.26-8.37,4.03-13.19,2.12-1.33-.53-2.66-1.1-3.58.64-2.07-.44-2.93-2.26-4.18-3.64.82-.72.81-1.45.18-2.33-1.36-1.89-2.68-3.8-3.75-5.87-1.51-2.92-2.09-5.96-1.13-9.18.19-.63.12-1.16-.23-1.68,2.94-1.53,6.07-1.92,9.32-1.58.54.06,1.08.06,1.62.09,0,.73.5,1,1.08,1.24,1.61.64,3.17,1.38,4.65,2.29.74.45,1.38.42,2.01-.17Z"/>
      <path class="cls-12" d="M195.83,252.14c.06-3.17,1.19-6.22,1.08-9.41-.01-.32.04-.6.37-.73.38-.15.67.03.91.31.95,1.11,1.1,2.42.83,3.77-.41,2.1-.47,4.22-.43,6.35.03,1.45.51,2.62,1.93,3.21,1.65.69,2.74.46,4-.91,1.76-1.91,2.91-4.11,3.05-6.75.03-.53-.06-1.31.55-1.4.71-.1.83.72.97,1.25.44,1.68.93,3.33,1.77,4.86,1.46,2.67,3.88,3.74,6.74,3.91,2.24.14,3.53-1.47,3.27-3.86-.12-1.15-.59-2.19-1.01-3.25-.12-.31-.66-.66-.19-1.02.42-.32.92-.21,1.37.1,2.33,1.6,3.45,5.76,2.14,8.27-.5.95-1.2,1.8-1.81,2.7-4.02,2.18-8.91,1.4-12.02-2.02-.93-1.02-1.68-.99-2.6-.1-1.11,1.07-2.45,1.82-3.72,2.68-3.67,2.5-5.8.07-6.67-3-.46-1.63-.42-3.32-.54-5Z"/>
      <path class="cls-12" d="M176.9,198.96c.95.12,1.14.76.87,1.51-.28.78-.1,1.48.16,2.17,1.57,4.08,4.31,7.08,8.41,8.69,1.16.45,1.51.87,1.04,2.16-1.11,2.99,1.12,5.98,4.69,6.92,4.57,1.2,8.83.27,13.04-1.45.66-.27,1.39-.86,1.91.15.47.91.25,1.73-.55,2.38-.12.09-.24.18-.37.25-2.7,1.45-2.25,3.25-1.01,5.48,1.4,2.51,3.51,4.37,6.32,5.35.65.23,1.9.42,1.62,1.31-.27.83-1.4.35-2.14.21-4.45-.87-7.79-3.3-9.93-7.29-.96-1.78-2.39-2.72-4.35-2.95-2.16-.26-4.33-.49-6.4-1.24-2.53-.92-4.62-2.46-6.41-4.43-.36-.71-.65-1.43-.63-2.25.06-1.82-.81-3.21-2.1-4.39-1.42-1.3-2.88-2.57-4.26-3.91-2.82-2.74-2.77-5.84.06-8.66Z"/>
      <path class="cls-12" d="M247.63,157.04c2.05.06,3.92.29,5.75.68,1.72.37,2.3,1.64,1.61,3.27-.48,1.12-1.27,2.01-2.26,2.7-3.03,2.1-6.35,2.64-9.9,1.67-.66-.18-1.32-.47-1.88-.85-1.37-.93-2.85-2.01-2.66-3.82.18-1.66,1.94-1.93,3.25-2.44,2.01-.79,4.15-.88,6.09-1.21Z"/>
      <path class="cls-12" d="M269.26,102.92c.92-1.73,2.25-1.16,3.58-.64,4.82,1.91,9.21,1.14,13.19-2.12,2.91-2.38,3.31-5.49,1-8.48-1.29-1.68-2.74-3.25-4.15-4.84-.49-.55-.72-1.05-.16-1.67.78-.19,1.57.06,2.12.48,3.3,2.54,6.31,5.28,6.49,9.92.18,4.67-2.46,8.18-7.4,9.84-4.86,1.63-9.36.63-13.75-1.57-.41-.2-.75-.48-.91-.93Z"/>
      <path class="cls-12" d="M297.17,215.17c-.66-.25-.45-.59-.16-1.02.65-.95,1.49-1.74,2.39-2.42,2.71-2.06,3.55-5.02,4.05-8.16.1-.62-.07-1.26-.44-1.69-.72-.84-.27-1.3.37-1.78,4.08-3.07,6.27-7.16,6.63-12.24.02-.29.17-.56.27-.85,1.93.42,2.87,1.94,2.34,4.01-.81,3.14-2.1,6.07-4.3,8.51-.78.87-1.34,1.79-1.46,3-.6,6.22-3.92,10.38-9.7,12.64Z"/>
      <path class="cls-12" d="M260.15,80.23c.35.52.42,1.05.23,1.68-.96,3.21-.39,6.26,1.13,9.18,1.07,2.07,2.39,3.98,3.75,5.87.63.88.65,1.61-.18,2.33-.77.28-1.49.22-2.02-.44-2.69-3.38-5.35-6.77-6.39-11.11-.57-2.38-.47-4.6.99-6.67.65-.91,1.37-1.43,2.49-.83Z"/>
      <path class="cls-12" d="M265.68,129.84c.27-1.69,1.1-3.44,1.77-5.24,1.45-3.87,3.12-7.59,6.61-10.14,1.09-.8,2.17-1.54,3.52-1.8.46-.09.97-.38,1.26.3.24.56.21,1.09-.2,1.52-.34.35-.77.61-1.16.92-1.93,1.53-3.38,3.47-4.61,5.56-1.83,3.1-3.61,6.24-5.41,9.36-.27.46-.51,1.04-1.21.83-.5-.15-.62-.59-.57-1.31Z"/>
      <path class="cls-12" d="M204.3,118.54c.6.21,1.41.43,2.18.76,3.9,1.66,6.87,4.43,9.27,7.87,1.25,1.79,2.32,3.68,3.28,5.64.28.58.93,1.28.06,1.82-.81.5-1.26-.32-1.68-.8-1.58-1.77-3.14-3.56-4.66-5.39-2.63-3.16-5.78-5.68-9.23-7.87-.4-.25-1.18-.32-.87-1.12.24-.63.8-.84,1.65-.9Z"/>
      <path class="cls-12" d="M180.92,230.54c.7.04,1.09.09.66,1.04-1.41,3.07-.67,6.16.53,9.03.96,2.32,3.92,2.47,5.87.58.32-.31.59-.66.87-1.01.16-.2.32-.4.6-.33.33.08.44.35.48.67.17,1.38-.19,2.63-.97,3.77-.05.02-.1.03-.14.06-4.98,3.49-8.61,1.09-9.7-4.16-.28-1.34-.38-2.73-.46-4.11-.13-2.19.66-4.05,2.28-5.54Z"/>
      <path class="cls-12" d="M194.57,89.82c.17.75-.29,1.01-.89,1.29-4.93,2.25-7.85,5.98-8.29,11.46-.06.79-.47,1.14-1.13,1.36-1.33-.9-1.27-2.27-1.14-3.6.23-2.36,1.36-4.31,2.87-6.08,1.46-1.71,3.09-3.22,5.01-4.39,1.15-.71,2.37-1.01,3.57-.04Z"/>
      <path class="cls-12" d="M278.84,82.09c-.63.59-1.27.62-2.01.17-1.48-.9-3.04-1.64-4.65-2.29-.58-.23-1.08-.51-1.08-1.24.4-.76,1.15-.76,1.82-.67,1.88.25,3.65.87,5.2,2.01.69.51,1.15,1.1.73,2.01Z"/>
      <path class="cls-12" d="M218.83,65.97c-2.87,2.57-6.04,4.7-9.41,6.55-.1-.31-.02-.6.17-.84,2.23-2.75,4.95-4.8,8.39-5.82.31-.09.58-.04.86.11Z"/>
      <path class="cls-12" d="M117.49,312.23c1.02,0,1.57.85,1.19,1.82-.45,1.14-1,2.24-1.28,3.45-.1.44-.45.77-.96.79-.51.02-.84-.27-1.04-.69-.54-1.1.49-4.53,1.53-5.15.21-.12.45-.18.56-.23Z"/>
      <path class="cls-12" d="M222.4,44.26c.7-.36,1.22.03,1.72.44.76.62,1.51,1.24,2.26,1.87.51.42.75.9.32,1.51-.23.06-.48.2-.69.16-1.16-.25-3.5-2.86-3.61-3.98Z"/>
      <path class="cls-12" d="M228.37,49.13c1.37-.61,1.84.29,2.24,1.33-1.26.49-1.99.05-2.24-1.33Z"/>
      <path class="cls-12" d="M296.13,254.09c-.81,2.84-1.9,5.51-4.43,7.32-.64.46-1.28.76-2.04.3-.97-.59-1.32-.11-1.49.81-.68,3.57-2.27,6.72-4.48,9.57-.54.7-1.16,1.34-1.8,1.96-1.31,1.28-2.77,1.65-4.42.64-1.36-1.01-2.47-2.24-3.41-3.66-.56-.85-.66-1.72-.64-2.67,0-.43.1-.81.52-.96.42-.15.77.06,1.01.43.58.88,1.4,1.54,2.19,2.2,1.46,1.23,2.67,1.11,4.02-.22,3.15-3.08,5.12-6.72,5.49-11.17.06-.73.49-.97,1.2-.97,2.57,0,3.85-.93,4.75-3.33.84-2.25.94-4.52.39-6.86-.09-.36-.63-.87-.04-1.16.56-.28.89.29,1.16.68,1.49,2.12,2.44,4.41,2.03,7.08Z"/>
      <path class="cls-12" d="M242.72,241.71c-.43.54-1.05.75-1.67.85-6.49.99-12.45.19-17.04-5.12-.37-.43-1.2-.89-.45-1.58.59-.55,1.23-.48,1.97.06,4.67,3.42,9.82,5.48,15.73,5.26.68-.03.68.01,1.47.54Z"/>
      <path class="cls-12" d="M262.65,267.8c1.32-2,2.47-3.85,3.72-5.63.68-.97,1.6-1.69,2.91-1.25,1.2.41,2.7,2.54,2.6,3.58-.05.54-.3.72-.78.4-.45-.3-.9-.61-1.32-.95-1.02-.82-1.86-.64-2.48.56-1.14,2.24-2.64,3.35-4.65,3.28Z"/>
      <path class="cls-12" d="M250.07,285.24c-2.59-.3-5.22-1.04-7.39-2.97-.49-.43-1.01-.91-.54-1.64.48-.74,1.11-.44,1.7-.14,2.24,1.14,4.4,2.44,6.9,3.01.49.11,1.2.26,1.01,1.01-.18.72-.87.69-1.68.72Z"/>
      <path class="cls-8" d="M280.13,205.16c.06,6.56-2.39,11.89-7.46,16.21-3,2.56-6.39,4.07-10.01,5.33-2.47.86-5.05.77-7.51.52-5.01-.53-9.83-1.92-14.04-4.86-2.48-1.74-4.75-3.74-6.63-6.14-3.35-4.29-6.9-8.45-9.07-13.54-.39-.91-.75-1.84-1.03-2.78-.51-1.74-.87-3.49.57-5.03.16-.17.27-.43.33-.66,1.05-4.37,4.65-5.25,8.27-5.69,8.1-.98,14.94,2,20.96,7.23,2.93,2.54,5.12,5.63,7.07,8.94.24.41.58,1.04,1.09.82.53-.23.54-.94.36-1.47-1.66-4.77-3.69-9.32-7.82-12.56-.86-.68-1.82-1.19-2.78-1.7-1.28-.68-1.31-1.32-.14-2.16,3.37-2.43,7.21-3.17,11.27-2.95,1.82.1,3.66.23,5.34,1.12.48.25.78.48.91,1.03.76,3.22,2.99,5.11,5.97,6.05,1.3.41,1.81,1.22,2.27,2.26,1.38,3.19,1.83,6.57,2.09,10.03ZM265,210.75c-.17-.86-.25-1.75-.74-2.51-.22-.34-.55-.61-.99-.44-.37.14-.46.51-.41.86.16,1.06.32,2.12.53,3.18.07.34.3.64.72.61.39-.03.6-.32.69-.67.09-.33.13-.67.2-1.02Z"/>
      <path class="cls-7" d="M251.22,175.02c5.31-.08,10.59.11,15.57,2.32,1.8.8,2.59,2.47,1.99,4.34-.17.53-.49.38-.81.28-7.39-2.24-13.94.02-20.2,3.78-.89.53-1.76.78-2.81.53-5.46-1.28-10.89-1.11-16.27.49-1.01.3-1.46.02-1.54-1.08-.26-3.54-.09-3.87,3.15-5.29,4.3-1.89,8.55-3.93,13.24-4.73,2.54-.43,5.11-.58,7.68-.64Z"/>
      <path class="cls-7" d="M291.73,182.4c5.64.15,10.93-1.49,16.18-3.26.37-.13.74-.27,1.13-.35.5-.1,1.03-.11,1.28.45.23.5-.14.82-.42,1.17-1.5,1.89-3.3,3.31-5.49,4.41-3.03,1.51-5.57,3.77-7.81,6.29-2.31,2.59-4.73,4.95-8.19,5.86-2.58.68-5.72-1.34-6.23-3.94-.23-1.17.64-1.8,1.37-2.45,1.83-1.61,3.22-3.49,3.57-5.98.06-.39.1-.79.08-1.18-.04-.71.27-.96.96-.95,1.19.01,2.37-.04,3.56-.07Z"/>
      <path class="cls-7" d="M214.62,199.98c-1.23.21-2.21-.52-3.26-.9-5.48-2.03-11.22-3.24-16.74-5.14-.69-.24-1.44-.46-1.35-1.3.08-.82.87-.8,1.52-.83,4.06-.21,8.09-.72,12-1.82,1.6-.45,2.35.11,3.02,1.46,1.29,2.62,3.21,4.74,5.58,6.45.44.32,1.32.43.97,1.4-.34.94-1.11.61-1.75.68Z"/>
      <path class="cls-11" d="M223.59,185.38c-.35,2.37-.37,4.96-1.87,7.23-1.38,2.1-3.24,2.58-5.23,1.01-1.04-.82-1.99-1.79-2.86-2.8-1.16-1.36-.9-2.53.68-3.37,2.32-1.23,4.65-2.41,6.98-3.62,1.55-.8,2.3-.36,2.29,1.55Z"/>
      <path class="cls-11" d="M273.51,182.45c0-.39-.03-.79-.03-1.18,0-1.78.64-2.23,2.27-1.63,2.13.79,4.25,1.61,6.39,2.37,1.11.39,1.43,1.09,1.16,2.18-.59,2.36-2.12,4.01-4.09,5.24-1.48.93-3.47.22-4.31-1.28-.99-1.78-1.41-3.67-1.4-5.69Z"/>
      <path class="cls-12" d="M265,210.75c-.07.35-.11.69-.2,1.02-.1.34-.3.64-.69.67-.41.03-.65-.26-.72-.61-.2-1.05-.37-2.11-.53-3.18-.05-.35.03-.72.41-.86.44-.16.77.1.99.44.49.76.56,1.65.74,2.51Z"/>
    </g>
    <g>
      <g id="y2DOlD">
        <g>
          <path class="cls-12" d="M329.6,107.56c-.75.02-1.47-.22-2.11-.43l-.16-.05c-2.37-.77-4.72-1.83-7.2-3.25-1.73-.99-3.07-2.35-4.38-3.66-.35-.35-.7-.71-1.06-1.05-.32-.31-.62-.63-.91-.94-.6-.64-1.17-1.25-1.86-1.71-.63-.43-1.18-1.02-1.7-1.81-.07-.1-.11-.15-.14-.18-.03,0-.07.03-.14.06-.26.14-.53.24-.76.32-.17.06-.32.12-.45.18-.76.38-1.57.58-2.39.6-.88.02-1.78-.17-2.66-.57l-.44-.2c-2.4-1.09-4.67-2.12-7.13-2.76-.79-.2-1.5-.58-2.19-.95-.2-.1-.39-.21-.59-.31-1.02-.52-1.65-1.51-1.72-2.71-.02-.27-.09-.57-.17-.89-.13-.51-.28-1.11-.21-1.77-.22,0-.45,0-.67.01-.35,0-.7.01-1.05.02-.43,0-.85.02-1.28.04-.33.02-.66.03-.99.04-3.85.09-7.69-.51-11.42-1.76-1.35-.46-2.88-.97-4.38-1.51-2.41-.86-4.5-2.39-6.39-4.67-.31-.38-.65-.83-.85-1.4-.56-1.55-1.11-3.11-1.67-4.66-.19-.52-.17-1.02-.15-1.42.04-1.06.07-2.12.1-3.18.03-1.05.45-1.95.83-2.73.06-.12.12-.25.18-.38,1.35-2.92,3.09-5.83,5.5-9.14,1.05-1.45,1.86-3.01,2.72-4.67.3-.58.6-1.17.92-1.74,2.06-3.81,4.29-6.83,6.81-9.23.32-.31.73-.53,1.25-.69,1.41-.42,2.8-.65,4.12-.68,2.83-.06,5.47.73,8.07,2.42,5.7,3.72,8.95,9.16,9.93,16.6l.12.9c.25,1.95.51,3.97.98,5.9.72-.34,1.49-.53,2.31-.54.59-.01,1.21.06,1.85.22,1.23.3,2.15.97,2.73,1.99.3.53.58,1.1.92,1.85.46,1,.91,1.18,1.63,1.16.11,0,.22-.01.33-.02.28-.03.55-.05.81-.05,2.28-.05,4.13.8,5.49,2.54,3.37-2.43,7.14-4.12,10.06-5.33,3.41-1.41,6.72-2.16,9.82-2.23.22,0,.44,0,.66,0,4.26.04,7.09,2.18,8.2,6.19.69,2.48,1.37,5.75.56,9.1-.56,3.4-1.63,6.49-2.49,8.8-.2.54-.33.98-.4,1.38-1.14,6.13-4.34,11.36-9.5,15.55-1.9,1.54-4.18,2.46-6.36,3.22-.29.1-.59.15-.92.16Z"/>
          <path class="cls-12" d="M348.45,78.27c-.5,3.05-1.41,5.88-2.45,8.68-.19.5-.35,1.01-.44,1.53-1.15,6.19-4.38,11.14-9.2,15.05-1.78,1.44-3.94,2.32-6.11,3.08-.86.3-1.8-.05-2.65-.33-2.46-.8-4.79-1.89-7.04-3.18-2.07-1.19-3.59-2.97-5.27-4.59-.95-.92-1.76-1.98-2.88-2.74-.59-.4-1.07-.97-1.46-1.57-.37-.57-.78-.74-1.4-.39-.37.2-.8.3-1.18.49-1.45.72-2.93.65-4.33.02-2.52-1.14-5.01-2.3-7.71-3.01-.91-.24-1.75-.76-2.6-1.19-.81-.41-1.21-1.16-1.26-2.01-.06-1.04-.7-2.03-.22-3.13.14-.32-.2-.35-.46-.34-1.2.03-2.4.03-3.59.09-4.14.22-8.16-.36-12.1-1.68-1.46-.49-2.92-.99-4.37-1.51-2.48-.88-4.39-2.44-6.03-4.42-.29-.35-.55-.72-.71-1.15-.56-1.55-1.11-3.1-1.67-4.66-.13-.36-.12-.73-.1-1.1.04-1.06.07-2.13.1-3.19.02-1.02.51-1.88.93-2.77,1.48-3.2,3.35-6.15,5.42-9,1.47-2.02,2.51-4.31,3.7-6.51,1.78-3.29,3.9-6.4,6.65-9.02.26-.24.57-.39.91-.49,4.08-1.21,7.83-.74,11.49,1.64,5.85,3.82,8.67,9.32,9.55,16.01.31,2.34.57,4.69,1.13,6.99.15.64.37.86,1.02.53,1.19-.61,2.44-.65,3.73-.34.96.23,1.71.74,2.19,1.59.33.58.62,1.18.89,1.78.59,1.3,1.38,1.78,2.82,1.63,2.32-.26,4.25.42,5.68,2.33.28.38.56.35.88.11,3.09-2.26,6.53-3.9,10.04-5.34,3.22-1.33,6.65-2.2,10.15-2.17,3.71.03,6.35,1.8,7.4,5.57.81,2.92,1.25,5.81.55,8.7Z"/>
        </g>
      </g>
      <path class="cls-12" d="M348.45,78.27c-.51,3.05-1.41,5.88-2.46,8.68-.19.5-.35,1.01-.45,1.53-1.15,6.19-4.38,11.14-9.2,15.05-1.78,1.44-3.94,2.32-6.11,3.08-.86.3-1.8-.05-2.65-.33-2.46-.8-4.79-1.89-7.04-3.18-2.08-1.19-3.59-2.97-5.27-4.59-.95-.92-1.76-1.98-2.88-2.74-.59-.4-1.07-.97-1.46-1.57-.37-.57-.77-.74-1.4-.39-.37.2-.8.3-1.18.49-1.44.72-2.93.65-4.33.02-2.52-1.14-5.01-2.3-7.71-3.01-.91-.24-1.75-.76-2.61-1.19-.81-.41-1.21-1.16-1.26-2.01-.06-1.04-.7-2.03-.22-3.13.14-.32-.2-.34-.46-.34-1.2.03-2.39.03-3.59.09-4.14.22-8.16-.36-12.1-1.69-1.46-.49-2.92-.99-4.37-1.51-2.47-.88-4.39-2.44-6.02-4.42-.29-.35-.56-.71-.71-1.15-.56-1.55-1.11-3.1-1.67-4.66-.13-.36-.12-.73-.1-1.1.04-1.06.07-2.13.1-3.19.02-1.02.51-1.88.92-2.78,1.48-3.2,3.35-6.15,5.42-9,1.47-2.02,2.51-4.31,3.7-6.51,1.78-3.29,3.9-6.4,6.65-9.02.26-.24.57-.39.9-.49,4.08-1.21,7.84-.74,11.49,1.64,5.85,3.82,8.67,9.32,9.55,16.01.31,2.34.57,4.69,1.13,6.99.16.64.37.86,1.02.53,1.19-.61,2.44-.65,3.73-.34.96.23,1.71.73,2.19,1.59.33.58.62,1.18.89,1.78.59,1.3,1.38,1.79,2.82,1.63,2.32-.25,4.25.42,5.67,2.33.28.38.56.35.88.11,3.09-2.26,6.53-3.89,10.04-5.34,3.22-1.33,6.66-2.2,10.15-2.17,3.71.03,6.35,1.8,7.4,5.57.81,2.92,1.25,5.81.55,8.7ZM317.59,75.91c.38-2.34-.32-3.4-2.51-3.94-.46-.12-.95-.1-1.42-.17-1.43-.2-2.99-.07-4.08-1.28-.8-.89-1.58-1.83-2.05-2.93-.58-1.34-1.37-1.59-2.78-1.03-.88.35-1.69.89-2.49,1.41-.64.41-.97,1.02-.96,1.82.02,1.19-.18,1.45-1.39,1.53-1.68.1-3.19-.55-4.6-1.35-1.36-.77-2.6-1.75-3.91-2.62-1.05-.7-1.95-1.55-2.75-2.53-3.15-3.88-4.41-8.55-5.53-13.27-.21-.89-.23-1.86-.13-2.78.3-2.66,1.45-4.29,4.44-3.94,2.02.23,3.43,1.35,4.57,2.88.42.56.64,1.28.75,2,.06.4-.11.68-.46.84-.38.18-.58-.08-.78-.35-.34-.44-.71-.86-1.05-1.3-.99-1.28-2.34-1.87-3.91-2.07-.88-.11-1.58.42-1.65,1.31-.02.24,0,.48.02.72.2,1.93.57,3.83.94,5.74.28,1.45.9,2.79,1.83,3.95.46.58,1.06,1.06,1.48,1.66,1.66,2.41,3.86,4.23,6.27,5.83.53.35,1.1.65,1.69.9,1.28.55,2.47.33,3.19-.56.57-.7.53-1.55.41-2.36-.37-2.49-.59-5.01-1.18-7.47-.78-3.32-1.61-6.57-4.18-9.05-.25-.24-.4-.56-.63-.82-2.52-2.87-5.47-4.84-9.5-4.63-1.12.06-2.23.12-3.25.69-2.04,1.15-3.71,2.67-4.74,4.8-1.12,2.32-2.31,4.59-3.36,6.95-1.24,2.79-3.04,5.29-4.9,7.73-1,1.31-2,2.64-2.73,4.12-.48.96-.99,1.95-.63,3.12.89,2.86,1.93,5.53,4.7,7.29,1.66,1.05,3.3,1.99,5.19,2.51,1.74.48,3.52.87,5.21,1.49,1.41.52,2.84.85,4.31,1.1,2.55.42,5.09.24,7.64.07,1.24-.08,2.49-.24,3.67-.71.42-.17.86-.34,1.06-.79.82-1.81,1.98-3.45,2.67-5.34.51-1.39,1.14-2.74,1.89-4.02.14-.24.29-.48.6-.43.38.07.38.4.38.69,0,.4.03.8-.02,1.19-.63,4.54-3.25,8-6.17,11.29-.15.17-.36.3-.64.24-1.32-.31-1.79.07-1.73,1.43.07,1.87,1.04,3.04,3.07,3.37,1.26.2,2.42.6,3.55,1.11,1.35.62,2.84.89,4.07,1.8.5.36,1.2.4,1.77.14,1.49-.67,2.99-1.32,4.08-2.66,2.53-3.12,4.13-6.74,5.74-10.36.43-.97.74-2,.86-2.94ZM324.36,81.77c-1.85-.29-3.26-.57-4.71-.45-.49.04-.76.25-.91.72-1.2,3.61-3.52,6.52-5.89,9.39-.35.43-.41.62-.03,1.03,1.89,1.98,3.73,4.01,5.62,5.99,1.21,1.27,2.38,2.67,3.96,3.43,2.36,1.12,4.9,1.77,7.51,2.03.9.09,1.87.18,2.69-.44,1.27-.96,2.51-1.95,3.63-3.1,2.67-2.76,4.91-5.78,6.26-9.42,1.2-3.21,2.25-6.45,3.05-9.79.5-2.09,1.1-4.15,1.18-6.31.02-.54-.03-1.07-.2-1.57-.38-1.13-.72-2.29-1.19-3.38-.47-1.09-1.22-2.11-2.32-2.52-2.82-1.05-5.69-.71-8.54.07-2.6.71-4.98,1.99-7.48,2.93-2.05.77-4.1,1.67-5.49,3.54-.56.75-.35,1.27.58,1.42.28.04.53-.01.78-.11.39-.16.77-.14.94.29.16.4-.11.64-.47.79-.66.28-1.31.59-1.98.85-.47.18-.78.48-.78.99,0,.51.46.51.8.63.5.19,1,.35,1.5.55,1.45.56,2.98.85,4.51.91,2.5.09,5-.05,7.43-.73,3.1-.88,5.66-2.52,7.31-5.39.64-1.11.3-1.92-.9-2.27-.63-.18-1.27-.13-1.9-.22-.58-.08-1.19-.16-1.2-.9-.01-.73.55-.97,1.17-1.07.74-.12,1.48-.14,2.22-.12,1.31.03,2.42.45,3.12,1.59.79,1.29.25,2.62-.42,3.61-1.93,2.86-4.55,4.96-7.88,6.06-1.37.46-2.79.65-4.23.74-2.72.16-5.43.9-7.74.26Z"/>
      <path class="cls-13" d="M317.59,75.91c-.12.94-.43,1.97-.86,2.94-1.61,3.62-3.21,7.24-5.74,10.36-1.09,1.35-2.59,1.99-4.08,2.66-.57.26-1.28.22-1.77-.14-1.23-.91-2.72-1.18-4.07-1.8-1.13-.52-2.29-.91-3.55-1.11-2.04-.33-3-1.49-3.07-3.37-.05-1.36.41-1.74,1.73-1.43.28.07.49-.06.64-.24,2.92-3.29,5.54-6.75,6.17-11.29.05-.39.02-.8.02-1.19,0-.3,0-.62-.38-.69-.32-.06-.47.19-.6.43-.75,1.28-1.39,2.63-1.89,4.02-.69,1.89-1.85,3.53-2.67,5.34-.2.45-.64.62-1.06.79-1.18.47-2.43.62-3.67.71-2.54.17-5.09.34-7.64-.07-1.48-.24-2.9-.58-4.31-1.1-1.69-.62-3.47-1.01-5.21-1.49-1.89-.52-3.53-1.46-5.19-2.51-2.78-1.75-3.81-4.42-4.7-7.29-.36-1.16.15-2.15.63-3.12.73-1.48,1.73-2.8,2.73-4.12,1.86-2.44,3.67-4.94,4.9-7.73,1.05-2.36,2.23-4.64,3.36-6.95,1.03-2.13,2.7-3.65,4.74-4.8,1.01-.57,2.13-.63,3.25-.69,4.02-.21,6.98,1.77,9.5,4.63.23.26.38.59.63.82,2.57,2.48,3.4,5.74,4.18,9.05.58,2.47.8,4.98,1.18,7.47.12.82.16,1.66-.41,2.36-.72.89-1.9,1.11-3.19.56-.58-.25-1.16-.55-1.69-.9-2.4-1.6-4.61-3.41-6.27-5.83-.42-.61-1.02-1.08-1.48-1.66-.93-1.16-1.54-2.5-1.83-3.95-.37-1.9-.75-3.8-.94-5.74-.02-.24-.04-.48-.02-.72.07-.89.77-1.42,1.65-1.31,1.57.2,2.92.78,3.91,2.07.34.44.72.86,1.05,1.3.21.27.4.53.78.35.34-.16.52-.45.46-.84-.11-.72-.33-1.43-.75-2-1.15-1.52-2.56-2.64-4.57-2.88-2.98-.34-4.14,1.28-4.44,3.94-.1.91-.08,1.89.13,2.78,1.12,4.72,2.38,9.39,5.53,13.27.79.98,1.69,1.83,2.75,2.53,1.31.87,2.55,1.84,3.91,2.62,1.4.8,2.91,1.45,4.6,1.35,1.2-.07,1.41-.34,1.39-1.53-.02-.8.32-1.41.96-1.82.8-.52,1.61-1.06,2.49-1.41,1.41-.56,2.2-.32,2.78,1.03.47,1.1,1.25,2.04,2.05,2.93,1.09,1.21,2.65,1.08,4.08,1.28.47.07.96.05,1.42.17,2.2.55,2.89,1.61,2.51,3.94ZM289.84,76.47c.11.02.21.03.32.05.57.07,1.22.13,1.4-.56.2-.74-.52-.83-.99-1-1.45-.53-2.83-1.21-4.19-1.93-2.36-1.24-4.43-2.79-5.71-5.22-.45-.86-1.26-.98-1.98-.35-.46.4-.89.84-1.26,1.32-1.37,1.8-.96,4.1.86,4.94.31.14.64.35.96.05.32-.3.1-.62.02-.95-.15-.61-.49-1.19-.4-1.85.11-.75.5-.94,1.08-.52.43.31.89.57,1.23,1,2.23,2.81,5.41,3.98,8.67,5.01ZM297.03,58.75c.06-.63-.15-1.27-.34-1.9-.33-1.09-.83-2.12-1.46-3.07-.2-.3-.49-.69-.98-.47-.47.22-.41.6-.28,1.02.53,1.65,1.45,3.11,2.18,4.67.09.19.23.38.49.34.29-.05.34-.3.39-.59ZM324.36,81.77c2.31.64,5.01-.09,7.74-.26,1.44-.09,2.86-.28,4.23-.74,3.33-1.11,5.95-3.21,7.88-6.06.67-.99,1.21-2.32.42-3.61-.7-1.15-1.81-1.57-3.12-1.59-.75-.02-1.49,0-2.22.12-.62.1-1.18.35-1.17,1.07.01.74.62.82,1.2.9.63.09,1.27.04,1.9.22,1.19.35,1.53,1.16.9,2.27-1.64,2.87-4.2,4.52-7.31,5.39-2.42.69-4.93.82-7.43.73-1.53-.05-3.06-.34-4.51-.91-.5-.19-1-.36-1.5-.55-.33-.12-.79-.13-.8-.63,0-.51.31-.81.78-.99.67-.26,1.32-.57,1.98-.85.36-.15.62-.39.47-.79-.17-.44-.54-.45-.94-.29-.25.1-.5.15-.78.11-.94-.15-1.14-.67-.58-1.42,1.39-1.87,3.44-2.77,5.49-3.54,2.51-.94,4.89-2.21,7.48-2.93,2.84-.78,5.71-1.12,8.54-.07,1.1.41,1.85,1.43,2.32,2.52.47,1.1.81,2.25,1.19,3.38.17.51.22,1.03.2,1.57-.08,2.16-.68,4.22-1.18,6.31-.8,3.34-1.85,6.58-3.05,9.79-1.36,3.64-3.6,6.66-6.26,9.42-1.11,1.15-2.36,2.14-3.63,3.1-.82.62-1.79.53-2.69.44-2.61-.27-5.15-.92-7.51-2.03-1.59-.75-2.75-2.16-3.96-3.43-1.89-1.98-3.73-4-5.62-5.99-.38-.4-.33-.6.03-1.03,2.37-2.87,4.69-5.79,5.89-9.39.16-.47.42-.68.91-.72,1.45-.13,2.86.16,4.71.45ZM319.1,87.34c-.32-.04-.68-.09-.85.25-.2.4.1.64.39.85.17.13.35.25.54.34,1.42.65,2.92.97,4.48,1.03,1.06.05,2.12.05,3.18-.1.25-.04.58-.06.65.29.07.35-.17.53-.47.64-.1.04-.21.05-.31.09-.24.09-.6.06-.58.42.02.33.3.52.6.55.82.09,1.65.1,2.42-.28.83-.41,1.17-.99.98-1.7-.25-.93-1.18-1.8-1.94-1.71-3.07.34-6.09.06-9.09-.67ZM336.02,71.23c.05-.32-.03-.58-.32-.75-.31-.18-.63-.26-.99-.23-2.09.18-3.93,1.06-5.75,2-.39.2-.65.54-.89.9-.09.14-.16.28-.04.44.12.16.28.11.44.06.2-.07.4-.14.6-.22,1.7-.72,3.41-1.34,5.29-1.39.34,0,.69-.09,1.02-.18.32-.09.57-.28.64-.64Z"/>
      <g>
        <path class="cls-14" d="M279.09,79.44c-.16-2.3-1.19-4.17-2.96-5.62-.97-.8-2.09-1.28-3.42-1.29-1.67.1-3.01.81-3.88,2.34-.08.15-.14.29-.17.44.48.51,1.04.98,1.7,1.39,1.66,1.05,3.3,1.99,5.19,2.51,1.16.32,2.34.6,3.49.94.06-.16.07-.39.05-.71Z"/>
        <path class="cls-14" d="M296.38,81.17c.42-.17.86-.34,1.06-.79.33-.73.72-1.44,1.11-2.14-.11-.17-.25-.36-.43-.6-1.11-1.49-3.1-2.11-4.86-1.51-2.19.75-3.46,2.37-3.42,4.34.02.7.11,1.2.31,1.54.85-.04,1.7-.09,2.56-.15,1.24-.08,2.49-.24,3.67-.71Z"/>
        <path class="cls-14" d="M306.71,91.94c.35-.63.31-1.29.11-1.96-.66-2.18-2.31-3.22-5.08-3.17-.33,0-.67-.02-1,.03-1.12.18-2.17.55-2.92,1.46-.13.15-.29.34-.29.51,1.25.2,2.41.6,3.53,1.11,1.35.62,2.84.89,4.07,1.8.44.32,1.04.39,1.57.22Z"/>
        <path class="cls-14" d="M317.59,75.91c.38-2.34-.32-3.4-2.51-3.94-.46-.12-.95-.1-1.42-.17-.4-.06-.81-.09-1.22-.13-.46.12-.84.38-1.13.81-.41.6-.81,1.21-1.09,1.88-1.49,3.53,1.01,7.22,5.03,7.14.1.01.19.02.28.02.41-.89.81-1.78,1.21-2.68.43-.97.74-2,.86-2.94Z"/>
        <path class="cls-14" d="M272.13,60.28c-.01.36.01.73.02,1.09-.08,2.17.69,3.98,2.35,5.4,1.09.93,2.44,1.28,3.72,1.12.15-.15.3-.29.46-.43.5-.43,1.03-.51,1.46-.24.68-.42,1.28-1.02,1.69-1.8,1.6-2.99-.25-8.02-3.41-9.25-3.21-1.25-6.15.67-6.29,4.11Z"/>
        <path class="cls-14" d="M325.52,87.49c2.91-.06,4.82-1.83,4.72-4.38-.05-1.23-.22-1.36-1.46-1.17-.33.05-.67.06-1,.07-.52.02-1.04.03-1.56,0-.1,0-.2,0-.29-.01-.06,0-.13,0-.19-.01-.03,0-.06,0-.09,0-.83-.06-1.65-.19-2.46-.41-.59-.09-1.14-.17-1.66-.23-.29.12-.53.37-.72.75-.76,1.44-.53,3.01.69,4.11,1.15,1.03,2.56,1.29,4.04,1.28Z"/>
        <path class="cls-14" d="M338.69,95.01c.33-2.84-1.8-5.04-4.44-4.56-.78.14-1.45.57-2.18.86-1.2.47-2.34,1.1-3.34,1.9-1.32,1.06-1.69,3.04-1.02,4.76.75,1.9,2.45,3,4.53,2.95,2.58-.07,6.15-3.33,6.45-5.9Z"/>
        <path class="cls-14" d="M345.54,81.15c.24-1.02.51-2.03.73-3.05-.9.02-1.71.33-2.28,1.03-1.03,1.28-1.99,2.62-2.55,4.19-.24.69-.48,1.37-.45,2.11.02,1.53.91,2.92,2.21,3.53.9-2.56,1.7-5.16,2.33-7.81Z"/>
        <path class="cls-14" d="M291.41,67.34c-1-.67-1.87-1.47-2.64-2.4-.03.05-.06.1-.09.16-.27.6-.37,1.23-.33,1.89.14,2.23,1.22,3.94,3.05,5.12,1.94,1.24,4.11,1.06,5.41-.29.53-.55.63-.73.28-1-.61-.24-1.21-.54-1.78-.86-1.36-.77-2.6-1.75-3.91-2.62Z"/>
        <path class="cls-14" d="M285.71,42.51c.24.53.47,1.07.75,1.58.15.28.35.54.61.71.12,0,.24.01.37.03,1.13.13,2.06.54,2.87,1.14,1.16.41,2.26.15,3.37-.45-2.22-2.18-4.82-3.6-8.15-3.5.03.13.09.29.18.5Z"/>
      </g>
    </g>
  </g>
</svg>