<?xml version="1.0" encoding="UTF-8"?>
<svg id="Layer_1" data-name="Layer 1" xmlns="http://www.w3.org/2000/svg" xmlns:xlink="http://www.w3.org/1999/xlink" viewBox="0 0 376.46 284.11">
  <defs>
    <style>
      .cls-1 {
        filter: url(#drop-shadow-1);
      }

      .cls-2 {
        fill: #e5819c;
      }

      .cls-3 {
        fill: #fff;
      }

      .cls-4 {
        fill: #a177b4;
      }

      .cls-5 {
        fill: #f9f0d6;
      }

      .cls-6 {
        fill: #512845;
      }

      .cls-7 {
        fill: #f2b7c5;
      }

      .cls-8 {
        fill: #4d384e;
      }
    </style>
    <filter id="drop-shadow-1" x="0" y="0" width="374.53" height="284.06" filterUnits="userSpaceOnUse">
      <feOffset dx="6.7" dy="6.7"/>
      <feGaussianBlur result="blur" stdDeviation="0"/>
      <feFlood flood-color="#231f20" flood-opacity=".2"/>
      <feComposite in2="blur" operator="in"/>
      <feComposite in="SourceGraphic"/>
    </filter>
  </defs>
  <g id="LrxKSE" class="cls-1">
    <g>
      <path class="cls-3" d="M367.78,66.17c-.14,1.84-.66,4.21-2.03,6.71.33,4.73-1.37,9.36-4.77,12.76-5.01,4.82-10.97,7.28-17.44,7.28-.47,0-1.61-.05-1.7-.05-2.41,1.8-4.87,2.69-6.19,3.17-5.15,1.94-10.26,2.74-14.7,3.4-1.61.28-3.21.52-4.82.8-4.73.95-9.5,1.89-14.32,2.74-1.18.24-2.46.38-3.73.57-1.04.14-2.03.24-2.98.47-1.42.38-3.31,1.18-5.29,2.08-1.13.47-2.27.99-3.4,1.46-4.63,1.89-8.89,5.58-12.48,8.93-1.65,1.56-3.12,3.54-4.21,5.72l-.14.38c-.52,1.42-1.42,3.73-3.17,6.05-3.03,3.88-6.33,7-9.93,9.45v.09c-.14.47-.33.9-.52,1.37,0,.38-.05.76-.05,1.18l-.09.57c-.05.57-.09,1.37-.33,2.36.09,4.44-1.8,9.17-6.76,12.9-1.09.9-2.27,1.75-3.36,2.46.05.19.14.33.19.52,2.93,4.44,2.84,9.12,2.84,10.92.05,1.56.19,2.69.33,3.78.43,2.98-.05,5.48-.66,7.37.19.8.38,1.46.52,2.03.05.33.14.66.24.99,1.8,6.29-.43,10.87-1.23,12.62-1.32,3.45-2.93,6.57-4.96,9.41-3.12,4.68-7.33,7.47-10.21,9.17-1.56.99-3.73,2.41-5.1,3.92-1.37,1.46-2.74,2.65-4.16,3.54-.61,1.42-1.32,2.79-2.13,3.97.28.43.57.8.8,1.18,2.55,4.35,3.12,9.69,1.65,14.98-2.36,8.22-7.7,14.09-15.17,16.78-5.58,4.59-11.82,7-18.86,7.37-.38.05-.9.09-1.42.14-1.56.14-3.17.28-4.77.28-.61,0-1.23,0-1.89-.05-2.27-.19-5.96-.47-9.88-1.99-2.93,1.65-5.86,2.69-8.6,3.5-2.32.71-4.82,1.37-7.56,1.75-.95.71-1.99,1.32-3.17,1.89-3.97,2.03-8.27,3.03-12.81,3.03-3.45,0-6.9-.57-10.63-1.75-.85-.24-1.75-.52-2.74-.85-1.94,1.32-4.44,2.41-7.66,3.12-1.32.24-2.36.33-3.36.33-.57,0-1.13-.05-1.7-.09-1.23.09-2.32.14-3.4.28-1.13.09-2.13.14-3.12.14-6.43,0-12.34-2.13-17.11-6.19-3.54-2.98-5.48-6.62-6.85-9.97-2.88-1.09-5.44-2.36-7.75-3.97-3.26-.28-6.05-1.37-8.22-2.46-5.01-.19-13.47-1.28-19.57-8.93-3.02-3.73-4.77-8.08-5.15-12.71-.47-.57-1.61-1.98-1.61-1.98l-.33-.43c-1.75-2.41-2.98-5.2-3.69-8.46-.8-3.73-.57-7.33.61-10.63-.8-1.56-1.32-3.17-1.61-4.87-2.6-3.12-4.3-6.38-5.48-8.79-2.22-4.87-2.32-10.63-.24-15.46.14-.28.28-.57.43-.85,0-1.13.14-2.27.43-3.5-.8-.38-1.51-.76-2.22-1.18-.28-.19-.9-.52-1.51-.9-3.02-1.7-6.76-3.83-10.11-7.61-3.59-3.97-5.53-9.07-5.39-14.42,0,0-.05-.28-.43-.9-4.96-9.12-7.09-18.91-8.74-26.75C.19,117.03-.42,106.87.28,95.38c.85-13.94,5.06-27.7,12.9-42.07,2.32-4.35,5.34-7.66,7.99-10.59.66-.76,1.37-1.51,2.03-2.27,8.18-9.45,18.67-14.65,27.89-18.76,2.55-1.13,5.1-2.17,7.66-3.26,1.84-.8,3.73-1.56,5.58-2.36.43-.19.66-.38.95-.57l.76-.43c2.17-1.28,4.25-2.74,6.43-4.3,2.98-2.08,6.33-4.49,10.12-6.52,2.22-1.23,4.58-2.13,6.33-2.79,2.27-.95,5.01-1.46,7.89-1.46,2.41,0,4.54.38,6.05.66l.71.09c1.42.24,2.84.71,4.11,1.32h1.32c6.14,0,12.15.9,17.87,2.69,1.23.38,2.55.71,3.88,1.09,2.17.57,4.4,1.18,6.57,1.89,4.44,1.42,7.66,4.21,9.59,5.91,2.69,2.36,5.81,6.76,5.1,13.94-.76,8.51-7.09,15.46-15.31,16.97-1.51,2.46-3.73,4.58-6.48,6.19-2.13,1.18-4.16,2.08-6.43,2.88-2.55.85-4.92,2.22-7.42,4.16,4.25,2.93,7.28,6.38,9.17,10.49.76,1.23,1.28,2.55,1.61,3.92h1.23c2.22,0,4.44.05,6.71.19,3.59.19,7.04.71,10.4,1.56,1.99-3.4,4.44-5.39,6.81-6.52.19-.38.38-.71.52-1.09,1.8-3.54,4.68-6.19,8.13-7.47,1.61-4.07,3.45-7.75,5.2-11.25l.57-1.09c2.84-5.72,6.95-10.49,12.95-15.03,11.11-8.41,24.72-17.72,41.26-23.07.95-.28,1.8-.66,2.65-.99,2.5-.99,5.62-2.27,9.5-2.79.95-.14,1.94-.33,2.98-.47,2.41-.43,5.15-.95,8.13-1.09.9-.05,1.61-.05,2.32-.05,2.55,0,5.1.19,7.66.38l2.08.14c5.81.43,11.3,1.32,16.59,2.22l2.22.33c3.4.52,6.33,1.32,9.03,2.55.47.19,1.04.28,1.61.38,1.61.38,3.88.85,6.29,1.89,1.42.57,2.84,1.09,4.25,1.56,1.32.43,2.6.85,3.88,1.37,2.36.85,4.73,1.84,7.09,2.79l1.51.61c3.03,1.23,6,2.46,8.93,3.83,8.79,4.06,17.06,9.12,24.48,15.03,2.74,2.17,5.58,4.25,8.41,6.33,1.7,1.28,3.45,2.55,5.2,3.88,2.46,1.84,4.77,3.97,7.09,6.52,4.58,5.06,5.25,10.02,4.96,13.28Z"/>
      <path class="cls-3" d="M351.57,71.23c.33.57.52,1.23.71,1.84.28,1.13.09,2.22-.76,3.07-2.41,2.32-5.29,3.54-8.65,3.36-1.94-.14-3.83-.38-5.72-.61-1.04-.14-1.65.05-1.99,1.23-.57,2.03-2.36,2.69-4.16,3.36-5.67,2.13-11.63,2.51-17.44,3.64-4.73.95-9.41,1.84-14.13,2.69-2.55.47-5.15.61-7.61,1.23-3.64.95-7,2.69-10.49,4.11-6.38,2.65-11.67,7-16.59,11.63-2.84,2.65-5.2,5.86-7,9.41-.71,1.42-1.09,3.12-2.08,4.44-2.03,2.6-4.4,4.87-7.09,6.66-2.27,1.51-4.02,3.36-4.63,6.1-.05.19-.14.38-.19.57-.38,1.13-1.99,1.7-1.99,2.65s.85,1.94.76,3.12c-.09.8-.09,1.56-.52,2.27-.14.24-.47.52-.28.8,1.04,1.7-.28,2.5-1.32,3.31-2.03,1.65-4.3,2.93-6.43,4.44-3.83,2.65-8.13,4.21-12.34,6.1-.28.09-.61.05-.9.09-1.47,1.23-2.93,2.55-5.1,2.27q-.85,2.41.8,3.64c2.36,1.65,2.6,1.61,5.58-.43,3.45-2.32,5.15-2.22,8.79-.09,1.47.9,2.32,2.03,2.74,3.54.05.19.05.38.14.47,1.8,1.56,1.13,3.73,1.32,5.67.09,1.42.24,2.84.43,4.25.14.99-.28,1.89-.66,2.69-.9,1.75-.8,3.5-.09,5.11.66,1.61.85,3.31,1.37,4.92.38,1.32-.57,2.51-.99,3.69-.85,2.32-1.99,4.54-3.4,6.57-1.56,2.32-3.64,3.88-6.05,5.29-3.03,1.84-6,3.92-8.37,6.62-1.13,1.23-2.41,1.94-4.11,1.8-1.04-.14-1.47.28-1.47,1.37,0,4.21-2.6,7.18-5.2,10.07-.9,1.04-2.13,1.61-1.23,3.4.52,1.13.09,2.55.05,3.88,0,.42-.14.8.57.99,4.4,1.09,5.72,3.88,4.73,7.47-1.13,3.97-3.59,6.9-7.85,8.04-.85.24-1.61.71-2.27,1.37-3.31,3.07-7.18,4.68-11.72,4.92-2.17.14-4.3.52-6.48.38-3.45-.28-6.81-.76-9.55-3.21-.05,0-.09-.05-.14-.09-2.27-1.56-2.27-1.61-4.16.38-2.6,2.69-5.96,3.97-9.41,5.01-3.07.9-6.14,1.7-9.36,1.37-.43,0-.8,0-.9.57-.33,1.37-1.47,1.98-2.6,2.55-4.4,2.22-8.93,1.89-13.42.47-3.83-1.18-7.66-2.41-10.97-4.68-.33-.24-.76-.38-1.13-.47-.52-.09-1.18-.38-1.56.09-.43.52.19.9.38,1.32,1.37,3.26-.24,4.87-3.88,5.62-.76.14-1.51-.05-2.27-.05-1.65.09-3.31.19-4.96.38-3.69.38-7.18-.52-10.02-2.93-1.7-1.42-2.65-3.54-3.45-5.62-.52-1.56-1.28-3.12-2.27-4.21-.8-.85-2.32-1.61-3.69-1.98-3.45-1.04-6.52-2.65-9.08-5.2-.28-.28-.61-.38-.99-.28-2.69.8-5.06-.24-7.33-1.56-.9-.52-1.8-.66-2.88-.66-4.06-.09-8.13-.43-10.97-3.97-1.75-2.17-2.5-4.63-2.22-7.37.14-1.51-.43-2.6-1.42-3.64-1.04-1.13-2.03-2.36-3.02-3.59-.76-1.04-1.18-2.22-1.47-3.5-.61-2.79.38-5.01,3.36-6.9.76-.47.61-.62.19-1.18-1.23-1.56-2.36-3.17-3.5-4.77-.9-1.23-1.23-2.6-.9-4.11.24-.85-.05-1.42-.71-1.98-2.65-2.22-4.4-5.06-5.86-8.18-.95-2.03-.61-5.48,1.94-6.33.9-.28.33-.8.19-1.18-.47-1.28-.99-2.51-.52-3.97.43-1.42,1.09-2.46,2.55-2.93,1.42-.43,1.8-1.37,1.28-2.79-.66-1.94.09-4.02-.66-5.96-.14-.38-.05-.8-.43-1.09-1.18.76-2.41.52-3.59.09-1.04-.38-2.03-.8-3.03-1.23-.76.62-1.47.24-2.13-.14-.66-.43-1.47-.61-2.13-1.04-3.12-1.89-6.43-3.4-8.89-6.14-1.32-1.46-2.03-3.21-1.99-5.15.14-2.74-.71-5.25-1.99-7.61-3.97-7.23-5.77-15.22-7.47-23.16-1.89-8.98-2.17-18.2-1.61-27.41.8-13.14,5.1-25.1,11.3-36.49,2.13-3.97,5.48-7.09,8.41-10.49,6.29-7.28,14.65-11.44,23.21-15.27,4.35-1.94,8.74-3.69,13.09-5.58,1.18-.47,2.22-1.18,3.31-1.84,5.48-3.21,10.3-7.42,15.93-10.45,1.51-.85,3.12-1.47,4.73-2.08,2.6-1.04,5.15-.43,7.75,0,.28.05.61.19.8.38,1.04,1.28,2.41,1.28,3.88,1.18,5.67-.33,11.34.28,16.78,1.99,3.36,1.04,6.81,1.8,10.16,2.93,1.99.62,3.54,1.94,5.06,3.26.76.66.71,1.61.61,2.55-.24,2.69-2.32,4.96-4.92,5.2-2.55.24-4.92.95-7.23,2.03-.71.33-1.04.66-.9,1.51.33,1.84-.43,3.17-2.08,4.11-1.37.76-2.79,1.37-4.25,1.89-5.96,2.03-10.97,5.67-15.41,9.97-5.67,5.53-11.39,11.06-16.26,17.35-.52.71-1.37.57-1.94,1.09-.14,1.42-.66,2.79-1.13,4.16.8,0,1.23-.66,1.7-1.13,2.08-1.89,4.44-3.26,7.14-4.11.19-.28.47-.47.85-.28,3.26-1.23,6.66-1.89,10.21-1.32.33.05.61.24.95.33.9.05,1.7.28,2.27,1.09,2.74,1.65,5.06,3.69,6.14,6.81.33.19.47.47.28.85.14.52.24.99.33,1.51.57.43.52.76-.19.95-.85,1.18-2.03,1.65-3.5,1.7-2.08.05-4.02,1.04-6.05,1.42-.33.47-.8.71-1.42.71-.19.28-.43.43-.76.43-.28.52-.8.71-1.32.85-2.03,2.13-.66,4.11,1.18,5.15.43.24.9.43,1.37.66,2.27,1.13,2.88.99,4.3-1.09,1.7-2.46,3.69-4.63,6.52-5.86.99-.47,1.8-.66,2.69.61.66.95,1.8,1.56,1.84,2.98.05.38.61.19.95.14,4.73-.43,9.45-.47,14.23-.19,7.04.38,13.61,2.36,19.57,6.14.43.28.9.52,1.32.76.24-.85.52-1.65.76-2.46-.57-.52-1.13-.99-1.7-1.51-.43-.38-.57-.85-.33-1.37.95-2.03,1.8-4.11,2.88-6.1,1.09-2.08,1.84-2.27,4.06-1.42.8.28,1.28.52,1.56-.71.47-2.32,1.28-4.54,2.36-6.66.57-1.13,1.28-1.37,2.27-.61.8.57,1.61,1.23,2.36,1.89.85.76,1.32.61,1.47-.52,1.04-7.47,4.49-14.04,7.8-20.66,2.17-4.35,5.39-7.56,9.08-10.35,11.49-8.7,23.44-16.54,37.29-20.99,3.31-1.04,6.38-2.79,9.83-3.26,3.36-.47,6.71-1.28,10.07-1.46,3.45-.14,6.95.24,10.4.47,5.91.43,11.72,1.47,17.54,2.41,1.94.28,3.88.71,5.62,1.51,2.65,1.23,5.58,1.28,8.27,2.41,2.79,1.18,5.72,2.03,8.6,3.12,2.79,1.04,5.53,2.17,8.32,3.31,2.79,1.13,5.58,2.27,8.32,3.54,7.8,3.59,15.08,8.04,21.79,13.38,4.54,3.59,9.22,6.9,13.85,10.4,1.94,1.47,3.69,3.12,5.34,4.92,2.17,2.41,1.89,4.21-.61,6.24-1.28.99-1.56,1.7-.8,3.02Z"/>
    </g>
  </g>
  <g id="LrxKSE-2" data-name="LrxKSE">
    <g>
      <path class="cls-7" d="M155.18,92.68c.25-.82.5-1.64.75-2.46.55.18,1.09.37,1.69.57.1-2.03,0-4.02.86-5.86.42-.91,1.11-1.4,2.15-1.37,1.02.02,1.49.62,1.84,1.5.44,1.12,1.01,2.19,1.55,3.28.23.46.56.99,1.12.82.58-.18.29-.77.24-1.19-.11-.9-.28-1.79-.42-2.69-.34-2.17-.35-4.32.3-6.45.47-1.54,1.65-2.62,2.73-2.38,1.55.35,1.44,1.73,1.64,2.89,0,.05,0,.1,0,.15-.16,1.68.01,3.33.38,4.96.22.95-.15,2.53,1.33,2.47,1.51-.06,1.45-1.63,1.51-2.74.23-4.71,1.01-9.28,2.58-13.76,1.66-4.74,3.54-9.33,6.48-13.44.24-.05.51-.04.73-.14,5.65-2.54,11,.12,13.08,5.91.71,1.97,1.72,3.44,3.39,4.56-.49.84-.97,1.69-1.51,2.61,1.46.14,2.75.52,4.05.95,3.07,1.01,3.55,2.98,1.18,5.24-1.73,1.66-3.01,3.82-5.8,4.73,5.03,1.12,5.97,3.83,3.25,7.66-1.86,2.63-4.08,4.87-6.53,6.91-1.01.84-2.14,1.61-.8,3.09.36.39.23.98.17,1.47-.18,1.6-.94,2.84-2.48,3.58.46.4.82.74,1.2,1.05,1.49,1.21,1.66,2.13.66,3.73-.97,1.55-4.06,2.29-4.98,1.07-2.08-2.75-5.13-3.93-8.09-5.26-1.11-.5-2.97.16-3.11,1.08-.2,1.34,1.02,1.59,1.89,1.95.86.35,1.79.51,2.6,1.05,5.93,4,10.5,9.19,13.24,15.79,2.45,5.91,3.87,12.17,5.78,18.26.32,1.03.54,1.97,1.66,2.67.87.55,1.84,1.02,2.67,1.67,1.63,1.28,1.93,3.12.49,4.23-1.24.96-.46,1.44.27,1.98.56.42,1.22.66,1.92.79,1.12.2,2.1.74,2.89,1.55.76.78,1.22,1.71.46,2.71-.72.93-1.76,1.07-2.71.42-.94-.64-1.98-.95-3.04-1.11-1.32-.2-2.71-.39-3.91.52-.23.17-.49.38-.41.75.1.48.43.3.7.24,1.2-.26,2.24.19,3.09.93,2.63,2.29,5.25,4.55,8.55,5.89.85.35,1.11,1.05,1.07,2.18-.08,2.22-1.49,3.56-2.6,5.14-.3.44-.96.89.09,1.34.64.28.62.88.09,1.35-.72.66-1.1,1.56-1.68,2.31-2.59,3.36-5.16,6.76-9.06,8.76-1.43.73-2.94,1.29-4.38,2-.65.32-1.18.88-.95,1.71.21.78.83,1.12,1.6,1.18.81.06,1.62.05,2.42.13,1.74.17,2.66,1.49,2.16,3.17-.18.62-.49,1.22-.84,1.77-1.69,2.69-4.29,4.17-7.14,5.34-.78.32-2.03.54-1.62,1.76.39,1.15,1.45.42,2.22.32.38-.05.82-.41,1.09.03.22.34.03.79-.18,1.15-1.03,1.77-2.63,2.89-4.36,3.89-.37.21-1.17.05-.99.86.15.66.74.75,1.31.84,2.35.38,7.28-2.64,7.98-4.9.04-.14.13-.3.1-.44-.33-1.81.85-2.96,1.91-4.07,1.54-1.63,2.82-3.45,3.87-5.41,1.08-2.02,1.34-4.14.01-6.19-.43-.66-.25-.94.28-1.48,3.43-3.48,6.94-6.88,8.98-11.5.9-2.04,2.01-4.16,4.06-5.34,1.72-.99,3.24-2.14,4.63-3.54,1.42-1.43,3.21-1.06,5-.68,1.4.3,1.38,1.35,1.62,2.33.05.19.13.38.22.56,1.13,2.3.95,4.48-.07,6.85-.94,2.18-1.19,4.46.25,6.76,1.34,2.14,2.45,4.5,1.85,7.22-.53,2.44-1.29,4.87-3.08,6.62-3.5,3.43-7.42,6.32-11.65,8.85-2.57,1.53-5.09,2.08-7.94,1.48-1.77-.37-3.36-.11-4.81,1.09-.68.56-.95,1.16-.78,1.97.15.73.71,1.01,1.41,1.17,2.5.56,3.43,2.48,2.44,4.87-1.35,3.27-3.77,5.69-6.29,8.03-.72.67-1.02,1.3-.78,2.24.3,1.16.27,2.36-.34,3.4-1.39,2.4-2.75,4.83-5.05,6.54-2.78,2.07-5.91,3.48-8.98,5.03-.28.14-.84.09-.76.57.09.52.61.41,1,.44,3.09.17,6.01-.53,8.87-1.63,2.86-1.1,5.43-2.52,7.23-5.18.51-.75,1.38-1.93,2.72-1.35,1.38.6,2.01,1.94,2.14,3.27.26,2.68-1.99,5.71-4.54,6.45-.63.18-1.27.33-1.91.49-1.4.36-2.97.46-3.35,2.33-.04.19-.35.37-.57.47-1.58.67-3.11,1.56-4.75,1.94-4.14.95-8.23.38-12.22-.98-.58-.2-1.15-.48-1.51-.98-.46-.65-1.06-1.33-1.17-2.07-.12-.78.98-.67,1.42-1.11.07-.07.18-.1.25-.16.24-.2.48-.44.36-.76-.15-.42-.49-.19-.76-.12-1.4.36-2.84.33-4.22.13-1.73-.25-3.37-.27-4.95.54.12-1.24.71-2.29,1.39-3.29,1.02-1.5,2.19-2.9,3.08-4.48,2.09-3.71,2.4-7.85,2.45-11.99.01-.94-.08-2.04-.99-2.75.85-1.39.53-2.57-.64-3.6-2.13-1.88-4.64-2.93-7.43-3.28-1.77-.22-2.32.3-2.49,2.11-.38-.61-.96-.64-1.59-.59-3.3.28-6.6.54-9.88,1.04-1.68.26-3.26,1.03-5,.95.03-1.38-.39-1.67-1.85-1.04-3.62,1.56-7.17,3.29-10.19,5.86-1.03.87-1.46.83-2.52-.09-2.86-2.5-5.24-2.66-6.97,1.45-.49,1.17-.75,2.39-1.01,3.62-1.99,1.02-4.26,1.13-6.33,1.88-.43-.69-.89-1.35-1.59-1.79-2.94-1.86-5.88-3.73-9.32-4.61-.7-.18-1.56-.53-2.06-.18-1.59,1.14-2.55-.07-3.7-.73-.96-.55-1.94-1.07-2.93-1.58-.68-.35-1.38-.31-2.19-.11.53.64.94,1.14,1.36,1.64-.15-.01-.31.01-.45-.04-5.73-2.08-11.73-3.03-17.69-4.17-.7-.79-1.67-.86-2.61-.93-.7-.05-1.39-.15-2.09-.26-3.85-.61-7.3-2.39-10.95-3.58-5.21-1.69-9.26-4.9-12.5-9.22-.6-.8-1.02-1.66.13-2.27,1.04-.56.6-.98-.01-1.39-2.05-1.37-3.61-3.22-4.99-5.21-1.17-1.68-2.46-3.35-2.66-5.5-.14-1.46.59-2.27,2.05-2.4.92-.08,1.84-.22,2.91-.35-.52-.88-.98-1.6-1.37-2.35-1.38-2.64-.75-4.11,2.03-4.76.05-.01.1-.03.15-.04.68-.16,1.12-.01,1.34.77.43,1.59.96,3.16,1.45,4.73-1.5.62-2.66,1.73-2.63,3.33.03,2.08.26,4.26,1.38,6.1,2.61,4.28,10.51,7.76,15.42,6.91,2.68-.46,3.88-2.16,4.14-4.78.27-2.71-3.16-6.1-5.44-6.93-2.71-.99-5.28-2.25-7.68-3.84-.51-.34-1.05-.61-1.7-.48-.16-1.79-.14-1.81,1.6-1.63.3.03.6.07.88.16,1.86.61,3.81.81,5.73,1.1.64.1,1.26,0,1.55-.63.31-.67-.26-.97-.7-1.29-.16-.12-.32-.23-.47-.35,2.35.32,4.71.21,7.05-.11,2.12-.29,4.31-.31,6.18-1.58,3.86.26,7.3-.72,10.43-3.09,2.69-2.04,3.64-4.91,3.57-7.93-.09-4.26-2.1-8.1-3.62-12.02-.93-2.41-2.45-4.54-3.91-6.65-1.67-2.42-2.85-5.26-5.48-6.94-.33-.21-1.02-.43-.74-.94.35-.63.97-1.62,1.59-1.44,1.89.54,3.98.85,5.21,2.69.37.55.8,1.03,1.31,1.45.55.45,1.06,1.03,1.85.47.81-.57.95-1.32.65-2.25-.7-2.17-2.32-3.65-3.92-5.07-.79-.7-.64-.88-.06-1.54,2.59-2.93,4.72-6.1,5.67-10.02.59-2.42,0-4.46-1.29-6.38-.53-.8-1.26-1.63-2.47-1.48-1.21-.51-2.39-1.09-3.62-1.52-2.73-.95-5.53-1-8.34-.34-1.35-1-3.84-.79-5.29.2-2.32,1.58-4.1,3.63-5.72,5.89-1.76,2.46-2.87,5.1-2.93,8.13-.02.82-.26,1.37-.91,1.92-1.45,1.26-2.69,2.74-3.75,4.35-.39.6-.71,1.21-.34,2.02.98-.26,1.66-.94,2.27-1.66.57-.67,1.26-1.18,2.08-1.46.47-.16,1.1-.85,1.43.21.26.84,1.18,1.64-.05,2.5-3.07,2.17-6.27,4.2-8.74,7.1-.57.68-.86.42-1.19-.22-.45-.88-.34-1.79-.06-2.64.19-.56.23-1.08.16-1.63-.24-2.13,0-4.21.37-6.32.66-3.76,2.72-6.93,4.08-10.4.43-1.11,1.29-1.94,2.67-1.9.94.03,1.48-.62,1.85-1.34.62-1.2,1.09-2.48,1.71-3.68,2.17-4.16,4.3-8.33,8.18-11.27,1.94-1.47,3.99-2.7,6.2-3.72,1.49-.69,1.68-.61,1.79,1.03.18,2.8.51,5.52,2.82,7.58,1.59,1.42,3.51,2.15,5.4,2.97.53.23.99-.02,1.29-.51.31-.51.21-.99-.2-1.37-.29-.27-.64-.49-.99-.69-1.51-.85-2.84-1.92-3.94-3.26-1.65-1.99-1.8-3.78-.51-5.98.64-1.09,1.7-1.19,2.43-.16.4.57.64,1.25.89,1.91.56,1.47,1.57,2.28,3.06,2.87,2.39.96,4.78.54,7.16.37.86-.06,1.79-.79,1.55-1.89-.19-.89-1.07-1.07-1.84-.74-2.85,1.24-4.98-.46-7.14-1.78-1.83-1.12-2.81-2.84-2.72-5.08.04-1.04-.41-1.49-1.52-1.09-1.13.41-2.06-.1-2.54-1.09-2.21-4.5-3.29-8.98-.8-13.88,3.53-6.95,8.83-11.58,16.37-13.56,2.41-.63,4.88-.91,7.3-.03,2.33.85,4.43,1.97,5.26,4.59.32,1.02.1,1.55-1,1.65-1.57.13-3.07.55-4.59.93-3.79.95-6.42,3.72-9.46,5.85-2.95,2.07-4.32,5.1-5.41,8.35-.41,1.22-.38,2.49-.31,3.76.03.58.3,1.09.93,1.24.59.13.99-.24,1.24-.69.47-.89.92-1.8,1.29-2.73.56-1.42,1.19-2.79,2.07-4.03,1.17-1.65,1.42-1.65,2.54-.03,1.52,2.19,3.34,4.13,5.79,5.21,2.03.9,3.78,1.84,3.96,4.34,0,.1.06.2.11.28.39.57.63,1.47,1.46,1.32.91-.16.78-1.11.73-1.77-.12-1.48,0-2.93.32-4.36.64-2.84,1.53-5.56,3.74-7.63.44-.41.92-.66,1.49-.3.54.34.48.88.28,1.35-.31.74-.24,1.49-.15,2.24.48,3.88,2,7.04,5.85,8.69,1.35.58,2.58.67,3.87,0,.56-.28,1.16-.58,1.05-1.31-.12-.78-.85-.47-1.34-.6-2.46-.68-4.85-1.43-5.74-4.29-.62-2.01-.01-3.06,2.11-3.11,3.03-.07,6.07,0,9.1-.04,3.45-.05,6.85.22,10.14,1.31,4.43,1.47,8.96,2.62,13.16,4.72,1.89.94,3.75,1.91,5.65,2.84.63.31,1.37.68,1.83-.24.4-.8-.21-1.26-.79-1.56-2-1.02-3.53-2.63-5.26-3.98ZM101.34,202.9l.11-.09c.75-.54,1.99-.66,1.73-2.05.18,0,.36,0,.54.01l.07.12h.14c.22.1.44.23.67.32,5.66,2.44,9,1.66,13.01-3.04.13-.15.28-.28.54-.16.04.28.05.59.14.87.87,2.54,2.37,2.82,4.16.82.73-.81,1.29-1.64,1.33-2.78.02-.49.13-1.09.58-1.35,1.9-1.11,4.18-1.53,5.76-3.21,1.35.46,1.95-.65,2.72-1.34,1-.9,1.65-1.99.92-3.35-.51-.96-2.14-1.28-3.58-.75-1.47.53-2.52,1.61-3.59,2.71-1.89,1.94-4,3.71-6.83,3.84-2.05.09-4.12-.28-6.15-.72-2.67-.58-5.36-.69-7.81.7-2.15,1.22-4.48,1.77-6.85,2.13-2.42.37-4.73,0-6.44-2.11-.57-.7-1.4-1.18-2.24-1.52-.76-.31-1.61-.46-2.27.22-.69.72-.55,1.62-.12,2.4.79,1.46,2.12,2.34,3.66,2.74,1.65.43,3.36.69,5.05.93,1,.14,1.47.57,1.7,1.58.31,1.34,1.01,2.5,2.39,3.07.02.12.07.19.2.08.12,0,.23-.02.35-.03l.09.04.04-.11ZM166.46,175.02c6.13-.78,10.78-4.16,13.5-9.38,2.64-5.06,3.56-10.79,2.88-16.62-.15-1.33.09-2.52,1.02-3.64,2-2.42,3.28-5.11,2.28-8.38-.15-.49-.21-.99-.82-1.14-.68-.16-1.01.26-1.34.74-.6.87-1.19,1.75-1.86,2.56-.54.65-1.3.73-2.08.42-.72-.29-1.1-.86-1.19-1.62-.09-.77.4-1.3.77-1.91,2.29-3.77,2.96-7.79,1.61-12.05-.2-.62-.54-1.31-1.32-1.29-.77.02-.54.85-.78,1.31-.16.3-.17.68-.27,1.02-.69,2.13-1.6,4.14-3.33,5.66-.54.48-.93.63-1.67.1-1.24-.9-2.31-2.01-3.85-2.6-3.21-1.23-6.27-2.86-9.89-2.56-1.21.1-2.41.11-3.6.41-.39.1-1.06.31-1.01-.43.07-1.13.04-2.42.58-3.33.4-.68,1.61-.9,2.49-1.26.41-.17.88-.21,1.32-.32.7-.17,1.28-.47,1.13-1.32-.13-.76-.74-.88-1.39-.87-1.31.03-2.63.02-3.94.14-.53.05-.88.04-1.09-.48-.79-1.97-2.36-3.24-3.95-4.5,0-.44-.35-.56-.64-.74-2.03-1.23-4.23-1.93-6.58-2.23-.7-1.3-1.68-2.29-3.17-2.54-1.39-.24-2.8-.4-4.2-.52-4.76-.41-8.96,1.17-13.14,3.29-2.82,1.44-4.45,5.49-3.42,8.37.78,2.19,1.67,4.34,3.13,6.18,2.03,2.55,4.24,4.97,7.44,5.97,1.23.39,1.23.56.68,1.59-.99,1.87-1.57,3.91-1.61,6.06-.02.88.59,1.4,1.27,1.73.63.3.92-.38,1.1-.78,1.23-2.69,3.5-4.36,5.77-6.03.78-.58,3.61-.42,4.27.22.91.88.88,2.06-.17,2.8-1.22.86-2.32,1.88-3,3.17-2.48,4.66-5.38,9.12-6.62,14.37-1.1,4.65-2.03,9.14.21,13.88,1.16,2.45,2.63,4.06,4.95,5.15,3.48,1.64,7.22,2.2,10.99,2.61.88.74,1.76,1.43,2.99,1.49,5.4.29,10.65-.24,15.57-2.69ZM194.31,169.83c.19-3.27-1.16-5.12-3.13-6.51-2.45-1.72-5.5-.78-6.94,1.81-1.65,2.97-3.89,5.51-6.49,7.68-1.01.85-1.99,1.73-2.83,2.72-2.71,3.22-1.66,7.39,2.14,8.73,1.13.4,2.32-.04,3.45.27,1.99.55,3.74.05,5.48-.97,2.21-1.29,3.42-3.47,5.1-5.24,2.55-2.68,2.71-5.93,3.23-8.49ZM105.15,189.34c2.34-.06,4.1-1.22,5.71-2.63,1.54-1.35,2.2-3.59,1.49-4.72-.74-1.17-2.69-1.59-4.71-.73-2.08.89-4.03,1.74-6.41.96-1.06-.35-2.21.32-2.73,1.47-.54,1.19-.23,2.23.73,3.14,1.69,1.6,3.66,2.47,5.92,2.52ZM122.41,158.68c.01,2.14.2,3.99.83,5.75.51,1.46,1.58,1.61,2.6.45.43-.49.55-1.05.55-1.68-.02-1.86-.04-3.71-.27-5.58-.34-2.85,1.03-5.47,1.37-8.24.08-.62.39-1.29-.42-1.71-.8-.41-1.38-.01-1.86.53-.39.45-.67,1-.97,1.52-1.62,2.87-1.62,6.06-1.84,8.95ZM118.02,213.01c5.07.03,9.35-1.5,12.96-4.82.51-.46.9-.86.57-1.67-.58-1.41-1.86-1.83-3.28-.61-3.9,3.33-8.62,4.08-13.44,4.6-.69.08-1.21.24-1.24,1-.03.67.47.99,1.05,1.08,1.19.18,2.34.63,3.38.42ZM97.85,164.52c-.15-2.37-.61-4.68-1.44-6.91-.9-2.44-2.35-4.56-4.18-6.41-.62-.63-1.32-.73-2.02-.23-.76.53-.24,1.08.12,1.54,1.59,2.03,2.07,4.53,2.84,6.89.71,2.17,1.09,4.44,1.65,6.66.21.82.79,1.36,1.64,1.25.83-.11,1.3-.73,1.38-1.58.04-.4,0-.81,0-1.21ZM106.58,212.59c.98.06,1.6-.06,1.83-.86.27-.98-.29-1.58-1.04-1.95-1.29-.64-2.66-1.1-3.95-1.75-.86-.43-1.6-.43-2.03.42-.41.8-.31,1.65.47,2.31,1.45,1.23,3.24,1.49,4.72,1.83Z"/>
      <path class="cls-6" d="M168.87,244.47c1.58-.81,3.22-.79,4.95-.54,1.38.2,2.82.23,4.22-.13.27-.07.61-.3.76.12.12.33-.12.57-.36.76-.08.06-.18.09-.25.16-.45.44-1.55.33-1.42,1.11.12.74.71,1.42,1.17,2.07.36.5.93.78,1.51.98,3.99,1.36,8.08,1.93,12.22.98,1.65-.38,3.18-1.26,4.75-1.94.22-.09.53-.28.57-.47.37-1.87,1.95-1.97,3.35-2.33.64-.16,1.28-.31,1.91-.49,2.55-.75,4.8-3.77,4.54-6.45-.13-1.33-.76-2.67-2.14-3.27-1.33-.58-2.21.6-2.72,1.35-1.8,2.66-4.37,4.08-7.23,5.18-2.86,1.1-5.78,1.81-8.87,1.63-.39-.02-.91.08-1-.44-.08-.48.47-.43.76-.57,3.07-1.54,6.2-2.96,8.98-5.03,2.3-1.71,3.67-4.14,5.05-6.54.6-1.04.63-2.24.34-3.4-.24-.95.06-1.57.78-2.24,2.52-2.33,4.94-4.76,6.29-8.03.99-2.39.06-4.31-2.44-4.87-.7-.16-1.26-.44-1.41-1.17-.17-.8.1-1.41.78-1.97,1.44-1.2,3.04-1.46,4.81-1.09,2.85.6,5.38.05,7.94-1.48,4.23-2.53,8.15-5.43,11.65-8.85,1.79-1.76,2.55-4.18,3.08-6.62.59-2.72-.51-5.07-1.85-7.22-1.44-2.31-1.19-4.59-.25-6.76,1.02-2.36,1.2-4.55.07-6.85-.09-.18-.17-.37-.22-.56-.24-.98-.22-2.04-1.62-2.33-1.79-.38-3.58-.75-5,.68-1.4,1.41-2.91,2.55-4.63,3.54-2.05,1.18-3.16,3.3-4.06,5.34-2.04,4.62-5.55,8.02-8.98,11.5-.53.54-.71.82-.28,1.48,1.33,2.05,1.07,4.17-.01,6.19-1.05,1.96-2.32,3.77-3.87,5.41-1.06,1.12-2.24,2.26-1.91,4.07.03.14-.06.3-.1.44-.7,2.26-5.63,5.28-7.98,4.9-.56-.09-1.16-.18-1.31-.84-.18-.81.61-.64.99-.86,1.73-.99,3.33-2.11,4.36-3.89.21-.36.4-.8.18-1.15-.28-.43-.71-.08-1.09-.03-.77.1-1.83.84-2.22-.32-.41-1.21.83-1.43,1.62-1.76,2.85-1.17,5.44-2.65,7.14-5.34.35-.55.65-1.15.84-1.77.49-1.68-.42-3-2.16-3.17-.8-.08-1.62-.06-2.42-.13-.76-.06-1.39-.4-1.6-1.18-.22-.83.3-1.39.95-1.71,1.44-.71,2.95-1.27,4.38-2,3.9-1.99,6.47-5.39,9.06-8.76.58-.75.95-1.66,1.68-2.31.53-.48.55-1.08-.09-1.35-1.05-.46-.39-.9-.09-1.34,1.1-1.59,2.52-2.92,2.6-5.14.04-1.13-.21-1.84-1.07-2.18-3.3-1.34-5.92-3.6-8.55-5.89-.85-.74-1.89-1.19-3.09-.93-.27.06-.6.24-.7-.24-.08-.37.18-.57.41-.75,1.2-.91,2.59-.72,3.91-.52,1.06.16,2.1.47,3.04,1.11.94.65,1.99.51,2.71-.42.76-.99.31-1.93-.46-2.71-.79-.81-1.77-1.35-2.89-1.55-.71-.13-1.36-.37-1.92-.79-.73-.54-1.5-1.02-.27-1.98,1.44-1.11,1.14-2.95-.49-4.23-.83-.65-1.79-1.11-2.67-1.67-1.11-.7-1.34-1.65-1.66-2.67-1.91-6.09-3.34-12.35-5.78-18.26-2.74-6.6-7.31-11.79-13.24-15.79-.81-.55-1.73-.7-2.6-1.05-.87-.35-2.09-.61-1.89-1.95.14-.93,1.99-1.58,3.11-1.08,2.96,1.33,6.01,2.51,8.09,5.26.92,1.22,4.01.48,4.98-1.07,1-1.6.83-2.53-.66-3.73-.38-.31-.74-.64-1.2-1.05,1.54-.74,2.3-1.98,2.48-3.58.05-.49.19-1.08-.17-1.47-1.34-1.47-.21-2.25.8-3.09,2.46-2.04,4.67-4.29,6.53-6.91,2.72-3.84,1.78-6.54-3.25-7.66,2.79-.92,4.07-3.08,5.8-4.73,2.37-2.26,1.89-4.24-1.18-5.24-1.29-.42-2.58-.8-4.05-.95.53-.92,1.02-1.77,1.51-2.61,1.17-1.8,2.21-3.72,3.55-5.38,3.71-4.63,7.56-9.12,12.04-13.08,4.55-4.03,9.41-7.52,14.97-9.99,2.12-.94,4.26-1.85,6.57-2.2,4.02-.6,8.08-1.03,12.09-1.7,5.01-.84,10.03-.55,15.06-.38,1.09.04,2.18.36,3.26.57.7.14,1.33.58,1.29,1.26-.05.74-.86.55-1.37.53-2.23-.1-4.43.2-6.64.33-.4.02-.84-.02-.93.54-.2.02-.4.04-.59.06-.66-.41-1.3-.61-1.85.17-.38.18-.78.2-1.19.11-1.7-.49-3.31-.21-4.87.56l-.59.07c-.67-.4-1.31-.64-1.84.21-.39.17-.79.18-1.19.09-.48-.45-.91-.49-1.24.17-.28.17-.57.2-.89.13-.49-.43-.91-.48-1.24.18-.29.05-.59.09-.88.14-.34-.44-.52-.27-.64.17-1.61.36-3.21.71-4.82,1.07-.11-.2-.27-.27-.5-.22-1.92.45-3.75,1.16-5.57,1.89-.34.13-.64.33-.59.77-.78.81-1.92.83-2.86,1.3-5.85,2.95-10.38,7.48-14.82,12.13-2.1,2.2-4.23,4.36-5.14,7.39-1.08,1.37-1.5,3.05-2.14,4.62-.33.8.23.89.9.86,1.73-.07,2.19.38,2.13,2.08-.06,1.58-.47,3.09-.87,4.6-.12.46-.6,1.02-.19,1.4.41.38.9-.13,1.36-.3,1.18-.45,2.34-.95,3.56-1.27,2.85-.74,5.27.68,5.18,3.13-.11,2.97-.54,5.93-1.57,8.75-.71,1.95-.75,1.93,1.23,2.56,2.58.82,3.23,1.89,2.75,4.53-.05.3-.1.6-.2.89-1.59,4.28-2.88,8.7-5.76,12.37-.79,1.01-.74,1.56.67,1.76.68.1,1.29.44,1.55,1.26.51,1.6-1.05,4.75-2.75,5.38-.01-.1-.04-.2-.03-.3.05-1.12-.08-2.18-.59-3.22-.78-1.58-1.92-.42-2.9-.47-.9-.05-1.22-.42-.74-1.26.6-1.05,1.19-2.1,1.81-3.14,2.19-3.69,4.21-7.44,4.87-11.77.26-1.74-.69-2.91-2.43-2.95-1.99-.05-2.32-.51-1.4-2.28.99-1.9,1.61-3.91,1.92-6,.17-1.15.5-2.47-.48-3.47-.91-.93-3.13-.72-4.81.31-1.27.78-1.76,1.76-.93,3.16.09.15.13.4.08.57-.64,2.47-1.62,4.7-3.86,6.24-1.35.93-2.57,2.03-3.56,3.43-1.74,2.46-2.78,5.25-4.06,7.92-.5,1.05.24,1.96,1.43,2.27,1.53.4,3.08-.2,4.6.26.58.18,1.07.36,1.26.93.18.55-.04.99-.43,1.49-1.54,1.97-3.95,2.27-6,3.22-1.17.54-1.84,1.15-1.7,2.47.12,1.18.94,1.35,1.92,1.46,1.33.15,2.09,2.07,1.34,3.17-.33.48-.9,1.04-.59,1.62.91,1.67,1.36,3.57,2.55,5.1,1.48,4.72,2.65,9.54,4.51,14.32.34-.45.57-.76.81-1.06,2.58-3.23,5.16-6.46,7.72-9.7.88-1.11,1.89-1.07,3.09-.58,1.41.57,2.99,1.02,3.05,2.84.05,1.6.35,3.13.63,4.79,1.38-1.07,2.46-2.39,4.1-2.89.1.52.55,1.01.15,1.58-1.74,2.46-3.45,4.95-5.25,7.37-.56.75-1.58.84-2.38.52-.91-.36-.14-1.14-.1-1.71.05-.59.3-1.16.41-1.75.35-1.77.82-3.54-.22-5.25-.79-1.3-1.43-1.41-2.45-.32-2.79,2.99-4.56,6.61-6.15,10.31-.28.65-.23,1.45.31,2.15.59.76.98,1.69,1.06,2.64.08.87.51,1.38,1.13,1.84,2.78,2.08,4.43,4.76,4.41,8.33q-.88,2.41.82,3.62c2.33,1.67,2.57,1.65,5.56-.38,3.44-2.33,5.14-2.24,8.79-.1,1.49.88,2.31,2,2.76,3.55.04.15.03.35.13.43,1.81,1.59,1.14,3.74,1.32,5.7.13,1.41.23,2.82.44,4.22.15,1.02-.27,1.91-.68,2.71-.88,1.74-.79,3.5-.1,5.12.68,1.6.89,3.3,1.38,4.93.4,1.32-.57,2.5-1,3.67-.84,2.31-1.98,4.52-3.38,6.58-1.57,2.32-3.67,3.85-6.05,5.3-3.01,1.84-5.99,3.88-8.38,6.58-1.11,1.25-2.42,1.96-4.12,1.79-1.04-.1-1.44.32-1.44,1.38-.03,4.22-2.61,7.18-5.19,10.07-.92,1.03-2.13,1.6-1.26,3.4.56,1.14.12,2.59.07,3.9-.01.4-.17.78.56.96,4.39,1.1,5.73,3.89,4.72,7.47-1.11,3.98-3.61,6.93-7.83,8.06-.88.23-1.61.73-2.3,1.37-3.28,3.07-7.18,4.67-11.69,4.93-2.16.12-4.31.52-6.49.34-3.44-.27-6.82-.76-9.54-3.18-.04-.03-.08-.06-.12-.09q-2.26-1.6-4.18.37c-2.6,2.68-5.93,3.96-9.4,4.99-3.06.91-6.13,1.72-9.38,1.41-.43-.04-.77-.02-.91.53-.33,1.37-1.45,2.02-2.59,2.58-4.4,2.18-8.9,1.87-13.43.45-3.81-1.19-7.62-2.39-10.96-4.69-.32-.22-.73-.36-1.12-.45-.53-.11-1.17-.39-1.58.08-.43.5.22.89.4,1.32,1.38,3.27-.22,4.86-3.9,5.61-.72.15-1.51-.05-2.26-.01-1.66.08-3.3.18-4.96.36-3.67.39-7.19-.52-10.02-2.93-1.67-1.42-2.65-3.55-3.41-5.64-.56-1.53-1.3-3.11-2.29-4.18-.82-.88-2.3-1.62-3.68-2.02-3.44-1.01-6.53-2.64-9.1-5.19-.27-.27-.6-.39-.97-.28-2.73.8-5.07-.25-7.34-1.54-.91-.52-1.8-.68-2.86-.69-4.09-.06-8.13-.39-10.99-3.97-1.73-2.17-2.52-4.63-2.22-7.35.17-1.53-.41-2.59-1.4-3.64-1.07-1.14-2.06-2.36-3.02-3.6-.78-1.01-1.2-2.22-1.48-3.47-.64-2.83.37-5.04,3.36-6.94.76-.48.58-.62.16-1.16-1.2-1.56-2.33-3.17-3.48-4.76-.9-1.25-1.26-2.64-.89-4.14.21-.85-.06-1.4-.72-1.96-2.63-2.24-4.4-5.09-5.86-8.19-.96-2.02-.64-5.46,1.96-6.32.86-.28.32-.81.17-1.21-.49-1.28-.98-2.51-.54-3.95.43-1.41,1.12-2.47,2.57-2.93,1.44-.46,1.8-1.38,1.3-2.8-.68-1.92.09-4.02-.67-5.96-.14-.36-.06-.81-.45-1.07.37-1.7.08-3.05-1.5-4.17-1.27-.9-1.89-2.42-2.44-3.89-.15-.41-.07-.66.2-.94.31-.33.65-.43,1.08-.23.46.21.93.38,1.4.57.39.16.74.16.75-.36,0-1.34.27-2.68-.87-3.83-2.06-2.08-3-4.71-3.33-7.59-.07-.58-.02-1.22.58-1.43.52-.18,1.07.06,1.43.56.29.41.64.78.9,1.21.29.47.63.81,1.22.68.64-.14.55-.7.71-1.17.66-1.96.67-4.05,1.18-6.02.87-3.39,1.97-6.72,2.89-10.09,1.15-4.21,3.48-7.74,6.22-11.04,1,.14,1.49-.35,1.93-1.23,1.4-2.83,2.66-5.78,4.79-8.16,3.25-3.62,7-6.71,10.85-9.67,2.29-1.76,2.31-1.24,1.59-4.05-.55-2.16-.68-4.29-.51-6.45.14-1.75.53-3.47.81-5.21.32-.1.48-.35.6-.63,1.66-3.83,3.89-7.25,7.11-9.97.41-.35.66-.76.51-1.32.81,0,1.22-.64,1.73-1.1,2.08-1.89,4.44-3.28,7.12-4.12.39.18.7.17.83-.31,3.3-1.23,6.68-1.88,10.21-1.3.34.06.65.23.98.34.56.75,1.37.97,2.25,1.05,2.73,1.67,5.04,3.7,6.14,6.83-.21.4-.2.71.31.84.1.51.2,1.02.31,1.53-.3.27-.21.61-.16.94-.89,1.16-2.04,1.66-3.53,1.69-2.09.04-3.99,1.02-6.02,1.42-.68-.19-1.19-.02-1.43.7-.18.28-.44.42-.76.45-.65-.04-1.21.05-1.33.84-2.02,2.15-.63,4.11,1.2,5.14.43.24.9.43,1.35.65,2.31,1.14,2.9.99,4.31-1.07,1.7-2.48,3.7-4.65,6.52-5.87,1.02-.44,1.81-.63,2.68.62.68.98,1.82,1.58,1.88,3,.01.38.61.17.93.14,4.73-.45,9.46-.47,14.2-.22,7.07.39,13.62,2.36,19.61,6.17.42.27.87.49,1.31.73,1.73,1.36,3.26,2.97,5.26,3.98.58.3,1.19.75.79,1.56-.46.92-1.19.55-1.83.24-1.89-.93-3.76-1.9-5.65-2.84-4.2-2.09-8.74-3.25-13.16-4.72-3.29-1.09-6.69-1.36-10.14-1.31-3.03.05-6.07-.02-9.1.04-2.12.05-2.73,1.1-2.11,3.11.89,2.85,3.28,3.6,5.74,4.29.49.14,1.22-.18,1.34.6.11.73-.5,1.03-1.05,1.31-1.3.66-2.53.58-3.87,0-3.86-1.65-5.37-4.81-5.85-8.69-.09-.75-.17-1.5.15-2.24.2-.47.26-1.02-.28-1.35-.57-.36-1.05-.11-1.49.3-2.22,2.07-3.1,4.79-3.74,7.63-.32,1.44-.43,2.88-.32,4.36.05.65.17,1.61-.73,1.77-.83.15-1.08-.76-1.46-1.32-.06-.08-.11-.18-.11-.28-.18-2.5-1.93-3.44-3.96-4.34-2.45-1.08-4.27-3.02-5.79-5.21-1.12-1.62-1.37-1.62-2.54.03-.88,1.25-1.51,2.62-2.07,4.03-.37.93-.81,1.84-1.29,2.73-.24.45-.64.82-1.24.69-.64-.14-.9-.66-.93-1.24-.07-1.26-.1-2.53.31-3.76,1.08-3.25,2.46-6.28,5.41-8.35,3.04-2.13,5.67-4.9,9.46-5.85,1.52-.38,3.03-.8,4.59-.93,1.1-.09,1.32-.62,1-1.65-.83-2.62-2.93-3.74-5.26-4.59-2.43-.88-4.9-.61-7.3.03-7.54,1.98-12.84,6.62-16.37,13.56-2.49,4.9-1.42,9.38.8,13.88.49.99,1.41,1.5,2.54,1.09,1.12-.4,1.56.05,1.52,1.09-.08,2.24.89,3.96,2.72,5.08,2.16,1.32,4.29,3.02,7.14,1.78.78-.34,1.65-.16,1.84.74.24,1.1-.69,1.83-1.55,1.89-2.38.17-4.77.59-7.16-.37-1.48-.6-2.5-1.41-3.06-2.87-.25-.66-.49-1.35-.89-1.91-.73-1.04-1.79-.93-2.43.16-1.29,2.2-1.14,3.99.51,5.98,1.11,1.33,2.43,2.41,3.94,3.26.35.2.7.41.99.69.41.38.51.87.2,1.37-.3.49-.76.74-1.29.51-1.89-.82-3.81-1.55-5.4-2.97-2.31-2.06-2.64-4.78-2.82-7.58-.1-1.64-.3-1.71-1.79-1.03-2.21,1.02-4.26,2.24-6.2,3.72-3.88,2.94-6.01,7.11-8.18,11.27-.62,1.2-1.09,2.48-1.71,3.68-.37.72-.91,1.37-1.85,1.34-1.38-.04-2.23.79-2.67,1.9-1.36,3.46-3.42,6.64-4.08,10.4-.37,2.11-.61,4.19-.37,6.32.06.55.02,1.07-.16,1.63-.29.85-.39,1.76.06,2.64.33.64.61.9,1.19.22,2.47-2.91,5.67-4.93,8.74-7.1,1.23-.87.31-1.67.05-2.5-.33-1.06-.96-.37-1.43-.21-.82.28-1.5.78-2.08,1.46-.62.72-1.29,1.4-2.27,1.66-.37-.8-.05-1.42.34-2.02,1.06-1.61,2.3-3.09,3.75-4.35.64-.56.89-1.1.91-1.92.06-3.03,1.16-5.67,2.93-8.13,1.62-2.26,3.4-4.31,5.72-5.89,1.45-.99,3.94-1.2,5.29-.2.12,1.06-.68,1.37-1.43,1.68-3.72,1.53-6.45,4.16-8.16,7.75-2.21,4.64-.61,9.02,3.93,10.72,8.22,3.07,17.2-3.49,18.93-11.22.09-.42.06-.95-.12-1.34-.65-1.43-.46-3.1-1.35-4.45-.3-.46,0-.87.14-1.29,1.2-.15,1.93.68,2.47,1.48,1.28,1.92,1.88,3.96,1.29,6.38-.95,3.91-3.07,7.09-5.67,10.02-.59.66-.74.84.06,1.54,1.6,1.42,3.22,2.9,3.92,5.07.3.93.16,1.68-.65,2.25-.79.56-1.3-.02-1.85-.47-.51-.42-.94-.9-1.31-1.45-1.23-1.84-3.33-2.16-5.21-2.69-.62-.18-1.24.81-1.59,1.44-.29.51.41.73.74.94,2.63,1.68,3.81,4.52,5.48,6.94,1.46,2.11,2.97,4.24,3.91,6.65,1.52,3.91,3.53,7.76,3.62,12.02.06,3.02-.89,5.89-3.57,7.93-3.12,2.37-6.57,3.36-10.43,3.09-.66-.33-1.39-.17-2.08-.27-2.13-.33-4.37-.49-6.28-1.5-4.12-2.18-7.6-5.03-9.58-9.5-1.76-3.97-2.11-7.84-.37-11.84,1.41-3.25,3.11-6.3,6-9.04-3.74.38-6.53,1.62-8.43,4.51-1.97,2.99-2.49,6.48-3.37,9.84-.55,2.09-.48,4.16-.06,6.3.53,2.63,1.9,4.87,3,7.24.47,1.01,1.09,1.89,1.9,2.69,1.71,1.69,3.86,2.48,6.03,3.27.16.12.31.24.47.35.44.32,1.02.62.7,1.29-.3.64-.92.73-1.55.63-1.92-.29-3.87-.48-5.73-1.1-.28-.09-.59-.13-.88-.16-1.74-.18-1.76-.16-1.6,1.63-.19.97.54,1.66.75,2.51.15.6.13,1.26-.47,1.6-.6.35-.89-.29-1.2-.61-1.08-1.11-1.91-2.4-2.56-3.81-.49-1.58-1.02-3.14-1.45-4.73-.21-.78-.65-.93-1.34-.77-.05.01-.1.03-.15.04-2.78.66-3.42,2.13-2.03,4.76.39.75.85,1.46,1.37,2.35-1.07.13-1.99.27-2.91.35-1.45.13-2.19.94-2.05,2.4.2,2.16,1.49,3.82,2.66,5.5,1.39,1.99,2.95,3.84,4.99,5.21.61.41,1.06.83.01,1.39-1.15.62-.73,1.47-.13,2.27,3.24,4.33,7.29,7.53,12.5,9.22,3.65,1.18,7.1,2.96,10.95,3.58.7.11,1.39.2,2.09.26.95.07,1.91.14,2.61.93.04.41-.14.57-.54.74-1.77.73-3.58.43-5.37.23-2.31-.25-3.55.72-3.53,2.73.01,1.48.8,2.57,1.61,3.66,1.09,1.48,2.46,2.65,4.1,3.53,1.46.78,1.43,1.16.18,2.17-.61.49-.74,1.18-.31,1.88.5.81,1.01,1.62,1.55,2.41,2.92,4.34,6.52,7.82,11.66,9.39,1.49.45,2.95.94,4.31,1.78,1.19.73,2.49,1.35,3.83,1.75,2.61.79,5.26,1.45,7.92,2.06,4.21.96,8.54,1.89,12.7.23,3.09-1.23,5.44-1.06,7.38,1.75.11.16.31.25.48.37,3.08,2.14,6.56,3.31,10.14,4.24,2.16.55,4.3.59,6.43-.08.37-.12,1-.16.95-.58-.24-2.01,1.3-1.7,2.39-1.86,1.5-.23,3.01-.38,4.53-.45,3.99-.18,7.57-1.68,11.02-3.5,1.37-.72,2.89-1.56,3.39-3.11.52-1.61,1.5-2.51,2.98-3.06.27-.1.49-.33.74-.5ZM73.24,158.59c.25,3.42,2.55,5.45,5.48,4.82,2.64-.57,3.14-1.8,1.55-3.87-.85-1.11-1.57-2.41-2.65-3.25-1.44-1.13-2.45.88-3.79.93-.49-.42.04-.72.16-1.03.45-1.08.98-2.33.19-3.26-1.02-1.19-2.55-.99-3.95-.5-.24.08-.45.23-.67.35-3.77,2.05-5.1,5.66-5.64,9.52-.74,5.23,1.18,9.74,5.07,13.16,4.36,3.82,11.29,5.47,16.69,1.95,2.33-1.52,3.11-3.2,2.62-6.09-1.08,1.66-2.33,3.01-4.21,3.75-3.1,1.23-8.33-1.44-9.72-3.71-1.4-2.27-2.18-4.74-2.25-7.29-.05-1.82-.13-3.84,1.1-5.48ZM57.94,214.8c-1.33-.47-2.21.54-3.19,1.18-2.43,1.59-2.61,3.03-.68,5.19,1.61,1.8,3.27,3.57,4.9,5.36.71.78.89,1.54.38,2.6-.85,1.75-1.12,3.56.41,5.21,1.6,1.73,3.44,2.91,5.83,3.2,2.73.34,5.56.23,8.06,1.72.45.26,1.08.25,1.63.31,1.18.13,1.37-.38.79-1.31-.75-1.19-1.52-2.37-2.31-3.53-1.77-2.62-3.14-5.49-5.21-7.93-1.47-1.73-2.7-3.71-1.74-6.21.19-.49-.19-.83-.46-1.21-1.35-1.9-3.7-2.36-5.39-3.76-.85-.7-1.8-1.11-3.01-.82ZM113.21,260.34c.96-.15,2.18-.15,2.86-1.14.7-1.01-.15-1.93-.57-2.8-.52-1.07-1.66-.88-2.55-.87-3.72.03-7.3-.83-10.9-1.62-1.78-.39-2.3.03-2.07,1.85.15,1.2.85,2.02,1.89,2.57,1.39.73,2.85,1.28,4.34,1.75.58.19,1.3.44,1.77.12,1.13-.78,2.19-.32,3.3-.12.59.11,1.2.16,1.94.26Z"/>
      <path class="cls-8" d="M215.63,159c.02-3.56-1.63-6.24-4.41-8.33-.62-.46-1.06-.97-1.13-1.84-.08-.94-.48-1.88-1.06-2.64-.54-.7-.59-1.5-.31-2.15,1.59-3.7,3.36-7.32,6.15-10.31,1.02-1.09,1.66-.98,2.45.32,1.04,1.7.57,3.48.22,5.25-.12.59-.36,1.16-.41,1.75-.05.58-.81,1.35.1,1.71.8.32,1.82.23,2.38-.52,1.8-2.42,3.51-4.91,5.25-7.37.4-.56-.05-1.06-.15-1.58.78-.64,1.62-1.24,2.58-1.55,1.32-.42,1.57-1.33,1.24-2.47-.29-1-.42-2.01-.14-2.98,1.23-4.3,3.3-8.18,5.99-11.75-.15,2.05-1.36,3.73-1.98,5.61-.36,1.09-.63,2.15-.64,3.33.65-.1.76-.58.97-.97,1.48-2.69,2.87-5.44,4.47-8.06,2.8-4.6,6.1-8.86,9.46-13.06,2.04-2.56,4.17-5.04,6.58-7.27.58-.54,1.36-1.23,2.06-.31,1.01,1.32,1.89.74,2.8.01,3.46-2.74,7.1-5.23,10.85-7.54,2.85-1.75,6.06-2.65,9.27-3.49.91-.24,1.48-.59,1.39-1.61,4.19-1.3,8.42-2.41,12.69-3.39,3.71-.85,7.53-.68,11.24-1.41,4.9-.96,9.82-1.99,14.83-1.85,2.46.07,4.24-.93,6.02-2.29.56-.42.85-1.14,1.57-1.39.28-.75.99-.71,1.59-.92,1.59-.56,3.02-1.46,3.31-3.21.26-1.56.33-3.22-1.31-4.35-4.56-3.15-9.28-6.03-13.96-9-4.9-3.11-10.02-5.81-15.36-8.06-4.21-1.77-8.46-3.46-13.01-4.2-1.29-.21-2.37-.02-3.02,1.26-.45-.45-1.05-.57-1.64-.7-7.79-1.71-15.41-4.43-23.58-3.91.09-.56.53-.52.93-.54,2.21-.13,4.42-.43,6.64-.33.51.02,1.32.21,1.37-.53.05-.68-.59-1.12-1.29-1.26-1.09-.21-2.17-.53-3.26-.57-5.02-.16-10.04-.46-15.06.38-4.01.68-8.06,1.1-12.09,1.7-2.31.35-4.45,1.26-6.57,2.2-5.56,2.48-10.42,5.96-14.97,9.99-4.47,3.96-8.33,8.45-12.04,13.08-1.34,1.67-2.37,3.58-3.55,5.38-1.66-1.13-2.68-2.6-3.39-4.56-2.08-5.79-7.43-8.45-13.08-5.91-.22.1-.48.1-.73.14,0-.7.39-1.27.76-1.78,3.03-4.13,5.77-8.46,9.82-11.8,3.23-2.66,6.57-5.16,10.03-7.49,3.08-2.08,6.67-3.07,10.08-4.45,4.81-1.95,9.51-4.2,14.44-5.78,7.49-2.4,15.29-3.34,23.16-3.59,3.27-.11,6.53.3,9.79.56,4.77.38,9.43,1.32,14.08,2.39,7.16,1.64,14.21,3.69,21.22,5.87,8.53,2.65,16.9,5.7,24.68,10.14,1.08.62,1.98,1.55,3.04,2.22,3.86,2.44,7.25,5.42,10.4,8.71,1.48,1.54,2.74,3.49,4.97,4.04,3.95.97,7.17,3.1,10.06,5.85,1.1,1.04,1.24,2.25.74,3.6-.42,1.13-1.26,1.76-2.37,2.15-.87.31-1.3.78-.41,1.63.54.52,1.01,1.13,1.45,1.74,1.98,2.74.99,5.37-2.3,6.16-1.3.31-2.64.28-3.92.09-3.79-.57-7.6-.62-11.41-.85-1.22-.07-1.5.45-.95,1.41.52.91.5,1.77-.08,2.55-1.48,2.01-3.65,2.76-5.98,2.58-2.15-.17-4.32-.05-6.47-.42-1.98-.34-3.86.6-5.8.81-4.85.51-9.64,1.24-14.37,2.43-2.17.55-4.33,1.35-6.66.69-.74-.21-1.56.08-2.2.41-3.84,1.94-7.58,4.07-11.52,5.83-4.62,2.07-8.71,5.02-12.73,8.05-1.99,1.5-4.22,2.75-5.41,5.14-1.44,2.9-3.48,5.44-5.48,7.95-3.16,3.97-6.62,7.71-9.93,11.56-1.17,1.36-2.33,2.68-2.64,4.64-.46,2.94-2.2,3.74-4.96,3.74-.66,0-1.32-.04-1.97.03-.95.1-1.08.95-1.32,1.65-.16.45.08.73.48.97,4.12,2.5,4.45,5.96,1.14,9.5-3.47,3.72-8.11,5.04-12.62,6.7-.95.35-2.3.49-2.38,1.74-.08,1.27,1.15,1.71,2.13,2.19.08.04.15.13.22.19-1.49,1.23-2.95,2.53-5.1,2.26Z"/>
      <path class="cls-8" d="M84.55,73.57c.14.56-.1.98-.51,1.32-3.21,2.72-5.45,6.14-7.11,9.97-.12.28-.28.53-.6.63-.13-.06-.31-.09-.38-.19-3.03-4.51-13.64-3.96-17,.75-2.22,3.12-4.13,6.31-4.82,10.12-.08.43-.13.9-.58,1.16-.1-.16-.29-.32-.3-.49-.15-2.86-.26-5.73.06-8.57.49-4.45,1.57-8.8,2.65-13.14,1.74-7.01,3.84-13.87,8.01-19.92,2.81-4.07,6.11-7.74,9.13-11.63,3.11-4.01,6.85-7.31,10.96-10.26,1.67-1.19,2.62-3.15,4.35-4.32.91-.61,1.73-1.37,2.57-2.08.27-.22.56-.51.28-.9-.24-.33-.5-.66-1-.44-.6.26-1.2.51-1.81.75-.97.38-2.06.74-2.76-.26-.75-1.07-.28-2.19.67-2.94,3.14-2.48,6.47-4.65,10.47-5.53,1.05-.23,2.05-.19,2.68.85.36.6.88.58,1.44.57,1.3,0,2.6.03,3.9,0,8.26-.22,16.39.64,24.31,3.07,2.1.64,4.06,1.4,4.39,4.13.19,1.59.05,2.43-1.53,2.47-3.93.1-7.45,1.57-11.01,2.94-.3.11-.8.04-.86.48-.05.44.39.53.69.69,1.16.58,2.22,1.52,2,2.75-.21,1.22-1.68,1.42-2.82,1.69-.05.01-.1,0-.15,0-4.89,1.2-9.5,2.96-13.36,6.34-3.87,3.39-7.56,6.94-11.21,10.56-4.06,4.02-7.8,8.29-11.2,12.87-.79,1.06-1.99,1.86-2.35,3.41,1.45-.09,2.61-.97,3.96-1.01-.17,1.45-.67,2.8-1.17,4.15Z"/>
      <path class="cls-6" d="M220.73,156.74c-.07-.06-.14-.15-.22-.19-.99-.48-2.22-.92-2.13-2.19.08-1.25,1.42-1.39,2.38-1.74,4.51-1.66,9.15-2.98,12.62-6.7,3.3-3.54,2.98-7-1.14-9.5-.4-.24-.64-.52-.48-.97.24-.7.37-1.55,1.32-1.65.65-.07,1.31-.03,1.97-.03,2.76,0,4.5-.8,4.96-3.74.31-1.96,1.47-3.27,2.64-4.64,3.31-3.86,6.77-7.59,9.93-11.56,2-2.51,4.04-5.04,5.48-7.95,1.19-2.39,3.42-3.64,5.41-5.14,4.02-3.03,8.11-5.98,12.73-8.05,3.93-1.77,7.68-3.89,11.52-5.83.64-.33,1.46-.62,2.2-.41,2.33.66,4.49-.15,6.66-.69,4.73-1.19,9.52-1.92,14.37-2.43,1.93-.2,3.81-1.15,5.8-.81,2.15.37,4.32.26,6.47.42,2.33.18,4.51-.57,5.98-2.58.57-.78.59-1.64.08-2.55-.55-.96-.27-1.48.95-1.41,3.81.22,7.62.28,11.41.85,1.28.19,2.62.22,3.92-.09,3.29-.79,4.28-3.42,2.3-6.16-.44-.61-.91-1.22-1.45-1.74-.88-.85-.46-1.32.41-1.63,1.11-.39,1.95-1.02,2.37-2.15.5-1.36.36-2.56-.74-3.6-2.89-2.75-6.11-4.88-10.06-5.85-2.22-.55-3.49-2.49-4.97-4.04-3.15-3.29-6.55-6.26-10.4-8.71-1.06-.67-1.96-1.61-3.04-2.22-7.79-4.44-16.16-7.49-24.68-10.14-7.01-2.18-14.06-4.23-21.22-5.87-4.65-1.06-9.31-2-14.08-2.39-3.26-.26-6.52-.67-9.79-.56-7.86.25-15.66,1.19-23.16,3.59-4.92,1.58-9.63,3.83-14.44,5.78-3.4,1.38-6.99,2.37-10.08,4.45-3.46,2.33-6.8,4.83-10.03,7.49-4.05,3.34-6.79,7.67-9.82,11.8-.37.51-.77,1.08-.76,1.78-2.94,4.11-4.82,8.7-6.48,13.44-1.57,4.48-2.35,9.05-2.58,13.76-.05,1.11,0,2.68-1.51,2.74-1.48.05-1.11-1.52-1.33-2.47-.37-1.63-.55-3.28-.38-4.96,0-.05,0-.1,0-.15-.2-1.17-.09-2.54-1.64-2.89-1.07-.24-2.26.84-2.73,2.38-.65,2.12-.64,4.28-.3,6.45.14.9.31,1.79.42,2.69.05.42.35,1.01-.24,1.19-.56.17-.89-.36-1.12-.82-.54-1.08-1.1-2.16-1.55-3.28-.35-.89-.82-1.48-1.84-1.5-1.04-.02-1.73.47-2.15,1.37-.86,1.84-.76,3.82-.86,5.86-.6-.2-1.14-.38-1.69-.57-.57-.49-1.16-.97-1.71-1.48-.41-.38-.54-.85-.3-1.38.94-2.05,1.8-4.15,2.86-6.13,1.09-2.04,1.86-2.23,4.09-1.39.79.3,1.25.51,1.52-.72.5-2.3,1.28-4.55,2.39-6.66.58-1.11,1.29-1.36,2.28-.63.81.6,1.58,1.25,2.33,1.91.84.75,1.35.59,1.5-.52,1-7.5,4.48-14.03,7.78-20.68,2.15-4.33,5.36-7.55,9.08-10.35,11.48-8.66,23.45-16.53,37.28-20.95,3.3-1.05,6.37-2.8,9.85-3.29,3.35-.47,6.68-1.28,10.04-1.44,3.46-.17,6.96.21,10.44.46,5.88.43,11.69,1.48,17.51,2.4,1.92.3,3.9.71,5.65,1.52,2.65,1.22,5.57,1.3,8.23,2.42,2.81,1.18,5.75,2.05,8.61,3.13,2.79,1.05,5.56,2.16,8.31,3.29,2.8,1.15,5.61,2.29,8.35,3.56,7.78,3.61,15.05,8.04,21.78,13.37,4.52,3.58,9.22,6.93,13.84,10.39,1.94,1.46,3.67,3.12,5.33,4.92,2.21,2.41,1.91,4.22-.61,6.24-1.25,1-1.52,1.73-.79,3.04.32.57.53,1.2.7,1.83.31,1.15.1,2.24-.77,3.08-2.4,2.33-5.27,3.55-8.64,3.35-1.91-.11-3.82-.36-5.73-.6-1.03-.13-1.64.03-1.98,1.23-.57,2.01-2.37,2.69-4.17,3.37-5.63,2.12-11.61,2.5-17.44,3.64-4.7.92-9.41,1.83-14.12,2.69-2.53.46-5.13.58-7.61,1.22-3.64.93-7,2.68-10.47,4.11-6.4,2.65-11.67,6.99-16.61,11.63-2.81,2.64-5.21,5.87-6.98,9.38-.74,1.46-1.09,3.16-2.1,4.47-2,2.59-4.36,4.84-7.08,6.66-2.27,1.52-4.02,3.34-4.64,6.07-.04.2-.11.39-.18.58-.38,1.15-2,1.7-2,2.66,0,.94.86,1.91.76,3.09-.07.81-.09,1.58-.51,2.3-.15.25-.49.49-.3.79,1.05,1.7-.29,2.51-1.31,3.32-2.04,1.62-4.31,2.94-6.44,4.43-3.82,2.66-8.14,4.22-12.33,6.07-.26.12-.59.09-.89.13Z"/>
      <path class="cls-6" d="M85.71,69.42c-1.35.04-2.51.92-3.96,1.01.36-1.55,1.56-2.35,2.35-3.41,3.4-4.57,7.15-8.85,11.2-12.87,3.65-3.62,7.34-7.18,11.21-10.56,3.86-3.38,8.47-5.14,13.36-6.34.05-.01.1,0,.15,0,1.14-.27,2.6-.47,2.82-1.69.22-1.23-.84-2.17-2-2.75-.3-.15-.75-.25-.69-.69.06-.45.56-.37.86-.48,3.57-1.36,7.09-2.83,11.01-2.94,1.57-.04,1.72-.88,1.53-2.47-.33-2.72-2.3-3.48-4.39-4.13-7.92-2.43-16.05-3.29-24.31-3.07-1.3.03-2.6,0-3.9,0-.56,0-1.08.02-1.44-.57-.62-1.04-1.63-1.07-2.68-.85-4,.87-7.32,3.04-10.47,5.53-.95.75-1.42,1.87-.67,2.94.7.99,1.79.64,2.76.26.61-.24,1.21-.49,1.81-.75.5-.21.76.12,1,.44.28.39-.01.68-.28.9-.84.71-1.66,1.47-2.57,2.08-1.74,1.17-2.69,3.12-4.35,4.32-4.11,2.94-7.85,6.25-10.96,10.26-3.02,3.9-6.32,7.56-9.13,11.63-4.17,6.05-6.27,12.91-8.01,19.92-1.08,4.34-2.16,8.69-2.65,13.14-.32,2.84-.21,5.71-.06,8.57,0,.17.19.33.3.49.1,2.78.19,5.56.86,8.28.03.26.06.51.09.77.1.3.21.59.31.89-.01.05-.05.1-.04.14.03.09.09.16.14.24-.08.92.72,1.76.29,2.72-1.73.59-2.52.27-3.14-1.67-.52-1.61-1.18-3.21-1.27-4.94-.03-.52-.22-.96-.66-1.29-2.08-1.56-4.47-.81-4.97,1.71-.44,2.25-1.14,4.46-1.16,6.78,0,.58-.29,1.2-.9,1.26-1.57.16-1.63,1.23-1.83,2.44-.16,1.01-.12,2.01-.18,3.01-.06.9-.09,1.8-.77,2.5-.56-2.54-1.58-4.99-1.38-7.67.15-2.08.8-2.88,2.86-3.3.29-.06.46-.12.46-.43-.03-1.51.18-3.07-.14-4.52-.79-3.62,2.86-7.71,6.54-7.07.7.12.87.02.92-.67.31-4.88.41-9.77.95-14.63.25-1.42.3-2.86.25-4.3.19-.28.21-.56.06-.86.27-1.11.3-2.25.24-3.38.14-.18.15-.37.04-.56.16-.95.32-1.89.49-2.84.18-.1.25-.25.21-.46.08-.13.18-.24.24-.38,5.69-13.31,14.34-24.44,25.03-34.08,1.54-1.39,3.02-2.86,4.78-4.52-4.69.12-8.87,1.05-12.91,2.48-6.07,2.14-11.54,5.3-15.88,10.21-2.4,2.72-5.44,4.82-7.65,7.75-.21.06-.29.17-.17.38l-.02.08c-2.05.01-2.12-.16-1.17-2.2,1.13-2.43,2.43-4.74,4.54-6.56-.78-.42-1.15.01-1.59.34-3.06,2.29-6.19,4.49-9.18,6.87-3.31,2.63-6.69,5.2-8.65,9.15-1.66,3.33-3.69,6.48-5.18,9.88-1.43,3.25-2.96,6.5-3.62,10.04-.52,2.81-.86,5.65-1.24,8.48-.69,5.1-.96,10.21-1.1,15.34-.17,5.8.12,11.59.93,17.34.28,1.98.36,3.99.93,5.95,1.21,4.13,2.47,8.19,4.86,11.87,1.57,2.43,2.69,5.15,4.05,7.72,1.08,2.05,2.41,3.95,3.67,5.89,1.09,1.67,1.26,2.26-.99,2.44-.4.03-.71-.05-.71.46,0,1.1-.29,2.26.42,3.24,1.98,2.73,4.61,4.79,7.44,6.51,1.25.76,1.72,1.37,1.19,2.69-.74.62-1.46.27-2.1-.12-.69-.43-1.49-.63-2.16-1.05-3.08-1.88-6.42-3.4-8.88-6.16-1.29-1.44-2.02-3.21-1.95-5.11.1-2.78-.74-5.27-2.02-7.62-3.94-7.26-5.76-15.24-7.44-23.16-1.91-9-2.18-18.2-1.61-27.44.81-13.11,5.11-25.07,11.26-36.48,2.15-3.98,5.49-7.08,8.42-10.48,6.3-7.31,14.67-11.44,23.23-15.29,4.33-1.95,8.74-3.7,13.11-5.55,1.17-.49,2.2-1.22,3.29-1.86,5.5-3.2,10.33-7.44,15.93-10.47,1.51-.82,3.12-1.44,4.72-2.07,2.61-1.03,5.18-.43,7.76,0,.28.05.62.2.79.41,1.04,1.26,2.41,1.27,3.87,1.18,5.71-.34,11.35.27,16.79,1.95,3.38,1.04,6.83,1.82,10.19,2.93,1.98.65,3.51,1.97,5.02,3.3.75.66.71,1.62.63,2.55-.24,2.68-2.3,4.95-4.91,5.2-2.55.25-4.94.95-7.25,2.04-.71.33-1.02.66-.88,1.48.32,1.87-.41,3.2-2.1,4.11-1.38.75-2.77,1.4-4.26,1.91-5.95,2.04-10.93,5.68-15.38,9.98-5.7,5.51-11.42,11.03-16.25,17.36-.52.68-1.38.54-1.94,1.05Z"/>
      <path class="cls-8" d="M39.84,166.83c.53-1.31.06-1.93-1.19-2.69-2.83-1.72-5.46-3.78-7.44-6.51-.71-.98-.42-2.14-.42-3.24,0-.5.31-.43.71-.46,2.25-.18,2.08-.77.99-2.44-1.27-1.94-2.59-3.84-3.67-5.89-1.36-2.57-2.47-5.29-4.05-7.72-2.38-3.68-3.64-7.74-4.86-11.87-.57-1.95-.65-3.96-.93-5.95-.81-5.75-1.1-11.54-.93-17.34.15-5.13.41-10.24,1.1-15.34.38-2.83.72-5.67,1.24-8.48.66-3.54,2.19-6.79,3.62-10.04,1.49-3.4,3.52-6.55,5.18-9.88,1.96-3.95,5.35-6.52,8.65-9.15,2.99-2.38,6.12-4.58,9.18-6.87.44-.33.81-.76,1.59-.34-2.11,1.82-3.41,4.12-4.54,6.56-.95,2.04-.88,2.21,1.17,2.2-.25.49-.48.99-.74,1.47-2.13,4.05-5.16,7.58-6.95,11.83-.23-.95-.62-.65-1.11-.18-1.17,1.11-1.68,2.61-2.43,3.97-1.78,3.21-3.66,6.38-4.64,9.94-.86,3.14-1.68,6.32-2.12,9.53-.5,3.64-.82,7.37-.32,11.02.61,4.48.76,8.99,1.26,13.48.48,4.3,2.69,7.79,3.65,11.89.68-.46.95-1.01,1.51-1.3,1.57-.81,1.89-.68,2.73.87.68,1.25.62,2.61.87,3.93.75,4,1.92,7.88,3.23,11.72.12.34.18.82.6.7.54-.16.22-.64.18-1.01-.25-2.28-1.47-4.42-.98-6.81.3.17.41.07.49-.26.22-.94.6-1.85,1.24-2.55.77-.84.69-1.61.35-2.6-.75-2.23-1.59-4.45-1.74-6.84.68-.7.72-1.61.78-2.5.06-1,.02-1.99.18-3.01.2-1.22.25-2.28,1.83-2.44.6-.06.89-.69.9-1.26.02-2.33.72-4.54,1.16-6.78.5-2.52,2.89-3.27,4.97-1.71.44.33.63.77.66,1.29.09,1.73.75,3.33,1.27,4.94.62,1.95,1.41,2.26,3.14,1.67,1.48,3.14,1.45,6.54,1.67,9.89-2.74,3.3-5.07,6.83-6.22,11.04-.92,3.37-2.02,6.7-2.89,10.09-.51,1.97-.52,4.06-1.18,6.02-.16.47-.07,1.04-.71,1.17-.59.13-.93-.21-1.22-.68-.26-.43-.61-.8-.9-1.21-.36-.51-.91-.75-1.43-.56-.6.21-.64.85-.58,1.43.33,2.87,1.26,5.51,3.33,7.59,1.14,1.15.87,2.5.87,3.83,0,.52-.36.52-.75.36-.46-.19-.94-.36-1.4-.57-.43-.2-.77-.1-1.08.23-.27.28-.35.54-.2.94.55,1.48,1.18,2.99,2.44,3.89,1.58,1.12,1.87,2.47,1.5,4.17-1.18.74-2.4.48-3.58.07-1.03-.35-2.02-.82-3.03-1.24Z"/>
      <path class="cls-8" d="M107.67,68.14c-.88-.08-1.69-.3-2.25-1.05.9.03,1.7.28,2.25,1.05Z"/>
      <path class="cls-8" d="M101.19,83.38c.13-.79.69-.88,1.33-.84-.29.52-.79.71-1.33.84Z"/>
      <path class="cls-8" d="M103.28,82.09c.24-.72.75-.89,1.43-.7-.36.47-.83.73-1.43.7Z"/>
      <path class="cls-8" d="M114.27,78.29c-.05-.33-.14-.67.16-.94.59.43.52.74-.16.94Z"/>
      <path class="cls-8" d="M114.12,75.81c-.51-.13-.52-.45-.31-.84.33.2.5.45.31.84Z"/>
      <path class="cls-8" d="M94.23,68.04c-.13.49-.44.5-.83.31.2-.29.46-.46.83-.31Z"/>
      <path class="cls-5" d="M168.87,244.47c-.24.17-.47.4-.74.5-1.48.55-2.46,1.44-2.98,3.06-.5,1.55-2.03,2.39-3.39,3.11-3.45,1.82-7.02,3.32-11.02,3.5-1.51.07-3.03.22-4.53.45-1.08.17-2.63-.15-2.39,1.86.05.43-.58.47-.95.58-2.13.67-4.27.63-6.43.08-3.59-.92-7.07-2.1-10.14-4.24-.17-.12-.37-.21-.48-.37-1.94-2.82-4.29-2.99-7.38-1.75-4.16,1.66-8.48.73-12.7-.23-2.66-.61-5.31-1.27-7.92-2.06-1.33-.4-2.64-1.02-3.83-1.75-1.36-.83-2.81-1.32-4.31-1.78-5.15-1.56-8.75-5.05-11.66-9.39-.53-.79-1.05-1.6-1.55-2.41-.43-.7-.3-1.4.31-1.88,1.26-1.01,1.29-1.39-.18-2.17-1.64-.88-3-2.04-4.1-3.53-.81-1.09-1.59-2.18-1.61-3.66-.02-2,1.22-2.98,3.53-2.73,1.79.19,3.6.49,5.37-.23.4-.16.58-.32.54-.74,5.96,1.14,11.96,2.09,17.69,4.17.14.05.3.03.45.04,1.08.85,2.09,1.81,2.75,2.98.89,1.6,2.22,2.49,3.79,3.25,1.09.53,2.09.61,2.88-.31.63-.74,1.11-.52,1.8-.17,2.24,1.11,4.07,2.77,5.98,4.33.62.5,1.29,1.09,2.17.66.88-.43.99-1.34,1.1-2.19.05-.39-.04-.8-.06-1.2,2.07-.75,4.34-.85,6.33-1.88.04.25.06.5.13.74.12.36,0,.88.49,1,.55.14.58-.47.8-.74.51-.62.89-1.34,1.37-1.99.55-.74,1.21-1.39,2.12-1.61.64-.16,1.31-.12,1.9.25.92.57.82,1.58.93,2.54,1.29-.52,2.57-.64,3.64-1.35,2.8-1.88,5.6-3.74,8.38-5.65,1.03-.71,2.05-1.46,2.7-2.58.16-.09.19-.21.08-.37v-.04c1.74.08,3.32-.7,5-.95,3.28-.5,6.58-.77,9.88-1.04.62-.05,1.21-.02,1.59.59.28,1.17,1.04,1.72,2.2,1.97,2.41.53,4.7,1.42,6.79,2.75.54.34,1.04.27,1.57.06.9.71,1,1.81.99,2.75-.05,4.14-.36,8.28-2.45,11.99-.88,1.57-2.06,2.98-3.08,4.48-.68,1-1.27,2.05-1.39,3.29Z"/>
      <path class="cls-6" d="M147.89,176.22c-3.77-.4-7.51-.97-10.99-2.61-2.32-1.09-3.79-2.7-4.95-5.15-2.24-4.74-1.31-9.23-.21-13.88,1.24-5.24,4.14-9.71,6.62-14.37.68-1.29,1.77-2.31,3-3.17,1.05-.73,1.08-1.92.17-2.8-.66-.63-3.49-.79-4.27-.22-2.27,1.68-4.55,3.34-5.77,6.03-.18.4-.47,1.08-1.1.78-.68-.32-1.29-.84-1.27-1.73.04-2.15.62-4.19,1.61-6.06.55-1.04.55-1.21-.68-1.59-3.2-1.01-5.41-3.42-7.44-5.97-1.47-1.84-2.35-3.99-3.13-6.18-1.03-2.88.6-6.93,3.42-8.37,4.18-2.13,8.38-3.7,13.14-3.29,1.4.12,2.81.28,4.2.52,1.5.26,2.47,1.25,3.17,2.54-.78,1.46-2.01.93-3.03.54-5.08-1.9-9.87-1.02-14.37,1.59-2.82,1.64-3.54,5.13-2,8,1.37,2.55,3.27,4.58,5.84,5.99,1.61.88,3.33,1.45,5.03,2.08,4.99,1.84,9.73,1,14.32-1.33,1.21-.61,2.01-1.6,2.46-2.93,1.27-3.77-.17-6.79-2.47-9.62-.39-.48-1.38-.82-1-1.46.28-.49,1.22-.18,1.86-.03.19.05.39.09.58.14,1.59,1.26,3.16,2.53,3.95,4.5.21.52.55.53,1.09.48,1.31-.12,2.62-.11,3.94-.14.65-.02,1.25.11,1.39.87.15.85-.43,1.16-1.13,1.32-.44.11-.91.14-1.32.32-.87.37-2.09.59-2.49,1.26-.54.92-.51,2.2-.58,3.33-.05.74.63.52,1.01.43,1.19-.3,2.39-.31,3.6-.41,3.62-.31,6.68,1.33,9.89,2.56,1.54.59,2.6,1.7,3.85,2.6.74.54,1.13.38,1.67-.1,1.73-1.53,2.64-3.53,3.33-5.66.11-.33.12-.71.27-1.02.24-.45.01-1.28.78-1.31.78-.02,1.12.67,1.32,1.29,1.35,4.26.68,8.27-1.61,12.05-.37.61-.86,1.14-.77,1.91.09.75.47,1.33,1.19,1.62.78.31,1.54.23,2.08-.42.68-.81,1.26-1.69,1.86-2.56.33-.48.66-.9,1.34-.74.62.15.67.65.82,1.14,1,3.28-.28,5.96-2.28,8.38-.92,1.12-1.17,2.32-1.02,3.64.68,5.83-.24,11.56-2.88,16.62-2.72,5.22-7.37,8.6-13.5,9.38-1.27-.67-1.3-1.16-.17-1.93,1.86-1.27,4.02-2.08,5.7-3.63,1.76-1.62,3.74-3.04,4.46-5.55.65-2.28,1.02-4.58,1.18-6.94.52-7.43-2.74-13.49-7.04-19.1-1.71-2.23-4.29-3.27-7.12-3.55-.66-.07-1.24.09-1.49.75-.22.57.25.8.59,1.19,1.26,1.44,3.03,2.32,4.13,3.94,6.73,9.94,5.57,21.6-3.29,29.9-.26.24-.53.48-.85.63-4.71,2.29-9.38,4.71-14.66,5.47ZM160.39,155.55c-.31.14-.63.26-.91.43-.69.43-1.05,1.07-.92,1.88.13.81.78.93,1.46.94-1.24,7.56-9.51,13.33-17.31,7.95-1.98-1.37-3.5-2.98-4.36-5.25-.37-.97-.6-2.03-1.32-2.86-.71-.83-1.3-.79-1.85.13-.56.94-.63,2.01-.75,3.04-.3,2.54-.24,5.01,1.64,7.09,1.64,1.82,3.39,3.05,5.98,3.62,6.12,1.32,11.69.84,16.91-2.85,4.64-3.27,6.8-7.99,7.55-13.27.55-3.82.27-7.73-1.63-11.39-1.43-2.77-3.63-4.17-6.48-4.76-1.44-.3-2.67.43-3.5,1.64-.42.61-.51,1.38.19,1.9,1.02.76,1.68,1.85,2.59,2.71-1.7,1.05-3.47,2.04-4.34,4-1.05,2.35.24,4.32,2.8,4.27,1.37-.03,2.71-.19,3.97-.76.09.52.18,1.03.27,1.55Z"/>
      <path class="cls-2" d="M150.64,113.67c-.19-.05-.39-.1-.58-.14-.64-.15-1.58-.45-1.86.03-.38.65.61.99,1,1.46,2.3,2.83,3.74,5.85,2.47,9.62-.45,1.34-1.25,2.32-2.46,2.93-4.59,2.32-9.33,3.16-14.32,1.33-1.71-.63-3.43-1.19-5.03-2.08-2.57-1.41-4.46-3.44-5.84-5.99-1.54-2.86-.82-6.36,2-8,4.5-2.61,9.29-3.5,14.37-1.59,1.02.38,2.25.92,3.03-.54,2.35.29,4.55,1,6.58,2.23.29.18.65.3.64.74Z"/>
      <path class="cls-2" d="M87.3,120.8c-.15.42-.44.84-.14,1.29.89,1.35.69,3.02,1.35,4.45.18.39.21.92.12,1.34-1.73,7.73-10.72,14.29-18.93,11.22-4.55-1.7-6.14-6.08-3.93-10.72,1.71-3.59,4.43-6.22,8.16-7.75.75-.31,1.55-.61,1.43-1.68,2.81-.66,5.6-.62,8.34.34,1.23.43,2.41,1.01,3.62,1.52Z"/>
      <path class="cls-3" d="M147.89,176.22c5.29-.75,9.95-3.18,14.66-5.47.31-.15.59-.39.85-.63,8.86-8.3,10.03-19.96,3.29-29.9-1.1-1.63-2.87-2.5-4.13-3.94-.34-.39-.81-.62-.59-1.19.26-.66.83-.82,1.49-.75,2.82.29,5.41,1.32,7.12,3.55,4.3,5.6,7.55,11.66,7.04,19.1-.16,2.36-.53,4.66-1.18,6.94-.72,2.51-2.7,3.93-4.46,5.55-1.68,1.54-3.84,2.35-5.7,3.63-1.13.77-1.09,1.26.17,1.93-4.92,2.45-10.17,2.98-15.57,2.69-1.23-.07-2.12-.75-2.99-1.49Z"/>
      <path class="cls-2" d="M194.31,169.83c-.52,2.56-.68,5.81-3.23,8.49-1.68,1.76-2.89,3.94-5.1,5.24-1.73,1.02-3.48,1.52-5.48.97-1.12-.31-2.32.13-3.45-.27-3.79-1.34-4.84-5.51-2.14-8.73.84-1,1.82-1.87,2.83-2.72,2.6-2.18,4.84-4.71,6.49-7.68,1.44-2.59,4.49-3.54,6.94-1.81,1.97,1.39,3.33,3.24,3.13,6.51Z"/>
      <path class="cls-6" d="M101.21,202.97c-.12,0-.23.02-.34.03-.04-.08-.11-.11-.2-.08-1.38-.57-2.08-1.74-2.39-3.07-.23-1.01-.7-1.44-1.7-1.58-1.69-.24-3.4-.49-5.05-.93-1.55-.41-2.87-1.29-3.66-2.74-.42-.78-.57-1.67.12-2.4.65-.68,1.5-.53,2.27-.22.84.34,1.67.82,2.24,1.52,1.71,2.11,4.01,2.49,6.44,2.11,2.36-.36,4.7-.92,6.85-2.13,2.45-1.39,5.14-1.28,7.81-.7,2.03.44,4.1.82,6.15.72,2.83-.13,4.94-1.9,6.83-3.84,1.07-1.1,2.12-2.18,3.59-2.71,1.44-.52,3.08-.2,3.58.75.72,1.36.07,2.46-.92,3.35-.76.69-1.37,1.8-2.72,1.34-1.58,1.68-3.87,2.1-5.76,3.21-.45.26-.57.87-.58,1.35-.04,1.14-.6,1.97-1.33,2.78-1.79,2-3.29,1.73-4.16-.82-.1-.28-.1-.59-.14-.87-.25-.12-.41.01-.54.16-4.01,4.69-7.35,5.47-13.01,3.04-.23-.1-.44-.22-.67-.33-.04-.09-.1-.13-.2-.12-.18,0-.36,0-.54-.01-.64.31-.61,1.52-1.68,1.26.01-.46.42-.87.19-1.37-.01-.45.01-.9-.05-1.34-.09-.62-.43-1.04-1.12-.82-.62.19-.68.61-.35,1.16.25.4.2.97.69,1.24.06.46.26.84.63,1.13-.01.26-.03.52-.04.79,0,0-.11.09-.11.09-.06-.03-.11,0-.13.06ZM105.01,197.83c3.8,2.29,7.18,1.83,9.61-1.21-3.36-.88-6.49-.66-9.61,1.21ZM119.95,197.82c.19.28-.14,1.3.68,1.15.76-.14,1.02-1.15,1.27-1.87.22-.63-.39-.67-.85-.68-.81-.02-1.2.37-1.1,1.41Z"/>
      <path class="cls-2" d="M53.21,185.96c.65,1.4,1.48,2.7,2.56,3.81.32.33.6.96,1.2.61.6-.35.62-1,.47-1.6-.21-.85-.95-1.54-.75-2.51.65-.13,1.19.14,1.7.48,2.4,1.6,4.97,2.85,7.68,3.84,2.28.83,5.7,4.22,5.44,6.93-.26,2.62-1.46,4.31-4.14,4.78-4.91.85-12.8-2.63-15.42-6.91-1.12-1.84-1.35-4.01-1.38-6.1-.02-1.61,1.13-2.71,2.63-3.33Z"/>
      <path class="cls-3" d="M65.27,183.62c-2.17-.79-4.32-1.58-6.03-3.27-.81-.8-1.43-1.68-1.9-2.69-1.1-2.37-2.47-4.6-3-7.24-.43-2.13-.49-4.21.06-6.3.88-3.36,1.4-6.85,3.37-9.84,1.9-2.89,4.69-4.12,8.43-4.51-2.89,2.74-4.59,5.79-6,9.04-1.74,4.01-1.39,7.88.37,11.84,1.98,4.47,5.46,7.32,9.58,9.5,1.91,1.01,4.14,1.16,6.28,1.5.69.11,1.42-.06,2.08.27-1.87,1.27-4.06,1.29-6.18,1.58-2.34.32-4.69.43-7.05.11Z"/>
      <path class="cls-6" d="M147.7,219c-.65,1.12-1.67,1.87-2.7,2.58-2.77,1.91-5.58,3.77-8.38,5.65-1.07.72-2.35.84-3.64,1.35-.11-.96,0-1.98-.93-2.54-.59-.36-1.26-.4-1.9-.25-.92.23-1.58.88-2.12,1.61-.48.65-.86,1.37-1.37,1.99-.22.27-.26.87-.8.74-.49-.12-.37-.64-.49-1-.08-.23-.09-.49-.13-.74.26-1.23.52-2.45,1.01-3.62,1.73-4.11,4.11-3.95,6.97-1.45,1.06.92,1.49.96,2.52.09,3.02-2.57,6.57-4.3,10.19-5.86,1.46-.63,1.88-.33,1.85,1.04,0,0,0,.04,0,.04-.17.09-.2.21-.08.37Z"/>
      <path class="cls-6" d="M118.91,230.27c.03.4.12.81.06,1.2-.12.84-.22,1.76-1.1,2.19-.88.43-1.56-.16-2.17-.66-1.91-1.56-3.74-3.21-5.98-4.33-.7-.35-1.17-.56-1.8.17-.79.92-1.79.84-2.88.31-1.57-.76-2.9-1.66-3.79-3.25-.65-1.17-1.67-2.14-2.75-2.98-.41-.5-.83-1-1.36-1.64.81-.21,1.51-.24,2.19.11.99.51,1.97,1.02,2.93,1.58,1.15.66,2.11,1.87,3.7.73.5-.36,1.36,0,2.06.18,3.43.88,6.37,2.75,9.32,4.61.69.44,1.16,1.1,1.59,1.79Z"/>
      <path class="cls-6" d="M105.15,189.34c-2.26-.04-4.23-.92-5.92-2.52-.96-.91-1.28-1.95-.73-3.14.52-1.15,1.68-1.81,2.73-1.47,2.38.78,4.33-.07,6.41-.96,2.01-.86,3.97-.44,4.71.73.71,1.13.05,3.37-1.49,4.72-1.61,1.41-3.37,2.57-5.71,2.63Z"/>
      <path class="cls-6" d="M122.41,158.68c.21-2.89.22-6.08,1.84-8.95.3-.52.58-1.07.97-1.52.47-.54,1.06-.94,1.86-.53.81.42.5,1.09.42,1.71-.35,2.77-1.72,5.39-1.37,8.24.22,1.86.25,3.71.27,5.58,0,.63-.12,1.19-.55,1.68-1.02,1.16-2.08,1.01-2.6-.45-.62-1.77-.81-3.62-.83-5.75Z"/>
      <path class="cls-6" d="M118.02,213.01c-1.03.21-2.19-.24-3.38-.42-.58-.09-1.08-.4-1.05-1.08.03-.76.55-.92,1.24-1,4.82-.52,9.54-1.28,13.44-4.6,1.42-1.21,2.7-.8,3.28.61.33.81-.06,1.21-.57,1.67-3.61,3.32-7.89,4.85-12.96,4.82Z"/>
      <path class="cls-6" d="M97.85,164.52c0,.4.03.81,0,1.21-.08.84-.55,1.47-1.38,1.58-.86.11-1.44-.43-1.64-1.25-.56-2.22-.94-4.49-1.65-6.66-.77-2.36-1.25-4.86-2.84-6.89-.36-.46-.87-1.01-.12-1.54.71-.5,1.4-.4,2.02.23,1.83,1.85,3.28,3.97,4.18,6.41.82,2.22,1.29,4.54,1.44,6.91Z"/>
      <path class="cls-6" d="M174.81,221.96c-.53.22-1.04.29-1.57-.06-2.09-1.33-4.38-2.22-6.79-2.75-1.16-.25-1.92-.8-2.2-1.97.17-1.81.73-2.33,2.49-2.11,2.79.35,5.3,1.41,7.43,3.28,1.16,1.03,1.49,2.21.64,3.6Z"/>
      <path class="cls-6" d="M106.58,212.59c-1.48-.34-3.27-.6-4.72-1.83-.79-.67-.88-1.51-.47-2.31.43-.84,1.18-.85,2.03-.42,1.29.64,2.66,1.11,3.95,1.75.75.37,1.31.97,1.04,1.95-.23.81-.84.92-1.83.86Z"/>
      <path class="cls-8" d="M101.44,202.81c.01-.26.03-.52.04-.79,0,0,0,0,0,0,1.07.26,1.04-.95,1.68-1.26.27,1.39-.98,1.51-1.73,2.05Z"/>
      <path class="cls-8" d="M103.71,200.78c.1-.02.17.02.2.12,0,0-.14,0-.14,0l-.07-.12Z"/>
      <path class="cls-8" d="M100.67,202.91c.09-.03.16,0,.2.08-.12.11-.17.04-.2-.08Z"/>
      <path class="cls-8" d="M101.21,202.97c.02-.07.06-.09.13-.06,0,0-.04.11-.04.11l-.09-.04Z"/>
      <path class="cls-5" d="M258.98,37.8c8.16-.52,15.78,2.2,23.58,3.91.59.13,1.19.25,1.64.7.77,1.26,2.17,1.11,3.33,1.48.15.27.37.31.63.19,3.26,1.33,6.52,2.65,9.77,3.98.2.31.47.45.84.33,2.69,1.27,5.36,2.55,7.96,3.99,2.78,1.54,5.35,3.45,8.15,4.92,4.24,2.23,8.39,4.57,12.09,7.65.95.8.94,1.47-.09,2.13-.67.43-1.43.72-2.13,1.11-.48.28-.94.61-.83,1.3.11.69.58.87,1.17.96.32.05.74-.06.86.42-.71.25-1.01.96-1.57,1.39-1.78,1.35-3.56,2.36-6.02,2.29-5.01-.14-9.93.89-14.83,1.85-3.72.73-7.53.56-11.24,1.41-4.28.98-8.51,2.09-12.69,3.39-.6-.13-1.19-.06-1.78.08-.21.02-.41.05-.62.07-1.7.19-3.42.31-5.04.9-4.09,1.48-7.8,3.69-11.36,6.16-.83.58-1.55,1.47-2.67.35-.38-.38-1.09-.11-1.61.05-1.26.38-2.48.87-3.49,1.75-2.17,1.9-4.25,3.9-6.12,6.1-3,3.54-5.83,7.22-8.5,11.02-.58-.24-.71-.82-.99-1.29-.92-1.56-1.69-3.23-3.1-4.45-.62-.54-.79-1.07-.61-1.97.31-1.52.28-3.1.39-4.65.15-2.13-.42-4.2-.59-6.3-.49-6.21-2.87-11.63-7.08-16.16-5.04-5.42-11.16-8.73-18.78-8.69.91-3.02,3.04-5.19,5.14-7.39,4.44-4.66,8.97-9.18,14.82-12.13.94-.47,2.08-.49,2.86-1.3,2.22-.81,4.44-1.62,6.66-2.44,1.61-.36,3.21-.71,4.82-1.07.26.12.48.1.64-.17.29-.05.59-.09.88-.14.45.16.87.2,1.24-.18.31.08.61.04.89-.13.45.2.87.19,1.24-.17.41.08.81.07,1.19-.09.65.21,1.27.23,1.84-.21.2-.02.39-.05.59-.07,1.66.17,3.28-.06,4.87-.56.41.08.81.07,1.19-.11.64.17,1.26.21,1.85-.17.2-.02.4-.04.59-.06Z"/>
      <path class="cls-7" d="M207.66,64.18c7.62-.04,13.74,3.26,18.78,8.69,4.21,4.53,6.59,9.95,7.08,16.16.17,2.1.74,4.17.59,6.3-.11,1.56-.09,3.14-.39,4.65-.18.9-.01,1.43.61,1.97,1.41,1.22,2.18,2.89,3.1,4.45.28.47.4,1.05.99,1.29-1.35,2.29-2.7,4.58-4.05,6.86-2.69,3.57-4.75,7.45-5.99,11.75-.28.97-.15,1.98.14,2.98.33,1.14.08,2.05-1.24,2.47-.96.31-1.79.9-2.58,1.55-1.64.49-2.72,1.81-4.1,2.89-.29-1.67-.59-3.19-.63-4.79-.05-1.82-1.64-2.28-3.05-2.84-1.2-.48-2.21-.53-3.09.58-2.56,3.24-5.15,6.47-7.72,9.7-.24.3-.47.61-.81,1.06-1.86-4.78-3.03-9.6-4.51-14.32,5.15-1.34,9.43-3.94,12.39-8.49.2-.02.47.04.33-.32v.04c1.7-.63,3.26-3.78,2.75-5.38-.26-.82-.87-1.16-1.55-1.26-1.41-.2-1.46-.76-.67-1.76,2.88-3.67,4.17-8.1,5.76-12.37.1-.28.15-.59.2-.89.48-2.64-.17-3.71-2.75-4.53-1.98-.63-1.94-.62-1.23-2.56,1.03-2.82,1.46-5.77,1.57-8.75.09-2.44-2.33-3.87-5.18-3.13-1.21.32-2.38.82-3.56,1.27-.45.17-.95.68-1.36.3-.4-.38.07-.94.19-1.4.4-1.52.82-3.03.87-4.6.06-1.7-.4-2.16-2.13-2.08-.68.03-1.23-.06-.9-.86.64-1.57,1.06-3.25,2.14-4.62Z"/>
      <path class="cls-7" d="M56.87,120.26c-.22-3.35-.19-6.75-1.67-9.89.42-.96-.37-1.79-.29-2.72-.03-.13-.07-.25-.1-.38-.1-.3-.21-.59-.31-.89.11-.27.12-.53-.09-.77-.66-2.72-.76-5.5-.86-8.28.46-.25.5-.72.58-1.16.69-3.81,2.6-7.01,4.82-10.12,3.36-4.71,13.97-5.27,17-.75.07.1.25.13.38.19-.28,1.74-.67,3.46-.81,5.21-.17,2.16-.04,4.29.51,6.45.72,2.81.7,2.28-1.59,4.05-3.85,2.96-7.6,6.05-10.85,9.67-2.13,2.38-3.39,5.33-4.79,8.16-.44.88-.93,1.37-1.93,1.23Z"/>
      <path class="cls-8" d="M213.17,117.09c-2.95,4.54-7.24,7.15-12.39,8.49-1.19-1.53-1.64-3.43-2.55-5.1-.31-.58.26-1.14.59-1.62.75-1.1-.01-3.02-1.34-3.17-.98-.11-1.79-.29-1.92-1.46-.14-1.32.53-1.93,1.7-2.47,2.05-.94,4.46-1.24,6-3.22.39-.5.61-.94.43-1.49-.19-.57-.68-.75-1.26-.93-1.52-.46-3.07.13-4.6-.26-1.19-.31-1.93-1.23-1.43-2.27,1.27-2.68,2.32-5.46,4.06-7.92.99-1.4,2.21-2.5,3.56-3.43,2.23-1.54,3.21-3.77,3.86-6.24.05-.17,0-.42-.08-.57-.83-1.4-.34-2.37.93-3.16,1.67-1.03,3.9-1.24,4.81-.31.97,1,.64,2.32.48,3.47-.3,2.08-.93,4.1-1.92,6-.92,1.77-.6,2.24,1.4,2.28,1.74.04,2.69,1.21,2.43,2.95-.65,4.32-2.67,8.08-4.87,11.77-.62,1.04-1.21,2.09-1.81,3.14-.48.84-.15,1.21.74,1.26.98.05,2.12-1.11,2.9.47.51,1.04.64,2.1.59,3.22,0,.1.02.2.03.3,0,0,0-.04,0-.04-.11.11-.22.22-.33.32Z"/>
      <path class="cls-7" d="M57.94,214.8c1.21-.29,2.16.11,3.01.82,1.69,1.4,4.04,1.86,5.39,3.76.27.38.64.71.46,1.21-.96,2.51.27,4.48,1.74,6.21,2.07,2.44,3.44,5.31,5.21,7.93.79,1.17,1.56,2.35,2.31,3.53.59.92.39,1.44-.79,1.31-.55-.06-1.18-.04-1.63-.31-2.5-1.49-5.33-1.38-8.06-1.72-2.39-.3-4.23-1.48-5.83-3.2-1.53-1.65-1.26-3.45-.41-5.21.51-1.06.33-1.82-.38-2.6-1.63-1.79-3.28-3.56-4.9-5.36-1.93-2.16-1.75-3.6.68-5.19.98-.64,1.86-1.65,3.19-1.18Z"/>
      <path class="cls-4" d="M73.24,158.59c-1.24,1.65-1.16,3.66-1.1,5.48.07,2.56.85,5.02,2.25,7.29,1.39,2.27,6.62,4.94,9.72,3.71,1.88-.75,3.13-2.1,4.21-3.75.49,2.89-.29,4.57-2.62,6.09-5.4,3.52-12.33,1.87-16.69-1.95-3.9-3.41-5.81-7.92-5.07-13.16.54-3.86,1.87-7.47,5.64-9.52.22-.12.43-.27.67-.35,1.4-.49,2.93-.69,3.95.5.79.92.26,2.18-.19,3.26-.13.31-.65.6-.16,1.03-.16.48-.16,1.02-.6,1.37Z"/>
      <path class="cls-7" d="M113.21,260.34c-.74-.1-1.35-.15-1.94-.26-1.11-.2-2.17-.66-3.3.12-.47.32-1.19.07-1.77-.12-1.49-.48-2.95-1.02-4.34-1.75-1.04-.55-1.74-1.37-1.89-2.57-.23-1.82.3-2.25,2.07-1.85,3.59.79,7.17,1.65,10.9,1.62.89,0,2.03-.2,2.55.87.42.87,1.27,1.8.57,2.8-.69.99-1.9.99-2.86,1.14Z"/>
      <path class="cls-3" d="M73.24,158.59c.43-.36.44-.9.6-1.37,1.35-.06,2.35-2.06,3.79-.93,1.07.84,1.8,2.14,2.65,3.25,1.59,2.07,1.08,3.31-1.55,3.87-2.93.63-5.23-1.4-5.48-4.82Z"/>
      <path class="cls-8" d="M237.15,40.93c-2.22.81-4.44,1.62-6.66,2.44-.05-.44.26-.64.59-.77,1.82-.72,3.66-1.43,5.57-1.89.23-.05.39.02.5.22Z"/>
      <path class="cls-8" d="M255.35,38.15c-1.59.5-3.2.73-4.87.56,1.56-.77,3.17-1.05,4.87-.56Z"/>
      <path class="cls-8" d="M249.89,38.78c-.57.44-1.2.42-1.84.21.53-.85,1.18-.6,1.84-.21Z"/>
      <path class="cls-8" d="M258.39,37.86c-.59.38-1.21.35-1.85.17.55-.79,1.19-.59,1.85-.17Z"/>
      <path class="cls-8" d="M244.73,39.37c-.37.38-.79.34-1.24.18.32-.66.75-.61,1.24-.18Z"/>
      <path class="cls-8" d="M246.85,39.07c-.37.35-.79.36-1.24.17.33-.65.76-.62,1.24-.17Z"/>
      <path class="cls-8" d="M242.61,39.69c-.16.27-.38.29-.64.17.11-.44.3-.6.64-.17Z"/>
      <path class="cls-6" d="M325.95,70.89c-.11-.48-.53-.38-.86-.42-.59-.09-1.06-.27-1.17-.96-.11-.69.35-1.02.83-1.3.69-.4,1.46-.68,2.13-1.11,1.03-.66,1.04-1.34.09-2.13-3.69-3.08-7.85-5.42-12.09-7.65-2.81-1.48-5.37-3.38-8.15-4.92-2.6-1.44-5.28-2.73-7.96-3.99-.12-.52-.42-.56-.84-.33-3.26-1.33-6.52-2.65-9.77-3.98-.11-.41-.29-.58-.63-.19-1.16-.38-2.56-.23-3.33-1.48.65-1.27,1.73-1.46,3.02-1.26,4.55.74,8.8,2.43,13.01,4.2,5.34,2.25,10.46,4.95,15.36,8.06,4.67,2.97,9.4,5.85,13.96,9,1.64,1.13,1.58,2.79,1.31,4.35-.29,1.75-1.73,2.65-3.31,3.21-.6.21-1.32.17-1.59.92Z"/>
      <path class="cls-6" d="M234.36,114.56c1.35-2.29,2.7-4.58,4.05-6.86,2.66-3.8,5.49-7.48,8.5-11.02,1.87-2.2,3.95-4.2,6.12-6.1,1.01-.89,2.24-1.37,3.49-1.75.52-.16,1.23-.43,1.61-.05,1.12,1.12,1.84.23,2.67-.35,3.56-2.48,7.27-4.68,11.36-6.16,1.62-.59,3.34-.7,5.04-.9.24.26.44.22.62-.07.59-.14,1.18-.22,1.78-.08.09,1.02-.48,1.37-1.39,1.61-3.21.84-6.42,1.73-9.27,3.49-3.75,2.31-7.39,4.8-10.85,7.54-.91.72-1.79,1.31-2.8-.01-.7-.92-1.48-.23-2.06.31-2.41,2.22-4.53,4.71-6.58,7.27-3.36,4.2-6.66,8.46-9.46,13.06-1.6,2.62-2.98,5.37-4.47,8.06-.21.38-.32.86-.97.97,0-1.18.28-2.24.64-3.33.63-1.88,1.83-3.57,1.98-5.61Z"/>
      <path class="cls-5" d="M37.55,64.69c1.79-4.25,4.82-7.78,6.95-11.83.26-.49.49-.98.74-1.47,0,0,.02-.08.02-.08.06-.13.11-.25.17-.38,2.2-2.92,5.24-5.03,7.65-7.75,4.34-4.91,9.81-8.06,15.88-10.21,4.04-1.42,8.22-2.36,12.91-2.48-1.75,1.66-3.23,3.13-4.78,4.52-10.68,9.64-19.33,20.77-25.03,34.08-.06.14-.16.25-.24.38-.26.07-.32.23-.21.46-.16.95-.32,1.89-.49,2.84-.33.16-.36.35-.04.56.05,1.14.02,2.27-.24,3.38-.44.26-.44.55-.06.86.05,1.44,0,2.87-.25,4.29-.48.3-.57.79-.64,1.3-.3,2.34-.64,4.67-.88,7.01-.08.79-.2,1.04-1.07.82-2.51-.65-4.87-.24-7.02,1.26-1.24.86-1.85,2.25-2.81,3.34-3.02,3.42-4.22,7.52-4.25,11.95-.01,1.78-.44,2.91-2.15,3.44-.31-2.54-.84-5.08-.88-7.63-.13-7.19-.18-14.37,1.61-21.44,1.25-4.92,2.39-9.86,4.56-14.47.42-.89.67-1.78.54-2.76Z"/>
      <path class="cls-7" d="M31.72,111c1.71-.53,2.14-1.67,2.15-3.44.03-4.43,1.24-8.53,4.25-11.95.96-1.09,1.57-2.47,2.81-3.34,2.15-1.5,4.51-1.91,7.02-1.26.86.22.99-.03,1.07-.82.24-2.34.58-4.67.88-7.01.06-.51.15-1,.64-1.3-.55,4.86-.64,9.76-.95,14.63-.04.69-.21.79-.92.67-3.68-.64-7.33,3.45-6.54,7.07.32,1.45.11,3.01.14,4.52,0,.31-.17.37-.46.43-2.06.42-2.71,1.22-2.86,3.3-.2,2.68.82,5.13,1.38,7.67.14,2.39.98,4.61,1.74,6.84.34.99.41,1.77-.35,2.6-.64.7-1.02,1.61-1.24,2.55-.08.33-.19.43-.49.26,0-4.06-1.24-7.93-1.81-11.9-.17-1.18-.54-2.36-.96-3.48-.46-1.21-1.29-1.36-2.17-.42-.56.6-1.26.95-2.01,1.55-.79-2.45-.89-4.85-1.31-7.19Z"/>
      <path class="cls-8" d="M54.41,105.62c.21.24.2.5.09.77-.03-.26-.06-.51-.09-.77Z"/>
      <path class="cls-7" d="M50.78,77.59c-.38-.32-.37-.61.06-.86.15.3.12.59-.06.86Z"/>
      <path class="cls-7" d="M51.09,73.34c-.32-.21-.29-.4.04-.56.11.2.1.38-.04.56Z"/>
      <path class="cls-8" d="M45.43,50.93c-.06.13-.11.25-.17.38-.13-.21-.04-.32.17-.38Z"/>
      <path class="cls-8" d="M54.81,107.27c.03.13.07.25.1.38-.05-.08-.11-.16-.14-.24-.01-.04.02-.09.04-.14Z"/>
      <path class="cls-7" d="M51.61,69.94c-.11-.23-.05-.39.21-.46.05.21-.03.36-.21.46Z"/>
      <path class="cls-6" d="M31.72,111c.42,2.34.52,4.74,1.31,7.19.74-.6,1.44-.95,2.01-1.55.88-.94,1.71-.79,2.17.42.43,1.12.79,2.29.96,3.48.57,3.97,1.8,7.84,1.81,11.9-.49,2.39.73,4.53.98,6.81.04.38.36.86-.18,1.01-.42.12-.49-.36-.6-.7-1.31-3.84-2.48-7.73-3.23-11.72-.25-1.32-.19-2.68-.87-3.93-.84-1.55-1.17-1.68-2.73-.87-.56.29-.84.84-1.51,1.3-.96-4.1-3.17-7.6-3.65-11.89-.5-4.49-.65-9-1.26-13.48-.5-3.65-.17-7.38.32-11.02.44-3.22,1.26-6.39,2.12-9.53.97-3.56,2.86-6.73,4.64-9.94.75-1.36,1.27-2.86,2.43-3.97.49-.47.89-.77,1.11.18.13.98-.12,1.87-.54,2.76-2.17,4.62-3.32,9.55-4.56,14.47-1.79,7.08-1.75,14.26-1.61,21.44.05,2.55.58,5.09.88,7.63Z"/>
      <path class="cls-7" d="M147.7,219c-.12-.16-.08-.28.08-.37.11.15.08.27-.08.37Z"/>
      <path class="cls-4" d="M157.69,146.49c-.9-.86-1.56-1.95-2.59-2.71-.7-.52-.61-1.28-.19-1.9.83-1.21,2.06-1.93,3.5-1.64,2.84.58,5.04,1.99,6.48,4.76,1.9,3.67,2.18,7.57,1.63,11.39-.76,5.29-2.92,10-7.55,13.27-5.22,3.68-10.8,4.17-16.91,2.85-2.59-.56-4.33-1.79-5.98-3.62-1.88-2.09-1.94-4.55-1.64-7.09.12-1.03.19-2.1.75-3.04.55-.92,1.15-.96,1.85-.13.71.84.95,1.89,1.32,2.86.86,2.27,2.38,3.89,4.36,5.25,7.8,5.38,16.06-.39,17.31-7.95.85-.24,1.78-.34,1.88-1.54.1-1.13-.74-1.38-1.51-1.72-.09-.52-.18-1.03-.27-1.55.34-.29.69-.57,1.02-.87,2.18-2.03,1.82-4.65-.82-6.04-.83-.43-1.73-.5-2.62-.6Z"/>
      <path class="cls-3" d="M157.69,146.49c.9.11,1.8.17,2.62.6,2.64,1.39,3.01,4.01.82,6.04-.33.3-.68.58-1.02.87-1.26.57-2.6.73-3.97.76-2.56.05-3.85-1.92-2.8-4.27.87-1.96,2.64-2.94,4.34-4Z"/>
      <path class="cls-3" d="M160.39,155.55c.77.33,1.61.58,1.51,1.72-.1,1.2-1.04,1.3-1.88,1.54-.68-.01-1.33-.13-1.46-.94-.12-.81.23-1.45.92-1.88.28-.18.61-.29.91-.43Z"/>
      <path class="cls-2" d="M105.01,197.83c3.13-1.86,6.25-2.09,9.61-1.21-2.43,3.03-5.82,3.49-9.61,1.21Z"/>
      <path class="cls-7" d="M119.95,197.82c-.1-1.03.29-1.42,1.1-1.41.46.01,1.07.05.85.68-.25.72-.51,1.73-1.27,1.87-.81.15-.49-.87-.68-1.15Z"/>
      <path class="cls-5" d="M100.86,200.9c-.49-.27-.44-.84-.69-1.24-.34-.55-.27-.97.35-1.16.69-.21,1.02.21,1.12.82.06.44.04.89.05,1.34-.23.24-.52.27-.82.25Z"/>
      <path class="cls-8" d="M100.86,200.9c.31.02.59,0,.82-.25.23.5-.18.91-.19,1.37,0,0,0,0,0,0-.36-.29-.56-.67-.63-1.13Z"/>
      <path class="cls-8" d="M287.53,43.89c.35-.4.52-.22.63.19-.26.12-.48.08-.63-.19Z"/>
      <path class="cls-8" d="M297.93,48.06c.41-.23.72-.18.84.33-.37.11-.64-.02-.84-.33Z"/>
      <path class="cls-8" d="M277.82,81.3c-.18.29-.38.33-.62.07.21-.02.41-.05.62-.07Z"/>
      <path class="cls-6" d="M213.17,117.09c.11-.11.22-.22.33-.32.13.36-.14.3-.33.32Z"/>
    </g>
  </g>
</svg>