<?xml version="1.0" encoding="UTF-8"?>
<svg id="Layer_1" data-name="Layer 1" xmlns="http://www.w3.org/2000/svg" xmlns:xlink="http://www.w3.org/1999/xlink" viewBox="0 0 262.5 374.14">
  <defs>
    <style>
      .cls-1 {
        fill: #d84f26;
      }

      .cls-2 {
        fill: #e7dcc6;
      }

      .cls-3 {
        fill: #f27431;
      }

      .cls-4, .cls-5 {
        fill: #fff;
      }

      .cls-5 {
        filter: url(#drop-shadow-1);
      }

      .cls-6 {
        fill: #f6f7f7;
      }

      .cls-7 {
        fill: #512845;
      }

      .cls-8 {
        fill: #db4a4b;
      }
    </style>
    <filter id="drop-shadow-1" x="0" y="0" width="262.5" height="374.14" filterUnits="userSpaceOnUse">
      <feOffset dx="6.7" dy="6.7"/>
      <feGaussianBlur result="blur" stdDeviation="0"/>
      <feFlood flood-color="#231f20" flood-opacity=".2"/>
      <feComposite in2="blur" operator="in"/>
      <feComposite in="SourceGraphic"/>
    </filter>
  </defs>
  <g>
    <path class="cls-5" d="M187.36,367.44c-2.83,0-5.58-.41-8.16-1.22-1.28.2-2.73.32-4.17.32-4.32,0-8.66-1.01-13.28-3.08-5.13-2.25-9.97-5.38-14.27-9.24-4.87-4.29-8.01-9.63-9.23-15.65-1.8-1.22-3.74-2.59-5.67-4.28-2.22-1.97-4.51-4.06-6.68-6.41-2.62.33-5.53.61-8.6.71-.21,6.92-3.21,15.18-14.19,21.46-2.23,1.3-4.67,2.39-7.16,3.2-2.5.82-5.02,1.64-7.55,2.52-5.58,1.9-10.59,2.82-15.39,2.82h-.6c-.18,0-.46.03-.73.06-1.03.09-2.05.16-3.08.16-.35,0-.7,0-1.04-.02-.47.11-.98.2-1.54.27-1.34.13-2.33.18-3.31.18-3.45,0-6.86-.58-10.13-1.74-1.21-.44-2.31-.72-3.41-1.02-2.08-.56-4.43-1.2-6.99-2.27l-.55-.24c-1.12-.44-4.02-1.62-6.54-4.58-7.19-8.19-4.06-19.49-3.04-23.21.65-2.59,1.97-4.96,3.56-7.04-.47-.49-.93-.98-1.39-1.47-2.18-2.35-5.26-6.08-6.91-11.41-2.45-5-3.69-10.23-3.69-15.54.01-1.52-.03-2.93-.06-4.34-.1-3.64-.22-7.76.38-12.1.8-6.2,3.69-11.03,6.01-14.91.96-1.6,1.86-3.12,2.29-4.21.38-.97.84-2.14,1.42-3.39-.11-1.54-.06-2.86,0-3.88,0-.17.02-.34.02-.51-1.62-.24-3.24-.55-4.82-.94-2.92-.67-5.69-2.07-8.03-4.08l-.45-.4c-.18-.07-.7-.29-1.2-.54l-.78-.39c-3.74-1.87-6.54-5.07-7.99-8.98-4.03-4.23-6.89-9.63-8.68-16.38C.13,209.71-.04,204.09,0,198.91c.07-6.78,2.18-12.64,3.72-16.93,2.31-6.65,5.06-12.5,8.36-17.73,2.11-3.38,4.69-5.93,6.75-7.97l1.2-1.21c1.83-1.89,3.7-3.15,5.15-4.09-.73-2.13-1.27-4.36-1.63-6.67-.28-1.58-.27-3.18-.25-4.13,0-3.48,1-9.39,7.63-13.47,1.5-1.08,2.97-1.99,4.45-2.76.02-.03.05-.07.07-.1-.74-2.27-1.27-5.13-.91-8.45-2.68-2.9-5.17-6.25-7.53-10.11l-.66-1.06c-1.7-2.7-4.03-6.41-4.99-11.4-.9-5.12-1.61-11.03-.29-17.45,1.65-8.64,6.72-15.76,15.02-20.98,2.35-1.51,4.44-3.14,6.29-4.92,1.33-1.3,2.85-2.54,4.39-3.76,1.06-.84,2.16-1.71,2.65-2.28,4.06-4.62,5.99-8.97,6.17-13.81.08-3.3-.12-6.02-.64-8.39-.14-.52-.29-1.36-.4-2.33-.66-4.69.76-9.61,3.93-13.26,3.13-3.6,7.71-5.67,12.57-5.67,1.63,0,3.27.23,4.87.69,7.33,2.16,12.88,7.05,16.16,14.2,2.82,6.14,4.39,12.37,5.44,17.1.05.23.11.46.16.68,1.39.42,2.88.88,4.41,1.42,4.28-4.75,9.07-8.02,12.52-10.37,5.62-3.86,12.14-6.01,19.35-6.37.49-.04,1.01-.07,1.51-.07,5.91,0,11.15,3.52,13.34,8.96,1.3,3.26,1.61,7.78-.56,11.96,3.06,2.57,5.49,5.73,7.33,9.48,0,0,.66,1.35.88,1.82,3.35,1.25,6.78,2.58,10.26,4.2,1.48.68,2.91,1.41,4.31,2.18-.41-2.3-.7-4.71-.86-7.25-.33-6.34.32-12.79,1.98-19.87,1.38-5.98,4.38-10.32,6.8-13.81l.91-1.33c3.19-4.54,7.28-7.65,12.28-9.45,2.05-.72,4.07-1.06,6.13-1.06,5.71,0,11.09,2.71,14.39,7.25,3.89,5,3.12,10.64,2.87,12.49-.97,5.81-1.39,9.86-.67,13.34,1.2,5.8,4.42,11.26,10.13,17.17,2.66,2.78,6,5.06,10.56,7.22,9.14,4.32,15.55,12.06,18.49,22.37,1.33,4.55,1.89,9.49,1.69,15.01-.15,3.14-.86,5.56-1.38,7.32-.11.38-.23.77-.32,1.16-2.02,8.86-6.78,16.75-13.7,22.63-3.43,2.96-7.03,5.51-10.75,7.63,2.45,1.6,4.83,3.5,7.06,5.84,6.02,6.29,7,13.11,2.94,20.81-1.71,3.29-3.58,6.19-5.65,8.77.2.91.36,1.81.49,2.71.36,1.94.41,4.33.06,6.83l-.08.48c-1.23,7.04-6.32,12.32-13.28,13.78l-1.24.29c-2.27.54-4.69,1.11-7.24,1.57-1.24,1.86-2.76,3.41-4.58,4.65v.3c2.96,3.81,5.11,7.73,6.88,11.27,1.95,4.03,3.92,8.75,4.39,14.44.66,7.6-.68,15.11-3.97,22.26-1.76,3.83-3.96,7.58-6.54,11.2l1.02,2.9c2.05,5.88,4.1,11.75,6.28,17.56,2.45,6.38,2.25,12.32,2.09,17.09l-.06,2.05c-.12,6.24-1.67,12.46-4.63,18.53.59,1.06,1.38,2.07,2.49,3.26,4.8,5.15,7.39,11.73,7.47,19.04.11,11.66-8.93,21.11-21.06,22.11-.15.01-.29.03-.43.04-1.23.63-2.57,1.11-3.97,1.39-3.12.72-6.71,1.52-10.69,1.52Z"/>
    <path class="cls-4" d="M242.37,97.47c-.09,2.03-.85,3.88-1.32,5.81-1.42,6.19-4.58,11.53-9.36,15.6-5.44,4.68-11.53,8.37-18.58,10.4-1.04.28-1.42.8-1.37,1.84.09,3.02.09,6.05.09,9.07,0,1.75.71,2.88,2.46,3.64,4.63,1.99,9.12,4.21,12.67,7.94,2.08,2.17,2.22,2.65.8,5.34-1.84,3.54-4.07,6.85-7,9.6-1.47,1.37-1.51,2.74-.99,4.4.61,1.84,1.13,3.73,1.42,5.67.19,1.04.19,2.03.05,3.07-.28,1.61-1.28,2.65-2.84,2.98-4.68,1.09-9.41,2.32-14.27,2.55-.85,0-1.23.33-1.32,1.23-.71,4.4-2.13,5.67-6.66,6-.85.05-.8.38-.57.99.95,2.51.9,2.69-1.28,4.49-.52.43-.66.76-.24,1.37.99,1.7.8,3.4-.33,5.01-1.04,1.51-1.09,1.46.33,2.74,3.92,3.64,6.57,8.08,8.93,12.81,1.47,3.03,2.74,6.14,3.02,9.55.47,5.44-.52,10.63-2.79,15.55-2.22,4.82-5.15,9.22-8.56,13.23-.66.76-.76,1.47-.43,2.41,3.12,8.79,6.1,17.63,9.36,26.33,1.8,4.68,1.28,9.41,1.18,14.18-.09,5.15-1.61,9.93-4.06,14.46-1.8,3.21-1.04,6.57.52,9.69,1.28,2.65,3.03,4.92,5.01,7.04,2.65,2.84,3.83,6.24,3.88,10.07.05,5.15-4.3,8.27-8.89,8.6-.43.05-.8.09-1.23,0-1.42-.19-2.79-.24-3.78,1.13-.19.28-.57.47-.9.52-4.11.95-8.22,1.94-12.34.57-1.84-.62-3.5-.8-5.39-.47-3.64.71-7.09-.19-10.35-1.65-3.97-1.75-7.61-4.11-10.82-7-3.54-3.12-5.44-7.04-5.34-11.82,0-1.09-.52-1.61-1.28-2.17-2.79-2.03-5.81-3.78-8.41-6.05-2.51-2.22-4.96-4.49-7.09-7.04-1.99-2.32-4.3-3.36-7.42-2.93-4.96.71-9.93,1.23-14.98.9-1.13-.05-2.32-.19-3.45-.33-.71-.09-1.23.14-1.56.76-1.09,2.08-2.79,3.69-4.35,5.34-.61.71-.8,1.23-.05,1.89,1.23.99,1.23,2.41,1.37,3.88.57,5.91-2.88,9.17-7.42,11.77-1.47.85-3.03,1.56-4.63,2.08-2.6.85-5.2,1.7-7.8,2.6-3.59,1.23-7.37,2.13-11.3,2.08-2.03-.05-4.02.52-6.05,0-.66-.14-1.51.47-2.27.57-2.51.24-4.96-.05-7.37-.9-3.26-1.18-6.52-1.7-9.69-3.03-.71-.33-1.51-.52-2.03-1.13-2.36-2.69-1.18-7.89-.33-10.97.57-2.27,3.36-4.82,5.25-6.24,2.32-1.75,2.46-4.25.47-7.33-1.84-2.84-4.35-5.15-6.62-7.61-1.84-1.99-3.36-4.07-4.06-6.67-.09-.47-.38-.99-.61-1.46-1.51-3.07-2.36-6.29-2.36-9.74.05-4.82-.47-9.83.19-14.61.76-5.86,5.39-10.63,7.52-16.12.57-1.47,1.18-2.93,1.94-4.35.61-1.09.9-2.17.57-3.45-.61-2.41.19-4.96-.38-7.42-.71-3.17-.33-6.33.05-9.5.14-.99-.05-1.28-1.18-1.13-4.63.61-9.26.38-13.8-.76-.9-.19-1.75-.66-2.41-1.23-1.47-1.37-3.26-2.17-5.01-3.07-1.32-.66-1.75-1.84-1.8-3.12,0-.57-.09-.95-.47-1.28-4.16-3.17-6.24-7.52-7.56-12.48-1.18-4.35-1.32-8.74-1.28-13.14.05-4.4,1.47-8.46,2.93-12.53,1.84-5.29,4.11-10.4,7.09-15.12,1.65-2.65,4.02-4.73,6.19-6.95,1.23-1.28,2.69-2.08,4.11-3.03,1.47-.9,2.46-2.51,3.64-3.83,1.13-1.23,2.27-2.51,3.78-3.36.57-.33.52-.66.14-1.13-2.46-3.21-3.88-6.85-4.49-10.82-.14-.8-.09-1.61-.09-2.41,0-1.23.99-1.51,1.8-2.08,1.61-1.18,3.26-2.17,5.15-2.84.43-.14.9-.33,1.37-.43.85-.14,1.18-.24,1.04-1.42-.24-1.7,1.37-2.55,2.65-3.26,1.42-.8,3.07-.95,4.58-1.13-.57-2.79-2.93-4.35-4.06-6.62-.85-1.7-1.65-3.45-1.32-5.53.28-1.84.19-3.73.57-5.53.14-.62-.09-.95-.57-1.37-3.83-3.17-6.85-7.09-9.45-11.34-1.56-2.55-3.36-5.01-3.92-7.99-.71-4.02-1.18-8.08-.33-12.24,1.09-5.67,4.44-9.45,9.03-12.34,3.03-1.94,5.86-4.11,8.46-6.62,2.5-2.46,5.58-4.25,7.89-6.95,5.53-6.29,9.08-13.47,9.41-22.03.09-3.97-.09-7.89-.95-11.77-.09-.38-.14-.71-.19-1.09-.38-2.69,1.75-4.49,4.4-3.73,3.69,1.09,6.1,3.5,7.66,6.9,2.13,4.63,3.45,9.5,4.54,14.42,1.28,5.44,1.18,10.92.52,16.45-.76,5.91-3.07,11.06-7,15.5-2.08,2.32-4.58,4.07-6.85,6.1-1.61,1.42-2.93,2.93-3.88,4.82-.76,1.47-.61,2.46.47,3.36,1.61,1.32,2.88,1.42,4.16.33,1.89-1.56,3.69-3.21,5.58-4.77,4.49-3.69,9.31-6.95,14.09-10.26.43-.28.95-.47,1.42-.66,1.04-.38,1.47-1.13,1.04-2.08-1.04-2.46-1.51-5.01-1.89-7.61-.43-3.07-1.23-6.05-2.03-9.03-.52-1.89.28-2.6,2.08-2.03,3.83,1.13,7.66,2.27,11.15,4.25,1.04.61,1.84,1.42,2.65,2.27.47.47.8.47,1.04-.19,2.74-7.66,8.79-12.19,15.17-16.54,3.92-2.69,8.13-3.88,12.71-4.06.57-.05,1.23-.19,1.51.52.28.71-.19,1.09-.66,1.47-1.51,1.18-2.36,2.79-2.79,4.68-.71,3.26-1.18,6.57-.38,9.88.14.43.05.99.57,1.13.57.19.66-.43.9-.76,1.09-1.23,2.17-1.42,3.69-.57,2.65,1.56,4.54,3.83,5.86,6.52.85,1.75,1.7,3.45,2.27,5.25.24.9.8,1.28,1.61,1.61,4.58,1.7,9.17,3.31,13.61,5.39,7.66,3.54,14.23,8.65,20.56,14.13,3.21,2.79,5.86,6.19,9.26,8.74,1.51,1.13,3.03,2.22,4.82,2.79,2.55.8,5.2.14,6.48-1.56,1.32-1.7,1.28-4.35-.14-6.62-.99-1.51-2.13-2.93-3.36-4.3-2.13-2.32-4.21-4.63-5.72-7.47-1.56-3.02-4.02-5.53-5.58-8.55-2.5-4.77-3.5-9.93-3.83-15.22-.28-5.44.43-10.73,1.65-15.98.95-4.11,3.5-7.33,5.77-10.68,1.47-2.08,3.36-3.5,5.72-4.35,1.89-.66,4.02-.09,5.15,1.46.66.85.57,1.75.43,2.79-.99,5.91-1.75,11.91-.52,17.87,1.94,9.36,7.04,16.97,13.61,23.78,4.16,4.35,9.08,7.47,14.46,10.02,6,2.84,9.55,7.66,11.34,13.94,1.04,3.54,1.32,7.14,1.18,10.82Z"/>
  </g>
  <g>
    <g>
      <path class="cls-7" d="M53.29,128.71c-.54-2.78-2.91-4.33-4.06-6.62-.84-1.69-1.65-3.46-1.33-5.52.28-1.83.2-3.72.58-5.54.13-.61-.07-.94-.55-1.34-3.87-3.2-6.87-7.12-9.48-11.38-1.55-2.54-3.38-4.97-3.9-7.96-.71-4.05-1.19-8.07-.37-12.26,1.1-5.65,4.45-9.43,9.03-12.34,3.05-1.94,5.9-4.08,8.47-6.62,2.49-2.46,5.58-4.25,7.91-6.91,5.54-6.33,9.08-13.49,9.38-22.05.14-3.96-.06-7.9-.92-11.78-.08-.35-.13-.7-.17-1.05-.37-2.71,1.75-4.51,4.4-3.74,3.66,1.06,6.09,3.47,7.65,6.88,2.12,4.62,3.42,9.52,4.54,14.43,1.23,5.4,1.18,10.92.49,16.44-.74,5.91-3.04,11.07-6.99,15.51-2.05,2.3-4.57,4.06-6.86,6.09-1.57,1.4-2.93,2.94-3.87,4.84-.73,1.46-.61,2.46.47,3.34,1.62,1.31,2.9,1.43,4.19.34,1.86-1.58,3.67-3.21,5.55-4.76,4.49-3.7,9.31-6.95,14.08-10.27.43-.3.94-.49,1.44-.67,1.04-.37,1.46-1.15,1.05-2.09-1.06-2.43-1.55-4.98-1.91-7.57-.43-3.07-1.23-6.06-2.03-9.06-.5-1.87.26-2.59,2.09-2.04,3.82,1.15,7.66,2.28,11.16,4.28,1.02.58,1.83,1.4,2.62,2.23.47.49.8.5,1.05-.18,2.72-7.66,8.8-12.16,15.17-16.53,3.91-2.68,8.11-3.88,12.73-4.07.57-.02,1.21-.17,1.5.54.29.69-.21,1.06-.67,1.43-1.51,1.22-2.38,2.79-2.78,4.7-.7,3.29-1.2,6.56-.37,9.9.11.43.05.98.53,1.13.57.19.68-.44.94-.75,1.06-1.25,2.17-1.45,3.65-.58,2.65,1.55,4.53,3.81,5.87,6.54.84,1.71,1.71,3.41,2.26,5.24.26.87.82,1.28,1.62,1.58,4.58,1.7,9.18,3.33,13.61,5.4,7.63,3.57,14.24,8.63,20.57,14.12,3.22,2.79,5.87,6.18,9.26,8.78,1.48,1.13,3.01,2.21,4.82,2.77,2.54.79,5.17.16,6.47-1.54,1.32-1.72,1.25-4.37-.17-6.63-.97-1.54-2.11-2.96-3.34-4.3-2.13-2.32-4.21-4.64-5.7-7.48-1.58-3.02-4.01-5.51-5.6-8.55-2.49-4.78-3.51-9.91-3.81-15.23-.31-5.42.4-10.71,1.64-15.97.97-4.12,3.49-7.32,5.8-10.67,1.43-2.08,3.33-3.53,5.71-4.37,1.87-.67,3.99-.09,5.16,1.47.63.84.57,1.76.4,2.79-1,5.93-1.75,11.93-.51,17.87,1.95,9.35,7.06,16.96,13.61,23.77,4.17,4.34,9.1,7.47,14.47,10.02,6.02,2.86,9.56,7.67,11.36,13.97,1.01,3.55,1.32,7.14,1.15,10.8-.09,2.03-.85,3.9-1.3,5.84-1.43,6.19-4.58,11.52-9.35,15.59-5.45,4.66-11.58,8.37-18.58,10.37-1.06.3-1.42.81-1.39,1.87.07,3.02.07,6.04.09,9.06.01,1.77.71,2.91,2.46,3.66,4.61,1.98,9.11,4.17,12.66,7.91,2.07,2.18,2.2,2.68.81,5.33-1.86,3.56-4.08,6.89-7.01,9.63-1.46,1.37-1.52,2.71-.97,4.39.61,1.85,1.1,3.74,1.42,5.67.17,1.02.18,2.04.02,3.05-.25,1.62-1.24,2.65-2.81,3.01-4.71,1.09-9.41,2.31-14.27,2.52-.88.04-1.23.36-1.36,1.24-.67,4.39-2.09,5.67-6.64,6-.86.06-.82.39-.59,1.01.94,2.51.91,2.71-1.23,4.47-.56.46-.66.75-.27,1.41,1.01,1.7.8,3.4-.32,4.99-1.06,1.49-1.09,1.48.32,2.77,3.94,3.59,6.61,8.06,8.94,12.78,1.5,3.05,2.75,6.16,3.05,9.57.47,5.43-.52,10.59-2.8,15.54-2.22,4.83-5.15,9.19-8.56,13.23-.65.77-.77,1.45-.42,2.42,3.14,8.76,6.09,17.59,9.38,26.29,1.78,4.7,1.25,9.44,1.16,14.21-.1,5.16-1.6,9.92-4.08,14.45-1.77,3.24-1.03,6.55.52,9.71,1.28,2.61,3.05,4.89,5.02,7.01,2.64,2.84,3.86,6.24,3.89,10.06.04,5.19-4.3,8.28-8.9,8.64-.4.03-.81.06-1.2,0-1.46-.22-2.81-.23-3.8,1.14-.19.26-.58.44-.91.52-4.08.94-8.22,1.91-12.34.54-1.84-.61-3.47-.82-5.38-.45-3.61.69-7.06-.23-10.36-1.69-3.97-1.75-7.57-4.1-10.81-6.96-3.55-3.13-5.43-7.07-5.34-11.84.02-1.07-.53-1.61-1.27-2.15-2.79-2.05-5.8-3.78-8.42-6.07-2.51-2.19-4.95-4.46-7.09-7.01-1.97-2.35-4.3-3.36-7.39-2.93-4.97.7-9.97,1.23-15,.9-1.15-.08-2.3-.19-3.45-.34-.71-.09-1.23.14-1.56.75-1.09,2.07-2.8,3.65-4.35,5.35-.62.68-.82,1.22-.04,1.87,1.21,1.02,1.22,2.42,1.36,3.86.58,5.9-2.9,9.18-7.44,11.81-1.46.85-3.01,1.52-4.62,2.06-2.6.87-5.22,1.69-7.81,2.58-3.6,1.24-7.36,2.13-11.31,2.09-1.99-.02-3.98.51-6.03.02-.68-.16-1.51.47-2.29.55-2.51.26-4.94-.05-7.34-.9-3.27-1.17-6.54-1.71-9.69-3.03-.72-.3-1.52-.51-2.03-1.09-2.4-2.71-1.18-7.9-.37-10.98.61-2.3,3.37-4.84,5.26-6.24,2.34-1.74,2.48-4.27.49-7.34-1.83-2.83-4.34-5.16-6.65-7.63-1.82-1.94-3.32-4.03-4.02-6.63-.14-.51-.39-.99-.63-1.46-1.53-3.07-2.37-6.28-2.35-9.74.03-4.82-.48-9.84.16-14.63.79-5.86,5.39-10.64,7.51-16.09.58-1.49,1.18-2.96,1.97-4.36.6-1.07.88-2.17.57-3.44-.61-2.44.18-4.99-.37-7.42-.72-3.2-.36-6.36.04-9.53.12-.98-.06-1.28-1.18-1.13-4.65.64-9.28.41-13.84-.73-.85-.21-1.75-.67-2.39-1.26-1.48-1.37-3.27-2.16-5.01-3.05-1.33-.68-1.76-1.84-1.77-3.15,0-.57-.11-.95-.5-1.24-4.16-3.17-6.22-7.55-7.55-12.47-1.18-4.35-1.32-8.75-1.28-13.18.04-4.37,1.47-8.45,2.91-12.51,1.87-5.28,4.16-10.38,7.11-15.14,1.64-2.65,4.04-4.7,6.19-6.94,1.22-1.26,2.69-2.06,4.13-2.99,1.44-.93,2.44-2.53,3.63-3.83,1.14-1.24,2.27-2.51,3.75-3.36.6-.35.52-.67.15-1.15-2.45-3.21-3.87-6.85-4.5-10.82-.13-.8-.09-1.59-.09-2.39,0-1.24,1.03-1.53,1.83-2.12,1.59-1.17,3.25-2.14,5.11-2.79.46-.16.91-.36,1.39-.44.84-.15,1.19-.25,1.03-1.42-.24-1.72,1.36-2.54,2.67-3.26,1.43-.79,3.07-.97,4.57-1.14ZM131.49,310.21s-.01,0-.01,0c1.05-.06,1.84.37,2.49,1.2.65.84,1.44,1.57,2.13,2.38,5.8,6.76,12.87,11.91,20.53,16.34.69.4,2.18.22,1.9,1.4-.24.98-1.47.34-2.26.38-.73.04-1.12.28-1.03,1.02.24,1.8.38,3.7,1.44,5.21,2.36,3.37,5.06,6.41,9.19,7.7.21.07.44.14.59.29,2.19,2.19,5.05,2.39,7.87,2.66,1.14.11,2.07-.31,2.71-1.34,1.48-2.37,1.6-4.83.53-7.37-.11-.27-.46-.5-.18-.82.27-.31.6-.09.85.06.38.21.77.45,1.08.76,1.61,1.61,1.84,3.65,1.83,5.79,0,.96-.82,1.93-.15,2.84.66.89,1.84.39,2.75.72,1.51.56,3.12.71,4.73.59,2.34-.18,4.29-1.04,5.43-3.26,1.32-2.58.3-5.03-.36-7.5-.37-1.38-1.24-2.32-2.63-2.77-.65-.21-1.36-.53-1.04-1.39.32-.85,1.07-.59,1.72-.42.3.08.59.19.87.32,4.21,1.88,6.21,5.62,5.57,10.42-.25,1.84.54,2.64,2.4,2.45,3.4-.36,5.49-3.19,4.61-6.57-.8-3.05-2.1-5.94-4.22-8.34-2.83-3.2-4.92-6.71-5.39-11.05-.12-1.09-.6-1.25-1.53-.62-.95.64-1.92,1.17-3.3,1.09.53-.92,1.24-1.45,1.88-2.03,3.13-2.86,5.05-6.42,6.37-10.42,1.34-4.06,1.09-8.25,1.49-12.39.06-.61.02-1.26-.32-1.81-.43-.68-.49-1.41-.47-2.17.05-1.75-.33-3.45-.74-5.12-1.18-4.79-2.89-9.4-4.98-13.87-.8-1.71-1.74-3.4-2.38-5.13-.81-2.18-1.47-4.45-2.1-6.71-.47-1.7-.58-1.66-2.18-.87-5.27,2.59-10.6,5.01-16.53,5.68-.72.08-1.22.44-1.54,1.11-.23.47-.52.93-.85,1.34-2.08,2.7-4.85,4.64-7.36,6.87-3.93,3.49-9.79,3.49-13.36.63-.75-.6-1.53-1.22-2.57-1.26-.48-.16-1-.17-1.43.04-1.07.52-2.17.34-3.27.23-2.35-.22-4.21-1.44-6.08-2.79-2.34-1.68-3.87-3.73-3.83-6.7.02-1.57-.53-2.95-1.28-4.27-1.49-2.6-2.54-5.3-1.67-8.36.39-1.36.94-2.68,1.28-4.05.66-2.69,2.38-4.34,4.87-5.39,1.77-.74,3.17-1.98,3.94-3.79,1.02-2.39,2.7-4.24,4.55-5.99,3.54-3.34,7.59-5.97,11.86-8.26.53-.22,1.04-.48,1.58-.65,1.42-.45,1.93-1.18,1.5-2.78-.57-2.13-.03-4.16,1.59-5.75.33-.32.77-.94,1.33-.58.48.31.17.9.1,1.37-.33,2.03-.57,4.06.02,6.08.71,2.43.59,2.72-1.81,3.6-8.43,3.11-14.78,8.61-19.07,16.51-.65,1.19-1.54,1.99-2.98,2.41-1.89.56-3.53,1.74-4.78,3.36-.62.8-.65,1.81-1.05,2.7-.65,1.45-.88,3.07-.15,4.65.65,1.39,1.44,1.48,2.48.36.95-1.03,1.66-2.34,3.08-2.87.43-.16.88-.61,1.32-.1.44.51.15,1.04-.2,1.45-1.51,1.75-2.23,3.84-3.04,5.98-1.55,4.08,1.52,10.17,6.93,10.12.52,0,1.06.12,1.57.24.84.2,1.08-.12.88-.9-.1-.38-.23-.76-.34-1.15-.64-2.27.12-4.13,2.18-5.32.26-.15.5-.44.84-.26.35.19.22.55.18.84-.21,1.75.05,3.41.7,5.08,1.29,3.36,3.86,5.02,7.4,4.34,4.84-.94,8.96-3.12,11.61-7.48,1.22-1.99,2.91-2.97,5.22-3.44,7.56-1.56,14.44-4.72,20.27-9.81,4.02-3.51,6.73-8.03,9.05-12.84,2.41-4.99,2.44-9.97.86-15.13-1.52-4.95-4.13-9.31-7.33-13.32-3.84-4.81-8.24-8.94-14.18-11.09-1.73-.62-1.84-.6-1.88,1.2-.05,2.03-.73,2.87-2.72,3.37-1.13.28-2.27.37-3.44.28-1.6-.13-3.2-.2-4.78.15-.46.1-1.18.25-.73.9.99,1.43.05,2.41-.62,3.49-.72,1.16-1.67,2.01-3.11,1.94-2.78-.13-5.6.31-8.34-.53-.66-.2-1.15-.08-1.2.74-.51.82-.92,1.72-1.54,2.45-2.96,3.46-6.21,6.59-10.22,8.83-2.55,1.42-5.26,2.15-8.2,1.53-.73-.15-1.28.12-1.85.51-2.1,1.44-4.33,2.6-6.86,3.11-1.1.22-2.21.2-3.04-.54-1.09-.99-2.02-.81-3.06-.03-.5.37-1.06.65-1.6.95-1.38.74-2.82,1.33-4.39,1.47-.57.05-1.2.08-1.46-.62-.27-.73.11-1.19.71-1.53.31-.17.62-.33.94-.48,2.67-1.32,5.16-2.95,7.59-4.66,1.53-1.07,1.86-.98,2.17.92.27,1.63.71,1.9,2.23,1.34.29-.11.58-.22.87-.34,4.01-1.75,7.82-3.8,10.99-6.88.31-.3.68-.66,1.17-.39.53.29.42.82.39,1.31-.04.62-.54,1.01-.79,1.52-.09.19-.25.39-.07.6.16.19.39.21.61.1,1.25-.66,2.69-.84,3.88-1.7,2.47-1.79,4.51-4.02,6.32-6.43,1.09-1.46,2.14-3.06,2.2-5.05.02-.8.75-1.19,1.32-.79,1.24.86,2.64.73,3.97.86,2.34.23,4.66.75,7.03.5,1.32-.14,1.68-.79,1.16-2.01-.26-.61-.64-1.17-.91-1.77-.31-.69-.33-1.41.16-2.02.44-.54,1.02-.77,1.78-.6,3.16.7,6.37.35,9.56.36.79,0,1.13-.46.62-1.11-.65-.84-.64-1.81-.82-2.76-.13-.69.12-1.19.81-1.28,1.15-.16,2.05-.83,3.05-1.3.39-.18.91-.31.92-.86,0-.52-.48-.7-.85-.94-.89-.59-1.89-.7-2.92-.76-.72-.04-1.28-.41-1.56-1.07-.33-.77.48-.82.82-1.14,1.31-1.22,1.71-2.84,2.37-4.69-1.03.49-1.74.85-2.47,1.18-1.58.7-3.14,1.45-4.92,1.54-1.13.06-1.09-.46-.64-1.18.41-.65,1.05-1.05,1.73-1.41,2.86-1.51,6.01-2.41,8.69-4.3,1.27-.89,2.62-1.67,3.94-2.49.22-.14.49-.36.72-.18.33.26.03.56-.1.82-.4.82-1.04,1.43-1.76,1.96q-1.91,1.41-1.3,3.71c-.54,1.63-1,3.28-2.2,4.61-.46.51-.14.84.43,1.07,1.07.42,2.12.89,3.18,1.36,2.06.91,2.45,2.81.86,4.34-.54.53-.53.87.13,1.2,2.1,1.05,4.21,2.1,6.32,3.14.8.39,1.41.11,1.44-.72.07-1.64.01-3.29-1.35-4.55-.92-.85-.8-1.3.4-1.65.43-.12.87-.19,1.3-.29,1.09-.25,1.57-.93,1.42-2.04-.05-.4-.16-.8-.14-1.19.08-1.17-.45-1.54-1.58-1.54-2.61-.01-4.64-1.63-6.89-2.63-.19-.09-.27-.44-.39-.67.4-.63,1-.5,1.55-.35,4.48,1.25,9.01,1.01,13.56.61.94-.08,1.18-.59,1.18-1.42,0-2.16-.82-4.05-1.83-5.89-.18-.32-.68-.62-.35-1.03.32-.41.82-.18,1.24-.07,2.07.56,4.17.81,6.32.63,3.62-.31,7.23-.68,10.82-1.26,1.82-.3,1.94-.36,1.91-2.24,0-.22-.02-.44-.03-.67-.15-2.7-1.1-5.19-2.1-7.65-.76-1.87-.72-2.1.66-3.5,1.8-1.83,3.59-3.67,5.01-5.83.9-.82,1.42-1.9,2.07-2.9.66-1.02.64-1.98-.05-2.97-1.11-1.58-2.35-3.06-4.04-3.99-3.5-1.93-7.03-3.82-11.01-4.59-.49-.09-.86-.16-.74-.81.61-3.16-.03-6.27-.29-9.41-.41-5.14-1.74-9.93-4.4-14.36-.68-1.13-1.59-2.15-1.96-3.46-.07-.25-.23-.53,0-.75.29-.28.58-.07.84.1,1.44.94,3.02,1.7,3.83,3.39.38.81,1.03.86,1.76.33,1.36-.99,1.51-1.95.31-3.2-1.64-1.69-3.37-3.28-5.06-4.92-1.08-1.05-1.08-1.64.08-2.62.61-.52,1.27-.97,1.9-1.46.39-.3,1.11-.39.95-1.1-.14-.6-.75-.7-1.27-.83-2.58-.66-5.16-1.33-7.75-1.97-.9-.22-1.77-.56-2.07-1.48-.63-1.95-1.93-3.47-3.08-5.1-2.35-3.33-4.37-6.95-7.38-9.74-5.36-4.98-10.74-9.92-17.11-13.71-4.48-2.66-8.8-5.47-13.94-6.78-3.05-.78-5.99-1.36-8.86.51-.53.34-1.21.38-1.71-.19-.54-.62-.04-1.03.32-1.49,1.29-1.66,1.4-3.94.31-5.73-.3-.49-.59-1-.79-1.53-.84-2.24-1.63-4.5-2.46-6.74-.38-1.03-1.12-1.8-2-2.44-.6-.44-1.12-.41-1.6.23-1.1,1.48-1.19,2.99-.31,4.6.26.49.71,1.08-.03,1.5-.63.36-1.13.04-1.62-.48-3.26-3.52-5.04-7.68-5.47-12.43-.24-2.66.09-5.23,1.32-7.65.2-.39.91-.73.44-1.22-.38-.39-.92.07-1.35.23-4,1.51-7.54,3.7-10.51,6.82-3.31,3.47-6.26,7.13-7.74,11.79-.41,1.3-.75,2.6-.26,3.91.36.97.62,1.94.77,2.95.11.72.55,1.66-.4,1.99-.91.32-1.1-.74-1.42-1.29-2.74-4.82-6.74-8.3-11.55-10.92-.59-.32-1.23-.52-1.9-.56-.82-.06-1.21.2-1.16,1.14.09,1.61.47,3.15.9,4.69,1.64,5.85,4.04,11.46,5.41,17.4.24,1.04-.01,1.36-1.02,1.07-.86-.25-1.71-.46-2.61-.45-.98.02-1.79.36-1.99,1.39-.21,1.04.44,1.69,1.31,2.06.81.35,1.7.53,2.51.87,1.09.45,2.09,1.06,2.71,2.34-1.12-.46-2.06-.9-3.04-1.25-1.89-.66-3.8-1.24-5.68-1.91-1.9-.67-2.21-2.41-.66-3.63,1.14-.91,2.28-1.84,3.76-2.2,1.15-.28.59-1.12.4-1.71-.22-.7-.63-1.08-1.51-.63-6.69,3.48-12.34,8.36-17.85,13.37-3.83,3.48-7.27,7.39-10.32,11.62-.3.42-.6,1.11-1.18.72-.6-.41.01-.99.23-1.4.67-1.25,1.44-2.44,2.15-3.67.18-.32.65-.69.24-1.04-.46-.4-.81.1-1.09.41-1.8,1.97-3.55,3.98-4.89,6.29-.71,1.22-1.65,1.91-2.99,2.22-1.69.39-3.38.77-4.98,1.46-1,.44-1.95.97-2.09,2.2-.14,1.25.87,1.66,1.73,2.1,1.04.53,1.17,1.13.49,2.09-2.59,3.69-3.72,7.82-3.49,12.31.06,1.12.29,2.21.99,3.12.24.31.54.7.97.6.52-.12.31-.66.36-1.02.56-4.15,1.42-8.23,3.19-12.05.71-1.52,1.49-3.03,2.53-4.36.26-.33.58-.6,1.02-.35.42.24.43.62.29,1.05-.25.76-.44,1.54-.75,2.27-2.1,4.98-3.25,10.19-3.67,15.56-.1,1.33-.16,2.87.68,3.86,1.77,2.07,2.55,4.39,2.81,7.02.32,3.21.98,6.42.27,9.64-.37,1.68-.48,3.55-2.07,4.73-1.4-.13-1.32-1.02-1.02-2.01,1.13-3.76,1.27-7.56.5-11.41.08-.76-.07-1.47-.4-2.16-.26-.55-.47-1.02-1.22-.91-1.55.23-3.12.16-4.6.92-1.8.92-2.07,1.63-.94,3.37.05.85-.39,1.27-1.17,1.53-2.22.76-4.53,1.24-6.64,2.3-.53.27-1.23.37-1.09,1.26.66,4.18,1.56,8.28,3.84,11.93.48.77.44,1.33.01,2.06-.8,1.37-1.92,2.43-3.04,3.51-.53.51-1.24.9-1.58,1.74,1.86-.07,3.39-.68,4.81-1.66,1.32-.91,2.85-1.83,4.38-1.78,5.09.19,9.77,1.37,14.23,4.39,3.56,2.41,4.91,8.2,1.84,11.58-.56.62-.71,1.25-.52,2.07.46,2.01.6,4.08-.03,6.05-.34,1.06-.06,1.55.78,2.04,2.11,1.23,4.17,2.53,5.99,4.17.96.86,1.99,1.58,3.15,2.18,4.95,2.55,9.69,5.55,15.05,7.25.28.09.67.16.68.54.01.41-.33.67-.66.73-.47.1-.97.1-1.45.05-3.54-.37-6.64-2.14-9.96-3.19-.75-.24-1.44-.6-2.26-.36-2,.57-4.29.4-5.79,2.26-.3.37-.83.69-.67,1.22.19.63.82.34,1.27.41,1.42.19,1.69.77.87,1.88-1.1,1.47-1.99,3.05-2.39,4.86-.33,1.47.35,2.15,1.73,1.68,1.79-.6,3.65-.65,5.5-.86.9-.11,1.77.08,2.38.89.59.78.74,1.52.23,2.45-.84,1.53-1.66,3.03-3.09,4.1-.45.33-1,.53-1.48.13-.57-.48.18-.74.3-1.1.12-.37.38-.7.57-1.04.27-.49.13-.93-.12-1.38-.29-.53-.72-.37-1.16-.3-.71.12-1.33.47-1.97.78-2.06.98-3.1.87-4.68-.68-.46-.45-.64-.52-1.11-.05-2.57,2.58-5.14,5.15-7.49,7.94-8.54,10.08-10.82,21.83-9.06,34.58.65,4.67,2.84,8.91,4.35,13.34.82,2.41,2.81,4.14,3.58,6.57.61,1.93,1.83,3.49,3.19,5,2.66,2.98,5.2,6.06,7.78,9.11,2.41,2.85,4.85,5.64,7.73,8.07,1.2,1.02,2.64,1.5,3.86,2.57,6.2,5.38,13.07,9.6,21.03,12.15,9.72,3.11,19.42,4.57,29.48,2.14.15.04.26.03.24-.17ZM74.01,191.7c-2.1-1.03-4.1-2.09-5.81-3.59-.66-.58-1.17-.61-1.88-.19-1.77,1.05-3.3,2.4-4.94,3.63-.74.55-.98,1.23-1,2.17-.08,3.58-.65,7.06-2.46,10.23-.55.96-1.17,1.89-2.08,2.57-.27.2-.57.31-.86.11-.32-.23-.24-.56-.05-.83.9-1.28.9-2.84,1.38-4.26.99-2.92,1.29-5.94.83-8.94-.28-1.84-.46-3.89-2.27-5.17-.72-.51-.06-.9.35-1.03,2.19-.73,3.68-2.43,5.42-3.79,1.94-1.52,2.05-3.72,1.96-5.93-.02-.51-.27-1.13-.84-1.22-.53-.08-.59.56-.81.92-.25.42-.43.88-.68,1.3-.79,1.34-1.72,2.49-3.46,2.59-.72.04-.86.59-1,1.2-.65,2.77-1.9,4.96-5.13,5.29-1.2.12-2.04.63-2.34,2.07-.28,1.34-.88,2.74-2.43,3.29-.34.12-.7.23-1.01-.02-.38-.31-.3-.74-.15-1.11.28-.7.62-1.37.95-2.05q.95-1.97-.54-3.48c-.16-.16-.3-.33-.43-.51-.34-.48-.72-1.01-.27-1.57.42-.51,1-.28,1.46-.01,1.19.7,2.54.74,3.85.94,1.04.16,1.86-.3,2.28-1.24,1.05-2.37,1.72-4.73.32-7.26-.57-1.04-1.3-1.84-2.25-2.54,2.09-.96,3.77.11,4.59,1.89.34.74.78,1.34,1.68,1.25.87-.08,1.65-.39,2.07-1.24,1.31-2.64-.39-6.84-3.17-7.84-.44-.16-1.2-.18-1.03-.76.16-.54.95-.69,1.49-.5,2.25.84,4.57,1.65,5.4,4.29.32,1.02.85.85,1.45.29,1.8-1.66,1.96-4.41.38-6.45-2.94-3.79-7.17-4.6-11.53-4.68-2.87-.05-5.54,1.1-7.9,2.84-.96.71-2.03,1.27-3.07,1.88-.51.3-1.06.47-1.17-.39-.09-.67-.48-.7-.94-.53-1.78.65-3.58,1.21-5.21,2.23-4.56,2.85-7.29,7.19-9.59,11.83-1.59,3.21-2.69,6.65-4.07,9.95-2.87,6.84-2.93,13.88-2,20.93.41,3.1,1.77,6.19,3.49,9.01,1.46,2.4,3.19,4.58,4.79,6.87.22.31.51.57.47,1.05-.12,1.59.24,2.01,1.76,2.31.83.16,1.65.34,2.47.54.34.08.72.21.71.66-.04,1.77,1.29,1.99,2.53,2.09,2.74.21,5.5.35,8.25.39,4.75.06,6.31-1.03,7.98-5.42.93-2.46,2.08-4.83,3.67-6.92,4.22-5.54,8.54-11,13.38-16.03.83-.86,1.18-3.18.64-4.05-1.05-1.68-.92-2.45.55-3.88,1.62-1.57,3.77-2.1,5.83-3.16ZM49.78,260.51c-3.33,3.52-5.39,7.6-6.93,11.97-2.95,8.35-2.93,16.8-.63,25.26.76,2.78,2.25,5.29,4.11,7.53,2.53,3.04,4.9,6.25,7.72,8.99,2.65,2.58,5.11,5.45,8.38,7.35.31.18,1.35.41.39,1.05-1.5,1-2.88,2.33-4.71,2.65-1.66.29-3.11,1.03-4.61,1.65-2.18.9-4.04,2.87-4.77,5.12-.46,1.43-.33,6.51,2.18,6.19.82-.1,1.32-.51,1.63-1.33.97-2.61,2.3-5,4.67-6.65,1.1-.77,2.24-1.44,3.61-1.58.7-.07,1.39-.01,1.65.77.24.74-.32,1.13-.85,1.47-.19.12-.4.2-.58.32-1.65,1.13-3.44,2.18-3.94,4.3-.84,3.6.34,6.71,4.68,6.16.92-.12,1.36-.55,1.62-1.45.57-1.94,1.61-3.65,2.95-5.17,1.37-1.55,3.05-2.4,5.17-2.25.36.03.76.05.88.46.12.39-.28.51-.51.69-.87.69-1.72,1.42-2.37,2.33-1.29,1.8-.53,3.77,1.6,4.29.8.19,1.59.09,2.38-.09,2.55-.58,5.09-1.17,7.65-1.72,4.26-.92,8.5-1.92,12.53-3.6,4.35-1.8,6.29-6.93,4.4-11.12-.43-.95-.88-1.39-1.88-.66-.7.51-1.54.66-2.42.52-.42-.07-.79-.24-.9-.68-.11-.43.24-.66.55-.82,3.59-1.91,6.05-5,8.53-8.08.72-.89.61-1.33-.41-1.76-2.25-.94-4.54-1.83-6.67-3.03-5.94-3.36-11.92-6.65-17.42-10.73-1.53-1.13-3.14-2.14-4.53-3.46-2.57-2.45-4.92-5.09-7.35-7.68-2.32-2.48-4.5-5.08-6.29-7.88-3.38-5.3-6.41-10.85-8.56-16.8-.3-.82-.61-1.64-.94-2.52ZM238.03,94.83c0-.18.02-.36.03-.53.23-4.04-.37-7.85-2.77-11.26-2.29-3.26-5.51-5.33-8.87-7.28-11.12-6.47-19.84-15.27-25.39-26.95-1.94-4.08-3.08-8.5-3.43-13.06-.31-4.09-.15-8.17.58-12.22.11-.63.33-1.37-.49-1.75-.74-.34-1.41-.11-1.95.43-1.86,1.85-3.62,3.85-4.78,6.19-3.4,6.84-3.77,14.24-3.6,21.7,0,.26.07.53.13.79,1.1,4.86,3.24,9.27,5.79,13.49,2.04,3.38,4.63,6.38,6.72,9.74,1.46,2.36,3.59,4.23,5.28,6.45,2.09,2.75,2.74,5.69,2.19,9.01-.32,1.91-1.15,3.57-2.73,4.71-2.4,1.72-4.97,3.12-8.07,3.02-.9-.03-1,.43-.69,1.09.56,1.2,1.5,1.92,2.8,2.24,2.76.67,5.55,1.27,7.93,2.97,2.6,1.85,2.93,4.25.84,6.67-.61.7-.59,1.22.17,1.74.29.2.56.44.84.66,2.04,1.58,2.73,3.85,3.18,6.25.28,1.5-.64,2.51-1.36,3.62-.15.22-.28.46-.36.71-.28.81.1,1.51.54,2.1.39.53.9-.04,1.31-.17,2.6-.86,4.7-2.66,7.14-3.83,4.08-1.96,7.73-4.54,10.72-7.96,4.66-5.32,8.01-11.25,8.32-18.54ZM50.09,106.73c.28-.43.51-.85.82-1.2.58-.65.69-1.2-.14-1.74-.29-.19-.49-.51-.72-.78-1.42-1.61-1.38-2.86.14-4.42,1.36-1.4,3-2.31,4.86-2.91,1.75-.56,3.34-1.35,4.49-2.92,1.51-2.07,3.12-4.08,4.73-6.07.5-.62.36-.96-.21-1.4-1.16-.89-2.03-1.95-2.04-3.55-.01-2.41.54-4.66,1.72-6.75,1.62-2.88,3.92-5.18,6.58-7.04,7.53-5.26,10.64-12.69,10.77-21.58.04-2.52-.18-5.06-.18-7.59,0-1.37-.13-2.74-.39-4.1-1.06-5.64-2.96-10.93-6.46-15.56-.39-.52-.8-.97-1.48-1.02-.49-.03-.91.04-.64.75,1.11,2.92.9,6.03,1.25,9.06.62,5.44-.14,10.64-2.7,15.5-3.19,6.04-7.1,11.52-12.44,15.92-3.79,3.13-7.19,6.74-11.52,9.19-2.1,1.19-3.96,2.65-5.47,4.58-1.27,1.62-1.68,3.59-2.48,5.41-1.54,3.5-1.51,7.03-.4,10.65,1.36,4.43,3.51,8.39,6.45,11.99,1.66,2.04,3.28,4.06,5.47,5.6ZM65.18,185.44c-.61-.56-.98-.93-1.39-1.26-.35-.28-.73-.32-1.06.05-.97,1.11-2.08,2.06-3.32,2.84-.36.23-.27.48-.09.79.2.34.4.44.73.16,1.43-1.22,3.14-1.92,5.13-2.58Z"/>
      <path class="cls-2" d="M180.2,188.3q-.61-2.3,1.3-3.71c.72-.53,1.36-1.14,1.76-1.96.13-.26.42-.56.1-.82-.23-.18-.5.04-.72.18-1.32.83-2.67,1.6-3.94,2.49-2.68,1.89-5.84,2.79-8.69,4.3-.67.36-1.32.76-1.73,1.41-.45.71-.5,1.24.64,1.18,1.78-.09,3.34-.84,4.92-1.54.73-.32,1.43-.68,2.47-1.18-.66,1.86-1.06,3.48-2.37,4.69-.34.31-1.16.37-.82,1.14.29.66.84,1.03,1.56,1.07,1.03.05,2.04.17,2.92.76.36.24.85.42.85.94,0,.54-.53.68-.92.86-1,.47-1.9,1.14-3.05,1.3-.69.1-.94.59-.81,1.28.18.95.16,1.92.82,2.76.51.65.16,1.11-.62,1.11-3.19-.01-6.4.34-9.56-.36-.76-.17-1.34.06-1.78.6-.49.61-.47,1.33-.16,2.02.27.6.65,1.16.91,1.77.52,1.22.16,1.88-1.16,2.01-2.37.25-4.69-.27-7.03-.5-1.33-.13-2.73,0-3.97-.86-.57-.4-1.3-.02-1.32.79-.06,1.99-1.1,3.59-2.2,5.05-1.81,2.41-3.85,4.64-6.32,6.43-1.19.86-2.63,1.05-3.88,1.7-.21.11-.44.09-.61-.1-.18-.21-.02-.41.07-.6.25-.51.75-.9.79-1.52.03-.48.13-1.02-.39-1.31-.49-.27-.86.08-1.17.39-3.17,3.08-6.99,5.13-10.99,6.88-.28.12-.57.24-.87.34-1.53.56-1.97.29-2.23-1.34-.31-1.91-.64-1.99-2.17-.92-2.43,1.7-4.92,3.34-7.59,4.66-.32.16-.63.31-.94.48-.6.34-.97.8-.71,1.53.26.7.89.67,1.46.62,1.57-.14,3.01-.73,4.39-1.47.55-.29,1.11-.58,1.6-.95,1.05-.77,1.97-.95,3.06.03.82.75,1.94.77,3.04.54,2.53-.51,4.76-1.68,6.86-3.11.57-.39,1.12-.66,1.85-.51,2.94.61,5.65-.11,8.2-1.53,4-2.24,7.26-5.37,10.22-8.83.62-.72,1.03-1.63,1.54-2.45-.09.63.33,1.08.57,1.58,1.14,2.36,1.65,4.84,1.32,7.44-.16,1.3-.55,2.56-.83,3.84-4.28,2.29-8.32,4.91-11.86,8.26-1.85,1.75-3.53,3.6-4.55,5.99-.77,1.8-2.17,3.04-3.94,3.79-2.49,1.05-4.21,2.69-4.87,5.39-.34,1.37-.9,2.69-1.28,4.05-.87,3.06.18,5.76,1.67,8.36.76,1.32,1.31,2.7,1.28,4.27-.04,2.98,1.49,5.02,3.83,6.7,1.87,1.34,3.73,2.56,6.08,2.79,1.1.11,2.2.28,3.27-.23.43-.21.95-.2,1.43-.04.66,2.12.47,4.39,1.07,6.52-1.23-.09-1.79.87-2.4,1.64-2.95,3.74-4.98,7.99-6.79,12.37-.47,1.14-1.02,2.26-.78,3.55-1.2,2.01-2.04,4.19-2.98,6.33-.52,1.19-1.39,2.24-1.58,3.57,0,0,.01,0,.01,0-.2-.11-.23,0-.24.17-10.06,2.43-19.76.97-29.48-2.14-7.96-2.55-14.83-6.77-21.03-12.15-1.22-1.06-2.66-1.55-3.86-2.57-2.87-2.43-5.32-5.22-7.73-8.07-2.57-3.05-5.11-6.14-7.78-9.11-1.35-1.51-2.57-3.08-3.19-5-.77-2.43-2.76-4.15-3.58-6.57-1.51-4.43-3.71-8.66-4.35-13.34-1.76-12.75.52-24.49,9.06-34.58,2.36-2.78,4.92-5.36,7.49-7.94.48-.48.66-.4,1.11.05,1.58,1.54,2.62,1.66,4.68.68.64-.3,1.26-.66,1.97-.78.44-.08.87-.23,1.16.3.25.45.39.9.12,1.38-.19.35-.45.67-.57,1.04-.12.36-.87.62-.3,1.1.48.4,1.03.21,1.48-.13,1.42-1.07,2.25-2.57,3.09-4.1.51-.93.36-1.67-.23-2.45-.61-.8-1.48-1-2.38-.89-1.84.22-3.71.26-5.5.86-1.39.47-2.06-.21-1.73-1.68.41-1.8,1.29-3.39,2.39-4.86.83-1.1.55-1.69-.87-1.88-.45-.06-1.08.22-1.27-.41-.16-.53.37-.85.67-1.22,1.5-1.86,3.79-1.68,5.79-2.26.82-.24,1.51.13,2.26.36,3.33,1.04,6.42,2.82,9.96,3.19.48.05.98.05,1.45-.05.33-.07.68-.33.66-.73-.01-.38-.4-.45-.68-.54-5.36-1.7-10.1-4.7-15.05-7.25-1.15-.6-2.19-1.32-3.15-2.18-1.82-1.64-3.88-2.94-5.99-4.17-.84-.49-1.12-.98-.78-2.04.63-1.97.49-4.04.03-6.05-.19-.82-.04-1.45.52-2.07,3.07-3.38,1.72-9.17-1.84-11.58-4.46-3.02-9.13-4.2-14.23-4.39-1.53-.06-3.06.87-4.38,1.78-1.42.98-2.94,1.59-4.81,1.66.34-.84,1.04-1.22,1.58-1.74,1.12-1.08,2.24-2.14,3.04-3.51.43-.73.47-1.29-.01-2.06-2.28-3.64-3.17-7.75-3.84-11.93-.14-.88.57-.99,1.09-1.26,2.11-1.06,4.43-1.54,6.64-2.3.78-.27,1.22-.68,1.17-1.53,1.17-.58,2.38-1.04,3.3-2.08.67-.76,1.66-.77,2.54-.21.47.3.88.72,1.31,1.08.76,3.84.62,7.65-.5,11.41-.3.99-.38,1.88,1.02,2.01-.43,1.49-.83,2.99-1.3,4.46-.24.76-.13,1.12.69,1.49,4.78,2.13,9.5,4.39,13.51,7.86.73.63,1.6.94,2.58.77,3.36-.57,6.72-.29,10.08,0,2.79.25,5.52.62,8.1,1.93.76.39,2.23.52,2.85-.58,1.53-2.75,3.5-5.1,5.76-7.26.81-.77,1.58-1.22,2.58-.71,1,.52,1.07,1.54.69,2.45-.69,1.66-.47,3.38-.57,5.09-.21.15-.43.29-.62.46-.79.7-1.11,1.55-.89,2.61.23,1.09,1.07,1.33,1.98,1.46,1.13.16,1.73.99,2.38,1.77.39.47.75,1,1.2,1.41,1.85,1.69,4.56,1.87,5.81.22,1.12-1.47,2.52-2.1,4.24-2.36,2.55-.39,3.21-1.27,3.02-3.84,1.49-1.77,2.98-3.53,2.75-6.1-.07-.79.1-1.6.53-2.31.56-.93,1.4-1.35,2.47-1.24,1.04.1,1.92.5,2.26,1.57.73,2.33,1.84,4.52,2.47,6.89.58,2.15,1.68,3.61,4.27,3.8,1.68.12,3.33.23,5.01.2,4.43-.08,8.86-.23,13.3-.12,4.36.11,8.69.35,13.01.96,2.48.35,4.97.25,7.44.09.52-.03,1.62.1,1.21-1.14-.54-1.63-.12-2.38,1.45-3.14,1.67-.81,3.43-1.57,4.86-2.72,1.95-1.56,4.11-2.6,6.36-3.58,6.27-2.72,12.9-4.52,19.13-7.35.43-.2.86-.13,1.3-.15,4.23-.13,7.64,2.05,11.13,3.98,1.01.56,1.57,1.54,1.94,2.63.33.99.25,2.01.31,3.03-1.42,2.16-3.21,4-5.01,5.83-1.38,1.4-1.42,1.63-.66,3.5,1,2.47,1.95,4.95,2.1,7.65.01.22.03.44.03.67.03,1.87-.09,1.94-1.91,2.24-3.59.59-7.2.96-10.82,1.26-2.15.18-4.25-.07-6.32-.63-.42-.11-.91-.35-1.24.07-.33.41.17.71.35,1.03,1.01,1.84,1.83,3.73,1.83,5.89,0,.83-.24,1.33-1.18,1.42-4.55.4-9.09.63-13.56-.61-.55-.15-1.15-.28-1.55.35-.95-.33-1.93-.45-2.93-.43ZM87.27,174.16c-.57-.02-1.09.15-1.39.64-.38.62-.23,1.31.1,1.91.55.99,1.33,1.77,2.31,2.34,1.45.86,2.91,1.71,4.36,2.57,1.62.96,2.83,2.27,3.42,4.09.59,1.84,2.28,2.33,3.54.82,2.19-2.61,5.23-3.39,8.26-3.68,4.73-.45,9.49-.09,14.14,1.13,1.07.28,2.07.83,3.21.79,1.47-.06,2.5.59,3.31,1.82,1.53,2.33,3.35,2.17,4.56-.34.17-.36.27-.75.42-1.12.39-.96,1.03-1.63,2.06-1.92.9-.25,1.79-.52,2.68-.81,2.56-.85,4.87-2.12,6.81-4.03.86-.84.86-1.69.04-2.55-.74-.78-1.64-.73-2.56.14-.77.73-1.45,1.59-2.32,2.18-5.49,3.74-11.58,4.93-18.02,3.64-5.11-1.02-10.15-1.62-15.32-.62-2.66.51-5.37.68-8.09.36-1.66-.2-3.17-.6-4.47-1.8-1.79-1.65-3.71-3.17-5.57-4.75-.44-.37-.86-.78-1.49-.82ZM86.26,215.56c1.16-.04,1.85.02,1.4,1.15-.17.43.1.75.36,1.08.94,1.2,2.18,1.89,3.64,2.3.38.11,1.21.02,1.01.9-.15.64-.31,1.29-.44,1.93-.46,2.26-.93,4.52-.51,6.85.37,2.08,1.27,3.86,3.32,4.64,1.72.65,3.02-.52,4.29-1.5,1.33-1.03,2.64-2.09,3.98-3.11.85-.66,1.79-.91,2.88-.64,1.28.32,1.86-.29,1.57-1.6-.25-1.16-1.25-1.81-2.47-1.66-1.35.16-2.54.7-3.73,1.33-1.44.76-2.32,2.15-3.61,3.07-.79.57-1.68,1.29-2.66.85-1-.46-.96-1.61-1.03-2.58-.16-2.08.38-4.04,1.01-6,.55-1.73,1.55-2.98,3.33-3.48.76-.21,1.33-.69,1.93-1.15.39-.3.53-.75.27-1.18-.23-.39-.66-.41-1.07-.29-.42.13-.84.29-1.26.4-1.5.42-3.06.56-4.6.64-1.04.05-1.93-.36-2.33-1.42-.4-1.09.41-1.65,1.1-2.18.63-.48,1.36-.84,2.02-1.29.55-.38,1.18-.81.75-1.61-.39-.72-1-.48-1.63-.28-3.98,1.27-7.79,3.37-12.22,2.36-.55-.13-1.31.24-1.5.87-.21.68.46,1,.96,1.25.84.41,1.75.62,2.71.54.97-.08,1.95-.13,2.57-.17ZM152.87,195.12c.3-1.33-.41-1.84-1.49-2.13-.83-.22-1.65-.37-2.5-.22-2.39.42-4.61,1.25-6.51,2.83-.95.79-1.92,1.6-3.12,2-3.3,1.09-6.68,1.73-10.18,1.78-1.98.03-4-.02-5.93.62-.48.16-1.17.2-1.15.9.02.67.65.77,1.17.86.74.12,1.49.23,2.24.31,3.02.29,6.02.07,9.02-.34.55-.08,1.25-.31,1.62.24.36.54-.11,1.1-.35,1.61-.16.36-.43.68-.58,1.05-.34.82.05,1.43.59,2.03.42.47.88.57,1.43.37.76-.28.66-.94.72-1.56.04-.43.17-.87.33-1.28,1.5-3.82,4.35-6.27,8.01-7.91.74-.33,1.46-.48,2.12.07.7.59.32,1.33.11,1.98-.23.69-.38,1.38-.27,2.09.09.58.53.91,1.07,1.08.3.1.58-.08.63-.34.31-1.51,1.59-1.97,2.72-2.68,2.59-1.62,5.17-3.26,8.14-4.14.46-.14.93-.33,1.33-.59.4-.26,1.24-.33.99-1.01-.23-.64-.86-.03-1.3-.09-.17-.02-.36.01-.53,0-2.95-.25-5.63.35-7.88,2.41-.05.05-.17.03-.45.08ZM108.88,201.48c1.37-.02,2.74.32,4.11.06.54-.1,1.34.02,1.33-.76,0-.84-.75-.82-1.41-.77-.8.07-1.6-.03-2.37-.24-1.85-.48-3.7-.93-5.6-1.12-1.94-.2-3.88-.39-5.82-.57-.64-.06-1.5-.82-1.86.11-.39.99.84,1.04,1.34,1.51.12.12.31.18.48.22,3.21.86,6.45,1.61,9.81,1.54Z"/>
      <path class="cls-3" d="M102.72,163.02c.11-1.7-.11-3.43.57-5.09.38-.91.31-1.93-.69-2.45-.99-.52-1.77-.06-2.58.71-2.26,2.16-4.23,4.51-5.76,7.26-.62,1.11-2.09.97-2.85.58-2.57-1.32-5.31-1.68-8.1-1.93-3.36-.3-6.72-.57-10.08,0-.98.17-1.86-.14-2.58-.77-4.01-3.47-8.73-5.73-13.51-7.86-.82-.37-.93-.73-.69-1.49.47-1.48.87-2.97,1.3-4.46,1.58-1.18,1.7-3.05,2.07-4.73.71-3.22.05-6.43-.27-9.64-.26-2.63-1.04-4.95-2.81-7.02-.84-.99-.79-2.53-.68-3.86.42-5.37,1.56-10.58,3.67-15.56.31-.73.5-1.52.75-2.27.14-.42.13-.81-.29-1.05-.44-.25-.77.02-1.02.35-1.04,1.34-1.82,2.84-2.53,4.36-1.78,3.82-2.63,7.9-3.19,12.05-.05.36.16.9-.36,1.02-.43.1-.73-.29-.97-.6-.7-.92-.93-2.01-.99-3.12-.23-4.5.9-8.62,3.49-12.31.67-.96.55-1.56-.49-2.09-.86-.44-1.86-.85-1.73-2.1.14-1.23,1.08-1.77,2.09-2.2,1.6-.69,3.29-1.08,4.98-1.46,1.33-.3,2.28-1,2.99-2.22,1.34-2.31,3.09-4.32,4.89-6.29.28-.31.63-.81,1.09-.41.41.35-.06.72-.24,1.04-.71,1.23-1.48,2.42-2.15,3.67-.22.41-.84.99-.23,1.4.58.39.88-.3,1.18-.72,3.05-4.22,6.48-8.13,10.32-11.62,5.51-5.01,11.17-9.89,17.85-13.37.88-.46,1.29-.08,1.51.63.18.59.75,1.43-.4,1.71-1.48.36-2.62,1.29-3.76,2.2-1.55,1.23-1.24,2.96.66,3.63,1.88.67,3.8,1.25,5.68,1.91.98.34,1.92.78,3.04,1.25-.62-1.28-1.62-1.89-2.71-2.34-.82-.34-1.7-.52-2.51-.87-.87-.37-1.53-1.02-1.31-2.06.21-1.03,1.01-1.38,1.99-1.39.9-.01,1.75.2,2.61.45,1.01.3,1.26-.03,1.02-1.07-1.37-5.93-3.77-11.55-5.41-17.4-.43-1.54-.81-3.08-.9-4.69-.05-.94.35-1.2,1.16-1.14.68.05,1.31.24,1.9.56,4.82,2.62,8.81,6.1,11.55,10.92.31.55.51,1.61,1.42,1.29.94-.33.5-1.27.4-1.99-.15-1.01-.41-1.98-.77-2.95-.49-1.31-.15-2.61.26-3.91,1.48-4.66,4.43-8.32,7.74-11.79,2.98-3.12,6.52-5.31,10.51-6.82.43-.16.98-.62,1.35-.23.47.48-.24.83-.44,1.22-1.23,2.42-1.56,4.99-1.32,7.65.42,4.75,2.21,8.91,5.47,12.43.48.52.98.84,1.62.48.74-.42.3-1.02.03-1.5-.88-1.61-.79-3.13.31-4.6.48-.64,1-.67,1.6-.23.88.64,1.61,1.41,2,2.44.84,2.24,1.63,4.5,2.46,6.74.2.53.49,1.04.79,1.53,1.09,1.79.98,4.07-.31,5.73-.36.46-.86.87-.32,1.49.5.56,1.18.53,1.71.19,2.87-1.87,5.81-1.29,8.86-.51,5.13,1.31,9.46,4.12,13.94,6.78,6.36,3.79,11.74,8.73,17.11,13.71,3,2.79,5.02,6.41,7.38,9.74,1.15,1.62,2.45,3.14,3.08,5.1.3.92,1.17,1.26,2.07,1.48,2.59.64,5.17,1.31,7.75,1.97.52.13,1.13.23,1.27.83.17.7-.55.79-.95,1.1-.63.49-1.29.94-1.9,1.46-1.15.98-1.16,1.57-.08,2.62,1.69,1.64,3.42,3.23,5.06,4.92,1.21,1.25,1.05,2.21-.31,3.2-.73.53-1.38.48-1.76-.33-.8-1.69-2.39-2.45-3.83-3.39-.26-.17-.55-.38-.84-.1-.22.22-.06.51,0,.75.36,1.31,1.28,2.33,1.96,3.46,2.66,4.43,3.99,9.23,4.4,14.36.25,3.14.9,6.25.29,9.41-.13.65.25.71.74.81,3.98.78,7.52,2.66,11.01,4.59,1.69.93,2.93,2.42,4.04,3.99.69.99.71,1.95.05,2.97-.65,1-1.17,2.08-2.07,2.9-.06-1.01.02-2.04-.31-3.03-.36-1.09-.93-2.07-1.94-2.63-3.49-1.93-6.89-4.11-11.13-3.98-.44.01-.87-.05-1.3.15-6.23,2.83-12.86,4.63-19.13,7.35-2.25.97-4.41,2.01-6.36,3.58-1.43,1.15-3.19,1.91-4.86,2.72-1.57.76-2,1.51-1.45,3.14.41,1.24-.69,1.11-1.21,1.14-2.48.16-4.96.26-7.44-.09-4.31-.61-8.64-.86-13.01-.96-4.44-.11-8.87.04-13.3.12-1.68.03-3.34-.08-5.01-.2-2.6-.19-3.7-1.65-4.27-3.8-.64-2.37-1.75-4.56-2.47-6.89-.33-1.07-1.22-1.47-2.26-1.57-1.07-.11-1.91.31-2.47,1.24-.43.71-.6,1.52-.53,2.31.22,2.57-1.26,4.33-2.75,6.1-1.09-1.54-2.66-2.22-4.47-2.55-4.29-.79-8.52-.76-12.65.82ZM136.07,157.33c.05,1.54,1.17,2.43,2.15,3.35.79.75,1.45,1.53,1.85,2.55.66,1.67.98,1.86,2.74,1.59,2.46-.37,4.9-.81,7.36-1.18,4.6-.7,9.19-.56,13.78.13,2.41.36,4.83.76,7.28.61.4-.02.98.06,1.08-.54.09-.55-.27-.92-.72-1.17-.27-.15-.57-.24-.86-.35-.31-.12-.8,0-.86-.47-.05-.41.42-.53.67-.76.53-.47,1.11-.89,1.63-1.36,3.09-2.79,5.07-6.33,6.77-10.08,1.21-2.66,2.06-5.37,1.84-8.34-.12-1.63-.15-3.28-.31-4.91-.33-3.31-.64-6.62-2.15-9.67-.43-.87-.89-1.5-2-1.68-3.34-.56-6.67-.89-10.06-.69-11.39.67-20.8,5.12-27.73,14.36-3.04,4.04-4.12,8.67-3.87,13.66.03.69.32,1.28.71,1.83-.02,1.1.34,2.11.69,3.12ZM72.72,121.33c-2.02-.13-3.97.24-5.91.78-1.38.39-2.05,1.31-2.35,2.61-.49,2.07-.93,4.15-1.46,6.21-.97,3.75-.46,7.54-.47,11.33-.01,4.05,1.84,7.42,3.38,10.93.91,2.06,2.93,2.89,4.66,4.03.75.5,1.12.9.22,1.57-.23.17-.6.32-.39.72.17.32.53.34.83.3.52-.07,1.05-.18,1.56-.32,2.5-.68,5.03-1.07,7.62-.96,3.42.14,6.8.5,10.09,1.53.87.27,1.91.49,1.5-1.12-.1-.41.3-.6.54-.85,1.79-1.83,2.91-4.02,3.23-6.56.62-4.93-.33-9.62-2.37-14.1-2.42-5.3-6.14-9.44-11.06-12.62-2.99-1.93-6.08-3.25-9.63-3.47ZM131.23,135.12c-.01.13-.04.27-.04.4.02.45-.43,1.06.2,1.3.72.27,1.03-.44,1.27-.91.41-.78.7-1.63.99-2.46,1.18-3.39,2.79-6.31,5.76-8.68,5.99-4.79,12.7-7.53,20.21-8.5,2.5-.32,5.06-.05,7.51-.85,1.19-.38,2.42-.53,3.68-.47.87.04,1.66-.28,2.38-.75,1.24-.82,2.01-2.59,1.46-3.53-.68-1.16-1.56-2.16-2.94-2.57-.42-.13-.88-.4-1.24.02-.38.45.04.8.29,1.16,1.21,1.74.91,2.59-1.15,3.16-2.78.77-5.63,1.24-8.5,1.54-5.45.57-10.81,1.47-15.77,4.01-2.37,1.21-4.72,2.49-7.25,3.33-2.45.82-4.53-1.11-3.96-3.6.57-2.5,1.69-4.72,3.2-6.8,1.29-1.76,2.79-3.33,4.16-5.01.24-.3.65-.58.36-1.03-.32-.51-.78-.25-1.2-.13-.7.2-1.3.56-1.83,1.05-1.99,1.85-3.84,3.79-5.33,6.09-2.11,3.26-3.18,6.61-1.79,10.44.31.87.78,1.53,1.75,1.58,1.37.06,1.28.66.77,1.63-1.59,3-2.61,6.2-3.01,9.58ZM99.93,121.64c-.02-.75-.01-1.86-.39-2.92-.13-.35.07-1.02-.64-.97-.68.04-.66.61-.72,1.09-.15,1.15-.33,2.3-.82,3.35-.87,1.91-2.65,2.1-3.91.47-.87-1.12-1.73-2.26-2.72-3.27-4.71-4.8-10.29-8.39-16.19-11.54-1.29-.69-2.59-1.36-3.86-2.08-.71-.4-1.09-1.05-1.04-1.88.04-.83.78-.84,1.34-1.06.29-.11.56-.26.83-.42.26-.16.6-.32.45-.7-.12-.29-.44-.22-.7-.24-1.8-.13-4.5,1.62-5.1,3.32-.4,1.13-.07,2.02.94,2.42,3.46,1.38,6.66,3.28,9.97,4.96,7.19,3.67,12.45,9.26,16.96,15.75,1.58,2.27,2.75,4.74,3.93,7.22.16.33.24.87.78.74.55-.13.57-.61.5-1.08-.2-1.4-.28-2.81-.59-4.21-.42-1.89-.96-3.8.19-5.68.54-.88.78-1.88.82-3.28ZM105.25,82.36c1.12,1.76,2.52,2.9,3.73,4.21,1.62,1.77,3.46,3.03,6.01,2.76.62-.06,1.25-.06,1.86-.15,2.31-.37,4.32-1.35,5.8-3.21.38-.48.75-1.2.44-1.71-.35-.57-.95.04-1.43.15-.39.09-.76.24-1.13.4-4.2,1.91-8.17,1.82-11.81-1.32-.9-.78-2.03-.95-3.46-1.13ZM94.13,107.46c.36-.48.22-.72.14-.97-1.32-4.24-4.5-6.47-8.51-7.66-3.04-.9-5.97-.31-8.76,1.11-.27.14-.63.27-.55.65.1.43.47.29.77.26.7-.08,1.41-.17,2.11-.23,4.47-.41,8.43.7,11.7,3.89,1.01.98,2.03,1.94,3.1,2.96ZM153.14,101.51c-2.09-.21-4.16-.19-6.16.55-.36.13-.89.24-.8.74.1.56.59.34.98.29,3.19-.42,6.37-.05,9.54.21.41.03.88.19,1.04-.27.2-.54-.29-.76-.69-.96-1.25-.59-2.59-.51-3.92-.56Z"/>
      <path class="cls-3" d="M146,282.76c-.6-2.13-.41-4.4-1.07-6.52,1.04.04,1.82.66,2.57,1.26,3.57,2.85,9.43,2.86,13.36-.63,2.51-2.23,5.28-4.17,7.36-6.87.32-.42.62-.87.85-1.34.32-.67.82-1.02,1.54-1.11,5.93-.67,11.27-3.09,16.53-5.68,1.6-.79,1.71-.83,2.18.87.63,2.26,1.29,4.54,2.1,6.71.64,1.73,1.59,3.42,2.38,5.13,2.09,4.47,3.79,9.08,4.98,13.87.41,1.67.79,3.37.74,5.12-.02.77.04,1.5.47,2.17.35.55.38,1.2.32,1.81-.39,4.14-.14,8.34-1.49,12.39-1.32,4-3.24,7.56-6.37,10.42-.64.58-1.35,1.11-1.88,2.03,1.38.07,2.35-.45,3.3-1.09.93-.63,1.41-.47,1.53.62.48,4.34,2.57,7.85,5.39,11.05,2.12,2.4,3.42,5.28,4.22,8.34.88,3.38-1.21,6.21-4.61,6.57-1.86.19-2.64-.61-2.4-2.45.64-4.8-1.36-8.54-5.57-10.42-.28-.13-.58-.24-.87-.32-.65-.17-1.4-.43-1.72.42-.33.87.39,1.18,1.04,1.39,1.39.45,2.26,1.39,2.63,2.77.66,2.47,1.68,4.92.36,7.5-1.14,2.22-3.08,3.08-5.43,3.26-1.61.12-3.22-.03-4.73-.59-.91-.33-2.09.17-2.75-.72-.67-.91.15-1.88.15-2.84.02-2.14-.22-4.18-1.83-5.79-.31-.31-.7-.54-1.08-.76-.25-.14-.58-.36-.85-.06-.28.32.07.55.18.82,1.07,2.54.96,5-.53,7.37-.64,1.02-1.57,1.45-2.71,1.34-2.82-.27-5.69-.47-7.87-2.66-.15-.15-.38-.22-.59-.29-4.13-1.3-6.83-4.33-9.19-7.7-1.06-1.51-1.2-3.41-1.44-5.21-.1-.74.3-.99,1.03-1.02.79-.04,2.02.6,2.26-.38.28-1.17-1.21-1-1.9-1.4-7.66-4.43-14.73-9.58-20.53-16.34-.69-.81-1.48-1.54-2.13-2.38-.65-.84-1.44-1.27-2.49-1.2.19-1.34,1.06-2.38,1.58-3.57.93-2.13,1.77-4.32,2.98-6.33.58.23.75-.22,1-.58.76-1.09,1.39-2.23,1.95-3.43,1.89-4.05,4.27-7.81,7.1-11.28.64-.78.88-1.54-.09-2.26ZM167.85,329.3c-.49-.02-.98-.1-1.46-.06-.84.07-1.83.11-1.92,1.22-.09,1.2.94,1.25,1.77,1.33,3.62.35,6.95-.62,10.08-2.35.63-.35,1.72-.75,1.4-1.5-.32-.74-1.34-.18-2.04-.01-2.58.64-5.1,1.57-7.82,1.37Z"/>
      <path class="cls-3" d="M153.87,226.91c.28-1.28.67-2.55.83-3.84.33-2.6-.17-5.08-1.32-7.44-.24-.5-.66-.95-.57-1.58.05-.82.54-.94,1.2-.74,2.74.84,5.56.4,8.34.53,1.45.07,2.4-.78,3.11-1.94.66-1.07,1.61-2.06.62-3.49-.45-.65.27-.8.73-.9,1.58-.35,3.18-.27,4.78-.15,1.17.09,2.3,0,3.44-.28,1.99-.49,2.68-1.34,2.72-3.37.04-1.8.15-1.82,1.88-1.2,5.95,2.15,10.34,6.28,14.18,11.09,3.2,4.01,5.81,8.37,7.33,13.32,1.58,5.15,1.56,10.14-.86,15.13-2.32,4.8-5.03,9.33-9.05,12.84-5.83,5.09-12.71,8.25-20.27,9.81-2.31.47-4,1.45-5.22,3.44-2.66,4.35-6.78,6.54-11.61,7.48-3.54.69-6.11-.98-7.4-4.34-.64-1.67-.91-3.32-.7-5.08.03-.29.17-.65-.18-.84-.33-.18-.58.11-.84.26-2.05,1.18-2.81,3.05-2.18,5.32.11.38.23.76.34,1.15.21.78-.03,1.1-.88.9-.51-.12-1.05-.25-1.57-.24-5.41.05-8.47-6.04-6.93-10.12.81-2.14,1.53-4.23,3.04-5.98.35-.4.64-.93.2-1.45-.44-.51-.9-.06-1.32.1-1.42.52-2.13,1.84-3.08,2.87-1.04,1.12-1.83,1.03-2.48-.36-.73-1.57-.5-3.2.15-4.65.4-.89.43-1.9,1.05-2.7,1.25-1.62,2.89-2.8,4.78-3.36,1.44-.43,2.33-1.22,2.98-2.41,4.29-7.9,10.64-13.4,19.07-16.51,2.4-.88,2.52-1.18,1.81-3.6-.59-2.02-.34-4.05-.02-6.08.08-.47.38-1.06-.1-1.37-.57-.36-1,.25-1.33.58-1.62,1.59-2.16,3.62-1.59,5.75.43,1.6-.08,2.33-1.5,2.78-.54.17-1.06.43-1.58.65Z"/>
      <path class="cls-3" d="M74.01,191.7c-2.06,1.07-4.21,1.59-5.83,3.16-1.47,1.43-1.6,2.2-.55,3.88.55.87.19,3.19-.64,4.05-4.83,5.03-9.16,10.48-13.38,16.03-1.59,2.09-2.74,4.46-3.67,6.92-1.66,4.39-3.23,5.49-7.98,5.42-2.75-.04-5.51-.18-8.25-.39-1.23-.09-2.57-.31-2.53-2.09.01-.46-.37-.58-.71-.66-.82-.2-1.64-.38-2.47-.54-1.52-.29-1.88-.72-1.76-2.31.04-.48-.26-.75-.47-1.05-1.6-2.29-3.33-4.47-4.79-6.87-1.72-2.82-3.08-5.9-3.49-9.01-.93-7.05-.87-14.09,2-20.93,1.38-3.3,2.48-6.74,4.07-9.95,2.3-4.65,5.03-8.98,9.59-11.83,1.64-1.02,3.44-1.58,5.21-2.23.46-.17.86-.14.94.53.11.85.66.68,1.17.39,1.03-.61,2.11-1.17,3.07-1.88,2.36-1.74,5.03-2.89,7.9-2.84,4.36.07,8.6.89,11.53,4.68,1.58,2.04,1.42,4.79-.38,6.45-.61.56-1.13.73-1.45-.29-.83-2.64-3.15-3.45-5.4-4.29-.53-.2-1.33-.05-1.49.5-.17.58.6.6,1.03.76,2.78,1,4.48,5.2,3.17,7.84-.42.85-1.2,1.16-2.07,1.24-.9.08-1.34-.52-1.68-1.25-.82-1.78-2.49-2.86-4.59-1.89.95.71,1.68,1.51,2.25,2.54,1.39,2.54.72,4.9-.32,7.26-.42.95-1.24,1.41-2.28,1.24-1.3-.2-2.65-.24-3.85-.94-.47-.27-1.05-.5-1.46.01-.46.55-.07,1.09.27,1.57.13.18.27.35.43.51q1.5,1.51.54,3.48c-.33.68-.67,1.36-.95,2.05-.15.37-.23.8.15,1.11.31.26.67.14,1.01.02,1.55-.55,2.14-1.94,2.43-3.29.3-1.44,1.14-1.95,2.34-2.07,3.23-.32,4.48-2.51,5.13-5.29.14-.61.28-1.16,1-1.2,1.74-.09,2.67-1.25,3.46-2.59.25-.42.43-.88.68-1.3.22-.36.28-1.01.81-.92.57.09.82.72.84,1.22.09,2.21-.01,4.42-1.96,5.93-1.74,1.35-3.23,3.06-5.42,3.79-.41.14-1.07.53-.35,1.03,1.81,1.28,1.99,3.33,2.27,5.17.45,3,.15,6.02-.83,8.94-.48,1.41-.48,2.98-1.38,4.26-.19.27-.27.6.05.83.29.21.59.09.86-.11.91-.68,1.53-1.61,2.08-2.57,1.81-3.17,2.37-6.65,2.46-10.23.02-.94.26-1.61,1-2.17,1.64-1.22,3.17-2.58,4.94-3.63.71-.42,1.22-.4,1.88.19,1.7,1.5,3.71,2.56,5.81,3.59ZM39.21,196.4c.91.05,2.85-1.13,3.16-1.88.12-.29.23-.62,0-.88-.23-.25-.49,0-.72.08-.88.29-1.76.58-2.64.88-.53.19-1.29.33-1.14,1.03.12.58.88.63,1.34.77Z"/>
      <path class="cls-3" d="M49.78,260.51c.33.88.64,1.69.94,2.52,2.15,5.96,5.18,11.5,8.56,16.8,1.79,2.8,3.97,5.41,6.29,7.88,2.42,2.59,4.78,5.23,7.35,7.68,1.39,1.33,3,2.33,4.53,3.46,5.5,4.08,11.48,7.38,17.42,10.73,2.13,1.2,4.41,2.09,6.67,3.03,1.02.43,1.13.87.41,1.76-2.48,3.09-4.95,6.17-8.53,8.08-.31.16-.65.39-.55.82.11.44.48.61.9.68.87.15,1.71,0,2.42-.52,1-.73,1.45-.3,1.88.66,1.89,4.2-.06,9.32-4.4,11.12-4.03,1.67-8.27,2.68-12.53,3.6-2.56.55-5.1,1.15-7.65,1.72-.79.18-1.58.28-2.38.09-2.14-.52-2.89-2.49-1.6-4.29.65-.91,1.5-1.63,2.37-2.33.23-.18.63-.3.51-.69-.12-.4-.52-.43-.88-.46-2.12-.16-3.8.69-5.17,2.25-1.34,1.52-2.38,3.23-2.95,5.17-.26.91-.7,1.34-1.62,1.45-4.34.55-5.52-2.56-4.68-6.16.5-2.13,2.3-3.17,3.94-4.3.18-.13.4-.2.58-.32.54-.34,1.09-.74.85-1.47-.26-.78-.95-.84-1.65-.77-1.37.14-2.51.81-3.61,1.58-2.37,1.65-3.69,4.04-4.67,6.65-.31.82-.8,1.22-1.63,1.33-.96.12-2.2-.84-2.43-1.61-.31-1.02-.38-2.92-.26-3.94s.71-1.75,1.2-2.69c.81-1.58,2.51-2.42,4.08-3.07,1.5-.62,2.96-1.36,4.61-1.65,1.83-.32,3.21-1.65,4.71-2.65.96-.64-.08-.87-.39-1.05-3.28-1.9-5.73-4.77-8.38-7.35-2.82-2.74-5.19-5.95-7.72-8.99-1.86-2.23-3.35-4.74-4.11-7.53-2.3-8.46-2.32-16.91.63-25.26,1.55-4.37,3.61-8.45,6.93-11.97Z"/>
      <path class="cls-2" d="M238.03,94.83c-.31,7.29-3.66,13.22-8.32,18.54-2.99,3.42-6.64,6-10.72,7.96-2.44,1.17-4.54,2.98-7.14,3.83-.42.14-.92.7-1.31.17-.44-.59-.82-1.29-.54-2.1.09-.25.22-.49.36-.71.73-1.1,1.64-2.11,1.36-3.62-.45-2.4-1.14-4.66-3.18-6.25-.28-.22-.55-.46-.84-.66-.76-.52-.77-1.04-.17-1.74,2.08-2.42,1.76-4.81-.84-6.67-2.38-1.7-5.17-2.3-7.93-2.97-1.3-.32-2.25-1.04-2.8-2.24-.31-.66-.21-1.12.69-1.09,3.1.1,5.67-1.3,8.07-3.02,1.58-1.13,2.42-2.79,2.73-4.71.55-3.31-.1-6.26-2.19-9.01-1.69-2.22-3.81-4.09-5.28-6.45-2.09-3.36-4.68-6.36-6.72-9.74-2.54-4.23-4.69-8.64-5.79-13.49-.06-.26-.12-.52-.13-.79-.17-7.46.2-14.86,3.6-21.7,1.16-2.34,2.92-4.33,4.78-6.19.54-.54,1.21-.77,1.95-.43.82.38.61,1.12.49,1.75-.73,4.05-.89,8.12-.58,12.22.35,4.56,1.49,8.98,3.43,13.06,5.55,11.68,14.27,20.48,25.39,26.95,3.35,1.95,6.58,4.03,8.87,7.28,2.4,3.41,3,7.23,2.77,11.26-.01.18-.02.36-.03.53Z"/>
      <path class="cls-2" d="M50.09,106.73c-2.19-1.53-3.81-3.56-5.47-5.6-2.94-3.6-5.09-7.55-6.45-11.99-1.11-3.62-1.13-7.14.4-10.65.8-1.81,1.21-3.79,2.48-5.41,1.51-1.92,3.37-3.39,5.47-4.58,4.33-2.45,7.73-6.06,11.52-9.19,5.33-4.4,9.25-9.87,12.44-15.92,2.56-4.86,3.32-10.06,2.7-15.5-.35-3.03-.14-6.14-1.25-9.06-.27-.71.15-.78.64-.75.67.05,1.09.5,1.48,1.02,3.5,4.63,5.4,9.91,6.46,15.56.26,1.36.39,2.73.39,4.1,0,2.53.21,5.07.18,7.59-.12,8.89-3.24,16.32-10.77,21.58-2.66,1.86-4.96,4.16-6.58,7.04-1.18,2.09-1.74,4.34-1.72,6.75,0,1.6.87,2.66,2.04,3.55.58.44.71.78.21,1.4-1.61,2-3.22,4-4.73,6.07-1.14,1.57-2.74,2.36-4.49,2.92-1.85.6-3.49,1.51-4.86,2.91-1.51,1.55-1.56,2.81-.14,4.42.24.27.44.59.72.78.83.54.72,1.09.14,1.74-.31.35-.53.78-.82,1.2Z"/>
      <path class="cls-3" d="M180.2,188.3c1-.02,1.98.1,2.93.43.13.23.2.58.39.67,2.25,1.01,4.28,2.62,6.89,2.63,1.13,0,1.66.38,1.58,1.54-.03.39.08.79.14,1.19.15,1.11-.33,1.79-1.42,2.04-.43.1-.87.17-1.3.29-1.2.34-1.32.8-.4,1.65,1.37,1.25,1.42,2.91,1.35,4.55-.03.83-.65,1.12-1.44.72-2.11-1.04-4.21-2.09-6.32-3.14-.66-.33-.68-.68-.13-1.2,1.58-1.53,1.19-3.43-.86-4.34-1.05-.47-2.1-.94-3.18-1.36-.57-.22-.9-.56-.43-1.07,1.2-1.33,1.66-2.98,2.2-4.61Z"/>
      <path class="cls-3" d="M57.24,134.1c-.43-.36-.84-.78-1.31-1.08-.88-.56-1.87-.55-2.54.21-.92,1.04-2.13,1.51-3.3,2.08-1.13-1.74-.86-2.45.94-3.37,1.48-.76,3.05-.69,4.6-.92.75-.11.96.36,1.22.91.33.7.48,1.4.4,2.16Z"/>
      <path class="cls-6" d="M65.18,185.44c-1.98.66-3.69,1.36-5.13,2.58-.33.28-.53.18-.73-.16-.18-.3-.27-.56.09-.79,1.24-.79,2.35-1.73,3.32-2.84.33-.38.71-.34,1.06-.05.41.33.78.71,1.39,1.26Z"/>
      <path class="cls-3" d="M131.25,310.38c0-.16.04-.28.24-.17.02.2-.09.21-.24.17Z"/>
      <path class="cls-7" d="M87.27,174.16c.63.04,1.05.45,1.49.82,1.86,1.58,3.78,3.1,5.57,4.75,1.29,1.19,2.8,1.6,4.47,1.8,2.72.32,5.43.16,8.09-.36,5.17-1,10.21-.4,15.32.62,6.44,1.28,12.54.09,18.02-3.64.87-.59,1.55-1.45,2.32-2.18.92-.87,1.82-.92,2.56-.14.82.86.82,1.7-.04,2.55-1.94,1.91-4.25,3.18-6.81,4.03-.89.29-1.78.56-2.68.81-1.02.29-1.67.96-2.06,1.92-.15.37-.25.76-.42,1.12-1.21,2.51-3.03,2.67-4.56.34-.81-1.23-1.83-1.88-3.31-1.82-1.14.05-2.15-.51-3.21-.79-4.65-1.21-9.41-1.58-14.14-1.13-3.04.29-6.08,1.08-8.26,3.68-1.26,1.5-2.95,1.02-3.54-.82-.59-1.82-1.79-3.13-3.42-4.09-1.45-.86-2.91-1.71-4.36-2.57-.97-.58-1.76-1.36-2.31-2.34-.33-.6-.48-1.28-.1-1.91.29-.48.82-.65,1.39-.64ZM129.53,185.1c-.01.69.04,1.4.93,1.46.88.06,1.04-.69,1.16-1.33.09-.5-.01-1-.74-.93-.58.05-1.32-.17-1.35.81ZM98.63,183.71c-.54.08-1.36-.37-1.4.67-.03.75.32,1.34,1.11,1.4.84.06,1.3-.48,1.43-1.28.17-1.03-.66-.67-1.15-.8Z"/>
      <path class="cls-7" d="M86.26,215.56c-.63.04-1.6.09-2.57.17-.96.08-1.86-.13-2.71-.54-.5-.25-1.17-.57-.96-1.25.19-.63.94-.99,1.5-.87,4.44,1.01,8.25-1.09,12.22-2.36.63-.2,1.24-.45,1.63.28.43.8-.2,1.23-.75,1.61-.65.46-1.39.81-2.02,1.29-.69.53-1.5,1.09-1.1,2.18.39,1.06,1.29,1.48,2.33,1.42,1.55-.08,3.1-.22,4.6-.64.43-.12.84-.28,1.26-.4.41-.12.84-.1,1.07.29.26.43.13.88-.27,1.18-.59.46-1.17.94-1.93,1.15-1.78.5-2.78,1.76-3.33,3.48-.63,1.96-1.16,3.92-1.01,6,.07.97.03,2.12,1.03,2.58.98.45,1.87-.28,2.66-.85,1.29-.92,2.17-2.31,3.61-3.07,1.19-.63,2.38-1.17,3.73-1.33,1.22-.14,2.21.5,2.47,1.66.29,1.31-.29,1.92-1.57,1.6-1.08-.27-2.02-.02-2.88.64-1.33,1.03-2.65,2.08-3.98,3.11-1.26.98-2.57,2.15-4.29,1.5-2.05-.77-2.95-2.56-3.32-4.64-.42-2.33.06-4.59.51-6.85.13-.65.29-1.29.44-1.93.2-.89-.63-.8-1.01-.9-1.46-.41-2.7-1.09-3.64-2.3-.25-.33-.53-.65-.36-1.08.45-1.13-.24-1.19-1.4-1.15Z"/>
      <path class="cls-7" d="M152.87,195.12c.29-.05.4-.03.45-.08,2.24-2.06,4.93-2.66,7.88-2.41.18.02.36-.02.53,0,.45.06,1.07-.55,1.3.09.24.69-.59.75-.99,1.01-.4.26-.87.45-1.33.59-2.97.88-5.54,2.51-8.14,4.14-1.13.71-2.4,1.16-2.72,2.68-.05.26-.33.44-.63.34-.53-.18-.98-.51-1.07-1.08-.11-.71.04-1.4.27-2.09.22-.64.59-1.39-.11-1.98-.66-.56-1.38-.4-2.12-.07-3.66,1.64-6.51,4.09-8.01,7.91-.16.41-.29.85-.33,1.28-.06.62.04,1.29-.72,1.56-.55.2-1.01.09-1.43-.37-.54-.6-.93-1.21-.59-2.03.15-.37.41-.68.58-1.05.23-.51.71-1.07.35-1.61-.37-.55-1.07-.32-1.62-.24-3,.42-6,.64-9.02.34-.75-.07-1.5-.18-2.24-.31-.52-.09-1.15-.18-1.17-.86-.02-.7.67-.74,1.15-.9,1.93-.64,3.95-.6,5.93-.62,3.5-.05,6.87-.69,10.18-1.78,1.2-.4,2.17-1.21,3.12-2,1.9-1.58,4.11-2.41,6.51-2.83.84-.15,1.67,0,2.5.22,1.08.29,1.79.8,1.49,2.13Z"/>
      <path class="cls-7" d="M102.72,163.02c4.13-1.58,8.36-1.61,12.65-.82,1.81.33,3.37,1,4.47,2.55.19,2.57-.46,3.45-3.02,3.84-1.73.26-3.13.89-4.24,2.36-1.25,1.65-3.97,1.47-5.81-.22-.45-.41-.8-.93-1.2-1.41-.65-.78-1.25-1.61-2.38-1.77-.9-.13-1.74-.37-1.98-1.46-.23-1.06.1-1.91.89-2.61.19-.17.41-.31.62-.46Z"/>
      <path class="cls-7" d="M146,282.76c.97.71.73,1.48.09,2.26-2.83,3.47-5.2,7.23-7.1,11.28-.56,1.2-1.19,2.35-1.95,3.43-.25.36-.42.82-1,.58-.24-1.29.31-2.41.78-3.55,1.8-4.38,3.84-8.63,6.79-12.37.61-.77,1.16-1.73,2.4-1.64Z"/>
      <path class="cls-7" d="M108.88,201.48c-3.36.07-6.59-.68-9.81-1.54-.17-.05-.36-.11-.48-.22-.5-.48-1.72-.53-1.34-1.51.36-.93,1.22-.17,1.86-.11,1.94.18,3.88.37,5.82.57,1.9.19,3.75.64,5.6,1.12.78.2,1.57.3,2.37.24.65-.05,1.4-.07,1.41.77,0,.78-.79.65-1.33.76-1.38.27-2.74-.08-4.11-.06Z"/>
      <path class="cls-7" d="M135.38,154.2c-.39-.55-.68-1.13-.71-1.83-.25-4.99.84-9.61,3.87-13.66,6.93-9.24,16.35-13.69,27.73-14.36,3.39-.2,6.72.13,10.06.69,1.1.18,1.57.82,2,1.68,1.51,3.05,1.82,6.37,2.15,9.67.16,1.63.19,3.27.31,4.91.22,2.97-.63,5.68-1.84,8.34-1.7,3.74-3.67,7.28-6.77,10.08-.53.47-1.11.89-1.63,1.36-.25.23-.72.35-.67.76.05.46.55.34.86.47.29.11.59.2.86.35.45.25.81.62.72,1.17-.1.6-.68.52-1.08.54-2.45.15-4.87-.25-7.28-.61-4.59-.69-9.18-.83-13.78-.13-2.46.37-4.9.81-7.36,1.18-1.76.27-2.07.08-2.74-1.59-.4-1.02-1.06-1.8-1.85-2.55-.98-.92-2.1-1.81-2.15-3.35,1.48-.08,2.63.56,3.61,1.61,2.2,2.35,5.04,2.56,8.17,2.54-5.18-4.31-6.87-8.12-6.68-14.78.02-.8,0-1.6,0-2.39,0-.21.08-.46-.19-.57-.26-.11-.4.09-.56.23-.88.79-1.39,1.81-1.84,2.88-1.04,2.46-2.13,4.91-3.2,7.36ZM169.77,144.93c0-1.07.13-2.14-.17-3.19-.51-1.79-2.35-3.13-3.97-2.9-1.74.25-3.15,1.9-2.95,3.82.22,2.09-.55,3.89-1.05,5.82-.78,3.01-2.76,4.28-5.59,4.7-2.33.35-4.46-.99-5.14-3.23-.48-1.58-.87-3.16-.74-4.84.09-1.13-.57-1.43-1.53-1.13-.89.28-1.81.61-2.49,1.23-1.45,1.32-2.7,2.85-2.16,4.98.48,1.88,1.12,3.73,2.1,5.45,2.6,4.59,5.71,6.12,10.92,5.45,2.93-.38,5.12-1.97,6.96-4.07,3.04-3.48,5.61-7.23,5.82-12.1ZM163.59,161.19c1.54.36,2.7.39,3.95-.51,4.2-3.05,6.96-7.12,8.88-11.86,1.33-3.29,1.22-6.62.31-9.93-.73-2.68-2-5.12-3.98-7.13-.64-.65-1.49-.98-2.28-.37-.77.59-.02,1.21.26,1.74,1.7,3.23,2.47,6.65,2.12,10.28-.41,4.24-2.21,8.01-4.18,11.7-1.23,2.31-2.89,4.3-5.07,6.08ZM152.73,140.91c2.8.09,6.15-2.79,6.89-5.61.37-1.38-.17-2.41-1.14-3.32-.93-.88-1.97-.88-3.08-.44-2.21.88-4.08,2.28-5.93,3.73-.98.77-1.02,1.76-.57,2.75.8,1.75,2.28,2.63,3.83,2.88Z"/>
      <path class="cls-7" d="M72.72,121.33c3.55.22,6.64,1.54,9.63,3.47,4.92,3.18,8.63,7.32,11.06,12.62,2.05,4.48,3,9.17,2.37,14.1-.32,2.54-1.44,4.72-3.23,6.56-.24.25-.65.45-.54.85.41,1.61-.63,1.4-1.5,1.12-3.29-1.04-6.67-1.39-10.09-1.53-2.6-.11-5.13.28-7.62.96-.51.14-1.03.25-1.56.32-.3.04-.65.03-.83-.3-.21-.4.16-.55.39-.72.9-.67.54-1.07-.22-1.57-1.72-1.14-3.75-1.96-4.66-4.03-1.55-3.51-3.4-6.88-3.38-10.93.01-3.79-.5-7.58.47-11.33.53-2.06.97-4.14,1.46-6.21.3-1.3.97-2.22,2.35-2.61,1.94-.54,3.88-.91,5.91-.78ZM77.51,156.23c-.67-.89-1.49-1.55-2.02-2.5-2.88-5.17-3.36-10.75-2.97-16.5.19-2.88.96-5.57,2.34-8.11.47-.87.66-1.67-.47-2.37-2.01-1.25-2.57-1.25-4.44.37-3.45,2.98-4.5,6.87-4.29,11.24.11,2.26.37,4.51.4,6.77.06,4.6,2.14,8.05,5.83,10.61,1.72,1.19,3.59,1.38,5.62.49ZM86.02,157.17c4.57.19,7.6-3.16,6.94-7.65-.09-.61-.14-1.24-.24-1.85-.08-.45.15-1.1-.46-1.26-.58-.16-.65.51-.88.84-2.36,3.35-7.47,2.71-8.57-1.13-.88-3.07-1.73-6.09-3.82-8.62-.49-.59-.95-1.06-1.7-1.12-.75-.06-1.01.55-1.36,1.08-.77,1.18-.85,2.52-.97,3.83-.34,3.77,1.13,7.04,2.96,10.18,1.82,3.13,4.23,5.48,8.1,5.7ZM84.59,139.95c.27-.04.59-.06.88-.15,1.97-.55,2.37-1.36,1.46-3.16-1-1.99-2.72-3.36-4.37-4.75-.57-.48-1.15-.24-1.59.37-.98,1.34-1.74,2.84-.99,4.43.87,1.85,2.47,2.97,4.6,3.26Z"/>
      <path class="cls-6" d="M135.38,154.2c1.07-2.45,2.16-4.9,3.2-7.36.45-1.07.96-2.09,1.84-2.88.16-.15.3-.35.56-.23.27.12.19.36.19.57,0,.8.03,1.6,0,2.39-.19,6.66,1.5,10.47,6.68,14.78-3.13.02-5.97-.19-8.17-2.54-.98-1.05-2.13-1.69-3.61-1.61-.36-1.01-.72-2.03-.69-3.12Z"/>
      <path class="cls-7" d="M105.25,82.36c1.44.19,2.56.35,3.46,1.13,3.64,3.14,7.61,3.24,11.81,1.32.36-.17.74-.32,1.13-.4.48-.11,1.09-.73,1.43-.15.31.52-.06,1.23-.44,1.71-1.48,1.86-3.48,2.84-5.8,3.21-.61.1-1.24.09-1.86.15-2.55.27-4.39-.99-6.01-2.76-1.21-1.32-2.61-2.46-3.73-4.21Z"/>
      <path class="cls-7" d="M167.85,329.3c2.72.2,5.24-.73,7.82-1.37.69-.17,1.72-.73,2.04.01.32.75-.77,1.15-1.4,1.5-3.14,1.73-6.47,2.69-10.08,2.35-.83-.08-1.86-.14-1.77-1.33.09-1.1,1.08-1.15,1.92-1.22.48-.04.97.03,1.46.06Z"/>
      <path class="cls-7" d="M39.21,196.4c-.46-.14-1.22-.19-1.34-.77-.15-.7.61-.84,1.14-1.03.87-.31,1.76-.59,2.64-.88.24-.08.49-.33.72-.08.23.26.12.59,0,.88-.31.75-2.25,1.93-3.16,1.88Z"/>
      <path class="cls-6" d="M129.53,185.1c.03-.98.77-.76,1.35-.81.72-.07.83.43.74.93-.12.64-.28,1.39-1.16,1.33-.89-.06-.94-.77-.93-1.46Z"/>
      <path class="cls-6" d="M98.63,183.71c.48.13,1.32-.23,1.15.8-.13.8-.59,1.34-1.43,1.28-.79-.06-1.15-.66-1.11-1.4.04-1.05.86-.59,1.4-.67Z"/>
      <path class="cls-8" d="M169.77,144.93c-.21,4.86-2.79,8.61-5.82,12.1-1.84,2.11-4.03,3.7-6.96,4.07-5.21.67-8.32-.87-10.92-5.45-.97-1.72-1.61-3.57-2.1-5.45-.54-2.12.7-3.66,2.16-4.98.69-.63,1.61-.95,2.49-1.23.96-.3,1.62,0,1.53,1.13-.13,1.68.26,3.26.74,4.84.69,2.24,2.82,3.58,5.14,3.23,2.83-.42,4.81-1.69,5.59-4.7.5-1.93,1.27-3.73,1.05-5.82-.2-1.92,1.21-3.57,2.95-3.82,1.62-.23,3.47,1.11,3.97,2.9.3,1.05.17,2.12.17,3.19Z"/>
      <path class="cls-6" d="M163.59,161.19c2.18-1.78,3.83-3.77,5.07-6.08,1.97-3.69,3.77-7.46,4.18-11.7.35-3.63-.42-7.06-2.12-10.28-.28-.53-1.03-1.14-.26-1.74.79-.61,1.64-.28,2.28.37,1.98,2,3.25,4.45,3.98,7.13.91,3.31,1.02,6.64-.31,9.93-1.91,4.75-4.67,8.81-8.88,11.86-1.24.9-2.4.87-3.95.51Z"/>
      <path class="cls-6" d="M152.73,140.91c-1.55-.25-3.03-1.13-3.83-2.88-.45-.99-.42-1.97.57-2.75,1.85-1.45,3.72-2.86,5.93-3.73,1.11-.44,2.15-.44,3.08.44.97.91,1.5,1.94,1.14,3.32-.75,2.82-4.09,5.7-6.89,5.61Z"/>
      <path class="cls-6" d="M77.51,156.23c-2.03.89-3.9.7-5.62-.49-3.69-2.56-5.77-6.01-5.83-10.61-.03-2.26-.29-4.51-.4-6.77-.21-4.37.84-8.26,4.29-11.24,1.87-1.62,2.42-1.62,4.44-.37,1.13.7.94,1.5.47,2.37-1.37,2.54-2.14,5.23-2.34,8.11-.39,5.75.09,11.33,2.97,16.5.52.94,1.35,1.6,2.02,2.5Z"/>
      <path class="cls-8" d="M86.02,157.17c-3.88-.22-6.28-2.58-8.1-5.7-1.83-3.14-3.31-6.41-2.96-10.18.12-1.32.2-2.65.97-3.83.35-.54.61-1.14,1.36-1.08.75.06,1.21.53,1.7,1.12,2.09,2.53,2.94,5.55,3.82,8.62,1.11,3.85,6.21,4.48,8.57,1.13.23-.33.3-.99.88-.84.62.17.39.81.46,1.26.1.61.15,1.23.24,1.85.67,4.49-2.37,7.83-6.94,7.65Z"/>
      <path class="cls-6" d="M84.59,139.95c-2.13-.28-3.73-1.4-4.6-3.26-.75-1.59,0-3.09.99-4.43.44-.6,1.02-.85,1.59-.37,1.65,1.39,3.37,2.76,4.37,4.75.91,1.8.51,2.62-1.46,3.16-.3.08-.61.1-.88.15Z"/>
      <path class="cls-1" d="M96.5,126.7c4.23-7.16,1.98-14.98-5.03-23.27-7.44-5.41-15.63-4.46-24.29.55,11.96,6.39,21.89,13.87,29.32,22.72Z"/>
      <path class="cls-7" d="M99.93,121.64c-.04,1.4-.28,2.41-.82,3.28-1.15,1.87-.61,3.79-.19,5.68.31,1.39.39,2.81.59,4.21.07.47.05.95-.5,1.08-.54.13-.62-.4-.78-.74-1.18-2.48-2.35-4.95-3.93-7.22-4.51-6.49-9.77-12.09-16.96-15.75-3.31-1.69-6.5-3.59-9.97-4.96-1.01-.4-1.34-1.3-.94-2.42.6-1.7,3.3-3.45,5.1-3.32.26.02.59-.05.7.24.15.38-.19.55-.45.7-.26.16-.54.31-.83.42-.56.22-1.3.23-1.34,1.06-.04.83.33,1.48,1.04,1.88,1.27.72,2.57,1.39,3.86,2.08,5.89,3.15,11.48,6.74,16.19,11.54.99,1.01,1.84,2.15,2.72,3.27,1.27,1.62,3.04,1.43,3.91-.47.48-1.06.66-2.21.82-3.35.06-.48.04-1.05.72-1.09.71-.04.52.62.64.97.38,1.05.38,2.17.39,2.92Z"/>
      <path class="cls-7" d="M94.13,107.46c-1.07-1.02-2.09-1.98-3.1-2.96-3.27-3.19-7.24-4.3-11.7-3.89-.71.06-1.41.15-2.11.23-.3.04-.68.17-.77-.26-.08-.38.27-.51.55-.65,2.79-1.42,5.72-2.01,8.76-1.11,4.01,1.19,7.19,3.43,8.51,7.66.08.25.22.5-.14.97Z"/>
      <path class="cls-1" d="M136.81,123.66c11.43-7.26,24.3-8.73,36.38-11.15-1.06-3.92-4.96-7.59-18.2-10.47-10.53-.27-18.4,4.11-22.35,15.36l4.17,6.26Z"/>
      <path class="cls-7" d="M131.23,135.12c.4-3.39,1.42-6.58,3.01-9.58.51-.97.6-1.57-.77-1.63-.97-.04-1.44-.71-1.75-1.58-1.39-3.83-.31-7.19,1.79-10.44,1.49-2.3,3.35-4.24,5.33-6.09.53-.49,1.13-.86,1.83-1.05.42-.12.88-.38,1.2.13.28.45-.12.73-.36,1.03-1.37,1.68-2.87,3.25-4.16,5.01-1.52,2.07-2.63,4.3-3.2,6.8-.57,2.49,1.51,4.42,3.96,3.6,2.53-.84,4.88-2.12,7.25-3.33,4.96-2.54,10.31-3.45,15.77-4.01,2.87-.3,5.72-.77,8.5-1.54,2.07-.57,2.36-1.42,1.15-3.16-.25-.36-.67-.71-.29-1.16.35-.42.81-.14,1.24-.02,1.37.41,2.26,1.4,2.94,2.57.55.94-.22,2.71-1.46,3.53-.71.47-1.51.79-2.38.75-1.26-.06-2.49.09-3.68.47-2.45.8-5.01.53-7.51.85-7.51.97-14.22,3.71-20.21,8.5-2.96,2.37-4.58,5.29-5.76,8.68-.29.84-.58,1.68-.99,2.46-.24.47-.55,1.18-1.27.91-.64-.24-.18-.85-.2-1.3,0-.13.02-.27.04-.4Z"/>
      <path class="cls-7" d="M153.14,101.51c1.32.05,2.67-.03,3.92.56.41.19.89.42.69.96-.17.46-.63.3-1.04.27-3.18-.26-6.35-.63-9.54-.21-.4.05-.88.27-.98-.29-.09-.5.44-.61.8-.74,2-.74,4.07-.76,6.16-.55Z"/>
    </g>
    <path class="cls-1" d="M105.27,82.41c-1.25-.62-2.44-1.33-3.6-2.11.08-.67-.38-1.05-.79-1.44-.77-.74-1.72-1.16-2.72-1.47-.63-.2-1.28-.37-1.89-.64-.9-.4-1.2-.99-1.1-1.94.07-.69.43-1.11,1.08-1.3,1.08-.31,2.12-.08,3.16.2.14.04.28.09.41.14.3.12.59.27.89.01.33-.28.23-.62.14-.96-.27-1.06-.52-2.14-.81-3.19-.88-3.12-1.97-6.17-3.01-9.23-.86-2.52-1.58-5.08-2.29-7.64-.27-.96-.11-1.96-.29-2.93-.08-.44.17-.62.71-.66.8-.05,1.54.16,2.25.52.88.45,1.66,1.05,2.48,1.6,1.09.72,2.24,1.32,3.25,2.15,1.97,1.61,3.49,3.62,4.92,5.69.51.74.97,1.51,1.47,2.25.28.42.55,1.01,1.19.77.57-.23.53-.8.48-1.35-.1-.98-.23-1.96-.61-2.88-.66-1.62-.5-3.21,0-4.83,1.07-3.47,2.93-6.45,5.3-9.16,2.37-2.7,4.83-5.3,7.96-7.16,1.02-.6,2.07-1.16,3.14-1.65,1.05-.48,2.19-1.04,3.34-1.24.05,0,.1-.02.15,0,.09.04.11.16.1.26-.02.6-.26,1.06-.57,1.56-.29.47-.54,1-.75,1.51-.42,1-.7,2.06-.8,3.15-.08.89-.06,1.79.04,2.67.24,2.17.82,4.25,1.5,6.31.64,1.93,1.9,3.49,3.12,5.07.34.43.67.87,1.02,1.29.43.51.95.69,1.45.5.6-.22.49-.5.18-1.06-.38-.69-.7-1.5-.83-2.29-.2-1.21.56-2.2,1.28-3.11.42-.53.83-.55,1.44-.11.96.69,1.69,1.57,2.1,2.69.81,2.2,1.63,4.39,2.43,6.59.23.63.5,1.21.9,1.77,1.16,1.63.96,4.1-.46,5.61-.39.42-.62.82-.49,1.38-.74.35-1.32.94-1.95,1.43-1.68,1.31-3.42,2.55-5.02,3.98-1.72,1.54-3.45,3.08-5.08,4.71-1.06,1.06-2.21,2.03-3.21,3.16-.43.49-1,.88-1.54,1.25-.43.3-.8.67-1.23.95-.45.29-.76.6-.7,1.17,0,.07-.08.14-.13.22q-.04-.7-.66-.51c-.17.05-.33.11-.49.17-1.3.46-2.6.95-3.91,1.39-3,.99-5.79.61-8.36-1.29-.6-.44-1.25-.83-1.86-1.27-.78-.56-1.74-.47-2.59-.77-.04-.02-.11.03-.16.05Z"/>
  </g>
</svg>