<?xml version="1.0" encoding="UTF-8"?>
<svg id="Layer_1" data-name="Layer 1" xmlns="http://www.w3.org/2000/svg" xmlns:xlink="http://www.w3.org/1999/xlink" viewBox="0 0 183.39 197.88">
  <defs>
    <style>
      .cls-1 {
        filter: url(#drop-shadow-1);
      }

      .cls-2 {
        fill: #fff;
      }

      .cls-3 {
        fill: #346e36;
      }

      .cls-4 {
        fill: #679b5d;
      }

      .cls-5 {
        fill: #512845;
      }

      .cls-6 {
        fill: #fafbfb;
      }

      .cls-7 {
        fill: #dee6b1;
      }
    </style>
    <filter id="drop-shadow-1" x="4.75" y="0" width="180.58" height="197.87" filterUnits="userSpaceOnUse">
      <feOffset dx="6.7" dy="6.7"/>
      <feGaussianBlur result="blur" stdDeviation="0"/>
      <feFlood flood-color="#231f20" flood-opacity=".2"/>
      <feComposite in2="blur" operator="in"/>
      <feComposite in="SourceGraphic"/>
    </filter>
  </defs>
  <g class="cls-1">
    <g>
      <path class="cls-2" d="M63.12,191.17c-4.3,0-8.36-1.54-11.74-4.41-6.21-2.28-10.35-7.58-11.44-14.86-.77-5.13.26-9.47,1.8-12.96-3.22-4.02-5.3-8.89-6.11-14.26-.31-.12-.62-.24-.95-.37-.89.09-1.79.14-2.7.14-2.07,0-4.23-.25-6.41-.74-4.86-1.06-9.07-4.27-11.45-8.8-2.22-4.21-2.63-9.08-1.17-13.54-.66-2.09-1.08-4.47-1.13-7.19-.06-3.41.81-6.61,2.4-9.35-1.61-2.35-2.91-4.78-4.09-7.16-4.02-8.23-5.79-16.88-5.29-25.74.31-6.49,2.09-13,5.28-19.23.48-.95,1.01-1.95,1.61-2.95,1.64-2.9,3.63-5.7,5.77-8.06.85-.98,1.77-1.91,2.75-2.76.66-.61,1.34-1.2,2.05-1.76-.66-5.27-.28-10.51,1.13-15.74,1.03-3.83,2.89-6.7,4.57-9.01,3.06-4.09,7.61-6.35,12.58-6.35,6.25,0,11.94,3.54,14.85,9.24.54,1.08,1.08,2.04,1.64,2.93,2.61-.94,5.09-1.71,7.46-2.4.42-.78.85-1.42,1.21-1.92,2.9-4.16,7.62-6.68,12.84-6.73.26-.3,1.15-1.25,1.15-1.25,2.89-2.88,6.39-4.75,10.41-5.55,1.14-.24,2.41-.37,3.67-.37,5.05,0,9.79,2.15,13,5.89.74.86,1.38,1.79,1.92,2.77,1.58,1.11,2.99,2.5,4.16,4.14,2.06.56,3.9,1.2,5.49,1.76l.35.12c.08-.17.17-.35.25-.52.09-.41.19-.81.31-1.2,1.9-5.95,6.37-10.17,12.05-11.54,1.26-.31,2.55-.47,3.83-.47,3.25,0,8.02,1,12.3,5.77,3.02,3.38,6.27,7.63,7.6,13.61.3,1.33.93,4.03,1.06,7.47,1.52.92,2.81,1.87,3.87,2.65,5.94,4.3,10.45,10.17,13.34,17.39.27.66.6,1.41.92,2.17,1.1,2.53,2.35,5.41,3.25,8.76.91,3.44.98,6.48,1.03,8.7l.03,1.22c.35,7.09-1.6,13.27-3.16,18.22-.84,2.54-1.81,5.2-3.1,7.86,2.08,2.53,3.82,6.31,3.53,11.78l-.08,1.44c-.06,1.25-.13,2.95-.52,4.89.9,3.05.98,6.27.2,9.41-1.48,5.92-5.82,10.61-11.89,12.89-1.08.38-2.36.8-3.81,1.12-.65.55-1.32,1.08-2,1.56-.13,4.2-1.26,8.45-3.36,12.71-.42.84-.9,1.76-1.43,2.73,1.94,3.73,2.87,7.68,2.81,11.82-.13,10.27-6.45,14.6-10.56,16.67-3.52,3.46-8.33,5.49-13.4,5.49-1.32,0-2.66-.14-3.97-.42-.9.13-1.81.2-2.72.2-4.21,0-8.35-1.38-12.31-4.11-2.83-2.05-5.06-4.34-6.89-6.53-3.63.76-7.31,1.14-11.03,1.14-1.06,0-2.13-.03-3.2-.1-1.79,2.52-3.79,4.13-4.91,5.02l-1.88,1.49c-.77.6-1.54,1.19-2.28,1.83-3.53,3.05-7.75,4.66-12.24,4.66-.66,0-1.32-.04-1.98-.11-1.72.51-3.5.78-5.3.78Z"/>
      <path class="cls-2" d="M152.26,102.94s-.05.14-.05.43c1.42-.9,2.93-1.46,4.49-1.8,1.89-.43,3.5.24,4.96,1.42.99.8.85,2.03.8,3.07-.19,2.46.05,5.06-1.65,7.18-.28.38-.09.62.19.99,2.79,3.17,1.8,6.95-2.13,8.41-1.47.52-2.88.9-4.44.85-.57,0-1.04.14-1.46.61-2.36,3.03-5.53,4.73-9.31,5.2-.76.09-.57.47-.52.95.05.76.24,1.46.43,2.17s.43,1.42.57,2.13c.71,3.59-.19,6.95-1.75,10.12-1.18,2.36-2.46,4.63-4.16,6.71-1.18,1.51-.99,3.12.33,4.54,2.32,2.55,3.88,5.48,3.83,9.03-.05,3.5-1.51,4.16-4.54,5.53-.47.19-.9.33-1.23.8-1.8,2.65-4.96,3.36-7.85,1.84-.28-.14-.47-.38-.9-.14-2.69,1.42-5.2.52-7.47-1.04-2.93-2.13-5.06-5.06-7.18-8.04-.66-.95-.95-2.13-1.09-3.54-9.69,4.44-19.47,4.87-29.68,2.08.66,1.84-.28,3.5-.71,5.25-.52,1.99-1.89,3.21-3.36,4.4-1.51,1.23-3.07,2.36-4.54,3.64-1.75,1.51-3.83,1.8-5.96.76-.52-.28-.8-.19-1.28.09-2.84,1.8-5.39,1.7-7.7-1.23-.24-.33-.28-.76-.9-.76-3.12-.09-4.35-1.51-4.82-4.68-.52-3.45.9-6.24,2.69-8.89,1.23-1.84,1.37-3.59.14-5.39-1.04-1.51-2.03-3.03-3.26-4.4-2.55-2.84-3.78-6.29-4.07-10.07-.05-.8,0-1.61,0-2.41,0-1.28-.52-2.27-1.32-3.31-1.18-1.51-2.69-2.03-4.4-2.46-2.03-.57-4.02-1.28-5.81-2.46-.33-.24-.66-.38-1.18-.19-2.46.9-4.96.85-7.47.28-2.36-.52-3.64-3.17-2.74-5.39.57-1.51,1.13-3.02,2.5-4.11-2.32-1.94-3.02-4.4-3.07-7.18-.05-2.51,1.56-4.3,4.06-4.54,1.28-.09,2.51.14,3.73.47.47.09,1.09.52,1.32.24.28-.43.43-1.23.19-1.7-.47-1.09-1.18-2.13-1.28-3.4,0-.24-.38-.43-.61-.61-1.13-.9-2.22-1.84-3.36-2.74-3.31-2.65-5.29-6.19-7.14-9.93-2.93-6-4.3-12.38-3.92-19.05.24-4.92,1.65-9.64,3.83-13.9.38-.76.76-1.46,1.18-2.17,1.23-2.17,2.65-4.25,4.3-6.05.52-.61,1.09-1.18,1.7-1.7,1.18-1.13,2.51-2.08,4.02-2.93.71-.43,1.51-.8,2.32-1.13.8-.33,1.94-.43,2.27-.99.38-.66-.52-1.51-.8-2.27-1.94-5.48-2.17-11.01-.66-16.64.47-1.75,1.42-3.17,2.46-4.58,1.13-1.51,3.64-.95,4.68,1.09,1.51,3.03,3.31,5.86,5.58,8.46.9,1.04,2.22,1.51,3.31,2.36.38.28.71-.05.99-.24.76-.38,1.61-.61,2.32-.14,1.18.8,2.27.43,3.36-.05,3.97-1.61,8.04-2.79,12.1-3.92,1.89-.52,3.83-.61,5.86-.66-1.13-1.8-1.8-3.54-.43-5.44.66-.95,1.51-1.32,2.6-1.18,1.56.24,2.98.76,4.21,1.7.57.43.8.47,1.13-.28,1.18-2.46,2.84-4.63,4.68-6.62.99-.99,2.13-1.61,3.54-1.89,2.98-.62,5.15,1.37,4.68,4.4-.14,1.04-.33,1.65,1.18,1.28,1.46-.38,2.74.38,3.54,1.65.85,1.37.52,2.69-.66,3.78.19.14.28.28.33.28,4.3-.38,8.22.95,12.15,2.32,1.56.57,3.17,1.09,4.68,1.7.99.43,1.98.52,2.93.24.85-.24,1.7-.33,2.5-.05.57.14.85-.14,1.23-.47.71-.76,1.37-1.51,1.99-2.32,1.23-1.65,2.27-3.4,3.21-5.2.43-.9.9-1.84,1.28-2.79.19-.47.19-.99.33-1.46.38-1.18,1.13-2.13,2.41-2.41,1.23-.33,2.13.28,2.98,1.23,1.98,2.22,3.83,4.58,4.49,7.56.95,4.11,1.28,8.32-.52,12.34-.24.47-.14.66.33.85,1.23.57,2.46,1.09,3.78,1.37,2.51.52,4.49,1.99,6.48,3.45,4.11,2.98,6.95,6.85,8.84,11.58,1.28,3.12,2.79,6.14,3.69,9.45.61,2.32.52,4.63.61,6.95.24,4.77-1.13,9.17-2.55,13.66-1.61,4.87-3.54,9.41-7.37,13-.24.19-.43.43-.43.76,0,2.46-.99,4.49-2.6,6.29Z"/>
    </g>
  </g>
  <g>
    <path class="cls-5" d="M165.22,69.25c.24,4.75-1.14,9.17-2.58,13.63-1.58,4.87-3.52,9.45-7.36,13-.22.2-.4.44-.4.77-.01,2.47-1.03,4.5-2.64,6.3-.04.05,0,.16,0,.41,1.42-.91,2.9-1.45,4.46-1.79,1.92-.42,3.51.25,4.95,1.4,1,.8.87,2.05.81,3.08-.15,2.47.04,5.05-1.63,7.19-.3.39-.12.63.17.96,2.79,3.2,1.81,6.96-2.11,8.43-1.45.55-2.91.88-4.46.87-.56,0-1.04.12-1.44.62-2.4,2.98-5.54,4.68-9.31,5.17-.76.1-.59.49-.56.97.09,1.5.75,2.85,1.03,4.3.68,3.59-.23,6.93-1.78,10.09-1.16,2.35-2.45,4.65-4.12,6.71-1.22,1.5-1.04,3.11.3,4.56,2.34,2.55,3.89,5.47,3.83,9.02-.05,3.48-1.51,4.15-4.55,5.51-.47.21-.89.36-1.21.82-1.8,2.63-4.95,3.35-7.83,1.83-.29-.15-.47-.36-.89-.14-2.72,1.4-5.23.55-7.47-1.05-2.97-2.12-5.1-5.06-7.18-8-.7-.98-.99-2.13-1.13-3.56-9.65,4.46-19.47,4.85-29.64,2.06.64,1.85-.28,3.52-.75,5.29-.51,1.94-1.87,3.21-3.32,4.38-1.51,1.22-3.1,2.34-4.57,3.63-1.72,1.51-3.81,1.81-5.93.74-.55-.27-.81-.17-1.3.13-2.84,1.79-5.38,1.7-7.68-1.27-.24-.31-.3-.72-.9-.74-3.13-.1-4.36-1.52-4.83-4.66-.51-3.46.89-6.24,2.67-8.91,1.24-1.86,1.4-3.57.14-5.41-1.03-1.5-2.03-3-3.26-4.37-2.53-2.85-3.79-6.29-4.06-10.08-.06-.8.02-1.61.01-2.42,0-1.27-.52-2.23-1.33-3.28-1.18-1.52-2.67-2.03-4.37-2.48-2.04-.55-4.04-1.27-5.83-2.46-.36-.24-.68-.38-1.17-.2-2.46.93-4.99.89-7.51.31-2.34-.54-3.61-3.17-2.74-5.41.59-1.51,1.13-3.02,2.53-4.11-2.31-1.91-3.06-4.39-3.09-7.19-.03-2.46,1.57-4.3,4.05-4.52,1.28-.11,2.53.12,3.77.47.44.12,1.08.55,1.29.24.29-.44.43-1.22.23-1.68-.5-1.12-1.19-2.13-1.3-3.41-.02-.22-.38-.43-.61-.62-1.11-.92-2.23-1.83-3.36-2.73-3.31-2.64-5.3-6.22-7.13-9.94-2.96-6.02-4.32-12.36-3.95-19.07.27-4.92,1.67-9.64,3.86-13.89,3.03-5.91,6.97-11.3,13.52-13.96.78-.32,1.9-.44,2.24-1.02.37-.63-.51-1.49-.79-2.27-1.94-5.48-2.18-11.01-.68-16.63.46-1.72,1.43-3.17,2.46-4.55,1.15-1.55,3.66-.94,4.67,1.06,1.53,3.04,3.34,5.88,5.58,8.46.93,1.06,2.24,1.51,3.29,2.35.41.33.71-.04,1.02-.21.75-.4,1.6-.61,2.31-.14,1.18.78,2.25.42,3.36-.03,3.93-1.6,8-2.79,12.08-3.94,1.88-.53,3.83-.6,5.85-.64-1.14-1.8-1.77-3.55-.41-5.45.66-.93,1.5-1.33,2.62-1.17,1.54.21,2.98.72,4.21,1.68.56.43.78.49,1.13-.26,1.16-2.48,2.8-4.65,4.68-6.62.96-1.01,2.13-1.65,3.51-1.92,3-.58,5.16,1.4,4.69,4.42-.16,1.02-.34,1.65,1.16,1.28,1.49-.38,2.78.36,3.58,1.65.85,1.37.5,2.67-.66,3.79.16.12.25.26.33.25,4.27-.35,8.21.95,12.14,2.34,1.56.55,3.14,1.05,4.66,1.7,1,.43,1.98.49,2.96.23.85-.23,1.67-.32,2.5-.07.56.17.85-.11,1.19-.47,2.87-2.98,4.91-6.48,6.49-10.27.19-.46.2-1,.35-1.48.38-1.2,1.1-2.12,2.38-2.42,1.26-.3,2.16.28,2.99,1.22,2,2.24,3.82,4.61,4.49,7.57.93,4.14,1.28,8.31-.52,12.35-.21.47-.12.67.33.86,1.24.53,2.46,1.08,3.81,1.36,2.46.52,4.47,2,6.46,3.45,4.08,2.97,6.96,6.86,8.84,11.56,1.26,3.15,2.79,6.18,3.69,9.47.62,2.29.5,4.63.62,6.96Z"/>
    <rect class="cls-6" x="100.45" y="102.99" width="3.13" height="3.42" transform="translate(-5.94 6.14) rotate(-3.35)"/>
    <g>
      <path class="cls-5" d="M112.11,160.37c-9.65,4.45-19.47,4.85-29.64,2.06.64,1.85-.28,3.52-.75,5.29-.51,1.95-1.87,3.2-3.32,4.38-1.51,1.22-3.1,2.35-4.57,3.63-1.72,1.51-3.82,1.81-5.93.74-.55-.28-.81-.18-1.3.13-2.84,1.79-5.38,1.7-7.68-1.26-.24-.31-.3-.72-.9-.74-3.13-.1-4.37-1.52-4.83-4.66-.51-3.46.89-6.24,2.67-8.91,1.24-1.86,1.4-3.57.14-5.41-1.03-1.5-2.03-3-3.26-4.37-2.53-2.85-3.79-6.29-4.06-10.08-.06-.8.02-1.61.01-2.42,0-1.27-.52-2.24-1.33-3.28-1.18-1.52-2.67-2.03-4.37-2.48-2.04-.54-4.04-1.27-5.83-2.46-.36-.24-.68-.38-1.17-.2-2.46.93-4.99.89-7.5.31-2.34-.54-3.61-3.16-2.74-5.41.59-1.51,1.14-3.02,2.53-4.11-2.31-1.91-3.06-4.39-3.09-7.19-.03-2.46,1.57-4.3,4.05-4.52,1.29-.11,2.53.12,3.77.47.44.12,1.08.55,1.29.24.29-.44.43-1.23.23-1.68-.49-1.12-1.19-2.13-1.3-3.41-.02-.22-.38-.43-.61-.62-1.11-.92-2.23-1.83-3.36-2.73-3.31-2.64-5.3-6.22-7.13-9.94-2.96-6.02-4.32-12.36-3.95-19.07.27-4.92,1.67-9.64,3.86-13.9,3.03-5.91,6.97-11.3,13.53-13.96.78-.32,1.9-.44,2.24-1.02.37-.63-.51-1.49-.79-2.27-1.95-5.48-2.18-11.01-.68-16.63.46-1.72,1.43-3.17,2.46-4.56,1.15-1.55,3.66-.94,4.67,1.06,1.53,3.04,3.34,5.88,5.58,8.46.93,1.06,2.24,1.51,3.3,2.35.41.33.71-.04,1.02-.21.75-.4,1.6-.61,2.31-.14,1.18.78,2.25.42,3.36-.03,3.93-1.6,8-2.79,12.08-3.94,1.88-.53,3.83-.6,5.85-.64-1.14-1.8-1.77-3.55-.41-5.45.66-.93,1.5-1.33,2.62-1.17,1.54.21,2.98.72,4.21,1.68.56.43.78.49,1.13-.26,1.17-2.47,2.8-4.64,4.68-6.62.96-1.01,2.13-1.65,3.51-1.92,3-.58,5.16,1.4,4.69,4.42-.16,1.02-.34,1.66,1.16,1.28,1.49-.37,2.77.36,3.57,1.66.85,1.37.5,2.67-.66,3.79.16.12.25.26.33.25,4.26-.35,8.21.95,12.14,2.34,1.56.55,3.14,1.05,4.66,1.7,1,.43,1.98.49,2.96.23.85-.23,1.67-.32,2.5-.07.56.17.85-.11,1.19-.47,2.87-2.98,4.91-6.48,6.49-10.28.19-.46.2-1,.35-1.48.38-1.2,1.1-2.12,2.38-2.42,1.26-.3,2.16.28,3,1.22,2,2.24,3.82,4.61,4.49,7.57.93,4.14,1.28,8.31-.52,12.35-.21.47-.12.67.32.86,1.24.54,2.46,1.08,3.82,1.36,2.46.52,4.47,2,6.46,3.45,4.09,2.98,6.96,6.86,8.84,11.56,1.26,3.15,2.79,6.18,3.69,9.47.62,2.29.5,4.63.62,6.95.24,4.75-1.14,9.17-2.58,13.63-1.57,4.87-3.52,9.45-7.36,13-.22.2-.4.44-.4.77,0,2.47-1.03,4.51-2.64,6.3-.04.04,0,.16,0,.41,1.42-.91,2.9-1.45,4.46-1.79,1.92-.42,3.51.25,4.95,1.4,1,.8.87,2.05.81,3.08-.15,2.47.04,5.05-1.62,7.19-.3.39-.12.63.17.96,2.79,3.2,1.81,6.96-2.11,8.43-1.46.55-2.91.88-4.46.87-.56,0-1.04.12-1.44.62-2.4,2.98-5.53,4.69-9.31,5.18-.76.1-.59.49-.56.97.09,1.5.75,2.85,1.03,4.3.68,3.59-.23,6.93-1.78,10.09-1.16,2.35-2.45,4.65-4.12,6.71-1.22,1.5-1.03,3.11.3,4.56,2.34,2.55,3.89,5.47,3.83,9.02-.06,3.48-1.51,4.15-4.55,5.51-.47.21-.89.36-1.21.82-1.8,2.63-4.95,3.35-7.83,1.83-.29-.15-.47-.36-.89-.14-2.72,1.41-5.23.55-7.47-1.05-2.97-2.12-5.1-5.06-7.18-8-.7-.98-.99-2.13-1.13-3.56ZM36.12,113.74c-2-.54-4-1.1-6.01-1.61-1.46-.37-2.02.14-2.07,1.66-.07,2.14.72,3.97,1.97,5.64.61.82,1.03,1.5.35,2.61-.74,1.2-1.55,2.44-1.65,3.95-.07,1.04.25,2.15,1.29,2.14,2-.02,4.1.35,5.98-.73.63.08,1.18-.58,1.84-.21,3.28,1.87,7.14,2.51,10.23,4.74,2.06,1.48,3.91,3.23,3.27,6.22-.06.28-.09.61,0,.88.85,2.61,1.25,5.38,2.61,7.82.87,1.66,1.71,3.34,3.16,4.59.59,1.33,1.66,2.34,2.4,3.57,1.08,1.79,1.3,3.68.4,5.57-.94,1.95-2.05,3.8-3.07,5.71-.53.99-.9,2.04-.69,3.17.15.82.29,1.94,1.25,2.01.94.07.92-.98,1.05-1.72.11-.6.57-.82,1.13-.79.55.04.81.4.84.94.02.38.04.77.11,1.14.39,2.23,2.01,3.71,3.83,3.49.95-.12,1.64-.47,1.43-1.63-.11-.6.02-1.19.38-1.69.17-.24.38-.49.73-.42.33.07.26.39.31.62.18.75.46,1.44,1.08,1.97,1.21,1.04,2.87.53,4.41-.66,1.36-1.06,2.59-2.32,3.95-3.4,1.79-1.41,2.48-3.26,2.51-5.45.02-1.48-1.67-2.56-2.97-1.9-2.38,1.23-4.86,1.98-7.58,1.58-.54-.08-1.26-.11-1.25-.8.01-.59.71-.44,1.14-.5,2.4-.37,4.71-.92,6.64-2.57,1.03-.88,1.14-1.33.16-2.33-.8-.82-1.63-1.61-2.44-2.42-.63-.63-.68-1.15.26-1.51,1.41.5,2.63,1.33,3.88,2.13,2.93,1.87,5.92,3.72,9.38,4.39,4.89.94,9.83,1.13,14.77.14,3.49-.7,6.99-1.4,10.23-2.88,3.82-1.74,7.35-4,10.57-6.71.41-.35.83-.57,1.38-.45.26.42.35.79.02,1.27-1.04,1.5-2.09,2.99-3.29,4.37-.42.49-1.19.81-.92,1.66.28.86,1.12.79,1.78,1.01.16.05.33.05.5.07,1.99.26,3.98-.02,5.97-.12.37-.02.88-.2,1.02.24.16.5-.37.69-.73.89-.29.16-.61.29-.92.42-2.68,1.2-5.4.84-8.09.1-.92-.25-1.58-.27-2.19.59-.64.89-.09,1.5.3,2.19,1.56,2.78,3.8,4.97,6.13,7.08.81.74,1.77.8,2.73.41.96-.39,1.35-1.25,1.48-2.22.05-.39-.26-.88.4-1.01.55-.11,1.02.06,1.36.5.42.55.55,1.23.72,1.89.06.24,0,.52.24.7.68.52,3.22.33,3.86-.29,1.35-1.29,1.47-2.65.42-4.48-.33-.57-.89-1.17-.14-1.8.69-.58,1.4-.4,2.09.08.63.44,1,1.04,1.21,1.74.19.63.3,1.29.48,2.06.9-.55,1.33-1.27,1.34-2.22.02-2.18-.28-4.23-2.23-5.66-3.05-2.24-3.4-7.36-1.42-10.12.44-.61,1.16-1.03,1.28-1.85,1.13-1.56,1.84-3.34,2.72-5.04.18-.52.36-1.04.55-1.55,1.01-2.64,1.41-5.28.36-8.02-.37-.96-.35-2-.32-3.02.07-2,1.15-3.27,3-3.66,3.99-.84,7.42-2.65,9.97-5.92.42.03.84.05,1.26.08,1.32.09,2.63.09,3.85-.52,1.44-.72,1.84-2.43.88-3.64-1.73-2.18-1.76-2.57-.3-4.92.98-1.59,1.27-3.31.91-5.12-.14-.7-.41-1.45-1.33-1.46-2.91-.06-5.66.26-7.3,3.16-1.97,1-3.94,2.02-6.23,1.91-.76-.04-1.12.27-1.5.86-.75,1.14-1.6,2.15-3.16,2.29-.68.06-1.43.24-1.64,1.27-.14.68-1,.86-1.68.93-.93.09-1.86.1-2.79.16-.58.04-1.16-.1-1.72.27-2.68,1.77-5.72,2.72-8.72,3.76-1.47.51-1.53.48-.63,1.72,1,1.37,1.24,2.74.25,4.21-.41.08-.82.22-1.24.23-.48.02-.93-.17-1.18-.62-.29-.53.15-.72.47-1,.61-.52.44-1.16.08-1.72-.7-1.1-1.59-1.98-2.94-2.26-.31-.06-.76.02-.84-.42-.08-.45.3-.68.62-.88.25-.16.53-.26.81-.36,3.84-1.51,7.81-2.72,11.43-4.77,1.02-.58,2.02-.71,3.13-.37.65.2,1.34.26,2.02.14.7-.12,1.4-.41,1.4-1.22,0-.9.5-.97,1.14-.91.78.07,1.49-.02,2.18-.45,1-.63,1.5-1.63,1.94-2.61.43-.94.8-1.16,1.81-.78,1.64.62,4.18-.22,5.05-1.53.28-.43.81-1.02.19-1.45-1.05-.73-.5-1.36-.04-2.03.59-.87,1.21-1.72,1.93-2.75-.92.1-1.38.52-1.82.88-3.26,2.77-7.26,3.82-11.27,4.59-3.27.63-6.63.73-9.99.48-3.44-.25-6.82-.7-9.97-2.21-3.22-1.55-6.17-3.52-8.99-5.69-.17-.19-.3-.42-.5-.55-2.86-1.78-4.84-4.34-6.43-7.24-1.18-2.14-2.81-4.06-3.19-6.59-.05-.34-.28-.57-.57-.8-2.27-1.83-6.94-1.96-9.23-.22-.44.33-.91.66-1.42.83-.73.23-.96.73-1.1,1.39-1.15,5.55-3.41,10.54-7.4,14.65-.24.24-.49.47-.73.71-4.66,4.73-9.71,8.82-16.39,10.4-2.69.63-5.43.87-8.14,1.3-4.09.66-7.95-.31-11.68-1.59-1.57-.54-3.26-1.06-4.72-2.08-.46,2.02.09,3.32,1.64,3.65,1.47.32,2.91.94,4.49.56.46-.11.86-.04.75.74-.21,1.57.6,2.35,2.24,2.26.61-.03,1.18,0,1.34.65.25,1.03,1.04,1.03,1.78.98,1.01-.06,2-.31,2.91-.82.63-.36,1.22-.38,1.84.19,2.76,2.49,6.09,3.69,9.69,4.4,3.54.69,7.18.53,10.69,1.42.31.08.76-.09.77.42.02.52-.44.51-.81.59-1.41.31-2.83.52-4.29.44-.42-.02-.83-.07-1.08.43-.71,1.4-1.71,2.63-2.57,3.93-.79,1.2-.55,1.93.79,2.23.8.17.7.5.31.91-1.35,1.43-1.66,3.19-1.75,5.05-.21.26-.25.81-.8.56-.41-.19-.68-.56-.64-1.01.07-.71.17-1.43.35-2.12.17-.68.3-1.19-.64-1.41-.64-.15-.89-.71-.88-1.39.02-1,.2-1.98.85-2.74.7-.82,1.17-1.76,1.66-2.7.9-1.71.89-1.71-.96-1.89-.38-.04-.76-.09-1.13-.14-3.52-.46-6.93-1.38-9.93-3.29-1.45-.92-2.81-1.33-4.39-.85-1.49.45-2.6-.04-3.44-1.2-.34-.48-.69-.61-1.23-.69-1.08-.17-2.26-.29-2.43-1.76-.06-.51-.46-.38-.79-.4-1.49-.1-2.93-.41-4.32-.96-.48-.19-.95-.39-1.45-.07ZM72.53,42.07c-.97.06-1.94.12-2.91.19-1.72.12-3.31.67-4.79,1.52-.28.16-.72.24-.69.65.02.33.41.4.67.5,4,1.62,7.08,4.57,10.43,7.13,1.24.95,1.78.9,2.47-.52.32-.65.46-1.36.41-2.09-.06-1.01-.1-2.03-.16-3.04,1.48.07,1.64,1.31,1.8,2.31.29,1.81.08,3.63-.8,5.28-.41.76-.26,1.22.23,1.91,1.62,2.25,3.54,4.31,4.61,6.94.69,1.78,1.22,3.62,2.24,5.26.15.57.33,1.14.43,1.72.17,1.04.55,1.2,1.33.45.33-.32.8-.45,1.25-.58,1.82-.51,3.69-.42,5.54-.5,1.09.25,2.25.18,3.33.98.18-1.71.34-3.27.5-4.84.1-.76.21-1.52.31-2.27.62-1.76,1.24-3.53,1.86-5.29.49-.49.71-1.13,1.01-1.72.18-.35.27-.67-.14-.98-1.53-1.16-1.68-2.8-1.49-4.53.56-.43,1-.44,1.22.34.1.37.16.74.3,1.1.27.69.65,1.35,1.42,1.49.72.13.83-.65,1.08-1.06,2.38-3.96,5.51-7.23,9.18-10.01.79-.6.54-1.22.07-1.84-.4-.53-1-.93-.97-1.7,1.33-.38,2.59-.48,3.56.81.4.54.89.5,1.45.17,1.43-.83,2.87-1.64,4.35-2.39.62-.31,1.05-.51.87-1.37-.14-.7.2-1.26,1.01-.62,1.44,1.13,2.9.6,4.61.19-1.58-1.21-2.4-2.84-3.72-4.03-.57-.51-1.22-.57-1.89-.26-.58.26-.72.77-.72,1.37,0,.56.19,1.32-.64,1.45-.84.13-1.24-.52-1.34-1.23-.09-.73-.52-1.01-1.12-1.21-1.33-.44-2.69-.8-3.98-1.33-5.15-2.11-10.46-3.12-16.04-2.61-.71.07-1.72.54-2.07-.35-.31-.79.65-1.27,1.19-1.77.79-.73,1.47-1.53,1.88-2.53.2-.49.23-1.02-.1-1.46-.36-.48-.84-.18-1.29-.09-1,.19-1.8.67-2.44,1.48-.64.79-1.33,1.54-2.05,2.27-.34.35-.8.55-1.25.17-.39-.32-.4-.77-.17-1.16.51-.88.74-1.95,1.56-2.6,1.39-1.1,1.23-2.59,1.16-4.06-.03-.63-.24-1.28-.99-1.47-.69-.18-1.35-.12-1.89.41-.46.44-.91.89-1.37,1.33-2.47,2.35-4.79,4.75-4.38,8.59.06.55-.21,1.13-.88,1.23-.61.09-.88-.34-1.12-.84-.91-1.9-2.39-3.15-4.43-3.73-.44-.13-.94-.38-1.33-.03-.46.42-.36,1.05-.18,1.56.33.92.79,1.78,1.12,2.7.43,1.16-.11,2.12-1.3,2.11-1.71,0-3.31.58-4.97.82-3.26.46-6.53,1.06-9.62,2.33-2.73,1.12-5.51,2.13-7.08,4.91-.36.64-.99,1.04-1.67,1.33-.27.12-.57.26-.83.01-.27-.26-.14-.55,0-.82.41-.74.88-1.45,1.24-2.22.34-.74.45-1.64-.49-1.93-.86-.27-1.46.2-1.69,1.21-.42,1.84-1.42,3.3-3.08,4.32-1.19.73-2.37,1.53-3.4,2.77,1.41.1,2.43-.33,3.42-.92.52-.31,1.26-.69,1.57-.04.43.9,1.13.85,1.79.82,2.68-.1,5.22.56,7.72,1.39.65.21,1.04.16,1.57-.3,2.26-1.96,5.08-2.44,7.93-2.64.86-.06,2,.05,1.79,1.51ZM131.75,41.14c-4.63.57-8.92,2.32-13.23,3.96-.35.13-.65.4-.96.62-3.65,2.6-6.89,5.57-9.25,9.48-1.93,3.21-3.61,6.44-4.64,10.11-1.79,6.39-.9,12.51,1.53,18.38,2.79,6.73,8.07,11.34,14.7,14.07,6.44,2.65,13.08,3.6,19.89.66,4.88-2.11,9.26-4.72,12.65-8.88,3.17-3.89,4.33-8.52,5.24-13.32,1.05-5.54.56-10.88-1.37-16.11-1.69-4.58-3.98-8.74-7.72-12.08-3.66-3.26-7.88-5.2-12.55-6.38-1.41-.36-2.82-.58-4.29-.5ZM55.52,105.72c5.41-.34,10.43-2.14,14.58-5.45,7.33-5.85,11.54-13.47,11.65-23.15.06-5.05-1.33-9.69-3.92-13.76-3.86-6.06-9.38-10.41-16.03-13.3-3.15-1.37-6.48-1.57-9.8-1.93-3.58-.38-7.05-.11-10.53,1.05-4.37,1.46-8.13,3.89-10.85,7.43-3.29,4.29-4.93,9.44-5.58,14.82-.21,1.76,0,3.57-.18,5.34-.53,5.36.74,10.32,3.65,14.73,3.45,5.23,8.2,9.16,13.89,11.77,4.13,1.89,8.55,2.72,13.13,2.43ZM37.56,33.5c.24,2.58.55,4.87,1.75,6.95.75,1.3,1.54,1.68,2.87,1.04,1.45-.7,2.92-1.37,4.29-2.2,1.55-.93,3.12-1.87,4.12-3.49.42-.69.52-1.08-.22-1.65-1.09-.85-2.15-1.8-3.03-2.86-2.05-2.48-3.93-5.09-5.57-7.87-.29-.49-.48-1.25-1.17-1.19-.63.05-.87.74-1.13,1.27-1.61,3.24-1.86,6.73-1.91,10ZM140.13,28.66c-.12-2.07-.42-3.87-.91-5.62-.59-2.15-1.51-4.14-3.31-5.59-.65-.52-1.23-.7-1.51.32-1.24,4.5-4.07,8.15-6.51,11.99-1.02,1.6-1.21,1.76.33,2.89,2.48,1.81,5.33,2.58,8.41,2.66,1.27.03,2.12-.59,2.48-1.58.62-1.69,1.33-3.41,1.02-5.06Z"/>
      <path class="cls-7" d="M123.29,150.04c-.55-.11-.97.11-1.38.45-3.22,2.71-6.75,4.97-10.57,6.71-3.24,1.48-6.74,2.18-10.23,2.88-4.94.99-9.88.8-14.77-.14-3.45-.66-6.45-2.51-9.38-4.39-1.25-.8-2.47-1.63-3.89-2.13-.58-1.4-1.7-2.41-2.54-3.62-2.01-2.88-3.71-5.84-4.03-9.46-.13-1.52.13-3.05-.2-4.55.09-1.85.4-3.62,1.75-5.05.39-.41.48-.74-.31-.91-1.35-.3-1.59-1.03-.79-2.23.87-1.31,1.86-2.53,2.57-3.93.25-.5.66-.45,1.08-.43,1.45.08,2.87-.13,4.29-.44.37-.08.83-.07.81-.59-.02-.5-.47-.34-.77-.42-3.51-.89-7.15-.73-10.69-1.42-3.6-.7-6.94-1.91-9.69-4.4-.63-.57-1.22-.55-1.84-.19-.91.51-1.89.76-2.91.82-.74.04-1.53.04-1.78-.98-.16-.65-.73-.68-1.34-.65-1.63.08-2.45-.7-2.24-2.26.1-.78-.29-.86-.75-.74-1.58.38-3.02-.24-4.49-.56-1.55-.33-2.1-1.63-1.64-3.65,1.45,1.02,3.14,1.54,4.72,2.08,3.73,1.29,7.6,2.25,11.68,1.59,2.71-.44,5.45-.67,8.14-1.3,6.68-1.57,11.73-5.67,16.39-10.4.24-.24.48-.47.73-.71.52.3.77.78.93,1.33-.43.57-.63,1.36-.05,1.71,1.5.91,1.8,2.33,2.04,3.85.06.36.32.69.51,1.01.72,1.21,1.61,2.31,3.15,2.21,1.5-.1,1.99-1.5,2.25-2.62.37-1.58,1.31-2.24,2.67-2.86,1.23-.56,2.42-1.06,3.76-.84,1.41.24,2.79.64,4.19.97.17.04.37.05.39.25.08,1.18,1.18,1.82,1.5,2.9.29.97,1.05,1.2,2.03.85,1.6-.58,2.12-1.96,2.33-3.37.17-1.17.66-1.78,1.64-2.37,1.71-1.04,1.92-1.93,1.26-3.57.59-.06.87-.56,1.24-.92,2.82,2.18,5.77,4.14,8.99,5.69,3.16,1.52,6.54,1.96,9.97,2.21,3.35.25,6.72.15,9.99-.48,4.02-.77,8.01-1.82,11.27-4.59.43-.37.9-.78,1.82-.88-.72,1.02-1.34,1.87-1.93,2.75-.45.67-1.01,1.3.04,2.03.62.43.1,1.02-.19,1.45-.87,1.31-3.42,2.15-5.05,1.53-1.01-.38-1.38-.16-1.81.78-.44.97-.94,1.98-1.94,2.61-.69.44-1.4.53-2.18.45-.64-.06-1.14.02-1.14.91,0,.81-.7,1.1-1.4,1.22-.68.12-1.37.06-2.02-.14-1.11-.34-2.1-.22-3.13.37-3.61,2.05-7.58,3.26-11.43,4.77-.28.11-.56.21-.81.36-.32.2-.7.43-.62.88.08.44.53.36.84.42,1.35.28,2.24,1.16,2.94,2.26.36.56.53,1.2-.08,1.72-.32.28-.76.47-.47,1,.25.45.69.64,1.18.62.41-.01.83-.15,1.24-.23.07.48.14.96.2,1.44-.33.34-.39.74-.23,1.16.47,1.21,1.06,2.36,1.24,3.67.09.63.55.49.97.35.54,3.01.58,6.03.31,9.08-.12,1.36-.29,2.53-1.78,3.18-.7.3-1.68,1.13-1,1.98,1.05,1.3.77,2.56.46,3.91ZM90.75,122.63c1.24.51,2.47.91,3.76,1.09,5.32.76,10.48.29,15.34-2.16.44-.22,1.37-.11,1.21-.81-.18-.81-1.05-.66-1.73-.61-.08,0-.17.03-.25.04-5.54.72-11.03,1.88-16.66,1.74-.56-.01-1.2.03-1.67.71ZM70.89,147.38c.03.71,1.39,2.34,1.92,2.3.57-.04,1.91-1.64,1.85-2.21-.06-.68-1.33-2.28-1.79-2.27-.76.02-2.01,1.4-1.97,2.18ZM115.58,138.89c-.65.07-1.94,1.43-1.9,2.01.04.65,1.52,2.48,1.99,2.46.51-.03,1.95-1.71,1.88-2.19-.09-.64-1.54-2.32-1.96-2.27ZM120.82,142.85c.61,0,1.87-1.21,1.91-1.83.04-.69-1.31-2.52-1.85-2.5-.7.03-1.93,1.3-1.91,1.97.01.71,1.31,2.35,1.86,2.36ZM120.43,145.75c-.07-.66-1.49-2.3-1.95-2.24-.78.11-1.89,1.37-1.8,2.04.12.85,1.37,2.32,1.93,2.27.58-.05,1.87-1.53,1.81-2.08ZM71.8,143.47c-.02-.51-1.41-2.25-1.8-2.25-.69,0-1.98,1.23-1.97,1.9,0,.73,1.39,2.47,1.94,2.43.56-.03,1.85-1.49,1.84-2.08Z"/>
      <path class="cls-6" d="M131.75,41.14c1.47-.08,2.87.14,4.29.5,4.67,1.18,8.89,3.11,12.55,6.38,3.74,3.34,6.03,7.5,7.72,12.08,1.93,5.23,2.42,10.57,1.37,16.11-.91,4.8-2.07,9.43-5.24,13.32-3.38,4.16-7.77,6.78-12.65,8.88-6.81,2.94-13.45,1.99-19.89-.66-6.63-2.73-11.91-7.34-14.7-14.07-2.43-5.87-3.32-11.99-1.53-18.38,1.03-3.67,2.71-6.9,4.64-10.11,2.36-3.91,5.6-6.88,9.25-9.48.31-.22.61-.49.96-.62,4.31-1.64,8.6-3.39,13.23-3.96ZM135.79,94.89c1.15-.71,1.9-1.51,2.49-2.45,3.39-5.39,3.91-11.38,2.84-17.39-.92-5.12-4.44-9.09-7.44-13.18-2.39-3.27-5.6-5.82-9.28-7.37-5.33-2.24-8.43-1.75-11.39,2.97-1.68,2.68-3.01,5.49-3.48,8.67-.53,3.6-.49,7.18.18,10.76.6,3.23,1.3,6.44,2.4,9.58-.53.03-.66-.3-.82-.59-.26-.46-.59-.96-1.18-.64-.57.31-.36.94-.18,1.38.44,1.11,1.05,2.12,1.98,2.91,1.84,1.58,3.76,3.03,5.83,4.31,5.49,3.38,11.28,5.2,17.78,3.52,1.58-.41,3.07-.97,4.36-1.98.35-.28.86-.6.58-1.11-.24-.43-.76-.19-1.17-.11-1.09.22-2.05,1.02-3.49.72Z"/>
      <path class="cls-6" d="M55.52,105.72c-4.58.29-9-.54-13.13-2.43-5.69-2.61-10.44-6.54-13.89-11.77-2.91-4.41-4.17-9.37-3.65-14.73.17-1.77-.04-3.58.18-5.34.66-5.38,2.29-10.54,5.58-14.82,2.72-3.54,6.48-5.97,10.85-7.43,3.48-1.16,6.95-1.43,10.53-1.05,3.32.35,6.65.56,9.8,1.93,6.65,2.89,12.17,7.24,16.03,13.3,2.59,4.07,3.98,8.71,3.92,13.76-.11,9.68-4.32,17.3-11.65,23.15-4.14,3.31-9.16,5.11-14.58,5.45ZM72.2,92.71c.38-1.15.74-2.18,1.08-3.22,3-9.24,1.92-17.97-3.33-26.16-.64-1-1.47-1.88-2.04-2.91-1.27-2.26-3.19-3.63-5.63-4.23-2.41-.58-4.86-.55-6.94.95-3.91,2.81-6.65,6.61-8.77,10.9-.91,1.84-1.38,3.83-2.15,5.71-2.92,7.13-2.63,14.14.57,21.08.97,2.11,2.21,4.05,3.94,6-1.58-.1-2.87-.2-4.16-.27-.39-.02-.8.03-.94.47-.13.41.1.74.4,1,.51.47,1.15.69,1.8.89,2.65.81,5.37.69,8.08.52,3.53-.22,6.97-.78,10.18-2.45,3.44-1.79,6.74-3.76,9.36-6.69.47-.53,1.15-1.22.69-1.88-.47-.68-1.12.12-1.7.27-.07.02-.15.01-.41.03Z"/>
      <path class="cls-4" d="M98.74,63.04c-.1.76-.21,1.52-.31,2.27-.49.03-.6-.4-.79-.7-.3-.47-.75-.66-1.17-.33-.94.74-2.08,1.28-2.6,2.47-.4.92.53,1.43.69,2.17.02.08.03.17.04.25-1.86.07-3.73-.02-5.54.5-.46.13-.92.26-1.25.58-.78.75-1.16.6-1.33-.45-.09-.58-.28-1.15-.43-1.72,1.49-1.2,1.52-1.54.34-3.04-.23-.29-.42-.64-.54-.99-.35-.98-1-1.42-2.04-1.23-1.07-2.62-2.99-4.68-4.61-6.94-.49-.68-.64-1.15-.23-1.91.88-1.65,1.09-3.47.8-5.28-.16-1-.31-2.24-1.8-2.31-1.24-2.16-3.19-3.43-5.44-4.33.22-1.46-.93-1.57-1.79-1.51-2.85.2-5.67.68-7.93,2.64-.53.46-.92.51-1.57.3-2.5-.83-5.04-1.49-7.72-1.39-.66.03-1.36.08-1.79-.82-.31-.65-1.05-.27-1.57.04-.99.59-2.02,1.02-3.42.92,1.03-1.24,2.21-2.04,3.4-2.77,1.66-1.02,2.66-2.48,3.08-4.32.23-1.02.83-1.48,1.69-1.21.94.29.83,1.19.49,1.93-.36.77-.83,1.48-1.24,2.22-.15.26-.27.56,0,.82.26.25.56.11.83-.01.68-.29,1.31-.69,1.67-1.33,1.58-2.78,4.35-3.8,7.08-4.91,3.09-1.26,6.36-1.87,9.62-2.33,1.66-.23,3.26-.82,4.97-.82,1.19,0,1.73-.95,1.3-2.11-.33-.91-.8-1.78-1.12-2.7-.18-.51-.28-1.14.18-1.56.39-.36.89-.1,1.33.03,2.03.58,3.51,1.83,4.43,3.73.24.5.51.93,1.12.84.67-.1.94-.67.88-1.23-.41-3.83,1.92-6.24,4.38-8.59.46-.44.92-.88,1.37-1.33.55-.53,1.2-.59,1.89-.41.76.19.97.85.99,1.47.07,1.46.23,2.96-1.16,4.06-.82.65-1.05,1.72-1.56,2.6-.22.39-.21.84.17,1.16.46.38.91.18,1.25-.17.71-.73,1.41-1.47,2.05-2.27.65-.8,1.44-1.29,2.44-1.48.45-.08.93-.38,1.29.09.33.44.3.97.1,1.46-.41,1-1.1,1.8-1.88,2.53-.54.5-1.49.98-1.19,1.77.34.89,1.36.42,2.07.35,5.58-.52,10.89.5,16.04,2.61,1.29.53,2.65.89,3.98,1.33.6.2,1.02.48,1.12,1.21.09.71.5,1.36,1.34,1.23.82-.13.63-.89.64-1.45,0-.6.14-1.11.72-1.37.68-.31,1.32-.25,1.89.26,1.32,1.19,2.15,2.82,3.72,4.03-1.7.42-3.17.94-4.61-.19-.82-.64-1.16-.08-1.01.62.18.86-.25,1.06-.87,1.37-1.48.74-2.92,1.56-4.35,2.39-.57.33-1.06.36-1.45-.17-.96-1.3-2.22-1.19-3.56-.81-1.97-.99-3.71-.25-5.41.74-.56-.3-1.13-.25-1.7-.04-1.97.69-3.53,1.95-4.8,3.56-.74.93-.83,2.07-.66,3.23.02,1.4.02,2.81.28,4.2-.19,1.74-.04,3.37,1.49,4.53.41.31.32.63.14.98-.3.6-.53,1.24-1.01,1.72-.75-1.45-.93-1.49-2.24-.53-.41.3-.84.56-1.23.88-.51.41-1,1.01-.74,1.63.53,1.26,1.11,2.54,2.35,3.32ZM92.05,64.91c.59-.03.65-.61.96-.92.65-.65,1.63-1.1,1.75-2.09.12-1-.88-1.57-1.28-2.39-1.03-2.11-1.18-1.65-2.91-.6-.21.13-.38.34-.58.49-.68.52-1.3,1.17-.84,2.03.71,1.31,1.23,2.82,2.77,3.48.03.01.08,0,.12,0Z"/>
      <path class="cls-4" d="M123.31,126.7c-.07-.48-.14-.96-.2-1.44,1-1.47.75-2.83-.25-4.21-.9-1.24-.85-1.21.63-1.72,3-1.04,6.04-2,8.72-3.76.56-.37,1.14-.24,1.72-.27.93-.06,1.86-.07,2.79-.16.68-.07,1.54-.24,1.68-.93.21-1.02.96-1.2,1.64-1.27,1.56-.14,2.41-1.15,3.16-2.29.38-.58.74-.89,1.5-.86,2.29.11,4.26-.91,6.23-1.91-.16,4.28,1.06,8.34,2.02,12.44-2.55,3.28-5.98,5.08-9.97,5.92-1.85.39-2.93,1.67-3,3.66-.03,1.01-.05,2.06.32,3.02,1.05,2.74.65,5.39-.36,8.02-.2.51-.37,1.04-.55,1.55-.44.07-.53-.35-.77-.56-.31-.28-.62-.45-1.01-.17-.72.52-1.45,1.01-2.13,1.58-.45.38-.94.96-.66,1.53.46.97.81,2.06,1.85,2.65-.13.82-.85,1.25-1.28,1.85-1.99,2.76-1.63,7.88,1.42,10.12,1.95,1.43,2.25,3.48,2.23,5.66,0,.95-.44,1.67-1.34,2.22-.17-.77-.29-1.42-.48-2.06-.21-.7-.58-1.3-1.21-1.74-.7-.49-1.4-.66-2.09-.08-.74.62-.19,1.22.14,1.8,1.05,1.83.93,3.19-.42,4.48-.65.62-3.18.81-3.86.29-.23-.18-.18-.46-.24-.7-.17-.66-.3-1.33-.72-1.89-.34-.44-.81-.61-1.36-.5-.66.13-.35.62-.4,1.01-.13.97-.52,1.83-1.48,2.22-.96.39-1.92.33-2.73-.41-2.33-2.12-4.57-4.3-6.13-7.08-.39-.69-.94-1.3-.3-2.19.62-.86,1.28-.85,2.19-.59,2.69.74,5.41,1.1,8.09-.1.31-.14.63-.26.92-.42.36-.2.9-.39.73-.89-.14-.43-.66-.26-1.02-.24-1.99.1-3.97.38-5.97.12-.17-.02-.35-.02-.5-.07-.66-.22-1.5-.15-1.78-1.01-.28-.85.49-1.17.92-1.66,1.2-1.38,2.24-2.87,3.29-4.37.33-.48.25-.85-.02-1.27.31-1.35.58-2.61-.46-3.91-.68-.85.3-1.68,1-1.98,1.49-.65,1.66-1.82,1.78-3.18.27-3.04.23-6.07-.31-9.08.12-.44.31-.88.34-1.33.11-1.55-.36-3.7-2.32-3.85Z"/>
      <path class="cls-4" d="M66.29,135.8c.33,1.5.07,3.03.2,4.55.32,3.62,2.03,6.58,4.03,9.46.84,1.21,1.97,2.22,2.54,3.62-.94.36-.89.89-.26,1.51.81.81,1.64,1.59,2.44,2.42.97,1,.87,1.45-.16,2.33-1.92,1.65-4.24,2.2-6.64,2.57-.43.07-1.13-.09-1.14.5-.01.68.7.72,1.25.8,2.72.4,5.2-.36,7.58-1.58,1.29-.67,2.99.41,2.97,1.9-.03,2.19-.73,4.04-2.51,5.45-1.36,1.08-2.59,2.34-3.95,3.4-1.53,1.2-3.2,1.7-4.41.66-.62-.53-.89-1.22-1.08-1.97-.06-.23.02-.55-.31-.62-.34-.07-.55.18-.73.42-.37.5-.49,1.09-.38,1.69.21,1.16-.48,1.52-1.43,1.63-1.82.22-3.44-1.26-3.83-3.49-.07-.37-.08-.76-.11-1.14-.03-.54-.29-.9-.84-.94-.56-.04-1.03.19-1.13.79-.13.74-.11,1.79-1.05,1.72-.96-.07-1.1-1.19-1.25-2.01-.21-1.13.16-2.18.69-3.17,1.02-1.9,2.13-3.76,3.07-5.71.91-1.88.68-3.78-.4-5.57-.74-1.23-1.8-2.24-2.4-3.57,1.97-1.06,2.44-2.03,1.48-3.25-.5-.63-.91-1.29-1.26-2-.38-.76-.88-1.08-1.68-.38-.49.44-1.01.9-1.7,1.05-1.36-2.44-1.76-5.21-2.61-7.82-.09-.27-.06-.6,0-.88.64-2.98-1.21-4.73-3.27-6.22-3.09-2.23-6.95-2.87-10.23-4.74-.66-.38-1.21.29-1.84.21,1.14-2.78,1.5-5.71,1.49-8.67,0-1.76.03-3.57-1.34-4.99.5-.32.97-.13,1.45.07,1.39.55,2.83.86,4.32.96.32.02.73-.11.79.4.17,1.47,1.35,1.59,2.43,1.76.54.08.88.21,1.23.69.84,1.16,1.95,1.65,3.44,1.2,1.58-.48,2.95-.07,4.39.85,3,1.92,6.41,2.83,9.93,3.29.38.05.76.1,1.13.14,1.85.18,1.86.18.96,1.89-.49.93-.97,1.87-1.66,2.7-.65.76-.83,1.74-.85,2.74-.01.67.24,1.24.88,1.39.94.21.81.73.64,1.41-.18.69-.28,1.41-.35,2.12-.04.46.23.82.64,1.01.55.25.58-.3.8-.56ZM62.37,142.14c0-.9-.8-1.33-1.19-2.01q-1.19-2.05-3.08-.61c-.27.21-.53.41-.78.64-.74.66-.84,1.45-.32,2.27.56.89,1.15,1.77,1.78,2.61.42.56.92.5,1.4.02.57-.56,1.14-1.12,1.72-1.67.35-.34.58-.73.47-1.25ZM66.45,150.6c.57-.04,1.89-1.53,1.85-2.08-.04-.53-1.45-2.26-1.84-2.25-.77,0-1.99,1.19-1.95,1.89.05.79,1.39,2.48,1.94,2.44Z"/>
      <path class="cls-4" d="M80.13,100.36c-.16-.55-.41-1.04-.93-1.33,3.99-4.11,6.26-9.1,7.4-14.65.14-.67.37-1.16,1.1-1.39.51-.17.99-.5,1.42-.83,2.29-1.74,6.96-1.6,9.23.22.28.23.52.46.57.8.38,2.53,2.01,4.45,3.19,6.59,1.59,2.9,3.57,5.46,6.43,7.24.2.13.34.36.5.55-.37.36-.64.86-1.24.92-1.36-.24-2.71-.14-3.62.98-1.67,2.03-3.63,1.78-5.73.98-3.26-1.24-6.38-1.52-9.36.85-1.6,1.28-4,1.06-5.49-.35-1.07-1.02-2.18-1.2-3.47-.58ZM94.23,90.82c-1.41.06-2.76.37-4.1.77-1.25.37-1.47,1.26-.56,2.16.39.38.81.74,1.37.88.55.14.95.47,1.32.92.81.98,1.75.98,2.48-.05.38-.54.83-.93,1.38-1.26.52-.31.88-.79,1.15-1.32.54-1.05.14-1.85-1.03-2-.67-.09-1.35-.06-2.02-.09Z"/>
      <path class="cls-7" d="M37.56,33.5c.05-3.27.29-6.76,1.91-10,.26-.52.5-1.21,1.13-1.27.69-.06.88.7,1.17,1.19,1.64,2.78,3.52,5.39,5.57,7.87.88,1.06,1.94,2.01,3.03,2.86.74.57.64.97.22,1.65-1,1.63-2.57,2.57-4.12,3.49-1.38.82-2.84,1.5-4.29,2.2-1.33.64-2.12.26-2.87-1.04-1.2-2.09-1.51-4.37-1.75-6.95Z"/>
      <path class="cls-7" d="M140.13,28.66c.32,1.65-.4,3.37-1.02,5.06-.36.99-1.21,1.62-2.48,1.58-3.07-.08-5.93-.85-8.41-2.66-1.55-1.13-1.35-1.29-.33-2.89,2.44-3.84,5.27-7.49,6.51-11.99.28-1.02.86-.84,1.51-.32,1.8,1.45,2.72,3.44,3.31,5.59.48,1.75.79,3.55.91,5.62Z"/>
      <path class="cls-7" d="M36.12,113.74c1.37,1.41,1.34,3.23,1.34,4.99,0,2.97-.36,5.89-1.49,8.67-1.89,1.08-3.98.71-5.98.73-1.04.01-1.35-1.1-1.29-2.14.1-1.51.91-2.75,1.65-3.95.68-1.1.27-1.79-.35-2.61-1.25-1.67-2.03-3.5-1.97-5.64.05-1.52.61-2.03,2.07-1.66,2.01.5,4.01,1.07,6.01,1.61Z"/>
      <path class="cls-7" d="M152.97,120.33c-.96-4.1-2.18-8.15-2.02-12.44,1.63-2.89,4.39-3.22,7.3-3.16.92.02,1.19.76,1.33,1.46.35,1.81.07,3.54-.91,5.12-1.45,2.35-1.43,2.74.3,4.92.97,1.21.56,2.93-.88,3.64-1.22.61-2.53.61-3.85.52-.42-.03-.84-.05-1.26-.08Z"/>
      <path class="cls-3" d="M99.98,50.51c-.26-1.39-.27-2.79-.28-4.2.81.46,1.09-.25,1.33-.71.97-1.85,2.45-3.17,4.14-4.34.63-.44,1.62-.65,1.7-1.69,1.7-.99,3.43-1.73,5.41-.74-.03.77.58,1.17.97,1.7.47.62.72,1.24-.07,1.84-3.67,2.77-6.8,6.04-9.18,10.01-.25.41-.36,1.19-1.08,1.06-.77-.14-1.15-.8-1.42-1.49-.14-.35-.2-.73-.3-1.1-.22-.78-.66-.77-1.22-.34Z"/>
      <path class="cls-3" d="M72.53,42.07c2.24.9,4.19,2.17,5.44,4.33.05,1.01.09,2.03.16,3.04.05.74-.09,1.44-.41,2.09-.7,1.42-1.24,1.47-2.47.52-3.35-2.56-6.43-5.51-10.43-7.13-.26-.11-.65-.17-.67-.5-.03-.41.41-.49.69-.65,1.48-.85,3.07-1.4,4.79-1.52.97-.07,1.94-.12,2.91-.19Z"/>
      <path class="cls-3" d="M94.6,69.17c-.01-.08-.03-.17-.04-.25-.16-.75-1.09-1.25-.69-2.17.52-1.18,1.67-1.73,2.6-2.47.42-.33.87-.14,1.17.33.19.3.29.73.79.7-.16,1.57-.32,3.13-.5,4.84-1.08-.8-2.25-.73-3.33-.98Z"/>
      <path class="cls-3" d="M53.9,146.85c.69-.15,1.21-.61,1.7-1.05.8-.7,1.3-.38,1.68.38.35.72.76,1.37,1.26,2,.97,1.23.49,2.19-1.48,3.25-1.45-1.26-2.29-2.94-3.16-4.59Z"/>
      <path class="cls-3" d="M98.74,63.04c-1.24-.78-1.81-2.06-2.35-3.32-.26-.62.22-1.21.74-1.63.39-.32.83-.58,1.23-.88,1.3-.96,1.49-.92,2.24.53-.62,1.77-1.24,3.53-1.86,5.29Z"/>
      <path class="cls-3" d="M136.68,147.55c-1.03-.59-1.38-1.69-1.85-2.65-.28-.58.21-1.15.66-1.53.67-.57,1.41-1.06,2.13-1.58.39-.28.71-.11,1.01.17.23.21.32.63.77.56-.88,1.7-1.59,3.48-2.72,5.04Z"/>
      <path class="cls-3" d="M83.8,62.82c1.04-.19,1.69.25,2.04,1.23.13.35.31.7.54.99,1.19,1.5,1.16,1.84-.34,3.04-1.02-1.64-1.55-3.48-2.24-5.26Z"/>
      <path class="cls-5" d="M80.13,100.36c1.29-.62,2.4-.44,3.47.58,1.49,1.42,3.89,1.63,5.49.35,2.98-2.37,6.1-2.09,9.36-.85,2.1.8,4.07,1.04,5.73-.98.92-1.12,2.26-1.22,3.62-.98.67,1.64.45,2.53-1.26,3.57-.98.59-1.46,1.2-1.64,2.37-.21,1.41-.74,2.79-2.33,3.37-.99.36-1.74.12-2.03-.85-.32-1.08-1.42-1.72-1.5-2.9-.01-.2-.22-.21-.39-.25-1.4-.32-2.78-.73-4.19-.97-1.33-.22-2.52.27-3.76.84-1.36.62-2.3,1.28-2.67,2.86-.26,1.11-.76,2.52-2.25,2.62-1.54.1-2.43-1-3.15-2.21-.19-.33-.46-.66-.51-1.01-.24-1.53-.54-2.94-2.04-3.85-.58-.35-.38-1.15.05-1.71ZM83.8,104.11c.16,1.18.59,2.03,1.28,2.74.45.47.7.42.92-.26.57-1.78.6-1.77-1.27-2.23-.24-.06-.49-.13-.93-.26ZM102.74,103.62c-.59.55-1.73-.34-1.89.66-.1.6.75,1.7,1.12,1.6.91-.23.71-1.33.77-2.26Z"/>
      <path class="cls-5" d="M90.75,122.63c.47-.69,1.11-.73,1.67-.71,5.63.14,11.12-1.02,16.66-1.74.08-.01.17-.03.25-.04.68-.05,1.55-.2,1.73.61.15.7-.77.59-1.21.81-4.87,2.45-10.02,2.92-15.34,2.16-1.29-.18-2.52-.58-3.76-1.09Z"/>
      <path class="cls-4" d="M70.89,147.38c-.04-.78,1.21-2.16,1.97-2.18.47-.01,1.73,1.59,1.79,2.27.05.57-1.29,2.17-1.85,2.21-.53.04-1.88-1.59-1.92-2.3Z"/>
      <path class="cls-4" d="M115.58,138.89c.42-.04,1.87,1.63,1.96,2.27.07.49-1.36,2.16-1.88,2.19-.46.03-1.94-1.81-1.99-2.46-.04-.58,1.25-1.94,1.9-2.01Z"/>
      <path class="cls-4" d="M120.82,142.85c-.55,0-1.84-1.64-1.86-2.36-.01-.68,1.22-1.95,1.91-1.97.54-.02,1.89,1.81,1.85,2.5-.04.62-1.3,1.83-1.91,1.83Z"/>
      <path class="cls-4" d="M120.43,145.75c.06.55-1.23,2.02-1.81,2.08-.56.05-1.81-1.42-1.93-2.27-.09-.67,1.02-1.93,1.8-2.04.45-.06,1.88,1.57,1.95,2.24Z"/>
      <path class="cls-4" d="M71.8,143.47c.02.59-1.27,2.05-1.84,2.08-.55.03-1.93-1.71-1.94-2.43,0-.67,1.28-1.91,1.97-1.9.4,0,1.79,1.74,1.8,2.25Z"/>
      <path class="cls-5" d="M123.31,126.7c1.96.16,2.43,2.31,2.32,3.85-.03.45-.22.89-.34,1.33-.42.14-.89.28-.97-.35-.18-1.31-.77-2.47-1.24-3.67-.16-.42-.1-.82.23-1.16Z"/>
      <path class="cls-5" d="M135.79,94.89c1.45.3,2.4-.5,3.49-.72.41-.08.93-.33,1.17.11.29.51-.23.83-.58,1.11-1.29,1.02-2.77,1.57-4.36,1.98-6.5,1.68-12.29-.14-17.78-3.52-2.06-1.27-3.99-2.73-5.83-4.31-.93-.8-1.53-1.81-1.98-2.91-.18-.44-.39-1.07.18-1.38.59-.32.92.18,1.18.64.17.29.29.62.82.59-1.1-3.14-1.8-6.35-2.4-9.58-.67-3.58-.72-7.16-.18-10.76.47-3.18,1.8-5.99,3.48-8.67,2.96-4.72,6.06-5.21,11.39-2.97,3.68,1.55,6.89,4.1,9.28,7.37,3,4.09,6.52,8.06,7.44,13.18,1.07,6.01.55,12-2.84,17.39-.59.94-1.34,1.73-2.49,2.45ZM137.45,85.59c-.17-2.81-2.97-5.99-5.16-6.38-1.13-.21-2.11.48-2.11,1.57,0,2.53-1.19,4.47-3,6.07-3.11,2.75-5.06,2.36-7.43-1.11-1.04-1.53-1.39-3.35-2.49-4.82-.45-.59-.86-1.09-1.66-.7-.87.44-2,.65-1.86,2.04.24,2.27.94,4.34,2.27,6.24,2.56,3.65,6.18,5.59,10.35,6.65,1.89.48,3.97.39,5.6-.45,3.84-1.96,4.46-5.99,5.5-9.11ZM118.5,72.52c2.01-.08,2.54-.57,2.85-2.3.4-2.3-.59-3.93-2.41-5.16-.93-.62-2.06-1.3-3.01-.41-.91.86-1.77,2.02-1.25,3.47.35.98.73,1.96,1.2,2.9.63,1.27,1.57,1.67,2.62,1.5Z"/>
      <path class="cls-5" d="M72.2,92.71c.26-.01.34,0,.41-.03.58-.15,1.23-.94,1.7-.27.46.67-.21,1.36-.69,1.88-2.61,2.93-5.91,4.9-9.36,6.69-3.2,1.67-6.65,2.22-10.18,2.45-2.71.17-5.42.29-8.08-.52-.66-.2-1.29-.42-1.8-.89-.29-.27-.53-.59-.4-1,.14-.44.55-.49.94-.47,1.29.07,2.59.17,4.16.27-1.73-1.95-2.97-3.89-3.94-6-3.2-6.95-3.49-13.95-.57-21.08.77-1.88,1.24-3.87,2.15-5.71,2.12-4.29,4.86-8.08,8.77-10.9,2.09-1.5,4.54-1.53,6.94-.95,2.45.59,4.37,1.96,5.63,4.23.58,1.03,1.4,1.92,2.04,2.91,5.26,8.19,6.33,16.92,3.33,26.16-.34,1.04-.69,2.07-1.08,3.22ZM57.21,100.49c2.81-.29,6.06-1.47,8.8-3.59,4.12-3.18,5.34-7.95,5.93-12.8.31-2.55-.53-3.19-2.67-3.43-.67-.08-.97.18-1.1.74-.09.37-.1.75-.1,1.13-.1,4.11-1.7,7.49-4.92,10.04-1.59,1.26-3.36,1.34-4.7.28-2.39-1.9-3.92-4.3-4.21-7.4-.11-1.19-.44-1.4-1.55-.94-1.59.67-2.77,1.85-3.56,3.33-.75,1.43-1.83,2.77-1.68,4.57.14,1.58,1.02,2.79,1.97,3.91,1.86,2.19,3.75,4.43,7.79,4.15ZM62.82,66.22c-.67-.08-1.18.31-1.63.87-1.04,1.31-1.71,2.83-2.45,4.3-.29.57-.08,1.09.15,1.59.7,1.57,2.43,2.4,4.12,2.04,2.54-.55,4.05-3.51,3.11-6.1-.71-1.95-1.71-2.8-3.29-2.7Z"/>
      <path class="cls-3" d="M92.06,64.91s-.09.02-.12,0c-1.54-.66-2.06-2.18-2.77-3.48-.47-.85.16-1.51.84-2.03.2-.15.36-.36.58-.49,1.73-1.05,1.88-1.51,2.91.6.4.82,1.4,1.39,1.28,2.39-.12.99-1.1,1.44-1.75,2.09-.31.31-.37.9-.96.92Z"/>
      <path class="cls-5" d="M106.87,39.58c-.08,1.04-1.07,1.25-1.7,1.69-1.69,1.17-3.17,2.49-4.14,4.34-.24.46-.52,1.18-1.33.71-.17-1.16-.07-2.3.66-3.23,1.27-1.6,2.83-2.87,4.8-3.56.58-.2,1.14-.25,1.7.04Z"/>
      <path class="cls-3" d="M62.37,142.14c.1.52-.12.91-.47,1.25-.57.56-1.15,1.11-1.72,1.67-.48.47-.99.54-1.4-.02-.63-.85-1.22-1.72-1.78-2.61-.52-.82-.42-1.61.32-2.27.25-.22.52-.43.78-.64q1.88-1.45,3.08.61c.39.68,1.2,1.11,1.19,2.01Z"/>
      <path class="cls-7" d="M66.45,150.6c-.55.04-1.9-1.65-1.94-2.44-.04-.7,1.18-1.88,1.95-1.89.39,0,1.79,1.72,1.84,2.25.05.55-1.28,2.04-1.85,2.08Z"/>
      <path class="cls-5" d="M94.23,90.82c.67.03,1.36,0,2.02.09,1.17.15,1.57.95,1.03,2-.27.53-.63,1.01-1.15,1.32-.55.33-1,.72-1.38,1.26-.73,1.03-1.67,1.03-2.48.05-.37-.44-.77-.78-1.32-.92-.56-.14-.98-.49-1.37-.88-.91-.9-.69-1.79.56-2.16,1.34-.39,2.69-.71,4.1-.77Z"/>
      <path class="cls-6" d="M83.8,104.11c.44.12.68.2.93.26,1.87.45,1.84.44,1.27,2.23-.22.68-.47.73-.92.26-.69-.72-1.12-1.56-1.28-2.74Z"/>
      <path class="cls-4" d="M137.45,85.59c-1.04,3.12-1.65,7.16-5.5,9.11-1.63.83-3.71.93-5.6.45-4.17-1.06-7.79-3.01-10.35-6.65-1.33-1.9-2.03-3.97-2.27-6.24-.14-1.39.99-1.6,1.86-2.04.8-.4,1.21.1,1.66.7,1.11,1.47,1.45,3.29,2.49,4.82,2.37,3.47,4.32,3.86,7.43,1.11,1.81-1.6,3-3.54,3-6.07,0-1.1.98-1.78,2.11-1.57,2.19.4,5,3.57,5.16,6.38Z"/>
      <path class="cls-6" d="M118.5,72.52c-1.06.17-1.99-.24-2.62-1.5-.47-.95-.85-1.92-1.2-2.9-.52-1.44.34-2.61,1.25-3.47.95-.89,2.09-.21,3.01.41,1.83,1.23,2.82,2.86,2.41,5.16-.3,1.73-.84,2.23-2.85,2.3Z"/>
      <path class="cls-4" d="M57.21,100.49c-4.04.28-5.93-1.96-7.79-4.15-.95-1.12-1.84-2.33-1.97-3.91-.15-1.79.92-3.13,1.68-4.57.78-1.48,1.97-2.66,3.56-3.33,1.1-.46,1.43-.25,1.55.94.29,3.1,1.82,5.51,4.21,7.4,1.34,1.06,3.11.98,4.7-.28,3.22-2.56,4.83-5.94,4.92-10.04,0-.38.02-.77.1-1.13.13-.56.44-.82,1.1-.74,2.14.24,2.98.88,2.67,3.43-.59,4.84-1.81,9.62-5.93,12.8-2.74,2.11-5.99,3.29-8.8,3.59Z"/>
      <path class="cls-6" d="M62.82,66.22c1.58-.09,2.58.75,3.29,2.7.94,2.59-.57,5.55-3.11,6.1-1.69.37-3.42-.47-4.12-2.04-.22-.49-.43-1.01-.15-1.59.74-1.48,1.41-2.99,2.45-4.3.45-.57.96-.96,1.63-.87Z"/>
    </g>
  </g>
</svg>