<?xml version="1.0" encoding="UTF-8"?><svg id="Layer_4_copy" xmlns="http://www.w3.org/2000/svg" viewBox="0 0 237 236.99"><defs><style>.cls-1{fill:#f08008;stroke-width:0px;}</style></defs><path class="cls-1" d="m227.75,143.53c-1.15-3.35-.47-7.06,1.79-9.79l5.11-6.17c3-3.63,3.13-8.84.3-12.61l-4.82-6.41c-2.13-2.83-2.63-6.57-1.32-9.87l2.96-7.45c1.74-4.38.24-9.38-3.61-12.08l-6.56-4.61c-2.9-2.04-4.53-5.44-4.31-8.98l.51-8c.3-4.7-2.67-8.99-7.17-10.38l-7.67-2.36c-3.39-1.04-5.99-3.77-6.87-7.21l-1.99-7.76c-1.17-4.56-5.31-7.73-10.02-7.65l-8.01.13c-3.54.06-6.86-1.73-8.76-4.73l-4.29-6.77c-2.52-3.98-7.44-5.71-11.9-4.18l-7.58,2.6c-3.35,1.15-7.06.47-9.8-1.79l-6.18-5.11c-3.63-3-8.84-3.13-12.61-.3l-6.41,4.82c-2.83,2.13-6.57,2.63-9.87,1.32l-7.45-2.95c-4.38-1.74-9.38-.24-12.08,3.61l-4.61,6.56c-2.04,2.9-5.44,4.53-8.98,4.31l-8-.51c-4.7-.3-8.99,2.67-10.38,7.17l-2.36,7.66c-1.04,3.39-3.77,5.99-7.2,6.87l-7.77,1.99c-4.56,1.17-7.73,5.32-7.65,10.02l.13,8.02c.06,3.54-1.73,6.86-4.73,8.76l-6.77,4.29c-3.98,2.52-5.71,7.44-4.18,11.9l2.6,7.58c1.15,3.35.47,7.06-1.79,9.79l-5.11,6.17c-3,3.63-3.13,8.84-.3,12.61l4.81,6.41c2.13,2.83,2.63,6.57,1.32,9.87l-2.96,7.46c-1.74,4.38-.24,9.38,3.61,12.08l6.56,4.61c2.9,2.04,4.53,5.44,4.31,8.98l-.51,8c-.3,4.7,2.67,8.99,7.17,10.38l7.67,2.36c3.39,1.04,5.99,3.77,6.87,7.21l1.99,7.76c1.17,4.56,5.32,7.73,10.03,7.65l8.01-.13c3.54-.06,6.86,1.73,8.76,4.73l4.29,6.77c2.52,3.98,7.44,5.71,11.9,4.18l7.59-2.6c3.35-1.15,7.06-.47,9.79,1.79l6.17,5.11c3.63,3,8.84,3.13,12.61.3l6.41-4.81c2.83-2.13,6.57-2.63,9.87-1.32l7.45,2.95c4.38,1.74,9.38.24,12.08-3.61l4.61-6.56c2.04-2.9,5.44-4.53,8.98-4.31l8,.51c4.7.3,8.99-2.67,10.38-7.17l2.35-7.66c1.04-3.39,3.77-5.99,7.2-6.87l7.77-1.99c4.56-1.17,7.73-5.32,7.65-10.02l-.13-8.02c-.06-3.54,1.74-6.86,4.73-8.76l6.77-4.29c3.98-2.52,5.71-7.44,4.18-11.9l-2.6-7.58Zm-127.07,72.42c-53.82-9.84-89.48-61.44-79.64-115.26C30.88,46.86,82.49,11.21,136.31,21.04c53.82,9.84,89.48,61.44,79.64,115.26s-61.44,89.48-115.26,79.64Z"/><path class="cls-1" d="m75.73,90.87c1.66,4.45,5.77,6.87,12.06,8.29,7.84,1.77,22.63,4.27,32.1,5.13-1.45,2.08-3.77,6.33-4.73,9.03-8.3-1.05-21.2-3.27-29.22-5.14-7.64-1.73-12.46-4.28-15.82-10.05-3.08,1.84-6.22,3.68-10.23,5.82l-2.73-10.66c2.93-1,6.23-2.27,9.31-3.72l2.2-12.04-6.67-1.22,1.58-8.67,15.86,2.9-3.71,20.32Zm-.9-29.12c-1.33-3.32-5.07-8.48-8.23-12.07l8.02-4.35c3.2,3.33,7.19,8.2,8.85,11.58l-8.64,4.84Zm32.03,21.24c2,5.52,6.31,10.11,13.2,13.05-2.35,1.51-5.67,4.65-7.33,6.82-6.46-3.45-10.45-8.33-12.78-14.58-3.59,3.89-9.02,7.25-17.18,9.1-.88-2.17-3.21-5.87-5.04-7.94,9.55-1.4,14.14-4.91,16.45-8.76l-14.11-2.58,1.53-8.35,15.14,2.77.86-4.72-12.81-2.34,1.5-8.22,5.44.99c-.59-2.65-1.62-5.78-2.81-8.41l8.55-1.78c1.75,3.26,3.42,7.65,3.75,10.58l-3.28.74,12.62,2.31-2.79-1.58c2.32-2.45,5.2-6.14,6.87-9.04l9.11,4.67c-2.49,2.62-5.01,5.1-7.17,7.05l6.73,1.23-1.5,8.22-14.76-2.7-.86,4.72,17.09,3.12-1.53,8.35-14.88-2.72Z"/><path class="cls-1" d="m138.68,102.84c1.44,4.54,5.27,7.05,11.37,8.43,8.34,1.93,24.69,4.71,34.68,5.67-1.35,1.89-3.45,5.72-4.38,8.23-8.82-1.14-23.34-3.66-31.81-5.61-7.45-1.7-12.05-4.34-14.95-10.02-2.71,2.05-5.54,3.94-9.1,6.23l-2.69-9.79c2.47-1.09,5.33-2.44,8.01-3.95l2.35-12.88-6.02-1.1,1.58-8.67,14.76,2.7-3.8,20.77Zm-2.28-29.98c-.79-3.35-3.55-8.74-6.04-12.67l8.29-3.3c2.6,3.69,5.69,8.73,6.73,12.2l-8.98,3.78Zm4.8,20.94c1.07,0,2.27.01,3.55-.02l5.78-31.65,4.13,1.89c3.07-1.04,6.28-2.53,8.55-3.99l4.53,7.38.53-2.91,22,4.02-5.98,32.75c-.66,3.62-1.64,5.65-4.15,6.6-2.44.89-5.24.51-8.93-.16.08-1.92-.25-4.86-.78-7.1l-2.26,12.36-8.48-1.55,7.84-42.91c-3.21,1.09-6.64,1.93-9.76,2.56l-4.09,22.39c2.36-.1,4.8-.26,7.22-.35l-.42,8.15c-6.17.48-12.94.91-18.42,1.25l-.88-8.72Zm34.14-19.91l-4.68,25.63c1.61.36,3.35.68,3.93.79.71.13,1.02-.08,1.15-.79l4.52-24.72-4.92-.9Z"/><path class="cls-1" d="m61.32,130.53c-1.06.68-2.04,1.3-3.07,1.78-1.43-2.07-4.64-5.73-6.58-7.56,6.05-2.37,12.2-7.13,15.98-12.4l8.76,4.41c-.88,1.18-1.75,2.29-2.76,3.38l37.86,6.92-1.5,8.22-5.76-1.05-1.23,6.73,8.09,1.48-1.53,8.35-8.09-1.48-1.22,6.67,7.12,1.3-1.53,8.35-56.82-10.38,1.53-8.35,7.51,1.37,1.22-6.67-8.61-1.57,1.53-8.35,8.61,1.57.5-2.72Zm-16.55,37.5c3.22-2.22,6.93-6.83,9.22-11.29l8.79,3.88c-2.28,4.8-5.92,9.69-9.54,12.7l-8.46-5.29Zm24.34-33.27l3.17.58,1.23-6.73-3.17-.58-1.23,6.73Zm-2.74,15.01l3.17.58,1.22-6.67-3.17-.58-1.22,6.67Zm7.92,12.28c.11,4.17-.07,9.55-.6,12.8l-9.5-.33c.59-3.24,1.13-8.75,1.18-13.03l8.93.56Zm9-24.71l1.23-6.73-3.24-.59-1.23,6.73,3.24.59Zm-4.76,7.76l-1.22,6.67,3.24.59,1.22-6.67-3.24-.59Zm8.61,19.1c.84,4.17,1.46,9.56,1.38,12.96l-9.78.09c.27-3.29-.12-8.85-.74-13.18l9.14.13Zm8.51-31.55l-3.37-.62-1.23,6.73,3.37.62,1.23-6.73Zm-2.76,15.08l-3.37-.62-1.22,6.67,3.37.62,1.22-6.67Zm7.42,17.21c2.05,4.52,4.6,10.67,5.55,14.66l-10.29,1.4c-.64-3.8-2.89-10.16-4.83-14.93l9.57-1.13Z"/><path class="cls-1" d="m166.04,176.02l-3.15,17.21-8.8-1.61,2.85-15.6-17.51-.06.18-8.33-6.56,5.89c-.5-2.03-1.41-4.74-2.38-7.46l-3.74,20.45-8.67-1.58,3.82-20.9c-2.89,5.22-6.13,10.12-9.27,13.42-.24-3.05-1.47-7.69-2.34-10.59,3.64-3.08,7.6-8.64,10.43-13.54l-6.41-1.17,1.6-8.74,9.45,1.73,3.86-21.1,8.67,1.58-3.31,18.12c1.95-4.06,4.4-10.16,5.81-14.59l7.53,3.05c-2.68,5.13-5.69,11-7.96,14.66l-5.48-2.61-.45,2.46,9,1.64-1.6,8.74-9-1.64-.05.26c1.65,1.97,5.94,8.84,7.26,11.16l18.78.09,6.73-36.82,8.8,1.61-6.45,35.27h6.28s-.24,9-.24,9h-7.69Zm-47.66-32.72c.7-4.22.79-10.89.25-16l6.78-.5c.73,5.15.75,11.64.24,15.89l-7.27.61Zm29.77,3.23c3.32,2.68,7.66,6.75,9.55,9.57l-6.1,6.64c-1.69-2.85-5.82-7.28-9.09-10.29l5.63-5.93Zm8.55.43c-1.48-2.88-5.36-7.27-8.48-10.31l5.69-5.51c3.17,2.79,7.24,6.87,8.93,9.66l-6.14,6.17Z"/></svg>