<?xml version="1.0" encoding="UTF-8"?><svg xmlns="http://www.w3.org/2000/svg" xmlns:xlink="http://www.w3.org/1999/xlink" viewBox="0 0 490 72"><defs><style>.cls-1{fill:none;}.cls-1,.cls-2,.cls-3{stroke-width:0px;}.cls-2{fill:#f9cea3;}.cls-4{clip-path:url(#clippath);}.cls-3,.cls-5{fill:#63594b;}.cls-5{stroke:#63594b;stroke-miterlimit:10;}</style><clipPath id="clippath"><rect class="cls-1" width="490" height="72"/></clipPath></defs><g id="Layer_1"><g class="cls-4"><path class="cls-2" d="M414.9-.1H78c-10.8,0-21.1,4.9-27.9,13.4L-39.1,125h571.1L442.7,13.3C436,4.9,425.7-.1,414.9-.1Z"/><path class="cls-3" d="M404.6,20.9c.4.1.7.4,1,.7,4.6,4.6,9.2,9.2,13.8,13.8.9.9.9,1.9,0,2.8-4.6,4.6-9.2,9.2-13.9,13.9-.7.7-1.6.8-2.3.4-.3-.2-.5-.4-.7-.6-.3-.2-.5-.5-.8-.8-.6-.7-.6-1.6-.1-2.3.1-.1.2-.3.4-.4,3.8-3.8,7.5-7.5,11.3-11.3.2-.2.2-.5,0-.7-3.8-3.8-7.5-7.5-11.3-11.3-.5-.5-.7-1-.7-1.6,0-.4.2-.7.5-1,.4-.4.7-.8,1.1-1.1.2-.2.5-.3.8-.5h.9Z"/></g></g><g id="Layer_2"><path class="cls-5" d="M91.74,28.93l3.42.58c-.34,1.58-.78,3.24-1.31,4.99-.53,1.75-1.16,3.42-1.89,5.01-.73,1.59-1.56,2.98-2.5,4.18-.23-.17-.53-.36-.88-.56-.35-.2-.71-.39-1.07-.58-.36-.18-.68-.34-.96-.46.92-1.11,1.72-2.42,2.4-3.92.68-1.5,1.26-3.07,1.73-4.69s.82-3.14,1.06-4.54ZM100.13,21.51h3.3v25.28c0,1.02-.13,1.78-.4,2.27-.27.49-.73.86-1.39,1.12-.64.24-1.49.39-2.56.46-1.07.07-2.36.11-3.87.11-.06-.3-.17-.63-.3-1.01-.14-.37-.29-.75-.45-1.14-.16-.38-.33-.73-.5-1.02.77.04,1.51.07,2.22.08.71.01,1.34.01,1.89,0s.93-.02,1.17-.02c.32-.02.55-.09.69-.21s.21-.34.21-.66v-25.28ZM107.84,29.77l2.94-1.09c.92,1.49,1.8,3.1,2.64,4.82.84,1.72,1.59,3.4,2.24,5.04.65,1.64,1.1,3.12,1.36,4.42l-3.3,1.31c-.23-1.28-.65-2.75-1.23-4.42-.59-1.66-1.29-3.38-2.1-5.14-.81-1.76-1.66-3.41-2.56-4.94Z"/><path class="cls-5" d="M119.52,39.17h28.45v2.78h-28.45v-2.78ZM120.03,26.28h27.46v7.46h-2.98v-4.77h-21.6v4.77h-2.88v-7.46ZM122.21,22.57l2.56-1.15c.6.64,1.18,1.37,1.76,2.18.58.81.99,1.53,1.25,2.14l-2.69,1.31c-.26-.62-.66-1.34-1.22-2.18-.56-.83-1.11-1.6-1.66-2.3ZM125.02,31.91h15.39v2.66h-15.39v-2.66ZM132.13,36.93h3.1v10.43c0,.83-.12,1.47-.37,1.92-.25.45-.71.79-1.39,1.02-.66.21-1.48.35-2.46.4-.98.05-2.19.08-3.62.08-.09-.43-.25-.92-.5-1.49-.25-.57-.5-1.05-.75-1.46.75.02,1.48.04,2.19.06s1.34.03,1.87.02c.53,0,.91-.02,1.12-.02.32-.02.53-.07.64-.16.11-.08.16-.25.16-.48v-10.34ZM130.37,21.89l2.66-.99c.51.73,1.02,1.54,1.52,2.45.5.91.85,1.69,1.04,2.35l-2.82,1.12c-.17-.68-.49-1.49-.94-2.42-.46-.93-.94-1.77-1.46-2.51ZM139.46,31.91h.74l.67-.16,1.92,1.47c-.73.77-1.56,1.53-2.5,2.27-.94.75-1.93,1.44-2.96,2.08-1.04.64-2.06,1.21-3.09,1.7-.19-.28-.45-.59-.78-.94-.33-.35-.62-.63-.88-.85.87-.41,1.75-.9,2.64-1.47s1.7-1.17,2.45-1.78c.75-.61,1.34-1.19,1.79-1.74v-.58ZM142.59,21.25l3.23,1.02c-.7,1.02-1.45,2.04-2.24,3.04-.79,1-1.52,1.86-2.18,2.56l-2.43-.96c.43-.51.86-1.1,1.31-1.76.45-.66.88-1.33,1.3-2.02.42-.68.75-1.31,1.01-1.89Z"/><path class="cls-5" d="M156.86,21.51l3.14.7c-.47,1.64-1.03,3.26-1.68,4.85s-1.36,3.06-2.13,4.42c-.77,1.35-1.57,2.54-2.4,3.57-.21-.17-.49-.37-.82-.59-.33-.22-.67-.45-1.01-.67-.34-.22-.65-.4-.93-.53.87-.94,1.67-2.03,2.4-3.28.73-1.25,1.38-2.6,1.97-4.05.59-1.45,1.07-2.92,1.46-4.42ZM151.36,46.82h28.74v2.94h-28.74v-2.94ZM154.94,36.49h22.4v2.91h-22.4v-2.91ZM156.32,27.11h22.21v2.94h-22.21v-2.94ZM164.16,21.06h3.14v27.23h-3.14v-27.23Z"/><path class="cls-5" d="M184.93,43.33c.47.02,1.03.05,1.7.1.66.04,1.33.06,2.02.06h17.22v3.33h-17.09c-.64,0-1.32.01-2.05.03-.73.02-1.32.05-1.79.1v-3.62ZM185.31,25.8c.58.04,1.21.09,1.89.13.68.04,1.29.06,1.82.06h15.9c.43,0,.89,0,1.39-.02.5-.01.89-.03,1.17-.05-.02.36-.04.79-.05,1.3-.01.5-.02.97-.02,1.39v16.54c0,.55.02,1.17.05,1.84.03.67.06,1.19.08,1.55h-3.65c0-.36.01-.82.03-1.36.02-.54.03-1.1.03-1.68v-16.29h-14.94c-.62,0-1.29.01-2.02.03-.73.02-1.29.05-1.7.1v-3.55Z"/><path class="cls-5" d="M214.94,33.8c.36.02.81.05,1.33.08.52.03,1.09.06,1.7.08.61.02,1.19.03,1.74.03h17.41c.77,0,1.46-.03,2.08-.08.62-.05,1.12-.09,1.5-.11v3.97c-.36-.02-.88-.05-1.54-.1-.66-.04-1.34-.06-2.05-.06h-17.41c-.88,0-1.75.02-2.62.05-.88.03-1.59.07-2.14.11v-3.97Z"/><path class="cls-5" d="M266.46,26.53c-.13.15-.29.4-.48.74-.19.34-.34.65-.45.93-.45,1.02-1,2.17-1.65,3.42-.65,1.26-1.39,2.51-2.21,3.76s-1.68,2.38-2.58,3.41c-1.17,1.34-2.47,2.66-3.89,3.94-1.42,1.28-2.92,2.46-4.5,3.54-1.58,1.08-3.21,2.01-4.9,2.8l-2.59-2.72c1.73-.68,3.4-1.52,5.01-2.53,1.61-1,3.11-2.1,4.5-3.3,1.39-1.2,2.6-2.38,3.65-3.55.73-.81,1.43-1.71,2.11-2.7.68-.99,1.29-1.99,1.82-2.99.53-1,.92-1.92,1.15-2.75h-11.74c-.41,0-.85.02-1.33.05-.48.03-.92.06-1.31.1-.39.03-.68.05-.85.05v-3.62c.21.02.53.05.96.08s.87.06,1.34.1c.47.03.86.05,1.18.05h11.87c.6,0,1.14-.03,1.63-.1.49-.06.87-.14,1.15-.22l2.08,1.54ZM259.52,36.68c.85.7,1.75,1.49,2.69,2.37.94.88,1.86,1.78,2.75,2.7.9.93,1.73,1.82,2.51,2.67.78.85,1.43,1.61,1.97,2.27l-2.82,2.5c-.79-1.07-1.7-2.19-2.72-3.36-1.02-1.17-2.11-2.35-3.26-3.54-1.15-1.18-2.3-2.29-3.46-3.31l2.34-2.3Z"/></g></svg>