<?xml version="1.0" encoding="utf-8"?>
<!-- Generator: Adobe Illustrator 28.0.0, SVG Export Plug-In . SVG Version: 6.00 Build 0)  -->
<svg version="1.1" id="Layer_1" xmlns="http://www.w3.org/2000/svg" xmlns:xlink="http://www.w3.org/1999/xlink" x="0px" y="0px"
	 viewBox="0 0 428.7 72" style="enable-background:new 0 0 428.7 72;" xml:space="preserve">
<style type="text/css">
	.st0{clip-path:url(#SVGID_00000136410703924883628240000007772961718019369625_);}
	.st1{fill:#F9CEA3;}
	.st2{clip-path:url(#SVGID_00000150799517446085453050000012860692320854011547_);}
	.st3{fill:#F6B674;}
	.st4{enable-background:new    ;}
	.st5{fill:#63594B;}
</style>
<g>
	<defs>
		<rect id="SVGID_1_" x="-510" width="490" height="72"/>
	</defs>
	<clipPath id="SVGID_00000084498929457117294390000002310314069883755649_">
		<use xlink:href="#SVGID_1_"  style="overflow:visible;"/>
	</clipPath>
	<g style="clip-path:url(#SVGID_00000084498929457117294390000002310314069883755649_);">
		<path class="st1" d="M-95.2-0.1H-432c-10.8,0-21.1,4.9-27.9,13.4L-549.1,125H22L-67.3,13.3C-74.1,4.9-84.3-0.1-95.2-0.1z"/>
	</g>
</g>
<g>
	<defs>
		<rect id="SVGID_00000018930164360128349040000003923582855818327735_" width="428.7" height="72"/>
	</defs>
	<clipPath id="SVGID_00000144301936741066678830000002580938161419390098_">
		<use xlink:href="#SVGID_00000018930164360128349040000003923582855818327735_"  style="overflow:visible;"/>
	</clipPath>
	<g style="clip-path:url(#SVGID_00000144301936741066678830000002580938161419390098_);">
		<path class="st3" d="M407.6,0H74.8C63.9,0,53.7,4.9,46.9,13.4L-42.4,125h471.1V21.1C428.8,9.5,419.3,0,407.6,0L407.6,0z"/>
		<g class="st4">
			<path class="st5" d="M84.1,44.3h29.3v3.9H84.1V44.3z M95.6,20.2h4.1v26.3h-4.1V20.2z M97.8,29.4h13.3v3.9H97.8V29.4z"/>
		</g>
		<g class="st4">
			<path class="st5" d="M116.9,38.6l3.2,0.6c-0.2,1.5-0.4,3.1-0.8,4.5s-0.7,2.8-1.2,3.8c-0.2-0.1-0.5-0.3-0.9-0.5
				c-0.4-0.2-0.7-0.4-1.1-0.5c-0.4-0.2-0.7-0.3-1-0.4c0.5-1,0.8-2.1,1.1-3.4C116.6,41.3,116.8,39.9,116.9,38.6z M115.5,33.9
				c1.5,0,3.2-0.1,5.3-0.2c2.1-0.1,4.1-0.2,6.3-0.3l0,3c-2,0.1-4,0.3-5.9,0.4s-3.7,0.2-5.3,0.4L115.5,33.9z M115.5,27.4l1.9-2.6
				c0.6,0.5,1.1,1,1.7,1.6c0.6,0.6,1.1,1.2,1.6,1.8c0.5,0.6,0.9,1.1,1.1,1.6l-2,3c-0.3-0.5-0.6-1.1-1.1-1.7s-1-1.2-1.6-1.9
				C116.7,28.4,116.1,27.9,115.5,27.4z M124.1,23.6l3.1,1.4c-0.8,1.2-1.6,2.5-2.5,3.8c-0.9,1.3-1.8,2.6-2.8,3.8
				c-0.9,1.2-1.8,2.3-2.6,3.2l-2.2-1.2c0.6-0.7,1.2-1.5,1.9-2.4c0.6-0.9,1.3-1.9,1.9-2.8c0.6-1,1.2-2,1.8-3
				C123.3,25.4,123.7,24.4,124.1,23.6z M120.5,19.8l3.3,1.2c-0.4,0.8-0.9,1.7-1.3,2.5c-0.5,0.9-0.9,1.7-1.4,2.5
				c-0.4,0.8-0.9,1.5-1.3,2l-2.6-1.1c0.4-0.7,0.8-1.4,1.2-2.2s0.8-1.7,1.2-2.6C119.9,21.3,120.2,20.5,120.5,19.8z M120.5,35.5h3.4
				v14.3h-3.4V35.5z M123.6,31.2l2.5-1.1c0.4,0.7,0.8,1.5,1.2,2.3c0.4,0.8,0.7,1.6,1,2.4c0.3,0.8,0.5,1.5,0.6,2.1l-2.7,1.2
				c-0.1-0.6-0.3-1.3-0.5-2.1c-0.3-0.8-0.6-1.6-1-2.5C124.4,32.7,124,31.9,123.6,31.2z M124,39.1l2.7-0.9c0.4,0.8,0.8,1.8,1.1,2.8
				c0.3,1,0.6,1.9,0.8,2.6l-2.8,1c-0.1-0.8-0.4-1.7-0.7-2.7C124.7,41,124.4,40,124,39.1z M130.1,24h3.3v6c0,1.4-0.1,3-0.2,4.7
				c-0.1,1.7-0.4,3.4-0.8,5.2c-0.4,1.8-1,3.5-1.7,5.2s-1.8,3.2-3.1,4.6c-0.2-0.2-0.5-0.4-0.8-0.7c-0.3-0.3-0.7-0.5-1-0.8
				c-0.4-0.2-0.7-0.4-1-0.6c1.2-1.3,2.1-2.7,2.8-4.2c0.7-1.5,1.2-3.1,1.5-4.7c0.3-1.6,0.6-3.1,0.7-4.7c0.1-1.5,0.2-2.9,0.2-4.1V24z
				 M127.4,21.6h11.8v3.5h-11.8V21.6z M133.4,26.4c0.4,2.4,0.9,4.7,1.5,6.9c0.6,2.1,1.4,4.1,2.4,5.9c1,1.8,2.2,3.3,3.7,4.6
				c1.5,1.3,3.2,2.3,5.2,3c-0.3,0.2-0.5,0.5-0.8,0.9c-0.3,0.4-0.6,0.7-0.8,1.1c-0.3,0.4-0.5,0.8-0.7,1.1c-2.1-0.9-3.9-2.1-5.4-3.5
				s-2.7-3.2-3.7-5.1c-1-2-1.8-4.1-2.5-6.6c-0.6-2.4-1.2-5-1.6-7.8L133.4,26.4z M141.9,29.6h0.7l0.6-0.1l2.3,0.8
				c-0.6,3.3-1.5,6.2-2.6,8.7c-1.2,2.5-2.6,4.7-4.2,6.4c-1.6,1.8-3.4,3.2-5.4,4.3c-0.2-0.3-0.4-0.6-0.7-1c-0.3-0.4-0.6-0.7-1-1.1
				c-0.3-0.3-0.6-0.6-0.9-0.8c1.9-0.9,3.6-2.2,5.1-3.7s2.8-3.4,3.8-5.5c1-2.1,1.8-4.6,2.3-7.3V29.6z M137.7,21.6h0.4l0.6-0.1
				l2.6,0.3c-0.2,1.3-0.4,2.6-0.6,4c-0.2,1.4-0.5,2.9-0.8,4.3c-0.3,1.5-0.6,2.8-0.8,4.1l-3.4-0.4c0.2-1,0.4-2,0.6-3.1
				c0.2-1.1,0.4-2.2,0.6-3.3s0.4-2.1,0.5-3.1c0.2-0.9,0.3-1.8,0.4-2.5V21.6z M138.2,29.6h4.9v3.5h-6L138.2,29.6z"/>
		</g>
		<g class="st4">
			<path class="st5" d="M149.7,41.6c0.6,0,1.2,0.1,1.9,0.1c0.7,0,1.4,0.1,2.1,0.1h17.3V46h-17.2c-0.6,0-1.3,0-2.1,0.1
				c-0.8,0-1.5,0.1-2,0.1V41.6z M150.1,24.2c0.6,0.1,1.3,0.1,2,0.1c0.7,0,1.4,0,1.9,0h16.1c0.5,0,1,0,1.6,0c0.6,0,1,0,1.3,0
				c0,0.4,0,0.8-0.1,1.4c0,0.6,0,1.1,0,1.6v16.6c0,0.6,0,1.2,0,2c0,0.7,0.1,1.4,0.1,1.8h-4.6c0-0.5,0-1,0-1.6c0-0.6,0-1.1,0-1.7
				V28.5H154c-0.7,0-1.4,0-2.2,0c-0.8,0-1.4,0.1-1.8,0.1V24.2z"/>
		</g>
		<g class="st4">
			<path class="st5" d="M180,32.1c0.4,0,0.9,0,1.5,0.1c0.6,0,1.2,0.1,1.9,0.1c0.7,0,1.3,0,1.8,0c0.5,0,1.2,0,2,0c0.8,0,1.6,0,2.6,0
				c0.9,0,1.9,0,2.9,0c1,0,2,0,3,0c1,0,1.9,0,2.8,0c0.9,0,1.7,0,2.4,0s1.2,0,1.6,0c0.7,0,1.5,0,2.1-0.1c0.7-0.1,1.2-0.1,1.6-0.1v5
				c-0.4,0-0.9-0.1-1.6-0.1c-0.7,0-1.4-0.1-2.1-0.1c-0.4,0-1,0-1.7,0c-0.7,0-1.5,0-2.4,0c-0.9,0-1.8,0-2.8,0c-1,0-2,0-3,0
				c-1,0-2,0-2.9,0c-0.9,0-1.8,0-2.6,0c-0.8,0-1.4,0-2,0c-0.9,0-1.9,0-2.8,0c-1,0-1.7,0.1-2.3,0.1V32.1z"/>
		</g>
		<g class="st4">
			<path class="st5" d="M231.4,25.2c-0.1,0.2-0.3,0.5-0.6,0.9c-0.2,0.4-0.4,0.8-0.6,1.1c-0.4,1-1,2.1-1.6,3.4
				c-0.7,1.2-1.4,2.5-2.2,3.7s-1.7,2.4-2.6,3.5c-1.2,1.3-2.5,2.7-4,4c-1.4,1.3-3,2.5-4.5,3.6c-1.6,1.1-3.2,2-4.9,2.8l-3.3-3.5
				c1.7-0.7,3.4-1.5,5-2.5c1.6-1,3.1-2.1,4.5-3.3c1.4-1.2,2.6-2.3,3.6-3.4c0.7-0.8,1.4-1.7,2-2.6c0.6-0.9,1.2-1.8,1.7-2.7
				c0.5-0.9,0.9-1.7,1.1-2.5c-0.2,0-0.6,0-1.2,0c-0.6,0-1.2,0-1.9,0c-0.7,0-1.5,0-2.3,0c-0.8,0-1.6,0-2.3,0s-1.4,0-1.9,0
				c-0.6,0-0.9,0-1.2,0c-0.4,0-0.9,0-1.4,0s-1,0.1-1.4,0.1c-0.4,0-0.8,0.1-1,0.1v-4.5c0.3,0,0.7,0.1,1.2,0.1c0.5,0,0.9,0.1,1.4,0.1
				s0.9,0,1.2,0c0.3,0,0.7,0,1.3,0c0.6,0,1.3,0,2,0c0.8,0,1.6,0,2.4,0s1.6,0,2.4,0c0.8,0,1.4,0,2,0s1,0,1.2,0c0.7,0,1.3,0,1.9-0.1
				c0.6-0.1,1-0.2,1.4-0.3L231.4,25.2z M224.2,35.2c0.8,0.7,1.7,1.4,2.7,2.3c0.9,0.9,1.9,1.8,2.8,2.7c0.9,0.9,1.8,1.8,2.5,2.7
				c0.8,0.9,1.4,1.6,2,2.3l-3.6,3.2c-0.8-1.1-1.7-2.2-2.7-3.4c-1-1.2-2.1-2.3-3.2-3.5c-1.1-1.2-2.3-2.3-3.4-3.3L224.2,35.2z"/>
		</g>
		<path class="st5" d="M391.4,21c0.4,0.1,0.7,0.4,1,0.7c4.6,4.6,9.2,9.2,13.8,13.8c0.9,0.9,0.9,1.9,0,2.8
			c-4.6,4.6-9.2,9.2-13.9,13.9c-0.7,0.7-1.6,0.8-2.3,0.4c-0.3-0.2-0.5-0.4-0.7-0.6c-0.3-0.2-0.5-0.5-0.8-0.8
			c-0.6-0.7-0.6-1.6-0.1-2.3c0.1-0.1,0.2-0.3,0.4-0.4c3.8-3.8,7.5-7.5,11.3-11.3c0.2-0.2,0.2-0.5,0-0.7c-3.8-3.8-7.5-7.5-11.3-11.3
			c-0.5-0.5-0.7-1-0.7-1.6c0-0.4,0.2-0.7,0.5-1c0.4-0.4,0.7-0.8,1.1-1.1c0.2-0.2,0.5-0.3,0.8-0.5L391.4,21L391.4,21z"/>
	</g>
</g>
</svg>
