<?xml version="1.0" encoding="utf-8"?>
<!-- Generator: Adobe Illustrator 28.0.0, SVG Export Plug-In . SVG Version: 6.00 Build 0)  -->
<svg version="1.1" id="Layer_1" xmlns="http://www.w3.org/2000/svg" xmlns:xlink="http://www.w3.org/1999/xlink" x="0px" y="0px"
	 viewBox="0 0 428 72" style="enable-background:new 0 0 428 72;" xml:space="preserve">
<style type="text/css">
	.st0{clip-path:url(#SVGID_00000059281834570912975040000010059654410358237837_);}
	.st1{fill:#F9CEA3;}
	.st2{clip-path:url(#SVGID_00000092448543772050780020000016543355546578600608_);fill:#FCE7D2;}
	.st3{clip-path:url(#SVGID_00000092448543772050780020000016543355546578600608_);}
	.st4{fill:#FCE7D2;}
	.st5{enable-background:new    ;}
	.st6{fill:#63594B;}
	.st7{clip-path:url(#SVGID_00000092448543772050780020000016543355546578600608_);fill:#63594B;}
</style>
<g>
	<defs>
		<rect id="SVGID_1_" x="448" y="-1" width="490" height="72"/>
	</defs>
	<clipPath id="SVGID_00000034077305663035481360000016042351322118964380_">
		<use xlink:href="#SVGID_1_"  style="overflow:visible;"/>
	</clipPath>
	<g style="clip-path:url(#SVGID_00000034077305663035481360000016042351322118964380_);">
		<path class="st1" d="M862.8-1H526c-10.8,0-21.1,4.9-27.9,13.4L408.9,124H980L890.7,12.3C884,3.9,873.7-1.1,862.8-1L862.8-1z"/>
	</g>
</g>
<g>
	<defs>
		<rect id="SVGID_00000119832739485625865920000014495157061336436659_" width="428" height="72"/>
	</defs>
	<clipPath id="SVGID_00000007429783734255080490000004344629694270747539_">
		<use xlink:href="#SVGID_00000119832739485625865920000014495157061336436659_"  style="overflow:visible;"/>
	</clipPath>
	<path style="clip-path:url(#SVGID_00000007429783734255080490000004344629694270747539_);fill:#FCE7D2;" d="M21.5,71.6h1179.4
		c11.7,0,21.1,9.5,21.1,21.1v2232c0,11.7-9.5,21.1-21.1,21.1H21.5c-11.7,0-21.1-9.5-21.1-21.1V92.7C0.4,81,9.8,71.6,21.5,71.6z"/>
	<g style="clip-path:url(#SVGID_00000007429783734255080490000004344629694270747539_);">
		<path class="st4" d="M354.4-0.1H21.5C9.8-0.1,0.4,9.4,0.4,21.1V125h471.1L382.2,13.3C375.5,4.9,365.2-0.1,354.4-0.1z"/>
		<g>
			<g class="st5">
				<path class="st6" d="M26,43.3c1.1-0.2,2.4-0.4,3.8-0.7c1.4-0.2,2.9-0.5,4.4-0.8c1.5-0.3,3.1-0.6,4.6-0.9l0.4,3.6
					c-2.1,0.4-4.3,0.9-6.5,1.3s-4.2,0.9-6,1.2L26,43.3z M26.1,29.9l2.1-3.3c0.8,0.7,1.7,1.5,2.7,2.4c0.9,0.9,1.8,1.7,2.6,2.6
					c0.8,0.8,1.4,1.6,1.8,2.4l-2.3,3.8c-0.4-0.8-1.1-1.6-1.8-2.5c-0.8-0.9-1.6-1.8-2.5-2.8C27.8,31.5,27,30.7,26.1,29.9z M37.1,26.7
					l3.9,1.2c-0.7,1.5-1.5,3-2.3,4.5c-0.8,1.5-1.7,3-2.6,4.5c-0.9,1.5-1.7,2.9-2.6,4.2c-0.9,1.3-1.7,2.5-2.5,3.6l-3.3-1.3
					c0.8-1.1,1.7-2.3,2.5-3.7c0.9-1.4,1.7-2.8,2.6-4.3s1.6-3,2.4-4.5C35.8,29.5,36.5,28,37.1,26.7z M32.9,19.8l4,1.4
					c-0.5,1.2-1.1,2.3-1.7,3.6c-0.6,1.2-1.2,2.4-1.8,3.5s-1.2,2.1-1.8,2.9l-3.2-1.3c0.6-0.9,1.1-1.9,1.7-3.1s1.1-2.3,1.6-3.6
					C32.2,22,32.6,20.8,32.9,19.8z M35.7,37.4l3.2-1.5c0.5,0.9,1,1.9,1.4,3c0.4,1,0.8,2,1.1,3c0.3,1,0.5,1.9,0.6,2.7l-3.5,1.7
					c-0.1-0.8-0.3-1.7-0.6-2.7c-0.3-1-0.6-2.1-1-3.1C36.6,39.4,36.2,38.4,35.7,37.4z M44.6,19.9h3.9v9.9c0,1.7-0.1,3.5-0.3,5.2
					c-0.2,1.8-0.6,3.5-1.2,5.2s-1.4,3.4-2.5,5c-1.1,1.6-2.5,3.1-4.3,4.5c-0.4-0.4-0.8-0.9-1.4-1.4c-0.6-0.5-1.1-0.9-1.6-1.2
					c1.7-1.3,3-2.7,4-4.1c1-1.4,1.7-2.9,2.2-4.4c0.5-1.5,0.8-3,1-4.5s0.2-2.9,0.2-4.4V19.9z M40.2,26.1h13.5v3.7H40.2V26.1z
					 M52.3,26.1h3.8c0,0.4,0,0.8,0,1.1s0,0.5,0,0.7c-0.1,3.3-0.2,6.2-0.3,8.6c-0.1,2.4-0.2,4.3-0.4,5.8s-0.3,2.7-0.5,3.6
					c-0.2,0.9-0.4,1.5-0.7,1.9c-0.4,0.6-0.8,1-1.2,1.2c-0.4,0.2-0.9,0.4-1.5,0.5c-0.5,0.1-1.2,0.2-1.9,0.2c-0.8,0-1.6,0-2.4,0
					c0-0.5-0.1-1.2-0.4-1.9c-0.2-0.7-0.5-1.3-0.8-1.9c0.7,0.1,1.4,0.1,2,0.1s1.1,0,1.4,0c0.3,0,0.5,0,0.7-0.1
					c0.2-0.1,0.3-0.2,0.5-0.5c0.2-0.2,0.4-0.7,0.5-1.5c0.2-0.8,0.3-1.9,0.4-3.3c0.1-1.4,0.2-3.3,0.3-5.5c0.1-2.2,0.2-4.9,0.2-8.1
					V26.1z"/>
			</g>
		</g>
		<g>
			<g class="st5">
				<path class="st6" d="M67,38.4h4.1c-0.1,1.4-0.4,2.7-0.7,3.9c-0.3,1.2-0.9,2.3-1.6,3.2c-0.7,1-1.8,1.8-3.1,2.5
					c-1.3,0.7-3,1.4-5.2,1.9c-0.1-0.3-0.3-0.7-0.5-1.2c-0.2-0.4-0.5-0.8-0.8-1.2c-0.3-0.4-0.6-0.7-0.8-1c1.8-0.4,3.3-0.8,4.4-1.3
					c1.1-0.5,1.9-1.1,2.5-1.8c0.6-0.7,1-1.4,1.2-2.3S66.9,39.4,67,38.4z M61.8,20.6h3.7v17.5h-3.7V20.6z M69.3,21h16.2v16.5H69.3V21
					z M73,24.3v3.4h8.6v-3.4H73z M73,30.8v3.5h8.6v-3.5H73z M75.4,38.4h3.9v6.5c0,0.5,0.1,0.8,0.2,1s0.5,0.2,1,0.2
					c0.1,0,0.3,0,0.6,0s0.5,0,0.8,0c0.3,0,0.6,0,0.9,0c0.3,0,0.5,0,0.7,0c0.3,0,0.6-0.1,0.8-0.3c0.2-0.2,0.3-0.6,0.4-1.2
					c0.1-0.6,0.1-1.5,0.2-2.8c0.3,0.2,0.6,0.4,1,0.6c0.4,0.2,0.9,0.4,1.3,0.5c0.5,0.2,0.9,0.3,1.2,0.4c-0.1,1.7-0.4,3-0.7,3.9
					c-0.3,0.9-0.8,1.6-1.4,1.9c-0.6,0.4-1.4,0.5-2.4,0.5c-0.2,0-0.4,0-0.8,0c-0.4,0-0.7,0-1.2,0c-0.4,0-0.8,0-1.1,0s-0.6,0-0.8,0
					c-1.2,0-2.2-0.1-2.8-0.4c-0.7-0.3-1.1-0.8-1.4-1.5s-0.4-1.6-0.4-2.8V38.4z"/>
			</g>
		</g>
		<g>
			<g class="st5">
				<path class="st6" d="M93.3,41.5c0.6,0,1.2,0.1,1.9,0.1c0.7,0,1.4,0.1,2.1,0.1h17.3v4.2H97.4c-0.6,0-1.3,0-2.1,0.1
					c-0.8,0-1.5,0.1-2,0.1V41.5z M93.7,24.2c0.6,0.1,1.3,0.1,2,0.1c0.7,0,1.4,0,1.9,0h16.1c0.5,0,1,0,1.6,0c0.6,0,1,0,1.3,0
					c0,0.4,0,0.8-0.1,1.4c0,0.6,0,1.1,0,1.6v16.6c0,0.6,0,1.2,0,2c0,0.7,0.1,1.4,0.1,1.8h-4.6c0-0.5,0-1,0-1.6c0-0.6,0-1.1,0-1.7
					V28.5H97.6c-0.7,0-1.4,0-2.2,0c-0.8,0-1.4,0.1-1.8,0.1V24.2z"/>
			</g>
		</g>
		<g>
			<g class="st5">
				<path class="st6" d="M123.3,32.1c0.4,0,0.9,0,1.5,0.1c0.6,0,1.2,0.1,1.9,0.1c0.7,0,1.3,0,1.8,0c0.5,0,1.2,0,2,0
					c0.8,0,1.6,0,2.6,0c0.9,0,1.9,0,2.9,0c1,0,2,0,3,0c1,0,1.9,0,2.8,0c0.9,0,1.7,0,2.4,0s1.2,0,1.6,0c0.7,0,1.5,0,2.1-0.1
					c0.7-0.1,1.2-0.1,1.6-0.1v5c-0.4,0-0.9-0.1-1.6-0.1c-0.7,0-1.4-0.1-2.1-0.1c-0.4,0-1,0-1.7,0c-0.7,0-1.5,0-2.4,0
					c-0.9,0-1.8,0-2.8,0c-1,0-2,0-3,0c-1,0-2,0-2.9,0c-0.9,0-1.8,0-2.6,0c-0.8,0-1.4,0-2,0c-0.9,0-1.9,0-2.8,0c-1,0-1.7,0.1-2.3,0.1
					V32.1z"/>
			</g>
		</g>
		<g>
			<g class="st5">
				<path class="st6" d="M175.5,25.2c-0.1,0.2-0.3,0.5-0.6,0.9c-0.2,0.4-0.4,0.8-0.6,1.1c-0.4,1-1,2.1-1.6,3.4
					c-0.7,1.2-1.4,2.5-2.2,3.7s-1.7,2.4-2.6,3.5c-1.2,1.3-2.5,2.7-4,4c-1.4,1.3-3,2.5-4.5,3.6c-1.6,1.1-3.2,2-4.9,2.8l-3.3-3.5
					c1.7-0.7,3.4-1.5,5-2.5c1.6-1,3.1-2.1,4.5-3.3c1.4-1.2,2.6-2.3,3.6-3.4c0.7-0.8,1.4-1.7,2-2.6s1.2-1.8,1.7-2.7
					c0.5-0.9,0.9-1.7,1.1-2.5c-0.2,0-0.6,0-1.2,0c-0.6,0-1.2,0-1.9,0s-1.5,0-2.3,0c-0.8,0-1.6,0-2.3,0c-0.7,0-1.4,0-1.9,0
					s-0.9,0-1.2,0c-0.4,0-0.9,0-1.4,0s-1,0.1-1.4,0.1c-0.4,0-0.8,0.1-1,0.1v-4.5c0.3,0,0.7,0.1,1.2,0.1c0.5,0,0.9,0.1,1.4,0.1
					s0.9,0,1.2,0c0.3,0,0.7,0,1.3,0c0.6,0,1.3,0,2,0s1.6,0,2.4,0s1.6,0,2.4,0c0.8,0,1.4,0,2,0s1,0,1.2,0c0.7,0,1.3,0,1.9-0.1
					c0.6-0.1,1-0.2,1.4-0.3L175.5,25.2z M168.3,35.1c0.8,0.7,1.7,1.4,2.7,2.3c0.9,0.9,1.9,1.8,2.8,2.7c0.9,0.9,1.8,1.8,2.5,2.7
					c0.8,0.9,1.4,1.6,2,2.3l-3.6,3.2c-0.8-1.1-1.7-2.2-2.7-3.4c-1-1.2-2.1-2.3-3.2-3.5c-1.1-1.2-2.3-2.3-3.4-3.3L168.3,35.1z"/>
			</g>
		</g>
	</g>
	<path style="clip-path:url(#SVGID_00000007429783734255080490000004344629694270747539_);fill:#63594B;" d="M344.1,20.9
		c0.4,0.1,0.7,0.4,1,0.7c4.6,4.6,9.2,9.2,13.8,13.8c0.9,0.9,0.9,1.9,0,2.8c-4.6,4.6-9.2,9.2-13.9,13.9c-0.7,0.7-1.6,0.8-2.3,0.4
		c-0.3-0.2-0.5-0.4-0.7-0.6c-0.3-0.2-0.5-0.5-0.8-0.8c-0.6-0.7-0.6-1.6-0.1-2.3c0.1-0.1,0.2-0.3,0.4-0.4c3.8-3.8,7.5-7.5,11.3-11.3
		c0.2-0.2,0.2-0.5,0-0.7c-3.8-3.8-7.5-7.5-11.3-11.3c-0.5-0.5-0.7-1-0.7-1.6c0-0.4,0.2-0.7,0.5-1c0.4-0.4,0.7-0.8,1.1-1.1
		c0.2-0.2,0.5-0.3,0.8-0.5L344.1,20.9L344.1,20.9z"/>
</g>
</svg>
