<?xml version="1.0" encoding="UTF-8"?><svg id="Layer_5" xmlns="http://www.w3.org/2000/svg" viewBox="0 0 65.86 65.86"><defs><style>.cls-1{fill:#fff;}.cls-1,.cls-2{stroke-width:0px;}.cls-2{fill:#016775;}</style></defs><circle class="cls-2" cx="32.93" cy="32.93" r="32.93"/><path class="cls-1" d="m36.88,22.78c0,1.88.01,3.77,0,5.65,0,.46.12.58.58.58,3.67-.02,7.34-.01,11.01,0,1.21,0,1.5.3,1.5,1.51,0,1.64,0,3.28,0,4.93,0,1.12-.32,1.43-1.45,1.43-3.65,0-7.3.01-10.94-.01-.55,0-.72.13-.71.7.03,3.63.01,7.26.01,10.88,0,1.21-.3,1.52-1.49,1.52-1.68,0-3.36,0-5.05,0-.95,0-1.32-.37-1.32-1.33,0-3.67-.02-7.34.01-11.01,0-.59-.11-.79-.75-.79-3.63.04-7.26.02-10.88.02-1.16,0-1.47-.31-1.47-1.48,0-1.58,0-3.16,0-4.74,0-1.38.26-1.64,1.61-1.64,3.61,0,7.22-.01,10.82.01.52,0,.69-.11.68-.67-.03-3.65-.01-7.3-.01-10.94,0-1.2.3-1.49,1.52-1.49,1.68,0,3.36,0,5.05,0,.92,0,1.3.36,1.3,1.28.01,1.86,0,3.73,0,5.59Z"/></svg>