<?xml version="1.0" encoding="UTF-8"?><svg xmlns="http://www.w3.org/2000/svg" xmlns:xlink="http://www.w3.org/1999/xlink" viewBox="0 0 1920 840"><defs><style>.cls-1{fill:#79bfc6;}.cls-1,.cls-2,.cls-3,.cls-4,.cls-5,.cls-6,.cls-7,.cls-8,.cls-9,.cls-10,.cls-11,.cls-12,.cls-13,.cls-14,.cls-15,.cls-16,.cls-17,.cls-18,.cls-19,.cls-20,.cls-21{stroke-width:0px;}.cls-2{fill:#ed8a66;}.cls-22{isolation:isolate;}.cls-3,.cls-7,.cls-8,.cls-12,.cls-18,.cls-20{fill:#91f7ff;}.cls-4{fill:#ffc0b0;}.cls-5{fill:none;}.cls-6{fill:#faeaaa;}.cls-7{opacity:.76;}.cls-8{opacity:.51;}.cls-9{fill:#78e3eb;}.cls-10{fill:#e1fffb;}.cls-11{fill:#f5ffff;}.cls-12{opacity:.25;}.cls-23{clip-path:url(#clippath);}.cls-13{fill:#ffc05a;}.cls-14{fill:#00a2ff;}.cls-24{mix-blend-mode:overlay;}.cls-15{fill:#fff;}.cls-16{opacity:.34;}.cls-16,.cls-19{mix-blend-mode:multiply;}.cls-16,.cls-21{fill:#fff3a3;}.cls-17{fill:#1c7a8e;}.cls-18{opacity:.47;}.cls-19{fill:#ffebc1;opacity:.6;}.cls-20{opacity:.9;}</style><clipPath id="clippath"><rect class="cls-5" x="-1" y="0" width="1921" height="840"/></clipPath></defs><g class="cls-22"><g id="Layer_1"><g class="cls-23"><rect class="cls-14" x="-113.36" y="-625.12" width="2245.45" height="1407.04" transform="translate(2018.73 156.81) rotate(-180)"/><path class="cls-11" d="M2260.36,533.68s0,0,0,0c-22.86-.88-45.8.06-68.68-.32,55.78-48.68-14.45-113.96-70.63-83.86,9.21-26.31-3.84-56.18-33.62-58.11,15.3-13.05,21.76-40.85,6.28-56.1,24.22-9.32,30.64-45.04,6.08-57.74,51.86-29.97,8.31-104.15-42.2-76.85-3.44-19.03-23.29-31.13-41.7-27.9,4.99-31.27-24.18-52.67-52.44-38.5-32.19-55.88-125.01-18.39-98.31,44.41-31.78,16.69-34.61,53.16-4.77,73.6-19.32,14.63-25.91,45.76-7.86,64.25-6.15-1.21-12.84-1.64-19.15-.73-42.05,6.07-59.26,42.08-51.17,73.7-37.66-13.03-84.39,44.91-44.64,71.66-3.31,2.91-5.85,6.43-7.63,10.34-17.52-14.96-56.93-13.79-64.69,11.03-23.37-18.35-84.73-4.94-79.94,46.33.24,2.61-6.52,5.67-4.01,6.81,226.58-3.76,453.08,9.36,679.74,7.34,5.93-.02,5.46-10.2-.65-9.34Z"/><path class="cls-10" d="M2167.38,515.76s0,0,0,0c-15.83-.61-31.71.04-47.55-.22,38.63-33.71-10.01-78.9-48.9-58.07,6.38-18.21-2.66-38.9-23.28-40.24,10.59-9.04,15.07-28.29,4.35-38.84,16.77-6.46,21.22-31.18,4.21-39.98,35.91-20.75,5.76-72.11-29.22-53.21-2.38-13.18-16.13-21.56-28.87-19.32,3.45-21.65-16.74-36.47-36.31-26.65-22.29-38.69-86.56-12.73-68.07,30.75-22,11.56-23.97,36.81-3.3,50.96-13.38,10.13-17.94,31.68-5.44,44.49-4.26-.84-8.89-1.14-13.26-.51-29.12,4.2-41.03,29.14-35.43,51.03-26.07-9.02-58.43,31.09-30.91,49.62-2.29,2.01-4.05,4.45-5.28,7.16-12.13-10.36-39.42-9.55-44.79,7.63-16.18-12.7-64.97-3.3-61.65,32.2.17,1.81,1.79,3.81,3.52,4.6,156.89-2.6,313.72,6.48,470.66,5.08,4.1-.02,3.78-7.06-.45-6.47Z"/><path class="cls-11" d="M-186.76,497.95c23.63,2.6,48,3.73,71.45,5.38,53.62,3.59,107.32,5.87,160.86,10.64,90.91,3.21,181.6,6.55,272.16,15.92,21.12,2.12,43.1,1.89,63.74,4.54,2.16-.79,4.3-3.06,4.67-5.23,7.22-42.52-50.78-58.28-71.45-44.42-4.93-21.22-37.77-24.66-53.34-13.27-1.24-3.37-3.15-6.47-5.73-9.11,12.15-7.42,19.18-22.84,12.18-36.14-8.18-15.81-26.07-31.87-44.97-26.51,4.86-14.86,1.62-31.88-5.18-45.61-5.75-10.55-21.16-21.27-32.94-19.15-5.26-.92-10.83-1.22-16.04-.59,16.23-14.31,12.68-40.73-2.54-54.15,26.21-15.2,26.12-45.83.63-61.77,13.93-22.64-1.26-54.8-26.17-61.49-18.62-5.27-42.49,1.44-53.16,18.23-7.73-5.25-18.01-5.36-26.84-3.6-13.45,3.78-20.25,19.44-19.37,32.47-15.17-3.85-32.51,5.01-36.58,20.69-4.23-3.82-9.84-5.49-15.42-5.9-40.25-3.5-57.31,43.82-24.64,67.44-21.32,9.07-18.19,39.3,1.45,48.61-13.89,11.76-10.23,35.38,1.72,47.25-25-.25-37.76,23.88-31.72,46.43-11.6-5.98-25.25-9.5-38.33-7.92-36.65,4.87-55.1,46.95-25.92,73.54-19.13-1.12-38.23-3.35-57.38-4.04,0,0,0,0,0,0-.34,0-.67-.02-1.01-.02-4.43-.02-4.48,7.6-.12,7.78Z"/><path class="cls-10" d="M-141.77,499.27c18.72,2.06,38.02,2.95,56.6,4.26,42.48,2.84,85.01,4.65,127.42,8.43,72.01,2.55,143.85,5.19,215.58,12.61,16.73,1.68,34.14,1.5,50.49,3.6,1.71-.63,3.4-2.43,3.7-4.14,5.72-33.68-40.23-46.16-56.6-35.18-3.9-16.81-29.92-19.53-42.25-10.51-.98-2.67-2.49-5.13-4.54-7.22,9.63-5.88,15.19-18.1,9.64-28.63-6.48-12.53-20.65-25.25-35.62-21,3.85-11.77,1.29-25.25-4.1-36.13-4.56-8.36-16.76-16.85-26.09-15.17-4.17-.73-8.58-.96-12.71-.47,12.86-11.34,10.05-32.26-2.01-42.9,20.76-12.04,20.69-36.3.5-48.93,11.03-17.94-1-43.41-20.73-48.71-14.75-4.18-33.66,1.14-42.11,14.44-6.12-4.16-14.26-4.25-21.26-2.85-10.65,2.99-16.04,15.4-15.35,25.72-12.02-3.05-25.76,3.97-28.97,16.39-3.35-3.03-7.8-4.35-12.21-4.67-31.88-2.78-45.4,34.71-19.52,53.42-16.88,7.19-14.41,31.13,1.15,38.5-11,9.32-8.11,28.03,1.37,37.42-19.8-.2-29.91,18.92-25.13,36.78-9.19-4.74-20-7.52-30.36-6.27-29.03,3.86-43.64,37.19-20.53,58.25-15.16-.89-30.28-2.65-45.45-3.2,0,0,0,0,0,0-.27,0-.53-.01-.8-.01-3.51-.01-3.55,6.02-.1,6.16Z"/><path class="cls-1" d="M1818.42,423.36s-37.47-8.7-51.12-16.92c-19.61-11.81-43.03-15.81-43.03-15.81l-37.63,14.8s-14.42,13.13-38.12,11.31c-5.03-.39-35.67-2.94-35.67-2.94,0,0-29.3,16.59-65.09,19.12-35.79,2.53-21.37-.06-39.59,7.95-4.72,2.08-41.11,16.06-42.66,16.07-21.82.12-31.38,3.92-48.05.79l-26.97,1.42-67.89,15.77,494.35-1.55,1.47-50.01Z"/><path class="cls-17" d="M2023.88,466.01s-128.45-41.81-142.09-50.03c-19.61-11.81-43.03-15.81-43.03-15.81l-37.63,14.8s-14.42,13.13-38.12,11.31c-5.03-.39-35.67-2.94-35.67-2.94,0,0-29.3,16.59-65.09,19.12-35.79,2.53-21.37-.06-39.59,7.95-4.72,2.08-41.11,16.06-42.66,16.07-21.82.12-31.38,3.92-48.05.79l-26.97,1.42-67.89,15.77,585.89-1.55.91-16.9Z"/><polygon class="cls-17" points="428.84 475.31 321.55 446.94 282.45 444.23 224.02 424.21 180.07 418.32 150.37 424.45 123.43 431.4 74.89 427.04 -.58 430.34 0 473.24 428.84 475.31"/><path class="cls-17" d="M78.03,259.23c-16.31-3.13-32.37-6.38-44.6,7.41-2.02,2.28-3.27,4.9-4.81,7.42-.79,1.3-3.75,6.26-2.47,7.69,1.51,1.68,7.31-1.19,9.12-1.62,7.24-1.7,14.93-2.02,22.24-.46,2.97.63,5.82,1.18,8.52,2.33-1.41.18-2.82.42-4.19.71-6.01,1.29-11.48,4.34-15.27,9.12-4.18,5.27-6.3,11.02-6.89,17.6-.58,6.44-1.77,13.43,1.37,19.35,9.26-8.04,17.99-16.88,28.89-23.01,3.71-2.08,9.32-6.32,13.92-5.79,6.03.7,6.42,11.9,7.02,16.21.85,6.14,3.15,12.15,3.76,18.3,1.83,18.31,5.37,49.44,5.02,64.99-.09,3.92-3.58,46-6.78,45.15,2.87.76,5.74,1.52,8.61,2.28,5.04-20.39,7.24-41.4,6.56-62.33-.33-10.23-3.18-47.38-5.34-55.68-.89-3.4-.73-7.01-1.18-10.48-.55-4.18-1.94-8.41-2.74-12.54-.65-3.33-2.86-6.98,1.26-9.38,2.12-1.23,4.76-1.26,7.24-1.12,15.17.88,29.94,7.06,40.82,17.08,3.02-6.98,1.57-15.32-2.99-21.52-2.91-3.96-6.97-7.07-11.52-9.22-2.41-1.14-10.8-4.44-13.47-2.49,2.33-1.7,4.69-3.55,7.36-4.67,3.97-1.67,8.86-3.32,13.21-3.58,5.04-.31,10.11-.26,15.15.15-.26-4.97-2.53-9.57-7.14-12-12.71-6.7-28.81-7.97-42.58-3.6-1.63-8.26,4.61-15.8,9.55-22.79.32-.45.64-.92.7-1.46.13-1.23-1.13-2.16-2.31-2.71-8.17-3.81-18.54-.95-25.02,5.07-.6.56-1.18,1.15-1.73,1.75-5.68,6.26-9.54,15.56-9.29,23.83Z"/><path class="cls-17" d="M214.89,348.32c-7.9-2.27-15.67-4.58-22.32,1.67-1.1,1.03-1.83,2.27-2.7,3.44-.45.61-2.13,2.92-1.56,3.68.67.9,3.65-.26,4.57-.39,3.65-.51,7.45-.33,10.99.76,1.44.44,2.81.84,4.1,1.53-.71.03-1.41.08-2.1.17-3.02.37-5.85,1.63-7.94,3.82-2.29,2.41-3.6,5.15-4.18,8.37-.57,3.15-1.47,6.54-.19,9.6,4.92-3.55,9.62-7.52,15.27-10.06,1.92-.86,4.88-2.7,7.12-2.23,2.94.62,2.64,6.15,2.74,8.3.14,3.06,1.01,6.13,1.04,9.19.09,9.11.44,24.61-.42,32.26-.22,1.93-3.81,22.52-5.35,21.96,1.38.5,2.76,1,4.14,1.51,3.39-9.83,5.41-20.09,6.01-30.44.29-5.06.54-23.5-.16-27.69-.29-1.72-.05-3.49-.12-5.22-.08-2.08-.58-4.23-.79-6.31-.17-1.67-1.1-3.57,1.04-4.57,1.1-.51,2.4-.41,3.62-.23,7.44,1.11,14.45,4.81,19.36,10.24,1.8-3.3,1.45-7.48-.52-10.74-1.26-2.08-3.12-3.8-5.27-5.06-1.14-.67-5.12-2.67-6.53-1.83,1.22-.73,2.47-1.54,3.84-1.98,2.03-.65,4.52-1.24,6.67-1.18,2.5.07,5,.32,7.46.75.09-2.46-.82-4.83-2.99-6.23-5.97-3.87-13.85-5.21-20.83-3.67-.43-4.15,2.98-7.58,5.72-10.81.18-.21.36-.43.41-.69.12-.6-.46-1.12-1.02-1.44-3.86-2.24-9.1-1.29-12.56,1.39-.32.25-.63.51-.93.79-3.08,2.83-5.4,7.24-5.64,11.33Z"/><path class="cls-17" d="M324.42,396.75c-4.48-4.12-8.86-8.22-15.32-6.28-1.07.32-1.96.9-2.93,1.38-.5.25-2.37,1.23-2.25,1.92.15.81,2.51,1.03,3.15,1.25,2.58.87,5.04,2.25,7.02,4.14.8.77,1.58,1.49,2.21,2.37-.48-.22-.96-.41-1.44-.58-2.12-.76-4.41-.86-6.51-.1-2.32.84-4.08,2.22-5.54,4.15-1.42,1.89-3.14,3.84-3.3,6.29,4.43-.72,8.86-1.8,13.43-1.6,1.56.07,4.12-.17,5.45.88,1.74,1.38-.29,4.94-.94,6.4-.92,2.07-1.36,4.39-2.35,6.43-2.96,6.06-7.85,16.44-10.95,21.21-.78,1.2-9.97,13.64-10.81,12.76.75.79,1.5,1.58,2.24,2.37,5.5-5.38,10.23-11.5,14.05-18.15,1.87-3.25,8.13-15.37,9.06-18.37.38-1.23,1.12-2.32,1.65-3.49.63-1.41,1.01-2.99,1.56-4.44.44-1.16.45-2.73,2.2-2.68.9.02,1.73.52,2.47,1.05,4.56,3.2,7.97,7.97,9.43,13.18,2.28-1.59,3.44-4.47,3.21-7.28-.14-1.79-.81-3.55-1.81-5.09-.53-.82-2.51-3.46-3.72-3.37,1.05-.08,2.15-.2,3.19-.04,1.56.24,3.4.67,4.8,1.43,1.63.88,3.2,1.87,4.69,2.96.87-1.6,1.05-3.47.09-5.11-2.67-4.53-7.44-8.03-12.57-9.32,1.09-2.89,4.48-4.03,7.36-5.26.19-.08.38-.16.5-.32.28-.36.06-.89-.2-1.29-1.81-2.76-5.59-3.87-8.77-3.24-.3.06-.59.13-.88.21-2.97.86-5.97,3.01-7.48,5.64Z"/><polygon class="cls-9" points="-41.02 901.28 2008.83 615.34 2008.83 472.28 -41.02 472.28 -41.02 901.28"/><path class="cls-15" d="M934.08,516.2c0,1.86,1.51,3.37,3.37,3.37s3.37-1.51,3.37-3.37-1.51-3.37-3.37-3.37-3.37,1.51-3.37,3.37Z"/><path class="cls-15" d="M901.49,516.2c0,1.86,1.51,3.37,3.37,3.37s3.37-1.51,3.37-3.37-1.51-3.37-3.37-3.37-3.37,1.51-3.37,3.37Z"/><circle class="cls-15" cx="890.01" cy="516.2" r="3.37"/><path class="cls-15" d="M871.78,516.2c0,1.86,1.51,3.37,3.37,3.37s3.37-1.51,3.37-3.37-1.51-3.37-3.37-3.37-3.37,1.51-3.37,3.37Z"/><path class="cls-15" d="M1389.64,497.47c0,1.86,1.51,3.37,3.37,3.37,1.86,0,3.37-1.51,3.37-3.37s-1.51-3.37-3.37-3.37-3.37,1.51-3.37,3.37Z"/><path class="cls-15" d="M1357.05,497.47c0,1.86,1.51,3.37,3.37,3.37s3.37-1.51,3.37-3.37-1.51-3.37-3.37-3.37-3.37,1.51-3.37,3.37Z"/><path class="cls-15" d="M1342.2,497.47c0,1.86,1.51,3.37,3.37,3.37s3.37-1.51,3.37-3.37-1.51-3.37-3.37-3.37-3.37,1.51-3.37,3.37Z"/><path class="cls-15" d="M1327.34,497.47c0,1.86,1.51,3.37,3.37,3.37s3.37-1.51,3.37-3.37-1.51-3.37-3.37-3.37-3.37,1.51-3.37,3.37Z"/><path class="cls-15" d="M1274.84,525.31c0,1.86,1.51,3.37,3.37,3.37s3.37-1.51,3.37-3.37-1.51-3.37-3.37-3.37c-1.86,0-3.37,1.51-3.37,3.37Z"/><path class="cls-15" d="M1242.26,525.31c0,1.86,1.51,3.37,3.37,3.37s3.37-1.51,3.37-3.37-1.51-3.37-3.37-3.37-3.37,1.51-3.37,3.37Z"/><path class="cls-15" d="M1227.4,525.31c0,1.86,1.51,3.37,3.37,3.37s3.37-1.51,3.37-3.37-1.51-3.37-3.37-3.37-3.37,1.51-3.37,3.37Z"/><path class="cls-15" d="M1212.54,525.31c0,1.86,1.51,3.37,3.37,3.37s3.37-1.51,3.37-3.37-1.51-3.37-3.37-3.37-3.37,1.51-3.37,3.37Z"/><path class="cls-15" d="M797.73,516.26c0,1.86,1.51,3.37,3.37,3.37s3.37-1.51,3.37-3.37-1.51-3.37-3.37-3.37-3.37,1.51-3.37,3.37Z"/><path class="cls-15" d="M765.14,516.26c0,1.86,1.51,3.37,3.37,3.37,1.86,0,3.37-1.51,3.37-3.37s-1.51-3.37-3.37-3.37c-1.86,0-3.37,1.51-3.37,3.37Z"/><path class="cls-15" d="M750.28,516.26c0,1.86,1.51,3.37,3.37,3.37,1.86,0,3.37-1.51,3.37-3.37s-1.51-3.37-3.37-3.37c-1.86,0-3.37,1.51-3.37,3.37Z"/><path class="cls-15" d="M735.42,516.26c0,1.86,1.51,3.37,3.37,3.37s3.37-1.51,3.37-3.37-1.51-3.37-3.37-3.37-3.37,1.51-3.37,3.37Z"/><path class="cls-15" d="M629.29,543.97c0-1.86-1.51-3.37-3.37-3.37s-3.37,1.51-3.37,3.37,1.51,3.37,3.37,3.37,3.37-1.51,3.37-3.37Z"/><path class="cls-15" d="M661.87,543.97c0-1.86-1.51-3.37-3.37-3.37s-3.37,1.51-3.37,3.37,1.51,3.37,3.37,3.37,3.37-1.51,3.37-3.37Z"/><path class="cls-15" d="M676.73,543.97c0-1.86-1.51-3.37-3.37-3.37s-3.37,1.51-3.37,3.37,1.51,3.37,3.37,3.37,3.37-1.51,3.37-3.37Z"/><path class="cls-15" d="M691.59,543.97c0-1.86-1.51-3.37-3.37-3.37-1.86,0-3.37,1.51-3.37,3.37s1.51,3.37,3.37,3.37c1.86,0,3.37-1.51,3.37-3.37Z"/><path class="cls-15" d="M567.67,511.83c0,1.86,1.51,3.37,3.37,3.37s3.37-1.51,3.37-3.37-1.51-3.37-3.37-3.37-3.37,1.51-3.37,3.37Z"/><path class="cls-15" d="M535.09,511.83c0,1.86,1.51,3.37,3.37,3.37s3.37-1.51,3.37-3.37-1.51-3.37-3.37-3.37-3.37,1.51-3.37,3.37Z"/><path class="cls-15" d="M520.23,511.83c0,1.86,1.51,3.37,3.37,3.37s3.37-1.51,3.37-3.37-1.51-3.37-3.37-3.37-3.37,1.51-3.37,3.37Z"/><path class="cls-15" d="M459.92,539.69c0-1.86-1.51-3.37-3.37-3.37s-3.37,1.51-3.37,3.37,1.51,3.37,3.37,3.37,3.37-1.51,3.37-3.37Z"/><path class="cls-15" d="M492.51,539.69c0-1.86-1.51-3.37-3.37-3.37s-3.37,1.51-3.37,3.37,1.51,3.37,3.37,3.37,3.37-1.51,3.37-3.37Z"/><circle class="cls-15" cx="503.99" cy="539.69" r="3.37" transform="translate(-167.11 231.65) rotate(-22.3)"/><path class="cls-15" d="M822.93,497.47c0,1.86,1.51,3.37,3.37,3.37s3.37-1.51,3.37-3.37-1.51-3.37-3.37-3.37-3.37,1.51-3.37,3.37Z"/><path class="cls-15" d="M790.35,497.47c0,1.86,1.51,3.37,3.37,3.37s3.37-1.51,3.37-3.37-1.51-3.37-3.37-3.37-3.37,1.51-3.37,3.37Z"/><path class="cls-15" d="M775.49,497.47c0,1.86,1.51,3.37,3.37,3.37s3.37-1.51,3.37-3.37-1.51-3.37-3.37-3.37-3.37,1.51-3.37,3.37Z"/><path class="cls-15" d="M707.07,515.2c0,1.86,1.51,3.37,3.37,3.37s3.37-1.51,3.37-3.37-1.51-3.37-3.37-3.37-3.37,1.51-3.37,3.37Z"/><path class="cls-15" d="M947.04,490.73c0,1.86,1.51,3.37,3.37,3.37s3.37-1.51,3.37-3.37-1.51-3.37-3.37-3.37c-1.86,0-3.37,1.51-3.37,3.37Z"/><path class="cls-15" d="M1088.62,490.73c0,1.86,1.51,3.37,3.37,3.37,1.86,0,3.37-1.51,3.37-3.37s-1.51-3.37-3.37-3.37c-1.86,0-3.37,1.51-3.37,3.37Z"/><path class="cls-15" d="M678.35,490.73c0,1.86,1.51,3.37,3.37,3.37s3.37-1.51,3.37-3.37-1.51-3.37-3.37-3.37-3.37,1.51-3.37,3.37Z"/><path class="cls-15" d="M929.12,490.73c0,1.86,1.51,3.37,3.37,3.37s3.37-1.51,3.37-3.37-1.51-3.37-3.37-3.37-3.37,1.51-3.37,3.37Z"/><circle class="cls-15" cx="1166.15" cy="491.44" r="3.37"/><path class="cls-15" d="M1144.87,491.44c0,1.86,1.51,3.37,3.37,3.37s3.37-1.51,3.37-3.37-1.51-3.37-3.37-3.37-3.37,1.51-3.37,3.37Z"/><path class="cls-15" d="M600.51,490.73c0,1.86,1.51,3.37,3.37,3.37s3.37-1.51,3.37-3.37-1.51-3.37-3.37-3.37-3.37,1.51-3.37,3.37Z"/><path class="cls-15" d="M899.91,550.71c0,1.86,1.51,3.37,3.37,3.37s3.37-1.51,3.37-3.37-1.51-3.37-3.37-3.37-3.37,1.51-3.37,3.37Z"/><path class="cls-15" d="M1045.42,478.01c0,1.86,1.51,3.37,3.37,3.37s3.37-1.51,3.37-3.37-1.51-3.37-3.37-3.37-3.37,1.51-3.37,3.37Z"/><path class="cls-15" d="M1027.19,547.34c0,1.86,1.51,3.37,3.37,3.37s3.37-1.51,3.37-3.37-1.51-3.37-3.37-3.37-3.37,1.51-3.37,3.37Z"/><path class="cls-15" d="M760.63,497.47c0,1.86,1.51,3.37,3.37,3.37s3.37-1.51,3.37-3.37-1.51-3.37-3.37-3.37-3.37,1.51-3.37,3.37Z"/><path class="cls-15" d="M754.11,538.77c0-1.86-1.51-3.37-3.37-3.37s-3.37,1.51-3.37,3.37,1.51,3.37,3.37,3.37,3.37-1.51,3.37-3.37Z"/><path class="cls-15" d="M786.7,538.77c0-1.86-1.51-3.37-3.37-3.37s-3.37,1.51-3.37,3.37,1.51,3.37,3.37,3.37,3.37-1.51,3.37-3.37Z"/><path class="cls-15" d="M801.56,538.77c0-1.86-1.51-3.37-3.37-3.37s-3.37,1.51-3.37,3.37,1.51,3.37,3.37,3.37,3.37-1.51,3.37-3.37Z"/><path class="cls-15" d="M816.41,538.77c0-1.86-1.51-3.37-3.37-3.37s-3.37,1.51-3.37,3.37,1.51,3.37,3.37,3.37c1.86,0,3.37-1.51,3.37-3.37Z"/><path class="cls-15" d="M998.2,564.24c0-1.86-1.51-3.37-3.37-3.37s-3.37,1.51-3.37,3.37,1.51,3.37,3.37,3.37,3.37-1.51,3.37-3.37Z"/><path class="cls-15" d="M1200.63,540.59c0-1.86-1.51-3.37-3.37-3.37s-3.37,1.51-3.37,3.37,1.51,3.37,3.37,3.37,3.37-1.51,3.37-3.37Z"/><path class="cls-15" d="M461.78,494.1c0-1.86-1.51-3.37-3.37-3.37s-3.37,1.51-3.37,3.37,1.51,3.37,3.37,3.37,3.37-1.51,3.37-3.37Z"/><path class="cls-15" d="M874.1,570.98c0-1.86-1.51-3.37-3.37-3.37s-3.37,1.51-3.37,3.37,1.51,3.37,3.37,3.37,3.37-1.51,3.37-3.37Z"/><path class="cls-15" d="M732.51,570.98c0-1.86-1.51-3.37-3.37-3.37s-3.37,1.51-3.37,3.37,1.51,3.37,3.37,3.37,3.37-1.51,3.37-3.37Z"/><path class="cls-15" d="M1142.78,570.98c0-1.86-1.51-3.37-3.37-3.37s-3.37,1.51-3.37,3.37,1.51,3.37,3.37,3.37,3.37-1.51,3.37-3.37Z"/><circle class="cls-15" cx="888.64" cy="570.98" r="3.37"/><path class="cls-15" d="M676.27,570.27c0-1.86-1.51-3.37-3.37-3.37s-3.37,1.51-3.37,3.37,1.51,3.37,3.37,3.37,3.37-1.51,3.37-3.37Z"/><path class="cls-15" d="M1220.62,570.98c0-1.86-1.51-3.37-3.37-3.37s-3.37,1.51-3.37,3.37,1.51,3.37,3.37,3.37,3.37-1.51,3.37-3.37Z"/><path class="cls-15" d="M1007.45,504.25c0-1.86-1.51-3.37-3.37-3.37-1.86,0-3.37,1.51-3.37,3.37s1.51,3.37,3.37,3.37c1.86,0,3.37-1.51,3.37-3.37Z"/><path class="cls-15" d="M666.12,516.2c0-1.86-1.51-3.37-3.37-3.37s-3.37,1.51-3.37,3.37,1.51,3.37,3.37,3.37,3.37-1.51,3.37-3.37Z"/><path class="cls-15" d="M1110.75,548.88c0-1.86-1.51-3.37-3.37-3.37-1.86,0-3.37,1.51-3.37,3.37s1.51,3.37,3.37,3.37,3.37-1.51,3.37-3.37Z"/><path class="cls-15" d="M1125.6,548.88c0-1.86-1.51-3.37-3.37-3.37s-3.37,1.51-3.37,3.37,1.51,3.37,3.37,3.37,3.37-1.51,3.37-3.37Z"/><path class="cls-15" d="M1140.46,548.88c0-1.86-1.51-3.37-3.37-3.37s-3.37,1.51-3.37,3.37,1.51,3.37,3.37,3.37,3.37-1.51,3.37-3.37Z"/><g class="cls-24"><circle class="cls-18" cx="1843.76" cy="525.42" r="6.87" transform="translate(-71.4 437.66) rotate(-13.28)"/><circle class="cls-12" cx="1787.51" cy="543.67" r="6.87"/><circle class="cls-12" cx="294.59" cy="497.59" r="6.87"/><circle class="cls-12" cx="320.61" cy="512.01" r="4.97"/><path class="cls-18" d="M1886.98,495.37c0-2.53-2.05-4.58-4.58-4.58-2.53,0-4.58,2.05-4.58,4.58,0,2.53,2.05,4.58,4.58,4.58,2.53,0,4.58-2.05,4.58-4.58Z"/><circle class="cls-18" cx="1771.99" cy="506.03" r="5.08" transform="translate(161.18 1401.2) rotate(-45)"/><path class="cls-7" d="M1798.89,493c-.99-.99-2.6-.99-3.59,0-.99.99-.99,2.6,0,3.59.99.99,2.6.99,3.59,0,.99-.99.99-2.6,0-3.59Z"/><circle class="cls-20" cx="1400.47" cy="504.39" r="2.54"/><circle class="cls-20" cx="340.6" cy="555.77" r="2.54"/><path class="cls-20" d="M141.91,510.26c-.99-.99-2.6-.99-3.59,0s-.99,2.6,0,3.59c.99.99,2.6.99,3.59,0,.99-.99.99-2.6,0-3.59Z"/><circle class="cls-20" cx="1917.6" cy="588.75" r="2.54"/><path class="cls-7" d="M1391.68,492.72c-.99-.99-2.6-.99-3.59,0-.99.99-.99,2.6,0,3.59s2.6.99,3.59,0,.99-2.6,0-3.59Z"/><path class="cls-7" d="M1922.22,534.61c-1.37-1.37-3.58-1.37-4.94,0-1.37,1.37-1.37,3.58,0,4.94,1.37,1.37,3.58,1.37,4.94,0,1.37-1.37,1.37-3.58,0-4.94Z"/><path class="cls-7" d="M1903.87,490.08c-1.22,0-2.22.99-2.22,2.22,0,1.22.99,2.22,2.22,2.22s2.22-.99,2.22-2.22c0-1.22-.99-2.22-2.22-2.22Z"/><circle class="cls-18" cx="170.52" cy="527" r="6.87"/><circle class="cls-18" cx="768.29" cy="530.79" r="6.87" transform="translate(-57.08 94.02) rotate(-6.75)"/><circle class="cls-18" cx="1081.48" cy="500.31" r="4.72" transform="translate(372.26 1457.87) rotate(-78.3)"/><circle class="cls-18" cx="1312.14" cy="510.08" r="7.84"/><circle class="cls-18" cx="1334.68" cy="493.33" r="5.26"/><circle class="cls-18" cx="1239.26" cy="552.58" r="5.26"/><circle class="cls-18" cx="650.87" cy="501.17" r="6.87" transform="translate(-72.89 112.62) rotate(-9.37)"/><circle class="cls-18" cx="448.65" cy="519.2" r="6.87"/><circle class="cls-18" cx="413.59" cy="494.87" r="6.87"/><circle class="cls-18" cx="1630.17" cy="507.61" r="6.87" transform="translate(-48.9 817.21) rotate(-27.74)"/><circle class="cls-18" cx="1144.59" cy="494.08" r="6.87"/><path class="cls-18" d="M230.84,499.88c0-2.53-2.05-4.58-4.58-4.58-2.53,0-4.58,2.05-4.58,4.58s2.05,4.58,4.58,4.58,4.58-2.05,4.58-4.58Z"/><circle class="cls-18" cx="98.75" cy="507.61" r="5.08" transform="translate(-394.35 351.82) rotate(-61.46)"/><circle class="cls-18" cx="175.03" cy="501.24" r="5.08" transform="translate(-110.82 53.84) rotate(-13.33)"/><circle class="cls-7" cx="123.86" cy="496.37" r="2.54"/><circle class="cls-7" cx="269.55" cy="551.61" r="2.54"/><path class="cls-7" d="M390.05,495.64c-.99-.99-2.6-.99-3.59,0-.99.99-.99,2.6,0,3.59.99.99,2.6.99,3.59,0,.99-.99.99-2.6,0-3.59Z"/><circle class="cls-7" cx="243.22" cy="562.41" r="3.5"/><path class="cls-7" d="M467.97,540.45c-1.37-1.37-3.58-1.37-4.94,0-1.37,1.37-1.37,3.58,0,4.94,1.37,1.37,3.58,1.37,4.94,0s1.37-3.58,0-4.94Z"/><path class="cls-7" d="M679.64,491.71c-1.37-1.37-3.58-1.37-4.94,0s-1.37,3.58,0,4.94c1.37,1.37,3.58,1.37,4.94,0,1.37-1.37,1.37-3.58,0-4.94Z"/><path class="cls-7" d="M1028.14,499.34c-1.37-1.37-3.58-1.37-4.94,0-1.37,1.37-1.37,3.58,0,4.94,1.37,1.37,3.58,1.37,4.94,0,1.37-1.37,1.37-3.58,0-4.94Z"/><path class="cls-7" d="M247.73,494.59c-1.22,0-2.22.99-2.22,2.22s.99,2.22,2.22,2.22,2.22-.99,2.22-2.22-.99-2.22-2.22-2.22Z"/><path class="cls-7" d="M732.01,493.44c-1.22,0-2.22.99-2.22,2.22s.99,2.22,2.22,2.22,2.22-.99,2.22-2.22-.99-2.22-2.22-2.22Z"/><circle class="cls-18" cx="1675.67" cy="513.9" r="7.94" transform="translate(-60.68 275.05) rotate(-9.22)"/><path class="cls-18" d="M1444.7,507.46c0-2.02-1.63-3.65-3.65-3.65s-3.65,1.63-3.65,3.65,1.63,3.65,3.65,3.65,3.65-1.63,3.65-3.65Z"/><path class="cls-18" d="M1717.53,499.88c0-1.78-1.44-3.22-3.22-3.22s-3.22,1.44-3.22,3.22c0,1.78,1.44,3.22,3.22,3.22s3.22-1.44,3.22-3.22Z"/><path class="cls-18" d="M1648.84,557.84c0-1.78-1.44-3.22-3.22-3.22s-3.22,1.44-3.22,3.22c0,1.78,1.44,3.22,3.22,3.22s3.22-1.44,3.22-3.22Z"/><path class="cls-3" d="M1098,533.78c0,1.98,1.6,3.58,3.58,3.58s3.58-1.6,3.58-3.58-1.6-3.58-3.58-3.58-3.58,1.6-3.58,3.58Z"/><path class="cls-3" d="M1063.42,533.78c0,1.98,1.6,3.58,3.58,3.58s3.58-1.6,3.58-3.58-1.6-3.58-3.58-3.58-3.58,1.6-3.58,3.58Z"/><path class="cls-3" d="M1047.65,533.78c0,1.98,1.6,3.58,3.58,3.58s3.58-1.6,3.58-3.58-1.6-3.58-3.58-3.58-3.58,1.6-3.58,3.58Z"/><path class="cls-8" d="M1031.88,533.78c0,1.98,1.6,3.58,3.58,3.58,1.98,0,3.58-1.6,3.58-3.58s-1.6-3.58-3.58-3.58c-1.98,0-3.58,1.6-3.58,3.58Z"/><path class="cls-3" d="M1581.48,513.91c0,1.98,1.6,3.58,3.58,3.58s3.58-1.6,3.58-3.58c0-1.98-1.6-3.58-3.58-3.58s-3.58,1.6-3.58,3.58Z"/><path class="cls-3" d="M1546.9,513.91c0,1.98,1.6,3.58,3.58,3.58s3.58-1.6,3.58-3.58c0-1.98-1.6-3.58-3.58-3.58s-3.58,1.6-3.58,3.58Z"/><path class="cls-8" d="M1531.13,513.91c0,1.98,1.6,3.58,3.58,3.58s3.58-1.6,3.58-3.58c0-1.98-1.6-3.58-3.58-3.58s-3.58,1.6-3.58,3.58Z"/><path class="cls-3" d="M1515.36,513.91c0,1.98,1.6,3.58,3.58,3.58s3.58-1.6,3.58-3.58c0-1.98-1.6-3.58-3.58-3.58s-3.58,1.6-3.58,3.58Z"/><path class="cls-3" d="M1459.65,543.46c0,1.98,1.6,3.58,3.58,3.58s3.58-1.6,3.58-3.58-1.6-3.58-3.58-3.58-3.58,1.6-3.58,3.58Z"/><path class="cls-3" d="M1425.06,543.46c0,1.98,1.6,3.58,3.58,3.58s3.58-1.6,3.58-3.58-1.6-3.58-3.58-3.58-3.58,1.6-3.58,3.58Z"/><circle class="cls-8" cx="1412.87" cy="543.46" r="3.58"/><path class="cls-3" d="M1393.53,543.46c0,1.98,1.6,3.58,3.58,3.58s3.58-1.6,3.58-3.58-1.6-3.58-3.58-3.58-3.58,1.6-3.58,3.58Z"/><circle class="cls-8" cx="956.87" cy="533.85" r="3.58"/><circle class="cls-3" cx="922.28" cy="533.85" r="3.58"/><path class="cls-3" d="M902.94,533.85c0,1.98,1.6,3.58,3.58,3.58s3.58-1.6,3.58-3.58-1.6-3.58-3.58-3.58-3.58,1.6-3.58,3.58Z"/><circle class="cls-3" cx="890.75" cy="533.85" r="3.58"/><path class="cls-3" d="M774.53,563.26c0-1.98-1.6-3.58-3.58-3.58s-3.58,1.6-3.58,3.58,1.6,3.58,3.58,3.58,3.58-1.6,3.58-3.58Z"/><path class="cls-3" d="M809.11,563.26c0-1.98-1.6-3.58-3.58-3.58s-3.58,1.6-3.58,3.58,1.6,3.58,3.58,3.58,3.58-1.6,3.58-3.58Z"/><path class="cls-3" d="M824.88,563.26c0-1.98-1.6-3.58-3.58-3.58s-3.58,1.6-3.58,3.58,1.6,3.58,3.58,3.58,3.58-1.6,3.58-3.58Z"/><path class="cls-3" d="M840.65,563.26c0-1.98-1.6-3.58-3.58-3.58s-3.58,1.6-3.58,3.58,1.6,3.58,3.58,3.58,3.58-1.6,3.58-3.58Z"/><path class="cls-3" d="M709.14,529.15c0,1.98,1.6,3.58,3.58,3.58s3.58-1.6,3.58-3.58-1.6-3.58-3.58-3.58-3.58,1.6-3.58,3.58Z"/><path class="cls-3" d="M674.55,529.15c0,1.98,1.6,3.58,3.58,3.58s3.58-1.6,3.58-3.58-1.6-3.58-3.58-3.58-3.58,1.6-3.58,3.58Z"/><path class="cls-3" d="M658.78,529.15c0,1.98,1.6,3.58,3.58,3.58s3.58-1.6,3.58-3.58-1.6-3.58-3.58-3.58-3.58,1.6-3.58,3.58Z"/><path class="cls-3" d="M594.78,558.71c0-1.98-1.6-3.58-3.58-3.58s-3.58,1.6-3.58,3.58c0,1.98,1.6,3.58,3.58,3.58s3.58-1.6,3.58-3.58Z"/><path class="cls-3" d="M629.36,558.71c0-1.98-1.6-3.58-3.58-3.58s-3.58,1.6-3.58,3.58,1.6,3.58,3.58,3.58,3.58-1.6,3.58-3.58Z"/><path class="cls-3" d="M645.13,558.71c0-1.98-1.6-3.58-3.58-3.58s-3.58,1.6-3.58,3.58,1.6,3.58,3.58,3.58,3.58-1.6,3.58-3.58Z"/><path class="cls-3" d="M980.04,513.91c0,1.98,1.6,3.58,3.58,3.58s3.58-1.6,3.58-3.58-1.6-3.58-3.58-3.58-3.58,1.6-3.58,3.58Z"/><path class="cls-3" d="M945.46,513.91c0,1.98,1.6,3.58,3.58,3.58s3.58-1.6,3.58-3.58-1.6-3.58-3.58-3.58c-1.98,0-3.58,1.6-3.58,3.58Z"/><path class="cls-3" d="M929.69,513.91c0,1.98,1.6,3.58,3.58,3.58s3.58-1.6,3.58-3.58-1.6-3.58-3.58-3.58-3.58,1.6-3.58,3.58Z"/><circle class="cls-3" cx="860.66" cy="532.72" r="3.58"/><circle class="cls-8" cx="1115.33" cy="506.75" r="3.58" transform="translate(-66.33 183.58) rotate(-9.14)"/><circle class="cls-3" cx="1265.59" cy="506.75" r="3.58" transform="translate(-64.42 207.45) rotate(-9.14)"/><circle class="cls-3" cx="830.18" cy="506.75" r="3.58" transform="translate(-69.95 138.29) rotate(-9.14)"/><circle class="cls-3" cx="1096.32" cy="506.75" r="3.58" transform="translate(-66.57 180.56) rotate(-9.14)"/><path class="cls-3" d="M1340.72,507.51c0,1.98,1.6,3.58,3.58,3.58s3.58-1.6,3.58-3.58-1.6-3.58-3.58-3.58-3.58,1.6-3.58,3.58Z"/><path class="cls-3" d="M1321.71,507.51c0,1.98,1.6,3.58,3.58,3.58s3.58-1.6,3.58-3.58-1.6-3.58-3.58-3.58-3.58,1.6-3.58,3.58Z"/><circle class="cls-8" cx="747.56" cy="506.75" r="3.58" transform="translate(-71 125.17) rotate(-9.14)"/><circle class="cls-3" cx="1065.31" cy="570.42" r="3.58"/><circle class="cls-3" cx="1219.74" cy="493.26" r="3.58" transform="translate(-62.87 200.04) rotate(-9.14)"/><path class="cls-3" d="M1196.82,566.84c0,1.98,1.6,3.58,3.58,3.58s3.58-1.6,3.58-3.58-1.6-3.58-3.58-3.58-3.58,1.6-3.58,3.58Z"/><path class="cls-3" d="M913.92,513.91c0,1.98,1.6,3.58,3.58,3.58s3.58-1.6,3.58-3.58-1.6-3.58-3.58-3.58-3.58,1.6-3.58,3.58Z"/><circle class="cls-3" cx="903.42" cy="557.74" r="3.58"/><circle class="cls-3" cx="938.01" cy="557.74" r="3.58"/><path class="cls-8" d="M957.35,557.74c0-1.98-1.6-3.58-3.58-3.58s-3.58,1.6-3.58,3.58,1.6,3.58,3.58,3.58,3.58-1.6,3.58-3.58Z"/><circle class="cls-3" cx="969.54" cy="557.74" r="3.58"/><path class="cls-3" d="M1166.05,584.77c0-1.98-1.6-3.58-3.58-3.58s-3.58,1.6-3.58,3.58c0,1.98,1.6,3.58,3.58,3.58s3.58-1.6,3.58-3.58Z"/><path class="cls-3" d="M1380.89,559.67c0-1.98-1.6-3.58-3.58-3.58-1.98,0-3.58,1.6-3.58,3.58s1.6,3.58,3.58,3.58c1.98,0,3.58-1.6,3.58-3.58Z"/><circle class="cls-3" cx="593.18" cy="510.33" r="3.58" transform="translate(-28.48 985.56) rotate(-78.1)"/><circle class="cls-3" cx="1030.76" cy="591.93" r="3.58"/><circle class="cls-3" cx="880.5" cy="591.93" r="3.58"/><path class="cls-3" d="M1319.49,591.93c0-1.98-1.6-3.58-3.58-3.58s-3.58,1.6-3.58,3.58,1.6,3.58,3.58,3.58,3.58-1.6,3.58-3.58Z"/><circle class="cls-3" cx="1049.78" cy="591.93" r="3.58"/><path class="cls-3" d="M792.04,591.17c0-1.98-1.6-3.58-3.58-3.58s-3.58,1.6-3.58,3.58,1.6,3.58,3.58,3.58,3.58-1.6,3.58-3.58Z"/><circle class="cls-3" cx="1398.53" cy="591.93" r="3.58"/><path class="cls-3" d="M1175.87,521.11c0-1.98-1.6-3.58-3.58-3.58s-3.58,1.6-3.58,3.58,1.6,3.58,3.58,3.58,3.58-1.6,3.58-3.58Z"/><circle class="cls-3" cx="810.04" cy="533.79" r="3.58"/><circle class="cls-3" cx="1281.92" cy="568.47" r="3.58" transform="translate(-119.82 528.43) rotate(-22.28)"/><path class="cls-3" d="M1301.26,568.47c0-1.98-1.6-3.58-3.58-3.58-1.98,0-3.58,1.6-3.58,3.58s1.6,3.58,3.58,3.58,3.58-1.6,3.58-3.58Z"/><circle class="cls-3" cx="1313.45" cy="568.47" r="3.58" transform="translate(-117.56 545.91) rotate(-22.5)"/></g><path class="cls-15" d="M-247.89,791.05c100.08,4.42,204.12,8.42,296.31-17.62,39.26-11.09,75.56-27.46,116.88-34.32,56.92-9.45,116.79.08,175.55,1.66,58.76,1.58,125.21-8.24,154.97-42.97,13.19-15.39,17.45-33.94,30.89-49.23,31.22-35.49,100.02-42.99,160.33-45.34,127.92-4.98,256.62-2.62,384.35,7.07,66.02,5.01,134.78,11.77,196.87-3.58,31.61-7.81,60.02-21.09,92.29-27.56,77.42-15.51,163.9,10.31,241.1-5.69,42.58-8.82,77.52-29.47,117.65-42.57,87.89-28.68,191.48-18.97,288.41-8.67l324.22,50.68c41.83,159.59,35.65,324.58-18.01,481.3-4.45,12.99-9.69,26.54-22.99,36.13-12.88,9.28-31.44,13.5-49.3,17.23-580.5,121.27-1205.98,69.43-1815.28,58.08-201.73-3.75-407.54-3.38-599.94-47.72-20.77-4.79-42.33-10.56-56.42-22.23-15.5-12.83-19.13-30.37-21.61-46.9-12.87-85.82-11.61-172.48,3.74-257.77Z"/><path class="cls-6" d="M-221.54,1054.06c2.48,16.53,6.11,34.07,21.61,46.89,14.1,11.67,35.65,17.44,56.42,22.23,192.4,44.34,398.22,43.97,599.94,47.72,609.31,11.34,1234.78,63.19,1815.28-58.08,17.86-3.74,36.43-7.95,49.3-17.23,13.3-9.58,18.54-23.13,22.99-36.12,53.67-156.72,59.84-321.71,18.01-481.3l-324.22-50.68c-43.64-4.64-88.64-9.15-132.94-10.1-54.09-1.16-107.16,3.01-155.47,18.77-40.13,13.1-75.07,33.74-117.65,42.57-77.2,16-163.68-9.82-241.1,5.69-32.27,6.47-60.68,19.74-92.29,27.56-62.09,15.35-130.85,8.59-196.86,3.58-127.73-9.69-256.43-12.05-384.35-7.07-60.32,2.34-129.11,9.84-160.33,45.33-13.45,15.29-17.7,33.83-30.89,49.23-29.77,34.73-96.21,44.55-154.97,42.97-58.76-1.58-118.63-11.11-175.55-1.66-13.73,2.28-26.9,5.61-39.81,9.44-25.96,7.72-50.85,17.47-77.07,24.88-92.2,26.05-196.23,22.04-296.31,17.63-15.35,85.28-16.61,171.95-3.75,257.77Z"/><path class="cls-16" d="M1664.31,670.96c36.1-2.26,72.63-1.63,107.92-13.75,37.24-12.79,71.14-39.12,105.59-62.37,38.09-25.7,78.02-48.18,119.87-57,81.49-17.18,162.15,18.58,244.14,15.71l-134.44,11.46c-84.78,8.41-92.2,37.54-175.56,63.08-89.79,27.5-178.36,68.66-269.69,77.1-72.67,6.71-146.39-7.36-217.47,16.85,71.55-29.22,145.6-46.44,219.64-51.08Z"/><path class="cls-15" d="M155.59,756.66c4.09,0,8.18.11,12.26.34,13.21.77,26.1,3.67,39.35,4.64,26.86,1.96,54.12.17,80.08-7.32,55.07-15.88,116.23,15.16,170.51-3.24,16.13-5.47,30.58-15.04,46.48-21.15,16.49-6.33,33.64-10.19,41.83-27.83,2.02-4.35,3.33-9.16,6.52-12.75,2.96-3.33,7.22-5.2,11.47-6.52,29.35-9.06,65.46,3.38,89.26-16.03,12.41-10.12,18.88-27.45,33.65-33.64,6.67-2.79,14.12-2.84,21.35-2.85,66.08-.05,132.57-.07,197.62,11.57,34.66,6.2,68.74,15.68,103.67,20.08,23.43,2.95,47.43,3.53,70.75-.7,21.86-3.97,42.29-12.96,64.22-16.77,63.78-11.07,131.35,29.45,192.08,7.04,28.41-10.49,50.53-33.43,77.99-46.21,95.99-44.66,225.47,44.43,308.98-20.65,12.53-9.76,23.12-22.66,37.87-28.55,25.57-10.23,54.91,3.62,81.88-1.93,23.33-4.8,41.05-23.1,60.82-36.39.21-.14.43-.28.64-.42-54.09-1.16-107.16,3.01-155.47,18.77-40.13,13.1-75.07,33.74-117.65,42.57-77.2,16-163.68-9.82-241.1,5.69-32.27,6.47-60.68,19.74-92.29,27.56-62.09,15.35-130.85,8.59-196.86,3.58-127.73-9.69-256.43-12.05-384.35-7.07-60.32,2.34-129.11,9.84-160.33,45.33-13.45,15.29-17.7,33.83-30.89,49.23-29.77,34.73-96.21,44.55-154.97,42.97-35.96-.97-71.78-4.88-107.75-5.65-18.07-.39-36.18.01-54.15,2.08-16.61,1.91-33.35.53-50.01,3.37-11.95,2.04-23.76,6.01-33.58,13.12,9.97-1.5,20.06-2.26,30.14-2.28Z"/><path class="cls-21" d="M1350.59,596.56c6.57-2.35,13.41-3.83,20.29-4.91,3.07-.48,5.78-.96,8.81-.39,3.25.6,6.75.25,9.89,1.34,1.57.54,3.23,1.43,3.73,3.02.59,1.89-.72,3.82-2.12,5.21-5.09,5.08-12.09,7.79-17.57,12.45-3.06,2.6-6.02,5.97-10.03,6.19-2,.11-3.94-.62-5.79-1.4-4.17-1.76-8.21-3.82-12.07-6.17-1.5-.91-3.03-1.93-3.86-3.48-1.32-2.47-.4-5.67,1.5-7.73,1.9-2.06,4.57-3.2,7.21-4.14Z"/><path class="cls-21" d="M1315.1,625c4.84-4.29,11.81-10.94,18.69-7.32,3.02,1.59,12.92,8.44,13.04,12.01.11,3.38-6.3,5.95-8.78,6.95-3.37,1.36-7.01,2.41-10.52,3.35-5.96,1.61-12.72,2.27-18.29-1.04-.84-.5-1.66-1.13-2.04-2.03-.68-1.59.21-3.41,1.22-4.81,1.84-2.54,4.2-4.93,6.68-7.12Z"/><path class="cls-21" d="M1296.56,609.96c1.16-1.27,2.71-2.28,4.28-2.96,3.2-1.37,6.76-1.88,9.82-3.56,2.49-1.37,9.96-4.81,11.62-.37.11.3.13.63.11.95-.64,8.51-10.18,10.48-17.27,12.09-2.82.64-6.84.34-9.63-.4-.27-.07-.56-.17-.73-.39-.15-.2-.17-.46-.17-.71-.01-1.77.77-3.36,1.97-4.67Z"/><path class="cls-21" d="M1287.86,628.04c-6.66-6.2,14.54-9.78,14.16-3.39-.16,2.69-4.62,6.86-7.1,6.98-2.57.13-5.26-1.91-7.06-3.59Z"/><path class="cls-21" d="M1241.68,634.01c-7.76-6.38,8.34-11.39,12.28-13.06,3.85-1.63,8.38-2.58,12.14-.74,2.68,1.31,4.52,3.81,6.63,5.92,2.91,2.9,6.27,5.58,9.48,8.13,2.24,1.78,7.13,5.51,3.5,8.23-2.94,2.2-7.79,1.68-11.21,1.6-7.88-.18-16.39-1.99-23.68-5.05-3.13-1.31-6.5-2.86-9.15-5.03Z"/><path class="cls-21" d="M1207.71,626.27c3.36-.58,6.78-.85,10.19-.79,1.63.03,3.3.14,4.79.81,1.7.77,2.99,2.2,4.33,3.5,2.39,2.33,5.07,4.37,7.97,6.04,2.22,1.28,4.66,2.44,6.08,4.58-.84,1.46-2.65,2-4.31,2.25-11.5,1.79-22.79-3.64-34.33-5.19-2.96-.4-6.02-.56-8.75-1.77-2.73-1.21-5.11-3.83-4.97-6.81.03-.53.15-1.09.56-1.43.29-.24.67-.33,1.03-.39,2.62-.48,4.82.07,7.39.33,3.38.34,6.73-.56,10.04-1.13Z"/><path class="cls-21" d="M1160.29,633.52c-2.36-.83-2.73-4.22-2.87-6.3-.18-2.65.37-3.45,2.97-4.26,3.24-1.01,8.9-2.13,12.21-.84,1.99.77,7.57,4.55,7.73,6.94.26,3.62-6.44,3.38-8.66,3.76-2.87.49-8.62,1.67-11.38.71Z"/><path class="cls-21" d="M1131.62,622c3.25-.34,6.27-.89,9.52.07,2.66.79,6.43,4.91,6.03,7.96-.4,3.07-6.11,3.41-8.33,4.34-3.49,1.45-7.14,2.55-10.37,4.55-3.5,2.17-7.07,4.7-11.13,5.75-1.91.5-7.21,1.6-8.4-.86-1.06-2.21,2.58-5.84,3.94-7.29,2.02-2.15,4.01-4.2,5.89-6.48.81-.98,1.84-1.81,2.62-2.74,1.23-1.48,1.58-3.41,3.27-4.4,1.92-1.13,4.8-.66,6.95-.88Z"/><path class="cls-21" d="M1081.78,628.31c-2.93-1.68-5.24-6.82-.03-7.13,1.54-.09,3.15.96,4.7,1.13,2.28.25,4.68-.08,6.96-.23,3.16-.21,6.31-.9,9.48-1.18,2.1-.18,5.3-.43,7.21.78,1.12.7,3.01,3.94,2.74,5.29-.32,1.64-3.3,3.07-4.53,4.08-4.34,3.57-6.56,5.77-12.21,3.45-4.71-1.93-9.88-3.65-14.32-6.2Z"/><path class="cls-21" d="M1015.47,644.36c-2.52-2.01-5.98-3.6-6.09-7.25-.02-.83.13-1.69.62-2.36,1.23-1.66,3.73-1.37,5.51-1.91,2.1-.63,4.21-1.23,6.37-1.84,10.69-3.01,22.41-7.1,33.43-2.61,4.11,1.68,7.74,4.25,11.58,6.44,3.69,2.11,8.64,3.14,11.54,6.44,7.79,8.86-15.66,10.53-20.01,10.55-5.28.02-10.21.24-15.43.7-4.73.42-9.64-.08-14.17-1.54-4.63-1.49-9.51-3.57-13.34-6.63Z"/><path class="cls-21" d="M969.14,622.21c-.82-6.62,7.23-7.17,11.76-7.38,7.23-.33,14.49-.16,21.7.53,1.98.19,4.28.64,5.14,2.43,2.49,5.21-5.89,8.93-8.74,11.38-4.46,3.84-11.83,6.21-17.55,4.27-4.54-1.54-11.69-6.2-12.31-11.24Z"/><path class="cls-21" d="M911.64,630.77c-3.71-1.88-10.41-6-7.97-11.29,1.58-3.43,7-3.81,10.21-4.35,5.29-.89,10.64-1.38,16-1.51,4.6-.11,9.12-.51,12.91,2.58,2.37,1.94,4.48,4.15,6.84,6.13,2,1.68,5.52,3.54,6.26,6.17,2.13,7.61-15.28,8.2-19.3,7.97-7.91-.45-17.83-2.1-24.94-5.7Z"/><path class="cls-21" d="M862.21,620.43c-2.66-.58-8.78-2.76-7.5-6.58,1.12-3.37,7.99-3.4,10.82-3.88,4.88-.83,9.98-2.18,14.73-.17,2.07.88,3.87,2.55,4.88,4.49.53,1.03.71,2.03,1.4,2.99.53.73,1.64,1.32,2.04,2.05,2.59,4.85-8.26,5.22-10.99,4.76-5.13-.86-10.26-2.53-15.38-3.66Z"/><path class="cls-21" d="M814.21,620.04c-2.31-3.93,5.37-6.44,7.79-6.98,4.82-1.08,10.03-1.49,14.32,1.42,2.76,1.87,5.95,2.89,9,4.18,1.61.68,5.86,3.13,3.9,5.25-1.73,1.87-8.02.64-10.14.59-6.27-.15-12.88-.4-19-1.81-1.88-.43-4.73-.74-5.86-2.65Z"/><path class="cls-21" d="M965.65,644.68c-2.47-.74-8.6-1.98-9.18-5.08-.88-4.71,8.32-6.99,11.2-5.22,3.01,1.85,6.16,3.59,9.7,4.33,3.48.73,7.01,1.24,10.52,1.78,4.42.68,12.6.59,15.36,4.72,5.16,7.72-12.29,3.3-14.96,2.87-7.52-1.22-15.26-1.18-22.62-3.39Z"/><path class="cls-21" d="M612.66,620.38c5.12-2.16,10.42-3.92,15.88-5,4.98-.99,11.55-2.19,16.54-.79,3.91,1.1,7.53,1.35,11.62,1.81,3.72.42,8.01,1.23,10.41,4.41,2.72,3.59-2.03,9.38-3.89,12.4-2.65,4.32-4.45,8.97-6.99,13.27-2.39,4.07-7.14,4.49-11.55,4.64-4.97.17-8.16-1.83-12.03-4.62-5.11-3.67-10.36-6.56-16.01-9.34-3.42-1.68-8.32-4.29-9.79-8.06-1.64-4.19,2.57-7.36,5.81-8.73Z"/><path class="cls-21" d="M580.29,627.43c2.51-.96,6.08-1.46,8.44.13,2.24,1.5,4.2,3.5,6.62,4.92,4.94,2.9,10.37,5.29,14.98,8.53,1.1.77,2.3,1.88,2.07,3.21-.2,1.16-1.4,1.82-2.48,2.28-4.62,1.96-9.54,3.09-14.42,4.21-6.82,1.57-13.64,3.13-20.46,4.7-2.46.56-4.95,1.13-7.47,1.03-2.52-.11-5.11-.97-6.78-2.86-2.93-3.31-2.08-8.68.54-12.24,2.62-3.56,6.57-5.84,10.17-8.4,2.83-2.01,5.56-4.27,8.8-5.51Z"/><path class="cls-21" d="M584.09,663.99c.37,3.12,7.6,4.44,9.91,4.81,4.27.68,8.64.52,12.93.23,8.23-.56,16.33-2.32,24.25-4.53,1.25-.35,2.53-.73,3.53-1.55,1-.82,1.65-2.21,1.23-3.43-.52-1.51-2.01-1.72-3.15-2.55-1.17-.86-1.89-2.17-3.11-2.98-3.09-2.05-7.47-2.42-10.98-1.61-2.74.63-5.1,2.25-7.73,3.1-4.07,1.31-8.29,1.44-12.46,2.1-4.71.75-9.2,2.29-13.26,4.83-.59.37-1.23.9-1.15,1.58Z"/><path class="cls-21" d="M547.12,672.32c-4.94,1.7-9.38,4.89-14.52,5.8-1.75.31-3.73.29-5.1-.85-.72-.6-1.19-1.45-1.47-2.34-.89-2.84.16-6.04,2.1-8.3,3.65-4.24,11.51-7.74,16.95-5.43,2.1.89,7.07,2.87,7.95,4.98,1.53,3.65-3.47,5.29-5.91,6.13Z"/><path class="cls-21" d="M516.13,704.3c3.46-2.71,6.1-6.45,9.94-8.59,1.31-.73,2.88-1.25,4.28-.73.73.28,1.34.82,1.81,1.45,1.49,2.01,1.53,4.84.6,7.16-1.74,4.37-7.01,9.3-11.97,8.95-1.91-.13-6.4-.34-7.68-1.77-2.22-2.48,1.31-5.15,3.01-6.48Z"/><path class="cls-21" d="M789.11,614.34c.7.4,1.46.99,1.45,1.81,0,.68-.56,1.22-1.11,1.61-5.77,4.16-13.93,1.9-20.43,2.05-6.3.15-12.76.31-19.05,0-3.21-.15-13.48-1.39-12.81-6.77.72-5.77,9.81-3.38,13.35-3.79,7.7-.88,16.44-1.43,23.94.9,4.86,1.51,10.14,1.59,14.66,4.18Z"/><path class="cls-21" d="M1687.84,556.64c2.45-1.02,4.84-2.19,7.16-3.5,2.03-1.15,4.03-2.41,6.27-3.05,6.23-1.78,10.64,3.27,16.19,4.84,3.13.89,6.75,1.31,7.31,5.33.91,6.46-5.71,11.45-10.52,14.35-6.6,3.99-13.44,5.38-20.72,7.42-5.19,1.46-9.16,3.52-14.52,1.55-3.62-1.33-6.25-3.64-9.52-5.49-2.91-1.65-5.55-2.85-7.76-5.54-.73-.89-1.4-1.94-1.3-3.09.1-1.16.97-2.1,1.86-2.86,5.34-4.53,12.64-5.67,19.34-7.72,2.11-.65,4.19-1.4,6.23-2.25Z"/><path class="cls-21" d="M1666.13,586.07c4.93,10.05-21.23,9.21-25,9.12-7.49-.17-16.79.56-23.53-3.32-2.22-1.28-4.61-3.74-4.6-6.52.01-3.23,3.64-4.95,6.23-5.69,4.1-1.18,8.22-2.32,12.33-3.47,3.97-1.12,8.03-2.25,12.14-2.01,4.59.27,8.08,3.02,12.06,4.98,2.95,1.46,8.84,3.82,10.36,6.92Z"/><path class="cls-21" d="M1742.14,545.26c-1.62-.23-3.28-.55-4.64-1.47-1.35-.92-2.33-2.57-2-4.17.34-1.66,1.9-2.76,3.4-3.56,7.9-4.24,17.17-5.05,26.13-5.05,7.59,0,15.85.8,21.4,5.99.45.42.91.92.99,1.53.22,1.59-1.89,2.32-3.48,2.46-6.53.58-14.96-.87-21.17,2.04-6.4,3-13.57,3.22-20.62,2.23Z"/><path class="cls-2" d="M1557.91,692.72c.18-.21.27-.47.22-.83-.19-1.32-5.37-5.09-3.64-6.45.32-.25.41.03.75.01,1.37-.07,3,1.07,4.15,1.7,1.08.59,2.45,2.1,3.75,2.03.46-.02.91-.19,1.34-.35,1.67-.63,3.34-1.26,5-1.88.44-.17.9-.33,1.37-.29.47.04.95.36,1.01.83.05.37-.17.72-.37,1.03-.67,1.01-1.33,2.01-2,3.02-1.44,2.17.12,2.76,1.88,3.78.77.45,3.24,1.31,3.48,2.31.34,1.42-6.09.19-7.24.07-1.36-.14-1.09.57-1.27,1.73-.16,1.01-.39,2.03-.73,2.99-.59,1.64-1.76,3.23-3.03,1.09-.77-1.3-.83-3.26-1.91-4.41-1.53-1.64-4.24-.51-6.17-.65-.61-.04-3.19-.06-3.58-.67-.85-1.34,4.84-3.66,5.71-4.21.43-.27.97-.47,1.28-.84Z"/><path class="cls-2" d="M590.43,748.6c.31-.37.48-.83.39-1.46-.33-2.33-9.44-8.95-6.4-11.34.57-.45.73.05,1.31.02,2.41-.12,5.28,1.88,7.29,2.98,1.9,1.03,4.31,3.7,6.59,3.58.81-.04,1.59-.33,2.36-.62,2.93-1.1,5.87-2.21,8.8-3.31.78-.29,1.58-.59,2.41-.51.82.07,1.67.64,1.78,1.46.09.65-.29,1.27-.66,1.82-1.17,1.77-2.34,3.54-3.51,5.3-2.53,3.82.21,4.85,3.3,6.66,1.35.79,5.7,2.31,6.12,4.07.6,2.5-10.72.33-12.73.12-2.39-.25-1.91,1.01-2.24,3.03-.28,1.77-.68,3.56-1.29,5.25-1.04,2.88-3.1,5.69-5.32,1.91-1.35-2.29-1.46-5.73-3.35-7.76-2.7-2.89-7.46-.9-10.85-1.14-1.08-.07-5.6-.11-6.29-1.18-1.5-2.36,8.5-6.44,10.04-7.4.75-.47,1.71-.83,2.24-1.47Z"/><path class="cls-13" d="M402.92,786.24c.31-.37.48-.83.39-1.46-.33-2.33-9.44-8.95-6.4-11.34.57-.45.73.05,1.31.02,2.41-.12,5.28,1.88,7.29,2.98,1.9,1.03,4.31,3.7,6.59,3.58.81-.04,1.59-.33,2.36-.62,2.93-1.1,5.87-2.21,8.8-3.31.78-.29,1.58-.59,2.41-.51.82.07,1.67.64,1.78,1.46.09.65-.29,1.27-.66,1.82-1.17,1.77-2.34,3.54-3.51,5.3-2.53,3.82.21,4.85,3.3,6.66,1.35.79,5.7,2.31,6.12,4.07.6,2.5-10.72.33-12.73.12-2.39-.25-1.91,1.01-2.24,3.03-.28,1.77-.68,3.56-1.29,5.25-1.04,2.88-3.1,5.69-5.32,1.91-1.35-2.29-1.46-5.73-3.35-7.76-2.7-2.89-7.46-.9-10.85-1.14-1.08-.07-5.6-.11-6.29-1.18-1.5-2.36,8.5-6.44,10.04-7.4.75-.47,1.71-.83,2.24-1.47Z"/><path class="cls-19" d="M592.18,775.42c9.81,20.39,74.79,26.17,85.89,26.52,40.38,1.27,81.76-4.81,121.45-2.84,35.85,1.79,71.2,9.25,106.99,12.1,51.55,4.11,103.33-1.38,155.03-2.43,139.23-2.82,278.98,26.54,417.1,8.82,13.15-1.69,27.8-4.76,35.04-15.87,24.41-37.44-58.54-42.25-74.38-41.53-27.76,1.26-55.2,7.05-82.99,7.67-28.41.63-56.62-4.14-84.78-8.02-31.17-4.29-59.99-7.94-91.01-3.58-34.66,4.87-73.23,10.74-108.24,10.31-22.73-.28-45.08-5.5-67.66-8.12-85.57-9.91-172.65-13.48-258.82-14.32-44.14-.43-96.56-12.62-138.29,6.41-4.83,2.2-9.61,4.98-12.71,9.29-4.28,5.96-4.77,11.12-2.62,15.58Z"/><path class="cls-4" d="M1026.64,503.36h0s0,.01,0,0Z"/><path class="cls-15" d="M784.5,155.26c4.32-.91,9.38.35,12.15,4.36.82,1.19,1.4,2.55,1.97,3.9.12.29.25.61.19.92-.12.65-.9.74-1.5.66-1.79-.22-3.28-1.25-4.95-1.98-1.17-.52-2.19-1.22-3.4-1.61-1.06-.34-2.28-.7-3.37-.8-.57-.05-1.14-.11-1.7-.01-.6.1-1.16.37-1.7.66-1.91,1.02-3.73,1.6-5.82,2.93-1.75,1.11-3.92,1.93-5.43,2.85-.3.18-.58.44-.92.49-.5.07-1-.28-1.3-.75-.96-1.5-.91-3.57-1.06-5.28-.2-2.27-.41-4.55-.61-6.82-.34-3.84-1.72-6.94-4.9-8.91-1.52-.94-3.17-1.63-4.51-2.86-.12-.11-.25-.24-.28-.41-.03-.16.02-.32.09-.46.91-2.09,3.32-2.38,5.15-2.9,2.04-.59,4.4-.19,6.11,1.39,2.41,2.23,3.24,5.94,3.43,9.37.18,3.09-.57,6.44.07,9.5.61,2.92,6.06-1.72,7.17-2.29,1.64-.85,3.34-1.55,5.14-1.93Z"/><path class="cls-15" d="M702.46,220.88c.69.38,1.35.81,1.98,1.29,2.78,2.09,4.97,4.9,7.21,7.59,1.13,1.36,2.27,2.71,3.52,3.95,1.3,1.29,2.75,2.34,4.15,3.5.07.06.14.11.23.11.11,0,.2-.11.26-.21,1.51-2.19,2.98-4.41,4.41-6.66.47-.74,2.33-3.68,2.9-4.36,1.11-1.32,2.31-2.57,3.61-3.68,2.53-2.15,5.46-3.72,8.61-4.28,8.88-1.57,16.69,4.99,23.25,11.15-5.39,2.99-11.51-.9-17.45-1.2-5.32-.27-10.58,2.48-14.7,6.31-4.11,3.82-7.26,8.66-10.35,13.45-2.15-.13-4.87-5.06-7.54-7.64-14.33-13.88-20.61-15.93-32.58-11.64,4.29-8.18,14.97-11.83,22.49-7.68Z"/><circle class="cls-15" cx="628.41" cy="155.34" r="37.2"/><path class="cls-15" d="M1372.18,128.36c-3.86-2.14-9.07-2.43-12.89.58-1.13.89-2.09,2.02-3.04,3.14-.2.24-.42.51-.46.82-.07.65.64.97,1.23,1.07,1.77.32,3.5-.22,5.32-.43,1.27-.15,2.45-.52,3.72-.53,1.11-.01,2.38,0,3.45.23.56.12,1.12.24,1.63.49.54.27,1,.7,1.43,1.13,1.52,1.54,3.1,2.63,4.7,4.51,1.34,1.58,3.18,3,4.35,4.32.23.26.42.59.73.74.46.21,1.04.03,1.47-.33,1.36-1.15,1.92-3.14,2.57-4.73.87-2.11,1.73-4.23,2.6-6.34,1.46-3.56,3.7-6.12,7.31-7.07,1.73-.45,3.51-.62,5.16-1.4.15-.07.31-.16.39-.31.08-.14.07-.31.05-.47-.25-2.26-2.47-3.25-4.06-4.29-1.78-1.17-4.15-1.48-6.25-.47-2.96,1.42-4.85,4.72-6.04,7.94-1.08,2.9-1.36,6.32-2.87,9.06-1.44,2.61-5.28-3.43-6.17-4.31-1.31-1.3-2.74-2.47-4.34-3.36Z"/></g></g></g></svg>