<?xml version="1.0" encoding="UTF-8"?>
<svg xmlns="http://www.w3.org/2000/svg" version="1.1" viewBox="0 0 746.9 845.5">
  <defs>
    <style>
      .cls-1, .cls-2, .cls-3, .cls-4, .cls-5, .cls-6, .cls-7, .cls-8, .cls-9, .cls-10, .cls-11, .cls-12, .cls-13, .cls-14, .cls-15, .cls-16, .cls-17, .cls-18, .cls-19, .cls-20, .cls-21, .cls-22, .cls-23 {
        stroke-width: 0px;
      }

      .cls-1, .cls-5 {
        fill-rule: evenodd;
      }

      .cls-1, .cls-24, .cls-7, .cls-11, .cls-12, .cls-15, .cls-16, .cls-21 {
        fill: #fff;
      }

      .cls-2 {
        fill: #ff5050;
      }

      .cls-3 {
        fill: #104721;
        opacity: .5;
      }

      .cls-3, .cls-7, .cls-8, .cls-25, .cls-11, .cls-12, .cls-15, .cls-16, .cls-18 {
        isolation: isolate;
      }

      .cls-4 {
        fill: #2db999;
      }

      .cls-5, .cls-14 {
        fill: #016775;
      }

      .cls-24, .cls-26 {
        stroke: #fff;
        stroke-miterlimit: 10;
        stroke-width: 1.1px;
      }

      .cls-6, .cls-18 {
        fill: #497733;
      }

      .cls-26 {
        fill: none;
      }

      .cls-7 {
        opacity: .6;
      }

      .cls-7, .cls-15, .cls-16 {
        mix-blend-mode: overlay;
      }

      .cls-8 {
        fill: #ffd882;
        opacity: .2;
      }

      .cls-9 {
        fill: #5e9d43;
      }

      .cls-10 {
        fill: #ec3e3a;
      }

      .cls-11 {
        opacity: .2;
      }

      .cls-12 {
        opacity: .2;
      }

      .cls-13 {
        fill: #701608;
      }

      .cls-15 {
        opacity: .6;
      }

      .cls-16 {
        opacity: .4;
      }

      .cls-17 {
        fill: #f3d475;
      }

      .cls-18 {
        mix-blend-mode: multiply;
        opacity: .3;
      }

      .cls-19 {
        fill: #471212;
      }

      .cls-20 {
        fill: #80b95d;
      }

      .cls-22 {
        fill: #f8ffaa;
      }

      .cls-23 {
        fill: #752727;
      }
    </style>
  </defs>
  <g class="cls-25">
    <g id="Layer_1" data-name="Layer 1">
      <path class="cls-14" d="M647.3,450c-5.9-1-10.8-4.4-13.1-9.3-2.3-4.9-1.9-10.5,1.2-15.8,16.9-29.1,42.5-43.8,76.1-43.5,2.1,0,4.2.2,6.2.5,2.3.4,4.5,1,6.6,1.7,12.5,4.5,19.9,13,21.9,25.2,1.8,11-1.1,23.2-7.7,31.8-5.1,6.5-11.7,10.4-19.2,11-8.5.8-16.1-.2-22.5-1.2-1.9-.3-3.8-.6-5.7-1-1.8-.3-3.7-.6-5.5-.9-9.9-1.6-18.6-2.1-28.5.8-3.3,1-6.7,1.2-9.9.7h0Z"/>
      <path class="cls-10" d="M639.2,427c15.9-27.4,39.8-41.6,72.4-41.3,3.9,0,7.8.6,11.4,2,11.2,4.1,17.4,11.5,19.2,21.9,2.8,16.4-6.5,36.4-23.1,37.9-23.1,2-39.5-9-63-2.2-12.9,3.7-23.6-6.5-16.9-18.2h0Z"/>
      <path class="cls-14" d="M632.5,621.5c-1.7-.3-3.3-.7-4.8-1.4-5.9-2.5-10.2-5.6-14.3-8.6-4.6-3.3-8.2-6-13.4-7.2-4.7-1.1-8.8-3.7-11.5-7.3-2.5-3.3-3.5-7.2-3.1-10.9.5-4,2.8-7.5,6.4-9.8,10.1-6.4,21-8.7,32.4-6.9,6,1,12.2,3.1,18.3,6.3,2.8,1.5,5.3,3.3,7.4,5.4s2.2,2.4,3.1,3.6c4.3,5.8,5.8,12.4,4.2,19-1.7,7.1-6.8,13.3-13.3,16.2-3.7,1.6-7.7,2.1-11.6,1.5h0Z"/>
      <path class="cls-10" d="M649.7,587.4c-.8-1.1-1.7-2.1-2.7-3.1-1.8-1.8-3.9-3.3-6.3-4.6-16.6-8.7-32.3-8.6-46.5.4-2.5,1.6-4.1,4-4.5,6.7-.3,2.6.5,5.4,2.3,7.8,2.1,2.8,5.3,4.9,9,5.7,6,1.4,10.1,4.4,14.9,7.9,3.9,2.9,8,5.8,13.4,8.1,4.3,1.8,8.9,1.8,13.1,0,5.3-2.3,9.5-7.4,10.8-13.3,1.2-5.3,0-10.7-3.5-15.5h0Z"/>
      <path class="cls-14" d="M635,656.8c-2.3-.4-4.7-1.3-7-2.8-.6-.4-1.3-.9-1.9-1.4-.5-.4-.9-.8-1.4-1.3-2.6-2.7-4.4-6-5.1-9.4-.7-3.2-.3-6.3,1.1-8.7,1.8-3.2,5.2-4.9,9-4.6.2,0,.5,0,.8,0,1.3.2,2.6.7,3.9,1.3,1.7.9,3,1.9,3.9,2.6l.6.5c1.4.6,2.6,1.4,3.7,2.3,2,1.7,3.7,4,4.6,6.4,1.3,3.3,1.1,6.8-.4,9.4-2.3,4-6.2,6-10.9,5.6-.3,0-.7,0-1-.1h0Z"/>
      <path class="cls-10" d="M628.9,649.2c-.4-.3-.7-.6-1.1-1-2.1-2.1-3.4-4.6-3.9-7.2-.5-2.2-.2-4.3.6-5.8,1-1.7,2.8-2.6,4.9-2.4,1,0,2,.4,3.1,1,1.3.7,2.3,1.5,3.1,2.1l.7.6c.3.3.5.4,1,.6.9.4,1.8,1,2.7,1.7,1.5,1.3,2.7,2.9,3.3,4.6.8,2.1.8,4.2,0,5.8-1.4,2.5-3.8,3.7-6.8,3.5-1.9-.2-3.9-1-6.1-2.3-.5-.3-1-.7-1.4-1h0Z"/>
      <path class="cls-14" d="M658,644.6c-2.7-.4-5.3-1.9-7.3-4-2-2.2-3.2-5-3.2-7.9,0-2.4.8-4.7,2.3-6.5.5-.6,1.2-1.2,1.8-1.7.6-.6,1.3-1.2,2-1.6,1.4-.9,3-1.3,4.6-1.4.7,0,1.5,0,2.2.1,2.5.4,4.9,1.7,6.7,3.6,1.6,1.8,2.8,4,3.2,6.4.5,2.9,0,5.7-1.4,8.1-.3.5-.6.9-.9,1.3-.4.5-.9,1-1.4,1.4-1.8,1.5-4,2.3-6.3,2.4-.8,0-1.6,0-2.5-.1h0Z"/>
      <path class="cls-10" d="M664.9,638.1c.2-.2.4-.5.5-.7.9-1.5,1.2-3.2.9-5.1-.3-1.6-1-3.1-2.1-4.3-1.5-1.6-3.6-2.5-5.5-2.4-.9,0-1.8.3-2.6.8-.7.5-1.2.9-1.5,1.3-.5.3-1,.7-1.3,1.2-.9,1-1.3,2.4-1.3,3.8,0,1.8.7,3.6,2,5,1.8,1.9,4.1,2.9,6.4,2.8,1.4,0,2.7-.6,3.9-1.5.3-.2.6-.5.8-.8h0Z"/>
      <path class="cls-14" d="M21.6,380.3c-1-.2-2-.4-2.9-.6-5.6-1.5-10.6-4.5-14-8.5-4.3-5.1-5.8-11.5-4.1-17.4,2.1-7.1,8.2-12.1,18.1-15,3-.9,6.2-1.4,9.7-1.6,1.3,0,2.5-.1,3.7-.1.1,0,.2,0,.2,0,0,0,0-.2-.3-.3-2.9-.9-5.8-1.9-8.6-3-8.8-3.5-15.4-10.1-19-19.1-4.8-11.8-3.8-26.1,2.7-37.4,7.1-12.4,19.2-18.8,36.1-19,2.8,0,5.7.2,8.7.7,2.6.4,5.2,1,7.8,1.8,41.2,12.5,67,38.3,76.5,76.6,1.7,6.8.1,13-4.4,17.2-4.6,4.3-11.7,6.2-19,5-4-.6-7.9-2.1-11.6-4.4-7.7-4.8-15.7-8-25.9-10.2h0c-1.1-.2-1.8.3-2.1.5-.3.3-.7.8-.6,1.5,0,.2,0,.4,0,.7,0,.4.4.8.8,1.1,2.9,2.2,5.5,4.6,7.8,7.4,4.1,4.8,4.5,10.3,1.2,14.8-3.8,5-12,7.8-20.9,7.2-9.5-.7-13.9.1-19.1,1-4.4.8-9.2,1.7-16.1,1.6-1.7,0-3.3-.2-4.9-.4h0Z"/>
      <path class="cls-10" d="M103.9,351.6c-9.4-5.9-18.5-8.9-27.5-10.9-4.6-1-8.9,2.3-8.4,6.5,0,.3,0,.5.1.8.3,1.5,1.2,2.9,2.6,3.9,2.6,2,5,4.2,7.1,6.6,2.8,3.3,3.1,6.9.9,9.8-2.8,3.7-9.5,5.9-16.7,5.4-10.2-.7-15.2.2-20.5,1.1-4.2.8-8.6,1.6-15.1,1.5-2.2,0-4.4-.3-6.5-.9-4.6-1.2-8.6-3.6-11.4-6.9-3.4-4-4.6-9-3.2-13.6,1.7-5.6,6.7-9.7,15.1-12.1,2.6-.8,5.5-1.2,8.6-1.4,1.2,0,2.4-.1,3.5-.1,2,0,3.8-1.1,4.5-2.8,0,0,0,0,0-.1.9-2.4-.8-5-3.5-5.8s-5.4-1.8-8.1-2.9c-19.9-8-23.6-33.5-13.9-50.5,6.1-10.8,16.6-16.6,32-16.8,5,0,10.1.8,14.9,2.3,40.3,12.2,64.2,37.1,73.3,73.3,3.8,15.4-13.3,22.6-27.8,13.5h0Z"/>
      <path class="cls-14" d="M147.8,317.2c-.5,0-1-.2-1.5-.3-4.9-1.4-8.9-5.4-10.3-10.2-1.1-4-2.4-5.7-3.9-7.9-1.4-2-3-4.2-4.3-7.7-.6-1.5-.8-3-.8-4.5,0-3.4,1.5-6.5,4.3-8.9,3.2-2.7,7.8-4.2,12.6-4,.8,0,1.7.1,2.5.2,4.8.8,9,3.1,12.6,7,1.3,1.4,2.4,3.1,3.3,4.8,2.2,4.5,3.3,8.8,3.3,12.8,0,6.1-2.6,11.5-7.6,15.9-2.7,2.3-6.3,3.3-10,2.7h0Z"/>
      <path class="cls-10" d="M131.7,286.8c0,1,.2,2,.6,3,1.1,2.9,2.5,4.9,3.8,6.7,1.7,2.3,3.2,4.5,4.6,9.2.9,3.3,3.7,6.1,6.9,7,2.5.7,5,.2,6.9-1.4,4.1-3.6,6.2-7.9,6.2-12.9,0-3.4-.9-7.1-2.9-11-.7-1.4-1.5-2.6-2.6-3.8-3.2-3.5-7.1-5.4-11.5-5.6-3.6-.1-6.9.9-9.2,2.8-1.8,1.6-2.8,3.6-2.9,5.9h0Z"/>
      <path class="cls-14" d="M696.6,494c-1-.2-2-.5-2.9-.9-3.2-1.3-5.1-2.8-6.9-4.1-1.9-1.4-3.3-2.5-7-3.7-4.5-1.5-8-5.2-8.9-9.4-.8-3.6.4-7.3,3.2-9.8,4.5-4,9.8-5.9,15.6-5.6.8,0,1.6.1,2.4.3,3,.5,6.2,1.6,9.4,3.3,1.6.8,3,1.9,4.3,3.1,3.9,3.8,5.9,8.4,5.6,13.3-.2,4.1-2,8-4.8,10.6-2.5,2.2-5.6,3.3-8.8,3.2-.4,0-.8,0-1.3-.1h0Z"/>
      <path class="cls-10" d="M698.1,489.9c-.9,0-1.9-.3-2.8-.6-2.7-1.1-4.3-2.4-5.9-3.6-2-1.5-3.9-3-8.2-4.4-3-1-5.5-3.5-6-6.2-.5-2.1.2-4.2,1.9-5.7,3.7-3.3,7.9-4.8,12.5-4.5,3.2.2,6.5,1.2,10,3,1.2.6,2.3,1.4,3.3,2.4,3,2.9,4.5,6.3,4.3,10-.1,3-1.4,5.8-3.4,7.6-1.6,1.5-3.6,2.2-5.7,2.1h0Z"/>
      <path class="cls-14" d="M81.7,527.8c-4.5-.7-8.6-3-11.5-6.5-3.7-4.3-5.2-10.2-4.3-16,1.1-6.9,5.5-12.6,12.8-16.6,2.3-1.2,4.8-2.2,7.5-2.9,7.1-1.7,13.8-2.1,19.8-1.2h.5c8.9,1.5,16.3,5.7,22.1,12.5,3.4,4,4.2,9.2,2,13.8-2.5,5.3-8.8,9.1-15.8,9.7-7.2.6-10.4,1.9-14.2,3.4-3.2,1.3-6.9,2.8-12.3,3.6-2.1.3-4.2.3-6.3,0h-.2s0,0,0,0Z"/>
      <path class="cls-10" d="M82.6,523.5c1.6.2,3.3.2,5,0,4.9-.8,8.2-2.1,11.3-3.4,3.9-1.6,7.7-3.1,15.5-3.7,5.5-.4,10.4-3.4,12.3-7.3,1.5-3.1,1-6.4-1.4-9.2-5.2-6.1-11.9-9.8-20-11-5.5-.8-11.6-.4-18.2,1.2-2.3.5-4.4,1.4-6.4,2.4-6.2,3.4-9.7,7.9-10.6,13.5-.7,4.6.5,9.1,3.4,12.5s5.5,4.5,9.1,5h0Z"/>
      <path class="cls-14" d="M108.3,553.3c-3.4-.5-6.2-2.7-7.8-5.9-1.2-2.5-1.7-5.5-1.2-8.5.5-3.5,2.2-6.6,4.8-8.9.5-.4.9-.8,1.4-1.1.6-.4,1.3-.8,1.9-1.1,2.7-1.2,5.4-1.7,8-1.3h.2c4.1.7,7.5,3.3,9.6,7.4,1.4,2.8,1.6,6.1.6,9.2-.8,2.5-2.5,4.6-4.6,6-1.1.8-2.3,1.3-3.6,1.7l-.3.2c-.9.6-2.2,1.4-3.9,2-1.6.5-3.2.7-4.8.4h-.1s0,0,0,0Z"/>
      <path class="cls-10" d="M107.9,532.4c-.3.2-.7.5-1,.8-1.8,1.7-3,3.9-3.4,6.4-.3,2.2,0,4.3.8,6,1,2,2.7,3.3,4.7,3.6.9.1,1.9,0,2.8-.3,1.2-.4,2.1-1,2.8-1.4l.6-.4c.3-.2.4-.3.9-.4.9-.2,1.7-.5,2.4-1.1,1.3-.9,2.4-2.3,3-3.9.7-2,.6-4.1-.3-5.8-1.4-2.8-3.8-4.6-6.5-5-1.8-.3-3.7,0-5.6,1-.4.2-.9.5-1.3.7h0Z"/>
      <path class="cls-15" d="M26.7,273.7c-7.1,8.9-3.8,21,21.6,20.2,14.6-.4,27.7,2.6,30.1-4,2.3-6.7-7.3-15.7-21.6-20.2-14.3-4.5-25.5-1.7-30.1,4Z"/>
      <path class="cls-15" d="M154,289.9c-.4,3.8-3.8,6.5-9.2,1.5-3.1-2.9-6.7-4.6-5.8-6.9s5.1-3,9.2-1.5,6,4.4,5.8,6.9Z"/>
      <path class="cls-15" d="M20.5,360.4c-2.5-.4-3.8-1.6-4.4-2.6-.6-1-1.2-2.7-.2-5.1,1.5-3.6,6.9-5.8,14-5.9,1.6,0,3,0,4.3.3,5.9,1,7,4.4,7.1,6.4.2,3.9-3.6,4.4-5.8,4.7-1.2.2-2.8.4-4.6.9-4.5,1.2-7.9,1.6-10.3,1.2h0Z"/>
      <path class="cls-15" d="M76.2,501.9c-1.5,5.8,1.7,11.4,11.8,6.6,5.8-2.7,11.6-3.4,11.5-7.2s-5.4-6.8-11.8-6.6-10.5,3.5-11.5,7.2Z"/>
      <path class="cls-15" d="M107.3,538.2c-.6,2.4.7,4.8,5,2.8,2.4-1.1,4.9-1.4,4.8-3s-2.3-2.9-5-2.8-4.4,1.5-4.8,3Z"/>
      <path class="cls-15" d="M733.3,403.7c3.3,10.6-3,21.1-24.3,12.8-12.2-4.8-24.3-5.7-24.3-12.8s10.9-12.8,24.3-12.8,22.2,6,24.3,12.8Z"/>
      <path class="cls-15" d="M702.8,479c-.5,3.6-3.9,5.7-9,.2-2.9-3.1-6.3-5.2-5.3-7.2,1-2.1,5-2.2,9-.2s5.6,4.9,5.3,7.2Z"/>
      <path class="cls-15" d="M648.8,596.7c-.6,6.8-6.6,11.2-16.7,1.6-5.8-5.5-12.4-8.9-10.8-12.9s9.1-4.7,16.7-1.6c7.6,3.1,11.1,8.5,10.8,12.9Z"/>
      <path class="cls-15" d="M641.4,644.7c-.2,2.1-2,3.5-5.2.5-1.8-1.7-3.8-2.8-3.3-4s2.8-1.5,5.2-.5,3.5,2.7,3.3,4Z"/>
      <circle class="cls-15" cx="661.7" cy="632.2" r="2.7"/>
      <path class="cls-14" d="M649.7,394.5c-1.2,7.6-9.5,12.8-25.4,16-13.3,2.7-31.8,4-54.9,4-47.2-.1-109-5.9-174-16.4-65-10.5-125.5-24.3-170.4-39-22-7.2-39.2-14.3-50.9-21-14.1-8-20.3-15.6-19.1-23.2,11.3-70,49-131.9,103.6-169.8l.4-.3c.9-.7,1.9-1.3,2.9-2h.2c5.6-3.8,11.4-7.3,17-10.5.4-.2.9-.5,1.4-.7l1.9-1c2-1.1,4.2-2.2,6.6-3.4l2-.9c2.7-1.3,5-2.4,7.2-3.3.1,0,.4-.2.7-.3l.5-.2c.2,0,.4-.2.6-.2l2.6-1.1h.2c0,0,0,0,0,0l3.1-1.3c1.1-.4,2.1-.8,3.2-1.2h.3c.5-.3,1-.5,1.5-.7,2.6-.9,4.9-1.7,7-2.4l1.3-.4c.7-.2,1.4-.4,2.1-.7,2.6-.8,5.4-1.6,8.2-2.4,1.8-.5,3.6-1,5.5-1.4.9-.2,1.9-.5,2.8-.7.9-.2,1.9-.4,2.8-.6.9-.2,1.9-.4,2.9-.6,1.1-.2,2.2-.5,3.4-.7,1.6-.3,3.3-.6,5-.9,1-.2,2-.3,3-.5l1.9-.3c1.3-.2,2.6-.4,3.9-.6l2.3-.3c2-.2,4.6-.5,7.3-.8.7,0,1.4-.1,2.2-.2,1,0,2-.2,3.1-.3,6.5-.5,13.4-.8,20.2-.8h1c.7,0,1.4,0,2.1,0,.9,0,1.8,0,2.6,0,.6,0,1.2,0,1.8,0,2.1,0,4.2.1,6.3.2,1.1,0,2.3.1,3.4.2,2,.1,4.1.3,6.2.4,1,0,1.9.2,2.9.3h.5c0,0,.9.1.9.1.6,0,1.2.1,1.9.2.8,0,1.7.2,2.5.3.9,0,1.8.2,2.8.3.2,0,.5,0,.7,0,.2,0,.4,0,.6,0,.4,0,.8,0,1.1.1.6,0,1.2.2,1.7.2.2,0,.5,0,.7,0,1,.1,1.9.3,2.9.4,1.3.2,2.5.4,3.7.6s2.5.4,3.7.6c1,.2,2,.3,3,.5.9.2,1.8.3,2.8.5.6,0,1.2.2,1.9.4,1.1.2,2.2.4,3.3.7.6.1,1.4.3,2.1.5.6.1,1.2.2,1.8.4l1,.2h.3c1,.3,1.9.5,2.9.7,2,.5,4,1,6,1.5h.1c1.1.3,2.2.6,3.3,1,2.5.7,5,1.4,7.4,2.2.9.2,1.8.6,2.7.8.9.3,2,.6,3,.9,4.8,1.6,9.6,3.3,14.3,5.2.7.3,1.4.6,2.2.9,1.7.7,3.5,1.4,5.2,2.2l1.7.8c.8.3,1.5.7,2.3,1,.9.4,1.8.8,2.7,1.2,4.8,2.2,9.7,4.7,14.5,7.3.2.1,1.5.8,1.5.8.6.4,1.2.7,1.8,1,.5.3,1.2.6,1.8,1,.7.4,1.5.9,2.2,1.3,1,.6,2,1.2,3,1.8.7.4,1.3.8,2,1.2,2.4,1.5,4.9,3.1,7.2,4.7,1.5,1.1,3.1,2.1,4.6,3.2,1,.7,2,1.4,3,2.2,1.3.9,2.5,1.9,3.7,2.8.8.6,1.7,1.3,2.5,1.9h.2c.4.5.8.8,1.3,1.1l.4.3c.5.4,1,.8,1.5,1.2l.6.5c3,2.5,5.7,4.8,8.3,7.2l2,1.8,2,1.9c.7.7,1.3,1.3,2,1.9,1.8,1.8,3.6,3.6,5.7,5.8,2.5,2.6,4.9,5.3,7.2,8,1.3,1.5,2.6,3.1,4,4.8.4.5.8,1.1,1.2,1.6l.4.6c.7.9,1.5,1.9,2.2,2.8.7.8,1.3,1.7,1.9,2.6.6.8,1.2,1.6,1.7,2.3.7.9,1.4,1.9,2.1,2.9.3.4.6.9.9,1.3l.4.6c2.8,4.1,5.5,8.3,8.1,12.5l.2.4c.8,1.4,1.7,2.9,2.5,4.4l.4.7c.9,1.5,1.7,3,2.5,4.6l-4.3,2.5,4.4-2.4c26,48.5,35.2,106.6,26,163.8h0Z"/>
      <path class="cls-14" d="M611.1,634.2c-11.2,69.5-48.6,131.2-102.6,169.1h-.1c-1.6,1.2-3.3,2.4-5.2,3.7-.2.1-.6.4-.6.4-1.7,1.1-3.4,2.2-5.2,3.3l-.8.5-.6.3c-1.2.7-2.4,1.4-3.6,2.2h-.2c-.8.6-1.6,1-2.4,1.5l-.8.5c-1,.6-2,1.2-3.1,1.7l-1.9,1c-1.1.6-2.3,1.2-3.4,1.8-.4.2-1.9,1-1.9,1-.6.3-1.3.6-1.9.9-.9.5-1.9.9-2.9,1.4l-.8.4-2.5,1.2c-.6.3-1.2.5-1.8.8l-.7.3c-.8.4-1.7.7-2.5,1.1l-2.8,1.1-1,.4c-.5.2-1,.4-1.5.6-1.2.5-2.4.9-3.6,1.4-.3.1-.7.2-1,.4l-3,1.1c-1.5.5-3,1-4.4,1.5-1.2.4-2.4.8-3.6,1.2-1.8.5-3.6,1.1-5.4,1.6-2.7.8-5.5,1.5-8.3,2.2-.7.2-1.5.4-2.3.6-1.7.4-3.4.8-5.1,1.1-.9.2-1.9.4-3,.6-.6.1-1.3.3-1.9.4l-1.8.3c-3.7.7-7.6,1.3-11.5,1.8-.6,0-1.4.2-2.1.3-.7,0-1.6.2-2.4.3-1,.1-2,.2-3,.3-.8,0-1.6.2-2.5.2l-1.9.2c-7.6.7-15.4,1-23.2,1-1,0-2.1,0-3.2,0-.9,0-1.9,0-2.8,0-2.5,0-5.1-.1-7.7-.3-1.1,0-2.2-.1-3.4-.2h-.2c-2.1-.1-4.1-.3-6.2-.5h-.1c-.9,0-1.9-.2-2.8-.3h-.5s-.9-.1-.9-.1c-.6,0-1.3-.1-1.9-.2-.8,0-1.7-.2-2.5-.3-.9,0-1.9-.2-2.9-.3-.3,0-.6,0-.9-.1h-1c-.5-.2-1-.3-1.6-.3-.2,0-.4,0-.6,0-.2,0-.4,0-.6,0-1-.1-1.9-.3-2.9-.4-1.2-.2-2.5-.4-3.7-.6s-2.5-.4-3.7-.6c-1-.2-2-.3-2.9-.5-.9-.2-1.8-.3-2.8-.5-.6,0-1.2-.2-1.9-.4-1.1-.2-2.2-.4-3.2-.7-.6-.1-1.4-.3-2.1-.5-.6-.1-1.2-.2-1.8-.4l-1-.2h-.4c-.9-.3-1.8-.5-2.7-.7h-.1c-2-.5-4-1-6-1.6-1.1-.3-2.2-.6-3.3-.9-2-.5-4.1-1.2-6.1-1.8-.6-.2-1.2-.3-1.8-.5-.8-.2-1.6-.5-2.4-.8-.6-.2-1.3-.4-2-.6l-.9-.3c-6.6-2.2-12.9-4.5-19-7.1-.9-.4-1.9-.8-2.8-1.2-.7-.3-1.4-.6-2.1-.9-1.9-.8-3.9-1.8-6.6-3l-2.2-1c-1.2-.6-2.4-1.2-3.5-1.7l-1.7-.9c-.6-.3-1.2-.6-1.8-.9l-.9-.4c-1.6-.8-3.1-1.7-4.6-2.5-1.6-.9-3.3-1.9-5.5-3.2-.8-.5-1.6-1-2.5-1.5-.8-.5-1.6-1-2.4-1.5-1.6-1-3.2-2-4.8-3.1-2.4-1.6-4.7-3.2-7-4.8-.6-.5-1.2-.9-1.8-1.3h-.2c-.3-.3-.6-.5-.9-.8-1.9-1.4-3.8-2.8-6-4.6-3.1-2.4-5.8-4.7-8.5-7.1l-2-1.8c-1.7-1.5-3.5-3.2-5.4-5-.6-.5-1.1-1.1-1.6-1.6l-.6-.6c-1-1-1.9-1.9-2.9-2.8-.9-.9-1.8-1.8-2.6-2.7-.8-.8-1.5-1.6-2.3-2.4-1-1-1.9-2.1-2.8-3.1-.5-.6-1-1.2-1.6-1.8l-.2-.2c-1-1.2-2.1-2.4-3.1-3.5l-.8-1c-4-4.8-7.8-9.8-11.3-14.8-1.1-1.7-2.3-3.3-3.5-5.2l-.3-.4c-34.1-52-47.1-116.5-36.7-181.7,1.2-7.6,9.5-12.8,25.4-16,13.3-2.7,31.8-4,54.9-4,47.2.1,109,5.9,174,16.4,65,10.5,125.5,24.3,170.4,39,22,7.2,39.1,14.3,50.9,21,14.1,8,20.3,15.6,19.1,23.2h0Z"/>
      <path class="cls-14" d="M444.4,130.6c-2.5-2.6-5.7-4.2-9.1-4.8-.3,0-.5,0-.8-.1l-7.9-.9,4.1-6.8c2-3.3,3.7-6,5.4-8.6,12-18.8,27.2-30.7,46.4-36.4,2-.7,4-1.2,6.1-1.7,6.4-10.3,14.8-19.6,23-28.5,8-8.7,15.5-17,20.7-25.6,2.1-3.4,3.4-6.9,3.8-10.1.5-4,3.7-6.9,7.7-7.2.6,0,1.3,0,1.9,0,1.7.3,3.2,1,4.4,2.2,1.7,1.6,2.6,3.9,2.5,6.2v.4c-.9,15.5-10.4,28.2-18.8,39.4,0,0-1.5,2-2.2,2.9-2.2,2.9-4.4,5.8-6.6,8.5-2.8,3.7-5.7,7.3-8.5,11.1,10.5,2.3,19.8,7.8,27.1,16,4,4.4,8.3,9.9,10.4,17.2,3.9,12.7-1.4,26.8-12.6,33.5-4.8,3-10.5,4.8-16.8,5.2-3.4.2-7,0-10.6-.5-3.9-.6-7.8-1.7-11.7-3.2-12.5-4.9-21.8-15.6-23.8-27.2-.4-2.7-.6-5.5-.6-8.7-7.3,3.9-14,10-19.7,17.7-1,1.4-3.1,4.2-4,5.5-.8,1.2-1.6,2.4-2.4,3.5l-3.4,5.1-4.3-4.3h0ZM503.1,107c1,3.7,5,8.1,13.4,9.4,1.5.2,3.1.4,4.8.4.4,0,.8,0,1.3,0,3.4-.2,5.5-1.5,6.1-2.7.6-1.2,0-3.2-1.4-5.3-4.9-7.1-10.9-11.1-18.4-12.3-1.7-.3-3.5-.4-5.3-.4-.9,3.6-1,7.4-.4,11h0Z"/>
      <path class="cls-6" d="M527.7,48.2c.7-1,1.4-1.9,2.2-2.9,7.9-10.7,17-22.7,17.8-36.7v-.2c0-.9-.3-1.8-1-2.4-.7-.6-1.6-1-2.5-.9-1.6,0-2.8,1.3-3,2.8-.5,4-2.1,8.1-4.5,12-5.5,9.1-13.1,17.5-21.3,26.4-8.5,9.3-17.3,18.9-23.5,29.6-2.6.6-5.2,1.3-7.8,2.1-18.1,5.3-32.4,16.6-43.7,34.4-1.8,2.8-3.6,5.6-5.3,8.4,4.8.5,9.3,2.7,12.9,6.3.8-1.2,1.6-2.4,2.5-3.6,1-1.4,3-4.2,4.1-5.6,6.7-9.2,15-16.3,23.8-20.5,1.8-.8,3.7-1.6,5.9-2.4-.4,1.7-.6,3.4-.8,5.1h0c-.3,4.1-.2,7.6.3,10.8,1.7,9.9,9.8,19.1,20.6,23.4,6.9,2.7,13.8,3.9,20.2,3.4,5.4-.4,10.3-1.9,14.5-4.5,9.2-5.6,13.6-17.3,10.4-27.8-1.8-6.3-5.7-11.3-9.3-15.3-8.5-9.4-19.5-14.7-32.1-15.5,4-6.2,8.6-12.1,13.1-17.9,2.2-2.8,4.4-5.6,6.6-8.5h0ZM531.5,106c2.5,3.8,3.1,7.5,1.7,10.4-1.5,3.1-5.4,5.2-10.3,5.5-.5,0-1.1,0-1.7,0-14.5-.2-21.4-7.6-23-13.8-.8-4.6-.6-9.5.7-14.2.3-.9.5-1.8.8-2.7.6,0,1.1-.1,1.7-.1,12.6-.8,22.7,4.2,30.1,14.9h0Z"/>
      <path class="cls-3" d="M498.2,97.4c.2-1.2.4-2.3.7-3.4.3-.9.5-1.8.8-2.7-6.3,1-10.1,1.7-15.5,3.8-.4,1.7-.6,3.4-.8,5.1h0c0,.4,0,.6,0,.9,5.2-2.3,10.5-3.3,14.8-3.6h0Z"/>
      <path class="cls-9" d="M606.2,633.3c-19.9,123.8-125,228.6-281.4,203.4-156.4-25.2-223.3-157.6-203.4-281.4l484.8,78h0Z"/>
      <path class="cls-6" d="M193.1,765.1c-6.4-8.4-12.2-18.1-11.7-29.1.4-7.4,3.6-15,1.5-22.1-3.5-11.5-19.3-15.9-22.4-27.5-3-10.8,6.6-21.2,6.9-32.4.1-6.1-2.6-11.9-4-17.9-2-8.9-.9-18.4,3-26.6,1.9-3.9,4.4-7.6,4.8-11.8.6-5.5-2.4-10.8-2.4-16.3,0-6.3,3.5-11.7,6.8-17.3l-40.3-6.5c-2.3,8.3-.6,17.6,2.6,25.3,1.5,3.7,3.2,8.5.4,11.4-1.2,1.3-3.1,1.8-4.5,2.9-2.7,2.1-3.4,5.9-3.6,9.3-1.9,23-2.1,47.9,1.3,70.9,6.8,21.7,16.5,41.8,28.6,60,13.1,19.1,29.3,36.4,48.6,51.1-4.9-8.1-9.5-15.7-15.3-23.4h0ZM270.1,794.7c.6-6.4,4.3-12.5,2.9-18.8-1.8-8-11.3-12.2-13.6-20-1.5-5,.3-10.3,1.1-15.5,1.7-9.9-.4-20.9-7.6-27.9-2.4-2.3-5.2-4.1-7.6-6.4-5.9-5.8-8.4-14.9-6.3-22.9,3.6-13.8,17.9-17.7,19.8-33.6.7-6.3-1.5-13.3-6.9-16.5-1.9-1.1-4.1-1.8-5.5-3.4-2.6-2.9-1.4-7.8,1.4-10.5,1.6-1.5,3.6-2.6,4.8-4.4,2.3-3.3,1.4-7.8.8-11.8s-.2-8.9,3.3-10.9c5.6-3.1,8.7-7.8,10.8-13.2l-54-8.7c-2.3,2.5-3.9,5.3-4.1,8.8-.2,4,1.6,7.8,1.9,11.8,1.1,14.4-17.3,26.6-12.3,40.2,2,5.5,15.8,13.2,9.1,18.9-1.2,1-2.8,1.5-4.1,2.3-3.6,2-5.7,6.2-6.3,10.3-.6,4.1,0,8.3.7,12.4.3,1.8.6,3.7,1.6,5.2,2.1,3,6.2,3.5,9.6,4.9,4.4,1.8,8,5.5,9.7,10,1.2,3.1,1.2,7.2-1.5,9.3-1.6,1.2-3.8,1.4-5.7,2.3-3.1,1.5-4.8,4.9-5.2,8.2-1.1,9.5,6.1,10.5,8,18.7,1.5,6.6-1.9,14.2,2.9,20.1,2.9,3.7,8.4,4.9,10.7,9,4,7.2-1.2,16.6,2.4,24.7,4,9.1,10.6,17.8,17.1,25.8,13.2,6.5,27.4,11.9,42.7,16.2-8.1-10.7-21.9-20-20.5-34.5h0ZM470,768c4.1-4.7,5.5-12.3,1.6-17.1,5.2-3.2,8.9-8.7,9.9-14.7.4-2.2.4-4.6,1.5-6.5,2.8-4.9,12-7,10-12.3-2.4-6.2-14,.8-17.9-4.5.5-4.8,4.6-8.5,9-10.8,4.3-2.3,9.1-3.7,12.9-6.8,5.2-4.2,7.8-11.2,6.7-17.7-.5-2.9-1.7-5.7-1.2-8.6,1.3-7.7,5.7-13.5,6.3-21.7.8-9.8,3.3-19.2,4.6-29l-27.8-4.5c2.3,7-.5,15.6-7,19.2-5.3,3-12,2.8-16.9,6.3-5.9,4.2-7.3,12.9-4.3,19.4,1.3,2.9,3.5,5.6,3.7,8.8.7,7.1-10,16.6-13.6,22.2-.6.9-1.2,2-.9,3.1.3,1.1,1.4,1.8,2.5,2.2,5.6,2.4,11.4,2.4,15,7.5,4.8,6.8-2.1,15.5-9.5,16.3-3.6.4-7.7-.7-10.7,1.4-3.8,2.7-5.2,10.7-7.8,14.3-3.4,4.7-9.1,8-5.8,15,1.4,2.9,4.2,5,5.6,7.9,3.9,7.8-3.7,16.5-11.4,20.7-7.6,4.2-17,7.8-19.7,16.1-1.3,4-.7,8.3-1.3,12.5-1,7-5.7,13.3-12.1,16.4-5.5,2.6-12.2,2.7-17.3,6.2-3.9,2.6-7.1,6.9-10.4,10.7,16.4.4,32.2-.7,47.2-3.1,8.9-5.5,20.9-13.8,18.2-19.7-.5-1.1-1.3-2.1-1.6-3.3-.6-2.7,1.9-5.2,4.6-6,2.7-.7,5.5-.3,8.3-.5,6.8-.4,13.1-4.8,15.9-11,2.8-6.2,1.9-13.8-2.3-19.2,5.8-2.3,11.8-4.8,15.8-9.5h0ZM590.4,630.8l-38.9-6.3c.2.2.3.5.5.7,1.6,1.6,3.7,2.6,5.2,4.2,3.1,3.1,3.9,7.9,3.8,12.3-.2,6.1-1.9,12.2-4.9,17.5-2.4,4.2-5.7,8.2-6.3,13-.5,4.1,1,8.2,1.7,12.3.7,4.1.4,8.9-2.8,11.6-4.3,3.6-19.9,7.1-14.7,16.1,1.6,2.7,4.9,4.1,6.5,6.8,2.7,4.6-.9,10.4-5,13.7s-9.3,6.1-11.3,11c-3.8,9.7,6.8,22.3-4.8,30.2-4,2.7-9.5,2.7-13.1,5.9-2.5,2.1-3.7,5.4-5.9,7.8-4.6,5-12.2,5.3-18,8.8-6.2,3.7-9.3,10.7-13.8,16-4.1,4.7-8.8,9-13.5,13.3,36.9-13.7,68-36.3,92.4-64.5.5-2.4,1-4.7,3.4-7.2,3.4-3.5,7.7-6.7,8.8-11.5,1.8-7.7-4-14.8-1.2-22.9,1.7-5.1,8.2-7.6,11.8-11.3,4.7-4.7,7.9-10.4,9.8-16.7,3.8-12.7,4-26.2,8.2-38.9,2.5-7.6,4.1-14.8,2.2-21.9h0ZM392.2,619.5c-4.5-3.9-12.5-6.2-11.9-13.6.3-3.6,2.7-5.9,5.8-8l-65.5-10.5c-1,3.7-5,6.2-6,9.9-1.1,4,1.7,8,4.7,11,5.5,5.4,12.9,15.8,3.2,22-4.5,2.9-11.1,3.5-13.8,8.7-1,1.8-1.2,3.9-1.2,6,0,18.9,13,35.3,5.8,54.2-7.4,19.3-1.4,22,16.1,27.4,11.1,3.5,10.6,16.6-.5,20.1-9.3,2.9-22.8-1.1-22.6,13.1,0,4.6,3.7,8.2,3.5,13-.1,3.2-2.6,5.9-3,9-1.1,8.2,4.2,21.5,12.9,23.8,2.6.7,5.5.6,7.7,2.1,3.4,2.2,3.6,7.9.4,10.4-2.3,1.8-5.5,1.8-8.4,2.3-7.5,1.3-6.4,5.9-4.5,11.5.4,1.3.8,2.3,1.2,3.2,2.8.5,5.7,1.1,8.6,1.6,4.8.8,9.5,1.4,14.1,1.9,5.1-10.2,13.8-21.8,12.7-32.6-.2-2.1-.7-4.2-.2-6.3.9-4.4,5.3-7,7.9-10.6,2.1-3.1,2.9-6.9,3.5-10.6.9-5.7,6.6-19,5.2-24.1-2.2-8.5-20-10-11.3-22.2,4.7-6.6,19,.5,24-6.7,3.8-5.4-1.8-12.1-2.1-17.8-.4-7,4-14.1-1.3-20.6-2.2-2.7-5.8-4.3-7.1-7.6-4.5-10.8,10-11.4,15.1-15.2,7-5.2,8.1-18.9,10.6-27.1,2.6-9,2.6-12.4-3.7-17.9h0Z"/>
      <path class="cls-20" d="M606.2,633.3c-3.4,21.2-114.7,21-248.6-.5-133.9-21.5-239.6-56.2-236.2-77.4s114.7-21,248.6.5,239.6,56.2,236.2,77.4Z"/>
      <ellipse class="cls-22" cx="363.8" cy="594.4" rx="33.8" ry="236.6" transform="translate(-280.8 859.1) rotate(-80.9)"/>
      <path class="cls-10" d="M582.7,629.6c-2.5,15.3-102.5,11.9-223.4-7.5-120.9-19.5-216.9-47.6-214.5-62.9,2.5-15.3,102.5-11.9,223.4,7.5,120.9,19.5,217,47.6,214.5,62.9h0Z"/>
      <path class="cls-2" d="M529.2,621c-1.9,11.5-77.4,9-168.7-5.7-91.3-14.7-163.9-36-162-47.5s77.4-9,168.7,5.7c91.3,14.7,163.9,36,162,47.5h0Z"/>
      <path class="cls-18" d="M342.3,726.5c-27.4-3.8-54.5-10-80.4-19.2-29.6-10.5-57.9-25-83.1-43.7-26.5-19.6-44.3-41.2-60.8-69.3-1.5,111.3,66.7,219.8,206.8,242.4s238.9-59.1,272.3-165.3c-3.2,10.3-23,17-31.6,21.7-14.1,7.7-29.3,13.8-44,20.7-36.3,17.2-78.2,18.3-117.6,17.5-20.5-.4-41.1-2-61.6-4.8h0Z"/>
      <path class="cls-18" d="M243.8,796.5c58.7,34.8,133.9,46,196.3,25.8,19.5-6.3,38.4-15.2,54.5-27.9,7.9-6.2,15.1-13.3,21.4-21.2,3-3.8,6.1-7.8,8.5-12,.1-.2,5.3-12.2,2.4-11-5,2.1-9.3,7.4-14.4,10.2-44.7,24.7-96.2,28-146.1,22.2-50.3-5.9-108.3-14-149.6-45.1-18.2-13.7-34.2-30.1-50.7-45.9-8.6-8.2-9-.3-7.2,6.7,2.2,8.9,5.3,16.7,9.9,24.7,17.6,30.3,44,55.2,75,73.5h0Z"/>
      <path class="cls-19" d="M375.7,612.9c-.3,1.8-5.9,1.5-12.7.4-6.8-1.1-12.2-2.5-12-4.4.2-1.1,5.1-1.8,8.8-2,2.1,0,6.2.6,8.2,1.3,3.5,1.3,7.9,3.5,7.7,4.6Z"/>
      <path class="cls-15" d="M374.8,610.5c-.3,0,.4.3.6.4.4.2.8.4,1.1.6.6.4,1.1.8,1.3,1.1,2,2.7-3.8,2.8-12.8,1.4-2.2-.3-4.8-.8-7-1.3-3.3-.6-5.7-1.2-5-.9.2.2,3.8,1.1,5.4,1.4,2.5.5,5.5,1.1,8,1.5,8.5,1.2,15.5,1.4,13.3-1.5-.4-.5-1.4-1.2-2.5-1.8-.3-.2-1.2-.8-2-1-.2,0-.3,0-.4,0h0Z"/>
      <path class="cls-23" d="M370.8,611.1c-.2,1.1-3.5.9-7.6.2s-7.3-1.5-7.1-2.6c.1-.7,3-1.1,5.2-1.2,1.3,0,3.7.3,4.9.8,2.1.8,4.7,2.1,4.6,2.8h0Z"/>
      <path class="cls-19" d="M446.5,617.8c8.1,2.6,6.6,3.4,1.7,3.4-4.9,0-11.5-.9-19.6-3.5-5-1.6-8-3.7-8.8-4.7-.4-.6,2.6-.6,6,0,5.9,1.1,15.7,3.2,20.7,4.8h0Z"/>
      <path class="cls-15" d="M435.9,614.7c0,0,1.3.3,1.6.4,1,.2,1.9.4,2.8.7,1.7.4,3.4.8,4.9,1.2,12,3.3,12.2,4.7,6.3,4.9-1.4,0-3.8-.1-5.8-.3-2.8-.2-5.6-.5-3.9-.1.8.2,4.9.7,6.3.8,2.4.2,5.1.4,6.7.3,5.6-.1,6.2-1.5-6.4-5-2.4-.7-5.2-1.3-7.9-1.9-.8-.2-3.5-.8-4.4-.9-.2,0-.3,0-.3,0h0Z"/>
      <path class="cls-23" d="M438.3,616.3c4.9,1.6,4,2,1,2-3,0-6.8-.5-11.7-2.1-3-1-4.8-2.2-5.2-2.8-.2-.4,1.5-.3,3.5,0,3.5.7,9.4,1.9,12.4,2.9h0Z"/>
      <path class="cls-19" d="M468.9,609c11.8,1.9,15.3,3.3,15.1,4.4s-3.9,1.3-15.7-.6c-7.2-1.2-16.4-3.4-21.2-4.7-2.7-.8-2.6-1.4.2-1.3,4.9.2,14.4,1,21.6,2.2Z"/>
      <path class="cls-15" d="M454.7,606.9c.2,0,1.4.2,1.8.2,1,0,1.9.2,2.9.3,1.8.2,3.7.4,5.5.7,15,2,21.1,3.9,21.7,5.4.2.4-.6.7-1.2.9-.7.4-2.2.6-.5.7.8,0,3-.1,3.6-.3.9-.3,1.6-.6,1.5-1-.5-1.4-6.7-3.5-22.3-5.6-3-.4-5.9-.7-8.7-1-.8,0-3.8-.4-4.2-.3-.1,0-.1,0,0,0h0Z"/>
      <path class="cls-23" d="M462.1,608.7c7,1.1,9.1,2,9,2.6s-2.4.8-9.4-.3c-4.3-.7-9.8-2-12.6-2.8-1.6-.5-1.5-.8.1-.8,2.9.1,8.5.6,12.9,1.3h0Z"/>
      <path class="cls-19" d="M429.7,591.6c8.5,0,15,1.3,19.7,2.8,4.7,1.5,5.9,2.7-2.7,2.7-5.2,0-15.2-1.1-21.2-1.9-3.4-.5-6.2-1.4-5.7-1.8,1-.8,4.6-1.8,9.8-1.8h0Z"/>
      <path class="cls-15" d="M420.3,591.8c.3,0,.7,0,.9-.1.4,0,.8-.2,1.3-.2.9-.1,1.8-.2,3-.3,9.2-.5,17.6.8,24.4,2.8,1.7.5,3,1.1,4.1,1.6,1.8.7,2.5,1.3,3.1,1.1.4,0-.5-.9-1.3-1.2-1.1-.6-2.7-1.2-4.6-1.8-6.3-1.9-15.6-3.4-25.2-2.9-1.8,0-3.2.3-4.4.6-.4,0-1.8.3-1.5.5,0,0,.1,0,.2,0h0Z"/>
      <path class="cls-23" d="M428.3,592.6c5.1,0,8.9.8,11.7,1.7s3.5,1.6-1.6,1.6c-3.1,0-9.1-.7-12.6-1.2-2-.3-3.7-.8-3.4-1.1.6-.5,2.7-1.1,5.9-1h0Z"/>
      <path class="cls-19" d="M351.9,575.8c.3-1.8,5.9-1.5,12.7-.4,6.8,1.1,12.2,2.5,12,4.4-.2,1.1-5.1,1.8-8.8,2-2.1,0-6.2-.6-8.2-1.3-3.5-1.3-7.9-3.5-7.7-4.6Z"/>
      <path class="cls-15" d="M352.7,578.2c.3,0-.4-.3-.6-.4-.4-.2-.8-.4-1.1-.6-.6-.4-1.1-.8-1.3-1.1-2-2.7,3.8-2.8,12.8-1.4,2.2.3,4.8.8,7,1.3,3.3.6,5.7,1.2,4.9.9-.2-.2-3.8-1.1-5.4-1.4-2.5-.5-5.5-1.1-8-1.5-8.5-1.2-15.5-1.4-13.3,1.5.4.5,1.4,1.2,2.5,1.8.3.2,1.2.8,2,1,.2,0,.3,0,.4,0h0Z"/>
      <path class="cls-23" d="M356.7,577.6c.2-1.1,3.5-.9,7.6-.2s7.3,1.5,7.1,2.6c-.1.7-3,1.1-5.2,1.2-1.3,0-3.7-.3-4.9-.8-2.1-.8-4.7-2.1-4.6-2.8Z"/>
      <path class="cls-19" d="M281,570.9c-8.1-2.6-6.6-3.4-1.7-3.4,4.9,0,11.5.9,19.6,3.5,5,1.6,8,3.7,8.8,4.7.4.6-2.6.6-6,0-5.9-1.1-15.7-3.2-20.7-4.8h0Z"/>
      <path class="cls-15" d="M291.6,574.1c0,0-1.3-.3-1.6-.4-1-.2-1.9-.4-2.8-.7-1.7-.4-3.4-.8-4.9-1.2-12-3.3-12.2-4.7-6.3-4.9,1.4,0,3.8.1,5.8.3,2.8.2,5.6.5,3.9.1-.8-.2-4.9-.7-6.3-.8-2.4-.2-5.1-.4-6.7-.3-5.6.1-6.2,1.5,6.4,5,2.4.7,5.2,1.3,7.9,1.9.8.2,3.5.8,4.4.9.2,0,.3,0,.3,0h0Z"/>
      <path class="cls-23" d="M289.2,572.4c-4.9-1.6-4-2-1-2,3,0,6.8.5,11.7,2.1,3,1,4.8,2.2,5.2,2.8.2.4-1.5.3-3.5,0-3.5-.7-9.4-1.9-12.4-2.9Z"/>
      <path class="cls-19" d="M258.6,579.8c-11.8-1.9-15.3-3.3-15.1-4.4s3.9-1.3,15.7.6c7.2,1.2,16.4,3.4,21.2,4.7,2.7.8,2.6,1.4-.2,1.3-4.9-.2-14.4-1-21.6-2.2h0Z"/>
      <path class="cls-15" d="M272.8,581.8c-.2,0-1.4-.2-1.8-.2-1,0-1.9-.2-2.9-.3-1.8-.2-3.7-.4-5.5-.7-15-2-21.1-3.9-21.7-5.4-.2-.4.6-.7,1.2-.9.7-.4,2.2-.6.5-.7-.8,0-3,.1-3.6.3-.9.3-1.6.6-1.5,1,.5,1.4,6.7,3.5,22.3,5.6,3,.4,5.9.7,8.7,1,.8,0,3.8.4,4.2.3.1,0,.1,0,0,0h0Z"/>
      <path class="cls-23" d="M265.5,580.1c-7-1.1-9.1-2-9-2.6s2.4-.8,9.4.3c4.3.7,9.8,2,12.6,2.8,1.6.5,1.5.8-.1.8-2.9-.1-8.5-.6-12.9-1.3h0Z"/>
      <path class="cls-19" d="M297.9,597.2c-8.5,0-15-1.3-19.7-2.8-4.7-1.5-5.9-2.7,2.7-2.7,5.2,0,15.2,1.1,21.2,1.9,3.4.5,6.2,1.4,5.7,1.8-1,.8-4.6,1.8-9.8,1.8h0Z"/>
      <path class="cls-15" d="M307.3,597c-.3,0-.7,0-.9.1-.4,0-.8.2-1.3.2-.9.1-1.8.2-3,.3-9.2.5-17.6-.8-24.4-2.8-1.7-.5-3-1.1-4.1-1.6-1.8-.7-2.5-1.3-3.1-1.1-.4,0,.5.9,1.3,1.2,1.1.6,2.7,1.2,4.6,1.8,6.3,1.9,15.6,3.4,25.2,2.9,1.8,0,3.2-.3,4.4-.6.4,0,1.8-.3,1.5-.5,0,0-.1,0-.2,0h0Z"/>
      <path class="cls-23" d="M299.2,596.1c-5.1,0-8.9-.8-11.7-1.7s-3.5-1.6,1.6-1.6c3.1,0,9.1.7,12.6,1.2,2,.3,3.7.8,3.4,1.1-.6.5-2.7,1.1-5.9,1h0Z"/>
      <path class="cls-19" d="M369.9,603.4c-.1.9-3,.7-6.5.2s-6.2-1.3-6.1-2.2c0-.5,2.6-.9,4.4-.9,1.1,0,3.2.3,4.2.7,1.8.7,4,1.7,3.9,2.3h0Z"/>
      <path class="cls-15" d="M369.4,602.2c-.1,0,.2.1.3.2.2.1.4.2.5.3.3.2.5.4.7.5,1,1.3-1.9,1.3-6.5.7-1.1-.2-2.5-.4-3.6-.7-1.7-.3-2.9-.6-2.5-.4.1,0,2,.5,2.7.7,1.3.3,2.8.6,4.1.8,4.3.6,7.9.7,6.7-.7-.2-.3-.7-.6-1.3-.9-.2,0-.6-.4-1-.5-.1,0-.2,0-.2,0h0Z"/>
      <path class="cls-23" d="M367.4,602.5c0,.5-1.8.4-3.9,0s-3.7-.8-3.6-1.3c0-.3,1.5-.5,2.6-.5.6,0,1.9.2,2.5.4,1,.4,2.4,1,2.3,1.4h0Z"/>
      <path class="cls-19" d="M405.9,606c4.1,1.3,3.4,1.7.9,1.7-2.5,0-5.8-.5-10-1.8-2.5-.8-4.1-1.8-4.5-2.3-.2-.3,1.3-.3,3,0,3,.5,8,1.6,10.5,2.4h0Z"/>
      <path class="cls-15" d="M400.5,604.5s.7.2.8.2c.5.1,1,.2,1.4.3.9.2,1.7.4,2.5.6,6.1,1.7,6.2,2.3,3.2,2.4-.7,0-1.9,0-3-.2-1.4,0-2.9-.2-2,0,.4,0,2.5.3,3.2.4,1.2,0,2.6.2,3.4.2,2.9,0,3.1-.7-3.3-2.5-1.2-.3-2.6-.7-4-1-.4,0-1.8-.4-2.2-.5-.1,0-.2,0-.2,0h0Z"/>
      <path class="cls-23" d="M401.7,605.3c2.5.8,2,1,.5,1s-3.5-.3-5.9-1c-1.5-.5-2.4-1.1-2.7-1.4-.1-.2.8-.2,1.8,0,1.8.3,4.8,1,6.3,1.4h0Z"/>
      <path class="cls-19" d="M417.2,601.8c6,1,7.8,1.7,7.7,2.2s-2,.6-8-.3c-3.7-.6-8.4-1.7-10.8-2.4-1.4-.4-1.3-.7.1-.6,2.5.1,7.3.5,11,1.1h0Z"/>
      <path class="cls-15" d="M410,600.8c0,0,.7,0,.9,0,.5,0,1,0,1.5.2.9,0,1.9.2,2.8.3,7.6,1,10.7,2,11,2.7,0,.2-.3.3-.6.5-.4.2-1.1.3-.3.3.4,0,1.5,0,1.8-.1.4-.1.8-.3.8-.5-.3-.7-3.4-1.7-11.4-2.8-1.5-.2-3-.4-4.4-.5-.4,0-1.9-.2-2.1-.2,0,0,0,0,0,0h0Z"/>
      <path class="cls-23" d="M413.7,601.7c3.6.6,4.6,1,4.6,1.3s-1.2.4-4.8-.2c-2.2-.3-5-1-6.4-1.4-.8-.2-.8-.4,0-.4,1.5,0,4.3.3,6.5.7h0Z"/>
      <path class="cls-19" d="M397.2,593.2c4.3,0,7.6.7,10,1.4,2.4.8,3,1.3-1.4,1.3-2.7,0-7.7-.6-10.8-1-1.7-.2-3.2-.7-2.9-.9.5-.4,2.3-.8,5-.8Z"/>
      <path class="cls-15" d="M392.5,593.3c.2,0,.4,0,.4,0,.2,0,.4,0,.7-.1.4,0,.9-.1,1.5-.1,4.7-.2,8.9.5,12.4,1.5.8.2,1.5.5,2.1.8.9.4,1.3.6,1.6.5.2,0-.3-.4-.6-.6-.6-.3-1.4-.6-2.4-.9-3.2-.9-8-1.7-12.8-1.5-.9,0-1.6.1-2.2.3-.2,0-.9.1-.8.2,0,0,0,0,.1,0h0Z"/>
      <path class="cls-23" d="M396.5,593.8c2.6,0,4.5.4,6,.9s1.8.8-.8.8c-1.6,0-4.6-.3-6.4-.6-1-.1-1.9-.4-1.7-.5.3-.2,1.4-.5,3-.5h0Z"/>
      <path class="cls-19" d="M357.7,585.3c.1-.9,3-.7,6.5-.2,3.5.6,6.2,1.3,6.1,2.2,0,.5-2.6.9-4.4.9-1.1,0-3.2-.3-4.2-.7-1.8-.7-4-1.7-3.9-2.3h0Z"/>
      <path class="cls-15" d="M358.1,586.5c.1,0-.2-.1-.3-.2-.2-.1-.4-.2-.5-.3-.3-.2-.5-.4-.7-.5-1-1.3,1.9-1.3,6.5-.7,1.1.2,2.5.4,3.6.7,1.7.3,2.9.6,2.5.4-.1,0-2-.5-2.7-.7-1.3-.3-2.8-.6-4.1-.8-4.3-.6-7.9-.7-6.7.7.2.3.7.6,1.3.9.2,0,.6.4,1,.5.1,0,.2,0,.2,0h0Z"/>
      <path class="cls-23" d="M360.1,586.2c0-.5,1.8-.4,3.9,0s3.7.8,3.6,1.3c0,.3-1.5.5-2.6.5-.6,0-1.9-.2-2.5-.4-1-.4-2.4-1-2.3-1.4h0Z"/>
      <path class="cls-19" d="M321.7,582.7c-4.1-1.3-3.4-1.7-.9-1.7,2.5,0,5.8.5,10,1.8,2.5.8,4.1,1.8,4.5,2.3.2.3-1.3.3-3,0-3-.5-8-1.6-10.5-2.4h0Z"/>
      <path class="cls-15" d="M327.1,584.2s-.7-.2-.8-.2c-.5-.1-1-.2-1.4-.3-.9-.2-1.7-.4-2.5-.6-6.1-1.7-6.2-2.3-3.2-2.4.7,0,1.9,0,3,.2,1.4,0,2.9.3,2,0-.4,0-2.5-.3-3.2-.4-1.2,0-2.6-.2-3.4-.2-2.9,0-3.1.7,3.3,2.5,1.2.3,2.6.7,4,1,.4,0,1.8.4,2.2.5.1,0,.2,0,.2,0h0Z"/>
      <path class="cls-23" d="M325.9,583.4c-2.5-.8-2-1-.5-1,1.5,0,3.5.3,5.9,1,1.5.5,2.4,1.1,2.7,1.4.1.2-.8.2-1.8,0-1.8-.3-4.8-1-6.3-1.4h0Z"/>
      <path class="cls-19" d="M310.4,586.9c-6-1-7.8-1.7-7.7-2.2s2-.6,8,.3c3.7.6,8.4,1.7,10.8,2.4,1.4.4,1.3.7-.1.6-2.5-.1-7.3-.5-11-1.1h0Z"/>
      <path class="cls-15" d="M317.5,588c0,0-.7,0-.9,0-.5,0-1,0-1.5-.2-.9,0-1.9-.2-2.8-.3-7.6-1-10.7-2-11-2.7,0-.2.3-.3.6-.4.4-.2,1.1-.3.3-.3-.4,0-1.5,0-1.8.1-.4.1-.8.3-.8.5.3.7,3.4,1.7,11.4,2.8,1.5.2,3,.4,4.4.5.4,0,1.9.2,2.1.2,0,0,0,0,0,0h0Z"/>
      <path class="cls-23" d="M313.8,587c-3.6-.6-4.6-1-4.6-1.3s1.2-.4,4.8.2c2.2.3,5,1,6.4,1.4.8.2.8.4,0,.4-1.5,0-4.3-.3-6.5-.7h0Z"/>
      <path class="cls-19" d="M330.3,595.5c-4.3,0-7.6-.7-10-1.4s-3-1.3,1.4-1.3c2.7,0,7.7.6,10.8,1,1.7.2,3.2.7,2.9.9-.5.4-2.3.8-5,.8h0Z"/>
      <path class="cls-15" d="M335.1,595.4c-.2,0-.4,0-.4,0-.2,0-.4,0-.7.1-.4,0-.9.1-1.5.1-4.7.2-8.9-.5-12.4-1.5-.8-.2-1.5-.5-2.1-.8-.9-.4-1.3-.6-1.6-.5-.2,0,.3.4.6.6.6.3,1.4.6,2.4.9,3.2.9,8,1.7,12.8,1.5.9,0,1.6-.1,2.2-.3.2,0,.9-.1.8-.2,0,0,0,0-.1,0h0Z"/>
      <path class="cls-23" d="M331,594.9c-2.6,0-4.5-.4-6-.9s-1.8-.8.8-.8c1.6,0,4.6.3,6.4.6,1,.1,1.9.4,1.7.5-.3.2-1.4.5-3,.5h0Z"/>
      <path class="cls-9" d="M159.9,315.7c19.9-123.8,125-228.6,281.4-203.4,156.4,25.2,223.3,157.6,203.4,281.4l-484.8-78h0Z"/>
      <path class="cls-6" d="M573,183.9c6.4,8.4,12.2,18.1,11.7,29.1-.4,7.4-3.6,15-1.5,22.1,3.5,11.5,19.3,15.9,22.5,27.5,3,10.8-6.7,21.2-6.8,32.4-.1,6.1,2.6,11.9,4,17.9,2,8.9,1,18.4-3,26.6-1.8,3.9-4.4,7.6-4.8,11.8-.6,5.5,2.4,10.8,2.5,16.3,0,6.3-3.5,11.7-6.8,17.3l40.3,6.5c2.3-8.3.6-17.6-2.6-25.3-1.5-3.7-3.2-8.5-.4-11.4,1.2-1.3,3.1-1.8,4.5-2.9,2.7-2.1,3.3-5.9,3.6-9.3,1.9-23,2-47.9-1.3-70.9-6.8-21.7-16.5-41.8-28.6-60-13.1-19.1-29.3-36.4-48.5-51.1,4.9,8.1,9.5,15.7,15.3,23.4h0ZM496,154.4c-.6,6.4-4.3,12.6-2.9,18.8,1.8,7.9,11.3,12.2,13.6,20,1.5,5-.3,10.3-1.1,15.5-1.7,9.9.4,20.9,7.6,27.9,2.4,2.3,5.2,4.1,7.6,6.4,5.9,5.8,8.4,14.9,6.3,22.9-3.6,13.8-17.9,17.7-19.8,33.6-.7,6.3,1.5,13.3,6.9,16.5,1.9,1.1,4.1,1.8,5.5,3.4,2.6,2.9,1.4,7.8-1.4,10.5-1.6,1.5-3.6,2.6-4.8,4.4-2.3,3.3-1.3,7.8-.8,11.8.6,4,.2,8.9-3.3,10.9-5.6,3.1-8.7,7.8-10.8,13.2l54,8.7c2.3-2.5,3.9-5.3,4.1-8.8.2-4-1.6-7.8-1.9-11.8-1.1-14.4,17.3-26.6,12.3-40.1-2-5.5-15.8-13.2-9.2-18.9,1.2-1,2.8-1.5,4.2-2.3,3.6-2,5.7-6.2,6.3-10.3s0-8.3-.7-12.4c-.3-1.8-.6-3.7-1.6-5.2-2.1-3-6.2-3.5-9.6-4.9-4.4-1.8-8-5.5-9.7-10-1.2-3.1-1.2-7.2,1.5-9.3,1.6-1.2,3.8-1.4,5.7-2.3,3.1-1.5,4.8-4.9,5.2-8.2,1.1-9.4-6.1-10.5-8-18.7-1.5-6.6,1.8-14.2-2.9-20.1-3-3.7-8.4-4.9-10.7-9-4-7.2,1.2-16.6-2.4-24.7-4-9.1-10.7-17.8-17.1-25.8-13.2-6.4-27.4-11.9-42.7-16.2,8.1,10.7,21.9,20,20.5,34.5h0ZM296.1,181c-4.1,4.7-5.5,12.3-1.6,17.1-5.2,3.2-8.9,8.7-9.9,14.7-.4,2.2-.4,4.6-1.5,6.5-2.8,4.9-12,7-10,12.3,2.4,6.2,14-.8,17.9,4.5-.5,4.9-4.6,8.5-9,10.8-4.3,2.3-9.1,3.7-12.9,6.8-5.2,4.1-7.8,11.2-6.7,17.7.5,2.9,1.7,5.7,1.2,8.6-1.3,7.7-5.7,13.5-6.3,21.7-.8,9.8-3.3,19.2-4.6,29l27.8,4.5c-2.3-7,.5-15.6,7-19.2,5.3-3,12-2.8,16.9-6.3,5.9-4.2,7.3-12.9,4.3-19.4-1.3-2.9-3.5-5.6-3.7-8.8-.7-7.1,10-16.6,13.6-22.2.6-.9,1.2-2,.9-3.1-.3-1.1-1.4-1.8-2.5-2.2-5.6-2.4-11.4-2.4-15-7.5-4.8-6.8,2.1-15.5,9.5-16.3,3.6-.4,7.7.7,10.7-1.4,3.8-2.7,5.2-10.7,7.8-14.3,3.4-4.6,9.1-7.9,5.8-15-1.4-2.9-4.2-5-5.6-7.9-3.9-7.8,3.7-16.5,11.4-20.6,7.6-4.2,17-7.8,19.7-16.1,1.3-4,.7-8.3,1.3-12.5,1-7,5.7-13.3,12.1-16.4,5.5-2.6,12.2-2.7,17.3-6.2,3.9-2.6,7.1-6.9,10.4-10.7-16.4-.4-32.2.7-47.2,3.1-8.9,5.5-20.9,13.8-18.2,19.7.5,1.1,1.3,2.1,1.6,3.3.6,2.7-1.9,5.2-4.6,6-2.7.7-5.5.3-8.3.5-6.8.4-13.1,4.8-15.9,11-2.8,6.2-1.9,13.9,2.3,19.2-5.8,2.3-11.8,4.8-15.8,9.5h0ZM175.7,318.2l38.9,6.3c-.2-.2-.3-.5-.5-.7-1.6-1.6-3.7-2.6-5.2-4.2-3.1-3.1-3.9-7.9-3.8-12.3.2-6.1,1.9-12.2,4.9-17.5,2.4-4.2,5.7-8.2,6.3-13,.5-4.1-1-8.2-1.7-12.3-.7-4.1-.4-8.9,2.8-11.6,4.3-3.6,19.9-7.1,14.7-16.1-1.6-2.7-4.9-4.1-6.5-6.9-2.6-4.6.9-10.4,5.1-13.7s9.3-6.1,11.3-11c3.8-9.7-6.8-22.3,4.8-30.2,4-2.7,9.5-2.7,13.1-5.9,2.5-2.1,3.7-5.4,5.9-7.8,4.6-4.9,12.2-5.3,18-8.8,6.2-3.7,9.3-10.7,13.8-16,4.1-4.7,8.8-9.1,13.5-13.3-36.9,13.7-68,36.3-92.4,64.5-.5,2.4-1,4.7-3.4,7.2-3.4,3.5-7.7,6.7-8.8,11.5-1.8,7.7,4,14.8,1.2,22.9-1.7,5.1-8.2,7.6-11.8,11.3-4.7,4.7-7.9,10.4-9.8,16.7-3.8,12.7-4,26.2-8.1,38.9-2.5,7.6-4.1,14.8-2.2,21.9h0ZM373.9,329.5c4.5,3.9,12.5,6.2,11.9,13.6-.3,3.6-2.7,5.9-5.8,8l65.5,10.5c1-3.7,5-6.1,6-9.9,1.1-4-1.7-8-4.7-11-5.5-5.4-12.9-15.8-3.2-22,4.5-2.9,11.1-3.5,13.8-8.7,1-1.8,1.2-3.9,1.2-6,0-18.9-13-35.3-5.8-54.2,7.4-19.3,1.4-22-16.1-27.4-11.1-3.5-10.6-16.6.5-20.1,9.3-2.9,22.8,1.1,22.6-13.1,0-4.6-3.7-8.2-3.5-13,.1-3.2,2.6-5.9,3-9.1,1.1-8.2-4.2-21.5-12.9-23.9-2.6-.7-5.5-.6-7.7-2.1-3.4-2.2-3.6-7.9-.4-10.4,2.3-1.8,5.5-1.8,8.4-2.3,7.5-1.3,6.4-5.9,4.5-11.5-.4-1.3-.8-2.3-1.2-3.2-2.8-.5-5.7-1.1-8.6-1.6-4.8-.8-9.5-1.4-14.1-1.9-5.1,10.2-13.8,21.8-12.7,32.6.2,2.1.7,4.2.2,6.3-.9,4.4-5.3,7-7.9,10.6-2.1,3.1-2.9,6.9-3.5,10.6-.9,5.7-6.6,19-5.2,24.1,2.2,8.5,20,10,11.3,22.1-4.7,6.6-19-.5-24,6.7-3.8,5.4,1.8,12.1,2.1,17.8.4,7.1-4,14.1,1.3,20.6,2.2,2.7,5.8,4.3,7.1,7.6,4.5,10.8-10,11.4-15.1,15.2-7,5.2-8.1,18.9-10.6,27.1-2.6,9-2.6,12.4,3.7,17.9h0Z"/>
      <path class="cls-20" d="M159.9,315.7c3.4-21.2,114.7-21,248.6.5,133.9,21.5,239.6,56.2,236.2,77.4s-114.7,21-248.6-.5c-133.9-21.5-239.6-56.2-236.2-77.4h0Z"/>
      <ellipse class="cls-22" cx="402.3" cy="354.7" rx="33.8" ry="236.6" transform="translate(-11.8 695.6) rotate(-80.9)"/>
      <path class="cls-10" d="M183.4,319.5c2.5-15.3,102.5-11.9,223.4,7.5,120.9,19.5,216.9,47.6,214.5,62.9-2.5,15.3-102.5,11.9-223.4-7.5s-217-47.6-214.5-62.9h0Z"/>
      <path class="cls-2" d="M236.9,328.1c1.9-11.5,77.4-9,168.7,5.7s163.9,36,162,47.5-77.4,9-168.7-5.7c-91.3-14.7-163.9-36-162-47.5h0Z"/>
      <path class="cls-8" d="M423.8,222.5c27.4,3.8,54.5,10,80.4,19.2,29.6,10.5,57.8,25,83.1,43.7,26.5,19.6,44.3,41.2,60.8,69.3,1.5-111.3-66.7-219.9-206.8-242.4s-238.9,59.1-272.3,165.3c3.2-10.3,23-17,31.6-21.7,14.1-7.7,29.3-13.8,44-20.7,36.3-17.2,78.2-18.4,117.6-17.5,20.5.4,41.1,1.9,61.6,4.8h0Z"/>
      <path class="cls-8" d="M522.3,152.6c-58.7-34.8-133.9-45.9-196.3-25.8-19.5,6.3-38.4,15.2-54.5,27.9-7.9,6.2-15.1,13.3-21.4,21.2-3,3.8-6.1,7.8-8.5,12-.1.2-5.3,12.2-2.4,11,5-2.1,9.4-7.4,14.4-10.2,44.7-24.6,96.2-28.1,146.1-22.2,50.3,5.9,108.3,13.9,149.6,45.1,18.2,13.7,34.2,30.1,50.7,45.9,8.6,8.2,9,.3,7.2-6.7-2.2-8.9-5.3-16.7-9.9-24.7-17.5-30.3-44-55.2-75-73.5h0Z"/>
      <path class="cls-19" d="M390.4,336.1c.3-1.8,5.9-1.5,12.7-.4s12.2,2.5,12,4.4c-.2,1.1-5.1,1.8-8.8,2-2.1.1-6.2-.6-8.2-1.3-3.5-1.3-7.9-3.5-7.7-4.6h0Z"/>
      <path class="cls-15" d="M391.3,338.5c.3,0-.4-.3-.6-.4-.4-.2-.8-.4-1.1-.6-.6-.4-1.1-.8-1.3-1.1-2-2.7,3.8-2.8,12.8-1.4,2.2.3,4.8.9,7,1.3,3.3.6,5.7,1.2,5,.9-.2-.2-3.8-1.1-5.4-1.4-2.5-.5-5.5-1.1-8-1.5-8.5-1.2-15.5-1.4-13.3,1.5.4.5,1.4,1.2,2.5,1.8.3.2,1.2.8,2,1,.2,0,.3,0,.4,0h0Z"/>
      <path class="cls-23" d="M395.2,338c.2-1.1,3.5-.9,7.6-.2s7.3,1.5,7.1,2.6c-.1.7-3,1.1-5.2,1.2-1.3,0-3.7-.3-4.9-.8-2.1-.8-4.7-2.1-4.6-2.8h0Z"/>
      <path class="cls-19" d="M319.6,331.2c-8.1-2.6-6.6-3.4-1.7-3.4s11.5.9,19.6,3.5c5,1.6,8,3.7,8.8,4.7.4.6-2.6.6-6,0-5.9-1.1-15.7-3.2-20.7-4.8h0Z"/>
      <path class="cls-15" d="M330.2,334.4c0,0-1.3-.3-1.6-.4-1-.2-1.9-.4-2.8-.6-1.7-.4-3.4-.8-4.9-1.2-12-3.4-12.2-4.7-6.3-4.9,1.4,0,3.8.1,5.8.3,2.8.2,5.6.5,3.9.1-.8-.2-4.9-.7-6.3-.8-2.4-.2-5.1-.4-6.7-.3-5.6.1-6.2,1.5,6.4,5,2.4.7,5.2,1.3,7.9,1.9.8.2,3.5.8,4.4.9.2,0,.3,0,.3,0h0Z"/>
      <path class="cls-23" d="M327.8,332.7c-4.9-1.6-4-2-1-2,3,0,6.8.5,11.7,2.1,3,1,4.8,2.2,5.2,2.8.2.4-1.5.4-3.5,0-3.5-.6-9.4-1.9-12.4-2.9h0Z"/>
      <path class="cls-19" d="M297.2,340.1c-11.8-1.9-15.3-3.3-15.1-4.4s3.9-1.3,15.7.6c7.2,1.2,16.4,3.4,21.2,4.7,2.7.8,2.6,1.4-.2,1.3-4.9-.2-14.4-1-21.6-2.2Z"/>
      <path class="cls-15" d="M311.4,342.2c-.2,0-1.4-.2-1.8-.2-1,0-1.9-.2-2.9-.3-1.8-.2-3.7-.4-5.5-.7-15-2-21.1-3.9-21.7-5.4-.2-.4.6-.7,1.2-.9.7-.4,2.2-.6.5-.7-.8-.1-3,.1-3.6.3-.9.3-1.6.6-1.5,1,.5,1.4,6.7,3.5,22.3,5.6,3,.4,5.9.7,8.7,1,.8,0,3.8.4,4.2.3.1,0,.1,0,0,0h0Z"/>
      <path class="cls-23" d="M304,340.4c-7-1.1-9.1-2-9-2.6s2.4-.8,9.4.3c4.3.7,9.8,2,12.6,2.8,1.6.5,1.5.8-.1.8-2.9-.1-8.5-.6-12.9-1.3h0Z"/>
      <path class="cls-19" d="M336.4,357.5c-8.5,0-15-1.3-19.7-2.8-4.7-1.5-5.9-2.7,2.7-2.7,5.2,0,15.2,1.1,21.2,1.9,3.4.5,6.2,1.4,5.7,1.8-1,.8-4.6,1.8-9.8,1.8h0Z"/>
      <path class="cls-15" d="M345.8,357.3c-.3,0-.7,0-.9.1-.4,0-.8.2-1.3.2-.9.1-1.8.2-3,.3-9.2.5-17.6-.8-24.4-2.8-1.7-.5-3-1.1-4.1-1.6-1.8-.7-2.5-1.3-3.1-1.1-.4,0,.5.9,1.3,1.2,1.1.6,2.7,1.2,4.6,1.8,6.3,1.9,15.6,3.4,25.2,2.9,1.8-.1,3.2-.3,4.4-.6.4,0,1.8-.3,1.5-.5,0,0-.1,0-.2,0h0Z"/>
      <path class="cls-23" d="M337.8,356.4c-5.1,0-8.9-.8-11.7-1.7s-3.5-1.6,1.6-1.6c3.1,0,9.1.7,12.6,1.1,2,.3,3.7.8,3.4,1.1-.6.5-2.7,1.1-5.9,1Z"/>
      <path class="cls-19" d="M414.2,373.2c-.3,1.8-5.9,1.5-12.7.4s-12.2-2.5-12-4.4c.2-1.1,5.1-1.8,8.8-2,2.1-.1,6.2.6,8.2,1.3,3.5,1.3,7.9,3.5,7.7,4.6h0Z"/>
      <path class="cls-15" d="M413.4,370.9c-.3,0,.4.3.6.4.4.2.8.4,1.1.6.6.4,1.1.8,1.3,1.1,2,2.7-3.8,2.8-12.8,1.4-2.2-.3-4.8-.9-7-1.3-3.3-.6-5.7-1.2-4.9-.9.2.2,3.8,1.1,5.4,1.4,2.5.5,5.5,1.1,8,1.5,8.5,1.2,15.5,1.4,13.3-1.5-.4-.5-1.4-1.2-2.5-1.8-.3-.2-1.2-.8-2-1-.2,0-.3,0-.4,0h0Z"/>
      <path class="cls-23" d="M409.4,371.4c-.2,1.1-3.5.9-7.6.2-4.1-.6-7.3-1.5-7.1-2.6.1-.7,3-1.1,5.2-1.2,1.3,0,3.7.3,4.9.8,2.1.8,4.7,2.1,4.6,2.8Z"/>
      <path class="cls-19" d="M485.1,378.1c8.1,2.6,6.6,3.4,1.7,3.4s-11.5-.9-19.6-3.5c-5-1.6-8-3.7-8.8-4.7-.4-.6,2.6-.6,6,0,5.9,1.1,15.7,3.2,20.7,4.8h0Z"/>
      <path class="cls-15" d="M474.5,375c0,0,1.3.3,1.6.4,1,.2,1.9.4,2.8.6,1.7.4,3.4.8,4.9,1.2,12,3.4,12.2,4.7,6.3,4.9-1.4,0-3.8-.1-5.8-.3-2.8-.2-5.6-.5-3.9-.1.8.2,4.9.7,6.3.8,2.4.2,5.1.4,6.7.3,5.6-.1,6.2-1.5-6.4-5-2.4-.7-5.2-1.3-7.9-1.9-.8-.2-3.5-.8-4.4-.9-.2,0-.3,0-.3,0h0Z"/>
      <path class="cls-23" d="M476.9,376.6c4.9,1.6,4,2,1,2-3,0-6.8-.5-11.7-2.1-3-1-4.8-2.2-5.2-2.8-.2-.4,1.5-.4,3.5,0,3.5.6,9.4,1.9,12.4,2.9Z"/>
      <path class="cls-19" d="M507.5,369.3c11.8,1.9,15.3,3.3,15.1,4.4s-3.9,1.3-15.7-.6c-7.2-1.2-16.4-3.4-21.2-4.7-2.7-.8-2.6-1.4.2-1.3,4.9.2,14.4,1,21.6,2.2h0Z"/>
      <path class="cls-15" d="M493.3,367.2c.2,0,1.4.2,1.8.2,1,0,1.9.2,2.9.3,1.8.2,3.7.4,5.5.7,15,2,21.1,3.9,21.7,5.4.2.4-.6.7-1.2.9-.7.4-2.2.6-.5.7.8.1,3-.1,3.6-.3.9-.3,1.7-.6,1.5-1-.5-1.4-6.7-3.5-22.3-5.6-3-.4-5.9-.7-8.7-1-.8,0-3.8-.4-4.2-.3-.1,0-.1,0,0,0h0Z"/>
      <path class="cls-23" d="M500.6,369c7,1.1,9.1,2,9,2.6s-2.4.8-9.4-.3c-4.3-.7-9.8-2-12.6-2.8-1.6-.5-1.5-.8.1-.8,2.9.1,8.5.6,12.9,1.3h0Z"/>
      <path class="cls-19" d="M468.2,351.9c8.5,0,15,1.3,19.7,2.8,4.7,1.5,5.9,2.7-2.7,2.7-5.2,0-15.2-1.1-21.2-1.9-3.4-.5-6.2-1.4-5.7-1.8,1-.8,4.6-1.8,9.8-1.8h0Z"/>
      <path class="cls-15" d="M458.8,352.1c.3,0,.7-.1.9-.1.4,0,.8-.2,1.3-.2.9-.1,1.8-.2,3-.3,9.2-.5,17.6.8,24.4,2.8,1.7.5,3,1.1,4.1,1.6,1.8.7,2.5,1.3,3.1,1.1.4,0-.5-.9-1.3-1.2-1.1-.6-2.7-1.2-4.6-1.8-6.3-1.9-15.6-3.4-25.2-2.9-1.8.1-3.2.3-4.4.6-.4,0-1.8.3-1.5.5,0,0,.1,0,.2,0h0Z"/>
      <path class="cls-23" d="M466.9,353c5.1,0,8.9.8,11.7,1.7s3.5,1.6-1.6,1.6c-3.1,0-9.1-.7-12.6-1.1-2-.3-3.7-.8-3.4-1.1.6-.5,2.7-1.1,5.9-1h0Z"/>
      <path class="cls-19" d="M396.2,345.6c.1-.9,3-.7,6.5-.1s6.2,1.3,6.1,2.2c0,.5-2.6.9-4.4.9-1.1,0-3.2-.3-4.2-.7-1.8-.7-4-1.7-3.9-2.3Z"/>
      <path class="cls-15" d="M396.6,346.8c.1,0-.2-.1-.3-.2-.2-.1-.4-.2-.5-.3-.3-.2-.5-.4-.7-.5-1-1.3,1.9-1.3,6.5-.6,1.1.2,2.5.4,3.6.6,1.7.3,2.9.6,2.5.4-.1,0-2-.5-2.7-.7-1.3-.3-2.8-.6-4.1-.8-4.3-.6-7.9-.7-6.7.7.2.3.7.6,1.3.9.2,0,.6.4,1,.5.1,0,.2,0,.2,0h0Z"/>
      <path class="cls-23" d="M398.7,346.5c0-.5,1.8-.4,3.9,0s3.7.8,3.6,1.3c0,.3-1.5.5-2.6.5-.6,0-1.9-.2-2.5-.4-1-.4-2.4-1-2.3-1.4h0Z"/>
      <path class="cls-19" d="M360.2,343c-4.1-1.3-3.4-1.7-.9-1.6,2.5,0,5.8.5,10,1.8,2.5.8,4.1,1.8,4.5,2.3.2.3-1.3.3-3,0-3-.5-8-1.6-10.5-2.4h0Z"/>
      <path class="cls-15" d="M365.6,344.6s-.7-.2-.8-.2c-.5-.1-1-.2-1.4-.3-.9-.2-1.7-.4-2.5-.6-6.1-1.7-6.2-2.3-3.2-2.4.7,0,1.9,0,3,.1,1.4,0,2.9.2,2,0-.4,0-2.5-.3-3.2-.4-1.2-.1-2.6-.2-3.4-.2-2.9,0-3.1.7,3.3,2.5,1.2.3,2.6.7,4,1,.4,0,1.8.4,2.2.5.1,0,.2,0,.2,0h0Z"/>
      <path class="cls-23" d="M364.4,343.8c-2.5-.8-2-1-.5-1s3.5.3,5.9,1c1.5.5,2.4,1.1,2.7,1.4.1.2-.8.2-1.8,0-1.8-.3-4.8-1-6.3-1.4h0Z"/>
      <path class="cls-19" d="M348.9,347.2c-6-1-7.8-1.7-7.7-2.2s2-.6,8,.3c3.7.6,8.4,1.7,10.8,2.4,1.4.4,1.3.7-.1.6-2.5-.1-7.3-.5-11-1.1h0Z"/>
      <path class="cls-15" d="M356.1,348.3c0,0-.7,0-.9-.1-.5,0-1-.1-1.5-.1-.9-.1-1.9-.2-2.8-.3-7.6-1-10.7-2-11-2.7,0-.2.3-.3.6-.5.4-.2,1.1-.3.3-.3-.4,0-1.5,0-1.8.1-.4.1-.8.3-.8.5.3.7,3.4,1.7,11.4,2.8,1.5.2,3,.4,4.4.5.4,0,1.9.2,2.1.2,0,0,0,0,0,0h0Z"/>
      <path class="cls-23" d="M352.4,347.4c-3.6-.6-4.6-1-4.6-1.3s1.2-.4,4.8.2c2.2.4,5,1,6.4,1.4.8.2.8.4,0,.4-1.5,0-4.3-.3-6.5-.7h0Z"/>
      <path class="cls-19" d="M368.9,355.8c-4.3,0-7.6-.7-10-1.4-2.4-.8-3-1.4,1.4-1.3,2.7,0,7.7.6,10.8,1,1.7.2,3.2.7,2.9.9-.5.4-2.3.9-5,.8Z"/>
      <path class="cls-15" d="M373.6,355.7c-.2,0-.4,0-.4,0-.2,0-.4,0-.7.1-.4,0-.9.1-1.5.1-4.7.2-8.9-.5-12.4-1.5-.8-.2-1.5-.5-2.1-.8-.9-.4-1.3-.6-1.6-.5-.2,0,.3.4.6.6.6.3,1.4.6,2.4.9,3.2.9,8,1.7,12.8,1.5.9,0,1.6-.1,2.2-.3.2,0,.9-.1.8-.2,0,0,0,0-.1,0h0Z"/>
      <path class="cls-23" d="M369.6,355.3c-2.6,0-4.5-.4-6-.9-1.4-.5-1.8-.8.8-.8,1.6,0,4.6.4,6.4.6,1,.1,1.9.4,1.7.5-.3.2-1.4.5-3,.5h0Z"/>
      <path class="cls-19" d="M408.4,363.7c-.1.9-3,.7-6.5.1s-6.2-1.3-6.1-2.2c0-.5,2.6-.9,4.4-.9,1.1,0,3.2.3,4.2.7,1.8.7,4,1.7,3.9,2.3Z"/>
      <path class="cls-15" d="M408,362.6c-.1,0,.2.1.3.2.2.1.4.2.5.3.3.2.5.4.7.5,1,1.3-1.9,1.3-6.5.6-1.1-.2-2.5-.4-3.6-.6-1.7-.3-2.9-.6-2.5-.4.1,0,2,.5,2.7.7,1.3.3,2.8.6,4.1.8,4.3.6,7.9.7,6.7-.7-.2-.3-.7-.6-1.3-.9-.2,0-.6-.4-1-.5-.1,0-.2,0-.2,0h0Z"/>
      <path class="cls-23" d="M406,362.8c0,.5-1.8.4-3.9,0s-3.7-.8-3.6-1.3c0-.3,1.5-.5,2.6-.5.6,0,1.9.2,2.5.4,1,.4,2.4,1,2.3,1.4h0Z"/>
      <path class="cls-19" d="M444.4,366.4c4.1,1.3,3.4,1.7.9,1.6-2.5,0-5.8-.5-10-1.8-2.5-.8-4.1-1.8-4.5-2.3-.2-.3,1.3-.3,3,0,3,.5,8,1.6,10.5,2.4h0Z"/>
      <path class="cls-15" d="M439,364.8s.7.2.8.2c.5.1,1,.2,1.4.3.9.2,1.7.4,2.5.6,6.1,1.7,6.2,2.3,3.2,2.4-.7,0-1.9,0-3-.1-1.4,0-2.9-.3-2,0,.4,0,2.5.4,3.2.4,1.2.1,2.6.2,3.4.2,2.9,0,3.1-.7-3.3-2.5-1.2-.3-2.6-.7-4-1-.4,0-1.8-.4-2.2-.5-.1,0-.2,0-.2,0h0Z"/>
      <path class="cls-23" d="M440.2,365.6c2.5.8,2,1,.5,1-1.5,0-3.5-.3-5.9-1-1.5-.5-2.4-1.1-2.7-1.4-.1-.2.8-.2,1.8,0,1.8.3,4.8,1,6.3,1.4h0Z"/>
      <path class="cls-19" d="M455.8,362.2c6,1,7.8,1.7,7.7,2.2s-2,.6-8-.3c-3.7-.6-8.4-1.7-10.8-2.4-1.4-.4-1.3-.7.1-.6,2.5.1,7.3.5,11,1.1h0Z"/>
      <path class="cls-15" d="M448.6,361.1c0,0,.7,0,.9.1.5,0,1,.1,1.5.1.9.1,1.9.2,2.8.3,7.6,1,10.7,2,11,2.7,0,.2-.3.3-.6.4-.4.2-1.1.3-.3.3.4,0,1.5,0,1.8-.1.4-.1.8-.3.8-.5-.3-.7-3.4-1.7-11.4-2.8-1.5-.2-3-.4-4.4-.5-.4,0-1.9-.2-2.1-.2,0,0,0,0,0,0h0Z"/>
      <path class="cls-23" d="M452.3,362c3.6.6,4.6,1,4.6,1.3s-1.2.4-4.8-.2c-2.2-.4-5-1-6.4-1.4-.8-.2-.8-.4,0-.4,1.5,0,4.3.3,6.5.7h0Z"/>
      <path class="cls-19" d="M435.8,353.6c4.3,0,7.6.7,10,1.4s3,1.4-1.4,1.3c-2.7,0-7.7-.6-10.8-1-1.7-.2-3.2-.7-2.9-.9.5-.4,2.3-.9,5-.8h0Z"/>
      <path class="cls-15" d="M431,353.6c.2,0,.4,0,.4,0,.2,0,.4,0,.7-.1.4,0,.9-.1,1.5-.1,4.7-.2,8.9.5,12.4,1.5.8.2,1.5.5,2.1.8.9.4,1.3.6,1.6.5.2,0-.3-.4-.6-.6-.6-.3-1.4-.6-2.4-.9-3.2-.9-8-1.7-12.8-1.5-.9,0-1.6.1-2.2.3-.2,0-.9.1-.8.2,0,0,0,0,.1,0h0Z"/>
      <path class="cls-23" d="M435.1,354.1c2.6,0,4.5.4,6,.9,1.4.5,1.8.8-.8.8-1.6,0-4.6-.4-6.4-.6-1-.1-1.9-.4-1.7-.5.3-.2,1.4-.5,3-.5h0Z"/>
      <path class="cls-14" d="M384,409.4c0,.4,0,.8-.1,1.1-1.4,10.3-2.9,18.5-4.7,24.4-2,6.5-4.7,10.9-8.3,13.5-3.7,2.6-8.6,3.5-14.5,2.8-.3,0-.6,0-.8-.1-3.5-.6-6.6-1.7-9.2-3.5-3.1-2-5-4.5-5.7-7.2-.6-2.4-.7-4.7-.4-6.9.1-1.1.4-2.3.8-3.5.5-1.7.9-3.3,1.3-4.8-3.5,6.9-8.8,14.7-15.9,13.7h-.2c-6.9-1.1-9.9-10-11.5-17.4v5.1c0,1.2,0,2.4-.2,3.5-.3,2.2-1,4.5-2.2,6.6-1.4,2.5-3.9,4.4-7.4,5.5-3.2,1.1-6.8,1.3-10.6.8-.3,0-.6,0-.9-.1-5.5-.9-9.7-3-12.4-6.3-2.8-3.5-4.3-8.4-4.5-15.2-.2-6.1.4-14.5,1.8-24.8.8-6.2,1.8-12.2,2.9-18.2,1.8-13.2,4.3-25.9,7.3-37.7,1.7-6.4,6.6-13.5,21-11.6.3,0,.7.1,1,.1,5.9.9,10.3,3.2,13.1,6.7,2.8,3.4,4.8,8.1,6.2,13.8,1.7,7.5,3.6,16.1,5.6,25.4,4.1-8,8.1-15.8,12.1-23.1,2.8-5.1,6-9.1,9.5-11.7,3.9-2.8,9-3.8,15.4-3,.4,0,.7,0,1.1.1,13.4,2.2,16.2,10.2,16.1,16.5-.1,12.7-1.1,26.1-2.9,39.8-.8,5.9-1.6,11.1-2.5,15.6h0Z"/>
      <path class="cls-14" d="M269.5,390.1c-2.5,33.2-17.8,49.7-45.7,49-2.8,0-5.5-.3-8-.7-11.6-1.9-20.4-7.4-26-16.3-5.6-8.7-8.2-20.5-7.9-34.9.2-9.4,1.3-20.1,3.1-32,.2-1.3.5-2.5.9-3.7.5-4.2,1.1-8.5,1.8-13,.8-5.2,3.3-9,7.4-11.5,3.8-2.3,8.5-3.3,14.1-3.2,1.8,0,3.5.2,5,.4,4.2.7,7.8,2.1,10.5,4.3,4.1,3.2,6.1,7.5,6,12.8,0,1.2-.2,3.1-.6,5.9-1.3,8.8-2.1,15.4-2.1,19.6-.1,4.7.3,8.2,1.2,10.4.1.3.7,1.5,1.2,1.5h.1c0,0,.2,0,.3-.1,0-4.9-.6-11.4-1.5-19.3-.1-1.2-.2-2.3-.1-3.3,0-3.7,1.2-6.8,3.3-9.2-.1-1.3-.3-2.7-.5-4.2-.1-1.2-.2-2.3-.1-3.3.1-4.9,2.1-8.8,5.6-11.3,3.4-2.3,8-3.4,14.2-3.2,1.7,0,3.2.2,4.7.4,2,.3,3.9.9,5.5,1.6,3,1.4,5.3,3.6,6.9,6.8,1.4,2.8,2.4,6.5,2.9,11.1.8,7.4,1.1,14.9.9,22.2-.2,8.7-1.2,16.3-3,23h0Z"/>
      <path class="cls-14" d="M504.2,400.8c-1.6,12-4,24.6-7.2,37.4-2.5,10.1-5,18-7.5,23.7-2.7,6.2-5.9,10.3-9.8,12.5-3.3,1.8-7.4,2.4-12.1,1.6-.9-.1-1.8-.3-2.7-.5-3.8-1-7-2.5-9.6-4.7-2.8-2.4-4.4-5-4.8-7.8-.3-2.4-.2-4.8.4-6.9.3-1.1.6-2.2,1.1-3.4.6-1.5,1.2-2.9,1.7-4.3,0,0,0,0,0-.1-6,8.8-11.3,12.6-16.4,11.8-.2,0-.5,0-.7-.1-6.9-1.7-8.9-10.9-9.6-18.6-.2,1.6-.4,3.3-.6,5-.1,1.2-.3,2.4-.6,3.4-.5,2.2-1.5,4.3-3,6.3-1.7,2.3-4.3,3.9-7.9,4.7-2.6.5-5.3.6-8.2.1-.8-.1-1.6-.3-2.5-.5-5.8-1.5-10-4.1-12.5-7.9-2.4-3.8-3.3-8.9-2.7-15.6.4-4.3,1.3-9.7,2.6-16,0-.2,0-.5,0-.7.5-6.1,2.1-14.3,4.6-24.4,3.4-13.4,7.4-26.2,12-38.1,2.1-5.5,7.2-11.7,19.1-9.8,1,.2,2,.4,3,.6,6.2,1.6,10.6,4.4,13.2,8.4,2.4,3.7,3.9,8.6,4.6,14.4.9,7.7,1.8,16.4,2.7,25.9,5-7.5,9.9-14.8,14.6-21.6,3.3-4.8,7-8.3,10.8-10.5,3.5-2,7.8-2.6,12.8-1.8.9.1,1.9.4,2.8.6,14,3.5,16,12,15.2,18.5-.8,6-1.7,12.2-2.9,18.5h0Z"/>
      <path class="cls-14" d="M178,406.5c0,.5.1,1.1.2,1.6.4,5.7-.7,11-3.2,15.8-2.6,4.8-6.9,8.8-12.7,11.8-5.6,2.9-13.1,4.7-22.3,5.4-5.1.4-9.9.2-14.1-.5-1.2-.2-2.5-.5-3.7-.8-9.9-2.5-17.6-7.4-22.7-14.6-3.4-4.8-5.3-10-5.7-15.4-.3-4.6.8-8.8,3.4-12.2-.4-1.5-.6-3-.7-4.5-.4-5.7,1.4-10.5,5.3-14.3-1.4-2.8-2.3-5.9-2.6-9.3-.4-5.4.6-10,3.1-13.9-.2-.9-.3-1.9-.4-2.8-.4-5.6.7-10.5,3.3-14.3,2.6-3.8,6.5-6.8,11.5-8.8,4.8-1.9,10.6-3.2,17.4-3.7,4.2-.3,8.6-.1,12.8.6,1.4.2,2.9.5,4.4.9,5.9,1.4,10.8,3.6,14.6,6.6,3.9,3.1,6,6.7,6.3,10.9.3,4.3-.9,8.6-3.6,12.8.5,1.3.8,2.6.9,3.9.2,3.1-.3,6.2-1.7,9.2.5.2.9.5,1.4.8,6.9,4,10.7,10.7,11.4,19.9.4,5.4-.6,10.5-2.8,15.1h0Z"/>
      <path class="cls-14" d="M675.8,471c.8,5.9-.4,12.1-3.6,18.6-3.2,6.6-7.5,11.3-12.9,14-.3,3.4-1.3,7-2.9,10.6.9,5.7-.2,11.7-3.3,18-2.3,4.6-5.7,7.7-10.3,9-3,.9-6.4,1-10,.4-1.5-.2-3.2-.6-4.8-1.1-1.8-.5-3.4-1.2-4.9-2-3.6-1.8-6.4-4.1-8.5-6.9-2.3-3.1-4.4-8.2-1.4-15.5.8-2,1.5-3.8,1.9-5.3-.5-1.4-.8-3.1-.7-4.9-.2.6-.4,1.2-.6,1.9-1,2.8-1.7,4.8-2.3,6.1-2.3,4.7-5.9,7.6-10.7,8.5-2.4.5-5,.5-7.6,0-2.8-.5-5.8-1.5-8.9-3-5-2.5-8.7-5.6-11-9.4-2.5-4-2.9-8.6-1.3-13.5.8-2.3,1.5-4.5,2.4-6.8-.9-3.1-.8-6.4.3-9.9,4.2-12.6,9.3-25.2,15.3-37.4,4.7-9.5,8.8-16.7,12.4-21.5,3.9-5.3,8.1-8.4,12.5-9.3,1.9-.4,4.1-.4,6.3,0,2.7.4,5.6,1.4,8.7,3,6.8,3.3,10.9,6.9,12.6,11,.2.4.3.6.4.6,0,0,0,0,.2,0,.2,0,.3,0,.5,0,1.3,0,2.5.2,3.7.4,3.9.6,7.8,1.9,11.6,3.8,9.2,4.5,15.4,10.6,18.2,18.1,2.7,7,2.3,14.5-1.2,22.5h0Z"/>
      <path class="cls-14" d="M570.8,447.4c-.2.3-.4.5-.7.8,1.8,2.9,1.9,6.5.4,10.9,1.9,3.9,1.9,8.9-.2,14.6-.5,1.4-1.1,2.6-1.8,3.8h0c1.2,3.6.9,8-.9,13-1.9,5.1-5,8.5-9.3,10.1-3.2,1.2-7.4,1.4-12.8.5-1.3-.2-2.7-.5-4.1-.8-6.8-1.5-16.1-4.5-27.8-8.8-5.4-2-9.5-4.7-12.1-8.1-3-3.8-4-8.4-2.9-13.4.8-3.4,1.6-6.8,2.5-10.2-.3-2-.3-4.2.2-6.5,2.9-13,6.7-26,11.3-38.8,3.6-9.9,7-17.6,10-22.7,3.3-5.7,7.2-9.2,11.5-10.6,2.6-.8,5.6-1,8.8-.4,2,.3,4.1.9,6.4,1.7,9.6,3.5,17.6,7,24,10.3,6.7,3.5,11.4,7.2,14.3,11.1,3.2,4.3,3.8,9.4,2,14.6-.8,2.2-1.7,4-2.7,5.6,1.4,3.5,1.4,7.2,0,11.1-1.6,4.4-3.6,7.5-6.2,9.6-2.7,2.1-5.5,3.1-8.5,3-.5,0-1,0-1.4-.1h0Z"/>
      <path class="cls-4" d="M134.4,329.2c5.4-.4,10.8,0,16.3,1.4,5.5,1.3,9.9,3.3,13.4,6,3.2,2.5,4.9,5.4,5.1,8.6.3,3.6-.8,7.2-3.1,10.8-3.9,5.8-8.1,8.9-12.5,9.2-1.7.1-3.4-.3-5-1.2s-3.2-1.3-4.5-1.2c-1.7.1-2.5.9-2.4,2.2.1,1.4,1.1,2.4,2.9,2.9,1.8.5,4.1,1,6.9,1.4,6.9,1,12.3,2.6,16.4,4.9,5.9,3.5,9.2,9.2,9.8,17.4.4,5.1-.6,9.8-2.8,14s-6.1,7.7-11.4,10.4-12.3,4.4-21.1,5.1c-6.3.5-11.9.1-16.8-1.1-9.2-2.3-16.2-6.8-20.9-13.4-3.1-4.4-4.8-9-5.1-13.8-.5-6.5,2.4-11.5,8.8-15,3.5-1.9,6.6-3,9.5-3.2,3.1-.2,5.9,1,8.3,3.7,3.5,3.9,7.1,5.7,10.8,5.4,2.2-.2,3.2-1.1,3.1-2.7-.1-1.4-1.1-2.5-3.1-3.4-2-.9-4.4-1.8-7.4-2.7-6.7-2-11.9-4.3-15.6-6.9-5.5-3.7-8.4-8.9-8.9-15.5-.4-4.9.6-9,2.8-12.3,2.2-3.3,5.6-5.9,10.1-7.7,4.5-1.8,10-3,16.5-3.4h0Z"/>
      <path class="cls-4" d="M226.6,419.2c-14.6-.4-25.1-5.5-31.4-15.5-5.3-8.2-7.7-19.3-7.4-33.1.2-9.3,1.3-19.8,3.1-31.6.6-4.2,2.6-7.3,5.9-9.2s7.4-2.9,12.4-2.7c5.8.1,10.4,1.5,13.6,4.1,3.3,2.6,4.9,6,4.7,10.2,0,1.1-.2,2.9-.6,5.6-1.3,8.9-2.1,15.6-2.2,20-.1,5.1.4,9,1.4,11.7,1,2.3,2.4,3.5,4.2,3.5,3.9.1,5.9-5.6,6.2-17.2.1-5.3-.4-12.8-1.5-22.5-.1-1-.1-2-.1-2.9.2-7.9,5.7-11.7,16.6-11.5,3.6,0,6.6.7,8.9,1.7s4.1,2.8,5.3,5.3c1.2,2.5,2.1,5.8,2.6,10.1.8,7.3,1.1,14.5.9,21.8-.9,35.5-15.1,52.9-42.7,52.2h0Z"/>
      <path class="cls-4" d="M359.4,431.3c-3.4-.5-6.3-1.5-8.7-3.1-2.4-1.6-3.8-3.4-4.3-5.4-.5-2-.6-3.9-.4-5.8.1-.9.3-1.9.6-3,3.8-13.8,5.8-22.2,6.2-25.3.1-1,0-1.6-.4-1.6-.5,0-1,.4-1.4,1.2-.5,1.2-3.2,6.7-8,16.6s-9.3,14.5-13.6,14c-4.2-.6-7.4-6.2-9.5-17-2.1-10.8-3.2-16.8-3.4-18.1-.2-1-.5-1.5-1-1.6-.4,0-.7.4-.8,1.5-.4,3.1-.6,11.8-.6,26,0,1.1,0,2.1-.1,3-.2,1.9-.9,3.7-1.9,5.5-1,1.8-2.9,3.1-5.6,4-2.7.9-5.8,1.1-9.2.7-5.2-.7-8.9-2.5-11.3-5.3-2.4-2.9-3.6-7.3-3.8-13.3-.2-6,.4-14.1,1.8-24.2,1.8-13.7,4.3-26.6,7.5-38.8,2-7.5,7.8-10.5,17.5-9.3,5.5.7,9.5,2.6,12,5.7s4.3,7.3,5.6,12.5c1.8,7.7,3.7,16.3,5.7,25.9.6,3,1.3,4.5,2.2,4.6.9.1,2-1.2,3.3-3.8,4.2-8.2,8.3-16.1,12.3-23.6,2.5-4.8,5.4-8.3,8.6-10.6,3.2-2.3,7.5-3.1,13.1-2.4,9.7,1.3,14.5,5.8,14.4,13.5-.1,12.6-1.1,25.8-2.9,39.4-1.4,10.2-2.9,18.1-4.6,23.9-1.7,5.7-4.1,9.7-7.1,11.8-3,2.1-7.1,2.9-12.3,2.2h0Z"/>
      <path class="cls-4" d="M468.4,455.6c-3.3-.8-6.1-2.2-8.3-4-2.2-1.9-3.4-3.8-3.7-5.8s-.2-3.9.3-5.8c.2-.9.6-1.9,1-2.9,5.3-13.3,8.3-21.4,9.1-24.4.2-1,.2-1.6-.2-1.7-.5-.1-1,.2-1.5,1.1-.7,1.1-4,6.3-9.9,15.5-5.9,9.2-10.9,13.4-15.1,12.3-4.1-1-6.6-7-7.5-18s-1.3-17.1-1.3-18.4c0-1-.3-1.6-.9-1.7-.4-.1-.7.4-1,1.4-.8,3-1.9,11.6-3.5,25.8-.1,1.1-.3,2.1-.5,3-.5,1.8-1.3,3.5-2.5,5.2-1.2,1.7-3.2,2.8-6,3.4-2.8.6-5.9.5-9.2-.4-5.1-1.3-8.6-3.5-10.6-6.6-2-3.1-2.8-7.6-2.2-13.6.5-6,2-13.9,4.5-23.9,3.4-13.4,7.3-25.9,11.8-37.7,2.8-7.2,8.9-9.6,18.4-7.2,5.4,1.4,9.2,3.7,11.3,7.1,2.1,3.3,3.5,7.7,4.1,13.1.9,7.8,1.8,16.6,2.7,26.4.3,3,.8,4.6,1.7,4.8.8.2,2.1-.9,3.7-3.4,5.1-7.7,10.1-15.1,14.9-22,3.1-4.4,6.3-7.6,9.8-9.6,3.4-2,7.9-2.2,13.3-.9,9.5,2.4,13.7,7.4,12.8,15-1.6,12.5-4,25.5-7.4,38.9-2.5,10-4.9,17.7-7.3,23.2s-5.2,9.2-8.4,10.9c-3.2,1.8-7.4,2-12.5.8h0Z"/>
      <path class="cls-4" d="M517.4,471.6c-4.9-1.8-8.4-4.1-10.7-7.1-2.4-3.1-3.2-6.7-2.3-10.8,2.9-12.9,6.6-25.7,11.2-38.3,3.6-9.8,6.8-17.2,9.8-22.2,2.9-5,6.2-8.1,9.7-9.2,3.5-1.1,7.9-.7,13.1,1.2,9.5,3.5,17.3,6.8,23.6,10.1,6.2,3.3,10.6,6.7,13.2,10.2,2.6,3.5,3.1,7.4,1.5,11.6-1.4,3.8-3.1,6.5-5.2,8.2s-4.2,2.4-6.3,2.3c-2.2-.1-4.2-.5-6.2-1.2-1.5-.5-3.1-1.4-5-2.4-2.4-1.4-4.4-2.4-5.9-2.9-3.3-1.2-5.3-.8-6,1.3-.5,1.3-.3,2.3.6,3s1.9,1.3,3.1,1.7c1.2.5,3,.9,5.2,1.3,1.8.3,3.1.7,4,1,2.4.9,4.1,2.1,5.2,3.7,1.4,2.1,1.4,5.1,0,9-1.1,3.1-2.7,5-4.7,5.9-2,.8-4.1,1-6.4.6s-4.5-1-6.6-1.8c-1.4-.5-2.7-.9-3.9-1.1-1.2-.3-2.2-.4-3-.2-.8.1-1.4.7-1.7,1.5-.4,1.2-.2,2.1.8,2.8s1.9,1.1,3,1.5c1.6.6,3.9,1.1,6.7,1.7,2.2.4,4.1.9,5.7,1.5,8.3,3,10.8,9.1,7.5,18.3-1.5,4.2-4,6.9-7.4,8.2-3.4,1.2-8.4,1.1-15.1-.4-6.7-1.5-15.8-4.4-27.5-8.7h0Z"/>
      <path class="cls-4" d="M627.2,518.9c-3.1-1.5-5.6-3.5-7.4-5.9-2.6-3.5-2.9-7.6-1-12.4,3.1-7.6,4.1-13.1,2.8-16.6-.5-1.4-1.2-2.2-2-2.6-.3-.1-.6-.2-.9-.2-1.2-.1-2.1.5-2.7,1.9-.5,1-1.3,3.3-2.6,7-.9,2.7-1.6,4.6-2.2,5.7-1.9,3.8-4.7,6-8.4,6.7-4.4.9-9.2,0-14.5-2.6-4.5-2.2-7.7-4.9-9.7-8.2-2-3.2-2.3-6.9-1-10.9,4.2-12.5,9.2-24.8,15.2-37,4.6-9.4,8.6-16.4,12.1-21,3.4-4.7,7-7.4,10.6-8.1,3.6-.7,7.9.2,13,2.6,6,2.9,9.7,6.1,11.1,9.4.5,1.1,1.1,1.9,1.9,2.2.5.2,1.1.4,2,.4,4.8.3,9.5,1.6,14,3.8,8.5,4.2,14.1,9.6,16.7,16.4s1.9,14-2,21.9c-4.1,8.4-10,13.3-17.7,14.6-1.1.2-1.8.6-2.1,1.2-.3.5-.2,1.1.3,1.9,4.8,7.4,4.9,15.7.5,24.8-1.9,3.8-4.7,6.3-8.3,7.4-3.7,1.1-8,.8-13-.7-1.6-.5-3.1-1.1-4.5-1.8h0ZM626.8,465.6c1.4.7,2.7.8,3.8.3,1.1-.5,1.9-1.2,2.3-2.2.5-1,.6-2.1.3-3.2-.3-1.1-1.1-2-2.5-2.7-2-1-3.7,0-5.1,2.8-.6,1.2-.8,2.2-.5,3.1.3.8.8,1.5,1.7,1.9h0Z"/>
      <path class="cls-14" d="M546,563c-3.1,9-7.3,16.6-12.5,22.4-5.4,5.9-11.9,9.9-19.3,11.8-4.9,1.2-10.2,1.4-15.8.5-3-.5-6.1-1.3-9.3-2.3-13.5-4.6-22.4-12.1-26.7-22.5-3.8-9.4-3.7-21,.3-34.5,0-6.9,1.4-14.5,4.2-22.8,3.1-9.3,7.4-16.9,12.6-22.8,5.4-6,11.9-9.9,19.4-11.7,4.8-1.1,9.9-1.2,15.4-.4,3,.5,6.2,1.3,9.4,2.4,9.1,3.1,16.1,7.6,20.9,13.5,4.8,5.9,7.6,13,8.2,21.1.6,7.1-.4,14.8-3,23.1,0,6.8-1.3,14.2-4,22h0Z"/>
      <path class="cls-14" d="M596.7,608c1.4,3.2,1,7.1-1.1,12-1.7,3.9-5.6,8.5-14.4,8.5-1.5,0-3.2-.2-5-.4-5.4-.9-12.2-3.1-20.2-6.6-5.2-2.3-8.9-4.8-11.6-7.6-2.8-3-4.4-6.3-4.9-10-.5-3.5-.1-7.2,1.1-11.1.7-2.3,1.5-4.6,2.2-6.9,0,0,0,0,0,0,0-.5-.2-.9-.2-1.3-.5-3.5-.1-7.2,1.1-11.1,3.5-11.1,7.7-22.2,12.5-33.1,4.3-9.7,8.1-17.1,11.5-22,3.7-5.5,7.7-8.8,12.1-9.8,2.2-.5,4.6-.6,7.2-.2,2.4.4,5.1,1.2,7.9,2.5,5.1,2.2,8.7,4.7,11.1,7.5,2.5,3,3.7,6,3.6,9-.1,2.6-.7,5-1.6,7.2-.5,1-1.2,2.5-2.3,4.6-.2.5-.5,1-.7,1.4,1.1,2,1.6,4.1,1.6,6.1-.1,2.6-.7,5-1.6,7.2-.5,1-1.2,2.5-2.3,4.6-3.8,7.1-7.6,14.7-11.3,22.7.2,0,.5.2.7.3,4,1.8,6.7,4.2,8,7.3,1.4,3.2,1,7.1-1.1,12-.7,1.6-1.8,3.4-3.5,4.9.6.8,1.1,1.6,1.5,2.5h0Z"/>
      <path class="cls-14" d="M371.3,506.7c-1.9,13.4-4.7,26.7-8.3,39.5-1.5,5-4.4,8.5-8.8,10.4-4,1.8-8.9,2.3-14.3,1.5-.2,0-.5,0-.7,0-6.2-1-11.1-3.3-14.6-6.8-2.8-2.9-4.2-6.4-4.2-10.5-.4,1.9-1.1,3.7-2.1,5.5-1.4,2.5-3.9,4.3-7.4,5.5-3.2,1-7.3,1.2-12.5.5h-.6c-7.5-1.3-12.5-4.7-14.9-10.2-2.3-5.2-2.8-13-1.6-24.1.1-.9,0-1.3,0-1.5-.1-.3-.5-1-1.2-2.1-2.4-3.1-3.2-7.7-2.3-13.7.6-3.9,1.8-7,3.6-9.3-.9-2.7-1-6.1-.5-10,.9-6.1,3.4-10.4,7.4-12.7.6-.4.8-.6.8-.7,0,0,.3-.5.4-1.3,1.4-7,3-13.6,4.7-19.6,1.3-4.7,4.1-8,8.3-9.9,3.7-1.6,8.2-2.1,13.3-1.4h.6c5.8,1,10.4,3.2,13.7,6.5,2.9,2.9,4.2,6.6,4,10.9.4-1.8,1.1-3.5,2.1-5.2,1.5-2.6,4.1-4.5,7.8-5.8,3.4-1.1,7.8-1.3,13.3-.5.2,0,.5,0,.7.1,5.9,1,10.4,3,13.3,6,3.1,3.2,4.8,8.2,5,14.7.2,6-.4,14.3-1.9,24.8-.7,4.9-1.5,9.9-2.5,14.7-.2,1.5-.4,3-.6,4.6h0Z"/>
      <path class="cls-14" d="M462.8,514.6c-.3,1.3-.6,2.6-1,3.8-.1,4.9-.8,10.1-2.1,15.6-2.2,9.3-5.7,17.2-10.4,23.5-4.8,6.4-10.9,11-18.1,13.6-6.1,2.2-13,2.6-20.6,1.4-1.5-.2-3-.5-4.5-.9-13.8-3.3-23.5-10-28.6-19.9-5.1-9.7-5.8-22.5-2.2-37.8.3-1.1.6-2.2.9-3.3.1-5,.9-10.3,2.3-16,2.3-9.5,5.8-17.5,10.4-23.8,4.8-6.5,10.9-11,18.2-13.5,6-2,12.8-2.4,20.3-1.2,1.5.2,3,.5,4.6.9,9.3,2.2,16.8,6.1,22.1,11.5,5.4,5.5,8.8,12.2,10.2,20.2,1.3,7.7.9,16.5-1.4,26h0Z"/>
      <path class="cls-14" d="M268.1,526.8c-.2,4.1-2.2,7.8-6,11-3.7,3-8.3,5.3-13.5,6.9-5.2,1.6-10.5,2.2-15.7,1.9-2-.1-4-.3-5.8-.6-10.9-1.8-19.2-6.8-24.6-15.1-4.1-6.3-6.4-14.2-7.1-23.6-.4,1-.9,2-1.5,3,.2,1.4.4,2.8.4,4.2.2,5.7-1.1,11-3.8,15.6-2.8,4.7-7.2,8.5-13.1,11.3-5.8,2.7-13.3,4.2-22.5,4.6-4.4.2-8.5,0-12.3-.7-1.9-.3-3.7-.7-5.4-1.2-9.8-2.8-17.3-8-22.1-15.5-3.2-5-4.9-10.2-5.1-15.6-.2-4.9,1.3-9.1,4.2-12.4-.7-2.3-1-4.6-1.1-6.9-.2-5.4,1.6-9.9,5.2-13.5-.8-2.2-1.2-4.7-1.3-7.3-.2-5.6,1.1-10.3,3.8-14.1-.4-1.7-.7-3.4-.7-5.2-.2-5.6,1.1-10.4,3.9-14.2,2.7-3.7,6.7-6.5,11.9-8.4,4.8-1.7,10.7-2.8,17.5-3,3.5-.1,7.1.1,10.6.7,2.1.4,4.3.8,6.5,1.4,5.8,1.6,10.6,4,14.3,7.1,3.8,3.2,5.8,6.9,5.9,11.1.2,4.3-1.2,8.6-4.1,12.6-.2.3-.4.5-.6.8,1,1.9,1.5,3.8,1.6,5.9,0,2.4-.3,4.7-1.1,7,0,0,.2.1.3.2,4.8,3,7.9,7.3,9.5,12.8.5-3,1.2-5.9,2.1-8.6,0-.6,0-1.1,0-1.7.8-14.6,5-26.3,12.4-34.9,8.1-9.3,19.4-13.7,33.5-12.9,2.3.1,4.5.4,6.5.7,3.5.6,6.7,1.4,9.6,2.6,9,3.7,15.5,9.3,19.3,16.8,2.6,5.3,3.8,10.7,3.5,16.1-.2,4.1-1.6,7.6-4,10.5.7,3,1,5.9.9,8.9-.4,6.8-3.8,12-10,15.2.8,2.3,1.1,4.7,1,7.1-.2,3.7-1.9,7.1-5,10.1,1.5,3,2.1,6.1,1.9,9.3h0Z"/>
      <path class="cls-17" d="M153.4,431.1c5.4-.2,10.8.5,16.2,2s9.8,3.7,13.1,6.5c3.1,2.6,4.7,5.5,4.8,8.8.1,3.6-1,7.2-3.5,10.7-4.1,5.7-8.4,8.6-12.9,8.7-1.7,0-3.4-.4-5-1.4-1.6-1-3.1-1.4-4.4-1.4-1.7,0-2.5.8-2.5,2.1,0,1.4,1,2.4,2.8,3s4.1,1.2,6.8,1.7c6.8,1.2,12.2,3.1,16.2,5.6,5.8,3.7,8.9,9.6,9.2,17.7.2,5.1-.9,9.8-3.4,13.9-2.4,4.2-6.4,7.5-11.8,10s-12.5,3.9-21.2,4.3c-6.3.2-11.9-.3-16.7-1.8-9.1-2.7-15.9-7.4-20.3-14.2-2.9-4.5-4.4-9.2-4.6-14-.2-6.5,2.9-11.4,9.3-14.6,3.5-1.8,6.8-2.7,9.6-2.8,3.1-.1,5.9,1.2,8.2,4,3.3,4,6.9,6,10.6,5.8,2.2,0,3.3-1,3.2-2.6,0-1.4-1.1-2.6-3-3.6-1.9-1-4.4-2-7.2-3-6.6-2.3-11.7-4.8-15.4-7.5-5.3-3.9-8.1-9.2-8.3-15.9-.2-4.9.9-9,3.3-12.2,2.4-3.2,5.8-5.6,10.4-7.3,4.6-1.6,10.1-2.6,16.6-2.8h0Z"/>
      <path class="cls-17" d="M236.1,524.1c-12.9-.7-22.2-5.5-27.9-14.3-5.2-7.9-7.4-18.7-6.7-32.2.8-13.9,4.6-24.9,11.7-32.9,7.5-8.6,17.8-12.5,31-11.8,5.8.3,10.8,1.3,15.1,3,8.3,3.4,14.1,8.5,17.6,15.3,2.4,4.8,3.5,9.6,3.2,14.5-.4,6.5-3.9,11-10.6,13.6-3.6,1.4-6.9,2-9.9,1.9-3.6-.2-6.4-2.2-8.4-6-.7-1.3-1.6-2.5-2.6-3.6-.9-.9-2.1-1.4-3.5-1.5-1.6,0-3,.5-4.1,1.8-1.8,2-2.7,4.7-2.9,8-.1,2.6.3,4.8,1.3,6.6,1.1,2,2.7,3,4.7,3.1,1.1,0,2.1-.2,3-.7,1.6-.9,3.2-1.3,5-1.2,4.4.2,8.6,3.2,12.6,9,2.4,3.5,3.5,7.1,3.3,10.8-.2,3.2-1.8,6.1-4.9,8.7-3.4,2.8-7.5,4.9-12.4,6.3-4.9,1.5-9.8,2-14.6,1.8h0Z"/>
      <path class="cls-17" d="M343.4,535.6c-5.8-.8-10.3-2.8-13.4-6-2.7-2.7-3.8-6.2-3.1-10.4.2-1.2.4-2.1.6-2.8s.5-1.7.8-3c1.3-5,2.1-8,2.2-9.1.1-1,0-1.9-.7-2.8-.6-.9-1.7-1.4-3.4-1.6-2.8-.4-4.4.5-4.7,2.8-.5,3.8-.9,8.5-1,14.1,0,1.1,0,2.1-.2,3-.3,1.8-.9,3.7-1.9,5.4-1,1.8-2.9,3.1-5.6,4s-6.4,1-11,.3c-6.6-1-11-3.7-13-8.3-2-4.6-2.5-12.1-1.4-22.5.1-1.2,0-2.2-.3-3-.3-.8-.8-1.7-1.6-2.8-1.9-2.5-2.5-6.3-1.8-11.4.7-5.1,2.7-8.6,5.8-10.4.9-.5,1.5-1.1,1.9-1.7.4-.6.7-1.5.9-2.5,1.4-7,3-13.4,4.6-19.3,1-3.8,3.2-6.4,6.5-7.9,3.1-1.4,7-1.8,11.6-1.1,5.5.8,9.6,2.6,12.5,5.6,2.5,2.5,3.5,5.8,2.9,9.6-.2,1.1-.3,2.1-.5,2.8-1.6,5.3-2.6,9.3-3,11.9-.4,2.7.9,4.3,3.9,4.7,2.9.4,4.5-.7,4.9-3.2.3-2.2.5-6,.5-11.5,0-1.1,0-2.2.2-3.2.3-2,1-4,2.1-5.9s3.1-3.4,6-4.3,6.9-1.1,11.9-.4c5.6.8,9.6,2.5,12.2,5.1,2.5,2.6,3.9,6.8,4.1,12.6.2,5.8-.4,13.9-1.9,24.2-1.9,13.4-4.7,26.4-8.2,39.1-1.2,4.1-3.5,6.9-7,8.4-3.5,1.5-7.7,2-12.6,1.3h0Z"/>
      <path class="cls-17" d="M410,549.2c-13-3.1-21.8-9.2-26.6-18.2s-5.4-21-1.9-35.6c2.2-9.1,5.5-16.7,9.9-22.7,4.4-6,10-10.1,16.6-12.4,6.7-2.2,14.4-2.3,23.1-.2,8.8,2.1,15.6,5.6,20.6,10.6,4.9,5,8,11.2,9.3,18.5s.8,15.6-1.4,24.7c-2.1,8.9-5.4,16.4-9.8,22.3s-10,10.1-16.6,12.5-14.4,2.5-23.3.4h0ZM415.8,512.3c2,.5,3.9-.2,5.7-2.2,1.4-1.5,2.4-3.6,3-6.2.7-2.9.5-5.5-.5-7.7-.7-1.5-1.9-2.5-3.7-2.9-1.9-.4-3.6,0-5.2,1.6s-2.7,3.6-3.4,6.4c-.8,3.1-.6,5.8.4,8.1.7,1.5,1.9,2.5,3.6,2.9h0Z"/>
      <path class="cls-17" d="M493.3,573.1c-12.6-4.3-20.9-11.2-24.7-20.7s-3.4-21.4,1.5-35.6c3-8.9,7-16.1,12-21.7,5-5.5,10.9-9.1,17.7-10.7,6.8-1.6,14.5-1,23.1,1.9s15,7.1,19.5,12.5c4.4,5.4,7,11.9,7.5,19.3.6,7.4-.7,15.6-3.7,24.5-3,8.7-6.9,15.8-11.9,21.3-5,5.5-10.9,9.1-17.7,10.9-6.9,1.8-14.6,1.2-23.2-1.8h0ZM502.5,536.9c2,.7,3.9.1,5.9-1.6,1.5-1.4,2.7-3.4,3.6-5.9,1-2.9,1.1-5.4.3-7.7-.5-1.6-1.7-2.7-3.4-3.3-1.8-.6-3.6-.2-5.3,1.1s-3,3.4-4,6.1c-1,3.1-1.1,5.8-.3,8.1.5,1.6,1.6,2.7,3.3,3.2h0Z"/>
      <path class="cls-17" d="M560.4,599.1c-4.7-2.1-8.2-4.4-10.5-6.9-2.3-2.5-3.7-5.3-4.1-8.2-.4-3,0-6.2,1-9.7,3.5-11,7.6-22,12.3-32.8,4.2-9.5,7.9-16.7,11.2-21.5,3.2-4.8,6.7-7.7,10.2-8.5,3.5-.9,7.9-.2,13,2.1,4.6,2,7.9,4.2,9.9,6.6,2,2.4,2.9,4.7,2.8,6.8,0,2.2-.5,4.2-1.4,6.1-.4,1-1.2,2.4-2.2,4.4-6.2,11.7-12.3,24.5-18.4,38.3-1.5,3.3-1,5.4,1.2,6.4.8.4,1.7.7,2.6,1,.9.3,1.7.7,2.4,1,3.3,1.4,5.4,3.3,6.4,5.6,1,2.3.6,5.5-1.1,9.4-2,4.4-5.8,6.6-11.5,6.6-5.7,0-13.7-2.3-23.9-6.8h0Z"/>
      <path class="cls-2" d="M254.7,272.3c-1.9,8.1,8.9,17.4,24,20.7,15.1,3.3,28.8-.6,30.6-8.8s-8.9-17.4-24-20.7c-15.1-3.3-28.8.7-30.6,8.8h0Z"/>
      <path class="cls-2" d="M507.6,316.8c-.6,8.3,11.4,16.1,26.8,17.4,15.4,1.3,28.3-4.4,28.9-12.7s-11.4-16.1-26.7-17.4c-15.4-1.3-28.3,4.4-28.9,12.7h0Z"/>
      <path class="cls-13" d="M447.2,283.4c-.3-6.7-11.3-6.8-28.9-9.7-.9-.1-4.5-.7-5.4-.9-17.6-2.7-28.1-6.1-30.5.1-4.6,12.1,10.2,28.5,28,31.4h.3c17.9,2.9,37-8.1,36.4-21h0Z"/>
      <path class="cls-2" d="M410.8,304.7h-.3c-5.8-1-11.5-3.5-16.7-7.2l-.3-.2.3-.2c5.2-3.1,11.8-4.2,18.5-3.1,6.7,1.1,12.6,4.2,16.6,8.8l.2.3h-.4c-6,2-12.3,2.6-18.1,1.7h0Z"/>
      <path class="cls-21" d="M414.3,281.6c-12.3-2-21.9-7.1-22.5-12v-.3s47.7,7.7,47.7,7.7v.3c-2.2,4.5-12.9,6.4-25.2,4.4h0Z"/>
      <path class="cls-14" d="M623.4,232.8l-.7,3.5h-3.7c-4.2,0-9.6.8-13.7,7.2-4.5,24.9-20,51.4-36.1,61.9-15.8,10.3-39.9,8.4-52.8,6.3-24.2-3.9-47-14-58-25.8-13.1-14-22.5-40.2-22.9-63.9-1.4-4.6-2.6-6.6-3.3-7.3-1.8-2.1-4.3-3.5-7.1-4s-5.7,0-8,1.6c-.8.5-2.6,2-5.4,5.9-7.8,22.4-24.9,44.3-41.7,53.5-14.2,7.7-39,10.2-63.3,6.3-22-3.5-39.5-11.8-48.2-22.5-9.3-11.6-15.5-32.9-15.8-54.3,0-5.5.2-10.9.9-15.8-1.8-7.4-6.7-9.9-10.7-11.2l-3.5-1.1.5-3.5c.1-.9.8-5.1,1.9-11.9.5-3.2,1.1-6.6,1.5-9.1.7-4.5,5-7.6,9.8-7.1,6.8.7,16.3,1.4,21,1.4,2.8,0,5.9,0,9.2,0,9.3-.1,19.8-.2,29.1.1.2,0,.4,0,.6,0,10.3.2,21.7,1.3,33.2,3.2,28.1,4.5,52.4,12.7,65.4,21.8,10.8,4.1,21.2,6.5,29.1,8.1,8,.9,18.7,1.9,30.1,1.4,21.4-6.7,56.7-2,67.1-.4,1.3.2,2.7.4,4,.6,12.9,2.1,25.3,5.1,35.9,8.6,7.5,2.3,15.6,5.1,22.8,7.6,3.1,1.1,6,2.1,8.6,2.9,4.5,1.5,13.8,3.8,20.4,5.3,4.7,1,7.8,5.3,7.1,9.8-.4,2.5-.9,5.9-1.5,9.2-1.1,6.8-1.7,10.9-1.9,11.8h0Z"/>
      <path class="cls-11" d="M583.2,206.2l-103,81c-5-2.8-9.2-5.9-12.3-9.1-1.9-2-3.6-4.3-5.3-6.9l95.9-75.5c10.4,3.1,19,6.8,24.6,10.4Z"/>
      <path class="cls-12" d="M546.5,192.6l-88.8,69.8c-7-14.9-10.8-34.3-9-49.5.9-7.3,3.4-17,10.7-21.8,9.5-6.1,36.3-7.1,66.7-2.5.7.1,1.5.2,2.2.3,6.4,1,12.5,2.2,18.3,3.6h0Z"/>
      <path class="cls-11" d="M392.2,175.9l-107.1,83.8c-7-3-12.8-6.8-16.4-11.3-.9-1.1-1.7-2.3-2.5-3.6l101.3-79.4c10,3.1,18.7,6.6,24.7,10.4h0Z"/>
      <path class="cls-12" d="M355.5,162.2l-93.9,73.6c-9.9-25.1-8.7-65.2,8-76.1,10-6.5,37.3-6.1,64.4-1.8,7.3,1.2,14.5,2.6,21.5,4.3h0Z"/>
      <path class="cls-21" d="M622.4,211.1c.4-2.2-1.2-4.4-3.7-4.9-5.9-1.3-15.8-3.7-20.9-5.4-8.5-2.8-20.5-7.1-31.4-10.5-12.2-4.1-26.2-7.2-39.2-9.1-22.4-3.4-49.6-4.7-65.6.5-12.6.6-24.1-.6-31.6-1.4-7.5-1.5-18.7-4-30.5-8.6h0c-18.7-13.6-62.8-23.8-96.6-24.5-.2,0-.3,0-.5,0-12.6-.5-27.9,0-38.2,0-5.4,0-15.5-.8-21.5-1.4-2.5-.3-4.7,1.3-5.1,3.5-1.1,6.8-3.2,19.4-3.4,20.9,4.9,1.6,11.7,5,13.8,15.1-.7,4.9-1.1,10.2-1,15.9.3,20.5,6.1,40.8,14.9,51.7,8.7,10.8,26.4,17.9,45.5,20.9,22.3,3.6,46.5,1.7,60.4-5.8,16.2-8.8,32.7-30.7,39.9-51.7,2.3-3.3,4.7-6.2,7-7.6,6.7-4.2,16-2.7,21,3.4,1.7,2.1,3.1,5.5,4.2,9.4.2,22.2,9.1,48.1,21.7,61.6,10.8,11.5,33.2,20.9,55.5,24.5,19.1,3.1,38.1,1.9,49.7-5.6,15.2-9.9,30.3-36,34.4-59.9,5.2-8.9,12.8-10,17.8-10,.3-1.5,2.2-14.1,3.3-20.9h0ZM402,205.4c-4.4,21.3-22.1,46.9-38.7,56-17.2,9.4-54.7,8.4-78.3-1.6-7-3-12.8-6.8-16.4-11.3-.9-1.1-1.7-2.3-2.5-3.6-1.7-2.7-3.2-5.7-4.5-9.1-9.9-25.1-8.7-65.2,8-76.1,10-6.5,37.3-6.1,64.4-1.8,7.3,1.2,14.5,2.6,21.5,4.3,4.1,1,8.1,2.1,11.9,3.2,10,3.1,18.7,6.6,24.7,10.4,2.8,1.8,5,3.6,6.5,5.5,5.5,6.8,4.9,16.8,3.4,24h0ZM561.8,295.6c-17.5,11.4-58.2,4.8-81.7-8.3-5-2.8-9.2-5.9-12.3-9.1-1.9-2-3.6-4.3-5.3-6.9-1.8-2.7-3.4-5.7-4.9-8.9-7-14.9-10.8-34.3-9-49.5.9-7.3,3.4-17,10.7-21.8,9.5-6.1,36.3-7.1,66.7-2.5.7.1,1.5.2,2.2.3,6.4,1,12.5,2.2,18.3,3.6,4.2,1,8.2,2.1,12,3.2,10.4,3.1,19,6.8,24.6,10.4,2.4,1.6,4.3,3.2,5.5,4.8,15,18.6-4.3,70-26.9,84.6h0Z"/>
      <path class="cls-16" d="M163.2,347.3c-1.1,5.1-8.3,1.2-17.8-.9-9.5-2.1-17.6-1.6-16.5-6.7,1.1-5.1,9.7-7.5,19.2-5.4,9.5,2.1,16.2,7.9,15.1,13h0Z"/>
      <path class="cls-7" d="M182.2,450c-1.1,5.1-8.3,1.2-17.8-.9s-17.6-1.6-16.5-6.7,9.7-7.5,19.2-5.4c9.5,2.1,16.2,7.9,15.1,13h0Z"/>
      <path class="cls-16" d="M220.8,337.9c-.4,3.4-5.3,1.3-11.6.6-6.3-.8-11.5.1-11.1-3.3.4-3.4,5.8-5.5,12.1-4.8,6.3.8,11,4.1,10.6,7.5h0Z"/>
      <path class="cls-16" d="M263.5,339.4c-.2,3.4-5.2,1.6-11.5,1.1s-11.5.6-11.3-2.8,5.5-5.8,11.8-5.3,11.2,3.6,11,7h0Z"/>
      <path class="cls-16" d="M318.6,344.8c-.5,3.4-5.4,1.1-11.6.1s-11.5-.4-11-3.7,6-5.3,12.3-4.2c6.2,1,10.8,4.5,10.3,7.9Z"/>
      <path class="cls-16" d="M381.9,352.8c-.5,3.4-5.4,1.1-11.6.1s-11.5-.4-11-3.7,6-5.3,12.3-4.2,10.8,4.5,10.3,7.9Z"/>
      <path class="cls-16" d="M437.5,362.7c-.5,3.4-5.4,1.1-11.6.1s-11.5-.4-11-3.7,6-5.3,12.3-4.2c6.2,1,10.8,4.5,10.3,7.9Z"/>
      <path class="cls-16" d="M499.1,378.9c-.9,3.3-5.5.5-11.5-1.1-6.1-1.7-11.4-1.6-10.5-4.9s6.6-4.6,12.6-2.9,10.3,5.7,9.4,9Z"/>
      <path class="cls-16" d="M580.9,411.8c-1.5,3.2-7.1-1.1-14.8-4.7s-14.5-5.1-13.1-8.3c1.5-3.2,8.9-2.8,16.6.7s12.7,9,11.2,12.2h0Z"/>
      <path class="cls-16" d="M669.8,458c-2.7,3.6-7.1-2-13.8-7.1-6.8-5.1-13.5-7.6-10.7-11.3s10.5-2.5,17.2,2.6c6.8,5.1,10.1,12.1,7.3,15.8Z"/>
      <path class="cls-7" d="M603,528.7c-1.5,2.9-5.2-.6-10.5-3.4-5.3-2.8-10.3-3.8-8.8-6.7s7.1-2.9,12.4-.1c5.3,2.8,8.5,7.4,6.9,10.3h0Z"/>
      <path class="cls-7" d="M540.5,508.3c-2.2,4.2-7.5-.9-15.3-5-7.8-4.1-15-5.6-12.8-9.8,2.2-4.2,10.2-4.2,18-.2,7.8,4.1,12.2,10.8,10.1,14.9h0Z"/>
      <path class="cls-7" d="M453.1,482.5c-2,4.2-7.6-.6-15.5-4.4s-15.2-5-13.1-9.3,10.1-4.6,18-.9c7.9,3.8,12.6,10.3,10.6,14.5h0Z"/>
      <path class="cls-7" d="M369.6,459.9c-1.3,2.8-4.9-.4-10.1-2.9-5.2-2.5-9.9-3.3-8.6-6.1,1.3-2.8,6.6-3,11.8-.6s8.3,6.7,7,9.5h0Z"/>
      <path class="cls-7" d="M271.7,455c-2,4.1-7.5-.7-15.4-4.5-7.9-3.8-15.1-5.1-13.2-9.2,2-4.1,9.9-4.3,17.8-.6,7.9,3.8,12.7,10.1,10.8,14.2h0Z"/>
      <path class="cls-16" d="M635.5,429.9c-1,2.6-4.5-.1-9.3-2.1s-9.1-2.4-8.1-5,5.8-3.1,10.6-1.1c4.8,2,7.8,5.6,6.8,8.2h0Z"/>
      <path class="cls-14" d="M303.9,131c-.9-.1-1.6-.6-2.1-1.3-.8-1.1-.6-2.5.3-3.4,9.1-9.4,24.7-13.7,40.7-11.1,16.1,2.6,29.1,11.3,34.6,23.3.5,1.2.2,2.6-.9,3.3-.7.5-1.6.7-2.4.6-.5,0-.9-.2-1.3-.5-9.5-6.4-20.2-10.6-31.9-12.5-5.8-.9-11.7-1.3-17.8-1.1-5.8.2-11.6,1.1-17.8,2.7-.5.1-.9.1-1.3,0Z"/>
      <path class="cls-14" d="M493.6,161.5c-.9-.1-1.6-.6-2.1-1.3-.8-1.1-.6-2.5.3-3.4,9.1-9.4,24.7-13.7,40.7-11.1,16.1,2.6,29.1,11.3,34.6,23.3.5,1.2.2,2.6-.9,3.3-.7.5-1.6.7-2.4.6-.5,0-.9-.2-1.3-.5-9.5-6.4-20.2-10.6-31.9-12.5-5.8-.9-11.7-1.3-17.8-1.1-5.8.2-11.6,1.1-17.8,2.7-.5.1-.9.1-1.3,0h0Z"/>
      <path class="cls-5" d="M352.4,576c-.1.2-.2.7-.2,1,0,0,.1.5.1.6,0,.4.3.8.5,1,.1.1.2.3.4.4h0s0,0,0,0c0,0,.2,0,.3.1,0,0,.2,0,.3.1.2,0,.4,0,.7.1t.1,0c.1,0,.2,0,.3,0,.1,0,.1,0,.2-.2.3-.4,0-.5-.1-.6,0,0,0-.2,0-.3,0-.2-.2-.4-.3-.6,0,0-.1-.2-.2-.3,0,0,0,0-.1-.1,0,0,0,0-.1-.1-.2-.2-.7-.8-.9-.9-.1,0-.4,0-.4-.1,0,0,0-.2-.3-.2-.2,0-.2,0-.4,0h0Z"/>
      <path class="cls-5" d="M352.9,575c0,0,0,0,0,.2,0,0,0,0,.1.1,0,0,.3.5.7.3.3-.1.1-.1.3-.2.3-.1.4-.1.6-.3.5-.4.4-.5.7-.8,0,0,.2-.2.3-.3,0,0,.1,0,.2,0,0,0,0,0,.1-.1.3-.2.4-.4.6-.2.1,0,.4.4.7.2.1-.1.2-.2.2-.4v-.2c-.2-.2-1.1-.3-1.5-.2-.7,0-1.5.4-2.1.8,0,0,0,0-.1,0-.3.3-.5.5-.8.8,0,0-.1.2-.2.3h0Z"/>
      <path class="cls-5" d="M356.5,580.9c-.7-.1-1-.2-1.6-.6-.3-.2-.7-.5-.9-.7,0,0-.2-.2-.3-.2,0,0,0,0,0,0h0c0,0,0,0,0,0,.4.2.5.1.9.1h0c-.2,0-.4,0-.7-.2-.1,0-.2,0-.3-.1,0,0-.2,0-.2-.1,0,0,0,0,0,0t0,0h0s0,0,0,0c-.2-.2-.5-.5-.6-.7,0-.1-.2-.2-.2-.4,0,0-.1-.4-.1-.5,0,.5.3,1,.4,1.4.2.5.4.8.8,1.1.3.3.9.6,1.4.7.6.2,1.1.2,1.7.1h0Z"/>
      <path class="cls-5" d="M352.6,575s.3-.5.4-.5c.7-1,1.6-1.5,2.8-1.6.7-.1,1,0,1.6.2,0-.2-.4-.3-.6-.4-1-.3-2.1,0-2.9.7-.2.1-.4.3-.5.5-.2.3-.6.9-.8,1.3h0Z"/>
      <path class="cls-5" d="M359,574.2h0c0,0,0,0,0,0,0,0,0,0,0,0,0,0,0,0,0,0,0,0,0,0,0,0h0Z"/>
      <path class="cls-5" d="M358,573.8c0,0-.2.2-.3.3-.2.2-.2.3-.4.4,0,0-.1,0-.2.1-.3.2,0,0-.4.2-.5.1-.8.4-.9.5,0,0-.1,0-.2,0,0,0,0,0-.1.2,0,0-.1,0-.2.1-.1.2,0,.7,0,.9,0,.1.1.2.1.4,0,.2.1.2.3.3.4.3.5.2.7-.1,0,0,0,0,.2-.1.2-.1.4-.4.4-.4,0,0,.2.2.4.3,0,.1-.2.3-.3.7,0,.3,0,.5-.1.8-.3,0-.5-.2-.8.2,0,0-.2.1-.3.3-.1,0-.2.2-.2.4-.3.8.3,1.2,1,1,.1,0,.5-.2.6-.2.3-.2.2-.2.6-.2.2,0,.2-.1.4,0,.4,0,.6,0,.8-.3.1,0,.2-.2.3-.3,0,0,.1-.3.2-.4.2-.2.4-.9.4-1.2,0-.8,0-1.6-.4-2.3,0-.2-.4-.8-.5-.9,0,0,0,0,0,0s0,0,0,0l-.2-.2c0,0-.2-.1-.2-.2,0,0-.1,0-.2,0,0,0-.1,0-.2,0h0Z"/>
      <path class="cls-14" d="M410,590.9h0c2,.3,3.3,2.1,3,4.1l-2.6,17c-.4,2.3-.3,4,0,5.2.6,2,2.3,3.2,5.1,3.7,2.8.4,4.8-.2,6-2,.7-1,1.2-2.6,1.6-4.9l2.6-17c.3-2,2.1-3.3,4.1-3h0c2,.3,3.3,2.1,3,4.1l-2.6,17c-.5,3.5-1.5,6.2-3,8-2.6,3.3-6.9,4.5-12.7,3.6s-9.5-3.3-11-7.3c-.8-2.2-.9-5-.4-8.6l2.6-17c.3-2,2.1-3.3,4.1-3h0Z"/>
      <path class="cls-14" d="M458.5,618.1c-2.3,1.3-5.2,1.7-8.9,1.2l-3.6-.5c-2-.3-3.8,1-4.1,3l-.8,5.2c-.3,1.9-2.1,3.3-4.1,3h0c-2-.3-3.3-2.1-3-4.1l4.2-26.9c.3-1.9,2.1-3.3,4.1-3l11.1,1.7c3.4.5,5.9,1.8,7.7,3.9,1.7,2.1,2.3,4.9,1.8,8.6-.6,4-2.1,6.7-4.3,8h0ZM455,605c-.8-.9-2-1.5-3.6-1.7l-2.9-.5c-2-.3-3.8,1-4.1,3l-.5,2.9c-.3,1.9,1,3.8,3,4.1l2.9.5c1.6.2,3,0,4-.6,1-.7,1.7-1.9,2-3.7.3-1.8,0-3.1-.8-4h0Z"/>
      <path class="cls-14" d="M340.9,585.5c-4.6,4.6-8,8.4-10.4,11.4l-1.2,1.6h-.1c0,.1,0,.6,0,.6.1,0,.3,0,.4.1.3,0,.8.2,1.3.3.5.1.8.2,1,.2,1.1.4,2.2.8,3.3,1.3,1.1.5,2,.9,2.6,1.2.6.3,1.6.8,2.9,1.5,1.3.7,2.2,1.2,2.8,1.5.3.2.5.4.6.7s0,.6,0,.8c-.1.3-.4.5-.7.6s-.6,0-.9,0l-2.8-1.5-2.8-1.5c-.6-.3-1.5-.7-2.5-1.2-1-.5-2.1-.8-3.1-1.2,0,0-.4-.1-.8-.2-.6-.2-1-.3-1.4-.3h-.1c-.5,4.2-.8,7.3-1,9.2,0,.3-.2.5-.4.8-.2.2-.5.3-.8.2s-.5-.2-.8-.4c-.2-.2-.3-.5-.2-.8.2-1.9.6-5.2,1.1-9.9-.2-.2-.3-.3-.4-.5-.1-.2-.2-.5-.1-.8,0,0,0-.2,0-.3,0,0,0-.1.1-.2,0-.1.1-.2.2-.4l.4-.5c.2-2,.4-3.7.6-5.2.1-1.1.6-3.6,1.3-7.6.6-3.2.9-5.7.9-7.4,0-.3.1-.6.4-.8.2-.2.5-.3.8-.3.3,0,.6.1.8.4s.3.5.3.8c0,1.9-.4,4.5-1,7.7-.7,3.9-1.1,6.4-1.2,7.5l-.2,1.4c2.2-2.8,5.4-6.2,9.5-10.3.2-.2.5-.3.8-.3s.6.1.8.3c.2.2.3.5.3.8s-.1.6-.3.8h0Z"/>
      <path class="cls-14" d="M356.1,584.6c-.5,7.8-1.7,18.2-3.7,31.1,0,.3-.2.5-.5.7-.3.2-.5.3-.8.2s-.5-.2-.7-.5-.3-.5-.2-.8c2-12.9,3.2-23.2,3.7-30.9,0-.3.1-.6.4-.8.2-.2.5-.3.8-.3.3,0,.6.1.8.4.2.2.3.5.3.8h0Z"/>
      <path class="cls-14" d="M377.2,583.5c0,1-.2,2.1-.3,3.1-.1,1.1-.3,2.3-.6,3.8-.3,1.5-.4,2.5-.5,3-.4,2.8-1.7,10.3-2.7,15.8-1,5.5-1.2,6.2-1.6,9,0,.3-.2.5-.5.7-.3.2-.5.3-.8.2s-.5-.2-.7-.5-.3-.5-.2-.8c.3-1.8.1-.5.5-2.8-2,.5-4.1.2-6.2-.7-1.4-.7-2.6-1.5-3.4-2.5-.8-1.1-1.3-2.2-1.5-3.3s0-2.2.2-3.4.8-2.1,1.5-3c.7-.9,1.5-1.6,2.6-2.1s2.1-.6,3.3-.5c2,.3,3.9,1.5,5.7,3.6.5-2.5,1.4-8.2,1.7-10.2,0-.6.3-1.6.5-3,.3-1.5.5-2.7.6-3.7.1-1,.2-2,.2-2.9,0-.3.1-.6.4-.8s.5-.3.8-.3c.3,0,.6.1.8.4.2.2.3.5.3.8h0ZM371.3,606.3c-1.7-2.7-3.5-4.1-5.3-4.3-1.5-.2-2.8.4-3.9,1.7-.5.6-.9,1.3-1.1,2.1-.2.8-.3,1.6-.1,2.4.1.8.5,1.6,1.1,2.3s1.4,1.4,2.5,1.8c2,.9,3.9,1,5.5.3,0,0,.1,0,.1,0,.1-.8.4-1.9.6-3.4.3-1.5.5-2.4.5-2.9h0c0,0,0-.1,0-.1Z"/>
      <path class="cls-14" d="M391.7,595c-.3-1.6-.8-2.9-1.7-3.8-.9-.9-1.8-1.4-2.9-1.5s-2,.2-3,1-1.7,1.9-2.2,3.5c-.6,1.9-.8,3.5-.5,4.7.2.8.5,1.6.8,2.4s.9,1.9,1.6,3.3c.7,1.3,1.2,2.3,1.5,2.9.9,1.9,1.5,3.6,1.9,5.2.4,1.6.3,3.2-.2,4.8-.5,1.7-1.7,2.8-3.4,3.5-1.3.5-2.4.5-3.4,0-.9-.4-1.6-1.1-2.1-2.1-.8-1.4-1.1-3.2-1.2-5.5,0-.3.1-.6.4-.8.2-.2.5-.3.8-.3.3,0,.6.1.8.3.2.2.4.5.4.8,0,1.9.3,3.4.9,4.5.3.5.6.9,1,1,.5.2,1,.2,1.8,0,1-.4,1.7-1.1,2-2.1.4-1.2.4-2.4.1-3.7-.3-1.3-.9-2.9-1.6-4.6-.2-.4-.7-1.3-1.4-2.7-.7-1.4-1.3-2.6-1.7-3.5-.4-1-.7-1.9-.9-2.8-.4-1.5-.2-3.5.5-5.8.6-2,1.7-3.6,3.1-4.7,1.4-1.1,2.9-1.5,4.5-1.4,1.6.1,3,.8,4.2,2.1,1.2,1.3,2,2.9,2.4,5,0,.3,0,.6-.2.8-.2.2-.4.4-.7.5-.3,0-.6,0-.8-.2-.2-.2-.4-.4-.5-.7h0Z"/>
      <g class="cls-25">
        <g class="cls-25">
          <path class="cls-14" d="M256.5,593.8c.6-.8,1.1-1.7,1.6-2.6.5-.9,1.1-2.1,1.8-3.5.7-1.4,1.1-2.4,1.4-3,.3-.7.7-1.4,1.2-2.1l1.2-1.9c.3-.5.8-1.2,1.4-2.1l1.3-1.9c.4-.6,1-1.7,1.9-3.4l.8-1.6.3-.5c0,0,0-.1,0-.2,0,0,0,0,0-.1,0,0,0-.1.1-.1,0,0,.1-.1.2-.2.2-.2.5-.2.8-.2.7,0,1.3.5,1.8,1.3.3.4.5,1,.8,1.7.2.7.5,1.7.6,2.8.4,2.4.8,5.7,1,9.8.3,4.9.6,8.1.8,9.6,0,.3,0,.6-.3.9-.2.3-.5.4-.8.4-.3,0-.6,0-.9-.2-.3-.2-.4-.5-.5-.8-.2-1.9-.4-4.5-.6-7.7-3.7-.6-6.9-1-9.7-1.1l-.8,1.6-.9,1.7c-.2.4-.4.9-.8,1.6-.3.6-.7,1.2-1,1.7-.3.5-.7,1-1,1.5-.2.2-.4.4-.8.4-.3,0-.6,0-.9-.2-.3-.2-.4-.4-.5-.8,0-.3,0-.6.2-.9ZM264.1,584.8c2.4.2,5.2.5,8.3,1-.2-3.9-.5-6.9-.9-9.2-.2-1-.4-1.9-.6-2.5v-.3c-.1,0-.4.6-.4.6-.9,1.7-1.5,2.9-2,3.6l-1.4,2.1c-.7,1-1.2,1.8-1.7,2.6-.5.7-.9,1.4-1.3,2.1Z"/>
          <path class="cls-14" d="M283.2,574.8c.7,0,1.5,0,2.2,0,.8,0,1.5,0,2.1.1.6,0,1.4.2,2.3.3,1,.2,1.7.3,2.1.3.4,0,1.2.2,2.3.5s1.8.4,2,.5l2.2.5c1.3.3,1.9.5,2,.5.3,0,.6.3.7.5.2.3.2.6.1.9,0,.3-.3.6-.5.7-.3.2-.6.2-.9.1-3.7-.9-6.1-1.4-7.3-1.7-.4,2.7-.8,6.1-1.1,10.2,0,.9-.2,2.5-.3,5-.1,2.5-.2,4.4-.3,5.8,0,.3-.2.6-.4.8-.2.2-.5.3-.9.3-.3,0-.6-.2-.8-.4-.2-.2-.3-.5-.3-.9,0-1.4.2-3.3.4-5.8.1-2.5.2-4.2.3-5,.3-4.2.6-7.7,1.1-10.5-2.6-.4-4.9-.6-6.8-.5-.3,0-.6,0-.9-.3s-.4-.5-.4-.8c0-.3,0-.6.3-.9.2-.2.5-.4.8-.4Z"/>
        </g>
      </g>
      <path class="cls-1" d="M351.1,572.6c-.1.2-.2.7-.2,1,0,0,.1.5.1.6,0,.4.3.8.5,1,.1.1.2.3.4.4h0s0,0,0,0c0,0,.2,0,.3.1,0,0,.2,0,.3.1.2,0,.4,0,.7.1t.1,0c.1,0,.2,0,.3,0,.1,0,.1,0,.2-.2.3-.4,0-.5-.1-.6,0,0,0-.2,0-.3,0-.2-.2-.4-.3-.6,0,0-.1-.2-.2-.3,0,0,0,0-.1-.1,0,0,0,0-.1-.1-.2-.2-.7-.8-.9-.9-.1,0-.4,0-.4-.1,0,0,0-.2-.3-.2-.2,0-.2,0-.4,0h0Z"/>
      <path class="cls-1" d="M351.6,571.5c0,0,0,0,0,.2,0,0,0,0,.1.1,0,0,.3.5.7.3.3-.1.1-.1.3-.2.3-.1.4-.1.6-.3.5-.4.4-.5.7-.8,0,0,.2-.2.3-.3,0,0,.1,0,.2,0,0,0,0,0,.1-.1.3-.2.4-.4.6-.2.1,0,.4.4.7.2.1-.1.2-.2.2-.4v-.2c-.2-.2-1.1-.3-1.5-.2-.7,0-1.5.4-2.1.8,0,0,0,0-.1,0-.3.3-.5.5-.8.8,0,0-.1.2-.2.3h0Z"/>
      <path class="cls-1" d="M355.2,577.4c-.7-.1-1-.2-1.6-.6-.3-.2-.7-.5-.9-.7,0,0-.2-.2-.3-.2,0,0,0,0,0,0h0c0,0,0,0,0,0,.4.2.5.1.9.1h0c-.2,0-.4,0-.7-.2-.1,0-.2,0-.3-.1,0,0-.2,0-.2-.1,0,0,0,0,0,0t0,0h0s0,0,0,0c-.2-.2-.5-.5-.6-.7,0-.1-.2-.2-.2-.4,0,0-.1-.4-.1-.5,0,.5.3,1,.4,1.4.2.5.4.8.8,1.1.3.3.9.6,1.4.7.6.2,1.1.2,1.7.1h0Z"/>
      <path class="cls-1" d="M351.3,571.6s.3-.5.4-.5c.7-1,1.6-1.5,2.8-1.6.7-.1,1,0,1.6.2,0-.2-.4-.3-.6-.4-1-.3-2.1,0-2.9.7-.2.1-.4.3-.5.5-.2.3-.6.9-.8,1.3h0Z"/>
      <path class="cls-1" d="M357.7,570.8h0c0,0,0,0,0,0,0,0,0,0,0,0,0,0,0,0,0,0,0,0,0,0,0,0h0Z"/>
      <path class="cls-1" d="M356.7,570.3c0,0-.2.2-.3.3-.2.2-.2.3-.4.4,0,0-.1,0-.2.1-.3.2,0,0-.4.2-.5.1-.8.4-.9.5,0,0-.1,0-.2,0,0,0,0,0-.1.2,0,0-.1,0-.2.1-.1.2,0,.7,0,.9,0,.1.1.2.1.4,0,.2.1.2.3.3.4.3.5.2.7-.1,0,0,0,0,.2-.1.2-.1.4-.4.4-.4,0,0,.2.2.4.3,0,.1-.2.3-.3.7,0,.3,0,.5-.1.8-.3,0-.5-.2-.8.2,0,0-.2.1-.3.3-.1,0-.2.2-.2.4-.3.8.3,1.2,1,1,.1,0,.5-.2.6-.2.3-.2.2-.2.6-.2.2,0,.2-.1.4,0,.4,0,.6,0,.8-.3.1,0,.2-.2.3-.3,0,0,.1-.3.2-.4.2-.2.4-.9.4-1.2,0-.8,0-1.6-.4-2.3,0-.2-.4-.8-.5-.9,0,0,0,0,0,0s0,0,0,0l-.2-.2c0,0-.2-.1-.2-.2,0,0-.1,0-.2,0,0,0-.1,0-.2,0h0Z"/>
      <path class="cls-24" d="M408.7,587.4h0c2,.3,3.3,2.1,3,4.1l-2.6,17c-.4,2.3-.3,4,0,5.2.6,2,2.3,3.2,5.1,3.7,2.8.4,4.8-.2,6-2,.7-1,1.2-2.6,1.6-4.9l2.6-17c.3-2,2.1-3.3,4.1-3h0c2,.3,3.3,2.1,3,4.1l-2.6,17c-.5,3.5-1.5,6.2-3,8-2.6,3.3-6.9,4.5-12.7,3.6s-9.5-3.3-11-7.3c-.8-2.2-.9-5-.4-8.6l2.6-17c.3-2,2.1-3.3,4.1-3h0Z"/>
      <path class="cls-24" d="M457.3,614.6c-2.3,1.3-5.2,1.7-8.9,1.2l-3.6-.5c-2-.3-3.8,1-4.1,3l-.8,5.2c-.3,1.9-2.1,3.3-4.1,3h0c-2-.3-3.3-2.1-3-4.1l4.2-26.9c.3-1.9,2.1-3.3,4.1-3l11.1,1.7c3.4.5,5.9,1.8,7.7,3.9,1.7,2.1,2.3,4.9,1.8,8.6-.6,4-2.1,6.7-4.3,8h0ZM453.7,601.5c-.8-.9-2-1.5-3.6-1.7l-2.9-.5c-2-.3-3.8,1-4.1,3l-.5,2.9c-.3,1.9,1,3.8,3,4.1l2.9.5c1.6.2,3,0,4-.6,1-.7,1.7-1.9,2-3.7s0-3.1-.8-4h0Z"/>
      <path class="cls-24" d="M339.7,582c-4.6,4.6-8,8.4-10.4,11.4l-1.2,1.6h-.1c0,.1,0,.6,0,.6.1,0,.3,0,.4.1.3,0,.8.2,1.3.3.5.1.8.2,1,.2,1.1.4,2.2.8,3.3,1.3,1.1.5,2,.9,2.6,1.2.6.3,1.6.8,2.9,1.5,1.3.7,2.2,1.2,2.8,1.5.3.2.5.4.6.7s0,.6,0,.8c-.1.3-.4.5-.7.6s-.6,0-.9,0l-2.8-1.5-2.8-1.5c-.6-.3-1.5-.7-2.5-1.2-1-.5-2.1-.8-3.1-1.2,0,0-.4-.1-.8-.2-.6-.2-1-.3-1.4-.3h-.1c-.5,4.2-.8,7.3-1,9.2,0,.3-.2.5-.4.8-.2.2-.5.3-.8.2s-.5-.2-.8-.4c-.2-.2-.3-.5-.2-.8.2-1.9.6-5.2,1.1-9.9-.2-.2-.3-.3-.4-.5-.1-.2-.2-.5-.1-.8,0,0,0-.2,0-.3,0,0,0-.1.1-.2,0-.1.1-.2.2-.4l.4-.5c.2-2,.4-3.7.6-5.2.1-1.1.6-3.6,1.3-7.6.6-3.2.9-5.7.9-7.4,0-.3.1-.6.4-.8.2-.2.5-.3.8-.3.3,0,.6.1.8.4s.3.5.3.8c0,1.9-.4,4.5-1,7.7-.7,3.9-1.1,6.4-1.2,7.5l-.2,1.4c2.2-2.8,5.4-6.2,9.5-10.3.2-.2.5-.3.8-.3s.6.1.8.3c.2.2.3.5.3.8s-.1.6-.3.8h0Z"/>
      <path class="cls-24" d="M354.9,581.1c-.5,7.8-1.7,18.2-3.7,31.1,0,.3-.2.5-.5.7-.3.2-.5.3-.8.2s-.5-.2-.7-.5-.3-.5-.2-.8c2-12.9,3.2-23.2,3.7-30.9,0-.3.1-.6.4-.8.2-.2.5-.3.8-.3.3,0,.6.1.8.4.2.2.3.5.3.8h0Z"/>
      <path class="cls-24" d="M376,580.1c0,1-.2,2.1-.3,3.1-.1,1.1-.3,2.3-.6,3.8-.3,1.5-.4,2.5-.5,3-.4,2.8-1.7,10.3-2.7,15.8-1,5.5-1.2,6.2-1.6,9,0,.3-.2.5-.5.7-.3.2-.5.3-.8.2s-.5-.2-.7-.5-.3-.5-.2-.8c.3-1.8.1-.5.5-2.8-2,.5-4.1.2-6.2-.7-1.4-.7-2.6-1.5-3.4-2.5-.8-1.1-1.3-2.2-1.5-3.3s0-2.2.2-3.4.8-2.1,1.5-3c.7-.9,1.5-1.6,2.6-2.1s2.1-.6,3.3-.5c2,.3,3.9,1.5,5.7,3.6.5-2.5,1.4-8.2,1.7-10.2,0-.6.3-1.6.5-3,.3-1.5.5-2.7.6-3.7.1-1,.2-2,.2-2.9,0-.3.1-.6.4-.8s.5-.3.8-.3c.3,0,.6.1.8.4.2.2.3.5.3.8h0ZM370,602.8c-1.7-2.7-3.5-4.1-5.3-4.3-1.5-.2-2.8.4-3.9,1.7-.5.6-.9,1.3-1.1,2.1-.2.8-.3,1.6-.1,2.4.1.8.5,1.6,1.1,2.3s1.4,1.4,2.5,1.8c2,.9,3.9,1,5.5.3,0,0,.1,0,.1,0,.1-.8.4-1.9.6-3.4.3-1.5.5-2.4.5-2.9h0c0,0,0-.1,0-.1Z"/>
      <path class="cls-24" d="M390.4,591.6c-.3-1.6-.8-2.9-1.7-3.8-.9-.9-1.8-1.4-2.9-1.5s-2,.2-3,1-1.7,1.9-2.2,3.5c-.6,1.9-.8,3.5-.5,4.7.2.8.5,1.6.8,2.4s.9,1.9,1.6,3.3c.7,1.3,1.2,2.3,1.5,2.9.9,1.9,1.5,3.6,1.9,5.2.4,1.6.3,3.2-.2,4.8-.5,1.7-1.7,2.8-3.4,3.5-1.3.5-2.4.5-3.4,0-.9-.4-1.6-1.1-2.1-2.1-.8-1.4-1.1-3.2-1.2-5.5,0-.3.1-.6.4-.8.2-.2.5-.3.8-.3.3,0,.6.1.8.3.2.2.4.5.4.8,0,1.9.3,3.4.9,4.5.3.5.6.9,1,1,.5.2,1,.2,1.8,0,1-.4,1.7-1.1,2-2.1.4-1.2.4-2.4.1-3.7-.3-1.3-.9-2.9-1.6-4.6-.2-.4-.7-1.3-1.4-2.7-.7-1.4-1.3-2.6-1.7-3.5-.4-1-.7-1.9-.9-2.8-.4-1.5-.2-3.5.5-5.8.6-2,1.7-3.6,3.1-4.7,1.4-1.1,2.9-1.5,4.5-1.4,1.6.1,3,.8,4.2,2.1,1.2,1.3,2,2.9,2.4,5,0,.3,0,.6-.2.8-.2.2-.4.4-.7.5-.3,0-.6,0-.8-.2-.2-.2-.4-.4-.5-.7h0Z"/>
      <g class="cls-25">
        <g class="cls-25">
          <path class="cls-21" d="M255.2,590.4c.6-.8,1.1-1.7,1.6-2.6.5-.9,1.1-2.1,1.8-3.5.7-1.4,1.1-2.4,1.4-3,.3-.7.7-1.4,1.2-2.1l1.2-1.9c.3-.5.8-1.2,1.4-2.1l1.3-1.9c.4-.6,1-1.7,1.9-3.4l.8-1.6.3-.5c0,0,0-.1,0-.2,0,0,0,0,0-.1,0,0,0-.1.1-.1,0,0,.1-.1.2-.2.2-.2.5-.2.8-.2.7,0,1.3.5,1.8,1.3.3.4.5,1,.8,1.7.2.7.5,1.7.6,2.8.4,2.4.8,5.7,1,9.8.3,4.9.6,8.1.8,9.6,0,.3,0,.6-.3.9-.2.3-.5.4-.8.4-.3,0-.6,0-.9-.2-.3-.2-.4-.5-.5-.8-.2-1.9-.4-4.5-.6-7.7-3.7-.6-6.9-1-9.7-1.1l-.8,1.6-.9,1.7c-.2.4-.4.9-.8,1.6-.3.6-.7,1.2-1,1.7-.3.5-.7,1-1,1.5-.2.2-.4.4-.8.4-.3,0-.6,0-.9-.2-.3-.2-.4-.4-.5-.8,0-.3,0-.6.2-.9ZM262.8,581.3c2.4.2,5.2.5,8.3,1-.2-3.9-.5-6.9-.9-9.2-.2-1.1-.4-1.9-.6-2.5v-.3c-.1,0-.4.6-.4.6-.9,1.7-1.5,2.9-2,3.6l-1.4,2.1c-.7,1-1.2,1.8-1.7,2.6-.4.7-.9,1.4-1.3,2.1Z"/>
          <path class="cls-21" d="M281.9,571.3c.7,0,1.5,0,2.2,0,.8,0,1.5,0,2.1.1.6,0,1.4.2,2.3.3,1,.2,1.7.3,2.1.3.4,0,1.2.2,2.3.5,1.1.3,1.8.4,2,.5l2.2.5c1.3.3,1.9.5,2,.5.3,0,.6.3.7.5.2.3.2.6.1.9,0,.3-.3.6-.5.7-.3.2-.6.2-.9.1-3.7-.9-6.1-1.4-7.3-1.7-.4,2.7-.8,6.1-1.1,10.2,0,.9-.2,2.5-.3,5-.1,2.5-.2,4.4-.3,5.8,0,.3-.2.6-.4.8-.2.2-.5.3-.9.3-.3,0-.6-.2-.8-.4-.2-.2-.3-.5-.3-.9,0-1.4.2-3.3.4-5.8.1-2.5.2-4.2.3-5,.3-4.2.6-7.7,1.1-10.5-2.6-.4-4.9-.6-6.8-.5-.3,0-.6,0-.9-.3-.3-.2-.4-.5-.4-.8,0-.3,0-.6.3-.9.2-.2.5-.4.8-.4Z"/>
        </g>
        <g class="cls-25">
          <path class="cls-26" d="M255.2,590.4c.6-.8,1.1-1.7,1.6-2.6.5-.9,1.1-2.1,1.8-3.5.7-1.4,1.1-2.4,1.4-3,.3-.7.7-1.4,1.2-2.1l1.2-1.9c.3-.5.8-1.2,1.4-2.1l1.3-1.9c.4-.6,1-1.7,1.9-3.4l.8-1.6.3-.5c0,0,0-.1,0-.2,0,0,0,0,0-.1,0,0,0-.1.1-.1,0,0,.1-.1.2-.2.2-.2.5-.2.8-.2.7,0,1.3.5,1.8,1.3.3.4.5,1,.8,1.7.2.7.5,1.7.6,2.8.4,2.4.8,5.7,1,9.8.3,4.9.6,8.1.8,9.6,0,.3,0,.6-.3.9-.2.3-.5.4-.8.4-.3,0-.6,0-.9-.2-.3-.2-.4-.5-.5-.8-.2-1.9-.4-4.5-.6-7.7-3.7-.6-6.9-1-9.7-1.1l-.8,1.6-.9,1.7c-.2.4-.4.9-.8,1.6-.3.6-.7,1.2-1,1.7-.3.5-.7,1-1,1.5-.2.2-.4.4-.8.4-.3,0-.6,0-.9-.2-.3-.2-.4-.4-.5-.8,0-.3,0-.6.2-.9ZM262.8,581.3c2.4.2,5.2.5,8.3,1-.2-3.9-.5-6.9-.9-9.2-.2-1.1-.4-1.9-.6-2.5v-.3c-.1,0-.4.6-.4.6-.9,1.7-1.5,2.9-2,3.6l-1.4,2.1c-.7,1-1.2,1.8-1.7,2.6-.4.7-.9,1.4-1.3,2.1Z"/>
          <path class="cls-26" d="M281.9,571.3c.7,0,1.5,0,2.2,0,.8,0,1.5,0,2.1.1.6,0,1.4.2,2.3.3,1,.2,1.7.3,2.1.3.4,0,1.2.2,2.3.5,1.1.3,1.8.4,2,.5l2.2.5c1.3.3,1.9.5,2,.5.3,0,.6.3.7.5.2.3.2.6.1.9,0,.3-.3.6-.5.7-.3.2-.6.2-.9.1-3.7-.9-6.1-1.4-7.3-1.7-.4,2.7-.8,6.1-1.1,10.2,0,.9-.2,2.5-.3,5-.1,2.5-.2,4.4-.3,5.8,0,.3-.2.6-.4.8-.2.2-.5.3-.9.3-.3,0-.6-.2-.8-.4-.2-.2-.3-.5-.3-.9,0-1.4.2-3.3.4-5.8.1-2.5.2-4.2.3-5,.3-4.2.6-7.7,1.1-10.5-2.6-.4-4.9-.6-6.8-.5-.3,0-.6,0-.9-.3-.3-.2-.4-.5-.4-.8,0-.3,0-.6.3-.9.2-.2.5-.4.8-.4Z"/>
        </g>
      </g>
    </g>
  </g>
</svg>