<?xml version="1.0" encoding="UTF-8"?><svg id="Layer_1" xmlns="http://www.w3.org/2000/svg" xmlns:xlink="http://www.w3.org/1999/xlink" viewBox="0 0 410 728"><defs><style>.cls-1{fill:#faf0f0;}.cls-1,.cls-2,.cls-3,.cls-4,.cls-5,.cls-6,.cls-7,.cls-8,.cls-9{stroke-width:0px;}.cls-2{fill:#2db999;}.cls-3{fill:#f2b16d;}.cls-4{fill:none;}.cls-5{fill:#f5de6e;}.cls-6{fill:#3c9e83;}.cls-10{clip-path:url(#clippath);}.cls-7{fill:#1a7373;}.cls-8{fill:#1d7a6f;}.cls-9{fill:#fff;}</style><clipPath id="clippath"><rect class="cls-4" width="410" height="728"/></clipPath></defs><g class="cls-10"><path class="cls-7" d="M4.31,228.14c13.39,10.2,24.83,24.33,36.04,37.09,15.57,17.72,28.32,37.73,39.42,58.95,3.45,6.59,11.73,18.81,15.38,26.8-2.62-13.28-7.53-31.64-8.87-44.92-2.76-27.35-7.34-57.92-.41-85.61,2.58-10.3,8.43-28.57,15.71-36.56,7.24-7.94,9.75-3.06,14.88,4.15,20.98,29.49,26.61,74.47,25.59,111.63-.63,23.09-5.8,65.81-5.8,65.81,0,0,31.54-51.02,39.73-63.17,22.84-33.92,37.92-48.68,63.54-69.35,5.11-4.12,29.48-23.8,35.35-19.92,3.52,2.32-1.09,20.45-1.96,24.11-14,59.18-58.23,117.25-103.64,154.28,25.8-11.94,51.19-29.05,79.17-34.74,16.19-3.29,74.08-11.67,84.49-6.97-10.97,31.24-50.2,48.59-76.63,60.61-15.56,7.08-38.43,15.55-59.26,17.34,7.92,1.95,15.69,4.33,22.93,6.75,12.68,4.24,108.75,43.18,90.94,60.35-5.8,5.59-19.15,3.87-25.67,3.85-18.5-.06-37.37-1.59-55.03-6.56-31.7-8.93-73.64-23.34-110.96-54.21-21.26-17.59-34.74-27.07-53.21-48.08-15.8-17.97-23.94-27.34-40.09-54.41-17-28.48-37.97-72.9-35.05-100.63,1.35-12.83,5.22-12.81,13.4-6.58Z"/><path class="cls-2" d="M-105.93,451.22c7.13-28.74,17.8-52.9,35.57-77.41,20.05-27.65,47.19-42.97,74.65-63.07,34.52-25.27,72.31-48.54,106.05-74.44,19.77-15.17,37.16-24.62,56.25-38.04,13.27-9.33,34.97-21.28,52.87-22.25-.24,14.94-.05,36.16-3.84,51.29-5.62,22.43-10.51,39.03-24.46,57.71-21.17,28.36-40.37,53.21-64.18,79.74-22.01,24.52-42.37,48.36-62.92,73.63-18.27,22.47-39.78,50.93-69.75,61.77-17.81,6.44-40.42,11.14-59.71,10.2-11.1-.54-37.32-.33-45.79-6.16-1.78-6.89,2.64-42.39,5.26-52.96Z"/><path class="cls-8" d="M193.23,208.69c-13.21,31.99-37.56,56.42-62.21,79.9-12.4,11.81-24.28,24.17-36.77,35.87-12.3,11.54-25.41,22.2-38.67,32.62C28.19,378.61-.18,398.88-27,421.13c-27.26,22.62-53.55,47.17-76.17,74.49-22,26.58-41.23,55.46-60.72,83.89-.68.99-2.14-.18-1.46-1.17,17.44-25.44,34.77-51.02,53.82-75.3,20.8-26.52,45.15-50.44,70.57-72.51,26.31-22.85,54.42-43.38,82.05-64.57,13.8-10.58,27.49-21.33,40.63-32.72,12.55-10.89,23.94-22.91,35.9-34.42,28.29-27.22,58.58-53.76,73.91-90.89.46-1.11,2.17-.36,1.71.75h0Z"/><path class="cls-6" d="M131.56,712.59l21.79,15.7c11.06-4.74,21.9-9.84,32.02-17.43,11.13-8.36,13.81-23.5,25.42-28.9,13.99-6.51,30.26-5.68,44.57-11.84,13.49-5.78,23.61-16.19,33.12-29.19,8.36-11.43,13.71-13.27,25.66-16.71,32.89-9.49,73.38-17.41,96.47-50.2-28.61,5.17-95.82-.99-191.83,62.6-33.25,22.03-60.12,44.61-87.23,75.96Z"/><path class="cls-6" d="M146.68,696.39l25.44,4.62c10.49-21.17,21.22-38.76,33.82-59.45,28.27-46.44,58.89-90.08,100.14-124.12,7.81-6.44,16.3-12.16,24.72-17.57,3.92-2.52,14.84-6.36,17.55-9.87,10.16-13.17-16.56-10.74-24.87-8.57-33.85,8.84-68.59,25.8-88.88,58.12-9.36,14.91-17.92,19.79-30.19,31.53-13.33,12.77-19.08,31.69-20.31,48.3-15.9,11.93-28.52,31.39-31.05,51.14-.67,5.25,1.48,12.67-.57,17.58-1.11,2.66-3.3,5.47-5.81,8.3Z"/><path class="cls-6" d="M110.29,394.23c1.44,1.42-1.05,15.38-1.06,18.12-.03,5.68.57,11.16,2.47,16.4,4.49,12.43,14.45,21.86,11.8,36.59-1.36,7.64-4.28,15.42-2.73,22.88,2,9.6,10.85,15.85,12.95,25.41,2.47,11.26-5.08,22.54-6.39,34.19-.86,7.68,1.09,15.4,4.54,21.98,3.14,6,7.57,11.35,9.12,18.09,2.17,9.45-1.66,18.99-3.47,28.27-1.65,8.48,1.13,16.16,1.72,24.66.97,13.97-8.09,28.71-4.66,42.55,1.78,7.17,6.34,7,9.25,12.57.03.05.04.1.06.15l22.57,4.95c2.08-11.98,4.18-24.03,4.18-24.04,16.1-96.59,8.44-215.13-60.36-282.78Z"/><path class="cls-6" d="M-74.79,434.39S-40.01,474.49.61,493.98c14.36,6.89,10.81,29.19,22.14,41.54,10.35,11.3,27.02,15.08,37.21,25.4,11.52,11.65,4.55,27.1,11.92,42,9.1,18.41,27.72,18.55,40.68,30.43,10.01,9.18,11.25,24.89,18.62,37.63l33.2,6.02c-9.62-43.43-28.42-92.76-60.77-137.65-45.38-62.98-101.5-111.04-178.4-104.97Z"/><path class="cls-6" d="M33.47,604.15c34.6,14.38,64.14,33.71,94.14,57.03,14.4,11.19,41.9,51.52,41.9,51.52l-1.11.17-16.53-.61c-9.1-4.05-17.44-13.58-27.02-15.68-13.38-2.93-17.12-9.66-27.63-17.03-6.55-4.59-13.59-3.96-21.11-7.86-9.13-4.73-13.08-10.49-23.05-13.14-11.88-3.15-25.14-4.85-32.48-16.49-7.43-11.78-3.48-12.31-17.82-14.46-32.96-4.93-68.24-16.58-93.3-40.32,41.34-11.38,86.18,1.14,124.01,16.86Z"/><path class="cls-7" d="M-20.46,379.66c-17.01,9.41-53.02,17.82-62.85-6.09-4.22-10.27-4.51-26.24-6.25-37.34-7.39-34.88,6.86-69.3,15.71-102.64C-49.66,178.78-16.93,124.57,29.16,85.44c8.61-6.76,49.46-38.79,57.59-44.76,27.67-16,46.99-24.16,75.04-39.75-3.86,20.67-7.82,41.53-15.22,61.29-20.95,45.94-60.33,82.68-86.27,126.09-28.09,41.23-42.09,84.44-51.16,132.87-3.4,20.6-7.54,49.59-29.59,58.48Z"/><path class="cls-9" d="M46.38,357.57l11.68,1.13c16.33-1.81,31.91-14.45,33.95-23.58,0,0,0-.01,0-.02.15-.66.22-1.3.22-1.91,0-2.18-.24-4.13-1.01-5.8-2.76-6.04-10.54-8.59-17.5-6.08-10.06,3.63-21.81,20.34-26.11,32.16-.53,1.45-.94,2.83-1.24,4.1Z"/><path class="cls-1" d="M46.38,357.57l11.68,1.13c16.33-1.81,31.91-14.45,33.95-23.58,0,0,0-.01,0-.02.11-.63.18-1.26.22-1.91.13-2.18-.24-4.13-1.01-5.8-3.52-4.18-10.01-5.68-15.9-3.55-9.13,3.3-21.8,17.99-27.71,29.63-.53,1.45-.94,2.83-1.24,4.1Z"/><path class="cls-9" d="M45.91,352.43l2.53,11.46c6.77,14.97,23.6,25.88,32.91,25,0,0,.01,0,.02,0,.67-.06,1.3-.19,1.89-.38,2.08-.68,3.85-1.51,5.21-2.75,4.89-4.49,4.91-12.68.37-18.52-6.57-8.44-26.09-14.46-38.65-14.89-1.54-.06-2.98-.02-4.28.09Z"/><path class="cls-1" d="M45.91,352.43l2.53,11.46c6.77,14.97,23.6,25.88,32.91,25,0,0,.01,0,.02,0,.63-.09,1.26-.22,1.89-.38,2.12-.55,3.85-1.51,5.21-2.75,2.89-4.64,2.31-11.27-1.54-16.22-5.95-7.66-23.84-15.17-36.74-17.2-1.54-.06-2.98-.02-4.28.09Z"/><path class="cls-9" d="M50.66,350.4l-10.11,5.95c-12.15,11.07-17.32,30.44-13.6,39.03,0,0,0,0,0,.02.27.62.58,1.18.95,1.68,1.28,1.77,2.62,3.2,4.22,4.1,5.78,3.27,13.58.75,17.73-5.37,6-8.85,5.69-29.28,2.22-41.36-.42-1.48-.9-2.84-1.41-4.04Z"/><path class="cls-1" d="M50.66,350.4l-10.11,5.95c-12.15,11.07-17.32,30.44-13.6,39.03,0,0,0,0,0,.02.28.57.59,1.13.95,1.68,1.18,1.84,2.62,3.2,4.22,4.1,5.3,1.31,11.43-1.29,14.95-6.48,5.45-8.03,7.06-27.36,5-40.26-.42-1.48-.9-2.84-1.41-4.04Z"/><path class="cls-9" d="M54.06,354.29l-8.78-7.78c-14.28-8.13-34.31-7.07-41.32-.88,0,0,0,0-.01.01-.51.45-.94.92-1.3,1.42-1.28,1.77-2.23,3.48-2.59,5.28-1.32,6.51,3.48,13.14,10.59,15.2,10.28,2.97,29.6-3.64,40.03-10.67,1.28-.86,2.43-1.73,3.41-2.59Z"/><path class="cls-1" d="M54.06,354.29l-8.78-7.78c-14.28-8.13-34.31-7.07-41.32-.88,0,0,0,0-.01.01-.45.44-.89.91-1.3,1.42-1.39,1.69-2.23,3.48-2.59,5.28.39,5.45,4.76,10.47,10.78,12.22,9.32,2.7,28.21-1.74,39.83-7.69,1.28-.86,2.43-1.73,3.41-2.59Z"/><path class="cls-9" d="M51.41,358.72l4.69-10.76c3.32-16.09-3.88-34.81-11.93-39.57,0,0-.01,0-.02,0-.58-.34-1.17-.61-1.75-.8-2.08-.67-4-1.05-5.83-.83-6.6.75-11.43,7.37-11.19,14.76.35,10.69,12.61,27.03,22.52,34.77,1.21.95,2.4,1.77,3.51,2.44Z"/><path class="cls-1" d="M51.41,358.72l4.69-10.76c3.32-16.09-3.88-34.81-11.93-39.57,0,0-.01,0-.02,0-.56-.29-1.14-.56-1.75-.8-2.04-.8-4-1.05-5.83-.83-5.06,2.06-8.49,7.76-8.29,14.03.31,9.7,10.37,26.29,19.62,35.51,1.21.95,2.4,1.77,3.51,2.44Z"/><path class="cls-5" d="M62.49,341.62c.09,1.35-.02,2.7-.32,4.02,1.19.08,2.38.15,3.58.23.29.02.65.11.68.39.02.18-.13.34-.27.46-1.13,1.05-2.27,2.11-3.4,3.16,1.43.48,2.89.87,4.37,1.15-.69.92-1.49,1.76-2.38,2.5,1.07.23,2.09.67,2.98,1.3-3.23.96-6.61,1.2-9.97,1.44,2.22,1.5,4.02,3.6,5.16,6.03-1.07.06-2.15.02-3.22-.11.31,1.21.26,2.52-.16,3.7-1.53-.8-3.06-1.61-4.59-2.41-.66,1.51-1.4,2.98-2.23,4.4-.11.19-.25.39-.46.4-.17,0-.31-.11-.44-.22-.5-.46-.95-.99-1.33-1.56-.08-.12-.17-.25-.31-.27-.14-.02-.26.07-.37.15-1.71,1.32-3.42,2.65-5.13,3.97-.15-1.14-.29-2.29-.44-3.43-1.27.16-2.52.38-3.77.68.7-1.3,1.17-2.72,1.36-4.18.03-.27.05-.56-.12-.77-.15-.18-.41-.23-.65-.27-2.82-.44-5.63-.87-8.45-1.31,1.2-1.16,2.62-2.1,4.16-2.75-1.6-.76-3.2-1.51-4.8-2.27,1.59-.8,3.37-1.19,5.15-1.14-1.24-.74-2.39-1.63-3.42-2.64,2.04-.14,4.09-.06,6.11.24-.87-.89-1.73-1.77-2.6-2.66,2.16-.14,4.34.03,6.45.52-1.71-3.32-2.64-6.98-3.54-10.61-.02-.09-.04-.18,0-.26.07-.16.29-.17.46-.14,2.04.37,3.08,2.6,4.62,3.98-.21-1.32,0-2.7.58-3.9,1.23,1.48,2.32,3.08,3.24,4.77.18-1.67.89-3.28,2.01-4.53,1.13,1.18,1.84,2.75,1.96,4.38.08-1.31.35-2.6.8-3.84-.04.08,1.57,1.71,1.71,1.91.7.94.73,2.46,1.12,3.6.91-.64,1.85-1.24,2.69-1.94.99-.82,2.05-1.54,3.16-2.16Z"/><path class="cls-3" d="M47.54,357.79c1.49,1.65,4.05,1.78,5.7.29,1.65-1.49,1.78-4.05.29-5.7-1.49-1.65-4.05-1.78-5.7-.29s-1.78,4.05-.29,5.7Z"/><path class="cls-9" d="M98.67,509.2l10.77-4.65c13.43-9.47,20.97-28.06,18.34-37.04,0,0,0-.01,0-.02-.19-.65-.43-1.24-.73-1.78-1.05-1.91-2.21-3.5-3.68-4.59-5.33-3.96-13.38-2.43-18.26,3.13-7.06,8.04-9.28,28.34-7.34,40.77.23,1.52.54,2.93.9,4.18Z"/><path class="cls-1" d="M98.67,509.2l10.77-4.65c13.43-9.47,20.97-28.06,18.34-37.04,0,0,0-.01,0-.02-.21-.6-.45-1.19-.73-1.78-.94-1.98-2.21-3.5-3.68-4.59-5.1-1.96-11.5-.14-15.64,4.57-6.4,7.29-10.41,26.27-9.96,39.33.23,1.52.54,2.93.9,4.18Z"/><path class="cls-9" d="M95.79,504.92l7.75,8.81c13.16,9.84,33.16,11.27,40.89,6,0,0,0,0,.02-.01.56-.38,1.05-.8,1.47-1.25,1.49-1.59,2.65-3.18,3.23-4.92,2.12-6.29-1.82-13.47-8.62-16.4-9.83-4.23-29.82-.06-41.04,5.62-1.38.69-2.62,1.42-3.7,2.14Z"/><path class="cls-1" d="M95.79,504.92l7.75,8.81c13.16,9.84,33.16,11.27,40.89,6,0,0,0,0,.02-.01.5-.38,1-.8,1.47-1.25,1.59-1.5,2.65-3.18,3.23-4.92.29-5.46-3.42-10.98-9.18-13.46-8.91-3.84-28.2-1.78-40.48,2.68-1.38.69-2.62,1.42-3.7,2.14Z"/><path class="cls-9" d="M98.96,500.86l-5.98,10.09c-5.29,15.56-.47,35.02,6.93,40.75,0,0,.01,0,.02.01.53.41,1.08.75,1.64,1.01,1.98.93,3.84,1.53,5.68,1.55,6.64.07,12.25-5.89,12.93-13.26.98-10.65-9.16-28.38-18.03-37.3-1.08-1.1-2.16-2.06-3.18-2.86Z"/><path class="cls-1" d="M98.96,500.86l-5.98,10.09c-5.29,15.56-.47,35.02,6.93,40.75,0,0,.01,0,.02.01.52.36,1.07.7,1.64,1.01,1.92,1.05,3.84,1.53,5.68,1.55,5.28-1.41,9.39-6.65,9.96-12.89.89-9.66-7.03-27.37-15.06-37.67-1.08-1.1-2.16-2.06-3.18-2.86Z"/><path class="cls-9" d="M103.82,502.62l-11.45-2.57c-16.43-.23-33.46,10.38-36.61,19.18,0,0,0,.01,0,.02-.23.63-.38,1.26-.46,1.87-.27,2.17-.27,4.13.28,5.88,1.98,6.34,9.39,9.83,16.61,8.2,10.43-2.36,24.17-17.48,29.9-28.67.71-1.37,1.29-2.69,1.73-3.91Z"/><path class="cls-1" d="M103.82,502.62l-11.45-2.57c-16.43-.23-33.46,10.38-36.61,19.18,0,0,0,.01,0,.02-.18.61-.34,1.23-.46,1.87-.4,2.15-.27,4.13.28,5.88,2.97,4.58,9.22,6.88,15.34,5.49,9.47-2.14,23.86-15.14,31.17-25.96.71-1.37,1.29-2.69,1.73-3.91Z"/><path class="cls-9" d="M103.64,507.78l-1.09-11.68c-4.86-15.7-20.21-28.61-29.55-28.89,0,0-.01,0-.02,0-.67-.02-1.32.03-1.92.14-2.15.41-4.01,1.02-5.51,2.08-5.41,3.85-6.45,11.97-2.67,18.33,5.47,9.19,24.09,17.58,36.51,19.58,1.52.25,2.95.39,4.26.44Z"/><path class="cls-1" d="M103.64,507.78l-1.09-11.68c-4.86-15.7-20.21-28.61-29.55-28.89,0,0-.01,0-.02,0-.63.01-1.28.06-1.92.14-2.17.28-4.01,1.02-5.51,2.08-3.44,4.25-3.69,10.9-.49,16.28,4.96,8.34,21.77,18.02,34.32,21.62,1.52.25,2.95.39,4.26.44Z"/><path class="cls-5" d="M105.08,487.46c.73,1.13,1.29,2.38,1.66,3.67,1.08-.51,2.16-1.02,3.24-1.52.26-.12.62-.22.78.02.1.15.05.36,0,.53-.48,1.47-.97,2.94-1.45,4.41,1.48-.27,2.95-.64,4.38-1.1-.16,1.14-.46,2.27-.88,3.34,1.05-.31,2.15-.42,3.24-.3-2.36,2.39-5.21,4.24-8.04,6.07,2.67.24,5.26,1.21,7.43,2.78-.91.57-1.88,1.06-2.87,1.46.86.91,1.44,2.08,1.65,3.32-1.73.03-3.46.07-5.18.1.15,1.64.21,3.28.17,4.93,0,.21-.03.46-.21.58-.14.09-.33.06-.49.02-.66-.17-1.31-.41-1.91-.72-.13-.07-.27-.14-.4-.09-.13.05-.2.19-.25.31-.86,1.98-1.72,3.97-2.58,5.95-.68-.93-1.36-1.86-2.04-2.8-1.03.75-2.02,1.55-2.97,2.41-.01-1.47-.29-2.95-.83-4.32-.1-.25-.23-.52-.48-.61-.22-.08-.47,0-.69.08-2.68.98-5.35,1.96-8.03,2.94.49-1.6,1.28-3.11,2.32-4.42-1.77.11-3.53.22-5.3.33,1.01-1.46,2.38-2.67,3.95-3.49-1.44-.05-2.88-.27-4.27-.66,1.72-1.11,3.56-2.02,5.47-2.74-1.19-.36-2.37-.71-3.56-1.07,1.82-1.17,3.82-2.07,5.9-2.67-3.1-2.08-5.68-4.84-8.23-7.58-.06-.07-.13-.14-.13-.23-.02-.17.17-.29.33-.34,1.96-.66,3.95.78,5.97,1.26-.82-1.05-1.31-2.36-1.38-3.69,1.79.7,3.52,1.58,5.14,2.62-.65-1.55-.8-3.3-.42-4.94,1.56.48,2.94,1.52,3.83,2.89-.56-1.19-.95-2.45-1.15-3.75,0,.09,2.2.74,2.42.84,1.07.49,1.83,1.8,2.72,2.61.49-1,1.02-1.98,1.42-3,.47-1.19,1.05-2.34,1.73-3.42Z"/><path class="cls-3" d="M99.8,508.84c2.11.73,4.41-.39,5.13-2.5.73-2.11-.39-4.41-2.5-5.13-2.11-.73-4.41.39-5.13,2.5-.73,2.11.39,4.41,2.5,5.13Z"/></g></svg>