<?xml version="1.0" encoding="UTF-8"?><svg xmlns="http://www.w3.org/2000/svg" viewBox="0 0 576 1024"><defs><style>.cls-1{fill:#ffffde;}.cls-1,.cls-2,.cls-3,.cls-4,.cls-5,.cls-6,.cls-7,.cls-8,.cls-9,.cls-10,.cls-11,.cls-12,.cls-13,.cls-14,.cls-15,.cls-16,.cls-17,.cls-18,.cls-19{stroke-width:0px;}.cls-1,.cls-16,.cls-18{mix-blend-mode:multiply;}.cls-2{fill:#79bfc6;}.cls-3{fill:#ed8a66;}.cls-20{isolation:isolate;}.cls-4,.cls-7,.cls-8,.cls-17{fill:#91f7ff;}.cls-5{fill:none;}.cls-6{fill:#faeaaa;}.cls-7{opacity:.76;}.cls-8{opacity:.51;}.cls-9{fill:#78e3eb;}.cls-10{fill:#e1fffb;}.cls-11{fill:#f5ffff;}.cls-12{fill:#ffc05a;}.cls-13{fill:#00a2ff;}.cls-21{mix-blend-mode:overlay;}.cls-14{fill:#fff;}.cls-15{fill:#1c7a8e;}.cls-16{fill:#ffe1a3;opacity:.34;}.cls-17{opacity:.47;}.cls-18{fill:#ffebc1;opacity:.6;}.cls-19{fill:#fff3a3;}</style></defs><g class="cls-20"><g id="Layer_1"><rect class="cls-13" x="-515.05" y="-570.1" width="2245.45" height="1407.04" transform="translate(1215.35 266.85) rotate(-180)"/><path class="cls-11" d="M944.66,588.7s0,0,0,0c-22.86-.88-45.8.06-68.68-.32,55.78-48.68-14.45-113.96-70.63-83.86,9.21-26.31-3.84-56.18-33.62-58.11,15.3-13.05,21.76-40.85,6.28-56.1,24.22-9.32,30.64-45.04,6.08-57.74,51.86-29.97,8.31-104.15-42.2-76.85-3.44-19.03-23.29-31.13-41.7-27.9,4.99-31.27-24.18-52.67-52.44-38.5-32.19-55.88-125.01-18.39-98.31,44.41-31.78,16.69-34.61,53.16-4.77,73.6-19.32,14.63-25.91,45.76-7.86,64.25-6.15-1.21-12.84-1.64-19.15-.73-42.05,6.07-59.26,42.08-51.17,73.7-37.66-13.03-84.39,44.91-44.64,71.66-3.31,2.91-5.85,6.43-7.63,10.34-17.52-14.96-56.93-13.79-64.69,11.03-23.37-18.35-84.73-4.94-79.94,46.33.24,2.61-6.52,5.67-4.01,6.81,226.58-3.76,453.08,9.36,679.74,7.34,5.93-.02,5.46-10.2-.65-9.34Z"/><path class="cls-10" d="M851.69,570.78s0,0,0,0c-15.83-.61-31.71.04-47.55-.22,38.63-33.71-10.01-78.9-48.9-58.07,6.38-18.21-2.66-38.9-23.28-40.24,10.59-9.04,15.07-28.29,4.35-38.84,16.77-6.46,21.22-31.18,4.21-39.98,35.91-20.75,5.76-72.11-29.22-53.21-2.38-13.18-16.13-21.56-28.87-19.32,3.45-21.65-16.74-36.47-36.31-26.65-22.29-38.69-86.56-12.73-68.07,30.75-22,11.56-23.97,36.81-3.3,50.96-13.38,10.13-17.94,31.68-5.44,44.49-4.26-.84-8.89-1.14-13.26-.51-29.12,4.2-41.03,29.14-35.43,51.03-26.07-9.02-58.43,31.09-30.91,49.62-2.29,2.01-4.05,4.45-5.28,7.16-12.13-10.36-39.42-9.55-44.79,7.63-16.18-12.7-64.97-3.3-61.65,32.2.17,1.81,1.79,3.81,3.52,4.6,156.89-2.6,313.72,6.48,470.66,5.08,4.1-.02,3.78-7.06-.45-6.47Z"/><path class="cls-2" d="M782.73,478.38s-37.47-8.7-51.12-16.92c-19.61-11.81-43.03-15.81-43.03-15.81l-37.63,14.8s-14.42,13.13-38.12,11.31c-5.03-.39-35.67-2.94-35.67-2.94,0,0-29.3,16.59-65.09,19.12-35.79,2.53-21.37-.06-39.59,7.95-4.72,2.08-41.11,16.06-42.66,16.07-21.82.12-31.38,3.92-48.05.79l-26.97,1.42-67.89,15.77,494.35-1.55,1.47-50.01Z"/><path class="cls-15" d="M988.19,521.03s-128.45-41.81-142.09-50.03c-19.61-11.81-43.03-15.81-43.03-15.81l-37.63,14.8s-14.42,13.13-38.12,11.31c-5.03-.39-35.67-2.94-35.67-2.94,0,0-29.3,16.59-65.09,19.12-35.79,2.53-21.37-.06-39.59,7.95-4.72,2.08-41.11,16.06-42.66,16.07-21.82.12-31.38,3.92-48.05.79l-26.97,1.42-67.89,15.77,585.89-1.55.91-16.9Z"/><path class="cls-11" d="M-214.32,553.22c17.43,1.92,35.4,2.75,52.7,3.97,39.55,2.65,79.15,4.33,118.64,7.85,67.05,2.37,133.94,4.83,200.73,11.74,15.58,1.56,31.78,1.4,47.01,3.35,1.59-.59,3.17-2.26,3.44-3.86,5.32-31.36-37.45-42.98-52.7-32.76-3.63-15.65-27.86-18.19-39.34-9.78-.91-2.49-2.32-4.78-4.22-6.72,8.96-5.48,14.15-16.85,8.98-26.65-6.03-11.66-19.23-23.51-33.17-19.55,3.59-10.96,1.2-23.51-3.82-33.64-4.24-7.78-15.61-15.69-24.29-14.12-3.88-.68-7.99-.9-11.83-.44,11.97-10.55,9.35-30.04-1.87-39.94,19.33-11.21,19.27-33.8.46-45.56,10.27-16.7-.93-40.42-19.3-45.35-13.73-3.89-31.34,1.06-39.21,13.45-5.7-3.87-13.28-3.95-19.8-2.66-9.92,2.79-14.93,14.33-14.29,23.95-11.19-2.84-23.98,3.69-26.98,15.26-3.12-2.82-7.26-4.05-11.37-4.35-29.69-2.58-42.27,32.32-18.18,49.74-15.72,6.69-13.42,28.99,1.07,35.85-10.24,8.67-7.55,26.1,1.27,34.85-18.44-.18-27.85,17.61-23.4,34.25-8.55-4.41-18.62-7-28.27-5.84-27.03,3.59-40.64,34.63-19.12,54.24-14.11-.83-28.19-2.47-42.32-2.98,0,0,0,0,0,0-.25,0-.5-.01-.75-.01-3.27-.01-3.31,5.6-.09,5.74Z"/><path class="cls-10" d="M-181.13,554.2c13.8,1.52,28.04,2.18,41.74,3.14,31.33,2.1,62.7,3.43,93.98,6.22,53.11,1.88,106.1,3.83,159,9.3,12.34,1.24,25.18,1.11,37.24,2.65,1.26-.46,2.51-1.79,2.73-3.06,4.22-24.84-29.67-34.05-41.74-25.95-2.88-12.39-22.07-14.41-31.16-7.75-.72-1.97-1.84-3.78-3.35-5.32,7.1-4.34,11.21-13.35,7.11-21.11-4.78-9.24-15.23-18.62-26.27-15.49,2.84-8.68.95-18.62-3.02-26.65-3.36-6.17-12.36-12.43-19.24-11.19-3.08-.54-6.33-.71-9.37-.35,9.48-8.36,7.41-23.79-1.48-31.64,15.31-8.88,15.26-26.78.37-36.09,8.14-13.23-.74-32.02-15.29-35.93-10.88-3.08-24.83.84-31.06,10.65-4.52-3.07-10.52-3.13-15.68-2.1-7.86,2.21-11.83,11.35-11.32,18.97-8.87-2.25-19,2.93-21.37,12.09-2.47-2.23-5.75-3.21-9.01-3.45-23.51-2.05-33.48,25.6-14.4,39.4-12.45,5.3-10.63,22.96.85,28.4-8.11,6.87-5.98,20.67,1.01,27.6-14.6-.14-22.06,13.95-18.53,27.13-6.78-3.49-14.75-5.55-22.39-4.63-21.41,2.85-32.19,27.43-15.14,42.96-11.18-.66-22.33-1.96-33.52-2.36,0,0,0,0,0,0-.2,0-.39,0-.59-.01-2.59,0-2.62,4.44-.07,4.54Z"/><polygon class="cls-15" points="239.72 536.53 160.59 515.6 131.75 513.61 88.66 498.84 56.24 494.5 34.33 499.01 14.46 504.14 -21.33 500.93 -77 503.36 -76.58 535 239.72 536.53"/><path class="cls-15" d="M-19.02,377.16c-12.03-2.31-23.87-4.7-32.89,5.47-1.49,1.68-2.41,3.62-3.55,5.47-.58.96-2.77,4.61-1.82,5.67,1.11,1.24,5.39-.88,6.73-1.19,5.34-1.25,11.01-1.49,16.4-.34,2.19.47,4.29.87,6.28,1.72-1.04.13-2.08.31-3.09.53-4.43.95-8.47,3.2-11.26,6.73-3.08,3.89-4.65,8.12-5.08,12.98-.43,4.75-1.3,9.91,1.01,14.27,6.83-5.93,13.27-12.45,21.31-16.97,2.73-1.54,6.88-4.66,10.27-4.27,4.45.52,4.74,8.78,5.17,11.96.62,4.53,2.32,8.96,2.78,13.5,1.35,13.5,3.96,36.47,3.7,47.93-.06,2.89-2.64,33.92-5,33.3,2.12.56,4.23,1.12,6.35,1.68,3.72-15.04,5.34-30.53,4.84-45.97-.24-7.55-2.35-34.94-3.94-41.06-.65-2.51-.54-5.17-.87-7.73-.4-3.08-1.43-6.2-2.02-9.25-.48-2.46-2.11-5.15.93-6.92,1.56-.91,3.51-.93,5.34-.82,11.19.65,22.08,5.21,30.11,12.6,2.23-5.14,1.16-11.3-2.21-15.87-2.14-2.92-5.14-5.21-8.5-6.8-1.78-.84-7.96-3.28-9.94-1.84,1.71-1.25,3.46-2.62,5.43-3.45,2.92-1.23,6.54-2.45,9.74-2.64,3.72-.23,7.46-.19,11.18.11-.19-3.66-1.87-7.06-5.26-8.85-9.38-4.94-21.25-5.88-31.4-2.66-1.2-6.1,3.4-11.65,7.04-16.81.23-.33.47-.68.51-1.08.09-.91-.84-1.6-1.7-2-6.03-2.81-13.68-.7-18.45,3.74-.45.41-.87.85-1.27,1.29-4.19,4.62-7.04,11.47-6.85,17.58Z"/><path class="cls-15" d="M81.92,442.87c-5.83-1.68-11.56-3.38-16.46,1.23-.81.76-1.35,1.68-1.99,2.54-.33.45-1.57,2.15-1.15,2.72.49.66,2.7-.19,3.37-.29,2.69-.38,5.5-.24,8.1.56,1.06.33,2.08.62,3.02,1.13-.52.02-1.04.06-1.55.12-2.23.27-4.32,1.2-5.85,2.82-1.69,1.78-2.65,3.8-3.08,6.17-.42,2.32-1.08,4.83-.14,7.08,3.63-2.62,7.1-5.55,11.26-7.42,1.42-.64,3.6-1.99,5.25-1.65,2.17.45,1.94,4.54,2.02,6.13.11,2.26.75,4.52.77,6.78.06,6.72.33,18.15-.31,23.79-.16,1.42-2.81,16.61-3.95,16.19,1.02.37,2.04.74,3.05,1.11,2.5-7.25,3.99-14.81,4.43-22.45.22-3.73.4-17.33-.11-20.42-.21-1.27-.03-2.57-.09-3.85-.06-1.54-.43-3.12-.59-4.65-.13-1.23-.81-2.63.76-3.37.81-.38,1.77-.3,2.67-.17,5.49.82,10.65,3.55,14.28,7.55,1.33-2.44,1.07-5.52-.38-7.92-.93-1.53-2.3-2.8-3.89-3.73-.84-.5-3.78-1.97-4.82-1.35.9-.54,1.82-1.14,2.83-1.46,1.5-.48,3.33-.91,4.92-.87,1.84.05,3.69.24,5.5.55.07-1.81-.61-3.56-2.2-4.6-4.4-2.85-10.21-3.84-15.36-2.71-.32-3.06,2.19-5.59,4.22-7.97.13-.15.26-.32.3-.51.09-.44-.34-.82-.75-1.06-2.85-1.65-6.71-.95-9.26,1.02-.24.18-.47.38-.69.58-2.27,2.09-3.98,5.34-4.16,8.36Z"/><path class="cls-15" d="M162.71,478.59c-3.3-3.04-6.53-6.06-11.3-4.63-.79.24-1.45.66-2.16,1.02-.37.19-1.75.9-1.66,1.42.11.6,1.85.76,2.33.92,1.9.64,3.72,1.66,5.18,3.05.59.57,1.17,1.1,1.63,1.75-.35-.16-.71-.3-1.06-.43-1.56-.56-3.25-.63-4.8-.07-1.71.62-3.01,1.64-4.08,3.06-1.05,1.4-2.31,2.84-2.43,4.64,3.27-.53,6.53-1.32,9.91-1.18,1.15.05,3.04-.13,4.02.65,1.29,1.02-.22,3.65-.69,4.72-.68,1.53-1,3.24-1.73,4.74-2.18,4.47-5.79,12.12-8.08,15.64-.58.89-7.36,10.06-7.97,9.41.55.58,1.1,1.16,1.65,1.75,4.05-3.97,7.54-8.48,10.36-13.39,1.38-2.4,6-11.34,6.68-13.55.28-.91.83-1.71,1.22-2.57.47-1.04.75-2.21,1.15-3.27.32-.86.33-2.01,1.62-1.98.66.02,1.27.39,1.82.77,3.36,2.36,5.88,5.87,6.95,9.72,1.69-1.17,2.54-3.3,2.37-5.37-.11-1.32-.6-2.61-1.34-3.76-.39-.61-1.85-2.55-2.74-2.49.78-.06,1.58-.15,2.35-.03,1.15.18,2.51.5,3.54,1.05,1.2.65,2.36,1.38,3.46,2.19.64-1.18.78-2.56.06-3.77-1.97-3.34-5.49-5.92-9.27-6.87.8-2.13,3.3-2.98,5.43-3.88.14-.06.28-.12.37-.24.2-.26.05-.66-.15-.95-1.34-2.03-4.13-2.85-6.47-2.39-.22.04-.43.1-.65.16-2.19.63-4.4,2.22-5.52,4.16Z"/><polygon class="cls-9" points="-442.72 956.3 1607.14 670.36 1607.14 527.3 -442.72 527.3 -442.72 956.3"/><path class="cls-14" d="M532.39,571.22c0,1.86,1.51,3.37,3.37,3.37,1.86,0,3.37-1.51,3.37-3.37s-1.51-3.37-3.37-3.37-3.37,1.51-3.37,3.37Z"/><path class="cls-14" d="M499.8,571.22c0,1.86,1.51,3.37,3.37,3.37s3.37-1.51,3.37-3.37-1.51-3.37-3.37-3.37-3.37,1.51-3.37,3.37Z"/><circle class="cls-14" cx="488.32" cy="571.22" r="3.37"/><path class="cls-14" d="M470.09,571.22c0,1.86,1.51,3.37,3.37,3.37s3.37-1.51,3.37-3.37-1.51-3.37-3.37-3.37c-1.86,0-3.37,1.51-3.37,3.37Z"/><path class="cls-14" d="M396.03,571.28c0,1.86,1.51,3.37,3.37,3.37s3.37-1.51,3.37-3.37-1.51-3.37-3.37-3.37-3.37,1.51-3.37,3.37Z"/><path class="cls-14" d="M363.45,571.28c0,1.86,1.51,3.37,3.37,3.37s3.37-1.51,3.37-3.37-1.51-3.37-3.37-3.37c-1.86,0-3.37,1.51-3.37,3.37Z"/><path class="cls-14" d="M348.59,571.28c0,1.86,1.51,3.37,3.37,3.37s3.37-1.51,3.37-3.37-1.51-3.37-3.37-3.37-3.37,1.51-3.37,3.37Z"/><path class="cls-14" d="M333.73,571.28c0,1.86,1.51,3.37,3.37,3.37s3.37-1.51,3.37-3.37-1.51-3.37-3.37-3.37-3.37,1.51-3.37,3.37Z"/><path class="cls-14" d="M227.6,598.99c0-1.86-1.51-3.37-3.37-3.37s-3.37,1.51-3.37,3.37,1.51,3.37,3.37,3.37,3.37-1.51,3.37-3.37Z"/><path class="cls-14" d="M260.18,598.99c0-1.86-1.51-3.37-3.37-3.37s-3.37,1.51-3.37,3.37,1.51,3.37,3.37,3.37,3.37-1.51,3.37-3.37Z"/><path class="cls-14" d="M275.04,598.99c0-1.86-1.51-3.37-3.37-3.37s-3.37,1.51-3.37,3.37,1.51,3.37,3.37,3.37,3.37-1.51,3.37-3.37Z"/><path class="cls-14" d="M289.9,598.99c0-1.86-1.51-3.37-3.37-3.37s-3.37,1.51-3.37,3.37,1.51,3.37,3.37,3.37c1.86,0,3.37-1.51,3.37-3.37Z"/><path class="cls-14" d="M165.98,566.85c0,1.86,1.51,3.37,3.37,3.37s3.37-1.51,3.37-3.37-1.51-3.37-3.37-3.37-3.37,1.51-3.37,3.37Z"/><path class="cls-14" d="M133.39,566.85c0,1.86,1.51,3.37,3.37,3.37s3.37-1.51,3.37-3.37-1.51-3.37-3.37-3.37-3.37,1.51-3.37,3.37Z"/><path class="cls-14" d="M118.54,566.85c0,1.86,1.51,3.37,3.37,3.37s3.37-1.51,3.37-3.37-1.51-3.37-3.37-3.37-3.37,1.51-3.37,3.37Z"/><path class="cls-14" d="M58.23,594.71c0-1.86-1.51-3.37-3.37-3.37s-3.37,1.51-3.37,3.37,1.51,3.37,3.37,3.37,3.37-1.51,3.37-3.37Z"/><path class="cls-14" d="M90.81,594.71c0-1.86-1.51-3.37-3.37-3.37s-3.37,1.51-3.37,3.37,1.51,3.37,3.37,3.37,3.37-1.51,3.37-3.37Z"/><circle class="cls-14" cx="102.3" cy="594.71" r="3.37" transform="translate(-218.05 83.32) rotate(-22.3)"/><path class="cls-14" d="M421.24,552.49c0,1.86,1.51,3.37,3.37,3.37s3.37-1.51,3.37-3.37-1.51-3.37-3.37-3.37-3.37,1.51-3.37,3.37Z"/><path class="cls-14" d="M388.65,552.49c0,1.86,1.51,3.37,3.37,3.37s3.37-1.51,3.37-3.37-1.51-3.37-3.37-3.37-3.37,1.51-3.37,3.37Z"/><path class="cls-14" d="M373.8,552.49c0,1.86,1.51,3.37,3.37,3.37s3.37-1.51,3.37-3.37-1.51-3.37-3.37-3.37-3.37,1.51-3.37,3.37Z"/><path class="cls-14" d="M305.38,570.22c0,1.86,1.51,3.37,3.37,3.37s3.37-1.51,3.37-3.37-1.51-3.37-3.37-3.37c-1.86,0-3.37,1.51-3.37,3.37Z"/><path class="cls-14" d="M545.34,545.75c0,1.86,1.51,3.37,3.37,3.37s3.37-1.51,3.37-3.37-1.51-3.37-3.37-3.37c-1.86,0-3.37,1.51-3.37,3.37Z"/><path class="cls-14" d="M276.66,545.75c0,1.86,1.51,3.37,3.37,3.37s3.37-1.51,3.37-3.37-1.51-3.37-3.37-3.37-3.37,1.51-3.37,3.37Z"/><path class="cls-14" d="M527.43,545.75c0,1.86,1.51,3.37,3.37,3.37s3.37-1.51,3.37-3.37-1.51-3.37-3.37-3.37-3.37,1.51-3.37,3.37Z"/><path class="cls-14" d="M198.82,545.75c0,1.86,1.51,3.37,3.37,3.37s3.37-1.51,3.37-3.37-1.51-3.37-3.37-3.37-3.37,1.51-3.37,3.37Z"/><path class="cls-14" d="M498.21,605.74c0,1.86,1.51,3.37,3.37,3.37s3.37-1.51,3.37-3.37-1.51-3.37-3.37-3.37-3.37,1.51-3.37,3.37Z"/><path class="cls-14" d="M358.94,552.49c0,1.86,1.51,3.37,3.37,3.37s3.37-1.51,3.37-3.37-1.51-3.37-3.37-3.37-3.37,1.51-3.37,3.37Z"/><path class="cls-14" d="M352.42,593.79c0-1.86-1.51-3.37-3.37-3.37-1.86,0-3.37,1.51-3.37,3.37s1.51,3.37,3.37,3.37,3.37-1.51,3.37-3.37Z"/><path class="cls-14" d="M385.01,593.79c0-1.86-1.51-3.37-3.37-3.37s-3.37,1.51-3.37,3.37,1.51,3.37,3.37,3.37,3.37-1.51,3.37-3.37Z"/><path class="cls-14" d="M399.86,593.79c0-1.86-1.51-3.37-3.37-3.37s-3.37,1.51-3.37,3.37,1.51,3.37,3.37,3.37,3.37-1.51,3.37-3.37Z"/><path class="cls-14" d="M414.72,593.79c0-1.86-1.51-3.37-3.37-3.37s-3.37,1.51-3.37,3.37,1.51,3.37,3.37,3.37c1.86,0,3.37-1.51,3.37-3.37Z"/><path class="cls-14" d="M60.09,549.12c0-1.86-1.51-3.37-3.37-3.37s-3.37,1.51-3.37,3.37,1.51,3.37,3.37,3.37,3.37-1.51,3.37-3.37Z"/><path class="cls-14" d="M472.4,626c0-1.86-1.51-3.37-3.37-3.37s-3.37,1.51-3.37,3.37,1.51,3.37,3.37,3.37,3.37-1.51,3.37-3.37Z"/><path class="cls-14" d="M330.82,626c0-1.86-1.51-3.37-3.37-3.37s-3.37,1.51-3.37,3.37,1.51,3.37,3.37,3.37,3.37-1.51,3.37-3.37Z"/><circle class="cls-14" cx="486.95" cy="626" r="3.37"/><path class="cls-14" d="M274.57,625.29c0-1.86-1.51-3.37-3.37-3.37s-3.37,1.51-3.37,3.37,1.51,3.37,3.37,3.37,3.37-1.51,3.37-3.37Z"/><path class="cls-14" d="M264.43,571.22c0-1.86-1.51-3.37-3.37-3.37s-3.37,1.51-3.37,3.37,1.51,3.37,3.37,3.37,3.37-1.51,3.37-3.37Z"/><g class="cls-21"><circle class="cls-17" cx="366.59" cy="585.82" r="6.87" transform="translate(-66.34 47.17) rotate(-6.75)"/><circle class="cls-17" cx="249.17" cy="556.19" r="6.87" transform="translate(-87.2 47.97) rotate(-9.37)"/><circle class="cls-17" cx="46.96" cy="574.22" r="6.87"/><circle class="cls-17" cx="11.9" cy="549.89" r="6.87"/><path class="cls-7" d="M66.28,595.47c-1.37-1.37-3.58-1.37-4.94,0-1.37,1.37-1.37,3.58,0,4.94,1.37,1.37,3.58,1.37,4.94,0s1.37-3.58,0-4.94Z"/><path class="cls-7" d="M277.95,546.73c-1.37-1.37-3.58-1.37-4.94,0s-1.37,3.58,0,4.94c1.37,1.37,3.58,1.37,4.94,0,1.37-1.37,1.37-3.58,0-4.94Z"/><path class="cls-7" d="M330.32,548.46c-1.22,0-2.22.99-2.22,2.22,0,1.22.99,2.22,2.22,2.22s2.22-.99,2.22-2.22c0-1.22-.99-2.22-2.22-2.22Z"/><circle class="cls-8" cx="555.17" cy="588.87" r="3.58"/><circle class="cls-4" cx="520.59" cy="588.87" r="3.58"/><path class="cls-4" d="M501.24,588.87c0,1.98,1.6,3.58,3.58,3.58s3.58-1.6,3.58-3.58-1.6-3.58-3.58-3.58-3.58,1.6-3.58,3.58Z"/><circle class="cls-4" cx="489.05" cy="588.87" r="3.58"/><path class="cls-4" d="M372.83,618.28c0-1.98-1.6-3.58-3.58-3.58s-3.58,1.6-3.58,3.58,1.6,3.58,3.58,3.58,3.58-1.6,3.58-3.58Z"/><path class="cls-4" d="M407.42,618.28c0-1.98-1.6-3.58-3.58-3.58s-3.58,1.6-3.58,3.58,1.6,3.58,3.58,3.58,3.58-1.6,3.58-3.58Z"/><path class="cls-4" d="M423.19,618.28c0-1.98-1.6-3.58-3.58-3.58s-3.58,1.6-3.58,3.58,1.6,3.58,3.58,3.58,3.58-1.6,3.58-3.58Z"/><path class="cls-4" d="M438.95,618.28c0-1.98-1.6-3.58-3.58-3.58s-3.58,1.6-3.58,3.58,1.6,3.58,3.58,3.58,3.58-1.6,3.58-3.58Z"/><path class="cls-4" d="M307.44,584.17c0,1.98,1.6,3.58,3.58,3.58s3.58-1.6,3.58-3.58-1.6-3.58-3.58-3.58-3.58,1.6-3.58,3.58Z"/><path class="cls-4" d="M272.86,584.17c0,1.98,1.6,3.58,3.58,3.58s3.58-1.6,3.58-3.58-1.6-3.58-3.58-3.58c-1.98,0-3.58,1.6-3.58,3.58Z"/><path class="cls-4" d="M257.09,584.17c0,1.98,1.6,3.58,3.58,3.58s3.58-1.6,3.58-3.58-1.6-3.58-3.58-3.58-3.58,1.6-3.58,3.58Z"/><path class="cls-4" d="M193.09,613.74c0-1.98-1.6-3.58-3.58-3.58s-3.58,1.6-3.58,3.58c0,1.98,1.6,3.58,3.58,3.58s3.58-1.6,3.58-3.58Z"/><path class="cls-4" d="M227.67,613.74c0-1.98-1.6-3.58-3.58-3.58s-3.58,1.6-3.58,3.58,1.6,3.58,3.58,3.58,3.58-1.6,3.58-3.58Z"/><path class="cls-4" d="M243.44,613.74c0-1.98-1.6-3.58-3.58-3.58s-3.58,1.6-3.58,3.58,1.6,3.58,3.58,3.58,3.58-1.6,3.58-3.58Z"/><path class="cls-4" d="M543.77,568.93c0,1.98,1.6,3.58,3.58,3.58s3.58-1.6,3.58-3.58-1.6-3.58-3.58-3.58c-1.98,0-3.58,1.6-3.58,3.58Z"/><path class="cls-4" d="M528,568.93c0,1.98,1.6,3.58,3.58,3.58s3.58-1.6,3.58-3.58-1.6-3.58-3.58-3.58-3.58,1.6-3.58,3.58Z"/><circle class="cls-4" cx="458.96" cy="587.75" r="3.58"/><circle class="cls-4" cx="428.49" cy="561.77" r="3.58" transform="translate(-83.79 75.19) rotate(-9.14)"/><circle class="cls-8" cx="345.87" cy="561.77" r="3.58" transform="translate(-84.84 62.07) rotate(-9.14)"/><path class="cls-4" d="M512.23,568.93c0,1.98,1.6,3.58,3.58,3.58s3.58-1.6,3.58-3.58-1.6-3.58-3.58-3.58-3.58,1.6-3.58,3.58Z"/><circle class="cls-4" cx="501.73" cy="612.76" r="3.58"/><circle class="cls-4" cx="536.32" cy="612.76" r="3.58"/><path class="cls-8" d="M555.66,612.76c0-1.98-1.6-3.58-3.58-3.58s-3.58,1.6-3.58,3.58,1.6,3.58,3.58,3.58,3.58-1.6,3.58-3.58Z"/><circle class="cls-4" cx="567.85" cy="612.76" r="3.58"/><circle class="cls-4" cx="191.49" cy="565.35" r="3.58" transform="translate(-401.2 636.17) rotate(-78.1)"/><circle class="cls-4" cx="478.81" cy="646.95" r="3.58"/><path class="cls-4" d="M390.35,646.19c0-1.98-1.6-3.58-3.58-3.58s-3.58,1.6-3.58,3.58,1.6,3.58,3.58,3.58,3.58-1.6,3.58-3.58Z"/><circle class="cls-4" cx="408.35" cy="588.81" r="3.58"/></g><path class="cls-14" d="M-649.59,846.07c100.08,4.42,204.12,8.42,296.31-17.62,39.26-11.09,75.56-27.46,116.88-34.32,56.92-9.45,116.79.08,175.55,1.66,58.76,1.58,125.21-8.24,154.97-42.97,13.19-15.39,17.45-33.94,30.89-49.23,31.22-35.49,100.02-42.99,160.33-45.34,127.92-4.98,256.62-2.62,384.35,7.07,66.02,5.01,134.78,11.77,196.87-3.58,31.61-7.81,60.02-21.09,92.29-27.56,77.42-15.51,163.9,10.31,241.1-5.69,42.58-8.82,77.52-29.47,117.65-42.57,87.89-28.68,191.48-18.97,288.41-8.67l324.22,50.68c41.83,159.59,35.65,324.58-18.01,481.3-4.45,12.99-9.69,26.54-22.99,36.13-12.88,9.28-31.44,13.5-49.3,17.23-580.5,121.27-1205.98,69.43-1815.28,58.08-201.73-3.75-407.54-3.38-599.94-47.72-20.77-4.79-42.33-10.56-56.42-22.23-15.5-12.83-19.13-30.37-21.61-46.9-12.87-85.82-11.61-172.48,3.74-257.77Z"/><path class="cls-6" d="M-623.23,1109.08c2.48,16.53,6.11,34.07,21.61,46.89,14.1,11.67,35.65,17.44,56.42,22.23,192.4,44.34,398.22,43.97,599.94,47.72,609.31,11.34,1234.78,63.19,1815.28-58.08,17.86-3.74,36.43-7.95,49.3-17.23,13.3-9.58,18.54-23.13,22.99-36.12,53.67-156.72,59.84-321.71,18.01-481.3l-324.22-50.68c-43.64-4.64-88.64-9.15-132.94-10.1-54.09-1.16-107.16,3.01-155.47,18.77-40.13,13.1-75.07,33.74-117.65,42.57-77.2,16-163.68-9.82-241.1,5.69-32.27,6.47-60.68,19.74-92.29,27.56-62.09,15.35-130.85,8.59-196.86,3.58-127.73-9.69-256.43-12.05-384.35-7.07-60.32,2.34-129.11,9.84-160.33,45.33-13.45,15.29-17.7,33.83-30.89,49.23-29.77,34.73-96.21,44.55-154.97,42.97-58.76-1.58-118.63-11.11-175.55-1.66-13.73,2.28-26.9,5.61-39.81,9.44-25.96,7.72-50.85,17.47-77.07,24.88-92.2,26.05-196.23,22.04-296.31,17.63-15.35,85.28-16.61,171.95-3.75,257.77Z"/><path class="cls-16" d="M711.05,924.13c110.65,5.37,223.52,24.88,332.95,24.25,257.81-1.47,477.68-114.16,738.83-98.59l53.72,185.03c-256.31,22.65-517.77,39.09-785.63,5.88-128.67-15.95-257.76-43.26-386.16-55.4-194.61-18.41-383.04-1.63-569.49,15.31,197.64-43.32,399.22-86.99,615.78-76.48Z"/><path class="cls-1" d="M-197.9,917.66c37.88-1.61,75.8-2.02,113.7-1.73,34.51.26,158.25-4.33,191.58,3.56-79.13,8.43-169.02,22.78-194.25,24.96-47.69,4.12-95.61,4.84-143.46,4.27-103.88-1.25-207.68-8.49-310.73-21.66,114.01,11.16,228.71-4.54,343.16-9.39Z"/><path class="cls-14" d="M-246.1,811.68c4.09,0,8.18.11,12.26.34,13.21.77,26.1,3.67,39.35,4.64,26.86,1.96,54.12.17,80.08-7.32,55.07-15.88,116.23,15.16,170.51-3.24,16.13-5.47,30.58-15.04,46.48-21.15,16.49-6.33,33.64-10.19,41.83-27.83,2.02-4.35,3.33-9.16,6.52-12.75,2.96-3.33,7.22-5.2,11.47-6.52,29.35-9.06,65.46,3.38,89.26-16.03,12.41-10.12,18.88-27.45,33.65-33.64,6.67-2.79,14.12-2.84,21.35-2.85,66.08-.05,132.57-.07,197.62,11.57,34.66,6.2,68.74,15.68,103.67,20.08,23.43,2.95,47.43,3.53,70.75-.7,21.86-3.97,42.29-12.96,64.22-16.77,63.78-11.07,131.35,29.45,192.08,7.04,28.41-10.49,50.53-33.43,77.99-46.21,95.99-44.66,225.47,44.43,308.98-20.65,12.53-9.76,23.12-22.66,37.87-28.55,25.57-10.23,54.91,3.62,81.88-1.93,23.33-4.8,41.05-23.1,60.82-36.39.21-.14.43-.28.64-.42-54.09-1.16-107.16,3.01-155.47,18.77-40.13,13.1-75.07,33.74-117.65,42.57-77.2,16-163.68-9.82-241.1,5.69-32.27,6.47-60.68,19.74-92.29,27.56-62.09,15.35-130.85,8.59-196.86,3.58-127.73-9.69-256.43-12.05-384.35-7.07-60.32,2.34-129.11,9.84-160.33,45.33-13.45,15.29-17.7,33.83-30.89,49.23-29.77,34.73-96.21,44.55-154.97,42.97-35.96-.97-71.78-4.88-107.75-5.65-18.07-.39-36.18.01-54.15,2.08-16.61,1.91-33.35.53-50.01,3.37-11.95,2.04-23.76,6.01-33.58,13.12,9.97-1.5,20.06-2.26,30.14-2.28Z"/><path class="cls-19" d="M567.45,677.23c-.82-6.62,7.23-7.17,11.76-7.38,7.23-.33,14.49-.16,21.7.53,1.98.19,4.28.64,5.14,2.43,2.49,5.21-5.89,8.93-8.74,11.38-4.46,3.84-11.83,6.21-17.55,4.27-4.54-1.54-11.69-6.2-12.31-11.24Z"/><path class="cls-19" d="M509.94,685.79c-3.71-1.88-10.41-6-7.97-11.29,1.58-3.43,7-3.81,10.21-4.35,5.29-.89,10.64-1.38,16-1.51,4.6-.11,9.12-.51,12.91,2.58,2.37,1.94,4.48,4.15,6.84,6.13,2,1.68,5.52,3.54,6.26,6.17,2.13,7.61-15.28,8.2-19.3,7.97-7.91-.45-17.83-2.1-24.94-5.7Z"/><path class="cls-19" d="M460.52,675.45c-2.66-.58-8.78-2.76-7.5-6.58,1.12-3.37,7.99-3.4,10.82-3.88,4.88-.83,9.98-2.18,14.73-.17,2.07.88,3.87,2.55,4.88,4.49.53,1.03.71,2.03,1.4,2.99.53.73,1.64,1.32,2.04,2.05,2.59,4.85-8.26,5.22-10.99,4.76-5.13-.86-10.26-2.53-15.38-3.66Z"/><path class="cls-19" d="M412.52,675.06c-2.31-3.93,5.37-6.44,7.79-6.98,4.82-1.08,10.03-1.49,14.32,1.42,2.76,1.87,5.95,2.89,9,4.18,1.61.68,5.86,3.13,3.9,5.25-1.73,1.87-8.02.64-10.14.59-6.27-.15-12.88-.4-19-1.81-1.88-.43-4.73-.74-5.86-2.65Z"/><path class="cls-19" d="M563.96,699.7c-2.47-.74-8.6-1.98-9.18-5.08-.88-4.71,8.32-6.99,11.2-5.22,3.01,1.85,6.16,3.59,9.7,4.33,3.48.73,7.01,1.24,10.52,1.78,4.42.68,12.6.59,15.36,4.72,5.16,7.72-12.29,3.3-14.96,2.87-7.52-1.22-15.26-1.18-22.62-3.39Z"/><path class="cls-19" d="M210.97,675.4c5.12-2.16,10.42-3.92,15.88-5,4.98-.99,11.55-2.19,16.54-.79,3.91,1.1,7.53,1.35,11.62,1.81,3.72.42,8.01,1.23,10.41,4.41,2.72,3.59-2.03,9.38-3.89,12.4-2.65,4.32-4.45,8.97-6.99,13.27-2.39,4.07-7.14,4.49-11.55,4.64-4.97.17-8.16-1.83-12.03-4.62-5.11-3.67-10.36-6.56-16.01-9.34-3.42-1.68-8.32-4.29-9.79-8.06-1.64-4.19,2.57-7.36,5.81-8.73Z"/><path class="cls-19" d="M178.6,682.45c2.51-.96,6.08-1.46,8.44.13,2.24,1.5,4.2,3.5,6.62,4.92,4.94,2.9,10.37,5.29,14.98,8.53,1.1.77,2.3,1.88,2.07,3.21-.2,1.16-1.4,1.82-2.48,2.28-4.62,1.96-9.54,3.09-14.42,4.21-6.82,1.57-13.64,3.13-20.46,4.7-2.46.56-4.95,1.13-7.47,1.03-2.52-.11-5.11-.97-6.78-2.86-2.93-3.31-2.08-8.68.54-12.24,2.62-3.56,6.57-5.84,10.17-8.4,2.83-2.01,5.56-4.27,8.8-5.51Z"/><path class="cls-19" d="M182.4,719.01c.37,3.12,7.6,4.44,9.91,4.81,4.27.68,8.64.52,12.93.23,8.23-.56,16.33-2.32,24.25-4.53,1.25-.35,2.53-.73,3.53-1.55,1-.82,1.65-2.21,1.23-3.43-.52-1.51-2.01-1.72-3.15-2.55-1.17-.86-1.89-2.17-3.11-2.98-3.09-2.05-7.47-2.42-10.98-1.61-2.74.63-5.1,2.25-7.73,3.1-4.07,1.31-8.29,1.44-12.46,2.1-4.71.75-9.2,2.29-13.26,4.83-.59.37-1.23.9-1.15,1.58Z"/><path class="cls-19" d="M145.42,727.34c-4.94,1.7-9.38,4.89-14.52,5.8-1.75.31-3.73.29-5.1-.85-.72-.6-1.19-1.45-1.47-2.34-.89-2.84.16-6.04,2.1-8.3,3.65-4.24,11.51-7.74,16.95-5.43,2.1.89,7.07,2.87,7.95,4.98,1.53,3.65-3.47,5.29-5.91,6.13Z"/><path class="cls-19" d="M114.44,759.32c3.46-2.71,6.1-6.45,9.94-8.59,1.31-.73,2.88-1.25,4.28-.73.73.28,1.34.82,1.81,1.45,1.49,2.01,1.53,4.84.6,7.16-1.74,4.37-7.01,9.3-11.97,8.95-1.91-.13-6.4-.34-7.68-1.77-2.22-2.48,1.31-5.15,3.01-6.48Z"/><path class="cls-19" d="M387.41,669.36c.7.4,1.46.99,1.45,1.81,0,.68-.56,1.22-1.11,1.61-5.77,4.16-13.93,1.9-20.43,2.05-6.3.15-12.76.31-19.05,0-3.21-.15-13.48-1.39-12.81-6.77.72-5.77,9.81-3.38,13.35-3.79,7.7-.88,16.44-1.43,23.94.9,4.86,1.51,10.14,1.59,14.66,4.18Z"/><path class="cls-3" d="M188.74,803.62c.31-.37.48-.83.39-1.46-.33-2.33-9.44-8.95-6.4-11.34.57-.45.73.05,1.31.02,2.41-.12,5.28,1.88,7.29,2.98,1.9,1.03,4.31,3.7,6.59,3.58.81-.04,1.59-.33,2.36-.62,2.93-1.1,5.87-2.21,8.8-3.31.78-.29,1.58-.59,2.41-.51.82.07,1.67.64,1.78,1.46.09.65-.29,1.27-.66,1.82-1.17,1.77-2.34,3.54-3.51,5.3-2.53,3.82.21,4.85,3.3,6.66,1.35.79,5.7,2.31,6.12,4.07.6,2.5-10.72.33-12.73.12-2.39-.25-1.91,1.01-2.24,3.03-.28,1.77-.68,3.56-1.29,5.25-1.04,2.88-3.1,5.69-5.32,1.91-1.35-2.29-1.46-5.73-3.35-7.76-2.7-2.89-7.46-.9-10.85-1.14-1.08-.07-5.6-.11-6.29-1.18-1.5-2.36,8.5-6.44,10.04-7.4.75-.47,1.71-.83,2.24-1.47Z"/><path class="cls-12" d="M46.22,827.26c.31-.37.48-.83.39-1.46-.33-2.33-9.44-8.95-6.4-11.34.57-.45.73.05,1.31.02,2.41-.12,5.28,1.88,7.29,2.98,1.9,1.03,4.31,3.7,6.59,3.58.81-.04,1.59-.33,2.36-.62,2.93-1.1,5.87-2.21,8.8-3.31.78-.29,1.58-.59,2.41-.51.82.07,1.67.64,1.78,1.46.09.65-.29,1.27-.66,1.82-1.17,1.77-2.34,3.54-3.51,5.3-2.53,3.82.21,4.85,3.3,6.66,1.35.79,5.7,2.31,6.12,4.07.6,2.5-10.72.33-12.73.12-2.39-.25-1.91,1.01-2.24,3.03-.28,1.77-.68,3.56-1.29,5.25-1.04,2.88-3.1,5.69-5.32,1.91-1.35-2.29-1.46-5.73-3.35-7.76-2.7-2.89-7.46-.9-10.85-1.14-1.08-.07-5.6-.11-6.29-1.18-1.5-2.36,8.5-6.44,10.04-7.4.75-.47,1.71-.83,2.24-1.47Z"/><path class="cls-18" d="M304.49,784.44c9.81,20.39,74.79,26.17,85.89,26.52,40.38,1.27,81.76-4.81,121.45-2.84,35.85,1.79,71.2,9.25,106.99,12.1,51.55,4.11,103.33-1.38,155.03-2.43,139.23-2.82,278.98,26.54,417.1,8.82,13.15-1.69,27.8-4.76,35.04-15.87,24.41-37.44-58.54-42.25-74.38-41.53-27.76,1.26-55.2,7.05-82.99,7.67-28.41.63-56.62-4.14-84.78-8.02-31.17-4.29-59.99-7.94-91.01-3.58-34.66,4.87-73.23,10.74-108.24,10.31-22.73-.28-45.08-5.5-67.66-8.12-85.57-9.91-172.65-13.48-258.82-14.32-44.14-.43-96.56-12.62-138.29,6.41-4.83,2.2-9.61,4.98-12.71,9.29-4.28,5.96-4.77,11.12-2.62,15.58Z"/><path class="cls-14" d="M207.12,257.21c3.62-.76,7.87.3,10.19,3.66.69,1,1.17,2.14,1.66,3.27.1.25.21.51.16.77-.1.54-.75.62-1.25.55-1.5-.19-2.75-1.04-4.15-1.66-.99-.43-1.83-1.02-2.85-1.35-.89-.29-1.91-.58-2.82-.67-.48-.05-.96-.09-1.43-.01-.5.09-.97.31-1.43.56-1.6.86-3.13,1.34-4.89,2.45-1.47.93-3.29,1.62-4.55,2.39-.25.15-.48.37-.77.41-.42.06-.84-.23-1.09-.63-.8-1.26-.76-2.99-.89-4.43-.17-1.91-.34-3.81-.51-5.72-.29-3.22-1.45-5.82-4.11-7.47-1.27-.79-2.66-1.37-3.79-2.4-.1-.09-.21-.2-.24-.34-.03-.13.02-.27.07-.39.76-1.75,2.79-1.99,4.32-2.43,1.71-.49,3.69-.16,5.13,1.17,2.02,1.87,2.72,4.98,2.88,7.86.15,2.59-.48,5.4.06,7.97.51,2.45,5.08-1.44,6.01-1.92,1.37-.72,2.8-1.3,4.31-1.61Z"/><path class="cls-14" d="M138.31,312.25c.58.32,1.13.68,1.66,1.08,2.33,1.75,4.17,4.11,6.05,6.37.95,1.14,1.9,2.27,2.95,3.31,1.09,1.08,2.31,1.96,3.48,2.94.06.05.12.1.19.09.09,0,.16-.1.22-.18,1.27-1.83,2.5-3.7,3.7-5.59.39-.62,1.96-3.09,2.43-3.66.93-1.11,1.93-2.16,3.03-3.09,2.12-1.8,4.58-3.12,7.23-3.59,7.45-1.31,13.99,4.19,19.5,9.35-4.52,2.51-9.65-.76-14.64-1.01-4.46-.22-8.88,2.08-12.33,5.29-3.45,3.21-6.09,7.27-8.68,11.28-1.8-.11-4.09-4.24-6.32-6.41-12.02-11.65-17.29-13.36-27.33-9.77,3.59-6.86,12.56-9.92,18.86-6.44Z"/><circle class="cls-14" cx="98.2" cy="197.28" r="31.2"/><rect class="cls-5" x="-402.69" y="55.02" width="1921" height="840"/></g></g></svg>