<?xml version="1.0" encoding="UTF-8"?><svg id="Layer_1" xmlns="http://www.w3.org/2000/svg" xmlns:xlink="http://www.w3.org/1999/xlink" viewBox="0 0 1920 152"><defs><style>.cls-1{fill:none;}.cls-1,.cls-2,.cls-3,.cls-4{stroke-width:0px;}.cls-2{fill:#faeaaa;}.cls-5{clip-path:url(#clippath);}.cls-3{fill:#fff;}.cls-4{fill:#fff3a3;}</style><clipPath id="clippath"><rect class="cls-1" width="1920" height="152"/></clipPath></defs><g class="cls-5"><path class="cls-3" d="M2279.3,79.22c-98.75-16.85-201.48-33.78-296.2-19.42-40.33,6.11-78.39,17.83-120.24,19.49-57.65,2.29-115.87-14.62-173.97-23.51-58.1-8.89-125.26-7.42-159.12,23.33-15,13.63-21.54,31.51-36.78,45-35.4,31.33-104.59,30.2-164.73,25.01-127.54-10.99-254.95-29.37-380.47-54.89-64.88-13.19-132.27-28.46-195.78-20.97-32.34,3.82-62.18,13.45-95,15.85-78.75,5.75-161.34-30.64-239.93-24.38-43.35,3.45-80.59,19.59-122.03,27.58-90.78,17.51-192.36-5.03-287.24-27.32L-307.6-25.69c-21.62-163.56,5.05-326.49,77.82-475.31,6.03-12.34,12.92-25.13,27.31-32.98,13.93-7.61,32.88-9.47,51.06-10.95,591.09-48.02,1205.23,81.33,1808.38,168.47,199.69,28.85,403.95,54.12,589.32,122.07,20.01,7.34,40.68,15.75,53.21,29.08,13.78,14.66,15.2,32.51,15.6,49.22,2.08,86.75-9.96,172.59-35.82,255.29Z"/><path class="cls-2" d="M2285.91-185.03c-.4-16.71-1.81-34.56-15.6-49.22-12.53-13.33-33.2-21.75-53.21-29.08-185.38-67.96-389.64-93.22-589.33-122.07-603.15-87.14-1217.3-216.49-1808.38-168.47-18.19,1.48-37.13,3.35-51.06,10.96-14.39,7.85-21.28,20.64-27.31,32.98-72.77,148.82-99.44,311.76-77.82,475.31L-21.42,56.03c42.72,10.04,86.81,20.12,130.65,26.58,53.52,7.89,106.7,10.36,156.59.74,41.45-8,78.69-24.13,122.04-27.58,78.59-6.26,161.18,30.13,239.93,24.38,32.83-2.4,62.67-12.03,95.01-15.85,63.51-7.49,130.9,7.78,195.78,20.97,125.53,25.52,252.93,43.9,380.47,54.88,60.14,5.19,129.33,6.32,164.73-25.01,15.25-13.49,21.78-31.37,36.78-45,33.86-30.76,101.01-32.22,159.12-23.33,58.1,8.89,116.32,25.8,173.98,23.51,13.9-.55,27.39-2.21,40.67-4.4,26.71-4.42,52.63-11,79.57-15.08,94.72-14.36,197.45,2.57,296.2,19.42,25.86-82.7,37.9-168.54,35.82-255.29Z"/><path class="cls-3" d="M1874.67,63.08c-4.06-.5-8.1-1.12-12.12-1.87-13.01-2.41-25.44-6.89-38.47-9.5-26.41-5.3-53.68-6.91-80.37-2.71-56.62,8.9-113.43-29.52-169.59-18.02-16.69,3.42-32.21,11.11-48.76,15.19-17.15,4.23-34.65,5.92-44.97,22.41-2.54,4.06-4.45,8.68-8.06,11.83-3.35,2.93-7.81,4.26-12.19,5.04-30.25,5.33-64.53-11.5-90.56,4.79-13.57,8.49-22.16,24.89-37.58,29.19-6.96,1.94-14.36,1.06-21.53.17-65.57-8.18-131.55-16.45-194.64-36.09-33.62-10.47-66.25-24.12-100.36-32.83-22.88-5.85-46.62-9.41-70.28-8.12-22.19,1.21-43.58,7.6-65.81,8.64-64.66,3.04-126.66-45.58-189.71-30.91-29.5,6.87-54.3,26.88-83.13,36.13-100.8,32.35-218.18-72.17-309.14-18-13.65,8.13-25.76,19.6-41.13,23.61-26.64,6.96-54.03-10.43-81.48-8.28-23.75,1.86-43.61,17.8-64.88,28.54-.23.12-.46.23-.69.34,53.52,7.89,106.7,10.36,156.59.74,41.45-8,78.69-24.13,122.04-27.58,78.59-6.26,161.18,30.13,239.93,24.38,32.83-2.4,62.67-12.03,95.01-15.85,63.51-7.49,130.9,7.78,195.78,20.97,125.53,25.52,252.93,43.9,380.47,54.88,60.14,5.19,129.33,6.32,164.73-25.01,15.25-13.49,21.78-31.37,36.78-45,33.86-30.76,101.01-32.22,159.12-23.33,35.56,5.44,70.61,13.78,106.21,19.03,17.88,2.63,35.9,4.49,53.99,4.68,16.72.17,33.16,3.63,50.04,2.89,12.11-.54,24.32-3,34.95-8.84-10.08.25-20.18-.25-30.19-1.49Z"/><path class="cls-4" d="M669.04,73.09c-6.81,1.51-13.78,2.13-20.75,2.34-3.1.09-5.85.23-8.79-.71-3.15-1-6.66-1.09-9.65-2.56-1.49-.73-3.03-1.83-3.33-3.46-.35-1.94,1.19-3.7,2.75-4.91,5.68-4.41,12.97-6.22,18.99-10.16,3.36-2.2,6.72-5.17,10.72-4.89,2,.14,3.83,1.11,5.57,2.11,3.92,2.26,7.67,4.81,11.21,7.63,1.37,1.09,2.77,2.29,3.4,3.93,1,2.61-.31,5.67-2.45,7.48-2.14,1.8-4.94,2.6-7.67,3.21Z"/><path class="cls-4" d="M707.79,49.3c-5.34,3.65-13.08,9.38-19.46,4.93-2.8-1.95-11.77-9.98-11.44-13.54.31-3.36,6.99-5.12,9.58-5.8,3.51-.93,7.25-1.52,10.85-2.02,6.11-.85,12.9-.67,18.02,3.31.77.6,1.5,1.33,1.77,2.26.48,1.67-.63,3.35-1.81,4.62-2.14,2.29-4.78,4.37-7.51,6.24Z"/><path class="cls-4" d="M724.32,66.52c-1.31,1.11-2.97,1.92-4.62,2.4-3.35.96-6.94,1.02-10.19,2.31-2.64,1.05-10.48,3.53-11.57-1.08-.07-.31-.05-.64.01-.96,1.69-8.36,11.41-9.13,18.64-9.84,2.88-.28,6.83.51,9.51,1.59.26.11.53.23.67.48.12.22.11.48.08.72-.21,1.76-1.19,3.23-2.54,4.38Z"/><path class="cls-4" d="M735.2,49.67c5.84,6.98-15.65,7.89-14.47,1.6.5-2.65,5.44-6.23,7.91-6.04,2.56.19,4.98,2.55,6.56,4.44Z"/><path class="cls-4" d="M781.76,49.5c6.91,7.3-9.69,10.26-13.82,11.43-4.03,1.14-8.64,1.51-12.14-.78-2.49-1.63-4.01-4.35-5.84-6.7-2.52-3.24-5.53-6.31-8.39-9.25-2-2.05-6.39-6.36-2.45-8.6,3.19-1.82,7.93-.69,11.33-.19,7.8,1.16,16.01,4.02,22.86,7.96,2.94,1.69,6.1,3.65,8.45,6.13Z"/><path class="cls-4" d="M814.51,61.41c-3.41.16-6.83,0-10.21-.49-1.61-.23-3.26-.55-4.65-1.4-1.59-.98-2.69-2.56-3.86-4.02-2.08-2.61-4.49-4.96-7.15-6.98-2.04-1.55-4.32-3-5.46-5.3,1.01-1.34,2.88-1.65,4.56-1.7,11.64-.35,22.16,6.45,33.41,9.42,2.89.76,5.9,1.3,8.46,2.85,2.56,1.54,4.6,4.43,4.08,7.38-.09.52-.29,1.07-.73,1.35-.31.2-.7.24-1.08.26-2.66.15-4.78-.67-7.29-1.24-3.32-.75-6.75-.28-10.1-.13Z"/><path class="cls-4" d="M862.46,60.12c2.24,1.12,2.19,4.53,2.07,6.61-.15,2.65-.8,3.38-3.47,3.85-3.34.59-9.1,1-12.22-.68-1.87-1.01-6.94-5.46-6.81-7.85.2-3.63,6.81-2.55,9.06-2.65,2.91-.13,8.76-.59,11.37.72Z"/><path class="cls-4" d="M889.47,75.13c-3.27-.07-6.33.1-9.43-1.25-2.54-1.11-5.77-5.68-4.99-8.65.78-3,6.49-2.63,8.81-3.27,3.64-1.01,7.4-1.64,10.85-3.22,3.75-1.72,7.6-3.78,11.76-4.32,1.96-.25,7.35-.69,8.22,1.9.78,2.32-3.29,5.47-4.82,6.75-2.27,1.88-4.51,3.67-6.65,5.69-.92.87-2.05,1.56-2.94,2.4-1.4,1.31-2,3.19-3.79,3.96-2.05.88-4.85.06-7.01.01Z"/><path class="cls-4" d="M939.71,75.07c2.69,2.04,4.35,7.41-.85,7.07-1.54-.1-3.01-1.34-4.52-1.7-2.23-.53-4.66-.51-6.94-.64-3.16-.18-6.37.11-9.55-.01-2.11-.08-5.31-.24-7.06-1.67-1.02-.84-2.5-4.28-2.06-5.59.53-1.59,3.66-2.63,5.01-3.48,4.75-3,7.22-4.91,12.54-1.91,4.43,2.5,9.35,4.85,13.43,7.93Z"/><path class="cls-4" d="M1007.5,67.4c2.25,2.31,5.49,4.31,5.14,7.95-.08.82-.34,1.66-.91,2.26-1.43,1.5-3.87.9-5.7,1.21-2.17.37-4.33.7-6.55,1.03-10.99,1.66-23.13,4.26-33.49-1.58-3.87-2.18-7.15-5.18-10.69-7.83-3.4-2.55-8.18-4.19-10.64-7.83-6.63-9.76,16.85-8.5,21.17-7.98,5.24.64,10.16,1.03,15.4,1.23,4.74.18,9.56,1.28,13.87,3.29,4.41,2.05,8.99,4.72,12.41,8.24Z"/><path class="cls-4" d="M1050.71,95.16c-.01,6.67-8.07,6.21-12.59,5.86-7.22-.57-14.4-1.65-21.46-3.23-1.94-.43-4.17-1.17-4.79-3.05-1.82-5.47,6.95-8.12,10.09-10.21,4.9-3.26,12.52-4.69,17.94-2.05,4.31,2.1,10.83,7.61,10.81,12.69Z"/><path class="cls-4" d="M1108.83,93.82c3.44,2.32,9.58,7.25,6.5,12.2-1.99,3.2-7.42,2.91-10.67,3.05-5.36.23-10.73.04-16.06-.49-4.58-.46-9.11-.63-12.49-4.17-2.11-2.22-3.93-4.68-6.02-6.93-1.77-1.91-5.03-4.2-5.44-6.9-1.17-7.81,16.18-6.23,20.14-5.51,7.79,1.43,17.43,4.31,24.04,8.76Z"/><path class="cls-4" d="M1156.59,110.24c2.57.91,8.37,3.83,6.62,7.47-1.53,3.2-8.35,2.38-11.22,2.5-4.94.22-10.18.92-14.63-1.66-1.94-1.13-3.53-3.01-4.28-5.06-.4-1.09-.45-2.1-1.02-3.14-.43-.79-1.47-1.51-1.77-2.29-1.97-5.13,8.85-4.15,11.5-3.35,4.98,1.49,9.86,3.79,14.8,5.54Z"/><path class="cls-4" d="M1204.17,116.6c1.81,4.18-6.13,5.72-8.59,5.95-4.92.47-10.14.23-14.03-3.19-2.51-2.2-5.55-3.61-8.41-5.26-1.51-.88-5.42-3.84-3.21-5.7,1.95-1.64,8.04.37,10.14.68,6.21.93,12.73,2,18.63,4.16,1.81.66,4.6,1.33,5.48,3.35Z"/><path class="cls-4" d="M1056.97,73.3c2.36,1.05,8.29,3.04,8.48,6.18.29,4.78-9.13,5.9-11.76,3.79-2.76-2.21-5.67-4.33-9.08-5.5-3.36-1.16-6.8-2.1-10.22-3.07-4.3-1.22-12.43-2.16-14.65-6.59-4.16-8.3,12.61-1.75,15.21-.98,7.31,2.15,14.99,3.07,22.03,6.18Z"/><path class="cls-4" d="M1404.18,141.37c-5.35,1.51-10.83,2.59-16.38,2.98-5.07.36-11.73.74-16.51-1.28-3.74-1.58-7.3-2.27-11.3-3.24-3.64-.88-7.79-2.22-9.78-5.67-2.25-3.9,3.18-9.05,5.41-11.82,3.17-3.95,5.53-8.34,8.58-12.3,2.88-3.74,7.64-3.56,12.04-3.17,4.95.45,7.86,2.83,11.36,6.08,4.61,4.28,9.46,7.8,14.72,11.26,3.18,2.09,7.72,5.29,8.71,9.22,1.11,4.36-3.47,6.99-6.85,7.94Z"/><path class="cls-4" d="M1437.18,138.41c-2.61.64-6.21.69-8.36-1.18-2.03-1.77-3.73-3.99-5.96-5.71-4.54-3.49-9.63-6.54-13.8-10.33-1-.91-2.05-2.15-1.65-3.44.35-1.12,1.62-1.63,2.74-1.95,4.83-1.36,9.85-1.88,14.84-2.38,6.96-.71,13.92-1.41,20.89-2.12,2.51-.25,5.05-.51,7.54-.09,2.49.42,4.95,1.6,6.37,3.68,2.49,3.65.98,8.87-2.06,12.07-3.04,3.21-7.24,4.98-11.14,7.06-3.06,1.64-6.04,3.54-9.42,4.38Z"/><path class="cls-4" d="M1437.97,101.66c.02-3.14-6.99-5.36-9.23-6.01-4.15-1.21-8.5-1.59-12.8-1.84-8.23-.47-16.49.26-24.63,1.47-1.28.19-2.6.41-3.69,1.1-1.09.69-1.91,1.99-1.65,3.25.33,1.56,1.78,1.95,2.8,2.93,1.05,1,1.61,2.39,2.72,3.34,2.81,2.42,7.11,3.33,10.7,2.96,2.79-.29,5.34-1.6,8.06-2.11,4.2-.79,8.41-.39,12.63-.53,4.76-.16,9.41-1.13,13.76-3.14.63-.29,1.34-.74,1.34-1.43Z"/><path class="cls-4" d="M1475.69,98c5.12-1.07,9.91-3.68,15.13-3.95,1.78-.09,3.74.18,4.95,1.47.64.68,1,1.59,1.17,2.51.53,2.93-.91,5.97-3.12,7.97-4.15,3.75-12.38,6.25-17.49,3.28-1.97-1.15-6.66-3.73-7.27-5.93-1.06-3.81,4.1-4.82,6.63-5.34Z"/><path class="cls-4" d="M1510.42,70.13c-3.77,2.25-6.86,5.64-10.93,7.28-1.39.56-3.01.88-4.34.19-.69-.37-1.23-.98-1.62-1.67-1.22-2.18-.91-4.99.29-7.18,2.27-4.12,8.12-8.35,12.99-7.39,1.88.37,6.31,1.14,7.4,2.72,1.89,2.74-1.94,4.95-3.79,6.06Z"/><path class="cls-4" d="M1228.36,125.39c-.65-.49-1.33-1.17-1.21-1.97.09-.67.71-1.14,1.3-1.46,6.24-3.41,14.06-.15,20.53.51,6.27.64,12.7,1.28,18.9,2.37,3.16.55,13.2,3.06,11.87,8.31-1.43,5.64-10.15,2.13-13.72,2.09-7.75-.08-16.49-.63-23.65-3.88-4.64-2.1-9.86-2.84-14.02-5.97Z"/><path class="cls-4" d="M329.44,70.69c-2.56.71-5.08,1.57-7.54,2.58-2.16.88-4.3,1.89-6.6,2.25-6.4.99-10.15-4.57-15.46-6.82-2.99-1.27-6.53-2.14-6.59-6.2-.09-6.52,7.09-10.64,12.23-12.93,7.05-3.13,14.01-3.66,21.49-4.79,5.33-.8,9.53-2.35,14.6.27,3.43,1.77,5.75,4.39,8.76,6.64,2.68,2,5.15,3.52,7.01,6.47.61.97,1.15,2.1.91,3.22-.24,1.14-1.22,1.97-2.2,2.61-5.86,3.83-13.25,4.06-20.15,5.25-2.18.38-4.34.86-6.46,1.45Z"/><path class="cls-4" d="M354.65,44.2c-3.64-10.58,22.21-6.49,25.94-5.94,7.41,1.11,16.73,1.53,22.93,6.23,2.04,1.55,4.11,4.29,3.75,7.05-.41,3.2-4.22,4.46-6.9,4.87-4.22.66-8.44,1.27-12.66,1.91-4.08.62-8.25,1.23-12.3.48-4.52-.84-7.65-4-11.35-6.45-2.74-1.81-8.3-4.89-9.42-8.15Z"/><path class="cls-4" d="M274.15,75.22c1.58.43,3.19.96,4.42,2.04,1.23,1.08,2,2.84,1.47,4.39-.55,1.61-2.23,2.5-3.82,3.11-8.37,3.22-17.66,2.87-26.56,1.75-7.53-.95-15.63-2.77-20.49-8.6-.4-.48-.79-1.02-.79-1.64-.02-1.6,2.16-2.07,3.76-2.01,6.55.24,14.73,2.73,21.26.61,6.72-2.18,13.87-1.5,20.74.36Z"/></g></svg>