<?xml version="1.0" encoding="UTF-8"?>
<svg id="Layer_1" data-name="Layer 1" xmlns="http://www.w3.org/2000/svg" xmlns:xlink="http://www.w3.org/1999/xlink" viewBox="0 0 1919.99 104.96">
  <defs>
    <style>
      .cls-1 {
        fill: none;
      }

      .cls-2 {
        fill: #ce2b27;
        filter: url(#outer-glow-1);
      }

      .cls-3 {
        clip-path: url(#clippath);
      }
    </style>
    <clipPath id="clippath">
      <rect class="cls-1" width="1919.99" height="104.96"/>
    </clipPath>
    <filter id="outer-glow-1" x="-43.77" y="-244.99" width="2008" height="354" filterUnits="userSpaceOnUse">
      <feOffset dx="0" dy="0"/>
      <feGaussianBlur result="blur" stdDeviation="3.26"/>
      <feFlood flood-color="#000" flood-opacity=".35"/>
      <feComposite in2="blur" operator="in"/>
      <feComposite in="SourceGraphic"/>
    </filter>
  </defs>
  <g class="cls-3">
    <rect class="cls-1" x="0" width="1919.9" height="176.78"/>
    <path class="cls-2" d="M1953.37,27.56V-234.27H-33.47V74.58l18.47-.66c.66,14.1,10.49,25.21,21.96,24.8,11.47-.41,20.24-12.17,19.59-26.27.66,14.1,10.49,25.21,21.96,24.8,11.47-.41,20.24-12.17,19.59-26.27.66,14.1,10.49,25.21,21.96,24.8,11.47-.41,20.24-12.17,19.59-26.27.66,14.1,10.49,25.21,21.96,24.8,11.47-.41,20.24-12.17,19.59-26.27.66,14.1,10.49,25.21,21.96,24.8,11.47-.41,20.24-12.17,19.58-26.27.66,14.1,10.49,25.21,21.96,24.8,11.47-.41,20.24-12.17,19.59-26.27.66,14.1,10.49,25.21,21.96,24.8,11.47-.41,20.24-12.17,19.58-26.27.66,14.1,10.49,25.21,21.96,24.8,11.47-.41,20.24-12.17,19.58-26.27.66,14.1,10.49,25.21,21.96,24.8,11.47-.41,20.24-12.17,19.58-26.27.66,14.1,10.49,25.21,21.96,24.8,11.47-.41,20.24-12.17,19.58-26.27.66,14.1,10.49,25.21,21.96,24.8,11.47-.41,20.24-12.17,19.58-26.27.66,14.1,10.49,25.21,21.96,24.8,11.47-.41,20.24-12.17,19.58-26.27.66,14.1,10.49,25.21,21.96,24.8,11.47-.41,20.24-12.17,19.58-26.27.66,14.1,10.49,25.21,21.96,24.8,11.47-.41,20.24-12.17,19.59-26.27.66,14.1,10.49,25.21,21.96,24.8,11.47-.41,20.24-12.17,19.58-26.27.66,14.1,10.49,25.21,21.96,24.8,11.47-.41,20.24-12.17,19.58-26.27.66,14.1,10.49,25.21,21.96,24.8,11.47-.41,20.24-12.17,19.59-26.27.66,14.1,10.49,25.21,21.96,24.8,11.47-.41,20.24-12.17,19.59-26.27.66,14.1,10.49,25.21,21.96,24.8,11.47-.41,20.24-12.17,19.59-26.27.66,14.1,10.49,25.21,21.96,24.8,11.47-.41,20.24-12.17,19.59-26.27.66,14.1,10.49,25.21,21.96,24.8,11.47-.41,20.24-12.17,19.58-26.27.66,14.1,10.49,25.21,21.96,24.8,11.47-.41,20.24-12.17,19.59-26.27.66,14.1,10.49,25.21,21.96,24.8,11.47-.41,20.24-12.17,19.59-26.27.66,14.1,10.49,25.21,21.96,24.8,11.47-.41,20.24-12.17,19.58-26.27l1.94-.07c.66,14.1,10.49,25.21,21.96,24.8,11.47-.41,20.24-12.17,19.58-26.27.66,14.1,10.49,25.21,21.96,24.8,11.47-.41,20.24-12.17,19.58-26.27.66,14.1,10.49,25.21,21.96,24.8,11.47-.41,20.24-12.17,19.58-26.27.66,14.1,10.49,25.21,21.96,24.8,11.47-.41,20.24-12.17,19.58-26.27.66,14.1,10.49,25.21,21.96,24.8,11.47-.41,20.24-12.17,19.58-26.27.66,14.1,10.49,25.21,21.96,24.8,11.47-.41,20.24-12.17,19.58-26.27.66,14.1,10.49,25.21,21.96,24.8,11.47-.41,20.24-12.17,19.58-26.27.66,14.1,10.49,25.21,21.96,24.8,11.47-.41,20.24-12.17,19.58-26.27.66,14.1,10.49,25.21,21.96,24.8,11.47-.41,20.24-12.17,19.58-26.27.66,14.1,10.49,25.21,21.96,24.8,11.47-.41,20.24-12.17,19.58-26.27.66,14.1,10.49,25.21,21.96,24.8,11.47-.41,20.24-12.17,19.58-26.27.66,14.1,10.49,25.21,21.96,24.8,11.47-.41,20.24-12.17,19.58-26.27.66,14.1,10.49,25.21,21.96,24.8,11.47-.41,20.24-12.17,19.58-26.27.66,14.1,10.49,25.21,21.96,24.8,11.47-.41,20.24-12.17,19.58-26.27.66,14.1,10.49,25.21,21.96,24.8,11.47-.41,20.24-12.17,19.58-26.27.66,14.1,10.49,25.21,21.96,24.8,11.47-.41,20.24-12.17,19.58-26.27.66,14.1,10.49,25.21,21.96,24.8,11.47-.41,20.24-12.17,19.58-26.27.66,14.1,10.49,25.21,21.96,24.8,11.47-.41,20.24-12.17,19.58-26.27.66,14.1,10.49,25.21,21.96,24.8,11.47-.41,20.24-12.17,19.58-26.27.66,14.1,10.49,25.21,21.96,24.8,11.47-.41,20.24-12.17,19.58-26.27.66,14.1,10.49,25.21,21.96,24.8,11.47-.41,20.24-12.17,19.58-26.27.66,14.1,10.49,25.21,21.96,24.8,11.47-.41,20.24-12.17,19.59-26.27.66,14.1,10.49,25.21,21.96,24.8,11.47-.41,20.24-12.17,19.58-26.27.49,10.5,6.07,19.32,13.61,22.99Z"/>
  </g>
</svg>