<?xml version="1.0" encoding="UTF-8"?>
<svg id="Layer_1" data-name="Layer 1" xmlns="http://www.w3.org/2000/svg" viewBox="0 0 919.81 653.61">
  <defs>
    <style>
      .cls-1 {
        fill: #c9a059;
      }
    </style>
  </defs>
  <polygon class="cls-1" points="96.3 599.61 92.79 592.49 89.28 599.61 81.42 600.75 87.11 606.29 85.76 614.11 92.79 610.41 99.81 614.11 98.47 606.29 104.15 600.75 96.3 599.61"/>
  <polygon class="cls-1" points="14.88 599.61 11.37 592.49 7.85 599.61 0 600.75 5.68 606.29 4.34 614.11 11.37 610.41 18.39 614.11 17.05 606.29 22.73 600.75 14.88 599.61"/>
  <polygon class="cls-1" points="259.14 599.61 255.63 592.49 252.12 599.61 244.27 600.75 249.95 606.29 248.61 614.11 255.63 610.41 262.66 614.11 261.32 606.29 267 600.75 259.14 599.61"/>
  <polygon class="cls-1" points="177.72 599.61 174.21 592.49 170.7 599.61 162.84 600.75 168.53 606.29 167.19 614.11 174.21 610.41 181.23 614.11 179.89 606.29 185.58 600.75 177.72 599.61"/>
  <polygon class="cls-1" points="421.99 599.61 418.48 592.49 414.96 599.61 407.11 600.75 412.79 606.29 411.45 614.11 418.48 610.41 425.5 614.11 424.16 606.29 429.84 600.75 421.99 599.61"/>
  <polygon class="cls-1" points="340.57 599.61 337.05 592.49 333.54 599.61 325.69 600.75 331.37 606.29 330.03 614.11 337.05 610.41 344.08 614.11 342.74 606.29 348.42 600.75 340.57 599.61"/>
  <polygon class="cls-1" points="584.83 599.61 581.32 592.49 577.81 599.61 569.95 600.75 575.64 606.29 574.3 614.11 581.32 610.41 588.35 614.11 587 606.29 592.69 600.75 584.83 599.61"/>
  <polygon class="cls-1" points="503.41 599.61 499.9 592.49 496.39 599.61 488.53 600.75 494.22 606.29 492.87 614.11 499.9 610.41 506.92 614.11 505.58 606.29 511.26 600.75 503.41 599.61"/>
  <polygon class="cls-1" points="747.68 599.61 744.16 592.49 740.65 599.61 732.8 600.75 738.48 606.29 737.14 614.11 744.16 610.41 751.19 614.11 749.85 606.29 755.53 600.75 747.68 599.61"/>
  <polygon class="cls-1" points="666.26 599.61 662.74 592.49 659.23 599.61 651.38 600.75 657.06 606.29 655.72 614.11 662.74 610.41 669.77 614.11 668.43 606.29 674.11 600.75 666.26 599.61"/>
  <polygon class="cls-1" points="910.52 599.61 907.01 592.49 903.5 599.61 895.64 600.75 901.33 606.29 899.98 614.11 907.01 610.41 914.03 614.11 912.69 606.29 918.38 600.75 910.52 599.61"/>
  <polygon class="cls-1" points="829.1 599.61 825.59 592.49 822.07 599.61 814.22 600.75 819.9 606.29 818.56 614.11 825.59 610.41 832.61 614.11 831.27 606.29 836.95 600.75 829.1 599.61"/>
  <polygon class="cls-1" points="133.5 552.99 129.99 560.11 122.13 561.25 127.82 566.79 126.47 574.61 133.5 570.92 140.52 574.61 139.18 566.79 144.87 561.25 137.01 560.11 133.5 552.99"/>
  <polygon class="cls-1" points="52.08 552.99 48.56 560.11 40.71 561.25 46.39 566.79 45.05 574.61 52.08 570.92 59.1 574.61 57.76 566.79 63.44 561.25 55.59 560.11 52.08 552.99"/>
  <polygon class="cls-1" points="296.34 552.99 292.83 560.11 284.98 561.25 290.66 566.79 289.32 574.61 296.34 570.92 303.37 574.61 302.03 566.79 307.71 561.25 299.86 560.11 296.34 552.99"/>
  <polygon class="cls-1" points="214.92 552.99 211.41 560.11 203.56 561.25 209.24 566.79 207.9 574.61 214.92 570.92 221.95 574.61 220.6 566.79 226.29 561.25 218.43 560.11 214.92 552.99"/>
  <polygon class="cls-1" points="459.19 552.99 455.68 560.11 447.82 561.25 453.5 566.79 452.16 574.61 459.19 570.92 466.21 574.61 464.87 566.79 470.55 561.25 462.7 560.11 459.19 552.99"/>
  <polygon class="cls-1" points="377.77 552.99 374.25 560.11 366.4 561.25 372.08 566.79 370.74 574.61 377.77 570.92 384.79 574.61 383.45 566.79 389.13 561.25 381.28 560.11 377.77 552.99"/>
  <polygon class="cls-1" points="622.03 552.99 618.52 560.11 610.67 561.25 616.35 566.79 615.01 574.61 622.03 570.92 629.06 574.61 627.71 566.79 633.4 561.25 625.54 560.11 622.03 552.99"/>
  <polygon class="cls-1" points="540.61 552.99 537.1 560.11 529.24 561.25 534.93 566.79 533.59 574.61 540.61 570.92 547.63 574.61 546.29 566.79 551.98 561.25 544.12 560.11 540.61 552.99"/>
  <polygon class="cls-1" points="784.88 552.99 781.36 560.11 773.51 561.25 779.19 566.79 777.85 574.61 784.88 570.92 791.9 574.61 790.56 566.79 796.24 561.25 788.39 560.11 784.88 552.99"/>
  <polygon class="cls-1" points="703.45 552.99 699.94 560.11 692.09 561.25 697.77 566.79 696.43 574.61 703.45 570.92 710.48 574.61 709.14 566.79 714.82 561.25 706.97 560.11 703.45 552.99"/>
  <polygon class="cls-1" points="866.3 552.99 862.79 560.11 854.93 561.25 860.61 566.79 859.27 574.61 866.3 570.92 873.32 574.61 871.98 566.79 877.66 561.25 869.81 560.11 866.3 552.99"/>
  <polygon class="cls-1" points="92.79 513.49 89.28 520.61 81.42 521.75 87.11 527.29 85.76 535.11 92.79 531.42 99.81 535.11 98.47 527.29 104.15 521.75 96.3 520.61 92.79 513.49"/>
  <polygon class="cls-1" points="11.37 513.49 7.85 520.61 0 521.75 5.68 527.29 4.34 535.11 11.37 531.42 18.39 535.11 17.05 527.29 22.73 521.75 14.88 520.61 11.37 513.49"/>
  <polygon class="cls-1" points="255.63 513.49 252.12 520.61 244.27 521.75 249.95 527.29 248.61 535.11 255.63 531.42 262.66 535.11 261.32 527.29 267 521.75 259.14 520.61 255.63 513.49"/>
  <polygon class="cls-1" points="174.21 513.49 170.7 520.61 162.84 521.75 168.53 527.29 167.19 535.11 174.21 531.42 181.23 535.11 179.89 527.29 185.58 521.75 177.72 520.61 174.21 513.49"/>
  <polygon class="cls-1" points="418.48 513.49 414.96 520.61 407.11 521.75 412.79 527.29 411.45 535.11 418.48 531.42 425.5 535.11 424.16 527.29 429.84 521.75 421.99 520.61 418.48 513.49"/>
  <polygon class="cls-1" points="337.05 513.49 333.54 520.61 325.69 521.75 331.37 527.29 330.03 535.11 337.05 531.42 344.08 535.11 342.74 527.29 348.42 521.75 340.57 520.61 337.05 513.49"/>
  <polygon class="cls-1" points="581.32 513.49 577.81 520.61 569.95 521.75 575.64 527.29 574.3 535.11 581.32 531.42 588.35 535.11 587 527.29 592.69 521.75 584.83 520.61 581.32 513.49"/>
  <polygon class="cls-1" points="499.9 513.49 496.39 520.61 488.53 521.75 494.22 527.29 492.87 535.11 499.9 531.42 506.92 535.11 505.58 527.29 511.26 521.75 503.41 520.61 499.9 513.49"/>
  <polygon class="cls-1" points="744.16 513.49 740.65 520.61 732.8 521.75 738.48 527.29 737.14 535.11 744.16 531.42 751.19 535.11 749.85 527.29 755.53 521.75 747.68 520.61 744.16 513.49"/>
  <polygon class="cls-1" points="662.74 513.49 659.23 520.61 651.38 521.75 657.06 527.29 655.72 535.11 662.74 531.42 669.77 535.11 668.43 527.29 674.11 521.75 666.26 520.61 662.74 513.49"/>
  <polygon class="cls-1" points="907.01 513.49 903.5 520.61 895.64 521.75 901.33 527.29 899.98 535.11 907.01 531.42 914.03 535.11 912.69 527.29 918.38 521.75 910.52 520.61 907.01 513.49"/>
  <polygon class="cls-1" points="825.59 513.49 822.07 520.61 814.22 521.75 819.9 527.29 818.56 535.11 825.59 531.42 832.61 535.11 831.27 527.29 836.95 521.75 829.1 520.61 825.59 513.49"/>
  <polygon class="cls-1" points="133.5 473.99 129.99 481.11 122.13 482.25 127.82 487.79 126.47 495.61 133.5 491.92 140.52 495.61 139.18 487.79 144.87 482.25 137.01 481.11 133.5 473.99"/>
  <polygon class="cls-1" points="52.08 473.99 48.56 481.11 40.71 482.25 46.39 487.79 45.05 495.61 52.08 491.92 59.1 495.61 57.76 487.79 63.44 482.25 55.59 481.11 52.08 473.99"/>
  <polygon class="cls-1" points="296.34 473.99 292.83 481.11 284.98 482.25 290.66 487.79 289.32 495.61 296.34 491.92 303.37 495.61 302.03 487.79 307.71 482.25 299.86 481.11 296.34 473.99"/>
  <polygon class="cls-1" points="214.92 473.99 211.41 481.11 203.56 482.25 209.24 487.79 207.9 495.61 214.92 491.92 221.95 495.61 220.6 487.79 226.29 482.25 218.43 481.11 214.92 473.99"/>
  <polygon class="cls-1" points="459.19 473.99 455.68 481.11 447.82 482.25 453.5 487.79 452.16 495.61 459.19 491.92 466.21 495.61 464.87 487.79 470.55 482.25 462.7 481.11 459.19 473.99"/>
  <polygon class="cls-1" points="377.77 473.99 374.25 481.11 366.4 482.25 372.08 487.79 370.74 495.61 377.77 491.92 384.79 495.61 383.45 487.79 389.13 482.25 381.28 481.11 377.77 473.99"/>
  <polygon class="cls-1" points="622.03 473.99 618.52 481.11 610.67 482.25 616.35 487.79 615.01 495.61 622.03 491.92 629.06 495.61 627.71 487.79 633.4 482.25 625.54 481.11 622.03 473.99"/>
  <polygon class="cls-1" points="540.61 473.99 537.1 481.11 529.24 482.25 534.93 487.79 533.59 495.61 540.61 491.92 547.63 495.61 546.29 487.79 551.98 482.25 544.12 481.11 540.61 473.99"/>
  <polygon class="cls-1" points="784.88 473.99 781.36 481.11 773.51 482.25 779.19 487.79 777.85 495.61 784.88 491.92 791.9 495.61 790.56 487.79 796.24 482.25 788.39 481.11 784.88 473.99"/>
  <polygon class="cls-1" points="703.45 473.99 699.94 481.11 692.09 482.25 697.77 487.79 696.43 495.61 703.45 491.92 710.48 495.61 709.14 487.79 714.82 482.25 706.97 481.11 703.45 473.99"/>
  <polygon class="cls-1" points="866.3 473.99 862.79 481.11 854.93 482.25 860.61 487.79 859.27 495.61 866.3 491.92 873.32 495.61 871.98 487.79 877.66 482.25 869.81 481.11 866.3 473.99"/>
  <polygon class="cls-1" points="92.79 434.49 89.28 441.61 81.42 442.75 87.11 448.29 85.76 456.11 92.79 452.42 99.81 456.11 98.47 448.29 104.15 442.75 96.3 441.61 92.79 434.49"/>
  <polygon class="cls-1" points="11.37 434.49 7.85 441.61 0 442.75 5.68 448.29 4.34 456.11 11.37 452.42 18.39 456.11 17.05 448.29 22.73 442.75 14.88 441.61 11.37 434.49"/>
  <polygon class="cls-1" points="255.63 434.49 252.12 441.61 244.27 442.75 249.95 448.29 248.61 456.11 255.63 452.42 262.66 456.11 261.32 448.29 267 442.75 259.14 441.61 255.63 434.49"/>
  <polygon class="cls-1" points="174.21 434.49 170.7 441.61 162.84 442.75 168.53 448.29 167.19 456.11 174.21 452.42 181.23 456.11 179.89 448.29 185.58 442.75 177.72 441.61 174.21 434.49"/>
  <polygon class="cls-1" points="418.48 434.49 414.96 441.61 407.11 442.75 412.79 448.29 411.45 456.11 418.48 452.42 425.5 456.11 424.16 448.29 429.84 442.75 421.99 441.61 418.48 434.49"/>
  <polygon class="cls-1" points="337.05 434.49 333.54 441.61 325.69 442.75 331.37 448.29 330.03 456.11 337.05 452.42 344.08 456.11 342.74 448.29 348.42 442.75 340.57 441.61 337.05 434.49"/>
  <polygon class="cls-1" points="581.32 434.49 577.81 441.61 569.95 442.75 575.64 448.29 574.3 456.11 581.32 452.42 588.35 456.11 587 448.29 592.69 442.75 584.83 441.61 581.32 434.49"/>
  <polygon class="cls-1" points="499.9 434.49 496.39 441.61 488.53 442.75 494.22 448.29 492.87 456.11 499.9 452.42 506.92 456.11 505.58 448.29 511.26 442.75 503.41 441.61 499.9 434.49"/>
  <polygon class="cls-1" points="744.16 434.49 740.65 441.61 732.8 442.75 738.48 448.29 737.14 456.11 744.16 452.42 751.19 456.11 749.85 448.29 755.53 442.75 747.68 441.61 744.16 434.49"/>
  <polygon class="cls-1" points="662.74 434.49 659.23 441.61 651.38 442.75 657.06 448.29 655.72 456.11 662.74 452.42 669.77 456.11 668.43 448.29 674.11 442.75 666.26 441.61 662.74 434.49"/>
  <polygon class="cls-1" points="907.01 434.49 903.5 441.61 895.64 442.75 901.33 448.29 899.98 456.11 907.01 452.42 914.03 456.11 912.69 448.29 918.38 442.75 910.52 441.61 907.01 434.49"/>
  <polygon class="cls-1" points="825.59 434.49 822.07 441.61 814.22 442.75 819.9 448.29 818.56 456.11 825.59 452.42 832.61 456.11 831.27 448.29 836.95 442.75 829.1 441.61 825.59 434.49"/>
  <polygon class="cls-1" points="133.5 394.99 129.99 402.11 122.13 403.25 127.82 408.79 126.47 416.61 133.5 412.92 140.52 416.61 139.18 408.79 144.87 403.25 137.01 402.11 133.5 394.99"/>
  <polygon class="cls-1" points="52.08 394.99 48.56 402.11 40.71 403.25 46.39 408.79 45.05 416.61 52.08 412.92 59.1 416.61 57.76 408.79 63.44 403.25 55.59 402.11 52.08 394.99"/>
  <polygon class="cls-1" points="296.34 394.99 292.83 402.11 284.98 403.25 290.66 408.79 289.32 416.61 296.34 412.92 303.37 416.61 302.03 408.79 307.71 403.25 299.86 402.11 296.34 394.99"/>
  <polygon class="cls-1" points="214.92 394.99 211.41 402.11 203.56 403.25 209.24 408.79 207.9 416.61 214.92 412.92 221.95 416.61 220.6 408.79 226.29 403.25 218.43 402.11 214.92 394.99"/>
  <polygon class="cls-1" points="459.19 394.99 455.68 402.11 447.82 403.25 453.5 408.79 452.16 416.61 459.19 412.92 466.21 416.61 464.87 408.79 470.55 403.25 462.7 402.11 459.19 394.99"/>
  <polygon class="cls-1" points="377.77 394.99 374.25 402.11 366.4 403.25 372.08 408.79 370.74 416.61 377.77 412.92 384.79 416.61 383.45 408.79 389.13 403.25 381.28 402.11 377.77 394.99"/>
  <polygon class="cls-1" points="622.03 394.99 618.52 402.11 610.67 403.25 616.35 408.79 615.01 416.61 622.03 412.92 629.06 416.61 627.71 408.79 633.4 403.25 625.54 402.11 622.03 394.99"/>
  <polygon class="cls-1" points="540.61 394.99 537.1 402.11 529.24 403.25 534.93 408.79 533.59 416.61 540.61 412.92 547.63 416.61 546.29 408.79 551.98 403.25 544.12 402.11 540.61 394.99"/>
  <polygon class="cls-1" points="784.88 394.99 781.36 402.11 773.51 403.25 779.19 408.79 777.85 416.61 784.88 412.92 791.9 416.61 790.56 408.79 796.24 403.25 788.39 402.11 784.88 394.99"/>
  <polygon class="cls-1" points="703.45 394.99 699.94 402.11 692.09 403.25 697.77 408.79 696.43 416.61 703.45 412.92 710.48 416.61 709.14 408.79 714.82 403.25 706.97 402.11 703.45 394.99"/>
  <polygon class="cls-1" points="866.3 394.99 862.79 402.11 854.93 403.25 860.61 408.79 859.27 416.61 866.3 412.92 873.32 416.61 871.98 408.79 877.66 403.25 869.81 402.11 866.3 394.99"/>
  <polygon class="cls-1" points="92.79 355.49 89.28 362.61 81.42 363.75 87.11 369.29 85.76 377.11 92.79 373.42 99.81 377.11 98.47 369.29 104.15 363.75 96.3 362.61 92.79 355.49"/>
  <polygon class="cls-1" points="11.37 355.49 7.85 362.61 0 363.75 5.68 369.29 4.34 377.11 11.37 373.42 18.39 377.11 17.05 369.29 22.73 363.75 14.88 362.61 11.37 355.49"/>
  <polygon class="cls-1" points="255.63 355.49 252.12 362.61 244.27 363.75 249.95 369.29 248.61 377.11 255.63 373.42 262.66 377.11 261.32 369.29 267 363.75 259.14 362.61 255.63 355.49"/>
  <polygon class="cls-1" points="174.21 355.49 170.7 362.61 162.84 363.75 168.53 369.29 167.19 377.11 174.21 373.42 181.23 377.11 179.89 369.29 185.58 363.75 177.72 362.61 174.21 355.49"/>
  <polygon class="cls-1" points="418.48 355.49 414.96 362.61 407.11 363.75 412.79 369.29 411.45 377.11 418.48 373.42 425.5 377.11 424.16 369.29 429.84 363.75 421.99 362.61 418.48 355.49"/>
  <polygon class="cls-1" points="337.05 355.49 333.54 362.61 325.69 363.75 331.37 369.29 330.03 377.11 337.05 373.42 344.08 377.11 342.74 369.29 348.42 363.75 340.57 362.61 337.05 355.49"/>
  <polygon class="cls-1" points="581.32 355.49 577.81 362.61 569.95 363.75 575.64 369.29 574.3 377.11 581.32 373.42 588.35 377.11 587 369.29 592.69 363.75 584.83 362.61 581.32 355.49"/>
  <polygon class="cls-1" points="499.9 355.49 496.39 362.61 488.53 363.75 494.22 369.29 492.87 377.11 499.9 373.42 506.92 377.11 505.58 369.29 511.26 363.75 503.41 362.61 499.9 355.49"/>
  <polygon class="cls-1" points="744.16 355.49 740.65 362.61 732.8 363.75 738.48 369.29 737.14 377.11 744.16 373.42 751.19 377.11 749.85 369.29 755.53 363.75 747.68 362.61 744.16 355.49"/>
  <polygon class="cls-1" points="662.74 355.49 659.23 362.61 651.38 363.75 657.06 369.29 655.72 377.11 662.74 373.42 669.77 377.11 668.43 369.29 674.11 363.75 666.26 362.61 662.74 355.49"/>
  <polygon class="cls-1" points="907.01 355.49 903.5 362.61 895.64 363.75 901.33 369.29 899.98 377.11 907.01 373.42 914.03 377.11 912.69 369.29 918.38 363.75 910.52 362.61 907.01 355.49"/>
  <polygon class="cls-1" points="825.59 355.49 822.07 362.61 814.22 363.75 819.9 369.29 818.56 377.11 825.59 373.42 832.61 377.11 831.27 369.29 836.95 363.75 829.1 362.61 825.59 355.49"/>
  <polygon class="cls-1" points="133.5 315.99 129.99 323.11 122.13 324.25 127.82 329.79 126.47 337.61 133.5 333.92 140.52 337.61 139.18 329.79 144.87 324.25 137.01 323.11 133.5 315.99"/>
  <polygon class="cls-1" points="52.08 315.99 48.56 323.11 40.71 324.25 46.39 329.79 45.05 337.61 52.08 333.92 59.1 337.61 57.76 329.79 63.44 324.25 55.59 323.11 52.08 315.99"/>
  <polygon class="cls-1" points="296.34 315.99 292.83 323.11 284.98 324.25 290.66 329.79 289.32 337.61 296.34 333.92 303.37 337.61 302.03 329.79 307.71 324.25 299.86 323.11 296.34 315.99"/>
  <polygon class="cls-1" points="214.92 315.99 211.41 323.11 203.56 324.25 209.24 329.79 207.9 337.61 214.92 333.92 221.95 337.61 220.6 329.79 226.29 324.25 218.43 323.11 214.92 315.99"/>
  <polygon class="cls-1" points="459.19 315.99 455.68 323.11 447.82 324.25 453.5 329.79 452.16 337.61 459.19 333.92 466.21 337.61 464.87 329.79 470.55 324.25 462.7 323.11 459.19 315.99"/>
  <polygon class="cls-1" points="377.77 315.99 374.25 323.11 366.4 324.25 372.08 329.79 370.74 337.61 377.77 333.92 384.79 337.61 383.45 329.79 389.13 324.25 381.28 323.11 377.77 315.99"/>
  <polygon class="cls-1" points="622.03 315.99 618.52 323.11 610.67 324.25 616.35 329.79 615.01 337.61 622.03 333.92 629.06 337.61 627.71 329.79 633.4 324.25 625.54 323.11 622.03 315.99"/>
  <polygon class="cls-1" points="540.61 315.99 537.1 323.11 529.24 324.25 534.93 329.79 533.59 337.61 540.61 333.92 547.63 337.61 546.29 329.79 551.98 324.25 544.12 323.11 540.61 315.99"/>
  <polygon class="cls-1" points="784.88 315.99 781.36 323.11 773.51 324.25 779.19 329.79 777.85 337.61 784.88 333.92 791.9 337.61 790.56 329.79 796.24 324.25 788.39 323.11 784.88 315.99"/>
  <polygon class="cls-1" points="703.45 315.99 699.94 323.11 692.09 324.25 697.77 329.79 696.43 337.61 703.45 333.92 710.48 337.61 709.14 329.79 714.82 324.25 706.97 323.11 703.45 315.99"/>
  <polygon class="cls-1" points="866.3 315.99 862.79 323.11 854.93 324.25 860.61 329.79 859.27 337.61 866.3 333.92 873.32 337.61 871.98 329.79 877.66 324.25 869.81 323.11 866.3 315.99"/>
  <polygon class="cls-1" points="137.01 639.1 133.5 631.99 129.99 639.1 122.13 640.25 127.82 645.79 126.47 653.61 133.5 649.91 140.52 653.61 139.18 645.79 144.87 640.25 137.01 639.1"/>
  <polygon class="cls-1" points="55.59 639.1 52.08 631.99 48.56 639.1 40.71 640.25 46.39 645.79 45.05 653.61 52.08 649.91 59.1 653.61 57.76 645.79 63.44 640.25 55.59 639.1"/>
  <polygon class="cls-1" points="299.86 639.1 296.34 631.99 292.83 639.1 284.98 640.25 290.66 645.79 289.32 653.61 296.34 649.91 303.37 653.61 302.03 645.79 307.71 640.25 299.86 639.1"/>
  <polygon class="cls-1" points="218.43 639.1 214.92 631.99 211.41 639.1 203.56 640.25 209.24 645.79 207.9 653.61 214.92 649.91 221.95 653.61 220.6 645.79 226.29 640.25 218.43 639.1"/>
  <polygon class="cls-1" points="462.7 639.1 459.19 631.99 455.68 639.1 447.82 640.25 453.5 645.79 452.16 653.61 459.19 649.91 466.21 653.61 464.87 645.79 470.55 640.25 462.7 639.1"/>
  <polygon class="cls-1" points="381.28 639.1 377.77 631.99 374.25 639.1 366.4 640.25 372.08 645.79 370.74 653.61 377.77 649.91 384.79 653.61 383.45 645.79 389.13 640.25 381.28 639.1"/>
  <polygon class="cls-1" points="625.54 639.1 622.03 631.99 618.52 639.1 610.67 640.25 616.35 645.79 615.01 653.61 622.03 649.91 629.06 653.61 627.71 645.79 633.4 640.25 625.54 639.1"/>
  <polygon class="cls-1" points="544.12 639.1 540.61 631.99 537.1 639.1 529.24 640.25 534.93 645.79 533.59 653.61 540.61 649.91 547.63 653.61 546.29 645.79 551.98 640.25 544.12 639.1"/>
  <polygon class="cls-1" points="788.39 639.1 784.88 631.99 781.36 639.1 773.51 640.25 779.19 645.79 777.85 653.61 784.88 649.91 791.9 653.61 790.56 645.79 796.24 640.25 788.39 639.1"/>
  <polygon class="cls-1" points="706.97 639.1 703.45 631.99 699.94 639.1 692.09 640.25 697.77 645.79 696.43 653.61 703.45 649.91 710.48 653.61 709.14 645.79 714.82 640.25 706.97 639.1"/>
  <polygon class="cls-1" points="869.81 639.1 866.3 631.99 862.79 639.1 854.93 640.25 860.61 645.79 859.27 653.61 866.3 649.91 873.32 653.61 871.98 645.79 877.66 640.25 869.81 639.1"/>
  <polygon class="cls-1" points="94.22 276.49 90.71 283.61 82.85 284.75 88.54 290.29 87.2 298.11 94.22 294.42 101.24 298.11 99.9 290.29 105.59 284.75 97.73 283.61 94.22 276.49"/>
  <polygon class="cls-1" points="12.8 276.49 9.29 283.61 1.43 284.75 7.11 290.29 5.77 298.11 12.8 294.42 19.82 298.11 18.48 290.29 24.16 284.75 16.31 283.61 12.8 276.49"/>
  <polygon class="cls-1" points="257.06 276.49 253.55 283.61 245.7 284.75 251.38 290.29 250.04 298.11 257.06 294.42 264.09 298.11 262.75 290.29 268.43 284.75 260.58 283.61 257.06 276.49"/>
  <polygon class="cls-1" points="175.64 276.49 172.13 283.61 164.28 284.75 169.96 290.29 168.62 298.11 175.64 294.42 182.67 298.11 181.32 290.29 187.01 284.75 179.15 283.61 175.64 276.49"/>
  <polygon class="cls-1" points="419.91 276.49 416.4 283.61 408.54 284.75 414.23 290.29 412.88 298.11 419.91 294.42 426.93 298.11 425.59 290.29 431.27 284.75 423.42 283.61 419.91 276.49"/>
  <polygon class="cls-1" points="338.49 276.49 334.97 283.61 327.12 284.75 332.8 290.29 331.46 298.11 338.49 294.42 345.51 298.11 344.17 290.29 349.85 284.75 342 283.61 338.49 276.49"/>
  <polygon class="cls-1" points="582.75 276.49 579.24 283.61 571.39 284.75 577.07 290.29 575.73 298.11 582.75 294.42 589.78 298.11 588.44 290.29 594.12 284.75 586.26 283.61 582.75 276.49"/>
  <polygon class="cls-1" points="501.33 276.49 497.82 283.61 489.96 284.75 495.65 290.29 494.31 298.11 501.33 294.42 508.35 298.11 507.01 290.29 512.7 284.75 504.84 283.61 501.33 276.49"/>
  <polygon class="cls-1" points="745.6 276.49 742.08 283.61 734.23 284.75 739.91 290.29 738.57 298.11 745.6 294.42 752.62 298.11 751.28 290.29 756.96 284.75 749.11 283.61 745.6 276.49"/>
  <polygon class="cls-1" points="664.17 276.49 660.66 283.61 652.81 284.75 658.49 290.29 657.15 298.11 664.17 294.42 671.2 298.11 669.86 290.29 675.54 284.75 667.69 283.61 664.17 276.49"/>
  <polygon class="cls-1" points="908.44 276.49 904.93 283.61 897.07 284.75 902.76 290.29 901.42 298.11 908.44 294.42 915.47 298.11 914.12 290.29 919.81 284.75 911.95 283.61 908.44 276.49"/>
  <polygon class="cls-1" points="827.02 276.49 823.51 283.61 815.65 284.75 821.34 290.29 819.99 298.11 827.02 294.42 834.04 298.11 832.7 290.29 838.38 284.75 830.53 283.61 827.02 276.49"/>
  <polygon class="cls-1" points="134.93 237 131.42 244.11 123.56 245.25 129.25 250.79 127.91 258.62 134.93 254.92 141.96 258.62 140.61 250.79 146.3 245.25 138.44 244.11 134.93 237"/>
  <polygon class="cls-1" points="53.51 237 50 244.11 42.14 245.25 47.83 250.79 46.48 258.62 53.51 254.92 60.53 258.62 59.19 250.79 64.87 245.25 57.02 244.11 53.51 237"/>
  <polygon class="cls-1" points="297.77 237 294.26 244.11 286.41 245.25 292.09 250.79 290.75 258.62 297.77 254.92 304.8 258.62 303.46 250.79 309.14 245.25 301.29 244.11 297.77 237"/>
  <polygon class="cls-1" points="216.35 237 212.84 244.11 204.99 245.25 210.67 250.79 209.33 258.62 216.35 254.92 223.38 258.62 222.04 250.79 227.72 245.25 219.87 244.11 216.35 237"/>
  <polygon class="cls-1" points="460.62 237 457.11 244.11 449.25 245.25 454.94 250.79 453.59 258.62 460.62 254.92 467.64 258.62 466.3 250.79 471.99 245.25 464.13 244.11 460.62 237"/>
  <polygon class="cls-1" points="379.2 237 375.68 244.11 367.83 245.25 373.51 250.79 372.17 258.62 379.2 254.92 386.22 258.62 384.88 250.79 390.56 245.25 382.71 244.11 379.2 237"/>
  <polygon class="cls-1" points="623.46 237 619.95 244.11 612.1 245.25 617.78 250.79 616.44 258.62 623.46 254.92 630.49 258.62 629.15 250.79 634.83 245.25 626.98 244.11 623.46 237"/>
  <polygon class="cls-1" points="542.04 237 538.53 244.11 530.68 245.25 536.36 250.79 535.02 258.62 542.04 254.92 549.07 258.62 547.72 250.79 553.41 245.25 545.55 244.11 542.04 237"/>
  <polygon class="cls-1" points="786.31 237 782.8 244.11 774.94 245.25 780.62 250.79 779.28 258.62 786.31 254.92 793.33 258.62 791.99 250.79 797.67 245.25 789.82 244.11 786.31 237"/>
  <polygon class="cls-1" points="704.89 237 701.37 244.11 693.52 245.25 699.2 250.79 697.86 258.62 704.89 254.92 711.91 258.62 710.57 250.79 716.25 245.25 708.4 244.11 704.89 237"/>
  <polygon class="cls-1" points="867.73 237 864.22 244.11 856.36 245.25 862.05 250.79 860.7 258.62 867.73 254.92 874.75 258.62 873.41 250.79 879.1 245.25 871.24 244.11 867.73 237"/>
  <polygon class="cls-1" points="94.22 197.5 90.71 204.61 82.85 205.75 88.54 211.29 87.2 219.12 94.22 215.42 101.24 219.12 99.9 211.29 105.59 205.75 97.73 204.61 94.22 197.5"/>
  <polygon class="cls-1" points="12.8 197.5 9.29 204.61 1.43 205.75 7.11 211.29 5.77 219.12 12.8 215.42 19.82 219.12 18.48 211.29 24.16 205.75 16.31 204.61 12.8 197.5"/>
  <polygon class="cls-1" points="257.06 197.5 253.55 204.61 245.7 205.75 251.38 211.29 250.04 219.12 257.06 215.42 264.09 219.12 262.75 211.29 268.43 205.75 260.58 204.61 257.06 197.5"/>
  <polygon class="cls-1" points="175.64 197.5 172.13 204.61 164.28 205.75 169.96 211.29 168.62 219.12 175.64 215.42 182.67 219.12 181.32 211.29 187.01 205.75 179.15 204.61 175.64 197.5"/>
  <polygon class="cls-1" points="419.91 197.5 416.4 204.61 408.54 205.75 414.23 211.29 412.88 219.12 419.91 215.42 426.93 219.12 425.59 211.29 431.27 205.75 423.42 204.61 419.91 197.5"/>
  <polygon class="cls-1" points="338.49 197.5 334.97 204.61 327.12 205.75 332.8 211.29 331.46 219.12 338.49 215.42 345.51 219.12 344.17 211.29 349.85 205.75 342 204.61 338.49 197.5"/>
  <polygon class="cls-1" points="582.75 197.5 579.24 204.61 571.39 205.75 577.07 211.29 575.73 219.12 582.75 215.42 589.78 219.12 588.44 211.29 594.12 205.75 586.26 204.61 582.75 197.5"/>
  <polygon class="cls-1" points="501.33 197.5 497.82 204.61 489.96 205.75 495.65 211.29 494.31 219.12 501.33 215.42 508.35 219.12 507.01 211.29 512.7 205.75 504.84 204.61 501.33 197.5"/>
  <polygon class="cls-1" points="745.6 197.5 742.08 204.61 734.23 205.75 739.91 211.29 738.57 219.12 745.6 215.42 752.62 219.12 751.28 211.29 756.96 205.75 749.11 204.61 745.6 197.5"/>
  <polygon class="cls-1" points="664.17 197.5 660.66 204.61 652.81 205.75 658.49 211.29 657.15 219.12 664.17 215.42 671.2 219.12 669.86 211.29 675.54 205.75 667.69 204.61 664.17 197.5"/>
  <polygon class="cls-1" points="908.44 197.5 904.93 204.61 897.07 205.75 902.76 211.29 901.42 219.12 908.44 215.42 915.47 219.12 914.12 211.29 919.81 205.75 911.95 204.61 908.44 197.5"/>
  <polygon class="cls-1" points="827.02 197.5 823.51 204.61 815.65 205.75 821.34 211.29 819.99 219.12 827.02 215.42 834.04 219.12 832.7 211.29 838.38 205.75 830.53 204.61 827.02 197.5"/>
  <polygon class="cls-1" points="134.93 158 131.42 165.11 123.56 166.26 129.25 171.79 127.91 179.62 134.93 175.92 141.96 179.62 140.61 171.79 146.3 166.26 138.44 165.11 134.93 158"/>
  <polygon class="cls-1" points="53.51 158 50 165.11 42.14 166.26 47.83 171.79 46.48 179.62 53.51 175.92 60.53 179.62 59.19 171.79 64.87 166.26 57.02 165.11 53.51 158"/>
  <polygon class="cls-1" points="297.77 158 294.26 165.11 286.41 166.26 292.09 171.79 290.75 179.62 297.77 175.92 304.8 179.62 303.46 171.79 309.14 166.26 301.29 165.11 297.77 158"/>
  <polygon class="cls-1" points="216.35 158 212.84 165.11 204.99 166.26 210.67 171.79 209.33 179.62 216.35 175.92 223.38 179.62 222.04 171.79 227.72 166.26 219.87 165.11 216.35 158"/>
  <polygon class="cls-1" points="460.62 158 457.11 165.11 449.25 166.26 454.94 171.79 453.59 179.62 460.62 175.92 467.64 179.62 466.3 171.79 471.99 166.26 464.13 165.11 460.62 158"/>
  <polygon class="cls-1" points="379.2 158 375.68 165.11 367.83 166.26 373.51 171.79 372.17 179.62 379.2 175.92 386.22 179.62 384.88 171.79 390.56 166.26 382.71 165.11 379.2 158"/>
  <polygon class="cls-1" points="623.46 158 619.95 165.11 612.1 166.26 617.78 171.79 616.44 179.62 623.46 175.92 630.49 179.62 629.15 171.79 634.83 166.26 626.98 165.11 623.46 158"/>
  <polygon class="cls-1" points="542.04 158 538.53 165.11 530.68 166.26 536.36 171.79 535.02 179.62 542.04 175.92 549.07 179.62 547.72 171.79 553.41 166.26 545.55 165.11 542.04 158"/>
  <polygon class="cls-1" points="786.31 158 782.8 165.11 774.94 166.26 780.62 171.79 779.28 179.62 786.31 175.92 793.33 179.62 791.99 171.79 797.67 166.26 789.82 165.11 786.31 158"/>
  <polygon class="cls-1" points="704.89 158 701.37 165.11 693.52 166.26 699.2 171.79 697.86 179.62 704.89 175.92 711.91 179.62 710.57 171.79 716.25 166.26 708.4 165.11 704.89 158"/>
  <polygon class="cls-1" points="867.73 158 864.22 165.11 856.36 166.26 862.05 171.79 860.7 179.62 867.73 175.92 874.75 179.62 873.41 171.79 879.1 166.26 871.24 165.11 867.73 158"/>
  <polygon class="cls-1" points="94.22 118.5 90.71 125.61 82.85 126.76 88.54 132.3 87.2 140.12 94.22 136.42 101.24 140.12 99.9 132.3 105.59 126.76 97.73 125.61 94.22 118.5"/>
  <polygon class="cls-1" points="12.8 118.5 9.29 125.61 1.43 126.76 7.11 132.3 5.77 140.12 12.8 136.42 19.82 140.12 18.48 132.3 24.16 126.76 16.31 125.61 12.8 118.5"/>
  <polygon class="cls-1" points="257.06 118.5 253.55 125.61 245.7 126.76 251.38 132.3 250.04 140.12 257.06 136.42 264.09 140.12 262.75 132.3 268.43 126.76 260.58 125.61 257.06 118.5"/>
  <polygon class="cls-1" points="175.64 118.5 172.13 125.61 164.28 126.76 169.96 132.3 168.62 140.12 175.64 136.42 182.67 140.12 181.32 132.3 187.01 126.76 179.15 125.61 175.64 118.5"/>
  <polygon class="cls-1" points="419.91 118.5 416.4 125.61 408.54 126.76 414.23 132.3 412.88 140.12 419.91 136.42 426.93 140.12 425.59 132.3 431.27 126.76 423.42 125.61 419.91 118.5"/>
  <polygon class="cls-1" points="338.49 118.5 334.97 125.61 327.12 126.76 332.8 132.3 331.46 140.12 338.49 136.42 345.51 140.12 344.17 132.3 349.85 126.76 342 125.61 338.49 118.5"/>
  <polygon class="cls-1" points="582.75 118.5 579.24 125.61 571.39 126.76 577.07 132.3 575.73 140.12 582.75 136.42 589.78 140.12 588.44 132.3 594.12 126.76 586.26 125.61 582.75 118.5"/>
  <polygon class="cls-1" points="501.33 118.5 497.82 125.61 489.96 126.76 495.65 132.3 494.31 140.12 501.33 136.42 508.35 140.12 507.01 132.3 512.7 126.76 504.84 125.61 501.33 118.5"/>
  <polygon class="cls-1" points="745.6 118.5 742.08 125.61 734.23 126.76 739.91 132.3 738.57 140.12 745.6 136.42 752.62 140.12 751.28 132.3 756.96 126.76 749.11 125.61 745.6 118.5"/>
  <polygon class="cls-1" points="664.17 118.5 660.66 125.61 652.81 126.76 658.49 132.3 657.15 140.12 664.17 136.42 671.2 140.12 669.86 132.3 675.54 126.76 667.69 125.61 664.17 118.5"/>
  <polygon class="cls-1" points="908.44 118.5 904.93 125.61 897.07 126.76 902.76 132.3 901.42 140.12 908.44 136.42 915.47 140.12 914.12 132.3 919.81 126.76 911.95 125.61 908.44 118.5"/>
  <polygon class="cls-1" points="827.02 118.5 823.51 125.61 815.65 126.76 821.34 132.3 819.99 140.12 827.02 136.42 834.04 140.12 832.7 132.3 838.38 126.76 830.53 125.61 827.02 118.5"/>
  <polygon class="cls-1" points="134.93 79 131.42 86.12 123.56 87.26 129.25 92.8 127.91 100.62 134.93 96.93 141.96 100.62 140.61 92.8 146.3 87.26 138.44 86.12 134.93 79"/>
  <polygon class="cls-1" points="53.51 79 50 86.12 42.14 87.26 47.83 92.8 46.48 100.62 53.51 96.93 60.53 100.62 59.19 92.8 64.87 87.26 57.02 86.12 53.51 79"/>
  <polygon class="cls-1" points="297.77 79 294.26 86.12 286.41 87.26 292.09 92.8 290.75 100.62 297.77 96.93 304.8 100.62 303.46 92.8 309.14 87.26 301.29 86.12 297.77 79"/>
  <polygon class="cls-1" points="216.35 79 212.84 86.12 204.99 87.26 210.67 92.8 209.33 100.62 216.35 96.93 223.38 100.62 222.04 92.8 227.72 87.26 219.87 86.12 216.35 79"/>
  <polygon class="cls-1" points="460.62 79 457.11 86.12 449.25 87.26 454.94 92.8 453.59 100.62 460.62 96.93 467.64 100.62 466.3 92.8 471.99 87.26 464.13 86.12 460.62 79"/>
  <polygon class="cls-1" points="379.2 79 375.68 86.12 367.83 87.26 373.51 92.8 372.17 100.62 379.2 96.93 386.22 100.62 384.88 92.8 390.56 87.26 382.71 86.12 379.2 79"/>
  <polygon class="cls-1" points="623.46 79 619.95 86.12 612.1 87.26 617.78 92.8 616.44 100.62 623.46 96.93 630.49 100.62 629.15 92.8 634.83 87.26 626.98 86.12 623.46 79"/>
  <polygon class="cls-1" points="542.04 79 538.53 86.12 530.68 87.26 536.36 92.8 535.02 100.62 542.04 96.93 549.07 100.62 547.72 92.8 553.41 87.26 545.55 86.12 542.04 79"/>
  <polygon class="cls-1" points="786.31 79 782.8 86.12 774.94 87.26 780.62 92.8 779.28 100.62 786.31 96.93 793.33 100.62 791.99 92.8 797.67 87.26 789.82 86.12 786.31 79"/>
  <polygon class="cls-1" points="704.89 79 701.37 86.12 693.52 87.26 699.2 92.8 697.86 100.62 704.89 96.93 711.91 100.62 710.57 92.8 716.25 87.26 708.4 86.12 704.89 79"/>
  <polygon class="cls-1" points="867.73 79 864.22 86.12 856.36 87.26 862.05 92.8 860.7 100.62 867.73 96.93 874.75 100.62 873.41 92.8 879.1 87.26 871.24 86.12 867.73 79"/>
  <polygon class="cls-1" points="94.22 39.5 90.71 46.62 82.85 47.76 88.54 53.3 87.2 61.12 94.22 57.43 101.24 61.12 99.9 53.3 105.59 47.76 97.73 46.62 94.22 39.5"/>
  <polygon class="cls-1" points="12.8 39.5 9.29 46.62 1.43 47.76 7.11 53.3 5.77 61.12 12.8 57.43 19.82 61.12 18.48 53.3 24.16 47.76 16.31 46.62 12.8 39.5"/>
  <polygon class="cls-1" points="257.06 39.5 253.55 46.62 245.7 47.76 251.38 53.3 250.04 61.12 257.06 57.43 264.09 61.12 262.75 53.3 268.43 47.76 260.58 46.62 257.06 39.5"/>
  <polygon class="cls-1" points="175.64 39.5 172.13 46.62 164.28 47.76 169.96 53.3 168.62 61.12 175.64 57.43 182.67 61.12 181.32 53.3 187.01 47.76 179.15 46.62 175.64 39.5"/>
  <polygon class="cls-1" points="419.91 39.5 416.4 46.62 408.54 47.76 414.23 53.3 412.88 61.12 419.91 57.43 426.93 61.12 425.59 53.3 431.27 47.76 423.42 46.62 419.91 39.5"/>
  <polygon class="cls-1" points="338.49 39.5 334.97 46.62 327.12 47.76 332.8 53.3 331.46 61.12 338.49 57.43 345.51 61.12 344.17 53.3 349.85 47.76 342 46.62 338.49 39.5"/>
  <polygon class="cls-1" points="582.75 39.5 579.24 46.62 571.39 47.76 577.07 53.3 575.73 61.12 582.75 57.43 589.78 61.12 588.44 53.3 594.12 47.76 586.26 46.62 582.75 39.5"/>
  <polygon class="cls-1" points="501.33 39.5 497.82 46.62 489.96 47.76 495.65 53.3 494.31 61.12 501.33 57.43 508.35 61.12 507.01 53.3 512.7 47.76 504.84 46.62 501.33 39.5"/>
  <polygon class="cls-1" points="745.6 39.5 742.08 46.62 734.23 47.76 739.91 53.3 738.57 61.12 745.6 57.43 752.62 61.12 751.28 53.3 756.96 47.76 749.11 46.62 745.6 39.5"/>
  <polygon class="cls-1" points="664.17 39.5 660.66 46.62 652.81 47.76 658.49 53.3 657.15 61.12 664.17 57.43 671.2 61.12 669.86 53.3 675.54 47.76 667.69 46.62 664.17 39.5"/>
  <polygon class="cls-1" points="901.42 61.12 908.44 57.43 915.47 61.12 914.12 53.3 919.81 47.76 911.95 46.62 908.44 39.5 904.93 46.62 897.07 47.76 902.76 53.3 901.42 61.12"/>
  <polygon class="cls-1" points="827.02 39.5 823.51 46.62 815.65 47.76 821.34 53.3 819.99 61.12 827.02 57.43 834.04 61.12 832.7 53.3 838.38 47.76 830.53 46.62 827.02 39.5"/>
  <polygon class="cls-1" points="134.93 0 131.42 7.12 123.56 8.26 129.25 13.8 127.91 21.62 134.93 17.93 141.96 21.62 140.61 13.8 146.3 8.26 138.44 7.12 134.93 0"/>
  <polygon class="cls-1" points="53.51 0 50 7.12 42.14 8.26 47.83 13.8 46.48 21.62 53.51 17.93 60.53 21.62 59.19 13.8 64.87 8.26 57.02 7.12 53.51 0"/>
  <polygon class="cls-1" points="297.77 0 294.26 7.12 286.41 8.26 292.09 13.8 290.75 21.62 297.77 17.93 304.8 21.62 303.46 13.8 309.14 8.26 301.29 7.12 297.77 0"/>
  <polygon class="cls-1" points="216.35 0 212.84 7.12 204.99 8.26 210.67 13.8 209.33 21.62 216.35 17.93 223.38 21.62 222.04 13.8 227.72 8.26 219.87 7.12 216.35 0"/>
  <polygon class="cls-1" points="460.62 0 457.11 7.12 449.25 8.26 454.94 13.8 453.59 21.62 460.62 17.93 467.64 21.62 466.3 13.8 471.99 8.26 464.13 7.12 460.62 0"/>
  <polygon class="cls-1" points="379.2 0 375.68 7.12 367.83 8.26 373.51 13.8 372.17 21.62 379.2 17.93 386.22 21.62 384.88 13.8 390.56 8.26 382.71 7.12 379.2 0"/>
  <polygon class="cls-1" points="623.46 0 619.95 7.12 612.1 8.26 617.78 13.8 616.44 21.62 623.46 17.93 630.49 21.62 629.15 13.8 634.83 8.26 626.98 7.12 623.46 0"/>
  <polygon class="cls-1" points="542.04 0 538.53 7.12 530.68 8.26 536.36 13.8 535.02 21.62 542.04 17.93 549.07 21.62 547.72 13.8 553.41 8.26 545.55 7.12 542.04 0"/>
  <polygon class="cls-1" points="786.31 0 782.8 7.12 774.94 8.26 780.62 13.8 779.28 21.62 786.31 17.93 793.33 21.62 791.99 13.8 797.67 8.26 789.82 7.12 786.31 0"/>
  <polygon class="cls-1" points="704.89 0 701.37 7.12 693.52 8.26 699.2 13.8 697.86 21.62 704.89 17.93 711.91 21.62 710.57 13.8 716.25 8.26 708.4 7.12 704.89 0"/>
  <polygon class="cls-1" points="867.73 0 864.22 7.12 856.36 8.26 862.05 13.8 860.7 21.62 867.73 17.93 874.75 21.62 873.41 13.8 879.1 8.26 871.24 7.12 867.73 0"/>
</svg>