<svg xmlns="http://www.w3.org/2000/svg" width="170" height="150" viewBox="0 0 170 150">
  <g id="features_normal_4-sp" transform="translate(-9847 -1421)">
    <g id="グループ_1013" data-name="グループ 1013" transform="translate(9851.591 1233.019)">
      <rect id="長方形_164" data-name="長方形 164" width="170" height="150" rx="10" transform="translate(-4.591 187.981)" fill="#5a534a"/>
      <path id="長方形_164_-_アウトライン" data-name="長方形 164 - アウトライン" d="M10,2a8.009,8.009,0,0,0-8,8V140a8.009,8.009,0,0,0,8,8H160a8.009,8.009,0,0,0,8-8V10a8.009,8.009,0,0,0-8-8H10m0-2H160a10,10,0,0,1,10,10V140a10,10,0,0,1-10,10H10A10,10,0,0,1,0,140V10A10,10,0,0,1,10,0Z" transform="translate(-4.591 187.981)" fill="#fff"/>
      <path id="パス_5918" data-name="パス 5918" d="M-40.8-4.47h1.41a8.693,8.693,0,0,1,1.35.09V-6a9.52,9.52,0,0,1-1.485.09H-47.52v-.8h6.36a8.948,8.948,0,0,1,1.38.075V-8.01a9.982,9.982,0,0,1-1.38.075h-6.36V-8.67h6.36a12.982,12.982,0,0,1,1.38.075V-9.96a10.306,10.306,0,0,1-1.38.075h-6.36v-.75h6.585a12.308,12.308,0,0,1,1.725.075v-1.59a10.16,10.16,0,0,1-1.74.09h-6.72a12.043,12.043,0,0,1-1.635-.075,11.676,11.676,0,0,1,.06,1.485v4.74h-.78A9.686,9.686,0,0,1-51.585-6v1.62a9.434,9.434,0,0,1,1.53-.09h.81V-.735a14.932,14.932,0,0,1-2.13.27l.315,1.68c.27-.075.315-.075.675-.15A43.437,43.437,0,0,0-44.52-.375l-.015-1.5a26.12,26.12,0,0,1-3.015.81V-4.47h1.305a7.975,7.975,0,0,0,2.3,2.97,12.984,12.984,0,0,0,5.4,2.61,7.332,7.332,0,0,1,.8-1.725,13.236,13.236,0,0,1-3.93-1.335,9.96,9.96,0,0,0,1.44-1.035c.555-.495.735-.66.855-.75Zm-.165,0a10.9,10.9,0,0,1-2.01,1.74A4.713,4.713,0,0,1-44.55-4.47ZM-28.14-9.54v1.425h-1.545A11.538,11.538,0,0,1-31.35-8.2v1.59c.465-.045,1.02-.075,1.65-.075h3.555v1.275H-29.7a11.131,11.131,0,0,1-1.635-.075v1.635a13.434,13.434,0,0,1,1.6-.09h3.585v3.2c0,.33-.09.405-.555.405a13.363,13.363,0,0,1-1.68-.12,3.867,3.867,0,0,1,.36,1.575c1.035.015,1.035.015,1.17.015A4.2,4.2,0,0,0-25.2.885c.45-.21.6-.57.6-1.44v-3.39h.195a8.156,8.156,0,0,1,1.485.09V-5.49a9.149,9.149,0,0,1-1.485.075H-24.6V-6.69h.255a9.756,9.756,0,0,1,1.47.075V-8.2a11.071,11.071,0,0,1-1.635.09h-2.07V-9.54h1.65a10.882,10.882,0,0,1,1.545.075v-1.59a11.059,11.059,0,0,1-1.56.09H-26.58v-.4a7.974,7.974,0,0,1,.075-1.125H-28.23a6.7,6.7,0,0,1,.09,1.125v.4h-1.32a10.912,10.912,0,0,1-1.56-.09v1.59a12.7,12.7,0,0,1,1.6-.075Zm-7.935,8.025A13.665,13.665,0,0,1-36.165.27h1.575V-.99h1.365v.75h1.53c-.03-.375-.045-.7-.045-1.5v-8.58a11.254,11.254,0,0,1,.045-1.485c-.36.03-.63.045-1.3.045h-1.815a13,13,0,0,1-1.32-.045,14.062,14.062,0,0,1,.06,1.515Zm1.5-8.82h1.35V-7.2h-1.35Zm0,4.515h1.35v3.375h-1.35Zm7.065,4.35a11.511,11.511,0,0,0-1.965-2.295l-1.275.84a11.458,11.458,0,0,1,1.92,2.46Zm15.72-3.42c0-.585.015-.96.045-1.35a12.063,12.063,0,0,1-1.4.06h-3.345a12.23,12.23,0,0,1-1.4-.06c.03.405.045.825.045,1.35v3.66A10.341,10.341,0,0,1-17.94.27h1.59V-.57h3.18c.12,0,.405,0,.84.015A5.7,5.7,0,0,1-11.94.99c.765.045.825.045,1.035.045A4.569,4.569,0,0,0-9.21.855C-8.67.63-8.49.24-8.49-.66v-9.825c0-.75.015-1.125.06-1.665a13.456,13.456,0,0,1-1.545.06h-2.88a12.835,12.835,0,0,1-1.53-.06c.03.465.045.885.045,1.395v2.3c0,.645-.015.93-.045,1.365.375-.03.855-.045,1.38-.045h2.955V-.87c0,.3-.135.405-.555.405-.27,0-.81-.045-1.14-.075-.03-.39-.045-.735-.045-1.305Zm-1.065-5.985h2.805v.75h-2.805Zm0,1.815h2.805V-8.3h-2.805Zm-3.5,4.14h3.06v.9h-3.06Zm0,2.115h3.06v.975h-3.06ZM-19.485-7.14h2.715c.525,0,.99.015,1.38.045-.03-.33-.045-.675-.045-1.365v-2.3c0-.585.015-.915.045-1.395a12.674,12.674,0,0,1-1.53.06h-2.655a13.624,13.624,0,0,1-1.545-.06,16.63,16.63,0,0,1,.06,1.68v9.8a13.41,13.41,0,0,1-.09,1.86H-19.4a13.011,13.011,0,0,1-.09-1.845Zm0-3.735h2.58v.75h-2.58Zm0,1.815h2.58V-8.3h-2.58Zm20.88-.555a3.278,3.278,0,0,1,1.515.45,3.716,3.716,0,0,1,1.845,3.33A4.2,4.2,0,0,1,2.67-2.085,7.972,7.972,0,0,1-.315-1.26,4.785,4.785,0,0,1,.6.5a9.807,9.807,0,0,0,2.355-.63A5.779,5.779,0,0,0,6.6-5.73C6.6-9.1,4.26-11.3.66-11.3a6.733,6.733,0,0,0-5.16,2.1A6.443,6.443,0,0,0-6.15-4.83c0,2.415,1.23,4.155,2.94,4.155,1.23,0,2.19-.885,3.045-2.82A21.7,21.7,0,0,0,1.395-9.615ZM-.435-9.6A19.769,19.769,0,0,1-1.68-4.53c-.54,1.29-1.05,1.92-1.545,1.92-.66,0-1.185-.975-1.185-2.205a5.022,5.022,0,0,1,2.04-4.05A3.818,3.818,0,0,1-.435-9.6ZM16.35-5.4l.045,4.485v.27A9.55,9.55,0,0,1,16.3.8h2.04C18.3.375,18.27-.2,18.255-.93L18.18-7.89h1.545a15.424,15.424,0,0,1,1.725.06V-9.645a8.529,8.529,0,0,1-1.77.105H18.165l-.03-1.215v-.09a9.623,9.623,0,0,1,.06-1.275h-1.98a10.814,10.814,0,0,1,.075,1.38l.015,1.2h-5.19a8.717,8.717,0,0,1-1.89-.105v1.83A15.626,15.626,0,0,1,11.07-7.89h4.11a14.27,14.27,0,0,1-2.01,2.475A15.964,15.964,0,0,1,8.445-2.16,4.346,4.346,0,0,1,9.69-.6a21.728,21.728,0,0,0,2.22-1.38,20.651,20.651,0,0,0,2.955-2.61,9.087,9.087,0,0,0,1.53-2.1c-.015.24-.045,1.005-.045,1.08Zm7.44.69a16.467,16.467,0,0,1,2.445-.075H34.2a16.467,16.467,0,0,1,2.445.075V-6.8a14.731,14.731,0,0,1-2.43.105H26.22A14.731,14.731,0,0,1,23.79-6.8Zm16.98-7.02a7.539,7.539,0,0,1,.06,1.365c0,4.2-.345,6.135-1.425,7.86A6.163,6.163,0,0,1,37.86-.78,5.339,5.339,0,0,1,39.375.675,9.552,9.552,0,0,0,41.445-2.1,14.045,14.045,0,0,0,42.66-8.265a31.346,31.346,0,0,1,.15-3.36Zm3.975-.1a6.492,6.492,0,0,1,.06.99v.45l-.075,8.46A6.722,6.722,0,0,1,44.6-.345l.96,1.02A6.527,6.527,0,0,1,46.2.405a9.907,9.907,0,0,0,3.2-1.8A9.309,9.309,0,0,0,51.78-4.89,6.287,6.287,0,0,1,50.37-6.3,7.33,7.33,0,0,1,48.9-3.555a6.031,6.031,0,0,1-2.295,1.71l.075-8.535a8.128,8.128,0,0,1,.105-1.425ZM-56.04,8.82a12,12,0,0,1-2.79,2.8,21.906,21.906,0,0,1-7.875,3.9,5.642,5.642,0,0,1,1.005,1.71,24.3,24.3,0,0,0,5.355-2.43v5.28a8.437,8.437,0,0,1-.09,1.62h2.1a11.347,11.347,0,0,1-.075-1.665V13.635a26.525,26.525,0,0,0,3.54-3.09,6.178,6.178,0,0,1,.555-.525Zm5.37,2.55a15.749,15.749,0,0,1,3.825,3.045l1.29-1.635a21.244,21.244,0,0,0-3.87-2.9Zm.525,9.9a5.31,5.31,0,0,1,.99-.255,16.2,16.2,0,0,0,5.715-2.25,13.165,13.165,0,0,0,4.755-5.88,6.468,6.468,0,0,1-1.59-1.47,12.525,12.525,0,0,1-1.53,3A10.022,10.022,0,0,1-46.26,18.09,14.293,14.293,0,0,1-50.7,19.2Zm24.93-10.17.645-.24A9.532,9.532,0,0,0-25.9,8.49l-1.11.375A9.3,9.3,0,0,1-25.92,10.74a7.251,7.251,0,0,1-.78.03l-3.285.045c-.3,0-.54.015-.72.03l.12-.225c.03-.06.03-.075.1-.21.15-.3.285-.6.4-.87a1.791,1.791,0,0,1,.255-.45l-2.055-.42a5.756,5.756,0,0,1-.765,1.995,11.818,11.818,0,0,1-3.885,4.35,3.985,3.985,0,0,1,1.455,1.29,14.905,14.905,0,0,0,3.51-3.855l4.515-.06a12.07,12.07,0,0,1-7.665,8.085,4.963,4.963,0,0,1,1.275,1.575,15.141,15.141,0,0,0,5.34-3.795,14.791,14.791,0,0,0,3.015-5.67,3.025,3.025,0,0,1,.375-.9Zm2.6-.915A8.753,8.753,0,0,0-23.94,7.9l-1.08.375A10.744,10.744,0,0,1-23.73,10.6Zm3.18-1.02a9.47,9.47,0,0,1,.06,1.35V14.64a10.817,10.817,0,0,1-.075,1.35H-17.4a7.241,7.241,0,0,1-.06-1.32V10.53a7.624,7.624,0,0,1,.06-1.35Zm6.765.03A7.9,7.9,0,0,1-12.6,10.62V12.5c0,1.2-.015,1.86-.075,2.5-.165,1.98-.66,2.9-2.07,3.825a8.091,8.091,0,0,1-3.24,1.2,5.124,5.124,0,0,1,1.05,1.785,12.688,12.688,0,0,0,2.925-1.155,5.745,5.745,0,0,0,2.955-3.5,17.717,17.717,0,0,0,.39-4.545V10.59a7.115,7.115,0,0,1,.075-1.4ZM-5.1,12.84a15.007,15.007,0,0,1,1.365,3.63l1.7-.54a17.3,17.3,0,0,0-1.47-3.555Zm3.21-.63A16.494,16.494,0,0,1-.525,15.735L1.14,15.21A14.736,14.736,0,0,0-.315,11.76Zm5.16-.15A6.654,6.654,0,0,1,3,13.785a8.625,8.625,0,0,1-3.405,5.2,9.73,9.73,0,0,1-2.55,1.38,5.448,5.448,0,0,1,1.2,1.485A11.514,11.514,0,0,0,2.82,18.24a12.8,12.8,0,0,0,2.07-4.995,3.157,3.157,0,0,1,.21-.765Zm7.1-1.455a17.611,17.611,0,0,1,4.005,2.07l.96-1.65A24.054,24.054,0,0,0,11.34,9.09ZM9.18,14.25a17.544,17.544,0,0,1,4.065,2.2l.93-1.695a21.205,21.205,0,0,0-3.99-2.04Zm.855,7.23a9.688,9.688,0,0,1,1.05-.24c3.69-.735,6.24-2.07,8.145-4.26a13.094,13.094,0,0,0,2.25-3.8,7.745,7.745,0,0,1-1.56-1.335,11.1,11.1,0,0,1-1.74,3.315,9.169,9.169,0,0,1-4.335,3.3,13.729,13.729,0,0,1-4.335.975Zm22.275-1.8c.255-1.35.42-2.415.645-4.065a5.4,5.4,0,0,1,.345-1.71l-.825-.72a3.346,3.346,0,0,1-1.11.135h-3.8a8.575,8.575,0,0,1-1.38-.09v1.7a9.634,9.634,0,0,1,1.335-.06h3.72c-.15,1.365-.465,3.48-.72,4.815H26.1a6.774,6.774,0,0,1-1.38-.09V21.3a11.147,11.147,0,0,1,1.38-.06h7.785a11.461,11.461,0,0,1,1.38.06V19.59a6.688,6.688,0,0,1-1.38.09Zm18.2-1.815a2.435,2.435,0,0,1,.51.03,7.124,7.124,0,0,1-.045-.9V15.72a8.115,8.115,0,0,1,.045-.945c-.33.03-.75.045-1.35.045H44.22c-.51,0-.9-.015-1.26-.045a7.835,7.835,0,0,1,.045.93V16.95a4.809,4.809,0,0,1-.06.945,11.658,11.658,0,0,1,1.2-.045h1.2a9.4,9.4,0,0,1-4.32,2.715,4.536,4.536,0,0,1,.99,1.365,10.337,10.337,0,0,0,3.84-2.745c-.03.3-.045.78-.045,1.05v.81a7.307,7.307,0,0,1-.075,1.29H47.46a6.891,6.891,0,0,1-.075-1.215V20.3a10.127,10.127,0,0,0-.06-1.125,6.5,6.5,0,0,0,1.515,1.485,10.053,10.053,0,0,0,2.58,1.38,9.91,9.91,0,0,1,.81-1.5,8.55,8.55,0,0,1-2.265-.915,12.915,12.915,0,0,0,1.11-.87c.255-.21.3-.255.42-.36Zm-.66-.015h.165a6.2,6.2,0,0,1-1.185,1,4.5,4.5,0,0,1-1.05-1Zm-5.31-1.92H49.41v.735H44.535ZM39.57,10.545V13.5h-.135a5.194,5.194,0,0,1-1.05-.075v1.53a6.783,6.783,0,0,1,1.02-.06h.165v3.36a8.477,8.477,0,0,1-1.665.435l.39,1.725c.18-.09.54-.24.78-.33a35.515,35.515,0,0,0,3.51-1.47V17.07c-.78.345-1.035.45-1.455.615V14.9a8.742,8.742,0,0,1,.885.045v-1.5a5.239,5.239,0,0,1-.885.06V10.545h.165a4.922,4.922,0,0,1,.945.075V9.015a8.026,8.026,0,0,1-1.32.09H39.45a7.886,7.886,0,0,1-1.29-.09V10.62a5.612,5.612,0,0,1,1.08-.075Zm3.075.675a8.056,8.056,0,0,1-.045,1.05c.435-.03.63-.03,1.185-.03h6.48c.555,0,.81.015,1.155.03-.03-.315-.045-.7-.045-1.035V9.8a8.943,8.943,0,0,1,.06-1.065c-.36.03-.84.06-1.2.06h-6.45a9.256,9.256,0,0,1-1.2-.06,6.412,6.412,0,0,1,.06,1.08Zm2.505-.075h-1.1V10.02h1.1Zm2.415,0h-1.11V10.02h1.11Zm2.43,0h-1.14V10.02h1.14Zm-7.65,3.105a9.838,9.838,0,0,1,1.425-.075h6.66a10.223,10.223,0,0,1,1.425.075V12.735a10.059,10.059,0,0,1-1.44.075h-6.63a7.913,7.913,0,0,1-1.44-.09Zm17.19,4.41c-.195,1.425-1.14,2.01-3.66,2.325a4.737,4.737,0,0,1,.855,1.425,6.04,6.04,0,0,0,3.345-1.545,3.615,3.615,0,0,0,.96-2.2h1.05v2.28c0,.57.105.8.5.96a4.49,4.49,0,0,0,1.8.225c2.22,0,2.52-.27,2.67-2.55a5.606,5.606,0,0,1-1.485-.525,4.288,4.288,0,0,1-.12,1.47c-.09.15-.3.195-.93.195-.825,0-.9-.03-.9-.345V18.66h1.17c.615,0,.885.015,1.26.045a8.724,8.724,0,0,1-.06-1.185V14.91a8.585,8.585,0,0,1,.06-1.185c-.39.03-.72.045-1.41.045H59.4c-.705,0-1.035-.015-1.425-.045a8.178,8.178,0,0,1,.06,1.185v2.7A9.428,9.428,0,0,1,57.99,18.7c.6-.03.825-.045,1.29-.045Zm.03-3.675H64.41v.6H59.565Zm0,1.74H64.41v.66H59.565Zm-4.95-4.485H54.3a7.576,7.576,0,0,1-1.2-.075V13.77a9.647,9.647,0,0,1,1.185-.075h.33V18a8.843,8.843,0,0,1-1.7.51l.33,1.74c.21-.1.435-.195.69-.3,1.65-.675,2.6-1.065,3.615-1.56l-.06-1.6c-.735.345-.945.435-1.32.6v-3.69a6.618,6.618,0,0,1,1.035.06v-1.56a9.316,9.316,0,0,1-1.035.045V10.245a10,10,0,0,1,.09-1.68h-1.74a12.126,12.126,0,0,1,.09,1.665Zm8.16-2.64V9.255a4.058,4.058,0,0,1,.075-.885H61.1a5.315,5.315,0,0,1,.075.9V9.6h-1.8a12.378,12.378,0,0,1-1.6-.075V10.92a9.415,9.415,0,0,1,1.305-.06,7.378,7.378,0,0,1,.4,1.035H58.86a11.613,11.613,0,0,1-1.335-.06V13.29a11.312,11.312,0,0,1,1.38-.045h6.36a11.751,11.751,0,0,1,1.575.075v-1.5a9.693,9.693,0,0,1-1.515.075h-.87a9.982,9.982,0,0,0,.48-1.035,14.012,14.012,0,0,1,1.53.06V9.525a15.679,15.679,0,0,1-1.62.075ZM61.05,11.9q-.18-.518-.4-1.035h2.67a9,9,0,0,1-.45,1.035Z" transform="translate(80.409 299.979)" fill="#fff"/>
      <g id="features-05" transform="translate(49.409 203.979)">
        <path id="楕円形_531" data-name="楕円形 531" d="M10.495-1A11.495,11.495,0,0,1,21.99,10.495,11.495,11.495,0,0,1,10.495,21.99,11.495,11.495,0,0,1-1,10.495,11.495,11.495,0,0,1,10.495-1Zm0,20.99A9.495,9.495,0,1,0,1,10.495,9.506,9.506,0,0,0,10.495,19.99Z" transform="matrix(0.177, -0.984, 0.984, 0.177, 7.076, 28.845)" fill="#fff"/>
        <path id="線_17" data-name="線 17" d="M0,2.553A1,1,0,0,1-1,1.643,1,1,0,0,1-.091.557L16.987-1a1,1,0,0,1,1.086.905A1,1,0,0,1,17.168,1L.091,2.549Q.044,2.553,0,2.553Z" transform="translate(41.792 11.8)" fill="#ef8200"/>
        <path id="線_18" data-name="線 18" d="M0,12.546a1,1,0,0,1-.329-.056,1,1,0,0,1-.616-1.273L3.072-.329A1,1,0,0,1,4.345-.944,1,1,0,0,1,4.961.329L.944,11.874A1,1,0,0,1,0,12.546Z" transform="translate(57.776 17.078)" fill="#ef8200"/>
        <path id="パス_23" data-name="パス 23" d="M60.49,208.646a1,1,0,0,1-1-1v-9.334a11.788,11.788,0,0,1,4.1-8.938l.511-.441a21.965,21.965,0,0,1,11.473-5.15l12.5-1.665a20.543,20.543,0,0,0,4.246-1.033l20.122-7.22a6.838,6.838,0,0,1,8.2,2.95,5.665,5.665,0,0,1-2.252,7.91L98.6,195.044a6.752,6.752,0,0,0-3.611,6.345l.344,6.2a1,1,0,0,1-1,1.055H60.561Zm1-2H93.279l-.286-5.143a8.756,8.756,0,0,1,4.682-8.229l19.779-10.32a3.665,3.665,0,0,0,1.457-5.117,4.866,4.866,0,0,0-4.166-2.372,4.816,4.816,0,0,0-1.633.285l-20.121,7.22a22.541,22.541,0,0,1-4.659,1.133l-12.5,1.665A19.969,19.969,0,0,0,65.4,190.447l-.511.441a9.79,9.79,0,0,0-3.4,7.424Z" transform="translate(-60.49 -146.165)" fill="#fff"/>
        <path id="パス_24" data-name="パス 24" d="M225.921,84.405a1,1,0,0,1-.971-1.243l5.589-22.3a1,1,0,0,1,1.907-.106l7.764,20.8a1,1,0,0,1-1.874.7L231.7,64.473,226.89,83.648A1,1,0,0,1,225.921,84.405Z" transform="translate(-184.622 -61.11)" fill="#ef8200"/>
      </g>
    </g>
  </g>
</svg>
