<svg xmlns="http://www.w3.org/2000/svg" width="376" height="107" viewBox="0 0 376 107">
  <g id="グループ_936" data-name="グループ 936" transform="translate(-150 -1773)">
    <g id="長方形_168" data-name="長方形 168" transform="translate(150 1773)" fill="#5a534a" stroke="#fff" stroke-width="3">
      <rect width="376" height="107" rx="10" stroke="none"/>
      <rect x="1.5" y="1.5" width="373" height="104" rx="8.5" fill="none"/>
    </g>
    <text id="ネイティブ_バイリンガル体制" data-name="ネイティブ
＋バイリンガル体制" transform="translate(412 1821)" fill="#fff" font-size="17" font-family="HiraginoSans-W6, Hiragino Sans"><tspan x="-42.5" y="0">ネイティブ</tspan><tspan y="0" font-family="NotoSans-Bold, Noto Sans" font-weight="700"></tspan><tspan x="-75.99" y="27">＋バイリンガル体制</tspan></text>
    <g id="features-06" transform="translate(192 1798)">
      <ellipse id="楕円形_532" data-name="楕円形 532" cx="9.626" cy="9.626" rx="9.626" ry="9.626" transform="translate(17.413 0)" fill="#ef8200"/>
      <path id="パス_25" data-name="パス 25" d="M99.619,197.864a1.646,1.646,0,0,0,1.645-1.645V191.1c.049-9.928-7.379-19.311-17.368-19.311S66.963,181.17,66.49,191.1v5.118a1.646,1.646,0,0,0,1.645,1.645h31.48Z" transform="translate(-56.857 -147.455)" fill="#ef8200"/>
      <ellipse id="楕円形_533" data-name="楕円形 533" cx="9.626" cy="9.626" rx="9.626" ry="9.626" transform="translate(62.196 0)" fill="none" stroke="#fff" stroke-linecap="round" stroke-linejoin="round" stroke-width="2"/>
      <path id="パス_26" data-name="パス 26" d="M237.869,197.864a1.646,1.646,0,0,0,1.645-1.645V191.1c.049-9.928-7.379-19.311-17.368-19.311s-16.934,9.38-17.407,19.311v5.118a1.646,1.646,0,0,0,1.645,1.645h31.48Z" transform="translate(-150.328 -147.455)" fill="none" stroke="#fff" stroke-linecap="round" stroke-linejoin="round" stroke-width="2"/>
      <line id="線_19" data-name="線 19" x2="95.551" transform="translate(0 56.745)" fill="none" stroke="#fff" stroke-linecap="round" stroke-linejoin="round" stroke-width="2"/>
    </g>
  </g>
</svg>
