<svg xmlns="http://www.w3.org/2000/svg" width="170" height="150" viewBox="0 0 170 150">
  <g id="features_normal_5-sp" transform="translate(-9657 -1601)">
    <g id="グループ_1015" data-name="グループ 1015" transform="translate(9663.565 1337.86)">
      <rect id="長方形_168" data-name="長方形 168" width="170" height="150" rx="10" transform="translate(-6.565 263.14)" fill="#5a534a"/>
      <path id="長方形_168_-_アウトライン" data-name="長方形 168 - アウトライン" d="M10,2a8.009,8.009,0,0,0-8,8V140a8.009,8.009,0,0,0,8,8H160a8.009,8.009,0,0,0,8-8V10a8.009,8.009,0,0,0-8-8H10m0-2H160a10,10,0,0,1,10,10V140a10,10,0,0,1-10,10H10A10,10,0,0,1,0,140V10A10,10,0,0,1,10,0Z" transform="translate(-6.565 263.14)" fill="#fff"/>
      <path id="パス_5920" data-name="パス 5920" d="M-29.145.96A6.723,6.723,0,0,1-29.22-.375v-3.3c0-.135-.015-.555-.03-.735.15.075.18.075.375.165a26.758,26.758,0,0,1,4.575,2.4l.99-1.575a24.478,24.478,0,0,0-5.235-2.355,19.348,19.348,0,0,0,3.06-2.805,3.519,3.519,0,0,1,.66-.645l-.87-1.02a3.165,3.165,0,0,1-1.02.135H-29.25v-1.245a4.847,4.847,0,0,1,.075-1.05h-2.01a6.193,6.193,0,0,1,.075,1.08v1.23h-2.505a7.705,7.705,0,0,1-1.6-.135v1.815a11.066,11.066,0,0,1,1.59-.075c5.4-.03,5.4-.03,5.49-.045h.315a16.086,16.086,0,0,1-4.65,3.18,18.674,18.674,0,0,1-4.17,1.395,6.2,6.2,0,0,1,.885,1.635A23.752,23.752,0,0,0-31.53-4a2.576,2.576,0,0,0,.45-.285V-.375A9.045,9.045,0,0,1-31.17.96ZM-11.04-12.18a12,12,0,0,1-2.79,2.8,21.906,21.906,0,0,1-7.875,3.9,5.642,5.642,0,0,1,1,1.71,24.3,24.3,0,0,0,5.355-2.43v5.28A8.437,8.437,0,0,1-15.435.7h2.1A11.347,11.347,0,0,1-13.41-.96v-6.4a26.525,26.525,0,0,0,3.54-3.09,6.179,6.179,0,0,1,.555-.525ZM4.41-6.12a14.842,14.842,0,0,1,1.9.075V-7.83a10.655,10.655,0,0,1-1.935.105H-4.395A10.558,10.558,0,0,1-6.33-7.83v1.785a14.842,14.842,0,0,1,1.9-.075h3.66a6.37,6.37,0,0,1-.66,2.835A5.577,5.577,0,0,1-4.98-.78,4.759,4.759,0,0,1-3.765.87,7.131,7.131,0,0,0,.15-2.085,8.145,8.145,0,0,0,1.2-6.12ZM-4.815-9.78a14.131,14.131,0,0,1,1.9-.075H2.91a14.131,14.131,0,0,1,1.9.075v-1.83a10.177,10.177,0,0,1-1.935.1H-2.88a10.177,10.177,0,0,1-1.935-.1Zm22.995.09a5.626,5.626,0,0,1-.915,1.08,17.112,17.112,0,0,1-4.26,3.045A16,16,0,0,1,9.45-4.215a6.137,6.137,0,0,1,.93,1.56,21.162,21.162,0,0,0,4.245-1.9V-.54A8.994,8.994,0,0,1,14.55.885L16.485.9A8.86,8.86,0,0,1,16.41-.54v-5.1A20.073,20.073,0,0,0,19.2-8.1a2.925,2.925,0,0,1,.51-.495Zm16.74-.195.6-.24a9.27,9.27,0,0,0-1.335-2.37l-1.095.4a8.589,8.589,0,0,1,.93,1.515,9.307,9.307,0,0,1-1.08.045H26.055a10.278,10.278,0,0,1-1.92-.1v1.95a10.807,10.807,0,0,1,1.89-.09h7.14A10.878,10.878,0,0,1,25.335-.7a5.52,5.52,0,0,1,1.32,1.785A13.343,13.343,0,0,0,35.19-8.655a2.893,2.893,0,0,1,.255-.675Zm2.52-.96a8.35,8.35,0,0,0-1.32-2.28l-1.08.4A10.146,10.146,0,0,1,36.33-10.4ZM-58.65,16.2h4.395V14.4H-58.65V10.125h-1.815V14.4H-64.86v1.8h4.395v4.41h1.815ZM-47.9,9.765v.21a11.006,11.006,0,0,1-.135,1.455,18.242,18.242,0,0,1-1.41,5.145,10.108,10.108,0,0,1-2.145,3.195,6.49,6.49,0,0,1,1.71,1.29c2.01-2.31,3.18-5.265,3.81-9.57l.045-.36.075-.435.03-.255a1.729,1.729,0,0,1,.075-.3Zm4.455.36a6.3,6.3,0,0,1,.21,1.08,19.878,19.878,0,0,0,3.975,9.87,6.174,6.174,0,0,1,1.65-1.38,14.529,14.529,0,0,1-3.345-6.48,18.584,18.584,0,0,1-.63-3.45Zm2.01-.93A9.843,9.843,0,0,1-40.2,11.64l1.14-.36a8.946,8.946,0,0,0-1.245-2.415ZM-37.1,10.68a8.876,8.876,0,0,0-1.23-2.325l-1.11.315a10.3,10.3,0,0,1,1.2,2.37ZM-26.04,8.82a12,12,0,0,1-2.79,2.8,21.906,21.906,0,0,1-7.875,3.9,5.642,5.642,0,0,1,1.005,1.71,24.3,24.3,0,0,0,5.355-2.43v5.28a8.437,8.437,0,0,1-.09,1.62h2.1a11.347,11.347,0,0,1-.075-1.665V13.635a26.525,26.525,0,0,0,3.54-3.09,6.178,6.178,0,0,1,.555-.525Zm6.6.345a9.47,9.47,0,0,1,.06,1.35V14.64a10.817,10.817,0,0,1-.075,1.35H-17.4a7.241,7.241,0,0,1-.06-1.32V10.53a7.624,7.624,0,0,1,.06-1.35Zm6.765.03A7.9,7.9,0,0,1-12.6,10.62V12.5c0,1.2-.015,1.86-.075,2.5-.165,1.98-.66,2.9-2.07,3.825a8.091,8.091,0,0,1-3.24,1.2,5.124,5.124,0,0,1,1.05,1.785,12.688,12.688,0,0,0,2.925-1.155,5.745,5.745,0,0,0,2.955-3.5,17.717,17.717,0,0,0,.39-4.545V10.59a7.115,7.115,0,0,1,.075-1.4ZM-5.67,11.37a15.749,15.749,0,0,1,3.825,3.045l1.29-1.635a21.244,21.244,0,0,0-3.87-2.9Zm.525,9.9a5.31,5.31,0,0,1,.99-.255,16.2,16.2,0,0,0,5.715-2.25,13.165,13.165,0,0,0,4.755-5.88,6.468,6.468,0,0,1-1.59-1.47,12.525,12.525,0,0,1-1.53,3A10.022,10.022,0,0,1-1.26,18.09,14.293,14.293,0,0,1-5.7,19.2ZM19.74,11.49l.765-.3A10.031,10.031,0,0,0,19.17,8.82l-1.095.4a9.77,9.77,0,0,1,1.17,2.07l.075.15.045.12a5.047,5.047,0,0,1-.825.03l-3.33.015c.045-.525.045-.54.06-.945l.045-.81.015-.285c0-.1.015-.18.015-.27a4.188,4.188,0,0,1,.06-.48L13.4,8.775a3.065,3.065,0,0,1,.045.585v.375c0,.435-.03,1.32-.075,1.875l-2.625.015a8.968,8.968,0,0,1-1.665-.105l.015,1.83a10.172,10.172,0,0,1,1.62-.075H13.2A8.215,8.215,0,0,1,8.46,20.13,6.114,6.114,0,0,1,9.81,21.7a10.366,10.366,0,0,0,5.25-8.445h3.5a33.843,33.843,0,0,1-.33,4.8c-.24,1.305-.465,1.635-1.11,1.635a7.3,7.3,0,0,1-1.98-.36,4.58,4.58,0,0,1,.345,1.92,10.138,10.138,0,0,0,1.86.18c1.8,0,2.325-.615,2.715-3.21.15-.99.315-3.315.36-5.01a2.266,2.266,0,0,1,.165-.99Zm2.64-1.08a8.753,8.753,0,0,0-1.32-2.28l-1.065.42a10.744,10.744,0,0,1,1.29,2.325Zm3.165-1.14a7.539,7.539,0,0,1,.06,1.365c0,4.2-.345,6.135-1.425,7.86a6.163,6.163,0,0,1-1.545,1.725,5.339,5.339,0,0,1,1.515,1.455A9.552,9.552,0,0,0,26.22,18.9a14.045,14.045,0,0,0,1.215-6.165,31.347,31.347,0,0,1,.15-3.36Zm3.975-.1a6.492,6.492,0,0,1,.06.99v.45l-.075,8.46a6.722,6.722,0,0,1-.135,1.59l.96,1.02a6.527,6.527,0,0,1,.645-.27,9.907,9.907,0,0,0,3.2-1.8,9.309,9.309,0,0,0,2.385-3.495,6.287,6.287,0,0,1-1.41-1.41,7.33,7.33,0,0,1-1.47,2.745,6.031,6.031,0,0,1-2.3,1.71l.075-8.535a8.129,8.129,0,0,1,.105-1.425Zm11.25,9.3a5.768,5.768,0,0,1,.885,1.23A10.731,10.731,0,0,0,43.23,18.06v1.41a7.432,7.432,0,0,1,1.065-.06h1.05v1.2a11.969,11.969,0,0,1-.1,1.635h1.785a11.522,11.522,0,0,1-.1-1.635v-1.2h1.125a7.477,7.477,0,0,1,1.1.06V18.045a14.738,14.738,0,0,0,1.68,1.74,7.446,7.446,0,0,1,1.035-1.545,11.916,11.916,0,0,1-2.55-2.505A13.078,13.078,0,0,1,47.55,12.72h2.205a14.949,14.949,0,0,1,1.68.09V11.115a14.281,14.281,0,0,1-1.725.09H46.935V9.855a10.678,10.678,0,0,1,.09-1.425H45.24a8.54,8.54,0,0,1,.1,1.41V11.2h-2.19c-.585,0-1.17-.03-1.635-.075v1.68a13.927,13.927,0,0,1,1.59-.09h1.6a12.831,12.831,0,0,1-3.945,5.43V12.27a32.556,32.556,0,0,0,1.41-3.51l-1.665-.45a12.56,12.56,0,0,1-3.15,6.135,8.825,8.825,0,0,1,.66,1.815,8.353,8.353,0,0,0,1.17-1.605c-.03.66-.03.9-.03,1.7v4.14a14.64,14.64,0,0,1-.09,1.755h1.77a13.521,13.521,0,0,1-.075-1.74Zm6.15-.525V16.065c0-.6,0-.96-.03-1.8a16.3,16.3,0,0,0,2.13,3.63,9.887,9.887,0,0,1-1.005.045Zm-1.575,0h-.99a8.983,8.983,0,0,1-.99-.045,13.273,13.273,0,0,0,2.01-3.585c-.03.705-.03,1.02-.03,1.8Zm10.92-6.18v1.275h-2.1a8.329,8.329,0,0,1-1.335-.075v1.605a10.754,10.754,0,0,1,1.545-.075h1.89v1.185H54.72a10.413,10.413,0,0,1-1.455-.075,12.688,12.688,0,0,1,.06,1.41v2.76a8.5,8.5,0,0,1-.075,1.47h1.635a12.539,12.539,0,0,1-.06-1.455V17.1h1.44v3.525a9.413,9.413,0,0,1-.09,1.635H57.87a10.776,10.776,0,0,1-.075-1.62V17.1h1.35v2.4c0,.195-.09.255-.375.255-.165,0-.555-.03-.8-.06a4.154,4.154,0,0,1,.27,1.425c.42.03.555.03.69.03,1.29,0,1.665-.27,1.665-1.2v-3c0-.675.015-.975.045-1.335a11.577,11.577,0,0,1-1.4.06H57.795V14.49H59.49a8.636,8.636,0,0,1,1.44.075v-1.59a12.116,12.116,0,0,1-1.38.06H57.795V11.76H59.07a12.95,12.95,0,0,1,1.485.06V10.23a9.263,9.263,0,0,1-1.485.075H57.795v-.45a6.745,6.745,0,0,1,.09-1.425h-1.71a7.43,7.43,0,0,1,.09,1.455v.42H55.11c.075-.3.165-.63.195-.8a4.573,4.573,0,0,1,.165-.6l-1.53-.285a2.321,2.321,0,0,1-.075.585,8.374,8.374,0,0,1-1.185,2.97,11.727,11.727,0,0,1,1.425.735,12.325,12.325,0,0,0,.525-1.155ZM61.44,9.48a8.648,8.648,0,0,1,.09,1.59v6a9.379,9.379,0,0,1-.075,1.6h1.68a9.391,9.391,0,0,1-.075-1.59V11.04a10.358,10.358,0,0,1,.075-1.56ZM64.3,8.49a14.017,14.017,0,0,1,.09,1.86v9.8c0,.36-.135.45-.675.45a13.614,13.614,0,0,1-1.935-.15,4.537,4.537,0,0,1,.45,1.6c.885.03,1.35.045,1.425.045a3,3,0,0,0,1.815-.345c.36-.255.5-.63.5-1.425V10.305a10.234,10.234,0,0,1,.105-1.815Z" transform="translate(78.435 375.341)" fill="#fff"/>
      <g id="features-06" transform="translate(35.435 284.341)">
        <ellipse id="楕円形_532" data-name="楕円形 532" cx="8.603" cy="8.603" rx="8.603" ry="8.603" transform="translate(15.561 0)" fill="#ef8200"/>
        <path id="パス_25" data-name="パス 25" d="M96.1,195.091a1.471,1.471,0,0,0,1.47-1.47v-4.573c.043-8.872-6.594-17.257-15.521-17.257s-15.133,8.383-15.555,17.257v4.573a1.471,1.471,0,0,0,1.47,1.47H96.093Z" transform="translate(-57.882 -150.043)" fill="#ef8200"/>
        <path id="楕円形_533" data-name="楕円形 533" d="M8.6-1A9.6,9.6,0,1,1-1,8.6,9.614,9.614,0,0,1,8.6-1Zm0,17.205A7.6,7.6,0,1,0,1,8.6,7.611,7.611,0,0,0,8.6,16.205Z" transform="translate(55.581 0)" fill="#fff"/>
        <path id="パス_26" data-name="パス 26" d="M234.346,196.091H206.21a2.473,2.473,0,0,1-2.47-2.47v-4.573q0-.024,0-.048a21.686,21.686,0,0,1,1.419-6.751,20.014,20.014,0,0,1,3.406-5.8,16.388,16.388,0,0,1,5.144-4.1,14.561,14.561,0,0,1,6.585-1.555,14.9,14.9,0,0,1,6.07,1.286,16.309,16.309,0,0,1,4.957,3.441,18.95,18.95,0,0,1,4.047,6.146,19.437,19.437,0,0,1,1.447,7.39v4.569A2.473,2.473,0,0,1,234.346,196.091Zm-28.606-7.02v4.549a.471.471,0,0,0,.47.47h28.135a.471.471,0,0,0,.47-.47v-4.573a17.424,17.424,0,0,0-1.3-6.627,16.933,16.933,0,0,0-3.613-5.493,14.317,14.317,0,0,0-4.349-3.023,12.907,12.907,0,0,0-5.26-1.114,12.578,12.578,0,0,0-5.689,1.342,14.4,14.4,0,0,0-4.516,3.605A19.244,19.244,0,0,0,205.74,189.072Z" transform="translate(-156.114 -150.043)" fill="#fff"/>
        <path id="線_19" data-name="線 19" d="M85.39,1H0A1,1,0,0,1-1,0,1,1,0,0,1,0-1H85.39a1,1,0,0,1,1,1A1,1,0,0,1,85.39,1Z" transform="translate(0 50.71)" fill="#fff"/>
      </g>
    </g>
  </g>
</svg>
