<svg xmlns="http://www.w3.org/2000/svg" width="220" height="206" viewBox="0 0 220 206">
  <g id="features_sq-5" transform="translate(-11320 -1078)">
    <g id="features_sq-5-2" data-name="features_sq-5" transform="translate(10829 -312)">
      <path id="パス_5985" data-name="パス 5985" d="M0,0H145V145H0Z" transform="translate(529 1390)" fill="#fff"/>
      <g id="features-06" transform="translate(553 1449)">
        <ellipse id="楕円形_532" data-name="楕円形 532" cx="9.626" cy="9.626" rx="9.626" ry="9.626" transform="translate(17.413 0)" fill="#ef8200"/>
        <path id="パス_25" data-name="パス 25" d="M99.619,197.864a1.646,1.646,0,0,0,1.645-1.645V191.1c.049-9.928-7.379-19.311-17.368-19.311S66.963,181.17,66.49,191.1v5.118a1.646,1.646,0,0,0,1.645,1.645h31.48Z" transform="translate(-56.857 -147.455)" fill="#ef8200"/>
        <path id="楕円形_533" data-name="楕円形 533" d="M9.626-1A10.626,10.626,0,1,1-1,9.626,10.638,10.638,0,0,1,9.626-1Zm0,19.253A8.626,8.626,0,1,0,1,9.626,8.636,8.636,0,0,0,9.626,18.253Z" transform="translate(62.196 0)"/>
        <path id="パス_26" data-name="パス 26" d="M237.869,198.864H206.385a2.648,2.648,0,0,1-2.645-2.645V191.1q0-.024,0-.048a24.148,24.148,0,0,1,1.58-7.518,22.277,22.277,0,0,1,3.791-6.461,18.219,18.219,0,0,1,5.719-4.557,16.176,16.176,0,0,1,7.316-1.727,16.549,16.549,0,0,1,6.744,1.428,18.131,18.131,0,0,1,5.51,3.826,21.085,21.085,0,0,1,4.5,6.838,21.629,21.629,0,0,1,1.61,8.223v5.113A2.648,2.648,0,0,1,237.869,198.864Zm-32.129-7.739v5.094a.646.646,0,0,0,.645.645h31.483a.646.646,0,0,0,.645-.645V191.1a19.618,19.618,0,0,0-1.461-7.461,19.068,19.068,0,0,0-4.069-6.185,16.139,16.139,0,0,0-4.9-3.408,14.562,14.562,0,0,0-5.934-1.257,14.193,14.193,0,0,0-6.419,1.515,16.232,16.232,0,0,0-5.09,4.064,20.283,20.283,0,0,0-3.449,5.884A22.151,22.151,0,0,0,205.74,191.125Z" transform="translate(-150.328 -147.455)"/>
        <path id="線_19" data-name="線 19" d="M95.551,1H0A1,1,0,0,1-1,0,1,1,0,0,1,0-1H95.551a1,1,0,0,1,1,1A1,1,0,0,1,95.551,1Z" transform="translate(0 56.745)"/>
      </g>
      <path id="パス_5977" data-name="パス 5977" d="M-.74-7.14A13.878,13.878,0,0,1-1.23-3.2,4.92,4.92,0,0,1-2.82-.68,4.538,4.538,0,0,1-5.74.2,4.12,4.12,0,0,1-9.52-1.74a10.26,10.26,0,0,1-1.2-5.4,14.259,14.259,0,0,1,.48-3.95,4.868,4.868,0,0,1,1.58-2.53,4.538,4.538,0,0,1,2.92-.88,4.149,4.149,0,0,1,3.78,1.94A10.168,10.168,0,0,1-.74-7.14Zm-6.98,0A12.069,12.069,0,0,0-7.3-3.47,1.572,1.572,0,0,0-5.74-2.24,1.59,1.59,0,0,0-4.18-3.46a11.538,11.538,0,0,0,.44-3.68,11.65,11.65,0,0,0-.44-3.68,1.6,1.6,0,0,0-1.56-1.24A1.574,1.574,0,0,0-7.3-10.82,12.172,12.172,0,0,0-7.72-7.14ZM6-9.12a5.2,5.2,0,0,1,2.32.5A3.83,3.83,0,0,1,9.93-7.16a4.468,4.468,0,0,1,.59,2.38A4.723,4.723,0,0,1,9.08-1.13,6.076,6.076,0,0,1,4.82.2,10.645,10.645,0,0,1,2.71,0,6.67,6.67,0,0,1,.98-.58v-2.6a8.7,8.7,0,0,0,1.78.65,7.814,7.814,0,0,0,1.96.27,3.293,3.293,0,0,0,2.05-.55,2.027,2.027,0,0,0,.71-1.71q0-2.16-2.86-2.16a6.431,6.431,0,0,0-1.16.11q-.6.11-1,.21L1.26-7l.54-7.28H9.54v2.56H4.44l-.26,2.8.73-.13A6.53,6.53,0,0,1,6-9.12Z" transform="translate(601 1427)" fill="#9fd4d5"/>
    </g>
    <path id="パス_5997" data-name="パス 5997" d="M-33.031,1.088a7.62,7.62,0,0,1-.085-1.513v-3.74c0-.153-.017-.629-.034-.833.17.085.2.085.425.187a30.326,30.326,0,0,1,5.185,2.72l1.122-1.785a27.742,27.742,0,0,0-5.933-2.669,21.928,21.928,0,0,0,3.468-3.179,3.989,3.989,0,0,1,.748-.731l-.986-1.156a3.587,3.587,0,0,1-1.156.153H-33.15v-1.411a5.493,5.493,0,0,1,.085-1.19h-2.278a7.019,7.019,0,0,1,.085,1.224v1.394H-38.1a8.733,8.733,0,0,1-1.819-.153v2.057a12.541,12.541,0,0,1,1.8-.085c6.12-.034,6.12-.034,6.222-.051h.357a18.231,18.231,0,0,1-5.27,3.6,21.164,21.164,0,0,1-4.726,1.581,7.027,7.027,0,0,1,1,1.853,26.919,26.919,0,0,0,4.794-1.9,2.919,2.919,0,0,0,.51-.323V-.425a10.251,10.251,0,0,1-.1,1.513ZM-12.512-13.8a13.6,13.6,0,0,1-3.162,3.179A24.827,24.827,0,0,1-24.6-6.2,6.394,6.394,0,0,1-23.46-4.267a27.544,27.544,0,0,0,6.069-2.754v5.984A9.562,9.562,0,0,1-17.493.8h2.38A12.86,12.86,0,0,1-15.2-1.088V-8.347a30.062,30.062,0,0,0,4.012-3.5,7,7,0,0,1,.629-.595ZM5-6.936a16.821,16.821,0,0,1,2.159.085V-8.874a12.075,12.075,0,0,1-2.193.119H-4.981a11.965,11.965,0,0,1-2.193-.119v2.023a16.821,16.821,0,0,1,2.159-.085H-.867a7.219,7.219,0,0,1-.748,3.213A6.321,6.321,0,0,1-5.644-.884,5.394,5.394,0,0,1-4.267.986C-1.972.068-.731-.867.17-2.363A9.231,9.231,0,0,0,1.36-6.936ZM-5.457-11.084A16.015,16.015,0,0,1-3.3-11.169H3.3a16.015,16.015,0,0,1,2.159.085v-2.074a11.533,11.533,0,0,1-2.193.119H-3.264a11.533,11.533,0,0,1-2.193-.119Zm26.061.1a6.376,6.376,0,0,1-1.037,1.224,19.393,19.393,0,0,1-4.828,3.451,18.132,18.132,0,0,1-4.029,1.53,6.956,6.956,0,0,1,1.054,1.768,23.983,23.983,0,0,0,4.811-2.159V-.612A10.193,10.193,0,0,1,16.49,1l2.193.017A10.042,10.042,0,0,1,18.6-.612v-5.78A22.749,22.749,0,0,0,21.76-9.18a3.315,3.315,0,0,1,.578-.561ZM39.576-11.2l.68-.272a10.507,10.507,0,0,0-1.513-2.686L37.5-13.7a9.734,9.734,0,0,1,1.054,1.717,10.548,10.548,0,0,1-1.224.051h-7.8a11.648,11.648,0,0,1-2.176-.119v2.21a12.248,12.248,0,0,1,2.142-.1h8.092A12.329,12.329,0,0,1,28.713-.8a6.256,6.256,0,0,1,1.5,2.023C35.5-.969,38.556-4.454,39.882-9.809a3.279,3.279,0,0,1,.289-.765Zm2.856-1.088a9.463,9.463,0,0,0-1.5-2.584l-1.224.459a11.5,11.5,0,0,1,1.462,2.635ZM-66.47,21.56h4.981V19.52H-66.47V14.675h-2.057V19.52h-4.981v2.04h4.981v5h2.057Zm12.189-7.293v.238a12.474,12.474,0,0,1-.153,1.649,20.674,20.674,0,0,1-1.6,5.831,11.456,11.456,0,0,1-2.431,3.621,7.355,7.355,0,0,1,1.938,1.462c2.278-2.618,3.6-5.967,4.318-10.846l.051-.408.085-.493.034-.289a1.96,1.96,0,0,1,.085-.34Zm5.049.408a7.143,7.143,0,0,1,.238,1.224,22.528,22.528,0,0,0,4.5,11.186,7,7,0,0,1,1.87-1.564,16.466,16.466,0,0,1-3.791-7.344,21.061,21.061,0,0,1-.714-3.91Zm2.278-1.054a11.155,11.155,0,0,1,1.394,2.771l1.292-.408a10.139,10.139,0,0,0-1.411-2.737Zm4.913,1.683a10.06,10.06,0,0,0-1.394-2.635l-1.258.357a11.676,11.676,0,0,1,1.36,2.686ZM-29.512,13.2a13.6,13.6,0,0,1-3.162,3.179A24.827,24.827,0,0,1-41.6,20.8a6.394,6.394,0,0,1,1.139,1.938,27.544,27.544,0,0,0,6.069-2.754v5.984a9.562,9.562,0,0,1-.1,1.836h2.38a12.86,12.86,0,0,1-.085-1.887V18.653a30.061,30.061,0,0,0,4.012-3.5,7,7,0,0,1,.629-.595Zm7.48.391a10.733,10.733,0,0,1,.068,1.53v4.675a12.26,12.26,0,0,1-.085,1.53h2.329a8.206,8.206,0,0,1-.068-1.5V15.134a8.641,8.641,0,0,1,.068-1.53Zm7.667.034a8.952,8.952,0,0,1,.085,1.615v2.125c0,1.36-.017,2.108-.085,2.839-.187,2.244-.748,3.281-2.346,4.335a9.17,9.17,0,0,1-3.672,1.36,5.808,5.808,0,0,1,1.19,2.023,14.38,14.38,0,0,0,3.315-1.309,6.511,6.511,0,0,0,3.349-3.961,20.079,20.079,0,0,0,.442-5.151V15.2A8.063,8.063,0,0,1-12,13.621Zm7.939,2.465a17.848,17.848,0,0,1,4.335,3.451l1.462-1.853A24.077,24.077,0,0,0-5.015,14.4Zm.595,11.22a6.018,6.018,0,0,1,1.122-.289,18.362,18.362,0,0,0,6.477-2.55A14.92,14.92,0,0,0,7.157,17.8a7.331,7.331,0,0,1-1.8-1.666,14.2,14.2,0,0,1-1.734,3.4A11.358,11.358,0,0,1-1.428,23.7,16.2,16.2,0,0,1-6.46,24.96Zm28.2-11.084.867-.34A11.368,11.368,0,0,0,21.726,13.2l-1.241.459A11.073,11.073,0,0,1,21.811,16l.085.17.051.136a5.72,5.72,0,0,1-.935.034l-3.774.017c.051-.6.051-.612.068-1.071l.051-.918.017-.323c0-.119.017-.2.017-.306a4.747,4.747,0,0,1,.068-.544l-2.278-.051a3.473,3.473,0,0,1,.051.663v.425c0,.493-.034,1.5-.085,2.125l-2.975.017a10.164,10.164,0,0,1-1.887-.119L10.3,18.33a11.528,11.528,0,0,1,1.836-.085H14.96a9.31,9.31,0,0,1-5.372,7.769,6.929,6.929,0,0,1,1.53,1.785,11.748,11.748,0,0,0,5.95-9.571h3.961a38.355,38.355,0,0,1-.374,5.44c-.272,1.479-.527,1.853-1.258,1.853a8.272,8.272,0,0,1-2.244-.408,5.19,5.19,0,0,1,.391,2.176,11.49,11.49,0,0,0,2.108.2c2.04,0,2.635-.7,3.077-3.638.17-1.122.357-3.757.408-5.678a2.568,2.568,0,0,1,.187-1.122ZM25.364,15a9.92,9.92,0,0,0-1.5-2.584l-1.207.476a12.177,12.177,0,0,1,1.462,2.635Zm3.587-1.292a8.544,8.544,0,0,1,.068,1.547c0,4.76-.391,6.953-1.615,8.908a6.984,6.984,0,0,1-1.751,1.955,6.05,6.05,0,0,1,1.717,1.649,10.826,10.826,0,0,0,2.346-3.145c.884-1.751,1.258-3.672,1.377-6.987a35.527,35.527,0,0,1,.17-3.808Zm4.5-.119a7.358,7.358,0,0,1,.068,1.122v.51l-.085,9.588a7.618,7.618,0,0,1-.153,1.8l1.088,1.156a7.4,7.4,0,0,1,.731-.306,11.228,11.228,0,0,0,3.621-2.04,10.55,10.55,0,0,0,2.7-3.961,7.126,7.126,0,0,1-1.6-1.6,8.307,8.307,0,0,1-1.666,3.111,6.835,6.835,0,0,1-2.6,1.938l.085-9.673a9.212,9.212,0,0,1,.119-1.615Zm12.75,10.54a6.537,6.537,0,0,1,1,1.394,12.162,12.162,0,0,0,1.785-1.853v1.6A8.423,8.423,0,0,1,50.2,25.2h1.19v1.36a13.564,13.564,0,0,1-.119,1.853H53.3a13.058,13.058,0,0,1-.119-1.853V25.2h1.275a8.474,8.474,0,0,1,1.241.068V23.651a16.7,16.7,0,0,0,1.9,1.972,8.439,8.439,0,0,1,1.173-1.751,13.5,13.5,0,0,1-2.89-2.839,14.821,14.821,0,0,1-1.989-3.417h2.5a16.942,16.942,0,0,1,1.9.1V15.8a16.185,16.185,0,0,1-1.955.1H53.193v-1.53a12.1,12.1,0,0,1,.1-1.615H51.272a9.678,9.678,0,0,1,.119,1.6V15.9H48.909c-.663,0-1.326-.034-1.853-.085v1.9a15.783,15.783,0,0,1,1.8-.1h1.819a14.542,14.542,0,0,1-4.471,6.154V17.106a36.9,36.9,0,0,0,1.6-3.978l-1.887-.51a14.234,14.234,0,0,1-3.57,6.953,10,10,0,0,1,.748,2.057,9.467,9.467,0,0,0,1.326-1.819c-.034.748-.034,1.02-.034,1.921v4.692a16.591,16.591,0,0,1-.1,1.989h2.006a15.323,15.323,0,0,1-.085-1.972Zm6.97-.6V21.407c0-.68,0-1.088-.034-2.04a18.472,18.472,0,0,0,2.414,4.114,11.2,11.2,0,0,1-1.139.051Zm-1.785,0H50.269a10.181,10.181,0,0,1-1.122-.051,15.044,15.044,0,0,0,2.278-4.063c-.034.8-.034,1.156-.034,2.04Zm12.376-7v1.445h-2.38a9.439,9.439,0,0,1-1.513-.085v1.819a12.187,12.187,0,0,1,1.751-.085h2.142v1.343H62.016a11.8,11.8,0,0,1-1.649-.085,14.379,14.379,0,0,1,.068,1.6v3.128a9.63,9.63,0,0,1-.085,1.666H62.2a14.209,14.209,0,0,1-.068-1.649V22.58h1.632v4a10.668,10.668,0,0,1-.1,1.853h1.921a12.212,12.212,0,0,1-.085-1.836V22.58h1.53V25.3c0,.221-.1.289-.425.289-.187,0-.629-.034-.9-.068a4.709,4.709,0,0,1,.306,1.615c.476.034.629.034.782.034,1.462,0,1.887-.306,1.887-1.36v-3.4c0-.765.017-1.1.051-1.513a13.12,13.12,0,0,1-1.581.068H65.5V19.622h1.921a9.787,9.787,0,0,1,1.632.085V17.9a13.731,13.731,0,0,1-1.564.068H65.5V16.528h1.445a14.676,14.676,0,0,1,1.683.068v-1.8a10.5,10.5,0,0,1-1.683.085H65.5v-.51a7.644,7.644,0,0,1,.1-1.615H63.665a8.42,8.42,0,0,1,.1,1.649v.476H62.458c.085-.34.187-.714.221-.9a5.183,5.183,0,0,1,.187-.68l-1.734-.323a2.631,2.631,0,0,1-.085.663A9.49,9.49,0,0,1,59.7,17a13.29,13.29,0,0,1,1.615.833,13.969,13.969,0,0,0,.6-1.309Zm5.865-2.584a9.8,9.8,0,0,1,.1,1.8v6.8a10.629,10.629,0,0,1-.085,1.819h1.9a10.642,10.642,0,0,1-.085-1.8V15.712a11.739,11.739,0,0,1,.085-1.768Zm3.247-1.122a15.887,15.887,0,0,1,.1,2.108v11.1c0,.408-.153.51-.765.51a15.429,15.429,0,0,1-2.193-.17,5.142,5.142,0,0,1,.51,1.819c1,.034,1.53.051,1.615.051a3.4,3.4,0,0,0,2.057-.391c.408-.289.561-.714.561-1.615V14.879a11.6,11.6,0,0,1,.119-2.057Z" transform="translate(11430 1255)"/>
    <rect id="長方形_221" data-name="長方形 221" width="220" height="206" transform="translate(11320 1078)" fill="none"/>
  </g>
</svg>
