<?xml version="1.0" encoding="utf-8"?>
<!-- Generator: Adobe Illustrator 27.3.1, SVG Export Plug-In . SVG Version: 6.00 Build 0)  -->
<svg version="1.1" id="レイヤー_1" xmlns="http://www.w3.org/2000/svg" xmlns:xlink="http://www.w3.org/1999/xlink" x="0px"
	 y="0px" viewBox="0 0 376 107" style="enable-background:new 0 0 376 107;" xml:space="preserve">
<style type="text/css">
	.st0{fill:#5A534A;}
	.st1{fill:#FFFFFF;}
	.st2{enable-background:new    ;}
	.st3{fill:#EF8200;}
</style>
<g id="グループ_940" transform="translate(-584 -1631)">
	<g id="長方形_164" transform="translate(584 1631)">
		<path class="st0" d="M10,0h356c5.5,0,10,4.5,10,10v87c0,5.5-4.5,10-10,10H10c-5.5,0-10-4.5-10-10V10C0,4.5,4.5,0,10,0z"/>
		<path class="st1" d="M366,107H10c-5.5,0-10-4.5-10-10V10C0,4.5,4.5,0,10,0h356c5.5,0,10,4.5,10,10v87C376,102.5,371.5,107,366,107
			z M10,3c-3.9,0-7,3.1-7,7v87c0,3.9,3.1,7,7,7h356c3.9,0,7-3.1,7-7V10c0-3.9-3.1-7-7-7H10z"/>
	</g>
	<g class="st2">
		<path class="st1" d="M792.4,1674.8c-0.1,0.1-0.3,0.3-1,0.8c-0.4,0.4-1,0.8-1.6,1.2c1.4,0.7,2.8,1.2,4.5,1.5
			c-0.4,0.7-0.6,1.1-0.9,2c-2.5-0.6-4.5-1.6-6.1-3c-1.2-1-1.9-1.9-2.6-3.4h-1.5v3.9c1.5-0.3,2.2-0.5,3.4-0.9l0,1.7
			c-1.8,0.6-3.6,1.1-6.6,1.6c-0.4,0.1-0.5,0.1-0.8,0.2l-0.4-1.9c0.5,0,1.3-0.1,2.4-0.3v-4.2h-0.9c-0.7,0-1.2,0-1.7,0.1v-1.8
			c0.4,0.1,1,0.1,1.8,0.1h0.9v-5.4c0-0.9,0-1.2-0.1-1.7c0.5,0.1,1,0.1,1.9,0.1h7.6c1,0,1.5,0,2-0.1v1.8c-0.5-0.1-0.9-0.1-2-0.1h-7.5
			v0.8h7.2c0.7,0,1.2,0,1.6-0.1v1.5c-0.3-0.1-1.1-0.1-1.6-0.1h-7.2v0.8h7.2c0.7,0,1.2,0,1.6-0.1v1.6c-0.5-0.1-0.9-0.1-1.6-0.1h-7.2
			v0.9h9.1c0.8,0,1.2,0,1.7-0.1v1.8c-0.4-0.1-0.9-0.1-1.5-0.1h-1.6L792.4,1674.8z M786.5,1673.9c0.5,0.9,0.9,1.3,1.8,2
			c0.8-0.6,1.8-1.4,2.3-2H786.5z"/>
		<path class="st1" d="M796.1,1667.3c0-0.8,0-1.2-0.1-1.7c0.4,0,0.7,0.1,1.5,0.1h2.1c0.8,0,1.1,0,1.5-0.1c-0.1,0.4-0.1,0.7-0.1,1.7
			v9.7c0,0.9,0,1.3,0.1,1.7h-1.7v-0.9h-1.5v1.4H796c0.1-0.5,0.1-1.1,0.1-2V1667.3z M797.8,1670.8h1.5v-3.6h-1.5V1670.8z
			 M797.8,1676.2h1.5v-3.8h-1.5V1676.2z M803.7,1668.2c-1.4,0-1.4,0-1.8,0.1v-1.8c0.5,0.1,1,0.1,1.8,0.1h1.5v-0.5
			c0-0.5,0-0.8-0.1-1.3h2c-0.1,0.4-0.1,0.7-0.1,1.3v0.5h1.9c0.7,0,1.3,0,1.8-0.1v1.8c-0.5-0.1-1-0.1-1.8-0.1h-1.9v1.6h2.3
			c0.8,0,1.4,0,1.9-0.1v1.8c-0.5-0.1-0.9-0.1-1.7-0.1h-0.3v1.4h0.2c0.8,0,1.3,0,1.7-0.1v1.9c-0.5-0.1-0.9-0.1-1.7-0.1h-0.2v3.8
			c0,1-0.2,1.4-0.7,1.6c-0.4,0.2-1,0.3-1.9,0.3c-0.2,0-0.2,0-1.3,0c0-0.7-0.2-1.2-0.4-1.8c0.4,0.1,1.3,0.1,1.9,0.1
			c0.5,0,0.6-0.1,0.6-0.5v-3.6h-4.1c-0.6,0-1.3,0-1.8,0.1v-1.9c0.4,0.1,1,0.1,1.9,0.1h4v-1.4h-4c-0.7,0-1.3,0-1.9,0.1v-1.8
			c0.4,0.1,1.1,0.1,1.9,0.1h1.8v-1.6H803.7z M804.3,1678.5c-0.7-1.1-1.3-2-2.2-2.8l1.4-1c0.8,0.7,1.5,1.5,2.2,2.6L804.3,1678.5z"/>
		<path class="st1" d="M814.9,1678.3c0,1,0,1.6,0.1,2.1h-2c0.1-0.5,0.1-1.1,0.1-2.1v-11.1c0-0.9,0-1.4-0.1-1.9
			c0.5,0.1,0.9,0.1,1.8,0.1h3c0.9,0,1.3,0,1.7-0.1c0,0.5-0.1,0.9-0.1,1.6v2.6c0,0.8,0,1.2,0.1,1.5c-0.4,0-1-0.1-1.6-0.1h-3.1V1678.3
			z M814.9,1667.5h2.9v-0.9h-2.9V1667.5z M814.9,1669.6h2.9v-0.9h-2.9V1669.6z M823.6,1676.9c0,0.6,0,1,0.1,1.5c0.4,0,1,0.1,1.3,0.1
			c0.5,0,0.6-0.1,0.6-0.5v-7.1h-3.3c-0.6,0-1.1,0-1.6,0.1c0-0.5,0.1-0.8,0.1-1.5v-2.6c0-0.6,0-1.1-0.1-1.6c0.5,0.1,0.9,0.1,1.7,0.1
			h3.3c0.9,0,1.3,0,1.8-0.1c-0.1,0.6-0.1,1-0.1,1.9v11.1c0,1-0.2,1.5-0.8,1.7c-0.4,0.2-0.9,0.2-1.9,0.2c-0.2,0-0.3,0-1.2-0.1
			c-0.1-0.8-0.2-1.1-0.4-1.8c-0.5,0-0.8,0-1,0h-3.6v1h-1.8c0.1-0.4,0.1-1.1,0.1-1.7v-4.1c0-0.6,0-1.1-0.1-1.5
			c0.5,0.1,0.9,0.1,1.6,0.1h3.8c0.7,0,1.1,0,1.6-0.1c0,0.4-0.1,0.9-0.1,1.5V1676.9z M818.5,1674.4h3.5v-1h-3.5V1674.4z
			 M818.5,1676.9h3.5v-1.1h-3.5V1676.9z M822.4,1667.5h3.2v-0.9h-3.2V1667.5z M822.4,1669.6h3.2v-0.9h-3.2V1669.6z"/>
		<path class="st1" d="M836.5,1675c-1,2.2-2.1,3.2-3.5,3.2c-1.9,0-3.3-2-3.3-4.7c0-1.9,0.7-3.6,1.9-4.9c1.4-1.6,3.4-2.4,5.8-2.4
			c4.1,0,6.7,2.5,6.7,6.3c0,2.9-1.5,5.3-4.1,6.3c-0.8,0.3-1.5,0.5-2.7,0.7c-0.3-0.9-0.5-1.3-1-2c1.6-0.2,2.6-0.5,3.4-0.9
			c1.5-0.8,2.4-2.4,2.4-4.2c0-1.6-0.7-3-2.1-3.8c-0.5-0.3-1-0.4-1.7-0.5C837.9,1670.8,837.3,1673.1,836.5,1675z M834,1669
			c-1.4,1-2.3,2.8-2.3,4.6c0,1.4,0.6,2.5,1.3,2.5c0.6,0,1.1-0.7,1.8-2.2c0.6-1.5,1.2-3.8,1.4-5.7
			C835.3,1668.2,834.7,1668.5,834,1669z"/>
		<path class="st1" d="M854.6,1672.6c0-0.1,0-1,0.1-1.2c-0.4,0.7-0.9,1.4-1.7,2.4c-0.9,1-2.2,2.1-3.3,3c-0.7,0.5-1.2,0.8-2.5,1.6
			c-0.4-0.8-0.7-1.1-1.4-1.8c2-0.9,3.7-2,5.4-3.7c0.9-0.8,1.7-1.9,2.3-2.8h-4.7c-1.3,0-1.5,0-2.1,0.1v-2.1c0.6,0.1,0.9,0.1,2.1,0.1
			h5.9l0-1.4c0-0.9,0-0.9-0.1-1.6h2.2c-0.1,0.4-0.1,0.7-0.1,1.4v0.1l0,1.4h1.7c1.1,0,1.4,0,2-0.1v2.1c-0.5-0.1-0.9-0.1-2-0.1h-1.8
			l0.1,7.9c0,0.8,0.1,1.5,0.1,2h-2.3c0.1-0.5,0.1-0.9,0.1-1.6c0-0.1,0-0.2,0-0.3l-0.1-5.1V1672.6z"/>
		<path class="st1" d="M862.3,1671.3c0.7,0.1,1.1,0.1,2.8,0.1h9.1c1.7,0,2,0,2.8-0.1v2.4c-0.7-0.1-0.9-0.1-2.8-0.1h-9
			c-1.9,0-2.1,0-2.8,0.1V1671.3z"/>
		<path class="st1" d="M883.5,1665.8c-0.1,0.5-0.1,0.5-0.2,3.8c-0.1,3.3-0.5,5.2-1.4,7c-0.6,1.2-1.2,2-2.3,3.1
			c-0.7-0.8-0.9-1.1-1.7-1.6c0.8-0.7,1.2-1.1,1.8-2c1.2-2,1.6-4.1,1.6-8.9c0-0.9,0-1.1-0.1-1.5L883.5,1665.8z M888,1665.6
			c-0.1,0.5-0.1,0.8-0.1,1.6l-0.1,9.7c1.2-0.6,1.9-1.1,2.6-1.9c0.8-0.9,1.3-1.9,1.7-3.1c0.6,0.8,0.8,1,1.6,1.6c-0.7,1.7-1.6,3-2.7,4
			c-1,0.8-1.9,1.3-3.6,2c-0.4,0.1-0.5,0.2-0.7,0.3l-1.1-1.2c0.1-0.5,0.1-0.9,0.2-1.8l0.1-9.6v-0.5c0-0.4,0-0.8-0.1-1.1L888,1665.6z"
			/>
	</g>
	<g class="st2">
		<path class="st1" d="M775,1693.6c-0.3,0.3-0.4,0.3-0.6,0.6c-1.3,1.3-2.6,2.4-4,3.5v7.3c0,0.9,0,1.4,0.1,1.9h-2.4
			c0.1-0.5,0.1-0.8,0.1-1.8v-6c-2,1.2-2.9,1.6-6.1,2.8c-0.4-0.9-0.5-1.2-1.1-1.9c3.4-0.9,6.2-2.3,8.9-4.4c1.5-1.2,2.7-2.3,3.2-3.2
			L775,1693.6z"/>
		<path class="st1" d="M777.3,1704c1.5-0.1,3.5-0.6,5-1.3c2.1-0.9,3.7-2.2,5-4.2c0.7-1.1,1.2-2,1.7-3.4c0.7,0.8,0.9,1.1,1.8,1.7
			c-1.4,3.1-3.1,5.1-5.4,6.7c-1.7,1.2-3.8,2-6.5,2.5c-0.7,0.1-0.7,0.2-1.1,0.3L777.3,1704z M778.7,1693.4c2,1.3,3.1,2,4.4,3.3
			l-1.5,1.9c-1.4-1.4-2.8-2.6-4.3-3.5L778.7,1693.4z"/>
		<path class="st1" d="M805.5,1695.4c-0.2,0.2-0.2,0.4-0.4,1c-1,3-1.8,4.5-3.4,6.4c-1.5,1.7-3.6,3.2-6.1,4.3
			c-0.4-0.8-0.7-1.2-1.4-1.8c4.5-1.7,7.3-4.7,8.7-9.2l-5.1,0.1c-1,1.6-2.6,3.3-4,4.4c-0.5-0.7-0.8-0.9-1.6-1.5
			c1.8-1.2,3.2-2.8,4.4-4.9c0.5-0.9,0.8-1.7,0.9-2.3l2.3,0.5c-0.1,0.2-0.1,0.2-0.3,0.5c-0.1,0.3-0.3,0.6-0.5,1
			c-0.1,0.2-0.1,0.2-0.1,0.2l-0.1,0.3c0.2,0,0.5,0,0.8,0l3.7-0.1c0.5,0,0.7,0,0.9,0c-0.4-0.8-0.7-1.4-1.2-2.1l1.3-0.4
			c0.7,0.9,1.1,1.6,1.5,2.7l-0.7,0.3L805.5,1695.4z M806.6,1694.2c-0.4-1-0.9-1.9-1.5-2.6l1.2-0.4c0.7,0.9,1.1,1.6,1.5,2.6
			L806.6,1694.2z"/>
		<path class="st1" d="M812.3,1692.6c-0.1,0.5-0.1,0.6-0.1,1.5v4.7c0,0.8,0,1.1,0.1,1.5H810c0.1-0.4,0.1-0.9,0.1-1.5v-4.7
			c0-0.9,0-1.1-0.1-1.5L812.3,1692.6z M820.1,1692.6c-0.1,0.4-0.1,0.6-0.1,1.6v2.3c0,2.7-0.1,4.1-0.4,5.2c-0.5,1.7-1.6,3-3.3,4
			c-0.9,0.5-1.8,0.8-3.3,1.3c-0.3-0.8-0.5-1.1-1.2-2c1.7-0.3,2.7-0.7,3.7-1.4c1.6-1.1,2.2-2.1,2.3-4.3c0.1-0.7,0.1-1.5,0.1-2.8v-2.1
			c0-0.9,0-1.2-0.1-1.6H820.1z"/>
		<path class="st1" d="M825.4,1696.2c0.7,1.3,1.1,2.1,1.7,4l-1.9,0.6c-0.4-1.7-0.8-2.6-1.5-4.1L825.4,1696.2z M835.1,1696.3
			c-0.1,0.3-0.1,0.3-0.2,0.9c-0.5,2.3-1.3,4.2-2.3,5.7c-1.3,1.7-2.7,2.8-5.2,4.1c-0.4-0.7-0.6-1-1.4-1.7c1.2-0.5,1.9-0.8,2.9-1.6
			c2-1.4,3.1-3.2,3.9-5.9c0.2-0.8,0.3-1.4,0.3-2L835.1,1696.3z M829,1695.5c0.9,1.7,1.2,2.4,1.6,3.9l-1.9,0.6
			c-0.3-1.3-0.8-2.6-1.5-4L829,1695.5z"/>
		<path class="st1" d="M838.8,1696.6c1.8,0.7,3.1,1.4,4.5,2.3l-1.1,1.9c-1.4-1-2.9-1.8-4.6-2.5L838.8,1696.6z M838,1704.2
			c1.3,0,3.1-0.4,4.9-1.1c2.1-0.8,3.6-1.9,4.9-3.7c0.9-1.2,1.4-2.2,2-3.8c0.7,0.7,1,1,1.8,1.5c-0.8,1.9-1.5,3.1-2.6,4.3
			c-2.2,2.5-5,4-9.2,4.8c-0.6,0.1-0.8,0.2-1.2,0.3L838,1704.2z M840.1,1692.5c1.8,0.7,3.1,1.3,4.5,2.2l-1.1,1.9
			c-1.5-1-3.1-1.8-4.5-2.3L840.1,1692.5z"/>
		<path class="st1" d="M863.9,1704.5c0.8,0,1.1,0,1.6-0.1v1.9c-0.5-0.1-0.8-0.1-1.6-0.1h-8.8c-0.7,0-1.1,0-1.6,0.1v-1.9
			c0.5,0.1,0.8,0.1,1.6,0.1h5c0.3-1.5,0.6-3.9,0.8-5.5h-4.2c-0.8,0-1.1,0-1.5,0.1v-1.9c0.4,0.1,0.9,0.1,1.6,0.1h4.3
			c0.6,0,0.9,0,1.3-0.2l0.9,0.8c-0.2,0.5-0.2,0.5-0.4,1.9c-0.3,1.9-0.4,3.1-0.7,4.6H863.9z"/>
		<path class="st1" d="M868.8,1694.2c-0.5,0-0.8,0-1.2,0.1v-1.8c0.4,0.1,0.8,0.1,1.5,0.1h1.7c0.6,0,1.1,0,1.5-0.1v1.8
			c-0.4-0.1-0.7-0.1-1.1-0.1H871v3.3c0.5,0,0.6,0,1-0.1v1.7c-0.4,0-0.6-0.1-1-0.1v3.2c0.5-0.2,0.8-0.3,1.6-0.7v1.8
			c-1.5,0.7-2.6,1.2-4,1.7c-0.3,0.1-0.7,0.3-0.9,0.4l-0.4-2c0.3,0,0.8-0.2,1.9-0.5v-3.8H869c-0.5,0-0.8,0-1.2,0.1v-1.7
			c0.4,0.1,0.6,0.1,1.2,0.1h0.2v-3.3H868.8z M882.7,1703c-0.1,0.1-0.2,0.2-0.5,0.4c-0.4,0.4-0.8,0.6-1.3,1c1,0.5,1.6,0.8,2.6,1
			c-0.3,0.5-0.6,1.1-0.9,1.7c-1.3-0.5-2.1-0.9-2.9-1.6c-0.8-0.6-1.2-1-1.7-1.7c0.1,0.5,0.1,0.8,0.1,1.3v0.9c0,0.6,0,1,0.1,1.4h-2
			c0.1-0.4,0.1-0.7,0.1-1.5v-0.9c0-0.3,0-0.8,0.1-1.2c-1.1,1.3-2.1,2-4.4,3.1c-0.3-0.6-0.6-1-1.1-1.5c2.2-0.8,3.7-1.7,4.9-3.1h-1.4
			c-0.5,0-1.1,0-1.4,0.1c0.1-0.3,0.1-0.5,0.1-1.1v-1.4c0-0.5,0-0.7-0.1-1.1c0.4,0,0.8,0.1,1.4,0.1h6.2c0.7,0,1.2,0,1.5-0.1
			c0,0.3-0.1,0.6-0.1,1.1v1.4c0,0.5,0,0.7,0.1,1c-0.2,0-0.3,0-0.6,0L882.7,1703z M872.4,1696.6c0.5,0.1,0.9,0.1,1.6,0.1h7.5
			c0.7,0,1.1,0,1.6-0.1v1.7c-0.5-0.1-1-0.1-1.6-0.1H874c-0.7,0-1.1,0-1.6,0.1V1696.6z M872.7,1693.3c0-0.6,0-0.9-0.1-1.2
			c0.4,0.1,0.8,0.1,1.4,0.1h7.3c0.4,0,1,0,1.4-0.1c-0.1,0.5-0.1,0.8-0.1,1.2v1.6c0,0.4,0,0.8,0.1,1.2c-0.4,0-0.7,0-1.3,0H874
			c-0.6,0-0.8,0-1.3,0c0-0.3,0.1-0.5,0.1-1.2V1693.3z M875.5,1693.6h-1.2v1.3h1.2V1693.6z M874.8,1701.1h5.5v-0.8h-5.5V1701.1z
			 M878.3,1693.6H877v1.3h1.3V1693.6z M878.5,1702.4c0.4,0.5,0.6,0.7,1.2,1.1c0.6-0.4,0.8-0.6,1.3-1.1h-0.2H878.5z M881,1693.6h-1.3
			v1.3h1.3V1693.6z"/>
		<path class="st1" d="M886.3,1693.8c0-0.8,0-1.4-0.1-1.9h2c-0.1,0.5-0.1,1-0.1,1.9v2.3c0.6,0,0.8,0,1.2-0.1v1.8
			c-0.4-0.1-0.6-0.1-1.2-0.1v4.2c0.4-0.2,0.7-0.3,1.5-0.7l0.1,1.8c-1.2,0.6-2.2,1-4.1,1.8c-0.3,0.1-0.5,0.2-0.8,0.3l-0.4-2
			c0.4-0.1,0.9-0.2,1.9-0.6v-4.9h-0.4c-0.5,0-0.9,0-1.3,0.1v-1.8c0.4,0.1,0.9,0.1,1.4,0.1h0.4V1693.8z M891.6,1703.3
			c-0.5,0-0.8,0-1.5,0.1c0-0.3,0.1-0.6,0.1-1.2v-3.1c0-0.6,0-1-0.1-1.3c0.4,0,0.8,0.1,1.6,0.1h5.9c0.8,0,1.2,0,1.6-0.1
			c-0.1,0.4-0.1,0.7-0.1,1.3v3c0,0.6,0,1,0.1,1.3c-0.4,0-0.7-0.1-1.4-0.1h-1.3v1.9c0,0.4,0.1,0.4,1,0.4c0.7,0,1-0.1,1.1-0.2
			c0.1-0.2,0.1-0.7,0.1-1.7c0.6,0.3,1,0.4,1.7,0.6c-0.2,2.6-0.5,2.9-3,2.9c-1.1,0-1.6-0.1-2-0.3c-0.4-0.2-0.6-0.4-0.6-1.1v-2.6h-1.2
			c-0.2,1.1-0.5,1.8-1.1,2.5c-0.8,0.8-1.8,1.3-3.8,1.8c-0.3-0.7-0.5-1.1-1-1.6c2.9-0.4,3.9-1,4.1-2.6H891.6z M897.9,1693.1
			c0.7,0,1.3,0,1.8-0.1v1.6c-0.6-0.1-0.9-0.1-1.7-0.1c-0.2,0.6-0.3,0.7-0.5,1.2h1c0.9,0,1.2,0,1.7-0.1v1.7c-0.6-0.1-1-0.1-1.8-0.1
			h-7.2c-0.9,0-1.1,0-1.6,0.1v-1.6c0.5,0.1,0.8,0.1,1.5,0.1h0.7c-0.2-0.5-0.2-0.7-0.5-1.2c-0.8,0-1,0-1.5,0.1v-1.6
			c0.5,0.1,1.1,0.1,1.8,0.1h2v-0.4c0-0.4,0-0.7-0.1-1h2c-0.1,0.4-0.1,0.6-0.1,1v0.4H897.9z M891.9,1699.9h5.5v-0.7h-5.5V1699.9z
			 M891.9,1701.9h5.5v-0.7h-5.5V1701.9z M895.6,1695.7c0.2-0.5,0.3-0.7,0.5-1.2h-3c0.2,0.4,0.3,0.8,0.5,1.2H895.6z"/>
	</g>
	<g id="features-05" transform="translate(640 1650)">
		<path class="st1" d="M21.6,35.5c-0.8,0-1.5-0.1-2.3-0.2c-3.3-0.6-6.3-2.5-8.2-5.3c-1.9-2.8-2.7-6.2-2.1-9.5l0,0
			c1.2-6.9,7.9-11.5,14.8-10.3c3.3,0.6,6.3,2.5,8.2,5.3c1.9,2.8,2.7,6.2,2.1,9.5c-0.6,3.4-2.5,6.3-5.3,8.2
			C26.7,34.8,24.2,35.5,21.6,35.5z M11,20.9c-0.5,2.8,0.1,5.7,1.8,8s4.1,3.9,6.9,4.4c2.8,0.5,5.7-0.1,8-1.8c2.4-1.6,3.9-4.1,4.4-6.9
			c0.5-2.8-0.1-5.7-1.8-8s-4.1-3.9-6.9-4.4C17.6,11.2,12,15.1,11,20.9L11,20.9z"/>
		<path class="st3" d="M46.8,15.9c-0.5,0-0.9-0.4-1-0.9c0-0.5,0.4-1,0.9-1.1l19.1-1.7c0.6,0,1,0.4,1.1,0.9s-0.4,1-0.9,1.1L46.8,15.9
			C46.8,15.9,46.8,15.9,46.8,15.9z"/>
		<path class="st3" d="M64.7,33c-0.1,0-0.2,0-0.3-0.1c-0.5-0.2-0.8-0.8-0.6-1.3l4.5-12.9c0.2-0.5,0.7-0.8,1.3-0.6
			c0.5,0.2,0.8,0.8,0.6,1.3l-4.5,12.9C65.5,32.8,65.1,33,64.7,33z"/>
		<path class="st1" d="M0,69.8c-0.6,0-1-0.4-1-1V58.4c0-3.8,1.7-7.4,4.5-9.9l0.6-0.5c3.6-3.1,8-5.1,12.8-5.7l14-1.9
			c1.6-0.2,3.2-0.6,4.8-1.2l22.5-8.1c3.4-1.2,7.2,0.2,9,3.3c0.8,1.4,1.1,3.1,0.7,4.7s-1.4,3-2.9,3.8c-0.1,0.1-0.2,0.1-0.3,0.2
			L42.6,54.6c-2.7,1.4-4.3,4.2-4.1,7.2l0.4,6.9c0,0.3-0.1,0.5-0.3,0.7c-0.2,0.2-0.5,0.3-0.7,0.3L0,69.8C0.1,69.8,0,69.8,0,69.8z
			 M1,67.8h35.8l-0.3-5.9c-0.2-3.8,1.8-7.3,5.2-9.1l22.1-11.5c0.1,0,0.1-0.1,0.2-0.1c1-0.6,1.7-1.5,1.9-2.6c0.3-1.1,0.1-2.2-0.5-3.2
			c-1.4-2.3-4.1-3.3-6.6-2.4l-22.5,8.1c-1.7,0.6-3.4,1-5.2,1.3l-14,1.9c-4.3,0.6-8.4,2.4-11.7,5.3L4.9,50C2.4,52.1,1,55.1,1,58.4
			V67.8z"/>
		<path class="st3" d="M46.2,25.9c-0.1,0-0.2,0-0.2,0c-0.5-0.1-0.9-0.7-0.7-1.2l6.3-24.9C51.6-0.7,52-1,52.4-1c0.4,0,0.8,0.2,1,0.6
			l8.7,23.3c0.2,0.5-0.1,1.1-0.6,1.3c-0.5,0.2-1.1-0.1-1.3-0.6L52.7,3.4l-5.5,21.8C47.1,25.6,46.7,25.9,46.2,25.9z"/>
	</g>
</g>
</svg>
