<svg xmlns="http://www.w3.org/2000/svg" width="180" height="208" viewBox="0 0 180 208">
  <g id="features_sq-4_sp" transform="translate(-11093 -1078)">
    <g id="features_sq-4" transform="translate(10896 -312)">
      <path id="パス_5991" data-name="パス 5991" d="M0,0H145V145H0Z" transform="translate(214 1390)" fill="#fff"/>
      <g id="features-05" transform="translate(251 1443)">
        <path id="楕円形_531" data-name="楕円形 531" d="M11.744-1A12.744,12.744,0,0,1,24.487,11.744,12.744,12.744,0,0,1,11.744,24.487,12.744,12.744,0,0,1-1,11.744,12.744,12.744,0,0,1,11.744-1Zm0,23.487a10.744,10.744,0,0,0,7.6-18.341A10.744,10.744,0,1,0,4.147,19.341,10.673,10.673,0,0,0,11.744,22.487Z" transform="matrix(0.177, -0.984, 0.984, 0.177, 7.918, 32.278)"/>
        <path id="線_17" data-name="線 17" d="M0,2.738A1,1,0,0,1-1,1.828,1,1,0,0,1-.091.742L19.02-1a1,1,0,0,1,1.086.905A1,1,0,0,1,19.2,1L.091,2.733Q.044,2.738,0,2.738Z" transform="translate(46.765 13.205)" fill="#ef8200"/>
        <path id="線_18" data-name="線 18" d="M0,13.92a1,1,0,0,1-.329-.056,1,1,0,0,1-.616-1.273L3.55-.329A1,1,0,0,1,4.823-.944,1,1,0,0,1,5.439.329L.944,13.248A1,1,0,0,1,0,13.92Z" transform="translate(64.652 19.11)" fill="#ef8200"/>
        <path id="パス_23" data-name="パス 23" d="M60.49,212.595a1,1,0,0,1-1-1V201.15a13.072,13.072,0,0,1,4.543-9.912l.572-.494a24.46,24.46,0,0,1,12.777-5.735l13.984-1.863a23.1,23.1,0,0,0,4.776-1.162l22.517-8.079a7.532,7.532,0,0,1,9.028,3.25,6.22,6.22,0,0,1-2.473,8.685l-22.133,11.548a7.674,7.674,0,0,0-4.1,7.212l.385,6.936a1,1,0,0,1-1,1.055h-37.8Zm1-2H97.307l-.327-5.881a9.678,9.678,0,0,1,5.176-9.1l22.133-11.548a4.22,4.22,0,0,0,1.678-5.892,5.565,5.565,0,0,0-4.764-2.713,5.508,5.508,0,0,0-1.867.326l-22.516,8.079a25.106,25.106,0,0,1-5.189,1.262l-13.984,1.863a22.464,22.464,0,0,0-11.734,5.266l-.572.494a11.074,11.074,0,0,0-3.849,8.4Z" transform="translate(-60.49 -142.797)"/>
        <path id="パス_24" data-name="パス 24" d="M225.921,87.059a1,1,0,0,1-.971-1.243L231.2,60.867a1,1,0,0,1,1.907-.106L241.8,84.041a1,1,0,1,1-1.874.7l-7.563-20.267L226.89,86.3A1,1,0,0,1,225.921,87.059Z" transform="translate(-179.708 -61.11)" fill="#ef8200"/>
      </g>
      <path id="パス_5983" data-name="パス 5983" d="M-.74-7.14A13.878,13.878,0,0,1-1.23-3.2,4.92,4.92,0,0,1-2.82-.68,4.538,4.538,0,0,1-5.74.2,4.12,4.12,0,0,1-9.52-1.74a10.26,10.26,0,0,1-1.2-5.4,14.259,14.259,0,0,1,.48-3.95,4.868,4.868,0,0,1,1.58-2.53,4.538,4.538,0,0,1,2.92-.88,4.149,4.149,0,0,1,3.78,1.94A10.168,10.168,0,0,1-.74-7.14Zm-6.98,0A12.069,12.069,0,0,0-7.3-3.47,1.572,1.572,0,0,0-5.74-2.24,1.59,1.59,0,0,0-4.18-3.46a11.538,11.538,0,0,0,.44-3.68,11.65,11.65,0,0,0-.44-3.68,1.6,1.6,0,0,0-1.56-1.24A1.574,1.574,0,0,0-7.3-10.82,12.172,12.172,0,0,0-7.72-7.14ZM11.1-2.96H9.38V0H6.44V-2.96H.34v-2.1L6.6-14.28H9.38V-5.3H11.1ZM6.44-5.3V-7.72q0-.46.02-1.12t.05-1.23q.03-.57.05-.75H6.48q-.18.4-.39.78t-.47.78L3-5.3Z" transform="translate(286 1427)" fill="#9fd4d5"/>
    </g>
    <path id="パス_5996" data-name="パス 5996" d="M-46.24-5.066h1.6a9.852,9.852,0,0,1,1.53.1V-6.8a10.789,10.789,0,0,1-1.683.1h-9.061v-.9h7.208a10.141,10.141,0,0,1,1.564.085V-9.078a11.313,11.313,0,0,1-1.564.085h-7.208v-.833h7.208a14.712,14.712,0,0,1,1.564.085v-1.547a11.68,11.68,0,0,1-1.564.085h-7.208v-.85h7.463a13.95,13.95,0,0,1,1.955.085v-1.8a11.514,11.514,0,0,1-1.972.1h-7.616a13.648,13.648,0,0,1-1.853-.085,13.233,13.233,0,0,1,.068,1.683V-6.7h-.884a10.978,10.978,0,0,1-1.768-.1v1.836a10.692,10.692,0,0,1,1.734-.1h.918V-.833a16.923,16.923,0,0,1-2.414.306l.357,1.9c.306-.085.357-.085.765-.17A49.229,49.229,0,0,0-50.456-.425l-.017-1.7a29.6,29.6,0,0,1-3.417.918V-5.066h1.479A9.038,9.038,0,0,0-49.81-1.7a14.715,14.715,0,0,0,6.12,2.958,8.31,8.31,0,0,1,.9-1.955A15,15,0,0,1-47.243-2.21a11.288,11.288,0,0,0,1.632-1.173c.629-.561.833-.748.969-.85Zm-.187,0A12.347,12.347,0,0,1-48.7-3.094,5.342,5.342,0,0,1-50.49-5.066Zm14.535-5.746V-9.2h-1.751a13.077,13.077,0,0,1-1.887-.1v1.8c.527-.051,1.156-.085,1.87-.085h4.029v1.445H-33.66a12.615,12.615,0,0,1-1.853-.085v1.853a15.225,15.225,0,0,1,1.819-.1h4.063V-.85c0,.374-.1.459-.629.459a15.145,15.145,0,0,1-1.9-.136,4.382,4.382,0,0,1,.408,1.785c1.173.017,1.173.017,1.326.017A4.765,4.765,0,0,0-28.56,1c.51-.238.68-.646.68-1.632V-4.471h.221a9.243,9.243,0,0,1,1.683.1V-6.222a10.368,10.368,0,0,1-1.683.085h-.221V-7.582h.289a11.056,11.056,0,0,1,1.666.085V-9.3a12.547,12.547,0,0,1-1.853.1h-2.346v-1.615h1.87a12.332,12.332,0,0,1,1.751.085v-1.8a12.533,12.533,0,0,1-1.768.1h-1.853v-.459a9.038,9.038,0,0,1,.085-1.275h-1.955a7.6,7.6,0,0,1,.1,1.275v.459h-1.5a12.367,12.367,0,0,1-1.768-.1v1.8a14.4,14.4,0,0,1,1.819-.085Zm-8.993,9.095a15.487,15.487,0,0,1-.1,2.023H-39.2V-1.122h1.547v.85h1.734c-.034-.425-.051-.8-.051-1.7V-11.7a12.754,12.754,0,0,1,.051-1.683c-.408.034-.714.051-1.479.051h-2.057a14.728,14.728,0,0,1-1.5-.051,15.937,15.937,0,0,1,.068,1.717Zm1.7-10h1.53V-8.16h-1.53Zm0,5.117h1.53v3.825h-1.53Zm8.007,4.93a13.046,13.046,0,0,0-2.227-2.6l-1.445.952A12.986,12.986,0,0,1-32.674-.527Zm17.816-3.876c0-.663.017-1.088.051-1.53A13.672,13.672,0,0,1-14.892-7h-3.791a13.861,13.861,0,0,1-1.581-.068c.034.459.051.935.051,1.53v4.148a11.719,11.719,0,0,1-.119,1.7h1.8V-.646h3.6c.136,0,.459,0,.952.017a6.456,6.456,0,0,1,.442,1.751c.867.051.935.051,1.173.051a5.178,5.178,0,0,0,1.921-.2c.612-.255.816-.7.816-1.717V-11.883c0-.85.017-1.275.068-1.887A15.25,15.25,0,0,1-11.3-13.7h-3.264A14.546,14.546,0,0,1-16.3-13.77c.034.527.051,1,.051,1.581v2.6c0,.731-.017,1.054-.051,1.547.425-.034.969-.051,1.564-.051h3.349V-.986c0,.34-.153.459-.629.459-.306,0-.918-.051-1.292-.085-.034-.442-.051-.833-.051-1.479Zm-1.207-6.783h3.179v.85h-3.179Zm0,2.057h3.179V-9.4h-3.179ZM-18.53-5.576h3.468v1.02H-18.53Zm0,2.4h3.468v1.105H-18.53Zm-3.553-4.913h3.077c.595,0,1.122.017,1.564.051-.034-.374-.051-.765-.051-1.547v-2.6c0-.663.017-1.037.051-1.581a14.364,14.364,0,0,1-1.734.068h-3.009a15.44,15.44,0,0,1-1.751-.068,18.847,18.847,0,0,1,.068,1.9v11.1a15.2,15.2,0,0,1-.1,2.108h1.989a14.746,14.746,0,0,1-.1-2.091Zm0-4.233h2.924v.85h-2.924Zm0,2.057h2.924V-9.4h-2.924ZM1.581-10.9a3.716,3.716,0,0,1,1.717.51A4.212,4.212,0,0,1,5.389-6.613a4.76,4.76,0,0,1-2.363,4.25,9.035,9.035,0,0,1-3.383.935A5.423,5.423,0,0,1,.68.561,11.114,11.114,0,0,0,3.349-.153,6.549,6.549,0,0,0,7.48-6.494C7.48-10.319,4.828-12.8.748-12.8A7.631,7.631,0,0,0-5.1-10.421,7.3,7.3,0,0,0-6.97-5.474c0,2.737,1.394,4.709,3.332,4.709,1.394,0,2.482-1,3.451-3.2A24.594,24.594,0,0,0,1.581-10.9Zm-2.074.017A22.4,22.4,0,0,1-1.9-5.134c-.612,1.462-1.19,2.176-1.751,2.176C-4.4-2.958-5-4.063-5-5.457a5.692,5.692,0,0,1,2.312-4.59A4.327,4.327,0,0,1-.493-10.88ZM18.53-6.12l.051,5.083v.306A10.824,10.824,0,0,1,18.479.9h2.312c-.051-.476-.085-1.122-.1-1.955L20.6-8.942h1.751a17.48,17.48,0,0,1,1.955.068v-2.057a9.666,9.666,0,0,1-2.006.119H20.587l-.034-1.377v-.1a10.907,10.907,0,0,1,.068-1.445H18.377a12.257,12.257,0,0,1,.085,1.564l.017,1.36H12.6a9.879,9.879,0,0,1-2.142-.119v2.074a17.71,17.71,0,0,1,2.091-.085H17.2a16.173,16.173,0,0,1-2.278,2.805A18.092,18.092,0,0,1,9.571-2.448,4.925,4.925,0,0,1,10.982-.68,24.625,24.625,0,0,0,13.5-2.244,23.4,23.4,0,0,0,16.847-5.2a10.3,10.3,0,0,0,1.734-2.38c-.017.272-.051,1.139-.051,1.224Zm8.432.782a18.662,18.662,0,0,1,2.771-.085H38.76a18.662,18.662,0,0,1,2.771.085V-7.7a16.7,16.7,0,0,1-2.754.119H29.716A16.7,16.7,0,0,1,26.962-7.7Zm19.244-7.956a8.544,8.544,0,0,1,.068,1.547c0,4.76-.391,6.953-1.615,8.908A6.984,6.984,0,0,1,42.908-.884,6.05,6.05,0,0,1,44.625.765,10.826,10.826,0,0,0,46.971-2.38c.884-1.751,1.258-3.672,1.377-6.987a35.526,35.526,0,0,1,.17-3.808Zm4.505-.119a7.357,7.357,0,0,1,.068,1.122v.51l-.085,9.588a7.618,7.618,0,0,1-.153,1.8L51.629.765A7.4,7.4,0,0,1,52.36.459a11.228,11.228,0,0,0,3.621-2.04,10.55,10.55,0,0,0,2.7-3.961,7.126,7.126,0,0,1-1.6-1.6A8.307,8.307,0,0,1,55.42-4.029a6.835,6.835,0,0,1-2.6,1.938l.085-9.673a9.212,9.212,0,0,1,.119-1.615ZM-63.512,13.2a13.6,13.6,0,0,1-3.162,3.179A24.827,24.827,0,0,1-75.6,20.8a6.394,6.394,0,0,1,1.139,1.938,27.544,27.544,0,0,0,6.069-2.754v5.984a9.562,9.562,0,0,1-.1,1.836h2.38a12.86,12.86,0,0,1-.085-1.887V18.653a30.062,30.062,0,0,0,4.012-3.5,7,7,0,0,1,.629-.595Zm6.086,2.89a17.848,17.848,0,0,1,4.335,3.451l1.462-1.853A24.077,24.077,0,0,0-56.015,14.4Zm.595,11.22a6.018,6.018,0,0,1,1.122-.289,18.362,18.362,0,0,0,6.477-2.55A14.92,14.92,0,0,0-43.843,17.8a7.331,7.331,0,0,1-1.8-1.666,14.2,14.2,0,0,1-1.734,3.4A11.358,11.358,0,0,1-52.428,23.7,16.2,16.2,0,0,1-57.46,24.96ZM-28.577,15.78l.731-.272a10.8,10.8,0,0,0-1.513-2.686l-1.258.425a10.542,10.542,0,0,1,1.241,2.125,8.217,8.217,0,0,1-.884.034l-3.723.051c-.34,0-.612.017-.816.034l.136-.255c.034-.068.034-.085.119-.238.17-.34.323-.68.459-.986a2.029,2.029,0,0,1,.289-.51l-2.329-.476a6.524,6.524,0,0,1-.867,2.261,13.393,13.393,0,0,1-4.4,4.93,4.517,4.517,0,0,1,1.649,1.462,16.893,16.893,0,0,0,3.978-4.369l5.117-.068a13.68,13.68,0,0,1-8.687,9.163,5.625,5.625,0,0,1,1.445,1.785,17.16,17.16,0,0,0,6.052-4.3,16.763,16.763,0,0,0,3.417-6.426A3.429,3.429,0,0,1-28,16.443Zm2.941-1.037a9.92,9.92,0,0,0-1.5-2.584l-1.224.425a12.177,12.177,0,0,1,1.462,2.635Zm3.6-1.156a10.733,10.733,0,0,1,.068,1.53v4.675a12.26,12.26,0,0,1-.085,1.53h2.329a8.206,8.206,0,0,1-.068-1.5V15.134a8.641,8.641,0,0,1,.068-1.53Zm7.667.034a8.952,8.952,0,0,1,.085,1.615v2.125c0,1.36-.017,2.108-.085,2.839-.187,2.244-.748,3.281-2.346,4.335a9.17,9.17,0,0,1-3.672,1.36,5.808,5.808,0,0,1,1.19,2.023,14.38,14.38,0,0,0,3.315-1.309,6.511,6.511,0,0,0,3.349-3.961,20.079,20.079,0,0,0,.442-5.151V15.2A8.063,8.063,0,0,1-12,13.621Zm8.585,4.131a17.008,17.008,0,0,1,1.547,4.114l1.921-.612a19.61,19.61,0,0,0-1.666-4.029Zm3.638-.714a18.694,18.694,0,0,1,1.547,4l1.887-.6a16.7,16.7,0,0,0-1.649-3.91Zm5.848-.17A7.541,7.541,0,0,1,3.4,18.823a9.775,9.775,0,0,1-3.859,5.9,11.027,11.027,0,0,1-2.89,1.564,6.175,6.175,0,0,1,1.36,1.683,13.049,13.049,0,0,0,5.185-4.1,14.512,14.512,0,0,0,2.346-5.661,3.578,3.578,0,0,1,.238-.867Zm8.041-1.649a19.959,19.959,0,0,1,4.539,2.346l1.088-1.87A27.261,27.261,0,0,0,12.852,13.5ZM10.4,19.35a19.883,19.883,0,0,1,4.607,2.5l1.054-1.921a24.033,24.033,0,0,0-4.522-2.312Zm.969,8.194a10.98,10.98,0,0,1,1.19-.272c4.182-.833,7.072-2.346,9.231-4.828a14.84,14.84,0,0,0,2.55-4.3,8.778,8.778,0,0,1-1.768-1.513A12.577,12.577,0,0,1,20.6,20.387a10.392,10.392,0,0,1-4.913,3.74,15.559,15.559,0,0,1-4.913,1.1ZM36.618,25.5c.289-1.53.476-2.737.731-4.607a6.119,6.119,0,0,1,.391-1.938l-.935-.816a3.792,3.792,0,0,1-1.258.153h-4.3a9.718,9.718,0,0,1-1.564-.1v1.921a10.919,10.919,0,0,1,1.513-.068h4.216c-.17,1.547-.527,3.944-.816,5.457H29.58a7.678,7.678,0,0,1-1.564-.1V27.34a12.633,12.633,0,0,1,1.564-.068H38.4a12.989,12.989,0,0,1,1.564.068V25.4a7.58,7.58,0,0,1-1.564.1Zm20.621-2.057a2.76,2.76,0,0,1,.578.034,8.074,8.074,0,0,1-.051-1.02V21.016a9.2,9.2,0,0,1,.051-1.071c-.374.034-.85.051-1.53.051H50.116c-.578,0-1.02-.017-1.428-.051A8.88,8.88,0,0,1,48.739,21V22.41a5.45,5.45,0,0,1-.068,1.071,13.213,13.213,0,0,1,1.36-.051h1.36a10.656,10.656,0,0,1-4.9,3.077,5.141,5.141,0,0,1,1.122,1.547,11.715,11.715,0,0,0,4.352-3.111c-.034.34-.051.884-.051,1.19v.918a8.281,8.281,0,0,1-.085,1.462h1.955a7.81,7.81,0,0,1-.085-1.377V26.2a11.476,11.476,0,0,0-.068-1.275,7.361,7.361,0,0,0,1.717,1.683,11.394,11.394,0,0,0,2.924,1.564,11.232,11.232,0,0,1,.918-1.7,9.69,9.69,0,0,1-2.567-1.037,14.636,14.636,0,0,0,1.258-.986c.289-.238.34-.289.476-.408Zm-.748-.017h.187a7.024,7.024,0,0,1-1.343,1.139,5.1,5.1,0,0,1-1.19-1.139Zm-6.018-2.176H56v.833H50.473Zm-5.627-6.1V18.5h-.153a5.887,5.887,0,0,1-1.19-.085v1.734a7.687,7.687,0,0,1,1.156-.068h.187v3.808a9.607,9.607,0,0,1-1.887.493l.442,1.955c.2-.1.612-.272.884-.374A40.252,40.252,0,0,0,48.263,24.3V22.546c-.884.391-1.173.51-1.649.7V20.081a9.907,9.907,0,0,1,1,.051v-1.7a5.937,5.937,0,0,1-1,.068V15.151H46.8a5.578,5.578,0,0,1,1.071.085V13.417a9.1,9.1,0,0,1-1.5.1H44.71a8.938,8.938,0,0,1-1.462-.1v1.819a6.36,6.36,0,0,1,1.224-.085Zm3.485.765a9.131,9.131,0,0,1-.051,1.19c.493-.034.714-.034,1.343-.034h7.344c.629,0,.918.017,1.309.034-.034-.357-.051-.8-.051-1.173V14.3a10.136,10.136,0,0,1,.068-1.207c-.408.034-.952.068-1.36.068h-7.31a10.49,10.49,0,0,1-1.36-.068,7.267,7.267,0,0,1,.068,1.224Zm2.839-.085H49.929V14.556H51.17Zm2.737,0H52.649V14.556h1.258Zm2.754,0H55.369V14.556h1.292Zm-8.67,3.519a11.149,11.149,0,0,1,1.615-.085h7.548a11.586,11.586,0,0,1,1.615.085V17.633a11.4,11.4,0,0,1-1.632.085H49.623a8.968,8.968,0,0,1-1.632-.1Zm19.482,5c-.221,1.615-1.292,2.278-4.148,2.635a5.369,5.369,0,0,1,.969,1.615c2.006-.459,2.992-.918,3.791-1.751a4.1,4.1,0,0,0,1.088-2.5h1.19v2.584c0,.646.119.9.561,1.088a5.089,5.089,0,0,0,2.04.255c2.516,0,2.856-.306,3.026-2.89a6.353,6.353,0,0,1-1.683-.595,4.86,4.86,0,0,1-.136,1.666c-.1.17-.34.221-1.054.221-.935,0-1.02-.034-1.02-.391V24.348h1.326c.7,0,1,.017,1.428.051a9.888,9.888,0,0,1-.068-1.343V20.1a9.73,9.73,0,0,1,.068-1.343c-.442.034-.816.051-1.6.051H67.32c-.8,0-1.173-.017-1.615-.051a9.27,9.27,0,0,1,.068,1.343v3.06a10.687,10.687,0,0,1-.051,1.241c.68-.034.935-.051,1.462-.051Zm.034-4.165H73v.68H67.507Zm0,1.972H73V22.9H67.507ZM61.9,17.072H61.54a8.586,8.586,0,0,1-1.36-.085v1.819a10.933,10.933,0,0,1,1.343-.085H61.9V23.6a10.022,10.022,0,0,1-1.921.578l.374,1.972c.238-.119.493-.221.782-.34,1.87-.765,2.941-1.207,4.1-1.768l-.068-1.819c-.833.391-1.071.493-1.5.68V18.721a7.5,7.5,0,0,1,1.173.068V17.021a10.558,10.558,0,0,1-1.173.051V14.811a11.332,11.332,0,0,1,.1-1.9H61.795a13.743,13.743,0,0,1,.1,1.887Zm9.248-2.992v-.391a4.6,4.6,0,0,1,.085-1H69.241a6.023,6.023,0,0,1,.085,1.02v.374h-2.04a14.028,14.028,0,0,1-1.819-.085v1.581a10.67,10.67,0,0,1,1.479-.068,8.362,8.362,0,0,1,.459,1.173h-.7a13.161,13.161,0,0,1-1.513-.068v1.649a12.82,12.82,0,0,1,1.564-.051h7.208a13.318,13.318,0,0,1,1.785.085V16.6a10.986,10.986,0,0,1-1.717.085h-.986a11.312,11.312,0,0,0,.544-1.173,15.88,15.88,0,0,1,1.734.068V13.995a17.77,17.77,0,0,1-1.836.085Zm-1.955,2.6q-.2-.586-.459-1.173h3.026a10.2,10.2,0,0,1-.51,1.173Z" transform="translate(11182.599 1255)"/>
    <rect id="長方形_222" data-name="長方形 222" width="180" height="206" transform="translate(11093 1080)" fill="none"/>
  </g>
</svg>
