<svg xmlns="http://www.w3.org/2000/svg" width="360" height="96" viewBox="0 0 360 96">
  <g id="features_hover_7-sp" transform="translate(-10086 -1781)">
    <g id="グループ_1019" data-name="グループ 1019" transform="translate(10086 1781.03)">
      <rect id="長方形_166" data-name="長方形 166" width="360" height="96" rx="10" transform="translate(0 -0.03)" fill="#fff"/>
      <path id="長方形_166_-_アウトライン" data-name="長方形 166 - アウトライン" d="M10,2a8.009,8.009,0,0,0-8,8V86a8.009,8.009,0,0,0,8,8H350a8.009,8.009,0,0,0,8-8V10a8.009,8.009,0,0,0-8-8H10m0-2H350a10,10,0,0,1,10,10V86a10,10,0,0,1-10,10H10A10,10,0,0,1,0,86V10A10,10,0,0,1,10,0Z" transform="translate(0 -0.03)" fill="#fff"/>
      <path id="パス_5922" data-name="パス 5922" d="M-45.93-6.09v1.695h-2.2A12.534,12.534,0,0,1-49.8-4.47v1.68a14.958,14.958,0,0,1,1.665-.075h2.2V-.84h-3.72a15.241,15.241,0,0,1-1.92-.09V.825a12.935,12.935,0,0,1,1.875-.1h9.36a13.162,13.162,0,0,1,1.89.1V-.93a15.806,15.806,0,0,1-1.9.09h-3.9V-2.865h2.43a14.848,14.848,0,0,1,1.65.075V-4.47a14.075,14.075,0,0,1-1.65.075h-2.43V-6.09h2.115a14.627,14.627,0,0,1,1.59.075v-1.1c.675.39,1.11.63,1.785.945A7.09,7.09,0,0,1-37.8-7.89a13.592,13.592,0,0,1-3.675-1.9,10.944,10.944,0,0,1-2.67-2.655h-1.9a6.3,6.3,0,0,1-.81,1.08A13.437,13.437,0,0,1-48.51-9.8a14.55,14.55,0,0,1-3.63,1.98,9.455,9.455,0,0,1,.99,1.59,13.349,13.349,0,0,0,1.635-.855v1.065A14.739,14.739,0,0,1-47.88-6.09ZM-48-7.605c-.225,0-.36,0-.66-.015a12.041,12.041,0,0,0,3.615-3.405,13.449,13.449,0,0,0,3.69,3.405c-.285.015-.39.015-.705.015ZM-26.52-6.15A9.031,9.031,0,0,1-27.7-3.735a9.521,9.521,0,0,1-1.185-2.34l-1.365.69a11.808,11.808,0,0,0,1.56,2.88A8.975,8.975,0,0,1-32.55-.165a5.262,5.262,0,0,1,.93,1.455A10.961,10.961,0,0,0-27.7-1.3a10.676,10.676,0,0,0,4,2.565,6,6,0,0,1,.84-1.635,9.061,9.061,0,0,1-3.84-2.16A15.454,15.454,0,0,0-25.035-5.52Zm-3.24-2.97a8.08,8.08,0,0,1-2.055,2.955,6.745,6.745,0,0,1-1.41-2.22h.6a8.449,8.449,0,0,1,.87.045V-9.885a5.2,5.2,0,0,1-.9.06h-.6V-11.07a12.873,12.873,0,0,1,.075-1.56h-1.68a10.115,10.115,0,0,1,.075,1.56v1.245h-.75a8.252,8.252,0,0,1-1.155-.06v1.56a8.819,8.819,0,0,1,1.155-.06h.585a13.482,13.482,0,0,1-2.16,4.62,9.938,9.938,0,0,1,.825,1.695,12.27,12.27,0,0,0,1.59-3.54c-.045.81-.06,1.23-.06,1.23l-.015.765V-.54a11.964,11.964,0,0,1-.1,1.845h1.71a14.882,14.882,0,0,1-.09-1.845V-4.17c0-.165-.015-.93-.015-.99-.03-.825-.03-.825-.045-1.095a13.533,13.533,0,0,0,.975,1.77,8.615,8.615,0,0,1,.5-1.095,4.711,4.711,0,0,1,.735.99,11.891,11.891,0,0,0,2.79-3.885Zm1.275-1.635H-29.79a12.432,12.432,0,0,1-1.665-.09V-9.18a13.328,13.328,0,0,1,1.68-.09h4.95c.66,0,1.17.03,1.665.075v-1.65a12.342,12.342,0,0,1-1.65.09h-2.04V-11.4a5.5,5.5,0,0,1,.075-1.1H-28.56a5.927,5.927,0,0,1,.075,1.125Zm1.5,2.325a10.9,10.9,0,0,0,3.03,3.69,6.158,6.158,0,0,1,.93-1.425,8.987,8.987,0,0,1-2.655-3Zm10.11-.075a14.106,14.106,0,0,1-5.22,5.76,5.17,5.17,0,0,1,1.02,1.575,14.339,14.339,0,0,0,2.43-2.1v1.7a10.731,10.731,0,0,1,1.5-.09h1.185v1.02a13.85,13.85,0,0,1-.105,1.86h1.89a13.554,13.554,0,0,1-.105-1.86v-1.02h1.335a10.883,10.883,0,0,1,1.5.09v-1.71A16.722,16.722,0,0,0-8.925-1.2,6.121,6.121,0,0,1-7.9-2.835a12.835,12.835,0,0,1-3.27-2.52,14.874,14.874,0,0,1-2.25-3.15h3.21a17.716,17.716,0,0,1,1.815.09v-1.83a12.316,12.316,0,0,1-1.815.105H-14.28v-1.08a7.489,7.489,0,0,1,.105-1.38H-16.05a9.324,9.324,0,0,1,.09,1.395v1.065h-3.855a13,13,0,0,1-1.785-.105v1.83a17.128,17.128,0,0,1,1.785-.09Zm2.595,5.22v-2.37a12.121,12.121,0,0,0-.135-1.665,16.236,16.236,0,0,0,2.91,3.975,9.386,9.386,0,0,1-1.32.06Zm-1.68,0h-1.275a9.5,9.5,0,0,1-1.335-.06A14.875,14.875,0,0,0-15.84-7.32a14.689,14.689,0,0,0-.12,1.68Zm13.995-7.86v-.42a6.728,6.728,0,0,1,.075-1.05H-3.675a5.265,5.265,0,0,1,.09,1.05v.42h-1.53A8.109,8.109,0,0,1-6.54-11.22V-9.6a6.769,6.769,0,0,1,1.23-.075h4.8A6.446,6.446,0,0,1,.75-9.6v-1.62a7.85,7.85,0,0,1-1.365.075Zm1.11,4.05A13.208,13.208,0,0,0-.06-9.15l-1.545-.39a12.231,12.231,0,0,1-.78,2.445H-5.34A9.576,9.576,0,0,1-6.855-7.17v1.65a9.832,9.832,0,0,1,1.5-.075H-.33A7,7,0,0,1,.885-5.52V-7.17a6.611,6.611,0,0,1-1.29.075ZM-5.565-9.21a9.064,9.064,0,0,1,.7,2.1l1.485-.45a10.175,10.175,0,0,0-.78-2.1ZM-4.395.315H-1.47V1.17H.18A7.533,7.533,0,0,1,.12.045V-3.6A8.539,8.539,0,0,1,.165-4.71,8.1,8.1,0,0,1-.93-4.665H-4.8c-.555,0-.855-.015-1.2-.045.03.345.045.615.045,1.23V-.225a12.18,12.18,0,0,1-.06,1.41h1.62Zm0-3.54h2.94v2.1h-2.94Zm10.7-9.03a5.77,5.77,0,0,1-1.185.075H2.52a10.227,10.227,0,0,1-1.23-.06,11.442,11.442,0,0,1,.06,1.26V-.435a14.192,14.192,0,0,1-.09,1.71H3.03A10.349,10.349,0,0,1,2.925-.48V-10.695H5.01a16.548,16.548,0,0,1-1.65,3.93,6.119,6.119,0,0,1,1.56,1.95A4.437,4.437,0,0,1,5.4-2.88c0,.48-.24.645-.99.645a6.7,6.7,0,0,1-1.125-.09A3.533,3.533,0,0,1,3.63-.69a7.208,7.208,0,0,0,.75.03,4.009,4.009,0,0,0,1.53-.2A1.82,1.82,0,0,0,6.975-2.73a5.623,5.623,0,0,0-.42-2.085A6.723,6.723,0,0,0,5.115-6.99a31.063,31.063,0,0,0,1.62-3.57,4.928,4.928,0,0,1,.3-.66Zm9.63,3.4V-8.2H13.8c-.57,0-.84-.015-1.2-.045a6.719,6.719,0,0,1,.045,1.11v2.265a7.017,7.017,0,0,1-.045,1.1,9.8,9.8,0,0,1,1.2-.045h2.145v.675H13.14a9.647,9.647,0,0,1-1.185-.075V-1.8a6.811,6.811,0,0,1,1.2-.075H15.93A7.5,7.5,0,0,1,15.84-.78h1.68a7.15,7.15,0,0,1-.09-1.095H20.4a8.99,8.99,0,0,1,1.245.06v-1.41a6.03,6.03,0,0,1-1.2.075H17.43v-.675h2.28c.465,0,.735.015,1.23.045a7.477,7.477,0,0,1-.06-1.1V-7.14a7.835,7.835,0,0,1,.06-1.11,12.134,12.134,0,0,1-1.23.045H17.415V-8.85h2.13a7.221,7.221,0,0,1,1.095.06v-.54h1.08a4.6,4.6,0,0,1-.075-.975v-.9a5.847,5.847,0,0,1,.06-.96,13.335,13.335,0,0,1-1.425.06H13.29a13.044,13.044,0,0,1-1.455-.06,6.62,6.62,0,0,1,.06.99v.93a5.86,5.86,0,0,1-.06.915H12.84v.54a7.971,7.971,0,0,1,1.11-.06Zm0-1.23H13.875a4.514,4.514,0,0,1-.465-.015v-.72h2.52Zm1.485,0v-.735H20.1v.735H17.415ZM15.93-7.155v.66H14.115v-.66Zm1.485,0H19.38v.66H17.415ZM15.93-5.52v.63H14.115v-.63Zm1.485,0H19.38v.63H17.415Zm-9.2-5.8A12.337,12.337,0,0,1,10.485-8.5L11.67-9.8a15.535,15.535,0,0,0-2.25-2.64ZM8.145-5.25a5.838,5.838,0,0,1,1.02-.075h.8V-2.1A9.25,9.25,0,0,1,7.815-.63L8.55,1.08c.165-.135.315-.255.435-.345A13.523,13.523,0,0,0,10.725-.69,3.976,3.976,0,0,0,13.92.9c.615.045,1.89.09,2.79.09,1.74,0,3-.03,5.025-.12a6.23,6.23,0,0,1,.45-1.59,50.433,50.433,0,0,1-5.655.24A14.076,14.076,0,0,1,13.065-.7a2.264,2.264,0,0,1-1.53-1.17v-3.36A15.113,15.113,0,0,1,11.6-6.87a6.712,6.712,0,0,1-1.14.075H9.345a6.915,6.915,0,0,1-1.2-.075Zm16.995-5.4c-.675,0-1.095-.015-1.59-.06a13.453,13.453,0,0,1,.06,1.365V-8.16a9.79,9.79,0,0,1-.075,1.17h1.65V-9.255h9.66V-6.99H36.5a9.461,9.461,0,0,1-.06-1.185v-1.2a11.281,11.281,0,0,1,.045-1.335,15.2,15.2,0,0,1-1.6.06h-.9c.285-.42.735-1.155.99-1.62l-1.74-.39a10.269,10.269,0,0,1-1.065,2.01H31.08a19.918,19.918,0,0,0-.915-1.995l-1.68.27a13.842,13.842,0,0,1,.84,1.725h-1.38a13.964,13.964,0,0,0-1.125-1.86l-1.65.345a8.078,8.078,0,0,1,.96,1.515ZM28.9-4.635A6.034,6.034,0,0,1,28.35-3.57H25.875a11.419,11.419,0,0,1-1.4-.06A11.441,11.441,0,0,1,24.555-2.2v1.95c0,.51-.03.975-.075,1.485h1.665V.645H33.84V1.23h1.695A9.755,9.755,0,0,1,35.46-.24V-2.19a11.312,11.312,0,0,1,.06-1.44,11.193,11.193,0,0,1-1.425.06H30.1a9.884,9.884,0,0,0,.51-1.065h2.13a15.492,15.492,0,0,1,1.575.06,9.527,9.527,0,0,1-.045-1.35V-7.3A7.6,7.6,0,0,1,34.32-8.49a7.744,7.744,0,0,1-1.1.06h-6.39a8.3,8.3,0,0,1-1.14-.06,7.627,7.627,0,0,1,.06,1.14v1.425a10.465,10.465,0,0,1-.06,1.35,13.884,13.884,0,0,1,1.575-.06ZM27.315-7.17H32.7v1.275H27.315Zm-1.17,4.92h7.71V-.8h-7.71ZM48.48-6.15a9.031,9.031,0,0,1-1.185,2.415,9.521,9.521,0,0,1-1.185-2.34l-1.365.69a11.808,11.808,0,0,0,1.56,2.88A8.975,8.975,0,0,1,42.45-.165a5.262,5.262,0,0,1,.93,1.455,10.961,10.961,0,0,0,3.915-2.6A10.676,10.676,0,0,0,51.3,1.26a6,6,0,0,1,.84-1.635,9.061,9.061,0,0,1-3.84-2.16A15.454,15.454,0,0,0,49.965-5.52ZM45.24-9.12a8.08,8.08,0,0,1-2.055,2.955,6.745,6.745,0,0,1-1.41-2.22h.6a8.449,8.449,0,0,1,.87.045V-9.885a5.2,5.2,0,0,1-.9.06h-.6V-11.07a12.873,12.873,0,0,1,.075-1.56H40.14a10.115,10.115,0,0,1,.075,1.56v1.245h-.75a8.252,8.252,0,0,1-1.155-.06v1.56a8.819,8.819,0,0,1,1.155-.06h.585a13.482,13.482,0,0,1-2.16,4.62,9.938,9.938,0,0,1,.825,1.695,12.27,12.27,0,0,0,1.59-3.54c-.045.81-.06,1.23-.06,1.23l-.015.765V-.54a11.964,11.964,0,0,1-.1,1.845h1.71a14.882,14.882,0,0,1-.09-1.845V-4.17c0-.165-.015-.93-.015-.99-.03-.825-.03-.825-.045-1.095a13.533,13.533,0,0,0,.975,1.77,8.615,8.615,0,0,1,.495-1.095,4.711,4.711,0,0,1,.735.99,11.891,11.891,0,0,0,2.79-3.885Zm1.275-1.635H45.21a12.432,12.432,0,0,1-1.665-.09V-9.18a13.328,13.328,0,0,1,1.68-.09h4.95c.66,0,1.17.03,1.665.075v-1.65a12.342,12.342,0,0,1-1.65.09H48.15V-11.4a5.5,5.5,0,0,1,.075-1.1H46.44a5.927,5.927,0,0,1,.075,1.125Zm1.5,2.325a10.9,10.9,0,0,0,3.03,3.69,6.158,6.158,0,0,1,.93-1.425,8.987,8.987,0,0,1-2.655-3Z" transform="translate(257 52.97)" fill="#5a534a"/>
      <g id="features-08-07" transform="translate(46.47 20.554)">
        <path id="パス_5914" data-name="パス 5914" d="M65.64,1H0A1,1,0,0,1-1,0,1,1,0,0,1,0-1H65.64a1,1,0,0,1,1,1A1,1,0,0,1,65.64,1Z" transform="translate(0 54.459)" fill="#5a534a"/>
        <path id="パス_50" data-name="パス 50" d="M125.2,105.291,90.763,82.12,57.74,105.291h8.484v31.287H115.3V105.291Z" transform="translate(-57.74 -82.12)" fill="rgba(0,0,0,0)"/>
        <path id="パス_50_-_アウトライン" data-name="パス 50 - アウトライン" d="M90.763,81.12a1,1,0,0,1,.558.17l34.436,23.171a1,1,0,0,1-.558,1.83h-8.9v30.287a1,1,0,0,1-1,1H66.224a1,1,0,0,1-1-1V106.291H57.74a1,1,0,0,1-.574-1.819L90.188,81.3A1,1,0,0,1,90.763,81.12Zm31.158,23.171L90.775,83.333,60.906,104.291h5.318a1,1,0,0,1,1,1v30.287H114.3V105.291a1,1,0,0,1,1-1Z" transform="translate(-57.74 -82.12)" fill="#5a534a"/>
        <path id="パス_51" data-name="パス 51" d="M143.2,187.558c10.9-4.828,16.911-13.773,12.4-20.207-3.151-4.5-9.771-3.333-12.4,0-2.631-3.333-9.251-4.5-12.4,0C126.283,173.785,132.3,182.73,143.2,187.558Z" transform="translate(-110.209 -142.463)" fill="#ef8200"/>
      </g>
    </g>
  </g>
</svg>
