<svg xmlns="http://www.w3.org/2000/svg" width="220" height="206" viewBox="0 0 220 206">
  <g id="features_sq-3" transform="translate(-10870 -1078)">
    <g id="features_sq-3-2" data-name="features_sq-3" transform="translate(10072 -110)">
      <path id="パス_5988" data-name="パス 5988" d="M0,0H145V145H0Z" transform="translate(836 1188)" fill="#fff"/>
      <g id="features-04" transform="translate(866 1248)">
        <path id="パス_5914" data-name="パス 5914" d="M0,23.136a1,1,0,0,1-1-1V0A1,1,0,0,1,0-1,1,1,0,0,1,1,0V22.136A1,1,0,0,1,0,23.136Z" transform="translate(76.813 18.343)"/>
        <path id="パス_20" data-name="パス 20" d="M296.827,259.033H291.88a1,1,0,0,1-.993-1.117l1.251-10.6a1,1,0,0,1,.993-.883h2.444a1,1,0,0,1,.993.883l1.251,10.6a1,1,0,0,1-.993,1.117Zm-3.822-2h2.7l-1.015-8.6h-.666Z" transform="translate(-217.541 -199.443)"/>
        <path id="楕円形_530" data-name="楕円形 530" d="M2.473-1A3.473,3.473,0,1,1-1,2.473,3.477,3.477,0,0,1,2.473-1Zm0,4.947A1.473,1.473,0,1,0,1,2.473,1.475,1.475,0,0,0,2.473,3.947Z" transform="translate(74.339 40.479)" fill="#ef8200"/>
        <path id="パス_21" data-name="パス 21" d="M123.371,188.459a58.392,58.392,0,0,1-18.423-2.655,19.014,19.014,0,0,1-5.791-2.993,5.531,5.531,0,0,1-2.377-4.228V151.51a1,1,0,0,1,1-1h51.183a1,1,0,0,1,1,1v27.074a5.531,5.531,0,0,1-2.377,4.228,19.014,19.014,0,0,1-5.791,2.993A58.391,58.391,0,0,1,123.371,188.459ZM98.78,152.51v26.074a3.679,3.679,0,0,0,1.645,2.682,17.335,17.335,0,0,0,5.178,2.65,56.375,56.375,0,0,0,17.768,2.544,56.375,56.375,0,0,0,17.768-2.544,17.335,17.335,0,0,0,5.178-2.65,3.679,3.679,0,0,0,1.645-2.682V152.51Z" transform="translate(-80.866 -131.901)"/>
        <path id="パス_22" data-name="パス 22" d="M41.479,97.756,81.937,85.39a3.65,3.65,0,0,1,2.136,0l40.659,12.367a1.229,1.229,0,0,1,.036,2.34L84.18,113.824a3.67,3.67,0,0,1-2.349,0L41.444,100.1a1.23,1.23,0,0,1,.036-2.34Z" transform="translate(-40.61 -85.23)" fill="#ff8100"/>
        <path id="パス_22_-_アウトライン" data-name="パス 22 - アウトライン" d="M83,84.23a4.66,4.66,0,0,1,1.361.2L125.024,96.8a2.229,2.229,0,0,1,.064,4.245L84.5,114.772a4.67,4.67,0,0,1-2.99,0L41.122,101.046a2.23,2.23,0,0,1-.027-4.213q.045-.019.092-.033L81.645,84.433A4.637,4.637,0,0,1,83,84.23Zm0,28.787a2.674,2.674,0,0,0,.856-.141l40.587-13.727a.229.229,0,0,0-.007-.436L83.783,86.347a2.661,2.661,0,0,0-1.552,0L41.843,98.691q-.035.014-.071.025a.23.23,0,0,0-.006.437l40.387,13.724A2.652,2.652,0,0,0,83,113.017Z" transform="translate(-40.61 -85.23)"/>
      </g>
      <path id="パス_5980" data-name="パス 5980" d="M-.74-7.14A13.878,13.878,0,0,1-1.23-3.2,4.92,4.92,0,0,1-2.82-.68,4.538,4.538,0,0,1-5.74.2,4.12,4.12,0,0,1-9.52-1.74a10.26,10.26,0,0,1-1.2-5.4,14.259,14.259,0,0,1,.48-3.95,4.868,4.868,0,0,1,1.58-2.53,4.538,4.538,0,0,1,2.92-.88,4.149,4.149,0,0,1,3.78,1.94A10.168,10.168,0,0,1-.74-7.14Zm-6.98,0A12.069,12.069,0,0,0-7.3-3.47,1.572,1.572,0,0,0-5.74-2.24,1.59,1.59,0,0,0-4.18-3.46a11.538,11.538,0,0,0,.44-3.68,11.65,11.65,0,0,0-.44-3.68,1.6,1.6,0,0,0-1.56-1.24A1.574,1.574,0,0,0-7.3-10.82,12.172,12.172,0,0,0-7.72-7.14Zm17.94-3.94a3.169,3.169,0,0,1-.89,2.36,4.616,4.616,0,0,1-2.19,1.2v.06A4.574,4.574,0,0,1,9.74-6.4a2.918,2.918,0,0,1,.9,2.24,4.165,4.165,0,0,1-.61,2.23A4.091,4.091,0,0,1,8.15-.37,8.037,8.037,0,0,1,4.88.2,10.275,10.275,0,0,1,.76-.58V-3.14a8.95,8.95,0,0,0,1.92.7,8.074,8.074,0,0,0,1.88.24,3.52,3.52,0,0,0,2.27-.56,1.973,1.973,0,0,0,.65-1.58,1.675,1.675,0,0,0-.3-1,1.851,1.851,0,0,0-1.05-.63,8.119,8.119,0,0,0-2.09-.21H2.96V-8.5h1.1a6.2,6.2,0,0,0,2.01-.25,1.7,1.7,0,0,0,.94-.68,1.933,1.933,0,0,0,.25-.99,1.532,1.532,0,0,0-.47-1.19,2.3,2.3,0,0,0-1.57-.43,4.118,4.118,0,0,0-1.78.36A11.535,11.535,0,0,0,2.18-11L.78-13.08a7.91,7.91,0,0,1,1.97-1,8.08,8.08,0,0,1,2.69-.4,6.053,6.053,0,0,1,3.49.89A2.874,2.874,0,0,1,10.22-11.08Z" transform="translate(908 1223)" fill="#9fd4d5"/>
    </g>
    <path id="パス_5995" data-name="パス 5995" d="M-66.861-.51c0,.646.17,1,.578,1.207a6.022,6.022,0,0,0,2.516.34c2.023,0,2.805-.17,3.281-.731.374-.459.527-1.224.629-3.247a6.639,6.639,0,0,1-1.785-.6q-.051,1.4-.051,1.581A2.677,2.677,0,0,1-61.846-1c-.153.255-.578.34-1.819.34-1.19,0-1.36-.068-1.36-.51V-6.562c.782-.068.782-.068,2.091-.2.357.408.6.7,1.207,1.479l1.445-1.19a30.257,30.257,0,0,0-4.437-4.08l-1.462.833c.918.714,1.224.986,1.768,1.479-1.683.153-2.907.221-5.287.306a23.193,23.193,0,0,0,1.938-2.737h5.9a12.6,12.6,0,0,1,1.87.085v-1.955a10.733,10.733,0,0,1-1.853.119h-4.913v-.595a6.854,6.854,0,0,1,.1-1.224H-68.8a7.051,7.051,0,0,1,.1,1.241v.578h-4.59a11.4,11.4,0,0,1-1.9-.119v1.955a15.917,15.917,0,0,1,1.836-.085h3.485a15.361,15.361,0,0,1-1.9,2.788c-.289,0-.527,0-.663.017h-.7a10.9,10.9,0,0,1-1.343-.068L-74.2-5.95a13.523,13.523,0,0,1,1.36-.119c.952-.034,1.275-.051,2.261-.1a5.737,5.737,0,0,1-1.037,3.519A7.729,7.729,0,0,1-75.463-.34a7.419,7.419,0,0,1,1.088,1.751,9.389,9.389,0,0,0,4.352-3.06,7.77,7.77,0,0,0,1.292-4.607c.34-.034.714-.051,1.1-.085.17-.017.442-.034.765-.068Zm15.266-7.8c0,.459,0,.459-.017.935H-54.6a10.733,10.733,0,0,1-1.53-.068v1.615A11.2,11.2,0,0,1-54.6-5.9h2.873c-.051.408-.085.6-.153.918h-4.454a10.986,10.986,0,0,1-1.717-.085v1.785a15.646,15.646,0,0,1,1.819-.1h3.757a5.016,5.016,0,0,1-2.159,1.989A10.354,10.354,0,0,1-58.327-.357a5.6,5.6,0,0,1,.9,1.768,11.03,11.03,0,0,0,4.148-1.53A6.683,6.683,0,0,0-50.8-2.788,8.993,8.993,0,0,0-46.767.442a16.649,16.649,0,0,0,3.179.986A6.8,6.8,0,0,1-42.7-.408c-.935-.17-1.462-.272-1.887-.391a10.777,10.777,0,0,1-2.992-1.156,5.787,5.787,0,0,1-1.581-1.428h4.335a14.911,14.911,0,0,1,1.836.1V-5.066a11.623,11.623,0,0,1-1.751.085h-5.3c.068-.357.085-.493.136-.918h3.281a11.078,11.078,0,0,1,1.513.068V-7.446a10.455,10.455,0,0,1-1.513.068H-49.81c.017-.391.017-.391.034-.935h3.417a9.681,9.681,0,0,1,1.615.085v-.9h1.564a9.354,9.354,0,0,1-.068-1.258v-1.292a9.762,9.762,0,0,1,.068-1.241c-.578.051-1.02.068-1.887.068h-4.658v-.391a5.162,5.162,0,0,1,.085-1.071h-2.091a5.328,5.328,0,0,1,.1,1.071v.391h-4.42a18.532,18.532,0,0,1-1.87-.068,10.492,10.492,0,0,1,.068,1.275v1.258a6.633,6.633,0,0,1-.085,1.258h1.564v.9a9.328,9.328,0,0,1,1.6-.085Zm-3.179-1.5a11.882,11.882,0,0,1-1.309-.051v-1.394h11.067V-9.86c-.425.034-.7.051-1.343.051h-3.383a5.581,5.581,0,0,1,.068-1.088h-1.972a8.123,8.123,0,0,1,.068,1.088ZM-32.249-10.9a3.716,3.716,0,0,1,1.717.51,4.212,4.212,0,0,1,2.091,3.774A4.76,4.76,0,0,1-30.8-2.363a9.035,9.035,0,0,1-3.383.935A5.423,5.423,0,0,1-33.15.561a11.114,11.114,0,0,0,2.669-.714A6.549,6.549,0,0,0-26.35-6.494c0-3.825-2.652-6.307-6.732-6.307a7.631,7.631,0,0,0-5.848,2.38A7.3,7.3,0,0,0-40.8-5.474c0,2.737,1.394,4.709,3.332,4.709,1.394,0,2.482-1,3.451-3.2A24.593,24.593,0,0,0-32.249-10.9Zm-2.074.017a22.4,22.4,0,0,1-1.411,5.746c-.612,1.462-1.19,2.176-1.751,2.176-.748,0-1.343-1.1-1.343-2.5a5.692,5.692,0,0,1,2.312-4.59A4.327,4.327,0,0,1-34.323-10.88Zm13.277-1.479a11.648,11.648,0,0,1-2.176-.119v2.21a12.248,12.248,0,0,1,2.142-.1h8.092a12.329,12.329,0,0,1-8.874,9.146A6.256,6.256,0,0,1-20.366.8c5.372-2.244,8.381-5.712,9.758-11.271a2.323,2.323,0,0,0,.323.034A1.973,1.973,0,0,0-8.313-12.41a1.97,1.97,0,0,0-1.972-1.955,1.959,1.959,0,0,0-1.955,1.972c-.289.017-.493.034-1,.034Zm10.761-1.156A1.107,1.107,0,0,1-9.163-12.41a1.121,1.121,0,0,1-1.122,1.122,1.117,1.117,0,0,1-1.1-1.122A1.1,1.1,0,0,1-10.285-13.515ZM4.522-.986V.187H6.715a11.653,11.653,0,0,1-.068-1.479v-9.724c0-.629.017-.969.051-1.411-.391.034-.7.051-1.428.051H-4.386c-.68,0-1.037-.017-1.445-.051A11.29,11.29,0,0,1-5.763-11v9.741A11.36,11.36,0,0,1-5.831.2h2.193V-.986Zm0-1.938h-8.16v-7.531h8.16Zm18.326-8.3.731-.272a10.8,10.8,0,0,0-1.513-2.686l-1.258.425a10.542,10.542,0,0,1,1.241,2.125,8.217,8.217,0,0,1-.884.034l-3.723.051c-.34,0-.612.017-.816.034l.136-.255c.034-.068.034-.085.119-.238.17-.34.323-.68.459-.986a2.029,2.029,0,0,1,.289-.51L15.3-13.974a6.524,6.524,0,0,1-.867,2.261,13.393,13.393,0,0,1-4.4,4.93,4.517,4.517,0,0,1,1.649,1.462A16.893,16.893,0,0,0,15.657-9.69l5.117-.068A13.68,13.68,0,0,1,12.087-.6,5.625,5.625,0,0,1,13.532,1.19a17.16,17.16,0,0,0,6.052-4.3A16.763,16.763,0,0,0,23-9.537a3.429,3.429,0,0,1,.425-1.02Zm2.941-1.037a9.92,9.92,0,0,0-1.5-2.584l-1.224.425a12.177,12.177,0,0,1,1.462,2.635Zm3.57.986a13.073,13.073,0,0,1,1.955-.085h6a13.073,13.073,0,0,1,1.955.085v-2.091a9.673,9.673,0,0,1-1.989.119H31.348a9.673,9.673,0,0,1-1.989-.119ZM40.137-9.3a7.436,7.436,0,0,1-1.921.153H30.124a12.067,12.067,0,0,1-2.21-.119v2.074a17.294,17.294,0,0,1,2.176-.085h8.279A8.845,8.845,0,0,1,35.632-3.3a11.04,11.04,0,0,1-4.726,2.244A5.923,5.923,0,0,1,32.232.918a15.128,15.128,0,0,0,4.454-2.312A12.021,12.021,0,0,0,40.63-7.14a7.665,7.665,0,0,1,.476-1.071Zm8.585-4.488a26.886,26.886,0,0,1-1.241,4.709C46.6-6.29,45.917-4.369,45.016-2.227c-.714.034-1.122.051-1.462.051h-.442l.306,2.3a9.3,9.3,0,0,1,1.547-.2c5.083-.493,7.9-.85,9.622-1.207.391-.085.391-.085.612-.136A17.408,17.408,0,0,1,56.015.68L58.072-.391a39.765,39.765,0,0,0-4.114-7.871l-1.921.748a21.106,21.106,0,0,1,1.615,2.7c.408.765.612,1.139.8,1.547a67.186,67.186,0,0,1-7.072.867,100.968,100.968,0,0,0,3.366-9.69,5.2,5.2,0,0,1,.442-1.224Zm11.73,4.148a21.336,21.336,0,0,1,2.822-.34c3.3-.238,4.352-.34,5.729-.544A7.517,7.517,0,0,0,66.64-8.806a5.92,5.92,0,0,0-1.615,3.995,4.548,4.548,0,0,0,2.431,4.1A10.227,10.227,0,0,0,71.434.408c.323.051.357.051.578.1L72.318-1.8c-.17.017-.323.017-.34.017a10.316,10.316,0,0,1-2.533-.442A2.854,2.854,0,0,1,67.184-5c0-1.717,1.275-3.417,3.434-4.539a7.6,7.6,0,0,1,3.366-.918,2.632,2.632,0,0,1,.357.017L74.222-12.6a9.159,9.159,0,0,1-1.751.136c-4.539.221-7.446.374-8.687.442-2.5.17-2.5.17-2.805.17-.085,0-.272,0-.646-.017Zm10.4,1.632a11.474,11.474,0,0,1,1.785,2.533l1.19-.629a11.017,11.017,0,0,0-1.785-2.5Zm5,.8a9.831,9.831,0,0,0-1.768-2.4l-1.139.6a12.525,12.525,0,0,1,1.734,2.465ZM-38.1,21.56h2.074a12.074,12.074,0,0,1,1.683.1V19.707a11.571,11.571,0,0,1-1.683.1H-38.1V18.6a20.026,20.026,0,0,0,2.975-3.536,3.067,3.067,0,0,1,.34-.408l-.935-1.19a7.588,7.588,0,0,1-1.479.085h-3.927a13.077,13.077,0,0,1-1.887-.1v1.938c.51-.051,1.156-.085,1.836-.085H-37.4a9.657,9.657,0,0,1-2.023,2.312h-.68a12.288,12.288,0,0,1,.1,1.615v.578h-1.768a9.738,9.738,0,0,1-1.683-.085v1.938a13.228,13.228,0,0,1,1.734-.1H-40v4.556c0,.272-.136.323-.731.323a14.524,14.524,0,0,1-1.921-.187,6.463,6.463,0,0,1,.459,1.921c.748.051,1.275.068,1.768.068,1.887,0,2.329-.34,2.329-1.836Zm-4.964,3.672a19.147,19.147,0,0,0-1.9-1.734,18.1,18.1,0,0,0,1.547-6.63c.051-.7.051-.7.068-1.037a11.29,11.29,0,0,1-1.428.068h-1.479c.153-.782.238-1.309.34-2.006a7.735,7.735,0,0,1,.187-1.088l-2.006-.153v.187a22.419,22.419,0,0,1-.357,3.06h-.476a7.54,7.54,0,0,1-1.5-.1v1.836a9.024,9.024,0,0,1,1.224-.085h.408a28.567,28.567,0,0,1-1.479,4.59,21.059,21.059,0,0,1,2.6,1.819,9.234,9.234,0,0,1-3.043,2.771,9.218,9.218,0,0,1,1.224,1.581,11.394,11.394,0,0,0,3.213-3.162,18.794,18.794,0,0,1,1.683,1.734Zm-2.108-7.684a13.8,13.8,0,0,1-1.224,4.811c-.408-.289-.663-.476-1.343-.935a32.342,32.342,0,0,0,.935-3.111c.136-.51.136-.51.187-.765ZM-20.74,15.8c.765,0,1.462.034,1.989.085V14.029a15.131,15.131,0,0,1-2.074.1h-3.927a5.5,5.5,0,0,0,.119-.663,4.424,4.424,0,0,1,.136-.714l-2.023-.085a1.408,1.408,0,0,1,.034.34,5.143,5.143,0,0,1-.119,1.122h-3.57a14.054,14.054,0,0,1-2.108-.1v1.853A16.891,16.891,0,0,1-30.26,15.8h2.907c-.935,1.088-2.72,1.717-5.2,1.836a4.192,4.192,0,0,1,.765,1.462c-.629-.034-.918-.051-1.241-.085v1.853a15.985,15.985,0,0,1,1.921-.1h9.18V26.2c0,.34-.119.408-.765.408a13.358,13.358,0,0,1-1.9-.136,4.782,4.782,0,0,1,.51,1.7c.425.034,1.088.068,1.462.068,2.04,0,2.533-.357,2.533-1.87v-5.61h.238a15.887,15.887,0,0,1,1.9.1V19.01c-.374.034-.646.051-1.173.068a5.13,5.13,0,0,1,.68-1.513c-2.788-.085-4.488-.629-5.559-1.768Zm-10.268,3.3c2.822-.459,4.352-1.224,5.389-2.7a5.751,5.751,0,0,0,2.465,1.938,11.13,11.13,0,0,0,2.992.765Zm7.242,3.859A10.552,10.552,0,0,1-23.7,21.56a9.7,9.7,0,0,1-1.479.051H-29.5c-.612,0-.969-.017-1.462-.051.034.391.051.816.051,1.394v2.5a12.419,12.419,0,0,1-.068,1.581h1.853v-.85h3.978c.51,0,.918.017,1.445.051a9.647,9.647,0,0,1-.068-1.377Zm-5.355.136h3.587V24.6h-3.587Zm14.433,2.822c1.088-2.363,1.377-3.451,1.938-7.565l-1.887-.391a16.672,16.672,0,0,1-1.921,6.9Zm9.724-10.693A29.806,29.806,0,0,0-10.8,12.652l-1.088,1.615A23.3,23.3,0,0,1-6.137,17Zm4.641,9.333A31.911,31.911,0,0,0-3.2,17.667l-1.819.816a27.879,27.879,0,0,1,2.737,7.055ZM-9.86,18.109a10.6,10.6,0,0,1,.119-1.683h-2.193a12.222,12.222,0,0,1,.119,1.734v8.024c0,1.547.51,1.819,3.519,1.819,2.72,0,3.468-.2,3.944-1.071.374-.714.544-1.683.7-3.978a8.022,8.022,0,0,1-1.9-.68,10.8,10.8,0,0,1-.374,3.366c-.187.391-.68.51-2.04.51-1.564,0-1.887-.085-1.887-.51ZM1.87,16.715a1.878,1.878,0,0,1,.272-.017c.153,0,.153,0,.476.017.374,0,1.87.034,2.142.034,0,0,.221-.017.289-.017a.832.832,0,0,0-.136.221,22.516,22.516,0,0,1-2.04,2.907,10.414,10.414,0,0,1-1.53,1.513L2.89,22.9a7.644,7.644,0,0,1,1.479-1.547A5.747,5.747,0,0,1,7.854,19.6a.933.933,0,0,1,1.037.918,8.316,8.316,0,0,0-3.655,2.4,2.709,2.709,0,0,0-.748,1.887A2.465,2.465,0,0,0,5.729,27a7.3,7.3,0,0,0,3.791.714,30.834,30.834,0,0,0,4.352-.306,5.009,5.009,0,0,1,.782-.068l-.17-2.193a14.77,14.77,0,0,1-5,.714c-2.057,0-2.873-.357-2.873-1.241A1.79,1.79,0,0,1,7.5,23.226a10.332,10.332,0,0,1,1.632-.884v.408a13.458,13.458,0,0,1-.1,1.972L11,24.671a6.98,6.98,0,0,1-.051-.9c0-.119,0-.272.017-.561v-.68c0-.238,0-.238-.017-.68v-.187q2.193-.765,2.55-.867a15.006,15.006,0,0,1,1.887-.459l-.8-1.955a5.311,5.311,0,0,1-1.258.51q-.638.2-2.6.918a2.237,2.237,0,0,0-2.431-1.8,4.11,4.11,0,0,0-2.4.765c-.221.17-.221.17-.34.255l-.017-.034a8.8,8.8,0,0,0,1.564-2.261c1.717-.051,3.876-.187,5.117-.34.867-.1.867-.1,1.343-.136l-.119-1.938a22.966,22.966,0,0,1-4.454.578c-.935.051-.935.051-1.071.068.034-.068.068-.119.153-.306a12.988,12.988,0,0,1,.68-1.53L6.528,12.89A6.733,6.733,0,0,1,5.848,15,20.543,20.543,0,0,1,1.9,14.777Zm19.737-.646v1.224H19.873a15.189,15.189,0,0,1-1.6-.068,13.861,13.861,0,0,1,.068,1.581v2.04a14.336,14.336,0,0,1-.085,1.666h1.8c-.034-.391-.051-.748-.051-1.326V18.874h1.6v2.04a10.39,10.39,0,0,1-1.632,2.448,11.622,11.622,0,0,1-2.533,2.3A7.245,7.245,0,0,1,18.479,27.2a10.873,10.873,0,0,0,3.162-3.57c-.017.221-.034.68-.034,1.224v1.921a10.127,10.127,0,0,1-.1,1.615h1.921a9.935,9.935,0,0,1-.085-1.53V24.739a11.612,11.612,0,0,0-.051-1.326,11.928,11.928,0,0,0,2.975,3.094,8.9,8.9,0,0,1,1.054-1.547,12.575,12.575,0,0,1-2.176-1.683A9.075,9.075,0,0,1,23.358,21V18.874h1.734v1.819c0,.238-.085.289-.476.289-.187,0-.323-.017-.578-.034a4.114,4.114,0,0,1,.34,1.462H24.7c.918,0,1.343-.1,1.632-.391.272-.272.357-.595.357-1.462V18.568a13.061,13.061,0,0,1,.051-1.343,12.3,12.3,0,0,1-1.5.068H23.358V16.069h1.87A13.046,13.046,0,0,1,27,16.154V14.318a15.489,15.489,0,0,1-1.9.1H23.358v-.374a9.375,9.375,0,0,1,.085-1.309H21.522a9.831,9.831,0,0,1,.085,1.326v.357H19.6a13.775,13.775,0,0,1-1.8-.1v1.836a12.023,12.023,0,0,1,1.683-.085Zm6-2.04a15.675,15.675,0,0,1,.085,1.8v6.681a11.953,11.953,0,0,1-.085,1.819h1.921a14.234,14.234,0,0,1-.068-1.8V15.8a11.464,11.464,0,0,1,.085-1.768Zm3.3-1.19a15.887,15.887,0,0,1,.1,2.108V25.963c0,.442-.153.527-.9.527-.459,0-1.292-.068-2.04-.153a6.22,6.22,0,0,1,.493,1.785c.612.034,1.309.051,1.6.051a3.455,3.455,0,0,0,2.074-.357c.425-.306.561-.7.561-1.683V14.9a12.056,12.056,0,0,1,.1-2.057Zm8.466,9.146a7.149,7.149,0,0,1-.544,2.907,5.417,5.417,0,0,1-1.615,2.125,5,5,0,0,1,1.156,1.309,7.421,7.421,0,0,0,2.312-3.978h1.734a10.233,10.233,0,0,1-.238,1.955c-.068.272-.17.34-.544.34a11.134,11.134,0,0,1-1.19-.085,4.074,4.074,0,0,1,.306,1.513c.408.017.867.034,1.037.034,1.173,0,1.581-.255,1.836-1.207a4.717,4.717,0,0,1,1.054,1.36,12.122,12.122,0,0,0,2.567-2.873,13.076,13.076,0,0,0,2.686,2.788,6.147,6.147,0,0,1,.986-1.734,11.179,11.179,0,0,1-2.754-2.686,17.375,17.375,0,0,0,1.377-6.6,5.721,5.721,0,0,1,.952.085v-1.7a6.668,6.668,0,0,1-1.36.1H46.9c.17-.561.289-1,.425-1.53a4.778,4.778,0,0,1,.289-1.054l-1.836-.323a15.083,15.083,0,0,1-1.9,5.712v-2.72c0-.9.017-1.275.051-1.649a12.048,12.048,0,0,1-1.6.068h-.646c.2-.391.238-.459.561-1.19l-1.836-.221a4.469,4.469,0,0,1-.476,1.411,10.763,10.763,0,0,1-1.513-.068c.034.357.051.51.068.918a13.063,13.063,0,0,0-2.516-2.057L34.748,14.2a12.12,12.12,0,0,1,2.55,2.21l1.19-1.326V17.99a14.488,14.488,0,0,1-.068,1.683,9.316,9.316,0,0,1,1.394-.068h.544v.986H39.117a8.292,8.292,0,0,1-1.377-.085v1.547a10,10,0,0,1,1.309-.068Zm3.842,0a9.561,9.561,0,0,1,1.292.068V20.574l.476-.731A13.222,13.222,0,0,0,46.274,23.8a11.635,11.635,0,0,1-1.292,1.717,7.638,7.638,0,0,1-1.309,1.207A21.631,21.631,0,0,0,44,23.889a7.122,7.122,0,0,1,.068-.952c-.374.034-.765.051-1.326.051H40.919c.051-.357.051-.476.085-1Zm4.641-4.828A15.448,15.448,0,0,1,47.124,22a12.488,12.488,0,0,1-1.02-4.267c.136-.323.153-.357.238-.578Zm-5.882,3.434V19.6h.782c.323,0,.714.017.969.017a6.512,6.512,0,0,1,.663.9,6.76,6.76,0,0,1-1.088.068Zm-1.989-5.236h2.4v.952h-2.4Zm0,2.125h2.4v.952h-2.4Zm-5.678.935a11.684,11.684,0,0,1,2.618,2.108l1.1-1.445a13.3,13.3,0,0,0-2.618-1.955ZM36.567,21.8a16,16,0,0,1-2.21,5.032l1.513,1.258c.068-.136.085-.153.119-.238l.255-.51c.017-.068.289-.748.816-2.023.408-1.02.408-1.02.935-2.465Z" transform="translate(10980 1255)"/>
    <rect id="長方形_223" data-name="長方形 223" width="220" height="206" transform="translate(10870 1078)" fill="none"/>
  </g>
</svg>
