<svg xmlns="http://www.w3.org/2000/svg" width="170" height="150" viewBox="0 0 170 150">
  <g id="features_hover_2-sp" transform="translate(-10276 -1241)">
    <g id="グループ_1025" data-name="グループ 1025" transform="translate(10280.027 1237.26)">
      <rect id="長方形_163" data-name="長方形 163" width="170" height="150" rx="10" transform="translate(-4.027 3.74)" fill="#fff"/>
      <path id="長方形_163_-_アウトライン" data-name="長方形 163 - アウトライン" d="M10,2a8.009,8.009,0,0,0-8,8V140a8.009,8.009,0,0,0,8,8H160a8.009,8.009,0,0,0,8-8V10a8.009,8.009,0,0,0-8-8H10m0-2H160a10,10,0,0,1,10,10V140a10,10,0,0,1-10,10H10A10,10,0,0,1,0,140V10A10,10,0,0,1,10,0Z" transform="translate(-4.027 3.74)" fill="#fff"/>
      <path id="パス_5927" data-name="パス 5927" d="M-46.305-4.59a9.6,9.6,0,0,1,2.88-.495c1.6,0,2.655.84,2.655,2.13A1.541,1.541,0,0,1-42.285-1.29a1.037,1.037,0,0,1-.945-.51,2.89,2.89,0,0,1-.21-1.32,5.2,5.2,0,0,1,.03-.66,6.328,6.328,0,0,1-1.665.66A5.011,5.011,0,0,0-44.82-1.2,2.422,2.422,0,0,0-42.36.465a3.332,3.332,0,0,0,3.4-3.42c0-2.13-1.785-3.66-4.29-3.66a10.4,10.4,0,0,0-3.06.42v-1.95c.57-.06.87-.105,1.365-.2,1.035-.18,1.32-.225,1.59-.27l-.06-1.68a16.729,16.729,0,0,1-2.9.57v-.96a9.209,9.209,0,0,1,.09-1.635H-48.09A10.278,10.278,0,0,1-48-10.59v.99c-.165,0-.24,0-.6.015-.21.015-.375.015-.525.015A9.2,9.2,0,0,1-50.94-9.7l.015,1.68a2.812,2.812,0,0,1,.315-.015c.045,0,.18,0,.375.015s.6.015.825.015c.375,0,.585,0,.81-.015.495-.03.495-.03.615-.03l.015,2.31A8.025,8.025,0,0,0-50.16-4.47a3.2,3.2,0,0,0-1.29,2.22,2.2,2.2,0,0,0,.825,1.695A4.672,4.672,0,0,0-47.79.51a1.318,1.318,0,0,0,1.38-.87,4.466,4.466,0,0,0,.12-1.275Zm-1.68,2.73c0,.5-.075.63-.33.63a1.8,1.8,0,0,1-.96-.33c-.345-.21-.495-.435-.495-.69,0-.54.66-1.2,1.785-1.8Zm9.69-6.33a12.722,12.722,0,0,0-2.97-3.075l-1.41.945a12.809,12.809,0,0,1,3,3.24Zm7.6,1.5h-3.99a18.2,18.2,0,0,1-2.085-.09v1.815a19.174,19.174,0,0,1,2.04-.09h4.035V-1.1c0,.33-.1.39-.72.39a13.23,13.23,0,0,1-2.175-.18,6.038,6.038,0,0,1,.465,1.8c1.08.045,1.38.06,1.68.06,1.995,0,2.5-.33,2.5-1.65v-4.38h3.675a18.4,18.4,0,0,1,2.04.09V-6.78a16.8,16.8,0,0,1-2.04.09h-3.675v-.645a20.4,20.4,0,0,0,3.195-2.31c1.02-.975,1.02-.975,1.41-1.335l-.975-1.1A6.137,6.137,0,0,1-26.61-12H-33.4a14.751,14.751,0,0,1-1.8-.09v1.77a14.85,14.85,0,0,1,1.815-.09h5.985a13.174,13.174,0,0,1-2.55,1.92h-.78c.03.345.045.66.045,1.14Zm16.9,1.56v1.65a19.261,19.261,0,0,1-2.91,1.755,7.239,7.239,0,0,1-1.23.5L-17.31.375c.225-.15.525-.36.645-.435a20.836,20.836,0,0,0,2.88-1.9v1.41c0,.27-.09.345-.4.345a6.731,6.731,0,0,1-1.425-.135,4,4,0,0,1,.4,1.515c.435.03.855.045,1.08.045,1.395,0,1.875-.3,1.875-1.155V-2.025c0-.285,0-.4-.045-1.08A7.864,7.864,0,0,0-10.695-.66,8.667,8.667,0,0,0-8.895.765,6.745,6.745,0,0,1-7.9-.72,7.761,7.761,0,0,1-10.29-2.325a12.563,12.563,0,0,0,1.71-1.83l-1.23-.87a7.5,7.5,0,0,1-1.38,1.65,5.929,5.929,0,0,1-.945-1.755H-9.81a13.031,13.031,0,0,1,1.56.09V-6.555a11.67,11.67,0,0,1-1.56.09h-2.43V-7.29H-10.4a9.477,9.477,0,0,1,1.5.075v-1.44a9.712,9.712,0,0,1-1.5.075H-12.24v-.78h2.3a10.351,10.351,0,0,1,1.485.075v-1.5a10.582,10.582,0,0,1-1.5.09h-.735a14.735,14.735,0,0,0,.87-1.5l-1.605-.435a7.661,7.661,0,0,1-.9,1.935h-1.335a10.283,10.283,0,0,0-.99-1.935l-1.41.48a6.714,6.714,0,0,1,.855,1.455h-.21a9.712,9.712,0,0,1-1.425-.075v1.485A9.11,9.11,0,0,1-15.42-9.36h1.635v.78h-1.41a10.994,10.994,0,0,1-1.38-.06v1.41a10.925,10.925,0,0,1,1.41-.06h1.38v.825H-15.6a10.651,10.651,0,0,1-1.53-.075V-6.4A5.934,5.934,0,0,1-18.375-8.43h.33a7.639,7.639,0,0,1,.87.045V-9.93a4.457,4.457,0,0,1-.855.06h-.405v-1.2a8.673,8.673,0,0,1,.09-1.56h-1.7a9.434,9.434,0,0,1,.09,1.56v1.2h-.81a5.646,5.646,0,0,1-1-.06v1.56a5.977,5.977,0,0,1,1-.06h.6a10.375,10.375,0,0,1-.57,1.86,9.083,9.083,0,0,1-1.425,2.55,7.852,7.852,0,0,1,.765,1.845A11.76,11.76,0,0,0-19.86-5.73c-.03.255-.06.96-.09,2.085V-.54a15.12,15.12,0,0,1-.09,1.83h1.7a14.614,14.614,0,0,1-.09-1.83V-4.35c0-.435-.015-1.17-.045-2.085a7.713,7.713,0,0,0,.765,1.665,6.116,6.116,0,0,1,.585-1.32v1.035a9.31,9.31,0,0,1,1.38-.075Zm-3.36.945a9.689,9.689,0,0,1,1.44,1.71l1.11-.84A8.95,8.95,0,0,0-16.1-5.01ZM1.17-9.615a3.278,3.278,0,0,1,1.515.45A3.716,3.716,0,0,1,4.53-5.835a4.2,4.2,0,0,1-2.085,3.75A7.972,7.972,0,0,1-.54-1.26,4.785,4.785,0,0,1,.375.5,9.807,9.807,0,0,0,2.73-.135a5.779,5.779,0,0,0,3.645-5.6C6.375-9.1,4.035-11.3.435-11.3a6.733,6.733,0,0,0-5.16,2.1A6.443,6.443,0,0,0-6.375-4.83c0,2.415,1.23,4.155,2.94,4.155,1.23,0,2.19-.885,3.045-2.82A21.7,21.7,0,0,0,1.17-9.615ZM-.66-9.6A19.769,19.769,0,0,1-1.905-4.53c-.54,1.29-1.05,1.92-1.545,1.92-.66,0-1.185-.975-1.185-2.205A5.022,5.022,0,0,1-2.6-8.865,3.818,3.818,0,0,1-.66-9.6Zm20.04,1.6a10.357,10.357,0,0,1-1.44,3.51,20.331,20.331,0,0,1-.69-4.485h2.7c.765,0,1.335.03,1.83.075v-1.65a8.36,8.36,0,0,1-1.59.09h-.45l.78-.54a8.393,8.393,0,0,0-1.515-1.575l-1.155.735a7.088,7.088,0,0,1,1.32,1.38H17.19v-.69a12.38,12.38,0,0,1,.075-1.425H15.48a4.647,4.647,0,0,1,.075.945c.03.66.03,1.05.045,1.17H11.25c-.78,0-1.4-.03-1.935-.075A14.842,14.842,0,0,1,9.4-8.4a28.191,28.191,0,0,1-.45,5.925A7.013,7.013,0,0,1,7.92-.105,5.506,5.506,0,0,1,9.225,1.17a8.114,8.114,0,0,0,1.23-2.925A23.179,23.179,0,0,0,10.92-5.52h2.19a16.3,16.3,0,0,1-.225,2.715c-.075.375-.21.465-.675.465a9.144,9.144,0,0,1-1.455-.12,5.614,5.614,0,0,1,.39,1.59c.48.03.72.045,1.14.045,1.155,0,1.695-.225,1.935-.825.255-.63.345-1.425.495-4.125.03-.585.06-1.005.09-1.275a6.554,6.554,0,0,1-1.065.06H10.98c.015-.54.015-.54.03-1.98h4.65a18.6,18.6,0,0,0,1.125,5.985A11.259,11.259,0,0,1,12.75-.225a4.977,4.977,0,0,1,1.14,1.3,13.8,13.8,0,0,0,3.63-2.625C18.39-.135,19.575.87,20.34.87c.825,0,1.35-.885,1.695-2.91a4.473,4.473,0,0,1-1.35-1A8.734,8.734,0,0,1,20.4-1.29c-.075.2-.135.285-.2.285a2.18,2.18,0,0,1-.675-.54,6.462,6.462,0,0,1-.9-1.29,16.309,16.309,0,0,0,2.025-3.75c.24-.57.24-.57.33-.8ZM33.975-4.47h1.41a8.693,8.693,0,0,1,1.35.09V-6a9.52,9.52,0,0,1-1.485.09H27.255v-.8h6.36a8.948,8.948,0,0,1,1.38.075V-8.01a9.982,9.982,0,0,1-1.38.075h-6.36V-8.67h6.36a12.982,12.982,0,0,1,1.38.075V-9.96a10.306,10.306,0,0,1-1.38.075h-6.36v-.75H33.84a12.308,12.308,0,0,1,1.725.075v-1.59a10.16,10.16,0,0,1-1.74.09H27.1a12.043,12.043,0,0,1-1.635-.075,11.676,11.676,0,0,1,.06,1.485v4.74h-.78A9.686,9.686,0,0,1,23.19-6v1.62a9.434,9.434,0,0,1,1.53-.09h.81V-.735a14.932,14.932,0,0,1-2.13.27l.315,1.68c.27-.075.315-.075.675-.15a43.437,43.437,0,0,0,5.865-1.44l-.015-1.5a26.12,26.12,0,0,1-3.015.81V-4.47H28.53a7.975,7.975,0,0,0,2.3,2.97,12.984,12.984,0,0,0,5.4,2.61,7.332,7.332,0,0,1,.8-1.725A13.236,13.236,0,0,1,33.09-1.95a9.96,9.96,0,0,0,1.44-1.035c.555-.495.735-.66.855-.75Zm-.165,0A10.9,10.9,0,0,1,31.8-2.73a4.713,4.713,0,0,1-1.575-1.74Zm5.34-4.605a1.657,1.657,0,0,1,.24-.015c.135,0,.135,0,.42.015.33,0,1.65.03,1.89.03,0,0,.195-.015.255-.015a.734.734,0,0,0-.12.195,19.867,19.867,0,0,1-1.8,2.565,9.189,9.189,0,0,1-1.35,1.335l1.365,1.35A6.744,6.744,0,0,1,41.355-4.98,5.071,5.071,0,0,1,44.43-6.525a.823.823,0,0,1,.915.81A7.338,7.338,0,0,0,42.12-3.6a2.39,2.39,0,0,0-.66,1.665A2.175,2.175,0,0,0,42.555,0,6.442,6.442,0,0,0,45.9.63,27.206,27.206,0,0,0,49.74.36,4.42,4.42,0,0,1,50.43.3l-.15-1.935A13.032,13.032,0,0,1,45.87-1C44.055-1,43.335-1.32,43.335-2.1a1.579,1.579,0,0,1,.78-1.23,9.116,9.116,0,0,1,1.44-.78v.36a11.875,11.875,0,0,1-.09,1.74l1.74-.045a6.158,6.158,0,0,1-.045-.8c0-.105,0-.24.015-.5v-.6c0-.21,0-.21-.015-.6V-4.71q1.935-.675,2.25-.765a13.241,13.241,0,0,1,1.665-.4L50.37-7.605a4.686,4.686,0,0,1-1.11.45q-.562.18-2.295.81a1.973,1.973,0,0,0-2.145-1.59,3.626,3.626,0,0,0-2.115.675c-.2.15-.2.15-.3.225l-.015-.03A7.762,7.762,0,0,0,43.77-9.06c1.515-.045,3.42-.165,4.515-.3.765-.09.765-.09,1.185-.12l-.105-1.71a20.264,20.264,0,0,1-3.93.51c-.825.045-.825.045-.945.06.03-.06.06-.1.135-.27a11.462,11.462,0,0,1,.6-1.35l-1.965-.21a5.941,5.941,0,0,1-.6,1.86,18.126,18.126,0,0,1-3.48-.2ZM-63.39,9.165a9.471,9.471,0,0,1,.06,1.35V14.64a10.817,10.817,0,0,1-.075,1.35h2.055a7.241,7.241,0,0,1-.06-1.32V10.53a7.625,7.625,0,0,1,.06-1.35Zm6.765.03a7.9,7.9,0,0,1,.075,1.425V12.5c0,1.2-.015,1.86-.075,2.5-.165,1.98-.66,2.9-2.07,3.825a8.091,8.091,0,0,1-3.24,1.2,5.124,5.124,0,0,1,1.05,1.785,12.688,12.688,0,0,0,2.925-1.155A5.745,5.745,0,0,0-55,17.16a17.717,17.717,0,0,0,.39-4.545V10.59a7.115,7.115,0,0,1,.075-1.4Zm18.21.33a4.129,4.129,0,0,1-1.455.135H-47.7a11.959,11.959,0,0,1-2.07-.12v1.875a14.418,14.418,0,0,1,2.04-.09h7.875a6.22,6.22,0,0,1-1.425,1.9,6.956,6.956,0,0,1-2.19,1.38,5.07,5.07,0,0,1,1.35,1.365,9.383,9.383,0,0,0,1.8-1.245,9.519,9.519,0,0,0,2.31-3.015,4.169,4.169,0,0,1,.6-1.05Zm-7.125,3.03a3.8,3.8,0,0,1,.075.9c0,2.835-.48,4.125-2.01,5.34A6.916,6.916,0,0,1-50.1,20.07a5.3,5.3,0,0,1,1.185,1.71,8.667,8.667,0,0,0,3.87-2.7c1.02-1.305,1.425-2.745,1.485-5.31a6.886,6.886,0,0,1,.06-1.215ZM-33.7,9.27a7.539,7.539,0,0,1,.06,1.365c0,4.2-.345,6.135-1.425,7.86a6.163,6.163,0,0,1-1.545,1.725A5.339,5.339,0,0,1-35.1,21.675,9.552,9.552,0,0,0-33.03,18.9a14.045,14.045,0,0,0,1.215-6.165,31.347,31.347,0,0,1,.15-3.36Zm3.975-.1a6.492,6.492,0,0,1,.06.99v.45l-.075,8.46a6.722,6.722,0,0,1-.135,1.59l.96,1.02a6.527,6.527,0,0,1,.645-.27,9.907,9.907,0,0,0,3.2-1.8,9.309,9.309,0,0,0,2.385-3.495A6.287,6.287,0,0,1-24.1,14.7a7.33,7.33,0,0,1-1.47,2.745,6.031,6.031,0,0,1-2.3,1.71l.075-8.535a8.129,8.129,0,0,1,.105-1.425Zm19.7,1.065a3.938,3.938,0,0,1-1.32.18c-3.66.03-3.66.03-3.9.06a7.474,7.474,0,0,0,.36-.72,7.9,7.9,0,0,1,.45-.84l-1.95-.435a9.144,9.144,0,0,1-.87,2.085,12.9,12.9,0,0,1-3.765,4.275,4.762,4.762,0,0,1,1.5,1.2A15.519,15.519,0,0,0-16.02,12l4.665-.045a14.331,14.331,0,0,1-1.68,3.54,19.524,19.524,0,0,0-3.015-2.01l-1.14,1.335a16.981,16.981,0,0,1,3.075,2.145,10.889,10.889,0,0,1-2.46,2.085,15.117,15.117,0,0,1-2.925,1.5,4.761,4.761,0,0,1,1.245,1.545,14.647,14.647,0,0,0,6.84-5.73,25.159,25.159,0,0,0,1.92-4.125,2.687,2.687,0,0,1,.465-1.005ZM4.26,8.82a12,12,0,0,1-2.79,2.8,21.906,21.906,0,0,1-7.875,3.9A5.642,5.642,0,0,1-5.4,17.235a24.3,24.3,0,0,0,5.355-2.43v5.28a8.437,8.437,0,0,1-.09,1.62h2.1A11.347,11.347,0,0,1,1.89,20.04V13.635a26.525,26.525,0,0,0,3.54-3.09,6.179,6.179,0,0,1,.555-.525Zm8.055.015A23.723,23.723,0,0,1,11.22,12.99c-.78,2.46-1.38,4.155-2.175,6.045-.63.03-.99.045-1.29.045h-.39l.27,2.025A8.205,8.205,0,0,1,9,20.925c4.485-.435,6.975-.75,8.49-1.065.345-.075.345-.075.54-.12a15.36,15.36,0,0,1,.72,1.86l1.815-.945a35.086,35.086,0,0,0-3.63-6.945l-1.7.66a18.623,18.623,0,0,1,1.425,2.385c.36.675.54,1,.7,1.365a59.282,59.282,0,0,1-6.24.765,89.089,89.089,0,0,0,2.97-8.55,4.591,4.591,0,0,1,.39-1.08ZM25.41,21.36c-.015-.195-.015-.315-.015-.405A12.314,12.314,0,0,1,26.73,16.41l-1.2-.54a15.3,15.3,0,0,0-.78,1.98c.015-.375.03-.5.03-.825a25.045,25.045,0,0,1,.225-3.315,20.68,20.68,0,0,1,.945-4.485l-1.98-.21a9.815,9.815,0,0,1-.225,1.4,28.8,28.8,0,0,0-.615,5.865,26.164,26.164,0,0,0,.39,4.485c.045.345.06.435.075.7Zm2.07-8.985a17.806,17.806,0,0,0,2.7.165,26.868,26.868,0,0,0,3.21-.18c.72-.09.945-.12,1.065-.135l-.09-1.815a16.541,16.541,0,0,1-4.08.4,10.815,10.815,0,0,1-2.775-.24Zm1.035,2.475a4.9,4.9,0,0,0-1.38,3.09,2.513,2.513,0,0,0,.45,1.47c.66.885,1.86,1.305,3.72,1.305a18.5,18.5,0,0,0,3.1-.285,5.013,5.013,0,0,1,.615-.09l-.15-1.905a10.541,10.541,0,0,1-3.57.57c-1.56,0-2.385-.45-2.385-1.3a3.393,3.393,0,0,1,1.065-2.16ZM49.86,13.59a10.459,10.459,0,0,1-1.425.06h-2.82V10.365h3.27c-.06,1.11-.135,1.26-.6,1.26a10.853,10.853,0,0,1-1.545-.18,5.423,5.423,0,0,1,.33,1.41,13.261,13.261,0,0,0,1.35.075c1.65,0,1.86-.315,2.04-3.075.015-.36.03-.54.075-.975a9.171,9.171,0,0,1-1.395.075H45.45a10,10,0,0,1-1.41-.075,15.117,15.117,0,0,1,.075,1.53V20.445a10.782,10.782,0,0,1-.1,1.785h1.71a12.906,12.906,0,0,1-.1-1.41,9.7,9.7,0,0,1,.84,1.305A10.2,10.2,0,0,0,48.24,20.19a12.664,12.664,0,0,0,2.04,1.95,9.116,9.116,0,0,1,.87-1.59,7.181,7.181,0,0,1-2.07-1.74,16.848,16.848,0,0,0,1.275-3.72,3.184,3.184,0,0,1,.18-.66Zm-4.245,1.485h.24A11.757,11.757,0,0,0,47.28,18.87a7.616,7.616,0,0,1-1.665,1.74Zm3.24,0a10.5,10.5,0,0,1-.735,2.385,8.511,8.511,0,0,1-.9-2.385Zm-7.56-2.7V11.22h.885a10.012,10.012,0,0,1,1.245.06V9.72a8.99,8.99,0,0,1-1.245.06H41.3V9.51a8.3,8.3,0,0,1,.06-1.14h-1.62a5.622,5.622,0,0,1,.09,1.14v.27h-1.02a8.99,8.99,0,0,1-1.245-.06v1.56a10.012,10.012,0,0,1,1.245-.06h1.02v1.155h-1.35A7.819,7.819,0,0,1,37.17,12.3v1.59a7.258,7.258,0,0,1,1.08-.06,9.456,9.456,0,0,1,.39,1.665h-.165a7.087,7.087,0,0,1-1.305-.075v1.59a10.9,10.9,0,0,1,1.305-.06H39.81v1.2H38.73a9.414,9.414,0,0,1-1.245-.06v1.575a9.859,9.859,0,0,1,1.245-.06h1.08v1.1a12,12,0,0,1-.09,1.53h1.65c-.045-.48-.075-1.035-.075-1.53V19.6h1.02a9.708,9.708,0,0,1,1.245.06V18.09a9.414,9.414,0,0,1-1.245.06H41.3v-1.2h1.17a10.588,10.588,0,0,1,1.305.06V15.42a5.983,5.983,0,0,1-1.155.075h-.18a9.747,9.747,0,0,0,.495-1.665,6.682,6.682,0,0,1,.84.06V12.3a7.71,7.71,0,0,1-1.305.075Zm-1.245,3.12a10.881,10.881,0,0,0-.375-1.665h1.8a9.564,9.564,0,0,1-.45,1.665ZM58.29,11.85v1.89H53.925a12.985,12.985,0,0,1-1.65-.09v1.71a14.369,14.369,0,0,1,1.71-.09H63.99a13.585,13.585,0,0,1,1.695.09V13.65a12.711,12.711,0,0,1-1.71.09H59.94V11.85h3.045a11.408,11.408,0,0,1,1.62.09v-1.7a11.354,11.354,0,0,1-1.635.09H59.94v-.51a7.406,7.406,0,0,1,.105-1.41H58.2a7.117,7.117,0,0,1,.09,1.4v.525H56.25c.075-.15.3-.6.66-1.35L55.17,8.52a5.1,5.1,0,0,1-.465,1.26,7.4,7.4,0,0,1-2.28,2.79,6.2,6.2,0,0,1,1.305,1.125,9.263,9.263,0,0,0,1.635-1.845ZM55.65,22.215v-.66h6.735v.66H64.14a11.681,11.681,0,0,1-.09-1.665V17.76a11.345,11.345,0,0,1,.06-1.425,13.46,13.46,0,0,1-1.485.06H55.44a13.584,13.584,0,0,1-1.5-.06A11.345,11.345,0,0,1,54,17.76v2.775a12.68,12.68,0,0,1-.09,1.68Zm0-4.32H62.4V20.04H55.65Z" transform="translate(85 115.74)" fill="#5a534a"/>
      <g id="features-03" transform="translate(43.789 26.74)">
        <rect id="長方形_72" data-name="長方形 72" width="74.368" height="46.611" rx="10" transform="translate(0 0)" fill="rgba(0,0,0,0)"/>
        <path id="長方形_72_-_アウトライン" data-name="長方形 72 - アウトライン" d="M10-1H64.368a11,11,0,0,1,11,11V36.611a11,11,0,0,1-11,11H10a11,11,0,0,1-11-11V10A11,11,0,0,1,10-1ZM64.368,45.611a9.01,9.01,0,0,0,9-9V10a9.01,9.01,0,0,0-9-9H10a9.01,9.01,0,0,0-9,9V36.611a9.01,9.01,0,0,0,9,9Z" transform="translate(0 0)" fill="#5a534a"/>
        <g id="グループ_19" data-name="グループ 19" transform="translate(10.988 15.363)">
          <path id="線_13" data-name="線 13" d="M21.767,1H0A1,1,0,0,1-1,0,1,1,0,0,1,0-1H21.767a1,1,0,0,1,1,1A1,1,0,0,1,21.767,1Z" fill="#5a534a"/>
          <path id="線_14" data-name="線 14" d="M21.767,1H0A1,1,0,0,1-1,0,1,1,0,0,1,0-1H21.767a1,1,0,0,1,1,1A1,1,0,0,1,21.767,1Z" transform="translate(0 7.942)" fill="#5a534a"/>
          <path id="線_15" data-name="線 15" d="M21.767,1H0A1,1,0,0,1-1,0,1,1,0,0,1,0-1H21.767a1,1,0,0,1,1,1A1,1,0,0,1,21.767,1Z" transform="translate(0 15.883)" fill="#5a534a"/>
        </g>
        <g id="グループ_20" data-name="グループ 20" transform="translate(41.614 8.87)">
          <path id="パス_16" data-name="パス 16" d="M250.229,196.513H247.49l-2.47,4.08,4.411,7.636a.834.834,0,0,0,1.143.305l1.168-3.122,2.968.734a.942.942,0,0,0,.344-1.283l-4.822-8.353Z" transform="translate(-232.434 -178.643)" fill="#ef8200"/>
          <path id="パス_17" data-name="パス 17" d="M205.417,196.52l-4.822,8.353a.937.937,0,0,0,.344,1.283l3.29-.734.846,3.122a.84.84,0,0,0,1.143-.305l6.766-11.719h-7.564Z" transform="translate(-200.358 -178.65)" fill="#ef8200"/>
          <path id="パス_18" data-name="パス 18" d="M210.9,155.347,209.261,154a.938.938,0,0,0-.753-.2l-2.092.344a.951.951,0,0,1-1.042-.6l-.748-1.983a.941.941,0,0,0-.552-.552l-1.983-.748a.951.951,0,0,1-.6-1.042l.344-2.092a.949.949,0,0,0-.2-.753l-1.344-1.641a.949.949,0,0,1,0-1.2l1.344-1.641a.938.938,0,0,0,.2-.753l-.344-2.092a.951.951,0,0,1,.6-1.042l1.983-.748a.941.941,0,0,0,.552-.552l.748-1.983a.949.949,0,0,1,1.042-.6l2.092.344a.949.949,0,0,0,.753-.2l1.641-1.344a.949.949,0,0,1,1.2,0l1.641,1.344a.939.939,0,0,0,.753.2l2.092-.344a.951.951,0,0,1,1.042.6l.748,1.983a.941.941,0,0,0,.552.552l1.983.748a.951.951,0,0,1,.6,1.042l-.344,2.092a.949.949,0,0,0,.2.753l1.344,1.641a.949.949,0,0,1,0,1.2l-1.344,1.641a.938.938,0,0,0-.2.753l.344,2.092a.951.951,0,0,1-.6,1.042l-1.983.748a.941.941,0,0,0-.552.552l-.748,1.983a.951.951,0,0,1-1.042.6L214.5,153.8a.949.949,0,0,0-.753.2l-1.641,1.344A.949.949,0,0,1,210.9,155.347Z" transform="translate(-200.075 -132.705)" fill="#fff"/>
          <path id="パス_18_-_アウトライン" data-name="パス 18 - アウトライン" d="M211.5,156.561a1.956,1.956,0,0,1-1.233-.439l-1.624-1.33-2.068.34a1.949,1.949,0,0,1-2.14-1.236l-.739-1.96-1.96-.739a1.956,1.956,0,0,1-1.236-2.139l.341-2.069-1.329-1.622a1.957,1.957,0,0,1,0-2.467l1.33-1.624-.34-2.068a1.956,1.956,0,0,1,1.236-2.14l1.96-.739.739-1.96a1.949,1.949,0,0,1,2.138-1.236l2.07.341,1.622-1.329a1.949,1.949,0,0,1,2.467,0l1.624,1.33,2.068-.34a1.949,1.949,0,0,1,2.14,1.236l.739,1.96,1.96.739a1.956,1.956,0,0,1,1.236,2.139l-.341,2.069,1.329,1.622a1.957,1.957,0,0,1,0,2.467l-1.33,1.624.34,2.068a1.956,1.956,0,0,1-1.236,2.14l-1.96.739-.739,1.96a1.949,1.949,0,0,1-2.139,1.236l-2.069-.341-1.622,1.329A1.957,1.957,0,0,1,211.5,156.561Zm-2.839-3.773a1.942,1.942,0,0,1,1.235.444l1.6,1.314,1.608-1.317a1.96,1.96,0,0,1,1.234-.441,1.939,1.939,0,0,1,.318.026l2.048.337.733-1.944a1.938,1.938,0,0,1,1.137-1.136l1.941-.732-.338-2.05a1.937,1.937,0,0,1,.418-1.553l1.314-1.6-1.317-1.608a1.95,1.95,0,0,1-.414-1.551l.337-2.048-1.944-.733a1.938,1.938,0,0,1-1.136-1.137l-.732-1.941-2.05.338a1.94,1.94,0,0,1-1.553-.418l-1.6-1.314-1.608,1.317a1.959,1.959,0,0,1-1.234.441,1.939,1.939,0,0,1-.318-.026l-2.048-.337-.733,1.944a1.938,1.938,0,0,1-1.137,1.136l-1.941.732.338,2.05a1.937,1.937,0,0,1-.418,1.553l-1.314,1.6,1.317,1.608a1.95,1.95,0,0,1,.414,1.551l-.337,2.048,1.944.733a1.938,1.938,0,0,1,1.136,1.137l.732,1.941,2.05-.338A1.948,1.948,0,0,1,208.664,152.788Z" transform="translate(-200.075 -132.705)" fill="#5a534a"/>
          <path id="パス_19" data-name="パス 19" d="M220.294,154.756a6.025,6.025,0,1,1-.947,3.349,6.023,6.023,0,0,1,.947-3.349" transform="translate(-213.95 -146.575)" fill="rgba(0,0,0,0)"/>
          <path id="パス_19_-_アウトライン" data-name="パス 19 - アウトライン" d="M225.362,165.024q-.176,0-.352-.009a7.031,7.031,0,0,1-5.562-10.8q.026-.041.056-.079a7.026,7.026,0,1,1,5.858,10.888Zm-4.271-9.664a5.017,5.017,0,1,0,4.306-2.39h-.02a5.009,5.009,0,0,0-4.241,2.325Q221.115,155.329,221.091,155.36Z" transform="translate(-213.95 -146.575)" fill="#5a534a"/>
        </g>
      </g>
    </g>
  </g>
</svg>
