<?xml version="1.0" encoding="utf-8"?>
<!-- Generator: Adobe Illustrator 27.4.0, SVG Export Plug-In . SVG Version: 6.00 Build 0)  -->
<svg version="1.1" id="レイヤー_1" xmlns="http://www.w3.org/2000/svg" xmlns:xlink="http://www.w3.org/1999/xlink" x="0px"
	 y="0px" viewBox="0 0 170 150" style="enable-background:new 0 0 170 150;" xml:space="preserve">
<style type="text/css">
	.st0{fill:#5A534A;}
	.st1{fill:#FFFFFF;}
	.st2{fill:#EF8200;}
</style>
<g>
	<path id="長方形_167" class="st0" d="M10,0h150c5.5,0,10,4.5,10,10v130c0,5.5-4.5,10-10,10H10c-5.5,0-10-4.5-10-10V10
		C0,4.5,4.5,0,10,0z"/>
	<path id="長方形_167_-_アウトライン" class="st1" d="M10,2c-4.4,0-8,3.6-8,8v130c0,4.4,3.6,8,8,8h150c4.4,0,8-3.6,8-8V10
		c0-4.4-3.6-8-8-8H10 M10,0h150c5.5,0,10,4.5,10,10v130c0,5.5-4.5,10-10,10H10c-5.5,0-10-4.5-10-10V10C0,4.5,4.5,0,10,0z"/>
	<g id="features-08-07" transform="translate(46.47 20.554)">
		<path id="線_21" class="st1" d="M70.5,54H4.8c-0.6,0-1-0.4-1-1s0.4-1,1-1h65.6c0.6,0,1,0.4,1,1C71.5,53.6,71,54,70.5,54z"/>
		<path id="パス_50" class="st1" d="M37.9-2.4c0.2,0,0.4,0.1,0.6,0.2L72.9,21c0.5,0.3,0.6,0.9,0.3,1.4c-0.2,0.3-0.5,0.4-0.8,0.4
			h-8.9v30.3c0,0.6-0.4,1-1,1H13.3c-0.6,0-1-0.4-1-1V22.8H4.8c-0.6,0-1-0.4-1-1c0-0.3,0.2-0.6,0.4-0.8l33-23.2
			C37.5-2.4,37.7-2.4,37.9-2.4z M69,20.7l-31.1-21L8,20.7h5.3c0.6,0,1,0.4,1,1V52h47.1V21.7c0-0.6,0.4-1,1-1H69z"/>
		<path id="パス_51" class="st2" d="M37.8,43.7c10.9-4.8,16.9-13.8,12.4-20.2c-3.2-4.5-9.8-3.3-12.4,0c-2.6-3.3-9.3-4.5-12.4,0
			C20.9,29.9,26.9,38.8,37.8,43.7z"/>
	</g>
	<path id="パス_5929" class="st1" d="M26.7,105.6v1.6h-2.1c-0.5,0-1.1,0-1.6-0.1v1.6c0.5-0.1,1.1-0.1,1.6-0.1h2.1v1.9h-3.6
		c-0.6,0-1.3,0-1.9-0.1v1.7c0.6-0.1,1.2-0.1,1.8-0.1h9c0.6,0,1.2,0,1.8,0.1v-1.7c-0.6,0.1-1.2,0.1-1.9,0.1h-3.7v-1.9h2.4
		c0.5,0,1,0,1.6,0.1v-1.6c-0.5,0.1-1,0.1-1.6,0.1h-2.4v-1.6h2c0.5,0,1,0,1.5,0.1v-1c0.7,0.3,1.1,0.6,1.7,0.9
		c0.3-0.6,0.5-1.2,0.9-1.7c-1.3-0.4-2.5-1-3.6-1.9c-1-0.7-1.9-1.5-2.5-2.5h-1.9c-0.3,0.3-0.5,0.8-0.8,1c-0.5,0.5-1,1-1.6,1.5
		c-1.1,0.8-2.2,1.4-3.5,1.9c0.3,0.5,0.7,1,0.9,1.5c0.5-0.3,1.1-0.5,1.6-0.8v1c0.5-0.1,1-0.1,1.6-0.1L26.7,105.6L26.7,105.6z
		 M24.8,104.2c-0.3,0-0.3,0-0.6,0c1.4-0.8,2.5-1.9,3.5-3.3c0.9,1.3,2.2,2.4,3.6,3.3c-0.3,0-0.3,0-0.7,0H24.8z M48.3,110.5
		c-1.8-1.7-1.8-1.7-2.1-2c-0.8-0.8-1.7-1.4-2.6-2.1c0.9-1.3,1.7-2.5,2.3-4c0.1-0.3,0.3-0.5,0.4-0.8l-0.9-1c-0.4,0.2-0.8,0.2-1.3,0.2
		l-5.1,0.1h-0.3c-0.4,0-0.8,0-1.3-0.1l0.1,1.9c0.5-0.1,1-0.1,1.6-0.1c4.6-0.1,4.6-0.1,4.7-0.1l-0.2,0.3c-1,2.4-2.7,4.4-4.8,5.8
		c-0.8,0.7-1.9,1.2-2.9,1.6c0.5,0.4,0.8,1,1.2,1.6c2.1-1,4-2.5,5.5-4.1c1.6,1.3,3.1,2.7,4.4,4.2L48.3,110.5z M60.9,101.4
		c-0.3,0.1-0.7,0.2-1,0.2l-3.1,0.1c-0.3,0-0.5,0-0.7,0c0.1-0.2,0.2-0.3,0.3-0.4l0.2-0.3c0.1-0.2,0.1-0.3,0.2-0.4
		c0.1-0.2,0.2-0.3,0.3-0.4L55,99.6c-0.1,0.7-0.3,1.4-0.8,1.9c-0.8,1.7-2.1,3.1-3.7,4.1c0.6,0.3,1,0.7,1.4,1.3c1.4-1,2.5-2.3,3.4-3.7
		l4.3-0.1c-0.7,2.5-2.2,4.6-4.2,6.1c-0.9,0.7-2,1.3-3.1,1.7c0.5,0.4,0.9,0.9,1.2,1.5c1.9-0.8,3.7-2.1,5.2-3.6c1.4-1.6,2.4-3.6,3-5.6
		c0.1-0.3,0.2-0.6,0.3-0.8L60.9,101.4z M64.6,107c0.8-0.1,1.5-0.1,2.4-0.1h7.6c0.8,0,1.6,0,2.4,0.1v-2c-0.8,0.1-1.5,0.2-2.4,0.1
		h-7.7c-0.8,0-1.5,0-2.4-0.1L64.6,107z M80.9,100.2c0.1,0.4,0.1,0.8,0.1,1.3c0,4.1-0.3,5.9-1.4,7.5c-0.4,0.7-0.8,1.2-1.5,1.7
		c0.6,0.3,1.1,0.8,1.4,1.4c0.8-0.8,1.5-1.7,1.9-2.6c0.8-1.5,1.1-3.1,1.2-5.9c0-1.1,0-2.1,0.2-3.2L80.9,100.2z M84.7,100.1
		c0.1,0.3,0.1,0.6,0.1,0.9v0.4l-0.1,8.1c0,0.5,0,1-0.2,1.5l0.9,1c0.2-0.1,0.4-0.2,0.6-0.3c1.1-0.3,2.2-0.9,3-1.7
		c1-0.9,1.8-2.1,2.3-3.4c-0.5-0.3-1-0.8-1.4-1.4c-0.3,0.9-0.8,1.9-1.4,2.6c-0.6,0.7-1.4,1.3-2.2,1.6l0.1-8.2c0-0.4,0-0.9,0.1-1.4
		H84.7z M94.6,100.4c-0.6,0-1.2,0-1.7-0.1v1.6c0.6-0.1,1.1-0.1,1.7-0.1h4c-0.1,0.3-0.2,0.6-0.3,0.8H98c-0.9,0-1.3,0-1.7-0.1
		c0.1,0.5,0.1,1.1,0.1,1.7v4.1c0,0.5,0,1.1-0.1,1.6c0.5,0,0.8-0.1,1.7-0.1h4.6c0.6,0,1.1,0,1.7,0.1c-0.1-0.5-0.1-1.1-0.1-1.6v-4.1
		c0-0.6,0-1.1,0.1-1.7c-0.4,0-0.8,0.1-1.7,0.1H100c0.1-0.3,0.2-0.5,0.2-0.8h3.6c0.6,0,1.2,0,1.8,0.1v-1.6c-0.6,0.1-1.2,0.1-1.8,0.1
		h-3.2c0.1-0.4,0.1-0.4,0.2-0.6c0-0.2,0.1-0.3,0.1-0.4l-1.7-0.2c0,0.4-0.1,0.8-0.2,1.2L94.6,100.4z M97.9,103.9h4.7v0.7h-4.7V103.9z
		 M97.9,105.9h4.7v0.7h-4.7V105.9z M97.9,107.8h4.7v0.8h-4.7V107.8z M95.1,110.6v-6c0-0.5,0-1,0.1-1.5h-1.8c0.1,0.5,0.1,1.1,0.1,1.6
		v5.9c0,0.7,0,1.4-0.1,1.9h1.7V112h8.8c0.6,0,1.1,0,1.7,0.1v-1.6c-0.5,0.1-1,0.1-1.5,0.1L95.1,110.6L95.1,110.6z M108.9,101.2
		c-0.7,0-1,0-1.5-0.1c0,0.4,0.1,0.8,0.1,1.3v1.1c0,0.3,0,0.8-0.1,1.1h1.6v-2.2h9.2v2.2h1.6c-0.1-0.3-0.1-0.8-0.1-1.1v-1.2
		c0-0.4,0-0.8,0.1-1.3c-0.5,0.1-1,0.1-1.5,0.1h-0.8c0.3-0.4,0.7-1.1,0.9-1.5l-1.7-0.3c-0.3,0.7-0.6,1.4-1,1.9h-1
		c-0.3-0.7-0.6-1.3-0.8-1.9l-1.6,0.3c0.3,0.5,0.6,1.1,0.8,1.7h-1.4c-0.3-0.6-0.7-1.2-1.1-1.8l-1.6,0.3c0.3,0.4,0.7,0.9,0.9,1.4
		H108.9z M112.5,107.1c-0.2,0.3-0.3,0.7-0.5,1h-2.4c-0.4,0-0.9,0-1.4-0.1c0.1,0.4,0.1,0.9,0.1,1.4v1.9c0,0.5,0,0.9-0.1,1.4h1.6v-0.6
		h7.4v0.6h1.6c-0.1-0.5-0.1-0.9-0.1-1.4v-1.9c0-0.4,0-0.9,0.1-1.4c-0.4,0.1-0.9,0.1-1.4,0.1h-3.8c0.2-0.3,0.3-0.7,0.5-1h2
		c0.5,0,1,0,1.5,0.1c-0.1-0.4-0.1-0.8-0.1-1.3v-1.4c0-0.3,0-0.8,0.1-1.1c-0.3,0.1-0.7,0.1-1,0.1h-6.1c-0.3,0-0.8,0-1.1-0.1
		c0.1,0.3,0.1,0.8,0.1,1.1v1.4c0,0.4,0,0.8-0.1,1.3c0.5-0.1,1-0.1,1.5-0.1H112.5z M111,104.6h5.2v1.2H111V104.6z M109.9,109.4h7.4
		v1.4h-7.4V109.4z M131.3,105.5c-0.3,0.8-0.7,1.6-1.1,2.3c-0.5-0.7-0.8-1.4-1.1-2.3l-1.3,0.7c0.3,1,0.8,1.9,1.5,2.8
		c-1,1-2.3,1.9-3.7,2.2c0.3,0.4,0.7,0.8,0.9,1.4c1.4-0.5,2.7-1.4,3.7-2.5c1.1,1.1,2.4,1.9,3.8,2.5c0.2-0.6,0.4-1.1,0.8-1.6
		c-1.4-0.3-2.6-1.1-3.7-2c0.7-0.9,1.2-1.9,1.6-2.9L131.3,105.5z M128.2,102.8c-0.4,1.1-1.1,2-1.9,2.8c-0.6-0.6-1-1.4-1.4-2.1h0.6
		c0.3,0,0.6,0,0.8,0.1V102c-0.3,0.1-0.6,0.1-0.8,0.1h-0.6v-1.2c0-0.5,0-1,0.1-1.5h-1.6c0.1,0.5,0.1,1,0.1,1.5v1.2h-0.7
		c-0.3,0-0.8,0-1.1-0.1v1.5c0.3-0.1,0.8-0.1,1.1-0.1h0.6c-0.4,1.6-1.1,3.1-2,4.4c0.3,0.5,0.6,1.1,0.8,1.6c0.7-1,1.2-2.2,1.5-3.4
		c-0.1,0.8-0.1,1.2-0.1,1.2v0.8v3c0,0.6,0,1.2-0.1,1.8h1.6c-0.1-0.6-0.1-1.2-0.1-1.8v-3.5c0-0.2,0-0.9,0-0.9c0-0.8,0-0.8-0.1-1
		c0.3,0.6,0.6,1.2,0.9,1.7c0.2-0.3,0.3-0.7,0.5-1c0.3,0.3,0.5,0.6,0.7,0.9c1.1-1,2-2.3,2.7-3.7L128.2,102.8z M129.4,101.1h-1.3
		c-0.5,0-1.1,0-1.6-0.1v1.6c0.5-0.1,1.1-0.1,1.6-0.1h4.7c0.6,0,1.1,0,1.6,0.1v-1.6c-0.5,0.1-1,0.1-1.6,0.1h-1.9v-0.6
		c0-0.3,0-0.7,0.1-1h-1.7c0.1,0.3,0.1,0.7,0.1,1.1L129.4,101.1L129.4,101.1z M130.9,103.4c0.7,1.4,1.7,2.6,2.9,3.6
		c0.3-0.5,0.5-0.9,0.9-1.4c-1-0.8-1.9-1.8-2.5-2.9L130.9,103.4z M136.4,103.3c0.8-0.2,1.6-0.3,2.4-0.3c2.8-0.2,3.7-0.3,4.8-0.4
		c-0.8,0.3-1.4,0.8-2,1.4c-0.8,0.9-1.4,2.1-1.4,3.4c0,1.4,0.8,2.8,2,3.5c1,0.5,2.2,0.8,3.4,0.9c0.3,0.1,0.3,0.1,0.5,0.1l0.3-1.9
		c-0.2,0-0.3,0-0.3,0c-0.8,0-1.4-0.2-2.1-0.3c-1.1-0.3-1.9-1.2-1.9-2.4c0-1.4,1.1-2.9,2.9-3.8c0.8-0.5,1.9-0.8,2.9-0.8
		c0.1,0,0.2,0,0.3,0l-0.1-1.9c-0.5,0.1-1,0.1-1.5,0.1c-3.8,0.2-6.3,0.3-7.4,0.3c-2.1,0.2-2.1,0.2-2.4,0.2c-0.1,0-0.3,0-0.5,0
		L136.4,103.3z M145.2,104.7c0.6,0.7,1.1,1.4,1.5,2.1l1-0.5c-0.4-0.8-0.9-1.5-1.5-2.1L145.2,104.7z M149.4,105.4
		c-0.4-0.8-0.9-1.4-1.5-2l-0.9,0.5c0.6,0.6,1.1,1.4,1.4,2.1L149.4,105.4z M40.9,119h-4c-0.5,0-1,0-1.6-0.1v1.4
		c0.5-0.1,1-0.1,1.5-0.1h9.9c0.5,0,1,0,1.5,0.1v-1.4c-0.5,0.1-1,0.1-1.5,0.1h-4.2v-0.2c0-0.3,0-0.6,0.1-0.9h-1.8
		c0.1,0.3,0.1,0.6,0.1,0.9V119z M37.5,123.2c0,0.3,0,0.7-0.1,1.1c0.4-0.1,0.9-0.1,1.4-0.1h5.9c0.4,0,0.9,0,1.4,0.1
		c0-0.3-0.1-0.7-0.1-1.1v-1.3c0-0.4,0-0.7,0.1-1c-0.4,0.1-0.8,0.1-1.3,0.1h-6c-0.5,0-0.9,0-1.4-0.1c0,0.3,0.1,0.6,0.1,1V123.2z
		 M39.1,122.1h5.6v0.8h-5.6V122.1z M35.8,129.8c0,0.5,0,1.1-0.1,1.6h1.7c-0.1-0.5-0.1-1-0.1-1.6V126h9.1v3.6c0,0.3-0.1,0.3-0.3,0.3
		c-0.4,0-1-0.1-1.8-0.2c0.3,0.4,0.3,0.9,0.3,1.4c0.3,0,0.3,0,0.4,0c0.4,0,0.5,0,0.8,0c1,0,1.4-0.1,1.7-0.3c0.3-0.3,0.3-0.5,0.3-1.3
		v-3.6c0-0.4,0-0.8,0.1-1.3c-0.5,0.1-0.9,0.1-1.4,0.1h-9.3c-0.6,0-1,0-1.5-0.1c0,0.4,0.1,0.8,0.1,1.3L35.8,129.8z M44.9,127.4
		c0-0.3,0-0.6,0.1-0.9c-0.4,0-0.6,0.1-1.2,0.1h-4c-0.5,0-0.8,0-1.2-0.1c0,0.3,0.1,0.6,0.1,0.9v1.7c0,0.4,0,0.8-0.1,1.2h1.5v-0.8h3.6
		c0.4,0,0.9,0,1.2,0.1c0-0.3-0.1-0.7-0.1-0.9L44.9,127.4z M40.1,127.6h3.4v0.8h-3.4V127.6z M50.6,119.5c0,0.3,0.1,0.6,0.1,0.9
		c0.1,4,0.3,6.1,0.9,7.5c0.6,1.4,1.4,2.1,2.3,2.1c1.2,0,2-1.2,2.8-4c-0.5-0.3-1-0.8-1.4-1.3c-0.2,0.9-0.4,1.8-0.8,2.6
		c-0.2,0.4-0.3,0.6-0.6,0.6c-0.4,0-0.9-0.9-1.2-2.5c-0.2-1.3-0.3-2.5-0.3-3.9c0-0.8,0-1.4,0.1-2.2H50.6z M57.8,120.9
		c0.8,1.1,1.5,2.3,2,3.6c0.5,1.4,0.8,2.7,0.9,4.1l1.8-0.7c-0.3-2.9-1.4-5.5-3.2-7.7L57.8,120.9z M75.1,120c-0.3,0.1-0.7,0.2-1,0.2
		l-3.1,0.1c-0.3,0-0.5,0-0.7,0c0.1-0.2,0.2-0.3,0.3-0.4l0.2-0.3c0.1-0.2,0.1-0.3,0.2-0.4c0.1-0.2,0.2-0.3,0.3-0.4l-1.9-0.4
		c-0.1,0.7-0.3,1.4-0.8,1.9c-0.8,1.7-2.1,3.1-3.7,4.1c0.6,0.3,1,0.7,1.4,1.3c1.4-1,2.5-2.3,3.4-3.7l4.3-0.1
		c-0.7,2.5-2.2,4.6-4.2,6.1c-0.9,0.7-2,1.3-3.1,1.7c0.5,0.4,0.9,0.9,1.2,1.5c1.9-0.8,3.7-2.1,5.1-3.6c1.4-1.6,2.4-3.6,3-5.6
		c0.1-0.3,0.2-0.6,0.3-0.8L75.1,120z M86.1,124.9l0.1,4.3v0.3c0,0.4,0,0.9-0.1,1.4H88c-0.1-0.4-0.1-0.9-0.1-1.7l-0.1-6.7h1.4
		c0.6,0,1.1,0,1.7,0.1v-1.8c-0.6,0.1-1.1,0.1-1.7,0.1h-1.4v-1.2v-0.1c0-0.4,0-0.8,0.1-1.2h-1.9c0.1,0.4,0.1,0.8,0.1,1.4v1.2h-5
		c-0.6,0-1.2,0-1.8-0.1v1.8c0.6-0.1,1.2-0.1,1.8-0.1h4c-0.6,0.8-1.2,1.7-1.9,2.4c-1.3,1.3-2.9,2.4-4.6,3.1c0.5,0.4,0.9,0.9,1.2,1.5
		c0.8-0.4,1.4-0.8,2.1-1.4c1-0.8,1.9-1.6,2.8-2.5c0.6-0.6,1.1-1.3,1.4-2c0,0.3-0.1,0.9-0.1,1V124.9z M95.1,118.8
		c0.1,0.4,0.1,0.8,0.1,1.3v4c0,0.4,0,0.8-0.1,1.3h1.9c-0.1-0.4-0.1-0.8-0.1-1.3v-4c0-0.4,0-0.8,0.1-1.3H95.1z M101.6,118.8
		c0.1,0.4,0.1,0.9,0.1,1.4v1.8c0,1.2,0,1.8-0.1,2.4c-0.2,1.9-0.6,2.8-1.9,3.6c-0.9,0.6-2,1-3.1,1.2c0.4,0.5,0.8,1.1,1,1.7
		c1-0.3,1.9-0.6,2.8-1.1c1.4-0.7,2.4-1.9,2.8-3.4c0.3-1.4,0.4-2.9,0.3-4.4v-1.9c0-0.4,0-0.9,0.1-1.4h-1.9V118.8z M118,124.3
		c0.6,0,1.2,0,1.9,0.1v-1.7c-0.6,0.1-1.3,0.1-1.9,0.1h-8.4c-0.6,0-1.3,0-1.9-0.1v1.7c0.6-0.1,1.2-0.1,1.9-0.1h3.5
		c0,0.9-0.3,1.9-0.6,2.7c-0.8,1.3-2,2.1-3.4,2.4c0.5,0.4,0.9,1,1.2,1.6c1.9-0.8,3-1.6,3.7-2.8c0.7-1.2,1-2.5,1-3.9H118z
		 M109.2,120.7c0.6-0.1,1.2-0.1,1.9-0.1h5.6c0.6,0,1.2,0,1.9,0.1v-1.8c-0.6,0.1-1.3,0.1-1.9,0.1h-5.5c-0.6,0-1.3,0-1.9-0.1
		L109.2,120.7L109.2,120.7z M131.2,120.8c-0.3,0.4-0.5,0.8-0.8,1c-1.2,1.2-2.6,2.2-4.1,3c-1.1,0.6-2.2,1-3.4,1.3
		c0.3,0.4,0.7,0.9,0.9,1.5c1.4-0.4,2.8-1.1,4.1-1.9v3.9c0,0.4,0,0.9-0.1,1.4h1.9c-0.1-0.4-0.1-0.9-0.1-1.4v-4.9
		c0.9-0.7,1.9-1.5,2.7-2.4c0.2-0.2,0.3-0.3,0.5-0.5L131.2,120.8z"/>
</g>
</svg>
