<svg xmlns="http://www.w3.org/2000/svg" width="170" height="150" viewBox="0 0 170 150">
  <g id="features_normal_1-sp" transform="translate(-9657 -1241)">
    <g id="グループ_1016" data-name="グループ 1016" transform="translate(9656.565 1292)">
      <rect id="長方形_162" data-name="長方形 162" width="170" height="150" rx="10" transform="translate(0.435 -51)" fill="#5b5349"/>
      <path id="長方形_162_-_アウトライン" data-name="長方形 162 - アウトライン" d="M10,2a8.009,8.009,0,0,0-8,8V140a8.009,8.009,0,0,0,8,8H160a8.009,8.009,0,0,0,8-8V10a8.009,8.009,0,0,0-8-8H10m0-2H160a10,10,0,0,1,10,10V140a10,10,0,0,1-10,10H10A10,10,0,0,1,0,140V10A10,10,0,0,1,10,0Z" transform="translate(0.435 -51)" fill="#fff"/>
      <path id="パス_5916" data-name="パス 5916" d="M-39.93-5.73a12.035,12.035,0,0,1,1.65.09v-1.7a10.865,10.865,0,0,1-1.65.075h-5.7c.39-.825.39-.825.585-1.215l.3-.63-1.8-.27a9.636,9.636,0,0,1-.9,2.115h-2.58a10.882,10.882,0,0,1-1.635-.075v1.7a11.5,11.5,0,0,1,1.635-.09H-48.3a20.93,20.93,0,0,1-1.8,2.5A31.254,31.254,0,0,1-46.08-1.98,13.646,13.646,0,0,1-51.69-.375a7.4,7.4,0,0,1,.825,1.605c3.105-.6,4.89-1.29,6.5-2.5a29.71,29.71,0,0,1,4.62,2.46L-38.5-.2A39.477,39.477,0,0,0-43.11-2.4a9.127,9.127,0,0,0,1.9-3.33Zm-3.015,0a6.337,6.337,0,0,1-1.74,2.715c-1.065-.39-1.425-.495-2.91-.93A19.736,19.736,0,0,0-46.44-5.73Zm-3.045-5.46h-3.795a13.986,13.986,0,0,1-1.725-.075,10.4,10.4,0,0,1,.075,1.155V-9a7.911,7.911,0,0,1-.075,1.11h1.65v-1.8h9.69v1.8h1.65A6.249,6.249,0,0,1-38.6-9v-1.11a9.6,9.6,0,0,1,.06-1.155,14.135,14.135,0,0,1-1.725.075h-4.05v-.27a7.815,7.815,0,0,1,.075-1.125h-1.83a6.606,6.606,0,0,1,.075,1.14Zm15.06,5.1v1.695h-2.2A12.534,12.534,0,0,1-34.8-4.47v1.68a14.958,14.958,0,0,1,1.665-.075h2.2V-.84h-3.72a15.241,15.241,0,0,1-1.92-.09V.825a12.935,12.935,0,0,1,1.875-.1h9.36a13.162,13.162,0,0,1,1.89.1V-.93a15.806,15.806,0,0,1-1.905.09h-3.9V-2.865h2.43a14.848,14.848,0,0,1,1.65.075V-4.47a14.075,14.075,0,0,1-1.65.075h-2.43V-6.09h2.115a14.627,14.627,0,0,1,1.59.075v-1.1c.675.39,1.11.63,1.785.945A7.09,7.09,0,0,1-22.8-7.89a13.592,13.592,0,0,1-3.675-1.9,10.944,10.944,0,0,1-2.67-2.655h-1.9a6.3,6.3,0,0,1-.81,1.08A13.437,13.437,0,0,1-33.51-9.8a14.55,14.55,0,0,1-3.63,1.98,9.455,9.455,0,0,1,.99,1.59,13.349,13.349,0,0,0,1.635-.855v1.065A14.739,14.739,0,0,1-32.88-6.09ZM-33-7.605c-.225,0-.36,0-.66-.015a12.041,12.041,0,0,0,3.615-3.405,13.45,13.45,0,0,0,3.69,3.405c-.285.015-.39.015-.705.015Zm11.715-.9a18.826,18.826,0,0,1,2.49-.3c2.91-.21,3.84-.3,5.055-.48A6.633,6.633,0,0,0-15.825-7.77,5.223,5.223,0,0,0-17.25-4.245,4.013,4.013,0,0,0-15.1-.63,9.024,9.024,0,0,0-11.6.36c.285.045.315.045.51.09l.27-2.04c-.15.015-.285.015-.3.015a9.1,9.1,0,0,1-2.235-.39,2.519,2.519,0,0,1-2-2.445c0-1.515,1.125-3.015,3.03-4.005a6.708,6.708,0,0,1,2.97-.81,2.323,2.323,0,0,1,.315.015l-.105-1.9a8.082,8.082,0,0,1-1.545.12c-4,.195-6.57.33-7.665.39-2.2.15-2.2.15-2.475.15-.075,0-.24,0-.57-.015Zm9.18,1.44A10.124,10.124,0,0,1-10.53-4.83l1.05-.555a9.721,9.721,0,0,0-1.575-2.2Zm4.41.7a8.675,8.675,0,0,0-1.56-2.115l-1.005.525A11.052,11.052,0,0,1-8.73-5.775ZM-2.3-9.4a7.2,7.2,0,0,1-1.17-.06v.78L-4.32-9.21a8.772,8.772,0,0,1-2.9,3.615,6.717,6.717,0,0,1,.6,1.635,6,6,0,0,0,.945-.93c-.03.915-.03.915-.03,1.41V-.63a13.629,13.629,0,0,1-.09,1.755h1.68a12.328,12.328,0,0,1-.075-1.71V-6.45a11.8,11.8,0,0,0,.675-1c.285-.48.285-.48.4-.69.33-.015.495-.015.885-.015H2.4a5.2,5.2,0,0,1,.7.03v1.155a3.672,3.672,0,0,1,.765-.06h.435v6.39c0,.24-.075.3-.375.3A9.508,9.508,0,0,1,2.535-.48a4.582,4.582,0,0,1,.3,1.56c.57.03.78.03,1.02.03A2.666,2.666,0,0,0,5.445.825c.315-.24.4-.51.4-1.275V-7.035a6.122,6.122,0,0,1,1.125.075v-1.6A5.291,5.291,0,0,1,5.85-8.49H3.87c-.225,0-.315,0-.51-.015v-.96a4.335,4.335,0,0,1-.87.06v-1.17a10.1,10.1,0,0,1,.045-1.035c-.33.03-.645.045-1.2.045H.18c.06-.225.06-.24.1-.42.06-.27.09-.345.15-.555L-1.11-12.7c-.075.495-.09.585-.21,1.14h-.42a8.823,8.823,0,0,1-1.2-.06v1.335a9.185,9.185,0,0,1,1.14-.06h.165A8.719,8.719,0,0,1-1.95-9.4Zm1.83,0c.12-.315.18-.5.315-.945H1.14V-9.4Zm.15,4.695v.6H-1.95a13.476,13.476,0,0,1-1.395-.06v1.35c.315-.03.495-.045.735-.06v.84A8.662,8.662,0,0,1-3.63-2.1V-.7A9.712,9.712,0,0,1-2.205-.78h1.89V-.2a7.5,7.5,0,0,1-.09,1.38h1.68A8.765,8.765,0,0,1,1.185-.18v-.6h1.1A8.077,8.077,0,0,1,3.39-.7V-2.1a13.451,13.451,0,0,1-1.44.06H1.185v-.84h.51a10.842,10.842,0,0,1,1.38.06V-4.17a12.116,12.116,0,0,1-1.38.06h-.51v-.6H1.56c.6,0,1.005.015,1.245.03A8.658,8.658,0,0,1,2.76-5.7v-.9A9.017,9.017,0,0,1,2.8-7.62a11.733,11.733,0,0,1-1.23.045H-2.04c-.39,0-.66-.015-.885-.03a4.908,4.908,0,0,1,.045.78V-5.7a7.824,7.824,0,0,1-.045,1.02c.435-.03.66-.03,1.26-.03ZM-1.26-2.88h.945v.84H-1.26Zm-.105-3.66H1.26v.78H-1.365ZM-4.5-12.675A7.9,7.9,0,0,1-7.11-9.9a6,6,0,0,1,.735,1.425,14.138,14.138,0,0,0,3-2.985,3.183,3.183,0,0,1,.255-.3Zm11.22.81a5.247,5.247,0,0,1-1.08.075H4.305a5.518,5.518,0,0,1-1.08-.075v1.59a3.34,3.34,0,0,1,.705-.06H5.64a5.707,5.707,0,0,1,1.08.075Zm7.605,3.7V-5.4H12a13.765,13.765,0,0,1-1.8-.09v1.65a15.734,15.734,0,0,1,1.815-.09h2.31V-.75H10.47A17.587,17.587,0,0,1,8.385-.855V.855A19.289,19.289,0,0,1,10.515.75h9.18a17.487,17.487,0,0,1,2.04.105V-.855A16.441,16.441,0,0,1,19.65-.75h-3.6V-3.93h2.6a16.675,16.675,0,0,1,1.845.09V-5.49a15.569,15.569,0,0,1-1.845.09h-2.6V-8.16h3.165c.72,0,1.335.03,1.98.09V-9.72c-.615.06-1.26.09-2.025.09H16.05v-1.155a13.986,13.986,0,0,1,.09-1.785H14.22a12.231,12.231,0,0,1,.105,1.8v1.14H11.88q.293-.787.4-1.125a3.593,3.593,0,0,1,.15-.495,2.371,2.371,0,0,0,.135-.39l-1.71-.42a8.141,8.141,0,0,1-.33,1.4,10.879,10.879,0,0,1-2.535,4.38A4.551,4.551,0,0,1,9.225-5.01a13.253,13.253,0,0,0,2.04-3.15Zm10.59-2.265H24.39a7.265,7.265,0,0,1-.8-.045,12.358,12.358,0,0,1,.06,1.53v7.8A15.386,15.386,0,0,1,23.58.8h1.635V-.525h2.13v.9h1.6a14.548,14.548,0,0,1-.06-1.485V-6.87a3.843,3.843,0,0,1,.645.75,11.6,11.6,0,0,0,1.92-2.82h3.48c-.045,4.125-.24,6.96-.555,7.89-.135.435-.36.555-1.005.555a12.378,12.378,0,0,1-1.92-.21A5.112,5.112,0,0,1,31.875,1c.75.045,1.125.06,1.485.06,2.31,0,2.7-.57,2.985-4.365.06-.765.195-4.23.225-6.09a8.711,8.711,0,0,1,.06-1.185,8.794,8.794,0,0,1-1.275.06H32.16c.135-.345.375-1.035.435-1.26a4.2,4.2,0,0,1,.21-.585l-1.725-.285A11.273,11.273,0,0,1,28.89-7.92V-9.18c0-.765.015-.81.015-.84a4.268,4.268,0,0,1,.03-.45c-.12.015-.555.03-1.29.045H26.82a16.558,16.558,0,0,0,.765-1.95l-1.725-.24a10.832,10.832,0,0,1-.645,2.19ZM25.2-8.97h2.145v2.655H25.2Zm0,4.11h2.145v2.9H25.2Zm8.58,1.395a19.527,19.527,0,0,0-2.085-3.72L30.33-6.45a14.577,14.577,0,0,1,1.935,3.81Zm8.3-8.97a15.324,15.324,0,0,1-.45,2.61c-.33.015-.585.015-.765.015a10.415,10.415,0,0,1-2.025-.135v1.71l.8.015c.315.015.4.015.6.015s.27,0,.945-.015a23.077,23.077,0,0,1-1.41,3.54,13.654,13.654,0,0,1-1.455,2.4l1.725.96c.09-.18.09-.18.285-.54.57-1.05.705-1.32,1.05-2.055a28.792,28.792,0,0,0,1.65-4.35c.93-.075,1.845-.18,2.385-.27a2.925,2.925,0,0,1,.48-.075l-.045-1.725a12.866,12.866,0,0,1-2.4.42c.165-.66.24-.96.315-1.32a7.509,7.509,0,0,1,.24-1Zm9.6,3.9a23.678,23.678,0,0,0-4.23-2.01l-.9,1.455a18.359,18.359,0,0,1,4.32,2.1Zm-.06,6.765a2.687,2.687,0,0,1-.225-.21,5.53,5.53,0,0,0-.525-.4,9.372,9.372,0,0,0-2.37-1.38A15.926,15.926,0,0,1,48.36-5.82a5,5,0,0,1,.18-1.515l-1.74-.09a7.956,7.956,0,0,0-.12,1.515c0,.45.03,1.035.075,1.725a7.451,7.451,0,0,0-1.4-.135c-1.9,0-3.24,1.065-3.24,2.58,0,1.53,1.29,2.52,3.27,2.52a3.463,3.463,0,0,0,2.49-.84,2.4,2.4,0,0,0,.645-1.59c0-.06-.015-.165-.03-.3a9.072,9.072,0,0,1,2.3,1.86Zm-4.8-.825s.03.36.03.51c0,.84-.5,1.26-1.515,1.26-.93,0-1.47-.36-1.47-.975,0-.63.63-1.035,1.6-1.035A3.781,3.781,0,0,1,46.815-2.595ZM-15.63,10.845a9.215,9.215,0,0,1-1.5.09h-2.19c.18-.645.27-.975.315-1.17.18-.735.18-.735.27-1.11l-1.6-.33a13.778,13.778,0,0,1-1.695,5.28v-1.29a5.156,5.156,0,0,1-.9.045,13.9,13.9,0,0,0,1.8-2.745l-1.4-.66a8.638,8.638,0,0,1-1.035,2.025V9.825a4.879,4.879,0,0,1-.9.06h-.525V9.48a5.247,5.247,0,0,1,.075-1.08H-26.58a7.088,7.088,0,0,1,.075,1.065v.42h-.87A8.883,8.883,0,0,1-28.62,9.81v1.425a8.512,8.512,0,0,1,1.215-.06h.9V12.36h-1.26a9.123,9.123,0,0,1-1.41-.09v1.44a11.354,11.354,0,0,1,1.38-.075h1.725a15.749,15.749,0,0,1-3.45,2.1,3.767,3.767,0,0,1,.96,1.125c.6-.315,1.02-.555,1.6-.93h2.085a5.047,5.047,0,0,1-.855.84h-.36a3.481,3.481,0,0,1,.06.855c-1.245.1-2.31.18-2.805.18h-.42l.21,1.515a6.931,6.931,0,0,1,.8-.1c1.29-.12,1.29-.12,2.22-.21V20.3c0,.255-.03.3-.27.3a10.214,10.214,0,0,1-1.59-.1,4.339,4.339,0,0,1,.33,1.47c.525.03.72.03.975.03,1.68,0,2.07-.24,2.07-1.275v-1.89c.81-.105,1.26-.18,2.46-.42l-.015-1.35c-1.185.21-1.635.285-2.445.39V17.28a12.881,12.881,0,0,0,1.515-1.5s.1-.12.315-.33l-.57-.75a4.014,4.014,0,0,1-.9.045h-1.155a16.02,16.02,0,0,0,1.215-1.11h1.14a7.453,7.453,0,0,1,.87.045,5.866,5.866,0,0,1-.8,1.035,4.169,4.169,0,0,1,.9,1.35,9.983,9.983,0,0,0,.87-1.125,12.362,12.362,0,0,0,1.125,3.045,8.9,8.9,0,0,1-3.72,2.76,4.9,4.9,0,0,1,1.125,1.44,12.07,12.07,0,0,0,3.5-2.745,11.822,11.822,0,0,0,2.7,2.7,4.994,4.994,0,0,1,1.065-1.545,9.214,9.214,0,0,1-2.82-2.5,10.342,10.342,0,0,0,1.11-2.82,14.16,14.16,0,0,0,.42-2.925,8.091,8.091,0,0,1,.975.075ZM-18.1,12.36a11.8,11.8,0,0,1-.375,2.595,7.882,7.882,0,0,1-.585,1.6,12.287,12.287,0,0,1-1.065-3.465c.12-.27.18-.39.33-.735Zm-6.885,0V11.175h.66c.195,0,.45.015.6.03a9.551,9.551,0,0,1-.96,1.155ZM-8.415,17.4h-2.82a13.322,13.322,0,0,1-1.6-.06V18.9a11.219,11.219,0,0,1,1.575-.075h2.85V20.25H-12.39a11.7,11.7,0,0,1-1.86-.09V21.8a17.2,17.2,0,0,1,2.025-.09H-2.76A17.785,17.785,0,0,1-.7,21.8V20.16a13.559,13.559,0,0,1-1.86.09h-4.2V18.825h3.1a11.011,11.011,0,0,1,1.545.075V17.34a13.368,13.368,0,0,1-1.515.06H-6.765V16.005c1.845-.12,1.845-.12,2.8-.18.3.315.465.51.945,1.1L-1.8,15.885A28.463,28.463,0,0,0-4.47,13.38h.345a10.41,10.41,0,0,1,1.62.075v-.78h1.53a9.837,9.837,0,0,1-.075-1.23V10.62A10.8,10.8,0,0,1-1,9.45c-.465.045-.96.06-1.89.06H-6.78V9.3A6.14,6.14,0,0,1-6.7,8.325h-1.83A6.441,6.441,0,0,1-8.46,9.3v.21h-3.66c-.855,0-1.32-.015-1.86-.06a8.4,8.4,0,0,1,.06,1.11v.765c0,.36-.015.7-.03.9a3.085,3.085,0,0,0-.03.51h1.5v.72a12.226,12.226,0,0,1,1.8-.075h.72a10.47,10.47,0,0,1-.885,1.455c-.675.015-1.02.015-1.29.015-.465,0-.7-.015-1.095-.045l.18,1.515c.15-.015.6-.045,1.32-.075,2.34-.1,2.34-.1,3.315-.165Zm5.8-5.445c-.33.03-.7.045-1.56.045h-6.69c-.795,0-1.155-.015-1.5-.045V10.95h9.75ZM-4.995,13.38l-.915.54c.39.315.495.42.795.69-1.185.075-1.185.075-3.99.18a11.345,11.345,0,0,0,.87-1.41Zm18,4.485a2.435,2.435,0,0,1,.51.03,7.124,7.124,0,0,1-.045-.9V15.72a8.114,8.114,0,0,1,.045-.945c-.33.03-.75.045-1.35.045H6.72c-.51,0-.9-.015-1.26-.045a7.835,7.835,0,0,1,.045.93V16.95a4.809,4.809,0,0,1-.06.945,11.658,11.658,0,0,1,1.2-.045h1.2a9.4,9.4,0,0,1-4.32,2.715,4.536,4.536,0,0,1,.99,1.365,10.337,10.337,0,0,0,3.84-2.745c-.03.3-.045.78-.045,1.05v.81a7.307,7.307,0,0,1-.075,1.29H9.96a6.891,6.891,0,0,1-.075-1.215V20.3a10.126,10.126,0,0,0-.06-1.125,6.5,6.5,0,0,0,1.515,1.485,10.053,10.053,0,0,0,2.58,1.38,9.91,9.91,0,0,1,.81-1.5,8.55,8.55,0,0,1-2.265-.915,12.915,12.915,0,0,0,1.11-.87c.255-.21.3-.255.42-.36Zm-.66-.015h.165a6.2,6.2,0,0,1-1.185,1,4.5,4.5,0,0,1-1.05-1Zm-5.31-1.92H11.91v.735H7.035ZM2.07,10.545V13.5H1.935a5.194,5.194,0,0,1-1.05-.075v1.53a6.783,6.783,0,0,1,1.02-.06H2.07v3.36a8.477,8.477,0,0,1-1.665.435L.8,20.415c.18-.09.54-.24.78-.33a35.516,35.516,0,0,0,3.51-1.47V17.07c-.78.345-1.035.45-1.455.615V14.9a8.742,8.742,0,0,1,.885.045v-1.5a5.239,5.239,0,0,1-.885.06V10.545h.165a4.922,4.922,0,0,1,.945.075V9.015a8.026,8.026,0,0,1-1.32.09H1.95a7.886,7.886,0,0,1-1.29-.09V10.62a5.612,5.612,0,0,1,1.08-.075Zm3.075.675A8.057,8.057,0,0,1,5.1,12.27c.435-.03.63-.03,1.185-.03h6.48c.555,0,.81.015,1.155.03-.03-.315-.045-.7-.045-1.035V9.8a8.944,8.944,0,0,1,.06-1.065c-.36.03-.84.06-1.2.06H6.285a9.256,9.256,0,0,1-1.2-.06,6.412,6.412,0,0,1,.06,1.08Zm2.5-.075H6.555V10.02H7.65Zm2.415,0H8.955V10.02h1.11Zm2.43,0h-1.14V10.02h1.14ZM4.845,14.25a9.838,9.838,0,0,1,1.425-.075h6.66a10.223,10.223,0,0,1,1.425.075V12.735a10.059,10.059,0,0,1-1.44.075H6.285a7.913,7.913,0,0,1-1.44-.09Zm17.19,4.41c-.195,1.425-1.14,2.01-3.66,2.325a4.737,4.737,0,0,1,.855,1.425,6.04,6.04,0,0,0,3.345-1.545,3.615,3.615,0,0,0,.96-2.2h1.05v2.28c0,.57.105.8.5.96a4.49,4.49,0,0,0,1.8.225c2.22,0,2.52-.27,2.67-2.55a5.606,5.606,0,0,1-1.485-.525,4.288,4.288,0,0,1-.12,1.47c-.09.15-.3.195-.93.195-.825,0-.9-.03-.9-.345V18.66h1.17c.615,0,.885.015,1.26.045a8.724,8.724,0,0,1-.06-1.185V14.91a8.584,8.584,0,0,1,.06-1.185c-.39.03-.72.045-1.41.045H21.9c-.7,0-1.035-.015-1.425-.045a8.179,8.179,0,0,1,.06,1.185v2.7A9.429,9.429,0,0,1,20.49,18.7c.6-.03.825-.045,1.29-.045Zm.03-3.675H26.91v.6H22.065Zm0,1.74H26.91v.66H22.065Zm-4.95-4.485H16.8a7.576,7.576,0,0,1-1.2-.075V13.77a9.646,9.646,0,0,1,1.185-.075h.33V18a8.843,8.843,0,0,1-1.695.51l.33,1.74c.21-.1.435-.195.69-.3,1.65-.675,2.595-1.065,3.615-1.56l-.06-1.6c-.735.345-.945.435-1.32.6v-3.69a6.618,6.618,0,0,1,1.035.06v-1.56a9.316,9.316,0,0,1-1.035.045V10.245a10,10,0,0,1,.09-1.68h-1.74a12.126,12.126,0,0,1,.09,1.665Zm8.16-2.64V9.255a4.058,4.058,0,0,1,.075-.885H23.6a5.315,5.315,0,0,1,.075.9V9.6h-1.8a12.378,12.378,0,0,1-1.6-.075V10.92a9.415,9.415,0,0,1,1.305-.06,7.378,7.378,0,0,1,.405,1.035H21.36a11.613,11.613,0,0,1-1.335-.06V13.29a11.312,11.312,0,0,1,1.38-.045h6.36a11.751,11.751,0,0,1,1.575.075v-1.5a9.693,9.693,0,0,1-1.515.075h-.87a9.982,9.982,0,0,0,.48-1.035,14.012,14.012,0,0,1,1.53.06V9.525a15.68,15.68,0,0,1-1.62.075ZM23.55,11.9q-.18-.518-.4-1.035h2.67a8.995,8.995,0,0,1-.45,1.035Z" transform="translate(84.435 61)" fill="#fff"/>
      <g id="features-02" transform="translate(45.435 -36)">
        <path id="パス_12" data-name="パス 12" d="M261.1,193.85a1,1,0,0,1-.768-1.64,10.275,10.275,0,1,0-17.223-2.247,1,1,0,0,1-1.814.843,12.277,12.277,0,1,1,20.574,2.684A1,1,0,0,1,261.1,193.85Z" transform="translate(-185.433 -145.642)" fill="#fff"/>
        <path id="楕円形_529" data-name="楕円形 529" d="M4.85-1A5.85,5.85,0,1,1-1,4.85,5.857,5.857,0,0,1,4.85-1Zm0,9.7A3.85,3.85,0,1,0,1,4.85,3.854,3.854,0,0,0,4.85,8.7Z" transform="translate(44.093 25.847) rotate(-45)" fill="#fff"/>
        <path id="パス_13" data-name="パス 13" d="M278.183,88.637a7.077,7.077,0,1,1-14.153,0c0-5.057,7.077-12.807,7.077-12.807S278.183,83.583,278.183,88.637Z" transform="translate(-201.637 -75.83)" fill="#ef8200"/>
        <path id="パス_13_-_アウトライン" data-name="パス 13 - アウトライン" d="M271.107,96.713a8.086,8.086,0,0,1-8.077-8.077c0-2.3,1.25-5.287,3.715-8.867a47.409,47.409,0,0,1,3.624-4.614,1,1,0,0,1,.738-.326h0a1,1,0,0,1,.738.326,47.454,47.454,0,0,1,3.623,4.615c2.465,3.581,3.715,6.563,3.715,8.866A8.086,8.086,0,0,1,271.107,96.713Zm0-19.358c-.669.794-1.7,2.078-2.728,3.568-2.191,3.186-3.349,5.853-3.349,7.713a6.077,6.077,0,1,0,12.153,0c0-1.859-1.158-4.526-3.349-7.712C272.81,79.435,271.775,78.15,271.107,77.356Z" transform="translate(-201.637 -75.83)" fill="#ef8200"/>
        <path id="パス_14" data-name="パス 14" d="M97.2,228.9c-7.533,0-13.112-2.15-18.037-4.048a41.659,41.659,0,0,0-8.172-2.549,45.586,45.586,0,0,0-12.16-.1c-3.924.486-7,1.413-8.215,2.481a1,1,0,0,1-1.317-1.5c.9-.788,3.3-2.22,9.287-2.961a47.67,47.67,0,0,1,12.718.114,43.072,43.072,0,0,1,8.579,2.658c4.762,1.835,10.158,3.914,17.319,3.914h.073c5.5-.012,12.588-2.613,17.562-4.793a92.4,92.4,0,0,0,10.851-5.561,2.042,2.042,0,0,0,.77-2.658c-.428-.863-1.521-1.572-3.306-.976a92.614,92.614,0,0,1-13.711,3.291c-7.7,1.231-13.913,1.121-18.454-.326a1,1,0,0,1,.487-1.936c10.243,1.909,14.144.877,15.613-.325a2.568,2.568,0,0,0,.971-2.1c.005-.36-.051-.657-.815-.919a15.712,15.712,0,0,0-3.429-.468,25.057,25.057,0,0,1-5.567-.839,27.089,27.089,0,0,1-5.294-2.493,32.1,32.1,0,0,0-10.909-4.218,23.437,23.437,0,0,0-9.691.407,50.542,50.542,0,0,0-10,3.712A1,1,0,1,1,61.5,204.9a52.444,52.444,0,0,1,10.4-3.852,25.389,25.389,0,0,1,10.506-.429,33.811,33.811,0,0,1,11.532,4.442,25.227,25.227,0,0,0,4.9,2.325,23.532,23.532,0,0,0,5.123.756,16.482,16.482,0,0,1,3.933.571,2.861,2.861,0,0,1,2.166,2.84,4.666,4.666,0,0,1-.811,2.659,92.319,92.319,0,0,0,13.272-3.194,5.174,5.174,0,0,1,3.525-.02A4.1,4.1,0,0,1,128.251,213a4.037,4.037,0,0,1,.312,2.743,4.144,4.144,0,0,1-1.747,2.456,92.627,92.627,0,0,1-11.175,5.741,77.082,77.082,0,0,1-9.211,3.414,33.777,33.777,0,0,1-9.149,1.546Z" transform="translate(-49.96 -164.697)" fill="#f5f5f5"/>
        <path id="パス_15" data-name="パス 15" d="M287.683,200.246a1,1,0,0,1-1-1c0-1.671-1.893-4.136-3.593-4.136a1,1,0,0,1,0-2,5.368,5.368,0,0,1,3.919,2.1,6.568,6.568,0,0,1,1.674,4.037A1,1,0,0,1,287.683,200.246Z" transform="translate(-215.142 -159.636)" fill="#ef8200"/>
      </g>
    </g>
  </g>
</svg>
