<?xml version="1.0" encoding="utf-8"?>
<!-- Generator: Adobe Illustrator 27.3.1, SVG Export Plug-In . SVG Version: 6.00 Build 0)  -->
<svg version="1.1" id="レイヤー_1" xmlns="http://www.w3.org/2000/svg" xmlns:xlink="http://www.w3.org/1999/xlink" x="0px"
	 y="0px" viewBox="0 0 376 107" style="enable-background:new 0 0 376 107;" xml:space="preserve">
<style type="text/css">
	.st0{fill:#5A534A;}
	.st1{fill:#FFFFFF;}
	.st2{fill:#EF8200;}
</style>
<g id="グループ_1004" transform="translate(-150 -1486)">
	<g id="長方形_162" transform="translate(150 1486)">
		<path class="st0" d="M10,0h356c5.5,0,10,4.5,10,10v87c0,5.5-4.5,10-10,10H10c-5.5,0-10-4.5-10-10V10C0,4.5,4.5,0,10,0z"/>
		<path class="st1" d="M366,107H10c-5.5,0-10-4.5-10-10V10C0,4.5,4.5,0,10,0h356c5.5,0,10,4.5,10,10v87C376,102.5,371.5,107,366,107
			z M10,3c-3.9,0-7,3.1-7,7v87c0,3.9,3.1,7,7,7h356c3.9,0,7-3.1,7-7V10c0-3.9-3.1-7-7-7H10z"/>
	</g>
	<path id="パス_5914" class="st1" d="M354.9,1523h10.2v2.1h2.2v-4H361v-1.5h-2.1v1.5h-6.1v4h2.1V1523z M362.4,1527.8
		c-0.3,1.2-0.9,2.3-1.8,3.1c-1.1-0.4-2.2-0.8-3.2-1.1c0.3-0.7,0.7-1.4,1.1-2.1H362.4z M367.6,1527.8v-1.9h-8.2
		c0.4-0.7,0.7-1.4,1-2.1l-2.1-0.4c-0.3,0.8-0.7,1.6-1.2,2.5h-4.6v1.9h3.7c-0.7,1.4-1.4,2.7-2.1,3.7l2.1,0.6l0.3-0.5
		c0.7,0.2,1.4,0.5,2.2,0.8c-1.9,0.8-3.8,1.3-5.8,1.4c0.5,0.6,0.9,1.2,1.2,1.8c2.5-0.2,4.8-1,7-2.3c1.5,0.6,2.9,1.4,4.3,2.2l1.6-1.6
		c-1.4-0.8-2.8-1.5-4.2-2.1c1-1.1,1.7-2.5,2.1-3.9L367.6,1527.8z M372.7,1525.7c1.6-1.2,3.1-2.6,4.2-4.2c1.2,1.6,2.7,3,4.4,4.2
		H372.7z M378,1531.2h4.8v-1.8H378v-2h4v-1.3c0.6,0.4,1.2,0.8,1.8,1.1c0.4-0.7,0.8-1.3,1.3-1.8c-2.9-1.3-5.4-3.4-7.3-5.9h-2.1
		c-1.7,2.6-4.1,4.7-6.9,6.2c0.5,0.5,0.9,1,1.3,1.6c0.6-0.4,1.3-0.8,1.9-1.2v1.3h3.8v2h-4.7v1.8h4.7v2h-6.1v1.8h14.5v-1.8H378V1531.2
		z M398.1,1525.2l-1.3,0.5c0.5,0.7,1,1.5,1.3,2.4l1.3-0.6C399,1526.7,398.6,1525.9,398.1,1525.2z M400,1524.4l-1.2,0.6
		c0.5,0.7,1,1.5,1.4,2.3l1.3-0.6C401,1525.9,400.5,1525.1,400,1524.4L400,1524.4z M386.7,1522.4l0.2,2.3c2-0.4,5.5-0.8,7-1
		c-1.6,1.3-2.5,3.2-2.5,5.2c0,3.7,3.3,5.6,6.9,5.8l0.8-2.3c-2.9-0.1-5.4-1.1-5.4-3.9c0.1-2.2,1.5-4.1,3.6-4.7
		c1.1-0.2,2.2-0.2,3.2-0.2l0-2.2c-1.2,0.1-3,0.2-4.8,0.3c-3.1,0.3-5.9,0.5-7.3,0.6C388.1,1522.3,387.4,1522.4,386.7,1522.4
		L386.7,1522.4z M418.7,1520.6h-4v1.8h4L418.7,1520.6z M405.7,1519.6c-0.7,1.2-1.7,2.3-2.8,3.2c0.4,0.5,0.7,1,1,1.5
		c1.4-1.2,2.6-2.6,3.6-4.1L405.7,1519.6z M412.1,1522.2v0.9h-1.3c0.1-0.3,0.1-0.6,0.2-0.9H412.1z M407.5,1524.7h7.2v-1.6h-0.9v-2.3
		h-2.6c0.1-0.4,0.1-0.7,0.2-1.1l-1.7-0.1c-0.1,0.4-0.1,0.8-0.2,1.2h-1.5v1.4h1.3c-0.1,0.3-0.1,0.6-0.2,0.9h-1.6v0.6l-1.5-0.5
		c-0.8,1.7-1.9,3.2-3.2,4.5c0.4,0.6,0.8,1.2,1.1,1.8c0.3-0.3,0.7-0.7,1-1.1v7.1h1.8v-9.7c0.3-0.5,0.6-1,0.8-1.5V1524.7z
		 M409.8,1532.2v-1.2h1v1.2H409.8z M409.4,1526.6h3v1h-3V1526.6z M419,1525.1h-4.6v1.8h1.5v6.4c0,0.2-0.1,0.2-0.3,0.2
		c-0.4,0-0.9,0-1.3,0v-1.3h-1.8v-1.2h1.5v-1.5h-1.5v-0.8h1.4v-3.6H408v3.6h2.9v0.8h-3v1.5h0.5v1.2h-1v1.5h3.5v1.8h1.8v-1.8h1.7
		c0.2,0.6,0.4,1.2,0.5,1.8c0.8,0.1,1.6,0,2.3-0.3c0.6-0.3,0.7-0.9,0.7-1.8v-6.4h1.2V1525.1z M429.1,1533v-3.4h5.1v-2h-5.1v-3h5.7v-2
		h-5.7v-3.1H427v3.1h-2.6c0.3-0.8,0.6-1.6,0.8-2.4l-2.1-0.5c-0.5,2.2-1.5,4.3-3,6.1c0.6,0.4,1.2,0.8,1.8,1.2
		c0.6-0.8,1.1-1.6,1.6-2.5h3.5v3h-4.6v2h4.6v3.4h-6.6v2h15.3v-2H429.1z M439.6,1531.9v-3.3h2.7v3.3H439.6z M442.3,1526.9h-2.7v-2.8
		h2.7V1526.9z M447.7,1522.2c0.3-0.7,0.5-1.4,0.7-2.2l-1.9-0.4c-0.5,1.9-1.2,3.8-2.3,5.5v-2.8h-2.6c0.3-0.7,0.6-1.6,0.9-2.4
		l-2.2-0.3c-0.1,0.9-0.3,1.8-0.5,2.7h-1.9v12.6h1.8v-1.2h4.5v-7.9c0.5,0.3,0.9,0.6,1.3,1c0.6-0.8,1.1-1.7,1.5-2.7h3.6
		c-0.2,6-0.4,8.6-0.9,9.1c-0.2,0.2-0.5,0.3-0.7,0.3c-0.4,0-1.4,0-2.5-0.1c0.4,0.6,0.6,1.3,0.7,2c0.9,0.1,1.8,0,2.7,0
		c0.7-0.1,1.2-0.4,1.6-0.9c0.7-0.9,0.9-3.6,1.1-11.2c0-0.2,0-0.9,0-0.9L447.7,1522.2z M449.7,1530c-0.8-1.3-1.6-2.6-2.5-3.8
		l-1.6,0.9c0.9,1.3,1.7,2.6,2.4,3.9L449.7,1530z M469.5,1524.7c-1.3-0.9-2.7-1.6-4.1-2.3l-1.1,1.7c1.4,0.7,2.8,1.5,4,2.4
		L469.5,1524.7z M463.2,1522.1c-0.7,0.2-1.5,0.4-2.3,0.5c0.2-0.9,0.4-1.8,0.6-2.3l-2.3-0.2c-0.1,1-0.2,1.9-0.5,2.8
		c-0.5,0-1,0.1-1.5,0.1c-0.7,0-1.5,0-2.2-0.1l0.2,2c0.7,0,1.4,0.1,2.1,0.1c0.3,0,0.6,0,0.9,0c-0.9,2.1-2,4.1-3.4,5.9l2.1,1
		c1.5-2.2,2.7-4.7,3.6-7.2c1-0.1,2-0.3,2.9-0.6L463.2,1522.1z M463.6,1531.5c0,0.9-0.4,1.6-1.5,1.6c-0.9,0-1.4-0.4-1.4-1.1
		c0-0.6,0.6-1,1.6-1c0.5,0,0.9,0.1,1.4,0.2L463.6,1531.5z M463.3,1525.6c0.1,1,0.1,2.5,0.2,3.8c-0.4,0-0.7-0.1-1.1-0.1
		c-2.3,0-3.7,1.3-3.7,2.9c0,1.9,1.6,2.8,3.7,2.8c2.4,0,3.2-1.2,3.2-2.8v-0.2c0.8,0.5,1.6,1.1,2.3,1.8l1.1-1.8
		c-1-0.9-2.2-1.7-3.5-2.2c-0.1-0.8-0.1-1.6-0.1-2.1c0-0.7-0.1-1.4,0-2.2L463.3,1525.6z M390.3,1551.6c-0.2,1.3-0.5,2.7-0.9,4
		c-0.5-1.3-0.8-2.6-1-4H390.3z M383.8,1553.6h-1c0.3-0.3,0.5-0.6,0.7-0.8h2c-0.2,0.4-0.5,0.8-0.8,1.2l-0.6-0.5L383.8,1553.6z
		 M382,1549.8h1.3c-0.2,0.4-0.5,0.8-0.8,1.1H382V1549.8z M393.4,1551.6v-1.9h-4.5c0.2-0.9,0.4-1.8,0.6-2.8l-2.1-0.3
		c-0.3,1.9-0.8,3.8-1.6,5.5v-1.2h-1.1c0.7-1.1,1.3-2.2,1.8-3.5l-1.9-0.5c-0.3,0.8-0.7,1.6-1.1,2.3v-1.2H382v-1.5h-1.9v1.5h-1.9v1.7
		h1.9v1.1h-2.5v1.7h3.4c-0.3,0.3-0.6,0.6-0.9,0.8H379v0.8c-0.6,0.4-1.2,0.7-1.8,1c0.5,0.5,1,1,1.4,1.5c0.9-0.5,1.8-1.1,2.6-1.8h1.2
		c-0.3,0.3-0.6,0.6-0.9,0.8h-0.7v1.3c-1.3,0.1-2.4,0.2-3.4,0.3l0.2,1.8c0.9-0.1,2-0.2,3.2-0.3v1.4c0,0.2-0.1,0.2-0.3,0.2
		c-0.2,0-1,0-1.6,0c0.3,0.5,0.5,1.1,0.6,1.7c0.8,0.1,1.7,0,2.4-0.3c0.6-0.3,0.8-0.7,0.8-1.6v-1.7c1-0.1,2.1-0.2,3.1-0.3v-1.7
		c-1,0.1-2.1,0.2-3.1,0.3v-0.3c0.9-0.7,1.7-1.5,2.4-2.3c0.4,0.3,0.8,0.7,1.1,1c0.3-0.4,0.5-0.8,0.8-1.2c0.3,1.2,0.7,2.3,1.2,3.5
		c-0.9,1.3-2.2,2.3-3.7,2.9c0.5,0.6,0.9,1.2,1.2,1.8c1.4-0.7,2.6-1.6,3.6-2.8c0.7,1.1,1.7,2.1,2.9,2.7c0.4-0.7,0.8-1.2,1.4-1.8
		c-1.2-0.7-2.3-1.6-3-2.8c1-2,1.6-4.1,1.8-6.3L393.4,1551.6z M405.3,1552.5l-1.1,0.7c0.3,0.2,0.6,0.5,1,0.7l-4.4,0.1
		c0.3-0.5,0.6-1,1-1.6H405.3z M407.9,1549.5v1.2H397v-1.2L407.9,1549.5z M403.5,1560.2v-1.3h5.2v-1.7h-5.2v-1.5l3.5-0.1
		c0.3,0.3,0.6,0.6,0.8,1l1.6-1.1c-1-1.1-2.1-2.1-3.4-3h2.1v-1.2h1.9v-3.5h-6.5v-1.1h-2.1v1.1h-6.3v3.5h1.9v1.2h2.4
		c-0.2,0.5-0.5,1.1-0.7,1.6l-2.4,0l0.1,1.8c1.4,0,3.2-0.1,5.1-0.1v1.4h-4.9v1.7h4.9v1.3H395v1.8h15.1v-1.8H403.5z M425.1,1549.6H424
		v-1.1h1.1V1549.6z M422.7,1549.6h-1.1v-1.1h1.1L422.7,1549.6z M420.3,1549.6h-1v-1.1h1V1549.6z M426.8,1547.1h-9.1v3.8h9.1V1547.1z
		 M416.9,1553.1h10.5v-1.6h-10.5V1553.1z M417.2,1556.9l-1.9,0.5v-2.9h1.5v-1.8h-1.5v-3.1h1.8v-1.8h-5.4v1.8h1.9v3.1h-1.7v1.8h1.7
		v3.3c-0.8,0.2-1.5,0.4-2.1,0.5l0.4,1.9c1.6-0.4,3.7-1,5.6-1.5L417.2,1556.9z M425.7,1557.7c-0.5,0.4-1,0.9-1.5,1.2
		c-0.4-0.4-0.7-0.8-1-1.2H425.7z M419.7,1555.2h4.9v1.1h-4.9L419.7,1555.2z M425.8,1557.7h0.6v-4H418v4h2.8c-1.5,1.1-3.2,2-4.9,2.5
		c0.5,0.4,0.9,0.9,1.2,1.4c1.1-0.4,2.2-1,3.2-1.7v2.5h1.9v-3.7c0.9,1.6,2.4,2.9,4.1,3.7c0.3-0.6,0.8-1.1,1.3-1.6
		c-0.7-0.2-1.4-0.6-2.1-1c0.6-0.4,1.2-0.8,1.8-1.2L425.8,1557.7z M440.5,1549.2c-0.1,0.4-0.3,0.9-0.5,1.3l0.1,0h-2.2l0.2-0.1
		c-0.1-0.4-0.3-0.8-0.5-1.2H440.5z M444.4,1550.5h-2.4c0.2-0.3,0.4-0.7,0.6-1.2l-0.4-0.1h1.9v-1.6h-4v-1h-2v1h-3.7v1.6h2.1l-0.6,0.1
		c0.2,0.4,0.3,0.8,0.4,1.2H434v1.6h10.4L444.4,1550.5z M434,1555.7c-0.5,0.2-1.1,0.5-1.6,0.7v-3.8h1.5v-1.9h-1.5v-3.8h-1.9v3.8h-1.7
		v1.9h1.7v4.6c-0.8,0.3-1.5,0.6-2.1,0.8l0.7,2c1.5-0.7,3.5-1.6,5.3-2.5L434,1555.7z M436.8,1556.1h4.8v0.9h-4.8V1556.1z
		 M436.8,1554.1h4.8v0.8h-4.8V1554.1z M441.9,1560.7c-0.3,0-0.4-0.1-0.4-0.5v-2h2.1v-5.4h-8.7v5.4h1.4c-0.3,1.2-1.1,2.1-3.7,2.6
		c0.5,0.5,0.8,1.1,1.1,1.7c3.2-0.8,4.2-2.3,4.6-4.3h1.2v2c0,1.6,0.3,2.2,1.9,2.2h1.3c1.2,0,1.7-0.5,1.9-2.5
		c-0.6-0.1-1.2-0.4-1.7-0.7c0,1.3-0.1,1.5-0.4,1.5L441.9,1560.7z"/>
	<g id="features-02" transform="translate(196 1504)">
		<path class="st1" d="M84.7,53.8c-0.2,0-0.5-0.1-0.6-0.2c-0.4-0.4-0.5-1-0.1-1.4c2.9-3.4,3.5-8.3,1.6-12.3c-1.3-2.8-3.6-5-6.5-6
			c-2.9-1.1-6.1-0.9-8.9,0.4c-5.8,2.7-8.3,9.6-5.6,15.4c0.2,0.5,0,1.1-0.5,1.3c-0.5,0.2-1.1,0-1.3-0.5c-3.2-6.8-0.2-14.9,6.6-18.1
			c3.3-1.5,7-1.7,10.4-0.4c3.4,1.3,6.1,3.8,7.7,7.1c2.2,4.8,1.5,10.4-1.9,14.4C85.2,53.7,85,53.8,84.7,53.8z"/>
		<path class="st1" d="M57,35.4c-1.7,0-3.3-0.7-4.5-1.9c-2.5-2.5-2.5-6.6,0-9.1l0,0c2.5-2.5,6.6-2.5,9.1,0c2.5,2.5,2.5,6.6,0,9.1
			C60.3,34.7,58.7,35.4,57,35.4z M53.9,25.8c-1.7,1.7-1.7,4.5,0,6.3c1.7,1.7,4.5,1.7,6.3,0c1.7-1.7,1.7-4.5,0-6.3
			C58.4,24.1,55.6,24.1,53.9,25.8L53.9,25.8z"/>
		<g>
			<path id="パス_13_00000080901447612842341950000003650537749432800919_" class="st2" d="M85.7,14.3c0,4.4-3.5,7.9-7.9,7.9
				s-7.9-3.5-7.9-7.9C69.8,8.7,77.7,0,77.7,0S85.7,8.7,85.7,14.3z"/>
			<path class="st2" d="M77.7,23.2c-4.9,0-8.9-4-8.9-8.9c0-6,7.8-14.6,8.2-15C77.2-0.9,77.5-1,77.7-1l0,0c0.3,0,0.5,0.1,0.7,0.3
				c0.3,0.4,8.2,9,8.2,15C86.7,19.2,82.7,23.2,77.7,23.2z M77.7,1.5c-1.9,2.3-6.9,8.6-6.9,12.8c0,3.8,3.1,6.9,6.9,6.9
				c3.8,0,6.9-3.1,6.9-6.9C84.7,10.1,79.7,3.8,77.7,1.5z"/>
		</g>
		<path class="st1" d="M52.9,71.7c-8.4,0-14.6-2.4-20.1-4.5c-3.2-1.2-6.2-2.4-9.2-2.9c-9-1.4-20.1,0.3-22.9,2.7
			c-0.4,0.4-1,0.3-1.4-0.1c-0.4-0.4-0.3-1,0.1-1.4c3.5-3.1,15.4-4.6,24.5-3.2c3.2,0.5,6.3,1.7,9.6,3c5.3,2.1,11.4,4.4,19.4,4.4
			c0,0,0.1,0,0.1,0c11.7,0,29.8-10.2,31.9-11.6c1.3-0.9,1.4-2.2,0.9-3.1c-0.5-1-1.8-1.8-3.8-1.2c-0.9,0.3-22.8,7.5-35.9,3.3
			c-0.5-0.2-0.8-0.7-0.7-1.2c0.1-0.5,0.6-0.8,1.2-0.7c11.5,2.1,15.9,1,17.6-0.4c0.7-0.6,1.1-1.4,1.1-2.4c0-1.1-1.2-1.4-4.9-1.7
			c-1.9-0.1-4.1-0.3-6.2-0.9c-2.1-0.6-4-1.7-5.9-2.8c-3.1-1.7-6.6-3.7-12.2-4.7c-7.9-1.4-15.6,1.5-22.1,4.6c-0.5,0.2-1.1,0-1.3-0.5
			c-0.2-0.5,0-1.1,0.5-1.3c6.8-3.2,14.9-6.3,23.3-4.8c6,1.1,9.6,3.1,12.9,5c1.9,1.1,3.6,2,5.5,2.6c1.8,0.6,3.9,0.7,5.8,0.9
			c3.3,0.2,6.8,0.5,6.7,3.7c0,1.2-0.4,2.3-1.1,3.2c8-1.3,14.7-3.5,15.2-3.6c3.1-1,5.4,0.3,6.3,2.2c1,2,0.4,4.4-1.6,5.7
			C83.9,61.2,65.2,71.7,52.9,71.7C52.9,71.7,52.9,71.7,52.9,71.7z"/>
		<path class="st2" d="M81.2,45.3c-0.6,0-1-0.4-1-1c0-1.9-2.2-4.7-4.1-4.7c-0.6,0-1-0.4-1-1s0.4-1,1-1c3.2,0,6.1,3.8,6.1,6.7
			C82.2,44.9,81.7,45.3,81.2,45.3z"/>
	</g>
</g>
</svg>
