<svg xmlns="http://www.w3.org/2000/svg" width="376" height="107" viewBox="0 0 376 107">
  <g id="グループ_940" data-name="グループ 940" transform="translate(-584 -1631)">
    <g id="長方形_164" data-name="長方形 164" transform="translate(584 1631)" fill="#5a534a" stroke="#fff" stroke-width="3">
      <rect width="376" height="107" rx="10" stroke="none"/>
      <rect x="1.5" y="1.5" width="373" height="104" rx="8.5" fill="none"/>
    </g>
    <text id="長時間のオール_イングリッシュ環境" data-name="長時間のオール
イングリッシュ環境" transform="translate(837 1679)" fill="#fff" font-size="17" font-family="HiraginoSans-W6, Hiragino Sans"><tspan x="-59.245" y="0">長時間のオール</tspan><tspan y="0" font-family="NotoSans-Bold, Noto Sans" font-weight="700"></tspan><tspan x="-76.5" y="27">イングリッシュ環境</tspan></text>
    <g id="features-05" transform="translate(640 1650)">
      <ellipse id="楕円形_531" data-name="楕円形 531" cx="11.744" cy="11.744" rx="11.744" ry="11.744" transform="matrix(0.177, -0.984, 0.984, 0.177, 7.918, 32.278)" fill="none" stroke="#fff" stroke-linecap="round" stroke-linejoin="round" stroke-width="2"/>
      <line id="線_17" data-name="線 17" y1="1.738" x2="19.11" transform="translate(46.765 13.205)" fill="none" stroke="#ef8200" stroke-linecap="round" stroke-linejoin="round" stroke-width="2"/>
      <line id="線_18" data-name="線 18" x1="4.495" y2="12.92" transform="translate(64.652 19.11)" fill="none" stroke="#ef8200" stroke-linecap="round" stroke-linejoin="round" stroke-width="2"/>
      <path id="パス_23" data-name="パス 23" d="M60.49,211.595V201.15a12.081,12.081,0,0,1,4.2-9.154l.573-.494A23.517,23.517,0,0,1,77.513,186L91.5,184.138a24.079,24.079,0,0,0,4.984-1.212L119,174.847a6.538,6.538,0,0,1,7.83,2.819h0a5.22,5.22,0,0,1-2.076,7.288L102.618,196.5a8.659,8.659,0,0,0-4.64,8.154l.385,6.936H60.49Z" transform="translate(-60.49 -142.797)" fill="none" stroke="#fff" stroke-linecap="round" stroke-linejoin="round" stroke-width="2"/>
      <path id="パス_24" data-name="パス 24" d="M225.92,86.058l6.255-24.948,8.688,23.281" transform="translate(-179.708 -61.11)" fill="none" stroke="#ef8200" stroke-linecap="round" stroke-linejoin="round" stroke-width="2"/>
    </g>
  </g>
</svg>
