<?xml version="1.0" encoding="utf-8"?>
<!-- Generator: Adobe Illustrator 27.3.1, SVG Export Plug-In . SVG Version: 6.00 Build 0)  -->
<svg version="1.1" id="レイヤー_1" xmlns="http://www.w3.org/2000/svg" xmlns:xlink="http://www.w3.org/1999/xlink" x="0px"
	 y="0px" viewBox="0 0 376 107" style="enable-background:new 0 0 376 107;" xml:space="preserve">
<style type="text/css">
	.st0{fill:#5A534A;}
	.st1{fill:#FFFFFF;}
	.st2{enable-background:new    ;}
	.st3{fill:#EF8200;}
</style>
<g id="グループ_939" transform="translate(-584 -1486)">
	<g id="長方形_163" transform="translate(584 1486)">
		<path class="st0" d="M10,0h356c5.5,0,10,4.5,10,10v87c0,5.5-4.5,10-10,10H10c-5.5,0-10-4.5-10-10V10C0,4.5,4.5,0,10,0z"/>
		<path class="st1" d="M366,107H10c-5.5,0-10-4.5-10-10V10C0,4.5,4.5,0,10,0h356c5.5,0,10,4.5,10,10v87C376,102.5,371.5,107,366,107
			z M10,3c-3.9,0-7,3.1-7,7v87c0,3.9,3.1,7,7,7h356c3.9,0,7-3.1,7-7V10c0-3.9-3.1-7-7-7H10z"/>
	</g>
	<g class="st2">
		<path class="st1" d="M785.2,1532.1c0,0.7,0,1.1-0.1,1.4c-0.2,0.6-0.8,1-1.6,1c-1.1,0-2.4-0.5-3.2-1.2c-0.6-0.5-0.9-1.2-0.9-1.9
			c0-0.8,0.5-1.7,1.5-2.5c0.6-0.5,1.4-1,2.5-1.4l0-2.6c-0.1,0-0.1,0-0.7,0c-0.3,0-0.5,0-0.9,0c-0.3,0-0.7,0-0.9,0
			c-0.2,0-0.4,0-0.4,0c-0.1,0-0.2,0-0.4,0l0-1.9c0.5,0.1,1.2,0.2,2.1,0.2c0.2,0,0.4,0,0.6,0c0.4,0,0.5,0,0.7,0v-1.1c0-1,0-1.4-0.1-2
			h2.1c-0.1,0.5-0.1,0.9-0.1,1.9v1.1c1.3-0.2,2.4-0.4,3.3-0.6l0.1,1.9c-0.3,0.1-0.6,0.1-1.8,0.3c-0.6,0.1-0.9,0.2-1.5,0.2v2.2
			c1.2-0.3,2.2-0.5,3.5-0.5c2.8,0,4.9,1.7,4.9,4.1c0,2.2-1.6,3.9-3.9,3.9c-1.4,0-2.3-0.7-2.8-1.9c-0.2-0.6-0.3-1.1-0.3-2.2
			c0.9-0.2,1.2-0.4,1.9-0.7c0,0.3,0,0.5,0,0.7c0,0.7,0.1,1.2,0.2,1.5c0.2,0.4,0.6,0.6,1.1,0.6c1,0,1.7-0.8,1.7-1.9
			c0-1.5-1.2-2.4-3-2.4c-1,0-2.1,0.2-3.3,0.6L785.2,1532.1z M783.3,1529.4c-1.3,0.7-2,1.4-2,2c0,0.3,0.2,0.5,0.6,0.8
			c0.3,0.2,0.8,0.4,1.1,0.4c0.3,0,0.4-0.2,0.4-0.7V1529.4z M792.7,1526c-0.8-1.3-2.1-2.7-3.4-3.7l1.6-1.1c1.5,1.1,2.5,2.2,3.4,3.5
			L792.7,1526z"/>
		<path class="st1" d="M802.6,1525.7c0-0.5,0-0.9-0.1-1.3h0.9c1.2-0.7,1.6-1.1,2.9-2.2h-6.8c-0.9,0-1.5,0-2.1,0.1v-2
			c0.6,0.1,1.2,0.1,2,0.1h7.7c0.9,0,1.1,0,1.5-0.1l1.1,1.2c-0.4,0.4-0.4,0.4-1.6,1.5c-0.8,0.8-2.2,1.8-3.6,2.6v0.7h4.2
			c1.1,0,1.7,0,2.3-0.1v2.1c-0.7-0.1-1.3-0.1-2.3-0.1h-4.2v5c0,1.5-0.6,1.9-2.8,1.9c-0.3,0-0.7,0-1.9-0.1c-0.2-1-0.2-1.3-0.5-2
			c1,0.2,1.6,0.2,2.5,0.2c0.7,0,0.8-0.1,0.8-0.4v-4.5H798c-1,0-1.6,0-2.3,0.1v-2.1c0.6,0.1,1.3,0.1,2.4,0.1h4.5V1525.7z"/>
		<path class="st1" d="M819.5,1528.2c-0.6,0-1.1,0-1.6,0.1v-1.2c-0.3,0.5-0.3,0.5-0.7,1.5c-0.4-0.7-0.6-1.1-0.9-1.9
			c0,1,0.1,1.9,0.1,2.4v4.3c0,0.9,0,1.5,0.1,2.1h-1.9c0.1-0.5,0.1-1.2,0.1-2.1v-3.5c0-1.3,0.1-2.1,0.1-2.4c-0.5,1.7-0.9,2.6-1.7,4
			c-0.3-0.9-0.5-1.4-0.9-2.1c0.7-0.8,1.1-1.6,1.6-2.9c0.4-1,0.5-1.4,0.6-2.1h-0.7c-0.5,0-0.8,0-1.1,0.1v-1.8
			c0.3,0.1,0.6,0.1,1.1,0.1h0.9v-1.4c0-0.9,0-1.3-0.1-1.8h1.9c-0.1,0.5-0.1,1-0.1,1.8v1.4h0.5c0.5,0,0.7,0,1-0.1v1.8
			c-0.3,0-0.6-0.1-1-0.1h-0.4c0.2,0.7,0.8,1.6,1.4,2.3v-0.2c0.5,0.1,1,0.1,1.7,0.1h2.1v-0.9h-1.6c-0.9,0-1.1,0-1.6,0.1v-1.6
			c0.5,0.1,0.8,0.1,1.6,0.1h1.6v-0.9h-1.9c-0.8,0-1.1,0-1.6,0.1v-1.7c0.5,0.1,0.9,0.1,1.6,0.1h0.2c-0.2-0.5-0.5-1-1-1.6l1.6-0.5
			c0.5,0.8,0.8,1.4,1.1,2.2h1.5c0.5-0.9,0.7-1.3,1-2.2l1.8,0.5c-0.4,0.8-0.7,1.3-1,1.7h0.8c0.7,0,1.2,0,1.7-0.1v1.7
			c-0.5-0.1-0.9-0.1-1.7-0.1h-2.6v0.9h2.1c0.8,0,1.2,0,1.7-0.1v1.6c-0.5-0.1-0.8-0.1-1.7-0.1h-2.1v0.9h2.8c0.7,0,1.3,0,1.8-0.1v1.7
			c-0.6-0.1-1.2-0.1-1.8-0.1h-2.6c0.3,0.8,0.5,1.2,1.1,2c0.6-0.5,1-1,1.6-1.9l1.4,1c-0.7,0.9-1.2,1.4-1.9,2.1
			c0.9,0.8,1.5,1.3,2.7,1.8c-0.5,0.6-0.8,1-1.1,1.7c-0.9-0.5-1.5-1-2-1.6c-0.8-0.8-1.3-1.6-1.8-2.8c0.1,0.8,0.1,0.9,0.1,1.2v2.4
			c0,1-0.5,1.3-2.1,1.3c-0.3,0-0.7,0-1.2-0.1c-0.1-0.7-0.2-1.2-0.5-1.7c0.6,0.1,1,0.2,1.6,0.2c0.4,0,0.5-0.1,0.5-0.4v-1.6
			c-1.2,0.9-1.7,1.2-3.3,2.2c-0.1,0.1-0.5,0.3-0.7,0.5l-0.7-1.8c0.5-0.1,0.8-0.3,1.4-0.6c1.1-0.5,1.4-0.7,3.3-2v-1.9H819.5z
			 M819.1,1528.3c0.8,0.8,1.2,1.1,1.7,1.9l-1.3,1c-0.6-0.8-0.8-1.1-1.6-1.9L819.1,1528.3z"/>
		<path class="st1" d="M836.6,1530c-1,2.2-2.1,3.2-3.5,3.2c-1.9,0-3.3-2-3.3-4.7c0-1.9,0.7-3.6,1.9-4.9c1.4-1.6,3.4-2.4,5.8-2.4
			c4.1,0,6.7,2.5,6.7,6.3c0,2.9-1.5,5.3-4.1,6.3c-0.8,0.3-1.5,0.5-2.7,0.7c-0.3-0.9-0.5-1.3-1-2c1.6-0.2,2.6-0.5,3.4-0.9
			c1.5-0.8,2.4-2.4,2.4-4.2c0-1.6-0.7-3-2.1-3.8c-0.5-0.3-1-0.4-1.7-0.5C838.1,1525.8,837.5,1528.1,836.6,1530z M834.1,1524
			c-1.4,1-2.3,2.8-2.3,4.6c0,1.4,0.6,2.5,1.3,2.5c0.6,0,1.1-0.7,1.8-2.2c0.6-1.5,1.2-3.8,1.4-5.7
			C835.4,1523.2,834.8,1523.5,834.1,1524z"/>
		<path class="st1" d="M860.5,1525.6c-0.1,0.3-0.1,0.3-0.4,0.9c-0.7,1.8-1.4,3.1-2.3,4.2c0.3,0.6,0.7,1.1,1,1.5
			c0.3,0.3,0.7,0.6,0.8,0.6c0.1,0,0.1-0.1,0.2-0.3c0.1-0.4,0.1-0.4,0.3-2c0.6,0.6,0.8,0.7,1.5,1.1c-0.4,2.3-1,3.3-1.9,3.3
			c-0.9,0-2.2-1.1-3.2-2.7c-1.3,1.3-2.6,2.2-4.1,3c-0.5-0.8-0.7-1-1.3-1.5c1.8-0.7,3.3-1.8,4.6-3.1c-0.7-1.8-1.1-3.8-1.3-6.8h-5.3
			c0,1.6,0,1.6,0,2.2h3.1c0.6,0,0.9,0,1.2-0.1c0,0.3-0.1,0.8-0.1,1.4c-0.2,3.1-0.3,4-0.6,4.7c-0.3,0.7-0.9,0.9-2.2,0.9
			c-0.5,0-0.7,0-1.3-0.1c-0.1-0.7-0.2-1.1-0.4-1.8c0.9,0.1,1.2,0.1,1.6,0.1c0.5,0,0.7-0.1,0.8-0.5c0.1-0.6,0.2-1.7,0.3-3.1h-2.5
			c-0.1,1.9-0.3,3.1-0.5,4.3c-0.3,1.4-0.6,2.1-1.4,3.3c-0.5-0.7-0.9-1-1.5-1.4c0.6-0.9,1-1.7,1.2-2.7c0.3-1.4,0.5-3.7,0.5-6.7
			c0-1.3,0-1.7-0.1-2.4c0.6,0.1,1.3,0.1,2.2,0.1h4.9c0-0.1,0-0.6-0.1-1.3c0-0.6,0-0.7-0.1-1.1h2c-0.1,0.4-0.1,1.1-0.1,1.6
			c0,0.2,0,0.6,0,0.8h2.2c-0.5-0.6-0.8-1-1.5-1.6l1.3-0.8c0.8,0.7,1.1,1,1.7,1.8l-0.9,0.6h0.5c0.9,0,1.4,0,1.8-0.1v1.9
			c-0.6-0.1-1.2-0.1-2.1-0.1h-3.1c0.2,2.2,0.4,3.8,0.8,5.1c0.8-1.4,1.4-2.8,1.6-4L860.5,1525.6z"/>
		<path class="st1" d="M876.8,1529.8c-0.1,0.1-0.3,0.3-1,0.8c-0.4,0.4-1,0.8-1.6,1.2c1.4,0.7,2.8,1.2,4.5,1.5
			c-0.4,0.7-0.6,1.1-0.9,2c-2.5-0.6-4.5-1.6-6.1-3c-1.2-1-1.9-1.9-2.6-3.4h-1.5v3.9c1.5-0.3,2.2-0.5,3.4-0.9l0,1.7
			c-1.8,0.6-3.6,1.1-6.6,1.6c-0.4,0.1-0.5,0.1-0.8,0.2l-0.4-1.9c0.5,0,1.3-0.1,2.4-0.3v-4.2h-0.9c-0.7,0-1.2,0-1.7,0.1v-1.8
			c0.4,0.1,1,0.1,1.8,0.1h0.9v-5.4c0-0.9,0-1.2-0.1-1.7c0.5,0.1,1,0.1,1.9,0.1h7.6c1,0,1.5,0,2-0.1v1.8c-0.5-0.1-0.9-0.1-2-0.1h-7.5
			v0.8h7.2c0.7,0,1.2,0,1.6-0.1v1.5c-0.3-0.1-1.1-0.1-1.6-0.1h-7.2v0.8h7.2c0.7,0,1.2,0,1.6-0.1v1.6c-0.5-0.1-0.9-0.1-1.6-0.1h-7.2
			v0.9h9.1c0.8,0,1.2,0,1.7-0.1v1.8c-0.4-0.1-0.9-0.1-1.5-0.1h-1.6L876.8,1529.8z M871,1528.9c0.5,0.9,0.9,1.3,1.8,2
			c0.8-0.6,1.8-1.4,2.3-2H871z"/>
		<path class="st1" d="M880.6,1521.8c0.7,0.2,1.8,0.2,3.9,0.2c0.5-1,0.6-1.5,0.7-2.1l2.2,0.2c-0.1,0.2-0.1,0.2-0.7,1.5
			c-0.1,0.2-0.1,0.2-0.2,0.3c0.1,0,0.1,0,1.1-0.1c2-0.1,3.5-0.3,4.5-0.6l0.1,1.9c-0.5,0-0.5,0-1.3,0.1c-1.2,0.2-3.4,0.3-5.1,0.3
			c-0.5,1-1,1.6-1.6,2.3l0,0c0.1-0.1,0.1-0.1,0.3-0.3c0.6-0.5,1.5-0.8,2.4-0.8c1.3,0,2.2,0.6,2.4,1.8c1.3-0.5,2.2-0.8,2.6-0.9
			c0.9-0.3,1-0.3,1.3-0.5l0.8,2c-0.5,0.1-1,0.2-1.9,0.5c-0.2,0.1-1.1,0.4-2.6,0.9v0.2c0,0.4,0,0.4,0,0.7c0,0.2,0,0.5,0,0.7
			c0,0.3,0,0.4,0,0.6c0,0.4,0,0.6,0.1,0.9l-2,0.1c0.1-0.3,0.1-1.2,0.1-2c0-0.2,0-0.2,0-0.4c-0.8,0.4-1.3,0.6-1.6,0.9
			c-0.6,0.4-0.9,0.9-0.9,1.4c0,0.9,0.8,1.2,2.9,1.2c2,0,3.8-0.3,5-0.7l0.2,2.2c-0.3,0-0.4,0-0.8,0.1c-1.2,0.2-2.9,0.3-4.4,0.3
			c-1.8,0-2.9-0.2-3.8-0.7c-0.8-0.4-1.2-1.3-1.2-2.2c0-0.7,0.2-1.2,0.7-1.9c0.8-1,1.7-1.6,3.7-2.4c-0.1-0.6-0.4-0.9-1-0.9
			c-1,0-2.2,0.6-3.5,1.8c-0.7,0.6-1.1,1-1.5,1.5l-1.5-1.5c0.4-0.3,0.9-0.8,1.5-1.5c0.7-0.8,1.7-2.3,2-2.9c0.1-0.1,0.1-0.1,0.1-0.2
			c-0.1,0-0.3,0-0.3,0c-0.3,0-1.8,0-2.1,0c-0.3,0-0.3,0-0.5,0c-0.1,0-0.2,0-0.3,0L880.6,1521.8z"/>
	</g>
	<g class="st2">
		<path class="st1" d="M767.2,1547.6c-0.1,0.5-0.1,0.6-0.1,1.5v4.7c0,0.8,0,1.1,0.1,1.5h-2.3c0.1-0.4,0.1-0.9,0.1-1.5v-4.7
			c0-0.9,0-1.1-0.1-1.5L767.2,1547.6z M774.9,1547.6c-0.1,0.4-0.1,0.6-0.1,1.6v2.3c0,2.7-0.1,4.1-0.4,5.2c-0.5,1.7-1.6,3-3.3,4
			c-0.9,0.5-1.8,0.8-3.3,1.3c-0.3-0.8-0.5-1.1-1.2-2c1.7-0.3,2.7-0.7,3.7-1.4c1.6-1.1,2.2-2.1,2.3-4.3c0.1-0.7,0.1-1.5,0.1-2.8v-2.1
			c0-0.9,0-1.2-0.1-1.6H774.9z"/>
		<path class="st1" d="M785.3,1551.4c-0.1,0.3-0.1,0.3-0.1,1.4c-0.1,2.9-0.5,4.5-1.7,6c-1,1.3-2.3,2.2-4.4,3.1
			c-0.4-0.9-0.7-1.2-1.3-1.9c1.4-0.4,2.1-0.8,3-1.4c1.7-1.4,2.3-2.8,2.3-6.1c0-0.5,0-0.7-0.1-1H785.3z M792.2,1549.3
			c-0.2,0.3-0.2,0.3-0.7,1.2c-0.6,1.3-1.6,2.5-2.6,3.4c-0.7,0.6-1.2,1-2,1.4c-0.5-0.7-0.8-1-1.5-1.5c1.1-0.5,1.8-0.9,2.5-1.6
			c0.7-0.6,1.2-1.3,1.6-2.2h-8.9c-1.2,0-1.6,0-2.3,0.1v-2.1c0.6,0.1,1.2,0.1,2.3,0.1h8.9c1,0,1.2,0,1.6-0.2L792.2,1549.3z"/>
		<path class="st1" d="M797.9,1547.8c-0.1,0.5-0.1,0.5-0.2,3.8c-0.1,3.3-0.5,5.2-1.4,7c-0.6,1.2-1.2,2-2.3,3.1
			c-0.7-0.8-0.9-1.1-1.7-1.6c0.8-0.7,1.2-1.1,1.8-2c1.2-2,1.6-4.1,1.6-8.9c0-0.9,0-1.1-0.1-1.5L797.9,1547.8z M802.4,1547.6
			c-0.1,0.5-0.1,0.8-0.1,1.6l-0.1,9.7c1.2-0.6,1.9-1.1,2.6-1.9c0.8-0.9,1.3-1.9,1.7-3.1c0.6,0.8,0.8,1,1.6,1.6c-0.7,1.7-1.6,3-2.7,4
			c-1,0.8-1.9,1.3-3.6,2c-0.4,0.1-0.5,0.2-0.7,0.3l-1.1-1.2c0.1-0.5,0.1-0.9,0.2-1.8l0.1-9.6v-0.5c0-0.4,0-0.8-0.1-1.1L802.4,1547.6
			z"/>
		<path class="st1" d="M822.6,1549.9c-0.2,0.3-0.3,0.4-0.5,1.1c-0.5,1.5-1.5,3.5-2.2,4.7c-1.7,2.8-4.1,4.8-7.8,6.5
			c-0.5-0.9-0.8-1.2-1.4-1.8c1.4-0.6,2.3-1,3.3-1.7c1.2-0.8,1.9-1.4,2.8-2.4c-1.2-1-2.2-1.7-3.5-2.4l1.3-1.5
			c1.4,0.8,2.1,1.3,3.4,2.3c0.8-1.2,1.4-2.4,1.9-4l-5.3,0.1c-1.1,1.8-2.3,3.1-4,4.6c-0.6-0.6-0.8-0.9-1.7-1.4
			c1.9-1.4,3.2-2.9,4.3-4.8c0.5-0.9,0.8-1.7,1-2.4l2.2,0.5c-0.2,0.3-0.2,0.3-0.5,1c-0.2,0.5-0.3,0.7-0.4,0.8c0.3,0,0.3,0,4.4-0.1
			c0.7,0,1.1-0.1,1.5-0.2L822.6,1549.9z"/>
		<path class="st1" d="M838.1,1548.6c-0.3,0.3-0.4,0.3-0.6,0.6c-1.3,1.3-2.5,2.4-4,3.5v7.3c0,0.9,0,1.4,0.1,1.9h-2.4
			c0.1-0.5,0.1-0.8,0.1-1.8v-6c-2,1.2-2.9,1.6-6.1,2.8c-0.4-0.9-0.5-1.2-1.1-1.9c3.4-0.9,6.2-2.3,8.9-4.4c1.5-1.2,2.7-2.3,3.2-3.2
			L838.1,1548.6z"/>
		<path class="st1" d="M846.2,1547.7c-0.2,0.4-0.2,0.4-0.4,1.2c-1.3,4.2-2.3,7.1-3.4,9.7c2.7-0.2,5.6-0.6,7.1-0.9
			c-0.2-0.4-0.4-0.8-0.8-1.5c-0.7-1.4-1.1-1.9-1.6-2.7l1.9-0.7c1.6,2.3,3.1,5.2,4.1,7.9l-2.1,1.1c-0.2-0.7-0.2-0.7-0.8-2.1
			c-0.2,0.1-0.2,0.1-0.6,0.1c-1.7,0.4-4.5,0.7-9.6,1.2c-1,0.1-1.2,0.1-1.5,0.2l-0.3-2.3c0.2,0,0.2,0,0.4,0c0.3,0,0.7,0,1.5-0.1
			c0.9-2.1,1.6-4.1,2.5-6.9c0.8-2.5,1.1-3.7,1.2-4.7L846.2,1547.7z"/>
		<path class="st1" d="M855.7,1561.5c0-0.3,0-0.4-0.1-0.8c-0.3-2.1-0.4-3.4-0.4-5.1c0-2.2,0.2-4.1,0.7-6.6c0.2-1,0.2-1.1,0.3-1.6
			l2.2,0.2c-0.4,1-0.8,2.9-1.1,5.1c-0.2,1.3-0.2,2.3-0.3,3.8c0,0.4,0,0.5,0,0.9c0.2-0.6,0.2-0.7,0.9-2.2l1.4,0.6
			c-0.9,2-1.5,3.9-1.5,5.2c0,0.1,0,0.2,0,0.5L855.7,1561.5z M862.9,1554.8c-0.8,1-1.2,1.7-1.2,2.4c0,1,0.9,1.5,2.7,1.5
			c1.5,0,3-0.2,4-0.6l0.2,2.2c-0.2,0-0.3,0-0.7,0.1c-1.4,0.2-2.4,0.3-3.5,0.3c-2.1,0-3.5-0.5-4.2-1.5c-0.3-0.4-0.5-1.1-0.5-1.7
			c0-1.1,0.5-2.2,1.6-3.5L862.9,1554.8z M860.1,1549.2c0.8,0.2,1.7,0.3,3.1,0.3c1.9,0,3.5-0.2,4.6-0.5l0.1,2.1
			c-0.1,0-0.4,0.1-1.2,0.2c-1.1,0.1-2.4,0.2-3.6,0.2c-1.2,0-1.3,0-3.1-0.2L860.1,1549.2z"/>
		<path class="st1" d="M876.5,1551.2c0.7,0,1,0,1.5-0.1v1.8c-0.3-0.1-0.5-0.1-1-0.1c-0.2,0.8-0.3,1.1-0.6,1.9h0.2
			c0.6,0,0.9,0,1.3-0.1v1.8c-0.5-0.1-0.8-0.1-1.5-0.1h-1.3v1.4h1.2c0.6,0,1,0,1.4-0.1v1.8c-0.4-0.1-0.8-0.1-1.4-0.1h-1.2v1.2
			c0,0.6,0,1.2,0.1,1.7h-1.9c0.1-0.6,0.1-1.1,0.1-1.7v-1.2h-1.2c-0.6,0-0.9,0-1.4,0.1v-1.8c0.4,0.1,0.8,0.1,1.4,0.1h1.2v-1.4h-1.5
			c-0.6,0-1,0-1.5,0.1v-1.8c0.4,0.1,0.7,0.1,1.5,0.1h0.2c-0.1-0.7-0.2-1.1-0.4-1.9c-0.6,0-0.8,0-1.2,0.1v-1.8
			c0.4,0.1,0.8,0.1,1.5,0.1h1.5v-1.3h-1.2c-0.6,0-1,0-1.4,0.1v-1.8c0.4,0.1,0.7,0.1,1.4,0.1h1.2v-0.3c0-0.5,0-1.1-0.1-1.3h1.8
			c-0.1,0.4-0.1,0.7-0.1,1.3v0.3h1c0.7,0,1,0,1.4-0.1v1.8c-0.4-0.1-0.8-0.1-1.4-0.1h-1v1.3H876.5z M874.8,1554.8
			c0.2-0.6,0.4-1.2,0.5-1.9h-2c0.2,0.8,0.3,1.1,0.4,1.9H874.8z M885.6,1553.6c-0.1,0.2-0.1,0.3-0.2,0.7c-0.4,1.6-0.9,3.1-1.4,4.2
			c0.7,0.8,1.2,1.3,2.3,2c-0.5,0.8-0.7,1.1-1,1.8c-1-0.8-1.6-1.3-2.3-2.2c-0.6,0.8-1.2,1.4-2,2.2c-0.3-0.6-0.6-1-1-1.5
			c0,0.7,0.1,1,0.1,1.6h-1.9c0.1-0.7,0.1-1.1,0.1-2V1549c0-0.6,0-1.3-0.1-1.7c0.5,0.1,1,0.1,1.6,0.1h4.2c0.8,0,1.3,0,1.6-0.1
			c-0.1,0.5-0.1,0.7-0.1,1.1c-0.2,3.1-0.4,3.5-2.3,3.5c-0.5,0-0.8,0-1.5-0.1c-0.1-0.7-0.2-1.1-0.4-1.6c0.7,0.1,1.4,0.2,1.8,0.2
			c0.5,0,0.6-0.2,0.7-1.4H880v3.7h3.2c0.8,0,1.3,0,1.6-0.1L885.6,1553.6z M880,1560.6c0.8-0.6,1.3-1.2,1.9-2
			c-0.7-1.2-1.1-2.1-1.6-4.3H880V1560.6z M881.8,1554.3c0.3,1.2,0.5,1.9,1,2.7c0.4-0.8,0.6-1.5,0.8-2.7H881.8z"/>
		<path class="st1" d="M891.1,1550.6c-0.6,0.8-1,1.3-1.9,2.1c-0.5-0.6-0.7-0.7-1.5-1.3c1.3-1.1,2-1.9,2.6-3.2
			c0.3-0.5,0.5-1.1,0.5-1.4l2,0.5c-0.4,0.8-0.7,1.4-0.7,1.5h2.3v-0.6c0-0.7,0-1.1-0.1-1.6h2.1c-0.1,0.5-0.1,0.9-0.1,1.6v0.6h3.4
			c0.8,0,1.4,0,1.9-0.1v1.9c-0.5-0.1-1.1-0.1-1.8-0.1h-3.5v2.1h4.6c0.8,0,1.4,0,1.9-0.1v1.9c-0.6-0.1-1.1-0.1-1.9-0.1h-11.3
			c-0.8,0-1.3,0-1.9,0.1v-1.9c0.6,0.1,1.1,0.1,1.9,0.1h4.9v-2.1H891.1z M889.4,1562.4c0.1-0.5,0.1-1.2,0.1-1.9v-3.1
			c0-0.8,0-1.2-0.1-1.6c0.5,0.1,0.9,0.1,1.7,0.1h8.1c0.8,0,1.2,0,1.7-0.1c-0.1,0.4-0.1,0.8-0.1,1.6v3.2c0,0.9,0,1.4,0.1,1.9h-2v-0.7
			h-7.6v0.7H889.4z M891.4,1559.9h7.6v-2.4h-7.6V1559.9z"/>
	</g>
	<g id="features-03" transform="translate(633 1513)">
		<path class="st1" d="M73.2,53.2H10c-6.1,0-11-4.9-11-11V10C-1,3.9,3.9-1,10-1h63.2c6.1,0,11,4.9,11,11v32.2
			C84.2,48.2,79.3,53.2,73.2,53.2z M10,1c-5,0-9,4-9,9v32.2c0,5,4,9,9,9h63.2c5,0,9-4,9-9V10c0-5-4-9-9-9H10z"/>
		<g id="グループ_19" transform="translate(12.296 17.191)">
			<path class="st1" d="M24.4,1H0c-0.6,0-1-0.4-1-1s0.4-1,1-1h24.4c0.6,0,1,0.4,1,1S24.9,1,24.4,1z"/>
			<path class="st1" d="M24.4,9.9H0c-0.6,0-1-0.4-1-1s0.4-1,1-1h24.4c0.6,0,1,0.4,1,1S24.9,9.9,24.4,9.9z"/>
			<path class="st1" d="M24.4,18.8H0c-0.6,0-1-0.4-1-1s0.4-1,1-1h24.4c0.6,0,1,0.4,1,1S24.9,18.8,24.4,18.8z"/>
		</g>
		<g id="グループ_20" transform="translate(46.566 9.926)">
			<path id="パス_16" class="st3" d="M19.9,20h-3.1l-2.8,4.6l4.9,8.5c0.3,0.4,0.8,0.6,1.3,0.3c0,0,0,0,0,0l1.3-3.5l3.3,0.8
				c0.5-0.3,0.7-0.9,0.4-1.4L19.9,20L19.9,20z"/>
			<path id="パス_17" class="st3" d="M5.7,20l-5.4,9.3c-0.3,0.5-0.1,1.1,0.4,1.4c0,0,0,0,0,0L4.3,30l0.9,3.5
				c0.4,0.3,1,0.1,1.3-0.3L14.1,20L5.7,20L5.7,20z"/>
			<g>
				<path id="パス_18_00000008114290914591662430000000508177028789176194_" class="st0" d="M12.1,25.3l-1.8-1.5
					c-0.2-0.2-0.5-0.3-0.8-0.2L7.1,24c-0.5,0.1-1-0.2-1.2-0.7l-0.8-2.2c-0.1-0.3-0.3-0.5-0.6-0.6l-2.2-0.8c-0.5-0.2-0.8-0.7-0.7-1.2
					L2,16.1c0-0.3,0-0.6-0.2-0.8l-1.5-1.8c-0.3-0.4-0.3-1,0-1.3l1.5-1.8C1.9,10,2,9.7,2,9.4L1.6,7.1c-0.1-0.5,0.2-1,0.7-1.2l2.2-0.8
					C4.8,5,5,4.8,5.1,4.5l0.8-2.2c0.2-0.5,0.7-0.8,1.2-0.7L9.4,2c0.3,0,0.6,0,0.8-0.2l1.8-1.5c0.4-0.3,1-0.3,1.3,0l1.8,1.5
					C15.5,1.9,15.8,2,16.1,2l2.3-0.4c0.5-0.1,1,0.2,1.2,0.7l0.8,2.2c0.1,0.3,0.3,0.5,0.6,0.6l2.2,0.8c0.5,0.2,0.8,0.7,0.7,1.2
					l-0.4,2.3c0,0.3,0,0.6,0.2,0.8l1.5,1.8c0.3,0.4,0.3,1,0,1.3l-1.5,1.8c-0.2,0.2-0.3,0.5-0.2,0.8l0.4,2.3c0.1,0.5-0.2,1-0.7,1.2
					l-2.2,0.8c-0.3,0.1-0.5,0.3-0.6,0.6l-0.8,2.2c-0.2,0.5-0.7,0.8-1.2,0.7l-2.3-0.4c-0.3,0-0.6,0-0.8,0.2l-1.8,1.5
					C13.1,25.7,12.5,25.7,12.1,25.3z"/>
				<path class="st1" d="M12.8,26.6c-0.5,0-0.9-0.2-1.3-0.5h0l-1.8-1.5L7.3,25c-1,0.2-1.9-0.4-2.3-1.3l-0.8-2.2l-2.3-0.9
					c-0.9-0.3-1.5-1.3-1.3-2.3L1,16l-1.5-1.9c-0.6-0.8-0.6-1.9,0-2.6L1,9.6L0.6,7.3C0.4,6.3,1,5.3,1.9,5l2.2-0.8L5,1.9
					C5.3,1,6.3,0.4,7.3,0.6L9.6,1l1.9-1.5c0.8-0.6,1.9-0.6,2.6,0L15.9,1l2.4-0.4c1-0.2,1.9,0.4,2.3,1.3l0.8,2.2L23.7,5
					c0.9,0.3,1.5,1.3,1.3,2.3l-0.4,2.3l1.5,1.9c0.6,0.8,0.6,1.9,0,2.6l-1.5,1.8l0.4,2.4c0.2,1-0.4,1.9-1.3,2.3l-2.2,0.8l-0.9,2.3
					c-0.3,0.9-1.3,1.5-2.3,1.3L16,24.6l-1.9,1.5C13.7,26.4,13.3,26.6,12.8,26.6z M12.7,24.6C12.8,24.6,12.8,24.6,12.7,24.6l1.9-1.5
					c0.5-0.4,1.1-0.5,1.6-0.4l2.3,0.4l0.9-2.3c0.2-0.6,0.6-1,1.2-1.2l2.2-0.8l-0.3-2.4c-0.1-0.6,0.1-1.2,0.4-1.6l1.5-1.8l-1.5-1.9
					c-0.4-0.5-0.5-1.1-0.4-1.6L23,6.9L20.7,6c-0.6-0.2-1-0.6-1.2-1.2l-0.8-2.2L16.3,3c-0.6,0.1-1.2-0.1-1.6-0.4L12.8,1l-1.9,1.5
					C10.5,2.9,9.9,3.1,9.3,3L6.9,2.6L6,4.8C5.8,5.4,5.4,5.8,4.8,6L2.6,6.9L3,9.3c0.1,0.6-0.1,1.2-0.4,1.6L1,12.8l1.5,1.9
					C2.9,15.1,3,15.7,3,16.3l-0.4,2.3l2.3,0.9c0.6,0.2,1,0.6,1.2,1.2L6.9,23l2.4-0.3c0.6-0.1,1.2,0.1,1.6,0.4L12.7,24.6z"/>
			</g>
			<path class="st1" d="M12.8,20.5c-1.5,0-2.9-0.4-4.2-1.2c-2.2-1.4-3.5-3.8-3.6-6.4c0-1.5,0.4-3,1.2-4.3C8.6,5,13.4,4,16.9,6.3
				c1.7,1.1,2.9,2.8,3.4,4.9c0.4,2,0.1,4.1-1,5.8s-2.8,2.9-4.9,3.4C13.9,20.5,13.3,20.5,12.8,20.5z M12.8,7C10.9,7,9,8,7.9,9.7
				c0,0,0,0,0,0c-0.6,1-0.9,2.1-0.9,3.2c0,1.9,1,3.7,2.6,4.7c1.3,0.8,2.8,1.1,4.3,0.8c1.5-0.3,2.8-1.2,3.6-2.5
				c0.8-1.3,1.1-2.8,0.8-4.3c-0.3-1.5-1.2-2.8-2.5-3.6C14.9,7.3,13.8,7,12.8,7z M7.1,9.2L7.1,9.2L7.1,9.2z"/>
		</g>
	</g>
</g>
</svg>
