<svg xmlns="http://www.w3.org/2000/svg" width="170" height="150" viewBox="0 0 170 150">
  <g id="features_normal__-sp" data-name="features_normal_３-sp" transform="translate(-9657 -1421.358)">
    <g id="グループ_1014" data-name="グループ 1014" transform="translate(9634.103 1345.55)">
      <rect id="長方形_165" data-name="長方形 165" width="170" height="150" rx="10" transform="translate(22.897 75.807)" fill="#5a534a"/>
      <path id="長方形_165_-_アウトライン" data-name="長方形 165 - アウトライン" d="M10,2a8.009,8.009,0,0,0-8,8V140a8.009,8.009,0,0,0,8,8H160a8.009,8.009,0,0,0,8-8V10a8.009,8.009,0,0,0-8-8H10m0-2H160a10,10,0,0,1,10,10V140a10,10,0,0,1-10,10H10A10,10,0,0,1,0,140V10A10,10,0,0,1,10,0Z" transform="translate(22.897 75.807)" fill="#fff"/>
      <path id="パス_5917" data-name="パス 5917" d="M-58.995-.45c0,.57.15.885.51,1.065a5.314,5.314,0,0,0,2.22.3c1.785,0,2.475-.15,2.9-.645.33-.4.465-1.08.555-2.865A5.858,5.858,0,0,1-54.39-3.12q-.045,1.238-.045,1.4a2.362,2.362,0,0,1-.135.84c-.135.225-.51.3-1.6.3-1.05,0-1.2-.06-1.2-.45V-5.79c.69-.06.69-.06,1.845-.18.315.36.525.615,1.065,1.305l1.275-1.05a26.7,26.7,0,0,0-3.915-3.6l-1.29.735c.81.63,1.08.87,1.56,1.3-1.485.135-2.565.2-4.665.27A20.464,20.464,0,0,0-59.79-9.42h5.205a11.113,11.113,0,0,1,1.65.075V-11.07a9.47,9.47,0,0,1-1.635.1H-58.9v-.525a6.047,6.047,0,0,1,.09-1.08h-1.89a6.221,6.221,0,0,1,.09,1.1v.51h-4.05a10.056,10.056,0,0,1-1.68-.1v1.725a14.045,14.045,0,0,1,1.62-.075h3.075a13.553,13.553,0,0,1-1.68,2.46c-.255,0-.465,0-.585.015h-.615a9.618,9.618,0,0,1-1.185-.06l.24,1.755a11.932,11.932,0,0,1,1.2-.105c.84-.03,1.125-.045,2-.09a5.062,5.062,0,0,1-.915,3.105A6.82,6.82,0,0,1-66.585-.3a6.547,6.547,0,0,1,.96,1.545,8.284,8.284,0,0,0,3.84-2.7,6.856,6.856,0,0,0,1.14-4.065c.3-.03.63-.045.975-.075.15-.015.39-.03.675-.06Zm13.47-6.885c0,.4,0,.4-.015.825h-2.64a9.471,9.471,0,0,1-1.35-.06v1.425a9.886,9.886,0,0,1,1.35-.06h2.535c-.045.36-.075.525-.135.81h-3.93a9.693,9.693,0,0,1-1.515-.075v1.575a13.8,13.8,0,0,1,1.6-.09h3.315a4.426,4.426,0,0,1-1.9,1.755,9.136,9.136,0,0,1-3.255.915,4.943,4.943,0,0,1,.8,1.56,9.732,9.732,0,0,0,3.66-1.35A5.9,5.9,0,0,0-44.82-2.46,7.935,7.935,0,0,0-41.265.39a14.69,14.69,0,0,0,2.805.87,6,6,0,0,1,.78-1.62c-.825-.15-1.29-.24-1.665-.345a9.509,9.509,0,0,1-2.64-1.02,5.106,5.106,0,0,1-1.4-1.26h3.825a13.157,13.157,0,0,1,1.62.09V-4.47a10.255,10.255,0,0,1-1.545.075h-4.68c.06-.315.075-.435.12-.81h2.9a9.774,9.774,0,0,1,1.335.06V-6.57a9.225,9.225,0,0,1-1.335.06H-43.95c.015-.345.015-.345.03-.825H-40.9a8.542,8.542,0,0,1,1.425.075v-.8h1.38a8.253,8.253,0,0,1-.06-1.11V-10.3a8.613,8.613,0,0,1,.06-1.1c-.51.045-.9.06-1.665.06h-4.11v-.345a4.555,4.555,0,0,1,.075-.945h-1.845a4.7,4.7,0,0,1,.09.945v.345h-3.9a16.352,16.352,0,0,1-1.65-.06,9.259,9.259,0,0,1,.06,1.125v1.11a5.853,5.853,0,0,1-.075,1.11h1.38v.8a8.23,8.23,0,0,1,1.41-.075Zm-2.805-1.32A10.484,10.484,0,0,1-49.485-8.7V-9.93h9.765V-8.7c-.375.03-.615.045-1.185.045H-43.89a4.925,4.925,0,0,1,.06-.96h-1.74a7.168,7.168,0,0,1,.06.96Zm19.875-.96a3.278,3.278,0,0,1,1.515.45A3.716,3.716,0,0,1-25.1-5.835a4.2,4.2,0,0,1-2.085,3.75,7.972,7.972,0,0,1-2.985.825A4.785,4.785,0,0,1-29.25.5,9.807,9.807,0,0,0-26.9-.135a5.779,5.779,0,0,0,3.645-5.6c0-3.375-2.34-5.565-5.94-5.565a6.733,6.733,0,0,0-5.16,2.1A6.443,6.443,0,0,0-36-4.83c0,2.415,1.23,4.155,2.94,4.155,1.23,0,2.19-.885,3.045-2.82A21.7,21.7,0,0,0-28.455-9.615Zm-1.83.015A19.769,19.769,0,0,1-31.53-4.53c-.54,1.29-1.05,1.92-1.545,1.92-.66,0-1.185-.975-1.185-2.205a5.022,5.022,0,0,1,2.04-4.05A3.818,3.818,0,0,1-30.285-9.6ZM-18.57-10.9a10.278,10.278,0,0,1-1.92-.105v1.95a10.807,10.807,0,0,1,1.89-.09h7.14a10.878,10.878,0,0,1-7.83,8.07A5.52,5.52,0,0,1-17.97.7,13.453,13.453,0,0,0-9.36-9.24a2.05,2.05,0,0,0,.285.03,1.741,1.741,0,0,0,1.74-1.74,1.738,1.738,0,0,0-1.74-1.725,1.729,1.729,0,0,0-1.725,1.74c-.255.015-.435.03-.885.03Zm9.495-1.02a.976.976,0,0,1,.99.975.989.989,0,0,1-.99.99.986.986,0,0,1-.975-.99A.973.973,0,0,1-9.075-11.925ZM3.99-.87V.165H5.925a10.282,10.282,0,0,1-.06-1.3V-9.72c0-.555.015-.855.045-1.245-.345.03-.615.045-1.26.045H-3.87c-.6,0-.915-.015-1.275-.045a9.962,9.962,0,0,1,.06,1.26V-1.11A10.024,10.024,0,0,1-5.145.18H-3.21V-.87Zm0-1.71h-7.2V-9.225h7.2ZM20.16-9.9l.645-.24a9.532,9.532,0,0,0-1.335-2.37l-1.11.375a9.3,9.3,0,0,1,1.095,1.875,7.251,7.251,0,0,1-.78.03l-3.285.045c-.3,0-.54.015-.72.03l.12-.225c.03-.06.03-.075.105-.21.15-.3.285-.6.4-.87a1.791,1.791,0,0,1,.255-.45L13.5-12.33a5.756,5.756,0,0,1-.765,1.995A11.818,11.818,0,0,1,8.85-5.985a3.985,3.985,0,0,1,1.455,1.29,14.905,14.905,0,0,0,3.51-3.855l4.515-.06A12.07,12.07,0,0,1,10.665-.525,4.963,4.963,0,0,1,11.94,1.05a15.141,15.141,0,0,0,5.34-3.795A14.791,14.791,0,0,0,20.3-8.415a3.025,3.025,0,0,1,.375-.9Zm2.6-.915a8.753,8.753,0,0,0-1.32-2.28l-1.08.375a10.744,10.744,0,0,1,1.29,2.325Zm3.15.87a11.535,11.535,0,0,1,1.725-.075h5.295a11.535,11.535,0,0,1,1.725.075V-11.79a8.535,8.535,0,0,1-1.755.105H27.66a8.535,8.535,0,0,1-1.755-.105Zm9.51,1.74a6.561,6.561,0,0,1-1.695.135H26.58a10.647,10.647,0,0,1-1.95-.105v1.83a15.259,15.259,0,0,1,1.92-.075h7.305A7.8,7.8,0,0,1,31.44-2.91,9.741,9.741,0,0,1,27.27-.93,5.227,5.227,0,0,1,28.44.81a13.348,13.348,0,0,0,3.93-2.04A10.607,10.607,0,0,0,35.85-6.3a6.763,6.763,0,0,1,.42-.945Zm7.575-3.96A23.724,23.724,0,0,1,41.9-8.01c-.78,2.46-1.38,4.155-2.175,6.045-.63.03-.99.045-1.29.045h-.39L38.31.105a8.2,8.2,0,0,1,1.365-.18c4.485-.435,6.975-.75,8.49-1.065.345-.075.345-.075.54-.12A15.361,15.361,0,0,1,49.425.6L51.24-.345A35.086,35.086,0,0,0,47.61-7.29l-1.695.66A18.623,18.623,0,0,1,47.34-4.245c.36.675.54,1,.7,1.365a59.282,59.282,0,0,1-6.24.765,89.09,89.09,0,0,0,2.97-8.55,4.591,4.591,0,0,1,.39-1.08ZM53.34-8.5a18.826,18.826,0,0,1,2.49-.3c2.91-.21,3.84-.3,5.055-.48A6.633,6.633,0,0,0,58.8-7.77a5.223,5.223,0,0,0-1.425,3.525A4.013,4.013,0,0,0,59.52-.63a9.024,9.024,0,0,0,3.51.99c.285.045.315.045.51.09l.27-2.04c-.15.015-.285.015-.3.015a9.1,9.1,0,0,1-2.235-.39,2.519,2.519,0,0,1-2-2.445c0-1.515,1.125-3.015,3.03-4.005a6.708,6.708,0,0,1,2.97-.81,2.323,2.323,0,0,1,.315.015l-.105-1.9a8.082,8.082,0,0,1-1.545.12c-4,.195-6.57.33-7.665.39-2.2.15-2.2.15-2.475.15-.075,0-.24,0-.57-.015Zm9.18,1.44A10.124,10.124,0,0,1,64.1-4.83l1.05-.555a9.721,9.721,0,0,0-1.575-2.2Zm4.41.7a8.675,8.675,0,0,0-1.56-2.115l-1.005.525a11.052,11.052,0,0,1,1.53,2.175ZM-33.615,16.2h1.83a10.653,10.653,0,0,1,1.485.09V14.565a10.21,10.21,0,0,1-1.485.09h-1.83V13.59a17.67,17.67,0,0,0,2.625-3.12,2.706,2.706,0,0,1,.3-.36l-.825-1.05a6.7,6.7,0,0,1-1.305.075h-3.465a11.538,11.538,0,0,1-1.665-.09v1.71c.45-.045,1.02-.075,1.62-.075H-33a8.521,8.521,0,0,1-1.785,2.04h-.6a10.842,10.842,0,0,1,.09,1.425v.51h-1.56a8.593,8.593,0,0,1-1.485-.075v1.71a11.671,11.671,0,0,1,1.53-.09h1.515v4.02c0,.24-.12.285-.645.285a12.816,12.816,0,0,1-1.695-.165,5.7,5.7,0,0,1,.405,1.695c.66.045,1.125.06,1.56.06,1.665,0,2.055-.3,2.055-1.62Zm-4.38,3.24a16.9,16.9,0,0,0-1.68-1.53,15.969,15.969,0,0,0,1.365-5.85c.045-.615.045-.615.06-.915a9.962,9.962,0,0,1-1.26.06h-1.3c.135-.69.21-1.155.3-1.77a6.824,6.824,0,0,1,.165-.96l-1.77-.135v.165a19.781,19.781,0,0,1-.315,2.7h-.42a6.653,6.653,0,0,1-1.32-.09v1.62a7.962,7.962,0,0,1,1.08-.075h.36a25.206,25.206,0,0,1-1.305,4.05,18.582,18.582,0,0,1,2.3,1.605A8.148,8.148,0,0,1-44.43,20.76a8.133,8.133,0,0,1,1.08,1.4,10.054,10.054,0,0,0,2.835-2.79A16.583,16.583,0,0,1-39.03,20.9Zm-1.86-6.78a12.175,12.175,0,0,1-1.08,4.245c-.36-.255-.585-.42-1.185-.825a28.538,28.538,0,0,0,.825-2.745c.12-.45.12-.45.165-.675ZM-18.3,11.115c.675,0,1.29.03,1.755.075V9.555a13.352,13.352,0,0,1-1.83.09H-21.84a4.855,4.855,0,0,0,.1-.585,3.9,3.9,0,0,1,.12-.63L-23.4,8.355a1.243,1.243,0,0,1,.03.3,4.538,4.538,0,0,1-.105.99h-3.15a12.4,12.4,0,0,1-1.86-.09V11.19a14.9,14.9,0,0,1,1.785-.075h2.565c-.825.96-2.4,1.515-4.59,1.62a3.7,3.7,0,0,1,.675,1.29c-.555-.03-.81-.045-1.1-.075v1.635a14.1,14.1,0,0,1,1.695-.09h8.1v4.8c0,.3-.1.36-.675.36a11.786,11.786,0,0,1-1.68-.12,4.22,4.22,0,0,1,.45,1.5c.375.03.96.06,1.29.06,1.8,0,2.235-.315,2.235-1.65v-4.95h.21a14.018,14.018,0,0,1,1.68.09V13.95c-.33.03-.57.045-1.035.06a4.527,4.527,0,0,1,.6-1.335c-2.46-.075-3.96-.555-4.905-1.56Zm-9.06,2.91c2.49-.4,3.84-1.08,4.755-2.385a5.074,5.074,0,0,0,2.175,1.71,9.821,9.821,0,0,0,2.64.675Zm6.39,3.405a9.311,9.311,0,0,1,.06-1.23,8.556,8.556,0,0,1-1.305.045h-3.81c-.54,0-.855-.015-1.29-.045.03.345.045.72.045,1.23v2.2a10.958,10.958,0,0,1-.06,1.4h1.635v-.75h3.51c.45,0,.81.015,1.275.045a8.512,8.512,0,0,1-.06-1.215Zm-4.725.12h3.165v1.335h-3.165Zm12.735,2.49c.96-2.085,1.215-3.045,1.71-6.675l-1.665-.345a14.71,14.71,0,0,1-1.695,6.09ZM-4.38,10.6A26.3,26.3,0,0,0-9.525,8.34l-.96,1.425a20.557,20.557,0,0,1,5.07,2.415Zm4.1,8.235A28.157,28.157,0,0,0-2.82,12.765l-1.6.72A24.6,24.6,0,0,1-2.01,19.71ZM-8.7,13.155A9.354,9.354,0,0,1-8.6,11.67H-10.53a10.784,10.784,0,0,1,.105,1.53v7.08c0,1.365.45,1.6,3.1,1.6,2.4,0,3.06-.18,3.48-.945a9.1,9.1,0,0,0,.615-3.51,7.078,7.078,0,0,1-1.68-.6,9.528,9.528,0,0,1-.33,2.97c-.165.345-.6.45-1.8.45-1.38,0-1.665-.075-1.665-.45Zm10.35-1.23a1.657,1.657,0,0,1,.24-.015c.135,0,.135,0,.42.015.33,0,1.65.03,1.89.03,0,0,.2-.015.255-.015a.734.734,0,0,0-.12.195,19.867,19.867,0,0,1-1.8,2.565,9.189,9.189,0,0,1-1.35,1.335l1.365,1.35A6.744,6.744,0,0,1,3.855,16.02,5.071,5.071,0,0,1,6.93,14.475a.823.823,0,0,1,.915.81A7.338,7.338,0,0,0,4.62,17.4a2.39,2.39,0,0,0-.66,1.665A2.175,2.175,0,0,0,5.055,21a6.442,6.442,0,0,0,3.345.63,27.206,27.206,0,0,0,3.84-.27,4.42,4.42,0,0,1,.69-.06l-.15-1.935A13.032,13.032,0,0,1,8.37,20c-1.815,0-2.535-.315-2.535-1.1a1.579,1.579,0,0,1,.78-1.23,9.116,9.116,0,0,1,1.44-.78v.36a11.875,11.875,0,0,1-.09,1.74l1.74-.045a6.159,6.159,0,0,1-.045-.8c0-.1,0-.24.015-.495v-.6c0-.21,0-.21-.015-.6V16.29q1.935-.675,2.25-.765a13.241,13.241,0,0,1,1.665-.4l-.7-1.725a4.686,4.686,0,0,1-1.11.45q-.562.18-2.295.81a1.973,1.973,0,0,0-2.145-1.59A3.626,3.626,0,0,0,5.2,13.74c-.2.15-.2.15-.3.225l-.015-.03A7.762,7.762,0,0,0,6.27,11.94c1.515-.045,3.42-.165,4.515-.3.765-.09.765-.09,1.185-.12l-.1-1.71a20.264,20.264,0,0,1-3.93.51c-.825.045-.825.045-.945.06.03-.06.06-.1.135-.27a11.46,11.46,0,0,1,.6-1.35L5.76,8.55a5.941,5.941,0,0,1-.6,1.86,18.126,18.126,0,0,1-3.48-.2Zm17.415-.57v1.08h-1.53a13.4,13.4,0,0,1-1.41-.06,12.231,12.231,0,0,1,.06,1.4v1.8a12.65,12.65,0,0,1-.075,1.47H17.7c-.03-.345-.045-.66-.045-1.17V13.83h1.41v1.8a9.168,9.168,0,0,1-1.44,2.16,10.255,10.255,0,0,1-2.235,2.025,6.392,6.392,0,0,1,.915,1.365,9.593,9.593,0,0,0,2.79-3.15c-.015.195-.03.6-.03,1.08v1.695a8.936,8.936,0,0,1-.09,1.425H20.67a8.766,8.766,0,0,1-.075-1.35V19a10.246,10.246,0,0,0-.045-1.17,10.525,10.525,0,0,0,2.625,2.73A7.854,7.854,0,0,1,24.1,19.2a11.1,11.1,0,0,1-1.92-1.485A8.008,8.008,0,0,1,20.61,15.7V13.83h1.53v1.6c0,.21-.075.255-.42.255-.165,0-.285-.015-.51-.03a3.63,3.63,0,0,1,.3,1.29H21.8c.81,0,1.185-.09,1.44-.345.24-.24.315-.525.315-1.29V13.56a11.523,11.523,0,0,1,.045-1.185,10.854,10.854,0,0,1-1.32.06H20.61v-1.08h1.65a11.512,11.512,0,0,1,1.56.075V9.81a13.667,13.667,0,0,1-1.68.09H20.61V9.57a8.272,8.272,0,0,1,.075-1.155H18.99a8.674,8.674,0,0,1,.075,1.17V9.9H17.3a12.154,12.154,0,0,1-1.59-.09v1.62a10.608,10.608,0,0,1,1.485-.075Zm5.3-1.8a13.831,13.831,0,0,1,.075,1.59v5.9a10.547,10.547,0,0,1-.075,1.6h1.695a12.559,12.559,0,0,1-.06-1.59v-5.94a10.115,10.115,0,0,1,.075-1.56Zm2.91-1.05a14.018,14.018,0,0,1,.09,1.86v9.72c0,.39-.135.465-.8.465-.405,0-1.14-.06-1.8-.135A5.488,5.488,0,0,1,25.2,21.99c.54.03,1.155.045,1.41.045a3.048,3.048,0,0,0,1.83-.315c.375-.27.5-.615.5-1.485V10.32a10.638,10.638,0,0,1,.09-1.815Zm7.47,8.07a6.308,6.308,0,0,1-.48,2.565,4.78,4.78,0,0,1-1.425,1.875,4.416,4.416,0,0,1,1.02,1.155,6.548,6.548,0,0,0,2.04-3.51h1.53a9.029,9.029,0,0,1-.21,1.725c-.06.24-.15.3-.48.3a9.824,9.824,0,0,1-1.05-.075,3.6,3.6,0,0,1,.27,1.335c.36.015.765.03.915.03,1.035,0,1.4-.225,1.62-1.065a4.162,4.162,0,0,1,.93,1.2,10.7,10.7,0,0,0,2.265-2.535,11.538,11.538,0,0,0,2.37,2.46,5.424,5.424,0,0,1,.87-1.53,9.864,9.864,0,0,1-2.43-2.37,15.331,15.331,0,0,0,1.215-5.82,5.048,5.048,0,0,1,.84.075v-1.5a5.883,5.883,0,0,1-1.2.09H41.385c.15-.495.255-.885.375-1.35a4.217,4.217,0,0,1,.255-.93L40.4,8.415a13.309,13.309,0,0,1-1.68,5.04v-2.4c0-.8.015-1.125.045-1.455a10.631,10.631,0,0,1-1.41.06h-.57c.18-.345.21-.4.5-1.05l-1.62-.2a3.943,3.943,0,0,1-.42,1.245A9.5,9.5,0,0,1,33.9,9.6c.03.315.045.45.06.81a11.526,11.526,0,0,0-2.22-1.815L30.66,9.7a10.694,10.694,0,0,1,2.25,1.95l1.05-1.17V13.05a12.784,12.784,0,0,1-.06,1.485,8.22,8.22,0,0,1,1.23-.06h.48v.87h-1.1A7.317,7.317,0,0,1,33.3,15.27v1.365a8.82,8.82,0,0,1,1.155-.06Zm3.39,0a8.436,8.436,0,0,1,1.14.06V15.33l.42-.645a11.666,11.666,0,0,0,1.14,3.5,10.266,10.266,0,0,1-1.14,1.515,6.739,6.739,0,0,1-1.155,1.065,19.086,19.086,0,0,0,.285-2.5,6.284,6.284,0,0,1,.06-.84c-.33.03-.675.045-1.17.045H36.1c.045-.315.045-.42.075-.885Zm4.095-4.26a13.63,13.63,0,0,1-.645,4.275,11.018,11.018,0,0,1-.9-3.765c.12-.285.135-.315.21-.51Zm-5.19,3.03v-.87h.69c.285,0,.63.015.855.015a5.746,5.746,0,0,1,.585.8,5.965,5.965,0,0,1-.96.06Zm-1.755-4.62H37.4v.84H35.28Zm0,1.875H37.4v.84H35.28Zm-5.01.825a10.31,10.31,0,0,1,2.31,1.86l.975-1.275a11.733,11.733,0,0,0-2.31-1.725Zm1.995,2.985a14.122,14.122,0,0,1-1.95,4.44l1.335,1.11c.06-.12.075-.135.1-.21l.225-.45c.015-.06.255-.66.72-1.785.36-.9.36-.9.825-2.175Z" transform="translate(107.897 187.448)" fill="#fff"/>
      <g id="features-04" transform="translate(69.898 96.448)">
        <path id="線_16" data-name="線 16" d="M0,20.782a1,1,0,0,1-1-1V0A1,1,0,0,1,0-1,1,1,0,0,1,1,0V19.782A1,1,0,0,1,0,20.782Z" transform="translate(68.644 16.392)" fill="#fff"/>
        <path id="パス_20" data-name="パス 20" d="M296.3,257.906H291.88a1,1,0,0,1-.993-1.117l1.118-9.476a1,1,0,0,1,.993-.883h2.184a1,1,0,0,1,.993.883l1.118,9.476a1,1,0,0,1-.993,1.117Zm-3.3-2h2.171l-.882-7.476h-.406Z" transform="translate(-225.447 -204.546)" fill="#fff"/>
        <path id="楕円形_530" data-name="楕円形 530" d="M2.21-1A3.21,3.21,0,1,1-1,2.21,3.214,3.214,0,0,1,2.21-1Zm0,4.421A1.21,1.21,0,1,0,1,2.21,1.212,1.212,0,0,0,2.21,3.421Z" transform="translate(66.433 36.174)" fill="#ef8200"/>
        <path id="パス_21" data-name="パス 21" d="M120.65,184.636a52.289,52.289,0,0,1-16.5-2.378,17.1,17.1,0,0,1-5.208-2.693A5.042,5.042,0,0,1,96.78,175.7V151.51a1,1,0,0,1,1-1h45.739a1,1,0,0,1,1,1V175.7a5.042,5.042,0,0,1-2.163,3.861,17.1,17.1,0,0,1-5.208,2.693A52.289,52.289,0,0,1,120.65,184.636ZM98.78,152.51V175.7c0,1.612,2.253,3.355,6.026,4.664a50.272,50.272,0,0,0,15.843,2.268,50.272,50.272,0,0,0,15.843-2.268c3.773-1.309,6.026-3.052,6.026-4.664V152.51Z" transform="translate(-82.665 -133.986)" fill="#fff"/>
        <path id="パス_22" data-name="パス 22" d="M41.387,96.424,77.542,85.373a3.262,3.262,0,0,1,1.909,0l36.335,11.051a1.1,1.1,0,0,1,.032,2.091L79.546,110.783a3.279,3.279,0,0,1-2.1,0L41.355,98.518a1.1,1.1,0,0,1,.032-2.091Z" transform="translate(-40.61 -85.23)" fill="#5a534a"/>
        <path id="パス_22_-_アウトライン" data-name="パス 22 - アウトライン" d="M78.5,84.23a4.271,4.271,0,0,1,1.247.186l36.334,11.051a2.1,2.1,0,0,1,.06,4l-36.27,12.267a4.279,4.279,0,0,1-2.74,0L41.033,99.465a2.1,2.1,0,0,1-.028-3.965q.043-.018.089-.032L77.25,84.416A4.25,4.25,0,0,1,78.5,84.23Zm0,25.726a2.284,2.284,0,0,0,.731-.12L115.5,97.568a.082.082,0,0,0,.068-.094.083.083,0,0,0-.071-.093L79.16,86.329a2.271,2.271,0,0,0-1.325,0L41.747,97.36l-.067.023a.082.082,0,0,0-.07.092.084.084,0,0,0,.068.1l36.091,12.265A2.264,2.264,0,0,0,78.5,109.956Z" transform="translate(-40.61 -85.23)" fill="#fff"/>
      </g>
    </g>
  </g>
</svg>
