<?xml version="1.0" encoding="utf-8"?>
<!-- Generator: Adobe Illustrator 27.4.0, SVG Export Plug-In . SVG Version: 6.00 Build 0)  -->
<svg version="1.1" id="レイヤー_1" xmlns="http://www.w3.org/2000/svg" xmlns:xlink="http://www.w3.org/1999/xlink" x="0px"
	 y="0px" viewBox="0 0 170 150" style="enable-background:new 0 0 170 150;" xml:space="preserve">
<style type="text/css">
	.st0{fill:#5A534A;}
	.st1{fill:#FFFFFF;}
	.st2{fill-rule:evenodd;clip-rule:evenodd;fill:#E27F37;}
	.st3{fill:#E27F37;}
</style>
<g id="features_normal_6-sp" transform="translate(-9847 -1601.201)">
	<g id="グループ_1012" transform="translate(9846.565 1272.5)">
		<path id="長方形_167" class="st0" d="M10.4,328.7h150c5.5,0,10,4.5,10,10v130c0,5.5-4.5,10-10,10h-150c-5.5,0-10-4.5-10-10
			v-130C0.4,333.2,4.9,328.7,10.4,328.7z"/>
		<path id="長方形_167_-_アウトライン" class="st1" d="M10.4,330.7c-4.4,0-8,3.6-8,8v130c0,4.4,3.6,8,8,8h150
			c4.4,0,8-3.6,8-8v-130c0-4.4-3.6-8-8-8H10.4 M10.4,328.7h150c5.5,0,10,4.5,10,10v130c0,5.5-4.5,10-10,10h-150c-5.5,0-10-4.5-10-10
			v-130C0.4,333.2,4.9,328.7,10.4,328.7z"/>
		<g>
			<g>
				<path class="st1" d="M27.2,418.6c-0.4,0.9-0.8,1.9-1.3,2.9v10.1h-1.6V424c-0.4,0.5-0.7,0.9-1.1,1.3c-0.2-0.4-0.6-1.3-0.9-1.8
					c1.3-1.3,2.7-3.4,3.4-5.4L27.2,418.6z M32.9,426.5c0.9,1.3,2.1,2.5,3.3,3.2c-0.4,0.3-0.9,0.9-1.2,1.4c-1.1-0.8-2.1-1.9-2.9-3.2
					v3.7h-1.7v-3.7c-0.9,1.3-2,2.4-3.1,3.1c-0.3-0.4-0.8-1-1.2-1.4c1.3-0.7,2.6-1.9,3.5-3.1h-3V425h3.8v-1.3h-2.8v-5h7.6v5h-3v1.3
					h3.7v1.6H32.9z M29.1,422.1h4.3v-1.9h-4.3V422.1z"/>
				<path class="st1" d="M47.2,420.8c1.1,0.8,2.3,1.7,2.9,2.5l-1.5,1c-0.2-0.3-0.5-0.6-0.9-0.9c-3.6,0.1-7.4,0.2-9.9,0.3l0-1.6l2,0
					c0.3-0.4,0.5-0.8,0.8-1.2h-3.3v-1.5h5.5V418h1.8v1.2h5.5v1.5H47.2z M48.2,430c0,0.8-0.2,1.2-0.8,1.4c-0.6,0.2-1.5,0.2-2.6,0.2
					c-0.1-0.4-0.3-1-0.5-1.4c0.7,0,1.6,0,1.8,0c0.3,0,0.3-0.1,0.3-0.3v-0.7h-5.5v2.3h-1.7v-7.4h9V430z M40.9,425.6v0.7h5.5v-0.7
					H40.9z M46.4,428.1v-0.7h-5.5v0.7H46.4z M42.7,420.8c-0.3,0.4-0.7,0.8-1,1.2c1.4,0,2.9,0,4.4-0.1c-0.3-0.3-0.6-0.5-0.9-0.7
					l0.7-0.4H42.7z"/>
				<path class="st1" d="M64.3,418.6v13h-1.7v-0.5h-9.1v0.5H52v-13H64.3z M62.7,429.5v-9.4h-9.1v9.4H62.7z M62.2,426.6
					c-0.5,0.4-1,0.7-1.5,1c0.5,0.2,1.1,0.5,1.7,0.6c-0.3,0.3-0.7,0.8-0.9,1.1c-1.1-0.3-2.1-0.9-2.9-1.6v1.6h-1.5v-1.5
					c-0.8,0.5-1.7,0.9-2.5,1.2c-0.2-0.3-0.6-0.8-0.9-1.1c1.2-0.3,2.4-0.9,3.4-1.5h-2.3v-2.5h6.7v2.2L62.2,426.6z M62.1,423.4h-8.1
					v-1h3.2v-0.6h-2.6v-0.9h2.6v-0.6h1.6v0.6h2.7v0.9h-2.7v0.6h3.3V423.4z M56.3,425.4H60v-0.7h-3.7V425.4z M59,426.4
					c0.2,0.2,0.5,0.4,0.8,0.6c0.3-0.2,0.6-0.5,0.9-0.7L59,426.4L59,426.4z"/>
				<path class="st1" d="M67,423.3c0.4-0.2,0.9-0.4,1.3-0.6c-0.2-0.4-0.4-0.9-0.6-1.2c-0.2-0.4-0.6-0.9-0.9-1.3l1.9-0.7
					c0.1,0.3,0.4,0.9,0.6,1.1c0.2,0.4,0.4,0.9,0.7,1.4c0.9-0.4,1.8-0.8,2.6-1c-0.5-0.5-1.5-1.4-2-1.9l1.3-0.9
					c0.5,0.4,1.6,1.3,2.1,1.9l-1.1,0.8c0.7-0.2,1.4-0.3,2.1-0.3c2.2,0,3.6,1.4,3.6,3c0,2-1.4,3.3-3.6,3.3c-0.8,0-1.7-0.2-2.2-0.4
					l0-1.8c0.7,0.3,1.4,0.5,2,0.5c1.1,0,1.9-0.6,1.9-1.6c0-0.7-0.7-1.3-1.7-1.3c-1.1,0-2.7,0.6-4.3,1.3c0.1,0.3,0.3,0.6,0.4,0.9
					c0.7,1.6,1.8,4.7,2.3,6.3l-2,0.5c-0.5-1.8-1.2-4.3-1.9-6c-0.1-0.3-0.3-0.6-0.4-0.9c-1,0.5-2,1-2.6,1.3l-0.9-1.8
					C66.2,423.7,66.8,423.4,67,423.3z"/>
				<path class="st1" d="M83.6,421.9c-0.5,2.2-1.3,4.9-2.5,6.5c-0.4-0.3-1.2-0.7-1.7-0.9c1.2-1.5,1.9-4,2.2-5.9L83.6,421.9z
					 M87.3,418.3v11.2c0,1.1-0.2,1.5-0.9,1.8c-0.7,0.3-1.7,0.3-3.1,0.3c-0.1-0.5-0.4-1.3-0.7-1.8c0.9,0,2,0,2.3,0
					c0.3,0,0.4-0.1,0.4-0.4v-11.2H87.3z M90.6,421.4c1.2,2.1,2.4,4.7,2.7,6.5l-1.9,0.7c-0.3-1.8-1.4-4.5-2.5-6.6L90.6,421.4z"/>
				<path class="st1" d="M107.3,427.8h-5.6v1.9c0,0.9-0.2,1.3-0.9,1.6c-0.7,0.2-1.6,0.3-2.8,0.3c-0.1-0.5-0.4-1.2-0.7-1.7
					c0.9,0,2,0,2.3,0c0.3,0,0.4-0.1,0.4-0.3v-1.9h-5.6v-1.6h5.6v-1h0.8c0.4-0.2,0.8-0.5,1.1-0.8H97V423h6.5l0.4-0.1l1.1,0.8
					c-0.8,0.9-2,1.8-3.1,2.5h5.5V427.8z M96.2,423.9h-1.6v-3.5h2c-0.3-0.5-0.7-1-1-1.5l1.5-0.7c0.5,0.6,1.1,1.3,1.3,1.9l-0.5,0.2
					h2.3c-0.2-0.6-0.6-1.3-0.9-1.8l1.5-0.6c0.5,0.6,0.9,1.5,1.1,2.1l-0.7,0.3h2.2c0.5-0.7,1-1.5,1.2-2.2l1.9,0.6
					c-0.4,0.6-0.8,1.1-1.2,1.6h1.9v3.5h-1.7v-2h-9.3V423.9z"/>
				<path class="st1" d="M113.1,427.3c-0.2-0.5-0.5-1.2-0.9-1.8v6.1h-1.6v-5.4c-0.4,1.1-0.9,2.2-1.4,2.9c-0.1-0.5-0.5-1.1-0.8-1.6
					c0.9-1.2,1.7-3.1,2-4.9h-1.7V421h1.8v-3h1.6v3h1.6v1.6h-1.6v0.7c0.4,0.5,1.6,2.3,1.8,2.7L113.1,427.3z M120.8,425.6
					c-0.1-0.2-0.2-0.4-0.3-0.6c-0.4,1.1-0.9,2.1-1.5,3.1c0.9,0.9,2,1.6,3.3,2.1c-0.4,0.4-0.9,1.1-1.2,1.5c-1.3-0.5-2.3-1.3-3.2-2.2
					c-1,1-2.2,1.7-3.7,2.3c-0.2-0.4-0.6-1-0.9-1.4c1.5-0.5,2.6-1.2,3.5-2.2c-0.6-0.9-1.1-1.9-1.5-3c-0.2,0.2-0.4,0.4-0.6,0.6
					c-0.2-0.3-0.8-0.8-1.2-1.1c0.9-0.7,1.7-1.8,2.1-2.8l1.6,0.6c-0.4,0.8-1,1.7-1.6,2.4l1.1-0.3c0.3,0.8,0.7,1.6,1.2,2.2
					c0.4-0.7,0.7-1.5,0.9-2.3l1.5,0.3c-0.5-0.7-1.1-1.6-1.7-2.2l1.3-0.8c0.9,0.9,1.8,2.1,2.2,3L120.8,425.6z M122,421.6h-8v-1.6h3.1
					v-2h1.7v2h3.2V421.6z"/>
				<path class="st1" d="M129,420.1c-0.1,0.4-0.2,1-0.3,1.5c0.5,0,0.9-0.1,1.2-0.1c1.5,0,2.6,0.7,2.6,2.8c0,1.7-0.2,4.1-0.8,5.3
					c-0.5,1-1.3,1.3-2.4,1.3c-0.6,0-1.2-0.1-1.7-0.2l-0.3-1.9c0.6,0.2,1.4,0.3,1.8,0.3c0.5,0,0.9-0.1,1.1-0.6c0.4-0.8,0.6-2.6,0.6-4
					c0-1.2-0.5-1.3-1.4-1.3c-0.2,0-0.6,0-1,0.1c-0.6,2.2-1.6,5.6-3,7.8l-1.9-0.8c1.4-1.9,2.4-4.8,2.9-6.8c-0.5,0.1-1,0.1-1.2,0.1
					c-0.4,0.1-1.2,0.2-1.6,0.2l-0.2-2c0.5,0,1,0,1.6,0c0.5,0,1.1-0.1,1.9-0.1c0.2-1.1,0.3-2.2,0.3-3.1l2.2,0.2
					C129.2,419.3,129.1,419.7,129,420.1z M136.8,425.6l-1.8,0.9c-0.4-1.6-1.4-4.2-2.4-5.5l1.7-0.7
					C135.2,421.5,136.4,424.3,136.8,425.6z"/>
				<path class="st1" d="M140.4,425c1.3-1,2.8-1.4,4.3-1.4c2.5,0,4,1.6,4,3.3c0,2.6-2.1,4.7-8.1,4.2l-0.6-1.9
					c4.4,0.6,6.7-0.5,6.7-2.3c0-0.9-0.9-1.6-2.2-1.6c-1.6,0-3.1,0.6-4,1.7c-0.3,0.3-0.4,0.6-0.5,0.8l-1.7-0.4
					c0.3-1.4,0.6-4.3,0.7-6.1l1.9,0.3C140.8,422.4,140.5,424.1,140.4,425z M146.7,419.8l-0.4,1.8c-1.5-0.2-4.7-0.9-5.8-1.2l0.5-1.7
					C142.2,419.1,145.4,419.6,146.7,419.8z"/>
			</g>
			<g>
				<path class="st1" d="M48.9,440.3c-0.5,1.1-1.3,2.7-2.3,4c1.4,1.2,3.2,3.1,4,4.2l-1.7,1.4c-0.9-1.3-2.3-2.8-3.7-4.1
					c-1.5,1.6-3.5,3.1-5.5,4.1l-1.5-1.6c2.3-0.9,4.6-2.6,5.9-4.2c1-1.1,1.8-2.5,2.2-3.6h-4.9c-0.6,0-1.4,0.1-1.7,0.1v-2.1
					c0.4,0.1,1.3,0.1,1.7,0.1h5.1c0.6,0,1.2-0.1,1.5-0.2l1.2,0.9C49.3,439.6,49.1,440,48.9,440.3z"/>
				<path class="st1" d="M58.6,439.4C58.6,439.5,58.6,439.5,58.6,439.4l2.9,0.1c0.4,0,0.9-0.1,1.3-0.2l1.5,0.9
					c-0.2,0.3-0.4,0.7-0.5,1c-0.4,1.3-1.2,3.2-2.5,4.8c-1.4,1.7-3.1,3-5.9,4.1l-1.7-1.5c3-0.9,4.6-2.1,5.8-3.6c1-1.1,1.8-2.9,2.1-4
					h-4.1c-1,1.3-2.2,2.5-3.7,3.5l-1.6-1.2c2.5-1.6,3.8-3.4,4.5-4.7c0.2-0.4,0.5-1,0.7-1.5l2.1,0.7
					C59.2,438.5,58.8,439.1,58.6,439.4z"/>
				<path class="st1" d="M68,442.6h7.8c0.7,0,1.3-0.1,1.7-0.1v2.3c-0.3,0-1.1-0.1-1.7-0.1H68c-0.8,0-1.8,0-2.3,0.1v-2.3
					C66.2,442.6,67.3,442.6,68,442.6z"/>
				<path class="st1" d="M81.5,445.3c0.4-1.2,0.4-4,0.4-5.7c0-0.6,0-1-0.1-1.3h2.1c0,0.1-0.1,0.7-0.1,1.3c0,1.7,0,4.8-0.4,6.2
					c-0.4,1.6-1.3,3.1-2.6,4.2l-1.8-1.2C80.3,447.8,81.1,446.5,81.5,445.3z M85.8,447.9v-8.5c0-0.7-0.1-1.2-0.1-1.2h2.2
					c0,0-0.1,0.6-0.1,1.3v7.6c1.2-0.5,2.6-1.7,3.6-3.1l1.1,1.6c-1.2,1.6-3.3,3.1-4.9,4c-0.3,0.2-0.5,0.3-0.6,0.4l-1.2-1
					C85.8,448.7,85.8,448.3,85.8,447.9z"/>
				<path class="st1" d="M100.6,438.6c0,0.1,0,0.4,0,0.6c1.2-0.1,2.4-0.2,3.7-0.4l0,1.7c-1,0.1-2.3,0.2-3.7,0.3c0,0.5,0,1,0,1.5
					c1.5-0.1,2.7-0.2,3.9-0.3l0,1.7c-1.3,0.1-2.4,0.2-3.8,0.3c0,0.6,0.1,1.1,0.1,1.7c1.8,0.5,3.2,1.5,4.1,2.2l-1,1.6
					c-0.8-0.7-1.8-1.5-2.9-2c0,0.2,0,0.4,0,0.5c0,1.2-0.9,2.2-2.9,2.2c-2.3,0-3.5-0.9-3.5-2.4c0-1.5,1.3-2.5,3.6-2.5
					c0.3,0,0.6,0,0.9,0c0-0.5,0-0.9-0.1-1.3c-0.2,0-0.5,0-0.8,0c-0.8,0-2.5-0.1-3.5-0.2l0-1.7c0.9,0.2,2.7,0.3,3.5,0.3
					c0.2,0,0.5,0,0.7,0c0-0.5,0-1,0-1.5c-0.2,0-0.4,0-0.5,0c-0.9,0-2.6-0.1-3.6-0.3l0-1.7c1,0.2,2.7,0.3,3.6,0.3c0.2,0,0.4,0,0.6,0
					c0-0.3,0-0.5,0-0.7c0-0.3,0-0.7-0.1-1h2C100.7,437.8,100.7,438.2,100.6,438.6z M97.7,448.5c0.8,0,1.3-0.2,1.3-1.1
					c0-0.2,0-0.4,0-0.6c-0.4-0.1-0.8-0.1-1.2-0.1c-1,0-1.6,0.4-1.6,0.9C96.2,448.2,96.7,448.5,97.7,448.5z"/>
				<path class="st1" d="M107.6,439.2c1.2-0.1,3.6-0.3,6.3-0.5c1.5-0.1,3.1-0.2,4.1-0.3l0,1.9c-0.8,0-2,0-2.8,0.2
					c-1.8,0.5-3.1,2.3-3.1,4.1c0,2.4,2.2,3.3,4.7,3.4l-0.7,2c-3-0.2-5.9-1.8-5.9-5c0-2.1,1.2-3.7,2.2-4.5c-1.4,0.1-4.3,0.5-6,0.8
					l-0.2-2C106.8,439.3,107.3,439.3,107.6,439.2z M117.1,443.7l-1.1,0.5c-0.4-0.8-0.7-1.4-1.1-2l1.1-0.4
					C116.3,442.2,116.8,443.1,117.1,443.7z M118.8,443l-1.1,0.5c-0.4-0.8-0.7-1.3-1.2-2l1.1-0.5C117.9,441.6,118.5,442.4,118.8,443z
					"/>
				<path class="st1" d="M126.9,449.9l-1.1-1.7c0.6-0.1,1-0.1,1.3-0.2c1.9-0.4,3.3-1.8,3.3-3.9c0-2-1.1-3.5-3-3.8
					c-0.2,1.2-0.5,2.6-0.9,3.9c-0.9,2.9-2.1,4.7-3.7,4.7c-1.6,0-2.9-1.8-2.9-4.2c0-3.4,2.9-6.2,6.7-6.2c3.6,0,5.9,2.5,5.9,5.7
					C132.4,447.2,130.6,449.4,126.9,449.9z M122.9,446.7c0.6,0,1.2-0.9,1.8-2.9c0.3-1.1,0.6-2.3,0.8-3.5c-2.4,0.5-3.7,2.6-3.7,4.2
					C121.8,446,122.3,446.7,122.9,446.7z"/>
			</g>
			<g>
				<path class="st1" d="M45.4,457.3c-0.3,0.3-0.6,0.5-0.9,0.8c-0.3-0.3-1-0.9-1.4-1.1c1.2-0.8,2.4-2.1,3-3.5l1.7,0.5
					c-0.2,0.3-0.3,0.7-0.6,1h8.7v1.5h-1.4v1.9h1.9v1.5h-1.9v1.8h1.7v1.5H43.6v-1.5h1.7v-1.8h-1.9v-1.5h1.9V457.3z M43.3,466.4
					c0.6-0.6,1.3-1.7,1.6-2.8l1.7,0.4c-0.3,1.1-0.9,2.3-1.7,3L43.3,466.4z M46.9,458.4h1v-1.9h-1V458.4z M46.9,461.8h1v-1.8h-1
					V461.8z M49.1,463.9c0.2,0.9,0.3,2,0.4,2.7l-1.7,0.2c0-0.7-0.1-1.9-0.3-2.8L49.1,463.9z M50.4,458.4v-1.9h-1.1v1.9H50.4z
					 M49.4,459.9v1.8h1.1v-1.8H49.4z M52,463.9c0.3,0.9,0.7,2,0.8,2.7l-1.7,0.3c-0.1-0.7-0.4-1.9-0.7-2.8L52,463.9z M53,456.5h-1.1
					v1.9H53V456.5z M53,459.9h-1.1v1.8H53V459.9z M54.9,463.5c0.7,0.9,1.5,2.1,1.8,2.9l-1.8,0.6c-0.3-0.8-1.1-2-1.7-3L54.9,463.5z"
					/>
				<path class="st1" d="M62.6,463.8c-0.2-0.5-0.6-1.2-1-1.9v5.1h-1.6v-5.1c-0.5,1.3-1,2.7-1.7,3.6c-0.1-0.5-0.5-1.3-0.8-1.8
					c0.7-0.9,1.5-2.4,1.9-3.8h-1.7v-1.6h2.2v-4.7h1.6v4.7h2.1v1.6h-2.1v0.1c0.4,0.4,1.8,2,2.1,2.5L62.6,463.8z M58.4,458
					c0-0.9-0.3-2.3-0.7-3.4l1.2-0.3c0.4,1,0.7,2.4,0.7,3.3L58.4,458z M63.9,454.6c-0.4,1.2-0.8,2.5-1.2,3.4l-1.1-0.3
					c0.3-0.9,0.6-2.4,0.8-3.4L63.9,454.6z M69.6,463.1v3.9h-1.6v-3.6l-4,0.7l-0.3-1.6l4.3-0.8v-8.3h1.6v8l1.5-0.3l0.3,1.6
					L69.6,463.1z M64.6,457.8c0.8,0.4,1.9,1.1,2.4,1.7l-0.9,1.4c-0.5-0.5-1.5-1.3-2.4-1.8L64.6,457.8z M66.7,457.3
					c-0.5-0.6-1.5-1.3-2.2-1.9l0.8-1.2c0.8,0.5,1.8,1.2,2.3,1.8L66.7,457.3z"/>
				<path class="st1" d="M75.7,463.7c0.6,1,1.7,1.4,3.2,1.4c1.7,0.1,5,0,6.9-0.1c-0.2,0.4-0.5,1.2-0.5,1.7c-1.7,0.1-4.7,0.1-6.4,0
					c-1.8-0.1-3-0.5-3.9-1.6c-0.6,0.6-1.3,1.1-2.1,1.7l-0.8-1.8c0.6-0.4,1.3-0.8,2-1.3v-3.1h-1.7v-1.6h3.4V463.7z M74.7,457.2
					c-0.4-0.7-1.5-1.7-2.3-2.3l1.3-1c0.9,0.6,1.9,1.5,2.4,2.2L74.7,457.2z M82,460.5c0.6,1.4,1.8,2.3,3.5,2.8
					c-0.4,0.3-0.9,1-1.1,1.5c-1.6-0.6-2.8-1.6-3.5-3c-0.6,1.1-1.6,2.1-3.5,3c-0.2-0.4-0.8-1-1.1-1.2c2.2-0.8,3-1.9,3.4-2.9h-3.4V459
					h3.6v-1.4h-3.1V456h1.5c-0.2-0.6-0.6-1.3-1.1-1.9l1.5-0.6c0.5,0.7,1.1,1.6,1.3,2.2l-0.8,0.3h3.2l-0.7-0.3
					c0.4-0.6,0.9-1.6,1.2-2.3l1.8,0.5c-0.5,0.7-1,1.5-1.4,2H85v1.5h-3.5v1.4h3.9v1.6H82z"/>
				<path class="st1" d="M89.9,463.8c0.6,1,1.6,1.4,3.1,1.5c1.8,0.1,5.3,0,7.4-0.1c-0.2,0.4-0.4,1.1-0.5,1.6c-1.8,0.1-5.1,0.1-6.9,0
					c-1.7-0.1-2.9-0.5-3.8-1.6c-0.6,0.6-1.1,1.1-1.8,1.8l-0.8-1.6c0.5-0.4,1.2-0.9,1.7-1.3v-3.2h-1.5v-1.6h3.1V463.8z M88.6,457.2
					c-0.3-0.7-1.2-1.8-1.9-2.5l1.4-0.9c0.8,0.7,1.7,1.7,2,2.4L88.6,457.2z M90.2,461.9c0.3-0.1,0.5-0.1,0.8-0.2v-7.2l0.8,0.2
					c0.7-0.4,1.5-0.8,1.9-1.2l1.1,1.2v-0.4h4.7v7.4c0,0.7-0.1,1.1-0.6,1.3c-0.5,0.2-1,0.3-1.9,0.3c-0.1-0.4-0.3-1.1-0.5-1.5
					c0.5,0,1,0,1.1,0c0.2,0,0.2-0.1,0.2-0.2v-5.9h-1.6v9H95v-10c-0.7,0.4-1.6,0.8-2.3,1.1v5.5c0.6-0.1,1.2-0.3,1.8-0.5l0.2,1.5
					c-1.3,0.4-2.8,0.8-4,1.1L90.2,461.9z"/>
				<path class="st1" d="M104.7,455.8l2.1,0.4c-0.1,0.4-0.3,1.1-0.3,1.5c-0.2,1-0.7,3-1.2,4.4c-0.5,1.4-1.4,3.1-2.1,4.2l-2-0.9
					c0.9-1.2,1.8-2.8,2.3-4C104,459.6,104.5,457.6,104.7,455.8z M108.4,456.2l1.9-0.6c0.6,1.1,1.6,3.4,2.1,4.8
					c0.5,1.3,1.3,3.6,1.7,5.1l-2.1,0.7c-0.4-1.7-0.9-3.6-1.5-5.1C109.9,459.4,109,457.3,108.4,456.2z M113,456.2l-1.2,0.5
					c-0.3-0.6-0.7-1.5-1.1-2l1.1-0.5C112.2,454.7,112.7,455.7,113,456.2z M114.7,455.5l-1.2,0.5c-0.3-0.6-0.8-1.5-1.2-2l1.1-0.5
					C114,454.1,114.5,455,114.7,455.5z"/>
				<path class="st1" d="M126,456.8c-0.5,1.1-1.3,2.7-2.3,4c1.4,1.2,3.2,3.1,4,4.2l-1.7,1.4c-0.9-1.3-2.3-2.8-3.7-4.1
					c-1.5,1.6-3.5,3.1-5.5,4.1l-1.5-1.6c2.3-0.9,4.6-2.6,6-4.2c1-1.1,1.8-2.5,2.2-3.6h-4.9c-0.6,0-1.4,0.1-1.7,0.1v-2.1
					c0.4,0.1,1.3,0.1,1.7,0.1h5.1c0.6,0,1.2-0.1,1.5-0.2l1.2,0.9C126.4,456.1,126.1,456.6,126,456.8z"/>
			</g>
		</g>
		<g>
			<g>
				<path class="st2" d="M59.9,364.5c0,0.1,0,0.3,0,0.4c0,0,0.1,0.2,0.1,0.2c0.1,0.1,0.1,0.3,0.2,0.4c0,0,0.1,0.1,0.2,0.1l0,0
					c0,0,0,0,0,0c0,0,0.1,0,0.1,0c0,0,0.1,0,0.1,0c0.1,0,0.2,0,0.3,0c0,0,0,0,0,0c0,0,0.1,0,0.1-0.1c0,0,0,0,0.1-0.1
					c0.1-0.2,0-0.2-0.1-0.2c0,0,0-0.1-0.1-0.1c0-0.1-0.1-0.1-0.1-0.2c0,0,0-0.1-0.1-0.1c0,0,0,0,0,0c0,0,0,0,0,0
					c-0.1-0.1-0.3-0.3-0.4-0.3c0,0-0.1,0-0.1,0c0,0,0-0.1-0.1-0.1C60,364.5,59.9,364.5,59.9,364.5"/>
				<path class="st2" d="M60,364.1C60,364.1,60,364.1,60,364.1c0,0.1,0.1,0.1,0.1,0.1c0,0,0.1,0.2,0.3,0.1c0.1-0.1,0-0.1,0.1-0.1
					c0.1-0.1,0.1-0.1,0.2-0.2c0.2-0.2,0.1-0.2,0.2-0.4c0,0,0.1-0.1,0.1-0.1c0,0,0,0,0.1,0c0,0,0,0,0-0.1c0.1-0.1,0.1-0.2,0.2-0.1
					c0.1,0,0.2,0.1,0.3,0c0,0,0-0.1,0-0.1l0-0.1c-0.1,0-0.4,0-0.6,0c-0.3,0.1-0.6,0.2-0.7,0.4c0,0,0,0,0,0c-0.1,0.1-0.2,0.2-0.2,0.3
					C60,364,60,364.1,60,364.1"/>
				<path class="st2" d="M61.7,366.1c-0.3,0-0.4,0-0.6-0.1c-0.1,0-0.3-0.1-0.4-0.2c0,0-0.1-0.1-0.1-0.1c0,0,0,0,0,0l0,0c0,0,0,0,0,0
					c0.2,0,0.2,0,0.3,0l0,0c-0.1,0-0.2,0-0.3,0c0,0-0.1,0-0.1,0c0,0-0.1,0-0.1,0c0,0,0,0,0,0c0,0,0,0,0,0c0,0,0,0,0,0c0,0,0,0,0,0
					c-0.1-0.1-0.2-0.1-0.3-0.2c0,0-0.1-0.1-0.1-0.1c0,0-0.1-0.1-0.1-0.2c0,0.2,0.2,0.4,0.2,0.5c0.1,0.2,0.2,0.3,0.3,0.4
					c0.1,0.1,0.4,0.2,0.6,0.2C61.3,366.1,61.5,366.1,61.7,366.1"/>
				<path class="st2" d="M59.9,364.1c0,0,0.1-0.2,0.1-0.2c0.2-0.4,0.5-0.6,1-0.8c0.3-0.1,0.4,0,0.6,0c0-0.1-0.2-0.1-0.2-0.1
					c-0.4-0.1-0.8,0.2-1.1,0.4c-0.1,0.1-0.1,0.1-0.2,0.2C60.1,363.7,60,364,59.9,364.1"/>
				<path class="st2" d="M62.2,363.5L62.2,363.5C62.2,363.4,62.2,363.5,62.2,363.5C62.2,363.4,62.2,363.4,62.2,363.5
					C62.2,363.4,62.2,363.4,62.2,363.5C62.2,363.5,62.2,363.4,62.2,363.5"/>
				<path class="st2" d="M61.8,363.4c0,0-0.1,0.1-0.1,0.1c-0.1,0.1-0.1,0.1-0.1,0.2c0,0,0,0-0.1,0.1c-0.1,0.1,0,0-0.1,0.1
					c-0.2,0.1-0.3,0.2-0.3,0.2c0,0,0,0-0.1,0c0,0,0,0,0,0.1c0,0,0,0-0.1,0.1c0,0.1,0,0.3,0,0.3c0,0,0.1,0.1,0.1,0.1
					c0,0.1,0.1,0.1,0.1,0.1c0.2,0.1,0.2,0,0.3-0.1c0,0,0,0,0.1,0c0.1-0.1,0.1-0.2,0.1-0.2c0,0,0.1,0.1,0.1,0.1c0,0.1,0,0.1-0.1,0.3
					c0,0.1,0,0.2,0,0.3c-0.1,0-0.2,0-0.3,0.1c0,0-0.1,0.1-0.1,0.1c0,0-0.1,0.1-0.1,0.2c-0.1,0.3,0.2,0.4,0.4,0.3
					c0,0,0.2-0.1,0.2-0.1c0.1-0.1,0.1-0.1,0.2-0.1c0.1,0,0.1-0.1,0.2-0.1c0.2,0,0.2-0.1,0.3-0.2c0,0,0.1-0.1,0.1-0.1
					c0,0,0-0.1,0.1-0.2c0.1-0.1,0.1-0.3,0.1-0.5c0-0.3-0.1-0.6-0.3-0.8c0-0.1-0.2-0.3-0.2-0.3c0,0,0,0,0,0c0,0,0,0,0,0l-0.1-0.1
					c0,0-0.1,0-0.1,0C62,363.3,61.9,363.3,61.8,363.4C61.9,363.3,61.9,363.4,61.8,363.4"/>
				<path class="st3" d="M82.1,366.7L82.1,366.7c0.7,0,1.4,0.6,1.4,1.3v6.4c0,0.9,0.1,1.5,0.3,1.9c0.3,0.7,1,1.1,2.1,1.1
					c1.1,0,1.8-0.4,2.1-1.1c0.2-0.4,0.3-1,0.3-1.9v-6.4c0-0.7,0.6-1.3,1.4-1.3c0.7,0,1.4,0.6,1.4,1.3v6.4c0,1.3-0.2,2.4-0.6,3.1
					c-0.8,1.4-2.3,2.1-4.5,2.1c-2.2,0-3.7-0.7-4.5-2.1c-0.4-0.8-0.6-1.8-0.6-3.1v-6.4C80.7,367.3,81.3,366.7,82.1,366.7"/>
				<path class="st3" d="M101.6,374c-0.8,0.6-1.8,0.9-3.2,0.9H97c-0.7,0-1.3,0.6-1.3,1.3v2c0,0.7-0.6,1.3-1.3,1.3
					c-0.7,0-1.3-0.6-1.3-1.3V368c0-0.7,0.6-1.3,1.3-1.3h4.2c1.3,0,2.3,0.3,3.1,1c0.8,0.7,1.1,1.7,1.1,3.1
					C102.7,372.3,102.4,373.3,101.6,374 M99.5,369.3c-0.3-0.3-0.8-0.4-1.4-0.4H97c-0.7,0-1.3,0.6-1.3,1.3v1.1c0,0.7,0.6,1.3,1.3,1.3
					h1.1c0.6,0,1.1-0.2,1.4-0.5c0.3-0.3,0.5-0.8,0.5-1.5S99.9,369.6,99.5,369.3"/>
				<path class="st3" d="M56.2,368.7c-1.4,2-2.5,3.6-3.2,4.8l-0.3,0.7l0,0.1l0,0.2c0.1,0,0.1,0,0.2,0c0.1,0,0.3,0,0.5,0.1
					c0.2,0,0.3,0,0.4,0c0.4,0.1,0.9,0.2,1.3,0.3c0.4,0.1,0.8,0.2,1,0.3c0.3,0.1,0.6,0.2,1.2,0.4c0.5,0.2,0.9,0.3,1.1,0.4
					c0.1,0,0.2,0.1,0.2,0.2s0.1,0.2,0,0.3c0,0.1-0.1,0.2-0.2,0.2c-0.1,0.1-0.2,0.1-0.3,0l-1.1-0.4l-1.1-0.4c-0.2-0.1-0.6-0.2-1-0.3
					c-0.4-0.1-0.8-0.2-1.2-0.3c0,0-0.1,0-0.3,0c-0.2,0-0.4,0-0.5-0.1l-0.1,0c0.1,1.6,0.1,2.8,0.2,3.5c0,0.1,0,0.2-0.1,0.3
					c-0.1,0.1-0.2,0.1-0.3,0.1c-0.1,0-0.2,0-0.3-0.1s-0.1-0.2-0.1-0.3c0-0.7-0.1-2-0.2-3.7c-0.1,0-0.1-0.1-0.2-0.2
					c-0.1-0.1-0.1-0.2-0.1-0.3c0,0,0-0.1,0-0.1c0,0,0-0.1,0-0.1c0,0,0-0.1,0.1-0.2l0.1-0.2c0-0.7-0.1-1.4-0.1-2c0-0.4,0-1.4,0-2.9
					c0-1.2,0-2.1-0.1-2.8c0-0.1,0-0.2,0.1-0.3c0.1-0.1,0.2-0.1,0.3-0.2c0.1,0,0.2,0,0.3,0.1c0.1,0.1,0.1,0.2,0.2,0.3
					c0.1,0.7,0.1,1.7,0.1,2.9c0,1.5,0,2.4,0,2.8l0,0.5c0.7-1.1,1.6-2.6,2.9-4.4c0.1-0.1,0.2-0.1,0.3-0.2c0.1,0,0.2,0,0.3,0.1
					c0.1,0.1,0.2,0.2,0.2,0.3C56.3,368.5,56.3,368.6,56.2,368.7"/>
				<path class="st3" d="M61.8,367.5c0.3,2.9,0.4,6.8,0.4,11.7c0,0.1,0,0.2-0.1,0.3c-0.1,0.1-0.2,0.1-0.3,0.1c-0.1,0-0.2,0-0.3-0.1
					c-0.1-0.1-0.1-0.2-0.1-0.3c0-4.9-0.1-8.8-0.4-11.7c0-0.1,0-0.2,0.1-0.3c0.1-0.1,0.2-0.1,0.3-0.2c0.1,0,0.2,0,0.3,0.1
					C61.7,367.2,61.8,367.3,61.8,367.5"/>
				<path class="st3" d="M69.5,365.9c0,0.4,0.1,0.8,0.1,1.2c0,0.4,0,0.9,0,1.4c0,0.6,0,0.9,0,1.1c0,1,0,3.9-0.1,6
					c-0.1,2.1-0.1,2.4-0.1,3.4c0,0.1,0,0.2-0.1,0.3c-0.1,0.1-0.2,0.1-0.3,0.1c-0.1,0-0.2,0-0.3-0.1c-0.1-0.1-0.1-0.2-0.1-0.3
					c0-0.7,0-0.2,0-1c-0.7,0.3-1.5,0.3-2.3,0.1c-0.6-0.2-1-0.4-1.4-0.8c-0.4-0.3-0.6-0.7-0.7-1.1c-0.1-0.4-0.2-0.8-0.1-1.3
					c0-0.4,0.2-0.8,0.4-1.2c0.2-0.4,0.5-0.7,0.8-0.9c0.4-0.2,0.8-0.4,1.2-0.4c0.8,0,1.5,0.3,2.3,1c0-1,0-3.1,0-3.9
					c0-0.2,0-0.6,0-1.1c0-0.6,0-1,0-1.4c0-0.4,0-0.7-0.1-1.1c0-0.1,0-0.2,0.1-0.3c0.1-0.1,0.2-0.1,0.3-0.2c0.1,0,0.2,0,0.3,0.1
					C69.5,365.7,69.5,365.7,69.5,365.9 M68.6,374.6c-0.8-0.9-1.5-1.3-2.2-1.3c-0.6,0-1,0.3-1.3,0.9c-0.1,0.3-0.2,0.5-0.3,0.9
					c0,0.3,0,0.6,0.1,0.9c0.1,0.3,0.3,0.6,0.5,0.8c0.3,0.2,0.6,0.4,1,0.5c0.8,0.2,1.5,0.2,2.1-0.2c0,0,0,0,0.1,0c0-0.3,0-0.7,0-1.3
					C68.7,375.2,68.7,374.8,68.6,374.6L68.6,374.6z"/>
				<path class="st3" d="M75.5,369.3c-0.2-0.6-0.5-1-0.8-1.3c-0.4-0.3-0.7-0.4-1.1-0.4c-0.4,0-0.7,0.2-1.1,0.5
					c-0.3,0.3-0.5,0.8-0.6,1.4c-0.1,0.8-0.1,1.3,0.1,1.8c0.1,0.3,0.3,0.6,0.4,0.8c0.2,0.3,0.4,0.7,0.8,1.1c0.3,0.4,0.6,0.8,0.7,1
					c0.4,0.6,0.8,1.2,1,1.8c0.2,0.6,0.3,1.2,0.2,1.8c-0.1,0.7-0.5,1.1-1.1,1.5c-0.4,0.2-0.9,0.3-1.3,0.2c-0.3-0.1-0.6-0.3-0.9-0.6
					c-0.4-0.5-0.6-1.1-0.7-2c0-0.1,0-0.2,0.1-0.3s0.2-0.2,0.3-0.2c0.1,0,0.2,0,0.3,0.1c0.1,0.1,0.2,0.2,0.2,0.3
					c0.1,0.7,0.3,1.2,0.6,1.6c0.1,0.2,0.3,0.3,0.4,0.3c0.2,0,0.4,0,0.6-0.1c0.4-0.2,0.6-0.5,0.6-0.9c0.1-0.4,0-0.9-0.2-1.4
					c-0.2-0.5-0.5-1-0.9-1.6c-0.1-0.1-0.3-0.5-0.7-0.9c-0.4-0.5-0.6-0.9-0.8-1.2c-0.2-0.3-0.4-0.7-0.5-1c-0.2-0.6-0.3-1.3-0.1-2.2
					c0.1-0.8,0.4-1.4,0.9-1.9c0.5-0.5,1-0.7,1.6-0.8c0.6,0,1.2,0.1,1.7,0.5c0.5,0.4,0.9,1,1.2,1.7c0,0.1,0,0.2,0,0.3
					c-0.1,0.1-0.1,0.2-0.2,0.2c-0.1,0-0.2,0-0.3,0C75.7,369.5,75.6,369.4,75.5,369.3"/>
			</g>
			<g>
				<g>
					<path class="st1" d="M121.8,396c-0.4,0-0.8-0.3-0.8-0.7c0-0.4,0.3-0.8,0.7-0.8l3.8-0.1c1,0,1.7-0.8,1.7-1.8l0-14.9l-5.8-22.7
						c-0.4-1.7-1.5-4.6-4.4-4.6H48c-1.2,0-2.3,0.5-3.1,1.3s-1.3,1.9-1.3,3.1l0.1,37.7c0,0.9,0.8,1.7,1.7,1.7l1.2,0c3,0,3,0,3.2,0.2
						c0.3,0.3,0.4,0.7,0.1,1.1c-0.2,0.2-0.4,0.3-0.7,0.3c-0.2,0-1.7,0-2.7,0l-1.2,0c-1.8,0-3.2-1.4-3.2-3.2l-0.1-37.8
						c0-1.6,0.6-3.1,1.7-4.2c1.1-1.1,2.6-1.7,4.2-1.7h69c2.9,0,5.1,2.1,5.9,5.8l5.8,22.8c0,0.1,0,0.1,0,0.2l0,14.9
						c0,1.8-1.4,3.3-3.2,3.3L121.8,396C121.8,396,121.8,396,121.8,396z"/>
					<path class="st1" d="M121.8,396.1L121.8,396.1c-0.5,0-0.9-0.4-0.9-0.9c0-0.5,0.4-0.9,0.9-0.9l3.8-0.1c0.9,0,1.6-0.8,1.6-1.6
						l0-14.9l-5.8-22.7c-0.4-1.7-1.4-4.5-4.3-4.5H48c-1.1,0-2.2,0.4-3,1.3c-0.8,0.8-1.3,1.9-1.2,3l0.1,37.7c0,0.9,0.7,1.6,1.6,1.6
						l1.2,0c3,0,3,0,3.3,0.2c0.2,0.1,0.3,0.4,0.3,0.6s0,0.5-0.2,0.7c-0.2,0.2-0.5,0.4-0.8,0.3c-0.2,0-1.2,0-2.1,0l-1.8,0
						c-1.9,0-3.3-1.5-3.4-3.4L42,354.8c0-1.6,0.6-3.1,1.8-4.3c1.1-1.1,2.7-1.8,4.3-1.8h69c3,0,5.2,2.1,6,5.9l5.8,22.8
						c0,0.1,0,0.1,0,0.2l0,14.9c0,1.9-1.5,3.4-3.3,3.4L121.8,396.1z M48,350.3h69c3.1,0,4.2,2.9,4.6,4.7l5.8,22.7l0,14.9
						c0,1-0.8,1.9-1.8,1.9l-3.8,0.1c-0.3,0-0.6,0.3-0.6,0.6c0,0.3,0.3,0.6,0.6,0.6h0l3.8-0.1c1.7,0,3.1-1.5,3.1-3.2l0-14.9
						c0-0.1,0-0.1,0-0.2l-5.8-22.8c-0.8-3.6-2.9-5.7-5.8-5.7H48c-1.6,0-3,0.6-4.1,1.7c-1.1,1.1-1.7,2.6-1.7,4.1l0.1,37.8
						c0,1.7,1.4,3.1,3.1,3.1l1.8,0c0.9,0,1.9,0,2.1,0c0.2,0,0.4-0.1,0.6-0.2c0.1-0.1,0.1-0.3,0.1-0.5s-0.1-0.3-0.2-0.4
						c-0.2-0.1-0.2-0.1-3.1-0.2l-1.2,0c-1,0-1.8-0.8-1.9-1.8l-0.1-37.7c0-1.2,0.5-2.4,1.3-3.2S46.8,350.3,48,350.3z"/>
				</g>
				<g>
					<path class="st1" d="M82.9,396c-7.2,0-14,0-18.7-0.1c-0.4,0-0.8-0.4-0.7-0.8c0-0.4,0.4-0.7,0.8-0.7c7.6,0.1,20.7,0.1,32.3,0.1
						c3.8,0,7.4,0,10.4,0c0.4,0,0.8,0.3,0.8,0.8s-0.3,0.8-0.8,0.8c-3,0-6.6,0-10.4,0C92,396,87.4,396,82.9,396z"/>
					<path class="st1" d="M82.9,396.2c-8.7,0-14.6,0-18.7-0.1c-0.5,0-0.9-0.4-0.9-0.9c0-0.5,0.4-0.9,0.9-0.9
						c7.6,0.1,20.7,0.1,32.3,0.1l1.4,0c3.3,0,6.3,0,9,0c0.5,0,0.9,0.4,0.9,0.9s-0.4,0.9-0.9,0.9c-3,0-6.6,0-10.4,0
						C92,396.1,87.4,396.2,82.9,396.2z M64.2,394.5c-0.4,0-0.6,0.3-0.6,0.6c0,0.4,0.3,0.6,0.6,0.6c4.1,0.1,10,0.1,18.7,0.1
						c4.5,0,9.2,0,13.6,0c3.8,0,7.4,0,10.4,0c0.4,0,0.6-0.3,0.6-0.6s-0.3-0.6-0.6-0.6c-2.7,0-5.7,0-9,0l-1.4,0
						C84.9,394.6,71.8,394.7,64.2,394.5z"/>
				</g>
				<g>
					<path class="st1" d="M114.3,400.6c-3,0-5.4-2.4-5.4-5.4c0-3,2.4-5.4,5.4-5.4c3,0,5.4,2.4,5.4,5.4
						C119.7,398.2,117.3,400.6,114.3,400.6z M114.3,391.4c-2.1,0-3.9,1.7-3.9,3.9c0,2.1,1.7,3.9,3.9,3.9c2.1,0,3.9-1.7,3.9-3.9
						C118.2,393.1,116.4,391.4,114.3,391.4z"/>
					<path class="st1" d="M114.3,400.8c-3,0-5.5-2.5-5.5-5.5c0-3,2.5-5.5,5.5-5.5c3,0,5.5,2.5,5.5,5.5
						C119.8,398.3,117.4,400.8,114.3,400.8z M114.3,390c-2.9,0-5.3,2.4-5.3,5.3c0,2.9,2.4,5.3,5.3,5.3c2.9,0,5.3-2.4,5.3-5.3
						C119.6,392.3,117.2,390,114.3,390z M114.3,399.3c-2.2,0-4-1.8-4-4c0-2.2,1.8-4,4-4c2.2,0,4,1.8,4,4
						C118.3,397.5,116.5,399.3,114.3,399.3z M114.3,391.5c-2.1,0-3.8,1.7-3.8,3.8c0,2.1,1.7,3.8,3.8,3.8c2.1,0,3.8-1.7,3.8-3.8
						C118.1,393.2,116.4,391.5,114.3,391.5z"/>
				</g>
				<g>
					<path class="st1" d="M56.7,400.6c-3,0-5.4-2.4-5.4-5.4c0-3,2.4-5.4,5.4-5.4s5.4,2.4,5.4,5.4C62.1,398.2,59.7,400.6,56.7,400.6z
						 M56.7,391.4c-2.1,0-3.9,1.7-3.9,3.9c0,2.1,1.7,3.9,3.9,3.9c2.1,0,3.9-1.7,3.9-3.9C60.6,393.1,58.9,391.4,56.7,391.4z"/>
					<path class="st1" d="M56.7,400.8c-3,0-5.5-2.5-5.5-5.5c0-3,2.5-5.5,5.5-5.5s5.5,2.5,5.5,5.5C62.3,398.3,59.8,400.8,56.7,400.8z
						 M56.7,390c-2.9,0-5.3,2.4-5.3,5.3c0,2.9,2.4,5.3,5.3,5.3s5.3-2.4,5.3-5.3C62,392.3,59.6,390,56.7,390z M56.7,399.3
						c-2.2,0-4-1.8-4-4c0-2.2,1.8-4,4-4s4,1.8,4,4C60.7,397.5,58.9,399.3,56.7,399.3z M56.7,391.5c-2.1,0-3.8,1.7-3.8,3.8
						c0,2.1,1.7,3.8,3.8,3.8s3.8-1.7,3.8-3.8C60.5,393.2,58.8,391.5,56.7,391.5z"/>
				</g>
				<g>
					<path class="st1" d="M125.7,388.1h-0.9c-1.3,0-2.3-1-2.3-2.3v-2c0-1.3,1-2.3,2.3-2.3h0.8c0.4,0,0.8,0.3,0.8,0.8
						s-0.3,0.8-0.8,0.8h-0.8c-0.4,0-0.8,0.4-0.8,0.8v2c0,0.4,0.4,0.8,0.8,0.8h0.9c0.4,0,0.8,0.3,0.8,0.8S126.1,388.1,125.7,388.1z"
						/>
					<path class="st1" d="M125.7,388.2h-0.9c-1.4,0-2.5-1.1-2.5-2.5v-2c0-1.4,1.1-2.5,2.5-2.5h0.8c0.5,0,0.9,0.4,0.9,0.9
						s-0.4,0.9-0.9,0.9h-0.8c-0.4,0-0.7,0.3-0.7,0.7v2c0,0.4,0.3,0.7,0.7,0.7h0.9c0.5,0,0.9,0.4,0.9,0.9S126.1,388.2,125.7,388.2z
						 M124.8,381.5c-1.2,0-2.2,1-2.2,2.2v2c0,1.2,1,2.2,2.2,2.2h0.9c0.4,0,0.6-0.3,0.6-0.6c0-0.4-0.3-0.6-0.6-0.6h-0.9
						c-0.5,0-0.9-0.4-0.9-0.9v-2c0-0.5,0.4-0.9,0.9-0.9h0.8c0.4,0,0.6-0.3,0.6-0.6c0-0.4-0.3-0.6-0.6-0.6H124.8z"/>
				</g>
				<g>
					<path class="st1" d="M119.5,379.8h-4.6c-0.7,0-1.4-0.3-1.9-0.8l-4.1-4c0,0,0,0,0,0c-0.5-0.5-0.8-1.2-0.8-2l-0.1-16.8
						c0-1.5,1.2-2.8,2.8-2.8l4.6,0c0,0,0,0,0,0c1.3,0,2.4,0.8,2.7,2.1c0.6,2.2,1.8,6.5,2.9,10.8c0.9,3.1,1.7,6.2,2.4,8.7
						c0.3,1.2,0.1,2.4-0.7,3.4C121.9,379.3,120.7,379.8,119.5,379.8z M109.9,374l4.1,4c0.2,0.2,0.5,0.4,0.9,0.4h4.6
						c0.7,0,1.4-0.3,1.9-0.9c0.4-0.6,0.6-1.3,0.4-2c-0.7-2.4-1.5-5.6-2.4-8.7c-1.2-4.3-2.4-8.6-2.9-10.8c-0.1-0.6-0.6-0.9-1.2-0.9
						l-4.6,0c-0.7,0-1.2,0.6-1.2,1.3l0.1,16.8C109.5,373.4,109.6,373.7,109.9,374L109.9,374z"/>
					<path class="st1" d="M119.5,380h-4.6c-0.8,0-1.5-0.3-2-0.8l-4.2-4c-0.5-0.5-0.8-1.3-0.8-2l-0.1-16.8c0-1.6,1.3-2.9,2.9-2.9
						l4.6,0c1.3,0,2.5,0.9,2.8,2.2c0.6,2.2,1.7,6.4,2.9,10.8c0.9,3.1,1.7,6.3,2.4,8.7c0.3,1.2,0.1,2.5-0.7,3.5
						C121.9,379.4,120.8,380,119.5,380z M108.9,375l4.1,4c0.5,0.5,1.2,0.7,1.8,0.7h4.6c1.2,0,2.3-0.5,3-1.5c0.7-0.9,0.9-2.1,0.6-3.3
						c-0.7-2.4-1.5-5.6-2.4-8.7c-1.2-4.4-2.3-8.6-2.9-10.8c-0.3-1.2-1.4-2-2.6-2l-4.6,0c-1.5,0-2.6,1.2-2.6,2.7l0.1,16.8
						C108.1,373.8,108.4,374.5,108.9,375L108.9,375z M119.5,378.4h-4.6c-0.4,0-0.7-0.1-1-0.4l-4.1-4c-0.3-0.3-0.4-0.6-0.4-1
						l-0.1-16.8c0-0.8,0.6-1.4,1.4-1.4l4.6,0c0.6,0,1.2,0.4,1.3,1c0.6,2.3,1.8,6.6,2.9,10.8l0,0.1c0.8,3.1,1.7,6.2,2.3,8.6
						c0.2,0.7,0,1.5-0.4,2.1C121,378.1,120.3,378.4,119.5,378.4z M110,373.9l4.1,4c0.2,0.2,0.5,0.3,0.8,0.3h4.6
						c0.7,0,1.3-0.3,1.8-0.9c0.4-0.6,0.6-1.3,0.4-1.9c-0.7-2.4-1.5-5.5-2.3-8.6l0-0.1c-1.2-4.2-2.3-8.5-2.9-10.8
						c-0.1-0.5-0.6-0.8-1.1-0.8l-4.6,0c-0.6,0-1.1,0.5-1.1,1.1l0.1,16.8C109.6,373.4,109.7,373.7,110,373.9L110,373.9z"/>
				</g>
			</g>
		</g>
	</g>
</g>
</svg>
