<?xml version="1.0" encoding="utf-8"?>
<!-- Generator: Adobe Illustrator 27.3.1, SVG Export Plug-In . SVG Version: 6.00 Build 0)  -->
<svg version="1.1" id="レイヤー_1" xmlns="http://www.w3.org/2000/svg" xmlns:xlink="http://www.w3.org/1999/xlink" x="0px"
	 y="0px" viewBox="0 0 376 107" style="enable-background:new 0 0 376 107;" xml:space="preserve">
<style type="text/css">
	.st0{fill:#5A534A;}
	.st1{fill:#FFFFFF;}
	.st2{enable-background:new    ;}
</style>
<g id="グループ_941" transform="translate(-584 -1773)">
	<g id="長方形_167" transform="translate(584 1773)">
		<path class="st0" d="M10,0h356c5.5,0,10,4.5,10,10v87c0,5.5-4.5,10-10,10H10c-5.5,0-10-4.5-10-10V10C0,4.5,4.5,0,10,0z"/>
		<path class="st1" d="M366,107H10c-5.5,0-10-4.5-10-10V10C0,4.5,4.5,0,10,0h356c5.5,0,10,4.5,10,10v87C376,102.5,371.5,107,366,107
			z M10,3c-3.9,0-7,3.1-7,7v87c0,3.9,3.1,7,7,7h356c3.9,0,7-3.1,7-7V10c0-3.9-3.1-7-7-7H10z"/>
	</g>
	<g class="st2">
		<path class="st1" d="M782.7,1815.2c-1.1,0.9-1.5,1.6-1.5,2.3c0,1.1,1.2,1.6,4.1,1.6c2,0,4.2-0.3,5.3-0.7l0.2,2.3
			c-0.3,0-0.4,0-0.7,0.1c-2,0.3-3.1,0.4-4.6,0.4c-1.9,0-3.3-0.2-4.2-0.6c-1.5-0.6-2.2-1.5-2.2-2.8c0-1.3,0.7-2.4,2.2-3.7
			L782.7,1815.2z M780.1,1808.2c1.3,0.3,2.8,0.4,5.1,0.4c2.2,0,3.4-0.1,4.5-0.3l0.1,1.9c-1,0.4-3.1,1.8-4.5,2.8l-1.5-1.2
			c1.1-0.7,1.3-0.8,1.7-1c0.2-0.1,0.2-0.1,0.4-0.3c0.1-0.1,0.2-0.1,0.4-0.2c-0.7,0.1-1.5,0.1-2.5,0.1c-0.9,0-2.3-0.1-3.1-0.2
			c-0.2,0-0.3,0-0.4,0c0,0-0.1,0-0.2,0L780.1,1808.2z M789.1,1812c0.7,0.8,1.2,1.4,1.8,2.5l-1.2,0.6c-0.6-1-1-1.7-1.8-2.5
			L789.1,1812z M791.7,1814c-0.5-0.9-1.1-1.7-1.7-2.5l1.1-0.6c0.8,0.8,1.2,1.4,1.8,2.4L791.7,1814z"/>
		<path class="st1" d="M794.4,1811.1c1.3,0.7,2,1.1,3.2,2l-1,1.5c-1.2-1-1.9-1.5-3.2-2.2L794.4,1811.1z M797.6,1816.9
			c-0.8,2-1.7,3.9-2.5,5.3l-1.6-1.3c0.2-0.2,0.4-0.4,0.6-0.7c0.8-1.1,1.4-2.3,2.1-4.3L797.6,1816.9z M795.1,1806.8
			c1.4,0.9,1.9,1.3,3,2.2l-1.1,1.5c-1.1-1-1.7-1.5-3.1-2.4L795.1,1806.8z M802.4,1809.6c-1.7,0.2-2,0.2-3.5,0.3
			c-0.1-0.7-0.3-1-0.6-1.7c3.7-0.1,7.6-0.7,9.1-1.5l1.2,1.7c-0.3,0.1-0.3,0.1-0.8,0.2c-0.8,0.2-2.3,0.5-3.6,0.7v2.2h3
			c0.8,0,1.4,0,1.9-0.1v1.9c-0.5-0.1-1.1-0.1-1.9-0.1h-3v2.2h2.6c0.6,0,1,0,1.3-0.1c-0.1,0.4-0.1,0.9-0.1,1.5v3.7
			c0,0.7,0,1.3,0.1,1.8h-1.9v-0.8h-5.7v0.8h-1.9c0-0.5,0.1-1.1,0.1-1.8v-3.7c0-0.5,0-1-0.1-1.5c0.4,0.1,0.7,0.1,1.3,0.1h2.3v-2.2
			h-2.6c-0.7,0-1.3,0-1.9,0.1v-1.9c0.5,0.1,1.1,0.1,1.9,0.1h2.6V1809.6z M800.6,1819.8h5.7v-2.6h-5.7V1819.8z"/>
		<path class="st1" d="M813.5,1817.1c-0.2,2.3-0.7,3.9-1.7,5.4c-0.7-0.7-1-0.9-1.6-1.3c0.6-0.9,1-1.8,1.2-2.9
			c0.2-0.8,0.3-1.7,0.3-2.6c0.1-1.4,0.2-3.8,0.2-5.8c0-1.2,0-1.8-0.1-2.5c0.6,0.1,1,0.1,2,0.1h9.5c1,0,1.4,0,2-0.1
			c-0.1,0.6-0.1,1-0.1,1.9v11.2c0,1.4-0.5,1.8-2.4,1.8c-0.5,0-1.4,0-1.9-0.1c-0.1-0.6-0.2-1.1-0.5-1.8c0.8,0.1,1.6,0.1,2.1,0.1
			c0.7,0,0.8-0.1,0.8-0.4v-3h-4.1v2.8c0,1,0,1.5,0.1,2h-2c0.1-0.5,0.1-1,0.1-2v-2.8H813.5z M817.4,1813h-3.8c0,0.5,0,0.8,0,1.1
			c0,0.8,0,0.9,0,1.3h3.8V1813z M817.4,1809.2h-3.7v1.8l0,0.5h3.7V1809.2z M823.3,1811.4v-2.2h-4.1v2.2H823.3z M823.3,1815.4v-2.3
			h-4.1v2.3H823.3z"/>
		<path class="st1" d="M830.3,1808.5c-0.1,0.6-0.1,1.5-0.1,2.6c0,1.5,0.1,3.5,0.3,4.6c0.3,1.8,0.8,2.9,1.4,2.9
			c0.3,0,0.5-0.3,0.7-0.7c0.4-0.9,0.7-1.9,0.9-3.1c0.6,0.7,0.9,0.9,1.7,1.5c-0.9,3.3-1.9,4.7-3.3,4.7c-1.1,0-2.1-0.8-2.7-2.5
			c-0.7-1.7-1-4.2-1.1-8.9c0-0.6,0-0.7-0.1-1.1H830.3z M838.3,1809.3c2.1,2.6,3.3,5.4,3.8,9.1l-2.1,0.8c-0.1-1.6-0.5-3.4-1.1-4.9
			c-0.6-1.5-1.4-2.9-2.4-4.2L838.3,1809.3z"/>
		<path class="st1" d="M843.9,1809.7c0.6,0.1,1.3,0.2,2.3,0.2c0.2,0,0.4,0,0.8,0c0.2-0.8,0.3-2.1,0.3-2.6c0-0.1,0-0.2,0-0.3l2.2,0.2
			c-0.1,0.4-0.1,0.4-0.3,1.6c-0.1,0.5-0.1,0.6-0.2,1c1.3-0.1,2.1-0.3,2.9-0.5l0.1,2c-0.1,0-0.1,0-0.5,0.1c-0.9,0.2-2.2,0.3-2.8,0.4
			c-0.2,1.1-0.6,2.9-1.1,4.4c-0.5,1.8-0.8,2.6-1.9,5.6l-2.1-0.8c1.2-2.2,2.5-6.1,3-9.1c-0.1,0-0.2,0-0.2,0h-1c-0.1,0-0.3,0-0.5,0
			c-0.3,0-0.5,0-0.7,0c-0.1,0-0.2,0-0.3,0L843.9,1809.7z M852.3,1816.3c-0.7,0.8-0.9,1.3-0.9,1.9c0,0.9,0.8,1.3,2.5,1.3
			c1.2,0,2.9-0.3,3.9-0.6l0.2,2.1c-0.3,0-0.4,0.1-0.8,0.1c-1.4,0.2-2.2,0.3-3.2,0.3c-1.5,0-2.6-0.2-3.4-0.7
			c-0.7-0.4-1.2-1.2-1.2-2.1c0-0.9,0.3-1.7,1.3-2.9L852.3,1816.3z M857.3,1814.1c-0.8-0.1-1.3-0.1-2.1-0.1c-1.7,0-2.8,0.1-4.5,0.5
			l-0.2-1.9c2.4-0.5,3.2-0.5,5.1-0.5c0.5,0,0.6,0,1.7,0L857.3,1814.1z"/>
		<path class="st1" d="M859.9,1809.9c0.6,0.1,1.3,0.2,2.3,0.2c0.2,0,0.4,0,0.8,0c0.2-0.8,0.3-2.1,0.3-2.6c0-0.1,0-0.2,0-0.3l2.2,0.2
			c-0.1,0.4-0.1,0.5-0.3,1.3c0,0.2-0.1,0.4-0.1,0.7c0,0.1-0.1,0.2-0.1,0.5c1.1-0.1,2.1-0.3,2.9-0.5l0.1,2c-0.1,0-0.1,0-0.2,0
			l-0.4,0.1c-1.1,0.2-2.4,0.4-2.8,0.4c-0.6,3.3-1.5,6.1-3,10l-2.1-0.8c1.1-2,2.5-6.1,3-9.1c-0.1,0-0.2,0-0.2,0l-0.4,0h-0.8
			c0,0-0.2,0-0.4,0c-0.2,0-0.5,0-0.7,0c-0.1,0-0.2,0-0.3,0L859.9,1809.9z M868.3,1816.4c-0.7,0.9-0.9,1.3-0.9,1.9
			c0,0.9,0.8,1.3,2.5,1.3c1.2,0,2.9-0.3,3.9-0.6l0.2,2.1c-0.3,0-0.4,0.1-0.8,0.1c-1.4,0.2-2.2,0.3-3.2,0.3c-1.5,0-2.6-0.2-3.4-0.7
			c-0.7-0.4-1.2-1.2-1.2-2.1c0-0.9,0.3-1.7,1.3-3L868.3,1816.4z M873.3,1814.2c-0.8-0.1-1.3-0.1-2.1-0.1c-1.7,0-2.8,0.1-4.5,0.5
			l-0.2-1.9c2.4-0.5,3.2-0.5,5.1-0.5c0.5,0,0.9,0,1.7,0L873.3,1814.2z M870.5,1807.6c0.7,0.8,1.2,1.4,1.8,2.5l-1.2,0.6
			c-0.6-1-1-1.7-1.8-2.5L870.5,1807.6z M873.2,1809.6c-0.5-0.9-1.1-1.7-1.7-2.5l1.1-0.6c0.8,0.8,1.2,1.4,1.8,2.4L873.2,1809.6z"/>
		<path class="st1" d="M876.6,1809.4c0.5,0.1,0.9,0.1,1.6,0.1c1.3,0,2.2-0.1,3.5-0.2c-0.1-0.1-0.1-0.1-0.2-0.4
			c-0.4-1-0.7-1.5-0.7-1.5l2.1-0.3c0.1,0.4,0.2,0.9,0.7,2.1c1.4-0.2,3.4-0.6,4.6-1l0.2,1.8c-0.2,0-0.2,0-0.6,0.1
			c-1.1,0.3-3,0.6-3.6,0.7c0.3,0.6,0.4,0.9,0.7,1.4c1.5-0.3,2.2-0.5,2.3-0.5c1-0.2,1.2-0.3,1.6-0.5l0.2,1.9
			c-0.3,0.1-0.7,0.1-1.1,0.2c-0.7,0.2-1.3,0.3-1.7,0.4c-0.4,0.1-0.4,0.1-0.6,0.1c0.9,1.5,1.2,1.8,2.3,3.1l-1.5,1.1
			c-1.2-0.5-2.2-0.7-3.9-0.7c-1.3,0-2.3,0.2-2.9,0.5c-0.5,0.3-0.7,0.6-0.7,1c0,0.4,0.3,0.8,0.7,1c0.5,0.2,1.4,0.4,2.4,0.4
			c1.8,0,4.2-0.5,5.2-1.1l0.3,2.1c-0.3,0.1-0.3,0.1-1.1,0.3c-1.4,0.4-2.9,0.6-4.4,0.6c-2,0-3.2-0.3-4.1-0.8
			c-0.8-0.5-1.3-1.4-1.3-2.3c0-0.9,0.5-1.8,1.4-2.4c0.9-0.6,2.2-0.8,4-0.8c1,0,2,0.1,2.9,0.4c-0.3-0.3-0.6-0.7-1.3-1.9
			c-1.8,0.3-2.9,0.3-6.6,0.5c-0.3,0-0.4,0-0.7,0.1l-0.1-1.9c0.5,0.1,0.6,0.1,1.8,0.1c1.8,0,3.2-0.1,4.8-0.3
			c-0.1-0.2-0.2-0.3-0.3-0.6c-0.2-0.4-0.2-0.5-0.4-0.8c-1.4,0.2-2.6,0.2-4.6,0.2c-0.7,0-0.8,0-1.2,0L876.6,1809.4z"/>
	</g>
	<g class="st2">
		<path class="st1" d="M784.7,1837.4c0.5-0.1,0.8-0.2,1.4-0.3c0-0.3,0-0.3,0-0.9c0-1.5,0-1.6-0.1-2h2.1c-0.1,0.5-0.1,0.5-0.1,2.7
			c0.4,0,0.6-0.1,1-0.1c2.4,0,4,1.4,4,3.5c0,1.1-0.5,2.2-1.4,3c-0.8,0.7-1.9,1-3.1,1c-0.8,0-1.7-0.2-2.6-0.5c0-0.8-0.1-1.1-0.3-2.1
			c1,0.5,1.9,0.7,2.7,0.7c0.7,0,1.4-0.2,1.9-0.6c0.4-0.3,0.7-0.8,0.7-1.4c0-1.1-0.8-1.7-2.3-1.7c-1.2,0-2.2,0.2-5.1,1.1
			c1.1,3.7,1.1,4,2.2,8.3c0.1,0.4,0.1,0.5,0.3,0.8l-2.2,0.5c-0.1-1.4-1-5.4-2.1-9c-0.2,0.1-0.3,0.1-0.8,0.3
			c-0.6,0.2-1.8,0.6-2.2,0.9l-0.7-2c0.5-0.1,0.7-0.2,1.5-0.4c0.7-0.2,0.8-0.3,1.6-0.5c-0.5-1.7-0.8-2.6-1.2-3.2l2.1-0.6
			c0.1,0.5,0.1,0.5,0.6,2c0.1,0.4,0.2,0.6,0.4,1.2L784.7,1837.4z"/>
		<path class="st1" d="M804,1840.4c0,0.1,0,0.2,0,0.4c0.4,0.8,0.5,1.5,0.5,2.4c0,1.9-0.9,3.5-2.5,4.6c-0.7,0.5-1.5,0.8-3.1,1.4
			c-0.5-1.1-0.6-1.3-1.2-1.9c1.4-0.3,2.1-0.5,2.9-1c1.2-0.7,1.8-1.5,2-2.5c-0.5,0.8-1.4,1.2-2.5,1.2c-0.8,0-1.4-0.2-2-0.6
			c-0.8-0.6-1.2-1.3-1.2-2.3c0-1.8,1.4-3.1,3.4-3.1c0.7,0,1.4,0.2,1.8,0.5c0-0.1,0-0.1,0-0.2c0,0,0-1,0-1.4c-2.4,0.1-4,0.1-4.8,0.2
			c-2.6,0.2-2.6,0.2-3,0.3l-0.1-2c0.4,0,0.5,0,0.8,0c0.4,0,0.7,0,2.9-0.1c1.1,0,1.3,0,2.7-0.1c0.6,0,0.6,0,1.4-0.1
			c0-1.6,0-1.6-0.1-2.1l2.1,0c-0.1,0.5-0.1,0.6-0.1,2c3,0,4.3-0.1,4.9-0.1l0,2c-0.6-0.1-1.4-0.1-2.9-0.1c-0.4,0-0.7,0-2.1,0v1.1
			L804,1840.4z M800.6,1840.6c-0.9,0-1.6,0.6-1.6,1.4c0,0.8,0.6,1.3,1.4,1.3c1,0,1.7-0.6,1.7-1.5
			C802.1,1841,801.5,1840.6,800.6,1840.6z"/>
		<path class="st1" d="M813.2,1835.5c-0.1,0.6-0.1,1.5-0.1,2.6c0,1.5,0.1,3.5,0.3,4.6c0.3,1.8,0.8,2.9,1.4,2.9
			c0.3,0,0.5-0.3,0.7-0.7c0.4-0.9,0.7-1.9,0.9-3.1c0.6,0.7,0.9,0.9,1.7,1.5c-0.9,3.3-1.9,4.7-3.3,4.7c-1.1,0-2.1-0.8-2.7-2.5
			c-0.7-1.7-1-4.2-1.1-8.9c0-0.6,0-0.7-0.1-1.1H813.2z M821.3,1836.3c2.1,2.6,3.3,5.4,3.8,9.1l-2.1,0.8c-0.1-1.6-0.5-3.4-1.1-4.9
			c-0.6-1.5-1.4-2.9-2.4-4.2L821.3,1836.3z"/>
		<path class="st1" d="M833,1844.8c-0.1,0.2-0.1,0.3-0.2,0.6c-0.7-0.8-1.2-1.5-1.7-2.4c0.1,1.2,0.1,1.4,0.1,1.9v2.8
			c0,0.8,0,1.3,0.1,1.8h-2c0.1-0.5,0.1-1.1,0.1-1.8v-2.2c0-0.7,0-1.5,0.1-2c-0.8,1.9-1.3,2.8-2.2,3.8c-0.2-0.7-0.5-1.3-0.9-1.8
			c0.7-0.7,1.3-1.5,1.8-2.5c0.4-0.6,0.4-0.8,0.9-1.9h-0.9c-0.7,0-1.1,0-1.5,0.1v-1.8c0.4,0.1,0.7,0.1,1.5,0.1h1.1v-4
			c0-0.8,0-1.3-0.1-1.7h1.9c-0.1,0.4-0.1,0.8-0.1,1.6v4h0.8c0.6,0,0.9,0,1.3-0.1v1.8c-0.4-0.1-0.7-0.1-1.3-0.1h-0.6
			c0.6,1.1,1.3,1.8,2.2,2.6c-0.2,0.4-0.3,0.6-0.5,1c0.4,0,1-0.1,1.6-0.2l4-0.9v-7.8c0-1,0-1.4-0.1-2h2.1c-0.1,0.6-0.1,1-0.1,2v7.4
			c0.7-0.2,1-0.3,1.4-0.4l0.4,1.9c-0.5,0.1-0.9,0.1-1.6,0.3l-0.2,0v2.5c0,1,0,1.5,0.1,2h-2.1c0.1-0.6,0.1-1,0.1-2v-2.1l-3.6,0.8
			c-0.7,0.2-1.2,0.3-1.6,0.4L833,1844.8z M828.1,1834.7c0.5,1.5,0.8,2.4,1,3.7l-1.4,0.6c-0.3-1.6-0.6-2.6-1.1-3.6L828.1,1834.7z
			 M833.9,1835.3c-0.4,1.6-0.7,2.2-1.4,3.7l-1.2-0.6c0.5-1.1,0.8-2,1.2-3.7L833.9,1835.3z M834.8,1839.1c1.3,0.9,2.1,1.5,3,2.5
			l-1.2,1.4c-1.2-1.3-1.8-1.8-3-2.6L834.8,1839.1z M835.3,1834.9c1.5,1,2,1.5,3,2.5l-1.2,1.4c-1.3-1.3-1.3-1.4-3-2.6L835.3,1834.9z"
			/>
		<path class="st1" d="M848.6,1840c-0.7,0-1.2,0-1.7,0.1v-0.8c-1,0.6-1.6,0.9-2.8,1.4c-0.4-0.9-0.5-1.1-1-1.8c3.2-1.1,5.7-2.9,6.9-5
			h2.1c0.7,1,1.4,1.7,2.6,2.6c1.4,1.1,2.7,1.7,4.5,2.3c-0.4,0.6-0.7,1.2-0.9,1.9c-1.3-0.6-1.9-0.8-3-1.5v0.9c-0.5-0.1-1-0.1-1.7-0.1
			H852v1.6h4.3c0.9,0,1.4,0,1.9-0.1v1.9c-0.5-0.1-1.1-0.1-1.9-0.1H852v3.8h4.6c0.9,0,1.4,0,2-0.1v2c-0.6-0.1-1.3-0.1-2-0.1h-10.7
			c-0.8,0-1.4,0-2.1,0.1v-2c0.6,0.1,1.2,0.1,2.1,0.1h4.3v-3.8h-4c-0.7,0-1.3,0-1.8,0.1v-1.9c0.5,0.1,1,0.1,1.9,0.1h4v-1.6H848.6z
			 M847.4,1843.5c0.6,1,0.9,1.7,1.4,2.8l-1.7,0.7c-0.4-1.1-0.8-2-1.3-2.8L847.4,1843.5z M848.5,1838.4l5.3,0c0.2,0,0.2,0,0.4,0
			c-1.3-1-2.2-1.7-3.1-2.9c-0.9,1.2-1.6,1.8-3,2.9H848.5z M856.7,1844.2c-0.2,0.4-0.2,0.4-0.8,1.6c-0.1,0.1-0.1,0.2-0.7,1.2
			l-1.6-0.6c0.5-0.8,0.9-1.8,1.3-2.9L856.7,1844.2z"/>
		<path class="st1" d="M860.5,1836.5c0.4,0.1,0.7,0.1,1.4,0.1h3.5c0.7,0,1,0,1.4-0.1v1.8c-0.4-0.1-0.6-0.1-1.3-0.1h-3.6
			c-0.6,0-1,0-1.4,0.1V1836.5z M875.2,1841.7c-0.1,0.2-0.1,0.2-0.3,0.7c-0.7,1.6-1.4,2.6-2.3,3.6c1.2,0.7,1.9,1,3.8,1.5
			c-0.4,0.7-0.6,1.1-0.9,1.8c-2-0.7-3.1-1.2-4.2-2.1c-1.1,0.9-2.3,1.5-4.1,2.2c-0.3-0.6-0.5-1-0.9-1.4c0,0.6,0,0.8,0.1,1.2h-1.7
			v-0.6h-2v0.8H861c0.1-0.5,0.1-1.1,0.1-1.7v-2.5c0-0.5,0-0.9-0.1-1.3c0.4,0,0.8,0.1,1.3,0.1h2.9c0.7,0,0.8,0,1.1-0.1
			c-0.1,0.4-0.1,0.6-0.1,1.2v2.5c1.5-0.4,2.6-1,3.6-1.6c-1-1.1-1.5-1.9-2.2-3.5c-0.3,0-0.5,0-0.8,0.1v-1.8c0.3,0.1,0.6,0.1,1.1,0.1
			h5c0.6,0,1,0,1.2-0.1L875.2,1841.7z M861.1,1834.1c0.5,0.1,0.7,0.1,1.4,0.1h2.4c0.7,0,1,0,1.4-0.1v1.6c-0.5-0.1-0.8-0.1-1.4-0.1
			h-2.4c-0.6,0-1,0-1.4,0.1V1834.1z M861.1,1839.1c0.3,0,0.6,0.1,1.1,0.1h3c0.6,0,0.8,0,1.1-0.1v1.6c-0.4,0-0.6-0.1-1.1-0.1h-3
			c-0.5,0-0.8,0-1.1,0.1V1839.1z M861.1,1841.5c0.3,0,0.6,0.1,1.1,0.1h3c0.6,0,0.8,0,1.1-0.1v1.6c-0.4-0.1-0.6-0.1-1.1-0.1h-3
			c-0.5,0-0.7,0-1.1,0.1V1841.5z M862.7,1847.1h2v-1.7h-2V1847.1z M869.9,1835.9c-0.1,1.5-0.2,2.3-0.7,3.2c-0.3,0.7-0.7,1.1-1.3,1.6
			c-0.5-0.5-1-0.9-1.5-1.2c1.3-1,1.8-2,1.8-4.2c0-0.5,0-0.7-0.1-1.1c0.4,0.1,0.8,0.1,1.3,0.1h2.6c0.6,0,1,0,1.4-0.1
			c-0.1,0.4-0.1,0.8-0.1,1.4v2.5c0,0.2,0.1,0.3,0.5,0.3c0.7,0,0.7,0,0.8-2c0.5,0.3,1,0.5,1.5,0.6c-0.2,2.8-0.4,3-2.5,3
			c-1.6,0-2-0.2-2-1.1v-3H869.9z M869.5,1842.5c0.4,1,0.9,1.7,1.7,2.4c0.7-0.8,1.1-1.3,1.7-2.4H869.5z"/>
		<path class="st1" d="M884.5,1840.3H882c-0.7,0-1.2,0-1.7,0.1v-1.8c0.4,0.1,0.9,0.1,1.7,0.1h6.5c0.8,0,1.3,0,1.8-0.1v1.8
			c-0.5-0.1-1-0.1-1.8-0.1h-2.2v2.2h3.2c0.8,0,1.2,0,1.7-0.1v1.8c-0.5-0.1-0.9-0.1-1.7-0.1h-3.2v2.9c0.8,0.1,1.8,0.2,2.8,0.2
			c1,0,2.1-0.1,3.9-0.2c-0.3,0.7-0.4,1.2-0.5,1.9c-1.4,0-2.3,0.1-3.6,0.1c-4,0-6.2-0.9-7.6-2.9c-0.5,1.2-1.2,2.1-2.3,3.3
			c-0.4-0.6-0.7-0.8-1.5-1.4c1.4-1.3,2.4-2.9,2.9-4.8c0.2-0.7,0.3-1.5,0.3-1.8l1.9,0.4c-0.1,0.3-0.1,0.3-0.2,1
			c-0.1,0.3-0.2,0.7-0.4,1.5c0.7,1.2,1.4,1.8,2.6,2.4V1840.3z M884.2,1834.8c0-0.4,0-0.7-0.1-1.1h2.1c-0.1,0.4-0.1,0.6-0.1,1.1v0.6
			h4.6c0.7,0,1.3,0,1.9-0.1c-0.1,0.4-0.1,0.8-0.1,1.3v1.3c0,0.5,0,0.9,0.1,1.3h-1.8v-2.1h-11v2.1h-1.9c0.1-0.4,0.1-0.7,0.1-1.3v-1.3
			c0-0.4,0-0.9-0.1-1.3c0.6,0.1,1.2,0.1,1.9,0.1h4.4V1834.8z"/>
	</g>
	<g id="features-07" transform="translate(643 1803)">
		<path class="st1" d="M28.6,48.7c-0.1,0-0.3,0-0.4-0.1C13.3,42,2.7,31.8-0.2,21.3c-1.6-5.7-0.7-11.1,2.5-15.8
			c2.8-4,7.2-6.3,12.4-6.5C20-1.1,25.3,1,28.6,4.5C31.9,1,37.3-1.1,42.6-1c5.2,0.1,9.6,2.5,12.4,6.5c4.3,6.2,4.4,13.8,0.1,21.5
			c-0.3,0.5-0.9,0.7-1.4,0.4c-0.5-0.3-0.7-0.9-0.4-1.4c2.7-4.9,4.9-12.3,0-19.4C50.9,3.1,47,1.1,42.5,1c-5-0.1-10.3,2.1-13.1,5.7
			c-0.2,0.2-0.5,0.4-0.8,0.4l0,0c-0.3,0-0.6-0.1-0.8-0.4C25,3.1,19.8,0.9,14.7,1C10.2,1.1,6.4,3.1,3.9,6.6c-2.9,4.1-3.6,9-2.2,14.1
			c2.7,9.7,13,19.6,26.9,25.8c6.6-2.9,12.6-6.9,17.9-11.8c0.4-0.4,1-0.4,1.4,0c0.4,0.4,0.4,1,0,1.4C42.4,41.4,36,45.6,29,48.6
			C28.9,48.6,28.8,48.7,28.6,48.7z"/>
		<path class="st1" d="M53,29.7c-0.4,0-0.8-0.2-0.9-0.6l-3.7-9.7c-0.2-0.5,0.1-1.1,0.6-1.3c0.5-0.2,1.1,0.1,1.3,0.6l3.4,8.8l8.8-3.4
			c0.5-0.2,1.1,0.1,1.3,0.6c0.2,0.5-0.1,1.1-0.6,1.3l-9.7,3.7C53.3,29.7,53.2,29.7,53,29.7z"/>
	</g>
</g>
</svg>
