<?xml version="1.0" encoding="utf-8"?>
<!-- Generator: Adobe Illustrator 27.3.1, SVG Export Plug-In . SVG Version: 6.00 Build 0)  -->
<svg version="1.1" id="レイヤー_1" xmlns="http://www.w3.org/2000/svg" xmlns:xlink="http://www.w3.org/1999/xlink" x="0px"
	 y="0px" viewBox="0 0 376 107" style="enable-background:new 0 0 376 107;" xml:space="preserve">
<style type="text/css">
	.st0{fill:#5A534A;}
	.st1{fill:#FFFFFF;}
	.st2{enable-background:new    ;}
	.st3{fill:#EF8200;}
</style>
<g id="グループ_936" transform="translate(-150 -1773)">
	<g id="長方形_168" transform="translate(150 1773)">
		<path class="st0" d="M10,0h356c5.5,0,10,4.5,10,10v87c0,5.5-4.5,10-10,10H10c-5.5,0-10-4.5-10-10V10C0,4.5,4.5,0,10,0z"/>
		<path class="st1" d="M366,107H10c-5.5,0-10-4.5-10-10V10C0,4.5,4.5,0,10,0h356c5.5,0,10,4.5,10,10v87C376,102.5,371.5,107,366,107
			z M10,3c-3.9,0-7,3.1-7,7v87c0,3.9,3.1,7,7,7h356c3.9,0,7-3.1,7-7V10c0-3.9-3.1-7-7-7H10z"/>
	</g>
	<g class="st2">
		<path class="st1" d="M376.2,1822.1c0.1-0.5,0.1-1,0.1-1.5v-3.6c0-0.1,0-0.4,0-0.9c-0.2,0.1-0.3,0.2-0.5,0.3
			c-1.3,0.7-2.7,1.3-4.8,1.9c-0.3-0.8-0.5-1.1-1-1.9c1.7-0.4,3-0.8,4.7-1.6c2-0.9,3.8-2.1,5.3-3.6c-0.1,0-0.1,0-0.4,0
			c-0.1,0-0.1,0-6.2,0.1c-1,0-1.2,0-1.8,0.1v-2.1c0.4,0.1,1.1,0.2,1.8,0.2h2.8v-1.4c0-0.6,0-0.9-0.1-1.2h2.3
			c-0.1,0.3-0.1,0.6-0.1,1.2v1.4h2.9c0.5,0,0.8-0.1,1.2-0.2l1,1.2c-0.3,0.2-0.3,0.2-0.7,0.7c-1,1.1-1.8,1.9-3.5,3.2
			c2.1,0.6,3.9,1.5,5.9,2.7l-1.1,1.8c-1.7-1.1-3.1-1.8-5.2-2.7c-0.2-0.1-0.3-0.1-0.4-0.2c0,0.2,0,0.7,0,0.8v3.7c0,0.7,0,1,0.1,1.5
			H376.2z"/>
		<path class="st1" d="M400.1,1808.6c-0.3,0.3-0.4,0.3-0.6,0.6c-1.3,1.3-2.5,2.4-4,3.5v7.3c0,0.9,0,1.4,0.1,1.9h-2.4
			c0.1-0.5,0.1-0.8,0.1-1.8v-6c-2,1.2-2.9,1.6-6.1,2.8c-0.4-0.9-0.5-1.2-1.1-1.9c3.4-0.9,6.2-2.3,8.9-4.4c1.5-1.2,2.7-2.3,3.2-3.2
			L400.1,1808.6z"/>
		<path class="st1" d="M410.5,1814.1c-0.1,2-0.5,3.4-1.2,4.6c-0.9,1.5-2.1,2.4-4.4,3.3c-0.4-0.9-0.6-1.2-1.4-1.9
			c2-0.6,3.3-1.5,4-2.8c0.4-0.8,0.7-1.9,0.7-3.2h-4.1c-1.2,0-1.5,0-2.2,0.1v-2c0.6,0.1,1,0.1,2.2,0.1h9.9c1.2,0,1.5,0,2.2-0.1v2
			c-0.6-0.1-1-0.1-2.2-0.1H410.5z M403.7,1807.8c0.6,0.1,1,0.1,2.2,0.1h6.5c1.2,0,1.6,0,2.2-0.1v2.1c-0.6-0.1-1-0.1-2.2-0.1h-6.6
			c-1.2,0-1.6,0-2.2,0.1V1807.8z"/>
		<path class="st1" d="M429.9,1811.3c-0.2,0.2-0.2,0.2-0.6,0.6c-0.9,0.9-2.1,2-3.2,2.8v5.8c0,0.8,0,1.2,0.1,1.6l-2.2,0
			c0.1-0.5,0.1-0.8,0.1-1.6v-4.6c-1.5,0.9-2.8,1.4-4.8,2.2c-0.4-0.8-0.5-1.1-1.1-1.8c1.6-0.4,2.6-0.8,4-1.5c1.9-1,3.4-2.1,4.8-3.5
			c0.6-0.6,0.8-0.8,1-1.2L429.9,1811.3z"/>
		<path class="st1" d="M445.2,1810.4c-0.1,0.3-0.2,0.4-0.3,0.8c-1.3,5.4-4.4,8.8-9.7,11c-0.4-0.9-0.7-1.3-1.5-2
			c4.7-1.5,7.8-4.6,8.9-9.1h-8.1c-1.3,0-1.6,0-2.1,0.1v-2.2c0.6,0.1,1,0.1,2.2,0.1h7.8c0.6,0,0.9,0,1.2-0.1
			c-0.3-0.6-0.6-1.1-1.1-1.7l1.2-0.5c0.7,0.9,1.1,1.6,1.5,2.7l-0.7,0.3L445.2,1810.4z M446.2,1809.2c-0.4-1-0.9-1.9-1.5-2.6l1.2-0.5
			c0.7,0.9,1.1,1.6,1.5,2.6L446.2,1809.2z"/>
	</g>
	<g class="st2">
		<path class="st1" d="M344.6,1847.6h-2.1v-5h-5v-2h5v-4.8h2.1v4.8h5v2h-5V1847.6z"/>
		<path class="st1" d="M358,1835.7c-0.1,0.2-0.1,0.2-0.1,0.3l0,0.3l-0.1,0.5l-0.1,0.4c-0.7,4.9-2,8.2-4.3,10.8
			c-0.8-0.8-1.1-1-1.9-1.5c1-1,1.7-2.1,2.4-3.6c0.7-1.6,1.3-3.7,1.6-5.8c0.1-0.7,0.2-1.3,0.2-1.6c0-0.1,0-0.1,0-0.2L358,1835.7z
			 M362.9,1835.3c0,0.8,0.3,2.4,0.7,3.9c0.8,3.1,2,5.4,3.8,7.3c-0.9,0.5-1.2,0.8-1.9,1.6c-2.3-2.7-3.8-6.6-4.5-11.2
			c-0.1-0.7-0.2-1-0.2-1.2L362.9,1835.3z M364.3,1834.2c0.6,0.9,1,1.6,1.4,2.7l-1.3,0.4c-0.4-1.1-0.7-1.8-1.4-2.8L364.3,1834.2z
			 M366.6,1836.7c-0.4-1.1-0.8-1.9-1.4-2.7l1.3-0.4c0.6,0.9,1,1.6,1.4,2.6L366.6,1836.7z"/>
		<path class="st1" d="M381.9,1835.6c-0.3,0.3-0.4,0.3-0.6,0.6c-1.3,1.3-2.5,2.4-4,3.5v7.3c0,0.9,0,1.4,0.1,1.9h-2.4
			c0.1-0.5,0.1-0.8,0.1-1.8v-6c-2,1.2-2.9,1.6-6.1,2.8c-0.4-0.9-0.5-1.2-1.1-1.9c3.4-0.9,6.2-2.3,8.9-4.4c1.5-1.2,2.7-2.3,3.2-3.2
			L381.9,1835.6z"/>
		<path class="st1" d="M387.4,1834.6c-0.1,0.5-0.1,0.6-0.1,1.5v4.7c0,0.8,0,1.1,0.1,1.5h-2.3c0.1-0.4,0.1-0.9,0.1-1.5v-4.7
			c0-0.9,0-1.1-0.1-1.5L387.4,1834.6z M395.1,1834.6c-0.1,0.4-0.1,0.6-0.1,1.6v2.3c0,2.7-0.1,4.1-0.4,5.2c-0.5,1.7-1.6,3-3.3,4
			c-0.9,0.5-1.8,0.8-3.3,1.3c-0.3-0.8-0.5-1.1-1.2-2c1.7-0.3,2.7-0.7,3.7-1.4c1.6-1.1,2.2-2.1,2.3-4.3c0.1-0.7,0.1-1.5,0.1-2.8v-2.1
			c0-0.9,0-1.2-0.1-1.6H395.1z"/>
		<path class="st1" d="M398.5,1846c1.5-0.1,3.5-0.6,5-1.3c2.1-0.9,3.7-2.2,5-4.2c0.7-1.1,1.2-2,1.7-3.4c0.7,0.8,0.9,1.1,1.8,1.7
			c-1.4,3.1-3.1,5.1-5.4,6.7c-1.7,1.2-3.8,2-6.5,2.5c-0.7,0.1-0.7,0.2-1.1,0.3L398.5,1846z M399.9,1835.4c2,1.3,3.1,2,4.4,3.3
			l-1.5,1.9c-1.4-1.4-2.8-2.6-4.3-3.5L399.9,1835.4z"/>
		<path class="st1" d="M427.1,1838.1c-0.1,0.3-0.2,0.6-0.2,1.1c-0.1,1.9-0.2,4.6-0.4,5.7c-0.4,2.9-1,3.6-3.1,3.6
			c-0.6,0-1.2-0.1-2.1-0.2c0-1-0.1-1.4-0.4-2.2c1,0.3,1.7,0.4,2.2,0.4c0.7,0,1-0.4,1.3-1.9c0.2-1.2,0.4-3.5,0.4-5.4h-4
			c-0.4,4.3-2.2,7.2-5.9,9.6c-0.6-0.9-0.8-1.2-1.5-1.8c3.2-1.7,5-4.2,5.4-7.8H416c-1.1,0-1.3,0-1.8,0.1l0-2.1
			c0.6,0.1,0.9,0.1,1.9,0.1l3,0c0.1-0.6,0.1-1.6,0.1-2.1v-0.4c0-0.2,0-0.3-0.1-0.7l2.3,0.1c0,0.2-0.1,0.3-0.1,0.5c0,0.1,0,0.2,0,0.3
			l0,0.3l-0.1,0.9c0,0.5,0,0.5-0.1,1.1l3.8,0c0.6,0,0.7,0,0.9,0l-0.1-0.1l-0.1-0.2c-0.4-0.8-0.8-1.6-1.3-2.3l1.2-0.5
			c0.7,0.9,1,1.6,1.5,2.7l-0.9,0.3L427.1,1838.1z M427.9,1836.5c-0.4-1-0.9-1.9-1.5-2.6l1.2-0.5c0.7,0.9,1.1,1.6,1.5,2.6
			L427.9,1836.5z"/>
		<path class="st1" d="M434.4,1834.8c-0.1,0.5-0.1,0.5-0.2,3.8c-0.1,3.3-0.5,5.2-1.4,7c-0.6,1.2-1.2,2-2.3,3.1
			c-0.7-0.8-0.9-1.1-1.7-1.6c0.8-0.7,1.2-1.1,1.8-2c1.2-2,1.6-4.1,1.6-8.9c0-0.9,0-1.1-0.1-1.5L434.4,1834.8z M438.9,1834.6
			c-0.1,0.5-0.1,0.8-0.1,1.6l-0.1,9.7c1.2-0.6,1.9-1.1,2.6-1.9c0.8-0.9,1.3-1.9,1.7-3.1c0.6,0.8,0.8,1,1.6,1.6c-0.7,1.7-1.6,3-2.7,4
			c-1,0.8-1.9,1.3-3.6,2c-0.4,0.1-0.5,0.2-0.7,0.3l-1.1-1.2c0.1-0.5,0.1-0.9,0.2-1.8l0.1-9.6v-0.5c0-0.4,0-0.8-0.1-1.1L438.9,1834.6
			z"/>
		<path class="st1" d="M449.1,1847.4c0,0.9,0,1.4,0.1,2h-2c0.1-0.6,0.1-1.1,0.1-2v-4.7c0-0.9,0-1.2,0-1.9c-0.5,0.8-0.8,1.2-1.3,1.8
			c-0.2-0.8-0.4-1.4-0.7-2.1c1.9-2,3.1-4.4,3.6-7l1.9,0.5c-0.6,1.8-1,2.8-1.6,4v6.7c1.9-1.4,3.5-3.7,4.5-6.2h-1.8
			c-0.6,0-1.2,0-1.8,0.1v-1.9c0.5,0.1,1.2,0.1,1.9,0.1h2.5v-1.5c0-0.6,0-1.1-0.1-1.6h2c-0.1,0.5-0.1,1-0.1,1.6v1.5h3.1
			c0.7,0,1.4,0,2-0.1v1.9c-0.6-0.1-1.3-0.1-1.9-0.1h-2.5c0.6,1.3,1,2.1,2,3.4c0.7,1,1.6,1.9,2.9,2.8c-0.5,0.5-0.7,0.9-1.2,1.8
			c-0.9-0.8-1.3-1.2-1.9-2v1.6c-0.4-0.1-0.7-0.1-1.2-0.1h-1.3v1.4c0,0.7,0,1.2,0.1,1.9h-2c0.1-0.6,0.1-1.2,0.1-1.9v-1.4h-1.2
			c-0.5,0-0.8,0-1.2,0.1v-1.6c-0.7,0.8-0.9,1.1-1.8,1.9c-0.4-0.6-0.6-0.9-1-1.4V1847.4z M454.3,1842.5c0-0.9,0-1.2,0-2
			c-0.8,1.9-1.3,2.8-2.3,4.1c0.3,0,0.6,0.1,1.1,0.1h1.1V1842.5z M457.3,1844.5c0.5,0,0.7,0,1.1-0.1c-1-1.3-1.7-2.4-2.4-4.1
			c0,1,0,1.4,0,2v2.1H457.3z"/>
		<path class="st1" d="M464.8,1837.5c-0.2,0.5-0.3,0.7-0.6,1.3c-0.7-0.4-1-0.5-1.6-0.8c0.7-1.1,1.2-2.3,1.3-3.4
			c0.1-0.4,0.1-0.5,0.1-0.7l1.7,0.3c-0.1,0.1-0.1,0.4-0.2,0.7c0,0.2-0.1,0.6-0.2,0.9h1.3v-0.5c0-0.8,0-1.2-0.1-1.6h1.9
			c-0.1,0.4-0.1,0.8-0.1,1.6v0.5h1.4c0.8,0,1.2,0,1.7-0.1v1.8c-0.5-0.1-0.9-0.1-1.7-0.1h-1.4v1.4h2c0.7,0,1.1,0,1.6-0.1v1.8
			c-0.4-0.1-0.8-0.1-1.6-0.1h-1.9v1.3h1.6c0.7,0,1.1,0,1.6-0.1c0,0.4-0.1,0.7-0.1,1.5v3.4c0,1.1-0.4,1.4-1.9,1.4c-0.2,0-0.3,0-0.8,0
			c0-0.7-0.1-1.1-0.3-1.6c0.3,0,0.7,0.1,0.9,0.1c0.3,0,0.4-0.1,0.4-0.3v-2.7h-1.5v4c0,0.9,0,1.4,0.1,1.8h-1.9c0.1-0.5,0.1-1,0.1-1.9
			v-4H465v3c0,0.7,0,1.2,0.1,1.6h-1.9c0.1-0.4,0.1-0.7,0.1-1.7v-3.1c0-0.7,0-1.1-0.1-1.6c0.5,0.1,1,0.1,1.6,0.1h1.8v-1.3h-2.1
			c-0.8,0-1.3,0-1.8,0.1v-1.8c0.4,0.1,0.9,0.1,1.5,0.1h2.4v-1.4H464.8z M474.4,1834.9c-0.1,0.5-0.1,0.9-0.1,1.8v6.9
			c0,1,0,1.4,0.1,1.8h-1.9c0.1-0.4,0.1-0.7,0.1-1.8v-6.8c0-0.9,0-1.3-0.1-1.8H474.4z M477.8,1833.8c-0.1,0.5-0.1,1-0.1,2.1v11.4
			c0,0.9-0.2,1.3-0.6,1.6c-0.4,0.3-0.9,0.4-2.1,0.4c-0.1,0-0.6,0-1.6-0.1c-0.1-0.8-0.2-1.2-0.5-1.8c0.8,0.1,1.6,0.2,2.2,0.2
			c0.6,0,0.8-0.1,0.8-0.5v-11.1c0-1,0-1.6-0.1-2.1H477.8z"/>
	</g>
	<g id="features-06" transform="translate(192 1798)">
		<ellipse id="楕円形_532" class="st3" cx="27" cy="9.6" rx="9.6" ry="9.6"/>
		<path id="パス_25" class="st3" d="M42.8,50.4c0.9,0,1.6-0.7,1.6-1.6v-5.1c0-9.9-7.4-19.3-17.4-19.3S10.1,33.7,9.6,43.6v5.1
			c0,0.9,0.7,1.6,1.6,1.6L42.8,50.4L42.8,50.4z"/>
		<path class="st1" d="M71.8,20.3c-5.9,0-10.6-4.8-10.6-10.6S66-1,71.8-1S82.4,3.8,82.4,9.6S77.7,20.3,71.8,20.3z M71.8,1
			c-4.8,0-8.6,3.9-8.6,8.6s3.9,8.6,8.6,8.6c4.8,0,8.6-3.9,8.6-8.6S76.6,1,71.8,1z"/>
		<path class="st1" d="M87.5,51.4C87.5,51.4,87.5,51.4,87.5,51.4l-31.5,0c-1.5,0-2.6-1.2-2.6-2.6v-5.1c0.5-10,7.5-20.3,18.4-20.3
			c4.5,0,8.9,1.9,12.3,5.3c3.9,3.9,6.1,9.4,6.1,15.1v5.1C90.2,50.2,89,51.4,87.5,51.4C87.5,51.4,87.5,51.4,87.5,51.4z M71.8,25.3
			c-9.7,0-16,9.3-16.4,18.4l0,5.1c0,0.4,0.3,0.6,0.6,0.6h31.5c0,0,0,0,0,0c0.3,0,0.6-0.3,0.6-0.6v-5.1c0-5-2-10.1-5.5-13.6
			C79.7,27,75.8,25.3,71.8,25.3z"/>
		<path class="st1" d="M95.6,57.7H0c-0.6,0-1-0.4-1-1s0.4-1,1-1h95.6c0.6,0,1,0.4,1,1S96.1,57.7,95.6,57.7z"/>
	</g>
</g>
</svg>
