<svg xmlns="http://www.w3.org/2000/svg" width="220" height="206" viewBox="0 0 220 206">
  <g id="features_sq-6" transform="translate(-11540 -1078)">
    <g id="features_sq-6-2" data-name="features_sq-6" transform="translate(10742 -312)">
      <path id="パス_5990" data-name="パス 5990" d="M0,0H145V145H0Z" transform="translate(836 1390)" fill="#fff"/>
      <g id="features-07" transform="translate(877 1454)">
        <path id="パス_27" data-name="パス 27" d="M84.289,135.273a1,1,0,0,1-.405-.086A65.3,65.3,0,0,1,65.17,122.951c-4.947-4.762-8.312-9.976-9.73-15.078a19.445,19.445,0,0,1-.578-8.121,17.8,17.8,0,0,1,3.093-7.631,15.25,15.25,0,0,1,12.391-6.492,19.475,19.475,0,0,1,8.3,1.637,17.161,17.161,0,0,1,5.648,3.9,17.161,17.161,0,0,1,5.648-3.9,19.475,19.475,0,0,1,8.3-1.637,15.25,15.25,0,0,1,12.391,6.492,17.6,17.6,0,0,1,3.288,10.47,23.3,23.3,0,0,1-3.151,11.007,1,1,0,0,1-1.751-.966,21.334,21.334,0,0,0,2.9-10.061,15.642,15.642,0,0,0-2.926-9.3,12.875,12.875,0,0,0-4.869-4.215,14.2,14.2,0,0,0-5.941-1.426,17.461,17.461,0,0,0-7.438,1.47,14.648,14.648,0,0,0-5.664,4.217,1,1,0,0,1-1.57,0A14.648,14.648,0,0,0,77.84,89.1a17.463,17.463,0,0,0-7.438-1.47,14.2,14.2,0,0,0-5.941,1.426,12.875,12.875,0,0,0-4.869,4.215,15.822,15.822,0,0,0-2.753,6.779,17.461,17.461,0,0,0,.527,7.289c1.323,4.758,4.5,9.658,9.19,14.173a63.05,63.05,0,0,0,17.732,11.668,62.862,62.862,0,0,0,17.9-11.826,1,1,0,0,1,1.394,1.434,65.118,65.118,0,0,1-18.884,12.4A1,1,0,0,1,84.289,135.273Z" transform="translate(-55.666 -86.622)"/>
        <path id="パス_28" data-name="パス 28" d="M261.4,175.047a1,1,0,0,1-.934-.641l-3.741-9.727a1,1,0,0,1,1.867-.718l3.382,8.794,8.794-3.38a1,1,0,1,1,.718,1.867l-9.727,3.739A1,1,0,0,1,261.4,175.047Z" transform="translate(-208.367 -145.359)"/>
      </g>
      <path id="パス_5982" data-name="パス 5982" d="M-.74-7.14A13.878,13.878,0,0,1-1.23-3.2,4.92,4.92,0,0,1-2.82-.68,4.538,4.538,0,0,1-5.74.2,4.12,4.12,0,0,1-9.52-1.74a10.26,10.26,0,0,1-1.2-5.4,14.259,14.259,0,0,1,.48-3.95,4.868,4.868,0,0,1,1.58-2.53,4.538,4.538,0,0,1,2.92-.88,4.149,4.149,0,0,1,3.78,1.94A10.168,10.168,0,0,1-.74-7.14Zm-6.98,0A12.069,12.069,0,0,0-7.3-3.47,1.572,1.572,0,0,0-5.74-2.24,1.59,1.59,0,0,0-4.18-3.46a11.538,11.538,0,0,0,.44-3.68,11.65,11.65,0,0,0-.44-3.68,1.6,1.6,0,0,0-1.56-1.24A1.574,1.574,0,0,0-7.3-10.82,12.172,12.172,0,0,0-7.72-7.14ZM.7-6.06A16.492,16.492,0,0,1,.88-8.49a9.438,9.438,0,0,1,.63-2.28,6.061,6.061,0,0,1,1.26-1.9,5.562,5.562,0,0,1,2.06-1.3,8.637,8.637,0,0,1,3.03-.47q.42,0,.98.03a6.3,6.3,0,0,1,.94.11v2.42q-.38-.08-.83-.14a6.728,6.728,0,0,0-.89-.06,5.553,5.553,0,0,0-2.75.56A3.083,3.083,0,0,0,3.94-9.95a7.2,7.2,0,0,0-.46,2.33H3.6A3.407,3.407,0,0,1,4.75-8.8,3.565,3.565,0,0,1,6.7-9.28,3.877,3.877,0,0,1,9.68-8.1a4.715,4.715,0,0,1,1.1,3.34A4.941,4.941,0,0,1,9.47-1.12,4.776,4.776,0,0,1,5.92.2,5.252,5.252,0,0,1,3.28-.47,4.729,4.729,0,0,1,1.4-2.53,7.83,7.83,0,0,1,.7-6.06ZM5.86-2.22A1.867,1.867,0,0,0,7.3-2.83a2.725,2.725,0,0,0,.56-1.89,2.555,2.555,0,0,0-.48-1.64,1.757,1.757,0,0,0-1.46-.6,2.2,2.2,0,0,0-1.17.3,2.305,2.305,0,0,0-.77.75,1.738,1.738,0,0,0-.28.93,3.676,3.676,0,0,0,.24,1.3,2.471,2.471,0,0,0,.73,1.05A1.793,1.793,0,0,0,5.86-2.22Z" transform="translate(908 1427)" fill="#9fd4d5"/>
    </g>
    <path id="パス_5998" data-name="パス 5998" d="M-56.117-10.778c.119,0,.2.017.238.017.068,0,.187.017.391.034a26.805,26.805,0,0,0,3.111.2,18.122,18.122,0,0,0,2.55-.136,3.076,3.076,0,0,1-.374.2c-.221.136-.272.17-.442.272-.425.238-.612.357-1.683,1.037l1.479,1.173a30.785,30.785,0,0,1,4.539-2.8l-.068-1.921a21.083,21.083,0,0,1-4.488.323,22.3,22.3,0,0,1-5.1-.425Zm1.258,3.842c-1.53,1.275-2.193,2.4-2.193,3.706A2.935,2.935,0,0,0-54.876-.391a12.16,12.16,0,0,0,4.25.561,27.433,27.433,0,0,0,4.59-.391,7.137,7.137,0,0,1,.748-.068l-.187-2.329a17.507,17.507,0,0,1-5.338.731c-2.873,0-4.114-.476-4.114-1.581,0-.731.476-1.445,1.547-2.346Zm11.679-.7a9.831,9.831,0,0,0-1.768-2.4l-1.139.595A12.525,12.525,0,0,1-44.353-6.97Zm-5-.8A11.474,11.474,0,0,1-46.393-5.9l1.19-.629a11.017,11.017,0,0,0-1.785-2.5Zm15.215-.986H-35.6a13.987,13.987,0,0,1-1.87-.1v1.938a15.1,15.1,0,0,1,1.87-.1h2.635v2.193h-2.346a9.573,9.573,0,0,1-1.343-.068A12.994,12.994,0,0,1-36.584-4.1V-.391c0,.663-.034,1.309-.068,1.768h1.87V.527h5.695v.85h1.921a16.727,16.727,0,0,1-.085-1.751V-4.029a12.731,12.731,0,0,1,.068-1.53,8.974,8.974,0,0,1-1.343.068H-31.11V-7.684h2.975a13.915,13.915,0,0,1,1.887.1V-9.52a14.019,14.019,0,0,1-1.9.1H-31.11v-2.244c1.207-.187,2.72-.493,3.553-.714.544-.136.544-.136.833-.221l-1.241-1.7c-1.581.782-5.457,1.428-9.146,1.5a5.185,5.185,0,0,1,.646,1.683c1.462-.085,1.8-.119,3.5-.306Zm-1.819,5.593h5.695v2.618h-5.695ZM-41.4-12.886a19.449,19.449,0,0,1,3.06,2.38l1.1-1.462a21.613,21.613,0,0,0-3.009-2.227Zm-.544,4.369A17.8,17.8,0,0,1-38.76-6.358l1.02-1.547A20.063,20.063,0,0,0-40.9-9.894ZM-39.185-5.2A18.478,18.478,0,0,1-41.259-.935a3.79,3.79,0,0,1-.612.748l1.649,1.309a33.975,33.975,0,0,0,2.516-5.253Zm21.454,1.258v2.8a14,14,0,0,1-.1,2.006h2.006a14.928,14.928,0,0,1-.085-2.023V-3.944h4.08V-.969c0,.357-.153.425-.85.425-.544,0-1.292-.051-2.142-.136a6.876,6.876,0,0,1,.476,1.768c.51.034,1.377.068,1.9.068C-10.506,1.156-10,.8-10-.612V-11.781c0-.918.017-1.343.068-1.921a18.9,18.9,0,0,1-1.955.068H-21.42c-.918,0-1.36-.017-1.955-.068a22.964,22.964,0,0,1,.085,2.465c0,2.006-.068,4.42-.153,5.848a17.2,17.2,0,0,1-.34,2.6A7.775,7.775,0,0,1-25.024.085a10.227,10.227,0,0,1,1.649,1.343,11.412,11.412,0,0,0,1.734-5.372Zm0-1.683h-3.791c0-.34,0-.459.017-1.258,0-.238.017-.578.017-1.071h3.757Zm1.819,0V-7.956h4.08v2.329Zm-1.819-3.995h-3.723l.017-.476v-1.751h3.706Zm1.819,0v-2.227h4.08v2.227Zm9.231-2.873a8.123,8.123,0,0,1,.068,1.088c.068,4.709.374,7.174,1.071,8.874C-4.862-.9-3.944-.068-2.8-.068-1.36-.068-.374-1.445.51-4.76a8.392,8.392,0,0,1-1.7-1.547,12.533,12.533,0,0,1-.9,3.077c-.2.476-.442.731-.7.731-.544,0-1.088-1.088-1.377-2.856a31.813,31.813,0,0,1-.323-4.556,19.763,19.763,0,0,1,.136-2.584ZM1.9-10.88A14.839,14.839,0,0,1,4.318-6.7,17.234,17.234,0,0,1,5.406-1.785l2.108-.8A16.949,16.949,0,0,0,3.689-11.73Zm8.177,1.564a2.538,2.538,0,0,1,.323-.017c.136,0,.374,0,.68.017.289.017.459.017.544.017h.986a1.439,1.439,0,0,0,.221-.017A36.321,36.321,0,0,1,9.792-.17l2.142.833a57.636,57.636,0,0,0,1.9-5.627c.442-1.547.867-3.349,1.054-4.4a23.175,23.175,0,0,0,2.788-.357c.408-.068.408-.068.544-.085l-.085-1.955a14.109,14.109,0,0,1-2.907.51c.068-.391.085-.493.17-.969a9.66,9.66,0,0,1,.323-1.632l-2.244-.2a2.307,2.307,0,0,1,.017.306,20.634,20.634,0,0,1-.323,2.6c-.391.017-.578.017-.782.017a13.526,13.526,0,0,1-2.278-.153Zm13.481.374c-1.071-.017-1.224-.017-1.683-.017a21.816,21.816,0,0,0-5.066.544l.153,1.87a18.347,18.347,0,0,1,4.488-.493,17.7,17.7,0,0,1,2.142.119Zm-6.7,3.57a4.794,4.794,0,0,0-1.258,2.941A2.456,2.456,0,0,0,16.813-.34,6.9,6.9,0,0,0,20.23.34,19.783,19.783,0,0,0,23.392.068c.391-.068.527-.085.833-.119l-.153-2.091a13.01,13.01,0,0,1-3.859.629c-1.7,0-2.55-.442-2.55-1.309a2.821,2.821,0,0,1,.884-1.87ZM26.945-9.163a2.538,2.538,0,0,1,.323-.017c.136,0,.442,0,.68.017h1.207l.374.017h.17A36.659,36.659,0,0,1,26.656-.034L28.8.8A56.539,56.539,0,0,0,31.756-9.214a23.106,23.106,0,0,0,2.788-.357l.391-.068a.747.747,0,0,0,.153-.017L35-11.611a15.5,15.5,0,0,1-2.907.51c.051-.306.085-.442.1-.527.051-.306.085-.544.119-.748a11.519,11.519,0,0,1,.272-1.326l-2.244-.2a2.307,2.307,0,0,1,.017.306,20.634,20.634,0,0,1-.323,2.6c-.391.017-.578.017-.782.017a13.526,13.526,0,0,1-2.278-.153Zm9.52-3.689a11.474,11.474,0,0,1,1.785,2.533l1.19-.629a11.017,11.017,0,0,0-1.785-2.5Zm3.961,4.046c-.782-.017-1.173-.017-1.683-.017a21.727,21.727,0,0,0-5.066.544l.153,1.887a17.577,17.577,0,0,1,4.488-.51,17.7,17.7,0,0,1,2.142.119Zm-6.7,3.57A4.869,4.869,0,0,0,32.47-2.278,2.456,2.456,0,0,0,33.677-.187a6.9,6.9,0,0,0,3.417.68A18.218,18.218,0,0,0,40.256.2c.442-.068.527-.085.833-.119l-.153-2.074a13.01,13.01,0,0,1-3.859.629c-1.7,0-2.55-.442-2.55-1.309,0-.612.2-1.02.884-1.887Zm7.735-6.817a9.831,9.831,0,0,0-1.768-2.4l-1.139.6A12.525,12.525,0,0,1,40.29-11.39Zm3.4,2.261c.357-.017.442-.034,1.156-.034a40.985,40.985,0,0,0,4.556-.238c.136.306.187.408.357.765.136.323.2.425.306.629a33.445,33.445,0,0,1-4.811.323,10.075,10.075,0,0,1-1.751-.068l.068,1.853c.289-.034.408-.034.7-.051a48.8,48.8,0,0,0,6.579-.459,10.235,10.235,0,0,0,1.309,1.9,11.715,11.715,0,0,0-2.941-.357,7.578,7.578,0,0,0-3.961.85A2.839,2.839,0,0,0,45-2.312,2.738,2.738,0,0,0,46.308.017,7.773,7.773,0,0,0,50.456.85,16.367,16.367,0,0,0,54.808.272a8.408,8.408,0,0,1,1.1-.255l-.306-2.091A13.2,13.2,0,0,1,50.371-.969a6.626,6.626,0,0,1-2.431-.374,1.121,1.121,0,0,1-.731-.986,1.226,1.226,0,0,1,.731-1.037A6.558,6.558,0,0,1,50.8-3.842a9.142,9.142,0,0,1,3.91.7l1.5-1.071a17,17,0,0,1-2.278-3.111c.2-.051.2-.051.629-.136.408-.085.969-.2,1.666-.374.391-.1.748-.17,1.071-.221l-.17-1.853a8.586,8.586,0,0,1-1.615.493c-.1.017-.884.187-2.346.493a15.306,15.306,0,0,1-.663-1.394c.527-.068,2.414-.442,3.553-.714l.578-.119-.17-1.8a28.561,28.561,0,0,1-4.59,1.02,9.966,9.966,0,0,1-.7-2.057l-2.125.289c.017.034.255.561.68,1.547.136.306.136.306.187.442a30.213,30.213,0,0,1-3.5.187,14.262,14.262,0,0,1-1.632-.068ZM-53.584,16.817c-.153-.561-.221-.782-.357-1.207a11.232,11.232,0,0,1-.595-2.006l-2.108.595a18.589,18.589,0,0,1,1.156,3.162c-.816.255-.952.289-1.649.527a9.694,9.694,0,0,1-1.547.442l.663,1.989a19.67,19.67,0,0,1,2.193-.867,7.953,7.953,0,0,0,.85-.306A63.98,63.98,0,0,1-52.9,28.19l2.244-.51a4.543,4.543,0,0,1-.255-.816c-1.02-4.25-1.1-4.573-2.159-8.262a17.129,17.129,0,0,1,5.1-1.054c1.428,0,2.261.629,2.261,1.7a1.758,1.758,0,0,1-.7,1.445,3.409,3.409,0,0,1-1.921.561,6.424,6.424,0,0,1-2.72-.663,7.493,7.493,0,0,1,.306,2.091,8.313,8.313,0,0,0,2.635.476,4.779,4.779,0,0,0,3.145-1A3.857,3.857,0,0,0-43.588,19.2c0-2.091-1.581-3.468-3.978-3.468-.34,0-.578.017-.986.051a18.956,18.956,0,0,1,.085-2.72h-2.142a9.979,9.979,0,0,1,.1,2.04c.017.595.017.595.017.935-.68.136-.969.2-1.445.323Zm22.049,1.139V16.851c1.343-.034,1.649-.034,2.057-.034,1.411,0,2.227.034,2.856.085l-.017-1.955c-.629.068-1.955.1-4.913.119a13.365,13.365,0,0,1,.085-2.023l-2.142.017a9.224,9.224,0,0,1,.1,2.057c-.884.034-.884.034-1.445.051-1.394.034-1.564.034-2.669.068-2.193.085-2.465.085-2.89.085a7.4,7.4,0,0,1-.833-.034l.068,2.023c.459-.068.459-.068,3.026-.255.748-.051,2.346-.1,4.777-.17,0,.459,0,1.411.017,1.445a.7.7,0,0,0,.017.2,2.841,2.841,0,0,0-1.768-.51,3.129,3.129,0,0,0-3.383,3.094,2.656,2.656,0,0,0,1.173,2.3,3.133,3.133,0,0,0,1.972.612,2.8,2.8,0,0,0,2.5-1.207A3.578,3.578,0,0,1-34.918,25.3a8.023,8.023,0,0,1-2.89.986A5.579,5.579,0,0,1-36.6,28.207a11.884,11.884,0,0,0,3.077-1.394,5.454,5.454,0,0,0,2.533-4.59,5.173,5.173,0,0,0-.544-2.4c0-.2-.017-.34-.017-.408Zm-1.955,2.8a1.549,1.549,0,0,1-1.666,1.53A1.342,1.342,0,0,1-36.6,20.948a1.489,1.489,0,0,1,1.581-1.36C-34.085,19.588-33.49,20.047-33.49,20.761Zm9.809-6.256a8.123,8.123,0,0,1,.068,1.088c.068,4.709.374,7.174,1.071,8.874.68,1.632,1.6,2.465,2.737,2.465,1.445,0,2.431-1.377,3.315-4.692a8.392,8.392,0,0,1-1.7-1.547,12.533,12.533,0,0,1-.9,3.077c-.2.476-.442.731-.7.731-.544,0-1.088-1.088-1.377-2.856a31.813,31.813,0,0,1-.323-4.556,19.763,19.763,0,0,1,.136-2.584ZM-15.1,16.12A14.839,14.839,0,0,1-12.682,20.3a17.234,17.234,0,0,1,1.088,4.913l2.108-.8a16.949,16.949,0,0,0-3.825-9.146Zm14.28,9.469c.374-.119.867-.255,1.615-.425l3.6-.816v2.057a12.326,12.326,0,0,1-.1,2.023H6.358a12.466,12.466,0,0,1-.1-2.006V23.94l.17-.034A12.418,12.418,0,0,1,8.058,23.6L7.7,21.662a10.368,10.368,0,0,1-1.445.425V14.709a12.016,12.016,0,0,1,.1-1.955H4.3a11.634,11.634,0,0,1,.1,1.972V22.5l-3.978.884a11.385,11.385,0,0,1-1.564.238,9.913,9.913,0,0,1,.476-.952,9.028,9.028,0,0,1-2.193-2.6h.612A9.887,9.887,0,0,1-.9,20.132V18.364a8.609,8.609,0,0,1-1.309.068h-.8V14.386a10.149,10.149,0,0,1,.085-1.649H-4.862A10.519,10.519,0,0,1-4.777,14.4v4.029H-5.916a8.442,8.442,0,0,1-1.53-.085v1.8a8.8,8.8,0,0,1,1.53-.085h.884a14.334,14.334,0,0,1-.9,1.921A11.178,11.178,0,0,1-7.769,24.5,5.121,5.121,0,0,1-6.9,26.252a11.743,11.743,0,0,0,2.21-3.825c-.034.561-.068,1.36-.068,2.04V26.66a11.008,11.008,0,0,1-.119,1.8h1.972a10.055,10.055,0,0,1-.1-1.768V23.889c0-.544-.017-.782-.1-1.938a12.576,12.576,0,0,0,1.717,2.4c.085-.272.1-.357.187-.578ZM-7.565,14.318a13.717,13.717,0,0,1,1.054,3.638l1.428-.612A20.676,20.676,0,0,0-6.12,13.672Zm5.848-.68A14.142,14.142,0,0,1-2.89,17.31l1.241.646a20.572,20.572,0,0,0,1.36-3.689ZM-.1,15.185A14.361,14.361,0,0,1,2.907,17.8l1.156-1.428a16.513,16.513,0,0,0-2.975-2.5Zm-.527,4.2A14.87,14.87,0,0,1,2.363,22l1.156-1.377a15.512,15.512,0,0,0-2.958-2.5Zm16.575-.408v1.649H11.934a12.547,12.547,0,0,1-1.853-.1V22.41a13.967,13.967,0,0,1,1.836-.1h4.029v3.808H11.679a18.369,18.369,0,0,1-2.108-.1v1.955a16.761,16.761,0,0,1,2.108-.119H22.423a15.681,15.681,0,0,1,2.04.119V26.014a15.926,15.926,0,0,1-2.006.1H17.833V22.308h4.284a13.469,13.469,0,0,1,1.87.1V20.523a12.081,12.081,0,0,1-1.853.1h-4.3V18.976h1.734a11.619,11.619,0,0,1,1.666.085v-.867a17.333,17.333,0,0,0,2.975,1.5,8.677,8.677,0,0,1,.918-1.87,14.081,14.081,0,0,1-4.5-2.3A10.055,10.055,0,0,1,18,12.907H15.9c-1.224,2.04-3.774,3.876-6.936,4.981a7.553,7.553,0,0,1,.986,1.751,18.346,18.346,0,0,0,2.771-1.394v.816a11.911,11.911,0,0,1,1.666-.085Zm-1.972-1.6a11.993,11.993,0,0,0,2.975-2.856,13.412,13.412,0,0,0,3.06,2.856c-.255.017-.255.017-.408.017l-5.27-.017Zm-2.482,5.763a12.38,12.38,0,0,1,1.343,2.822l1.7-.68a19.7,19.7,0,0,0-1.36-2.822Zm9.163-.663A14.2,14.2,0,0,1,19.312,25.4l1.6.595c.578-.986.646-1.1.7-1.207.629-1.241.629-1.241.85-1.632Zm19.431-2.7a5.985,5.985,0,0,1-1.19.068H33.881a5.233,5.233,0,0,1-1.088-.085v1.8a4.917,4.917,0,0,1,.765-.068,9.706,9.706,0,0,0,2.193,3.519A11.93,11.93,0,0,1,32.13,26.66V24.11a8.07,8.07,0,0,1,.051-1.241,6.035,6.035,0,0,1-1.139.051H28.118c-.527,0-.884-.017-1.309-.051a7.867,7.867,0,0,1,.085,1.343v2.5a12.975,12.975,0,0,1-.1,1.683h1.734v-.816h1.989v.578H32.2a8.125,8.125,0,0,1-.068-1.207A5.921,5.921,0,0,1,33,28.394a13.748,13.748,0,0,0,4.08-2.176,13.171,13.171,0,0,0,4.25,2.125,9.24,9.24,0,0,1,.85-1.819,11.9,11.9,0,0,1-3.791-1.547,12.542,12.542,0,0,0,2.295-3.587,5.063,5.063,0,0,1,.34-.7Zm-1.377,1.7a8.6,8.6,0,0,1-1.683,2.448,7.069,7.069,0,0,1-1.7-2.448ZM28.526,24.4h1.989v1.683H28.526ZM26.86,14.743a11.29,11.29,0,0,1,1.428-.068h2.448a11.64,11.64,0,0,1,1.428.068V13.094a8.208,8.208,0,0,1-1.428.085H28.288a8.208,8.208,0,0,1-1.428-.085Zm-.544,2.516a10.274,10.274,0,0,1,1.377-.068H31.28a7.684,7.684,0,0,1,1.292.068V15.508a9.057,9.057,0,0,1-1.377.068h-3.5a7.579,7.579,0,0,1-1.377-.085Zm.578,2.4a9.558,9.558,0,0,1,1.122-.051h3.026a9.729,9.729,0,0,1,1.088.051V18.075a8.362,8.362,0,0,1-1.088.051H28.016a9.36,9.36,0,0,1-1.122-.051Zm0,2.4A9.638,9.638,0,0,1,28,22h3.009a7.089,7.089,0,0,1,1.122.051V20.472a8.362,8.362,0,0,1-1.088.051H28.016a9.36,9.36,0,0,1-1.122-.051ZM37.536,14.9v2.992c0,.9.357,1.1,2.006,1.1,2.159,0,2.346-.2,2.55-2.992a6.693,6.693,0,0,1-1.53-.612c-.1,2.04-.1,2.04-.782,2.04-.408,0-.527-.068-.527-.289V14.624a10.907,10.907,0,0,1,.068-1.445,11.937,11.937,0,0,1-1.445.068h-2.6a10.9,10.9,0,0,1-1.343-.068,5.863,5.863,0,0,1,.085,1.139c0,2.227-.425,3.264-1.768,4.25a8.927,8.927,0,0,1,1.479,1.173,4.958,4.958,0,0,0,1.258-1.615,6.948,6.948,0,0,0,.7-3.23ZM50.269,25.589a4.926,4.926,0,0,1-2.584-2.363c.255-.8.357-1.19.442-1.53.153-.7.153-.714.238-1l-1.887-.357a10.538,10.538,0,0,1-.34,1.836,10.066,10.066,0,0,1-2.924,4.811,4.627,4.627,0,0,1,1.462,1.394,12.043,12.043,0,0,0,2.329-3.332c1.394,2.057,3.621,2.924,7.6,2.924,1.343,0,2.227-.017,3.621-.051A6.612,6.612,0,0,1,58.7,25.98c-1.734.153-2.89.2-3.876.2a19.873,19.873,0,0,1-2.771-.17V23.09h3.213a11.476,11.476,0,0,1,1.666.085V21.356a8.72,8.72,0,0,1-1.666.1H52.054V19.282h2.227a12.187,12.187,0,0,1,1.751.085v-1.8a11.9,11.9,0,0,1-1.751.085H47.77a11.393,11.393,0,0,1-1.717-.085v1.8a12.1,12.1,0,0,1,1.717-.085h2.5ZM49.98,14.454H45.543c-.68,0-1.258-.017-1.87-.068.034.391.068.816.068,1.258v1.309a7.513,7.513,0,0,1-.085,1.343h1.887V16.171H56.525V18.3h1.836a10.977,10.977,0,0,1-.068-1.326V15.644a9.354,9.354,0,0,1,.068-1.258c-.629.051-1.207.068-1.887.068h-4.59v-.646a5.162,5.162,0,0,1,.085-1.071H49.878a5.5,5.5,0,0,1,.1,1.088Z" transform="translate(11650 1255)"/>
    <rect id="長方形_220" data-name="長方形 220" width="220" height="206" transform="translate(11540 1078)" fill="none"/>
  </g>
</svg>
