<svg xmlns="http://www.w3.org/2000/svg" width="376" height="107" viewBox="0 0 376 107">
  <g id="グループ_946" data-name="グループ 946" transform="translate(-584 -1773)">
    <rect id="長方形_167" data-name="長方形 167" width="376" height="107" rx="10" transform="translate(584 1773)" fill="#fff"/>
    <text id="ご活用いただき_やすい料金設定" data-name="ご活用いただき
やすい料金設定" transform="translate(837 1821)" fill="#5a534a" font-size="17" font-family="HiraginoSans-W6, Hiragino Sans"><tspan x="-59.5" y="0">ご活用いただき</tspan><tspan y="0" font-family="NotoSans-Bold, Noto Sans" font-weight="700"></tspan><tspan x="-59.5" y="27">やすい料金設定</tspan></text>
    <g id="features-07" transform="translate(643 1803)">
      <path id="パス_27" data-name="パス 27" d="M109.885,113.116c3.868-7.011,4.229-14.273-.081-20.42-6.484-9.249-20.1-6.86-25.516,0-5.413-6.86-19.032-9.249-25.516,0-9.278,13.236,3.092,31.643,25.516,41.578a63.878,63.878,0,0,0,18.593-12.2" transform="translate(-55.666 -86.622)" fill="none" stroke="#767777" stroke-linecap="round" stroke-linejoin="round" stroke-width="2"/>
      <path id="パス_28" data-name="パス 28" d="M271.128,170.309l-9.727,3.739-3.741-9.727" transform="translate(-208.367 -145.359)" fill="none" stroke="#767777" stroke-linecap="round" stroke-linejoin="round" stroke-width="2"/>
    </g>
  </g>
</svg>
