<svg xmlns="http://www.w3.org/2000/svg" width="180" height="208" viewBox="0 0 180 208">
  <g id="features_sq-1_sp" transform="translate(-10440 -1078)">
    <g id="features_sq-1" transform="translate(10243 -110)">
      <path id="パス_5986" data-name="パス 5986" d="M0,0H145V145H0Z" transform="translate(214 1188)" fill="#fff"/>
      <g id="features-02" transform="translate(242 1242)">
        <path id="パス_12" data-name="パス 12" d="M263.478,196.051a1,1,0,0,1-.768-1.64,11.617,11.617,0,1,0-19.472-2.54,1,1,0,0,1-1.814.843,13.62,13.62,0,1,1,22.823,2.978A1,1,0,0,1,263.478,196.051Z" transform="translate(-178.801 -142.225)"/>
        <path id="楕円形_529" data-name="楕円形 529" d="M5.427-1A6.427,6.427,0,1,1-1,5.427,6.434,6.434,0,0,1,5.427-1Zm0,10.854A4.427,4.427,0,1,0,1,5.427,4.432,4.432,0,0,0,5.427,9.854Z" transform="translate(49.34 28.923) rotate(-45)"/>
        <path id="パス_13" data-name="パス 13" d="M279.868,90.161a7.919,7.919,0,1,1-15.838,0c0-5.659,7.919-14.331,7.919-14.331S279.868,84.505,279.868,90.161Z" transform="translate(-194.212 -75.83)" fill="#ef8200"/>
        <path id="パス_13_-_アウトライン" data-name="パス 13 - アウトライン" d="M271.949,99.08a8.929,8.929,0,0,1-8.919-8.919c0-2.553,1.391-5.869,4.136-9.855a52.921,52.921,0,0,1,4.045-5.151,1,1,0,0,1,.738-.326h0a1,1,0,0,1,.738.326,52.972,52.972,0,0,1,4.045,5.152c2.744,3.986,4.136,7.3,4.136,9.853A8.929,8.929,0,0,1,271.949,99.08Zm0-21.727c-.745.88-1.953,2.368-3.149,4.107-2.466,3.586-3.77,6.595-3.77,8.7a6.919,6.919,0,1,0,13.838,0c0-2.1-1.3-5.113-3.77-8.7C273.9,79.722,272.694,78.233,271.949,77.353Z" transform="translate(-194.212 -75.83)" fill="#ef8200"/>
        <path id="パス_14" data-name="パス 14" d="M102.825,232.072c-8.407,0-14.64-2.4-20.141-4.521a46.7,46.7,0,0,0-9.169-2.859,51.134,51.134,0,0,0-13.64-.118c-4.414.547-7.874,1.6-9.256,2.8a1,1,0,0,1-1.317-1.5,11.635,11.635,0,0,1,4.211-2.054,37.291,37.291,0,0,1,6.117-1.231,53.214,53.214,0,0,1,14.2.127,48.112,48.112,0,0,1,9.576,2.968c5.338,2.057,11.387,4.388,19.423,4.388h.082c6.178-.013,14.123-2.929,19.7-5.373a103.524,103.524,0,0,0,12.161-6.234,2.4,2.4,0,0,0,.9-3.126,2.478,2.478,0,0,0-1.334-1.209,3.713,3.713,0,0,0-2.51.056,103.508,103.508,0,0,1-15.324,3.678c-8.6,1.374-15.531,1.253-20.595-.36a1,1,0,0,1,.487-1.936c11.507,2.145,15.905.972,17.569-.389a3.023,3.023,0,0,0,1.13-2.436c.006-.421-.065-.825-.992-1.143a17.633,17.633,0,0,0-3.867-.53,27.946,27.946,0,0,1-6.2-.934,30.223,30.223,0,0,1-5.9-2.78,36.021,36.021,0,0,0-12.244-4.733,26.341,26.341,0,0,0-10.893.457,56.667,56.667,0,0,0-11.217,4.163,1,1,0,1,1-.856-1.807,58.57,58.57,0,0,1,11.614-4.3,28.3,28.3,0,0,1,11.708-.478,37.732,37.732,0,0,1,12.867,4.957,28.315,28.315,0,0,0,5.51,2.612,26.422,26.422,0,0,0,5.759.851,18.373,18.373,0,0,1,4.371.633,3.674,3.674,0,0,1,1.67,1.061,2.934,2.934,0,0,1,.673,2,5.053,5.053,0,0,1-1.059,3.141l.153-.024a103.415,103.415,0,0,0,15.007-3.6c3.081-1.028,5.368.345,6.269,2.161a4.4,4.4,0,0,1,.34,2.989,4.52,4.52,0,0,1-1.906,2.678,103.519,103.519,0,0,1-12.485,6.413,86.133,86.133,0,0,1-10.293,3.816,37.68,37.68,0,0,1-10.205,1.726Z" transform="translate(-49.96 -160.347)"/>
        <path id="パス_15" data-name="パス 15" d="M288.23,200.857a1,1,0,0,1-1-1,5.279,5.279,0,0,0-1.367-3.143,4,4,0,0,0-2.773-1.6,1,1,0,0,1,0-2,5.89,5.89,0,0,1,4.295,2.306,7.229,7.229,0,0,1,1.845,4.441A1,1,0,0,1,288.23,200.857Z" transform="translate(-207.055 -155.533)" fill="#ef8200"/>
      </g>
      <path id="パス_5978" data-name="パス 5978" d="M-.74-7.14A13.878,13.878,0,0,1-1.23-3.2,4.92,4.92,0,0,1-2.82-.68,4.538,4.538,0,0,1-5.74.2,4.12,4.12,0,0,1-9.52-1.74a10.26,10.26,0,0,1-1.2-5.4,14.259,14.259,0,0,1,.48-3.95,4.868,4.868,0,0,1,1.58-2.53,4.538,4.538,0,0,1,2.92-.88,4.149,4.149,0,0,1,3.78,1.94A10.168,10.168,0,0,1-.74-7.14Zm-6.98,0A12.069,12.069,0,0,0-7.3-3.47,1.572,1.572,0,0,0-5.74-2.24,1.59,1.59,0,0,0-4.18-3.46a11.538,11.538,0,0,0,.44-3.68,11.65,11.65,0,0,0-.44-3.68,1.6,1.6,0,0,0-1.56-1.24A1.574,1.574,0,0,0-7.3-10.82,12.172,12.172,0,0,0-7.72-7.14ZM8.26,0H5.24V-8.26q0-.5.02-1.35t.06-1.49q-.1.12-.43.43t-.61.55L2.64-8.8,1.18-10.62l4.6-3.66H8.26Z" transform="translate(286 1223)" fill="#9fd4d5"/>
    </g>
    <path id="パス_5993" data-name="パス 5993" d="M-45.254-6.494a13.639,13.639,0,0,1,1.87.1V-8.313a12.314,12.314,0,0,1-1.87.085h-6.46c.442-.935.442-.935.663-1.377l.34-.714-2.04-.306a10.921,10.921,0,0,1-1.02,2.4h-2.924a12.333,12.333,0,0,1-1.853-.085v1.921a13.031,13.031,0,0,1,1.853-.1h1.955a23.721,23.721,0,0,1-2.04,2.839,35.422,35.422,0,0,1,4.556,1.411A15.465,15.465,0,0,1-58.582-.425a8.391,8.391,0,0,1,.935,1.819c3.519-.68,5.542-1.462,7.361-2.839A33.672,33.672,0,0,1-45.05,1.343l1.411-1.564a44.74,44.74,0,0,0-5.219-2.5A10.344,10.344,0,0,0-46.7-6.494Zm-3.417,0a7.181,7.181,0,0,1-1.972,3.077c-1.207-.442-1.615-.561-3.3-1.054a22.367,22.367,0,0,0,1.309-2.023Zm-3.451-6.188h-4.3a15.85,15.85,0,0,1-1.955-.085,11.784,11.784,0,0,1,.085,1.309V-10.2a8.965,8.965,0,0,1-.085,1.258h1.87v-2.04h10.982v2.04h1.87a7.082,7.082,0,0,1-.085-1.258v-1.258a10.875,10.875,0,0,1,.068-1.309,16.019,16.019,0,0,1-1.955.085h-4.59v-.306a8.857,8.857,0,0,1,.085-1.275h-2.074a7.486,7.486,0,0,1,.085,1.292ZM-35.054-6.9v1.921h-2.5a14.206,14.206,0,0,1-1.887-.085v1.9a16.953,16.953,0,0,1,1.887-.085h2.5V-.952H-39.27a17.273,17.273,0,0,1-2.176-.1V.935A14.66,14.66,0,0,1-39.321.816h10.608a14.916,14.916,0,0,1,2.142.119V-1.054a17.914,17.914,0,0,1-2.159.1h-4.42V-3.247H-30.4a16.828,16.828,0,0,1,1.87.085v-1.9a15.952,15.952,0,0,1-1.87.085H-33.15V-6.9h2.4a16.577,16.577,0,0,1,1.8.085V-8.058c.765.442,1.258.714,2.023,1.071A8.035,8.035,0,0,1-25.84-8.942,15.4,15.4,0,0,1-30.005-11.1a12.4,12.4,0,0,1-3.026-3.009H-35.19a7.141,7.141,0,0,1-.918,1.224,15.228,15.228,0,0,1-1.87,1.785,16.49,16.49,0,0,1-4.114,2.244,10.715,10.715,0,0,1,1.122,1.8,15.128,15.128,0,0,0,1.853-.969v1.207A16.7,16.7,0,0,1-37.264-6.9ZM-37.4-8.619c-.255,0-.408,0-.748-.017a13.647,13.647,0,0,0,4.1-3.859,15.243,15.243,0,0,0,4.182,3.859c-.323.017-.442.017-.8.017Zm13.277-1.02a21.336,21.336,0,0,1,2.822-.34c3.3-.238,4.352-.34,5.729-.544a7.517,7.517,0,0,0-2.363,1.717A5.92,5.92,0,0,0-19.55-4.811a4.548,4.548,0,0,0,2.431,4.1A10.227,10.227,0,0,0-13.141.408c.323.051.357.051.578.1l.306-2.312c-.17.017-.323.017-.34.017a10.316,10.316,0,0,1-2.533-.442A2.854,2.854,0,0,1-17.391-5c0-1.717,1.275-3.417,3.434-4.539a7.6,7.6,0,0,1,3.366-.918,2.632,2.632,0,0,1,.357.017l-.119-2.159a9.159,9.159,0,0,1-1.751.136c-4.539.221-7.446.374-8.687.442-2.5.17-2.5.17-2.805.17-.085,0-.272,0-.646-.017Zm10.4,1.632a11.474,11.474,0,0,1,1.785,2.533l1.19-.629a11.017,11.017,0,0,0-1.785-2.5Zm5,.8a9.831,9.831,0,0,0-1.768-2.4l-1.139.6A12.525,12.525,0,0,1-9.894-6.545Zm6.12-3.451a8.165,8.165,0,0,1-1.326-.068v.884l-.969-.6a9.942,9.942,0,0,1-3.281,4.1A7.612,7.612,0,0,1-7.5-4.488,6.8,6.8,0,0,0-6.426-5.542C-6.46-4.5-6.46-4.5-6.46-3.944v3.23a15.446,15.446,0,0,1-.1,1.989h1.9A13.972,13.972,0,0,1-4.743-.663V-7.31a13.377,13.377,0,0,0,.765-1.139c.323-.544.323-.544.459-.782.374-.017.561-.017,1-.017H2.72a5.893,5.893,0,0,1,.8.034v1.309a4.162,4.162,0,0,1,.867-.068h.493V-.731c0,.272-.085.34-.425.34A10.775,10.775,0,0,1,2.873-.544a5.193,5.193,0,0,1,.34,1.768c.646.034.884.034,1.156.034a3.021,3.021,0,0,0,1.8-.323C6.528.663,6.63.357,6.63-.51V-7.973A6.938,6.938,0,0,1,7.9-7.888V-9.707a6,6,0,0,1-1.275.085H4.386c-.255,0-.357,0-.578-.017v-1.088a4.913,4.913,0,0,1-.986.068v-1.326a11.446,11.446,0,0,1,.051-1.173c-.374.034-.731.051-1.36.051H.2c.068-.255.068-.272.119-.476.068-.306.1-.391.17-.629L-1.258-14.4c-.085.561-.1.663-.238,1.292h-.476a10,10,0,0,1-1.36-.068v1.513A10.41,10.41,0,0,1-2.04-11.73h.187a9.882,9.882,0,0,1-.357,1.071Zm2.074,0c.136-.357.2-.561.357-1.071H1.292v1.071Zm.17,5.321v.68H-2.21a15.273,15.273,0,0,1-1.581-.068V-3.2c.357-.034.561-.051.833-.068v.952A9.816,9.816,0,0,1-4.114-2.38V-.8A11.007,11.007,0,0,1-2.5-.884H-.357v.663a8.505,8.505,0,0,1-.1,1.564h1.9A9.933,9.933,0,0,1,1.343-.2v-.68H2.584A9.154,9.154,0,0,1,3.842-.8V-2.38a15.245,15.245,0,0,1-1.632.068H1.343v-.952h.578A12.288,12.288,0,0,1,3.485-3.2v-1.53a13.732,13.732,0,0,1-1.564.068H1.343v-.68h.425c.68,0,1.139.017,1.411.034A9.813,9.813,0,0,1,3.128-6.46V-7.48a10.219,10.219,0,0,1,.051-1.156,13.3,13.3,0,0,1-1.394.051h-4.1c-.442,0-.748-.017-1-.034a5.562,5.562,0,0,1,.051.884V-6.46A8.867,8.867,0,0,1-3.315-5.3c.493-.034.748-.034,1.428-.034ZM-1.428-3.264H-.357v.952H-1.428Zm-.119-4.148H1.428v.884H-1.547ZM-5.1-14.365A8.95,8.95,0,0,1-8.058-11.22,6.8,6.8,0,0,1-7.225-9.6a16.023,16.023,0,0,0,3.4-3.383,3.607,3.607,0,0,1,.289-.34Zm12.716.918a5.946,5.946,0,0,1-1.224.085H4.879a6.254,6.254,0,0,1-1.224-.085v1.8a3.785,3.785,0,0,1,.8-.068H6.392a6.468,6.468,0,0,1,1.224.085Zm8.619,4.2V-6.12H13.6a15.6,15.6,0,0,1-2.04-.1v1.87a17.831,17.831,0,0,1,2.057-.1h2.618v3.6H11.866A19.932,19.932,0,0,1,9.5-.969V.969A21.861,21.861,0,0,1,11.917.85h10.4a19.818,19.818,0,0,1,2.312.119V-.969A18.634,18.634,0,0,1,22.27-.85H18.19v-3.6h2.941a18.9,18.9,0,0,1,2.091.1v-1.87a17.645,17.645,0,0,1-2.091.1H18.19V-9.248h3.587c.816,0,1.513.034,2.244.1v-1.87c-.7.068-1.428.1-2.3.1H18.19v-1.309a15.851,15.851,0,0,1,.1-2.023H16.116a13.862,13.862,0,0,1,.119,2.04v1.292H13.464q.331-.892.459-1.275a4.072,4.072,0,0,1,.17-.561,2.687,2.687,0,0,0,.153-.442l-1.938-.476a9.226,9.226,0,0,1-.374,1.581A12.329,12.329,0,0,1,9.061-7.123a5.158,5.158,0,0,1,1.394,1.445,15.02,15.02,0,0,0,2.312-3.57Zm12-2.567h-.595a8.234,8.234,0,0,1-.9-.051,14.006,14.006,0,0,1,.068,1.734v8.84A17.437,17.437,0,0,1,26.724.9h1.853V-.6h2.414V.425H32.81a16.487,16.487,0,0,1-.068-1.683V-7.786a4.355,4.355,0,0,1,.731.85,13.141,13.141,0,0,0,2.176-3.2h3.944c-.051,4.675-.272,7.888-.629,8.942-.153.493-.408.629-1.139.629A14.029,14.029,0,0,1,35.649-.8a5.794,5.794,0,0,1,.476,1.938c.85.051,1.275.068,1.683.068,2.618,0,3.06-.646,3.383-4.947.068-.867.221-4.794.255-6.9a9.872,9.872,0,0,1,.068-1.343,9.966,9.966,0,0,1-1.445.068H36.448c.153-.391.425-1.173.493-1.428a4.756,4.756,0,0,1,.238-.663l-1.955-.323a12.776,12.776,0,0,1-2.482,5.355V-10.4c0-.867.017-.918.017-.952a4.838,4.838,0,0,1,.034-.51c-.136.017-.629.034-1.462.051H30.4a18.766,18.766,0,0,0,.867-2.21L29.308-14.3a12.276,12.276,0,0,1-.731,2.482Zm.323,1.649h2.431v3.009H28.56Zm0,4.658h2.431v3.281H28.56Zm9.724,1.581a22.13,22.13,0,0,0-2.363-4.216l-1.547.833a16.52,16.52,0,0,1,2.193,4.318Zm9.4-10.166a17.367,17.367,0,0,1-.51,2.958c-.374.017-.663.017-.867.017a11.8,11.8,0,0,1-2.295-.153v1.938l.9.017c.357.017.459.017.68.017.2,0,.306,0,1.071-.017a26.154,26.154,0,0,1-1.6,4.012,15.474,15.474,0,0,1-1.649,2.72L45.373-1.5c.1-.2.1-.2.323-.612.646-1.19.8-1.5,1.19-2.329a32.631,32.631,0,0,0,1.87-4.93c1.054-.085,2.091-.2,2.7-.306A3.315,3.315,0,0,1,52-9.758l-.051-1.955a14.581,14.581,0,0,1-2.72.476c.187-.748.272-1.088.357-1.5a8.51,8.51,0,0,1,.272-1.139Zm10.88,4.42a26.836,26.836,0,0,0-4.794-2.278L52.751-10.3a20.806,20.806,0,0,1,4.9,2.38ZM58.5-2.006a3.043,3.043,0,0,1-.255-.238,6.268,6.268,0,0,0-.6-.459,10.621,10.621,0,0,0-2.686-1.564A18.05,18.05,0,0,1,54.808-6.6a5.666,5.666,0,0,1,.2-1.717l-1.972-.1A9.017,9.017,0,0,0,52.9-6.7c0,.51.034,1.173.085,1.955A8.444,8.444,0,0,0,51.408-4.9c-2.159,0-3.672,1.207-3.672,2.924C47.736-.238,49.2.884,51.442.884a3.925,3.925,0,0,0,2.822-.952,2.717,2.717,0,0,0,.731-1.8c0-.068-.017-.187-.034-.34A10.282,10.282,0,0,1,57.562-.1Zm-5.44-.935s.034.408.034.578c0,.952-.561,1.428-1.717,1.428-1.054,0-1.666-.408-1.666-1.1,0-.714.714-1.173,1.819-1.173A4.285,4.285,0,0,1,53.057-2.941ZM-17.714,15.491a10.444,10.444,0,0,1-1.7.1H-21.9c.2-.731.306-1.105.357-1.326.2-.833.2-.833.306-1.258l-1.819-.374a15.615,15.615,0,0,1-1.921,5.984V17.157a5.843,5.843,0,0,1-1.02.051,15.748,15.748,0,0,0,2.04-3.111l-1.581-.748a9.79,9.79,0,0,1-1.173,2.295V14.335a5.529,5.529,0,0,1-1.02.068h-.595v-.459a5.946,5.946,0,0,1,.085-1.224h-1.887a8.033,8.033,0,0,1,.085,1.207V14.4h-.986a10.067,10.067,0,0,1-1.411-.085v1.615a9.647,9.647,0,0,1,1.377-.068h1.02v1.343h-1.428a10.339,10.339,0,0,1-1.6-.1v1.632a12.868,12.868,0,0,1,1.564-.085h1.955a17.849,17.849,0,0,1-3.91,2.38,4.269,4.269,0,0,1,1.088,1.275c.68-.357,1.156-.629,1.819-1.054h2.363a5.72,5.72,0,0,1-.969.952h-.408a3.945,3.945,0,0,1,.068.969c-1.411.119-2.618.2-3.179.2h-.476l.238,1.717a7.855,7.855,0,0,1,.9-.119c1.462-.136,1.462-.136,2.516-.238V26.2c0,.289-.034.34-.306.34a11.577,11.577,0,0,1-1.8-.119,4.918,4.918,0,0,1,.374,1.666c.595.034.816.034,1.1.034,1.9,0,2.346-.272,2.346-1.445V24.535c.918-.119,1.428-.2,2.788-.476l-.017-1.53c-1.343.238-1.853.323-2.771.442v-.187a14.6,14.6,0,0,0,1.717-1.7s.119-.136.357-.374l-.646-.85a4.549,4.549,0,0,1-1.02.051h-1.309A18.156,18.156,0,0,0-27.3,18.653h1.292a8.448,8.448,0,0,1,.986.051,6.648,6.648,0,0,1-.9,1.173,4.725,4.725,0,0,1,1.02,1.53,11.314,11.314,0,0,0,.986-1.275,14.011,14.011,0,0,0,1.275,3.451,10.085,10.085,0,0,1-4.216,3.128,5.555,5.555,0,0,1,1.275,1.632,13.68,13.68,0,0,0,3.961-3.111,13.4,13.4,0,0,0,3.06,3.06,5.659,5.659,0,0,1,1.207-1.751,10.443,10.443,0,0,1-3.2-2.839,11.721,11.721,0,0,0,1.258-3.2,16.049,16.049,0,0,0,.476-3.315,9.17,9.17,0,0,1,1.1.085Zm-2.805,1.717a13.37,13.37,0,0,1-.425,2.941,8.933,8.933,0,0,1-.663,1.819,13.925,13.925,0,0,1-1.207-3.927c.136-.306.2-.442.374-.833Zm-7.8,0V15.865h.748c.221,0,.51.017.68.034a10.825,10.825,0,0,1-1.088,1.309ZM-9.537,22.92h-3.2a15.1,15.1,0,0,1-1.819-.068V24.62a12.715,12.715,0,0,1,1.785-.085h3.23V26.15h-4.505a13.266,13.266,0,0,1-2.108-.1V27.9a19.5,19.5,0,0,1,2.3-.1H-3.128A20.157,20.157,0,0,1-.8,27.9V26.048a15.367,15.367,0,0,1-2.108.1h-4.76V24.535h3.519A12.479,12.479,0,0,1-2.4,24.62V22.852a15.151,15.151,0,0,1-1.717.068H-7.667V21.339c2.091-.136,2.091-.136,3.179-.2.34.357.527.578,1.071,1.241L-2.04,21.2a32.258,32.258,0,0,0-3.026-2.839h.391a11.8,11.8,0,0,1,1.836.085v-.884H-1.1a11.149,11.149,0,0,1-.085-1.394v-.935a12.245,12.245,0,0,1,.051-1.326c-.527.051-1.088.068-2.142.068h-4.4V13.74A6.959,6.959,0,0,1-7.6,12.635H-9.673a7.3,7.3,0,0,1,.085,1.105v.238h-4.148c-.969,0-1.5-.017-2.108-.068a9.518,9.518,0,0,1,.068,1.258v.867c0,.408-.017.8-.034,1.02a3.5,3.5,0,0,0-.034.578h1.7v.816a13.857,13.857,0,0,1,2.04-.085h.816a11.866,11.866,0,0,1-1,1.649c-.765.017-1.156.017-1.462.017-.527,0-.8-.017-1.241-.051l.2,1.717c.17-.017.68-.051,1.5-.085,2.652-.119,2.652-.119,3.757-.187Zm6.579-6.171c-.374.034-.8.051-1.768.051h-7.582c-.9,0-1.309-.017-1.7-.051V15.61h11.05Zm-2.7,1.615-1.037.612c.442.357.561.476.9.782-1.343.085-1.343.085-4.522.2a12.858,12.858,0,0,0,.986-1.6Zm20.4,5.083a2.76,2.76,0,0,1,.578.034,8.074,8.074,0,0,1-.051-1.02V21.016a9.2,9.2,0,0,1,.051-1.071c-.374.034-.85.051-1.53.051H7.616c-.578,0-1.02-.017-1.428-.051A8.88,8.88,0,0,1,6.239,21V22.41a5.45,5.45,0,0,1-.068,1.071,13.213,13.213,0,0,1,1.36-.051h1.36a10.656,10.656,0,0,1-4.9,3.077,5.141,5.141,0,0,1,1.122,1.547,11.715,11.715,0,0,0,4.352-3.111c-.034.34-.051.884-.051,1.19v.918a8.282,8.282,0,0,1-.085,1.462h1.955a7.81,7.81,0,0,1-.085-1.377V26.2a11.476,11.476,0,0,0-.068-1.275,7.361,7.361,0,0,0,1.717,1.683,11.394,11.394,0,0,0,2.924,1.564,11.231,11.231,0,0,1,.918-1.7,9.69,9.69,0,0,1-2.567-1.037,14.637,14.637,0,0,0,1.258-.986c.289-.238.34-.289.476-.408Zm-.748-.017h.187a7.024,7.024,0,0,1-1.343,1.139,5.1,5.1,0,0,1-1.19-1.139ZM7.973,21.254H13.5v.833H7.973Zm-5.627-6.1V18.5H2.193A5.887,5.887,0,0,1,1,18.415v1.734a7.687,7.687,0,0,1,1.156-.068h.187v3.808a9.607,9.607,0,0,1-1.887.493L.9,26.337c.2-.1.612-.272.884-.374A40.251,40.251,0,0,0,5.763,24.3V22.546c-.884.391-1.173.51-1.649.7V20.081a9.907,9.907,0,0,1,1,.051v-1.7a5.937,5.937,0,0,1-1,.068V15.151H4.3a5.578,5.578,0,0,1,1.071.085V13.417a9.1,9.1,0,0,1-1.5.1H2.21a8.938,8.938,0,0,1-1.462-.1v1.819a6.36,6.36,0,0,1,1.224-.085Zm3.485.765a9.131,9.131,0,0,1-.051,1.19c.493-.034.714-.034,1.343-.034h7.344c.629,0,.918.017,1.309.034-.034-.357-.051-.8-.051-1.173V14.3a10.136,10.136,0,0,1,.068-1.207c-.408.034-.952.068-1.36.068H7.123a10.49,10.49,0,0,1-1.36-.068,7.267,7.267,0,0,1,.068,1.224Zm2.839-.085H7.429V14.556H8.67Zm2.737,0H10.149V14.556h1.258Zm2.754,0H12.869V14.556h1.292ZM5.491,19.35a11.149,11.149,0,0,1,1.615-.085h7.548a11.586,11.586,0,0,1,1.615.085V17.633a11.4,11.4,0,0,1-1.632.085H7.123a8.968,8.968,0,0,1-1.632-.1Zm19.482,5c-.221,1.615-1.292,2.278-4.148,2.635a5.369,5.369,0,0,1,.969,1.615c2.006-.459,2.992-.918,3.791-1.751a4.1,4.1,0,0,0,1.088-2.5h1.19v2.584c0,.646.119.9.561,1.088a5.089,5.089,0,0,0,2.04.255c2.516,0,2.856-.306,3.026-2.89a6.353,6.353,0,0,1-1.683-.595,4.86,4.86,0,0,1-.136,1.666c-.1.17-.34.221-1.054.221-.935,0-1.02-.034-1.02-.391V24.348h1.326c.7,0,1,.017,1.428.051a9.887,9.887,0,0,1-.068-1.343V20.1a9.729,9.729,0,0,1,.068-1.343c-.442.034-.816.051-1.6.051H24.82c-.8,0-1.173-.017-1.615-.051a9.269,9.269,0,0,1,.068,1.343v3.06a10.686,10.686,0,0,1-.051,1.241c.68-.034.935-.051,1.462-.051Zm.034-4.165H30.5v.68H25.007Zm0,1.972H30.5V22.9H25.007ZM19.4,17.072H19.04a8.586,8.586,0,0,1-1.36-.085v1.819a10.933,10.933,0,0,1,1.343-.085H19.4V23.6a10.022,10.022,0,0,1-1.921.578l.374,1.972c.238-.119.493-.221.782-.34,1.87-.765,2.941-1.207,4.1-1.768l-.068-1.819c-.833.391-1.071.493-1.5.68V18.721a7.5,7.5,0,0,1,1.173.068V17.021a10.558,10.558,0,0,1-1.173.051V14.811a11.331,11.331,0,0,1,.1-1.9H19.3a13.743,13.743,0,0,1,.1,1.887Zm9.248-2.992v-.391a4.6,4.6,0,0,1,.085-1H26.741a6.023,6.023,0,0,1,.085,1.02v.374h-2.04a14.028,14.028,0,0,1-1.819-.085v1.581a10.67,10.67,0,0,1,1.479-.068,8.362,8.362,0,0,1,.459,1.173h-.7a13.161,13.161,0,0,1-1.513-.068v1.649a12.82,12.82,0,0,1,1.564-.051h7.208a13.318,13.318,0,0,1,1.785.085V16.6a10.986,10.986,0,0,1-1.717.085h-.986a11.313,11.313,0,0,0,.544-1.173,15.88,15.88,0,0,1,1.734.068V13.995a17.77,17.77,0,0,1-1.836.085Zm-1.955,2.6q-.2-.586-.459-1.173h3.026a10.194,10.194,0,0,1-.51,1.173Z" transform="translate(10529.582 1255)"/>
    <rect id="長方形_225" data-name="長方形 225" width="180" height="206" transform="translate(10440 1080)" fill="none"/>
  </g>
</svg>
