<?xml version="1.0" encoding="utf-8"?>
<!-- Generator: Adobe Illustrator 27.4.0, SVG Export Plug-In . SVG Version: 6.00 Build 0)  -->
<svg version="1.1" id="レイヤー_1" xmlns="http://www.w3.org/2000/svg" xmlns:xlink="http://www.w3.org/1999/xlink" x="0px"
	 y="0px" viewBox="0 0 376 107" style="enable-background:new 0 0 376 107;" xml:space="preserve">
<style type="text/css">
	.st0{fill:#5A534A;}
	.st1{fill:#FFFFFF;}
	.st2{fill-rule:evenodd;clip-rule:evenodd;fill:#E27F37;}
	.st3{fill:#E27F37;}
</style>
<g>
	<g id="長方形_167" transform="translate(584 1773)">
		<path class="st0" d="M-574-1773h356c5.5,0,10,4.5,10,10v87c0,5.5-4.5,10-10,10h-356c-5.5,0-10-4.5-10-10v-87
			C-584-1768.5-579.5-1773-574-1773z"/>
		<path class="st1" d="M-218-1666h-356c-5.5,0-10-4.5-10-10v-87c0-5.5,4.5-10,10-10h356c5.5,0,10,4.5,10,10v87
			C-208-1670.5-212.5-1666-218-1666z M-574-1770c-3.9,0-7,3.1-7,7v87c0,3.9,3.1,7,7,7h356c3.9,0,7-3.1,7-7v-87c0-3.9-3.1-7-7-7H-574
			z"/>
	</g>
	<g>
		<path class="st1" d="M178.5,33.3c-0.5,1.2-1,2.4-1.7,3.5v12.5h-2V40c-0.5,0.6-0.9,1.1-1.4,1.6c-0.2-0.5-0.8-1.7-1.2-2.2
			c1.7-1.6,3.3-4.2,4.2-6.7L178.5,33.3z M185.6,43.2c1.1,1.6,2.6,3,4.1,3.9c-0.5,0.4-1.2,1.2-1.5,1.7c-1.3-0.9-2.6-2.4-3.7-4v4.6
			h-2.2v-4.6c-1.1,1.6-2.5,3-3.9,3.9c-0.3-0.5-1-1.3-1.5-1.7c1.6-0.8,3.2-2.3,4.3-3.9h-3.7v-1.9h4.7v-1.6h-3.5v-6.2h9.5v6.2h-3.8
			v1.6h4.6v1.9H185.6z M180.9,37.7h5.3v-2.4h-5.3V37.7z"/>
		<path class="st1" d="M203.3,36.1c1.3,1,2.8,2.2,3.6,3.1l-1.9,1.2c-0.3-0.3-0.6-0.7-1.1-1.2c-4.5,0.2-9.2,0.3-12.3,0.4l-0.1-1.9
			l2.5,0c0.3-0.5,0.7-1,1-1.5h-4.1v-1.9h6.9v-1.5h2.2v1.5h6.9v1.9H203.3z M204.5,47.5c0,1-0.3,1.5-1,1.7c-0.7,0.3-1.8,0.3-3.3,0.3
			c-0.1-0.5-0.4-1.2-0.6-1.7c0.9,0.1,2,0.1,2.3,0c0.3,0,0.4-0.1,0.4-0.3v-0.8h-6.8v2.8h-2.1v-9.2h11.1V47.5z M195.5,42v0.9h6.8V42
			H195.5z M202.3,45.2v-0.9h-6.8v0.9H202.3z M197.7,36.1c-0.4,0.5-0.8,1-1.2,1.5c1.7,0,3.6-0.1,5.5-0.1c-0.4-0.3-0.8-0.6-1.2-0.9
			l0.9-0.5H197.7z"/>
		<path class="st1" d="M224.6,33.3v16.1h-2.1v-0.6h-11.3v0.6h-2V33.3H224.6z M222.5,46.9V35.3h-11.3v11.6H222.5z M222,43.2
			c-0.6,0.5-1.2,0.9-1.8,1.2c0.7,0.3,1.4,0.6,2.1,0.7c-0.4,0.3-0.9,1-1.1,1.4c-1.3-0.4-2.6-1.2-3.6-2v2h-1.9v-1.9
			c-1,0.6-2.1,1.1-3.1,1.5c-0.2-0.3-0.8-1-1.2-1.4c1.5-0.4,3-1.1,4.2-1.9h-2.8v-3.1h8.3v2.8L222,43.2z M221.9,39.3h-10v-1.2h4v-0.7
			h-3.2v-1.2h3.2v-0.8h1.9v0.8h3.3v1.2h-3.3v0.7h4.1V39.3z M214.6,41.8h4.6v-0.9h-4.6V41.8z M217.9,43c0.3,0.3,0.6,0.5,1,0.8
			c0.4-0.3,0.8-0.6,1.2-0.8L217.9,43L217.9,43z"/>
		<path class="st1" d="M227.9,39.2c0.5-0.2,1.1-0.5,1.6-0.7c-0.3-0.5-0.5-1.1-0.8-1.5c-0.3-0.5-0.7-1.1-1.1-1.6l2.3-0.9
			c0.2,0.3,0.5,1.1,0.7,1.4c0.3,0.5,0.6,1.1,0.8,1.7c1.1-0.5,2.2-0.9,3.2-1.3c-0.6-0.7-1.8-1.8-2.5-2.3l1.7-1.2
			c0.6,0.5,2,1.7,2.6,2.3l-1.4,1c0.9-0.3,1.8-0.4,2.6-0.4c2.8,0,4.5,1.7,4.5,3.8c0,2.5-1.7,4.1-4.5,4.1c-1,0-2.1-0.3-2.8-0.5
			l0.1-2.3c0.8,0.3,1.7,0.6,2.5,0.6c1.4,0,2.3-0.7,2.3-2c0-0.9-0.8-1.7-2.2-1.7c-1.4,0-3.4,0.7-5.3,1.6c0.2,0.4,0.3,0.8,0.5,1.1
			c0.8,2,2.2,5.8,2.8,7.8l-2.5,0.6c-0.6-2.3-1.5-5.3-2.4-7.5c-0.2-0.4-0.3-0.8-0.5-1.1c-1.3,0.6-2.4,1.3-3.2,1.6l-1.1-2.3
			C226.8,39.6,227.6,39.4,227.9,39.2z"/>
		<path class="st1" d="M248.5,37.4c-0.6,2.7-1.6,6-3.1,8c-0.5-0.4-1.5-0.9-2.1-1.1c1.4-1.8,2.3-5,2.7-7.3L248.5,37.4z M253.1,32.9
			v13.9c0,1.3-0.3,1.9-1.1,2.3c-0.8,0.3-2.1,0.4-3.8,0.4c-0.1-0.6-0.5-1.6-0.8-2.2c1.2,0.1,2.5,0.1,2.9,0c0.4,0,0.5-0.1,0.5-0.5
			V32.9H253.1z M257.2,36.8c1.5,2.6,2.9,5.8,3.4,8.1l-2.3,0.9c-0.4-2.2-1.7-5.6-3.2-8.2L257.2,36.8z"/>
		<path class="st1" d="M277.9,44.8H271v2.4c0,1.1-0.2,1.7-1.1,2c-0.8,0.3-2,0.3-3.5,0.3c-0.1-0.6-0.6-1.5-0.9-2.1
			c1.2,0.1,2.5,0.1,2.8,0c0.4,0,0.5-0.1,0.5-0.3v-2.3h-6.9v-2h6.9v-1.2h1c0.5-0.3,1-0.6,1.4-1h-6.1v-1.9h8.1l0.5-0.1l1.3,1
			c-1,1.1-2.4,2.3-3.9,3.1h6.8V44.8z M264.1,39.9h-2v-4.4h2.4c-0.3-0.6-0.8-1.3-1.2-1.9l1.8-0.8c0.6,0.7,1.4,1.7,1.6,2.4l-0.6,0.3
			h2.8c-0.3-0.7-0.7-1.6-1.1-2.3l1.9-0.7c0.6,0.8,1.2,1.9,1.4,2.6l-0.9,0.3h2.7c0.6-0.8,1.2-1.9,1.5-2.7l2.3,0.7
			c-0.5,0.7-1,1.4-1.5,2h2.4v4.4h-2.1v-2.5h-11.5V39.9z"/>
		<path class="st1" d="M285.1,44.2c-0.2-0.6-0.7-1.4-1.1-2.3v7.5h-2v-6.7c-0.5,1.4-1.1,2.7-1.7,3.6c-0.2-0.6-0.6-1.4-1-1.9
			c1.1-1.4,2.1-3.9,2.5-6h-2.1v-2h2.3v-3.7h2v3.7h2v2h-2v0.9c0.5,0.7,1.9,2.8,2.3,3.3L285.1,44.2z M294.6,42
			c-0.1-0.2-0.2-0.5-0.4-0.8c-0.5,1.4-1.1,2.7-1.9,3.8c1.1,1.1,2.5,2,4.1,2.6c-0.5,0.5-1.2,1.3-1.5,1.9c-1.6-0.6-2.9-1.6-4-2.8
			c-1.2,1.2-2.7,2.1-4.6,2.8c-0.2-0.5-0.7-1.3-1.1-1.7c1.8-0.6,3.3-1.5,4.4-2.7c-0.8-1.1-1.4-2.3-1.9-3.7c-0.3,0.3-0.5,0.5-0.8,0.7
			c-0.3-0.4-1-1-1.5-1.4c1.1-0.9,2.1-2.3,2.7-3.5l1.9,0.8c-0.5,1-1.2,2.1-2,2.9l1.4-0.4c0.4,1,0.8,1.9,1.4,2.8
			c0.5-0.9,0.9-1.9,1.2-2.9l1.9,0.4c-0.6-0.9-1.3-1.9-2.1-2.8l1.7-0.9c1.1,1.1,2.3,2.7,2.8,3.8L294.6,42z M296.1,37.1h-9.9v-2h3.9
			v-2.5h2.1v2.5h3.9V37.1z"/>
		<path class="st1" d="M304.9,35.2c-0.1,0.5-0.3,1.2-0.4,1.9c0.6,0,1.1-0.1,1.5-0.1c1.9,0,3.3,0.8,3.3,3.4c0,2.1-0.3,5-1,6.6
			c-0.6,1.3-1.6,1.7-3,1.7c-0.7,0-1.5-0.1-2.2-0.3l-0.4-2.4c0.7,0.2,1.7,0.4,2.2,0.4c0.6,0,1.1-0.2,1.4-0.8c0.5-1,0.7-3.2,0.7-5
			c0-1.4-0.6-1.6-1.7-1.6c-0.3,0-0.7,0-1.2,0.1c-0.7,2.7-2,7-3.7,9.7l-2.3-0.9c1.7-2.4,3-6,3.6-8.5c-0.6,0.1-1.2,0.1-1.5,0.2
			c-0.5,0.1-1.5,0.2-2,0.3l-0.2-2.4c0.6,0.1,1.3,0,1.9,0c0.6,0,1.4-0.1,2.3-0.1c0.3-1.4,0.4-2.7,0.4-3.8l2.7,0.3
			C305.1,34.2,305,34.7,304.9,35.2z M314.5,42.1l-2.3,1.1c-0.5-2-1.7-5.3-3-6.8l2.1-0.9C312.5,36.9,314,40.4,314.5,42.1z"/>
		<path class="st1" d="M319,41.2c1.6-1.2,3.4-1.7,5.3-1.7c3.2,0,5,1.9,5,4.1c0,3.3-2.6,5.8-10.1,5.2l-0.7-2.4
			c5.4,0.7,8.3-0.6,8.3-2.9c0-1.2-1.1-2-2.7-2c-2,0-3.9,0.8-5,2.1c-0.3,0.4-0.5,0.7-0.7,1l-2.1-0.5c0.4-1.8,0.8-5.3,0.9-7.5l2.4,0.3
			C319.4,38,319.1,40.2,319,41.2z M326.7,34.8l-0.5,2.2c-1.8-0.2-5.8-1.1-7.2-1.4l0.6-2.2C321.2,34,325.2,34.6,326.7,34.8z"/>
		<path class="st1" d="M152.3,64c-0.6,1.4-1.6,3.3-2.8,5c1.8,1.5,4,3.9,5,5.1l-2.1,1.8c-1.2-1.6-2.8-3.5-4.5-5.1
			c-1.9,2-4.3,3.9-6.8,5.1l-1.9-1.9c2.9-1.1,5.7-3.3,7.4-5.2c1.2-1.4,2.3-3.1,2.7-4.4h-6.1c-0.8,0-1.7,0.1-2.1,0.1v-2.6
			c0.5,0.1,1.6,0.1,2.1,0.1h6.4c0.8,0,1.5-0.1,1.9-0.2l1.5,1.1C152.8,63.1,152.5,63.7,152.3,64z"/>
		<path class="st1" d="M164.3,62.9C164.3,62.9,164.3,63,164.3,62.9l3.6,0.1c0.6,0,1.2-0.1,1.6-0.2l1.8,1.1c-0.2,0.3-0.5,0.8-0.6,1.3
			c-0.5,1.6-1.5,4-3.1,6c-1.7,2.1-3.9,3.7-7.3,5.1l-2.1-1.9c3.7-1.1,5.7-2.7,7.3-4.4c1.2-1.4,2.3-3.6,2.6-4.9h-5.1
			c-1.2,1.6-2.8,3.2-4.5,4.4l-2-1.5c3.2-1.9,4.7-4.2,5.6-5.8c0.3-0.5,0.6-1.3,0.8-1.9l2.6,0.9C165,61.7,164.5,62.5,164.3,62.9z"/>
		<path class="st1" d="M176,66.9h9.7c0.8,0,1.6-0.1,2.1-0.1v2.8c-0.4,0-1.4-0.1-2.1-0.1H176c-1,0-2.2,0-2.9,0.1v-2.8
			C173.8,66.8,175.1,66.9,176,66.9z"/>
		<path class="st1" d="M192.7,70.1c0.5-1.5,0.5-5,0.5-7.1c0-0.7-0.1-1.2-0.2-1.7h2.6c0,0.1-0.1,0.9-0.1,1.6c0,2.1-0.1,5.9-0.5,7.7
			c-0.5,2-1.7,3.8-3.2,5.2l-2.2-1.5C191.2,73.3,192.2,71.7,192.7,70.1z M198.1,73.4V62.9c0-0.8-0.1-1.5-0.1-1.5h2.7
			c0,0.1-0.1,0.8-0.1,1.6v9.4c1.5-0.6,3.2-2.1,4.4-3.8l1.4,2c-1.5,1.9-4.1,3.9-6.1,4.9c-0.4,0.2-0.6,0.4-0.8,0.5l-1.5-1.2
			C198,74.4,198.1,73.9,198.1,73.4z"/>
		<path class="st1" d="M216.5,61.8c0,0.2,0,0.5,0,0.7c1.5-0.1,3-0.2,4.6-0.5l0,2.1c-1.2,0.1-2.8,0.3-4.6,0.4c0,0.6,0,1.3,0,1.9
			c1.8-0.1,3.3-0.2,4.8-0.4l0,2.1c-1.6,0.2-3,0.3-4.8,0.4c0,0.7,0.1,1.4,0.1,2.1c2.3,0.6,4,1.9,5,2.7l-1.3,2c-1-0.9-2.2-1.9-3.6-2.5
			c0,0.3,0,0.5,0,0.7c0,1.5-1.2,2.7-3.5,2.7c-2.9,0-4.4-1.1-4.4-3c0-1.8,1.7-3.1,4.4-3.1c0.4,0,0.8,0,1.1,0.1c0-0.6-0.1-1.1-0.1-1.7
			c-0.3,0-0.6,0-0.9,0c-1,0-3.1-0.1-4.3-0.2l0-2.1c1.2,0.2,3.4,0.3,4.3,0.3c0.3,0,0.6,0,0.9,0c0-0.6,0-1.2,0-1.9c-0.2,0-0.5,0-0.7,0
			c-1.1,0-3.2-0.2-4.4-0.3l-0.1-2.1c1.3,0.2,3.3,0.4,4.4,0.4c0.2,0,0.5,0,0.7,0c0-0.3,0-0.6,0-0.8c0-0.3,0-0.9-0.1-1.2h2.4
			C216.5,60.9,216.5,61.4,216.5,61.8z M212.8,74.2c1,0,1.6-0.3,1.6-1.3c0-0.2,0-0.5,0-0.8c-0.5-0.1-1-0.1-1.5-0.1
			c-1.3,0-2,0.5-2,1.1C210.9,73.8,211.6,74.2,212.8,74.2z"/>
		<path class="st1" d="M225.1,62.7c1.5-0.1,4.5-0.4,7.8-0.7c1.9-0.2,3.8-0.3,5.1-0.3l0,2.3c-1,0-2.5,0-3.5,0.3
			c-2.2,0.6-3.8,2.9-3.8,5c0,3,2.8,4,5.8,4.2l-0.8,2.5c-3.8-0.3-7.3-2.3-7.3-6.2c0-2.6,1.5-4.6,2.7-5.6c-1.7,0.2-5.4,0.6-7.5,1
			l-0.2-2.5C224.1,62.7,224.8,62.7,225.1,62.7z M236.9,68.2l-1.4,0.6c-0.5-1-0.8-1.7-1.4-2.5l1.3-0.6
			C235.9,66.4,236.5,67.5,236.9,68.2z M238.9,67.3l-1.4,0.6c-0.5-1-0.9-1.6-1.5-2.4l1.3-0.6C237.9,65.5,238.6,66.6,238.9,67.3z"/>
		<path class="st1" d="M249,76l-1.4-2.1c0.7-0.1,1.2-0.2,1.7-0.3c2.3-0.5,4.1-2.2,4.1-4.8c0-2.5-1.4-4.3-3.8-4.8
			c-0.3,1.5-0.6,3.2-1.1,4.9c-1.1,3.6-2.6,5.9-4.6,5.9c-2,0-3.7-2.2-3.7-5.2c0-4.2,3.6-7.7,8.3-7.7c4.5,0,7.3,3.1,7.3,7
			C255.9,72.6,253.6,75.2,249,76z M244.1,71.9c0.8,0,1.5-1.1,2.2-3.6c0.4-1.3,0.8-2.9,1-4.4c-3,0.6-4.6,3.2-4.6,5.2
			C242.7,71,243.4,71.9,244.1,71.9z"/>
		<path class="st1" d="M260.3,64.6c-0.4,0.3-0.7,0.7-1.1,0.9c-0.4-0.4-1.3-1.1-1.7-1.4c1.5-1,2.9-2.6,3.7-4.3l2.1,0.6
			c-0.2,0.4-0.4,0.8-0.7,1.3h10.8v1.9h-1.7v2.3h2.3v1.9h-2.3v2.3h2.1V72h-15.6v-1.9h2.1v-2.3h-2.4v-1.9h2.4V64.6z M257.7,75.9
			c0.8-0.8,1.6-2.1,2-3.5l2.1,0.5c-0.4,1.4-1.2,2.8-2.1,3.8L257.7,75.9z M262.2,65.9h1.3v-2.3h-1.3V65.9z M262.2,70.1h1.3v-2.3h-1.3
			V70.1z M265,72.8c0.2,1.1,0.4,2.5,0.5,3.4l-2.1,0.3c0-0.9-0.1-2.3-0.3-3.4L265,72.8z M266.6,65.9v-2.3h-1.3v2.3H266.6z
			 M265.3,67.8v2.3h1.3v-2.3H265.3z M268.6,72.7c0.4,1.1,0.9,2.5,1,3.3l-2.1,0.4c-0.1-0.9-0.5-2.3-0.9-3.4L268.6,72.7z M269.8,63.6
			h-1.4v2.3h1.4V63.6z M269.8,67.8h-1.4v2.3h1.4V67.8z M272.2,72.3c0.8,1.1,1.8,2.6,2.3,3.6l-2.2,0.7c-0.4-1-1.3-2.5-2.1-3.7
			L272.2,72.3z"/>
		<path class="st1" d="M281.7,72.6c-0.3-0.6-0.8-1.5-1.3-2.3v6.3h-2v-6.4c-0.6,1.7-1.3,3.3-2.1,4.4c-0.2-0.6-0.6-1.6-1-2.2
			c0.9-1.1,1.8-3,2.4-4.7h-2.1v-2h2.7v-5.9h2v5.9h2.7v2h-2.7v0.1c0.5,0.5,2.2,2.5,2.6,3L281.7,72.6z M276.5,65.5
			c0-1.1-0.4-2.9-0.8-4.2l1.5-0.4c0.5,1.3,0.8,3,0.9,4.1L276.5,65.5z M283.4,61.2c-0.5,1.4-1,3.2-1.4,4.2l-1.4-0.4
			c0.4-1.1,0.8-3,1-4.2L283.4,61.2z M290.4,71.8v4.9h-2v-4.5l-5,0.9l-0.3-2l5.3-1V59.8h2v9.9l1.8-0.3l0.3,2L290.4,71.8z M284.2,65.3
			c1,0.6,2.4,1.4,3,2.1l-1.1,1.7c-0.6-0.7-1.9-1.6-3-2.3L284.2,65.3z M286.8,64.6c-0.6-0.7-1.8-1.7-2.8-2.3l1-1.4
			c1,0.6,2.3,1.5,2.9,2.2L286.8,64.6z"/>
		<path class="st1" d="M298,72.5c0.7,1.2,2.1,1.7,4,1.8c2.1,0.1,6.2,0,8.6-0.1c-0.2,0.5-0.6,1.5-0.7,2.2c-2.2,0.1-5.8,0.1-7.9,0.1
			c-2.2-0.1-3.7-0.6-4.9-2c-0.8,0.7-1.6,1.4-2.6,2.2l-1-2.2c0.8-0.4,1.7-1,2.5-1.7v-3.8h-2.1v-2h4.2V72.5z M296.7,64.4
			c-0.6-0.9-1.8-2.1-2.9-2.8l1.6-1.3c1.1,0.8,2.4,1.9,3,2.7L296.7,64.4z M305.8,68.6c0.8,1.7,2.2,2.9,4.4,3.4
			c-0.5,0.4-1.1,1.2-1.4,1.8c-2-0.7-3.4-1.9-4.3-3.7c-0.7,1.4-2,2.6-4.4,3.7c-0.3-0.5-0.9-1.2-1.4-1.5c2.7-1,3.8-2.4,4.2-3.7h-4.2
			v-1.9h4.4v-1.7h-3.8V63h1.8c-0.3-0.7-0.8-1.7-1.3-2.4l1.8-0.8c0.7,0.8,1.3,1.9,1.6,2.7l-1,0.4h4l-0.9-0.3c0.5-0.8,1.2-2,1.5-2.8
			l2.2,0.7c-0.6,0.9-1.2,1.8-1.7,2.5h2.2v1.9h-4.3v1.7h4.9v1.9H305.8z"/>
		<path class="st1" d="M315.5,72.6c0.7,1.2,2,1.7,3.9,1.8c2.2,0.1,6.6,0.1,9.1-0.2c-0.2,0.5-0.5,1.4-0.6,2c-2.3,0.1-6.3,0.2-8.5,0.1
			c-2.2-0.1-3.6-0.6-4.7-2c-0.7,0.7-1.4,1.4-2.3,2.2l-1-2c0.6-0.5,1.4-1.1,2.1-1.7v-4h-1.9v-2h3.8V72.6z M314,64.4
			c-0.4-0.9-1.5-2.2-2.4-3.1l1.7-1.1c0.9,0.9,2.1,2.1,2.5,3L314,64.4z M316,70.3c0.3-0.1,0.7-0.1,1-0.2v-9l1,0.3
			c0.9-0.5,1.8-1,2.4-1.5l1.4,1.5V61h5.8v9.1c0,0.9-0.1,1.4-0.7,1.7c-0.6,0.3-1.3,0.3-2.4,0.3c-0.1-0.5-0.3-1.3-0.6-1.8
			c0.6,0,1.2,0,1.4,0c0.2,0,0.3-0.1,0.3-0.3v-7.3h-1.9v11.1h-1.9V61.5c-0.9,0.5-1.9,1-2.9,1.4v6.8c0.7-0.2,1.5-0.4,2.2-0.6l0.2,1.8
			c-1.7,0.5-3.5,1-4.9,1.3L316,70.3z"/>
		<path class="st1" d="M334,62.7l2.6,0.5c-0.2,0.5-0.4,1.4-0.4,1.8c-0.3,1.3-0.9,3.7-1.5,5.4c-0.6,1.7-1.7,3.8-2.7,5.1l-2.5-1.1
			c1.1-1.5,2.2-3.4,2.8-5C333.1,67.5,333.8,65,334,62.7z M338.5,63.2l2.4-0.8c0.7,1.4,2,4.2,2.7,5.9c0.6,1.6,1.6,4.5,2.1,6.3
			l-2.7,0.9c-0.5-2.1-1.2-4.4-1.9-6.4C340.5,67.2,339.3,64.6,338.5,63.2z M344.3,63.2l-1.4,0.6c-0.4-0.7-0.9-1.8-1.4-2.5l1.4-0.6
			C343.3,61.4,343.9,62.5,344.3,63.2z M346.4,62.4L345,63c-0.4-0.7-1-1.8-1.4-2.5l1.4-0.6C345.4,60.6,346.1,61.7,346.4,62.4z"/>
		<path class="st1" d="M360.4,64c-0.6,1.4-1.6,3.3-2.8,5c1.8,1.5,4,3.9,5,5.1l-2.1,1.8c-1.2-1.6-2.8-3.5-4.5-5.1
			c-1.9,2-4.3,3.9-6.8,5.1l-1.9-1.9c2.9-1.1,5.7-3.3,7.4-5.2c1.2-1.4,2.3-3.1,2.7-4.4h-6.1c-0.8,0-1.7,0.1-2.1,0.1v-2.6
			c0.5,0.1,1.6,0.1,2.1,0.1h6.4c0.8,0,1.5-0.1,1.9-0.2l1.5,1.1C360.9,63.1,360.6,63.7,360.4,64z"/>
	</g>
	<g>
		<g>
			<path class="st2" d="M41.3,42.3c0,0.1,0,0.3,0,0.4c0,0,0.1,0.2,0.1,0.2c0.1,0.1,0.2,0.3,0.3,0.4c0.1,0,0.1,0.1,0.2,0.1l0,0
				c0,0,0,0,0,0c0,0,0.1,0,0.1,0c0,0,0.1,0,0.1,0c0.1,0,0.2,0,0.3,0c0,0,0,0,0,0c0.1,0,0.1,0,0.1-0.1c0,0,0,0,0.1-0.1
				c0.1-0.2,0-0.2-0.1-0.2c0,0,0-0.1-0.1-0.1c0-0.1-0.1-0.1-0.2-0.2c0,0-0.1-0.1-0.1-0.1c0,0,0,0,0,0c0,0,0,0,0,0
				c-0.1-0.1-0.3-0.3-0.4-0.3c-0.1,0-0.1,0-0.2,0c0,0,0-0.1-0.1-0.1C41.4,42.2,41.3,42.2,41.3,42.3"/>
			<path class="st2" d="M41.4,41.8C41.4,41.8,41.4,41.8,41.4,41.8c0,0.1,0.1,0.1,0.1,0.1c0,0,0.1,0.2,0.3,0.1
				c0.1-0.1,0.1-0.1,0.1-0.1c0.1-0.1,0.2-0.1,0.2-0.2c0.2-0.2,0.1-0.2,0.3-0.4c0,0,0.1-0.1,0.1-0.1c0,0,0,0,0.1,0c0,0,0,0,0.1-0.1
				c0.1-0.1,0.1-0.2,0.3-0.1c0.1,0,0.2,0.2,0.3,0c0-0.1,0.1-0.1,0.1-0.2l0-0.1c-0.1-0.1-0.5,0-0.7,0c-0.3,0.1-0.6,0.3-0.8,0.5
				c0,0,0,0,0,0c-0.1,0.1-0.2,0.2-0.3,0.4C41.4,41.7,41.4,41.8,41.4,41.8"/>
			<path class="st2" d="M43.3,44c-0.3,0-0.4,0-0.7-0.1c-0.1-0.1-0.3-0.1-0.4-0.2c0,0-0.1-0.1-0.1-0.1c0,0,0,0,0,0l0,0c0,0,0,0,0,0
				c0.2,0,0.2,0,0.4,0l0,0c-0.1,0-0.2,0-0.3,0c0,0-0.1,0-0.1,0c0,0-0.1,0-0.1,0c0,0,0,0,0,0c0,0,0,0,0,0c0,0,0,0,0,0c0,0,0,0,0,0
				c-0.1-0.1-0.2-0.2-0.3-0.2c0-0.1-0.1-0.1-0.1-0.1c0,0-0.1-0.2-0.1-0.2c0,0.2,0.2,0.4,0.3,0.5c0.1,0.2,0.2,0.3,0.4,0.4
				c0.1,0.1,0.4,0.2,0.6,0.2C42.8,44.1,43.1,44.1,43.3,44"/>
			<path class="st2" d="M41.3,41.8c0,0,0.1-0.2,0.1-0.3c0.2-0.4,0.6-0.7,1.1-0.9c0.3-0.1,0.4,0,0.7,0c0-0.1-0.2-0.1-0.3-0.1
				c-0.5-0.1-0.9,0.2-1.2,0.5c-0.1,0.1-0.1,0.2-0.2,0.2C41.4,41.4,41.3,41.7,41.3,41.8"/>
			<path class="st2" d="M43.9,41.1L43.9,41.1C43.9,41.1,43.9,41.1,43.9,41.1C43.8,41.1,43.8,41,43.9,41.1
				C43.8,41.1,43.8,41.1,43.9,41.1C43.9,41.1,43.9,41.1,43.9,41.1"/>
			<path class="st2" d="M43.4,41c0,0-0.1,0.1-0.1,0.1c-0.1,0.1-0.1,0.1-0.2,0.2c0,0,0,0-0.1,0.1c-0.1,0.1,0,0-0.1,0.1
				c-0.2,0.1-0.3,0.2-0.3,0.3c0,0-0.1,0-0.1,0c0,0,0,0,0,0.1c0,0,0,0-0.1,0.1c0,0.1,0,0.3,0.1,0.4c0,0.1,0.1,0.1,0.1,0.2
				c0,0.1,0.1,0.1,0.1,0.1c0.2,0.1,0.2,0,0.3-0.1c0,0,0,0,0.1-0.1c0.1-0.1,0.1-0.2,0.2-0.2c0,0,0.1,0.1,0.2,0.1
				c0,0.1-0.1,0.1-0.1,0.3c0,0.1,0,0.2,0,0.3c-0.1,0-0.2-0.1-0.3,0.1c0,0-0.1,0.1-0.1,0.1c0,0-0.1,0.1-0.1,0.2
				c-0.1,0.3,0.2,0.5,0.5,0.3c0,0,0.2-0.1,0.2-0.1c0.1-0.1,0.1-0.1,0.2-0.1c0.1,0,0.1-0.1,0.2-0.1c0.2,0,0.2-0.1,0.3-0.2
				c0,0,0.1-0.1,0.1-0.1c0,0,0-0.1,0.1-0.2c0.1-0.1,0.1-0.4,0.1-0.5c0-0.3-0.1-0.6-0.3-0.9c0-0.1-0.2-0.3-0.3-0.3c0,0,0,0,0,0
				c0,0,0,0,0,0L43.7,41c0,0-0.1,0-0.1-0.1C43.6,40.9,43.5,40.9,43.4,41C43.5,41,43.5,41,43.4,41"/>
			<path class="st3" d="M66,44.7L66,44.7c0.8,0,1.5,0.7,1.5,1.5v7.2c0,1,0.1,1.7,0.3,2.1c0.4,0.8,1.1,1.2,2.3,1.2
				c1.2,0,2-0.4,2.3-1.2c0.2-0.4,0.3-1.2,0.3-2.1v-7.2c0-0.8,0.7-1.5,1.5-1.5c0.8,0,1.5,0.7,1.5,1.5v7.2c0,1.5-0.2,2.7-0.7,3.5
				c-0.9,1.5-2.5,2.3-5,2.3c-2.5,0-4.1-0.8-5-2.3c-0.5-0.8-0.7-2-0.7-3.5v-7.2C64.5,45.4,65.2,44.7,66,44.7"/>
			<path class="st3" d="M87.8,52.8c-0.8,0.7-2.1,1.1-3.6,1.1h-1.5c-0.8,0-1.5,0.7-1.5,1.5v2.2c0,0.8-0.7,1.5-1.5,1.5
				c-0.8,0-1.5-0.7-1.5-1.5V46.2c0-0.8,0.7-1.5,1.5-1.5h4.7c1.4,0,2.6,0.4,3.4,1.1c0.8,0.7,1.3,1.9,1.3,3.4
				C89.1,50.9,88.7,52.1,87.8,52.8 M85.5,47.7c-0.4-0.3-0.9-0.5-1.6-0.5h-1.2c-0.8,0-1.5,0.7-1.5,1.5v1.2c0,0.8,0.7,1.5,1.5,1.5h1.2
				c0.7,0,1.2-0.2,1.6-0.5c0.4-0.3,0.6-0.9,0.6-1.6C86.1,48.5,85.9,48,85.5,47.7"/>
			<path class="st3" d="M37.1,46.9c-1.6,2.2-2.8,4-3.5,5.4L33.2,53l0,0.1l0,0.2c0.1,0,0.1,0,0.2,0c0.1,0,0.3,0,0.6,0.1
				c0.2,0,0.4,0,0.4,0c0.5,0.1,1,0.2,1.5,0.3c0.5,0.1,0.9,0.2,1.2,0.3c0.3,0.1,0.7,0.2,1.3,0.5c0.6,0.2,1,0.3,1.2,0.4
				c0.1,0.1,0.2,0.1,0.3,0.2c0.1,0.1,0.1,0.2,0,0.4c0,0.1-0.1,0.2-0.2,0.3c-0.1,0.1-0.2,0.1-0.4,0L38,55.4l-1.3-0.4
				c-0.3-0.1-0.6-0.2-1.1-0.3c-0.5-0.1-0.9-0.2-1.4-0.3c0,0-0.2,0-0.3,0c-0.3,0-0.4,0-0.6-0.1l-0.1,0c0.1,1.8,0.1,3.1,0.2,3.9
				c0,0.1,0,0.2-0.1,0.3c-0.1,0.1-0.2,0.2-0.3,0.2c-0.1,0-0.2,0-0.3-0.1c-0.1-0.1-0.2-0.2-0.2-0.3c0-0.8-0.1-2.2-0.2-4.2
				c-0.1-0.1-0.1-0.1-0.2-0.2C32,53.7,32,53.6,32,53.5c0,0,0-0.1,0-0.1c0,0,0-0.1,0-0.1c0-0.1,0-0.1,0.1-0.2l0.1-0.2
				c0-0.8-0.1-1.6-0.1-2.2c0-0.5,0-1.5,0-3.2c0-1.4,0-2.4-0.1-3.1c0-0.1,0-0.2,0.1-0.3c0.1-0.1,0.2-0.2,0.3-0.2c0.1,0,0.2,0,0.4,0.1
				C33,44,33,44.1,33,44.2c0.1,0.8,0.1,1.9,0.1,3.3c0,1.7-0.1,2.7,0,3.2l0,0.6c0.7-1.3,1.8-2.9,3.3-4.9c0.1-0.1,0.2-0.2,0.3-0.2
				c0.1,0,0.2,0,0.4,0.1s0.2,0.2,0.2,0.3C37.3,46.7,37.2,46.8,37.1,46.9"/>
			<path class="st3" d="M43.4,45.6c0.3,3.3,0.5,7.6,0.5,13.1c0,0.1,0,0.2-0.1,0.3c-0.1,0.1-0.2,0.1-0.3,0.1c-0.1,0-0.2,0-0.3-0.1
				c-0.1-0.1-0.1-0.2-0.1-0.3c0-5.5-0.2-9.8-0.5-13c0-0.1,0-0.2,0.1-0.3c0.1-0.1,0.2-0.2,0.3-0.2c0.1,0,0.2,0,0.4,0.1
				C43.3,45.3,43.4,45.4,43.4,45.6"/>
			<path class="st3" d="M52,43.8c0,0.4,0.1,0.9,0.1,1.3s0,1,0,1.6c0,0.6,0,1.1,0,1.3c0,1.2,0,4.4-0.1,6.7c-0.1,2.3-0.1,2.6-0.1,3.8
				c0,0.1,0,0.2-0.1,0.3c-0.1,0.1-0.2,0.1-0.3,0.1c-0.1,0-0.2,0-0.3-0.1c-0.1-0.1-0.1-0.2-0.1-0.3c0-0.8,0-0.2,0-1.2
				c-0.8,0.3-1.7,0.4-2.6,0.1c-0.6-0.2-1.2-0.5-1.6-0.8c-0.4-0.4-0.7-0.8-0.8-1.3c-0.1-0.5-0.2-0.9-0.1-1.4c0-0.5,0.2-0.9,0.4-1.3
				c0.2-0.4,0.5-0.8,0.9-1c0.4-0.3,0.8-0.4,1.3-0.4c0.9,0,1.7,0.4,2.6,1.1c0-1.1,0-3.5,0-4.3c0-0.2,0-0.7,0-1.3c0-0.6,0-1.1,0-1.6
				c0-0.4,0-0.8-0.1-1.2c0-0.1,0-0.3,0.1-0.4c0.1-0.1,0.2-0.2,0.3-0.2c0.1,0,0.2,0,0.4,0.1C52,43.5,52,43.6,52,43.8 M51,53.5
				c-0.9-1-1.7-1.5-2.5-1.5c-0.6,0-1.1,0.3-1.5,1c-0.2,0.3-0.3,0.6-0.3,1c0,0.3,0,0.7,0.1,1c0.1,0.3,0.3,0.6,0.6,0.9
				c0.3,0.3,0.7,0.5,1.1,0.6c0.9,0.3,1.7,0.2,2.3-0.2c0,0,0,0,0.1,0c0-0.3,0-0.8,0-1.4C51.1,54.2,51.1,53.8,51,53.5L51,53.5z"/>
			<path class="st3" d="M58.7,47.6c-0.2-0.7-0.5-1.1-0.9-1.4c-0.4-0.3-0.8-0.4-1.3-0.4c-0.4,0-0.8,0.2-1.2,0.6
				c-0.4,0.4-0.6,0.9-0.7,1.6c-0.1,0.8-0.1,1.5,0.1,2c0.1,0.3,0.3,0.6,0.5,0.9c0.2,0.3,0.5,0.7,0.9,1.2c0.4,0.5,0.6,0.9,0.8,1.1
				c0.5,0.7,0.9,1.4,1.1,2c0.3,0.6,0.3,1.3,0.2,2c-0.1,0.7-0.5,1.3-1.2,1.7c-0.5,0.3-1,0.4-1.4,0.2c-0.4-0.1-0.7-0.3-1-0.7
				c-0.4-0.5-0.7-1.3-0.8-2.2c0-0.1,0-0.2,0.1-0.3c0.1-0.1,0.2-0.2,0.3-0.2c0.1,0,0.2,0,0.4,0.1c0.1,0.1,0.2,0.2,0.2,0.3
				c0.1,0.8,0.3,1.4,0.6,1.8c0.2,0.2,0.3,0.3,0.5,0.4c0.2,0.1,0.4,0,0.7-0.2c0.4-0.2,0.6-0.6,0.7-1c0.1-0.5,0-1-0.2-1.6
				c-0.2-0.5-0.5-1.1-1-1.8c-0.1-0.2-0.4-0.5-0.8-1c-0.4-0.5-0.7-1-0.9-1.3c-0.2-0.4-0.4-0.7-0.6-1.1c-0.3-0.6-0.3-1.4-0.2-2.4
				c0.1-0.9,0.5-1.6,1-2.1c0.5-0.5,1.1-0.8,1.8-0.9c0.7-0.1,1.3,0.1,1.9,0.6c0.6,0.4,1,1.1,1.3,1.9c0,0.1,0,0.2,0,0.4
				c-0.1,0.1-0.1,0.2-0.3,0.2c-0.1,0-0.2,0-0.4,0C58.9,47.8,58.8,47.7,58.7,47.6"/>
		</g>
		<g>
			<g>
				<path class="st1" d="M110.4,77.4c-0.5,0-0.8-0.4-0.8-0.8c0-0.5,0.4-0.9,0.8-0.9l4.2-0.1c1.1,0,1.9-0.9,1.9-2l0-16.6l-6.4-25.4
					c-0.4-1.9-1.6-5.1-5-5.1H28c-1.3,0-2.6,0.5-3.5,1.4s-1.4,2.2-1.4,3.5l0.2,42.2c0,1,0.9,1.9,1.9,1.9l1.3,0c3.3,0,3.3,0,3.6,0.2
					c0.4,0.3,0.4,0.8,0.2,1.2c-0.2,0.2-0.5,0.4-0.8,0.3c-0.3,0-1.9,0-3,0l-1.3,0c-2,0-3.6-1.6-3.6-3.6l-0.2-42.2
					c0-1.8,0.7-3.4,1.9-4.7c1.3-1.3,2.9-1.9,4.7-1.9h77.1c3.3,0,5.7,2.3,6.6,6.4l6.5,25.5c0,0.1,0,0.1,0,0.2l0,16.7
					c0,2-1.6,3.6-3.6,3.7L110.4,77.4C110.4,77.4,110.4,77.4,110.4,77.4z"/>
				<path class="st1" d="M110.4,77.5L110.4,77.5c-0.5,0-1-0.4-1-1c0-0.3,0.1-0.5,0.3-0.7s0.4-0.3,0.7-0.3l4.2-0.1
					c1,0,1.8-0.9,1.8-1.9l0-16.6l-6.4-25.4c-0.4-1.9-1.6-5-4.8-5H28c-1.3,0-2.5,0.5-3.4,1.4c-0.9,0.9-1.4,2.1-1.4,3.4l0.2,42.2
					c0,1,0.8,1.8,1.8,1.8l1.3,0c3.4,0,3.4,0,3.6,0.2c0.2,0.2,0.3,0.4,0.4,0.6c0,0.3,0,0.5-0.2,0.7c-0.2,0.3-0.5,0.4-0.9,0.4
					c-0.2,0-1.4,0-2.4,0l-1.9,0c-2.1,0-3.7-1.7-3.7-3.7l-0.2-42.2c0-1.8,0.7-3.5,2-4.8c1.3-1.3,3-2,4.8-2h77.1
					c3.4,0,5.8,2.4,6.7,6.5l6.4,25.5c0,0.1,0,0.2,0,0.2l0,16.7c0,2.1-1.6,3.8-3.7,3.8L110.4,77.5z M28,26.4h77.1
					c3.4,0,4.6,3.3,5.1,5.2l6.4,25.4l0,16.6c0,1.1-0.9,2.1-2,2.1l-4.2,0.1c-0.2,0-0.4,0.1-0.5,0.2s-0.2,0.3-0.2,0.5
					c0,0.4,0.3,0.7,0.7,0.7h0l4.2-0.1c1.9,0,3.5-1.6,3.5-3.6l0-16.7c0-0.1,0-0.1,0-0.2l-6.5-25.5c-0.9-4-3.3-6.3-6.5-6.3H28
					c-1.7,0-3.4,0.7-4.6,1.9c-1.2,1.2-1.9,2.9-1.9,4.6l0.2,42.2c0,1.9,1.6,3.5,3.5,3.5l1.9,0c1,0,2.2,0,2.4,0c0.2,0,0.5-0.1,0.7-0.3
					c0.1-0.2,0.2-0.3,0.1-0.5c0-0.2-0.1-0.4-0.3-0.5c-0.2-0.2-0.2-0.2-3.5-0.2l-1.3,0c-1.1,0-2.1-0.9-2.1-2l-0.2-42.2
					c0-1.4,0.5-2.6,1.5-3.6C25.4,26.9,26.6,26.4,28,26.4z"/>
			</g>
			<g>
				<path class="st1" d="M66.9,77.5c-8.1,0-15.6,0-20.9-0.1c-0.5,0-0.8-0.4-0.8-0.9c0-0.5,0.4-0.8,0.9-0.8
					c8.5,0.2,23.1,0.1,36.1,0.1c4.3,0,8.2,0,11.6,0c0.5,0,0.9,0.4,0.9,0.8s-0.4,0.8-0.9,0.8c-3.4,0-7.4,0-11.6,0
					C77.2,77.5,71.9,77.5,66.9,77.5z"/>
				<path class="st1" d="M66.9,77.6c-9.7,0-16.3,0-20.9-0.1c-0.5,0-1-0.5-1-1c0-0.5,0.4-1,1-1c8.5,0.2,23.1,0.1,35.9,0.1l1,0
					c3.9,0,7.6,0,10.8,0c0.5,0,1,0.4,1,1s-0.4,1-1,1c-3.4,0-7.4,0-11.6,0C77.2,77.6,71.9,77.6,66.9,77.6z M46.1,75.8
					c-0.4,0-0.7,0.3-0.7,0.7c0,0.4,0.3,0.7,0.7,0.7c4.6,0.1,11.2,0.1,20.9,0.1c5,0,10.2,0,15.2,0c4.3,0,8.2,0,11.6,0
					c0.4,0,0.7-0.3,0.7-0.7s-0.3-0.7-0.7-0.7c-3.2,0-6.9,0-10.8,0l-1,0C69.1,75.9,54.5,75.9,46.1,75.8z"/>
			</g>
			<g>
				<path class="st1" d="M102,82.6c-3.3,0-6-2.7-6-6c0-3.3,2.7-6,6-6c3.3,0,6,2.7,6,6C108.1,79.9,105.4,82.6,102,82.6z M102,72.3
					c-2.4,0-4.3,1.9-4.3,4.3c0,2.4,1.9,4.3,4.3,4.3c2.4,0,4.3-1.9,4.3-4.3C106.4,74.2,104.4,72.3,102,72.3z"/>
				<path class="st1" d="M102,82.7c-3.4,0-6.2-2.8-6.2-6.2c0-3.4,2.8-6.2,6.2-6.2c3.4,0,6.2,2.8,6.2,6.2
					C108.2,80,105.4,82.7,102,82.7z M102,70.7c-3.3,0-5.9,2.6-5.9,5.9c0,3.3,2.6,5.9,5.9,5.9c3.3,0,5.9-2.6,5.9-5.9
					C107.9,73.3,105.3,70.7,102,70.7z M102,81c-2.5,0-4.5-2-4.5-4.5c0-2.5,2-4.5,4.5-4.5c2.5,0,4.5,2,4.5,4.5
					C106.5,79.1,104.5,81,102,81z M102,72.4c-2.3,0-4.2,1.9-4.2,4.2s1.9,4.2,4.2,4.2c2.3,0,4.2-1.9,4.2-4.2S104.4,72.4,102,72.4z"/>
			</g>
			<g>
				<path class="st1" d="M37.7,82.6c-3.3,0-6-2.7-6-6c0-3.3,2.7-6,6-6s6,2.7,6,6C43.8,79.9,41.1,82.6,37.7,82.6z M37.7,72.3
					c-2.4,0-4.3,1.9-4.3,4.3c0,2.4,1.9,4.3,4.3,4.3s4.3-1.9,4.3-4.3C42.1,74.2,40.1,72.3,37.7,72.3z"/>
				<path class="st1" d="M37.7,82.7c-3.4,0-6.2-2.8-6.2-6.2c0-3.4,2.8-6.2,6.2-6.2s6.2,2.8,6.2,6.2C43.9,80,41.1,82.7,37.7,82.7z
					 M37.7,70.7c-3.3,0-5.9,2.6-5.9,5.9c0,3.3,2.6,5.9,5.9,5.9s5.9-2.6,5.9-5.9C43.6,73.3,41,70.7,37.7,70.7z M37.7,81
					c-2.5,0-4.5-2-4.5-4.5c0-2.5,2-4.5,4.5-4.5s4.5,2,4.5,4.5C42.2,79.1,40.2,81,37.7,81z M37.7,72.4c-2.3,0-4.2,1.9-4.2,4.2
					s1.9,4.2,4.2,4.2s4.2-1.9,4.2-4.2S40,72.4,37.7,72.4z"/>
			</g>
			<g>
				<path class="st1" d="M114.7,68.6h-1c-1.4,0-2.6-1.2-2.6-2.6v-2.3c0-1.4,1.2-2.6,2.6-2.6h0.8c0.5,0,0.9,0.4,0.9,0.8
					s-0.4,0.8-0.9,0.8h-0.8c-0.5,0-0.9,0.4-0.9,0.9V66c0,0.5,0.4,0.9,0.9,0.9h1c0.5,0,0.9,0.4,0.9,0.8S115.2,68.6,114.7,68.6z"/>
				<path class="st1" d="M114.7,68.7h-1c-1.5,0-2.7-1.2-2.7-2.7v-2.3c0-1.5,1.2-2.7,2.7-2.7h0.8c0.5,0,1,0.4,1,1s-0.4,1-1,1h-0.8
					c-0.4,0-0.8,0.3-0.8,0.8V66c0,0.4,0.3,0.8,0.8,0.8h1c0.5,0,1,0.4,1,1S115.2,68.7,114.7,68.7z M113.7,61.3
					c-1.4,0-2.5,1.1-2.5,2.5V66c0,1.4,1.1,2.5,2.5,2.5h1c0.4,0,0.7-0.3,0.7-0.7s-0.3-0.7-0.7-0.7h-1c-0.6,0-1-0.5-1-1v-2.3
					c0-0.6,0.5-1,1-1h0.8c0.4,0,0.7-0.3,0.7-0.7s-0.3-0.7-0.7-0.7H113.7z"/>
			</g>
			<g>
				<path class="st1" d="M107.9,59.4h-5.2c-0.8,0-1.6-0.3-2.2-0.9L95.9,54c0,0,0,0,0,0c-0.6-0.6-0.9-1.4-0.9-2.2l-0.1-18.8
					c0-1.7,1.4-3.1,3.1-3.1l5.2,0c0,0,0,0,0,0c1.4,0,2.6,0.9,3,2.3c0.7,2.5,2,7.2,3.3,12c1,3.5,1.9,7,2.7,9.7
					c0.4,1.3,0.1,2.7-0.7,3.8C110.5,58.8,109.2,59.4,107.9,59.4z M97.1,52.8l4.6,4.5c0.3,0.3,0.6,0.4,1,0.4h5.2c0.8,0,1.6-0.4,2.1-1
					c0.5-0.7,0.7-1.5,0.4-2.3c-0.7-2.7-1.7-6.2-2.6-9.7c-1.3-4.8-2.6-9.6-3.3-12.1c-0.2-0.6-0.7-1-1.4-1l-5.2,0
					c-0.8,0-1.4,0.6-1.4,1.4l0.1,18.8C96.7,52.2,96.8,52.6,97.1,52.8L97.1,52.8z"/>
				<path class="st1" d="M107.9,59.5h-5.2c-0.8,0-1.6-0.3-2.2-0.9l-4.7-4.5c-0.6-0.6-0.9-1.4-0.9-2.3l-0.1-18.8
					c0-1.8,1.4-3.2,3.2-3.2l5.2,0c1.5,0,2.8,1,3.1,2.4c0.7,2.5,2,7.4,3.3,12c1,3.5,1.9,7,2.7,9.7c0.4,1.3,0.1,2.8-0.8,3.9
					C110.6,58.9,109.3,59.5,107.9,59.5z M96,54l4.6,4.4c0.6,0.5,1.3,0.8,2.1,0.8h5.2c1.3,0,2.5-0.6,3.3-1.6c0.8-1,1.1-2.4,0.7-3.6
					c-0.7-2.7-1.7-6.2-2.7-9.7c-1.3-4.7-2.6-9.5-3.3-12c-0.3-1.3-1.5-2.2-2.9-2.2l-5.2,0c-1.6,0-3,1.4-2.9,3l0.1,18.8
					C95.1,52.6,95.4,53.4,96,54L96,54L96,54z M107.9,57.8h-5.2c-0.4,0-0.8-0.2-1.1-0.4L97,52.9c-0.3-0.3-0.5-0.7-0.5-1.1L96.4,33
					c0-0.8,0.7-1.5,1.5-1.5l5.2,0c0.7,0,1.3,0.5,1.5,1.1c0.7,2.5,2,7.4,3.3,12.1l0.1,0.2c0.9,3.4,1.9,6.8,2.6,9.5
					c0.2,0.8,0.1,1.7-0.5,2.4C109.5,57.4,108.7,57.8,107.9,57.8z M103.1,31.7l-5.2,0c-0.7,0-1.3,0.6-1.3,1.3l0.1,18.8
					c0,0.3,0.1,0.7,0.4,0.9l4.6,4.5c0.2,0.2,0.6,0.4,0.9,0.4h5.2c0.8,0,1.5-0.4,2-1c0.5-0.6,0.6-1.4,0.4-2.2
					c-0.7-2.7-1.7-6.1-2.6-9.5l-0.1-0.2c-1.3-4.7-2.6-9.5-3.3-12.1C104.2,32.1,103.7,31.7,103.1,31.7z"/>
			</g>
		</g>
	</g>
</g>
</svg>
