<svg xmlns="http://www.w3.org/2000/svg" width="376" height="107" viewBox="0 0 376 107">
  <g id="グループ_1040" data-name="グループ 1040" transform="translate(-150 -1938)">
    <rect id="長方形_166" data-name="長方形 166" width="376" height="107" rx="10" transform="translate(150 1938)" fill="#5a534a"/>
    <path id="長方形_166_-_アウトライン" data-name="長方形 166 - アウトライン" d="M10,3a7.008,7.008,0,0,0-7,7V97a7.008,7.008,0,0,0,7,7H366a7.008,7.008,0,0,0,7-7V10a7.008,7.008,0,0,0-7-7H10m0-3H366a10,10,0,0,1,10,10V97a10,10,0,0,1-10,10H10A10,10,0,0,1,0,97V10A10,10,0,0,1,10,0Z" transform="translate(150 1938)" fill="#fff"/>
    <path id="パス_5930" data-name="パス 5930" d="M-68.8-6.9v1.921h-2.5a14.206,14.206,0,0,1-1.887-.085v1.9A16.953,16.953,0,0,1-71.3-3.247h2.5V-.952h-4.216a17.273,17.273,0,0,1-2.176-.1V.935A14.66,14.66,0,0,1-73.066.816h10.608a14.916,14.916,0,0,1,2.142.119V-1.054a17.914,17.914,0,0,1-2.159.1H-66.9V-3.247h2.754a16.828,16.828,0,0,1,1.87.085v-1.9a15.952,15.952,0,0,1-1.87.085H-66.9V-6.9h2.4a16.577,16.577,0,0,1,1.8.085V-8.058c.765.442,1.258.714,2.023,1.071a8.035,8.035,0,0,1,1.088-1.955A15.4,15.4,0,0,1-63.75-11.1a12.4,12.4,0,0,1-3.026-3.009h-2.159a7.141,7.141,0,0,1-.918,1.224,15.228,15.228,0,0,1-1.87,1.785,16.49,16.49,0,0,1-4.114,2.244,10.716,10.716,0,0,1,1.122,1.8,15.129,15.129,0,0,0,1.853-.969v1.207A16.7,16.7,0,0,1-71.009-6.9Zm-2.346-1.717c-.255,0-.408,0-.748-.017a13.647,13.647,0,0,0,4.1-3.859,15.243,15.243,0,0,0,4.182,3.859c-.323.017-.442.017-.8.017Zm27.761,7.412C-45.441-3.2-45.441-3.2-45.866-3.57a26.349,26.349,0,0,0-3.145-2.465,22.515,22.515,0,0,0,2.652-4.692,3.269,3.269,0,0,1,.544-.918L-46.937-12.8a3.683,3.683,0,0,1-1.513.187l-5.984.085h-.408a7.44,7.44,0,0,1-1.5-.1l.068,2.176a13.4,13.4,0,0,1,1.853-.136c5.355-.085,5.355-.085,5.627-.1l-.187.442a16.386,16.386,0,0,1-5.712,6.919,14.035,14.035,0,0,1-3.4,1.87A6.82,6.82,0,0,1-56.712.425a20.2,20.2,0,0,0,6.477-4.913A32.68,32.68,0,0,1-45.016.561Zm14.926-10.744a3.012,3.012,0,0,1-1.241.17l-3.723.051c-.323,0-.595.017-.816.034a4.009,4.009,0,0,0,.272-.544l.221-.442a3.431,3.431,0,0,1,.221-.476,3.477,3.477,0,0,1,.289-.527l-2.329-.459a6.345,6.345,0,0,1-.867,2.244,13.077,13.077,0,0,1-4.4,4.93,4.517,4.517,0,0,1,1.649,1.462A16.639,16.639,0,0,0-35.207-9.86l5.117-.085a13.462,13.462,0,0,1-4.964,7.174A15.309,15.309,0,0,1-38.777-.765,5.238,5.238,0,0,1-37.332,1.02,17.174,17.174,0,0,0-31.28-3.3,17.633,17.633,0,0,0-27.8-9.86a3.2,3.2,0,0,1,.425-1.02Zm4.42,6.613a18.662,18.662,0,0,1,2.771-.085h9.027a18.662,18.662,0,0,1,2.771.085V-7.7a16.7,16.7,0,0,1-2.754.119h-9.061A16.7,16.7,0,0,1-24.038-7.7Zm19.244-7.956a8.544,8.544,0,0,1,.068,1.547c0,4.76-.391,6.953-1.615,8.908A6.984,6.984,0,0,1-8.092-.884,6.05,6.05,0,0,1-6.375.765,10.826,10.826,0,0,0-4.029-2.38c.884-1.751,1.258-3.672,1.377-6.987a35.527,35.527,0,0,1,.17-3.808Zm4.5-.119a7.358,7.358,0,0,1,.068,1.122v.51L-.306-2.193a7.618,7.618,0,0,1-.153,1.8L.629.765A7.4,7.4,0,0,1,1.36.459a11.228,11.228,0,0,0,3.621-2.04,10.55,10.55,0,0,0,2.7-3.961,7.126,7.126,0,0,1-1.6-1.6A8.307,8.307,0,0,1,4.42-4.029a6.835,6.835,0,0,1-2.6,1.938L1.9-11.764a9.212,9.212,0,0,1,.119-1.615Zm11.7.323a16.718,16.718,0,0,1-2.04-.1v1.87a17.728,17.728,0,0,1,2.006-.1h4.709c-.085.323-.17.663-.255.918H15.4c-1.054,0-1.513-.017-2.04-.051A16.9,16.9,0,0,1,13.43-8.6v4.845a17.2,17.2,0,0,1-.068,1.9c.561-.034.935-.051,2.006-.051h5.389a20.073,20.073,0,0,1,2.023.051,16.423,16.423,0,0,1-.068-1.9V-8.6a16.9,16.9,0,0,1,.068-1.955c-.51.034-.969.051-2.023.051H17.748c.119-.442.153-.578.238-.918H22.2a16.54,16.54,0,0,1,2.125.085v-1.853a17.1,17.1,0,0,1-2.125.1H18.36c.119-.493.119-.493.153-.663a3.448,3.448,0,0,1,.119-.544l-2.04-.17a8.2,8.2,0,0,1-.153,1.377Zm3.825,4.148h5.627v.85H15.232Zm0,2.3h5.627v.833H15.232Zm0,2.312h5.627v.867H15.232ZM11.917-1.02V-8.126A17.546,17.546,0,0,1,12-9.928H9.877a15.791,15.791,0,0,1,.085,1.9V-.986a20.905,20.905,0,0,1-.1,2.346H11.9V.68H22.338a15.926,15.926,0,0,1,2.006.1v-1.9a11.284,11.284,0,0,1-1.836.1Zm16.32-11.05c-.765,0-1.241-.017-1.8-.068a15.247,15.247,0,0,1,.068,1.547v1.343a11.1,11.1,0,0,1-.085,1.326h1.87v-2.567H39.236v2.567h1.87a10.724,10.724,0,0,1-.068-1.343v-1.36a12.784,12.784,0,0,1,.051-1.513,17.229,17.229,0,0,1-1.819.068H38.25c.323-.476.833-1.309,1.122-1.836L37.4-14.348a11.639,11.639,0,0,1-1.207,2.278H34.969a22.573,22.573,0,0,0-1.037-2.261l-1.9.306a15.688,15.688,0,0,1,.952,1.955H31.416a15.826,15.826,0,0,0-1.275-2.108l-1.87.391a9.155,9.155,0,0,1,1.088,1.717ZM32.5-5.253a6.839,6.839,0,0,1-.629,1.207h-2.8a12.941,12.941,0,0,1-1.581-.068A12.966,12.966,0,0,1,27.574-2.5v2.21c0,.578-.034,1.1-.085,1.683h1.887V.731H38.1v.663h1.921a11.056,11.056,0,0,1-.085-1.666v-2.21A12.82,12.82,0,0,1,40-4.114a12.685,12.685,0,0,1-1.615.068H33.864a11.2,11.2,0,0,0,.578-1.207h2.414a17.558,17.558,0,0,1,1.785.068,10.8,10.8,0,0,1-.051-1.53V-8.279a8.611,8.611,0,0,1,.051-1.343,8.776,8.776,0,0,1-1.241.068H30.158a9.4,9.4,0,0,1-1.292-.068,8.644,8.644,0,0,1,.068,1.292v1.615a11.86,11.86,0,0,1-.068,1.53,15.735,15.735,0,0,1,1.785-.068ZM30.7-8.126h6.1v1.445H30.7ZM29.376-2.55h8.738V-.9H29.376ZM54.689-6.97a10.235,10.235,0,0,1-1.343,2.737A10.79,10.79,0,0,1,52-6.885L50.456-6.1a13.383,13.383,0,0,0,1.768,3.264A10.172,10.172,0,0,1,47.855-.187a5.964,5.964,0,0,1,1.054,1.649,12.422,12.422,0,0,0,4.437-2.941,12.1,12.1,0,0,0,4.539,2.907,6.8,6.8,0,0,1,.952-1.853,10.269,10.269,0,0,1-4.352-2.448,17.515,17.515,0,0,0,1.887-3.383Zm-3.672-3.366a9.158,9.158,0,0,1-2.329,3.349A7.644,7.644,0,0,1,47.09-9.5h.68a9.576,9.576,0,0,1,.986.051V-11.2a5.893,5.893,0,0,1-1.02.068h-.68v-1.411a14.589,14.589,0,0,1,.085-1.768h-1.9a11.464,11.464,0,0,1,.085,1.768v1.411h-.85a9.352,9.352,0,0,1-1.309-.068v1.768A10,10,0,0,1,44.472-9.5h.663a15.28,15.28,0,0,1-2.448,5.236,11.263,11.263,0,0,1,.935,1.921,13.906,13.906,0,0,0,1.8-4.012c-.051.918-.068,1.394-.068,1.394l-.017.867V-.612a13.559,13.559,0,0,1-.119,2.091h1.938a16.866,16.866,0,0,1-.1-2.091V-4.726c0-.187-.017-1.054-.017-1.122C47-6.783,47-6.783,46.988-7.089a15.338,15.338,0,0,0,1.1,2.006,9.765,9.765,0,0,1,.561-1.241A5.34,5.34,0,0,1,49.487-5.2a13.476,13.476,0,0,0,3.162-4.4Zm1.445-1.853H50.983a14.09,14.09,0,0,1-1.887-.1V-10.4a15.1,15.1,0,0,1,1.9-.1h5.61c.748,0,1.326.034,1.887.085v-1.87a13.988,13.988,0,0,1-1.87.1H54.315v-.731a6.232,6.232,0,0,1,.085-1.241H52.377a6.717,6.717,0,0,1,.085,1.275Zm1.7,2.635A12.348,12.348,0,0,0,57.6-5.372,6.979,6.979,0,0,1,58.65-6.987a10.185,10.185,0,0,1-3.009-3.4Zm6.46-.085a21.336,21.336,0,0,1,2.822-.34c3.3-.238,4.352-.34,5.729-.544A7.517,7.517,0,0,0,66.81-8.806a5.92,5.92,0,0,0-1.615,3.995,4.548,4.548,0,0,0,2.431,4.1A10.227,10.227,0,0,0,71.6.408c.323.051.357.051.578.1L72.488-1.8c-.17.017-.323.017-.34.017a10.316,10.316,0,0,1-2.533-.442A2.854,2.854,0,0,1,67.354-5c0-1.717,1.275-3.417,3.434-4.539a7.6,7.6,0,0,1,3.366-.918,2.632,2.632,0,0,1,.357.017L74.392-12.6a9.159,9.159,0,0,1-1.751.136c-4.539.221-7.446.374-8.687.442-2.5.17-2.5.17-2.805.17-.085,0-.272,0-.646-.017Zm10.4,1.632a11.474,11.474,0,0,1,1.785,2.533L74-6.1a11.017,11.017,0,0,0-1.785-2.5Zm5,.8a9.831,9.831,0,0,0-1.768-2.4l-1.139.6a12.526,12.526,0,0,1,1.734,2.465ZM-52.071,8.91H-56.78a13.887,13.887,0,0,1-1.853-.1v1.717a13.083,13.083,0,0,1,1.751-.085h11.73a13.2,13.2,0,0,1,1.768.085V8.808a13.143,13.143,0,0,1-1.785.1h-5.015V8.689a5.4,5.4,0,0,1,.1-1.054h-2.091a5.328,5.328,0,0,1,.1,1.071Zm-3.978,4.828A12.109,12.109,0,0,1-56.1,15a14.577,14.577,0,0,1,1.6-.068h7.038a13.253,13.253,0,0,1,1.6.068,11.664,11.664,0,0,1-.051-1.258V12.276c0-.544.017-.8.051-1.241a12.605,12.605,0,0,1-1.513.068h-7.072a14.589,14.589,0,0,1-1.649-.068c.034.408.051.7.051,1.241Zm1.768-1.258H-47.7v1.037h-6.579Zm-3.876,9.1a12.34,12.34,0,0,1-.1,1.87h2.006a11.612,11.612,0,0,1-.1-1.87V17.053h10.71v4.233c0,.272-.085.357-.408.357-.476,0-1.207-.051-2.142-.153a3.865,3.865,0,0,1,.374,1.7c.272,0,.272,0,.544.017.544.034.629.034.986.034,1.19,0,1.7-.1,2.04-.408.323-.289.408-.612.408-1.462V17.036a14.274,14.274,0,0,1,.068-1.53,13.619,13.619,0,0,1-1.666.068H-56.457c-.731,0-1.224-.017-1.768-.068a15.029,15.029,0,0,1,.068,1.547Zm10.778-2.822a9.115,9.115,0,0,1,.051-1.088c-.51.034-.748.051-1.394.051H-53.38c-.629,0-.986-.017-1.377-.051a10.181,10.181,0,0,1,.051,1.122v1.972a8.914,8.914,0,0,1-.068,1.377h1.751v-.85h4.284c.459,0,1.088.017,1.411.051a10.092,10.092,0,0,1-.051-1.139Zm-5.644.255h4.012v.935h-4.012Zm12.342-9.5a8.123,8.123,0,0,1,.068,1.088c.068,4.709.374,7.174,1.071,8.874.68,1.632,1.6,2.465,2.737,2.465,1.445,0,2.431-1.377,3.315-4.692a8.392,8.392,0,0,1-1.7-1.547,12.533,12.533,0,0,1-.9,3.077c-.2.476-.442.731-.7.731-.544,0-1.088-1.088-1.377-2.856a31.813,31.813,0,0,1-.323-4.556,19.763,19.763,0,0,1,.136-2.584ZM-32.1,11.12A14.839,14.839,0,0,1-29.682,15.3a17.234,17.234,0,0,1,1.088,4.913l2.108-.8a16.949,16.949,0,0,0-3.825-9.146Zm20.383-1.071a3.012,3.012,0,0,1-1.241.17l-3.723.051c-.323,0-.595.017-.816.034a4.009,4.009,0,0,0,.272-.544L-17,9.318a3.431,3.431,0,0,1,.221-.476,3.477,3.477,0,0,1,.289-.527l-2.329-.459a6.345,6.345,0,0,1-.867,2.244,13.077,13.077,0,0,1-4.4,4.93,4.517,4.517,0,0,1,1.649,1.462,16.639,16.639,0,0,0,3.978-4.352l5.117-.085a13.462,13.462,0,0,1-4.964,7.174,15.309,15.309,0,0,1-3.723,2.006,5.238,5.238,0,0,1,1.445,1.785A17.174,17.174,0,0,0-14.535,18.7,17.633,17.633,0,0,0-11.05,12.14a3.2,3.2,0,0,1,.425-1.02ZM1.275,15.88l.051,5.083v.306a10.824,10.824,0,0,1-.1,1.632H3.536c-.051-.476-.085-1.122-.1-1.955l-.085-7.888H5.1a17.48,17.48,0,0,1,1.955.068V11.069a9.666,9.666,0,0,1-2.006.119H3.332L3.3,9.811v-.1a10.907,10.907,0,0,1,.068-1.445H1.122a12.256,12.256,0,0,1,.085,1.564l.017,1.36H-4.658A9.879,9.879,0,0,1-6.8,11.069v2.074a17.71,17.71,0,0,1,2.091-.085H-.051a16.173,16.173,0,0,1-2.278,2.805,18.092,18.092,0,0,1-5.355,3.689A4.925,4.925,0,0,1-6.273,21.32a24.625,24.625,0,0,0,2.516-1.564A23.4,23.4,0,0,0-.408,16.8a10.3,10.3,0,0,0,1.734-2.38c-.017.272-.051,1.139-.051,1.224ZM11.968,8.587a10.733,10.733,0,0,1,.068,1.53v4.675a12.26,12.26,0,0,1-.085,1.53H14.28a8.206,8.206,0,0,1-.068-1.5V10.134A8.641,8.641,0,0,1,14.28,8.6Zm7.667.034a8.952,8.952,0,0,1,.085,1.615v2.125c0,1.36-.017,2.108-.085,2.839-.187,2.244-.748,3.281-2.346,4.335a9.17,9.17,0,0,1-3.672,1.36,5.808,5.808,0,0,1,1.19,2.023,14.38,14.38,0,0,0,3.315-1.309,6.511,6.511,0,0,0,3.349-3.961,20.079,20.079,0,0,0,.442-5.151V10.2A8.063,8.063,0,0,1,22,8.621ZM39,15.064a16.821,16.821,0,0,1,2.159.085V13.126a12.075,12.075,0,0,1-2.193.119H29.019a11.965,11.965,0,0,1-2.193-.119v2.023a16.821,16.821,0,0,1,2.159-.085h4.148a7.219,7.219,0,0,1-.748,3.213,6.321,6.321,0,0,1-4.029,2.839,5.394,5.394,0,0,1,1.377,1.87c2.3-.918,3.536-1.853,4.437-3.349a9.231,9.231,0,0,0,1.19-4.573ZM28.543,10.916a16.016,16.016,0,0,1,2.159-.085h6.6a16.016,16.016,0,0,1,2.159.085V8.842a11.533,11.533,0,0,1-2.193.119H30.736a11.533,11.533,0,0,1-2.193-.119Zm26.061.1a6.376,6.376,0,0,1-1.037,1.224,19.393,19.393,0,0,1-4.828,3.451,18.131,18.131,0,0,1-4.029,1.53,6.955,6.955,0,0,1,1.054,1.768,23.983,23.983,0,0,0,4.811-2.159v4.556A10.193,10.193,0,0,1,50.49,23l2.193.017a10.042,10.042,0,0,1-.085-1.632v-5.78A22.749,22.749,0,0,0,55.76,12.82a3.315,3.315,0,0,1,.578-.561Z" transform="translate(399 1989)" fill="#fff"/>
    <g id="features-08-07" transform="translate(144.26 1878.88)">
      <path id="線_21" data-name="線 21" d="M73.452,1H0A1,1,0,0,1-1,0,1,1,0,0,1,0-1H73.452a1,1,0,0,1,1,1A1,1,0,0,1,73.452,1Z" transform="translate(57.74 143.059)" fill="#fff"/>
      <path id="パス_50" data-name="パス 50" d="M94.693,81.12a1,1,0,0,1,.558.17l38.534,25.929a1,1,0,0,1-.558,1.83H123.152v34.01a1,1,0,0,1-1,1H67.233a1,1,0,0,1-1-1v-34.01H57.74a1,1,0,0,1-.574-1.819L94.118,81.3A1,1,0,0,1,94.693,81.12Zm35.256,25.929L94.7,83.333l-33.8,23.716h6.327a1,1,0,0,1,1,1v34.01h52.919v-34.01a1,1,0,0,1,1-1Z" transform="translate(0)" fill="#fff"/>
      <path id="パス_51" data-name="パス 51" d="M144.853,190.314c12.2-5.4,18.924-15.412,13.879-22.611-3.526-5.03-10.934-3.729-13.879,0-2.945-3.729-10.352-5.03-13.879,0C125.926,174.9,132.656,184.911,144.853,190.314Z" transform="translate(-50.199 -57.732)" fill="#ef8200"/>
    </g>
  </g>
</svg>
