<svg xmlns="http://www.w3.org/2000/svg" width="220" height="206" viewBox="0 0 220 206">
  <g id="features_sq-8" transform="translate(-11987 -1078)">
    <g id="features_sq-8-2" data-name="features_sq-8" transform="translate(11496 -519)">
      <path id="パス_5987" data-name="パス 5987" d="M0,0H145V145H0Z" transform="translate(529 1597)" fill="#fff"/>
      <path id="パス_5979" data-name="パス 5979" d="M-.74-7.14A13.878,13.878,0,0,1-1.23-3.2,4.92,4.92,0,0,1-2.82-.68,4.538,4.538,0,0,1-5.74.2,4.12,4.12,0,0,1-9.52-1.74a10.26,10.26,0,0,1-1.2-5.4,14.259,14.259,0,0,1,.48-3.95,4.868,4.868,0,0,1,1.58-2.53,4.538,4.538,0,0,1,2.92-.88,4.149,4.149,0,0,1,3.78,1.94A10.168,10.168,0,0,1-.74-7.14Zm-6.98,0A12.069,12.069,0,0,0-7.3-3.47,1.572,1.572,0,0,0-5.74-2.24,1.59,1.59,0,0,0-4.18-3.46a11.538,11.538,0,0,0,.44-3.68,11.65,11.65,0,0,0-.44-3.68,1.6,1.6,0,0,0-1.56-1.24A1.574,1.574,0,0,0-7.3-10.82,12.172,12.172,0,0,0-7.72-7.14ZM5.72-14.46a6.514,6.514,0,0,1,2.27.38,3.784,3.784,0,0,1,1.66,1.15,2.917,2.917,0,0,1,.63,1.91A3.069,3.069,0,0,1,9.55-8.9,5.886,5.886,0,0,1,7.72-7.54a10.1,10.1,0,0,1,1.45.93,4.435,4.435,0,0,1,1.12,1.25,3.175,3.175,0,0,1,.43,1.66,3.446,3.446,0,0,1-.63,2.06A4.049,4.049,0,0,1,8.33-.28,6.629,6.629,0,0,1,5.72.2,5.92,5.92,0,0,1,2.01-.82,3.354,3.354,0,0,1,.7-3.62a3.458,3.458,0,0,1,.8-2.37A6.176,6.176,0,0,1,3.44-7.46,6.317,6.317,0,0,1,1.81-8.91a3.335,3.335,0,0,1-.67-2.13,2.858,2.858,0,0,1,.64-1.89,3.844,3.844,0,0,1,1.69-1.15A6.562,6.562,0,0,1,5.72-14.46Zm-.02,2.2a1.913,1.913,0,0,0-1.23.39,1.293,1.293,0,0,0-.49,1.07A1.526,1.526,0,0,0,4.5-9.6a5.367,5.367,0,0,0,1.22.8,5.213,5.213,0,0,0,1.2-.77,1.542,1.542,0,0,0,.52-1.23,1.283,1.283,0,0,0-.5-1.07A1.955,1.955,0,0,0,5.7-12.26ZM3.5-3.8a1.652,1.652,0,0,0,.55,1.28,2.35,2.35,0,0,0,1.63.5A2.526,2.526,0,0,0,7.36-2.5a1.6,1.6,0,0,0,.56-1.28,1.5,1.5,0,0,0-.32-.95,3.566,3.566,0,0,0-.8-.74q-.48-.33-.96-.61l-.26-.14A5.159,5.159,0,0,0,4.07-5.2,1.925,1.925,0,0,0,3.5-3.8Z" transform="translate(602 1637)" fill="#83c0da"/>
      <g id="グループ_993" data-name="グループ 993" transform="translate(-5.803 -283.468)">
        <g id="_1519308_更新済み_" data-name="1519308 [更新済み]" transform="translate(527.112 1904.488)">
          <path id="パス_5915" data-name="パス 5915" d="M119.3,90.395a1,1,0,0,1-.019-2l4.116-.081a1.739,1.739,0,0,0,1.7-1.749s0,0,0-.007l-.026-16.081-6.238-24.649-.007-.03c-.4-1.8-1.528-4.818-4.635-4.818H39.3a4.613,4.613,0,0,0-4.612,4.628l.15,40.936a1.739,1.739,0,0,0,1.714,1.7l1.281.007,1.954.011.728.007a1.283,1.283,0,0,1,.86.194,1,1,0,0,1-.673,1.81c-.267-.009-1.894-.016-2.878-.021l-1.29-.007a3.73,3.73,0,0,1-3.695-3.679s0-.006,0-.009l-.15-40.942A6.613,6.613,0,0,1,39.3,38.98h74.886a5.9,5.9,0,0,1,4.439,1.935,9.56,9.56,0,0,1,2.146,4.436l6.265,24.755a1,1,0,0,1,.031.244l.026,16.2a3.746,3.746,0,0,1-3.66,3.761l-4.116.081Z" transform="translate(0 0)" fill="#231815"/>
          <path id="パス_5916" data-name="パス 5916" d="M125.1,192.94c-7.821,0-15.167-.026-20.265-.12a1,1,0,0,1,.037-2c8.26.153,22.465.125,35,.1,4.122-.008,8.016-.016,11.317-.016a1,1,0,0,1,0,2c-3.3,0-7.191.008-11.313.016C135.049,192.93,129.98,192.94,125.1,192.94Z" transform="translate(-48.023 -102.471)" fill="#231815"/>
          <path id="パス_5917" data-name="パス 5917" d="M261.67,175.64a6.032,6.032,0,1,1-6.03,6.03A6.038,6.038,0,0,1,261.67,175.64Zm0,10.063a4.032,4.032,0,1,0-4.03-4.033A4.038,4.038,0,0,0,261.67,185.7Z" transform="translate(-150.46 -92.226)" fill="#231815"/>
          <path id="パス_5918" data-name="パス 5918" d="M69.593,175.64a6.032,6.032,0,1,1-6.033,6.03A6.038,6.038,0,0,1,69.593,175.64Zm0,10.063a4.032,4.032,0,1,0-4.033-4.033A4.038,4.038,0,0,0,69.593,185.7Z" transform="translate(-20.833 -92.226)" fill="#231815"/>
          <path id="パス_5919" data-name="パス 5919" d="M304.416,155.125h-.972a2.707,2.707,0,0,1-2.7-2.7v-2.2a2.707,2.707,0,0,1,2.7-2.7h.819a1,1,0,0,1,0,2h-.819a.7.7,0,0,0-.7.7v2.2a.7.7,0,0,0,.7.7h.972a1,1,0,0,1,0,2Z" transform="translate(-180.896 -73.249)" fill="#231815"/>
          <path id="パス_5920" data-name="パス 5920" d="M264.992,83.14h-5.033a3.162,3.162,0,0,1-2.211-.893l-4.492-4.333q-.029-.028-.056-.058a3.2,3.2,0,0,1-.917-2.217l-.114-18.233a3.19,3.19,0,0,1,3.157-3.2l5.047-.042a3.184,3.184,0,0,1,3.071,2.361c.631,2.368,1.842,6.784,3.125,11.459.937,3.415,1.906,6.947,2.639,9.648a4.367,4.367,0,0,1-4.216,5.512Zm-10.3-6.619,4.446,4.288a1.173,1.173,0,0,0,.821.331h5.033a2.367,2.367,0,0,0,2.286-2.987c-.732-2.7-1.7-6.229-2.637-9.643-1.283-4.679-2.5-9.1-3.129-11.473a1.181,1.181,0,0,0-1.139-.877h-.012l-5.018.042a1.187,1.187,0,0,0-1.174,1.193l.114,18.233a1.183,1.183,0,0,0,.36.843Q254.669,76.495,254.692,76.521Z" transform="translate(-148.118 -10.244)" fill="#231815"/>
        </g>
        <g id="グループ_848" data-name="グループ 848" transform="translate(569.802 1960.5)">
          <g id="グループ_845" data-name="グループ 845" transform="translate(9.072)">
            <path id="パス_5462" data-name="パス 5462" d="M72.349,61.454a1.343,1.343,0,0,0-.013.4,2.413,2.413,0,0,1,.088.243,1.054,1.054,0,0,0,.263.384,1.788,1.788,0,0,0,.175.142h.02a.1.1,0,0,1,.027.027.47.47,0,0,1,.115.04.716.716,0,0,0,.128.027,1.351,1.351,0,0,0,.283.013c.013-.013.013-.007.04-.013a.294.294,0,0,0,.2-.169c.088-.2-.047-.175-.088-.236-.013-.02-.04-.094-.054-.121a.642.642,0,0,0-.162-.209,1.248,1.248,0,0,0-.094-.094.252.252,0,0,1-.047-.04c-.02-.02-.034-.027-.047-.04a3.032,3.032,0,0,0-.418-.324.555.555,0,0,0-.155-.02c-.034-.02-.034-.061-.121-.067-.067,0-.094.034-.135.047h0Z" transform="translate(-72.327 -59.777)" fill="#ef8200" fill-rule="evenodd"/>
            <path id="パス_5463" data-name="パス 5463" d="M72.53,60.336s.013.027.034.074c.013.027.027.034.054.054s.142.169.283.081c.108-.067.054-.054.121-.094a.677.677,0,0,0,.243-.182c.169-.2.115-.223.25-.391a1.054,1.054,0,0,1,.088-.128c.027-.013.047-.013.067-.034s.034-.04.054-.061c.094-.1.115-.189.25-.108.061.034.189.148.29.027a.2.2,0,0,0,.054-.162v-.067a1.607,1.607,0,0,0-.647,0,1.872,1.872,0,0,0-.8.452c-.013.02-.027.027-.04.047a1.786,1.786,0,0,0-.25.371c-.02.047-.034.088-.054.128h0Z" transform="translate(-72.393 -59.096)" fill="#ef8200" fill-rule="evenodd"/>
            <path id="パス_5464" data-name="パス 5464" d="M74.346,63.492a1.343,1.343,0,0,1-.7-.128c-.121-.047-.3-.148-.418-.209a1.426,1.426,0,0,0-.142-.074c-.02-.007,0,0-.02-.013l-.013-.013a.053.053,0,0,1,.034.013.693.693,0,0,0,.371,0h0a2.074,2.074,0,0,1-.283-.02c-.047-.007-.088-.02-.128-.027a1.119,1.119,0,0,0-.108-.04c-.007,0-.027.02-.027,0H72.9a1.121,1.121,0,0,1-.283-.236A.946.946,0,0,1,72.5,62.6c-.013-.027-.074-.162-.088-.175a1.441,1.441,0,0,0,.263.54,1.322,1.322,0,0,0,.384.411,1.649,1.649,0,0,0,.607.2,1.5,1.5,0,0,0,.695-.067h0Z" transform="translate(-72.354 -60.109)" fill="#ef8200" fill-rule="evenodd"/>
            <path id="パス_5465" data-name="パス 5465" d="M72.37,60.266s.1-.209.121-.25a1.714,1.714,0,0,1,1.045-.85,1.752,1.752,0,0,1,.674-.034c-.034-.081-.189-.115-.27-.128a1.386,1.386,0,0,0-1.147.459,1.6,1.6,0,0,0-.182.229,2.012,2.012,0,0,0-.243.573Z" transform="translate(-72.341 -58.993)" fill="#ef8200" fill-rule="evenodd"/>
            <path id="パス_5466" data-name="パス 5466" d="M76.111,59.757h0a.081.081,0,0,0-.027-.027.057.057,0,0,0-.034-.02c.007.013.007.02.027.027s.013,0,.034.027h0Z" transform="translate(-73.539 -59.226)" fill="#ef8200" fill-rule="evenodd"/>
            <path id="パス_5467" data-name="パス 5467" d="M75,59.577c-.027.047-.067.081-.1.128-.067.094-.061.142-.148.2a.489.489,0,0,0-.061.054c-.1.1-.02.04-.142.094a1.05,1.05,0,0,0-.33.256.735.735,0,0,0-.074.04c-.027.02-.027.04-.047.067s-.04.027-.054.061a.581.581,0,0,0,.047.384c.027.054.061.094.088.148s.061.074.121.115c.182.108.2.034.277-.1.02-.04.034-.027.067-.054.074-.061.115-.175.155-.2a.411.411,0,0,0,.162.094c0,.054-.054.128-.074.283a2.926,2.926,0,0,0,0,.344c-.142-.013-.2-.054-.3.135-.02.027-.067.067-.108.121a.422.422,0,0,0-.067.169c-.067.337.2.479.479.337a1.441,1.441,0,0,0,.216-.135c.094-.088.088-.1.216-.142.067-.02.094-.061.169-.067a.354.354,0,0,0,.3-.169,1.419,1.419,0,0,0,.094-.148.8.8,0,0,1,.067-.169,1.07,1.07,0,0,0,.081-.519,2.012,2.012,0,0,0-.29-.9,1.281,1.281,0,0,0-.27-.317.118.118,0,0,0-.034-.027l-.027-.027-.108-.067a1,1,0,0,0-.115-.054c-.027.013-.061.013-.088.027s-.054.02-.081.034h0Z" transform="translate(-72.879 -59.161)" fill="#ef8200" fill-rule="evenodd"/>
          </g>
          <g id="グループ_847" data-name="グループ 847" transform="translate(0 2.754)">
            <g id="グループ_846" data-name="グループ 846" transform="translate(31.829 1.311)">
              <path id="パス_5468" data-name="パス 5468" d="M107.56,65.06h0a1.477,1.477,0,0,1,1.477,1.477v7.081a4.9,4.9,0,0,0,.337,2.1,2.834,2.834,0,0,0,4.593,0,4.8,4.8,0,0,0,.337-2.1V66.537a1.477,1.477,0,0,1,1.477-1.477h0a1.477,1.477,0,0,1,1.477,1.477v7.088a7.178,7.178,0,0,1-.688,3.46c-.857,1.511-2.489,2.273-4.9,2.273s-4.047-.755-4.91-2.273a7.2,7.2,0,0,1-.688-3.46V66.537a1.477,1.477,0,0,1,1.477-1.477Z" transform="translate(-106.07 -65.033)" fill="#ef8200"/>
              <path id="パス_5469" data-name="パス 5469" d="M135.375,73.039a5.413,5.413,0,0,1-3.547,1.039h-1.477a1.469,1.469,0,0,0-1.47,1.47v2.145a1.469,1.469,0,0,1-1.47,1.47h0a1.469,1.469,0,0,1-1.47-1.47V66.49a1.469,1.469,0,0,1,1.47-1.47h4.6a4.9,4.9,0,0,1,3.345,1.093A4.273,4.273,0,0,1,136.6,69.5a4.394,4.394,0,0,1-1.241,3.541Zm-2.253-5.092a2.388,2.388,0,0,0-1.571-.472h-1.194a1.469,1.469,0,0,0-1.47,1.47v1.227a1.469,1.469,0,0,0,1.47,1.47h1.194a2.257,2.257,0,0,0,1.571-.506,2.085,2.085,0,0,0,.56-1.612,1.951,1.951,0,0,0-.56-1.571Z" transform="translate(-112.539 -65.02)" fill="#ef8200"/>
            </g>
            <path id="パス_5470" data-name="パス 5470" d="M63.923,66.774a52.892,52.892,0,0,0-3.467,5.287l-.371.722-.04.054.02.189a.56.56,0,0,1,.182.02c.135.013.324.034.56.054a4.092,4.092,0,0,0,.411.04q.708.132,1.416.324c.479.128.857.243,1.14.337s.708.243,1.261.445.958.344,1.207.418a.479.479,0,0,1,.27.243.452.452,0,0,1,.02.351.459.459,0,0,1-.58.3l-1.227-.445L63.5,74.685a10.8,10.8,0,0,0-1.086-.324c-.452-.115-.9-.216-1.342-.29a1.6,1.6,0,0,0-.337-.034c-.25-.027-.438-.04-.573-.054l-.054-.02c.088,1.754.142,3.035.169,3.844a.5.5,0,0,1-.128.337.4.4,0,0,1-.317.148.491.491,0,0,1-.337-.128.4.4,0,0,1-.148-.317c-.027-.782-.088-2.145-.189-4.1a.732.732,0,0,1-.182-.169.4.4,0,0,1-.094-.317.23.23,0,0,1,.02-.115.657.657,0,0,0,.04-.094,1.51,1.51,0,0,1,.074-.189l.115-.223c-.04-.816-.067-1.531-.094-2.151-.013-.459,0-1.517.04-3.17a22.147,22.147,0,0,0-.094-3.082.471.471,0,0,1,.1-.344.42.42,0,0,1,.3-.175.471.471,0,0,1,.344.1.42.42,0,0,1,.175.3A22.1,22.1,0,0,1,60,67.334c-.04,1.632-.047,2.671-.04,3.116l.02.573q1.093-1.892,3.21-4.809a.44.44,0,0,1,.3-.175.456.456,0,0,1,.344.081.434.434,0,0,1,.189.3.472.472,0,0,1-.081.351Z" transform="translate(-58.876 -63.284)" fill="#ef8200"/>
            <path id="パス_5471" data-name="パス 5471" d="M74.939,66.09q.445,4.826.445,12.9a.465.465,0,0,1-.931,0q0-8.093-.445-12.821a.462.462,0,0,1,.418-.506.462.462,0,0,1,.513.425Z" transform="translate(-63.802 -63.916)" fill="#ef8200"/>
            <path id="パス_5472" data-name="パス 5472" d="M85.019,63.49c.04.418.061.85.074,1.288s.013.971,0,1.6-.02,1.039-.02,1.234c0,1.153-.034,4.31-.1,6.616s-.1,2.61-.1,3.757a.465.465,0,0,1-.931,0c0-.769.013-.2.04-1.153a3.852,3.852,0,0,1-2.563.094,3.638,3.638,0,0,1-1.531-.823,2.791,2.791,0,0,1-.809-1.241,3.42,3.42,0,0,1-.128-1.383,3.206,3.206,0,0,1,.411-1.3,2.79,2.79,0,0,1,.917-1,2.4,2.4,0,0,1,1.308-.411,3.592,3.592,0,0,1,2.522,1.113c.027-1.066.04-3.44.04-4.269,0-.236,0-.654.02-1.261s.013-1.12.007-1.538A9.892,9.892,0,0,0,84.1,63.6a.454.454,0,0,1,.1-.351.437.437,0,0,1,.317-.169.455.455,0,0,1,.344.1.435.435,0,0,1,.169.3Zm-.985,9.631a3.338,3.338,0,0,0-2.428-1.43,1.654,1.654,0,0,0-1.45.944,2.353,2.353,0,0,0-.3.937,2.311,2.311,0,0,0,.1.985,2.2,2.2,0,0,0,.593.883,2.621,2.621,0,0,0,1.12.593,2.716,2.716,0,0,0,2.266-.223c.027,0,.04,0,.054-.02.013-.337.027-.8.047-1.41s.027-1.012.027-1.227l-.04-.04Z" transform="translate(-65.404 -63.076)" fill="#ef8200"/>
            <path id="パス_5473" data-name="パス 5473" d="M95.289,67.929a2.794,2.794,0,0,0-.917-1.416,1.836,1.836,0,0,0-1.241-.411,1.759,1.759,0,0,0-1.16.587,2.8,2.8,0,0,0-.668,1.578,3.672,3.672,0,0,0,.074,1.929,6.27,6.27,0,0,0,.492.931c.2.324.486.728.857,1.227s.62.857.769,1.079a9.946,9.946,0,0,1,1.093,2,3.708,3.708,0,0,1,.223,1.949,2.186,2.186,0,0,1-1.153,1.632,1.68,1.68,0,0,1-2.36-.465,4.771,4.771,0,0,1-.816-2.172.5.5,0,0,1,.094-.344.434.434,0,0,1,.3-.189.456.456,0,0,1,.344.081.468.468,0,0,1,.2.3,3.919,3.919,0,0,0,.634,1.76.84.84,0,0,0,.465.351,1.017,1.017,0,0,0,.708-.148,1.286,1.286,0,0,0,.668-.964,2.988,2.988,0,0,0-.2-1.531,9.068,9.068,0,0,0-.958-1.754c-.115-.162-.357-.5-.742-1.018s-.688-.964-.917-1.329a6.4,6.4,0,0,1-.546-1.066,4.646,4.646,0,0,1-.148-2.414,3.853,3.853,0,0,1,.944-2.091,2.59,2.59,0,0,1,1.747-.863,2.671,2.671,0,0,1,1.848.587,3.787,3.787,0,0,1,1.268,1.882.451.451,0,0,1-.027.351.436.436,0,0,1-.27.229.423.423,0,0,1-.351-.02.5.5,0,0,1-.243-.27Z" transform="translate(-69.105 -63.751)" fill="#ef8200"/>
          </g>
        </g>
      </g>
    </g>
    <path id="パス_6000" data-name="パス 6000" d="M-66.9-6.664h-2.8c-.765,0-1.309-.034-1.853-.085v1.887a15.4,15.4,0,0,1,1.853-.1h2.023a10.783,10.783,0,0,1-1.632,1.8,13.287,13.287,0,0,1-2.924,2.04A5.714,5.714,0,0,1-71.077.561a12.129,12.129,0,0,0,2.04-1.513,9.792,9.792,0,0,0,2.176-2.635c-.017,1.054-.034,1.666-.034,1.8v1.6A12.146,12.146,0,0,1-67,1.394h2.006a11.886,11.886,0,0,1-.1-1.564V-1.751c0-.459-.017-1.258-.051-1.819A9.9,9.9,0,0,0-63.1-1.156,17.345,17.345,0,0,0-60.945.459,9.7,9.7,0,0,1-59.806-1.36a11.723,11.723,0,0,1-2.72-1.734,11.246,11.246,0,0,1-1.819-1.87h2.278a17.456,17.456,0,0,1,1.8.1v-1.9a16.029,16.029,0,0,1-1.853.1h-2.975V-8.058h2.159c.221,0,.493,0,.816.017a3.626,3.626,0,0,0,.374.017,3.726,3.726,0,0,1,.493.017,13.8,13.8,0,0,1-.068-1.6v-2.414a14.589,14.589,0,0,1,.068-1.649,13.926,13.926,0,0,1-1.87.085h-5.423a13.3,13.3,0,0,1-1.887-.085,13.8,13.8,0,0,1,.068,1.547v2.482a15.177,15.177,0,0,1-.068,1.649A15.881,15.881,0,0,1-68.7-8.058h1.8Zm-1.683-5.253h5.44v2.193h-5.44ZM-74.12-.612a17.846,17.846,0,0,1-.1,1.989h1.955A18.524,18.524,0,0,1-72.352-.6V-9.928a17.855,17.855,0,0,0,1.309-3.162,4.682,4.682,0,0,1,.255-.765l-1.9-.612a11.88,11.88,0,0,1-.646,2.312A12.141,12.141,0,0,1-76.211-7.65a9.421,9.421,0,0,1,.816,2.057A8.679,8.679,0,0,0-74.086-7.31c-.034.918-.034,1.309-.034,1.87Zm22-12.444h-4.59a12.123,12.123,0,0,1-1.972-.1v1.785a14.637,14.637,0,0,1,1.836-.085h2.686a8.108,8.108,0,0,1-1,1.479h-1.6a11.974,11.974,0,0,1-1.343-.051l.2,1.7a4.045,4.045,0,0,1,.612-.051,4.491,4.491,0,0,0,.544-.017c.306,0,.561-.017.731-.017,3.723-.068,6.715-.221,9.656-.476a20.2,20.2,0,0,1,1.564,1.377l1.326-1.258a38.969,38.969,0,0,0-3.876-2.686H-45.1a14.851,14.851,0,0,1,1.819.085v-1.785a11.909,11.909,0,0,1-1.938.1h-5.015v-.221a5.717,5.717,0,0,1,.085-1.1h-2.074a4.838,4.838,0,0,1,.1,1.122Zm3.689,1.6-.918.493c.595.374.765.476,1.19.765-1.428.085-3.655.17-5.032.2.374-.476.816-1.1,1.037-1.462ZM-54.774-1.445h7.565v.68c0,.34-.136.442-.629.442a20.873,20.873,0,0,1-2.091-.119,8.179,8.179,0,0,1,.459,1.6c1,.034,1.462.051,1.836.051A2.712,2.712,0,0,0-45.951.884a1.6,1.6,0,0,0,.527-1.445V-5.967a17.024,17.024,0,0,1,.068-1.819c-.085.017-.153.017-.2.034a1.847,1.847,0,0,0-.221.017c-.1,0-.1,0-1.411.017h-7.565c-.918,0-1.513-.017-1.921-.051a11.007,11.007,0,0,1,.085,1.7V-.782a17.794,17.794,0,0,1-.1,2.142h2.006c-.051-.527-.085-1.139-.085-1.921Zm0-2.346h7.565v.85h-7.565Zm7.565-1.5h-7.565v-.884h7.565ZM-35-9.979v.7h-2.771a7.046,7.046,0,0,1-1.36-.085v1.479a7.9,7.9,0,0,1,1.326-.085h7.65a7.367,7.367,0,0,1,1.292.085V-9.367a6.762,6.762,0,0,1-1.326.085h-3.043v-.7h2.4a9.686,9.686,0,0,1,1.36.068v-1.411a7.264,7.264,0,0,1-1.36.085h-2.4a4.453,4.453,0,0,1,.068-.68h-1.9c.034.221.051.408.068.68h-2.04a7.522,7.522,0,0,1-1.428-.085v1.411a11,11,0,0,1,1.411-.068Zm8.4,11.424a16.441,16.441,0,0,1-.1-2.21v-11.05a17.376,17.376,0,0,1,.085-2.04,16.282,16.282,0,0,1-1.989.085H-39.406a16.113,16.113,0,0,1-1.989-.085,18.809,18.809,0,0,1,.1,2.04V-.782a19.605,19.605,0,0,1-.1,2.227h1.887v-.7h11.016v.7Zm-12.9-13.7h11V-.748h-11V-2.516a4.688,4.688,0,0,1,1.071,1.258,12.959,12.959,0,0,0,3.128-2.057c0,.136-.017.442-.017.544v.731a5.524,5.524,0,0,1-.068.969h1.836a5.282,5.282,0,0,1-.068-.969v-.731c0-.289,0-.289-.017-.595A11.582,11.582,0,0,0-29.835-1.02a12.068,12.068,0,0,1,1.088-1.394,12.316,12.316,0,0,1-1.717-.544,9.545,9.545,0,0,0,1-.782,3.31,3.31,0,0,1,.306-.289l-.714-.408a5.949,5.949,0,0,1-.034-.9V-6.579a6.6,6.6,0,0,1,.034-.918,9.473,9.473,0,0,1-1.122.034h-6.018A9.63,9.63,0,0,1-38.131-7.5a5.148,5.148,0,0,1,.051.918v1.241a7.075,7.075,0,0,1-.051.918c.357-.017.357-.017,1.122-.034h.986A9.368,9.368,0,0,1-37.978-3.2c-.306.153-.816.357-1.53.629Zm8.517,7.8h.34a8.278,8.278,0,0,1-1,.9,8.592,8.592,0,0,1-1.309-.9Zm-5.389-1.8h4.76v.595h-4.76Zm16.8-3.927c-.153-.561-.221-.782-.357-1.207a11.231,11.231,0,0,1-.595-2.006l-2.108.595a18.589,18.589,0,0,1,1.156,3.162c-.816.255-.952.289-1.649.527a9.693,9.693,0,0,1-1.547.442l.663,1.989a19.67,19.67,0,0,1,2.193-.867,7.954,7.954,0,0,0,.85-.306A63.98,63.98,0,0,1-18.9,1.19L-16.66.68a4.543,4.543,0,0,1-.255-.816c-1.02-4.25-1.1-4.573-2.159-8.262a17.129,17.129,0,0,1,5.1-1.054c1.428,0,2.261.629,2.261,1.7a1.758,1.758,0,0,1-.7,1.445,3.409,3.409,0,0,1-1.921.561,6.424,6.424,0,0,1-2.72-.663,7.493,7.493,0,0,1,.306,2.091,8.313,8.313,0,0,0,2.635.476,4.779,4.779,0,0,0,3.145-1A3.857,3.857,0,0,0-9.588-7.8c0-2.091-1.581-3.468-3.978-3.468-.34,0-.578.017-.986.051a18.956,18.956,0,0,1,.085-2.72h-2.142a9.978,9.978,0,0,1,.1,2.04c.017.595.017.595.017.935-.68.136-.969.2-1.445.323Zm18.513-3.893a16.448,16.448,0,0,1,.1,2.057v10.88c0,.323-.17.408-.731.408A16.742,16.742,0,0,1-4.131-.952a6.781,6.781,0,0,1,.544,1.989c.816.051,1.53.085,2.176.085A3.466,3.466,0,0,0,.357.833a1.649,1.649,0,0,0,.7-1.6V-12a16.562,16.562,0,0,1,.1-2.074Zm4.029,4.063c.34,1.275.51,1.938.527,2.006A20.077,20.077,0,0,0,6.511-1.564,7.777,7.777,0,0,1,8.228-2.89,17.651,17.651,0,0,1,5.695-7.582a13.258,13.258,0,0,1-.782-2.992Zm-8.126-.493A16.127,16.127,0,0,1-8.143-2.754a8.757,8.757,0,0,1,1.8,1.207,20.677,20.677,0,0,0,3.06-7.82c.051-.187.051-.2.1-.408.017-.051.034-.119.068-.2Zm21.3,7.225V-.765c0,.34-.119.391-.867.391a15.474,15.474,0,0,1-2.108-.17,6.451,6.451,0,0,1,.561,1.8c.884.051,1.445.068,1.666.068,1.53,0,2.108-.136,2.4-.561A1.641,1.641,0,0,0,18-.306V-3.281h4.42a16.794,16.794,0,0,1,2.108.1V-5.066a14,14,0,0,1-2.091.119H18v-.017a23.8,23.8,0,0,0,3.4-2.482c.323-.272.323-.272.612-.51L21.08-8.993a7.683,7.683,0,0,1-1.292.068H14.161a12.4,12.4,0,0,1-1.717-.085v1.7a16.842,16.842,0,0,1,1.7-.068h4.675A9,9,0,0,1,16.813-6h-.731a7.953,7.953,0,0,1,.051.935v.119H11.509a14.425,14.425,0,0,1-2.057-.119v1.887a16.562,16.562,0,0,1,2.074-.1Zm-4.539-8.4a16.349,16.349,0,0,1-2.006-.068,11.173,11.173,0,0,1,.068,1.411v1.564a7.453,7.453,0,0,1-.085,1.309h1.853V-10.1H22.508v2.635h1.853a10.306,10.306,0,0,1-.085-1.292v-1.581a10.669,10.669,0,0,1,.068-1.411,20.462,20.462,0,0,1-2.091.068h-.765a17.811,17.811,0,0,0,1.275-2.04l-1.836-.51a11.263,11.263,0,0,1-1.394,2.55H18.088a13.451,13.451,0,0,0-1.173-2.635l-1.768.493a9.942,9.942,0,0,1,1.037,2.142h-1.8a12.534,12.534,0,0,0-1.547-2.431l-1.717.51a9.848,9.848,0,0,1,1.275,1.921ZM37.944-6.97A10.235,10.235,0,0,1,36.6-4.233a10.79,10.79,0,0,1-1.343-2.652L33.711-6.1a13.383,13.383,0,0,0,1.768,3.264A10.172,10.172,0,0,1,31.11-.187a5.964,5.964,0,0,1,1.054,1.649A12.422,12.422,0,0,0,36.6-1.479,12.1,12.1,0,0,0,41.14,1.428a6.8,6.8,0,0,1,.952-1.853A10.269,10.269,0,0,1,37.74-2.873a17.515,17.515,0,0,0,1.887-3.383Zm-3.672-3.366a9.158,9.158,0,0,1-2.329,3.349,7.644,7.644,0,0,1-1.6-2.516h.68a9.576,9.576,0,0,1,.986.051V-11.2a5.893,5.893,0,0,1-1.02.068h-.68v-1.411a14.588,14.588,0,0,1,.085-1.768h-1.9a11.464,11.464,0,0,1,.085,1.768v1.411h-.85a9.352,9.352,0,0,1-1.309-.068v1.768A10,10,0,0,1,27.727-9.5h.663a15.279,15.279,0,0,1-2.448,5.236,11.263,11.263,0,0,1,.935,1.921,13.906,13.906,0,0,0,1.8-4.012c-.051.918-.068,1.394-.068,1.394l-.017.867V-.612a13.56,13.56,0,0,1-.119,2.091h1.938a16.866,16.866,0,0,1-.1-2.091V-4.726c0-.187-.017-1.054-.017-1.122-.034-.935-.034-.935-.051-1.241a15.338,15.338,0,0,0,1.1,2.006,9.764,9.764,0,0,1,.561-1.241A5.34,5.34,0,0,1,32.742-5.2,13.476,13.476,0,0,0,35.9-9.6Zm1.445-1.853H34.238a14.09,14.09,0,0,1-1.887-.1V-10.4a15.1,15.1,0,0,1,1.9-.1h5.61c.748,0,1.326.034,1.887.085v-1.87a13.988,13.988,0,0,1-1.87.1H37.57v-.731a6.232,6.232,0,0,1,.085-1.241H35.632a6.717,6.717,0,0,1,.085,1.275Zm1.7,2.635a12.348,12.348,0,0,0,3.434,4.182A6.979,6.979,0,0,1,41.9-6.987a10.185,10.185,0,0,1-3.009-3.4Zm10.234-4.4v.323a26.161,26.161,0,0,1-.442,3.434c-.935.136-2.992.34-3.621.34l.2,2.006A30.477,30.477,0,0,1,46.835-8.4a28.839,28.839,0,0,1-1.649,4.811,18.572,18.572,0,0,1-1.768,3.2L45.39.7c.085-.17.085-.187.136-.289l.255-.51a36.46,36.46,0,0,0,2.04-4.777,35.962,35.962,0,0,0,1.037-3.689c.391-.034.646-.051.986-.051,1.343,0,1.734.459,1.734,2.023a15.105,15.105,0,0,1-.442,3.876c-.255.833-.527,1.156-1.02,1.156a7.033,7.033,0,0,1-2.482-.663A6.385,6.385,0,0,1,47.8-.782c0,.17-.017.408-.034.748a8.248,8.248,0,0,0,2.618.493,2.153,2.153,0,0,0,1.887-.765c.816-.935,1.309-3.264,1.309-6.188a4.123,4.123,0,0,0-.8-3.009,3.293,3.293,0,0,0-2.516-.9c-.323,0-.561.017-1.054.051.051-.221.051-.255.119-.629.238-1.275.238-1.275.289-1.632.051-.272.068-.357.1-.578a3.955,3.955,0,0,1,.136-.527Zm6.086,3.264a11,11,0,0,1,1.955,2.907,15.281,15.281,0,0,1,1.36,3.859l1.938-.986a16.5,16.5,0,0,0-3.5-6.63Zm10.642-1.462a30.77,30.77,0,0,0,6.63,2.125l.7-1.955a25.5,25.5,0,0,1-6.341-1.887Zm-1.36,1.5a6.938,6.938,0,0,1-.1.986c-.306,2.006-.578,3.893-.714,4.947-.085.646-.085.714-.136,1.02l2.142.068a3.7,3.7,0,0,1,.765-.731A7.737,7.737,0,0,1,69.207-5.61c1.8,0,2.873.68,2.873,1.819,0,1.445-1.666,2.448-4.063,2.448a13.724,13.724,0,0,1-4.573-.85A7.544,7.544,0,0,1,63.7,0a15.631,15.631,0,0,0,4.335.6A7.344,7.344,0,0,0,72.522-.561a4.139,4.139,0,0,0,1.751-3.281c0-2.176-1.9-3.6-4.794-3.6a8.057,8.057,0,0,0-5.151,1.615l-.034-.034c.051-.255.051-.255.085-.493a35.973,35.973,0,0,1,.765-4.182Zm-157.4,36.452c-2.057-1.989-2.057-1.989-2.482-2.363a26.349,26.349,0,0,0-3.145-2.465,22.515,22.515,0,0,0,2.652-4.692,3.269,3.269,0,0,1,.544-.918L-97.937,14.2a3.683,3.683,0,0,1-1.513.187l-5.984.085h-.408a7.44,7.44,0,0,1-1.5-.1l.068,2.176a13.4,13.4,0,0,1,1.853-.136c5.355-.085,5.355-.085,5.627-.1l-.187.442a16.386,16.386,0,0,1-5.712,6.919,14.035,14.035,0,0,1-3.4,1.87,6.82,6.82,0,0,1,1.377,1.887,20.2,20.2,0,0,0,6.477-4.913,32.68,32.68,0,0,1,5.219,5.049Zm14.926-10.744a3.012,3.012,0,0,1-1.241.17l-3.723.051c-.323,0-.6.017-.816.034a4.008,4.008,0,0,0,.272-.544l.221-.442a3.431,3.431,0,0,1,.221-.476,3.475,3.475,0,0,1,.289-.527l-2.329-.459a6.345,6.345,0,0,1-.867,2.244,13.077,13.077,0,0,1-4.4,4.93,4.517,4.517,0,0,1,1.649,1.462,16.639,16.639,0,0,0,3.978-4.352l5.117-.085a13.462,13.462,0,0,1-4.964,7.174,15.309,15.309,0,0,1-3.723,2.006,5.238,5.238,0,0,1,1.445,1.785A17.174,17.174,0,0,0-82.28,23.7a17.633,17.633,0,0,0,3.485-6.562,3.2,3.2,0,0,1,.425-1.02Zm4.42,6.613a18.663,18.663,0,0,1,2.771-.085h9.027a18.663,18.663,0,0,1,2.771.085V19.3a16.7,16.7,0,0,1-2.754.119h-9.061a16.7,16.7,0,0,1-2.754-.119Zm19.244-7.956a8.544,8.544,0,0,1,.068,1.547c0,4.76-.391,6.953-1.615,8.908a6.984,6.984,0,0,1-1.751,1.955,6.05,6.05,0,0,1,1.717,1.649,10.826,10.826,0,0,0,2.346-3.145c.884-1.751,1.258-3.672,1.377-6.987a35.526,35.526,0,0,1,.17-3.808Zm4.505-.119a7.357,7.357,0,0,1,.068,1.122v.51l-.085,9.588a7.618,7.618,0,0,1-.153,1.8l1.088,1.156a7.4,7.4,0,0,1,.731-.306,11.228,11.228,0,0,0,3.621-2.04,10.55,10.55,0,0,0,2.7-3.961,7.126,7.126,0,0,1-1.6-1.6,8.307,8.307,0,0,1-1.666,3.111,6.835,6.835,0,0,1-2.6,1.938l.085-9.673a9.212,9.212,0,0,1,.119-1.615ZM-27.472,25.2c-.238-.136-.323-.2-.612-.391a15.206,15.206,0,0,0-4.658-2.4c-.017-.408-.017-.408-.068-2.057.663-.034.918-.051,1.156-.068,1.275-.119,2.04-.2,2.3-.238.391-.051.816-.1,1.1-.119l-.051-1.87a12.581,12.581,0,0,1-2.108.374c-1.564.17-1.564.17-2.414.221-.017-1.054-.017-1.258-.034-1.683,1.5-.085,2.159-.136,3.655-.34a10.633,10.633,0,0,1,1.343-.153l-.085-1.887a23,23,0,0,1-4.9.646,10.54,10.54,0,0,1,.119-2.074h-2.159A12.129,12.129,0,0,1-34.8,15.3c-.425.017-1,.034-1.275.034a22.354,22.354,0,0,1-4.573-.357l-.017,1.887h.272c.051,0,.187,0,.374.017,1.139.085,3.332.17,4.165.17.255,0,.527,0,1.071-.017.017.969.017,1.547.017,1.7-.476.017-1.054.034-1.394.034a21.921,21.921,0,0,1-3.961-.289l-.034,1.836c.255,0,.425,0,.646.017,1.411.1,2.04.119,3.077.119.357,0,.884-.017,1.7-.034.017.68.017.68.034.918v.374a3.275,3.275,0,0,1,.017.408,8.882,8.882,0,0,0-1.139-.068c-2.856,0-4.539,1.088-4.539,2.941,0,1.683,1.428,2.652,3.91,2.652a4.526,4.526,0,0,0,2.805-.731,2.652,2.652,0,0,0,.952-2.3v-.187a7.564,7.564,0,0,1,.918.425,11.471,11.471,0,0,1,3.145,2.329Zm-7.174-1.309V24.3a2.155,2.155,0,0,1-.2,1.088,1.765,1.765,0,0,1-1.479.544c-1.207,0-1.938-.391-1.938-1.02,0-.731.833-1.173,2.21-1.173A5.967,5.967,0,0,1-34.646,23.889Zm10.268-6.528a21.336,21.336,0,0,1,2.822-.34c3.3-.238,4.352-.34,5.729-.544a7.517,7.517,0,0,0-2.363,1.717,5.92,5.92,0,0,0-1.615,3.995,4.548,4.548,0,0,0,2.431,4.1A10.227,10.227,0,0,0-13.4,27.408c.323.051.357.051.578.1l.306-2.312c-.17.017-.323.017-.34.017a10.316,10.316,0,0,1-2.533-.442A2.854,2.854,0,0,1-17.646,22c0-1.717,1.275-3.417,3.434-4.539a7.6,7.6,0,0,1,3.366-.918,2.632,2.632,0,0,1,.357.017l-.119-2.159a9.159,9.159,0,0,1-1.751.136c-4.539.221-7.446.374-8.687.442-2.5.17-2.5.17-2.805.17-.085,0-.272,0-.646-.017Zm10.4,1.632a11.474,11.474,0,0,1,1.785,2.533L-11,20.9a11.017,11.017,0,0,0-1.785-2.5Zm5,.8a9.831,9.831,0,0,0-1.768-2.4l-1.139.6a12.525,12.525,0,0,1,1.734,2.465ZM1.071,16.1a3.716,3.716,0,0,1,1.717.51,4.212,4.212,0,0,1,2.091,3.774,4.76,4.76,0,0,1-2.363,4.25,9.035,9.035,0,0,1-3.383.935A5.423,5.423,0,0,1,.17,27.561a11.114,11.114,0,0,0,2.669-.714A6.549,6.549,0,0,0,6.97,20.506C6.97,16.681,4.318,14.2.238,14.2a7.631,7.631,0,0,0-5.848,2.38,7.3,7.3,0,0,0-1.87,4.947c0,2.737,1.394,4.709,3.332,4.709,1.394,0,2.482-1,3.451-3.2A24.594,24.594,0,0,0,1.071,16.1ZM-1,16.12a22.4,22.4,0,0,1-1.411,5.746c-.612,1.462-1.19,2.176-1.751,2.176-.748,0-1.343-1.1-1.343-2.5A5.692,5.692,0,0,1-3.2,16.953,4.327,4.327,0,0,1-1,16.12Zm12.478,2.023h-.731a8.826,8.826,0,0,1-1.666-.1v1.9a9.151,9.151,0,0,1,1.666-.1h.731v2.278h-.391a10.92,10.92,0,0,1-1.666-.085v1.87a7.827,7.827,0,0,1,1.513-.1H22.525a7.964,7.964,0,0,1,1.581.1v-1.87a9.807,9.807,0,0,1-1.615.085h-.34V19.843h.663a8.933,8.933,0,0,1,1.666.1v-1.9a8.826,8.826,0,0,1-1.666.1h-.663V15.882c.867.017,1.105.034,1.666.085V14.1a16.126,16.126,0,0,1-2.142.1H13.43c.238-.357.374-.578.544-.867a5.4,5.4,0,0,1,.357-.612l-1.972-.374a4.229,4.229,0,0,1-.357.833A9.776,9.776,0,0,1,8.84,16.46a7.6,7.6,0,0,1,1.241,1.292,15.987,15.987,0,0,0,1.394-1.19Zm1.683-2.261h1.377v2.261H13.158Zm0,3.961h1.377v2.278H13.158Zm2.924,2.278V19.843h1.411v2.278Zm0-3.978V15.882h1.411v2.261Zm2.941,3.978V19.843h1.445v2.278Zm0-3.978V15.882h1.445v2.261Zm5.355,9.078a19.026,19.026,0,0,0-2.21-3.264l-1.462.731a16.96,16.96,0,0,1,2.04,3.553Zm-4.624.595a23.563,23.563,0,0,0-1-3.536l-1.649.374a19.671,19.671,0,0,1,.8,3.57ZM15.81,28.1a22.924,22.924,0,0,0-.459-3.723l-1.649.187a29.523,29.523,0,0,1,.255,3.009v.7Zm-5.27.238a11.2,11.2,0,0,0,2.193-3.57l-1.564-.782A8.088,8.088,0,0,1,9.061,27.17Zm22.389-2.754c.374-.119.867-.255,1.615-.425l3.6-.816v2.057a12.326,12.326,0,0,1-.1,2.023H40.1a12.466,12.466,0,0,1-.1-2.006V23.94l.17-.034A12.418,12.418,0,0,1,41.8,23.6l-.357-1.938A10.368,10.368,0,0,1,40,22.087V14.709a12.016,12.016,0,0,1,.1-1.955H38.046a11.634,11.634,0,0,1,.1,1.972V22.5l-3.978.884a11.385,11.385,0,0,1-1.564.238,9.912,9.912,0,0,1,.476-.952,9.028,9.028,0,0,1-2.193-2.6H31.5a9.887,9.887,0,0,1,1.343.068V18.364a8.609,8.609,0,0,1-1.309.068h-.8V14.386a10.149,10.149,0,0,1,.085-1.649H28.883a10.519,10.519,0,0,1,.085,1.666v4.029H27.829a8.442,8.442,0,0,1-1.53-.085v1.8a8.8,8.8,0,0,1,1.53-.085h.884a14.334,14.334,0,0,1-.9,1.921A11.178,11.178,0,0,1,25.976,24.5a5.121,5.121,0,0,1,.867,1.751,11.743,11.743,0,0,0,2.21-3.825c-.034.561-.068,1.36-.068,2.04V26.66a11.008,11.008,0,0,1-.119,1.8h1.972a10.055,10.055,0,0,1-.1-1.768V23.889c0-.544-.017-.782-.1-1.938a12.577,12.577,0,0,0,1.717,2.4c.085-.272.1-.357.187-.578ZM26.18,14.318a13.717,13.717,0,0,1,1.054,3.638l1.428-.612a20.676,20.676,0,0,0-1.037-3.672Zm5.848-.68a14.142,14.142,0,0,1-1.173,3.672l1.241.646a20.572,20.572,0,0,0,1.36-3.689Zm1.615,1.547A14.361,14.361,0,0,1,36.652,17.8l1.156-1.428a16.513,16.513,0,0,0-2.975-2.5Zm-.527,4.2A14.87,14.87,0,0,1,36.108,22l1.156-1.377a15.512,15.512,0,0,0-2.958-2.5Zm18.751-2.261a15.849,15.849,0,0,1-.085,1.938H49.113a14.793,14.793,0,0,1-1.581-.085v1.836a14.793,14.793,0,0,1,1.581-.085h2.312a4.747,4.747,0,0,1-1.343,1.989A7.627,7.627,0,0,1,47.6,24.059a4.6,4.6,0,0,1,1.19,1.615,8.9,8.9,0,0,0,2.465-1.564,5.713,5.713,0,0,0,1.564-2.057,7.067,7.067,0,0,0,1.6,1.9,8.415,8.415,0,0,0,3.213,1.768,5.287,5.287,0,0,1,.85-1.8,8.244,8.244,0,0,1-3.128-1.513,5.626,5.626,0,0,1-1.428-1.683h2.754c.6,0,1.122.034,1.683.085V18.976a10.07,10.07,0,0,1-1.53.085H53.6a15.225,15.225,0,0,0,.085-1.938h2.431c.561,0,1.071.034,1.632.085v-1.8a9.87,9.87,0,0,1-1.5.085h-.986c.255-.425.442-.765.68-1.207.391-.765.391-.765.6-1.122l-1.836-.612a13.9,13.9,0,0,1-1.377,2.941H50.592l1.479-.731a11.8,11.8,0,0,0-1.258-2.227l-1.632.765a8.464,8.464,0,0,1,1.207,2.193h-.663a14.382,14.382,0,0,1-1.547-.085v1.8a14.056,14.056,0,0,1,1.53-.085ZM43.18,14.2a18.425,18.425,0,0,1,2.89,3.179L47.481,16a23.433,23.433,0,0,0-2.941-3.06Zm-.119,6.766A6.308,6.308,0,0,1,44.2,20.88h.935v3.655a9.306,9.306,0,0,1-2.448,1.683l.816,1.938c.153-.136.442-.357.561-.442a15.417,15.417,0,0,0,1.972-1.632,4.062,4.062,0,0,0,2.38,1.632,19.25,19.25,0,0,0,4.25.306c.867,0,3.366-.034,3.876-.051,1.224-.051,1.224-.051,1.887-.068a7.911,7.911,0,0,1,.51-2.006,48.162,48.162,0,0,1-6.817.374c-2.55,0-3.451-.136-4.233-.646a2.672,2.672,0,0,1-.969-1.088V20.982a16.775,16.775,0,0,1,.068-1.836,10.41,10.41,0,0,1-1.292.068H44.421a7.6,7.6,0,0,1-1.36-.085ZM66.929,15.44a17.429,17.429,0,0,0,2.465-.833c0,.289.017.442.017.68v8.636a12.029,12.029,0,0,1-.1,1.819H71.3a12.232,12.232,0,0,1-.085-1.819V15.44H73.2v6.494c0,.374-.1.459-.493.459a5.386,5.386,0,0,1-1.173-.119,7.04,7.04,0,0,1,.374,1.751h.374c2.125,0,2.7-.357,2.7-1.666V15.27a11.114,11.114,0,0,1,.068-1.5,13.3,13.3,0,0,1-1.53.051H70.074l-.935-1.156a9.626,9.626,0,0,1-4.063,1.326,12.618,12.618,0,0,1,.068,1.649V22.6a5.546,5.546,0,0,1-.816.187.978.978,0,0,0-.17.034l.561,1.87c.255-.1.357-.153.918-.357,1.751-.629,1.955-.714,3.264-1.292l-.034-1.751c-.85.374-1.088.459-1.938.782ZM60.1,14.182a15.8,15.8,0,0,1,2.822,3.094l1.462-1.394a21.887,21.887,0,0,0-2.924-2.975Zm-.17,6.766a5.971,5.971,0,0,1,1.139-.085H62v3.655A10.292,10.292,0,0,1,59.585,26.2l.833,1.938a3,3,0,0,0,.306-.255c.17-.119.374-.289.646-.476a17.485,17.485,0,0,0,1.513-1.326,3.953,3.953,0,0,0,2.312,1.581,18.016,18.016,0,0,0,4.352.357c1.938,0,4.267-.034,5.8-.1a8.6,8.6,0,0,1,.51-2.04,63.919,63.919,0,0,1-6.732.306c-2.771,0-3.706-.153-4.573-.748a2.054,2.054,0,0,1-.765-.9v-3.57a12.169,12.169,0,0,1,.068-1.836,9.4,9.4,0,0,1-1.292.068H61.285a7.376,7.376,0,0,1-1.36-.085Zm21.029-6.681v.238a12.474,12.474,0,0,1-.153,1.649,20.674,20.674,0,0,1-1.6,5.831,11.456,11.456,0,0,1-2.431,3.621,7.355,7.355,0,0,1,1.938,1.462c2.278-2.618,3.6-5.967,4.318-10.846l.051-.408.085-.493.034-.289a1.959,1.959,0,0,1,.085-.34ZM86,14.675a7.144,7.144,0,0,1,.238,1.224,22.528,22.528,0,0,0,4.5,11.186,7,7,0,0,1,1.87-1.564,16.466,16.466,0,0,1-3.791-7.344,21.062,21.062,0,0,1-.714-3.91Zm2.278-1.054a11.155,11.155,0,0,1,1.394,2.771l1.292-.408a10.138,10.138,0,0,0-1.411-2.737ZM93.194,15.3A10.06,10.06,0,0,0,91.8,12.669l-1.258.357a11.676,11.676,0,0,1,1.36,2.686Zm15.912,10.489c-2.057-1.989-2.057-1.989-2.482-2.363a26.349,26.349,0,0,0-3.145-2.465,22.515,22.515,0,0,0,2.652-4.692,3.269,3.269,0,0,1,.544-.918L105.553,14.2a3.683,3.683,0,0,1-1.513.187l-5.984.085h-.408a7.44,7.44,0,0,1-1.5-.1l.068,2.176a13.4,13.4,0,0,1,1.853-.136c5.355-.085,5.355-.085,5.627-.1l-.187.442A16.386,16.386,0,0,1,97.8,23.668a14.035,14.035,0,0,1-3.4,1.87,6.82,6.82,0,0,1,1.377,1.887,20.2,20.2,0,0,0,6.477-4.913,32.68,32.68,0,0,1,5.219,5.049Z" transform="translate(12097 1255)"/>
    <rect id="長方形_218" data-name="長方形 218" width="220" height="206" transform="translate(11987 1078)" fill="none"/>
  </g>
</svg>
