<svg xmlns="http://www.w3.org/2000/svg" width="220" height="206" viewBox="0 0 220 206">
  <g id="features_sq-2" transform="translate(-10658 -1078)">
    <g id="features_sq-2-2" data-name="features_sq-2" transform="translate(10167 -110)">
      <path id="パス_5992" data-name="パス 5992" d="M0,0H145V145H0Z" transform="translate(529 1188)" fill="#fff"/>
      <g id="features-03" transform="translate(559 1251)">
        <path id="長方形_72" data-name="長方形 72" d="M10-1H73.218a11,11,0,0,1,11,11V42.158a11,11,0,0,1-11,11H10a11,11,0,0,1-11-11V10A11,11,0,0,1,10-1ZM73.218,51.158a9.01,9.01,0,0,0,9-9V10a9.01,9.01,0,0,0-9-9H10a9.01,9.01,0,0,0-9,9V42.158a9.01,9.01,0,0,0,9,9Z" transform="translate(0 0)"/>
        <g id="グループ_19" data-name="グループ 19" transform="translate(12.296 17.191)">
          <path id="線_13" data-name="線 13" d="M24.357,1H0A1,1,0,0,1-1,0,1,1,0,0,1,0-1H24.357a1,1,0,0,1,1,1A1,1,0,0,1,24.357,1Z"/>
          <path id="線_14" data-name="線 14" d="M24.357,1H0A1,1,0,0,1-1,0,1,1,0,0,1,0-1H24.357a1,1,0,0,1,1,1A1,1,0,0,1,24.357,1Z" transform="translate(0 8.887)"/>
          <path id="線_15" data-name="線 15" d="M24.357,1H0A1,1,0,0,1-1,0,1,1,0,0,1,0-1H24.357a1,1,0,0,1,1,1A1,1,0,0,1,24.357,1Z" transform="translate(0 17.774)"/>
        </g>
        <g id="グループ_20" data-name="グループ 20" transform="translate(46.566 9.926)">
          <path id="パス_16" data-name="パス 16" d="M250.848,196.513h-3.065l-2.764,4.566,4.935,8.545a.933.933,0,0,0,1.278.342l1.307-3.494,3.322.821a1.054,1.054,0,0,0,.385-1.435l-5.4-9.347Z" transform="translate(-230.936 -176.516)" fill="#ef8200"/>
          <path id="パス_17" data-name="パス 17" d="M206.005,196.52l-5.4,9.347a1.049,1.049,0,0,0,.385,1.435l3.682-.821.946,3.494a.94.94,0,0,0,1.279-.342l7.571-13.114h-8.464Z" transform="translate(-200.345 -176.523)" fill="#ef8200"/>
          <path id="パス_18" data-name="パス 18" d="M212.191,158.041l-1.836-1.5a1.05,1.05,0,0,0-.843-.226l-2.341.385a1.064,1.064,0,0,1-1.166-.674l-.837-2.219a1.053,1.053,0,0,0-.617-.617l-2.219-.837a1.064,1.064,0,0,1-.674-1.166l.385-2.341a1.062,1.062,0,0,0-.226-.843l-1.5-1.836a1.062,1.062,0,0,1,0-1.344l1.5-1.836a1.05,1.05,0,0,0,.226-.843l-.385-2.341a1.064,1.064,0,0,1,.674-1.166l2.219-.837a1.053,1.053,0,0,0,.617-.617l.837-2.219a1.062,1.062,0,0,1,1.166-.674l2.341.385a1.062,1.062,0,0,0,.843-.226l1.836-1.5a1.062,1.062,0,0,1,1.344,0l1.836,1.5a1.05,1.05,0,0,0,.843.226l2.341-.385a1.064,1.064,0,0,1,1.166.674l.837,2.219a1.053,1.053,0,0,0,.617.617l2.219.837a1.064,1.064,0,0,1,.674,1.166l-.385,2.341a1.062,1.062,0,0,0,.226.843l1.5,1.836a1.062,1.062,0,0,1,0,1.344l-1.5,1.836a1.05,1.05,0,0,0-.226.843l.385,2.341a1.064,1.064,0,0,1-.674,1.166l-2.219.837a1.053,1.053,0,0,0-.617.617l-.378,1-.459,1.216a1.064,1.064,0,0,1-1.166.674l-2.341-.385a1.062,1.062,0,0,0-.843.226l-1.836,1.5A1.062,1.062,0,0,1,212.191,158.041Z" transform="translate(-200.075 -132.705)" fill="#9fd4d5"/>
          <path id="パス_18_-_アウトライン" data-name="パス 18 - アウトライン" d="M212.863,159.281a2.069,2.069,0,0,1-1.3-.465l-1.838-1.505a.048.048,0,0,0-.045-.013l-2.343.386a2.062,2.062,0,0,1-2.264-1.307l-.837-2.219a.055.055,0,0,0-.032-.033l-2.221-.838a2.069,2.069,0,0,1-1.308-2.263l.386-2.342a.063.063,0,0,0-.015-.049l-1.5-1.834a2.071,2.071,0,0,1,0-2.61l1.505-1.838a.054.054,0,0,0,.013-.045l-.386-2.343a2.069,2.069,0,0,1,1.307-2.264l2.219-.837a.055.055,0,0,0,.033-.032l.838-2.221a2.062,2.062,0,0,1,2.262-1.308l2.343.386h.009a.067.067,0,0,0,.04-.016l1.834-1.5a2.062,2.062,0,0,1,2.61,0l1.838,1.505a.048.048,0,0,0,.045.013l2.343-.386a2.062,2.062,0,0,1,2.264,1.307l.837,2.219a.055.055,0,0,0,.032.033l2.221.838a2.069,2.069,0,0,1,1.308,2.263l-.386,2.342a.063.063,0,0,0,.015.049l1.5,1.834a2.071,2.071,0,0,1,0,2.61l-1.505,1.838a.054.054,0,0,0-.013.045l.386,2.343a2.069,2.069,0,0,1-1.307,2.264l-2.219.837a.055.055,0,0,0-.033.032l-.838,2.221a2.062,2.062,0,0,1-2.263,1.308l-2.342-.386h-.009a.067.067,0,0,0-.041.016l-1.834,1.5A2.07,2.07,0,0,1,212.863,159.281Zm-3.177-3.984a2.053,2.053,0,0,1,1.306.469l1.833,1.5a.06.06,0,0,0,.038.013.061.061,0,0,0,.04-.015l1.835-1.5a2.073,2.073,0,0,1,1.305-.466,2.05,2.05,0,0,1,.336.028l2.339.385h.009a.065.065,0,0,0,.059-.041l.837-2.218a2.05,2.05,0,0,1,1.2-1.2l2.216-.836a.064.064,0,0,0,.04-.069l-.385-2.34a2.049,2.049,0,0,1,.442-1.643l1.5-1.833a.062.062,0,0,0,0-.078l-1.5-1.835a2.063,2.063,0,0,1-.438-1.641l.385-2.339a.063.063,0,0,0-.04-.068l-2.218-.837a2.05,2.05,0,0,1-1.2-1.2l-.836-2.216a.064.064,0,0,0-.059-.041h-.01l-2.34.385a2.052,2.052,0,0,1-1.643-.442l-1.833-1.5a.06.06,0,0,0-.038-.013.061.061,0,0,0-.04.015l-1.835,1.5a2.073,2.073,0,0,1-1.305.466,2.048,2.048,0,0,1-.336-.028l-2.339-.385H207a.062.062,0,0,0-.058.041l-.837,2.218a2.05,2.05,0,0,1-1.2,1.2l-2.216.836a.064.064,0,0,0-.04.069l.385,2.34a2.049,2.049,0,0,1-.442,1.643l-1.5,1.833a.062.062,0,0,0,0,.078l1.5,1.835a2.063,2.063,0,0,1,.438,1.641l-.385,2.339a.064.064,0,0,0,.04.068l2.218.837a2.05,2.05,0,0,1,1.2,1.2l.836,2.216a.062.062,0,0,0,.069.04l2.34-.385A2.061,2.061,0,0,1,209.686,155.3Z" transform="translate(-200.075 -132.705)"/>
          <path id="パス_19" data-name="パス 19" d="M220.407,155.088a6.742,6.742,0,1,1-1.059,3.748,6.74,6.74,0,0,1,1.059-3.748" transform="translate(-213.308 -145.933)" fill="#ff8100"/>
          <path id="パス_19_-_アウトライン" data-name="パス 19 - アウトライン" d="M226.078,166.459q-.194,0-.388-.01a7.749,7.749,0,0,1-6.13-11.9,1.011,1.011,0,0,1,.059-.083,7.712,7.712,0,0,1,6.476-3.495h.031a7.745,7.745,0,0,1-.048,15.489ZM221.2,155.7a5.733,5.733,0,1,0,4.918-2.726h-.023a5.723,5.723,0,0,0-4.846,2.656Q221.226,155.663,221.2,155.7Z" transform="translate(-213.308 -145.933)"/>
        </g>
      </g>
      <path id="パス_5984" data-name="パス 5984" d="M-.74-7.14A13.878,13.878,0,0,1-1.23-3.2,4.92,4.92,0,0,1-2.82-.68,4.538,4.538,0,0,1-5.74.2,4.12,4.12,0,0,1-9.52-1.74a10.26,10.26,0,0,1-1.2-5.4,14.259,14.259,0,0,1,.48-3.95,4.868,4.868,0,0,1,1.58-2.53,4.538,4.538,0,0,1,2.92-.88,4.149,4.149,0,0,1,3.78,1.94A10.168,10.168,0,0,1-.74-7.14Zm-6.98,0A12.069,12.069,0,0,0-7.3-3.47,1.572,1.572,0,0,0-5.74-2.24,1.59,1.59,0,0,0-4.18-3.46a11.538,11.538,0,0,0,.44-3.68,11.65,11.65,0,0,0-.44-3.68,1.6,1.6,0,0,0-1.56-1.24A1.574,1.574,0,0,0-7.3-10.82,12.172,12.172,0,0,0-7.72-7.14ZM10.78,0H.8V-2.1L4.38-5.72Q5.46-6.84,6.12-7.59a6.46,6.46,0,0,0,.96-1.36,2.928,2.928,0,0,0,.3-1.31,1.63,1.63,0,0,0-.47-1.28,1.836,1.836,0,0,0-1.27-.42,3.615,3.615,0,0,0-1.6.38A8.631,8.631,0,0,0,2.4-10.5L.76-12.44a13.311,13.311,0,0,1,1.3-.99,6.3,6.3,0,0,1,1.61-.76,7.263,7.263,0,0,1,2.19-.29,5.29,5.29,0,0,1,2.41.51,3.845,3.845,0,0,1,1.56,1.38,3.609,3.609,0,0,1,.55,1.97,4.93,4.93,0,0,1-.47,2.16A7.924,7.924,0,0,1,8.55-6.52Q7.66-5.56,6.4-4.4L4.56-2.68v.14h6.22Z" transform="translate(601 1223)" fill="#9fd4d5"/>
    </g>
    <path id="パス_5994" data-name="パス 5994" d="M-52.479-5.2a10.881,10.881,0,0,1,3.264-.561c1.819,0,3.009.952,3.009,2.414a1.747,1.747,0,0,1-1.717,1.887,1.176,1.176,0,0,1-1.071-.578,3.276,3.276,0,0,1-.238-1.5,5.894,5.894,0,0,1,.034-.748,7.172,7.172,0,0,1-1.887.748A5.679,5.679,0,0,0-50.8-1.36,2.744,2.744,0,0,0-48.008.527a3.777,3.777,0,0,0,3.859-3.876c0-2.414-2.023-4.148-4.862-4.148a11.788,11.788,0,0,0-3.468.476v-2.21c.646-.068.986-.119,1.547-.221,1.173-.2,1.5-.255,1.8-.306l-.068-1.9a18.959,18.959,0,0,1-3.281.646V-12.1a10.437,10.437,0,0,1,.1-1.853H-54.5A11.648,11.648,0,0,1-54.4-12v1.122c-.187,0-.272,0-.68.017-.238.017-.425.017-.595.017A10.426,10.426,0,0,1-57.732-11l.017,1.9a3.187,3.187,0,0,1,.357-.017c.051,0,.2,0,.425.017.2,0,.68.017.935.017.425,0,.663,0,.918-.017.561-.034.561-.034.7-.034l.017,2.618a9.1,9.1,0,0,0-2.482,1.445A3.628,3.628,0,0,0-58.31-2.55a2.5,2.5,0,0,0,.935,1.921A5.3,5.3,0,0,0-54.162.578,1.494,1.494,0,0,0-52.6-.408a5.062,5.062,0,0,0,.136-1.445Zm-1.9,3.094c0,.561-.085.714-.374.714a2.044,2.044,0,0,1-1.088-.374c-.391-.238-.561-.493-.561-.782,0-.612.748-1.36,2.023-2.04ZM-43.4-9.282a14.419,14.419,0,0,0-3.366-3.485l-1.6,1.071a14.517,14.517,0,0,1,3.4,3.672Zm8.619,1.7H-39.3a20.623,20.623,0,0,1-2.363-.1v2.057a21.731,21.731,0,0,1,2.312-.1h4.573v4.488c0,.374-.119.442-.816.442A14.994,14.994,0,0,1-38.063-1a6.843,6.843,0,0,1,.527,2.04c1.224.051,1.564.068,1.9.068,2.261,0,2.839-.374,2.839-1.87V-5.729h4.165a20.859,20.859,0,0,1,2.312.1V-7.684a19.038,19.038,0,0,1-2.312.1h-4.165v-.731a23.122,23.122,0,0,0,3.621-2.618c1.156-1.105,1.156-1.105,1.6-1.513l-1.105-1.241a6.955,6.955,0,0,1-1.479.085h-7.7a16.718,16.718,0,0,1-2.04-.1V-11.7a16.83,16.83,0,0,1,2.057-.1h6.783a14.93,14.93,0,0,1-2.89,2.176h-.884c.034.391.051.748.051,1.292Zm19.159,1.768v1.87a21.829,21.829,0,0,1-3.3,1.989,8.2,8.2,0,0,1-1.394.561l.7,1.819c.255-.17.6-.408.731-.493a23.614,23.614,0,0,0,3.264-2.159v1.6c0,.306-.1.391-.459.391A7.629,7.629,0,0,1-17.7-.391a4.539,4.539,0,0,1,.459,1.717c.493.034.969.051,1.224.051,1.581,0,2.125-.34,2.125-1.309V-2.3c0-.323,0-.459-.051-1.224A8.913,8.913,0,0,0-12.121-.748,9.823,9.823,0,0,0-10.081.867,7.645,7.645,0,0,1-8.959-.816a8.8,8.8,0,0,1-2.7-1.819A14.238,14.238,0,0,0-9.724-4.709L-11.118-5.7a8.494,8.494,0,0,1-1.564,1.87,6.719,6.719,0,0,1-1.071-1.989h2.635a14.768,14.768,0,0,1,1.768.1V-7.429a13.226,13.226,0,0,1-1.768.1h-2.754v-.935h2.091a10.741,10.741,0,0,1,1.7.085V-9.809a11.007,11.007,0,0,1-1.7.085h-2.091v-.884h2.6a11.731,11.731,0,0,1,1.683.085v-1.7a11.993,11.993,0,0,1-1.7.1h-.833a16.7,16.7,0,0,0,.986-1.7l-1.819-.493a8.682,8.682,0,0,1-1.02,2.193h-1.513a11.654,11.654,0,0,0-1.122-2.193l-1.6.544a7.609,7.609,0,0,1,.969,1.649h-.238a11.007,11.007,0,0,1-1.615-.085v1.683a10.325,10.325,0,0,1,1.615-.085h1.853v.884h-1.6a12.46,12.46,0,0,1-1.564-.068v1.6a12.382,12.382,0,0,1,1.6-.068h1.564v.935H-17.68a12.072,12.072,0,0,1-1.734-.085v.153a6.725,6.725,0,0,1-1.411-2.3h.374a8.658,8.658,0,0,1,.986.051v-1.751a5.051,5.051,0,0,1-.969.068h-.459v-1.36a9.829,9.829,0,0,1,.1-1.768h-1.921a10.692,10.692,0,0,1,.1,1.768v1.36h-.918a6.4,6.4,0,0,1-1.139-.068v1.768a6.774,6.774,0,0,1,1.139-.068h.68a11.759,11.759,0,0,1-.646,2.108,10.294,10.294,0,0,1-1.615,2.89,8.9,8.9,0,0,1,.867,2.091,13.327,13.327,0,0,0,1.734-4.029c-.034.289-.068,1.088-.1,2.363V-.612a17.137,17.137,0,0,1-.1,2.074h1.921a16.562,16.562,0,0,1-.1-2.074V-4.93c0-.493-.017-1.326-.051-2.363a8.741,8.741,0,0,0,.867,1.887,6.931,6.931,0,0,1,.663-1.5v1.173a10.551,10.551,0,0,1,1.564-.085Zm-3.808,1.071A10.981,10.981,0,0,1-17.8-2.805l1.258-.952a10.144,10.144,0,0,0-1.7-1.921ZM1.326-10.9a3.716,3.716,0,0,1,1.717.51A4.212,4.212,0,0,1,5.134-6.613a4.76,4.76,0,0,1-2.363,4.25,9.035,9.035,0,0,1-3.383.935A5.423,5.423,0,0,1,.425.561,11.114,11.114,0,0,0,3.094-.153,6.549,6.549,0,0,0,7.225-6.494c0-3.825-2.652-6.307-6.732-6.307a7.631,7.631,0,0,0-5.848,2.38,7.3,7.3,0,0,0-1.87,4.947c0,2.737,1.394,4.709,3.332,4.709,1.394,0,2.482-1,3.451-3.2A24.594,24.594,0,0,0,1.326-10.9Zm-2.074.017A22.4,22.4,0,0,1-2.159-5.134c-.612,1.462-1.19,2.176-1.751,2.176-.748,0-1.343-1.1-1.343-2.5a5.692,5.692,0,0,1,2.312-4.59A4.327,4.327,0,0,1-.748-10.88ZM21.964-9.061a11.738,11.738,0,0,1-1.632,3.978,23.041,23.041,0,0,1-.782-5.083h3.06c.867,0,1.513.034,2.074.085v-1.87a9.474,9.474,0,0,1-1.8.1h-.51l.884-.612a9.512,9.512,0,0,0-1.717-1.785l-1.309.833a8.033,8.033,0,0,1,1.5,1.564H19.482v-.782a14.029,14.029,0,0,1,.085-1.615H17.544a5.267,5.267,0,0,1,.085,1.071c.034.748.034,1.19.051,1.326H12.75c-.884,0-1.581-.034-2.193-.085a16.822,16.822,0,0,1,.1,2.414,31.95,31.95,0,0,1-.51,6.715A7.948,7.948,0,0,1,8.976-.119a6.24,6.24,0,0,1,1.479,1.445,9.2,9.2,0,0,0,1.394-3.315,26.27,26.27,0,0,0,.527-4.267h2.482A18.478,18.478,0,0,1,14.6-3.179c-.085.425-.238.527-.765.527a10.363,10.363,0,0,1-1.649-.136,6.363,6.363,0,0,1,.442,1.8c.544.034.816.051,1.292.051,1.309,0,1.921-.255,2.193-.935.289-.714.391-1.615.561-4.675.034-.663.068-1.139.1-1.445a7.427,7.427,0,0,1-1.207.068H12.444c.017-.612.017-.612.034-2.244h5.27a21.079,21.079,0,0,0,1.275,6.783A12.76,12.76,0,0,1,14.45-.255a5.641,5.641,0,0,1,1.292,1.479,15.644,15.644,0,0,0,4.114-2.975c.986,1.6,2.329,2.737,3.2,2.737.935,0,1.53-1,1.921-3.3a5.07,5.07,0,0,1-1.53-1.139,9.9,9.9,0,0,1-.323,1.989c-.085.221-.153.323-.221.323a2.471,2.471,0,0,1-.765-.612,7.324,7.324,0,0,1-1.02-1.462,18.483,18.483,0,0,0,2.3-4.25c.272-.646.272-.646.374-.9ZM38.505-5.066h1.6a9.852,9.852,0,0,1,1.53.1V-6.8a10.789,10.789,0,0,1-1.683.1H30.889v-.9H38.1a10.141,10.141,0,0,1,1.564.085V-9.078a11.313,11.313,0,0,1-1.564.085H30.889v-.833H38.1a14.712,14.712,0,0,1,1.564.085v-1.547A11.68,11.68,0,0,1,38.1-11.2H30.889v-.85h7.463a13.95,13.95,0,0,1,1.955.085v-1.8a11.514,11.514,0,0,1-1.972.1H30.719a13.648,13.648,0,0,1-1.853-.085,13.232,13.232,0,0,1,.068,1.683V-6.7H28.05a10.978,10.978,0,0,1-1.768-.1v1.836a10.692,10.692,0,0,1,1.734-.1h.918V-.833a16.923,16.923,0,0,1-2.414.306l.357,1.9c.306-.085.357-.085.765-.17A49.229,49.229,0,0,0,34.289-.425l-.017-1.7a29.6,29.6,0,0,1-3.417.918V-5.066h1.479a9.038,9.038,0,0,0,2.6,3.366,14.715,14.715,0,0,0,6.12,2.958,8.31,8.31,0,0,1,.9-1.955A15,15,0,0,1,37.5-2.21a11.288,11.288,0,0,0,1.632-1.173c.629-.561.833-.748.969-.85Zm-.187,0A12.347,12.347,0,0,1,36.04-3.094a5.342,5.342,0,0,1-1.785-1.972Zm6.052-5.219a1.878,1.878,0,0,1,.272-.017c.153,0,.153,0,.476.017.374,0,1.87.034,2.142.034,0,0,.221-.017.289-.017a.832.832,0,0,0-.136.221,22.517,22.517,0,0,1-2.04,2.907,10.414,10.414,0,0,1-1.53,1.513L45.39-4.1a7.644,7.644,0,0,1,1.479-1.547,5.747,5.747,0,0,1,3.485-1.751.933.933,0,0,1,1.037.918,8.316,8.316,0,0,0-3.655,2.4,2.709,2.709,0,0,0-.748,1.887A2.465,2.465,0,0,0,48.229,0,7.3,7.3,0,0,0,52.02.714,30.834,30.834,0,0,0,56.372.408,5.009,5.009,0,0,1,57.154.34l-.17-2.193a14.77,14.77,0,0,1-5,.714c-2.057,0-2.873-.357-2.873-1.241A1.79,1.79,0,0,1,50-3.774a10.332,10.332,0,0,1,1.632-.884v.408a13.458,13.458,0,0,1-.1,1.972L53.5-2.329a6.98,6.98,0,0,1-.051-.9c0-.119,0-.272.017-.561v-.68c0-.238,0-.238-.017-.68v-.187Q55.641-6.1,56-6.2a15.006,15.006,0,0,1,1.887-.459l-.8-1.955a5.311,5.311,0,0,1-1.258.51q-.637.2-2.6.918a2.237,2.237,0,0,0-2.431-1.8,4.11,4.11,0,0,0-2.4.765c-.221.17-.221.17-.34.255l-.017-.034a8.8,8.8,0,0,0,1.564-2.261c1.717-.051,3.876-.187,5.117-.34.867-.1.867-.1,1.343-.136l-.119-1.938a22.966,22.966,0,0,1-4.454.578c-.935.051-.935.051-1.071.068.034-.068.068-.119.153-.306a12.988,12.988,0,0,1,.68-1.53l-2.227-.238A6.733,6.733,0,0,1,48.348-12a20.543,20.543,0,0,1-3.944-.221ZM-71.842,13.587a10.734,10.734,0,0,1,.068,1.53v4.675a12.259,12.259,0,0,1-.085,1.53h2.329a8.206,8.206,0,0,1-.068-1.5V15.134a8.641,8.641,0,0,1,.068-1.53Zm7.667.034a8.952,8.952,0,0,1,.085,1.615v2.125c0,1.36-.017,2.108-.085,2.839-.187,2.244-.748,3.281-2.346,4.335a9.17,9.17,0,0,1-3.672,1.36A5.808,5.808,0,0,1-69,27.918a14.38,14.38,0,0,0,3.315-1.309,6.511,6.511,0,0,0,3.349-3.961A20.079,20.079,0,0,0-61.9,17.5V15.2a8.063,8.063,0,0,1,.085-1.581Zm20.638.374a4.68,4.68,0,0,1-1.649.153H-54.06a13.553,13.553,0,0,1-2.346-.136v2.125a16.341,16.341,0,0,1,2.312-.1h8.925a7.05,7.05,0,0,1-1.615,2.159,7.883,7.883,0,0,1-2.482,1.564,5.746,5.746,0,0,1,1.53,1.547,10.633,10.633,0,0,0,2.04-1.411,10.788,10.788,0,0,0,2.618-3.417,4.725,4.725,0,0,1,.68-1.19Zm-8.075,3.434a4.3,4.3,0,0,1,.085,1.02c0,3.213-.544,4.675-2.278,6.052a7.838,7.838,0,0,1-2.975,1.445,6,6,0,0,1,1.343,1.938,9.823,9.823,0,0,0,4.386-3.06c1.156-1.479,1.615-3.111,1.683-6.018a7.8,7.8,0,0,1,.068-1.377ZM-38.2,13.706a8.544,8.544,0,0,1,.068,1.547c0,4.76-.391,6.953-1.615,8.908A6.984,6.984,0,0,1-41.5,26.116a6.05,6.05,0,0,1,1.717,1.649,10.826,10.826,0,0,0,2.346-3.145c.884-1.751,1.258-3.672,1.377-6.987a35.529,35.529,0,0,1,.17-3.808Zm4.505-.119a7.358,7.358,0,0,1,.068,1.122v.51l-.085,9.588a7.618,7.618,0,0,1-.153,1.8l1.088,1.156a7.4,7.4,0,0,1,.731-.306,11.228,11.228,0,0,0,3.621-2.04,10.55,10.55,0,0,0,2.7-3.961,7.126,7.126,0,0,1-1.6-1.6,8.307,8.307,0,0,1-1.666,3.111,6.835,6.835,0,0,1-2.6,1.938l.085-9.673a9.212,9.212,0,0,1,.119-1.615Zm22.321,1.207a4.463,4.463,0,0,1-1.5.2c-4.148.034-4.148.034-4.42.068a8.471,8.471,0,0,0,.408-.816,8.957,8.957,0,0,1,.51-.952l-2.21-.493a10.364,10.364,0,0,1-.986,2.363,14.615,14.615,0,0,1-4.267,4.845,5.4,5.4,0,0,1,1.7,1.36A17.588,17.588,0,0,0-18.156,16.8l5.287-.051a16.242,16.242,0,0,1-1.9,4.012,22.128,22.128,0,0,0-3.417-2.278L-19.482,20A19.245,19.245,0,0,1-16,22.427a12.341,12.341,0,0,1-2.788,2.363,17.133,17.133,0,0,1-3.315,1.7,5.4,5.4,0,0,1,1.411,1.751,16.6,16.6,0,0,0,7.752-6.494,28.513,28.513,0,0,0,2.176-4.675,3.045,3.045,0,0,1,.527-1.139Zm16.2-1.6a13.6,13.6,0,0,1-3.162,3.179A24.827,24.827,0,0,1-7.259,20.8,6.394,6.394,0,0,1-6.12,22.733,27.544,27.544,0,0,0-.051,19.979v5.984a9.562,9.562,0,0,1-.1,1.836h2.38a12.86,12.86,0,0,1-.085-1.887V18.653a30.062,30.062,0,0,0,4.012-3.5,7,7,0,0,1,.629-.595Zm9.129.017a26.887,26.887,0,0,1-1.241,4.709c-.884,2.788-1.564,4.709-2.465,6.851-.714.034-1.122.051-1.462.051H8.347l.306,2.3a9.3,9.3,0,0,1,1.547-.2c5.083-.493,7.9-.85,9.622-1.207.391-.085.391-.085.612-.136a17.408,17.408,0,0,1,.816,2.108l2.057-1.071a39.765,39.765,0,0,0-4.114-7.871l-1.921.748a21.106,21.106,0,0,1,1.615,2.7c.408.765.612,1.139.8,1.547a67.186,67.186,0,0,1-7.072.867,100.967,100.967,0,0,0,3.366-9.69,5.2,5.2,0,0,1,.442-1.224ZM28.8,27.408c-.017-.221-.017-.357-.017-.459A13.956,13.956,0,0,1,30.294,21.8l-1.36-.612a17.338,17.338,0,0,0-.884,2.244c.017-.425.034-.561.034-.935a28.384,28.384,0,0,1,.255-3.757,23.438,23.438,0,0,1,1.071-5.083l-2.244-.238A11.124,11.124,0,0,1,26.911,15a32.636,32.636,0,0,0-.7,6.647,29.652,29.652,0,0,0,.442,5.083c.051.391.068.493.085.8Zm2.346-10.183a20.181,20.181,0,0,0,3.06.187,30.45,30.45,0,0,0,3.638-.2c.816-.1,1.071-.136,1.207-.153L38.947,15a18.747,18.747,0,0,1-4.624.459,12.257,12.257,0,0,1-3.145-.272Zm1.173,2.805a5.553,5.553,0,0,0-1.564,3.5,2.848,2.848,0,0,0,.51,1.666c.748,1,2.108,1.479,4.216,1.479A20.964,20.964,0,0,0,39,26.354a5.681,5.681,0,0,1,.7-.1l-.17-2.159a11.947,11.947,0,0,1-4.046.646c-1.768,0-2.7-.51-2.7-1.479a3.846,3.846,0,0,1,1.207-2.448ZM56.508,18.6a11.854,11.854,0,0,1-1.615.068H51.7V14.947H55.4c-.068,1.258-.153,1.428-.68,1.428a12.3,12.3,0,0,1-1.751-.2,6.146,6.146,0,0,1,.374,1.6,15.028,15.028,0,0,0,1.53.085c1.87,0,2.108-.357,2.312-3.485.017-.408.034-.612.085-1.105a10.394,10.394,0,0,1-1.581.085H51.51a11.333,11.333,0,0,1-1.6-.085A17.132,17.132,0,0,1,50,15V26.371a12.22,12.22,0,0,1-.119,2.023h1.938a14.627,14.627,0,0,1-.119-1.6,10.99,10.99,0,0,1,.952,1.479,11.558,11.558,0,0,0,2.023-2.193,14.352,14.352,0,0,0,2.312,2.21,10.332,10.332,0,0,1,.986-1.8,8.138,8.138,0,0,1-2.346-1.972A19.1,19.1,0,0,0,57.069,20.3a3.608,3.608,0,0,1,.2-.748ZM51.7,20.285h.272a13.324,13.324,0,0,0,1.615,4.3A8.631,8.631,0,0,1,51.7,26.558Zm3.672,0a11.9,11.9,0,0,1-.833,2.7,9.646,9.646,0,0,1-1.02-2.7ZM46.8,17.225V15.916h1a11.347,11.347,0,0,1,1.411.068V14.216a10.188,10.188,0,0,1-1.411.068h-1v-.306a9.4,9.4,0,0,1,.068-1.292H45.033a6.371,6.371,0,0,1,.1,1.292v.306H43.979a10.188,10.188,0,0,1-1.411-.068v1.768a11.347,11.347,0,0,1,1.411-.068h1.156v1.309h-1.53a8.861,8.861,0,0,1-1.479-.085v1.8a8.225,8.225,0,0,1,1.224-.068,10.716,10.716,0,0,1,.442,1.887h-.187a8.032,8.032,0,0,1-1.479-.085v1.8a12.358,12.358,0,0,1,1.479-.068h1.513v1.36H43.894a10.669,10.669,0,0,1-1.411-.068v1.785a11.173,11.173,0,0,1,1.411-.068h1.224V26.66a13.6,13.6,0,0,1-.1,1.734h1.87c-.051-.544-.085-1.173-.085-1.734V25.419h1.156a11,11,0,0,1,1.411.068V23.7a10.669,10.669,0,0,1-1.411.068H46.8V22.41h1.326a12,12,0,0,1,1.479.068v-1.8a6.781,6.781,0,0,1-1.309.085h-.2a11.047,11.047,0,0,0,.561-1.887,7.572,7.572,0,0,1,.952.068v-1.8a8.738,8.738,0,0,1-1.479.085ZM45.39,20.761a12.333,12.333,0,0,0-.425-1.887h2.04a10.839,10.839,0,0,1-.51,1.887ZM66.062,16.63v2.142H61.115a14.717,14.717,0,0,1-1.87-.1v1.938a16.285,16.285,0,0,1,1.938-.1H72.522a15.4,15.4,0,0,1,1.921.1V18.67a14.406,14.406,0,0,1-1.938.1H67.932V16.63h3.451a12.929,12.929,0,0,1,1.836.1V14.811a12.868,12.868,0,0,1-1.853.1H67.932v-.578a8.394,8.394,0,0,1,.119-1.6H65.96a8.066,8.066,0,0,1,.1,1.581v.595H63.75c.085-.17.34-.68.748-1.53l-1.972-.527A5.778,5.778,0,0,1,62,14.284a8.382,8.382,0,0,1-2.584,3.162,7.025,7.025,0,0,1,1.479,1.275,10.5,10.5,0,0,0,1.853-2.091ZM63.07,28.377v-.748H70.7v.748h1.989a13.24,13.24,0,0,1-.1-1.887V23.328a12.857,12.857,0,0,1,.068-1.615,15.256,15.256,0,0,1-1.683.068H62.832a15.4,15.4,0,0,1-1.7-.068,12.857,12.857,0,0,1,.068,1.615v3.145a14.371,14.371,0,0,1-.1,1.9Zm0-4.9h7.65v2.431H63.07Z" transform="translate(10768 1255)"/>
    <rect id="長方形_224" data-name="長方形 224" width="220" height="206" transform="translate(10658 1078)" fill="none"/>
  </g>
</svg>
