<svg xmlns="http://www.w3.org/2000/svg" width="170" height="150" viewBox="0 0 170 150">
  <g id="features_hover_6-sp" transform="translate(-10276 -1601.201)">
    <g id="グループ_1020" data-name="グループ 1020" transform="translate(10275.565 1272.5)">
      <rect id="長方形_167" data-name="長方形 167" width="170" height="150" rx="10" transform="translate(0.435 328.701)" fill="#fff"/>
      <path id="長方形_167_-_アウトライン" data-name="長方形 167 - アウトライン" d="M10,2a8.009,8.009,0,0,0-8,8V140a8.009,8.009,0,0,0,8,8H160a8.009,8.009,0,0,0,8-8V10a8.009,8.009,0,0,0-8-8H10m0-2H160a10,10,0,0,1,10,10V140a10,10,0,0,1-10,10H10A10,10,0,0,1,0,140V10A10,10,0,0,1,10,0Z" transform="translate(0.435 328.701)" fill="#fff"/>
      <path id="パス_5923" data-name="パス 5923" d="M-49.515-9.51c.1,0,.18.015.21.015.06,0,.165.015.345.03a23.652,23.652,0,0,0,2.745.18,15.99,15.99,0,0,0,2.25-.12,2.714,2.714,0,0,1-.33.18c-.2.12-.24.15-.39.24-.375.21-.54.315-1.485.915l1.305,1.035a27.163,27.163,0,0,1,4-2.475l-.06-1.695a18.6,18.6,0,0,1-3.96.285,19.673,19.673,0,0,1-4.5-.375Zm1.11,3.39C-49.755-4.995-50.34-4-50.34-2.85a2.59,2.59,0,0,0,1.92,2.5A10.73,10.73,0,0,0-44.67.15,24.205,24.205,0,0,0-40.62-.2a6.3,6.3,0,0,1,.66-.06l-.165-2.055a15.447,15.447,0,0,1-4.71.645c-2.535,0-3.63-.42-3.63-1.395,0-.645.42-1.275,1.365-2.07ZM-38.1-6.735A8.675,8.675,0,0,0-39.66-8.85l-1.005.525a11.052,11.052,0,0,1,1.53,2.175Zm-4.41-.7A10.124,10.124,0,0,1-40.935-5.2l1.05-.555a9.721,9.721,0,0,0-1.575-2.2Zm13.425-.87H-31.41a12.342,12.342,0,0,1-1.65-.09v1.71a13.323,13.323,0,0,1,1.65-.09h2.325v1.935h-2.07A8.447,8.447,0,0,1-32.34-4.9a11.465,11.465,0,0,1,.06,1.29v3.27c0,.585-.03,1.155-.06,1.56h1.65V.465h5.025v.75h1.695A14.76,14.76,0,0,1-24.045-.33V-3.555a11.234,11.234,0,0,1,.06-1.35,7.919,7.919,0,0,1-1.185.06h-2.28V-6.78h2.625a12.278,12.278,0,0,1,1.665.09V-8.4a12.37,12.37,0,0,1-1.68.09h-2.61v-1.98c1.065-.165,2.4-.435,3.135-.63.48-.12.48-.12.735-.195l-1.095-1.5c-1.4.69-4.815,1.26-8.07,1.32a4.575,4.575,0,0,1,.57,1.485c1.29-.075,1.59-.105,3.09-.27ZM-30.69-3.375h5.025v2.31H-30.69Zm-5.835-7.995a17.161,17.161,0,0,1,2.7,2.1l.975-1.29a19.071,19.071,0,0,0-2.655-1.965Zm-.48,3.855A15.7,15.7,0,0,1-34.2-5.61l.9-1.365A17.7,17.7,0,0,0-36.09-8.73Zm2.43,2.925A16.3,16.3,0,0,1-36.4-.825a3.344,3.344,0,0,1-.54.66L-35.49.99a29.978,29.978,0,0,0,2.22-4.635Zm18.93,1.11V-1a12.357,12.357,0,0,1-.09,1.77h1.77A13.172,13.172,0,0,1-14.04-1.02V-3.48h3.6V-.855c0,.315-.135.375-.75.375-.48,0-1.14-.045-1.89-.12A6.067,6.067,0,0,1-12.66.96c.45.03,1.215.06,1.68.06C-9.27,1.02-8.82.7-8.82-.54V-10.4c0-.81.015-1.185.06-1.695a16.681,16.681,0,0,1-1.725.06H-18.9c-.81,0-1.2-.015-1.725-.06a20.263,20.263,0,0,1,.075,2.175c0,1.77-.06,3.9-.135,5.16a15.177,15.177,0,0,1-.3,2.3A6.86,6.86,0,0,1-22.08.075,9.024,9.024,0,0,1-20.625,1.26a10.07,10.07,0,0,0,1.53-4.74Zm0-1.485H-18.99c0-.3,0-.405.015-1.11,0-.21.015-.51.015-.945h3.315Zm1.605,0V-7.02h3.6v2.055ZM-15.645-8.49H-18.93l.015-.42v-1.545h3.27Zm1.605,0v-1.965h3.6V-8.49Zm8.145-2.535a7.167,7.167,0,0,1,.06.96c.06,4.155.33,6.33.945,7.83C-4.29-.8-3.48-.06-2.475-.06-1.2-.06-.33-1.275.45-4.2a7.4,7.4,0,0,1-1.5-1.365,11.058,11.058,0,0,1-.8,2.715c-.18.42-.39.645-.615.645-.48,0-.96-.96-1.215-2.52a28.07,28.07,0,0,1-.285-4.02,17.438,17.438,0,0,1,.12-2.28ZM1.68-9.6A13.093,13.093,0,0,1,3.81-5.91a15.206,15.206,0,0,1,.96,4.335L6.63-2.28a14.955,14.955,0,0,0-3.375-8.07ZM8.9-8.22a2.24,2.24,0,0,1,.285-.015c.12,0,.33,0,.6.015s.405.015.48.015h.87a1.27,1.27,0,0,0,.195-.015A32.048,32.048,0,0,1,8.64-.15l1.89.735A50.855,50.855,0,0,0,12.21-4.38c.39-1.365.765-2.955.93-3.885A20.448,20.448,0,0,0,15.6-8.58c.36-.06.36-.06.48-.075L16-10.38a12.449,12.449,0,0,1-2.565.45c.06-.345.075-.435.15-.855a8.524,8.524,0,0,1,.285-1.44l-1.98-.18a2.036,2.036,0,0,1,.015.27,18.206,18.206,0,0,1-.285,2.3c-.345.015-.51.015-.69.015a11.934,11.934,0,0,1-2.01-.135Zm11.9.33c-.945-.015-1.08-.015-1.485-.015a19.25,19.25,0,0,0-4.47.48l.135,1.65a16.188,16.188,0,0,1,3.96-.435,15.616,15.616,0,0,1,1.89.105ZM14.88-4.74a4.23,4.23,0,0,0-1.11,2.6A2.167,2.167,0,0,0,14.835-.3,6.091,6.091,0,0,0,17.85.3,17.456,17.456,0,0,0,20.64.06c.345-.06.465-.075.735-.105L21.24-1.89a11.48,11.48,0,0,1-3.405.555c-1.5,0-2.25-.39-2.25-1.155a2.489,2.489,0,0,1,.78-1.65Zm8.895-3.345A2.24,2.24,0,0,1,24.06-8.1c.12,0,.39,0,.6.015h1.065l.33.015h.15A32.346,32.346,0,0,1,23.52-.03L25.41.7A49.887,49.887,0,0,0,28.02-8.13a20.388,20.388,0,0,0,2.46-.315l.345-.06a.659.659,0,0,0,.135-.015l-.075-1.725a13.676,13.676,0,0,1-2.565.45c.045-.27.075-.39.09-.465.045-.27.075-.48.1-.66a10.164,10.164,0,0,1,.24-1.17l-1.98-.18a2.035,2.035,0,0,1,.015.27A18.206,18.206,0,0,1,26.5-9.7c-.345.015-.51.015-.69.015a11.934,11.934,0,0,1-2.01-.135Zm8.4-3.255A10.124,10.124,0,0,1,33.75-9.1L34.8-9.66a9.721,9.721,0,0,0-1.575-2.2ZM35.67-7.77c-.69-.015-1.035-.015-1.485-.015a19.171,19.171,0,0,0-4.47.48L29.85-5.64a15.509,15.509,0,0,1,3.96-.45,15.615,15.615,0,0,1,1.89.105ZM29.76-4.62a4.3,4.3,0,0,0-1.11,2.61A2.167,2.167,0,0,0,29.715-.165a6.091,6.091,0,0,0,3.015.6A16.075,16.075,0,0,0,35.52.18c.39-.06.465-.075.735-.105l-.135-1.83a11.48,11.48,0,0,1-3.4.555c-1.5,0-2.25-.39-2.25-1.155,0-.54.18-.9.78-1.665Zm6.825-6.015a8.675,8.675,0,0,0-1.56-2.115l-1.005.525a11.052,11.052,0,0,1,1.53,2.175Zm3,2c.315-.015.39-.03,1.02-.03a36.163,36.163,0,0,0,4.02-.21c.12.27.165.36.315.675.12.285.18.375.27.555a29.51,29.51,0,0,1-4.245.285,8.89,8.89,0,0,1-1.545-.06l.06,1.635c.255-.03.36-.03.615-.045A43.06,43.06,0,0,0,45.9-6.24a9.031,9.031,0,0,0,1.155,1.68,10.337,10.337,0,0,0-2.6-.315,6.686,6.686,0,0,0-3.495.75,2.5,2.5,0,0,0-1.26,2.085A2.416,2.416,0,0,0,40.86.015,6.858,6.858,0,0,0,44.52.75,14.442,14.442,0,0,0,48.36.24a7.418,7.418,0,0,1,.975-.225l-.27-1.845a11.65,11.65,0,0,1-4.62.975,5.847,5.847,0,0,1-2.145-.33.989.989,0,0,1-.645-.87A1.082,1.082,0,0,1,42.3-2.97a5.786,5.786,0,0,1,2.52-.42,8.066,8.066,0,0,1,3.45.615l1.32-.945a15,15,0,0,1-2.01-2.745c.18-.045.18-.045.555-.12.36-.075.855-.18,1.47-.33.345-.09.66-.15.945-.2L50.4-8.745a7.576,7.576,0,0,1-1.425.435c-.09.015-.78.165-2.07.435A13.507,13.507,0,0,1,46.32-9.1c.465-.06,2.13-.39,3.135-.63l.51-.105-.15-1.59a25.2,25.2,0,0,1-4.05.9,8.793,8.793,0,0,1-.615-1.815l-1.875.255c.015.03.225.495.6,1.365.12.27.12.27.165.39a26.658,26.658,0,0,1-3.09.165,12.584,12.584,0,0,1-1.44-.06ZM-47.28,12.015c-.135-.5-.195-.69-.315-1.065a9.91,9.91,0,0,1-.525-1.77l-1.86.525a16.4,16.4,0,0,1,1.02,2.79c-.72.225-.84.255-1.455.465a8.553,8.553,0,0,1-1.365.39l.585,1.755a17.356,17.356,0,0,1,1.935-.765,7.018,7.018,0,0,0,.75-.27,56.454,56.454,0,0,1,1.83,7.98l1.98-.45a4.008,4.008,0,0,1-.225-.72c-.9-3.75-.975-4.035-1.905-7.29a15.114,15.114,0,0,1,4.5-.93c1.26,0,2,.555,2,1.5a1.551,1.551,0,0,1-.615,1.275,3.008,3.008,0,0,1-1.695.5,5.668,5.668,0,0,1-2.4-.585,6.611,6.611,0,0,1,.27,1.845,7.335,7.335,0,0,0,2.325.42,4.216,4.216,0,0,0,2.775-.885,3.4,3.4,0,0,0,1.215-2.61c0-1.845-1.4-3.06-3.51-3.06-.3,0-.51.015-.87.045a16.725,16.725,0,0,1,.075-2.4h-1.89a8.805,8.805,0,0,1,.09,1.8c.015.525.015.525.015.825-.6.12-.855.18-1.275.285Zm19.455,1.005v-.975c1.185-.03,1.455-.03,1.815-.03,1.245,0,1.965.03,2.52.075l-.015-1.725c-.555.06-1.725.09-4.335.1a11.793,11.793,0,0,1,.075-1.785l-1.89.015a8.139,8.139,0,0,1,.09,1.815c-.78.03-.78.03-1.275.045-1.23.03-1.38.03-2.355.06-1.935.075-2.175.075-2.55.075a6.532,6.532,0,0,1-.735-.03l.06,1.785c.4-.06.4-.06,2.67-.225.66-.045,2.07-.09,4.215-.15,0,.4,0,1.245.015,1.275a.618.618,0,0,0,.015.18,2.507,2.507,0,0,0-1.56-.45,2.761,2.761,0,0,0-2.985,2.73,2.344,2.344,0,0,0,1.035,2.025,2.764,2.764,0,0,0,1.74.54,2.471,2.471,0,0,0,2.2-1.065,3.157,3.157,0,0,1-1.74,2.19,7.079,7.079,0,0,1-2.55.87,4.923,4.923,0,0,1,1.065,1.695,10.486,10.486,0,0,0,2.715-1.23,4.813,4.813,0,0,0,2.235-4.05,4.565,4.565,0,0,0-.48-2.115c0-.18-.015-.3-.015-.36Zm-1.725,2.475a1.367,1.367,0,0,1-1.47,1.35,1.184,1.184,0,0,1-1.275-1.185,1.314,1.314,0,0,1,1.395-1.2C-30.075,14.46-29.55,14.865-29.55,15.495Zm8.655-5.52a7.167,7.167,0,0,1,.06.96c.06,4.155.33,6.33.945,7.83.6,1.44,1.41,2.175,2.415,2.175,1.275,0,2.145-1.215,2.925-4.14a7.4,7.4,0,0,1-1.5-1.365,11.058,11.058,0,0,1-.8,2.715c-.18.42-.39.645-.615.645-.48,0-.96-.96-1.215-2.52a28.07,28.07,0,0,1-.285-4.02,17.438,17.438,0,0,1,.12-2.28ZM-13.32,11.4a13.093,13.093,0,0,1,2.13,3.69,15.206,15.206,0,0,1,.96,4.335l1.86-.7a14.955,14.955,0,0,0-3.375-8.07Zm12.6,8.355c.33-.1.765-.225,1.425-.375l3.18-.72v1.815A10.876,10.876,0,0,1,3.8,22.26H5.61a11,11,0,0,1-.09-1.77V18.3l.15-.03A10.957,10.957,0,0,1,7.11,18L6.8,16.29a9.148,9.148,0,0,1-1.275.375v-6.51A10.6,10.6,0,0,1,5.61,8.43H3.8a10.265,10.265,0,0,1,.09,1.74v6.855l-3.51.78a10.045,10.045,0,0,1-1.38.21,8.747,8.747,0,0,1,.42-.84A7.966,7.966,0,0,1-2.52,14.88h.54A8.724,8.724,0,0,1-.8,14.94V13.38a7.6,7.6,0,0,1-1.155.06h-.7V9.87A8.955,8.955,0,0,1-2.58,8.415H-4.29a9.281,9.281,0,0,1,.075,1.47V13.44H-5.22a7.449,7.449,0,0,1-1.35-.075v1.59a7.761,7.761,0,0,1,1.35-.075h.78a12.648,12.648,0,0,1-.8,1.7,9.863,9.863,0,0,1-1.62,2.22A4.518,4.518,0,0,1-6.09,20.34a10.361,10.361,0,0,0,1.95-3.375c-.03.495-.06,1.2-.06,1.8V20.7a9.713,9.713,0,0,1-.105,1.59h1.74a8.872,8.872,0,0,1-.09-1.56V18.255c0-.48-.015-.69-.09-1.71A11.1,11.1,0,0,0-1.23,18.66c.075-.24.09-.315.165-.51ZM-6.675,9.81a12.1,12.1,0,0,1,.93,3.21l1.26-.54A18.244,18.244,0,0,0-5.4,9.24Zm5.16-.6A12.478,12.478,0,0,1-2.55,12.45l1.095.57a18.152,18.152,0,0,0,1.2-3.255ZM-.09,10.575a12.672,12.672,0,0,1,2.655,2.31l1.02-1.26A14.57,14.57,0,0,0,.96,9.42Zm-.465,3.7a13.12,13.12,0,0,1,2.64,2.31l1.02-1.215a13.687,13.687,0,0,0-2.61-2.2Zm14.625-.36v1.455H10.53a11.071,11.071,0,0,1-1.635-.09V16.95a12.323,12.323,0,0,1,1.62-.09H14.07v3.36H10.305a16.208,16.208,0,0,1-1.86-.09v1.725a14.789,14.789,0,0,1,1.86-.1h9.48a13.836,13.836,0,0,1,1.8.1V20.13a14.052,14.052,0,0,1-1.77.09h-4.08V16.86h3.78a11.884,11.884,0,0,1,1.65.09V15.285a10.66,10.66,0,0,1-1.635.09H15.735V13.92h1.53a10.253,10.253,0,0,1,1.47.075V13.23a15.293,15.293,0,0,0,2.625,1.32,7.656,7.656,0,0,1,.81-1.65,12.424,12.424,0,0,1-3.975-2.025,8.872,8.872,0,0,1-2.31-2.31h-1.86a11.573,11.573,0,0,1-6.12,4.395,6.664,6.664,0,0,1,.87,1.545,16.187,16.187,0,0,0,2.445-1.23v.72a10.51,10.51,0,0,1,1.47-.075Zm-1.74-1.41a10.582,10.582,0,0,0,2.625-2.52,11.834,11.834,0,0,0,2.7,2.52c-.225.015-.225.015-.36.015l-4.65-.015Zm-2.19,5.085a10.924,10.924,0,0,1,1.185,2.49l1.5-.6a17.384,17.384,0,0,0-1.2-2.49Zm8.085-.585a12.534,12.534,0,0,1-1.185,2.58l1.41.525c.51-.87.57-.975.615-1.065.555-1.095.555-1.095.75-1.44ZM35.37,14.625a5.281,5.281,0,0,1-1.05.06H29.9a4.617,4.617,0,0,1-.96-.075V16.2a4.338,4.338,0,0,1,.675-.06,8.564,8.564,0,0,0,1.935,3.105A10.526,10.526,0,0,1,28.35,20.7V18.45a7.121,7.121,0,0,1,.045-1.1,5.325,5.325,0,0,1-1.005.045H24.81c-.465,0-.78-.015-1.155-.045a6.942,6.942,0,0,1,.075,1.185v2.2a11.448,11.448,0,0,1-.09,1.485h1.53v-.72h1.755v.51H28.41a7.169,7.169,0,0,1-.06-1.065,5.225,5.225,0,0,1,.765,1.275,12.13,12.13,0,0,0,3.6-1.92,11.621,11.621,0,0,0,3.75,1.875,8.153,8.153,0,0,1,.75-1.6,10.5,10.5,0,0,1-3.345-1.365A11.066,11.066,0,0,0,35.9,16.05a4.468,4.468,0,0,1,.3-.615Zm-1.215,1.5a7.588,7.588,0,0,1-1.485,2.16,6.237,6.237,0,0,1-1.5-2.16ZM25.17,18.7h1.755V20.19H25.17Zm-1.47-8.52a9.962,9.962,0,0,1,1.26-.06h2.16a10.271,10.271,0,0,1,1.26.06V8.73a7.242,7.242,0,0,1-1.26.075H24.96A7.242,7.242,0,0,1,23.7,8.73Zm-.48,2.22a9.065,9.065,0,0,1,1.215-.06H27.6a6.78,6.78,0,0,1,1.14.06V10.86a7.991,7.991,0,0,1-1.215.06h-3.09a6.688,6.688,0,0,1-1.215-.075Zm.51,2.115a8.434,8.434,0,0,1,.99-.045h2.67a8.584,8.584,0,0,1,.96.045v-1.4a7.379,7.379,0,0,1-.96.045H24.72a8.259,8.259,0,0,1-.99-.045Zm0,2.115a8.5,8.5,0,0,1,.975-.045H27.36a6.255,6.255,0,0,1,.99.045v-1.4a7.378,7.378,0,0,1-.96.045H24.72a8.259,8.259,0,0,1-.99-.045Zm9.39-6.315v2.64c0,.795.315.975,1.77.975,1.9,0,2.07-.18,2.25-2.64a5.906,5.906,0,0,1-1.35-.54c-.09,1.8-.09,1.8-.69,1.8-.36,0-.465-.06-.465-.255V10.08a9.624,9.624,0,0,1,.06-1.275,10.532,10.532,0,0,1-1.275.06H31.125A9.618,9.618,0,0,1,29.94,8.8a5.174,5.174,0,0,1,.075,1.005c0,1.965-.375,2.88-1.56,3.75A7.877,7.877,0,0,1,29.76,14.6a4.374,4.374,0,0,0,1.11-1.425,6.13,6.13,0,0,0,.615-2.85Zm11.235,9.435a4.347,4.347,0,0,1-2.28-2.085c.225-.7.315-1.05.39-1.35.135-.615.135-.63.21-.885L41.01,15.12a9.3,9.3,0,0,1-.3,1.62,8.881,8.881,0,0,1-2.58,4.245,4.083,4.083,0,0,1,1.29,1.23,10.626,10.626,0,0,0,2.055-2.94c1.23,1.815,3.195,2.58,6.705,2.58,1.185,0,1.965-.015,3.195-.045a5.834,5.834,0,0,1,.42-1.71c-1.53.135-2.55.18-3.42.18a17.535,17.535,0,0,1-2.445-.15V17.55h2.835a10.126,10.126,0,0,1,1.47.075v-1.6a7.694,7.694,0,0,1-1.47.09H45.93V14.19H47.9a10.754,10.754,0,0,1,1.545.075v-1.59a10.5,10.5,0,0,1-1.545.075H42.15a10.053,10.053,0,0,1-1.515-.075v1.59a10.678,10.678,0,0,1,1.515-.075h2.2ZM44.1,9.93H40.185c-.6,0-1.11-.015-1.65-.06.03.345.06.72.06,1.11v1.155a6.629,6.629,0,0,1-.075,1.185h1.665V11.445h9.69V13.32H51.5a9.685,9.685,0,0,1-.06-1.17V10.98a8.253,8.253,0,0,1,.06-1.11c-.555.045-1.065.06-1.665.06H45.78V9.36a4.555,4.555,0,0,1,.075-.945H44.01a4.854,4.854,0,0,1,.09.96Z" transform="translate(84.435 440.701)" fill="#5a534a"/>
      <g id="features-07" transform="translate(57.434 353.701)">
        <path id="パス_27" data-name="パス 27" d="M104.119,110.3c3.457-6.265,3.779-12.755-.072-18.249-5.794-8.265-17.965-6.13-22.8,0-4.837-6.13-17.008-8.265-22.8,0-8.291,11.829,2.763,28.278,22.8,37.156A57.084,57.084,0,0,0,97.86,118.3" transform="translate(-55.666 -86.622)" fill="rgba(0,0,0,0)"/>
        <path id="パス_27_-_アウトライン" data-name="パス 27 - アウトライン" d="M81.245,130.205a1,1,0,0,1-.405-.086,58.466,58.466,0,0,1-16.755-10.956c-4.435-4.269-7.451-8.945-8.724-13.523a16.314,16.314,0,0,1,2.263-14.166,13.732,13.732,0,0,1,11.157-5.847A17.51,17.51,0,0,1,76.241,87.1a15.489,15.489,0,0,1,5,3.428,15.489,15.489,0,0,1,5-3.428,17.509,17.509,0,0,1,7.459-1.471,13.732,13.732,0,0,1,11.157,5.847,15.836,15.836,0,0,1,2.958,9.419,20.927,20.927,0,0,1-2.829,9.887,1,1,0,1,1-1.751-.966,18.961,18.961,0,0,0,2.58-8.941,13.875,13.875,0,0,0-2.6-8.251,11.4,11.4,0,0,0-4.312-3.732,12.586,12.586,0,0,0-5.265-1.264,15.5,15.5,0,0,0-6.6,1.3,12.984,12.984,0,0,0-5.021,3.737,1,1,0,0,1-1.57,0,12.984,12.984,0,0,0-5.021-3.737,15.5,15.5,0,0,0-6.6-1.3,12.586,12.586,0,0,0-5.265,1.264,11.4,11.4,0,0,0-4.312,3.732,14.034,14.034,0,0,0-2.442,6.013,15.5,15.5,0,0,0,.469,6.47c1.177,4.233,4.007,8.6,8.184,12.617A56.211,56.211,0,0,0,81.245,128.11a56.046,56.046,0,0,0,15.919-10.528,1,1,0,0,1,1.394,1.434,58.3,58.3,0,0,1-16.907,11.1A1,1,0,0,1,81.245,130.205Z" transform="translate(-55.666 -86.622)" fill="#5a534a"/>
        <path id="パス_28" data-name="パス 28" d="M269.7,169.672,261,173.013l-3.343-8.693" transform="translate(-213.61 -147.376)" fill="rgba(0,0,0,0)"/>
        <path id="パス_28_-_アウトライン" data-name="パス 28 - アウトライン" d="M261,174.013a1,1,0,0,1-.934-.641l-3.343-8.693a1,1,0,0,1,1.867-.718l2.984,7.759,7.759-2.982a1,1,0,1,1,.718,1.867l-8.693,3.341A1,1,0,0,1,261,174.013Z" transform="translate(-213.61 -147.376)" fill="#5a534a"/>
      </g>
    </g>
  </g>
</svg>
