<svg xmlns="http://www.w3.org/2000/svg" width="376" height="107" viewBox="0 0 376 107">
  <g id="グループ_943" data-name="グループ 943" transform="translate(-150 -1631)">
    <rect id="長方形_165" data-name="長方形 165" width="376" height="107" rx="10" transform="translate(150 1631)" fill="#fff"/>
    <text id="充実のプログラムで_好奇心を刺激" data-name="充実のプログラムで
好奇心を刺激" transform="translate(412 1679)" fill="#5a534a" font-size="17" font-family="HiraginoSans-W6, Hiragino Sans"><tspan x="-76.075" y="0">充実のプログラムで</tspan><tspan y="0" font-family="NotoSans-Bold, Noto Sans" font-weight="700"></tspan><tspan x="-51" y="27">好奇心を刺激</tspan></text>
    <g id="features-04" transform="translate(197 1655)">
      <line id="線_16" data-name="線 16" y2="22.136" transform="translate(76.813 18.343)" fill="none" stroke="#767777" stroke-linecap="round" stroke-linejoin="round" stroke-width="2"/>
      <path id="パス_20" data-name="パス 20" d="M296.827,258.033H291.88l1.251-10.6h2.444Z" transform="translate(-217.541 -199.443)" fill="none" stroke="#767777" stroke-linecap="round" stroke-linejoin="round" stroke-width="2"/>
      <ellipse id="楕円形_530" data-name="楕円形 530" cx="2.473" cy="2.473" rx="2.473" ry="2.473" transform="translate(74.339 40.479)" fill="none" stroke="#ef8200" stroke-linecap="round" stroke-linejoin="round" stroke-width="2"/>
      <path id="パス_21" data-name="パス 21" d="M148.963,178.584c0,4.9-11.458,8.876-25.591,8.876s-25.591-3.973-25.591-8.876V151.51h51.183Z" transform="translate(-80.866 -131.901)" fill="none" stroke="#767777" stroke-linecap="round" stroke-linejoin="round" stroke-width="2"/>
      <path id="パス_22" data-name="パス 22" d="M41.479,97.756,81.937,85.39a3.65,3.65,0,0,1,2.136,0l40.659,12.367a1.229,1.229,0,0,1,.036,2.34L84.18,113.824a3.67,3.67,0,0,1-2.349,0L41.444,100.1a1.23,1.23,0,0,1,.036-2.34Z" transform="translate(-40.61 -85.23)" fill="#fff" stroke="#767777" stroke-linecap="round" stroke-linejoin="round" stroke-width="2"/>
    </g>
  </g>
</svg>
