<?xml version="1.0" encoding="utf-8"?>
<!-- Generator: Adobe Illustrator 27.3.1, SVG Export Plug-In . SVG Version: 6.00 Build 0)  -->
<svg version="1.1" id="レイヤー_1" xmlns="http://www.w3.org/2000/svg" xmlns:xlink="http://www.w3.org/1999/xlink" x="0px"
	 y="0px" viewBox="0 0 376 107" style="enable-background:new 0 0 376 107;" xml:space="preserve">
<style type="text/css">
	.st0{fill:#5A534A;}
	.st1{fill:#FFFFFF;}
	.st2{enable-background:new    ;}
	.st3{fill:#EF8200;}
</style>
<g id="グループ_937" transform="translate(-150 -1631)">
	<g id="長方形_165" transform="translate(150 1631)">
		<path class="st0" d="M10,0h356c5.5,0,10,4.5,10,10v87c0,5.5-4.5,10-10,10H10c-5.5,0-10-4.5-10-10V10C0,4.5,4.5,0,10,0z"/>
		<path class="st1" d="M366,107H10c-5.5,0-10-4.5-10-10V10C0,4.5,4.5,0,10,0h356c5.5,0,10,4.5,10,10v87C376,102.5,371.5,107,366,107
			z M10,3c-3.9,0-7,3.1-7,7v87c0,3.9,3.1,7,7,7h356c3.9,0,7-3.1,7-7V10c0-3.9-3.1-7-7-7H10z"/>
	</g>
	<g class="st2">
		<path class="st1" d="M345.1,1672.6c-0.3,0-0.6,0.1-0.8,0.1c-0.4,0-0.8,0.1-1.1,0.1c-0.1,2-0.5,3.5-1.3,4.6c-1,1.3-2.3,2.2-4.4,3.1
			c-0.4-0.9-0.6-1.2-1.1-1.8c1.9-0.6,3-1.3,3.8-2.3c0.6-0.8,1-1.9,1-3.5c-1,0.1-1.3,0.1-2.3,0.1c-0.5,0-1,0.1-1.4,0.1l-0.3-2
			c0.5,0.1,0.8,0.1,1.3,0.1c0.1,0,0.3,0,0.7,0c0.1,0,0.4,0,0.7,0c0.8-0.9,1.5-1.9,1.9-2.8h-3.5c-0.8,0-1.4,0-1.8,0.1v-2
			c0.5,0.1,1.1,0.1,1.9,0.1h4.6v-0.6c0-0.5,0-0.8-0.1-1.2h2.1c-0.1,0.4-0.1,0.8-0.1,1.2v0.6h4.9c0.8,0,1.3,0,1.9-0.1v2
			c-0.5-0.1-0.9-0.1-1.9-0.1h-5.9c-0.6,1-1.2,1.9-1.9,2.7c2.4-0.1,3.6-0.2,5.3-0.3c-0.5-0.5-0.8-0.8-1.8-1.5l1.5-0.8
			c1.7,1.3,2.8,2.3,4.4,4.1l-1.4,1.2c-0.6-0.8-0.8-1.1-1.2-1.5c-1.3,0.1-1.3,0.1-2.1,0.2v5.4c0,0.4,0.2,0.5,1.4,0.5
			c1.2,0,1.7-0.1,1.8-0.3c0.1-0.1,0.1-0.4,0.2-1c0-0.1,0-0.6,0.1-1.6c0.6,0.3,0.9,0.4,1.8,0.6c-0.1,2-0.3,2.8-0.6,3.2
			c-0.5,0.6-1.3,0.7-3.3,0.7c-1.3,0-2.1-0.1-2.5-0.3c-0.4-0.2-0.6-0.6-0.6-1.2V1672.6z"/>
		<path class="st1" d="M357.2,1670.7c-0.8,0-1.2,0-1.6,0.1v-0.9h-1.6c0.1-0.4,0.1-0.7,0.1-1.3v-1.3c0-0.5,0-0.8-0.1-1.3
			c0.5,0.1,1,0.1,1.9,0.1h4.4v-0.4c0-0.4,0-0.7-0.1-1.1h2.1c-0.1,0.3-0.1,0.6-0.1,1.1v0.4h4.7c0.9,0,1.3,0,1.9-0.1
			c-0.1,0.4-0.1,0.8-0.1,1.2v1.3c0,0.5,0,0.9,0.1,1.3h-1.6v0.9c-0.4-0.1-0.8-0.1-1.6-0.1h-3.4c0,0.5,0,0.5,0,0.9h3.2
			c0.8,0,1.1,0,1.5-0.1v1.6c-0.4-0.1-0.7-0.1-1.5-0.1h-3.3c-0.1,0.4-0.1,0.6-0.1,0.9h5.3c0.8,0,1.3,0,1.8-0.1v1.8
			c-0.6-0.1-1.1-0.1-1.8-0.1h-4.3c0.6,0.7,0.9,1,1.6,1.4c0.7,0.5,1.8,0.9,3,1.2c0.4,0.1,1,0.2,1.9,0.4c-0.4,0.6-0.7,1.1-0.9,1.8
			c-1.6-0.4-2.3-0.6-3.2-1c-1.8-0.8-3-1.7-4-3.2c-0.6,1.2-1.3,1.9-2.5,2.7c-1.2,0.7-2.3,1.2-4.1,1.5c-0.3-0.9-0.4-1.1-0.9-1.8
			c1.8-0.3,2.7-0.5,3.7-1c1-0.5,1.6-1.1,2.2-2h-3.8c-0.7,0-1.2,0-1.8,0.1v-1.8c0.5,0.1,0.9,0.1,1.7,0.1h4.5c0.1-0.3,0.1-0.5,0.2-0.9
			h-2.9c-0.8,0-1.1,0-1.5,0.1v-1.6c0.4,0.1,0.7,0.1,1.5,0.1h3c0-0.5,0-0.5,0-0.9H357.2z M360.4,1669.2c0-0.5,0-0.8-0.1-1.1h2
			c-0.1,0.2-0.1,0.4-0.1,1.1h3.4c0.6,0,0.9,0,1.3-0.1v-1.4h-11.1v1.4c0.3,0,0.7,0.1,1.3,0.1H360.4z"/>
		<path class="st1" d="M377.7,1675c-1,2.2-2.1,3.2-3.5,3.2c-1.9,0-3.3-2-3.3-4.7c0-1.9,0.7-3.6,1.9-4.9c1.4-1.6,3.4-2.4,5.8-2.4
			c4.1,0,6.7,2.5,6.7,6.3c0,2.9-1.5,5.3-4.1,6.3c-0.8,0.3-1.5,0.5-2.7,0.7c-0.3-0.9-0.5-1.3-1-2c1.6-0.2,2.6-0.5,3.4-0.9
			c1.5-0.8,2.4-2.4,2.4-4.2c0-1.6-0.7-3-2.1-3.8c-0.5-0.3-1-0.4-1.7-0.5C379.1,1670.8,378.5,1673.1,377.7,1675z M375.2,1669
			c-1.4,1-2.3,2.8-2.3,4.6c0,1.4,0.6,2.5,1.3,2.5c0.6,0,1.1-0.7,1.8-2.2c0.6-1.5,1.2-3.8,1.4-5.7
			C376.5,1668.2,375.9,1668.5,375.2,1669z"/>
		<path class="st1" d="M397.2,1666.6c0.5,0,0.7,0,1,0c0-1.1,0.9-2,2-2s2,0.9,2,2c0,1.1-0.9,2-2,2c-0.1,0-0.2,0-0.3,0
			c-1.4,5.6-4.4,9-9.8,11.3c-0.4-0.9-0.7-1.3-1.5-2c4.7-1.5,7.8-4.6,8.9-9.1h-8.1c-1.3,0-1.6,0-2.1,0.1v-2.2c0.6,0.1,1,0.1,2.2,0.1
			H397.2z M399.1,1666.6c0,0.6,0.5,1.1,1.1,1.1c0.6,0,1.1-0.5,1.1-1.1c0-0.6-0.5-1.1-1.1-1.1C399.6,1665.5,399.1,1666,399.1,1666.6z
			"/>
		<path class="st1" d="M406.1,1678v1.2h-2.2c0.1-0.4,0.1-0.8,0.1-1.5v-9.7c0-0.6,0-1-0.1-1.4c0.4,0,0.8,0.1,1.4,0.1h9.7
			c0.7,0,1,0,1.4-0.1c0,0.4-0.1,0.8-0.1,1.4v9.7c0,0.6,0,1.1,0.1,1.5h-2.2v-1.2H406.1z M414.3,1668.5h-8.2v7.5h8.2V1668.5z"/>
		<path class="st1" d="M432.2,1668.4c-0.2,0.2-0.2,0.4-0.4,1c-1,3-1.8,4.5-3.4,6.4c-1.5,1.7-3.6,3.2-6.1,4.3
			c-0.4-0.8-0.7-1.2-1.4-1.8c4.5-1.7,7.3-4.7,8.7-9.2l-5.1,0.1c-1,1.6-2.6,3.3-4,4.4c-0.5-0.7-0.8-0.9-1.6-1.5
			c1.8-1.2,3.2-2.8,4.4-4.9c0.5-0.9,0.8-1.7,0.9-2.3l2.3,0.5c-0.1,0.2-0.1,0.2-0.3,0.5c-0.1,0.3-0.3,0.6-0.5,1
			c-0.1,0.2-0.1,0.2-0.1,0.2l-0.1,0.3c0.2,0,0.5,0,0.8,0l3.7-0.1c0.5,0,0.7,0,0.9,0c-0.4-0.8-0.7-1.4-1.2-2.1l1.3-0.4
			c0.7,0.9,1.1,1.6,1.5,2.7l-0.7,0.3L432.2,1668.4z M433.4,1667.2c-0.4-1-0.9-1.9-1.5-2.6l1.2-0.4c0.7,0.9,1.1,1.6,1.5,2.6
			L433.4,1667.2z"/>
		<path class="st1" d="M448.9,1670.8c-0.2,0.3-0.3,0.5-0.5,1.1c-0.9,2.5-2.2,4.4-3.9,5.7c-1.2,0.9-2.3,1.5-4.5,2.3
			c-0.4-0.8-0.6-1.1-1.3-2c2.1-0.5,3.4-1.2,4.7-2.2c1.3-1.1,2-2.1,2.7-4h-8.3c-1.1,0-1.6,0-2.2,0.1v-2.1c0.6,0.1,1,0.1,2.2,0.1h8.1
			c1.1,0,1.4,0,1.9-0.2L448.9,1670.8z M437.2,1665.6c0.6,0.1,0.9,0.1,2,0.1h5.9c1.1,0,1.4,0,2-0.1v2.1c-0.5-0.1-0.8-0.1-2-0.1h-6
			c-1.1,0-1.4,0-2,0.1V1665.6z"/>
		<path class="st1" d="M457.6,1665.7c-0.2,0.4-0.2,0.4-0.4,1.2c-1.3,4.2-2.3,7.1-3.4,9.7c2.7-0.2,5.6-0.6,7.1-0.9
			c-0.2-0.4-0.4-0.8-0.8-1.5c-0.7-1.4-1.1-1.9-1.6-2.7l1.9-0.7c1.6,2.3,3.1,5.2,4.1,7.9l-2.1,1.1c-0.2-0.7-0.2-0.7-0.8-2.1
			c-0.2,0.1-0.2,0.1-0.6,0.1c-1.7,0.4-4.5,0.7-9.6,1.2c-1,0.1-1.2,0.1-1.5,0.2l-0.3-2.3c0.2,0,0.2,0,0.4,0c0.3,0,0.7,0,1.5-0.1
			c0.9-2.1,1.6-4.1,2.5-6.9c0.8-2.5,1.1-3.7,1.2-4.7L457.6,1665.7z"/>
		<path class="st1" d="M465.6,1667.1c0.4,0,0.6,0,0.6,0c0.3,0,0.3,0,2.8-0.2c1.2-0.1,4.1-0.2,8.7-0.4c1.4-0.1,1.5-0.1,1.8-0.1
			l0.1,2.2c-0.2,0-0.2,0-0.4,0c-1,0-2.3,0.3-3.4,0.9c-2.2,1.1-3.4,2.8-3.4,4.5c0,1.3,0.8,2.3,2.3,2.8c0.8,0.3,1.9,0.4,2.5,0.4
			c0,0,0.2,0,0.3,0l-0.3,2.3c-0.2-0.1-0.3-0.1-0.6-0.1c-1.9-0.2-2.9-0.5-4-1.1c-1.6-0.9-2.4-2.3-2.4-4.1c0-1.4,0.6-2.9,1.6-4
			c0.6-0.7,1.3-1.2,2.4-1.7c-1.4,0.2-2.4,0.3-5.7,0.5c-1.5,0.1-2.3,0.2-2.8,0.3L465.6,1667.1z M477.3,1670.4
			c0.7,0.8,1.2,1.4,1.8,2.5l-1.2,0.6c-0.6-1-1-1.7-1.8-2.5L477.3,1670.4z M479.9,1672.5c-0.5-0.9-1.1-1.7-1.7-2.5l1.1-0.6
			c0.8,0.8,1.2,1.4,1.8,2.4L479.9,1672.5z"/>
	</g>
	<g class="st2">
		<path class="st1" d="M367.8,1705.9c-0.8-0.9-1.1-1.2-1.7-1.7c-0.9,1.3-1.8,2.2-3.2,3.2c-0.3-0.5-0.7-1.1-1.2-1.6
			c1.4-0.8,2.2-1.6,3-2.8c-0.9-0.7-1.3-1-2.6-1.8c0.6-1.4,1-2.8,1.5-4.6h-0.4c-0.4,0-0.8,0-1.2,0.1v-1.8c0.4,0.1,0.8,0.1,1.5,0.1
			h0.5c0.2-1.3,0.4-2.4,0.4-3.1c0,0,0-0.1,0-0.2l2,0.2c-0.1,0.3-0.1,0.4-0.2,1.1c-0.1,0.7-0.2,1.2-0.3,2h1.5c0.6,0,1,0,1.4-0.1
			c0,0.3,0,0.3-0.1,1c-0.1,2.5-0.7,4.7-1.5,6.6c0.8,0.6,1.1,0.9,1.9,1.7L367.8,1705.9z M365.4,1696.5c-0.1,0.3-0.1,0.3-0.2,0.8
			c-0.2,0.8-0.5,1.8-0.9,3.1c0.7,0.5,0.9,0.6,1.3,0.9c0.7-1.4,1-2.5,1.2-4.8H365.4z M373.9,1705.4c0,1.5-0.4,1.8-2.3,1.8
			c-0.5,0-1,0-1.8-0.1c-0.1-0.8-0.2-1.2-0.5-1.9c0.8,0.1,1.5,0.2,1.9,0.2c0.6,0,0.7-0.1,0.7-0.3v-4.6h-1.7c-0.7,0-1.2,0-1.7,0.1
			v-1.9c0.4,0.1,0.8,0.1,1.7,0.1h1.8v-0.6c0-0.7,0-1-0.1-1.6h0.7c0.9-0.8,1.4-1.3,2-2.3h-3.8c-0.7,0-1.3,0-1.8,0.1v-1.9
			c0.4,0.1,1.1,0.1,1.9,0.1h3.9c0.8,0,1.1,0,1.5-0.1l0.9,1.2c-0.1,0.1-0.2,0.2-0.3,0.4c-1.4,1.9-1.8,2.5-3,3.5v1.2h2.1
			c0.7,0,1.2,0,1.7-0.1v2c-0.5-0.1-1-0.1-1.7-0.1h-2.1V1705.4z"/>
		<path class="st1" d="M388,1694.8c1.1,1.1,2.8,1.7,5.6,1.8c-0.3,0.4-0.5,1-0.7,1.5c0.5,0,0.8,0,1.2-0.1v1.9
			c-0.6-0.1-1.2-0.1-1.9-0.1h-0.2v5.6c0,1.5-0.5,1.9-2.5,1.9c-0.4,0-1,0-1.5-0.1c-0.1-0.6-0.2-1.1-0.5-1.7c1,0.1,1.3,0.1,1.9,0.1
			c0.6,0,0.8-0.1,0.8-0.4v-5.4h-9.2c-0.7,0-1.4,0-1.9,0.1v-1.9c0.3,0,0.6,0.1,1.2,0.1c-0.1-0.5-0.3-0.9-0.8-1.5
			c2.5-0.1,4.3-0.7,5.2-1.8h-2.9c-0.9,0-1.4,0-2,0.1v-1.9c0.7,0.1,1,0.1,2.1,0.1h3.6c0.1-0.4,0.1-0.7,0.1-1.1c0-0.1,0-0.2,0-0.3
			l2,0.1c-0.1,0.2-0.1,0.3-0.1,0.7c0,0.3-0.1,0.4-0.1,0.7h3.9c1,0,1.6,0,2.1-0.1v1.9c-0.5-0.1-1.2-0.1-2-0.1H388z M391.8,1698.1
			c-1.4-0.2-2.2-0.4-3-0.8c-1.1-0.5-1.9-1.1-2.5-1.9c-1,1.5-2.6,2.2-5.4,2.7H391.8z M388.2,1703.9c0,0.7,0,1,0.1,1.4
			c-0.5,0-0.9-0.1-1.4-0.1h-4v0.9H381c0.1-0.4,0.1-0.8,0.1-1.6v-2.5c0-0.6,0-1-0.1-1.4c0.5,0,0.8,0.1,1.5,0.1h4.3
			c0.9,0,1.1,0,1.5-0.1c-0.1,0.5-0.1,0.7-0.1,1.4V1703.9z M382.9,1703.6h3.6v-1.5h-3.6V1703.6z"/>
		<path class="st1" d="M395.4,1703.9c1.1-2.2,1.5-3.5,1.9-6.9l1.9,0.4c-0.6,4.1-0.9,5.2-1.9,7.6L395.4,1703.9z M402.1,1704.6
			c0,0.4,0.3,0.5,1.9,0.5c1.4,0,1.9-0.1,2-0.5c0.2-0.5,0.3-1.6,0.4-3.4c0.7,0.4,1.2,0.5,1.9,0.7c-0.2,2.3-0.3,3.3-0.7,4
			c-0.5,0.9-1.2,1.1-3.9,1.1c-3,0-3.5-0.3-3.5-1.8v-8c0-0.6,0-1.1-0.1-1.7h2.2c-0.1,0.5-0.1,1.1-0.1,1.7V1704.6z M405.9,1696
			c-1.7-1.1-3-1.7-5.7-2.7l1.1-1.6c2.5,0.9,3.8,1.4,5.8,2.6L405.9,1696z M409.7,1704.5c-0.8-3-1.5-4.8-2.7-7.1l1.8-0.8
			c1.3,2.2,1.9,3.8,2.9,6.9L409.7,1704.5z"/>
		<path class="st1" d="M413.4,1693.8c0.7,0.2,1.8,0.2,3.9,0.2c0.5-1,0.6-1.5,0.7-2.1l2.2,0.2c-0.1,0.2-0.1,0.2-0.7,1.5
			c-0.1,0.2-0.1,0.2-0.2,0.3c0.1,0,0.1,0,1.1-0.1c2-0.1,3.5-0.3,4.5-0.6l0.1,1.9c-0.5,0-0.5,0-1.3,0.1c-1.2,0.2-3.4,0.3-5.1,0.3
			c-0.5,1-1,1.6-1.6,2.3l0,0c0.1-0.1,0.1-0.1,0.3-0.3c0.6-0.5,1.5-0.8,2.4-0.8c1.3,0,2.2,0.6,2.4,1.8c1.3-0.5,2.2-0.8,2.6-0.9
			c0.9-0.3,1-0.3,1.3-0.5l0.8,2c-0.5,0.1-1,0.2-1.9,0.5c-0.2,0.1-1.1,0.4-2.5,0.9v0.2c0,0.4,0,0.4,0,0.7c0,0.2,0,0.5,0,0.7
			c0,0.3,0,0.4,0,0.6c0,0.4,0,0.6,0.1,0.9l-2,0.1c0.1-0.3,0.1-1.2,0.1-2c0-0.2,0-0.2,0-0.4c-0.8,0.4-1.3,0.6-1.6,0.9
			c-0.6,0.4-0.9,0.9-0.9,1.4c0,0.9,0.8,1.2,2.9,1.2c2,0,3.8-0.3,5-0.7l0.2,2.2c-0.3,0-0.4,0-0.8,0.1c-1.2,0.2-2.9,0.3-4.4,0.3
			c-1.8,0-2.9-0.2-3.8-0.7c-0.8-0.4-1.2-1.3-1.2-2.2c0-0.7,0.2-1.2,0.7-1.9c0.8-1,1.7-1.6,3.7-2.4c-0.1-0.6-0.4-0.9-1-0.9
			c-1,0-2.2,0.6-3.5,1.8c-0.7,0.6-1.1,1-1.5,1.5l-1.5-1.5c0.4-0.3,0.9-0.8,1.5-1.5c0.7-0.8,1.7-2.3,2-2.9c0.1-0.1,0.1-0.1,0.1-0.2
			c-0.1,0-0.3,0-0.3,0c-0.3,0-1.8,0-2.1,0c-0.3,0-0.3,0-0.5,0c-0.1,0-0.2,0-0.3,0L413.4,1693.8z"/>
		<path class="st1" d="M430.4,1695.1c-0.7,0-1.1,0-1.7,0.1v-1.8c0.6,0.1,1.1,0.1,1.8,0.1h2v-0.4c0-0.5,0-0.9-0.1-1.3h1.9
			c-0.1,0.3-0.1,0.8-0.1,1.3v0.4h1.7c0.8,0,1.3,0,1.9-0.1v1.8c-0.5-0.1-1-0.1-1.8-0.1h-1.9v1.2h1.9c0.6,0,1.1,0,1.5-0.1
			c0,0.3-0.1,0.7-0.1,1.3v2c0,0.9-0.1,1.2-0.4,1.5c-0.3,0.3-0.7,0.4-1.6,0.4c-0.1,0-0.2,0-0.3,0c-0.1-0.7-0.1-1-0.3-1.5
			c0.3,0,0.4,0,0.6,0c0.4,0,0.5-0.1,0.5-0.3v-1.8h-1.7v2.1c0.6,1,1,1.5,1.8,2.3c0.8,0.7,1.3,1.1,2.2,1.7c-0.5,0.6-0.7,0.9-1.1,1.5
			c-1.4-1.1-2-1.7-3-3.1c0,0.2,0.1,0.7,0.1,1.3v2.1c0,0.6,0,1.1,0.1,1.5h-1.9c0.1-0.4,0.1-0.9,0.1-1.6v-1.9c0-0.5,0-1,0-1.2
			c-1,1.7-1.7,2.4-3.2,3.6c-0.3-0.6-0.5-1-1-1.5c1.2-0.9,1.8-1.4,2.5-2.3c0.8-1,1.2-1.5,1.6-2.4v-2h-1.6v2.3c0,0.6,0,0.9,0.1,1.3
			h-1.8c0.1-0.5,0.1-0.9,0.1-1.7v-2c0-0.7,0-1.1-0.1-1.6c0.5,0.1,0.9,0.1,1.6,0.1h1.7v-1.2H430.4z M440.4,1693
			c-0.1,0.4-0.1,0.9-0.1,1.8v6.7c0,1,0,1.3,0.1,1.8h-1.9c0.1-0.5,0.1-0.8,0.1-1.8v-6.7c0-0.8,0-1.3-0.1-1.8H440.4z M443.8,1691.8
			c-0.1,0.5-0.1,1-0.1,2.1v11.2c0,1-0.1,1.4-0.6,1.7c-0.4,0.3-0.9,0.4-2.1,0.4c-0.3,0-1,0-1.6-0.1c-0.1-0.7-0.2-1.1-0.5-1.8
			c0.7,0.1,1.6,0.2,2,0.2c0.7,0,0.9-0.1,0.9-0.5v-11c0-1,0-1.6-0.1-2.1H443.8z"/>
		<path class="st1" d="M446.3,1696.1c1.1,0.6,1.9,1.2,2.6,2l-1.1,1.4c-0.9-0.9-1.5-1.4-2.6-2.1L446.3,1696.1z M448.9,1701.9
			c-0.5,1.4-0.5,1.4-0.9,2.5c-0.5,1.3-0.8,2-0.8,2c-0.1,0.2-0.1,0.2-0.3,0.5c0,0.1-0.1,0.1-0.1,0.2l-1.5-1.3c0.7-0.8,1.6-2.9,2.2-5
			L448.9,1701.9z M449.9,1701c-0.5,0-0.9,0-1.3,0.1v-1.5c0.5,0.1,0.8,0.1,1.4,0.1h1.2v-1h-0.5c-0.7,0-1,0-1.4,0.1
			c0.1-0.5,0.1-0.9,0.1-1.7v-2.2c0-0.2,0-0.4,0-0.7l-1.2,1.3c-0.8-0.9-1.4-1.4-2.5-2.2l1.2-1.3c1.1,0.7,1.9,1.3,2.5,2.1
			c0-0.4,0-0.6-0.1-0.9c0.4,0.1,0.7,0.1,1.5,0.1c0.3-0.5,0.4-0.9,0.5-1.4l1.8,0.2c-0.3,0.7-0.4,0.8-0.6,1.2h0.6c0.8,0,1.2,0,1.6-0.1
			c0,0.4-0.1,0.7-0.1,1.6v2.3c0,0.1,0,0.1,0,0.4c1-1.9,1.8-4.1,1.9-5.7l1.8,0.3c-0.1,0.2-0.1,0.2-0.3,1.1c-0.1,0.5-0.3,1-0.4,1.5
			h2.2c0.7,0,1,0,1.4-0.1v1.7c-0.3-0.1-0.5-0.1-1-0.1c-0.2,3-0.5,4.8-1.4,6.6c0.8,1.1,1.6,1.9,2.8,2.7c-0.4,0.6-0.7,1-1,1.7
			c-1.1-0.9-1.8-1.6-2.7-2.8c-0.8,1.2-1.5,1.9-2.6,2.9c-0.3-0.6-0.6-1-1.1-1.4c-0.3,1-0.7,1.2-1.8,1.2c-0.2,0-0.6,0-1,0
			c0-0.6-0.1-0.9-0.3-1.5c0.5,0.1,0.8,0.1,1.2,0.1c0.4,0,0.5-0.1,0.5-0.3c0.1-0.5,0.2-1,0.2-2h-1.7c-0.4,1.7-1.1,2.9-2.3,4
			c-0.4-0.6-0.6-0.9-1.2-1.3c0.8-0.7,1.3-1.3,1.6-2.1c0.4-0.9,0.5-1.6,0.5-2.9H449.9z M450.9,1695.3h2.4v-1h-2.4V1695.3z
			 M450.9,1697.4h2.4v-1h-2.4V1697.4z M451.9,1701c0,0.5,0,0.6-0.1,1h1.8c0.6,0,1,0,1.3-0.1c0,0.2-0.1,0.4-0.1,1
			c0,0.8-0.2,2.1-0.3,2.8c0.7-0.5,0.9-0.7,1.3-1.2c0.6-0.6,0.9-1.1,1.3-1.7c-0.6-1.2-1.1-2.6-1.3-4c-0.2,0.3-0.2,0.3-0.5,0.7v1.5
			c-0.4-0.1-0.7-0.1-1.3-0.1H451.9z M454.2,1699.6c0.4,0,0.8,0,1.1-0.1c-0.3-0.4-0.4-0.6-0.7-0.9c-0.3,0-0.6,0-1,0h-0.8v1H454.2z
			 M457.2,1696.2c-0.1,0.2-0.1,0.3-0.2,0.6c0.2,1.8,0.4,3,1,4.3c0.5-1.3,0.6-2.6,0.7-4.8H457.2z"/>
	</g>
	<g id="features-04" transform="translate(197 1655)">
		<path class="st1" d="M76.8,41.5c-0.6,0-1-0.4-1-1V18.3c0-0.6,0.4-1,1-1s1,0.4,1,1v22.1C77.8,41,77.4,41.5,76.8,41.5z"/>
		<path class="st1" d="M79.3,59.6h-4.9c-0.3,0-0.6-0.1-0.7-0.3c-0.2-0.2-0.3-0.5-0.2-0.8l1.3-10.6c0.1-0.5,0.5-0.9,1-0.9H78
			c0.5,0,0.9,0.4,1,0.9l1.3,10.6c0,0.3-0.1,0.6-0.2,0.8C79.8,59.5,79.6,59.6,79.3,59.6z M75.5,57.6h2.7l-1-8.6h-0.7L75.5,57.6z"/>
		<path class="st3" d="M76.8,46.4c-1.9,0-3.5-1.6-3.5-3.5s1.6-3.5,3.5-3.5s3.5,1.6,3.5,3.5S78.7,46.4,76.8,46.4z M76.8,41.5
			c-0.8,0-1.5,0.7-1.5,1.5s0.7,1.5,1.5,1.5s1.5-0.7,1.5-1.5S77.6,41.5,76.8,41.5z"/>
		<path class="st1" d="M42.5,56.6c-17.3,0-26.6-5.1-26.6-9.9V19.6c0-0.6,0.4-1,1-1h51.2c0.3,0,0.5,0.1,0.7,0.3s0.3,0.4,0.3,0.7
			l0,27.1C69.1,51.5,59.8,56.6,42.5,56.6z M17.9,20.6v26.1c0,3.7,10.1,7.9,24.6,7.9c14.5,0,24.6-4.2,24.6-7.9l0,0l0-26.1H17.9z"/>
		<g>
			<path id="パス_22_00000025405261480716744520000015947019098004361104_" class="st0" d="M0.9,12.5L41.3,0.2
				c0.7-0.2,1.4-0.2,2.1,0l40.7,12.4c0.6,0.2,1,0.9,0.8,1.5c-0.1,0.4-0.4,0.7-0.8,0.8L43.6,28.6c-0.8,0.3-1.6,0.3-2.3,0L0.8,14.9
				c-0.6-0.2-1-0.9-0.8-1.6C0.2,12.9,0.5,12.6,0.9,12.5L0.9,12.5z"/>
			<path class="st1" d="M42.4,29.8c-0.5,0-1-0.1-1.5-0.2L0.5,15.8c-1.2-0.4-1.8-1.7-1.4-2.8c0.2-0.6,0.7-1.1,1.3-1.4
				c0,0,0.1,0,0.1,0L41-0.8c0.9-0.3,1.8-0.3,2.7,0l40.7,12.4c0.6,0.2,1,0.6,1.3,1.1s0.3,1.1,0.2,1.7c-0.2,0.7-0.7,1.2-1.4,1.5
				L43.9,29.5C43.4,29.7,42.9,29.8,42.4,29.8z M1.2,13.5C1.2,13.5,1.2,13.5,1.2,13.5C1.1,13.5,1,13.6,1,13.6c0,0.1,0,0.3,0.1,0.3
				l40.4,13.7c0.5,0.2,1.2,0.2,1.7,0l40.6-13.7c0.1,0,0.1-0.1,0.1-0.1c0-0.1,0-0.1,0-0.2c0,0-0.1-0.1-0.1-0.1L43.2,1.1
				c-0.5-0.2-1-0.2-1.6,0L1.2,13.5z"/>
		</g>
	</g>
</g>
</svg>
