<svg xmlns="http://www.w3.org/2000/svg" width="376" height="107" viewBox="0 0 376 107">
  <g id="グループ_938" data-name="グループ 938" transform="translate(-150 -1486)">
    <g id="長方形_162" data-name="長方形 162" transform="translate(150 1486)" fill="none" stroke="#fff" stroke-width="3">
      <rect width="376" height="107" rx="10" stroke="none"/>
      <rect x="1.5" y="1.5" width="373" height="104" rx="8.5" fill="none"/>
    </g>
    <text id="安全で衛生的な_教室環境" data-name="安全で衛生的な
教室環境" transform="translate(411 1534)" fill="#fff" font-size="17" font-family="HiraginoSans-W6, Hiragino Sans"><tspan x="-59.5" y="0">安全で衛生的な</tspan><tspan y="0" font-family="NotoSans-Bold, Noto Sans" font-weight="700"></tspan><tspan x="-34" y="27">教室環境</tspan></text>
    <g id="features-02" transform="translate(196 1504)">
      <path id="パス_12" data-name="パス 12" d="M242.331,192.292a12.62,12.62,0,1,1,21.147,2.759" transform="translate(-178.801 -142.225)" fill="none" stroke="#fff" stroke-linecap="round" stroke-linejoin="round" stroke-width="2"/>
      <circle id="楕円形_529" data-name="楕円形 529" cx="5.427" cy="5.427" r="5.427" transform="translate(49.34 28.923) rotate(-45)" fill="none" stroke="#fff" stroke-linecap="round" stroke-linejoin="round" stroke-width="2"/>
      <path id="パス_13" data-name="パス 13" d="M279.868,90.161a7.919,7.919,0,1,1-15.838,0c0-5.659,7.919-14.331,7.919-14.331S279.868,84.505,279.868,90.161Z" transform="translate(-194.212 -75.83)" fill="#ef8200" stroke="#ef8200" stroke-linecap="round" stroke-linejoin="round" stroke-width="2"/>
      <path id="パス_14" data-name="パス 14" d="M49.96,226.626c3.245-2.841,14.964-4.305,23.711-2.922,8.173,1.292,16,7.394,29.239,7.368,12.1-.026,30.69-10.6,32.422-11.78,3.376-2.3,1.047-7.677-3.822-6.053s-23.805,6.976-35.3,3.314c11.06,2.061,19.8,1.859,19.882-3.793.052-3.594-6.49-1.954-11.767-3.578s-8.9-5.845-18.261-7.541c-7.557-1.367-15.006,1.047-22.716,4.7" transform="translate(-49.96 -160.347)" fill="none" stroke="#fff" stroke-linecap="round" stroke-linejoin="round" stroke-width="2"/>
      <path id="パス_15" data-name="パス 15" d="M288.23,199.857c0-2.449-2.57-5.747-5.14-5.747" transform="translate(-207.055 -155.533)" fill="none" stroke="#ef8200" stroke-linecap="round" stroke-linejoin="round" stroke-width="2"/>
    </g>
  </g>
</svg>
