<svg xmlns="http://www.w3.org/2000/svg" xmlns:xlink="http://www.w3.org/1999/xlink" width="240" height="309" viewBox="0 0 240 309">
  <defs>
    <clipPath id="clip-path">
      <rect id="長方形_1916" data-name="長方形 1916" width="240" height="309" transform="translate(618 -1155)" fill="#fff" stroke="#707070" stroke-width="1"/>
    </clipPath>
  </defs>
  <g id="マスクグループ_118" data-name="マスクグループ 118" transform="translate(-618 1155)" clip-path="url(#clip-path)">
    <g id="safari-07" transform="translate(607.308 -1154.316)">
      <path id="パス_15066" data-name="パス 15066" d="M47.509,63.952c-.268-.206-.536-.412-.8-.639-.041.082-.082.186-.124.268.33.1.66.227.969.33a5.964,5.964,0,0,0,.784.825c.392.33.7.66.495,1.258-1.134.495-2.165-.351-3.279-.289a1.265,1.265,0,0,0,.722.454c2.392.289,4.785.639,7.177.784a2.971,2.971,0,0,1,2.145.99c.33.351.6.763.928,1.114.66.66,1.258,1.485,2.537,1.32a14.78,14.78,0,0,0-.144-2.186,23.918,23.918,0,0,1-.474-8.641,8.21,8.21,0,0,0-.082-1.279c-1.959,2.289-3.754,4.31-5.465,6.393-.949,1.155-1.485,1.4-2.825.742-.866-.433-1.671-.99-2.5-1.464Z" transform="translate(37.242 49.352)" fill="#4f2928" fill-rule="evenodd"/>
      <path id="パス_15067" data-name="パス 15067" d="M48.493,138.292c.082-.495.206-1.052.289-1.609a3.461,3.461,0,0,1,.949-1.918,30.823,30.823,0,0,0,2.825-3.094,117.941,117.941,0,0,0,7.239-11.735c.66-1.134,1.361-2.248,1.9-3.424a47.809,47.809,0,0,0,2.269-5.672,44.257,44.257,0,0,0,1.506-6.5c.371-2.475.495-5.012.681-7.507a105.163,105.163,0,0,0,.474-12.477,7.664,7.664,0,0,1,1.031-4.455,8.843,8.843,0,0,0,1.32-5.857c-.247-1.774-.454-3.568-.742-5.321-.433-2.475-1.114-4.908-.6-7.445a8.055,8.055,0,0,1,.516-2.1,20.075,20.075,0,0,1,3.135-5.053,9.053,9.053,0,0,0,1.258-1.918,1.481,1.481,0,0,0,.062-1.072,3.535,3.535,0,0,0-3.712-2.165c-1.052.1-2.145.144-2.8,1.217a1.567,1.567,0,0,1-.454.351c-2.351,1.444-4.063,3.568-5.919,5.548a6.07,6.07,0,0,0-1.567,3.527c-.082.722-.206,1.444-.268,2.165a22.177,22.177,0,0,0-.247,4.042c.165,2.062.6,4.125.887,6.187.144.949.124,1.939.33,2.887a73.1,73.1,0,0,1,1.237,11.982,47.284,47.284,0,0,1-.454,8.7c-.454,3.155-.7,6.373-1.341,9.487-.784,3.877-1.753,7.755-2.846,11.549a77.49,77.49,0,0,1-4.228,12.374,43.373,43.373,0,0,1-2.929,5.981,6.722,6.722,0,0,0-.639,2.64c-.082.433.186.742.887.66Z" transform="translate(39.455 39.461)" fill="#4f2928" fill-rule="evenodd"/>
      <path id="パス_15068" data-name="パス 15068" d="M15.91,170.227H16.1V172a2.02,2.02,0,0,0,2.062,2.124A6.552,6.552,0,0,0,22.84,172.5a13.622,13.622,0,0,1,5.651-2.867c1.237-.247,2.454-.516,3.671-.866a4.741,4.741,0,0,0,1.959-.887c2.269-2.372,3.692-4.764,2.392-8.373a8.672,8.672,0,0,1,0-6.661,2.81,2.81,0,0,0,.33-1.4,1.974,1.974,0,0,0-.516-1.258c-2.165-2-4.372-3.96-6.558-5.94a4.46,4.46,0,0,1-1.444-2.454,10.374,10.374,0,0,0-1.155-2.64c-.6-1.052-1.815-1.176-2.784-1.712-2.392-1.258-2.372-.99-3.011,1.629-.041.186-.041.392-.082.577-.412,1.9-.866,3.774-1.258,5.672-.577,2.64-1.2,5.28-1.65,7.961-.536,3.094-.928,6.228-1.382,9.342-.371,2.537-.7,5.073-1.072,7.61Z" transform="translate(5.753 132.692)" fill="#4f2928" fill-rule="evenodd"/>
      <path id="パス_15069" data-name="パス 15069" d="M67.981,85.885c.144.866.309,2.413.681,3.919a4.271,4.271,0,0,0,1.093,1.856c1.237,1.237,2.289,1.32,3.362.495a19.49,19.49,0,0,0,1.794-1.217,15.943,15.943,0,0,1,6.641-3.712,14.715,14.715,0,0,1,6.888-.516c.289.041.6.206.846.124,1.217-.392,2.165.186,3.135.763a1.932,1.932,0,0,0,2.413-.206,5.073,5.073,0,0,0,1.856-2.867c.268-1.072.516-2.186.887-3.217.66-1.794.969-3.733,2.021-5.424a41.191,41.191,0,0,0,2.372-4.661,6.789,6.789,0,0,0,.516-1.815c.206-1.237-.309-1.877-1.588-1.815a21.216,21.216,0,0,0-4.434.557c-4.888,1.361-9.776,2.784-14.6,4.352-2.227.722-4.6,1.176-6.579,2.6a3.337,3.337,0,0,1-.969.289,3.44,3.44,0,0,0-.949.33,11.7,11.7,0,0,0-5.4,10.126Z" transform="translate(61.049 59.262)" fill="#4f2928" fill-rule="evenodd"/>
      <path id="パス_15070" data-name="パス 15070" d="M53.257,107.04c-.124.082-.227.165-.351.247-.969-.577-1.939-1.2-2.949-1.753a59.262,59.262,0,0,0-9.2-3.919c-2.227-.8-4.413-1.691-6.641-2.537a5.486,5.486,0,0,0-3.4-.433,4.573,4.573,0,0,0,.33,1.093c.577.949,1.217,1.856,1.836,2.784a12.637,12.637,0,0,0,4.29,4.063,7.841,7.841,0,0,1,1.567,1.3.889.889,0,0,1,.247.742c-.082.206-.433.289-.7.392a1.009,1.009,0,0,1-.433.021c-2.165-.206-4.352-.289-6.5-.66-2.248-.371-4.434-1.011-6.661-1.526a5.836,5.836,0,0,0-3.424.206c.144.928.268,1.732.433,2.516a18.489,18.489,0,0,0,.536,2.1c.495,1.464.949,2.949,1.567,4.372a17.75,17.75,0,0,0,4.64,6.765,28.968,28.968,0,0,0,8.806,5.259,8.058,8.058,0,0,1,2.454,1.485,2.771,2.771,0,0,0,3.774.227,30.658,30.658,0,0,1,3.382-1.959c.7-.371,1.609-.351,2.042-1.217.082-.186.516-.289.784-.289.866,0,1.134-.495.969-1.237a17.834,17.834,0,0,0-.742-2.784c-.639-1.588-.619-1.815.99-2.516.227-.1.454-.165.681-.268a1.673,1.673,0,0,0,1.155-1.939,6.848,6.848,0,0,1-.041-1.3c.062-1.072.227-2.083,1.444-2.557a5.635,5.635,0,0,0,1.279-.969c.041-1.011-1.32-1.588-.516-2.66,2.186,1.031,4.331,2.062,6.5,3.094a9.994,9.994,0,0,0,.866-8.414,58.613,58.613,0,0,1-2.289-8.538,1.387,1.387,0,0,0-1.32-1.32,14.026,14.026,0,0,1-1.856-.351c-1.9-.516-3.176.7-4.393,1.753-.8.681-.041,1.815.041,2.743a6.984,6.984,0,0,0,.268,1.134c.619,2.269.371,4.6.495,6.909Z" transform="translate(11.448 87.789)" fill="#4f2928" fill-rule="evenodd"/>
      <path id="パス_15071" data-name="パス 15071" d="M113.854,29.16c-.186.144-.412.289-.639.474a23.915,23.915,0,0,1-2.8,2.248c-1.918,1.114-3.919,2.1-5.919,3.073a5.659,5.659,0,0,1-2.1.536,19.37,19.37,0,0,0-10.415,4.042,9.048,9.048,0,0,0-3.754,5.527,5.127,5.127,0,0,1-.371.928,13.405,13.405,0,0,0-1.279,6.62A77.875,77.875,0,0,1,86.817,62.9c-.021.722-.021,1.444-.021,2.186,0,.474-.536,1.134.247,1.382.681.227.825-.516,1.155-.887.062-.062.083-.165.144-.247a63.674,63.674,0,0,1,4.743-7.115,40.694,40.694,0,0,1,6.228-6.27c1.506-1.134,3.094-2.165,4.6-3.3,2.475-1.836,4.31-4.31,6.352-6.579a16.732,16.732,0,0,0,4.042-8.7c.144-.949.227-1.918.289-2.887.021-.536,0-1.093-.763-1.32Z" transform="translate(80.78 18.437)" fill="#4f2928" fill-rule="evenodd"/>
      <path id="パス_15072" data-name="パス 15072" d="M88.033,52.86c.083.949.083,1.567.186,2.165a13.243,13.243,0,0,1,0,5.9,8.346,8.346,0,0,0-.186.99c-.351,2-.577,4.042-1.093,6a28.667,28.667,0,0,1-6.373,11.137c-.433.516-.866,1.031-1.258,1.588a.724.724,0,0,0,.1.639.648.648,0,0,0,.619.062,2.829,2.829,0,0,0,.557-.454,11.018,11.018,0,0,1,6.187-1.836,10.278,10.278,0,0,1,8.146,3.836,2.247,2.247,0,0,0,2.145.99,6.836,6.836,0,0,0,1.959-.495,4.7,4.7,0,0,0,1.9-1.464,14.4,14.4,0,0,0,1.588-9.693,6.527,6.527,0,0,0-.784-2.31A51.29,51.29,0,0,0,94.86,59.521c-1.732-1.877-3.506-3.754-5.3-5.589a12.43,12.43,0,0,0-1.547-1.072Z" transform="translate(73.067 43.615)" fill="#4f2928" fill-rule="evenodd"/>
      <path id="パス_15073" data-name="パス 15073" d="M76.65,53.161a1.225,1.225,0,0,1,.227.021c0,.639-.062,1.258,0,1.9a2.915,2.915,0,0,0,4.352,2.392,13.273,13.273,0,0,0,4.661-4.083,4.788,4.788,0,0,0,1.031-3.4,2.9,2.9,0,0,1,.577-2.042c.99-1.506,2-2.97,2.887-4.537a6.5,6.5,0,0,1,2.929-2.7c2.557-1.3,5.094-2.619,7.59-4,1.3-.722,2.516-1.629,3.754-2.454.557-.371,1.052-.846,1.629-1.176a4.98,4.98,0,0,0,2.7-3.4c.371-1.774.351-1.98-1.32-2.722a5.574,5.574,0,0,0-.825-.289,18.847,18.847,0,0,0-6.435-.907c-1.753.041-3.217.474-4.125,2.124a4.348,4.348,0,0,1-1.011,1.031c-1.444,1.279-2.99,2.454-4.352,3.836-2.64,2.7-5.2,5.486-7.713,8.291-1.774,1.98-3.444,4.042-5.156,6.1a2.815,2.815,0,0,0-.557,1.176c-.309,1.609-.577,3.238-.846,4.847Z" transform="translate(70.281 14.812)" fill="#4f2928" fill-rule="evenodd"/>
      <path id="パス_15074" data-name="パス 15074" d="M119.695,45.22a23.32,23.32,0,0,1-2.6,1.423c-2.021.8-4.042,1.609-6.146,2.227-2.825.825-5.692,1.567-8.6,2.145-2.846.557-5.754.784-8.6,1.32a15.373,15.373,0,0,0-5.486,1.815c-.742.474-.866.887-.371,1.65.33.474.639.969,1.011,1.423,1.011,1.237,2.021,2.475,3.052,3.671a10.687,10.687,0,0,0,2,2.083c2.681,1.753,3.3,4.517,3.382,7.342A7.829,7.829,0,0,0,98.2,73.7c.825,1.712,3.733,2.227,5.073,1.32a7.6,7.6,0,0,0,2.908-2.97,6.534,6.534,0,0,1,1.2-1.609,9.082,9.082,0,0,1,4.6-2.33,12.865,12.865,0,0,0,7.363-5.3,7.168,7.168,0,0,0,1.341-3.918c.062-1.258.083-2.516.021-3.774a11.991,11.991,0,0,0-.33-2.722,15.2,15.2,0,0,1-.577-5.445,11.081,11.081,0,0,0-.124-1.712Z" transform="translate(81.91 35.499)" fill="#4f2928" fill-rule="evenodd"/>
      <path id="パス_15075" data-name="パス 15075" d="M61.635,65.04a9.867,9.867,0,0,0,1.506-3.96,70.057,70.057,0,0,1,1.609-9.446c.825-2.887,1.671-5.775,1.031-8.992a19.2,19.2,0,0,0-1.526-1.258c-1.98-1.361-3.589-3.279-5.94-4.1a3.41,3.41,0,0,1-.742-.454c-1.237-.907-2.5-1.815-3.712-2.764-1.629-1.237-3.527-1.031-5.383-1.093-.062,0-.124.144-.227.247.041.474.1,1.011.1,1.526a28.491,28.491,0,0,0,.928,7.466,72.142,72.142,0,0,0,3.877,10.167A33.743,33.743,0,0,0,57.9,60.338c1.237,1.547,2.475,3.073,3.795,4.682Z" transform="translate(40.11 22.485)" fill="#4f2928" fill-rule="evenodd"/>
      <path id="パス_15076" data-name="パス 15076" d="M57.878,103.911c.1-.227.186-.392.247-.557A39.521,39.521,0,0,1,61.157,96.3c2.248-3.857,4.413-7.775,8.27-10.332a4.733,4.733,0,0,0,2.062-5.321c-.412-2.042-.784-4.1-1.341-6.1a32.959,32.959,0,0,1-1.258-9.178,25.228,25.228,0,0,0-.165-3.052,15.082,15.082,0,0,1,.7-7.156,16.5,16.5,0,0,0,.8-2.784,1.814,1.814,0,0,0-.247-1.32c-.392-.474-.99-.309-1.464.021-2.165,1.547-4.352,3.073-5.362,5.713-.33.866-.825,1.65-1.134,2.516a8.212,8.212,0,0,0-.8,4.228,48.731,48.731,0,0,1,.8,6.476c.124,2.227.412,4.434.536,6.661a22.322,22.322,0,0,1-.144,4.063c-.289,2.165-.7,4.31-1.176,6.435-.454,2.062-.6,4.187-1.609,6.125-.454.866-.247,2.062-.7,2.908-1.155,2.165-1.052,4.6-1.774,6.847-.144.433,0,.784.681.825Z" transform="translate(49.518 41.381)" fill="#4f2928" fill-rule="evenodd"/>
      <path id="パス_15077" data-name="パス 15077" d="M103.974,57.81a6.954,6.954,0,0,0,.186.928c.392.928.846,1.856,1.217,2.8a24.891,24.891,0,0,1,1.341,6.373c.289,2.64.887,5.259,1.279,7.878.289,1.939.412,3.939-1.072,5.507-1.217,1.3-2.578,2.454-3.857,3.692-1.4,1.361-2.475,2.825-2.1,4.97a20.626,20.626,0,0,1,.144,3.2,2.372,2.372,0,0,1-1.072,2.1c-.763.516-1.423,1.155-2.165,1.712-1.939,1.444-3.96,2.784-5.837,4.31a48.153,48.153,0,0,0-7.919,8.084,17.434,17.434,0,0,1-1.588,1.671c-1.485,1.444-2.99,2.887-4.475,4.352a2.21,2.21,0,0,0-.33.7,1.023,1.023,0,0,0,.949-.206,3.825,3.825,0,0,1,1.939-1.464c.206-.041.351-.309.536-.474,1.155-1.114,2.289-2.227,3.465-3.3a45.753,45.753,0,0,1,8.249-5.94c1.712-.99,3.609-1.691,5.3-2.7,3.032-1.815,6.146-3.547,8.7-6.043a18.04,18.04,0,0,0,2.289-2.413,19.4,19.4,0,0,0,3.609-12.622,66.16,66.16,0,0,0-1.444-8.435c-.165-.846-.6-1.629-.784-2.475A28.083,28.083,0,0,0,108,62.471c-.949-1.732-1.835-3.527-4.022-4.661Z" transform="translate(71.418 48.874)" fill="#4f2928" fill-rule="evenodd"/>
      <path id="パス_15078" data-name="パス 15078" d="M27.615,118.26c-.949,2.186-1.856,4.31-2.764,6.435a1.19,1.19,0,0,0-.062.289c-.846,3.589-1.691,7.156-2.537,10.745-.454,1.877-.928,3.754-1.3,5.672-.351,1.9-.6,3.815-.866,5.733a5.517,5.517,0,0,0-.021,1.011c.041.619.371,1.072,1.011,1.011,1.732-.186,3.527-.268,4.847-1.567a8.778,8.778,0,0,0,1.856-2.413A5.368,5.368,0,0,1,31.307,142,2.245,2.245,0,0,0,33,140.018c.165-1.237.268-2.5.454-3.754a4.169,4.169,0,0,1,.557-1.588,6.071,6.071,0,0,0,.577-5.032c-.557-2.227-.928-4.455.433-6.6a1.493,1.493,0,0,0-.619-2.351,12.443,12.443,0,0,0-2.475-1.2c-1.32-.454-2.681-.784-4.31-1.237Z" transform="translate(10.155 113.094)" fill="#4f2928" fill-rule="evenodd"/>
      <path id="パス_15079" data-name="パス 15079" d="M79.088,50.637c-.082-.227-.165-.495-.247-.763-.412-1.2-.866-2.372-1.2-3.568a31.554,31.554,0,0,1-.846-9.631c.083-1.98.206-3.96.247-5.96a4.808,4.808,0,0,0-.309-1.691,4.011,4.011,0,0,0-3.63-2.64,8.032,8.032,0,0,0-4.372.742A5.021,5.021,0,0,0,65.868,31.7a6,6,0,0,1-.454,3.114,1.462,1.462,0,0,0-.041.846c.227,1.237.536,2.454.681,3.692a20.624,20.624,0,0,1,.165,4.063c-.144,1.629-.619,3.238-.846,4.867a4.592,4.592,0,0,0,.144,1.98c.351,1.155.866,2.248,1.32,3.382.186.454.371.928.949.784.33-.536.619-1.031.949-1.506a6.461,6.461,0,0,1,2.7-2.083,4.132,4.132,0,0,1,3.341-.33,17.676,17.676,0,0,0,2.557.577,1.577,1.577,0,0,0,1.774-.454Z" transform="translate(58.253 15.439)" fill="#4f2928" fill-rule="evenodd"/>
      <path id="パス_15080" data-name="パス 15080" d="M39.8,150.34c1.9,0,3.341-.928,4.826-1.753,1.753-.99,1.939-1.691.866-3.362a23.835,23.835,0,0,1-2.186-3.589,63.971,63.971,0,0,0-3.527-6.517,43.429,43.429,0,0,1-1.918-4.228,25.591,25.591,0,0,0-1.176-2.784c-.66-1.2-1.753-1.155-2.413.1q-.835,1.609-1.547,3.279a26.618,26.618,0,0,1-5.486,8.683,18.7,18.7,0,0,0-2.6,3.671,4.264,4.264,0,0,0-.041,4.187,1.733,1.733,0,0,0,1.959,1.176c1.65-.33,3.32-.639,4.95-1.134a3.139,3.139,0,0,1,2.248-.082c.887.392,1.732.866,2.64,1.2,1.114.433,2.269.763,3.4,1.134Z" transform="translate(14.426 122.632)" fill="#4f2928" fill-rule="evenodd"/>
      <path id="パス_15081" data-name="パス 15081" d="M70.9,69.808c-1.856.536-1.959.577-2.949,2.083q-2.506,3.805-4.991,7.672A15.378,15.378,0,0,0,61.7,81.852c-.969,2.1-1.815,4.269-2.825,6.373a5.706,5.706,0,0,0-.495,2.97c.062.825.516,1.072,1.279.825.681-.227,1.4-.371,2.062-.66a2.88,2.88,0,0,1,2.537.124,5.635,5.635,0,0,1,2.454,2,10.371,10.371,0,0,0,1.671,2c.619.557,1.237.33,1.423-.454.309-1.361.577-2.743.887-4.1.33-1.464.619-2.929,1.052-4.352.577-1.835,1.217-3.671,1.98-5.465,1.031-2.454,2.1-4.929,4.331-6.6,1.918-1.444,3.671-3.176,6.125-3.795.165-.041.289-.206.412-.309-.474-.949-.557-1.031-.969-.887A26.571,26.571,0,0,0,80.243,70.8a11.309,11.309,0,0,1-4.908,1.176A4.75,4.75,0,0,1,70.9,69.828Z" transform="translate(50.849 61.254)" fill="#4f2928" fill-rule="evenodd"/>
      <path id="パス_15082" data-name="パス 15082" d="M109.168,52.786c1.65-2.5,4-3.114,6.517-3.424,1.485-.186,2.97-.412,4.475-.577a1.339,1.339,0,0,0,1.32-1.3,4.331,4.331,0,0,0,0-1.155c-.1-1.547-.33-3.094-.33-4.64,0-2.557.124-5.135.227-7.693.041-1.361-.8-2.062-2.083-1.712A19.679,19.679,0,0,0,112.22,35.9c-2.289,1.856-4.537,3.754-6.991,5.4a6.721,6.721,0,0,0-2.413,2.454,2.781,2.781,0,0,0,.083,3.341,6.539,6.539,0,0,0,3.011,2.413,3.7,3.7,0,0,1,2.5,2.227,6.036,6.036,0,0,0,.742,1.052Z" transform="translate(97.531 21.663)" fill="#4f2928" fill-rule="evenodd"/>
      <path id="パス_15083" data-name="パス 15083" d="M45.939,162.615l.433-.124c-.082-2.1-.144-4.207-.227-6.311a11.59,11.59,0,0,1-.124-1.155c.247-2.413.474-4.805.784-7.218.33-2.5.763-4.97,1.114-7.466a2.682,2.682,0,0,0-.722-2.351,1.91,1.91,0,0,0-.454.206c-.392.371-.784.722-1.134,1.114-2.743,3.176-6.538,4.166-10.394,4.97a37.544,37.544,0,0,1-4.331.371c-.866.062-1.093.33-1.052,1.217a5.644,5.644,0,0,0,.186,1.3,7.546,7.546,0,0,1,.124,3.589,1.459,1.459,0,0,0,.639,1.65c.474.33.99.6,1.485.907.722.454,1.732.784,2.124,1.444.846,1.464,2.372,2.124,3.424,3.279a1.287,1.287,0,0,0,1.712.309,2.613,2.613,0,0,1,3.094.392,8.057,8.057,0,0,1,2.764,3.114,6.148,6.148,0,0,0,.536.742Z" transform="translate(20.539 134.055)" fill="#4f2928" fill-rule="evenodd"/>
      <path id="パス_15084" data-name="パス 15084" d="M59.245,31.3c-.124.062-.247.124-.351.186.268,1.32.557,2.619.763,3.939a32.01,32.01,0,0,1,.722,5.878,27.192,27.192,0,0,1-1.237,7.878A42.37,42.37,0,0,0,57.8,54.234c-.557,2.846-.949,5.733-1.444,8.579-.124.722-.412,1.4-.474,2.124a1.5,1.5,0,0,0,.392,1.134c.186.165.722.082,1.031-.041a3.744,3.744,0,0,0,1.052-.742c1.712-1.629,3.4-3.3,5.156-4.888a2.933,2.933,0,0,1,1.671-.742c.99,0,1.423-.763,2.062-1.237.907-.639.433-1.444.1-2.207a2.124,2.124,0,0,1-.124-.722,48.4,48.4,0,0,1,.227-5.486,21.692,21.692,0,0,0-.474-9.631,13.745,13.745,0,0,0-.639-1.609c-.289-.66-.639-1.3-.928-1.959A10.479,10.479,0,0,0,59.245,31.3Z" transform="translate(48.213 20.711)" fill="#4f2928" fill-rule="evenodd"/>
      <path id="パス_15085" data-name="パス 15085" d="M67.354,82.5c-.392.412-.577.639-.784.846C64.4,85.7,62.321,88.13,60.053,90.358a25.593,25.593,0,0,1-5.61,4.578c-.825.454-.763,1.011.062,1.526a5.449,5.449,0,0,0,.763.412,13.036,13.036,0,0,1,4.661,3.65,10.4,10.4,0,0,1,2.537,5.156,3.2,3.2,0,0,0,1.9,2.372c.7-1.4,1.423-2.7,2.042-4.042a32.8,32.8,0,0,1,3.65-6.393c2.6-3.465,3.052-3.052,1.217-7.713-.846-2.165-1.9-4.248-2.887-6.331-.186-.392-.639-.66-1.052-1.072Z" transform="translate(46.064 75.104)" fill="#4f2928" fill-rule="evenodd"/>
      <path id="パス_15086" data-name="パス 15086" d="M94.988,57.039c-.124-.1-.247-.206-.392-.309a11.55,11.55,0,0,0-.825.928A21.838,21.838,0,0,1,90.017,61.7c-.516.474-1.093.99-1.918.619,0-1.609,1.815-2.227,2.021-4.022-1.052,1.382-2,2.475-2.764,3.692a3.72,3.72,0,0,1-2.124,1.588,17.49,17.49,0,0,0-3.176,1.4c-1.9,1.155-3.754,2.372-5.589,3.65a21.944,21.944,0,0,0-7.342,7.9,2.67,2.67,0,0,1-.8.99A5.631,5.631,0,0,0,66.3,80.777a2.659,2.659,0,0,0,2.5,1.155c1.918,0,3.568-.907,5.28-1.526,2.5-.907,4.929-1.98,7.383-3.011a6.2,6.2,0,0,0,3.733-3.836c.557-1.732.928-3.547,1.361-5.342a22.434,22.434,0,0,1,.557-2.392,1.805,1.805,0,0,1,.763-.969c1.856-.928,3.733-1.774,5.63-2.619a8.361,8.361,0,0,0,2.764-2.083c-.8.33-1.506.8-2.269,1.176-.763.392-1.547,1.052-2.557.433.186-1.114,1.093-1.609,1.691-2.33.639-.763,1.2-1.588,1.794-2.392Z" transform="translate(59.286 47.727)" fill="#4f2928" fill-rule="evenodd"/>
      <path id="パス_15087" data-name="パス 15087" d="M114.174,47.446c-.165-.536-.165-1.011-.392-1.258-1.361-1.382-1.939-3.238-2.949-4.805-1.32-2.083-3.176-2.97-6.043-2a12.976,12.976,0,0,1-1.526.454,6.451,6.451,0,0,0-4.682,3.32c-1.609,2.929-3.32,5.8-4.929,8.724A10.984,10.984,0,0,0,92.6,54.87c-.227,1.134.495,1.815,1.609,1.485,1.567-.474,3.135-1.011,4.64-1.629,4.372-1.815,8.724-3.692,13.1-5.548a8.378,8.378,0,0,0,1.547-.784,3.577,3.577,0,0,0,.681-.928Z" transform="translate(87.183 28.88)" fill="#4f2928" fill-rule="evenodd"/>
      <path id="パス_15088" data-name="パス 15088" d="M88.748,59.022c-.454-.639-.825-1.134-1.176-1.629a3.428,3.428,0,0,0-2.97-1.485c-1.485-.041-2.99-.351-4.475-.392a10.8,10.8,0,0,0-6.29,1.3c-.536.33-1.031.742-1.588,1.031A8.069,8.069,0,0,0,68.97,61.27a19.441,19.441,0,0,0-2.413,11.9,8.09,8.09,0,0,1-.33,4.022c-.227.639-.371,1.3-.557,1.939a.848.848,0,0,0,.557-.536c.6-1.423,1.072-2.908,1.794-4.269a12.777,12.777,0,0,1,4.269-4.867c.474-.309.928-.7,1.382-1.052a54.279,54.279,0,0,1,8.786-5.94c2.062-1.052,4.063-2.227,6.311-3.465Z" transform="translate(58.617 46.424)" fill="#4f2928" fill-rule="evenodd"/>
      <path id="パス_15089" data-name="パス 15089" d="M37.373,112.191a3.766,3.766,0,0,0-.309.516c-.742,1.9-1.464,3.795-2.207,5.692a13.989,13.989,0,0,0-.681,1.753,1.357,1.357,0,0,0,1.258,1.753,4.085,4.085,0,0,0,.866-.062,8.006,8.006,0,0,1,5.2.969c1.382.8,2.7,1.732,4.1,2.5a6.72,6.72,0,0,1,2.681,2.578,3.889,3.889,0,0,0,4.248,2.062c1.444-.227,2.887-.33,4.31-.557a30.253,30.253,0,0,0,4.1-.887c1.361-.412,1.629-.969,1.258-2.31a21.145,21.145,0,0,0-1.155-3.135c-.536-1.176-.577-1.176-1.9-1.052a35.455,35.455,0,0,1-3.919.351,17.662,17.662,0,0,1-4.022-.433c-1.547-.351-3.052-.969-4.6-1.4a6.937,6.937,0,0,1-3.9-2.846,20.775,20.775,0,0,0-5.4-5.507Z" transform="translate(25.104 106.624)" fill="#4f2928" fill-rule="evenodd"/>
      <path id="パス_15090" data-name="パス 15090" d="M121.222,28.073c.062-.124.124-.227.186-.351-.309-.247-.619-.516-.949-.742a51.273,51.273,0,0,0-7.672-4.393,11.072,11.072,0,0,0-3.857-1.155,65.845,65.845,0,0,0-8.559,0A13.1,13.1,0,0,0,92.885,24.3c-.516.433-.887.846-.619,1.609.33.887.66,1.237,1.567,1.237.433,0,.846-.144,1.279-.186,2.1-.165,4.022.144,5.486,1.939a12.078,12.078,0,0,1,2.1,3.444,12.791,12.791,0,0,0,.846,1.506c2.516-2.083,5.342-3.155,8.084-4.352a14.511,14.511,0,0,1,6.558-1.588l2.99.186Z" transform="translate(86.776 10.078)" fill="#4f2928" fill-rule="evenodd"/>
      <path id="パス_15091" data-name="パス 15091" d="M121.888,28.973a6.763,6.763,0,0,0-.495-1.134,3.289,3.289,0,0,0-3.155-1.444c-1.691.124-3.382.433-5.073.392a33.932,33.932,0,0,0-7.775.887,2.962,2.962,0,0,0-1.134.577c-.969.681-1.114,1.753-1.361,2.8a8.1,8.1,0,0,0,.8,6.682c1.114,1.691,1.588,1.9,3.444,1.093a47,47,0,0,1,8.6-3.094,10.636,10.636,0,0,0,1.959-.557,5.072,5.072,0,0,0,2.784-2.186,25.993,25.993,0,0,0,1.052-2.846c.124-.351.206-.742.33-1.2Z" transform="translate(97.784 15.489)" fill="#4f2928" fill-rule="evenodd"/>
      <path id="パス_15092" data-name="パス 15092" d="M104.7,52.693c.144,1.567.227,2.867.371,4.166a1.606,1.606,0,0,0,1.506,1.526,4.21,4.21,0,0,0,3.444-.784c2.1-1.774,4.145-3.63,6.249-5.383a5.679,5.679,0,0,0,2.042-3.857,9.059,9.059,0,0,0-.6-4.558c-.454-1.114-.887-1.382-2.021-1.2a15.831,15.831,0,0,0-3.671.846C109.96,44.3,107.98,45.31,106,46.32a1.292,1.292,0,0,0-.6.887c-.289,1.9-.495,3.815-.722,5.486Z" transform="translate(100.06 32.666)" fill="#4f2928" fill-rule="evenodd"/>
      <path id="パス_15093" data-name="パス 15093" d="M67.036,123.482c.041-2.516-.144-2.97-1.629-3.939a12.422,12.422,0,0,0-1.155-.619,25.966,25.966,0,0,1-6.022-3.2c-.33-.268-.763-.433-1.114-.681a6.662,6.662,0,0,0-3.754-.887,1.365,1.365,0,0,0-1.279.8c-.763,1.4-1.567,2.784-2.33,4.187A2,2,0,0,0,51.032,122a16.635,16.635,0,0,1,5.465,2.289,17.676,17.676,0,0,1,5.094,4.5c1.155,1.485,2.351,1.4,3.32-.124a3.078,3.078,0,0,1,.412-.6,6.061,6.061,0,0,0,1.732-4.578Z" transform="translate(41.473 108.738)" fill="#4f2928" fill-rule="evenodd"/>
      <path id="パス_15094" data-name="パス 15094" d="M73.23,94.148a8.871,8.871,0,0,0,2.145-.8c1.691-1.2,3.32-2.516,4.95-3.795,1.712-1.341,3.382-2.764,5.115-4.063a33.193,33.193,0,0,1,2.97-1.774c.66-.392.722-.66.351-1.279a4.3,4.3,0,0,0-2.97-2.145c-.846-.165-1.671-.516-2.537-.6a4.887,4.887,0,0,0-2.392.186,22.853,22.853,0,0,0-4.125,2.392c-3.052,2.289-5.465,5.053-6.393,8.909-.289,1.2-.206,1.671.907,2.269a11.7,11.7,0,0,0,1.98.681Z" transform="translate(63.43 72.056)" fill="#4f2928" fill-rule="evenodd"/>
      <path id="パス_15095" data-name="パス 15095" d="M30.606,149.01c-.124.392-.206.557-.247.742-.639,2.764-.99,5.63-2.392,8.188a1.4,1.4,0,0,0,.907,1.877,9.316,9.316,0,0,0,2.269.371c2.083.165,4.145.186,5.96,1.485a1.632,1.632,0,0,0,2.165.041,9.43,9.43,0,0,1,5.3-2.145,3.545,3.545,0,0,0,.887-.371c-.516-2.021-1.052-3.815-3.155-4.682-1.547-.639-2.99-1.588-4.5-2.351-1.98-.99-4-1.939-6-2.887a6.941,6.941,0,0,0-1.2-.268Z" transform="translate(18.425 145.762)" fill="#4f2928" fill-rule="evenodd"/>
      <path id="パス_15096" data-name="パス 15096" d="M27.894,111.2c-1.052,1.052-1.237,2.516-1.629,3.9-.536,1.856-1.031,3.712-1.629,5.548A1.769,1.769,0,0,0,25.4,123.1a13.881,13.881,0,0,0,6.909,2.372c1.856.268,2.97-1.052,3.424-2.5a5.341,5.341,0,0,0,.206-1.712,5.891,5.891,0,0,1,.99-3.568c.309-.495.619-.969.928-1.485.681-1.134.6-1.382-.577-1.98a12.474,12.474,0,0,0-4.228-.866,11.564,11.564,0,0,1-2.7-.454,13.79,13.79,0,0,1-2.413-1.712Z" transform="translate(14.805 105.594)" fill="#4f2928" fill-rule="evenodd"/>
      <path id="パス_15097" data-name="パス 15097" d="M72.549,134.071a5.024,5.024,0,0,1,.639-.1,7.3,7.3,0,0,1,3.465.969,2.331,2.331,0,0,0,2.475-.186,13.261,13.261,0,0,0,3.506-3.444,2.6,2.6,0,0,0,.412-1.217c.165-3.485.041-6.868-2.145-9.879a5.309,5.309,0,0,0-3.424-1.959c-.165-.041-.392.186-.392.186.557.681,1.155,1.32,1.65,2.021a12.308,12.308,0,0,1,1.918,4.785,5.08,5.08,0,0,1-.7,3.733,2.66,2.66,0,0,1-2.516,1.423c-1.4-.041-2.825.041-4.228-.021-1.877-.082-3.032,1.134-4.7,2.372.681.351,1.176.619,1.691.866-.082.144-.144.268-.227.412a4.21,4.21,0,0,1-1.217.124,13.451,13.451,0,0,1-4.022-1.072c-3.568-2.083-7.425-1.98-11.3-1.918a1.056,1.056,0,0,0-.784.454c-.165.495.33.619.7.742a1.394,1.394,0,0,0,.557.1c2.392-.33,4.6.495,6.847,1.011a14.486,14.486,0,0,1,5.713,2.784,5.828,5.828,0,0,0,3.362,1.217c2.186.144,3.011-.825,2.66-2.99a2.782,2.782,0,0,1,.062-.412Z" transform="translate(44.747 113.081)" fill="#4f2928" fill-rule="evenodd"/>
      <path id="パス_15098" data-name="パス 15098" d="M70.432,80.771c-.454.1-.722.206-1.011.247a5.312,5.312,0,0,0-4.372,5.362,19.674,19.674,0,0,1,0,3.485,36.445,36.445,0,0,0,.351,8.992c.165,1.258.516,1.629,1.815,1.959.681-.392,1.3-.763,1.918-1.114,2.97-1.671,3.424-2.66,3.032-6.166-.062-.536-.206-1.052-.227-1.588-.1-2.6-.165-5.218-.268-7.837a5.509,5.509,0,0,0-1.237-3.382Z" transform="translate(57.794 73.223)" fill="#4f2928" fill-rule="evenodd"/>
      <path id="パス_15099" data-name="パス 15099" d="M44.856,142.409c.062-1.671.144-3.094.124-4.537a21.772,21.772,0,0,1-.268-3.032,4.471,4.471,0,0,0-2.248-4.95,17.865,17.865,0,0,1-3.155-2.97c-.784-.846-1.464-1.794-2.186-2.7-.227-.289-.454-.557-.784-.969a6.8,6.8,0,0,0-1.093,1.114,18.44,18.44,0,0,0-1.4,2.867c-.474,1.361-1.444,2.5-1.031,4.228.6,2.578.763,3.217,3.774,3.3a4.047,4.047,0,0,1,2.908,1.114c1.237,1.279,2.578,2.475,3.2,4.269a5.6,5.6,0,0,0,1.114,1.691c.165.227.536.289,1.052.557Z" transform="translate(23.603 118.395)" fill="#4f2928" fill-rule="evenodd"/>
      <path id="パス_15100" data-name="パス 15100" d="M77.009,114.717a9.926,9.926,0,0,0-2.392,3.011,9.79,9.79,0,0,1-8,5.3,19.441,19.441,0,0,1-4.64-.165,5.61,5.61,0,0,1-3.362-1.567c-1.4-1.4-2.887-2.743-4.269-4.166a6.639,6.639,0,0,1-1.279-1.918c-.969-2.269-1.836-4.578-2.825-6.847a3.846,3.846,0,0,1-.041-3.094,7.03,7.03,0,0,0,.227-4.166c-.454-2.165-1.114-4.31-1.732-6.435-.082-.247-.412-.433-.639-.681a3.962,3.962,0,0,0-1.4,3.2,8.325,8.325,0,0,0,1.258,4.269,5.429,5.429,0,0,1,.763,3.176c-.041.619,0,1.258-.041,1.9a14.236,14.236,0,0,0,1.877,8.5c.536.969,1.134,1.918,1.609,2.929a15.159,15.159,0,0,0,6,6.166,8.3,8.3,0,0,0,3.114,1.114,28.407,28.407,0,0,0,4.187.124,6.4,6.4,0,0,0,4.187-1.382c1.155-.969,2.33-1.9,3.444-2.908a8.5,8.5,0,0,0,2.784-3.98,17.616,17.616,0,0,1,1.114-2.372Z" transform="translate(38.409 87.31)" fill="#4f2928" fill-rule="evenodd"/>
      <path id="パス_15101" data-name="パス 15101" d="M59.341,32.936a21.955,21.955,0,0,1,1.98,1.3A10.325,10.325,0,0,1,64.6,39.453a27.391,27.391,0,0,1,1.072,6.7c.1,3.815-.165,7.651-.247,11.467,0,.309.1.8.268.866a1.162,1.162,0,0,0,1.011-.144,13.012,13.012,0,0,0,1.835-1.856,8.243,8.243,0,0,1,2.99-2.475,5.7,5.7,0,0,0,.969-.784c-.639-1.114-1.217-2.042-1.732-3.032a17.384,17.384,0,0,1-1.382-3.032c-1.155-4.1-2.269-8.208-3.279-12.333a8.136,8.136,0,0,1-.227-4.166c.165-.619-.124-1.011-.825-1.237a7,7,0,0,0-.907.846,3.368,3.368,0,0,1-3.155,1.444,1.577,1.577,0,0,0-1.691,1.2Z" transform="translate(51.849 18.724)" fill="#4f2928" fill-rule="evenodd"/>
      <path id="パス_15102" data-name="パス 15102" d="M59.924,128.837a16.14,16.14,0,0,1,.062-5.981,5.367,5.367,0,0,0,.041-1.155c0-.6-.309-.866-.949-.784-.866.1-1.732.165-2.6.268a24.587,24.587,0,0,0-7.672,2.475,1.206,1.206,0,0,0-.6.6,24.455,24.455,0,0,1-3.857,5.424c-.227.289-.454.846-.309,1.114a1.375,1.375,0,0,0,1.052.6,4.442,4.442,0,0,0,1.547-.268,28.061,28.061,0,0,1,6.517-1.279c1.732-.124,3.465-.268,5.2-.474a7.7,7.7,0,0,0,1.547-.536Z" transform="translate(35.593 115.902)" fill="#4f2928" fill-rule="evenodd"/>
      <path id="パス_15103" data-name="パス 15103" d="M71.645,96.661a10.485,10.485,0,0,0-2.31,3.609c-.866,2.207-1.588,4.475-2.392,6.7-.99,2.722-1.671,5.589-3.259,8.084-1.134,1.794-2.269,3.589-3.444,5.4.474.969,1.32.7,2.021.474a10.936,10.936,0,0,0,7.383-6.682,39.288,39.288,0,0,0,1.4-5.775c.7-3.382,1.567-6.7,1.2-10.209-.062-.557.144-1.2-.6-1.629Z" transform="translate(52.848 90.126)" fill="#4f2928" fill-rule="evenodd"/>
      <path id="パス_15104" data-name="パス 15104" d="M51.058,111.784c.124-.062.268-.1.392-.165-.227-.784-.454-1.547-.66-2.33-.309-1.217-.681-2.413-.907-3.63-.227-1.279-.186-2.619-.454-3.877-.433-1.939-1.011-3.836-1.547-5.733a2.109,2.109,0,0,0-1.3-1.629,5.016,5.016,0,0,0-3.547.206,1.873,1.873,0,0,0-.99,1.877q.093.866.124,1.732c.124,2.165.186,4.352.33,6.517.1,1.444.165,1.506,1.547,1.423a2.49,2.49,0,0,1,2,.639c1.093,1.011,2.186,2.042,3.238,3.094.619.6,1.176,1.258,1.774,1.877Z" transform="translate(33.508 87.521)" fill="#4f2928" fill-rule="evenodd"/>
      <path id="パス_15105" data-name="パス 15105" d="M50.961,131.95c0-.557-.041-1.011,0-1.423a4.143,4.143,0,0,0-1.836-3.877,15.679,15.679,0,0,1-1.464-1.4c-1.774-1.794-3.506-3.609-5.321-5.362a1.424,1.424,0,0,0-1.155-.33c-1.258.371-2.454.887-3.692,1.3a9.532,9.532,0,0,1-1.526.309c-.268.041-.516.082-.907.124a3.1,3.1,0,0,0,.454.846c.99.928,2,1.815,3.011,2.722a11.979,11.979,0,0,1,1.609,1.444c1.3,1.65,3.114,2.619,4.743,3.836a3.737,3.737,0,0,0,1.072.412c.619.247,1.258.474,1.856.763a4.351,4.351,0,0,0,3.155.619Z" transform="translate(26.098 114.439)" fill="#4f2928" fill-rule="evenodd"/>
      <path id="パス_15106" data-name="パス 15106" d="M87.025,38.923c.268-.412.6-.7.639-1.011.144-1.3.227-2.6.268-3.877.041-1.114-.165-2.248-.021-3.341a23.389,23.389,0,0,0-1.9-12.766,3.986,3.986,0,0,0-.866-1.3c-.639-.577-1.341-.474-1.65.33a10.89,10.89,0,0,0-1.011,5.218c.227,1.774.681,3.506,1.011,5.28a7.084,7.084,0,0,1,.083,1.155,11.713,11.713,0,0,0,1.134,5.61,17.922,17.922,0,0,1,.6,1.774,6.674,6.674,0,0,0,1.712,2.949Z" transform="translate(76.426 4.735)" fill="#4f2928" fill-rule="evenodd"/>
      <path id="パス_15107" data-name="パス 15107" d="M97.225,17.435H97.08c0-.536.021-1.072,0-1.609a13.024,13.024,0,0,0-.206-1.567c-.474-2.289-.474-2.289-2.825-2.434-1.32-.082-2,.351-2.083,1.629a41.9,41.9,0,0,0-.165,6.228c.247,3.485.722,6.93,1.114,10.394a1.261,1.261,0,0,0,.206.681c.206.247.516.536.784.536.227,0,.577-.33.681-.577A30.376,30.376,0,0,0,96.42,25.54c.474-2.66.557-5.383.825-8.084Z" transform="translate(86.314 0.011)" fill="#4f2928" fill-rule="evenodd"/>
      <path id="パス_15108" data-name="パス 15108" d="M79.049,21.17a4.417,4.417,0,0,0-1.712,4.1c.124,1.2.165,2.413.289,3.63a31.316,31.316,0,0,0,.887,6.166c.454,1.423.846,2.887,1.237,4.331.309,1.114.536,2.269.907,3.362a1.654,1.654,0,0,0,.866,1.011c.536.124.536-.557.7-.928a11.692,11.692,0,0,0,.536-5.836c-.206-2.454-.412-4.908-.536-7.363a10.071,10.071,0,0,0-.763-3.671c-.577-1.32-1.217-2.619-1.856-3.939a7.24,7.24,0,0,0-.557-.846Z" transform="translate(70.976 9.949)" fill="#4f2928" fill-rule="evenodd"/>
      <path id="パス_15109" data-name="パス 15109" d="M84.669,40.8c.1-.928.289-1.815.309-2.722.041-1.547-.062-3.114,0-4.661a29.285,29.285,0,0,0-1.691-11.838,18.048,18.048,0,0,0-.619-1.774c-.309-.6-.825-1.217-1.567-1.072a1.4,1.4,0,0,0-.969,1.609c.144,2.557.227,5.135.577,7.672.495,3.795,1.217,7.548,1.774,11.322.227,1.609.165,1.65,2.207,1.485Z" transform="translate(73.976 7.335)" fill="#4f2928" fill-rule="evenodd"/>
      <path id="パス_15110" data-name="パス 15110" d="M75.819,55.229a7.091,7.091,0,0,0,1.011-2.042,8.707,8.707,0,0,1,1.856-4.166,1.526,1.526,0,0,0,.144-1.732c-.536-1.217-1.629-1.877-2.475-2.784a5.465,5.465,0,0,0-4.393-1.774,3.15,3.15,0,0,0-1.464.474c-1.567.866-2.124,4-.247,5.713A24.606,24.606,0,0,1,74.6,53.93a12.246,12.246,0,0,0,1.237,1.32Z" transform="translate(62.224 32.852)" fill="#4f2928" fill-rule="evenodd"/>
      <path id="パス_15111" data-name="パス 15111" d="M88.48,14.561c.083.928.124,1.794.247,2.66.516,3.135.124,6.373,1.155,9.466.619,1.856.949,3.836,1.691,5.672.186.474.392.928,1.011.846.639-.082.66-.557.7-1.093.041-.825.186-1.629.206-2.454.041-1.485.454-2.929.165-4.475a19.108,19.108,0,0,1-.289-4.6,13.94,13.94,0,0,0-.412-4.723,5.3,5.3,0,0,0-.99-1.877c-.825-1.011-1.134-1.011-2.186-.309-.392.268-.8.536-1.3.887Z" transform="translate(82.849 1.462)" fill="#4f2928" fill-rule="evenodd"/>
      <path id="パス_15112" data-name="パス 15112" d="M72.617,25.861a8.817,8.817,0,0,0-.392,1.217,19.82,19.82,0,0,0-.021,2.475c.124,2.227.289,4.455.412,6.682a38.968,38.968,0,0,0,1.939,10.539,25.977,25.977,0,0,0,1.2,2.537c1.794-.536,2.062-.866,1.877-2.557-.371-3.279-.66-6.558-1.217-9.8-.474-2.867-1.217-5.672-1.9-8.5a3.952,3.952,0,0,0-1.877-2.619Z" transform="translate(65.528 14.91)" fill="#4f2928" fill-rule="evenodd"/>
      <path id="パス_15113" data-name="パス 15113" d="M88.556,14.071c-.907.846-1.98.8-2.227,1.836a9.485,9.485,0,0,0-.516,2.681,66.114,66.114,0,0,0,.7,8.084c.495,2.949,1.691,5.754,1.877,8.786.062.825.619.99,1.361.557a3.285,3.285,0,0,0,1.485-3.485C90.846,30.693,90.33,28.858,90.1,27c-.433-3.506-.66-7.033-1.031-10.539a18.376,18.376,0,0,0-.536-2.413Z" transform="translate(80.009 2.385)" fill="#4f2928" fill-rule="evenodd"/>
      <path id="パス_15114" data-name="パス 15114" d="M66.332,49.179a16.241,16.241,0,0,1,2.145-1.093c2.846-.928,5.692-1.877,8.579-2.64,2.062-.557,3.98-1.217,5.342-2.949a14.537,14.537,0,0,1,1.2-1.052c1.011-1.031,2-2.083,2.949-3.176.144-.144,0-.536,0-.949a18.685,18.685,0,0,0-2.784,1.691,11.6,11.6,0,0,1-7.136,2.743A21.257,21.257,0,0,0,71.1,42.888c-2.8.969-4.145,3.176-5.053,5.754-.041.1.1.247.268.557Z" transform="translate(59.006 27.106)" fill="#4f2928" fill-rule="evenodd"/>
      <path id="パス_15115" data-name="パス 15115" d="M71.169,49.549a7.922,7.922,0,0,0-2.124-4.166c-.949-1.155-1.3-1.258-2.578-.557a31.916,31.916,0,0,0-3.63,2.33,2.357,2.357,0,0,0-.681,1.217,26.661,26.661,0,0,0-.928,5.548c-.227,1.691,0,1.9,1.609,1.32a4.592,4.592,0,0,0,.907-.433c1.341-.928,2.66-1.9,4.022-2.825a3.715,3.715,0,0,1,2.165-1.052c.928,0,1.279-.454,1.279-1.341Z" transform="translate(53.819 34.613)" fill="#4f2928" fill-rule="evenodd"/>
      <path id="パス_15116" data-name="パス 15116" d="M87.8,88.092c-.062-.124-.124-.268-.186-.392a2.4,2.4,0,0,0-.784.124c-1.2.536-2.392,1.052-3.568,1.65-1.98,1.031-3.9,2.124-5.857,3.176a19.731,19.731,0,0,0-5.568,4.372,56.606,56.606,0,0,0-6.084,9.013,28.555,28.555,0,0,0-3.217,7.837,4.4,4.4,0,0,0,.557-.949c.7-1.547,1.341-3.114,2.083-4.64a17.442,17.442,0,0,1,5.053-6.476c2.887-2.207,5.8-4.372,8.7-6.558,1.341-1.011,2.681-2.042,4-3.114,1.65-1.32,3.259-2.7,4.867-4.042Z" transform="translate(55.291 80.628)" fill="#4f2928" fill-rule="evenodd"/>
      <path id="パス_15117" data-name="パス 15117" d="M74.72,24.36c.33,2.269.619,4.31.928,6.352.1.722.247,1.423.309,2.145a42.1,42.1,0,0,0,.454,5.362,66,66,0,0,0,1.959,6.826A1.98,1.98,0,0,0,80,46.592a3.79,3.79,0,0,0,.371-.928,14.852,14.852,0,0,0,.268-5.053c-.474-2.619-.866-5.259-1.506-7.837a52.856,52.856,0,0,0-2.083-6.331c-.33-.846-.722-1.939-2.31-2.062Z" transform="translate(68.231 13.338)" fill="#4f2928" fill-rule="evenodd"/>
      <path id="パス_15118" data-name="パス 15118" d="M39.883,114.222s-.021.206-.041.289a2.879,2.879,0,0,0,.6.33,10.126,10.126,0,0,0,2.908.784c1.588.021,2.7,1.2,3.96,2a6.835,6.835,0,0,0,9.2-1.258c.907-.99.7-1.939-.577-2.392a18.541,18.541,0,0,0-2.083-.619c-3.114-.66-6.208-1.052-9.219.557a2.483,2.483,0,0,1-3.094-.351,6.717,6.717,0,0,0-1.423-.763c-.1.124-.227.268-.33.392.412.144.846.309,1.258.454-.082.124-.186.247-.268.351-.289.062-.6.144-.887.206Z" transform="translate(31.112 107.274)" fill="#4f2928" fill-rule="evenodd"/>
      <path id="パス_15119" data-name="パス 15119" d="M64.613,63.942c.083-.144.186-.309.289-.474a2.034,2.034,0,0,1,2.145-1.155c.433.041.866,0,1.3,0,1.526,0,2.062-.412,2.042-1.939-.041-2.66-.165-5.321-.289-7.981a14.274,14.274,0,0,0-.351-2.289,1.187,1.187,0,0,0-1.093-1.011c-.577-.062-.7.412-.928.784-.124.206-.227.433-.351.639A37.43,37.43,0,0,0,63.932,62.6c-.062.433-.268.99.681,1.361Z" transform="translate(56.704 39.607)" fill="#4f2928" fill-rule="evenodd"/>
      <path id="パス_15120" data-name="パス 15120" d="M67.751,29.363a3.8,3.8,0,0,0-4.62-2.372c-2.908.557-4.723,2.475-5.94,5.032a1.21,1.21,0,0,0,.969,1.836,5.251,5.251,0,0,0,2.269-.144,16.074,16.074,0,0,0,3.155-1.423,14.478,14.478,0,0,0,4.166-2.949Z" transform="translate(49.441 16.027)" fill="#4f2928" fill-rule="evenodd"/>
      <path id="パス_15121" data-name="パス 15121" d="M54.581,106.817c.454-1.877.536-3.568,1.258-4.929,1.279-2.413,1.072-4.991,1.382-7.507.062-.495-.021-1.093-.6-1.176a1.386,1.386,0,0,0-1.114.474c-1.052,1.341-2.021,2.722-2.99,4.1a2.058,2.058,0,0,0-.309,1.114,35.483,35.483,0,0,0,0,3.919c.144,1.629,1.217,2.743,2.372,4Z" transform="translate(44.256 86.466)" fill="#4f2928" fill-rule="evenodd"/>
      <path id="パス_15122" data-name="パス 15122" d="M75.3,43.994a21.088,21.088,0,0,1,.639,2.5c.247,1.753.412,3.547.6,5.3.082.846.454,1.2,1.217.969A4.587,4.587,0,0,0,80.683,50.8a1.78,1.78,0,0,0,.309-.928c-.062-1.485-.165-2.99-.309-4.475a2.427,2.427,0,0,0-1.2-1.9c-1.444-.887-2.764-.722-4.207.495Z" transform="translate(68.826 33.074)" fill="#4f2928" fill-rule="evenodd"/>
      <path id="パス_15123" data-name="パス 15123" d="M80.949,46.751a6.422,6.422,0,0,0-.681.887c-.536,1.134-1.031,2.289-1.567,3.4-.247.516,0,.846.371,1.134,1.258.969,2.516,1.918,3.795,2.867.124.1.371.062.557.082a6.268,6.268,0,0,0,1.567-3.073,3,3,0,0,0-.846-2.8c-.969-.907-2.083-1.65-3.217-2.516Z" transform="translate(72.355 37.103)" fill="#4f2928" fill-rule="evenodd"/>
      <path id="パス_15124" data-name="パス 15124" d="M67.841,47.9a2.591,2.591,0,0,0,.1.7c.577,2.042,1.176,4.063,1.774,6.084.062.227.1.536.268.66.227.144.722.289.825.186,1.093-1.072,2.289-2.083,2.64-3.692a2.122,2.122,0,0,0-.474-2.165A26.749,26.749,0,0,0,69.2,46.805c-.969-.6-1.361-.247-1.382,1.093Z" transform="translate(60.901 36.883)" fill="#4f2928" fill-rule="evenodd"/>
      <path id="パス_15125" data-name="パス 15125" d="M13.939,152.72c-.928.247-1.836.412-2.681.722-.887.309-1.011.907-.268,1.485a6.823,6.823,0,0,0,2.372,1.341c2.021.474,4.083.763,6.146,1.093.7.1,1.031-.268,1.011-1.031a2.186,2.186,0,0,0-1.671-2.207c-.371-.124-.722-.268-1.093-.371-1.258-.351-2.516-.66-3.795-1.011Z" transform="translate(0.011 149.703)" fill="#4f2928" fill-rule="evenodd"/>
      <path id="パス_15126" data-name="パス 15126" d="M54.622,114.7a5.58,5.58,0,0,0-4.785-4.393c-2.372-.062-4.743.082-6.6,1.918a11.912,11.912,0,0,1-1.65,1.176,5.362,5.362,0,0,0-.577.6c.557.619,1.072.186,1.526.062,1.031-.247,2.021-.7,3.052-.907a8.54,8.54,0,0,1,3.279-.309,35.093,35.093,0,0,1,4.64,1.567c.309.1.639.165,1.114.289Z" transform="translate(32.419 104.632)" fill="#4f2928" fill-rule="evenodd"/>
      <path id="パス_15127" data-name="パス 15127" d="M18.711,114a34.9,34.9,0,0,0,2.64,2.6c1.98,1.753,4.31,2,6.7,2.227.351.041.866-.392,1.093-.742a.879.879,0,0,0-.433-1.237,43.623,43.623,0,0,0-4.31-2.351,30.174,30.174,0,0,0-4.042-1.155,1.342,1.342,0,0,0-1.671.639Z" transform="translate(8.707 107.785)" fill="#4f2928" fill-rule="evenodd"/>
      <path id="パス_15128" data-name="パス 15128" d="M15.891,124.587c.041.144.041.268.1.309a14.454,14.454,0,0,0,8.208,3.279c1.072.062,1.547-.247,1.794-1.835.165-1.031.082-1.093-1.2-1.567-2.372-.866-4.867-.742-7.321-.887a1.478,1.478,0,0,0-1.609.681Z" transform="translate(5.711 119.059)" fill="#4f2928" fill-rule="evenodd"/>
      <path id="パス_15129" data-name="パス 15129" d="M57.574,91.91a8.852,8.852,0,0,0-3.754,2.619c-2.454,2.31-4.022,4.95-3.96,8.5a11.02,11.02,0,0,0,2.248,6c.206.309.516.577.8.351-.33-1.093-.66-2.083-.928-3.094a6.809,6.809,0,0,1-.309-1.567,13.455,13.455,0,0,1,0-3.155,15.88,15.88,0,0,1,5.445-8.641c.289-.247.722-.371.433-1.011Z" transform="translate(41.82 85.101)" fill="#4f2928" fill-rule="evenodd"/>
      <path id="パス_15130" data-name="パス 15130" d="M23.294,137.531a7.391,7.391,0,0,0-3.9-1.609c-1.382-.144-2.764-.495-4.145-.722a2.681,2.681,0,0,0-1.279.082c-.619.206-.7.8-.206,1.258a9.51,9.51,0,0,0,1.134.907c2.062,1.423,4.083,2.8,6.847,1.959,1.3-.392,1.32-.289,1.567-1.877Z" transform="translate(3.134 131.049)" fill="#4f2928" fill-rule="evenodd"/>
      <path id="パス_15131" data-name="パス 15131" d="M80.767,53.935c-.474-1.093-.928-2.207-1.464-3.279a1.4,1.4,0,0,0-1.526-.6,6.872,6.872,0,0,0-4.187,2.1,1.2,1.2,0,0,0,.351,1.959,5.616,5.616,0,0,0,1.526.433c1.279.206,2.578.351,3.877.536.969.144,1.258-.1,1.464-1.134Z" transform="translate(66.638 40.622)" fill="#4f2928" fill-rule="evenodd"/>
      <path id="パス_15132" data-name="パス 15132" d="M11.661,142.948c.681.619,1.2,1.093,1.712,1.567a9.169,9.169,0,0,0,7.177,2.5,1,1,0,0,0,1.052-.784c.289-1.072.062-1.567-1.279-1.98-1.9-.6-3.795-1.155-5.733-1.588a3.658,3.658,0,0,0-2.949.309Z" transform="translate(1.217 138.831)" fill="#4f2928" fill-rule="evenodd"/>
      <path id="パス_15133" data-name="パス 15133" d="M26.577,123.978c-.8-.268-1.526-.536-2.248-.722-1.217-.33-2.434-.619-3.65-.907-1.072-.247-2.165-.454-3.259-.66-.495-.082-.846.124-1.011.8a13.082,13.082,0,0,0,1.918,1.588c1.072.619,2.289,1.031,3.382,1.629a5.375,5.375,0,0,0,3.073.619c1.155-.041,1.3-.144,1.609-1.258a8.64,8.64,0,0,0,.186-1.114Z" transform="translate(6.284 116.718)" fill="#4f2928" fill-rule="evenodd"/>
      <path id="パス_15134" data-name="パス 15134" d="M21.321,144.5c.722-1.732.907-2.124-1.2-2.908a38.926,38.926,0,0,0-4.62-1.2,8.271,8.271,0,0,0-1.856-.289c-.371,0-.969.206-1.072.474a1.441,1.441,0,0,0,.206,1.3,5.015,5.015,0,0,0,1.9,1.258c1.65.557,3.341.969,5.032,1.361a7.165,7.165,0,0,0,1.629,0Z" transform="translate(2.137 136.307)" fill="#4f2928" fill-rule="evenodd"/>
      <path id="パス_15135" data-name="パス 15135" d="M79.96,45.212c.866.8,1.547,1.464,2.248,2.1.392.351.8.681,1.217,1.031a1.714,1.714,0,0,0,2.145.206,2.01,2.01,0,0,0,.784-2.165A5.933,5.933,0,0,0,84,42.84a1.294,1.294,0,0,0-1.959.082,29.938,29.938,0,0,0-2.062,2.289Z" transform="translate(73.798 32.537)" fill="#4f2928" fill-rule="evenodd"/>
      <path id="パス_15136" data-name="パス 15136" d="M51.64,110.238c2.392,2.269,4.805,4.413,7.074,6.723a32.68,32.68,0,0,0,7.012,5.115c.846.495,1.732.907,2.6,1.361.062-.433-.021-.7-.206-.846-.639-.495-1.32-.969-2-1.444a97.84,97.84,0,0,1-9.8-7.919c-1.279-1.176-2.557-2.351-3.857-3.506-.062-.062-.186-.041-.33-.083-.124.144-.268.33-.495.619Z" transform="translate(43.712 103.936)" fill="#4f2928" fill-rule="evenodd"/>
      <path id="パス_15137" data-name="パス 15137" d="M26.831,121.917c-.969-.392-1.877-.8-2.825-1.155a17.227,17.227,0,0,0-6.125-1.031,1.019,1.019,0,0,0-.8.433,1.006,1.006,0,0,0,.247.866,2.885,2.885,0,0,0,1.134.866c2.021.66,3.918,1.671,6.063,1.939,1.753.206,1.959.062,2.289-1.939Z" transform="translate(6.959 114.655)" fill="#4f2928" fill-rule="evenodd"/>
      <path id="パス_15138" data-name="パス 15138" d="M49.438,63.49s-.165.144-.268.227a6.079,6.079,0,0,0,.536,1.526,39.493,39.493,0,0,0,5.775,6.909,10.566,10.566,0,0,0,.887-.6A2.21,2.21,0,0,0,56.45,68.6c-1.753-1.423-3.506-2.846-5.3-4.228a10.544,10.544,0,0,0-1.732-.887Z" transform="translate(41.088 54.908)" fill="#4f2928" fill-rule="evenodd"/>
      <path id="パス_15139" data-name="パス 15139" d="M10.92,150.951a3.3,3.3,0,0,0,.392.536,9.875,9.875,0,0,0,6.847,3.032c1.691.1,1.9-.041,1.939-1.856a17.95,17.95,0,0,0-7.445-2.516,1.746,1.746,0,0,0-1.732.784Z" transform="translate(0.452 146.956)" fill="#4f2928" fill-rule="evenodd"/>
      <path id="パス_15140" data-name="パス 15140" d="M29.7,115.7c.082-.619.351-1.2.165-1.506-.412-.681-.928-1.609-1.588-1.794-2.269-.619-4.269-1.856-6.414-2.7a3.143,3.143,0,0,0-.825-.247c-.742-.041-1.114.536-.681,1.134a5.983,5.983,0,0,0,2.867,2.557c1.691.557,3.32,1.32,4.97,1.98.392.165.8.309,1.506.577Z" transform="translate(10.28 103.733)" fill="#4f2928" fill-rule="evenodd"/>
      <path id="パス_15141" data-name="パス 15141" d="M22.191,139.617c-2.186-1.32-8.167-2.351-9.611-1.609a2.127,2.127,0,0,0,.289.619c2.186,2.207,4.97,2.887,7.94,2.929,1.011,0,1.382-.639,1.382-1.918Z" transform="translate(2.216 133.809)" fill="#4f2928" fill-rule="evenodd"/>
      <path id="パス_15142" data-name="パス 15142" d="M43.742,109.9c.289-.619-.165-1.114-.516-1.609a11.857,11.857,0,0,1-1.382-2.042,3,3,0,0,0-1.877-1.671,1.671,1.671,0,0,0-2.351,1.732c.124.907.412,1.794.536,2.7.1.784.557.887,1.217.887,1.382-.021,2.784,0,4.352.041Z" transform="translate(28.8 98.397)" fill="#4f2928" fill-rule="evenodd"/>
      <path id="パス_15143" data-name="パス 15143" d="M14.06,133.9c2.042,1.382,3.774,2.66,6.1,2.66.619,0,1.258.082,1.877.041.907-.041,1.877-.041,2.207-1.423-.1-.062-.268-.165-.433-.247a16.225,16.225,0,0,0-8.559-1.753c-.33,0-.66.392-1.2.742Z" transform="translate(3.788 128.943)" fill="#4f2928" fill-rule="evenodd"/>
      <path id="パス_15144" data-name="パス 15144" d="M15.4,129.077a6.2,6.2,0,0,0,2.5,1.877c1.753.866,3.589.557,5.4.433.639-.041,1.114-.227,1.237-.949.124-.784-.412-.969-.969-1.217a15.646,15.646,0,0,0-6.373-1.052,1.964,1.964,0,0,0-1.794.907Z" transform="translate(5.211 123.622)" fill="#4f2928" fill-rule="evenodd"/>
      <path id="パス_15145" data-name="パス 15145" d="M37.83,109.053c.247.907.495,1.794.7,2.681.206.907.371,1.815.557,2.743a16.4,16.4,0,0,0,1.856-.516,15.134,15.134,0,0,0,2.33-1.114,1.223,1.223,0,0,0,.165-2.062c-1.629-1.114-3.217-2.413-5.589-1.753Z" transform="translate(29.04 103.101)" fill="#4f2928" fill-rule="evenodd"/>
      <path id="パス_15146" data-name="パス 15146" d="M28.042,117.086a.811.811,0,0,1,.041-.124h.144c.309-.186.784-.33.866-.6a1.025,1.025,0,0,0-.433-.907c-2.392-1.258-4.805-2.454-7.218-3.671-.474-.227-1.031-.495-1.444.082-.495.7.206,1.031.536,1.464a1.528,1.528,0,0,0,.433.371,27.5,27.5,0,0,0,3.238,2.145A27.717,27.717,0,0,0,28.042,117.086Z" transform="translate(9.914 105.936)" fill="#4f2928" fill-rule="evenodd"/>
      <path id="パス_15147" data-name="パス 15147" d="M10.94,147.691a5,5,0,0,0,.639.7c1.237.784,2.434,1.609,3.712,2.289a22.106,22.106,0,0,0,3.238,1.3,2.929,2.929,0,0,0,1.4.021.942.942,0,0,0,.866-1.011,1.459,1.459,0,0,0-.639-.99,25.483,25.483,0,0,0-7.837-2.537,6.548,6.548,0,0,0-1.361.206Z" transform="translate(0.473 144.111)" fill="#4f2928" fill-rule="evenodd"/>
      <path id="パス_15148" data-name="パス 15148" d="M18.162,115.8a1.563,1.563,0,0,1-.062.33c.495.351.949.742,1.464,1.072.495.309,1.072.454,1.526.8a11.205,11.205,0,0,0,4.537,1.856,2.384,2.384,0,0,0,2.887-1.072,9.177,9.177,0,0,0-1.072-.681,50.331,50.331,0,0,0-7.837-2.537c-.412-.124-.949.144-1.444.247Z" transform="translate(8.08 110.209)" fill="#4f2928" fill-rule="evenodd"/>
      <path id="パス_15149" data-name="パス 15149" d="M14.69,130.733c1.588,1.794,2.8,2.392,5.548,3.073a5.737,5.737,0,0,0,3.011-.082,1.44,1.44,0,0,0,1.217-1.217c-2.5-1.691-5.424-1.505-8.188-1.959a6.529,6.529,0,0,0-1.588.186Z" transform="translate(4.457 126.132)" fill="#4f2928" fill-rule="evenodd"/>
      <path id="パス_15150" data-name="パス 15150" d="M15.652,126.35c-.021.124-.062.268-.082.392a7.517,7.517,0,0,0,3.96,2.31c1.134.186,2.289.33,3.444.474a2.88,2.88,0,0,0,.846-.041c.619-.1,1.361-.206,1.382-.99.021-.742-.722-.784-1.237-1.011a1.432,1.432,0,0,0-.268-.1c-2.372-.433-4.743-.866-7.115-1.258a2.451,2.451,0,0,0-.907.227Z" transform="translate(5.392 121.441)" fill="#4f2928" fill-rule="evenodd"/>
      <path id="パス_15151" data-name="パス 15151" d="M26.578,122.044c.66-1.444.619-1.567-.577-2.062-1.423-.577-2.846-1.2-4.29-1.712-.907-.309-1.856-.474-2.8-.7a.954.954,0,0,0-1.2.681c2.557,2.207,5.61,3.135,8.868,3.795Z" transform="translate(7.666 112.321)" fill="#4f2928" fill-rule="evenodd"/>
      <path id="パス_15152" data-name="パス 15152" d="M29.382,113.19a4.274,4.274,0,0,0-.474-.66c-1.753-1.444-3.527-2.867-5.3-4.29a1.555,1.555,0,0,0-.268-.124c-.557-.268-1.114-.495-1.526.165-.371.577-.041,1.052.392,1.382.907.722,1.836,1.4,2.764,2.1a25.267,25.267,0,0,1,2,1.609,1.606,1.606,0,0,0,1.712.454c.268-.1.454-.412.722-.681Z" transform="translate(11.853 102.036)" fill="#4f2928" fill-rule="evenodd"/>
      <path id="パス_15153" data-name="パス 15153" d="M12.085,145.116c-.062.165-.124.33-.165.474a11.951,11.951,0,0,0,1.485,1.031c1.031.536,2.083,1.031,3.135,1.485.887.371,1.774.7,2.681,1.011.516.186,1.093.227,1.361-.412.289-.7-.206-1.072-.7-1.4a1.8,1.8,0,0,0-.371-.227c-1.959-.66-3.918-1.341-5.919-1.959a5.238,5.238,0,0,0-1.506-.021Z" transform="translate(1.514 141.551)" fill="#4f2928" fill-rule="evenodd"/>
      <path id="パス_15154" data-name="パス 15154" d="M66.8,122.506c.1-1.361-.516-2.124-2.413-2.887a2.792,2.792,0,0,0-3.465.99c1.052.351,1.114,1.959,2.537,1.9C64.57,122.464,65.684,122.506,66.8,122.506Z" transform="translate(53.57 114.272)" fill="#4f2928" fill-rule="evenodd"/>
      <path id="パス_15155" data-name="パス 15155" d="M43.261,107.07c-.082.722-.1,1.258-.186,1.774-.082.536-.247,1.031-.309,1.567-.144,1.072.206,1.382,1.3,1.093.371-.1.742-.186,1.114-.309a1.355,1.355,0,0,0,.495-2.207c-.7-.639-1.506-1.2-2.434-1.918Z" transform="translate(34.251 101.206)" fill="#4f2928" fill-rule="evenodd"/>
      <path id="パス_15156" data-name="パス 15156" d="M41.7,107.6c1.732.268,2.207,0,2.7-1.2.165-.392.371-.784.516-1.176a.737.737,0,0,0-.557-1.093c-1.547-.454-2.021-.268-2.434,1.279A12.882,12.882,0,0,0,41.7,107.6Z" transform="translate(33.152 97.855)" fill="#4f2928" fill-rule="evenodd"/>
      <path id="パス_15157" data-name="パス 15157" d="M44.639,104.63a11.813,11.813,0,0,0-.165,1.774c.041.392.165,1.011.722.887a1.52,1.52,0,0,0,.846-.866c.289-.7-.268-1.444-1.4-1.794Z" transform="translate(36.091 98.614)" fill="#4f2928" fill-rule="evenodd"/>
      <path id="パス_15158" data-name="パス 15158" d="M48.512,138.281c-.7.082-.949-.227-.887-.66a6.722,6.722,0,0,1,.639-2.64A39.138,39.138,0,0,0,51.193,129a76.8,76.8,0,0,0,4.228-12.374c1.093-3.815,2.062-7.672,2.846-11.549.639-3.135.887-6.331,1.341-9.487a47.286,47.286,0,0,0,.454-8.7A70.694,70.694,0,0,0,58.823,74.9c-.206-.949-.186-1.918-.33-2.887-.289-2.062-.722-4.1-.887-6.187a26.6,26.6,0,0,1,.247-4.042c.062-.722.186-1.444.268-2.165A6.142,6.142,0,0,1,59.69,56.1c1.856-1.98,3.568-4.1,5.919-5.548a1.331,1.331,0,0,0,.454-.351c.66-1.052,1.753-1.093,2.8-1.217a3.509,3.509,0,0,1,3.712,2.165,1.481,1.481,0,0,1-.062,1.072,8.117,8.117,0,0,1-1.258,1.918,19.716,19.716,0,0,0-3.135,5.053,8.492,8.492,0,0,0-.516,2.1c-.516,2.537.165,4.991.6,7.445.309,1.774.516,3.547.742,5.321a8.87,8.87,0,0,1-1.32,5.857A7.787,7.787,0,0,0,66.6,84.371a114.511,114.511,0,0,1-.474,12.477c-.206,2.516-.309,5.032-.681,7.507a44.258,44.258,0,0,1-1.506,6.5,51.6,51.6,0,0,1-2.269,5.672,36.972,36.972,0,0,1-1.9,3.424,117.949,117.949,0,0,1-7.239,11.735,30.825,30.825,0,0,1-2.825,3.094,3.212,3.212,0,0,0-.949,1.918c-.082.557-.206,1.114-.289,1.609Z" transform="translate(39.436 39.472)" fill="#4f2928" fill-rule="evenodd"/>
      <path id="パス_15159" data-name="パス 15159" d="M15.921,170.227c.351-2.537.7-5.073,1.072-7.61.454-3.114.846-6.228,1.382-9.342.454-2.66,1.093-5.3,1.65-7.961.412-1.9.846-3.774,1.258-5.672.041-.186.041-.392.082-.577.619-2.619.619-2.887,3.011-1.629.969.516,2.186.66,2.784,1.712a9.7,9.7,0,0,1,1.155,2.64,4.661,4.661,0,0,0,1.444,2.454c2.186,1.98,4.393,3.918,6.558,5.94a1.974,1.974,0,0,1,.516,1.258,3.405,3.405,0,0,1-.33,1.4,8.49,8.49,0,0,0,0,6.661c1.3,3.609-.124,6-2.392,8.373a4.285,4.285,0,0,1-1.959.887,36.527,36.527,0,0,1-3.671.866A13.623,13.623,0,0,0,22.83,172.5a6.584,6.584,0,0,1-4.682,1.629A2.032,2.032,0,0,1,16.086,172v-1.753H15.9Z" transform="translate(5.743 132.692)" fill="#4f2928" fill-rule="evenodd"/>
      <path id="パス_15160" data-name="パス 15160" d="M67.97,85.866a11.721,11.721,0,0,1,5.4-10.126,3.44,3.44,0,0,1,.949-.33,3.541,3.541,0,0,0,.969-.289c1.98-1.423,4.352-1.877,6.579-2.6,4.826-1.567,9.714-2.99,14.6-4.352a21.214,21.214,0,0,1,4.434-.557c1.258-.082,1.794.577,1.588,1.815a7.93,7.93,0,0,1-.516,1.815A49.457,49.457,0,0,1,99.607,75.9c-1.052,1.691-1.341,3.609-2.021,5.424a28.524,28.524,0,0,0-.887,3.217,5.18,5.18,0,0,1-1.856,2.867,1.932,1.932,0,0,1-2.413.206,3.592,3.592,0,0,0-3.135-.763c-.247.082-.557-.083-.846-.124a14.49,14.49,0,0,0-6.888.516A15.817,15.817,0,0,0,74.92,90.96c-.516.495-1.237.763-1.794,1.217-1.052.825-2.1.763-3.362-.495a4.157,4.157,0,0,1-1.093-1.856c-.351-1.506-.536-3.032-.681-3.919Z" transform="translate(61.06 59.282)" fill="#4f2928" fill-rule="evenodd"/>
      <path id="パス_15161" data-name="パス 15161" d="M53.236,107.071c-.1-2.31.124-4.62-.495-6.909a6.983,6.983,0,0,1-.268-1.134c-.082-.928-.846-2.062-.041-2.743,1.2-1.031,2.5-2.269,4.393-1.753a14.028,14.028,0,0,0,1.856.351A1.4,1.4,0,0,1,60,96.2a57.919,57.919,0,0,0,2.289,8.538,9.914,9.914,0,0,1-.866,8.414l-6.5-3.094c-.8,1.072.557,1.65.516,2.66a5.634,5.634,0,0,1-1.279.969c-1.217.495-1.382,1.485-1.444,2.557a6.793,6.793,0,0,0,.041,1.3,1.673,1.673,0,0,1-1.155,1.939c-.227.1-.454.165-.681.268-1.588.7-1.629.928-.99,2.516a14.209,14.209,0,0,1,.742,2.784c.144.742-.1,1.217-.969,1.237-.268,0-.681.1-.784.289-.433.866-1.341.866-2.042,1.217a30.659,30.659,0,0,0-3.382,1.959,2.773,2.773,0,0,1-3.774-.227,7.319,7.319,0,0,0-2.454-1.485,28.56,28.56,0,0,1-8.806-5.259,17.524,17.524,0,0,1-4.64-6.765c-.619-1.423-1.072-2.908-1.567-4.372a18.49,18.49,0,0,1-.536-2.1c-.165-.8-.268-1.609-.433-2.516a5.825,5.825,0,0,1,3.424-.206c2.227.516,4.413,1.155,6.661,1.526,2.145.351,4.331.454,6.5.66a1.492,1.492,0,0,0,.433-.021c.247-.1.619-.186.7-.392a.889.889,0,0,0-.247-.742,8.465,8.465,0,0,0-1.567-1.3,12.092,12.092,0,0,1-4.29-4.063c-.619-.928-1.258-1.836-1.836-2.784a4.573,4.573,0,0,1-.33-1.093,5.383,5.383,0,0,1,3.4.433c2.207.825,4.413,1.712,6.641,2.537a59.262,59.262,0,0,1,9.2,3.919c.99.557,1.959,1.176,2.949,1.753.124-.082.227-.165.351-.247Zm-29.719.949c.1.371.1.6.206.722,1.114,1.279,2.227,2.537,3.362,3.795.495.536,1.114.949,1.567,1.506,2.31,2.887,5.4,4.682,8.641,6.249,1.732.846,3.506,1.65,5.28,2.434,1.732.742,3.485,1.444,5.238,2.145a2.105,2.105,0,0,0,1.794.062,4.7,4.7,0,0,0-.681-2.351c-.907-1.567-.639-2.619.887-3.547.495-.309,1.052-.516,1.526-.846a1.475,1.475,0,0,0,.557-.907c.082-.949.041-1.918.082-2.887a3.882,3.882,0,0,0-4.413-4.166,11.294,11.294,0,0,1-1.444.083H36.51a5.518,5.518,0,0,1-1.011-.021c-3.568-.7-7.115-1.423-10.683-2.145a11.06,11.06,0,0,0-1.341-.124Zm28.151,1.815c.866-.969.887-1.237,0-1.815a43.2,43.2,0,0,0-8.579-4.537c-3.135-1.134-6.27-2.31-9.425-3.444a10.712,10.712,0,0,0-1.732-.309,14.655,14.655,0,0,0,4.331,5.073c1.4,1.031,2.929,1.9,4.331,2.929a6.422,6.422,0,0,0,5.094,1.093,20.5,20.5,0,0,1,2.764-.124,3.583,3.583,0,0,1,3.217,1.114Z" transform="translate(11.469 87.758)" fill="#4f2928" fill-rule="evenodd"/>
      <path id="パス_15162" data-name="パス 15162" d="M113.848,29.16c.763.206.8.784.763,1.32a26.836,26.836,0,0,1-.289,2.887,16.731,16.731,0,0,1-4.042,8.7c-2.042,2.269-3.857,4.743-6.352,6.579-1.526,1.134-3.094,2.165-4.6,3.3a40.692,40.692,0,0,0-6.228,6.27c-1.877,2.165-3.176,4.743-4.743,7.115-.062.082-.082.186-.144.247-.33.371-.495,1.114-1.155.887-.763-.247-.247-.907-.247-1.382,0-.722,0-1.444.021-2.186a77.873,77.873,0,0,0-.247-10.291,12.964,12.964,0,0,1,1.279-6.62,3.968,3.968,0,0,0,.371-.928,8.909,8.909,0,0,1,3.754-5.527A19.147,19.147,0,0,1,102.4,35.491a5.762,5.762,0,0,0,2.1-.536c2-.969,4-1.959,5.919-3.073a22.324,22.324,0,0,0,2.8-2.248c.227-.186.454-.33.639-.474Z" transform="translate(80.786 18.437)" fill="#4f2928" fill-rule="evenodd"/>
      <path id="パス_15163" data-name="パス 15163" d="M88.023,52.86a10.532,10.532,0,0,1,1.547,1.072c1.794,1.836,3.547,3.712,5.3,5.589a51.29,51.29,0,0,1,6.868,10.394,7.126,7.126,0,0,1,.784,2.31,14.4,14.4,0,0,1-1.588,9.693,4.844,4.844,0,0,1-1.9,1.464,6.222,6.222,0,0,1-1.959.495,2.208,2.208,0,0,1-2.145-.99,10.278,10.278,0,0,0-8.146-3.836A10.97,10.97,0,0,0,80.6,80.888c-.206.124-.351.371-.557.454a.776.776,0,0,1-.619-.062.714.714,0,0,1-.1-.639,15.172,15.172,0,0,1,1.258-1.588A28.667,28.667,0,0,0,86.95,67.915c.536-1.959.742-4,1.093-6a7.634,7.634,0,0,1,.186-.99,13.243,13.243,0,0,0,0-5.9c-.1-.6-.1-1.217-.186-2.165Z" transform="translate(73.077 43.615)" fill="#4f2928" fill-rule="evenodd"/>
      <path id="パス_15164" data-name="パス 15164" d="M76.65,53.163c.289-1.609.536-3.238.846-4.847a2.816,2.816,0,0,1,.557-1.176c1.691-2.062,3.362-4.125,5.156-6.1,2.516-2.8,5.073-5.589,7.713-8.291,1.341-1.382,2.887-2.557,4.352-3.836a4.358,4.358,0,0,0,1.011-1.031c.907-1.65,2.372-2.083,4.125-2.124a18.357,18.357,0,0,1,6.435.907,6.547,6.547,0,0,1,.825.289c1.671.742,1.691.949,1.32,2.722a5.08,5.08,0,0,1-2.7,3.4c-.577.33-1.072.8-1.629,1.176-1.237.846-2.454,1.732-3.754,2.454-2.5,1.4-5.032,2.7-7.59,4a6.739,6.739,0,0,0-2.929,2.7c-.866,1.567-1.9,3.052-2.887,4.537a2.9,2.9,0,0,0-.577,2.042,4.759,4.759,0,0,1-1.031,3.4,12.876,12.876,0,0,1-4.661,4.083,2.915,2.915,0,0,1-4.352-2.392c-.062-.619,0-1.258,0-1.9a.846.846,0,0,1-.227-.021Z" transform="translate(70.281 14.81)" fill="#4f2928" fill-rule="evenodd"/>
      <path id="パス_15165" data-name="パス 15165" d="M119.684,45.231a11.249,11.249,0,0,1,.124,1.712,15.2,15.2,0,0,0,.577,5.445,10.048,10.048,0,0,1,.33,2.722c.041,1.258.021,2.516-.021,3.774a7.008,7.008,0,0,1-1.341,3.919,12.646,12.646,0,0,1-7.363,5.3,9.082,9.082,0,0,0-4.6,2.33,6.944,6.944,0,0,0-1.2,1.609,7.6,7.6,0,0,1-2.908,2.97c-1.341.907-4.248.392-5.073-1.32a7.9,7.9,0,0,1-.866-3.382c-.082-2.825-.7-5.568-3.382-7.342a11.3,11.3,0,0,1-2-2.083c-1.031-1.217-2.062-2.434-3.052-3.671A13.676,13.676,0,0,1,87.9,55.79c-.495-.763-.371-1.176.371-1.65a14.6,14.6,0,0,1,5.486-1.815c2.846-.516,5.754-.742,8.6-1.32,2.887-.577,5.754-1.32,8.6-2.145,2.083-.6,4.1-1.423,6.146-2.227a25.31,25.31,0,0,0,2.6-1.423ZM90.4,57.4a.855.855,0,0,0,.124.454C91.945,59.626,93.1,61.626,95,62.988a6.39,6.39,0,0,1,2.269,2.949c.33.866.516,1.753.8,2.64a16.37,16.37,0,0,0,.907,2.434,1.476,1.476,0,0,0,1.031.66,2.4,2.4,0,0,0,2.392-1.939,11.3,11.3,0,0,0,.083-1.444c.1-2.392.124-2.475,2.887-3.135a1.524,1.524,0,0,1,.433,0,19.173,19.173,0,0,0,2.66-.619,34,34,0,0,0,3.32-1.485,5.675,5.675,0,0,0,2.825-2.6,18.017,18.017,0,0,0,1.547-7.466,7.147,7.147,0,0,0-.371-1.547,24.839,24.839,0,0,0-2.929,1.279,22.505,22.505,0,0,1-8.084,2.66c-3.052.516-6.125.99-9.178,1.423-1.65.247-3.32.412-5.156.619Z" transform="translate(81.921 35.488)" fill="#4f2928" fill-rule="evenodd"/>
      <path id="パス_15166" data-name="パス 15166" d="M61.667,65.03c-1.3-1.609-2.537-3.155-3.795-4.682a33.743,33.743,0,0,1-4.743-7.961A71.192,71.192,0,0,1,49.251,42.22a29.388,29.388,0,0,1-.928-7.466c0-.516-.062-1.052-.1-1.526.1-.124.165-.268.227-.247,1.856.062,3.754-.165,5.383,1.093,1.237.928,2.475,1.856,3.712,2.764a3.41,3.41,0,0,0,.742.454c2.351.846,3.96,2.743,5.94,4.1a18.467,18.467,0,0,1,1.526,1.258c.66,3.217-.206,6.1-1.031,8.992a70.056,70.056,0,0,0-1.609,9.446,9.574,9.574,0,0,1-1.506,3.96Z" transform="translate(40.078 22.494)" fill="#4f2928" fill-rule="evenodd"/>
      <path id="パス_15167" data-name="パス 15167" d="M57.858,103.889c-.7-.041-.825-.392-.681-.825.722-2.248.619-4.7,1.774-6.847.454-.846.268-2.042.7-2.908,1.011-1.939,1.155-4.063,1.609-6.125Q61.972,84,62.437,80.75a22.255,22.255,0,0,0,.144-4.063c-.124-2.227-.412-4.434-.536-6.661a45.542,45.542,0,0,0-.8-6.476,8.008,8.008,0,0,1,.8-4.228c.309-.866.8-1.65,1.134-2.516,1.011-2.64,3.176-4.187,5.362-5.713.454-.33,1.072-.495,1.464-.021a1.814,1.814,0,0,1,.247,1.32,16.5,16.5,0,0,1-.8,2.784,15.082,15.082,0,0,0-.7,7.156,30.267,30.267,0,0,1,.165,3.052,32.112,32.112,0,0,0,1.258,9.178c.557,2,.928,4.063,1.341,6.1a4.733,4.733,0,0,1-2.062,5.321c-3.857,2.557-6.022,6.476-8.27,10.332a36.743,36.743,0,0,0-3.032,7.053,5.887,5.887,0,0,1-.247.557Z" transform="translate(49.538 41.402)" fill="#4f2928" fill-rule="evenodd"/>
      <path id="パス_15168" data-name="パス 15168" d="M103.974,57.81c2.186,1.134,3.073,2.929,4.022,4.661a29.332,29.332,0,0,1,2.537,7.548c.186.846.619,1.629.784,2.475a66.155,66.155,0,0,1,1.444,8.435,19.4,19.4,0,0,1-3.609,12.622,18.039,18.039,0,0,1-2.289,2.413c-2.557,2.5-5.672,4.228-8.7,6.043-1.691,1.011-3.589,1.732-5.3,2.7a46.784,46.784,0,0,0-8.249,5.94c-1.176,1.072-2.31,2.207-3.465,3.3-.165.165-.33.433-.536.474a3.716,3.716,0,0,0-1.939,1.464,1.023,1.023,0,0,1-.949.206,2.188,2.188,0,0,1,.33-.7c1.485-1.464,2.99-2.887,4.475-4.352a15.108,15.108,0,0,0,1.588-1.671,48.959,48.959,0,0,1,7.919-8.084c1.877-1.526,3.9-2.867,5.837-4.31.742-.557,1.4-1.2,2.165-1.712a2.306,2.306,0,0,0,1.072-2.1,20.624,20.624,0,0,0-.144-3.2c-.371-2.145.7-3.609,2.1-4.97,1.279-1.237,2.64-2.392,3.857-3.692,1.485-1.567,1.361-3.568,1.072-5.507-.392-2.64-.99-5.238-1.279-7.878a24.708,24.708,0,0,0-1.341-6.373c-.351-.949-.8-1.856-1.217-2.8a7.781,7.781,0,0,1-.186-.928Z" transform="translate(71.418 48.874)" fill="#4f2928" fill-rule="evenodd"/>
      <path id="パス_15169" data-name="パス 15169" d="M27.611,118.26c1.629.454,2.99.784,4.31,1.237a12.443,12.443,0,0,1,2.475,1.2,1.493,1.493,0,0,1,.619,2.351c-1.341,2.145-.99,4.352-.433,6.6A6.089,6.089,0,0,1,34,134.676a3.85,3.85,0,0,0-.557,1.588c-.206,1.237-.289,2.5-.454,3.754A2.248,2.248,0,0,1,31.3,142a5.413,5.413,0,0,0-3.527,3.176,9.1,9.1,0,0,1-1.856,2.413c-1.341,1.3-3.135,1.4-4.847,1.567-.619.062-.969-.392-1.011-1.011a8.266,8.266,0,0,1,.021-1.011c.268-1.918.495-3.836.866-5.733.351-1.9.846-3.774,1.3-5.672.846-3.589,1.691-7.156,2.537-10.745a1.445,1.445,0,0,1,.062-.289c.907-2.124,1.815-4.248,2.764-6.435Z" transform="translate(10.159 113.094)" fill="#4f2928" fill-rule="evenodd"/>
      <path id="パス_15170" data-name="パス 15170" d="M79.1,50.637a1.577,1.577,0,0,1-1.774.454,17.678,17.678,0,0,1-2.557-.577,4.132,4.132,0,0,0-3.341.33,6.593,6.593,0,0,0-2.7,2.083c-.33.474-.619.969-.949,1.506-.577.144-.763-.351-.949-.784-.454-1.114-.969-2.227-1.32-3.382a4.935,4.935,0,0,1-.144-1.98c.227-1.629.7-3.238.846-4.867a19.158,19.158,0,0,0-.165-4.063c-.144-1.237-.454-2.454-.681-3.692a1.462,1.462,0,0,1,.041-.846,6,6,0,0,0,.454-3.114,5,5,0,0,1,2.867-4.578,8.032,8.032,0,0,1,4.372-.742,4.019,4.019,0,0,1,3.63,2.64,4.249,4.249,0,0,1,.309,1.691c-.041,1.98-.165,3.96-.247,5.96a31.5,31.5,0,0,0,.846,9.631c.33,1.217.8,2.372,1.2,3.568.083.268.186.536.247.763Z" transform="translate(58.245 15.439)" fill="#4f2928" fill-rule="evenodd"/>
      <path id="パス_15171" data-name="パス 15171" d="M39.8,150.326c-1.134-.371-2.289-.7-3.4-1.134-.907-.351-1.753-.8-2.64-1.2a3.034,3.034,0,0,0-2.248.082c-1.609.474-3.279.784-4.95,1.134a1.733,1.733,0,0,1-1.959-1.176,4.264,4.264,0,0,1,.041-4.187,17.877,17.877,0,0,1,2.6-3.671,26.964,26.964,0,0,0,5.486-8.683c.454-1.114.99-2.207,1.547-3.279.66-1.237,1.753-1.3,2.413-.1.474.887.763,1.856,1.176,2.784a43.425,43.425,0,0,0,1.918,4.228,63.965,63.965,0,0,1,3.527,6.517,25.659,25.659,0,0,0,2.186,3.589c1.072,1.671.887,2.372-.866,3.362-1.485.825-2.929,1.774-4.826,1.753Z" transform="translate(14.426 122.647)" fill="#4f2928" fill-rule="evenodd"/>
      <path id="パス_15172" data-name="パス 15172" d="M70.9,69.818a4.75,4.75,0,0,0,4.434,2.145,11.379,11.379,0,0,0,4.908-1.176,23.786,23.786,0,0,1,3.382-1.279c.412-.144.495-.062.969.887a1.443,1.443,0,0,1-.412.309c-2.454.619-4.207,2.351-6.125,3.795-2.227,1.691-3.3,4.145-4.331,6.6-.742,1.774-1.4,3.609-1.98,5.465-.454,1.423-.742,2.908-1.052,4.352-.309,1.361-.557,2.743-.887,4.1-.186.784-.784,1.011-1.423.454a10.372,10.372,0,0,1-1.671-2,5.782,5.782,0,0,0-2.454-2,2.872,2.872,0,0,0-2.537-.124,18.436,18.436,0,0,1-2.062.66c-.763.247-1.217,0-1.279-.825a5.706,5.706,0,0,1,.495-2.97c.99-2.1,1.856-4.248,2.825-6.373a20.653,20.653,0,0,1,1.258-2.289c1.65-2.557,3.3-5.115,4.991-7.672.99-1.506,1.093-1.547,2.949-2.083Z" transform="translate(50.849 61.243)" fill="#4f2928" fill-rule="evenodd"/>
      <path id="パス_15173" data-name="パス 15173" d="M109.161,52.786c-.392-.536-.66-.763-.742-1.052a3.643,3.643,0,0,0-2.5-2.227,6.437,6.437,0,0,1-3.011-2.413,2.75,2.75,0,0,1-.083-3.341,6.883,6.883,0,0,1,2.413-2.454c2.454-1.65,4.7-3.547,6.991-5.4a19.678,19.678,0,0,1,7.074-3.609c1.279-.351,2.124.351,2.083,1.712-.1,2.557-.227,5.135-.227,7.693,0,1.547.227,3.094.33,4.64a7.2,7.2,0,0,1,0,1.155,1.339,1.339,0,0,1-1.32,1.3c-1.485.144-2.97.392-4.475.577-2.516.309-4.867.928-6.517,3.424Z" transform="translate(97.538 21.663)" fill="#4f2928" fill-rule="evenodd"/>
      <path id="パス_15174" data-name="パス 15174" d="M45.929,162.6a4.5,4.5,0,0,1-.536-.742,8.38,8.38,0,0,0-2.764-3.114,2.649,2.649,0,0,0-3.094-.392,1.266,1.266,0,0,1-1.712-.309c-1.072-1.155-2.578-1.815-3.424-3.279-.392-.66-1.382-.99-2.124-1.444-.495-.309-1.011-.577-1.485-.907a1.459,1.459,0,0,1-.639-1.65,7.546,7.546,0,0,0-.124-3.589,9.386,9.386,0,0,1-.186-1.3c-.041-.887.186-1.134,1.052-1.217a37.537,37.537,0,0,0,4.331-.371c3.857-.825,7.651-1.815,10.394-4.97a14.447,14.447,0,0,1,1.134-1.114,1.911,1.911,0,0,1,.454-.206,2.682,2.682,0,0,1,.722,2.351c-.371,2.5-.8,4.97-1.114,7.466-.309,2.392-.536,4.805-.784,7.218a7.589,7.589,0,0,0,.124,1.155c.082,2.1.144,4.207.227,6.311l-.433.124Z" transform="translate(20.55 134.065)" fill="#4f2928" fill-rule="evenodd"/>
      <path id="パス_15175" data-name="パス 15175" d="M59.245,31.3a10.48,10.48,0,0,1,6.166,5.507c.289.66.639,1.3.928,1.959a15.351,15.351,0,0,1,.639,1.609,21.707,21.707,0,0,1,.474,9.631,48.4,48.4,0,0,0-.227,5.486,2.213,2.213,0,0,0,.124.722c.33.763.8,1.567-.1,2.207-.639.454-1.072,1.217-2.062,1.237a2.751,2.751,0,0,0-1.671.742c-1.753,1.588-3.424,3.259-5.156,4.888a3.745,3.745,0,0,1-1.052.742c-.309.124-.866.227-1.031.041a1.5,1.5,0,0,1-.392-1.134c.062-.722.351-1.4.474-2.124.495-2.867.887-5.733,1.444-8.579a38.783,38.783,0,0,1,1.341-5.053A26.975,26.975,0,0,0,60.379,41.3a35.482,35.482,0,0,0-.722-5.878c-.206-1.32-.516-2.619-.763-3.939.124-.062.247-.124.351-.186Z" transform="translate(48.213 20.711)" fill="#4f2928" fill-rule="evenodd"/>
      <path id="パス_15176" data-name="パス 15176" d="M67.343,82.5c.412.412.866.681,1.052,1.072,1.011,2.083,2.042,4.166,2.887,6.331,1.836,4.682,1.361,4.248-1.217,7.713a33.893,33.893,0,0,0-3.65,6.393c-.619,1.341-1.341,2.64-2.042,4.042a3.2,3.2,0,0,1-1.9-2.372,10.486,10.486,0,0,0-2.537-5.156,13.036,13.036,0,0,0-4.661-3.65,3.4,3.4,0,0,1-.763-.412c-.825-.516-.887-1.072-.062-1.526a27.371,27.371,0,0,0,5.61-4.578c2.269-2.227,4.352-4.682,6.517-7.012.186-.206.392-.433.784-.846Z" transform="translate(46.075 75.104)" fill="#4f2928" fill-rule="evenodd"/>
      <path id="パス_15177" data-name="パス 15177" d="M94.956,57.039c-.6.8-1.155,1.629-1.794,2.392-.6.722-1.526,1.217-1.691,2.33,1.011.619,1.774-.062,2.557-.433.763-.371,1.464-.866,2.269-1.176a8.506,8.506,0,0,1-2.764,2.083c-1.9.846-3.774,1.712-5.63,2.619a1.805,1.805,0,0,0-.763.969c-.247.784-.351,1.609-.557,2.392-.433,1.774-.8,3.589-1.361,5.342a6.2,6.2,0,0,1-3.733,3.836c-2.454,1.031-4.888,2.1-7.383,3.011-1.712.619-3.362,1.526-5.28,1.526a2.7,2.7,0,0,1-2.5-1.155,5.7,5.7,0,0,1,2.021-3.259,2.933,2.933,0,0,0,.8-.99,22.111,22.111,0,0,1,7.342-7.9c1.815-1.279,3.671-2.5,5.589-3.65a15.04,15.04,0,0,1,3.176-1.4,3.655,3.655,0,0,0,2.124-1.588c.763-1.217,1.712-2.31,2.764-3.692-.206,1.794-2.021,2.413-2.021,4.022.846.371,1.4-.144,1.918-.619A21.837,21.837,0,0,0,93.8,57.658a8.838,8.838,0,0,1,.825-.928c.124.1.247.206.392.309Z" transform="translate(59.318 47.727)" fill="#4f2928" fill-rule="evenodd"/>
      <path id="パス_15178" data-name="パス 15178" d="M114.174,47.457a3.576,3.576,0,0,1-.681.928,7.776,7.776,0,0,1-1.547.784c-4.352,1.856-8.724,3.733-13.1,5.548a45.8,45.8,0,0,1-4.64,1.629c-1.114.33-1.836-.351-1.609-1.485a10.746,10.746,0,0,1,1.052-2.99c1.588-2.929,3.3-5.8,4.929-8.724a6.376,6.376,0,0,1,4.682-3.32,12.973,12.973,0,0,0,1.526-.454c2.846-.969,4.7-.082,6.043,2,1.011,1.588,1.609,3.424,2.949,4.805a3.476,3.476,0,0,1,.392,1.258Z" transform="translate(87.183 28.869)" fill="#4f2928" fill-rule="evenodd"/>
      <path id="パス_15179" data-name="パス 15179" d="M88.759,59.012c-2.248,1.237-4.248,2.434-6.311,3.465a54.752,54.752,0,0,0-8.786,5.94c-.454.351-.907.742-1.382,1.052a12.606,12.606,0,0,0-4.269,4.867c-.7,1.361-1.2,2.846-1.794,4.269a.845.845,0,0,1-.557.536c.186-.66.33-1.32.557-1.939a8.09,8.09,0,0,0,.33-4.022,19.441,19.441,0,0,1,2.413-11.9,8.069,8.069,0,0,1,3.279-3.424c.557-.309,1.052-.7,1.588-1.031a10.8,10.8,0,0,1,6.29-1.3c1.506.041,2.99.351,4.475.392a3.4,3.4,0,0,1,2.97,1.485c.351.516.722,1.011,1.176,1.629Z" transform="translate(58.606 46.435)" fill="#4f2928" fill-rule="evenodd"/>
      <path id="パス_15180" data-name="パス 15180" d="M37.341,112.18a20.776,20.776,0,0,1,5.4,5.507,6.869,6.869,0,0,0,3.9,2.846c1.547.433,3.032,1.052,4.6,1.4a20.177,20.177,0,0,0,4.022.433c1.3,0,2.6-.227,3.919-.351s1.361-.124,1.9,1.052a21.146,21.146,0,0,1,1.155,3.135c.371,1.341.124,1.9-1.258,2.31a34.608,34.608,0,0,1-4.1.887c-1.423.247-2.887.351-4.31.557a3.863,3.863,0,0,1-4.248-2.062,6.855,6.855,0,0,0-2.681-2.578c-1.4-.763-2.722-1.671-4.1-2.5a8.137,8.137,0,0,0-5.2-.969,3.07,3.07,0,0,1-.866.062,1.343,1.343,0,0,1-1.258-1.753,13.986,13.986,0,0,1,.681-1.753c.742-1.9,1.464-3.795,2.207-5.692a3.765,3.765,0,0,1,.309-.516Z" transform="translate(25.136 106.635)" fill="#4f2928" fill-rule="evenodd"/>
      <path id="パス_15181" data-name="パス 15181" d="M121.2,28.092l-2.99-.186a14.716,14.716,0,0,0-6.558,1.588c-2.743,1.2-5.568,2.269-8.084,4.352a9.4,9.4,0,0,1-.846-1.506,11.377,11.377,0,0,0-2.1-3.444c-1.464-1.794-3.382-2.1-5.486-1.939-.433.041-.866.186-1.279.186-.887,0-1.217-.33-1.567-1.237-.289-.763.1-1.176.619-1.609A13.05,13.05,0,0,1,100.4,21.43a59.276,59.276,0,0,1,8.559,0,10.652,10.652,0,0,1,3.857,1.155,51.272,51.272,0,0,1,7.672,4.393c.33.227.619.495.949.742-.062.124-.124.227-.186.351Z" transform="translate(86.793 10.06)" fill="#4f2928" fill-rule="evenodd"/>
      <path id="パス_15182" data-name="パス 15182" d="M121.884,28.963c-.124.454-.206.846-.33,1.2a27.665,27.665,0,0,1-1.052,2.846,5.072,5.072,0,0,1-2.784,2.186,10.637,10.637,0,0,1-1.959.557,47.561,47.561,0,0,0-8.6,3.094c-1.856.8-2.33.6-3.444-1.093a7.95,7.95,0,0,1-.8-6.682c.247-1.031.392-2.124,1.361-2.8a3.288,3.288,0,0,1,1.134-.577,33.8,33.8,0,0,1,7.775-.887c1.691.041,3.382-.268,5.073-.392a3.25,3.25,0,0,1,3.155,1.444,6.1,6.1,0,0,1,.495,1.134Z" transform="translate(97.787 15.499)" fill="#4f2928" fill-rule="evenodd"/>
      <path id="パス_15183" data-name="パス 15183" d="M104.69,52.688c.206-1.671.433-3.589.722-5.486a1.292,1.292,0,0,1,.6-.887c1.98-1.011,3.96-2.021,6.022-2.867A16.96,16.96,0,0,1,115.7,42.6c1.134-.165,1.567.1,2.021,1.2a9.03,9.03,0,0,1,.6,4.558,5.679,5.679,0,0,1-2.042,3.857c-2.1,1.774-4.166,3.609-6.249,5.383a4.21,4.21,0,0,1-3.444.784,1.622,1.622,0,0,1-1.506-1.526c-.124-1.3-.227-2.6-.371-4.166Z" transform="translate(100.07 32.671)" fill="#4f2928" fill-rule="evenodd"/>
      <path id="パス_15184" data-name="パス 15184" d="M67.047,123.482a5.983,5.983,0,0,1-1.732,4.578,4.361,4.361,0,0,0-.412.6c-.969,1.526-2.145,1.609-3.32.124a17.411,17.411,0,0,0-5.094-4.5A15.8,15.8,0,0,0,51.022,122a1.992,1.992,0,0,1-1.279-2.846c.763-1.4,1.567-2.784,2.33-4.187a1.333,1.333,0,0,1,1.279-.8,6.663,6.663,0,0,1,3.754.887c.351.247.784.412,1.114.681a25.558,25.558,0,0,0,6.022,3.2,6.952,6.952,0,0,1,1.155.619c1.485.969,1.671,1.423,1.629,3.939Z" transform="translate(41.463 108.738)" fill="#4f2928" fill-rule="evenodd"/>
      <path id="パス_15185" data-name="パス 15185" d="M73.228,94.137a13.851,13.851,0,0,1-1.98-.681c-1.093-.6-1.2-1.072-.907-2.269.907-3.857,3.341-6.62,6.393-8.909a22.168,22.168,0,0,1,4.125-2.392,4.887,4.887,0,0,1,2.392-.186c.846.082,1.691.433,2.537.6a4.3,4.3,0,0,1,2.97,2.145c.371.639.309.887-.351,1.279-.99.6-2.062,1.093-2.97,1.774-1.753,1.3-3.4,2.7-5.115,4.063-1.629,1.279-3.238,2.6-4.95,3.795a8.871,8.871,0,0,1-2.145.8Z" transform="translate(63.433 72.067)" fill="#4f2928" fill-rule="evenodd"/>
      <path id="パス_15186" data-name="パス 15186" d="M30.607,149.01a6.941,6.941,0,0,1,1.2.268c2,.949,4.022,1.9,6,2.887,1.506.763,2.949,1.712,4.5,2.351,2.1.866,2.64,2.66,3.155,4.682a3.543,3.543,0,0,1-.887.371,9.49,9.49,0,0,0-5.3,2.145,1.68,1.68,0,0,1-2.165-.041c-1.815-1.3-3.9-1.32-5.96-1.485a9.316,9.316,0,0,1-2.269-.371,1.392,1.392,0,0,1-.907-1.877c1.4-2.557,1.753-5.4,2.392-8.188.041-.186.124-.351.247-.742Z" transform="translate(18.424 145.762)" fill="#4f2928" fill-rule="evenodd"/>
      <path id="パス_15187" data-name="パス 15187" d="M27.916,111.2a13.064,13.064,0,0,0,2.413,1.712,9.754,9.754,0,0,0,2.7.454,12.374,12.374,0,0,1,4.228.866c1.176.6,1.258.866.577,1.98l-.928,1.485a5.891,5.891,0,0,0-.99,3.568,4.348,4.348,0,0,1-.206,1.712,3.138,3.138,0,0,1-3.424,2.5,14.294,14.294,0,0,1-6.909-2.372,1.769,1.769,0,0,1-.763-2.454c.6-1.835,1.093-3.692,1.629-5.548.392-1.382.577-2.846,1.629-3.9Z" transform="translate(14.784 105.594)" fill="#4f2928" fill-rule="evenodd"/>
      <path id="パス_15188" data-name="パス 15188" d="M72.548,134.071a2.783,2.783,0,0,0-.062.412c.371,2.165-.454,3.114-2.66,2.99a5.829,5.829,0,0,1-3.362-1.217,14.623,14.623,0,0,0-5.713-2.784c-2.248-.516-4.475-1.361-6.847-1.011a1.275,1.275,0,0,1-.557-.1c-.351-.124-.866-.227-.7-.742a.936.936,0,0,1,.784-.454c3.877-.062,7.734-.165,11.3,1.918a14.094,14.094,0,0,0,4.022,1.072,4.21,4.21,0,0,0,1.217-.124c.082-.144.144-.268.227-.412-.495-.268-1.011-.516-1.691-.866,1.691-1.237,2.825-2.454,4.7-2.372,1.4.062,2.825,0,4.228.021a2.66,2.66,0,0,0,2.516-1.423,5,5,0,0,0,.7-3.733,12.308,12.308,0,0,0-1.918-4.785c-.495-.7-1.093-1.341-1.65-2.021,0,0,.227-.227.392-.186a5.309,5.309,0,0,1,3.424,1.959c2.186,2.99,2.31,6.393,2.145,9.879a2.388,2.388,0,0,1-.412,1.217,13.261,13.261,0,0,1-3.506,3.444,2.331,2.331,0,0,1-2.475.186,7.3,7.3,0,0,0-3.465-.969,5.018,5.018,0,0,0-.639.1Z" transform="translate(44.747 113.081)" fill="#4f2928" fill-rule="evenodd"/>
      <path id="パス_15189" data-name="パス 15189" d="M70.432,80.75a5.464,5.464,0,0,1,1.237,3.382c.124,2.6.165,5.218.268,7.837.021.536.165,1.052.227,1.588.371,3.506-.062,4.5-3.032,6.166-.639.351-1.258.722-1.918,1.114-1.3-.351-1.65-.722-1.815-1.959a36.444,36.444,0,0,1-.351-8.992,16.409,16.409,0,0,0,0-3.485,5.312,5.312,0,0,1,4.372-5.362c.289-.062.557-.144,1.011-.247Z" transform="translate(57.794 73.245)" fill="#4f2928" fill-rule="evenodd"/>
      <path id="パス_15190" data-name="パス 15190" d="M44.851,142.4c-.536-.268-.887-.351-1.052-.557a6.856,6.856,0,0,1-1.114-1.691,12.121,12.121,0,0,0-3.2-4.269,3.994,3.994,0,0,0-2.908-1.114c-3.011-.082-3.176-.722-3.774-3.3-.392-1.712.577-2.867,1.031-4.228a19.387,19.387,0,0,1,1.4-2.867,6.8,6.8,0,0,1,1.093-1.114c.33.392.557.681.784.969.722.907,1.382,1.856,2.186,2.7a17.866,17.866,0,0,0,3.155,2.97,4.471,4.471,0,0,1,2.248,4.95,19.239,19.239,0,0,0,.268,3.032c.021,1.423-.082,2.846-.124,4.537Z" transform="translate(23.607 118.406)" fill="#4f2928" fill-rule="evenodd"/>
      <path id="パス_15191" data-name="パス 15191" d="M76.979,114.717a17.618,17.618,0,0,0-1.114,2.372,8.807,8.807,0,0,1-2.784,3.98c-1.114,1.011-2.289,1.959-3.444,2.908a6.187,6.187,0,0,1-4.187,1.382,31.35,31.35,0,0,1-4.187-.124,7.956,7.956,0,0,1-3.114-1.114,15.418,15.418,0,0,1-6-6.166c-.474-1.011-1.052-1.959-1.609-2.929a14.236,14.236,0,0,1-1.877-8.5c.062-.619,0-1.258.041-1.9a5.392,5.392,0,0,0-.763-3.176,8,8,0,0,1-1.258-4.269,3.962,3.962,0,0,1,1.4-3.2c.227.227.557.412.639.681.619,2.145,1.279,4.269,1.732,6.435a7.375,7.375,0,0,1-.227,4.166,3.846,3.846,0,0,0,.041,3.094c.969,2.269,1.836,4.578,2.825,6.847a6.372,6.372,0,0,0,1.279,1.918c1.382,1.423,2.867,2.743,4.269,4.166a5.665,5.665,0,0,0,3.362,1.567,19.441,19.441,0,0,0,4.64.165,9.7,9.7,0,0,0,8-5.3,9.393,9.393,0,0,1,2.392-3.011Z" transform="translate(38.44 87.31)" fill="#4f2928" fill-rule="evenodd"/>
      <path id="パス_15192" data-name="パス 15192" d="M59.32,32.925a1.557,1.557,0,0,1,1.691-1.2,3.411,3.411,0,0,0,3.155-1.444,7,7,0,0,1,.907-.846c.7.227,1.011.619.825,1.237a8.136,8.136,0,0,0,.227,4.166c1.011,4.125,2.124,8.249,3.279,12.333a15.986,15.986,0,0,0,1.382,3.032c.495.99,1.093,1.918,1.732,3.032a5.7,5.7,0,0,1-.969.784,8.677,8.677,0,0,0-2.99,2.475,13.013,13.013,0,0,1-1.836,1.856,1.234,1.234,0,0,1-1.011.144c-.165-.062-.268-.557-.268-.866.083-3.815.33-7.651.247-11.467a27.391,27.391,0,0,0-1.072-6.7,10.411,10.411,0,0,0-3.279-5.218,18.267,18.267,0,0,0-1.98-1.3Z" transform="translate(51.871 18.735)" fill="#4f2928" fill-rule="evenodd"/>
      <path id="パス_15193" data-name="パス 15193" d="M59.909,128.837a7.28,7.28,0,0,1-1.547.536c-1.732.206-3.465.351-5.2.474a30.384,30.384,0,0,0-6.517,1.279,4.079,4.079,0,0,1-1.547.268,1.411,1.411,0,0,1-1.052-.6,1.4,1.4,0,0,1,.309-1.114,26.424,26.424,0,0,0,3.857-5.424,1.293,1.293,0,0,1,.6-.6,24.586,24.586,0,0,1,7.672-2.475c.866-.1,1.732-.144,2.6-.268.619-.082.928.165.949.784a5.367,5.367,0,0,1-.041,1.155,16.139,16.139,0,0,0-.062,5.981Z" transform="translate(35.608 115.901)" fill="#4f2928" fill-rule="evenodd"/>
      <path id="パス_15194" data-name="パス 15194" d="M71.645,96.65c.742.454.536,1.093.6,1.629.392,3.485-.474,6.826-1.2,10.209a39.284,39.284,0,0,1-1.4,5.775,10.979,10.979,0,0,1-7.383,6.682c-.7.227-1.526.495-2.021-.474,1.155-1.836,2.289-3.609,3.444-5.4,1.588-2.5,2.269-5.342,3.259-8.084.8-2.227,1.526-4.5,2.392-6.7a10.485,10.485,0,0,1,2.31-3.609Z" transform="translate(52.848 90.136)" fill="#4f2928" fill-rule="evenodd"/>
      <path id="パス_15195" data-name="パス 15195" d="M51.056,111.784c-.577-.619-1.155-1.279-1.774-1.877-1.072-1.052-2.145-2.062-3.238-3.094a2.49,2.49,0,0,0-2-.639c-1.382.1-1.444.021-1.547-1.423-.144-2.165-.227-4.352-.33-6.517q-.031-.866-.124-1.732a1.921,1.921,0,0,1,.99-1.877,5.016,5.016,0,0,1,3.547-.206,2.032,2.032,0,0,1,1.3,1.629c.557,1.9,1.134,3.795,1.547,5.733.268,1.258.227,2.6.454,3.877.227,1.237.6,2.434.907,3.63.206.784.433,1.547.66,2.33-.124.062-.268.1-.392.165Z" transform="translate(33.51 87.521)" fill="#4f2928" fill-rule="evenodd"/>
      <path id="パス_15196" data-name="パス 15196" d="M50.961,131.939a4.561,4.561,0,0,1-3.155-.619c-.6-.289-1.237-.516-1.856-.763a5.517,5.517,0,0,1-1.072-.412c-1.629-1.217-3.444-2.186-4.743-3.836a13.571,13.571,0,0,0-1.609-1.444c-1.011-.907-2.021-1.794-3.011-2.722a3.457,3.457,0,0,1-.454-.846c.392-.062.66-.083.907-.124a12.5,12.5,0,0,0,1.526-.309c1.237-.412,2.454-.928,3.692-1.3a1.424,1.424,0,0,1,1.155.33c1.794,1.753,3.547,3.568,5.321,5.362a13.405,13.405,0,0,0,1.464,1.4,4.1,4.1,0,0,1,1.836,3.877c-.041.433,0,.866,0,1.423Z" transform="translate(26.098 114.449)" fill="#4f2928" fill-rule="evenodd"/>
      <path id="パス_15197" data-name="パス 15197" d="M87.026,38.933a7,7,0,0,1-1.712-2.949c-.227-.577-.33-1.217-.6-1.774a11.962,11.962,0,0,1-1.134-5.61,5.35,5.35,0,0,0-.083-1.155c-.33-1.753-.784-3.506-1.011-5.28A10.652,10.652,0,0,1,83.5,16.948c.289-.8,1.011-.907,1.65-.33a3.986,3.986,0,0,1,.866,1.3,23.417,23.417,0,0,1,1.9,12.766c-.144,1.093.062,2.227.021,3.341-.041,1.3-.124,2.6-.268,3.877-.041.33-.371.619-.639,1.011Z" transform="translate(76.425 4.725)" fill="#4f2928" fill-rule="evenodd"/>
      <path id="パス_15198" data-name="パス 15198" d="M97.235,17.445c-.247,2.7-.351,5.424-.825,8.084a28.7,28.7,0,0,1-1.836,5.177c-.1.247-.454.577-.681.577-.268,0-.577-.289-.784-.536a1.209,1.209,0,0,1-.206-.681c-.392-3.465-.866-6.93-1.114-10.394a41.9,41.9,0,0,1,.165-6.228c.1-1.279.763-1.712,2.083-1.629,2.351.144,2.351.144,2.825,2.434a13.588,13.588,0,0,1,.206,1.567c.041.536,0,1.072,0,1.609h.144Z" transform="translate(86.303 0)" fill="#4f2928" fill-rule="evenodd"/>
      <path id="パス_15199" data-name="パス 15199" d="M79.049,21.181a7.238,7.238,0,0,1,.557.846c.619,1.3,1.258,2.6,1.856,3.939a10.071,10.071,0,0,1,.763,3.671c.124,2.454.33,4.908.536,7.363a11.714,11.714,0,0,1-.536,5.836c-.165.371-.144,1.052-.7.928a1.654,1.654,0,0,1-.866-1.011c-.371-1.093-.6-2.248-.907-3.362-.392-1.444-.784-2.887-1.237-4.331a31.1,31.1,0,0,1-.887-6.166c-.124-1.2-.165-2.413-.289-3.63a4.417,4.417,0,0,1,1.712-4.1Z" transform="translate(70.976 9.938)" fill="#4f2928" fill-rule="evenodd"/>
      <path id="パス_15200" data-name="パス 15200" d="M84.68,40.809c-2.021.165-1.959.144-2.207-1.485C81.916,35.55,81.195,31.8,80.7,28c-.33-2.537-.433-5.115-.577-7.672a1.4,1.4,0,0,1,.969-1.609c.742-.144,1.258.474,1.567,1.072a18.052,18.052,0,0,1,.619,1.774A29.645,29.645,0,0,1,84.969,33.4c-.041,1.547.062,3.094,0,4.661-.021.907-.206,1.794-.309,2.722Z" transform="translate(73.966 7.324)" fill="#4f2928" fill-rule="evenodd"/>
      <path id="パス_15201" data-name="パス 15201" d="M75.829,55.24a10.557,10.557,0,0,1-1.237-1.32,23.478,23.478,0,0,0-4.352-5.012c-1.877-1.712-1.32-4.847.247-5.713a3.406,3.406,0,0,1,1.464-.474,5.414,5.414,0,0,1,4.393,1.774c.846.907,1.939,1.588,2.475,2.784a1.563,1.563,0,0,1-.144,1.732,8.8,8.8,0,0,0-1.856,4.166,7.64,7.64,0,0,1-1.011,2.042Z" transform="translate(62.213 32.842)" fill="#4f2928" fill-rule="evenodd"/>
      <path id="パス_15202" data-name="パス 15202" d="M88.48,14.561c.516-.351.907-.619,1.3-.887,1.052-.7,1.361-.7,2.186.309a5.67,5.67,0,0,1,.99,1.877,13.986,13.986,0,0,1,.412,4.723,19.108,19.108,0,0,0,.289,4.6c.289,1.526-.124,2.99-.165,4.475-.021.825-.165,1.629-.206,2.454-.021.516-.062,1.011-.7,1.093-.6.082-.8-.371-1.011-.846-.742-1.836-1.072-3.815-1.691-5.672-1.052-3.114-.639-6.331-1.155-9.466-.144-.846-.165-1.732-.247-2.66Z" transform="translate(82.849 1.462)" fill="#4f2928" fill-rule="evenodd"/>
      <path id="パス_15203" data-name="パス 15203" d="M72.625,25.85A3.885,3.885,0,0,1,74.5,28.469c.681,2.825,1.423,5.63,1.9,8.5.536,3.238.846,6.517,1.217,9.8.186,1.671-.062,2.021-1.877,2.557a25.979,25.979,0,0,1-1.2-2.537A38.19,38.19,0,0,1,72.6,36.244c-.124-2.227-.289-4.455-.412-6.682-.041-.825-.021-1.65.021-2.475a5.061,5.061,0,0,1,.392-1.217Z" transform="translate(65.521 14.921)" fill="#4f2928" fill-rule="evenodd"/>
      <path id="パス_15204" data-name="パス 15204" d="M88.544,14.06c.227,1.031.454,1.712.536,2.413.351,3.506.6,7.033,1.031,10.539.227,1.856.742,3.692,1.134,5.527a3.3,3.3,0,0,1-1.485,3.485c-.742.433-1.3.268-1.361-.557-.186-3.032-1.382-5.836-1.877-8.786a66.114,66.114,0,0,1-.7-8.084,10.268,10.268,0,0,1,.516-2.681c.247-1.031,1.32-.99,2.227-1.836Z" transform="translate(80.022 2.395)" fill="#4f2928" fill-rule="evenodd"/>
      <path id="パス_15205" data-name="パス 15205" d="M66.319,49.189c-.144-.309-.289-.474-.268-.557.907-2.6,2.227-4.785,5.053-5.754a21.084,21.084,0,0,1,5.527-1.134A11.5,11.5,0,0,0,83.767,39a18.685,18.685,0,0,1,2.784-1.691c0,.433.124.8,0,.949C85.6,39.352,84.612,40.4,83.6,41.435a14.541,14.541,0,0,0-1.2,1.052c-1.382,1.753-3.3,2.413-5.342,2.949-2.887.784-5.733,1.712-8.579,2.64a14.071,14.071,0,0,0-2.145,1.093Z" transform="translate(59.019 27.095)" fill="#4f2928" fill-rule="evenodd"/>
      <path id="パス_15206" data-name="パス 15206" d="M71.189,49.567c0,.907-.33,1.361-1.279,1.341a3.776,3.776,0,0,0-2.165,1.052c-1.341.928-2.66,1.9-4.022,2.825a3.672,3.672,0,0,1-.907.433c-1.588.577-1.836.351-1.609-1.32a26.661,26.661,0,0,1,.928-5.548,2.8,2.8,0,0,1,.681-1.217,33.851,33.851,0,0,1,3.63-2.33c1.279-.7,1.629-.577,2.578.557a7.851,7.851,0,0,1,2.124,4.166Z" transform="translate(53.799 34.595)" fill="#4f2928" fill-rule="evenodd"/>
      <path id="パス_15207" data-name="パス 15207" d="M87.8,88.092c-1.629,1.361-3.238,2.722-4.867,4.042-1.32,1.072-2.66,2.083-4,3.114-2.887,2.186-5.816,4.352-8.7,6.558a17.655,17.655,0,0,0-5.053,6.476c-.722,1.526-1.382,3.094-2.083,4.64a4.4,4.4,0,0,1-.557.949,28.294,28.294,0,0,1,3.217-7.837,55.693,55.693,0,0,1,6.084-9.013A19.169,19.169,0,0,1,77.41,92.65c1.959-1.052,3.9-2.145,5.857-3.176,1.155-.6,2.372-1.114,3.568-1.65a3.116,3.116,0,0,1,.784-.124c.062.124.124.268.186.392Z" transform="translate(55.291 80.628)" fill="#4f2928" fill-rule="evenodd"/>
      <path id="パス_15208" data-name="パス 15208" d="M74.731,24.371c1.609.144,1.98,1.217,2.31,2.062a45.475,45.475,0,0,1,2.083,6.331c.639,2.578,1.031,5.218,1.506,7.837a13.9,13.9,0,0,1-.268,5.053,6.689,6.689,0,0,1-.371.928,1.955,1.955,0,0,1-1.629-1.547A65.991,65.991,0,0,1,76.4,38.209a45.847,45.847,0,0,1-.454-5.362c-.062-.722-.206-1.423-.309-2.145-.289-2.042-.6-4.083-.928-6.352Z" transform="translate(68.22 13.327)" fill="#4f2928" fill-rule="evenodd"/>
      <path id="パス_15209" data-name="パス 15209" d="M39.883,114.207c.289-.062.6-.144.887-.206.082-.124.186-.247.268-.351-.412-.144-.846-.309-1.258-.454.1-.124.227-.268.33-.392a6.25,6.25,0,0,1,1.423.763,2.483,2.483,0,0,0,3.094.351c3.011-1.588,6.1-1.217,9.219-.557a15.046,15.046,0,0,1,2.083.619c1.258.474,1.464,1.4.577,2.392a6.833,6.833,0,0,1-9.2,1.258c-1.258-.8-2.372-1.959-3.96-2a10.441,10.441,0,0,1-2.908-.784,3.384,3.384,0,0,1-.6-.33,1.217,1.217,0,0,1,.041-.289Z" transform="translate(31.112 107.289)" fill="#4f2928" fill-rule="evenodd"/>
      <path id="パス_15210" data-name="パス 15210" d="M64.613,63.951c-.949-.371-.742-.928-.681-1.361A37.43,37.43,0,0,1,67.376,50.5c.1-.206.227-.433.351-.639.227-.371.351-.825.928-.784a1.187,1.187,0,0,1,1.093,1.011,12.553,12.553,0,0,1,.351,2.289c.124,2.66.247,5.321.289,7.981.021,1.526-.516,1.959-2.042,1.939a9.107,9.107,0,0,1-1.3,0A2.034,2.034,0,0,0,64.9,63.456c-.082.165-.206.33-.289.474Z" transform="translate(56.704 39.598)" fill="#4f2928" fill-rule="evenodd"/>
      <path id="パス_15211" data-name="パス 15211" d="M47.541,63.931c.825.495,1.629,1.052,2.5,1.485,1.341.66,1.877.412,2.825-.742,1.712-2.083,3.506-4.1,5.465-6.393a6.243,6.243,0,0,1,.082,1.279,24.388,24.388,0,0,0,.474,8.641,14.78,14.78,0,0,1,.144,2.186c-1.279.165-1.877-.66-2.537-1.32-.351-.33-.6-.763-.928-1.114a2.971,2.971,0,0,0-2.145-.99c-2.392-.165-4.785-.495-7.177-.784a1.466,1.466,0,0,1-.722-.454c1.114-.082,2.145.763,3.279.289.206-.6-.082-.928-.495-1.258-.289-.247-.516-.557-.784-.825h-.041Z" transform="translate(876.21 -150.627)" fill="#4f2928" fill-rule="evenodd"/>
      <path id="パス_15212" data-name="パス 15212" d="M67.756,29.352A14.479,14.479,0,0,1,63.59,32.3a16.074,16.074,0,0,1-3.155,1.423,5.251,5.251,0,0,1-2.269.144,1.2,1.2,0,0,1-.969-1.836c1.217-2.557,3.011-4.5,5.94-5.032a3.8,3.8,0,0,1,4.62,2.372Z" transform="translate(49.436 16.038)" fill="#4f2928" fill-rule="evenodd"/>
      <path id="パス_15213" data-name="パス 15213" d="M54.585,106.814c-1.155-1.258-2.227-2.372-2.372-4a31.053,31.053,0,0,1,0-3.919,2.109,2.109,0,0,1,.309-1.114c.969-1.4,1.939-2.784,2.99-4.1a1.453,1.453,0,0,1,1.114-.474c.557.083.66.66.6,1.176-.309,2.516-.1,5.094-1.382,7.507-.722,1.361-.8,3.052-1.258,4.929Z" transform="translate(44.252 86.469)" fill="#4f2928" fill-rule="evenodd"/>
      <path id="パス_15214" data-name="パス 15214" d="M75.29,43.994c1.444-1.217,2.743-1.382,4.207-.495a2.46,2.46,0,0,1,1.2,1.9c.144,1.485.247,2.99.309,4.475a1.913,1.913,0,0,1-.309.928,4.587,4.587,0,0,1-2.929,1.959c-.763.206-1.134-.124-1.217-.969-.186-1.774-.351-3.547-.6-5.3a21.084,21.084,0,0,0-.639-2.5Z" transform="translate(68.837 33.074)" fill="#4f2928" fill-rule="evenodd"/>
      <path id="パス_15215" data-name="パス 15215" d="M80.932,46.74c1.114.866,2.248,1.609,3.217,2.516a3,3,0,0,1,.846,2.8,6.1,6.1,0,0,1-1.567,3.073,1.442,1.442,0,0,1-.557-.082c-1.279-.949-2.537-1.9-3.795-2.867A.875.875,0,0,1,78.7,51.05c.536-1.134,1.031-2.289,1.567-3.4a6.423,6.423,0,0,1,.681-.887Z" transform="translate(72.372 37.114)" fill="#4f2928" fill-rule="evenodd"/>
      <path id="パス_15216" data-name="パス 15216" d="M67.83,47.9c0-1.341.412-1.691,1.382-1.093a26.75,26.75,0,0,1,3.774,2.867,2.214,2.214,0,0,1,.474,2.165c-.351,1.629-1.547,2.64-2.64,3.692-.124.124-.6-.021-.825-.186-.165-.1-.206-.433-.268-.66-.6-2.021-1.2-4.063-1.774-6.084a4.065,4.065,0,0,1-.1-.7Z" transform="translate(60.911 36.883)" fill="#4f2928" fill-rule="evenodd"/>
      <path id="パス_15217" data-name="パス 15217" d="M13.95,152.731c1.3.351,2.557.681,3.795,1.011.371.1.722.247,1.093.371a2.207,2.207,0,0,1,1.671,2.207c0,.763-.289,1.134-1.011,1.031-2.062-.33-4.125-.6-6.146-1.093a6.825,6.825,0,0,1-2.372-1.341c-.742-.557-.619-1.176.268-1.485.846-.309,1.753-.474,2.681-.722Z" transform="translate(0 149.693)" fill="#4f2928" fill-rule="evenodd"/>
      <path id="パス_15218" data-name="パス 15218" d="M54.622,114.7a10.549,10.549,0,0,1-1.114-.289,35.093,35.093,0,0,0-4.64-1.567,8.54,8.54,0,0,0-3.279.309c-1.031.206-2.021.66-3.052.907-.454.124-.969.536-1.526-.062a8.043,8.043,0,0,1,.577-.6c.536-.412,1.155-.722,1.65-1.176,1.877-1.836,4.228-1.98,6.6-1.918a5.6,5.6,0,0,1,4.785,4.393Z" transform="translate(32.419 104.632)" fill="#4f2928" fill-rule="evenodd"/>
      <path id="パス_15219" data-name="パス 15219" d="M18.7,114a1.294,1.294,0,0,1,1.671-.639,32.526,32.526,0,0,1,4.042,1.155,43.624,43.624,0,0,1,4.31,2.351.9.9,0,0,1,.433,1.237c-.227.351-.742.784-1.093.742-2.392-.227-4.723-.495-6.7-2.227a34.906,34.906,0,0,1-2.64-2.6Z" transform="translate(8.717 107.789)" fill="#4f2928" fill-rule="evenodd"/>
      <path id="パス_15220" data-name="パス 15220" d="M15.88,124.576a1.5,1.5,0,0,1,1.609-.681c2.454.144,4.95,0,7.321.887,1.279.474,1.361.536,1.2,1.567-.247,1.588-.722,1.9-1.794,1.835A14.341,14.341,0,0,1,16,124.906c-.062-.041-.062-.165-.1-.309Z" transform="translate(5.721 119.07)" fill="#4f2928" fill-rule="evenodd"/>
      <path id="パス_15221" data-name="パス 15221" d="M57.564,91.91c.268.639-.165.763-.433,1.011a15.807,15.807,0,0,0-5.445,8.641,12.428,12.428,0,0,0,0,3.155A7.03,7.03,0,0,0,52,106.285c.289,1.011.6,2,.928,3.094-.289.227-.6-.021-.8-.351a11.081,11.081,0,0,1-2.248-6c-.062-3.547,1.506-6.187,3.96-8.5a8.852,8.852,0,0,1,3.754-2.619Z" transform="translate(41.83 85.101)" fill="#4f2928" fill-rule="evenodd"/>
      <path id="パス_15222" data-name="パス 15222" d="M23.3,137.528c-.247,1.588-.268,1.464-1.567,1.877-2.743.846-4.785-.557-6.847-1.959a9.51,9.51,0,0,1-1.134-.907c-.474-.454-.392-1.052.206-1.258a2.969,2.969,0,0,1,1.279-.082c1.382.206,2.764.557,4.145.722a7.56,7.56,0,0,1,3.9,1.609Z" transform="translate(3.131 131.052)" fill="#4f2928" fill-rule="evenodd"/>
      <path id="パス_15223" data-name="パス 15223" d="M80.781,53.945c-.206,1.052-.474,1.279-1.464,1.134-1.3-.186-2.578-.33-3.877-.536a5.615,5.615,0,0,1-1.526-.433,1.216,1.216,0,0,1-.351-1.959,6.872,6.872,0,0,1,4.187-2.1,1.434,1.434,0,0,1,1.526.6c.557,1.052.99,2.186,1.464,3.279Z" transform="translate(66.625 40.612)" fill="#4f2928" fill-rule="evenodd"/>
      <path id="パス_15224" data-name="パス 15224" d="M11.65,142.954a3.743,3.743,0,0,1,2.949-.309c1.939.454,3.836,1.011,5.733,1.588,1.32.412,1.567.907,1.279,1.98a.988.988,0,0,1-1.052.784,9.118,9.118,0,0,1-7.177-2.5c-.516-.474-1.031-.949-1.712-1.567Z" transform="translate(1.228 138.825)" fill="#4f2928" fill-rule="evenodd"/>
      <path id="パス_15225" data-name="パス 15225" d="M26.577,123.971c-.082.557-.124.846-.186,1.114-.309,1.114-.433,1.217-1.609,1.258a5.733,5.733,0,0,1-3.073-.619c-1.093-.619-2.31-1.011-3.382-1.629a13.081,13.081,0,0,1-1.918-1.588c.165-.7.516-.907,1.011-.8,1.093.206,2.186.412,3.259.66,1.217.268,2.434.577,3.65.907.722.206,1.444.454,2.248.722Z" transform="translate(6.284 116.725)" fill="#4f2928" fill-rule="evenodd"/>
      <path id="パス_15226" data-name="パス 15226" d="M21.327,144.5a8.588,8.588,0,0,1-1.629,0c-1.691-.412-3.382-.825-5.032-1.361a5.268,5.268,0,0,1-1.9-1.258,1.506,1.506,0,0,1-.206-1.3c.1-.268.681-.474,1.072-.474a8.272,8.272,0,0,1,1.856.289,38.92,38.92,0,0,1,4.62,1.2c2.1.784,1.918,1.176,1.2,2.908Z" transform="translate(2.131 136.307)" fill="#4f2928" fill-rule="evenodd"/>
      <path id="パス_15227" data-name="パス 15227" d="M79.971,45.2c.66-.722,1.32-1.567,2.062-2.289a1.324,1.324,0,0,1,1.959-.082,5.933,5.933,0,0,1,2.351,3.547,2.01,2.01,0,0,1-.784,2.165,1.719,1.719,0,0,1-2.145-.206c-.412-.33-.825-.681-1.217-1.031-.7-.639-1.382-1.3-2.248-2.1Z" transform="translate(73.787 32.545)" fill="#4f2928" fill-rule="evenodd"/>
      <path id="パス_15228" data-name="パス 15228" d="M51.64,110.249c.227-.289.371-.454.495-.619.165.041.268.021.33.083,1.279,1.176,2.578,2.33,3.857,3.506a94.508,94.508,0,0,0,9.8,7.919c.681.474,1.361.928,2,1.444.186.144.268.412.206.846-.866-.454-1.753-.866-2.6-1.361a33.4,33.4,0,0,1-7.012-5.115c-2.269-2.289-4.682-4.455-7.074-6.723Z" transform="translate(43.712 103.926)" fill="#4f2928" fill-rule="evenodd"/>
      <path id="パス_15229" data-name="パス 15229" d="M26.821,121.906c-.351,2.021-.557,2.165-2.289,1.939-2.145-.268-4.042-1.279-6.063-1.939a2.885,2.885,0,0,1-1.134-.866,1.006,1.006,0,0,1-.247-.866,1.019,1.019,0,0,1,.8-.433,17.227,17.227,0,0,1,6.125,1.031c.949.351,1.856.763,2.825,1.155Z" transform="translate(6.969 114.666)" fill="#4f2928" fill-rule="evenodd"/>
      <path id="パス_15230" data-name="パス 15230" d="M49.427,63.49a10.544,10.544,0,0,1,1.732.887c1.794,1.382,3.547,2.8,5.3,4.228a2.21,2.21,0,0,1-.082,2.949c-.227.186-.474.309-.887.6a38.608,38.608,0,0,1-5.775-6.909,6.38,6.38,0,0,1-.536-1.526,3.084,3.084,0,0,1,.268-.227Z" transform="translate(41.098 54.908)" fill="#4f2928" fill-rule="evenodd"/>
      <path id="パス_15231" data-name="パス 15231" d="M10.92,150.94a1.731,1.731,0,0,1,1.732-.784,17.949,17.949,0,0,1,7.445,2.516c-.041,1.815-.268,1.959-1.939,1.856a9.963,9.963,0,0,1-6.847-3.032c-.124-.144-.227-.309-.392-.536Z" transform="translate(0.452 146.966)" fill="#4f2928" fill-rule="evenodd"/>
      <path id="パス_15232" data-name="パス 15232" d="M29.7,115.7c-.7-.268-1.114-.412-1.506-.577-1.65-.66-3.279-1.423-4.97-1.98a5.8,5.8,0,0,1-2.867-2.557c-.433-.6-.041-1.176.681-1.134a2.01,2.01,0,0,1,.825.247c2.145.866,4.145,2.1,6.414,2.7.66.186,1.176,1.114,1.588,1.794.186.309-.082.866-.165,1.506Z" transform="translate(10.281 103.733)" fill="#4f2928" fill-rule="evenodd"/>
      <path id="パス_15233" data-name="パス 15233" d="M22.191,139.627c0,1.279-.371,1.939-1.382,1.918-2.97-.041-5.733-.722-7.94-2.929A2.453,2.453,0,0,1,12.58,138c1.444-.742,7.425.289,9.611,1.609Z" transform="translate(2.216 133.799)" fill="#4f2928" fill-rule="evenodd"/>
      <path id="パス_15234" data-name="パス 15234" d="M43.732,109.916c-1.567,0-2.949-.062-4.352-.041-.66,0-1.114-.1-1.217-.887-.124-.907-.412-1.794-.536-2.7a1.679,1.679,0,0,1,2.351-1.732,3.059,3.059,0,0,1,1.877,1.671,10.787,10.787,0,0,0,1.382,2.042c.351.516.784,1.011.516,1.609Z" transform="translate(28.81 98.381)" fill="#4f2928" fill-rule="evenodd"/>
      <path id="パス_15235" data-name="パス 15235" d="M14.06,133.914c.536-.351.866-.722,1.2-.742a16.224,16.224,0,0,1,8.559,1.753,3.546,3.546,0,0,0,.433.247c-.309,1.382-1.3,1.382-2.207,1.423-.619.041-1.258-.041-1.877-.041-2.31,0-4.063-1.3-6.1-2.66Z" transform="translate(3.788 128.932)" fill="#4f2928" fill-rule="evenodd"/>
      <path id="パス_15236" data-name="パス 15236" d="M15.4,129.077a2.006,2.006,0,0,1,1.794-.907,15.646,15.646,0,0,1,6.373,1.052c.557.247,1.093.412.969,1.217-.124.722-.6.907-1.237.949-1.815.124-3.65.412-5.4-.433a6.346,6.346,0,0,1-2.5-1.877Z" transform="translate(5.211 123.622)" fill="#4f2928" fill-rule="evenodd"/>
      <path id="パス_15237" data-name="パス 15237" d="M37.841,109.046c2.372-.681,3.96.639,5.589,1.753a1.214,1.214,0,0,1-.165,2.062,15.132,15.132,0,0,1-2.33,1.114,18.528,18.528,0,0,1-1.856.516c-.186-.928-.351-1.835-.557-2.743-.206-.887-.454-1.774-.7-2.681Z" transform="translate(29.03 103.107)" fill="#4f2928" fill-rule="evenodd"/>
      <path id="パス_15238" data-name="パス 15238" d="M28.042,117.082a33.31,33.31,0,0,1-3.836-1.237,25.141,25.141,0,0,1-3.238-2.145,1.528,1.528,0,0,1-.433-.371c-.33-.433-1.031-.763-.536-1.464.412-.557.969-.309,1.444-.082,2.413,1.2,4.847,2.413,7.218,3.671a1.025,1.025,0,0,1,.433.907c-.082.268-.557.412-.866.6-.041.021-.1,0-.144,0A.293.293,0,0,1,28.042,117.082Z" transform="translate(9.914 105.94)" fill="#4f2928" fill-rule="evenodd"/>
      <path id="パス_15239" data-name="パス 15239" d="M10.951,147.68a6.548,6.548,0,0,1,1.361-.206,25.665,25.665,0,0,1,7.837,2.537,1.436,1.436,0,0,1,.639.99.928.928,0,0,1-.866,1.011,2.93,2.93,0,0,1-1.4-.021,23.059,23.059,0,0,1-3.238-1.3c-1.279-.681-2.475-1.506-3.712-2.289a6.818,6.818,0,0,1-.639-.7Z" transform="translate(0.463 144.122)" fill="#4f2928" fill-rule="evenodd"/>
      <path id="パス_15240" data-name="パス 15240" d="M18.162,115.813c.474-.083,1.011-.371,1.444-.247a48.95,48.95,0,0,1,7.837,2.537c.371.186.681.433,1.072.681a2.4,2.4,0,0,1-2.887,1.072A11.205,11.205,0,0,1,21.09,118c-.454-.351-1.052-.495-1.526-.8a17.7,17.7,0,0,1-1.464-1.072,1.563,1.563,0,0,1,.062-.33Z" transform="translate(8.08 110.199)" fill="#4f2928" fill-rule="evenodd"/>
      <path id="パス_15241" data-name="パス 15241" d="M14.69,130.733a7.479,7.479,0,0,1,1.588-.186c2.764.454,5.713.268,8.188,1.959a1.44,1.44,0,0,1-1.217,1.217,5.731,5.731,0,0,1-3.011.082c-2.743-.681-3.96-1.258-5.548-3.073Z" transform="translate(4.457 126.133)" fill="#4f2928" fill-rule="evenodd"/>
      <path id="パス_15242" data-name="パス 15242" d="M15.663,126.35a2.663,2.663,0,0,1,.907-.227c2.372.392,4.743.825,7.115,1.258a.608.608,0,0,1,.268.1c.516.227,1.258.289,1.237,1.011-.021.8-.763.887-1.382.99a3.878,3.878,0,0,1-.846.041c-1.155-.144-2.289-.289-3.444-.474a7.6,7.6,0,0,1-3.96-2.31c.021-.124.062-.268.082-.392Z" transform="translate(5.381 121.441)" fill="#4f2928" fill-rule="evenodd"/>
      <path id="パス_15243" data-name="パス 15243" d="M26.578,122.043c-3.259-.66-6.311-1.567-8.868-3.795a.962.962,0,0,1,1.2-.681,26.545,26.545,0,0,1,2.8.7c1.444.516,2.867,1.134,4.29,1.712C27.2,120.476,27.218,120.6,26.578,122.043Z" transform="translate(7.666 112.322)" fill="#4f2928" fill-rule="evenodd"/>
      <path id="パス_15244" data-name="パス 15244" d="M29.388,113.173c-.268.268-.454.577-.722.681a1.534,1.534,0,0,1-1.712-.454,25.263,25.263,0,0,0-2-1.609c-.907-.7-1.856-1.382-2.764-2.1-.433-.351-.742-.8-.392-1.382.433-.681.99-.433,1.526-.165a1.555,1.555,0,0,1,.268.124c1.774,1.423,3.547,2.846,5.3,4.29a4.274,4.274,0,0,1,.474.66Z" transform="translate(11.847 102.053)" fill="#4f2928" fill-rule="evenodd"/>
      <path id="パス_15245" data-name="パス 15245" d="M12.085,145.105a5.228,5.228,0,0,1,1.506.021c1.98.6,3.939,1.3,5.919,1.959a1.382,1.382,0,0,1,.371.227c.516.33.99.7.7,1.4-.268.639-.846.6-1.361.412-.907-.309-1.815-.639-2.681-1.011-1.072-.454-2.124-.949-3.135-1.485A11.955,11.955,0,0,1,11.92,145.6c.062-.165.124-.33.165-.474Z" transform="translate(1.514 141.561)" fill="#4f2928" fill-rule="evenodd"/>
      <path id="パス_15246" data-name="パス 15246" d="M66.8,122.506c-1.114,0-2.227-.041-3.341,0-1.423.062-1.485-1.526-2.537-1.9a2.779,2.779,0,0,1,3.465-.99C66.282,120.381,66.9,121.124,66.8,122.506Z" transform="translate(53.57 114.272)" fill="#4f2928" fill-rule="evenodd"/>
      <path id="パス_15247" data-name="パス 15247" d="M43.254,107.07c.928.722,1.732,1.279,2.434,1.918a1.355,1.355,0,0,1-.495,2.207,11.214,11.214,0,0,1-1.114.309c-1.093.268-1.464,0-1.3-1.093.082-.536.227-1.031.309-1.567.082-.516.1-1.052.186-1.774Z" transform="translate(34.259 101.206)" fill="#4f2928" fill-rule="evenodd"/>
      <path id="パス_15248" data-name="パス 15248" d="M41.7,107.6a12.882,12.882,0,0,1,.227-2.186c.412-1.547.887-1.753,2.434-1.279a.737.737,0,0,1,.557,1.093c-.144.412-.371.784-.516,1.176C43.927,107.621,43.432,107.869,41.7,107.6Z" transform="translate(33.152 97.85)" fill="#4f2928" fill-rule="evenodd"/>
      <path id="パス_15249" data-name="パス 15249" d="M44.639,104.63c1.134.371,1.691,1.114,1.4,1.794a1.52,1.52,0,0,1-.846.866c-.557.124-.7-.495-.722-.887a9.609,9.609,0,0,1,.165-1.774Z" transform="translate(36.09 98.614)" fill="#4f2928" fill-rule="evenodd"/>
      <path id="パス_15250" data-name="パス 15250" d="M47.019,61.318c-.33-.1-.66-.227-.969-.33.041-.082.082-.186.124-.268l.8.619Z" transform="translate(37.773 51.965)" fill="#4f2928" fill-rule="evenodd"/>
      <path id="パス_15251" data-name="パス 15251" d="M22.37,101.01a11.06,11.06,0,0,1,1.341.124c3.568.7,7.115,1.423,10.683,2.145a5.517,5.517,0,0,0,1.011.021h9.611c.474,0,.969-.041,1.444-.083a3.881,3.881,0,0,1,4.413,4.166c-.041.969,0,1.918-.082,2.887a1.422,1.422,0,0,1-.557.907,13.707,13.707,0,0,1-1.526.846c-1.526.928-1.794,2-.887,3.547a5,5,0,0,1,.681,2.351,2.105,2.105,0,0,1-1.794-.062c-1.753-.7-3.506-1.4-5.238-2.145-1.774-.763-3.547-1.588-5.28-2.434a24.041,24.041,0,0,1-8.641-6.249c-.454-.557-1.072-.969-1.567-1.506-1.134-1.237-2.248-2.516-3.362-3.795-.1-.124-.1-.351-.206-.722Z" transform="translate(12.616 94.768)" fill="#4f2928" fill-rule="evenodd"/>
      <path id="パス_15252" data-name="パス 15252" d="M46.187,107.085a3.583,3.583,0,0,0-3.217-1.114,20.507,20.507,0,0,0-2.764.124A6.422,6.422,0,0,1,35.112,105c-1.4-1.031-2.929-1.918-4.331-2.929A14.469,14.469,0,0,1,26.45,97a10.71,10.71,0,0,1,1.732.309q4.733,1.7,9.425,3.444a43.2,43.2,0,0,1,8.579,4.537c.887.557.866.846,0,1.815Z" transform="translate(16.951 90.508)" fill="#4f2928" fill-rule="evenodd"/>
      <path id="パス_15253" data-name="パス 15253" d="M88.981,54.211c1.836-.227,3.506-.392,5.156-.619,3.073-.454,6.125-.928,9.178-1.423a22.112,22.112,0,0,0,8.084-2.66,24.842,24.842,0,0,1,2.929-1.279,7.147,7.147,0,0,1,.371,1.547,17.566,17.566,0,0,1-1.547,7.466,5.675,5.675,0,0,1-2.825,2.6,34,34,0,0,1-3.32,1.485,22.672,22.672,0,0,1-2.66.619,3.037,3.037,0,0,1-.433,0c-2.764.66-2.784.722-2.887,3.135a11.294,11.294,0,0,1-.083,1.444,2.4,2.4,0,0,1-2.392,1.939,1.476,1.476,0,0,1-1.031-.66,16.373,16.373,0,0,1-.907-2.434c-.289-.866-.495-1.774-.8-2.64a6.16,6.16,0,0,0-2.269-2.949c-1.9-1.361-3.032-3.362-4.475-5.135a1,1,0,0,1-.124-.454Z" transform="translate(83.338 38.696)" fill="#4f2928" fill-rule="evenodd"/>
    </g>
  </g>
</svg>
