<svg xmlns="http://www.w3.org/2000/svg" xmlns:xlink="http://www.w3.org/1999/xlink" width="280" height="99" viewBox="0 0 280 99">
  <defs>
    <clipPath id="clip-path">
      <rect id="長方形_1987" data-name="長方形 1987" width="280" height="48.671" transform="translate(-20864 5558)" fill="#fff" stroke="#707070" stroke-width="1"/>
    </clipPath>
  </defs>
  <g id="グループ_2224" data-name="グループ 2224" transform="translate(20864 -5823)">
    <g id="マスクグループ_142" data-name="マスクグループ 142" transform="translate(0 265)" clip-path="url(#clip-path)">
      <g id="img-back-learnwithfun" transform="translate(-20864 5558)">
        <path id="パス_17813" data-name="パス 17813" d="M360.285,59.483l-2.554.151q-.334-3.894-3.283-3.891h-5.813v6.963h2.494q1.464,0,1.735-3.53h2.524l-.458,10.1h-2.464q-.334-3.65-1.554-3.65h-2.283v5.716q0,1.4,3.409,1.4v2.494H339.75V72.741c1.807,0,2.7-.464,2.7-1.4V56.531q0-1.4-2.7-1.4V52.64h20.535v6.843Z" transform="translate(-142.705 -26.491)" fill="#fff"/>
        <path id="パス_17814" data-name="パス 17814" d="M408.667,55.134q-2.738,0-2.735,1.4v9.493a16.335,16.335,0,0,1-.458,4.048,7.378,7.378,0,0,1-1.536,3.042,7.085,7.085,0,0,1-2.873,1.934,12.607,12.607,0,0,1-4.47.687,14.051,14.051,0,0,1-4.656-.687,7.838,7.838,0,0,1-3.1-1.934,7.554,7.554,0,0,1-1.735-3.042,13.768,13.768,0,0,1-.548-4.048V56.531q0-1.4-2.7-1.4V52.64h12.077v2.494a6.16,6.16,0,0,0-2.464.349,1.12,1.12,0,0,0-.729,1.048v9.493a15.764,15.764,0,0,0,.229,2.873,4.828,4.828,0,0,0,.777,1.964,3.266,3.266,0,0,0,1.488,1.126,6.681,6.681,0,0,0,2.373.367,6.968,6.968,0,0,0,2.421-.367,3.577,3.577,0,0,0,1.6-1.126,4.718,4.718,0,0,0,.867-1.964,13.682,13.682,0,0,0,.259-2.873V56.531A1.115,1.115,0,0,0,402,55.483a6.3,6.3,0,0,0-2.482-.349V52.64h9.156v2.494Z" transform="translate(-160.241 -26.491)" fill="#fff"/>
        <path id="パス_17815" data-name="パス 17815" d="M460.5,55.138c-1.807,0-2.7.464-2.7,1.4V75.245h-7.361L440.913,58.21V71.353q0,1.4,2.7,1.4v2.494H434.95V72.751c1.807,0,2.7-.464,2.7-1.4V56.541q0-1.4-2.7-1.4V52.65h9.885l9.734,17.462V56.547q0-1.4-2.7-1.4V52.656H460.5V55.15Z" transform="translate(-180.56 -26.495)" fill="#fff"/>
        <path id="パス_17816" data-name="パス 17816" d="M24.888,55.134q-3.379,0-3.379,1.4V72.138h5.2a3.812,3.812,0,0,0,3.06-1.3,8.08,8.08,0,0,0,1.385-4.488l2.7.211-.729,8.668H12.63V72.741c1.807,0,2.7-.464,2.7-1.4V56.531q0-1.4-2.7-1.4V52.64H24.888Z" transform="translate(-12.63 -26.491)" fill="#fff"/>
        <path id="パス_17817" data-name="パス 17817" d="M78.987,59.479l-3.042.151q-.181-3.894-3.409-3.891H66.819v6.355h2.313c.952,0,1.524-1.132,1.7-3.409h2.674l-.458,9.493H70.439q-.334-3.533-1.524-3.53h-2.1v7.481h4.626q4.807,0,5.174-5.783l3.1.211-.729,8.668H57.94V72.731c1.807,0,2.7-.464,2.7-1.4V56.521q0-1.4-2.7-1.4V52.63H78.993v6.843Z" transform="translate(-30.647 -26.487)" fill="#fff"/>
        <path id="パス_17818" data-name="パス 17818" d="M126.646,71.827c.2.608,1.024.916,2.464.916v2.494h-12.2V72.743h2.343c.59,0,.879-.181.879-.548a1.207,1.207,0,0,0-.09-.367l-.849-2.434h-8.21l-.759,2.193a1.208,1.208,0,0,0-.09.4c0,.506.458.759,1.367.759h1.735v2.494H104.63l-.03-2.494a5.792,5.792,0,0,0,1.9-.229,1.149,1.149,0,0,0,.747-.657l6.813-19.227h6.144l6.451,19.191Zm-14.782-5.108h6.542L115.244,56.8Z" transform="translate(-49.201 -26.487)" fill="#fff"/>
        <path id="パス_17819" data-name="パス 17819" d="M180.746,71.271a4.916,4.916,0,0,1-.271,1.65,3.455,3.455,0,0,1-.837,1.325,3.828,3.828,0,0,1-1.458.873,6.469,6.469,0,0,1-2.144.313,7.308,7.308,0,0,1-2.482-.367A4.349,4.349,0,0,1,171.9,74.06a4,4,0,0,1-.946-1.488,5.326,5.326,0,0,1-.307-1.825V68.771a11.939,11.939,0,0,0-.139-1.976,3.087,3.087,0,0,0-.47-1.265,1.943,1.943,0,0,0-.879-.687,3.857,3.857,0,0,0-1.4-.211h-3.53v6.692q0,1.4,3.379,1.4v2.494H155.35V72.753c1.807,0,2.7-.47,2.7-1.4V56.507q0-1.4-2.7-1.4V52.61H169.8a21.184,21.184,0,0,1,2.921.2,7.412,7.412,0,0,1,2.542.807,4.629,4.629,0,0,1,1.777,1.717,5.641,5.641,0,0,1,.669,2.934,5.433,5.433,0,0,1-.367,2.084,4.956,4.956,0,0,1-.958,1.536,5.01,5.01,0,0,1-1.355,1.036,6.337,6.337,0,0,1-1.584.578,5.308,5.308,0,0,1,1.446.657,3.943,3.943,0,0,1,1.066,1.054,4.692,4.692,0,0,1,.669,1.572,9.319,9.319,0,0,1,.229,2.181V71.4a1.53,1.53,0,0,0,.271.994.865.865,0,0,0,.7.319.919.919,0,0,0,.729-.319,1.5,1.5,0,0,0,.271-.988V69.952h1.915v1.307Zm-16.517-15.39v6.2h3.891a3.485,3.485,0,0,0,2.482-.747,3.57,3.57,0,0,0,.777-2.632,2.766,2.766,0,0,0-.759-2.114,3.575,3.575,0,0,0-2.494-.717h-3.891Z" transform="translate(-69.381 -26.479)" fill="#fff"/>
        <path id="パス_17820" data-name="パス 17820" d="M232.552,55.138c-1.807,0-2.7.464-2.7,1.4V75.245h-7.361L212.963,58.21V71.353q0,1.4,2.7,1.4v2.494H207V72.751c1.807,0,2.7-.464,2.7-1.4V56.541q0-1.4-2.7-1.4V52.65h9.885l9.734,17.462V56.547q0-1.4-2.7-1.4V52.656h8.638V55.15Z" transform="translate(-89.919 -26.495)" fill="#fff"/>
        <path id="パス_17821" data-name="パス 17821" d="M275.193,78.877a1.15,1.15,0,0,0-.663.139.661.661,0,0,0-.241.379l-1.777,6.421H270.47l-1.3-4.427-1.313,4.427h-2.042l-1.669-6.409a.723.723,0,0,0-.271-.367.868.868,0,0,0-.554-.169V78.01h3.753v.861h-.6c-.187,0-.283.066-.283.2l1.253,5.319,1.416-5.1a.412.412,0,0,0-.2-.3.98.98,0,0,0-.536-.12V78.01h3.385v.861h-.6q-.271,0-.271.2l1.464,5.319,1.3-5.12a.645.645,0,0,0,.012-.126c0-.181-.139-.271-.41-.271h-.422V78.01h2.626v.873Z" transform="translate(-112.314 -36.579)" fill="#fff"/>
        <path id="パス_17822" data-name="パス 17822" d="M288.458,78.861c-.626,0-.934.163-.934.482v5.12c0,.325.313.482.934.482v.861H284.44v-.861c.632,0,.946-.163.946-.482v-5.12c0-.325-.313-.482-.946-.482V78h4.018Z" transform="translate(-120.712 -36.575)" fill="#fff"/>
        <path id="パス_17823" data-name="パス 17823" d="M300.553,81.217l-.916.03a3.526,3.526,0,0,0-.373-1.681,1.04,1.04,0,0,0-.928-.494h-.717v5.391c0,.325.313.482.946.482v.861h-4.024v-.861c.626,0,.934-.163.934-.482V79.072h-.723a1.033,1.033,0,0,0-.928.494,3.663,3.663,0,0,0-.379,1.681l-.916-.03V78h8.017v3.217Z" transform="translate(-123.929 -36.575)" fill="#fff"/>
        <path id="パス_17824" data-name="パス 17824" d="M315.985,78.861c-.632,0-.946.163-.946.482v5.12c0,.325.313.482.946.482v.861h-3.9v-.861c.542,0,.807-.163.807-.482V82.217h-2.753v2.247c0,.325.271.482.819.482v.861H307.07v-.861c.626,0,.934-.163.934-.482v-5.12c0-.325-.313-.482-.934-.482V78h3.891v.861c-.548,0-.819.163-.819.482V81.2h2.753V79.343c0-.325-.271-.482-.807-.482V78h3.9Z" transform="translate(-129.711 -36.575)" fill="#fff"/>
        <path id="パス_17825" data-name="パス 17825" d="M279.992,8.077h-.012A18.124,18.124,0,0,0,260.94,26.051c-.072,10.192,8.855,18.914,19.011,18.282h.036v0h.036c10.15.626,19.077-8.1,19.011-18.282A18.113,18.113,0,0,0,279.992,8.077Zm17.655,17.981c-2.15-.2-4.343-.343-6.536-.446a21.644,21.644,0,0,0-2.3-9.361,16.278,16.278,0,0,0,3.825-2.476,17.092,17.092,0,0,1,5.018,12.282ZM279.986,8.077h.006a18.113,18.113,0,0,1,7.331,7.68,27.012,27.012,0,0,1-6.807,1.024c-.1-2.927-.259-5.849-.524-8.7Zm-.681,17.306c-2.994.018-6.036.066-9.072.181a22.84,22.84,0,0,1,1.94-8.813,21.545,21.545,0,0,0,7.246,1.4c-.066,2.428-.1,4.849-.114,7.24Zm0,1.361c.012,1.837.03,3.692.072,5.554a21.367,21.367,0,0,0-7.776,1.626,22.975,22.975,0,0,1-1.361-7.361c3.036.114,6.078.157,9.072.181Zm1.367,0c2.994-.018,6.036-.06,9.066-.175a22.938,22.938,0,0,1-1.385,7.415,21.047,21.047,0,0,0-7.758-1.681c.036-1.861.06-3.723.072-5.56Zm0-1.361c-.018-2.391-.048-4.813-.114-7.24a21.414,21.414,0,0,0,7.222-1.44,22.858,22.858,0,0,1,1.964,8.861c-3.036-.114-6.078-.157-9.072-.175Zm6.156-15.643a20.261,20.261,0,0,1,5.662,3.9,23.972,23.972,0,0,1-4.126,1.8c-.036-.06-.066-.12-.1-.187A16.046,16.046,0,0,0,280,8.077a19.8,19.8,0,0,1,6.825,1.656Zm-6.837-1.663h0c-.265,2.861-.428,5.783-.524,8.71a27.229,27.229,0,0,1-6.837-.97,18.083,18.083,0,0,1,7.361-7.74H280Zm-.012,0a16.069,16.069,0,0,0-8.264,7.174l-.145.253a24.79,24.79,0,0,1-4.192-1.789,19.047,19.047,0,0,1,12.6-5.638Zm-12.722,5.765a16.336,16.336,0,0,0,3.885,2.476,21.564,21.564,0,0,0-2.271,9.3c-2.2.1-4.385.241-6.536.446a17.977,17.977,0,0,1,4.927-12.216Zm5.891,28.528c-7.481-3.524-10.867-9.951-10.824-16.294,2.15.2,4.343.343,6.536.446a21.818,21.818,0,0,0,1.644,7.927,15.789,15.789,0,0,0-3.813,2.674,24.13,24.13,0,0,1,4.138-1.922c.259.56.542,1.108.855,1.644,1.855,3.2,4.735,6.253,8.24,7.5a20.26,20.26,0,0,1-6.783-1.964Zm6.789,1.964a18.8,18.8,0,0,1-7.307-8.011c-.247-.488-.476-.988-.687-1.494a27.153,27.153,0,0,1,7.463-1.169c.09,3.482.259,7.277.578,10.68h-.048Zm.054,0c.319-3.4.482-7.192.578-10.674A26.893,26.893,0,0,1,288,34.888c-.2.482-.422.964-.657,1.428a18.761,18.761,0,0,1-7.307,8.011h-.048Zm.054,0c3.506-1.247,6.385-4.295,8.24-7.5.3-.512.566-1.036.819-1.566a23.35,23.35,0,0,1,4.174,2.006,15.54,15.54,0,0,0-3.837-2.765,21.736,21.736,0,0,0,1.669-7.987c2.2-.1,4.385-.241,6.536-.446A18.5,18.5,0,0,1,280.047,44.333Z" transform="translate(-111.367 -8.041)" fill="#fff"/>
        <path id="パス_17826" data-name="パス 17826" d="M291.791,29.115a2.358,2.358,0,0,0,1.867,1.042c1.1-.09,1.94-1.325,2.2-1.735a.425.425,0,0,1,.253-.181,1.523,1.523,0,0,0,.7-.283,1.214,1.214,0,0,0-.175-2.012c-.554-.229-.741.518-1.187.976a.751.751,0,0,0-.211.723.409.409,0,0,1-.072.331,1.888,1.888,0,0,1-1.319.789,1.15,1.15,0,0,1-1.2-.554.462.462,0,0,1-.042-.163c-.114-2.253-1.922-2.7-1.891-2.994a.171.171,0,0,1,.175-.163c4.271-.536,3.47-3.433,3.47-3.433a3.671,3.671,0,0,1-.108-1.9v-.012c1.036-4.042-4.331-4.464-5.765-3.6a.418.418,0,0,1-.482-.042.74.74,0,0,0-.482-.187.719.719,0,0,0-.361.1.4.4,0,0,1-.44-.018c-.452-.319-1.446-.723-2.632.663-1.632,1.9-1.078,3.855.108,5.488a1.631,1.631,0,0,1,.4.958h0a.362.362,0,0,1-.042.163.3.3,0,0,1-.283.181h-.012a.241.241,0,0,1-.09-.018.112.112,0,0,1-.042-.012h-.006a.335.335,0,0,1-.133-.126c-.006-.012-.018-.024-.024-.036a.086.086,0,0,0-.012-.036.738.738,0,0,1,.114-.645,1.546,1.546,0,0,0-.578.584.866.866,0,0,0,.2.891c-.861-.133-.343-.982-.343-.982a1.92,1.92,0,0,0-.41.253.9.9,0,0,0,.181,1.536,1.843,1.843,0,0,0,1.138.066.411.411,0,0,1,.241,0c1.4.373,1.656-.855,1.7-1.319h0V23.4a.08.08,0,0,1,.078-.072c.06,0,.078.066.078.066a1.638,1.638,0,0,0,1.825,1.385h.036c.012,0,.024-.006.036-.006a.213.213,0,0,1,.211.211.2.2,0,0,1-.139.193h0a6.054,6.054,0,0,0-2.934.361,8.172,8.172,0,0,0-2.632,1.777,5.082,5.082,0,0,0-.855,1.4.08.08,0,0,1-.06.048,1.819,1.819,0,0,0-1.193,1.066.073.073,0,0,1-.078.042.607.607,0,0,0-.542.157.433.433,0,0,1-.6.006c-.47-.488-1.578-.584-2.187-1.518-.819-1.247-1.006-3.012-2.108-3.379-.572-.193-.711-.03-.723-.181-.024-.229.8-.313.91-.325h.03l.753-.126c3.337-.747,2.5-3.632,2.5-3.632s-.355-2.626-.03-2.681a1.922,1.922,0,0,0,1.175-1.253c.145-.7-.476-.482-.476-.482s-1.464.6-1.518-.386-1.259-.422-1.066-.717a.515.515,0,0,0,.036-.542s-.127-.241-.428-.012c-.175.133-.759.47-.759.47a.085.085,0,0,1-.114-.09,4.957,4.957,0,0,0,.066-.753c.018-.663-1.307.3-1.789.675a.083.083,0,0,1-.133-.066c.024-.651-1.464.114-1.464.114-3.391,1.41-3.15,5.385-3.054,6.716s.771,2.006,1.078,1.952.289-.434.289-.434c.253.741,2.12.861,2.3,1.283s-.476.108-2.169.157a5.993,5.993,0,0,0-3.891,1.753c-.271.313-.271.494-.482.747a1.392,1.392,0,0,1-.94.319,1.584,1.584,0,0,0-.56.09c-1.765.687-.861,2-.861,2a1.1,1.1,0,0,0,1.175.554c.572-.126.247-.464.922-.928.12-.084.608.054.946-.319a5.132,5.132,0,0,1,2.927-1.229.705.705,0,0,1,.645.717,4.5,4.5,0,0,1-.879,2.006,2.688,2.688,0,0,0-.428,2.446.076.076,0,0,1-.006.036,4.171,4.171,0,0,1-2.054,2.018c-1.289.4-2.349-1.452-2.349-1.458h0a.925.925,0,0,0-.8-1.319c-1.723-.307-1.9,3.988-1.9,4.072,0,.44.361.831.59.831.7.084.94-1.638,1.054-1.789a.236.236,0,0,1,.416.012,5.074,5.074,0,0,0,2.873,1.783h0c3.1.59,4.385-2.638,4.578-3.168a.084.084,0,0,1,.1-.054c3.024.855,3.247,4.361,3.138,6.012s.922,1.253,2.494.789,1.783-.56,1.4-1.289c-.307-.59-1.223-.3-1.554-.169A.08.08,0,0,1,277,39.2c.361-3.433-.994-5.162-2.1-6.849-.482-.741.108-2.554.2-2.693a.085.085,0,0,1,.151.024,4.891,4.891,0,0,0,3.048,2.343,3.115,3.115,0,0,0,2.018-.054.436.436,0,0,1,.434.078c.548.434,1.524-.006,1.867-.482.042-.054.337-.241-.078-1.169-.253-.566.373-1.132.373-1.132,2.813-2.765,3.662-1.632,3.668-1.626h0c.506,4.9-3.331,5.933-4.168,6.1a.08.08,0,0,0-.036.139c1.217,1.181,1.536,2.2.361,2.572-.379.12-.789-.09-1.054-.6-.235-.452-.331-1.193-.6-1.416-.4-.337-1.012.4-1.464,1.048-1.09,1.548-.747,2.885-.1,3.006s.825-.512,1.03-1.319c.145-.566.12-.3.753.53.693.91,1.849,1.126,2.247.343a1.844,1.844,0,0,1,2.277-1.132h.012a6.275,6.275,0,0,0,5.427.554.593.593,0,0,1,.7.217A4.882,4.882,0,0,1,292.5,39.2a1.471,1.471,0,0,1-.042.723,1.373,1.373,0,0,0-.072.584c.211,1.44,2.638.735,3.765-.145a.842.842,0,0,0,.211-1.325c-.608-.548-1.608-.09-2.006.1s-.325-.2-.325-.2a3.611,3.611,0,0,0-.885-3.4c-.271-.331-.018-.4-.018-.4a.94.94,0,0,0,.59-.361c.3-.337.012-.44.012-.44a8.54,8.54,0,0,1-2.2-1.626c-1.313-1.253-.271-2.759-.042-3.307s.361-.271.361-.271Z" transform="translate(-111.793 -10.491)" fill="#fff"/>
      </g>
    </g>
    <rect id="長方形_1988" data-name="長方形 1988" width="280" height="50" transform="translate(-20864 5872)" fill="none"/>
  </g>
</svg>
