<svg xmlns="http://www.w3.org/2000/svg" width="64.152" height="168.924" viewBox="0 0 64.152 168.924">
  <g id="icons-05" transform="translate(-19.57 -6.777)">
    <path id="パス_15384" data-name="パス 15384" d="M82.5,167.675,81.3,35.585l-1.686.02-.091-10.157L81.965,22.5l-.04-3.746-.02-1.838H80.471C74.938,10.8,63.64,6.659,50.646,6.78S26.446,11.232,21,17.442H19.57l.02,1.848.04,3.756,2.484,2.908.091,10.157-1.686.02,1.2,132.08a2.387,2.387,0,0,0-1.171,2.08l.03,3.039A2.4,2.4,0,0,0,23,175.7l58.347-.525a2.4,2.4,0,0,0,2.373-2.423l-.03-3.039a2.382,2.382,0,0,0-1.2-2.039" transform="translate(0 0)" fill="#91262a"/>
    <path id="パス_15385" data-name="パス 15385" d="M22.711,168.3l58.771-.535L80.3,36.29l-58.771.525L22.711,168.3ZM22.126,37.421,79.695,36.9l1.181,130.263-57.569.525L22.126,37.421Z" transform="translate(0.019 0.284)" fill="#fff"/>
    <path id="パス_15386" data-name="パス 15386" d="M28.051,168.2l47.988-.434L74.9,41.69l-47.988.434L28.051,168.2ZM27.526,42.72,74.3,42.3l1.131,124.871-46.776.424L27.526,42.72Z" transform="translate(0.071 0.336)" fill="#fff"/>
    <path id="パス_15387" data-name="パス 15387" d="M29.241,166.933l45.585-.414L73.7,42.94l-45.585.414,1.121,123.579Zm-.919-123.4,45.181-.4,1.111,123.185-45.181.4L28.322,43.536Z" transform="translate(0.082 0.348)" fill="#fff"/>
    <path id="パス_15388" data-name="パス 15388" d="M33.119,147.61l37.4-.333-.909-100.3-37.4.333Zm-.1-99.5,35.8-.323.9,98.7-35.8.323-.9-98.7Z" transform="translate(0.122 0.387)" fill="#fff"/>
    <path id="パス_15389" data-name="パス 15389" d="M33.351,161.962l37.195-.333-.1-11.358L33.25,150.6l.1,11.358Zm.495-10.773,35.993-.323.091,10.167-35.993.323Z" transform="translate(0.132 1.382)" fill="#e2dbd3"/>
    <path id="パス_15390" data-name="パス 15390" d="M34.521,160.84l34.8-.313-.081-9.157-34.8.313.081,9.157Zm.121-8.955,34.388-.3.081,8.743-34.388.3Z" transform="translate(0.143 1.393)" fill="#e2dbd3"/>
    <rect id="長方形_1624" data-name="長方形 1624" width="9.592" height="14.286" transform="matrix(1, -0.009, 0.009, 1, 46.557, 82.448)" fill="#fff"/>
    <rect id="長方形_1625" data-name="長方形 1625" width="9.592" height="14.276" transform="matrix(1, -0.009, 0.009, 1, 47.001, 131.288)" fill="#fff"/>
    <rect id="長方形_1626" data-name="長方形 1626" width="9.592" height="14.286" transform="matrix(1, -0.009, 0.009, 1, 46.695, 98.721)" fill="#fff"/>
    <rect id="長方形_1627" data-name="長方形 1627" width="9.592" height="14.286" transform="matrix(1, -0.009, 0.009, 1, 46.409, 66.154)" fill="#fff"/>
    <rect id="長方形_1628" data-name="長方形 1628" width="9.511" height="14.286" transform="matrix(1, -0.009, 0.009, 1, 35.345, 115.119)" fill="#fff"/>
    <rect id="長方形_1629" data-name="長方形 1629" width="9.511" height="14.286" transform="matrix(1, -0.009, 0.009, 1, 35.049, 82.542)" fill="#fff"/>
    <rect id="長方形_1630" data-name="長方形 1630" width="9.511" height="14.286" transform="matrix(1, -0.009, 0.009, 1, 34.891, 66.259)" fill="#fff"/>
    <rect id="長方形_1631" data-name="長方形 1631" width="9.511" height="14.286" transform="matrix(1, -0.009, 0.009, 1, 35.187, 98.826)" fill="#fff"/>
    <rect id="長方形_1632" data-name="長方形 1632" width="9.592" height="14.286" transform="matrix(1, -0.009, 0.009, 1, 46.853, 115.004)" fill="#fff"/>
    <rect id="長方形_1633" data-name="長方形 1633" width="9.511" height="14.286" transform="matrix(1, -0.009, 0.009, 1, 58.136, 82.332)" fill="#fff"/>
    <rect id="長方形_1634" data-name="長方形 1634" width="9.511" height="14.286" transform="matrix(1, -0.009, 0.009, 1, 57.998, 66.049)" fill="#fff"/>
    <rect id="長方形_1635" data-name="長方形 1635" width="9.511" height="14.276" transform="matrix(1, -0.009, 0.009, 1, 57.841, 49.766)" fill="#fff"/>
    <rect id="長方形_1636" data-name="長方形 1636" width="9.511" height="14.286" transform="matrix(1, -0.009, 0.009, 1, 58.294, 98.616)" fill="#fff"/>
    <rect id="長方形_1637" data-name="長方形 1637" width="9.592" height="14.276" transform="matrix(1, -0.009, 0.009, 1, 46.252, 49.881)" fill="#fff"/>
    <rect id="長方形_1638" data-name="長方形 1638" width="9.511" height="14.286" transform="matrix(1, -0.009, 0.009, 1, 58.432, 114.889)" fill="#fff"/>
    <rect id="長方形_1639" data-name="長方形 1639" width="9.511" height="14.276" transform="matrix(1, -0.009, 0.009, 1, 34.743, 49.986)" fill="#fff"/>
    <rect id="長方形_1640" data-name="長方形 1640" width="9.511" height="14.276" transform="matrix(1, -0.009, 0.009, 1, 35.492, 131.402)" fill="#fff"/>
    <rect id="長方形_1641" data-name="長方形 1641" width="9.511" height="14.276" transform="matrix(1, -0.009, 0.009, 1, 58.58, 131.183)" fill="#fff"/>
    <path id="パス_15391" data-name="パス 15391" d="M27.441,35.287l46.776-.424-.081-8.723-46.776.424Zm.131-8.521,46.382-.414.071,8.319-46.382.414-.071-8.319Z" transform="translate(0.075 0.187)" fill="#e2dbd3"/>
    <rect id="長方形_1642" data-name="長方形 1642" width="45.383" height="7.33" transform="matrix(1, -0.009, 0.009, 1, 28.146, 27.451)" fill="#fff"/>
    <path id="パス_15392" data-name="パス 15392" d="M79.969,17.354c-2.7-2.968-6.785-5.452-11.843-7.209A52.832,52.832,0,0,0,50.65,7.46a52.68,52.68,0,0,0-17.416,3.009c-5.018,1.838-9.077,4.4-11.7,7.421l-.212.242H20.28l.04,4.21,60.931-.555-.04-4.2h-1.04l-.2-.242Zm.687,3.837-59.74.535-.03-3H21.6l.374-.444a28.092,28.092,0,0,1,11.449-7.259A52.046,52.046,0,0,1,50.65,8.066a51.924,51.924,0,0,1,17.275,2.655,28.075,28.075,0,0,1,11.591,7.037l.394.424h.717l.02,3Z" transform="translate(0.007 0.007)" fill="#fff"/>
    <path id="パス_15393" data-name="パス 15393" d="M79.069,18.151a27.136,27.136,0,0,0-11.338-6.876A50.98,50.98,0,0,0,50.658,8.66a51.321,51.321,0,0,0-17.032,2.928,27.333,27.333,0,0,0-11.207,7.078l-.565.646H21.47l.02,1.807,58.538-.535-.02-1.8h-.384Zm.767,2.231-58.145.525V19.514h.263l.616-.707A27.021,27.021,0,0,1,33.707,11.78,51.186,51.186,0,0,1,50.658,8.862a51.476,51.476,0,0,1,17.012,2.6,26.985,26.985,0,0,1,11.257,6.825l.626.7h.273l.01,1.393Z" transform="translate(0.018 0.018)" fill="#e2dbd3"/>
    <path id="パス_15394" data-name="パス 15394" d="M78.916,18.28a27.078,27.078,0,0,0-11.257-6.815,51.092,51.092,0,0,0-17.012-2.6,51.186,51.186,0,0,0-16.952,2.918A27.053,27.053,0,0,0,22.558,18.8l-.626.707H21.67l.01,1.4,58.145-.525V19h-.293l-.626-.707Z" transform="translate(0.02 0.02)" fill="#fff"/>
    <path id="パス_15395" data-name="パス 15395" d="M29.711,29.03h.575a.1.1,0,0,1,.111.1l.03,2.938a.121.121,0,0,0,.111.121l1.7-.02a.123.123,0,0,1,.121.121v.464a.1.1,0,0,1-.1.111l-2.5.03a.112.112,0,0,1-.111-.111l-.04-3.625a.123.123,0,0,1,.121-.121" transform="translate(0.097 0.214)" fill="#91262a"/>
    <path id="パス_15396" data-name="パス 15396" d="M35.566,29.657l-1.817.02a.121.121,0,0,0-.121.111v.6a.112.112,0,0,0,.111.111l1.646-.02a.121.121,0,0,1,.121.111v.444a.1.1,0,0,1-.1.111l-1.646.02a.112.112,0,0,0-.111.111v.767a.121.121,0,0,0,.121.111l1.908-.02a.115.115,0,0,1,.111.121v.464a.1.1,0,0,1-.1.111l-2.7.03a.112.112,0,0,1-.111-.111l-.04-3.625A.123.123,0,0,1,32.961,29l2.6-.03a.112.112,0,0,1,.111.111v.454c0,.111-.05.151-.111.151" transform="translate(0.128 0.214)" fill="#91262a"/>
    <path id="パス_15397" data-name="パス 15397" d="M37.543,28.97h.747a.418.418,0,0,1,.111.061l1.313,3.614a.113.113,0,0,1-.1.151h-.636s-.091-.03-.111-.081l-.212-.626s-.061-.081-.111-.081H37.291a.483.483,0,0,0-.111.081l-.212.636s-.061.071-.111.071h-.6a.119.119,0,0,1-.111-.151l1.262-3.625a.211.211,0,0,1,.111-.061m.05,2.383h.676a.113.113,0,0,0,.1-.151l-.343-1.03a.11.11,0,0,0-.212,0l-.333,1.04a.111.111,0,0,0,.111.141" transform="translate(0.16 0.214)" fill="#91262a"/>
    <path id="パス_15398" data-name="パス 15398" d="M42.663,29.011a.96.96,0,0,1,.363.273,1.141,1.141,0,0,1,.192.323,1.248,1.248,0,0,1,.081.4,1.037,1.037,0,0,1-.141.535.767.767,0,0,1-.454.374.7.7,0,0,1,.384.3,1.318,1.318,0,0,1,.111.606v.263a1.827,1.827,0,0,0,.03.353.348.348,0,0,0,.141.212v.091h-.878c-.02-.081-.04-.151-.05-.2a1.77,1.77,0,0,1-.04-.333v-.353a.672.672,0,0,0-.141-.485.617.617,0,0,0-.454-.111h-.666a.119.119,0,0,0-.111.111v1.292a.091.091,0,0,1-.091.111h-.565a.114.114,0,0,1-.121-.111l-.04-3.625a.112.112,0,0,1,.111-.111l1.726-.02a1.569,1.569,0,0,1,.6.091m-1.666.7v.808a.121.121,0,0,0,.121.111h.747a.892.892,0,0,0,.384-.071.433.433,0,0,0,.222-.434c0-.242-.071-.394-.222-.464a.72.72,0,0,0-.374-.071h-.767a.123.123,0,0,0-.121.121" transform="translate(0.199 0.213)" fill="#91262a"/>
    <path id="パス_15399" data-name="パス 15399" d="M44.121,28.9h.666s.081.02.1.05L46.2,31.192a.115.115,0,0,0,.212-.061l-.02-2.151a.121.121,0,0,1,.111-.121h.525a.113.113,0,0,1,.121.1l.04,3.625a.112.112,0,0,1-.111.111h-.616s-.081-.02-.1-.05l-1.353-2.3a.115.115,0,0,0-.212.061l.02,2.191a.121.121,0,0,1-.111.121h-.525a.1.1,0,0,1-.111-.1l-.04-3.625s.02-.091.081-.1" transform="translate(0.236 0.213)" fill="#91262a"/>
    <path id="パス_15400" data-name="パス 15400" d="M50.706,29.83h.575s.091.03.111.091l.323,1.444a.107.107,0,0,0,.212,0l.293-1.444s.061-.1.111-.081h.535a.111.111,0,0,1,.111.141l-.737,2.635s-.061.081-.111.081h-.586s-.091-.03-.111-.081L51.1,31.143a.107.107,0,0,0-.212,0l-.3,1.484s-.061.081-.111.081h-.6s-.091-.03-.111-.081l-.757-2.615a.109.109,0,0,1,.1-.141h.565s.091.03.111.081l.323,1.434a.113.113,0,0,0,.222,0l.273-1.424a.088.088,0,0,1,.091-.111" transform="translate(0.284 0.222)" fill="#91262a"/>
    <path id="パス_15401" data-name="パス 15401" d="M54.036,29.476h-.525a.1.1,0,0,1-.111-.1v-.464a.106.106,0,0,1,.111-.111h.525a.106.106,0,0,1,.111.111v.464s-.05.1-.111.1m-.525.343h.525a.106.106,0,0,1,.111.111l.03,2.625a.112.112,0,0,1-.111.111h-.525a.114.114,0,0,1-.121-.111l-.03-2.625a.115.115,0,0,1,.121-.111" transform="translate(0.326 0.212)" fill="#91262a"/>
    <path id="パス_15402" data-name="パス 15402" d="M54.57,30.363v-.525h.384v-.676a.1.1,0,0,1,.1-.111h.515a.1.1,0,0,1,.111.1v.676h.475v.525h-.464l.02,1.5c0,.121.01.192.05.212.02.04.121.05.273.04h.141v.565l-.343.02a.919.919,0,0,1-.717-.172.541.541,0,0,1-.121-.394l-.02-1.757h-.4Z" transform="translate(0.337 0.215)" fill="#91262a"/>
    <path id="パス_15403" data-name="パス 15403" d="M58.66,29.79a.8.8,0,0,1,.353.283.935.935,0,0,1,.151.323c.01.111.03.3.03.545l.02,1.565a.123.123,0,0,1-.121.121h-.535a.1.1,0,0,1-.111-.1l-.02-1.626a.706.706,0,0,0-.091-.374.393.393,0,0,0-.384-.2.527.527,0,0,0-.444.192.991.991,0,0,0-.151.565v1.434a.087.087,0,0,1-.091.111h-.515a.106.106,0,0,1-.111-.111L56.6,28.9a.115.115,0,0,1,.121-.111h.515a.114.114,0,0,1,.121.111v1.242a1.051,1.051,0,0,1,.384-.353,1.1,1.1,0,0,1,.444-.1,1.17,1.17,0,0,1,.475.091" transform="translate(0.357 0.212)" fill="#91262a"/>
    <path id="パス_15404" data-name="パス 15404" d="M61.491,28.74,64,28.71a.123.123,0,0,1,.121.121v.454a.1.1,0,0,1-.1.111l-1.716.02a.112.112,0,0,0-.111.111v.656a.13.13,0,0,0,.111.121l1.484-.02a.112.112,0,0,1,.111.111v.444a.1.1,0,0,1-.1.111l-1.484.02a.112.112,0,0,0-.111.111v1.383a.091.091,0,0,1-.091.111h-.575a.106.106,0,0,1-.111-.111l-.04-3.614s.02-.081.081-.081" transform="translate(0.403 0.211)" fill="#91262a"/>
    <path id="パス_15405" data-name="パス 15405" d="M64.731,28.71h.6a.1.1,0,0,1,.111.1l.02,2.251a1.419,1.419,0,0,0,.1.586.614.614,0,0,0,.636.313c.323-.01.535-.111.626-.333a1.381,1.381,0,0,0,.091-.586l-.02-2.251A.121.121,0,0,1,67,28.67h.6a.113.113,0,0,1,.121.1l.02,2.251a1.981,1.981,0,0,1-.182.959,1.786,1.786,0,0,1-2.716.02,2.01,2.01,0,0,1-.2-.949L64.62,28.8s.061-.081.121-.081" transform="translate(0.434 0.211)" fill="#91262a"/>
    <path id="パス_15406" data-name="パス 15406" d="M68.541,28.68h.666s.081.02.1.05l1.313,2.241a.115.115,0,0,0,.212-.061l-.02-2.151a.121.121,0,0,1,.111-.121h.525a.113.113,0,0,1,.121.1l.04,3.625a.112.112,0,0,1-.111.111h-.636s-.081-.02-.1-.05l-1.353-2.3a.115.115,0,0,0-.212.061l.02,2.191a.121.121,0,0,1-.111.121h-.525a.1.1,0,0,1-.111-.1l-.04-3.625s.03-.091.091-.1" transform="translate(0.471 0.211)" fill="#91262a"/>
    <path id="パス_15407" data-name="パス 15407" d="M40.91,11.6a1.3,1.3,0,0,0,0,.2.732.732,0,0,1,.05.121.915.915,0,0,0,.131.192c.02.02.061.05.081.071h.01a.01.01,0,0,1,.01.01.143.143,0,0,1,.061.02c.02,0,.04.01.061.01.061.01.091,0,.141.01.01-.01.01,0,.02-.01a.108.108,0,0,0,.061-.02c.02-.02.02-.01.03-.061.05-.1-.02-.081-.05-.121a.143.143,0,0,1-.02-.061.448.448,0,0,0-.081-.111.276.276,0,0,1-.04-.05l-.02-.02-.02-.02a1.476,1.476,0,0,0-.212-.162c-.02.01-.071.01-.071,0-.02,0-.02-.02-.061-.02a.118.118,0,0,0-.071.02" transform="translate(0.206 0.046)" fill="#91262a" fill-rule="evenodd"/>
    <path id="パス_15408" data-name="パス 15408" d="M40.97,11.385a.159.159,0,0,0,.01.04c.01.01.01.02.02.02s.071.081.141.03.02-.02.061-.05c.061-.04.081-.04.121-.1.081-.111.061-.111.121-.192.01-.02.02-.05.05-.061.01-.01.02-.01.04-.02s.01-.02.02-.02c.05-.05.061-.1.131-.061.02.01.1.071.141.01.02-.02.02-.04.02-.081v-.04a.867.867,0,0,0-.323,0,1.221,1.221,0,0,0-.394.242l-.02.02a.915.915,0,0,0-.131.192.128.128,0,0,1-.01.061" transform="translate(0.206 0.039)" fill="#91262a" fill-rule="evenodd"/>
    <path id="パス_15409" data-name="パス 15409" d="M41.9,12.445a.588.588,0,0,1-.343-.071,2.017,2.017,0,0,1-.212-.1.151.151,0,0,0-.071-.03h-.01l-.01-.01.02.01a.369.369,0,0,0,.182,0h0a1.043,1.043,0,0,1-.141-.01c-.02,0-.05-.01-.061-.01s-.04-.01-.061-.02c0,0-.01.01-.01,0h-.01a.425.425,0,0,1-.141-.121.439.439,0,0,1-.061-.071c-.01-.01-.04-.081-.05-.081a.684.684,0,0,0,.131.273.735.735,0,0,0,.192.2.711.711,0,0,0,.3.091,1.09,1.09,0,0,0,.374-.04" transform="translate(0.206 0.05)" fill="#91262a" fill-rule="evenodd"/>
    <path id="パス_15410" data-name="パス 15410" d="M40.91,11.406a1.347,1.347,0,0,1,.061-.121.851.851,0,0,1,.525-.424c.141-.05.192-.01.333-.02-.01-.04-.1-.061-.131-.071a.726.726,0,0,0-.575.232c-.04.02-.061.071-.091.111a2.631,2.631,0,0,0-.121.283" transform="translate(0.206 0.038)" fill="#91262a" fill-rule="evenodd"/>
    <path id="パス_15411" data-name="パス 15411" d="M42.17,11.02h0a.01.01,0,0,0-.01-.01L42.14,11a.01.01,0,0,0,.01.01c.01.01.01,0,.02.01" transform="translate(0.217 0.041)" fill="#91262a" fill-rule="evenodd"/>
    <path id="パス_15412" data-name="パス 15412" d="M41.955,10.96a.222.222,0,0,1-.05.061c-.03.05-.02.071-.071.1l-.04.02s-.01.02-.071.05a.391.391,0,0,0-.162.131c-.01.01-.02.01-.04.02s-.01.02-.02.04-.02.01-.02.04a.254.254,0,0,0,.03.192.155.155,0,0,0,.05.071c.01.04.04.04.061.061.1.061.091.02.131-.05.01-.02.02-.01.04-.02.04-.02.061-.081.081-.1a.931.931,0,0,1,.081.05c0,.02-.02.061-.03.141a.975.975,0,0,0,0,.172c-.071-.01-.091-.02-.151.061a.32.32,0,0,0-.05.061c-.02.02-.02.05-.03.081-.03.172.1.242.242.162a1.1,1.1,0,0,1,.111-.061l.111-.071a.193.193,0,0,1,.081-.04.163.163,0,0,0,.141-.081c.02-.02.03-.05.05-.071s.02-.071.03-.081a.453.453,0,0,0,.03-.263.936.936,0,0,0-.151-.454.674.674,0,0,0-.131-.151H42.2l-.01-.02-.05-.03a.2.2,0,0,0-.061-.02.205.205,0,0,1-.05.01.22.22,0,0,0-.061.01" transform="translate(0.211 0.04)" fill="#91262a" fill-rule="evenodd"/>
    <path id="パス_15413" data-name="パス 15413" d="M52.907,12.52h0a.743.743,0,0,1,.747.737l.02,3.534a2.3,2.3,0,0,0,.182,1.05c.172.394.555.575,1.151.575a1.113,1.113,0,0,0,1.141-.586,2.8,2.8,0,0,0,.172-1.05V13.247a.72.72,0,0,1,.717-.747.743.743,0,0,1,.747.737v3.544a3.542,3.542,0,0,1-.313,1.737,2.56,2.56,0,0,1-2.443,1.151,2.553,2.553,0,0,1-2.453-1.121,3.671,3.671,0,0,1-.353-1.726l-.04-3.534a.737.737,0,0,1,.737-.747" transform="translate(0.314 0.055)" fill="#91262a"/>
    <path id="パス_15414" data-name="パス 15414" d="M63.525,16.458a2.683,2.683,0,0,1-1.757.535h-.737a.757.757,0,0,0-.737.747v1.07a.718.718,0,0,1-.717.737.735.735,0,0,1-.737-.737l-.03-5.593a.741.741,0,0,1,.737-.737h2.292a2.357,2.357,0,0,1,1.676.525,2.14,2.14,0,0,1,.636,1.686,2.25,2.25,0,0,1-.616,1.777m-1.151-2.544a1.24,1.24,0,0,0-.788-.232H61a.748.748,0,0,0-.737.737v.606a.755.755,0,0,0,.737.737h.6a1.14,1.14,0,0,0,.788-.263,1.011,1.011,0,0,0,.283-.8.947.947,0,0,0-.283-.788" transform="translate(0.378 0.055)" fill="#91262a"/>
    <path id="パス_15415" data-name="パス 15415" d="M38.954,13.664a25.062,25.062,0,0,0-1.716,2.655l-.192.363v.111a.251.251,0,0,1,.091.01c.071.01.151.01.273.02s.172.02.2.02a5.939,5.939,0,0,1,.707.162c.242.061.434.111.575.162s.343.111.636.222c.273.1.475.162.6.212a.2.2,0,0,1,.131.121.229.229,0,0,1,.01.182.2.2,0,0,1-.121.131.229.229,0,0,1-.182.01l-.626-.222-.606-.212c-.131-.05-.313-.1-.535-.162s-.454-.1-.666-.141a.929.929,0,0,0-.172-.02c-.121-.01-.212-.02-.283-.03h-.02q.061,1.3.091,1.908a.236.236,0,0,1-.071.172.2.2,0,0,1-.151.071.274.274,0,0,1-.172-.061.2.2,0,0,1-.071-.151c-.02-.394-.05-1.07-.1-2.05a.4.4,0,0,1-.1-.081.212.212,0,0,1-.05-.151.128.128,0,0,1,.01-.061.206.206,0,0,0,.01-.05.953.953,0,0,0,.03-.091l.061-.111c-.02-.4-.04-.767-.05-1.07-.01-.222,0-.747,0-1.585a15.166,15.166,0,0,0-.05-1.535.218.218,0,0,1,.05-.172.192.192,0,0,1,.151-.081.264.264,0,0,1,.172.05.178.178,0,0,1,.081.151,10.445,10.445,0,0,1,.05,1.6c-.02.808-.02,1.333,0,1.555v.283c.374-.636.909-1.444,1.605-2.4a.161.161,0,0,1,.141-.081.218.218,0,0,1,.172.05.246.246,0,0,1,.1.141.222.222,0,0,1-.02.182" transform="translate(0.162 0.052)" fill="#91262a"/>
    <path id="パス_15416" data-name="パス 15416" d="M41.935,12.992q.242,2.408.252,6.441a.236.236,0,0,1-.071.172.2.2,0,0,1-.162.071.236.236,0,0,1-.172-.071.231.231,0,0,1-.071-.162c-.02-2.7-.1-4.816-.252-6.411a.218.218,0,0,1,.05-.172.192.192,0,0,1,.151-.081.264.264,0,0,1,.172.05.335.335,0,0,1,.111.162" transform="translate(0.211 0.058)" fill="#91262a"/>
    <path id="パス_15417" data-name="パス 15417" d="M46.149,12.092c.01.212.03.434.04.646v.8c0,.313-.02.525-.02.616,0,.575,0,2.151-.04,3.3-.02,1.151-.05,1.3-.04,1.878a.236.236,0,0,1-.071.172.2.2,0,0,1-.162.071.236.236,0,0,1-.172-.071.2.2,0,0,1-.071-.162c0-.384.01-.091.02-.575a1.945,1.945,0,0,1-1.272.05,1.861,1.861,0,0,1-.747-.414,1.582,1.582,0,0,1-.414-.616,1.966,1.966,0,0,1-.071-.687,1.719,1.719,0,0,1,.192-.646,1.306,1.306,0,0,1,.464-.5,1.331,1.331,0,0,1,.656-.212,1.816,1.816,0,0,1,1.262.545V12.728a5.9,5.9,0,0,0-.04-.606.229.229,0,0,1,.05-.182.226.226,0,0,1,.151-.081.218.218,0,0,1,.172.05.475.475,0,0,1,.1.182m-.464,4.816a1.671,1.671,0,0,0-1.212-.707.832.832,0,0,0-.727.475,1.258,1.258,0,0,0-.151.464,1.106,1.106,0,0,0,.05.485.879.879,0,0,0,.3.434,1.308,1.308,0,0,0,.565.293,1.284,1.284,0,0,0,1.131-.121c.01,0,.02,0,.02-.01.01-.172,0-.4.02-.707s0-.5.02-.606h-.02Z" transform="translate(0.227 0.049)" fill="#91262a"/>
    <path id="パス_15418" data-name="パス 15418" d="M49.4,13.953a1.36,1.36,0,0,0-.464-.707.881.881,0,0,0-1.212.1,1.483,1.483,0,0,0-.323.808,1.712,1.712,0,0,0,.05.959,4.183,4.183,0,0,0,.242.464c.111.162.242.363.424.616s.313.424.384.535a4.964,4.964,0,0,1,.545,1,2.039,2.039,0,0,1,.121.979,1.079,1.079,0,0,1-.575.818.945.945,0,0,1-.676.131.912.912,0,0,1-.495-.353,2.421,2.421,0,0,1-.414-1.08.218.218,0,0,1,.05-.172.283.283,0,0,1,.141-.1.218.218,0,0,1,.172.05.246.246,0,0,1,.1.141,1.929,1.929,0,0,0,.323.878.494.494,0,0,0,.232.172.514.514,0,0,0,.343-.071.659.659,0,0,0,.333-.485,1.573,1.573,0,0,0-.1-.767,4.917,4.917,0,0,0-.485-.878,1.674,1.674,0,0,0-.323-.5c-.192-.263-.353-.475-.464-.666a4.561,4.561,0,0,1-.283-.535,2.365,2.365,0,0,1-.081-1.2,1.944,1.944,0,0,1,.464-1.04,1.268,1.268,0,0,1,.868-.434,1.229,1.229,0,0,1,.919.293,2.063,2.063,0,0,1,.646.939.369.369,0,0,1,0,.182.178.178,0,0,1-.131.121.28.28,0,0,1-.182,0A.213.213,0,0,1,49.434,14" transform="translate(0.264 0.056)" fill="#91262a"/>
  </g>
</svg>
