<svg xmlns="http://www.w3.org/2000/svg" width="596" height="198" viewBox="0 0 596 198">
  <g id="グループ_1000" data-name="グループ 1000" transform="translate(-1324 -3041)">
    <path id="safari_-05" d="M197.455,114.346c-2.884-.153-5.693-.305-8.44-.458-4.38-.366-9.172-.61-14.27-.733a.725.725,0,0,0-.824-.733c.092-.244-.244-.183-.244-.366-.977-.626-2.3.122-3.251-.153-1.023-.29-.565-1.358-1.679-1.847.351-.9-1.419-1.007-1.3-2.03,2.442-1.633,4.121-3.861,6.166-5.815-.32-2.793,2.625-3.068,3.953-4.579-.305-.244.076-.473,0-.824,2.5-.2,3.251-1.77,6.1-1.709a2.331,2.331,0,0,0,3.525-.672c-.549-.2.183-.244-.107-.549,1.129.2,1.984-.305,2.793-.046-.183,0-.992-.046-.61.076.687-.046.519.519,1.084.565.244-.763,1.633-.626,1.847-1.419-.351-.2-1.206-.015-1.572-.214-.061.366-1.1.565-.382.717-.687-.122-1.48.259-3.037.137-.244-.412.336-.6.259-.9.61.076.855-.137,1.465-.061.137-.259.275-.5.4-.763.015.046.046.092.137.061.427,0,.061-.458.412-.519.382.061-.122.366.2.443.488-.214.977-.412,1.129.137.107-.214.61-.458.259-.672.275.107.565-.29.778-.473.229.2.519.305.488.763-.168-.107-.641.076-.534-.305-.549.626.565.412.336.6.168.259.305-.137.336-.229.168,0,.137.214.183.351.214-.015.229-.137.473-.153-.2-.29-.366-.58-.549-.87.061-.107.214-.183.519-.214.137,0,.061.2.229.168.305-.046.443-.244.641-.458.2.244.534.137.733.275,0-.061-.061-.137.046-.168.183.061.488.015.458.275a1.189,1.189,0,0,0,.9-.183.66.66,0,0,1,.122.29c.778-.137,1.251-.412,1.236-.9.031-.259-.031-.458-.229-.549-.092.229-.321-.168-.61-.107a.4.4,0,0,1-.244.366c0-.244.076-.534-.229-.549-.336.488-.229.763-.626,1.175.2-.32,0-.443.137-.733-.305,0-.382.168-.488-.107.183-.076.382-.122.366-.351a.365.365,0,0,1-.366-.183c.412.046.214-.4.366-.534-.443.046-.351-.29-.717-.29-.519-.061-.5.29-.977.259.122-.168.031-.168-.122-.122a.644.644,0,0,1,.183-.153c-.183.046-.259-.031-.382-.031.214-.031.382-.107.351-.32-.305-.2-.687-.351-.6-.824-.534-.076.092.183-.244.183-.29-.122-.153-.549-.6-.565.061.351-.382.305-.488.534-.076-.427-.87-.443-1.206-.2-.183-.366.031-.61-.107-.916-.61.168-.2.6-.733.717-.107-.168,0-.488-.351-.458,0,.137-.259.259-.61.351.092-.427,0-.366-.107-.641-.305.031-3.144-1.358-4.975,0-.137.336.107.412-.244.549.031-.168-.137-.2-.122-.366,0-.137.305-.061.244-.275-.717.229-.183-.214-.473-.458-.168.336-.519.519-.626.9-.168-.061,0-.351-.244-.366a1.34,1.34,0,0,1-1.465.153c-.244.61-.916.122-1.465.336.259.122-.153.183-.244.336-.824.107-1.954-.2-2.671.183-.107-.626-.824,0-1.328-.351.412-.534,1.114-.687.992-1.251-.717.046-.153.534-.977.534,0-.183.336-.107.244-.366-.382-.107-.29.137-.488.168-.076-.4-.733.4-1.1.031-.031-.412.366-.427.626-.809h-.488c-.031.153.122.458-.244.351.32-.336-.214-.32-.488-.183.015-.29-.382-.259-.229-.641-.5-.122-.229.382-.488.443-.122-.122-.412-.122-.488-.275-.214.32-.32.641.107.824-.229-.031-.275.092-.488.076,0-.473-.626.031-.473-.458-.412.076-.763.275-1.1-.015.473-.183.412-.488.977-.443-.122-.443.122-.61-.107-.916-.244.076-.32.488-.61.259.153-.275.992-.519.626-.9-.061.168-.122-.046-.244-.092-.076.092-.412.458-.488.259.229-.443.4-.916.626-1.358-.229.015-.259-.107-.488-.092-.015.137.046.336-.122.366-.031-.076-.229-.473-.366-.183.244.153-.885.076-.259.626-.153-.366.336-.229.488-.351.107.443-.183.6-.382.809-.244-.153-.6-.519-.839-.382.32-.259-.214-.443-.351-.641-.061.549-.58.4-1.1.259-.305.107.244.351-.122.458-.351-.015-.061-.5-.473-.458-.29-.046.061.412-.366.259-.076.168.351.382,0,.458-.031-.6-.076.107-.366.092a.62.62,0,0,0-.473-.733c-.076.153.137.534-.137.549-.29.031.076-.412-.366-.275.153.275.107.458-.244.549-.153-.458-.778.153-.855.351-.107-.336.519-1.358-.336-1.557-.641.2-.2.656-.87.809.092-.275.092-.168,0-.458a1.452,1.452,0,0,1-1.1.076c-.336.748.076.672.107,1.374a1.375,1.375,0,0,1-1.221-.015c-.015.107.015.259-.122.275-.2-.366-.427-.168-.962-.29-.076.168-.061.382-.244.458.031-.244-.046-.4-.366-.366-.4.214-.031.534-.137.641-.382.031-.046-.458-.473-.366-.244.2.214.5-.488.443.061.229.153.32-.122.458a.75.75,0,0,0-.733-.2c-.168.046-.031.351-.244.366a1.148,1.148,0,0,1-.824-.443,47.716,47.716,0,0,0,3.251-4.426c1.068.015,2.35.214,2.808-.748a5.523,5.523,0,0,1-2.289-.168,15.3,15.3,0,0,0,1.145-2.671,16.424,16.424,0,0,1,3.251.534.747.747,0,0,1-.534.4,6.43,6.43,0,0,0,1.892.549c1.16-.565,4.182-.519,4.838-.839.107-.458-.5-.412-.29-.962a4.47,4.47,0,0,0-2.7.031c-.61-.107.32-.305-.275-.58.153-.473,1.007-.443,1.6-.6,1.221.9,3.938.565,4.3-.641.458-.076.5.137.549.382.778-.092,1.221-.427,1.328-.977-1.145-.412-.87-.412-1.908-1.313.336,1.16-2.762,1.5-4.029,1.007-.839,1.572-2.411,1.3-4.823,1.221.259-.32,1.236-.153,1.343-.6-.336-.32-.809-.977-1.358-.565.107-1.053,1.343-1.343,2.121-1.954,1.114-.229,1.053.382,1.892.351.6-.351,1.664-.366,1.587-1.175,1.5.214,1.786,1.618,3.525,1.1-.015-.412.992-1.053.519-1.16-.58-.076-.5.275-.534.58-.641-.046-.519-.656-1.358-.565.015-.809,1.221-.794,2.411-.794.4.153.4.61.565.946.641-.4,3.495-.778,3.77-.244.855-.168.351-1.267,1.587-1.175-.29,1.328,11.431-.885,12.957-1.129-.061-.839-.473-.336-1.358-.366-.382-.183.107-.32-.549-.565.321-.412,1.45-.259,1.053-1.16-1.251.031-2.64-.122-4.044-.107v.076a1.769,1.769,0,0,1-1.221-.015,9.106,9.106,0,0,0-.931.137.532.532,0,0,1,.366-.183c-.046-.015-.076-.061-.107-.092,1.129-1.221,6.257.107,5.891-1.877,1.053-.092,2.06-.046,1.6-.794a8.845,8.845,0,0,0,2.411-.61c-.748-.5.183-.672.244-1.16-.733,0-.534.321-1.084,0,.107-.366.763-.351.519-.961-.992.214-.443-.717-1.358-.565-.626.137-.382.87-1.053.977-.61-.107.321-.305-.275-.58-1.435.275-1.755.458-2.137,1.175-.32-.29-.794-.458-.824-.946,1.007-.534,1.786-.122,2.946-.61-.58-.336-.473-.656-1.358-.366-.443-.977,1.679-.87,2.121-1.755-.916.717-1.3-.809-.29-.763-.122-.366-.6-.473-.565-.946a1.761,1.761,0,0,0-.778,1.16,7.2,7.2,0,0,1-.565-1.343c-1.389.4-13.14-.092-11.858,1.694-.4-.168-1.053-.137-.824-.763-1.145.29-1.023.7-.5,1.343a2.339,2.339,0,0,0-2.167-.733c.549-.885.275-.794-.031-1.725a2.834,2.834,0,0,1-2.686.031c.259-.9-.641-.961-1.1-1.328-.32.031-.214.351-.259.58-.488-.656-1.526-.458-1.923-1.511-.7.58-1.221,1.221-2.137,1.175-.5-.015-.183-.641-.549-.763-.87-.092-1.358.076-1.6.412-.626-.275-.427-.458-.29-.961-1.557.137-.534-.5-1.1-.946-.977-.168-.214.87-1.068.778-.229-.2.58-.87-.29-1.343-.717-.046-.885.275-.794.778-.4-.153-.4-.61-.565-.946-1.175.275-1.694-.168-2.137.61-.32-.031-.229-.351-.275-.58a3.161,3.161,0,0,1-2.7.031c.046-1.465.946-1.313.214-2.884a3.268,3.268,0,0,1-2.427-.153c-.183.6-.183.366.015.961-1.5-.305-.5-1.282-1.923-1.694-1.908.412-.488,2.579-.748,3.266-.183-.412-1.557-1.694-1.908-.748-.778-.2-.9-.565-.565-1.145-.961-.29-.153.656-.794.58-.6-.015-.137-.809-.29-1.145a1.326,1.326,0,0,0-1.053,1.557c-.656.031-.748-1.45-.809-.183-.794-.153.153-.626-.015-.961-.946.305-.183-.656-.824-.565-.946-.076-.29.946-1.053.977-.824-.229.382-.733-.29-.961-1.145.32-2.274.61-2.442-.549-.305.427-1.5.809-.778,1.358-.565-.29-1.343.473-1.862.794-.443-.458-1.053-.778-.839-1.709.351.259,1.419,0,1.1.748,1.4-1.19-1.114-1.007-.565-1.343-.275-.6-.717.229-.794.4-.366-.061-.229-.473-.29-.763-.488-.015-.565.244-1.068.2.5.931.885,1.938,1.4,2.869-.168.427-.9-.351-1.084-.565-.244.107-.4.534-.534.2-.809.794,1.038,1.313,1.389,1.908-.656.488-.809-.4-1.358-.549-.5.626.031.977-.229,1.923,1.251-.107,1.129.534,2.167.931-.733.626-1.5.2-2.427.031.351,1.053-1.068-.031-1.053.977-.488.031-.58-.229-1.084-.183.946-.366.7-1.053.229-1.725-.168.336-.809.32-1.068.6-.6-.137.031-1.19-1.1-.946.32.794-.549.748-.519,1.343-.58-.29-1.77-.32-1.068.4-.809.2-.488-.427-.549-.763h-1.084c.565.809,1.435.87,1.374,1.725-.809.763-2.274-.9-2.427-.076-.427-.076-.244-.6-1.084-.366-.183.534.549.382.549.763-1.831,0-.6-1.023-2.182-1.129-.259,1.19,1.282,1.526,2.213,2.656-1.129.748-2.732-.565-2.946.748-1.618-.794-4.105-.153-5.937-.4-.2-.32-1.129-.443-.549-.7-1.206-.458-2.7.565-3.251-.717-1.023.733-2.411.153-3.236-.336-.5.031-.153.656-.519.778-.229-.809-1.007-1.206-1.389-1.908-.672.519.549,1.465-1.053.977-.137.427.519.259.549.565.046.336-.321.412-.259.778-.794-.275-.244-.427-.565-1.145-4.105-2.884-10.363,0-11.05-.046-.244.6-.443.443-.244,1.343-.794-.2-1.343-.458-1.358-.748-.824-.061-.549.626-.794.977-1.221-.259-.29-1.175-1.648-1.511-.305.641.183,1.145-.229,1.923-.763-.519-2.518-.473-2.686.427-.229-.473-1.236-.382-1.1-1.129-.977.015-.687.916-1.328,1.175-.748,0,.626-.534-.549-.382.2,1.023-.656,1.313-1.313,1.74-.061.458.305.61.763.687a2.438,2.438,0,0,1-.855.076,1.232,1.232,0,0,1,.4.305c-.366-.092-.549-.092-.29.275-1.053.061-1.007-.687-2.167-.549-.824,0-.626.7-1.6.6.366.32-.076,1.221.824,1.145-.107.244-.336.4-.794.4-.031.488.427.6.824.763-.229.565-.4.229-1.068.214.321.6-.153.839.305,1.526-.9-.87-.656-1.435-1.4-2.472-.687.031-.519.656-.519,1.16a.807.807,0,0,1-.549-.763c-.626-.153-1.145.687-1.343.214-.473.183-.58.61-.519,1.16-.031,1.038,1.007,1.618,2.732,1.923a1.31,1.31,0,0,1,.259-.6,2.829,2.829,0,0,0,2,.4c-.061-.534.61-.443,1.007-.58.229.061.122.229.107.351.443-.29,1.206-.046,1.633-.565.443.427.733.855,1.419.946.382.061.229-.336.519-.336.656.061.992.229,1.145.443-.412.61-.794,1.251-1.221,1.847.519.015.549.29,1.038.32.092-.275.015-.717.4-.733.046.183.382,1.038.733.473-.488-.4,1.969.061.748-1.267.214.794-.809.4-1.19.626-.076-.962.58-1.206,1.084-1.6.473.366,1.129,1.221,1.74.992-.794.458.336.977.58,1.435.32-1.129,1.4-.7,2.488-.259.687-.137-.427-.794.427-.916.763.122-.031,1.053.916,1.084.2.046.275-.031.305-.137.275.549.6,1.068.9,1.6,1.358-.153,1.877.305,3.236.153-.168.672,1.129,1.038.58,1.908-3.464.259-5.22-.549-6.746-.29,1.6-.336-.7-.763-.839-1.526-.809.382-2.732,0-3.495.427.458,1.679,3.541,1.419,4.105,3.022,1.251-.076.885-1.282,2.4-1.19.855-.275-.961-.183-1.343-.168,1.816-.549,3.693.519,6.2.107-.656.626.992.748-.244,1.16,1.068,1.984,5.159,3.922,7.845,1.435,6.3-.107,7.982,3.2,13.537,3.663-.153.717.717,1.206.031,1.725,2.976,3.2,9.508,3.77,8.821,9.676,4.548,4.121,8.3,8.821,13.72,12.286.259,2.152-3.663,2.366-2.884,4.258-2.442,1.023-1.435,3.266-3.693,3.892-2.091.565-5.052-1.023-7.2.29,0,.382-.733.259-.519.778a1.536,1.536,0,0,0-1.816,1.465c-2.3.107-4.609.2-6.9.305a.13.13,0,0,0-.046-.076.729.729,0,0,1-.061-.183,1.928,1.928,0,0,1,.122-.778,1.781,1.781,0,0,1,.382-.534,5.924,5.924,0,0,0,.626-1.068c.168-.366.275-.778.412-1.129a5.282,5.282,0,0,1,.32-.656c.168-.275.382-.565.382-.565a8.019,8.019,0,0,0,.809-.977,9.783,9.783,0,0,0,.7-1.236,3.666,3.666,0,0,0,.229-.962,4.092,4.092,0,0,0-.061-.87,4.32,4.32,0,0,1,.031-.473,2.515,2.515,0,0,0,.061-.488,2.169,2.169,0,0,0-.229-.733,3.742,3.742,0,0,0-.473-.641,2.146,2.146,0,0,0-.443-.32,6.321,6.321,0,0,1-.626-.4,5.221,5.221,0,0,1-.519-.473,6.065,6.065,0,0,0-.733-.6,1.49,1.49,0,0,0-.488-.183,2.221,2.221,0,0,1-.382-.183,3.024,3.024,0,0,0-.519-.336,1.682,1.682,0,0,0-.565,0s-.687.2-1.3.336c-.412.092-.855.153-.855.153a2.993,2.993,0,0,1-.824-.122,1.187,1.187,0,0,1-.473-.412,2.212,2.212,0,0,0-.961-.519,2.87,2.87,0,0,0-.855.137,12.465,12.465,0,0,0-2.121,1.221,22.16,22.16,0,0,0-2.274,1.938.8.8,0,0,1-.229.168,3.661,3.661,0,0,0-.565.336.783.783,0,0,0-.214.382,4.812,4.812,0,0,1-.946.259.811.811,0,0,1-.427-.122s-.275-.107-.6-.275c-.275-.137-.6-.336-.6-.336s-.107-.336-.153-.336c-.031,0,0,.336,0,.336a5.2,5.2,0,0,0,.229.626,1.375,1.375,0,0,0,.168.244,1.661,1.661,0,0,0,.168.687c.092.137.32.122.32.122h.183a2.288,2.288,0,0,0-.092.61,2.77,2.77,0,0,0,.061.5,1.707,1.707,0,0,1-.305.488.734.734,0,0,1-.29.137s-.259-.244-.6-.5c-.244-.2-.565-.443-.565-.443s-.2-.153-.412-.336a2.715,2.715,0,0,0-.5-.382c-.092-.031-.031.4-.031.4a8.594,8.594,0,0,0,.412,1.3,4.749,4.749,0,0,0,.443.763.709.709,0,0,1-.2.214.354.354,0,0,1-.214.046,5.048,5.048,0,0,1-.946-.214c-.305-.107-.488-.259-.748-.351a3.964,3.964,0,0,1-.412-.168,2.159,2.159,0,0,1-.259-.122c-.107-.076-.229-.2-.305-.2s-.031.32-.031.32a2.449,2.449,0,0,0,.29.855c.153.275.458.534.626.809a3.681,3.681,0,0,0,.6.687.735.735,0,0,1,.2.4,2.117,2.117,0,0,1,0,.565.581.581,0,0,0,.046.32,3.226,3.226,0,0,0,.183.305,1.087,1.087,0,0,1,.092.214,1.736,1.736,0,0,0,.32.58c.137.122.336,0,.336,0a1.5,1.5,0,0,1,.473-.061,1.25,1.25,0,0,1,.427.092.97.97,0,0,0,.366.031c.412-.015,1.068-.107,1.541-.168a1.214,1.214,0,0,0,.626-.229s.794-.29,1.374-.58a3.68,3.68,0,0,0,.6-.366s.183.32.4.626c.183.259.4.5.4.5s.153.565.29,1.038c.076.275.153.6.153.6a3.181,3.181,0,0,1-.076.687.565.565,0,0,1-.2.305,1.225,1.225,0,0,0-.4.275c-8.806.443-17.292.916-25.014,1.3a.643.643,0,0,0-.031-.076.814.814,0,0,0-.2-.336.665.665,0,0,0-.336-.122.873.873,0,0,1-.427-.29,1.486,1.486,0,0,1-.2-.565,2.868,2.868,0,0,1,.229-.916,5.664,5.664,0,0,1,.488-.794,4.612,4.612,0,0,0,.687-.672,2.073,2.073,0,0,0,.336-.6,1.73,1.73,0,0,0,.748.031,3.048,3.048,0,0,0,.824-.351,1.155,1.155,0,0,0,.458.259.626.626,0,0,0,.4-.137A2.842,2.842,0,0,0,91.8,111a.9.9,0,0,0,.275.6,1.1,1.1,0,0,0,.672.061,3.191,3.191,0,0,0,.809.656,5.49,5.49,0,0,0,1.206.443.612.612,0,0,1,.2.092,1.149,1.149,0,0,0,.5.32,1.634,1.634,0,0,0,.809-.107,2.746,2.746,0,0,0,.641.122,2.972,2.972,0,0,0,.61-.046.477.477,0,0,0,.29-.137,1.521,1.521,0,0,0,.32-.473,1.356,1.356,0,0,0,.061-.748s.031-.214.061-.4c.015-.153.015-.29.015-.29s.839-.7,1.465-1.358a7.074,7.074,0,0,0,.839-1.084,8.157,8.157,0,0,0,.641-.931,3.9,3.9,0,0,0,.336-.839s0-.122-.092-.122a.433.433,0,0,0-.259.122,7.882,7.882,0,0,1-1.251.885,10.036,10.036,0,0,1-1.526.672h-.534a2.474,2.474,0,0,0-.382.046,1.8,1.8,0,0,0,.183-.427.538.538,0,0,0-.046-.305,1.368,1.368,0,0,0,.122-.488.811.811,0,0,0-.076-.32.481.481,0,0,0-.366-.076.7.7,0,0,0-.473.214s-.229.275-.427.473a1.324,1.324,0,0,1-.259.2.959.959,0,0,1-.534-.488,6.5,6.5,0,0,1-.488-1.3,1.423,1.423,0,0,0,.153-.626.82.82,0,0,0-.244-.412,2,2,0,0,0,.733-.061.743.743,0,0,0,.382-.351.941.941,0,0,0,.366-.336,1.227,1.227,0,0,0,.122-.427.516.516,0,0,1,0-.168c.015-.076.076-.153.076-.214,0-.092-.046-.107-.046-.107a.384.384,0,0,0-.244,0,1.368,1.368,0,0,0-.29.153,2.9,2.9,0,0,1-.336.092c-.107.031-.275.061-.4.107a2.207,2.207,0,0,1-.336.137,3.306,3.306,0,0,1-.382.061c-.32.061-.58.092-.58.092l-.137-.031a1.087,1.087,0,0,0,.351-.519.612.612,0,0,0-.122-.534s.015-.092-.214-.214a3.677,3.677,0,0,0-.565-.2.268.268,0,0,0-.153.061c-.046.046-.046.122-.076.183a.824.824,0,0,1-.122.122.4.4,0,0,0-.153.137,1.671,1.671,0,0,0-.137.32l-.122-.061a2.571,2.571,0,0,0-.382-1.145,1.331,1.331,0,0,0-.4-.366,1.462,1.462,0,0,0-.351-.122,4.1,4.1,0,0,1-.519-.2c-.122-.061-.153-.107-.244-.153a2.415,2.415,0,0,0-.4-.153,6.189,6.189,0,0,0-.87-.076,1.964,1.964,0,0,0-.534.092.968.968,0,0,1-.336.076c-.2,0-.488-.031-.7-.015-.275.015-.519.046-.519.046s-1.16-.015-1.954.031a3.208,3.208,0,0,0-.778.137,5.218,5.218,0,0,0-.534.122c-.2.061-.351.168-.6.229a4.209,4.209,0,0,1-.763.076s-.29.031-.717.031c-.443,0-1.023-.031-1.572-.046-.885-.031-1.694-.137-1.694-.137s-1.45-.107-2.106-.137a3.154,3.154,0,0,0-.427.046s-.672.122-1.267.244c-.366.076-.763.168-.763.168s-1.831.2-2.869.351a3.31,3.31,0,0,0-.717.2,7.013,7.013,0,0,0-1.053.626c-.473.336-1.084.885-1.084.885a8.138,8.138,0,0,0-.794.87,6.976,6.976,0,0,0-.519.809A1.869,1.869,0,0,0,67.1,106l-.092.366-.061.244a1.88,1.88,0,0,0-.137.824,3.919,3.919,0,0,0,.305,1.038s.458.733.87,1.45c.382.656.7,1.3.7,1.3a7.213,7.213,0,0,0,.488.672.471.471,0,0,0,.214.168,10.631,10.631,0,0,1,.58,1.114,4.8,4.8,0,0,1,.259.855.993.993,0,0,0,.046.427.8.8,0,0,0,.214.275,1.259,1.259,0,0,0,.214.351.564.564,0,0,0,.29.168s.092.137.183.29l.153.275a6.227,6.227,0,0,0-.168.641,1.039,1.039,0,0,0-.015.366c-1.725.046-3.342.076-4.884.092l-3.174-1.816v-2.671l-4.869-1.984-1.77.168c-.122-.427-.214-.778-.214-.778a10.228,10.228,0,0,0-.565-1.114,4.027,4.027,0,0,0-.488-.656,7.073,7.073,0,0,0-.87-1.038,2.6,2.6,0,0,0-.7-.443s-.336-.137-.61-.214c-.382-.122-.717-.2-.717-.2a8.318,8.318,0,0,0-1.16-.214c-.565-.061-1.175-.061-1.16-.061s-1.1-.107-1.664-.244a.61.61,0,0,1-.32-.214.822.822,0,0,0-.214-.412.832.832,0,0,0-.351-.092,2.9,2.9,0,0,0-.61.046,3.131,3.131,0,0,0-.565.214s-.366.076-.458.229c-.122.2.153.336.153.336a.331.331,0,0,1-.122.229,1.712,1.712,0,0,1-.275.2l-.061.061a.6.6,0,0,0-.031.092s-.107.092-.107.168c0,.092.122.168.122.168a.909.909,0,0,0,.183.244.472.472,0,0,0,.183.092,1.407,1.407,0,0,0,.58.076,1.384,1.384,0,0,0,.519-.153,2.088,2.088,0,0,0-.031.733,2.008,2.008,0,0,0,.32.656,7.46,7.46,0,0,1,.778.855.681.681,0,0,1,.107.4,10.167,10.167,0,0,0,.29,1.023,3.54,3.54,0,0,0,.351.717.779.779,0,0,1-.015.137l-2.915.5-2.427-4.67-4.426-.626v-.061c.061-.61.061-1.3.061-1.3a1,1,0,0,1,0-.5,9.346,9.346,0,0,1,.565-1.221,2.817,2.817,0,0,0,.168-.855,2.39,2.39,0,0,0-.183-.855,1.436,1.436,0,0,0,.549.046,1.531,1.531,0,0,0,.549-.244.433.433,0,0,0,.153-.153,1.541,1.541,0,0,0,.122-.336.358.358,0,0,0,.092-.229c0-.092-.137-.168-.137-.168a.4.4,0,0,0-.046-.107.164.164,0,0,0-.076-.061,1.746,1.746,0,0,1-.305-.153.472.472,0,0,1-.168-.244s.229-.244.061-.443c-.137-.153-.5-.153-.5-.153a2.4,2.4,0,0,0-.6-.107,2.148,2.148,0,0,0-.61.092.733.733,0,0,0-.336.2,1.21,1.21,0,0,0-.107.549.682.682,0,0,1-.259.336,14.506,14.506,0,0,1-1.572.717,7.825,7.825,0,0,0-1.114.366,9.626,9.626,0,0,0-1.084.565s-.32.183-.656.427c-.244.168-.549.412-.549.412a2.661,2.661,0,0,0-.6.7,9.762,9.762,0,0,0-.626,1.465,7.185,7.185,0,0,0-.336.9c-.183.672-.305,1.465-.305,1.465s0,.763-.076,1.48c-.061.656-.183,1.282-.183,1.282a1.591,1.591,0,0,1-.259.519,1.948,1.948,0,0,1-.473.4s-.153.092-.137.122c.031.046.229.031.229.031a1.158,1.158,0,0,0,.6-.259,2.8,2.8,0,0,0,.488-.717,2.128,2.128,0,0,0,.107-.5c.046-.473.076-1.129.076-1.129a16.9,16.9,0,0,1,.366-1.908,15.245,15.245,0,0,1,.5-1.6s.2-.412.366-.672a.8.8,0,0,1,.214-.214,3.468,3.468,0,0,0,.473.7,6.125,6.125,0,0,0,.961.778,3.334,3.334,0,0,0,.4.534,2.181,2.181,0,0,0,.4.351.749.749,0,0,0-.107.244c-.031.107-.031.244-.061.351a1.221,1.221,0,0,1-.092.275s-.061.137-.122.244c-.076.137-.137.244-.137.244a.682.682,0,0,0-.107.214.622.622,0,0,0,.168.321.244.244,0,0,0,.107.2,2.225,2.225,0,0,0,.29.107l-2.045,1.541-.946,4.853L28.2,117.016V118.6c-10.3,1.313-17.734,3.068-16.773,4.853,1.694,3.174,120.156-3.174,120.843,0,.672,3.174-31.134,2.06-33.851,3.785-.87,2.472,130.016,3.022,130.016-.427-15.048-1.725-21.031-3.617-21.031-3.617,92.487-2.64,225.143,4.548,226.638.259.778-2.243-7.036-4.487-20.191-5.83-.03-1.938-.183-4-.061-6.089.259-.473.183.778.58.626-.031-.626-.015-.641.351-.473a54.538,54.538,0,0,1-.7-6.41,23.078,23.078,0,0,0-.58-3.907c-.366-1.129-1.251-2.045-1.511-3.449-.183-1.007-.092-2.03-.351-2.976-.626-2.228-1.954-5.479-3.388-6.41-.778-.519-1.725-.626-2.564-1.1a16.882,16.882,0,0,1-2.457-1.251c-.733-.58-1.129-1.725-1.755-2.35-.824-.824-1.877-1.251-2.686-2.03-1.618-1.572-2.7-4.075-3.968-6.257a70.7,70.7,0,0,1-3.51-6.883,16.636,16.636,0,0,1,.7-2.182c-.244-.641-.931-.382-.931-.153H390.2c-.427-.305.32-1.175-.229-1.251-.458-.244,1.129-1.831.687-1.709-.534-.427-.641.931-.946,1.45-.382-.458-.2-.427-.153-.626-.29-.6-.794.534-.366.626-1.633.519-3.449.305-5.021,1.114.259,2.839,2.518,2.289,3.983,4.334.885,1.236,3.419,7.478,4.044,9.05,1.236,3.1,2.717,6.151,3.861,9.066.778,2,.29,3.159.58,5.784.168,1.557,1.282,2.884,1.633,4.685.5,2.61.244,5.494.58,8.76.061.549.366,1.068.473,1.725a29.868,29.868,0,0,1-.046,7.28c-3.571-.137-7.356-.229-11.309-.244a2.037,2.037,0,0,0-.5-.87c-1.145-3.953-.427-9.02-.168-10.638a2.337,2.337,0,0,0,.748-1.892c0-.58-.549-1.145-.366-1.938,1.3-3.358,2.2-7.234,3.77-10.256.092-.382-.153-.946.076-1.206.656,0,.778-.656.824-1.419-.519-.214-.824.275-.992.687-.092-.382-.336-.763-.076-1.16a.672.672,0,0,0-.214-.366h-.122a2.132,2.132,0,0,1-.244.153c0,.2.061.717-.122.733-.214-.107,0-.458,0-.626-.107-.305-.717-.2-.656.214.305.2.092.748,0,1.053-.061.046-.748-.549-.992-.107.229.443.259,1.145.87,1.1.305.488-.107,1.023-.244,1.419-.168.076-.244.275-.412.366a43.194,43.194,0,0,1-2.686,4.777,5.609,5.609,0,0,0-1.16,1.48c-.9.58-1.45,1.633-2.61,1.938-1.007.275-1.954-.031-2.564.626a16.542,16.542,0,0,0-1.206,1.526c-1.007,1.618.076,3.632-.656,5.632-.733.29-.748,1.465-1.114,2.213a.049.049,0,0,0,.046.046.22.22,0,0,1,.031-.046c0,.031-.015.046-.031.046-.382.549.122,2.076-.427,2.64.4.061.626-.549.748-1.053-.259-1.19.656-1.679.87-2.427.122-.4,0-.885.122-1.465.061-.275.244-.519.29-.794.2-1.038-.122-2.076.168-3.266.061,1.236.7,1.923.7,3.052,0,1.206-.58,1.77-.7,2.793a8.659,8.659,0,0,0,.122,1.374,26.524,26.524,0,0,1-.122,4.258l-.092,1.129c-5.006-1.129-13.949-.015-16.178-2.228-.87-.855.107-2.182-1.755-2.976-.259-4.655,4.121-4.243,4.472-7.631.305-2.93-2.854-4.441-2.579-7.463.214-2.213,2.228-4.09,3.022-6.395.031-9.935,6.624-16.04,10.576-23.839,1.374.031,2.991.305,3.6-1.19a5.739,5.739,0,0,1-2.915-.259,27.361,27.361,0,0,0,1.5-4.2,17.134,17.134,0,0,1,4.136.809c-.153.275-.29.549-.687.61a7.253,7.253,0,0,0,2.411.855c1.48-.885,5.342-.839,6.166-1.343.137-.733-.641-.641-.366-1.5a4.622,4.622,0,0,0-3.434.076c-.778-.153.412-.473-.351-.9.2-.733,1.3-.7,2.045-.946,1.541,1.4,5.021.855,5.494-1.023.58-.122.656.214.687.58a1.816,1.816,0,0,0,1.709-1.541c-1.45-.641-1.114-.641-2.427-2.045.412,1.816-3.541,2.366-5.143,1.618-1.084,2.457-3.1,2.045-6.166,1.954.336-.5,1.587-.244,1.709-.946-.427-.5-1.023-1.511-1.725-.87.153-1.664,1.725-2.121,2.717-3.068,1.419-.382,1.343.6,2.411.549.763-.549,2.121-.6,2.045-1.847,1.908.32,2.259,2.533,4.487,1.709-.015-.641,1.267-1.664.672-1.816-.733-.122-.656.443-.672.916-.809-.076-.656-1.023-1.725-.87.031-1.267,1.557-1.267,3.083-1.267.519.244.5.961.7,1.5.824-.626,4.472-1.267,4.807-.412,1.084-.275.458-2,2.045-1.847-.382,2.091,14.59-1.48,16.529-1.877-.076-1.313-.61-.534-1.725-.565-.473-.29.137-.5-.7-.885.4-.656,1.862-.412,1.358-1.831-1.6.046-3.373-.168-5.159-.137v.122a1.97,1.97,0,0,1-1.557,0,10.828,10.828,0,0,0-1.19.214.693.693,0,0,1,.473-.29.688.688,0,0,1-.137-.153c1.45-1.923,7.982.122,7.524-2.991,1.343-.153,2.625-.092,2.045-1.251a9.389,9.389,0,0,0,3.083-.977c-.961-.778.244-1.053.32-1.816-.931,0-.687.519-1.374.031.137-.58.977-.565.672-1.526-1.282.351-.549-1.114-1.725-.87-.794.229-.488,1.374-1.358,1.541-.778-.153.412-.473-.351-.9-1.831.443-2.243.748-2.732,1.862-.412-.443-1.007-.717-1.053-1.48,1.282-.855,2.274-.214,3.77-.992-.733-.519-.61-1.038-1.725-.565-.549-1.511,2.152-1.374,2.717-2.762-1.175,1.129-1.648-1.251-.351-1.19-.153-.565-.748-.733-.7-1.48a2.842,2.842,0,0,0-1.007,1.831,12.513,12.513,0,0,1-.7-2.091c-1.786.641-16.758-.031-15.155,2.747-.5-.244-1.328-.214-1.038-1.175-1.465.458-1.312,1.114-.672,2.121a2.722,2.722,0,0,0-2.762-1.145c.717-1.4.351-1.251-.03-2.7a3.056,3.056,0,0,1-3.434.076c.336-1.419-.809-1.5-1.389-2.076-.4.061-.29.549-.336.916-.61-1.023-1.938-.717-2.427-2.35-.9.916-1.557,1.923-2.732,1.862-.641-.031-.229-1.007-.7-1.19-1.114-.153-1.725.137-2.06.656-.809-.427-.534-.717-.366-1.5-2,.214-.687-.794-1.389-1.465-1.251-.259-.275,1.358-1.358,1.236-.275-.305.748-1.374-.366-2.106-.9-.076-1.129.443-1.023,1.221-.519-.244-.5-.961-.7-1.5-1.511.427-2.152-.259-2.732.961-.4-.046-.29-.549-.351-.9-1.374.565-2.167.778-3.434.076.061-2.289,1.221-2.06.29-4.518a3.481,3.481,0,0,1-3.1-.229c-.229.931-.229.58.015,1.511-1.892-.473-.641-2.015-2.427-2.656-2.442.656-.656,4.029-.977,5.143-.244-.641-1.969-2.656-2.411-1.145-.992-.305-1.145-.885-.7-1.786-1.221-.443-.2,1.023-1.023.931-.763-.015-.153-1.267-.366-1.8a2.076,2.076,0,0,0-1.343,2.442c-.839.061-.931-2.259-1.038-.275-1.007-.229.2-.977-.015-1.511-1.221.488-.214-1.023-1.038-.885-1.19-.122-.366,1.48-1.358,1.541-1.053-.351.488-1.16-.366-1.5-1.465.5-2.915.977-3.1-.824-.382.672-1.908,1.282-1.007,2.121-.717-.458-1.709.763-2.4,1.251-.565-.7-1.343-1.206-1.053-2.686.443.412,1.816-.031,1.389,1.175,1.8-1.862-1.4-1.572-.7-2.091-.351-.916-.931.351-1.023.626-.473-.076-.29-.748-.351-1.19-.61-.031-.717.382-1.374.336.626,1.45,1.114,3.037,1.77,4.472-.229.656-1.145-.549-1.389-.87-.32.183-.5.855-.687.32-1.038,1.267,1.313,2.045,1.755,2.976-.839.763-1.023-.61-1.725-.87-.641.992.031,1.541-.305,3.022,1.587-.183,1.435.824,2.762,1.435-.946.977-1.908.336-3.1.076.427,1.664-1.374-.031-1.358,1.541-.61.046-.733-.351-1.374-.275,1.206-.58.9-1.648.32-2.717-.214.519-1.038.519-1.358.931-.763-.214.046-1.862-1.389-1.465.412,1.236-.717,1.19-.672,2.121-.748-.443-2.259-.488-1.374.626-1.038.32-.61-.656-.7-1.19l-1.374.031c.7,1.251,1.831,1.328,1.74,2.671-1.038,1.206-2.884-1.389-3.1-.092-.534-.122-.305-.946-1.374-.565-.244.824.687.6.7,1.19-2.335.031-.748-1.6-2.762-1.74-.336,1.877,1.618,2.381,2.793,4.151-1.45,1.19-3.48-.855-3.77,1.19-2.06-1.236-5.235-.2-7.57-.565-.259-.5-1.435-.687-.7-1.084-1.526-.7-3.434.916-4.136-1.114-1.312,1.16-3.083.244-4.136-.5-.641.061-.2,1.023-.672,1.221-.29-1.267-1.267-1.877-1.755-2.976-.855.809.687,2.289-1.358,1.541-.183.672.656.412.7.885.046.534-.412.641-.336,1.206-1.023-.412-.305-.672-.7-1.786-5.2-4.487-13.217.092-14.087.015-.32.916-.58.7-.32,2.106-1.007-.32-1.709-.7-1.725-1.16-1.038-.092-.7.992-1.023,1.526-1.557-.4-.366-1.831-2.091-2.366-.4,1.007.214,1.8-.305,3.022-.977-.794-3.2-.717-3.434.687-.29-.748-1.572-.6-1.389-1.77-1.251.046-.885,1.45-1.694,1.847-.961.015.809-.839-.687-.58.244,1.587-.839,2.076-1.694,2.747-.076.733.382.961.977,1.084-.366.031-.58.244-1.084.122a1.686,1.686,0,0,1,.5.473c-.458-.137-.7-.137-.366.427-1.343.107-1.282-1.053-2.762-.839-1.053,0-.809,1.1-2.045.946.458.488-.107,1.923,1.053,1.786a.974.974,0,0,1-1.023.626c-.046.748.534.931,1.038,1.175-.29.885-.5.351-1.374.336.412.946-.2,1.328.366,2.4-1.145-1.374-.809-2.259-1.755-3.877-.87.046-.672,1.023-.672,1.816a1.284,1.284,0,0,1-.7-1.19c-.809-.244-1.465,1.084-1.709.336-.6.29-.748.961-.672,1.816-.046,1.633,1.282,2.533,3.48,2.976a2.22,2.22,0,0,1,.336-.946,3.027,3.027,0,0,0,2.549.61c-.076-.839.778-.7,1.3-.916.29.092.137.351.137.565.58-.458,1.526-.076,2.091-.9.565.656.931,1.328,1.816,1.48.473.092.29-.519.672-.549.839.107,1.267.351,1.45.687-.519.977-1.023,1.969-1.572,2.9.656.031.7.443,1.313.5.122-.443.031-1.114.5-1.145.061.275.473,1.618.931.748-.626-.61,2.518.092.977-1.984.275,1.236-1.038.641-1.526.992-.092-1.5.748-1.892,1.389-2.533.61.58,1.435,1.908,2.213,1.541-1.007.733.427,1.526.733,2.243.427-1.77,1.8-1.114,3.19-.443.885-.229-.534-1.236.549-1.435.977.183-.046,1.664,1.145,1.694.259.076.351-.046.4-.214.351.87.763,1.664,1.129,2.5,1.725-.244,2.4.458,4.121.214-.229,1.053,1.419,1.618.717,2.991-4.411.443-6.654-.824-8.592-.412,2.045-.549-.885-1.19-1.053-2.381-1.038.61-3.48.046-4.456.7.565,2.625,4.5,2.2,5.2,4.7,1.6-.137,1.129-2.03,3.068-1.877,1.084-.443-1.221-.275-1.725-.259,2.32-.87,4.7.794,7.906.122-.855.992,1.251,1.16-.321,1.816,1.343,3.1,6.532,6.12,10,2.182,8.043-.214,10.149,4.975,17.246,5.632-.2,1.129.9,1.877.031,2.7,3.754,4.991,12.1,5.83,11.156,15.094,5.754,6.425,10.5,13.766,17.383,19.169.305,3.373-4.7,3.739-3.709,6.7-3.129,1.618-1.862,5.143-4.746,6.12-2.656.9-6.44-1.557-9.2.519,0,.6-.931.4-.672,1.221a1.951,1.951,0,0,0-2.121,1.358c-2.366,0-4.838.015-7.4.015l-3.6-6.914-5.021-.7-5.311,4.014-.687,3.571c-7.509-.046-15.521-.122-23.808-.229l.031-.031a3.659,3.659,0,0,0-.427-1.48c.122-1.694.534-3.19.641-4.9.092-1.679-.137-3.571-.046-5.387.092-.916.778-1.831.824-2.793a9.255,9.255,0,0,0,.32-1.923,12.446,12.446,0,0,0,2.3-.061c.275-.488-.336-1.007.214-1.236a15.574,15.574,0,0,1,4.594,1.755c.137,0,2.152,14.514,2.411,14.712.259.275,1.77-.32,1.786-.6v-1.023l-.672-3.449a19.529,19.529,0,0,1,.29-8.272c.168-.031.336-.946.321-1.465.153,0,.061-3.19-.336-3.449-.046.092-2.61-7.326-4.487-7.692a.875.875,0,0,1-.778-.229c-1.694,0-1.923-3.083-5.342-3.632a27.009,27.009,0,0,0-4.441,2.137c.2.4.29.977.153.977a22.437,22.437,0,0,1-3.693.549c-1.709.5-7.692-1.465-13.308-.336-3.693,1.282-5.448,6.746-5.448,6.868,0,.107-.977,8.379-.9,8.425a7.633,7.633,0,0,0,1.023-1.557c.305-.275-.061-3.678.6-4.411-.092.168.488,2.915.488,3.068a12.536,12.536,0,0,0,.488,1.328c-.687,2.3-.962,4.838-1.6,7.143.076.076-2.656,4.64-2.015,6.517q-5.563-.114-11.156-.259a1.707,1.707,0,0,0-.214-.794c.107-.931.351-1.74.443-2.686.076-.916,0-1.954.076-2.961.061-.5.458-.992.5-1.526a5.387,5.387,0,0,0,.214-1.053,5.842,5.842,0,0,0,1.267,0c.168-.259-.168-.565.137-.672a8.408,8.408,0,0,1,2.488,1.023c.076,0,.916,8,1.053,8.1.137.153.977-.153.992-.305,0-.076,0-.488.015-.565l-.305-1.892a10.975,10.975,0,0,1,.305-4.533c.092,0,.2-.519.2-.794a4.179,4.179,0,0,0-.122-1.908c-.031.046-1.3-4.06-2.32-4.289a.516.516,0,0,1-.427-.137c-.931-.031-1.007-1.709-2.869-2.076a15.764,15.764,0,0,0-2.488,1.114c.107.229.137.549.076.534a12.5,12.5,0,0,1-2.045.244c-.946.244-4.2-.916-7.3-.366-2.06.656-3.113,3.632-3.113,3.693s-.687,4.579-.656,4.609a4.344,4.344,0,0,0,.6-.839c.168-.153.031-2.015.412-2.411-.046.092.214,1.6.214,1.694a5.841,5.841,0,0,0,.244.733c-.412,1.251-.626,2.64-1.007,3.892.031.046-1.618,2.64-1.206,3.632v.107c-10.9-.336-21.626-.733-31.76-1.19M88.44,61.647a.487.487,0,0,1-.351.336c-.321-.061-.885.061-.809-.534a4.813,4.813,0,0,1,1.16.2ZM97.628,68.9s-.137-.031-.2-.046A.527.527,0,0,1,97.628,68.9Zm5.265,1.282c-1.145-.153-2.411-.61-3.51-.275-.916-.168-.046-.427-.549-.763a3.687,3.687,0,0,1-1.084-.214c.183-.32-.641-.87.153-.931-.107,1.267.183-.2.824-.092a1.25,1.25,0,0,0,.809,1.648c.214-.32-.137-1.16.458-1.1.656,0-.29.839.7.672-.259-.61-.076-.961.717-1.068.2.992,1.74-.137,2-.519.107.549-.839,1.8-.519,2.656Zm7.646,5.326c-.046-1.343,2.472-.626,2.961.153A25.381,25.381,0,0,1,110.539,75.5Zm-4.09-2.442c1.572.259,3.174.519,3.8,1.48C108.433,75.275,106.022,73.978,106.449,73.062Zm-1.862.992c1.206.015,1.587.656,2.442.931-1.267.351-1.236-.229-2.7-.153A.851.851,0,0,1,104.587,74.054Zm8.318-2.03c-.977.458-3.129.107-4.579.259-.961-.87-2.472-1.084-3.648-2.091a1.186,1.186,0,0,1,1.16-.809c-.29.565-.244.336-.153.946a3.246,3.246,0,0,1,2.427.107,3.135,3.135,0,0,0,.382-.748,3.223,3.223,0,0,1,.32.473c.855.229.153.4.565.946A23,23,0,0,0,112.9,72.025Zm10.622,5.616c-.183.6.473.565.29,1.145-6.929-.672-9.8-4.487-14.941-5.937C116,71.384,117.773,76.847,123.527,77.641Zm.794-.977c-2.915-1.16-6.12-2.121-8.165-3.922C120.185,72.956,124.015,74.344,124.321,76.664Zm46.488-6c.58.351,2.808.519,1.908,1.313C172.533,71.323,170.015,71.384,170.808,70.666Zm-1.374-1.129c1.282-3.693,7.814-.443,10.744-1.3-.275.992-1.847.6-2.946.61-.092.275-.321.32,0,.58-.656-.183-2.243-.305-1.068.2-1.328.076-3.113.473-4.319-.137.839-.122,2.64-.565,2.137-.992-.794.717-2.717.641-3.754,1.206.031-.733-.229-.061-.809-.183Zm-2.961-.153c.962.031.977-.6,1.877-.6.229.534-.366.5-.244.961-.717,0-1.587.122-1.618-.366Zm-.946,6.929c-.626-.534-1.572.29-2.686.031C162.475,74.909,166.642,75.2,165.528,76.313Zm-1.969-4c-.351-.7,1.328-.962,1.6-.6-.58.412-1.313.733-1.862,1.175-1.084-1.114-2.106.549-3.22.626C159.7,72.055,162.521,72.223,163.559,72.315Zm29.715,16.071a1.75,1.75,0,0,1,.519-.092c.046.29-.214.229-.366.259a.219.219,0,0,1-.153-.153Zm-7.31,4.029c-.519.473-1.206.58-1.633.992a9.522,9.522,0,0,1-2.06-.122,9.766,9.766,0,0,0,1.587-.427c.183-.259-.137-.336.244-.458a1.987,1.987,0,0,1,.153-.229,1.411,1.411,0,0,0,.168.351,1.374,1.374,0,0,1,1.1-.046c.046-.29.061-.183-.076-.458a.515.515,0,0,1,.519.382Zm.565-1.267c.107.183.809.717.9.244.366.046.443.229.321.5.443.092.031-.321.32-.321.275-.031.107.382.214.519a.6.6,0,0,0,.366-.778c.29-.046.427.641.382.046.366.031,0,.29.076.443a2.1,2.1,0,0,1-.488.107c-.229.153.168.29-.244.366a4.026,4.026,0,0,0-1.587.122c.137-.4-.29-1.007-.244-1.267Zm-1.618,3.525c.382-.122.549-.427,1.1-.443a.466.466,0,0,1,.122.366C185.475,94.551,185.49,94.841,184.91,94.673Zm-1.45-.214c.275-.458,1.007-.58,1.709-.7C185.368,94.185,184.269,94.811,183.46,94.46ZM182,94.978c.229-.366,1.358-.7,1.343-.076A9.239,9.239,0,0,1,182,94.978Zm-4.5.916c2.594-.366,3.373-2.961,6.593-2.259-2.32.687-3.6,2.488-6.73,2.793-.076-.275.214-.259.137-.549Zm-.351-.458c.137-1.1,1.862-1.755,3.678-1.847A12.589,12.589,0,0,1,177.142,95.436ZM260.09,112.5Zm42.718-2.839ZM285.791,36.693a.748.748,0,0,1-.458.534c-.412-.107-1.145.107-1.023-.839a4.607,4.607,0,0,1,1.48.32Zm11.4,11.217a1.591,1.591,0,0,1,.259.076C297.375,47.957,297.283,47.941,297.191,47.911Zm6.959,2.045c-1.465-.214-3.068-.931-4.487-.412-1.16-.244-.046-.672-.7-1.19a3.945,3.945,0,0,1-1.374-.336c.244-.5-.824-1.358.2-1.465-.153,1.984.244-.305,1.068-.153a2.072,2.072,0,0,0,1.023,2.579c.275-.488-.168-1.816.6-1.74.824,0-.382,1.328.9,1.053-.321-.946-.092-1.511.931-1.694.244,1.557,2.228-.229,2.549-.839.137.855-1.084,2.839-.687,4.166Zm9.707,8.3c-.031-2.121,3.144-1.007,3.785.214C316.009,58.732,315.277,58.182,313.857,58.258Zm-5.189-3.8c2.015.4,4.044.778,4.838,2.3C311.187,57.938,308.119,55.908,308.668,54.458Zm-2.4,1.557c1.541.015,2.015,1.007,3.113,1.435-1.618.565-1.572-.366-3.434-.229a1.508,1.508,0,0,1,.336-1.206Zm10.622-3.251c-1.267.717-4,.2-5.83.427-1.221-1.358-3.144-1.679-4.624-3.251.244-.565.4-1.145,1.48-1.282-.366.885-.32.534-.214,1.5,1.358-.534,1.847-.29,3.1.153a5.152,5.152,0,0,0,.488-1.19,3.92,3.92,0,0,1,.412.748c1.084.366.183.61.7,1.5a23.517,23.517,0,0,0,4.487,1.4Zm13.491,8.715c-.244.931.6.87.366,1.8-8.821-.992-12.454-6.959-19-9.188,9.111-2.366,11.309,6.181,18.635,7.4Zm1.007-1.526c-3.709-1.8-7.784-3.266-10.378-6.089C326.143,54.168,331.027,56.32,331.393,59.952Zm59.353-9.783c.733.549,3.571.794,2.427,2.045C392.944,51.192,389.739,51.3,390.747,50.17Zm-1.74-1.77c1.679-5.784,9.966-.748,13.72-2.121-.351,1.557-2.366.931-3.77.992-.122.427-.412.519,0,.9-.839-.275-2.869-.458-1.374.336-1.694.137-3.968.763-5.494-.183,1.068-.2,3.388-.9,2.732-1.572-1.023,1.129-3.48,1.038-4.792,1.908.046-1.16-.29-.107-1.038-.275Zm-3.785-.214c1.236.046,1.251-.931,2.4-.961.29.839-.473.794-.32,1.511-.916.015-2.015.214-2.06-.549ZM383.97,59.052c-.794-.839-2.015.473-3.434.076C380.094,56.885,385.4,57.312,383.97,59.052ZM381.5,52.795c-.443-1.1,1.694-1.511,2.045-.946-.748.656-1.679,1.175-2.381,1.862-1.374-1.725-2.686.87-4.105.992-.488-2.289,3.129-2.06,4.441-1.908Zm30.936,52.318c-.885-1.267-1.343-3.938-.931-6.41C412.083,100.747,413.334,102.319,412.434,105.112Zm-4.09,11.874c.244-1.74.412-3.358.809-5.143.565-2.488,1.862-4.166.7-6.41a2.667,2.667,0,0,1,.305.29,6.81,6.81,0,0,0,.9,2.518c.076-.229.122-.443.168-.641a22.549,22.549,0,0,1,1.16,9.737C411.09,117.215,409.732,117.093,408.343,116.986Zm-6.074-17.353a4.3,4.3,0,0,0,2.915-.473c.58,1.465.763,3.129,1.526,4.685.672,1.389,1.587,2.686,1.633,4.38a28.166,28.166,0,0,1-1.755,7.814,3.891,3.891,0,0,1-.5.763c-1.419-.092-2.884-.183-4.4-.244-1.358-5.128-.351-11.8.58-16.941Zm-17.841,15.949a42.891,42.891,0,0,1,1.282-7.356c.061,1.251.534,6.166.61,7.158a.957.957,0,0,1,.168.794h0c-.534.015-1.053.015-1.587.015a1.394,1.394,0,0,0-.473-.626Zm-3.434-6.944c.076-1.053.458-3.129.946-3.2.534-.076,2.076,1.053,2.976.366-.565,3.358-.672,6.441-1.328,9.722a.959.959,0,0,1,.153.687c-.58,0-1.145,0-1.725.015a2.192,2.192,0,0,0-.443-.641,23.063,23.063,0,0,1-.58-6.944Zm-1.16,1.679a33.539,33.539,0,0,1,.87,5.708l.2.2h0c-.305.015-.61.015-.916.031a1.452,1.452,0,0,0-.366-.565,20.432,20.432,0,0,1,.214-5.357ZM333.148,62c2.03,1.877,4.426,4.441,3.861,7.738C332.9,69.735,331.408,65.462,333.148,62Zm2.64-9.691c-.641.366-2.228,1.465-3.083.672C333.7,52.9,334.69,51.3,335.789,52.306Zm2.182,11.981a26.643,26.643,0,0,1-5.586-8.592c1.053.2,1.007-.549,2.06-.351.29,1.038-.5,1.175-.321,2.121,1.328-.061,3.174.29,2.732-1.267-.733.962-2.015.153-2.076-1.16,2.4-.153,3.342-1.541,5.83-1.633-.305,1.48,1.679.9,2.076,1.755-1.587.305-2.488-.641-3.083.366.351.4.58.9,1.038,1.175,2.869.473,3.007-.519,4.456-1.007.824,4.7-3.846,7.066-7.127,8.592Zm4.93,10.424c-1.328-3.052-3.983-4.9-3.541-9.554a10.5,10.5,0,0,0,5.464-3.434C352.21,65.264,345.19,70.331,342.9,74.711Zm9.127-14.056c-1.3.5-2.121,1.389-3.419,1.877-.488-.87-1.6-1.175-2.091-2.06a11.374,11.374,0,0,1,5.494.183Zm5.784-5.845c-3.144,2.823-5.082,1.45-9.249,3.22,0-.794.107-1.725-.366-2.091,3.22-.656,4.655-2.823,8.562-2.9.2.733,1.343.61,1.053,1.786Zm2.732-2.167c-.061-.443-.839-.259-1.374-.275-.214-1.267.916-1.419,1.694-1.847C361.688,51.009,361.52,52.169,360.543,52.642Zm2.427,2.045a9.67,9.67,0,0,1-1.709.946c.076-1.251-.458-1.16-.015-2.106,1.007,0,1.282.656,1.725,1.16Zm5.525,2.884c.488.061.4.656.7.885-2.732,2.472-3.3-2.137-6.532-.748.229-.9.4-1.847,1.358-2.137.687,2.243,2.564,1.053,4.823,1.1-.046.4,1.4.87.351,1.19-.092-.32-.58-.7-.687-.29ZM362.6,52.886c2.64.305,4.777-.137,6.868.137C368.479,54.626,363.58,54.5,362.6,52.886Zm2.823,6.547c-.168,1.145-1.328,1.465-2.381,1.862-.6-.366-1.358-.6-1.389-1.48,1.221-.961,2.167.275,3.434.229.183-.443-1.343-.7-.351-.9C364.817,59.373,365.03,59.495,365.427,59.434Zm7.478-7.387c-2.64-.076-6.044.778-10.653.244C364.435,50.276,371.257,49.956,372.905,52.047Zm-.962,6.044c.321-1.526,3.052-1.267,3.083-2.35C375.164,57.511,373.974,58.152,371.944,58.091Zm-1.938,11.477c-.794-1.511-2.274-2.4-3.129-3.846,1.679-.61.794-3.083,1.679-3.648,1.175.366.183,1.282.7,1.786,1.526.046,2.961.672,3.083-.977-2.595-1.1.076-.778,1.709-.336a20.894,20.894,0,0,1-4.044,7.02ZM357.888,93.7c-5.632-4.518-8.806-8.9-13.217-14.529C343.3,71.445,353.218,70.407,350,63.1c2.106-1.038,4.075-2.3,4.777-3.724,4.67.427,6.486,3.434,10.7,4.273.931.87-1.267.916-.656,2.427,8.455,6.517-3.373,12.133-3.922,19.047C360.558,89.316,360.635,90.308,357.888,93.7Zm-81.941,13.583a29.367,29.367,0,0,0,7.341-1.053c.916,1.251,3.571,4.914,3.6,5.2.107.046-2.335.809-3.388,1.206a2.755,2.755,0,0,0,2.35,3.877,5.284,5.284,0,0,1,2.64-2.472c.015.275-.305,1.45-.244,1.8-.168.5-.351.916-.214,1.19-3.159-.046-6.364-.107-9.584-.153a2.738,2.738,0,0,0-1.541-1.923c-.305-1.557-.458-5.54-.961-7.677Zm-6.715,8.2c.382-1.541.488-3.938,3.113-6.563a57.338,57.338,0,0,1,1.038,7.86c-1.084-.015-2.152-.046-3.236-.061-.259-.443-.687-.717-.916-1.236Zm-23.839-4.7a17.182,17.182,0,0,0,4.06-.473c.488.7,1.862,2.747,1.877,2.9.061.031-1.3.412-1.892.61a1.509,1.509,0,0,0,1.221,2.167,2.874,2.874,0,0,1,1.5-1.313,9.284,9.284,0,0,0-.168.977c-.107.275-.2.488-.137.641l-5.265-.137c.092-.321-.382-.946-.809-1.129-.137-.855-.153-3.052-.382-4.228Zm-3.831,4.411a6.164,6.164,0,0,1,1.831-3.556,31.2,31.2,0,0,1,.427,4.426.047.047,0,0,1,.031.015l-1.755-.046c-.107-.336-.4-.488-.534-.824Zm-36.323-.656.809.137c-1.206-.061-2.411-.107-3.617-.168m-1.908-.092c-.427-.015-.855-.046-1.282-.061m-73.532-36.43c1.6,1.206,3.48,2.854,3.068,4.945C125.557,82.845,124.366,80.113,125.709,77.916Zm2.03-6.166c-.5.229-1.74.931-2.411.412C126.106,72.116,126.885,71.109,127.739,71.75Zm1.77,7.646a17.465,17.465,0,0,1-4.426-5.51c.824.122.778-.336,1.618-.214.229.656-.382.748-.244,1.343,1.038-.031,2.488.2,2.137-.794a.986.986,0,0,1-1.633-.748c1.877-.092,2.61-.977,4.563-1.023-.229.946,1.328.58,1.633,1.129-1.236.2-1.954-.427-2.427.229a4.405,4.405,0,0,0,.824.763c2.243.305,2.35-.32,3.495-.626.656,3.007-2.976,4.487-5.555,5.448Zm3.907,6.669c-1.053-1.954-3.144-3.144-2.823-6.1a8.466,8.466,0,0,0,4.273-2.167c5.815,2.289.32,5.494-1.45,8.272Zm7.1-8.928c-1.007.32-1.664.87-2.671,1.19-.382-.565-1.267-.763-1.648-1.328A10.873,10.873,0,0,1,140.513,77.137Zm4.5-3.709c-2.457,1.786-3.983.9-7.234,2.015,0-.5.076-1.1-.29-1.343,2.518-.412,3.632-1.786,6.7-1.816C144.344,72.757,145.245,72.681,145.016,73.429Zm2.121-1.374c-.061-.29-.656-.168-1.084-.183-.168-.809.7-.9,1.328-1.175.641.32.519,1.053-.244,1.343Zm1.908,1.313a8.131,8.131,0,0,1-1.328.6c.061-.794-.366-.748-.031-1.343C148.48,72.62,148.694,73.047,149.045,73.368Zm4.35,1.862c.382.046.32.412.549.565-2.137,1.572-2.595-1.374-5.128-.5.168-.58.305-1.175,1.053-1.358.549,1.435,2.015.687,3.785.717-.031.259,1.1.565.29.763-.061-.214-.458-.458-.549-.183Zm-4.64-3.007c2.06.214,3.739-.076,5.387.122C153.379,73.368,149.533,73.261,148.755,72.223ZM151,76.42c-.137.733-1.038.931-1.862,1.175-.473-.244-1.068-.382-1.1-.946.961-.61,1.709.183,2.7.153.137-.275-1.053-.458-.275-.565.061.153.229.214.549.183Zm5.83-4.685c-2.06-.061-4.731.473-8.348.107C150.174,70.575,155.531,70.392,156.828,71.735Zm-.733,3.846c.244-.977,2.4-.794,2.4-1.5C158.614,75.214,157.668,75.611,156.1,75.581Zm-1.465,7.31c-.626-.961-1.786-1.541-2.472-2.457,1.313-.382.61-1.954,1.3-2.32.916.244.137.824.565,1.145,1.19.031,2.335.443,2.411-.61-2.03-.717.046-.488,1.343-.214A12.541,12.541,0,0,1,154.631,82.891Zm2.167,9.035c-.259.061-.382-.259-.366.092-.458-.259-1.328-.229-1.694-.58-.229.2.58.412.962.473a3.955,3.955,0,0,1-1.938.061c.534-.244-.183-.183-.488-.107.153-.122.046-.137,0-.275-.412,0-.961.107-1.206-.107a.542.542,0,0,1,.061-.137c1.389.244,4.105-1.084,4.67.6Zm-.61.534c.351.336-.778.305-.855.626C154.936,92.7,155.928,92.628,156.187,92.46Zm1.954-.61c-.015.229-.412.168-.733.168.046-.214-.214-.2-.122-.458.412,0,.412.305.839.29Zm2.884,1.969c-.5-.031-.961-.824-1.45-.305-.259-.214-.58-.366-.839-.565.122-.168.885-.046.717.29C159.926,93.193,161.193,93.116,161.025,93.818Zm-1.236,1.343c-.5.122-.931-.275-1.221-.015C158.064,94.627,159.942,94.49,159.789,95.161Zm3.037-.305c-.717.015-1.145-.168-1.084-.7C161.743,94.475,162.719,94.4,162.826,94.856Zm2.427.58c.443.015.778-.366,1.221-.076,0,.275-.29.336-.488.443-.382-.122-.778-.214-.839-.565.137.015.214-.015.244-.092.351.061-.183.137-.122.275Zm-1.45-.473c.107-.076.076-.244.244-.275-.046-.122-.214,0-.244.092-.366-.092.137-.244.122-.366.794,0,1.465.351,1.709-.336.336.092.4.366.473.641-1.145-.412-1.343.977-2.3.229Zm-.092-1.633c.748-.092,1.5.046,2.427-.046A2.194,2.194,0,0,1,163.711,93.33Zm.916,3.846c-.305.443-.824.7-1.114,1.16a5.9,5.9,0,0,1-1.419-2.121c.58-.137,1.526-.229.61.107.046.5.549.305,1.084.29.183-.153-.168-.427.244-.534C164.337,96.245,164.032,96.993,164.627,97.176Zm1.648-4.075a31.273,31.273,0,0,1-3.77-.061C163.086,92.414,165.5,92.491,166.275,93.1Zm.351.366c.153.29-.031.259,0,.641a3.082,3.082,0,0,1-.6-.29c.153-.153.259-.351.61-.351Zm.733-.351c-.2,0-.458-.046-.488.076-.351-.137-.4-.488-.107-.641.275.122.672.168.6.549Zm3.877,1.068c-.168.107-.122.4-.137.641-1.465-.534-2.152-.107-3.266-.961-.107-.351.305-.32.366-.534,1.374.015,1.877.672,3.022.87Zm.58,1.374c-.168.259-.565.366-.733.626-.458-.153-.748-.412-1.206-.565a4.891,4.891,0,0,1,1.938-.061Zm4.9-2.289c-.305.244-.87-.092-1.084-.2C176.012,92.765,176.379,93.254,176.714,93.269ZM176.547,96a1.494,1.494,0,0,1-1.374,2.335C174.975,97.344,175.829,96.566,176.547,96Zm-4.228-1.892c.519.153.565.443,1.572.305.168-.092.244-.244.366-.351-.214-.305-.534-.015-1.1-.107.137-.259.839-.076.733-.534.87.031,1.206.443,2.06.488-.015.4-.473.641-.733.351-.153.473.488.366.961.382.061-.29-.214-.32-.107-.641.366-.061.351.168.733.107a8.24,8.24,0,0,1-1.984,2.61c-1.16-.458-2.808-1.16-2.5-2.594Zm.763,5.754c-.809-1.328-3.281-2.854-.672-3.922a3.825,3.825,0,0,0,1.923,1.038c.153,1.4-.794,1.969-1.267,2.884Zm-6.364,3.174c-.183-2.091-4.365-3.785-1.374-5.754.214-.458-.565-.473-.229-.733,1.5-.259,2.137-1.175,3.785-1.3a3.654,3.654,0,0,0,1.679,1.114c-1.145,2.213,2.366,2.518,1.862,4.853a25.294,25.294,0,0,1-4.685,4.411,3.167,3.167,0,0,1-1.053-2.594Zm-15.613,1.236c.229-1.862-2.259-2.839-2.06-4.777.153-1.419,1.725-2.595,2.35-4.06a11.683,11.683,0,0,1,.5-3.4c.458,0,.275.488.641.565.122-.259,1.4-.061,1.694.122.076-.168.061-.382.244-.458.534,0,1.084,0,1.084.382-.382-.046-.32.244-.61.259,0-.137.015-.32-.244-.275-.214.046.244.351.229.549.794.244.916-.412,1.587-.519-.031.382.458.4.717.565.382.015.351-.275.855-.168.351.29.9.427.962.931-.244-.2-.458.107-.61.259.046.214.488.137.6.29-1.084.031-1.8.153-2.182-.58-.565.229-1.969.061-1.816-.488-.473.427-.351.427-.855.626.046.259.244.412.6.473,0-.107.046-.214.244-.183.168.565,1.389.733,1.938.305.275.076.656.061.717.29-.275.122.153.229-.122.275a1.883,1.883,0,0,0-1.221-.015c.092.259-.183.229-.122.458.29.153,1.664.137,2.182.4a3.133,3.133,0,0,0,.855-.259c-.137-.015-.183-.107-.244-.183a6.664,6.664,0,0,1,1.465-.244,7.115,7.115,0,0,0,.519,1.267,2.343,2.343,0,0,1-1.023.076c.214.458.778.366,1.267.351,1.389,2.35,3.709,4.2,3.709,7.2.275.7.992,1.267,1.068,1.923.092.916-1.023,1.374-.916,2.259.122,1.023,1.679.9,1.572,2.3-.656.244-.305.641-.626.9-.763.641-3.739.366-5.54.656-4.014-.458-9.951-.031-11.553-1.313-.687-.549.076-1.389-1.389-1.908-.229-2.976,3.22-2.686,3.48-4.853Zm-3.541-11.462c-.244,2.686-.183,3.312-2.32,5.464-4.441-2.9-6.944-5.708-10.424-9.31-1.114-4.93,6.654-5.555,4.105-10.225,1.648-.656,3.174-1.45,3.724-2.35,3.663.29,5.1,2.213,8.409,2.762.733.565-.992.58-.5,1.541,3.144,1.984,2.732,3.815,1.389,5.677-.214-.641-4.792-.473-5.387-.656a3.365,3.365,0,0,1-.259.626.85.85,0,0,0-.351-.549c0,.229-.2.275-.244.458.458-.015.29.7-.122.366.2.427,1.16.382.961.839-.4-.137-.351,0-.61.168.534.229.87.046,1.328.29-.015.229-.229.32-.366.443-.168-.336-.32-.427-.961-.565-.275.122.153.229-.122.275-.305-.046-.2-.4-.473-.458-.412-.076-.153.366-.61.259-.107.29.183.29.229.458-.244.153-.153,0-.488,0,.031.229.458.305.107.549a3.635,3.635,0,0,0,1.084.29c-.2.351.244.336.717.382-.137.794,1.5.473,2.32.7-.046.061-.076.107-.122.168-.183-.076-.366-.137-.382.061a2.471,2.471,0,0,1,.336.015c0,.015-.031.046-.046.061a.612.612,0,0,1-.29-.046v-.031c-.626,0-1.267.061-1.831.046-.183.427.336.351.473.549-.29.122-.076.183-.244.275-.4,0-.58-.229-.61.168.229.046.946.183,1.816.336a3.746,3.746,0,0,0-.229.992Zm-27.227,21.5h0s.015-.214.031-.488v-.458a1.84,1.84,0,0,1,.229-.534c.122-.2.336-.336.427-.565a1.981,1.981,0,0,0,.107-.641v-.519a1.043,1.043,0,0,0-.061-.351,7.037,7.037,0,0,0,.87-.29,4.444,4.444,0,0,0,.733-.412,3.805,3.805,0,0,1-.153.748,4.733,4.733,0,0,1-.29.656,6.844,6.844,0,0,0-.458.9,2.074,2.074,0,0,0-.107.534,2.673,2.673,0,0,1-.229.61,2.367,2.367,0,0,1-.305.427,1.589,1.589,0,0,0-.2.336c-.183,0-.382.015-.565.031Zm-5.128-.473a2.838,2.838,0,0,1,.214-.641,5.211,5.211,0,0,0,.046-.748.4.4,0,0,0-.092-.229,3.048,3.048,0,0,1-.137-.61,2.29,2.29,0,0,1,0-.488,1.066,1.066,0,0,0,.473-.137,2.228,2.228,0,0,0,.473-.336,2.527,2.527,0,0,0,.549.656.8.8,0,0,0,.473.137,3.6,3.6,0,0,1,.015.656.476.476,0,0,1-.107.29,2.512,2.512,0,0,0-.259.733,1.883,1.883,0,0,0,.046.534,3.111,3.111,0,0,1,.046.61.938.938,0,0,1-.015.214l-1.755.092a6.661,6.661,0,0,1,.031-.733Zm-30.875,1.816a5.47,5.47,0,0,1,.046-.717.249.249,0,0,1,.061-.168s.168-.229.321-.443l.214-.305s.046-.061.122.137c.061.2.153.656.153.656a.855.855,0,0,0,.046.244c.015.061.061.061.092.122a.663.663,0,0,1,.031.2,3.674,3.674,0,0,0-.305.717h-.32a.619.619,0,0,0-.076-.137,1.856,1.856,0,0,0-.351-.336Zm-11.675-1.5a2.6,2.6,0,0,1,.183-.565,6.168,6.168,0,0,0,.214-.763,7.487,7.487,0,0,0,.107-.763,1.568,1.568,0,0,1,.168-.565.764.764,0,0,1,.336-.229,1,1,0,0,1,.5-.168c.153,0,.32.229.32.229a7.1,7.1,0,0,0,1.877,1.007,8,8,0,0,0,2.213.32s.839.046,1.755,0c1.084-.046,2.243-.168,2.243-.168s.076,0,.122.244c.046.275.061.794.061.794a.454.454,0,0,1,0,.214c-.031.107-.122.183-.137.305a.672.672,0,0,0,.031.275,2.017,2.017,0,0,1-.031.32c-.046.214-.107.473-.107.473a8.612,8.612,0,0,0-.5,1.1c-2.793.122-5.448.229-7.951.32a1.13,1.13,0,0,0-.153-.351,2.211,2.211,0,0,0-.214-.275,5.248,5.248,0,0,1-.412-.412c-.107-.153-.2-.336-.275-.458a3.653,3.653,0,0,0-.275-.366,1.284,1.284,0,0,1-.061-.549ZM52.1,109.874a2.506,2.506,0,0,0,.32-.366,4.076,4.076,0,0,0,.29-.5,5.869,5.869,0,0,0,.794-.824,2.462,2.462,0,0,0,.336-.656.762.762,0,0,1,.244.122,4.686,4.686,0,0,1,.473.458,10.017,10.017,0,0,1,.778,1.175,10.639,10.639,0,0,1,.6,1.221l-3.144.29-.122-.122L52.5,110.5a1.565,1.565,0,0,1-.137-.2,2.162,2.162,0,0,0-.122-.275.914.914,0,0,0-.153-.168Zm-2.472.58a1.2,1.2,0,0,0,.183-.519,5.327,5.327,0,0,0,0-.855,1.079,1.079,0,0,1,.092-.443,1.476,1.476,0,0,0,.336.168,1.281,1.281,0,0,0,.32.046,2.738,2.738,0,0,0,.107.733,1.576,1.576,0,0,0,.275.519s.046.061.107.153a2.833,2.833,0,0,1,.168.29.209.209,0,0,1,0,.214.879.879,0,0,1-.2.046,2.252,2.252,0,0,0-.32.015,1.215,1.215,0,0,0-.275.061,1.416,1.416,0,0,0-.366.183c-.015,0-.046.046-.076.076l-.32.061v-.031a1.928,1.928,0,0,1-.061-.29c0-.2.015-.412.015-.412Zm-.366.809ZM36.107,107.34a3.721,3.721,0,0,1,.092-.4c.046-.122.076-.214.076-.214a2.058,2.058,0,0,0,.153-.687,4.244,4.244,0,0,0-.061-.9,1,1,0,0,0,.29-.137,2.275,2.275,0,0,0,.29-.29,2.382,2.382,0,0,1,.183.5c.076.305.107.717.2,1.023a1.36,1.36,0,0,0,.29.565s.015.061.046.153l-.733.565h-.259a1.99,1.99,0,0,0-.32.061.681.681,0,0,1-.2,0,.3.3,0,0,1-.046-.259Zm-.824,1.1a1.614,1.614,0,0,1,.153-.107,1.112,1.112,0,0,0,.107-.092.151.151,0,0,0,.153.061,3.2,3.2,0,0,0,.32-.076l-.412.305-.107.015a.262.262,0,0,1-.122-.031.462.462,0,0,1-.107-.076Z" transform="translate(1335.902 3084.751)" fill="#84432e"/>
    <rect id="長方形_205" data-name="長方形 205" width="596" height="198" transform="translate(1324 3041)" fill="none"/>
  </g>
</svg>
