<svg xmlns="http://www.w3.org/2000/svg" width="236.941" height="109.749" viewBox="0 0 236.941 109.749">
  <g id="safari_01_color" transform="translate(-27.51 -27.88)">
    <path id="パス_5682" data-name="パス 5682" d="M96.67,105.79a1.341,1.341,0,0,1,.35,1.2,9.838,9.838,0,0,1,1.16,2.05c.32.35,1.36,1.68,1.28,2.15a2.245,2.245,0,0,1-.76,1.02,2.978,2.978,0,0,1-.81,1.1,1.857,1.857,0,0,1-.68,1.46c-.18,0-.96.36-1.09.17.15-.17-.3-.62-.3-.62v-.4l-.48-.28s-.7-.34-.85-.27a10.559,10.559,0,0,0-.57,1.89c-.1.7-.24.42-.24.42l-.46,1.11-.1-.21-.54.68.04-.45-.6.81-.11-.34a5.037,5.037,0,0,0-.35.61c-.03.12-.29-.24-.29-.24a.583.583,0,0,0-.4.61,4.97,4.97,0,0,0,.08,2.71c-.05.48-.65-.54-.65-.54a3.65,3.65,0,0,0-.17.77c0,.25-.35-.27-.35-.27a4.62,4.62,0,0,0-.2.79c0,.17-.09.98-.09.98s1.65,4.75,2.22,6.17.54,1.36.76,1.63a2.32,2.32,0,0,1,.34.68,5.909,5.909,0,0,1,1.06,1.06c.35.02,1.37-.39,1.72.01a2.161,2.161,0,0,1,1.33,1.45c-.11.42-1.03,1.11-3.58.87-1.62.05-1.69-.13-1.67-.51-.24-.74-.6-1.54-.76-1.53s-.93.36-1.14-.49a17.8,17.8,0,0,0-2.28-4.14,43.407,43.407,0,0,1-2.67-4.31.5.5,0,0,1-.52.2s.13-.75-.11-.53a2.067,2.067,0,0,0-.4.51,5.958,5.958,0,0,0-.28-2.08,8.728,8.728,0,0,0-.39,1.45,4.78,4.78,0,0,1-.24-.77s-.6-.08-.59.35-.31.11-.31.11a1.035,1.035,0,0,0-.39.61c-.09.4-.23-.21-.23-.21a2.124,2.124,0,0,0-.16.65c-.05.37-.07-1.12-.08-1.42,0-.26-.45-.25-.46.28a2.963,2.963,0,0,1-.56,1.54c-.33.51-.53-.05-.38-.19s.1-.66.1-1.06c-.01-.38-.46.38-.52.65a5.535,5.535,0,0,1-.05-1.54c.06-.35-.11.35-.34.99s-.31.23-.3-.69-.44-.09-.42.54-.54-1.36-.58-1.46c-.04-.12-.3-.42-.22.19.09.63-.38-.25-.42-.48-.03-.26-.29-.65-.34-.06-.05.57-.39-.25-.57.78s-.85,2.97-1.1,3.96-.21,2.44-.42,2.75a5.69,5.69,0,0,0-.71,2.56,5.735,5.735,0,0,0,.91,2.04c.54.45.49.68.3.87.26.41-.3.52-.63.65a11.022,11.022,0,0,1-2.94.08c-.44-.12-.38-1.13-.44-1.25-.07-.1,0-1.19-.27-1.41-.26-.26-.56-.81-.31-1.12a6.951,6.951,0,0,0,.62-2.17c.02-.42.16-4.28.27-4.56s.56-3.25.56-3.41c0-.18-.54-.41-.73-.21-.17.24-.3-.5-.3-.5s-3.05.48-4.74-.63-2.66-.73-3.04-1.13c-.39-.42-1.34-2.04-1.65-1.94-.31.13-.77,1.71-1.03,2.25s-1.48,3.69-1.66,4.22-1.69,4.06-1.52,4.68a11.347,11.347,0,0,0,1.95,3.72c1.28,0,2.04.13,2.4.72a.936.936,0,0,1-.5.99c.25.21-.88,1.1-2.08.79s-1.79-.36-1.77-.75a2.238,2.238,0,0,0-.96-1.76c-.67-.33-.74-.71-.75-.85s-1.51-3.12-1.86-3.67.04-.73.21-1.1c.18-.34,1.13-4.27.63-5.2a28.567,28.567,0,0,1-4.56,3.44,7.28,7.28,0,0,0-1.98,1.98c-.21.47-.52,1.42-.69,1.91a15.846,15.846,0,0,0-.72,3.3,5,5,0,0,0,1.34,1.88c.83.6.93.93.87,1.16.32.27-1.19.77-2.07.7a1.492,1.492,0,0,1-1.54-1.33,4.666,4.666,0,0,0-.97-2.01,2.934,2.934,0,0,1,0-1.99,33.063,33.063,0,0,0,1.26-4.88,7.466,7.466,0,0,1,1-2.98,5.977,5.977,0,0,0,.91-2.05c0-.13-6.5,6.6-15.34,1.94-.45.38-1.15,0-1.31-.06s-1.08-1.44-1.55-1.51a1.01,1.01,0,0,1-.71-.49s1-.11,1.29.14a12.338,12.338,0,0,0-1.48-.48c-.18.01-.74-.57-.74-.57s.92-.66,3.14.28a5.323,5.323,0,0,0-.74-.72,2.7,2.7,0,0,1,2.36,1.55c.35.15.14-.39.14-.39a1.533,1.533,0,0,1,.27,1.37,12.674,12.674,0,0,0,15.02-3.09c.5-2.27.69-6.12,1.13-7.41.43-1.27.81-6.62,9.88-6.82,3.6.07,7.75.85,8.72.75a20.259,20.259,0,0,1,4.45.09,29.428,29.428,0,0,0,3.79.26c.53-.17.78-.21.87-.31s-.8-.29-1.13-.13a1.417,1.417,0,0,1,.77-.36c.34.02.63.21.9.05a2.691,2.691,0,0,1,.68-.24l-.84.03-.53-.12s.65-.02.9-.06a4.725,4.725,0,0,0,.75-.24l.21-.35a23.04,23.04,0,0,1,2.39-1.73c.65-.29,1.41-.9,2.14-.83a5.5,5.5,0,0,1,1.16.24,2.893,2.893,0,0,0-1.26-.41,2.391,2.391,0,0,1,1.56-.05s-.2-.42-.45-.42a7.268,7.268,0,0,1,2.74.38,1.3,1.3,0,0,0-.49-.55s2.04.04,2.73,1.11a2.519,2.519,0,0,0-.47-1.18,2.7,2.7,0,0,1,.82,1.23l-.04-1.12.28,1.02s.42-.48.36-.71c-.07-.25.61.68.61.68a.951.951,0,0,0-.04-.59c-.13-.24.31-.04.47.12.16.19.14-.45.14-.45a1.532,1.532,0,0,1,.51.23c.13.13.74-.22.23-.67s.57.15.64.34c.06.17.33-.37,1.15-.15l-.27.32s1.4-.29,1.98.6a1.379,1.379,0,0,0-.62.12s.58.45.64.63c0,0-.62.09-.7.53-.08.47.41.29.78.69.35.4.35.02.8.65,0,0-.7-.28-.81-.09s1.32.14,1.87,1.8a3.473,3.473,0,0,0-1.24-.62,3.35,3.35,0,0,1,.77,1.83Z" fill="#84432e"/>
    <path id="パス_5683" data-name="パス 5683" d="M143.67,88.15a3.658,3.658,0,0,0-.41-.18c-.08-.01-.22-.21-.42-.31s-.4-.39-.71-.39c-.33-.03-1.05-.29-1.46.18a3.21,3.21,0,0,0-.71,1.76,40.005,40.005,0,0,0,.03,4.07c.1.84.24,2.28.28,2.85.02.6.55,2.23.61,2.92s.36,3.62-.24,4.42-1.27,1.85-2.42,1.69a10.235,10.235,0,0,1-2.52-.44,9.014,9.014,0,0,1-1.19-.73c-.14-.07-1.35-1.62-1.71-1.74-.36-.45-.65-1.63-.96-1.74.01.01.09.62.09.62-.41-.39-1.07-1.11-1.4-1.19.06.05-.01.4-.01.4-.36-.27-1.36-1.57-2.18-1.59a1,1,0,0,1,.27.41,2.854,2.854,0,0,0-2.03-.67c-.36.1-2.48.73-2.73.82s-.23-.36-.56-.19a6.946,6.946,0,0,1-1.28.62c-.7.25-1.04.31-1.59.47-.55.18-.58.03-1.14.23a7.862,7.862,0,0,1-1.17.34,4.317,4.317,0,0,0-1.09.31,6.787,6.787,0,0,1-1.04.45c-.06.04-.36.61-.59.27s-.11-1.09-.35-1.28a.437.437,0,0,1,.2-.65.283.283,0,0,0,.09-.51c-.22-.16-.31-.35-.58-.23-.28.1-.83.21-.8.03s-.05-.31-.14-.31a1.37,1.37,0,0,0-.97-.17c-.67.1-.64-.45-1.03-.09s-.82.38-1.24.65a1.8,1.8,0,0,0-.62.63c-.2.39-.13.51-.4.71s-.36.36-.26.49.67-.1.75-.18.26-.52.35-.14-.14.35-.11.92,0,.73.16.86.38.52.31.08-.13-.88.03-.7a.546.546,0,0,1,.16.57,2.313,2.313,0,0,0,0,1.11.817.817,0,0,1,.11.75c-.07.44.27.7.47.93s.36.26.51.61.6.29.32-.09c-.28-.36-.24-.55-.07-.41.17.1.33.36.48.48s-.06-.43-.09-.58c-.03-.13.26.32.37.52.13.21.38,0,.27-.31s.23.03.39.31c.16.26.14-.41.1-.49a4.349,4.349,0,0,0,.29.53c.2.32.45.4.58.06s.45-.65.24-.03-.15.87.13.41c.28-.44.3-.88.28-.44s.34.29,0,.96-.6,1.3.12,1.66.87.89,1.5,1.21.74.38.94.63.15,2.07.57,2.64.22-.03.16-.21-.21,0,.44.34.74.47.87.47.03-.13-.13-.36.19-.21.45-.13.23-.04.1-.35-.22-.45.02-.35c.25.13-.01-.03.04-.54.06-.55.3-.8.35-.32s-.07.83.23,1.17c.31.32.56.03.46-.25s-.13-.47.28-.29c.39.17.13.16.35.62a1.3,1.3,0,0,0,.5.6s-.19-.69-.19-.73.09.16.2.28c.13.13.51.34-.45,1.01-.95.65-2.23,2.02-2.53,2.23-.31.23-1.47,1.1-.76,1.94a3.3,3.3,0,0,0,1.3,1.05c.29.17,2.49,1.7,2.53,2.11s.67,5.94.64,7.1a25.727,25.727,0,0,1-.12,3.73c-.18.34-.58.29-.55.91.03.65.12.54.09.75s-.33.32-.44.52,6.18.26,6.87.31a11.938,11.938,0,0,0,1.58-.2c.18.07-.41-.63-.9-.74a11.5,11.5,0,0,0-2.44-.75c-.72,0-1.78-1.04-2.11-2.02a55.17,55.17,0,0,1-.78-8.12c.7.57,2.04,1.22,2.07,1.63a4.31,4.31,0,0,0,.14.73,1.077,1.077,0,0,0,.26.52l.38.21a4.431,4.431,0,0,0-.9.62c-.11.21-.52,1.71-.32,1.91l.21.19s.32,2.59.73,2.42c.18-.35-.03-.71.18-1.23a6.009,6.009,0,0,1,.66-1.58c.44-.67.62-.32.5-.89s.4-1.3.55-1.62.35-.26.35-.26.59-.52.24-.86a43.642,43.642,0,0,0-4.58-3.77c.5-.82.65-.87,0-1.39-.26-.88.26-2.67.65-3.97s.38-1.5.7-1.5a2.4,2.4,0,0,1,.9.35c.32.14.21-.61.21-.69s.66.23.78.28-.58-.85,0-.6.7.41.64.05c-.06-.38.53-.23.61-.03s-.24.21.38.29.66-.29.75.05-.18,0,.41.34c.58.36.35.62,1.22.34a4.016,4.016,0,0,1,1.1-.26,3.7,3.7,0,0,1,.7.19c.08.03.11-.03.35-.45.23-.44.76-.67,1.07-.93.33-.26.03-.36.46-.8a2.879,2.879,0,0,1,1.11-.78c.18,0,.32-.08.23-.6s-.29-1.39-.29-1.39l.38-.22s.29-.38.32-.06.15.28.35-.07.53-.52.61-.36c.09.14.47-.23.64-.34a8.661,8.661,0,0,0,2.66-1.66,6.957,6.957,0,0,0,1.19-3.92,15.223,15.223,0,0,0-.87-4.3,30.438,30.438,0,0,1-.5-3.84,30.536,30.536,0,0,1-.29-3.42c.06-.6.09-.91.33-1.06a5.062,5.062,0,0,0,.73-.61,2.4,2.4,0,0,1,1.22-.54c.43,0,1.46-.17,1.46-.38s.12-.36-1.04-.34c-.33-.03-.5-.03-.5-.03Z" fill="#84432e"/>
    <path id="パス_5684" data-name="パス 5684" d="M207.97,74.03s-7.77-.56-10.23,3.29c-2.98,3.87-4.79,14.01-4.66,17.01s-.13,5.58-1.17,6.43c-1.04.87-2.85,2.86-3.5,2.86s-1.16,2.15-.52,2.86.13,21.86-.52,24.16c-.64,2.28-1.68.99-1.16,1.85s1.43,2.28,1.43,2.28-1.3,0-.91.86,4.01.29,4.01.29.65-1.58-.13-1.86-1.03-4.14-1.03-4.14,1.55-17.29,1.94-18.58a33.2,33.2,0,0,1,3.5-6l1.68-2.57s-2.07,3.71-2.07,4.57,1.81,5.29,1.94,7.58,1.81,16.01,1.03,17.29l-.78,1.28s-.52,1.28-.13,1.71,4.01,0,4.01,0,.65-.99-.39-3.57-.78-18.29-.26-20.15,1.55-8.86,1.55-9.29,3.63-7.44,4.14-9.01c2.07,2.15,8.42,4.71,9.19,4.58-1.55,2.14-6.6,17.01-6.99,17.29s-7.77,14.15-7.77,14.15l1.17,3.01s8.03-12.72,8.55-14.29,9.19-18.01,10.49-18.86,3.76-2.86,4.4,1.57,1.55,11.15,1.43,12.58,1.42,2.99,1.68,4.13,3.88,14.72,3.88,15.72,2.33,2.57,2.33,2.57-1.16.29-.78,1.15,5.96,1,5.57.72a18.437,18.437,0,0,1-1.68-2.43s-2.98-2.29-3.11-3.15-3.89-15.72-3.89-15.72a14.729,14.729,0,0,0-.52-6.28c-1.04-3.15-.65-15.29-.26-16.29,1.81-1.57,4.79-8,1.81-12.43-.78-1.72,4.01-7.15,5.83-9.15s11.4-18.58,11.92-24.86,3.11-7.01,4.14-6.44,6.35,2.43,7.64,2.14c.78,1.14,1.68,2.15,2.46,1.72.52.43,1.81,1,.91-1.29-.13-2.14-4.01-7.43-6.09-10a5.1,5.1,0,0,0-2.2-1.29s1.3-2.57-.13-3l-.91,1v-2l-1.43-.15-.13,3.15-1.42.29c-.26-.86-1.94-1.01-2.59-1.15-.91,1.43-1.04,2.29-.65,2.86-.52,1.15-10.36,23.29-16.84,27.01s-11.78,6-13.08,8.71c-2.2,2.43-9.07,6.01-10.75,5.29Z" fill="#84432e"/>
    <path id="パス_5685" data-name="パス 5685" d="M183.74,89.48s.89-.03.54-.65c-.25-.46-.42-1.05-.71-1.18a16.244,16.244,0,0,0-1-1.32c-.34-.28-.36-.32-.62-.51-.39-.38-.47-1.05-.76-1.18a4.711,4.711,0,0,0-1.34-.3c-.25-.37-1.02-2.11-1.21-2.02a.635.635,0,0,0-.28.23l-.33-.5s-.54.01-.5.38a21.332,21.332,0,0,0,.64,2.06c-.19.11-.03.21-.28.29s-.64-.21-.72.42c-.24.6-2.17,4.38-2.82,5.97s-2.82,7.18-4.57,8.57-2.65,4.3-3.02,4.68-.73,1.43-5.72,2.9c-.8.33-1.48,1.86-1.69,1.97a8.37,8.37,0,0,0-1.05,1.35c-.26.36-1.31,3.08-1,8.11.02,1.43-.66,1.59-.66,1.59s-.43,1.44-.44,1.59-.09,1.67-.09,1.67l.03.64.23-.97.47-.89.04.37s-.5,2.96-.8,4.65a34.8,34.8,0,0,1-1.72,5.34c-.3.68-.57.7-.58.98s.18.34-.05.61.71,1.18.84,1.19,1.05.07.81-.76a2.064,2.064,0,0,1-.03-1.31,21.767,21.767,0,0,1,1.2-3.75c-.38,1.5-.89,4.1-.92,4.25s-.19,1.39-.19,1.39,1.32.63,1.39.3.39-.2.09-.97.43-3.35.47-3.63,1.51-6.02,2.4-7.44,4.14-6.58,4.28-6.76c.42.41,5.18.42,5.43.16-.04,1-.4,6.64-.54,6.91a6.475,6.475,0,0,0-.08,2.06c.07.28-.13,6.01-.29,6.64s-.44.83-.36.99.25.4.17.52-.2.82.91.77.86-.75.79-.88-.5-.17-.54-.63.44-6.3.69-7.26a2.114,2.114,0,0,0,.35-2.11,32.738,32.738,0,0,1,.67-3.41,29.775,29.775,0,0,1,0,4.23,1.618,1.618,0,0,0,.17,1.19c.09.46.24,7.46.15,7.73-.15.3-.13.51,0,.61-.12.24-.53.5-.27.78s2.08.6,2.09.27.3-.8.07-.97a1.721,1.721,0,0,1-.65-1.21c-.08-.64-.05-6.08.05-6.72s.7-1.31.56-1.8a30.929,30.929,0,0,1,.71-6.41c.36-.84.09-2.34.38-3.36s1.53-3.25.76-4.86l-.77-1.61a2.359,2.359,0,0,0-.15-1.55c.03-.76.22-.72.04-.88a37.151,37.151,0,0,0,2.48-9.51c1.06-5.06,1.38-7.57,2.35-7.6s1.35.66,2.31.12q.75.12.94.13c.19,0,.43.66,1.28.33Z" fill="#84432e"/>
  </g>
</svg>
