<svg xmlns="http://www.w3.org/2000/svg" width="37.313" height="37.337" viewBox="0 0 37.313 37.337">
  <g id="虫眼鏡アイコン9" transform="translate(-0.169)">
    <path id="パス_34" data-name="パス 34" d="M22.914,3.9a13.327,13.327,0,1,0,0,18.848A13.342,13.342,0,0,0,22.914,3.9Zm-1.85,17a10.71,10.71,0,1,1,0-15.146A10.712,10.712,0,0,1,21.064,20.9Z" transform="translate(0 0)" fill="#fff"/>
    <path id="パス_35" data-name="パス 35" d="M79.647,110.209a8.35,8.35,0,0,0-.534,9.458.476.476,0,1,0,.812-.5,7.4,7.4,0,0,1,.472-8.377.476.476,0,0,0-.75-.586Z" transform="translate(-72.058 -102.003)" fill="#fff"/>
    <path id="パス_36" data-name="パス 36" d="M326.948,323.078l-9.672-9.422a1.35,1.35,0,0,0-1.9.013l-1.534,1.534a1.348,1.348,0,0,0-.011,1.895l9.421,9.672a2.4,2.4,0,0,0,3.786.143A2.455,2.455,0,0,0,326.948,323.078Z" transform="translate(-290.436 -290.429)" fill="#fff"/>
  </g>
</svg>
