<svg id="虫眼鏡アイコン9" xmlns="http://www.w3.org/2000/svg" width="27.211" height="27.229" viewBox="0 0 27.211 27.229">
  <path id="パス_34" data-name="パス 34" d="M16.757,2.842a9.719,9.719,0,1,0,0,13.746A9.73,9.73,0,0,0,16.757,2.842Zm-1.349,12.4a7.811,7.811,0,1,1,0-11.046A7.812,7.812,0,0,1,15.407,15.239Z" transform="translate(-0.169 0)" fill="#fff"/>
  <path id="パス_35" data-name="パス 35" d="M79.173,110.16a6.089,6.089,0,0,0-.389,6.9.347.347,0,1,0,.592-.361,5.4,5.4,0,0,1,.344-6.109.347.347,0,0,0-.547-.427Z" transform="translate(-73.762 -104.175)" fill="#fff"/>
  <path id="パス_36" data-name="パス 36" d="M323.294,320.424l-7.054-6.871a.985.985,0,0,0-1.383.009l-1.119,1.119a.983.983,0,0,0-.008,1.382l6.871,7.054a1.754,1.754,0,0,0,2.761.1A1.79,1.79,0,0,0,323.294,320.424Z" transform="translate(-296.789 -296.613)" fill="#fff"/>
</svg>
