<svg id="虫眼鏡アイコン9" xmlns="http://www.w3.org/2000/svg" width="42.802" height="42.83" viewBox="0 0 42.802 42.83">
  <path id="パス_34" data-name="パス 34" d="M26.26,4.471a15.288,15.288,0,1,0,0,21.621A15.3,15.3,0,0,0,26.26,4.471Zm-2.123,19.5a12.286,12.286,0,1,1,0-17.375A12.288,12.288,0,0,1,24.138,23.969Z" transform="translate(-0.169 0)" fill="#5a534a"/>
  <path id="パス_35" data-name="パス 35" d="M79.9,110.236a9.578,9.578,0,0,0-.612,10.85.546.546,0,1,0,.932-.569,8.489,8.489,0,0,1,.541-9.61.546.546,0,0,0-.86-.672Z" transform="translate(-71.394 -100.822)" fill="#5a534a"/>
  <path id="パス_36" data-name="パス 36" d="M328.934,324.521l-11.1-10.808a1.549,1.549,0,0,0-2.176.015l-1.76,1.76a1.546,1.546,0,0,0-.013,2.174l10.807,11.1a2.759,2.759,0,0,0,4.343.164A2.816,2.816,0,0,0,328.934,324.521Z" transform="translate(-287.244 -287.068)" fill="#5a534a"/>
</svg>
