<svg xmlns="http://www.w3.org/2000/svg" width="463.668" height="342.387" viewBox="0 0 463.668 342.387">
  <path id="パス_5681" data-name="パス 5681" d="M-152.706-48.51c70.929,0,112.962-63.924,112.962-172.507,0-82.751-25.832-169.88-111.648-169.88-79.686,0-114.275,78.373-114.275,172.069C-265.668-135.2-237.647-48.51-152.706-48.51Zm.876-61.3c-24.081,0-36.778-34.151-36.778-109.9s14.011-109.9,36.778-109.9c24.081,0,35.027,38.53,35.027,109.9C-116.8-129.071-133.442-109.807-151.831-109.807Zm314.366-21.016H198v-58.232H162.535V-386.081H75.844L-37.993-181.174v50.351H92.044v77.5h70.492ZM28.558-189.93l36.778-68.3c10.508-20.14,18.827-39.843,28.021-59.546h1.313c-.876,19.7-2.627,42.032-2.627,60.859v67.865H28.558Z" transform="translate(265.668 390.897)" fill="#f5f5f5"/>
</svg>
