<svg xmlns="http://www.w3.org/2000/svg" width="399.306" height="342.387" viewBox="0 0 399.306 342.387">
  <path id="パス_5678" data-name="パス 5678" d="M-152.706-48.51c70.929,0,112.962-63.924,112.962-172.507,0-82.751-25.832-169.88-111.648-169.88-79.686,0-114.275,78.373-114.275,172.069C-265.668-135.2-237.647-48.51-152.706-48.51Zm.876-61.3c-24.081,0-36.778-34.151-36.778-109.9s14.011-109.9,36.778-109.9c24.081,0,35.027,38.53,35.027,109.9C-116.8-129.071-133.442-109.807-151.831-109.807ZM133.638-53.326V-386.081H68.4l-85.378,42.032L.1-288.443l57.356-29.335h.876V-53.326Z" transform="translate(265.668 390.897)" fill="#f5f5f5"/>
</svg>
