<svg xmlns="http://www.w3.org/2000/svg" width="447.906" height="342.387" viewBox="0 0 447.906 342.387">
  <path id="パス_5679" data-name="パス 5679" d="M-152.706-48.51c70.929,0,112.962-63.924,112.962-172.507,0-82.751-25.832-169.88-111.648-169.88-79.686,0-114.275,78.373-114.275,172.069C-265.668-135.2-237.647-48.51-152.706-48.51Zm.876-61.3c-24.081,0-36.778-34.151-36.778-109.9s14.011-109.9,36.778-109.9c24.081,0,35.027,38.53,35.027,109.9C-116.8-129.071-133.442-109.807-151.831-109.807Zm334.069-7.881H69.714v-.876l28.021-26.708c40.719-40.281,79.248-85.816,79.248-144.048,0-55.605-33.713-101.578-108.583-101.578-38.092,0-74.432,13.573-95.01,28.459l20.14,56.043c15.324-10.946,37.216-22.33,59.546-22.33,31.962,0,47.286,21.016,47.286,46.411,0,40.281-34.589,79.248-91.945,139.232l-38.53,41.594v48.162h212.35Z" transform="translate(265.668 390.897)" fill="#f5f5f5"/>
</svg>
