<svg xmlns="http://www.w3.org/2000/svg" width="443.965" height="342.387" viewBox="0 0 443.965 342.387">
  <path id="パス_5680" data-name="パス 5680" d="M-152.706-48.51c70.929,0,112.962-63.924,112.962-172.507,0-82.751-25.832-169.88-111.648-169.88-79.686,0-114.275,78.373-114.275,172.069C-265.668-135.2-237.647-48.51-152.706-48.51Zm.876-61.3c-24.081,0-36.778-34.151-36.778-109.9s14.011-109.9,36.778-109.9c24.081,0,35.027,38.53,35.027,109.9C-116.8-129.071-133.442-109.807-151.831-109.807ZM112.622-232.838c35.027-14.011,55.605-41.594,55.605-75.746,0-44.659-35.027-82.313-100.7-82.313-36.34,0-71.805,10.946-89.318,21.892l14.886,55.167c12.7-7.443,34.151-16.2,55.605-16.2,27.584,0,42.032,14.449,42.032,34.589,0,28.021-30.211,39.843-54.729,39.843H16.3v53.854H38.19c31.962,0,61.735,14.886,61.735,48.162,0,24.957-19.265,44.659-53.416,44.659-23.643,0-49.913-9.195-62.611-17.076L-32.3-67.774C-15.226-57.266,16.736-48.51,53.076-48.51c78.81,0,125.221-45.1,125.221-101.14,0-43.784-29.335-73.556-65.675-82.313Z" transform="translate(265.668 390.897)" fill="#f5f5f5"/>
</svg>
