<?xml version="1.0" encoding="UTF-8"?>
<svg id="Layer_1" data-name="Layer 1" xmlns="http://www.w3.org/2000/svg" viewBox="0 0 514.58 71">
  <defs>
    <style>
      .cls-1 {
        fill: #fff;
      }
    </style>
  </defs>
  <path class="cls-1" d="M481.03,70c-13.53,0-47.85,0-47.85,0,0,0-13.54.44-27.08.44-13.54,0-27.08.56-27.08.56l-27.08-1h-27.08l-27.09,1h-27.07s-13.54-1.23-27.08-1.23c-13.54,0-27.08,1.23-27.08,1.23l-27.08-1h-54.18l-27.09,1-27.11-1s-34.4.34-47.83.34c-5.72,0-11.14-2.52-14.84-6.89-7.29-8.62-7.23-8.69-14.58-17.38-5.16-6.1-5.15-15.04.02-21.14,7.41-8.75,7.82-8.09,15.7-17.46,3.45-4.11,8.55-6.47,13.92-6.47,13.41,0,47.58,0,47.58,0l27.08-1h27.08s13.54.09,27.08.09,13.54.81,27.08.81,13.54-.59,27.09-.59,27.07.69,27.07.69l27.08-1,27.08,1h54.17s13.55-.86,27.1-.86,13.54.61,27.09.61,27.11-.76,27.11-.76c0,0,34.18.06,47.73.06,5.35,0,10.41,2.38,13.85,6.47,8.05,9.59,8.43,8.87,15.97,17.77,5.15,6.09,5.17,15,.02,21.09-7.65,9.05-7.56,8.96-15.05,17.81-3.64,4.31-9,6.8-14.64,6.8Z"/>
</svg>