<?xml version="1.0" encoding="UTF-8"?>
<svg id="Layer_1" xmlns="http://www.w3.org/2000/svg" version="1.1" viewBox="0 0 514.6 100">
  <!-- Generator: Adobe Illustrator 29.0.0, SVG Export Plug-In . SVG Version: 2.1.0 Build 186)  -->
  <defs>
    <style>
      .st0 {
        fill: #fff;
      }
    </style>
  </defs>
  <path class="st0" d="M481.1,98.6h-47.9s-13.5.6-27.1.6-27.1.8-27.1.8l-27.1-1.4h-27.1l-27.1,1.4h-27.1s-13.5-1.7-27.1-1.7-27.1,1.7-27.1,1.7l-27.1-1.4h-54.2l-27.1,1.4-27.1-1.4s-34.4.5-47.8.5-11.1-3.5-14.8-9.7c-7.3-12.1-7.2-12.2-14.6-24.5-5.2-8.6-5.2-21.2,0-29.8,7.4-12.3,7.8-11.4,15.7-24.6,3.5-5.8,8.5-9.1,13.9-9.1h47.6L108.2,0h27.1s13.5.1,27.1.1,13.5,1.1,27.1,1.1,13.5-.8,27.1-.8,27.1,1,27.1,1L270.6,0l27.1,1.4h54.2s13.5-1.2,27.1-1.2,13.5.9,27.1.9,27.1-1.1,27.1-1.1c0,0,34.2,0,47.7,0s10.4,3.4,13.9,9.1c8,13.5,8.4,12.5,16,25,5.1,8.6,5.2,21.1,0,29.7-7.6,12.7-7.6,12.6-15,25.1-3.6,6.1-9,9.6-14.6,9.6h0Z"/>
</svg>