<?xml version="1.0" encoding="UTF-8"?>
<svg id="Layer_1" data-name="Layer 1" xmlns="http://www.w3.org/2000/svg" viewBox="0 0 352.39 341">
  <defs>
    <style>
      .cls-1 {
        fill: #423c7c;
      }
    </style>
  </defs>
  <path class="cls-1" d="M171.41.18c-1.09,25.27.14,50.8.44,76.08.32,26.51.02,53.02,1.21,79.51.58,12.81,1.44,25.61,1.53,38.44.09,13.49-.5,26.98-.63,40.46-.12,12.79-.08,25.58-.12,38.36-.04,13.95-1.13,27.86-1.11,41.8,0,.99,2.93.67,2.95-.44.33-25.65,1.05-51.23.98-76.9-.04-12.61.39-25.22.34-37.83-.06-13.46-1.16-26.9-1.83-40.34-2.61-52.52-.12-105.24-2.54-157.75-.02-.46-1.19-2.13-1.22-1.39h0Z"/>
  <path class="cls-1" d="M170.2,3.57c-.6-.22-1.19-.44-1.79-.66-.12-.05-.23-.08-.29.06-5.6,12.09-8.99,26.83-10.62,40.06-.11.89,2.33,1.17,2.69.49,6.34-11.92,5.47-28.56,14.52-38.81-.36-.54-.71-1.09-1.07-1.63-.43,6.21,1,12.42,2.42,18.42,1.5,6.36,2.82,14.29,6.9,19.38.14.18.54.56.59.11.6-5.8-2.32-11.93-4.02-17.45-1.97-6.4-3.06-12.99-4.8-19.43-.06-.23-.72-1.62-1.06-1.16-8.64,11.68-9.35,27.23-16.1,39.91.9.17,1.79.33,2.69.5.87-7.2,2.59-14.18,4.42-21.18.8-3.07,1.47-6.21,2.49-9.21.96-2.83,1.12-7.03,3.04-9.38,0,0,0-.02,0-.02h0Z"/>
  <path class="cls-1" d="M.28,190.99c15.84-.08,31.62.15,47.48-.35,15.14-.48,30.29-.85,45.44-.63,14.96.22,29.85,1.68,44.79,2.36,14.25.65,28.51.92,42.76,1.48,12.96.51,26.2-.75,39.1.45,13.35,1.24,26.63,1.96,40.04,1.95,30.32-.01,60.64.82,90.96,1.03,1.81.01-.33-1.39-1.22-1.39-28.95.17-57.9-.88-86.85-1.17-14.15-.14-28.15-.65-42.24-2.04-12.63-1.25-25.46-.06-38.14-.6-14.15-.61-28.32-.88-42.47-1.45-14.85-.6-29.64-2.03-44.49-2.36-31.87-.71-63.64,2.67-95.46,2.64.06,0,.2.06.28.06H.28Z"/>
  <path class="cls-1" d="M319.88,184.91c-.79-.07-1.51-.26-2.27-.5.15.62.31,1.23.46,1.85,9.52-.76,21.65.81,29.58,6.64,6.11,4.49-4.53,8.01-7.91,9.16-7.09,2.42-14.2,5.64-21.07,8.66-1.54.68.17,1.38,1.01,1.27,4.25-.57,8.28-2.81,12.2-4.53,4.51-1.99,9.08-3.83,13.59-5.83,3.07-1.36,9.28-3.84,5.97-8.08-3-3.84-9.63-5.28-13.99-6.44-6.1-1.62-13.61-3.52-19.93-2.71-.46.06.23,2.06.54,1.86.38-.17.76-.34,1.14-.51.23-.02.74-.83.67-.84h0Z"/>
  <path class="cls-1" d="M191.37,10.97c-.4,0-.8,0-1.2,0-.08,0-.14.03-.16.11-2.16,9.24.54,19,2.32,28.09,2.02,10.3,2.91,20.79,4.98,31.09,4.39,21.78,14.86,40.39,29.49,56.58,13.56,15,30.19,23.02,49.07,28.58,10.91,3.21,21.96,5.91,32.88,9.13,9.13,2.7,19.93,7.77,29.54,6.93.37-.03,2.63-.75,1.49-1.4-8.64-4.87-19.99-6.26-29.47-9.03-10.85-3.17-21.81-5.76-32.7-8.72-18.58-5.04-34.45-12.76-48.1-26.92-14.83-15.39-25.07-33.41-29.74-54.56-2.25-10.19-2.99-20.65-5.14-30.84-.56-2.66-6.09-27.2-2.5-27.18.5,0-.23-1.87-.76-1.87h0Z"/>
  <path class="cls-1" d="M27.78,215.55c10.03.47,19.8-2.42,29.84-1.16,9.3,1.16,18.25,4.98,27.08,7.98,7.64,2.6,15.36,4.91,22.9,7.83,8.24,3.19,15.04,7.85,21.86,13.48,12.6,10.42,19,26.64,24.07,41.92,5.86,17.68,4.61,36.76,8.31,54.92.28,1.39,3.16-.5,2.83-1.8-2.46-9.83-2.87-20.01-3.69-30.08-.79-9.74-2.59-18.85-5.74-28.07-5.64-16.52-13.25-29.71-26.2-41.12-12.84-11.31-31.03-14.69-46.67-19.9-9.46-3.15-18.73-6.16-28.71-6.92-8.93-.68-17.73,2.32-26.65,1.04-.41-.06.17,1.84.76,1.87h0Z"/>
  <path class="cls-1" d="M234.82,93.87c-1.12.16-.65.11-2.4.7.72.38,1.44.76,2.16,1.14.36-3.38.53-8.04,3.36-10.34-.92-.05-1.83-.1-2.75-.15.16,2.9,1.56,12.39,5.92,12,5.86-.52,7.69-6.95,7.97-12.28.07-1.27-2.47-.62-2.85.11-2.71,5.17-.83,10.39.99,15.57,1.22,3.46,2.25,6.6,2.1,10.34-.1,2.67-3.18,9.53-6.59,9.49-.38,0-.99.11-.68.63.17.29.35.59.52.88.5.85,1.86.27,2.45-.14,4.42-3.01,7.15-8.13,7.36-13.46.31-7.94-7.6-15.25-3.41-23.21-.95.04-1.9.07-2.85.11-.08,1.51-2.35,13.03-5.3,9.09-1.77-2.37-2.54-6.42-2.72-9.37-.07-1.1-2.28-.52-2.75-.15-2.83,2.26-3.35,6.64-3.22,10.09.03.86,2.58,1.4,2.44.62-.14-.4-.29-.8-.43-1.2.18-.06.61-.48.66-.49h0Z"/>
  <path class="cls-1" d="M255.66,99.55c4.84-1.03,9.73-1.94,14.14-4.29.95-.51-1.48-1.6-2.27-1.06-.36.25-2.71,1.47-3.9,1.87-2.85.96-5.86.8-8.71,1.62-.39.11.24,1.97.74,1.86h0Z"/>
  <path class="cls-1" d="M254.99,92.38c2.67-1.16,6.01-2.12,8.86-2.37,2.47-.22,5.51-.76,7.97-.52.8.08-.51-2.03-1.23-1.74-2.52,1.02-5.55.73-8.22.99-1.67.16-3.34.35-4.99.67-1.17.23-1.48,1.38-2.1,2.26-.04.05-.42.77-.29.72h0Z"/>
  <path class="cls-1" d="M292.89,54.44c-3.19.63-2.25,9.31-2.18,11.51.18,5.76-.22,13.44,1.54,18.96.25.78,2.77.8,2.8-.12.1-2.92-.56-7.8-.89-11.34-.17-1.8-3.16-17.82-1.78-18.56.11-.06.51-.44.51-.44h0Z"/>
  <path class="cls-1" d="M300.96,63.84c.24,3.19-1.67,6.42-3.01,9.57-.61,1.43-1.36,2.79-2.26,4.06-1.55,2.19-2.3,1.18-3.05-1.03-.8-.23-1.61-.45-2.41-.68.98,2.82,2.28,5.39,5.09,6.69,1.85.85,3.75,1.38,5.73,1.84,2.42.56,5.9.57,8.05,1.72.22.12.3-1.78-.36-1.83-1.47-.12-3.29-1.03-4.82-1.27-4.24-.67-9.71-1.61-11.28-6.48-.25-.78-2.62-1.36-2.41-.68,1.04,3.32,3.27,6.27,6.8,3.69,4.11-3.01,5.72-11.18,4.61-15.87,0-.03-.7.16-.69.27h0Z"/>
  <path class="cls-1" d="M280.22,103.77c4.57.5,10-.46,14.59-1.03,5.3-.65,10.16-1.56,15.17-3.43.5-.19-1.29-1.99-2.03-1.38-2.91,2.42-8.44,2.33-11.98,3.01-4.96.95-10.43.16-15.28,1.55-.23.07-.63,1.26-.48,1.28h0Z"/>
  <path class="cls-1" d="M289.98,115.94c1.66.34,2.76-.05,4.27.91,2.19,1.38,4.39,2.61,6.49,4.15,1.65,1.21,3.25,2.5,4.88,3.74,1.15.87,2.19,2.32,3.61,2.54.41.06,2.44-.31,2.1-1.13-1.24-2.96-6.35-5.89-9.58-7.66-2.29-1.26-4.6-2.38-7.09-3.12-2.69-.81-3.62-2.14-4.67.49-.02.03-.02.06-.01.09h0Z"/>
  <path class="cls-1" d="M308.22,110.51c-6.84-3.11-13.09,11.61-13.79,16.64-.12.88,2.73.8,2.89-.08-.3,1.65-.22.81,0,0,.27-1.01.38-2.05.7-3.06.51-1.59,1.22-3.1,1.99-4.57,1.85-3.53,4.09-6.22,7.56-7.94.13-.06.81-.92.65-.99h0Z"/>
  <path class="cls-1" d="M80.37,90.4c-.22-1.8.13-.99-1.38-2.41-.11-.1-.8-.69-.89-.26-1.95,10.5-.7,22.14-.71,32.79,0,1.32,2.98.17,2.98-1.01-.9-.18-1.81-.35-2.71-.53-.28.45-.37.96-.27,1.54-.15,1.14,2.98.3,2.98-1.01,0-5.15,0-10.31,0-15.46,0-2.66-.01-5.32-.05-7.98,0-1.25-.04-2.5-.15-3.75.31-1.7.12-2.12-.57-1.25,0-.06.79-.4.76-.67h0Z"/>
  <path class="cls-1" d="M87.28,95.62c2.28,2.93,2.15,5.19.61,8.52-1.62,3.51-4.74,5.96-8.53,6.21-.34.02-.84.22-.72.65.84,3.05,3.69,4.9,6.33,6.18,1.96.95,4.07,1.56,6.16,2.12,2.53.67,5.06-.1,7.47.43.62.14-.41-1.87-1.32-1.71,1.62-.27-.95-.61-1.45-.67-1.58-.2-3.16-.5-4.73-.79-3.39-.64-8.64-1.82-9.77-5.55-.35.22-.71.45-1.06.67,4.05-.24,7.21-1.92,9.41-5.47,1.89-3.06.68-8.88-1.66-11.34-.09-.09-.85.64-.75.76h0Z"/>
  <path class="cls-1" d="M97.7,102.39c-.22-.03-.45-.06-.68-.08-.29-.03-.46,1.58-.14,1.63,1.55.25,3.13.04,4.69-.03,3.93-.19,8.86,4.63,5.92,8.34-1.75,2.21-3.4,4.43-5.03,6.75-.95,1.35-2.62,3.26-2.72,4.99-.04.58,1.81,1.83,2.08,1.21,1.86-4.33,4.54-8.23,7.6-11.76,2.29-2.65,2.65-3.98.41-7.02-1.81-2.46-5.83-3.44-8.55-3.94-.9-.17-3.67-.73-4.33-.14-.19.17-.36,1.66-.08,1.61.15-.03.3-.05.45-.08.3-.06.59-1.44.36-1.46h0Z"/>
  <path class="cls-1" d="M117.18,105.68c-1.97,2.18-2.59,4.64-.97,7.24,1.14,1.83,4.01,2.43,5.91,1.87,4.64-1.38,8.61-6.24,6.56-11.22-1.76-4.26-7.16-7.63-11.46-5.66-2.18,1-3.65,3.47-4.25,5.74-.28,1.06-.3,2.16-.19,3.24.28,2.68,1.61,3,3.88,3.88.11.04.3.01.31-.14.21-2.62-1.66-4.43-1.48-7.09.11-1.53,1.14-2.83,2.52-3.32,2.53-.9,5.99,2.36,7.3,4.19.81,1.13,1.19,2.53,1.07,3.91-.15,1.81-1.64,2.7-2.81,3.79-3.6,3.36-6.94-1.69-6.17-4.99.03-.15,0-1.67-.22-1.42h0Z"/>
</svg>