<?xml version="1.0" encoding="UTF-8"?>
<svg id="Layer_1" data-name="Layer 1" xmlns="http://www.w3.org/2000/svg" viewBox="0 0 485.84 458.3">
  <defs>
    <style>
      .cls-1 {
        fill: #423c7c;
      }
    </style>
  </defs>
  <path class="cls-1" d="M457.78,353.38c-1.75.88-3.62,1.5-5.51,1.99-.43.11-.91.18-1.4.24.79-4.17,1.08-8.4,1.03-12.65,0-1.16-1.75-1.12-1.78.03-.11,4.4-.64,8.76-1.6,13.05-.41.13-.79.31-1.1.55-.38.3-.35.86.01,1.16.19.15.4.25.62.34-1.13,4.31-3.71,8.31-4.54,12.63-.13.63.8,1.05,1.23.61,3.08-3.13,4.35-8.38,5.43-12.52.04-.17.07-.35.11-.52,1.59-.18,3.33-.81,4.44-1.16,2.74-.87,5.49-2.08,7.66-4,3.32-2.94.95-5.12-1.93-6.35.73-.57,1.39-1.34,2.48-2.33.52-.49.45-1.25-.1-1.68-2.88-2.26-5.82-3.47-9.38-2.07-1.25.49-.49,2.42.76,1.94,2.49-.97,4.47-.22,6.41,1.14-.95,1.05-1.57,1.85-3.58,2.01-1.14.09-1.54,1.86-.29,2.11.96.19,5.65.89,4.95,2.6-.56,1.37-2.69,2.26-3.93,2.89Z"/>
  <path class="cls-1" d="M162.46,269.14c.09-.16.1-.42-.02-.57-.72-.94-2.22-.55-3.28-.62-1.31-.1-2.5-.51-3.62-1.2-1.05-.64-1.94,1.04-.9,1.69.88.55,1.81.93,2.8,1.18-.47.04-.93.37-.94.98-.03,1.13,1.1,1.55,2.04,1.67.56.07,1.13.06,1.69.04.92-.03,2.08-.1,2.85-.64.33-.23.53-.86.04-1.09-.96-.44-2.04-.32-3.07-.26-.43.02-.85.03-1.28,0-.13,0-.26-.04-.39-.07-.06-.25-.2-.42-.4-.52.19.04.37.08.56.11,1.12.16,3.29.46,3.92-.69Z"/>
  <path class="cls-1" d="M299.04,293.99c.02.47.72.78,1.07.44,2.66-2.63,3.49-8.05,4.69-11.51,1.67-4.82,3.34-9.65,5.37-14.33.87.09,1.72.31,1.85.83.25,1.03-2.45,2.61-3.06,3-.93.59-.78,1.94.38,2.13,1.38.21,2.67.72,3.98,1.15-1.44.7-3.08.56-4.72,1.21-.67.26-.64,1.43.09,1.6,3.05.71,5.99-.35,7.96-2.71.6-.72-.14-1.63-.88-1.74-1.3-.2-2.52-.66-3.75-1.08,1.24-1,2.27-2.25,2.2-3.89-.1-2.44-3.93-2.71-5.59-2.77-1.3-.04-1.67,1.8-.58,2.12-1.83,4.13-3.42,8.36-4.94,12.61-1.36,3.77-4.25,8.9-4.07,12.95Z"/>
  <path class="cls-1" d="M216.68,412.36c-1.24,4.18,5.12,3.17,7.04,1.87.49-.33.13-1.01-.34-1.08-1.05-.17-2.15.08-3.19.23-.37.05-.75.08-1.13.09-.67.02-.81-.04-.67-.63.27-1.11-1.39-1.56-1.71-.46Z"/>
  <g>
    <path class="cls-1" d="M311.03,364.39c-.41.21-.64.97-.21,1.28,1.61,1.16,3.67-.08,5.2-.84,2.29-1.13,4.13-2.97,5.12-5.32.29-.67-.11-1.41-.83-1.54-1.51-.29-2.62-1.31-3.81-2.21,1.66-1.33,2.92-3.3,1.33-5.26-1.9-2.35-5.39-1.52-7.62-.23,0,0,0,0,0,.01-.47-.29-1.26-.16-1.31.5-.44,5.4-.83,10.79-1.63,16.15-.49,3.3-1.24,6.54-2.16,9.75-.28.98-.65,1.94-1.01,2.9-.36.07-.65.32-.68.81-.27,4.88-3,9.17-6.09,12.81-.14.17-.62.65-1.3,1.28-1.46-1.11-3-2.05-4.77-2.46-4.2-.96-7.1,5.29-5.26,8.67,2.03,3.69,7.35-.63,9.24-2.23.29-.25.58-.53.86-.79,2.63,2.05,5.99,5.22,9.49,4.09.62-.2.7-1.25-.03-1.36-3.02-.46-5.36-2.48-7.71-4.44,3.42-3.6,6.34-8.19,7.22-12.99,2.2-3.38,2.86-8.33,3.6-12.03,1.26-6.23,1.55-12.65,1.82-18.99.26.09.55.09.84-.07,1.35-.76,3.31-1.34,4.69-.28,1.58,1.22-1.13,2.82-1.96,3.26-.67.35-.79,1.45-.07,1.84,1.65.9,2.9,2.23,4.54,2.99-1.72,2.55-4.86,3.37-7.52,4.73Z"/>
    <path class="cls-1" d="M287.93,398.96c-.09-1.55.5-5.01,2.55-4.76,1.28.16,2.55,1.02,3.69,1.91-2.69,2.31-6.12,4.79-6.25,2.85Z"/>
  </g>
  <path class="cls-1" d="M483.5,330.29c-1.32,11.43-6.52,20.75-11.53,30.85-.42.83.8,1.47,1.36.79,14.76-17.86,15.14-42.44,7.98-63.38-.35-1.02-1.93-.53-1.59.49,3.28,10.06,5.01,20.67,3.79,31.25Z"/>
  <g>
    <path class="cls-1" d="M130.99,302.8c-.29,3.86-1.28,7.46-2.95,10.94-2.02,4.21-5.52,6.88-8.21,10.52-.45.61.29,1.41.95,1.09,4.52-2.2,7.7-6.79,9.68-11.81,0,0,0,0,0,0,.05.18.37.02.98-.32.65-.36,1.3-.7,1.95-1.04,1.6-.84,3.23-1.63,4.85-2.45.66-.34.82-1.48.08-1.84-1.07-.54-1.98-1.31-2.92-2.04,1.46-.68,2.8-1.67,2.79-3.36,0-2.12-2.67-3.69-4.18-4.68-1.08-.7-2.18.96-1.1,1.66,1.11.73,2.36,1.49,3.1,2.63.88,1.36-2.31,2.27-3.04,2.53-.1.04-.19.08-.27.14.09-.69.16-1.36.2-2.02.08-1.24-1.82-1.16-1.91.06Z"/>
    <path class="cls-1" d="M132.77,306.5c1.04.57,1.94,1.33,2.87,2.07-1.16.53-2.31,1.09-3.44,1.66-.22.11-.47.22-.72.35.43-1.45.76-2.9,1-4.32.08.09.17.18.29.24Z"/>
  </g>
  <path class="cls-1" d="M320.16,260.71c2.5,3.88,3.86,8.15,3.82,12.78-.03,4.93-2.25,8.93-4.26,13.24-.29.61.56,1.2,1.05.76,7.86-6.98,6.57-19.9,1.23-27.91-.77-1.16-2.6-.06-1.85,1.12Z"/>
  <path class="cls-1" d="M317.72,325.03c-.45.64.23,1.55.97,1.2,4.36-2.07,6.89-7.31,7.61-11.88.76-4.87-1.03-9.63-3.97-13.44-.88-1.14-2.59.28-1.72,1.42,2.57,3.4,3.82,7.28,3.29,11.56-.58,4.72-3.61,7.47-6.18,11.14Z"/>
  <g>
    <path class="cls-1" d="M288.34,261.43c-.91,4.69-2.3,9.74-4.93,13.77-.91-1-1.81-1.97-2.56-2.89-.5-.62-1.21-.68-1.81-.16-3.54,3.02-4.53,6.3-4,10.85.09.79,1.02.98,1.63.74,2.61-1.04,4.7-2.64,6.41-4.6,1.11,1.35,2.32,2.55,3.68,3.25.44.22,1.03-.27.91-.74-.46-1.69-1.57-3.31-2.85-4.84,2.88-4.44,4.31-10.02,5.2-15.13.19-1.09-1.48-1.34-1.68-.26Z"/>
    <path class="cls-1" d="M277.16,281.06c-.03-2.6.77-4.56,2.59-6.42.64.88,1.31,1.84,2,2.78-1.28,1.45-2.78,2.7-4.58,3.64Z"/>
  </g>
  <path class="cls-1" d="M449.23,302.49c-1.29.24-1.14,2.27.19,2.06,2.35-.37,4.39.78,4.46,3.33.05,2.2-1.56,2.3-3.1,3.05-.74.36-.82,1.53-.09,1.95.96.55,2.21.79,3.27,1.25-1.06,1-2.28,1.8-3.69,2.26-1.26.41-2.37.1-3.5.8-.45.28-.37.96,0,1.26,3.09,2.5,7.97-1.72,9.87-3.9.42-.48.2-1.19-.23-1.56-.64-.55-1.46-.81-2.28-1.07,3.81-2.81,1.35-10.6-4.9-9.44Z"/>
  <g>
    <path class="cls-1" d="M14.09,308.54c2.03.25,3.65-1.16,4.89-2.64,1.87,1.02,4.05,1.59,6.05.56,1.67-.86,2.7-2.68,2.96-4.49.22-1.52-.08-3.46-1.77-3.97-1.98-.6-4.22,1.79-4.74,3.44-.28.86.64,1.44,1.36.97.73-.48,2.02-2.28,2.81-2.27,0,.03.11.13.18.34.14.45.09.99,0,1.44-.21,1.08-.81,2.17-1.8,2.7-1.46.78-3.17.04-4.49-.73.15.04.3.04.46,0,.93-.28.74-1.47.64-2.19-.3-2.19-1.35-4.24-1.59-6.45-.05-.47-.57-.89-1.05-.78-4.84,1.12-8.78,5.39-7.4,10.59.44,1.67,1.7,3.25,3.5,3.48Z"/>
    <path class="cls-1" d="M17.39,296.58c.24,1.24.64,2.46.98,3.66.15.5.27,1.01.41,1.51-.43.17-.73.74-.35,1.22.19.23.41.51.68.7-.44-.16-.91-.01-1.2.38-.82,1.11-2,2.45-3.5,2.46-1.09,0-1.68-1.36-1.91-2.22-.97-3.62,1.68-6.6,4.88-7.73Z"/>
  </g>
  <path class="cls-1" d="M315.73,395.7c1.3-.11,2.6-.18,3.91-.25-.05,1.12.06,2.27.55,3.21.24.46.95.48,1.14-.05.35-1.04.38-2.18.44-3.28,1.19-.07,2.4-.2,3.46-.7.64-.3.48-1.1-.15-1.27-.98-.27-2.03-.26-3.07-.21.15-.98.35-1.94.63-2.89.39-1.29-1.57-2.05-1.97-.75-.37,1.24-.64,2.5-.82,3.77-1.44.09-2.88.18-4.31.31-1.2.11-1.02,2.2.18,2.1Z"/>
  <path class="cls-1" d="M325.75,340.24c-.66-1.2-2.55-.24-1.9.97,2.33,4.27,3.34,8.77,3.15,13.62-.2,5.12-2.36,9.34-4.23,13.98-.28.69.58,1.25,1.09.7,7.18-7.57,6.67-20.67,1.89-29.27Z"/>
  <path class="cls-1" d="M467.89,325.37c5.2-4.62,7.78-12.67,8.87-19.34,1.24-7.57.71-15.31-2.6-22.29-.13-.28-.37-.39-.6-.4,2.96-5.22,4.78-11.44,5.61-16.77,1.66-10.53-.63-21.31-3.35-31.46-.29-1.06-1.96-.83-1.71.26,1.89,8.15,3.59,16.37,3.46,24.77-.07,4.29-.8,8.56-2.08,12.65-1.84,5.88-5.54,10.73-8.07,16.27-.35.77.6,1.34,1.18.79,1.61-1.53,3.02-3.36,4.26-5.36,3.04,7.05,3.07,14.91,1.59,22.33-1.32,6.59-4.58,11.89-7.59,17.76-.3.59.54,1.22,1.02.78Z"/>
  <path class="cls-1" d="M230.75,355.41c-.13,1.2-.27,2.4-.47,3.59-.18,1.06-.88,2.49-.42,3.53.17.38.6.58.98.34,1.05-.67,1.16-2.27,1.38-3.41.24-1.3.4-2.61.54-3.93.14-1.28-1.86-1.39-1.99-.11Z"/>
  <path class="cls-1" d="M230.31,267.83c1.48-.16,2.74.57,4.28.1,1.27-.39.61-2.31-.65-1.95-1.15.33-2.25-.29-3.4-.32-1.15-.02-1.96.4-2.79,1.15-1.85,1.66-3.29,4.57-3.61,7.02-.22,1.64.44,3.16,1.93,3.91,1.81.91,4.15-.08,5.93-1,2.61,2.89,6.71,3.32,9.44.07.85-1.01,1.22-2.57.29-3.65-1.43-1.64-4.4-.68-5.96.1-1,.5-.54,2.09.6,1.88,1.05-.19,2.58-.76,3.63-.39.08.03-.5.94-.75,1.17-2.09,1.95-4.58.84-6.06-1.21-.39-.53-1.01-.54-1.53-.25-1.17.64-3.57,2.03-4.92,1.12-.95-.65-.14-2.67.16-3.43.51-1.29,1.89-4.14,3.44-4.31Z"/>
  <path class="cls-1" d="M426.34,321.3c1.31-.4,2.63-.75,3.96-1.11-.13,1.4-.02,2.82.72,3.82.26.35.91.45,1.12-.04.53-1.31.41-2.9.48-4.41,1.7-.43,3.42-.83,4.86-1.88.41-.3.09-.96-.36-.98-1.44-.06-2.79.34-4.17.72.44-1.55,1.26-2.98,2.26-4.23.81-1.01-.9-2.06-1.7-1.07-1.22,1.51-2.18,3.22-2.66,5.11-.07.25-.13.52-.2.81-1.67.45-3.34.9-4.99,1.41-1.21.37-.51,2.18.69,1.83Z"/>
  <path class="cls-1" d="M264.46,330.41c.48.23.79-.43.53-.78-2.05-2.79-4.07-5.13-4.61-8.66-.37-2.41.13-4.88.78-7.19,1.36-4.79,4.27-9.14,7.3-13.01.7-.89-.56-2.13-1.3-1.23-5.92,7.29-15.58,24.74-2.71,30.86Z"/>
  <path class="cls-1" d="M338.64,313.51c-.96.13-1.96.06-2.92-.01-1.06-.07-1.34,1.67-.28,1.86,1.01.18,2.43.32,3.77.17.02,1.44.29,2.82.91,4.02.26.49.91.19.95-.28.13-1.47.17-2.91.27-4.34.71-.38,1.27-.94,1.53-1.77.11-.34-.2-.73-.56-.72-.25.01-.49.07-.73.13.18-1.22.46-2.44.95-3.64.43-1.06-1.16-1.56-1.64-.58-.7,1.43-1.26,3.19-1.52,4.98-.24.07-.47.15-.72.18Z"/>
  <path class="cls-1" d="M465.14,329.46c3.16,4.69,4.84,9.9,4.48,15.56-.43,6.85-4.55,11.59-8.39,16.91-.52.72.27,1.63,1.04,1.15,11.81-7.38,11.87-24.27,4.51-34.57-.7-.98-2.34-.08-1.65.95Z"/>
  <path class="cls-1" d="M297.15,274.45c-.96-.1-1.86-.13-2.82.05-.62.12-.92.89-.76,1.43.2.65.82.88,1.43.76.82-.16,1.69.01,2.51.08.85.07,2.14-.02,2.57-.89.12-.26.09-.57-.13-.77-.66-.62-1.96-.57-2.81-.66Z"/>
  <path class="cls-1" d="M290.66,316.6c-1.39.11-1.34,2.26.06,2.16,1.18-.08,2.34,0,3.51.18,1.25.19,3.15.88,4.27.08.27-.19.41-.64.17-.91-.8-.92-2.5-1.03-3.65-1.24-1.43-.26-2.91-.38-4.37-.27Z"/>
  <path class="cls-1" d="M267.74,343.07c.64-.92-.78-1.89-1.44-.98-4.66,6.55-10.56,18.84-5.18,26.52.34.48,1.02.19.93-.38-.69-4.92-1.01-9.14.29-13.99,1.07-4.01,3.05-7.78,5.4-11.18Z"/>
  <path class="cls-1" d="M462.67,271.46c-.68,5.43-3.28,9.53-5.73,14.26-.46.88.62,1.56,1.32.98,9.07-7.52,7.7-22.99,5.53-33.13-.29-1.36-2.35-.79-2.08.56,1.19,5.74,1.7,11.5.97,17.33Z"/>
  <path class="cls-1" d="M233.78,345.05c-2.09-.07-2.14,2.51-1.2,3.82.24.33.82.35.93-.12.07-.31.12-.6.11-.91,0-.24.04-.48.1-.72-.08-.17-.02-.21.17-.14,1.23.07,1.14-1.88-.11-1.93Z"/>
  <path class="cls-1" d="M218.93,411.55c1.51-.32,3.32-.2,4.6-1.15.42-.31.16-.86-.27-.97-1.43-.33-3.11-.11-4.53.18-1.22.25-1.03,2.2.2,1.94Z"/>
  <path class="cls-1" d="M192.69,262.15c.14.69,1.05.71,1.31.1.86-2.02.8-4.28.95-6.45.2-2.87.51-5.7,1.04-8.53.22-1.14-1.66-1.68-1.99-.54-1.43,4.89-3.99,9.27-6.06,13.9-.41.91.94,1.61,1.38.71,1.16-2.39,2.4-4.73,3.59-7.09-.25,2.58-.73,5.38-.21,7.91Z"/>
  <path class="cls-1" d="M178.97,267.06c-1.2-.22-1.67,1.51-.48,1.85,4.26,1.19,8.72,1.13,13.11.98,3.82-.13,8.42.36,12.05-.9.48-.17.37-.85-.04-1.02-2.94-1.2-6.59-.57-9.67-.41-5.03.26-10,.41-14.98-.5Z"/>
  <path class="cls-1" d="M243.92,281.52c-.48.43-.11,1.09.38,1.27,2.82,1.04,6.88-1.86,8.02-4.41,1.38-3.08-.22-6.02-2.3-8.31.63-.05,1.27-.1,1.88-.45,1.03-.57.04-2.37-.99-1.81-1.07.58-2.27.13-3.37.73-.75.41-.77,1.27-.17,1.82,2,1.82,4.23,4.52,2.75,7.33-1.3,2.46-4.37,2.18-6.19,3.82Z"/>
  <path class="cls-1" d="M378.65,285.24c2.9.31,6.04-1.13,7.7-3.51.33-.46.33-1.08-.14-1.46-2.23-1.84-3.27-4.62-4.83-6.99.63-.27,1.27-.46,1.87-.82,1.04-.63.15-2.28-.9-1.66-.94.55-1.97.7-2.9,1.33-.42.28-.61.9-.29,1.33,1.83,2.46,2.86,5.44,4.96,7.67-1.62,1.57-3.85,1.82-5.79,3.04-.47.3-.18,1.03.31,1.08Z"/>
  <path class="cls-1" d="M433.02,271.71c-1,1.37-1.88,3.13-2.28,4.93-.78.04-1.55.09-2.26.02-1.21-.11-1.28,1.76-.08,1.88.71.07,1.43.08,2.14.07,0,1.18.23,2.33.84,3.37.2.34.78.22.84-.16.17-1.11.29-2.19.44-3.25.63-.03,1.26-.1,1.85-.31.48-.17.57-.81.11-1.07-.49-.28-1.04-.42-1.61-.5.32-1.34.79-2.63,1.68-3.87.75-1.05-.9-2.13-1.67-1.1Z"/>
  <g>
    <path class="cls-1" d="M435.46,290.47c-.33.75.48,1.37,1.15.98,4.31-2.5,6.77-8.8,8.41-13.3,3.28.15,6.85-1.34,9.58-2.78.56-.29.78-1.25.24-1.69-1.46-1.17-2.19-2.85-3.31-4.26,2.17-1.25,3.9-3.15,3.12-5.87-.84-2.93-4.8-3.55-7.31-3.24-.88.11-1.1,1.07-.75,1.64-.42.04-.8.28-.84.76-.37,4.66-1.15,9.14-2.55,13.58-.46.26-.64.86-.4,1.27-.82,2.4-1.98,4.68-3.28,6.85-1.26,2.09-3.08,3.83-4.07,6.05Z"/>
    <path class="cls-1" d="M447.67,262.81c0-.18-.05-.32-.13-.44,1.78-.2,3.71-.03,4.9,1.47,1.6,1.99-1.77,3.75-3.11,4.35-.77.35-.74,1.35-.15,1.83,1.36,1.1,2.01,2.7,3.03,4.05-.86.35-1.72.67-2.62.93-1.24.37-2.52.49-3.79.67,1.18-4.16,1.65-8.56,1.86-12.85Z"/>
  </g>
  <path class="cls-1" d="M255.57,419.58c11.62.56,23.44-.26,35.08-.34,10.62-.07,21.25,0,31.87.12,10.55.12,21.11.34,31.65.62,12.09.32,24.24,1.08,36.33.51.77-.04.91-1.13.1-1.23-11.02-1.3-22.18-1.39-33.26-1.68-11.15-.29-22.31-.51-33.46-.64-11.12-.13-22.24-.12-33.36-.01-11.6.11-23.55-.21-35.08,1.16-.86.1-.69,1.44.13,1.48Z"/>
  <path class="cls-1" d="M257.39,393.14c1.46.15,2.96.31,4.47.44-.51,1.11-.99,2.23-1.37,3.38-.6,1.83-.95,4.32,1.06,5.4,2.15,1.15,5.98-.47,7.36-2.15.37-.45.05-1.1-.53-1.08-1.06.03-5.08,2.13-5.94,1.08-1.18-1.44.96-4.96,1.7-6.46,2.28.12,4.56.1,6.75-.22.57-.08.4-.84-.02-.99-1.76-.63-3.65-.9-5.57-1.04,1.73-3.24,3.73-6.35,5.82-9.36.65-.94-.88-1.8-1.54-.88-2.29,3.21-4.7,6.57-6.62,10.13-1.88-.06-3.76-.08-5.56-.25-1.3-.13-1.3,1.89-.01,2.02Z"/>
  <g>
    <path class="cls-1" d="M316.65,316.12c-1.36-.21-2.66-.63-3.97-1.03,1.51-.94,2.71-2.27,2.88-4.15.33-3.68-4.53-3.71-6.85-3.15-1.37.32-1.12,2.51.28,2.19.96-.22,4.24-.98,4.34.81.11,1.97-2.95,3.07-4.36,3.49-.13.04-.24.1-.34.16.06-.63.11-1.26.18-1.89.11-1.15-1.63-1.12-1.77-.02-.37,2.94-.73,5.87-1.25,8.78-.58,3.21-1.95,6.39-2.27,9.6-.08.81,1,1.18,1.46.53,1.73-2.41,2.13-5.9,2.65-8.76.07-.39.12-.77.18-1.16,3.49,1.08,7.42-1.14,9.67-3.65.62-.69-.09-1.64-.83-1.76Z"/>
    <path class="cls-1" d="M311.19,319.3c-1.01.26-2.07.19-3.09.33.15-1.16.27-2.32.38-3.48.17.18.42.31.72.35,1.75.24,3.39.86,5.07,1.34-.91.67-1.9,1.17-3.07,1.46Z"/>
  </g>
  <path class="cls-1" d="M276.6,403.78c.49-.51.02-1.34-.67-1.17-4.25,1.03-6.67,5.04-6.78,9.23-.03,1,1.08,1.38,1.85,1,7.77-3.81,10.61-11.45,13.68-19,.47-1.15-1.1-2.4-1.91-1.27-1.93,2.69-4.28,3.9-7.28,4.33.97-3.01,3.23-5.38,6.5-6.02,1.23-.24,1.02-2.1-.25-1.95-4.81.59-8.09,4.42-8.89,9.04-.13.74.43,1.43,1.2,1.39,2.53-.13,4.71-.63,6.61-1.7-1.99,4.66-4.37,8.95-8.65,11.81.83-2.34,2.71-3.73,4.6-5.69Z"/>
  <path class="cls-1" d="M211.02,282.1c.09,3.44.69,8.25,3.3,10.76.57.55,1.43-.02,1.27-.75-.87-4.04-2.32-7.41-2.34-11.69-.02-4.75,1.01-9.48,2.28-14.03,2.55-9.16,6.72-18.34,12.14-26.16.6-.88-.8-1.69-1.42-.84-5.95,8.29-10.34,17.74-13.14,27.54-1.4,4.92-2.22,10.04-2.09,15.17Z"/>
  <path class="cls-1" d="M281.77,251.61c-1.97-.73-4.26,1.06-5.65,2.22-3.35,2.79-6.02,6.41-8.29,10.09-3.52,5.68-9.05,18.09-1.51,23.06.39.26.96-.18.72-.62-3.67-6.56-1.75-13.25,1.52-19.57,1.71-3.29,3.84-6.39,6.26-9.19,1.1-1.27,4.49-5.64,6.59-4.94.68.23,1.03-.8.36-1.05Z"/>
  <path class="cls-1" d="M464.69,292.39c-.23,5.89-.31,11.91-1.83,17.65-1.71,6.46-5.71,10.21-10.04,14.95-.52.56.19,1.58.89,1.23,12.69-6.29,12.65-21.83,12.78-33.9.01-1.17-1.75-1.07-1.8.07Z"/>
  <g>
    <path class="cls-1" d="M43.16,305.31c1.82,3.72,6.63,4.54,9.97,2.46.11-.07.21-.15.32-.23,1.94,1.4,4.1,2.34,6.58,1.72.85-.21.66-1.44-.1-1.62-1.77-.42-3.21-.99-4.6-1.81,2.79-3.28,4.03-8.44,4.89-12.25.29-1.28-1.67-1.77-1.98-.49-.88,3.77-2.05,7.48-4.21,10.73-.17.26-.37.5-.58.73-.11-.08-.21-.15-.32-.23-2.05-1.66-4.01-3.24-6.62-3.85-3.73-.87-4.91,1.66-3.35,4.83Z"/>
    <path class="cls-1" d="M51.54,305.99c-2.6,1.28-5.86.74-6.79-2.66-.45-1.64,1.59-.63,2.59-.27,1.58.56,2.92,1.8,4.21,2.93Z"/>
  </g>
  <path class="cls-1" d="M41.81,261.21c1-.41,3.38-1.69,4.39-.75,1.08,1.01.26,3.31.99,4.58.22.38.81.46,1.11.12,1.38-1.59,1.07-5.04-.54-6.48-1.42-1.28-3.41-.91-5.16-.26.13-.89.32-1.75.7-2.68.43-1.05-1.38-1.82-1.84-.78-.75,1.67-1.06,3.39-1.31,5.2-.13.93.96,1.33,1.66,1.04Z"/>
  <g>
    <path class="cls-1" d="M64.34,266.47c1.87,1.27,3.73,2.54,5.88,3.16.87.25,1.65-.85.97-1.53-1.15-1.16-2.54-2.26-4.05-3.25,5.5-4.13,7.54-11.61,3.69-17.59-.62-.95-2.12-.11-1.54.88,2.96,5.01,1.46,10.47-2.69,14.27-.39.36-.95.78-1.57,1.17-2.13-1.18-4.38-2.12-6.49-2.67-.57-.15-1.3.28-1.37.89-.66,5.46,3.38,6.22,7.16,4.67Z"/>
    <path class="cls-1" d="M62.01,264.96c-1.28.3-2.34.05-2.58-1.32.9.36,1.75.82,2.58,1.32Z"/>
  </g>
  <path class="cls-1" d="M18.61,350.27c1.03-.87.77-2.49.82-3.73.07-1.68.15-3.35.62-4.98.35-1.22-1.51-1.9-1.87-.66-.47,1.56-.64,3.16-.73,4.78-.05.9-.09,1.8-.14,2.69-.05.75-.1,1.17.37,1.77.22.28.66.36.94.12Z"/>
  <g>
    <path class="cls-1" d="M39.14,354.53c.72,2.01,3.79,2.56,5.62,2.72,3.03.27,5.41-1.47,7.24-3.81,1.23.8,2.49,1.08,4.32.68.88-.19.75-1.64-.12-1.75-1.18-.14-2.04-.49-2.81-.96.94-1.56,1.68-3.2,2.26-4.6,2.15-5.28,3.58-11.78,3.3-17.51-.06-1.13-1.8-1.2-1.76-.06.21,6.39-1.55,15.06-5.51,20.9-.39-.33-.78-.67-1.23-1.02-.92-.73-2.21-.9-3.13-1.59-.77-.58-1.32-1.49-2.03-2.14-1.74-1.63-4.56-1.28-5.72.72-1.31,2.26-1.3,6.03-.44,8.43Z"/>
    <path class="cls-1" d="M44.24,347.53c.75.71,1.3,1.52,2.14,2.16,1.23.94,2.66,1.24,3.87,2.33-.45.51-.91,1-1.4,1.45-1.63,1.46-3.67,1.75-5.73,1.19-1.82-.49-2.12-1.56-2.21-3.24-.05-1.04.14-6.9,3.33-3.88Z"/>
  </g>
  <g>
    <path class="cls-1" d="M306.09,426.87c-.84,3.55-2.07,7-3.44,10.37-.4,1-.86,2.16-1.39,3.35-1.58-1.91-3.85-3-6.26-1.53-2.86,1.73-4.84,6.62-3.92,9.83.46,1.57,2.57,1.89,3.93,1.58,2.45-.54,4.12-2.51,5.5-4.47.23-.32.42-.66.64-1,.34.52.68,1.02,1,1.43.5.62,1.35.09,1.3-.6-.07-1.02-.4-2.15-.91-3.22,2.52-4.77,4.07-10.3,5.19-15.4.23-1.06-1.4-1.39-1.64-.34Z"/>
    <path class="cls-1" d="M294.82,448.29c-3.37,1.16-.96-4.27-.31-5.39,2.09-3.58,3.86-1.95,5.44.31-1.29,2.29-2.95,4.32-5.14,5.08Z"/>
  </g>
  <path class="cls-1" d="M82.86,264.94c1.06-.82-.13-2.56-1.13-1.72-.58.49-1.44,1.21-.64,1.99.61.6,1.24.14,1.77-.27Z"/>
  <g>
    <path class="cls-1" d="M85.39,353.51c.38,2.85,1.94,5.08,5.14,5.34,3.91.32,7.51-3.24,8.72-6.66,2.51-7.09-10.3-6.17-12.84-1.98-.21.35-.09.89.22,1.11-.24-.08-.5-.11-.72-.03-2.18.8-6.01,1.64-7.41-.97-1.07-1.98,1.25-2.87,3.14-3.21-.08.18-.11.4-.01.66.09.32.21.63.38.92.3.57,1.03.63,1.48.24.76-.65.04-1.67.47-2.39.45-.75,0-1.6-.9-1.57-2.86.1-8.06,1.76-6.52,5.74,1.41,3.62,5.58,3.67,8.86,2.79Z"/>
    <path class="cls-1" d="M87.25,351.34c2.44-1.31,7-3.73,9.63-1.41,2.53,2.24-9.4,13.38-9.63,2.15,0-.3-.18-.53-.42-.67.12.03.27.01.43-.07Z"/>
  </g>
  <path class="cls-1" d="M37.61,253.88c.25.08.59-.15.62-.42.05-.6-.08-1.2.4-1.64.84-.78-.55-2.02-1.38-1.18-.88.9-1.05,2.77.36,3.23Z"/>
  <path class="cls-1" d="M71.89,304.61c.13.12.26.24.38.38.73.72,2.11-.17,1.51-1.1-.14-.21-.27-.43-.42-.64-.75-1.06-2.47.5-1.48,1.36Z"/>
  <path class="cls-1" d="M28.71,256.37c.14,1.39-.37,2.85-.8,4.14.35.2.24.22-.31.05-.29-.08-.58-.17-.86-.29-.69-.25-1.48-.57-.94-1.34.29-.41.11-1.19-.53-1.08-6.05.98,2.79,7.89,4.45,4.36,2.8-5.93-.71-10.31-4.27-14.62,2.76-.47,4.98.2,7.43,2.13.74.59,1.61-.58.88-1.17-3.12-2.52-6.16-3.44-10.11-2.37-.7.19-.84.96-.42,1.48,2.03,2.52,5.14,5.33,5.48,8.71Z"/>
  <path class="cls-1" d="M438.72,332.26c2.01-2.76,3.21-6.25,4.84-9.27,1.73-3.19,3.36-6.38,4.6-9.8.37-1.02-1.4-1.68-1.78-.66-1.39,3.69-3.25,7.1-5.15,10.53-1.51,2.73-3.41,5.65-3.65,8.82-.05.64.79.86,1.14.38Z"/>
  <path class="cls-1" d="M28.55,306.67c-.49.13-.59.66-.32,1.03,1.9,2.63,6.8,1.85,8.1-1,1.61-3.53-.39-8.37-1.82-11.64-.45-1.03-1.97-.28-1.57.75,1.02,2.6,1.76,5.39,1.71,8.2-.08,4.25-3.61,1.99-6.11,2.65Z"/>
  <g>
    <path class="cls-1" d="M421.97,355.26c-1.05-1.22-1.91-2-3.62-1.61-5.32,1.2-6.27,6.32-3.97,10.72.26.5.92.87,1.48.56,2.55-1.45,4.74-3.35,6.6-5.53.06.08.12.16.18.24,1.25,1.56,2.82,4.16,4.84,4.78.82.25,1.51-.59,1-1.33-1.36-1.94-2.94-3.77-4.53-5.58,2.76-3.83,4.67-8.33,5.89-12.87.36-1.34-1.71-1.9-2.08-.56-1.11,4.08-2.81,8.22-5.28,11.76-.17-.19-.34-.38-.5-.58Z"/>
    <path class="cls-1" d="M415.89,362.31c-.38-.96-.59-1.91-.54-3.04.05-1.2,2.57-4.77,4.23-3.25.54.5,1.04,1.06,1.51,1.64-1.49,1.8-3.21,3.38-5.2,4.65Z"/>
  </g>
  <path class="cls-1" d="M404.53,262.54c-4.34,3.54-8.48,7.91-10.67,13.15-1.69,4.03-2.61,10.11,1.2,13.33.43.37,1.26.11,1.07-.56-.73-2.57-1.71-4.73-1.5-7.48.2-2.69,1.45-5.23,2.8-7.51,2.17-3.65,5.26-6.77,8.51-9.46,1.01-.83-.41-2.27-1.4-1.46Z"/>
  <g>
    <path class="cls-1" d="M422.76,262.57c-2.99,4.97-5.23,11.13-9.16,15.44-1.32-.8-2.67-1.55-4.12-2.12-5.9-2.32-5.3,4.57-4.34,8.16.15.56.7,1.05,1.32.89,3.01-.8,5.37-2.26,7.34-4.11,2.18,1.47,5.8,4.49,7.98,3.07.66-.43.18-1.31-.49-1.3.52,0-1.43-.7-1.99-1.02-1.11-.63-2.19-1.34-3.26-2.02-.21-.13-.42-.27-.62-.4,3.75-4.41,5.97-10.35,8.9-15.53.58-1.04-.93-2.07-1.56-1.03Z"/>
    <path class="cls-1" d="M407.01,282.4c-.52-1.94-1.16-5.06.99-4.61,1.38.29,2.7,1.04,3.94,1.83-1.41,1.2-3.04,2.14-4.93,2.78Z"/>
  </g>
  <path class="cls-1" d="M436.93,350.3c-.75,1.66-1.47,3.74-1.66,5.78-.4.13-.8.26-1.19.35-1.22.28-.56,2.11.64,1.83.19-.04.39-.1.57-.15.08.64.21,1.27.45,1.85.2.47,1.01.48,1.14-.05.19-.78.27-1.58.34-2.38.03-.01.06-.02.08-.03,1.22-.41,2.65-.8,3.6-1.7.33-.32.3-1.05-.29-1.08-1.04-.05-2.1.23-3.16.59.23-1.45.64-2.83,1.22-4.18.5-1.14-1.24-1.97-1.75-.82Z"/>
  <path class="cls-1" d="M21.06,336.39c.73-.52.81-.98.3-1.74-.47-.7-1.46.09-.89.72.04.04.07.08.11.12-.02.02-.04.05-.14.14-.46.43.11,1.12.62.75Z"/>
  <path class="cls-1" d="M34.55,261.14c1.17.48,1.39-1.67,1.58-2.28.39-1.25,1.01-2.38,1.7-3.49.65-1.04-1-1.96-1.66-.93-.71,1.1-1.36,2.23-1.81,3.46-.31.84-.98,2.77.19,3.24Z"/>
  <path class="cls-1" d="M26.24,342.21c-.89,2-1.48,4.06-1.32,6.27.05.65.93,1.24,1.5.74,1.09-.95,3.21-3.12,4.81-1.89,1.33,1.02,1.52,3.19,2.52,4.5.26.34.84.17.95-.21.68-2.34-.53-5.7-2.98-6.62-1.76-.66-3.44.07-4.84,1.17.17-1.08.54-2.14.97-3.14.45-1.06-1.13-1.89-1.6-.82Z"/>
  <g>
    <path class="cls-1" d="M358.81,309.11c-3.3,1.94-5.61,4.21-6.14,8.12-.11.82.75,1.62,1.54,1.09,1.41-.95,3.19-1.35,4.88-1.7.96,2.91,3.29,4.88,6.55,4.7,3-.16,6.53-4.16,5.32-7.21-.99-2.51-3.98-2.94-6.29-2.14-2.16.75-3.32,2.57-3.41,4.59-.22-.48-.38-.98-.49-1.46-.13-.59-.8-.76-1.3-.65-.27.06-.54.12-.81.18.43-.81.95-1.61,1.59-2.27.49-.5.28-1.21-.16-1.52.07-.2.14-.39.19-.6.19-.84-.71-1.59-1.49-1.13Z"/>
    <path class="cls-1" d="M362.87,318.4c.4-2.57,2.49-5.91,5.49-4.17,2.52,1.46-1.59,4.76-2.92,5.03-1.06.22-1.93-.08-2.64-.64.03-.07.06-.13.07-.22Z"/>
    <path class="cls-1" d="M355.22,315.55c.44-1.09,1.1-1.98,1.94-2.76-.14.35-.26.71-.34,1.08-.1.46.12.85.46,1.08-.69.17-1.39.36-2.05.61Z"/>
  </g>
  <path class="cls-1" d="M271.82,448.31c.26-.49-.22-1.27-.79-.9-2.64,1.68-4.62,4.66-4.53,7.89.06,2.14,1.99,3.34,3.99,2.92,9.31-1.93,10.31-12.67,13.04-19.99.36-.96-.75-1.65-1.53-1.12-1.46.98-3.1,1.55-4.67,2.27.79-1.03,2.38-1.28,3.78-1.85,1.28-.52.25-2.39-1.02-1.88-3.41,1.38-5.75,1.51-5.41,5.86.06.8.98,1.32,1.67.86,1.45-.97,3.04-1.61,4.57-2.38-1.21,4.05-2.41,8.13-4.73,11.7-.67,1.03-1.53,1.88-2.46,2.67-1.11.94-5.43,2.8-4.75-.38.43-2,1.85-3.89,2.83-5.67Z"/>
  <path class="cls-1" d="M370.07,276.02c-.79.35-.45,1.38.27,1.53,1.22.25,6.33-.4,4.03,1.98-1.6,1.66-4.23,2.05-6.44,1.57.2-.72.33-1.46.79-1.99.53-.59-.34-1.59-1.01-1.18-1.95,1.17-6.15,2.88-7.23-.3-.65-1.93.93-3.22,2.68-3.99-.07.05-.15.11-.2.2-.29.47-.63.93-.57,1.52.04.43.39.72.79.8,1.61.32,2.9-2.92,3.28-3.98.26-.73-.51-1.27-1.15-1.17-3.33.55-7.82,2.96-6.71,7.08.4,1.47,1.51,2.58,2.95,3.06,1.59.54,3.2.21,4.66-.47-.07.13-.14.27-.25.38-.53.57-.22,1.34.45,1.59,3.4,1.3,8.13.49,10.29-2.68,2.77-4.07-4.14-5.04-6.63-3.94Z"/>
  <path class="cls-1" d="M370.93,362.25c.76-.39.88-1.35.22-1.91-2.69-2.28-4.87-4.96-6.7-7.95,1.21-.33,2.59-.55,3.58.16.76.55,1.24,1.61,1.69,2.4.24.42.98.15.82-.33-.52-1.48-.86-2.88-2.21-3.81-1.56-1.07-4.04-.36-5.71,0-.66.15-.9.93-.61,1.49,1.68,3.21,3.91,6.05,6.5,8.56-1.53.61-3.12,1.09-4.74,1.45-1.34.3-2.9.14-4.15.75-.56.28-.72,1.12-.15,1.49,1.36.89,3.12.37,4.61.08,2.38-.47,4.69-1.29,6.84-2.4Z"/>
  <path class="cls-1" d="M372.19,434.54c-2.68,1.87-4.2,3.07-3.69,6.45.1.71,1.18,1.07,1.66.51,1.32-1.53,2.88-2.79,4.4-4.11-1.26,4.37-2.37,8.79-4.75,12.72-.83,1.37-1.98,2.44-3.26,3.37-.32.23-5.34,3.07-5.51,1.15-.31-3.28,3.81-6.64,6.1-8.24.49-.34.28-1.32-.4-1.19-3.51.65-6.3,3.5-7.54,6.81-.74,2-.93,5.51,2.09,5.64,4.33.19,8.21-3.07,10.51-6.41,3.37-4.91,4.04-11.42,5.84-16.97.31-.93-1-1.73-1.68-1-.73.82-1.55,1.55-2.37,2.27.33-.71-.61-1.54-1.39-1Z"/>
  <g>
    <path class="cls-1" d="M352.02,432.56c-6.05-.31-9.69,3.78-10.59,9.51-.07.4.25.92.65,1.02,5.05,1.2,9.86.08,14.11-2.33.66,1.9,1.5,3.7,2.69,5.45.55.81,1.71.58,1.98-.33.91-3.06,2.08-6.01,3.39-8.89.57.09,1.15.18,1.72.32.75.18,1.24-.88.53-1.27-.5-.28-.99-.5-1.49-.69,1.25-2.62,2.58-5.19,3.95-7.77.54-.93-.88-1.69-1.45-.8-.49.76-.97,1.53-1.44,2.31-1.36,1.98-2.97,3.81-4.76,5.44-1.81-.11-3.67.12-5.61.52-.59.12-.88.78-.76,1.32.2.84.41,1.65.63,2.45-2.15,1.28-4.51,2.11-6.95,2.6-1.43.29-2.88.24-4.32.11-.55-1.91-.07-3.54,1.46-4.9,1.24-1.52,3.1-2.08,4.97-2.18-.24.68-.52,1.32-.71,2.03-.22.86.99,1.49,1.55.79.31-.38.61-.78.9-1.18.27-.36.19-.72-.05-.97.16-.43.32-.86.41-1.32.11-.57-.17-1.2-.82-1.23Z"/>
    <path class="cls-1" d="M361.65,436.73c.12,0,.23.02.36.02-.96,2.09-1.82,4.22-2.55,6.39-.63-1.12-1.1-2.29-1.48-3.49,1.29-.87,2.51-1.86,3.67-2.92Z"/>
  </g>
  <path class="cls-1" d="M376.31,352.27c.27-1.02.23-2.35,1.09-3.09.99-.85-.44-2.33-1.4-1.46-1.22,1.1-1.69,3.46-.64,4.79.27.34.86.15.96-.24Z"/>
  <path class="cls-1" d="M389.2,363.58c1.05-1.9.5-4.29.62-6.39.05-.88-1.14-1.37-1.8-.89-1.87,1.37-4.16,1.73-6.04,2.96-.19-1.48-.26-2.98-.17-4.48.07-1.08-1.77-1.27-1.89-.19-.26,2.33-.17,4.67.27,6.97.14.75,1.24,1.12,1.77.53,1.46-1.64,3.49-2.11,5.4-2.88-.05,1.43.02,2.9.47,4.13.2.55,1.02.88,1.37.24Z"/>
  <path class="cls-1" d="M392.01,431.22c-.57,4.23-1.82,8.14-3.92,11.87-1.22,2.17-2.84,4.07-4.67,5.74-1.12,1.02-2.4,1.65-3.36,2.82-.38.46-.15,1.4.58,1.29,3.84-.53,6.81-4.72,8.81-7.73,1.1-1.65,1.99-3.45,2.69-5.32,2.99-.18,5.92-1.14,8.66-2.31,1.4-.59,4.62-1.91,4.8-3.72.18-1.78-2.44-2.29-3.6-2.95-1.41-.8-2.76-1.61-4.18-2.32,2.49-1.02,4.69-2.89,4.74-5.7.07-4.1-5.73-2.64-7.84-1.86-1.28.47-.41,2.38.86,1.92,1.59-.58,6.21-1.75,4.31,1.48-1.1,1.85-3.56,2.6-5.53,2.85-1.31.16-1.23,1.83-.08,2.17,1.93.58,3.65,1.57,5.37,2.6.71.43,1.43.86,2.16,1.27.22.11.44.23.67.35.07.07.13.1.2.15-2.88,2.09-6.45,2.65-9.77,3.78.57-1.95.97-3.94,1.22-5.92.17-1.38-1.94-1.86-2.13-.47Z"/>
  <path class="cls-1" d="M402.91,366.07c.3.47,1,.25.93-.33-1.35-10.68,3.2-19.51,11.5-26.16.64-.51-.21-1.51-.86-1.09-7.68,4.8-17.52,18.36-11.56,27.57Z"/>
  <g>
    <path class="cls-1" d="M420.1,301.66c-1.91,5-4.27,11.39-8.07,15.95-1.18-1.08-2.29-2.31-3.43-3.72-.4-.5-1.17-.43-1.6-.04-3.15,2.75-5.07,6.2-5.15,10.44-.01.74.58,1.31,1.33,1.19,3.54-.56,6.41-2.27,8.8-4.6,2.07,1.74,4.45,2.98,7.27,2.97,1.1,0,1.29-1.52.28-1.86-2.31-.77-4.17-1.76-5.83-3.01,3.84-4.73,6.24-11.13,8.14-16.46.41-1.15-1.28-2.03-1.72-.86Z"/>
    <path class="cls-1" d="M404.21,322.93c.39-2.6,1.59-4.75,3.45-6.61.85,1.03,1.74,2.08,2.7,3.06-1.75,1.65-3.77,2.91-6.15,3.56Z"/>
  </g>
  <g>
    <path class="cls-1" d="M129.11,280.22c-1.33,1.56-3.54,3.01-4.05,5.04-.14.56.38.93.88.84,2.3-.42,4.2-3.34,5.59-5.07,1.97-2.45,3.63-5.04,5-7.86.04.02.07.06.12.08,2.74.89,7.01-.7,8.56-3.18,1.58-2.52-.55-5.02-2.53-6.7,2.06-2.01,3.09-4.98.25-7.06-1.52-1.11-3.35-1.55-5.13-1.41-.36-1.05-.77-2.1-1.29-3.12-.45-.89-1.9-.36-1.47.57.44.96.8,1.92,1.09,2.88-1.18.35-2.3.95-3.22,1.82-.88.83.38,2.2,1.27,1.39.73-.67,1.55-1.11,2.42-1.36,1.16,5.42.14,10.87-2.55,16.01-1.34,2.57-3.07,4.93-4.95,7.13Z"/>
    <path class="cls-1" d="M138.41,256.86c.76.02,1.53.16,2.28.45,3.18,1.2,1.71,3.8-.34,5.27-.57.41-.46,1.28.05,1.67,1.61,1.23,4.59,3.58,2.07,5.44-1.55,1.14-3.56,1.2-5.27,1.99,2.04-4.81,2.44-9.91,1.2-14.81Z"/>
  </g>
  <path class="cls-1" d="M374.35,311.22c-.23,2.56,1.99,5.11,4.07,6.8-1.06.58-2.12,1.17-3.18,1.75-1.19.65-2.51.92-3.64,1.63-.58.36-.54,1.32.18,1.5,3.08.78,6.58-2.39,9.17-3.7.68-.35.97-1.44.22-1.91-2.55-1.57-8.46-8.29-.84-7.05.8.13.92-1.07.24-1.34-2.58-1-5.91-1.11-6.21,2.32Z"/>
  <path class="cls-1" d="M112.12,259.25c.14.64.37,1.24.89,1.69.24.2.72.1.86-.17.46-.94.28-2.25.06-3.26-.2-.92-1.17-1.2-1.84-.54-.42.41-.18,1.35-.12,1.85.02.17.07.32.15.44Z"/>
  <path class="cls-1" d="M104.44,268.45c1.86-3.87-1.43-6.53-4.88-8,0-.34-.17-.68-.56-.73-1.1-.15-2.21-.25-3.3-.47-1.11-.21-1.22,1.52-.14,1.73,2.78.56,8.64,2.54,7.13,6.54-1.18,3.13-4.72,2.29-7.11.93.69-.23,1.51-.25,2.2-.63.38-.21.46-.92-.06-1.03-2.15-.45-3.46-1.05-5,1.09-.38.53-.17,1.19.3,1.56,3.43,2.76,9.17,3.69,11.42-1Z"/>
  <path class="cls-1" d="M112.14,270.96c.14-.55.12-1.42.56-1.83,1-.95-.48-2.53-1.46-1.56-.8.78-1.07,1.96-1.05,3.05.02,1.08,1.66,1.5,1.96.35Z"/>
  <path class="cls-1" d="M96.22,310.18c1.88.25,3.69-.48,5.33-1.45-.14.84-.07,1.66.51,2.28,1.1,1.18,2.82.81,4.16.32,1.99-.73,6.93-3.62,5.2-6.4-1.17-1.87-4.59-1.48-6.36-1.14-1.17.23-.78,2.04.35,2,1.23-.04,2.42-.15,3.56.08.06.01.29.08.36.1.07.03.13.06.19.09-.02,0,0,.03.04.06,0,.02,0,.03-.01.05-.03.06-.07.18-.1.22-.06.11-.14.22-.22.33-.03.04-.18.22-.21.26-.11.12-.23.24-.34.35-.27.26-.57.5-.87.73-1.07.81-2.41,1.52-3.71,1.64-.05,0-.05,0-.06,0-.02,0-.04,0-.11,0-.04,0-.14-.02-.21-.04-.03-.01-.05-.03-.08-.04,0-.01,0-.01-.02-.03,0,0,0,0,.01.01-.02-.1-.02-.21-.02-.32,0-.04.02-.31.04-.37.04-.23.1-.45.17-.67.18-.57.44-1.12.69-1.66.38-.83-.69-1.84-1.45-1.2-1.76,1.51-4.06,2.97-6.48,2.82-1.17-.07-2.12-.68-2.49-1.99-.41-1.46.5-2.93,1.66-3.72,1.64-1.12,3.98-1.35,5.91-.82-.18.52-.38,1.03-.57,1.53-.25.23-.49.48-.7.75-.29.36-.43.92-.19,1.34.35.61.91.6,1.53.58.43-.01.81-.44.85-.84.03-.28.08-.54.14-.82.04-.03.08-.07.12-.11.43-.36.41-.89.17-1.25.11-.52.21-1.05.22-1.6,0-.38-.3-.69-.68-.7-2.89-.07-5.79-.75-8.32,1.11-1.69,1.24-2.48,3.4-1.91,5.43.5,1.81,2.15,2.87,3.93,3.11Z"/>
  <path class="cls-1" d="M393.54,329.17c.38.38,1-.09.84-.57-3.37-9.91,2.97-22.69,12.16-27.42.84-.43.12-1.9-.73-1.49-5.46,2.59-9.4,7.67-12.07,12.96-2.37,4.69-4.52,12.28-.19,16.52Z"/>
  <g>
    <path class="cls-1" d="M366.11,410.31c4.64-2.72,7.5-8.54,9.73-13.26.5-1.06.95-2.14,1.39-3.23,1.65-.31,3.25-.84,4.88-1.4,1.82-.63,3.99-1.4,5.33-2.87,2.81-3.08-1.08-5.7-4.19-7.26,2.35-1.25,4.63-3.39,3.15-5.98-1.14-2-3.06-1.75-4.84-.82-.21.04-.4.13-.54.31-1.21.73-2.3,1.7-2.96,2.41-.87.92.69,2.1,1.55,1.2.05-.05.12-.12.19-.2-1.48,4.52-2.88,9.08-4.64,13.5-.15.09-.29.18-.43.28-.33.25-.26.61-.04.84-1.22,2.89-2.63,5.68-4.32,8.34-1.56,2.47-3.73,4.55-5.1,7.13-.28.53.19,1.39.85,1Z"/>
    <path class="cls-1" d="M382.6,377.12c.9-.43,1.72-.5,2.07.38.59,1.5-1.63,2.69-3.18,3.3.37-1.23.73-2.46,1.11-3.68Z"/>
    <path class="cls-1" d="M380.71,383.43c1.85.82,3.84,1.73,5.2,3.25,1.12,1.25-1.55,2.26-2.41,2.64-1.71.76-3.54,1.23-5.28,1.88.91-2.56,1.72-5.16,2.49-7.76Z"/>
  </g>
  <path class="cls-1" d="M120.49,267.73c.12-.21.25-.41.4-.57.77-.86-.48-2.04-1.3-1.23-1.22,1.21-1.65,3.18-2.39,4.69-.52,1.06.8,2.22,1.69,1.3,1.17-1.19,2.51-2.55,4.24-2.8,2.1-.3,2.3,2.69,3.98,3.18.29.09.66-.14.78-.41.91-2.17-2.1-4.59-3.99-4.97-1.17-.24-2.34.16-3.41.8Z"/>
  <path class="cls-1" d="M324.89,436.51c-.76,1.04-1.5,2.29-2.06,3.61-.87.08-1.72.18-2.52.25-1.34.12-1.09,2.19.24,2.07.52-.05,1.04-.07,1.56-.11-.23,1.08-.31,2.17-.09,3.22.15.72,1.02.67,1.31.1.54-1.08.72-2.31,1.04-3.48.11,0,.21-.02.32-.02,1.52-.06,3.07.08,4.56-.27.53-.13.62-.96.11-1.19-1.26-.56-2.69-.71-4.15-.7.39-.78.85-1.52,1.37-2.23.81-1.09-.9-2.34-1.69-1.24Z"/>
  <path class="cls-1" d="M340.94,276.31c-1.33-.14-1.67,1.94-.35,2.04,1.97.15,4.3.1,5.97-1.09.44-.32.09-.89-.33-.97-.87-.17-1.82,0-2.7.05-.87.06-1.73.07-2.59-.02Z"/>
  <path class="cls-1" d="M373.74,356.28c-.44,1.04-.69,2.07-.89,3.18-.2,1.07-.48,2.43.05,3.44.24.46.85.66,1.23.21.67-.8.72-1.83.86-2.83.14-.96.34-1.96.73-2.86.59-1.34-1.41-2.48-1.98-1.14Z"/>
  <g>
    <path class="cls-1" d="M290.53,367.16c.64-.35.32-1.2-.37-1.16-1.36.07-4.71-2.8-5.9-3.57-.24-.16-.49-.32-.73-.48,2.73-4.33,5.42-10.08,5.57-15.04.04-1.17-2.01-1.25-2.05-.08-.16,4.2-2.56,8.77-4.48,12.39-.27.52-.56,1.04-.86,1.56-1.71-1.09-3.46-2.13-5.33-2.92-5.8-2.46-5.42,4.09-3.74,7.65,2.62,5.54,7.17,1.66,9.62-1.64,2.03,1.36,5.67,4.74,8.27,3.31Z"/>
    <path class="cls-1" d="M278.28,365.21c-2.53,2.27-3.89-.69-4.47-3.02-.69-2.77.35-2.9,2.58-1.86,1.42.66,2.76,1.5,4.08,2.36-.65.92-1.37,1.78-2.19,2.52Z"/>
  </g>
  <g>
    <path class="cls-1" d="M120.47,363.44c.96-2.17,1.67-4.43,2.27-6.73,2.87-.25,6.08-2,8.16-3.08.6-.31.83-1.31.26-1.78-2.28-1.89-3.91-4.38-5.95-6.49,2.46-.98,3.9-2.8,6.05-4.76.52-.47.58-1.14.06-1.65-2.32-2.24-4.05-.67-6.54.46-.63.28-.6.92-.27,1.34-.09.09-.16.21-.2.36-.21.82-.4,1.65-.6,2.47-.29.09-.57.17-.9.23-.78.15-1.03,1.32-.44,1.81.24.21.47.43.7.64-.61,2.64-1.21,5.28-1.9,7.9-.47.06-.91.14-1.4.18-.98.09-1.04,1.3-.29,1.74.32.19.67.32,1.02.42-.28.97-.55,1.95-.88,2.9-.95,2.77-2.15,5.39-3.74,7.85-1.77,2.72-4.47,4.11-6.62,6.39-.4.42,0,1.15.56,1.08,5.33-.65,8.71-6.92,10.66-11.32Z"/>
    <path class="cls-1" d="M125.87,340.99c.85-.41,1.96-1.1,2.98-1-1.07,1.01-2.02,1.98-3.19,2.71.09-.4.17-.8.26-1.2.05-.2.01-.37-.05-.51Z"/>
    <path class="cls-1" d="M124.61,347.93c1.25,1.44,2.4,2.97,3.73,4.35-1.64.69-3.24,1.18-4.9,1.53.43-1.95.8-3.91,1.17-5.88Z"/>
  </g>
  <g>
    <path class="cls-1" d="M186.96,438.15c1.6-2.7,2.35-5.89,3.37-8.85,1.03-3,2.05-6.01,3.02-9.03,4-.36,9.16-1.94,11.03-4.98,2.17-3.53-2.57-6.8-5.86-8.7,3.84-2.19,6.85-6.32,7.96-10.47,1.47-5.52-4.05-4.8-7.3-3.1-1.21.63-.3,2.54.92,1.91.72-.37,3.94-2.32,4.41-.79.39,1.27-.66,3.13-1.19,4.18-1.34,2.63-3.51,5.15-6.17,6.55.24-1.51.46-3.02.63-4.55.13-1.22-1.73-1.63-1.89-.39-.77,6.25-2.27,12.27-4.15,18.26-.38.11-.74.22-1.08.36-.81.32-.75,1.7.2,1.76.06,0,.12,0,.18,0-1.97,5.61-5,11.57-5.47,17.4-.06.76,1.03,1.04,1.4.41Z"/>
    <path class="cls-1" d="M196.54,407.99c2.54,1.38,7.83,4.44,5.26,6.87-1.94,1.84-4.91,2.27-7.67,2.79.95-3.19,1.76-6.41,2.41-9.66Z"/>
  </g>
  <path class="cls-1" d="M348.61,412.28c9.09-2.36,14.12-10.38,15.3-19.31.15-1.18-1.01-1.82-1.93-1.08-.98.79-1.77,1.71-2.83,2.44-.92.63-2.16.92-3.38,1.16,1.22-1.71,3.04-2.48,5.33-3.06,1.36-.34.73-2.4-.61-2.07-3.87.94-6.51,2.56-7.86,6.43-.29.84.6,1.62,1.4,1.41,1.82-.5,3.93-.66,5.62-1.54.52-.27.98-.6,1.41-.94-1.55,6.02-5.19,11.42-11.12,13.61.65-3.01,2.53-5.29,4.84-7.47.45-.43-.12-1.11-.64-.94-4.27,1.41-6.8,5.58-6.9,9.98-.02.7.53,1.61,1.38,1.39Z"/>
  <path class="cls-1" d="M212.88,352.91c1.79,4.19,5.95,5.07,8.59,8.35,1.58,1.96-1.97,5.99-4.07,5.24-.73-.26-2.12-1.34-2.47-1.59-.45-.33-1.21.06-1.06.65.25.98.74,2.25,2.32,2.97,2.95,1.33,5.23-.74,6.78-3.11,1.23-1.88,1.28-4.07-.15-5.81-2.24-2.73-5.75-3.6-7.63-6.62,2.27-.73,4.09-.42,6.48.36.64.21.96-.77.4-1.08-2.94-1.61-5.63-2.02-8.76-.71-.53.22-.64.87-.44,1.35Z"/>
  <path class="cls-1" d="M238.45,353.85c-.78,2.07-.59,4.38-.23,6.52.12.71,1.13,1.05,1.69.65,1.22-.86,2.88-2.26,4.49-2,1.32.22.64,3.57.99,4.57.15.42.62.56.96.26,1.76-1.58,1.76-5.09-.16-6.59-1.8-1.41-4.21-.45-6.08.78-.16-1.22-.15-2.45.27-3.61.44-1.22-1.46-1.78-1.93-.58Z"/>
  <path class="cls-1" d="M220.96,314.61c1.27-.93,2.67-.32,3.78.89.71.78,1.84-.26,1.2-1.08-.94-1.23-1.95-2.11-3.54-2.2-.94-.06-1.89.34-2.63.89-1.66,1.24-2.65,3.31-2.94,5.33-.26,1.84.28,3.97,2.11,4.79,2.54,1.14,5.55-.26,7.9-1.66.49,1.99,1.36,4.34,3.61,4.34,1.69,0,2.95-1.88,3.66-3.18.91-1.67,1.74-3.78,1.64-5.72-.09-1.85-1.54-3.1-3.37-2.33-1.53.64-3.22,2.02-3.87,3.55-.33.78.43,1.49,1.19,1.09,1.24-.66,2.14-1.77,3.37-2.44.05-.03.2-.08.35-.12,0,0,0,0,0,0,.08.27.03.03.05.27.02.35,0,.71-.04,1.06-.1.81-.33,1.61-.61,2.37-.3.82-.72,1.61-1.23,2.32-.39.53-.71.84-1.15,1.01-.06,0-.35.05-.07.06-.27,0-.19-.03-.18-.03-.31-.13,0,.05-.2-.13-.23-.2-.11-.07-.3-.35-.68-.97-1.03-2.24-1.24-3.39-.14-.72-.84-1.13-1.51-.73-1.88,1.13-4.8,2.99-7.12,2.2-.41-.14-.7-.49-.92-1.05-.18-.45-.17-1.32-.08-1.94.21-1.43,1.04-3.03,2.14-3.83Z"/>
  <path class="cls-1" d="M349.03,390.82c.59-.02,1.09-.87.44-1.24-1.11-.62-2.34-.96-3.62-1.15,1.71-3.12,3.77-6.06,5.81-8.96.62-.88-.91-1.98-1.54-1.11-2.3,3.18-4.67,6.42-6.58,9.89-2.24-.02-4.53.31-6.56.59-1.45.2-.87,2.39.56,2.2,1.59-.21,3.18-.34,4.78-.4-.35.75-.67,1.51-.96,2.29-.67,1.82-1.13,4.01-.29,5.85.94,2.07,3.8,2.97,5.73,1.89.5-.28.36-.99-.08-1.23-1.48-.81-3.57-.43-3.81-2.58-.24-2.08.9-4.36,1.79-6.21,1.46.07,2.9.23,4.34.17Z"/>
  <path class="cls-1" d="M142.74,350.62c2.33-.61,4.7-.86,7.1-.93,1.54-.05,3.81.6,5.04-.52.18-.17.2-.51.06-.71-.96-1.34-3.26-.97-4.69-.97-2.69,0-5.4.36-7.96,1.18-1.22.39-.82,2.29.45,1.96Z"/>
  <path class="cls-1" d="M147.08,350.45c-1.28.94-2.86.47-3.7,2.06-.25.47-.2,1.22.36,1.47,2.97,1.34,6.1,1.62,9.18.49.41-.15.59-.87.03-.97-1.94-.34-3.85-.36-5.73-.71.4-.18.77-.41,1.13-.68,1.08-.81-.19-2.46-1.27-1.66Z"/>
  <path class="cls-1" d="M170.8,370.03c.82,4.92,9.09,3.51,12.03,2.25.47-.2.59-1.07-.06-1.13-2.1-.18-9.85,1.16-9.67-2.45.17-3.3,3.76-6.77,5.82-9.03.53-.58.4-1.73-.49-1.9-3.83-.75-4.73,1.15-7.33,3.5-.86.78.44,2.29,1.33,1.55,1.03-.86,1.79-1.85,2.74-2.44-2.45,2.76-4.95,6.2-4.37,9.66Z"/>
  <g>
    <path class="cls-1" d="M165.71,438.01c.15.61.72,1.21,1.41,1.04,12.33-2.92,15.69-18.82,16.9-29.56.03-.26-.06-.51-.22-.71.76-.19,1.13-1.33.23-1.77-3.01-1.48-5.62-1.11-8.24.97-2.31,1.84-2.96,3.84-1.2,6.16.3.4.86.52,1.32.33,1.95-.82,3.83-1.41,5.51-2.44-1.28,9.02-4.41,21.28-13.47,24.23-.54-4.72,1.61-8.82,5.78-11.72.59-.41.1-1.51-.6-1.3-6.25,1.88-8.87,8.72-7.43,14.76Z"/>
    <path class="cls-1" d="M175.95,412.06c-.98-2.5,3.79-3.77,6.27-3.54-.01.02-.04.02-.05.04-1.78,1.96-3.94,2.62-6.22,3.5Z"/>
  </g>
  <path class="cls-1" d="M101.78,359.01c4.21.52,9.32-2.22,12.06-5.29.57-.64.34-1.5-.45-1.8-1.74-.68-3.2-1.8-4.78-2.75,1.75-.35,3.48-.29,5.4-.11,1.09.1,1.36-1.55.26-1.68-3.06-.36-5.74-.47-8.66.67-.82.32-.77,1.5.01,1.82,2.04.84,3.71,2.26,5.6,3.33-2.96,2.35-6.45,2.66-9.88,4.28-.84.39-.27,1.45.43,1.53Z"/>
  <path class="cls-1" d="M205.7,343.64c.91-.77-.26-2.19-1.18-1.43-5.23,4.32-8.82,9.87-9.81,16.63-.78,5.34.45,12.31,4.38,16.2.42.41,1.27.07,1.07-.56-1.8-5.92-4.15-10.48-3.03-16.98.95-5.53,4.37-10.29,8.57-13.85Z"/>
  <path class="cls-1" d="M63.5,346.02c-.73.93-.49,2.03.45,2.71.61.45,1.66,0,1.36-.86-.06-.19-.13-.37-.21-.55-.13-.2-.14-.23-.04-.09.82-.96-.77-2.19-1.55-1.2Z"/>
  <path class="cls-1" d="M111.79,311.39c-.37.17-.39.77-.1,1.02,2.4,2.06,7.22.69,8.42-2.21,1.07-2.56.16-5.24-.26-7.82-.16-1-1.64-.86-1.56.16.15,2.04.62,4.06.16,6.1-.72,3.19-4.54,1.78-6.66,2.75Z"/>
  <g>
    <path class="cls-1" d="M133.33,415.04c-2.91-3-5.97-5.98-9.35-8.12-.4-.25-1.01-.29-1.37.08-2.62,2.72-4.71,6.33-2.98,10.1,1.53,3.33,5.43,3.88,8.64,3.28,1.73-.33,3.27-1.01,4.64-1.97,1.1.8,2.28,1.44,3.6,1.81.79.22.99-.85.56-1.29-.71-.72-1.42-1.47-2.14-2.23,5.68-5.72,8.02-16.45,9.68-23.03.29-1.14-1.44-1.8-1.75-.64-1.88,7.24-3.92,14.84-8.55,20.86-.3.39-.63.77-.98,1.14Z"/>
    <path class="cls-1" d="M123.39,417.95c-3.89-1.74-1.94-6.19.1-8.62,2.72,2.07,4.99,5.14,7.59,7.55-2.31,1.51-5.09,2.23-7.69,1.07Z"/>
  </g>
  <path class="cls-1" d="M178.96,309.37c2.4.37,4.83.5,7.25.62,2.09.1,4.54.61,6.55-.08.52-.18.64-.88.14-1.17-1.57-.92-3.6-.93-5.46-.97.31-2.02-.12-4.16-.04-6.21.13-3.15.93-6.13,2.04-9.05.42-1.11-1.12-1.73-1.73-.89,0,0-.01,0-.02-.01-.03.05-.04.1-.07.15-.02.03-.04.05-.06.09-.18.45-.38.89-.57,1.34-.07.16-.14.31-.2.47-.96,2.16-2.04,4.27-3,6.42-.35.78.84,1.29,1.21.53.13-.26.27-.52.4-.77,0,.06-.02.11-.02.17-.29,2.37-.57,5.43.5,7.71-2.22-.11-4.43-.2-6.64-.33-1.13-.07-1.41,1.81-.27,1.99Z"/>
  <path class="cls-1" d="M170.64,355.36c2.79-.27,5.54-.74,8.32-1.06,2.79-.32,5.64.11,8.4-.33.62-.1.69-.85.18-1.14-2.21-1.27-4.82-1.04-7.28-.89-3.3.2-6.56.89-9.85,1.22-1.41.14-1.19,2.33.22,2.19Z"/>
  <path class="cls-1" d="M210.11,297.84c-4.15,5.48-6.91,11.72-7.68,18.57-.66,5.82.5,13.81,5.44,17.6.42.32,1.19-.03.95-.62-1.03-2.49-2.45-4.75-3.32-7.33-1.09-3.24-1.17-6.87-.83-10.22.63-6.19,3.47-12.06,7.17-16.97.78-1.04-.96-2.05-1.74-1.03Z"/>
  <path class="cls-1" d="M245.77,431.65c-3.52,3.56-4.69,10.16.76,12.65,4.94,2.26,10.86-1.01,15-3.59,1.53-.95,3.08-2.01,4.58-3.15.5.01,1,.1,1.5.21-.78,2.09-1.44,4.2-1.91,6.19-.18.72.66,1.25,1.17.64,3.57-4.27,4.45-10.51,7.36-15.27.68-1.12-1.02-2.1-1.74-1.03-1.66,2.47-3.98,4.89-6.62,7.05-2.19.1-4.35,1.42-5.37,3.51-.05.09-.05.18-.07.27-2.7,1.58-5.5,2.81-8.15,3.48-5.47,1.37-9.61-3.25-6.15-8.37,1.48-2.18,3.74-3.93,6.11-4.99,2.69-1.21,3.88,1.58,5.16,3.13.47.57,1.57.13,1.51-.61l-.02-.27c-.03-.37-.25-.62-.52-.75-1.15-1.55-2.2-3.55-4.43-3.63-3.2-.1-6.06,2.39-8.17,4.53Z"/>
  <path class="cls-1" d="M242.75,312.56c-1.18,1.66-.24,2.31.81,3.69,1.54,2.03,1.98,4.68.13,6.64-1.41,1.49-3.61,1.42-5,2.83-.31.31-.12.87.25,1.03,3.31,1.43,7.3-2.25,8.15-5.26.51-1.82-.18-3.75-1.02-5.35-.22-.42-.51-.81-.8-1.18-.27-.34-.4-.52-.54-.62.29.08.57.13.95,0,1.21-.43.75-2.35-.5-1.96-.74.23-1.71-.82-2.42.19Z"/>
  <path class="cls-1" d="M176.74,322.74c1.7,3.11,5.75,4.94,9.25,4.25.64-.12.81-.97.19-1.26-2.34-1.09-5.1-1.15-6.82-3.15,1.96-1.37,3.32-3.5,5.48-4.66.55-.3.56-1.04.29-1.52-.65-1.14-1.37-2.13-2.78-2.18-1.23-.04-2.42,1.4-3.48,1.87-1.27.56-.24,2.43,1.02,1.88.57-.25,1.06-.55,1.56-.91.61-.43.92-.57,1.21-.35-1.92,1.4-3.28,3.53-5.43,4.52-.55.26-.78,1-.49,1.52Z"/>
  <path class="cls-1" d="M343.61,351.84c-.35,1.36-.67,2.72-.96,4.1-.66-.12-1.31-.28-1.93-.47-1.2-.36-1.96,1.45-.75,1.81.69.21,1.47.42,2.28.57-.33,1.75-.66,3.77-.02,5.42.24.61,1.02.6,1.24-.02.54-1.6.52-3.44.76-5.14,1.93.11,3.84-.23,5.12-1.6.32-.34-.09-.76-.44-.76-1.28,0-2.54.3-3.83.37-.16,0-.32,0-.48,0,.29-1.33.61-2.66.94-3.98.31-1.22-1.62-1.51-1.93-.3Z"/>
  <g>
    <path class="cls-1" d="M282.65,305.95c-.57,4.06-1.48,8.11-3.6,11.38-.88-1.12-1.75-2.32-2.72-3.54-.44-.56-1.26-.62-1.74-.06-3.01,3.49-3.19,5.76-.92,9.8.3.52.99.52,1.44.26,1.48-.84,2.7-1.86,3.73-3.02,2.08,2.35,4.54,4.09,8.06,3.68.87-.1.76-1.24.01-1.44-2.94-.79-4.9-2.3-6.6-4.17,2.35-3.66,3.28-8.23,3.7-12.71.08-.78-1.26-.96-1.37-.18Z"/>
    <path class="cls-1" d="M274.94,321.47c-.96-2.13-.84-3.48.46-5.25.71.98,1.43,2.01,2.18,3-.76.83-1.62,1.59-2.64,2.25Z"/>
  </g>
  <path class="cls-1" d="M298.96,362c1.17-.05,2.4-.02,3.49-.49.44-.19.58-.86.15-1.14-1.77-1.19-4.33-.53-6.35-.71-.62-.06-1.13.61-1.12,1.18.02.68.56,1.05,1.18,1.11.88.08,1.76.1,2.65.06Z"/>
  <path class="cls-1" d="M174.24,344.36c-.83.7.16,2.06,1.02,1.37.78-.63,1.5-1.28,2.19-1.94-.39,2.88-.17,5.72.97,7.96.25.48.99.24,1.07-.23.52-2.84.18-5.77.63-8.64.18-1.15.49-2.25.86-3.33,1.02-1.59,1.86-3.32,2.46-5.25.39-1.27-1.32-1.69-1.99-.79-1.33,1.79-2.51,4.25-3.27,6.87-1.14,1.45-2.48,2.76-3.94,3.99Z"/>
  <path class="cls-1" d="M160.67,405.43c-1.71.03-3.41.16-5.1.49-1.39.28-1.12,2.48.28,2.19,1.67-.34,3.35-.46,5.05-.5.45-.01.91-.01,1.38-.02-.9,2.2-1.65,4.42-2.19,6.65-.5,2.09-.93,5.28,1.05,6.77,2.08,1.57,5.45.72,7.17-.98.45-.44-.04-1.09-.56-1.08-1.76.02-5.16,1.84-5.78-.81-.71-3.06,1.04-6.83,2.13-9.7.15-.39.32-.78.47-1.18.2-.06.41-.11.61-.2.63-.3.56-1.04,0-1.32,1.64-3.94,3.6-7.86,5.98-11.32.52-.75-.72-1.42-1.23-.69-2.49,3.57-4.85,7.54-6.73,11.67-.85-.04-1.72,0-2.54.02Z"/>
  <path class="cls-1" d="M150.52,307.34c1.78-.31,3.56-.38,5.37-.39,1.69,0,3.45.21,5.02-.54.48-.23.48-.92-.03-1.13-1.71-.7-3.68-.49-5.5-.46-1.73.02-3.44.17-5.12.57-1.21.28-1.02,2.17.25,1.95Z"/>
  <path class="cls-1" d="M157.72,311.97c.57-.27.27-1.03-.2-1.18-1.06-.34-2.16-.47-3.23-.84-.91-.31-1.75-.78-2.61-1.19-1.24-.59-2.38,1.24-1.13,1.81,2.21,1.01,4.73,2.55,7.17,1.39Z"/>
  <path class="cls-1" d="M5.94,351.52c3.36.24,6.25-1.18,8.06-3.98.25-.39.12-.9-.17-1.22-1.95-2.12-4.64-3.64-6.8-5.54-1.95-1.71-5.81-5.6.36-6.34,1.92-.23,3.98.5,5.62,1.44.81.47,1.4-.84.61-1.31-3.06-1.81-12.66-3.24-11.3,3.03.94,4.34,6.39,6.64,9.47,9.54-1.23,1.49-2.8,2.02-4.8,2.18-.42.03-1.83-.1-3-.26-.83-.54-1.65-1.16-2.63-1.39-.79-.19-1.36.55-1.36,1.26.02,2.5,4.27,2.47,5.94,2.59Z"/>
  <path class="cls-1" d="M94.76,439.38c.06-3.86,2.3-8.11,4.48-11.19.45-.63-.38-1.42-1.01-1.06-4.09,2.33-6.2,8.96-5.89,13.5.33,4.79,5.87,4.51,8.7,2.1,4.18-3.55,5.14-10.37,5.85-15.46.66-4.7.89-9.59.65-14.37.02-.05.06-.08.08-.14.36-1.08,1.08-1.99,1.47-3.06.34-.92-.77-1.44-1.48-1.14-2.13.92-2.93,2.33-4.11,4.29-.54.9.72,2.11,1.56,1.42.12-.1.25-.2.38-.31.3,7.29-.43,15.02-2.76,21.81-.6,1.77-1.49,3.43-2.73,4.82-1.82,2.05-5.24,2.25-5.18-1.22Z"/>
  <path class="cls-1" d="M183.57,281.06c-.45.35-.75,1.1-.32,1.6,2.65,3.06,6.96,5.03,11,3.72.69-.22.46-1.09-.11-1.26-3.08-.91-5.81-1.02-8.18-3.01,3.4-2.64,6.85-5.07,9.33-8.71.32-.47.07-1.22-.42-1.47-3.58-1.81-4.65-.16-7.3,2.15-1.01.89.24,2.54,1.27,1.66,1.43-1.22,2.18-2.55,3.74-2.33-2.5,3.08-5.88,5.21-9.01,7.64Z"/>
  <path class="cls-1" d="M98.34,393c-2.58,4-4.59,8.77-6.11,13.6-2.16.39-4.28,1.21-5.77,2.3-1.18.87.01,2.82,1.21,1.95,1.14-.83,2.43-1.28,3.78-1.6-.66,2.38-1.22,4.74-1.65,7.02-.49,2.58-1.1,6.36.93,8.46,2.16,2.23,6.49.21,7.91-1.9.3-.44.11-1.33-.59-1.18-1.66.34-5.35,3.22-6.13.45-1.08-3.81.61-8.36,1.68-12.09.12-.42.25-.85.37-1.27,1.29-.24,2.57-.51,3.76-1.01.49-.2.47-.85-.04-1-.9-.28-1.93-.38-3.01-.37,1.32-4.32,2.89-8.77,5.11-12.55.54-.93-.87-1.7-1.45-.81Z"/>
  <path class="cls-1" d="M390.14,196.57c-1.44-1.08-3.65-1-5.37-.99-1.74,0-3.49.14-5.07.93-1.14.56-.41,2.43.81,2.07,1.33-.41,2.67-.53,4.06-.54,1.81-.01,3.8.44,5.5-.25.54-.22.45-.92.06-1.21Z"/>
  <path class="cls-1" d="M361.36,208.64c.21-2.74.58-5.46,1.35-8.1.46-1.56,1.12-3.05,2.22-4.25.89-.97,2.22-.71,3.35-1.06.58-.19.88-.83.47-1.34-2.5-3.06-6.15.33-7.46,2.72-.09-1.68-.17-3.36-.23-5.05-.03-.82-1.19-.7-1.23.07-.17,3.39-.17,6.76-.31,10.13-.46,2.24-.64,4.56-.63,6.71.02,1.57,2.34,1.78,2.47.17Z"/>
  <path class="cls-1" d="M364.22,124.64c-1.13.96.16,2.89,1.33,1.93.97-.81,1.95-1.58,3-2.27,1.16-.75,2.62-.99,3.68-1.89.38-.34.31-.92-.16-1.13-2.74-1.26-5.96,1.74-7.86,3.37Z"/>
  <path class="cls-1" d="M407.76,81.7c-.06,1,1.29,1.11,1.63.27,1.29-3.21,4.31-5.73,7.91-5.64,3.69.08,1.45,3.1-.13,4.68-1.12,1.13-.15,2.75,1.33,2.6,1.28-.13,3.05-.37,4.25.21.48.23,0,.69-.25,1.07-.64.94-1.59,1.66-2.52,2.3-1.45,1.01-3.25,1.4-4.6,2.47-.73.56-.22,1.64.49,1.88,2.4.84,5.54-1.2,7.27-2.64,1.27-1.07,2.36-2.38,2.82-4.01.89-3.09-1.86-4.06-4.55-4.29.69-1.09,1.14-2.3,1.01-3.61-.19-1.86-1.77-3.08-3.49-3.46-5.21-1.13-10.88,2.73-11.18,8.17Z"/>
  <path class="cls-1" d="M425.64,160.1c-.64.28-.92.98-.83,1.63.75,6.1,1.85,12.11.75,18.18-2.68-2.36-3.68-5.68-4.76-9.1-.31-1.02-1.91-.69-1.63.36,1.24,4.68,2.64,8.43,6.29,11.74.7.64,1.75.45,2.1-.47,2.37-6.4,1.17-13.31.36-19.93,7.81-2.46,16.52-2.08,23.94-5.31.65-.27.57-1.4-.14-1.54-8.08-1.55-18.68,1.25-26.08,4.45Z"/>
  <path class="cls-1" d="M394.04,113.58c-.86.59.15,1.82.98,1.26,8.46-5.66,16.34-12.13,24.38-18.35,4.84-3.73,9.72-7.38,14.89-10.65,4.5-2.85,9.64-4.84,13.94-7.94.52-.37.17-1.23-.46-1.15-9.79,1.15-19.39,9.44-26.88,15.3-9.05,7.08-17.39,15-26.86,21.55Z"/>
  <path class="cls-1" d="M375.75,125.84c-1.15.39-2.07,1.2-3.03,1.92-.39.29-.78.57-1.2.83-.59.37-1.32,1.1-1.54.1-.3-1.3-2.24-1.12-2.1.26.56,5.68,7.73.67,8.88-2.09.28-.65-.39-1.25-1.02-1.03Z"/>
  <g>
    <path class="cls-1" d="M252.12,160.74c-1.18-.83-2.58-1.22-4.02-1.04-.72.09-1.69.41-2.42.94-.26-.31-.85-.39-1.03.07-1.08,2.82-.94,6.32.96,8.76,2.21,2.84,5.77,1.05,7.77-1.01,2.28-2.35,1.21-5.98-1.25-7.71Z"/>
    <path class="cls-1" d="M250.58,168.06c-1.85,1.56-3.52.7-4.43-1.33-.51-1.15-.75-2.38-.71-3.61,1.12-.04,1.91-1.03,3.04-1.17,1.03-.13,2.01.34,2.76,1.01.62.56,1.07,1.38,1.16,2.22.13,1.31-.92,2.12-1.82,2.88Z"/>
  </g>
  <path class="cls-1" d="M216.49,101.07c.3.03.65-.07.93-.11.2-.03.32-.09.43-.14.89.51,1.86.95,2.86,1.07.89.11,1.87-.33,2.01-1.3.17-1.2-1.02-2.21-2.05-2.53-1.65-.52-3.97-.03-4.95,1.47-.36.55-.09,1.47.67,1.49-.27-.04-.24-.03.1.05Z"/>
  <g>
    <path class="cls-1" d="M116.86,221.83c-.93,2.39-1.81,4.8-2.36,7.26-.17.71.78.9,1.17.47,1.79-1.95,3.03-4.31,4.05-6.85,1.14.14,2.31.03,3.39-.46.4,2.03,1.06,4.02,2.35,5.47.43.48,1.19.12,1.21-.47.13-2.65-1.01-5.26-1.57-7.83-.65-2.92-1.13-5.88-1.58-8.84.49-1.44,1.03-2.84,1.67-4.14.45-.91-.99-1.82-1.54-.94-.46.74-.9,1.49-1.28,2.25-.4.03-.78.33-.73.85,0,.18.03.35.04.53-1.14,2.42-2.02,4.94-2.89,7.52-.3.9-.63,1.82-.98,2.72-.55-.22-1.08-.49-1.62-.89-1.15-.83-2.66,1.07-1.55,1.97.67.54,1.42,1.02,2.22,1.4Z"/>
    <path class="cls-1" d="M122.19,214.92c.1,1.11.2,2.23.34,3.33.06.55.13,1.14.21,1.73-.71,0-1.39,0-2.05-.04.54-1.65,1.02-3.35,1.5-5.03Z"/>
  </g>
  <path class="cls-1" d="M344.97,124.45c-2.02,3.8,1.76,8.99,4.23,11.61.69.74,1.97-.42,1.33-1.2-1.53-1.85-2.71-3.87-3.4-6.17-1.26-4.17,3.41-6.05,5.83-2.79,1.8,2.43,2,6.8.08,9.27-.5-1.08-1.02-2.16-1.5-3.23-.38-.84-1.63-.12-1.25.72.54,1.17,1.06,2.36,1.56,3.56-.56.19-1.12.43-1.65.74-1.27.77-.66,3.01.92,2.58.13-.04.23-.09.35-.13.02,0,.03-.01.04-.02.47-.16.91-.36,1.32-.6.03,0,.06-.02.08-.02,1.82,4.5,3.57,9.06,5.76,13.36.17.34.77.27.69-.16-.92-4.61-2.79-9.12-4.78-13.51,5.02-.32,10.2,4.61,15.15,4.54,1.08-.01,1.22-1.4.41-1.91-3.2-2.05-7.47-3.37-11.08-4.57-1.08-.37-2.2-.63-3.31-.73,2.35-4.16,1.67-10.42-2.42-13.2-2.79-1.89-6.73-1.24-8.35,1.85Z"/>
  <path class="cls-1" d="M205.72,121.03c3.41-1.06,6.41-3.74,8.56-6.51.46-.61.37-1.38-.3-1.79-1.27-.79-2.53-1.77-4.04-1.97-.42-.05-.85,0-1.28.13.09-1.05-.07-2.15-.01-3.19.03-.51-.59-1.06-1.09-.95-.78.15-1.71.33-2.15,1.1-.34.59-.26,1.28-.59,1.85-.64,1.13,1.1,2.1,1.75.98,0-.01.02-.03.02-.04-.08.94-1.32,1.87-1.88,2.43-.8.78-.05,2.46,1.1,1.82,1.18-.66,2.4-1.54,3.72-1.9.62-.17,1.47.35,2.2.88-2.1,2.05-4.58,3.47-7.19,4.86-1.36.73-.15,2.72,1.19,2.31Z"/>
  <path class="cls-1" d="M253.13,155.03c.29.83,1.06.95,1.83.8.55.56,1.15,1.05,1.91,1.28,1.93.56,3.38-1.68,4.21-3,.4-.63.03-1.63-.64-1.92-2.38-1.04-4.07-.67-5.79.61-.06-.04-.12-.1-.18-.14-.94-.7-1.93.58-1.19,1.38-.18.29-.25.68-.15.99Z"/>
  <path class="cls-1" d="M241.53,160.81c1.17.86,2.3-1.04,1.18-1.91-8.07-6.16-15.91,7.16-10.96,13.83,2.29,3.1,6.26,1.91,8.38-.76,2.62-3.27-1.89-6.54-4.91-4.55-.36.24-.27.86.08,1.08.71.45,2.76.56,3.16,1.26.31.53-1.19,1.63-1.5,1.84-2.43,1.54-3.8-.63-4.17-2.88-.82-4.82,3.66-11.62,8.74-7.91Z"/>
  <g>
    <path class="cls-1" d="M214.75,111.75s.01.02.02.02c-.08.2-.09.44.06.69,1.71,2.67,4.64,4.09,7.43,1.98,2.11-1.59,3.2-4.1,1.86-6.48-1.14-2.03-3.86-2.88-6.03-2.36-2.45.57-4.72,3.77-3.34,6.16Z"/>
    <path class="cls-1" d="M218.62,108.38c.97-.4,2.04-.08,2.84.53.75.58.89,1.4.42,2.2-.69,1.16-1.64,2.46-3.13,2.42-1.14-.04-2.03-1.05-2.64-1.89.88-1.03,1.21-2.71,2.52-3.26Z"/>
  </g>
  <path class="cls-1" d="M388.24,200.43c-1.15-.33-2.28-.42-3.48-.42-.74,0-2.13.31-2.72-.03-1.39-.82-2.65,1.2-1.33,2.11,1.98,1.36,5.62.59,7.54-.45.44-.24.6-1.04-.01-1.21Z"/>
  <path class="cls-1" d="M354.69,69.02c1.82-1.1,3.67-2.17,5.55-3.2.65-.36,1.3-.69,1.89-1.05.36,3.82,1.01,7.59,3.11,10.48.41.57,1.47.21,1.44-.49-.22-6.24-1.97-13.08-3.41-19.15-.27-1.15-2.22-.69-2.01.47.34,1.86.5,3.91.65,6.01-1.11.37-2.13.99-3.22,1.59-.94.52-1.86,1.04-2.78,1.59.66-3.32,1.11-6.82.83-10.08-.13-1.48-2.43-1.38-2.31.11.33,4.01-.47,8.45-1.58,12.27-.3,1.04.86,2.02,1.83,1.45Z"/>
  <path class="cls-1" d="M359.48,31.02c-2.77-2.51-5.31-5.36-6.79-8.8-.4-.95-1.82-.33-1.47.62,1.83,4.9,5.53,8.64,9.45,11.98.74.63,1.76-.06,1.71-.95-.54-7.72-4.54-14.7-8.84-21,8.65-3.58,15.78-9.33,25.55-9.36.84,0,1.27-.81.82-1.52-4.52-7.18-24.07,7.29-28.74,9.05-.76.29-1.2,1.22-.69,1.94,3.99,5.7,7.09,11.48,9.01,18.04Z"/>
  <path class="cls-1" d="M443.72,165.25c-1.43-1.05-3.13-2.14-4.99-1.71-1.63.39-2.68,1.71-3.81,2.83-.87.84.52,2.24,1.45,1.5.7-.56,1.37-1.17,2.1-1.7.8-.6,1.67-.37,2.47.07-1.28,1.12-2.33,2.47-3.98,3.16-1.36.57-.37,2.64.96,2.32,2.05-.5,3.81-.11,5.61.44-.58.27-1.2.49-1.88.66-1.14.27-1.89.24-2.8,1.04-.66.58-.42,1.47.3,1.84,2.77,1.45,6.84-1.02,8.47-3.18.56-.74.17-2.07-.87-2.13-1.5-.08-2.87-.84-4.31-1.24-.32-.09-.65-.14-.98-.18.61-.63,1.24-1.22,2.03-1.65.78-.43,1-1.5.22-2.08Z"/>
  <path class="cls-1" d="M368.45,25.82c-1.88.42-1.43,3.33.47,2.95,4.46-.91,8.78-4.45,7.16-9.47-1.05-3.21-4.1-3.64-7.01-3.03.75-1.56.95-3.29,1.08-5.72.04-.63-.24-1.25-.94-1.37-4.48-.77-6.87.9-7.18,5.47-.07,1.08,1.47,1.12,1.65.09.43-2.53,1.89-3.51,4.06-3.38-.21,2.64-.52,4.38-2.9,6.5-1.12,1,.03,2.68,1.36,1.92,2.27-1.3,6.27-2.8,7.65.44,1.4,3.24-3.14,5.1-5.42,5.6Z"/>
  <path class="cls-1" d="M150.8,117.1c2.42,1.55,6.18.63,8.25-1.06.65-.52.05-1.43-.62-1.47-1.76-.11-4.95.95-6.22-.11-.63-.52,0-2.36.29-3.08.5-1.28,1.27-2.53,2.2-3.54.71-.76,2.22-2.16,2.36-.35.04.66,1,.53.99-.1,0-.8.03-2.1-.82-2.5-.79-.36-1.58-.19-2.31.2-2,1.06-3.68,3.36-4.7,5.29-1.09,2.05-1.75,5.22.6,6.71Z"/>
  <g>
    <path class="cls-1" d="M387.32,91.56c-1.21-.33-2.3.42-3.11,1.25-3.03,3.11-2.22,7.94.87,10.62.45.39,1.12.49,1.58.02,1.95-1.97,3.25-4.09,3.62-6.41.56.53,1.15,1.01,1.61,1.65.6.85,2.23.39,1.82-.74-.34-.91-.73-2.05-1.42-2.76-1.05-1.1-2.2-2.18-2.8-3.6-.46-1.05-1.76-.81-2.18-.03Z"/>
    <path class="cls-1" d="M385.82,101.03c-1.51-1.65-2.1-3.66-1.06-5.93.32-.7.84-1.36,1.49-1.79,1.06-.69,1,.99.98,1.62-.03.52.38.83.77.86,0,1.89-.8,3.59-2.18,5.23Z"/>
  </g>
  <path class="cls-1" d="M172.61,126.21c-.84.42-.68,1.59.25,1.78,3.67.72,6.85-2.32,7.31-5.78.08-.57-.15-.98-.62-1.28-.94-.61-2.05-.92-3.18-1.04.55-1.33,1.02-2.74,2.04-3.58.81-.67.05-1.92-.84-1.93-1.24-.02-3.18-.03-3.9,1.25-.66,1.19-.39,2.51-.84,3.76-.19.54.22.97.7,1.05-.4.81.1,1.8,1.1,1.74,1.03-.05,2.12.05,3.1.45-.71,2.5-2.82,2.45-5.09,3.58Z"/>
  <path class="cls-1" d="M172.43,173.11c-.15.22-.63.89,0,0h0Z"/>
  <path class="cls-1" d="M428.37,97.35c-.08-.74-.59-1.25-1.38-1.12-5.23.91-8.8,5.25-10.65,9.98-.45,1.14,1.33,1.76,1.79.64,1.51-3.67,4.18-6.98,8.01-8.13-.09,1.53-.54,2.79-1.37,3.87-1.28.77-2.41,1.7-3.29,2.59-.96.99.34,2.32,1.44,1.76,1.47-.74,2.66-1.65,3.56-2.74,1.9-1.04,4.04-1.49,5.51.18,2.86,3.23-5.78,6-7.22,6.52-1.48.53-1.11,3.07.54,2.8,4.31-.7,13.15-5.63,8.39-10.94-1.6-1.77-3.64-2.05-5.67-1.56.34-1.16.47-2.43.34-3.84Z"/>
  <g>
    <path class="cls-1" d="M218.85,222.3c.11-.64.16-1.28.18-1.92,1.75.38,4.29-.76,5.45-1.73,1.55-1.28,1.98-3.07,1.31-4.96-1.12-3.25-4.86-4.36-8.02-4.08-.33-2.41-.65-4.81-1.05-7.19-.16-.98-1.58-.85-1.53.15.19,3.56.55,7.14.87,10.7.27,3.03.17,6.23,1.38,9.05.26.61,1.27.77,1.42-.03Z"/>
    <path class="cls-1" d="M223.67,214.08c1.17,2.91-2.59,3.09-4.75,3.85-.18-1.7-.51-3.39-.72-5.07-.08-.57-.15-1.14-.23-1.71,2.25-.05,4.81.71,5.7,2.93Z"/>
  </g>
  <path class="cls-1" d="M402.09,92.83c-2.52-.19-4.21-1.43-5.87-3.63-.75-1-2.12.23-1.46,1.22,2.13,3.19,4.62,4.85,8.51,4.92.69.01,1.24-.49,1.3-1.19.31-3.73-.85-7.03-3.73-9.52-2.55-2.21-8.97-4.63-9.14-8.46-.22-5.08,8.12-9.15,11.68-11.3,4.5-2.7,9.49-5.69,14.57-7.19,1.42-.42.97-2.61-.48-2.52-5.08.28-10.22,3.8-14.49,6.36-4.3,2.57-9.19,5.47-12.17,9.57-2.25,3.1-2.52,6.65.07,9.55,3.97,4.43,10.86,5.43,11.19,12.2Z"/>
  <path class="cls-1" d="M403.57,195.69c-.84.2-.66,1.41.21,1.32,8.79-.87,17.05-4.1,25.27-7.16,5.05-1.88,10.13-3.65,15.35-5,5.48-1.41,11.37-.86,16.7-2.39.49-.14.6-.85.13-1.09-7.01-3.65-17.67.41-24.51,2.66-11.14,3.67-21.7,8.93-33.14,11.65Z"/>
  <path class="cls-1" d="M286.55,66.4c4.49.87,9.8.79,13.59,3.68,3.29,2.5,1.04,6.53-1.76,8.19-2.13,1.26-4.9,1.53-7.31.83-.33-.47-.41-1.11-1.12-1.39-1.07-.45-1.87.16-2.62.83-.75.66-.56,1.93.27,2.42,5.85,3.46,16.41.48,16.74-7.28.33-7.6-9.45-8.59-15.55-9.55,2.09-3.16,6.24-6.07,9.18-4.2.59.81.96,1.73,1.35,2.65.22.52.72.75,1.25.72.19-.01.36-.01.54-.01.77,0,1.5-.74,1.25-1.55-2.9-9.54-14.07-3.71-16.79,2.82-.33.79.11,1.68.97,1.85Z"/>
  <path class="cls-1" d="M310.44,66.7c.78-.65,1.57-1.34,2.56-1.65.83-.26,1.74.02,2.58-.22.35-.09.65-.54.49-.91-1.42-3.4-5.38-1.16-7.24.38-1.42,1.17.17,3.57,1.6,2.39Z"/>
  <path class="cls-1" d="M247.46,104.5c1.82-.51,2.96-2.44,3.75-4.27.89.76,1.84,1.44,2.86,2.13.87.59,2.82,2.59,3.84,1.13.38-.54.33-1.1,0-1.63-1.44-2.33-4.44-2.99-6.22-4.95-.69-.77-1.98-.52-2.32.47-.41,1.16-.84,2.33-1.5,3.37-.39.62-.9,1.13-1.24,1.26,0,0-.03,0-.05,0-.14-.06-.45-.36-.34-.23-.46-.53-.51-.76-.69-1.46-.34-1.23-.33-2.69.44-3.77,1.23-1.74,4.28-.6,5.74.06.53.23.95-.47.45-.78-2.65-1.67-6.33-3.07-8.46.02-1.12,1.62-1.07,4.09-.44,5.89.63,1.76,2.15,3.35,4.17,2.79Z"/>
  <path class="cls-1" d="M303.43,190.18c3.29,4.19,12.09,3.67,16.21,1.59.67-.33.46-1.48-.27-1.59-4.09-.69-17.77,1.65-13.4-6.8,1.11-2.14,3.06-3.96,5.17-5.09,2.54-1.36,3.37-.06,4.16,2.3,0,0,.01-.01.02-.01.03.11.06.23.1.33.51,1.2,2.32.56,2.36-.6.1-3.17-2.2-5.86-5.49-5.36-3.34.51-6.25,3.16-8.12,5.84-1.93,2.76-3,6.5-.74,9.38Z"/>
  <path class="cls-1" d="M309.8,73.32c2.3-.19,4.62-1.04,6.06-2.91.31-.4-.03-1.04-.52-1.06-1.57-.05-2.96.64-4.41,1.16.78-1.07-.69-2.27-1.61-1.31-1.1,1.15-1.57,1.85-.79,3.41.25.51.71.76,1.27.71Z"/>
  <path class="cls-1" d="M185.82,31.47c1.23-1.48,2.18-2.98,4.24-2.77-.43,1.91-.65,3.74-1.88,5.5-.49.69.24,1.81,1.06,1.69,1.91-.27,6.21-.72,6.22,2.25,0,2.48-2.66,3.64-4.89,4.38-.03-1.65-.26-3.33-.44-4.91-.08-.79-1.33-.72-1.23.08.21,1.76.27,3.5.34,5.26-.1.03-.21.06-.31.09-1.29.42-.83,2.55.45,2.59.02.28.03.56.05.84.03.38.53.42.64.07.11-.32.18-.63.25-.95,3.76-.38,7.6-3.3,7.62-7.33.02-3.84-3.56-4.91-6.79-4.85.61-1.65.74-3.34,1.24-5.16.15-.53-.03-1.23-.64-1.4-3.48-.97-5.3.55-7.42,3.24-.81,1.01.65,2.39,1.48,1.38Z"/>
  <g>
    <path class="cls-1" d="M406.68,173.6c-2.6,2.75-3.54,8.22-2.39,11.73.24.74,1.11,1.23,1.78.62,1.52-1.36,3.03-2.36,4.25-3.67.26.56.68,1.06,1.34,1.43,1.63.89,4.8.84,6.36-.06.38-.22.52-.88.13-1.16-1.14-.84-2.5-.79-3.89-.81-2.06-.05-2.08-1.28-1.89-3.04.02-.18-.02-.33-.06-.47.01,0,.02,0,.03,0,.1-.04.18-.09.27-.13.35-.17.71-.48.74-.91.07-1.33-.21-2.6-.41-3.92-.15-1.06-1.67-.75-1.59.28v.02c-1.18-1.41-2.78-1.89-4.67.1Z"/>
    <path class="cls-1" d="M410.2,178.24c-.73,2.37-2.4,3.54-4.14,4.9-.2-1.99.25-4.02.96-5.88.37-.97.88-1.97,1.67-2.66,1.09-.95,1.82,2.19,1.94,2.64.04.13.1.25.16.37-.26.11-.48.31-.58.63Z"/>
  </g>
  <path class="cls-1" d="M332.67,21.64c.24-.37.46-1.03.78-1.51,1.02,2.45,1.63,4.8.81,7.57-.27.87.54,1.78,1.42,1.74,2.38-.1,6.49-.25,7.88-2.52.28-.45.04-1.13-.5-1.25-1.31-.3-2.7.14-4,.39-.63.12-1.28.22-1.92.3-.05-2.88-1.12-5.51-2.43-8.18-.19-.39-.69-.59-1.1-.49-1.64.44-1.65,1.53-2.43,2.81-.6,1,.8,2.14,1.47,1.13Z"/>
  <g>
    <path class="cls-1" d="M170.63,172.1c-.37.03-.72.22-.76.65-.35,3.04,1.14,5.79,3.97,7.04,2.65,1.16,5.53.2,6.93-2.3,1.74-3.12.55-6.88-2.48-8.58-1.31-.74-2.86-.81-4.29-.47-1.93.46-2.87,1.92-3.37,3.65Z"/>
    <path class="cls-1" d="M173.74,171.8c.67-.54,1.38-.77,2.22-.75,2.28.07,3.39,2.47,2.94,4.44-.42,1.89-1.72,2.78-3.6,2.52-2.36-.34-3.68-2.36-3.72-4.54.32.02.65-.09.85-.37.34-.47.86-.94,1.31-1.31Z"/>
  </g>
  <g>
    <path class="cls-1" d="M331.85,45.06c1.38-1.14,2.52-2.59,3.34-4.19.33.75.74,1.48,1.21,2.18.64.94,2.02.38,1.82-.75-.39-2.06-1.63-3.36-1.74-5.28.08-.51.14-1.03.16-1.54.03-.98-1.4-1.52-1.76-.47-.06.13-.08.26-.12.39-1.92-3.75-5.98-3.48-8.56-.23-2.03,2.54-3.23,8.08-.95,10.84,1.79,2.18,4.95.42,6.6-.95Z"/>
    <path class="cls-1" d="M326.37,39.26c.39-1.71,1.38-3.42,2.88-4.38,1.87-1.2,3.4.32,4.47,1.78.19.26.48.34.75.3-.02.3-.02.59,0,.89-.92,3.32-3.63,6.93-6.83,7.31-2.42.29-1.52-4.81-1.26-5.9Z"/>
  </g>
  <path class="cls-1" d="M324.29,59.26c11.29.28,21.76-4.62,31.68-9.48,4.94-2.42,9.78-5.05,14.7-7.5,5.49-2.73,11.3-4.61,16.82-7.22,1.07-.51.69-2.14-.53-2.03-10.21.94-20.18,7.7-29.06,12.37-10.75,5.65-21.53,10.95-33.66,12.79-.59.09-.56,1.05.05,1.07Z"/>
  <g>
    <path class="cls-1" d="M144.47,203.74c.08.01.15,0,.24-.01,3.41-.93,6.84-1.74,10.28-2.47-.02.21-.04.41-.05.61-.05.52.69.77,1.02.4.4-.47.72-.94.98-1.41,20.96-4.26,42.35-5.48,63.55-8.59,13.09-1.92,26.08-4.43,39.08-6.76,6.28-1.12,12.56-2.21,18.87-3.21,6.99-1.12,14.51-1.4,21.29-3.4,1.1-.32.94-2.2-.23-2.28-1.38-.08-2.79-.06-4.21.01.14-.42.13-.9-.14-1.33-3.1-5.06-7.64-9.33-11.62-13.71-4.45-4.9-8.96-9.76-13.45-14.63-9.34-10.1-18.72-20.16-27.92-30.38-18.02-20.01-35.41-40.85-50.46-63.2-.34-.51-1.12.01-.79.53,7.5,11.92,15.62,23.33,24.18,34.43-.36.02-.73.24-.88.63-1.38,3.74-1.82,6.53-5.26,9.05-2.95,2.17-6.96,3.3-10.59,3.65-3.23-16.17-6.81-32.26-10.13-48.42-.17-.8-1.44-.67-1.28.14,4.17,22.22,8.11,44.51,11.88,66.8,1.9,11.16,3.59,22.36,5.06,33.6,1.35,10.34,1.32,21.41,3.98,31.51.28,1.03,1.93.76,2.02-.24.96-10.4-1.39-21.5-2.78-31.79-1.42-10.53-3.13-21.02-4.95-31.49-1.11-6.39-2.32-12.75-3.58-19.1,7.15,0,18.64-3.92,17.6-12.97,7.62,9.81,15.55,19.38,23.71,28.82,8.63,9.96,17.46,19.73,26.28,29.51,4.4,4.87,8.79,9.75,13.18,14.62,4.27,4.74,8.29,10.03,13.18,14.18-4.19.43-8.4,1.28-12.45,1.92-2.56.4-5.1.84-7.66,1.28.16-1.61-.03-3.25.36-4.87.59-2.5,2.53-4.39,4.65-5.69,1.19-.72.27-2.68-.96-1.96-2.39,1.41-4.3,3.22-5.45,5.76-.93,2.03-1.38,4.94-.34,7.05-1.19.21-2.37.43-3.56.63.19-1.21.15-2.5.25-3.68.17-1.97.63-3.92,1.2-5.81,1.19-3.91,3.64-7.68,7.82-8.71.86-.21.85-1.69-.12-1.63-3.95.27-6.7,2.69-8.66,5.97-1.97,3.26-4.32,10.08-2.89,14.29-1.78.32-3.56.63-5.35.96-13.12,2.4-26.23,4.91-39.42,6.96-18.83,2.92-38.58,3.52-57.34,7.68-.16-3.09-2.32-6.34-4.19-8.44-2.46-2.77-6.01-4.39-9.59-5.16,1.74-4.94,3.68-9.82,5.07-14.6,4.12-14.01,8.86-27.83,13.33-41.74,3.28-10.21,6.85-20.49,9.98-30.88,4.23,2.87,10.14,3.77,14-.2.35-.35-.1-.95-.54-.77-4.64,1.81-8.81,1.62-12.98-.62,4.12-13.9,7.38-28,8-42.45.03-.57-.83-.57-.87-.02-1.36,14.14-4.56,28-8.55,41.67-.7-.36-1.29.58-.69,1.13.09.08.2.16.28.24-3.9,13.23-8.47,26.3-12.75,39.29-4.34,13.2-9,26.29-13.23,39.53-3.01,9.38-9.48,19.41-8.07,29.63.2,1.42,2.21,1.28,2.67.16Z"/>
    <path class="cls-1" d="M148.48,184.33c3.05.9,5.77,2.41,8.07,4.67,1.25,1.22,2.21,2.63,3.01,4.17.71,1.35.89,2.8,1.21,4.23-1.03.25-2.06.49-3.09.75.15-4.73-5.32-9.27-9.36-11-.38-.16-.7.04-.9.34.34-1.06.69-2.11,1.05-3.16Z"/>
    <path class="cls-1" d="M147.27,188c0,.28.1.55.39.69,2.34,1.16,4.36,2.62,5.97,4.71,1.37,1.77,1.59,3.55,1.54,5.44-3.58,1.01-7.11,2.16-10.57,3.53.09-4.83,1.19-9.63,2.67-14.38Z"/>
  </g>
  <path class="cls-1" d="M188.25,122.3c1.38-1.5,1.31-4.14.81-5.97-.37-1.32-1.24-2.8-2.8-2.68-.83.06-1.49.65-1.99,1.25-.81.95-1.72,2.64-1.17,3.77.18.37.58.62,1,.44.34-.14.59-.36.78-.64.35-.34.52-.74.75-1.22,0-.02,0-.02.02-.03.03-.07.07-.13.1-.19.08-.15.17-.28.26-.43.11-.16.23-.32.37-.48.03-.02.05-.05.07-.07t.01.01s0,0,.02.03c.05.07.1.15.15.23.69,1.19.85,3.26.26,4.61-.05.11-.09.16-.18.28-.04.04-.07.08-.1.11h0s-.06.05-.1.07c-.17.12-.41.14-.72.09-1.07-.16-2.07-1.17-2.8-1.88-.65-.63-1.65.31-1.02.98,1.5,1.59,4.26,3.88,6.26,1.7Z"/>
  <g>
    <path class="cls-1" d="M191.62,106.24c.1-.54-.12-.99-.58-1.28-1-.63-2.22-1.14-3.4-.66-1.01.42-1.93,1.47-2.07,2.58-.07.58-.27,1.33.39,1.68.35.19.68.13.98-.04.06,0,.14,0,.21-.02.25-.07.79.22,1.01.31.49.22.96.36,1.51.31,1.38-.11,1.76-1.83,1.95-2.89Z"/>
    <path class="cls-1" d="M188.85,107.35c-.25-.01-.5-.07-.75-.12.02-.04.05-.07.07-.1.1-.14.08-.13.23-.31.04-.04.13-.1.15-.12.25-.09.51-.06.77.02-.04.34-.14.64-.47.63Z"/>
  </g>
  <g>
    <path class="cls-1" d="M184.79,159.47c-.37-1.39-1.63-2.19-3.01-2.27-.73-.05-1.46.19-2.11.5-1.42.7-2.74,1.66-2.85,3.4-.02.34.25.74.63.73.3,0,.59-.06.87-.14-.01.25.08.51.38.67,1.49.86,3.42,1.49,4.98.43,1.07-.72,1.45-2.12,1.12-3.32Z"/>
    <path class="cls-1" d="M182,161.38c-.72.42-1.7.08-2.43-.23.11-.07.22-.13.33-.21.25-.18.5-.35.76-.5.03-.02.05-.04.07-.04,0,0,0,0,.02,0,.11-.05.22-.1.33-.15.12-.04.6-.17.48-.16.19-.03.38-.07.58-.05,0,0,.01.02.05.03.01,0,.03.02.05.03.02.02.06.05.09.07t.02.03s.05.09.07.13c0,.01,0,.04.02.07.08.34-.04.75-.43.98Z"/>
  </g>
  <g>
    <path class="cls-1" d="M166.38,172.78c1.08-.16.68-1.74-.37-1.63-3.39.37-5.5,2.74-5.97,6.07-.4,2.77.12,7.58,3.75,7.75,1.84.09,4.53-1.46,4.63-3.5.14-2.83-4.35-2.36-6.19-1.15-.04-.3-.07-.57-.09-.78-.17-1.42-.03-2.86.59-4.15.64-1.32,2.22-2.39,3.65-2.61Z"/>
    <path class="cls-1" d="M165.68,181.71s.14,0,.25.02c-.56.75-1.78,1.25-2.64.93-.29-.11-.5-.37-.66-.68,1,.08,2.03-.27,3.05-.27Z"/>
  </g>
</svg>