<?xml version="1.0" encoding="UTF-8"?>
<svg id="Layer_1" data-name="Layer 1" xmlns="http://www.w3.org/2000/svg" viewBox="0 0 651.1 255.49">
  <defs>
    <style>
      .cls-1 {
        fill: #423c7c;
      }
    </style>
  </defs>
  <path class="cls-1" d="M275.95,4.81c.04-.45.07-.89.11-1.34.25-.42-.27-1.88-.81-1.88-.39,0-.77,0-1.16,0-.14,0-.19.07-.2.22-.58,9.01.62,18.08,1.31,27.06.8,10.32.55,20.67.98,31.01.89,21.48,3.16,42.86,4.12,64.34.93,20.86,1.12,41.75,1.17,62.63.06,22.7.6,45.39.72,68.08,0,1.03,3.19.58,3.18-.62-.06-20.44-1.59-40.81-1.64-61.26-.05-21.71-.28-43.42-1.18-65.11-.88-21.45-3.09-42.81-4.22-64.25-.54-10.38-.36-20.78-1.11-31.14-.19-2.57-2.94-29-1.25-29-.28-.53-.57-1.05-.86-1.58.1,1.01.15,2.01.15,3.02,0,0,.67-.06.67-.16h0Z"/>
  <path class="cls-1" d="M271.72.46c-2.61,7.8-5.36,15.56-6.66,23.69.82.34,1.65.68,2.47,1.01.5-6.06,1.94-13.18,5.57-18.15,3.83-5.26,6.81,2.62,7.92,5.67.88,2.41,1.5,4.95,2.13,7.44.7,2.76,1.62,3.87,2.85,6.35.1.21.38.62.52.22,1.84-5.25-1.66-13.08-4.02-17.79-1.49-2.97-4.54-6.13-8.23-5.32-7.02,1.54-9.48,14.74-9.24,20.72.03.88,2.6,1.6,2.49.86-1.28-8.64,2.28-17.16,4.99-25.16-.01.04-.72.22-.8.46h0Z"/>
  <path class="cls-1" d="M.04,151.47c8.18-3.4,17.95-2.21,26.61-2.21,10.83,0,21.66.03,32.49-.23,13.73-.33,27.33.14,41.03.64,19.99.72,40.01.9,60.01,1.07,50.96.43,101.96.34,152.91-.9,26.43-.64,52.72-2.37,79.17-2.47,43.18-.16,86.37.34,129.55.74,43.04.4,86.09,1.23,129.12,1.23.67,0-.84-1.64-1.13-1.75-2.96-1.12-5.94-2.07-8.97-2.98-2.62-.79-4.48-.9-7.18-1.23.28.03.61,0,.88-.08,1.7-.51-1.16-3.3-1.53-3.72-2.3-2.57-8.48-8.82-12.38-8.33-.13.01-.22.07-.29.18-.2.63.51,1.27.84,1.72.42.56,2.89,1.35,2.03.21-1.16-1.54-.05.1.97.89,1.01.78,1.99,1.61,2.98,2.42.86.7,4.52,5.12,5.05,5.19-1.48-.19-.49,1.01.27,1.29,5.97,2.21,12.14,3.86,18.09,6.11-.38-.58-.75-1.17-1.13-1.75-73.66-.09-147.31-1.84-220.97-1.92-72.86-.08-145.57,3.51-218.45,3.59-31.7.03-63.41-.09-95.1-.81-12.75-.29-25.5-1.23-38.24-1.32-14.06-.09-28.12.53-42.19.53-10.78,0-23.9-1.94-34.07,2.46-.35.15-.5,1.47-.38,1.42H.04Z"/>
  <path class="cls-1" d="M645.82,147.78c-7.89-.93-13.61,2.2-20.11,6.26-2.71,1.69-5.26,3.62-7.46,5.95-1.99,2.12-1.88,2.93-.9,5.51.03.07.09.17.18.1,2.06-1.73,3.02-4.42,5.07-6.33,1.96-1.81,4.31-3.24,6.58-4.61,2.04-1.23,4.16-2.33,6.28-3.42,3.21-1.65,6.3-1.49,9.79-2.19.25-.05.69-1.26.56-1.27h0Z"/>
  <path class="cls-1" d="M358.93,72.87c-5.97.02-11.64-1.53-17.75-1.09-7.49.54-14.69,3.1-21.23,6.67-11.42,6.23-20.1,16.69-26.15,28.01-8.56,16.01-11.19,34.59-18.87,51.03-7.85,16.8-19.37,31.08-33.03,43.5-15.01,13.65-33.42,29.95-54.99,22-17.31-6.39-30.94-22.82-42.16-36.74-5.55-6.89-10.55-14.2-15.08-21.79-5.18-8.68-8.19-18-11.97-27.32-6.76-16.68-15.79-31.56-30.23-42.62-23.84-18.26-55.41-18.71-84.08-18.72-1.3,0-3.45,2.91-1.66,2.92,32,.04,65.56,1.38,90.31,24.37,13.42,12.46,20.57,29.87,26.82,46.7,6.48,17.44,17.77,32.62,29.95,46.55,10.83,12.4,23.36,24.87,39.49,29.79,15.22,4.64,30.19-3.73,42.07-12.58,13.78-10.25,26.51-22.56,36.5-36.55,10.56-14.79,16.31-31.68,21.71-48.82,5.03-15.96,11.47-30.47,24.15-41.81,6.67-5.97,14.81-9.94,23.46-11.99,8.42-1.99,15.71.23,24.14.26.94,0-.74-1.75-1.41-1.75h0Z"/>
  <path class="cls-1" d="M359.26,73.97c19.69,4.08,32.8,24.08,41.32,40.61,8.85,17.17,14.01,35.96,22.47,53.32,12.31,25.25,40,54.84,70.93,45.48,26.36-7.98,39.27-38.89,47.22-62.43,9.59-28.39,17.6-62.74,47.98-75.96,5.45-2.37,11.32-3.48,17.17-4.32,1.28-.18,3.24-3.36,1.3-3.2-28.32,2.34-46.84,24.64-57.4,49.14-11.94,27.69-15.46,59.65-37.48,82.07-14.21,14.48-32.54,17.9-50.67,8.65-16.84-8.59-29.57-24.1-37.81-40.75-14.69-29.67-22.08-66.18-49.87-87.4-4.54-3.47-8.92-4.88-14.43-5.68-.22-.03-.71.47-.75.46h0Z"/>
  <path class="cls-1" d="M221.15,31.49c-9.31,1.28-1.47-15.47.87-19.04-.84-.32-1.68-.63-2.52-.95,1.13,4.13,4.27,14.37,10.26,13.92,5.57-.42,7.18-7.95,8.85-12.22-1.02-.03-2.04-.06-3.06-.09-.83,7.14-1.1,14.19-.55,21.36.58,7.59,3.07,14.82,4.07,22.35.42,3.18.24,6.56-.67,9.63-2.56,1.6-4.4,1.37-5.52-.71-1.57-1.88-1.65-4.59-1.4-6.88.6-5.42,5.01-9.37,7.98-13.57.14-.2.32-1.71.03-1.55-6.5,3.61-11.46,11.69-11.29,19.24.11,4.82,5.62,10.88,10.38,7.15,6.49-5.09,3.55-16.04,1.98-22.75-2.69-11.51-3.23-22.65-1.89-34.39.11-.98-2.75-.88-3.06-.09-1.15,2.95-2.23,5.92-3.8,8.68-3.23,5.69-9.07-7.65-9.83-9.49-.22-.53-2.05-1.49-2.45-.77-2.2,3.99-8.38,22.58.92,20.63.23-.05.62-.47.71-.48h0Z"/>
  <path class="cls-1" d="M630.64,175.06c1.05.04,1.36-.08,2.12.58.83.72,1.56,1.59,2.33,2.37,1.46,1.45,2.8,3.03,4.16,4.57,1.11,1.25,2.23,2.5,3.45,3.64,1.79,1.68,2.37,1.83,4.79,1.43.24-.04.6-.12.53-.45-.43-2.08-1.61-2.5-3.11-3.95-1.79-1.71-3.44-3.56-5.2-5.29-2.35-2.32-6.34-4.47-9.65-4.84-.23-.03-.05,1.92.58,1.94h0Z"/>
  <path class="cls-1" d="M649.37,171.66c-7.38-8.81-18.52,18.59-19.34,23.92-.15.95,2.89.95,3.11-.13-.57,2.76-.06.3.09-.44.29-1.42.64-2.78,1.1-4.15.96-2.84,2.26-5.58,3.63-8.24,1.06-2.07,7.11-14.05,10.71-10.75.11.1.68-.24.7-.21h0Z"/>
  <path class="cls-1" d="M363.25,21.24c2.86-1.34,1.7,7.37,2.32,9.26.66,1.98,1.24,2.88,3.28,3.34,5.85,1.34,8.37-7.08,8.64-11.38-1.02-.04-2.03-.09-3.04-.13.06,7.53.9,14.94,1.92,22.39.56,4.06,2.37,7.8,3.39,11.78.56,2.2.76,4.44.51,6.7-.6,5.29-3.64.38-4.58-1.56-3.07-6.33-.7-13.84,6.75-16.11.64-.19-.72-2.22-1.37-1.86-5.37,2.91-11.38,8.8-10.15,15.73.84,4.72,4.07,10.24,9.24,8,5.4-2.34,3.23-10.39,2.01-14.48-3-10.01-4.45-19.91-4.67-30.45-.02-1.02-2.99-1.14-3.04-.13-.08,1.58-.46,3.07-.91,4.58-.44,1.53-1.16,2.9-2.14,4.12-5.33,7.34-5.35-15.69-5.59-11.46,0-.13-.03-.14-.13-.07-.92.59-1.83,1.18-2.75,1.77-.42.22.19.03.32-.03h0Z"/>
  <path class="cls-1" d="M392.29,34.33c-.53-.5-.93-.88-1.58-1.19.37.62.74,1.24,1.11,1.86,2.76-2.01,5.7-2.85,9.1-3.15,2.97-.26,9.99,1.03,11.49-1.47.01-.02.18-.28.11-.3-3.2-1.3-8.14-.28-11.47.13-2.77.34-8.65.52-10.6,2.93-.26.32.17.92.35,1.17.48.65.96,1.23,1.51,1.82.1.1.38-1.42-.03-1.8h0Z"/>
  <path class="cls-1" d="M394.58,24.05c.76.74,5.57-.58,6.33-.69,3.32-.48,7.31-1.3,10.61-1.16.48.02-.4-2.07-1.09-1.93-2.15.44-4.67-.06-6.92.28-3.71.56-7.28,1.69-10.97,2.36-1.13.21-.06,1.02.42,1.21.23.09,2.03,1.78,2.35,1.55.44-.33-.54-1.41-.74-1.61h0Z"/>
  <path class="cls-1" d="M433.27,12.3c-5.15,2.7-15.67,7.46-12.51,15.26,1.85,4.56,9.59,5.24,13.18,7.5,4.52,2.85,4.85,7.72-.4,9.88-1.9.78-4.22,1-6.22.54-2.4-.55-3.08-3.18-4.53-4.89-.13-.16-.67-.75-.87-.37-2.56,4.99,1.52,8.61,6.34,8.57,4.47-.04,9.78-3.2,11.91-7.09,2.48-4.55-2.34-7.96-5.84-9.79-3.71-1.94-11.24-2.09-10.84-7.93.3-4.49,6.41-7.8,9.54-10.16.29-.22.42-1.62.24-1.53h0Z"/>
  <path class="cls-1" d="M445.33,25.66c2.49,5.73,1.59,13.67,1.46,19.73-.04,1.84,3.03-.1,3.07-1.41.08-2.67.26-5.35.23-8.02-.04-4.01-1.5-6.7-3.6-10.06-.32-.51-1.72-1.54-1.16-.24h0Z"/>
  <path class="cls-1" d="M461.23,15.96c-.43,9.93-2.65,19.55-1.6,29.54.09.86,1.41.37,1.8.15,8.16-4.7,6.36-16.1,13.44-21.53-.8.12-1.59.23-2.39.35,3.3,5.56.99,12.28,4.78,17.82.98,1.43,3.6-1.27,2.8-2.45-3.63-5.39-1.24-11.88-4.55-17.18-.5-.8-1.89-.03-2.39.35-6.64,5.08-5.49,16.28-12.23,20.48.6.05,1.2.1,1.8.15-.79-8.81.8-17.63.73-26.47,0-.73-2.15-1.94-2.18-1.22h0Z"/>
  <path class="cls-1" d="M494.64,16.48c-.5,6.45,2.15,11.73,5.91,16.82,3.17,4.28,8.49,12.41,13.81,13.31.13.02.36-.04.34-.22-.73-5.58-6.12-9.44-9.69-13.58-4-4.64-7.39-9.84-7.34-16.17,0-1.01-2.96-1.16-3.03-.16h0Z"/>
  <path class="cls-1" d="M514.14,10.97c-5.77,4.94-10.03,11.36-12.99,18.34-1.85,4.37-6.29,13.02-2.66,17.09.08.09.53.54.63.22,2-5.92,2.39-11.93,5.01-17.76,2.67-5.95,6.7-11.49,11.38-16.02.45-.44-.95-2.22-1.37-1.86h0Z"/>
  <path class="cls-1" d="M411.74,145.29c-.06,2.01-1.35,4.03-1.9,5.98-.34,1.21-.38,2.37-.2,3.61.2,1.34,1.76,2.57,2.24,3.57.03.07.89-1.12.49-1.43-.38-.35-.76-.71-1.14-1.06.28.5.55,1.01.83,1.51.25-2-.54-4.02-.38-6.12.17-2.27.73-4.53.88-6.79,0,0-.8.44-.81.73h0Z"/>
  <path class="cls-1" d="M400.29,174.05c-1.26,4.8-1.57,9.91-.15,14.65.07.24.83-1.09.67-1.12,1.85.33-.05-13.42-.06-13.99-.02-.67-.41.29-.46.46h0Z"/>
  <path class="cls-1" d="M400.64,174.13c1.63-.23,8.09-.81,7.05,2.61-.59,1.94-.47,4.42-.59,6.43-.09,1.58-.05,3.17-.06,4.74,0,2.61-.22,2.46,1.67,4.47.08.08.32.32.42.11,2.69-5.62.56-11.93-.83-17.6-.63-2.56-6.19-1.08-8-.84.07,0,.23.08.33.06h0Z"/>
  <path class="cls-1" d="M392.31,173.2c-.07-.06-.13-.13-.2-.19,0,.4.01.81.02,1.21,1.76-2.77,4.78-4.77,7.7-6.18,2.51-1.2,7.46-3.99,10.21-3.52.74.13-.56-2.15-1.51-1.76,1.25-.52-1.42.63-1.86.71-1.14.2-2.3.76-3.37,1.16-2.57.96-5.09,2.18-7.51,3.47-2.66,1.42-6.28,3.33-3.58,6.8.3.38.42-1.33.08-1.7h0Z"/>
  <path class="cls-1" d="M269.98,71.81c-.59-.02-1.16-.13-1.75-.21-.46-.06.16,1.99.77,1.96,3.58-.17,7.44-.74,10.99-.07.17.03.27,0,.33-.16.02-.05.04-.09.06-.14.06-.16.33-1.45,0-1.46-4.05-.18-8.07.37-12.14-.13-.86-.11.78,2.5.94,1.87.06-.21.11-.43.17-.64-.1.18-.21.36-.31.54.19,0,.37-.01.56-.02.36-.01.58-1.52.39-1.53h0Z"/>
  <path class="cls-1" d="M253.06,64.6c.12,1.84-.85,3.53-1.23,5.35-.39,1.86-.7,3.72-.9,5.61-.4,3.74.08,5.83,2.66,8.41.06.06.23.15.27.01.94-2.72.08-5.36.09-8.22.01-3.58-.64-8.13-.11-11.56-.01.07-.79.17-.78.39h0Z"/>
  <path class="cls-1" d="M275.92,237.06c.83-.44,2.04-.14,2.99-.21,1.33-.1,3.85-.61,4.6.93.05.11.91-1.16.52-1.4-1.26-.77-2.42-1.43-3.91-1.6-.67-.08-1.15.1-1.73.41-.12.09-.22.18-.33.28-.75.77-1.78,1.24-2.74,1.67.11-.05.43,0,.6-.08h0Z"/>
  <path class="cls-1" d="M236.28,239.79c-.8.01-1.6.02-2.4.03.71.42,1.41.83,2.12,1.25.01-.47.2-.89.22-1.35-.39.14-.78.28-1.18.42,1.93.03,3.85.29,5.79.32,2.77.05,4.97-.57,7.61-1.3.58-.16-.99-2.26-1.76-1.7-3.42,2.48-8.19,1.33-12.15,1.29-.23,0-1.19-.03-1.18.42.01.36.21.63.22.98.02.67,1.34,1.25,1.88,1.25.84,0,1.67.02,2.51.03.91.01-.93-1.65-1.67-1.64h0Z"/>
  <path class="cls-1" d="M259.67,221.74c0-.11,0-.23,0-.35,0-.18-.43-1.96-.72-1.54-3.16,4.52-2.36,14.33-2.31,19.68.03,3.07.45,6.13,1.66,8.96.32.75,3.78,3.28,3.86,2.21.02-.22-.36-1.63-.65-1.56.26-.06-1.6-9.14-1.66-10.46-.17-4.09.3-8.21.59-12.28.08-1.1.07-2.19.04-3.29-.03-.97-1.65-2.45-1.6-.98,0-.03.78-.2.78-.39h0Z"/>
</svg>