<?xml version="1.0" encoding="UTF-8"?>
<svg id="Layer_1" data-name="Layer 1" xmlns="http://www.w3.org/2000/svg" viewBox="0 0 344.82 296.5">
  <defs>
    <style>
      .cls-1 {
        fill: #423c7c;
      }
    </style>
  </defs>
  <path class="cls-1" d="M128.07,46.66c.89-3.46,2.91-5.69,4.86-8.55.21-.31.4-.63.58-.94.07,4.76.64,9.57,2.19,13.89.17.48,1.01.43.94-.14-.82-7.09-1.1-14.1-1.6-21.21-.03-.84-1.23-.81-1.29,0-.09,1.26-.16,2.55-.2,3.84-.45,1.88-1.44,3.52-2.91,5.22-1.28,1.46-2.28,3.03-3.05,4.73-.72-4.27-1.35-8.54-1.45-12.88-.02-.74-1.16-.81-1.16-.06.02,5.38.73,10.68,1.58,15.98.13.84,1.29.99,1.51.11Z"/>
  <path class="cls-1" d="M128,19.27c.62-3.05.87-6.15,1.42-9.21,1.14,2.23,2.53,4.34,3.37,6.7.18.52,1.05.67,1.35.17,2.54-4.32,3.69-11.57,2.59-16.46-.14-.64-.97-.62-1.12,0-1.12,4.73-.39,9.47-2.11,14.07-1.21-2.39-2.75-4.61-3.72-7.13-.24-.64-1.19-.69-1.36.03-.94,3.84-1.7,7.71-1.79,11.67-.02.8,1.23.93,1.39.15Z"/>
  <path class="cls-1" d="M133.72,68.16c-1.17-.64-2.74-.42-4.03-.31-1.28.12-2.48.38-3.64.92-.94.44-.18,1.83.76,1.41,1.11-.49,2.33-.6,3.52-.68,1.16-.07,2.4.07,3.44-.51.34-.19.25-.68-.05-.85Z"/>
  <path class="cls-1" d="M111.4,134.25c.3,1.02,1.81.77,1.82-.28,0-2.74-.06-5.55.13-8.31,1.08,3.94,2.86,7.66,6.36,10.01.53.35,1.22.1,1.44-.48,2.34-5.87,2.79-14.04.81-20.11-.33-1.02-1.77-.47-1.71.48.39,6.09,1.42,11.84-.45,17.73-3.69-3.09-4.95-8.16-5.77-12.77-.15-.84-1.49-.83-1.67-.01-.1.44-.18.88-.25,1.32-2.51,3.46-1.82,8.58-.69,12.43Z"/>
  <g>
    <path class="cls-1" d="M120.32,57.99c.5-.03.82-.48.81-.95-.03-1.56-.04-3.96-1.72-4.77-1.25-.61-2.85-.26-4.22-.15.3-3,3-5.67,6-5.88.8-.05.64-1.2-.12-1.22-3.8-.07-6.72,3.02-7.5,6.56-.98,4.45,2.83,6.67,6.76,6.42Z"/>
    <path class="cls-1" d="M117.15,53.76c1.84-.07,2.11,1,2.18,2.48-2.01-.05-3.75-.81-4.12-2.77.6.26,1.23.32,1.94.29Z"/>
  </g>
  <path class="cls-1" d="M112.78,98.67c2.8.92,6.9,2.3,9.6.47.41-.28.28-1.06-.26-1.1-2.65-.15-4.96-.23-7.45-.88,1.37-2.57,2.27-5.36,3.75-7.89.35-.6-.31-1.3-.91-1.24-1.63.16-2.43,1.13-3.78,1.94-.86.51-.24,1.92.68,1.43.44-.23.81-.51,1.2-.76-1.07,2.16-1.89,4.45-3.19,6.49-.31.49-.31,1.32.37,1.54Z"/>
  <path class="cls-1" d="M122.72,76.34c.78.26,1.67.49,2.59.63.03.22.06.43.1.65.25,1.45.41,3.56,1.58,4.58.27.24.72.12.81-.25.3-1.29-.37-2.7-.64-3.97-.06-.28-.11-.57-.17-.85,1.53.04,3.02-.25,4.19-1.13.34-.26.08-.8-.3-.81-1-.04-1.97.2-2.96.3-.4.04-.8.06-1.21.05-.22-1.42-.36-2.85-.41-4.28-.03-.95-1.49-1.02-1.49-.05,0,1.41.11,2.81.29,4.19-.68-.1-1.35-.24-2.01-.42-.87-.25-1.2,1.07-.35,1.35Z"/>
  <path class="cls-1" d="M171.71,88.41c.3-.21.27-.83-.2-.79-2.97.25-7.5,2.46-10.21.24-1.55-1.26-.82-3.97-.27-5.52.85-2.37,6.11-10.31,8.03-4.64.3.89,1.62.34,1.34-.54-.87-2.77-2.98-3.89-5.59-2.43-2.5,1.4-4.28,4.27-5.32,6.85-1.02,2.51-1.43,5.71.75,7.73,2.82,2.61,8.8.97,11.47-.91Z"/>
  <path class="cls-1" d="M14.53,46.9c.44-.34.06-.92-.41-.9-2.59.1-5.8,2.02-8.15.03-1.42-1.2-1.07-3.58-.56-5.11.62-1.85,1.81-3.67,3.57-4.62,1.91-1.03,3.59.42,4.77,1.82.48.56,1.37-.14,1.02-.76-1.37-2.4-3.86-3.83-6.52-2.51-2.23,1.1-3.74,3.46-4.47,5.76-.71,2.24-.71,4.82,1.02,6.59,2.3,2.36,7.45,1.47,9.74-.3Z"/>
  <path class="cls-1" d="M148.73,122.45c-.07,3.58-.29,7.02-1.14,10.52-.23.93,1.14,1.45,1.68.72,1.9-2.61,4.97-4.57,7.1-6.92.13,2.01.46,3.96,1.26,5.66.24.51,1.22.66,1.27-.08.22-3.03-.12-6.19-.35-9.31.33-1.26.31-2.67-.23-4.33-.34-1.05-1.92-.87-1.92.27,0,1.44-.08,2.99-.09,4.57-1.13,2.59-4.05,4.51-6.39,6.64.25-2.53.24-5.08.19-7.64-.02-.87-1.35-.99-1.36-.1Z"/>
  <path class="cls-1" d="M141.08,56.72c2.12.98,4.92-.38,6.07-2.22,1.65-2.66-1.28-5.88-3.97-5.95-.44-.01-.74.61-.46.95,1.03,1.2,3.85,2.26,2.62,4.22-.7,1.11-2.64,1.74-3.81,1.09-1.91-1.07-.59-4.74-.14-6.24.97-3.24,3.29-5.05,6.45-5.96.61-.18.37-1.13-.24-1.07-3.78.35-6.35,2.5-7.77,6-1.15,2.85-2.26,7.56,1.26,9.18Z"/>
  <g>
    <path class="cls-1" d="M137.65,81.9c-.73.14-.81,1.35-.12,1.62,1.45.56,2.71,1.37,3.99,2.19-1.76.18-3.52.28-5.29.35-2.31.09-5.56.47-7.8-.3-.66-.23-1.13.71-.46,1.01,4.09,1.84,9.82,1.29,14.44.63-1.52,1.01-3.1,1.93-4.77,2.72-.67.32-.29,1.28.4,1.19,4.41-.62,8.07-4.08,11.11-7.09.47-.47.2-1.29-.42-1.44-3.75-.93-7.25-1.62-11.09-.87Z"/>
    <path class="cls-1" d="M146.7,84.08c-.63.56-1.27,1.1-1.94,1.62-.07-.08-.16-.15-.27-.21-1.23-.69-2.37-1.47-3.54-2.18,1.93,0,3.83.33,5.74.77Z"/>
  </g>
  <path class="cls-1" d="M134.73,73.3c-1.75.71-2.42,3.09-2.95,4.69-.17.5.06.94.51,1.16,2.74,1.36,6.69,2.53,9.45.56.44-.31.37-1.09-.27-1.1-.97,0-1.92.18-2.89.23-1.71.08-3.34-.39-4.89-1.04.28-.99.63-1.99,1.26-2.8.7-.9,1.93-.1,2.71.27.64.3,1.11-.62.5-.96-1.07-.6-2.14-1.53-3.44-1Z"/>
  <path class="cls-1" d="M141.12,17.51c.35-.85.3-1.77.35-2.68.07-1.13.24-2.21.73-3.24.47-1-1.02-1.88-1.5-.87-.91,1.93-1.5,4.86-.65,6.89.21.51.89.33,1.07-.09Z"/>
  <path class="cls-1" d="M109.3,34.46c-.66.33-.14,1.47.53,1.18,2.14-.93,1.55-4.01.15-5.36-3.01-2.91-6.78.13-9.01,2.46-3.1,3.24-4.87,8.81-2.9,13.06,1.68,3.62,5.93,6.05,9.89,4.75.56-.18.54-.91-.05-1.02-3.4-.67-6.19-.77-8.1-4.07-1.34-2.32-.96-5.29-.14-7.7,1.02-2.98,3.89-6.51,7.13-7.11,1.54-.28,4.39,2.87,2.49,3.82Z"/>
  <g>
    <path class="cls-1" d="M32.55,92.96c1.8-2.53,4.49-4.37,6.15-6.98.47,3.35,1.46,6.62,3.27,9.41.21.32.66.34.91.15.03.03.04.08.08.11.41.3.83.5,1.25.65.47,1.85,1.62,3.54,3.05,4.84.27.25.83.23,1.09-.02.92-.9,1.41-1.74,2-2.89.13-.26.2-.65,0-.91-1.15-1.57-2.75-2.41-4.54-2.73-.14-2.5,1.09-4.95,3.95-5.97.64-.23.42-1.29-.27-1.18-2.69.44-4.4,2.54-5.2,5.01-.21.67-.29,1.33-.3,1.98-.24,0-.47,0-.71.02-.14,0-.25.07-.34.15-1.34-4.2-2.37-8.27-3-12.54.06-1.26-.15-2.55-.47-3.85-.15-.58-1.01-.49-1.04.1-.1,1.71-.1,3.47.02,5.24-1.14,2.52-3.81,4.56-5.87,6.77-.16-1.55-.4-3.1-.58-4.63-.16-1.37-.31-2.73-.43-4.1.47.24,1.19-.23.94-.88-.78-2.06-2.54-3.19-2.56-.16-.03,4.04,1.03,8.01,1.11,12.04.02.75,1.11.94,1.5.38Z"/>
    <path class="cls-1" d="M48.46,97.91c-.24.48-.44.84-.71,1.2-.63-.7-1.11-1.48-1.44-2.31.76.18,1.49.46,2.15,1.11Z"/>
  </g>
  <path class="cls-1" d="M26.2,134.65c2.49-2.38,4.86-4.33,6.53-6.72-.02,3.64.26,7.31,1.33,10.62.17.55.93.37.95-.16.13-3.12-.28-6.24-.42-9.36-.06-1.51-.09-3.02-.13-4.53.36-1.12.59-2.35.65-3.75.01-.31-.24-.6-.56-.6-.31,0-.62,0-.93-.02-.35-.01-.56.31-.58.62-.1,1.58-.2,3.23-.26,4.9-.59,1.11-1.48,2.1-2.35,2.97-1.25,1.25-2.65,2.35-3.97,3.52-.14-3.34-.28-9.51,2.02-9.9.82-.14.52-1.35-.28-1.24-4.33.6-3.33,9.97-3.34,12.88,0,.63.74,1.35,1.35.77Z"/>
  <path class="cls-1" d="M34.47,45.85c.59-1.41.99-2.84,1.25-4.28,1.45-1.86,4.01-2.35,6.76-3.7.05-.02.08-.05.13-.07.2,2.84.75,5.63,1.89,8.03.29.61,1.41.55,1.28-.25-.42-2.54-1.04-5.01-1.32-7.58-.07-.66-.12-1.32-.17-1.98.95-2.17.01-5.28-.52-7.33-.11-.41-.79-.37-.84.05-.3,2.42-.48,5.11-.38,7.79-1.12.53-2.63.63-3.73.91-1.06.28-1.97.7-2.74,1.22.27-3.53-.01-7.13-.09-10.74-.01-.77-1.19-.74-1.19.03,0,4.03.34,8.25-.35,12.24-1.09,1.42-1.64,3.25-1.69,5.41-.03,1.06,1.34,1.09,1.7.24Z"/>
  <g>
    <path class="cls-1" d="M12.73,139.46c-.68,1.96.43,3.57,1.74,4.96.21.23.62.28.9.19,2.18-.77,3.18-2.1,4.73-3.68.46-.47.46-1.09-.05-1.52-1.76-1.49-3.71-1-5.35.35-.06.05-.09.12-.12.18.1-.24.24-.49.45-.75.9-1.07,2.16-1.88,3.27-2.72.92-.7-.2-2.09-1.12-1.4-1.55,1.15-3.77,2.46-4.44,4.4Z"/>
    <path class="cls-1" d="M14.9,140.72c1.11.51,2.01-.33,3.03-.23-.77.84-1.52,1.59-2.6,2.1-.7-.82-1.1-1.64-.8-2.54-.05.26.11.55.37.67Z"/>
  </g>
  <g>
    <path class="cls-1" d="M18.7,98.64c1.3-.16,5.02-.22,5.06-2.24.02-1.08-1.68-2.82-2.77-3.41.83-.82,1.98-1.27,3.08-1.58.91-.26.65-1.68-.29-1.45-1.73.42-3.35,1.1-4.52,2.49-1.24,1.49-1.49,3.51-1.52,5.38,0,.47.51.86.96.81Z"/>
    <path class="cls-1" d="M20.07,94.31c.38.74,1.13,1.32,1.7,1.95-.03,0-.04,0-.08.02-.66.27-1.41.39-2.14.48.05-.84.19-1.68.53-2.44Z"/>
  </g>
  <g>
    <path class="cls-1" d="M18.47,42.65c.46.17.77.18,1.26.03.14-.04.27-.08.39-.12.17.77.34,1.55.51,2.32-.95,1.47-1.69,3.08-1.94,4.78-.47,3.25,2.7,4.06,5.27,3.8.62-.07.85-.67.59-1.19-1-2.04-1.86-4.24-2.62-6.45.74-1.14,1.61-2.22,2.53-3.15.35-.36.34-.99-.12-1.27-2.06-1.22-3.96-.98-6.03.17-.49.27-.31.92.15,1.08Z"/>
    <path class="cls-1" d="M22.58,42.35c-.44.49-.86,1.02-1.27,1.56-.16-.52-.33-1.04-.48-1.55.6-.16,1.12-.2,1.74,0Z"/>
    <path class="cls-1" d="M21.2,47.15c.43,1.64.93,3.25,1.59,4.83-.9.01-1.86-.12-2.32-.86-.52-.83-.06-2.07.24-2.89.13-.37.32-.73.49-1.08Z"/>
  </g>
  <path class="cls-1" d="M50.95,54.5c.2-1.15-.22-2.32-.36-3.47-.19-1.52-.16-3.06-.16-4.58,0-1.14-1.76-1.02-1.76.11,0,2.4-.41,6.39,1.37,8.24.33.34.83.15.91-.3Z"/>
  <path class="cls-1" d="M54.14,48.06c.69-.5,1.34-1.03,2.03-1.52-.5,2.52-.59,5.13-1.34,7.6-.22.74.35,1.3,1.07,1.26,1.78-.1,3.73-.58,5.35-1.31.41-.18.51-.87.01-1.03-1.4-.45-2.83-.03-4.25.25.57-2.74.56-5.58,1.3-8.29.17-.64-.47-1.48-1.17-1.05-1.42.86-2.63,2-3.78,3.18-.01,0-.02.02-.03.02-.51.48.28,1.28.82.88Z"/>
  <g>
    <path class="cls-1" d="M104.41,6.35c.59-.08,1.07-.38,1.51-.74.38.73.37,1.81,1.27,2.1,1.67.52,2.81-3.38,3.17-4.3.15-.39-.15-.82-.51-.93-2.64-.82-4.37,1.25-5.92,3.07-.29.34.05.87.47.81Z"/>
    <path class="cls-1" d="M108.59,3.85c-.12.33-.24.66-.37.98-.22.53-.42,1.14-.8,1.57-.32-.43-.44-1.01-.72-1.48.57-.52,1.15-1,1.89-1.08Z"/>
  </g>
  <path class="cls-1" d="M86.61,124.17c-.02-1.09-1.64-.86-1.66.19-.04,1.92-.2,3.99-.26,6.06-1.72.09-3.43.13-5.14.27-.72.06-.85,1.24-.09,1.3,1.73.14,3.47.14,5.2.08,0,1.92.14,3.82.6,5.56.12.47.87.59,1.01.05.47-1.8.6-3.74.6-5.7,1.56-.08,3.24-.23,4.49-1.12.35-.25.23-.82-.2-.9-1.38-.24-2.87.06-4.32.26-.07-2.06-.22-4.12-.24-6.05Z"/>
  <path class="cls-1" d="M91.89,13.65c1.16,0,2.33.04,3.49,0-.37,1.5-.62,3.01-.67,4.53,0,.27.12.56.36.71,2.01,1.21,4.69,1.86,6.85.58.27-.16.27-.6-.02-.74-.8-.38-1.56-.32-2.44-.25-.59.05-3.16-.02-3.14-.89.02-.73.14-1.45.26-2.17.09-.63.23-1.25.38-1.87.73-.07,1.46-.16,2.18-.33.33-.08.28-.55-.02-.62-.6-.15-1.22-.24-1.84-.31.59-2.1,1.39-4.16,2.31-6.11.34-.73-.72-1.41-1.08-.67-1.05,2.11-2.02,4.37-2.72,6.68-1.24-.04-2.49,0-3.73,0-.93,0-1.1,1.45-.16,1.45Z"/>
  <g>
    <path class="cls-1" d="M92.19,92.52c2.94-.4,5.82-1.41,8.38-2.91,1.87,3.73,6.96,4.6,10.98,3.37.56-.17.49-1.06-.13-1.05-3.52.1-7.63-.33-9.09-3.46,3.83-2.78,6.67-6.8,7.38-11.68.1-.71-.45-1.39-1.21-1.18-5.03,1.41-8.96,5.77-8.66,11.17.02.33.06.63.12.93-2.16,1.33-4.59,2.25-7.11,2.73-.2-3.33.57-6.39,2.36-9.28.77-1.25,1.8-2.29,2.87-3.28.74-.69.14,2.04.13,2.12-.21,1.08,1.44,1.22,1.68.18.41-1.73,1.69-2.47.13-3.96-1.47-1.41-2.75-.21-3.9.86-4.11,3.82-5.7,9.26-5.08,14.72.06.56.69.79,1.16.73Z"/>
    <path class="cls-1" d="M107.43,78.08c-.92,3.39-2.96,6.2-5.63,8.32,0-.07-.02-.13-.02-.2-.21-3.67,2.48-6.67,5.65-8.12Z"/>
  </g>
  <path class="cls-1" d="M4.01,94.86c2.61,1.87,7.55.9,9.69-1.2.32-.31-.02-.85-.43-.81-2.74.26-5.45,2.11-8.18.65-1.69-.9-2.02-3.05-1.89-4.77.37-5.06,4.92-8.67,9.89-7.24.67.19,1.13-.77.44-1.03-5.93-2.21-11.24,2.1-12.01,8.09-.31,2.41.47,4.87,2.48,6.31Z"/>
  <path class="cls-1" d="M82.41,42.86c.63-.12.91-1.1.29-1.44-1.56-.85-2.96-1.93-4.44-2.88,2.86.31,5.67.93,8.5,1.52,0,.32,0,.64-.02.96.01-.45-3.21,1.32-3.45,1.44-2.55,1.38-5.43,2.58-7.69,4.4-.53.43-.06,1.37.6,1.19,4.15-1.16,8-4.12,11.78-6.17.25-.14.39-.44.38-.72-.01-.55-.03-1.11-.03-1.66,0-.46-.24-.77-.7-.87-4.13-.82-8.18-1.57-12.39-1.66-.77-.01-1.02,1.02-.29,1.32,1.95.79,3.52,2.08,5.17,3.29-3.43.43-6.75.29-10.05-1.06-.72-.3-1.26.92-.55,1.26,4.13,2,8.48,1.89,12.89,1.07Z"/>
  <path class="cls-1" d="M62.53,88.71c2.36.96,5.91,1.59,8.36.67.46-.18.43-.76-.01-.93-1.08-.42-2.33-.39-3.47-.46-1.53-.09-3.02-.37-4.52-.69-.83-.18-1.09,1.1-.35,1.4Z"/>
  <g>
    <path class="cls-1" d="M99.28,241.84c2.02,1.93,5.43.13,7.31-1.01,2.35-1.44,4.47-4.04,5.09-6.74.92-3.92-2.56-7.16-6.19-7.6-4.06-.49-6.83,3.02-6.49,6.73-1.47,2.94-2.01,6.43.28,8.62Z"/>
    <path class="cls-1" d="M99.71,235.22c.32.14.73.01.79-.46.08-.68.17-1.37.29-2.05.66-1.18,1.45-2.21,2.17-2.86.37-.34.14-.81-.22-.95.67-.44,1.55-.65,2.74-.5,2.82.35,4.92,2.85,4.27,5.67-.52,2.24-2.78,4.34-4.63,5.48-1.42.88-4.05,2.19-5.21.3-.78-1.28-.71-2.97-.2-4.63Z"/>
  </g>
  <path class="cls-1" d="M154.83,166.57c-.02.45-.07.91-.11,1.36-.03-.17-.08-.33-.11-.49-.16-.86-1.58-.84-1.57.07.03,3.59-.08,7.18-.1,10.77,0,1.06,1.55.97,1.76.05.27-1.13.51-2.28.73-3.44,1.71,3.16,4.22,5.81,7.61,7.66.49.27,1.01.11,1.33-.33,3.45-4.72,3.48-12.17,1.77-17.56-.29-.92-1.86-.7-1.71.3.74,4.98,1.49,10.91-1.2,15.44-3.4-2.02-5.84-4.93-7.32-8.47.25-1.77.42-3.55.44-5.33.01-.87-1.5-.91-1.54-.04Z"/>
  <path class="cls-1" d="M218.28,166.58c-.01.47.29,1.06.84,1.05,1.24-.01,2.36-.19,3.55-.54.76-.23,1.63-.39,2.27-.87.32-.24.17-.74-.11-.92-.67-.43-1.48-.31-2.23-.13-.8.19-1.56.37-2.35.48.07-.37.21-.73.47-1.04.52-.62,1.21-1.1,1.78-1.67.44-.44.34-1.09-.14-1.44-.33-.24-.66-.47-1-.7.22-.29.16-.77-.31-.8-.62-.03-1.98-.78-2.27.19-.22.76.76,1.57,1.62,2.17-.48.42-.96.84-1.35,1.34-.63.83-.75,1.87-.78,2.88Z"/>
  <g>
    <path class="cls-1" d="M208.59,175.65c-.98,0-.92,1.51.06,1.52,10.41.14,21.11.92,31.12-2.51-2.65,2.14-5.75,3.7-8.52,5.67-.56.4-.11,1.29.54,1.07,2.87-.97,5.52-2.51,7.94-4.33,1.68-1.26,3.41-2.12,3.4-4.29,0-.32-.27-.66-.56-.77-4.85-1.85-9.58-2.54-14.73-1.8-1.06.15-.81,1.77.2,1.81,2.84.11,5.46.98,8.13,1.78-8.94,2.33-18.41,1.77-27.58,1.84Z"/>
    <path class="cls-1" d="M240.91,173.68c-.19.17-.38.33-.57.49.22-.43.12-.98-.35-1.22.71.15,1.32.35.91.73Z"/>
  </g>
  <path class="cls-1" d="M135.43,233.8c2.32-.45,4.68-.52,7.04-.52,2.3,0,4.7.6,6.97.28.59-.08.79-.83.24-1.14-2.11-1.16-4.87-1.06-7.23-1.1-2.46-.05-4.96.16-7.34.8-1.04.28-.77,1.88.31,1.67Z"/>
  <g>
    <path class="cls-1" d="M138.25,121.73c-.39-.15-.88-.07-1.13.41-1.74,3.3-3.25,8.46-.14,11.51,2.35,2.3,5.66,1.26,7.52-1.09,2.72-3.46,3.53-9.31.95-13.07-2.38-3.46-6.39-1.07-7.19,2.24Z"/>
    <path class="cls-1" d="M142.38,132.01c-1.52,1.52-3.6,1.29-4.7-.52-1.53-2.5-.29-5.96.92-8.36.26.07.58,0,.77-.25.87-1.08,1.39-2.77,2.85-3.19,1.19-.34,2.01,1.47,2.3,2.28,1.17,3.25.33,7.58-2.14,10.04Z"/>
  </g>
  <path class="cls-1" d="M120.37,184.48c-.84-.18-1.09.86-.62,1.37,3.28,3.45,9.42,1.12,11.51-2.43,2.79-4.76-2.35-7.04-6.38-7.68.74-.76,1.39-1.57,1.94-2.53.91-1.61,1.14-3.49,2.08-5.08.4-.67.03-1.46-.8-1.43-4.36.16-5.69,1.97-6.87,5.88-.31,1.03,1.24,1.65,1.58.61.83-2.56,1.58-4,3.83-4.51-1.22,2.56-1.91,5.01-4.37,7.14-.6.52-.04,1.45.65,1.47,3.18.06,9.54,1.43,6.31,5.85-2.39,3.26-5.67,2.04-8.85,1.35Z"/>
  <path class="cls-1" d="M148.53,168.15c-.27-.9-1.66-.78-1.81.14-.21,1.29-.41,2.66-.57,4.06-1.05,1.09-2.88,1.66-4.54,2.47-.91.45-1.7.97-2.4,1.57.34-2.6.38-5.23.34-7.94-.01-.97-1.5-.95-1.51.02-.05,3.85-.22,7.63-1.33,11.3-.24.56-.45,1.14-.6,1.78-.24,1.02,1.41,1.58,1.77.57.03-.08.05-.15.07-.23,0-.02.01-.03.02-.04.11-.34.22-.68.32-1.01,1.32-3.43,4.51-4.25,7.65-5.96-.17,3.05.02,6.11,1.13,8.78.26.62,1.14.52,1.17-.18.12-3.58-.15-7.06-.03-10.58.81-1.3.87-2.88.32-4.73Z"/>
  <g>
    <path class="cls-1" d="M128.84,129.83c.14-.37,0-.86-.52-.97-.3-.06-.71-.94-.91-1.17-.46-.51-1.13-.67-1.79-.74-.37-.03-.75.21-.87.57-.79,2.4-.96,4.74-.98,7.26,0,1.15,1.62,1.35,1.79.19.1-.67,1-1.46,1.42-1.93.09-.1.18-.18.27-.28.33,1.63,1.48,2.86,3.52,3.48.38.11.67-.34.55-.66-.31-.86-1-1.3-1.61-1.93-.89-.91-.89-1.69-.62-2.96.08-.34-.04-.65-.25-.87Z"/>
    <path class="cls-1" d="M125.68,131.63c.09-.92.25-1.83.47-2.75.47.29.77.78,1.21,1.11-.5.5-1.11,1.05-1.68,1.64Z"/>
  </g>
  <path class="cls-1" d="M284.29,215.36c1.06,0,2.35.15,3.28-.44.39-.25.38-.78,0-1.02-.78-.5-1.81-.43-2.71-.44-1.24,0-2.49-.01-3.73-.02-1.25,0-1.32,1.94-.06,1.94,1.07,0,2.16-.01,3.24-.02Z"/>
  <path class="cls-1" d="M295.43,207.79c-.14.26-.27.53-.4.79-.5-.56-1.56-.48-1.59.46-.06,1.93-.52,3.79-.95,5.66-.46,1.57-.76,3.2-.81,4.94-.03,1.16,1.76,1.31,1.8.14.06-1.55.36-3.05.7-4.55.23-.83.5-1.65.8-2.46,1.41,2.51,3.28,4.78,4.62,7.34.38.72,1.59.86,1.87-.05.73-2.42.71-5.11.83-7.61.1-2.17.14-4.17-.27-6.26,0,0,0,0-.01,0-.04-.54-.63-.2-1.05.17-.06,0-.12.02-.17.03,0,.04.02.07.02.1-.14.14-.25.27-.27.32-.15.42-.18.87-.19,1.31-.03,1.31-.07,2.6-.11,3.91-.05,1.59-.05,3.3-.23,4.95-1.44-2.09-3.06-4.11-4.12-6.39.29-.65.59-1.29.9-1.95.44-.92-.87-1.79-1.36-.86Z"/>
  <path class="cls-1" d="M226.4,165.69c2.79-.52,4.82-2.67,6.74-4.62.44-.44.17-1.07-.27-1.37-1.53-1.02-3.03-2.06-4.32-3.37-2.37-2.41.24-3.52,2.3-4.27.44-.16.33-.94-.17-.85-1.91.37-4.26.96-4.66,3.15-.45,2.44,2.96,4.82,5.04,6.21-1.64,1.45-3.34,2.53-5.25,3.7-.67.41-.16,1.54.58,1.4Z"/>
  <path class="cls-1" d="M279.3,251.54c-.03-1.1-1.69-1.15-1.73-.04-.14,4.22-2.63,8.79-5.97,11.3-2.39,1.81-7.32,1.33-7.89-2.23-.52-3.22,3.99-5.29,6.78-5.56-.14,1.16-.5,2.28-.6,3.47-.06.77,1.11,1.01,1.19.22.16-1.51.8-2.86,1.09-4.34.08-.4-.15-.92-.61-.98-6.9-.89-13.75,7.47-6.06,11.77,5.6,3.13,10.42-2.84,12.58-8.43.16,1.25.31,2.5.35,3.76.03.75.92.91,1.44.6,2.45-1.51,4.5-3.15,5.82-5.29.18,2.21.45,4.42.8,6.56.16.97,1.49.63,1.59-.2.48-3.84-.55-7.82-.8-11.66-.07-1.03-1.78-.92-1.79.09-.06,3.88-2.47,6.26-5.4,8.23-.23-2.42-.72-4.81-.79-7.26Z"/>
  <path class="cls-1" d="M237.48,163.23c-1.49-.52-1.51-3.32-1.53-4.53-.02-1.06-1.64-.99-1.63.06,0,2.07.27,4.76,2.25,5.93,1.5.88,3.31.13,4.49-.93,1.51-1.36,2.37-3.35,2.44-5.37.1-2.63-1.38-4.93-3.33-6.55-.4-.33-.97-.28-1.32.1-1.43,1.56-1.7,3.85-1.65,5.9.02.53.6.77,1,.43,1.22-1.04.94-2.83,1.55-4.26,2.14,2.28,2.68,5.52.45,8.12-.65.75-1.69,1.45-2.71,1.1Z"/>
  <path class="cls-1" d="M247.63,159.48c-.26,1.56-.93,2.97-1.05,4.57-.06.9,1.06,1.1,1.6.62.84-.74,1.83-1.28,2.84-1.78.08,2.55.33,5.35,1.27,7.52.18.41.84.52,1.03.04,1.05-2.77-.36-6.38-.45-9.21-.02-.6-.81-.99-1.32-.73-.95.48-1.89.96-2.79,1.51.18-.82.37-1.63.4-2.47.03-.88-1.39-.91-1.53-.07Z"/>
  <path class="cls-1" d="M267.43,211.32c.47.5,1.27-.22.9-.78-5.23-7.81-13.64.86-14.71,7.17-.07.41.07.9.48,1.09,5.54,2.54,13.49,2.58,18.46-1.35.38-.3.13-1.01-.38-.9-5.7,1.24-10.81,3.06-16.48.79,1.24-5.07,6.55-11.48,11.73-6.03Z"/>
  <g>
    <path class="cls-1" d="M49.41,262.91c3.49.77,7.15-2.06,7.36-5.63.21-3.45-2.33-6.83-5.34-8.26-3.61-1.71-5.69,1.64-5.35,4.79-.02.03-.04.05-.05.08-1.34,3.49-.92,8.06,3.38,9.01Z"/>
    <path class="cls-1" d="M47.77,254.45c.11-.31.05-.56-.09-.76.32-1.83.81-3.69,3.07-2.76,2.16.9,3.8,3.45,4.03,5.72.27,2.64-2.51,4.9-5.02,4.38-3.14-.65-2.85-4.25-1.99-6.58Z"/>
  </g>
  <g>
    <path class="cls-1" d="M36.96,194.79c.55,1.16,1.23,1.2,2.43,1.07.85-.08,2.37-.26,2.42-1.41.04-1,.18-2.22-.11-3.39-.46-1.88-1.44-3.5-2.66-4.95,1.67-.71,3.77-.82,5.34-1.34.44-.14.35-.72-.05-.84-2.12-.65-4.69-.42-6.67.72-.66-.48-1.58.23-1.21.91-.2.2-.41.39-.59.61-1.98,2.47-.04,6.21,1.09,8.6Z"/>
    <path class="cls-1" d="M37.28,187.32c.11-.12.23-.21.35-.32,1.43,1.81,2.64,4.04,2.28,6.32-.06.17-.09.35-.12.54-.43.11-.89.16-1.34.19-1.6-1.86-3.07-4.48-1.16-6.72Z"/>
  </g>
  <path class="cls-1" d="M112.02,245.39c3.1.74,7.6,1.52,10.38-.45.47-.33.18-1.03-.32-1.1-1.52-.23-3.11.23-4.65.29-1.2.05-2.39-.1-3.57-.33,1.73-2.77,3.62-6.66-.46-8.01-.92-.31-1.34,1.08-.45,1.42,2.99,1.16-.5,5.23-1.49,6.74-.34.51-.04,1.29.56,1.43Z"/>
  <path class="cls-1" d="M24.85,170.01c-.82,3.51-1.08,7.05-1.13,10.6-.22,1.18-.45,2.36-.69,3.54-.12.58.27.97.71,1.09.05,2.38.13,4.77.14,7.15,0,1.23,1.82,1.05,1.87-.14.16-3.99,2.73-6.73,5.08-9.62-.72,4.1-.59,8.4,2.51,10.26.45.27,1.16-.21.94-.74-1.24-2.98-1.9-5.07-1.6-8.33.18-1.98.63-3.95,1.18-5.87.31-.73.54-1.49.69-2.31.17-1-1.4-1.41-1.72-.44-.26.77-.58,1.74-.9,2.82-1.11,2.29-3.02,4.1-4.72,6.08-.62.71-1.14,1.46-1.59,2.22-.05-1.9-.09-3.79-.08-5.68.57-3.45.98-6.9,1.03-10.43.02-.99-1.49-1.16-1.71-.2Z"/>
  <path class="cls-1" d="M6.95,189.33c.75-.87-.75-2.04-1.41-1.09-.78,1.11-3.35,4.67-3.71,1.69-.32-2.69.5-5.65,1.22-8.21.81-2.81,1.89-5.71,3.61-8.11,2.31-3.2,4.26-.81,5.3,2.14.22.63,1.14.19.93-.43-.94-2.8-3.01-6.57-6.25-3.87-2.85,2.37-4.23,6.75-5.24,10.16-.86,2.91-2.18,7.24-.84,10.19,1.53,3.37,5.32-1.23,6.38-2.45Z"/>
  <path class="cls-1" d="M35.85,259.12c.26-.22.53-.42.81-.6-.75,1.96-1.09,4.1-.11,5.93,1.45,2.72,6.12,2.63,8.12.69.29-.28.08-.84-.31-.9-1.89-.28-5.15,1.26-6.19-1.09-.91-2.05.66-5.01,1.59-6.77.49-.92-.76-1.85-1.48-1.08-.99,1.05-2.28,1.76-3.31,2.76-.63.61.21,1.62.88,1.05Z"/>
  <path class="cls-1" d="M9.79,248.95c-3.12.21-4.57,1.72-6.57,3.91-.49.54.22,1.39.76.86,1.42-1.4,2.52-2.52,4.26-2.95-1.07,1.91-1.9,3.78-3.56,5.49-.59.61.21,1.79.99,1.39,2.8-1.45,8.53-3.28,7.08,2.03-.38,1.39-1.3,2.79-2.5,3.6-1.67,1.11-3.05.07-4.49-.9-.6-.41-1.45.32-1.06.97,3.06,5.14,8.62.96,9.84-3.21.52-1.8.35-4.06-1.26-5.25-1.48-1.09-3.42-.85-5.21-.24.84-1.44,1.47-2.93,2.41-4.5.3-.49-.07-1.26-.69-1.22Z"/>
  <path class="cls-1" d="M38.48,133.8c.2-.15.4-.27.61-.39.14.81.2,1.69.34,2.32.26,1.14.64,2.24,1.19,3.26-.02-.02-.04-.03-.07-.05-.33-.21-.63-.27-.97-.07-.2.12-.33.46-.16.66.5.59.06,1.45.91,1.92.96.54,1.92-.07,2.74-.6.39-.25.43-.95.11-1.27-1.57-1.58-2.16-3.76-2.72-5.86-.07-.26-.13-.52-.2-.8,1.43-.42,2.98-.45,4.3-1.15.37-.2.27-.79-.07-.95-1.35-.62-3.28-.33-4.89.36-.06-.1-.11-.21-.19-.3-.53-.64-1.44.23-.93.87,0,0,0,0,0,.01-.38.24-.73.49-1.01.76-.65.63.26,1.84,1,1.26Z"/>
  <path class="cls-1" d="M104.51,175.06c-.98,1.55-1.63,3.5-1.89,5.51-1.14-.06-2.27-.27-3.37-.53-1.02-.24-1.43,1.33-.41,1.57,1.14.27,2.39.49,3.65.57-.04,1.44.12,2.87.5,4.13.12.4.8.43.93.02.43-1.37.53-2.78.62-4.18,1.67-.16,3.25-.68,4.5-1.85.31-.29.15-.87-.33-.8-1.38.19-2.67.69-4.03.94.15-1.52.42-3.02,1.27-4.45.56-.94-.84-1.86-1.44-.93Z"/>
  <path class="cls-1" d="M162.68,41.79c.59,0,1.2,0,1.81-.04.05,2.36.3,4.72,1.25,6.68.24.49.95.39.95-.19,0-2.25-.19-4.5-.36-6.75.68-.18,1.32-.46,1.89-.91.3-.24,0-.69-.33-.62-.56.12-1.1.22-1.65.31-.07-1.14-.13-2.28-.13-3.43,0-1.01-1.58-1.16-1.58-.13,0,1.19-.04,2.48-.05,3.79-.6.06-1.2.1-1.83.1-.77,0-.74,1.19.03,1.19Z"/>
  <g>
    <path class="cls-1" d="M57.1,121.17c.43.51,1.32-.22.91-.75-2.56-3.3-6.95-.49-8.8,2.27-2.03,3.02-2.46,9.51.72,11.99,2.94,2.29,7.35-.28,9.92-2.02.86,2.47,2.98,4.19,6.55,3.71.7-.1.72-1.07.04-1.21-2.54-.54-4.26-1.76-4.94-3.7,3.2-2.5,6.13-5.85,7.5-9.6.22-.59-.34-1.13-.89-1.16-6.03-.36-9.18,5.59-8.64,10.28-1.99,1.42-4.13,2.44-6.18,2.75-4.63.71-4.13-6.21-3.26-8.91.64-1.99,4.84-6.23,7.07-3.65Z"/>
    <path class="cls-1" d="M61.25,128.21c.44-2.98,2.64-5.16,5.44-5.59-1.17,2.45-3.17,4.98-5.53,7.02-.01-.45.02-.93.09-1.43Z"/>
  </g>
  <path class="cls-1" d="M11.92,138.79c.35-.35.04-1.07-.49-.9-2.42.81-5.41,3.18-8.08,2.17-1.75-.66-1.57-3.36-1.39-4.82.5-3.97,5.2-14.31,11.07-10.54.56.36,1.12-.46.58-.85-6.23-4.52-11.83,4.87-13.08,9.91-.62,2.46-.81,5.43,1.14,7.34,2.73,2.66,8.22-.27,10.25-2.3Z"/>
  <path class="cls-1" d="M198.83,206.94c-9.46,2.55-18.57,7.35-27.53,11.26-.77.33-.39,1.55.41,1.25,9.18-3.44,18.75-7.03,27.36-11.75.38-.21.23-.89-.24-.77Z"/>
  <path class="cls-1" d="M234.43,123.79c-2.53-1.16-6.01-.16-7.97,1.64-.53.49-.12,1.26.45,1.49-.13.12-.26.24-.38.36-.41.41-.11,1.05.31,1.28,1.19.66,2.61,1.42,3.25,2.69.69,1.37-2.58,2.46-3.32,3.09-.41.35-.31,1.18.33,1.2,1.85.06,5.05-1.42,5.02-3.69-.02-2.11-1.87-3.37-3.62-4.31.42-.53.79-1.12.98-1.74,1.6-.52,3.35-.34,4.98-1.07.42-.19.36-.77-.03-.94Z"/>
  <path class="cls-1" d="M252.46,190.14c-1.31-.93-3.03-1.35-4.56-1.73-.57-.14-1.15-.26-1.72-.37-.87-.17-1.6-.44-2.25.33-.4.46-.63.96-.61,1.51-2.08,1.04-5.12,2.86-3.8,5,.5.81,1.68,1.03,2.53,1.16,1.04.15,2.1.11,3.15.02,2.21-.19,4.62-.62,6.6-1.68.72-.39,1.56-.95,1.79-1.79.28-1.03-.3-1.87-1.12-2.46ZM251.74,192.07s-.01.02-.03.04c-.04.06-.05.07-.06.09-.01,0-.03.02-.09.07-.14.12-.29.23-.45.33-.03.02-.03.02-.03.02-.01,0-.03.01-.08.04-.09.05-.18.09-.27.14-.22.11-.44.2-.66.29-.48.19-.97.35-1.47.49-2.04.57-4.3.89-6.41.65-.36-.04-.72-.12-1.05-.26-.02,0-.02,0-.03-.01,0,0,0,0-.02-.01-.05-.03-.09-.06-.13-.09,0,0,0-.01-.02-.02,0-.01.01-.03.03-.07.04-.15.13-.27.22-.4.36-.5.86-.94,1.33-1.33.42-.34.86-.65,1.29-.98.5.47,1.22.74,1.45,1.43.15.47.84.4.94-.06.19-.81-.16-1.61-.72-2.23-.15-.17-.22-.25-.24-.32,0,0,0-.01.01-.02,1.7.32,3.41.69,5.01,1.32.14.06.28.12.42.18.01,0,.05.02.08.04.04.02.08.04.13.06.21.11.42.24.62.39.02.02.05.04.07.06.05.05.09.1.14.15.01.01,0,0,.01.01,0,0,0,0,0,0,0,0,0,0,0,0Z"/>
  <path class="cls-1" d="M213.88,155.29c0-1.07-1.64-1.28-1.68-.19-.09,2.8-1.92,4.74-3.68,6.73-.04-2.21-.08-4.43-.13-6.64-.02-.84-1.28-.81-1.3.02-.06,2.96-.14,5.93-.18,8.89,0,.74,1.01.99,1.45.48,1.25-1.47,2.68-2.88,3.77-4.45.02,2.39.24,4.79,1.27,6.79.25.47,1.02.44,1.08-.15.17-1.69-.17-3.36-.32-5.05-.19-2.12-.3-4.28-.28-6.41Z"/>
  <path class="cls-1" d="M178.77,276.9c-.36.75.88,1.41,1.29.69,3.23-5.81,18.79,5.24,23.18,6.25.48.11.81-.61.39-.89-4.39-2.98-9.31-5.41-14.27-7.31-3.32-1.27-8.65-2.83-10.59,1.26Z"/>
  <path class="cls-1" d="M282.86,284.18c-1.34.09-2.45.76-3.73.91-1.17.13-.77,1.91.38,1.78.6-.07,1.14-.27,1.68-.46-1.03,2.61-1.18,5.49-2.01,8.2-.18.58.32,1.07.81,1.23,2.6.82,5.35,1.09,7.72-.5.49-.33.18-1.21-.39-1.2-2.08.04-3.86.31-5.84-.08.66-2.86.64-5.95,2.18-8.51.34-.57-.11-1.42-.8-1.38Z"/>
  <path class="cls-1" d="M207.43,126.25c-2,1.14-4.38,2.57-4.88,5.01-.43,2.12,1.23,3.9,2.7,5.16.57.48,1.72.32,1.68-.62-.08-1.56-.49-3.48-1.35-4.8-.26-.39-.84-.31-1.05.09-.09.18-.15.35-.2.53,0-.01,0-.03,0-.04.07-1.77,2.51-3.19,3.86-4.08.7-.46-.05-1.65-.77-1.24Z"/>
  <path class="cls-1" d="M268.49,241.9c.53-5.1.86-11.42-.83-16.32-.25-.73-1.48-.54-1.5.23-.06,2.5.39,5,.54,7.5.17,2.86.17,5.72.46,8.57.08.75,1.24.79,1.32.02Z"/>
  <path class="cls-1" d="M228.58,193.03c2.46-2.14,5.79-.89,8.57-1.97.5-.2.36-.89-.06-1.06-2.66-1.05-7.4-.37-9.54,1.59-.83.76.17,2.19,1.04,1.44Z"/>
  <path class="cls-1" d="M265.77,288.11c-.7-.75-1.87.28-1.19,1.06,2.63,3.02,6.13,1.4,7.89-1.63,2.09-3.61,1.13-8.01-2.31-10.35-.4-.27-.86-.2-1.23.07-1.82,1.31-3.81,3.78-3.49,6.2.05.37.57.66.9.44.76-.49.95-1.06,1.32-1.89.49-1.11,1.1-1.94,1.95-2.68,1.88,1.59,2.36,3.86,1.62,6.29-.73,2.39-3.26,4.83-5.46,2.49Z"/>
  <path class="cls-1" d="M210.11,294.77c3.42,2.45,8.51,1.38,11.97-.31.55-.26.38-1.16-.27-1.07-3.19.43-7.32,1.59-10.31-.16-1.83-1.07-1.96-3.39-1.52-5.23,1.11-4.58,5.8-7.82,9.7-4.14.54.51,1.44-.3.97-.88-4.38-5.43-10.82-1.04-12.51,4.33-.83,2.64-.4,5.78,1.96,7.48Z"/>
  <path class="cls-1" d="M220.71,203.59c6.94,3.38,14.76,5.15,22.27,6.81.45.1.76-.55.32-.78-6.92-3.55-14.97-4.05-22.02-7.37-.85-.4-1.41.93-.57,1.34Z"/>
  <path class="cls-1" d="M211.82,190.23c1.57-.41,2.81,1.06,3.46,2.28.28.53,1.07.15.83-.4-.84-1.96-2.33-3.71-4.67-3.31-1.94.33-3.33,2.19-3.5,4.08-.2,2.21,1.69,3.82,3.54,4.57,3.93,1.59,9.36,1.24,13.23-.2.61-.23.39-1.05-.21-1.07-3.76-.09-7.53.72-11.26-.14-1.55-.36-3.51-1.27-3.55-3.1-.03-1.24.96-2.41,2.14-2.72Z"/>
  <path class="cls-1" d="M130.98,227.77c-.43,2.83-.11,5.72-.64,8.53-2.26-2.52-4.18-5.31-5.97-8.18.02-.72.04-1.44.04-2.16,0-.8-1.21-.92-1.25-.11,0,.09,0,.17-.01.26-.13-.21-.25-.42-.38-.62-.5-.83-1.8-.34-1.59.62.86,3.81.89,7.74,1.77,11.55.26,1.12,1.85.55,1.67-.52-.34-1.98-.38-3.93-.34-5.9,1.75,2.74,3.62,5.39,5.91,7.77.41.43,1.32.31,1.54-.27.76-2.01.92-4.12,1.03-6.25.05-1.08.08-2.17.14-3.25.02-.43.06-.87.12-1.3.02-.13.04-.26.06-.4.77.58,1.74-.66,1.06-1.33-1.62-1.61-2.86-.24-3.14,1.58Z"/>
  <path class="cls-1" d="M82.32,172.96c.09-.48-.38-1.04-.87-1.04-.32,0-.63-.01-.95-.02-.45-.01-.82.3-.95.72-.46,1.43-.76,2.93-.93,4.46-1.8,2.62-4.56,4.52-7.19,6.5-.61-4.19-.62-8.49-1.71-12.58-.24-.89-1.63-.73-1.44.22.9,4.71.74,9.55,1.6,14.28.1.55.91.9,1.37.55,2.53-1.96,5.16-3.74,7.25-5.91.03,3.46.73,6.93,2.08,9.98.43.98,1.89.32,1.69-.66-.87-4.25-1.81-8.13-1.53-12.23.73-1.25,1.29-2.65,1.59-4.26Z"/>
  <path class="cls-1" d="M70.79,248.68c-.44,2.53-1.25,6.15-1.21,9.49-1.07-.08-2.15-.28-3.17-.48-1.01-.21-1.35,1.5-.36,1.76.97.26,2.29.53,3.66.64.27,2.05.98,3.89,2.48,5.14.39.32.95-.07.9-.53-.2-1.57-.65-3.06-.96-4.58,1.83-.14,3.52-.71,4.42-2.09.24-.37,0-.85-.44-.89-1.39-.14-2.66.63-4.01.92-.09.02-.18.02-.27.03-.01-.19-.03-.38-.04-.58-.08-2.82.42-5.65.71-8.45.12-1.1-1.51-1.52-1.71-.38Z"/>
  <g>
    <path class="cls-1" d="M56.87,176.37c-2.79.07-5.41,2.03-6.5,4.57-.3.02-.59.19-.72.55-1.48,4.16-.09,9.96,5.1,10.19,4.48.2,8.52-6.07,8.3-10.12-.17-3.24-3.12-5.26-6.19-5.18Z"/>
    <path class="cls-1" d="M55.51,189.71c-1.86.59-3.51-.88-4.26-2.43-.5-1.04-.61-2.19-.49-3.33.08-.05.15-.11.2-.19,1.47-2.46,2.65-5.19,5.89-5.44,2.16-.16,4.16,1.24,4.29,3.47.19,3.1-2.79,7.02-5.63,7.91Z"/>
  </g>
  <path class="cls-1" d="M168.86,236.02c-3.71-.19-10.95.78-10.82-4.86.07-3.22,3.56-7.46,6.99-5.56.75.42,1.29-.74.58-1.18-4.41-2.72-8.91,2.02-9.48,6.29-.96,7.11,8.08,8.25,12.97,6.2.47-.2.2-.87-.23-.89Z"/>
  <path class="cls-1" d="M20.72,247.15c-.15,4.97.71,9.72,2.43,14.37.21.58,1,.73,1.4.26,1.22-1.44,3.04-3.09,4.5-4.82.62,2.48,1.37,4.93,2.25,7.18.22.56,1.18.45,1.19-.18.07-3.14-.8-6.32-1.73-9.47,1.12-2.17,1.05-4.36-1.98-6.36-.67-.44-1.39.24-1.28.93.27,1.91.63,3.9,1.07,5.89-.45.56-.97,1.1-1.44,1.62-.97,1.04-1.96,2.06-2.92,3.1-1.47-4.1-2.15-8.24-2.4-12.63-.04-.73-1.08-.59-1.1.09Z"/>
  <path class="cls-1" d="M165.95,264.63c-1.54,1.6-2.13,4.02-1.92,6.19.67,6.84,8.91,6.51,13.14,3.23.43-.33.09-1.14-.46-1-3.19.83-8.12,2.91-10.21-.89-2.05-3.72,1.31-9.19,5.7-7.86.53.16.92-.6.37-.81-2.39-.9-4.76-.8-6.62,1.14Z"/>
  <path class="cls-1" d="M151.93,267.42c-.02-.97-1.5-.96-1.51.02-.05,3.24-.15,6.48-.17,9.72,0,.92,1.29,1.26,1.73.44,1.33-2.49,3.35-4.29,5.08-6.47h0c.29,2.68,1.08,5.27,2.55,7.24.33.44.94.06.9-.41-.19-2.24-.98-4.4-1.37-6.61-.2-1.1-.28-2.2-.3-3.31.52-1.29.86-2.65,1.07-4.07.06-.4-.31-.85-.72-.85-.3,0-.61,0-.91,0-.33,0-.72.19-.8.54-.29,1.26-.47,2.66-.53,4.1-1.31,2.33-3.24,4.2-4.91,6.38-.04-2.23-.09-4.47-.12-6.7Z"/>
  <path class="cls-1" d="M163.22,258.77c1.04-4.81,1.4-10.3,1.14-15.21-.05-1.06-1.55-1.01-1.63.02-.36,4.89-1.56,10.28-.64,15.13.1.55,1,.63,1.12.05Z"/>
  <g>
    <path class="cls-1" d="M16.58,181.04c-4.95,2.13-6.74,7.6-4.97,12.54.2.57.98.65,1.4.31,1.95-1.6,3.29-4.84.63-6.62-.17-.11-.43-.1-.63-.01.58-2.06,1.93-3.86,4.11-4.87.84-.39.32-1.72-.54-1.35Z"/>
    <path class="cls-1" d="M12.87,191.44c-.18-.85-.21-1.71-.14-2.55,0,.02.01.04.03.06.54,1.07.58,1.78.12,2.49Z"/>
  </g>
  <g>
    <path class="cls-1" d="M215.64,131.75c1.12-2.95,3.34-4.98,5.45-7.16.06,2.89.1,5.94,1.05,8.65.23.66,1.21.65,1.26-.12.2-3.22-.32-6.51-.45-9.73-.01-.28-.01-.56-.02-.84.25-.3.49-.6.72-.92,2.28-3.2.95-6.43-1.11-9.36-.39-.56-1.47-.35-1.49.39-.11,3.1-.08,6.22-.01,9.33-.65.72-1.4,1.45-2.22,2.21-1.15,1.07-2.21,2.21-3.1,3.47-.03-5.27-.07-10.54-.09-15.81,0-1.06-1.63-.99-1.64.06-.03,6.49-.1,12.97-.11,19.46,0,.9,1.43,1.25,1.77.37Z"/>
    <path class="cls-1" d="M222.84,119.18c-.02-1.1-.05-2.19-.07-3.29.44,1.2.43,2.27.07,3.29Z"/>
  </g>
  <path class="cls-1" d="M241.32,67.95c.26-.71-.5-1.23-1.12-1.13-5.13.87-9.1,6.43-10.81,10.98-.48,1.28-.66,2.55-.57,3.72-1.92,1.38-3.94,2.42-5.96,2.86-2.36.52-5.19-1.34-6.09-3.42-.81-1.89.11-4.12,1.05-5.76,1.2-2.11,3.22-3.73,5.28-4.95.81-.49,5.17-.96,6.55.32.25.24.61-.17.36-.4-7.18-6.79-19.91,6.49-13.51,13.62,3.71,4.14,8.44,2.96,12.8-.26.98,2.42,3.39,3.97,6.88,3.47.72-.1.78-1.29.06-1.44-2.26-.47-4.75-.62-5.47-3.21,4.99-4.26,9.25-10.81,10.55-14.4ZM230.75,80c.22-1.1.67-2.2,1.1-3.13,1.31-2.88,3.87-6.28,6.99-7.68-1.69,3.71-4.63,7.78-8.08,10.82Z"/>
  <path class="cls-1" d="M249.27,80.78c1.35.01,2.76.09,4.19.14-.06,2.23.02,4.46.6,6.45.13.46.91.44,1.04-.01.56-1.96.65-4.18.59-6.42,1.48-.02,2.94-.14,4.31-.5.4-.11.29-.65-.06-.74-1.38-.36-2.85-.48-4.33-.49-.08-1.53-.19-3.03-.23-4.42-.03-1.04-1.59-1.06-1.62-.02-.04,1.42-.15,2.93-.24,4.47-1.45.05-2.88.13-4.26.14-.9,0-.9,1.39,0,1.4Z"/>
  <path class="cls-1" d="M214.83,42.73c.91,0,1.78-.22,2.67-.4-.98,2.33-.9,5.19-2.61,7.1-.46.52-.1,1.29.44,1.54,3.24,1.51,5.66.31,7.87-2.3.36-.43-.02-1.19-.6-.98-.91.32-1.53.78-2.35,1.26-1.15.68-1.99.84-3.01.57,1.28-2.45.94-5.68,2.75-7.84.57-.69-.27-1.44-.94-1.38-1.51.11-2.77.97-4.26,1.12-.83.09-.8,1.31.05,1.3Z"/>
  <g>
    <path class="cls-1" d="M295.27,81.58c.4-.3.81-.62,1.21-.94,1.31,3.27,4.73,5.29,8.47,5.39.77.02.82-1.06.15-1.27-3.41-1.09-6.03-2.78-6.84-5.66,3.75-3.5,7.05-8.17,7.64-13.07.09-.73-.71-1.24-1.35-.96-4.83,2.11-8.35,6.75-8.63,12.07-.03.56,0,1.09.07,1.6-2.19,1.86-4.57,3.29-6.84,3.93-4.26,1.2-5.01-4.13-4.4-7.2.42-2.13,2.17-4.03,3.76-5.36.63-.52,1.35-.96,2.11-1.27,2.17-.88-.2,3.35-.5,3.9-.39.72.85,1.42,1.26.71.7-1.2,2.73-4.28,1.39-5.76-1.09-1.21-2.79-.43-3.97.21-4.99,2.71-7.74,9.27-4.99,14.5,2.45,4.66,8.52,1.33,11.46-.83Z"/>
    <path class="cls-1" d="M298.13,75.55c.51-3.23,2.71-6.04,5.45-7.78-.9,3.11-2.98,6.36-5.57,9.07.01-.41.04-.84.12-1.29Z"/>
  </g>
  <path class="cls-1" d="M251.59,124.72c-.29-3.78-2.69-8.3-6.21-9.96-5.15-2.42-7.02,6.39-6.45,9.62.12.65,1.01.65,1.22.07.61-1.68.91-8.21,3.82-7.97-2.48,3.71-5.27,12.1-.17,14.57,4.56,2.21,8.11-2.22,7.79-6.34ZM246.47,129.42c-6.21.84-3.1-9.35-1.26-12.49,2.12,1.2,3.5,4.31,4.08,6.4.73,2.66.38,5.65-2.82,6.09Z"/>
  <path class="cls-1" d="M257.24,112.87c.21-1.15-1.59-1.31-1.8-.18-.87,4.67-.95,9.44-1.82,14.12-.19,1.02,1.15,1.33,1.72.67,2.61-3.07,5.35-5.96,7.59-9.16.05,3.8,1.05,7.55,3.56,9.95.46.43,1.27-.01,1.08-.64-.82-2.66-1.98-5.04-2.4-7.83-.26-1.71-.2-3.47,0-5.19.66-1.31,1.25-2.69,1.67-4.17.14-.49-.11-1.12-.7-1.14-.32,0-.65-.02-.97-.03-.42-.01-.7.28-.84.64-.54,1.45-.95,3.14-1.19,4.92-1.92,3.31-4.58,6.17-7.17,9.05.44-3.67.6-7.37,1.26-11.01Z"/>
  <path class="cls-1" d="M271.35,84.65c.47-3.44,2.31-5.39,4.36-7.64.27,2.77.98,5.49,2.16,7.8.35.7,1.28.21,1.18-.47-.49-3.47-1.12-6.65-1.27-9.92,1.22-2.13,1.11-4.53.48-6.99-.16-.64-1.2-.65-1.43-.06-.82,2.15-1.21,4.56-1.25,7.01-.67.86-1.5,1.7-2.42,2.63-.75.75-1.37,1.55-1.88,2.4-.06-3.59-.14-7.18-.19-10.77-.01-.8-1.24-.92-1.25-.11-.08,5.35-.24,10.69-.26,16.04,0,1.02,1.62,1.05,1.76.07Z"/>
  <path class="cls-1" d="M276.55,119.8c.96,0,1.98.05,3.01.09-.14,1.95.1,3.94,1.11,5.49.24.36.9.3.89-.21-.04-1.81-.24-3.52-.19-5.25,1.49,0,2.96-.11,4.29-.54.34-.11.41-.69.04-.81-1.27-.42-2.7-.54-4.14-.55.08-.46.18-.93.32-1.41.31-1.04-1.26-1.65-1.58-.61-.2.63-.36,1.32-.5,2.04-1.04.04-2.06.09-3.02.09-1.07,0-1.3,1.66-.22,1.66Z"/>
  <path class="cls-1" d="M266.96,187.01c-.03,1.03.04,2.11.2,3.2-1.24,2.89-3.98,4.72-6.65,6.69-.59-3.56-.82-7.15-.88-10.76-.02-.83-1.27-.84-1.29-.01-.06,4.21-.12,8.31.64,12.48.12.65.87,1.05,1.43.61,2.76-2.16,5.55-3.96,7.32-6.5.67,2.29,1.75,4.48,3.24,6.13.34.38,1,.08.9-.44-.4-2.07-1.41-3.94-2.12-5.92-.3-.83-.51-1.68-.67-2.54.27-.87.45-1.82.49-2.88.02-.45-.33-.9-.8-.9-.31,0-.62,0-.93-.01-.48-.01-.85.4-.87.87Z"/>
  <path class="cls-1" d="M227.04,33.68c.91-1.74,1.93-3.42,2.95-5.1.23-.31.46-.61.69-.91-.18,4.71-1.64,9.97-.65,14.55.14.62,1.15.8,1.32.09.64-2.58.5-5.42.72-8.07.2-2.41.37-4.81.4-7.23,0-.46-.28-.7-.62-.77.2-.24.4-.48.61-.71.25.62.53,1.22.84,1.83,1.41,2.75,3.03,5.65,4.98,8.04.28.34.96.08.91-.37-.2-1.71-.98-3.12-1.85-4.58-1.31-2.19-2.54-4.17-3.47-6.46.27-.29.55-.59.82-.88.57-.6-.3-1.49-.9-.92-.15.14-.29.28-.43.42-.04-.11-.08-.2-.12-.31-.24-.78-1.27-.51-1.55.05-1.08,2.1-2.35,4.08-3.6,6.08-.99,1.35-1.86,2.81-2.55,4.4-.43,1,.98,1.87,1.5.86Z"/>
  <path class="cls-1" d="M180.8,123.09c-.83-1.09-2.38-1.11-3.66-1.23-2.04-.19-4.05.15-5.97.82-.85.29-.38,1.72.49,1.49,1.57-.42,3.17-.55,4.8-.52,1.32.02,2.81.68,4.06.26.31-.1.51-.53.29-.81Z"/>
  <path class="cls-1" d="M204.07,45.17c1.29-2.71,3.38-4.91,5.03-7.21.46,3.16,1.58,6.23,3.34,8.94.45.69,1.53.13,1.27-.63-1.3-3.84-2.6-7.35-2.95-11.09.87-1.92,1.19-4.04.35-6.66-.2-.61-1.27-.65-1.44,0-.62,2.26-.88,4.61-.79,6.95-1.34,2.36-3.53,4.49-5.13,6.81-.74-4.13-1.31-8.36-1.52-12.52-.04-.85-1.36-1-1.36-.1-.04,5.07.68,10.33,1.61,15.3.14.72,1.27.88,1.58.21Z"/>
  <path class="cls-1" d="M185.28,179.72c1.51-1.49,2.48-2.7,4.52-2.56-.56.95-2.06,1.3-2.43,2.62-.09.33.1.67.33.89,1.04.98,2.61,1.92,3.07,3.34-1.19,1.01-3.66,3.07-4.94,2.53-.35-.15-.8.26-.67.62,1.07,2.93,5.55-.68,6.68-1.57,2.4-1.87-.59-4.33-2.35-5.86.53-.53,1.7-1.05,2.08-1.55.39-.52.31-1.15.31-1.77,0-.39-.27-.82-.67-.9-3.36-.65-4.89.69-7.1,3.03-.65.69.51,1.84,1.19,1.17Z"/>
  <path class="cls-1" d="M180.45,126.51c-.84-.32-1.79-.28-2.68-.24-.89.04-3.19.7-3.97.1-.77-.58-1.82.48-1.05,1.1.9.73,2.02.69,3.12.64,1.49-.08,3.21-.2,4.59-.78.4-.17.4-.66,0-.82Z"/>
  <g>
    <path class="cls-1" d="M174.17,164.46c-4.24,1.14-5.8,6.73-4.13,10.4.16.34.61.46.9.31.06,1.41.34,2.8.87,4.12.69,1.75,2.4,3.6,4.48,3.04,2.91-.78,4.51-4.36,5.5-6.9.82-2.13,1.09-4.56.37-6.75-1.09-3.32-4.66-5.12-7.98-4.23Z"/>
    <path class="cls-1" d="M180.24,174c-.61,2.21-1.98,5.57-4.28,6.48-1.86.74-2.91-2.5-3.21-3.73-.52-2.08-.37-4.32.31-6.33.29-.85-1.03-1.22-1.33-.39-.09.25-.16.5-.23.75.26-1.89.93-3.6,3-4.37,2.34-.86,4.9.53,5.78,2.78.6,1.54.39,3.25-.03,4.8Z"/>
  </g>
  <path class="cls-1" d="M192.46,115.93c-2.81,2.37-3.88,6.67-4.21,10.17-.29,3.02-.01,7.38,2.99,9.06,3.96,2.22,9.74-2.14,11.72-5.3.34-.53-.35-1.05-.84-.79-2.41,1.33-6.64,6.26-9.92,4.45-2.23-1.23-2.26-4.87-2.15-7.05.16-2.93.94-6.2,2.78-8.55,2.19-2.81,4.82-.88,6.53,1.43.38.51,1.28-.05.95-.6-1.68-2.82-4.77-5.39-7.84-2.8Z"/>
  <path class="cls-1" d="M199.7,91.3c2.26.33,5.31-1.56,5.43-4.03.11-2.26-1.39-4.17-2.93-5.77,2.17-.45,4.41-.42,6.55-1.05.4-.12.28-.64-.06-.74-2.74-.81-5.67-.41-8.36.43-.9.28-.61,1.41.12,1.64,1.24,1.31,2.5,2.89,2.83,4.69.42,2.32-2.57,2.67-3.88,3.73-.42.33-.25,1.02.29,1.1Z"/>
  <path class="cls-1" d="M194.72,72.14c-.24,2.64-.38,5.47-.26,8.28-.81.54-2.51.36-3.32.47-.96.13-1.63.88-2.13,1.83,0-2.05,0-4.1-.02-6.15,0-.89-1.38-.93-1.39-.03-.01,3.54,0,7.08-.06,10.61-.02.88,1.21,1,1.47.21.35-1.05,1.02-4.79,2.41-4.98,1.06-.14,2.08-.18,3.12-.4.17,2.15.5,4.25,1.08,6.22.2.68,1.28.6,1.27-.15-.06-2.79-.17-5.64-.32-8.48.07-.45.13-.92.24-1.37.5-2.16-.1-4.21-.81-6.24-.25-.72-1.2-.55-1.27.18Z"/>
  <path class="cls-1" d="M251.73,266.91c-8,2.41-15.07,7.51-22.97,10.34-.95.34-.62,1.89.37,1.56,7.9-2.63,16.06-6.55,23.12-10.94.56-.35.05-1.14-.52-.97Z"/>
  <path class="cls-1" d="M187,38.4c2.85-1.56,8.05-3.02,6.54,2.15-.41,1.4-1.24,2.7-2.37,3.63-1.43,1.17-2.82.6-4.35-.02-.56-.23-1.24.34-.86.92,3.4,5.06,8.67-1.08,9.46-4.74.4-1.82-.01-3.96-1.74-4.92-.88-.49-1.87-.55-2.88-.39,1.22-1.45,2.25-3.06,3.51-4.79.41-.57.01-1.32-.64-1.42-1.28-.2-2.49-.35-3.56.49-.98.78-.86,2.43-1.66,3.39-.55.67.11,1.44.78,1.42-.89,1.04-1.9,1.99-3.2,2.81-.96.61-.03,2.01.95,1.47Z"/>
  <path class="cls-1" d="M319.12,224.28c3.12.01,7.38.41,10.07-1.44.47-.32.18-1.04-.32-1.1-1.54-.2-3.14.2-4.68.33-1.11.09-2.22.11-3.33.12,1.23-2.42,2.07-5.02,3.52-7.33.26-.42.05-1.14-.42-1.33-1.56-.61-3.1-.31-4.68-.86-.94-.33-1.49,1.23-.59,1.63,1.1.5,2.23.45,3.34.67-1.4,2.53-2.29,5.33-3.85,7.78-.44.7.22,1.52.95,1.53Z"/>
  <path class="cls-1" d="M259.58,291.32c.56.22,1.27-.26,1.26-.86-.03-5.08-.67-10.14-.9-15.22-.05-1.08-1.87-1.04-1.89.04-.08,4.54.6,9.05.81,13.59-4.1-2.17-6.1-6.48-6.99-10.99,0-.03-.02-.05-.03-.08,0-.49,0-.98-.01-1.47-.02-1-1.56-1.17-1.58-.13-.01.52-.01,1.04-.02,1.55-.02.07-.04.13-.04.21,0,4.48-.1,8.95-.09,13.42,0,.61.47.86.93.82.47-.05.94-.39.94-1,0-2.45-.02-4.89-.05-7.34,1.52,3.32,3.94,6.04,7.65,7.47Z"/>
  <g>
    <path class="cls-1" d="M330.03,125.24c2.98.2,5.43-2.18,7.29-4.77.81,1.91,2.51,3.28,5.52,3.69.91.12,1.17-1.1.41-1.49-2.51-1.32-3.77-2.95-4.19-4.9.24-.41.47-.81.67-1.18,2.51-4.47,4.94-10.14,5.08-15.35.02-.82-1.23-1.3-1.72-.6-2.36,3.38-6.72,11.51-6.33,17.3-1.34,2.12-2.98,4.04-5.1,5.08-5.29,2.59-5.28-4.56-4.47-7.54.85-3.12,2.51-6.93,4.93-9.31.64,1.2,1.54,3.05,1.19,3.23-.24.13-.7,0-.97,0-.97-.03-.98,1.45-.02,1.5,4.24.23,2.04-4.07.78-6.36-.24-.45-.81-.74-1.27-.36-4.58,3.75-12.42,20.36-1.81,21.08Z"/>
    <path class="cls-1" d="M339.58,111.89c.58-2.05,1.45-4.04,2.49-5.93-.69,2.41-1.73,4.78-2.7,6.95-.04.08-.08.17-.12.25.09-.41.2-.84.32-1.27Z"/>
  </g>
  <path class="cls-1" d="M239.64,287.15c-.97-.25-1.79.02-2.79.16-1.99.27-4.04.19-5.99-.3-.83-.21-1.32,1.12-.51,1.43,1.63.63,3.18.92,4.92.93,1.5.01,3.46-.11,4.62-1.12.42-.36.27-.96-.26-1.1Z"/>
  <path class="cls-1" d="M304.34,108.54c.73,4.54.44,9.89-.67,14.5-2.03-2.98-3.56-6.23-5.09-9.5-.01-.13-.07-.24-.15-.33-.55-1.16-1.09-2.31-1.66-3.46-.4-.8-1.53-.25-1.38.56.77,4.12.4,8.22-.39,12.28-.17.78-.34,1.57-.5,2.36-.22.95,1.18,1.33,1.46.39.89-3,1.45-6.1,2.09-9.16,1.49,3.28,3.06,6.52,5.23,9.45.49.66,1.44.54,1.69-.27,1.07-3.42,1.38-7.03,1.5-10.6.07-2.03.37-4.84-.82-6.62-.36-.54-1.43-.35-1.31.4Z"/>
  <g>
    <path class="cls-1" d="M307.5,211.45c-.06.09-.14.17-.2.27-1.01,1.66-.97,3.72-.65,5.57.08.44.51.72.92.75,2.8.15,5.9-.48,7.38-3.12,1.12-1.99.95-4.39.15-6.46-.64-1.66-2.09-3.46-4.02-3.48-2.5-.02-4.97,4.07-3.99,6.19.07.15.24.25.41.28Z"/>
    <path class="cls-1" d="M310.98,207.03c.47-.11.9.18,1.26.59-.19-.09-.42-.09-.64.07-.92.67-1.86,1.36-2.7,2.14.48-1.18.85-2.52,2.08-2.8Z"/>
    <path class="cls-1" d="M308.98,212.27c.79-1.44,2.18-2.5,3.45-3.51.21-.17.27-.39.24-.59.27.43.48.89.61,1.18.58,1.39.64,3.04.03,4.42-.83,1.86-2.99,2.31-4.87,2.33-.18-1.32-.14-2.57.55-3.84Z"/>
  </g>
  <path class="cls-1" d="M310.81,124.02c1.29-1.03,2.72-2.14,3.91-3.41.13.45.29.89.5,1.34.56,1.15,1,2.38,1.59,3.51.2.38.87.38,1.03-.03,1.06-2.59-2.09-4.57-1.43-7.17.25-.99-1.19-1.44-1.65-.57-.54,1.03-1.4,1.95-2.34,2.8.46-.64.93-1.29,1.21-2.04.36-.98-1.09-1.74-1.47-.74-.8,2.1-2.65,3.23-2.76,5.61-.03.77.83,1.17,1.41.7Z"/>
  <g>
    <path class="cls-1" d="M174.73,93.78c.09.51.2,1.02.35,1.52.17.55.73.81,1.25.56,1.94-.92,3.03-1.19,4.61-2.73.42-.41.4-1.09-.1-1.43-1.52-1.06-3.26-1.42-4.73-.88.09-2.67,1.39-5,4.46-6.74.49-.28.24-1.16-.35-.98-4.16,1.33-5.82,4.97-5.69,8.82-.29.33-.56.7-.78,1.16-.16.32,0,.7.38.72.23.02.42,0,.6-.03Z"/>
    <path class="cls-1" d="M178.79,92.62c-.74.56-1.44.88-2.32,1.28-.08-.31-.14-.62-.2-.93.93-.59,1.59-.75,2.51-.35Z"/>
  </g>
</svg>