<?xml version="1.0" encoding="UTF-8"?>
<svg id="Layer_1" data-name="Layer 1" xmlns="http://www.w3.org/2000/svg" viewBox="0 0 379.4 215.59">
  <defs>
    <style>
      .cls-1 {
        fill: #423c7c;
      }
    </style>
  </defs>
  <g>
    <path class="cls-1" d="M157.83,215.59c-.48,0-.96-.19-1.32-.56-13.12-13.64-14.04-37.51-2.01-52.12.65-.79,1.8-.89,2.58-.25.78.65.89,1.8.25,2.58-10.91,13.24-10.07,34.88,1.82,47.25.7.73.68,1.89-.05,2.6-.36.34-.81.51-1.27.51Z"/>
    <path class="cls-1" d="M171.39,206.02s-.06,0-.1,0c-.84-.04-1.53-.65-1.7-1.46-1.3-6.34-3.7-12.34-7.15-17.83-.54-.86-.28-1.99.58-2.53.86-.54,1.99-.27,2.53.58,2.53,4.04,4.54,8.34,5.99,12.84l11.62-36.58c.26-.81,1.03-1.32,1.9-1.28l29.08,2.34c1.01.08,1.76.97,1.68,1.98-.08,1.01-.98,1.73-1.98,1.68l-27.63-2.22-13.09,41.22c-.24.77-.95,1.28-1.75,1.28Z"/>
    <path class="cls-1" d="M214.01,169.87c-1.01,0-1.84-.82-1.84-1.84v-4.17c0-1.01.82-1.84,1.84-1.84s1.84.82,1.84,1.84v4.17c0,1.01-.82,1.84-1.84,1.84Z"/>
    <path class="cls-1" d="M169.45,177.12c-.23,0-.46-.04-.68-.13-.53-.21-.93-.66-1.09-1.21l-1.46-5.19c-.16.27-.28.56-.37.86v2.54c0,.92-.67,1.7-1.59,1.82-.9.14-1.77-.45-2.01-1.34-.32-1.16-.32-2.36-.07-3.51v-8.14c-.02-1.01.8-1.84,1.82-1.84h0c1.01,0,1.83.82,1.84,1.83v3.11c.21-.11.41-.22.62-.31.49-.22,1.04-.21,1.52.02.48.23.84.65.98,1.16l1.6,5.68.97-.58c.87-.52,2-.23,2.52.64.52.87.23,2-.64,2.52l-3.03,1.81c-.29.17-.61.26-.94.26Z"/>
    <path class="cls-1" d="M221.26,202.89c-.37,0-.75-.11-1.08-.35-.82-.6-1-1.74-.41-2.56,8.67-11.95,8.65-29.28-.04-41.22-.6-.82-.42-1.97.4-2.56.82-.6,1.96-.42,2.56.4,9.61,13.18,9.62,32.33.05,45.53-.36.49-.92.76-1.49.76Z"/>
    <path class="cls-1" d="M233.83,169.55c-.76,0-1.44-.47-1.72-1.18l-1.07-2.81c-.36-.95.11-2.01,1.06-2.37.24-.09.48-.14.74-.12.43-3.75.16-7.57-.81-11.24-.26-.98.32-1.99,1.3-2.25.98-.27,1.99.33,2.25,1.3,1.51,5.66,1.52,11.64.03,17.29-.2.77-.88,1.32-1.68,1.36-.03,0-.07,0-.1,0Z"/>
    <path class="cls-1" d="M235.88,161.54c-.73,0-1.42-.44-1.71-1.16-.37-.94.09-2.01,1.03-2.38l5.84-2.31c-.45-.26-.98-.41-1.46-.45-.96-.09-2.28.16-2.75,1.2-.41.93-1.5,1.35-2.42.93-.93-.41-1.35-1.5-.93-2.42,1.03-2.33,3.55-3.66,6.46-3.37,2.89.29,5.12,2.08,5.68,4.58.2.88-.28,1.77-1.12,2.11l-7.96,3.15c-.22.09-.45.13-.67.13Z"/>
    <path class="cls-1" d="M273.85,193.9c-1.59,0-3.17-.06-4.76-.17-1.01-.07-1.77-.95-1.7-1.96.07-1.01.96-1.73,1.96-1.7,5.46.4,10.97.07,16.36-.99.99-.17,1.96.45,2.16,1.45.19.99-.45,1.96-1.45,2.16-4.15.81-8.36,1.23-12.58,1.23Z"/>
    <path class="cls-1" d="M268.16,186.43c-.94,0-1.74-.71-1.83-1.66-.09-1.01.65-1.9,1.66-2l21.88-2.06c1.04-.09,1.9.65,2,1.66.09,1.01-.65,1.9-1.66,2l-21.88,2.06c-.06,0-.12,0-.17,0Z"/>
    <path class="cls-1" d="M315.12,208.09s-.06,0-.09,0c-.81-.04-1.5-.61-1.69-1.4l-4.2-17.39c-.24-.98.37-1.98,1.36-2.22.96-.23,1.98.37,2.22,1.36l2.72,11.26c4.5-13.57,8.23-27.49,11.11-41.46.21-.99,1.19-1.63,2.17-1.43.99.2,1.63,1.18,1.43,2.17-3.33,16.18-7.8,32.29-13.27,47.89-.26.74-.96,1.23-1.73,1.23Z"/>
    <path class="cls-1" d="M328.6,160.69c-1,0-1.81-.8-1.84-1.8-.02-1.01.78-1.85,1.8-1.87l48.96-1.04c.91,0,1.85.78,1.87,1.8.02,1.01-.78,1.85-1.8,1.87l-48.96,1.04h-.04Z"/>
    <path class="cls-1" d="M374.43,164.66c-.23,0-.46-.04-.68-.13-.94-.38-1.4-1.44-1.02-2.39l2.08-5.21c.38-.94,1.44-1.39,2.39-1.02.94.38,1.4,1.45,1.02,2.39l-2.08,5.21c-.29.72-.97,1.15-1.7,1.15Z"/>
    <path class="cls-1" d="M307.76,175.8c-.93,0-1.71-.7-1.82-1.63l-1.05-9.05c-.12-1.01.6-1.92,1.61-2.03,1.03-.09,1.92.61,2.03,1.61l.13,1.09c.34-.47.71-.91,1.11-1.33.48-.5,1.2-.7,1.88-.49.67.21,1.16.77,1.27,1.47l.86,5.44,1.85-.48c.97-.25,1.98.33,2.24,1.31.26.98-.33,1.98-1.31,2.24l-3.81.99c-.51.14-1.03.04-1.47-.24-.43-.28-.72-.74-.81-1.25l-.39-2.47c-.31.97-.48,1.98-.49,2.99-.01.97-.77,1.76-1.74,1.81-.03,0-.06,0-.1,0Z"/>
    <path class="cls-1" d="M363.25,182.9c-.49,0-.97-.19-1.32-.56-2.31-2.39-3.59-5.04-3.7-7.64-.1-2.07.63-4.05,1.88-5.49-.07-.98.65-1.85,1.63-1.95.31-.05.62.01.89.12.22-.09.45-.16.69-.23,1.83-.48,3.89.07,5.38,1.44,1.36,1.24,1.97,2.9,1.69,4.56-.34,1.99-2.15,3.52-4.41,3.72-.47.04-.92.02-1.35-.06l.44,4.05c.09.78-.33,1.53-1.04,1.86-.25.12-.52.17-.78.17ZM364.1,172.01c.38.21.7.55.86,1,.06.18.45.22.7.19.55-.05,1.06-.36,1.11-.67.1-.57-.35-1.05-.55-1.23-.56-.52-1.35-.76-1.97-.6-.09.02-.19.06-.27.09l.13,1.22Z"/>
    <path class="cls-1" d="M208.77,202.65c-.43,0-.85-.15-1.2-.44l-1.08-.93c-.39-.33-.6-.8-.64-1.28l-13.73-18.28c-.61-.81-.44-1.96.37-2.57.81-.61,1.96-.44,2.57.37l15.17,20.2c.56.75.47,1.8-.21,2.44-.35.33-.8.49-1.25.49Z"/>
    <path class="cls-1" d="M191.67,207.74c-.33,0-.67-.09-.98-.28-.86-.54-1.12-1.67-.58-2.53l16.61-26.41c.54-.86,1.67-1.12,2.53-.58.86.54,1.12,1.67.58,2.53l-16.61,26.41c-.35.55-.95.86-1.56.86Z"/>
    <path class="cls-1" d="M352.4,205.2c-.59,0-1.16-.28-1.52-.8h0s-2.2-3.22-2.2-3.22c-.02-.04-.05-.07-.07-.11l-12.64-18.49c-.57-.84-.36-1.98.48-2.55.84-.58,1.98-.36,2.55.48l14.92,21.81c.57.84.36,1.98-.48,2.55-.32.22-.68.32-1.03.32Z"/>
    <path class="cls-1" d="M336.96,207.4c-.39,0-.79-.13-1.13-.39-.8-.62-.94-1.78-.32-2.58,5.66-7.26,10.11-15.33,13.22-24,.34-.96,1.4-1.46,2.35-1.11.96.34,1.45,1.39,1.11,2.35-3.24,9.03-7.88,17.45-13.78,25.02-.36.46-.9.71-1.45.71Z"/>
  </g>
  <g>
    <path class="cls-1" d="M96.07,205.85s-.06,0-.1,0c-1.01-.05-1.79-.91-1.74-1.93L103.91,13.39c.05-1.01.9-1.81,1.93-1.74,1.01.05,1.79.91,1.74,1.93l-9.67,190.53c-.05.98-.86,1.74-1.83,1.74Z"/>
    <path class="cls-1" d="M112.06,19.8c-.57,0-1.13-.27-1.49-.76l-.79-1.07c-.27-.37-.38-.81-.35-1.24l-4.99-10.46-5.28,12.26c-.4.93-1.49,1.36-2.41.96-.93-.4-1.36-1.48-.96-2.41l6.88-15.97c.28-.66.93-1.09,1.65-1.11.71,0,1.38.4,1.69,1.04l7.7,16.13c.41.86.1,1.88-.72,2.37-.29.17-.62.26-.94.26Z"/>
    <path class="cls-1" d="M97.48,29.04c-.94,0-1.74-.72-1.83-1.67-.09-1.01.65-1.9,1.66-1.99l9.55-.86c.81-.08,1.62.43,1.9,1.22.28.79-.02,1.68-.72,2.14l-1.09.72c-.73.48-1.67.37-2.28-.2l-7.03.63c-.05,0-.11,0-.17,0Z"/>
    <path class="cls-1" d="M103.74,41.91c-1.79,0-3.57-.33-5.24-.98-.94-.37-1.41-1.43-1.04-2.38.37-.95,1.44-1.41,2.38-1.04,2.56,1,5.49.97,8.03-.09.95-.39,2.01.06,2.4.99.39.94-.06,2.01-.99,2.4-1.75.73-3.64,1.09-5.53,1.09Z"/>
    <path class="cls-1" d="M104.33,59.06c-2.7,0-5.38-.9-7.52-2.6-.8-.63-.93-1.79-.3-2.58.63-.8,1.79-.92,2.58-.3,2.17,1.73,5.28,2.26,7.92,1.36.96-.33,2,.19,2.33,1.14.33.96-.19,2-1.14,2.33-1.25.43-2.55.64-3.86.64Z"/>
    <path class="cls-1" d="M107.73,74.31c-.09,0-.19,0-.28-.02l-11.1-1.71c-1-.16-1.69-1.09-1.53-2.09.16-1,1.09-1.68,2.09-1.53l11.1,1.71c1,.15,1.69,1.09,1.53,2.09-.14.91-.92,1.56-1.81,1.56Z"/>
    <path class="cls-1" d="M93.21,92.32c-.95,0-1.76-.74-1.83-1.7-.07-1.01.69-1.89,1.7-1.96l8.56-.61c.99-.06,1.89.69,1.96,1.7.07,1.01-.69,1.89-1.7,1.96l-8.56.61s-.09,0-.13,0Z"/>
    <path class="cls-1" d="M93.73,114.79c-30.75,0-61.47-1.02-92.02-3.07-1.01-.07-1.78-.94-1.71-1.95.07-1.01.96-1.77,1.95-1.71,68.51,4.59,137.95,4.01,206.39-1.71.99-.09,1.9.66,1.98,1.68.09,1.01-.66,1.9-1.68,1.98-38.1,3.19-76.52,4.78-114.92,4.78Z"/>
    <path class="cls-1" d="M210.22,111.03c-.19,0-.38-.03-.56-.09-4.68-1.5-8.93-4.45-11.98-8.29-.63-.79-.5-1.95.3-2.58.8-.63,1.95-.49,2.58.3,2.6,3.28,6.23,5.8,10.22,7.08.97.31,1.5,1.34,1.19,2.31-.25.78-.97,1.27-1.75,1.27Z"/>
    <path class="cls-1" d="M198.3,118.91c-.87,0-1.65-.62-1.8-1.51-.18-1,.49-1.95,1.48-2.13,3.68-.66,7.01-2.97,8.92-6.18.52-.87,1.64-1.16,2.51-.64.87.52,1.16,1.64.64,2.51-2.45,4.12-6.72,7.08-11.43,7.92-.11.02-.22.03-.32.03Z"/>
    <path class="cls-1" d="M118.68,21.61c-.35,0-.71-.1-1.03-.32-.84-.57-1.06-1.71-.49-2.55,1.18-1.73,1.99-3.71,2.41-5.78-.2-.01-.41-.06-.6-.14-1.95-.83-3.52-2.54-4.3-4.69-.78-2.15-.66-4.47.31-6.35.47-.9,1.57-1.25,2.47-.79.9.47,1.25,1.57.79,2.47-.51.98-.55,2.23-.12,3.42.04.1.08.2.12.3l.45-4.43c.09-.84.73-1.52,1.57-1.63.84-.12,1.65.35,1.96,1.14,2.41,6.05,1.64,13.16-2.03,18.55-.36.52-.93.8-1.52.8Z"/>
    <path class="cls-1" d="M211.03,131.95c-.49,0-.97-.19-1.33-.57l-9.35-9.82c-.7-.73-.67-1.9.06-2.6.74-.71,1.9-.67,2.6.06l6,6.3c.76-.16,1.57.19,1.96.91l1.66,2.99c.45.81.22,1.82-.52,2.37-.33.24-.71.36-1.09.36Z"/>
    <path class="cls-1" d="M199.28,135.05c-.34,0-.69-.1-1-.3-.85-.55-1.09-1.69-.54-2.54l9.43-14.5c.55-.85,1.68-1.09,2.54-.54.85.55,1.09,1.69.54,2.54l-9.43,14.5c-.35.54-.94.83-1.54.83Z"/>
    <path class="cls-1" d="M104.34,111.97c-.8,0-1.53-.52-1.76-1.32-.28-.97.28-1.99,1.25-2.28,48.18-13.97,86.01-56.62,94.14-106.12.16-1,1.11-1.68,2.11-1.52,1,.16,1.68,1.11,1.52,2.11-8.35,50.87-47.23,94.69-96.74,109.05-.17.05-.34.07-.51.07Z"/>
    <path class="cls-1" d="M120.39,45.29c-1.93,0-3.85-.35-5.63-1.05-.94-.37-1.41-1.44-1.04-2.38.37-.94,1.44-1.4,2.38-1.04,2.57,1.01,5.54,1.07,8.15.16.96-.33,2.01.17,2.34,1.13.33.96-.17,2.01-1.13,2.34-1.62.56-3.34.85-5.07.85Z"/>
    <path class="cls-1" d="M139.33,45.27h-4.27c-1.01,0-1.84-.82-1.84-1.84s.82-1.84,1.84-1.84h4.27c1.01,0,1.84.82,1.84,1.84s-.82,1.84-1.84,1.84Z"/>
    <path class="cls-1" d="M153.84,46.26c-.08,0-.16,0-.24-.02l-5.99-.79c-1.01-.13-1.71-1.05-1.58-2.06.13-1.01,1.04-1.73,2.06-1.58l5.99.79c1.01.13,1.71,1.05,1.58,2.06-.12.92-.91,1.6-1.82,1.6Z"/>
    <path class="cls-1" d="M168.37,45.27h-6.83c-1.01,0-1.84-.82-1.84-1.84s.82-1.84,1.84-1.84h6.83c1.01,0,1.84.82,1.84,1.84s-.82,1.84-1.84,1.84Z"/>
    <path class="cls-1" d="M174.36,45.38c-.9,0-1.68-.66-1.81-1.57-.15-1,.55-1.93,1.56-2.08l5.98-.86c.98-.16,1.93.55,2.07,1.56.14,1-.55,1.93-1.56,2.07l-5.97.86c-.09.01-.18.02-.26.02Z"/>
    <path class="cls-1" d="M184.62,59.81c-.44,0-.88-.16-1.24-.48-.75-.68-.8-1.85-.12-2.59.7-.76.75-2.14.11-2.95-.63-.8-.49-1.95.31-2.58.8-.63,1.95-.49,2.58.31,1.74,2.22,1.62,5.6-.29,7.69-.36.4-.86.6-1.36.6Z"/>
    <path class="cls-1" d="M183.74,74.31c-1.01,0-1.84-.82-1.84-1.84v-7.69c0-1.01.82-1.84,1.84-1.84s1.84.82,1.84,1.84v7.69c0,1.01-.82,1.84-1.84,1.84Z"/>
    <path class="cls-1" d="M182.97,87.2c-.46,0-.91-.17-1.27-.51-.73-.7-.76-1.86-.06-2.6.63-.66.61-2-.04-2.64-.72-.71-.73-1.87-.02-2.6.71-.73,1.88-.73,2.6-.02,2.07,2.04,2.13,5.68.11,7.79-.36.38-.84.57-1.33.57Z"/>
    <path class="cls-1" d="M182.89,103.35c-.07,0-.14,0-.21-.01-1.01-.11-1.73-1.02-1.62-2.03l.85-7.69c.11-1.01,1.01-1.75,2.03-1.62,1.01.11,1.73,1.02,1.62,2.03l-.85,7.69c-.1.94-.9,1.63-1.82,1.63Z"/>
    <path class="cls-1" d="M182.05,111.83c-.12,0-.23,0-.35-.03-1.21-.24-2.09-1.32-2.13-2.64-.04-1.32.77-2.45,1.97-2.76.97-.25,1.98.34,2.23,1.32.12.46.05.92-.16,1.31.23.38.33.84.24,1.31-.17.88-.94,1.49-1.8,1.49ZM182.45,109.95h0,0ZM182.4,108.19h0,0Z"/>
  </g>
</svg>