<?xml version="1.0" encoding="UTF-8"?>
<svg id="Layer_1" data-name="Layer 1" xmlns="http://www.w3.org/2000/svg" viewBox="0 0 137.6 65.52">
  <defs>
    <style>
      .cls-1 {
        fill: #423c7c;
      }
    </style>
  </defs>
  <path class="cls-1" d="M10.28,45.68s-.07,0-.1,0c-.59-.04-1.09-.47-1.23-1.05C6.89,35.88,3.92,27.32.13,19.18c-.32-.68-.02-1.5.66-1.82.69-.32,1.5-.02,1.82.66,3.27,7.03,5.95,14.37,7.97,21.87l8.39-20.99c-.26-.07-.5-.21-.69-.43-.49-.57-.43-1.43.14-1.93l2.53-2.2c.48-.41,1.18-.45,1.69-.08.51.36.71,1.03.48,1.62l-11.56,28.92c-.21.52-.71.86-1.27.86Z"/>
  <path class="cls-1" d="M33.47,38.24c-.68,0-1.27-.51-1.35-1.2-.09-.75.44-1.43,1.19-1.52l10.18-1.27c.74-.09,1.43.44,1.52,1.19.09.75-.44,1.43-1.19,1.53l-10.18,1.27c-.06,0-.11.01-.17.01Z"/>
  <path class="cls-1" d="M34.75,31.88c-.63,0-1.19-.43-1.33-1.07-.16-.74.3-1.47,1.04-1.63l11.45-2.54c.73-.17,1.47.3,1.63,1.04.16.74-.3,1.47-1.04,1.63l-11.45,2.54c-.1.02-.2.03-.3.03Z"/>
  <path class="cls-1" d="M71.67,28.34c-.4,0-.78-.17-1.05-.49l-1.3-1.54c-.49-.58-.41-1.44.17-1.93.22-.18.48-.29.74-.31l-.08-3.12-9.48,1.93c-.46.1-.94-.06-1.27-.4-.32-.35-.45-.84-.32-1.29l4.09-15.06c.2-.73.95-1.16,1.68-.96.73.2,1.16.95.96,1.68l-3.51,12.92,7.56-1.54c-.3-.55-.52-1.15-.64-1.8-.31-1.65.07-3.3,1.03-4.51.36-.45.96-.63,1.5-.44.55.18.92.69.93,1.26l.12,4.88c.12.11.25.21.39.29.49.29.75.84.66,1.4-.09.53-.47.95-.98,1.09l.16,6.55c.01.58-.34,1.11-.88,1.31-.16.06-.32.09-.48.09Z"/>
  <path class="cls-1" d="M81.98,37.11c-.31,0-.62-.1-.87-.32-.49-.4-.62-1.07-.37-1.62-7.56-1.22-15.36-1.11-22.86.33-.74.14-1.46-.34-1.6-1.08-.14-.74.34-1.46,1.08-1.6,8.93-1.71,18.25-1.61,27.15.28,1.12-.07,2.21.2,3.14.83.55.37.75,1.09.48,1.69-.27.6-.94.93-1.59.76-.71-.18-1.42-.35-2.14-.51-.53.09-1.03.35-1.36.75-.27.32-.66.49-1.05.49Z"/>
  <path class="cls-1" d="M69.44,65.52c-2.74,0-5.18-1.21-6.51-3.33-.4-.64-.2-1.48.44-1.88.64-.4,1.48-.2,1.88.44,1.23,1.97,3.75,2.27,5.53,1.91,1.78-.35,4-1.57,4.4-3.86.39-2.29-1.29-4.18-2.86-5.11-.47-.28-1.02-.52-1.62-.69-1.73,1.33-3.83,1.66-5.66.82-.43-.2-.73-.61-.78-1.08-.06-.47.13-.94.5-1.23,1.41-1.12,3.2-1.61,5.05-1.45.74-.92,1.29-2.34.54-3.51-.79-1.23-2.42-1.28-3.58-.93-1.16.34-2.51,1.25-2.51,2.72,0,.75-.61,1.37-1.37,1.37s-1.37-.61-1.37-1.37c0-2.45,1.76-4.54,4.48-5.34,2.72-.8,5.33.02,6.65,2.08,1.08,1.69,1.04,3.82-.03,5.71.37.16.73.34,1.08.55,3.04,1.8,4.68,4.91,4.16,7.92-.52,3.01-3.09,5.4-6.56,6.08-.63.12-1.26.18-1.87.18Z"/>
  <path class="cls-1" d="M91.83,43.95c-.47,0-.93-.24-1.18-.68-.38-.65-.16-1.49.5-1.87,3.67-2.13,6.44-5.95,7.59-10.49,1.16-4.54.56-9.22-1.65-12.84-.39-.64-.19-1.49.46-1.88.64-.39,1.49-.19,1.88.46,2.58,4.25,3.3,9.69,1.96,14.94-1.34,5.24-4.57,9.68-8.87,12.18-.22.12-.45.18-.68.18Z"/>
  <path class="cls-1" d="M107.17,42.03c-.12,0-.24-.02-.36-.05-.73-.2-1.16-.95-.96-1.68,2.2-8.04,2.73-16.64,1.54-24.89-.11-.75.41-1.44,1.16-1.55.73-.11,1.44.41,1.55,1.16,1.25,8.62.69,17.61-1.6,26-.17.61-.72,1.01-1.32,1.01Z"/>
  <path class="cls-1" d="M112.36,17.89c-.47,0-.92-.24-1.17-.67-.39-.65-.18-1.49.47-1.87l.14-.08-23.58.88s-.03,0-.05,0c-.73,0-1.34-.58-1.36-1.32-.03-.75.56-1.39,1.32-1.42l28.91-1.07c.67-.03,1.18.38,1.36.98.18.6-.07,1.24-.61,1.56l-4.71,2.82c-.22.13-.46.19-.7.19Z"/>
  <path class="cls-1" d="M119.08,45.48c-.56,0-1.08-.34-1.28-.89-.32-.87-.51-1.77-.57-2.68l-2.86-13.83c-.15-.74.32-1.46,1.06-1.61.75-.15,1.46.32,1.62,1.06l1.7,8.22c.31-.54.67-1.07,1.08-1.58,2.52-3.17,6.15-4.79,9.7-4.34.75.1,1.28.78,1.18,1.53-.1.75-.8,1.27-1.53,1.18-2.58-.34-5.33.95-7.21,3.33-1.39,1.75-2.09,3.83-2.01,5.76l.46,2.22c.14.7-.27,1.39-.96,1.59-.12.04-.25.05-.38.05Z"/>
  <path class="cls-1" d="M131.77,19.44c-1.23,0-2.38-.41-3.27-1.21-.56-.5-.61-1.37-.1-1.93.51-.56,1.37-.61,1.93-.1.81.73,2.04.56,2.83.19.8-.36,1.73-1.18,1.71-2.27-.02-1.09-.97-1.87-1.78-2.21-.69-.29-1.68-.42-2.45,0-.17.14-.35.28-.53.41-.59.41-1.39.31-1.85-.25-.45-.55-.41-1.36.11-1.86.21-.2.43-.38.67-.53,1.87-1.62,2.81-4.27,2.43-6.71-1.42.55-2.54,1.94-2.64,3.46-.05.75-.7,1.34-1.46,1.27-.75-.05-1.32-.7-1.27-1.46.22-3.25,3.04-6.05,6.29-6.24.6-.05,1.17.34,1.37.92.91,2.64.56,5.65-.77,8.1.38.08.77.2,1.15.36,2.1.88,3.43,2.68,3.46,4.69.03,2.02-1.24,3.85-3.31,4.8-.84.38-1.7.57-2.52.57Z"/>
</svg>