<?xml version="1.0" encoding="UTF-8"?>
<svg id="Layer_1" data-name="Layer 1" xmlns="http://www.w3.org/2000/svg" viewBox="0 0 683 90.5">
  <defs>
    <style>
      .cls-1 {
        fill: #df589a;
      }
    </style>
  </defs>
  <path class="cls-1" d="M639.84,89.98c-17.39,0-52.68-.27-70.07-.27-17.39,0-17.39.64-34.78.64-17.39,0-17.39-.41-34.77-.41-17.39,0-17.39.07-34.77.07-17.39,0-17.39-.2-34.78-.2-17.39,0-17.39.54-34.78.54-17.38,0-17.38.15-34.76.15-17.39,0-17.39-1.02-34.77-1.02-17.39,0-17.39,1.02-34.77,1.02q-17.39,0-34.77-.02t-34.78-.04c-17.4,0-17.4-.47-34.79-.47-17.39,0-17.39-.1-34.78-.1-17.4,0-17.4-.08-34.81-.08-17.4,0-57.11.44-74.51.44-7.31,0-14.44-3.25-19.17-8.84-9.52-11.25-9.42-11.33-18.94-22.58-6.58-7.78-6.76-19.48-.18-27.25,9.52-11.25,10.22-10.66,19.74-21.91C29.3,4.08,35.82.35,43.13.35c17.39,0,57.09.48,74.48.48s17.39-.28,34.78-.28,17.39-.05,34.77-.05,17.39-.5,34.77-.5,17.39,1.04,34.78,1.04,17.39-.75,34.78-.75,17.38.57,34.76.57,17.39.11,34.77.11,17.39-.1,34.77-.1,17.39-.14,34.77-.14,17.39.28,34.78.28,17.4-.93,34.79-.93,17.39.79,34.78.79,17.4-.78,34.81-.78,52.7.07,70.1.07c7.31,0,13.98,3.8,18.7,9.38,9.52,11.25,10.22,10.66,19.74,21.91,6.58,7.78,6.16,19.53-.42,27.3q-9.52,11.25-19.02,22.51c-4.72,5.58-11.68,8.72-18.99,8.72Z"/>
</svg>