<?xml version="1.0" encoding="UTF-8"?>
<svg id="Layer_1" data-name="Layer 1" xmlns="http://www.w3.org/2000/svg" viewBox="0 0 601.86 327.25">
  <defs>
    <style>
      .cls-1 {
        fill: #c64689;
      }

      .cls-2 {
        fill: #fff;
      }

      .cls-3 {
        fill: #df589a;
      }

      .cls-4 {
        fill: #2a2459;
      }

      .cls-5 {
        fill: #553d90;
      }

      .cls-6 {
        fill: #922c86;
      }
    </style>
  </defs>
  <g>
    <path class="cls-2" d="M99.39,327.25c-3.24,0-6.27-1.61-8.11-4.3-1.83-2.69-2.22-6.11-1.03-9.15l17.03-43.3-47.71-30.35c-.22-.14-.44-.28-.64-.44-3.56,1.09-7.27,2-11.08,2.72-5.59,1.05-11.67,1.66-18.08,1.82-.19,0-.43.01-.67.01-9.1,0-16.24-5.6-17.77-13.94-.03-.15-.1-.57-.1-.57,0,0,0-.06,0-.07-.38-2.7-.38-5.26-.38-6.96,0-4.86.6-9.59,1.09-12.7,0-.05.02-.1.02-.16-.25-.73-.45-1.47-.6-2.23l-.03-.09-.11-.72c-.4-2.74-.4-5.28-.4-6.97,0-.37,0-.75.01-1.13-7.09-5.65-10.82-13.95-10.82-24.22,0-3.94.58-7.85,1.73-11.66-1.14-3.38-1.71-7.15-1.71-11.22C.02,125.49,25.21,103.21,62.7,96.19c.08-.02.16-.03.23-.05,3.46-4.1,8.04-6.83,13.12-7.79,4.36-.82,8.61-1.23,12.63-1.23,1.79,0,3.52.08,5.17.25.29.02.58.05.87.09,7.21,1.06,12.59,5.51,14.63,11.7,11.32-10.31,25.08-17.29,39.91-20.06.61-.12,1.32-.24,2.1-.37,3.45-3.7,7.95-6.2,12.9-7.14,1.93-.36,4.09-.54,6.46-.54,4.62,0,9.78.68,13.82,1.83,1.58.41,3.07,1.04,4.44,1.84,1.58-.96,3.29-1.79,5.14-2.5,4.69-1.82,9.34-3.15,14.2-4.06,1.53-.29,3.22-.6,5.17-.74.62-.06,1.41-.1,2.23-.1,3.8,0,7.2.92,10.01,2.67,3.51-2.56,7.84-4.45,12.95-5.63,17.48-4.28,32.31-7.55,45.28-9.99,4.76-.89,9.73-1.74,15.63-2.67l.4-.07c1.2-.17,3.2-.46,5.56-.46,2.48,0,4.76.32,6.82.96,4.36-3.99,10.1-8.63,14.02-11.25,2.99-1.99,5.96-3.24,9.09-3.82,1.24-.24,2.52-.36,3.76-.36,5.25,0,9.95,2.12,13.61,6.13,3.92,4.23,8.24,9.06,12.82,14.32.34-9.51,7.27-18.19,17.09-21.28,2.98-.94,5.47-1.42,7.97-1.88,4.13-.79,7.96-1.22,11.16-1.53.78-.07,1.52-.11,2.24-.11,8.93,0,15.65,5.2,17.61,13.11,12.15-13.36,28.38-22.71,45.75-25.96.75-.14,1.45-.27,2.11-.37,3.43-3.7,7.92-6.2,12.89-7.14,1.93-.36,4.1-.54,6.48-.54,4.59,0,9.74.67,13.78,1.8,1.36.37,2.64.87,3.84,1.51,1.6-.59,3.34-1.12,5.19-1.56,17.63-4.31,32.48-7.58,45.35-10,5.26-.99,10.22-1.79,15.01-2.57l1.01-.17c1.19-.17,3.17-.45,5.52-.45,10.51,0,17.32,5.76,18.68,15.79.35,2.42.52,4.95.52,7.66,0,2.25,0,5.06-.39,8.09-.17,1.37-.44,2.69-.8,3.95.29,1,.5,2.04.66,3.16.31,2.17.48,4.38.52,6.71,1.22,1.72,2.15,3.72,2.79,5.98,1.08,4,1.2,7.6,1.2,9.96,0,1.64,0,3.89-.44,6.63-.16,1.16-.5,2.88-1.23,4.85.16.45.31.91.45,1.4,1.08,3.9,1.22,7.4,1.22,10.03,0,1.63,0,3.87-.44,6.61-.29,2.12-1.4,7.3-5.44,12.14.12.39.22.79.32,1.2.62,2.38.93,5.07.93,8.12s-.33,5.54-.62,7.85l-.03.24c0,.08-.02.31-.06.54-2.84,16.84-16.61,20.12-23.23,21.7-8.2,2.04-16.54,3.86-24.72,5.41-8.05,1.52-16.45,2.88-24.98,4.04-1.35.18-2.65.27-3.88.27-4.24,0-10.66-1.13-15.15-7.02-11.68,10.69-30.77,18.71-43.6,21.1-4.45.84-8.86,1.26-13.08,1.26-11.85,0-22.23-3.25-30.28-9.34-2.16,7.76-8.73,14.69-16.49,17.06-2.18.62-3.85.95-5.51,1.26-4.5.84-8.79,1.25-13.48,1.27h-.29c-8.1,0-13.64-4.69-15.73-6.81-.34-.33-.68-.66-1.03-.99-2.29,5.12-6.44,9.48-11.91,12.27-.92.46-1.9.9-2.93,1.33l5.79,13.93,88.87-17.86.02.07,109.05-21.88c.65-.13,1.31-.19,1.96-.19,3.25,0,6.28,1.61,8.12,4.31,1.83,2.69,2.21,6.1,1.02,9.13l-17.02,43.3,47.71,30.35c3.41,2.16,5.13,6.13,4.4,10.11-.74,3.97-3.77,7.06-7.74,7.86l-152.27,30.55-.02-.04-121.48,24.39-13.21-31.75-47.95,9.62-6.78,1.43-149.37,29.98c-.65.13-1.31.19-1.96.19Z"/>
    <path class="cls-2" d="M594.87,75.88c.87,3.14.98,6.09.98,8.34,0,1.53,0,3.4-.36,5.67-.3,2.19-1.47,7.07-5.9,11.08-.13.38-.28.76-.42,1.13.53,1,.98,2.12,1.3,3.46.51,1.97.76,4.16.76,6.73s-.32,5.07-.59,7.26c-.02.15-.02.28-.04.4-2.17,12.85-12.1,15.24-18.68,16.82-8.47,2.1-16.71,3.89-24.44,5.35-8.09,1.53-16.41,2.87-24.67,3.99-13.12,1.74-15.86-7.6-16.82-13.08-1.1,2.91-2.91,5.54-5.35,7.75-10.74,9.87-29,17.54-40.74,19.72-20.66,3.89-37.54-2.19-46.46-15.16-.36,3.23-.76,6.35-1.19,9.41-.89,6.5-6.41,12.93-12.87,14.9-1.87.53-3.4.83-4.86,1.1-4.08.76-8.03,1.15-12.4,1.17-5.97.11-10.15-3.42-11.76-5.07-2.89-2.76-6.03-6.05-9.55-9.77.21,1.87.28,2.93.28,3.78,0,6.62-4.06,12.85-10.62,16.18-2.36,1.17-5.2,2.25-8.2,3.14l10.13,24.35,88.45-17.77.02.06,114.31-22.93c2.97-.59,5.41,2.34,4.31,5.14l-17.96,45.69c-.51,1.29-.02,2.78,1.15,3.52l49.87,31.72c2.91,1.85,2.08,6.31-1.3,6.99l-147.71,29.64-.02-.04-121.19,24.33-13.21-31.74h-.02l-59.58,11.95.02.06-149.37,29.98c-2.97.59-5.41-2.34-4.31-5.16l17.96-45.67c.51-1.3.04-2.78-1.15-3.52l-49.87-31.72c-.96-.59-1.51-1.49-1.7-2.42-4.5,1.61-9.3,2.91-14.37,3.86-5.31,1-11.06,1.57-17.11,1.72-6.33.21-11.36-3.4-12.38-9.02,0-.08-.04-.15-.04-.23-.34-2.34-.34-4.61-.34-6.26,0-4.44.55-8.83,1.02-11.74.08-.57.19-1.15.34-1.72-.45-.89-.79-1.87-.98-2.93,0-.08-.02-.17-.04-.23-.36-2.36-.36-4.61-.36-6.24,0-1.4.06-2.8.17-4.14-6.43-3.97-10.98-10.51-10.98-21.21,0-4.06.72-8,2.1-11.81-1.34-3.08-2.08-6.73-2.08-11.08,0-23.14,23.23-43.04,57.77-49.51.83-.17,1.68-.32,2.48-.45,2.38-3.5,6.14-6.5,10.87-7.39,5.78-1.08,11.4-1.4,16.24-.89.15,0,.3.02.45.04,6.39.93,10.38,5.33,10.38,11.47v.4c-.15,3.29-.34,6.22-.55,8.92,11.3-14.73,27.88-25.67,46.69-29.19,1.36-.25,2.72-.49,4.12-.66,2.7-3.61,6.52-6.03,10.89-6.86,5.27-.98,12.8-.17,17.52,1.17,2.42.64,4.44,1.91,5.86,3.69,1.87-1.72,4.31-3.29,7.52-4.52,4.37-1.7,8.71-2.93,13.14-3.76,1.34-.26,2.85-.53,4.52-.66,3.57-.34,8.75.15,11.76,4.78,2.74-3.33,7.18-6.33,14.33-7.98,17.26-4.23,32.04-7.49,45.03-9.94,5.46-1.02,10.57-1.87,15.56-2.65l.21-.04c2.53-.36,8.45-1.21,12.74,1.72,3.93-3.99,11.42-10.25,16.16-13.42,2.29-1.53,4.54-2.48,6.84-2.91,3.23-.62,7.88-.42,11.83,3.91,7.66,8.28,16.01,17.9,23.82,27.22-.17-6.24-.38-11.13-.47-13.72-.04-1.42-.08-2.29-.08-2.51,0-7.18,5.31-13.89,12.89-16.26,2.76-.87,5.14-1.32,7.24-1.7,4.01-.76,7.66-1.17,10.68-1.46,8.09-.76,13.74,4.08,13.82,11.76.11,4.2.13,8.3.13,12.59,10.96-18.81,30.04-33.25,52.17-37.39,1.36-.25,2.74-.49,4.14-.66,2.7-3.63,6.5-6.03,10.87-6.86,5.27-.98,12.8-.17,17.52,1.15,1.89.51,3.48,1.36,4.78,2.55,2.04-1.02,4.46-1.87,7.28-2.55,17.28-4.23,32.04-7.49,45.05-9.94,5.44-1.02,10.57-1.85,15.54-2.65l.21-.04c3.89-.55,15.71-2.21,17.39,10.19.32,2.21.47,4.46.47,6.86,0,2.19,0,4.67-.34,7.32-.21,1.68-.59,3.27-1.19,4.76.49,1.13.85,2.42,1.06,3.95.32,2.23.47,4.46.47,6.86,0,.38,0,.76-.02,1.17,1.3,1.29,2.36,3.08,3.04,5.48.85,3.14.98,6.09.98,8.32,0,1.53,0,3.42-.36,5.69-.17,1.27-.64,3.44-1.87,5.82.51.89.91,1.89,1.25,3.06Z"/>
  </g>
  <path class="cls-4" d="M588.87,101.59c.66,1.09,1.2,2.39,1.58,3.97.51,1.98.76,4.17.76,6.74s-.31,5.06-.59,7.25c-.03.15-.03.28-.05.41-2.16,12.85-12.11,15.24-18.67,16.81-8.47,2.11-16.71,3.89-24.45,5.34-8.09,1.53-16.41,2.87-24.68,3.99-13.13,1.76-15.85-7.61-16.81-13.08-1.09,2.9-2.9,5.55-5.34,7.76-10.76,9.87-29,17.53-40.75,19.71-20.66,3.89-37.55-2.19-46.45-15.16-.36,3.23-.76,6.36-1.2,9.41-.89,6.49-6.41,12.92-12.87,14.91-1.86.53-3.38.81-4.86,1.09-4.07.76-8.01,1.14-12.39,1.17-5.98.1-10.15-3.41-11.78-5.06-2.87-2.77-6.03-6.05-9.54-9.77.2,1.86.28,2.93.28,3.77,0,6.64-4.07,12.85-10.63,16.18-4.1,2.04-9.62,3.79-14.88,4.76-1.09.2-2.59.48-4.58.71-.1.03-.23.03-.33.03-7.02.53-11.78-3.36-12.72-10.4-.13-.81-.23-1.6-.33-2.44-.03.36-.1.69-.13,1.04-.03.13-.03.25-.08.41-2.14,12.85-12.08,15.24-18.65,16.81-8.47,2.09-16.71,3.87-24.45,5.32-8.11,1.53-16.41,2.87-24.68,4.02-14.5,1.93-16.28-9.72-17.07-14.68-.59-4.27-1.04-8.29-1.4-12.24-1.09-.15-2.19-.43-3.21-.89-.23,5.11-.51,10.35-.84,15.8-.1,11.19-7.35,17.32-14.12,19.31-3.03.86-4.6,1.17-5.98,1.42-3.03.56-6.03.94-9.23,1.14-9.03.74-12.13-4.71-13.33-8.95-.61.79-1.32,1.5-2.09,2.19-10.76,9.87-29,17.53-40.73,19.74-20.4,3.82-37.11-2.06-46.15-14.7-7.94,15.09-25.59,26.76-48.77,31.09-5.32.99-11.07,1.58-17.12,1.73-6.33.2-11.37-3.41-12.39-9.03,0-.08-.03-.15-.03-.23-.36-2.34-.36-4.6-.36-6.26,0-4.45.56-8.85,1.02-11.75.69-4.76,3.64-9.03,7.68-11.52-10.56-3.1-19.51-9.95-19.51-24.96,0-23.12,23.23-43.04,57.77-49.5.84-.15,1.68-.33,2.52-.43,2.37-3.54,6.13-6.51,10.86-7.4,5.77-1.09,11.4-1.4,16.23-.89.15,0,.31,0,.43.03,6.41.97,10.38,5.34,10.38,11.47v.41c-.13,3.31-.31,6.23-.53,8.93,11.29-14.73,27.88-25.69,46.68-29.2,1.37-.25,2.75-.48,4.12-.66,2.7-3.61,6.51-6.03,10.91-6.84,5.27-.99,12.77-.18,17.5,1.15,2.44.66,4.45,1.93,5.85,3.71,1.88-1.73,4.32-3.31,7.53-4.53,4.38-1.7,8.7-2.93,13.15-3.76,1.35-.25,2.82-.53,4.5-.66,3.59-.33,8.75.15,11.78,4.78,2.72-3.33,7.17-6.31,14.32-7.99,17.27-4.22,32.03-7.48,45.05-9.92,5.44-1.02,10.56-1.86,15.54-2.67l.2-.03c2.54-.36,8.47-1.22,12.74,1.73,3.94-4.02,11.45-10.28,16.15-13.43,2.31-1.53,4.55-2.49,6.84-2.93,3.23-.61,7.89-.43,11.83,3.92,7.66,8.29,16.03,17.91,23.84,27.22-.18-6.23-.38-11.14-.48-13.71-.05-1.42-.08-2.29-.08-2.52,0-7.17,5.29-13.86,12.87-16.25,2.77-.87,5.16-1.3,7.25-1.7,4.02-.76,7.66-1.17,10.68-1.48,8.09-.74,13.74,4.1,13.81,11.78.1,4.2.13,8.32.13,12.59,10.96-18.82,30.07-33.25,52.17-37.39,1.35-.25,2.75-.48,4.15-.66,2.7-3.61,6.49-6.03,10.89-6.84,5.24-.99,12.77-.18,17.5,1.14,1.88.51,3.49,1.37,4.76,2.54,2.04-1.02,4.48-1.88,7.3-2.54,17.27-4.22,32.03-7.5,45.05-9.92,5.42-1.04,10.56-1.88,15.54-2.67l.2-.03c3.89-.56,15.72-2.24,17.4,10.18.31,2.21.46,4.45.46,6.84,0,2.19,0,4.68-.33,7.35-.66,5.65-3.61,10.3-8.24,13.36,4.63.23,9.67,1.98,11.6,8.83.86,3.15.97,6.11.97,8.34,0,1.53,0,3.41-.36,5.67-.33,2.29-1.6,7.58-6.61,11.7Z"/>
  <g>
    <path class="cls-5" d="M588.86,78.69c.68,1.09,1.21,2.4,1.59,3.98.52,1.97.77,4.17.77,6.73s-.3,5.08-.59,7.26c-.02.14-.04.26-.05.41-2.16,12.85-12.09,15.24-18.68,16.82-8.45,2.1-16.7,3.88-24.44,5.33-8.1,1.52-16.41,2.87-24.69,4-13.11,1.75-15.84-7.62-16.8-13.1-1.09,2.9-2.91,5.55-5.35,7.76-10.76,9.87-29,17.53-40.76,19.73-20.66,3.87-37.53-2.2-46.45-15.17-.36,3.23-.77,6.37-1.2,9.4-.87,6.49-6.4,12.94-12.86,14.92-1.86.54-3.39.82-4.85,1.1-4.08.77-8.03,1.14-12.4,1.17-5.98.11-10.15-3.43-11.77-5.07-2.87-2.78-6.05-6.05-9.54-9.76.2,1.84.29,2.92.29,3.74,0,6.65-4.08,12.85-10.65,16.19-4.1,2.02-9.61,3.78-14.88,4.76-1.11.21-2.6.49-4.57.7-.12.02-.23.03-.34.03-7.03.53-11.77-3.36-12.72-10.41-.12-.8-.23-1.61-.34-2.43-.04.35-.09.69-.12,1.02-.02.14-.04.26-.07.41-2.14,12.84-12.08,15.24-18.66,16.81-8.45,2.1-16.7,3.88-24.44,5.33-8.12,1.52-16.41,2.87-24.69,4-14.48,1.94-16.29-9.7-17.05-14.66-.59-4.27-1.05-8.31-1.41-12.23-1.09-.17-2.18-.45-3.21-.89-.23,5.11-.5,10.35-.82,15.78-.12,11.2-7.37,17.33-14.13,19.32-3.03.88-4.6,1.17-5.99,1.43-3.01.56-6.03.94-9.22,1.14-9.04.73-12.15-4.72-13.32-8.95-.62.77-1.32,1.48-2.09,2.18-10.76,9.87-29,17.53-40.74,19.73-20.41,3.82-37.12-2.05-46.14-14.68-7.92,15.08-25.58,26.74-48.77,31.08-5.3.99-11.06,1.57-17.11,1.71-6.35.23-11.38-3.4-12.4-9.02,0-.07-.02-.15-.04-.22-.36-2.36-.36-4.61-.36-6.26,0-4.45.57-8.86,1.03-11.76.68-4.77,3.62-9.03,7.69-11.53-10.56-3.11-19.51-9.94-19.51-24.95,0-23.13,23.22-43.04,57.77-49.51.84-.16,1.68-.31,2.5-.43,2.37-3.52,6.14-6.51,10.86-7.4,5.78-1.08,11.4-1.4,16.25-.9.14,0,.29.02.43.04,6.4.95,10.38,5.34,10.38,11.46v.41c-.14,3.29-.32,6.23-.55,8.92,11.31-14.73,27.9-25.68,46.7-29.2,1.36-.25,2.73-.48,4.12-.65,2.69-3.62,6.51-6.03,10.9-6.85,5.26-.99,12.79-.18,17.52,1.15,2.43.65,4.44,1.92,5.85,3.7,1.87-1.73,4.32-3.3,7.53-4.52,4.37-1.7,8.7-2.94,13.15-3.77,1.34-.25,2.84-.53,4.51-.66,3.57-.32,8.74.15,11.77,4.77,2.73-3.33,7.17-6.31,14.32-7.98,17.27-4.23,32.04-7.5,45.04-9.93,5.44-1.02,10.58-1.86,15.55-2.66l.21-.04c2.53-.35,8.45-1.21,12.74,1.72,3.94-4,11.43-10.25,16.16-13.43,2.3-1.53,4.55-2.48,6.83-2.91,3.23-.6,7.88-.43,11.83,3.9,7.67,8.29,16.02,17.92,23.83,27.23-.18-6.24-.37-11.14-.46-13.71-.05-1.42-.09-2.29-.09-2.51,0-7.18,5.3-13.88,12.88-16.27,2.76-.86,5.15-1.31,7.24-1.7,4.03-.76,7.67-1.16,10.68-1.47,8.1-.76,13.73,4.08,13.82,11.78.11,4.19.12,8.3.12,12.57,10.97-18.81,30.06-33.25,52.17-37.39,1.36-.25,2.75-.48,4.14-.65,2.69-3.62,6.49-6.03,10.88-6.85,5.26-.99,12.79-.18,17.52,1.15,1.87.49,3.48,1.36,4.76,2.55,2.03-1.02,4.46-1.88,7.3-2.55,17.27-4.23,32.04-7.5,45.04-9.93,5.44-1.02,10.58-1.86,15.55-2.66l.21-.04c3.89-.56,15.7-2.22,17.39,10.18.3,2.21.46,4.45.46,6.86,0,2.18,0,4.67-.34,7.33-.66,5.66-3.6,10.32-8.24,13.37,4.64.21,9.67,1.99,11.59,8.83.86,3.14.96,6.09.96,8.33,0,1.53,0,3.42-.36,5.69-.32,2.29-1.59,7.58-6.62,11.69Z"/>
    <path class="cls-2" d="M27.2,195.97c-.26-1.68-.26-3.42-.26-4.9,0-3.34.38-7,.9-10.19.26-1.78,1.28-3.21,3.08-3.55.9-.17,2.57.01,3.98,0,2.18-.04,5.52-.17,10.79-1.15,10.02-1.88,20.55-5.95,20.55-11.65,0-7.18-50.09,7.77-50.09-21.68,0-20.17,24.27-33.51,47.65-37.89,3.08-.58,6.17-.91,9.25-1.24l.64-3.09c.26-1.16,1.41-3.11,3.47-3.5,4.88-.91,9.5-1.16,13.36-.77,2.95.44,3.6,2.17,3.6,3.53-.51,12.1-1.67,19.13-3.08,27.68-.39,2.18-1.67,4.27-4.75,4.85-5.52,1.03-8.35,1.32-12.46,1.1-1.8-.03-2.95-1.92-2.95-3.78,0-1.98.13-3.98.26-5.99-3.34.13-6.55.61-9.63,1.19-10.79,2.02-19.14,6.18-19.14,10.64,0,9.65,47.65-7.44,47.65,23.62,0,18.81-18.75,33.22-43.28,37.81-4.88.91-10.15,1.41-15.41,1.52-2.44.09-3.85-1.13-4.11-2.57Z"/>
    <path class="cls-2" d="M150.36,87.88c3.21-.6,6.68-1,10.02-1.13l.77-2.37c.77-2.25,2.06-3.6,4.24-4.01,2.95-.55,8.86-.17,13.1,1.01,1.93.51,2.7,1.97,2.7,3.83,0,.62-.13,1.26-.26,1.91-2.05,10.53-6.42,25.46-9.76,35.74-.9,2.89-2.18,4.37-4.75,4.85-.51.1-1.03.19-2.57.23-2.31.06-5.52.04-8.6-.49-2.95-.44-3.85-2.87-3.85-4.35,0-.5,0-.74.38-3.04.51-2.57,1.67-7.74,2.95-12.93-.64,0-2.83.28-3.85.47-12.72,2.38-27.1,15.97-27.1,32.43,0,11.63,7.71,19.35,21.06,16.85,7.58-1.42,16.31-5.53,23.38-10.2,1.28-.86,2.18-1.28,3.08-1.44,1.16-.22,2.06.23,3.08,1.4,2.7,2.71,4.49,7.33,4.49,11.29,0,2.1-.64,4.33-2.57,6.05-8.09,7.46-23.76,14.6-34.68,16.64-23.25,4.35-43.28-6.5-43.28-31.37,0-28.84,22.73-55.87,52.02-61.35Z"/>
    <path class="cls-2" d="M218.17,83.1c.26,8.74.39,17.01.39,25.17,0,16.21-.51,31.78-1.54,48.8,0,4.7-1.67,7.24-5.14,8.26-2.44.7-3.6.92-4.88,1.16-2.31.43-4.88.79-7.96,1-3.47.28-4.62-1.11-5.27-5.82-1.16-15.75-1.8-29.86-1.8-44.47,0-8.79.26-17.87.64-27.47.26-5.74,1.16-7.89,5.65-9.6,3.72-1.44,7.32-2.48,11.17-3.21,1.16-.22,2.31-.43,3.47-.53,4.11-.4,5.14,1.88,5.27,6.69Z"/>
    <path class="cls-2" d="M240.51,72.98c14.9-3.66,30.18-7.14,44.57-9.83,5.27-.99,10.28-1.8,15.28-2.62,5.39-.76,7.32-.26,7.83,3.48.26,1.81.39,3.64.39,5.62s0,4.08-.26,6.11c-.38,3.29-2.06,5.46-6.94,6.37-6.68,1.25-14.13,2.4-21.83,3.84-5.52,1.03-11.17,2.09-16.7,3.25.13,5.92.38,11.31.77,16.69,5.01-1.06,10.15-2.15,15.41-3.13,7.96-1.49,16.06-2.88,23.89-3.98,6.29-.93,8.09-.4,8.99,2.77.51,1.88.64,3.84.64,5.94,0,1.36,0,2.72-.26,4.26-.38,3.29-2.57,5.06-6.42,6.03-8.86,2.4-21.06,4.94-33.78,7.32l-7.19,1.35.77,9.88c20.16-3.78,32.75-7.25,36.09-7.87,3.73-.7,5.01-.32,5.65,2.53.38,1.41.51,3,.51,4.61,0,1.98-.26,4.01-.51,6.04-.77,4.6-2.31,5.26-9.25,6.93-8.35,2.06-16.31,3.8-23.89,5.22-8.73,1.64-16.83,2.9-24.15,3.9-4.62.62-6.42-.65-7.58-8.11-.9-6.64-1.54-12.95-1.93-19.19-7.06,1.32-9.76.96-9.76-6.34,0-1.61.13-3.24.26-5.12.39-4.28,1.8-5.41,7.45-7.09l1.16-.34c-.13-3.94-.13-7.9-.13-11.98v-5.2l-2.31.43c-4.24.79-6.04.14-6.04-5.3,0-3.22.13-6.46.64-9.65.51-3.93,3.21-5.55,8.6-6.81Z"/>
    <path class="cls-2" d="M382.56,74.59c-.26-14.06-.77-24.73-.77-25.47,0-2.85,2.18-4.37,4.11-4.98,2.05-.63,3.98-.99,5.91-1.35,3.6-.67,6.94-1.05,9.76-1.33,2.7-.26,4.62.99,4.62,3.96.13,4.43.13,8.89.13,13.47,0,22.4-1.16,46.01-4.11,66.61-.26,1.9-2.05,4.35-4.11,4.98-1.16.34-2.31.56-3.6.8-3.08.58-6.42.96-10.53.98-2.18.04-4.37-1.29-5.78-2.75-8.99-8.71-20.42-21.55-31.47-34.58,1.28,15.48,4.24,35.1,4.24,38.07,0,2.6-1.41,4.47-3.72,5.65-2.83,1.4-7.32,2.86-11.69,3.67-1.03.19-2.18.41-3.73.57-2.18.16-3.47-.71-3.85-3.61-3.08-20.59-4.11-41.43-4.11-65.44l-5.52-7.38c-.51-.65-.77-1.59-.77-2.58,0-1.48.64-3.09,1.93-4.57,2.7-2.98,10.4-9.5,14.77-12.42.77-.52,1.54-.91,2.31-1.05,1.41-.26,2.57.26,3.72,1.53,15.03,16.24,31.98,36.83,42.38,49.98,0-7.92,0-15.72-.13-22.75Z"/>
    <path class="cls-2" d="M468.6,28.28c3.21-.6,6.68-1,10.02-1.13l.77-2.37c.77-2.25,2.06-3.6,4.24-4.01,2.95-.55,8.86-.17,13.1,1.01,1.93.51,2.7,1.97,2.7,3.83,0,.62-.13,1.26-.26,1.91-2.05,10.53-6.42,25.46-9.76,35.74-.9,2.89-2.18,4.37-4.75,4.85-.51.1-1.03.19-2.57.23-2.31.06-5.52.04-8.6-.49-2.95-.44-3.85-2.87-3.85-4.35,0-.5,0-.74.38-3.04.51-2.57,1.67-7.74,2.95-12.93-.64,0-2.83.28-3.85.47-12.72,2.38-27.1,15.97-27.1,32.43,0,11.63,7.71,19.35,21.06,16.85,7.58-1.42,16.31-5.53,23.38-10.2,1.28-.86,2.18-1.28,3.08-1.44,1.16-.22,2.06.23,3.08,1.4,2.7,2.71,4.49,7.33,4.49,11.29,0,2.1-.64,4.33-2.57,6.05-8.09,7.46-23.76,14.6-34.68,16.64-23.25,4.35-43.28-6.5-43.28-31.37,0-28.84,22.73-55.87,52.02-61.35Z"/>
    <path class="cls-2" d="M513.67,21.81c14.9-3.66,30.18-7.14,44.57-9.83,5.27-.99,10.28-1.8,15.28-2.62,5.39-.76,7.32-.26,7.83,3.48.26,1.81.39,3.64.39,5.62s0,4.08-.26,6.11c-.38,3.29-2.06,5.46-6.94,6.37-6.68,1.25-14.13,2.4-21.83,3.84-5.52,1.03-11.17,2.09-16.7,3.25.13,5.92.38,11.31.77,16.69,5.01-1.06,10.15-2.15,15.41-3.13,7.96-1.49,16.06-2.88,23.89-3.98,6.29-.93,8.09-.4,8.99,2.77.51,1.88.64,3.84.64,5.94,0,1.36,0,2.72-.26,4.26-.38,3.29-2.57,5.06-6.42,6.03-8.86,2.4-21.06,4.94-33.78,7.32l-7.19,1.35.77,9.88c20.16-3.78,32.75-7.25,36.09-7.87,3.73-.7,5.01-.32,5.65,2.53.38,1.41.51,3,.51,4.61,0,1.98-.26,4.01-.51,6.04-.77,4.6-2.31,5.26-9.25,6.93-8.35,2.06-16.31,3.8-23.89,5.22-8.73,1.64-16.83,2.9-24.15,3.9-4.62.62-6.42-.65-7.58-8.11-.9-6.64-1.54-12.95-1.93-19.19-7.06,1.32-9.76.96-9.76-6.34,0-1.61.13-3.24.26-5.12.39-4.28,1.8-5.41,7.45-7.09l1.16-.34c-.13-3.94-.13-7.9-.13-11.98v-5.2l-2.31.43c-4.24.79-6.04.14-6.04-5.3,0-3.22.13-6.46.64-9.65.51-3.93,3.21-5.55,8.6-6.81Z"/>
  </g>
  <path class="cls-1" d="M541.52,214.74l17.96-45.68c1.11-2.82-1.34-5.75-4.32-5.16l-114.3,22.95-.03-.06-157.05,31.53,38.52,92.58,121.19-24.33.02.05,147.71-29.65c3.38-.68,4.21-5.13,1.3-6.99l-49.87-31.72c-1.18-.75-1.66-2.23-1.15-3.53Z"/>
  <polygon class="cls-6" points="377.69 265.35 322.31 310.89 309.09 279.12 377.69 265.35"/>
  <g>
    <path class="cls-6" d="M403.8,235.26c-.95.18-4.39.82-4.39-3.41,0-3.37,2.22-4.65,4.39-5.06l18.9-3.54c2.98-.56,4.3,1.79,4.3,4.11,0,2.09-.38,2.67-4.82,9.28-3.69,5.52-7.89,15.91-8.27,23.13-.05,1.37-.19,3.77-5.01,4.67-3.26.61-5.05-.1-5.05-2.56s2.55-12.59,6.57-19.81c1.61-2.9,3.35-5.77,5.2-8.53.05-.1.19-.26.19-.35,0-.14-.09-.17-.43-.1l-11.57,2.17Z"/>
    <path class="cls-6" d="M444.24,220.26c.33-.79,1.37-2.31,3.07-2.62,2.17-.41,3.5.94,3.5,2.67,0,.5-.09.93-.24,1.27l-14.17,35.67c-.33.79-1.37,2.31-3.07,2.62-2.17.41-3.54-.93-3.54-2.61,0-.5.14-.98.28-1.33l14.17-35.67Z"/>
    <path class="cls-6" d="M453.26,222.94c.52-4.97,2.98-5.98,6.19-6.58l12.09-2.27c2.03-.38,4.44-.15,4.44,3.45s-2.36,4.63-4.44,5.02l-9.35,1.75c-.62.12-1.09.57-1.13,1.21l-.38,3.8c.95-.72,2.08-1.57,4.77-2.08,6.09-1.14,11.95,2.18,11.95,10.28,0,10.2-7.09,15.4-13.7,16.64-10.02,1.88-13.28-4.8-13.28-7.3,0-2.87,2.46-4.24,4.68-4.66,3.97-.74,4.72.98,5.24,2.25.38.88,1.37,1.61,3.02,1.3,3.17-.59,3.78-3.26,3.78-5.76,0-2.64-1.18-4.38-3.78-3.89-.76.14-1.89.44-2.88,1.41-1.23,1.19-2.13,2.04-4.25,2.43-1.13.21-4.87.77-4.44-3.08l1.46-13.93Z"/>
    <path class="cls-6" d="M511.67,225.52c0,7.5-6.29,14.74-14.08,16.2-7.75,1.45-14.08-3.4-14.08-10.92s6.35-14.75,14.08-16.2c7.75-1.45,14.08,3.37,14.08,10.92ZM499.91,221.17v-3.4c0-1.46-1.19-1.47-2.43-1.23-.98.18-2.11.71-2.11,2.08v3.4l-5.58,1.04c-.71.13-2.05.47-2.05,2.47s1.46,1.79,2.05,1.68l5.58-1.04v7.15l-6.62,1.24c-.89.17-2.08.62-2.08,2.48,0,2,1.46,1.79,2.08,1.67l17.73-3.32c1.37-.26,2.05-.99,2.05-2.53,0-2-1.57-1.71-2.05-1.62l-6.56,1.23v-7.15l5.64-1.06c.89-.17,2.08-.59,2.08-2.48,0-2.06-1.51-1.78-2.08-1.67l-5.64,1.06Z"/>
  </g>
  <g>
    <path class="cls-2" d="M403.8,229.72c-.95.18-4.39.82-4.39-3.41,0-3.37,2.22-4.65,4.39-5.06l18.9-3.54c2.98-.56,4.3,1.79,4.3,4.11,0,2.09-.38,2.67-4.82,9.28-3.69,5.52-7.89,15.91-8.27,23.13-.05,1.38-.19,3.77-5.01,4.67-3.26.61-5.05-.1-5.05-2.56s2.55-12.59,6.57-19.81c1.61-2.9,3.35-5.77,5.2-8.53.05-.1.19-.26.19-.35,0-.14-.09-.16-.43-.1l-11.57,2.17Z"/>
    <path class="cls-2" d="M444.24,214.73c.33-.79,1.37-2.31,3.07-2.62,2.17-.41,3.5.94,3.5,2.67,0,.5-.09.93-.24,1.27l-14.17,35.67c-.33.79-1.37,2.31-3.07,2.62-2.17.41-3.54-.93-3.54-2.61,0-.5.14-.98.28-1.33l14.17-35.67Z"/>
    <path class="cls-2" d="M453.26,217.41c.52-4.97,2.98-5.98,6.19-6.58l12.09-2.27c2.03-.38,4.44-.15,4.44,3.45s-2.36,4.63-4.44,5.02l-9.35,1.75c-.62.12-1.09.57-1.13,1.21l-.38,3.8c.95-.72,2.08-1.57,4.77-2.08,6.09-1.14,11.95,2.18,11.95,10.28,0,10.2-7.09,15.4-13.7,16.63-10.02,1.88-13.28-4.8-13.28-7.3,0-2.87,2.46-4.24,4.68-4.65,3.97-.74,4.72.98,5.24,2.25.38.88,1.37,1.61,3.02,1.3,3.17-.59,3.78-3.26,3.78-5.76,0-2.64-1.18-4.38-3.78-3.89-.76.14-1.89.44-2.88,1.41-1.23,1.19-2.13,2.04-4.25,2.43-1.13.21-4.87.78-4.44-3.08l1.46-13.93Z"/>
    <path class="cls-2" d="M511.67,219.98c0,7.5-6.29,14.74-14.08,16.2-7.75,1.45-14.08-3.4-14.08-10.92s6.35-14.75,14.08-16.2c7.75-1.45,14.08,3.37,14.08,10.92ZM499.91,215.63v-3.4c0-1.46-1.19-1.47-2.43-1.23-.98.18-2.11.71-2.11,2.08v3.4l-5.58,1.04c-.71.13-2.05.47-2.05,2.47s1.46,1.79,2.05,1.68l5.58-1.04v7.15l-6.62,1.24c-.89.17-2.08.62-2.08,2.48,0,2,1.46,1.79,2.08,1.67l17.73-3.32c1.37-.26,2.05-.99,2.05-2.53,0-2-1.57-1.71-2.05-1.62l-6.56,1.23v-7.15l5.64-1.06c.89-.17,2.08-.59,2.08-2.48,0-2.06-1.51-1.78-2.08-1.67l-5.64,1.06Z"/>
  </g>
  <path class="cls-3" d="M377.69,265.34l-38.52-92.57-99.9,20.06-77.8,15.62.03.08-97.41,19.56c-3.38.68-4.21,5.13-1.3,6.99l49.88,31.71c1.18.75,1.66,2.23,1.15,3.53l-17.97,45.68c-1.11,2.82,1.34,5.75,4.32,5.16l149.37-29.98-.03-.06,78.23-15.7-.02-.04,49.97-10.02Z"/>
  <g>
    <path class="cls-6" d="M139.62,231.8c10.62-2.61,21.43-5.07,31.68-6.99,3.75-.7,7.42-1.39,10.9-1.87,4.12-.51,5.4-.48,5.86,2.96.18,1.2.27,2.51.27,3.83,0,1.15-.09,2.31-.18,3.47-.37,3.33-1.56,4.44-5.95,5.26-2.84.53-9.06,1.61-14.01,2.54-4.94.93-9.98,1.87-14.93,2.88.09,4.13.28,8.33.55,12.51,2.47-.55,5.04-1.03,7.6-1.51,5.22-.98,10.62-1.99,16.39-2.72,4.3-.54,5.95-.32,6.69,2.1.27,1.18.46,2.47.46,3.88,0,.62,0,1.23-.09,1.96-.28,4.11-2.47,4.87-6.14,5.91-5.04,1.39-9.98,2.49-14.83,3.4-3.02.57-5.95,1.03-8.88,1.49.55,4.57,1.19,9.04,1.83,12.27.46,1.94.82,3.11.82,4.17,0,1.41-.73,2.78-3.39,3.9-2.47.99-5.31,1.88-7.97,2.37-3.66.69-4.76-.26-5.49-4.18-1.01-5.37-1.74-10.79-2.29-16.33l-.73.05c-2.75.16-4.67-.1-4.85-2.71-.09-.78-.09-1.48-.09-2.19,0-1.32.09-2.58.27-4.02.18-2.15,1.19-3.4,4.39-4.26-.27-4.09-.37-8.31-.46-12.44-2.75.51-3.57-.57-3.85-2.54-.09-.6-.09-2.45-.09-3.07,0-2.03.18-3.56.46-5.56.27-1.99,1.19-3.4,6.04-4.57Z"/>
    <path class="cls-6" d="M227.71,273.52c-4.03,3.75-8.7,6.39-13.92,7.37-11.72,2.19-18.86-4.23-18.86-14.82,0-15,13-29.17,26.1-31.62,2.66-.5,5.49-.5,8.06.08.18-2.24.92-2.99,2.56-3.3,2.01-.38,5.95-.59,8.88-.34,3.02.23,4.31.78,4.31,4.93,0,10.41-.55,22.95-1.92,33.97-.46,3.53-1.46,4.95-4.67,5.9-1.1.38-2.47.64-3.85.9-1.1.21-2.2.41-3.02.48-3.39.19-3.66-.99-3.66-3.55ZM229.08,246.8c-1.74-.38-3.66-.55-6.04-.1-7.42,1.39-11.54,9.22-11.54,13.89,0,4.41,2.84,6.7,7.97,5.74,3.02-.57,6.13-2.38,8.97-5.56.27-4.55.55-9.36.64-13.97Z"/>
    <path class="cls-6" d="M277.61,213.01c0,4.5-1.74,8.18-9.43,9.62-6.78,1.27-9.06-.24-9.06-6.95,0-5.65,2.47-8.84,9.06-10.08,6.78-1.27,9.43-.27,9.43,7.41ZM263.5,228.09c2.01-.82,4.85-1.53,7.42-2.01,1.1-.21,2.11-.39,3.02-.48,1.83-.26,2.01.33,2.01,3.15,0,12.61-.18,22.97-1.1,34.96-.27,3.67-.37,4.92-4.94,5.78-1.65.31-3.39.55-5.04.68-3.75.35-4.39-.94-4.58-3.82-.27-4.18-.37-8.31-.37-12.46,0-6.62.27-13.28.73-20.25.09-2.75.37-4.74,2.84-5.56Z"/>
    <path class="cls-6" d="M293.81,221.53c2.84-1.24,8.33-2.62,11.35-3.19,1.83-.34,2.29.45,2.29,1.87,0,.71-.09,1.87-.18,2.68,3.39-3.55,7.69-6.29,12.54-7.2,3.3-.62,5.04,2.23,5.68,5.02.64,2.61.64,6.14.64,8.52s-1.1,4.44-4.49,6.93c-1.56,1.09-4.49,2.78-5.95,3.06-2.11.39-3.21-1.43-3.21-3.46,0-1.24-.09-3.78-.46-5.21-1.74,1.12-2.93,2.05-4.94,4.01,0,12.7,1.37,22.5,1.37,24.36,0,2.03-.92,3.26-4.85,4.17-.82.24-1.92.45-3.02.65-1.1.21-2.11.39-2.93.46-3.75.53-4.49-.75-4.85-3.5-1.01-8.72-1.65-17.95-1.65-27.13,0-2.12,0-4.23.09-6.37.09-2.75.18-4.71,2.57-5.68Z"/>
  </g>
  <g>
    <path class="cls-2" d="M139.62,226.08c10.62-2.61,21.43-5.07,31.68-6.99,3.75-.7,7.42-1.39,10.9-1.87,4.12-.51,5.4-.48,5.86,2.96.18,1.2.27,2.51.27,3.83,0,1.15-.09,2.31-.18,3.47-.37,3.33-1.56,4.44-5.95,5.26-2.84.53-9.06,1.61-14.01,2.54-4.94.93-9.98,1.87-14.93,2.88.09,4.13.28,8.33.55,12.51,2.47-.55,5.04-1.03,7.6-1.51,5.22-.98,10.62-1.99,16.39-2.72,4.3-.54,5.95-.32,6.69,2.1.27,1.18.46,2.47.46,3.88,0,.62,0,1.23-.09,1.96-.28,4.11-2.47,4.87-6.14,5.91-5.04,1.39-9.98,2.49-14.83,3.4-3.02.57-5.95,1.03-8.88,1.49.55,4.57,1.19,9.04,1.83,12.27.46,1.94.82,3.11.82,4.17,0,1.41-.73,2.78-3.39,3.9-2.47.99-5.31,1.88-7.97,2.37-3.66.69-4.76-.26-5.49-4.18-1.01-5.37-1.74-10.79-2.29-16.33l-.73.05c-2.75.16-4.67-.1-4.85-2.71-.09-.78-.09-1.48-.09-2.19,0-1.32.09-2.58.27-4.02.18-2.15,1.19-3.4,4.39-4.26-.27-4.09-.37-8.31-.46-12.44-2.75.51-3.57-.57-3.85-2.54-.09-.6-.09-2.45-.09-3.07,0-2.03.18-3.56.46-5.56.27-1.99,1.19-3.4,6.04-4.57Z"/>
    <path class="cls-2" d="M227.71,267.8c-4.03,3.75-8.7,6.39-13.92,7.37-11.72,2.19-18.86-4.23-18.86-14.82,0-15,13-29.17,26.1-31.62,2.66-.5,5.49-.5,8.06.08.18-2.24.92-2.99,2.56-3.3,2.01-.38,5.95-.59,8.88-.34,3.02.23,4.31.78,4.31,4.93,0,10.41-.55,22.95-1.92,33.97-.46,3.53-1.46,4.95-4.67,5.9-1.1.38-2.47.64-3.85.9-1.1.21-2.2.41-3.02.48-3.39.19-3.66-.99-3.66-3.55ZM229.08,241.08c-1.74-.38-3.66-.55-6.04-.1-7.42,1.39-11.54,9.22-11.54,13.89,0,4.41,2.84,6.7,7.97,5.74,3.02-.57,6.13-2.38,8.97-5.56.27-4.55.55-9.36.64-13.97Z"/>
    <path class="cls-2" d="M277.61,207.29c0,4.5-1.74,8.18-9.43,9.62-6.78,1.27-9.06-.24-9.06-6.95,0-5.65,2.47-8.84,9.06-10.08,6.78-1.27,9.43-.27,9.43,7.41ZM263.5,222.37c2.01-.82,4.85-1.53,7.42-2.01,1.1-.21,2.11-.39,3.02-.48,1.83-.26,2.01.33,2.01,3.15,0,12.61-.18,22.97-1.1,34.96-.27,3.67-.37,4.92-4.94,5.78-1.65.31-3.39.55-5.04.68-3.75.35-4.39-.94-4.58-3.82-.27-4.18-.37-8.31-.37-12.46,0-6.62.27-13.28.73-20.25.09-2.75.37-4.74,2.84-5.56Z"/>
    <path class="cls-2" d="M293.81,215.81c2.84-1.24,8.33-2.62,11.35-3.19,1.83-.34,2.29.45,2.29,1.87,0,.71-.09,1.87-.18,2.68,3.39-3.55,7.69-6.29,12.54-7.2,3.3-.62,5.04,2.23,5.68,5.02.64,2.61.64,6.14.64,8.52s-1.1,4.44-4.49,6.93c-1.56,1.09-4.49,2.78-5.95,3.06-2.11.39-3.21-1.43-3.21-3.46,0-1.24-.09-3.78-.46-5.21-1.74,1.12-2.93,2.05-4.94,4.01,0,12.7,1.37,22.5,1.37,24.36,0,2.03-.92,3.26-4.85,4.17-.82.24-1.92.45-3.02.65-1.1.21-2.11.39-2.93.46-3.75.53-4.49-.75-4.85-3.5-1.01-8.72-1.65-17.95-1.65-27.13,0-2.12,0-4.23.09-6.37.09-2.75.18-4.71,2.57-5.68Z"/>
  </g>
</svg>