<?xml version="1.0" encoding="UTF-8"?>
<svg id="Layer_1" xmlns="http://www.w3.org/2000/svg" version="1.1" viewBox="0 0 683 168">
  <!-- Generator: Adobe Illustrator 29.0.0, SVG Export Plug-In . SVG Version: 2.1.0 Build 186)  -->
  <defs>
    <style>
      .st0 {
        fill: #df589a;
      }
    </style>
  </defs>
  <path class="st0" d="M639.8,167c-17.4,0-52.7-.5-70.1-.5s-17.4,1.2-34.8,1.2-17.4-.8-34.8-.8-17.4.1-34.8.1-17.4-.4-34.8-.4-17.4,1-34.8,1-17.4.3-34.8.3-17.4-1.9-34.8-1.9-17.4,1.9-34.8,1.9-23.2,0-34.8,0c-11.6,0-23.2,0-34.8,0-17.4,0-17.4-.9-34.8-.9s-17.4-.2-34.8-.2-17.4-.1-34.8-.1-57.1.8-74.5.8-14.4-6-19.2-16.4c-9.5-20.9-9.4-21-18.9-41.9-6.6-14.4-6.8-36.2-.2-50.6,9.5-20.9,10.2-19.8,19.7-40.7C29.3,7.6,35.8.6,43.1.6c17.4,0,57.1.9,74.5.9s17.4-.5,34.8-.5,17.4,0,34.8,0,17.4-.9,34.8-.9,17.4,1.9,34.8,1.9,17.4-1.4,34.8-1.4,17.4,1.1,34.8,1.1,17.4.2,34.8.2,17.4-.2,34.8-.2,17.4-.3,34.8-.3,17.4.5,34.8.5,17.4-1.7,34.8-1.7,17.4,1.5,34.8,1.5,17.4-1.4,34.8-1.4,52.7.1,70.1.1,14,7.1,18.7,17.4c9.5,20.9,10.2,19.8,19.7,40.7,6.6,14.4,6.2,36.3-.4,50.7-6.3,13.9-12.7,27.9-19,41.8-4.7,10.4-11.7,16.2-19,16.2h0Z"/>
</svg>