<?xml version="1.0" encoding="UTF-8"?>
<svg id="Layer_1" xmlns="http://www.w3.org/2000/svg" version="1.1" viewBox="0 0 840 227.5">
  <!-- Generator: Adobe Illustrator 29.0.0, SVG Export Plug-In . SVG Version: 2.1.0 Build 186)  -->
  <defs>
    <style>
      .st0 {
        fill: #fff;
      }
    </style>
  </defs>
  <path class="st0" d="M787,226.2c-21.4,0-64.8-.7-86.2-.7s-21.4,1.6-42.8,1.6-21.4-1-42.8-1-21.4.2-42.8.2-21.4-.5-42.8-.5-21.4,1.4-42.8,1.4-21.4.4-42.8.4-21.4-2.6-42.8-2.6-21.4,2.6-42.8,2.6-28.5,0-42.8,0c-21.4,0-21.4,0-42.8,0s-21.4-1.2-42.8-1.2-21.4-.3-42.8-.3-21.4-.2-42.8-.2-70.2,1.1-91.7,1.1-17.8-8.2-23.6-22.2c-11.7-28.3-11.6-28.5-23.3-56.8-8.1-19.6-8.3-49-.2-68.5,11.7-28.3,12.6-26.8,24.3-55.1C36,10.2,44,.9,53,.9c21.4,0,70.2,1.2,91.6,1.2s21.4-.7,42.8-.7,21.4-.1,42.8-.1,21.4-1.2,42.8-1.2,21.4,2.6,42.8,2.6,21.4-1.9,42.8-1.9,21.4,1.4,42.8,1.4,21.4.3,42.8.3,21.4-.3,42.8-.3,21.4-.4,42.8-.4,21.4.7,42.8.7,21.4-2.3,42.8-2.3,21.4,2,42.8,2,21.4-2,42.8-2,64.8.2,86.2.2,17.2,9.5,23,23.6c11.7,28.3,12.6,26.8,24.3,55.1,8.1,19.6,7.6,49.1-.5,68.6-7.8,18.9-15.6,37.7-23.4,56.6-5.8,14-14.4,21.9-23.4,21.9h0Z"/>
</svg>