<?xml version="1.0" encoding="UTF-8"?>
<svg id="Layer_1" data-name="Layer 1" xmlns="http://www.w3.org/2000/svg" viewBox="0 0 840.05 145.31">
  <defs>
    <style>
      .cls-1 {
        fill: #fff;
      }
    </style>
  </defs>
  <path class="cls-1" d="M786.97,144.47c-21.38,0-64.79-.43-86.18-.43-21.39,0-21.39,1.03-42.77,1.03-21.38,0-21.38-.65-42.77-.65-21.38,0-21.38.11-42.77.11-21.39,0-21.39-.32-42.77-.32-21.39,0-21.39.86-42.78.86-21.38,0-21.38.24-42.75.24-21.38,0-21.38-1.63-42.77-1.63-21.38,0-21.38,1.64-42.77,1.64q-21.39,0-42.77-.02c-21.39,0-21.39-.06-42.78-.06-21.4,0-21.4-.75-42.8-.75-21.39,0-21.39-.16-42.78-.16-21.41,0-21.41-.13-42.81-.13-21.41,0-70.24.7-91.65.7-9,0-17.76-5.23-23.57-14.19-11.7-18.07-11.59-18.19-23.29-36.26-8.09-12.49-8.31-31.27-.22-43.76,11.7-18.07,12.57-17.11,24.28-35.18C36.04,6.54,44.05.56,53.05.56c21.38,0,70.22.77,91.6.77s21.39-.46,42.77-.46,21.38-.08,42.77-.08,21.38-.8,42.77-.8,21.39,1.67,42.77,1.67,21.39-1.21,42.78-1.21,21.38.91,42.75.91,21.38.18,42.77.18,21.38-.17,42.77-.17,21.39-.22,42.77-.22,21.39.44,42.78.44,21.4-1.49,42.8-1.49,21.39,1.26,42.78,1.26,21.41-1.25,42.81-1.25,64.82.12,86.22.12c9,0,17.19,6.1,23,15.06,11.7,18.07,12.57,17.11,24.27,35.18,8.09,12.49,7.57,31.35-.52,43.84q-11.7,18.07-23.4,36.15c-5.81,8.97-14.36,14-23.36,14Z"/>
</svg>