<svg xmlns="http://www.w3.org/2000/svg" xmlns:xlink="http://www.w3.org/1999/xlink" width="319.981" height="42.971" viewBox="0 0 319.981 42.971">
  <defs>
    <clipPath id="clip-path">
      <rect id="Rectangle_161" data-name="Rectangle 161" width="142.755" height="42.971" transform="translate(0.001 0.002)" fill="none"/>
    </clipPath>
  </defs>
  <g id="Group_650" data-name="Group 650" transform="translate(-38.019 -19)">
    <g id="Group_431" data-name="Group 431" transform="translate(38.018 18.587)">
      <path id="Path_387" data-name="Path 387" d="M181.393,27.578c.976,1.183,2.159,2.188,6.92,3.371,1.034.266,2.04.592,2.04,2.011a2.455,2.455,0,0,1-2.336,2.6c-1.834,0-8.368-2.189-11.148-6.978a15.373,15.373,0,0,1-5.085,4.612c-1.656.947-4.406,2.336-6.15,2.336s-2.307-1.774-2.307-2.661a1.714,1.714,0,0,1,.533-1.33c.473-.444.68-.5,3.637-1.331a12.208,12.208,0,0,0,4.671-2.632h-7.3c-1.626,0-2.158-.739-2.158-2.218a1.857,1.857,0,0,1,2.158-1.981h.946v-3.1c0-2.838,1.331-3.578,3.578-3.578h5.2c0-1.538.3-2.4,2.365-2.4,2.011,0,2.011,1.538,2.011,2.4h5.174c2.218,0,3.578.71,3.578,3.578v3.1h.917c1.626,0,2.158.739,2.158,2.248,0,1.893-1.508,1.951-2.158,1.951Zm-.739-17.859V9.01c0-1.479,1.449-1.6,2.041-1.6,1.064,0,2.395.118,2.395,1.6v.709h3.577c.651,0,2.159.059,2.159,1.952,0,1.508-.532,2.247-2.159,2.247H185.09v.65c0,1.36-.976,1.745-2.13,1.745-1.33,0-2.306-.385-2.306-1.745v-.65h-7.835v.65c0,1.39-1.183,1.745-2.07,1.745s-2.247-.237-2.247-1.745v-.65h-3.608a1.848,1.848,0,0,1-2.158-1.981c0-1.479.5-2.218,2.158-2.218H168.5V9.01c0-1.479,1.419-1.6,1.981-1.6.917,0,2.336.089,2.336,1.6v.709ZM174.593,20.57h-3.637a.74.74,0,0,0-.828.8v2.01h4.287a8.146,8.146,0,0,0,.178-1.833Zm4.376.681a17.929,17.929,0,0,1-.148,2.128h4.435v-2.01a.718.718,0,0,0-.8-.8h-3.489Z" fill="#fff"/>
      <path id="Path_388" data-name="Path 388" d="M203.178,12.616a1.541,1.541,0,0,1,1.8,1.686c0,1.271-.414,1.922-1.8,1.922h-8.19a1.592,1.592,0,0,1-1.833-1.8c0-1.6.946-1.8,1.833-1.8Zm-.827-4.228a1.547,1.547,0,0,1,1.8,1.656c0,1.508-1.035,1.656-1.8,1.656H195.7c-.562,0-1.8-.03-1.8-1.626,0-1.479.976-1.686,1.8-1.686Zm-.178,8.723a1.568,1.568,0,0,1,1.833,1.744c0,1.568-1,1.744-1.833,1.744h-6.446a1.577,1.577,0,0,1-1.833-1.744c0-1.6,1.094-1.744,1.833-1.744Zm0,4.405a1.578,1.578,0,0,1,1.833,1.715c0,1.745-1.3,1.745-1.951,1.745h-6.328a1.578,1.578,0,0,1-1.833-1.715c0-1.656,1.183-1.745,1.833-1.745Zm1.8,10.083c0,2.78-.473,3.37-3.311,3.37h-3.312c-2.809,0-3.312-.561-3.312-3.37V29.233c0-2.868.533-3.37,3.341-3.37h3.223c2.78,0,3.371.474,3.371,3.37Zm-3.607-2.01a.483.483,0,0,0-.533-.533H198.6a.492.492,0,0,0-.562.533v1.566a.514.514,0,0,0,.562.563h1.241a.506.506,0,0,0,.533-.563Zm15.464-16.145c2.868,0,3.518.739,3.518,3.549v2.128h.444a1.526,1.526,0,0,1,1.626,1.745c0,1.745-1.064,1.862-1.833,1.862H206.017a1.6,1.6,0,0,1-1.863-1.715c0-1.477.71-1.892,1.863-1.892h1.6a24.331,24.331,0,0,0,.621-2.424h-1.006a1.546,1.546,0,0,1-1.8-1.6,1.551,1.551,0,0,1,1.8-1.656h1.745c.118-.561.148-.887.236-1.508H206.7a1.615,1.615,0,0,1-1.863-1.774,1.615,1.615,0,0,1,1.863-1.8h12.419a1.615,1.615,0,0,1,1.862,1.774,1.614,1.614,0,0,1-1.862,1.8h-5.589c-.118.68-.148.74-.295,1.508ZM220,31.215c0,3.134-.592,3.754-3.726,3.754h-6.919c-3.134,0-3.755-.59-3.755-3.754V27.9c0-3.135.592-3.726,3.755-3.726h6.919c3.105,0,3.726.562,3.726,3.726Zm-4.228-2.662a.72.72,0,0,0-.71-.739h-4.524a.725.725,0,0,0-.739.739v1.982a.748.748,0,0,0,.739.739h4.524a.717.717,0,0,0,.71-.739ZM212.522,16.7c-.118.591-.3,1.3-.591,2.424h3.134V17.406a.665.665,0,0,0-.71-.709Z" fill="#fff"/>
      <path id="Path_389" data-name="Path 389" d="M181.393,27.578c.976,1.183,2.159,2.188,6.92,3.371,1.034.266,2.04.592,2.04,2.011a2.455,2.455,0,0,1-2.336,2.6c-1.834,0-8.368-2.189-11.148-6.978a15.373,15.373,0,0,1-5.085,4.612c-1.656.947-4.406,2.336-6.15,2.336s-2.307-1.774-2.307-2.661a1.714,1.714,0,0,1,.533-1.33c.473-.444.68-.5,3.637-1.331a12.208,12.208,0,0,0,4.671-2.632h-7.3c-1.626,0-2.158-.739-2.158-2.218a1.857,1.857,0,0,1,2.158-1.981h.946v-3.1c0-2.838,1.331-3.578,3.578-3.578h5.2c0-1.538.3-2.4,2.365-2.4,2.011,0,2.011,1.538,2.011,2.4h5.174c2.218,0,3.578.71,3.578,3.578v3.1h.917c1.626,0,2.158.739,2.158,2.248,0,1.893-1.508,1.951-2.158,1.951Zm-.739-17.859V9.01c0-1.479,1.449-1.6,2.041-1.6,1.064,0,2.395.118,2.395,1.6v.709h3.577c.651,0,2.159.059,2.159,1.952,0,1.508-.532,2.247-2.159,2.247H185.09v.65c0,1.36-.976,1.745-2.13,1.745-1.33,0-2.306-.385-2.306-1.745v-.65h-7.835v.65c0,1.39-1.183,1.745-2.07,1.745s-2.247-.237-2.247-1.745v-.65h-3.608a1.848,1.848,0,0,1-2.158-1.981c0-1.479.5-2.218,2.158-2.218H168.5V9.01c0-1.479,1.419-1.6,1.981-1.6.917,0,2.336.089,2.336,1.6v.709ZM174.593,20.57h-3.637a.74.74,0,0,0-.828.8v2.01h4.287a8.146,8.146,0,0,0,.178-1.833Zm4.376.681a17.929,17.929,0,0,1-.148,2.128h4.435v-2.01a.718.718,0,0,0-.8-.8h-3.489Z" fill="#fff"/>
      <path id="Path_390" data-name="Path 390" d="M203.178,12.616a1.541,1.541,0,0,1,1.8,1.686c0,1.271-.414,1.922-1.8,1.922h-8.19a1.592,1.592,0,0,1-1.833-1.8c0-1.6.946-1.8,1.833-1.8Zm-.827-4.228a1.547,1.547,0,0,1,1.8,1.656c0,1.508-1.035,1.656-1.8,1.656H195.7c-.562,0-1.8-.03-1.8-1.626,0-1.479.976-1.686,1.8-1.686Zm-.178,8.723a1.568,1.568,0,0,1,1.833,1.744c0,1.568-1,1.744-1.833,1.744h-6.446a1.577,1.577,0,0,1-1.833-1.744c0-1.6,1.094-1.744,1.833-1.744Zm0,4.405a1.578,1.578,0,0,1,1.833,1.715c0,1.745-1.3,1.745-1.951,1.745h-6.328a1.578,1.578,0,0,1-1.833-1.715c0-1.656,1.183-1.745,1.833-1.745Zm1.8,10.083c0,2.78-.473,3.37-3.311,3.37h-3.312c-2.809,0-3.312-.561-3.312-3.37V29.233c0-2.868.533-3.37,3.341-3.37h3.223c2.78,0,3.371.474,3.371,3.37Zm-3.607-2.01a.483.483,0,0,0-.533-.533H198.6a.492.492,0,0,0-.562.533v1.566a.514.514,0,0,0,.562.563h1.241a.506.506,0,0,0,.533-.563Zm15.464-16.145c2.868,0,3.518.739,3.518,3.549v2.128h.444a1.526,1.526,0,0,1,1.626,1.745c0,1.745-1.064,1.862-1.833,1.862H206.017a1.6,1.6,0,0,1-1.863-1.715c0-1.477.71-1.892,1.863-1.892h1.6a24.331,24.331,0,0,0,.621-2.424h-1.006a1.546,1.546,0,0,1-1.8-1.6,1.551,1.551,0,0,1,1.8-1.656h1.745c.118-.561.148-.887.236-1.508H206.7a1.615,1.615,0,0,1-1.863-1.774,1.615,1.615,0,0,1,1.863-1.8h12.419a1.615,1.615,0,0,1,1.862,1.774,1.614,1.614,0,0,1-1.862,1.8h-5.589c-.118.68-.148.74-.295,1.508ZM220,31.215c0,3.134-.592,3.754-3.726,3.754h-6.919c-3.134,0-3.755-.59-3.755-3.754V27.9c0-3.135.592-3.726,3.755-3.726h6.919c3.105,0,3.726.562,3.726,3.726Zm-4.228-2.662a.72.72,0,0,0-.71-.739h-4.524a.725.725,0,0,0-.739.739v1.982a.748.748,0,0,0,.739.739h4.524a.717.717,0,0,0,.71-.739ZM212.522,16.7c-.118.591-.3,1.3-.591,2.424h3.134V17.406a.665.665,0,0,0-.71-.709Z" fill="#fff"/>
      <path id="Path_391" data-name="Path 391" d="M242.6,19.9a1.438,1.438,0,0,1,1.648,1.57,1.434,1.434,0,0,1-1.648,1.6h-6.668v6.642c0,1.055-.488,1.647-1.544,1.647-.721,0-1.6-.231-1.6-1.647V23.07H226.12a1.439,1.439,0,0,1-1.647-1.57c0-1.056.515-1.6,1.647-1.6h6.668V13.236c0-1.056.515-1.621,1.544-1.621.67,0,1.6.18,1.6,1.621V19.9Z" fill="#fff"/>
      <path id="Path_392" data-name="Path 392" d="M252.441,9.7c-.056-.141-.112-.294-.2-.477a1.682,1.682,0,0,1-.2-.672c0-.814,1.094-.912,1.374-.912.393,0,.813.057,1.234,1.234a2.145,2.145,0,0,1,.168.827h1.093a9.232,9.232,0,0,0,.49-1.066c.225-.574.393-.911,1.094-.911.477,0,1.346.225,1.346,1.01,0,.266-.085.406-.421.981.757.126,1.318.449,1.318,1.738v.925c0,.925-.463,1.135-1.15,1.135a1.807,1.807,0,0,1-.547-.07,1.458,1.458,0,0,1-.84,1.22,11.52,11.52,0,0,1-1.71.911h3.532a.974.974,0,0,1,1.121,1.037.976.976,0,0,1-1.121,1.066h-4.36v1.569c0,1.738-.827,1.837-2.537,1.837a11.962,11.962,0,0,1-1.723-.071c-.575-.14-.687-.813-.687-1.122a.96.96,0,0,1,1.079-1.05c.154,0,.8.013.939.013.42-.013.449-.168.449-.56v-.616H247.8a.98.98,0,0,1-1.135-1.052c0-.869.547-1.051,1.135-1.051h4.388c0-.2,0-.477.532-.631.2-.056.827-.322.827-.463,0-.112-.1-.112-.14-.112h-3.742c-.309,0-.884,0-.953-.91a1.562,1.562,0,0,1-.449.055c-.771,0-1.205-.252-1.205-1.107v-.953c0-1.22.49-1.668,1.471-1.738-.028-.056-.168-.294-.2-.351a1.434,1.434,0,0,1-.238-.673c0-.546.645-.953,1.345-.953.421,0,.757.085,1.22,1.065a2.83,2.83,0,0,1,.294.9Zm-3.084,2.7a1.5,1.5,0,0,1,.337-.056h6.966a3.577,3.577,0,0,1,.771.056v-.477a.192.192,0,0,0-.211-.21h-7.638a.2.2,0,0,0-.225.21Z" fill="#fff"/>
      <path id="Path_393" data-name="Path 393" d="M278.356,8.434a.84.84,0,1,1,0,1.668H277.5c-.084.224-.14.406-.225.6h1.879c.224,0,.925,0,.925.786,0,.827-.631.84-.925.84h-11.55a.821.821,0,1,1,0-1.626h1.962c-.056-.265-.1-.406-.154-.6H268.4a.8.8,0,0,1-.925-.827.8.8,0,0,1,.925-.841h3.8c0-.364.1-.869,1.08-.869.869,0,1.289.182,1.289.869ZM274.5,17.292h4.051c.364,0,.743.071.743.673,0,.532-.253.7-.743.7H274.5V19h4.654c.252,0,.925,0,.925.814s-.6.84-.925.84h-11.55a.806.806,0,0,1-.939-.827c0-.812.673-.827.939-.827h4.668v-.336h-4.051c-.211,0-.743,0-.743-.644,0-.477.168-.73.743-.73h4.051v-.336h-2.635c-1.556,0-1.837-.266-1.837-1.837V14.5c0-1.555.266-1.836,1.837-1.836h7.512c1.556,0,1.836.266,1.836,1.836v.616c0,1.557-.266,1.837-1.836,1.837H274.5Zm-2.228-3.013V13.83h-1.921a.2.2,0,0,0-.224.225v.224Zm0,1.065h-2.145v.238a.206.206,0,0,0,.224.225h1.921Zm-.407-5.228c.07.239.084.281.182.588h2.706a5.759,5.759,0,0,0,.182-.588Zm2.635,4.163h2.173v-.224a.2.2,0,0,0-.225-.225H274.5Zm0,1.065v.463h1.948a.2.2,0,0,0,.225-.225v-.238Z" fill="#fff"/>
      <path id="Path_394" data-name="Path 394" d="M290.017,19.971a1.108,1.108,0,1,1-2.215,0V15.12a1.3,1.3,0,0,1-1.416-1.373,1.971,1.971,0,0,1,.491-1.22,11.027,11.027,0,0,0,1.514-3.854c.1-.477.238-.953,1.065-.953.448,0,1.219.126,1.219.939a11.948,11.948,0,0,1-.658,2.846Zm1.373-4.051a.972.972,0,0,1-1.121-1.01c0-.8.378-1.107,1.121-1.107h2.621V13.06H292.75c-1.107,0-1.752-.379-1.752-1.738v-1.5c0-1.359.645-1.752,1.752-1.752h4.779c1.108,0,1.739.393,1.739,1.752v1.5c0,1.359-.645,1.738-1.739,1.738H296.2V13.8H298.8a.976.976,0,0,1,1.135,1.009c0,.841-.42,1.108-1.135,1.108h-1.542a12.035,12.035,0,0,0,2.243,2.438,1,1,0,0,1,.434.785,1.344,1.344,0,0,1-1.219,1.289c-.434,0-.673-.209-1.234-.869a11.129,11.129,0,0,1-1.289-1.794v2.187a.97.97,0,0,1-1.037,1.122c-.813,0-1.15-.337-1.15-1.122V17.868A13.95,13.95,0,0,1,292.077,20a1.25,1.25,0,0,1-.841.407,1.287,1.287,0,0,1-1.191-1.29c0-.462.28-.7.714-1.009a8.426,8.426,0,0,0,2.271-2.186Zm5.579-5.593a.3.3,0,0,0-.337-.337h-3.013a.3.3,0,0,0-.337.337v.519a.3.3,0,0,0,.337.335h3.013a.3.3,0,0,0,.337-.335Z" fill="#fff"/>
      <path id="Path_395" data-name="Path 395" d="M316.814,13.3a2.213,2.213,0,0,1,1.009.182c-.182-.14-.224-.168-.9-.744-.462.057-1.219.127-3.125.239-.884.043-5.593.239-5.817.239-.785,0-1.108-.267-1.108-1.038,0-.687.337-.91.995-.939.225-.014,1.262-.014,1.5-.014.041-.056.265-.364.546-.841h-2.439c-.7,0-.953-.294-.953-1.009a.816.816,0,0,1,.953-.9h4.528c-.043-.658.35-.869,1.275-.869.967,0,1.191.28,1.191.869h4.556c.7,0,.953.3.953,1.01a.82.82,0,0,1-.953.9h-1.57c2.046,1.317,2.173,1.668,2.173,2.032a1.315,1.315,0,0,1-1.234,1.234,1.045,1.045,0,0,1-.462-.112,1.577,1.577,0,0,1,.63,1.514v4.261a1.683,1.683,0,0,1-.589,1.485c-.238.169-.434.281-2.172.281-1.444,0-2.131,0-2.131-1.093a.884.884,0,0,1,1.01-.954c.07,0,1.121.029,1.177.029.21,0,.35-.015.35-.253v-.252H310.3V19.97c0,.715-.28,1.135-1.247,1.135a1,1,0,0,1-1.121-1.135V15.05c0-1.374.645-1.752,1.752-1.752Zm-6.518,2.06h5.915v-.239a.2.2,0,0,0-.224-.21h-5.481a.192.192,0,0,0-.21.21Zm5.915,1.387H310.3v.448h5.915ZM312.5,10.382c-.084.126-.49.7-.575.813.029,0,1.612-.028,2.986-.084a.731.731,0,0,1-.07-.323,1.119,1.119,0,0,1,.084-.406Z" fill="#fff"/>
      <path id="Path_396" data-name="Path 396" d="M247.773,34.322a1.126,1.126,0,0,1-1.093-1.248.928.928,0,0,1,.855-.981c.547-.855.729-1.136,1.472-2.369-.505-.574-.73-.827-1.388-1.5-.715-.742-.9-.967-.9-1.443a1.115,1.115,0,0,1,.967-1.2.637.637,0,0,1,.28.069c.393-.8.687-1.541.939-2.158.379-.911.6-1.3,1.22-1.3a1.207,1.207,0,0,1,1.261,1.136c0,.715-1.275,2.9-1.794,3.8.127.14.21.224.547.6.238-.463.6-1.234.855-1.7a.933.933,0,0,1,.883-.575,1.419,1.419,0,0,1,.561.127c.126-.589.448-.856,1.177-.856h.518v-1.5c0-.42.071-1.135,1.038-1.135.813,0,1.219.252,1.219,1.135v1.5h1.164c1.2,0,2.186,0,2.186,1.794a60.558,60.558,0,0,1-.252,6.378c-.252,2.368-.771,2.621-2.93,2.621a4.227,4.227,0,0,1-.967-.084,1.145,1.145,0,0,1-.813-1.191c0-.673.365-1.192.982-1.192.126,0,.7.042.826.042.449,0,.589-.07.7-1.416.085-.924.126-3.378.126-4.373,0-.28-.1-.28-.35-.28h-.687c-.084,4.457-1.556,6.532-2.144,7.316-.8,1.038-1.094,1.122-1.472,1.122a1.234,1.234,0,0,1-1.318-1.107c0-.351.113-.449.421-.869-1.808.448-3.841.841-4.093.841m2.341-2.621c.49-.071.995-.168,1.359-.239-.084-.364-.266-1.149-.266-1.275a1.221,1.221,0,0,1,.014-.225c-.561.9-.659,1.037-1.107,1.739m3.5-4.682a1.619,1.619,0,0,1-.687-.126,26.851,26.851,0,0,1-1.415,2.593,1.176,1.176,0,0,1,.784-.28c.7,0,.828.364,1.178,1.793a11.926,11.926,0,0,0,.658-3.98Z" fill="#fff"/>
      <path id="Path_397" data-name="Path 397" d="M262.77,33.1a3.038,3.038,0,0,0,2.341-2.1c.336-1.065.35-1.079.5-1.233a1.17,1.17,0,0,1,.743-.224,1.677,1.677,0,0,1,.953.28.734.734,0,0,1,.28.631,6.3,6.3,0,0,1-1.261,3.2,4.812,4.812,0,0,1-3.28,1.849c-1.051,0-1.163-1.134-1.163-1.289,0-.63.21-.882.883-1.107m2.158-4.3a1,1,0,0,1-1.121,1.15c-.967,0-1.261-.393-1.261-1.15V23.262a1,1,0,0,1,1.107-1.135c.995,0,1.275.407,1.275,1.135Zm9.629-1.107c0,1.374-.644,1.752-1.751,1.752h-5.032c-1.107,0-1.752-.378-1.752-1.752V24.244c0-1.36.645-1.739,1.752-1.739h5.032c1.107,0,1.751.379,1.751,1.739Zm-6.209-2.621h3.911v-.435a.192.192,0,0,0-.21-.21h-3.49a.192.192,0,0,0-.211.21Zm0,1.765v.477a.192.192,0,0,0,.211.211h3.49a.192.192,0,0,0,.21-.211v-.477Zm2.958,5.972c0,.336.2.336.42.336h.715c.449,0,.449-.21.491-1.051.014-.491.042-1.149,1.009-1.149,1.2,0,1.2.77,1.2,1.275a6.7,6.7,0,0,1-.378,2.439c-.365.714-.659.743-3.07.743-1.752,0-2.733,0-2.733-1.767V30.677a1,1,0,0,1,1.107-1.135c.981,0,1.234.435,1.234,1.135Z" fill="#fff"/>
      <path id="Path_398" data-name="Path 398" d="M287.718,24.328c1.43,0,1.542.855,1.542,1.388a10.268,10.268,0,0,1-3.7,7.036,12.761,12.761,0,0,1-5.817,2.285,1.211,1.211,0,0,1-1.192-1.317c0-.8.421-.9,1.318-1.094,2.089-.462,4.6-1.22,5.985-4.079a7.369,7.369,0,0,0,.6-1.752c0-.2-.113-.2-.407-.2h-3.7a12.716,12.716,0,0,1-2.243,2.256,1.719,1.719,0,0,1-1.037.421,1.287,1.287,0,0,1-1.248-1.248c0-.462.084-.518,1.108-1.317a9.74,9.74,0,0,0,2.481-3.154c.336-.659.547-1.051,1.3-1.051.491,0,1.36.253,1.36.939a1.8,1.8,0,0,1-.281.883Z" fill="#fff"/>
      <path id="Path_399" data-name="Path 399" d="M293.856,28.855a1.135,1.135,0,1,1,0-2.27h9.265c.687,0,1.416.21,1.416,1.317a7.56,7.56,0,0,1-3.8,5.859A12.011,12.011,0,0,1,296,35.037a1.132,1.132,0,0,1-.967-.393,1.525,1.525,0,0,1-.294-.9.957.957,0,0,1,.981-1.024c2.228-.294,4.345-.574,5.55-2.564a3.326,3.326,0,0,0,.463-1.093c0-.183-.1-.211-.323-.211Zm8.8-5.747a1.013,1.013,0,0,1,1.135,1.136c0,1.107-.757,1.163-1.135,1.163h-7.737a1.013,1.013,0,0,1-1.136-1.135c0-1.121.8-1.164,1.136-1.164Z" fill="#fff"/>
      <path id="Path_400" data-name="Path 400" d="M309.525,25.435a1.185,1.185,0,1,1,0-2.369h6.728c.575,0,1.724.042,1.724,1.374a11.2,11.2,0,0,1-2.145,4.808,34.826,34.826,0,0,1,3.28,2.634c.533.477.827.8.827,1.346a1.44,1.44,0,0,1-1.43,1.4,1.487,1.487,0,0,1-1.163-.687,36.3,36.3,0,0,0-2.958-2.915c-1.6,1.738-4.3,3.742-5.34,3.742a1.326,1.326,0,0,1-1.191-1.359c0-.561.252-.7,1.135-1.192a12.524,12.524,0,0,0,5.972-6.63c0-.154-.155-.154-.295-.154Z" fill="#fff"/>
    </g>
    <g id="Group_432" data-name="Group 432" transform="translate(38.018 18.998)">
      <g id="Group_234" data-name="Group 234" clip-path="url(#clip-path)">
        <path id="Path_313" data-name="Path 313" d="M67.16,6.839a2.052,2.052,0,0,0-.018.653c.028.034.113.312.143.384a1.778,1.778,0,0,0,.428.621,2.318,2.318,0,0,0,.28.228l.027.014c.034.013.027.007.047.031a1.417,1.417,0,0,1,.181.06,1.591,1.591,0,0,0,.206.049,2.975,2.975,0,0,0,.458.024c.023-.018.026-.013.063-.018a.383.383,0,0,0,.2-.094.389.389,0,0,0,.126-.175c.138-.309-.079-.285-.14-.379-.021-.03-.065-.152-.089-.2a1.209,1.209,0,0,0-.263-.341c-.058-.054-.087-.093-.152-.148-.034-.026-.04-.035-.077-.068s-.051-.041-.079-.067a3.835,3.835,0,0,0-.678-.514,1.025,1.025,0,0,0-.247-.034c-.058-.03-.057-.1-.192-.1-.108,0-.156.054-.222.077" fill="#fff" fill-rule="evenodd"/>
        <path id="Path_314" data-name="Path 314" d="M67.347,6.125c.046.024.021.047.051.115.02.046.043.057.085.082.068.041.228.276.462.128.179-.112.088-.09.194-.152a1.037,1.037,0,0,0,.386-.3c.271-.327.185-.36.4-.629.047-.06.1-.171.146-.2a.759.759,0,0,0,.109-.058,1.125,1.125,0,0,0,.083-.1c.153-.161.186-.3.408-.178.093.054.307.237.473.04a.3.3,0,0,0,.086-.255l-.008-.109a2.478,2.478,0,0,0-1.034,0,2.887,2.887,0,0,0-1.28.729c-.026.028-.042.048-.067.077a2.614,2.614,0,0,0-.406.6c-.036.072-.054.139-.086.206" fill="#fff" fill-rule="evenodd"/>
        <path id="Path_315" data-name="Path 315" d="M70.338,9.575a2.219,2.219,0,0,1-1.133-.211,7.016,7.016,0,0,1-.678-.338,1.506,1.506,0,0,0-.227-.119c-.036-.011-.006,0-.034-.016l-.021-.021c.039,0,.035,0,.058.02a1.116,1.116,0,0,0,.6,0l0-.005a3.041,3.041,0,0,1-.454-.025,1.46,1.46,0,0,1-.205-.048,1.422,1.422,0,0,0-.178-.059c-.013.008-.042.033-.04,0A.061.061,0,0,1,68,8.738s-.007,0-.008-.006-.006,0-.009-.007a1.814,1.814,0,0,1-.462-.379,1.379,1.379,0,0,1-.184-.234c-.027-.046-.122-.263-.141-.277a2.4,2.4,0,0,0,.423.867,2.232,2.232,0,0,0,.616.662,2.674,2.674,0,0,0,.979.315,2.415,2.415,0,0,0,1.125-.1" fill="#fff" fill-rule="evenodd"/>
        <path id="Path_316" data-name="Path 316" d="M67.171,6.183c.024-.021.162-.34.2-.4a2.746,2.746,0,0,1,1.688-1.361,2.69,2.69,0,0,1,1.091-.052c-.049-.13-.308-.189-.439-.209a2.247,2.247,0,0,0-1.855.734,2.4,2.4,0,0,0-.293.364,3.228,3.228,0,0,0-.388.925" fill="#fff" fill-rule="evenodd"/>
        <path id="Path_317" data-name="Path 317" d="M71.278,4.992l.008,0c-.022-.034-.014-.018-.045-.043a.121.121,0,0,0-.057-.037.142.142,0,0,0,.039.044.285.285,0,0,1,.055.039" fill="#fff" fill-rule="evenodd"/>
        <path id="Path_318" data-name="Path 318" d="M70.553,4.809c-.042.071-.11.133-.16.2-.112.153-.094.225-.245.329a.494.494,0,0,0-.1.091c-.158.162-.03.064-.233.149a1.625,1.625,0,0,0-.532.413.982.982,0,0,0-.122.069c-.043.034-.041.062-.079.112s-.062.044-.092.1a.933.933,0,0,0,.081.613c.048.086.093.151.141.242s.1.12.2.181c.295.175.318.054.445-.162.037-.063.054-.047.1-.087.116-.094.188-.282.247-.323a.669.669,0,0,0,.256.147,4.322,4.322,0,0,0-.116.454c-.024.181,0,.365-.006.551-.232-.026-.317-.087-.494.215-.028.048-.1.107-.173.2a.658.658,0,0,0-.113.269c-.111.537.314.769.773.541a2.637,2.637,0,0,0,.347-.215c.157-.139.144-.167.349-.225.111-.031.148-.1.271-.108a.55.55,0,0,0,.484-.273,1.285,1.285,0,0,0,.148-.235,1.306,1.306,0,0,1,.112-.27,1.765,1.765,0,0,0,.129-.837A3.243,3.243,0,0,0,71.711,5.5a2.207,2.207,0,0,0-.433-.511.226.226,0,0,0-.055-.039.154.154,0,0,1-.039-.044L71.013,4.8a.937.937,0,0,0-.183-.086c-.046.016-.094.023-.141.039s-.088.037-.136.052" fill="#fff" fill-rule="evenodd"/>
        <path id="Path_319" data-name="Path 319" d="M106.282,10.711h0a2.382,2.382,0,0,1,2.39,2.375v11.36a7.738,7.738,0,0,0,.548,3.366q.852,1.88,3.713,1.879,2.846,0,3.7-1.879a7.723,7.723,0,0,0,.548-3.366V13.086a2.39,2.39,0,0,1,4.78,0V24.457a11.455,11.455,0,0,1-1.113,5.553q-2.073,3.642-7.913,3.64T105,30.01a11.466,11.466,0,0,1-1.113-5.553V13.086a2.382,2.382,0,0,1,2.39-2.375" fill="#fff"/>
        <path id="Path_320" data-name="Path 320" d="M140.751,23.525a8.748,8.748,0,0,1-5.724,1.661h-2.383a2.362,2.362,0,0,0-2.37,2.354v3.446a2.369,2.369,0,0,1-4.738,0V13.018a2.36,2.36,0,0,1,2.369-2.353h7.431a7.946,7.946,0,0,1,5.4,1.754q2.015,1.752,2.015,5.43,0,4.014-2,5.676m-3.64-8.168a3.857,3.857,0,0,0-2.539-.754h-1.928a2.362,2.362,0,0,0-2.37,2.354v1.968a2.362,2.362,0,0,0,2.37,2.354h1.928a3.66,3.66,0,0,0,2.539-.816,3.312,3.312,0,0,0,.906-2.584,3.112,3.112,0,0,0-.906-2.522" fill="#fff"/>
        <path id="Path_321" data-name="Path 321" d="M60.629,14.162a85.946,85.946,0,0,0-5.6,8.483l-.6,1.162-.06.088.03.3a1.455,1.455,0,0,1,.3.031c.219.019.519.049.9.088q.508.06.659.06c.759.14,1.523.312,2.292.521s1.384.387,1.843.536,1.139.386,2.038.713,1.548.551,1.948.67a.8.8,0,0,1,.434.388.7.7,0,0,1,.03.566.736.736,0,0,1-.375.431.751.751,0,0,1-.569.045l-1.977-.715-1.978-.684q-.66-.239-1.753-.522t-2.173-.461a3.367,3.367,0,0,0-.539-.059c-.4-.039-.709-.07-.929-.089l-.09-.03q.21,4.227.27,6.162a.787.787,0,0,1-.21.535.654.654,0,0,1-.509.238.8.8,0,0,1-.54-.208.647.647,0,0,1-.24-.506q-.06-1.875-.3-6.578a1.3,1.3,0,0,1-.3-.268.643.643,0,0,1-.15-.506.56.56,0,0,1,.03-.179,1.124,1.124,0,0,0,.06-.148,1.509,1.509,0,0,1,.12-.3l.18-.358q-.09-1.964-.15-3.453-.03-1.1.06-5.09a37.956,37.956,0,0,0-.15-4.941.754.754,0,0,1,.165-.551.688.688,0,0,1,.495-.282.764.764,0,0,1,.554.163.688.688,0,0,1,.284.491,34.994,34.994,0,0,1,.15,5.15q-.09,3.93-.06,5l.03.922q1.769-3.036,5.184-7.709a.71.71,0,0,1,.48-.283.743.743,0,0,1,.554.134.687.687,0,0,1,.3.477.776.776,0,0,1-.135.565" fill="#fff"/>
        <path id="Path_322" data-name="Path 322" d="M70.457,12.049q.718,7.739.719,20.687a.711.711,0,0,1-.225.522.727.727,0,0,1-1.048,0,.711.711,0,0,1-.225-.522q0-12.977-.719-20.568a.7.7,0,0,1,.165-.536.72.72,0,0,1,.509-.268.746.746,0,0,1,.554.164.723.723,0,0,1,.27.521" fill="#fff"/>
        <path id="Path_323" data-name="Path 323" d="M84.15,9.221q.091,1.013.121,2.069t0,2.56q-.03,1.5-.03,1.979c0,1.846-.055,6.909-.165,10.61s-.165,4.184-.165,6.03a.708.708,0,0,1-.224.52.727.727,0,0,1-1.05,0,.712.712,0,0,1-.225-.52c0-1.231.021-.32.061-1.848a6.226,6.226,0,0,1-4.135.15,5.836,5.836,0,0,1-2.472-1.326,4.5,4.5,0,0,1-1.3-1.994,5.505,5.505,0,0,1-.209-2.218,5.3,5.3,0,0,1,.658-2.083,4.5,4.5,0,0,1,1.483-1.607,3.933,3.933,0,0,1,2.113-.655,5.856,5.856,0,0,1,4.076,1.786c.04-1.706.06-5.516.06-6.845q0-.566.029-2.024c.019-.972.026-1.8.015-2.471A17.217,17.217,0,0,0,82.652,9.4a.751.751,0,0,1,.165-.565.725.725,0,0,1,.509-.269.75.75,0,0,1,.556.165.7.7,0,0,1,.268.491M82.563,24.668q-2.067-2.35-3.926-2.292A2.65,2.65,0,0,0,76.3,23.9a3.847,3.847,0,0,0-.478,1.5,3.637,3.637,0,0,0,.164,1.579,3.45,3.45,0,0,0,.958,1.413,4.222,4.222,0,0,0,1.814.953,4.421,4.421,0,0,0,3.655-.358.126.126,0,0,0,.091-.029c.019-.536.045-1.29.074-2.263s.045-1.627.045-1.964Z" fill="#fff"/>
        <path id="Path_324" data-name="Path 324" d="M94.758,15.264a4.5,4.5,0,0,0-1.483-2.277,2.943,2.943,0,0,0-2.008-.655,2.86,2.86,0,0,0-1.873.937,4.44,4.44,0,0,0-1.078,2.53,5.9,5.9,0,0,0,.119,3.1,9.976,9.976,0,0,0,.794,1.487q.5.776,1.379,1.965t1.243,1.727a16.219,16.219,0,0,1,1.768,3.214,5.967,5.967,0,0,1,.36,3.126,3.505,3.505,0,0,1-1.858,2.62,2.726,2.726,0,0,1-3.805-.745A7.672,7.672,0,0,1,87,28.808a.788.788,0,0,1,.15-.551.7.7,0,0,1,.479-.3.778.778,0,0,1,.869.611A6.386,6.386,0,0,0,89.514,31.4a1.371,1.371,0,0,0,.749.565,1.613,1.613,0,0,0,1.139-.238,2.069,2.069,0,0,0,1.079-1.548,4.723,4.723,0,0,0-.315-2.456,14.665,14.665,0,0,0-1.543-2.812q-.27-.387-1.2-1.638t-1.483-2.128a10.247,10.247,0,0,1-.884-1.712,7.433,7.433,0,0,1-.24-3.87,6.118,6.118,0,0,1,1.529-3.349,4.21,4.21,0,0,1,2.816-1.384,4.289,4.289,0,0,1,2.982.938A6.1,6.1,0,0,1,96.2,14.787a.747.747,0,0,1-.479.938.707.707,0,0,1-.569-.029.8.8,0,0,1-.39-.432" fill="#fff"/>
        <path id="Path_325" data-name="Path 325" d="M0,21.486C0,33.352,9.906,42.971,22.125,42.971s22.124-9.619,22.124-21.485S34.344,0,22.125,0,0,9.62,0,21.486" fill="#fff"/>
        <path id="Path_326" data-name="Path 326" d="M22.125,41.636c11.46,0,20.75-9.021,20.75-20.149S33.585,1.336,22.125,1.336" fill="#de6927"/>
        <path id="Path_327" data-name="Path 327" d="M22.125,1.336c-11.46,0-20.75,9.021-20.75,20.15s9.29,20.15,20.75,20.15" fill="#6eb2cd"/>
        <path id="Path_328" data-name="Path 328" d="M22.133,3.218l-.008,0-.008,0A18.262,18.262,0,0,0,2.928,21.333c-.071,10.27,8.924,19.06,19.156,18.424h.039l0,.024,0-.024h.039c10.228.634,19.225-8.155,19.155-18.424A18.256,18.256,0,0,0,22.133,3.218M39.923,21.34c-2.17-.2-4.374-.349-6.589-.449a21.766,21.766,0,0,0-2.322-9.432,16.264,16.264,0,0,0,3.857-2.495A17.225,17.225,0,0,1,39.923,21.34M22.125,3.218h.007a18.231,18.231,0,0,1,7.384,7.741,27.318,27.318,0,0,1-6.86,1.033c-.1-2.95-.262-5.894-.531-8.775m-.688,17.44c-3.014.021-6.081.066-9.139.181a22.968,22.968,0,0,1,1.954-8.882,21.614,21.614,0,0,0,7.3,1.405c-.068,2.446-.1,4.887-.116,7.3m0,1.373c.012,1.852.032,3.722.072,5.6a21.431,21.431,0,0,0-7.838,1.641,23.168,23.168,0,0,1-1.373-7.42c3.058.115,6.123.16,9.139.18m1.376,0c3.014-.019,6.08-.063,9.139-.178a23.211,23.211,0,0,1-1.394,7.475,21.292,21.292,0,0,0-7.817-1.695c.039-1.878.06-3.749.072-5.6m0-1.374c-.016-2.41-.047-4.852-.116-7.3A21.481,21.481,0,0,0,29.973,11.9a22.983,22.983,0,0,1,1.979,8.932c-3.058-.115-6.124-.159-9.14-.179m6.2-15.766a20.518,20.518,0,0,1,5.707,3.925,24.341,24.341,0,0,1-4.156,1.818c-.035-.062-.068-.124-.1-.186A16.183,16.183,0,0,0,22.137,3.22a20.019,20.019,0,0,1,6.88,1.672M22.125,3.215l0,0h0c-.269,2.885-.431,5.83-.531,8.779A27.447,27.447,0,0,1,14.7,11.02a18.245,18.245,0,0,1,7.416-7.8h0l.006,0m-.012.005a16.189,16.189,0,0,0-8.328,7.229c-.049.084-.1.17-.143.255A24.8,24.8,0,0,1,9.416,8.9a19.2,19.2,0,0,1,12.7-5.681M9.294,9.026a16.357,16.357,0,0,0,3.912,2.493,21.792,21.792,0,0,0-2.291,9.374c-2.215.1-4.42.243-6.589.447A18.15,18.15,0,0,1,9.294,9.026m5.939,28.747C7.691,34.221,4.282,27.746,4.326,21.35c2.17.2,4.374.347,6.589.447a21.994,21.994,0,0,0,1.656,7.986,15.75,15.75,0,0,0-3.84,2.693A24.411,24.411,0,0,1,12.9,30.539c.262.565.546,1.118.859,1.656,1.871,3.226,4.773,6.3,8.3,7.556a20.447,20.447,0,0,1-6.834-1.978m6.842,1.978a18.926,18.926,0,0,1-7.363-8.074c-.252-.491-.479-1-.691-1.507a27.362,27.362,0,0,1,7.521-1.176c.092,3.509.26,7.334.581,10.761l-.048,0m.052,0c.321-3.428.488-7.249.581-10.755A27.141,27.141,0,0,1,30.2,30.237c-.2.488-.422.97-.663,1.44a18.917,18.917,0,0,1-7.362,8.074l-.048,0m.056-.005c3.531-1.255,6.433-4.329,8.3-7.555.3-.513.572-1.041.823-1.579a24,24,0,0,1,4.21,2.02A15.638,15.638,0,0,0,31.65,29.85,21.982,21.982,0,0,0,33.334,21.8c2.216-.1,4.42-.243,6.589-.449a18.646,18.646,0,0,1-17.74,18.4" fill="#fff"/>
        <path id="Path_329" data-name="Path 329" d="M33.6,21.955a2.387,2.387,0,0,0,1.879,1.053c1.07-.086,1.956-1.337,2.222-1.751a.427.427,0,0,1,.255-.182,1.444,1.444,0,0,0,.7-.285,1.223,1.223,0,0,0-.175-2.027c-.556-.23-.748.525-1.2.986a.766.766,0,0,0-.214.727.407.407,0,0,1-.072.334,1.891,1.891,0,0,1-1.331.8,1.154,1.154,0,0,1-1.214-.555.4.4,0,0,1-.041-.162c-.114-2.273-1.937-2.728-1.9-3.016a.174.174,0,0,1,.175-.165c4.3-.541,3.5-3.459,3.5-3.459a3.653,3.653,0,0,1-.109-1.919l0-.015c1.042-4.073-4.364-4.5-5.809-3.624a.413.413,0,0,1-.489-.046.738.738,0,0,0-.855-.086.4.4,0,0,1-.444-.018c-.454-.323-1.455-.731-2.655.666-1.646,1.915-1.087,3.888.109,5.531a1.627,1.627,0,0,1,.4.965v.006a.349.349,0,0,1-.045.163.31.31,0,0,1-.287.184h-.016a.336.336,0,0,1-.093-.02.2.2,0,0,1-.041-.013l-.007-.005a.335.335,0,0,1-.135-.129.264.264,0,0,1-.023-.035.2.2,0,0,1-.012-.037.767.767,0,0,1,.114-.651,1.6,1.6,0,0,0-.583.586.867.867,0,0,0,.2.9c-.87-.136-.345-.987-.345-.987a1.9,1.9,0,0,0-.413.253.9.9,0,0,0,.184,1.551,1.84,1.84,0,0,0,1.15.066.446.446,0,0,1,.243,0c1.409.374,1.672-.859,1.721-1.328v-.009s.015-.072.079-.071a.088.088,0,0,1,.076.064,1.65,1.65,0,0,0,1.838,1.4.307.307,0,0,1,.034.005.172.172,0,0,1,.038-.008.21.21,0,0,1,.21.21.206.206,0,0,1-.14.2l0,0a6.093,6.093,0,0,0-2.958.364,8.176,8.176,0,0,0-2.653,1.793A5.3,5.3,0,0,0,23.6,21.56a.079.079,0,0,1-.063.051,1.836,1.836,0,0,0-1.2,1.074.073.073,0,0,1-.081.045.608.608,0,0,0-.548.16.434.434,0,0,1-.6.005c-.474-.49-1.588-.586-2.206-1.527-.826-1.257-1.011-3.032-2.125-3.407-.575-.193-.715-.03-.73-.182-.025-.233.8-.318.913-.329l.028,0,.759-.125c3.365-.752,2.518-3.661,2.518-3.661s-.362-2.644-.031-2.7a1.91,1.91,0,0,0,1.181-1.262c.146-.712-.481-.488-.481-.488s-1.478.6-1.528-.389-1.272-.427-1.077-.719a.519.519,0,0,0,.039-.544s-.127-.244-.433-.01c-.178.136-.763.471-.763.471a.084.084,0,0,1-.113-.094,4.522,4.522,0,0,0,.064-.761c.016-.67-1.314.3-1.805.68a.083.083,0,0,1-.133-.07c.026-.657-1.477.114-1.477.114-3.416,1.42-3.176,5.424-3.078,6.766s.777,2.022,1.086,1.965.294-.438.294-.438c.253.749,2.138.869,2.318,1.292.188.44-.478.107-2.182.159a6.027,6.027,0,0,0-3.919,1.764c-.271.318-.271.5-.485.75a1.382,1.382,0,0,1-.945.325,1.561,1.561,0,0,0-.567.091c-1.777.694-.871,2.014-.871,2.014a1.111,1.111,0,0,0,1.185.559c.576-.13.247-.464.926-.937.122-.085.611.053.955-.324a5.225,5.225,0,0,1,2.95-1.241.7.7,0,0,1,.648.721,4.548,4.548,0,0,1-.883,2.02,2.719,2.719,0,0,0-.433,2.467.078.078,0,0,1-.008.036,4.189,4.189,0,0,1-2.071,2.032c-1.3.4-2.365-1.464-2.366-1.466a.932.932,0,0,0-.81-1.33c-1.734-.309-1.909,4.019-1.909,4.1,0,.441.363.837.6.837.712.083.949-1.654,1.06-1.8a.235.235,0,0,1,.416.014,5.133,5.133,0,0,0,2.893,1.8h0c3.122.6,4.421-2.66,4.612-3.195a.086.086,0,0,1,.1-.052c3.046.865,3.273,4.4,3.165,6.056-.11,1.673.926,1.264,2.514.8s1.8-.565,1.412-1.3c-.31-.593-1.231-.3-1.569-.169a.083.083,0,0,1-.111-.09c.365-3.461-1-5.2-2.117-6.9-.489-.747.106-2.572.2-2.713a.083.083,0,0,1,.149.024,4.947,4.947,0,0,0,3.07,2.361,3.175,3.175,0,0,0,2.034-.053.446.446,0,0,1,.44.082c.55.434,1.536-.008,1.883-.489.039-.055.34-.243-.078-1.176-.257-.573.376-1.143.376-1.143,2.834-2.784,3.69-1.647,3.7-1.638h0c.511,4.942-3.36,5.982-4.2,6.15a.083.083,0,0,0-.039.142c1.228,1.19,1.548,2.216.363,2.59-.382.121-.794-.09-1.064-.61-.236-.455-.332-1.2-.6-1.428-.407-.339-1.021.409-1.475,1.056-1.1,1.563-.75,2.909-.1,3.029s.833-.517,1.038-1.328c.143-.57.121-.3.756.533.7.919,1.864,1.138,2.265.344a1.856,1.856,0,0,1,2.3-1.141l.009,0a6.319,6.319,0,0,0,5.472.555.591.591,0,0,1,.709.219,4.972,4.972,0,0,1,.541,1.53,1.447,1.447,0,0,1-.041.727,1.424,1.424,0,0,0-.074.588c.214,1.453,2.658.738,3.791-.147a.849.849,0,0,0,.214-1.334c-.614-.554-1.623-.091-2.018.094s-.33-.2-.33-.2a3.629,3.629,0,0,0-.894-3.428c-.274-.335-.018-.4-.018-.4a.968.968,0,0,0,.6-.363c.3-.342.014-.443.014-.443a8.562,8.562,0,0,1-2.223-1.642c-1.325-1.261-.274-2.778-.045-3.332s.367-.274.367-.274" fill="#fff"/>
      </g>
    </g>
  </g>
</svg>
