<?xml version="1.0" encoding="UTF-8"?>
<svg id="Layer_1" data-name="Layer 1" xmlns="http://www.w3.org/2000/svg" viewBox="0 0 155.7 104.13">
  <defs>
    <style>
      .cls-1 {
        fill: #dfe7b2;
      }

      .cls-2 {
        fill: #679c5d;
      }

      .cls-3 {
        fill: #090908;
      }
    </style>
  </defs>
  <path class="cls-3" d="M86.39,43.27c2.78-1.99,5.46-1.52,7.9.79.63.59,1.17,1.29,1.7,1.97.26.34.52.41.9.3.45-.12.84-.33,1.23-.58,1.71-1.16,3.49-2.16,5.64-2.27,2.31-.11,4.4.4,6.17,1.96.65.57,1.15,1.25,1.48,2.05,1.01,2.43,1.35,4.95.87,7.55-.05.28.02.4.25.54.83.5,1.68.99,2.47,1.56,1.63,1.17,2.64,2.77,3.15,4.71.09.34.18.68.28,1.01.32,1.72-.78,2.89-1.64,4.13-.92,1.34-2.21,2.28-3.55,3.16-.18.12-.38.19-.44.47-.49,2.09-1.66,3.82-2.89,5.52-2.13,2.93-4.77,5.38-7.81,7.3-4,2.51-8.35,2.89-12.91,1.7-3.2-.84-5.89-2.52-8.27-4.74-1.79-1.67-2.83-3.85-3.79-6.06-.37-.83-.69-1.69-.98-2.55-.97-2.89-1.03-5.82-.19-8.75,1-3.48,2.59-6.67,4.89-9.49.26-.32.51-.68.84-.91.64-.45.83-1.08.94-1.79.2-1.34.62-2.62,1.14-3.86.5-1.18,1.11-2.27,2.11-3.11.2-.17.36-.4.53-.6ZM86.61,81.28c.81.45,1.9.78,2.99,1.13,2.41.76,4.82,1.01,7.27.16.86-.3,1.67-.72,2.52-1.04,1.37-.53,2.63-1.19,3.76-2.12,2.82-2.32,5.01-5.17,6.97-8.21.29-.45.58-.93.57-1.49,0-.64.27-1.1.79-1.45,1.07-.72,2.07-1.53,2.93-2.49.38-.43.69-.89.82-1.45.59-2.41-.9-4.83-3.13-5.97-.75-.38-1.46-.78-2.03-1.4-.42-.46-.58-.98-.44-1.6.51-2.41.24-4.75-.75-6.99-.43-.98-1.11-1.86-2.22-2.13-1.8-.43-3.57-.28-5.29.49-1.14.51-2.07,1.27-3,2.08-.9.78-2.75.92-3.57-.52-.57-1.01-1.39-1.82-2.34-2.46-.85-.57-1.84-1.15-2.84-.82-1.42.47-2.71,1.24-3.35,2.75-.36.86-.71,1.72-1,2.61-.29.92-.5,1.89-1.15,2.66-.59.69-1.23,1.35-1.77,2.08-.58.8-1.22,1.58-1.61,2.51-.5,1.18-.96,2.38-1.49,3.55-.75,1.66-1.19,3.41-1.4,5.19-.23,1.93.17,3.79.86,5.61,1.5,3.98,3.85,7.23,7.89,9.35Z"/>
  <path class="cls-2" d="M86.61,81.28c-4.04-2.13-6.39-5.38-7.89-9.35-.68-1.82-1.09-3.68-.86-5.61.21-1.79.65-3.53,1.4-5.19.53-1.17.99-2.37,1.49-3.55.39-.93,1.02-1.71,1.61-2.51.53-.73,1.18-1.39,1.77-2.08.66-.77.86-1.74,1.15-2.66.28-.89.63-1.75,1-2.61.64-1.52,1.94-2.28,3.35-2.75,1-.33,1.99.26,2.84.82.95.64,1.77,1.45,2.34,2.46.82,1.44,2.67,1.3,3.57.52.93-.8,1.86-1.57,3-2.08,1.72-.76,3.49-.92,5.29-.49,1.11.27,1.78,1.14,2.22,2.13.99,2.24,1.26,4.59.75,6.99-.13.63.03,1.15.44,1.6.57.62,1.28,1.02,2.03,1.4,2.23,1.14,3.72,3.56,3.13,5.97-.13.56-.44,1.02-.82,1.45-.86.97-1.86,1.77-2.93,2.49-.52.35-.79.81-.79,1.45,0,.56-.28,1.04-.57,1.49-1.96,3.04-4.15,5.9-6.97,8.21-1.13.93-2.4,1.59-3.76,2.12-.84.33-1.66.75-2.52,1.04-2.44.85-4.86.6-7.27-.16-1.09-.34-2.18-.68-2.99-1.13ZM97.98,55.46c-.78-.64-1.8-.68-2.87-.36-.5.15-1,.28-1.49.43-.94.29-1.83.43-2.83,0-.93-.4-1.97-.73-3.03-.51-2.35.47-4.04,1.86-5.13,3.95-.59,1.12-.92,2.36-1.23,3.57-.34,1.32-.37,2.71-.29,4.08.14,2.51,1.17,4.72,2.37,6.87.91,1.63,2.01,3.04,3.73,3.89.33.16.61.43.89.67.28.23.59.37.92.51,2.21.94,4.52.94,6.85.68.73-.08,1.44-.23,2.11-.53,2.15-.96,4.09-2.26,5.92-3.74,4.26-3.45,3.91-9.82-.7-12.84-.87-.57-1.69-1.22-1.61-2.47.02-.26-.06-.58-.19-.88-.65-1.54-1.9-2.45-3.42-3.32Z"/>
  <path class="cls-3" d="M97.98,55.46c1.52.87,2.77,1.78,3.42,3.32.13.3.2.61.19.88-.09,1.25.74,1.9,1.61,2.47,4.61,3.02,4.96,9.4.7,12.84-1.83,1.48-3.77,2.77-5.92,3.74-.67.3-1.38.45-2.11.53-2.33.27-4.63.26-6.85-.68-.33-.14-.64-.28-.92-.51-.29-.24-.57-.51-.89-.67-1.72-.85-2.82-2.26-3.73-3.89-1.2-2.16-2.24-4.36-2.37-6.87-.07-1.37-.05-2.76.29-4.08.31-1.21.64-2.45,1.23-3.57,1.1-2.09,2.78-3.48,5.13-3.95,1.06-.21,2.1.12,3.03.51,1,.42,1.88.28,2.83,0,.5-.15,1-.28,1.49-.43,1.07-.32,2.09-.29,2.87.36ZM90.67,58.43c-1.31-.77-2.57-.7-3.7.11-1.71,1.23-2.76,2.82-2.86,4.97-.09,1.91.09,3.78.49,5.67.41,1.91,1.07,3.59,2.61,4.86.93.76,1.82,1.52,2.99,1.95,3.08,1.15,5.99.79,8.79-.79,1.26-.71,2.39-1.65,3.53-2.54,3.16-2.49,1.52-7.45-1.38-8.38-1-.32-1.69-.95-1.64-2.13.02-.37-.05-.74-.1-1.11-.3-2.2-2.34-3.71-4.51-3.34-.95.16-1.85.48-2.73.84-.58.24-1.08.26-1.48-.11Z"/>
  <path class="cls-1" d="M90.67,58.43c.41.38.91.35,1.48.11.88-.36,1.78-.68,2.73-.84,2.17-.37,4.22,1.13,4.51,3.34.05.37.12.74.1,1.11-.05,1.18.64,1.81,1.64,2.13,2.9.93,4.54,5.89,1.38,8.38-1.14.9-2.26,1.83-3.53,2.54-2.8,1.58-5.71,1.94-8.79.79-1.17-.44-2.07-1.19-2.99-1.95-1.54-1.27-2.2-2.95-2.61-4.86-.4-1.89-.58-3.76-.49-5.67.1-2.16,1.16-3.75,2.86-4.97,1.13-.81,2.39-.88,3.7-.11Z"/>
  <path class="cls-3" d="M79.01,37.42c-.13,1.3-.68,2.42-1.36,3.5-.72,1.14-1.54,2.21-2.53,3.14-.52.49-.93,1.01-.94,1.79,0,.4-.16.81-.27,1.21-1.01,3.49-2.73,6.62-5.02,9.42-1.93,2.36-4.37,3.97-7.3,4.83-.87.25-1.76.47-2.66.65-2.36.46-4.75.85-7.14.33-3.18-.69-6.09-1.95-8.6-4.11-3.57-3.07-5.74-6.87-5.95-11.58-.16-3.6.36-7.15,1.55-10.58.69-1.98,1.46-3.93,2.89-5.52.19-.21.14-.41.13-.63-.04-1.6,0-3.2.58-4.72.53-1.42.87-2.98,2.46-3.7.33-.12.66-.23.99-.35,1.88-.68,3.77-.76,5.66-.09.92.33,1.8.74,2.69,1.14.25.11.39.1.59-.1,1.87-1.87,4.13-3.03,6.7-3.58.85-.18,1.69-.16,2.53.05,2.29.57,3.91,2,5.13,3.96,1.14,1.82,1.32,3.86,1.34,5.92,0,.46.06.9.22,1.34.13.38.33.55.76.57.87.05,1.74.1,2.59.28,3.29.7,5.19,2.63,5.14,6.05-.07.26-.16.52-.19.78ZM60.01,59.24c1.88-.47,3.64-1.2,5.1-2.48,1.35-1.19,2.54-2.55,3.47-4.11.66-1.1,1.38-2.16,2.07-3.25.54-.85.82-1.81,1.15-2.75.3-.86.47-1.76.7-2.64.26-.98.94-1.7,1.53-2.46.57-.74,1.08-1.52,1.58-2.31.88-1.39.78-2.89.36-4.32-.3-1.01-1.34-1.49-2.29-1.86-1.07-.42-2.2-.63-3.35-.53-1.65.14-2.59-1.46-2.46-2.64.13-1.22.24-2.42,0-3.65-.35-1.85-1.23-3.39-2.61-4.63-.85-.76-1.95-.82-3.01-.61-2.41.46-4.49,1.58-6.18,3.37-.44.47-.96.63-1.57.55-.83-.11-1.56-.47-2.31-.87-2.21-1.19-5.04-1.03-6.69.82-.38.43-.59.95-.72,1.5-.31,1.26-.4,2.54-.39,3.83,0,.63-.22,1.11-.75,1.48-.46.32-.69.82-.9,1.32-1.39,3.34-2.49,6.77-2.79,10.4-.12,1.46.06,2.88.4,4.3.21.88.33,1.79.57,2.66.69,2.49,2.27,4.34,4.27,5.89.9.7,1.8,1.41,2.63,1.82,4.05,2.11,8.06,2.2,12.18,1.16Z"/>
  <path class="cls-2" d="M45.2,56.26c-1.99-1.55-3.57-3.39-4.27-5.89-.24-.88-.36-1.78-.57-2.66-.34-1.42-.52-2.84-.4-4.3.3-3.64,1.4-7.06,2.79-10.4.21-.5.44-1,.9-1.32.53-.36.75-.85.75-1.48-.01-1.29.08-2.57.39-3.83.13-.55.34-1.07.72-1.5,1.65-1.85,4.49-2.01,6.69-.82.74.4,1.47.76,2.31.87.61.08,1.13-.08,1.57-.55,1.69-1.79,3.77-2.91,6.18-3.37,1.06-.2,2.16-.15,3.01.61,1.38,1.24,2.26,2.78,2.61,4.63.23,1.23.13,2.43,0,3.65-.13,1.18.81,2.78,2.46,2.64,1.16-.1,2.29.11,3.35.53.95.37,1.99.86,2.29,1.86.42,1.43.53,2.94-.36,4.32-.5.79-1.01,1.57-1.58,2.31-.59.77-1.27,1.49-1.53,2.46-.23.88-.41,1.78-.7,2.64-.33.94-.61,1.9-1.15,2.75-.69,1.08-1.41,2.15-2.07,3.25-.93,1.56-2.12,2.92-3.47,4.11-1.45,1.29-3.21,2.01-5.1,2.48-4.12,1.03-8.13.95-12.18-1.16-.83-.41-1.73-1.12-2.63-1.82ZM57.91,33.12c-.32.07-.62.18-.83.34-.98.78-1.99.47-2.94.08-5.1-2.08-10.55,1.27-10.96,6.73-.17,2.35-.13,4.68.3,7,.13.72.42,1.39.76,2.03,1.11,2.07,2.42,3.96,4.45,5.25.3.19.6.37.94.46.36.1.74.18,1.06.36,1.67.93,3.46,1.03,5.32.85,2.45-.24,4.86-.64,7-1.96,1.17-.72,2.3-1.53,3.19-2.56.82-.95,1.65-1.92,2.24-3.04,1.09-2.09,1.28-4.27.33-6.47-.43-.99-1.29-1.66-2.15-2.2-.92-.58-1.31-1.39-1.61-2.33-.16-.49-.34-.98-.5-1.47-.35-1.07-.96-1.89-1.93-2.16-1.58-.76-3.04-1.27-4.68-.92Z"/>
  <path class="cls-3" d="M64.51,36.2c.16.49.34.98.5,1.47.3.94.69,1.74,1.61,2.33.86.54,1.72,1.21,2.15,2.2.95,2.2.76,4.38-.33,6.47-.58,1.12-1.42,2.1-2.24,3.04-.89,1.03-2.02,1.85-3.19,2.56-2.14,1.32-4.55,1.72-7,1.96-1.86.18-3.64.08-5.32-.85-.32-.18-.7-.26-1.06-.36-.35-.1-.64-.27-.94-.46-2.03-1.29-3.35-3.18-4.45-5.25-.34-.64-.63-1.32-.76-2.03-.43-2.32-.47-4.65-.3-7,.41-5.47,5.85-8.81,10.96-6.73.96.39,1.97.7,2.94-.08.21-.16.51-.28.83-.34,1.64-.34,3.09.17,4.68.92.97.27,1.58,1.09,1.93,2.16ZM63.36,40.59c-.2-.93-.45-1.85-.86-2.72-.93-2-3.33-2.82-5.31-1.81-.33.17-.68.33-.97.55-.94.71-1.86.51-2.69-.13-2.42-1.86-7.43-.38-7.68,3.63-.09,1.45-.22,2.9-.09,4.35.29,3.2,1.66,5.8,4.36,7.68,1.02.71,2.15,1.02,3.31,1.35,1.92.54,3.68.13,5.49-.62,1.78-.74,3.42-1.66,4.94-2.82,1.71-1.31,2.42-3.08,2.46-5.18.03-1.39-.64-2.47-2.02-3.1-.54-.12-.81-.55-.94-1.16Z"/>
  <path class="cls-1" d="M64.3,41.74c-.54-.12-.81-.55-.94-1.16-.2-.93-.45-1.85-.86-2.72-.93-2-3.33-2.82-5.31-1.81-.33.17-.68.33-.97.55-.94.71-1.86.51-2.69-.13-2.42-1.86-7.43-.38-7.68,3.63-.09,1.45-.22,2.9-.09,4.35.29,3.2,1.66,5.8,4.36,7.68,1.02.71,2.15,1.02,3.31,1.35,1.92.54,3.68.13,5.49-.62,1.78-.74,3.42-1.66,4.94-2.82,1.71-1.31,2.42-3.08,2.46-5.18.03-1.39-.64-2.47-2.02-3.1Z"/>
</svg>