<?xml version="1.0" encoding="UTF-8"?>
<svg id="Layer_1" data-name="Layer 1" xmlns="http://www.w3.org/2000/svg" viewBox="0 0 155.7 104.13">
  <defs>
    <style>
      .cls-1 {
        fill: #8cdaed;
      }

      .cls-2 {
        fill: #a18ee2;
      }

      .cls-3 {
        fill: #090908;
      }
    </style>
  </defs>
  <g>
    <path class="cls-3" d="M69.28,27.38c.19,2.24-.38,4.33-1.2,6.37-.87,2.16-1.92,4.23-3.3,6.12-.73,1-1.27,2.01-1.03,3.34.12.68-.01,1.42-.08,2.13-.62,6.25-2.55,12.09-5.56,17.57-2.53,4.6-6.17,8.12-10.87,10.49-1.4.71-2.84,1.36-4.31,1.94-3.86,1.52-7.79,2.94-12.02,2.81-5.61-.18-10.95-1.39-15.89-4.26-7.03-4.09-11.91-9.85-13.75-17.79-1.4-6.05-1.65-12.25-.69-18.44.55-3.58,1.24-7.13,3.17-10.29.26-.42.1-.74.03-1.12-.56-2.71-.99-5.44-.5-8.2.46-2.57.53-5.34,3.02-7.06.52-.3,1.05-.6,1.57-.91,2.97-1.75,6.16-2.48,9.58-1.93,1.66.26,3.29.69,4.92,1.09.46.11.69.04.96-.36,2.58-3.77,6.05-6.44,10.25-8.18,1.38-.57,2.81-.8,4.31-.71,4.07.25,7.26,2.16,9.95,5.1,2.5,2.74,3.45,6.13,4.14,9.63.15.78.39,1.51.79,2.21.34.6.73.83,1.47.73,1.49-.19,2.99-.38,4.48-.34,5.8.15,9.64,2.83,10.64,8.65-.03.46-.12.93-.08,1.38ZM43.89,70.41c3.05-1.4,5.81-3.18,7.87-5.82,1.91-2.45,3.5-5.12,4.6-8.07.77-2.08,1.67-4.11,2.5-6.17.65-1.61.82-3.33,1.08-5.02.24-1.55.25-3.13.36-4.7.13-1.74,1.06-3.17,1.82-4.66.74-1.43,1.35-2.92,1.96-4.41,1.06-2.63.41-5.15-.76-7.45-.82-1.62-2.75-2.1-4.47-2.44-1.94-.38-3.93-.38-5.86.16-2.75.76-4.85-1.66-5-3.7-.16-2.11-.36-4.18-1.14-6.19-1.18-3.02-3.15-5.37-5.89-7.03-1.68-1.02-3.57-.77-5.3-.09-3.94,1.54-7.12,4.09-9.42,7.66-.6.93-1.43,1.38-2.49,1.43-1.45.07-2.8-.31-4.19-.75-4.12-1.32-8.88-.16-11.1,3.51-.51.85-.7,1.79-.75,2.77-.13,2.23.13,4.43.55,6.61.21,1.07-.02,1.96-.8,2.74-.68.68-.92,1.61-1.11,2.52-1.3,6.11-2.09,12.27-1.45,18.54.26,2.52,1,4.87,2.03,7.18.63,1.43,1.12,2.93,1.81,4.34,1.96,4.01,5.22,6.64,9.1,8.65,1.75.9,3.5,1.82,5.03,2.26,7.54,2.31,14.37,1.19,21.04-1.86Z"/>
    <path class="cls-1" d="M17.82,70.02c-3.87-2-7.14-4.63-9.1-8.65-.69-1.41-1.18-2.91-1.81-4.34-1.03-2.31-1.77-4.66-2.03-7.18-.64-6.27.15-12.42,1.45-18.54.19-.91.43-1.84,1.11-2.52.78-.78,1.01-1.67.8-2.74-.42-2.18-.67-4.38-.55-6.61.06-.98.24-1.92.75-2.77,2.22-3.67,6.98-4.83,11.1-3.51,1.38.44,2.74.82,4.19.75,1.06-.05,1.89-.49,2.49-1.43,2.3-3.57,5.48-6.12,9.42-7.66,1.73-.68,3.62-.93,5.3.09,2.73,1.66,4.71,4,5.89,7.03.78,2.01.99,4.08,1.14,6.19.15,2.04,2.25,4.47,5,3.7,1.93-.53,3.92-.54,5.86-.16,1.72.34,3.65.83,4.47,2.44,1.16,2.3,1.82,4.82.76,7.45-.6,1.49-1.22,2.98-1.96,4.41-.77,1.49-1.69,2.92-1.82,4.66-.12,1.57-.13,3.15-.36,4.7-.26,1.69-.43,3.41-1.08,5.02-.83,2.06-1.72,4.09-2.5,6.17-1.09,2.95-2.69,5.62-4.6,8.07-2.06,2.64-4.82,4.43-7.87,5.82-6.67,3.05-13.51,4.17-21.04,1.86-1.54-.44-3.28-1.35-5.03-2.26ZM32.1,26.73c-.52.21-1,.5-1.29.85-1.41,1.64-3.22,1.43-4.97,1.07-9.32-1.92-17.51,5.47-16.48,14.88.44,4.04,1.24,7.98,2.7,11.78.45,1.18,1.14,2.23,1.93,3.21,2.53,3.16,5.35,5.96,9.21,7.5.57.23,1.13.44,1.75.49.64.05,1.31.07,1.91.27,3.14,1.05,6.2.67,9.29-.23,4.09-1.18,8.05-2.62,11.27-5.53,1.76-1.59,3.42-3.33,4.61-5.36,1.09-1.86,2.2-3.79,2.84-5.87,1.19-3.89.82-7.64-1.48-11.08-1.04-1.55-2.71-2.41-4.34-3.06-1.74-.7-2.65-1.95-3.46-3.44-.42-.79-.88-1.56-1.31-2.34-.93-1.7-2.22-2.9-3.95-3.05-2.93-.79-5.56-1.2-8.23-.09Z"/>
    <path class="cls-3" d="M44.28,29.88c.43.79.89,1.55,1.31,2.34.8,1.5,1.71,2.74,3.46,3.44,1.62.65,3.3,1.51,4.34,3.06,2.31,3.44,2.67,7.19,1.48,11.08-.64,2.08-1.74,4.01-2.84,5.87-1.19,2.03-2.85,3.77-4.61,5.36-3.22,2.91-7.18,4.35-11.27,5.53-3.09.89-6.16,1.28-9.29.23-.6-.2-1.27-.22-1.91-.27-.62-.05-1.18-.26-1.75-.49-3.85-1.54-6.68-4.34-9.21-7.5-.79-.98-1.48-2.04-1.93-3.21-1.46-3.8-2.26-7.74-2.7-11.78-1.03-9.41,7.16-16.79,16.48-14.88,1.75.36,3.56.57,4.97-1.07.3-.34.78-.63,1.29-.85,2.67-1.1,5.31-.69,8.23.09,1.74.16,3.03,1.35,3.95,3.05ZM43.72,37.69c-.64-1.51-1.35-3-2.32-4.35-2.21-3.1-6.54-3.74-9.59-1.4-.51.39-1.05.77-1.48,1.24-1.38,1.51-2.99,1.44-4.6.62-4.69-2.39-12.73,1.69-11.89,8.58.3,2.49.54,4.99,1.22,7.41,1.51,5.35,4.64,9.32,9.81,11.67,1.96.89,3.98,1.06,6.04,1.25,3.43.32,6.29-.94,9.11-2.78,2.79-1.82,5.28-3.89,7.5-6.35,2.49-2.77,3.14-5.99,2.54-9.58-.39-2.37-1.86-3.98-4.4-4.63-.96-.04-1.54-.68-1.96-1.67Z"/>
    <path class="cls-2" d="M45.67,39.35c-.96-.04-1.54-.68-1.96-1.67-.64-1.51-1.35-3-2.32-4.35-2.21-3.1-6.54-3.74-9.59-1.4-.51.39-1.05.77-1.48,1.24-1.38,1.51-2.99,1.44-4.6.62-4.69-2.39-12.73,1.69-11.89,8.58.3,2.49.54,4.99,1.22,7.41,1.51,5.35,4.64,9.32,9.81,11.67,1.96.89,3.98,1.06,6.04,1.25,3.43.32,6.29-.94,9.11-2.78,2.79-1.82,5.28-3.89,7.5-6.35,2.49-2.77,3.14-5.99,2.54-9.58-.39-2.37-1.86-3.98-4.4-4.63Z"/>
    <ellipse class="cls-3" cx="38.28" cy="15.67" rx="6.73" ry="9.12" transform="translate(-2.75 10.41) rotate(-14.96)"/>
    <ellipse class="cls-2" cx="38.38" cy="16.1" rx="5.18" ry="7.07" transform="translate(-2.86 10.45) rotate(-14.96)"/>
    <ellipse class="cls-3" cx="15.51" cy="20.43" rx="6.8" ry="5.02" transform="translate(-9.92 23.83) rotate(-60.4)"/>
    <ellipse class="cls-2" cx="15.7" cy="20.53" rx="5.02" ry="3.89" transform="translate(-9.91 24.04) rotate(-60.4)"/>
    <ellipse class="cls-3" cx="57.66" cy="29.87" rx="6.8" ry="5.02" transform="translate(18.43 81.62) rotate(-80.22)"/>
    <ellipse class="cls-2" cx="57.72" cy="29.8" rx="5.26" ry="3.85" transform="translate(18.56 81.62) rotate(-80.22)"/>
  </g>
  <g>
    <path class="cls-3" d="M94.77,33.84c4.1-4.25,8.78-4.29,13.66-1.15,1.25.81,2.39,1.81,3.51,2.81.55.49,1,.53,1.63.22.72-.35,1.33-.82,1.9-1.38,2.54-2.51,5.24-4.77,8.85-5.62,3.88-.91,7.59-.7,11.09,1.39,1.29.77,2.34,1.76,3.16,3.01,2.49,3.81,3.85,7.97,3.86,12.54,0,.48.15.67.59.84,1.57.59,3.16,1.16,4.68,1.87,3.13,1.48,5.36,3.88,6.83,7,.26.55.53,1.09.79,1.64,1.08,2.82-.41,5.15-1.48,7.53-1.15,2.56-3.04,4.57-5.03,6.49-.27.26-.58.45-.61.94-.18,3.69-1.61,7.01-3.18,10.28-2.7,5.65-6.39,10.63-10.96,14.84-5.99,5.52-13.27,7.53-21.38,6.95-5.7-.41-10.79-2.42-15.53-5.43-3.57-2.27-6.01-5.65-8.35-9.09-.88-1.3-1.71-2.65-2.47-4.03-2.55-4.61-3.57-9.56-3.07-14.79.6-6.23,2.3-12.14,5.31-17.65.34-.63.65-1.31,1.13-1.81.95-.96,1.07-2.1,1.03-3.34-.08-2.34.22-4.64.72-6.92.47-2.15,1.18-4.2,2.6-5.94.29-.35.48-.79.71-1.19ZM107.12,98.28c1.52.51,3.47.73,5.43.97,4.33.53,8.5.19,12.39-2.02,1.37-.78,2.61-1.74,3.94-2.57,2.15-1.33,4.09-2.86,5.72-4.79,4.06-4.82,6.87-10.35,9.25-16.13.35-.86.68-1.76.5-2.71-.21-1.09.11-1.95.88-2.72,1.58-1.57,3.03-3.24,4.18-5.16.51-.84.88-1.73.94-2.71.23-4.28-3.05-7.92-7.19-9.15-1.39-.41-2.73-.86-3.88-1.74-.85-.64-1.28-1.47-1.26-2.58.11-4.25-1.08-8.14-3.47-11.64-1.05-1.53-2.47-2.81-4.43-2.91-3.2-.17-6.15.65-8.82,2.49-1.78,1.22-3.11,2.81-4.43,4.47-1.28,1.6-4.37,2.42-6.22.24-1.29-1.53-2.93-2.65-4.75-3.43-1.62-.69-3.48-1.38-5.07-.5-2.26,1.24-4.22,2.95-4.82,5.73-.34,1.57-.67,3.14-.87,4.75-.21,1.66-.25,3.37-1.12,4.88-.79,1.36-1.67,2.67-2.34,4.08-.74,1.54-1.57,3.06-1.94,4.76-.47,2.17-.88,4.35-1.41,6.5-.76,3.05-.95,6.15-.75,9.26.21,3.34,1.49,6.37,3.22,9.24,3.79,6.28,8.81,11.06,16.33,13.4Z"/>
    <path class="cls-1" d="M107.12,98.28c-7.53-2.34-12.54-7.11-16.33-13.4-1.73-2.87-3.01-5.9-3.22-9.24-.2-3.1,0-6.2.75-9.26.53-2.15.94-4.33,1.41-6.5.37-1.7,1.2-3.22,1.94-4.76.68-1.41,1.56-2.72,2.34-4.08.87-1.51.91-3.22,1.12-4.88.2-1.6.53-3.17.87-4.75.6-2.77,2.57-4.49,4.82-5.73,1.59-.87,3.46-.19,5.07.5,1.82.78,3.46,1.9,4.75,3.43,1.84,2.18,4.94,1.36,6.22-.24,1.32-1.65,2.66-3.25,4.43-4.47,2.68-1.83,5.63-2.66,8.82-2.49,1.97.1,3.39,1.38,4.43,2.91,2.39,3.49,3.58,7.39,3.47,11.64-.03,1.11.41,1.94,1.26,2.58,1.16.88,2.49,1.33,3.88,1.74,4.15,1.23,7.43,4.88,7.19,9.15-.05.99-.43,1.87-.94,2.71-1.15,1.91-2.6,3.59-4.18,5.16-.77.77-1.09,1.63-.88,2.72.18.95-.15,1.85-.5,2.71-2.37,5.78-5.18,11.31-9.25,16.13-1.63,1.93-3.57,3.46-5.72,4.79-1.33.82-2.58,1.79-3.94,2.57-3.88,2.21-8.06,2.55-12.39,2.02-1.96-.24-3.91-.47-5.43-.97ZM118.29,50.88c-1.52-.85-3.26-.59-4.99.29-.8.41-1.61.78-2.4,1.2-1.51.78-2.96,1.3-4.8.9-1.71-.38-3.57-.61-5.31.08-3.84,1.54-6.26,4.43-7.47,8.32-.65,2.08-.82,4.29-.96,6.45-.16,2.35.23,4.72.79,7.02,1.02,4.22,3.48,7.64,6.19,10.92,2.05,2.48,4.37,4.53,7.55,5.42.61.17,1.17.54,1.73.85.54.31,1.12.45,1.72.58,4.05.9,7.96.18,11.84-1.01,1.21-.37,2.37-.85,3.41-1.56,3.35-2.31,6.23-5.12,8.87-8.21,6.15-7.19,3.55-17.91-5.23-21.58-1.65-.69-3.26-1.54-3.5-3.69-.05-.45-.29-.96-.59-1.43-1.59-2.42-3.99-3.56-6.85-4.56Z"/>
    <path class="cls-3" d="M118.29,50.88c2.86,1,5.26,2.14,6.85,4.56.31.47.54.98.59,1.43.25,2.15,1.86,3,3.5,3.69,8.78,3.67,11.38,14.39,5.23,21.58-2.64,3.09-5.53,5.89-8.87,8.21-1.04.72-2.2,1.19-3.41,1.56-3.87,1.19-7.78,1.91-11.84,1.01-.6-.13-1.18-.27-1.72-.58-.56-.32-1.12-.68-1.73-.85-3.18-.9-5.5-2.94-7.55-5.42-2.71-3.28-5.17-6.7-6.19-10.92-.56-2.3-.95-4.67-.79-7.02.15-2.16.32-4.37.96-6.45,1.21-3.88,3.63-6.78,7.47-8.32,1.73-.69,3.6-.46,5.31-.08,1.83.41,3.29-.11,4.8-.9.79-.41,1.61-.79,2.4-1.2,1.72-.88,3.47-1.14,4.99-.29ZM106.81,58.22c-2.46-.89-4.58-.39-6.24,1.35-2.51,2.62-3.8,5.65-3.29,9.34.45,3.28,1.34,6.4,2.62,9.47,1.29,3.11,2.94,5.76,5.96,7.44,1.81,1.01,3.57,2,5.7,2.37,5.59.98,10.42-.54,14.68-4.11,1.92-1.61,3.53-3.54,5.18-5.43,4.57-5.21.23-13.12-4.99-13.78-1.79-.23-3.17-1.09-3.45-3.11-.09-.63-.33-1.25-.53-1.86-1.2-3.65-5.13-5.56-8.71-4.25-1.56.57-2.99,1.4-4.37,2.29-.9.58-1.75.78-2.56.27Z"/>
    <path class="cls-2" d="M106.81,58.22c.81.51,1.65.31,2.56-.27,1.38-.89,2.81-1.72,4.37-2.29,3.57-1.32,7.51.6,8.71,4.25.2.61.44,1.23.53,1.86.29,2.02,1.66,2.88,3.45,3.11,5.22.67,9.56,8.57,4.99,13.78-1.65,1.88-3.26,3.82-5.18,5.43-4.26,3.57-9.09,5.08-14.68,4.11-2.12-.37-3.88-1.37-5.7-2.37-3.02-1.67-4.67-4.32-5.96-7.44-1.28-3.07-2.17-6.19-2.62-9.47-.5-3.69.78-6.72,3.29-9.34,1.66-1.73,3.78-2.24,6.24-1.35Z"/>
    <ellipse class="cls-3" cx="126.27" cy="42.83" rx="9.12" ry="6.73" transform="translate(2.65 92.78) rotate(-40.74)"/>
    <ellipse class="cls-2" cx="125.94" cy="43.13" rx="7.07" ry="5.18" transform="translate(2.37 92.64) rotate(-40.74)"/>
    <ellipse class="cls-3" cx="142.39" cy="59.59" rx="6.8" ry="5.02" transform="translate(71.33 196.62) rotate(-85.3)"/>
    <ellipse class="cls-2" cx="142.18" cy="59.57" rx="5.02" ry="3.89" transform="translate(71.16 196.38) rotate(-85.3)"/>
    <ellipse class="cls-3" cx="102.26" cy="43.63" rx="6.8" ry="5.02" transform="translate(20.11 118.55) rotate(-65.48)"/>
    <ellipse class="cls-2" cx="102.25" cy="43.54" rx="5.26" ry="3.85" transform="translate(20.2 118.49) rotate(-65.48)"/>
  </g>
</svg>