<?xml version="1.0" encoding="UTF-8"?>
<svg id="Layer_1" data-name="Layer 1" xmlns="http://www.w3.org/2000/svg" viewBox="0 0 155.7 104.13">
  <defs>
    <style>
      .cls-1 {
        fill: #db4c05;
      }

      .cls-2 {
        fill: #f67430;
      }

      .cls-3 {
        fill: #090908;
      }
    </style>
  </defs>
  <g>
    <path class="cls-3" d="M79.36,30.93c.62-5.29,3.95-7.88,9.17-8.3,1.34-.11,2.71,0,4.05.1.67.05,1.01-.17,1.29-.73.33-.65.51-1.31.61-2.02.45-3.19,1.15-6.29,3.27-8.88,2.28-2.78,5.07-4.66,8.72-5.07,1.34-.15,2.64-.02,3.91.43,3.87,1.37,7.12,3.61,9.63,6.88.27.35.48.4.88.27,1.45-.44,2.9-.9,4.38-1.22,3.05-.65,5.97-.15,8.72,1.29.48.25.97.49,1.46.74,2.32,1.43,2.52,3.92,3.05,6.21.58,2.46.32,4.94-.06,7.41-.05.34-.17.64.08,1,1.89,2.75,2.68,5.91,3.35,9.11,1.15,5.53,1.23,11.12.25,16.64-1.28,7.24-5.4,12.66-11.54,16.68-4.31,2.82-9.07,4.17-14.11,4.6-3.8.32-7.4-.77-10.96-1.96-1.35-.45-2.67-.97-3.97-1.54-4.35-1.91-7.79-4.9-10.29-8.93-2.98-4.79-4.99-9.97-5.85-15.56-.1-.64-.26-1.3-.18-1.92.15-1.21-.38-2.09-1.09-2.96-1.33-1.64-2.38-3.45-3.26-5.36-.84-1.8-1.45-3.66-1.39-5.68.01-.41-.09-.83-.14-1.24ZM123.46,70.39c1.36-.47,2.89-1.38,4.43-2.27,3.39-1.99,6.21-4.51,7.78-8.22.55-1.31.92-2.68,1.42-4,.82-2.13,1.37-4.29,1.48-6.57.28-5.68-.73-11.18-2.19-16.63-.22-.81-.47-1.64-1.12-2.22-.74-.67-.99-1.46-.85-2.43.28-1.99.4-3.98.18-5.98-.1-.88-.31-1.72-.81-2.46-2.17-3.2-6.52-4.01-10.17-2.63-1.23.47-2.43.87-3.74.88-.96,0-1.73-.36-2.31-1.17-2.25-3.11-5.23-5.25-8.85-6.45-1.59-.53-3.3-.67-4.77.34-2.38,1.63-4.05,3.83-4.97,6.61-.61,1.85-.69,3.72-.74,5.63-.04,1.85-1.81,4.13-4.33,3.57-1.76-.39-3.55-.3-5.29.14-1.54.39-3.25.92-3.91,2.41-.94,2.12-1.41,4.43-.33,6.75.62,1.32,1.24,2.62,1.97,3.88.76,1.3,1.66,2.55,1.86,4.11.18,1.41.27,2.83.55,4.21.31,1.51.55,3.05,1.21,4.47.85,1.81,1.75,3.6,2.54,5.44,1.13,2.6,2.69,4.93,4.53,7.05,1.98,2.28,4.55,3.76,7.37,4.87,6.16,2.43,12.36,3.12,19.04.67Z"/>
    <path class="cls-2" d="M123.46,70.39c-6.68,2.44-12.89,1.76-19.04-.67-2.81-1.11-5.38-2.59-7.37-4.87-1.84-2.12-3.4-4.45-4.53-7.05-.79-1.84-1.7-3.62-2.54-5.44-.66-1.42-.9-2.96-1.21-4.47-.29-1.38-.37-2.81-.55-4.21-.2-1.56-1.1-2.81-1.86-4.11-.73-1.26-1.36-2.56-1.97-3.88-1.08-2.32-.61-4.62.33-6.75.66-1.49,2.37-2.03,3.91-2.41,1.73-.44,3.52-.53,5.29-.14,2.52.56,4.29-1.72,4.33-3.57.04-1.91.13-3.78.74-5.63.92-2.78,2.58-4.98,4.97-6.61,1.47-1,3.18-.86,4.77-.34,3.62,1.2,6.61,3.34,8.85,6.45.59.81,1.35,1.17,2.31,1.17,1.31,0,2.51-.41,3.74-.88,3.65-1.38,8-.57,10.17,2.63.5.74.71,1.58.81,2.46.22,2,.1,4-.18,5.98-.14.97.11,1.76.85,2.43.65.58.9,1.41,1.12,2.22,1.46,5.45,2.47,10.95,2.19,16.63-.11,2.28-.67,4.43-1.48,6.57-.5,1.32-.87,2.69-1.42,4-1.57,3.71-4.39,6.23-7.78,8.22-1.53.9-3.06,1.81-4.43,2.27ZM105.55,30.29c-1.56.22-2.66,1.36-3.42,2.94-.35.73-.72,1.44-1.07,2.17-.65,1.39-1.41,2.55-2.95,3.27-1.43.66-2.9,1.51-3.76,2.96-1.91,3.21-2.07,6.61-.81,10.05.68,1.85,1.76,3.52,2.84,5.15,1.17,1.77,2.75,3.26,4.41,4.61,3.04,2.47,6.67,3.57,10.41,4.44,2.83.66,5.61.86,8.38-.24.53-.21,1.13-.25,1.71-.33.56-.08,1.05-.29,1.55-.53,3.4-1.57,5.81-4.23,7.94-7.2.66-.92,1.24-1.9,1.59-2.98,1.13-3.49,1.67-7.08,1.87-10.74.48-8.52-7.25-14.79-15.55-12.62-1.56.41-3.18.68-4.53-.73-.28-.3-.73-.53-1.21-.7-2.46-.87-4.81-.37-7.41.48Z"/>
    <path class="cls-3" d="M105.55,30.29c2.6-.85,4.95-1.34,7.41-.48.48.17.92.4,1.21.7,1.35,1.41,2.97,1.14,4.53.73,8.3-2.17,16.03,4.09,15.55,12.62-.21,3.66-.74,7.25-1.87,10.74-.35,1.08-.93,2.06-1.59,2.98-2.13,2.97-4.54,5.62-7.94,7.2-.5.23-.99.45-1.55.53-.57.08-1.18.12-1.71.33-2.77,1.1-5.56.9-8.38.24-3.74-.87-7.37-1.97-10.41-4.44-1.66-1.35-3.24-2.83-4.41-4.61-1.07-1.63-2.16-3.31-2.84-5.15-1.26-3.45-1.11-6.85.81-10.05.86-1.44,2.33-2.3,3.76-2.96,1.54-.71,2.3-1.88,2.95-3.27.34-.73.72-1.45,1.07-2.17.75-1.57,1.86-2.72,3.42-2.94ZM101.33,41.83c-2.25.7-3.5,2.23-3.74,4.38-.37,3.26.37,6.13,2.75,8.5,2.11,2.11,4.46,3.86,7.06,5.36,2.63,1.52,5.26,2.52,8.34,2.07,1.85-.27,3.66-.52,5.38-1.41,4.54-2.36,7.18-6.09,8.28-10.98.5-2.21.59-4.47.75-6.73.43-6.24-7.01-9.54-11.12-7.16-1.41.82-2.87.95-4.18-.34-.41-.4-.92-.72-1.39-1.04-2.85-1.96-6.73-1.18-8.57,1.72-.8,1.26-1.38,2.64-1.88,4.03-.33.91-.82,1.52-1.68,1.59Z"/>
    <path class="cls-1" d="M101.33,41.83c.86-.08,1.35-.68,1.68-1.59.5-1.39,1.08-2.77,1.88-4.03,1.84-2.9,5.72-3.68,8.57-1.72.48.33.98.64,1.39,1.04,1.31,1.29,2.76,1.16,4.18.34,4.11-2.38,11.54.92,11.12,7.16-.15,2.26-.25,4.52-.75,6.73-1.1,4.89-3.74,8.62-8.28,10.98-1.72.89-3.53,1.14-5.38,1.41-3.08.45-5.71-.55-8.34-2.07-2.6-1.51-4.94-3.25-7.06-5.36-2.38-2.37-3.12-5.25-2.75-8.5.24-2.15,1.49-3.68,3.74-4.38Z"/>
  </g>
  <g>
    <path class="cls-3" d="M67.28,34.87c1.36,1.5,2.09,3.31,2.62,5.23.56,2.03.94,4.09.98,6.2.02,1.12.19,2.14,1.09,2.96.46.42.77,1.03,1.11,1.58,2.97,4.82,4.78,10.07,5.62,15.65.7,4.69.02,9.2-2.06,13.47-.62,1.28-1.3,2.53-2.03,3.75-1.94,3.21-3.98,6.37-7.08,8.59-4.12,2.94-8.62,4.99-13.73,5.63-7.28.91-13.93-.55-19.59-5.24-4.32-3.57-7.88-7.89-10.58-12.85-1.56-2.87-3.01-5.79-3.35-9.11-.04-.44-.33-.59-.59-.81-1.89-1.63-3.69-3.36-4.84-5.61-1.08-2.1-2.54-4.12-1.7-6.71.21-.5.43-1.01.63-1.51,1.17-2.88,3.07-5.15,5.82-6.63,1.33-.72,2.74-1.3,4.13-1.91.39-.17.52-.35.5-.78-.21-4.11.82-7.93,2.88-11.48.68-1.16,1.58-2.11,2.7-2.86,3.05-2.05,6.39-2.42,9.93-1.78,3.29.59,5.83,2.51,8.24,4.64.54.48,1.11.87,1.77,1.15.58.24.98.19,1.45-.28.96-.95,1.94-1.91,3.03-2.7,4.24-3.06,8.46-3.24,12.36.39.23.35.42.73.7,1.04ZM72.6,79.62c1.42-2.67,2.43-5.46,2.46-8.48.03-2.8-.29-5.59-1.11-8.3-.58-1.91-1.05-3.86-1.58-5.79-.41-1.51-1.23-2.84-1.97-4.19-.68-1.24-1.53-2.38-2.31-3.57-.86-1.32-.98-2.86-1.24-4.34-.25-1.43-.63-2.83-1.01-4.23-.68-2.47-2.52-3.92-4.62-4.93-1.47-.71-3.12,0-4.54.69-1.6.79-3.02,1.88-4.12,3.32-1.56,2.05-4.38,1.46-5.61.08-1.27-1.43-2.55-2.8-4.21-3.81-2.5-1.53-5.2-2.13-8.07-1.82-1.77.19-2.98,1.4-3.85,2.83-1.98,3.26-2.87,6.83-2.57,10.65.08,1-.27,1.77-1.01,2.39-1,.84-2.18,1.31-3.42,1.75-3.68,1.31-6.46,4.75-6.04,8.59.1.89.48,1.67.97,2.4,1.13,1.67,2.51,3.11,4.01,4.44.73.65,1.06,1.41.93,2.4-.12.86.22,1.66.58,2.42,2.41,5.1,5.21,9.94,9.1,14.09,1.56,1.66,3.38,2.95,5.38,4.04,1.24.68,2.4,1.49,3.67,2.12,3.6,1.81,7.38,1.91,11.25,1.23,1.75-.31,3.5-.61,4.84-1.13,6.67-2.46,10.96-7,14.08-12.84Z"/>
    <path class="cls-2" d="M53.68,93.6c-3.87.68-7.65.58-11.25-1.23-1.27-.64-2.44-1.45-3.67-2.12-2-1.1-3.82-2.38-5.38-4.04-3.89-4.15-6.69-9-9.1-14.09-.36-.76-.7-1.55-.58-2.42.13-.99-.19-1.75-.93-2.4-1.5-1.33-2.88-2.78-4.01-4.44-.5-.73-.88-1.51-.97-2.4-.42-3.84,2.37-7.28,6.04-8.59,1.24-.44,2.41-.91,3.42-1.75.73-.62,1.09-1.39,1.01-2.39-.3-3.82.59-7.39,2.57-10.65.87-1.43,2.09-2.65,3.85-2.83,2.87-.3,5.57.3,8.07,1.82,1.66,1.01,2.94,2.39,4.21,3.81,1.23,1.38,4.05,1.97,5.61-.08,1.09-1.44,2.51-2.53,4.12-3.32,1.42-.7,3.07-1.4,4.54-.69,2.09,1.01,3.94,2.46,4.62,4.93.38,1.4.75,2.8,1.01,4.23.26,1.49.38,3.02,1.24,4.34.77,1.19,1.63,2.33,2.31,3.57.74,1.35,1.56,2.68,1.97,4.19.53,1.93,1,3.88,1.58,5.79.83,2.71,1.15,5.5,1.11,8.3-.03,3.02-1.04,5.81-2.46,8.48-3.12,5.84-7.41,10.38-14.08,12.84-1.34.53-3.09.82-4.84,1.13ZM40.25,54.73c-.25.44-.44.9-.47,1.31-.12,1.95-1.53,2.79-2.98,3.49-7.73,3.72-9.57,13.5-3.68,19.68,2.53,2.65,5.26,5.05,8.38,6.97.97.6,2.04.97,3.14,1.25,3.54.89,7.1,1.35,10.71.35.53-.15,1.05-.3,1.52-.6.49-.31.98-.67,1.52-.85,2.82-.96,4.81-2.91,6.54-5.25,2.29-3.08,4.34-6.28,5.06-10.13.39-2.1.63-4.26.38-6.36-.23-1.94-.49-3.92-1.17-5.76-1.27-3.44-3.59-5.93-7.12-7.14-1.59-.54-3.26-.24-4.78.18-1.63.45-2.97.06-4.36-.58-.73-.33-1.48-.64-2.22-.96-1.59-.71-3.18-.87-4.51-.03-2.53,1.04-4.64,2.18-5.96,4.43Z"/>
    <path class="cls-3" d="M50.71,50.33c.74.33,1.49.63,2.22.96,1.4.63,2.73,1.03,4.36.58,1.52-.42,3.19-.72,4.78-.18,3.53,1.21,5.85,3.7,7.12,7.14.68,1.84.94,3.83,1.17,5.76.26,2.11.02,4.26-.38,6.36-.72,3.85-2.77,7.04-5.06,10.13-1.73,2.33-3.72,4.29-6.54,5.25-.54.18-1.03.54-1.52.85-.47.3-.99.46-1.52.6-3.61,1-7.17.54-10.71-.35-1.1-.28-2.17-.65-3.14-1.25-3.12-1.92-5.86-4.32-8.38-6.97-5.88-6.18-4.05-15.96,3.68-19.68,1.45-.7,2.86-1.54,2.98-3.49.03-.41.21-.88.47-1.31,1.32-2.25,3.43-3.4,5.96-4.43,1.33-.84,2.91-.68,4.51.03ZM54.58,56.24c-1.29-.74-2.61-1.41-4.04-1.86-3.28-1.02-6.74.9-7.64,4.24-.15.56-.33,1.13-.39,1.7-.16,1.83-1.36,2.67-2.96,2.96-4.67.85-8.2,8.17-3.84,12.65,1.58,1.62,3.12,3.28,4.93,4.64,4,3.01,8.43,4.15,13.42,3,1.89-.43,3.43-1.42,5.02-2.41,2.64-1.65,4-4.12,5.02-6.98,1.01-2.83,1.66-5.68,1.91-8.66.28-3.35-1.02-6.02-3.41-8.26-1.58-1.48-3.52-1.84-5.69-.92-.71.5-1.47.36-2.32-.12Z"/>
    <path class="cls-1" d="M56.89,56.37c-.71.5-1.47.36-2.32-.12-1.29-.74-2.61-1.41-4.04-1.86-3.28-1.02-6.74.9-7.64,4.24-.15.56-.33,1.13-.39,1.7-.16,1.83-1.36,2.67-2.96,2.96-4.67.85-8.2,8.17-3.84,12.65,1.58,1.62,3.12,3.28,4.93,4.64,4,3.01,8.43,4.15,13.42,3,1.89-.43,3.43-1.42,5.02-2.41,2.64-1.65,4-4.12,5.02-6.98,1.01-2.83,1.66-5.68,1.91-8.66.28-3.35-1.02-6.02-3.41-8.26-1.58-1.48-3.52-1.84-5.69-.92Z"/>
  </g>
</svg>