<?xml version="1.0" encoding="UTF-8"?>
<svg id="Layer_1" data-name="Layer 1" xmlns="http://www.w3.org/2000/svg" viewBox="0 0 155.7 104.13">
  <defs>
    <style>
      .cls-1 {
        fill: #f4b8c6;
      }

      .cls-2 {
        fill: #faf1d6;
      }

      .cls-3 {
        fill: #090908;
      }
    </style>
  </defs>
  <g>
    <path class="cls-3" d="M68.62,37.25c.95,1.29,1.37,2.76,1.63,4.3.28,1.63.41,3.27.27,4.93-.07.88-.02,1.69.62,2.4.33.37.52.87.74,1.32,1.94,4.01,2.94,8.26,3.15,12.69.18,3.72-.72,7.2-2.69,10.38-.59.95-1.22,1.88-1.89,2.77-1.77,2.35-3.62,4.67-6.23,6.15-3.46,1.97-7.14,3.22-11.2,3.31-5.77.13-10.86-1.55-14.91-5.67-3.09-3.14-5.54-6.8-7.25-10.9-.99-2.37-1.89-4.77-1.89-7.4,0-.35-.21-.49-.4-.68-1.35-1.43-2.62-2.92-3.34-4.77-.68-1.73-1.66-3.43-.79-5.39.21-.38.41-.75.62-1.13,1.15-2.16,2.81-3.78,5.08-4.72,1.1-.45,2.25-.8,3.38-1.16.32-.1.43-.23.45-.57.16-3.24,1.27-6.14,3.17-8.75.62-.86,1.41-1.52,2.34-2.02,2.55-1.36,5.19-1.38,7.91-.6,2.53.73,4.36,2.43,6.08,4.29.38.42.8.77,1.3,1.04.43.24.75.23,1.16-.1.83-.67,1.67-1.34,2.59-1.87,3.57-2.06,6.88-1.86,9.64,1.29.15.29.27.6.46.87ZM69.21,72.7c1.33-1.97,2.34-4.08,2.6-6.44.25-2.19.22-4.4-.21-6.59-.3-1.54-.51-3.1-.78-4.66-.2-1.21-.74-2.32-1.21-3.44-.43-1.02-1.01-1.99-1.52-2.98-.57-1.1-.54-2.31-.62-3.5-.08-1.14-.26-2.27-.45-3.39-.33-1.99-1.66-3.27-3.22-4.23-1.09-.67-2.44-.25-3.61.18-1.32.49-2.52,1.23-3.49,2.27-1.38,1.48-3.55.79-4.4-.39-.88-1.22-1.77-2.4-2.99-3.32-1.83-1.39-3.9-2.08-6.17-2.07-1.4,0-2.45.86-3.24,1.91-1.81,2.39-2.79,5.11-2.86,8.13-.02.79-.36,1.36-.98,1.79-.85.58-1.81.85-2.81,1.1-2.98.73-5.43,3.2-5.42,6.24,0,.7.24,1.34.57,1.96.75,1.4,1.72,2.63,2.78,3.8.52.57.72,1.19.53,1.96-.16.67.04,1.32.26,1.94,1.48,4.18,3.28,8.2,5.99,11.76,1.09,1.43,2.41,2.58,3.89,3.59.91.63,1.76,1.36,2.71,1.96,2.67,1.7,5.62,2.08,8.71,1.86,1.39-.1,2.79-.19,3.88-.5,5.42-1.39,9.14-4.6,12.04-8.93Z"/>
    <path class="cls-1" d="M53.29,82.12c-3.08.22-6.03-.16-8.71-1.86-.94-.6-1.79-1.33-2.71-1.96-1.48-1.02-2.8-2.17-3.89-3.59-2.71-3.56-4.51-7.57-5.99-11.76-.22-.62-.42-1.27-.26-1.94.18-.76-.01-1.39-.53-1.96-1.07-1.16-2.03-2.4-2.78-3.8-.33-.61-.57-1.25-.57-1.96-.02-3.04,2.44-5.51,5.42-6.24,1-.25,1.96-.52,2.81-1.1.62-.43.96-1,.98-1.79.07-3.01,1.05-5.73,2.86-8.13.8-1.05,1.85-1.9,3.24-1.91,2.27,0,4.33.68,6.17,2.07,1.22.92,2.11,2.1,2.99,3.32.85,1.18,3.01,1.87,4.4.39.97-1.04,2.17-1.78,3.49-2.27,1.17-.43,2.52-.85,3.61-.18,1.56.96,2.89,2.24,3.22,4.23.19,1.13.37,2.25.45,3.39.09,1.18.06,2.4.62,3.5.51.99,1.09,1.95,1.52,2.98.47,1.12,1,2.23,1.21,3.44.26,1.55.47,3.11.78,4.66.43,2.19.46,4.39.21,6.59-.27,2.36-1.28,4.47-2.6,6.44-2.91,4.32-6.63,7.53-12.04,8.93-1.09.31-2.49.4-3.88.5ZM45.88,50.64c-.23.32-.42.67-.47.99-.25,1.51-1.42,2.06-2.61,2.49-6.35,2.29-8.57,9.8-4.46,15.11,1.76,2.28,3.71,4.37,6,6.13.71.54,1.52.92,2.36,1.23,2.7.98,5.45,1.62,8.35,1.13.43-.07.84-.15,1.24-.35.41-.21.82-.44,1.26-.55,2.29-.53,4-1.9,5.54-3.58,2.04-2.23,3.9-4.57,4.77-7.52.47-1.61.84-3.28.8-4.95-.03-1.53-.07-3.11-.46-4.6-.72-2.8-2.33-4.93-5-6.16-1.2-.55-2.53-.45-3.76-.24-1.31.22-2.33-.19-3.37-.8-.55-.32-1.11-.62-1.66-.93-1.19-.68-2.42-.93-3.52-.38-2.06.61-3.81,1.34-5.02,2.99Z"/>
    <path class="cls-3" d="M54.42,48.03c.55.32,1.11.61,1.66.93,1.04.61,2.05,1.03,3.37.8,1.22-.21,2.55-.31,3.76.24,2.67,1.23,4.28,3.36,5,6.16.39,1.5.43,3.07.46,4.6.03,1.67-.33,3.34-.8,4.95-.87,2.95-2.73,5.29-4.77,7.52-1.54,1.69-3.25,3.06-5.54,3.58-.44.1-.85.34-1.26.55-.39.2-.81.28-1.24.35-2.9.49-5.65-.15-8.35-1.13-.84-.3-1.65-.68-2.36-1.23-2.29-1.76-4.24-3.85-6-6.13-4.11-5.31-1.89-12.82,4.46-15.11,1.19-.43,2.36-.98,2.61-2.49.05-.32.24-.67.47-.99,1.21-1.66,2.95-2.38,5.02-2.99,1.11-.55,2.33-.3,3.52.38ZM56.97,52.96c-.95-.68-1.93-1.32-3.02-1.78-2.49-1.06-5.35.16-6.32,2.71-.16.43-.35.85-.44,1.3-.27,1.42-1.28,1.98-2.56,2.08-3.72.29-7.07,5.74-4.01,9.6,1.11,1.39,2.18,2.82,3.48,4.03,2.89,2.68,6.26,3.92,10.26,3.42,1.52-.19,2.8-.83,4.12-1.48,2.2-1.08,3.46-2.9,4.48-5.06,1.01-2.13,1.75-4.31,2.18-6.62.48-2.6-.32-4.79-2.01-6.74-1.12-1.29-2.6-1.72-4.38-1.17-.59.33-1.18.16-1.8-.28Z"/>
    <path class="cls-2" d="M58.78,53.24c-.59.33-1.18.16-1.8-.28-.95-.68-1.93-1.32-3.02-1.78-2.49-1.06-5.35.16-6.32,2.71-.16.43-.35.85-.44,1.3-.27,1.42-1.28,1.98-2.56,2.08-3.72.29-7.07,5.74-4.01,9.6,1.11,1.39,2.18,2.82,3.48,4.03,2.89,2.68,6.26,3.92,10.26,3.42,1.52-.19,2.8-.83,4.12-1.48,2.2-1.08,3.46-2.9,4.48-5.06,1.01-2.13,1.75-4.31,2.18-6.62.48-2.6-.32-4.79-2.01-6.74-1.12-1.29-2.6-1.72-4.38-1.17Z"/>
  </g>
  <g>
    <path class="cls-3" d="M83.07,35.94c.91-4.09,3.72-5.85,7.84-5.76,1.06.02,2.12.21,3.17.4.52.09.8-.05,1.07-.47.31-.48.5-.99.64-1.54.61-2.46,1.4-4.83,3.27-6.68,2.01-1.99,4.34-3.24,7.23-3.27,1.06-.01,2.07.2,3.03.65,2.92,1.38,5.29,3.39,6.98,6.16.18.29.34.35.67.29,1.17-.23,2.34-.47,3.53-.6,2.44-.27,4.68.36,6.72,1.7.36.24.72.46,1.08.7,1.7,1.3,1.66,3.27,1.89,5.11.25,1.97-.15,3.89-.64,5.79-.07.26-.19.49-.02.79,1.26,2.3,1.62,4.84,1.89,7.4.46,4.42.07,8.8-1.13,13.04-1.58,5.56-5.24,9.48-10.36,12.13-3.6,1.86-7.43,2.54-11.41,2.47-3-.05-5.73-1.19-8.42-2.41-1.02-.46-2.01-.97-2.99-1.52-3.25-1.84-5.71-4.46-7.34-7.81-1.94-3.99-3.11-8.2-3.33-12.65-.03-.51-.1-1.03.01-1.52.22-.93-.13-1.67-.61-2.4-.91-1.39-1.58-2.89-2.13-4.45-.51-1.48-.84-2.98-.63-4.56.04-.32,0-.65,0-.98ZM114.42,70.35c1.1-.26,2.37-.84,3.65-1.43,2.81-1.28,5.22-3.03,6.75-5.81.54-.98.93-2.02,1.43-3.01.81-1.6,1.42-3.24,1.69-5.02.67-4.42.32-8.81-.39-13.19-.11-.65-.24-1.32-.7-1.83-.53-.58-.66-1.22-.47-1.97.38-1.53.63-3.08.62-4.67,0-.7-.1-1.37-.44-1.99-1.44-2.68-4.78-3.66-7.75-2.87-1,.27-1.97.49-3,.39-.75-.07-1.32-.42-1.72-1.1-1.51-2.61-3.67-4.53-6.41-5.76-1.2-.54-2.53-.79-3.76-.12-2,1.08-3.48,2.67-4.42,4.78-.62,1.4-.84,2.86-1.03,4.35-.18,1.44-1.75,3.09-3.67,2.45-1.35-.45-2.76-.52-4.15-.32-1.23.18-2.62.46-3.25,1.58-.91,1.59-1.46,3.35-.79,5.25.38,1.08.76,2.15,1.23,3.19.49,1.08,1.1,2.13,1.13,3.37.03,1.11-.02,2.24.1,3.34.12,1.21.19,2.43.59,3.6.52,1.49,1.08,2.96,1.55,4.46.67,2.13,1.71,4.07,2.98,5.88,1.37,1.94,3.26,3.3,5.38,4.4,4.62,2.4,9.43,3.43,14.85,2.05Z"/>
    <path class="cls-1" d="M114.42,70.35c-5.42,1.38-10.23.35-14.85-2.05-2.11-1.1-4.01-2.46-5.38-4.4-1.27-1.8-2.31-3.75-2.98-5.88-.47-1.5-1.04-2.97-1.55-4.46-.4-1.16-.47-2.39-.59-3.6-.11-1.11-.07-2.23-.1-3.34-.03-1.24-.64-2.29-1.13-3.37-.47-1.04-.86-2.11-1.23-3.19-.66-1.9-.11-3.67.79-5.25.64-1.12,2.02-1.4,3.25-1.58,1.39-.2,2.8-.13,4.15.32,1.92.64,3.49-1.01,3.67-2.45.19-1.49.4-2.95,1.03-4.35.94-2.1,2.42-3.69,4.42-4.78,1.23-.67,2.56-.42,3.76.12,2.74,1.23,4.9,3.14,6.41,5.76.39.68.97,1.03,1.72,1.1,1.03.1,2-.12,3-.39,2.97-.79,6.3.2,7.75,2.87.33.62.43,1.29.44,1.99.01,1.59-.24,3.14-.62,4.67-.18.75-.06,1.39.47,1.97.46.51.59,1.18.7,1.83.71,4.38,1.06,8.77.39,13.19-.27,1.77-.88,3.42-1.69,5.02-.5.99-.9,2.04-1.43,3.01-1.53,2.78-3.93,4.53-6.75,5.81-1.27.58-2.54,1.17-3.65,1.43ZM103.61,37.53c-1.24.05-2.19.85-2.91,2.03-.33.54-.68,1.07-1.01,1.62-.62,1.03-1.31,1.89-2.57,2.32-1.17.4-2.39.95-3.18,2.01-1.75,2.36-2.15,5.01-1.44,7.8.38,1.5,1.1,2.9,1.81,4.26.77,1.48,1.89,2.77,3.08,3.96,2.18,2.17,4.94,3.33,7.79,4.31,2.16.74,4.32,1.12,6.58.48.43-.12.91-.11,1.36-.12.44-.02.84-.15,1.26-.29,2.79-.96,4.89-2.84,6.79-5,.59-.67,1.12-1.39,1.48-2.21,1.17-2.64,1.87-5.41,2.33-8.25,1.06-6.63-4.49-12.15-11.16-11.12-1.25.19-2.54.28-3.49-.93-.2-.25-.53-.47-.89-.64-1.86-.87-3.74-.67-5.84-.22Z"/>
    <path class="cls-3" d="M103.61,37.53c2.1-.46,3.98-.65,5.84.22.36.17.69.39.89.64.95,1.21,2.23,1.13,3.49.93,6.67-1.03,12.22,4.49,11.16,11.12-.45,2.85-1.16,5.61-2.33,8.25-.36.82-.89,1.54-1.48,2.21-1.9,2.15-4,4.04-6.79,5-.41.14-.81.27-1.26.29-.46.02-.93,0-1.36.12-2.26.64-4.42.26-6.58-.48-2.86-.98-5.61-2.13-7.79-4.31-1.19-1.19-2.31-2.48-3.08-3.96-.71-1.36-1.43-2.76-1.81-4.26-.71-2.8-.32-5.45,1.44-7.8.79-1.06,2.01-1.61,3.18-2.01,1.26-.43,1.95-1.29,2.57-2.32.33-.54.68-1.07,1.01-1.62.72-1.17,1.67-1.98,2.91-2.03ZM99.39,46.22c-1.82.37-2.92,1.46-3.28,3.13-.55,2.52-.2,4.83,1.47,6.87,1.48,1.82,3.18,3.37,5.09,4.76,1.94,1.4,3.92,2.4,6.36,2.29,1.47-.06,2.9-.11,4.33-.68,3.74-1.48,6.11-4.19,7.36-7.93.57-1.69.82-3.45,1.12-5.21.83-4.85-4.72-8.02-8.13-6.49-1.17.53-2.32.52-3.24-.6-.29-.35-.66-.63-1.01-.93-2.08-1.76-5.17-1.46-6.84.66-.73.92-1.29,1.95-1.79,3.01-.33.69-.77,1.12-1.45,1.11Z"/>
    <path class="cls-2" d="M99.39,46.22c.68,0,1.11-.43,1.45-1.11.51-1.05,1.06-2.08,1.79-3.01,1.67-2.12,4.77-2.42,6.84-.66.35.3.72.58,1.01.93.92,1.11,2.07,1.13,3.24.6,3.41-1.53,8.96,1.64,8.13,6.49-.3,1.75-.56,3.52-1.12,5.21-1.25,3.74-3.62,6.44-7.36,7.93-1.42.56-2.86.61-4.33.68-2.45.11-4.43-.89-6.36-2.29-1.91-1.39-3.61-2.94-5.09-4.76-1.67-2.05-2.02-4.36-1.47-6.87.36-1.66,1.46-2.76,3.28-3.13Z"/>
  </g>
</svg>