<?xml version="1.0" encoding="UTF-8"?><svg id="Layer_1" xmlns="http://www.w3.org/2000/svg" viewBox="0 0 191.49 191.49"><defs><style>.cls-1{fill:#5a544b;}.cls-1,.cls-2,.cls-3{stroke-width:0px;}.cls-2{fill:#fff;}.cls-3{fill:#ef800b;}</style></defs><rect class="cls-1" width="191.49" height="191.49"/><path class="cls-2" d="M19.72,85.31c0,4.83-.45,12.25-3.15,16.93-.66-.6-2.25-1.62-3.09-2.01,2.46-4.29,2.67-10.59,2.67-14.92v-7.56h10.69v-3.45h3.72v3.45h10.83v3.39h-21.67v4.17ZM19.18,98.27c1.26-2.28,1.89-5.76,2.19-9.09l3.21.69c-.33,3.45-.87,7.41-2.22,9.81l-3.18-1.41ZM32.57,98.54c.9,0,1.08-.69,1.2-4.83.75.63,2.22,1.2,3.15,1.44-.33,5.13-1.23,6.57-4.02,6.57h-3.33c-3.18,0-3.93-1.05-3.93-4.38v-10.47h3.54v10.44c0,1.08.12,1.23.96,1.23h2.43ZM32.9,88.25c-1.44-1.41-4.59-3.42-7.05-4.68l2.37-2.34c2.4,1.14,5.64,2.94,7.26,4.35l-2.58,2.67ZM38.15,88.4c1.77,3.12,3.51,7.08,3.99,9.81l-3.51,1.44c-.39-2.67-1.95-6.84-3.66-10.02l3.18-1.23Z"/><path class="cls-2" d="M66.15,92.48c1.71,1.08,3.87,2.01,6.09,2.52-.75.69-1.77,1.95-2.28,2.85-1.23-.42-2.49-.99-3.63-1.68-.27,2.91-.63,4.35-1.29,5.04-.63.57-1.32.78-2.19.87-.78.09-2.16.06-3.6.03-.06-.87-.39-2.04-.87-2.79,1.2.12,2.37.15,2.88.15.45,0,.72-.06.96-.27.27-.27.48-.9.63-2.16h-5.13c-1.26,2.61-3.78,4.32-9.21,5.4-.3-.84-1.11-2.07-1.71-2.73,3.69-.57,5.76-1.44,6.93-2.67h-4.8v-1.02c-1.05.54-2.22,1.05-3.45,1.5-.36-.81-1.35-2.01-2.04-2.52,2.31-.69,4.14-1.53,5.61-2.52h-4.68v-2.76h7.65c.27-.36.51-.72.72-1.08h-5.13v-8.46h20.53v8.46h-11.71c-.18.36-.36.72-.57,1.08h15.37v2.76h-5.07ZM51.05,78.67h-6.3v-2.82h6.3v-1.56h3.48v1.56h6.42v-1.56h3.51v1.56h6.33v2.82h-6.33v1.05h-3.51v-1.05h-6.42v1.05h-3.48v-1.05ZM51.02,83.41h13.51v-1.17h-13.51v1.17ZM51.02,86.57h13.51v-1.2h-13.51v1.2ZM58.83,92.93c-.06.54-.15,1.05-.27,1.56h5.34c-.78-.63-1.47-1.29-2.1-2.01h-8.04c-.69.72-1.44,1.38-2.34,2.01h3.69c.12-.48.21-.99.3-1.56h3.42Z"/><path class="cls-2" d="M80.59,79.18c-.45,2.01-1.44,8.61-1.44,11.62,0,.6.03,1.35.12,1.95.39-1.05.9-2.07,1.35-3.09l1.83,1.5c-.84,2.46-1.8,5.52-2.16,7.14-.09.42-.15,1.08-.15,1.41,0,.3.03.81.06,1.23l-3.39.27c-.63-2.1-1.2-5.52-1.2-9.6,0-4.53.9-10.2,1.23-12.52.12-.84.27-1.98.3-2.94l4.14.36c-.24.6-.6,2.13-.69,2.67ZM95.74,78.13c-.03.66-.06,1.77-.09,3.09,1.65-.15,3.21-.39,4.65-.69v3.75c-1.44.21-3,.39-4.65.51.06,2.91.21,5.31.33,7.35,2.49,1.02,4.38,2.55,5.82,3.87l-2.07,3.15c-1.26-1.17-2.46-2.22-3.66-3.03-.18,2.88-1.8,4.92-5.85,4.92s-6.72-1.74-6.72-4.89,2.58-5.13,6.66-5.13c.69,0,1.35.03,1.95.12-.06-1.86-.18-4.05-.21-6.18-.72.03-1.44.03-2.13.03-1.77,0-3.48-.06-5.25-.18v-3.57c1.71.18,3.45.27,5.25.27.69,0,1.41,0,2.1-.03,0-1.47-.03-2.7-.03-3.33,0-.45-.09-1.38-.21-1.98h4.29c-.09.57-.15,1.29-.18,1.95ZM89.8,97.52c1.83,0,2.46-.96,2.46-2.73v-.54c-.78-.21-1.59-.33-2.4-.33-1.71,0-2.85.72-2.85,1.86,0,1.23,1.2,1.74,2.79,1.74Z"/><path class="cls-2" d="M108.77,93.62c0,1.92,1.83,3.3,6.15,3.3,4.05,0,7.89-.45,10.53-1.2l.03,4.23c-2.61.63-6.21,1.02-10.42,1.02-6.87,0-10.32-2.31-10.32-6.42,0-1.74.36-3.21.6-4.32l3.93.36c-.3,1.08-.51,2.01-.51,3.03ZM114.92,78.22c2.97,0,6.39-.18,8.7-.42v3.99c-2.1.18-5.82.36-8.67.36-3.15,0-5.76-.12-8.19-.33v-3.96c2.22.24,5.01.36,8.16.36Z"/><path class="cls-2" d="M138.78,78.82c-.06.27-.12.6-.18.93,3.42-.18,7.47-.63,11.11-1.41l.06,3.57c-3.12.51-7.89,1.08-11.92,1.29-.42,1.83-.9,3.75-1.35,5.22,2.43-1.35,4.77-1.89,7.44-1.89,4.86,0,8.07,2.58,8.07,6.42,0,6.75-6.51,9.18-16.21,8.13l-1.05-3.87c6.57,1.08,13.21.27,13.21-4.14,0-1.8-1.53-3.3-4.47-3.3-3.45,0-6.51,1.23-8.31,3.51-.33.42-.54.81-.84,1.32l-3.54-1.26c1.44-2.79,2.64-6.78,3.42-10.08-1.89-.03-3.66-.12-5.19-.27v-3.72c1.8.3,4.05.54,5.88.57.06-.45.12-.87.18-1.23.18-1.29.21-2.04.15-3.03l4.26.18c-.33,1.05-.51,2.07-.72,3.06Z"/><path class="cls-2" d="M160.85,88.58c2.73-1.98,5.7-2.85,8.85-2.85,5.25,0,8.31,3.24,8.31,6.87,0,5.46-4.32,9.66-16.81,8.61l-1.14-3.93c9,1.23,13.78-.96,13.78-4.77,0-1.95-1.86-3.39-4.47-3.39-3.39,0-6.45,1.26-8.34,3.54-.54.66-.84,1.14-1.11,1.74l-3.45-.87c.6-2.94,1.29-8.82,1.5-12.55l4.02.57c-.39,1.65-.93,5.31-1.14,7.02ZM173.81,77.86l-.9,3.66c-3.03-.39-9.72-1.8-12.07-2.4l.96-3.6c2.85.9,9.39,2.04,12.01,2.34Z"/><rect class="cls-3" x="44.5" y="114.64" width="103.85" height="2.56"/></svg>