<?xml version="1.0" encoding="utf-8"?>
<!-- Generator: Adobe Illustrator 27.7.0, SVG Export Plug-In . SVG Version: 6.00 Build 0)  -->
<svg version="1.1" id="Layer_1" xmlns="http://www.w3.org/2000/svg" xmlns:xlink="http://www.w3.org/1999/xlink" x="0px" y="0px"
	 viewBox="0 0 320 43" style="enable-background:new 0 0 320 43;" xml:space="preserve">
<style type="text/css">
	.st0{fill-rule:evenodd;clip-rule:evenodd;fill:#F0810D;}
	.st1{fill:#F0810D;}
	.st2{fill:#FFFFFF;}
	.st3{fill:#DE6927;}
	.st4{fill:#6EB2CD;}
</style>
<path id="Path_313" class="st0" d="M67.2,6.8c0,0.2,0,0.4,0,0.7c0,0,0.1,0.3,0.1,0.4c0.1,0.2,0.2,0.4,0.4,0.6
	c0.1,0.1,0.2,0.2,0.3,0.2l0,0c0,0,0,0,0,0c0.1,0,0.1,0,0.2,0.1c0.1,0,0.1,0,0.2,0c0.2,0,0.3,0,0.5,0c0,0,0,0,0.1,0
	c0.1,0,0.1,0,0.2-0.1c0.1,0,0.1-0.1,0.1-0.2c0.1-0.3-0.1-0.3-0.1-0.4c0,0-0.1-0.2-0.1-0.2c-0.1-0.1-0.2-0.2-0.3-0.3
	c-0.1-0.1-0.1-0.1-0.2-0.1c0,0,0,0-0.1-0.1s-0.1,0-0.1-0.1c-0.2-0.2-0.4-0.4-0.7-0.5c-0.1,0-0.2,0-0.2,0c-0.1,0-0.1-0.1-0.2-0.1
	C67.3,6.8,67.2,6.8,67.2,6.8"/>
<path id="Path_314" class="st0" d="M67.3,6.1c0,0,0,0,0.1,0.1c0,0,0,0.1,0.1,0.1c0.1,0,0.2,0.3,0.5,0.1c0.2-0.1,0.1-0.1,0.2-0.2
	c0.2-0.1,0.3-0.2,0.4-0.3c0.3-0.3,0.2-0.4,0.4-0.6c0-0.1,0.1-0.2,0.1-0.2c0,0,0.1,0,0.1-0.1c0,0,0.1-0.1,0.1-0.1
	c0.2-0.2,0.2-0.3,0.4-0.2c0.1,0.1,0.3,0.2,0.5,0c0.1-0.1,0.1-0.2,0.1-0.3l0-0.1c-0.3-0.1-0.7-0.1-1,0c-0.5,0.1-0.9,0.4-1.3,0.7
	c0,0,0,0-0.1,0.1c-0.2,0.2-0.3,0.4-0.4,0.6C67.4,6,67.4,6.1,67.3,6.1"/>
<path id="Path_315" class="st0" d="M70.3,9.6c-0.4,0-0.8,0-1.1-0.2C69,9.3,68.7,9.2,68.5,9c-0.1,0-0.1-0.1-0.2-0.1c0,0,0,0,0,0l0,0
	c0,0,0,0,0.1,0c0.2,0.1,0.4,0.1,0.6,0v0c-0.2,0-0.3,0-0.5,0c-0.1,0-0.1,0-0.2,0c-0.1,0-0.1,0-0.2-0.1c0,0,0,0,0,0c0,0,0,0,0,0
	c0,0,0,0,0,0s0,0,0,0c-0.2-0.1-0.3-0.2-0.5-0.4c-0.1-0.1-0.1-0.1-0.2-0.2c0,0-0.1-0.3-0.1-0.3c0.1,0.3,0.2,0.6,0.4,0.9
	C67.8,9,68,9.2,68.2,9.4c0.3,0.2,0.6,0.3,1,0.3C69.6,9.7,70,9.7,70.3,9.6"/>
<path id="Path_316" class="st0" d="M67.2,6.2c0,0,0.2-0.3,0.2-0.4c0.4-0.7,1-1.2,1.7-1.4c0.4-0.1,0.7-0.1,1.1-0.1
	c0-0.1-0.3-0.2-0.4-0.2c-0.7-0.1-1.4,0.2-1.9,0.7c-0.1,0.1-0.2,0.2-0.3,0.4C67.4,5.5,67.3,5.9,67.2,6.2"/>
<path id="Path_317" class="st0" d="M71.3,5L71.3,5C71.3,5,71.3,5,71.3,5C71.2,4.9,71.2,4.9,71.3,5C71.2,4.9,71.2,4.9,71.3,5
	C71.2,5,71.3,5,71.3,5"/>
<path id="Path_318" class="st0" d="M70.6,4.8c0,0.1-0.1,0.1-0.2,0.2c-0.1,0.2-0.1,0.2-0.2,0.3c0,0-0.1,0.1-0.1,0.1
	c-0.2,0.2,0,0.1-0.2,0.1c-0.2,0.1-0.4,0.2-0.5,0.4c0,0-0.1,0-0.1,0.1c0,0,0,0.1-0.1,0.1S69,6.2,69,6.3c0,0.2,0,0.4,0.1,0.6
	c0,0.1,0.1,0.2,0.1,0.2s0.1,0.1,0.2,0.2c0.3,0.2,0.3,0.1,0.4-0.2c0-0.1,0.1,0,0.1-0.1c0.1-0.1,0.2-0.3,0.2-0.3
	c0.1,0.1,0.2,0.1,0.3,0.1c0,0.1-0.1,0.3-0.1,0.5c0,0.2,0,0.4,0,0.6c-0.2,0-0.3-0.1-0.5,0.2c0,0-0.1,0.1-0.2,0.2
	c-0.1,0.1-0.1,0.2-0.1,0.3c-0.1,0.5,0.3,0.8,0.8,0.5c0.1-0.1,0.2-0.1,0.3-0.2c0.2-0.1,0.1-0.2,0.3-0.2c0.1,0,0.1-0.1,0.3-0.1
	c0.2,0,0.4-0.1,0.5-0.3c0.1-0.1,0.1-0.2,0.1-0.2C72,8,72,7.9,72,7.8c0.1-0.3,0.2-0.6,0.1-0.8c0-0.5-0.2-1-0.5-1.5
	c-0.1-0.2-0.3-0.4-0.4-0.5c0,0,0,0-0.1,0c0,0,0,0,0,0L71,4.8c-0.1,0-0.1-0.1-0.2-0.1c0,0-0.1,0-0.1,0S70.6,4.8,70.6,4.8"/>
<path id="Path_319" class="st1" d="M106.3,10.7L106.3,10.7c1.3,0,2.4,1.1,2.4,2.4c0,0,0,0,0,0v11.4c-0.1,1.1,0.1,2.3,0.5,3.4
	c0.6,1.3,1.8,1.9,3.7,1.9c1.9,0,3.1-0.6,3.7-1.9c0.4-1.1,0.6-2.2,0.5-3.4V13.1c0-1.3,1.1-2.4,2.4-2.4c1.3,0,2.4,1.1,2.4,2.4v11.4
	c0.1,1.9-0.3,3.8-1.1,5.6c-1.4,2.4-4,3.6-7.9,3.6s-6.5-1.2-7.9-3.6c-0.8-1.7-1.2-3.6-1.1-5.6V13.1C103.9,11.8,105,10.7,106.3,10.7
	C106.3,10.7,106.3,10.7,106.3,10.7"/>
<path id="Path_320" class="st1" d="M140.8,23.5c-1.7,1.2-3.7,1.8-5.7,1.7h-2.4c-1.3,0-2.4,1-2.4,2.4c0,0,0,0,0,0V31
	c0,1.3-1.1,2.4-2.4,2.4c-1.3,0-2.4-1.1-2.4-2.4V13c0-1.3,1.1-2.4,2.4-2.4c0,0,0,0,0,0h7.4c2-0.1,3.9,0.5,5.4,1.8c1.3,1.2,2,3,2,5.4
	C142.8,20.5,142.1,22.4,140.8,23.5 M137.1,15.4c-0.7-0.5-1.6-0.8-2.5-0.8h-1.9c-1.3,0-2.4,1-2.4,2.4c0,0,0,0,0,0v2
	c0,1.3,1.1,2.4,2.4,2.4h0h1.9c0.9,0.1,1.8-0.2,2.5-0.8c0.7-0.7,1-1.6,0.9-2.6C138.1,16.9,137.8,16,137.1,15.4"/>
<path id="Path_321" class="st1" d="M60.6,14.2c-2,2.7-3.9,5.5-5.6,8.5l-0.6,1.2l-0.1,0.1l0,0.3c0.1,0,0.2,0,0.3,0
	c0.2,0,0.5,0,0.9,0.1c0.3,0,0.6,0.1,0.7,0.1c0.8,0.1,1.5,0.3,2.3,0.5s1.4,0.4,1.8,0.5s1.1,0.4,2,0.7s1.5,0.6,1.9,0.7
	c0.2,0.1,0.3,0.2,0.4,0.4c0.1,0.2,0.1,0.4,0,0.6c-0.1,0.2-0.2,0.3-0.4,0.4c-0.2,0.1-0.4,0.1-0.6,0l-2-0.7l-2-0.7
	c-0.4-0.2-1-0.3-1.8-0.5S56.7,26,56,25.9c-0.2,0-0.4-0.1-0.5-0.1c-0.4,0-0.7-0.1-0.9-0.1l-0.1,0c0.1,2.8,0.2,4.9,0.3,6.2
	c0,0.2-0.1,0.4-0.2,0.5c-0.1,0.2-0.3,0.2-0.5,0.2c-0.2,0-0.4-0.1-0.5-0.2c-0.2-0.1-0.2-0.3-0.2-0.5c0-1.3-0.1-3.4-0.3-6.6
	c-0.1-0.1-0.2-0.2-0.3-0.3c-0.1-0.1-0.2-0.3-0.2-0.5c0-0.1,0-0.1,0-0.2c0,0,0-0.1,0.1-0.1c0-0.1,0.1-0.2,0.1-0.3l0.2-0.4
	c-0.1-1.3-0.1-2.5-0.2-3.5c0-0.7,0-2.4,0.1-5.1c0.1-1.6,0-3.3-0.2-4.9c0-0.2,0-0.4,0.2-0.6c0.1-0.2,0.3-0.3,0.5-0.3
	c0.2,0,0.4,0,0.6,0.2c0.2,0.1,0.3,0.3,0.3,0.5c0.2,1.7,0.2,3.4,0.2,5.1c-0.1,2.6-0.1,4.3-0.1,5l0,0.9c1.2-2,2.9-4.6,5.2-7.7
	c0.1-0.2,0.3-0.3,0.5-0.3c0.2,0,0.4,0,0.6,0.1c0.2,0.1,0.3,0.3,0.3,0.5C60.8,13.8,60.7,14,60.6,14.2"/>
<path id="Path_322" class="st1" d="M70.5,12c0.5,5.2,0.7,12.1,0.7,20.7c0,0.2-0.1,0.4-0.2,0.5c-0.3,0.3-0.7,0.3-1,0c0,0,0,0,0,0
	c-0.1-0.1-0.2-0.3-0.2-0.5c0-8.7-0.2-15.5-0.7-20.6c0-0.2,0-0.4,0.2-0.5c0.1-0.2,0.3-0.3,0.5-0.3c0.2,0,0.4,0,0.6,0.2
	C70.3,11.7,70.4,11.8,70.5,12"/>
<path id="Path_323" class="st1" d="M84.2,9.2c0.1,0.7,0.1,1.4,0.1,2.1c0,0.7,0,1.6,0,2.6c0,1,0,1.7,0,2c0,1.8-0.1,6.9-0.2,10.6
	s-0.2,4.2-0.2,6c0,0.2-0.1,0.4-0.2,0.5c-0.3,0.3-0.7,0.3-1,0c0,0,0,0,0,0c-0.1-0.1-0.2-0.3-0.2-0.5c0-1.2,0-0.3,0.1-1.8
	c-1.3,0.5-2.8,0.6-4.1,0.1c-0.9-0.2-1.8-0.7-2.5-1.3c-0.6-0.5-1.1-1.2-1.3-2c-0.2-0.7-0.3-1.5-0.2-2.2c0.1-0.7,0.3-1.4,0.7-2.1
	c0.4-0.6,0.9-1.2,1.5-1.6c0.6-0.4,1.4-0.6,2.1-0.7c1.5,0,3,0.7,4.1,1.8c0-1.7,0.1-5.5,0.1-6.8c0-0.4,0-1.1,0-2c0-1,0-1.8,0-2.5
	c0-0.6-0.1-1.3-0.1-1.9c0-0.2,0-0.4,0.2-0.6c0.1-0.2,0.3-0.3,0.5-0.3c0.2,0,0.4,0,0.6,0.2C84,8.9,84.1,9,84.2,9.2 M82.6,24.7
	c-1.4-1.6-2.7-2.3-3.9-2.3c-1,0-1.9,0.6-2.3,1.5c-0.3,0.5-0.4,1-0.5,1.5c-0.1,0.5,0,1.1,0.2,1.6c0.2,0.5,0.5,1,1,1.4
	c0.5,0.5,1.1,0.8,1.8,1c1.2,0.4,2.5,0.3,3.7-0.4c0,0,0.1,0,0.1,0c0-0.5,0-1.3,0.1-2.3S82.6,25.1,82.6,24.7L82.6,24.7z"/>
<path id="Path_324" class="st1" d="M94.8,15.3c-0.2-0.9-0.8-1.7-1.5-2.3c-0.6-0.5-1.3-0.7-2-0.7c-0.7,0.1-1.4,0.4-1.9,0.9
	c-0.6,0.7-1,1.6-1.1,2.5c-0.2,1-0.2,2.1,0.1,3.1c0.2,0.5,0.5,1,0.8,1.5c0.3,0.5,0.8,1.2,1.4,2s1,1.4,1.2,1.7c0.7,1,1.3,2.1,1.8,3.2
	c0.4,1,0.5,2.1,0.4,3.1c-0.2,1.1-0.9,2.1-1.9,2.6c-1.2,0.8-2.9,0.5-3.8-0.7c0,0,0,0,0,0c-0.7-1-1.2-2.2-1.3-3.5c0-0.2,0-0.4,0.2-0.6
	c0.1-0.2,0.3-0.3,0.5-0.3c0.4-0.1,0.8,0.2,0.9,0.6c0.1,1,0.5,2,1,2.8c0.2,0.3,0.4,0.5,0.7,0.6c0.4,0.1,0.8,0,1.1-0.2
	c0.6-0.3,1-0.9,1.1-1.5c0.1-0.8,0-1.7-0.3-2.5c-0.4-1-0.9-1.9-1.5-2.8c-0.2-0.3-0.6-0.8-1.2-1.6s-1.1-1.5-1.5-2.1
	c-0.3-0.5-0.6-1.1-0.9-1.7c-0.4-1.2-0.5-2.6-0.2-3.9c0.2-1.2,0.7-2.4,1.5-3.3c0.7-0.8,1.7-1.3,2.8-1.4c1.1-0.1,2.1,0.3,3,0.9
	c1,0.8,1.7,1.8,2.1,3c0.1,0.4-0.1,0.8-0.5,0.9c-0.2,0.1-0.4,0.1-0.6,0C95,15.6,94.8,15.5,94.8,15.3"/>
<path id="Path_325" class="st2" d="M0,21.5C0,33.4,9.9,43,22.1,43s22.1-9.6,22.1-21.5S34.3,0,22.1,0S0,9.6,0,21.5"/>
<path id="Path_326" class="st3" d="M22.1,41.6c11.5,0,20.8-9,20.8-20.1S33.6,1.3,22.1,1.3"/>
<path id="Path_327" class="st4" d="M22.1,1.3c-11.5,0-20.8,9-20.8,20.1s9.3,20.2,20.8,20.2"/>
<path id="Path_328" class="st2" d="M22.1,3.2L22.1,3.2L22.1,3.2C12,2.7,3.5,10.5,3,20.5c0,0.3,0,0.5,0,0.8
	c-0.1,10.3,8.9,19.1,19.2,18.4h0v0v0h0c10.2,0.6,19.2-8.2,19.2-18.4C41.3,11.3,33,3.1,22.9,3.2C22.7,3.2,22.4,3.2,22.1,3.2
	 M39.9,21.3c-2.2-0.2-4.4-0.3-6.6-0.4c-0.1-3.3-0.8-6.5-2.3-9.4c1.4-0.6,2.7-1.5,3.9-2.5C38.2,12.2,40,16.7,39.9,21.3 M22.1,3.2
	L22.1,3.2c3.2,1.8,5.8,4.5,7.4,7.7c-2.2,0.6-4.5,1-6.9,1C22.6,9,22.4,6.1,22.1,3.2 M21.4,20.7c-3,0-6.1,0.1-9.1,0.2
	c0.1-3.1,0.7-6.1,2-8.9c2.3,0.9,4.8,1.4,7.3,1.4C21.5,15.8,21.5,18.2,21.4,20.7 M21.4,22c0,1.9,0,3.7,0.1,5.6
	c-2.7,0-5.4,0.6-7.8,1.6c-0.9-2.4-1.3-4.9-1.4-7.4C15.4,22,18.4,22,21.4,22 M22.8,22c3,0,6.1-0.1,9.1-0.2c-0.1,2.6-0.5,5.1-1.4,7.5
	c-2.5-1.1-5.1-1.6-7.8-1.7C22.8,25.8,22.8,23.9,22.8,22 M22.8,20.7c0-2.4,0-4.9-0.1-7.3c2.5-0.1,5-0.6,7.3-1.5
	c1.3,2.8,1.9,5.9,2,8.9C28.9,20.7,25.8,20.7,22.8,20.7 M29,4.9c2.1,1,4,2.3,5.7,3.9c-1.3,0.7-2.7,1.3-4.2,1.8c0-0.1-0.1-0.1-0.1-0.2
	c-1.8-3.3-4.8-5.9-8.3-7.2C24.5,3.4,26.8,3.9,29,4.9 M22.1,3.2L22.1,3.2L22.1,3.2C21.9,6.1,21.7,9,21.6,12c-2.3,0-4.6-0.4-6.9-1
	C16.3,7.7,18.9,5,22.1,3.2L22.1,3.2L22.1,3.2 M22.1,3.2c-3.5,1.4-6.5,3.9-8.3,7.2c0,0.1-0.1,0.2-0.1,0.3c-1.5-0.5-2.9-1.1-4.2-1.8
	C12.8,5.5,17.3,3.5,22.1,3.2 M9.3,9c1.2,1,2.5,1.9,3.9,2.5c-1.5,2.9-2.2,6.1-2.3,9.4c-2.2,0.1-4.4,0.2-6.6,0.4
	C4.4,16.8,6.1,12.4,9.3,9 M15.2,37.8c-7.5-3.6-11-10-10.9-16.4c2.2,0.2,4.4,0.3,6.6,0.4c0,2.7,0.6,5.5,1.7,8
	c-1.4,0.7-2.7,1.6-3.8,2.7c1.3-0.8,2.7-1.4,4.2-1.9c0.3,0.6,0.5,1.1,0.9,1.7c1.9,3.2,4.8,6.3,8.3,7.6C19.7,39.5,17.4,38.8,15.2,37.8
	 M22.1,39.8c-3.2-1.9-5.8-4.7-7.4-8.1c-0.3-0.5-0.5-1-0.7-1.5c2.4-0.7,5-1.1,7.5-1.2C21.6,32.5,21.8,36.3,22.1,39.8L22.1,39.8
	 M22.1,39.8c0.3-3.4,0.5-7.2,0.6-10.8c2.5,0.1,5.1,0.5,7.5,1.2c-0.2,0.5-0.4,1-0.7,1.4C27.9,35,25.4,37.8,22.1,39.8L22.1,39.8
	 M22.2,39.7c3.5-1.3,6.4-4.3,8.3-7.6c0.3-0.5,0.6-1,0.8-1.6c1.5,0.5,2.9,1.2,4.2,2c-1.1-1.1-2.4-2.1-3.9-2.8
	c1.1-2.6,1.6-5.3,1.7-8.1c2.2-0.1,4.4-0.2,6.6-0.4C39.8,31.2,32,39.3,22.2,39.7"/>
<path id="Path_329" class="st2" d="M33.6,22c0.4,0.6,1.1,1,1.9,1.1c1.1-0.1,2-1.3,2.2-1.8c0.1-0.1,0.2-0.2,0.3-0.2
	c0.3,0,0.5-0.1,0.7-0.3c0.5-0.4,0.6-1.2,0.2-1.7c-0.1-0.1-0.2-0.2-0.4-0.3c-0.6-0.2-0.7,0.5-1.2,1c-0.2,0.2-0.3,0.5-0.2,0.7
	c0,0.1,0,0.2-0.1,0.3c-0.3,0.4-0.8,0.7-1.3,0.8c-0.5,0.1-1-0.1-1.2-0.6c0-0.1,0-0.1,0-0.2c-0.1-2.3-1.9-2.7-1.9-3
	c0-0.1,0.1-0.2,0.2-0.2c4.3-0.5,3.5-3.5,3.5-3.5c-0.2-0.6-0.2-1.3-0.1-1.9v0c1-4.1-4.4-4.5-5.8-3.6c-0.2,0.1-0.4,0.1-0.5,0
	c-0.2-0.2-0.6-0.2-0.9-0.1c-0.1,0.1-0.3,0.1-0.4,0C28,8.2,27,7.8,25.8,9.2c-1.6,1.9-1.1,3.9,0.1,5.5c0.2,0.3,0.4,0.6,0.4,1v0
	c0,0.1,0,0.1,0,0.2c-0.1,0.1-0.2,0.2-0.3,0.2h0c0,0-0.1,0-0.1,0c0,0,0,0,0,0l0,0c-0.1,0-0.1-0.1-0.1-0.1c0,0,0,0,0,0c0,0,0,0,0,0
	c-0.1-0.2,0-0.5,0.1-0.7c-0.2,0.1-0.4,0.3-0.6,0.6c-0.1,0.3,0,0.7,0.2,0.9c-0.9-0.1-0.3-1-0.3-1c-0.1,0.1-0.3,0.2-0.4,0.3
	c-0.4,0.3-0.5,0.9-0.2,1.3c0.1,0.1,0.2,0.2,0.4,0.3c0.4,0.1,0.8,0.2,1.1,0.1c0.1,0,0.2,0,0.2,0c1.4,0.4,1.7-0.9,1.7-1.3v0
	c0,0,0-0.1,0.1-0.1c0,0,0.1,0,0.1,0.1c0.1,0.9,0.9,1.5,1.8,1.4c0,0,0,0,0,0c0,0,0,0,0,0c0.1,0,0.2,0.1,0.2,0.2
	c0,0.1-0.1,0.2-0.1,0.2l0,0c-1-0.1-2,0-3,0.4c-1,0.4-1.9,1-2.7,1.8c-0.4,0.4-0.7,0.9-0.9,1.4c0,0,0,0-0.1,0.1
	c-0.5,0.2-1,0.6-1.2,1.1c0,0,0,0.1-0.1,0c-0.2,0-0.4,0-0.5,0.2c-0.2,0.2-0.4,0.2-0.6,0c-0.5-0.5-1.6-0.6-2.2-1.5
	c-0.8-1.3-1-3-2.1-3.4c-0.6-0.2-0.7,0-0.7-0.2c0-0.2,0.8-0.3,0.9-0.3h0l0.8-0.1c3.4-0.8,2.5-3.7,2.5-3.7s-0.4-2.6,0-2.7
	c0.6-0.2,1-0.7,1.2-1.3c0.1-0.7-0.5-0.5-0.5-0.5s-1.5,0.6-1.5-0.4s-1.3-0.4-1.1-0.7c0.1-0.2,0.1-0.4,0-0.5c0,0-0.1-0.2-0.4,0
	C17.8,7.7,17.2,8,17.2,8c0,0-0.1,0-0.1,0c0,0,0,0,0,0c0-0.3,0.1-0.5,0.1-0.8c0-0.7-1.3,0.3-1.8,0.7c0,0-0.1,0-0.1,0c0,0,0,0,0-0.1
	c0-0.7-1.5,0.1-1.5,0.1c-3.4,1.4-3.2,5.4-3.1,6.8s0.8,2,1.1,2s0.3-0.4,0.3-0.4c0.3,0.7,2.1,0.9,2.3,1.3c0.2,0.4-0.5,0.1-2.2,0.2
	c-1.5,0.1-2.9,0.7-3.9,1.8C8,19.7,8,19.9,7.7,20.1c-0.3,0.2-0.6,0.3-0.9,0.3c-0.2,0-0.4,0-0.6,0.1c-1.8,0.7-0.9,2-0.9,2
	c0.2,0.4,0.7,0.7,1.2,0.6c0.6-0.1,0.2-0.5,0.9-0.9c0.1-0.1,0.6,0.1,1-0.3c0.8-0.7,1.9-1.1,2.9-1.2c0.4,0,0.7,0.3,0.6,0.7
	c-0.1,0.7-0.4,1.4-0.9,2c-0.5,0.7-0.7,1.6-0.4,2.5c0,0,0,0,0,0c-0.4,0.9-1.2,1.6-2.1,2c-1.3,0.4-2.4-1.5-2.4-1.5
	c0.2-0.5,0-1-0.4-1.2c-0.1-0.1-0.2-0.1-0.4-0.1c-1.7-0.3-1.9,4-1.9,4.1c0,0.4,0.4,0.8,0.6,0.8c0.7,0.1,0.9-1.7,1.1-1.8
	c0.1-0.1,0.2-0.2,0.3-0.1c0,0,0.1,0.1,0.1,0.1c0.7,0.9,1.8,1.5,2.9,1.8l0,0c3.1,0.6,4.4-2.7,4.6-3.2c0,0,0.1-0.1,0.1-0.1
	c3,0.9,3.3,4.4,3.2,6.1c-0.1,1.7,0.9,1.3,2.5,0.8s1.8-0.6,1.4-1.3c-0.3-0.6-1.2-0.3-1.6-0.2c0,0-0.1,0-0.1,0c0,0,0,0,0,0
	c0.4-3.5-1-5.2-2.1-6.9c-0.5-0.7,0.1-2.6,0.2-2.7c0,0,0.1,0,0.1,0c0,0,0,0,0,0c0.7,1.2,1.8,2,3.1,2.4c0.7,0.2,1.4,0.2,2-0.1
	c0.2-0.1,0.3,0,0.4,0.1c0.5,0.4,1.5,0,1.9-0.5c0-0.1,0.3-0.2-0.1-1.2c-0.3-0.6,0.4-1.1,0.4-1.1c2.8-2.8,3.7-1.6,3.7-1.6l0,0
	c0.5,4.9-3.4,6-4.2,6.1c0,0-0.1,0.1-0.1,0.1c0,0,0,0,0,0c1.2,1.2,1.5,2.2,0.4,2.6c-0.4,0.1-0.8-0.1-1.1-0.6
	c-0.2-0.5-0.3-1.2-0.6-1.4c-0.4-0.3-1,0.4-1.5,1.1c-1.1,1.6-0.8,2.9-0.1,3s0.8-0.5,1-1.3c0.1-0.6,0.1-0.3,0.8,0.5
	c0.7,0.9,1.9,1.1,2.3,0.3c0.3-0.9,1.4-1.4,2.3-1.1h0c1.6,1,3.7,1.2,5.5,0.6c0.3-0.1,0.6,0,0.7,0.2c0.3,0.5,0.4,1,0.5,1.5
	c0,0.2,0,0.5,0,0.7c-0.1,0.2-0.1,0.4-0.1,0.6c0.2,1.5,2.7,0.7,3.8-0.1c0.4-0.2,0.6-0.7,0.3-1.1c0-0.1-0.1-0.1-0.1-0.2
	c-0.6-0.6-1.6-0.1-2,0.1s-0.3-0.2-0.3-0.2c0.3-1.2,0-2.5-0.9-3.4c-0.3-0.3,0-0.4,0-0.4c0.2,0,0.5-0.2,0.6-0.4c0.3-0.3,0-0.4,0-0.4
	c-0.8-0.4-1.6-1-2.2-1.6c-1.3-1.3-0.3-2.8,0-3.3S33.6,22,33.6,22"/>
<g id="Group_323" transform="translate(0 0)">
	<path id="Path_401" class="st1" d="M181.4,27.6c1,1.2,2.2,2.2,6.9,3.4c1,0.3,2,0.6,2,2c0.1,1.4-0.9,2.5-2.3,2.6c0,0,0,0,0,0
		c-1.8,0-8.4-2.2-11.1-7c-1.3,1.9-3.1,3.5-5.1,4.6c-1.7,0.9-4.4,2.3-6.1,2.3s-2.3-1.8-2.3-2.7c0-0.5,0.2-1,0.5-1.3
		c0.5-0.4,0.7-0.5,3.6-1.3c1.7-0.5,3.3-1.4,4.7-2.6h-7.3c-1.6,0-2.2-0.7-2.2-2.2c-0.1-1,0.7-1.9,1.7-2c0.2,0,0.3,0,0.5,0h0.9v-3.1
		c0-2.8,1.3-3.6,3.6-3.6h5.2c0-1.5,0.3-2.4,2.4-2.4c2,0,2,1.5,2,2.4h5.2c2.2,0,3.6,0.7,3.6,3.6v3.1h0.9c1.6,0,2.2,0.7,2.2,2.2
		c0,1.9-1.5,2-2.2,2L181.4,27.6z M180.7,9.7V9c0-1.5,1.4-1.6,2-1.6c1.1,0,2.4,0.1,2.4,1.6v0.7h3.6c0.7,0,2.2,0.1,2.2,2
		c0,1.5-0.5,2.2-2.2,2.2h-3.6v0.6c0,1.4-1,1.7-2.1,1.7c-1.3,0-2.3-0.4-2.3-1.7v-0.6h-7.8v0.6c0,1.4-1.2,1.7-2.1,1.7
		s-2.2-0.2-2.2-1.7v-0.6h-3.6c-1,0.2-2-0.5-2.1-1.5c0-0.2,0-0.3,0-0.5c0-1.5,0.5-2.2,2.2-2.2h3.6V9c0-1.5,1.4-1.6,2-1.6
		c0.9,0,2.3,0.1,2.3,1.6v0.7H180.7z M174.6,20.6H171c-0.4-0.1-0.8,0.2-0.8,0.6c0,0.1,0,0.1,0,0.2v2h4.3c0.1-0.6,0.2-1.2,0.2-1.8
		V20.6z M179,21.3c0,0.7-0.1,1.4-0.1,2.1h4.4v-2c0-0.4-0.2-0.8-0.6-0.8c-0.1,0-0.1,0-0.2,0H179L179,21.3z"/>
	<path id="Path_402" class="st1" d="M203.2,12.6c0.8-0.1,1.6,0.4,1.8,1.2c0,0.1,0,0.3,0,0.4c0,1.3-0.4,1.9-1.8,1.9H195
		c-0.9,0.1-1.7-0.4-1.8-1.3c0-0.2,0-0.3,0-0.5c0-1.6,0.9-1.8,1.8-1.8L203.2,12.6z M202.4,8.4c0.8-0.1,1.6,0.4,1.8,1.3
		c0,0.1,0,0.3,0,0.4c0,1.5-1,1.7-1.8,1.7h-6.7c-0.6,0-1.8,0-1.8-1.6c0-1.5,1-1.7,1.8-1.7H202.4z M202.2,17.1
		c0.9-0.2,1.7,0.4,1.8,1.3c0,0.2,0,0.3,0,0.5c0,1.6-1,1.7-1.8,1.7h-6.4c-0.9,0.1-1.7-0.4-1.8-1.3c0-0.2,0-0.3,0-0.5
		c0-1.6,1.1-1.7,1.8-1.7H202.2z M202.2,21.5c0.9-0.1,1.7,0.4,1.8,1.3c0,0.1,0,0.3,0,0.4c0,1.7-1.3,1.7-2,1.7h-6.3
		c-0.9,0.1-1.7-0.4-1.8-1.3c0-0.1,0-0.3,0-0.4c0-1.7,1.2-1.7,1.8-1.7H202.2z M204,31.6c0,2.8-0.5,3.4-3.3,3.4h-3.3
		c-2.8,0-3.3-0.6-3.3-3.4v-2.4c0-2.9,0.5-3.4,3.3-3.4h3.2c2.8,0,3.4,0.5,3.4,3.4L204,31.6z M200.4,29.6c0-0.3-0.2-0.5-0.4-0.5
		c0,0-0.1,0-0.1,0h-1.2c-0.3,0-0.5,0.1-0.6,0.4c0,0,0,0.1,0,0.1v1.6c0,0.3,0.2,0.5,0.5,0.6c0,0,0.1,0,0.1,0h1.2
		c0.3,0,0.5-0.2,0.5-0.5c0,0,0-0.1,0-0.1L200.4,29.6z M215.8,13.4c2.9,0,3.5,0.7,3.5,3.5v2.1h0.4c0.8-0.1,1.6,0.6,1.6,1.4
		c0,0.1,0,0.2,0,0.3c0,1.7-1.1,1.9-1.8,1.9H206c-0.9,0.1-1.7-0.4-1.8-1.3c0-0.1,0-0.3,0-0.4c0-1.5,0.7-1.9,1.9-1.9h1.6
		c0.2-0.8,0.5-1.6,0.6-2.4h-1c-0.8,0.1-1.6-0.4-1.8-1.3c0-0.1,0-0.2,0-0.3c-0.1-0.9,0.6-1.6,1.4-1.7c0.1,0,0.3,0,0.4,0h1.7
		c0.1-0.6,0.1-0.9,0.2-1.5h-2.5c-0.9,0.1-1.7-0.5-1.9-1.3c0-0.1,0-0.3,0-0.4c-0.1-0.9,0.5-1.7,1.4-1.8c0.2,0,0.3,0,0.5,0h12.4
		c0.9-0.1,1.7,0.5,1.9,1.3c0,0.1,0,0.3,0,0.4c0.1,0.9-0.5,1.7-1.4,1.8c-0.2,0-0.3,0-0.5,0h-5.6c-0.1,0.7-0.1,0.7-0.3,1.5L215.8,13.4
		z M220,31.2c0,3.1-0.6,3.8-3.7,3.8h-6.9c-3.1,0-3.8-0.6-3.8-3.8v-3.3c0-3.1,0.6-3.7,3.8-3.7h6.9c3.1,0,3.7,0.6,3.7,3.7V31.2z
		 M215.8,28.6c0-0.4-0.3-0.7-0.7-0.7c0,0,0,0,0,0h-4.5c-0.4,0-0.7,0.3-0.7,0.7c0,0,0,0,0,0v2c0,0.4,0.3,0.7,0.7,0.7h4.5
		c0.4,0,0.7-0.3,0.7-0.7c0,0,0,0,0,0V28.6z M212.5,16.7c-0.1,0.6-0.3,1.3-0.6,2.4h3.1v-1.7c0-0.4-0.3-0.7-0.6-0.7c0,0-0.1,0-0.1,0
		L212.5,16.7z"/>
	<path id="Path_403" class="st1" d="M181.4,27.6c1,1.2,2.2,2.2,6.9,3.4c1,0.3,2,0.6,2,2c0.1,1.4-0.9,2.5-2.3,2.6c0,0,0,0,0,0
		c-1.8,0-8.4-2.2-11.1-7c-1.3,1.9-3.1,3.5-5.1,4.6c-1.7,0.9-4.4,2.3-6.1,2.3s-2.3-1.8-2.3-2.7c0-0.5,0.2-1,0.5-1.3
		c0.5-0.4,0.7-0.5,3.6-1.3c1.7-0.5,3.3-1.4,4.7-2.6h-7.3c-1.6,0-2.2-0.7-2.2-2.2c-0.1-1,0.7-1.9,1.7-2c0.2,0,0.3,0,0.5,0h0.9v-3.1
		c0-2.8,1.3-3.6,3.6-3.6h5.2c0-1.5,0.3-2.4,2.4-2.4c2,0,2,1.5,2,2.4h5.2c2.2,0,3.6,0.7,3.6,3.6v3.1h0.9c1.6,0,2.2,0.7,2.2,2.2
		c0,1.9-1.5,2-2.2,2L181.4,27.6z M180.7,9.7V9c0-1.5,1.4-1.6,2-1.6c1.1,0,2.4,0.1,2.4,1.6v0.7h3.6c0.7,0,2.2,0.1,2.2,2
		c0,1.5-0.5,2.2-2.2,2.2h-3.6v0.6c0,1.4-1,1.7-2.1,1.7c-1.3,0-2.3-0.4-2.3-1.7v-0.6h-7.8v0.6c0,1.4-1.2,1.7-2.1,1.7
		s-2.2-0.2-2.2-1.7v-0.6h-3.6c-1,0.2-2-0.5-2.1-1.5c0-0.2,0-0.3,0-0.5c0-1.5,0.5-2.2,2.2-2.2h3.6V9c0-1.5,1.4-1.6,2-1.6
		c0.9,0,2.3,0.1,2.3,1.6v0.7H180.7z M174.6,20.6H171c-0.4-0.1-0.8,0.2-0.8,0.6c0,0.1,0,0.1,0,0.2v2h4.3c0.1-0.6,0.2-1.2,0.2-1.8
		V20.6z M179,21.3c0,0.7-0.1,1.4-0.1,2.1h4.4v-2c0-0.4-0.2-0.8-0.6-0.8c-0.1,0-0.1,0-0.2,0H179L179,21.3z"/>
	<path id="Path_404" class="st1" d="M203.2,12.6c0.8-0.1,1.6,0.4,1.8,1.2c0,0.1,0,0.3,0,0.4c0,1.3-0.4,1.9-1.8,1.9H195
		c-0.9,0.1-1.7-0.4-1.8-1.3c0-0.2,0-0.3,0-0.5c0-1.6,0.9-1.8,1.8-1.8L203.2,12.6z M202.4,8.4c0.8-0.1,1.6,0.4,1.8,1.3
		c0,0.1,0,0.3,0,0.4c0,1.5-1,1.7-1.8,1.7h-6.7c-0.6,0-1.8,0-1.8-1.6c0-1.5,1-1.7,1.8-1.7H202.4z M202.2,17.1
		c0.9-0.2,1.7,0.4,1.8,1.3c0,0.2,0,0.3,0,0.5c0,1.6-1,1.7-1.8,1.7h-6.4c-0.9,0.1-1.7-0.4-1.8-1.3c0-0.2,0-0.3,0-0.5
		c0-1.6,1.1-1.7,1.8-1.7H202.2z M202.2,21.5c0.9-0.1,1.7,0.4,1.8,1.3c0,0.1,0,0.3,0,0.4c0,1.7-1.3,1.7-2,1.7h-6.3
		c-0.9,0.1-1.7-0.4-1.8-1.3c0-0.1,0-0.3,0-0.4c0-1.7,1.2-1.7,1.8-1.7H202.2z M204,31.6c0,2.8-0.5,3.4-3.3,3.4h-3.3
		c-2.8,0-3.3-0.6-3.3-3.4v-2.4c0-2.9,0.5-3.4,3.3-3.4h3.2c2.8,0,3.4,0.5,3.4,3.4L204,31.6z M200.4,29.6c0-0.3-0.2-0.5-0.4-0.5
		c0,0-0.1,0-0.1,0h-1.2c-0.3,0-0.5,0.1-0.6,0.4c0,0,0,0.1,0,0.1v1.6c0,0.3,0.2,0.5,0.5,0.6c0,0,0.1,0,0.1,0h1.2
		c0.3,0,0.5-0.2,0.5-0.5c0,0,0-0.1,0-0.1L200.4,29.6z M215.8,13.4c2.9,0,3.5,0.7,3.5,3.5v2.1h0.4c0.8-0.1,1.6,0.6,1.6,1.4
		c0,0.1,0,0.2,0,0.3c0,1.7-1.1,1.9-1.8,1.9H206c-0.9,0.1-1.7-0.4-1.8-1.3c0-0.1,0-0.3,0-0.4c0-1.5,0.7-1.9,1.9-1.9h1.6
		c0.2-0.8,0.5-1.6,0.6-2.4h-1c-0.8,0.1-1.6-0.4-1.8-1.3c0-0.1,0-0.2,0-0.3c-0.1-0.9,0.6-1.6,1.4-1.7c0.1,0,0.3,0,0.4,0h1.7
		c0.1-0.6,0.1-0.9,0.2-1.5h-2.5c-0.9,0.1-1.7-0.5-1.9-1.3c0-0.1,0-0.3,0-0.4c-0.1-0.9,0.5-1.7,1.4-1.8c0.2,0,0.3,0,0.5,0h12.4
		c0.9-0.1,1.7,0.5,1.9,1.3c0,0.1,0,0.3,0,0.4c0.1,0.9-0.5,1.7-1.4,1.8c-0.2,0-0.3,0-0.5,0h-5.6c-0.1,0.7-0.1,0.7-0.3,1.5L215.8,13.4
		z M220,31.2c0,3.1-0.6,3.8-3.7,3.8h-6.9c-3.1,0-3.8-0.6-3.8-3.8v-3.3c0-3.1,0.6-3.7,3.8-3.7h6.9c3.1,0,3.7,0.6,3.7,3.7V31.2z
		 M215.8,28.6c0-0.4-0.3-0.7-0.7-0.7c0,0,0,0,0,0h-4.5c-0.4,0-0.7,0.3-0.7,0.7c0,0,0,0,0,0v2c0,0.4,0.3,0.7,0.7,0.7h4.5
		c0.4,0,0.7-0.3,0.7-0.7c0,0,0,0,0,0V28.6z M212.5,16.7c-0.1,0.6-0.3,1.3-0.6,2.4h3.1v-1.7c0-0.4-0.3-0.7-0.6-0.7c0,0-0.1,0-0.1,0
		L212.5,16.7z"/>
	<path id="Path_405" class="st1" d="M242.6,19.9c0.8-0.1,1.5,0.4,1.6,1.2c0,0.1,0,0.2,0,0.4c0.1,0.8-0.5,1.5-1.2,1.6
		c-0.1,0-0.3,0-0.4,0h-6.7v6.6c0,1.1-0.5,1.6-1.5,1.6c-0.7,0-1.6-0.2-1.6-1.6v-6.6h-6.7c-0.8,0.1-1.5-0.4-1.6-1.2c0-0.1,0-0.2,0-0.4
		c0-1.1,0.5-1.6,1.6-1.6h6.7v-6.7c0-1.1,0.5-1.6,1.5-1.6c0.7,0,1.6,0.2,1.6,1.6v6.7H242.6z"/>
	<path id="Path_406" class="st1" d="M252.4,9.7c-0.1-0.1-0.1-0.3-0.2-0.5c-0.1-0.2-0.2-0.4-0.2-0.7c0-0.8,1.1-0.9,1.4-0.9
		c0.4,0,0.8,0.1,1.2,1.2c0.1,0.3,0.2,0.5,0.2,0.8h1.1c0.2-0.3,0.3-0.7,0.5-1.1c0.2-0.6,0.4-0.9,1.1-0.9c0.5,0,1.3,0.2,1.3,1
		c0,0.3-0.1,0.4-0.4,1c0.8,0.1,1.3,0.4,1.3,1.7v0.9c0,0.9-0.5,1.1-1.1,1.1c-0.2,0-0.4,0-0.5-0.1c0,0.5-0.4,1-0.8,1.2
		c-0.5,0.4-1.1,0.7-1.7,0.9h3.5c0.5-0.1,1,0.3,1.1,0.8c0,0.1,0,0.1,0,0.2c0.1,0.5-0.3,1-0.9,1.1c-0.1,0-0.2,0-0.3,0h-4.4v1.6
		c0,1.7-0.8,1.8-2.5,1.8c-0.6,0-1.2,0-1.7-0.1c-0.6-0.1-0.7-0.8-0.7-1.1c-0.1-0.5,0.3-1,0.9-1.1c0.1,0,0.1,0,0.2,0
		c0.2,0,0.8,0,0.9,0c0.4,0,0.4-0.2,0.4-0.6v-0.6h-4.4c-0.5,0.1-1-0.3-1.1-0.8c0-0.1,0-0.2,0-0.2c0-0.9,0.5-1.1,1.1-1.1h4.4
		c0-0.2,0-0.5,0.5-0.6c0.2-0.1,0.8-0.3,0.8-0.5c0-0.1-0.1-0.1-0.1-0.1h-3.7c-0.3,0-0.9,0-1-0.9c-0.1,0-0.3,0.1-0.4,0.1
		c-0.8,0-1.2-0.3-1.2-1.1v-1c0-1.2,0.5-1.7,1.5-1.7c0-0.1-0.2-0.3-0.2-0.4c-0.1-0.2-0.2-0.4-0.2-0.7c0-0.5,0.6-1,1.3-1
		c0.4,0,0.8,0.1,1.2,1.1c0.1,0.3,0.2,0.6,0.3,0.9L252.4,9.7z M249.4,12.4c0.1,0,0.2-0.1,0.3-0.1h7c0.3,0,0.5,0,0.8,0.1v-0.5
		c0-0.1-0.1-0.2-0.2-0.2c0,0,0,0,0,0h-7.6c-0.1,0-0.2,0.1-0.2,0.2c0,0,0,0,0,0V12.4z"/>
	<path id="Path_407" class="st1" d="M278.4,8.4c0.5-0.1,0.9,0.3,0.9,0.7c0.1,0.5-0.3,0.9-0.7,0.9c-0.1,0-0.1,0-0.2,0h-0.9
		c-0.1,0.2-0.1,0.4-0.2,0.6h1.9c0.2,0,0.9,0,0.9,0.8c0,0.8-0.6,0.8-0.9,0.8h-11.5c-0.4,0.1-0.9-0.2-0.9-0.7
		c-0.1-0.4,0.2-0.9,0.7-0.9c0.1,0,0.2,0,0.2,0h2c-0.1-0.3-0.1-0.4-0.2-0.6h-1c-0.4,0.1-0.8-0.2-0.9-0.7c0-0.1,0-0.1,0-0.2
		c0-0.4,0.3-0.8,0.7-0.8c0.1,0,0.1,0,0.2,0h3.8c0-0.4,0.1-0.9,1.1-0.9c0.9,0,1.3,0.2,1.3,0.9L278.4,8.4z M274.5,17.3h4.1
		c0.4,0,0.7,0.1,0.7,0.7c0,0.5-0.3,0.7-0.7,0.7h-4.1V19h4.7c0.3,0,0.9,0,0.9,0.8s-0.6,0.8-0.9,0.8h-11.5c-0.4,0.1-0.9-0.2-0.9-0.7
		c0-0.1,0-0.1,0-0.2c0-0.8,0.7-0.8,0.9-0.8h4.7v-0.3h-4.1c-0.2,0-0.7,0-0.7-0.6c0-0.5,0.2-0.7,0.7-0.7h4.1V17h-2.6
		c-1.6,0-1.8-0.3-1.8-1.8v-0.6c0-1.6,0.3-1.8,1.8-1.8h7.5c1.6,0,1.8,0.3,1.8,1.8v0.6c0,1.6-0.3,1.8-1.8,1.8h-2.6V17.3z M272.3,14.3
		v-0.4h-1.9c-0.1,0-0.2,0.1-0.2,0.2c0,0,0,0,0,0.1v0.2L272.3,14.3z M272.3,15.3h-2.1v0.2c0,0.1,0.1,0.2,0.2,0.2c0,0,0,0,0,0h1.9
		V15.3z M271.9,10.1c0.1,0.2,0.1,0.3,0.2,0.6h2.7c0.1-0.2,0.1-0.4,0.2-0.6H271.9z M274.5,14.3h2.2v-0.2c0-0.1-0.1-0.2-0.2-0.2
		c0,0,0,0-0.1,0h-1.9V14.3z M274.5,15.3v0.5h1.9c0.1,0,0.2-0.1,0.2-0.2c0,0,0,0,0-0.1v-0.2H274.5z"/>
	<path id="Path_408" class="st1" d="M290,20c0,0.6-0.5,1.1-1.1,1.1c-0.6,0-1.1-0.5-1.1-1.1c0,0,0,0,0-0.1v-4.9
		c-0.7,0.1-1.3-0.5-1.4-1.2c0-0.1,0-0.1,0-0.2c0-0.5,0.2-0.9,0.5-1.2c0.7-1.2,1.3-2.5,1.5-3.9c0.1-0.5,0.2-1,1.1-1
		c0.4,0,1.2,0.1,1.2,0.9c-0.1,1-0.3,1.9-0.7,2.8L290,20z M291.4,15.9c-0.5,0.1-1-0.3-1.1-0.8c0-0.1,0-0.1,0-0.2
		c0-0.8,0.4-1.1,1.1-1.1h2.6v-0.7h-1.3c-1.1,0-1.8-0.4-1.8-1.7V9.8c0-1.4,0.6-1.8,1.8-1.8h4.8c1.1,0,1.7,0.4,1.7,1.8v1.5
		c0,1.4-0.6,1.7-1.7,1.7h-1.3v0.7h2.6c0.5-0.1,1,0.3,1.1,0.8c0,0.1,0,0.1,0,0.2c0,0.8-0.4,1.1-1.1,1.1h-1.5c0.6,0.9,1.4,1.7,2.2,2.4
		c0.3,0.2,0.4,0.5,0.4,0.8c0,0.7-0.5,1.2-1.2,1.3c-0.4,0-0.7-0.2-1.2-0.9c-0.5-0.6-0.9-1.2-1.3-1.8V20c0.1,0.5-0.3,1-0.8,1.1
		c-0.1,0-0.2,0-0.2,0c-0.8,0-1.1-0.3-1.1-1.1v-2.1c-0.6,0.8-1.2,1.5-1.9,2.1c-0.2,0.2-0.5,0.4-0.8,0.4c-0.7-0.1-1.2-0.6-1.2-1.3
		c0-0.5,0.3-0.7,0.7-1c0.9-0.6,1.7-1.3,2.3-2.2L291.4,15.9z M297,10.3c0-0.2-0.1-0.3-0.3-0.3c0,0-0.1,0-0.1,0h-3
		c-0.2,0-0.3,0.1-0.3,0.3c0,0,0,0.1,0,0.1v0.5c0,0.2,0.1,0.3,0.3,0.3c0,0,0.1,0,0.1,0h3c0.2,0,0.3-0.1,0.3-0.3c0,0,0-0.1,0-0.1V10.3
		z"/>
	<path id="Path_409" class="st1" d="M316.8,13.3c0.3,0,0.7,0,1,0.2c-0.2-0.1-0.2-0.2-0.9-0.7c-0.5,0.1-1.2,0.1-3.1,0.2
		c-0.9,0-5.6,0.2-5.8,0.2c-0.8,0-1.1-0.3-1.1-1c0-0.7,0.3-0.9,1-0.9c0.2,0,1.3,0,1.5,0c0-0.1,0.3-0.4,0.5-0.8h-2.4c-0.7,0-1-0.3-1-1
		c-0.1-0.4,0.3-0.9,0.7-0.9c0.1,0,0.2,0,0.2,0h4.5c0-0.7,0.4-0.9,1.3-0.9c1,0,1.2,0.3,1.2,0.9h4.6c0.7,0,1,0.3,1,1
		c0.1,0.5-0.3,0.9-0.7,0.9c-0.1,0-0.2,0-0.2,0h-1.6c2,1.3,2.2,1.7,2.2,2c0,0.7-0.6,1.2-1.2,1.2c-0.2,0-0.3,0-0.5-0.1
		c0.5,0.3,0.7,0.9,0.6,1.5v4.3c0.1,0.6-0.2,1.1-0.6,1.5c-0.2,0.2-0.4,0.3-2.2,0.3c-1.4,0-2.1,0-2.1-1.1c0-0.5,0.3-0.9,0.8-1
		c0.1,0,0.1,0,0.2,0c0.1,0,1.1,0,1.2,0c0.2,0,0.4,0,0.4-0.3v-0.3h-5.9V20c0,0.7-0.3,1.1-1.2,1.1c-0.5,0.1-1.1-0.3-1.1-0.9
		c0-0.1,0-0.2,0-0.3v-4.9c0-1.4,0.6-1.8,1.8-1.8L316.8,13.3z M310.3,15.4h5.9v-0.2c0-0.1-0.1-0.2-0.2-0.2c0,0,0,0,0,0h-5.5
		c-0.1,0-0.2,0.1-0.2,0.2c0,0,0,0,0,0L310.3,15.4z M316.2,16.7h-5.9v0.4h5.9L316.2,16.7z M312.5,10.4c-0.1,0.1-0.5,0.7-0.6,0.8
		c0,0,1.6,0,3-0.1c0-0.1-0.1-0.2-0.1-0.3c0-0.1,0-0.3,0.1-0.4H312.5z"/>
	<path id="Path_410" class="st1" d="M247.8,34.3c-0.6,0-1.1-0.5-1.1-1.2c0,0,0-0.1,0-0.1c0-0.5,0.4-0.9,0.9-1
		c0.5-0.9,0.7-1.1,1.5-2.4c-0.5-0.6-0.7-0.8-1.4-1.5c-0.7-0.7-0.9-1-0.9-1.4c-0.1-0.6,0.4-1.1,1-1.2c0.1,0,0.2,0,0.3,0.1
		c0.4-0.8,0.7-1.5,0.9-2.2c0.4-0.9,0.6-1.3,1.2-1.3c0.7,0,1.2,0.5,1.3,1.1c0,0.7-1.3,2.9-1.8,3.8c0.1,0.1,0.2,0.2,0.5,0.6
		c0.2-0.5,0.6-1.2,0.9-1.7c0.1-0.4,0.5-0.6,0.9-0.6c0.2,0,0.4,0,0.6,0.1c0.1-0.6,0.4-0.9,1.2-0.9h0.5v-1.5c0-0.4,0.1-1.1,1-1.1
		c0.8,0,1.2,0.3,1.2,1.1v1.5h1.2c1.2,0,2.2,0,2.2,1.8c0,2.1-0.1,4.3-0.3,6.4c-0.3,2.4-0.8,2.6-2.9,2.6c-0.3,0-0.6,0-1-0.1
		c-0.5-0.2-0.9-0.7-0.8-1.2c0-0.7,0.4-1.2,1-1.2c0.1,0,0.7,0,0.8,0c0.4,0,0.6-0.1,0.7-1.4c0.1-0.9,0.1-3.4,0.1-4.4
		c0-0.3-0.1-0.3-0.4-0.3h-0.7c-0.1,4.5-1.6,6.5-2.1,7.3c-0.8,1-1.1,1.1-1.5,1.1c-0.7,0-1.3-0.4-1.3-1.1c0-0.4,0.1-0.4,0.4-0.9
		C250.1,33.9,248,34.3,247.8,34.3 M250.1,31.7c0.5-0.1,1-0.2,1.4-0.2c-0.1-0.4-0.3-1.1-0.3-1.3c0-0.1,0-0.2,0-0.2
		C250.7,30.9,250.6,31,250.1,31.7 M253.6,27c-0.2,0-0.5,0-0.7-0.1c-0.4,0.9-0.9,1.8-1.4,2.6c0.2-0.2,0.5-0.3,0.8-0.3
		c0.7,0,0.8,0.4,1.2,1.8c0.4-1.3,0.7-2.6,0.7-4H253.6z"/>
	<path id="Path_411" class="st1" d="M262.8,33.1c1.1-0.2,2-1,2.3-2.1c0.3-1.1,0.4-1.1,0.5-1.2c0.2-0.2,0.5-0.2,0.7-0.2
		c0.3,0,0.7,0.1,1,0.3c0.2,0.2,0.3,0.4,0.3,0.6c-0.1,1.2-0.6,2.3-1.3,3.2c-0.8,1-2,1.7-3.3,1.8c-1.1,0-1.2-1.1-1.2-1.3
		C261.9,33.6,262.1,33.3,262.8,33.1 M264.9,28.8c0.1,0.5-0.3,1.1-0.8,1.1c-0.1,0-0.2,0-0.3,0c-1,0-1.3-0.4-1.3-1.1v-5.5
		c-0.1-0.5,0.3-1.1,0.8-1.1c0.1,0,0.2,0,0.3,0c1,0,1.3,0.4,1.3,1.1V28.8z M274.6,27.7c0,1.4-0.6,1.8-1.8,1.8h-5
		c-1.1,0-1.8-0.4-1.8-1.8v-3.5c0-1.4,0.6-1.7,1.8-1.7h5c1.1,0,1.8,0.4,1.8,1.7V27.7z M268.3,25.1h3.9v-0.4c0-0.1-0.1-0.2-0.2-0.2
		c0,0,0,0,0,0h-3.5c-0.1,0-0.2,0.1-0.2,0.2c0,0,0,0,0,0L268.3,25.1z M268.3,26.8v0.5c0,0.1,0.1,0.2,0.2,0.2c0,0,0,0,0,0h3.5
		c0.1,0,0.2-0.1,0.2-0.2c0,0,0,0,0,0v-0.5H268.3z M271.3,32.8c0,0.3,0.2,0.3,0.4,0.3h0.7c0.4,0,0.4-0.2,0.5-1.1c0-0.5,0-1.1,1-1.1
		c1.2,0,1.2,0.8,1.2,1.3c0,0.8-0.1,1.7-0.4,2.4c-0.4,0.7-0.7,0.7-3.1,0.7c-1.8,0-2.7,0-2.7-1.8v-3c-0.1-0.5,0.3-1.1,0.8-1.1
		c0.1,0,0.2,0,0.3,0c1,0,1.2,0.4,1.2,1.1L271.3,32.8z"/>
	<path id="Path_412" class="st1" d="M287.7,24.3c1.4,0,1.5,0.9,1.5,1.4c-0.2,2.7-1.6,5.3-3.7,7c-1.7,1.2-3.7,2-5.8,2.3
		c-0.7,0-1.2-0.6-1.2-1.2c0,0,0-0.1,0-0.1c0-0.8,0.4-0.9,1.3-1.1c2.1-0.5,4.6-1.2,6-4.1c0.3-0.6,0.5-1.1,0.6-1.8
		c0-0.2-0.1-0.2-0.4-0.2h-3.7c-0.7,0.8-1.4,1.6-2.2,2.3c-0.3,0.3-0.7,0.4-1,0.4c-0.7,0-1.2-0.6-1.2-1.2c0-0.5,0.1-0.5,1.1-1.3
		c1-0.9,1.9-1.9,2.5-3.2c0.3-0.7,0.5-1.1,1.3-1.1c0.5,0,1.4,0.3,1.4,0.9c0,0.3-0.1,0.6-0.3,0.9L287.7,24.3z"/>
	<path id="Path_413" class="st1" d="M293.9,28.9c-0.6,0-1.1-0.5-1.1-1.1s0.5-1.1,1.1-1.1h9.3c0.7,0,1.4,0.2,1.4,1.3
		c-0.2,2.5-1.7,4.6-3.8,5.9c-1.5,0.7-3.1,1.2-4.7,1.3c-0.4,0-0.7-0.1-1-0.4c-0.2-0.3-0.3-0.6-0.3-0.9c0-0.5,0.4-1,0.9-1
		c0,0,0.1,0,0.1,0c2.2-0.3,4.3-0.6,5.5-2.6c0.2-0.3,0.4-0.7,0.5-1.1c0-0.2-0.1-0.2-0.3-0.2L293.9,28.9z M302.7,23.1
		c0.6-0.1,1.1,0.3,1.1,0.9c0,0.1,0,0.2,0,0.3c0,1.1-0.8,1.2-1.1,1.2h-7.7c-0.6,0.1-1.1-0.3-1.1-0.9c0-0.1,0-0.2,0-0.3
		c0-1.1,0.8-1.2,1.1-1.2H302.7z"/>
	<path id="Path_414" class="st1" d="M309.5,25.4c-0.7,0-1.2-0.5-1.2-1.2c0-0.7,0.5-1.2,1.2-1.2c0,0,0,0,0.1,0h6.7
		c0.6,0,1.7,0,1.7,1.4c-0.3,1.8-1.1,3.4-2.1,4.8c1.1,0.8,2.2,1.7,3.3,2.6c0.5,0.5,0.8,0.8,0.8,1.3c0,0.8-0.7,1.4-1.4,1.4
		c-0.5,0-0.9-0.3-1.2-0.7c-0.9-1-1.9-2-3-2.9c-1.6,1.7-4.3,3.7-5.3,3.7c-0.7-0.1-1.2-0.7-1.2-1.4c0-0.6,0.3-0.7,1.1-1.2
		c2.7-1.4,4.9-3.8,6-6.6c0-0.2-0.2-0.2-0.3-0.2L309.5,25.4z"/>
</g>
</svg>
