<?xml version="1.0" encoding="UTF-8"?>
<svg xmlns="http://www.w3.org/2000/svg" xmlns:xlink="http://www.w3.org/1999/xlink" viewBox="0 0 180 180">
  <defs>
    <style>
      .cls-1 {
        isolation: isolate;
      }

      .cls-2, .cls-3 {
        fill: #fff;
      }

      .cls-3 {
        mix-blend-mode: screen;
        opacity: .42;
      }

      .cls-4 {
        opacity: .75;
      }

      .cls-5 {
        fill: url(#_êVãKÉOÉâÉfÅ_ÉVÉáÉìÉXÉEÉHÉbÉ_4);
      }

      .cls-6 {
        fill: url(#_êVãKÉOÉâÉfÅ_ÉVÉáÉìÉXÉEÉHÉbÉ_4-2);
      }

      .cls-7 {
        fill: url(#_êVãKÉOÉâÉfÅ_ÉVÉáÉìÉXÉEÉHÉbÉ_4-4);
      }

      .cls-8 {
        fill: url(#_êVãKÉOÉâÉfÅ_ÉVÉáÉìÉXÉEÉHÉbÉ_4-3);
      }

      .cls-9 {
        fill: url(#_êVãKÉOÉâÉfÅ_ÉVÉáÉìÉXÉEÉHÉbÉ_4-5);
      }

      .cls-10 {
        fill: url(#_êVãKÉOÉâÉfÅ_ÉVÉáÉìÉXÉEÉHÉbÉ_4-8);
      }

      .cls-11 {
        fill: url(#_êVãKÉOÉâÉfÅ_ÉVÉáÉìÉXÉEÉHÉbÉ_4-7);
      }

      .cls-12 {
        fill: url(#_êVãKÉOÉâÉfÅ_ÉVÉáÉìÉXÉEÉHÉbÉ_4-6);
      }

      .cls-13 {
        fill: url(#_êVãKÉOÉâÉfÅ_ÉVÉáÉìÉXÉEÉHÉbÉ_4-9);
      }

      .cls-14 {
        fill: url(#_êVãKÉOÉâÉfÅ_ÉVÉáÉìÉXÉEÉHÉbÉ_4-70);
      }

      .cls-15 {
        fill: url(#_êVãKÉOÉâÉfÅ_ÉVÉáÉìÉXÉEÉHÉbÉ_4-71);
      }

      .cls-16 {
        fill: url(#_êVãKÉOÉâÉfÅ_ÉVÉáÉìÉXÉEÉHÉbÉ_4-62);
      }

      .cls-17 {
        fill: url(#_êVãKÉOÉâÉfÅ_ÉVÉáÉìÉXÉEÉHÉbÉ_4-60);
      }

      .cls-18 {
        fill: url(#_êVãKÉOÉâÉfÅ_ÉVÉáÉìÉXÉEÉHÉbÉ_4-65);
      }

      .cls-19 {
        fill: url(#_êVãKÉOÉâÉfÅ_ÉVÉáÉìÉXÉEÉHÉbÉ_4-61);
      }

      .cls-20 {
        fill: url(#_êVãKÉOÉâÉfÅ_ÉVÉáÉìÉXÉEÉHÉbÉ_4-76);
      }

      .cls-21 {
        fill: url(#_êVãKÉOÉâÉfÅ_ÉVÉáÉìÉXÉEÉHÉbÉ_4-74);
      }

      .cls-22 {
        fill: url(#_êVãKÉOÉâÉfÅ_ÉVÉáÉìÉXÉEÉHÉbÉ_4-75);
      }

      .cls-23 {
        fill: url(#_êVãKÉOÉâÉfÅ_ÉVÉáÉìÉXÉEÉHÉbÉ_4-72);
      }

      .cls-24 {
        fill: url(#_êVãKÉOÉâÉfÅ_ÉVÉáÉìÉXÉEÉHÉbÉ_4-73);
      }

      .cls-25 {
        fill: url(#_êVãKÉOÉâÉfÅ_ÉVÉáÉìÉXÉEÉHÉbÉ_4-68);
      }

      .cls-26 {
        fill: url(#_êVãKÉOÉâÉfÅ_ÉVÉáÉìÉXÉEÉHÉbÉ_4-67);
      }

      .cls-27 {
        fill: url(#_êVãKÉOÉâÉfÅ_ÉVÉáÉìÉXÉEÉHÉbÉ_4-64);
      }

      .cls-28 {
        fill: url(#_êVãKÉOÉâÉfÅ_ÉVÉáÉìÉXÉEÉHÉbÉ_4-69);
      }

      .cls-29 {
        fill: url(#_êVãKÉOÉâÉfÅ_ÉVÉáÉìÉXÉEÉHÉbÉ_4-63);
      }

      .cls-30 {
        fill: url(#_êVãKÉOÉâÉfÅ_ÉVÉáÉìÉXÉEÉHÉbÉ_4-66);
      }

      .cls-31 {
        fill: url(#_êVãKÉOÉâÉfÅ_ÉVÉáÉìÉXÉEÉHÉbÉ_4-43);
      }

      .cls-32 {
        fill: url(#_êVãKÉOÉâÉfÅ_ÉVÉáÉìÉXÉEÉHÉbÉ_4-44);
      }

      .cls-33 {
        fill: url(#_êVãKÉOÉâÉfÅ_ÉVÉáÉìÉXÉEÉHÉbÉ_4-12);
      }

      .cls-34 {
        fill: url(#_êVãKÉOÉâÉfÅ_ÉVÉáÉìÉXÉEÉHÉbÉ_4-13);
      }

      .cls-35 {
        fill: url(#_êVãKÉOÉâÉfÅ_ÉVÉáÉìÉXÉEÉHÉbÉ_4-18);
      }

      .cls-36 {
        fill: url(#_êVãKÉOÉâÉfÅ_ÉVÉáÉìÉXÉEÉHÉbÉ_4-19);
      }

      .cls-37 {
        fill: url(#_êVãKÉOÉâÉfÅ_ÉVÉáÉìÉXÉEÉHÉbÉ_4-14);
      }

      .cls-38 {
        fill: url(#_êVãKÉOÉâÉfÅ_ÉVÉáÉìÉXÉEÉHÉbÉ_4-15);
      }

      .cls-39 {
        fill: url(#_êVãKÉOÉâÉfÅ_ÉVÉáÉìÉXÉEÉHÉbÉ_4-10);
      }

      .cls-40 {
        fill: url(#_êVãKÉOÉâÉfÅ_ÉVÉáÉìÉXÉEÉHÉbÉ_4-11);
      }

      .cls-41 {
        fill: url(#_êVãKÉOÉâÉfÅ_ÉVÉáÉìÉXÉEÉHÉbÉ_4-30);
      }

      .cls-42 {
        fill: url(#_êVãKÉOÉâÉfÅ_ÉVÉáÉìÉXÉEÉHÉbÉ_4-31);
      }

      .cls-43 {
        fill: url(#_êVãKÉOÉâÉfÅ_ÉVÉáÉìÉXÉEÉHÉbÉ_4-16);
      }

      .cls-44 {
        fill: url(#_êVãKÉOÉâÉfÅ_ÉVÉáÉìÉXÉEÉHÉbÉ_4-17);
      }

      .cls-45 {
        fill: url(#_êVãKÉOÉâÉfÅ_ÉVÉáÉìÉXÉEÉHÉbÉ_4-38);
      }

      .cls-46 {
        fill: url(#_êVãKÉOÉâÉfÅ_ÉVÉáÉìÉXÉEÉHÉbÉ_4-39);
      }

      .cls-47 {
        fill: url(#_êVãKÉOÉâÉfÅ_ÉVÉáÉìÉXÉEÉHÉbÉ_4-37);
      }

      .cls-48 {
        fill: url(#_êVãKÉOÉâÉfÅ_ÉVÉáÉìÉXÉEÉHÉbÉ_4-36);
      }

      .cls-49 {
        fill: url(#_êVãKÉOÉâÉfÅ_ÉVÉáÉìÉXÉEÉHÉbÉ_4-20);
      }

      .cls-50 {
        fill: url(#_êVãKÉOÉâÉfÅ_ÉVÉáÉìÉXÉEÉHÉbÉ_4-22);
      }

      .cls-51 {
        fill: url(#_êVãKÉOÉâÉfÅ_ÉVÉáÉìÉXÉEÉHÉbÉ_4-32);
      }

      .cls-52 {
        fill: url(#_êVãKÉOÉâÉfÅ_ÉVÉáÉìÉXÉEÉHÉbÉ_4-24);
      }

      .cls-53 {
        fill: url(#_êVãKÉOÉâÉfÅ_ÉVÉáÉìÉXÉEÉHÉbÉ_4-27);
      }

      .cls-54 {
        fill: url(#_êVãKÉOÉâÉfÅ_ÉVÉáÉìÉXÉEÉHÉbÉ_4-23);
      }

      .cls-55 {
        fill: url(#_êVãKÉOÉâÉfÅ_ÉVÉáÉìÉXÉEÉHÉbÉ_4-25);
      }

      .cls-56 {
        fill: url(#_êVãKÉOÉâÉfÅ_ÉVÉáÉìÉXÉEÉHÉbÉ_4-28);
      }

      .cls-57 {
        fill: url(#_êVãKÉOÉâÉfÅ_ÉVÉáÉìÉXÉEÉHÉbÉ_4-34);
      }

      .cls-58 {
        fill: url(#_êVãKÉOÉâÉfÅ_ÉVÉáÉìÉXÉEÉHÉbÉ_4-35);
      }

      .cls-59 {
        fill: url(#_êVãKÉOÉâÉfÅ_ÉVÉáÉìÉXÉEÉHÉbÉ_4-33);
      }

      .cls-60 {
        fill: url(#_êVãKÉOÉâÉfÅ_ÉVÉáÉìÉXÉEÉHÉbÉ_4-21);
      }

      .cls-61 {
        fill: url(#_êVãKÉOÉâÉfÅ_ÉVÉáÉìÉXÉEÉHÉbÉ_4-26);
      }

      .cls-62 {
        fill: url(#_êVãKÉOÉâÉfÅ_ÉVÉáÉìÉXÉEÉHÉbÉ_4-29);
      }

      .cls-63 {
        fill: url(#_êVãKÉOÉâÉfÅ_ÉVÉáÉìÉXÉEÉHÉbÉ_4-51);
      }

      .cls-64 {
        fill: url(#_êVãKÉOÉâÉfÅ_ÉVÉáÉìÉXÉEÉHÉbÉ_4-56);
      }

      .cls-65 {
        fill: url(#_êVãKÉOÉâÉfÅ_ÉVÉáÉìÉXÉEÉHÉbÉ_4-53);
      }

      .cls-66 {
        fill: url(#_êVãKÉOÉâÉfÅ_ÉVÉáÉìÉXÉEÉHÉbÉ_4-54);
      }

      .cls-67 {
        fill: url(#_êVãKÉOÉâÉfÅ_ÉVÉáÉìÉXÉEÉHÉbÉ_4-59);
      }

      .cls-68 {
        fill: url(#_êVãKÉOÉâÉfÅ_ÉVÉáÉìÉXÉEÉHÉbÉ_4-57);
      }

      .cls-69 {
        fill: url(#_êVãKÉOÉâÉfÅ_ÉVÉáÉìÉXÉEÉHÉbÉ_4-58);
      }

      .cls-70 {
        fill: url(#_êVãKÉOÉâÉfÅ_ÉVÉáÉìÉXÉEÉHÉbÉ_4-55);
      }

      .cls-71 {
        fill: url(#_êVãKÉOÉâÉfÅ_ÉVÉáÉìÉXÉEÉHÉbÉ_4-42);
      }

      .cls-72 {
        fill: url(#_êVãKÉOÉâÉfÅ_ÉVÉáÉìÉXÉEÉHÉbÉ_4-52);
      }

      .cls-73 {
        fill: url(#_êVãKÉOÉâÉfÅ_ÉVÉáÉìÉXÉEÉHÉbÉ_4-50);
      }

      .cls-74 {
        fill: url(#_êVãKÉOÉâÉfÅ_ÉVÉáÉìÉXÉEÉHÉbÉ_4-45);
      }

      .cls-75 {
        fill: url(#_êVãKÉOÉâÉfÅ_ÉVÉáÉìÉXÉEÉHÉbÉ_4-46);
      }

      .cls-76 {
        fill: url(#_êVãKÉOÉâÉfÅ_ÉVÉáÉìÉXÉEÉHÉbÉ_4-47);
      }

      .cls-77 {
        fill: url(#_êVãKÉOÉâÉfÅ_ÉVÉáÉìÉXÉEÉHÉbÉ_4-48);
      }

      .cls-78 {
        fill: url(#_êVãKÉOÉâÉfÅ_ÉVÉáÉìÉXÉEÉHÉbÉ_4-49);
      }

      .cls-79 {
        fill: url(#_êVãKÉOÉâÉfÅ_ÉVÉáÉìÉXÉEÉHÉbÉ_4-40);
      }

      .cls-80 {
        fill: url(#_êVãKÉOÉâÉfÅ_ÉVÉáÉìÉXÉEÉHÉbÉ_4-41);
      }
    </style>
    <linearGradient id="_êVãKÉOÉâÉfÅ_ÉVÉáÉìÉXÉEÉHÉbÉ_4" data-name="êVãKÉOÉâÉfÅ[ÉVÉáÉìÉXÉEÉHÉbÉ` 4" x1="90" y1="173.83" x2="90" y2="6.42" gradientTransform="translate(90 -37.28) rotate(45)" gradientUnits="userSpaceOnUse">
      <stop offset="0" stop-color="#e6af5a"/>
      <stop offset="0" stop-color="#e5ae59"/>
      <stop offset=".05" stop-color="#ce9a4d"/>
      <stop offset=".11" stop-color="#be8b44"/>
      <stop offset=".17" stop-color="#b5823e"/>
      <stop offset=".25" stop-color="#b2803d"/>
      <stop offset=".3" stop-color="#bc8e4a"/>
      <stop offset=".46" stop-color="#dab870"/>
      <stop offset=".58" stop-color="#ecd188"/>
      <stop offset=".65" stop-color="#f3db91"/>
      <stop offset=".72" stop-color="#edd38a"/>
      <stop offset=".81" stop-color="#dfbf77"/>
      <stop offset=".92" stop-color="#c79d58"/>
      <stop offset="1" stop-color="#b2803d"/>
    </linearGradient>
    <linearGradient id="_êVãKÉOÉâÉfÅ_ÉVÉáÉìÉXÉEÉHÉbÉ_4-2" data-name="êVãKÉOÉâÉfÅ[ÉVÉáÉìÉXÉEÉHÉbÉ` 4" x1="50.71" y1="173.82" x2="50.71" y2="5.16" gradientTransform="matrix(1,0,0,1,0,0)" xlink:href="#_êVãKÉOÉâÉfÅ_ÉVÉáÉìÉXÉEÉHÉbÉ_4"/>
    <linearGradient id="_êVãKÉOÉâÉfÅ_ÉVÉáÉìÉXÉEÉHÉbÉ_4-3" data-name="êVãKÉOÉâÉfÅ[ÉVÉáÉìÉXÉEÉHÉbÉ` 4" x1="47.38" y1="173.81" x2="47.38" y2="5.16" gradientTransform="matrix(1,0,0,1,0,0)" xlink:href="#_êVãKÉOÉâÉfÅ_ÉVÉáÉìÉXÉEÉHÉbÉ_4"/>
    <linearGradient id="_êVãKÉOÉâÉfÅ_ÉVÉáÉìÉXÉEÉHÉbÉ_4-4" data-name="êVãKÉOÉâÉfÅ[ÉVÉáÉìÉXÉEÉHÉbÉ` 4" x1="46.1" y1="173.81" x2="46.1" y2="5.16" gradientTransform="matrix(1,0,0,1,0,0)" xlink:href="#_êVãKÉOÉâÉfÅ_ÉVÉáÉìÉXÉEÉHÉbÉ_4"/>
    <linearGradient id="_êVãKÉOÉâÉfÅ_ÉVÉáÉìÉXÉEÉHÉbÉ_4-5" data-name="êVãKÉOÉâÉfÅ[ÉVÉáÉìÉXÉEÉHÉbÉ` 4" x1="47.38" y1="173.82" x2="47.38" y2="5.16" gradientTransform="matrix(1,0,0,1,0,0)" xlink:href="#_êVãKÉOÉâÉfÅ_ÉVÉáÉìÉXÉEÉHÉbÉ_4"/>
    <linearGradient id="_êVãKÉOÉâÉfÅ_ÉVÉáÉìÉXÉEÉHÉbÉ_4-6" data-name="êVãKÉOÉâÉfÅ[ÉVÉáÉìÉXÉEÉHÉbÉ` 4" x1="50.71" y1="173.82" x2="50.71" y2="5.16" gradientTransform="matrix(1,0,0,1,0,0)" xlink:href="#_êVãKÉOÉâÉfÅ_ÉVÉáÉìÉXÉEÉHÉbÉ_4"/>
    <linearGradient id="_êVãKÉOÉâÉfÅ_ÉVÉáÉìÉXÉEÉHÉbÉ_4-7" data-name="êVãKÉOÉâÉfÅ[ÉVÉáÉìÉXÉEÉHÉbÉ` 4" x1="54.05" y1="173.81" x2="54.05" y2="5.16" gradientTransform="matrix(1,0,0,1,0,0)" xlink:href="#_êVãKÉOÉâÉfÅ_ÉVÉáÉìÉXÉEÉHÉbÉ_4"/>
    <linearGradient id="_êVãKÉOÉâÉfÅ_ÉVÉáÉìÉXÉEÉHÉbÉ_4-8" data-name="êVãKÉOÉâÉfÅ[ÉVÉáÉìÉXÉEÉHÉbÉ` 4" x1="55.32" y1="173.81" x2="55.32" y2="5.16" gradientTransform="matrix(1,0,0,1,0,0)" xlink:href="#_êVãKÉOÉâÉfÅ_ÉVÉáÉìÉXÉEÉHÉbÉ_4"/>
    <linearGradient id="_êVãKÉOÉâÉfÅ_ÉVÉáÉìÉXÉEÉHÉbÉ_4-9" data-name="êVãKÉOÉâÉfÅ[ÉVÉáÉìÉXÉEÉHÉbÉ` 4" x1="54.05" y1="173.82" x2="54.05" y2="5.16" gradientTransform="matrix(1,0,0,1,0,0)" xlink:href="#_êVãKÉOÉâÉfÅ_ÉVÉáÉìÉXÉEÉHÉbÉ_4"/>
    <linearGradient id="_êVãKÉOÉâÉfÅ_ÉVÉáÉìÉXÉEÉHÉbÉ_4-10" data-name="êVãKÉOÉâÉfÅ[ÉVÉáÉìÉXÉEÉHÉbÉ` 4" x1="50.71" y1="173.81" x2="50.71" y2="5.16" gradientTransform="matrix(1,0,0,1,0,0)" xlink:href="#_êVãKÉOÉâÉfÅ_ÉVÉáÉìÉXÉEÉHÉbÉ_4"/>
    <linearGradient id="_êVãKÉOÉâÉfÅ_ÉVÉáÉìÉXÉEÉHÉbÉ_4-11" data-name="êVãKÉOÉâÉfÅ[ÉVÉáÉìÉXÉEÉHÉbÉ` 4" x1="35.66" y1="173.81" x2="35.66" y2="5.17" gradientTransform="matrix(1,0,0,1,0,0)" xlink:href="#_êVãKÉOÉâÉfÅ_ÉVÉáÉìÉXÉEÉHÉbÉ_4"/>
    <linearGradient id="_êVãKÉOÉâÉfÅ_ÉVÉáÉìÉXÉEÉHÉbÉ_4-12" data-name="êVãKÉOÉâÉfÅ[ÉVÉáÉìÉXÉEÉHÉbÉ` 4" x1="33.24" y1="173.82" x2="33.24" y2="5.16" gradientTransform="matrix(1,0,0,1,0,0)" xlink:href="#_êVãKÉOÉâÉfÅ_ÉVÉáÉìÉXÉEÉHÉbÉ_4"/>
    <linearGradient id="_êVãKÉOÉâÉfÅ_ÉVÉáÉìÉXÉEÉHÉbÉ_4-13" data-name="êVãKÉOÉâÉfÅ[ÉVÉáÉìÉXÉEÉHÉbÉ` 4" x1="32.87" y1="173.81" x2="32.87" y2="5.17" gradientTransform="matrix(1,0,0,1,0,0)" xlink:href="#_êVãKÉOÉâÉfÅ_ÉVÉáÉìÉXÉEÉHÉbÉ_4"/>
    <linearGradient id="_êVãKÉOÉâÉfÅ_ÉVÉáÉìÉXÉEÉHÉbÉ_4-14" data-name="êVãKÉOÉâÉfÅ[ÉVÉáÉìÉXÉEÉHÉbÉ` 4" x1="34.75" y1="173.82" x2="34.75" y2="5.16" gradientTransform="matrix(1,0,0,1,0,0)" xlink:href="#_êVãKÉOÉâÉfÅ_ÉVÉáÉìÉXÉEÉHÉbÉ_4"/>
    <linearGradient id="_êVãKÉOÉâÉfÅ_ÉVÉáÉìÉXÉEÉHÉbÉ_4-15" data-name="êVãKÉOÉâÉfÅ[ÉVÉáÉìÉXÉEÉHÉbÉ` 4" x1="38.25" y1="173.82" x2="38.25" y2="5.16" gradientTransform="matrix(1,0,0,1,0,0)" xlink:href="#_êVãKÉOÉâÉfÅ_ÉVÉáÉìÉXÉEÉHÉbÉ_4"/>
    <linearGradient id="_êVãKÉOÉâÉfÅ_ÉVÉáÉìÉXÉEÉHÉbÉ_4-16" data-name="êVãKÉOÉâÉfÅ[ÉVÉáÉìÉXÉEÉHÉbÉ` 4" x1="40.66" y1="173.81" x2="40.66" y2="5.17" gradientTransform="matrix(1,0,0,1,0,0)" xlink:href="#_êVãKÉOÉâÉfÅ_ÉVÉáÉìÉXÉEÉHÉbÉ_4"/>
    <linearGradient id="_êVãKÉOÉâÉfÅ_ÉVÉáÉìÉXÉEÉHÉbÉ_4-17" data-name="êVãKÉOÉâÉfÅ[ÉVÉáÉìÉXÉEÉHÉbÉ` 4" x1="41.04" y1="173.82" x2="41.04" y2="5.16" gradientTransform="matrix(1,0,0,1,0,0)" xlink:href="#_êVãKÉOÉâÉfÅ_ÉVÉáÉìÉXÉEÉHÉbÉ_4"/>
    <linearGradient id="_êVãKÉOÉâÉfÅ_ÉVÉáÉìÉXÉEÉHÉbÉ_4-18" data-name="êVãKÉOÉâÉfÅ[ÉVÉáÉìÉXÉEÉHÉbÉ` 4" x1="39.16" y1="173.82" x2="39.16" y2="5.16" gradientTransform="matrix(1,0,0,1,0,0)" xlink:href="#_êVãKÉOÉâÉfÅ_ÉVÉáÉìÉXÉEÉHÉbÉ_4"/>
    <linearGradient id="_êVãKÉOÉâÉfÅ_ÉVÉáÉìÉXÉEÉHÉbÉ_4-19" data-name="êVãKÉOÉâÉfÅ[ÉVÉáÉìÉXÉEÉHÉbÉ` 4" x1="36.95" y1="173.81" x2="36.95" y2="5.17" gradientTransform="matrix(1,0,0,1,0,0)" xlink:href="#_êVãKÉOÉâÉfÅ_ÉVÉáÉìÉXÉEÉHÉbÉ_4"/>
    <linearGradient id="_êVãKÉOÉâÉfÅ_ÉVÉáÉìÉXÉEÉHÉbÉ_4-20" data-name="êVãKÉOÉâÉfÅ[ÉVÉáÉìÉXÉEÉHÉbÉ` 4" x1="77.93" y1="173.81" x2="77.93" y2="5.16" gradientTransform="matrix(1,0,0,1,0,0)" xlink:href="#_êVãKÉOÉâÉfÅ_ÉVÉáÉìÉXÉEÉHÉbÉ_4"/>
    <linearGradient id="_êVãKÉOÉâÉfÅ_ÉVÉáÉìÉXÉEÉHÉbÉ_4-21" data-name="êVãKÉOÉâÉfÅ[ÉVÉáÉìÉXÉEÉHÉbÉ` 4" x1="74.85" y1="173.82" x2="74.85" y2="5.16" gradientTransform="matrix(1,0,0,1,0,0)" xlink:href="#_êVãKÉOÉâÉfÅ_ÉVÉáÉìÉXÉEÉHÉbÉ_4"/>
    <linearGradient id="_êVãKÉOÉâÉfÅ_ÉVÉáÉìÉXÉEÉHÉbÉ_4-22" data-name="êVãKÉOÉâÉfÅ[ÉVÉáÉìÉXÉEÉHÉbÉ` 4" x1="73.25" y1="173.82" x2="73.25" y2="5.16" gradientTransform="matrix(1,0,0,1,0,0)" xlink:href="#_êVãKÉOÉâÉfÅ_ÉVÉáÉìÉXÉEÉHÉbÉ_4"/>
    <linearGradient id="_êVãKÉOÉâÉfÅ_ÉVÉáÉìÉXÉEÉHÉbÉ_4-23" data-name="êVãKÉOÉâÉfÅ[ÉVÉáÉìÉXÉEÉHÉbÉ` 4" x1="73.65" y1="173.82" x2="73.65" y2="5.16" gradientTransform="matrix(1,0,0,1,0,0)" xlink:href="#_êVãKÉOÉâÉfÅ_ÉVÉáÉìÉXÉEÉHÉbÉ_4"/>
    <linearGradient id="_êVãKÉOÉâÉfÅ_ÉVÉáÉìÉXÉEÉHÉbÉ_4-24" data-name="êVãKÉOÉâÉfÅ[ÉVÉáÉìÉXÉEÉHÉbÉ` 4" x1="75.81" y1="173.82" x2="75.81" y2="5.16" gradientTransform="matrix(1,0,0,1,0,0)" xlink:href="#_êVãKÉOÉâÉfÅ_ÉVÉáÉìÉXÉEÉHÉbÉ_4"/>
    <linearGradient id="_êVãKÉOÉâÉfÅ_ÉVÉáÉìÉXÉEÉHÉbÉ_4-25" data-name="êVãKÉOÉâÉfÅ[ÉVÉáÉìÉXÉEÉHÉbÉ` 4" x1="78.88" y1="173.81" x2="78.88" y2="5.16" gradientTransform="matrix(1,0,0,1,0,0)" xlink:href="#_êVãKÉOÉâÉfÅ_ÉVÉáÉìÉXÉEÉHÉbÉ_4"/>
    <linearGradient id="_êVãKÉOÉâÉfÅ_ÉVÉáÉìÉXÉEÉHÉbÉ_4-26" data-name="êVãKÉOÉâÉfÅ[ÉVÉáÉìÉXÉEÉHÉbÉ` 4" x1="80.48" y1="173.81" x2="80.48" y2="5.16" gradientTransform="matrix(1,0,0,1,0,0)" xlink:href="#_êVãKÉOÉâÉfÅ_ÉVÉáÉìÉXÉEÉHÉbÉ_4"/>
    <linearGradient id="_êVãKÉOÉâÉfÅ_ÉVÉáÉìÉXÉEÉHÉbÉ_4-27" data-name="êVãKÉOÉâÉfÅ[ÉVÉáÉìÉXÉEÉHÉbÉ` 4" x1="80.09" y1="173.82" x2="80.09" y2="5.16" gradientTransform="matrix(1,0,0,1,0,0)" xlink:href="#_êVãKÉOÉâÉfÅ_ÉVÉáÉìÉXÉEÉHÉbÉ_4"/>
    <linearGradient id="_êVãKÉOÉâÉfÅ_ÉVÉáÉìÉXÉEÉHÉbÉ_4-28" data-name="êVãKÉOÉâÉfÅ[ÉVÉáÉìÉXÉEÉHÉbÉ` 4" x1="76.87" y1="173.82" x2="76.87" y2="5.16" gradientTransform="matrix(1,0,0,1,0,0)" xlink:href="#_êVãKÉOÉâÉfÅ_ÉVÉáÉìÉXÉEÉHÉbÉ_4"/>
    <linearGradient id="_êVãKÉOÉâÉfÅ_ÉVÉáÉìÉXÉEÉHÉbÉ_4-29" data-name="êVãKÉOÉâÉfÅ[ÉVÉáÉìÉXÉEÉHÉbÉ` 4" x1="103.72" y1="173.81" x2="103.72" y2="5.16" gradientTransform="matrix(1,0,0,1,0,0)" xlink:href="#_êVãKÉOÉâÉfÅ_ÉVÉáÉìÉXÉEÉHÉbÉ_4"/>
    <linearGradient id="_êVãKÉOÉâÉfÅ_ÉVÉáÉìÉXÉEÉHÉbÉ_4-30" data-name="êVãKÉOÉâÉfÅ[ÉVÉáÉìÉXÉEÉHÉbÉ` 4" x1="100.38" y1="173.81" x2="100.38" y2="5.16" gradientTransform="matrix(1,0,0,1,0,0)" xlink:href="#_êVãKÉOÉâÉfÅ_ÉVÉáÉìÉXÉEÉHÉbÉ_4"/>
    <linearGradient id="_êVãKÉOÉâÉfÅ_ÉVÉáÉìÉXÉEÉHÉbÉ_4-31" data-name="êVãKÉOÉâÉfÅ[ÉVÉáÉìÉXÉEÉHÉbÉ` 4" x1="98.9" y1="173.82" x2="98.9" y2="5.16" gradientTransform="matrix(1,0,0,1,0,0)" xlink:href="#_êVãKÉOÉâÉfÅ_ÉVÉáÉìÉXÉEÉHÉbÉ_4"/>
    <linearGradient id="_êVãKÉOÉâÉfÅ_ÉVÉáÉìÉXÉEÉHÉbÉ_4-32" data-name="êVãKÉOÉâÉfÅ[ÉVÉáÉìÉXÉEÉHÉbÉ` 4" x1="99.75" y1="173.81" x2="99.75" y2="5.16" gradientTransform="matrix(1,0,0,1,0,0)" xlink:href="#_êVãKÉOÉâÉfÅ_ÉVÉáÉìÉXÉEÉHÉbÉ_4"/>
    <linearGradient id="_êVãKÉOÉâÉfÅ_ÉVÉáÉìÉXÉEÉHÉbÉ_4-33" data-name="êVãKÉOÉâÉfÅ[ÉVÉáÉìÉXÉEÉHÉbÉ` 4" x1="102.49" y1="173.81" x2="102.49" y2="5.16" gradientTransform="matrix(1,0,0,1,0,0)" xlink:href="#_êVãKÉOÉâÉfÅ_ÉVÉáÉìÉXÉEÉHÉbÉ_4"/>
    <linearGradient id="_êVãKÉOÉâÉfÅ_ÉVÉáÉìÉXÉEÉHÉbÉ_4-34" data-name="êVãKÉOÉâÉfÅ[ÉVÉáÉìÉXÉEÉHÉbÉ` 4" x1="105.83" y1="173.82" x2="105.83" y2="5.16" gradientTransform="matrix(1,0,0,1,0,0)" xlink:href="#_êVãKÉOÉâÉfÅ_ÉVÉáÉìÉXÉEÉHÉbÉ_4"/>
    <linearGradient id="_êVãKÉOÉâÉfÅ_ÉVÉáÉìÉXÉEÉHÉbÉ_4-35" data-name="êVãKÉOÉâÉfÅ[ÉVÉáÉìÉXÉEÉHÉbÉ` 4" x1="107.31" y1="173.83" x2="107.31" y2="5.16" gradientTransform="matrix(1,0,0,1,0,0)" xlink:href="#_êVãKÉOÉâÉfÅ_ÉVÉáÉìÉXÉEÉHÉbÉ_4"/>
    <linearGradient id="_êVãKÉOÉâÉfÅ_ÉVÉáÉìÉXÉEÉHÉbÉ_4-36" data-name="êVãKÉOÉâÉfÅ[ÉVÉáÉìÉXÉEÉHÉbÉ` 4" x1="106.46" y1="173.81" x2="106.46" y2="5.16" gradientTransform="matrix(1,0,0,1,0,0)" xlink:href="#_êVãKÉOÉâÉfÅ_ÉVÉáÉìÉXÉEÉHÉbÉ_4"/>
    <linearGradient id="_êVãKÉOÉâÉfÅ_ÉVÉáÉìÉXÉEÉHÉbÉ_4-37" data-name="êVãKÉOÉâÉfÅ[ÉVÉáÉìÉXÉEÉHÉbÉ` 4" x1="103.11" y1="173.81" x2="103.11" y2="5.16" gradientTransform="matrix(1,0,0,1,0,0)" xlink:href="#_êVãKÉOÉâÉfÅ_ÉVÉáÉìÉXÉEÉHÉbÉ_4"/>
    <linearGradient id="_êVãKÉOÉâÉfÅ_ÉVÉáÉìÉXÉEÉHÉbÉ_4-38" data-name="êVãKÉOÉâÉfÅ[ÉVÉáÉìÉXÉEÉHÉbÉ` 4" x1="96.59" y1="173.82" x2="96.59" y2="5.16" gradientTransform="matrix(1,0,0,1,0,0)" xlink:href="#_êVãKÉOÉâÉfÅ_ÉVÉáÉìÉXÉEÉHÉbÉ_4"/>
    <linearGradient id="_êVãKÉOÉâÉfÅ_ÉVÉáÉìÉXÉEÉHÉbÉ_4-39" data-name="êVãKÉOÉâÉfÅ[ÉVÉáÉìÉXÉEÉHÉbÉ` 4" x1="93.6" y1="173.82" x2="93.6" y2="5.16" gradientTransform="matrix(1,0,0,1,0,0)" xlink:href="#_êVãKÉOÉâÉfÅ_ÉVÉáÉìÉXÉEÉHÉbÉ_4"/>
    <linearGradient id="_êVãKÉOÉâÉfÅ_ÉVÉáÉìÉXÉEÉHÉbÉ_4-40" data-name="êVãKÉOÉâÉfÅ[ÉVÉáÉìÉXÉEÉHÉbÉ` 4" x1="92.73" y1="173.81" x2="92.73" y2="5.17" gradientTransform="matrix(1,0,0,1,0,0)" xlink:href="#_êVãKÉOÉâÉfÅ_ÉVÉáÉìÉXÉEÉHÉbÉ_4"/>
    <linearGradient id="_êVãKÉOÉâÉfÅ_ÉVÉáÉìÉXÉEÉHÉbÉ_4-41" data-name="êVãKÉOÉâÉfÅ[ÉVÉáÉìÉXÉEÉHÉbÉ` 4" x1="94.47" y1="173.82" x2="94.47" y2="5.16" gradientTransform="matrix(1,0,0,1,0,0)" xlink:href="#_êVãKÉOÉâÉfÅ_ÉVÉáÉìÉXÉEÉHÉbÉ_4"/>
    <linearGradient id="_êVãKÉOÉâÉfÅ_ÉVÉáÉìÉXÉEÉHÉbÉ_4-42" data-name="êVãKÉOÉâÉfÅ[ÉVÉáÉìÉXÉEÉHÉbÉ` 4" x1="98.27" y1="173.82" x2="98.27" y2="5.16" gradientTransform="matrix(1,0,0,1,0,0)" xlink:href="#_êVãKÉOÉâÉfÅ_ÉVÉáÉìÉXÉEÉHÉbÉ_4"/>
    <linearGradient id="_êVãKÉOÉâÉfÅ_ÉVÉáÉìÉXÉEÉHÉbÉ_4-43" data-name="êVãKÉOÉâÉfÅ[ÉVÉáÉìÉXÉEÉHÉbÉ` 4" x1="101.26" y1="173.82" x2="101.26" y2="5.16" gradientTransform="matrix(1,0,0,1,0,0)" xlink:href="#_êVãKÉOÉâÉfÅ_ÉVÉáÉìÉXÉEÉHÉbÉ_4"/>
    <linearGradient id="_êVãKÉOÉâÉfÅ_ÉVÉáÉìÉXÉEÉHÉbÉ_4-44" data-name="êVãKÉOÉâÉfÅ[ÉVÉáÉìÉXÉEÉHÉbÉ` 4" x1="102.12" y1="173.82" x2="102.12" y2="5.16" gradientTransform="matrix(1,0,0,1,0,0)" xlink:href="#_êVãKÉOÉâÉfÅ_ÉVÉáÉìÉXÉEÉHÉbÉ_4"/>
    <linearGradient id="_êVãKÉOÉâÉfÅ_ÉVÉáÉìÉXÉEÉHÉbÉ_4-45" data-name="êVãKÉOÉâÉfÅ[ÉVÉáÉìÉXÉEÉHÉbÉ` 4" x1="100.39" y1="173.81" x2="100.39" y2="5.16" gradientTransform="matrix(1,0,0,1,0,0)" xlink:href="#_êVãKÉOÉâÉfÅ_ÉVÉáÉìÉXÉEÉHÉbÉ_4"/>
    <linearGradient id="_êVãKÉOÉâÉfÅ_ÉVÉáÉìÉXÉEÉHÉbÉ_4-46" data-name="êVãKÉOÉâÉfÅ[ÉVÉáÉìÉXÉEÉHÉbÉ` 4" x1="97.43" y1="173.82" x2="97.43" y2="5.16" gradientTransform="matrix(1,0,0,1,0,0)" xlink:href="#_êVãKÉOÉâÉfÅ_ÉVÉáÉìÉXÉEÉHÉbÉ_4"/>
    <linearGradient id="_êVãKÉOÉâÉfÅ_ÉVÉáÉìÉXÉEÉHÉbÉ_4-47" data-name="êVãKÉOÉâÉfÅ[ÉVÉáÉìÉXÉEÉHÉbÉ` 4" x1="124.38" y1="173.81" x2="124.38" y2="5.16" gradientTransform="matrix(1,0,0,1,0,0)" xlink:href="#_êVãKÉOÉâÉfÅ_ÉVÉáÉìÉXÉEÉHÉbÉ_4"/>
    <linearGradient id="_êVãKÉOÉâÉfÅ_ÉVÉáÉìÉXÉEÉHÉbÉ_4-48" data-name="êVãKÉOÉâÉfÅ[ÉVÉáÉìÉXÉEÉHÉbÉ` 4" x1="122.14" y1="173.82" x2="122.14" y2="5.16" gradientTransform="matrix(1,0,0,1,0,0)" xlink:href="#_êVãKÉOÉâÉfÅ_ÉVÉáÉìÉXÉEÉHÉbÉ_4"/>
    <linearGradient id="_êVãKÉOÉâÉfÅ_ÉVÉáÉìÉXÉEÉHÉbÉ_4-49" data-name="êVãKÉOÉâÉfÅ[ÉVÉáÉìÉXÉEÉHÉbÉ` 4" x1="121.63" y1="173.81" x2="121.63" y2="5.17" gradientTransform="matrix(1,0,0,1,0,0)" xlink:href="#_êVãKÉOÉâÉfÅ_ÉVÉáÉìÉXÉEÉHÉbÉ_4"/>
    <linearGradient id="_êVãKÉOÉâÉfÅ_ÉVÉáÉìÉXÉEÉHÉbÉ_4-50" data-name="êVãKÉOÉâÉfÅ[ÉVÉáÉìÉXÉEÉHÉbÉ` 4" x1="123.15" y1="173.82" x2="123.15" y2="5.16" gradientTransform="matrix(1,0,0,1,0,0)" xlink:href="#_êVãKÉOÉâÉfÅ_ÉVÉáÉìÉXÉEÉHÉbÉ_4"/>
    <linearGradient id="_êVãKÉOÉâÉfÅ_ÉVÉáÉìÉXÉEÉHÉbÉ_4-51" data-name="êVãKÉOÉâÉfÅ[ÉVÉáÉìÉXÉEÉHÉbÉ` 4" x1="126.23" y1="173.82" x2="126.23" y2="5.16" gradientTransform="matrix(1,0,0,1,0,0)" xlink:href="#_êVãKÉOÉâÉfÅ_ÉVÉáÉìÉXÉEÉHÉbÉ_4"/>
    <linearGradient id="_êVãKÉOÉâÉfÅ_ÉVÉáÉìÉXÉEÉHÉbÉ_4-52" data-name="êVãKÉOÉâÉfÅ[ÉVÉáÉìÉXÉEÉHÉbÉ` 4" x1="128.47" y1="173.82" x2="128.47" y2="5.16" gradientTransform="matrix(1,0,0,1,0,0)" xlink:href="#_êVãKÉOÉâÉfÅ_ÉVÉáÉìÉXÉEÉHÉbÉ_4"/>
    <linearGradient id="_êVãKÉOÉâÉfÅ_ÉVÉáÉìÉXÉEÉHÉbÉ_4-53" data-name="êVãKÉOÉâÉfÅ[ÉVÉáÉìÉXÉEÉHÉbÉ` 4" x1="128.98" y1="173.81" x2="128.98" y2="5.16" gradientTransform="matrix(1,0,0,1,0,0)" xlink:href="#_êVãKÉOÉâÉfÅ_ÉVÉáÉìÉXÉEÉHÉbÉ_4"/>
    <linearGradient id="_êVãKÉOÉâÉfÅ_ÉVÉáÉìÉXÉEÉHÉbÉ_4-54" data-name="êVãKÉOÉâÉfÅ[ÉVÉáÉìÉXÉEÉHÉbÉ` 4" x1="127.46" y1="173.81" x2="127.46" y2="5.16" gradientTransform="matrix(1,0,0,1,0,0)" xlink:href="#_êVãKÉOÉâÉfÅ_ÉVÉáÉìÉXÉEÉHÉbÉ_4"/>
    <linearGradient id="_êVãKÉOÉâÉfÅ_ÉVÉáÉìÉXÉEÉHÉbÉ_4-55" data-name="êVãKÉOÉâÉfÅ[ÉVÉáÉìÉXÉEÉHÉbÉ` 4" x1="125.31" y1="173.81" x2="125.31" y2="5.17" gradientTransform="matrix(1,0,0,1,0,0)" xlink:href="#_êVãKÉOÉâÉfÅ_ÉVÉáÉìÉXÉEÉHÉbÉ_4"/>
    <linearGradient id="_êVãKÉOÉâÉfÅ_ÉVÉáÉìÉXÉEÉHÉbÉ_4-56" data-name="êVãKÉOÉâÉfÅ[ÉVÉáÉìÉXÉEÉHÉbÉ` 4" x1="146.87" y1="173.82" x2="146.87" y2="5.16" gradientTransform="matrix(1,0,0,1,0,0)" xlink:href="#_êVãKÉOÉâÉfÅ_ÉVÉáÉìÉXÉEÉHÉbÉ_4"/>
    <linearGradient id="_êVãKÉOÉâÉfÅ_ÉVÉáÉìÉXÉEÉHÉbÉ_4-57" data-name="êVãKÉOÉâÉfÅ[ÉVÉáÉìÉXÉEÉHÉbÉ` 4" x1="143.81" y1="173.82" x2="143.81" y2="5.16" gradientTransform="matrix(1,0,0,1,0,0)" xlink:href="#_êVãKÉOÉâÉfÅ_ÉVÉáÉìÉXÉEÉHÉbÉ_4"/>
    <linearGradient id="_êVãKÉOÉâÉfÅ_ÉVÉáÉìÉXÉEÉHÉbÉ_4-58" data-name="êVãKÉOÉâÉfÅ[ÉVÉáÉìÉXÉEÉHÉbÉ` 4" x1="142.64" y1="173.81" x2="142.64" y2="5.16" gradientTransform="matrix(1,0,0,1,0,0)" xlink:href="#_êVãKÉOÉâÉfÅ_ÉVÉáÉìÉXÉEÉHÉbÉ_4"/>
    <linearGradient id="_êVãKÉOÉâÉfÅ_ÉVÉáÉìÉXÉEÉHÉbÉ_4-59" data-name="êVãKÉOÉâÉfÅ[ÉVÉáÉìÉXÉEÉHÉbÉ` 4" x1="143.81" y1="173.82" x2="143.81" y2="5.16" gradientTransform="matrix(1,0,0,1,0,0)" xlink:href="#_êVãKÉOÉâÉfÅ_ÉVÉáÉìÉXÉEÉHÉbÉ_4"/>
    <linearGradient id="_êVãKÉOÉâÉfÅ_ÉVÉáÉìÉXÉEÉHÉbÉ_4-60" data-name="êVãKÉOÉâÉfÅ[ÉVÉáÉìÉXÉEÉHÉbÉ` 4" x1="146.87" y1="173.82" x2="146.87" y2="5.16" gradientTransform="matrix(1,0,0,1,0,0)" xlink:href="#_êVãKÉOÉâÉfÅ_ÉVÉáÉìÉXÉEÉHÉbÉ_4"/>
    <linearGradient id="_êVãKÉOÉâÉfÅ_ÉVÉáÉìÉXÉEÉHÉbÉ_4-61" data-name="êVãKÉOÉâÉfÅ[ÉVÉáÉìÉXÉEÉHÉbÉ` 4" x1="149.93" y1="173.82" x2="149.93" y2="5.16" gradientTransform="matrix(1,0,0,1,0,0)" xlink:href="#_êVãKÉOÉâÉfÅ_ÉVÉáÉìÉXÉEÉHÉbÉ_4"/>
    <linearGradient id="_êVãKÉOÉâÉfÅ_ÉVÉáÉìÉXÉEÉHÉbÉ_4-62" data-name="êVãKÉOÉâÉfÅ[ÉVÉáÉìÉXÉEÉHÉbÉ` 4" x1="151.1" y1="173.81" x2="151.1" y2="5.16" gradientTransform="matrix(1,0,0,1,0,0)" xlink:href="#_êVãKÉOÉâÉfÅ_ÉVÉáÉìÉXÉEÉHÉbÉ_4"/>
    <linearGradient id="_êVãKÉOÉâÉfÅ_ÉVÉáÉìÉXÉEÉHÉbÉ_4-63" data-name="êVãKÉOÉâÉfÅ[ÉVÉáÉìÉXÉEÉHÉbÉ` 4" x1="149.93" y1="173.81" x2="149.93" y2="5.16" gradientTransform="matrix(1,0,0,1,0,0)" xlink:href="#_êVãKÉOÉâÉfÅ_ÉVÉáÉìÉXÉEÉHÉbÉ_4"/>
    <linearGradient id="_êVãKÉOÉâÉfÅ_ÉVÉáÉìÉXÉEÉHÉbÉ_4-64" data-name="êVãKÉOÉâÉfÅ[ÉVÉáÉìÉXÉEÉHÉbÉ` 4" x1="146.87" y1="173.82" x2="146.87" y2="5.16" gradientTransform="matrix(1,0,0,1,0,0)" xlink:href="#_êVãKÉOÉâÉfÅ_ÉVÉáÉìÉXÉEÉHÉbÉ_4"/>
    <linearGradient id="_êVãKÉOÉâÉfÅ_ÉVÉáÉìÉXÉEÉHÉbÉ_4-65" data-name="êVãKÉOÉâÉfÅ[ÉVÉáÉìÉXÉEÉHÉbÉ` 4" x1="164.41" y1="173.81" x2="164.41" y2="5.16" gradientTransform="matrix(1,0,0,1,0,0)" xlink:href="#_êVãKÉOÉâÉfÅ_ÉVÉáÉìÉXÉEÉHÉbÉ_4"/>
    <linearGradient id="_êVãKÉOÉâÉfÅ_ÉVÉáÉìÉXÉEÉHÉbÉ_4-66" data-name="êVãKÉOÉâÉfÅ[ÉVÉáÉìÉXÉEÉHÉbÉ` 4" x1="147.33" y1="173.81" x2="147.33" y2="5.16" gradientTransform="matrix(1,0,0,1,0,0)" xlink:href="#_êVãKÉOÉâÉfÅ_ÉVÉáÉìÉXÉEÉHÉbÉ_4"/>
    <linearGradient id="_êVãKÉOÉâÉfÅ_ÉVÉáÉìÉXÉEÉHÉbÉ_4-67" data-name="êVãKÉOÉâÉfÅ[ÉVÉáÉìÉXÉEÉHÉbÉ` 4" x1="145.3" y1="173.82" x2="145.3" y2="5.16" gradientTransform="matrix(1,0,0,1,0,0)" xlink:href="#_êVãKÉOÉâÉfÅ_ÉVÉáÉìÉXÉEÉHÉbÉ_4"/>
    <linearGradient id="_êVãKÉOÉâÉfÅ_ÉVÉáÉìÉXÉEÉHÉbÉ_4-68" data-name="êVãKÉOÉâÉfÅ[ÉVÉáÉìÉXÉEÉHÉbÉ` 4" x1="145.03" y1="173.81" x2="145.03" y2="5.16" gradientTransform="matrix(1,0,0,1,0,0)" xlink:href="#_êVãKÉOÉâÉfÅ_ÉVÉáÉìÉXÉEÉHÉbÉ_4"/>
    <linearGradient id="_êVãKÉOÉâÉfÅ_ÉVÉáÉìÉXÉEÉHÉbÉ_4-69" data-name="êVãKÉOÉâÉfÅ[ÉVÉáÉìÉXÉEÉHÉbÉ` 4" x1="146.67" y1="173.82" x2="146.67" y2="5.16" gradientTransform="matrix(1,0,0,1,0,0)" xlink:href="#_êVãKÉOÉâÉfÅ_ÉVÉáÉìÉXÉEÉHÉbÉ_4"/>
    <linearGradient id="_êVãKÉOÉâÉfÅ_ÉVÉáÉìÉXÉEÉHÉbÉ_4-70" data-name="êVãKÉOÉâÉfÅ[ÉVÉáÉìÉXÉEÉHÉbÉ` 4" x1="149.66" y1="173.82" x2="149.66" y2="5.16" gradientTransform="matrix(1,0,0,1,0,0)" xlink:href="#_êVãKÉOÉâÉfÅ_ÉVÉáÉìÉXÉEÉHÉbÉ_4"/>
    <linearGradient id="_êVãKÉOÉâÉfÅ_ÉVÉáÉìÉXÉEÉHÉbÉ_4-71" data-name="êVãKÉOÉâÉfÅ[ÉVÉáÉìÉXÉEÉHÉbÉ` 4" x1="151.7" y1="173.81" x2="151.7" y2="5.16" gradientTransform="matrix(1,0,0,1,0,0)" xlink:href="#_êVãKÉOÉâÉfÅ_ÉVÉáÉìÉXÉEÉHÉbÉ_4"/>
    <linearGradient id="_êVãKÉOÉâÉfÅ_ÉVÉáÉìÉXÉEÉHÉbÉ_4-72" data-name="êVãKÉOÉâÉfÅ[ÉVÉáÉìÉXÉEÉHÉbÉ` 4" x1="151.97" y1="173.82" x2="151.97" y2="5.16" gradientTransform="matrix(1,0,0,1,0,0)" xlink:href="#_êVãKÉOÉâÉfÅ_ÉVÉáÉìÉXÉEÉHÉbÉ_4"/>
    <linearGradient id="_êVãKÉOÉâÉfÅ_ÉVÉáÉìÉXÉEÉHÉbÉ_4-73" data-name="êVãKÉOÉâÉfÅ[ÉVÉáÉìÉXÉEÉHÉbÉ` 4" x1="150.33" y1="173.82" x2="150.33" y2="5.16" gradientTransform="matrix(1,0,0,1,0,0)" xlink:href="#_êVãKÉOÉâÉfÅ_ÉVÉáÉìÉXÉEÉHÉbÉ_4"/>
    <linearGradient id="_êVãKÉOÉâÉfÅ_ÉVÉáÉìÉXÉEÉHÉbÉ_4-74" data-name="êVãKÉOÉâÉfÅ[ÉVÉáÉìÉXÉEÉHÉbÉ` 4" x1="148.5" y1="173.81" x2="148.5" y2="5.16" gradientTransform="matrix(1,0,0,1,0,0)" xlink:href="#_êVãKÉOÉâÉfÅ_ÉVÉáÉìÉXÉEÉHÉbÉ_4"/>
    <linearGradient id="_êVãKÉOÉâÉfÅ_ÉVÉáÉìÉXÉEÉHÉbÉ_4-75" data-name="êVãKÉOÉâÉfÅ[ÉVÉáÉìÉXÉEÉHÉbÉ` 4" x1="29.06" y1="173.82" x2="29.06" y2="5.16" gradientTransform="matrix(1,0,0,1,0,0)" xlink:href="#_êVãKÉOÉâÉfÅ_ÉVÉáÉìÉXÉEÉHÉbÉ_4"/>
    <linearGradient id="_êVãKÉOÉâÉfÅ_ÉVÉáÉìÉXÉEÉHÉbÉ_4-76" data-name="êVãKÉOÉâÉfÅ[ÉVÉáÉìÉXÉEÉHÉbÉ` 4" x1="15.39" y1="173.82" x2="15.39" y2="5.16" gradientTransform="matrix(1,0,0,1,0,0)" xlink:href="#_êVãKÉOÉâÉfÅ_ÉVÉáÉìÉXÉEÉHÉbÉ_4"/>
  </defs>
  <g class="cls-1">
    <g id="Layer_1" data-name="Layer 1">
      <g>
        <g>
          <circle class="cls-5" cx="90" cy="90" r="83.83" transform="translate(-37.28 90) rotate(-45)"/>
          <path class="cls-3" d="M18.38,111.74c-.79.72-1.57,1.46-2.34,2.21.53-.35,1.02-.75,1.46-1.19.32-.32.61-.66.88-1.02ZM24.66,142.51c1.15,1.42,2.33,2.81,3.57,4.15-.47-1.08-1.14-2.05-1.96-2.87-.48-.48-1.02-.91-1.6-1.28ZM32.01,150.53c1.47,1.41,2.99,2.76,4.56,4.06-.42-.75-.94-1.44-1.54-2.04-.86-.86-1.88-1.55-3.02-2.02ZM154,144.07l-.28-.28c-.83.83-1.5,1.82-1.98,2.91,1.25-1.36,2.46-2.77,3.62-4.21-.59.38-1.15.81-1.64,1.31l.28.28ZM168.39,118.87c-.2-.22-.39-.43-.59-.64-.44,1.03-1.06,1.96-1.84,2.74-1.41,1.41-3.3,2.33-5.41,2.5.17-2.11,1.09-4,2.5-5.41h0c.8-.8,1.76-1.43,2.81-1.87-.2-.21-.4-.41-.6-.62-1.04.47-1.98,1.12-2.78,1.92-1.09,1.09-1.91,2.44-2.36,3.95-.45-1.51-1.28-2.86-2.36-3.95-1.09-1.09-2.44-1.91-3.94-2.36,1.51-.46,2.86-1.28,3.94-2.36.74-.74,1.36-1.61,1.82-2.56-.21-.18-.42-.37-.63-.55-.43.95-1.03,1.81-1.76,2.54-1.41,1.41-3.3,2.34-5.41,2.5.17-2.11,1.09-4,2.5-5.41.66-.66,1.43-1.21,2.28-1.63-.23-.18-.45-.37-.68-.55-.8.43-1.52.98-2.16,1.61-1.09,1.09-1.91,2.44-2.36,3.94-.45-1.51-1.28-2.86-2.36-3.94-1.09-1.09-2.44-1.91-3.95-2.36,1.51-.46,2.86-1.28,3.95-2.36.38-.38.73-.8,1.04-1.24-.22-.15-.44-.31-.66-.46-.28.4-.6.78-.95,1.13-1.41,1.41-3.3,2.33-5.41,2.5.17-2.11,1.09-4,2.5-5.41h0c.15-.15.31-.29.47-.43-.24-.15-.47-.3-.71-.44-.11.1-.22.2-.32.3-1.09,1.09-1.91,2.44-2.36,3.95-.46-1.51-1.28-2.86-2.36-3.94-1.09-1.09-2.44-1.91-3.95-2.36,1.04-.31,2.01-.81,2.86-1.44-.27-.14-.53-.28-.8-.42-1.19.8-2.59,1.31-4.1,1.43.09-1.09.38-2.11.83-3.05-.24-.11-.48-.23-.72-.34-.21.43-.39.88-.53,1.35-.21-.7-.51-1.37-.87-1.99-.46-.2-.92-.4-1.38-.6,1.02,1.3,1.68,2.89,1.82,4.63-2.11-.17-4-1.09-5.41-2.5h0c-1.2-1.2-2.04-2.74-2.37-4.47-.35-.13-.7-.25-1.05-.37-.28,1.88-1.15,3.56-2.43,4.84-1.41,1.41-3.3,2.34-5.41,2.5.17-2.11,1.09-4,2.5-5.41h0c1.14-1.14,2.6-1.95,4.22-2.32-.45-.15-.9-.3-1.36-.44-1.3.48-2.47,1.23-3.43,2.19-1.08,1.08-1.9,2.43-2.36,3.93-.46-1.5-1.27-2.85-2.36-3.93-1.09-1.09-2.44-1.91-3.95-2.36,1.4-.42,2.66-1.16,3.7-2.14-.32-.07-.65-.14-.98-.21-1.32,1.08-2.96,1.78-4.77,1.92.08-.97.32-1.89.69-2.74-.27-.05-.54-.09-.81-.14-.11.28-.22.56-.3.85-.1-.33-.22-.64-.35-.95-.32-.05-.64-.11-.96-.16.48.96.79,2.02.88,3.15-2.11-.17-4-1.09-5.41-2.5-.41-.42-.78-.88-1.1-1.37-.33-.03-.66-.06-1-.09.42.74.93,1.42,1.53,2.02l.28-.28-.28.28c1.09,1.09,2.44,1.91,3.94,2.36-1.51.46-2.86,1.28-3.94,2.36l.28.28-.28-.28c-1.09,1.09-1.91,2.44-2.36,3.95-.46-1.51-1.28-2.86-2.36-3.95-1.09-1.09-2.44-1.91-3.95-2.36,1.51-.46,2.86-1.28,3.94-2.36.64-.64,1.18-1.37,1.61-2.16-.3-.02-.59-.04-.89-.06-.36.6-.79,1.16-1.29,1.65-1.41,1.41-3.3,2.33-5.41,2.5.13-1.63.72-3.13,1.63-4.38-.32,0-.64,0-.96-.01-.46.73-.84,1.52-1.09,2.36-.26-.84-.63-1.64-1.09-2.36-.32,0-.64,0-.96.01.91,1.25,1.5,2.75,1.63,4.39-2.11-.17-4-1.09-5.41-2.5-.5-.5-.93-1.06-1.3-1.67-.3.02-.59.03-.89.06.44.8.98,1.54,1.62,2.18,1.09,1.09,2.44,1.91,3.94,2.36-1.51.46-2.86,1.28-3.94,2.36l.28.28-.28-.28c-1.09,1.09-1.91,2.44-2.36,3.95-.46-1.51-1.28-2.86-2.36-3.95-1.09-1.09-2.44-1.91-3.94-2.36,1.51-.46,2.86-1.28,3.94-2.36.61-.61,1.13-1.3,1.55-2.05-.33.03-.66.06-.99.09-.33.5-.7.97-1.12,1.4-1.41,1.41-3.3,2.33-5.41,2.5.09-1.15.41-2.23.91-3.2-.32.05-.64.11-.96.16-.14.33-.27.66-.37,1.01-.09-.31-.2-.6-.32-.89-.27.05-.54.09-.81.13.38.87.63,1.8.71,2.79-1.83-.15-3.5-.86-4.83-1.98-.32.07-.64.14-.96.21,1.05,1,2.34,1.76,3.76,2.19-1.51.46-2.86,1.28-3.94,2.36-1.09,1.09-1.91,2.44-2.36,3.94-.46-1.51-1.28-2.86-2.36-3.94-1-1-2.22-1.77-3.59-2.24-.46.15-.93.3-1.39.45,1.7.34,3.22,1.17,4.41,2.36,1.41,1.41,2.34,3.3,2.5,5.41-2.11-.17-4-1.09-5.41-2.5-1.31-1.31-2.19-3.03-2.45-4.95-.34.12-.68.24-1.02.36-.32,1.78-1.17,3.36-2.4,4.59-1.41,1.41-3.3,2.34-5.41,2.5.15-1.83.86-3.5,1.97-4.83-.48.2-.95.41-1.43.62-.41.67-.74,1.4-.97,2.17-.15-.51-.35-1-.59-1.47-.24.11-.49.23-.73.34.48.97.8,2.03.89,3.16-1.57-.13-3.02-.67-4.24-1.52-.26.14-.52.28-.79.42.89.68,1.9,1.2,2.99,1.53-1.51.46-2.86,1.28-3.94,2.36-1.09,1.09-1.91,2.44-2.36,3.94-.46-1.51-1.28-2.86-2.36-3.94-.14-.14-.29-.28-.45-.42-.24.15-.48.3-.71.45.21.17.41.35.6.54,1.41,1.41,2.34,3.3,2.5,5.41-2.11-.17-4-1.09-5.41-2.5h0c-.39-.39-.74-.82-1.04-1.27-.22.15-.44.31-.66.46.34.5.72.96,1.14,1.38,1.09,1.08,2.44,1.91,3.94,2.36-1.51.45-2.86,1.28-3.94,2.36-1.09,1.09-1.91,2.44-2.36,3.94-.46-1.51-1.28-2.86-2.36-3.94-.68-.68-1.47-1.26-2.34-1.71-.23.18-.46.37-.69.55.92.43,1.75,1.02,2.46,1.72,1.41,1.41,2.34,3.3,2.5,5.41-2.11-.17-4-1.09-5.41-2.5-.78-.78-1.4-1.71-1.84-2.73-.21.18-.43.36-.64.55.47,1.03,1.12,1.96,1.91,2.75l.28-.28-.28.28c1.09,1.09,2.44,1.91,3.94,2.36-1.51.46-2.86,1.28-3.94,2.36l.28.28-.28-.28c-1.09,1.09-1.91,2.44-2.36,3.95-.46-1.51-1.28-2.86-2.36-3.94-.85-.85-1.87-1.54-3-2.01-.2.21-.4.41-.6.62,1.15.44,2.18,1.11,3.03,1.96,1.41,1.41,2.34,3.3,2.5,5.41-2.11-.17-4-1.09-5.41-2.5-.84-.84-1.49-1.84-1.93-2.96-.2.22-.4.43-.6.65.48,1.08,1.15,2.06,1.97,2.88l.28-.28-.28.28c1.09,1.09,2.44,1.91,3.94,2.36-1.21.37-2.32.97-3.28,1.76.12.25.23.5.35.75,1.35-1.17,3.07-1.94,4.96-2.09-.17,2.11-1.09,4-2.5,5.41-.16.16-.33.31-.5.46.13.24.26.47.4.71.23-.19.46-.39.67-.61,1.09-1.09,1.91-2.44,2.36-3.94.46,1.51,1.28,2.86,2.36,3.94l.28-.28-.28.28c1.09,1.08,2.44,1.91,3.94,2.36-1.51.46-2.86,1.28-3.94,2.36l.28.28-.28-.28c-.61.61-1.14,1.32-1.57,2.08.17.25.34.5.51.74.42-.84.96-1.6,1.62-2.26,1.41-1.41,3.3-2.34,5.41-2.5-.17,2.11-1.09,4-2.5,5.41-.78.78-1.71,1.4-2.73,1.84.17.22.34.44.5.66,1.05-.47,1.99-1.13,2.79-1.93,1.09-1.09,1.91-2.44,2.36-3.94.46,1.51,1.28,2.86,2.36,3.94,1.09,1.09,2.44,1.91,3.94,2.36-1.51.46-2.86,1.28-3.94,2.36l.28.28-.28-.28c-.97.97-1.73,2.15-2.2,3.47.21.22.41.45.63.67.42-1.36,1.16-2.59,2.14-3.57,1.41-1.41,3.3-2.34,5.41-2.5-.17,2.11-1.09,4-2.5,5.41-.99.99-2.22,1.73-3.59,2.15.21.21.43.42.65.63,1.33-.47,2.53-1.24,3.51-2.22,1.09-1.09,1.91-2.44,2.36-3.94.46,1.51,1.28,2.86,2.36,3.94l.28-.28-.28.28c1.09,1.09,2.44,1.91,3.94,2.36-1.51.46-2.86,1.28-3.94,2.36l.28.28-.28-.28c-.85.85-1.53,1.86-2.01,2.99.22.17.43.35.65.52.44-1.11,1.09-2.11,1.92-2.94,1.41-1.41,3.3-2.34,5.41-2.5-.17,2.11-1.09,4-2.5,5.41-.73.73-1.59,1.33-2.54,1.76.24.18.49.36.73.54.88-.45,1.68-1.03,2.37-1.73,1.09-1.09,1.91-2.44,2.36-3.94.46,1.51,1.28,2.86,2.36,3.94,1.09,1.09,2.44,1.91,3.94,2.36-1.51.46-2.86,1.28-3.94,2.36l.28.28-.28-.28c-.32.32-.61.66-.88,1.02.23.14.46.28.7.41.23-.3.48-.6.75-.87h0c1.41-1.41,3.3-2.34,5.41-2.5-.17,2.09-1.08,3.96-2.46,5.37.25.13.5.25.75.37.97-1.04,1.72-2.31,2.14-3.71.46,1.51,1.28,2.86,2.36,3.95,1.09,1.09,2.44,1.91,3.94,2.36-.46.14-.91.32-1.34.52.36.14.71.28,1.08.41.73-.27,1.5-.44,2.3-.51-.03.43-.11.84-.2,1.25.45.15.91.3,1.36.44-.16-.55-.27-1.11-.31-1.7,2.11.17,4,1.09,5.41,2.5.26.26.49.53.71.82.39.09.78.19,1.17.28-.38-.6-.82-1.16-1.32-1.67-1.09-1.09-2.44-1.91-3.95-2.36,1.51-.46,2.86-1.28,3.94-2.36,1.09-1.09,1.91-2.44,2.36-3.95.46,1.51,1.28,2.86,2.36,3.95,1.09,1.09,2.44,1.91,3.94,2.36-1.51.46-2.86,1.28-3.94,2.36l.28.28-.28-.28c-.61.61-1.13,1.31-1.56,2.06.28.06.56.11.83.16.36-.6.8-1.16,1.29-1.66,1.41-1.41,3.3-2.34,5.41-2.5-.15,1.87-.9,3.57-2.05,4.92.31.04.62.08.93.12.68-.89,1.21-1.91,1.54-3.01.38,1.25,1,2.38,1.82,3.35.39.03.78.06,1.17.09-.02-.02-.04-.04-.06-.06h0c-1.41-1.41-2.34-3.3-2.5-5.41,2.11.17,4,1.09,5.41,2.5.88.89,1.58,1.96,2.01,3.16.28,0,.56.01.84.01-.47-1.42-1.26-2.7-2.29-3.74-1.09-1.09-2.44-1.91-3.94-2.36,1.51-.46,2.86-1.28,3.94-2.36,1.09-1.09,1.91-2.44,2.36-3.95.46,1.51,1.28,2.86,2.36,3.95,1.09,1.09,2.44,1.91,3.94,2.36-1.51.46-2.86,1.28-3.94,2.36-1.03,1.03-1.82,2.31-2.29,3.74.28,0,.56,0,.84-.01.44-1.2,1.13-2.27,2.01-3.16,1.41-1.41,3.3-2.34,5.41-2.5-.17,2.11-1.09,4-2.5,5.41-.02.02-.04.04-.07.06.39-.03.78-.05,1.17-.09.82-.97,1.45-2.11,1.82-3.35.33,1.1.86,2.12,1.54,3.01.31-.04.62-.08.93-.12-1.15-1.35-1.9-3.05-2.05-4.92,2.11.17,4,1.09,5.41,2.5.5.5.93,1.05,1.29,1.66.28-.05.56-.1.83-.16-.42-.76-.95-1.46-1.56-2.07-1.09-1.09-2.44-1.91-3.95-2.36,1.51-.46,2.86-1.28,3.95-2.36,1.09-1.09,1.91-2.44,2.36-3.95.46,1.51,1.28,2.86,2.36,3.95,1.09,1.09,2.44,1.91,3.94,2.36-1.51.46-2.86,1.28-3.94,2.36-.5.5-.95,1.06-1.32,1.67.39-.09.78-.18,1.17-.28.22-.29.46-.57.72-.83h0c1.41-1.41,3.3-2.34,5.41-2.5-.05.59-.16,1.15-.32,1.7.45-.15.91-.29,1.36-.44-.1-.41-.17-.83-.2-1.26.81.06,1.58.24,2.31.51.36-.13.72-.27,1.07-.41-.43-.21-.88-.39-1.35-.53,1.51-.46,2.86-1.28,3.94-2.36,1.09-1.09,1.91-2.44,2.36-3.94.42,1.4,1.17,2.67,2.14,3.71.25-.12.5-.25.75-.37-1.39-1.41-2.3-3.29-2.47-5.38,2.11.17,4,1.09,5.41,2.5.27.27.52.57.75.87.23-.13.47-.27.7-.41-.27-.36-.57-.71-.89-1.03-1.09-1.09-2.44-1.91-3.94-2.36,1.51-.46,2.86-1.28,3.94-2.36,1.09-1.09,1.91-2.44,2.36-3.94.46,1.51,1.28,2.86,2.36,3.94.69.7,1.5,1.28,2.38,1.73.25-.18.49-.36.73-.54-.95-.43-1.82-1.03-2.55-1.76-1.41-1.41-2.34-3.3-2.5-5.41,2.11.17,4,1.09,5.41,2.5.83.83,1.49,1.84,1.93,2.95.22-.17.44-.35.65-.52-.48-1.13-1.16-2.14-2.02-3-1.09-1.09-2.44-1.91-3.95-2.36,1.51-.46,2.86-1.28,3.95-2.36,1.09-1.09,1.91-2.44,2.36-3.95.46,1.51,1.28,2.86,2.36,3.95.98.98,2.19,1.75,3.53,2.22.22-.21.43-.42.65-.63-1.38-.42-2.61-1.16-3.61-2.15-1.41-1.41-2.34-3.3-2.5-5.41,2.11.17,4,1.09,5.41,2.5.99.99,1.73,2.22,2.15,3.58.21-.22.42-.44.63-.67-.47-1.32-1.23-2.51-2.21-3.48-1.09-1.09-2.44-1.91-3.95-2.36,1.51-.46,2.86-1.28,3.95-2.36,1.09-1.09,1.91-2.44,2.36-3.95.46,1.51,1.28,2.86,2.36,3.94l.28-.28-.28.28c.8.8,1.75,1.46,2.81,1.94.17-.22.34-.44.51-.66-1.03-.44-1.96-1.06-2.74-1.84h0c-1.41-1.41-2.34-3.31-2.5-5.41,2.11.17,4,1.09,5.41,2.5.66.66,1.21,1.43,1.63,2.27.17-.25.35-.49.51-.74-.43-.77-.96-1.48-1.57-2.1-1.09-1.09-2.44-1.91-3.94-2.36,1.51-.46,2.86-1.28,3.94-2.36,1.09-1.09,1.91-2.44,2.36-3.94.46,1.51,1.28,2.86,2.36,3.95l.28-.28-.28.28c.22.22.45.42.69.62.13-.24.27-.47.4-.71-.18-.15-.35-.31-.52-.47-1.41-1.41-2.34-3.3-2.5-5.41,1.9.15,3.62.92,4.97,2.1.12-.25.24-.5.35-.75-.96-.79-2.07-1.4-3.29-1.77,1.51-.46,2.86-1.28,3.95-2.36.77-.77,1.4-1.67,1.86-2.66ZM157.2,118.06c1.41,1.41,2.34,3.3,2.5,5.41-2.11-.17-4-1.09-5.41-2.5-1.41-1.41-2.34-3.31-2.5-5.41,2.11.17,4,1.09,5.41,2.5ZM143.02,124.32c2.11.17,4,1.09,5.41,2.5,1.41,1.41,2.33,3.3,2.5,5.41-2.11-.17-4-1.09-5.41-2.5h0c-1.41-1.41-2.34-3.3-2.5-5.41ZM145.52,118.06c1.41-1.41,3.3-2.33,5.41-2.5-.17,2.11-1.09,4-2.5,5.41-1.41,1.41-3.3,2.33-5.41,2.5.17-2.11,1.09-4,2.5-5.41h0ZM148.43,109.29c1.41,1.41,2.34,3.3,2.5,5.41-2.11-.17-4-1.09-5.41-2.5-1.41-1.41-2.34-3.31-2.5-5.41,2.11.17,4,1.09,5.41,2.5ZM144.95,112.77c1.09,1.09,2.44,1.91,3.94,2.36-1.51.46-2.86,1.28-3.94,2.36l.28.28-.28-.28c-1.09,1.09-1.91,2.44-2.36,3.95-.46-1.51-1.28-2.86-2.36-3.95-1.09-1.09-2.44-1.91-3.95-2.36,1.51-.46,2.86-1.28,3.95-2.36,1.09-1.09,1.91-2.44,2.36-3.94.46,1.51,1.28,2.86,2.36,3.94ZM57.85,153.12c1.41-1.41,3.3-2.34,5.41-2.5-.17,2.11-1.09,4-2.5,5.41-1.41,1.41-3.3,2.34-5.41,2.5.17-2.11,1.09-4,2.5-5.41h0ZM43.8,126.26c-1.09-1.09-2.44-1.91-3.95-2.36,1.51-.46,2.86-1.28,3.94-2.36,1.09-1.09,1.91-2.44,2.36-3.94.46,1.51,1.28,2.86,2.36,3.95l.28-.28-.28.28c1.09,1.09,2.44,1.91,3.94,2.36-1.51.46-2.86,1.28-3.94,2.36-1.09,1.09-1.91,2.44-2.36,3.95-.46-1.51-1.28-2.86-2.36-3.95ZM45.73,132.24c-2.11-.17-4-1.09-5.41-2.5-1.41-1.41-2.34-3.31-2.5-5.41,2.11.17,4,1.09,5.41,2.5,1.41,1.41,2.33,3.3,2.5,5.41ZM37.82,123.47c.17-2.11,1.09-4,2.5-5.41,1.41-1.41,3.3-2.34,5.41-2.5-.17,2.11-1.09,4-2.5,5.41-1.41,1.41-3.3,2.33-5.41,2.5ZM127.42,112.77c1.09,1.09,2.44,1.91,3.94,2.36-1.51.46-2.86,1.28-3.94,2.36-1.09,1.09-1.91,2.44-2.36,3.94-.46-1.51-1.28-2.86-2.36-3.94-1.09-1.08-2.44-1.91-3.94-2.36,1.51-.46,2.86-1.28,3.94-2.36,1.09-1.09,1.91-2.44,2.36-3.94.46,1.51,1.28,2.86,2.36,3.94ZM125.48,106.78c2.11.17,4,1.09,5.41,2.5,1.41,1.41,2.34,3.3,2.5,5.41-2.11-.17-4-1.09-5.41-2.5-1.41-1.41-2.34-3.3-2.5-5.41ZM133.4,115.55c-.17,2.11-1.09,4-2.5,5.41-1.41,1.41-3.3,2.33-5.41,2.5.17-2.11,1.09-4,2.5-5.41,1.41-1.41,3.31-2.34,5.41-2.5ZM122.13,112.2c-1.41,1.41-3.3,2.34-5.41,2.5.17-2.11,1.09-4,2.5-5.41,1.41-1.41,3.3-2.34,5.41-2.5-.17,2.11-1.09,4-2.5,5.41ZM122.13,118.06c1.41,1.41,2.34,3.3,2.5,5.41-2.11-.17-4-1.09-5.41-2.5-1.41-1.41-2.34-3.3-2.5-5.41,2.11.17,4,1.09,5.41,2.5ZM124.63,124.32c-.17,2.11-1.09,4-2.5,5.41-1.41,1.41-3.3,2.34-5.41,2.5.17-2.11,1.09-4,2.5-5.41,1.41-1.41,3.31-2.34,5.41-2.5ZM118.65,121.53c1.09,1.09,2.44,1.91,3.94,2.36-1.51.46-2.86,1.28-3.94,2.36-1.08,1.08-1.9,2.43-2.36,3.93-.46-1.5-1.27-2.85-2.36-3.93-1.09-1.09-2.44-1.91-3.95-2.36,1.51-.46,2.86-1.28,3.95-2.36,1.08-1.08,1.9-2.43,2.36-3.93.46,1.5,1.28,2.85,2.36,3.93ZM122.13,135.59c1.41,1.41,2.34,3.3,2.5,5.41-2.11-.17-4-1.09-5.41-2.5-1.41-1.41-2.34-3.3-2.5-5.41,2.11.17,4,1.09,5.41,2.5ZM115.87,132.24c-2.11-.17-4-1.09-5.41-2.5h0c-1.41-1.41-2.33-3.31-2.5-5.41,2.11.17,4,1.09,5.41,2.5,1.41,1.41,2.33,3.3,2.5,5.41ZM107.95,123.47c.17-2.11,1.09-4,2.5-5.41,1.41-1.41,3.3-2.34,5.41-2.5-.17,2.11-1.09,4-2.5,5.41-1.41,1.41-3.3,2.33-5.41,2.5ZM110.46,112.2c-1.41-1.41-2.34-3.31-2.5-5.41,2.11.17,4,1.09,5.41,2.5,1.41,1.41,2.33,3.3,2.5,5.41-2.11-.17-4-1.09-5.41-2.5ZM109.89,112.77c1.09,1.09,2.44,1.91,3.94,2.36-1.51.46-2.86,1.28-3.94,2.36-1.09,1.09-1.91,2.44-2.36,3.95-.46-1.51-1.28-2.86-2.36-3.95-1.09-1.08-2.44-1.91-3.94-2.36,1.51-.46,2.86-1.28,3.94-2.36,1.09-1.09,1.91-2.44,2.36-3.94.46,1.51,1.28,2.86,2.36,3.95ZM104.6,112.2c-1.41,1.41-3.3,2.34-5.41,2.5.17-2.11,1.09-4,2.5-5.41,1.41-1.41,3.3-2.34,5.41-2.5-.17,2.11-1.09,4-2.5,5.41ZM104.6,118.06c1.41,1.41,2.33,3.3,2.5,5.41-2.11-.17-4-1.09-5.41-2.5-1.41-1.41-2.34-3.31-2.5-5.41,2.11.17,4,1.09,5.41,2.5ZM107.1,124.32c-.17,2.11-1.09,4-2.5,5.41-1.41,1.41-3.3,2.34-5.41,2.5.17-2.11,1.09-4,2.5-5.41,1.41-1.41,3.3-2.34,5.41-2.5ZM101.12,121.53l.28-.28-.28.28c1.09,1.08,2.44,1.91,3.94,2.36-1.51.46-2.86,1.28-3.94,2.36-1.09,1.09-1.91,2.44-2.36,3.95-.46-1.51-1.28-2.86-2.36-3.95-1.09-1.09-2.44-1.91-3.94-2.36,1.51-.46,2.86-1.28,3.94-2.36,1.09-1.09,1.91-2.44,2.36-3.95.46,1.51,1.28,2.86,2.36,3.95ZM104.6,135.59c1.41,1.41,2.34,3.3,2.5,5.41-2.11-.17-4-1.09-5.41-2.5-1.41-1.41-2.34-3.3-2.5-5.41,2.11.17,4,1.09,5.41,2.5ZM98.34,132.24c-2.11-.17-4-1.09-5.41-2.5-1.41-1.41-2.34-3.3-2.5-5.41,2.11.17,4,1.09,5.41,2.5,1.41,1.41,2.34,3.3,2.5,5.41ZM90.42,123.47c.17-2.11,1.09-4,2.5-5.41,1.41-1.41,3.3-2.34,5.41-2.5-.17,2.11-1.09,4-2.5,5.41-1.41,1.41-3.3,2.33-5.41,2.5ZM92.92,112.2c-1.41-1.41-2.34-3.31-2.5-5.41,2.11.17,4,1.09,5.41,2.5,1.41,1.41,2.34,3.3,2.5,5.41-2.11-.17-4-1.09-5.41-2.5ZM92.36,112.76l.28-.28-.28.28c1.09,1.09,2.44,1.91,3.94,2.36-1.51.46-2.86,1.28-3.94,2.36l.28.28-.28-.28c-1.09,1.09-1.91,2.44-2.36,3.95-.46-1.51-1.28-2.86-2.36-3.95-1.09-1.08-2.44-1.91-3.95-2.36,1.51-.46,2.86-1.28,3.94-2.36,1.09-1.09,1.91-2.44,2.36-3.94.46,1.51,1.28,2.86,2.36,3.94ZM87.07,112.2c-1.41,1.41-3.3,2.34-5.41,2.5.17-2.11,1.09-4,2.5-5.41,1.41-1.41,3.31-2.34,5.41-2.5-.17,2.11-1.09,4-2.5,5.41ZM87.07,118.06c1.41,1.41,2.34,3.3,2.5,5.41-2.11-.17-4-1.09-5.41-2.5h0c-1.41-1.41-2.34-3.31-2.5-5.41,2.11.17,4,1.09,5.41,2.5ZM89.57,124.32c-.17,2.11-1.09,4-2.5,5.41-1.41,1.41-3.3,2.34-5.41,2.5.17-2.11,1.09-4,2.5-5.41,1.41-1.41,3.31-2.34,5.41-2.5ZM83.59,121.53c1.09,1.09,2.44,1.91,3.94,2.36-1.51.46-2.86,1.28-3.94,2.36l.28.28-.28-.28c-1.09,1.09-1.91,2.44-2.36,3.95-.46-1.51-1.28-2.86-2.36-3.95-1.09-1.09-2.44-1.91-3.94-2.36,1.51-.46,2.86-1.28,3.94-2.36,1.09-1.09,1.91-2.44,2.36-3.95.46,1.51,1.28,2.86,2.36,3.95ZM87.07,135.59c1.41,1.41,2.34,3.3,2.5,5.41-2.11-.17-4-1.09-5.41-2.5h0c-1.41-1.41-2.34-3.3-2.5-5.41,2.11.17,4,1.09,5.41,2.5ZM80.8,133.08c-.17,2.11-1.09,4-2.5,5.41-1.41,1.41-3.3,2.33-5.41,2.5.17-2.11,1.09-4,2.5-5.41,1.41-1.41,3.3-2.34,5.41-2.5ZM80.8,132.24c-2.11-.17-4-1.09-5.41-2.5-1.41-1.41-2.34-3.31-2.5-5.41,2.11.17,4,1.09,5.41,2.5,1.41,1.41,2.34,3.3,2.5,5.41ZM78.3,120.97c-1.41,1.41-3.3,2.33-5.41,2.5.17-2.11,1.09-4,2.5-5.41,1.41-1.41,3.3-2.34,5.41-2.5-.17,2.11-1.09,4-2.5,5.41ZM74.82,112.76l.28-.28-.28.28c1.09,1.09,2.44,1.91,3.94,2.36-1.51.46-2.86,1.28-3.94,2.36-1.09,1.09-1.91,2.44-2.36,3.94-.46-1.51-1.28-2.86-2.36-3.94-1.09-1.09-2.44-1.91-3.94-2.36,1.51-.46,2.86-1.28,3.94-2.36,1.09-1.09,1.91-2.44,2.36-3.95.46,1.51,1.28,2.86,2.36,3.94ZM72.88,106.78c2.11.17,4,1.09,5.41,2.5,1.41,1.41,2.34,3.3,2.5,5.41-2.11-.17-4-1.09-5.41-2.5-1.41-1.41-2.34-3.31-2.5-5.41ZM69.53,112.2c-1.41,1.41-3.3,2.33-5.41,2.5.17-2.11,1.09-4,2.5-5.41,1.41-1.41,3.3-2.34,5.41-2.5-.17,2.11-1.09,4-2.5,5.41ZM69.53,118.06c1.41,1.41,2.34,3.3,2.5,5.41-2.11-.17-4-1.09-5.41-2.5-1.41-1.41-2.34-3.31-2.5-5.41,2.11.17,4,1.09,5.41,2.5ZM66.05,121.53c1.09,1.09,2.44,1.91,3.94,2.36-1.51.46-2.86,1.28-3.94,2.36-1.09,1.09-1.91,2.44-2.36,3.94-.46-1.51-1.28-2.86-2.36-3.94-1.09-1.09-2.44-1.91-3.95-2.36,1.51-.46,2.86-1.28,3.95-2.36,1.09-1.09,1.91-2.44,2.36-3.94.46,1.51,1.28,2.86,2.36,3.95ZM72.04,124.32c-.17,2.11-1.09,4-2.5,5.41-1.41,1.41-3.3,2.34-5.41,2.5.17-2.11,1.09-4,2.5-5.41,1.41-1.41,3.3-2.34,5.41-2.5ZM57.85,135.59c1.41-1.41,3.3-2.34,5.41-2.5-.17,2.11-1.09,4-2.5,5.41-1.41,1.41-3.3,2.33-5.41,2.5.17-2.11,1.09-4,2.5-5.41h0ZM63.27,132.24c-2.11-.17-4-1.09-5.41-2.5-1.41-1.41-2.33-3.31-2.5-5.41,2.11.17,4,1.09,5.41,2.5,1.41,1.41,2.34,3.3,2.5,5.41ZM60.76,120.97c-1.41,1.41-3.3,2.33-5.41,2.5.17-2.11,1.09-4,2.5-5.41,1.41-1.41,3.3-2.34,5.41-2.5-.17,2.11-1.09,4-2.5,5.41ZM55.35,106.78c2.11.17,4,1.09,5.41,2.5,1.41,1.41,2.34,3.3,2.5,5.41-2.11-.17-4-1.09-5.41-2.5h0c-1.41-1.41-2.34-3.3-2.5-5.41ZM57.29,112.76c1.09,1.09,2.44,1.91,3.94,2.36-1.51.46-2.86,1.28-3.94,2.36-1.09,1.09-1.91,2.44-2.36,3.95-.46-1.51-1.28-2.86-2.36-3.95-1.09-1.09-2.44-1.91-3.94-2.36,1.51-.46,2.86-1.28,3.94-2.36,1.09-1.09,1.91-2.44,2.36-3.94.46,1.51,1.28,2.86,2.36,3.94ZM49.09,126.82c1.41-1.41,3.31-2.33,5.41-2.5-.17,2.11-1.09,4-2.5,5.41-1.41,1.41-3.3,2.34-5.41,2.5.17-2.11,1.09-4,2.5-5.41h0ZM54.5,123.47c-2.11-.17-4-1.09-5.41-2.5-1.41-1.41-2.34-3.31-2.5-5.41,2.11.17,4,1.09,5.41,2.5,1.41,1.41,2.33,3.3,2.5,5.41ZM52,112.2c-1.41,1.41-3.3,2.34-5.41,2.5.17-2.11,1.09-4,2.5-5.41,1.41-1.41,3.3-2.34,5.41-2.5-.17,2.11-1.09,4-2.5,5.41ZM52,135.59c1.41,1.41,2.33,3.3,2.5,5.41-2.11-.17-4-1.09-5.41-2.5h0c-1.41-1.41-2.34-3.3-2.5-5.41,2.11.17,4,1.09,5.41,2.5ZM52.56,135.02c-1.09-1.09-2.44-1.91-3.94-2.36,1.51-.46,2.86-1.28,3.94-2.36,1.09-1.09,1.91-2.44,2.36-3.94.46,1.51,1.28,2.86,2.36,3.95l.28-.28-.28.28c1.09,1.08,2.44,1.91,3.94,2.36-1.51.46-2.86,1.28-3.94,2.36-1.09,1.09-1.91,2.44-2.36,3.95-.46-1.51-1.28-2.86-2.36-3.95ZM54.5,141.85c-.17,2.11-1.09,4-2.5,5.41-1.41,1.41-3.3,2.33-5.41,2.5.17-2.11,1.09-4,2.5-5.41,1.41-1.41,3.3-2.34,5.41-2.5ZM60.76,144.36c1.41,1.41,2.34,3.3,2.5,5.41-2.11-.17-4-1.09-5.41-2.5-1.41-1.41-2.33-3.3-2.5-5.41,2.11.17,4,1.09,5.41,2.5ZM61.33,143.79c-1.09-1.09-2.44-1.91-3.94-2.36,1.51-.46,2.86-1.28,3.94-2.36,1.09-1.09,1.91-2.44,2.36-3.94.46,1.51,1.28,2.86,2.36,3.94,1.09,1.09,2.44,1.91,3.94,2.36-1.51.46-2.86,1.28-3.94,2.36l.28.28-.28-.28c-1.09,1.09-1.91,2.44-2.36,3.94-.46-1.51-1.28-2.86-2.36-3.94ZM69.53,153.12c1.41,1.41,2.34,3.3,2.5,5.41-2.11-.17-4-1.09-5.41-2.5-1.41-1.41-2.34-3.31-2.5-5.41,2.11.17,4,1.09,5.41,2.5ZM66.62,144.36c1.41-1.41,3.3-2.34,5.41-2.5-.17,2.11-1.09,4-2.5,5.41-1.41,1.41-3.3,2.33-5.41,2.5.17-2.11,1.09-4,2.5-5.41ZM66.62,138.5c-1.41-1.41-2.34-3.3-2.5-5.41,2.11.17,4,1.09,5.41,2.5,1.41,1.41,2.34,3.3,2.5,5.41-2.11-.17-4-1.09-5.41-2.5ZM70.1,135.02c-1.09-1.09-2.44-1.91-3.94-2.36,1.51-.46,2.86-1.28,3.94-2.36,1.09-1.09,1.91-2.44,2.36-3.94.46,1.51,1.28,2.86,2.36,3.95l.28-.28-.28.28c1.09,1.08,2.44,1.91,3.94,2.36-1.51.46-2.86,1.28-3.94,2.36-1.09,1.09-1.91,2.44-2.36,3.95-.46-1.51-1.28-2.86-2.36-3.95ZM78.3,144.36c1.41,1.41,2.34,3.3,2.5,5.41-2.11-.17-4-1.09-5.41-2.5-1.41-1.41-2.34-3.3-2.5-5.41,2.11.17,4,1.09,5.41,2.5ZM78.87,143.79c-1.09-1.09-2.44-1.91-3.94-2.36,1.51-.46,2.86-1.28,3.94-2.36,1.09-1.09,1.91-2.44,2.36-3.94.46,1.51,1.28,2.86,2.36,3.94,1.09,1.09,2.44,1.91,3.94,2.36-1.51.46-2.86,1.28-3.94,2.36-1.09,1.09-1.91,2.44-2.36,3.94-.46-1.51-1.28-2.86-2.36-3.94ZM80.8,150.62c-.17,2.11-1.09,4-2.5,5.41-1.41,1.41-3.3,2.34-5.41,2.5.17-2.11,1.09-4,2.5-5.41,1.41-1.41,3.3-2.34,5.41-2.5ZM87.07,153.12c1.41,1.41,2.34,3.3,2.5,5.41-2.11-.17-4-1.09-5.41-2.5-1.41-1.41-2.34-3.31-2.5-5.41,2.11.17,4,1.09,5.41,2.5ZM84.16,144.36c1.41-1.41,3.3-2.34,5.41-2.5-.17,2.11-1.09,4-2.5,5.41-1.41,1.41-3.3,2.34-5.41,2.5.17-2.11,1.09-4,2.5-5.41ZM87.63,135.02c-1.09-1.09-2.44-1.91-3.95-2.36,1.51-.46,2.86-1.28,3.94-2.36,1.09-1.09,1.91-2.44,2.36-3.94.46,1.51,1.28,2.86,2.36,3.95l.28-.28-.28.28c1.09,1.08,2.44,1.91,3.94,2.36-1.51.46-2.86,1.28-3.94,2.36l.28.28-.28-.28c-1.09,1.09-1.91,2.44-2.36,3.95-.46-1.51-1.28-2.86-2.36-3.95ZM98.34,133.08c-.17,2.11-1.09,4-2.5,5.41-1.41,1.41-3.3,2.34-5.41,2.5.17-2.11,1.09-4,2.5-5.41,1.41-1.41,3.3-2.34,5.41-2.5ZM95.83,144.36c1.41,1.41,2.34,3.3,2.5,5.41-2.11-.17-4-1.09-5.41-2.5-1.41-1.41-2.34-3.3-2.5-5.41,2.11.17,4,1.09,5.41,2.5ZM96.4,143.79c-1.09-1.09-2.44-1.91-3.94-2.36,1.51-.46,2.86-1.28,3.94-2.36,1.09-1.09,1.91-2.44,2.36-3.95.46,1.51,1.28,2.86,2.36,3.95l.28-.28-.28.28c1.09,1.09,2.44,1.91,3.94,2.36-1.51.46-2.86,1.28-3.94,2.36-1.09,1.09-1.91,2.44-2.36,3.95-.46-1.51-1.28-2.86-2.36-3.95ZM104.6,153.12c1.41,1.41,2.34,3.3,2.5,5.41-2.11-.17-4-1.09-5.41-2.5-1.41-1.41-2.34-3.31-2.5-5.41,2.11.17,4,1.09,5.41,2.5ZM101.69,144.36c1.41-1.41,3.3-2.34,5.41-2.5-.17,2.11-1.09,4-2.5,5.41-1.41,1.41-3.3,2.34-5.41,2.5.17-2.11,1.09-4,2.5-5.41ZM105.17,135.02c-1.09-1.09-2.44-1.91-3.95-2.36,1.51-.46,2.86-1.28,3.95-2.36,1.09-1.09,1.91-2.44,2.36-3.94.46,1.51,1.28,2.86,2.36,3.95,1.09,1.09,2.44,1.91,3.94,2.36-1.51.46-2.86,1.28-3.94,2.36-1.09,1.09-1.91,2.44-2.36,3.95-.46-1.51-1.28-2.86-2.36-3.95ZM115.87,133.08c-.17,2.11-1.09,4-2.5,5.41-1.41,1.41-3.3,2.34-5.41,2.5.17-2.11,1.09-4,2.5-5.41h0c1.41-1.41,3.3-2.34,5.41-2.5ZM113.37,144.36c1.41,1.41,2.33,3.3,2.5,5.41-2.11-.17-4-1.09-5.41-2.5h0c-1.41-1.41-2.33-3.3-2.5-5.41,2.11.17,4,1.09,5.41,2.5ZM113.93,143.79c-1.09-1.09-2.44-1.91-3.95-2.36,1.51-.46,2.86-1.28,3.94-2.36,1.08-1.08,1.9-2.43,2.36-3.93.46,1.5,1.28,2.85,2.36,3.93l.28-.28-.28.28c1.08,1.09,2.44,1.91,3.94,2.36-1.51.46-2.86,1.28-3.94,2.36-1.08,1.08-1.9,2.43-2.36,3.93-.46-1.5-1.27-2.85-2.36-3.93ZM122.13,153.12c1.41,1.41,2.34,3.3,2.5,5.41-2.11-.17-4-1.09-5.41-2.5-1.41-1.41-2.34-3.3-2.5-5.41,2.11.17,4,1.09,5.41,2.5ZM119.22,144.36h0c1.41-1.41,3.3-2.34,5.41-2.5-.17,2.11-1.09,4-2.5,5.41-1.41,1.41-3.3,2.34-5.41,2.5.17-2.11,1.09-4,2.5-5.41ZM122.69,135.02c-1.09-1.09-2.44-1.91-3.94-2.36,1.51-.46,2.86-1.28,3.94-2.36,1.09-1.09,1.91-2.44,2.36-3.94.46,1.51,1.28,2.86,2.36,3.94,1.09,1.08,2.44,1.91,3.94,2.36-1.51.46-2.86,1.28-3.94,2.36-1.09,1.09-1.91,2.44-2.36,3.94-.46-1.51-1.28-2.86-2.36-3.94ZM127.98,135.59c1.41-1.41,3.31-2.34,5.41-2.5-.17,2.11-1.09,4-2.5,5.41-1.41,1.41-3.3,2.33-5.41,2.5.17-2.11,1.09-4,2.5-5.41ZM127.98,129.73h0c-1.41-1.41-2.33-3.31-2.5-5.41,2.11.17,4,1.09,5.41,2.5,1.41,1.41,2.34,3.3,2.5,5.41-2.11-.17-4-1.09-5.41-2.5ZM131.46,126.26c-1.09-1.08-2.44-1.91-3.95-2.36,1.51-.46,2.86-1.28,3.94-2.36,1.09-1.09,1.91-2.44,2.36-3.95.46,1.51,1.28,2.86,2.36,3.95,1.09,1.09,2.44,1.91,3.94,2.36-1.51.46-2.86,1.28-3.94,2.36-1.09,1.09-1.91,2.44-2.36,3.95-.46-1.51-1.28-2.86-2.36-3.95ZM134.25,115.55c2.11.17,4,1.09,5.41,2.5,1.41,1.41,2.34,3.3,2.5,5.41-2.11-.17-4-1.09-5.41-2.5-1.41-1.41-2.34-3.31-2.5-5.41ZM136.75,126.82c1.41-1.41,3.31-2.34,5.41-2.5-.17,2.11-1.09,4-2.5,5.41-1.41,1.41-3.3,2.34-5.41,2.5.17-2.11,1.09-4,2.5-5.41ZM139.66,112.2c-1.41,1.41-3.3,2.34-5.41,2.5.17-2.11,1.09-4,2.5-5.41,1.41-1.41,3.3-2.34,5.41-2.5-.17,2.11-1.09,4-2.5,5.41ZM139.66,100.52c1.41,1.41,2.33,3.3,2.5,5.41-2.11-.17-4-1.09-5.41-2.5-1.41-1.41-2.34-3.31-2.5-5.41,2.11.17,4,1.09,5.41,2.5ZM133.82,100.05c.46,1.51,1.28,2.86,2.36,3.94l.28-.28-.28.28c1.09,1.08,2.44,1.91,3.94,2.36-1.51.45-2.86,1.28-3.94,2.36-1.09,1.09-1.91,2.44-2.36,3.94-.46-1.51-1.28-2.86-2.36-3.94-1.09-1.09-2.44-1.91-3.94-2.36,1.51-.46,2.86-1.28,3.94-2.36,1.09-1.09,1.91-2.44,2.36-3.95ZM130.89,103.43c-1.41,1.41-3.3,2.33-5.41,2.5.17-2.11,1.09-4,2.5-5.41,1.41-1.41,3.31-2.34,5.41-2.5-.17,2.11-1.09,4-2.5,5.41ZM122.69,95.23c1.09-1.09,1.91-2.44,2.36-3.94.46,1.51,1.28,2.86,2.36,3.94l.28-.28-.28.28c1.09,1.09,2.44,1.91,3.94,2.36-1.51.46-2.86,1.28-3.94,2.36-1.09,1.09-1.91,2.44-2.36,3.94-.46-1.51-1.28-2.86-2.36-3.94-1.09-1.09-2.44-1.91-3.95-2.36,1.51-.46,2.86-1.28,3.94-2.36ZM122.13,100.52c1.41,1.41,2.34,3.3,2.5,5.41-2.11-.17-4-1.09-5.41-2.5-1.41-1.41-2.34-3.3-2.5-5.41,2.11.17,4,1.09,5.41,2.5ZM118.65,104c1.08,1.08,2.44,1.91,3.94,2.36-1.51.45-2.86,1.28-3.94,2.36l.28.28-.28-.28c-1.08,1.08-1.9,2.43-2.36,3.93-.46-1.5-1.27-2.85-2.36-3.93-1.09-1.09-2.44-1.91-3.95-2.36,1.51-.46,2.86-1.28,3.94-2.36,1.08-1.08,1.9-2.43,2.36-3.93.46,1.5,1.28,2.85,2.36,3.93ZM107.95,105.94c.17-2.11,1.09-4,2.5-5.41h0c1.41-1.41,3.3-2.34,5.41-2.5-.17,2.11-1.09,4-2.5,5.41-1.41,1.41-3.3,2.33-5.41,2.5ZM113.37,91.76c1.41,1.41,2.33,3.3,2.5,5.41-2.11-.17-4-1.09-5.41-2.5h0c-1.41-1.41-2.33-3.3-2.5-5.41,2.11.17,4,1.09,5.41,2.5ZM107.53,91.29c.46,1.51,1.28,2.86,2.36,3.95,1.09,1.09,2.44,1.91,3.94,2.36-1.51.46-2.86,1.28-3.94,2.36-1.09,1.09-1.91,2.44-2.36,3.95-.46-1.51-1.28-2.86-2.36-3.94-1.09-1.09-2.44-1.91-3.95-2.36,1.51-.46,2.86-1.28,3.95-2.36,1.09-1.09,1.91-2.44,2.36-3.95ZM101.69,91.76h0c1.41-1.41,3.3-2.33,5.41-2.5-.17,2.11-1.09,4-2.5,5.41-1.41,1.41-3.3,2.34-5.41,2.5.17-2.11,1.09-4,2.5-5.41ZM104.6,100.52c1.41,1.41,2.34,3.3,2.5,5.41-2.11-.17-4-1.09-5.41-2.5-1.41-1.41-2.34-3.31-2.5-5.41,2.11.17,4,1.09,5.41,2.5ZM101.12,104l.28-.28-.28.28c1.09,1.08,2.44,1.91,3.94,2.36-1.51.46-2.86,1.28-3.94,2.36-1.09,1.09-1.91,2.44-2.36,3.95-.46-1.51-1.28-2.86-2.36-3.95-1.09-1.09-2.44-1.91-3.94-2.36,1.51-.46,2.86-1.28,3.94-2.36,1.09-1.09,1.91-2.44,2.36-3.95.46,1.51,1.28,2.86,2.36,3.95ZM90.42,105.94c.17-2.11,1.09-4,2.5-5.41,1.41-1.41,3.3-2.34,5.41-2.5-.17,2.11-1.09,4-2.5,5.41-1.41,1.41-3.3,2.33-5.41,2.5ZM95.83,91.76c1.41,1.41,2.34,3.3,2.5,5.41-2.11-.17-4-1.09-5.41-2.5-1.41-1.41-2.34-3.3-2.5-5.41,2.11.17,4,1.09,5.41,2.5ZM92.36,95.23c1.09,1.09,2.44,1.91,3.94,2.36-1.51.46-2.86,1.28-3.94,2.36l.28.28-.28-.28c-1.09,1.09-1.91,2.44-2.36,3.95-.46-1.51-1.28-2.86-2.36-3.94-1.09-1.09-2.44-1.91-3.95-2.36,1.51-.46,2.86-1.28,3.94-2.36,1.09-1.09,1.91-2.44,2.36-3.95.46,1.51,1.28,2.86,2.36,3.95ZM84.16,91.76c1.41-1.41,3.31-2.34,5.41-2.5-.17,2.11-1.09,4-2.5,5.41-1.41,1.41-3.3,2.34-5.41,2.5.17-2.11,1.09-4,2.5-5.41ZM87.07,100.52c1.41,1.41,2.34,3.3,2.5,5.41-2.11-.17-4-1.09-5.41-2.5-1.41-1.41-2.34-3.31-2.51-5.41,2.11.17,4,1.09,5.41,2.5ZM83.59,104c1.09,1.09,2.44,1.91,3.94,2.36-1.51.46-2.86,1.28-3.94,2.36l.28.28-.28-.28c-1.09,1.09-1.91,2.44-2.36,3.94-.46-1.51-1.28-2.86-2.36-3.94-1.09-1.09-2.44-1.91-3.94-2.36,1.51-.46,2.86-1.28,3.94-2.36,1.09-1.09,1.91-2.44,2.36-3.95.46,1.51,1.28,2.86,2.36,3.94ZM78.3,103.43c-1.41,1.41-3.3,2.33-5.41,2.5.17-2.11,1.09-4,2.5-5.41,1.41-1.41,3.3-2.34,5.41-2.5-.17,2.11-1.09,4-2.5,5.41ZM78.3,91.76c1.41,1.41,2.34,3.3,2.5,5.41-2.11-.17-4-1.09-5.41-2.5-1.41-1.41-2.34-3.3-2.5-5.41,2.11.17,4,1.09,5.41,2.5ZM72.46,91.29c.46,1.51,1.28,2.86,2.36,3.95l.28-.28-.28.28c1.09,1.09,2.44,1.91,3.94,2.36-1.51.46-2.86,1.28-3.94,2.36-1.09,1.09-1.91,2.44-2.36,3.95-.46-1.51-1.28-2.86-2.36-3.94-1.09-1.09-2.44-1.91-3.94-2.36,1.51-.46,2.86-1.28,3.94-2.36,1.09-1.09,1.91-2.44,2.36-3.95ZM66.62,91.76c1.41-1.41,3.3-2.34,5.41-2.5-.17,2.11-1.09,4-2.5,5.41-1.41,1.41-3.3,2.34-5.41,2.5.17-2.11,1.09-4,2.5-5.41ZM69.53,100.52c1.41,1.41,2.34,3.3,2.5,5.41-2.11-.17-4-1.09-5.41-2.5-1.41-1.41-2.34-3.31-2.5-5.41,2.11.17,4,1.09,5.41,2.5ZM66.05,104c1.09,1.08,2.44,1.91,3.94,2.36-1.51.46-2.86,1.28-3.94,2.36-1.09,1.09-1.91,2.44-2.36,3.94-.46-1.51-1.28-2.86-2.36-3.94-1.09-1.09-2.44-1.91-3.94-2.36,1.51-.46,2.86-1.28,3.94-2.36,1.09-1.09,1.91-2.44,2.36-3.94.46,1.51,1.28,2.86,2.36,3.94ZM63.27,98.02c-.17,2.11-1.09,4-2.5,5.41-1.41,1.41-3.3,2.33-5.41,2.5.17-2.11,1.09-4,2.5-5.41,1.41-1.41,3.3-2.34,5.41-2.5ZM52.56,95.23c1.09-1.09,1.91-2.44,2.36-3.95.46,1.51,1.28,2.86,2.36,3.95l.28-.28-.28.28c1.09,1.09,2.44,1.91,3.94,2.36-1.51.46-2.86,1.28-3.94,2.36-1.09,1.09-1.91,2.44-2.36,3.95-.46-1.51-1.28-2.86-2.36-3.95-1.09-1.09-2.44-1.91-3.95-2.36,1.51-.46,2.86-1.28,3.94-2.36ZM52,100.52c1.41,1.41,2.33,3.3,2.5,5.41-2.11-.17-4-1.09-5.41-2.5-1.41-1.41-2.34-3.31-2.5-5.41,2.11.17,4,1.09,5.41,2.5ZM46.16,100.05c.46,1.51,1.28,2.86,2.36,3.94,1.09,1.08,2.44,1.91,3.94,2.36-1.51.45-2.86,1.28-3.94,2.36l.28.28-.28-.28c-1.09,1.09-1.91,2.44-2.36,3.94-.46-1.51-1.28-2.86-2.36-3.94-1.09-1.09-2.44-1.91-3.94-2.36,1.51-.46,2.86-1.28,3.94-2.36,1.09-1.09,1.91-2.44,2.36-3.94ZM45.73,114.7c-2.11-.17-4-1.09-5.41-2.5-1.41-1.41-2.34-3.3-2.5-5.41,2.11.17,4,1.09,5.41,2.5,1.41,1.41,2.34,3.3,2.5,5.41ZM40.32,100.52c1.41-1.41,3.3-2.34,5.41-2.5-.17,2.11-1.09,4-2.5,5.41-1.41,1.41-3.3,2.33-5.41,2.5.17-2.11,1.09-4,2.5-5.41ZM37.39,108.82c.46,1.51,1.28,2.86,2.36,3.94,1.09,1.09,2.44,1.91,3.94,2.36-1.51.46-2.86,1.28-3.94,2.36l.28.28-.28-.28c-1.09,1.09-1.91,2.44-2.36,3.94-.46-1.51-1.28-2.86-2.36-3.94-1.09-1.09-2.44-1.91-3.94-2.36,1.51-.46,2.86-1.28,3.94-2.36,1.09-1.09,1.91-2.44,2.36-3.94ZM31.55,109.29c1.41-1.41,3.31-2.34,5.41-2.5-.17,2.11-1.09,4-2.5,5.41-1.41,1.41-3.3,2.34-5.41,2.5.17-2.11,1.09-4,2.5-5.41ZM34.46,118.06c1.41,1.41,2.33,3.3,2.5,5.41-2.11-.17-4-1.09-5.41-2.5-1.41-1.41-2.34-3.31-2.5-5.41,2.11.17,4,1.09,5.41,2.5ZM36.97,124.32c-.17,2.11-1.09,4-2.5,5.41-1.41,1.41-3.3,2.34-5.41,2.5.17-2.11,1.09-4,2.5-5.41,1.41-1.41,3.3-2.34,5.41-2.5ZM22.79,118.06c1.41-1.41,3.3-2.34,5.41-2.5-.17,2.11-1.09,4-2.5,5.41-1.41,1.41-3.3,2.33-5.41,2.5.17-2.11,1.09-4,2.5-5.41ZM22.79,129.73c-1.41-1.41-2.34-3.31-2.5-5.41,2.11.17,4,1.09,5.41,2.5,1.41,1.41,2.34,3.3,2.5,5.41-2.11-.17-4-1.09-5.41-2.5ZM28.62,130.2c-.46-1.51-1.28-2.86-2.36-3.95-1.09-1.09-2.44-1.91-3.94-2.36,1.51-.46,2.86-1.28,3.94-2.36,1.09-1.09,1.91-2.44,2.36-3.95.46,1.51,1.28,2.86,2.36,3.95l.28-.28-.28.28c1.09,1.09,2.44,1.91,3.94,2.36-1.51.46-2.86,1.28-3.94,2.36-1.09,1.09-1.91,2.44-2.36,3.95ZM31.55,138.5c-1.41-1.41-2.34-3.3-2.5-5.41,2.11.17,4,1.09,5.41,2.5,1.41,1.41,2.33,3.3,2.5,5.41-2.11-.17-4-1.09-5.41-2.5ZM35.03,135.02c-1.09-1.09-2.44-1.91-3.95-2.36,1.51-.46,2.86-1.28,3.94-2.36,1.09-1.09,1.91-2.44,2.36-3.94.46,1.51,1.28,2.86,2.36,3.94l.28-.28-.28.28c1.09,1.08,2.44,1.91,3.94,2.36-1.51.46-2.86,1.28-3.94,2.36-1.09,1.09-1.91,2.44-2.36,3.95-.46-1.51-1.28-2.86-2.36-3.95ZM45.73,133.08c-.17,2.11-1.09,4-2.5,5.41-1.41,1.41-3.3,2.34-5.41,2.5.17-2.11,1.09-4,2.5-5.41,1.41-1.41,3.3-2.34,5.41-2.5ZM40.32,147.27c-1.41-1.41-2.34-3.3-2.5-5.41,2.11.17,4,1.09,5.41,2.5,1.41,1.41,2.34,3.3,2.5,5.41-2.11-.17-4-1.09-5.41-2.5ZM43.8,143.79c-1.09-1.09-2.44-1.91-3.94-2.36,1.51-.46,2.86-1.28,3.94-2.36,1.09-1.09,1.91-2.44,2.36-3.94.46,1.51,1.28,2.86,2.36,3.94,1.09,1.09,2.44,1.91,3.94,2.36-1.51.46-2.86,1.28-3.94,2.36l.28.28-.28-.28c-1.09,1.09-1.91,2.44-2.36,3.94-.46-1.51-1.28-2.86-2.36-3.94ZM49.09,156.03c-1.41-1.41-2.34-3.31-2.51-5.41,2.11.17,4,1.09,5.41,2.5,1.41,1.41,2.33,3.3,2.5,5.41-2.11-.17-4-1.09-5.41-2.5ZM54.93,156.5c-.46-1.51-1.28-2.86-2.36-3.95-1.09-1.09-2.44-1.91-3.95-2.36,1.51-.46,2.86-1.28,3.94-2.36,1.09-1.09,1.91-2.44,2.36-3.95.46,1.51,1.28,2.86,2.36,3.95l.28-.28-.28.28c1.09,1.09,2.44,1.91,3.94,2.36-1.51.46-2.86,1.28-3.94,2.36-1.09,1.09-1.91,2.44-2.36,3.95ZM57.85,164.8c-1.41-1.41-2.34-3.3-2.5-5.41,2.11.17,4,1.09,5.41,2.5,1.41,1.41,2.34,3.3,2.5,5.41-2.11-.17-4-1.09-5.41-2.5ZM63.69,165.27c-.46-1.51-1.28-2.86-2.36-3.94-1.09-1.09-2.44-1.91-3.94-2.36,1.51-.46,2.86-1.28,3.94-2.36,1.09-1.09,1.91-2.44,2.36-3.94.46,1.51,1.28,2.86,2.36,3.94,1.09,1.09,2.44,1.91,3.94,2.36-1.51.46-2.86,1.28-3.94,2.36l.28.28-.28-.28c-1.09,1.09-1.91,2.44-2.36,3.94ZM69.53,164.8c-1.41,1.41-3.3,2.33-5.41,2.5.17-2.11,1.09-4,2.5-5.41,1.41-1.41,3.3-2.34,5.41-2.5-.17,2.11-1.09,4-2.5,5.41ZM72.46,156.5c-.46-1.51-1.28-2.86-2.36-3.94-1.09-1.09-2.44-1.91-3.95-2.36,1.51-.46,2.86-1.28,3.94-2.36,1.09-1.09,1.91-2.44,2.36-3.95.46,1.51,1.28,2.86,2.36,3.95l.28-.28-.28.28c1.09,1.09,2.44,1.91,3.94,2.36-1.51.46-2.86,1.28-3.94,2.36-1.09,1.09-1.91,2.44-2.36,3.95ZM75.39,164.8c-1.41-1.41-2.34-3.3-2.5-5.41,2.11.17,4,1.09,5.41,2.5,1.41,1.41,2.34,3.3,2.5,5.41-2.11-.17-4-1.09-5.41-2.5ZM81.23,165.27c-.46-1.51-1.28-2.86-2.36-3.95-1.09-1.09-2.44-1.91-3.94-2.36,1.51-.46,2.86-1.28,3.94-2.36,1.09-1.09,1.91-2.44,2.36-3.95.46,1.51,1.28,2.86,2.36,3.94,1.09,1.09,2.44,1.91,3.94,2.36-1.51.46-2.86,1.28-3.94,2.36l.28.28-.28-.28c-1.09,1.09-1.91,2.44-2.36,3.95ZM87.07,164.8c-1.41,1.41-3.3,2.34-5.41,2.5.17-2.11,1.09-4,2.5-5.41h0c1.41-1.41,3.3-2.34,5.41-2.5-.17,2.11-1.09,4-2.5,5.41ZM87.63,152.56c-1.09-1.09-2.44-1.91-3.94-2.36,1.51-.46,2.86-1.28,3.94-2.36,1.09-1.09,1.91-2.44,2.36-3.94.46,1.51,1.28,2.86,2.36,3.94l.28-.28-.28.28c1.09,1.09,2.44,1.91,3.94,2.36-1.51.45-2.86,1.28-3.94,2.36l.28.28-.28-.28c-1.09,1.09-1.91,2.44-2.36,3.95-.46-1.51-1.28-2.86-2.36-3.94ZM98.34,150.62c-.17,2.11-1.09,4-2.5,5.41-1.41,1.41-3.3,2.34-5.41,2.5.17-2.11,1.09-4,2.5-5.41h0c1.41-1.41,3.3-2.34,5.41-2.5ZM92.92,164.8c-1.41-1.41-2.34-3.3-2.5-5.41,2.11.17,4,1.09,5.41,2.5,1.41,1.41,2.34,3.3,2.5,5.41-2.11-.17-4-1.09-5.41-2.5ZM98.76,165.27c-.46-1.51-1.28-2.86-2.36-3.95-1.09-1.09-2.44-1.91-3.94-2.36,1.51-.46,2.86-1.28,3.94-2.36,1.09-1.09,1.91-2.44,2.36-3.95.46,1.51,1.28,2.86,2.36,3.95l.28-.28-.28.28c1.09,1.09,2.44,1.91,3.95,2.36-1.51.46-2.86,1.28-3.95,2.36l.28.28-.28-.28c-1.09,1.09-1.91,2.44-2.36,3.95ZM104.6,164.8c-1.41,1.41-3.3,2.33-5.41,2.5.17-2.11,1.09-4,2.5-5.41,1.41-1.41,3.3-2.34,5.41-2.5-.17,2.11-1.09,4-2.5,5.41ZM105.17,152.56c-1.09-1.09-2.44-1.91-3.95-2.36,1.51-.46,2.86-1.28,3.95-2.36,1.09-1.09,1.91-2.44,2.36-3.95.46,1.51,1.28,2.86,2.36,3.95,1.09,1.09,2.44,1.91,3.94,2.36-1.51.46-2.86,1.28-3.94,2.36-1.09,1.09-1.91,2.44-2.36,3.95-.46-1.51-1.28-2.86-2.36-3.95ZM115.87,150.62c-.17,2.11-1.09,4-2.5,5.41-1.41,1.41-3.3,2.34-5.41,2.5.17-2.11,1.09-4,2.5-5.41h0c1.41-1.41,3.3-2.34,5.41-2.5ZM110.46,164.8c-1.41-1.41-2.34-3.3-2.5-5.41,2.11.17,4,1.09,5.41,2.5,1.41,1.41,2.34,3.3,2.5,5.41-2.11-.17-4-1.09-5.41-2.5ZM116.29,165.26c-.46-1.5-1.27-2.85-2.36-3.93-1.09-1.09-2.44-1.91-3.95-2.36,1.51-.46,2.86-1.28,3.94-2.36,1.08-1.08,1.9-2.43,2.36-3.93.46,1.5,1.28,2.85,2.36,3.93,1.08,1.09,2.44,1.91,3.94,2.36-1.51.46-2.86,1.28-3.94,2.36-1.08,1.08-1.9,2.43-2.36,3.93ZM122.13,164.8c-1.41,1.41-3.3,2.34-5.41,2.5.17-2.11,1.09-4,2.5-5.41h0c1.41-1.41,3.3-2.34,5.41-2.5-.17,2.11-1.09,4-2.5,5.41ZM125.06,156.5c-.46-1.51-1.28-2.86-2.36-3.94-1.09-1.09-2.44-1.91-3.94-2.36,1.51-.46,2.86-1.28,3.94-2.36,1.09-1.09,1.91-2.44,2.36-3.94.46,1.51,1.28,2.86,2.36,3.94l.28-.28-.28.28c1.09,1.09,2.44,1.91,3.94,2.36-1.51.45-2.86,1.28-3.94,2.36-1.09,1.09-1.91,2.44-2.36,3.94ZM130.89,156.03c-1.41,1.41-3.31,2.34-5.41,2.5.17-2.11,1.09-4,2.5-5.41,1.41-1.41,3.31-2.34,5.41-2.5-.17,2.11-1.09,4-2.5,5.41ZM127.98,147.27c-1.41-1.41-2.34-3.3-2.5-5.41,2.11.17,4,1.09,5.41,2.5,1.41,1.41,2.33,3.3,2.5,5.41-2.11-.17-4-1.09-5.41-2.5ZM133.82,147.73c-.46-1.51-1.28-2.86-2.36-3.94-1.09-1.09-2.44-1.91-3.94-2.36,1.51-.46,2.86-1.28,3.94-2.36s1.91-2.44,2.36-3.95c.46,1.51,1.28,2.86,2.36,3.94,1.09,1.09,2.44,1.91,3.94,2.36-1.51.46-2.86,1.28-3.94,2.36l.28.28-.28-.28c-1.09,1.09-1.91,2.44-2.36,3.94ZM139.66,147.27c-1.41,1.41-3.3,2.34-5.41,2.5.17-2.11,1.09-4,2.5-5.41,1.41-1.41,3.3-2.34,5.41-2.5-.17,2.11-1.09,4-2.5,5.41ZM136.75,138.5c-1.41-1.41-2.34-3.3-2.5-5.41,2.11.17,4,1.09,5.41,2.5,1.41,1.41,2.33,3.3,2.5,5.41-2.11-.17-4-1.09-5.41-2.5ZM142.59,138.97c-.46-1.51-1.28-2.86-2.36-3.94-1.09-1.09-2.44-1.91-3.94-2.36,1.51-.46,2.86-1.28,3.94-2.36,1.09-1.09,1.91-2.44,2.36-3.94.46,1.51,1.28,2.86,2.36,3.95l.28-.28-.28.28c1.09,1.08,2.44,1.91,3.94,2.36-1.51.46-2.86,1.28-3.94,2.36-1.09,1.09-1.91,2.44-2.36,3.95ZM148.43,138.5c-1.41,1.41-3.3,2.33-5.41,2.5.17-2.11,1.09-4,2.5-5.41h0c1.41-1.41,3.3-2.34,5.41-2.5-.17,2.11-1.09,4-2.5,5.41ZM151.36,130.2c-.45-1.51-1.28-2.86-2.36-3.94-1.09-1.09-2.44-1.91-3.95-2.36,1.51-.46,2.86-1.28,3.95-2.36,1.08-1.09,1.91-2.44,2.36-3.94.46,1.51,1.28,2.86,2.36,3.94l.28-.28-.28.28c1.09,1.08,2.44,1.91,3.94,2.36-1.51.46-2.86,1.28-3.94,2.36-1.09,1.09-1.91,2.44-2.36,3.95ZM157.2,129.73c-1.41,1.41-3.3,2.34-5.41,2.5.17-2.11,1.09-4,2.5-5.41,1.41-1.41,3.31-2.34,5.41-2.5-.17,2.11-1.09,4-2.5,5.41ZM143.39,154.62c1.59-1.31,3.12-2.68,4.61-4.1-1.15.48-2.18,1.17-3.05,2.04-.61.61-1.13,1.31-1.56,2.07Z"/>
        </g>
        <g class="cls-4">
          <g>
            <path class="cls-2" d="M60.7,52.77s0,0,0,0c1.96,2.78,1.33,6.62-1.43,8.62-2.78,2.02-6.68,1.41-8.7-1.38t0,0c-2.04,2.72-5.89,3.31-8.64,1.3-2.78-2.02-3.4-5.92-1.38-8.7h0c-3.22-1.1-4.97-4.58-3.91-7.82,1.06-3.27,4.58-5.06,7.85-4h0c.05-3.4,2.82-6.14,6.23-6.14s6.23,2.79,6.23,6.23h0c3.25-1,6.71.78,7.76,4.02,1.06,3.27-.73,6.79-4,7.85Z"/>
            <g>
              <path class="cls-6" d="M50.95,44.21c.29-.1.51-.37.51-.7,0-.41-.33-.74-.74-.74s-.74.33-.74.74c0,.33.21.6.51.7v2.52c0,.13.11.23.24.23s.23-.1.23-.23v-2.52Z"/>
              <path class="cls-8" d="M47.15,45.59c.14-.28.09-.62-.14-.86-.29-.29-.76-.29-1.05,0-.29.29-.29.76,0,1.05.23.23.58.28.85.14l1.78,1.78c.09.09.24.09.33,0,.09-.09.09-.24,0-.33l-1.78-1.78Z"/>
              <path class="cls-7" d="M45.45,49.24c-.1-.29-.37-.51-.7-.51-.41,0-.74.33-.74.74s.33.74.74.74c.33,0,.6-.21.7-.51h2.52c.13,0,.23-.11.23-.24s-.1-.23-.23-.23h-2.52Z"/>
              <path class="cls-9" d="M46.82,53.03c-.28-.14-.62-.09-.86.14-.29.29-.29.76,0,1.05.29.29.76.29,1.05,0,.23-.23.28-.58.14-.85l1.78-1.78c.09-.09.09-.24,0-.33s-.24-.09-.33,0l-1.78,1.78Z"/>
              <path class="cls-12" d="M50.48,54.74c-.29.1-.51.37-.51.7,0,.41.33.74.74.74s.74-.33.74-.74c0-.33-.21-.6-.51-.7v-2.52c0-.13-.11-.23-.24-.23s-.23.1-.23.23v2.52Z"/>
              <path class="cls-11" d="M54.27,53.37c-.14.28-.09.62.14.86.29.29.76.29,1.05,0s.29-.76,0-1.05c-.23-.23-.58-.28-.86-.14l-1.78-1.78c-.09-.09-.24-.09-.33,0-.09.09-.09.24,0,.33l1.78,1.78Z"/>
              <path class="cls-10" d="M55.98,49.71c.1.29.37.51.7.51.41,0,.74-.33.74-.74,0-.41-.33-.74-.74-.74-.33,0-.6.21-.7.51h-2.52c-.13,0-.23.11-.23.24s.1.23.23.23h2.52Z"/>
              <path class="cls-13" d="M54.6,45.92c.28.14.62.09.86-.14.29-.29.29-.76,0-1.05-.29-.29-.76-.29-1.05,0-.23.23-.28.58-.14.86l-1.78,1.78c-.09.09-.09.24,0,.33.09.09.24.09.33,0l1.78-1.78Z"/>
              <path class="cls-39" d="M52.36,49.48c0-.91-.74-1.65-1.64-1.65s-1.64.74-1.64,1.65.74,1.64,1.64,1.64,1.64-.74,1.64-1.64Z"/>
            </g>
          </g>
          <g>
            <path class="cls-2" d="M46.61,72.28s0,0,0,0c2.41,1.98,2.79,5.53.84,7.97-1.97,2.47-5.56,2.87-8.03.9t0,0c-1.14,2.9-4.4,4.36-7.32,3.26-2.95-1.11-4.45-4.4-3.34-7.35h0c-3.11-.19-5.5-2.84-5.36-5.96.14-3.15,2.81-5.59,5.96-5.45h0c-.78-3.02.99-6.11,4.01-6.94,3.04-.84,6.19.95,7.02,3.99h0c2.63-1.68,6.12-.94,7.84,1.67,1.74,2.63,1.01,6.18-1.62,7.91Z"/>
            <g>
              <path class="cls-40" d="M35.88,66.78c.24-.16.36-.45.28-.74-.1-.36-.47-.58-.84-.48-.36.1-.57.47-.48.84.08.29.34.48.62.5l.62,2.22c.03.11.15.18.26.15.11-.03.18-.15.15-.26l-.61-2.22Z"/>
              <path class="cls-33" d="M32.86,68.92c.05-.28-.07-.57-.33-.72-.33-.19-.74-.07-.93.26-.19.33-.07.74.26.93.26.15.58.1.79-.09l2.01,1.14c.1.06.23.02.29-.08.06-.1.02-.23-.08-.29l-2.01-1.14Z"/>
              <path class="cls-34" d="M32.24,72.56c-.16-.24-.45-.36-.74-.28-.36.1-.58.47-.48.84.1.36.47.57.84.47.29-.08.48-.34.5-.62l2.22-.61c.11-.03.18-.15.15-.26-.03-.11-.15-.18-.26-.15l-2.22.61Z"/>
              <path class="cls-37" d="M34.38,75.58c-.28-.05-.57.07-.72.33-.19.33-.07.74.26.93.33.19.74.07.93-.26.15-.26.1-.58-.09-.79l1.14-2.01c.06-.1.02-.23-.08-.29-.1-.06-.23-.02-.29.08l-1.14,2.01Z"/>
              <path class="cls-38" d="M38.03,76.2c-.24.16-.36.45-.28.74.1.36.47.58.84.48.36-.1.57-.48.47-.84-.08-.29-.34-.48-.62-.5l-.61-2.22c-.03-.11-.15-.18-.26-.15-.11.03-.18.15-.15.26l.61,2.22Z"/>
              <path class="cls-43" d="M41.04,74.06c-.05.28.07.57.33.72.33.19.74.07.93-.26.19-.33.07-.74-.26-.93-.26-.15-.58-.1-.79.09l-2.01-1.14c-.1-.06-.23-.02-.29.08-.06.1-.02.23.08.29l2.01,1.14Z"/>
              <path class="cls-44" d="M41.66,70.41c.16.24.45.36.74.28.36-.1.58-.47.48-.84-.1-.36-.47-.58-.84-.48-.29.08-.48.33-.5.62l-2.22.61c-.11.03-.18.15-.15.26.03.11.15.18.26.15l2.22-.61Z"/>
              <path class="cls-35" d="M39.52,67.4c.28.05.57-.07.72-.33.19-.33.07-.74-.26-.93-.33-.19-.74-.07-.93.26-.15.26-.1.58.09.79l-1.14,2.01c-.06.1-.02.23.08.29.1.06.23.02.29-.08l1.14-2.01Z"/>
              <path class="cls-36" d="M38.4,71.09c-.22-.8-1.05-1.27-1.85-1.05-.8.22-1.27,1.05-1.05,1.85.22.8,1.05,1.27,1.85,1.05.8-.22,1.27-1.05,1.05-1.85Z"/>
            </g>
          </g>
          <g>
            <path class="cls-2" d="M84.04,48.74h0c.99,2.56-.25,5.44-2.81,6.47-2.58,1.04-5.5-.21-6.54-2.78t0,0c-2.13,1.73-5.25,1.44-7.02-.67-1.78-2.13-1.5-5.3.62-7.08h0c-2.3-1.49-2.99-4.55-1.53-6.88,1.47-2.35,4.57-3.07,6.93-1.6h0c.71-2.65,3.41-4.25,6.07-3.58,2.69.67,4.33,3.4,3.66,6.1h0c2.74-.15,5.1,1.93,5.29,4.67.19,2.77-1.9,5.17-4.67,5.36Z"/>
            <g>
              <path class="cls-49" d="M78.08,40.14c.25-.02.47-.19.53-.45.08-.32-.12-.65-.44-.73-.32-.08-.65.12-.73.44-.06.26.05.51.26.65l-.49,1.97c-.03.1.04.2.14.23.1.03.2-.04.23-.14l.49-1.97Z"/>
              <path class="cls-60" d="M74.84,40.47c.16-.19.2-.47.06-.7-.17-.28-.54-.38-.82-.21-.28.17-.38.54-.2.82.14.23.4.33.64.27l1.05,1.74c.05.09.17.12.26.07.09-.05.12-.17.07-.26l-1.04-1.74Z"/>
              <path class="cls-50" d="M72.79,43c-.02-.25-.19-.47-.45-.54-.32-.08-.65.11-.73.44-.08.32.12.65.44.73.26.06.51-.05.65-.26l1.97.49c.1.03.2-.04.23-.14.03-.1-.04-.2-.14-.23l-1.97-.49Z"/>
              <path class="cls-54" d="M73.13,46.24c-.19-.16-.47-.2-.7-.06-.28.17-.38.54-.21.82.17.28.54.38.82.21.23-.14.33-.4.27-.64l1.74-1.05c.09-.05.12-.17.06-.26-.05-.09-.17-.12-.26-.06l-1.74,1.04Z"/>
              <path class="cls-52" d="M75.65,48.29c-.25.02-.47.19-.53.45-.08.32.11.65.44.73.32.08.65-.12.73-.44.06-.26-.05-.51-.26-.65l.49-1.97c.03-.1-.04-.2-.14-.23-.1-.03-.2.04-.23.14l-.49,1.97Z"/>
              <path class="cls-55" d="M78.89,47.95c-.16.19-.2.47-.06.7.17.28.54.38.82.21.28-.17.38-.54.21-.82-.14-.23-.4-.33-.64-.27l-1.05-1.74c-.05-.09-.17-.12-.26-.07-.09.05-.12.17-.06.26l1.04,1.74Z"/>
              <path class="cls-61" d="M80.94,45.43c.02.25.19.47.45.53.32.08.65-.11.73-.44.08-.32-.11-.65-.44-.73-.26-.06-.51.05-.65.26l-1.97-.49c-.1-.03-.2.04-.23.14-.03.1.04.2.14.23l1.97.49Z"/>
              <path class="cls-53" d="M80.61,42.19c.19.16.47.2.7.06.28-.17.38-.54.21-.82-.17-.28-.54-.38-.82-.21-.23.14-.33.4-.28.64l-1.74,1.05c-.09.05-.12.17-.07.26.05.09.17.12.26.07l1.74-1.04Z"/>
              <path class="cls-56" d="M78.16,44.53c.18-.71-.25-1.43-.97-1.61-.71-.18-1.43.25-1.61.97-.18.71.25,1.43.97,1.61.71.18,1.43-.25,1.61-.97Z"/>
            </g>
          </g>
          <g>
            <path class="cls-2" d="M111.87,39.89s0,0,0,0c1.5,2.73.53,6.17-2.19,7.71-2.75,1.56-6.23.59-7.79-2.15t0,0c-2.14,2.27-5.7,2.41-8.01.3-2.33-2.13-2.49-5.74-.36-8.07h0c-2.82-1.33-4.05-4.68-2.76-7.52,1.3-2.87,4.69-4.14,7.56-2.84h0c.4-3.09,3.2-5.3,6.3-4.95,3.13.35,5.39,3.18,5.03,6.32h0c3.06-.58,6.03,1.4,6.66,4.46.63,3.09-1.36,6.11-4.45,6.74Z"/>
            <g>
              <path class="cls-62" d="M103.86,31.09c.28-.06.5-.29.54-.59.04-.37-.23-.71-.6-.75-.37-.04-.71.23-.75.6-.03.3.13.57.39.69l-.26,2.29c-.01.12.07.22.19.24.12.01.22-.07.24-.19l.26-2.29Z"/>
              <path class="cls-41" d="M100.27,31.96c.15-.24.15-.56-.04-.79-.23-.29-.66-.34-.96-.11-.29.23-.34.66-.11.96.19.24.5.31.76.21l1.44,1.8c.07.09.21.11.3.03.09-.07.11-.21.03-.3l-1.44-1.8Z"/>
              <path class="cls-42" d="M98.33,35.11c-.06-.28-.29-.5-.59-.54-.37-.04-.71.23-.75.6-.04.37.23.71.6.75.3.03.57-.13.69-.39l2.29.26c.12.01.22-.07.24-.19.01-.12-.07-.22-.19-.24l-2.29-.26Z"/>
              <path class="cls-51" d="M99.2,38.71c-.24-.15-.56-.15-.79.04-.29.23-.34.66-.11.96.23.29.66.34.96.11.23-.19.31-.5.21-.76l1.8-1.44c.09-.07.11-.21.03-.3-.07-.09-.21-.11-.3-.03l-1.8,1.44Z"/>
              <path class="cls-59" d="M102.35,40.64c-.28.06-.5.29-.53.59-.04.37.23.71.6.75.37.04.71-.23.75-.6.03-.3-.13-.57-.39-.69l.26-2.29c.01-.12-.07-.22-.19-.24-.12-.01-.22.07-.24.19l-.26,2.29Z"/>
              <path class="cls-57" d="M105.95,39.77c-.15.24-.15.56.04.79.23.29.66.34.96.11.29-.23.34-.66.11-.96-.19-.23-.5-.31-.76-.21l-1.44-1.8c-.07-.09-.21-.11-.3-.03-.09.07-.11.21-.03.3l1.44,1.8Z"/>
              <path class="cls-58" d="M107.88,36.62c.06.28.29.5.59.53.37.04.71-.23.75-.6.04-.37-.23-.71-.6-.75-.3-.03-.57.13-.69.39l-2.29-.26c-.12-.01-.22.07-.24.19-.01.12.07.22.19.24l2.29.26Z"/>
              <path class="cls-48" d="M107.01,33.02c.24.15.56.15.79-.04.29-.23.34-.66.11-.96-.24-.29-.66-.34-.96-.11-.24.19-.31.5-.21.76l-1.8,1.44c-.09.07-.11.21-.03.3.07.09.21.11.3.03l1.8-1.44Z"/>
              <path class="cls-47" d="M104.6,36.03c.09-.83-.5-1.57-1.33-1.67-.83-.09-1.57.5-1.67,1.33-.09.83.5,1.57,1.33,1.67.83.09,1.57-.5,1.67-1.33Z"/>
            </g>
          </g>
          <g>
            <path class="cls-2" d="M108.05,62.73s0,0,0,0c2.38,2.55,2.29,6.54-.24,8.97-2.55,2.45-6.6,2.37-9.04-.17t0,0c-1.69,3.05-5.52,4.2-8.61,2.55-3.12-1.66-4.29-5.54-2.63-8.65h0c-3.42-.66-5.7-3.95-5.08-7.4.62-3.48,3.94-5.8,7.42-5.18h0c-.43-3.46,2-6.64,5.47-7.12,3.5-.49,6.73,1.96,7.21,5.46h0c3.16-1.48,6.93-.15,8.46,3,1.54,3.18.22,7.01-2.96,8.55Z"/>
            <g>
              <path class="cls-45" d="M96.92,55.41c.28-.14.46-.45.42-.79-.06-.42-.44-.71-.86-.65-.42.06-.71.44-.65.86.05.33.3.58.62.64l.36,2.56c.02.13.14.22.27.2.13-.02.22-.14.21-.27l-.35-2.56Z"/>
              <path class="cls-46" d="M93.26,57.34c.1-.3,0-.65-.26-.85-.34-.25-.81-.19-1.07.15-.25.34-.19.81.15,1.07.27.2.63.2.89.02l2.06,1.56c.11.08.26.06.34-.05.08-.11.06-.26-.05-.34l-2.06-1.56Z"/>
              <path class="cls-79" d="M92.04,61.3c-.14-.29-.45-.46-.79-.42-.42.06-.71.44-.65.86.06.42.44.71.86.65.33-.05.58-.3.64-.61l2.56-.36c.13-.02.22-.14.2-.27-.02-.13-.14-.22-.27-.21l-2.56.36Z"/>
              <path class="cls-80" d="M93.97,64.96c-.3-.1-.65,0-.85.26-.25.34-.19.81.15,1.07.34.25.81.19,1.07-.15.2-.27.2-.63.02-.89l1.56-2.06c.08-.11.06-.26-.05-.34-.11-.08-.26-.06-.34.05l-1.56,2.06Z"/>
              <path class="cls-71" d="M97.93,66.18c-.29.14-.46.45-.42.79.06.42.44.71.86.65.42-.06.71-.44.65-.86-.05-.33-.3-.58-.61-.64l-.36-2.56c-.02-.13-.14-.22-.27-.21-.13.02-.22.14-.21.27l.36,2.56Z"/>
              <path class="cls-31" d="M101.59,64.25c-.1.3,0,.65.26.85.34.25.81.19,1.07-.15.25-.34.19-.81-.15-1.07-.27-.2-.63-.2-.89-.02l-2.06-1.56c-.11-.08-.26-.06-.34.05-.08.11-.06.26.05.34l2.06,1.56Z"/>
              <path class="cls-32" d="M102.81,60.29c.14.29.45.46.79.42.42-.06.71-.44.65-.86-.06-.42-.44-.71-.86-.65-.33.05-.58.3-.64.62l-2.56.36c-.13.02-.22.14-.21.27.02.13.14.22.27.21l2.56-.35Z"/>
              <path class="cls-74" d="M100.88,56.63c.3.1.65,0,.85-.26.25-.34.19-.81-.15-1.07-.34-.25-.81-.19-1.07.15-.2.27-.2.63-.02.89l-1.56,2.06c-.08.11-.06.26.05.34.11.08.26.06.34-.05l1.56-2.06Z"/>
              <path class="cls-75" d="M99.1,60.56c-.13-.92-.98-1.57-1.9-1.44-.92.13-1.57.98-1.44,1.9s.98,1.57,1.9,1.44c.92-.13,1.57-.98,1.44-1.9Z"/>
            </g>
          </g>
          <g>
            <path class="cls-2" d="M133.8,54.78s0,0,0,0c2.01,1.89,2.15,5.05.28,7.1-1.88,2.07-5.09,2.22-7.16.33t0,0c-1.17,2.5-4.14,3.6-6.67,2.46-2.55-1.15-3.68-4.15-2.53-6.7h0c-2.74-.35-4.71-2.83-4.4-5.58.31-2.78,2.81-4.79,5.59-4.48h0c-.52-2.71,1.23-5.35,3.95-5.91,2.74-.57,5.42,1.2,5.98,3.94h0c2.42-1.33,5.47-.48,6.84,1.93,1.39,2.43.54,5.52-1.89,6.91Z"/>
            <g>
              <path class="cls-76" d="M124.63,49.57c.22-.13.34-.38.29-.64-.07-.33-.39-.54-.71-.47-.33.07-.54.39-.47.71.05.26.27.45.52.48l.42,2c.02.1.12.17.22.15.1-.02.17-.12.15-.22l-.41-2Z"/>
              <path class="cls-77" d="M121.84,51.29c.06-.24-.03-.51-.25-.66-.28-.18-.65-.11-.84.17-.18.28-.11.65.17.84.22.15.5.12.7-.03l1.71,1.12c.09.06.21.03.26-.05.06-.09.03-.21-.05-.26l-1.71-1.12Z"/>
              <path class="cls-78" d="M121.08,54.48c-.13-.22-.38-.34-.64-.29-.33.07-.54.39-.47.71.07.33.39.54.71.47.26-.05.45-.27.48-.52l2-.41c.1-.02.17-.12.15-.22-.02-.1-.12-.17-.22-.15l-2,.41Z"/>
              <path class="cls-73" d="M122.8,57.27c-.24-.06-.51.03-.66.25-.18.28-.11.65.17.84.28.18.65.11.84-.17.15-.22.12-.5-.03-.7l1.12-1.71c.06-.09.03-.21-.05-.26-.09-.06-.21-.03-.26.05l-1.12,1.71Z"/>
              <path class="cls-63" d="M125.99,58.03c-.22.13-.34.38-.29.64.07.33.39.54.71.47.33-.07.54-.39.47-.71-.05-.26-.27-.45-.52-.48l-.42-2c-.02-.1-.12-.17-.22-.15-.1.02-.17.12-.15.22l.41,2Z"/>
              <path class="cls-72" d="M128.78,56.31c-.06.24.03.51.25.66.28.18.65.11.84-.17.18-.28.11-.65-.17-.84-.22-.15-.5-.12-.7.03l-1.71-1.12c-.09-.06-.21-.03-.26.05-.06.09-.03.21.05.26l1.71,1.12Z"/>
              <path class="cls-65" d="M129.54,53.12c.13.22.38.34.64.29.33-.07.54-.39.47-.71-.07-.33-.39-.54-.71-.47-.26.05-.45.27-.48.52l-2,.41c-.1.02-.17.12-.15.22.02.1.12.17.22.15l2-.41Z"/>
              <path class="cls-66" d="M127.82,50.33c.24.06.51-.03.66-.25.18-.28.11-.65-.17-.84-.28-.18-.65-.11-.84.17-.15.22-.12.51.03.7l-1.12,1.71c-.06.09-.03.21.05.26.09.06.21.03.26-.05l1.12-1.71Z"/>
              <path class="cls-70" d="M126.62,53.53c-.15-.72-.86-1.19-1.58-1.04-.72.15-1.19.86-1.04,1.58.15.72.86,1.19,1.58,1.04.72-.15,1.19-.86,1.04-1.58Z"/>
            </g>
          </g>
          <g>
            <path class="cls-2" d="M156.03,73.54s0,0,0,0c1.79,2.55,1.22,6.07-1.31,7.91-2.55,1.86-6.12,1.29-7.98-1.26t0,0c-1.87,2.49-5.4,3.03-7.92,1.2-2.55-1.85-3.12-5.43-1.26-7.98h0c-2.95-1.01-4.55-4.2-3.59-7.17.97-3,4.2-4.64,7.2-3.67h0c.05-3.11,2.58-5.63,5.71-5.63s5.71,2.56,5.71,5.71h0c2.98-.92,6.15.72,7.11,3.69.98,3-.67,6.22-3.67,7.2Z"/>
            <g>
              <path class="cls-64" d="M147.09,65.69c.27-.09.47-.34.47-.64,0-.38-.31-.68-.68-.68s-.68.3-.68.68c0,.3.2.55.47.64v2.31c0,.12.1.21.22.21s.21-.1.21-.21v-2.31Z"/>
              <path class="cls-68" d="M143.61,66.95c.13-.25.09-.57-.13-.78-.27-.27-.7-.27-.96,0-.27.27-.27.7,0,.96.21.21.53.25.78.13l1.63,1.63c.08.08.22.08.3,0,.08-.08.08-.22,0-.3l-1.63-1.63Z"/>
              <path class="cls-69" d="M142.04,70.3c-.09-.27-.34-.47-.64-.47-.38,0-.68.3-.68.68s.3.68.68.68c.3,0,.55-.2.64-.47h2.31c.12,0,.21-.1.21-.22s-.1-.21-.21-.21h-2.31Z"/>
              <path class="cls-67" d="M143.31,73.78c-.26-.13-.57-.09-.78.13-.27.27-.27.7,0,.96.27.27.7.27.96,0,.21-.21.25-.53.13-.78l1.63-1.63c.08-.08.08-.22,0-.3-.08-.08-.22-.08-.3,0l-1.63,1.63Z"/>
              <path class="cls-17" d="M146.66,75.34c-.27.09-.47.34-.47.64,0,.38.3.68.68.68s.68-.31.68-.68c0-.3-.2-.55-.47-.64v-2.31c0-.12-.1-.21-.22-.21s-.21.1-.21.21v2.31Z"/>
              <path class="cls-19" d="M150.13,74.08c-.13.26-.09.57.13.78.27.27.7.27.96,0,.27-.27.27-.7,0-.96-.21-.21-.53-.25-.78-.13l-1.63-1.63c-.08-.08-.22-.08-.3,0-.08.08-.08.22,0,.3l1.63,1.63Z"/>
              <path class="cls-16" d="M151.7,70.73c.09.27.34.47.64.47.38,0,.68-.3.68-.68s-.3-.68-.68-.68c-.3,0-.55.2-.64.47h-2.31c-.12,0-.21.1-.21.22s.1.21.21.21h2.31Z"/>
              <path class="cls-29" d="M150.44,67.26c.26.13.57.09.78-.13.27-.27.27-.7,0-.96-.27-.27-.7-.27-.96,0-.21.21-.25.53-.13.78l-1.63,1.63c-.08.08-.08.22,0,.3.08.08.22.08.3,0l1.63-1.63Z"/>
              <path class="cls-27" d="M148.38,70.52c0-.83-.68-1.51-1.51-1.51s-1.51.68-1.51,1.51.67,1.51,1.51,1.51,1.51-.67,1.51-1.51Z"/>
            </g>
          </g>
          <g>
            <path class="cls-2" d="M160.92,45.3c-1.55-.07-3.13.48-4.31,1.66-2.21,2.21-2.23,5.78-.06,8.01h0c-2.81,1.43-3.93,4.87-2.5,7.68,1.42,2.79,4.81,3.91,7.6,2.53t0,0c.49,3.12,3.42,5.24,6.54,4.75,1.11-.18,2.09-.66,2.87-1.35-2.2-8.34-5.65-16.18-10.14-23.29Z"/>
            <path class="cls-18" d="M168.5,61.63c-.09-.29-.36-.47-.64-.47l-.71-2.19c-.04-.11-.16-.17-.27-.14-.11.04-.17.16-.14.27l.71,2.19c-.23.17-.34.47-.24.76.12.36.5.55.86.44s.55-.5.44-.86ZM164.47,52.11l.71,2.19c.04.11.16.17.27.14.11-.04.17-.16.14-.27l-.43-1.33c-.33-.67-.67-1.34-1.02-2-.27.16-.41.49-.31.8.09.29.36.47.64.47ZM167.33,57.59c-.35-.83-.71-1.64-1.08-2.46-.58-.03-1.15.27-1.43.82-.38.74-.08,1.65.66,2.03.64.33,1.41.15,1.85-.39ZM165.11,58.69c-.11-.05-.24-.01-.29.09l-1.05,2.06c-.28-.04-.57.09-.71.36-.17.33-.04.74.3.92.34.17.75.04.92-.3.14-.27.08-.58-.12-.78l1.05-2.06c.05-.11.01-.23-.09-.29ZM163.97,57.35c-.04-.11-.16-.17-.27-.14l-2.19.71c-.17-.23-.47-.34-.76-.24-.36.12-.55.5-.44.86.12.36.5.55.86.44.29-.09.47-.36.47-.64l2.19-.71c.11-.04.17-.16.14-.27ZM160.98,54.76c.27.14.58.08.78-.12l2.06,1.05c.11.05.23.01.29-.09.05-.11.01-.23-.09-.29l-2.05-1.05c.04-.28-.09-.57-.36-.71-.34-.17-.75-.04-.92.3-.17.34-.04.74.3.92Z"/>
          </g>
          <g>
            <path class="cls-2" d="M150.73,45.79s0,0,0,0c2.14,1.64,5.2,1.24,6.84-.89.71-.93,1.04-2.03,1.01-3.12-3.9-5.53-8.44-10.57-13.53-15-2.45.82-3.84,3.42-3.15,5.93h0c-2.69-.07-4.94,2.05-5.01,4.74-.07,2.67,2.01,4.89,4.67,5h0c-.9,2.54.43,5.33,2.96,6.23,2.52.89,5.27-.4,6.2-2.9Z"/>
            <g>
              <path class="cls-30" d="M147.51,33.84c.2-.14.3-.39.23-.64-.09-.31-.41-.48-.72-.39-.31.09-.48.41-.39.72.07.25.29.41.54.41l.56,1.89c.03.1.13.15.23.12.1-.03.15-.13.12-.23l-.56-1.89Z"/>
              <path class="cls-26" d="M144.97,35.71c.04-.24-.07-.49-.29-.61-.28-.15-.64-.05-.79.23-.15.28-.05.63.23.79.22.12.49.08.67-.09l1.73.94c.09.05.2.02.25-.07.05-.09.02-.2-.07-.25l-1.73-.94Z"/>
              <path class="cls-25" d="M144.49,38.84c-.14-.2-.39-.3-.64-.23-.31.09-.48.41-.39.72.09.31.41.48.72.39.25-.07.41-.29.41-.54l1.89-.56c.1-.03.15-.13.12-.23-.03-.1-.13-.15-.23-.12l-1.89.56Z"/>
              <path class="cls-28" d="M146.37,41.38c-.24-.04-.49.07-.61.29-.15.28-.05.64.23.79.28.15.64.05.79-.23.12-.23.08-.49-.09-.67l.94-1.73c.05-.09.02-.2-.07-.25-.09-.05-.2-.02-.25.07l-.94,1.73Z"/>
              <path class="cls-14" d="M149.49,41.85c-.2.14-.3.39-.23.64.09.31.41.48.72.39.31-.09.48-.41.39-.72-.07-.25-.29-.41-.54-.41l-.56-1.89c-.03-.1-.13-.15-.23-.12-.1.03-.15.13-.12.23l.56,1.89Z"/>
              <path class="cls-15" d="M152.03,39.98c-.04.24.07.49.29.61.28.15.63.05.79-.23.15-.28.05-.63-.23-.79-.22-.12-.49-.08-.67.09l-1.73-.94c-.09-.05-.2-.02-.25.07-.05.09-.02.2.07.25l1.73.94Z"/>
              <path class="cls-23" d="M152.5,36.85c.14.2.39.3.64.23.31-.09.48-.41.39-.72-.09-.31-.41-.48-.72-.39-.25.07-.41.29-.41.54l-1.89.56c-.1.03-.15.13-.12.23.03.1.13.15.23.12l1.89-.56Z"/>
              <path class="cls-24" d="M150.63,34.31c.24.04.49-.07.61-.29.15-.28.05-.64-.23-.79-.28-.15-.64-.05-.79.23-.12.23-.08.49.09.67l-.94,1.73c-.05.09-.02.2.07.25.09.05.2.02.25-.07l.94-1.73Z"/>
              <path class="cls-21" d="M149.73,37.48c-.2-.68-.92-1.07-1.6-.87-.68.2-1.07.92-.87,1.6.2.68.92,1.07,1.6.87.68-.2,1.07-.92.87-1.6Z"/>
            </g>
          </g>
          <g>
            <path class="cls-2" d="M19.59,44.49c1.22.9,2.84,1.22,4.38.73h0c.03,2.7,2.23,4.86,4.93,4.84,2.67-.02,4.82-2.19,4.83-4.85t0,0c2.57.81,5.31-.62,6.12-3.19.8-2.55-.6-5.26-3.12-6.09t0,0c1.56-2.2,1.05-5.24-1.14-6.81-.7-.5-1.48-.78-2.27-.87-5.23,4.8-9.85,10.26-13.73,16.25Z"/>
            <path class="cls-22" d="M30.75,37.37l1.58-1.17c.2.14.47.14.68,0,.26-.19.31-.56.12-.81-.19-.26-.56-.31-.81-.12-.21.15-.28.42-.2.65l-1.58,1.17c-.08.06-.1.18-.04.26.06.08.18.1.26.04ZM27.78,36.67l-1.14-1.55c-.08.1-.16.19-.24.29l1.1,1.48c.06.08.17.1.26.04.08-.06.1-.18.04-.26ZM28.49,42.61l.29-1.95c.01-.1-.05-.19-.15-.21-.1-.02-.19.05-.21.15l-.29,1.95c-.24.04-.44.23-.47.49-.05.32.17.61.49.66.32.05.61-.17.66-.49.04-.25-.1-.49-.31-.6ZM31.52,41.71l-1.17-1.58c-.06-.08-.18-.1-.26-.04-.08.06-.1.17-.04.26l1.17,1.58c-.14.2-.14.47,0,.68.19.26.56.31.81.12.26-.19.31-.56.12-.81-.15-.21-.42-.28-.65-.2ZM29.95,37.74c-.42-.57-1.23-.69-1.8-.27-.57.42-.69,1.23-.27,1.8.42.57,1.23.69,1.8.27.57-.42.69-1.23.27-1.8ZM24.81,38.08l1.95.29c.1.02.19-.05.21-.15.01-.1-.05-.19-.15-.21l-1.95-.29c-.02-.11-.07-.21-.15-.29-.24.3-.48.59-.72.89.06.04.13.06.21.07.25.04.49-.1.6-.31ZM33.62,38.62c-.25-.04-.49.1-.6.31l-1.95-.29c-.1-.01-.19.05-.21.15-.01.1.05.19.15.21l1.95.29c.04.24.23.44.49.47.32.05.61-.17.66-.49.05-.32-.17-.61-.49-.66ZM27.07,39.64l-1.58,1.17c-.2-.14-.47-.15-.68,0-.26.19-.31.56-.12.81.19.26.56.31.81.12.21-.15.28-.42.21-.65l1.58-1.17c.08-.06.1-.17.04-.26-.06-.08-.17-.1-.26-.04ZM29.34,34.4l-.29,1.95c-.01.1.05.19.15.21.1.02.19-.05.21-.15l.29-1.95c.24-.04.44-.23.47-.49.05-.32-.17-.61-.49-.66-.32-.05-.61.17-.66.49-.04.25.1.49.31.6Z"/>
          </g>
          <g>
            <path class="cls-2" d="M10.82,68.79s0,0,0,0c1.12,2.95,4.41,4.44,7.36,3.32,2.92-1.11,4.41-4.35,3.35-7.28t0,0c3.15-.15,5.58-2.82,5.44-5.98-.15-3.12-2.77-5.54-5.89-5.43h0c.73-2.67-.56-5.41-2.93-6.61-4.25,7.06-7.49,14.8-9.52,23.02.78-.18,1.53-.52,2.2-1.04Z"/>
            <path class="cls-20" d="M14.1,57.28c.11.03.23-.04.26-.15l.61-2.23c.28-.02.54-.21.62-.5.1-.36-.11-.74-.48-.84-.36-.1-.74.11-.84.48-.08.29.04.58.28.74l-.61,2.23c-.03.11.04.23.15.26ZM11.49,60.65s-.01-.01-.02-.02c-.04.12-.09.24-.14.36l.08-.04c.1-.06.14-.19.08-.29ZM12.88,61.73c-.11-.03-.23.04-.26.15l-.61,2.22c-.28.02-.54.21-.62.5-.1.36.11.74.48.84.36.1.74-.12.84-.48.08-.29-.04-.59-.28-.74l.61-2.23c.03-.11-.04-.23-.15-.26ZM16.07,63.59l-1.15-2c-.06-.1-.19-.14-.29-.08-.1.06-.14.19-.08.29l1.14,2c-.19.21-.23.53-.08.79.19.33.6.44.93.25.33-.19.44-.6.25-.93-.15-.26-.44-.38-.72-.33ZM15.58,58.07c-.1.06-.14.19-.08.29.06.1.19.14.29.08l2-1.14c.21.19.53.23.79.09.33-.19.44-.6.25-.93-.19-.33-.6-.44-.93-.25-.26.15-.38.44-.33.72l-2,1.14ZM13.89,58.05c-.67-.18-1.35.12-1.69.69-.06.14-.12.28-.17.43-.18.79.28,1.58,1.07,1.8.8.22,1.63-.25,1.85-1.06.22-.8-.25-1.63-1.06-1.85ZM18.95,60.29c-.29-.08-.58.04-.74.28l-2.23-.61c-.11-.03-.23.04-.26.15-.03.11.04.23.15.26l2.22.61c.02.28.21.54.5.62.36.1.74-.11.84-.48.1-.36-.11-.74-.48-.84Z"/>
          </g>
        </g>
      </g>
    </g>
  </g>
</svg>