<?xml version="1.0" encoding="UTF-8"?>
<svg id="Layer_1" data-name="Layer 1" xmlns="http://www.w3.org/2000/svg" xmlns:xlink="http://www.w3.org/1999/xlink" viewBox="0 0 180 180">
  <defs>
    <style>
      .cls-1 {
        fill: url(#linear-gradient-2);
      }

      .cls-2 {
        fill: url(#linear-gradient);
      }
    </style>
    <linearGradient id="linear-gradient" x1="0" y1="90" x2="180" y2="90" gradientUnits="userSpaceOnUse">
      <stop offset="0" stop-color="#8b5d00"/>
      <stop offset=".23" stop-color="#d8b15b"/>
      <stop offset=".41" stop-color="#d29743"/>
      <stop offset=".59" stop-color="#aa701c"/>
      <stop offset=".77" stop-color="#976f17"/>
      <stop offset="1" stop-color="#fff5ac"/>
      <stop offset="1" stop-color="#edc670"/>
    </linearGradient>
    <linearGradient id="linear-gradient-2" x1="2.91" y1="90" x2="177.09" y2="90" gradientUnits="userSpaceOnUse">
      <stop offset="0" stop-color="#edc670"/>
      <stop offset="0" stop-color="#fff5ac"/>
      <stop offset=".23" stop-color="#976f17"/>
      <stop offset=".41" stop-color="#aa701c"/>
      <stop offset=".59" stop-color="#d29743"/>
      <stop offset=".77" stop-color="#d8b15b"/>
      <stop offset="1" stop-color="#8b5d00"/>
    </linearGradient>
  </defs>
  <path class="cls-2" d="M77.8,180c-4.51,0-8.95-1.9-12.07-5.49-1.99-2.28-5.06-3.34-8.02-2.76-7.48,1.46-14.99-2.62-17.86-9.69-1.14-2.8-3.7-4.81-6.69-5.23-7.54-1.06-13.33-7.36-13.76-14.98-.17-3.02-1.95-5.75-4.64-7.12-6.79-3.46-10.22-11.3-8.16-18.65.82-2.91.02-6.08-2.08-8.25-5.31-5.48-6.01-14.02-1.68-20.3,1.72-2.49,1.99-5.74.7-8.48-3.25-6.91-1.15-15.21,4.99-19.74,2.43-1.8,3.74-4.78,3.41-7.79-.83-7.59,3.84-14.76,11.11-17.05,2.88-.91,5.08-3.3,5.75-6.26,1.67-7.45,8.42-12.7,16.03-12.51,3.02.09,5.88-1.47,7.46-4.05,3.99-6.5,12.07-9.29,19.21-6.61,2.83,1.06,6.03.52,8.37-1.4,5.88-4.85,14.42-4.85,20.31,0h0c2.33,1.92,5.54,2.46,8.37,1.4,7.14-2.67,15.21.11,19.21,6.61,1.58,2.58,4.44,4.12,7.46,4.05,7.63-.2,14.35,5.06,16.03,12.51.66,2.95,2.86,5.35,5.75,6.26,7.27,2.29,11.94,9.46,11.11,17.05-.33,3.01.98,6,3.41,7.79,6.13,4.53,8.23,12.83,4.99,19.74-1.29,2.74-1.02,5.99.7,8.48,4.34,6.28,3.63,14.82-1.68,20.3-2.1,2.17-2.9,5.33-2.08,8.25,2.07,7.35-1.36,15.2-8.16,18.65-2.69,1.37-4.47,4.1-4.64,7.12-.43,7.63-6.21,13.93-13.76,14.98-2.99.42-5.56,2.42-6.69,5.23-2.87,7.08-10.39,11.15-17.86,9.69-2.96-.58-6.04.48-8.02,2.76-5.01,5.76-13.43,7.17-20.03,3.35-2.62-1.51-5.87-1.51-8.48,0-2.49,1.44-5.24,2.13-7.96,2.13ZM59.3,164.08c4.57,0,9.01,1.97,12.07,5.49,2.66,3.06,7.14,3.81,10.64,1.78,4.92-2.85,11.04-2.85,15.97,0,3.51,2.03,7.98,1.28,10.64-1.78,3.74-4.29,9.52-6.28,15.1-5.2,3.97.78,7.96-1.39,9.49-5.15,2.14-5.28,6.97-9.05,12.6-9.83,4.01-.56,7.08-3.91,7.31-7.96.32-5.69,3.66-10.83,8.73-13.4,3.61-1.84,5.43-6,4.34-9.91-1.54-5.49-.04-11.43,3.92-15.52,2.82-2.91,3.19-7.45.89-10.78-3.23-4.69-3.74-10.8-1.32-15.96,1.72-3.67.61-8.08-2.65-10.49-4.58-3.38-7.03-9-6.41-14.66.44-4.03-2.04-7.84-5.9-9.06-5.42-1.71-9.57-6.22-10.81-11.78-.89-3.96-4.49-6.75-8.52-6.65-5.68.15-11.06-2.77-14.04-7.62-2.12-3.46-6.41-4.93-10.21-3.51-5.33,1.99-11.36.98-15.75-2.64h0c-3.13-2.58-7.67-2.58-10.79,0-4.39,3.62-10.42,4.63-15.75,2.64-3.79-1.42-8.08.06-10.21,3.51-2.98,4.85-8.36,7.77-14.04,7.62-4.03-.1-7.63,2.69-8.52,6.65-1.25,5.56-5.39,10.07-10.81,11.78-3.86,1.21-6.34,5.03-5.9,9.06.62,5.66-1.84,11.28-6.41,14.66-3.26,2.41-4.37,6.82-2.65,10.49,2.42,5.16,1.92,11.27-1.32,15.96-2.3,3.34-1.93,7.87.89,10.78,3.96,4.09,5.46,10.04,3.92,15.52-1.1,3.91.73,8.07,4.33,9.91,5.07,2.58,8.42,7.71,8.73,13.4.23,4.05,3.3,7.4,7.31,7.96,5.63.79,10.46,4.56,12.6,9.83,1.53,3.76,5.52,5.92,9.49,5.15,1.01-.2,2.02-.29,3.03-.29Z"/>
  <path class="cls-1" d="M77.79,177.08c-3.68,0-7.32-1.55-9.87-4.49-2.67-3.06-6.8-4.49-10.78-3.71-6.11,1.19-12.26-2.14-14.61-7.93-1.53-3.77-4.97-6.46-8.99-7.02-6.17-.86-10.9-6.02-11.25-12.25-.23-4.06-2.61-7.73-6.23-9.57-5.56-2.83-8.36-9.24-6.67-15.25,1.1-3.91.03-8.16-2.8-11.08-4.34-4.48-4.92-11.46-1.37-16.6,2.31-3.34,2.67-7.71.94-11.39-2.65-5.65-.94-12.44,4.08-16.14,3.27-2.41,5.02-6.42,4.58-10.46-.68-6.21,3.14-12.07,9.08-13.94,3.87-1.22,6.83-4.44,7.72-8.41,1.37-6.09,6.87-10.4,13.11-10.23,4.06.11,7.89-1.98,10.02-5.44,3.27-5.32,9.87-7.59,15.71-5.41,3.8,1.42,8.11.7,11.24-1.88,4.81-3.97,11.8-3.97,16.61,0h0c3.13,2.58,7.44,3.3,11.24,1.88,5.83-2.18,12.44.09,15.71,5.41,2.13,3.46,5.96,5.53,10.02,5.44,6.24-.19,11.74,4.13,13.11,10.23.89,3.97,3.85,7.19,7.72,8.41,5.94,1.87,9.76,7.73,9.08,13.94-.44,4.04,1.31,8.05,4.58,10.46,5.02,3.7,6.73,10.49,4.08,16.14-1.73,3.68-1.37,8.04.94,11.39,3.54,5.14,2.97,12.12-1.37,16.6-2.83,2.92-3.9,7.16-2.8,11.08,1.69,6.01-1.12,12.43-6.67,15.25-3.62,1.84-6,5.5-6.23,9.57-.35,6.24-5.08,11.39-11.25,12.25-4.02.56-7.46,3.25-8.99,7.02-2.35,5.79-8.49,9.12-14.61,7.93-3.98-.78-8.11.65-10.78,3.71-4.1,4.71-10.98,5.86-16.38,2.74-3.51-2.03-7.88-2.03-11.39,0-2.03,1.18-4.28,1.74-6.51,1.74ZM59.31,167.01c3.74,0,7.37,1.61,9.87,4.49,3.57,4.11,9.59,5.11,14.29,2.39,4.03-2.33,9.03-2.33,13.06,0,4.71,2.72,10.72,1.71,14.3-2.39,3.05-3.51,7.79-5.14,12.35-4.25,5.34,1.04,10.7-1.87,12.75-6.92,1.75-4.32,5.7-7.4,10.3-8.04,5.38-.75,9.51-5.25,9.82-10.69.26-4.65,3-8.85,7.14-10.96,4.85-2.47,7.3-8.06,5.82-13.31-1.26-4.49-.03-9.35,3.2-12.69,3.79-3.91,4.29-10,1.2-14.48-2.64-3.83-3.06-8.83-1.08-13.05,2.32-4.93.82-10.86-3.56-14.09-3.74-2.76-5.75-7.36-5.24-11.99.59-5.42-2.74-10.54-7.93-12.17-4.43-1.4-7.82-5.09-8.84-9.63-1.19-5.32-6-9.05-11.44-8.93-4.65.13-9.05-2.26-11.48-6.23-2.85-4.64-8.62-6.63-13.71-4.72-4.35,1.63-9.29.8-12.88-2.16-4.2-3.46-10.29-3.46-14.49,0-3.59,2.96-8.52,3.79-12.88,2.16-5.09-1.91-10.86.08-13.71,4.72-2.44,3.97-6.83,6.37-11.48,6.23-5.44-.13-10.24,3.61-11.44,8.93-1.02,4.55-4.41,8.24-8.84,9.63-5.19,1.63-8.52,6.75-7.93,12.17.51,4.63-1.5,9.23-5.24,11.99-4.38,3.23-5.87,9.16-3.56,14.09,1.98,4.22,1.57,9.22-1.08,13.05-3.09,4.48-2.59,10.57,1.2,14.48,3.24,3.34,4.47,8.21,3.21,12.69-1.47,5.25.97,10.84,5.82,13.31,4.15,2.11,6.88,6.31,7.14,10.96.3,5.44,4.43,9.94,9.82,10.69,4.6.64,8.55,3.73,10.3,8.04,2.05,5.05,7.41,7.96,12.75,6.92.82-.16,1.65-.24,2.48-.24Z"/>
</svg>