<?xml version="1.0" encoding="UTF-8"?>
<svg id="Layer_1" data-name="Layer 1" xmlns="http://www.w3.org/2000/svg" viewBox="0 0 180 180">
  <defs>
    <style>
      .cls-1, .cls-2 {
        font-family: STSongti-TC-Regular, 'Songti TC';
        font-size: 74.69px;
      }

      .cls-1, .cls-2, .cls-3, .cls-4 {
        fill: #fff;
      }

      .cls-2 {
        stroke-width: 3px;
      }

      .cls-2, .cls-3 {
        stroke: #774e1e;
        stroke-linecap: round;
        stroke-linejoin: round;
      }

      .cls-3 {
        stroke-width: 2px;
      }
    </style>
  </defs>
  <text class="cls-2" transform="translate(17.63 101.77)"><tspan x="0" y="0">10周</tspan></text>
  <text class="cls-1" transform="translate(17.63 101.77)"><tspan x="0" y="0">10周</tspan></text>
  <g>
    <g>
      <path class="cls-3" d="M29.44,121.6h14l1.35-1.92c.16-.24.3-.36.42-.36s.37.14.74.42c.37.28.82.64,1.34,1.08.52.44.88.76,1.07.96.19.2.29.36.29.48,0,.22-.14.33-.42.33h-10.31v5.86h3.43l1.23-1.77c.16-.2.3-.3.41-.3s.34.12.69.38c.35.25.76.59,1.23,1.01.47.42.76.71.86.86.1.15.15.3.15.44,0,.3-.15.45-.45.45h-7.54v6.37h7.09l1.35-1.8c.14-.18.32-.27.53-.27s.77.43,1.68,1.28c.91.85,1.37,1.37,1.37,1.55s-.17.27-.51.27h-11.51c0,2.12,0,3.68.03,4.66l.06,2.67c0,.14-.05.26-.15.36-.1.1-.5.28-1.2.54-.7.26-1.13.39-1.28.39s-.23-.16-.23-.48l.06-3.04c.02-1.1.03-2.8.03-5.11h-11.84c-.54,0-.96.07-1.26.21l-.54-1.38c.42.1.92.15,1.5.15h4.27v-5.89c0-1.48-.02-2.37-.06-2.67,1.16.34,2.18.72,3.06,1.14h4.87v-5.86h-6.46c-1.12,1.78-2.16,3.2-3.11,4.24-.95,1.04-2.2,2.18-3.74,3.43l-.45-.48c3.19-3.41,5.53-7.82,7.03-13.25,1.62.64,2.65,1.11,3.09,1.4.44.29.66.53.66.72s-.17.31-.5.35c-.33.04-.62.19-.86.45s-.73.98-1.47,2.16ZM35.24,129.5h-5.26v6.37h5.26v-6.37Z"/>
      <path class="cls-3" d="M63.37,126.92h-2.64c-.82,2.3-1.83,4.28-3.04,5.92l-.54-.15c1.3-3.14,2.1-6.98,2.4-11.51.32.06.88.21,1.68.44.8.23,1.27.39,1.41.47s.21.18.21.3-.1.22-.29.3-.37.25-.54.5c-.17.25-.31.58-.42.98-.11.4-.31,1.03-.59,1.89h2.34v-5.95c0-.86-.03-1.7-.09-2.52,2.44.6,3.67,1.05,3.67,1.35,0,.22-.38.48-1.14.78v6.34h.84l.84-1.35c.16-.26.34-.39.53-.39s.67.32,1.43.95,1.14,1.06,1.14,1.28c0,.26-.26.39-.78.39h-4v4.93l3.94-1.59.24.6-4.18,2.49v10.46c0,.2-.1.38-.32.53-.21.15-.58.33-1.1.56-.52.22-.84.33-.96.33s-.18-.09-.18-.27l.06-1.41c.04-.98.06-1.86.06-2.64v-6.07c-1.86,1.14-2.93,1.85-3.22,2.13s-.48.42-.6.42-.27-.11-.45-.33c-.18-.22-.72-1.03-1.62-2.43,1.86-.46,3.83-1.05,5.89-1.77v-5.92ZM73.65,128.36v-4.96h-3.79c-.48,0-.9.08-1.26.24l-.6-1.26c.42.1.92.15,1.5.15h4.15v-2.34c0-1.2-.03-2.14-.09-2.82,1.26.22,2.19.44,2.78.66.59.22.89.39.89.51,0,.16-.33.4-.99.72v3.28h2.34l1.08-1.56c.2-.3.4-.45.59-.45s.47.13.83.39c.36.26.77.58,1.23.95.46.37.77.64.93.8.16.16.24.29.24.39,0,.24-.28.36-.84.36h-6.4v4.96h4.78l1.14-1.59c.2-.28.41-.42.62-.42s.74.4,1.58,1.2c.84.8,1.26,1.28,1.26,1.44,0,.18-.32.27-.96.27h-15.99c-.54,0-.96.07-1.26.21l-.54-1.26c.42.1.92.15,1.5.15h5.29ZM79.96,133.08h1.14l.9-1.29c.16-.24.35-.36.57-.36s.73.37,1.53,1.1c.8.73,1.2,1.19,1.2,1.37,0,.1-.18.15-.54.15h-4.81v7.99c0,.62-.1,1.12-.32,1.49-.21.37-.7.75-1.47,1.14-.77.39-1.3.59-1.58.59-.18,0-.29-.15-.33-.45-.08-.76-.34-1.31-.77-1.64-.43-.33-1.39-.71-2.87-1.13l.15-.57c1.74.22,2.87.33,3.4.33s.84-.06.96-.18c.12-.12.18-.33.18-.63v-6.94h-7.78c-.5,0-.93.05-1.29.15l-.51-1.26c.42.1.92.15,1.5.15h8.08c0-2.06-.02-3.26-.06-3.61,2.24.3,3.37.57,3.37.81,0,.14-.22.34-.66.6v2.19ZM70.04,134.73c1.24.68,2.17,1.3,2.78,1.85.61.55.92,1.12.92,1.7s-.23,1.08-.68,1.49c-.45.41-.82.62-1.11.62s-.47-.06-.54-.18c-.07-.12-.13-.54-.17-1.26-.04-.72-.18-1.38-.41-1.98-.23-.6-.59-1.22-1.07-1.86l.27-.36Z"/>
      <path class="cls-3" d="M100.18,133.95c-.62,2.8-1.4,4.97-2.34,6.49-.94,1.52-2.35,2.85-4.24,4l-.24-.39c1.62-1.74,2.81-3.72,3.56-5.93.75-2.21,1.18-5.29,1.28-9.24,2.28.38,3.43.77,3.43,1.17,0,.16-.11.29-.32.41-.21.11-.36.29-.44.54-.08.25-.24.92-.48,2h5.11l.63-1.23c.16-.3.35-.45.56-.45s.71.28,1.49.83c.78.55,1.17.95,1.17,1.19s-.35.54-1.05.9c-.2,3.04-.42,5.25-.66,6.61s-.86,2.33-1.86,2.9c-1,.57-1.7.86-2.1.86-.18,0-.3-.06-.36-.17-.06-.11-.09-.31-.09-.59,0-.56-.27-1.05-.81-1.46-.54-.41-1.27-.83-2.19-1.25l.12-.51c1.68.42,2.82.63,3.41.63s.99-.14,1.19-.42c.2-.28.37-.87.51-1.77.14-.9.27-2.6.39-5.11h-5.65ZM99.25,126.83v.51c0,.36-.08.62-.24.77-.16.15-.46.33-.9.53-.44.2-.81.3-1.11.3-.2,0-.29-.15-.27-.45.06-.76.09-1.39.09-1.89v-6.19c0-.84-.03-1.69-.09-2.55,1.16.38,2.18.87,3.07,1.47h5.14l.51-1.2c.12-.2.26-.3.42-.3s.65.24,1.47.72c.82.48,1.23.83,1.23,1.05s-.31.56-.93,1.02v4.87l.06,1.74c0,.16-.1.31-.3.45-.2.14-.55.31-1.04.51-.49.2-.83.3-1.01.3s-.27-.14-.27-.42v-1.23h-5.83ZM99.25,120.22v5.71h5.83v-5.71h-5.83ZM111.27,121.15c.96.24,1.72.45,2.28.63.56.18.89.31.98.39.09.08.14.18.14.3,0,.3-.3.63-.9.99v13.13c0,.38-.06.65-.17.81-.11.16-.44.36-.98.59-.54.23-.91.35-1.1.35s-.29-.16-.29-.48l.06-1.47c.02-.56.03-1.18.03-1.86v-11c0-.88-.02-1.67-.06-2.37ZM116.61,117.18c2.42.52,3.64.97,3.64,1.35,0,.22-.36.51-1.08.87v22.15c0,.9-.09,1.54-.27,1.91-.18.37-.7.76-1.56,1.16-.86.4-1.45.6-1.77.6-.24,0-.37-.16-.39-.48-.06-.68-.34-1.25-.83-1.7-.49-.45-1.45-.89-2.87-1.31l.09-.57c1.52.34,2.62.51,3.29.51s1.14-.07,1.41-.22.41-.43.41-.83v-20.82c0-.98-.02-1.85-.06-2.61Z"/>
      <path class="cls-3" d="M142.04,130.26l-1.68,3.97h8.47l.99-1.35c.14-.18.28-.27.41-.27s.63.29,1.5.86c.87.57,1.31.97,1.31,1.19,0,.24-.37.46-1.11.66-.22,1.08-.58,2.4-1.08,3.95-.5,1.55-.9,2.57-1.2,3.05-.3.48-.71.91-1.23,1.29-.52.38-1.19.69-2.01.93-.82.24-1.47.36-1.95.36s-.78-.04-.9-.14c-.12-.09-.19-.23-.2-.42-.01-.19-.01-.38-.01-.56,0-.46-.4-.91-1.19-1.35-.79-.44-1.86-.91-3.2-1.41l.21-.51c2.6.64,4.54.96,5.8.96.58,0,1.06-.07,1.43-.21.37-.14.65-.35.84-.63.19-.28.47-.96.84-2.04.37-1.08.71-2.22,1.01-3.43h-8.71l-1.05,1.26c-.26.32-.5.48-.72.48-.18,0-.51-.19-.99-.57-.48-.38-1.1-.9-1.86-1.56,1.28-.42,2.03-.91,2.25-1.47l1.11-3.04h-7.63c-.54,0-.96.07-1.26.21l-.54-1.23c.42.1.92.15,1.5.15h21.15l1.41-1.77c.18-.24.38-.36.6-.36s.49.14.81.42l1.41,1.23c.66.54.99.9.99,1.08s-.22.27-.66.27h-14.84ZM148.2,126.2h-10.01v.84c0,.22-.08.39-.24.5-.16.11-.55.28-1.16.51-.61.23-1,.35-1.16.35s-.24-.06-.24-.18l.09-1.68c.06-.8.09-1.6.09-2.4v-4.09c0-.84-.03-1.69-.09-2.55,1.38.38,2.39.77,3.03,1.17h9.08l1.14-1.47c.12-.14.26-.21.41-.21s.49.17,1.01.51l1.35.87c.36.24.54.44.54.6s-.34.38-1.02.66v3.67c0,.7.01,1.38.04,2.04s.04,1.04.04,1.14-.1.21-.3.33-.6.28-1.2.47c-.6.19-.99.29-1.16.29s-.26-.15-.26-.45v-.9ZM138.19,125.27h10.01v-5.74h-10.01v5.74Z"/>
    </g>
    <g>
      <path class="cls-4" d="M29.44,121.6h14l1.35-1.92c.16-.24.3-.36.42-.36s.37.14.74.42c.37.28.82.64,1.34,1.08.52.44.88.76,1.07.96.19.2.29.36.29.48,0,.22-.14.33-.42.33h-10.31v5.86h3.43l1.23-1.77c.16-.2.3-.3.41-.3s.34.12.69.38c.35.25.76.59,1.23,1.01.47.42.76.71.86.86.1.15.15.3.15.44,0,.3-.15.45-.45.45h-7.54v6.37h7.09l1.35-1.8c.14-.18.32-.27.53-.27s.77.43,1.68,1.28c.91.85,1.37,1.37,1.37,1.55s-.17.27-.51.27h-11.51c0,2.12,0,3.68.03,4.66l.06,2.67c0,.14-.05.26-.15.36-.1.1-.5.28-1.2.54-.7.26-1.13.39-1.28.39s-.23-.16-.23-.48l.06-3.04c.02-1.1.03-2.8.03-5.11h-11.84c-.54,0-.96.07-1.26.21l-.54-1.38c.42.1.92.15,1.5.15h4.27v-5.89c0-1.48-.02-2.37-.06-2.67,1.16.34,2.18.72,3.06,1.14h4.87v-5.86h-6.46c-1.12,1.78-2.16,3.2-3.11,4.24-.95,1.04-2.2,2.18-3.74,3.43l-.45-.48c3.19-3.41,5.53-7.82,7.03-13.25,1.62.64,2.65,1.11,3.09,1.4.44.29.66.53.66.72s-.17.31-.5.35c-.33.04-.62.19-.86.45s-.73.98-1.47,2.16ZM35.24,129.5h-5.26v6.37h5.26v-6.37Z"/>
      <path class="cls-4" d="M63.37,126.92h-2.64c-.82,2.3-1.83,4.28-3.04,5.92l-.54-.15c1.3-3.14,2.1-6.98,2.4-11.51.32.06.88.21,1.68.44.8.23,1.27.39,1.41.47s.21.18.21.3-.1.22-.29.3-.37.25-.54.5c-.17.25-.31.58-.42.98-.11.4-.31,1.03-.59,1.89h2.34v-5.95c0-.86-.03-1.7-.09-2.52,2.44.6,3.67,1.05,3.67,1.35,0,.22-.38.48-1.14.78v6.34h.84l.84-1.35c.16-.26.34-.39.53-.39s.67.32,1.43.95,1.14,1.06,1.14,1.28c0,.26-.26.39-.78.39h-4v4.93l3.94-1.59.24.6-4.18,2.49v10.46c0,.2-.1.38-.32.53-.21.15-.58.33-1.1.56-.52.22-.84.33-.96.33s-.18-.09-.18-.27l.06-1.41c.04-.98.06-1.86.06-2.64v-6.07c-1.86,1.14-2.93,1.85-3.22,2.13s-.48.42-.6.42-.27-.11-.45-.33c-.18-.22-.72-1.03-1.62-2.43,1.86-.46,3.83-1.05,5.89-1.77v-5.92ZM73.65,128.36v-4.96h-3.79c-.48,0-.9.08-1.26.24l-.6-1.26c.42.1.92.15,1.5.15h4.15v-2.34c0-1.2-.03-2.14-.09-2.82,1.26.22,2.19.44,2.78.66.59.22.89.39.89.51,0,.16-.33.4-.99.72v3.28h2.34l1.08-1.56c.2-.3.4-.45.59-.45s.47.13.83.39c.36.26.77.58,1.23.95.46.37.77.64.93.8.16.16.24.29.24.39,0,.24-.28.36-.84.36h-6.4v4.96h4.78l1.14-1.59c.2-.28.41-.42.62-.42s.74.4,1.58,1.2c.84.8,1.26,1.28,1.26,1.44,0,.18-.32.27-.96.27h-15.99c-.54,0-.96.07-1.26.21l-.54-1.26c.42.1.92.15,1.5.15h5.29ZM79.96,133.08h1.14l.9-1.29c.16-.24.35-.36.57-.36s.73.37,1.53,1.1c.8.73,1.2,1.19,1.2,1.37,0,.1-.18.15-.54.15h-4.81v7.99c0,.62-.1,1.12-.32,1.49-.21.37-.7.75-1.47,1.14-.77.39-1.3.59-1.58.59-.18,0-.29-.15-.33-.45-.08-.76-.34-1.31-.77-1.64-.43-.33-1.39-.71-2.87-1.13l.15-.57c1.74.22,2.87.33,3.4.33s.84-.06.96-.18c.12-.12.18-.33.18-.63v-6.94h-7.78c-.5,0-.93.05-1.29.15l-.51-1.26c.42.1.92.15,1.5.15h8.08c0-2.06-.02-3.26-.06-3.61,2.24.3,3.37.57,3.37.81,0,.14-.22.34-.66.6v2.19ZM70.04,134.73c1.24.68,2.17,1.3,2.78,1.85.61.55.92,1.12.92,1.7s-.23,1.08-.68,1.49c-.45.41-.82.62-1.11.62s-.47-.06-.54-.18c-.07-.12-.13-.54-.17-1.26-.04-.72-.18-1.38-.41-1.98-.23-.6-.59-1.22-1.07-1.86l.27-.36Z"/>
      <path class="cls-4" d="M100.18,133.95c-.62,2.8-1.4,4.97-2.34,6.49-.94,1.52-2.35,2.85-4.24,4l-.24-.39c1.62-1.74,2.81-3.72,3.56-5.93.75-2.21,1.18-5.29,1.28-9.24,2.28.38,3.43.77,3.43,1.17,0,.16-.11.29-.32.41-.21.11-.36.29-.44.54-.08.25-.24.92-.48,2h5.11l.63-1.23c.16-.3.35-.45.56-.45s.71.28,1.49.83c.78.55,1.17.95,1.17,1.19s-.35.54-1.05.9c-.2,3.04-.42,5.25-.66,6.61s-.86,2.33-1.86,2.9c-1,.57-1.7.86-2.1.86-.18,0-.3-.06-.36-.17-.06-.11-.09-.31-.09-.59,0-.56-.27-1.05-.81-1.46-.54-.41-1.27-.83-2.19-1.25l.12-.51c1.68.42,2.82.63,3.41.63s.99-.14,1.19-.42c.2-.28.37-.87.51-1.77.14-.9.27-2.6.39-5.11h-5.65ZM99.25,126.83v.51c0,.36-.08.62-.24.77-.16.15-.46.33-.9.53-.44.2-.81.3-1.11.3-.2,0-.29-.15-.27-.45.06-.76.09-1.39.09-1.89v-6.19c0-.84-.03-1.69-.09-2.55,1.16.38,2.18.87,3.07,1.47h5.14l.51-1.2c.12-.2.26-.3.42-.3s.65.24,1.47.72c.82.48,1.23.83,1.23,1.05s-.31.56-.93,1.02v4.87l.06,1.74c0,.16-.1.31-.3.45-.2.14-.55.31-1.04.51-.49.2-.83.3-1.01.3s-.27-.14-.27-.42v-1.23h-5.83ZM99.25,120.22v5.71h5.83v-5.71h-5.83ZM111.27,121.15c.96.24,1.72.45,2.28.63.56.18.89.31.98.39.09.08.14.18.14.3,0,.3-.3.63-.9.99v13.13c0,.38-.06.65-.17.81-.11.16-.44.36-.98.59-.54.23-.91.35-1.1.35s-.29-.16-.29-.48l.06-1.47c.02-.56.03-1.18.03-1.86v-11c0-.88-.02-1.67-.06-2.37ZM116.61,117.18c2.42.52,3.64.97,3.64,1.35,0,.22-.36.51-1.08.87v22.15c0,.9-.09,1.54-.27,1.91-.18.37-.7.76-1.56,1.16-.86.4-1.45.6-1.77.6-.24,0-.37-.16-.39-.48-.06-.68-.34-1.25-.83-1.7-.49-.45-1.45-.89-2.87-1.31l.09-.57c1.52.34,2.62.51,3.29.51s1.14-.07,1.41-.22.41-.43.41-.83v-20.82c0-.98-.02-1.85-.06-2.61Z"/>
      <path class="cls-4" d="M142.04,130.25l-1.68,3.97h8.47l.99-1.35c.14-.18.28-.27.41-.27s.63.29,1.5.86c.87.57,1.31.97,1.31,1.19,0,.24-.37.46-1.11.66-.22,1.08-.58,2.4-1.08,3.95-.5,1.55-.9,2.57-1.2,3.05-.3.48-.71.91-1.23,1.29-.52.38-1.19.69-2.01.93-.82.24-1.47.36-1.95.36s-.78-.04-.9-.14c-.12-.09-.19-.23-.2-.42-.01-.19-.01-.38-.01-.56,0-.46-.4-.91-1.19-1.35-.79-.44-1.86-.91-3.2-1.41l.21-.51c2.6.64,4.54.96,5.8.96.58,0,1.06-.07,1.43-.21.37-.14.65-.35.84-.63.19-.28.47-.96.84-2.04.37-1.08.71-2.22,1.01-3.43h-8.71l-1.05,1.26c-.26.32-.5.48-.72.48-.18,0-.51-.19-.99-.57-.48-.38-1.1-.9-1.86-1.56,1.28-.42,2.03-.91,2.25-1.47l1.11-3.04h-7.63c-.54,0-.96.07-1.26.21l-.54-1.23c.42.1.92.15,1.5.15h21.15l1.41-1.77c.18-.24.38-.36.6-.36s.49.14.81.42l1.41,1.23c.66.54.99.9.99,1.08s-.22.27-.66.27h-14.84ZM148.2,126.2h-10.01v.84c0,.22-.08.39-.24.5-.16.11-.55.28-1.16.51-.61.23-1,.35-1.16.35s-.24-.06-.24-.18l.09-1.68c.06-.8.09-1.6.09-2.4v-4.09c0-.84-.03-1.69-.09-2.55,1.38.38,2.39.77,3.03,1.17h9.08l1.14-1.47c.12-.14.26-.21.41-.21s.49.17,1.01.51l1.35.87c.36.24.54.44.54.6s-.34.38-1.02.66v3.67c0,.7.01,1.38.04,2.04s.04,1.04.04,1.14-.1.21-.3.33-.6.28-1.2.47c-.6.19-.99.29-1.16.29s-.26-.15-.26-.45v-.9ZM138.19,125.27h10.01v-5.74h-10.01v5.74Z"/>
    </g>
  </g>
</svg>