<?xml version="1.0" encoding="UTF-8"?><svg id="Layer_1" xmlns="http://www.w3.org/2000/svg" viewBox="0 0 59.52 98.16"><defs><style>.cls-1{fill:#faf5f0;stroke-width:0px;}</style></defs><path class="cls-1" d="M51.33,15.37c-.64-.33-.9-.88-1.1-1.55-.67-2.3-2.18-3.81-4.48-4.52-.32-.1-.66-.14-.94-.34-.49-.35-.77-.82-.68-1.42.09-.61.43-1.06,1.03-1.24.8-.24,1.59-.48,2.3-.95,1.41-.92,2.34-2.18,2.79-3.79.13-.47.26-.94.68-1.24.88-.64,2.03-.24,2.34.83.23.79.48,1.56.94,2.25.89,1.34,2.1,2.25,3.65,2.71.18.05.37.1.55.16.71.23,1.12.76,1.11,1.45,0,.68-.42,1.23-1.13,1.44-.73.21-1.45.44-2.1.85-1.47.92-2.44,2.2-2.88,3.87-.17.66-.47,1.19-1.1,1.49h-.96Z"/><path class="cls-1" d="M41.48,71.3c.67,0,1.22.44,1.42,1.16.21.77.39,1.56.71,2.3,1.85,4.38,5.07,7.19,9.68,8.4.31.08.64.12.9.32.5.36.77.84.66,1.47-.11.64-.49,1.06-1.11,1.22-1.15.29-2.28.62-3.34,1.17-3.84,1.98-6.32,5.05-7.39,9.24-.08.3-.12.61-.29.87-.34.49-.8.79-1.41.71-.65-.08-1.11-.46-1.29-1.1-.24-.89-.46-1.78-.83-2.63-1.85-4.16-4.96-6.85-9.34-8.08-.21-.06-.42-.11-.64-.16-.72-.2-1.22-.81-1.21-1.48,0-.65.5-1.26,1.21-1.44,1.13-.27,2.23-.61,3.26-1.14,3.87-1.97,6.34-5.07,7.42-9.27.09-.37.16-.74.44-1.04.31-.34.68-.54,1.16-.52Z"/><path class="cls-1" d="M9.49,53.94c-.7,0-1.26-.46-1.45-1.23-.34-1.4-.92-2.67-1.85-3.78-1.27-1.52-2.87-2.5-4.79-2.97-.26-.06-.52-.12-.73-.28-.45-.35-.75-.8-.65-1.4.1-.64.47-1.11,1.12-1.27,1.16-.28,2.25-.71,3.24-1.39,1.83-1.27,3.02-2.98,3.58-5.13.08-.31.13-.64.33-.9.36-.46.82-.73,1.4-.63.66.11,1.11.51,1.27,1.17.22.91.53,1.79,1.01,2.6,1.29,2.17,3.16,3.56,5.6,4.18.42.11.81.24,1.09.59.69.85.3,2.07-.79,2.37-.95.26-1.87.55-2.72,1.06-2.12,1.28-3.49,3.11-4.11,5.5-.26,1.02-.76,1.49-1.56,1.49Z"/></svg>