<?xml version="1.0" encoding="UTF-8"?><svg id="Layer_5" xmlns="http://www.w3.org/2000/svg" viewBox="0 0 362.74 175.38"><defs><style>.cls-1{fill:#e9e9e8;}.cls-1,.cls-2{stroke-width:0px;}.cls-2{fill:#fff;}</style></defs><path class="cls-1" d="M187.82,42.9c-4.46-.18-7.5.67-11.16,3.22-3.49,2.43-2.72,5.38-6.15,6.03-9.08,1.73-18.28,3.36-27.15,5.97-.88.26-1.52,1.36-1.37,2.25,2.09,12.03,13.65,22.81,22.44,30.23,21.36,18.03,49.03,26.49,76.25,30.37,25.3,3.6,52.83,5.42,77.59-2.28,10.19-3.17,21.91-9.46,25.74-20.15.33-.92.2-1.9-.59-2.56-6.42-5.33-12.85-10.67-19.27-16-3.14-2.61-1.25-2.95-2.68-7.07-1.08-3.1-4.39-5.18-7.24-6.35-2.92-1.2-.3.05-.31-.45-.08-2.78-.59-5.53-1.2-8.24-.91-4-2.47-7.92-4.53-11.46-4.89-8.43-12-15.31-20.31-20.37-30.38-18.47-86.88-21.13-102.23,18.48-1,2.58,2.92,4.38,3.92,1.79,19.66-50.73,118.59-31.59,120.12,21.99.03.99.92,1.69,1.8,1.89,2.15.49,3.98,1.72,5.42,3.37,1.35,1.56-.05,5.96,1.85,7.53,3.42,2.84,6.83,5.67,10.25,8.51,3.85,3.2,7.71,6.4,11.56,9.6-1.76-1.46-.39-2.11-1.82.55-.78,1.45-1.86,2.73-2.94,3.94-17.43,19.58-55.25,16.77-78.13,14.87-36.56-3.03-75.54-12.88-100.86-41.3-2.8-3.14-5.29-6.57-7.46-10.17-.83-1.38-1.53-2.83-2.17-4.32-1.36-3.18-1.33-.93.4-1.39,7.26-1.95,14.7-3.28,22.07-4.7,1.31-.25,2.62-.5,3.93-.75,6.68-1.25,1.09-9.31,13.55-8.79,2.74.12,3.46-4.14.69-4.25h0Z"/><path class="cls-1" d="M141.09,59.06c-3.34,7.99-5.54,16.61-.88,24.22,3.58,5.85,8.54,10.88,13.66,15.37,21.31,18.69,50.26,27.18,77.56,32.1,28.27,5.09,59.78,7.86,87.99.71,6.23-1.58,13.27-3.52,18.12-8.01,6.19-5.73,6.47-18.25,6.64-26.05.06-2.77-4.23-2.28-4.28.47-.15,7.23-.37,18.89-6.64,23.54-5.51,4.08-13.29,5.67-19.83,6.98-25.47,5.13-52.43,2.75-77.85-1.31-26-4.15-52.34-11.88-73.81-27.63-5.79-4.25-11.06-9.25-15.45-14.93-5.87-7.6-5.21-14.34-1.31-23.67,1.07-2.56-2.85-4.36-3.92-1.8h0Z"/><path class="cls-1" d="M170.87,110.86c-8.63,19.22,41.4,29.8,52.89,32.55,14.16,3.39,29.13,4.62,43.65,4.34,11.05-.21,28.97-1.62,33.08-14.26.85-2.61-3.06-4.43-3.92-1.79-3.79,11.65-21.8,11.62-31.73,11.81-12.87.25-26.02-1.33-38.62-3.94-8.87-1.84-57.5-13.38-51.44-26.9,1.14-2.54-2.78-4.32-3.92-1.79h0Z"/><path class="cls-1" d="M186.91,47.14c8.99,19.3,38.57,25.9,57.21,29.6,20.49,4.07,51.55,7.87,68.96-6.93,2.1-1.79-.4-5.3-2.52-3.49-16.14,13.72-44.57,9.87-63.64,6.56-17.17-2.98-47.65-9.38-55.99-27.29-1.16-2.5-5.2-.97-4.02,1.55h0Z"/><path class="cls-1" d="M171.15,54.43c20.39,22.95,46.94,34.73,76.99,37.86,22.1,2.31,55.03,4.43,73.24-11.11,2.1-1.79-.4-5.3-2.52-3.5-17.33,14.79-49.06,12.32-70.03,10.35-28.75-2.69-54.72-14.23-74.18-36.13-1.83-2.06-5.34.44-3.49,2.52h0Z"/><path class="cls-1" d="M273.1,35.09s.41-.16,1.14-.37c.38-.04.88-.08,1.48-.06.53.07,1.18.12,1.82.31,1.31.33,2.76.94,4.16,1.78,1.41.83,2.79,1.89,4.05,3.05,2.5,2.35,4.54,5.14,5.59,7.53.56,1.17.87,2.23,1.04,2.97.14.76.18,1.19.18,1.19,0,0-4.75-4.41-9.49-8.83-1.15-1.08-2.3-2.14-3.4-3.11-1.09-.98-2.14-1.83-3.06-2.56-.48-.33-.92-.64-1.31-.92-.41-.23-.77-.43-1.06-.6-.72-.23-1.13-.41-1.13-.41Z"/><path class="cls-1" d="M298.1,65.11s-.69-.36-1.21-.95c-.57-.6-.96-1.34-1.08-2.02-.15-.66-.02-1.29.18-1.97.1-.39.18-.72.24-.94.08-.3.13-.48.13-.48,0,0,.18-.03.48,0,.28.02.74.08,1.1.3.41.2.83.54,1.11.96.32.43.49.9.61,1.4.16.97-.06,1.91-.54,2.56-.41.67-1.02,1.15-1.02,1.15Z"/><path class="cls-1" d="M183.99,11.85s.03-.4.17-1.05c.13-.64.41-1.58.87-2.58.46-1.02,1.14-2.13,2.02-3.22.89-1.08,2.02-2.11,3.3-2.97.68-.39,1.32-.82,2.06-1.09.7-.33,1.47-.53,2.19-.71.75-.13,1.47-.25,2.17-.21.7,0,1.35.07,1.94.22.59.1,1.1.33,1.55.53.44.17.8.4,1.08.62.56.41.83.69.83.69,0,0-.4.14-1.02.3-.61.15-1.45.41-2.32.77-1.77.67-3.72,1.78-5.73,3.09-2,1.32-4.1,2.79-5.87,3.88-.9.54-1.66.97-2.27,1.29-.58.31-.96.46-.96.46Z"/><path class="cls-1" d="M352.94,105.48s.44.46,1.12,1.32c.31.44.61,1.09.96,1.86.31.77.53,1.61.77,2.59.12.95.36,2.03.34,3.13.02,1.11.05,2.3-.13,3.49-.23,2.41-.9,4.91-1.8,7.31-.5,1.18-.98,2.38-1.62,3.48-.56,1.13-1.3,2.16-1.99,3.15-.7.99-1.54,1.85-2.3,2.66-.84.76-1.58,1.51-2.44,2.03-.83.55-1.56,1.05-2.33,1.32-.75.3-1.35.6-1.94.67-1.13.21-1.74.24-1.74.24,0,0,.49-.46,1.28-1.13.42-.28.79-.87,1.28-1.35.5-.47.93-1.19,1.46-1.84.54-.64.94-1.53,1.51-2.29.47-.86.97-1.75,1.46-2.69.46-.96.97-1.92,1.4-2.95.48-1,.89-2.06,1.31-3.12.42-1.05.78-2.13,1.16-3.18.31-1.07.7-2.11.95-3.14.31-1.03.55-2.02.77-2.98.23-.96.32-1.86.52-2.72.04-.83.19-1.65.22-2.33-.03-.65.06-1.28,0-1.83-.17-1.08-.21-1.73-.21-1.73Z"/><path class="cls-1" d="M361.35,118.45s.16.34.34.91c.21.57.36,1.41.59,2.33.21.92.37,1.9.43,3.1.03.59.06,1.17,0,1.83-.04.64-.12,1.29-.21,1.94-.17.67-.35,1.35-.57,1.99-.16.65-.6,1.27-.92,1.85-.35.58-.68,1.13-1.19,1.54-.46.44-.91.81-1.33,1.13-.39.35-.93.47-1.32.65-.4.16-.77.26-1.06.34-.59.15-.94.18-.94.18,0,0,.1-.38.3-.94.1-.27.21-.61.36-.94.12-.36.35-.68.42-1.13.11-.43.23-.86.37-1.28.18-.39.22-.89.33-1.36.08-.49.27-.89.32-1.43.07-.52.19-1.02.31-1.53.17-1.11.45-2.19.73-3.32.29-1.06.7-2.21,1.12-3.1.42-.9.93-1.54,1.3-2.03.37-.48.64-.73.64-.73Z"/><path class="cls-1" d="M221.27,3.5s-.69.24-1.9.56c-.56.21-1.23.46-2.01.76-.75.33-1.61.7-2.54,1.1-.9.45-1.89.93-2.92,1.44-1.03.54-2.1,1.1-3.19,1.72-1.11.58-2.21,1.26-3.35,1.91-1.13.66-2.25,1.39-3.38,2.08-1.09.75-2.24,1.43-3.28,2.21-.54.37-1.06.74-1.59,1.11-.5.39-1,.77-1.49,1.15-1.02.72-1.86,1.53-2.76,2.23-.78.79-1.61,1.49-2.29,2.2-.58.76-1.35,1.37-1.75,2.05-.42.67-.97,1.22-1.21,1.75-.53,1.05-.92,1.71-.92,1.71,0,0-.06-.69-.04-2-.01-.67.22-1.4.43-2.3.17-.93.66-1.8,1.1-2.85.49-1.01,1.14-2.02,1.87-3.07.8-.96,1.57-2.11,2.57-3.03.95-1,1.99-1.96,3.12-2.84,1.08-.95,2.32-1.7,3.51-2.55,1.24-.73,2.47-1.51,3.76-2.12,1.27-.64,2.54-1.22,3.82-1.68,1.25-.52,2.54-.85,3.73-1.18,1.19-.36,2.38-.51,3.44-.71,1.1-.13,2.09-.21,2.99-.22.92.01,1.71.06,2.33.13,1.22.25,1.92.44,1.92.44Z"/><path class="cls-1" d="M170.09,64.83c-3.4-.63-6.99.74-7.46,4.53-.42,3.46,2.24,6.58,5.5,7.38,3.55.87,7.52-.4,8.51-4.2,1.07-4.1-3.18-6.93-6.55-7.72-2.12-.5-2.64,2.84-.54,3.33,1.67.39,4.04,1.51,3.81,3.59-.22,2-2.88,2.02-4.34,1.75-1.74-.33-2.97-1.8-3.07-3.53-.11-2.01,2.21-2.07,3.59-1.81,2.14.4,2.67-2.93.54-3.33Z"/><path class="cls-1" d="M198.39,87.28c-3.78,1.67-5.27,5.29-3.17,8.95,2.08,3.63,6.89,4.53,10.55,3.13,3.88-1.48,5.2-5.43,3.16-8.95-2.09-3.62-6.89-4.52-10.54-3.13-2.03.77-.82,3.92,1.21,3.15,2.22-.84,4.69-.46,6.24,1.44,1.44,1.76.64,3.49-1.29,4.35-2.16.96-4.75.4-6.24-1.44-1.42-1.76-.64-3.5,1.29-4.35,1.98-.88.78-4.03-1.21-3.15Z"/><path class="cls-1" d="M242.28,97.72c-3.78,1.67-5.27,5.29-3.17,8.95,2.08,3.63,6.89,4.52,10.55,3.13,3.88-1.48,5.2-5.43,3.17-8.95-2.09-3.61-6.89-4.51-10.55-3.13-2.03.77-.82,3.92,1.21,3.15,2.22-.84,4.69-.46,6.24,1.44,1.44,1.76.64,3.49-1.29,4.35-2.16.96-4.75.4-6.24-1.44-1.42-1.76-.64-3.5,1.29-4.35,1.98-.88.78-4.03-1.21-3.15Z"/><path class="cls-1" d="M280.26,98.77c-3.78,1.67-5.27,5.29-3.16,8.95,2.08,3.63,6.89,4.53,10.54,3.13,3.88-1.48,5.2-5.43,3.17-8.95-2.09-3.61-6.89-4.52-10.55-3.13-2.03.77-.82,3.91,1.21,3.15,2.22-.84,4.69-.46,6.24,1.44,1.44,1.76.64,3.49-1.29,4.35-2.16.96-4.75.4-6.24-1.44-1.43-1.76-.64-3.5,1.29-4.35,1.98-.88.78-4.03-1.21-3.15Z"/><path class="cls-1" d="M309.33,98.16c-2.02,7.31,10.15,10.67,12.68,3.7,2.69-7.43-9.92-11.33-12.54-4.13-.74,2.03,2.32,3.45,3.07,1.4,1.17-3.2,7.03-2.08,6.38,1.4-.65,3.46-7.25,1.82-6.24-1.83.58-2.09-2.76-2.61-3.33-.54Z"/><path class="cls-1" d="M181.98,114.99c-2.29,1.69-4.3,3.72-6.43,5.59-1.35,1.18.28,3.47,1.64,2.28,2.14-1.87,4.14-3.9,6.43-5.59,1.46-1.07-.18-3.36-1.65-2.28h0Z"/><path class="cls-1" d="M188.46,118.25c-2.99,2.16-5.96,4.38-8.06,7.46-1.01,1.49,1.15,3.28,2.17,1.79,1.97-2.9,4.73-4.94,7.54-6.97,1.47-1.06-.17-3.34-1.64-2.28h0Z"/><path class="cls-1" d="M195.83,120.55c-3.36,2.46-6.36,5.46-10.11,7.35-1.6.8-.61,3.44,1.01,2.62,4-2.01,7.17-5.08,10.75-7.7,1.46-1.07-.18-3.35-1.65-2.28h0Z"/><path class="cls-1" d="M149.19,76.43c-.71,4.09-2,8.03-3.05,12.04-.55,2.1,2.78,2.62,3.33.54,1.05-4.01,2.34-7.95,3.05-12.04.37-2.14-2.96-2.68-3.33-.54h0Z"/><path class="cls-1" d="M171,94.6c-1.62,4.13-3.51,9-2.37,13.46.53,2.1,3.68.87,3.15-1.21-.86-3.41,1.07-7.74,2.29-10.84.79-2.02-2.27-3.43-3.07-1.41h0Z"/><path class="cls-1" d="M195.39,107.48l-1.68,10.42c-.35,2.15,2.98,2.68,3.33.54.56-3.47,1.12-6.95,1.68-10.42.35-2.15-2.98-2.68-3.33-.54h0Z"/><path class="cls-1" d="M223.84,116.13c-.41,2.51-.81,5.03-1.22,7.54-.35,2.15,2.98,2.68,3.33.54.41-2.51.81-5.03,1.22-7.54.35-2.15-2.98-2.69-3.33-.54h0Z"/><path class="cls-1" d="M252.34,122.21c-.49,2.91-1.25,5.79-.99,8.77.2,2.17,3.55,1.8,3.36-.37-.24-2.65.52-5.27.96-7.86.36-2.15-2.97-2.68-3.33-.54h0Z"/><path class="cls-1" d="M283.87,122.39c-1.94,2.12-1.9,5.69-1.9,8.38,0,2.17,3.35,1.79,3.36-.37,0-1.75-.12-4.49,1.14-5.87,1.47-1.61-1.15-3.74-2.6-2.14h0Z"/><path class="cls-1" d="M317.82,118.42c-.48,3-1.01,5.98-1.81,8.92-.57,2.1,2.77,2.62,3.33.54.79-2.94,1.32-5.92,1.81-8.92.35-2.15-2.98-2.68-3.33-.54h0Z"/><path class="cls-1" d="M17.74,95.09c-5.55,2.9-15.63,7.7-17.46,14.37-2.66,9.67,14.28,7.58,18.89,8.49-.5-.88-.99-1.76-1.5-2.63-.67,4.42-5.64,22.96,2.7,22.96,7.16,0,14.1-11.2,17.85-16.24-.98.26-1.95.52-2.93.77,4.66,2.12,30.66,12.26,24.8-2.22-1.3-3.21-4.34-5.88-6.7-8.27-.8-.8-3.21-2.7-2.81-3.13,1.99-2.13,3.68-4.6,5.35-6.98,1.74-2.49,7.1-10.2,1.86-12.25-6.14-2.41-13.72-2.23-20.23-2.55,1.77.09,1.68,1.2.34-1.13-.96-1.67-1.98-3.3-3.01-4.93-1.79-2.81-4.09-6.72-6.98-8.52-9.62-6.02-10.71,18.99-11.24,24.1-.29,2.75,4,2.72,4.28,0,.56-5.29,1.38-10.55,2.58-15.73,2.28-9.9,9.58,5.24,11.77,9.14,1.43,2.55,7.33,1.64,9.65,1.82,3.6.28,7.21.63,10.71,1.53.86.22-9.35,13.83-9.71,14.2-.81.87-.82,2.16,0,3.03,2.22,2.35,15.15,14.97,4.74,12.88-4.53-.91-9.04-2.79-13.24-4.69-1.16-.53-2.17-.24-2.93.77-2.85,3.82-5.97,7.43-9.36,10.78-8.14,8.04-3.98-10.1-3.36-14.21.16-1.08-.26-2.39-1.5-2.64-3.72-.73-19.53-.03-13.52-6.31,3.52-3.68,8.6-6.37,13.1-8.72,2.45-1.28.28-4.98-2.16-3.7Z"/><path class="cls-2" d="M117.84,155.8c.63-1.39,8.57,1.18,8.57,1.18,0,0,4.31-7.89,5.83-6.38,1.51,1.51,1.51,8.51,1.51,8.51,0,0,7.4,1.89,7.87,3.57.47,1.68-7.62,4.08-7.62,4.08,0,0,.23,8.04-.97,8.59-1.2.54-6.23-5.99-6.23-5.99,0,0-7.41,2.93-8.47,1.73-1.06-1.19,3.77-7.77,3.77-7.77,0,0-4.9-6.14-4.27-7.52Z"/></svg>