<?xml version="1.0" encoding="UTF-8"?><svg id="Layer_5" xmlns="http://www.w3.org/2000/svg" xmlns:xlink="http://www.w3.org/1999/xlink" viewBox="0 0 173.15 173.44"><defs><style>.cls-1{fill:url(#linear-gradient);}.cls-1,.cls-2,.cls-3,.cls-4,.cls-5,.cls-6,.cls-7,.cls-8,.cls-9,.cls-10,.cls-11,.cls-12{stroke-width:0px;}.cls-2{fill:#faf5f0;}.cls-13{mask:url(#mask-2);}.cls-14{mask:url(#mask-3);}.cls-3{fill:url(#linear-gradient-5);}.cls-15{filter:url(#drop-shadow-1);}.cls-4{fill:#9bd6ee;opacity:.13;}.cls-5{fill:url(#linear-gradient-2);}.cls-6{fill:url(#linear-gradient-7);opacity:.34;}.cls-7{fill:url(#linear-gradient-3);}.cls-8{fill:url(#linear-gradient-9);opacity:.47;}.cls-16{filter:url(#luminosity-noclip);}.cls-9{fill:#fff;}.cls-17{mask:url(#mask-1);}.cls-18{mask:url(#mask);}.cls-10{fill:url(#linear-gradient-8);}.cls-10,.cls-12{mix-blend-mode:multiply;}.cls-11{fill:url(#linear-gradient-4);}.cls-12{fill:url(#linear-gradient-6);}.cls-19{filter:url(#luminosity-noclip-3);}</style><linearGradient id="linear-gradient" x1="7.99" y1="34.17" x2="173.81" y2="145.09" gradientUnits="userSpaceOnUse"><stop offset=".14" stop-color="#d0a0c9"/><stop offset=".59" stop-color="#18b7df"/><stop offset=".95" stop-color="#0464a6"/></linearGradient><linearGradient id="linear-gradient-2" x1="55.29" y1="12.64" x2="171.1" y2="110.62" gradientUnits="userSpaceOnUse"><stop offset=".05" stop-color="#2cad95"/><stop offset=".46" stop-color="#529d5f"/><stop offset="1" stop-color="#359a4f"/></linearGradient><linearGradient id="linear-gradient-3" x1="27.45" y1="45.61" x2="143.29" y2="143.61" xlink:href="#linear-gradient-2"/><linearGradient id="linear-gradient-4" x1="9.77" y1="66.57" x2="119.39" y2="159.31" xlink:href="#linear-gradient-2"/><linearGradient id="linear-gradient-5" x1="-2.78" y1="81.42" x2="113.01" y2="179.37" xlink:href="#linear-gradient-2"/><filter id="luminosity-noclip" x="13.1" y="13.12" width="146.96" height="146.36" color-interpolation-filters="sRGB" filterUnits="userSpaceOnUse"><feFlood flood-color="#fff" result="bg"/><feBlend in="SourceGraphic" in2="bg"/></filter><filter id="luminosity-noclip-2" x="13.1" y="-13184.1" width="146.96" height="32766" color-interpolation-filters="sRGB" filterUnits="userSpaceOnUse"><feFlood flood-color="#fff" result="bg"/><feBlend in="SourceGraphic" in2="bg"/></filter><mask id="mask-1" x="13.1" y="-13184.1" width="146.96" height="32766" maskUnits="userSpaceOnUse"/><linearGradient id="linear-gradient-6" x1="44.75" y1="25.5" x2="116.6" y2="130.66" gradientUnits="userSpaceOnUse"><stop offset=".08" stop-color="#fff"/><stop offset=".95" stop-color="#000"/></linearGradient><mask id="mask" x="13.1" y="13.12" width="146.96" height="146.36" maskUnits="userSpaceOnUse"><g class="cls-16"><g class="cls-17"><path class="cls-12" d="M158.67,100.85c-.31,1.58-.65,3.12-1.07,4.65.53-13.41-1.78-26.93-6.88-39.32-6.83-16.59-19.04-31.47-35.4-38.81-6.01-2.7-12.45-4.36-18.89-5.66-7.72-1.54-15.7-2.67-23.39-1.02-40.44,8.67-55.28,53.1-50.14,79.88,4.95,25.69,29.09,47.65,52.69,58.92-1.03-.15-2.08-.33-3.12-.53-2.23-.45-4.4-.98-6.56-1.6-15.71-4.59-28.9-14.14-38.13-26.53-5.65-7.53-9.82-16.11-12.25-25.3-2.77-10.42-3.26-21.61-1.05-32.92,1.25-6.5,3.35-12.63,6.14-18.27C34.87,25.14,67.35,7.96,100.68,14.51c6.5,1.29,12.63,3.39,18.3,6.19,15.47,7.59,27.54,20.32,34.51,35.62,6.11,13.46,8.24,28.93,5.18,44.53Z"/></g></g></mask><linearGradient id="linear-gradient-7" x1="44.75" y1="25.5" x2="116.6" y2="130.66" gradientUnits="userSpaceOnUse"><stop offset=".08" stop-color="#fff"/><stop offset=".95" stop-color="#09c"/></linearGradient><filter id="luminosity-noclip-3" x="40.7" y="56.12" width="44.37" height="44.44" color-interpolation-filters="sRGB" filterUnits="userSpaceOnUse"><feFlood flood-color="#fff" result="bg"/><feBlend in="SourceGraphic" in2="bg"/></filter><filter id="luminosity-noclip-4" x="40.7" y="-13184.1" width="44.37" height="32766" color-interpolation-filters="sRGB" filterUnits="userSpaceOnUse"><feFlood flood-color="#fff" result="bg"/><feBlend in="SourceGraphic" in2="bg"/></filter><mask id="mask-3" x="40.7" y="-13184.1" width="44.37" height="32766" maskUnits="userSpaceOnUse"/><linearGradient id="linear-gradient-8" x1="50.24" y1="59.83" x2="74.96" y2="96.01" gradientUnits="userSpaceOnUse"><stop offset="0" stop-color="#fff"/><stop offset="1" stop-color="#000"/></linearGradient><mask id="mask-2" x="40.7" y="56.12" width="44.37" height="44.44" maskUnits="userSpaceOnUse"><g class="cls-19"><g class="cls-14"><ellipse class="cls-10" cx="62.88" cy="78.34" rx="22.18" ry="22.22"/></g></g></mask><linearGradient id="linear-gradient-9" x1="50.24" y1="59.83" x2="74.96" y2="96.01" gradientUnits="userSpaceOnUse"><stop offset="0" stop-color="#f7e0ee"/><stop offset="1" stop-color="#abdbe6"/></linearGradient><filter id="drop-shadow-1" filterUnits="userSpaceOnUse"><feOffset dx="5" dy="5"/><feGaussianBlur result="blur" stdDeviation="2"/><feFlood flood-color="#7d4c16" flood-opacity=".3"/><feComposite in2="blur" operator="in"/><feComposite in="SourceGraphic"/></filter></defs><ellipse class="cls-4" cx="86.58" cy="86.72" rx="86.58" ry="86.72"/><path class="cls-1" d="M158.67,100.85c-.31,1.58-.65,3.12-1.07,4.65-9.46,36.24-44.87,59.66-82.01,53.98-1.03-.15-2.08-.33-3.12-.53-2.23-.45-4.4-.98-6.56-1.6-15.71-4.59-28.9-14.14-38.13-26.53-5.65-7.53-9.82-16.11-12.25-25.3-2.77-10.42-3.26-21.61-1.05-32.92,1.25-6.5,3.35-12.63,6.14-18.27C34.87,25.14,67.35,7.96,100.68,14.51c6.5,1.29,12.63,3.39,18.3,6.19,15.47,7.59,27.54,20.32,34.51,35.62,6.11,13.46,8.24,28.93,5.18,44.53Z"/><path class="cls-9" d="M81.49,150.67c-.3.1-.59.21-.87.34-1.8.77-3.44,1.89-5.23,2.69-1,.44-2.05.79-2.92,1.44-.87.65-1.55,1.71-1.38,2.79.26,1.7,2.28,2.42,3.97,2.73,10.18,1.87,21.03.98,31.08-1.26,9.5-2.12,18.77-6.04,26.2-12.44.93-.8,1.86-1.69,2.22-2.86.35-1.17-.12-2.68-1.29-3.05-.57-.18-1.18-.06-1.77.05-3.23.64-6.46,1.28-9.68,1.92-1.15.23-2.36.45-3.46.04-.92-.34-1.63-1.08-2.49-1.55-2.3-1.23-5.3-.31-7.6-1.55-.37-.2-.73-.46-1.14-.53-.51-.09-1.02.12-1.51.29-2.48.88-5.21.99-7.6,2.09-2.39,1.1-4.45,3.78-3.53,6.25.17.46.44.9.42,1.38-.02.4-.22.76-.46,1.08-2.64,3.5-5.08,1.13-8.09-.01-1.54-.58-3.26-.39-4.84.15Z"/><path class="cls-5" d="M154.51,80.73c-1.29,5.93-6.06,11-11.9,12.65-1.4.36-2.85.59-3.97,1.48-1.87,1.46-2.12,4.14-2.21,6.49-.11,2.18-.2,4.42.36,6.52.31,1.26.84,2.49,1.06,3.78.64,4.06-2.07,7.81-4.64,11.03-.48.64-1.01,1.29-1.76,1.54-1.26.48-2.68-.39-3.38-1.54-.7-1.18-.89-2.55-1.2-3.86-1.65-7.05-7.01-12.54-12.15-17.63-1.23-1.23-2.63-2.55-4.39-2.69-1.65-.14-3.46.78-4.86-.08-1.45-.92-1.31-3.02-1.45-4.76-.36-4.25-3.49-7.89-3.83-12.17-.39-4.7,2.82-9.1,6.87-11.5,4.05-2.43,8.8-3.25,13.44-4.06l9.47-1.6c1.45-.25,2.96-.53,4.08-1.51.89-.81,1.4-1.99,1.54-3.19,1.15-9.63-16.68-9.54-20.9-3.97-1.34,1.74-1.76,4-2.71,5.96-.98,1.99-2.93,3.83-5.09,3.41-1.34-.28-2.35-1.34-3.46-2.1-3.07-2.07-4.64,1.2-7.54,1.57-1.65.22-3.27-.84-4.05-2.32-.75-1.46-.78-3.22-.39-4.84.39-1.62,1.2-3.16,1.26-4.81.08-1.68-.95-3.58-2.63-3.64-.17,1.18-.87,2.27-1.84,2.94-1.17-1.04-3.1-.53-4.3.48-1.23.98-2.1,2.38-3.41,3.27-1.28.9-3.35,1.06-4.22-.25-.36-.56-.45-1.23-.39-1.9.25-3.02,3.02-5.09,4.78-7.58,2.37-3.39,3.13-8,6.45-10.44,3.13-2.29,7.18-1.76,10.81-1.9,4.47-.17,5.25-1.48,8.49-4.14,3.94-3.22,8.13-6.13,12.52-8.65,15.48,7.58,27.55,20.32,34.51,35.63-.56,1.71-1.17,3.39-2.07,4.95-.64,1.12-1.45,2.18-1.93,3.41-.7,1.9-.45,4.11.67,5.82,1.09,1.68,2.96,2.83,3.91,4.62.89,1.68.84,3.72.45,5.6Z"/><path class="cls-7" d="M53.93,50.63c.25-.04.49-.07.74-.1,1.59-.18,3.21-.08,4.77.29,1.05.25,2.22.79,2.44,1.85.27,1.35-1.14,2.36-1.97,3.45-1.83,2.39-1.03,5.93-2.36,8.64-1.63,3.3-5.34,3.64-7.72,6.01-2.19,2.17-2.06,5.42-3.56,7.92-1.61,2.69-3.59,3.12-5.31.69-2.2-3.1-2.43-5.48-.84-8.89.96-2.05,1.7-4.38,1.12-6.57-.57-2.14-2.3-3.8-2.94-5.92-2.23-7.36,5.7-7.03,10.44-6.72,1.74.12,3.46-.37,5.19-.65Z"/><path class="cls-11" d="M37.69,115.61c-.67.68-1.75.8-2.67.53-.91-.27-1.7-.85-2.46-1.43-1.44-1.08-2.87-2.17-4.31-3.25-3.84-2.9-8.55-3.45-12.72-5.93-2.77-10.41-3.27-21.61-1.06-32.91,1.26-6.49,3.35-12.62,6.15-18.28.81-.36,1.68-.67,2.51-.95,2.35-.81,5.14-2.38,7.71-2.1,5.11.59,1.98,6.07.78,8.98-.75,1.85-1.54,3.78-1.28,5.77.25,1.96,1.45,3.64,2.15,5.49,1.21,3.35.61,6.96,1.33,10.39.84,3.99,2.24,4.69,5.61,6.28,1.5.71,2.57,2.32,2.51,3.98-.05,1.66-1.3,3.25-2.93,3.57-.7.14-1.43.06-2.14,0-2.55-.22-6.02-.2-7.34,2.41-1.21,2.39-.72,6.56.46,8.79,1.36,2.58,3.66,4.5,5.88,6.38.75.64,1.54,1.34,1.81,2.29Z"/><path class="cls-3" d="M66.84,132.92c-.7,3.69,1.01,7.47.61,11.22-.39,3.75-2.88,7.3-2.07,10.97.14.76.45,1.48.53,2.24-15.7-4.59-28.89-14.13-38.14-26.53v-.06c.08-2.16.89-4.39.17-6.44-.59-1.57-2.07-2.85-2.07-4.53.03-1.88,1.98-3.22,3.83-3.3,1.87-.08,3.63.73,5.34,1.43,3.94,1.6,8.1,2.66,12.32,3.16.95.11,1.93.17,2.85-.06,2.88-.7,4.25-3.89,6.45-5.85,2.63-2.29,6.71-2.74,9.75-1.06,3.05,1.68,4.86,5.35,4.33,8.79-.56,3.55-3.27,6.47-3.91,10.02Z"/><g class="cls-18"><path class="cls-6" d="M158.67,100.85c-.31,1.58-.65,3.12-1.07,4.65.53-13.41-1.78-26.93-6.88-39.32-6.83-16.59-19.04-31.47-35.4-38.81-6.01-2.7-12.45-4.36-18.89-5.66-7.72-1.54-15.7-2.67-23.39-1.02-40.44,8.67-55.28,53.1-50.14,79.88,4.95,25.69,29.09,47.65,52.69,58.92-1.03-.15-2.08-.33-3.12-.53-2.23-.45-4.4-.98-6.56-1.6-15.71-4.59-28.9-14.14-38.13-26.53-5.65-7.53-9.82-16.11-12.25-25.3-2.77-10.42-3.26-21.61-1.05-32.92,1.25-6.5,3.35-12.63,6.14-18.27C34.87,25.14,67.35,7.96,100.68,14.51c6.5,1.29,12.63,3.39,18.3,6.19,15.47,7.59,27.54,20.32,34.51,35.62,6.11,13.46,8.24,28.93,5.18,44.53Z"/></g><g class="cls-13"><ellipse class="cls-8" cx="62.88" cy="78.34" rx="22.18" ry="22.22"/></g><path class="cls-9" d="M50.14,35.42c1.31,1.31,2.66,2.58,4.15,3.66,1.72,1.25,3.71,2.28,5.84,2.32,3.17.07,5.94-1.99,8.43-3.95,1.15-.9,2.35-1.89,2.77-3.29.17-.57.19-1.17.34-1.74.47-1.87,2.18-3.22,4.02-3.8,1.84-.58,3.81-.51,5.73-.44,1.91.07,3.81.14,5.72.21,1.07.04,2.17.07,3.16-.32,1.92-.76,2.9-2.84,3.84-4.68,1.67-3.29,4.06-7.68,7.61-8.66-9.78-5.26-28.13-4.2-39.83-.35-11.23,3.7-20.24,11.23-27.28,20.78-.94,1.27-1.85,2.66-2,4.23-.28,2.75,1.36,3.79,3.81,2.81,1.15-.46,1.79-1.49,2.85-1.95,1.27-.55,2.9.03,4.01-.99.43-.39.65-.96.91-1.48.92-1.8,2.59-3.2,4.51-3.78.47.48.94.96,1.41,1.44Z"/><g id="jBkvUJ" class="cls-15"><path class="cls-2" d="M125.29,85.9c-.08,9.29-2.94,17.65-8.86,24.81-6.33,7.67-14.43,12.43-24.33,13.98-9.96,1.56-19.16-.44-27.61-5.89-.74-.48-1.31-.55-2.13-.17-4.54,2.09-9.11,4.1-13.67,6.13-.1.04-.2.08-.29.13-.59.28-1.19.56-1.78,0-.6-.58-.26-1.18-.04-1.78,1.2-3.17,2.41-6.33,3.61-9.49.75-1.96,1.53-3.92,2.22-5.9.14-.4.1-1-.12-1.35-3.18-5.29-5.08-11.02-5.59-17.16-.55-6.66.49-13.1,3.21-19.23,3-6.77,7.6-12.24,13.64-16.48,4.92-3.46,10.4-5.61,16.36-6.53,7.24-1.12,14.26-.28,21.01,2.49,5.19,2.12,9.71,5.26,13.57,9.37,2.82,3,5.16,6.29,6.92,10,2.56,5.4,3.89,11.09,3.87,17.08ZM91.31,96.75v-15.32c.33.55.5.82.66,1.09,2.58,4.48,5.16,8.97,7.76,13.45.18.31.49.76.75.77,1.41.08,2.82.04,4.22.04v-21.84h-4.23v14.86c-.45-.46-.74-.95-1.02-1.44-2.42-4.25-4.83-8.51-7.27-12.75-.16-.28-.45-.69-.69-.7-1.48-.07-2.97-.03-4.42-.03v21.87h4.24ZM71.37,87.18h10.49v-3.78h-10.46v-4.68h11.43v-3.79h-15.95v21.8h16.49v-3.87h-12.02v-5.68Z"/></g></svg>