<?xml version="1.0" encoding="UTF-8"?><svg id="Layer_5" xmlns="http://www.w3.org/2000/svg" xmlns:xlink="http://www.w3.org/1999/xlink" viewBox="0 0 173.97 174.26"><defs><style>.cls-1{fill:url(#linear-gradient);}.cls-1,.cls-2,.cls-3,.cls-4,.cls-5,.cls-6,.cls-7,.cls-8,.cls-9,.cls-10,.cls-11,.cls-12,.cls-13,.cls-14,.cls-15{stroke-width:0px;}.cls-2{fill:url(#linear-gradient-12);}.cls-2,.cls-12,.cls-14{mix-blend-mode:multiply;}.cls-3{fill:url(#linear-gradient-6);}.cls-4{fill:#faf5f0;}.cls-16{filter:url(#luminosity-noclip-5);}.cls-17{mask:url(#mask-2);}.cls-5{fill:#9a97ca;opacity:.14;}.cls-18{mask:url(#mask-3);}.cls-6{fill:url(#linear-gradient-5);}.cls-19{filter:url(#drop-shadow-1);}.cls-20{mask:url(#mask-5);}.cls-7{fill:url(#linear-gradient-13);opacity:.33;}.cls-8{fill:url(#linear-gradient-2);}.cls-9{fill:url(#linear-gradient-7);}.cls-10{fill:url(#linear-gradient-11);opacity:.41;}.cls-21{mask:url(#mask-4);}.cls-11{fill:url(#linear-gradient-3);}.cls-12{fill:url(#linear-gradient-10);}.cls-22{filter:url(#luminosity-noclip);}.cls-23{mask:url(#mask-1);}.cls-24{mask:url(#mask);}.cls-13{fill:url(#linear-gradient-9);opacity:.34;}.cls-14{fill:url(#linear-gradient-8);}.cls-15{fill:url(#linear-gradient-4);}.cls-25{filter:url(#luminosity-noclip-3);}</style><linearGradient id="linear-gradient" x1="141" y1="21.26" x2="27.26" y2="159.94" gradientUnits="userSpaceOnUse"><stop offset=".03" stop-color="#faf088"/><stop offset=".34" stop-color="#5468ae"/><stop offset="1" stop-color="#72519c"/></linearGradient><linearGradient id="linear-gradient-2" x1="181.14" y1="59.95" x2="12.22" y2="127.22" gradientUnits="userSpaceOnUse"><stop offset=".03" stop-color="#8cacca"/><stop offset=".41" stop-color="#3c4697"/><stop offset="1" stop-color="#583a8e"/></linearGradient><linearGradient id="linear-gradient-3" x1="190.68" y1="84.01" x2="21.84" y2="151.25" gradientUnits="userSpaceOnUse"><stop offset=".03" stop-color="#8cacca"/><stop offset=".41" stop-color="#454092"/><stop offset="1" stop-color="#583a8e"/></linearGradient><linearGradient id="linear-gradient-4" x1="154.12" y1="25.08" x2="2.38" y2="85.5" gradientUnits="userSpaceOnUse"><stop offset=".03" stop-color="#faf088"/><stop offset=".45" stop-color="#3b509e"/><stop offset="1" stop-color="#593e91"/></linearGradient><linearGradient id="linear-gradient-5" x1="-234.4" y1="300.49" x2="-359.15" y2="426.1" gradientTransform="translate(375.36 -282.2) rotate(3.89)" gradientUnits="userSpaceOnUse"><stop offset="0" stop-color="#faf088"/><stop offset=".34" stop-color="#4057a3"/><stop offset=".86" stop-color="#72519c"/></linearGradient><linearGradient id="linear-gradient-6" x1="-202.49" y1="332.21" x2="-327.24" y2="457.82" gradientTransform="translate(375.36 -282.2) rotate(3.89)" gradientUnits="userSpaceOnUse"><stop offset="0" stop-color="#faf088"/><stop offset=".3" stop-color="#3c52a0"/><stop offset="1" stop-color="#664796"/></linearGradient><linearGradient id="linear-gradient-7" x1="-186.87" y1="347.79" x2="-311.59" y2="473.38" xlink:href="#linear-gradient-6"/><filter id="luminosity-noclip" x="12.98" y="13.7" width="133.18" height="147.55" color-interpolation-filters="sRGB" filterUnits="userSpaceOnUse"><feFlood flood-color="#fff" result="bg"/><feBlend in="SourceGraphic" in2="bg"/></filter><filter id="luminosity-noclip-2" x="12.98" y="-13543.84" width="133.18" height="32766" color-interpolation-filters="sRGB" filterUnits="userSpaceOnUse"><feFlood flood-color="#fff" result="bg"/><feBlend in="SourceGraphic" in2="bg"/></filter><mask id="mask-1" x="12.98" y="-13543.84" width="133.18" height="32766" maskUnits="userSpaceOnUse"/><linearGradient id="linear-gradient-8" x1="54.35" y1="17.59" x2="89.17" y2="150.94" gradientUnits="userSpaceOnUse"><stop offset=".08" stop-color="#fff"/><stop offset=".94" stop-color="#000"/></linearGradient><mask id="mask" x="12.98" y="13.7" width="133.18" height="147.55" maskUnits="userSpaceOnUse"><g class="cls-22"><g class="cls-23"><path class="cls-14" d="M146.16,131.62c-1,1.33-2.06,2.62-3.14,3.88,0,0,0,.04-.04.04-1.43,1.67-2.96,3.27-4.52,4.76-14.51,14.14-34.7,22.28-56.51,20.78-23.85-1.63-44.3-14.39-56.53-32.87-.9-1.31-1.74-2.66-2.53-4.06-1.42-2.37-2.65-4.87-3.75-7.46-.22-.47-.43-.92-.61-1.42-.75-1.74-1.38-3.52-1.95-5.34-.84-2.55-1.56-5.19-2.1-7.85-.3-1.53-.59-3.09-.77-4.65-.32-2.21-.54-4.49-.65-6.75-.14-2.86-.11-5.69.07-8.57.04-.68.11-1.35.18-2.03.18-2.07.47-4.11.86-6.14.34-1.96.77-3.88,1.31-5.77,1.7-6.68,4.36-12.97,7.8-18.72.86-1.49,1.81-3,2.8-4.42,8.3-12.04,20.09-21.47,33.79-26.89,5.33-2.12,10.96-3.61,16.8-4.44,2.19,4.98,2.06,11.53-.77,16.35-9.08,15.47-36.68,23.34-45.03,42.02-2.35,5.25-4.04,10.78-4.45,16.51-.48,6.77-.07,13.65,1.65,20.21,4.25,16.19,16.61,29.66,31.73,36.75,15.12,7.1,32.69,8.12,48.98,4.44,13.67-3.09,26.52-9.5,37.38-18.36Z"/></g></g></mask><linearGradient id="linear-gradient-9" x1="54.35" y1="17.59" x2="89.17" y2="150.94" gradientUnits="userSpaceOnUse"><stop offset=".08" stop-color="#fff"/><stop offset=".94" stop-color="#fff"/></linearGradient><filter id="luminosity-noclip-3" x="100.32" y="80.92" width="45.84" height="49.96" color-interpolation-filters="sRGB" filterUnits="userSpaceOnUse"><feFlood flood-color="#fff" result="bg"/><feBlend in="SourceGraphic" in2="bg"/></filter><filter id="luminosity-noclip-4" x="100.32" y="-13543.84" width="45.84" height="32766" color-interpolation-filters="sRGB" filterUnits="userSpaceOnUse"><feFlood flood-color="#fff" result="bg"/><feBlend in="SourceGraphic" in2="bg"/></filter><mask id="mask-3" x="100.32" y="-13543.84" width="45.84" height="32766" maskUnits="userSpaceOnUse"/><linearGradient id="linear-gradient-10" x1="-449.43" y1="863.65" x2="-437.76" y2="908.33" gradientTransform="translate(1009.99 573.83) rotate(90.17) scale(1.05 1)" xlink:href="#linear-gradient-8"/><mask id="mask-2" x="100.32" y="80.92" width="45.84" height="49.96" maskUnits="userSpaceOnUse"><g class="cls-25"><g class="cls-18"><ellipse class="cls-12" cx="123.24" cy="105.9" rx="25.03" ry="22.86" transform="translate(-.84 210.81) rotate(-80.89)"/></g></g></mask><linearGradient id="linear-gradient-11" x1="-449.43" y1="863.65" x2="-437.76" y2="908.33" gradientTransform="translate(1009.99 573.83) rotate(90.17) scale(1.05 1)" xlink:href="#linear-gradient-9"/><filter id="luminosity-noclip-5" x="79.19" y="120.87" width="17.35" height="18.91" color-interpolation-filters="sRGB" filterUnits="userSpaceOnUse"><feFlood flood-color="#fff" result="bg"/><feBlend in="SourceGraphic" in2="bg"/></filter><filter id="luminosity-noclip-6" x="79.19" y="-13543.84" width="17.35" height="32766" color-interpolation-filters="sRGB" filterUnits="userSpaceOnUse"><feFlood flood-color="#fff" result="bg"/><feBlend in="SourceGraphic" in2="bg"/></filter><mask id="mask-5" x="79.19" y="-13543.84" width="17.35" height="32766" maskUnits="userSpaceOnUse"/><linearGradient id="linear-gradient-12" x1="-474.94" y1="908.67" x2="-470.52" y2="925.59" gradientTransform="translate(1004.35 629.29) rotate(90.17) scale(1.05 1)" xlink:href="#linear-gradient-8"/><mask id="mask-4" x="79.19" y="120.87" width="17.35" height="18.91" maskUnits="userSpaceOnUse"><g class="cls-16"><g class="cls-20"><ellipse class="cls-2" cx="87.87" cy="130.32" rx="9.47" ry="8.65" transform="translate(-54.72 196.44) rotate(-80.89)"/></g></g></mask><linearGradient id="linear-gradient-13" x1="-474.94" y1="908.67" x2="-470.52" y2="925.59" gradientTransform="translate(1004.35 629.29) rotate(90.17) scale(1.05 1)" xlink:href="#linear-gradient-9"/><filter id="drop-shadow-1" filterUnits="userSpaceOnUse"><feOffset dx="5" dy="5"/><feGaussianBlur result="blur" stdDeviation="2"/><feFlood flood-color="#7d4c16" flood-opacity=".3"/><feComposite in2="blur" operator="in"/><feComposite in="SourceGraphic"/></filter></defs><ellipse class="cls-5" cx="86.99" cy="87.13" rx="86.99" ry="87.13"/><path class="cls-1" d="M160.83,92.17l-.04.36c-.14,1.67-.32,3.31-.54,4.94-.29,2.05-.63,4.11-1.13,6.11-.18.77-.36,1.56-.57,2.32-1.63,6.36-4.07,12.32-7.26,17.87-1.54,2.73-3.26,5.35-5.13,7.85-1,1.33-2.06,2.62-3.14,3.88,0,0,0,.04-.04.04-1.43,1.67-2.96,3.27-4.52,4.76-14.51,14.14-34.7,22.28-56.51,20.78-23.85-1.63-44.3-14.39-56.53-32.87-.9-1.31-1.74-2.66-2.53-4.06-1.42-2.37-2.65-4.87-3.75-7.46-.22-.47-.43-.92-.61-1.42-.75-1.74-1.38-3.52-1.95-5.34-.84-2.55-1.56-5.19-2.1-7.85-.3-1.53-.59-3.09-.77-4.65-.32-2.21-.54-4.49-.65-6.75-.14-2.86-.11-5.69.07-8.57.04-.68.11-1.35.18-2.03.18-2.07.47-4.11.86-6.14.34-1.96.77-3.88,1.31-5.77,1.7-6.68,4.36-12.97,7.8-18.72.86-1.49,1.81-3,2.8-4.42,8.3-12.04,20.09-21.47,33.79-26.89,5.33-2.12,10.96-3.61,16.8-4.44,4.97-.68,10.1-.88,15.3-.54,12.86.88,24.75,5.01,34.85,11.55.5.31,1.04.66,1.52.99,2.1,1.38,4.09,2.87,5.97,4.51.36.29.66.57.99.86,7.39,6.32,13.45,14.1,17.81,22.85,1.04,2.03,1.95,4.08,2.78,6.22.81,2.1,1.56,4.28,2.19,6.43,2.31,8.1,3.34,16.74,2.74,25.6Z"/><path class="cls-8" d="M160.82,92.17l-.04.36c-.14,1.67-.32,3.31-.53,4.94-7.69-4.23-17.69-6.86-28.54-5.27-36.18,5.31-70.95,22.33-93.06,21.83-9.51-.21-16.89-2.1-22.07-4.09-.85-2.56-1.56-5.19-2.09-7.85-.32-1.53-.6-3.09-.78-4.66,5.11,1.24,12.85,2.13,22.46.25,17.85-3.59,33.46-18.34,58.48-27.65,25.02-9.28,46.41-11.52,60.57-9.95.25.04.46.04.67.07,3.87,9.88,5.68,20.76,4.93,32.02Z"/><path class="cls-11" d="M159.12,103.58c-.18.78-.35,1.56-.57,2.31-2.87,11.16-8.27,21.22-15.54,29.61,0,0,0,.04-.04.04-1.42,1.67-2.95,3.27-4.51,4.76-10.36,4.94-25.12,8.03-39.56,7-29.88-2.13-58.73-10.66-73.49-19.09-.89-1.32-1.74-2.67-2.52-4.05-1.42-2.38-2.66-4.87-3.76-7.46,0,0,35.9,15.32,61.34,12.94,35.66-3.34,47.41-15.29,66.01-22.64,6.21-2.42,9.9-3.02,12.63-3.41Z"/><path class="cls-15" d="M135.31,31.07c-7.06,1.35-23.21,5.22-39.07,14.64-13.7,8.1-34.03,31.56-59.9,37.64-10.11,2.38-18.34-.68-23.03-3.27.18-2.06.46-4.12.85-6.15.35-1.96.78-3.87,1.31-5.76,2.95-.32,9.44-.92,13.63-.28,5.54.92,36.16-15.07,56.56-25.31,15.51-7.78,34.49-14.22,42.69-16.88,2.09,1.39,4.08,2.88,5.96,4.51.35.28.67.57.99.85Z"/><path class="cls-6" d="M134.33,30.21c-8.94.26-30.08,3.34-56.2,23.4-27.07,20.79-44.94,27.37-57.69,23.89-2.35-.65-4.45-1.97-6.25-3.56,1.87-10.65,6.04-20.45,11.89-28.92,2.17,3.87,6.11,7.68,13.11,7.36,10.38-.48,31.3-6.94,52.4-17.57,15.57-7.84,28.64-9.7,35.23-10.12,2.63,1.67,5.14,3.52,7.51,5.52Z"/><path class="cls-3" d="M160.81,92.18l-.02.35c-4.84-1.89-16.29-5.49-30.61-4.21-35.03,3.14-68.86,20.21-90.11,19.77-12.27-.24-20.83-3.54-25.56-5.98-.79-3.7-1.26-7.53-1.41-11.43,4.55,1.56,13.2,3.44,24.61,1.05,17.19-3.63,32.22-18.39,56.29-27.78,24.07-9.35,44.64-11.63,58.25-10.12.31.02.62.08.9.1,5.75,11.45,8.61,24.55,7.68,38.25Z"/><path class="cls-9" d="M158.56,105.9c-2.87,11.14-8.28,21.21-15.55,29.61,0,0,0,.03-.04.03-9.37,5.78-25.34,9.94-44.07,8.63-33.52-2.35-63.37-12.58-76.01-20.01-1.4-2.39-2.65-4.88-3.76-7.46,8.98,3.71,32.35,11.87,60.02,10.28,35.59-2.06,47.29-8.81,64.97-15.57,6.06-2.3,10.8-4.13,14.44-5.52Z"/><g class="cls-24"><path class="cls-13" d="M146.16,131.62c-1,1.33-2.06,2.62-3.14,3.88,0,0,0,.04-.04.04-1.43,1.67-2.96,3.27-4.52,4.76-14.51,14.14-34.7,22.28-56.51,20.78-23.85-1.63-44.3-14.39-56.53-32.87-.9-1.31-1.74-2.66-2.53-4.06-1.42-2.37-2.65-4.87-3.75-7.46-.22-.47-.43-.92-.61-1.42-.75-1.74-1.38-3.52-1.95-5.34-.84-2.55-1.56-5.19-2.1-7.85-.3-1.53-.59-3.09-.77-4.65-.32-2.21-.54-4.49-.65-6.75-.14-2.86-.11-5.69.07-8.57.04-.68.11-1.35.18-2.03.18-2.07.47-4.11.86-6.14.34-1.96.77-3.88,1.31-5.77,1.7-6.68,4.36-12.97,7.8-18.72.86-1.49,1.81-3,2.8-4.42,8.3-12.04,20.09-21.47,33.79-26.89,5.33-2.12,10.96-3.61,16.8-4.44,2.19,4.98,2.06,11.53-.77,16.35-9.08,15.47-36.68,23.34-45.03,42.02-2.35,5.25-4.04,10.78-4.45,16.51-.48,6.77-.07,13.65,1.65,20.21,4.25,16.19,16.61,29.66,31.73,36.75,15.12,7.1,32.69,8.12,48.98,4.44,13.67-3.09,26.52-9.5,37.38-18.36Z"/></g><g class="cls-17"><ellipse class="cls-10" cx="123.24" cy="105.9" rx="25.03" ry="22.86" transform="translate(-.84 210.81) rotate(-80.89)"/></g><g class="cls-21"><ellipse class="cls-7" cx="87.87" cy="130.32" rx="9.47" ry="8.65" transform="translate(-54.72 196.44) rotate(-80.89)"/></g><g id="_3LoiC3" class="cls-19"><path class="cls-4" d="M114.05,69.24c-.06,4.71-1.03,9.01-2.52,13.22-3.65,10.25-9.18,19.46-15.48,28.25-2.49,3.47-5.13,6.83-7.75,10.2-1.28,1.65-2.17,1.64-3.46.02-7.42-9.28-14.34-18.9-19.52-29.64-2.54-5.27-4.71-10.67-5.76-16.47-2.72-14.94,6.48-29.08,21.4-32.24,9.81-2.08,18.39.78,25.42,7.92,5.15,5.23,7.59,11.65,7.69,18.74ZM86.5,83.88c7.36.05,13.3-5.81,13.35-13.17.05-7.4-5.78-13.29-13.17-13.33-7.51-.04-13.35,5.73-13.41,13.22-.05,7.32,5.84,13.24,13.23,13.29Z"/></g></svg>