<?xml version="1.0" encoding="UTF-8"?><svg id="Layer_1" xmlns="http://www.w3.org/2000/svg" xmlns:xlink="http://www.w3.org/1999/xlink" viewBox="0 0 384.8 403.8"><defs><style>.cls-1{fill:#f3e3e7;}.cls-1,.cls-2,.cls-3,.cls-4,.cls-5,.cls-6{stroke-width:0px;}.cls-2{fill:#603186;}.cls-7{isolation:isolate;}.cls-3{fill:none;}.cls-8{clip-path:url(#clippath-1);}.cls-4{fill:#f7f8f7;}.cls-9{clip-path:url(#clippath);}.cls-5{fill:#fff;}.cls-6{fill:#313332;}</style><clipPath id="clippath"><rect class="cls-3" y="18.5" width="384.8" height="384.8"/></clipPath><clipPath id="clippath-1"><rect class="cls-3" x="29.6" y=".5" width="141.4" height="36.3"/></clipPath></defs><g id="Group_310"><g id="Group_281"><g class="cls-9"><g id="Group_280"><path id="Path_359" class="cls-4" d="M352.7,403.3H32C14.3,403.3-.1,388.9-.1,371.2H-.1V50.5C-.1,32.8,14.3,18.4,32,18.4h320.7c17.7,0,32.1,14.4,32.1,32.1h0v320.7c0,17.8-14.3,32.1-32.1,32.1h0"/><path id="Path_360" class="cls-6" d="M281,281H107.1c-10.8,0-19.6-8.8-19.6-19.6v-107.7c0-10.8,8.8-19.6,19.6-19.6h173.9c10.8,0,19.6,8.8,19.6,19.6v107.7c-.1,10.9-8.8,19.6-19.6,19.6M107.1,143.8c-5.5,0-9.9,4.4-9.9,9.9v107.7c0,5.5,4.4,9.9,9.9,9.9h173.9c5.5,0,9.9-4.4,9.9-9.9v-107.7c0-5.5-4.4-9.9-9.9-9.9H107.1Z"/><path id="Path_361" class="cls-6" d="M194,235.6c-4.8,0-9.3-1.9-12.7-5.2l-85-82.9,6.8-6.9,85,82.9c3.3,3.2,8.6,3.2,11.9,0l85-82.9,6.8,6.9-85,82.9c-3.5,3.4-8,5.2-12.8,5.2"/><rect id="Rectangle_207" class="cls-6" x="257.27" y="187.65" width="9.7" height="94.1" transform="translate(-88.74 208.49) rotate(-37.57)"/><rect id="Rectangle_208" class="cls-6" x="79.62" y="230.95" width="91.7" height="9.7" transform="translate(-137.93 191.48) rotate(-52.43)"/><path id="Path_362" class="cls-2" d="M257.5,147.6c0,18.3,14.9,33.2,33.2,33.2s33.2-14.9,33.2-33.2-14.9-33.2-33.2-33.2h0c-18.3,0-33.2,14.9-33.2,33.2"/><path id="Path_363" class="cls-1" d="M288.5,164.9l-16-16.3c-.2-3.9,3.3-4.9,5.1-3.1l10.4,10.6,20.3-24.8c1.6-2,5.2-1.3,5.4,2.6l-25.2,31Z"/></g></g></g><g id="Group_285"><g class="cls-8"><g id="Group_284"><path id="Path_384" class="cls-2" d="M152.8,36.8H47.8c-10,0-18.2-8.1-18.2-18.2S37.7.4,47.8.4h105c10,0,18.2,8.1,18.2,18.2s-8.2,18.2-18.2,18.2h0"/></g></g></g><g class="cls-7"><path class="cls-5" d="M76.8,21.1c0,1.4-.5,2.5-1.5,3.3s-2.4,1.2-4.3,1.2c-1.7,0-3.1-.3-4.4-.9v-3.1c.7.3,1.5.6,2.3.9s1.6.4,2.4.4,1.4-.2,1.7-.5c.3-.3.5-.7.5-1.2,0-.4-.1-.7-.4-1s-.6-.5-1.1-.8c-.5-.2-1-.5-1.6-.8-.4-.2-.8-.4-1.2-.6-.4-.2-.8-.5-1.2-.9-.4-.4-.7-.8-1-1.3-.2-.5-.4-1.1-.4-1.8,0-1.4.5-2.5,1.4-3.3,1-.8,2.3-1.2,3.9-1.2.8,0,1.6.1,2.3.3.7.2,1.5.5,2.3.8l-1.1,2.6c-.7-.3-1.4-.5-1.9-.7-.6-.2-1.2-.2-1.8-.2s-1.1.1-1.5.4c0,.4-.2.8-.2,1.2,0,.6.2,1,.7,1.3s1.2.7,2.2,1.2c.8.4,1.5.8,2.1,1.2.6.4,1,.9,1.3,1.5.4.5.5,1.2.5,2Z"/><path class="cls-5" d="M84.5,23.1c.4,0,.7,0,1.1-.1s.7-.2,1-.3v2.4c-.4.2-.8.3-1.3.4s-1.1.2-1.7.2c-.7,0-1.4-.1-1.9-.4s-1-.6-1.3-1.2-.5-1.4-.5-2.4v-5.8h-1.6v-1.4l1.7-1,.9-2.5h2.1v2.5h3.4v2.5h-3.4v5.8c0,.5.1.8.4,1,.3.2.7.3,1.1.3Z"/><path class="cls-5" d="M93.9,13.3c1.7,0,3,.5,3.9,1.4,1,.9,1.5,2.3,1.5,4v1.6h-7.7c0,.9.3,1.7.8,2.2s1.2.8,2.2.8c.8,0,1.5-.1,2.1-.2.6-.2,1.3-.4,2-.7v2.5c-.6.3-1.2.5-1.9.6-.6.1-1.4.2-2.4.2-1.2,0-2.3-.2-3.2-.7s-1.6-1.1-2.2-2c-.5-.9-.8-2-.8-3.4s.2-2.6.7-3.5,1.1-1.6,2-2.1,1.9-.7,3-.7ZM93.9,15.6c-.6,0-1.2.2-1.6.6s-.7,1-.7,1.9h4.6c0-.7-.2-1.3-.6-1.8-.3-.5-.9-.7-1.7-.7Z"/><path class="cls-5" d="M108.7,13.3c1.3,0,2.4.5,3.3,1.6.8,1,1.3,2.6,1.3,4.6,0,2.1-.4,3.6-1.3,4.7s-2,1.6-3.3,1.6c-.9,0-1.6-.2-2.1-.5s-.9-.7-1.3-1.1h-.2c.1.6.2,1.2.2,1.8v4.8h-3.3V13.5h2.7l.5,1.6h.2c.3-.5.8-.9,1.3-1.3.4-.4,1.1-.5,2-.5ZM107.6,15.9c-.9,0-1.5.3-1.8.8-.4.5-.5,1.3-.5,2.4v.4c0,1.2.2,2,.5,2.7.3.6,1,.9,1.9.9.7,0,1.3-.3,1.7-.9.4-.6.5-1.5.5-2.7-.1-2.4-.8-3.6-2.3-3.6Z"/><path class="cls-5" d="M131.8,25.5h-11v-2.3l3.9-4c.8-.8,1.4-1.5,1.9-2.1s.8-1,1.1-1.5c.2-.4.3-.9.3-1.4,0-.6-.2-1.1-.5-1.4-.3-.3-.8-.5-1.4-.5s-1.2.1-1.8.4c-.6.3-1.2.7-1.8,1.2l-1.8-2.1c.4-.4.9-.7,1.4-1.1.5-.3,1.1-.6,1.8-.8.7-.2,1.5-.3,2.4-.3,1,0,1.9.2,2.7.6.7.4,1.3.9,1.7,1.5s.6,1.4.6,2.2c0,.9-.2,1.7-.5,2.4s-.8,1.4-1.5,2.1-1.4,1.5-2.4,2.3l-2,1.9v.2h6.8v2.7h.1Z"/></g></g></svg>