<?xml version="1.0" encoding="UTF-8"?><svg id="Layer_1" xmlns="http://www.w3.org/2000/svg" xmlns:xlink="http://www.w3.org/1999/xlink" viewBox="0 0 384.8 403.8"><defs><style>.cls-1{fill:#603186;}.cls-1,.cls-2,.cls-3,.cls-4,.cls-5,.cls-6{stroke-width:0px;}.cls-7{isolation:isolate;}.cls-2{fill:none;}.cls-8{clip-path:url(#clippath-1);}.cls-3{fill:#f7f8f8;}.cls-9{clip-path:url(#clippath);}.cls-4{fill:#fff;}.cls-5{fill:#313133;}.cls-6{fill:#1a1818;}</style><clipPath id="clippath"><rect class="cls-2" y="18.5" width="384.8" height="384.8"/></clipPath><clipPath id="clippath-1"><rect class="cls-2" x="30.2" y=".5" width="141.4" height="36.3"/></clipPath></defs><g id="Group_283"><g class="cls-9"><g id="Group_282"><path id="Path_364" class="cls-3" d="M353,403.3H31.9c-17.6,0-31.8-14.3-31.8-31.8H.1V50.4C.1,32.8,14.4,18.6,31.9,18.6h321.1c17.6,0,31.8,14.3,31.8,31.8h0v321.1c0,17.6-14.2,31.8-31.8,31.8h0"/><path id="Path_365" class="cls-5" d="M274.7,273.7c-36.5,0-66.1-29.6-66.1-66.1s26.9-63.6,61.6-65.9c2.4-.2,4.7-.2,7.1-.1,30.9,1.4,56.8,23.9,62.4,54.3.7,3.9,1,7.8,1,11.7.1,36.5-29.5,66-66,66.1M274.7,151.2c-1.2,0-2.4,0-3.8.1-31.1,2.1-54.6,29-52.5,60.1s29,54.6,60.1,52.5c29.6-2,52.6-26.6,52.6-56.3,0-3.3-.3-6.7-.9-10-4.8-26-26.9-45.2-53.3-46.4-.7,0-1.4,0-2.2,0"/><path id="Path_366" class="cls-5" d="M250.3,221.1c3.9,0,3.9-6,0-6s-3.9,6,0,6"/><path id="Path_367" class="cls-5" d="M296.9,222.3c3.9,0,3.9-6,0-6-3.9-.1-3.9,6,0,6"/><path id="Path_368" class="cls-5" d="M272.7,249.9c-8.4,0-16.2-4.6-20.2-11.9-.6-1.2-.2-2.6.9-3.3,1.2-.6,2.6-.2,3.3.9h0c4.9,8.8,16,12.1,24.9,7.2,3.2-1.7,5.7-4.4,7.4-7.6.6-1.2,2.1-1.7,3.2-1.1,1.2.6,1.7,2.1,1.1,3.2v.1c-4,7.7-11.9,12.5-20.6,12.5"/><path id="Path_369" class="cls-5" d="M277.2,146.4c-.1,0-.1.1,0,0l-6.6.1c-28.6,1.9-52,23.4-56.4,51.6,16,13.9,40.3,12.3,54.2-3.8,2.1-2.5,3.9-5.2,5.4-8.1,9.5,19,32.6,26.7,51.6,17.2,3.5-1.8,6.7-4,9.6-6.8-5.1-28.1-29.1-49-57.8-50.2"/><path id="Path_370" class="cls-5" d="M305.1,162.1c0,7.3,5.9,13.2,13.2,13.2s13.2-5.9,13.2-13.2-5.9-13.2-13.2-13.2-13.2,5.9-13.2,13.2"/><path id="Path_371" class="cls-5" d="M214.2,162.1c0,7.3,5.9,13.2,13.2,13.2s13.2-5.9,13.2-13.2-5.9-13.2-13.2-13.2-13.2,5.9-13.2,13.2"/><path id="Path_372" class="cls-5" d="M128.9,273.7c-36.5,0-66.1-29.6-66.1-66.1s26.9-63.6,61.6-65.9c2.4-.2,4.7-.2,7.1-.1,30.9,1.4,56.8,23.9,62.4,54.3.7,3.9,1,7.8,1,11.7.1,36.5-29.5,66-66,66.1M128.9,151.2c-1.2,0-2.4,0-3.8.1-31.1,2.1-54.6,29-52.5,60.1s29,54.6,60.1,52.5c29.6-2,52.6-26.6,52.6-56.3,0-3.3-.3-6.7-.9-10-4.8-26-26.9-45.2-53.3-46.4-.7,0-1.4,0-2.2,0"/><path id="Path_373" class="cls-5" d="M104.5,221.1c3.9,0,3.9-6,0-6s-3.9,6,0,6"/><path id="Path_374" class="cls-5" d="M151.1,222.3c3.9,0,3.9-6,0-6-3.9-.1-3.9,6,0,6"/><path id="Path_375" class="cls-5" d="M126.9,249.9c-8.4,0-16.2-4.6-20.2-11.9-.7-1.2-.3-2.6.9-3.3,1.2-.7,2.6-.3,3.3.9v.1c4.9,8.8,16,12.1,24.9,7.2,3.2-1.7,5.7-4.4,7.4-7.6.6-1.2,2.1-1.7,3.2-1.1,1.2.6,1.7,2.1,1.1,3.2v.1c-4,7.6-11.9,12.4-20.6,12.4"/><path id="Path_376" class="cls-5" d="M68.4,198.2c4.4-28.3,27.8-49.7,56.4-51.6,1.4-.1,2.7-.1,4.1-.1.8,0,1.6,0,2.4.1,29,1.1,55.9,22.7,57.8,53l-120.7-1.4Z"/><path id="Path_377" class="cls-1" d="M65.2,135.6c-1.3,0-2.4-1.1-2.4-2.4v-17.2c0-1.3,1.1-2.4,2.5-2.4,1.3,0,2.3,1.1,2.4,2.4v17.2c-.1,1.4-1.2,2.4-2.5,2.4"/><path id="Path_378" class="cls-1" d="M73.8,127h-17.2c-1.3,0-2.4-1-2.5-2.4,0-1.3,1-2.4,2.4-2.5h17.3c1.3,0,2.4,1.1,2.4,2.5,0,1.3-1.1,2.4-2.4,2.4"/><path id="Path_379" class="cls-1" d="M200.4,292.5c-1.3,0-2.4-1.1-2.4-2.4v-17.2c0-1.3,1-2.4,2.4-2.5,1.3,0,2.4,1,2.5,2.4v17.3c-.1,1.4-1.2,2.4-2.5,2.4"/><path id="Path_380" class="cls-1" d="M209,283.9h-17.2c-1.3,0-2.4-1-2.5-2.4,0-1.3,1-2.4,2.4-2.5h17.3c1.3,0,2.4,1,2.5,2.4,0,1.4-1.1,2.5-2.5,2.5.1,0,0,0,0,0"/><path id="Path_381" class="cls-5" d="M196.4,142.4c-2.9,0-5.2-2.3-5.2-5.2s2.3-5.2,5.2-5.2,5.2,2.3,5.2,5.2c0,2.9-2.3,5.2-5.2,5.2M196.4,134.4c-1.5,0-2.8,1.2-2.8,2.8,0,1.5,1.2,2.8,2.8,2.8s2.8-1.2,2.8-2.8c0-1.5-1.3-2.8-2.8-2.8"/><path id="Path_382" class="cls-5" d="M60.6,273c-2.9,0-5.2-2.3-5.2-5.2s2.3-5.2,5.2-5.2,5.2,2.3,5.2,5.2c-.1,2.9-2.4,5.2-5.2,5.2M60.6,265.1c-1.5,0-2.8,1.2-2.8,2.8,0,1.5,1.2,2.8,2.8,2.8,1.5,0,2.8-1.2,2.8-2.8-.1-1.6-1.3-2.8-2.8-2.8"/><path id="Path_383" class="cls-6" d="M43.1,141.2c0,2.2,1.8,4,4,4s4-1.8,4-4-1.8-4-4-4-4,1.8-4,4h0"/></g></g></g><g id="Group_285"><g class="cls-8"><g id="Group_284"><path id="Path_384" class="cls-1" d="M153.4,36.8H48.4c-10,0-18.2-8.1-18.2-18.2S38.3.4,48.4.4h105c10,0,18.2,8.1,18.2,18.2s-8.2,18.2-18.2,18.2h0"/></g></g></g><g class="cls-7"><path class="cls-4" d="M77.4,21.1c0,1.4-.5,2.5-1.5,3.3s-2.4,1.2-4.3,1.2c-1.7,0-3.1-.3-4.4-.9v-3.1c.7.3,1.5.6,2.3.9s1.6.4,2.4.4,1.4-.2,1.7-.5c.3-.3.5-.7.5-1.2,0-.4-.1-.7-.4-1s-.6-.5-1.1-.8c-.5-.2-1-.5-1.6-.8-.4-.2-.8-.4-1.2-.6-.4-.2-.8-.5-1.2-.9-.4-.4-.7-.8-1-1.3-.2-.5-.4-1.1-.4-1.8,0-1.4.5-2.5,1.4-3.3,1-.8,2.3-1.2,3.9-1.2.8,0,1.6.1,2.3.3.7.2,1.5.5,2.3.8l-1.1,2.6c-.7-.3-1.4-.5-1.9-.7-.6-.2-1.2-.2-1.8-.2s-1.1.1-1.5.4c-.3.3-.5.7-.5,1.1,0,.6.2,1,.7,1.3s1.2.7,2.2,1.2c.8.4,1.5.8,2.1,1.2.6.4,1,.9,1.3,1.5.7.6.8,1.3.8,2.1Z"/><path class="cls-4" d="M85.1,23.1c.4,0,.7,0,1.1-.1s.7-.2,1-.3v2.4c-.4.2-.8.3-1.3.4s-1.1.2-1.7.2c-.7,0-1.4-.1-1.9-.4s-1-.6-1.3-1.2-.5-1.4-.5-2.4v-5.8h-1.6v-1.4l1.8-1.1.9-2.5h2.1v2.6h3.3v2.5h-3.4v5.8c0,.5.1.8.4,1s.6.3,1.1.3Z"/><path class="cls-4" d="M94.5,13.3c1.7,0,3,.5,3.9,1.4,1,.9,1.5,2.3,1.5,4v1.6h-7.7c0,.9.3,1.7.8,2.2s1.2.8,2.2.8c.8,0,1.5-.1,2.1-.2.6-.2,1.3-.4,2-.7v2.5c-.6.3-1.2.5-1.9.6-.6.1-1.4.2-2.4.2-1.2,0-2.3-.2-3.2-.7s-1.6-1.1-2.2-2c-.5-.9-.8-2-.8-3.4s.2-2.6.7-3.5,1.1-1.6,2-2.1,1.9-.7,3-.7ZM94.5,15.6c-.6,0-1.2.2-1.6.6s-.7,1-.7,1.9h4.6c0-.7-.2-1.3-.6-1.8-.3-.5-.9-.7-1.7-.7Z"/><path class="cls-4" d="M109.2,13.3c1.3,0,2.4.5,3.3,1.6.8,1,1.3,2.6,1.3,4.6,0,2.1-.4,3.6-1.3,4.7s-2,1.6-3.3,1.6c-.9,0-1.6-.2-2.1-.5s-.9-.7-1.3-1.1h-.2c.1.6.2,1.2.2,1.8v4.8h-3.3V13.5h2.7l.5,1.6h.2c.3-.5.8-.9,1.3-1.3.5-.4,1.2-.5,2-.5ZM108.2,15.9c-.9,0-1.5.3-1.8.8-.4.5-.5,1.3-.5,2.4v.4c0,1.2.2,2,.5,2.7.3.6,1,.9,1.9.9.7,0,1.3-.3,1.7-.9.4-.6.5-1.5.5-2.7-.1-2.4-.8-3.6-2.3-3.6Z"/><path class="cls-4" d="M131.7,13.3c0,1.1-.3,2-1,2.6-.7.6-1.5,1.1-2.4,1.3v.1c1.2.2,2.2.5,2.9,1.2.7.6,1,1.4,1,2.5,0,.9-.2,1.7-.7,2.5-.4.7-1.1,1.3-2.1,1.7-.9.4-2.1.6-3.6.6-1.7,0-3.2-.3-4.5-.9v-2.8c.7.3,1.4.6,2.1.8.7.2,1.4.3,2.1.3,1.2,0,2-.2,2.5-.6.5-.4.7-1,.7-1.7,0-.4-.1-.8-.3-1.1-.2-.3-.6-.5-1.2-.7s-1.3-.2-2.3-.2h-1.2v-2.6h1.2c1,0,1.7-.1,2.2-.3.5-.2.9-.4,1-.7.2-.3.3-.7.3-1.1,0-.6-.2-1-.5-1.3s-.9-.5-1.7-.5c-.7,0-1.4.1-2,.4-.6.3-1,.5-1.4.7l-1.5-2.3c.6-.4,1.3-.8,2.2-1.1.8-.3,1.8-.4,3-.4,1.6,0,2.9.3,3.8,1,1,.5,1.4,1.4,1.4,2.6Z"/></g></svg>