<?xml version="1.0" encoding="UTF-8"?>
<svg id="Layer_1" xmlns="http://www.w3.org/2000/svg" version="1.1" viewBox="0 0 702.3 493">
  <!-- Generator: Adobe Illustrator 30.0.0, SVG Export Plug-In . SVG Version: 2.1.1 Build 123)  -->
  <defs>
    <style>
      .st0 {
        fill: #fad98f;
      }

      .st1 {
        fill: #ecc9c6;
      }

      .st2 {
        fill: #fff;
      }

      .st3 {
        fill: #774b9d;
      }
    </style>
  </defs>
  <path class="st1" d="M64.9,66.9c-.3,0-.6,0-1,0-2.6-.5-3.8-2.7-4.2-3.5-2.6-5-2.2-11.3-1.9-15.9,0-.8,0-1.5.1-2.2,0-.8.5-1.5,1.2-1.9.5-.2,1.1-.4,1.9,0,5.2-.2,14.3,2.3,19.6,4.9.9.4,1.4,1.5,1.1,2.5-1.7,5.5-6.3,10.9-12.5,14.7-1.1.7-2.6,1.5-4.4,1.5h0ZM62.1,47.6h0c-.3,4.3-.7,9.7,1.4,13.7.6,1.1,1,1.3,1.3,1.4.8.1,1.9-.6,2.3-.8,4.6-2.8,8.1-6.6,9.9-10.5-4.8-2-11.2-3.6-15-3.7h0ZM60.1,45.2h0ZM60.5,43.3h0Z"/>
  <path class="st0" d="M567.2,467c-7.2-1.5-11.1-6.1-11.3-13.9-.2-6.6-.1-13.2-.2-19.7-2-.8-2.5.6-3.1,1.4-24.2,31.8-71.8,30.5-92.6-4.6-3.7-6.2-3.8-6.1-7.8-.1-19.4,29.1-57,35.7-83.6,14.7-1-.8-2-1.6-3-2.5-2-1.7-3.1-1.5-3.2,1.4,0,3.4,0,6.9-.5,10.3-.8,5.7-4.2,9.3-9.6,9.6-10.3.6-20.5,1.2-30.8,1.3-8.1.1-11.4-3-12.3-11.1-.7-6.1-.9-12.3-1.5-18.4-.2-1.6.3-4.3-2.2-4.1-2.4.2-1.3,2.7-1.3,4.1-.2,6,0,12.1-.2,18.1-.5,8.5-3.7,11.8-12.3,12.3-8.8.5-17.6.9-26.4,1.1-8.7.2-12.2-2.8-13.2-11.3-.4-3.5-1-4.4-4.7-2.4-22,11.9-50.8,6.7-66.6-11.8-3.7-4.4-3.7-4.3-6.3.6-4.8,9-11.4,15.4-19.3,19.5-.5-6.7.1-13.7.7-20.3,1.1-21.4,15-34.1,37.2-34.1s1.4,0,2.1,0c11.1,0,22.3-.1,33.5-.3h6.6c0,0,26.3,0,26.3,0,25.4,0,50.9.1,76.3.1s58.3-.1,83.4-.3h12.6c21.4,0,45,0,72,.3,3.4,0,6.8,0,10.2,0,3.8,0,7.5,0,11.3,0h4.5c7.2,0,22.2.1,30.6,10.7,7,8.9,6.8,20,6.6,28.2,0,1.2,0,2.3,0,3.4,0,4.7-.1,11.3-1.6,17.9h0Z"/>
  <path class="st2" d="M702,376.7c-.7-14.2-9.4-23.2-23.6-24.6-6-.6-12-1-18-.9-4.3,0-5.5-1.4-5.5-5.6.2-36.1,0-72.3.2-108.4,0-5.4-.2-10.8-2.4-15.7-1.1-2.6-.6-4.6.9-6.8,3.3-4.8,6.7-9.5,9.7-14.4,12.1-20.1,15.5-42.1,16.7-64.7,0-.6,0-1.3,0-1.9,1.3-13.4-.2-25.8-11.7-34.5-1.5-1.1-1.5-2.7-1.1-4.4,3.8-18.7-.9-35.5-10.3-51.1-21.7-36.2-64.9-46.7-102.5-24.9-3.1,1.8-5,1.6-7-1.1-5.8-7.8-13.8-10.9-23.6-10.8-10.9.2-21.8.8-32.8,2-7.4.8-14.1,3.6-18.9,9.7-2.5,3.2-3.8,2.3-5.6-.3-4.7-6.5-11.2-10-19.3-10.5-9.8-.6-19.5.4-29.3,1.6-2.8.3-5.1,0-7.3-1.7-4.4-3.2-9.6-4.6-15.1-4.6-8.5-.1-16.9-.2-25.4,0-12.9.1-23.3,5-29.3,17.4-1.2,2.6-2.4,2.2-4.5,1.1-10.3-5.7-20.9-10.7-32.6-13.2-19.8-4.3-39.9-4.4-60.2-2-6.9.8-13.2,3-18.4,7.7-2.6,2.4-4.9,2.3-7.9,1-11.6-5.1-23.7-9.5-36.6-10.5-18-1.4-36.2-2-53.9,3.5-5.7,1.8-9.8,1.6-14.9-1C70.8-13.2,20.5,12,11.3,57.4c-4.9,24.5-.1,46.9,13.5,67.2,2.1,3.1,6.6,6.1,5.2,9.6-1.5,3.5-6.9,4.1-10.7,5.4C1.2,145.7-2.5,164.4,1.4,176.8c3.2,10,7.6,19.4,13.3,28.3,5.1,8,11.9,14.6,18.2,21.6,2.5,2.7,2,4.8.4,7.7-13.3,23-14.3,46.8-5.9,70.8,3.6,10.3,10,19,16.1,27.8,1.8,2.5,1.6,3.8-1.3,5.2-3.4,1.6-6.6,3.9-10.1,5.4-17.1,7.3-19.9,25.2-15.6,38,5.5,16.1,14.4,30.2,26.8,41.7,11.7,10.8,23,21.9,34.1,33.1,6.7,6.7,13.4,13.3,22.1,17.5,15.1,7.3,36.3,7.9,53.8,1.2,2.2-.8,4.6.1,5.6,2.2s2.4,4,4,5.8c5.8,6.3,14.4,9.6,25.5,9.6h.3c11,.3,22.1.3,30.5.3s20.4,0,24.4,0c6.1,0,12.3,0,18.6.1h8.5c23.3,0,46.7,0,70,0,23.3,0,46.6,0,70,0s40.7,0,61.1,0h.6c4-.2,8.3-.3,13.4-.3s9,0,13.5.1c4.6,0,9.2.1,13.8.1,8.2,0,19-.2,30.1-1.6h.7c0-.1,1-.4,1-.4,6.9-1.6,11.8-4.9,15.2-9,1.8-2.1,4.6-3,7.4-2.7h0c4.5.5,9.1.6,13.6.5,18.3-.5,36.5-1.5,54.8-1.4,11.8.1,20.8-4,28.5-13,9-10.4,18.3-20.5,27.6-30.7,5.3-5.7,8.3-12.4,8.9-20,1-12.7,1.5-25.4.9-38.1h0ZM683.4,426.8c-10.7,11.8-21.4,23.6-32,35.4-2.5,2.8-5.5,4.1-9.2,4.1-22,.5-44.1.9-66,1.4-2.5,0-4.9-.1-7.3-.4-.6,0-1.1-.1-1.6-.3-7.2-1.5-11.1-6.1-11.3-13.9-.2-6.6-.1-13.2-.2-19.7-2-.8-2.5.6-3.1,1.4-24.2,31.8-71.8,30.5-92.6-4.6-3.7-6.2-3.8-6.1-7.8-.1-19.4,29.1-57,35.7-83.6,14.7-1-.8-2-1.6-3-2.5-2-1.7-3.1-1.5-3.2,1.4,0,3.4,0,6.9-.5,10.3-.8,5.7-4.2,9.3-9.6,9.6-10.3.6-20.5,1.2-30.8,1.3-8.1.1-11.4-3-12.3-11.1-.7-6.1-.9-12.3-1.5-18.4-.2-1.6.3-4.3-2.2-4.1-2.4.2-1.3,2.7-1.3,4.1-.2,6,0,12.1-.2,18.1-.5,8.5-3.7,11.8-12.3,12.3-8.8.5-17.6.9-26.4,1.1-8.7.2-12.2-2.8-13.2-11.3-.4-3.5-1-4.4-4.7-2.4-22,11.9-50.8,6.7-66.6-11.8-3.7-4.4-3.7-4.3-6.3.6-4.8,9-11.4,15.4-19.3,19.5-5.9,3.1-12.6,5-19.8,5.9-18.1,2.2-33.4-3-46-16.3-12.3-13-25.6-25.1-38.5-37.5-10.9-10.4-18-23.2-23.2-37.3-3.2-8.8,0-16.7,8.4-21.3,8.6-4.6,17.3-9.1,26.1-13.2,3.1-1.4,2.8-2.2,1-4.3-7.2-7.8-13.2-16.5-18.7-25.6-12.1-19.8-13.2-41.1-5.1-63.2,2.2-5.9,5.6-11.2,10.2-15.7,2.4-2.3,2.1-3.8,0-6-5.1-5.5-9.8-11.5-15-16.9-9.9-10.3-16.2-22.7-21-35.9-3.9-10.7-.6-18.4,10-23.4,7.5-3.5,15-6.8,22.6-10.1,5.4-2.4,5.4-2.3,1.8-6.5-8.8-10.3-16.4-21.4-21.6-34-9.9-24.1-4.2-53.6,13.7-71.2,20.6-20.2,53.4-22.3,76.6-4.5,2.9,2.2,4.6,3.1,7.1-.6,2.3-3.4,6-5.3,10-5.7,17.4-1.9,34.8-3.5,52.1-.6,13.2,2.1,25.1,7.1,36.2,14.1,1.3.9,2.7,1.7,4.1,2.5.4.2.9.2,1.4.3,4.1-12.7,6.9-14.7,20.3-16.2,14.2-1.6,28.3-2.3,42.4-.3,21.4,3,39.7,11.9,55.3,26.3,1.1,1,2.1,1.9,3.2,2.9,1.9-.8,1.2-2.3,1.2-3.4.2-3.9,0-7.8.4-11.8.9-9.6,6.6-15.6,16.2-16.1,9.9-.5,19.9-.3,29.8-.2,4.4,0,8.2,1.7,11.1,5,1.6,1.8,3.3,2,5.6,1.8,9.1-.8,18.2-1.4,27.4-2.3,9.7-.9,16.1,3.2,19.9,11.9,4.3,9.9,8.8,19.6,13.3,29.4.5,1.1.5,2.6,2.7,3.3.3-6.7.6-13,.8-19.4,0-2.1-.1-4.2,0-6.3.4-11.7,5.8-17.6,17.6-18.4,9.8-.6,19.6-1,29.4-1,11.1,0,17.4,6.1,18,17.1.1,2.6,0,5.2.1,7.6,1.8.7,2.4-.5,3.1-1.4,28.5-35.5,85.2-30.5,105.9,16,2.9,6.5,4.7,13.3,5.7,20.5,1.2,8.4-1.6,15-8.4,20.3-2.4,1.9-5.3,3.4-7.2,6.2,3.2,1.7,6.5.9,9.7,1,12,.4,17.7,6.2,17.5,18.3-.4,19.6-1.7,39.1-9.5,57.8-5,12-13,22.2-20.2,32.9-1.7,2.4-2.1,3.8.2,6.1,3.8,3.8,5.2,8.7,4.8,14.2-1,12.6-.8,25.1.1,37.6.4,5.4-.6,10.8-.6,16.1,0,23.6.2,47.2.1,70.8,0,3,1.5,3.3,4,3.3,8.8,0,17.6-.1,26.4.2,12.2.4,17.3,6.2,16.9,18.5-.3,9.1-.5,18.3-.7,27.4-.1,6.3-2.1,11.9-6.4,16.7h0Z"/>
  <path class="st3" d="M690.4,382.7c.4-12.3-4.7-18.2-16.9-18.5-8.8-.3-17.6-.2-26.4-.2-2.5,0-3.9-.3-4-3.3,0-23.6-.2-47.2-.1-70.8,0-5.4,1-10.8.6-16.1-.9-12.5-1.2-25-.1-37.6.5-5.6-1-10.5-4.8-14.2-2.3-2.3-1.8-3.7-.2-6.1,7.2-10.7,15.3-20.9,20.2-32.9,7.7-18.7,9.1-38.2,9.5-57.8.2-12-5.4-17.9-17.5-18.3-3.2,0-6.5.7-9.7-1,2-2.9,4.8-4.3,7.2-6.2,6.8-5.3,9.6-11.9,8.4-20.3-1-7.1-2.8-14-5.7-20.5-20.7-46.6-77.4-51.5-105.9-16-.7.8-1.3,2-3.1,1.4,0-2.5,0-5-.1-7.6-.6-11-6.9-17.2-18-17.1-9.8,0-19.6.4-29.4,1-11.8.8-17.2,6.7-17.6,18.4,0,2.1.2,4.2,0,6.3-.2,6.4-.5,12.8-.8,19.4-2.7-.8-2.1-2.9-3.1-3.9-4.7-4.6-8.7-9.9-9.6-16.5-2.5-17.1-9.7-25.4-23.2-24.2-9.1.9-18.2,1.5-27.4,2.3-2.3.2-4,0-5.6-1.8-2.9-3.3-6.7-5-11.1-5-10,0-19.9-.3-29.8.2-9.6.5-15.3,6.5-16.2,16.1-.4,3.9-.2,7.8-.4,11.8,0,1.1.6,2.6-1.2,3.4-1-1-2.1-1.9-3.2-2.9-15.6-14.4-33.9-23.3-55.3-26.3-14.1-1.9-28.2-1.2-42.4.3-13.3,1.5-16.1,3.5-20.3,16.2-.5,0-1,0-1.4-.3-1.4-.8-2.8-1.6-4.1-2.5-11.1-7.1-23-12-36.2-14.1-17.3-2.8-34.7-1.3-52.2.6-4.1.5-7.8,2.3-10,5.7-2.5,3.7-4.2,2.8-7.1.6-23.2-17.8-55.9-15.7-76.6,4.6-17.8,17.5-23.6,47-13.7,71.1,5.2,12.6,12.8,23.7,21.6,34,3.6,4.2,3.6,4.1-1.8,6.5-7.6,3.3-15.2,6.6-22.6,10.1-10.5,4.9-13.9,12.7-10,23.4,4.9,13.2,11.1,25.6,21,35.9,5.2,5.4,9.9,11.4,15,16.9,2.1,2.2,2.3,3.7,0,6-4.6,4.5-8,9.8-10.2,15.7-8,22.2-7,43.4,5.1,63.2,5.5,9,11.5,17.8,18.7,25.6,1.9,2,2.1,2.8-1,4.3-8.8,4.1-17.5,8.6-26.1,13.2-8.4,4.6-11.6,12.5-8.4,21.3,5.1,14,12.3,26.8,23.2,37.3,13,12.4,26.2,24.5,38.5,37.5,12.6,13.3,28,18.5,46,16.3,9.9-1.2,18.7-4.3,26.1-9.8,2.3-1.8,5.6-.4,5.8,2.5.8,11.9,5.5,20.7,22.4,20.5,24.4.6,48.9,0,73.4.4,69.9,0,139.7-.2,209.6,0,23.1-1,46.8,1.4,69.7-1.5h.5c7.9-2,11.3-7.7,12.8-14.6.4-2,2.8-2.8,4.2-1.5,2.2,2.1,5.2,3.5,9.1,4,2.4.3,4.9.5,7.3.4,22-.4,44-.9,66-1.4,3.6,0,6.7-1.4,9.2-4.1,10.7-11.8,21.4-23.5,32-35.4,4.3-4.8,6.2-10.4,6.4-16.7.2-9.1.3-18.3.7-27.4h0ZM531.4,116.8c1.7-17.4,4.2-34.8,13-50.7,7.9-14.3,17.8-26.6,34.1-31.4,16.5-4.8,31.6-2.4,44.7,8.7,11.7,10,18.8,22.5,20.7,38,.7,5.7,0,7.1-5.7,8.1-8.7,1.7-17.2,4.4-25.7,6.8-4,1.1-6.1.3-7.1-3.8-1-3.9-2.2-7.8-3.9-11.4-3.7-7.8-12.8-8.9-19.2-2.8-2.7,2.6-4.4,5.8-5.7,9.2-8.9,23.1-9.9,46.3-2.5,69.4.8,2.4,2,4.8,3.3,6.9,4.3,7.3,10.5,11.1,19.4,9.6,8.9-1.5,14-7.4,17-15.6.9-2.5,0-3.3-2.3-3.3-3.6,0-7.2,0-10.8,0,0,0,0,.1,0,.2-.8,0-1.6,0-2.4,0-8.1.4-12.2-3.4-12.2-11.4,0-6.2.7-12.4-.2-18.5-.5-3.3,1.2-4.9,4.5-4.9,20.2-.1,40.4-.8,60.6-.2,3,0,4.6,1.4,4.5,4.4-.5,17.1-1.4,34.2-7.3,50.7-4.2,11.9-10.7,22.5-21.2,29.9-25.3,18.1-59.9,12.4-77.6-13.3-15.3-22.2-20.8-47.6-18.1-74.8h0ZM414.2,34.5c8.8-.5,17.6-1,26.4-1.8,4-.3,6,1,7.6,4.8,12.9,28.8,26,57.4,39.1,86,.3.7.8,1.3,1.2,2,0-12.5,2.3-24.9,1.2-37.1-.9-10.6-.3-21.2,0-31.7.1-5.5.6-11.1-.1-16.6-.6-5.3.9-6.9,6.1-7.2,8.8-.4,17.6-.8,26.4-1,5.6-.2,7,1.5,6.9,7.3-.5,16.3-1.4,32.5-.5,48.8.5,10.5-.5,21.2-.8,31.7-.4,14.5,1.1,28.9-.9,43.4-.3,2.6-.6,5.3-.2,7.8,2.1,12.1-1.2,24.4-.4,36.6.4,6.1-1.3,7.5-7.4,7.9-8.3.5-16.6.7-25,1.2-3.6.2-5.7-1.1-7-4.5-8-21.6-18.9-41.9-28.8-62.6-3.1-6.6-5.5-13.6-9.5-20.1-2.2,1.7-1.4,3.8-1.3,5.5.8,25.8.7,51.7-.3,77.6-.2,6.5-1.1,7.3-7.5,7.6-8.2.4-16.3.6-24.5,1-4.6.2-6.6-1.8-6.2-6.4,1.1-13.3.5-26.7.7-40,.2-16.5-.3-33.1-.6-49.7,0-4.7-.3-9.4.3-14.1,1.6-12.7-1-25.2,0-38,.9-10.9.2-21.8.2-32.7,0-3.2,1.1-5.3,4.8-5.5h0ZM367.7,28.2c4.5,0,9.1,0,13.6.1v-.3c4.4,0,8.8.1,13.2.1,3.5,0,5.3,1.6,4.8,5-1,7.8-.9,15.6-.9,23.4,0,4.1-2.1,5.5-5.8,5.6-8.3.1-16.6.2-25,.4-3.3,0-4.7-1.6-4.7-4.8,0-8.1-.2-16.3-.3-24.4,0-3.4,1.5-5.2,5-5.2h0ZM360.3,79.3c.2-4.1,2.1-6.3,6.6-6.2,8.8.1,17.6.2,26.4-.7,5.4-.5,7.1,1.3,6.9,6.7-.3,7.8-1.1,15.6-.2,25.4-1.2,13.6.6,29.2-.9,44.8-.4,4.4-.1,8.8.2,13.1.5,5.9.5,11.7-.4,17.6-1.4,8.8.4,17.6-.3,26.3-.5,7-1,7.5-7.8,7.7-8.9.3-17.9.6-26.9,1.1-3.9.2-5.6-1.1-5.6-5.2.2-18.7.6-37.4.3-56.1-.2-14.8,1.7-29.6.7-44.4-.7-9.9.7-20.1,1.2-30.2h0ZM137.9,30.7c5.2-.4,10.4-.9,15.6-1.5,15.9-1.8,31.3.2,46,5.5,19,6.9,32.2,20,39.2,39.1.3.7.6,1.5.9,2.2.1.3.5.4,1.2.9,1.1-6.4,1.5-12.4.4-18.5-1.4-7.5,0-15.3-.8-22.9-.3-2.6,1.6-3.8,4-4.1,19.9-2.8,39.7-3.7,58.9,2.8,17.3,5.9,32.2,15.4,42.7,30.5,8.2,11.8,10.2,25.3,8.7,39.8-2,20.3-11.5,36.4-27.1,49.5-3.1,2.6-2.9,4.6-1.2,7.7,6.7,13,11.8,26.7,19.1,39.4,1.5,2.5.1,4.4-2.2,5.7-7.8,4.1-15.5,8.1-23.3,12.1-3.2,1.6-5.4,1-6.7-2.7-4.8-13-9.8-25.9-14.8-38.8-.9-2.3-1.2-5.9-4.1-6-4,0-7.9,1.7-11.6,3.6-.8.4-.8,1.4-.6,2.2,1.8,11.8.2,24,2.4,35.9.8,4.1-.4,6.1-5.2,6.6-9.1,1.2-18.3,0-27.3,2-3.1.6-5.2-1-4.8-4.3,1.1-10.5-.4-20.9-1.1-31.1-.8-11.5-.4-23-1.4-34.5-.9-10.5-.2-21.1-1-31.7-.3-4.1-.1-8.3-1.1-12.9-1.8,1-1.9,2.1-2,3-2.9,22.9-17.5,37.3-36.5,48.3-8.2,4.8-17.1,7.9-26.4,9.1-3.9.5-5.1,2.2-5.2,6.1-.3,12.4,0,24.7.8,37.1.3,4.3-1.1,6.4-5.6,6.6-8.8.5-17.6,1.3-26.4,1.9-3.3.2-4.9-1.5-4.8-4.6.9-16.2-1.4-32.1-1.7-48.2-.4-19.8-.9-39.6-1-59.5,0-12.4-1.2-24.6-.7-37.1.5-10.7-.4-21.4-.9-32.1-.3-5.6.5-6.8,5.9-7.2h0ZM42.7,200.2c-8.3-9.2-13.7-20.1-18-31.6-1.1-2.9-.1-4.6,2.6-5.8,8.4-3.8,17-7,25.2-11.4,3-1.6,5.3-.7,6.7,2.4,1.7,3.8,3.6,7.5,5.5,11.2,2,3.9,4.5,7.4,8.3,9.8,6.6,3.9,12.6.7,13.3-6.9.4-4.2-.7-8-3-11.4-7.9-11.8-17.5-22.1-27-32.4-7.3-7.9-12.9-17.2-17.5-26.9-8.9-19-5.7-52.4,19.8-66.4,7.2-3.9,14.7-5.6,22.7-5.3,17.3-.3,29.4,8.2,38.2,22,3.1,4.9,5.7,10,7.6,15.6,1.1,3.4.5,5.9-3.1,7.6-7.8,3.7-15.4,7.6-23.1,11.4-3.1,1.5-5.4.9-6.8-2.2-.9-2.1-1.8-4.1-2.6-6.2-1.4-3.4-3.2-6.7-6-9.2-2.8-2.6-6-3.2-9.5-1.8-3.3,1.2-4.6,4.2-5,7.4-.9,6.8,1,12.8,4.7,18.4,7.5,11.5,17.5,20.8,26.5,31,8,9,15.6,18.3,20.6,29.4,10,22.4-.7,51.8-22.8,62.2-18.2,8.6-44.1,3.7-57.2-10.8h0ZM669.9,415.8c-18.9-1.3-37.8,1.2-56.7,1-4.9,0-9.8,0-14.7,0s-5.1-1.5-4.9-5.1c.8-14-.8-27.9,0-42,.7-12-.6-24-1.3-36.2-.5,3.2-.9,6.4-1.5,9.5-3.3,18.4-11.2,34.5-26,46.5-27.5,22.2-57.4,16.8-77.6-8.6-5.8-7.2-9.2-15.8-11.5-24.7-.4-1.3-.2-3.4-2-3.5-1.9,0-1.8,2.1-2.2,3.4-5.7,17.2-15.8,30.7-32.1,39.4-19.5,10.5-37.7,8.8-55-3.7-13.4-9.7-20.8-23.1-25-38.9-.5-2-.4-4.2-1.9-5.9-1.8.8-1.1,2.2-1.1,3.4,0,18.1.2,36.1.3,54.2,0,6.2-1.3,7.6-7.5,7.5-8.1-.2-16.3.6-24.4,1-4.5.3-6.1-1.5-6-5.9.3-16.6.4-33.2.6-49.8.1-6.3.2-6.3-6.1-5.9-7.7.5-15.3,1.2-23,1.5-3.3.1-4.3,1.7-4.2,4.6.1,9.4-.2,18.9.5,28.3.6,7.3,0,14.7.3,22,.1,4.5-1.9,6.6-6.5,6.6-8.5.1-17,.4-25.4.8-4,.2-5.8-1.6-5.4-5.5,1.4-12.2-.9-24.4.5-36.6.2-1.2.7-3-.8-3.5-2-.7-2.4,1.4-2.9,2.6-6,16.6-19.7,24.8-34.6,31.4-6.9,3-14.3,3-21.3,1.9-13.4-2.1-25.5-6.9-34.3-17.8-5.6-6.9-11.1-13.6-13.7-22.4-.2-.9-.5-1.9-2.7-1.9-.1,5.8-.3,11.5-1.8,17-5.1,19.2-21.5,33.3-41.1,34.8-19,1.5-34.5-4.7-45.3-20.3-5-7.1-9-14.8-12.3-22.9-1.3-3.2-.5-5.1,2.6-6.7,7.5-3.9,14.9-8,22.4-11.8,4.7-2.4,6.7-1.6,8.8,3,2.2,4.8,4.7,9.5,8,13.7,1.7,2.2,3.6,4.1,6.1,5.3,6,2.9,11.3,0,12.2-6.6.6-4.2.2-8.2-2.5-11.5-7-8.7-13.1-18.2-21.4-25.9-9.9-9.3-17.6-20.4-23.5-32.6-7.2-14.8-6.9-30.7-.9-46.1,10-25.7,41.2-35.9,64.2-21.9,12.1,7.4,19.3,18.3,24.6,31,1.2,2.7.7,5.3-2,6.8-8.2,4.7-16.4,9.2-24.8,13.6-3.2,1.7-5.2-.1-6.4-3-2.1-4.9-4-9.8-7.8-13.7-2.9-3-6.1-5-10.4-3.3-4.5,1.7-5.6,5.8-5.7,10.1-.2,4.4,1.1,8.3,3.3,12,4.5,7.5,9.7,14.3,15.8,20.5,9.9,10.2,19.3,21,27.9,32.3,2.1,2.7,3.7,5.7,5.7,9,1.5-2,.7-3.6.7-5.1-.9-27.6,1.1-54.7,15.8-79.9,8.6-14.6,21.3-24.6,37.3-27.3,22.3-3.7,43,7.8,46.7,32.3,1.3,8.7,2.1,17.3,2.1,26.1,0,5.6-1.2,6.5-6.9,7.2-8.5,1-16.9-.6-25.4.9-3.9.7-5.6-1.8-5.4-5.6.2-3.6.4-7.2-.1-10.7-.4-3.1-1.2-6.3-4.6-7.4-3.6-1.2-6.4,1.2-8.5,3.8-4.8,5.9-7.1,13-9.4,20-4,11.8-4.6,23.8-3.6,35.8.5,6.3,3.1,12.4,4.9,18.6.3,1,1.2,1.9,1.9,2.7,8.2,8.4,27.1,5.2,32.3-5.6,2.1-4.5,3.8-9.1,5.4-13.8,1.6-4.7,3.7-6.1,7.9-4.1,5.1,2.5,10.6,3.8,16,5.5,5.5,1.7,7,.9,6.5-5.1-.9-10.7.1-21.5-.2-32.2-.5-16.2.1-32.5.2-48.8,0-5.7-.1-11.4-.3-17.1,0-3.4,1.1-6.1,4.9-5.9,8.8.5,17.6-1.4,26.4-1.2,4,0,5.8,1.7,5.4,5.5-1.7,16.5,1.6,32.8-.2,49.3-.9,8,1.1,15.9.2,23.9-.2,2.1,1,3,2.9,2.9,9.8-.2,19.5-.5,29.3-.7,1.7,0,2.3-1,2.4-2.5,0-2.3.4-4.6.3-6.8-.9-20.6.2-41.3-.1-61.9,0-7.2,1.3-8.5,8.6-8.7,7-.2,14-.2,21-1.1,5.9-.8,8.1,1.1,7.6,7.4-1.8,20.1.5,40-.8,60,0,.6.1,1.2.2,2.3,2-1.2,1.7-2.9,2-4.3,2.8-11.3,5.9-22.6,12.5-32.6,15-23,44.2-32.9,66.1-22,15.5,7.7,27.2,19.1,32.9,35.9,1.5,4.4,3,8.8,4.6,13.4,2.4-2.1,2.4-4.8,3.1-7,6.3-20.2,17.8-35.7,38.5-43,14.2-5,27.4-3,40.3,3.9,20.5,11.1,29.4,29.4,33.7,51.2.2,1.2.5,2.5.7,3.7,1.9,0,1.5-1.4,1.5-2.1,0-9.1.3-18.3-.3-27.3-.7-10.9.8-21.8.4-32.7-.1-3.6,2.2-5.3,5.3-5.2,8.7.2,17.2-1.7,25.8-1.7,5.2,0,6.6,1.1,6.3,6.1-1.6,24.1.5,48.1-.5,72.3-.8,20.6.5,41.3.6,61.9,0,4.9,1.8,6.2,6.5,6.4,11.7.5,23.5-.7,35.2.5,5.9.6,7,1.2,6,7.2-1.4,8.2-.5,16.3-.5,24.4,0,6.7-1.2,8-7.7,7.5h0ZM476.6,65.3l-16.3-33.1-2.8,6.6,17.6,28.8,1.4-2.3h0Z"/>
  <path class="st2" d="M669.9,415.9c-18.9-1.3-37.8,1.2-56.7,1-4.9,0-9.8,0-14.7,0-3.4,0-5.1-1.5-4.9-5.1.8-14-.8-27.9,0-42,.7-12-.6-24-1.3-36.1-.5,3.2-.9,6.4-1.5,9.5-3.3,18.4-11.2,34.5-26.1,46.5-27.5,22.2-57.4,16.8-77.6-8.6-5.8-7.3-9.2-15.8-11.5-24.8-.3-1.3-.2-3.4-2-3.5-1.8,0-1.8,2.1-2.2,3.4-5.6,17.1-15.8,30.7-32,39.4-19.5,10.5-37.7,8.8-55-3.7-13.4-9.7-20.8-23.1-25-38.9-.5-2-.4-4.2-1.9-5.9-1.8.8-1.1,2.2-1.1,3.4,0,18.1.2,36.1.3,54.2,0,6.2-1.3,7.6-7.5,7.5-8.2-.2-16.3.6-24.5,1-4.5.2-6.1-1.5-6-5.9.3-16.6.4-33.2.6-49.8,0-6.3.2-6.3-6.2-5.9-7.6.5-15.3,1.2-23,1.5-3.3.1-4.3,1.7-4.2,4.6.2,9.4-.2,18.9.5,28.3.6,7.3,0,14.6.2,22,.2,4.5-1.9,6.6-6.5,6.6-8.5.1-17,.4-25.4.7-4,.2-5.8-1.5-5.4-5.4,1.4-12.2-.9-24.4.5-36.6.1-1.2.7-3-.8-3.5-2-.7-2.4,1.4-2.9,2.7-6,16.6-19.7,24.8-34.6,31.4-6.8,3-14.2,3-21.2,1.9-13.3-2.1-25.5-6.9-34.3-17.8-5.6-6.9-11.1-13.6-13.7-22.4-.2-.8-.5-2-2.7-1.9-.1,5.8-.3,11.5-1.8,17-5.1,19.2-21.5,33.3-41.1,34.8-18.9,1.5-34.4-4.6-45.3-20.3-5-7.1-9-14.7-12.3-22.8-1.3-3.2-.5-5.2,2.6-6.8,7.5-3.9,14.9-8,22.4-11.8,4.7-2.4,6.7-1.6,8.8,3,2.3,4.8,4.7,9.5,8,13.7,1.7,2.2,3.6,4.1,6.1,5.3,6,3,11.2,0,12.2-6.6.6-4.2.2-8.2-2.5-11.5-7-8.7-13.1-18.2-21.3-25.9-9.9-9.3-17.6-20.4-23.5-32.6-7.2-14.8-6.9-30.7-.9-46.1,10-25.7,41.2-35.9,64.2-22,12.2,7.4,19.4,18.4,24.7,31,1.1,2.7.7,5.3-2,6.9-8.2,4.6-16.4,9.2-24.8,13.6-3.2,1.7-5.2-.1-6.5-3-2.1-4.9-4-9.8-7.8-13.7-2.9-3-6.1-5-10.4-3.3-4.6,1.7-5.5,5.8-5.7,10.1-.2,4.4,1.1,8.3,3.3,12,4.5,7.5,9.7,14.3,15.8,20.5,9.9,10.2,19.3,21,27.9,32.3,2.1,2.7,3.7,5.7,5.7,9,1.5-2,.7-3.6.6-5.1-.9-27.6,1.1-54.8,15.8-79.9,8.6-14.6,21.3-24.6,37.2-27.3,22.3-3.7,43,7.8,46.7,32.3,1.3,8.7,2.1,17.3,2.1,26.1,0,5.6-1.2,6.5-6.8,7.2-8.5,1-16.9-.6-25.4.9-3.9.7-5.6-1.8-5.4-5.6.2-3.6.4-7.1-.1-10.7-.4-3.1-1.2-6.3-4.5-7.4-3.7-1.2-6.4,1.1-8.5,3.8-4.8,5.9-7,13-9.4,20-4,11.8-4.6,23.8-3.6,35.8.5,6.3,3.1,12.4,4.9,18.6.3,1,1.2,1.9,1.9,2.7,8.2,8.4,27.1,5.2,32.3-5.6,2.1-4.5,3.8-9.1,5.4-13.8,1.6-4.7,3.7-6.1,7.9-4.1,5.1,2.5,10.6,3.8,16,5.5,5.5,1.7,7,.9,6.5-5.1-.9-10.7.1-21.5-.2-32.2-.5-16.2,0-32.5.1-48.8,0-5.7-.1-11.4-.2-17.1,0-3.4,1.1-6.1,4.9-5.9,8.8.6,17.6-1.3,26.4-1.2,4,0,5.8,1.7,5.4,5.5-1.7,16.5,1.6,32.8-.2,49.3-.8,8,1.1,15.9.3,23.9-.2,2.1,1,3,2.9,3,9.8-.2,19.6-.5,29.3-.7,1.7,0,2.3-1,2.4-2.5,0-2.3.4-4.6.3-6.9-.9-20.6.2-41.3-.1-61.9-.1-7.3,1.4-8.5,8.6-8.7,7-.2,14-.2,21-1.1,5.9-.8,8.1,1.1,7.5,7.4-1.8,20,.5,40-.8,60,0,.6.1,1.2.2,2.3,2-1.2,1.6-2.9,2-4.3,2.8-11.3,6-22.6,12.5-32.6,15-23,44.2-32.9,66-22,15.5,7.7,27.2,19.2,32.9,35.9,1.5,4.4,3,8.8,4.6,13.4,2.4-2.2,2.3-4.8,3-7,6.3-20.1,17.8-35.7,38.5-43,14.2-5,27.4-3,40.3,3.9,20.5,11.1,29.5,29.4,33.6,51.2.2,1.2.5,2.5.7,3.7,1.9,0,1.5-1.4,1.4-2.1,0-9.1.3-18.3-.3-27.3-.7-10.9.8-21.8.4-32.7-.1-3.6,2.2-5.3,5.2-5.2,8.7.2,17.2-1.7,25.9-1.7,5.2,0,6.6,1.1,6.3,6.2-1.6,24.1.5,48.1-.4,72.2-.8,20.6.5,41.3.6,62,0,4.9,1.8,6.2,6.5,6.4,11.7.5,23.5-.7,35.1.5,5.9.6,7,1.2,6,7.2-1.3,8.2-.5,16.3-.5,24.4,0,6.7-1.2,8-7.7,7.5h0Z"/>
  <path class="st2" d="M242.6,107.3c-1.8,1-1.9,2.1-2,3-2.9,22.9-17.6,37.3-36.5,48.3-8.2,4.8-17.1,7.9-26.5,9.1-3.9.5-5.1,2.2-5.2,6.1-.3,12.4,0,24.8.8,37.1.3,4.3-1.1,6.4-5.6,6.7-8.8.5-17.6,1.3-26.4,1.9-3.3.2-4.9-1.5-4.8-4.6.9-16.2-1.4-32.1-1.7-48.2-.5-19.8-.9-39.6-1-59.5,0-12.3-1.2-24.6-.7-37,.5-10.7-.4-21.4-1-32.1-.3-5.6.5-6.8,5.9-7.2,5.2-.4,10.4-.9,15.6-1.5,15.9-1.8,31.3.2,46,5.5,19.1,6.9,32.2,20,39.2,39.1.3.8.6,1.5.9,2.2.1.2.5.4,1.2.9,1.1-6.4,1.5-12.4.4-18.5-1.4-7.5,0-15.3-.8-22.9-.3-2.5,1.6-3.8,4-4.1,19.9-2.9,39.7-3.7,58.9,2.8,17.3,5.9,32.2,15.4,42.7,30.5,8.2,11.8,10.2,25.3,8.7,39.9-2.1,20.3-11.5,36.4-27.1,49.4-3.1,2.6-2.9,4.6-1.2,7.7,6.7,13,11.8,26.7,19.1,39.4,1.4,2.5.1,4.4-2.2,5.6-7.7,4.1-15.5,8.1-23.3,12.1-3.2,1.6-5.4,1-6.7-2.7-4.8-13-9.8-25.9-14.8-38.8-.9-2.4-1.2-6-4.1-6-4,0-7.9,1.7-11.6,3.6-.8.4-.8,1.4-.7,2.2,1.8,11.9.2,24.1,2.4,35.9.8,4.2-.5,6.1-5.2,6.7-9.1,1.2-18.3,0-27.3,1.9-3.1.6-5.2-1-4.8-4.3,1.1-10.5-.4-20.8-1.1-31.1-.8-11.5-.4-23-1.4-34.5-.9-10.5-.2-21.1-1-31.6-.3-4.1-.1-8.3-1.1-12.9h0ZM276.8,87.5c1.1,14.1,2.3,29.4,3.5,44.8,0,.5,0,1,.1,1.5.3,2.8,2.2,2.5,4.3,2.1,6.9-1.2,12.9-4.5,19.1-7.6,12.1-6.2,16-17.1,17.2-28.8.9-8.1-1-16.4-8-22.3-9.6-8.1-21.1-10.3-33.4-10.2-3.1,0-4,1.5-3.5,4.4.9,4.9,1.4,9.9.6,16.2h0ZM206.4,98.2c.7-6.2-2-12-6.9-16.9-6.5-6.6-14.6-9.7-23.8-10.4-6.4-.5-6.6-.2-6.4,6.2.4,14.4.9,28.9.9,43.3,0,11.4.1,11.7,11.3,7.7,15.1-5.3,24.2-16,24.8-30h0Z"/>
  <path class="st2" d="M488.6,125.4c0-12.5,2.3-24.9,1.2-37.1-.9-10.6-.3-21.1,0-31.7.1-5.5.6-11,0-16.6-.6-5.3.9-6.9,6.1-7.2,8.8-.4,17.6-.8,26.4-1,5.6-.2,7,1.5,6.9,7.3-.5,16.3-1.4,32.5-.5,48.8.5,10.5-.5,21.2-.8,31.7-.4,14.4,1.1,28.9-.8,43.4-.3,2.6-.6,5.3-.2,7.8,2.1,12.1-1.2,24.4-.4,36.6.4,6.2-1.3,7.5-7.4,7.9-8.3.5-16.6.7-25,1.2-3.6.2-5.8-1.1-7-4.5-8-21.6-18.9-41.9-28.8-62.6-3.1-6.6-5.5-13.7-9.5-20.1-2.2,1.7-1.4,3.8-1.3,5.5.8,25.8.7,51.7-.3,77.6-.2,6.5-1.1,7.3-7.5,7.6-8.1.4-16.3.6-24.5,1-4.6.2-6.6-1.8-6.2-6.4,1.1-13.3.5-26.7.7-40,.2-16.5-.3-33.1-.6-49.7,0-4.7-.3-9.4.3-14.2,1.6-12.7-1-25.3,0-38,.9-10.9.2-21.8.2-32.7,0-3.2,1.1-5.3,4.8-5.5,8.8-.5,17.6-1.1,26.4-1.8,4-.3,6,1,7.7,4.8,12.9,28.7,26,57.4,39.1,86,.3.7.8,1.3,1.2,2h0Z"/>
  <path class="st2" d="M600.8,155c-.8,0-1.6,0-2.4,0q-12.2.6-12.2-11.4c0-6.2.7-12.4-.2-18.5-.5-3.3,1.2-4.9,4.5-5,20.2-.1,40.4-.8,60.6-.2,3,0,4.5,1.4,4.5,4.4-.5,17.1-1.4,34.2-7.3,50.7-4.2,11.9-10.7,22.4-21.2,29.9-25.3,18.1-59.9,12.4-77.6-13.3-15.3-22.2-20.8-47.6-18.1-74.8,1.7-17.4,4.2-34.8,13-50.7,7.9-14.3,17.8-26.6,34.1-31.4,16.5-4.9,31.6-2.4,44.7,8.7,11.7,10,18.8,22.5,20.7,38,.7,5.7,0,7.1-5.7,8.1-8.7,1.6-17.2,4.4-25.7,6.9-4,1.1-6.1.3-7.1-3.8-1-3.9-2.2-7.8-3.9-11.4-3.7-7.7-12.8-8.9-19.2-2.7-2.7,2.6-4.4,5.8-5.7,9.2-8.9,23.1-9.9,46.3-2.5,69.4.8,2.4,2,4.8,3.3,6.9,4.3,7.3,10.5,11.1,19.4,9.6,8.9-1.5,14-7.4,17-15.6.9-2.5,0-3.3-2.3-3.3-3.6,0-7.2,0-10.8,0v.2h0Z"/>
  <path class="st2" d="M81.3,25.4c17.3-.3,29.4,8.2,38.2,22,3.1,4.9,5.7,10,7.6,15.6,1.1,3.4.5,5.8-3.1,7.6-7.8,3.7-15.4,7.6-23.1,11.4-3.1,1.5-5.4.9-6.8-2.2-.9-2-1.8-4.1-2.7-6.2-1.4-3.4-3.2-6.6-6-9.2-2.7-2.5-6-3.2-9.5-1.8-3.3,1.2-4.6,4.2-5,7.4-.9,6.8,1,12.8,4.6,18.4,7.5,11.5,17.5,20.8,26.5,31,8,9,15.6,18.3,20.6,29.4,10.1,22.4-.8,51.8-22.8,62.2-18.2,8.6-44.1,3.7-57.2-10.7-8.3-9.2-13.7-20.1-18-31.6-1.1-2.9-.1-4.6,2.6-5.8,8.4-3.8,17.1-7.1,25.3-11.4,3-1.6,5.3-.7,6.7,2.4,1.7,3.8,3.6,7.5,5.5,11.2,2,3.9,4.5,7.4,8.3,9.7,6.5,3.9,12.6.7,13.3-6.9.4-4.2-.7-8-3-11.4-7.9-11.8-17.5-22.1-27-32.4-7.3-7.9-12.9-17.2-17.5-26.9-8.9-19-5.7-52.5,19.8-66.4,7.2-3.9,14.7-5.6,22.7-5.3h0Z"/>
  <path class="st2" d="M399.9,104.6c-1.2,13.6.6,29.2-.9,44.8-.4,4.4-.1,8.8.2,13.1.4,5.9.5,11.7-.5,17.5-1.4,8.8.4,17.5-.3,26.3-.5,7-1,7.5-7.8,7.7-9,.2-17.9.6-26.9,1.1-3.9.2-5.6-1.1-5.6-5.2.2-18.7.6-37.4.3-56.1-.3-14.8,1.6-29.6.7-44.4-.7-10,.7-20.2,1.2-30.2.2-4.1,2.1-6.2,6.5-6.2,8.8.2,17.6.2,26.4-.6,5.4-.5,7.1,1.3,6.9,6.7-.3,7.8-1.1,15.6-.2,25.4h0Z"/>
  <path class="st2" d="M381.3,28c4.4,0,8.8.1,13.2.1,3.5,0,5.2,1.6,4.8,5.1-1.1,7.8-.9,15.6-.9,23.4s-2.1,5.5-5.8,5.6c-8.3.1-16.6.2-24.9.4-3.3,0-4.7-1.6-4.7-4.8,0-8.1-.2-16.3-.3-24.4,0-3.4,1.5-5.2,5-5.2,4.6,0,9.1,0,13.7.1,0-.1,0-.2,0-.3h0Z"/>
  <path class="st3" d="M276.8,87.5c.8-6.3.2-11.3-.6-16.2-.5-2.8.3-4.3,3.5-4.4,12.3,0,23.8,2.1,33.4,10.2,7,5.9,8.9,14.2,8,22.3-1.2,11.6-5.1,22.6-17.2,28.8-6.2,3.2-12.2,6.4-19.1,7.6-2.1.4-4,.7-4.3-2.1,0-.5,0-1-.1-1.5-1.2-15.3-2.4-30.6-3.5-44.8h0Z"/>
  <path class="st3" d="M206.4,98.2c-.6,13.9-9.8,24.6-24.8,30-11.1,3.9-11.2,3.7-11.3-7.7,0-14.5-.5-28.9-.9-43.3-.2-6.3,0-6.7,6.4-6.2,9.2.7,17.3,3.9,23.8,10.4,4.8,4.9,7.5,10.7,6.9,16.9h0Z"/>
  <path class="st3" d="M428.1,342.2c-2.8.5-5.8-.9-8.4-1.9-3.6-1.4-7.5,1.8-11.1,2.6-7.9,2-16.4-4.8-17.2-12.6-.5-2.7,1.5-5.5.7-8.1-2.9-4-8.3-7.4-8-13.2,0-7.1,6.5-13.9,13.4-15.2,1.3-.2,2.8-.5,3.8-1.4.8-.7,1.3-1.8,1.8-2.8,1.9-5.2,6-9.9,11.8-9.7,4.5-.2,9,1.3,11.9,4.7,1.6,1.7,2.4,4.2,4.2,5.8,1.7,1.4,4.2.9,6.3,1.2,6.1.7,11,5.6,11.6,11.6.7,3.9.2,8-2.4,11.3-1.2,1.6-3.1,3-3.9,4.9-.5,1.2-.3,2.6,0,3.9,2,9.1-5.2,17.6-14.1,18.8h-.4ZM415.4,309.1c-.9,3.8-4.9.3-7,0-1.7-.3-3.6,1.8-2.4,3.3,2.6,2.4,10.3-1.4,5.5,5.3-.8,1.3-2,2.9-1.1,4.3,1,1,3.1-.3,3.9-1.6,1.3-1.9,2.3-4.9,4.1-2.2,1.2,1.7,3.8,5.4,6,3,1.1-1.4-.4-3.1-1.7-4-1.8-1.1-4.1-3.7-.9-4.7,2.1-.5,6.6-.3,5.8-3.6-1.5-4-5.2,0-7.5,1-2.7.9-2.5-2.3-1.7-4.2,1.1-2.6-.4-5-3.1-3.8-2.5,1.2-.3,5.6.2,7v.3s0,0,0,0Z"/>
  <path class="st3" d="M544,343.3c-2.8.5-5.8-.9-8.4-1.9-3.6-1.4-7.5,1.8-11.1,2.6-7.8,2-16.4-4.8-17.2-12.6-.5-2.7,1.5-5.5.7-8.1-2.9-4-8.3-7.4-8-13.2,0-7.1,6.5-13.9,13.4-15.2,1.3-.2,2.8-.5,3.8-1.4.8-.7,1.3-1.8,1.8-2.8,1.9-5.2,6-9.9,11.8-9.7,4.5-.2,9,1.3,11.9,4.7,1.6,1.7,2.4,4.2,4.2,5.8,1.7,1.4,4.2.9,6.3,1.2,6.1.7,11,5.6,11.6,11.6.7,3.9.2,8-2.4,11.3-1.2,1.6-3.1,3-3.9,4.9-.5,1.2-.3,2.6,0,3.9,2,9.1-5.2,17.6-14.1,18.8h-.4c0,0,0,0,0,0ZM531.4,310.2c-.9,3.8-4.9.3-7,0-1.7-.3-3.6,1.8-2.4,3.3,2.6,2.4,10.3-1.4,5.5,5.3-.8,1.3-2,2.9-1.1,4.3,1,1,3.1-.3,3.9-1.6,1.3-1.9,2.3-4.9,4.1-2.2,1.2,1.7,3.8,5.4,6,3,1.1-1.4-.4-3.1-1.7-4-1.8-1.1-4.1-3.7-.9-4.7,2.1-.5,6.6-.3,5.8-3.6-1.5-4-5.2,0-7.5,1-2.7.9-2.5-2.3-1.7-4.2,1.1-2.6-.4-5-3.1-3.8-2.5,1.2-.3,5.6.2,7v.3s0,0,0,0Z"/>
  <g>
    <path class="st2" d="M199,456.5c1.6,0,3.5.6,3.5,3.5s-1.9,3.5-3.5,3.5h-14.1c-3.6,0-3.9-3.1-3.9-3.9,0-3.9,3-7.2,7.2-10.3,4.6-3.4,6-4.4,6-7.5s0-3.3-2.2-3.3-2.7,2.4-2.8,4c-.1,1.1-1.3,2.4-3.8,2.4s-4.1-1-4.1-3.5,2.2-9.9,10.7-9.9,10.5,4.3,10.5,10.5-3.1,8.1-7.6,11.6c-.8.6-3.1,2.5-3.1,2.9s.2.1.5.1h6.8Z"/>
    <path class="st2" d="M219.8,442.4c6.1,0,9.2,5.2,9.2,10.6s-4.4,11.3-10.5,11.3-6.4-1.8-8-3.8c-1.8-2.3-3.1-5.3-3.1-11.8s.7-17.4,11.6-17.4,9.6,4.9,9.6,7.4-.8,3.1-4,3.1-3.4-1.2-3.9-2.5c-.3-.7-1.1-1-1.8-1s-2.6,0-3,5.3c1.2-1.1,2.5-1.3,3.9-1.3h0ZM215.6,453.3c0,3.3,1.6,4,2.5,4s2.5-.8,2.5-4-1.5-4-2.5-4-2.5.6-2.5,4Z"/>
    <path class="st2" d="M236.2,465.6c-2.6,0-4.1-2-4.1-4s.2-1.3.3-1.5l11.4-27.4c.4-.9,1.6-2.5,3.6-2.5s4,1.7,4,4-.1,1.1-.3,1.5l-11.4,27.4c-.6,1.2-1.9,2.5-3.6,2.5Z"/>
    <path class="st2" d="M245,433.1c.3-.6,1.1-1.7,2.5-1.7s2.8,1.3,2.8,2.8,0,.8-.2,1l-11.4,27.5c-.3.6-1.1,1.7-2.5,1.7s-2.8-1.3-2.8-2.7.1-.8.2-1.1l11.4-27.5h0Z"/>
    <path class="st2" d="M276.3,454.4c0,2.2-.7,10-10.8,10s-6.6-.8-8.7-3.5c-1.4-1.7-2.1-3.9-2.1-5.6s.9-3.3,3.9-3.3,3.6,0,4,2.4c.2,1.4.4,2.9,2.8,2.9s2.8-.8,2.8-3.1,0-3.6-2.9-3.6-3.2,0-3.2-3.2,2-3.3,3.1-3.3,2-1.3,2-3.1-.8-2.6-1.9-2.6-2,.5-2.3,2.2c-.1.9-.4,2.8-3.8,2.8s-3.9-.6-3.9-3.1,2.1-8.9,10-8.9,10.1,3.8,10.1,9.2-.9,4.6-2.8,6c3.6,2.8,3.8,6.4,3.8,7.8h0Z"/>
    <path class="st2" d="M283.5,465.6c-2.5,0-4.1-2-4.1-4s.2-1.3.3-1.5l11.4-27.4c.4-.9,1.6-2.5,3.6-2.5s4,1.7,4,4-.1,1.1-.3,1.5l-11.4,27.4c-.5,1.2-1.9,2.5-3.6,2.5h0Z"/>
    <path class="st2" d="M292.2,433.1c.3-.6,1.1-1.7,2.5-1.7s2.8,1.3,2.8,2.8,0,.8-.2,1l-11.4,27.5c-.3.6-1.1,1.7-2.5,1.7s-2.8-1.3-2.8-2.7.1-.8.2-1.1l11.4-27.5h0Z"/>
    <path class="st2" d="M306.8,444.1c-1.7,0-2.7-1.5-2.7-3.3,0-2.7,1.6-3,3-3.2,1-.1,3.2-.6,4.4-3.6.5-1.4,1-2.6,3.4-2.6s3.3,1.5,3.3,2.5v26.9c0,1.4-.3,3.6-3.9,3.6s-4.2-.6-4.2-3.6v-16.7h-3.2,0Z"/>
    <path class="st2" d="M340.7,442.4c6.1,0,9.2,5.2,9.2,10.6s-4.4,11.3-10.5,11.3-6.4-1.8-8-3.8c-1.8-2.3-3.1-5.3-3.1-11.8s.7-17.4,11.6-17.4,9.6,4.9,9.6,7.4-.8,3.1-4,3.1-3.4-1.2-3.9-2.5c-.3-.7-1.1-1-1.8-1s-2.6,0-3,5.3c1.2-1.1,2.5-1.3,3.9-1.3h0ZM336.6,453.3c0,3.3,1.6,4,2.5,4s2.5-.8,2.5-4-1.5-4-2.5-4-2.5.6-2.5,4Z"/>
    <path class="st2" d="M361.4,444.8c.8-.5,3.5-2.5,7.2-2.5s4.7.8,6.9,2.4c2.5,1.9,3.3,2.4,4.7,2.4s2.3-.3,3.6-1c1.5-.9,1.7-1.1,2.5-1.1,1.6,0,3.1,1.3,3.1,3.2s0,2-3.3,3.6c-1.2.6-3.2,1.5-5.9,1.5s-5.1-1.2-8.6-3.8c-.7-.5-1.9-1-3.1-1-1.9,0-3.1.8-3.5,1.2-1.2.8-1.5,1-2.4,1-1.5,0-3-1.1-3-3.1s.7-2.2,1.9-3h0Z"/>
    <path class="st2" d="M417.1,456.5c1.6,0,3.5.6,3.5,3.5s-1.9,3.5-3.5,3.5h-14c-3.6,0-3.9-3.1-3.9-3.9,0-3.9,3-7.2,7.2-10.3,4.6-3.4,6-4.4,6-7.5s0-3.3-2.2-3.3-2.7,2.4-2.8,4c-.1,1.1-1.3,2.4-3.8,2.4s-4.1-1-4.1-3.5,2.2-9.9,10.7-9.9,10.5,4.3,10.5,10.5-3.1,8.1-7.6,11.6c-.8.6-3.1,2.5-3.1,2.9s.2.1.5.1h6.8,0Z"/>
    <path class="st2" d="M437.9,442.4c6.1,0,9.2,5.2,9.2,10.6s-4.4,11.3-10.5,11.3-6.4-1.8-8-3.8c-1.8-2.3-3.1-5.3-3.1-11.8s.7-17.4,11.6-17.4,9.6,4.9,9.6,7.4-.8,3.1-4,3.1-3.4-1.2-3.9-2.5c-.3-.7-1.1-1-1.8-1s-2.6,0-3,5.3c1.2-1.1,2.5-1.3,3.9-1.3h0ZM433.8,453.3c0,3.3,1.6,4,2.5,4s2.5-.8,2.5-4-1.5-4-2.5-4-2.5.6-2.5,4Z"/>
    <path class="st2" d="M454.3,465.6c-2.5,0-4.1-2-4.1-4s.2-1.3.3-1.5l11.4-27.4c.4-.9,1.6-2.5,3.6-2.5s4,1.7,4,4-.1,1.1-.3,1.5l-11.4,27.4c-.4.9-1.6,2.5-3.6,2.5h0Z"/>
    <path class="st2" d="M463.1,433.1c.3-.6,1.1-1.7,2.5-1.7s2.8,1.3,2.8,2.8,0,.8-.2,1l-11.4,27.5c-.3.6-1.1,1.7-2.5,1.7s-2.8-1.3-2.8-2.7.1-.8.2-1.1l11.4-27.5h0Z"/>
    <path class="st2" d="M476.4,457.9c-2.3,0-3.9-2-3.9-4.6s.5-2.9.9-3.5l9.3-15.6c1.1-1.8,2.8-2.8,4.6-2.8,3.1,0,4.1,2.2,4.1,3.6v16c1,0,3.1.2,3.1,3.5s-2.1,3.5-3.1,3.6v2.8c0,1.4-.3,3.6-3.9,3.6s-4-.9-4-3.6v-2.8h-6.9ZM483.6,450.9v-7.6c0-.1,0-.3-.2-.3s-.2,0-.3.2l-4.2,7c-.1.2-.2.3-.2.4,0,.2.1.2.3.2h4.5Z"/>
    <path class="st2" d="M501.6,465.6c-2.5,0-4.1-2-4.1-4s.2-1.3.3-1.5l11.4-27.4c.4-.9,1.6-2.5,3.6-2.5s4,1.7,4,4,0,1.1-.3,1.5l-11.4,27.4c-.4.9-1.6,2.5-3.6,2.5Z"/>
    <path class="st2" d="M510.3,433.1c.3-.6,1.1-1.7,2.5-1.7s2.8,1.3,2.8,2.8,0,.8-.2,1l-11.4,27.5c-.3.6-1.1,1.7-2.5,1.7s-2.8-1.3-2.8-2.7.1-.8.2-1.1l11.4-27.5h0Z"/>
    <path class="st2" d="M523.7,457.9c-2.3,0-3.9-2-3.9-4.6s.5-2.9.9-3.5l9.3-15.6c1.1-1.8,2.8-2.8,4.6-2.8,3.1,0,4.1,2.2,4.1,3.6v16c1,0,3.1.2,3.1,3.5s-2.1,3.5-3.1,3.6v2.8c0,1.4-.3,3.6-3.9,3.6s-4-.9-4-3.6v-2.8h-6.9ZM530.9,450.9v-7.6c0-.1,0-.3-.2-.3s-.2,0-.3.2l-4.2,7c-.1.2-.2.3-.2.4,0,.2.1.2.3.2h4.5Z"/>
  </g>
</svg>