<?xml version="1.0" encoding="utf-8"?>
<!-- Generator: Adobe Illustrator 27.8.1, SVG Export Plug-In . SVG Version: 6.00 Build 0)  -->
<svg version="1.1" id="Layer_1" xmlns="http://www.w3.org/2000/svg" xmlns:xlink="http://www.w3.org/1999/xlink" x="0px" y="0px"
	 viewBox="0 0 119 125" style="enable-background:new 0 0 119 125;" xml:space="preserve">
<style type="text/css">
	.st0{fill:#F38000;}
	.st1{clip-path:url(#SVGID_00000029042771011181977180000001573363970931810704_);}
	.st2{fill:#FFFFFF;}
</style>
<ellipse id="Ellipse_12" class="st0" cx="59.5" cy="62.5" rx="59.5" ry="62.5"/>
<g id="Group_248" transform="translate(79.571 82.651) rotate(180)">
	<g>
		<defs>
			<rect id="SVGID_1_" x="0" y="0.4" width="41.8" height="40.4"/>
		</defs>
		<clipPath id="SVGID_00000160170853670746194440000009566440333141340050_">
			<use xlink:href="#SVGID_1_"  style="overflow:visible;"/>
		</clipPath>
		
			<g id="Group_134" transform="translate(0 0)" style="clip-path:url(#SVGID_00000160170853670746194440000009566440333141340050_);">
			<path id="Path_151" class="st2" d="M22.8,1.6l19,19l-19,19c-1.5,1.6-4.1,1.6-5.6,0.1c-0.1-0.1-0.2-0.2-0.2-0.2
				c-1.6-1.8-1.5-4.5,0.2-6.2l8.2-8.2H4.2c-2.4-0.1-4.2-2-4.1-4.4c-0.1-2.4,1.8-4.3,4.1-4.4h21.2L17.2,8c-1.7-1.7-1.7-4.4-0.2-6.2
				c1.4-1.7,4-1.8,5.6-0.4C22.7,1.4,22.8,1.5,22.8,1.6"/>
		</g>
	</g>
</g>
</svg>
