<?xml version="1.0" encoding="UTF-8"?>
<svg id="Layer_1" data-name="Layer 1" xmlns="http://www.w3.org/2000/svg" viewBox="0 0 33.63 33.63">
  <defs>
    <style>
      .cls-1 {
        stroke-width: 2px;
      }

      .cls-1, .cls-2 {
        fill: none;
        stroke: #000;
        stroke-linecap: round;
        stroke-linejoin: round;
      }
    </style>
  </defs>
  <line class="cls-2" x1="5.28" y1="6.11" x2="24.87" y2="6.11"/>
  <line class="cls-2" x1="5.28" y1="10.71" x2="23.13" y2="10.71"/>
  <line class="cls-2" x1="5.28" y1="15.32" x2="19.13" y2="15.32"/>
  <line class="cls-2" x1="5.28" y1="19.93" x2="13.13" y2="19.93"/>
  <path class="cls-1" d="M29.15,5.94c0-2.73-2.21-4.94-4.94-4.94H5.94C3.21,1,1,3.21,1,5.94v19.91"/>
  <g>
    <line class="cls-1" x1="29.15" y1="25.54" x2="29.15" y2="23.84"/>
    <g>
      <path class="cls-1" d="M28.04,11.11l-14.66,14.66.03.03-2.7,6.83,6.83-2.7.03.03,14.66-14.66c.55-.55.55-1.43,0-1.98l-2.2-2.2c-.55-.55-1.43-.55-1.98,0Z"/>
      <line class="cls-2" x1="26.35" y1="13.68" x2="29.74" y2="17.06"/>
      <line class="cls-2" x1="14.49" y1="25.78" x2="17.87" y2="29.17"/>
    </g>
  </g>
</svg>