<?xml version="1.0" encoding="UTF-8"?>
<svg id="Layer_1" data-name="Layer 1" xmlns="http://www.w3.org/2000/svg" xmlns:xlink="http://www.w3.org/1999/xlink" viewBox="0 0 1920 93.52">
  <defs>
    <style>
      .cls-1 {
        fill: none;
      }

      .cls-2 {
        fill: #f0810d;
      }

      .cls-3 {
        font-family: ShinMGoPro-Ultra-83pv-RKSJ-H, 'A-OTF Shin Maru Go Pro';
        font-size: 36px;
        stroke: #f0810d;
        stroke-miterlimit: 10;
        stroke-width: .75px;
      }

      .cls-3, .cls-4 {
        fill: #fff;
      }

      .cls-5 {
        letter-spacing: -.18em;
      }

      .cls-6 {
        letter-spacing: -.04em;
      }

      .cls-7 {
        letter-spacing: -.04em;
      }

      .cls-8 {
        letter-spacing: 0em;
      }

      .cls-9 {
        letter-spacing: 0em;
      }

      .cls-10 {
        clip-path: url(#clippath);
      }
    </style>
    <clipPath id="clippath">
      <rect class="cls-1" width="1920" height="93.52"/>
    </clipPath>
  </defs>
  <g class="cls-10">
    <g>
      <path class="cls-4" d="M-.5,92.73v-6.92h154.29v-40.47c0-1.83,1.49-3.32,3.32-3.32s3.32,1.49,3.32,3.32v40.47h153.29v-40.47c0-1.83,1.49-3.32,3.32-3.32s3.32,1.49,3.32,3.32v40.47h153.29v-40.47c0-1.83,1.49-3.32,3.32-3.32s3.32,1.49,3.32,3.32v40.47h153.29v-40.47c0-1.83,1.49-3.32,3.32-3.32s3.32,1.49,3.32,3.32v40.47h153.29v-40.47c0-1.83,1.49-3.32,3.32-3.32s3.32,1.49,3.32,3.32v40.47h153.29v-40.47c0-1.83,1.49-3.32,3.32-3.32s3.32,1.49,3.32,3.32v40.47h153.29v-40.47c0-1.83,1.49-3.32,3.32-3.32s3.32,1.49,3.32,3.32v40.47h153.29v-40.47c0-1.83,1.49-3.32,3.32-3.32s3.32,1.49,3.32,3.32v40.47h153.29v-40.47c0-1.83,1.49-3.32,3.32-3.32s3.32,1.49,3.32,3.32v40.47h153.29v-40.47c0-1.83,1.49-3.32,3.32-3.32s3.32,1.49,3.32,3.32v40.47h153.29v-40.47c0-1.83,1.49-3.32,3.32-3.32s3.32,1.49,3.32,3.32v40.47h153.29v-40.47c0-1.83,1.49-3.32,3.32-3.32s3.32,1.49,3.32,3.32v47.39H-.5Z"/>
      <path class="cls-2" d="M1916.18,42.52c1.55,0,2.82,1.26,2.82,2.82v46.89H0v-5.92h154.29v-40.97c0-1.56,1.26-2.82,2.82-2.82s2.82,1.26,2.82,2.82v40.97h154.29v-40.97c0-1.56,1.26-2.82,2.82-2.82s2.82,1.26,2.82,2.82v40.97h154.29v-40.97c0-1.56,1.26-2.82,2.82-2.82s2.82,1.26,2.82,2.82v40.97h154.29v-40.97c0-1.56,1.26-2.82,2.82-2.82s2.82,1.26,2.82,2.82v40.97h154.29v-40.97c0-1.56,1.26-2.82,2.82-2.82s2.82,1.26,2.82,2.82v40.97h154.29v-40.97c0-1.56,1.26-2.82,2.82-2.82s2.82,1.26,2.82,2.82v40.97h154.29v-40.97c0-1.56,1.26-2.82,2.82-2.82s2.82,1.26,2.82,2.82v40.97h154.29v-40.97c0-1.56,1.26-2.82,2.82-2.82s2.82,1.26,2.82,2.82v40.97h154.29v-40.97c0-1.56,1.26-2.82,2.82-2.82s2.82,1.26,2.82,2.82v40.97h154.29v-40.97c0-1.56,1.26-2.82,2.82-2.82s2.82,1.26,2.82,2.82v40.97h154.29v-40.97c0-1.56,1.26-2.82,2.82-2.82s2.82,1.26,2.82,2.82v40.97h154.29v-40.97c0-1.56,1.26-2.82,2.82-2.82M1916.18,41.52c-2.1,0-3.82,1.71-3.82,3.82v39.97h-152.29v-39.97c0-2.1-1.71-3.82-3.82-3.82s-3.82,1.71-3.82,3.82v39.97h-152.29v-39.97c0-2.1-1.71-3.82-3.82-3.82s-3.82,1.71-3.82,3.82v39.97h-152.29v-39.97c0-2.1-1.71-3.82-3.82-3.82s-3.82,1.71-3.82,3.82v39.97h-152.29v-39.97c0-2.1-1.71-3.82-3.82-3.82s-3.82,1.71-3.82,3.82v39.97h-152.29v-39.97c0-2.1-1.71-3.82-3.82-3.82s-3.82,1.71-3.82,3.82v39.97h-152.29v-39.97c0-2.1-1.71-3.82-3.82-3.82s-3.82,1.71-3.82,3.82v39.97h-152.29v-39.97c0-2.1-1.71-3.82-3.82-3.82s-3.82,1.71-3.82,3.82v39.97h-152.29v-39.97c0-2.1-1.71-3.82-3.82-3.82s-3.82,1.71-3.82,3.82v39.97h-152.29v-39.97c0-2.1-1.71-3.82-3.82-3.82s-3.82,1.71-3.82,3.82v39.97h-152.29v-39.97c0-2.1-1.71-3.82-3.82-3.82s-3.82,1.71-3.82,3.82v39.97h-152.29v-39.97c0-2.1-1.71-3.82-3.82-3.82s-3.82,1.71-3.82,3.82v39.97H-1v7.92h1921v-47.89c0-2.1-1.71-3.82-3.82-3.82h0Z"/>
    </g>
    <text class="cls-3" transform="translate(95.67 33.91)"><tspan class="cls-5" x="0" y="0">１</tspan><tspan class="cls-7" x="29.63" y="0">月</tspan></text>
    <text class="cls-3" transform="translate(262 33.91)"><tspan class="cls-8" x="0" y="0">2</tspan><tspan class="cls-6" x="23.29" y="0">月</tspan></text>
    <text class="cls-3" transform="translate(422 33.91)"><tspan class="cls-8" x="0" y="0">3</tspan><tspan class="cls-6" x="23.29" y="0">月</tspan></text>
    <text class="cls-3" transform="translate(582 33.91)"><tspan class="cls-8" x="0" y="0">4</tspan><tspan class="cls-6" x="23.29" y="0">月</tspan></text>
    <text class="cls-3" transform="translate(742 33.91)"><tspan class="cls-8" x="0" y="0">5</tspan><tspan class="cls-6" x="23.29" y="0">月</tspan></text>
    <text class="cls-3" transform="translate(902 33.91)"><tspan class="cls-8" x="0" y="0">6</tspan><tspan class="cls-6" x="23.29" y="0">月</tspan></text>
    <text class="cls-3" transform="translate(1062 33.91)"><tspan class="cls-8" x="0" y="0">7</tspan><tspan class="cls-6" x="23.29" y="0">月</tspan></text>
    <text class="cls-3" transform="translate(1222 33.91)"><tspan class="cls-8" x="0" y="0">8</tspan><tspan class="cls-6" x="23.29" y="0">月</tspan></text>
    <text class="cls-3" transform="translate(1382 33.91)"><tspan class="cls-8" x="0" y="0">9</tspan><tspan class="cls-6" x="23.29" y="0">月</tspan></text>
    <text class="cls-3" transform="translate(1518.68 33.91)"><tspan x="0" y="0">1</tspan><tspan class="cls-9" x="23.33" y="0">0</tspan><tspan class="cls-6" x="46.62" y="0">月</tspan></text>
    <text class="cls-3" transform="translate(1678.68 33.91)"><tspan x="0" y="0">1</tspan><tspan class="cls-9" x="23.33" y="0">1</tspan><tspan class="cls-6" x="46.62" y="0">月</tspan></text>
    <text class="cls-3" transform="translate(1838.68 33.91)"><tspan x="0" y="0">1</tspan><tspan class="cls-9" x="23.33" y="0">2</tspan><tspan class="cls-6" x="46.62" y="0">月</tspan></text>
    <rect class="cls-4" x="-4.5" y="86.3" width="1930" height="5.92"/>
  </g>
</svg>