<?xml version="1.0" encoding="UTF-8"?>
<svg id="Layer_1" data-name="Layer 1" xmlns="http://www.w3.org/2000/svg" xmlns:xlink="http://www.w3.org/1999/xlink" viewBox="0 0 1925 44">
  <defs>
    <style>
      .cls-1 {
        fill: none;
      }

      .cls-2 {
        fill: #f7f0e5;
      }

      .cls-3 {
        fill: #7a4f9f;
      }

      .cls-4 {
        clip-path: url(#clippath);
      }
    </style>
    <clipPath id="clippath">
      <rect class="cls-1" width="1925" height="44"/>
    </clipPath>
  </defs>
  <g class="cls-4">
    <path class="cls-2" d="M0-210.49V40.38c5.62,1.78,9.13,3.28,19.64,3.28,16.04,0,16.04-6.19,32.07-6.19s16.03,6.19,32.05,6.19,16.03-6.19,32.06-6.19,16.02,6.19,32.05,6.19,16.03-6.19,32.06-6.19,16.03,6.19,32.05,6.19,16.03-6.19,32.05-6.19,16.03,6.19,32.05,6.19,16.03-6.19,32.05-6.19,16.02,6.19,32.05,6.19,16.02-6.19,32.05-6.19,16.02,6.19,32.05,6.19,16.03-6.19,32.05-6.19,16.02,6.19,32.05,6.19,16.03-6.19,32.05-6.19,16.03,6.19,32.05,6.19,16.02-6.19,32.05-6.19,16.02,6.19,32.05,6.19,16.02-6.19,32.05-6.19,16.02,6.19,32.05,6.19,16.03-6.19,32.05-6.19,16.02,6.19,32.05,6.19,16.02-6.19,32.05-6.19,16.02,6.19,32.05,6.19,16.02-6.19,32.05-6.19,16.02,6.19,32.04,6.19,16.02-6.19,32.05-6.19,16.02,6.19,32.04,6.19,16.03-6.19,32.05-6.19,16.02,6.19,32.04,6.19,16.02-6.19,32.05-6.19,16.02,6.19,32.04,6.19,16.02-6.19,32.04-6.19,16.02,6.19,32.05,6.19,16.02-6.19,32.04-6.19,16.02,6.19,32.04,6.19,16.02-6.19,32.04-6.19,16.02,6.19,32.04,6.19,16.02-6.19,32.04-6.19,16.02,6.19,32.04,6.19,16.02-6.19,32.04-6.19,16.02,6.19,32.04,6.19,16.02-6.19,32.05-6.19,16.02,6.19,32.04,6.19,16.02-6.19,32.03-6.19,16.02,6.19,32.04,6.19,16.02-6.19,32.05-6.19,16.02,6.19,32.04,6.19,16.02-6.19,32.03-6.19,16.02,6.19,32.03,6.19,16.02-6.19,32.04-6.19,16.02,6.19,32.04,6.19,16.02-6.19,32.04-6.19,16.02,6.19,32.05,6.19,16.02-6.19,32.04-6.19,16.02,6.19,32.04,6.19,16.02-6.19,32.04-6.19,16.02,6.19,32.04,6.19,16.02-6.19,32.04-6.19c6.62,0,10.63,1.51,14.17,3.09v-251.05H0Z"/>
    <path class="cls-3" d="M-867.61,10.18c8.28,2.61,13.32,4.83,28.71,4.83,23.27,0,23.27-8.98,46.53-8.98s23.25,8.98,46.5,8.98,23.26-8.98,46.51-8.98,23.25,8.98,46.5,8.98,23.26-8.98,46.51-8.98,23.25,8.98,46.5,8.98,23.25-8.98,46.5-8.98,23.25,8.98,46.5,8.98,23.25-8.98,46.51-8.98,23.25,8.98,46.5,8.98,23.25-8.98,46.49-8.98,23.25,8.98,46.49,8.98,23.25-8.98,46.5-8.98,23.25,8.98,46.49,8.98,23.25-8.98,46.5-8.98,23.25,8.98,46.5,8.98,23.25-8.98,46.5-8.98S-25.11,15.01-1.87,15.01,21.38,6.03,44.63,6.03s23.25,8.98,46.5,8.98,23.25-8.98,46.5-8.98,23.25,8.98,46.5,8.98,23.25-8.98,46.49-8.98,23.25,8.98,46.5,8.98,23.25-8.98,46.5-8.98,23.25,8.98,46.49,8.98,23.25-8.98,46.5-8.98,23.24,8.98,46.49,8.98,23.25-8.98,46.5-8.98,23.24,8.98,46.49,8.98,23.25-8.98,46.5-8.98,23.24,8.98,46.49,8.98,23.24-8.98,46.49-8.98,23.25,8.98,46.49,8.98,23.24-8.98,46.48-8.98,23.25,8.98,46.49,8.98,23.24-8.98,46.49-8.98,23.24,8.98,46.48,8.98,23.24-8.98,46.49-8.98,23.24,8.98,46.49,8.98,23.24-8.98,46.48-8.98,23.24,8.98,46.48,8.98,23.25-8.98,46.5-8.98,23.24,8.98,46.48,8.98,23.24-8.98,46.48-8.98,23.24,8.98,46.48,8.98,23.25-8.98,46.49-8.98,23.24,8.98,46.48,8.98,23.24-8.98,46.47-8.98,23.24,8.98,46.48,8.98,23.24-8.98,46.49-8.98,23.24,8.98,46.48,8.98,23.24-8.98,46.49-8.98,23.25,8.98,46.49,8.98,23.24-8.98,46.49-8.98,23.24,8.98,46.49,8.98,23.25-8.98,46.49-8.98,23.24,8.98,46.49,8.98,23.24-8.98,46.49-8.98c9.47,0,15.25,2.13,20.34,4.39v-97.15H-867.61V10.18Z"/>
  </g>
</svg>