<?xml version="1.0" encoding="UTF-8"?>
<svg id="Layer_1" data-name="Layer 1" xmlns="http://www.w3.org/2000/svg" xmlns:xlink="http://www.w3.org/1999/xlink" viewBox="0 0 577 474.5">
  <defs>
    <style>
      .cls-1 {
        fill: #f7f0e5;
      }

      .cls-2 {
        fill: #f19023;
      }

      .cls-3 {
        fill: #178141;
        stroke: #178141;
        stroke-linecap: round;
        stroke-linejoin: round;
        stroke-width: 58px;
      }

      .cls-4 {
        filter: url(#outer-glow-1);
      }
    </style>
    <filter id="outer-glow-1" x="6.21" y="12.67" width="565" height="450" filterUnits="userSpaceOnUse">
      <feOffset dx="0" dy="0"/>
      <feGaussianBlur result="blur" stdDeviation="16.43"/>
      <feFlood flood-color="#186333" flood-opacity=".8"/>
      <feComposite in2="blur" operator="in"/>
      <feComposite in="SourceGraphic"/>
    </filter>
  </defs>
  <g>
    <circle class="cls-3" cx="281.65" cy="76.74" r="1.81"/>
    <path class="cls-3" d="M307.47,76.93c.42.13.83.25,1.25.38.68.21,1.33.34,1.63.85.3.58.06,1.26.09,1.89v.05c-.07,3.87,3.55,6.84,7.32,6.41,1.27,0,1.28,1.41,1.55,2.33.31,1.35.74,3.88,2.62,3.13.47-.22.75-.71,1.02-1.14.42-.8,1.28-.92,2.06-1.15,1.36-.4.91-2.17,2.03-2.79.44-.28.99-.5,1.3-.94.77-1.09-.24-2.16-1.33-2.46-.89-.31-1.8-.55-2.69-.83-.36-.12-.74-.3-.93-.62-.4-.85.05-1.95-.18-2.88-.43-3.23-3.44-5.68-6.68-5.48-.65.02-1.14.02-1.48-.39-.81-1.31-.62-3.56-1.67-4.76-.56-.64-1.58-.56-2.1.1-.49.59-.79,1.44-1.61,1.62-2.84.47-1.41,1.96-3.03,3.08-1.02.46-2.04,1.39-1.24,2.53.45.59,1.3.85,2.07,1.08Z"/>
    <path class="cls-3" d="M295.23,127.83c1.38,0,2.5-1.12,2.5-2.5s-1.12-2.5-2.5-2.5-2.5,1.12-2.5,2.5,1.12,2.5,2.5,2.5Z"/>
    <path class="cls-3" d="M303.9,105.32c-1.94,0-3.51,1.57-3.51,3.51s1.57,3.51,3.51,3.51,3.51-1.57,3.51-3.51-1.57-3.51-3.51-3.51Z"/>
    <path class="cls-3" d="M288.41,94.43c-.38-.68-.65-1.51-1.15-2.09-.92-1.04-1.39.58-1.49,1.35-.43,2.57-1.21,5-3.37,6.62-.66.52-2.32,1.52-.95,2.18.36.19.85.34,1.26.49,1.94.66,3.51,2.21,4.51,3.98.45.67.81,1.94,1.67,2.07h.03c.6-.16.74-1.17.88-1.74.44-2.11,1.48-3.9,3.1-5.34.42-.39.9-.73,1.24-1.19.11-.14.24-.43.19-.61-.21-.74-1.36-1.02-1.98-1.43-1.73-.98-3.01-2.59-3.94-4.29Z"/>
    <circle class="cls-3" cx="306.49" cy="139.73" r="1.81"/>
    <path class="cls-3" d="M283.72,197.43v-.04c-.03-1.23-1.1-1.55-2.12-1.53-2.68-.18-5.29,0-7.94.32-8.57.51-16.97-2.11-25.55-1.56-1.08.02-2.16,0-3.21-.25-.94-.24-1.81-.64-2.77-.73-3.07-.41-6.18-.21-9.26-.35-1.09-.03-2.15-.63-3.24-.75-1.84.14-1.35,2.83-1.28,4.11.75,4.81,2.48,9.46,2.69,14.36.06,3.2.69,3.42,3.7,2.95,2.45-.44,4.58-.46,6.93-.32,1.95.15,4.18-.48,5.76.76,1.74,2.34-.12,8.89.18,11.98,0,2.76.74,5.45.81,8.2.04,1.16-.16,2.33-.34,3.48-.44,3.01-.2,6.06.17,9.1.41,3.51.46,7.05.14,10.57-.44,3.46-.61,6.95.07,10.39.47,4.05-.94,8.02-.82,12.08,0,2.4.53,4.77.3,7.19-.35,2.04.88,2.24,2.67,2.06,1.38-.07,2.76-.2,4.14-.29,4.19-.35,8.36.18,12.46,1.07,1.81.25,1.56-1.74,1.51-2.94-.03-1.27.09-2.54.02-3.78-.16-1.6-.51-3.19-.48-4.79,0-4.32,1.1-8.66.39-12.97-.48-3.42-1.08-6.81-.76-10.27.24-1.86.03-3.71-.31-5.54-.9-4.61.08-9.23.33-13.83,0-1.55-.42-3.07-.59-4.61-.3-2.13-.05-4.32.29-6.45.27-1.95.45-3.91.38-5.88-.03-.81-.09-1.6.06-2.41.46-3.49,4.24-2.79,6.8-2.55,1.77.07,4.63,1.19,6.18.31.57-.52.71-1.63.88-2.44.19-1.26-.34-2.52-.33-3.78-.18-3.73,2.4-7.08,2.1-10.87Z"/>
    <path class="cls-3" d="M128.82,154.59c1.12-.8,1.38-2.36.58-3.48-.8-1.12-2.36-1.38-3.48-.58-1.12.8-1.38,2.36-.58,3.48.8,1.12,2.36,1.38,3.48.58Z"/>
    <path class="cls-3" d="M183.01,276.2v.04c1.52,4.53,4.12,7.26,8,9.88,3.44,2.66,5.74,4.03,10.27,3.72.98-.02,1.96.12,2.92.34,8.66,2.08,17.46-2.04,23.29-8.42,2-2,2.99-4.66,3.78-7.33.83-2.73,1.36-5.49,1.22-8.4-.04-.89-.09-1.79-.11-2.68.08-3.23-1.61-6.11-2.43-9.16-1.12-3.78-1.41-4.63-4.36-7.32-2.24-2.08-4.87-3.7-6.99-5.92-1.73-1.72-3-4.04-5.45-4.8-2.99-.74-4.78-1.74-6.25-4.55-.82-1.46-1.8-2.77-2.99-3.93-.7-.68-1.41-1.4-1.84-2.29-.88-1.98-.99-4.3-.68-6.43.5-3.39,3.69-5.2,6.99-4.05,2.99.97,4.77,4.09,4.43,7.15-.3,2.88-.6,5.62,3.02,6.1,1.01.17,2.02.4,3.05.44,1.16.04,2.31-.1,3.43.19,1.32.32,2.52.93,3.9,1,2.99.27,3.7-1.21,3.34-3.92-.14-2.59.81-5.26.12-7.85-1.58-8.87-4.84-17.94-15.41-19.06-1.1-.15-2.23-.18-3.28-.41-.91-.19-1.79-.64-2.73-.81-1.34-.27-2.68-.02-4.06.09-6.98.26-13.34,1.64-17.51,7.8-.78,1.13-1.62,2.26-2.17,3.51-.62,1.66-.9,3.44-1.49,5.13-.35,1.09-.79,2.14-1.1,3.24-.52,1.77-.48,3.68-.4,5.51.15,3.99,1.85,7.72,3.4,11.35,1.45,3.27,3.26,6.47,6.08,8.77,1.67,1.4,3.47,2.66,4.92,4.3.78.88,1.35,1.91,2.27,2.63,2.34,1.85,4.79,3.55,7.37,5.06,1.29.7,2.38,1.69,3.14,2.95,1.02,1.55,2.02,3.11,3.03,4.67.78,1.21,1.66,2.39,1.92,3.83,1.35,6.3-6.26,10.23-11.31,7.63-3.28-1.84-3.12-6.58-3.04-9.94.1-1.54-.11-3.21-1.16-4.47-.68-1.02-1.79-1.29-2.94-1.4-2.4-.34-4.28-2.25-6.79-2.08-1.4-.04-2.76-.25-4.13-.54-.87-.16-1.92-.44-2.7.07-1.49,1.28-.77,3.88-.34,5.56.53,2.14.89,4.33.76,6.55-.24,2.8-.02,5.63.98,8.28Z"/>
    <path class="cls-3" d="M176.8,217.99v-.04c-.86-3.95-.79-7.65-4.15-10.54-.77-.69-1.54-1.37-2.24-2.12-1.92-1.97-3.98-3.86-6.56-4.9-6.59-2.67-13.96-2.37-20.79-.91-2.68.6-5.37,1.4-7.7,2.89-.98.62-1.86,1.39-2.75,2.1-1.39,1.09-2.81,2.18-3.86,3.59-.92,1.17-1.5,2.58-1.94,3.99-.95,3.23-2.84,6.12-3.64,9.39-.26,1.14-.36,2.32-.34,3.49.05,3.42.22,6.84-.13,10.25-.1,1.09-.31,2.17-.45,3.25-.55,4.58,1.17,8.95,1.28,13.5.18,3.71-.96,7.3-.26,11.04.6,2.66,1.1,5.31.8,8.05-.1,1.49-.51,2.99-.48,4.47.22,6.42,4.97,12.34,9.78,16.21,4.05,2.48,8.56,4.03,13.21,3.85,3.7.22,7.3-.36,10.48-2.17.85-.44,1.77-.64,2.71-.79,3.93-.64,7.58-2.51,10.21-5.54,1.4-1.66,2.37-3.61,3.39-5.54.72-1.31,1.2-2.77,1.35-4.24.32-5.15-.08-10.34.78-15.45.71-4.01,1.1-8.05.49-12.08-.36-2.28-.75-4.63-.22-6.91,1.12-3.6,1.06-7.38.53-11.08-.09-3.91.06-7.84.55-11.73.09-.68.11-1.38-.02-2.05ZM156.07,226.15v.04c-.36,3.29-.98,6.59-.4,9.92.09.57.17,1.15.17,1.73-.23,3.7-.6,7.4-1.16,11.07-.2,1.87.2,3.71.56,5.53.42,2.29.26,4.56.25,6.84.26,3.89-.32,7.75-.46,11.63.02,4.44-1.4,5.72-5.7,6.36-2.9.74-4.25-2.13-4.62-4.55-.37-1.78-.53-3.61-.26-5.43.22-1.31.49-2.61.46-3.94-.12-3.79-1.06-7.54-.38-11.33.74-5.02-.93-10.03-.59-15.03.35-3.52.22-7.06.32-10.58.08-4.25,1.49-9.35,4.89-12.14,2.52-1.89,5.53-.62,6.57,2.18.65,2.5.55,5.14.33,7.71Z"/>
    <path class="cls-3" d="M511.62,182.02c0-1-.81-1.81-1.81-1.81s-1.81.81-1.81,1.81.81,1.81,1.81,1.81,1.81-.81,1.81-1.81Z"/>
    <path class="cls-3" d="M359.72,292.62h.05c3.96.67,3.11-3.92,2.83-6.41-.24-6.36,1.66-12.64.89-19.03-.25-5.14,1.72-10.12,1.6-15.24-.06-2.71-.54-5.51-.14-8.21,1.57-6.68,2.26.14,2.37,2.75,1.35,5.17,2.51,10.32,2.89,15.67.61,3.74,1.97,7.29,2.67,11.01.68,4.05-.1,8.59,5.48,7.84,3.54-.93,8.18,4.01,10.14-.99.92-2.38.84-5.13,1.56-7.55.65-2.96,1.88-5.78,2.06-8.85.05-2.6.98-5.04,2.15-7.32,3.04-4.49,2.43-10.79,5.75-15.01,1.95-.74,1.32,7.46,1.55,8.99.85,5.53-.35,10.93-.44,16.47.48,5.83,1.03,11.5.05,17.34-.02,3.97-1.23,9.38.35,12.43.65,1.34,6.72-.23,10.55.95,3.15.79,9.31,2.94,8.9-2.48-.17-4.06.33-8.07.4-12.12-.73-12.23.19-24.5-.43-36.76.27-4.38,1.15-8.73.34-13.11-.14-1.13-.53-1.67-1.17-1.88-1.19.23-2.38.41-3.58.52-.71.08-1.51.13-2.39.13-.71,0-1.45-.03-2.21-.08-.21-.01-.43-.03-.66-.05-1.99-.17-4.02-.51-5.78-.97-3.03-.8-5.41-2-7.13-3.59-4.17,1.71-8.25,2.63-12.19,2.76-.43,1.26-.86,2.52-1.32,3.81-.77,2.14-2.17,8.05-3.16,4.68-.77-3.05-1.74-6.04-2.44-9.1-5.92-1.27-11.37-4.48-16.31-9.6-.41.13-.84.23-1.27.31l-.23.04-.23.02c-.94.1-1.89.15-2.83.15-4.07,0-8.11-.95-11.95-2.79.04.92.03,1.85-.08,2.77-1.02,5.39-.25,10.9-1.03,16.31-1.18,5.36-1.24,10.74-.45,16.15-.62,6.8-1.69,13.55-1.34,20.43-.41,5.54-1.16,11.07-.68,16.62.45,3,4.01,2.58,6.29,2.67,1.59.05,3.12.56,4.67.53,2.02-.09,3.9-.55,5.95-.21Z"/>
    <path class="cls-3" d="M466.44,400.26v-.04c.13-1.99,1.13-5.49-1.66-6.06-3.41-.67-6.84-1.13-10.29-1.4-5.75-.3-10.98-3.07-16.61-4.05-1.2-.16-1.78-.77-1.64-2,.16-4.42.31-8.83.53-13.25.08-2.21,1.08-2.48,2.99-1.9,2.19.47,4.4.52,6.63.51,3.14-.03,6.07,1.29,9.15,1.77,2.25.61,2.21-1.38,2.19-3.04-.02-2.22,0-4.44-.04-6.66,1.3-12.46-1.51-5.92-9.75-9.48-1.57-.55-3.18-1.1-4.85-1.21-1.93-.09-4.51-.03-5.96-1.44-1.11-1.89.32-4.85-.29-7.1-.17-1.5-.59-2.95-.66-4.45.02-2.68.69-5.31.59-8-.28-3.32,2.15-2.19,4.3-1.93,3.85.08,7.59.81,11.19,2.17,3.32,1.27,6.99.87,10.36,1.94,3.09,1.45,3.12-1.97,2.96-4.16-.47-2.55-1.25-5.07-1.27-7.67-.22-5.48,1.87-7.97-5.36-8.26-4.86.37-9.42-1.52-14.18-2.15-2.79-.27-5.57-.27-8.2-1.35-5.24-1.47-10.57-2.47-15.99-2.92-1.96-.51-4.52-1.78-6.38-.53-.28.38-.29.96-.31,1.42-.04,3.09.1,6.21.83,9.23.4,1.72,1.16,3.36,1.41,5.12.4,2.33.08,4.69-.17,7.01-.63,5.2,1.49,10.25.66,15.46-.93,4.31.22,8.6.18,12.93-.07,2.83-.65,5.63-.53,8.47-.01,1.94.57,3.85.53,5.79-1.09,7.47-.85,15-.8,22.53-.61,9.38,2.86,6.96,9.96,7.88,2.81.4,5.48,1.41,8.21,2.13,3.85,1.04,7.85,1.38,11.74,2.26,2.64.55,5.13,1.66,7.76,2.24,3.65.63,7.31,1.15,10.89,2.11,3.9.47,1.29-9.47,1.89-11.92Z"/>
    <path class="cls-3" d="M299.07,286.51l.03.02c4.21,3.5,9.69,3.84,14.89,3.98,2.71.03,5.04-1.86,7.49-2.92,6.25-2.24,9.31-8.88,12.23-14.36,1.37-3.67,1.09-7.51.56-11.32-.36-3.14.57-6.19.95-9.27.35-3.03-.1-6.09.31-9.11.19-2.16.73-4.29,1.03-6.45.64-3.19-.44-6.29-.72-9.44.71-3.92,1.96-7.8,1.78-11.85-.02-1.52-.05-3.04-.04-4.56-2.72-2.53-4.96-5.28-6.77-7.93-2.44-.01-4.73-1.08-7-3.24-1.51-.03-3.02-.18-4.52-.56-.72-.17-1.69-.48-2.27.09-2.3,5.96-.77,12.89-.23,19.12.84,4.39-1.57,8.41-1.5,12.76-.08,2.89.79,5.68.88,8.54-.17,2.74-.34,5.49-.89,8.19-1.22,5.89,1.4,11.6.23,17.42-.19,1.37-.05,2.91-1.14,3.89-1.58,1.45-4.37,2.05-5.22-.5-.99-2.63-.42-5.42-.89-8.12-1.2-4.41.02-8.74.28-13.15-.46-4.33-1.45-8.65-.7-13.02.66-4.68-1.42-9.22-.35-13.86.9-4.56-.25-9.08-.19-13.65.09-2.5.88-4.93.71-7.44.32-2.4-1.91-1.72-3.46-1.81-2.74.1-5.4-.5-8.07-1-2.38.06-4.75.4-7.09.82-1.23.3-3.39-.34-3.37,1.53.22,2.7-.15,5.41.41,8.08.31,2.61-.43,5.22-.25,7.84-.02,2.19.75,4.27.76,6.45-.11,6.82.14,13.64.3,20.45-.45,3.89-.49,7.86.34,11.71.72,3.46-1.1,6.98-.36,10.47.68,3.74,1.63,7.47,2.71,11.11,2.32,4.21,5.23,8.21,9.15,11.06Z"/>
    <path class="cls-3" d="M351.77,386.91v-.04c-1.34-3.72-1.9-7.61-1.82-11.55.13-3.1.22-6.24-.8-9.21-1.68-4.19-1.74-8.76-1.66-13.21.11-5.2-2.93-9.8-2.97-14.97.2-5.73-.95-11.27-2.54-16.72-.29-1.06-.57-2.11-.71-3.2-.25-2.06.08-4.16-.14-6.22-.13-1.85-.52-3.67-1.04-5.45-.63-2.04-.86-4.4-2.3-6.07-.58-.59-1.5-.63-2.31-.61-4.81.13-9.62.08-14.37-.84-1.45-.32-2.94-.51-4.4-.16-1.41.26-2.82.21-4.24.23-1.49.15-4.57-.56-5.12,1.25-.69,3.29-.07,6.75-.62,10.06-.25,1.78-.9,3.47-1.5,5.16-.78,2.14-1.31,4.31-1.53,6.56-.31,2.18-.32,4.4-.21,6.61.02,2.08-.53,4.08-1.19,6.04-.79,2.33-1.51,4.68-1.72,7.13-.3,5.32-1.25,10.51-2.94,15.56-.74,2.24-1.31,4.57-1.36,6.94-.02,1.44.22,2.87.16,4.31-.14,3.96-1.39,7.72-2.55,11.46-.54,1.83-.9,3.71-1.42,5.55-.17,1.11-1.34,2.84-.71,3.82,1.01,1,2.94.83,4.29.61,3.07-.72,4.62-.95,7.71-.04,1.96.44,3.92.86,5.89,1.27,2.57.55,2.92-.86,3.01-3.06.23-2.88.83-5.73.76-8.64,0-1.33.1-3.16,1.18-4.06.41-.27,1.19-.18,1.73-.09,2.48.43,4.96,1.22,7.5.84,1.49-.28,2.99-.36,4.5-.34.87-.04,1.76.22,2.12,1.1.35.76.46,1.63.55,2.46.38,3.4.79,6.79.77,10.22-.07,2.88,1.09,2.73,3.56,2.74,2.76-.12,5.37.08,7.87,1.35,2.65,1.04,5.54,1.27,8.38,1.11,1.85-.13,1.77-1.26,1.37-2.76-.38-1.72-.6-3.47-1.18-5.14ZM327.39,359.73h-.04c-2.94.03-5.75.39-8.89.57-.33.01-.78-.02-.97-.27-.18-.2-.15-.65-.1-.97.46-2.62.79-5.22,1.11-7.83.8-8.08,2.64-15.89,4.31-23.86.05-.26.15-.75.29-.82.13-.09.3.12.46.5.33.77.57,1.6.74,2.41.46,2.53.74,5.11,1.26,7.64.69,3.88,1.96,7.67,2.03,11.63.01.88-.01,1.78.08,2.66.09,1.06.38,2.08.57,3.12.2,1.15.16,2.29.17,3.45.04.75-.18,1.68-1.03,1.78Z"/>
    <path class="cls-3" d="M482.55,297.3c.59-3.46-1.87-3.6-4.53-3.92-3.24-.61-6.53-.92-9.82-1.15-4.78-.64-9.25-2.69-14-3.47-2.38-.36-2.39-.93-2.22-3.15.17-3.13.3-6.27.5-9.39.12-2.34.43-3.39,3.03-2.82,3.85.93,7.89.26,11.7,1.42,1.43.44,2.86.79,4.34,1.07,2.32.6,2.44-1.53,2.36-3.26-.06-3.6.29-7.17.42-10.77.1-2.7-3.16-1.87-4.93-2.23-3.97-.23-7.47-2.43-11.47-2.44-1.57-.13-3.53-.29-4.76-1.3-1.02-1.25-.07-3.02.03-4.42.08-.91-.25-1.78-.47-2.65-.89-3.43.06-6.87.12-10.29,0-.99.11-2.44,1.42-2.36,4.96.77,9.97,1.01,14.67,2.98,1.41.54,2.88.91,4.4,1,2.27.18,4.47.67,6.66,1.27,2.78.96,2.41-3.32,2.1-4.93-.62-2.33-1-4.69-.88-7.07,0-2.09.97-5.4-1.95-5.81-3.26-.94-6.71-.41-9.97-1.37-3.27-.85-6.56-1.65-9.89-2.18-1.71-.21-3.47-.15-5.11-.77-.54-.19-1.08-.36-1.62-.53-3.69,3.01-7.54,5.21-11.5,6.54l-.24.08-.25.06c-1.16.3-2.19.45-3.15.45h0c-1.18,0-2.3-.23-3.31-.66-.38.24-.77.48-1.16.71-.72.43-1.43.83-2.14,1.21,0,.08,0,.16.02.24,1.42,3.57-.02,7.26.07,10.92,0,1.94.61,3.82.83,5.73.25,1.99.16,4-.08,5.99-.58,4.38.41,8.74.04,13.11-.26,3.03-.44,6.05-.17,9.09.22,1.82.17,3.67-.2,5.47-.78,3.62-.77,7.33-.35,11,.2,2.58-.14,5.14-.29,7.71-.43,3.8,2.45,5.24,5.88,4.95,3.85.04,7.56.75,11.23,1.84,6.37,1.69,13.08,1.84,19.34,4.05,3.99,1.17,8.2,1.04,12.2,2.2,2.46.79,3.23-.94,3.12-3.14-.1-2.99-.56-5.99-.02-8.97v-.04Z"/>
    <path class="cls-3" d="M508.34,161.54c-.64-.43-1.51-.64-1.77-1.45-.75-2.78-2.1-1.21-3.37-2.72-.56-.98-1.59-1.9-2.65-.98-.55.5-.72,1.38-.88,2.17-.09.43-.17.85-.25,1.28-.15.7-.21,1.36-.69,1.71-.55.36-1.25.19-1.87.27h-.05c-3.87.32-6.48,4.22-5.67,7.94.13,1.26-1.28,1.42-2.17,1.77-1.31.44-3.8,1.12-2.86,2.92.27.45.78.68,1.24.91.84.34,1.05,1.18,1.35,1.94.54,1.32,2.26.69,2.99,1.75.33.41.59.94,1.06,1.2,1.16.66,2.13-.45,2.32-1.57.22-.92.37-1.85.57-2.76.09-.37.22-.77.53-.99.8-.49,1.95-.14,2.85-.46,3.18-.74,5.32-3.98,4.81-7.2-.09-.65-.13-1.14.24-1.52,1.23-.93,3.49-.97,4.59-2.14.58-.62.4-1.63-.3-2.08Z"/>
    <path class="cls-3" d="M521.25,133.33c0-1.61-1.31-2.92-2.92-2.92s-2.92,1.31-2.92,2.92,1.31,2.92,2.92,2.92,2.92-1.31,2.92-2.92Z"/>
    <path class="cls-3" d="M501.73,144.13c-1.38,0-2.5,1.12-2.5,2.5s1.12,2.5,2.5,2.5,2.5-1.12,2.5-2.5-1.12-2.5-2.5-2.5Z"/>
    <path class="cls-3" d="M499.28,130.78c-.01-.84-1.22-1.52-1.86-2.05-3.01-2.3-4.17-5.75-4.36-9.45-.05-.7-.02-1.5-.21-2.15-.53-1.63-1.58-.08-1.83.85-.85,2.7-2.17,5.38-4.76,6.78-.83.48-1.74.82-2.64,1.12-.99.3-3.04.84-1.6,2.01,1.09.83,2.3,1.64,3.09,2.8,1.2,1.63,1.88,3.76,2.09,5.83.16,1.11.03,2.3.23,3.39.67,2.17,2-1.38,2.41-2.08,1.59-2.9,3.95-4.88,7.2-5.77.74-.23,2.08-.45,2.24-1.26v-.03Z"/>
    <path class="cls-3" d="M285.77,381.13v-.04c-.16-3.15-1.42-6-2.91-8.75-1.13-2.33-1.36-4.93-1.98-7.41-.57-2.65-1.89-5.14-2.24-7.83.11-1.62,1.85-2.54,2.6-3.87,4.36-6.27,5.84-11.6,5.33-19.19,1.76-9.69-.7-18.09-6.64-25.84-5.92-7.62-9.53-7.31-18.18-9.08-2.52-.43-5.04-1.31-7.6-1.4-1.25,0-2.49.31-3.74.34-1.74.13-3.47-.27-5.2-.21-2,.35-3.99.75-6.02.94-1.75.24-3.53.01-5.23-.52-1.48-.3-6.01-1.15-5.78,1.22.39,2.57,1.06,5.13.61,7.74-.73,5.65.89,11.11,1.37,16.68.33,2.48-.86,4.87-.75,7.32.4,2.94,1.02,5.88,1.55,8.79.43,3-.57,5.94-.7,8.92.24,3.52.84,7.01,1.2,10.53.27,1.84.2,3.7-.2,5.51-.51,2.99-.24,5.95.08,8.91.27,2.99.63,5.99.53,9-.15,2.39-1.05,5.23,0,7.48.6.84,1.92.53,2.81.34,5.22-.93,10.56-1.46,15.85-1.07,3.28.03,5.39.43,4.51-3.73-1.39-7.11-.45-14.21-.72-21.53-.18-1.46.99-1.44,2.06-1.38,1.62-.16,3.31.22,3.86,1.94,1.27,2.93,2.36,5.93,2.88,9.1,1.06,4.18,2.85,8.12,3.8,12.34.52,2.89,1.16,4.03,4.39,3.62,2.78-.4,5.55-.63,8.37-.22,1.87.28,3.74.23,5.64.14,2.14.08,3-.87,2.43-3.02-.68-1.9-1.92-3.66-1.99-5.76ZM266.53,332.71v.04c.39,1.87.21,3.77-.14,5.63-.2,1.64-1.19,3-2.45,4-2.32,1.96-4.88,3.38-8.03,3.27-1.36-.05-1.93-.2-2.03-1.7-.22-2.41-.59-4.8-.64-7.21-.05-2.88,0-5.79.38-8.64.09-.69.16-1.38.17-2.08.02-2.24-.38-4.43-.52-6.64-.03-.7-.35-1.71,0-2.31.39-.46,1.23-.39,1.81-.44,1.89-.06,3.77-.11,5.65.16,1.28.18,2.6.52,3.47,1.48.7.76,1.13,1.72,1.54,2.65.49,1.16.84,2.42.97,3.68.14,1.38.03,2.68-.06,4.03-.21,1.41-.43,2.69-.11,4.08Z"/>
    <path class="cls-3" d="M411.93,349.67v-.04c.24-5.36-.23-10.76-1.77-15.92-.42-1.38-.92-2.75-1.23-4.16-.23-1.02-.27-2.09-.53-3.11-2.45-6.59-7.58-11.78-12.41-16.71-1.71-1.69-3.75-3.12-6.1-3.74-4.88-1.23-9.6-3.07-14.66-3.59-1.89-.2-3.79-.21-5.67.13-1.11.17-2.21.34-3.33.36-.98.03-1.97-.16-2.95-.28-1.74-.21-3.53,0-5.29-.22-.66-.07-1.58-.31-2.05.25-.32.51-.06,1.21.07,1.77.85,3.42,1.36,6.94,1.57,10.47.21,3.1-.42,6.1-.87,9.14-.32,2.64-.33,5.29-.1,7.97.19,2.08.67,4.13.63,6.23-.12,3.7-.6,7.38-.78,11.08-.15,3.57-.07,7.16.22,10.74.16,1.79.54,3.56.58,5.36.02,1.06-.06,2.12-.08,3.17.02,1.93-.34,3.84-.38,5.76.26,5.92.81,11.84.5,17.77-.04,1.22-.21,3.41,1.18,3.8.83.1,1.71-.24,2.53-.37,1.79-.36,3.71-.31,5.56-.12,2.31.24,4.58.73,6.83,1.25,2.41.56,4.87,1.18,7.33,1.17,2.38-.02,4.71-.62,7.06-.95,6.4-.83,9.35-2.23,13.88-6.86,2.35-2.27,4.91-4.51,6.29-7.55.62-1.25,1.03-2.6,1.35-3.96.44-1.86,1.18-3.64,1.27-5.54.04-1.07.02-2.15.21-3.21.58-2.97,1.84-5.85,1.59-8.93-.19-3.71-.6-7.43-.46-11.15ZM392.74,358.31v.04c-.42,1.66-.69,3.36-.7,5.07.03,2.22-.15,4.45-.64,6.55-.75,3.06-1.9,6.21-3.8,8.82-1.9,2.05-4.55,3.39-7.23,4.05-1.56.28-1.58-1.71-1.75-2.79-.12-.98.08-1.96.08-2.96,0-1.04-.16-2.08-.31-3.11-.49-2.8-.26-5.66-.1-8.46.1-2.39.87-4.71.82-7.12.1-2.35-.58-4.63-.91-6.93-.27-2.48.4-4.92.63-7.37.58-4.35.06-8.73-.46-13.06-.2-2.47-.14-4.94-.08-7.42,0-.91.35-1.92,1.49-1.57,5.82,2.45,9.66,7.99,11.39,13.95.56,1.87,1.08,3.87,1.21,5.82.05,2.48-.06,5.25.37,7.59.74,3.02.81,5.86-.02,8.91Z"/>
    <path class="cls-3" d="M112.1,160.36c-1.31.94-1.62,2.77-.68,4.08.94,1.31,2.77,1.62,4.08.68,1.31-.94,1.62-2.77.68-4.08-.94-1.31-2.77-1.62-4.08-.68Z"/>
    <path class="cls-3" d="M136.05,166.25c-.07.41-.15.82-.22,1.23-.13.67-.17,1.31-.63,1.65-.52.35-1.19.2-1.79.3h-.05c-3.69.39-6.1,4.17-5.26,7.71.15,1.21-1.2,1.38-2.04,1.74-1.25.45-3.61,1.15-2.68,2.85.27.42.76.63,1.2.84.81.31,1.02,1.11,1.33,1.83.54,1.25,2.17.62,2.89,1.61.32.39.59.89,1.04,1.13,1.12.61,2.03-.47,2.19-1.55.19-.88.32-1.77.49-2.65.07-.35.2-.74.49-.96.76-.48,1.86-.17,2.72-.5,3.02-.77,5.01-3.92,4.45-6.98-.1-.62-.15-1.08.2-1.46,1.16-.92,3.31-.99,4.34-2.14.54-.61.35-1.56-.33-1.98-.62-.4-1.46-.58-1.72-1.35-.77-2.64-2.03-1.12-3.28-2.53-.56-.92-1.55-1.78-2.55-.89-.51.49-.66,1.34-.79,2.09Z"/>
    <path class="cls-3" d="M227.07,382.12c-1.8-4.38-1.2-9.28-2.77-13.73-.24-.69-.49-1.37-.64-2.08-1.23-4.52-.17-9.26-.99-13.82-.25-1.29-.87-2.51-1.3-3.76-.8-2.27-1.22-4.63-1.29-7.05,0-2.59,0-5.2-.58-7.71-.52-2.74-1.81-5.29-2.17-8.06-.35-2.28-.16-4.63-.16-6.93,0-1.67-.12-3.35-.54-4.96-.81-2.72-1.77-5.44-1.93-8.31-.23-1.36.23-3.09-.57-4.26-.73-.66-1.9-.51-2.82-.54-1.54,0-3.14.06-4.7,0-1.95-.19-3.92-.66-5.89-.26-2.76.33-5.58.12-8.3.79-2.41.67-4.85,1.18-7.35,1.14-1.36,0-2.76-.1-4.11.07-1.88.15-1.36,2.27-1.4,3.59.05,2.72-.18,5.4-.91,8.01-.47,1.64-.93,3.3-1.13,5-.18,1.31-.16,2.65-.1,3.97.11,3.13-.51,6.13-1.52,9.08-.55,1.54-1.04,3.11-1.05,4.76.07,5.44-1.03,10.71-2.91,15.8-.84,2.55-.98,5.21-1.22,7.86-.25,3.81-2.02,7.23-2.87,10.9-.85,3.03-.01,6.17-.56,9.23-.33,1.9-1.02,3.71-1.7,5.51-1.11,3.21-2.15,6.45-2.91,9.75-.15,1.24.46,2.8,1.83,2.84.64,0,1.28-.23,1.9-.39,2.24-.63,4.5-1.04,6.84-.85,1.05.1,2.09.03,3.1-.22,2.16-.48,4.32-1,6.55-.97,1.09.02,2.51.12,3.26-.83.73-1.16.69-2.68.74-4.01.02-2.74.44-5.44.73-8.15.15-1.03.1-2.34.86-3.13,1.78-1.35,4.3-1.29,6.42-1.68,3.2-.46,6.45-.68,9.51-1.92.3-.12.7-.26.97-.2,1.12.26,1.67,5.4,1.79,6.5.18,1.88.04,9.19,1.6,9.93,3.03.84,5.91-1.39,8.9-1.63,1.8-.34,3.71-.03,5.54.23,1.44.08,5.03.26,5.53-1.4.22-2.75-.71-5.5-1.65-8.05v-.04ZM203.97,359.4v.04c-.03,1.16-.28,1.67-1.46,1.85-3.78.55-7.61,1.22-11.45,1.04-.97-.1-.75-1.06-.6-1.76.82-3.76,1.53-7.56,2.42-11.3.3-1.07.74-2.09,1.07-3.15.22-.67.37-1.37.47-2.07.49-3.26.77-6.54,1.26-9.79.11-.53.26-1.04.43-1.55.9-2.47,1.56-5.14,2.48-7.62.18-.27.27.54.3.74.39,3.03.85,6.04,1.33,9.05.25,1.75.38,3.53.8,5.26.63,2.22,1.67,4.34,1.83,6.68.16,4.21,1.27,8.35,1.12,12.57Z"/>
    <path class="cls-3" d="M169.83,346.22l.02-.04c1.04-2.56,1.96-5.49,1.91-7.99.04-5.09-.54-9.9-1.45-14.59-.27-1.37-.8-2.67-1.6-3.82-1.37-2.06-2.52-4.23-3.74-6.37-1.67-3.04-4.32-5.29-7.69-6.03-2.72-.78-5.28-1.89-7.78-3.19-1.02-.55-2.1-1.02-3.26-1.14-3.56-.4-7.01.67-10.48,1.17-1.53.21-3.05-.23-4.59-.15-4.26.55-8.51,1.31-12.77,1.97-2.22.4-4.4,1-6.64,1.22-1.6.24-4.12-.29-4.78,1.56-.32.93-.36,2.41-.32,3.53.06,3.82.53,7.6,1.14,11.36-.23,2.72.03,5.44.12,8.15-.09,3.15-.46,6.29-.4,9.44-.03,5.59.68,11.18.62,16.76-.09,3.2.07,6.41-.36,9.6-.21,1.28-.12,2.58.03,3.87.29,2.88.04,5.79.49,8.66.65,4.88.37,9.77-.16,14.63-.45,4.28-.52,8.59-.89,12.87-.15,2.37,3.12,1.63,4.49.95,4.14-1.94,8.65-1.59,13.07-1.97,1.83-.33,3.55-1.17,5.34-1.69,1.09-.45,2.86-.41,3.56-1.43.7-1.99.4-4.29.37-6.37-.45-6.13-1.33-12.28-.71-18.42.15-.96,0-2.06.21-2.97.49-1.59,3.26-1.52,4.63-2,1.89-.41,3.82-.65,5.67-1.21,2.61-.87,5.06-2.17,7.59-3.24,2.43-1.08,4.78-2.27,6.54-4.26.85-1.07,1.76-2.08,2.9-2.85,3.11-2.37,5.15-5.68,6.65-9.27.88-2.2,1.38-4.51,2.28-6.71ZM149.75,340.26v.04c-.03,2.93-.89,5.81-2.77,8.08-2.06,2.51-4.34,4.98-7.17,6.65-1.42.75-3.02.99-4.63,1.1-.43.03-.87.15-1.25.14-1.11-.04-1.2-1.48-1.22-2.32.63-5.4.94-10.81.79-16.25.11-3.97,0-7.94-.26-11.9-.01-.93-.3-2.36.94-2.53,3.07-.23,6.2-.09,9.26.29,1.21.18,2.37.64,3.47,1.15.49.23.96.55,1.25,1.01.2.3.33.65.46.99.43,1.22.96,2.41,1.08,3.71.11,3.27.04,6.56.04,9.83Z"/>
    <path class="cls-3" d="M110.94,295.33l.03-.03c6.93-6.79,8.99-16.43,7.2-25.77-.37-2.31.03-4.62.09-6.93.28-2.4-2.24-1.79-3.71-1.28-2.16.88-4.59.83-6.65,1.95-1.77.85-3.86.76-5.68,1.48-1.77.49-1.71,2.29-1.58,3.78.1,1.52.07,3.02-.06,4.52-.15,2.42.57,5.11-.82,7.24-2.78,4.53-8.89,6.38-13.86,4.7-1.86-.67-4.1-1.02-5.38-2.65-3.2-4.89-4.16-10.71-4.01-16.49-.07-3.13-1.12-6.14-1.33-9.25-.36-3.49.65-6.88.81-10.36.17-2.26-.14-4.57.09-6.84.77-3.98,1.8-7.92,3.65-11.58.93-1.97,2.27-3.65,3.7-5.28,1.07-1.7,2.22-3.38,4.13-4.26,3.12-1.73,7.99-1.96,9.6,1.86.82,2.55,2.03,4.9,2.77,7.46,1.03,2.9-1.44,7.93,1.57,9.81,1.03.41,2.22.25,3.29.08,4.42-1.02,9.01-1.5,13.44-2.28,1.75-1.36.5-5.94.29-7.92-.53-3.23.47-6.64-.79-9.75-2.63-9.78-9.45-15.46-19.17-17.44-2.17-.75-4.44-.88-6.7-1.05-2.3-.26-4.61-.4-6.89.14-1.4.36-2.75-.54-4.1.07-3.57,1.17-6.89,2.99-9.28,5.91-4.45,5.45-9.32,10.99-11.59,17.75-.6,1.87-.67,3.85-1.12,5.73-.61,2.66-1.58,5.24-1.89,7.96-.9,5.75-.78,11.54-.76,17.34-.2,5.67-1.31,11.47.72,16.98.38,1.09.52,2.22.49,3.37.05,3.55.97,6.99,1.77,10.43,1.53,6.27,6.47,10.85,10.95,15.19,1.59,1.41,3.45,2.45,5.47,3.09,2.64.98,5.17,2.57,8.09,2.48,5.74.32,10.6-1.14,15.7-3.65,4.28-1.36,8.47-3.15,11.51-6.53Z"/>
    <g>
      <path class="cls-3" d="M227,114.67h.04c1.61-.28,2.7-1.37,2.66-3.04.02-.97,0-2-.03-3.13,0-.44-.27-3.24.67-2.65.36.37.46,1.01.61,1.51.3,1.16.68,2.27,1.05,3.37.29.97.74,2.1,1.97,1.94,1.09-.12,2.42-.3,3.15-1.33.66-.93.12-1.9-.14-2.8-.48-1.48-.91-2.98-1.48-4.46-.18-.46-.35-.98-.16-1.49.34-.8,1-1.38,1.28-2.24,1.12-3.85,1.25-8.03-.42-11.04-1.75-2.7-4.5-1.56-7.21-.86-.82.24-1.65.52-2.47.74-1.47.35-2.19,1.27-2.23,2.78-.07.89-.08,1.79-.03,2.68.1,3.14.13,6.3.06,9.43,0,2.41-.03,4.8-.02,7.22.08,2.1-.11,3.99,2.73,3.37ZM229.63,99.95v-.04c-.07-1.55-.04-3.07-.05-4.63.05-.75-.2-1.66.49-2.08.55-.28,1.3-.3,1.69.15.45.57.17,1.43.26,2.12.05,1.3.22,3.23-.65,4.4-.47.58-1.7,1.25-1.74.08Z"/>
      <path class="cls-3" d="M205.78,112.84c.15,1.18.23,2.44.74,3.52.74,1.66,2.39,3.07,4.34,2.63,1.06-.18,2.14-.42,3.16-.75.78-.25,1.54-.59,2.17-1.18,1.92-1.92,3.07-4.46,3.35-6.95.18-1.62.15-3.24.34-4.87.07-1.52-.14-2.99-.11-4.51-.02-2.71-.45-6.27-2.59-7.93-2.07-1.5-4.75.05-6.95,1.01-2.06.9-3.42,2.74-3.92,4.88-.73,2.78-.95,5.59-.96,8.37-.07,1.99.12,3.87.43,5.74v.04ZM210.9,109.41v-.04c0-2.58-.26-5.2.15-7.78.17-1.06.26-2.28.95-3.21.82-.97,1.7-.47,1.8.64.27,2.15.56,4.28.73,6.44.02.41,0,.82,0,1.22-.12,1.64-.07,3.29-.38,4.94-.18.95-1.18,2.13-2.15,1.76-1.08-.62-1.03-2.82-1.09-3.97Z"/>
      <path class="cls-3" d="M255.53,125.68h.04c1.68-.23,3.25-.68,4.95-1,1.15-.26,1.8.01,1.88,1.23.11,1.58.17,3.14.22,4.71.04,1.14-.03,2.29.09,3.43.05.5.1,1,.1,1.51,0,.89-.19,1.8-.24,2.7-.1,1.35-.06,2.68-.04,4.02.09,3.6-.08,7.24-.03,10.85.03,1.94-.11,3.88-.14,5.84-.09,1.84.63,3.1,2.62,2.82,1.66-.2,4.69-1.06,4.9-3.14.1-.8-.03-1.75-.07-2.58-.06-1.07-.03-2.15,0-3.23.15-4.04-.02-8.06-.06-12.08-.02-3.56.09-7.13-.11-10.7-.09-1.41-.11-2.82.02-4.25.13-1.06.15-2.17.5-3.22.27-.75,1.09-.96,1.77-1.1,1.19-.28,2.29-.82,3.47-1.16,1.39-.37,2.78-.63,2.99-2.35.19-1.29.07-2.55.04-3.81-.03-2.13-1.72-1.79-3.34-1.38-3.58.98-7.13,1.97-10.73,2.72-2.95.81-5.88,1.65-8.84,2.4-1.96.66-1.84,2.62-1.72,4.26.18,1.43-.48,3.76,1.7,3.51Z"/>
      <path class="cls-3" d="M228.56,170.26c1.62.61,3.45-.55,5.06-1.02,1.6-.41,2.18-.93,2.42-2.6.31-1.83.68-3.61.84-5.43.22-2.48,1.59-3.3,3.82-3.82,1.34-.3,3.51-.96,4.63-.12.4.37.47,1.04.66,1.63.12.38.27.76.39,1.14.48,1.53.48,3.31,1.51,4.57.95,1.06,2.87.05,4.15-.08.96-.24,2.26-.3,3-1.11.79-1.19.19-3.09-.14-4.35-.29-1.01-.37-2.08-.6-3.1-.25-1.15-.59-2.26-.84-3.41-.48-2.99-1.28-5.89-1.97-8.83-.42-2.01-.6-4.09-1.1-6.06-.22-.87-.42-1.74-.59-2.62-.51-2.83-.87-5.68-1.52-8.46-.17-.96-.19-1.95-.45-2.88-.23-.84-.74-1.88-1.37-2.28-.63-.38-1.63-.11-2.38.03-1.92.4-3.79.78-5.7,1.21-1.99.44-2.78.87-3.23,2.98v.04c-.55,2.36-.96,4.71-1.36,7.08-1.48,9.26-3.22,18.5-4.52,27.76-.33,2.3-.67,4.59-1.04,6.89-.12.88-.47,2.35.32,2.84ZM238.47,149.83c.08-1.46.4-2.9.5-4.35.34-4.03.96-8.06,1.55-12.08.1-.45.13-1.56.59-1.7h.02c.14.02.29.25.4.56.55,1.63.69,3.39.93,5.11.23,2.82,2.51,9.47,1.48,11.84-.33.48-.94.64-1.68.85-.76.19-1.49.35-2.24.47-.66.1-1.57.21-1.55-.71Z"/>
      <path class="cls-3" d="M173.61,148.1c.84-.85.53-2.88.48-4.05v-.04c-.26-3.13-1.45-2.98-4.05-1.85-2.03.86-4.14,1.24-6.19,2.01-2.51.89-5.09,1.46-7.66,2.15-.72.2-1.63.45-2.26.85-1.6.99-.7,3.56-.69,4.99.07.67.14,1.61.91,1.75.34.07.72.01,1.07-.04.91-.16,1.75-.32,2.62-.65,1.79-.79,2.25-.28,2.51,1.53.25,1.42.02,2.88,0,4.34.01,6.51-.2,13.04-.05,19.54.04,2.18.01,4.37.02,6.56.03,1-.05,2.05.13,3.03.17,1.09,1.25,1.17,2.18.98.93-.16,1.82-.33,2.76-.65,3.11-1,2.06-3.11,2.29-5.5.29-2.24.2-4.47.1-6.68-.13-3.52-.25-7.1-.23-10.65.05-3.51-.18-7.01-.16-10.52,0-1.03.04-2.06.11-3.08.04-.54.08-1.31.35-1.69.25-.41,1.06-.61,1.64-.76.75-.18,1.54-.41,2.28-.67.88-.3,1.47-.53,1.84-.9Z"/>
      <path class="cls-3" d="M207.95,176.68h.04c.75-.32,1.47-.66,2.26-.79,3.81-.69,7.51-1.96,11.24-3.11.77-.25,1.73-.48,2.29-1.11.73-.97.32-2.27.36-3.35-.03-1.04.18-2.23-.51-2.96-.96-.85-2.45.04-3.55.4-1.39.5-2.82.7-4.23,1.07-1.93.63-3.09.74-2.92-1.65.09-1.86.15-3.71-.04-5.55-.1-1.8-.17-3.14,1.9-3.84,1.71-.66,3.42-.79,5.12-1.6,1.31-.58,1.74-1.32,1.62-2.7-.04-.76-.11-1.44-.05-2.19.03-.62.16-1.38-.24-1.86-.74-.75-2.79-.13-3.81.26-.99.47-3.2,1.37-3.99.57-.32-.36-.36-.96-.4-1.45-.16-2.19-.21-4.39-.04-6.6.07-1.54.5-2.35,2.1-2.71,1.64-.42,3.12-1.09,4.69-1.38,1.19-.31,3.03-.33,3.84-1.4.3-.47.33-1.1.35-1.64.02-1.1.04-2.15.07-3.24,0-.69.02-1.5-.41-2.02-1.25-1.46-6.64.95-8.46,1.42-2.25.69-4.52,1.35-6.77,2.06-.97.34-2.3.6-2.91,1.48-.41.66-.34,1.7-.32,2.46.05,1.24.09,2.47.09,3.7-.18,6.7-.08,13.37.12,20.03.04,3.22.07,6.45.11,9.67-.06,1.48-.14,2.97-.05,4.44.1,1.69-.08,4.55,2.51,3.58Z"/>
      <path class="cls-3" d="M196.75,159.86c.7-1.05,1.6-2.02,2.1-3.17,1.63-4.12,1.21-11.57.35-15.7-.61-2.79-3.03-4.96-5.9-5.16-1.2-.12-2.61.15-3.88.44-1.33.18-2.66.72-3.9,1.18-1.84.73-6.4,1.26-7.18,3.2-.48,1.18-.07,2.56-.06,3.73-.11,3.63-.1,7.26.03,10.87v.04c.03.92.11,1.89.11,2.84,0,1.25-.18,2.53-.18,3.79.09,5.37.05,10.76.06,16.13.01,1.08.02,2.14.01,3.23-.02,1.55.1,3.35,2.16,2.88.67-.13,1.32-.4,1.94-.66.96-.42,2.08-.81,2.77-1.67.93-1.16.65-2.72.65-4.1-.02-2.47.19-4.96-.12-7.4-.06-.74-.03-1.47.03-2.23.03-.71.41-1.35,1.12-1.55.58-.2,1.25-.37,1.65-.1.5.33.66,1.25.93,1.85.48,1.22,1.05,2.39,1.39,3.67.47,2.39,1.07,4.75,2.55,6.67,1.22,1.75,2.69,1.68,4.72,1.04,3.43-.79,2.82-2.31,1.79-4.83-.68-1.61-1.09-3.31-1.58-5-.55-1.83-1.22-3.61-1.85-5.41-.25-.81-.7-1.77-.69-2.61.05-.7.45-1.24.94-1.97ZM192.24,146.79c.01,2.07.04,4.09.02,6.1-.02.77.02,1.54-.12,2.31-.23,1.28-1.23,2.56-2.44,3.36-1.47,1.04-3.89,1.26-3.94-.95v-.04c.07-1.92.11-3.84.09-5.75-.01-1.13.1-2.29.01-3.39-.05-.68-.14-1.36-.07-2.06.13-.94.32-1.89.81-2.53.48-.48,1.1-.52,1.87-.7,2.38-.58,2.98.11,3.61,2.3.11.46.15.88.16,1.35Z"/>
      <path class="cls-3" d="M174.87,128.04h.04c1.28-.17,2.39-.81,3.6-1.16.6-.18,1.3-.38,1.64-.98.26-.45.3-1.01.33-1.51.03-1,.09-1.99.06-2.98-.13-1.72-.31-3.42-.25-5.16-.03-1.76.2-3.53.77-5.24.3-.79.49-2.1,1.42-2.31.45-.06.75.46.88.87,1.33,4.2,2.65,8.42,4.03,12.6.34,1.14.92,1.78,2.22,1.54,1.6-.24,4.99-.7,5.31-2.74.03-1.08-.58-2.03-.88-3.02-1.93-5.3-3.61-10.7-5.61-15.97-.33-.88-.73-1.83-.73-2.79-.01-.73.23-1.48.51-2.18,1.87-4.57,3.71-9.13,5.6-13.68.73-1.9,1.41-5.23-1.54-4.9-1.94.19-3.61,1.12-4.57,2.84-.44.75-.77,1.66-1.05,2.47-1.46,4.22-2.91,8.43-4.37,12.64-.29.8-.54,1.59-.95,2.34-.27.48-.73.75-.93.15-.13-.41-.1-.93-.11-1.38,0-3.65.09-7.32-.04-10.95-.1-1.56.24-4.32-1.95-4.2-.56.05-1.12.28-1.65.48-1.08.41-2.22.87-2.79,1.95-.38.67-.44,1.52-.45,2.29,0,2.1-.08,4.19-.12,6.29.28,9.13-.4,18.32-.27,27.46.02,1.78.04,3.53.17,5.31.08,1.15.22,2.14,1.69,1.89Z"/>
      <path class="cls-3" d="M108.87,144.37c.23.54.79.66,1.45.59h.04c2.14-.28,5.44-1.04,5.48-3.76.02-2.4.14-4.86-.06-7.43-.06-.8-.22-1.56-.16-2.39.08-.86.32-2,.99-2.58.52-.42,1.37-.53,1.94-.23.87.49,1.01,1.75,1.24,2.68.59,2.53,1.61,4.9,2.1,7.46.2,1.28.74,2.56,2.25,2.45,1.04-.05,2.08-.26,3.07-.65,3.01-1.08,2.12-3.24,1.35-5.41-1.04-2.77-1.46-5.8-2.63-8.52-.3-.71-.72-1.52-.59-2.33.23-1.18,1.36-2.06,1.89-3.13.63-1.11,1.02-2.3,1.29-3.54.63-3.04.65-6.09.64-9.12.12-5.93-2.02-10.96-8.81-9.54-1.9.52-3.75,1.26-5.66,1.75-.94.27-1.88.53-2.82.8-1.01.29-2.36.69-2.95,1.64-.46.71-.37,1.64-.44,2.51-.17,2.04-.04,4.08,0,6.11.25,7.23-.09,14.52.05,21.76-.03,2.65-.16,5.31-.01,7.94.08.95.01,2.03.37,2.92ZM115.8,120.3v-.04c-.28-3.22.13-6.51.02-9.75.03-1.17-.16-2.74.87-3.56,1.93-1.38,4.91-1.21,5.23,1.41.19,2.04.03,4.14,0,6.21-.15,1.67.13,3.64-1.07,5.01-.81.95-1.99,1.44-3.16,1.71-1.06.28-1.79.23-1.89-1Z"/>
      <path class="cls-3" d="M136.28,137.71h.04c.73-.26,1.45-.56,2.2-.7.77-.16,1.71-.32,2.23-.87.47-.48.52-1.2.56-1.86.04-.87.14-1.72.17-2.58.02-.92-.08-1.82-.09-2.73-.01-3.74.16-7.48.35-11.23-.26-5.53.07-11.12-.14-16.66-.04-1.32-.05-2.63.03-3.96.03-1.26.38-3.17-1.11-3.42-1.04-.12-2.45.18-3.54.54-1.73.6-2.71,1.41-2.66,3.29-.07,2.34-.12,4.67.07,6.98.23,6.52-.24,13.08-.12,19.61-.15,3.19-.13,6.35-.03,9.52.01.76-.13,1.51-.13,2.27,0,1.27.85,2.31,2.17,1.81Z"/>
      <path class="cls-3" d="M154,133.33h.04c1.9.02,3.68-.42,5.51-.98,2.65-.71,4.86-2.48,6.29-4.91,1.48-2.38,2.37-5.01,2.8-7.69.14-1.13.42-2.36.19-3.47-.21-.89-1.09-1.49-2.01-1.45-.72,0-1.4.42-2.07.66-.7.3-1.66.29-2.13.96-.37.69-.34,1.56-.48,2.31-.27,1.99-.42,4.26-2.02,5.78-1.09,1.07-2.8,1.72-4.22,1.24-1.95-.62-2.18-4.49-2.38-6.34-.32-6.07-.43-12.2.71-18.35.33-1.79.87-3.62,2.42-4.84,1.35-1.12,3.4-1.36,4.29.06.72.87,1.04,1.99.83,3.18-.13,1.04-.02,2.09.19,3.09.16.73.41,1.12.91,1.24.84.17,2.43-.18,3.38-.61,1.67-.73,2.38-2.33,2.33-4,.05-2.62.05-5.33-1.15-7.6-1.52-2.87-4.44-4.59-7.67-4.25-2.33.33-4.71,1.48-6.47,2.96-2.03,1.69-3.66,4.03-4.74,6.43-3.3,8.38-2.79,17.29-2.21,25.77.11,1.14.32,2.25.6,3.33.99,3.72,2.62,7.51,7.07,7.49Z"/>
      <path class="cls-3" d="M85.06,117.52h.04c1.06-.46,2.19-.74,3.29-1.07,1.88-.66,1.89.5,2.04,1.99.15,1.99.03,3.97.03,5.96.14,7.51.06,15.04.12,22.56.01,1.4-.61,3.6.96,4.2,1.66.23,3.95-.43,5.3-1.62.71-.57.95-1.43.88-2.27-.04-1.05.18-2.09.19-3.14.02-1.25-.14-2.47-.15-3.69.03-2.56.02-5.12.08-7.68-.01-1.45-.15-2.89-.17-4.33-.03-1.43.1-2.88.08-4.31-.19-3.1-.17-6.21-.2-9.33-.02-.85.58-1.48,1.34-1.78,1.25-.57,2.52-.84,3.82-1.15,1.18-.26,1.48-.98,1.45-2.1.02-.74.13-1.49.11-2.22-.04-.78-.13-1.95-.46-2.55-.17-.25-.43-.29-.88-.23-.99.16-2.06.37-3.05.65-1.35.39-2.66.94-4.01,1.35-3.42,1.01-6.77,2.38-10.23,3.27-.67.18-1.5.45-1.95.96-.91,1.05-.49,2.81-.44,4.1.01,1.25.14,3.04,1.83,2.46Z"/>
    </g>
    <path class="cls-3" d="M77.22,167.82c1.69.12,3.1.81,4.33,1.99,1.04,1,1.71,2.23,2.33,3.5.18.39.32.82.83.81.45-.05.49-.35.49-.66.02-3.32,1.44-5.92,4.09-7.87.76-.56.55-.83-.18-1.04-1.37-.4-2.63-.97-3.64-2.03-1.25-1.32-2.26-2.77-2.86-4.51-.13-.39-.35-.85-.88-.8-.66.06-.45.61-.48,1-.29,3.45-.84,6.76-4.39,8.54-.25.13-.51.39-.39.73.12.33.46.32.76.34Z"/>
    <path class="cls-3" d="M473.32,140.23c-.23-2.88-1.65-6.02-4.2-7.65-.18-.11-.82.18-1,.08.02-3.23-.47-6.4-.96-9.59-.48-3.2-.5-6.5-1.46-9.58-.96-3.09-2.56-5.94-3.98-8.84-1.42-2.9-3.08-5.65-4.93-8.3-1.85-2.65-4.11-4.9-6.36-7.22-2.24-2.31-4.51-4.52-7.13-6.44-1.17-.9-2.05-2.08-2.92-3.24-1.69-2.16-2.41-4.92-4.32-6.72-1.97-1.96-4.48-2.82-7.11-3.42-2.5-.54-4.93-1.52-7.44-2.05-2.55-.53-5.02-1.3-7.49-1.83-.08-.02-.09.03-.17.01-2.52-.53-5.1-1.03-7.68-1.58-2.55-.54-5.2-.72-7.76-1.24-2.23-.43-4.49-.47-6.71.09-3.16.66-4.88,3.65-7.57,5.1-1.05.58-2.39.15-3.57.44-2.98.65-5.81,2.06-8.65,3.18s-5.45,2.72-8.1,4.24c-2.64,1.52-5.69,2.53-8.1,4.42-2.39,1.88-4.69,4.04-6.81,6.24-2.58,2.67-4.49,5.92-6.52,8.95-2.04,3.04-3.43,6.62-4.92,10.02-2.59.51-4.66,1.67-6.07,4.13-1.58,2.64-3.9,4.87-5.21,7.65-1.31,2.78-2.07,5.8-3.11,8.7-1.03,2.89-2.55,5.67-3.3,8.65-.75,2.98-.54,6.17-1,9.21-.46,3.04-1.6,6.02-1.76,9.09s.98,6.14,1.13,9.21c.14,3.07-.74,6.24-.29,9.28.48,2.82.98,5.78,1.82,8.56.84,2.78,2.24,5.45,3.61,7.98,1.37,2.53,2.99,5.08,5.05,7.16,1.85,1.85,3.63,1.85,2.78-1.17-.66-2.41-1.01-4.98-1.05-7.48.27-1.84,1.79,5.92,2.35,6.58,1.23,2.62,3.43,4.93,5.25,7.43s4,4.53,6.28,6.46c2.35,1.98,4.74,3.88,7.54,4.9,2.82,1.03,5.76,1.26,8.74,1.1.4-.02.78-.17,1.06-.45.72-.72.25-1.72-.09-2.56-.61-1.53-.75-3.21-1.04-4.84-.07-.41.47-.63.7-.27,3.09,4.89,6.9,9.88,11.47,13.24,2.78,2.04,5.56,3.99,8.82,4.62,3.07.59,6.47.32,10.01-.56,2.9-.72,5.57-2.75,8.82-4.58,2.14-1.23,4.07-2.46,6.02-3.88,1.15-.86,3.87-1.68,2.2.58-1.25,1.73-3.99,2.84-5.46,4.5-.33.35-.68,1.81-.53,2.3.63,1.6,3.65,2.51,6.47,3.07,2.7.54,5.52-.07,6.99-.27,3.3-.28,6.51-.37,9.44-1.67,2.94-1.3,5.86-2.82,8.49-4.74,2.61-1.91,5.03-4.15,7.39-6.3,2.62-2.33,1.55.29.07,2.23-1.1,1.76-7.07,7.04-2.02,5.72,2.47-.83,4.31-3.13,6.47-4.64,2.16-1.51,4.56-2.72,6.36-4.58,2.11-2.26,3.61-4.98,5.37-7.5s3.33-5.12,4.76-7.85c2.26-4.4,4.28-8.87,5.78-13.57.35-1.1.81-2.13,1.23-3.19,1.31-3.11,1.36-6.66,1.99-9.95.5-2.85,1.81-5.77,1.81-8.7.29-3.09.64-6.21.62-9.32-.02-3.1.25-6.27-.09-9.38ZM442.29,179.52c-2.12,2.55-4.14,4.95-6.6,7.01-2.52,2.11-4.81,4.5-7.64,6.07s-5.81,3.13-8.93,4.12c-3.07.98-6.43.95-9.71,1.33-1.71.11-4.13,1.06-5.47-.19-1.08-1.02-.69-3.86-1.25-5.53-.56-1.92-2.31-1.83-4.4-2.01-5.12-.37-3.47,4.14-5.83,6.55-1.66,1.36-6.59.14-11.22-1.37-4.36-1.42-8.93-2.89-10.68-3.84-2.92-1.52-5.66-3.48-8.36-5.37-2.71-1.9-4.97-4.34-7.31-6.66-2.32-2.31-4.19-4.94-6.01-7.74-1.95-3.11-3.66-6.35-4.99-9.84s-2.3-6.99-2.73-10.64c-.08-5.56,3.82-3.36,6.49-.98,2.12,1.68,4.49,2.96,6.75,4.41,2.27,1.44,4.5,2.89,6.94,4.07,2.34.99,2.75,2.7,2,5.34-.02.08.49.23.47.31-.69,2.99-.38,4.51,2.72,6,1.99.95,4.98,3.43,7.02,2.62,2.77-1.19,1.77-6.26,5.18-6.42,1.29,0,2.62.05,3.87.42,3.21,1.03,6.58,1.45,9.87,2.21,3.29.76,6.59,1.1,9.95,1.46,1.71.23,3.7,1.02,4.5,2.81.75,1.6.32,4.11,1.15,5.76.67,1.51,2.2,2.49,4.01,2.61,1.82.1,3.7-.56,4.95-1.5,2.96-2.66.45-6.82,6.34-6.92,3.09-.08,6.09-1.44,9.15-1.79,3.07-.35,6.3.31,9.32-.37.96-.2,1.78-.3,2.74-.22,5.03.82-.81,6.14-2.27,8.28ZM358.58,131.81c2.55-1.95,5.01-3.98,7.69-5.74,2.66-1.73,5.99-4.78,9.02-3.98,3.81,1.1,4.85,5.87,5.6,9.23.77,4.51,1.06,9.31.44,13.84-.62,3.84-4.23,4.22-7.68,3.1-.09-.03-.1.02-.19,0-2.45-.73-5.02-1.28-7.42-2.21-2.39-.94-4.71-2.13-7.02-3.23-3.72-1.63-5.38-3.65-5.51-5.46-.14-1.85,1.92-3.28,5.06-5.54ZM411.36,153.03c.09-.7.31-1.41.51-2.07.5-1.63,1.25-3.18,2.16-4.62,1.37-2.18,2.4-4.65,3.7-6.58,2.06-2.53,4.48-6.41,8.06-6.53,2.43,0,4.88,3.6,7.22,7.02,2.18,3.18,4.44,6.5,5.63,8.39,2.05,3.49,2.75,6.23,1.79,7.87-.92,1.59-3.56,2.78-7.71,2.75-2.55.02-5.17-.16-7.76-.26-1.38-.18-2.77-.51-4.15-.59-1.47-.08-2.94.11-4.4-.14-1.08-.19-2.1-.62-3.01-1.24-.68-.46-1.31-1.04-1.7-1.76-.39-.71-.44-1.48-.34-2.26ZM375.37,103.24c-2.99-.2-6.01-.06-9-.11-2.99-.05-5.98.64-8.96.72-2.98.07-6.36.26-9.34.44,1.31-2.49,3.42-4.95,5.12-7.14,1.72-2.21,3.29-4.55,5.35-6.43,2.05-1.88,4.26-3.65,6.59-5.19,2.32-1.53,4.66-3.2,7.21-4.37,2.52-1.16,5.26-2.01,7.95-2.8,1.58-.46,3.42-.33,4.94.23,2.28.89,4.31,2.15,6.8,2.66,2.95.7,5.86,1.6,8.83,2.22s5.85,1.67,8.82,2.31c2.97.61,5.88,1.5,8.85,2.13s5.95,1.21,8.93,1.77c2.5.56,5.04-.33,7.5-.23,1.54.1,3.01.57,4.22,1.56,2.16,1.8,4.43,3.53,6.29,5.6,1.88,2.09,3.49,4.45,5.01,6.78,1.54,2.35,2.17,5.16,3.3,7.72,1.13,2.56,2.53,4.98,3.21,7.71.67,2.7,1.3,5.64,1.47,8.46-2.85-1.48-5.56-3.69-8.48-5.03-2.92-1.34-5.93-2.57-8.91-3.77-2.98-1.2-6.2-1.81-9.24-2.87-3.03-1.06-6.24-1.55-9.33-2.47s-6.22-1.52-9.34-2.31c-3.12-.78-6.02-2.48-9.17-3.13-3.15-.65-6.39-.79-9.57-1.31s-6.27-1.61-9.47-1.99c-3.19-.38-6.4-.91-9.6-1.16Z"/>
  </g>
  <g class="cls-4">
    <circle class="cls-2" cx="281.65" cy="76.74" r="1.81"/>
    <path class="cls-2" d="M307.47,76.93c.42.13.83.25,1.25.38.68.21,1.33.34,1.63.85.3.58.06,1.26.09,1.89v.05c-.07,3.87,3.55,6.84,7.32,6.41,1.27,0,1.28,1.41,1.55,2.33.31,1.35.74,3.88,2.62,3.13.47-.22.75-.71,1.02-1.14.42-.8,1.28-.92,2.06-1.15,1.36-.4.91-2.17,2.03-2.79.44-.28.99-.5,1.3-.94.77-1.09-.24-2.16-1.33-2.46-.89-.31-1.8-.55-2.69-.83-.36-.12-.74-.3-.93-.62-.4-.85.05-1.95-.18-2.88-.43-3.23-3.44-5.68-6.68-5.48-.65.02-1.14.02-1.48-.39-.81-1.31-.62-3.56-1.67-4.76-.56-.64-1.58-.56-2.1.1-.49.59-.79,1.44-1.61,1.62-2.84.47-1.41,1.96-3.03,3.08-1.02.46-2.04,1.39-1.24,2.53.45.59,1.3.85,2.07,1.08Z"/>
    <path class="cls-2" d="M295.23,127.83c1.38,0,2.5-1.12,2.5-2.5s-1.12-2.5-2.5-2.5-2.5,1.12-2.5,2.5,1.12,2.5,2.5,2.5Z"/>
    <path class="cls-1" d="M303.9,105.32c-1.94,0-3.51,1.57-3.51,3.51s1.57,3.51,3.51,3.51,3.51-1.57,3.51-3.51-1.57-3.51-3.51-3.51Z"/>
    <path class="cls-2" d="M288.41,94.43c-.38-.68-.65-1.51-1.15-2.09-.92-1.04-1.39.58-1.49,1.35-.43,2.57-1.21,5-3.37,6.62-.66.52-2.32,1.52-.95,2.18.36.19.85.34,1.26.49,1.94.66,3.51,2.21,4.51,3.98.45.67.81,1.94,1.67,2.07h.03c.6-.16.74-1.17.88-1.74.44-2.11,1.48-3.9,3.1-5.34.42-.39.9-.73,1.24-1.19.11-.14.24-.43.19-.61-.21-.74-1.36-1.02-1.98-1.43-1.73-.98-3.01-2.59-3.94-4.29Z"/>
    <circle class="cls-1" cx="306.49" cy="139.73" r="1.81"/>
    <path class="cls-1" d="M283.72,197.43v-.04c-.03-1.23-1.1-1.55-2.12-1.53-2.68-.18-5.29,0-7.94.32-8.57.51-16.97-2.11-25.55-1.56-1.08.02-2.16,0-3.21-.25-.94-.24-1.81-.64-2.77-.73-3.07-.41-6.18-.21-9.26-.35-1.09-.03-2.15-.63-3.24-.75-1.84.14-1.35,2.83-1.28,4.11.75,4.81,2.48,9.46,2.69,14.36.06,3.2.69,3.42,3.7,2.95,2.45-.44,4.58-.46,6.93-.32,1.95.15,4.18-.48,5.76.76,1.74,2.34-.12,8.89.18,11.98,0,2.76.74,5.45.81,8.2.04,1.16-.16,2.33-.34,3.48-.44,3.01-.2,6.06.17,9.1.41,3.51.46,7.05.14,10.57-.44,3.46-.61,6.95.07,10.39.47,4.05-.94,8.02-.82,12.08,0,2.4.53,4.77.3,7.19-.35,2.04.88,2.24,2.67,2.06,1.38-.07,2.76-.2,4.14-.29,4.19-.35,8.36.18,12.46,1.07,1.81.25,1.56-1.74,1.51-2.94-.03-1.27.09-2.54.02-3.78-.16-1.6-.51-3.19-.48-4.79,0-4.32,1.1-8.66.39-12.97-.48-3.42-1.08-6.81-.76-10.27.24-1.86.03-3.71-.31-5.54-.9-4.61.08-9.23.33-13.83,0-1.55-.42-3.07-.59-4.61-.3-2.13-.05-4.32.29-6.45.27-1.95.45-3.91.38-5.88-.03-.81-.09-1.6.06-2.41.46-3.49,4.24-2.79,6.8-2.55,1.77.07,4.63,1.19,6.18.31.57-.52.71-1.63.88-2.44.19-1.26-.34-2.52-.33-3.78-.18-3.73,2.4-7.08,2.1-10.87Z"/>
    <path class="cls-1" d="M128.82,154.59c1.12-.8,1.38-2.36.58-3.48-.8-1.12-2.36-1.38-3.48-.58-1.12.8-1.38,2.36-.58,3.48.8,1.12,2.36,1.38,3.48.58Z"/>
    <path class="cls-1" d="M183.01,276.2v.04c1.52,4.53,4.12,7.26,8,9.88,3.44,2.66,5.74,4.03,10.27,3.72.98-.02,1.96.12,2.92.34,8.66,2.08,17.46-2.04,23.29-8.42,2-2,2.99-4.66,3.78-7.33.83-2.73,1.36-5.49,1.22-8.4-.04-.89-.09-1.79-.11-2.68.08-3.23-1.61-6.11-2.43-9.16-1.12-3.78-1.41-4.63-4.36-7.32-2.24-2.08-4.87-3.7-6.99-5.92-1.73-1.72-3-4.04-5.45-4.8-2.99-.74-4.78-1.74-6.25-4.55-.82-1.46-1.8-2.77-2.99-3.93-.7-.68-1.41-1.4-1.84-2.29-.88-1.98-.99-4.3-.68-6.43.5-3.39,3.69-5.2,6.99-4.05,2.99.97,4.77,4.09,4.43,7.15-.3,2.88-.6,5.62,3.02,6.1,1.01.17,2.02.4,3.05.44,1.16.04,2.31-.1,3.43.19,1.32.32,2.52.93,3.9,1,2.99.27,3.7-1.21,3.34-3.92-.14-2.59.81-5.26.12-7.85-1.58-8.87-4.84-17.94-15.41-19.06-1.1-.15-2.23-.18-3.28-.41-.91-.19-1.79-.64-2.73-.81-1.34-.27-2.68-.02-4.06.09-6.98.26-13.34,1.64-17.51,7.8-.78,1.13-1.62,2.26-2.17,3.51-.62,1.66-.9,3.44-1.49,5.13-.35,1.09-.79,2.14-1.1,3.24-.52,1.77-.48,3.68-.4,5.51.15,3.99,1.85,7.72,3.4,11.35,1.45,3.27,3.26,6.47,6.08,8.77,1.67,1.4,3.47,2.66,4.92,4.3.78.88,1.35,1.91,2.27,2.63,2.34,1.85,4.79,3.55,7.37,5.06,1.29.7,2.38,1.69,3.14,2.95,1.02,1.55,2.02,3.11,3.03,4.67.78,1.21,1.66,2.39,1.92,3.83,1.35,6.3-6.26,10.23-11.31,7.63-3.28-1.84-3.12-6.58-3.04-9.94.1-1.54-.11-3.21-1.16-4.47-.68-1.02-1.79-1.29-2.94-1.4-2.4-.34-4.28-2.25-6.79-2.08-1.4-.04-2.76-.25-4.13-.54-.87-.16-1.92-.44-2.7.07-1.49,1.28-.77,3.88-.34,5.56.53,2.14.89,4.33.76,6.55-.24,2.8-.02,5.63.98,8.28Z"/>
    <path class="cls-1" d="M176.8,217.99v-.04c-.86-3.95-.79-7.65-4.15-10.54-.77-.69-1.54-1.37-2.24-2.12-1.92-1.97-3.98-3.86-6.56-4.9-6.59-2.67-13.96-2.37-20.79-.91-2.68.6-5.37,1.4-7.7,2.89-.98.62-1.86,1.39-2.75,2.1-1.39,1.09-2.81,2.18-3.86,3.59-.92,1.17-1.5,2.58-1.94,3.99-.95,3.23-2.84,6.12-3.64,9.39-.26,1.14-.36,2.32-.34,3.49.05,3.42.22,6.84-.13,10.25-.1,1.09-.31,2.17-.45,3.25-.55,4.58,1.17,8.95,1.28,13.5.18,3.71-.96,7.3-.26,11.04.6,2.66,1.1,5.31.8,8.05-.1,1.49-.51,2.99-.48,4.47.22,6.42,4.97,12.34,9.78,16.21,4.05,2.48,8.56,4.03,13.21,3.85,3.7.22,7.3-.36,10.48-2.17.85-.44,1.77-.64,2.71-.79,3.93-.64,7.58-2.51,10.21-5.54,1.4-1.66,2.37-3.61,3.39-5.54.72-1.31,1.2-2.77,1.35-4.24.32-5.15-.08-10.34.78-15.45.71-4.01,1.1-8.05.49-12.08-.36-2.28-.75-4.63-.22-6.91,1.12-3.6,1.06-7.38.53-11.08-.09-3.91.06-7.84.55-11.73.09-.68.11-1.38-.02-2.05ZM156.07,226.15v.04c-.36,3.29-.98,6.59-.4,9.92.09.57.17,1.15.17,1.73-.23,3.7-.6,7.4-1.16,11.07-.2,1.87.2,3.71.56,5.53.42,2.29.26,4.56.25,6.84.26,3.89-.32,7.75-.46,11.63.02,4.44-1.4,5.72-5.7,6.36-2.9.74-4.25-2.13-4.62-4.55-.37-1.78-.53-3.61-.26-5.43.22-1.31.49-2.61.46-3.94-.12-3.79-1.06-7.54-.38-11.33.74-5.02-.93-10.03-.59-15.03.35-3.52.22-7.06.32-10.58.08-4.25,1.49-9.35,4.89-12.14,2.52-1.89,5.53-.62,6.57,2.18.65,2.5.55,5.14.33,7.71Z"/>
    <path class="cls-2" d="M511.62,182.02c0-1-.81-1.81-1.81-1.81s-1.81.81-1.81,1.81.81,1.81,1.81,1.81,1.81-.81,1.81-1.81Z"/>
    <path class="cls-1" d="M359.72,292.62h.05c3.96.67,3.11-3.92,2.83-6.41-.24-6.36,1.66-12.64.89-19.03-.25-5.14,1.72-10.12,1.6-15.24-.06-2.71-.54-5.51-.14-8.21,1.57-6.68,2.26.14,2.37,2.75,1.35,5.17,2.51,10.32,2.89,15.67.61,3.74,1.97,7.29,2.67,11.01.68,4.05-.1,8.59,5.48,7.84,3.54-.93,8.18,4.01,10.14-.99.92-2.38.84-5.13,1.56-7.55.65-2.96,1.88-5.78,2.06-8.85.05-2.6.98-5.04,2.15-7.32,3.04-4.49,2.43-10.79,5.75-15.01,1.95-.74,1.32,7.46,1.55,8.99.85,5.53-.35,10.93-.44,16.47.48,5.83,1.03,11.5.05,17.34-.02,3.97-1.23,9.38.35,12.43.65,1.34,6.72-.23,10.55.95,3.15.79,9.31,2.94,8.9-2.48-.17-4.06.33-8.07.4-12.12-.73-12.23.19-24.5-.43-36.76.27-4.38,1.15-8.73.34-13.11-.14-1.13-.53-1.67-1.17-1.88-1.19.23-2.38.41-3.58.52-.71.08-1.51.13-2.39.13-.71,0-1.45-.03-2.21-.08-.21-.01-.43-.03-.66-.05-1.99-.17-4.02-.51-5.78-.97-3.03-.8-5.41-2-7.13-3.59-4.17,1.71-8.25,2.63-12.19,2.76-.43,1.26-.86,2.52-1.32,3.81-.77,2.14-2.17,8.05-3.16,4.68-.77-3.05-1.74-6.04-2.44-9.1-5.92-1.27-11.37-4.48-16.31-9.6-.41.13-.84.23-1.27.31l-.23.04-.23.02c-.94.1-1.89.15-2.83.15-4.07,0-8.11-.95-11.95-2.79.04.92.03,1.85-.08,2.77-1.02,5.39-.25,10.9-1.03,16.31-1.18,5.36-1.24,10.74-.45,16.15-.62,6.8-1.69,13.55-1.34,20.43-.41,5.54-1.16,11.07-.68,16.62.45,3,4.01,2.58,6.29,2.67,1.59.05,3.12.56,4.67.53,2.02-.09,3.9-.55,5.95-.21Z"/>
    <path class="cls-1" d="M466.44,400.26v-.04c.13-1.99,1.13-5.49-1.66-6.06-3.41-.67-6.84-1.13-10.29-1.4-5.75-.3-10.98-3.07-16.61-4.05-1.2-.16-1.78-.77-1.64-2,.16-4.42.31-8.83.53-13.25.08-2.21,1.08-2.48,2.99-1.9,2.19.47,4.4.52,6.63.51,3.14-.03,6.07,1.29,9.15,1.77,2.25.61,2.21-1.38,2.19-3.04-.02-2.22,0-4.44-.04-6.66,1.3-12.46-1.51-5.92-9.75-9.48-1.57-.55-3.18-1.1-4.85-1.21-1.93-.09-4.51-.03-5.96-1.44-1.11-1.89.32-4.85-.29-7.1-.17-1.5-.59-2.95-.66-4.45.02-2.68.69-5.31.59-8-.28-3.32,2.15-2.19,4.3-1.93,3.85.08,7.59.81,11.19,2.17,3.32,1.27,6.99.87,10.36,1.94,3.09,1.45,3.12-1.97,2.96-4.16-.47-2.55-1.25-5.07-1.27-7.67-.22-5.48,1.87-7.97-5.36-8.26-4.86.37-9.42-1.52-14.18-2.15-2.79-.27-5.57-.27-8.2-1.35-5.24-1.47-10.57-2.47-15.99-2.92-1.96-.51-4.52-1.78-6.38-.53-.28.38-.29.96-.31,1.42-.04,3.09.1,6.21.83,9.23.4,1.72,1.16,3.36,1.41,5.12.4,2.33.08,4.69-.17,7.01-.63,5.2,1.49,10.25.66,15.46-.93,4.31.22,8.6.18,12.93-.07,2.83-.65,5.63-.53,8.47-.01,1.94.57,3.85.53,5.79-1.09,7.47-.85,15-.8,22.53-.61,9.38,2.86,6.96,9.96,7.88,2.81.4,5.48,1.41,8.21,2.13,3.85,1.04,7.85,1.38,11.74,2.26,2.64.55,5.13,1.66,7.76,2.24,3.65.63,7.31,1.15,10.89,2.11,3.9.47,1.29-9.47,1.89-11.92Z"/>
    <path class="cls-1" d="M299.07,286.51l.03.02c4.21,3.5,9.69,3.84,14.89,3.98,2.71.03,5.04-1.86,7.49-2.92,6.25-2.24,9.31-8.88,12.23-14.36,1.37-3.67,1.09-7.51.56-11.32-.36-3.14.57-6.19.95-9.27.35-3.03-.1-6.09.31-9.11.19-2.16.73-4.29,1.03-6.45.64-3.19-.44-6.29-.72-9.44.71-3.92,1.96-7.8,1.78-11.85-.02-1.52-.05-3.04-.04-4.56-2.72-2.53-4.96-5.28-6.77-7.93-2.44-.01-4.73-1.08-7-3.24-1.51-.03-3.02-.18-4.52-.56-.72-.17-1.69-.48-2.27.09-2.3,5.96-.77,12.89-.23,19.12.84,4.39-1.57,8.41-1.5,12.76-.08,2.89.79,5.68.88,8.54-.17,2.74-.34,5.49-.89,8.19-1.22,5.89,1.4,11.6.23,17.42-.19,1.37-.05,2.91-1.14,3.89-1.58,1.45-4.37,2.05-5.22-.5-.99-2.63-.42-5.42-.89-8.12-1.2-4.41.02-8.74.28-13.15-.46-4.33-1.45-8.65-.7-13.02.66-4.68-1.42-9.22-.35-13.86.9-4.56-.25-9.08-.19-13.65.09-2.5.88-4.93.71-7.44.32-2.4-1.91-1.72-3.46-1.81-2.74.1-5.4-.5-8.07-1-2.38.06-4.75.4-7.09.82-1.23.3-3.39-.34-3.37,1.53.22,2.7-.15,5.41.41,8.08.31,2.61-.43,5.22-.25,7.84-.02,2.19.75,4.27.76,6.45-.11,6.82.14,13.64.3,20.45-.45,3.89-.49,7.86.34,11.71.72,3.46-1.1,6.98-.36,10.47.68,3.74,1.63,7.47,2.71,11.11,2.32,4.21,5.23,8.21,9.15,11.06Z"/>
    <path class="cls-1" d="M351.77,386.91v-.04c-1.34-3.72-1.9-7.61-1.82-11.55.13-3.1.22-6.24-.8-9.21-1.68-4.19-1.74-8.76-1.66-13.21.11-5.2-2.93-9.8-2.97-14.97.2-5.73-.95-11.27-2.54-16.72-.29-1.06-.57-2.11-.71-3.2-.25-2.06.08-4.16-.14-6.22-.13-1.85-.52-3.67-1.04-5.45-.63-2.04-.86-4.4-2.3-6.07-.58-.59-1.5-.63-2.31-.61-4.81.13-9.62.08-14.37-.84-1.45-.32-2.94-.51-4.4-.16-1.41.26-2.82.21-4.24.23-1.49.15-4.57-.56-5.12,1.25-.69,3.29-.07,6.75-.62,10.06-.25,1.78-.9,3.47-1.5,5.16-.78,2.14-1.31,4.31-1.53,6.56-.31,2.18-.32,4.4-.21,6.61.02,2.08-.53,4.08-1.19,6.04-.79,2.33-1.51,4.68-1.72,7.13-.3,5.32-1.25,10.51-2.94,15.56-.74,2.24-1.31,4.57-1.36,6.94-.02,1.44.22,2.87.16,4.31-.14,3.96-1.39,7.72-2.55,11.46-.54,1.83-.9,3.71-1.42,5.55-.17,1.11-1.34,2.84-.71,3.82,1.01,1,2.94.83,4.29.61,3.07-.72,4.62-.95,7.71-.04,1.96.44,3.92.86,5.89,1.27,2.57.55,2.92-.86,3.01-3.06.23-2.88.83-5.73.76-8.64,0-1.33.1-3.16,1.18-4.06.41-.27,1.19-.18,1.73-.09,2.48.43,4.96,1.22,7.5.84,1.49-.28,2.99-.36,4.5-.34.87-.04,1.76.22,2.12,1.1.35.76.46,1.63.55,2.46.38,3.4.79,6.79.77,10.22-.07,2.88,1.09,2.73,3.56,2.74,2.76-.12,5.37.08,7.87,1.35,2.65,1.04,5.54,1.27,8.38,1.11,1.85-.13,1.77-1.26,1.37-2.76-.38-1.72-.6-3.47-1.18-5.14ZM327.39,359.73h-.04c-2.94.03-5.75.39-8.89.57-.33.01-.78-.02-.97-.27-.18-.2-.15-.65-.1-.97.46-2.62.79-5.22,1.11-7.83.8-8.08,2.64-15.89,4.31-23.86.05-.26.15-.75.29-.82.13-.09.3.12.46.5.33.77.57,1.6.74,2.41.46,2.53.74,5.11,1.26,7.64.69,3.88,1.96,7.67,2.03,11.63.01.88-.01,1.78.08,2.66.09,1.06.38,2.08.57,3.12.2,1.15.16,2.29.17,3.45.04.75-.18,1.68-1.03,1.78Z"/>
    <path class="cls-1" d="M482.55,297.3c.59-3.46-1.87-3.6-4.53-3.92-3.24-.61-6.53-.92-9.82-1.15-4.78-.64-9.25-2.69-14-3.47-2.38-.36-2.39-.93-2.22-3.15.17-3.13.3-6.27.5-9.39.12-2.34.43-3.39,3.03-2.82,3.85.93,7.89.26,11.7,1.42,1.43.44,2.86.79,4.34,1.07,2.32.6,2.44-1.53,2.36-3.26-.06-3.6.29-7.17.42-10.77.1-2.7-3.16-1.87-4.93-2.23-3.97-.23-7.47-2.43-11.47-2.44-1.57-.13-3.53-.29-4.76-1.3-1.02-1.25-.07-3.02.03-4.42.08-.91-.25-1.78-.47-2.65-.89-3.43.06-6.87.12-10.29,0-.99.11-2.44,1.42-2.36,4.96.77,9.97,1.01,14.67,2.98,1.41.54,2.88.91,4.4,1,2.27.18,4.47.67,6.66,1.27,2.78.96,2.41-3.32,2.1-4.93-.62-2.33-1-4.69-.88-7.07,0-2.09.97-5.4-1.95-5.81-3.26-.94-6.71-.41-9.97-1.37-3.27-.85-6.56-1.65-9.89-2.18-1.71-.21-3.47-.15-5.11-.77-.54-.19-1.08-.36-1.62-.53-3.69,3.01-7.54,5.21-11.5,6.54l-.24.08-.25.06c-1.16.3-2.19.45-3.15.45h0c-1.18,0-2.3-.23-3.31-.66-.38.24-.77.48-1.16.71-.72.43-1.43.83-2.14,1.21,0,.08,0,.16.02.24,1.42,3.57-.02,7.26.07,10.92,0,1.94.61,3.82.83,5.73.25,1.99.16,4-.08,5.99-.58,4.38.41,8.74.04,13.11-.26,3.03-.44,6.05-.17,9.09.22,1.82.17,3.67-.2,5.47-.78,3.62-.77,7.33-.35,11,.2,2.58-.14,5.14-.29,7.71-.43,3.8,2.45,5.24,5.88,4.95,3.85.04,7.56.75,11.23,1.84,6.37,1.69,13.08,1.84,19.34,4.05,3.99,1.17,8.2,1.04,12.2,2.2,2.46.79,3.23-.94,3.12-3.14-.1-2.99-.56-5.99-.02-8.97v-.04Z"/>
    <path class="cls-1" d="M508.34,161.54c-.64-.43-1.51-.64-1.77-1.45-.75-2.78-2.1-1.21-3.37-2.72-.56-.98-1.59-1.9-2.65-.98-.55.5-.72,1.38-.88,2.17-.09.43-.17.85-.25,1.28-.15.7-.21,1.36-.69,1.71-.55.36-1.25.19-1.87.27h-.05c-3.87.32-6.48,4.22-5.67,7.94.13,1.26-1.28,1.42-2.17,1.77-1.31.44-3.8,1.12-2.86,2.92.27.45.78.68,1.24.91.84.34,1.05,1.18,1.35,1.94.54,1.32,2.26.69,2.99,1.75.33.41.59.94,1.06,1.2,1.16.66,2.13-.45,2.32-1.57.22-.92.37-1.85.57-2.76.09-.37.22-.77.53-.99.8-.49,1.95-.14,2.85-.46,3.18-.74,5.32-3.98,4.81-7.2-.09-.65-.13-1.14.24-1.52,1.23-.93,3.49-.97,4.59-2.14.58-.62.4-1.63-.3-2.08Z"/>
    <path class="cls-1" d="M521.25,133.33c0-1.61-1.31-2.92-2.92-2.92s-2.92,1.31-2.92,2.92,1.31,2.92,2.92,2.92,2.92-1.31,2.92-2.92Z"/>
    <path class="cls-2" d="M501.73,144.13c-1.38,0-2.5,1.12-2.5,2.5s1.12,2.5,2.5,2.5,2.5-1.12,2.5-2.5-1.12-2.5-2.5-2.5Z"/>
    <path class="cls-2" d="M499.28,130.78c-.01-.84-1.22-1.52-1.86-2.05-3.01-2.3-4.17-5.75-4.36-9.45-.05-.7-.02-1.5-.21-2.15-.53-1.63-1.58-.08-1.83.85-.85,2.7-2.17,5.38-4.76,6.78-.83.48-1.74.82-2.64,1.12-.99.3-3.04.84-1.6,2.01,1.09.83,2.3,1.64,3.09,2.8,1.2,1.63,1.88,3.76,2.09,5.83.16,1.11.03,2.3.23,3.39.67,2.17,2-1.38,2.41-2.08,1.59-2.9,3.95-4.88,7.2-5.77.74-.23,2.08-.45,2.24-1.26v-.03Z"/>
    <path class="cls-1" d="M285.77,381.13v-.04c-.16-3.15-1.42-6-2.91-8.75-1.13-2.33-1.36-4.93-1.98-7.41-.57-2.65-1.89-5.14-2.24-7.83.11-1.62,1.85-2.54,2.6-3.87,4.36-6.27,5.84-11.6,5.33-19.19,1.76-9.69-.7-18.09-6.64-25.84-5.92-7.62-9.53-7.31-18.18-9.08-2.52-.43-5.04-1.31-7.6-1.4-1.25,0-2.49.31-3.74.34-1.74.13-3.47-.27-5.2-.21-2,.35-3.99.75-6.02.94-1.75.24-3.53.01-5.23-.52-1.48-.3-6.01-1.15-5.78,1.22.39,2.57,1.06,5.13.61,7.74-.73,5.65.89,11.11,1.37,16.68.33,2.48-.86,4.87-.75,7.32.4,2.94,1.02,5.88,1.55,8.79.43,3-.57,5.94-.7,8.92.24,3.52.84,7.01,1.2,10.53.27,1.84.2,3.7-.2,5.51-.51,2.99-.24,5.95.08,8.91.27,2.99.63,5.99.53,9-.15,2.39-1.05,5.23,0,7.48.6.84,1.92.53,2.81.34,5.22-.93,10.56-1.46,15.85-1.07,3.28.03,5.39.43,4.51-3.73-1.39-7.11-.45-14.21-.72-21.53-.18-1.46.99-1.44,2.06-1.38,1.62-.16,3.31.22,3.86,1.94,1.27,2.93,2.36,5.93,2.88,9.1,1.06,4.18,2.85,8.12,3.8,12.34.52,2.89,1.16,4.03,4.39,3.62,2.78-.4,5.55-.63,8.37-.22,1.87.28,3.74.23,5.64.14,2.14.08,3-.87,2.43-3.02-.68-1.9-1.92-3.66-1.99-5.76ZM266.53,332.71v.04c.39,1.87.21,3.77-.14,5.63-.2,1.64-1.19,3-2.45,4-2.32,1.96-4.88,3.38-8.03,3.27-1.36-.05-1.93-.2-2.03-1.7-.22-2.41-.59-4.8-.64-7.21-.05-2.88,0-5.79.38-8.64.09-.69.16-1.38.17-2.08.02-2.24-.38-4.43-.52-6.64-.03-.7-.35-1.71,0-2.31.39-.46,1.23-.39,1.81-.44,1.89-.06,3.77-.11,5.65.16,1.28.18,2.6.52,3.47,1.48.7.76,1.13,1.72,1.54,2.65.49,1.16.84,2.42.97,3.68.14,1.38.03,2.68-.06,4.03-.21,1.41-.43,2.69-.11,4.08Z"/>
    <path class="cls-1" d="M411.93,349.67v-.04c.24-5.36-.23-10.76-1.77-15.92-.42-1.38-.92-2.75-1.23-4.16-.23-1.02-.27-2.09-.53-3.11-2.45-6.59-7.58-11.78-12.41-16.71-1.71-1.69-3.75-3.12-6.1-3.74-4.88-1.23-9.6-3.07-14.66-3.59-1.89-.2-3.79-.21-5.67.13-1.11.17-2.21.34-3.33.36-.98.03-1.97-.16-2.95-.28-1.74-.21-3.53,0-5.29-.22-.66-.07-1.58-.31-2.05.25-.32.51-.06,1.21.07,1.77.85,3.42,1.36,6.94,1.57,10.47.21,3.1-.42,6.1-.87,9.14-.32,2.64-.33,5.29-.1,7.97.19,2.08.67,4.13.63,6.23-.12,3.7-.6,7.38-.78,11.08-.15,3.57-.07,7.16.22,10.74.16,1.79.54,3.56.58,5.36.02,1.06-.06,2.12-.08,3.17.02,1.93-.34,3.84-.38,5.76.26,5.92.81,11.84.5,17.77-.04,1.22-.21,3.41,1.18,3.8.83.1,1.71-.24,2.53-.37,1.79-.36,3.71-.31,5.56-.12,2.31.24,4.58.73,6.83,1.25,2.41.56,4.87,1.18,7.33,1.17,2.38-.02,4.71-.62,7.06-.95,6.4-.83,9.35-2.23,13.88-6.86,2.35-2.27,4.91-4.51,6.29-7.55.62-1.25,1.03-2.6,1.35-3.96.44-1.86,1.18-3.64,1.27-5.54.04-1.07.02-2.15.21-3.21.58-2.97,1.84-5.85,1.59-8.93-.19-3.71-.6-7.43-.46-11.15ZM392.74,358.31v.04c-.42,1.66-.69,3.36-.7,5.07.03,2.22-.15,4.45-.64,6.55-.75,3.06-1.9,6.21-3.8,8.82-1.9,2.05-4.55,3.39-7.23,4.05-1.56.28-1.58-1.71-1.75-2.79-.12-.98.08-1.96.08-2.96,0-1.04-.16-2.08-.31-3.11-.49-2.8-.26-5.66-.1-8.46.1-2.39.87-4.71.82-7.12.1-2.35-.58-4.63-.91-6.93-.27-2.48.4-4.92.63-7.37.58-4.35.06-8.73-.46-13.06-.2-2.47-.14-4.94-.08-7.42,0-.91.35-1.92,1.49-1.57,5.82,2.45,9.66,7.99,11.39,13.95.56,1.87,1.08,3.87,1.21,5.82.05,2.48-.06,5.25.37,7.59.74,3.02.81,5.86-.02,8.91Z"/>
    <path class="cls-2" d="M112.1,160.36c-1.31.94-1.62,2.77-.68,4.08.94,1.31,2.77,1.62,4.08.68,1.31-.94,1.62-2.77.68-4.08-.94-1.31-2.77-1.62-4.08-.68Z"/>
    <path class="cls-1" d="M136.05,166.25c-.07.41-.15.82-.22,1.23-.13.67-.17,1.31-.63,1.65-.52.35-1.19.2-1.79.3h-.05c-3.69.39-6.1,4.17-5.26,7.71.15,1.21-1.2,1.38-2.04,1.74-1.25.45-3.61,1.15-2.68,2.85.27.42.76.63,1.2.84.81.31,1.02,1.11,1.33,1.83.54,1.25,2.17.62,2.89,1.61.32.39.59.89,1.04,1.13,1.12.61,2.03-.47,2.19-1.55.19-.88.32-1.77.49-2.65.07-.35.2-.74.49-.96.76-.48,1.86-.17,2.72-.5,3.02-.77,5.01-3.92,4.45-6.98-.1-.62-.15-1.08.2-1.46,1.16-.92,3.31-.99,4.34-2.14.54-.61.35-1.56-.33-1.98-.62-.4-1.46-.58-1.72-1.35-.77-2.64-2.03-1.12-3.28-2.53-.56-.92-1.55-1.78-2.55-.89-.51.49-.66,1.34-.79,2.09Z"/>
    <path class="cls-1" d="M227.07,382.12c-1.8-4.38-1.2-9.28-2.77-13.73-.24-.69-.49-1.37-.64-2.08-1.23-4.52-.17-9.26-.99-13.82-.25-1.29-.87-2.51-1.3-3.76-.8-2.27-1.22-4.63-1.29-7.05,0-2.59,0-5.2-.58-7.71-.52-2.74-1.81-5.29-2.17-8.06-.35-2.28-.16-4.63-.16-6.93,0-1.67-.12-3.35-.54-4.96-.81-2.72-1.77-5.44-1.93-8.31-.23-1.36.23-3.09-.57-4.26-.73-.66-1.9-.51-2.82-.54-1.54,0-3.14.06-4.7,0-1.95-.19-3.92-.66-5.89-.26-2.76.33-5.58.12-8.3.79-2.41.67-4.85,1.18-7.35,1.14-1.36,0-2.76-.1-4.11.07-1.88.15-1.36,2.27-1.4,3.59.05,2.72-.18,5.4-.91,8.01-.47,1.64-.93,3.3-1.13,5-.18,1.31-.16,2.65-.1,3.97.11,3.13-.51,6.13-1.52,9.08-.55,1.54-1.04,3.11-1.05,4.76.07,5.44-1.03,10.71-2.91,15.8-.84,2.55-.98,5.21-1.22,7.86-.25,3.81-2.02,7.23-2.87,10.9-.85,3.03-.01,6.17-.56,9.23-.33,1.9-1.02,3.71-1.7,5.51-1.11,3.21-2.15,6.45-2.91,9.75-.15,1.24.46,2.8,1.83,2.84.64,0,1.28-.23,1.9-.39,2.24-.63,4.5-1.04,6.84-.85,1.05.1,2.09.03,3.1-.22,2.16-.48,4.32-1,6.55-.97,1.09.02,2.51.12,3.26-.83.73-1.16.69-2.68.74-4.01.02-2.74.44-5.44.73-8.15.15-1.03.1-2.34.86-3.13,1.78-1.35,4.3-1.29,6.42-1.68,3.2-.46,6.45-.68,9.51-1.92.3-.12.7-.26.97-.2,1.12.26,1.67,5.4,1.79,6.5.18,1.88.04,9.19,1.6,9.93,3.03.84,5.91-1.39,8.9-1.63,1.8-.34,3.71-.03,5.54.23,1.44.08,5.03.26,5.53-1.4.22-2.75-.71-5.5-1.65-8.05v-.04ZM203.97,359.4v.04c-.03,1.16-.28,1.67-1.46,1.85-3.78.55-7.61,1.22-11.45,1.04-.97-.1-.75-1.06-.6-1.76.82-3.76,1.53-7.56,2.42-11.3.3-1.07.74-2.09,1.07-3.15.22-.67.37-1.37.47-2.07.49-3.26.77-6.54,1.26-9.79.11-.53.26-1.04.43-1.55.9-2.47,1.56-5.14,2.48-7.62.18-.27.27.54.3.74.39,3.03.85,6.04,1.33,9.05.25,1.75.38,3.53.8,5.26.63,2.22,1.67,4.34,1.83,6.68.16,4.21,1.27,8.35,1.12,12.57Z"/>
    <path class="cls-1" d="M169.83,346.22l.02-.04c1.04-2.56,1.96-5.49,1.91-7.99.04-5.09-.54-9.9-1.45-14.59-.27-1.37-.8-2.67-1.6-3.82-1.37-2.06-2.52-4.23-3.74-6.37-1.67-3.04-4.32-5.29-7.69-6.03-2.72-.78-5.28-1.89-7.78-3.19-1.02-.55-2.1-1.02-3.26-1.14-3.56-.4-7.01.67-10.48,1.17-1.53.21-3.05-.23-4.59-.15-4.26.55-8.51,1.31-12.77,1.97-2.22.4-4.4,1-6.64,1.22-1.6.24-4.12-.29-4.78,1.56-.32.93-.36,2.41-.32,3.53.06,3.82.53,7.6,1.14,11.36-.23,2.72.03,5.44.12,8.15-.09,3.15-.46,6.29-.4,9.44-.03,5.59.68,11.18.62,16.76-.09,3.2.07,6.41-.36,9.6-.21,1.28-.12,2.58.03,3.87.29,2.88.04,5.79.49,8.66.65,4.88.37,9.77-.16,14.63-.45,4.28-.52,8.59-.89,12.87-.15,2.37,3.12,1.63,4.49.95,4.14-1.94,8.65-1.59,13.07-1.97,1.83-.33,3.55-1.17,5.34-1.69,1.09-.45,2.86-.41,3.56-1.43.7-1.99.4-4.29.37-6.37-.45-6.13-1.33-12.28-.71-18.42.15-.96,0-2.06.21-2.97.49-1.59,3.26-1.52,4.63-2,1.89-.41,3.82-.65,5.67-1.21,2.61-.87,5.06-2.17,7.59-3.24,2.43-1.08,4.78-2.27,6.54-4.26.85-1.07,1.76-2.08,2.9-2.85,3.11-2.37,5.15-5.68,6.65-9.27.88-2.2,1.38-4.51,2.28-6.71ZM149.75,340.26v.04c-.03,2.93-.89,5.81-2.77,8.08-2.06,2.51-4.34,4.98-7.17,6.65-1.42.75-3.02.99-4.63,1.1-.43.03-.87.15-1.25.14-1.11-.04-1.2-1.48-1.22-2.32.63-5.4.94-10.81.79-16.25.11-3.97,0-7.94-.26-11.9-.01-.93-.3-2.36.94-2.53,3.07-.23,6.2-.09,9.26.29,1.21.18,2.37.64,3.47,1.15.49.23.96.55,1.25,1.01.2.3.33.65.46.99.43,1.22.96,2.41,1.08,3.71.11,3.27.04,6.56.04,9.83Z"/>
    <path class="cls-1" d="M110.94,295.33l.03-.03c6.93-6.79,8.99-16.43,7.2-25.77-.37-2.31.03-4.62.09-6.93.28-2.4-2.24-1.79-3.71-1.28-2.16.88-4.59.83-6.65,1.95-1.77.85-3.86.76-5.68,1.48-1.77.49-1.71,2.29-1.58,3.78.1,1.52.07,3.02-.06,4.52-.15,2.42.57,5.11-.82,7.24-2.78,4.53-8.89,6.38-13.86,4.7-1.86-.67-4.1-1.02-5.38-2.65-3.2-4.89-4.16-10.71-4.01-16.49-.07-3.13-1.12-6.14-1.33-9.25-.36-3.49.65-6.88.81-10.36.17-2.26-.14-4.57.09-6.84.77-3.98,1.8-7.92,3.65-11.58.93-1.97,2.27-3.65,3.7-5.28,1.07-1.7,2.22-3.38,4.13-4.26,3.12-1.73,7.99-1.96,9.6,1.86.82,2.55,2.03,4.9,2.77,7.46,1.03,2.9-1.44,7.93,1.57,9.81,1.03.41,2.22.25,3.29.08,4.42-1.02,9.01-1.5,13.44-2.28,1.75-1.36.5-5.94.29-7.92-.53-3.23.47-6.64-.79-9.75-2.63-9.78-9.45-15.46-19.17-17.44-2.17-.75-4.44-.88-6.7-1.05-2.3-.26-4.61-.4-6.89.14-1.4.36-2.75-.54-4.1.07-3.57,1.17-6.89,2.99-9.28,5.91-4.45,5.45-9.32,10.99-11.59,17.75-.6,1.87-.67,3.85-1.12,5.73-.61,2.66-1.58,5.24-1.89,7.96-.9,5.75-.78,11.54-.76,17.34-.2,5.67-1.31,11.47.72,16.98.38,1.09.52,2.22.49,3.37.05,3.55.97,6.99,1.77,10.43,1.53,6.27,6.47,10.85,10.95,15.19,1.59,1.41,3.45,2.45,5.47,3.09,2.64.98,5.17,2.57,8.09,2.48,5.74.32,10.6-1.14,15.7-3.65,4.28-1.36,8.47-3.15,11.51-6.53Z"/>
    <g>
      <path class="cls-2" d="M227,114.67h.04c1.61-.28,2.7-1.37,2.66-3.04.02-.97,0-2-.03-3.13,0-.44-.27-3.24.67-2.65.36.37.46,1.01.61,1.51.3,1.16.68,2.27,1.05,3.37.29.97.74,2.1,1.97,1.94,1.09-.12,2.42-.3,3.15-1.33.66-.93.12-1.9-.14-2.8-.48-1.48-.91-2.98-1.48-4.46-.18-.46-.35-.98-.16-1.49.34-.8,1-1.38,1.28-2.24,1.12-3.85,1.25-8.03-.42-11.04-1.75-2.7-4.5-1.56-7.21-.86-.82.24-1.65.52-2.47.74-1.47.35-2.19,1.27-2.23,2.78-.07.89-.08,1.79-.03,2.68.1,3.14.13,6.3.06,9.43,0,2.41-.03,4.8-.02,7.22.08,2.1-.11,3.99,2.73,3.37ZM229.63,99.95v-.04c-.07-1.55-.04-3.07-.05-4.63.05-.75-.2-1.66.49-2.08.55-.28,1.3-.3,1.69.15.45.57.17,1.43.26,2.12.05,1.3.22,3.23-.65,4.4-.47.58-1.7,1.25-1.74.08Z"/>
      <path class="cls-2" d="M205.78,112.84c.15,1.18.23,2.44.74,3.52.74,1.66,2.39,3.07,4.34,2.63,1.06-.18,2.14-.42,3.16-.75.78-.25,1.54-.59,2.17-1.18,1.92-1.92,3.07-4.46,3.35-6.95.18-1.62.15-3.24.34-4.87.07-1.52-.14-2.99-.11-4.51-.02-2.71-.45-6.27-2.59-7.93-2.07-1.5-4.75.05-6.95,1.01-2.06.9-3.42,2.74-3.92,4.88-.73,2.78-.95,5.59-.96,8.37-.07,1.99.12,3.87.43,5.74v.04ZM210.9,109.41v-.04c0-2.58-.26-5.2.15-7.78.17-1.06.26-2.28.95-3.21.82-.97,1.7-.47,1.8.64.27,2.15.56,4.28.73,6.44.02.41,0,.82,0,1.22-.12,1.64-.07,3.29-.38,4.94-.18.95-1.18,2.13-2.15,1.76-1.08-.62-1.03-2.82-1.09-3.97Z"/>
      <path class="cls-2" d="M255.53,125.68h.04c1.68-.23,3.25-.68,4.95-1,1.15-.26,1.8.01,1.88,1.23.11,1.58.17,3.14.22,4.71.04,1.14-.03,2.29.09,3.43.05.5.1,1,.1,1.51,0,.89-.19,1.8-.24,2.7-.1,1.35-.06,2.68-.04,4.02.09,3.6-.08,7.24-.03,10.85.03,1.94-.11,3.88-.14,5.84-.09,1.84.63,3.1,2.62,2.82,1.66-.2,4.69-1.06,4.9-3.14.1-.8-.03-1.75-.07-2.58-.06-1.07-.03-2.15,0-3.23.15-4.04-.02-8.06-.06-12.08-.02-3.56.09-7.13-.11-10.7-.09-1.41-.11-2.82.02-4.25.13-1.06.15-2.17.5-3.22.27-.75,1.09-.96,1.77-1.1,1.19-.28,2.29-.82,3.47-1.16,1.39-.37,2.78-.63,2.99-2.35.19-1.29.07-2.55.04-3.81-.03-2.13-1.72-1.79-3.34-1.38-3.58.98-7.13,1.97-10.73,2.72-2.95.81-5.88,1.65-8.84,2.4-1.96.66-1.84,2.62-1.72,4.26.18,1.43-.48,3.76,1.7,3.51Z"/>
      <path class="cls-2" d="M228.56,170.26c1.62.61,3.45-.55,5.06-1.02,1.6-.41,2.18-.93,2.42-2.6.31-1.83.68-3.61.84-5.43.22-2.48,1.59-3.3,3.82-3.82,1.34-.3,3.51-.96,4.63-.12.4.37.47,1.04.66,1.63.12.38.27.76.39,1.14.48,1.53.48,3.31,1.51,4.57.95,1.06,2.87.05,4.15-.08.96-.24,2.26-.3,3-1.11.79-1.19.19-3.09-.14-4.35-.29-1.01-.37-2.08-.6-3.1-.25-1.15-.59-2.26-.84-3.41-.48-2.99-1.28-5.89-1.97-8.83-.42-2.01-.6-4.09-1.1-6.06-.22-.87-.42-1.74-.59-2.62-.51-2.83-.87-5.68-1.52-8.46-.17-.96-.19-1.95-.45-2.88-.23-.84-.74-1.88-1.37-2.28-.63-.38-1.63-.11-2.38.03-1.92.4-3.79.78-5.7,1.21-1.99.44-2.78.87-3.23,2.98v.04c-.55,2.36-.96,4.71-1.36,7.08-1.48,9.26-3.22,18.5-4.52,27.76-.33,2.3-.67,4.59-1.04,6.89-.12.88-.47,2.35.32,2.84ZM238.47,149.83c.08-1.46.4-2.9.5-4.35.34-4.03.96-8.06,1.55-12.08.1-.45.13-1.56.59-1.7h.02c.14.02.29.25.4.56.55,1.63.69,3.39.93,5.11.23,2.82,2.51,9.47,1.48,11.84-.33.48-.94.64-1.68.85-.76.19-1.49.35-2.24.47-.66.1-1.57.21-1.55-.71Z"/>
      <path class="cls-2" d="M173.61,148.1c.84-.85.53-2.88.48-4.05v-.04c-.26-3.13-1.45-2.98-4.05-1.85-2.03.86-4.14,1.24-6.19,2.01-2.51.89-5.09,1.46-7.66,2.15-.72.2-1.63.45-2.26.85-1.6.99-.7,3.56-.69,4.99.07.67.14,1.61.91,1.75.34.07.72.01,1.07-.04.91-.16,1.75-.32,2.62-.65,1.79-.79,2.25-.28,2.51,1.53.25,1.42.02,2.88,0,4.34.01,6.51-.2,13.04-.05,19.54.04,2.18.01,4.37.02,6.56.03,1-.05,2.05.13,3.03.17,1.09,1.25,1.17,2.18.98.93-.16,1.82-.33,2.76-.65,3.11-1,2.06-3.11,2.29-5.5.29-2.24.2-4.47.1-6.68-.13-3.52-.25-7.1-.23-10.65.05-3.51-.18-7.01-.16-10.52,0-1.03.04-2.06.11-3.08.04-.54.08-1.31.35-1.69.25-.41,1.06-.61,1.64-.76.75-.18,1.54-.41,2.28-.67.88-.3,1.47-.53,1.84-.9Z"/>
      <path class="cls-2" d="M207.95,176.68h.04c.75-.32,1.47-.66,2.26-.79,3.81-.69,7.51-1.96,11.24-3.11.77-.25,1.73-.48,2.29-1.11.73-.97.32-2.27.36-3.35-.03-1.04.18-2.23-.51-2.96-.96-.85-2.45.04-3.55.4-1.39.5-2.82.7-4.23,1.07-1.93.63-3.09.74-2.92-1.65.09-1.86.15-3.71-.04-5.55-.1-1.8-.17-3.14,1.9-3.84,1.71-.66,3.42-.79,5.12-1.6,1.31-.58,1.74-1.32,1.62-2.7-.04-.76-.11-1.44-.05-2.19.03-.62.16-1.38-.24-1.86-.74-.75-2.79-.13-3.81.26-.99.47-3.2,1.37-3.99.57-.32-.36-.36-.96-.4-1.45-.16-2.19-.21-4.39-.04-6.6.07-1.54.5-2.35,2.1-2.71,1.64-.42,3.12-1.09,4.69-1.38,1.19-.31,3.03-.33,3.84-1.4.3-.47.33-1.1.35-1.64.02-1.1.04-2.15.07-3.24,0-.69.02-1.5-.41-2.02-1.25-1.46-6.64.95-8.46,1.42-2.25.69-4.52,1.35-6.77,2.06-.97.34-2.3.6-2.91,1.48-.41.66-.34,1.7-.32,2.46.05,1.24.09,2.47.09,3.7-.18,6.7-.08,13.37.12,20.03.04,3.22.07,6.45.11,9.67-.06,1.48-.14,2.97-.05,4.44.1,1.69-.08,4.55,2.51,3.58Z"/>
      <path class="cls-2" d="M196.75,159.86c.7-1.05,1.6-2.02,2.1-3.17,1.63-4.12,1.21-11.57.35-15.7-.61-2.79-3.03-4.96-5.9-5.16-1.2-.12-2.61.15-3.88.44-1.33.18-2.66.72-3.9,1.18-1.84.73-6.4,1.26-7.18,3.2-.48,1.18-.07,2.56-.06,3.73-.11,3.63-.1,7.26.03,10.87v.04c.03.92.11,1.89.11,2.84,0,1.25-.18,2.53-.18,3.79.09,5.37.05,10.76.06,16.13.01,1.08.02,2.14.01,3.23-.02,1.55.1,3.35,2.16,2.88.67-.13,1.32-.4,1.94-.66.96-.42,2.08-.81,2.77-1.67.93-1.16.65-2.72.65-4.1-.02-2.47.19-4.96-.12-7.4-.06-.74-.03-1.47.03-2.23.03-.71.41-1.35,1.12-1.55.58-.2,1.25-.37,1.65-.1.5.33.66,1.25.93,1.85.48,1.22,1.05,2.39,1.39,3.67.47,2.39,1.07,4.75,2.55,6.67,1.22,1.75,2.69,1.68,4.72,1.04,3.43-.79,2.82-2.31,1.79-4.83-.68-1.61-1.09-3.31-1.58-5-.55-1.83-1.22-3.61-1.85-5.41-.25-.81-.7-1.77-.69-2.61.05-.7.45-1.24.94-1.97ZM192.24,146.79c.01,2.07.04,4.09.02,6.1-.02.77.02,1.54-.12,2.31-.23,1.28-1.23,2.56-2.44,3.36-1.47,1.04-3.89,1.26-3.94-.95v-.04c.07-1.92.11-3.84.09-5.75-.01-1.13.1-2.29.01-3.39-.05-.68-.14-1.36-.07-2.06.13-.94.32-1.89.81-2.53.48-.48,1.1-.52,1.87-.7,2.38-.58,2.98.11,3.61,2.3.11.46.15.88.16,1.35Z"/>
      <path class="cls-2" d="M174.87,128.04h.04c1.28-.17,2.39-.81,3.6-1.16.6-.18,1.3-.38,1.64-.98.26-.45.3-1.01.33-1.51.03-1,.09-1.99.06-2.98-.13-1.72-.31-3.42-.25-5.16-.03-1.76.2-3.53.77-5.24.3-.79.49-2.1,1.42-2.31.45-.06.75.46.88.87,1.33,4.2,2.65,8.42,4.03,12.6.34,1.14.92,1.78,2.22,1.54,1.6-.24,4.99-.7,5.31-2.74.03-1.08-.58-2.03-.88-3.02-1.93-5.3-3.61-10.7-5.61-15.97-.33-.88-.73-1.83-.73-2.79-.01-.73.23-1.48.51-2.18,1.87-4.57,3.71-9.13,5.6-13.68.73-1.9,1.41-5.23-1.54-4.9-1.94.19-3.61,1.12-4.57,2.84-.44.75-.77,1.66-1.05,2.47-1.46,4.22-2.91,8.43-4.37,12.64-.29.8-.54,1.59-.95,2.34-.27.48-.73.75-.93.15-.13-.41-.1-.93-.11-1.38,0-3.65.09-7.32-.04-10.95-.1-1.56.24-4.32-1.95-4.2-.56.05-1.12.28-1.65.48-1.08.41-2.22.87-2.79,1.95-.38.67-.44,1.52-.45,2.29,0,2.1-.08,4.19-.12,6.29.28,9.13-.4,18.32-.27,27.46.02,1.78.04,3.53.17,5.31.08,1.15.22,2.14,1.69,1.89Z"/>
      <path class="cls-2" d="M108.87,144.37c.23.54.79.66,1.45.59h.04c2.14-.28,5.44-1.04,5.48-3.76.02-2.4.14-4.86-.06-7.43-.06-.8-.22-1.56-.16-2.39.08-.86.32-2,.99-2.58.52-.42,1.37-.53,1.94-.23.87.49,1.01,1.75,1.24,2.68.59,2.53,1.61,4.9,2.1,7.46.2,1.28.74,2.56,2.25,2.45,1.04-.05,2.08-.26,3.07-.65,3.01-1.08,2.12-3.24,1.35-5.41-1.04-2.77-1.46-5.8-2.63-8.52-.3-.71-.72-1.52-.59-2.33.23-1.18,1.36-2.06,1.89-3.13.63-1.11,1.02-2.3,1.29-3.54.63-3.04.65-6.09.64-9.12.12-5.93-2.02-10.96-8.81-9.54-1.9.52-3.75,1.26-5.66,1.75-.94.27-1.88.53-2.82.8-1.01.29-2.36.69-2.95,1.64-.46.71-.37,1.64-.44,2.51-.17,2.04-.04,4.08,0,6.11.25,7.23-.09,14.52.05,21.76-.03,2.65-.16,5.31-.01,7.94.08.95.01,2.03.37,2.92ZM115.8,120.3v-.04c-.28-3.22.13-6.51.02-9.75.03-1.17-.16-2.74.87-3.56,1.93-1.38,4.91-1.21,5.23,1.41.19,2.04.03,4.14,0,6.21-.15,1.67.13,3.64-1.07,5.01-.81.95-1.99,1.44-3.16,1.71-1.06.28-1.79.23-1.89-1Z"/>
      <path class="cls-2" d="M136.28,137.71h.04c.73-.26,1.45-.56,2.2-.7.77-.16,1.71-.32,2.23-.87.47-.48.52-1.2.56-1.86.04-.87.14-1.72.17-2.58.02-.92-.08-1.82-.09-2.73-.01-3.74.16-7.48.35-11.23-.26-5.53.07-11.12-.14-16.66-.04-1.32-.05-2.63.03-3.96.03-1.26.38-3.17-1.11-3.42-1.04-.12-2.45.18-3.54.54-1.73.6-2.71,1.41-2.66,3.29-.07,2.34-.12,4.67.07,6.98.23,6.52-.24,13.08-.12,19.61-.15,3.19-.13,6.35-.03,9.52.01.76-.13,1.51-.13,2.27,0,1.27.85,2.31,2.17,1.81Z"/>
      <path class="cls-2" d="M154,133.33h.04c1.9.02,3.68-.42,5.51-.98,2.65-.71,4.86-2.48,6.29-4.91,1.48-2.38,2.37-5.01,2.8-7.69.14-1.13.42-2.36.19-3.47-.21-.89-1.09-1.49-2.01-1.45-.72,0-1.4.42-2.07.66-.7.3-1.66.29-2.13.96-.37.69-.34,1.56-.48,2.31-.27,1.99-.42,4.26-2.02,5.78-1.09,1.07-2.8,1.72-4.22,1.24-1.95-.62-2.18-4.49-2.38-6.34-.32-6.07-.43-12.2.71-18.35.33-1.79.87-3.62,2.42-4.84,1.35-1.12,3.4-1.36,4.29.06.72.87,1.04,1.99.83,3.18-.13,1.04-.02,2.09.19,3.09.16.73.41,1.12.91,1.24.84.17,2.43-.18,3.38-.61,1.67-.73,2.38-2.33,2.33-4,.05-2.62.05-5.33-1.15-7.6-1.52-2.87-4.44-4.59-7.67-4.25-2.33.33-4.71,1.48-6.47,2.96-2.03,1.69-3.66,4.03-4.74,6.43-3.3,8.38-2.79,17.29-2.21,25.77.11,1.14.32,2.25.6,3.33.99,3.72,2.62,7.51,7.07,7.49Z"/>
      <path class="cls-2" d="M85.06,117.52h.04c1.06-.46,2.19-.74,3.29-1.07,1.88-.66,1.89.5,2.04,1.99.15,1.99.03,3.97.03,5.96.14,7.51.06,15.04.12,22.56.01,1.4-.61,3.6.96,4.2,1.66.23,3.95-.43,5.3-1.62.71-.57.95-1.43.88-2.27-.04-1.05.18-2.09.19-3.14.02-1.25-.14-2.47-.15-3.69.03-2.56.02-5.12.08-7.68-.01-1.45-.15-2.89-.17-4.33-.03-1.43.1-2.88.08-4.31-.19-3.1-.17-6.21-.2-9.33-.02-.85.58-1.48,1.34-1.78,1.25-.57,2.52-.84,3.82-1.15,1.18-.26,1.48-.98,1.45-2.1.02-.74.13-1.49.11-2.22-.04-.78-.13-1.95-.46-2.55-.17-.25-.43-.29-.88-.23-.99.16-2.06.37-3.05.65-1.35.39-2.66.94-4.01,1.35-3.42,1.01-6.77,2.38-10.23,3.27-.67.18-1.5.45-1.95.96-.91,1.05-.49,2.81-.44,4.1.01,1.25.14,3.04,1.83,2.46Z"/>
    </g>
    <path class="cls-1" d="M77.22,167.82c1.69.12,3.1.81,4.33,1.99,1.04,1,1.71,2.23,2.33,3.5.18.39.32.82.83.81.45-.05.49-.35.49-.66.02-3.32,1.44-5.92,4.09-7.87.76-.56.55-.83-.18-1.04-1.37-.4-2.63-.97-3.64-2.03-1.25-1.32-2.26-2.77-2.86-4.51-.13-.39-.35-.85-.88-.8-.66.06-.45.61-.48,1-.29,3.45-.84,6.76-4.39,8.54-.25.13-.51.39-.39.73.12.33.46.32.76.34Z"/>
    <path class="cls-2" d="M473.32,140.23c-.23-2.88-1.65-6.02-4.2-7.65-.18-.11-.82.18-1,.08.02-3.23-.47-6.4-.96-9.59-.48-3.2-.5-6.5-1.46-9.58-.96-3.09-2.56-5.94-3.98-8.84-1.42-2.9-3.08-5.65-4.93-8.3-1.85-2.65-4.11-4.9-6.36-7.22-2.24-2.31-4.51-4.52-7.13-6.44-1.17-.9-2.05-2.08-2.92-3.24-1.69-2.16-2.41-4.92-4.32-6.72-1.97-1.96-4.48-2.82-7.11-3.42-2.5-.54-4.93-1.52-7.44-2.05-2.55-.53-5.02-1.3-7.49-1.83-.08-.02-.09.03-.17.01-2.52-.53-5.1-1.03-7.68-1.58-2.55-.54-5.2-.72-7.76-1.24-2.23-.43-4.49-.47-6.71.09-3.16.66-4.88,3.65-7.57,5.1-1.05.58-2.39.15-3.57.44-2.98.65-5.81,2.06-8.65,3.18s-5.45,2.72-8.1,4.24c-2.64,1.52-5.69,2.53-8.1,4.42-2.39,1.88-4.69,4.04-6.81,6.24-2.58,2.67-4.49,5.92-6.52,8.95-2.04,3.04-3.43,6.62-4.92,10.02-2.59.51-4.66,1.67-6.07,4.13-1.58,2.64-3.9,4.87-5.21,7.65-1.31,2.78-2.07,5.8-3.11,8.7-1.03,2.89-2.55,5.67-3.3,8.65-.75,2.98-.54,6.17-1,9.21-.46,3.04-1.6,6.02-1.76,9.09s.98,6.14,1.13,9.21c.14,3.07-.74,6.24-.29,9.28.48,2.82.98,5.78,1.82,8.56.84,2.78,2.24,5.45,3.61,7.98,1.37,2.53,2.99,5.08,5.05,7.16,1.85,1.85,3.63,1.85,2.78-1.17-.66-2.41-1.01-4.98-1.05-7.48.27-1.84,1.79,5.92,2.35,6.58,1.23,2.62,3.43,4.93,5.25,7.43s4,4.53,6.28,6.46c2.35,1.98,4.74,3.88,7.54,4.9,2.82,1.03,5.76,1.26,8.74,1.1.4-.02.78-.17,1.06-.45.72-.72.25-1.72-.09-2.56-.61-1.53-.75-3.21-1.04-4.84-.07-.41.47-.63.7-.27,3.09,4.89,6.9,9.88,11.47,13.24,2.78,2.04,5.56,3.99,8.82,4.62,3.07.59,6.47.32,10.01-.56,2.9-.72,5.57-2.75,8.82-4.58,2.14-1.23,4.07-2.46,6.02-3.88,1.15-.86,3.87-1.68,2.2.58-1.25,1.73-3.99,2.84-5.46,4.5-.33.35-.68,1.81-.53,2.3.63,1.6,3.65,2.51,6.47,3.07,2.7.54,5.52-.07,6.99-.27,3.3-.28,6.51-.37,9.44-1.67,2.94-1.3,5.86-2.82,8.49-4.74,2.61-1.91,5.03-4.15,7.39-6.3,2.62-2.33,1.55.29.07,2.23-1.1,1.76-7.07,7.04-2.02,5.72,2.47-.83,4.31-3.13,6.47-4.64,2.16-1.51,4.56-2.72,6.36-4.58,2.11-2.26,3.61-4.98,5.37-7.5s3.33-5.12,4.76-7.85c2.26-4.4,4.28-8.87,5.78-13.57.35-1.1.81-2.13,1.23-3.19,1.31-3.11,1.36-6.66,1.99-9.95.5-2.85,1.81-5.77,1.81-8.7.29-3.09.64-6.21.62-9.32-.02-3.1.25-6.27-.09-9.38ZM442.29,179.52c-2.12,2.55-4.14,4.95-6.6,7.01-2.52,2.11-4.81,4.5-7.64,6.07s-5.81,3.13-8.93,4.12c-3.07.98-6.43.95-9.71,1.33-1.71.11-4.13,1.06-5.47-.19-1.08-1.02-.69-3.86-1.25-5.53-.56-1.92-2.31-1.83-4.4-2.01-5.12-.37-3.47,4.14-5.83,6.55-1.66,1.36-6.59.14-11.22-1.37-4.36-1.42-8.93-2.89-10.68-3.84-2.92-1.52-5.66-3.48-8.36-5.37-2.71-1.9-4.97-4.34-7.31-6.66-2.32-2.31-4.19-4.94-6.01-7.74-1.95-3.11-3.66-6.35-4.99-9.84s-2.3-6.99-2.73-10.64c-.08-5.56,3.82-3.36,6.49-.98,2.12,1.68,4.49,2.96,6.75,4.41,2.27,1.44,4.5,2.89,6.94,4.07,2.34.99,2.75,2.7,2,5.34-.02.08.49.23.47.31-.69,2.99-.38,4.51,2.72,6,1.99.95,4.98,3.43,7.02,2.62,2.77-1.19,1.77-6.26,5.18-6.42,1.29,0,2.62.05,3.87.42,3.21,1.03,6.58,1.45,9.87,2.21,3.29.76,6.59,1.1,9.95,1.46,1.71.23,3.7,1.02,4.5,2.81.75,1.6.32,4.11,1.15,5.76.67,1.51,2.2,2.49,4.01,2.61,1.82.1,3.7-.56,4.95-1.5,2.96-2.66.45-6.82,6.34-6.92,3.09-.08,6.09-1.44,9.15-1.79,3.07-.35,6.3.31,9.32-.37.96-.2,1.78-.3,2.74-.22,5.03.82-.81,6.14-2.27,8.28ZM358.58,131.81c2.55-1.95,5.01-3.98,7.69-5.74,2.66-1.73,5.99-4.78,9.02-3.98,3.81,1.1,4.85,5.87,5.6,9.23.77,4.51,1.06,9.31.44,13.84-.62,3.84-4.23,4.22-7.68,3.1-.09-.03-.1.02-.19,0-2.45-.73-5.02-1.28-7.42-2.21-2.39-.94-4.71-2.13-7.02-3.23-3.72-1.63-5.38-3.65-5.51-5.46-.14-1.85,1.92-3.28,5.06-5.54ZM411.36,153.03c.09-.7.31-1.41.51-2.07.5-1.63,1.25-3.18,2.16-4.62,1.37-2.18,2.4-4.65,3.7-6.58,2.06-2.53,4.48-6.41,8.06-6.53,2.43,0,4.88,3.6,7.22,7.02,2.18,3.18,4.44,6.5,5.63,8.39,2.05,3.49,2.75,6.23,1.79,7.87-.92,1.59-3.56,2.78-7.71,2.75-2.55.02-5.17-.16-7.76-.26-1.38-.18-2.77-.51-4.15-.59-1.47-.08-2.94.11-4.4-.14-1.08-.19-2.1-.62-3.01-1.24-.68-.46-1.31-1.04-1.7-1.76-.39-.71-.44-1.48-.34-2.26ZM375.37,103.24c-2.99-.2-6.01-.06-9-.11-2.99-.05-5.98.64-8.96.72-2.98.07-6.36.26-9.34.44,1.31-2.49,3.42-4.95,5.12-7.14,1.72-2.21,3.29-4.55,5.35-6.43,2.05-1.88,4.26-3.65,6.59-5.19,2.32-1.53,4.66-3.2,7.21-4.37,2.52-1.16,5.26-2.01,7.95-2.8,1.58-.46,3.42-.33,4.94.23,2.28.89,4.31,2.15,6.8,2.66,2.95.7,5.86,1.6,8.83,2.22s5.85,1.67,8.82,2.31c2.97.61,5.88,1.5,8.85,2.13s5.95,1.21,8.93,1.77c2.5.56,5.04-.33,7.5-.23,1.54.1,3.01.57,4.22,1.56,2.16,1.8,4.43,3.53,6.29,5.6,1.88,2.09,3.49,4.45,5.01,6.78,1.54,2.35,2.17,5.16,3.3,7.72,1.13,2.56,2.53,4.98,3.21,7.71.67,2.7,1.3,5.64,1.47,8.46-2.85-1.48-5.56-3.69-8.48-5.03-2.92-1.34-5.93-2.57-8.91-3.77-2.98-1.2-6.2-1.81-9.24-2.87-3.03-1.06-6.24-1.55-9.33-2.47s-6.22-1.52-9.34-2.31c-3.12-.78-6.02-2.48-9.17-3.13-3.15-.65-6.39-.79-9.57-1.31s-6.27-1.61-9.47-1.99c-3.19-.38-6.4-.91-9.6-1.16Z"/>
  </g>
</svg>