<?xml version="1.0" encoding="UTF-8"?>
<svg id="Layer_1" data-name="Layer 1" xmlns="http://www.w3.org/2000/svg" viewBox="0 0 1306.54 4242.32">
  <defs>
    <style>
      .cls-1 {
        fill: #fff;
      }
    </style>
  </defs>
  <g>
    <path class="cls-1" d="M1306.53,15.9v81.58c0,8.78-7.11,15.9-15.9,15.9h-413.24c-8.78,0-15.9,7.11-15.9,15.9v239.13c0,8.78-7.11,15.9-15.9,15.9h-65.76c-8.78,0-15.9-7.11-15.9-15.9V15.9c0-8.78,7.11-15.9,15.9-15.9h510.79c8.78,0,15.9,7.11,15.9,15.9"/>
    <path class="cls-1" d="M1210.46,845.81v-255.33c0-8.77-7.11-15.9-15.9-15.9h-83.44c-8.78,0-15.9,7.13-15.9,15.9v231.77c0,8.78-7.11,15.9-15.9,15.9h-62.42c-8.78,0-15.9-7.11-15.9-15.9v-231.77c0-8.77-7.13-15.9-15.9-15.9h-107.72c-8.78,0-15.9,7.13-15.9,15.9v268.59c0,8.78-7.11,15.89-15.9,15.89h-65.76c-8.78,0-15.9-7.11-15.9-15.89v-379.38c0-8.78,7.11-15.9,15.9-15.9h510.79c8.77,0,15.9,7.11,15.9,15.9v366.12c0,8.78-7.13,15.9-15.9,15.9h-64.28c-8.78,0-15.9-7.11-15.9-15.9"/>
    <path class="cls-1" d="M1306.53,1129.66v105.84c0,6.75-4.23,12.75-10.58,14.99l-510.79,180.72c-10.34,3.66-21.19-4.01-21.19-14.99v-88.87c0-6.9,4.46-13.03,11.03-15.13l89.45-28.72c6.59-2.12,11.04-8.23,11.04-15.13v-176.73c0-6.86-4.41-12.95-10.92-15.1l-89.69-29.58c-6.52-2.15-10.92-8.23-10.92-15.1v-84.54c0-10.99,10.88-18.66,21.23-14.97l510.79,182.34c6.33,2.26,10.55,8.24,10.55,14.96M968.98,1132.97v95.18c0,10.77,10.5,18.43,20.75,15.13l146.24-46.94c14.65-4.71,14.73-25.41.11-30.23l-146.23-48.24c-10.28-3.39-20.88,4.26-20.88,15.1"/>
    <path class="cls-1" d="M1292.54,1855.43c-8.59,19.98-21.23,36.91-37.9,50.79-13.76,11.49-28.96,20.59-45.65,27.29-16.69,6.7-35.71,10.04-57.06,10.04-25.76,0-51.11-6.51-76.01-19.51-24.9-13-42.52-34.48-52.83-64.41-10.07,25.03-24.34,42.75-42.88,53.19-18.54,10.42-46.81,15.64-84.86,15.64h-36.44c-24.77,0-41.59,1-50.42,2.99-13.99,2.99-24.3,9.98-30.93,20.94h-13.6v-125.16c12.03-3.44,21.72-5.89,29.07-7.37,15.21-2.94,30.79-4.54,46.76-4.77l50.42-.75c34.61-.46,57.66-6.44,69.2-17.93,11.54-11.49,17.31-33.02,17.31-64.58v-94.83c0-8.78-7.13-15.9-15.9-15.9h-180.98c-8.78,0-15.9-7.11-15.9-15.9v-79c0-8.78,7.11-15.9,15.9-15.9h510.79c8.77,0,15.9,7.11,15.9,15.9v243.62c-.75,37.09-5.41,65.62-14,85.6M1196.4,1621.1h-113.97c-8.78,0-15.9,7.11-15.9,15.9v106.11c0,24.23,2.94,42.4,8.83,54.53,10.31,21.45,30.68,32.17,61.1,32.17,32.89,0,54.97-10.37,66.26-31.11,6.38-11.66,9.58-29.13,9.58-52.44v-109.26c0-8.78-7.11-15.9-15.9-15.9"/>
    <path class="cls-1" d="M1306.53,2066.2v93.72c0,5.71-3.07,10.99-8.04,13.81l-318.1,181.1c-14.18,8.07-8.45,29.71,7.86,29.71h302.38c8.78,0,15.9,7.11,15.9,15.89v73.84c0,8.78-7.11,15.9-15.9,15.9h-510.79c-8.78,0-15.9-7.11-15.9-15.9v-88.24c0-5.7,3.05-10.95,7.99-13.8l325.25-186.61c14.13-8.11,8.39-29.69-7.91-29.69h-309.43c-8.78,0-15.9-7.11-15.9-15.9v-73.84c0-8.78,7.11-15.9,15.9-15.9h510.79c8.78,0,15.9,7.11,15.9,15.9"/>
  </g>
  <path class="cls-1" d="M675.49,2308.43v426.72c0,10.54-8.55,19.1-19.1,19.1h-76.35c-10.56,0-19.1-8.57-19.1-19.1v-291.35c0-10.56-8.55-19.1-19.1-19.1h-111.77c-10.54,0-19.1,8.55-19.1,19.1v250.66c0,10.54-8.55,19.1-19.1,19.1h-75.03c-10.56,0-19.1-8.57-19.1-19.1v-250.66c0-10.56-8.55-19.1-19.1-19.1H43.45c-10.56,0-19.1-8.55-19.1-19.1v-97.16c0-10.56,8.55-19.1,19.1-19.1h612.94c10.56,0,19.1,8.55,19.1,19.1"/>
  <path class="cls-1" d="M676.39,2861.83v100.25c0,10.56-8.55,19.1-19.1,19.1h-381.36c-44.8,0-77.5,5.28-98.13,15.87-36.54,16.44-54.8,52.3-54.8,107.54s18.26,90.66,54.8,107.12c20.63,10.57,53.33,15.87,98.13,15.87h381.36c10.56,0,19.1,8.55,19.1,19.1v100.25c0,10.54-8.55,19.1-19.1,19.1h-381.67c-69.32,0-123.28-10.75-161.92-32.26-70.77-40.02-106.16-116.43-106.16-229.19s35.39-189.3,106.16-229.63c38.64-21.49,92.61-32.24,161.92-32.24h381.67c10.56,0,19.1,8.55,19.1,19.1"/>
  <path class="cls-1" d="M676.39,3513.87v112.63c0,6.86-3.69,13.21-9.66,16.6l-382.28,217.64c-17.04,9.69-10.15,35.7,9.45,35.7h363.39c10.56,0,19.1,8.55,19.1,19.1v88.74c0,10.56-8.55,19.1-19.1,19.1H43.45c-10.56,0-19.1-8.55-19.1-19.1v-106.05c0-6.85,3.67-13.16,9.6-16.58l390.86-224.26c16.98-9.75,10.08-35.68-9.5-35.68H43.45c-10.56,0-19.1-8.55-19.1-19.1v-88.74c0-10.56,8.55-19.1,19.1-19.1h613.84c10.56,0,19.1,8.55,19.1,19.1"/>
  <path class="cls-1" d="M404.86,817.31v80.06c0,7.47-5.22,13.91-12.54,15.46l-202.63,42.85c-16.68,3.53-16.73,27.32-.08,30.93l202.77,43.91c7.28,1.57,12.47,8.01,12.47,15.45v74.95c0,10.54-10.1,18.12-20.21,15.2l-367.52-106.55c-6.76-1.96-11.41-8.15-11.41-15.2v-82.64c0-7.44,5.21-13.88,12.49-15.45l206.9-44.57c16.62-3.58,16.65-27.29.03-30.9l-206.98-45.1c-7.27-1.58-12.44-8.02-12.44-15.45v-83.67c0-7.09,4.72-13.31,11.54-15.23l367.52-103.17c10.08-2.83,20.09,4.75,20.09,15.23v78.43c0,7.44-5.19,13.88-12.46,15.47l-199.99,43.48c-16.75,3.64-16.56,27.57.24,30.95l199.51,40.06c7.38,1.47,12.7,7.96,12.7,15.5"/>
  <path class="cls-1" d="M452.48,1290.96v-74.21c0-8.74,7.08-15.81,15.81-15.81h64.68c8.74,0,15.81,7.08,15.81,15.81v74.21c0,8.74-7.08,15.81-15.81,15.81h-64.68c-8.74,0-15.81-7.08-15.81-15.81M404.86,1216.76v74.21c0,8.74-7.08,15.81-15.81,15.81H21.53c-8.74,0-15.81-7.08-15.81-15.81v-74.21c0-8.74,7.08-15.81,15.81-15.81h367.52c8.74,0,15.81,7.08,15.81,15.81"/>
  <path class="cls-1" d="M326.86,1366.83h74.35v55.66h95.51c8.74,0,15.81,7.09,15.81,15.81v71.64c0,8.74-7.08,15.81-15.81,15.81h-95.51v64.82h-74.35v-64.82H115.94c-16.35,0-26.55,2.07-30.58,6.22-4.02,4.15-6.03,16.86-6.03,38.09,0,3.18.06,6.54.17,10.08.13,3.53.3,7.01.55,10.43H2.06l-1.85-49.43c-1.69-49.32,6.85-83.01,25.64-101.07,11.95-11.73,30.39-17.59,55.31-17.59h245.7v-55.66Z"/>
  <path class="cls-1" d="M402.67,1944.45c-8.56,20.04-21.64,36.52-39.22,49.4-14.91,10.94-30.25,17.62-46,20.06-15.75,2.42-41.47,3.64-77.14,3.64H21.53c-8.74,0-15.81-7.08-15.81-15.81v-74.94c0-8.72,7.08-15.81,15.81-15.81h227.26c21.5,0,38.84-3.64,52.05-10.89,18.57-9.47,27.86-27.38,27.86-53.8s-9.23-48.17-27.67-62.34c-18.46-14.2-44.8-21.27-79-21.27H21.53c-8.74,0-15.81-7.08-15.81-15.81v-72.74c0-8.74,7.08-15.81,15.81-15.81h506.31c8.72,0,15.81,7.08,15.81,15.81v72.74c0,8.74-7.09,15.81-15.81,15.81h-174.61c23.19,15.07,39.37,32.51,48.53,52.33,9.15,19.8,13.72,40.65,13.72,62.53,0,24.55-4.27,46.85-12.82,66.91"/>
  <path class="cls-1" d="M18.05,4226.51v-74.21c0-8.74,7.08-15.81,15.81-15.81h64.68c8.74,0,15.81,7.08,15.81,15.81v74.21c0,8.74-7.08,15.81-15.81,15.81H33.87c-8.74,0-15.81-7.08-15.81-15.81"/>
</svg>