<?xml version="1.0" encoding="UTF-8"?>
<svg id="Layer_1" data-name="Layer 1" xmlns="http://www.w3.org/2000/svg" viewBox="0 0 1107.98 588.61">
  <defs>
    <style>
      .cls-1 {
        fill: #f9c89c;
      }

      .cls-2 {
        fill: #f58422;
      }

      .cls-3 {
        stroke-miterlimit: 10;
      }

      .cls-3, .cls-4 {
        fill: none;
        stroke: #f58422;
        stroke-width: 5px;
      }

      .cls-4 {
        stroke-linecap: round;
        stroke-linejoin: round;
      }
    </style>
  </defs>
  <rect class="cls-3" x="2.5" y="2.5" width="1102.98" height="583.61" rx="15.6" ry="15.6"/>
  <g>
    <path class="cls-2" d="M303.05,85.53h7.11v-18.18h-6.17v-4.95c3.6-.72,5.94-1.62,8.28-3.06h5.9v26.19h6.03v6.48h-21.15v-6.48Z"/>
    <path class="cls-2" d="M344.18,67.8c-.27.67-.58,1.44-.95,2.29h15.57c.99,0,2.97-.05,4.23-.27v6.62c-1.49-.18-3.33-.18-4.23-.18h-4.86c-.81,9.13-4.23,16.02-11.65,20.56l-6.71-4.45c1.39-.63,3.1-1.62,4.32-2.56,3.83-3.15,6.34-7.24,7.11-13.54h-6.88c-1.71,2.74-4.32,6.16-6.17,7.78l-6.34-3.69c2.92-2.29,5.22-5.04,6.84-7.51,1.26-1.98,2.03-3.96,2.56-5.8.36-1.17.58-2.61.72-3.6l7.56,1.58c-.45,1.08-.81,1.93-1.12,2.79Z"/>
    <path class="cls-2" d="M403.26,88.36c0,3.69-.85,5.53-3.15,6.61-2.38,1.12-5.67,1.26-10.26,1.26-.36-1.93-1.67-5.13-2.7-6.88,2.88.23,6.66.18,7.74.18s1.39-.36,1.39-1.26v-5.17h-17.95c-1.21,5-3.46,9.81-7.56,13.18-.99-1.35-3.64-3.82-5.08-4.72,6.62-5.49,7.15-13.9,7.15-20.61v-15.43h30.42v32.85ZM396.29,76.75v-4.32h-16.69c-.04,1.35-.13,2.83-.27,4.32h16.96ZM379.59,61.9v4.32h16.69v-4.32h-16.69Z"/>
    <path class="cls-2" d="M422.43,61.77c-.5,2.34-2.16,11.88-2.16,16.06,0,.14,0,.85.04,1.04.63-1.26,1.17-2.16,1.75-3.46l3.28,2.61c-1.35,4.09-2.74,9.04-3.24,11.56-.14.68-.27,1.75-.27,2.16,0,.5,0,1.31.04,2.03l-6.3.4c-.9-3.02-1.8-8.68-1.8-14.8,0-6.88,1.31-14.4,1.75-17.73.18-1.35.5-3.38.54-5.08l7.6.63c-.4,1.04-1.08,3.78-1.26,4.59ZM433.86,83.23c0,1.98,1.89,2.74,5.58,2.74,4,0,7.24-.36,11.34-1.21l.14,7.38c-2.97.54-6.53.85-11.83.85-7.87,0-11.79-2.92-11.79-7.74,0-1.94.27-3.82.81-6.16l6.21.54c-.32,1.44-.45,2.43-.45,3.6ZM449.52,59.88v7.02c-5.89.5-13.77.54-19.8,0l-.04-6.97c5.89.72,14.8.5,19.84-.04Z"/>
    <path class="cls-2" d="M481.52,84.45c3.42,3.33,8.73,5.22,16.11,5.9-1.39,1.44-3.2,4.18-4.05,6.03-8.1-1.26-13.45-4.1-17.28-8.95-2.97,3.87-8.42,7.02-17.82,8.95-.76-1.44-2.61-4.1-4.09-5.53,8.73-1.44,13.36-3.65,15.7-6.39h-14.67v-6.03h4.18v-10.26h12.73v-4.14h6.88v4.14h13.36v10.26h3.78v6.03h-14.85ZM464.24,62.44h-8.42v-5.8h8.42v-3.1h6.48v3.1h10.21v-3.1h6.52v3.1h8.5v5.8h-8.5v3.65h-6.52v-3.65h-10.21v3.65h-6.48v-3.65ZM472.34,78.42v-4.63h-6.43v4.63h6.43ZM479.22,73.78v4.63h6.71v-4.63h-6.71Z"/>
    <path class="cls-2" d="M516.62,66.27h-17.05v-5.08h17.05v5.08ZM515.36,94.66h-8.33v1.62h-5.44v-15.61h13.77v13.99ZM514.95,72.66h-13.18v-4.86h13.18v4.86ZM501.77,74.19h13.18v4.86h-13.18v-4.86ZM515.04,59.7h-13v-4.86h13v4.86ZM507.03,85.75v3.82h2.79v-3.82h-2.79ZM542.49,71.49v5.67h-26.37v-5.67h5.31c.23-1.08.45-2.25.63-3.46h-3.42v-5.49h4.28l.31-2.38h-5.31v-5.53h22.9v5.53h-11.25l-.36,2.38h9.49v8.95h3.78ZM519.36,78.96h20.2v17.14h-6.39v-1.35h-7.7v1.53h-6.12v-17.32ZM525.48,84.76v4.19h7.7v-4.19h-7.7ZM528.36,68.02c-.22,1.21-.41,2.38-.63,3.46h4.72v-3.46h-4.09Z"/>
    <path class="cls-2" d="M555.95,61.77c-.5,2.34-2.16,11.88-2.16,16.06,0,.14,0,.85.04,1.04.63-1.26,1.17-2.16,1.75-3.46l3.28,2.61c-1.35,4.09-2.74,9.04-3.24,11.56-.14.68-.27,1.75-.27,2.16,0,.5,0,1.31.04,2.03l-6.3.4c-.9-3.02-1.8-8.68-1.8-14.8,0-6.88,1.31-14.4,1.75-17.73.18-1.35.5-3.38.54-5.08l7.6.63c-.4,1.04-1.08,3.78-1.26,4.59ZM567.38,83.23c0,1.98,1.89,2.74,5.58,2.74,4,0,7.24-.36,11.34-1.21l.14,7.38c-2.97.54-6.53.85-11.83.85-7.87,0-11.79-2.92-11.79-7.74,0-1.94.27-3.82.81-6.16l6.21.54c-.32,1.44-.45,2.43-.45,3.6ZM583.04,59.88v7.02c-5.89.5-13.77.54-19.8,0l-.04-6.97c5.89.72,14.8.5,19.84-.04Z"/>
    <path class="cls-2" d="M607.92,65.14v25.29c0,2.34-.41,3.92-1.89,4.81-1.44.94-3.28,1.08-5.85,1.08-.18-1.53-.94-4-1.71-5.4,1.49.04,3.06.04,3.55.04s.68-.18.68-.67v-5.94h-7.29c-.45,4.27-1.39,8.68-3.38,11.88-.95-.81-3.19-2.25-4.41-2.79,2.79-4.63,3.02-11.29,3.02-16.29v-7.65c-1.04-.9-2.25-1.89-3.11-2.43,2.79-3.19,4.82-8.37,5.89-13.54l5.67,1.21c-.22.95-.5,1.89-.76,2.83h2.83l1.04-.31,3.42,2.34c-.77,1.8-1.67,3.73-2.66,5.53h4.95ZM596.67,62.44c-.36.94-.76,1.84-1.17,2.7h2.16c.36-.76.76-1.71,1.12-2.7h-2.12ZM595.73,77.16c0,.81,0,1.62-.04,2.47h1.4v-2.7h-1.35v.23ZM595.73,72.39h1.35v-2.52h-1.35v2.52ZM601.22,72.39h1.49v-2.52h-1.49v2.52ZM602.7,79.63v-2.7h-1.49v2.7h1.49ZM625.83,96.37c-.09-.9-.23-1.89-.45-3.02-5.67.67-11.56,1.31-16.15,1.8l-.86-6.25c2.21-.14,4.95-.36,7.88-.58v-6.7h-6.79v-18.94h6.79v-9.18h5.98v9.18h7.2v18.94h-7.2v6.16l1.71-.14c-.4-1.3-.85-2.61-1.3-3.78l5.08-1.57c1.71,3.96,3.29,9,3.6,12.28l-5.49,1.8ZM616.25,76.26v-8.28h-1.39v8.28h1.39ZM622.23,67.98v8.28h1.53v-8.28h-1.53Z"/>
    <path class="cls-2" d="M643.88,55.11l7.88.22c-.32,1.4-.67,3.69-1.04,6.39l1.71,2.29c-.58.77-1.62,2.38-2.43,3.56v.09c3.51-2.92,8.41-6.21,12.64-6.21,5.22,0,7.51,3.15,7.51,7.02,0,4.72-1.4,10.71-1.4,15.43,0,.99.54,1.57,1.4,1.57,1.39,0,3.38-1.08,5.26-2.92l.85,7.69c-1.93,1.66-4.59,3.15-8.59,3.15-3.6,0-5.99-2.7-5.99-7.42s1.58-10.98,1.58-14.94c0-1.98-1.04-3.06-2.75-3.06-3.1,0-7.65,3.96-11.11,7.78-.04.94-.04,1.94-.04,2.83,0,3.42,0,7.83.31,12.15.04.81.23,2.75.36,3.87h-7.47c.09-1.17.13-3.01.13-3.73.04-2.7.09-5.08.18-7.92-1.71,2.52-3.51,5.22-4.77,6.88l-4.23-5.98c2.52-3.15,6.75-8.55,9.45-12.42.04-.81.14-1.62.18-2.43-2.34.27-5.54.67-7.88.99l-.67-6.93c1.44.04,2.56.04,4.46-.04,1.21-.09,2.83-.27,4.54-.5.09-1.44.14-2.56.14-3.01,0-1.44.04-2.88-.23-4.41Z"/>
    <path class="cls-2" d="M689.69,57.36c2.43,0,11.43-.13,14.08-.36,2.16-.18,3.42-.36,4-.54l3.38,4.81c-1.17.72-2.34,1.4-3.46,2.2-2.52,1.71-6.48,4.95-8.96,6.84,1.17-.22,2.07-.27,3.15-.27,7.74,0,13.81,4.95,13.81,11.74s-5.08,13.18-16.74,13.18c-6.34,0-11.61-2.97-11.61-7.92,0-3.96,3.6-7.65,8.73-7.65,5.49,0,9,3.19,9.76,7.47,1.8-1.21,2.65-2.97,2.65-5.17,0-3.87-3.96-6.3-8.91-6.3-6.57,0-11.29,3.96-15.61,9.22l-4.95-5.13c2.88-2.25,8.14-6.7,10.8-8.91,2.52-2.07,6.7-5.31,8.86-7.24-2.25.04-6.88.23-9.31.41-1.35.09-2.97.22-4.05.4l-.22-7.06c1.39.18,3.1.27,4.59.27ZM697.56,88.77c.72,0,1.4-.04,2.03-.09-.23-2.48-1.58-4.09-3.46-4.09-1.49,0-2.34.9-2.34,1.8,0,1.4,1.48,2.38,3.78,2.38Z"/>
    <path class="cls-2" d="M735.81,87.64h-8.82v4.19h-6.03v-35.64h14.85v31.45ZM726.99,61.99v6.79h2.74v-6.79h-2.74ZM729.74,81.84v-7.38h-2.74v7.38h2.74ZM758.13,72.3v3.1h3.82v5.67h-3.82v8.55c0,2.97-.54,4.59-2.52,5.53-1.98.95-4.5,1.08-7.74,1.08-.23-1.8-1.17-4.41-2.03-6.12,1.89.09,4.32.09,5,.09s.9-.13.9-.72v-8.41h-15.12v-5.67h15.12v-3.1h-15.12v-5.71h9.54v-2.97h-8.28v-5.62h8.28v-4.5h6.43v4.5h8.59v5.62h-8.59v2.97h9.58v5.71h-4.05ZM742.74,91.47c-.76-2.07-2.92-5.17-4.86-7.42l5.22-2.97c1.98,2.11,4.32,4.99,5.26,7.15l-5.62,3.24Z"/>
    <path class="cls-2" d="M773.21,71.98v24.3h-6.48v-41.13h17.91v16.83h-11.43ZM773.21,59.79v1.53h5.31v-1.53h-5.31ZM778.52,67.39v-1.75h-5.31v1.75h5.31ZM805.47,88.81c0,3.33-.63,5.17-2.61,6.25-2.02,1.08-4.72,1.21-8.68,1.21-.13-1.12-.54-2.7-1.04-4.18h-10.17v2.29h-5.9v-20.07h17.73v15.43h2.97c.81,0,1.08-.27,1.08-1.04v-16.6h-11.74v-16.96h18.36v33.66ZM782.97,79.05v1.89h5.71v-1.89h-5.71ZM788.69,87.37v-1.89h-5.71v1.89h5.71ZM793.32,59.79v1.53h5.53v-1.53h-5.53ZM798.86,67.53v-1.89h-5.53v1.89h5.53Z"/>
  </g>
  <g>
    <path class="cls-2" d="M667.8,197.62h4.74v10.3h.1l7.84-10.3h5.21l-7.23,9.34,8.51,14.37h-5.18l-6.14-10.66-3.1,4v6.66h-4.74v-23.71Z"/>
    <path class="cls-2" d="M688.98,197.94c0-1.54,1.12-2.56,2.75-2.56s2.72,1.02,2.72,2.56-1.12,2.59-2.72,2.59-2.75-1.02-2.75-2.59ZM689.36,203.41h4.7v17.92h-4.7v-17.92Z"/>
    <path class="cls-2" d="M698.07,212.37c0-5.82,3.65-9.41,7.52-9.41,2.02,0,3.26.77,4.54,1.95l-.16-2.82v-6.3h4.67v25.53h-3.81l-.35-1.86h-.13c-1.31,1.28-3.1,2.3-4.96,2.3-4.45,0-7.33-3.52-7.33-9.41ZM709.97,216.05v-7.87c-1.09-.99-2.24-1.34-3.36-1.34-2.02,0-3.71,1.92-3.71,5.5s1.34,5.57,3.71,5.57c1.25,0,2.3-.51,3.36-1.86Z"/>
    <path class="cls-2" d="M718,219.25l2.14-2.94c1.6,1.25,3.14,1.95,4.8,1.95,1.79,0,2.59-.77,2.59-1.89,0-1.34-1.86-1.95-3.74-2.69-2.27-.86-4.8-2.24-4.8-5.25,0-3.2,2.59-5.47,6.69-5.47,2.59,0,4.61,1.09,6.08,2.21l-2.11,2.85c-1.28-.93-2.53-1.54-3.84-1.54-1.63,0-2.4.7-2.4,1.73,0,1.31,1.66,1.79,3.55,2.5,2.37.9,4.99,2.08,4.99,5.41,0,3.14-2.46,5.66-7.13,5.66-2.4,0-5.02-1.06-6.82-2.53Z"/>
    <path class="cls-2" d="M735.8,210.67v-13.06h4.74v13.47c0,4.93,1.73,6.59,4.48,6.59s4.61-1.66,4.61-6.59v-13.47h4.54v13.06c0,7.87-3.36,11.1-9.15,11.1s-9.21-3.23-9.21-11.1Z"/>
    <path class="cls-2" d="M759.86,197.62h7.78c5.25,0,9.28,1.86,9.28,7.46s-4.06,7.84-9.15,7.84h-3.17v8.42h-4.74v-23.71ZM767.44,209.17c3.26,0,4.83-1.38,4.83-4.1s-1.73-3.68-4.99-3.68h-2.69v7.78h2.85Z"/>
    <path class="cls-2" d="M816.05,202.39c-.35,13.38-.74,18.17-1.86,19.71-.8,1.09-1.54,1.47-2.69,1.66-1.06.19-2.62.19-4.26.13-.06-1.06-.51-2.66-1.12-3.71,1.5.13,2.81.13,3.49.13.51,0,.83-.13,1.15-.58.8-.9,1.18-4.96,1.47-15.42h-3.78c0,6.78-1.18,14.3-8.25,19.81-.67-.9-1.98-1.92-3.01-2.59.51-.38.99-.8,1.44-1.22-.06-.35-.13-.74-.22-1.15-4.03.83-8.22,1.7-11.49,2.37l-.7-3.84c.58-.1,1.18-.19,1.86-.32,1.34-1.86,2.82-4.13,4.19-6.53-1.54-2.05-3.94-4.54-5.98-6.43l2.08-3.33c.42.38.86.77,1.31,1.18,1.31-2.5,2.59-5.5,3.39-8l3.94,1.44c-1.41,3.1-3.14,6.53-4.67,9.02.77.74,1.47,1.5,2.08,2.21,1.02-1.98,1.98-3.97,2.72-5.79l3.1.99v-1.54h4.35v-6.21h3.87v6.21h7.58v1.79ZM797.39,215.63c-.45-1.28-.99-2.59-1.54-3.78-1.02,1.63-2.02,3.23-2.98,4.64,1.47-.26,3.01-.54,4.51-.86ZM799.03,210.39c.99,1.98,1.98,4.29,2.59,6.3,2.56-4.06,2.97-8.48,2.97-12.38h-4.35v-.32c-1.34,2.59-2.85,5.28-4.35,7.81l3.14-1.41Z"/>
    <path class="cls-2" d="M831.22,212.85c-.64,5.63-2.21,9.44-10.59,11.49-.35-1.02-1.34-2.59-2.14-3.42,7.2-1.41,8.13-4.03,8.61-8.06h4.13ZM825.65,195.12v17.37h-3.71v-17.37h3.71ZM845.49,195.54v16.45h-16.1v-16.45h16.1ZM833.07,202.23h8.54v-3.42h-8.54v3.42ZM833.07,208.72h8.54v-3.49h-8.54v3.49ZM839.41,212.79v6.5c0,.96.16,1.12,1.25,1.12h2.94c1.02,0,1.18-.54,1.31-4.22.77.64,2.5,1.22,3.52,1.5-.42,5.02-1.41,6.3-4.45,6.3h-3.9c-3.68,0-4.58-1.18-4.58-4.64v-6.56h3.9Z"/>
    <path class="cls-2" d="M857.68,198.8h16.13c.93,0,2.27-.03,2.82-.06-.03.74-.1,2.02-.1,2.94v16.57c0,1.12.06,2.82.13,3.78h-4.64c.03-.51.03-1.06.03-1.66h-14.59c-1.25,0-3.07.1-4.13.19v-4.58c1.12.1,2.56.19,4,.19h14.75v-13.25h-14.37c-1.34,0-3.07.06-3.97.13v-4.45c1.18.13,2.85.19,3.94.19Z"/>
    <path class="cls-2" d="M888.5,206.71h17.18c1.5,0,2.91-.13,3.74-.19v5.02c-.77-.03-2.4-.16-3.74-.16h-17.18c-1.82,0-3.97.06-5.15.16v-5.02c1.15.1,3.49.19,5.15.19Z"/>
    <path class="cls-2" d="M934.45,201.62c-1.09,2.5-2.88,5.92-5.02,8.8,3.17,2.75,7.04,6.85,8.93,9.15l-3.65,3.17c-2.08-2.88-5.06-6.14-8.06-9.06-3.39,3.58-7.65,6.91-12.03,8.99l-3.3-3.46c5.15-1.92,10.11-5.82,13.12-9.18,2.11-2.4,4.06-5.57,4.77-7.84h-10.85c-1.34,0-3.1.19-3.78.22v-4.54c.86.13,2.82.22,3.78.22h11.3c1.38,0,2.66-.19,3.3-.42l2.62,1.95c-.26.35-.83,1.34-1.12,1.98Z"/>
  </g>
  <g>
    <path class="cls-2" d="M730.49,279.34h-14.08v-5.58l11.65-19.48h9.9v18.94h3.69v6.12h-3.69v7.6h-7.47v-7.6ZM730.49,273.23v-4.77c0-2.11.18-5.35.27-7.47h-.18c-.85,1.89-1.75,3.73-2.7,5.67l-3.83,6.57h6.43Z"/>
    <path class="cls-2" d="M744.67,270.48c0-11.16,4.77-16.83,11.88-16.83s11.83,5.71,11.83,16.83-4.77,17.1-11.83,17.1-11.88-5.94-11.88-17.1ZM760.82,270.48c0-8.82-1.89-10.62-4.28-10.62s-4.32,1.8-4.32,10.62,1.93,10.89,4.32,10.89,4.28-2.07,4.28-10.89Z"/>
    <path class="cls-2" d="M773.47,251h8.01v8.64l-.4,4.54c1.84-1.71,4.37-3.46,7.83-3.46,5.58,0,7.96,4,7.96,10.39v15.84h-8.01v-14.85c0-3.55-.95-4.54-2.97-4.54-1.8,0-2.88.81-4.41,2.29v17.1h-8.01v-35.95Z"/>
    <path class="cls-2" d="M820.54,278.58c-5.85,2.61-12.37,5.31-17.55,7.42l-2.25-7.02c1.71-.54,3.74-1.21,5.94-2.02l-1.04-25.56,6.93-.27.9,23.22c1.85-.72,3.74-1.49,5.54-2.21l1.53,6.43ZM838.63,291.22c-1.53-2.79-4.54-6.61-7.56-10.21-3.19,4.32-7.33,7.69-12.73,10.26-.9-1.44-3.64-4.45-5.22-5.85,13.63-5.26,18.22-16.2,19.71-34.2l7.29.63c-.9,9.04-2.52,16.56-5.31,22.72,3.51,3.78,7.47,8.05,9.4,11.16l-5.58,5.49ZM821.93,268.01c-1.12-3.15-4.01-7.96-6.71-11.38l6.07-2.92c2.88,3.29,5.71,7.69,7.06,10.84l-6.43,3.46Z"/>
    <path class="cls-2" d="M888.13,282.36v6.61h-41.53v-6.61h15.79v-33.39h7.06v12.42h15.48v6.61h-15.48v14.35h18.67Z"/>
  </g>
  <g>
    <path class="cls-2" d="M107.02,206.8v4.13h-29.44v-4.13h29.44Z"/>
    <path class="cls-2" d="M121.97,210.26v10.46c0,1.44-.22,2.27-1.15,2.82-.9.51-2.08.58-3.9.58-.1-.83-.51-2.18-.9-2.98,1.02.03,2.08.03,2.4.03.38,0,.48-.13.48-.51v-10.05l-4.54.48c-.06,4.22-.51,9.57-2.66,12.99-.54-.51-1.82-1.34-2.56-1.66,1.86-3.04,2.18-7.33,2.24-10.98l-1.86.19-.38-3.04,2.24-.19v-9.86h2.91c.35-1.38.74-3.07.86-4.35l4.06.64c-.48,1.31-.99,2.62-1.44,3.71h4.19v8.8l1.34-.16.1,2.91-1.44.16ZM114.35,208.11c1.44-.13,2.98-.29,4.54-.45v-6.18h-4.54v6.62ZM116.88,202.23c.77,1.22,1.44,2.85,1.63,3.97l-2.4.96c-.16-1.09-.74-2.78-1.44-4.03l2.21-.9ZM117.58,218.8h-2.18v-7.29h2.18v7.29ZM138,208.4c-.93,4.06-2.53,7.3-4.67,9.79,1.76,1.25,3.87,2.21,6.37,2.75-.8.74-1.76,2.18-2.27,3.14-2.66-.74-4.86-1.89-6.69-3.42-1.86,1.47-4.03,2.59-6.43,3.46-.42-.93-1.31-2.4-2.02-3.17,2.21-.64,4.22-1.63,5.92-2.94-1.34-1.79-2.43-3.87-3.26-6.27l2.94-.67h-3.9v-3.33h1.34c-.58-.58-1.95-1.7-2.66-2.11,2.27-1.76,2.5-4.1,2.5-6.05v-4.19h10.18v7.07c0,.54-.03.86.03.96.06.13.19.16.32.16h.51c.16,0,.32-.03.42-.13.13-.06.19-.26.26-.67.06-.45.1-1.44.13-2.66.61.51,1.79,1.12,2.72,1.41-.1,1.31-.22,2.72-.45,3.3-.22.61-.61,1.06-1.09,1.28-.45.26-1.15.38-1.73.38h-1.66c-.77,0-1.63-.26-2.14-.8-.51-.51-.74-1.22-.74-3.2v-3.81h-3.39v.96c0,2.72-.51,6.05-3.14,8.1h9.6l.61-.13,2.4.8ZM128.01,211.06c.64,1.73,1.5,3.3,2.62,4.67,1.18-1.34,2.14-2.91,2.82-4.67h-5.44Z"/>
    <path class="cls-2" d="M170.41,199.15s0,1.28-.03,1.73c-.42,14.3-.77,19.39-2.08,21.09-.9,1.18-1.79,1.54-3.07,1.76-1.22.16-3.14.13-5.02.06-.06-1.06-.58-2.66-1.25-3.71,2.05.19,3.94.19,4.77.19.64,0,.99-.13,1.41-.54.93-1.02,1.34-5.82,1.7-17.12h-6.85c-.83,1.92-1.82,3.68-2.82,5.06-.51-.48-1.6-1.22-2.46-1.79v14.94h-8.54v2.34h-3.46v-23.77h3.62c.42-1.6.8-3.65.93-5.15l4.16.58c-.54,1.6-1.12,3.2-1.66,4.58h4.96v5.18c1.86-2.69,3.39-6.56,4.32-10.3l3.65.83c-.35,1.38-.77,2.72-1.25,4.06h8.99ZM151.25,202.71h-5.09v5.18h5.09v-5.18ZM151.25,217.46v-6.27h-5.09v6.27h5.09ZM161.87,215.73c-.9-1.92-2.88-5.06-4.45-7.39l2.98-1.7c1.6,2.21,3.71,5.25,4.7,7.1l-3.23,1.98Z"/>
    <path class="cls-2" d="M186.22,199.95c1.57-.29,3.07-.64,4.32-1.02l.13,3.71c-1.47.38-3.46.8-5.6,1.12-1.54,4.48-4.25,10.08-6.85,13.69l-3.87-1.98c2.53-3.14,5.12-7.84,6.53-11.29-.58.03-1.12.03-1.66.03-1.31,0-2.62-.03-4-.13l-.29-3.71c1.38.16,3.07.22,4.26.22.96,0,1.92-.03,2.91-.13.45-1.76.8-3.68.86-5.34l4.42.45c-.26,1.02-.67,2.66-1.15,4.38ZM194.86,209.62c.03.93.13,2.46.19,4.06,2.75,1.02,4.99,2.62,6.62,4.1l-2.14,3.42c-1.12-1.02-2.56-2.37-4.32-3.42v.32c0,2.98-1.63,5.28-6.18,5.28-3.97,0-7.1-1.76-7.1-5.28,0-3.14,2.62-5.54,7.07-5.54.77,0,1.47.06,2.21.13-.13-2.37-.29-5.22-.35-7.17h4c-.1,1.34-.03,2.69,0,4.1ZM188.46,219.7c2.21,0,2.88-1.22,2.88-2.98v-.64c-.83-.19-1.7-.32-2.59-.32-1.86,0-3.04.83-3.04,1.95,0,1.18.99,1.98,2.75,1.98ZM192.69,202.67l2.05-3.17c2.3.99,6.27,3.17,7.9,4.35l-2.27,3.36c-1.86-1.47-5.5-3.55-7.68-4.54Z"/>
    <path class="cls-2" d="M227.79,201.62c-1.09,2.5-2.88,5.92-5.02,8.8,3.17,2.75,7.04,6.85,8.93,9.15l-3.65,3.17c-2.08-2.88-5.06-6.14-8.06-9.06-3.39,3.58-7.65,6.91-12.03,8.99l-3.3-3.46c5.15-1.92,10.11-5.82,13.12-9.18,2.11-2.4,4.06-5.57,4.77-7.84h-10.85c-1.34,0-3.1.19-3.78.22v-4.54c.86.13,2.82.22,3.78.22h11.29c1.38,0,2.66-.19,3.3-.42l2.62,1.95c-.26.35-.83,1.34-1.12,1.98Z"/>
    <path class="cls-2" d="M249.17,199.63c-.03.06-.06.1-.1.16h6.43c.99,0,2.05-.16,2.78-.38l3.26,2.02c-.35.61-.8,1.5-1.06,2.3-.86,2.85-2.69,7.1-5.57,10.69-3.04,3.71-6.91,6.66-12.93,9.02l-3.78-3.39c6.56-1.95,10.11-4.74,12.9-7.9,2.18-2.5,4.03-6.34,4.54-8.74h-8.99c-2.14,2.78-4.93,5.6-8.06,7.74l-3.58-2.66c5.6-3.42,8.38-7.55,9.98-10.3.48-.8,1.15-2.27,1.44-3.36l4.67,1.54c-.74,1.12-1.57,2.56-1.95,3.26Z"/>
    <path class="cls-2" d="M269.97,206.71h17.18c1.5,0,2.91-.13,3.74-.19v5.02c-.77-.03-2.4-.16-3.74-.16h-17.18c-1.82,0-3.97.06-5.15.16v-5.02c1.15.1,3.49.19,5.15.19Z"/>
    <path class="cls-2" d="M299.6,212.5c.9-2.75.93-8.8.93-12.67,0-1.28-.1-2.14-.29-2.94h4.7c-.03.16-.22,1.57-.22,2.91,0,3.78-.1,10.53-.96,13.76-.96,3.62-2.98,6.75-5.7,9.18l-3.9-2.59c2.82-1.98,4.54-4.93,5.44-7.65ZM309.23,218.26v-18.65c0-1.44-.22-2.66-.26-2.75h4.77c-.03.1-.22,1.34-.22,2.78v16.73c2.59-1.12,5.76-3.65,7.9-6.75l2.46,3.52c-2.66,3.46-7.26,6.91-10.85,8.74-.7.38-1.09.7-1.38.96l-2.69-2.21c.13-.61.26-1.5.26-2.37Z"/>
  </g>
  <g>
    <g>
      <path class="cls-1" d="M920.4,317.12c-57.12,0-103.43,46.31-103.43,103.43s46.31,103.43,103.43,103.43,103.43-46.31,103.43-103.43-46.31-103.43-103.43-103.43ZM920.4,464.48c-24.26,0-43.93-19.67-43.93-43.93s19.67-43.93,43.93-43.93,43.93,19.67,43.93,43.93-19.67,43.93-43.93,43.93Z"/>
      <path class="cls-2" d="M920.41,319.11v36c0,6.17,4.3,11.58,10.36,12.77,25.5,4.99,44.54,28.02,43.27,55.26-1.29,27.54-23.67,49.86-51.22,51.06-20.42.89-38.46-9.63-48.27-25.73-3.3-5.42-9.93-7.79-15.86-5.53l-33.59,12.8c-7.3,2.78-10.54,11.32-6.92,18.25,19.27,36.79,57.81,61.9,102.23,61.9,63.62,0,115.93-52.83,115.32-116.44-.55-58.17-44.18-106.05-100.53-113.26-7.83-1-14.79,5.04-14.79,12.93Z"/>
    </g>
    <g>
      <path class="cls-1" d="M192.25,323.08c-57.12,0-103.43,46.31-103.43,103.43s46.31,103.43,103.43,103.43,103.43-46.31,103.43-103.43-46.31-103.43-103.43-103.43ZM192.25,470.44c-24.26,0-43.93-19.67-43.93-43.93s19.67-43.93,43.93-43.93,43.93,19.67,43.93,43.93-19.67,43.93-43.93,43.93Z"/>
      <path class="cls-2" d="M294.11,426.92h-35.99c-6.26,0-11.58-4.47-12.82-10.61-1.45-7.21-4.34-13.89-8.35-19.74-.03.02-.06.05-.09.07-1.87-2.8-4.01-5.41-6.36-7.8-.09-.09-.18-.18-.26-.26-3.43-3.36-7.3-6.26-11.53-8.61.05-.03.1-.06.14-.1-4.9-2.8-10.28-4.85-15.99-6-6.14-1.23-10.62-6.55-10.62-12.82v-35.99c0-7.84,6.88-13.94,14.66-12.95,26.19,3.32,49.64,15.43,67.31,33.28.06.06.13.13.19.19,17.51,17.59,29.38,40.8,32.66,66.68.98,7.78-5.11,14.66-12.96,14.66Z"/>
    </g>
  </g>
  <g>
    <path class="cls-1" d="M667.63,316.82c-57.12,0-103.43,46.31-103.43,103.43s46.31,103.43,103.43,103.43,103.43-46.31,103.43-103.43-46.31-103.43-103.43-103.43ZM667.63,464.18c-24.26,0-43.93-19.67-43.93-43.93s19.67-43.93,43.93-43.93,43.93,19.67,43.93,43.93-19.67,43.93-43.93,43.93Z"/>
    <path class="cls-2" d="M667.63,304.93c-63.69,0-115.33,51.63-115.33,115.32s51.63,115.33,115.33,115.33,115.33-51.63,115.33-115.33-51.63-115.32-115.33-115.32ZM667.63,473.93c-29.65,0-53.68-24.04-53.68-53.69s24.03-53.68,53.68-53.68,53.69,24.03,53.69,53.68-24.04,53.69-53.69,53.69Z"/>
  </g>
  <g>
    <path class="cls-2" d="M1008.91,302.43h5.09v-14.37h-4.29v-2.91c2.37-.45,4-1.06,5.5-1.98h3.49v19.26h4.45v3.81h-14.24v-3.81Z"/>
    <path class="cls-2" d="M1026.71,295.33c0-8.8,4.38-12.61,9.18-12.61,2.88,0,4.99,1.22,6.4,2.69l-2.5,2.82c-.83-.93-2.27-1.7-3.65-1.7-2.72,0-4.96,2.02-5.15,7.97,1.31-1.63,3.33-2.59,4.86-2.59,3.97,0,6.82,2.27,6.82,7.1s-3.39,7.68-7.46,7.68c-4.48,0-8.51-3.46-8.51-11.36ZM1031.12,297.76c.45,3.9,2.05,5.38,4,5.38,1.79,0,3.23-1.38,3.23-4.13,0-2.59-1.34-3.78-3.39-3.78-1.22,0-2.66.67-3.84,2.53Z"/>
    <path class="cls-2" d="M1046.51,280.7h4.7v6.43l-.22,3.36c1.44-1.34,3.2-2.62,5.63-2.62,3.87,0,5.54,2.69,5.54,7.2v11.17h-4.7v-10.59c0-2.78-.77-3.74-2.53-3.74-1.47,0-2.4.7-3.71,2.02v12.32h-4.7v-25.53Z"/>
  </g>
  <polyline class="cls-4" points="1061.79 315.42 1008.18 315.42 984.77 338.83"/>
  <g>
    <path class="cls-2" d="M273.81,303.39l2.21-2.98c1.41,1.38,3.14,2.43,5.28,2.43,2.4,0,4.03-1.15,4.03-3.14,0-2.24-1.38-3.62-6.53-3.62v-3.39c4.35,0,5.76-1.44,5.76-3.42,0-1.79-1.15-2.85-3.17-2.85-1.7,0-3.07.8-4.48,2.11l-2.4-2.88c2.05-1.79,4.32-2.94,7.1-2.94,4.58,0,7.68,2.24,7.68,6.21,0,2.5-1.47,4.22-3.94,5.22v.16c2.66.7,4.7,2.66,4.7,5.7,0,4.22-3.81,6.69-8.32,6.69-3.74,0-6.27-1.41-7.94-3.29Z"/>
    <path class="cls-2" d="M294.35,280.7h4.7v6.43l-.22,3.36c1.44-1.34,3.2-2.62,5.63-2.62,3.87,0,5.54,2.69,5.54,7.2v11.17h-4.7v-10.59c0-2.78-.77-3.74-2.53-3.74-1.47,0-2.4.7-3.71,2.02v12.32h-4.7v-25.53Z"/>
  </g>
  <polyline class="cls-4" points="313.05 315.42 269.43 315.42 246.03 338.83"/>
  <g>
    <path class="cls-2" d="M503.48,504.98c6.18-5.89,10.24-9.92,10.24-13.34,0-2.34-1.28-3.74-3.55-3.74-1.73,0-3.14,1.15-4.35,2.46l-2.56-2.56c2.18-2.33,4.29-3.62,7.52-3.62,4.48,0,7.46,2.85,7.46,7.2,0,4.03-3.71,8.19-7.94,12.61,1.18-.13,2.75-.26,3.87-.26h5.18v3.97h-15.87v-2.72Z"/>
    <path class="cls-2" d="M531.74,501.97h-10.11v-3.23l8.83-14.11h5.66v13.73h2.78v3.62h-2.78v5.73h-4.38v-5.73ZM531.74,498.35v-4.61c0-1.38.1-3.55.16-4.93h-.13c-.58,1.25-1.22,2.43-1.89,3.71l-3.68,5.82h5.54Z"/>
    <path class="cls-2" d="M542.33,482.16h4.7v6.43l-.22,3.36c1.44-1.34,3.2-2.62,5.63-2.62,3.87,0,5.54,2.69,5.54,7.2v11.17h-4.7v-10.59c0-2.78-.77-3.74-2.53-3.74-1.47,0-2.4.7-3.71,2.02v12.32h-4.7v-25.53Z"/>
  </g>
  <polyline class="cls-4" points="505.69 519.4 559.3 519.4 582.7 495.99"/>
</svg>