<?xml version="1.0" encoding="UTF-8"?>
<svg id="Layer_1" data-name="Layer 1" xmlns="http://www.w3.org/2000/svg" viewBox="0 0 184.37 271.45">
  <defs>
    <style>
      .cls-1 {
        fill: #fcc48c;
      }

      .cls-2 {
        fill: #c4e0b0;
      }

      .cls-3 {
        fill: #638aaf;
      }
    </style>
  </defs>
  <path class="cls-2" d="M88.05,16.17c-6.55-8.23-17.93-10.14-27.71-7.68-5.11,1.29-9.7,3.77-13.92,6.82-2.56-1.03-5.27-1.71-8.04-1.99-.23-.02-.46-.04-.68-.06,1.05-1,2.21-1.59,3.39-1.13,1.63.64,2.77-2.06,1.19-2.83-3.27-1.61-6.25.56-8.47,2.92-.39.42-.77.85-1.14,1.29-5.37.89-10.39,3.7-14.25,7.53-5.21,5.17-8.6,12-10.79,18.93-2.52,8-3.74,17.19-.7,25.22,1.5,3.98,3.84,7.48,6.75,10.4.63,1.72,1.43,3.39,2.42,4.99.44.7.91,1.39,1.42,2.07.1,1.27.23,2.53.4,3.8.96,7.35,3.07,14.54,6.9,20.93,2.13,3.55,4.74,7.02,8.98,8.03,4.03.96,8.07-.17,11.72-1.89,3.54-1.67,6.97-3.92,10.14-6.47,2.14.33,4.23-.19,6.23-1.04,3.46-1.46,6.52-3.41,9.44-5.75,11.22-9,17.34-23.6,21.18-37.08,1.89-6.62,2.98-13.79,2.58-20.74.72-9.07-1.31-19.1-7.02-26.28ZM51.85,92.65c-.99-.91-1.99-1.82-2.99-2.73,4.81-2.95,8.69-7.58,11.55-12.79,1.45-1.22,2.81-2.55,4.08-3.98.27.23.55.44.84.65.52,1.78,1.12,3.58,1.92,5.27-3.02,5.46-6.61,10.59-10.84,15.12-.44.47-.89.94-1.34,1.4-1.07-.98-2.14-1.97-3.21-2.95ZM51.63,70.1c-1.11.78-2.27,1.48-3.47,2.11-.32.17-.65.32-.98.48-.06.03-.35.16-.46.21-.55.22-1.12.43-1.68.61-1.18.38-2.38.63-3.6.87-.04,0-.06.01-.09.02-.3.03-.6.06-.9.09-.64.05-1.28.07-1.92.08.08-1.94.43-3.91.74-5.77.52-3.09,1.12-6.17,1.85-9.23,2.03-8.56,5.01-17.13,9.7-24.61.09,0,.17,0,.26-.01.48-.02.95-.05,1.43-.08,2.35,4.35,3.23,9.18,3.32,14.08.11,6.29-.81,12.12-2.98,18.21-.19.52-.38,1.03-.59,1.55,0-.02-.53,1.2-.6,1.36,0,0,0,0,0,0-.01,0-.02.01-.03.02ZM66.37,21.65c5.86-.04,9.89,2.35,13.48,6.71.19.23.39.51.61.82.23,2.22.19,4.5-.03,6.79-.73-1.06-1.62-2.03-2.72-2.86-2.54-1.91-5.49-2.59-8.24-2.11.22-.53.34-1.11.34-1.73,0-2.48-2.16-4.82-4.72-4.72-1.93.08-3.87.09-5.81.09.97-.92,2.01-1.81,3.1-2.61,1.32-.23,2.66-.37,4-.38ZM74.51,53.28c.4,1.95.74,3.91.99,5.87-.39,1.29-.8,2.58-1.24,3.86-.31-2.45-.43-4.92-.36-7.39.22-.77.42-1.55.6-2.33ZM34.15,39.59c1.27-1.45,2.55-2.79,3.87-4.05.63-.03,1.27-.06,1.9-.08-.79,1.53-1.53,3.09-2.21,4.67-2.9,6.7-5.03,13.67-6.53,20.81-.79,3.77-1.73,7.86-2.02,11.9-.29-.11-.53-.2-.5-.18-1.1-.49-2.16-1.05-3.19-1.67-.49-.29-.96-.6-1.43-.93.05-1.8.14-3.6.26-5.38.26-3.88.67-7.74,1.16-11.59,2.07-4.92,5.32-9.69,8.68-13.51ZM31.25,25.36c.3-.15.72-.27.18-.08.69-.25,1.39-.48,2.1-.65.16-.04.32-.07.47-.11-1.38,1.11-2.73,2.28-4.04,3.51.16-.53.32-1.05.49-1.58.09-.28.19-.55.28-.83.17-.09.34-.18.51-.26ZM22.57,36.12c-1.43,1.86-2.76,3.8-3.96,5.8,1.19-3.51,2.85-7.03,5.03-10.02-.39,1.4-.75,2.8-1.08,4.22ZM43.19,105.24c-2.1,1.27-4.98,2.88-7.52,2.28-2.6-.61-4.32-4.32-5.51-6.44-1.92-3.43-3.3-7.08-4.25-10.83,2.28,1.32,4.76,2.27,7.36,2.71,1.75.29,3.44.38,5.07.3.42.39.84.77,1.25,1.16,2.75,2.55,5.48,5.11,8.24,7.65-1.49,1.14-3.03,2.21-4.64,3.19Z"/>
  <path class="cls-1" d="M180.47,156.81c-.64-4.56-3.15-9.18-8.57-8.45-1.82.24-3.3,1.15-4.57,2.37-1.49-2.48-3.22-4.81-5.14-7.02-3.39-3.91-9.06-7.41-14.25-4.64-1.31.7-2.28,1.6-2.98,2.64-.76-.7-1.61-1.33-2.56-1.84-3.46-1.87-7.9-2.14-11.37-.14-2.92,1.69-4.38,4.6-5.28,7.68-2.3,4.1-3.42,8.81-3.4,13.53-.12.23-.23.47-.33.7-4.12,9.33,1.57,19.15,7.65,26.11,5.85,6.7,14.07,10.76,23.03,9.05,2.01-.38,3.96-1.09,5.81-2.03,2.88,2.88,6.38,4.71,10.9,3.39,7.65-2.23,8.67-10.95,9.88-17.6,1.43-7.89,2.3-15.76,1.18-23.74ZM155.55,169.43c-.22-.28-.43-.57-.65-.85.36.1.73.17,1.1.2-.15.22-.3.44-.45.65ZM140.48,173.42c-.26.64-.79,1.41-1.31,2.05-.05.04-.18.16-.44.4.06-.05.81-.13-.02.05-.19-.18-.37-.37-.55-.57.07.09.31.44-.07-.08-.3-.41-.55-.85-.8-1.29-.64-1.17-.9-1.99-1.33-3.56-.45-1.66-.84-3.4-1.05-5.09-.04-.34-.08-.68-.11-1.02.04.02.08.03.08.04.11.05.19.1.26.13.28.23.54.49.79.74,1.23,1.22,2.31,2.61,3.41,3.94.6.73,1.19,1.46,1.78,2.17-.16.71-.36,1.41-.64,2.08ZM136.14,148.96s.14-.23.21-.37c.06-.03.14-.06.2-.08.16.06,1.1.32.85.17,1.01.47,1.33.98,1.95,2.1.53.94.95,2.09,1.28,3.32-1.68-.87-3.49-1.4-5.36-1.49.16-.83.34-1.65.55-2.46.05-.2.44-1.73.32-1.19Z"/>
  <path class="cls-3" d="M49.32,103.08C23.41,102.73-1.12,82.36.04,55.26c.2-4.7.17-9.47.94-14.09C3.67,20.8,22.48,8.35,40.38,1.9c6.76-3.17,14.06-1.3,21.22-1.78,14.4.28,28.59,9.27,35.36,21.89,12.73,20.58,17.85,47.38-5.07,62.95-7.03,5.1-13.53,11.36-21.86,14.25-4.14,1.58-4.44,1.69-6.41,3.95,1.72,1.95,10.47,15.36,3.48,14.48-2.88.22-7.21-2.14-9,.99-1.84,3.91-4.04,7.65-4.24,12.19-.17,3.74.76,6.71,3.91,9,5.01,3.64,9.95,7.39,14.8,11.23,3.37,2.96,6.74,7.16,4.96,11.88-2.53,7.06-7.03,13.31-10.42,19.99-1.2,3.46-6.75,7.65-3.08,11.08,5.85,5.47,12.95,10.05,16.25,17.62,2,3.79-.73,9.38-4.14,4.45.38-10.47-24.02-20.08-18.07-27.25,2.35-3.65,5-7.11,7.14-10.87,2.7-4.73,5.05-9.66,7.48-14.54,1.07-2.14,1.31-4.38-.62-6.19-2.78-2.61-5.57-5.22-8.56-7.59-3.29-2.61-7.04-4.68-10.15-7.47-7.2-6.5-3.51-16.98.12-24.59-2.37.88-4.27,1.32-5.86,2.27-1.35.8-2.55,1.15-3.69.13-1.23-1.1-1.33-2.56-.59-4.09,2.05-4.37,4.11-8.3,5.98-12.81ZM103.53,54.86c.46-6.54-2.01-13.26-4.02-17.61-6.43-15.08-13.97-27.49-30.72-31.1C43.33-1.27,9.12,15.43,4.67,43.06c-.65,7.57-2.02,15.57-.53,23.07,5.02,18.4,21.84,31.9,40.87,32.81,3.1.34,6.39,1.4,9.29-1.08,2.37-.69,5.72.43,8.16-.35,9.36-2.62,16.94-9.13,24.96-14.34,8.95-6.86,17.17-16.2,16.11-28.3ZM64.58,112.15c-1.86-5.09-5.6-7.37-10.18-9.42-1.76,3.67-3.42,7.15-5.12,10.71,5.36-.45,10.18-.86,15.3-1.29Z"/>
  <path class="cls-3" d="M140.38,197.61c2.56,6.2,8.1,11.42,4.49,18-3.09-.63-5.94-1.2-9.42-1.91-.54,5.52.81,9.59,2.35,14.61,2.17,3.82,5.69,6.86,8.41,10.32,2.28,2.63,2.3,4.18.37,7.21-2.69,5.55-11.62,14.41-8.14,20.49,1.47,5.31-4.59,7.6-5.49,1.42-2.98-11.54,13.38-23.7,8.65-28.02-6.31-6.95-12.33-15.11-10.31-25.03.27-1.84-.31-2.73-2.19-3.12-2.04-.43-4.14-1.02-5.26-3.75,1.82-3.64,3.8-7.59,5.84-11.66-7.03-4.28-11.61-10.81-14.92-18.15-7.48-13.44-13.25-30.39,2.53-41.01,18.54-11.88,25.49-12.72,46.15-6.06,16.36,9.27,26.76,32.94,17.36,50.52-1.69,3.31-4.79,5.38-7.88,7.19-10.15,5.63-20.09,10.83-32.54,8.97ZM180.1,167.08c-.11-.01-.23-.02-.34-.04.98-11.87-5.23-17.74-11.51-26.68-4.75-6.95-21.81-10.41-29.64-8.66-23.88,7.13-35.39,19.87-20.69,43.51,3.85,6.63,9.26,18.74,18.83,15.07,5.1-1.79,2.8,3.4,7.46,2.79,8.67.58,16.29-3.47,23.97-6.91,8.17-3.03,11.93-10.66,11.92-19.08ZM140.95,209.33c-1.54-4.73-3.04-9-6.55-13.14-1.76,3.72-3.18,6.75-4.69,9.94,3.67,1.53,6.68,3.61,11.24,3.2Z"/>
</svg>