<?xml version="1.0" encoding="UTF-8"?>
<svg id="Layer_4_copy" xmlns="http://www.w3.org/2000/svg" version="1.1" viewBox="0 0 123.7 132.7">
  <!-- Generator: Adobe Illustrator 29.0.0, SVG Export Plug-In . SVG Version: 2.1.0 Build 186)  -->
  <defs>
    <style>
      .st0 {
        fill: #f16883;
      }

      .st1 {
        opacity: .3;
      }

      .st2 {
        fill: #f7e2d7;
      }
    </style>
  </defs>
  <g class="st1">
    <path class="st0" d="M123.6,49.8c.6-1.3-.8-2.5-2-2.6-2.4-.2-1.5-4.3,0-5,1.1-.5,1.2-1.9.8-2.8-1-2.3-3-3.5-5.2-4.6-2.8-1.4-5.8-2.8-8.9-3.5-4.7-1-9.6-.7-14.2.3-5,1.1-9.8,3.2-13.7,6.4,1.3-10.2-2.1-20.7-8.5-28.8-2.7-3.4-6.4-7.9-10.9-9-1.7-.4-3.7,0-4.8,1.4-.8,1.1-.4,2.4-1,3.4,0,.3,0,.6-.1.8-.9.1-1.6-.2-2.1-.9-.7-.6-1.2-1.5-1.6-2.3,0-.1-.2-.2-.2-.3-.6-1-2.1-1.6-3.3-.5-13.4,11.7-22.8,34-12.9,50.2-5.8-1-12.2-.2-17.7,1.3-2.9.8-5.9,1.8-8.7,2.9-2.5,1-5.8,2-7.7,3.9-4.6,4.5,7.7,7.2,3.3,10.6-1-.4-2.3.2-2.3,1.5-.2,13.5,13.2,24.8,26.4,23.8-6,10.9-6.2,25.6,2.1,35,.7.8,2.1.7,2.8,0,1.8-1.7,3-2.2,5.1-.5.8.7,1.6,1.4,2.6,1.8,1.7.7,3.4.4,5.1-.2,3.9-1.2,7.9-3.2,11.2-5.4,6.1-4.2,11-9.4,14-15.8,3.8,7.3,11.2,12.7,19.4,14.1,10.3,1.8,19.6-2.4,26.9-9.5,1.6-1.5,0-3.9-2-3.5-1.9-1.4-1.8-2,.2-1.8,1.6.5,2.6-.9,2.5-2.2.2-.2.3-.5.4-.8,2.5-8.4.5-15.4-4.8-22.2-3.2-4.1-7.5-8.4-12.5-10.8,10-5.1,17.9-14,22.2-24.4h0ZM95.1,72.5c-.2,0-.5,0-.7,0-1.8,0-2.2,2.7-.4,3.2.3,0,.6.2.8.3.4.3.9.6,1.4.5,5.8,2.2,10.4,5.9,14.3,10.9,2,2.6,4,5.5,4.8,8.7.8,3.4,0,6.7-.6,10.1-2.5.2-4.9,2.1-4.9,4.9,0,1.8.8,3.2,2,4.1-5.9,4.6-13,7.3-20.7,5.9-8-1.5-14-6.8-18-13.7-.1-.2-.2-.3-.4-.5.4-1.3.7-2.7.9-4,.4-2.5-3.5-3.6-3.8-1.1-1.6,10.7-9,19.1-18.5,24-1.6.8-3.2,1.5-4.8,2.2-2.9,1.1-3.6,1.2-6.2-.8-3.1-2.3-5.6-2.1-8.1-.2-6.4-8.9-5.1-22.6,1.2-31.9.8-.3,1.2-1,1.2-1.7,1.5-1.9,3.2-3.6,5.1-4.9,1.7-1.2.2-3.9-1.6-2.8-2.4,1.5-4.5,3.4-6.4,5.6-6.5.9-12.7.2-18-4-4.2-3.3-6.5-7.7-7.8-12.7.1,0,.3-.1.4-.2,2.5-1.5,3.8-4,2.9-6.9-.4-1.3-1.1-2.5-2-3.4-.5-.5-1.5-1.1-2.3-1.7,1.5-1,4-1.8,5-2.2,1.8-.7,3.7-1.4,5.6-2,3.2-1,6.4-1.9,9.7-2.3,7.4-1,14.4.4,20.3,5.1,1.6,1.2,3.5-.7,2.2-2.2-2.1-2.5-4.6-4.2-7.3-5.3-4.8-7.5-6.3-16.3-4.2-25,2.2-8.9,7.4-15.9,13.5-22.3,2.3,3.1,6.9,6.2,9,1.3.8-2-.2-4.4,2.6-3.1,2.1,1,3.9,3.1,5.4,4.8,8.5,9.5,12.2,21.9,8.3,34.4,0,.2,0,.5,0,.7-.8,1.3-1.5,2.8-2,4.3-.7,2,2.3,2.7,3.1.9.5-1.3,1.2-2.5,2-3.6.4-.2.8-.6,1-1.2,0,0,0,0,0-.2,3.9-4.5,9.8-7.4,15.5-8.8,3.6-.9,7.4-1.2,11.1-.7,2.7.3,5.2,1.2,7.6,2.4,1.5.7,3.4,1.4,4.6,2.5-2.7,2.9-2.1,8.3,1.1,10.4-5,10.2-13.3,17.6-23.8,22.1h0Z"/>
    <path class="st0" d="M88.8,61c-.2-.2-.3-.5-.5-.6,0,0,0,0,0,0,0,0-.1-.1-.2-.2-.2-.2-.4-.3-.6-.4-1.6-.9-3.2-.5-4.2.6-.3.3-.6.8-.8,1.2h0s0,0,0,0c-.2,0-.4,0-.7.2-5.1,2.3-10.5,4.1-15.9,5.6-.3-.4-.7-.7-1.3-.7.1-6.1-.4-12.1-1.5-18.2.2-.4.4-.8.5-1.3.4-3.1-3.1-5.7-5.8-3.8-1.4,1-2,2.8-1.3,4.4,0,0,0,0,0,0,0,.4.2.8.5,1.2.7.8,1.6,1.2,2.5,1.2,1.2,5.4,1.8,10.9,2,16.4-6,.3-12,.5-17.9,1.1-.2,0-.3,0-.5.1-.1,0-.2-.2-.3-.3-1.2-.7-2.7.2-3.5,1,0,0,0,0,0,0-.5.3-.9.8-1.2,1.4-.5,1.1-.3,2.4.5,3.3,1,1.1,2.7.6,3.8,0,1-.6,1.6-1.5,1.8-2.6,5.8.5,12,.4,17.8,0h0c-1.8,5.7-3.9,11.3-6.2,16.8-.8,0-1.3.3-1.8.9-.4.2-.8.5-1.1.9-1.6,2.3.2,5.6,3,5.4,1.5-.1,2.8-1.1,3.3-2.5.3-.8.2-1.7-.2-2.5,2.5-5.3,4.5-10.9,5.9-16.7,5.3,3.9,10.3,8.1,15.6,12,0,0,0,0-.1.2-.4.7-.4,1.4-.3,2.1-.2.4-.3.9,0,1.3.7,1.7,2.2,3,4.1,2.9,1.9-.1,3.4-1.6,3.5-3.5,0-1.3-.7-2.5-1.8-3-.3-.4-.7-.8-1.1-1,0-.3-.2-.7-.6-.9-5.4-4.7-11.4-8.7-17.3-12.6,5.7-1.1,11.3-2.8,16.7-5,0,0,0,0,0,0,.2.2.6.5.9.6.2.1.4.2.6.3,1.6.5,3-.2,3.9-1.4.4-.5.6-1.1.7-1.8v-.3c0-.6-.1-1.2-.5-1.8h0ZM83.7,87.4h0ZM83.7,87.4s0,0,0,0c0,0,0,0,0,0,0,0,0,0,0,0h0ZM83.7,87.4h0ZM83.7,87.4h0c0,0,0,0,0,0Z"/>
  </g>
  <path class="st2" d="M83.7,87.4h0s0,0,0,0Z"/>
  <path class="st2" d="M83.7,87.4h0s0,0,0,0c0,0,0,0,0,0,0,0,0,0,0,0Z"/>
  <path class="st2" d="M117.8,39.9c-1.3-1.2-3.1-1.8-4.6-2.5-2.4-1.1-4.9-2-7.6-2.4-3.7-.5-7.5-.1-11.1.7-5.6,1.4-11.6,4.2-15.5,8.8,0,0,0,.1,0,.2-.2.6-.5.9-1,1.2-.8,1.1-1.5,2.3-2,3.6-.8,1.9-3.8,1.1-3.1-.9.5-1.5,1.2-3,2-4.3,0-.2,0-.5,0-.7,3.9-12.5.2-24.9-8.3-34.4-1.5-1.7-3.3-3.8-5.4-4.8-2.8-1.3-1.8,1.2-2.6,3.1-2.1,4.9-6.7,1.8-9-1.3-6.1,6.5-11.4,13.5-13.5,22.3-2.1,8.7-.5,17.6,4.2,25,2.8,1.2,5.3,2.9,7.3,5.3,1.3,1.6-.6,3.5-2.2,2.2-5.9-4.7-12.9-6.1-20.3-5.1-3.3.4-6.6,1.3-9.7,2.3-1.9.6-3.8,1.3-5.6,2-1,.4-3.5,1.2-5,2.2.8.6,1.9,1.1,2.3,1.6.9,1,1.6,2.2,2,3.4.8,2.9-.4,5.4-2.9,6.9-.1,0-.3.1-.4.2,1.3,4.9,3.6,9.4,7.8,12.7,5.3,4.2,11.6,4.9,18,4,1.8-2.2,4-4.1,6.4-5.6,1.8-1.1,3.3,1.6,1.6,2.8-1.9,1.3-3.6,3-5.1,4.9,0,.7-.4,1.3-1.2,1.7-6.2,9.3-7.6,23-1.2,31.9,2.6-1.9,5-2.1,8.1.2,2.7,2,3.3,1.8,6.2.8,1.6-.6,3.2-1.3,4.8-2.2,9.5-4.9,16.9-13.3,18.5-24,.4-2.5,4.2-1.4,3.8,1.1-.2,1.4-.5,2.7-.9,4,.2.1.3.3.4.5,4,6.9,10,12.2,18,13.7,7.7,1.4,14.8-1.2,20.6-5.9-1.2-.9-2.1-2.3-2-4.1,0-2.8,2.4-4.7,4.9-4.9.6-3.4,1.4-6.7.6-10.1-.8-3.2-2.8-6.1-4.8-8.7-3.9-5-8.5-8.7-14.3-10.9-.5,0-1-.1-1.4-.5-.3,0-.6-.2-.9-.3-1.7-.5-1.4-3.2.4-3.2.2,0,.5,0,.7,0,10.5-4.6,18.8-11.9,23.7-22.1-3.2-2.2-3.8-7.5-1.1-10.4ZM89.4,63.1c0,.7-.3,1.3-.7,1.8-.8,1.2-2.3,1.9-3.9,1.4-.2,0-.4-.2-.6-.3-.3-.2-.6-.4-.9-.6,0,0,0,0,0,0-5.5,2.2-11,3.9-16.7,5,5.9,4,11.9,7.9,17.3,12.6.3.3.5.6.5.9.5.2.8.6,1.1,1,1.1.5,1.9,1.7,1.8,3,0,1.9-1.6,3.4-3.5,3.5-1.9.1-3.4-1.2-4.1-2.9-.2-.4-.1-.9,0-1.3,0-.7,0-1.4.4-2.1,0,0,0-.1.1-.2-5.3-3.9-10.3-8.1-15.5-12-1.4,5.7-3.4,11.3-5.9,16.7.4.8.4,1.7.2,2.5-.4,1.4-1.8,2.4-3.3,2.5-2.8.2-4.6-3.2-3-5.4.3-.4.7-.7,1.1-.9.5-.6,1.1-.9,1.8-.9,2.4-5.5,4.4-11.1,6.2-16.8h0c-5.9.4-12,.5-17.8,0-.2,1.1-.8,2-1.8,2.6-1.1.7-2.8,1.1-3.8,0-.8-.9-1-2.2-.5-3.3.3-.6.7-1.1,1.1-1.4,0,0,0,0,0,0,.8-.8,2.4-1.7,3.5-1,.1,0,.2.2.3.3.1,0,.3-.1.5-.1,5.9-.6,12-.8,17.9-1.1-.2-5.5-.9-11-2-16.4-1,0-1.9-.4-2.5-1.2-.3-.4-.5-.8-.5-1.2,0,0,0,0,0,0-.8-1.6,0-3.4,1.3-4.4,2.7-1.9,6.2.7,5.8,3.8,0,.5-.2.9-.5,1.3,1.1,6,1.6,12,1.5,18.2.6,0,1.1.3,1.4.7,5.5-1.4,10.8-3.2,15.9-5.5.2-.1.5-.2.7-.2,0,0,0,0,0,0h0c.2-.5.5-.9.8-1.2,1-1.1,2.7-1.5,4.2-.6.2.1.4.3.6.4,0,0,.2.1.2.2,0,0,0,0,0,0,.2.2.4.4.5.6h0c.4.6.5,1.2.5,1.8v.3Z"/>
</svg>