<?xml version="1.0" encoding="UTF-8"?>
<svg id="Layer_4_copy" data-name="Layer 4 copy" xmlns="http://www.w3.org/2000/svg" viewBox="0 0 123.74 132.7">
  <defs>
    <style>
      .cls-1 {
        fill: #f16883;
      }

      .cls-2 {
        opacity: .5;
      }
    </style>
  </defs>
  <g class="cls-2">
    <path class="cls-1" d="M123.61,49.76c.56-1.33-.82-2.55-2-2.62-2.37-.15-1.46-4.31.1-5.01,1.11-.5,1.15-1.91.75-2.85-1.01-2.33-2.97-3.46-5.16-4.56-2.85-1.44-5.8-2.82-8.94-3.5-4.66-1-9.55-.71-14.17.32-4.96,1.11-9.78,3.22-13.69,6.36,1.29-10.23-2.14-20.69-8.54-28.77-2.71-3.42-6.39-7.95-10.88-8.98-1.69-.39-3.68-.08-4.76,1.4-.78,1.08-.37,2.44-.95,3.45-.05.28-.09.57-.14.85-.92.13-1.62-.16-2.1-.86-.68-.56-1.15-1.54-1.56-2.3-.07-.14-.15-.25-.24-.35-.61-1.03-2.09-1.59-3.29-.55-13.38,11.69-22.79,34-12.9,50.21-5.82-1.01-12.16-.18-17.73,1.34-2.94.8-5.85,1.81-8.68,2.92-2.49.98-5.75,2.02-7.7,3.92-4.6,4.5,7.67,7.25,3.31,10.56-.95-.36-2.3.25-2.32,1.49-.21,13.54,13.25,24.84,26.41,23.75-6.05,10.86-6.18,25.64,2.08,35.03.71.81,2.05.69,2.78,0,1.75-1.67,3.03-2.18,5.06-.5.83.68,1.6,1.37,2.61,1.78,1.71.69,3.4.35,5.1-.2,3.86-1.23,7.9-3.16,11.21-5.44,6.07-4.19,11.05-9.4,13.97-15.83,3.84,7.34,11.16,12.67,19.36,14.09,10.27,1.79,19.62-2.43,26.94-9.49,1.56-1.5-.07-3.89-2.02-3.46-1.88-1.39-1.81-2.01.22-1.85,1.61.47,2.63-.95,2.5-2.24.16-.21.29-.46.39-.77,2.5-8.43.54-15.39-4.77-22.21-3.19-4.1-7.51-8.44-12.5-10.77,10.03-5.12,17.86-14.03,22.22-24.39ZM95.09,72.47c-.25-.02-.49-.05-.74-.05-1.84-.03-2.17,2.67-.43,3.17.29.08.56.19.85.28.38.35.87.55,1.42.47,5.79,2.15,10.41,5.88,14.28,10.86,2.01,2.58,4.04,5.48,4.82,8.7.84,3.43-.04,6.7-.6,10.09-2.54.24-4.87,2.12-4.94,4.92-.04,1.76.8,3.16,2.04,4.06-5.87,4.63-12.98,7.29-20.65,5.88-7.99-1.47-14-6.77-17.96-13.65-.11-.19-.25-.35-.41-.46.38-1.3.69-2.65.9-4.04.38-2.51-3.47-3.59-3.85-1.06-1.6,10.7-8.96,19.12-18.47,24.01-1.56.8-3.16,1.54-4.8,2.15-2.92,1.08-3.58,1.24-6.24-.75-3.09-2.32-5.57-2.06-8.14-.19-6.44-8.87-5.06-22.61,1.15-31.87.81-.35,1.18-.99,1.2-1.66,1.5-1.91,3.22-3.58,5.13-4.9,1.69-1.16.15-3.9-1.63-2.79-2.4,1.5-4.53,3.42-6.36,5.62-6.48.88-12.71.19-18.04-4-4.18-3.29-6.46-7.74-7.78-12.66.13-.05.26-.11.39-.19,2.5-1.51,3.77-3.98,2.93-6.89-.37-1.28-1.11-2.46-2.01-3.44-.47-.51-1.51-1.08-2.33-1.65,1.5-.99,4.02-1.76,5.01-2.15,1.84-.73,3.72-1.38,5.6-1.99,3.17-1.04,6.42-1.89,9.73-2.33,7.39-.99,14.39.36,20.29,5.1,1.56,1.25,3.52-.65,2.21-2.21-2.08-2.47-4.59-4.18-7.34-5.34-4.78-7.47-6.35-16.3-4.23-25.04,2.15-8.87,7.4-15.88,13.54-22.33,2.3,3.14,6.9,6.2,9.03,1.3.85-1.97-.24-4.45,2.6-3.12,2.14,1,3.91,3.07,5.45,4.8,8.47,9.49,12.19,21.92,8.28,34.39-.08.25-.1.48-.09.7-.81,1.33-1.5,2.76-2.02,4.3-.68,2,2.35,2.73,3.1.86.52-1.29,1.2-2.49,1.99-3.6.42-.22.77-.6.97-1.16.02-.05.03-.1.04-.15,3.86-4.54,9.82-7.41,15.46-8.76,3.61-.87,7.43-1.2,11.13-.73,2.65.34,5.15,1.24,7.56,2.36,1.52.71,3.36,1.38,4.62,2.55-2.68,2.9-2.11,8.26,1.07,10.44-4.98,10.22-13.29,17.57-23.75,22.15Z"/>
    <path class="cls-1" d="M88.84,60.98c-.16-.25-.34-.45-.54-.64,0,0-.01-.01-.02-.02-.07-.07-.14-.14-.22-.2-.18-.16-.37-.3-.57-.42-1.55-.91-3.18-.46-4.21.61-.34.33-.62.75-.8,1.24,0,0,0,0,0,.01,0,.03-.02.05-.03.08-.22.03-.45.09-.69.2-5.12,2.34-10.48,4.14-15.93,5.55-.27-.41-.73-.69-1.35-.73.14-6.13-.41-12.13-1.5-18.17.24-.39.42-.82.49-1.29.44-3.12-3.1-5.69-5.8-3.77-1.4,1-2.05,2.81-1.3,4.41,0,.02.02.04.03.06.05.43.24.85.53,1.22.65.83,1.57,1.21,2.52,1.23,1.16,5.4,1.78,10.91,2.03,16.42-5.98.26-12.02.48-17.94,1.08-.18.02-.33.07-.47.13-.11-.09-.21-.2-.34-.28-1.15-.67-2.69.21-3.53,1.04-.01.01-.02.03-.04.04-.49.32-.89.77-1.15,1.38-.47,1.1-.34,2.41.49,3.3,1,1.06,2.67.61,3.79-.04.97-.56,1.64-1.49,1.82-2.58,5.84.51,11.95.36,17.84-.04,0,0,0,.01,0,.02-1.84,5.69-3.86,11.26-6.23,16.76-.76-.01-1.34.32-1.83.89-.4.22-.77.52-1.06.94-1.58,2.26.19,5.62,2.99,5.41,1.46-.11,2.83-1.11,3.27-2.52.26-.83.17-1.74-.19-2.53,2.46-5.33,4.49-10.94,5.87-16.66,5.27,3.89,10.29,8.09,15.55,11.99-.03.05-.08.1-.11.16-.36.65-.45,1.37-.35,2.06-.19.4-.26.86-.08,1.29.67,1.65,2.17,3,4.06,2.87,1.87-.13,3.4-1.62,3.49-3.52.06-1.34-.68-2.5-1.8-3.04-.28-.41-.66-.75-1.12-.98-.06-.34-.23-.67-.55-.94-5.38-4.69-11.38-8.67-17.32-12.63,5.74-1.1,11.26-2.79,16.71-4.97.02,0,.03-.01.04-.02.25.25.55.46.87.63.19.13.39.25.62.32,1.57.5,3.04-.24,3.87-1.43.39-.51.64-1.11.69-1.79,0-.1,0-.19,0-.29.01-.62-.14-1.25-.51-1.83ZM83.65,87.42h0s0,0,0,0ZM83.66,87.44s-.04.01-.05,0c.02,0,.03-.01.04-.02,0,0,0,.01.01.01ZM83.69,87.43s0,0,0,0c0,0,0,0,0,0,0,0,0,0,0,0ZM83.72,87.41h-.02c.05-.03.05-.02.02,0Z"/>
  </g>
</svg>