<?xml version="1.0" encoding="UTF-8"?>
<svg id="Layer_1" data-name="Layer 1" xmlns="http://www.w3.org/2000/svg" xmlns:xlink="http://www.w3.org/1999/xlink" viewBox="0 0 1920 272">
  <defs>
    <style>
      .cls-1 {
        fill: none;
      }

      .cls-2 {
        fill: #5d3d2d;
        opacity: .06;
      }

      .cls-3 {
        fill: #fff;
      }

      .cls-4 {
        fill: #7cc163;
      }

      .cls-5 {
        clip-path: url(#clippath);
      }
    </style>
    <clipPath id="clippath">
      <rect class="cls-1" width="1920" height="272"/>
    </clipPath>
  </defs>
  <g class="cls-5">
    <g>
      <path class="cls-2" d="M-142.48,295C-83.85,211.84,20.85,142.78,144.47,116.36,671.07,3.86,1205.06-29.81,1739.15,28.43c162.02,17.67,287.56,123.4,324.18,266.57H-142.48Z"/>
      <path class="cls-3" d="M-142.48,304C-83.85,220.84,19.61,155.09,144.47,135.36,671.07,55.34,1205.06,25.87,1739.15,47.43c162.89,5.47,287.56,113.4,324.18,256.57H-142.48Z"/>
      <path class="cls-4" d="M-51.74,315c49.3-57.93,132.41-102.62,225.98-113.36,411.78-44.73,830.81-58.49,1245.48-40.86,111.06,4.74,223.62,11.83,335.08,21.1,76.18,5.78,142.37,40.8,186.41,98.54,8.39,11.01,15.78,22.57,22.16,34.58H-51.74Z"/>
    </g>
  </g>
</svg>