<?xml version="1.0" encoding="UTF-8"?>
<svg id="Layer_1" data-name="Layer 1" xmlns="http://www.w3.org/2000/svg" xmlns:xlink="http://www.w3.org/1999/xlink" viewBox="0 0 1924.01 23.99">
  <defs>
    <style>
      .cls-1 {
        fill: none;
      }

      .cls-2 {
        fill: #7a4f9f;
      }

      .cls-3 {
        clip-path: url(#clippath);
      }
    </style>
    <clipPath id="clippath">
      <rect class="cls-1" width="1924.01" height="23.99"/>
    </clipPath>
  </defs>
  <g class="cls-3">
    <path class="cls-2" d="M-866.67,19.16c8.27,2.61,13.32,4.82,28.7,4.82,23.25,0,23.25-8.97,46.51-8.97,23.24,0,23.24,8.97,46.48,8.97,23.24,0,23.24-8.97,46.49-8.97,23.24,0,23.24,8.97,46.47,8.97,23.24,0,23.24-8.97,46.49-8.97,23.24,0,23.24,8.97,46.48,8.97,23.24,0,23.24-8.97,46.48-8.97,23.24,0,23.24,8.97,46.47,8.97,23.24,0,23.24-8.97,46.48-8.97,23.24,0,23.24,8.97,46.47,8.97,23.23,0,23.23-8.97,46.47-8.97,23.23,0,23.23,8.97,46.47,8.97,23.24,0,23.24-8.97,46.48-8.97,23.23,0,23.23,8.97,46.47,8.97,23.24,0,23.24-8.97,46.48-8.97,23.24,0,23.24,8.97,46.48,8.97,23.24,0,23.24-8.97,46.47-8.97,23.24,0,23.24,8.97,46.47,8.97,23.24,0,23.24-8.97,46.47-8.97,23.24,0,23.24,8.97,46.47,8.97,23.24,0,23.24-8.97,46.48-8.97,23.24,0,23.24,8.97,46.47,8.97,23.23,0,23.23-8.97,46.47-8.97,23.24,0,23.24,8.97,46.47,8.97,23.24,0,23.24-8.97,46.47-8.97,23.23,0,23.23,8.97,46.47,8.97s23.24-8.97,46.47-8.97c23.23,0,23.23,8.97,46.46,8.97,23.24,0,23.24-8.97,46.48-8.97,23.23,0,23.23,8.97,46.46,8.97,23.24,0,23.24-8.97,46.47-8.97,23.23,0,23.23,8.97,46.46,8.97,23.23,0,23.23-8.97,46.46-8.97,23.23,0,23.23,8.97,46.47,8.97,23.23,0,23.23-8.97,46.46-8.97,23.23,0,23.23,8.97,46.47,8.97,23.23,0,23.23-8.97,46.46-8.97,23.23,0,23.23,8.97,46.46,8.97,23.23,0,23.23-8.97,46.47-8.97,23.23,0,23.23,8.97,46.46,8.97,23.23,0,23.23-8.97,46.45-8.97,23.23,0,23.23,8.97,46.46,8.97,23.24,0,23.24-8.97,46.47-8.97,23.23,0,23.23,8.97,46.46,8.97,23.23,0,23.23-8.97,46.45-8.97,23.23,0,23.23,8.97,46.46,8.97,23.23,0,23.23-8.97,46.47-8.97,23.23,0,23.23,8.97,46.45,8.97,23.22,0,23.22-8.97,46.45-8.97,23.23,0,23.23,8.97,46.45,8.97,23.23,0,23.23-8.97,46.46-8.97,23.23,0,23.23,8.97,46.46,8.97,23.23,0,23.23-8.97,46.46-8.97,23.23,0,23.23,8.97,46.47,8.97,23.23,0,23.23-8.97,46.46-8.97,23.23,0,23.23,8.97,46.46,8.97,23.23,0,23.23-8.97,46.47-8.97,23.23,0,23.23,8.97,46.46,8.97,23.23,0,23.23-8.97,46.47-8.97,9.47,0,15.25,2.13,20.33,4.38v-97.1s-2790.68,0-2790.68,0V19.16Z"/>
  </g>
</svg>