<?xml version="1.0" encoding="UTF-8"?>
<svg id="Layer_1" data-name="Layer 1" xmlns="http://www.w3.org/2000/svg" xmlns:xlink="http://www.w3.org/1999/xlink" viewBox="0 0 1924.01 23.99">
  <defs>
    <style>
      .cls-1 {
        fill: none;
      }

      .cls-2 {
        fill: #7a4f9f;
      }

      .cls-3 {
        clip-path: url(#clippath);
      }
    </style>
    <clipPath id="clippath">
      <rect class="cls-1" width="1924.01" height="23.99" transform="translate(1924.01 23.99) rotate(180)"/>
    </clipPath>
  </defs>
  <g class="cls-3">
    <path class="cls-2" d="M2790.68,4.82C2782.4,2.21,2777.36,0,2761.98,0c-23.25,0-23.25,8.97-46.51,8.97-23.24,0-23.24-8.97-46.48-8.97-23.24,0-23.24,8.97-46.49,8.97-23.24,0-23.24-8.97-46.47-8.97-23.24,0-23.24,8.97-46.49,8.97-23.24,0-23.24-8.97-46.48-8.97-23.24,0-23.24,8.97-46.48,8.97-23.24,0-23.24-8.97-46.47-8.97-23.24,0-23.24,8.97-46.48,8.97-23.24,0-23.24-8.97-46.47-8.97-23.23,0-23.23,8.97-46.47,8.97-23.23,0-23.23-8.97-46.47-8.97-23.24,0-23.24,8.97-46.48,8.97-23.23,0-23.23-8.97-46.47-8.97-23.24,0-23.24,8.97-46.48,8.97-23.24,0-23.24-8.97-46.48-8.97-23.24,0-23.24,8.97-46.47,8.97-23.24,0-23.24-8.97-46.47-8.97-23.24,0-23.24,8.97-46.47,8.97-23.24,0-23.24-8.97-46.47-8.97-23.24,0-23.24,8.97-46.48,8.97-23.24,0-23.24-8.97-46.47-8.97-23.23,0-23.23,8.97-46.47,8.97-23.24,0-23.24-8.97-46.47-8.97-23.24,0-23.24,8.97-46.47,8.97-23.23,0-23.23-8.97-46.47-8.97s-23.24,8.97-46.47,8.97c-23.23,0-23.23-8.97-46.46-8.97-23.24,0-23.24,8.97-46.48,8.97-23.23,0-23.23-8.97-46.46-8.97-23.24,0-23.24,8.97-46.47,8.97-23.23,0-23.23-8.97-46.46-8.97-23.23,0-23.23,8.97-46.46,8.97-23.23,0-23.23-8.97-46.47-8.97-23.23,0-23.23,8.97-46.46,8.97-23.23,0-23.23-8.97-46.47-8.97-23.23,0-23.23,8.97-46.46,8.97-23.23,0-23.23-8.97-46.46-8.97-23.23,0-23.23,8.97-46.47,8.97-23.23,0-23.23-8.97-46.46-8.97-23.23,0-23.23,8.97-46.45,8.97-23.23,0-23.23-8.97-46.46-8.97-23.24,0-23.24,8.97-46.47,8.97-23.23,0-23.23-8.97-46.46-8.97-23.23,0-23.23,8.97-46.45,8.97-23.23,0-23.23-8.97-46.46-8.97-23.23,0-23.23,8.97-46.47,8.97-23.23,0-23.23-8.97-46.45-8.97-23.22,0-23.22,8.97-46.45,8.97C461.74,8.97,461.74,0,438.51,0c-23.23,0-23.23,8.97-46.46,8.97C368.82,8.97,368.82,0,345.59,0c-23.23,0-23.23,8.97-46.46,8.97C275.89,8.97,275.89,0,252.65,0c-23.23,0-23.23,8.97-46.46,8.97C182.96,8.97,182.96,0,159.73,0c-23.23,0-23.23,8.97-46.47,8.97C90.03,8.97,90.03,0,66.8,0c-23.23,0-23.23,8.97-46.47,8.97-9.47,0-15.25-2.13-20.33-4.38v97.1s2790.68,0,2790.68,0V4.82Z"/>
  </g>
</svg>