<?xml version="1.0" encoding="UTF-8"?>
<svg id="Layer_1" data-name="Layer 1" xmlns="http://www.w3.org/2000/svg" viewBox="0 0 126.6 163.52">
  <defs>
    <style>
      .cls-1 {
        fill: #582b66;
      }
    </style>
  </defs>
  <path class="cls-1" d="M25.65,147.66c-.67-.03-1.34-.17-1.9-.49-1.41-.81-1.76-2.52-1.38-3.91.84-3.01,3.96-2.81,6.9-3.09,3.4-.32,6.77-.72,10.13-1.21,6.22-.91,12.37-2.11,18.38-3.69,10.37-2.7,20.38-6.47,29.39-11.58,13.95-7.91,25.74-19.32,30.48-33.45,1.14-3.38,1.85-6.88,2.07-10.42.79-12.39-4.59-24.58-13.52-34.47-12.04-13.32-29.52-22.3-47.44-28.23-8.73-2.9-17.73-5.12-26.82-6.84-5.1-.96-10.23-1.76-15.38-2.43-3.51-.45-12.11-.38-9.76-5.68C7.91-.35,10.88-.14,13.46.21c3.78.51,7.55.94,11.32,1.52,7.13,1.1,14.21,2.49,21.19,4.22,12.5,3.09,24.76,7.26,36.1,12.95,6.06,3.04,11.84,6.52,17.15,10.5,18.78,14.05,28.46,31.99,27.29,50.52-.9,14.15-8.36,27.25-19.19,37.43-14.34,13.5-34.1,21.89-54.64,26.41-8.47,1.86-17.05,2.85-25.72,3.85-.43.05-.87.07-1.31.05Z"/>
  <path class="cls-1" d="M38.51,160.1c-.07.31-.19.65-.39,1.02-.76,1.46-2.65,2.27-4.51,2.38-1.86.11-3.74-.34-5.55-.85-8.4-2.34-16.57-5.65-23.43-10.52-1.43-1.02-2.82-2.13-3.71-3.52-4.02-6.28,6.14-12.19,10.73-15.27,6.85-4.6,14.2-8.62,21.54-12.64.63-.34,1.28-.69,2.02-.77,1.56-.16,3.09,1.03,3.4,2.38s-.34,2.73-1.36,3.74c-1.02,1.01-2.38,1.72-3.71,2.42-4.33,2.3-8.57,4.72-12.7,7.25-3.99,2.44-8.77,4.87-12.14,7.93-2.68,2.42,1.72,4.22,4.18,5.42,2.31,1.14,4.72,2.07,7.09,3.09,3.81,1.63,7.76,3.26,11.94,3.92,2.54.4,7.27.96,6.59,4.01h.02Z"/>
</svg>