<?xml version="1.0" encoding="UTF-8"?>
<svg id="Layer_4_copy" xmlns="http://www.w3.org/2000/svg" version="1.1" viewBox="0 0 302.8 129.6">
  <!-- Generator: Adobe Illustrator 30.0.0, SVG Export Plug-In . SVG Version: 2.1.1 Build 123)  -->
  <defs>
    <style>
      .st0 {
        fill: #fff;
        stroke: #f18523;
        stroke-miterlimit: 10;
        stroke-width: 8px;
      }

      .st1 {
        fill: #f18523;
      }
    </style>
  </defs>
  <path class="st0" d="M288.7,125.6H49c-4.2,0-8.2-2.1-10.5-5.7L5.5,69.8c-2-3-2-7,0-10L38.5,9.6c2.3-3.5,6.3-5.7,10.5-5.7h239.7c5.6,0,10.1,4.5,10.1,10.2v101.3c0,5.6-4.5,10.2-10.1,10.2h0Z"/>
  <path class="st1" d="M53.3,84.2c17.7-13.5,33-26.3,33-36.2s-4.7-9.2-9.8-9.2-9.6,2.7-15,8.2l-9-8.9c7.1-7.9,16-11.7,24.7-11.7,13.8,0,24.3,7.3,24.3,21.1s-10.4,22.5-23,33.4c3.5-.3,6.4-.7,9.5-.7h16.2v13h-50.8v-9h0Z"/>
  <path class="st1" d="M147.8,84.2c17.7-13.5,33-26.3,33-36.2s-4.7-9.2-9.8-9.2-9.6,2.7-15,8.2l-9-8.9c7.1-7.9,16-11.7,24.7-11.7,13.8,0,24.3,7.3,24.3,21.1s-10.4,22.5-23,33.4c3.5-.3,6.4-.7,9.5-.7h16.2v13h-50.8v-9h0Z"/>
  <path class="st1" d="M132.1,21.7h10.1l-19.3,87.6h-10.2s19.4-87.6,19.4-87.6Z"/>
  <circle class="st0" cx="242.9" cy="60.5" r="30.9"/>
  <path class="st1" d="M256.6,42.7v27.7c0,5.7-2.5,6.6-11.3,6.6-.3-1.6-1.4-4.3-2.3-5.8,1.7.2,3.9.2,5.3.2,2,0,2.4,0,2.4-1.1v-4.7h-14.7c-1.1,4.4-3.2,8.6-7.2,11.5-.8-1.1-3-3.3-4.2-4.1,6.3-4.6,6.8-11.7,6.8-17.4v-13h25.1ZM237.2,56.9c0,1.1,0,2.3-.2,3.5h13.7v-3.5h-13.6ZM250.7,48.1h-13.6v3.5h13.6v-3.5Z"/>
</svg>