<?xml version="1.0" encoding="UTF-8"?><svg id="Layer_1" xmlns="http://www.w3.org/2000/svg" viewBox="0 0 242.61 72.59"><defs><style>.cls-1,.cls-2{fill:#fff;}.cls-2,.cls-3{fill-rule:evenodd;}.cls-4{fill:#80b7d2;}.cls-5,.cls-3{fill:#ef7f24;}.cls-6{fill:#e47c28;}</style></defs><g id="Artwork_18"><path class="cls-1" d="m0,36.32c.01,20.04,17.16,36.28,38.3,36.27L38.26,0C17.12.01-.01,16.27,0,36.32"/><path class="cls-1" d="m76.48,36.27C76.47,16.23,59.32-.01,38.18,0l.04,72.59c21.14-.01,38.27-16.27,38.26-36.32"/><path class="cls-4" d="m1.61,36.32c.01,19.2,16.44,34.75,36.69,34.74l-.04-69.53C18.01,1.54,1.6,17.12,1.61,36.32"/><path class="cls-6" d="m74.87,36.27c-.01-19.2-16.44-34.75-36.69-34.74l.04,69.53c20.25-.01,36.66-15.59,36.65-34.78"/><path class="cls-1" d="m70.97,36.28s-.26.03-.74.07c-.48.04-1.18.12-2.08.18-.9.07-1.98.16-3.23.23-1.25.08-2.66.18-4.19.25-1.54.08-3.2.17-4.96.22-1.76.06-3.62.14-5.54.18-1.92.05-3.9.09-5.92.11-2.02.03-4.06.03-6.11.04-2.05,0-4.1,0-6.11-.03-2.02-.02-4-.06-5.92-.1-1.92-.04-3.78-.11-5.54-.18-1.76-.05-3.42-.14-4.96-.22-1.54-.07-2.94-.16-4.19-.24-1.25-.07-2.34-.16-3.23-.23-.9-.06-1.6-.14-2.08-.18-.48-.05-.74-.07-.74-.07,0,0,.26-.03.74-.07.48-.04,1.18-.12,2.08-.18.9-.07,1.98-.16,3.23-.24,1.25-.08,2.66-.18,4.19-.25,1.54-.08,3.2-.17,4.96-.22,1.76-.07,3.62-.14,5.54-.18,1.92-.05,3.9-.09,5.92-.11,2.02-.03,4.06-.03,6.11-.04,2.05,0,4.1,0,6.11.04,2.02.02,4,.06,5.92.1,1.92.04,3.78.11,5.54.18,1.76.05,3.42.14,4.96.22,1.54.07,2.94.16,4.19.24,1.25.07,2.34.16,3.23.23.9.06,1.6.14,2.08.18.48.05.74.07.74.07"/><path class="cls-1" d="m62.4,14.2s-.16.12-.46.33c-.31.21-.75.53-1.32.91-.58.38-1.33.78-2.19,1.25-.11.06-.22.12-.33.18-.11.05-.23.1-.35.16-.24.11-.48.22-.73.33-.5.22-1.02.47-1.58.69-.56.21-1.15.42-1.76.64-.15.05-.31.11-.46.17l-.23.08-.27.08c-.32.09-.64.18-.96.27-.65.18-1.32.36-2,.55-.7.17-1.44.29-2.18.44-1.49.33-3.03.48-4.61.65-.78.1-1.58.13-2.38.16-.81.03-1.63.06-2.44.09-.79-.03-1.57-.05-2.35-.08-.78-.03-1.55-.05-2.36-.15-1.59-.17-3.15-.32-4.62-.65-.74-.15-1.47-.27-2.17-.44-.7-.19-1.38-.38-2.05-.56-.33-.09-.66-.19-.98-.28l-.12-.03-.06-.02-.06-.02h-.03s-.23-.09-.23-.09c-.15-.05-.3-.11-.45-.16-.6-.22-1.18-.43-1.73-.63-.55-.22-1.09-.47-1.59-.69-.25-.11-.49-.23-.73-.33-.12-.05-.23-.11-.35-.16-.11-.06-.22-.12-.33-.18-.85-.47-1.6-.87-2.18-1.25-.58-.38-1.03-.7-1.33-.91-.3-.21-.46-.33-.46-.33,0,0,.19.07.53.2.34.14.85.32,1.48.59.31.14.69.23,1.07.37.39.13.81.27,1.26.42.44.16.94.27,1.44.42.51.14,1.03.3,1.6.44.58.13,1.17.27,1.8.41.16.04.31.07.47.11l.24.06.21.04c.32.05.64.11.97.17.65.12,1.32.24,2.01.36.69.1,1.4.18,2.11.27.36.05.72.09,1.08.14.18.02.36.05.55.07l.55.04c.73.05,1.48.1,2.22.16.73.08,1.53.07,2.31.1.78.02,1.57.04,2.35.06.76-.02,1.51-.04,2.26-.06.77-.03,1.53-.01,2.28-.09.75-.06,1.5-.12,2.25-.17l.55-.04c.18-.02.36-.05.54-.07.36-.05.72-.09,1.07-.14.71-.09,1.4-.16,2.1-.27.7-.13,1.38-.25,2.05-.37.33-.06.66-.12.99-.17l.21-.04.23-.06c.15-.04.31-.07.46-.11.61-.14,1.2-.27,1.77-.4.57-.14,1.09-.31,1.61-.45.51-.15,1.01-.26,1.45-.42.45-.15.87-.29,1.25-.42.39-.14.76-.23,1.07-.37.64-.27,1.15-.46,1.49-.59.35-.13.53-.2.53-.2"/><path class="cls-1" d="m38.22,69.06s-.03-.26-.07-.74c-.04-.48-.11-1.18-.18-2.08-.07-.9-.16-1.98-.23-3.23-.08-1.25-.18-2.66-.25-4.19-.08-1.54-.17-3.2-.22-4.96-.06-1.76-.14-3.62-.18-5.54-.05-1.92-.09-3.9-.11-5.92-.03-2.02-.03-4.06-.04-6.11,0-2.05,0-4.1.03-6.11.02-2.02.06-4,.1-5.92.04-1.92.11-3.78.18-5.54.05-1.76.14-3.42.22-4.96.07-1.54.16-2.94.24-4.19.07-1.25.16-2.34.23-3.23.06-.9.14-1.6.18-2.08.05-.48.07-.74.07-.74,0,0,.03.26.07.74.04.48.12,1.18.18,2.08.07.9.16,1.98.24,3.23.08,1.25.18,2.66.25,4.19.08,1.54.17,3.2.22,4.96.07,1.76.14,3.62.18,5.54.05,1.92.09,3.9.11,5.92.03,2.02.03,4.06.04,6.11,0,2.05,0,4.1-.04,6.11-.02,2.02-.06,4-.1,5.92-.04,1.92-.11,3.78-.18,5.54-.05,1.76-.14,3.42-.22,4.96-.07,1.54-.16,2.94-.24,4.19-.07,1.25-.16,2.34-.23,3.23-.06.9-.14,1.6-.18,2.08-.05.48-.07.74-.07.74"/><path class="cls-1" d="m38.19,3.53s-.4.04-1.15.1c-.19.02-.4.03-.63.05-.23.03-.48.07-.75.1-.27.04-.56.08-.87.12-.31.04-.63.11-.98.18-1.38.24-3.02.66-4.85,1.28-1.83.63-3.83,1.5-5.87,2.68-2.04,1.18-4.11,2.7-6.08,4.52-.96.94-1.93,1.91-2.82,3.02l-.35.42-.32.42c-.21.28-.43.55-.64.84-.41.59-.83,1.17-1.21,1.8-1.57,2.46-2.79,5.23-3.67,8.15-.42,1.46-.76,2.96-.98,4.49-.21,1.53-.31,3.07-.31,4.62l.02,1.18c0,.41.04.77.06,1.16.04.75.14,1.53.23,2.29.22,1.53.56,3.03.98,4.49.88,2.91,2.1,5.69,3.68,8.14.38.62.8,1.21,1.21,1.79.21.29.44.57.65.85.21.29.43.56.66.83.22.26.46.56.66.79.24.26.48.53.72.79.24.27.48.5.72.74.24.24.48.47.71.7,1.98,1.82,4.05,3.33,6.09,4.51,2.05,1.18,4.05,2.05,5.87,2.68,1.83.62,3.48,1.04,4.85,1.28.34.06.67.13.98.17.31.04.6.08.87.12.27.04.52.07.75.1.23.02.44.04.63.05.75.07,1.15.1,1.15.1,0,0-.4.01-1.16.04-.19,0-.4.01-.63.02-.23,0-.49-.01-.76-.02-.28,0-.57-.01-.89-.02-.32-.01-.65-.05-1-.08-1.42-.1-3.13-.35-5.06-.85-1.93-.49-4.08-1.22-6.29-2.32-2.21-1.09-4.5-2.54-6.66-4.38-.27-.24-.54-.48-.81-.73-.27-.24-.55-.49-.79-.74-.25-.25-.51-.5-.76-.75-.29-.29-.51-.55-.77-.83-1.01-1.11-1.95-2.32-2.82-3.62-.87-1.3-1.68-2.67-2.37-4.12-.7-1.45-1.32-2.96-1.79-4.54-.47-1.57-.85-3.19-1.11-4.83-.11-.83-.23-1.64-.28-2.5-.03-.42-.07-.86-.08-1.25l-.03-1.24c.02-1.67.15-3.34.38-4.98.25-1.65.63-3.26,1.1-4.84.46-1.58,1.09-3.09,1.78-4.54.69-1.45,1.5-2.82,2.36-4.12.43-.65.89-1.27,1.35-1.88.23-.3.49-.6.73-.9l.37-.44.37-.4c.99-1.11,2.07-2.12,3.13-3.06,2.17-1.85,4.45-3.29,6.66-4.39,2.21-1.11,4.35-1.84,6.28-2.33,1.93-.49,3.65-.75,5.06-.85.35-.03.69-.07,1-.08.32,0,.61-.01.89-.02.27,0,.53-.01.76-.02.23,0,.44.01.63.02.75.03,1.16.04,1.16.04"/><path class="cls-1" d="m38.22,69.06s.31-.04.9-.13c.07-.01.15-.02.23-.03.08-.02.16-.04.25-.07.17-.04.36-.09.57-.15.2-.04.42-.13.64-.22.23-.09.47-.17.72-.27.99-.44,2.1-1.15,3.21-2.13,1.11-.99,2.21-2.28,3.23-3.81,1.01-1.53,1.93-3.32,2.74-5.26.19-.49.4-.99.58-1.5.17-.51.37-1.05.52-1.54.16-.55.33-1.1.5-1.65.16-.55.28-1.09.43-1.65.54-2.23.97-4.6,1.25-7.01.12-1.21.25-2.43.3-3.66.03-.61.08-1.23.08-1.85l.03-1.83c-.01-2.56-.16-4.95-.42-7.38-.29-2.41-.71-4.77-1.26-7.02-.15-.56-.28-1.12-.43-1.66-.16-.54-.33-1.08-.49-1.61l-.05-.18-.07-.2-.14-.4c-.09-.27-.18-.53-.28-.79-.18-.52-.39-.99-.58-1.49-.81-1.94-1.73-3.73-2.75-5.26-1.02-1.53-2.12-2.82-3.23-3.8-1.12-.98-2.23-1.69-3.22-2.13-.25-.11-.49-.19-.72-.27-.23-.09-.44-.17-.64-.22-.21-.05-.4-.1-.57-.15-.09-.02-.17-.04-.25-.06-.08-.01-.16-.02-.23-.03-.59-.08-.9-.13-.9-.13,0,0,.32,0,.91-.02.6.01,1.48.09,2.57.4,1.08.33,2.36.91,3.65,1.84,1.3.92,2.61,2.17,3.81,3.71,1.21,1.53,2.33,3.33,3.3,5.34.23.51.49,1.03.71,1.55.11.26.21.52.32.78l.16.39.08.2.08.23c.2.55.4,1.1.6,1.66.19.57.35,1.14.53,1.72.19.58.32,1.17.47,1.77.07.3.15.6.22.9.07.3.13.61.19.91.12.61.26,1.22.36,1.84.09.62.19,1.25.29,1.87.33,2.5.49,5.15.52,7.64l-.04,1.96c0,.64-.06,1.28-.1,1.92-.06,1.28-.23,2.55-.37,3.81-.09.63-.19,1.25-.28,1.87-.1.62-.24,1.23-.36,1.84-.06.3-.12.61-.19.91-.07.3-.15.6-.22.9-.15.6-.29,1.19-.47,1.77.21.84-.11,1.21-.3,1.77-.2.55-.39,1.11-.58,1.65-.22.58-.34,1.05-.68,1.67-.22.53-.57,1.25-.8,1.76-.96,2.01-1.49,3.21-2.7,4.74-1.2,1.54-3.23,3.07-4.53,3.99-1.29.93-2.56,1.51-3.64,1.85-1.09.31-1.99.4-2.57.41-.59-.01-.91-.02-.91-.02"/><path class="cls-1" d="m38.19,3.53s-.31.04-.9.13c-.07.01-.15.02-.23.03-.08.02-.16.04-.25.06-.17.04-.36.09-.57.15-.2.04-.42.13-.64.22-.23.09-.47.17-.72.27-.99.44-2.1,1.15-3.21,2.13-1.11.99-2.21,2.28-3.23,3.81-1.01,1.53-1.93,3.32-2.74,5.26-.19.49-.4.99-.58,1.5-.17.51-.37,1.05-.52,1.54-.16.55-.33,1.1-.5,1.65-.16.55-.28,1.1-.43,1.65-.5,2.07-.53,4.77-1.14,6.95-.1.36-.15.72-.15,1.09,0,2.32-.36,4.04-.37,6.33.01,2.51.16,4.93.42,7.36.29,2.41.71,4.77,1.26,7.02.15.56.28,1.12.43,1.66.16.54.33,1.08.49,1.61l.05.18.07.2.14.4c.09.27.18.53.28.79.18.52.39.99.58,1.49.81,1.94,3.59,2.82,4.61,4.36,1.02,1.53.26,3.72,1.37,4.71,1.12.98,2.23,1.69,3.22,2.13.25.11.49.19.72.27.23.09.44.17.64.22.21.05.4.1.57.15.09.02.17.04.25.06.08.01.16.02.23.03.59.08.9.13.9.13,0,0-.32,0-.91.02-.6-.01-1.48-.09-2.57-.4-1.08-.33-2.36-.91-3.65-1.84-1.29-.92-2.61-2.17-3.81-3.71-1.21-1.53-2.33-3.33-3.3-5.34-.23-.51-.49-1.03-.71-1.55-.11-.26-.21-.52-.32-.78l-.16-.39-.08-.2-.08-.23c-.2-.55-.4-1.1-.6-1.66-.19-.56-.35-1.14-.53-1.72-.19-.58-.32-1.17-.47-1.77-.07-.3-.15-.6-.22-.9-.07-.3-.13-.61-.19-.91-.12-.61-.26-1.22-.36-1.84-.1-.62-.19-1.25-.29-1.87-.33-2.51-.49-5.13-.52-7.67.02-2.58.18-5.15.51-7.67.1-.63.19-1.25.28-1.87.1-.62.24-1.23.36-1.84.06-.3.12-.61.19-.91.07-.3.15-.6.22-.9.15-.6.29-1.19.47-1.77.18-.58.35-1.18.53-1.74.2-.55.39-1.09.58-1.63.22-.58.44-1.09.66-1.62.22-.53.47-1.03.7-1.54.96-2.01,2.08-3.81,3.29-5.34,1.2-1.54,2.51-2.79,3.8-3.71,1.29-.93,2.56-1.51,3.64-1.85,1.09-.31,1.99-.4,2.57-.41.59.01.91.02.91.02"/><path class="cls-1" d="m39.36,69.1c-.09,0-.09-.13,0-.14,0,0,.01,0,.02,0,.19-.02.4-.03.63-.05,0,0,0,0,0,0,.23-.03.48-.07.75-.1.27-.04.56-.08.87-.12.31-.04.63-.11.98-.18,1.38-.24,3.02-.66,4.85-1.28,1.83-.63,3.83-1.5,5.87-2.68,2.04-1.18,4.11-2.7,6.08-4.52.96-.94,1.93-1.91,2.82-3.02l.35-.42.32-.42c.21-.28.43-.55.64-.84.41-.59.83-1.17,1.21-1.79,1.57-2.46,2.79-5.23,3.67-8.15.42-1.46.76-2.96.98-4.49.09-.77.2-1.53.23-2.3.02-.39.06-.77.06-1.16l.02-1.13c-.01-1.65-.11-3.1-.32-4.65-.22-1.53-.56-3.03-.98-4.49-.88-2.91-2.1-5.69-3.68-8.14-.38-.62-.8-1.21-1.22-1.79-.21-.29-.43-.57-.65-.85-.21-.29-.43-.56-.66-.83-.22-.26-.46-.56-.66-.79-.24-.26-.48-.53-.72-.79-.24-.27-.48-.5-.72-.74-.24-.24-.48-.47-.71-.7-1.97-1.82-3.87-3.54-6.08-4.51,0,0,0,0,0,0-2.04-1.18-4.04-2.05-5.87-2.67-1.83-.62-3.48-1.04-4.85-1.28-.34-.06-.67-.13-.98-.17-.31-.04-.6-.08-.87-.12-.27-.04-.52-.07-.75-.1,0,0,0,0,0,0-.23-.02-.44-.04-.62-.05,0,0-.02,0-.03,0-.09,0-.09-.14,0-.14,0,0,.02,0,.03,0,.19,0,.4-.01.63-.02h0c.23,0,.49.01.76.02.28,0,.57.01.89.02.32.01.65.05,1,.08,1.42.1,3.13.35,5.06.85,1.93.48,5.83,1.73,8.04,2.83,0,0,0,0,0,0,2.22,1.44,2.73,2.02,4.9,3.86.27.24.54.48.81.73.27.24.55.49.79.74.25.25.5.5.76.75.29.29.51.55.77.83,1.01,1.11,1.95,2.32,2.82,3.62.87,1.3,1.68,2.67,2.37,4.12.7,1.45,1.32,2.96,1.79,4.54.47,1.57,1.06,2.92,1.31,4.57.24,1.62.17,3.66.18,5.22l-.03,1.28c0,.42-.05.83-.07,1.25-.05.83-.17,1.66-.28,2.48-.25,1.64-.63,3.26-1.1,4.84-.46,1.58-.98,3.7-1.68,5.15-.69,1.45-1.61,2.21-2.47,3.51-.43.65-.89,1.27-1.35,1.88-.23.3-.48.6-.73.9l-.37.44-.37.4c-.99,1.11-2.07,2.12-3.13,3.06-2.17,1.85-4.45,3.29-6.66,4.39-2.21,1.11-4.35,1.84-6.28,2.33-1.93.49-3.65.75-5.06.85-.35.03-.69.07-1,.08-.32,0-.61.01-.89.02-.27,0-.53.01-.76.02-.23,0-.44-.01-.63-.02,0,0-.01,0-.02,0"/><path class="cls-1" d="m14.01,58.39s.16-.12.46-.33c.31-.21.75-.53,1.32-.91.58-.37,1.33-.78,2.19-1.25.11-.06.22-.12.33-.18.11-.05.23-.1.35-.16.24-.11.48-.22.73-.33.5-.22,1.02-.47,1.58-.69.56-.21,1.15-.42,1.76-.64.15-.06.31-.11.46-.17l.23-.08.27-.08c.32-.09.64-.18.96-.27.65-.18,1.32-.36,2.01-.55.7-.17,1.44-.29,2.18-.44,1.49-.33,3.03-.48,4.61-.65.78-.1,1.58-.13,2.38-.16.8-.03,1.6-.06,2.4-.09.8.03,1.6.06,2.39.08.78.03,1.55.05,2.36.15,1.59.17,3.15.32,4.62.64.74.15,1.47.27,2.17.44.7.19,1.38.38,2.05.56.33.09.66.19.98.28l.12.03.06.02.06.02h.03s.23.09.23.09c.15.05.3.11.45.16.6.22,1.18.43,1.73.63.55.22,1.09.47,1.59.69.25.11.49.22.73.33.12.05.23.11.35.16.11.06.22.12.33.18.85.47,1.6.87,2.18,1.25.58.38,1.03.7,1.33.91.3.21.46.33.46.33,0,0-.19-.07-.53-.2-.34-.14-.86-.32-1.49-.59-.31-.14-.68-.23-1.07-.37-.39-.13-.81-.27-1.26-.42-.44-.16-.94-.27-1.44-.42-.51-.14-1.03-.3-1.6-.44-.58-.13-1.17-.27-1.8-.41-.16-.04-.31-.07-.47-.11l-.24-.06-.21-.04c-.32-.05-.64-.11-.97-.17-.65-.12-1.32-.24-2.01-.36-.69-.1-1.4-.18-2.11-.27-.36-.04-.72-.09-1.08-.14-.18-.02-.36-.05-.55-.07l-.55-.04c-.73-.05-1.48-.1-2.22-.16-.73-.08-1.52-.07-2.31-.09-.77-.02-1.54-.04-2.31-.06-.77.02-1.54.04-2.3.06-.77.03-1.53.01-2.28.1-.75.06-1.5.12-2.25.17l-.55.04c-.18.02-.36.05-.54.07-.36.05-.72.09-1.07.14-.71.09-1.4.16-2.1.27-.7.13-1.38.25-2.05.37-.33.06-.66.12-.99.17l-.21.04-.23.06c-.15.04-.31.07-.46.11-.61.14-1.2.27-1.77.4-.57.14-1.09.31-1.61.45-.51.15-1.01.26-1.45.42-.45.15-.87.29-1.25.42-.39.14-.76.23-1.07.37-.64.27-1.15.45-1.49.59-.35.13-.53.2-.53.2"/><path class="cls-1" d="m50.8,14.63c.08-.07.17-.14.25-.21l.22-.2c-.08-.08-.17-.14-.26-.19-.17-.09-.39-.2-.64-.23-.21-.03-.41,0-.61.08-.23-.3-.68-.71-1.46-.81-.08-.01-.17-.02-.25-.02-1.43-.12-2.66.49-3.46,1.61-1.54.86-2.25,2.77-2.05,4.2.18,1.22.62,3.49,1.6,5.02.72,1.13,1.14,2,.99,2.79-.08-.02-.14-.06-.17-.12-.01-.02-.03-.03-.06-.03l-.23.04s-.07-.01-.09-.04c-.04-.07-.07-.11-.1-.16-.01-.02-.02-.04-.02-.06-.03-.23,0-.53.25-.75l-.19-.32c-.43.14-1.12.54-1.19,1.19l-.05-.12c-.5.1-1.43.77-1.14,1.68.29.91,1.22,1.5,1.95,1.6.17.02.32.02.46,0,.12-.02.25-.04.4-.08.28.08.55.11.78.07.58-.1,1.94-.34,2.42-1.78.21-.35.32-.74.33-1.17,0-.16,0-.33-.04-.51.05-.19.08-.39.09-.59.02-.75-.31-1.52-.7-2.41-.48-1.1-1.02-2.35-1.09-3.94,0-.12,0-.23.03-.35.15-.67.75-2.96,1.46-3.36-.24.33-.3.65.14,1.16.03.04.07.08.11.11l.66-.59c.53-.54,1.08-.96,1.63-1.48m-7.21,12.91c-.05-.01-.18.02-.31-.32,0-.02-.01-.05-.02-.07l-.02-.19c-.01-.12.05-.42.1-.49,0,.02.06.34.07.36.02.07.02.12.07.19.06.07.12.48.11.51"/><path class="cls-2" d="m67.3,32.73c-.53-.24-2.06.24-2.2.38-.44.44-.71,1.16-.67,1.45.06.55-.57,1.03-2.87,1.96-1.1.44-1.46-.13-1.73-1.03-.67-2.34-.46-2.45-2.3-4.18-1.05-.98-1.39-1.32-.77-1.59.06-.03.13-.04.19-.03.87.08,2.42-.23,3.49-1,.03-.02.09-.07.16-.12.21-.16.53-.43.64-.51,0,0,.01-.01.02-.02,3.27-2.85,1.11-4.17,1.42-7.65.02-.2.23-.3.25-.6l.17-.87c.06-.71-.04-1.08-.14-1.33-1.33-3.34-4.3-4.15-7.55-4.08-3.03.08-4.53.36-6.89,3.2,0,0-.01.02-.02.03-.91,1.3-1.67,3.24-1.71,4.76,0,0,.03,1.32.14,1.96,0,0,0,.02,0,.03.02.08.04.17.05.25,0,0,0,.02,0,.03.21,1.03.3,1.54,1.01,2.53.1.13.28.33.4.44.7.6,1.17,1.36,2.39,2.17.41.27.86.48,1.27.65.35.14.31.64-.05.73-3.57.86-10.32,2.65-10.75,5.2-.4,2.36-3.85,1.35-3.15,6.14.19,1.28,1.33,1.14,2.36.63,2.34-1.14,1.41-1.29,1.37-2.85-.09-2.85,4-4.64,6.7-5.17.31-.06.56.25.43.54-.57,1.25.29,4.74-1.9,7.52-2.93,3.73-6.74,2.93-5.77,3.47,1.2.66,3.84,4.26.66,4.6-2.23.23-1.76-3.19-3.01-3.8-.82-.4-2.96,2.34-3.23,4.09-.23,1.51-.03,2.35.22,2.77.05.09.34.52.44.55.9.21,1.55-1.38,1.91-2.59.1-.33.54-.37.71-.07,1.27,2.33,3.04,4.08,5.31,1.01.57-.78,2.62-1.77,3.55-1.04,1.86,1.46,7.2,2.22,9.45.45.19-.15.46-.08.58.13.3.57.85,1.61,1.42,2.73.87,1.65.08,3.88,1.1,4.49.34.19,2.3.1,3.69-.66,5.72-3.15,1.23-4.8-1.22-3.3-.26.16-.6-.04-.58-.35.05-1.02.1-2.71-.11-3.75-.34-1.58-2.34-2.7-1.5-3.04.84-.32,1.86-1.14,1.08-1.43-.78-.27-4.75-2.76-4.96-4.81-.15-1.52.66-3.42,1.09-4.31.12-.24.44-.29.63-.09,2.4,2.57,4.38,2.41,6.43-.79.05-.09.14-.14.24-.17.47-.1,1.88-.52,2.45-1.79.36-.8.27-1.6-.32-1.85"/><path class="cls-2" d="m28.68,44.62c3.31,2.26,2.69,6.9,3.16,10.87.04.34,1.47-.85,3.59.53,1.31.85-7.99,4.12-7.67,1.85.65-4.46-.63-10.42-5.62-12.05-.1-.03-.21.03-.24.13-1.13,4.47-5.41,6.85-9.71,5.21-2.07-.77-3.31-3.16-3.85-3.03-.25.08-1.21,1.8-1.42,2.66-.19.85-1.58,1.75-1.41-1.45.09-1.86.75-4.36,1.58-5.53,1.86-2.59,2.13.42,3.31,2.2.79,1.2,3.02,2.13,4.24,1.66,1.81-.68,3.21-3.02,3.21-3.78s-.35-1.62,1-4.45c.91-1.92.68-3.73,1.1-4.27.1-.13-.01-.33-.18-.3-1.19.2-4.34.8-5.44,1.81-1.39,1.24-.94.62-1.77.3-1.5-.6-1.05,4.23-3.91,1.67-2.16-1.95.7-4.16,2.05-4.12.43.02,1.6-.28,1.97-.92,1.66-2.84,7.28-2.16,9.89-3.22.71-.29,1.36-.83,1.66-1.11.09-.08.08-.23-.02-.29-.08-.05-.16-.11-.24-.16-.02-.01-.04-.02-.06-.02-2.28-.57-2.47-.56-3.72-1.67-.15-.13-.24,1.02-.74.54-.03-.03-1.21-.81-1.43-2.95-.16-1.54-.72-3.94.13-6.57.97-2.98,3.55-5.73,7.4-6.45.14-.03.26.11.21.25-.01.03-.02.07-.03.1-.04.18.17.3.31.18.88-.81,1.84-1.34,3.03-1.35.16,0,.17.49.06.61-.16.18-.21.4-.17.64.03.19.22.09.36-.04.38-.34,1.16-.11,1.96-.23.31-.04.23.21.11.33,0,0,0,0,0,0-.12.11-.2.24-.04.26,2.64.24.4,2.42,4.67,2.06,1.3-.11,1.07,2.06-1.13,3.34-.06.03-.12.06-.14.13-.7,2.38.51,5.08-.1,7.18-1,3.39-4.04,4.04-6.82,4.16-.19,0-.25.26-.08.35,2.62,1.45,1.29,3.61,4.1,6.33.87.83,2.11,1.71,3.99,2.65,1.05.53.6,1.37,1.18.85,4.19-3.76,5.15,4.4,1.47,2.73-.6-.28-1.22-.62-1.73-.45-2.82.96-2.46,1.03-5.7-.94-.76-.46-2.07-1.69-2.24-2.48-.41-2.13-1.75,4.1-.13,6.26"/></g><path class="cls-3" d="m116.38,8.4c-.08.21-.06.84-.03,1.1.05.06.19.52.24.65.16.39.42.77.71,1.04.14.13.3.27.47.38l.05.02c.06.02.05.01.08.05.09.02.2.07.3.1.11.04.22.06.34.08.29.05.48.03.76.04.04-.03.04-.02.1-.03.13-.02.26-.08.33-.16.12-.13.12-.09.21-.29.23-.52-.13-.48-.24-.64-.03-.05-.11-.26-.15-.34-.13-.25-.25-.39-.44-.57-.1-.09-.14-.16-.25-.25-.05-.04-.07-.06-.13-.12-.05-.05-.09-.07-.13-.11-.21-.2-.89-.77-1.14-.86-.15-.06-.39-.05-.41-.06-.1-.05-.1-.17-.32-.18-.18,0-.26.09-.37.13"/><path class="cls-3" d="m116.69,7.2c.08.04.04.08.08.19.03.08.07.1.14.14.11.07.38.46.77.22.3-.19.15-.15.32-.26.35-.21.42-.22.65-.5.45-.55.31-.61.66-1.06.08-.1.16-.29.24-.34.07-.04.12-.04.18-.1.06-.05.08-.11.14-.16.26-.27.31-.51.68-.3.16.09.51.4.79.07.11-.14.15-.19.14-.43v-.18c-.33-.13-1.32-.11-1.74,0-.75.19-1.63.68-2.14,1.23-.04.05-.07.08-.11.13-.3.35-.46.57-.68,1-.06.12-.09.23-.14.35"/><path class="cls-3" d="m121.69,13c-.83,0-1.08-.01-1.89-.35-.32-.13-.83-.39-1.13-.57-.1-.06-.28-.17-.38-.2-.06-.02-.01,0-.06-.03,0,0-.03-.03-.03-.04.06,0,.06,0,.1.03.49.11.52.07.99,0h0c-.28-.02-.47,0-.76-.05-.12-.02-.23-.05-.34-.08-.1-.03-.2-.09-.3-.1-.02.01-.07.06-.07,0-.02,0-.02,0-.04-.02,0,0-.01,0-.01-.01,0,0,0,0-.01-.01-.31-.18-.58-.42-.77-.64-.12-.13-.21-.22-.31-.39-.04-.08-.2-.44-.23-.47.09.53.46,1.11.71,1.46.32.45.57.82,1.03,1.11.38.25,1.09.46,1.63.53.66.08,1.3.04,1.88-.17"/><path class="cls-3" d="m116.4,7.3s.27-.57.33-.67c.64-1.17,1.52-1.87,2.82-2.29.76-.24,1.05-.1,1.82-.09-.08-.22-.52-.32-.73-.35-1.2-.18-2.3.46-3.1,1.23-.16.16-.35.4-.49.61-.23.35-.55,1.06-.65,1.55"/><path class="cls-3" d="m123.26,5.3h.01c-.04-.06-.02-.04-.07-.08-.04-.04-.03-.04-.1-.06.02.03.03.05.07.07.05.03.04.02.09.07"/><path class="cls-3" d="m122.05,4.99c-.07.12-.18.22-.27.34-.19.26-.16.38-.41.55-.09.07-.1.08-.17.15-.26.27-.05.11-.39.25-.57.24-.76.62-.89.69-.08.04-.14.07-.2.12-.07.06-.07.11-.13.19-.06.08-.1.07-.15.17-.12.24.02.83.14,1.03.08.14.15.25.24.41.09.17.16.2.34.31.49.29.53.09.74-.27.06-.11.09-.08.17-.15.19-.16.31-.48.41-.54.11.09.24.2.43.25-.02.15-.14.35-.19.76-.04.3,0,.61,0,.93-.39-.04-.53-.15-.82.36-.05.08-.18.18-.29.33-.09.12-.15.27-.19.45-.18.9.53,1.3,1.29.91.12-.06.48-.27.58-.36.26-.23.24-.28.58-.38.19-.05.25-.17.45-.18.47-.03.62-.2.81-.46.1-.13.17-.23.25-.4.06-.12.11-.38.19-.46.19-.26.24-1.03.22-1.41-.06-.87-.35-1.72-.78-2.43-.12-.2-.57-.79-.72-.86-.05-.05-.05-.03-.09-.07-.04-.03-.04-.04-.07-.07l-.29-.18c-.08-.05-.2-.11-.31-.15-.08.03-.16.04-.24.07-.08.03-.15.06-.23.09"/><path class="cls-5" d="m181.7,13.78h0c2.2,0,3.99,1.79,3.99,3.99v19.1c0,2.58.3,4.47.92,5.66.95,2.11,3.02,3.16,6.2,3.16s5.23-1.05,6.17-3.16c.61-1.19.92-3.07.92-5.66v-19.1c0-2.2,1.79-3.99,3.99-3.99s3.99,1.79,3.99,3.99v19.11c0,4-.62,7.11-1.86,9.33-2.31,4.08-6.71,6.12-13.21,6.12s-10.91-2.04-13.24-6.12c-1.24-2.23-1.86-5.34-1.86-9.33v-19.11c0-2.2,1.79-3.99,3.99-3.99"/><path class="cls-5" d="m239.26,35.32c-2.23,1.86-5.42,2.79-9.56,2.79h-3.98c-2.19,0-3.96,1.77-3.96,3.96v5.79c0,2.18-1.77,3.96-3.96,3.96s-3.96-1.77-3.96-3.96v-30.2c0-2.19,1.77-3.96,3.96-3.96h12.41c3.77,0,6.78.98,9.02,2.95,2.24,1.97,3.36,5.01,3.36,9.13,0,4.5-1.12,7.68-3.35,9.54m-6.08-13.73c-1.01-.84-2.42-1.27-4.24-1.27h-3.22c-2.19,0-3.96,1.77-3.96,3.96v3.31c0,2.19,1.77,3.96,3.96,3.96h3.22c1.82,0,3.23-.46,4.24-1.37,1.01-.91,1.51-2.36,1.51-4.34s-.5-3.4-1.51-4.24"/><path class="cls-5" d="m105.47,19.58c-4.2,5.8-7.32,10.56-9.36,14.26l-1,1.95-.1.15.05.5c.17,0,.33.02.5.05.37.03.87.08,1.5.15.57.07.93.1,1.1.1,1.27.23,2.54.53,3.83.88,1.28.35,2.31.65,3.08.9.77.25,1.9.65,3.4,1.2,1.5.55,2.58.93,3.25,1.13.33.13.58.35.73.65.15.3.17.62.05.95-.12.33-.33.58-.63.73-.3.15-.62.18-.95.08l-3.3-1.2-3.3-1.15c-.73-.27-1.71-.56-2.93-.88-1.22-.32-2.43-.58-3.63-.78-.1-.03-.4-.07-.9-.1-.67-.07-1.18-.12-1.55-.15l-.15-.05c.23,4.74.38,8.19.45,10.36,0,.33-.12.63-.35.9-.23.27-.52.4-.85.4s-.63-.12-.9-.35c-.27-.23-.4-.52-.4-.85-.07-2.1-.23-5.79-.5-11.06-.2-.13-.37-.28-.5-.45-.2-.23-.28-.52-.25-.85,0-.1.02-.2.05-.3.03-.07.07-.15.1-.25.03-.13.1-.3.2-.5l.3-.6c-.1-2.2-.18-4.14-.25-5.8-.03-1.23,0-4.09.1-8.56.07-3.6-.02-6.37-.25-8.31-.03-.33.06-.64.28-.93.22-.28.49-.44.83-.48.33-.03.64.06.93.28.28.22.44.49.47.83.27,2.07.35,4.95.25,8.66-.1,4.4-.13,7.21-.1,8.41l.05,1.55c1.97-3.4,4.85-7.72,8.66-12.96.2-.27.47-.43.8-.48.33-.05.64.02.93.23.28.2.45.47.5.8.05.33-.03.65-.23.95"/><path class="cls-5" d="m121.88,16.03c.8,8.67,1.2,20.26,1.2,34.77,0,.33-.13.63-.38.88-.25.25-.54.38-.88.38s-.63-.13-.88-.38c-.25-.25-.38-.54-.38-.88,0-14.54-.4-26.07-1.2-34.57-.03-.33.06-.63.27-.9.22-.27.5-.42.85-.45.35-.03.66.06.93.27.27.22.42.51.45.88"/><path class="cls-5" d="m144.75,11.27c.1,1.13.17,2.29.2,3.48.03,1.18.03,2.62,0,4.3-.03,1.68-.05,2.79-.05,3.33,0,3.1-.09,11.61-.27,17.83-.18,6.22-.28,7.03-.28,10.13,0,.33-.13.63-.38.88-.25.25-.54.38-.88.38s-.63-.13-.88-.38c-.25-.25-.38-.54-.38-.88,0-2.07.03-.54.1-3.1-2.1.87-4.4.95-6.9.25-1.67-.47-3.04-1.21-4.13-2.23-1.08-1.02-1.81-2.13-2.18-3.35-.37-1.22-.48-2.46-.35-3.73.13-1.27.5-2.43,1.1-3.5.6-1.1,1.43-2,2.48-2.7,1.05-.7,2.23-1.07,3.53-1.1,2.27-.07,4.54.93,6.8,3,.07-2.87.1-9.27.1-11.51,0-.63.02-1.77.05-3.4.03-1.63.04-3.02.03-4.15-.02-1.13-.09-2.22-.23-3.25-.03-.37.06-.68.28-.95.22-.27.5-.42.85-.45.35-.03.66.06.93.28.27.22.42.49.45.83m-2.65,25.97c-2.3-2.63-4.49-3.92-6.55-3.85-1.67.03-2.97.88-3.9,2.55-.43.77-.7,1.61-.8,2.53-.1.92,0,1.8.28,2.65.28.85.82,1.64,1.6,2.38.78.73,1.79,1.27,3.03,1.6,2.33.67,4.37.47,6.1-.6.07,0,.12-.02.15-.05.03-.9.08-2.17.13-3.8.05-1.63.07-2.73.07-3.3l-.1-.1Z"/><path class="cls-5" d="m162.46,21.43c-.57-1.73-1.39-3.01-2.48-3.83-1.08-.82-2.2-1.18-3.35-1.1-1.15.08-2.19.61-3.13,1.58-.93.97-1.54,2.39-1.8,4.25-.37,2.24-.3,3.97.2,5.2.33.8.78,1.63,1.33,2.5.55.87,1.32,1.97,2.3,3.3.98,1.33,1.68,2.3,2.08,2.9,1.3,1.9,2.28,3.7,2.95,5.4.67,1.7.87,3.45.6,5.25-.3,1.94-1.33,3.4-3.1,4.4-1.3.73-2.54.95-3.7.65-1-.27-1.88-.9-2.65-1.9-1.07-1.4-1.8-3.35-2.2-5.85-.03-.33.05-.64.25-.93.2-.28.47-.45.8-.5.33-.05.64.03.93.23.28.2.46.47.53.8.33,2.1.9,3.69,1.7,4.75.4.53.82.85,1.25.95.53.13,1.17,0,1.9-.4,1.03-.6,1.63-1.47,1.8-2.6.2-1.33.02-2.71-.53-4.13-.55-1.42-1.41-2.99-2.58-4.73-.3-.43-.97-1.35-2-2.75-1.03-1.4-1.86-2.59-2.48-3.58-.62-.98-1.11-1.94-1.48-2.88-.67-1.63-.8-3.8-.4-6.5.37-2.33,1.22-4.21,2.55-5.63,1.33-1.42,2.9-2.19,4.7-2.33,1.77-.13,3.43.39,4.98,1.58,1.55,1.18,2.69,2.88,3.43,5.08.1.33.07.65-.08.95-.15.3-.39.51-.73.63-.33.12-.65.1-.95-.05-.3-.15-.52-.39-.65-.73"/><path class="cls-5" d="m119.85,59.21h1.3c.14,0,.25.11.25.25v6.6c0,.14.11.25.25.25h3.82c.14,0,.25.11.25.25v1.05c0,.14-.11.25-.25.25h-5.63c-.14,0-.25-.11-.25-.25v-8.16c0-.14.11-.25.25-.25"/><path class="cls-5" d="m133.1,60.74h-4.08c-.14,0-.25.11-.25.25v1.33c0,.14.11.25.25.25h3.7c.14,0,.25.11.25.25v1c0,.14-.11.25-.25.25h-3.7c-.14,0-.25.11-.25.25v1.72c0,.14.11.25.25.25h4.29c.14,0,.25.11.25.25v1.05c0,.14-.11.25-.25.25h-6.06c-.14,0-.25-.11-.25-.25v-8.16c0-.14.11-.25.25-.25h5.85c.14,0,.25.11.25.25v1.03c0,.14-.11.25-.25.25"/><path class="cls-5" d="m137.64,59.21h1.69c.11,0,.2.07.24.17l2.89,8.16c.06.17-.06.34-.24.34h-1.42c-.11,0-.21-.07-.24-.18l-.46-1.43c-.03-.11-.13-.18-.24-.18h-2.82c-.11,0-.21.07-.24.17l-.47,1.43c-.03.1-.13.17-.24.17h-1.35c-.18,0-.3-.17-.24-.34l2.91-8.16c.04-.1.13-.17.24-.17m.05,5.39h1.52c.17,0,.29-.17.24-.33l-.75-2.34c-.08-.23-.41-.24-.48,0l-.77,2.34c-.05.16.07.33.24.33"/><path class="cls-5" d="m149.23,59.43c.32.14.59.34.81.61.18.22.33.46.44.73.11.27.16.57.16.91,0,.41-.1.82-.31,1.21-.21.4-.55.68-1.03.84.4.16.68.39.85.68.17.3.25.75.25,1.36v.58c0,.4.02.66.05.81.05.22.16.39.33.49v.22h-2c-.05-.19-.09-.35-.12-.46-.05-.24-.07-.49-.08-.75v-.81c-.02-.55-.11-.92-.3-1.11-.18-.18-.53-.28-1.03-.28h-1.51c-.14,0-.25.11-.25.25v2.89c0,.14-.11.25-.25.25h-1.26c-.14,0-.25-.11-.25-.25v-8.16c0-.14.11-.25.25-.25h3.89c.59.01,1.05.09,1.37.22m-3.74,1.54v1.82c0,.14.11.25.25.25h1.69c.39,0,.68-.05.87-.14.34-.16.51-.49.51-.98,0-.53-.17-.88-.5-1.06-.19-.1-.47-.15-.84-.15h-1.74c-.14,0-.25.11-.25.25"/><path class="cls-5" d="m152.59,59.21h1.5c.09,0,.18.05.22.13l2.89,5.08c.13.23.47.13.47-.13v-4.83c0-.14.11-.25.25-.25h1.18c.14,0,.25.11.25.25v8.16c0,.14-.11.25-.25.25h-1.41c-.09,0-.17-.05-.22-.13l-2.98-5.19c-.13-.23-.47-.13-.47.13v4.94c0,.14-.11.25-.25.25h-1.18c-.14,0-.25-.11-.25-.25v-8.16c0-.14.11-.25.25-.25"/><path class="cls-5" d="m167.5,61.46h1.29c.12,0,.22.08.25.2l.69,3.25c.06.27.44.27.5,0l.7-3.26c.03-.12.13-.2.25-.2h1.2c.17,0,.29.16.24.32l-1.71,5.9c-.03.11-.13.18-.24.18h-1.33c-.12,0-.22-.08-.25-.2l-.72-3.32c-.06-.27-.44-.27-.5,0l-.72,3.32c-.03.12-.13.2-.25.2h-1.34c-.11,0-.21-.08-.24-.19l-1.66-5.9c-.05-.16.08-.32.24-.32h1.26c.12,0,.22.08.25.2l.7,3.21c.06.27.44.27.5,0l.64-3.2c.02-.12.13-.2.25-.2"/><path class="cls-5" d="m175.1,60.7h-1.19c-.14,0-.25-.11-.25-.25v-1.04c0-.14.11-.25.25-.25h1.19c.14,0,.25.11.25.25v1.04c0,.14-.11.25-.25.25m-1.19.76h1.19c.14,0,.25.11.25.25v5.9c0,.14-.11.25-.25.25h-1.19c-.14,0-.25-.11-.25-.25v-5.9c0-.14.11-.25.25-.25"/><path class="cls-5" d="m176.32,62.72v-1.19h.89v-1.53c0-.14.11-.25.25-.25h1.15c.14,0,.25.11.25.25v1.53h1.04v1.19h-1.04v3.39c0,.26.03.43.1.49.07.06.27.1.61.1.05,0,.1,0,.16,0,.06,0,.11,0,.17,0v1.25l-.79.03c-.79.03-1.33-.11-1.62-.41-.19-.19-.28-.49-.28-.89v-3.94h-.89Z"/><path class="cls-5" d="m185.6,61.5c.32.14.59.35.79.63.18.24.28.49.32.74.04.25.06.67.06,1.24v3.51c0,.14-.11.25-.25.25h-1.2c-.14,0-.25-.11-.25-.25v-3.65c0-.35-.06-.62-.17-.84-.15-.3-.44-.45-.86-.45s-.77.15-1,.44c-.23.3-.34.72-.34,1.27v3.22c0,.14-.11.25-.25.25h-1.17c-.14,0-.25-.11-.25-.25v-8.13c0-.14.11-.25.25-.25h1.17c.14,0,.25.11.25.25v2.8c.24-.37.52-.63.84-.78.32-.15.65-.22,1-.22.39,0,.75.07,1.07.21"/><path class="cls-5" d="m192.08,59.22h5.67c.14,0,.25.11.25.25v1.01c0,.14-.11.25-.25.25h-3.87c-.14,0-.25.11-.25.25v1.49c0,.14.11.25.25.25h3.33c.14,0,.25.11.25.25v1c0,.14-.11.25-.25.25h-3.33c-.14,0-.25.11-.25.25v3.13c0,.14-.11.25-.25.25h-1.29c-.14,0-.25-.11-.25-.25v-8.15c0-.14.11-.25.25-.25"/><path class="cls-5" d="m199.43,59.21h1.33c.14,0,.25.11.25.25v5.07c0,.6.07,1.03.21,1.3.22.49.69.73,1.43.73s1.2-.24,1.42-.73c.14-.27.21-.71.21-1.3v-5.07c0-.14.11-.25.25-.25h1.33c.14,0,.25.11.25.25v5.07c0,.92-.14,1.64-.43,2.15-.53.94-1.55,1.41-3.05,1.41s-2.52-.47-3.05-1.41c-.29-.51-.43-1.23-.43-2.15v-5.07c0-.14.11-.25.25-.25"/><path class="cls-5" d="m208.1,59.21h1.5c.09,0,.18.05.22.13l2.89,5.08c.13.23.47.13.47-.13v-4.83c0-.14.11-.25.25-.25h1.18c.14,0,.25.11.25.25v8.16c0,.14-.11.25-.25.25h-1.41c-.09,0-.17-.05-.22-.13l-2.98-5.19c-.13-.23-.47-.13-.47.13v4.94c0,.14-.11.25-.25.25h-1.18c-.14,0-.25-.11-.25-.25v-8.16c0-.14.11-.25.25-.25"/></svg>