<svg xmlns="http://www.w3.org/2000/svg" width="49" height="33" viewBox="0 0 49 33">
  <g id="グループ_1007" data-name="グループ 1007" transform="translate(-6868 -9918)">
    <rect id="長方形_209" data-name="長方形 209" width="49" height="33" transform="translate(6868 9918)" fill="none"/>
    <g id="logo-youtube" transform="translate(6871.707 9920.502)">
      <path id="パス_5321" data-name="パス 5321" d="M40.2,4.9a5.071,5.071,0,0,0-3.6-3.574C33.415.5,20.675.5,20.675.5S8.167.446,4.982,1.275A5.573,5.573,0,0,0,1.072,4.9C.217,8.06.295,14.611.295,14.611s-.078,6.552.777,9.711a5.621,5.621,0,0,0,3.91,3.625c3.185.855,15.693.777,15.693.777s12.508.052,15.693-.777a5.5,5.5,0,0,0,3.858-3.625c.855-3.133.855-9.711.855-9.711S41.054,8.06,40.2,4.9Z" transform="translate(0 0)" fill="#fff"/>
      <path id="パス_5322" data-name="パス 5322" d="M63.9,43.333l10.177-6.267L63.9,30.8Z" transform="translate(-47.136 -22.455)" fill="#ef8200"/>
    </g>
  </g>
</svg>
