<?xml version="1.0" encoding="utf-8"?>
<!-- Generator: Adobe Illustrator 27.8.1, SVG Export Plug-In . SVG Version: 6.00 Build 0)  -->
<svg version="1.1" id="Layer_1" xmlns="http://www.w3.org/2000/svg" xmlns:xlink="http://www.w3.org/1999/xlink" x="0px" y="0px"
	 viewBox="0 0 119 125" style="enable-background:new 0 0 119 125;" xml:space="preserve">
<style type="text/css">
	.st0{fill:#F38000;}
	.st1{clip-path:url(#SVGID_00000000915479363894303130000011175610900014135445_);}
	.st2{fill:#FFFFFF;}
</style>
<ellipse id="Ellipse_12" class="st0" cx="59.5" cy="62.5" rx="59.5" ry="62.5"/>
<g id="Group_248" transform="translate(39.762 43.508)">
	<g>
		<defs>
			<rect id="SVGID_1_" x="-0.3" y="-0.4" width="41.8" height="40.4"/>
		</defs>
		<clipPath id="SVGID_00000164487508423260614080000009353793322588634758_">
			<use xlink:href="#SVGID_1_"  style="overflow:visible;"/>
		</clipPath>
		
			<g id="Group_134" transform="translate(0 0)" style="clip-path:url(#SVGID_00000164487508423260614080000009353793322588634758_);">
			<path id="Path_151" class="st2" d="M22.5,0.8l19,19l-19,19c-1.5,1.6-4.1,1.6-5.6,0.1c-0.1-0.1-0.2-0.2-0.2-0.2
				c-1.6-1.8-1.5-4.5,0.2-6.2l8.2-8.2H3.8c-2.4-0.1-4.2-2-4.1-4.4c-0.1-2.4,1.8-4.3,4.1-4.4H25l-8.2-8.2c-1.7-1.7-1.7-4.4-0.2-6.2
				c1.4-1.7,4-1.8,5.6-0.4C22.4,0.6,22.4,0.7,22.5,0.8"/>
		</g>
	</g>
</g>
</svg>
