<?xml version="1.0" encoding="UTF-8"?>
<svg id="Layer_1" data-name="Layer 1" xmlns="http://www.w3.org/2000/svg" viewBox="0 0 1050 1237.48">
  <defs>
    <style>
      .cls-1 {
        fill: #713d1a;
      }

      .cls-2 {
        fill: #301603;
      }

      .cls-3 {
        fill: #100a07;
      }

      .cls-4 {
        fill: #b46f46;
      }

      .cls-5 {
        fill: #030202;
      }

      .cls-6 {
        fill: #3d1b03;
      }

      .cls-7 {
        fill: #f3f4f5;
      }

      .cls-8 {
        fill: #030302;
      }

      .cls-9 {
        fill: #522a13;
      }

      .cls-10 {
        fill: #552a12;
      }

      .cls-11 {
        fill: #f37828;
      }

      .cls-12 {
        fill: #6e3b19;
      }

      .cls-13 {
        fill: #b8754f;
      }

      .cls-14 {
        fill: #f37827;
      }

      .cls-15 {
        fill: #160801;
      }

      .cls-16 {
        fill: #1a1b18;
      }

      .cls-17 {
        fill: #653315;
      }

      .cls-18 {
        fill: #4f280e;
      }

      .cls-19 {
        fill: #a5653c;
      }

      .cls-20 {
        fill: #f2742f;
      }

      .cls-21 {
        fill: #e64625;
      }

      .cls-22 {
        fill: #e6e5e5;
      }

      .cls-23 {
        fill: #e93625;
      }

      .cls-24 {
        fill: #3a1501;
      }

      .cls-25 {
        fill: #eff0f1;
      }

      .cls-26 {
        fill: #b3774d;
      }

      .cls-27 {
        fill: #130a07;
      }

      .cls-28 {
        fill: #723c1a;
      }

      .cls-29 {
        fill: #030101;
      }

      .cls-30 {
        fill: #512711;
      }

      .cls-31 {
        fill: #dc5226;
      }

      .cls-32 {
        fill: #c5c7c8;
      }

      .cls-33 {
        fill: #aa6a45;
      }

      .cls-34 {
        fill: #723d1a;
      }

      .cls-35 {
        fill: #723e1a;
      }

      .cls-36 {
        fill: #070706;
      }

      .cls-37 {
        fill: #110b08;
      }

      .cls-38 {
        fill: #fcfcfb;
      }

      .cls-39 {
        fill: #f0f2de;
      }

      .cls-40 {
        fill: #552b12;
      }

      .cls-41 {
        fill: #f37928;
      }

      .cls-42 {
        fill: #773f1b;
      }

      .cls-43 {
        fill: #c4c7c8;
      }

      .cls-44 {
        fill: #663415;
      }

      .cls-45 {
        fill: #542912;
      }

      .cls-46 {
        fill: #160c07;
      }

      .cls-47 {
        fill: #020302;
      }

      .cls-48 {
        fill: #060201;
      }

      .cls-49 {
        fill: #733f1a;
      }

      .cls-50 {
        fill: #713e1a;
      }

      .cls-51 {
        fill: #140600;
      }

      .cls-52 {
        fill: #733d1a;
      }

      .cls-53 {
        fill: #0f0e0e;
      }

      .cls-54 {
        fill: #ae6840;
      }

      .cls-55 {
        fill: #251003;
      }

      .cls-56 {
        fill: #b6744a;
      }

      .cls-57 {
        fill: #ad6c44;
      }

      .cls-58 {
        fill: #1b0700;
      }

      .cls-59 {
        fill: #1f0d01;
      }

      .cls-60 {
        fill: #0b0b0b;
      }

      .cls-61 {
        fill: #fff;
      }

      .cls-62 {
        fill: #db5127;
      }

      .cls-63 {
        fill: #e34826;
      }

      .cls-64 {
        fill: #f5f4f4;
      }

      .cls-65 {
        fill: #f9f9f9;
      }

      .cls-66 {
        fill: #b06e43;
      }

      .cls-67 {
        fill: #6f3b19;
      }

      .cls-68 {
        fill: #723e19;
      }

      .cls-69 {
        fill: #532912;
      }

      .cls-70 {
        fill: #542911;
      }

      .cls-71 {
        fill: #150700;
      }

      .cls-72 {
        fill: #6f3c1a;
      }

      .cls-73 {
        fill: #474847;
      }

      .cls-74 {
        fill: #211207;
      }

      .cls-75 {
        fill: #f4f6f8;
      }

      .cls-76 {
        fill: #120c09;
      }

      .cls-77 {
        fill: #512812;
      }

      .cls-78 {
        fill: #dc4a49;
      }

      .cls-79 {
        fill: #1c0603;
      }

      .cls-80 {
        fill: #f6f6f5;
      }

      .cls-81 {
        fill: #0c0c0c;
      }

      .cls-82 {
        fill: #753d1a;
      }

      .cls-83 {
        fill: #232423;
      }

      .cls-84 {
        fill: #733e1b;
      }

      .cls-85 {
        fill: #311d10;
      }

      .cls-86 {
        fill: #160901;
      }

      .cls-87 {
        fill: #492207;
      }

      .cls-88 {
        fill: #080908;
      }

      .cls-89 {
        fill: #180a04;
      }

      .cls-90 {
        fill: #743f1b;
      }

      .cls-91 {
        fill: #120a07;
      }

      .cls-92 {
        fill: #b0794b;
      }

      .cls-93 {
        fill: #6d3b19;
      }

      .cls-94 {
        fill: #100601;
      }

      .cls-95 {
        fill: #502711;
      }

      .cls-96 {
        fill: #1f0c00;
      }

      .cls-97 {
        fill: #e14625;
      }

      .cls-98 {
        fill: #b3704a;
      }

      .cls-99 {
        fill: #76401b;
      }

      .cls-100 {
        fill: #262625;
      }

      .cls-101 {
        fill: #b47148;
      }

      .cls-102 {
        fill: #743e1b;
      }

      .cls-103 {
        fill: #b87347;
      }

      .cls-104 {
        fill: #512913;
      }

      .cls-105 {
        fill: #df4526;
      }

      .cls-106 {
        fill: #f37e3e;
      }

      .cls-107 {
        fill: #f3f4f6;
      }

      .cls-108 {
        fill: #140c07;
      }

      .cls-109 {
        fill: #af6e45;
      }

      .cls-110 {
        fill: #0f0907;
      }

      .cls-111 {
        fill: #251b14;
      }

      .cls-112 {
        fill: #af6e44;
      }

      .cls-113 {
        fill: #522912;
      }
    </style>
  </defs>
  <g id="w7LnBG">
    <g>
      <path class="cls-5" d="M830.69,1189.12c-14.1.15-26.74-6.31-40.2-8.89-21.7-4.16-42.19-12.12-63.02-19.01-9.73-3.22-10.51-3.17-15.75,5.81-9.45,16.18-18.53,32.58-27.73,48.91-11.72,20.81-37.75,27.87-57.86,15.29-64.72-40.48-131.26-77.95-196.21-118.05-9.92-6.13-20.47-8.2-31.95-8.75-36.83-1.78-71.72,7.83-106.92,16.51-37.97,9.36-74.47,23.23-111.74,34.71-9.55,2.94-19.11,6.49-29.27,6.64-27.49.41-51.67-9.32-71.88-27.17-34.05-30.06-58.48-66.83-71.66-110.61-3.71-12.33-5.93-24.98-6.45-37.84-.51-12.52,4.19-23.32,12.1-32.82,1.51-1.81,2.94-3.42,3.34-5.98,2.78-17.97,15.49-31.04,33.02-34.79,16.46-3.52,31.67-.84,45.47,8.71,5.94,4.11,13.35,2.86,19.22,5.68,11.32,5.43,18.22,2.01,24.83-7.72,4.61-6.78,12.23-11.16,11.92-21.21-.15-4.82,5.15-8.16,9.24-10.91,10-6.71,20.75-12.53,32.52-14.56,23.2-4,32.44-20.4,39.49-40.08,3.66-10.24,2.23-18.32-4.76-26.43-8.33-9.66-13.91-21.04-18.14-33.07-1.25-3.54-2.74-6.82-7.05-7.96-4.61-1.23-5.82-5.69-6.24-9.44-2.86-25.62-5.38-51.29,4.5-76.18,1.27-3.21,2.67-6.34-3.13-6.55-6.32-.23-7.22-4.63-5.6-9.47,3.21-9.56,9.45-17.13,16.94-23.72,1.05-.92,2.31-1.61,3.36-2.54,2.77-2.46,6.99-4.58,7.8-7.61.99-3.67-4.52-4.58-6.78-7.16-5.52-6.29-4.54-10.85,3.19-14.01,3.59-1.46,9.59-1.23,10.02-4.94.34-2.93-6.14-4.57-8.2-7.6-6.74-9.9-18.42-7.85-27.48-11.91-13.19-5.9-15.1-10.04-11.57-23.93,1.72-6.8-.1-10.47-5.57-13.96-10.19-6.51-16.8-16.16-21.65-27-3.08-6.87-2.01-13.17,3.77-18.53,2.72-2.52,5.11-5.45,7.39-8.39,4.16-5.37,5.7-11.33,2.66-17.75-3.38-7.12-2.89-14.65-2.55-22.11.37-7.84,3.12-10.1,11.16-10.26,18.57-.37,19.84-1.92,16.98-20.83-1.77-11.75-4.13-23.4-4.44-35.36-.18-6.86-2.93-12.27-10.87-12.87-3.51-.27-6.12-2.31-8.68-4.33-2.03-1.6-4.4-4.04-3.98-6.32,1.74-9.36-4.56-14.2-10.11-19.48-11.86-11.28-20.58-24.88-28.69-38.86-11.25-19.39-7.52-38.39,3.02-56.58,10.03-17.32,24.84-30.3,40.45-42.46,14.59-11.37,31.57-19.33,45.3-31.87,11.25-10.28,18.98-22.35,18.83-38.36-.16-16.41-.36-32.65-8.23-47.85-2.44-4.71-7.92-6.31-9.48-11.84-.9-3.18-3.14-5.91-.6-8.98,2.69-3.26,6.71-5.1,10.58-3.87,29.45,9.37,56.32,27.28,59.87,63.81,2.98,30.62-5.23,57.63-25.13,81.17-8.6,10.17-16.89,20.61-25.06,31.13-1.66,2.14-4.88,4.54-2.48,8.01,2.18,3.17,5.72,2.91,9,2.62,4.01-.36,6.84-2.85,9.25-5.85,14.5-18.05,33.16-31.6,50.47-46.61,7.76-6.73,10.81-10.35,6.39-20.34-7.6-17.21-9.41-36.07-15.36-53.75-1.19-3.52-2.22-7.1-3.17-10.69-.95-3.58,1.12-6.33,4.2-5.41,13.33,3.97,27.11-.03,40.51,2.97,6.9,1.54,13.52,3.77,20.05,6.18,4.71,1.74,6.34.34,7.33-3.97,3.81-16.65,10.37-32.28,21.25-45.4,19.12-23.08,42.72-38.36,74.03-38.26,2.84,0,5.92-.05,7.24,3.04,1.25,2.94-.81,5.35-3.02,6.44-11.45,5.66-14.33,16.6-17.15,27.45-1.52,5.83-3.62,11.53-3.75,17.78-.06,2.87-.95,6.58,1.23,7.73,2.92,1.54,4.46-2.5,6.4-4.26,12.92-11.67,27.84-14.55,44.35-10.17,4.64,1.23,8.04,3.22,2.81,8.42-2.81,2.8-2.62,6.6-1.43,10.56,4.32,14.47,7.34,29.05,2.22,44.07-1.46,4.27,1.98,4.52,4.79,4.82,20.2,2.14,39.04,8.98,57.66,16.58,5.62,2.3,11.12,4.72,15.97,8.65,5.85,4.74,13.97,4.88,20.13,9.59,7.06,5.39,14.48,10.27,21.1,16.27,5.71,5.17,12.42,8.68,20.41,7.67,7.65-.97,10.24,2.61,9.84,9.56-.27,4.55,2.07,6.42,6.3,7.7,7.19,2.18,13.78,1.15,19.07-3.63,5.51-4.98,5.94-11.93,4.11-18.92-2.89-11.05-10.89-18.01-19.21-25.13-31.92-27.34-56.6-59.57-61.35-102.8-2.28-20.76.16-41.59,17.32-56.88,7.33-6.53,15.89-11.81,26.05-12.7,8.32-.72,12.65,4.82,10.07,12.96-6.78,21.34-3.05,41.26,8.13,59.92,16.24,27.11,39.85,45.47,69.16,56.96,19.12,7.5,39,13.45,55.7,26.19,18.24,13.92,27.17,32.16,29.06,55.16,1.26,15.26-2.24,29.08-6.47,43.13-.81,2.67-1.74,5.33-4.05,7.25-4.03,3.36-1.81,5.54,1.57,7.33,7.45,3.95,14.91,7.87,22.39,11.76,3.25,1.69,5.88,4.02,7.02,7.52,1.64,5.04,4.86,6.97,10.08,6.3,13.52-1.73,23.47,6.95,34.33,12.46,25.08,12.72,49.81,26.13,74.69,39.27,1.87.99,3.64,2.19,5.58,2.97,10,4.02,15.15,10.4,14.03,22.1-.65,6.79,3.04,13.27,9.7,16.75,6.44,3.36,7.69,7.49,4.44,14.24-8.73,18.13-2.56,32.79,16.38,40.31,4.13,1.64,8.37,3.03,12.47,4.73,8.02,3.32,10.91,8.67,7.76,16.8-8.57,22.08.08,48.47,20.73,62.32,13.7,9.19,14.52,14.31,7.02,28.78-6.69,12.9-11.9,27.19-21.14,37.96-8.97,10.46-11.34,22.9-17.24,34.12-13.28,25.29-27.81,49.93-41.79,74.86-12.04,21.46-23.99,42.96-36.07,64.39-2.68,4.76-2.76,9.15.16,13.87,23.04,37.13,17.75,82.49-6.5,116.17-12.65,17.57-29.01,30.51-50.2,36.53-4.16,1.18-6.76,3.28-8.27,7.59-2.43,6.93-8.22,11.13-14.14,15.07-4.4,2.93-7.8,6.64-8.41,12.29-.34,3.22.94,3.98,3.59,2.6,2.07-1.08,4.03-2.4,5.9-3.8,9.54-7.19,20.43-10.25,32.18-10.08,4.71.07,8.58-1.61,12.65-3.51,18.61-8.64,37.69-10.27,56.01-.14,12.65,7,20.48,18.35,21.43,33.42.17,2.63.21,5.3,1.96,7.32,11.38,13.16,11,28.53,7.23,43.86-8.8,35.75-26.6,66.92-51.29,93.97-13.88,15.21-28.33,30.06-46.31,40.75-16.77,9.97-34.6,16.43-54.35,16.63Z"/>
      <path class="cls-23" d="M320.63,901.83c5.54-6.81,10.27-13.44,13.71-20.73,3.48-7.36,8.79-8.22,16-7.33,16.88,2.09,33.25-.15,48.85-7.25,6.15-2.8,10.91-7.32,15.11-12.32,3.61-4.3,6.17-3.21,8.47.77,3.74,6.46,7.3,13.03,10.8,19.62,3.06,5.76,6,11.59,8.85,17.46,4.82,9.9,12.59,15.16,23.61,13.71,8.99-1.19,13.01,2.48,16.51,10.58,6.33,14.65,13.33,29.08,21.78,42.73,4.33,7,10.24,10.59,18.52,10.28,22.17-.84,44.18-3.13,66.09-6.71,14.2-2.32,28.49-5.25,42.78-5.52,11.72-.22,23.87.37,35.32,4.18,7.32,2.44,12.1,7.47,14.11,15.14,3.44,13.18,5.35,12.97,17.66,13.64,18,.98,35.95,2.76,53.98,3.26,12.31.34,12.69,1.35,6.59,11.86-7.01,12.07-13.94,24.19-20.6,36.45-1.68,3.1-4.03,6.35-2.82,10.83,5.63-2.15,7.76-7.4,10.8-11.49,8.49-11.43,14.23-24.56,21.88-36.53,1.23-1.92,2.08-5.33,4.42-5,4.53.63,9.12,2.03,13.2,4.07,1.56.78-.68,3.46-1.59,5.08-12.97,23.16-26.07,46.25-38.96,69.45-22.84,41.1-45.6,82.24-68.28,123.42-4.96,9.01-10.46,17.04-21.02,20.36-3.14.99-4.71,1.05-5.94-2.11-1.01-2.6-2.43-5.03-3.43-7.63-3.42-8.86-3.12-9.88,5-15,7.47-4.72,11.35-12.33,15.53-19.51,17.99-30.95,35.74-62.04,53.34-93.2,1.9-3.36,6.78-8.83,3.4-10.71-4.15-2.3-5.45,4.77-7.33,7.94-19.38,32.71-39.22,65.15-57.69,98.4-7.74,13.93-20,20.66-38.23,10.95-20.69-11.03-40.24-24.05-60.16-36.4-40.92-25.37-82.11-50.28-124.31-73.47-2.31-1.27-4.54-3.28-8.64-2.93,10.78,8.64,21.7,15.53,32.69,22.18,54.51,32.99,108.99,66.03,164.31,97.65,7.62,4.36,13.98,9.29,15.73,18.37.38,1.99,1.14,4.82.17,5.94-1.66,1.94-3.9-.44-5.54-1.31-15.03-7.98-29.18-17.43-43.72-26.26-64.26-39.02-128.57-77.97-192.94-116.82-37.68-22.74-75.44-45.36-113.32-67.77-9.65-5.71-14.21-14.1-16.29-25.72,31.16,21.47,62.78,40.28,95.87,56.63-3.31-6.46-9.42-9.55-14.95-13.06-24.35-15.43-48.98-30.41-73.34-45.81-10.88-6.88-11.27-8.74-4.75-19.47,17.84-29.33,35.87-58.53,53.83-87.79.49-.8.94-1.62,1.51-2.37,1.08-1.42,2.66-2.47,4.24-1.54,1.78,1.04.98,2.71.13,4.26-3.34,6.09-6.65,12.2-9.85,18.37-1.15,2.21-2.8,4.42-1.06,8.2Z"/>
      <path class="cls-20" d="M169.82,456.1c-.62-4.25,1.53-6.6,5.48-5.99,9.6,1.49,18.92,3.95,24.46,13.13,1.41,2.33,2.79,4.72,5.97,3.11,2.71-1.37,2.7-3.72,2.18-6.59-2.86-15.9-5.78-31.83-5.37-48.08.06-2.5-1.57-7.13,2.38-7.05,3.88.08,5.55,3.57,5.38,8.26-.33,9.15,3.34,17.76,5.15,26.63,2.7,13.24,5.8,26.4,8.5,39.64,2.07,10.15,8.41,18.59,10.96,28.57.86,3.37,4.59,4.49,7.86,5.14,17.41,3.45,34.81,6.99,52.27,10.18,9.59,1.75,17.59-5.81,17.39-15.87-2.03-4.22,1.97-6.61,3-9.9,10.2-19.21,4.55-37.91-2.48-56.19-7.99-20.79-22.17-37.31-38.71-51.87-6.24-5.5-13.78-8.76-21.57-11.43-2.15-.74-5.32-.64-4.55-3.95.71-3.06,3.8-1.91,5.98-2.03,5.08-.29,8.95,3.79,13.95,4.07-5.38-10.22-15.4-13.4-26.32-8.55-5.94,2.64-10.56,6.86-14.65,11.74-6.32,7.54-13.87,10.76-23.65,7.23-3.98-1.44-6.94-.47-6.61,4.9-3.67-1.55-4.39-4.71-5.9-7.22-1.38-2.28-1.01-4.44,1.73-4.79,5.45-.7,5.16-4.1,4.77-8.15-.66-6.9,1.04-14.02-1.63-20.89-4.19,1.11-4.74,4.56-5.96,7.5-2.29,5.51-6.57,7.24-11.97,5.47-4.98-1.63-7.3-5.09-4.74-10.37,2.08-4.29,4.62-8.75,9.48-9.75,6.22-1.28,5.2-4.33,3.51-8.49-2.19-5.38-4.75-10.68-4.47-16.76.2-4.38,1.1-7.16,6.52-8.06,9.64-1.6,16.94-7.55,22.47-15.51,2.48-3.57,3.11-7.02-.78-10.54-4.7-4.25-2.78-7.9,2.06-10.48,6.33-3.36,13.34-5.61,14.1-14.77.21-2.56,4.46-4.3,7.65-2.56,3.35,1.83,1.21,4.48.16,6.69-4.22,8.86-8.55,17.67-12.77,26.53-.9,1.89-1.5,3.92-2.29,5.87-.74,1.8-.27,3.4,1.27,4.31,2.37,1.4,2.69-1.26,3.37-2.32,9.11-14.24,19.42-27.59,30.18-40.58,18.11-21.87,37.89-42.12,59.26-61.06,1.87,5.14,1.91,5.18-1.16,8.5-3.51,3.78-7.1,7.49-10.65,11.23-1.66,1.75-3.24,3.66-2.06,6.21,1.14,2.45,3.58,2.79,5.99,2.79,10.36,0,20.58,1.16,30.47,4.29,12.51,3.96,23.86,9.72,30.81,21.65,2.14,3.67,4.94,4.43,8.87,2.65,4.79-2.16,9.24-4.98,12.54-8.84,7.61-8.88,13.77-18.79,18.31-29.63-.06-5.24,2.56-8.93,6.13-12.63,10.05-10.41,20.9-19.96,31.59-29.66,8-7.26,18.6-10.35,28.18-15.02,26.95-5.51,52.41-1.45,76.64,11.52,16.32,8.74,32.88,16.98,47.2,29.02,3.88,3.26,8.74,5.39,13.26,7.84,1.9,1.03,4.29,1.89,4.45,4.09.54,7.84,5.09,5.78,9.88,4.67,3.73-.87,8.45-5.16,11.28-.18,2.6,4.57-1.61,9.28-5.01,11.14-8.78,4.79-7.05,11.38-5.15,18.66,2.67,10.22,2.67,10.48-6.6,15.08-4.31,2.13-4.42,5.11-3.16,8.67,2.26,6.38,4.09,12.95,8.17,18.58,1.77,2.45,3.41,5.27,2.1,8.5-1.17,2.89-2.36,6.26-6.15,2.04-1.9-2.11-4.4-3.13-6.63-.48-2.28,2.72.04,4.34,1.61,6.52,4.82,6.72,8.54,14.09,16.34,18.44,3.08,1.72,1.26,5.9-.47,8.9-5.71,9.94-11.35,19.92-16.98,29.9-3.19,5.66-7.3,10.89-7.89,17.69-2.53-.64-1.13-3.1-2.45-3.7-8.27-3.73-4.26-8.56-1.36-13.38,1.08-1.79,2.14-3.66,2.83-5.62,1.79-5.1-1-9.03-6.14-7.86-13.63,3.11-26.32,1.03-38.88-4.75-8.05-3.7-16.85-3.49-25.57-2.54-2.31.25-3.9,1.14-5.2,3.66,7.45,2.46,15.5.35,22.77,4.55-4.13,3.33-8.8,2.78-12.93,3.78-39.32,9.57-64.83,34.81-80.66,70.98-3.74,8.54-6.79,17.27-8.37,26.63-1.24,7.31.02,13.89,1.97,20.64,4.2,10.74,12.79,18.12,20.22,26.39-5.25,4.74-12.8,3.82-18.02-2.36-2.72-3.21-4.83-6.89-7.78-9.94-6.82-7.06-6.84-7.11-15.53-3.38-12.05,1.18-16.74,9.91-20.03,19.84-1.25,3.76-1.59,7.8-2.78,11.61-.74,2.38-.95,5.24-4.17,5.91-4.3-.45-7.66-3.33-11.8-4.41-12.68-3.31-25.07-2.61-37.34,1.68-1.77.62-3.49,1.45-5.44.93-1.91-1.66-1.41-3.82-1.18-5.9.24-2.12.37-4.24-.25-6.29-.94-3.11-1.29-6.87-4.71-8.22-3.8-1.51-5.96,1.85-8.28,4.02-8.44,7.87-15.51,16.94-22.56,26.03-6.96,8.99-9.01,9.48-19.78,6.3-17.42-5.14-35.34-7.26-53.36-8.71-4.73-.38-9.33.75-13.97,1.41-2.6.37-5.31.52-7.13-1.83-2.04-2.61-.5-4.89,1.18-6.94,1.95-2.38,1.6-4.77.28-7.2-6.39-11.74-12.4-23.69-18.85-35.4-5.42-9.83-13.82-15.04-24.87-16.17-1.65-.17-3.21-.64-4.79-1.08Z"/>
      <path class="cls-14" d="M28.03,993.26q-6.45-2.49-13.77,7.53c-.61-12.17-1.67-22.88,2.89-33.66.76.87,1.26,1.34,1.64,1.88,1.57,2.25.32,7.46,4.56,6.49,2.97-.68,1.37-4.95,1.41-7.64.07-5.63.04-11.27,1.37-16.79,3.54-14.61,13.96-23.88,29.19-25.28,6.95-.64,14.05-1.43,20.87,1.34,3.88,1.57,5.69,3.01,1.21,6.43-5.17,3.94-8.43,9.4-9.81,15.82-.32,1.47-1.14,3.46,1,4.24,1.72.63,2.27-1.14,3.07-2.22,12.36-16.81,26.44-20.27,44.96-10.55,18.26,9.58,31.09,24.61,41.17,42.25.58,1.02,1.09,2.07,1.63,3.11,1.64,3.17,3.88,7.68,7.35,6.07,3.41-1.59.35-5.91-.91-8.58-6.33-13.37-13.15-26.52-23.64-37.23-3.62-3.7-3.59-6.81-.98-11.1,6.18-10.17,13.91-18.79,23.22-26.15,3.4-2.68,8.04-5.35.66-9.6-4.11-2.37.28-4.14,2.01-5.28,10.66-7.04,22.48-11.57,34.74-14.82,9.26-2.45,18.47-5.2,28.08-6.23,2.18-.23,5.24-.29,6.08-2.73,1.02-2.94-2.27-2.93-3.9-3.88-1.84-1.07-1.28-2.24-.42-3.42,5.05-7.01,6.06-15.67,9.58-23.3,4.09-8.85,6.62-9.85,14.05-3.94,16.64,13.25,35.03,23.21,55.01,30.29,5.49,1.95,1.38,4.46.37,6.14-14.98,24.86-28.84,50.55-45.66,74.11-12.44,17.43-14.51,33.84-7.26,53.16,3.11,8.3,6.94,14.78,14.81,19.41,35.35,20.77,70.48,41.92,105.66,62.97,3.13,1.87,6.14,3.96,10.11,6.53-10.41,2.51-19.25,3.07-27.05-2.88-2.44,2.54,1.38,3.65-.17,5.79-5.46-.31-9.17-5.89-15.02-6.09-.79,3.1,2.26,3.9,3.47,6.35-4.73,2.33-9.72,1.45-14.36,2.15-17.21,2.62-33.35,9.89-50.39,12.46-29.42,4.44-56.4,15.85-83.86,26.11-1.96.73-4.05,1.13-6.04,1.8-3.56,1.19-8.2,3.21-10.66,1.35-2.56-1.93.99-6.2,1.31-9.52.21-2.2,1.48-5.24-1.43-6.18-2.45-.79-3.31,2.17-4.28,3.87-5.19,9.15-11.62,16.96-21.31,21.73-13.83,6.8-27.17,2.49-40.19-2.09-12.48-4.4-23.49-11.73-33.14-20.83-27.52-25.94-49.34-55.8-62.19-91.69-.84-2.35-2.5-4.57-1.71-8.15,6.65,6.95,12.68,14.59,23.52,12.34,5.39,2.76,2.53,8.35,4.27,12.36,5.64,25.23,18.53,45.93,39.1,61.63,7.58,5.78,16.04,9.47,26.01,9.12,12.78-.44,18.29-4.67,21.16-17.19,4.61-20.12-8.34-52.45-25.74-64.2-3.79-3.05-7.11-6.62-10.96-9.62-1.86-1.45-4.34-3.1-2.75-6.28,10.09-3.08,12.84-10.27,12.06-20.13-.73-9.27-3.5-17.47-9.98-24.16-3.97-4.1-8.33-8.03-14.77-5.48-5.49,2.17-9.71,9.56-9.11,16.23.6,6.58,2.24,12.9,5.65,18.72,1.4,2.38,4.18,4.97.86,8.03-6.69,1.39-13.36,2.24-19.88-.75-1.64-2.36-.05-4.38.68-6.49,1.49-3.2,2.37-6.64,3.71-9.9,1.58-2.49,1.99-5.25,1.53-8.09-1.66-10.16-5.38-19.47-12.83-26.74-8.16-7.97-16.67-5.84-20.71,4.74-1.55,4.06-1.75,8.13-.96,12.4.72,3.86,2.29,7.68,1.24,11.75-1.24,2.12-2.6,3.97-5.41,2.19Z"/>
      <path class="cls-39" d="M403.08,517.41c1.22-4.47,3.11-8.88,3.54-13.43.92-9.93,6.96-16.46,13.47-22.96,2.83-2.83,6-1.86,9.18-1.76,9.22,9.28,18.73,18.28,27.22,28.24,4.34,5.09,9.5,9.05,15.07,12.51,5.38,3.34,11.28,2.61,17.03.94,6.53-1.9,12.82-4.58,19.47-6.03,4.75-1.04,9.57-2.32,14.4-.18-4.6,8.12-10.54,15.78-13.5,24.46-4.55,13.34-10.22,25-20.17,35.69-8.68,9.32-13.74,22.2-19.55,33.93-4.17,8.43-10.2,13.64-19.11,16.03-5.86,1.57-11.63,3.45-17.47,5.12-4.66,1.34-6.87,3.4-1.86,7.88-10.11,1.29-16.48,5.9-18.44,15.76-3.59,18.13-13.82,31.68-29,41.96-5.23,3.54-9.43,8.47-13.19,13.59-1.73,2.36-3.41,3.44-6.41,2.32-11.09-4.12-21.52-9.2-28.63-19.19-2.58-3.63-4.41-7.51-4.26-12.29.16-5.21-1.71-8.07-7.79-5.49-3.6,1.53-7.67,2.21-11.59,2.7-6.6.83-8.81-1.99-6.71-8.15.6-1.76,1.55-3.41,2.44-5.06,4.18-7.75,3.96-8.67-5.16-7.56-8.03.98-15.13-2.34-22.74-3.02-3.11-.28-6.59-2.84-7.4-6.51-.85-3.89,1.8-6.09,5.23-7.17,4.12-1.29,3.98-2.71.4-4.63-1.11-.6-2.95-.89-2.41-2.84.61-2.21,2.4-2.51,4.43-2.56,7.51-.19,14.89.77,22.21,2.3,1.84.38,3.75,1.03,5.25-.44,2.26-2.22-.81-3.06-1.47-4.48-.69-1.47-2.15-2.81-.11-4.18,1.9-1.28,3.34-.17,5.01.95,4.22,2.83,7.23,8.14,13.65,7.22-3.87-10.06-15.31-16.93-25.12-15.44-1.73.26-3.91.65-3.95,2.29-.21,9.76-7.44,5.5-12.12,6.31-5.28-1.91-10.6-3.76-13.79-8.9,1.08-3.04-1-4.13-3.15-5.3-21.05-11.46-39.45-25.99-53.27-45.87-1.13-1.63-2.38-4.5-4.59-3.62-2.82,1.11-1.39,4.31-.73,6.16,1.97,5.56-.77,6.8-5.36,6.59-2.56-.12-5.15-.4-7.63-.99-6.05-1.46-7.75-4.59-5.45-10.21,1.69-4.12,3.9-7.97,7.38-10.96,3.61-3.1,2.87-5.52-1.31-7.22-7.79-3.18-15.3-6.9-22.52-11.25-4.51-2.72-8.29-5.99-10.82-10.7-5.14-9.55-4.09-15.24,4.37-21.91,1.65-1.3,3.43-2.44,5.17-3.62,5-3.38,6.84-7.74,5.5-13.88-1.95-8.92-5.97-17.29-6.89-26.46,8.73-2.8,21.05,1.95,27.95,11.14,7.34,9.77,11.76,21.2,17.59,31.83,1.91,3.48,3.72,7.02,5.61,10.51,1.72,3.18,2.83,6.07-1.94,7.73-1.64.57-2.63,2.19-1.91,4,.83,2.08,2.54,2.2,4.64,1.84,24.9-4.2,48.86,1.05,72.51,7.95,6.23,1.82,10.09.94,13.72-4.28,8.05-11.57,17.36-22.08,27.75-31.62,5.02-4.61,8.12-3.94,11.17,2.15,3.03,6.03,1.8,12.33,1.38,18.58.22,8.21,4.44,13.28,12.07,16.07,3.56,1.3,5.86,4.6,8.75,6.98,5.96,4.91,8.68,4.75,13.43-1.17,2.86-3.58,6.15-6.53,10.37-8.15,5.78-2.22,9.14-6.21,10.17-12.26Z"/>
      <path class="cls-41" d="M269.12,615.34c4.74,2.75,9.81,4.98,13.79,8.9-6.89,1.92-13.97.95-20.96,1.46-3.04.22-6.63.32-7.97,3.41-1.15,2.63,1.39,4.75,3.23,6.49,1.65,1.56,1.24,3.21,1.15,5.12-.68,14.19,3.13,19.41,16.97,22.87,4.75,1.19,9.66,1.96,14.54,2.38,4.15.36,5.53,2.21,5.74,6.25.55,10.46,1.73,11.62,12.5,12.56,2.94.26,4.59,1.65,6.33,3.71,16.76,19.87,37.1,33.4,63.66,36.12,3.42.35,7.98.34,6,6.62-.93,2.95,2.64,3.4,4.71,4.06,7.34,2.35,14.99,3.97,21.78,7.73,9.85,5.44,17.63,12.62,17.68,25.01.03,7.55-1.49,8.72-8.55,6.79-5.96-1.63-11.97-2.18-18.09-1.4-1.68.21-3.43.87-3.48,2.82-.05,1.99,1.69,2.56,3.37,2.9,6.42,1.31,12.83,2.67,19.27,3.92,5.64,1.1,8.17,4.67,9.05,10.16,3.17,19.65-8.5,34.81-28.38,36.53-5.33.46-10.67.77-17.22,1.23,4.54,6.4,10.57,6.11,15.95,7.3,1.87.41,4.58-1.23,5.45,1.61.68,2.22-1.02,4.01-2.38,5.59-7.67,8.91-17.34,14.97-29.06,15.24-35.5.81-68.47-6.35-94.37-33.21-1.23-1.28-2.18-3.17-4.58-3.03-2.55,3.57,2.53,5.55,1.77,9.61-9.61-4.91-17.59-11.6-25.28-18.45-18.42-16.43-33.62-35.26-41.35-59.23-.22-.67-.4-1.75-.83-1.88-9.51-2.93-6.94-11.54-7.82-17.94-1.04-7.6-.5-15.4.63-23.14.89-6.09,3.34-12.23.22-18.61-.83-1.71.19-4.65,1.02-6.77,1.95-5.01,4.05-9.99,6.55-14.74,5.53-10.52,5.65-10.51-6.09-10.19-3.2.09-3.1-1.46-1.94-3.44,1.66-2.82,3.39-5.64,5.39-8.21,4.64-5.96,10.19-11,16.14-15.62,9.33-7.26,9.35-7.31.69-15.18-3.3-2.99-2.89-5,1.23-6.52,7.4-2.73,14.59-4.5,22.26-.17,6.65,3.75,14.11,1.78,21.27,1.35Z"/>
      <path class="cls-32" d="M657.98,921.42c5.66,7.79,8.91,16.73,12.77,26.02-6.11,1.24-11.24-1.49-16.59-2.15-19.74-2.45-39.26.62-58.81,2.31-24.02,2.08-48.1,3.66-71.93,7.48-4.05.65-6.96-1.01-8.86-4.26-8.58-14.75-17.09-29.55-25.47-44.42-2.15-3.81-.06-5.49,3.73-6.12,9.67-1.62,19.26-4.17,29.16-1.49,1.51.41,3.23.76,5.4-.71-5.21-6.15-13.14-3.18-19.02-6.04,4.12-2.51,4.02-5.93,3.07-10.28-6.62-30.28-17.09-59.36-25.72-84.59,8.1,22.43,14.31,49.8,22.02,76.74,1.64,5.72,5.07,11.95.66,18.14-15.24.13-30.48.16-45.72.46-3.6.07-5.75-1.4-7.28-4.33-8.8-16.8-17.53-33.64-26.43-50.39-1.42-2.66-.73-4.19,1.28-6,14.26-12.78,17.59-28.2,10.57-45.84-1.19-2.99-.27-5.51.28-8.16,3.99-19.17-4.59-37.88-23.25-43.16-13.3-3.77-21.5-14.49-33.68-19.02-2.02-.75-2.24-2.16-.61-3.7,7.15-6.78,14.24-13.62,21.48-20.3,2.72-2.52,4.38-1.83,5.05,2.01.77,4.39.65,9.19,5.2,13.93,2-13.19-3.65-25.83,2.88-37.24,2.19.57,4.25,1.43,6.14,2.72,4.94,6.46,8.44,13.73,11.77,20.59-.57-4.26-4.56-8-3.86-13.12,3.72-2.08,5.69.94,7.73,2.93,23.51,22.89,46.24,46.47,67.12,71.85,33.64,40.89,66.8,82.16,100.3,123.15,11.74,14.36,25.56,26.79,41.87,36.06,3.32,1.89,5.69,4.83,8.75,6.96Z"/>
      <path class="cls-14" d="M818.62,1005c-5.13,7.83-9.65,15.17-12.17,23.5-.74,2.43-2.14,5.47,1.06,6.74,3.19,1.27,3.27-2.13,4.35-4.09,12.21-21.97,27.05-41.73,48.61-55.42,9.62-6.11,19.99-10.17,31.89-8.24,8.03,1.3,14.56,4.93,19.64,11.22,1.42,1.75,2.82,3.27,5.21,1.4,2.11-1.66,1.79-3.6.76-5.64-2.3-4.53-6.55-7.22-10.32-10.69,1.65-2.96,4.67-2.98,7.21-3.4,27.61-4.52,51.08,9.31,46.61,41.47-.48,3.48-.69,7-.95,10.5-.15,2.02.53,4.04,2.5,4.54,2.51.65,2.9-1.66,3.43-3.46.64-2.16,1.3-4.31,2.38-7.88,4.28,12.77,3.11,24.19-.56,35.06-13.4,39.62-35.37,73.75-67.03,101.36-9.01,7.86-18.31,15.33-28.3,21.99-13.3,8.86-28.01,11.52-43.53,10.83-13.05-.58-26.03-10.93-30.42-23.75-.53-1.54-.71-3.29-1.55-4.63-1-1.59-2.77-3.05-4.71-2.07-1.78.9-.91,2.8-.47,4.38,1.34,4.85,4.61,10.92.87,14.42-3.39,3.17-9.45.01-14.01-1.54-15.06-5.13-29.98-10.65-44.98-15.95-5.4-1.91-7.44-4.35-4.06-10.27,22.73-39.87,45.35-79.82,67.58-119.98,4.65-8.39,10.73-11.81,20.97-10.39Z"/>
      <path class="cls-39" d="M688.93,209.22c.73-12.32-4.04-22.04-12.05-30.06-15.09-15.1-30.18-30.16-43.99-46.47-20.2-23.86-29.48-51.32-26.99-82.48,1.06-13.26,6.77-24.64,16.48-33.9,1.56-1.48,3.2-3.03,5.5-1.9,2.28,1.12,2.23,3.4,1.99,5.55-4.12,37.61,15.67,64.63,39.06,90.6,18.23,20.24,41.73,29.77,66.73,37.64,13.35,4.2,26.37,9.9,36.45,20.23,20.19,20.67,23.04,45.52,16.81,72.37-.75,3.21-2.65,5.99-4.87,8.47-5.94,6.66-8.22,7.03-16.13,2.84-16.88-8.95-33.71-18-50.7-26.75-14.9-7.67-25.29-4.82-33.69,9.63-13.37,23-26.24,46.28-39.57,69.29-.97,1.67-.71,6.93-4.93,4.22-3.56-2.29-10.79-3.93-6.25-10.56,6.44-9.43,3.81-16.87-3.1-24.43-4.01-4.39-2.83-9.74,2.15-13.24,7.67-5.38,7.84-6.04,3.64-14.61-.62-1.26-1.32-2.47-1.93-3.73-3.31-6.93-.11-12.32,7.68-12.21,4.39.06,8.84.86,13.15,1.82,9.52,2.11,18.62-.12,27.74-2.28,2.38-.57,3.75-1.98,4.41-4.73,1.27-5.25,2.94-10.37,2.41-15.32Z"/>
      <path class="cls-62" d="M471.89,156.79c-6.01,4.92-13.03,7.96-19.94,11.38-9.72,4.81-15.98,14.18-24.4,20.85-5.29,4.19-9.58,9.61-14.55,14.23-3.31,3.07-5.83,6.49-7.01,10.85-.64-1.85.56-4.66-2.29-5.33-2.5-.59-3.78,1.56-4.96,3.25-4.55,6.53-9.52,12.67-15.27,18.22-4.19,4.04-8.01,4.28-13.18,1.47-10.42-5.68-21.2-10.71-31.89-15.88-4.39-2.13-9.12-1.55-13.82-1.32-2.78.14-6.37.22-7.24-2.92-.89-3.2,2.9-3.82,4.92-4.96,10.33-5.83,21.18-4.67,32.06-1.84,1.96.51,3.87,1.24,7.12,2.3-4.61-6.9-9.28-11.6-16.41-12.55-12.5-1.67-19.98-8.91-24.76-20.14-5.22-12.26-11.54-24.05-13.78-37.43-1.6-9.56.53-12.71,9.91-14.81,10.37-2.32,19.34,1.59,28.32,5.67,9.86,4.47,18.76,10.56,27.62,16.7,4.05,2.81,8.12,5.28,13.52,5.01,5.08-.25,5.42-2.48,3.74-6.31-.19-.42-.42-.87-.76-1.18-7.7-6.95-12.08-15.23-11.47-25.97.75-13.17,4.39-25.4,11.85-36.19,7.98-11.54,18.97-19.97,30.74-27.38,1.79-1.12,3.73-1.86,5.94-1.95,3.14-.13,4.52.94,3.24,4.13-10.49,26.28-5.15,52.47.5,78.64.88,4.1,2,9.76,6.55,9.42,3.87-.28,3.1-6,3.54-9.68,1.4-11.7,4.7-22.93,9.65-33.57,4.52-9.71,13.53-13.05,23.28-14.89,2.69-.51,4.64.73,5.48,3.28,4.24,12.87,8.83,25.68,7.88,39.59-.18,2.56-.1,6.14-3.25,6.08-2.92-.06-1.92-3.63-2.23-5.8-.17-1.16-.1-2.37-.39-3.49-.33-1.29-.61-2.97-2.37-2.94-1.77.03-2.01,1.86-2.43,3.06-.76,2.18-1.1,4.5-1.63,6.76-2.2,9.39-7.35,16.05-17.08,18.51-1.12.28-2.24.78-3.2,1.42-1.93,1.29-4.55,2.71-3.87,5.29.71,2.67,3.63,1.37,5.51,1.33,5.61-.12,11.22-.58,16.83-.91Z"/>
      <path class="cls-50" d="M729.71,721.16c-.81,1.65-1.66,3.57-2.66,5.41-18.68,34.11-37.38,68.21-56.07,102.32-4.79,8.75-4.79,8.82-13.42,4.29-23.02-12.1-45.91-24.47-69.11-36.22-5.15-2.61-5.9-4.6-3.16-9.45,12.88-22.85,25.52-45.85,38.22-68.81,6.92-12.5,14.01-24.92,20.59-37.59,2.43-4.67,4.76-5.38,9.3-2.94,23.72,12.79,47.57,25.33,71.32,38.08,1.92,1.03,4.46,1.79,5,4.91Z"/>
      <path class="cls-43" d="M814.39,912.79c9,10.11,20.42,16.31,33.29,19.72,5.65,1.5,4.15,3.98,1.63,6.61-4.8,5.02-10.54,8.38-17.71,9.07-9.76.95-19.04,3.43-28.62,9.68,6.84,2.22,11.91.02,16.95-.76,8.43-1.31,9.41-.57,8.55,7.99-2.34,23.35-9.03,28.46-32.17,24.5-32.32-5.53-64.5-12.08-97.3-14.3-3.67-.25-5.26-1.85-6.34-5.2-3.02-9.35-6.37-18.6-9.6-27.88-8.9-25.56-24.52-46.76-42.87-66.22-3.67-3.89-6.84-8.25-10.25-12.4,1.9-3.86,5.1-2.63,7.94-1.8,40.54,11.82,81.95,20.33,122.51,32.09,14.24,4.13,28.01,9.41,41.18,16.2,4.06,2.09,8.16,3.58,12.8,2.73Z"/>
      <path class="cls-35" d="M750.9,501.58c24.1,12.55,48.18,25.16,72.33,37.62,4.62,2.39,5.86,4.47,2.9,9.72-20,35.51-39.62,71.24-59.2,106.98-2.09,3.81-3.31,4.7-7.7,2.3-24.04-13.16-48.32-25.9-72.66-38.52-4.51-2.34-4.8-4.46-2.45-8.64,14.08-25.13,27.95-50.38,41.86-75.61,1.79-3.25,3.46-6.57,5.18-9.86,5.81-4.84,9.17-11.6,13.74-17.41,1.84-2.34,2.73-5.55,6-6.59Z"/>
      <path class="cls-35" d="M860.5,484.47c-1.45-.72-3.14-1.53-4.8-2.39-23.91-12.41-47.75-24.95-71.77-37.15-4.58-2.33-3.96-4.15-1.83-7.96,18.32-32.68,36.47-65.46,54.49-98.31,6.57-11.98,6.27-12,18.18-5.75,21.98,11.55,43.99,23.06,66.11,34.33,4.3,2.19,5.34,4.09,2.86,8.52-19.46,34.73-38.7,69.58-58.13,104.33-1.02,1.82-1.72,4.61-5.12,4.38Z"/>
      <path class="cls-68" d="M917.21,588.9c14.67,7.84,29.27,15.81,44.04,23.46,4.22,2.19,5.24,4.2,2.74,8.64-19.88,35.3-39.56,70.72-59.29,106.11-4.49-3.29-7.02.67-10.08,2.71-23.04-12.01-46.06-24.05-69.12-36.01-3.89-2.02-6.67-3.63-3.68-8.97,14.96-26.73,29.58-53.65,44.33-80.5,3.16-.11,4.12-2.8,5.43-4.88,2.87-4.55,5.53-9.24,8.37-13.81,4.39-7.05,5.69-7.48,13.8-4.82,7.87,2.58,15.26,6.52,23.48,8.09Z"/>
      <path class="cls-35" d="M624.22,434.04c19.81,10.64,39.63,21.26,59.42,31.92,7.8,4.2,7.56,4.12,3.19,11.97-17.58,31.5-35.13,63.02-52.44,94.67-7.9,14.44-7.61,14.55-22.13,6.81-20.67-11.03-41.35-22.06-62.09-32.95-3.55-1.86-5.8-3.23-3.21-7.85,11.33-20.23,22.33-40.64,33.53-60.95.63-1.15,1.95-1.91,2.95-2.86,6.9-10,14.15-19.82,20.01-30.45,4.74-8.62,10.12-14.33,20.77-10.31Z"/>
      <path class="cls-35" d="M742.18,273.6c13.03,6.9,26.01,13.89,39.11,20.65,4.88,2.52,6.76,4.73,3.46,10.55-19.29,34-38.19,68.23-57.03,102.49-2.24,4.06-4.4,4.68-8.33,2.58-23.97-12.79-47.99-25.47-72.03-38.15-2.33-1.23-3.84-2.34-2.17-5.32,11.32-20.19,22.53-40.44,33.78-60.67,3.27.63,3.67-2.46,4.96-4.1,7.26-9.27,12.44-19.85,18.52-29.87,5.55-9.15,7.69-9.82,17.79-6.65,7.51,2.36,14.02,7.23,21.93,8.5Z"/>
      <path class="cls-39" d="M201.41,260.69c3.02-.81,3.58-2.99,4.68-4.65,1.77-2.66,4.2-4.94,7.35-4.53,2.6.34,4.02,3.11,4.75,5.64.97,3.31-1.27,5.28-3.55,7.01-3.35,2.55-6.94,4.79-10.17,7.48-5.11,4.26-7.93,9.19-3.96,15.92,2.42,4.11-.77,7-2.81,10.05-1.74,2.61-3.93,3.55-7.21,2.82-9.76-2.18-16.49,3.33-17.34,13.83-.33,4.12.99,7.82,2.33,11.6.95,2.66,1.68,5.56-1.07,7.74-2.52,1.99-5.25,1.5-7.96.29-.21-.09-.5-.07-.67-.2-14.19-11.08-26.96-23.46-32.13-41.35-4.56-15.76.14-30.12,9.2-43.07,11.43-16.34,26.1-29.44,42.61-40.47,15.32-10.24,28.79-22.6,41.13-36.12,20.84-22.84,22.58-63.61,4.34-88.86-.82-1.14-1.77-2.19-2.57-3.35-1.06-1.51-2.57-3.11-.88-4.97,1.38-1.51,2.89-.31,4.48.13,15.88,4.35,24.81,16.1,31.42,29.96,15.09,31.64,10.51,61.71-9.73,89.18-12.34,16.75-25.81,32.8-41.85,46.45-5.71,4.86-10.81,10.62-10.4,19.51Z"/>
      <path class="cls-35" d="M799.47,886.12c-11.59-3.68-23.18-7.33-34.76-11.03-11.79-3.77-23.52-7.75-35.39-11.28-4.59-1.36-5.48-2.98-3.07-7.31,14.47-25.98,28.72-52.08,43.03-78.16,4.5-8.21,9.03-16.42,13.34-24.73,1.88-3.62,3.57-4.57,7.62-2.37,21.43,11.59,43.03,22.84,64.61,34.15,4.27,2.24,6.29,2.7,1.39,8.22-9.94,11.2-20.41,21.55-31.48,31.61-7.86,7.14-9.62,18.5-9.01,29.39.29,5.16-.47,9.49-4.74,13.17-4.26,3.67-5.23,9.32-6.28,14.58-.65,3.27-2.04,4.54-5.25,3.77Z"/>
      <path class="cls-1" d="M553.33,625.81c12.46,5.29,23.89,12.57,35.87,18.79,3.31,1.72,1.76,3.74.65,5.75-11.06,20.08-22.17,40.14-33.22,60.23-6.77,12.3-13.65,24.54-20.11,36.99-2.64,5.1-4.82,5.54-8.44,1.09-17.31-21.28-37.65-39.76-55.89-60.18-3.43-3.84-8.35-7.63-3.19-13.62,4.76-2.35,6.13-7.37,8.61-11.39,9.59-15.53,19.24-31.03,28.63-46.69,5.27-8.79,7.15-9,16.55-4.4,7.36,3.6,14.62,7.41,22.02,10.93,2.67,1.27,5.2,3.32,8.52,2.51Z"/>
      <path class="cls-11" d="M853.02,888.25c-5.99-5.47-12.72-10.33-17.84-16.52-12.2-14.77-6.34-37.81,10.9-45.59,8.57-3.87,16.41-1.05,24.41,1.94,4.89,1.83,9.09,5.53,15.64,6.04-4.89-10.5-12.97-15.28-22.77-17.85-6.32-1.66-6.69-2.93-2.11-7.68,9.8-10.18,29.09-12.94,42.51-6.06,1.45.75,2.78,1.75,4.25,2.45,2.59,1.23,5.03,5.01,7.96,2.67,2.84-2.27-1.09-4.91-1.36-7.52-.12-1.16-.52-2.33-.44-3.47.25-3.34,1.05-7.91,3.8-8.48,3.42-.71,3.51,4.16,4.4,6.7,14.09,40.2,2.77,85.41-27.46,110.27-12.98,10.67-27.52,16.66-44.72,14.94-15.22-1.52-27.86-12.54-31-27.36-.64-3.03-.7-5.99.18-9.02.99-3.42,1.74-7.49,5.4-8.47,3.5-.93,4.61,3.31,6.6,5.37,5.5,5.7,11.45,10.24,19.75,9.99.63-.79,1.25-1.57,1.88-2.36Z"/>
      <path class="cls-21" d="M60.52,1011.82c7.01,2.56,14.25.69,21.37,1.07,5.52,1.5,9.76,5.04,13.89,8.76,3.8,5.75,11.11,7.98,14.37,14.28,14.47,16.69,23.03,35.76,22.68,58.13-.26,16.43-10.21,23.87-26.15,19.83-14.52-3.68-25.33-12.92-34.39-24.3-8.79-11.04-16.28-22.9-20.91-36.4-.67-1.95-.44-5.02-3.89-4.96-2.34-4.07.37-9.16-2.64-13.1,1.61-1.3,3.49-2.42,3.38-4.92-.07-1.63,0-3.34-1.6-4.36-1.48-.95-2.59-.18-3.63.91-3.04,3.17-6.01,1.68-8.67-.44-6.89-5.49-10.51-12.75-11.72-21.46-.73-5.26,3.57-7.77,5.44-11.59,2.2.02,3.61-1.12,4.45-3.08,2.3-.04,3.24,1.72,3.98,3.35,4.74,10.46,12.36,17.04,24.06,18.28Z"/>
      <path class="cls-49" d="M983.33,479.64c-4.41,18.71,2.11,33.79,14.59,46.9,2.55,2.68,5.53,5.16,8.75,6.97,3.99,2.24,3.54,4.67,1.92,8.11-7.85,16.65-7.84,16.77-24.02,8.4-19.75-10.22-39.41-20.6-59.09-30.96-8.69-4.57-8.8-4.69-4.23-13.05,8.97-16.42,18.18-32.71,27.11-49.16,2.42-4.45,4.33-5.09,8.22-1.26,5.23,5.14,12.07,8.01,18.76,10.81,6.19,2.59,7.84,7.51,7.99,13.24Z"/>
      <path class="cls-7" d="M657.98,921.42c-16.36-7.97-30.65-18.81-42.98-32.09-21.18-22.81-39.37-48.11-59.33-71.94-24.76-29.57-48.25-60.18-74.14-88.83-14.17-15.69-29.57-30.11-44.22-45.28-1.28-1.33-2.46-2.92-4.63-2.84-4.84.2-5.71-4.52-8.49-6.86-2.54-.13-5.42.37-6.04-3.29,2.83-17.5,12.15-24.73,29.42-22.73-.32,3.56-3.57,3.18-5.69,4.14-5,2.28-6.65,5.24-3.31,10.34,12.23,18.67,26.27,35.98,41.15,52.5,37.67,41.82,76.2,82.87,113.63,124.9,19.78,22.21,38.88,45.1,56.85,68.86,3.05,4.03,5.21,8.73,7.78,13.12Z"/>
      <path class="cls-9" d="M776.89,701.42c-2.88-12.19-6.09-22.18-7.35-32.42-.73-5.97,4.57-11,7.44-16.25,13.44-24.65,27.2-49.13,40.82-73.69,5.45-9.82,10.77-19.72,16.24-29.53,1.91-3.42,4.52-5.47,8.88-5.83,5.77-.49,11.46-2,17.18-3.15,1.33-.27,2.81-1.43,3.92-.15,1.4,1.6-.19,3.1-.9,4.42-9.45,17.51-18.91,35.02-28.51,52.45-11.06,20.09-22.27,40.09-33.39,60.14-7.79,14.04-15.53,28.1-24.33,44.02Z"/>
      <path class="cls-113" d="M638.88,626.72c-2.83-12.37-5.32-22.64-7.41-33-.3-1.48,1.24-3.42,2.14-5.03,14.28-25.51,28.63-50.97,42.88-76.5,6.16-11.03,12.13-22.17,18.14-33.28,2.32-4.3,5.2-7.16,10.65-7.58,6.86-.54,13.64-2.17,22.5-3.68-29.83,53.37-58.84,105.29-88.9,159.08Z"/>
      <path class="cls-113" d="M767.33,715.57c-4.7,12.58-11.41,23.02-17.29,33.84-13.64,25.08-27.65,49.96-41.44,74.96-4.41,8-8.47,16.18-12.9,24.17-3.3,5.94-12.31,7.01-20.35,2.66-4.44-2.4-4.58-6.99-.73-14.02,19.45-35.52,38.91-71.03,58.23-106.63,3.3-6.08,7.16-10.33,14.75-10.92,6.35-.49,12.59-2.53,19.74-4.07Z"/>
      <path class="cls-104" d="M737.46,451.42c-4.13-11.47-5.13-22.16-7.42-32.52-.21-.95.59-2.24,1.16-3.23,15.64-27.71,31.32-55.4,46.95-83.11,5.29-9.38,10.61-18.74,15.64-28.26,1.67-3.16,3.79-4.39,7.25-4.22,3.49.17,6.95.02,10.43-.98,2.57-.74,5.77-1.35,7.7,1.56,1.7,2.56.19,5.01-1.05,7.24-8.87,15.95-17.82,31.86-26.73,47.8-13.14,23.49-26.24,47-39.41,70.47-4.45,7.94-9.07,15.78-14.53,25.27Z"/>
      <path class="cls-95" d="M783.54,710.09c9.69-4.46,18.81-8.59,27.86-12.86,2.44-1.15,4.44-.54,6.61.59,25.78,13.41,51.53,26.88,77.42,40.08,6.19,3.16,5.04,9,6.1,13.94,1.27,5.89,1.65,11.98,2.48,17.97.19,1.39.87,2.97-.28,4-1.59,1.43-3.11-.13-4.43-.83-15.76-8.28-31.5-16.6-47.21-24.98-19.63-10.47-39.22-21.01-58.86-31.48-3.09-1.65-6.32-3.06-9.7-6.45Z"/>
      <path class="cls-77" d="M769.83,702.92c-16.49-6.87-30.23-15.4-44.58-22.7-15.83-8.06-31.25-16.92-46.89-25.35-9.27-4.99-18.59-9.89-27.95-14.71-3.91-2.02-4.69-3.85-.13-5.87,7.91-3.5,15.88-6.84,23.72-10.49,2.37-1.1,4.07-.2,5.9.77,26.28,13.86,52.54,27.75,78.83,41.58,2.04,1.07,3.22,2.49,3.72,4.74,2.29,10.17,4.66,20.32,7.37,32.03Z"/>
      <path class="cls-40" d="M948.42,370.71c-5.28,12.29-5.32,25.48-9.27,37.42-3.76,11.37-10.97,21.62-16.86,32.26-13.38,24.15-26.87,48.25-40.34,72.35-2.01,3.6-4.2,7.11-7.38,12.48-2.51-11.84-4.97-21.71-6.54-31.71-.67-4.23,2.77-7.84,4.8-11.48,14.9-26.78,29.93-53.49,44.9-80.24,4.92-8.78,9.67-17.66,14.7-26.38,3.75-6.5,10.8-1.75,16-4.69Z"/>
      <path class="cls-113" d="M629.24,642.56c-2.34,8.61-7.63,14.95-11.44,21.94-12.52,22.99-25.52,45.71-38.3,68.56-7.3,13.06-14.47,26.19-21.78,39.24-2.17,3.87-4.72,5.49-7.43.32-.21-.41-.56-.75-.85-1.12-3.42-4.37-10.09-7.03-10.25-12.84-.14-5.19,4.58-9.52,7.17-14.22,16.85-30.48,33.76-60.94,50.61-91.42,1.43-2.58,3.07-4.43,6.24-5.02,8.4-1.57,16.75-3.47,26.02-5.43Z"/>
      <path class="cls-45" d="M881.15,535.15c10.14-5.11,18.75-9.35,27.25-13.78,2.37-1.24,4.32-1.02,6.57.17,26.28,13.92,52.56,27.86,78.94,41.59,3.3,1.72,4.33,4.61,4.5,7.4.44,7.23,2.22,14.29,2.02,21.62-.16,5.67-2.29,5.81-6.43,3.57-21.81-11.83-43.63-23.65-65.49-35.39-15.23-8.18-30.52-16.24-47.36-25.18Z"/>
      <path class="cls-69" d="M743.25,462.43c9.61-4.52,17.82-8.39,26.04-12.26,3.56-1.68,6.77-1.76,10.54.26,24.94,13.42,50.02,26.57,75.05,39.82,3.39,1.8,5.72,3.91,6.31,8.36.98,7.36,3.11,14.56,4.78,21.83.42,1.84,1.17,3.97-.21,5.37-1.73,1.75-3.5-.22-4.98-1.02-30.74-16.44-61.42-33-92.16-49.44-8.01-4.29-16.19-8.26-25.36-12.92Z"/>
      <path class="cls-30" d="M631.11,624.48c.03,5.27-3.03,2.35-4.89,1.41-15.86-8.07-31.76-16.06-47.45-24.46-18.76-10.04-37.31-20.49-55.99-30.69-5.97-3.26-6.73-6.74-1.25-10.76,5.24-3.84,11.24-6.65,16.94-9.85,2.21-1.24,4.11.15,5.93,1.11,24.84,13.1,49.67,26.23,74.48,39.39,4.17,2.21,6.29,5.42,6.97,10.47,1.05,7.82,3.41,15.46,5.27,23.38Z"/>
      <path class="cls-30" d="M729.3,451.01c-.8,3.82-3.09,2.33-4.99,1.34-8.93-4.65-17.83-9.36-26.73-14.08-22.13-11.74-44.26-23.49-66.37-35.27-3.51-1.87-7-3.79-10.39-5.86-5.06-3.1-5.16-8.4.07-11.44,5.46-3.17,11.28-5.73,16.93-8.59,1.58-.8,2.99-.86,4.64.02,25.58,13.72,51.19,27.39,76.81,41.05,1.49.79,2.92,1.6,3.33,3.37,2.24,9.77,4.45,19.54,6.71,29.47Z"/>
      <path class="cls-10" d="M907.07,743.06c.14-7.26,4.58-12.23,7.53-17.62,18.17-33.23,36.68-66.27,55.1-99.36,1.69-3.04,2.86-7.21,6.12-8.25,5.71-1.81,11.81-2.98,17.78-3.15,3.79-.11,1.34,3.17.57,4.61-5.5,10.32-11.15,20.55-16.8,30.78-11.87,21.48-23.77,42.95-35.66,64.42-8.72,15.75-17.39,31.53-26.24,47.2-.9,1.59-1.44,4.71-4.19,3.81-2.11-.69-.95-3.3-1.27-5.05-1.06-5.95-2.03-11.92-2.95-17.41Z"/>
      <path class="cls-49" d="M877.49,569.05c-13.47,24.12-26.98,48.22-40.38,72.38-7.39,13.32-14.84,26.61-21.77,40.17-2.73,5.35-6.26,9.06-11.75,11.32-6.26,2.58-12.36,5.56-20.04,9.06,6.27-11.67,11.79-22.24,17.58-32.65,19.69-35.42,39.45-70.8,59.23-106.17,2.84-5.08,5.94-10.01,8.92-15.01,5.16,6.02,5.52,13.92,8.21,20.91Z"/>
      <path class="cls-84" d="M743.61,454.24c24.19-42.87,47.41-84.05,70.66-125.21,3.22-5.71,6.4-11.46,9.95-16.96,3.43-5.3,7.79-4.86,10.38.76,2.46,5.36,2.77,10.12-.47,15.85-20.27,35.9-40.1,72.04-59.96,108.17-1.68,3.06-3.83,5.21-6.93,6.61-7.24,3.28-14.47,6.6-23.63,10.78Z"/>
      <path class="cls-78" d="M529.07,486.14c-29.78,2.4-47.08-24.19-43.02-44.37.37-1.82.7-3.72,1.51-5.36,1.34-2.73,3.73-4.07,6.86-4.05,3.82.03,3.58,3.15,4.09,5.49,2.03,9.33,6.55,17.04,14.7,22.23,11.32,7.2,24.2,2.65,28.11-10.09,2.8-9.1,6.33-18.07,5.01-28.06-.57-4.34,1.36-8.71,5.83-10.24,4.1-1.41,6.97,1.63,9.42,4.66,7.48,9.24,8.17,18.24,2.17,28.45-6.05,10.29-12.48,20.39-17.99,30.96-3.96,7.59-8.35,13.02-16.68,10.38Z"/>
      <path class="cls-90" d="M735.52,503.17c-14.04,25.41-28.06,50.83-42.12,76.22-5.67,10.25-11.64,20.35-17.06,30.73-2.21,4.24-5.11,7.02-9.47,8.79-6.39,2.59-12.64,5.52-18.95,8.31-.45-.46-.9-.92-1.35-1.38,26.7-47.11,53.4-94.22,80.1-141.33,4.24,5.61,6.23,12.29,8.83,18.67Z"/>
      <path class="cls-61" d="M315.43,497.28c.09,3.63-1.79,6.66-3,9.9-5.76,2.66-10.21,7.92-17.36,7.91-5.23-.01-10.13-1.53-15.19-2.25-9.2-1.31-18.4-2.72-27.3-5.62-5.11-1.67-8.98-4.6-11.81-9.23-9.94-16.3-12.21-34.62-13.93-53.02-1.29-13.85-.64-27.56,5.59-40.44,2.09-4.32,4.68-7.72,10.23-5.96,4.48,1.42,6.49,3.99,4.65,8.98-9.49,25.81-.75,68.09,18.21,87.95,5.51,5.76,12.19,9.37,20.5,9.14,5.15-.15,10.31-.18,15.47-.32,5.73-.16,10.08-3.13,13.94-7.03Z"/>
      <path class="cls-99" d="M637.92,677.54c-20.49,37.06-40.94,74.14-61.51,111.15-3.93,7.07-4.46,7.09-9.94,1.37-8.78-9.15-8.68-5.44-1.75-17.76,21.79-38.73,43.48-77.53,65.22-116.29.22-.39.64-.67.96-1,3.04,2.42,3.18,6.02,3.43,9.37.35,4.67,1.46,9.03,3.6,13.16Z"/>
      <path class="cls-99" d="M778.68,745.01c-8.4,15.68-16.73,31.39-25.21,47.02-10.62,19.56-21.41,39.03-32.02,58.59-4.92,9.07-12.27,11.25-20.88,5.82-3.38-2.13-.29-4.21.58-5.85,8.51-15.9,17.16-31.74,25.88-47.53,13.6-24.6,27.29-49.15,40.95-73.72.22-.4.6-.71.9-1.06,4.68,4.74,5.65,11.67,9.8,16.72Z"/>
      <path class="cls-102" d="M509.86,583.46c0-1.41.02-2.81,0-4.22-.07-4.93,1.86-6.49,6.47-4.03,9.5,5.08,19.07,10.03,28.57,15.11,25.39,13.59,50.77,27.2,76.13,40.85,1.78.96,5,1.27,4.78,3.49-.31,3.09-3.74,1.76-5.8,2.36-1.56.46-3.27.57-4.73,1.23-12.14,5.49-22.26.72-32.84-5.24-20.6-11.6-41.53-22.67-62.69-33.23-7.39-3.69-10.89-8.27-9.88-16.35Z"/>
      <path class="cls-102" d="M763.77,709.21c-8.16,1.7-16.32,3.43-24.49,5.09-1.95.39-3.66-.55-5.33-1.43-27.32-14.37-54.65-28.74-81.95-43.15-1.21-.64-2.94-1.47-3.2-2.51-1.86-7.36-4.66-14.55-5.1-23.7,40.85,21.63,80.64,42.7,120.43,63.76-.12.65-.24,1.29-.36,1.94Z"/>
      <path class="cls-42" d="M785,719.77c16.47,8.39,33.01,16.63,49.38,25.2,21.16,11.06,42.2,22.34,63.22,33.66,1.86,1,5.82.94,4.36,4.84-1.32,3.5-4.01,5.21-7.81,3.71-6.53-2.58-13.12-3.22-19.92-1.21-1.68.49-3.22-.24-4.69-1.03-26.42-14.07-53.29-27.31-79.23-42.28-2.98-7.35-7.15-14.42-5.32-22.89Z"/>
      <path class="cls-82" d="M611.28,418.47c-2.51-4.38-1.1-9.16-1.13-13.73-.03-4.64,3.18-2.89,5.42-1.78,10.89,5.4,21.84,10.71,32.58,16.41,23.35,12.4,46.6,25,69.87,37.56,1.36.73,3.12,1.09,3.98,3.28-12.74,3.39-24.05,6.53-37.21-1.6-22.23-13.74-46.08-24.86-69.25-37.07.64-1.95.33-3.94-1.28-5.02-1.76-1.18-1.69,1.68-2.97,1.95Z"/>
      <path class="cls-52" d="M885.9,545.61c21.73,9.88,42.4,21.82,63.58,32.77,14.13,7.3,28.1,14.91,42.11,22.45,1.71.92,4.52,1.42,3.87,4.22-.51,2.17-2.97,1.65-4.64,2.31-12.82,5.01-23.59.97-34.9-5.65-18.12-10.61-37.11-19.74-55.73-29.49-3-5.27-8.35-8.75-10.93-14.32-1.8-3.89-5.03-7.43-3.35-12.28Z"/>
      <path class="cls-34" d="M749.43,473.45c15.38,7.92,30.81,15.73,46.12,23.78,20.72,10.9,41.35,21.97,62.01,32.99.8.43,1.53,1,3.94,2.61-12.33,1.5-22.1,7.31-33.85.55-20.46-11.78-41.79-22.06-62.75-32.97-1.75-2.99-5-3.95-7.67-5.7-7.6-5-10.89-14.02-7.81-21.25Z"/>
      <path class="cls-61" d="M470.42,496.22c-7.87-6.46-16.26-12.48-19.23-23.02-.31-1.09-.29-2.27-.42-3.41,3.94.21,3.37-3.31,4.13-5.38,2.72-7.4,4.07-15.32,8.45-22.08,1.1-1.7,2.11-4.37,4.45-3.9,2.72.55,2.55,3.38,2.74,5.72,1.88,22.51,19.7,43.46,41.31,48.37,8.66,1.97,17.03.29,25.25-3.55-1.18,6.88-5.47,9.09-11.24,9.42-11.46.65-22.73,2.75-34.06,4.45-6.74,1.01-12.96-1.11-18.63-4.81-1.3-.03-2.07-.85-2.76-1.81Z"/>
      <path class="cls-49" d="M883.37,525.21c17.93-34.58,35.96-68.78,56.73-103.37,1.1,5.15,1.04,8.9,2.66,11.67,5.38,9.18,1.37,16.66-3.15,24.45-9.5,16.38-18.92,32.81-27.98,49.44-2.65,4.87-6.17,8.02-11.08,10.12-5.77,2.47-11.46,5.12-17.19,7.69Z"/>
      <path class="cls-25" d="M814.39,912.79c-1.75,3.77-4.66,3.54-7.65,1.95-41.7-22.18-88.23-28.76-132.95-41.15-12.38-3.43-24.83-6.62-37.18-10.14-2.37-.68-4.45-1.37-6.64.13-2.81-3.05-5.61-6.11-9.64-10.49,18.41,4.04,34.87,8.72,51.65,11.12,36.12,5.17,69.92,18.01,104.19,29.45,4.4,1.47,9.12,3.02,13.64,2.9,12.26-.33,20.05,5.28,24.58,16.23Z"/>
      <path class="cls-93" d="M519.46,551.31c27.07-49.4,54.03-96.67,82.25-143.51,1.23,6.84,3.32,13.18-.71,20.25-19.69,34.55-39.31,69.14-58.11,104.17-5.11,9.51-12.27,14.73-23.43,19.08Z"/>
      <path class="cls-78" d="M311.34,479.32c.09,18.44-12.82,26.2-29.06,17.5-18.31-9.82-31.34-38.42-26.02-56.88.82-2.85,1.56-5.72,4.98-5.85,3.29-.13,4.96,2.71,5.97,5.21,1.03,2.53,1.12,5.45,1.49,8.22,1.36,10.32,6.24,19.17,12.6,26.99,5.45,6.7,12.28,5.42,19.14-1.92,1.98-2.12,2.28-7.37,6.73-5.69,4.44,1.68,4.2,6.27,4.16,10.31,0,.7,0,1.41,0,2.11Z"/>
      <path class="cls-12" d="M698.16,240.09c2.67,5.81,4.35,10.64.56,16.99-21.4,35.76-41.54,72.25-61.12,109.04-3.02,5.67-8.89,6.43-13.54,9.32-.87.54-1.97.52-2.4-.47-.64-1.46.42-2.63,1.11-3.86,9.86-17.55,19.63-35.16,29.55-52.67,13.38-23.62,26.85-47.19,40.32-70.76,1.48-2.58,2.69-5.4,5.53-7.59Z"/>
      <path class="cls-106" d="M470.42,496.22c.92.6,1.84,1.21,2.76,1.81-2.53,1.15-3.72,3.28-4.66,5.79-1.65,4.45-.55,6.07,4.44,6.64,11.85,1.36,22.97-2.82,34.5-3.66,6.68-.49,13.35-.95,21.16-1.51-2.44,3.75-4.3,6.6-6.15,9.44-12,.81-23.3,4.5-34.52,8.47-6.63,2.35-13.11,2.08-18.65-2.28-15.27-12-28.79-25.76-40.02-41.67,8.41-5.58,8.36-5.53,15.48,1.44,3,2.94,5.66,6.1,8,9.58,4.87,7.27,8.68,8.51,17.67,5.94Z"/>
      <path class="cls-17" d="M965.11,420.52c2.75,16.31,13.24,26.59,28.46,33.08-6.25,5.98-11.33,5.99-17.57,1.92-25.83-16.82-34.88-50.45-19.5-76.22,2.51,6.79,5.9,12.52,10.83,17.24,1.74,1.66,1.34,3.9.49,5.93-2.84,6.75-3.21,14.68-9.74,19.7-1.67,1.29-2.67,4.16-.32,5.32,2.32,1.14,2.64-1.72,3.27-3.42.59-1.57,1.47-2.94,4.08-3.55Z"/>
      <path class="cls-28" d="M810.05,290.19c-11.03,5.05-19.2,1.77-27.84-2.99-21.51-11.85-43.32-23.18-65.32-34.09-6.97-3.46-10.63-7.75-9.73-16.55,34.2,17.83,68.17,35.53,102.89,53.63Z"/>
      <path class="cls-30" d="M579.06,800.28c17,8.83,34.02,17.61,50.98,26.5,10.16,5.33,20.24,10.81,30.33,16.28,1.95,1.06,5.16,1.78,4.11,4.76-1.06,3.01-3.78.57-5.42.25-11.66-2.34-23.32-4.74-34.84-7.7-15.53-3.99-26.15-15.01-36.26-26.57-3.47-3.97-6.82-8.05-10.23-12.08.44-.48.88-.96,1.32-1.44Z"/>
      <path class="cls-67" d="M945.66,362.82c-7.61,3.35-14.39,2.08-21.73-1.92-24.08-13.1-48.51-25.54-72.8-38.24-2.27-1.19-5.07-1.89-6.29-4.28-1.34-2.62-3.73-5.89-1.65-8.43,1.99-2.44,4.69.56,6.74,1.62,31.18,16.21,62.28,32.56,93.4,48.87,1,.53,2.27.77,2.34,2.38Z"/>
      <path class="cls-72" d="M500.23,604.68c-12.18,21.8-24.41,43.57-36.51,65.42-2.11,3.81-3.32,2.97-4.98-.24-1.88-3.65-3.47-7.14-1.13-11.23,12.76-22.28,25.47-44.59,38.2-66.88,2.96,3.8,3.12,8.56,4.41,12.94Z"/>
      <path class="cls-44" d="M1023.4,530.68c-3.66,1.17-6.08-.53-8.15-2.33-6-5.22-12.01-10.47-17.63-16.1-6.57-6.59-7.7-14.61-3.09-22.39,3.95-6.68-.74-12.25-1.84-18.17-.78-4.17-.53-6.26,3.96-6.86,2.72-.36,5.68-2.6,8.05-.57,2.7,2.31.02,5.36-.63,7.79-5.25,19.52,1.11,35.76,13.56,50.44,2.08,2.46,5.11,4.23,5.76,8.19Z"/>
      <path class="cls-70" d="M1018.67,541.39c4.53,1.17,8.62,2.11,12.64,3.29,2.86.84,1.74,2.81.85,4.45-6.54,12.15-13.1,24.29-19.73,36.39-.76,1.4-1.91,3.13-3.71,2.67-2.11-.54-1.33-2.71-1.37-4.22-.09-3.04-.15-6.02-1.13-9-4.36-13.29,5.47-22.12,10.49-32.44.32-.65,1.49-.88,1.95-1.14Z"/>
      <path class="cls-101" d="M553.33,625.81c-1.83,3.74-4.27,1.6-6.43.56-8.41-4.06-16.76-8.23-25.15-12.33-9.03-4.42-9.12-4.47-14.52,4.27-11.28,18.25-22.42,36.59-33.76,54.81-.77,1.23-1.26,5.72-4.47,1.75,12.64-22.7,25.3-45.39,37.89-68.11,1.33-2.4,2.4-4.7,5.8-2.94,13.69,7.07,27.78,13.4,40.64,22.01Z"/>
      <path class="cls-109" d="M742.18,273.6c-2.87,2.42-5.31-.19-7.72-.94-4.88-1.53-9.53-3.76-14.33-5.55-10.12-3.76-10.98-3.42-16.49,6.19-6.49,11.32-12.72,22.8-20.83,33.09-.83,1.06-1.33,3.4-3.47,1.99-.49-.32-.25-1.75-.35-2.67,8.38-15.17,16.91-30.26,25.04-45.57,2.08-3.91,4.01-4.37,7.64-2.43,10.11,5.4,20.33,10.6,30.51,15.88Z"/>
      <path class="cls-38" d="M511.25,409.38c-.2,6.8-6.65,13.79-12.51,13.57-5.32-.2-11.35-6.37-11.22-11.49.12-4.88,7.94-14.1,11.97-14.12,4.9-.02,11.91,7.15,11.76,12.04Z"/>
      <path class="cls-38" d="M579.35,416.51c-.65-9.83-3.81-18.75-6.84-27.72-.79-2.35-2.11-5.27.81-6.93,2.48-1.41,4.97-.14,6.99,1.73.17.16.29.38.46.53,12.82,11.03,12.6,17.07-1.43,32.4Z"/>
      <path class="cls-4" d="M917.21,588.9c-2.06,2.78-4.32.66-6.27.02-6.61-2.17-13.24-4.38-19.65-7.09-4.31-1.82-6.71-1.05-8.96,3.12-3.63,6.74-7.78,13.21-11.83,19.71-1.45,2.32-3.25,4.09-4.37-.34,5.05-9.47,10.24-18.86,15.07-28.45,1.96-3.9,4.13-4.32,7.72-2.32,9.37,5.22,18.85,10.24,28.29,15.34Z"/>
      <path class="cls-112" d="M624.22,434.04c-.82,1.59-2.43,1.72-3.64,1.18-7.07-3.19-10.1,1.13-13.17,6.4-6.24,10.69-13.02,21.05-20.77,30.74-.89,1.11-1.61,2.31-3.19,2.45,7.09-15.72,16.03-30.43,24.45-45.44,1.49-2.66,3.15-2.08,5.15-1.06,3.72,1.91,7.45,3.82,11.17,5.73Z"/>
      <path class="cls-54" d="M735.52,503.17c-5.55-4.99-7.17-11.84-8.83-18.67,2.19-4.03,4.39-8.05,6.59-12.08,2.72,10.39,13.07,19.99,2.25,30.75Z"/>
      <path class="cls-65" d="M267.55,423.87c.47-4.28,1.09-8.64,6.34-9.33,3.75-.49,10.48,6.72,10.6,10.72.13,4.3-5.28,9.29-9.91,8.84-6.25-.62-6.55-5.51-7.04-10.22Z"/>
      <path class="cls-103" d="M885.9,545.61c2.68,8.21,6.51,15.71,12.88,21.77,1.18,1.12,4.19,2.31,1.4,4.83-15.77-6.95-18.77-11.25-20.5-29.43,2.6-.19,4.17,1.85,6.22,2.82Z"/>
      <path class="cls-98" d="M637.92,677.54c-4.62-.39-4.46-4.38-5.05-7.33-1-5-1.35-10.13-1.98-15.2,1.15-2.49,2.29-4.97,3.51-7.62,6.4,8.55,7.96,22.7,3.51,30.15Z"/>
      <path class="cls-19" d="M749.43,473.44c-.55,9.69,3,17,11.9,21.61,1.78.92,5.04,1.82,3.58,5.34-2.33-1.01-4.57-2.34-6.99-2.98-12.53-3.33-12.52-14.68-15.28-24.07-.96-3.27.32-3.49,6.79.1Z"/>
      <path class="cls-33" d="M750.9,501.58c-4.38,8.38-10.45,15.6-15.97,23.2-.96,1.32-2.04,2.78-3.77.81,3.87-7.16,7.74-14.32,11.62-21.48,1.88-3.47,4.09-5.93,8.12-2.52Z"/>
      <path class="cls-13" d="M778.68,745.01c-6.93-3.43-7.75-10.44-9.8-16.72.96-2.6,1.8-5.25,4.75-8.4,1.88,8.92,5.65,16.48,5.05,25.13Z"/>
      <path class="cls-26" d="M500.23,604.68c-4.56-3.26-4.36-8.14-4.41-12.94,1.69-2.66,2.3-6.03,5.59-8.24,2.2,7.43,5.3,14.5-1.18,21.18Z"/>
      <path class="cls-66" d="M877.49,569.05c-5.72-5.8-5.67-13.86-8.21-20.91,1.13-.88,2.13-5.61,3.5-1.65,2.48,7.2,7.18,14.24,4.71,22.56Z"/>
      <path class="cls-57" d="M785,719.77c.94,7.82,5.53,14.8,5.32,22.89-2.5-.11-3.64-1.61-4.26-3.88-1.58-5.84-3.28-11.65-4.92-17.48-.29-1.05-1.11-2.49.19-3.03,1.33-.55,2.62.55,3.67,1.51Z"/>
      <path class="cls-92" d="M894.61,729.81c1.22-2.51,1.5-5.68,5.33-6.09,2.81-.3,4.27.69,4.74,3.38-1.95,6.13-5.47,6.44-10.08,2.71Z"/>
      <path class="cls-56" d="M611.28,418.47c.1-1.84.21-3.69.32-5.6,7.02,3.35,7.78,5.09,3.93,8.67-1.42-1.02-2.83-2.05-4.25-3.07Z"/>
      <path class="cls-79" d="M401.21,1061.53c-7.74.03-13.42-3.63-19.49-10.52,9.71.39,15.03,4.69,19.49,10.52Z"/>
      <path class="cls-31" d="M546.23,277.43c8.07,4.51,16.59,8.34,22.95,15.39-1.27,8.54-6.65,12.37-14.85,13.25-25.42,2.72-47.29,14.64-68.97,26.95-8.37,4.75-16.39,10.08-24.73,14.88-10.56,6.07-16.57,3.28-19.35-8.68-.81-3.48-.96-6.96-.38-10.48.51-3.08.41-6.09-1.35-8.83,6.9-14.89,15.67-28.16,30.23-36.9,4.46-2.67,7.39-7.81,13.27-8.29,2.66,3.01,1.68-1.71,3.05-1.44,3.1-1.61,6.16-3.34,9.87-2.68.33,4.66,3.2,4.71,6.83,4,14.71-2.89,29.11-.58,43.43,2.82Z"/>
      <path class="cls-31" d="M235.21,312.56c6.03-7.38,14.83-8.63,23.27-9.1,3.35-.19,4.76-1.16,6.42-3.21,1.51,1.89,3.35,3.21,5.85,3.47,8.64.89,16.58,4.61,25.05,6.24,7.24,5.36,12.23,12.22,14.14,21.15,1.57,8.5,2.43,17.07,1.89,25.71-.49,7.72-4.46,9.78-11.29,6.04-2.26-1.24-4.36-2.74-6.35-4.35-7.78-6.29-16.43-10.56-26.45-11.81-7.17-3.73-14.44-7.22-22.52-8.54-1.39-1.23-2.52-2.78-4.01-3.86-5.86-4.3-8.48-9.63-6.06-16.91.5-1.5.51-3.21.07-4.82Z"/>
      <path class="cls-29" d="M439.55,319.91c4.6.91,4.56,4.26,3.59,7.59-1.51,5.23-.74,10.24,1.01,15.12,2.56,7.16,7.05,8.74,13.66,4.83,11.65-6.88,23.06-14.16,34.84-20.8,19.37-10.92,39.35-20.26,61.9-22.73,5.42-.6,11.53-1.37,11.99-9.11.08-1.31,1.54-1.6,2.64-1.98,5.1,2.09,9.28,5.12,8.37,11.35-.83,5.66-5.03,7.74-10.34,8.84-14.15,2.93-28.5,5.09-42.2,9.92-26.21,9.25-48.39,25.29-70.38,41.67-4.54,3.38-7.95,8.96-14.97,7.52-1.97-.4-1.13,3.18-3.8,2.63-2.21-4.74,2.43-7.35,3.91-10.87,1-2.37,2.94-4.35-.18-6.55-12.25-8.63-9.98-22.23-.04-37.43Z"/>
      <path class="cls-8" d="M403.08,517.41c3.66,7.32-1.67,10.71-6.71,12.84-5.81,2.46-10.5,5.37-13.84,10.91-3.09,5.12-7.91,4.54-12.07,1.3-6.2-4.83-11.9-10.07-19.32-13.4-5.39-2.42-3.95-8.25-2.84-13.12,10.23-8.82,45.04-9.04,54.78,1.47Z"/>
      <path class="cls-48" d="M267.73,346.69c6.71-3.85,12.1.64,17.36,3.33,5.75,2.94,10.8,7.24,16.24,10.81,2.04,1.33,4.13,3.66,6.88,2.05,2.74-1.61,1.71-4.62,1.64-7.04-.15-5.58-.63-11.14-.94-16.71-.15-2.73-1.08-5.57,1.02-8.02,2.32-.25,4.26.53,5.3,2.62,4.48,9.05,8.24,18.16,6.51,28.77-1.43,8.71-2.87,17.63,2.21,25.91.81,1.32,1.61,2.97-.1,4.38-1.76,1.45-3.57.89-5.19-.12-1.17-.73-2.2-1.76-3.09-2.83-11.98-14.34-26.19-25.95-42.55-34.97-3.13-1.72-6.02-3.85-5.3-8.18Z"/>
      <path class="cls-71" d="M546.23,277.43c-2.07,1.78-4.23.9-6.55.5-13.08-2.23-26.16-4.1-39.36-.57-2.12.57-5.07,1.29-6.56-.74-1.78-2.44,1.36-4.01,2.21-6.01,15.81-6.55,31.38-4.41,46.79,1.44,2.25.86,3.99,2.5,3.46,5.37Z"/>
      <path class="cls-94" d="M448.39,420.42c.29-20.16,8.82-36.36,24.39-49.05-9.04,15.86-14.56,33.43-24.39,49.05Z"/>
      <path class="cls-51" d="M235.21,312.56c1.89.13,3.19.8,2.36,2.99-2.88,7.59-2.13,13.85,5.98,17.83,1.71.84,2.43,2.72,1.65,4.78-7.94.79-13.44-4.1-19.1-8.42-2.64-2.01-2.35-4.9-.65-7.49,2.55-3.9,5.45-7.51,9.75-9.69Z"/>
      <path class="cls-15" d="M295.8,309.96c-2.25,1.74-4.47,1.63-7.12.56-6.44-2.6-13.02-4.83-20.11-4.74-4.13.05-4.53-2.3-3.66-5.53,8.92-.82,17.62-.31,25.78,3.94,2.48,1.29,5.29,2.17,5.11,5.77Z"/>
      <path class="cls-59" d="M313.47,420.59c-10.71-8.43-17.15-20.69-26.84-30.02,13.45,5.97,21.99,16.35,26.84,30.02Z"/>
      <path class="cls-86" d="M199,335.52c-1.49-9.8,1.93-16.8,6.81-23.32,1.43-1.91,3.03-3.96,5.72-2.11,2.43,1.67.22,3.41-.48,4.82-3.37,6.77-5.86,14.1-12.04,20.6Z"/>
      <path class="cls-96" d="M608.27,228.7c-1.25,7.57-2.16,13.7-3.32,19.77-.27,1.44-.59,3.54-2.8,3.41-2.16-.12-2.3-2.04-2.4-3.64-.45-7.16.35-13.88,8.52-19.54Z"/>
      <path class="cls-2" d="M610.26,287.12c-6.46-1.8-7.01-6.27-7.48-11.88,5.06,2.7,7.12,6.21,7.48,11.88Z"/>
      <path class="cls-6" d="M329.31,406.75c-1.68-3.66-3.7-6.04-1.88-9.16.75-1.28,2.07-1.03,2.96-.17,2.88,2.79,1.12,5.4-1.07,9.33Z"/>
      <path class="cls-55" d="M211.2,473.1c-.66,2.12-2.02,3.22-4.1,3.13-1.66-.07-2.46-1.06-1.99-2.77.54-1.99,1.77-3.26,3.95-3.11,1.7.12,2.3,1.23,2.15,2.74Z"/>
      <path class="cls-24" d="M486.1,273.29c.61,2.84,1.35,5.71-1.55,8.06-2.38-2-1.13-4.49-1.5-6.62,1.02-.48,1.31-2.49,3.05-1.44Z"/>
      <path class="cls-87" d="M512.29,347.61c-1.01-.1-2.25-.25-2.08-1.38.31-2.09,2.05-3.01,3.93-3.27,1.14-.16,2.72.66,2.46,1.76-.48,2-2.46,2.58-4.31,2.88Z"/>
      <path class="cls-110" d="M47.48,1048.23c.43-1.25-.17-3.35,1.44-3.56,2.12-.28,2.35,2.12,2.78,3.48,4.59,14.5,12.08,27.42,21.35,39.33,9.1,11.71,19.95,21.08,34.85,24.72,14.3,3.49,22.19-2.25,23.02-17.06.97-17.33-5.18-32.58-13.84-47.11-2.38-3.99-5.83-7.37-6.94-12.08,4.02.1,6.28,3.04,8.4,5.71,12.13,15.23,19.82,32.17,19.57,52.12-.27,21.19-13.54,31.09-34.06,25.44-13.5-3.72-23.48-12.44-32.27-22.64-12.1-14.04-20.78-29.92-24.3-48.33Z"/>
      <path class="cls-63" d="M66.24,997.39c-.11,3.65-1.51,6.93-2.99,10.18-7.14,1.62-13-.74-17.67-6.06-8.28-9.43-13.15-20.04-9.77-32.9,2.1-7.99,7.48-9.81,14.35-5.2,5.05,3.39,8.3,8.29,10.69,13.69,2.84,6.45,4.78,13.21,5.39,20.28Z"/>
      <path class="cls-76" d="M95.77,1021.65c-5.64-1.32-9.73-5.08-13.89-8.76-4.65-7.07-8.44-14.45-9.6-23.03-.65-4.82-.14-9.32,2.21-13.54,4.87-8.73,13.06-10.57,21.24-4.84,10.87,7.61,17.85,28.76,13.51,41.13-2.22,6.33-6.88,9.15-13.46,9.04Z"/>
      <path class="cls-27" d="M66.24,997.39c-3.73-2.68-3.06-7.1-4.18-10.78-2.68-8.84-6.04-17.17-14.17-22.57-4.72-3.13-7.85-1.63-9.82,3.29-4.59,11.48,3.66,32.38,14.61,37.92,3.46,1.75,7.66-1.08,10.58,2.32-.91,1.42-1.82,2.83-2.73,4.24-6.93,2.69-12.06-.8-16.98-4.96-5.29-4.48-7.75-10.86-11.06-16.67-1.53-7.73-4.12-15.32-1.65-23.42,3.4-11.18,13.27-15,22.21-7.81,10.46,8.4,14.68,20.12,15.89,33.14.22,2.37-.78,4.05-2.7,5.3Z"/>
      <path class="cls-108" d="M186.94,914.36c5.27,0,10.04-1,14.63-2.87,1.88-.77,3.73-2.22,5.72-.12,1.56,1.65,1.61,3.94.4,5.1-1.9,1.82,1.12,13.58-7.24,3.98-.74-.84-3.56-.05-5.36.25-5.52.93-10.99,2.06-16.65.95-5.7-1.11-7.84-4.52-6.87-10.06,1.19-6.82,6.07-10.78,11.4-14.35,1.04-.7,2.13-1.02,3.11.12,1.03,1.2.1,2.21-.52,3.08-.94,1.33-2.17,2.45-3.15,3.75-1.87,2.49-5.4,4.69-3.51,8.3,1.74,3.33,5.49,1.47,8.05,1.85Z"/>
      <path class="cls-74" d="M222.31,922.71c2.44.05,5.02.07,4.41,2.64-1.23,5.16-6.02,6.02-10.32,6.84-2.31.44-5.71-.59-5.01-3.26,1.45-5.53,7.41-4.46,10.92-6.22Z"/>
      <path class="cls-5" d="M167.7,997.88c.33-1.63-.39-4.42,2.44-3.85,2.84.57,3.27,3.62,3.79,6.07.36,1.71-.24,3.57-2.34,3.36-3.17-.31-3.82-2.83-3.89-5.58Z"/>
      <path class="cls-47" d="M381.38,575.3c-7.85-.15-27.79,13.02-30.98,20.46-4.73,11.03-8.68,11.76-17.1,3-11.82-12.3-23.55-24.68-35.34-37.01-1.38-1.44-2.61-2.82-.72-4.7,2.5-2.48,5.37-2.75,8.29-.96,2.53,1.56,3.23,4.51,4.55,6.94,6.41,11.79,16.08,18.31,29.63,19.41,7.07.58,12.68-2.54,18.38-5.62,10.55-5.7,21.05-11.68,33.69-8.94,7.93,1.71,15.63,4.43,23.55,6.2,14.4,3.24,28.9,2.68,43.05-1.14,11.74-3.17,20.81-10.25,26.35-21.44,2.1-4.24,4.58-8.33,10.37-7.84,1.77.15,3.21.91,3.64,2.73.35,1.44,0,2.8-1.37,3.68-7.6,4.93-11.32,13.76-18.66,18.84-9.4,6.51-17.98,13.42-24.61,23.19-5.2,7.67-10.19,6.44-15.27-1.6-2.62-4.15-6.11-7.32-11.17-7.62-15.22-.91-29.79-5.83-44.92-7.24-.46-.04-.91-.23-1.36-.35Z"/>
      <path class="cls-36" d="M341.02,648.76c.58-1.42,1.65-1.81,2.83-2.04,4.64-.93,6.24-2.38,1.35-5.75-1.71-1.18-4.54-2.62-3.63-5.2.91-2.59,3.91-2.26,6.17-2.01,11.52,1.3,23.4,1.22,33.8,7.4,3.95,2.35,10.37,6.48,8.73,9.51-2.52,4.65-8.21-.09-12.4-1.29-5.12-1.46-10-3.73-15.11-5.26-5.59-1.68-7.36.05-5.48,5.45,1.31,3.77-.11,4.33-3.39,4.55-5.33.36-9.39-1.73-12.87-5.36Z"/>
      <path class="cls-88" d="M354.33,703.04c-2.03-4.63.04-8.41-.94-12.48-3.72.77-7.31,1.43-10.85,2.29-1.98.48-3.75.5-5.13-1.14-1.31-1.55-.39-3.05.33-4.54,5.49-11.41,14.69-18.52,26.36-22.81,1.44-.53,2.72-.96,3.39.91.6,1.69-.4,2.64-1.74,3.33-4.76,2.47-9.6,4.78-14.25,7.45-1.98,1.14-3.62,2.92-5.28,4.55-1.03,1.01-1.74,2.41-.77,3.79,1.11,1.57,2.47,1.44,4.26.63,5.74-2.6,11.61-4.89,17.4-7.37,1.8-.77,3.52-1.48,5.05.39,1.89,2.32-.21,3.44-1.61,4.41-7.31,5.04-9.62,14.1-16.21,20.59Z"/>
      <path class="cls-16" d="M402.76,646.77c-5.76-1.7-10.56-3.19-15.4-4.52-2.59-.71-3.32-2.51-2.79-4.74.68-2.82,3.23-2.71,5.11-1.95,5.17,2.09,9.83,4.99,13.08,11.2Z"/>
      <path class="cls-18" d="M263.16,820.58c-3.93-2.48-4.78-5.18-4.81-8.24,0-.3,1.39-1.05,1.68-.87,2.87,1.83,3.31,4.63,3.14,9.11Z"/>
      <path class="cls-81" d="M614.15,931.65c-13.88-3.98-27.76-7.98-41.64-11.95-6.3-1.8-12.66-3.42-18.91-5.4-2.82-.89-6.78-2.09-5.71-5.83,1.19-4.13,4.83-2.19,7.72-1.32,3.8,1.15,7.64,2.19,11.46,3.25,2.03.56,4.19,1.47,5.54-1.11,1.19-2.26.09-4.28-1.36-5.76-2.27-2.33-4.69-4.71-7.47-6.35-19.32-11.43-28.34-31.37-40.54-48.68-.69-.97-1.01-2.12-.02-3.75,2.45-.12,3.75,1.87,5.09,3.59,3.32,4.25,6.87,8.37,9.73,12.92,7.88,12.51,17.58,22.95,30.73,30.18,7.33,4.03,12.12,10.4,12.31,19.25.1,4.5,2.64,6.52,6.46,8.04,9.07,3.6,18.44,6.54,26.59,12.93Z"/>
      <path class="cls-53" d="M445.3,703.56c3.44,13.52,6.93,27.03,10.32,40.56,4.32,17.25,8.65,34.49,12.78,51.79.81,3.38.76,6.97.95,10.47.1,1.85.17,4.25-2.07,4.68-2.24.43-3.01-1.9-3.72-3.58-3.76-8.94-5.08-18.52-6.71-27.94-3.91-22.62-7.8-45.23-12.87-67.63-.59-2.62-1.57-5.47,1.32-8.34Z"/>
      <path class="cls-107" d="M508.39,892.03c.14-14.81-5.83-28.25-9.54-42.18-5.11-19.2-9.9-38.49-16.53-57.25-.52-1.47-.35-3.18-.64-6.12,5.72,7.08,7.33,14.64,9.83,21.62,8.92,24.87,16.71,50.09,22.72,75.86,1.39,5.98.75,8.76-5.88,8.07,0,0,.03,0,.03,0Z"/>
      <path class="cls-100" d="M424.2,673.57c5.41-.9,4.87,5.56,8.49,6.86,2.76,6.07,5.61,12.11,4.96,19.54-3.07-5.63-6.78-11.02-8.96-16.98-1.23-3.37-7.04-4.49-4.5-9.43Z"/>
      <path class="cls-83" d="M475.9,786.65c-4.94-7.66-6.72-14.33-7.17-21.41-.07-1.08-.18-2.47,1.34-2.82,1.52-.34,2.06.98,2.46,1.97,2.67,6.58,3.73,13.44,3.37,22.25Z"/>
      <path class="cls-21" d="M934.52,1070.51c-3.47,5.71-4.23,12.33-6.17,18.56-9.53,13.04-18.55,26.47-30.81,37.27-8.36,7.37-17.21,13.82-28.35,16.16-17.86,3.73-26.96-4.52-28.54-22.48-1.25-14.27,3.79-27.19,10.47-39.52,2.33-4.3,5.34-8.24,6.84-12.97,7.27-3.95,13.46-9.34,19.7-14.66,16.58-2.13,26.02-12.24,30.81-27.56.42-1.34,1.1-2.62,2.8-2.76.25,1.96.98,3.62,2.87,4.55,4.08-.15,4.5-3.47,5.45-6.31,2.54-7.62,7.18-13.67,13.97-17.87,8.15-5.04,14.26-1.8,15,7.7,1.27,16.32-10.67,32.21-26.56,35.37-.66.13-1.38.2-1.9,1.62,3.15,2,6.32,1.32,9.55-.04,6.93-2.93,11.7-8.37,16.44-13.9,1.36-1.59,1.82-4.63,5.07-3.72.4-.05.8-.05,1.2,0,10.24,12.9,5.11,29.56-11.15,36.14-2.55,1.03-5.67,1.1-6.67,4.42Z"/>
      <path class="cls-3" d="M857.95,1067.52c3.86,3.33-.3,5.44-1.52,7.52-7.93,13.49-14.48,27.36-13.97,43.53.04,1.41.01,2.83.21,4.22,2.07,14.67,11.78,21.25,26.54,17.85,11.36-2.62,20.32-9.39,28.62-17.14,9.48-8.85,17.68-18.77,24.47-29.85,1.36-2.22,2.11-5.61,6.04-4.58-5.31,24.83-22.36,40.44-42.39,53.58-5.53,3.63-11.79,5.48-18.48,6.16-18.3,1.87-31.41-9.29-32.09-27.91-.78-21.24,7.73-38.67,22.56-53.37Z"/>
      <path class="cls-91" d="M911.26,1022.54c-2.78,9.99-6.96,19.18-15.57,25.56-5.32,3.94-11.01,7.01-18.04,4.76-4.95-2.91-6.79-7.62-6.87-12.97-.17-12.4,3.85-23.41,12.35-32.47,4.99-5.32,11.12-9.01,18.72-5.72,7.1,3.07,8.95,9.59,9.41,16.65.09,1.39,0,2.8-.01,4.19Z"/>
      <path class="cls-37" d="M951.15,1029.94c-5.31,7.41-10.55,14.88-19.22,18.89-4.4,2.03-8.8,3.34-13.4.69-1.48-.85-2.78-2.06-2.47-3.89.39-2.3,2.39-1.68,3.94-1.71,15.71-.34,31.22-22.1,26.24-36.83-1.75-5.18-5.2-6.34-9.88-3.84-8.83,4.72-13.61,12.45-16.23,21.87-.87,3.12-1.6,8.68-6,1.98,1.44-9.48,4.78-18.11,11.88-24.83,5.49-5.19,11.64-9.01,19.57-5.72,6.49,2.7,9.67,9.76,8.52,19.08-.59,4.82-1.94,9.55-2.94,14.32Z"/>
      <path class="cls-46" d="M934.52,1070.51c-2.31-2.53-3.82-4.83,1.42-5.37,11.47-1.19,16.69-9.42,20.3-18.84,1.69-4.4,1.67-9.34-3.47-12.33-1.93-1.12-1.64-2.54-.43-4.03,8.01.49,12.02,4.42,12.3,12.1.54,14.84-15.15,29.68-30.12,28.47Z"/>
      <path class="cls-85" d="M797.46,1137.49c-.12.98-.05,2.26-1.28,2.09-2.67-.37-3.75-2.55-4.32-4.84-.34-1.35.64-2.29,2.02-1.9,2.29.64,3.05,2.64,3.57,4.64Z"/>
      <path class="cls-111" d="M921.48,985.31c.06,1.27-.33,2.24-1.72,2.45-1.92.29-3.01-.79-3.62-2.4-.57-1.53.5-2.05,1.72-2.16,1.65-.15,3.24,0,3.62,2.1Z"/>
      <path class="cls-58" d="M396.68,156.93c-2.61,2.65-5.71,2.35-8.75,2.3-1.78-.03-3.46-.33-3.2-2.63.23-2.11,1.99-2.67,3.64-2.27,2.63.65,5.72-.24,8.31,2.6Z"/>
      <path class="cls-89" d="M472.1,109.99c1.45-3.58,3.87-4.97,6.5-6.93.52,4.91-1.69,6.59-6.5,6.93Z"/>
      <path class="cls-75" d="M721.18,941.9c10.51-1.57,21.01-3.21,31.53-4.7,14.04-1.99,28.09-3.98,42.17-5.7,2.84-.35,7.31-1.63,8.41.98,1.42,3.37-3.27,4.3-5.48,6.03-11.31,8.88-23.72,11.43-38.1,8.71-12.63-2.39-25.69-2.52-38.56-3.65.01-.56.02-1.12.03-1.68Z"/>
      <path class="cls-60" d="M687.72,888.87c7.33-2.42,13.67.2,20.16,1.52,20.21,4.1,39.79,10.36,59.01,17.77,3.66,1.41,9.23,3.11,7.64,7.5-1.86,5.16-6.97,1.59-10.25.17-22.15-9.55-45.12-16.71-68.13-23.75-2.87-.88-5.62-2.13-8.43-3.21Z"/>
      <path class="cls-73" d="M783.49,914.65c1.28.32,2.18,1.03,1.9,2.4-.28,1.39-.92,2.71-2.6,2.87-1.4.13-2.3-.76-2.33-2.01-.04-1.9,1.35-2.8,3.02-3.26Z"/>
      <path class="cls-80" d="M372.84,520.08c4.9-4.65,10.17-3.6,15.36-2.98,1.67.2,2.39,1.32,2.4,2.83,0,1.55-.78,2.57-2.47,2.77-5.06.6-10.09,1.05-15.29-2.62Z"/>
      <path class="cls-97" d="M103.02,1002.37c-.39,4.06,1.17,9.68-3.82,11.6-5.02,1.94-8.74-2.41-11.76-5.88-6.07-6.96-9.04-15.25-8.4-24.52.26-3.76,1.46-7.55,5.5-9.09,4.27-1.63,7.18,1.15,9.74,3.9,6.19,6.66,8.67,14.78,8.75,23.98Z"/>
      <path class="cls-64" d="M447.99,581.73c1.97.15,4.77-.91,4.51,2.55-.29,3.76-2.88,5.64-6.44,6.08-3.12.38-4.97-1.28-5.03-4.32-.12-5.23,4.12-3.77,6.97-4.3Z"/>
      <path class="cls-22" d="M334.28,590.92c3.92-1.4,7.79-3.6,10.33,1.48,1.04,2.08,1.54,5.26-1.36,5.86-5.43,1.14-6.33-4.18-8.97-7.35Z"/>
      <path class="cls-105" d="M877.39,1036.52c.75-9.57,4.45-18.46,11.82-25.63,2.99-2.91,6.68-4.87,10.83-3.09,3.96,1.7,3.46,5.79,3.42,9.24-.12,11.34-5.07,20.28-14.21,26.81-2.59,1.85-5.6,4.05-9.03,2.16-3.52-1.94-2.63-5.65-2.83-9.49Z"/>
    </g>
  </g>
</svg>