<?xml version="1.0" encoding="UTF-8"?>
<svg id="Layer_1" data-name="Layer 1" xmlns="http://www.w3.org/2000/svg" xmlns:xlink="http://www.w3.org/1999/xlink" viewBox="0 0 678 385.96">
  <defs>
    <style>
      .cls-1 {
        fill: url(#linear-gradient);
      }

      .cls-2 {
        fill: #763718;
      }

      .cls-3 {
        fill: #773818;
      }
    </style>
    <linearGradient id="linear-gradient" x1="382.75" y1="305.44" x2="511.84" y2="305.44" gradientTransform="translate(108.18 -28.54) rotate(-8.47)" gradientUnits="userSpaceOnUse">
      <stop offset="0" stop-color="#f5a964"/>
      <stop offset=".09" stop-color="#f7ae58"/>
      <stop offset=".23" stop-color="#f9b251"/>
      <stop offset=".6" stop-color="#fab350"/>
      <stop offset=".71" stop-color="#f9b552"/>
      <stop offset=".8" stop-color="#f9bd5c"/>
      <stop offset=".87" stop-color="#f8ca6c"/>
      <stop offset=".94" stop-color="#f7dd82"/>
      <stop offset="1" stop-color="#f7f19b"/>
    </linearGradient>
  </defs>
  <g>
    <path class="cls-2" d="M558.65,112.95c-5.17,7.89-10.5,15.19-18.33,20.31-3.98,2.61-8.2,4.37-13.14,4.27-7.81-.16-12.22-4.14-12.73-11.95-.11-1.73-.02-3.47-.02-6.2-3.61,5.15-6.65,9.63-10.45,13.5-5.91,6.03-12.56,10.39-21.42,10.26-7.54-.11-12.28-3.93-13.84-11.35-.27-1.29-.02-2.71-1.33-4.17-2.98,3.57-5.78,7.22-8.89,10.58-6.84,7.39-14.55,13.07-25.41,12.3-6.23-.44-10.92-3.34-14.22-8.53-3.93-6.16-5.21-13.09-5.79-20.25-.13-1.59,1.19-4.57-1.51-4.46-2.86.11-6.92-1.58-8.25,3.4-1.57,5.84-4.2,11.29-7.38,16.45-4.48,7.29-10.07,13.55-17.39,18.08-6.89,4.28-14.36,5.7-22.33,3.92-8.7-1.94-13.87-7.61-16.62-16.6-4.12,4.18-7.84,8.14-11.76,11.9-6.93,6.66-15.03,11.03-24.65,12.52-10.7,1.66-19.45-3.47-23.02-13.65-2.58-7.35-2.36-14.71-.22-22.16-6.16.95-6.58,1.29-8.46,6.73-4.85,13.95-12.92,25.51-25.25,33.86-7.24,4.9-15.16,6.54-23.71,4.38-5.29-1.34-9.63-4.2-12.21-9.08-1.43-2.71-2.34-2.34-4.15-.4-6,6.42-12.75,11.85-21.06,15.07-2.38.92-4.78,1.64-7.39,1.68-9.75.16-13.88-4.64-12.68-14.37,1.54-12.47,5.37-24.28,9.69-35.97.31-.85.63-1.7,1.34-3.65-6.92,5.52-12.05,11.22-16.9,17.21-9.35,11.55-16.42,24.4-22.35,37.98-2.99,6.84-8.68,9.44-16.08,7.89-5.73-1.2-7.55-3.75-6.3-9.41.98-4.39,2.33-8.71,3.79-14.03-7.62,9.2-15.15,17.14-23.95,23.76-11.69,8.79-24.33,15.49-38.89,18.27-26.82,5.13-50.54-11.51-54.57-38.55-2.48-16.66.79-32.53,7.12-47.86,15.36-37.22,41.64-64.44,77-83.04,9.41-4.95,19.66-8.33,30.48-7.08,15.91,1.84,24.94,12.55,24.06,28.57-.7,12.79-5.5,23.99-15.95,32.05-4,3.08-8.64,4.68-13.83,4.61-8.62-.11-12.85-7.26-8.74-14.93,1.36-2.54,3.56-4.33,5.5-6.36,4.62-4.81,7.45-10.47,7.66-17.21.2-6.58-2.92-9.09-9.29-7.75-10.14,2.14-18.77,7.34-26.14,14.26-23.1,21.69-36.4,48.57-41.28,79.81-.92,5.92-.83,11.75.25,17.57,2.93,15.84,13.77,22.73,29.76,18.84,15.09-3.67,27.64-11.98,39.2-22,6.5-5.64,12.18-12.06,17.71-18.62,1.69-2,2.66-4.29,3.42-6.75,6.19-19.95,11.68-40.13,19.58-59.51,4.04-9.91,8.12-19.91,16.11-27.54,4.13-3.94,9.03-6.13,14.86-5.94,7.18.24,10.88,5.97,7.97,12.58-.86,1.94-2.11,3.73-3.29,5.51-12.94,19.5-20.95,41.25-28.8,63.08-1.49,4.16-2.94,8.33-4.76,13.5,7.01-9.59,14.04-17.84,22.06-25.16,5.86-5.35,12.04-10.35,20.21-11.67,6.73-1.08,10.47,2.27,10.63,9.04.1,4.11-1.02,7.94-2.26,11.77-3.8,11.71-8.32,23.21-10.26,35.45-.25,1.58-.99,3.37.5,4.51,1.75,1.33,3.6.34,5.24-.63,4.1-2.43,7.62-5.58,10.08-9.63,2.01-3.3.8-7.32,1.67-10.97,5.01-21.12,15.55-38.14,35.68-47.79,8.4-4.03,17.06-4.89,24.89,1.72,5.72,4.83,6.31,11.78,7.46,18.54.34,1.98-1.59,5.41,1.52,5.75,3.4.37,6.91-1.04,8.59-4.71,3.84-8.39,8.97-15.86,15.89-22,8.09-7.17,17.07-12.56,28.29-12.69,9.88-.11,15.95,8.43,12.72,17.84-1.45,4.24-3.89,7.94-7.31,10.9-2.11,1.83-4.5,3.08-7.31,1.48-2.6-1.48-2.97-3.75-2.49-6.57.69-4.08-1.1-5.35-5.14-4.02-3.66,1.21-6.19,3.85-8.09,6.92-5.67,9.14-9.12,19.1-9.39,29.92-.22,9.05,4.21,12.39,13,10.41,3.51-.79,6.6-2.41,9.17-4.75,7.24-6.58,13.46-13.45,16.47-23.54,5.01-16.82,14.77-30.85,30.13-40.29,4.16-2.55,8.67-4.3,13.55-4.69,12.76-1.02,21.6,7.1,22.26,20.29.09,1.74,0,3.49.04,5.23.05,1.94-.52,4.16,2.71,4.27,2.79.1,4.2-1.02,4.68-3.74,4.76-26.87,15.12-51.56,29.34-74.71,4.67-7.59,10.39-14.32,17.73-19.48,3.77-2.65,7.89-4.45,12.69-4.38,6.14.09,9.64,2.55,11.67,8.47,2.16,6.3,2.09,12.79.51,19.05-7.46,29.48-21.42,55.29-43.83,76.18-.2.18-.42.34-.6.54-1.79,1.93-5.24,2.37-5.78,5.24-.81,4.28.04,8.58,1.66,12.6,2.42,6,8.17,7.96,13.39,4.09,8.62-6.38,15.54-14.43,19.72-24.38,7.36-17.54,18.12-32.13,34.72-41.94,4.19-2.48,8.73-4.07,13.54-4.83,3.51-.56,7.04-.31,10.2,1.32,3.66,1.88,7.12,3.7,11.47,4,4.17.29,6.17,4.29,4.86,8.87-1.18,4.1-2.99,8.02-4.46,12.05-3.46,9.44-6.88,18.89-7.34,29.08-.1,2.1-.58,4.53,1.69,5.82,2.41,1.37,4.32-.34,6.22-1.56,4.07-2.63,6.62-6.57,9.07-10.59,7.85-12.92,11.3-27.38,14.7-41.87,1.79-7.64,1.87-7.65-5.86-7.1-2.97.21-5.9-.03-8.77-.71-3.62-.86-4.64-3.17-3.23-6.67.92-2.28,2.73-3.6,4.78-4.65,5.05-2.59,10.46-4.16,15.99-5.16,3.39-.61,5.22-2.16,6.49-5.44,4-10.33,9.54-19.79,17.35-27.76,3.14-3.2,6.54-5.88,11.52-5.54,6.71.46,10,5.14,7.22,11.35-2.73,6.1-6.07,11.93-9.1,17.9-.53,1.04-1.77,2.22-1.1,3.26.85,1.33,2.4.28,3.67.19,4.11-.31,8.15-1.45,12.36-.57,3.22.67,6.05,1.74,6.89,5.22.89,3.68-.19,6.9-3.17,9.36-3.09,2.55-6.81,3.71-10.6,4.57-4.44,1.01-8.94,1.76-13.51,1.67-2.63-.05-4.17.84-5.03,3.49-4.53,14.01-9.5,27.9-11.37,42.61-.52,4.09-1.38,8.76,2.88,11.33,4.09,2.46,7.7-.42,11.04-2.61,2.69-1.77,4.91-4.13,7.09-6.5,1.43-1.56,2.1-3.21,2.15-5.39.43-18.72,9.05-33.52,22.28-46.06,5.62-5.33,11.91-9.54,19.56-11.39,11.45-2.77,20.93,2.6,22.83,12.96.77,4.22-.15,8.3-1.59,12.22-6.19,16.86-18.03,27.83-35.02,33.39-5.63,1.84-6.1,3.65-2.37,8.38,3.42,4.33,7.93,5.76,13.24,4.6,7.5-1.63,12.85-6.31,17.15-12.41,3.33-4.72,5.57-5.82,8.23-4.07,2.61,1.72,2.93,4.92.3,9.37-7.25,12.27-16.77,21.95-31.22,25.2-12.67,2.85-22.53-1.68-29.03-13.1-1.57-2.76-2.3-2.06-3.74-.05-4.33,6.05-9.43,11.31-16.09,14.86-4.47,2.39-9.27,3.71-14.28,3.34-8.53-.63-14.18-7.21-15.09-17.04-.1-1.05-.01-2.12-.01-3.18ZM228.71,147.03c.62,4.1.49,8.62,4.9,10.46,4.57,1.91,8.28-.35,11.4-3.72,5.05-5.46,7.77-12.1,9.78-19.12.45-1.56.04-2.68-1.12-3.92-5.21-5.55-6.04-12.3-2.53-18.79.86-1.58,2.8-3.33.85-4.94-1.78-1.47-3.36.66-4.94,1.48-.35.18-.65.47-.93.76-10.48,10.49-15.62,23.42-17.41,37.8ZM490.12,114.7c.24,2.02.21,4.33,2.29,5.61,1.97,1.22,3.91.27,5.68-.71,1.28-.71,2.58-1.5,3.62-2.51,10.87-10.61,17.77-23.34,20.23-38.4.55-3.35-1.06-4.81-4.24-4.71-3.05.1-5.74,1.37-8.1,3.19-12.25,9.45-17.52,22.58-19.48,37.54ZM385.17,89.27c-3,.14-4.87,1.55-6.43,3.12-10.73,10.84-16.03,24.19-17.17,39.2-.3,3.93.99,7.79,5.29,9.52,4.06,1.63,7.03-.6,9.64-3.17,6.14-6.04,8.93-13.83,11-21.96.38-1.5-.23-2.46-1.21-3.54-7.37-8.14-7.73-14.34-1.13-23.17ZM438.47,92.42c14.42-17.09,23.71-36.84,30.84-57.72,1.07-3.14,1.97-6.4,1.73-9.82-.07-1.09-.08-2.23-1.17-2.81-1.29-.69-2.34.12-3.26.86-2.01,1.61-3.52,3.69-4.8,5.87-11.58,19.8-19.19,41.07-23.33,63.61ZM626.72,86.32c10.28-5.97,16.55-13.88,20.26-23.84.98-2.64,3.6-6.31-.02-8.26-3.29-1.78-6.03,1.44-8,3.89-6.39,7.98-9.79,17.33-12.24,28.21Z"/>
    <path class="cls-2" d="M515.94,271.2c-6.24,9.38-13.05,16.73-22.46,21.34-5.39,2.64-11.08,3.13-16.85,2.47-4.91-.57-8.36-3.32-9.84-8.25-.85-2.83-1.6-5.67-1.33-9.58-2.68,3.23-4.78,5.86-7,8.4-7.63,8.75-16.24,15.87-28.18,17.95-12.04,2.1-21.43-5.48-21.99-17.8-.68-14.89,3.77-28.83,7.65-42.89.75-2.71,1.59-5.39,2.49-8.06.82-2.42.67-3.52-2.42-2.78-3.26.78-6.63.68-9.94-.21-2.63-.71-4.91-1.95-5.43-4.74-.52-2.75,1.1-4.9,3.2-6.51,4.04-3.09,8.85-4.73,13.71-5.33,5.6-.69,8.5-3.23,10.58-8.5,3.69-9.36,8.61-18.17,15.91-25.35,3.92-3.86,8.87-4.59,13.58-2.09,4.91,2.6,6.41,6.98,3.91,12.23-2.25,4.71-4.78,9.29-7.18,13.93-.42.81-1.2,1.74-.61,2.59.61.88,1.72.39,2.62.21,3.85-.8,7.76-.64,11.61-.34,3.48.27,6.6,1.63,7.47,5.57.85,3.81-.73,6.75-4.8,8.72-5.99,2.9-12.5,3.96-19.02,4.58-4.71.45-7.2,2.27-8.52,7.11-3.41,12.52-7.97,24.72-9.73,37.67-.16,1.19-.34,2.39-.4,3.58-.15,3.3-.06,6.68,3.4,8.36,3.8,1.85,7.14.11,9.92-2.35,5.46-4.82,9.77-10.66,13.87-16.63,7.7-11.21,13.19-23.59,18.92-35.85,1.47-3.15,2.87-6.37,4.67-9.33,2.68-4.41,7.06-6.24,11.6-5.31,5.8,1.19,8.41,5.03,7.22,10.86-1.94,9.49-6.35,18.19-8.91,27.49-1.28,4.65-2.59,9.29-3.29,14.07-.4,2.76-1.36,6.01,1.69,7.63,2.99,1.59,5.72-.34,7.97-2.33,7.41-6.56,12.92-14.62,17.85-23.12,6.61-11.41,11.26-23.7,16.28-35.82,1.83-4.41,4.94-6.46,9.53-6.63,8.92-.32,13.38,5.36,10.77,14.05-5.43,18.08-11,36.12-16.54,54.17-2.12,6.91-2.16,6.83,4.84,6.62,7.23-.22,14.47-.33,21.38,2.43,4.51,1.8,8.13,4.63,10.5,8.91,1.42,2.57,1.84,5.3.89,8.14-1.55,4.67-3.24,5.09-6.65,1.67-7.77-7.78-17.4-8.46-27.61-7.62-7.17.59-11.02,3.55-13.28,10.96-4.99,16.38-10.91,32.53-20.28,47.1-8.58,13.34-19.28,24.36-34.1,30.72-6.02,2.58-12.31,3.48-18.84,1.84-10.85-2.72-16.88-13.02-14.82-24.97,2.26-13.09,9.42-23.49,17.82-33.19,13.56-15.64,29.87-27.56,48.97-35.58,2.27-.95,3.73-2.28,4.42-4.72,1.37-4.88,2.96-9.69,4.76-15.47ZM504.14,307.24c-11.68,6.18-21.87,14.06-30.27,24.14-6.29,7.55-11.78,15.58-13.76,25.49-.41,2.04-.83,4.15,1.01,5.56,1.88,1.44,4.13.95,6.12.06,3.07-1.37,5.74-3.39,8.18-5.72,14.38-13.68,21.86-31.39,28.72-49.53Z"/>
    <path class="cls-2" d="M225.61,206.69c-10.54-.24-20.24,3.28-29.85,7.01-14.91,5.79-29.38,12.43-41.52,23.15-5.49,4.84-9.87,10.55-11.75,17.86-.41,1.59-.77,3.25-.31,4.76,1.16,3.79-1,5.21-4.01,5.98-6.42,1.65-11.97-.51-16.67-4.67-4.62-4.09-4.89-9.67-3.68-15.26,1.31-6.07,4.99-10.87,9.06-15.41,12.07-13.46,27.72-21.27,44.09-27.86,15.19-6.11,30.85-10.7,47.13-12.74,9.98-1.25,20.03-1.46,29.89,1.16,19.08,5.06,28.17,20.22,23.88,39.49-2.91,13.09-9.84,23.77-19.89,32.27-16.18,13.69-34.26,23.82-55.45,27.52-.66.12-1.32.23-1.99.29-7.12.65-7.15.64-9.14,7.42-4.25,14.52-7.78,29.23-10.51,44.11-1.67,9.07-8.16,14.3-17.26,13.8-6.38-.35-10.89-4.93-11.33-11.34-.47-6.79.86-13.37,2.55-19.84,8.56-32.86,19.26-64.96,34.48-95.41,1.14-2.27,2.36-4.53,3.83-6.59,3.03-4.25,9.87-5.75,14.5-3.39,4.23,2.16,5.74,6.43,3.93,12.16-3.79,12-7.77,23.94-11.6,35.93-1.33,4.15-1.18,4.4,3.14,3.35,19.76-4.8,34.99-15.67,44.4-34,2.4-4.68,3.73-9.75,3.62-15.09-.17-8.37-5.2-13.86-13.52-14.65-1.99-.19-4.01-.03-6.02-.03Z"/>
    <path class="cls-2" d="M370.28,253.97c3.86-8.06,7.47-14.9,13.36-20.26,4.97-4.52,10.82-5.68,16.26-2.98,4.91,2.43,7.31,7.17,6.44,13.92-.73,5.64-2.56,10.96-6.81,15.08-2.3,2.23-5,3.07-8.1,1.98-2.94-1.03-4.45-3.07-4.76-6.28-.31-3.19-1.63-3.58-4.18-1.37-2.87,2.48-5.01,5.55-6.77,8.9-6.77,12.87-11.57,26.46-15.15,40.53-2.28,8.95-10.91,12.01-18.55,6.62-2.3-1.63-3.71-3.76-3.65-6.76.06-2.81-.07-5.62.61-8.45-3.85,5.73-7.63,11.48-13.4,15.48-5.22,3.62-10.61,6.69-17.31,6.57-7.69-.14-12.17-4.37-12.46-12.16-.05-1.44,0-2.89,0-5.06-5.56,6.13-9.89,12.41-15.95,17.1-6.1,4.72-12.8,7.08-20.53,6.46-8.48-.68-14.29-7.61-14.04-17.5.29-11.79,4.24-22.61,10.15-32.65,9.57-16.25,22.1-29.25,40.65-35.13,8-2.53,15.59-1.86,22.36,3.59,1.19.96,2.51,1.37,4.04,1.54,7.16.79,9.51,4.9,6.31,11.48-4.22,8.68-8.22,17.44-11,26.71-1.07,3.59-2.21,7.17-2.27,10.97-.08,5.29,2.47,6.84,7.09,4.15,4.12-2.4,7.29-5.89,9.98-9.76,9.47-13.64,14.92-28.97,18.58-45.01,1.45-6.37,6.3-9.85,12.66-8.84,5.45.87,8.3,5.41,7.59,12.18-.28,2.65-.67,5.28-1.15,8.94ZM269.03,295.91c.02,5.01,2.56,6.79,6.88,5.39,2.73-.89,5-2.51,7.07-4.44,10.63-9.88,18.18-21.64,21.77-35.81.58-2.31,1.86-4.95-.07-6.85-2.1-2.07-5.07-1.1-7.65-.54-1.27.27-2.48.99-3.61,1.69-3.8,2.32-7.01,5.37-9.92,8.7-8.14,9.31-12.98,20.13-14.48,31.87Z"/>
  </g>
  <path class="cls-1" d="M585.65,141.02c3.99-.59,7.97,1.48,11.82,3.49,2.69,1.4,5.47,2.85,8.15,3.3,2.83.48,6.03.01,9.13-.43,4.21-.61,8.57-1.24,11.97.54,3.44,1.8,5.42,5.76,7.34,9.59,1.39,2.78,2.83,5.65,4.81,7.67,1.95,1.99,4.77,3.46,7.5,4.88,3.82,1.99,7.77,4.06,9.53,7.59,1.67,3.36,1,7.47.29,11.82-.51,3.13-1.04,6.37-.61,9.29.43,2.92,1.88,5.87,3.28,8.71,1.95,3.96,3.79,7.7,3.17,11.4-.65,3.89-3.83,7.02-6.9,10.04-2.19,2.16-4.46,4.39-5.75,6.86-1.31,2.51-1.85,5.68-2.37,8.74-.72,4.22-1.46,8.59-4.23,11.31-2.73,2.69-7.08,3.36-11.29,4-3.09.47-6.29.96-8.86,2.25-2.44,1.21-4.67,3.41-6.84,5.54-3.1,3.04-6.3,6.19-10.29,6.78-3.99.59-7.97-1.48-11.82-3.49-2.69-1.4-5.47-2.85-8.15-3.3-2.83-.48-6.03-.01-9.13.43-4.21.61-8.57,1.24-11.97-.54-3.44-1.8-5.42-5.76-7.34-9.59-1.39-2.78-2.83-5.65-4.82-7.67-1.95-1.99-4.77-3.46-7.5-4.88-3.82-2-7.77-4.06-9.53-7.59-.46-.92-.74-1.91-.89-2.93-.4-2.71.09-5.73.61-8.89.51-3.13,1.04-6.37.61-9.29-.43-2.92-1.88-5.87-3.28-8.71-1.95-3.96-3.78-7.69-3.17-11.4.65-3.89,3.83-7.02,6.9-10.04,2.19-2.16,4.46-4.39,5.75-6.86,1.31-2.51,1.85-5.68,2.37-8.74.72-4.22,1.46-8.59,4.23-11.31,2.73-2.69,7.08-3.36,11.29-4,3.09-.47,6.29-.96,8.86-2.25,2.44-1.21,4.67-3.41,6.84-5.54,3.1-3.04,6.3-6.19,10.29-6.78Z"/>
  <g>
    <path class="cls-3" d="M559.42,221.58c1.52-.23,3.44.04,3.86,2.86.43,2.85-1.3,3.63-2.86,3.86l-13.39,2c-3.39.51-4.16-2.44-4.28-3.2-.55-3.72,1.84-7.25,5.43-10.86,3.88-3.9,5.08-5.08,4.64-8-.1-.69-.51-3.17-2.6-2.86-2.35.35-2.22,2.69-2.14,4.23.04,1.03-.93,2.43-3.31,2.78-1.98.3-4.07-.32-4.43-2.77-.41-2.75.65-9.74,8.78-10.95,6.03-.9,10.64,2.59,11.52,8.48.81,5.46-1.78,8.17-5.65,12.14-.7.73-2.61,2.83-2.55,3.19.02.14.2.12.53.07l6.46-.96Z"/>
    <path class="cls-3" d="M572.96,196.77c.17-.62.8-1.78,2.11-1.98,1.66-.25,2.86.87,3.06,2.24.06.4.04.73-.04,1l-6.94,27.81c-.17.61-.8,1.78-2.1,1.97-1.66.25-2.9-.86-3.09-2.2-.06-.4,0-.78.07-1.04l6.93-27.81Z"/>
    <path class="cls-3" d="M583.91,205.89c-1.66.25-2.81-1.06-3.07-2.79-.39-2.6,1.09-3.08,2.36-3.46.88-.28,2.99-1,3.67-4.09.3-1.45.57-2.6,2.92-2.95,2.35-.35,3.39.93,3.53,1.88l3.82,25.69c.2,1.34.21,3.44-3.25,3.96-2.35.35-4.13.02-4.55-2.79l-2.36-15.9-3.07.46Z"/>
    <path class="cls-3" d="M604.5,216.3c-2.2.33-4.04-1.32-4.41-3.85-.22-1.48.06-2.82.33-3.48l6.62-16.24c.79-1.89,2.28-3.04,4.01-3.29,3-.45,4.22,1.55,4.4,2.82l2.26,15.21c.95-.07,3.03-.23,3.49,2.88.47,3.18-1.53,3.62-2.49,3.84l.4,2.71c.21,1.37.18,3.44-3.25,3.96-2.45.37-3.99-.25-4.37-2.82l-.4-2.71-6.61.98ZM610.36,208.56l-1.08-7.26c-.02-.14-.11-.24-.22-.23-.14.02-.17.1-.23.22l-2.97,7.31c-.08.2-.14.32-.12.42.03.18.14.2.36.17l4.26-.63Z"/>
    <path class="cls-3" d="M650.97,200.59c1.17,7.88-4.25,15.21-12.12,16.38-7.84,1.17-15.19-4.22-16.36-12.14-1.19-7.97,4.31-15.22,12.12-16.38,7.84-1.17,15.18,4.19,16.36,12.14ZM637.81,195.79l-.59-4c-.21-1.38-1.29-1.44-2.4-1.27-1.08.16-1.87.68-1.69,1.88l.59,4-5.98.89c-.63.09-1.86.34-1.57,2.23.28,1.9,1.63,1.69,2.14,1.62l5.98-.89,1.21,8.12-7.09,1.06c-.69.1-1.85.37-1.58,2.2.28,1.89,1.61,1.73,2.15,1.65l18.21-2.71c1.23-.18,1.78-.82,1.56-2.29-.27-1.83-1.69-1.62-2.14-1.56l-7.03,1.05-1.21-8.12,6.07-.9c.63-.09,1.85-.34,1.58-2.2-.29-1.92-1.64-1.72-2.15-1.65l-6.07.9Z"/>
  </g>
</svg>