<?xml version="1.0" encoding="UTF-8"?>
<svg id="Layer_1" data-name="Layer 1" xmlns="http://www.w3.org/2000/svg" xmlns:xlink="http://www.w3.org/1999/xlink" viewBox="0 0 300 206.47">
  <defs>
    <style>
      .cls-1 {
        fill: none;
      }

      .cls-2 {
        fill: #793c1c;
      }

      .cls-3 {
        fill: #773718;
      }

      .cls-4 {
        clip-path: url(#clippath-1);
      }

      .cls-5 {
        opacity: .2;
      }

      .cls-6 {
        clip-path: url(#clippath);
      }
    </style>
    <clipPath id="clippath">
      <rect class="cls-1" x="97.32" y="167.57" width="115.22" height="38.91"/>
    </clipPath>
    <clipPath id="clippath-1">
      <rect class="cls-1" x="0" y="5.36" width="300" height="194.58"/>
    </clipPath>
  </defs>
  <path class="cls-3" d="M258.2,90.64c-5.63,1.86-9.29,5.77-11,11.53-.19.64-.27,1.3-.21,1.96.23,2.25,1.34,2.87,3.05,1.6,3.12-2.33,6.41-3.36,10.32-3.11,4.97.32,8-3.59,6.82-8.17-.43-1.69-1.47-2.93-3.01-3.62-1.94-.9-3.98-.84-5.97-.18"/>
  <path class="cls-3" d="M27.65,23.25c3.38,1.92,7.11,3.14,10.39,5.3,1.27.84,2.12.18,2.01-1.44-.17-2.45-.72-4.84-1.91-7.01-1.64-3.02-3.95-5.29-7.45-5.99-3.06-.61-5.99,1.78-5.98,5.21-.02,1.69,1.3,3,2.94,3.93"/>
  <path class="cls-3" d="M38.06,63.67c.91,7.5,4.13,13.92,10.29,18.29,9.35,6.63,19.62,7.28,30.1,2.93,6.98-2.89,12.43-7.94,17.38-13.54,1.3-1.47,2.55-2.99,3.82-4.49-.03,1.19-.33,2.23-.5,3.29-.3,1.85-.44,3.73.15,5.54,1.3,3.98,4.01,6.48,8.14,7.25,3,.56,5.35-1.09,6.74-4.73,2.13-5.58,4.5-11.03,7.79-16.03,2.02-3.08,4.12-6.11,7.11-8.35.58-.44,1.27-.99,1.95-.43.66.54.14,1.27-.15,1.84-1.24,2.45-2.59,4.84-3.79,7.31-1.92,3.99-3.49,8.07-3.27,12.64.33,6.72,6.28,10.36,12.34,7.5,1.8-.85,3.35-2.03,4.79-3.4,2.13-2.02,3.89-4.37,5.81-6.82.03.44.05.65.06.85.37,6.12,4.86,10.31,10.98,10.38,4.45.05,7.93-2.08,11.15-4.79,5.1-4.29,8.61-9.74,11.34-15.75.23-.51.36-1.11.97-1.33,1.39-.5,2.79-.99,4.48-1.58-1.33,3.56-1.61,7.06-1.31,10.56.44,5.08,2.72,9.09,7.43,11.4,5.13,2.51,10.09,1.53,14.86-1.06,3.68-2,6.61-4.96,9.54-7.89.49-.49.88-1.11,1.68-1.43.13.87.23,1.61.34,2.35.71,5.15,4.9,9.19,10.09,9.49,5.18.3,9.24-1.94,12.84-5.24,4.13-3.77,6.82-8.56,9.33-13.46.42-.83.83-1.36,1.94-1.4,2.9-.08,5.6-.97,7.98-2.68,1.62-1.17,2.98-2.59,3.53-4.59.41-1.48.09-2.82-1.19-3.74-1.27-.92-2.45-.33-3.54.44-.29.2-.55.42-.81.65-1.3,1.18-2.68,2.14-4.64,2.43.89-3.01,1.46-5.93,1.31-8.95-.3-5.98-4-10.23-9.62-10.73-3.09-.27-5.93.78-8.5,2.46-5.67,3.71-9.97,8.75-13.23,14.59-2.34,4.2-5.2,7.97-8.37,11.52-2.42,2.72-5.11,5.17-8.76,6.19-3.51.97-6.49-.63-7.07-3.84-.28-1.53-.31-3.11.08-4.63,1.72-6.9,5.96-12.19,10.99-16.95.36-.34.87-.59,1.35-.75,1.43-.49,2.34.22,2.28,1.73-.05,1.45-.96,2.48-1.78,3.55-.78,1.03-1.73,1.94-2.25,3.15-.8,1.85.19,3.73,2.17,4.16,1.12.25,2.17.02,3.16-.49,2.98-1.52,4.53-4.17,5.44-7.23,1.19-4,.62-7.7-2.33-10.82-3.01-3.19-6.71-3.39-10.62-2.22-3.95,1.17-7.27,3.45-10.31,6.18-2.51,2.25-4.62,4.89-7.01,7.26-1.88,1.87-4.07,3.29-6.69,3.97-.25-.59-.03-1.02.07-1.47.48-2.28.84-4.58.74-6.92-.29-6.56-5.04-10.39-11.5-9.34-3.14.51-5.93,1.82-8.49,3.64-7.1,5.05-12.15,11.79-15.86,19.58-.9,1.89-1.91,3.66-3.2,5.29-1.45,1.83-2.86,3.7-4.93,4.89-.51.29-1.08.74-1.72.28-.55-.4-.58-1.01-.54-1.61.08-1.09.33-2.15.74-3.17,1.27-3.17,3.07-6.05,4.86-8.93,1.61-2.6,3.23-5.19,4.54-7.96,1.01-2.13,1.63-4.34,1.04-6.76-.98-4.01-4.78-6.35-8.8-5.29-3.78,1-6.69,3.44-9.51,5.98-4.44,4.01-8,8.81-11.74,13.44-.68.85-1.42,1.6-2.64,2.25.58-2.68,1.59-4.92,2.68-7.14,3.97-8.02,9.19-15.23,14.33-22.51,2.51-3.57,5.33-6.96,7.16-10.97,1.17-2.56-.08-5.46-2.76-6.32-3.48-1.13-6.57-.12-9.34,1.91-3.54,2.6-6.41,5.86-8.84,9.51-4.57,6.86-8.4,14.16-12.45,21.32-4.87,8.61-10.79,16.33-18.67,22.4-5.03,3.88-10.52,6.58-17.11,6.32-5.45-.22-10.17-3.93-11.54-9.23-.85-3.27-.71-6.56-.15-9.85,1.06-6.21,3.49-11.91,6.57-17.34,5.05-8.92,11.47-16.6,20.42-21.9,2.33-1.38,4.76-2.51,7.47-2.96,2.75-.45,4.43.83,4.64,3.61.1,1.31-.13,2.59-.57,3.81-2.01,5.58-5.49,9.62-11.43,11.28-4.25,1.19-7.75,3.52-9.75,7.6-2.87,5.85,1.21,12.23,7.7,12.11,2.5-.04,4.83-.84,6.87-2.21,10.94-7.34,17.78-17.32,19.12-30.64.65-6.44-2.24-12.01-7.34-14.63C100.47.43,96.48-.14,92.41.03c-8.1.34-15.51,3.07-22.37,7.22-11.37,6.87-19.95,16.39-26.03,28.15-4.58,8.86-7.16,18.19-5.94,28.27M244.83,45.07c1.65-1.42,2.83-1.06,3.44,1.03.24.81.16,1.64.2,2.62-.04,1.98-.58,4.02-1.28,6.03-.39,1.12-.96,1.11-2,.32-3.23-2.46-3.44-7.34-.37-10M235.77,54.97c.55.17.55.46.61.7.77,3.21,2.76,5.38,5.78,6.6,1.1.44,1.28.9.61,1.91-1.22,1.83-2.5,3.6-4,5.2-.58.63-1.24,1.19-1.97,1.63-3.16,1.89-5.34.87-5.56-2.46-.34-5.19,2.13-9.38,4.54-13.58M171.99,49.55c.21-1.85,1-3.47,2.29-4.79.81-.83,1.81-1.53,3.03-1.01,1.19.51,1.11,1.73,1.21,2.51-.23,3.05-1.03,5.64-2.2,8.13-.37.79-.84.73-1.49.42-1.82-.88-3.08-3.14-2.84-5.26M160.26,66.57c.53-3.88,2.17-7.29,4.39-10.93,1.31,3.55,3.65,5.51,6.84,6.5.9.28.79.78.4,1.41-1.56,2.53-3.44,4.79-5.86,6.55-1.38,1.01-2.93,1.54-4.48.6-1.55-.93-1.52-2.5-1.3-4.14"/>
  <path class="cls-3" d="M256.57,163.3c-1.51-2.64-3.98-3.89-6.86-4.4-2.08-.37-4.16-.16-6.19.36-1.34.35-1.64,1.22-.62,2.02,2.64,2.05,4.63,4.74,7.1,6.95,1.21,1.08,2.62,1.79,3.98,1.31,2.77-.92,3.91-3.94,2.58-6.24"/>
  <path class="cls-3" d="M245.43,173.72c-1.64-4.48-5.06-7.17-9.59-9.34-.43-.17-1.25-.56-2.12-.79-.78-.2-1.7-.72-2.4,0-.75.75-.09,1.62.22,2.35,1.47,3.46,2.32,7.03,2.31,10.82,0,1.91.69,3.66,1.99,5.08,1.49,1.63,3.31,2.55,5.58,2,2.35-.58,3.76-2.15,4.36-4.47.49-1.91.33-3.8-.35-5.64"/>
  <path class="cls-3" d="M291.58,133.82c1.35-2.45,2.7-4.9,4.06-7.34,1.55-2.81,3.24-5.55,4.08-8.69,1.11-4.21-1.07-7.62-5.37-8.31-2.51-.4-4.83.35-6.96,1.63-3.71,2.25-6.82,5.21-9.68,8.45-.55.62-1.13,1.22-1.69,1.83.89-2.62,2.08-5.05,1.88-7.86-.12-1.81-.84-2.75-2.6-3.18-2.49-.6-5.07.34-6.61,2.41-1.4,1.89-2.3,4.05-3.36,6.12-2.84,5.52-5.3,11.26-9.25,16.14-1.21,1.49-2.45,2.96-4.15,3.93-1.07.62-1.74.31-2.07-.89-.4-1.46.02-2.8.63-4.05,1-2.04,2.12-4.03,3.23-6.02,1.86-3.34,4.06-6.5,5.65-10,1.81-3.97-.42-7.83-4.76-8.24-2.48-.23-4.2,1.18-5.58,3.06-1.1,1.51-1.83,3.24-2.71,4.89-2.83,5.23-5.15,10.75-8.57,15.66-1.39,2-2.87,3.93-4.82,5.44-.43.34-.92.81-1.53.44-.65-.39-.79-1.08-.69-1.77.22-1.49.63-2.94,1.36-4.27,1.24-2.27,2.53-4.52,3.77-6.79,1.59-2.9,3.43-5.69,4.48-8.86,1.17-3.53-1.32-6.58-4.87-6.06-1.55.23-2.5,1.34-3.38,2.49-3.14-3.17-5.46-4.15-8.84-3.7-2.48.33-4.83,1.11-7.01,2.38-5.05,2.93-8.59,7.28-11.37,12.27-1.73,3.09-3.66,6.01-5.89,8.73-1.44,1.76-2.81,3.6-4.77,4.86-.87.56-1.77,1.24-2.85.54-1.06-.68-1.16-1.81-1.05-2.91.18-1.71.71-3.35,1.54-4.85,4-7.31,8.04-14.61,12.05-21.91.36-.65.81-.86,1.52-.78,1.18.14,2.36.25,3.55.34,6.73.5,13.45.53,20.11-.77,3.91-.76,7.64-2.05,10.1-5.52,1.74-2.46,2.09-5.15,1.04-7.96-.69-1.84-1.98-2.29-3.71-1.39-.87.46-1.72.97-2.49,1.58-6.82,5.36-14.63,6.68-23.01,5.78-.95-.1-1.05-.38-.58-1.13.82-1.32,1.62-2.65,2.39-4,.69-1.19.6-2.35-.19-3.5-2.65-3.84-8.5-4.86-12.29-2.15-2.43,1.74-3.7,4.31-4.9,6.88-.66,1.42-1.47,1.57-2.78,1.27-3.88-.89-7.77-1.75-11.67-2.55-7.3-1.5-14.6-3.06-22.13-2.31-4.88.48-9.26,2.2-12.54,6.06-1.25,1.48-2.54,3.13-1.76,5.18.76,1.99,2.73,2.53,4.65,2.93,3.03.62,5.85-.16,8.63-1.26,4.38-1.74,8.89-2.57,13.63-2.56,6.21.02,12.23,1.25,18.28,2.35,1.21.22.87.75.48,1.48-3.18,5.82-6.26,11.68-9.1,17.67-1.35,2.85-2.87,5.64-4.86,8.11-1.69,2.1-3.48,4.13-5.84,5.52-.59.34-1.25.63-1.87.06-.54-.49-.67-1.13-.51-1.84.25-1.18.71-2.27,1.35-3.29,2.07-3.28,4.16-6.56,6.21-9.86,1.13-1.81,2.02-3.73,2.41-5.85.85-4.67-2.32-8.52-7.04-8.54-1.91,0-3.68.55-5.35,1.42-3.74,1.94-6.81,4.69-9.55,7.84-1.07,1.23-2.06,2.53-3.08,3.79.89-2.29,2.25-4.32,2.87-6.69.71-2.71-.34-4.49-3.1-5-2.35-.43-4.4.2-6.05,2.01-1.87,2.05-3.13,4.49-4.45,6.9-2.48,4.54-4.57,9.3-7.41,13.64-1.37,2.09-2.88,4.06-5,5.47-.71.48-1.51,1.14-2.41.52-.86-.6-.85-1.54-.71-2.53.31-2.27,1.4-4.2,2.52-6.13,2.1-3.64,4.84-6.85,6.83-10.56.93-1.74,1.44-3.57.82-5.53-.83-2.58-2.58-4.24-5.27-4.7-2.74-.47-4.68.94-6.2,3.02-1.44,1.97-2.5,4.17-3.6,6.34-2.26,4.48-4.3,9.08-7.07,13.29-1.46,2.21-2.98,4.36-4.97,6.14-.76.67-1.62,1.25-2.67.77-1.02-.47-.78-1.51-.73-2.35.16-2.58,1.44-4.75,2.79-6.82,2.17-3.34,4.49-6.59,6.75-9.87.83-1.2,1.52-2.46,1.83-3.91.67-3.19-.88-6.26-3.49-6.67-1.78-.28-3.51-.07-5.1.9-1.7,1.04-3.12,2.38-4.37,3.92-1.93,2.37-3.88,4.73-6.1,6.83-1.21,1.14-2.51,2.19-4.27,2.86.1-1.35.15-2.43.27-3.5.81-6.98-3.97-11.96-10.93-11.31-1.12.11-2.25.4-3.32.75-5.28,1.71-9.27,5.2-12.6,9.47-4.79,6.17-8.5,12.84-9.41,20.8-.92,8.08,4.59,14.1,12.64,13.51,4.24-.31,7.78-2.36,10.83-5.26,4.48-4.25,7.46-9.5,9.92-15.08.31-.7.52-1.42,1.38-1.76,1.1-.44,2.14-1.03,3.42-1.66-.65,1.43-1.26,2.69-1.81,3.97-1.43,3.36-2.48,6.81-2.31,10.52.23,4.95,3.77,8.83,8.76,8.41,3.18-.27,5.65-1.86,7.99-3.79,1.32-1.09,2.56-2.27,3.92-3.48.94,5.07,3.13,7.24,7.22,7.31,2.64.05,4.79-1.11,6.76-2.73,1.89-1.54,3.33-3.49,4.97-5.53.07.39.12.57.13.76.28,5.1,3.01,7.71,8.1,7.74,2.87.01,4.11-.81,4.7-3.68,1.05-5.15,3.19-9.83,5.72-14.38,2.31-4.17,4.71-8.29,8.11-11.7.59-.59,1.2-1.14,1.99-1.46.42-.17.8-.18,1.16.13.4.34.29.74.12,1.13-.41.95-.79,1.92-1.26,2.84-1.82,3.61-4.04,6.99-5.67,10.7-1.33,3.04-2.1,6.15-1.81,9.5.33,3.74,3.22,6.45,6.95,6.65,3.55.18,6.25-1.51,8.79-3.66,2.41-2.04,4.36-4.53,6.64-7.03.13.89.24,1.54.32,2.2.93,7.2,7.33,10.57,13.74,7.22,3.28-1.72,5.7-4.43,8.12-7.14.39-.44.68-.99,1.38-1.27.03.6.04,1.06.08,1.52.34,4.25,2.6,7.21,6.19,7.97,2.93.62,5.35-.58,7.65-2.23,1.81-1.3,3.09-3.1,4.76-4.92,0,1.35.31,2.34.67,3.3,1.26,3.34,4.42,4.83,7.79,3.66,1.59-.55,2.98-1.44,4.18-2.62,1.3-1.27,2.58-2.55,3.69-3.99.48-.63.94-.93,1.15.2.06.31.19.59.26.89,1.48,6.19,6.66,6.92,11.13,4.99,2.43-1.05,4.32-2.82,6.07-4.75,1.65-1.82,1.64-1.84,2.48.4,1.23,3.27,3.51,5.16,7.05,5.43,2.13.16,3.47-.53,3.81-2.32,1.27-6.52,4.43-12.24,7.62-17.93,2.03-3.63,4.38-7.05,7.61-9.74.66-.55,1.53-1.63,2.38-.98.94.73.11,1.86-.32,2.67-1.27,2.48-2.71,4.89-4,7.37-2.04,3.94-3.65,7.97-3.47,12.56.13,3.28,1.76,5.96,4.11,7.52,1.8,1.19,2.88,3.21,2.97,5.36.05,1.12.07,2.32.07,3.6,0,4.83-.75,10.48-.6,12.34.13,1.63,1.21,3.35,2.9,3.35,1.43,0,2.99-1.28,3.12-3.35.13-2.07-1.11-8.08-1.11-12.34,0-2.69-.82-7.19,1.35-8.33,4.51-2.38,7.53-5.86,9.3-10.54.11-.29.14-.6.17-.91.11-1.19-.49-1.65-1.59-1.41-.91.2-1.77.6-2.68.78-2.51.49-4.18-1.19-3.71-3.7.22-1.17.6-2.31,1.18-3.36M83.49,134.15c-1.69,2.54-3.37,5.08-5.74,7.06-.83.7-1.75,1.28-2.93,1.32-1.41,0-2.29-.7-2.67-2.09-.7-2.57-.06-5.02.65-7.44.5-1.68,1.33-3.24,2.25-4.74.49-.8.83-1.18,1.38,0,1.27,2.73,3.47,4.28,6.4,4.85.6.12,1.21.21.65,1.05M87.35,124.87c-.25,1.13-.91,1.38-1.95,1.03-1.96-.65-2.98-2.28-2.67-4.5.21-1.56.96-2.83,2.33-3.67,1.48-.91,2.51-.43,2.71,1.28.08.66.01,1.35.01,2.02.11,1.31-.15,2.57-.43,3.84M226.49,120.84c-1.83,5.63-4.49,10.78-8.7,15.03-.72.73-1.57,1.35-2.41,1.95-.53.37-1.12.87-1.84.48-.78-.43-.64-1.22-.66-2.07.2-2.3,1.19-4.47,2.23-6.6,1.92-3.91,4.11-7.66,7.49-10.54.23-.2.47-.42.74-.56.92-.47,1.91-1.08,2.88-.28.87.71.54,1.73.25,2.6"/>
  <path class="cls-3" d="M27.53,47.28c1.6-4.16,4.19-7.05,7.99-9.13,2.07-1.13,1.98-2.59-.15-3.93-.63-.4-1.35-.64-2.09-.76-6.53-1.05-12.14.81-16.66,5.7-1.59,1.72-2.62,3.81-2.65,6.25-.04,1.94.71,3.61,2.18,4.89,4.01,3.47,9.33,2.26,11.37-3.03"/>
  <path class="cls-3" d="M56.84,122.05c-1.96.12-3.91.34-5.87.55-1.11.12-1.72,0-1.17-1.39,2.11-5.36,4.38-10.64,7.66-15.4,2.19-3.19,1.08-2.7,4.71-1.62,8,2.39,16.08,3.97,24.46,2.48,4.77-.85,9.24-2.46,12.58-6.19,2.78-3.1,3.79-6.8,2.58-10.86-.73-2.46-2.94-2.99-4.77-1.18-1.32,1.3-2.71,2.5-4.27,3.51-5.03,3.28-10.67,3.11-16.24,2.61-8.2-.74-16.24-2.51-24.31-4.13-8.91-1.79-17.85-3.05-26.96-1.97-5.91.71-11.48,2.44-15.98,6.52-3.93,3.57-6.41,8.01-5.87,13.45,1.01,10.09,11.42,12.66,18.12,9.42,2.19-1.06,2.54-2.13,1.51-4.37-1.36-2.93-1.12-5.72.7-8.38,1.91-2.78,4.8-4.02,7.87-4.91,4.08-1.17,8.29-1.16,12.48-.89,1.49.1,3.06.06,4.56.74-.79.88-1.53,1.68-2.24,2.49-5.42,6.17-9.03,13.35-11.72,21.03-.34.99-.75,1.48-1.91,1.59-3.35.33-6.44,1.5-9.14,3.57-1.03.79-1.99,1.66-2.68,2.78-.93,1.53-.88,2.94.14,4,1.16,1.18,2.49,1.19,3.83.41,1.03-.59,1.98-1.31,2.96-1.99,1.22-.85,2.48-1.64,4.2-2-1.81,6.74-3.65,13.24-8.09,18.62-1.06,1.29-2.37,2.32-3.91,3-2.36,1.03-4.59.59-6.25-1.2-1.66-1.79-2.04-4.68-.91-6.76.41-.75,1.13-1.49.41-2.4-.67-.86-1.67-1.04-2.67-.9-1.62.22-3.08.86-4.42,1.79-5.94,4.07-7.93,12.07-4.73,18.98.45.97.98,1.87,1.58,2.7.48,1.3.71,3.17.83,5.62.36,7.02-.2,13.53-.46,17.17-.26,3.77,1.66,6.1,3.58,6.04,2.02-.06,3.97-2.34,3.77-5.52-.47-7.65-.77-7.43-1.04-13.2-.26-5.59,1.31-8.66,3.12-7.67.59.32,1.44,1.99,3.13,1.99,1.57,0,1.49-1.08,3.55-2.77,2.56-2.09,4.35.08,4.35,4.29,0,6.41-.88,8.2-.5,10.99.33,2.43,1.7,3.74,2.73,3.84,1.38.14,3.29-.56,3.77-3.25.5-2.8-.51-6.37-.51-10.4,0-2.51,1.06-4.52,2.72-6.43-.01-.01-.02-.02-.03-.03,3.35-3.3,5.74-7.38,7.69-11.81,2.72-6.19,4.09-12.8,5.8-19.3.33-1.27.8-1.61,2.13-1.4,4.9.76,7.74-.82,9.91-5.28.52-1.07,1.02-2.15,1.51-3.24,1.03-2.27.21-3.49-2.33-3.33"/>
  <path class="cls-2" d="M166.96,194.08c.61,1.83.52,3.29-.25,4.38-.84,1.17-2.32,1.74-4.44,1.74h-.25c-1.38.04-2.86.04-4.35.04h-.5c-1.99,0-3.99,0-5.8.07h-.32c-1.69.04-3.6.05-5.57.05-1.56,0-3.18,0-4.78-.02-.11,0-.29.02-.47.02-1.96,0-3.58-.77-4.44-2.08-.83-1.24-.88-2.82-.16-4.48,1.08-2.36,4.08-2.36,5.7-2.36,0,0,1.8.02,1.83.02.22.02.41.03.61.03.88,0,1.51-.22,1.92-.61.92-.93.9-3.02.88-5.03,0-.43-.02-.84,0-1.26.04-2.32-.93-2.48-3.31-2.7-1.08-.09-2.21-.18-3.24-.65-1.19-.56-1.98-1.81-2.16-3.34-.18-1.54.34-3,1.33-3.79.88-.77,2.32-.9,3.72-.97,1.13-.02,2.23-.04,3.32-.04l4.31.02h1.42c.54.05.99.07,1.46.07.75,0,1.55-.05,2.34-.09.86-.05,1.74-.11,2.61-.11,1.73,0,3.92.18,5.55,1.49.07.05.13.13.18.2,1.01,1.33,1.2,3.32.49,4.87-.58,1.28-1.71,2.07-3.07,2.16-.63.11-1.31.13-1.9.14-1.02.02-1.83.02-2.66.52-.81.52-.77,2.5-.74,4.24.02.56.02,1.11,0,1.65.02.59.05,1.33.25,1.89.38.95,1.29,1.29,3.59,1.29h1.48c1.54,0,4.44,0,5.43,2.61"/>
  <path class="cls-2" d="M209.9,198.45c-1.02.97-2.16,1.47-3.33,1.47-2.32,0-4.2-2.03-5.59-3.79-.38-.38-.84-.92-1.35-1.47-1.65-1.9-3.74-4.26-5.57-4.26-.72,0-1.4.36-2.12,1.11-4.22,3.85-8.05,6.49-12.09,8.36-1.06.56-2.14.83-3.18.83-1.9,0-3.52-.94-4.65-2.72-.97-1.26-1.33-2.46-1.1-3.59.36-1.65,1.94-2.7,3.27-3.4,6.33-3.51,13.9-8.42,17.93-15.9.7-1.29-.18-2.88-1.65-2.96-.37-.02-.78-.03-1.25-.03-.99,0-2.07.05-3.14.09-1.13.04-2.25.07-3.31.07-2.61,0-5.16-.2-6.15-1.67-1.58-1.83-1.6-5.46.04-7.35,1.15-1.22,3.34-1.24,5.12-1.26h2.89c1.98,0,3.97-.02,5.84-.07h.97c.72,0,1.55-.02,2.41-.05.99-.04,2.05-.07,3.09-.07,3.13,0,6.94.3,8.75,2.64,1.06,1.35,1.29,3.2.7,5.48-.77,2.7-2.05,5.17-3.31,7.58l-.72,1.4c-.54,1.02-.74,2.48.38,3.56.9.9,1.85,1.76,2.86,2.66,2.44,2.15,4.98,4.4,6.56,7.38.59,1.4.61,3.49-2.32,5.95"/>
  <path class="cls-2" d="M103.14,200.7c-1.9,0-3.52-.93-4.65-2.71-.97-1.26-1.33-2.46-1.1-3.6.36-1.65,1.94-2.69,3.27-3.39,6.5-3.61,14.32-8.7,18.26-16.53.5-1-.2-2.19-1.31-2.29-.5-.04-1.13-.07-1.9-.07-.99,0-2.07.05-3.14.09-1.13.04-6.1.07-7.16.07-2.61,0-5.16-.2-6.15-1.67-1.58-1.83-1.6-5.46.04-7.35,1.15-1.22,3.34-1.24,5.12-1.26h2.89c1.98,0,7.82-.02,9.69-.07h.97c.72,0,1.55-.02,2.41-.05.99-.03,2.05-.07,3.09-.07,3.13,0,6.94.31,8.75,2.64,1.06,1.35,1.29,3.2.7,5.48-.77,2.7-2.05,5.18-3.31,7.58-5.45,9.43-13.97,17.46-23.29,22.37-1.06.56-2.14.83-3.18.83"/>
  <g class="cls-5">
    <g class="cls-6">
      <path class="cls-2" d="M166.96,199.86c.61,1.83.52,3.29-.25,4.38-.84,1.17-2.32,1.74-4.44,1.74h-.25c-1.38.04-2.86.04-4.35.04h-.5c-1.99,0-3.99,0-5.8.07h-.32c-1.69.04-3.6.05-5.57.05-1.56,0-3.18,0-4.78-.02-.11,0-.29.02-.47.02-1.96,0-3.58-.77-4.44-2.08-.83-1.24-.88-2.82-.16-4.48,1.08-2.36,4.08-2.36,5.7-2.36,0,0,1.8.02,1.83.02.22.02.41.03.61.03.88,0,1.51-.22,1.92-.61.92-.93.9-3.02.88-5.03,0-.43-.02-.84,0-1.26.04-2.32-.93-2.48-3.31-2.7-1.08-.09-2.21-.18-3.24-.65-1.19-.56-1.98-1.81-2.16-3.34-.18-1.54.34-3,1.33-3.79.88-.77,2.32-.9,3.72-.97,1.13-.02,2.23-.04,3.32-.04l4.31.02h1.42c.54.05.99.07,1.46.07.75,0,1.55-.05,2.34-.09.86-.05,1.74-.11,2.61-.11,1.73,0,3.92.18,5.55,1.49.07.05.13.13.18.2,1.01,1.33,1.2,3.32.49,4.87-.58,1.28-1.71,2.07-3.07,2.16-.63.11-1.31.13-1.9.14-1.02.02-1.83.02-2.66.52-.81.52-.77,2.5-.74,4.24.02.56.02,1.11,0,1.65.02.59.05,1.33.25,1.89.38.95,1.29,1.29,3.59,1.29h1.48c1.54,0,4.44,0,5.43,2.61"/>
      <path class="cls-2" d="M209.9,204.23c-1.02.97-2.16,1.47-3.33,1.47-2.32,0-4.2-2.03-5.59-3.79-.38-.38-.84-.92-1.35-1.47-1.65-1.9-3.74-4.26-5.57-4.26-.72,0-1.4.36-2.12,1.11-4.22,3.85-8.05,6.49-12.09,8.36-1.06.56-2.14.83-3.18.83-1.9,0-3.52-.94-4.65-2.72-.97-1.26-1.33-2.46-1.1-3.59.36-1.65,1.94-2.7,3.27-3.4,6.33-3.51,13.9-8.42,17.93-15.9.7-1.29-.18-2.88-1.65-2.96-.37-.02-.78-.03-1.25-.03-.99,0-2.07.05-3.14.09-1.13.04-2.25.07-3.31.07-2.61,0-5.16-.2-6.15-1.67-1.58-1.83-1.6-5.46.04-7.35,1.15-1.22,3.34-1.24,5.12-1.26h2.89c1.98,0,3.97-.02,5.84-.07h.97c.72,0,1.55-.02,2.41-.05.99-.04,2.05-.07,3.09-.07,3.13,0,6.94.3,8.75,2.64,1.06,1.35,1.29,3.2.7,5.48-.77,2.7-2.05,5.17-3.31,7.58l-.72,1.4c-.54,1.02-.74,2.48.38,3.56.9.9,1.85,1.76,2.86,2.66,2.44,2.15,4.98,4.4,6.56,7.38.59,1.4.61,3.49-2.32,5.95"/>
      <path class="cls-2" d="M103.14,206.47c-1.9,0-3.52-.93-4.65-2.71-.97-1.26-1.33-2.46-1.1-3.6.36-1.65,1.94-2.69,3.27-3.39,6.5-3.61,14.32-8.7,18.26-16.53.5-1-.2-2.19-1.31-2.29-.5-.04-1.13-.07-1.9-.07-.99,0-2.07.05-3.14.09-1.13.04-6.1.07-7.16.07-2.61,0-5.16-.2-6.15-1.67-1.58-1.83-1.6-5.46.04-7.35,1.15-1.22,3.34-1.24,5.12-1.26h2.89c1.98,0,7.82-.02,9.69-.07h.97c.72,0,1.55-.02,2.41-.05.99-.03,2.05-.07,3.09-.07,3.13,0,6.94.31,8.75,2.64,1.06,1.35,1.29,3.2.7,5.48-.77,2.7-2.05,5.18-3.31,7.58-5.45,9.43-13.97,17.46-23.29,22.37-1.06.56-2.14.83-3.18.83"/>
    </g>
  </g>
  <g class="cls-5">
    <g class="cls-4">
      <path class="cls-3" d="M258.2,96c-5.63,1.86-9.29,5.77-11,11.53-.19.64-.27,1.3-.21,1.96.23,2.25,1.34,2.87,3.05,1.6,3.12-2.33,6.41-3.36,10.32-3.11,4.97.32,8-3.59,6.82-8.17-.43-1.69-1.47-2.93-3.01-3.62-1.94-.89-3.98-.84-5.97-.18"/>
      <path class="cls-3" d="M27.65,28.61c3.38,1.92,7.11,3.14,10.39,5.3,1.27.84,2.12.18,2.01-1.44-.17-2.45-.72-4.84-1.91-7.01-1.64-3.02-3.95-5.29-7.45-5.99-3.06-.61-5.99,1.78-5.98,5.21-.02,1.69,1.3,3,2.94,3.93"/>
      <path class="cls-3" d="M38.06,69.03c.91,7.5,4.13,13.92,10.29,18.29,9.35,6.63,19.62,7.28,30.1,2.93,6.98-2.89,12.43-7.94,17.38-13.54,1.3-1.47,2.55-2.99,3.82-4.49-.03,1.19-.33,2.23-.5,3.29-.3,1.85-.44,3.73.15,5.54,1.3,3.98,4.01,6.48,8.14,7.25,3,.56,5.35-1.09,6.74-4.73,2.13-5.58,4.5-11.03,7.79-16.03,2.02-3.08,4.12-6.11,7.11-8.35.58-.44,1.27-.99,1.95-.43.66.54.14,1.27-.15,1.84-1.24,2.45-2.59,4.84-3.79,7.31-1.92,3.99-3.49,8.07-3.27,12.64.33,6.72,6.28,10.36,12.34,7.5,1.8-.85,3.35-2.03,4.79-3.4,2.13-2.02,3.89-4.37,5.81-6.82.03.44.05.65.06.85.37,6.12,4.86,10.31,10.98,10.38,4.45.05,7.93-2.08,11.15-4.79,5.1-4.29,8.61-9.74,11.34-15.75.23-.51.36-1.11.97-1.33,1.39-.5,2.79-.99,4.48-1.58-1.33,3.56-1.61,7.06-1.31,10.56.44,5.08,2.72,9.09,7.43,11.4,5.13,2.51,10.09,1.53,14.86-1.06,3.68-2,6.61-4.96,9.54-7.89.49-.49.88-1.11,1.68-1.43.13.87.23,1.61.34,2.35.71,5.15,4.9,9.19,10.09,9.49,5.18.3,9.24-1.94,12.84-5.24,4.13-3.77,6.82-8.56,9.33-13.46.42-.83.83-1.36,1.94-1.4,2.9-.08,5.6-.97,7.98-2.68,1.62-1.17,2.98-2.59,3.53-4.59.41-1.48.09-2.82-1.19-3.74-1.27-.92-2.45-.33-3.54.44-.29.2-.55.42-.81.65-1.3,1.18-2.68,2.14-4.64,2.43.89-3.01,1.46-5.93,1.31-8.95-.3-5.98-4-10.23-9.62-10.73-3.09-.27-5.93.78-8.5,2.46-5.67,3.71-9.97,8.75-13.23,14.59-2.34,4.2-5.2,7.97-8.37,11.52-2.42,2.72-5.11,5.17-8.76,6.19-3.51.97-6.49-.63-7.07-3.84-.28-1.53-.31-3.11.08-4.63,1.72-6.9,5.96-12.19,10.99-16.95.36-.34.87-.59,1.35-.75,1.43-.49,2.34.22,2.28,1.73-.05,1.45-.96,2.48-1.78,3.55-.78,1.03-1.73,1.94-2.25,3.15-.8,1.85.19,3.73,2.17,4.16,1.12.25,2.17.02,3.16-.49,2.98-1.52,4.53-4.17,5.44-7.23,1.19-4,.62-7.7-2.33-10.82-3.01-3.19-6.71-3.39-10.62-2.22-3.95,1.17-7.27,3.45-10.31,6.18-2.51,2.25-4.62,4.89-7.01,7.26-1.88,1.87-4.07,3.29-6.69,3.97-.25-.59-.03-1.02.07-1.47.48-2.28.84-4.58.74-6.92-.29-6.56-5.04-10.39-11.5-9.34-3.14.51-5.93,1.82-8.49,3.64-7.1,5.05-12.15,11.79-15.86,19.58-.9,1.89-1.91,3.66-3.2,5.29-1.45,1.83-2.86,3.7-4.93,4.89-.51.29-1.08.74-1.72.28-.55-.4-.58-1.01-.54-1.61.08-1.09.33-2.15.74-3.17,1.27-3.17,3.07-6.05,4.86-8.93,1.61-2.6,3.23-5.19,4.54-7.96,1.01-2.13,1.63-4.34,1.04-6.76-.98-4.01-4.78-6.35-8.8-5.29-3.78,1-6.69,3.44-9.51,5.98-4.44,4.01-8,8.81-11.74,13.44-.68.85-1.42,1.6-2.64,2.25.58-2.68,1.59-4.92,2.68-7.13,3.97-8.02,9.19-15.23,14.33-22.51,2.51-3.57,5.33-6.96,7.16-10.97,1.17-2.56-.08-5.46-2.76-6.32-3.48-1.13-6.57-.12-9.34,1.91-3.54,2.6-6.41,5.86-8.84,9.51-4.57,6.86-8.4,14.16-12.45,21.32-4.87,8.61-10.79,16.33-18.67,22.4-5.03,3.88-10.52,6.58-17.11,6.32-5.45-.22-10.17-3.93-11.54-9.23-.85-3.27-.71-6.56-.15-9.85,1.06-6.21,3.49-11.91,6.57-17.34,5.05-8.92,11.47-16.6,20.42-21.9,2.33-1.38,4.76-2.51,7.47-2.96,2.75-.45,4.43.83,4.64,3.61.1,1.31-.13,2.59-.57,3.81-2.01,5.58-5.49,9.62-11.43,11.28-4.25,1.19-7.75,3.52-9.75,7.6-2.87,5.85,1.21,12.23,7.7,12.12,2.5-.05,4.83-.84,6.87-2.21,10.94-7.34,17.78-17.32,19.12-30.64.65-6.44-2.24-12.01-7.34-14.63-3.7-1.89-7.69-2.46-11.76-2.29-8.1.34-15.51,3.07-22.37,7.22-11.37,6.87-19.95,16.39-26.03,28.15-4.58,8.86-7.16,18.19-5.94,28.27M244.83,50.44c1.65-1.42,2.83-1.06,3.44,1.03.24.81.16,1.64.2,2.62-.04,1.98-.58,4.02-1.28,6.03-.39,1.12-.96,1.11-2,.32-3.23-2.46-3.44-7.34-.37-10M235.77,60.34c.55.17.55.46.61.7.77,3.21,2.76,5.38,5.78,6.6,1.1.44,1.28.9.61,1.91-1.22,1.83-2.5,3.6-4,5.2-.58.63-1.24,1.19-1.97,1.63-3.16,1.89-5.34.87-5.56-2.46-.34-5.19,2.13-9.38,4.54-13.58M171.99,54.92c.21-1.85,1-3.47,2.29-4.79.81-.83,1.81-1.53,3.03-1.01,1.19.51,1.11,1.73,1.21,2.51-.23,3.05-1.03,5.64-2.2,8.13-.37.79-.84.73-1.49.42-1.82-.88-3.08-3.14-2.84-5.26M160.26,71.93c.53-3.88,2.17-7.29,4.39-10.93,1.31,3.55,3.65,5.51,6.84,6.5.9.28.79.78.4,1.41-1.56,2.53-3.44,4.79-5.86,6.55-1.38,1.01-2.93,1.54-4.48.6-1.55-.93-1.52-2.5-1.3-4.14"/>
      <path class="cls-3" d="M256.57,168.66c-1.51-2.64-3.98-3.89-6.86-4.4-2.08-.37-4.16-.16-6.19.36-1.34.35-1.64,1.22-.62,2.02,2.64,2.05,4.63,4.74,7.1,6.95,1.21,1.08,2.62,1.79,3.98,1.31,2.77-.92,3.91-3.94,2.58-6.24"/>
      <path class="cls-3" d="M245.43,179.08c-1.64-4.48-5.06-7.17-9.59-9.34-.43-.17-1.25-.56-2.12-.79-.78-.2-1.7-.72-2.4,0-.75.75-.09,1.62.22,2.35,1.47,3.46,2.32,7.03,2.31,10.82,0,1.91.69,3.66,1.99,5.08,1.49,1.63,3.31,2.55,5.58,2,2.35-.58,3.76-2.15,4.36-4.47.49-1.91.33-3.8-.35-5.64"/>
      <path class="cls-3" d="M291.58,139.18c1.35-2.45,2.7-4.9,4.06-7.34,1.55-2.81,3.24-5.55,4.08-8.69,1.11-4.21-1.07-7.62-5.37-8.31-2.51-.4-4.83.35-6.96,1.63-3.71,2.25-6.82,5.21-9.68,8.45-.55.62-1.13,1.22-1.69,1.83.89-2.62,2.08-5.05,1.88-7.86-.12-1.81-.84-2.75-2.6-3.18-2.49-.6-5.07.34-6.61,2.41-1.4,1.89-2.3,4.05-3.36,6.12-2.84,5.52-5.3,11.26-9.25,16.14-1.21,1.49-2.45,2.96-4.15,3.93-1.07.62-1.74.31-2.07-.89-.4-1.46.02-2.8.63-4.05,1-2.04,2.12-4.03,3.23-6.02,1.86-3.34,4.06-6.5,5.65-10,1.81-3.97-.42-7.83-4.76-8.24-2.48-.23-4.2,1.18-5.58,3.06-1.1,1.51-1.83,3.24-2.71,4.89-2.83,5.23-5.15,10.75-8.57,15.66-1.39,2-2.87,3.93-4.82,5.44-.43.34-.92.81-1.53.44-.65-.39-.79-1.08-.69-1.77.22-1.49.63-2.94,1.36-4.27,1.24-2.27,2.53-4.52,3.77-6.79,1.59-2.9,3.43-5.69,4.48-8.86,1.17-3.53-1.32-6.58-4.87-6.06-1.55.23-2.5,1.34-3.38,2.49-3.14-3.17-5.46-4.14-8.84-3.7-2.48.33-4.83,1.11-7.01,2.38-5.05,2.93-8.59,7.28-11.37,12.27-1.73,3.09-3.66,6.01-5.89,8.73-1.44,1.76-2.81,3.6-4.77,4.86-.87.56-1.77,1.24-2.85.54-1.06-.68-1.16-1.81-1.05-2.91.18-1.71.71-3.35,1.54-4.85,4-7.31,8.04-14.61,12.05-21.91.36-.65.81-.86,1.52-.78,1.18.14,2.36.25,3.55.34,6.73.5,13.45.53,20.11-.77,3.91-.76,7.64-2.05,10.1-5.52,1.74-2.46,2.09-5.15,1.04-7.96-.69-1.84-1.98-2.29-3.71-1.39-.87.46-1.72.97-2.49,1.58-6.82,5.36-14.63,6.68-23.01,5.78-.95-.1-1.05-.38-.58-1.13.82-1.32,1.62-2.65,2.39-4,.69-1.19.6-2.35-.19-3.5-2.65-3.84-8.5-4.86-12.29-2.15-2.43,1.74-3.7,4.31-4.9,6.88-.66,1.42-1.47,1.57-2.78,1.27-3.88-.89-7.77-1.75-11.67-2.55-7.3-1.5-14.6-3.06-22.13-2.31-4.88.48-9.26,2.2-12.54,6.06-1.25,1.48-2.54,3.13-1.76,5.18.76,1.99,2.73,2.53,4.65,2.93,3.03.62,5.85-.16,8.63-1.26,4.38-1.74,8.89-2.57,13.63-2.56,6.21.02,12.23,1.25,18.28,2.35,1.21.22.87.75.48,1.48-3.18,5.82-6.26,11.68-9.1,17.67-1.35,2.85-2.87,5.64-4.86,8.11-1.69,2.1-3.48,4.13-5.84,5.52-.59.34-1.25.63-1.87.06-.54-.49-.67-1.13-.51-1.84.25-1.18.71-2.27,1.35-3.29,2.07-3.28,4.16-6.56,6.21-9.86,1.13-1.81,2.02-3.73,2.41-5.85.85-4.67-2.32-8.52-7.04-8.54-1.91,0-3.68.55-5.35,1.42-3.74,1.94-6.81,4.69-9.55,7.84-1.07,1.23-2.06,2.53-3.08,3.79.89-2.29,2.25-4.32,2.87-6.69.71-2.71-.34-4.49-3.1-5-2.35-.43-4.4.2-6.05,2.01-1.87,2.05-3.13,4.49-4.45,6.9-2.48,4.54-4.57,9.3-7.41,13.64-1.37,2.09-2.88,4.06-5,5.47-.71.48-1.51,1.14-2.41.52-.86-.6-.85-1.54-.71-2.53.31-2.27,1.4-4.2,2.52-6.13,2.1-3.64,4.84-6.85,6.83-10.56.93-1.74,1.44-3.57.82-5.53-.83-2.58-2.58-4.24-5.27-4.7-2.74-.47-4.68.94-6.2,3.02-1.44,1.97-2.5,4.17-3.6,6.34-2.26,4.48-4.3,9.08-7.07,13.29-1.46,2.21-2.98,4.36-4.97,6.14-.76.67-1.62,1.25-2.67.77-1.02-.47-.78-1.51-.73-2.35.16-2.58,1.44-4.75,2.79-6.82,2.17-3.34,4.49-6.59,6.75-9.87.83-1.2,1.52-2.46,1.83-3.91.67-3.19-.88-6.26-3.49-6.67-1.78-.28-3.51-.07-5.1.9-1.7,1.04-3.12,2.38-4.37,3.92-1.93,2.37-3.88,4.73-6.1,6.83-1.21,1.14-2.51,2.19-4.27,2.86.1-1.35.15-2.43.27-3.5.81-6.98-3.97-11.96-10.93-11.31-1.12.11-2.25.4-3.32.75-5.28,1.71-9.27,5.2-12.6,9.47-4.79,6.17-8.5,12.84-9.41,20.8-.92,8.08,4.59,14.1,12.64,13.51,4.24-.31,7.78-2.36,10.83-5.26,4.48-4.25,7.46-9.5,9.92-15.08.31-.7.52-1.42,1.38-1.76,1.1-.44,2.14-1.03,3.42-1.66-.65,1.43-1.26,2.69-1.81,3.97-1.43,3.36-2.48,6.81-2.31,10.52.23,4.95,3.77,8.83,8.76,8.41,3.18-.27,5.65-1.86,7.99-3.79,1.32-1.09,2.56-2.27,3.92-3.48.94,5.07,3.13,7.24,7.22,7.31,2.64.05,4.79-1.11,6.76-2.73,1.89-1.54,3.33-3.49,4.97-5.53.07.39.12.57.13.76.28,5.1,3.01,7.71,8.1,7.74,2.87.01,4.11-.81,4.7-3.68,1.05-5.15,3.19-9.83,5.72-14.38,2.31-4.17,4.71-8.29,8.11-11.7.59-.59,1.2-1.14,1.99-1.46.42-.17.8-.18,1.16.13.4.34.29.74.12,1.13-.41.95-.79,1.92-1.26,2.84-1.82,3.61-4.04,6.99-5.67,10.7-1.33,3.04-2.1,6.15-1.81,9.5.33,3.74,3.22,6.45,6.95,6.65,3.55.18,6.25-1.51,8.79-3.66,2.41-2.04,4.36-4.53,6.64-7.03.13.89.24,1.54.32,2.2.93,7.2,7.33,10.57,13.74,7.22,3.28-1.72,5.7-4.43,8.12-7.14.39-.44.68-.99,1.38-1.27.03.6.04,1.06.08,1.52.34,4.25,2.6,7.21,6.19,7.97,2.93.62,5.35-.58,7.65-2.23,1.81-1.3,3.09-3.1,4.76-4.92,0,1.35.31,2.34.67,3.3,1.26,3.34,4.42,4.83,7.79,3.66,1.59-.55,2.98-1.44,4.18-2.62,1.3-1.27,2.58-2.55,3.69-3.99.48-.63.94-.93,1.15.2.06.3.19.59.26.89,1.48,6.19,6.66,6.92,11.13,4.99,2.43-1.05,4.32-2.82,6.07-4.75,1.65-1.82,1.64-1.84,2.48.4,1.23,3.27,3.51,5.16,7.05,5.43,2.13.16,3.47-.53,3.81-2.32,1.27-6.52,4.43-12.24,7.62-17.93,2.03-3.63,4.38-7.05,7.61-9.74.66-.55,1.53-1.63,2.38-.98.94.73.11,1.86-.32,2.67-1.27,2.48-2.71,4.89-4,7.37-2.04,3.94-3.65,7.97-3.47,12.56.13,3.28,1.76,5.96,4.11,7.52,1.8,1.19,2.88,3.21,2.97,5.36.05,1.12.07,2.32.07,3.6,0,4.83-.75,10.48-.6,12.34.13,1.63,1.21,3.35,2.9,3.35,1.43,0,2.99-1.28,3.12-3.35.13-2.07-1.11-8.08-1.11-12.34,0-2.69-.82-7.19,1.35-8.33,4.51-2.38,7.53-5.86,9.3-10.54.11-.29.14-.6.17-.91.11-1.19-.49-1.65-1.59-1.41-.91.2-1.77.6-2.68.78-2.51.49-4.18-1.19-3.71-3.7.22-1.17.6-2.31,1.18-3.36M83.49,139.52c-1.69,2.54-3.37,5.08-5.74,7.06-.83.7-1.75,1.28-2.93,1.32-1.41,0-2.29-.7-2.67-2.09-.7-2.57-.06-5.02.65-7.44.5-1.68,1.33-3.24,2.25-4.74.49-.8.83-1.18,1.38,0,1.27,2.73,3.47,4.28,6.4,4.85.6.12,1.21.21.65,1.05M87.35,130.23c-.25,1.13-.91,1.38-1.95,1.03-1.96-.65-2.98-2.28-2.67-4.5.21-1.56.96-2.83,2.33-3.67,1.48-.91,2.51-.43,2.71,1.28.08.66.01,1.35.01,2.02.11,1.31-.15,2.57-.43,3.84M226.49,126.21c-1.83,5.63-4.49,10.78-8.7,15.03-.72.73-1.57,1.35-2.41,1.95-.53.37-1.12.87-1.84.48-.78-.43-.64-1.22-.66-2.07.2-2.3,1.19-4.47,2.23-6.6,1.92-3.91,4.11-7.66,7.49-10.54.23-.2.47-.42.74-.56.92-.47,1.91-1.08,2.88-.28.87.71.54,1.73.25,2.6"/>
      <path class="cls-3" d="M27.53,52.64c1.6-4.16,4.19-7.05,7.99-9.13,2.07-1.13,1.98-2.59-.15-3.93-.63-.4-1.35-.64-2.09-.76-6.53-1.05-12.14.81-16.66,5.7-1.59,1.72-2.62,3.81-2.65,6.25-.04,1.94.71,3.61,2.18,4.89,4.01,3.47,9.33,2.26,11.37-3.03"/>
      <path class="cls-3" d="M56.84,127.41c-1.96.12-3.91.34-5.87.55-1.11.12-1.72,0-1.17-1.39,2.11-5.36,4.38-10.64,7.66-15.4,2.19-3.19,1.08-2.7,4.71-1.62,8,2.39,16.08,3.97,24.46,2.48,4.77-.85,9.24-2.46,12.58-6.19,2.78-3.1,3.79-6.8,2.58-10.86-.73-2.46-2.94-2.99-4.77-1.18-1.32,1.3-2.71,2.5-4.27,3.51-5.03,3.28-10.67,3.11-16.24,2.61-8.2-.74-16.24-2.51-24.31-4.13-8.91-1.79-17.85-3.05-26.96-1.97-5.91.71-11.48,2.44-15.98,6.52-3.93,3.57-6.41,8.01-5.87,13.45,1.01,10.09,11.42,12.66,18.12,9.42,2.19-1.06,2.54-2.13,1.51-4.37-1.36-2.93-1.12-5.72.7-8.38,1.91-2.78,4.8-4.02,7.87-4.91,4.08-1.17,8.29-1.16,12.48-.89,1.49.1,3.06.06,4.56.74-.79.88-1.53,1.68-2.24,2.49-5.42,6.17-9.03,13.34-11.72,21.03-.34.99-.75,1.48-1.91,1.59-3.35.33-6.44,1.5-9.14,3.57-1.03.79-1.99,1.66-2.68,2.78-.93,1.53-.88,2.94.14,4,1.16,1.18,2.49,1.19,3.83.41,1.03-.59,1.98-1.31,2.96-1.99,1.22-.85,2.48-1.64,4.2-2-1.81,6.74-3.65,13.24-8.09,18.62-1.06,1.29-2.37,2.32-3.91,3-2.36,1.03-4.59.59-6.25-1.2-1.66-1.79-2.04-4.68-.91-6.76.41-.75,1.13-1.49.41-2.4-.67-.86-1.67-1.04-2.67-.9-1.62.22-3.08.86-4.42,1.79-5.94,4.07-7.93,12.07-4.73,18.98.45.97.98,1.87,1.58,2.7.48,1.3.71,3.17.83,5.62.36,7.02-.2,13.53-.46,17.17-.26,3.77,1.66,6.1,3.58,6.04,2.02-.06,3.97-2.34,3.77-5.52-.47-7.65-.77-7.43-1.04-13.2-.26-5.59,1.31-8.66,3.12-7.67.59.32,1.44,1.99,3.13,1.99,1.57,0,1.49-1.08,3.55-2.77,2.56-2.09,4.35.08,4.35,4.29,0,6.41-.88,8.2-.5,10.99.33,2.43,1.7,3.74,2.73,3.84,1.38.14,3.29-.56,3.77-3.25.5-2.8-.51-6.37-.51-10.4,0-2.51,1.06-4.52,2.72-6.43-.01-.01-.02-.02-.03-.03,3.35-3.3,5.74-7.38,7.69-11.81,2.72-6.19,4.09-12.8,5.8-19.3.33-1.27.8-1.61,2.13-1.4,4.9.76,7.74-.81,9.91-5.28.52-1.07,1.02-2.15,1.51-3.24,1.03-2.27.21-3.49-2.33-3.33"/>
    </g>
  </g>
</svg>