<?xml version="1.0" encoding="UTF-8"?>
<svg id="Layer_1" data-name="Layer 1" xmlns="http://www.w3.org/2000/svg" viewBox="0 0 12.52 2137.11">
  <defs>
    <style>
      .cls-1 {
        fill: #fbf9f0;
      }
    </style>
  </defs>
  <path class="cls-1" d="M11.51,0v2.84C11.51,20.05,0,20.06,0,37.26s11.51,17.21,11.51,34.41S0,88.88,0,106.08s11.51,17.21,11.51,34.41S0,157.69,0,174.9s11.51,17.2,11.51,34.41S0,226.52,0,243.72s11.51,17.2,11.51,34.4S0,295.33,0,312.53s11.51,17.2,11.51,34.4S0,364.12,0,381.33s11.51,17.2,11.51,34.41S0,432.94,0,450.15s11.51,17.2,11.51,34.41-11.51,17.2-11.51,34.41,11.51,17.21,11.51,34.41-11.51,17.2-11.51,34.4,11.51,17.21,11.51,34.41-11.51,17.2-11.51,34.4,11.51,17.19,11.51,34.4-11.51,17.21-11.51,34.41,11.51,17.2,11.51,34.4-11.51,17.19-11.51,34.4,11.51,17.21,11.51,34.41-11.51,17.2-11.51,34.4,11.51,17.19,11.51,34.4-11.51,17.21-11.51,34.41,11.51,17.18,11.51,34.39-11.51,17.21-11.51,34.41,11.51,17.2,11.51,34.4c0,11.73-5.35,15.46-8.75,22.1h-.04c-1.59,3.09-2.72,6.53-2.72,10.57,0,.3.01.58.02.86,0,.29-.02.57-.02.86,0,4.04,1.13,7.48,2.72,10.57h.04c3.4,6.64,8.75,10.37,8.75,22.1,0,17.2-11.51,17.2-11.51,34.4s11.51,17.2,11.51,34.41-11.51,17.19-11.51,34.39,11.51,17.2,11.51,34.41-11.51,17.2-11.51,34.4,11.51,17.2,11.51,34.4-11.51,17.2-11.51,34.41,11.51,17.2,11.51,34.4-11.51,17.2-11.51,34.4,11.51,17.2,11.51,34.41-11.51,17.2-11.51,34.4,11.51,17.2,11.51,34.4-11.51,17.21-11.51,34.41,11.51,17.2,11.51,34.4-11.51,17.2-11.51,34.41,11.51,17.2,11.51,34.41-11.51,17.2-11.51,34.41,11.51,17.2,11.51,34.41-11.51,17.2-11.51,34.41,11.51,17.2,11.51,34.4-11.51,17.2-11.51,34.4,11.51,17.21,11.51,34.41-11.51,17.2-11.51,34.4,11.51,17.2,11.51,34.41-11.51,17.2-11.51,34.41,11.51,17.21,11.51,34.41-11.51,17.21-11.51,34.41,11.51,17.21,11.51,34.41-11.51,17.21-11.51,34.41,11.51,17.21,11.51,34.42v2.84h1.01V0h-1.01Z"/>
</svg>