<?xml version="1.0" encoding="UTF-8"?>
<svg id="Layer_1" data-name="Layer 1" xmlns="http://www.w3.org/2000/svg" viewBox="0 0 12.52 2137.11">
  <defs>
    <style>
      .cls-1 {
        fill: #fbf9f0;
      }
    </style>
  </defs>
  <path class="cls-1" d="M1.01,0v2.84c0,17.21,11.51,17.22,11.51,34.42,0,17.2-11.51,17.21-11.51,34.41,0,17.2,11.51,17.21,11.51,34.41,0,17.2-11.51,17.21-11.51,34.41,0,17.2,11.51,17.2,11.51,34.41S1.01,192.1,1.01,209.31s11.51,17.21,11.51,34.41c0,17.2-11.51,17.2-11.51,34.4,0,17.2,11.51,17.21,11.51,34.41,0,17.2-11.51,17.2-11.51,34.4,0,17.2,11.51,17.19,11.51,34.4s-11.51,17.2-11.51,34.41,11.51,17.2,11.51,34.41c0,17.21-11.51,17.2-11.51,34.41s11.51,17.2,11.51,34.41-11.51,17.21-11.51,34.41c0,17.2,11.51,17.2,11.51,34.4,0,17.2-11.51,17.21-11.51,34.41,0,17.2,11.51,17.2,11.51,34.4,0,17.2-11.51,17.19-11.51,34.4s11.51,17.21,11.51,34.41c0,17.2-11.51,17.2-11.51,34.4,0,17.2,11.51,17.19,11.51,34.4,0,17.21-11.51,17.21-11.51,34.41,0,17.2,11.51,17.2,11.51,34.4,0,17.2-11.51,17.19-11.51,34.4s11.51,17.21,11.51,34.41c0,17.2-11.51,17.18-11.51,34.39s11.51,17.21,11.51,34.41c0,17.2-11.51,17.2-11.51,34.4,0,11.73,5.35,15.46,8.75,22.1h.04c1.59,3.09,2.72,6.53,2.72,10.57,0,.3-.01.58-.02.86,0,.29.02.57.02.86,0,4.04-1.13,7.48-2.72,10.57h-.04c-3.4,6.64-8.75,10.37-8.75,22.1,0,17.2,11.51,17.2,11.51,34.4,0,17.2-11.51,17.2-11.51,34.41s11.51,17.19,11.51,34.39c0,17.2-11.51,17.2-11.51,34.41,0,17.21,11.51,17.2,11.51,34.4,0,17.2-11.51,17.2-11.51,34.4,0,17.2,11.51,17.2,11.51,34.41s-11.51,17.2-11.51,34.4c0,17.2,11.51,17.2,11.51,34.4,0,17.2-11.51,17.2-11.51,34.41s11.51,17.2,11.51,34.4c0,17.2-11.51,17.2-11.51,34.4,0,17.2,11.51,17.21,11.51,34.41,0,17.2-11.51,17.2-11.51,34.4,0,17.2,11.51,17.2,11.51,34.41s-11.51,17.2-11.51,34.41c0,17.21,11.51,17.2,11.51,34.41,0,17.21-11.51,17.2-11.51,34.41s11.51,17.2,11.51,34.41c0,17.21-11.51,17.2-11.51,34.4,0,17.2,11.51,17.2,11.51,34.4,0,17.2-11.51,17.21-11.51,34.41,0,17.2,11.51,17.2,11.51,34.4,0,17.2-11.51,17.2-11.51,34.41s11.51,17.2,11.51,34.41c0,17.21-11.51,17.21-11.51,34.41,0,17.2,11.51,17.21,11.51,34.41,0,17.2-11.51,17.21-11.51,34.41,0,17.2,11.51,17.21,11.51,34.41,0,17.2-11.51,17.21-11.51,34.42v2.84H0v-1057.12s0-22.87,0-22.87V0h1.01Z"/>
</svg>