<?xml version="1.0" encoding="UTF-8"?>
<svg id="Layer_1" data-name="Layer 1" xmlns="http://www.w3.org/2000/svg" viewBox="0 0 12.51 1080">
  <defs>
    <style>
      .cls-1 {
        fill: #fbf9f0;
      }
    </style>
  </defs>
  <path class="cls-1" d="M2.72,0C1.13,3.09,0,6.53,0,10.57c0,17.2,11.51,17.2,11.51,34.4S0,62.17,0,79.37s11.51,17.2,11.51,34.41S0,130.97,0,148.17s11.51,17.2,11.51,34.41S0,199.78,0,216.98s11.51,17.2,11.51,34.4S0,268.58,0,285.79s11.51,17.2,11.51,34.4S0,337.39,0,354.59s11.51,17.2,11.51,34.41S0,406.2,0,423.4s11.51,17.2,11.51,34.4S0,475.01,0,492.21s11.51,17.2,11.51,34.4-11.51,17.2-11.51,34.41,11.51,17.2,11.51,34.41-11.51,17.2-11.51,34.41,11.51,17.2,11.51,34.41-11.51,17.2-11.51,34.41,11.51,17.2,11.51,34.4-11.51,17.2-11.51,34.4,11.51,17.21,11.51,34.41-11.51,17.2-11.51,34.4,11.51,17.2,11.51,34.41-11.51,17.2-11.51,34.41,11.51,17.21,11.51,34.41-11.51,17.21-11.51,34.41,11.51,17.21,11.51,34.41-11.51,17.21-11.51,34.41,11.51,17.21,11.51,34.42c0,1,0,1.94,0,2.84h1.01V0H2.72Z"/>
</svg>