<?xml version="1.0" encoding="UTF-8"?>
<svg id="Layer_1" data-name="Layer 1" xmlns="http://www.w3.org/2000/svg" viewBox="0 0 12.51 1080">
  <defs>
    <style>
      .cls-1 {
        fill: #fbf9f0;
      }
    </style>
  </defs>
  <path class="cls-1" d="M9.8,0c1.59,3.09,2.72,6.53,2.72,10.57,0,17.2-11.51,17.2-11.51,34.4,0,17.2,11.51,17.2,11.51,34.4,0,17.2-11.51,17.2-11.51,34.41,0,17.2,11.51,17.2,11.51,34.4,0,17.2-11.51,17.2-11.51,34.41,0,17.2,11.51,17.2,11.51,34.4,0,17.2-11.51,17.2-11.51,34.4,0,17.2,11.51,17.2,11.51,34.4s-11.51,17.2-11.51,34.4c0,17.2,11.51,17.2,11.51,34.4,0,17.2-11.51,17.2-11.51,34.41,0,17.2,11.51,17.2,11.51,34.4,0,17.2-11.51,17.2-11.51,34.4,0,17.2,11.51,17.2,11.51,34.4s-11.51,17.2-11.51,34.4c0,17.2,11.51,17.2,11.51,34.41,0,17.2-11.51,17.2-11.51,34.41,0,17.2,11.51,17.2,11.51,34.41s-11.51,17.2-11.51,34.41c0,17.2,11.51,17.2,11.51,34.41,0,17.2-11.51,17.2-11.51,34.4,0,17.2,11.51,17.2,11.51,34.4,0,17.21-11.51,17.21-11.51,34.41s11.51,17.2,11.51,34.4c0,17.2-11.51,17.2-11.51,34.41,0,17.2,11.51,17.2,11.51,34.41s-11.51,17.21-11.51,34.41c0,17.21,11.51,17.21,11.51,34.41,0,17.21-11.51,17.21-11.51,34.41s11.51,17.21,11.51,34.41c0,17.21-11.51,17.21-11.51,34.42,0,1,0,1.94,0,2.84H0V0h9.8Z"/>
</svg>