<?xml version="1.0" encoding="UTF-8"?>
<svg id="Layer_1" data-name="Layer 1" xmlns="http://www.w3.org/2000/svg" xmlns:xlink="http://www.w3.org/1999/xlink" viewBox="0 0 1400.29 1118.22">
  <defs>
    <style>
      .cls-1 {
        fill: none;
      }

      .cls-2 {
        fill: #f7f0e5;
      }

      .cls-3 {
        fill: #f19023;
      }

      .cls-4 {
        filter: url(#outer-glow-1);
      }

      .cls-5 {
        clip-path: url(#clippath);
      }
    </style>
    <clipPath id="clippath">
      <rect class="cls-1" width="1400.29" height="1118.22"/>
    </clipPath>
    <filter id="outer-glow-1" x="20.43" y="-2.61" width="1360" height="1124" filterUnits="userSpaceOnUse">
      <feOffset dx="0" dy="0"/>
      <feGaussianBlur result="blur" stdDeviation="68.24"/>
      <feFlood flood-color="#186333" flood-opacity=".8"/>
      <feComposite in2="blur" operator="in"/>
      <feComposite in="SourceGraphic"/>
    </filter>
  </defs>
  <g class="cls-5">
    <g class="cls-4">
      <circle class="cls-3" cx="686.19" cy="231.98" r="3.69"/>
      <path class="cls-3" d="M738.82,232.36c.85.26,1.7.52,2.55.77,1.38.44,2.72.69,3.33,1.74.61,1.18.13,2.57.18,3.85v.11c-.13,7.9,7.24,13.95,14.93,13.06,2.58,0,2.61,2.88,3.16,4.75.64,2.75,1.51,7.91,5.34,6.38.96-.46,1.53-1.44,2.08-2.32.86-1.63,2.6-1.88,4.2-2.34,2.78-.83,1.86-4.42,4.14-5.69.9-.58,2.03-1.01,2.65-1.91,1.57-2.22-.48-4.4-2.72-5.02-1.82-.62-3.66-1.12-5.47-1.7-.73-.25-1.51-.61-1.9-1.27-.82-1.72.11-3.97-.37-5.86-.87-6.58-7-11.57-13.62-11.17-1.33.04-2.33.05-3.02-.79-1.65-2.68-1.26-7.25-3.41-9.71-1.15-1.3-3.22-1.13-4.27.2-1,1.21-1.6,2.93-3.29,3.3-5.78.95-2.88,4-6.18,6.27-2.09.94-4.16,2.83-2.52,5.16.91,1.2,2.66,1.73,4.22,2.21Z"/>
      <path class="cls-3" d="M713.86,336.11c2.81,0,5.09-2.28,5.09-5.09s-2.28-5.09-5.09-5.09-5.09,2.28-5.09,5.09,2.28,5.09,5.09,5.09Z"/>
      <path class="cls-2" d="M731.52,290.23c-3.95,0-7.15,3.2-7.15,7.15s3.2,7.15,7.15,7.15,7.15-3.2,7.15-7.15-3.2-7.15-7.15-7.15Z"/>
      <path class="cls-3" d="M699.96,268.04c-.78-1.38-1.32-3.09-2.35-4.27-1.88-2.13-2.83,1.18-3.03,2.75-.89,5.24-2.46,10.18-6.87,13.5-1.34,1.06-4.73,3.09-1.94,4.45.74.39,1.74.69,2.58.99,3.96,1.35,7.15,4.51,9.19,8.12.92,1.37,1.64,3.95,3.41,4.21h.05c1.22-.32,1.5-2.38,1.8-3.54.89-4.3,3.02-7.94,6.31-10.89.85-.79,1.83-1.5,2.52-2.42.22-.28.49-.88.39-1.24-.44-1.51-2.77-2.08-4.03-2.92-3.52-1.99-6.13-5.28-8.03-8.75Z"/>
      <circle class="cls-2" cx="736.82" cy="360.36" r="3.69"/>
      <path class="cls-2" d="M690.41,477.95v-.08c-.07-2.5-2.25-3.16-4.33-3.11-5.45-.36-10.79.02-16.19.66-17.47,1.05-34.59-4.3-52.07-3.18-2.2.05-4.4,0-6.54-.51-1.91-.49-3.69-1.3-5.64-1.48-6.25-.83-12.6-.42-18.88-.71-2.22-.06-4.39-1.29-6.61-1.53-3.75.28-2.75,5.78-2.61,8.37,1.53,9.81,5.06,19.28,5.49,29.26.13,6.53,1.4,6.98,7.55,6.01,5-.91,9.33-.94,14.13-.64,3.97.3,8.52-.98,11.75,1.54,3.54,4.77-.25,18.12.38,24.42-.01,5.63,1.51,11.1,1.64,16.71.07,2.36-.34,4.75-.69,7.09-.9,6.14-.4,12.35.35,18.55.83,7.15.93,14.37.28,21.54-.9,7.05-1.25,14.16.15,21.17.95,8.25-1.92,16.35-1.66,24.63,0,4.89,1.08,9.73.62,14.65-.71,4.15,1.79,4.56,5.44,4.19,2.82-.15,5.62-.4,8.44-.58,8.54-.72,17.04.37,25.4,2.18,3.69.5,3.17-3.54,3.09-6-.05-2.59.19-5.18.05-7.71-.33-3.25-1.05-6.5-.97-9.77,0-8.8,2.24-17.64.8-26.43-.98-6.96-2.2-13.88-1.55-20.93.5-3.79.06-7.56-.63-11.29-1.83-9.4.16-18.81.68-28.18.02-3.16-.86-6.26-1.2-9.39-.62-4.35-.11-8.81.59-13.15.55-3.97.93-7.97.77-11.99-.06-1.65-.19-3.25.12-4.9.94-7.1,8.64-5.69,13.85-5.19,3.61.15,9.44,2.44,12.59.63,1.16-1.07,1.46-3.33,1.8-4.98.38-2.56-.69-5.14-.67-7.7-.37-7.61,4.9-14.44,4.28-22.15Z"/>
      <path class="cls-2" d="M374.7,390.64c2.28-1.63,2.81-4.81,1.18-7.1-1.63-2.28-4.81-2.81-7.1-1.18-2.28,1.63-2.81,4.81-1.18,7.1,1.63,2.28,4.81,2.81,7.1,1.18Z"/>
      <path class="cls-2" d="M485.15,638.49l.03.08c3.08,9.23,8.37,14.81,16.27,20.14,7,5.42,11.71,8.21,20.93,7.57,2-.03,4,.24,5.96.69,17.64,4.25,35.58-4.16,47.47-17.15,4.07-4.07,6.09-9.5,7.7-14.93,1.69-5.55,2.77-11.2,2.48-17.11-.09-1.82-.18-3.64-.23-5.46.16-6.58-3.28-12.46-4.96-18.67-2.29-7.7-2.86-9.43-8.89-14.92-4.57-4.24-9.93-7.54-14.25-12.07-3.52-3.5-6.12-8.23-11.1-9.78-6.1-1.5-9.75-3.54-12.74-9.27-1.68-2.98-3.68-5.65-6.1-8.01-1.43-1.39-2.87-2.86-3.74-4.67-1.79-4.03-2.01-8.76-1.4-13.11,1.02-6.91,7.53-10.61,14.26-8.25,6.1,1.97,9.72,8.34,9.03,14.56-.62,5.87-1.22,11.45,6.16,12.42,2.07.34,4.12.81,6.21.91,2.35.08,4.7-.21,6.99.39,2.69.66,5.13,1.89,7.96,2.03,6.1.55,7.53-2.47,6.8-8-.28-5.28,1.65-10.72.25-16.01-3.23-18.08-9.86-36.56-31.41-38.85-2.25-.3-4.55-.37-6.68-.83-1.86-.39-3.65-1.3-5.55-1.66-2.73-.54-5.47-.04-8.27.18-14.23.53-27.18,3.34-35.69,15.89-1.6,2.3-3.3,4.6-4.41,7.15-1.26,3.39-1.84,7.01-3.03,10.45-.7,2.21-1.61,4.36-2.25,6.6-1.06,3.6-.98,7.49-.81,11.23.3,8.14,3.76,15.73,6.93,23.12,2.96,6.66,6.64,13.2,12.39,17.87,3.4,2.85,7.08,5.41,10.03,8.76,1.6,1.79,2.75,3.9,4.63,5.35,4.76,3.78,9.76,7.24,15.02,10.32,2.63,1.42,4.85,3.45,6.41,6.02,2.08,3.16,4.12,6.35,6.18,9.52,1.59,2.47,3.38,4.87,3.91,7.81,2.76,12.84-12.76,20.86-23.04,15.55-6.68-3.76-6.37-13.42-6.19-20.26.2-3.14-.23-6.55-2.37-9.11-1.39-2.08-3.66-2.64-5.98-2.85-4.89-.7-8.72-4.58-13.84-4.24-2.85-.09-5.62-.52-8.41-1.1-1.77-.33-3.91-.89-5.5.15-3.03,2.62-1.56,7.9-.68,11.33,1.09,4.37,1.81,8.83,1.55,13.34-.5,5.72-.04,11.46,2,16.87Z"/>
      <path class="cls-2" d="M472.5,519.86v-.08c-1.75-8.05-1.6-15.59-8.47-21.48-1.57-1.4-3.14-2.79-4.57-4.32-3.9-4.02-8.12-7.86-13.38-9.98-13.42-5.44-28.46-4.82-42.38-1.85-5.47,1.23-10.94,2.85-15.7,5.89-1.99,1.26-3.79,2.84-5.6,4.27-2.83,2.23-5.72,4.45-7.88,7.33-1.88,2.38-3.06,5.25-3.95,8.14-1.94,6.58-5.8,12.47-7.42,19.14-.53,2.32-.72,4.73-.69,7.12.1,6.98.45,13.94-.27,20.88-.21,2.22-.63,4.42-.92,6.63-1.11,9.33,2.38,18.23,2.61,27.51.36,7.56-1.96,14.89-.54,22.5,1.23,5.41,2.24,10.82,1.64,16.42-.21,3.03-1.05,6.1-.97,9.11.44,13.09,10.12,25.15,19.93,33.04,8.26,5.04,17.45,8.21,26.93,7.84,7.54.45,14.87-.73,21.35-4.42,1.72-.9,3.62-1.3,5.52-1.6,8.02-1.3,15.44-5.11,20.8-11.29,2.86-3.39,4.83-7.36,6.9-11.29,1.46-2.67,2.44-5.64,2.76-8.65.65-10.5-.16-21.08,1.59-31.49,1.45-8.17,2.25-16.4,1-24.63-.74-4.65-1.54-9.43-.45-14.09,2.29-7.34,2.15-15.05,1.08-22.59-.19-7.98.12-15.97,1.12-23.9.18-1.39.23-2.81-.03-4.17ZM430.26,536.49v.08c-.73,6.71-1.99,13.44-.81,20.22.19,1.17.36,2.34.34,3.52-.47,7.55-1.22,15.07-2.36,22.56-.41,3.8.41,7.56,1.15,11.27.86,4.66.53,9.29.52,13.94.54,7.93-.65,15.79-.93,23.7.05,9.06-2.85,11.67-11.61,12.96-5.92,1.52-8.67-4.34-9.41-9.27-.76-3.63-1.07-7.36-.53-11.07.44-2.67,1.01-5.31.94-8.03-.24-7.73-2.16-15.36-.78-23.1,1.52-10.23-1.89-20.43-1.21-30.62.72-7.17.45-14.39.66-21.56.16-8.67,3.05-19.06,9.97-24.75,5.13-3.84,11.27-1.25,13.38,4.44,1.32,5.09,1.12,10.48.66,15.71Z"/>
      <path class="cls-3" d="M1154.88,446.54c0-2.04-1.65-3.69-3.69-3.69s-3.69,1.65-3.69,3.69,1.65,3.69,3.69,3.69,3.69-1.65,3.69-3.69Z"/>
      <path class="cls-2" d="M845.3,671.95h.09c8.07,1.37,6.34-8,5.76-13.07-.49-12.96,3.38-25.76,1.8-38.78-.52-10.48,3.51-20.62,3.25-31.06-.13-5.53-1.11-11.23-.29-16.74,3.19-13.62,4.6.28,4.82,5.6,2.74,10.53,5.12,21.04,5.89,31.93,1.24,7.62,4.02,14.86,5.45,22.44,1.38,8.26-.21,17.5,11.16,15.99,7.21-1.9,16.67,8.18,20.67-2.02,1.88-4.84,1.72-10.46,3.18-15.4,1.32-6.04,3.83-11.78,4.19-18.03.1-5.29,1.99-10.26,4.39-14.92,6.2-9.16,4.96-21.98,11.72-30.58,3.97-1.51,2.69,15.2,3.15,18.33,1.74,11.27-.72,22.28-.89,33.56.98,11.87,2.11,23.45.1,35.34-.03,8.09-2.51,19.12.7,25.32,1.32,2.74,13.69-.46,21.5,1.94,6.42,1.6,18.98,5.99,18.13-5.05-.34-8.28.68-16.46.81-24.7-1.49-24.93.39-49.93-.88-74.91.55-8.93,2.34-17.79.7-26.72-.28-2.3-1.07-3.4-2.38-3.83-2.42.48-4.86.83-7.31,1.06-1.44.17-3.08.26-4.88.26-1.45,0-2.96-.06-4.5-.16-.44-.03-.88-.06-1.34-.11-4.06-.35-8.2-1.03-11.79-1.98-6.17-1.63-11.03-4.08-14.53-7.31-8.5,3.48-16.82,5.36-24.84,5.62-.87,2.56-1.74,5.13-2.68,7.76-1.57,4.36-4.41,16.4-6.45,9.54-1.57-6.21-3.54-12.31-4.96-18.54-12.07-2.59-23.18-9.13-33.25-19.56-.84.26-1.71.47-2.59.62l-.46.08-.47.05c-1.91.2-3.85.3-5.77.3-8.3,0-16.52-1.94-24.36-5.68.08,1.88.06,3.76-.17,5.64-2.08,10.99-.52,22.21-2.11,33.24-2.41,10.92-2.53,21.88-.93,32.92-1.27,13.87-3.45,27.61-2.72,41.64-.83,11.29-2.37,22.55-1.39,33.88.93,6.12,8.17,5.25,12.82,5.44,3.25.11,6.36,1.15,9.52,1.07,4.11-.19,7.96-1.12,12.12-.43Z"/>
      <path class="cls-2" d="M1062.79,891.33v-.08c.26-4.05,2.3-11.19-3.39-12.35-6.94-1.36-13.94-2.31-20.97-2.84-11.72-.62-22.39-6.27-33.86-8.24-2.45-.33-3.62-1.57-3.34-4.08.32-9.01.63-18.01,1.07-27.01.16-4.5,2.2-5.06,6.09-3.87,4.46.96,8.98,1.05,13.51,1.04,6.4-.06,12.38,2.62,18.65,3.61,4.59,1.24,4.5-2.82,4.46-6.21-.05-4.53,0-9.05-.08-13.58,2.66-25.39-3.07-12.07-19.88-19.32-3.19-1.12-6.49-2.25-9.87-2.46-3.94-.19-9.19-.05-12.15-2.93-2.27-3.86.64-9.88-.58-14.47-.35-3.05-1.19-6.02-1.34-9.07.04-5.45,1.4-10.83,1.2-16.31-.57-6.77,4.38-4.47,8.76-3.93,7.85.16,15.46,1.65,22.81,4.42,6.77,2.59,14.24,1.77,21.12,3.96,6.3,2.95,6.35-4.02,6.04-8.47-.95-5.2-2.55-10.34-2.6-15.64-.44-11.18,3.82-16.25-10.93-16.82-9.9.75-19.19-3.1-28.9-4.38-5.68-.55-11.36-.54-16.72-2.75-10.69-2.99-21.54-5.03-32.59-5.94-4-1.05-9.21-3.62-13-1.07-.57.77-.6,1.95-.64,2.9-.08,6.3.2,12.66,1.69,18.8.82,3.5,2.37,6.85,2.87,10.43.81,4.74.17,9.56-.34,14.29-1.29,10.6,3.04,20.9,1.34,31.5-1.89,8.79.45,17.53.37,26.34-.15,5.76-1.32,11.47-1.08,17.25-.03,3.96,1.16,7.84,1.08,11.79-2.23,15.23-1.74,30.58-1.63,45.92-1.25,19.12,5.84,14.18,20.31,16.06,5.72.81,11.17,2.87,16.74,4.35,7.85,2.12,16,2.81,23.93,4.6,5.39,1.12,10.45,3.38,15.82,4.56,7.44,1.29,14.9,2.35,22.19,4.31,7.95.95,2.62-19.3,3.85-24.3Z"/>
      <path class="cls-2" d="M721.68,659.5l.07.05c8.58,7.14,19.74,7.82,30.35,8.1,5.53.05,10.26-3.8,15.27-5.95,12.73-4.57,18.97-18.09,24.92-29.26,2.79-7.47,2.22-15.3,1.15-23.08-.73-6.4,1.16-12.61,1.94-18.9.72-6.17-.21-12.41.62-18.58.39-4.4,1.49-8.75,2.1-13.14,1.3-6.49-.89-12.81-1.48-19.23,1.44-7.99,3.99-15.91,3.62-24.15-.04-3.11-.11-6.2-.07-9.29-5.53-5.16-10.1-10.75-13.79-16.15-4.97-.03-9.64-2.19-14.26-6.6-3.09-.07-6.16-.37-9.22-1.14-1.47-.35-3.45-.99-4.63.18-4.68,12.14-1.58,26.27-.47,38.97,1.71,8.94-3.19,17.14-3.06,26-.16,5.9,1.6,11.58,1.8,17.4-.34,5.59-.7,11.19-1.81,16.69-2.5,12.01,2.85,23.63.47,35.51-.38,2.79-.1,5.94-2.33,7.94-3.21,2.95-8.91,4.18-10.64-1.02-2.01-5.37-.86-11.04-1.81-16.55-2.45-8.99.04-17.81.57-26.8-.94-8.83-2.96-17.64-1.43-26.53,1.35-9.54-2.9-18.8-.71-28.25,1.83-9.3-.51-18.52-.4-27.81.19-5.11,1.8-10.04,1.44-15.17.66-4.88-3.89-3.51-7.05-3.68-5.59.2-11.01-1.02-16.45-2.03-4.84.12-9.68.82-14.45,1.68-2.5.61-6.91-.7-6.87,3.12.44,5.5-.3,11.03.84,16.47.64,5.33-.89,10.63-.51,15.99-.04,4.46,1.54,8.71,1.55,13.14-.23,13.9.28,27.8.61,41.68-.91,7.92-1,16.02.7,23.86,1.47,7.06-2.25,14.22-.73,21.35,1.38,7.62,3.33,15.22,5.52,22.63,4.73,8.59,10.66,16.73,18.64,22.55Z"/>
      <path class="cls-2" d="M829.09,864.11l-.03-.08c-2.7-7.58-3.85-15.5-3.69-23.53.26-6.33.45-12.72-1.64-18.77-3.43-8.54-3.54-17.85-3.37-26.92.23-10.6-5.97-19.98-6.04-30.51.41-11.67-1.94-22.97-5.18-34.08-.6-2.15-1.16-4.31-1.44-6.52-.51-4.2.17-8.47-.28-12.69-.26-3.77-1.06-7.47-2.12-11.1-1.29-4.15-1.76-8.96-4.69-12.38-1.19-1.19-3.06-1.28-4.7-1.24-9.8.27-19.6.17-29.28-1.72-2.96-.66-5.99-1.04-8.97-.32-2.87.53-5.75.43-8.64.46-3.03.31-9.32-1.15-10.43,2.54-1.4,6.71-.14,13.75-1.26,20.5-.52,3.62-1.84,7.08-3.07,10.51-1.59,4.37-2.67,8.79-3.13,13.37-.63,4.44-.66,8.97-.43,13.47.03,4.23-1.07,8.32-2.43,12.31-1.6,4.74-3.07,9.55-3.5,14.54-.61,10.84-2.54,21.42-5.99,31.71-1.51,4.57-2.67,9.3-2.77,14.14-.04,2.94.44,5.85.33,8.79-.28,8.07-2.83,15.73-5.2,23.36-1.1,3.73-1.83,7.56-2.89,11.31-.35,2.27-2.74,5.8-1.45,7.78,2.06,2.05,5.99,1.7,8.74,1.25,6.26-1.47,9.41-1.93,15.71-.09,3.99.9,7.98,1.75,12.01,2.58,5.23,1.13,5.96-1.76,6.13-6.23.47-5.88,1.69-11.68,1.55-17.6,0-2.71.21-6.44,2.41-8.28.84-.55,2.43-.37,3.52-.18,5.05.87,10.12,2.48,15.29,1.7,3.03-.57,6.1-.73,9.17-.69,1.76-.08,3.59.45,4.31,2.24.72,1.56.93,3.33,1.13,5.02.78,6.92,1.62,13.85,1.56,20.83-.15,5.88,2.23,5.57,7.27,5.58,5.62-.25,10.94.16,16.03,2.76,5.41,2.13,11.29,2.6,17.07,2.27,3.78-.26,3.61-2.58,2.8-5.62-.77-3.5-1.21-7.07-2.4-10.47ZM779.41,808.72h-.08c-6,.06-11.71.79-18.12,1.17-.68.03-1.58-.04-1.97-.55-.37-.42-.32-1.32-.2-1.98.93-5.33,1.6-10.63,2.25-15.96,1.63-16.46,5.39-32.39,8.79-48.62.1-.52.31-1.53.59-1.68.26-.19.61.25.94,1.03.68,1.57,1.15,3.25,1.5,4.92.94,5.16,1.52,10.41,2.57,15.56,1.41,7.9,3.99,15.64,4.14,23.69.03,1.8-.03,3.62.16,5.41.19,2.16.78,4.23,1.15,6.36.4,2.35.32,4.67.36,7.03.07,1.52-.36,3.43-2.1,3.62Z"/>
      <path class="cls-2" d="M1095.62,681.49c1.19-7.04-3.8-7.33-9.23-7.99-6.61-1.25-13.3-1.87-20.01-2.35-9.74-1.3-18.85-5.48-28.54-7.08-4.84-.73-4.88-1.89-4.53-6.43.36-6.38.61-12.77,1.03-19.15.25-4.76.88-6.92,6.19-5.74,7.84,1.89,16.08.53,23.85,2.89,2.92.9,5.83,1.62,8.85,2.19,4.72,1.23,4.97-3.12,4.82-6.65-.12-7.34.6-14.61.87-21.94.21-5.51-6.44-3.81-10.04-4.55-8.09-.48-15.21-4.95-23.37-4.96-3.2-.27-7.19-.6-9.71-2.65-2.08-2.56-.15-6.15.06-9.01.17-1.85-.51-3.62-.97-5.4-1.81-6.99.13-14,.23-20.98-.01-2.01.22-4.97,2.89-4.81,10.11,1.58,20.33,2.05,29.89,6.08,2.88,1.1,5.88,1.85,8.96,2.03,4.63.37,9.11,1.36,13.57,2.6,5.66,1.96,4.92-6.76,4.29-10.04-1.26-4.76-2.04-9.56-1.79-14.4,0-4.25,1.98-11.01-3.97-11.84-6.65-1.92-13.67-.83-20.31-2.79-6.66-1.74-13.36-3.35-20.17-4.45-3.49-.43-7.07-.31-10.41-1.58-1.1-.38-2.2-.74-3.31-1.08-7.51,6.14-15.36,10.62-23.43,13.34l-.5.17-.51.13c-2.36.61-4.46.91-6.43.91h0c-2.4,0-4.68-.47-6.75-1.34-.78.49-1.56.98-2.36,1.45-1.46.87-2.91,1.69-4.36,2.46,0,.16,0,.32.04.49,2.9,7.27-.04,14.8.13,22.25.02,3.95,1.23,7.78,1.69,11.68.51,4.06.33,8.16-.17,12.22-1.19,8.93.83,17.81.09,26.73-.54,6.17-.9,12.33-.35,18.52.44,3.72.35,7.47-.42,11.15-1.6,7.38-1.57,14.93-.72,22.41.4,5.25-.29,10.48-.6,15.72-.89,7.73,5,10.67,11.99,10.08,7.84.09,15.41,1.52,22.89,3.75,12.98,3.45,26.65,3.75,39.42,8.25,8.12,2.38,16.71,2.11,24.86,4.49,5.02,1.62,6.57-1.92,6.35-6.4-.2-6.1-1.14-12.21-.03-18.28v-.08Z"/>
      <path class="cls-2" d="M1148.18,404.81c-1.31-.87-3.08-1.31-3.61-2.95-1.52-5.67-4.28-2.47-6.87-5.54-1.15-1.99-3.23-3.86-5.39-2-1.11,1.03-1.46,2.82-1.78,4.43-.17.87-.35,1.74-.52,2.61-.3,1.42-.42,2.78-1.41,3.49-1.12.73-2.55.38-3.82.55h-.11c-7.89.65-13.2,8.6-11.55,16.18.26,2.58-2.61,2.89-4.43,3.62-2.68.9-7.74,2.29-5.83,5.96.55.91,1.59,1.38,2.52,1.85,1.71.69,2.13,2.41,2.75,3.96,1.1,2.69,4.6,1.41,6.09,3.57.67.84,1.21,1.92,2.17,2.45,2.37,1.35,4.34-.91,4.74-3.2.44-1.88.75-3.76,1.15-5.62.17-.75.46-1.57,1.08-2.02,1.64-.99,3.97-.28,5.81-.95,6.48-1.51,10.85-8.12,9.8-14.68-.18-1.32-.27-2.31.49-3.09,2.51-1.9,7.11-1.97,9.35-4.36,1.18-1.27.81-3.32-.62-4.24Z"/>
      <path class="cls-2" d="M1174.49,347.32c0-3.29-2.67-5.96-5.96-5.96s-5.96,2.67-5.96,5.96,2.67,5.96,5.96,5.96,5.96-2.67,5.96-5.96Z"/>
      <path class="cls-3" d="M1134.71,369.32c-2.81,0-5.09,2.28-5.09,5.09s2.28,5.09,5.09,5.09,5.09-2.28,5.09-5.09-2.28-5.09-5.09-5.09Z"/>
      <path class="cls-3" d="M1129.72,342.13c-.02-1.71-2.5-3.09-3.79-4.17-6.14-4.68-8.51-11.73-8.88-19.25-.1-1.43-.04-3.05-.43-4.38-1.09-3.33-3.21-.17-3.73,1.73-1.74,5.51-4.43,10.97-9.71,13.83-1.69.97-3.54,1.67-5.38,2.28-2.01.62-6.2,1.71-3.27,4.1,2.22,1.7,4.69,3.35,6.3,5.71,2.45,3.33,3.82,7.66,4.27,11.89.33,2.26.07,4.69.47,6.91,1.37,4.41,4.07-2.82,4.92-4.23,3.23-5.91,8.05-9.94,14.68-11.77,1.5-.47,4.24-.91,4.57-2.58v-.07Z"/>
      <path class="cls-2" d="M694.58,852.35v-.08c-.33-6.41-2.9-12.23-5.93-17.82-2.29-4.74-2.77-10.04-4.03-15.1-1.16-5.4-3.85-10.47-4.57-15.95.22-3.29,3.78-5.18,5.3-7.89,8.88-12.79,11.91-23.64,10.87-39.11,3.58-19.74-1.43-36.86-13.53-52.66-12.06-15.52-19.42-14.9-37.05-18.51-5.14-.88-10.27-2.67-15.48-2.86-2.56.02-5.07.63-7.63.69-3.54.26-7.07-.54-10.6-.42-4.08.71-8.14,1.53-12.28,1.91-3.57.49-7.2.03-10.65-1.06-3.02-.62-12.24-2.33-11.79,2.48.8,5.23,2.17,10.45,1.24,15.77-1.5,11.51,1.81,22.63,2.79,34,.67,5.06-1.74,9.92-1.53,14.92.82,6,2.07,11.99,3.16,17.92.87,6.12-1.17,12.1-1.42,18.17.49,7.18,1.7,14.29,2.46,21.45.54,3.75.4,7.53-.41,11.23-1.03,6.09-.49,12.13.17,18.16.56,6.1,1.28,12.21,1.09,18.33-.3,4.88-2.15,10.65-.01,15.24,1.23,1.72,3.91,1.07,5.73.7,10.64-1.89,21.51-2.98,32.3-2.19,6.68.06,10.98.88,9.18-7.6-2.83-14.49-.92-28.95-1.46-43.88-.36-2.97,2.02-2.93,4.2-2.82,3.31-.33,6.75.44,7.87,3.95,2.59,5.98,4.8,12.09,5.86,18.54,2.15,8.51,5.82,16.55,7.74,25.15,1.05,5.9,2.37,8.2,8.95,7.37,5.67-.81,11.31-1.29,17.06-.46,3.82.58,7.61.47,11.49.29,4.37.17,6.12-1.77,4.95-6.15-1.39-3.88-3.92-7.45-4.05-11.74ZM655.38,753.66v.08c.79,3.81.42,7.68-.29,11.47-.41,3.34-2.42,6.11-5,8.16-4.73,3.99-9.95,6.89-16.37,6.66-2.78-.1-3.94-.4-4.15-3.47-.45-4.91-1.2-9.78-1.31-14.7-.1-5.87,0-11.8.77-17.62.18-1.4.32-2.82.34-4.23.04-4.57-.78-9.02-1.06-13.54-.06-1.43-.71-3.48.02-4.71.8-.94,2.51-.79,3.69-.89,3.85-.13,7.69-.23,11.51.33,2.6.37,5.3,1.06,7.08,3.03,1.42,1.54,2.31,3.51,3.13,5.4,1,2.36,1.72,4.92,1.98,7.5.28,2.8.06,5.46-.12,8.22-.43,2.88-.89,5.48-.22,8.31Z"/>
      <path class="cls-2" d="M951.7,788.22v-.08c.48-10.92-.47-21.92-3.6-32.45-.86-2.82-1.88-5.6-2.5-8.49-.47-2.07-.56-4.27-1.09-6.33-4.99-13.42-15.44-24.01-25.29-34.06-3.5-3.44-7.65-6.36-12.44-7.63-9.94-2.51-19.56-6.26-29.87-7.31-3.86-.41-7.73-.42-11.56.26-2.26.35-4.49.7-6.79.72-2.01.05-4.02-.32-6.01-.57-3.54-.44-7.2,0-10.79-.45-1.35-.15-3.21-.64-4.17.51-.65,1.03-.12,2.47.14,3.6,1.74,6.96,2.78,14.14,3.2,21.34.42,6.33-.85,12.43-1.77,18.63-.64,5.38-.68,10.79-.2,16.24.39,4.24,1.36,8.42,1.28,12.69-.25,7.54-1.22,15.05-1.59,22.59-.31,7.29-.14,14.6.45,21.89.33,3.65,1.11,7.25,1.19,10.92.04,2.16-.13,4.32-.17,6.46.04,3.93-.7,7.83-.78,11.74.53,12.06,1.65,24.12,1.03,36.22-.08,2.49-.42,6.95,2.4,7.74,1.69.2,3.48-.48,5.15-.76,3.66-.73,7.56-.63,11.33-.24,4.71.49,9.32,1.5,13.93,2.55,4.91,1.14,9.93,2.4,14.94,2.39,4.85-.04,9.6-1.27,14.38-1.94,13.04-1.69,19.05-4.55,28.29-13.97,4.8-4.63,10-9.18,12.83-15.39,1.25-2.55,2.1-5.3,2.75-8.06.89-3.78,2.4-7.41,2.58-11.29.09-2.18.04-4.39.44-6.54,1.19-6.05,3.76-11.92,3.24-18.21-.39-7.57-1.22-15.14-.93-22.73ZM912.6,805.83l-.02.08c-.84,3.38-1.39,6.85-1.4,10.34.05,4.52-.3,9.07-1.31,13.36-1.54,6.23-3.88,12.65-7.75,17.98-3.87,4.17-9.26,6.9-14.74,8.25-3.17.57-3.21-3.48-3.56-5.7-.25-2,.17-3.99.16-6.03,0-2.13-.32-4.24-.63-6.34-.99-5.71-.52-11.53-.2-17.24.21-4.87,1.78-9.61,1.67-14.51.21-4.79-1.17-9.44-1.86-14.11-.56-5.06.82-10.02,1.29-15.03,1.17-8.87.11-17.79-.93-26.63-.42-5.02-.29-10.07-.16-15.12,0-1.85.71-3.92,3.03-3.21,11.87,5,19.68,16.28,23.21,28.42,1.15,3.81,2.2,7.89,2.47,11.86.1,5.06-.11,10.7.76,15.47,1.52,6.16,1.64,11.95-.03,18.17Z"/>
      <path class="cls-3" d="M340.64,402.39c-2.68,1.91-3.29,5.64-1.38,8.31,1.91,2.68,5.64,3.29,8.31,1.38,2.68-1.91,3.29-5.64,1.38-8.31-1.91-2.68-5.64-3.29-8.31-1.38Z"/>
      <path class="cls-2" d="M389.45,414.41c-.15.84-.3,1.67-.44,2.51-.26,1.36-.35,2.67-1.28,3.36-1.06.72-2.43.42-3.64.61h-.1c-7.53.79-12.44,8.49-10.72,15.71.3,2.46-2.44,2.81-4.16,3.55-2.54.92-7.35,2.34-5.46,5.81.54.86,1.55,1.29,2.45,1.72,1.65.63,2.08,2.26,2.7,3.73,1.1,2.55,4.42,1.26,5.89,3.29.66.79,1.19,1.81,2.12,2.3,2.29,1.24,4.13-.96,4.46-3.16.39-1.8.64-3.61.99-5.4.15-.72.4-1.51.99-1.96,1.54-.98,3.79-.35,5.54-1.02,6.16-1.58,10.2-7.98,9.07-14.23-.19-1.26-.31-2.21.41-2.97,2.36-1.87,6.75-2.02,8.85-4.35,1.1-1.24.71-3.19-.68-4.04-1.27-.81-2.97-1.19-3.51-2.75-1.57-5.39-4.13-2.28-6.67-5.16-1.14-1.88-3.16-3.63-5.19-1.81-1.04,1-1.34,2.72-1.62,4.27Z"/>
      <path class="cls-2" d="M574.95,854.36c-3.67-8.94-2.44-18.92-5.65-27.99-.48-1.4-.99-2.8-1.31-4.25-2.5-9.22-.34-18.86-2.02-28.17-.52-2.64-1.76-5.12-2.65-7.66-1.63-4.64-2.48-9.43-2.64-14.37.01-5.27.02-10.59-1.19-15.71-1.07-5.58-3.69-10.77-4.42-16.42-.72-4.65-.33-9.43-.33-14.13.01-3.4-.25-6.82-1.09-10.12-1.66-5.54-3.62-11.09-3.94-16.94-.47-2.78.46-6.29-1.17-8.69-1.49-1.34-3.87-1.05-5.75-1.1-3.15,0-6.4.12-9.59,0-3.97-.38-7.99-1.35-12-.52-5.63.68-11.38.24-16.92,1.62-4.91,1.36-9.87,2.4-14.97,2.32-2.77-.02-5.62-.21-8.37.15-3.83.3-2.76,4.63-2.85,7.32.11,5.54-.36,11-1.85,16.32-.96,3.35-1.9,6.73-2.3,10.19-.36,2.68-.32,5.39-.21,8.09.23,6.38-1.04,12.5-3.09,18.5-1.11,3.14-2.12,6.33-2.14,9.7.13,11.09-2.11,21.83-5.93,32.2-1.71,5.19-1.99,10.62-2.48,16.01-.51,7.76-4.11,14.73-5.84,22.22-1.74,6.18-.02,12.57-1.14,18.81-.68,3.88-2.09,7.56-3.46,11.22-2.26,6.55-4.38,13.14-5.92,19.87-.31,2.52.93,5.7,3.72,5.78,1.3,0,2.61-.46,3.86-.8,4.56-1.29,9.18-2.12,13.95-1.74,2.13.2,4.25.06,6.33-.45,4.41-.99,8.8-2.04,13.34-1.98,2.23.03,5.12.24,6.64-1.68,1.48-2.36,1.4-5.46,1.51-8.17.03-5.58.89-11.09,1.49-16.62.3-2.11.2-4.77,1.75-6.39,3.63-2.74,8.76-2.63,13.09-3.42,6.52-.94,13.14-1.39,19.38-3.91.61-.25,1.42-.53,1.97-.41,2.28.54,3.41,11,3.64,13.24.36,3.83.09,18.74,3.26,20.23,6.17,1.71,12.04-2.84,18.13-3.32,3.67-.68,7.57-.07,11.28.47,2.94.17,10.26.53,11.28-2.84.44-5.6-1.45-11.21-3.37-16.4l-.03-.08ZM527.87,808.06v.08c-.07,2.37-.57,3.4-2.97,3.77-7.71,1.13-15.5,2.5-23.34,2.12-1.99-.2-1.52-2.17-1.23-3.59,1.66-7.66,3.11-15.4,4.94-23.03.6-2.18,1.5-4.27,2.19-6.42.44-1.37.75-2.79.96-4.22.99-6.63,1.57-13.33,2.56-19.96.22-1.08.54-2.11.88-3.15,1.83-5.03,3.18-10.48,5.05-15.53.37-.55.54,1.1.6,1.51.79,6.17,1.74,12.31,2.71,18.45.51,3.57.77,7.2,1.64,10.72,1.28,4.53,3.41,8.85,3.72,13.62.32,8.59,2.59,17.01,2.29,25.63Z"/>
      <path class="cls-2" d="M458.29,781.2l.03-.08c2.13-5.22,4-11.19,3.9-16.28.07-10.38-1.1-20.17-2.96-29.73-.56-2.79-1.64-5.43-3.25-7.79-2.79-4.19-5.13-8.62-7.63-12.99-3.39-6.2-8.8-10.78-15.67-12.29-5.55-1.59-10.76-3.86-15.85-6.51-2.08-1.12-4.28-2.07-6.65-2.32-7.25-.82-14.28,1.36-21.37,2.38-3.12.43-6.21-.47-9.36-.31-8.69,1.12-17.35,2.66-26.02,4.01-4.52.81-8.96,2.03-13.54,2.48-3.26.48-8.4-.6-9.75,3.18-.66,1.89-.74,4.92-.66,7.2.12,7.8,1.08,15.48,2.33,23.16-.47,5.54.06,11.08.24,16.61-.19,6.41-.94,12.82-.82,19.24-.06,11.39,1.39,22.78,1.26,34.15-.18,6.52.13,13.07-.74,19.56-.43,2.62-.24,5.26.07,7.88.59,5.87.08,11.81,1,17.65,1.33,9.94.75,19.9-.33,29.82-.91,8.73-1.06,17.51-1.82,26.24-.31,4.82,6.37,3.32,9.14,1.94,8.44-3.95,17.63-3.24,26.65-4.02,3.72-.67,7.24-2.39,10.89-3.45,2.22-.92,5.83-.85,7.26-2.92,1.43-4.06.81-8.75.75-12.99-.92-12.49-2.71-25.03-1.44-37.55.3-1.96.01-4.19.44-6.05,1-3.23,6.65-3.1,9.44-4.08,3.85-.83,7.78-1.31,11.56-2.46,5.32-1.78,10.3-4.43,15.47-6.6,4.94-2.19,9.74-4.63,13.34-8.69,1.74-2.18,3.58-4.25,5.92-5.82,6.35-4.84,10.49-11.58,13.55-18.9,1.79-4.49,2.81-9.19,4.64-13.67ZM417.37,769.05v.08c-.05,5.97-1.81,11.84-5.64,16.47-4.2,5.12-8.85,10.15-14.61,13.56-2.89,1.54-6.16,2.01-9.43,2.24-.88.07-1.78.32-2.54.29-2.26-.09-2.44-3.01-2.49-4.72,1.28-11,1.92-22.04,1.6-33.13.22-8.1,0-16.18-.52-24.26-.03-1.89-.62-4.8,1.93-5.15,6.26-.47,12.63-.18,18.87.6,2.47.37,4.82,1.3,7.07,2.34,1.01.48,1.95,1.12,2.54,2.07.4.62.68,1.32.93,2.01.87,2.48,1.95,4.92,2.21,7.57.23,6.67.07,13.36.09,20.03Z"/>
      <path class="cls-2" d="M338.28,677.47l.06-.06c14.13-13.83,18.32-33.48,14.67-52.51-.75-4.7.07-9.41.18-14.12.56-4.89-4.56-3.65-7.57-2.6-4.4,1.8-9.36,1.7-13.55,3.98-3.6,1.74-7.87,1.54-11.58,3.01-3.6,1.01-3.49,4.67-3.22,7.71.2,3.09.15,6.15-.11,9.21-.31,4.92,1.16,10.42-1.67,14.76-5.68,9.23-18.11,13-28.25,9.57-3.78-1.36-8.35-2.08-10.97-5.39-6.52-9.97-8.47-21.83-8.17-33.61-.15-6.39-2.28-12.51-2.71-18.86-.74-7.11,1.33-14.03,1.66-21.11.35-4.61-.28-9.32.18-13.95,1.56-8.1,3.68-16.15,7.45-23.59,1.9-4.02,4.62-7.44,7.54-10.77,2.19-3.46,4.53-6.9,8.41-8.67,6.36-3.53,16.28-3.99,19.56,3.8,1.67,5.2,4.15,9.99,5.64,15.2,2.09,5.91-2.94,16.16,3.21,19.99,2.09.84,4.52.5,6.7.17,9-2.08,18.36-3.06,27.39-4.66,3.58-2.78,1.02-12.1.59-16.15-1.08-6.58.96-13.53-1.61-19.88-5.36-19.94-19.25-31.52-39.06-35.53-4.42-1.54-9.05-1.79-13.65-2.13-4.69-.54-9.39-.81-14.03.29-2.85.74-5.61-1.09-8.35.14-7.28,2.39-14.03,6.09-18.91,12.04-9.08,11.1-18.98,22.39-23.62,36.18-1.22,3.81-1.37,7.85-2.29,11.69-1.25,5.41-3.23,10.68-3.85,16.23-1.83,11.72-1.59,23.52-1.54,35.34-.41,11.56-2.68,23.38,1.47,34.6.77,2.22,1.07,4.52.99,6.86.1,7.24,1.97,14.24,3.6,21.25,3.13,12.77,13.18,22.12,22.31,30.97,3.24,2.87,7.04,4.98,11.16,6.3,5.38,1.99,10.54,5.24,16.49,5.06,11.69.64,21.6-2.33,32.01-7.43,8.72-2.77,17.26-6.42,23.46-13.31Z"/>
      <g>
        <path class="cls-3" d="M574.81,309.28l.09-.02c3.29-.56,5.5-2.78,5.42-6.17.04-1.99,0-4.08-.07-6.38.02-.89-.55-6.61,1.37-5.41.73.76.94,2.05,1.24,3.08.61,2.36,1.39,4.62,2.14,6.86.6,1.97,1.5,4.28,4,3.96,2.22-.25,4.92-.61,6.42-2.71,1.35-1.89.24-3.88-.29-5.7-.97-3.01-1.86-6.07-3.02-9.09-.37-.94-.7-2-.32-3.03.7-1.63,2.05-2.82,2.6-4.57,2.29-7.85,2.55-16.37-.86-22.5-3.57-5.5-9.17-3.18-14.7-1.75-1.67.49-3.36,1.05-5.04,1.5-3,.71-4.46,2.59-4.55,5.66-.15,1.81-.16,3.65-.06,5.45.2,6.4.27,12.83.12,19.23.01,4.92-.05,9.78-.04,14.72.15,4.27-.22,8.14,5.56,6.86ZM580.16,279.27v-.08c-.14-3.16-.08-6.25-.11-9.44.11-1.52-.41-3.39.99-4.23,1.12-.58,2.64-.6,3.44.3.91,1.16.34,2.91.53,4.33.1,2.66.46,6.59-1.32,8.97-.95,1.19-3.46,2.56-3.54.16Z"/>
        <path class="cls-3" d="M531.57,305.55c.31,2.41.47,4.97,1.51,7.18,1.51,3.38,4.87,6.25,8.84,5.35,2.16-.36,4.36-.86,6.44-1.53,1.6-.5,3.14-1.2,4.42-2.4,3.9-3.92,6.25-9.1,6.83-14.16.36-3.31.3-6.61.7-9.92.14-3.11-.28-6.1-.21-9.2-.04-5.51-.93-12.79-5.28-16.17-4.21-3.05-9.68.1-14.16,2.06-4.21,1.83-6.96,5.59-7.99,9.95-1.49,5.66-1.94,11.39-1.96,17.06-.14,4.06.25,7.88.87,11.7v.08ZM541.99,298.57v-.08c0-5.25-.53-10.6.3-15.87.34-2.16.52-4.65,1.93-6.53,1.68-1.98,3.46-.95,3.67,1.3.55,4.38,1.14,8.73,1.49,13.13.03.83.02,1.66-.02,2.49-.24,3.35-.15,6.71-.78,10.06-.37,1.94-2.4,4.33-4.37,3.58-2.21-1.25-2.1-5.75-2.22-8.09Z"/>
        <path class="cls-3" d="M632.95,331.72h.08c3.42-.47,6.62-1.38,10.08-2.04,2.33-.53,3.67.02,3.84,2.51.22,3.21.34,6.39.45,9.6.08,2.32-.05,4.67.19,6.98.1,1.02.21,2.05.21,3.08,0,1.81-.38,3.67-.49,5.5-.2,2.74-.13,5.47-.07,8.19.18,7.34-.17,14.76-.05,22.12.05,3.96-.22,7.91-.29,11.9-.18,3.75,1.29,6.31,5.35,5.75,3.39-.41,9.55-2.17,9.99-6.4.21-1.62-.06-3.57-.14-5.25-.12-2.18-.06-4.39,0-6.59.31-8.23-.04-16.42-.12-24.63-.04-7.26.19-14.54-.22-21.8-.18-2.87-.22-5.74.05-8.66.26-2.17.31-4.43,1.01-6.56.54-1.54,2.22-1.95,3.6-2.25,2.42-.58,4.67-1.68,7.08-2.36,2.83-.75,5.67-1.28,6.1-4.79.38-2.63.14-5.19.08-7.77-.05-4.35-3.51-3.65-6.8-2.8-7.29,2-14.53,4.01-21.88,5.54-6.01,1.65-11.99,3.36-18.01,4.89-3.99,1.35-3.75,5.33-3.5,8.68.36,2.91-.98,7.67,3.46,7.15Z"/>
        <path class="cls-3" d="M577.99,422.57c3.31,1.24,7.02-1.12,10.32-2.07,3.26-.83,4.44-1.89,4.94-5.3.63-3.72,1.39-7.35,1.72-11.07.45-5.05,3.23-6.72,7.78-7.78,2.74-.62,7.16-1.96,9.43-.24.82.75.95,2.12,1.35,3.33.24.78.54,1.54.79,2.32.98,3.11.98,6.76,3.08,9.32,1.95,2.16,5.85.11,8.46-.16,1.96-.48,4.61-.61,6.12-2.26,1.6-2.43.38-6.29-.29-8.86-.58-2.05-.76-4.23-1.22-6.32-.5-2.33-1.21-4.61-1.71-6.96-.98-6.1-2.62-12.01-4.02-18-.86-4.1-1.21-8.34-2.24-12.35-.44-1.77-.86-3.54-1.2-5.34-1.04-5.76-1.78-11.58-3.11-17.24-.36-1.95-.39-3.98-.92-5.88-.47-1.71-1.5-3.82-2.78-4.65-1.28-.77-3.33-.23-4.85.05-3.91.81-7.73,1.59-11.63,2.47-4.06.9-5.66,1.78-6.58,6.08l-.02.09c-1.09,4.81-1.92,9.6-2.76,14.43-3.02,18.87-6.57,37.7-9.21,56.57-.68,4.7-1.36,9.35-2.12,14.05-.24,1.79-.96,4.79.64,5.78ZM598.18,380.94c.16-2.98.81-5.91,1.01-8.87.69-8.22,1.96-16.42,3.15-24.62.2-.92.26-3.19,1.2-3.46h.04c.29.03.59.5.82,1.14,1.13,3.31,1.4,6.92,1.89,10.42.47,5.75,5.11,19.3,3.02,24.12-.67.97-1.91,1.31-3.41,1.74-1.55.39-3.04.71-4.56.97-1.34.21-3.21.43-3.15-1.44Z"/>
        <path class="cls-3" d="M466,377.42c1.72-1.72,1.09-5.87.98-8.25v-.09c-.52-6.38-2.95-6.08-8.26-3.77-4.13,1.76-8.44,2.52-12.61,4.11-5.13,1.82-10.37,2.97-15.6,4.39-1.47.4-3.32.91-4.61,1.74-3.25,2.02-1.44,7.25-1.42,10.18.15,1.37.28,3.28,1.86,3.56.69.13,1.46.03,2.18-.08,1.86-.33,3.56-.65,5.33-1.32,3.65-1.61,4.58-.57,5.11,3.13.51,2.89.04,5.88,0,8.84.02,13.26-.42,26.58-.1,39.82.08,4.45.02,8.91.04,13.36.06,2.04-.1,4.18.26,6.17.35,2.23,2.55,2.38,4.44,1.99,1.9-.33,3.71-.67,5.63-1.33,6.34-2.04,4.19-6.33,4.66-11.22.59-4.56.4-9.1.19-13.62-.27-7.18-.51-14.47-.47-21.7.11-7.16-.37-14.28-.32-21.44.02-2.1.09-4.19.23-6.29.09-1.09.17-2.67.71-3.45.51-.83,2.16-1.25,3.34-1.55,1.54-.37,3.13-.85,4.65-1.36,1.8-.6,3-1.08,3.74-1.83Z"/>
        <path class="cls-3" d="M535.98,435.67l.08-.03c1.53-.63,3-1.32,4.61-1.58,7.77-1.4,15.3-3.99,22.9-6.33,1.57-.51,3.53-.98,4.67-2.27,1.48-1.98.66-4.63.73-6.84-.07-2.11.37-4.54-1.03-6.04-1.95-1.73-4.99.09-7.25.82-2.84,1.03-5.74,1.42-8.61,2.18-3.94,1.28-6.29,1.51-5.96-3.37.19-3.79.3-7.57-.08-11.3-.21-3.67-.36-6.4,3.87-7.82,3.48-1.35,6.96-1.6,10.43-3.26,2.67-1.18,3.55-2.69,3.3-5.49-.09-1.54-.22-2.94-.1-4.47.05-1.27.33-2.82-.49-3.79-1.51-1.52-5.7-.27-7.76.53-2.03.96-6.51,2.79-8.12,1.17-.66-.74-.73-1.95-.82-2.96-.32-4.46-.42-8.94-.08-13.44.15-3.13,1.01-4.8,4.28-5.52,3.35-.85,6.37-2.22,9.56-2.81,2.43-.64,6.17-.67,7.83-2.86.6-.95.68-2.25.72-3.35.04-2.24.07-4.38.14-6.61.01-1.41.04-3.05-.84-4.13-2.54-2.97-13.53,1.94-17.25,2.9-4.58,1.41-9.2,2.74-13.8,4.2-1.98.7-4.68,1.22-5.94,3.03-.83,1.34-.7,3.46-.66,5.02.1,2.52.18,5.03.18,7.55-.36,13.66-.16,27.24.24,40.82.09,6.56.14,13.14.23,19.7-.11,3.02-.29,6.06-.1,9.05.2,3.44-.16,9.26,5.11,7.3Z"/>
        <path class="cls-3" d="M513.16,401.39c1.43-2.13,3.26-4.11,4.28-6.47,3.32-8.41,2.47-23.57.71-31.99-1.24-5.68-6.18-10.1-12.02-10.52-2.44-.25-5.31.31-7.91.9-2.71.37-5.41,1.47-7.95,2.4-3.74,1.49-13.05,2.57-14.62,6.52-.98,2.4-.15,5.22-.13,7.6-.22,7.41-.21,14.8.07,22.16v.08c.06,1.88.22,3.85.22,5.79-.01,2.55-.36,5.15-.37,7.72.17,10.95.1,21.92.12,32.88.02,2.21.03,4.36.03,6.58-.04,3.16.2,6.82,4.4,5.86,1.37-.26,2.69-.81,3.96-1.35,1.96-.86,4.24-1.65,5.64-3.4,1.9-2.37,1.32-5.55,1.33-8.36-.04-5.03.38-10.11-.24-15.07-.13-1.51-.07-3,.06-4.55.05-1.45.84-2.75,2.29-3.15,1.18-.41,2.56-.75,3.37-.2,1.03.68,1.34,2.54,1.9,3.78.98,2.48,2.13,4.87,2.84,7.48.96,4.88,2.18,9.67,5.2,13.58,2.48,3.57,5.48,3.43,9.61,2.12,6.99-1.62,5.74-4.71,3.65-9.84-1.39-3.27-2.23-6.75-3.21-10.2-1.12-3.73-2.49-7.36-3.76-11.03-.52-1.64-1.42-3.61-1.4-5.31.1-1.43.92-2.53,1.92-4.02ZM503.97,374.74c.03,4.22.07,8.34.04,12.43-.04,1.57.04,3.15-.25,4.72-.47,2.61-2.51,5.23-4.97,6.84-2.99,2.13-7.94,2.57-8.03-1.94v-.08c.14-3.91.22-7.82.18-11.71-.02-2.31.2-4.66.02-6.92-.1-1.39-.29-2.78-.14-4.2.27-1.92.64-3.85,1.65-5.15.97-.98,2.24-1.05,3.81-1.42,4.85-1.18,6.08.22,7.37,4.69.23.93.3,1.8.32,2.74Z"/>
        <path class="cls-3" d="M468.56,336.53h.08c2.6-.35,4.87-1.64,7.34-2.36,1.22-.37,2.64-.77,3.34-1.99.53-.91.62-2.05.66-3.07.05-2.03.19-4.05.11-6.08-.26-3.5-.63-6.96-.5-10.53-.05-3.58.4-7.19,1.57-10.67.61-1.61.99-4.29,2.89-4.7.93-.12,1.52.94,1.78,1.77,2.72,8.55,5.41,17.16,8.21,25.69.69,2.33,1.88,3.63,4.53,3.13,3.27-.48,10.18-1.43,10.83-5.58.06-2.19-1.17-4.14-1.79-6.15-3.93-10.79-7.37-21.82-11.44-32.54-.67-1.78-1.49-3.72-1.49-5.69-.02-1.49.46-3.01,1.03-4.45,3.81-9.3,7.55-18.6,11.41-27.88,1.49-3.86,2.86-10.66-3.13-9.98-3.95.4-7.35,2.27-9.32,5.78-.89,1.53-1.56,3.38-2.14,5.04-2.98,8.6-5.93,17.18-8.92,25.77-.58,1.63-1.09,3.24-1.94,4.77-.54.97-1.48,1.53-1.89.31-.27-.83-.21-1.89-.22-2.81.02-7.44.18-14.91-.08-22.32-.21-3.18.48-8.8-3.98-8.56-1.14.1-2.28.56-3.37.98-2.2.85-4.52,1.78-5.68,3.98-.76,1.36-.9,3.11-.92,4.66,0,4.29-.17,8.54-.24,12.83.56,18.6-.82,37.34-.55,55.97.04,3.64.09,7.2.34,10.83.17,2.35.45,4.36,3.45,3.84Z"/>
        <path class="cls-3" d="M334.06,369.81c.48,1.11,1.61,1.35,2.96,1.2h.08c4.36-.56,11.09-2.11,11.18-7.67.04-4.9.28-9.91-.13-15.13-.11-1.63-.44-3.18-.32-4.86.17-1.75.65-4.08,2.02-5.26,1.05-.85,2.79-1.08,3.95-.48,1.78.99,2.05,3.57,2.53,5.46,1.2,5.15,3.27,9.99,4.27,15.21.41,2.61,1.51,5.22,4.58,4.99,2.11-.1,4.24-.53,6.26-1.32,6.13-2.2,4.33-6.6,2.74-11.03-2.12-5.65-2.97-11.83-5.36-17.35-.6-1.45-1.46-3.09-1.2-4.75.47-2.4,2.77-4.19,3.84-6.37,1.28-2.26,2.08-4.69,2.62-7.21,1.28-6.19,1.32-12.4,1.3-18.58.24-12.1-4.12-22.33-17.96-19.44-3.87,1.06-7.65,2.56-11.53,3.56-1.92.54-3.84,1.08-5.75,1.64-2.05.59-4.81,1.4-6.02,3.35-.94,1.44-.76,3.34-.89,5.12-.34,4.16-.08,8.31-.02,12.45.5,14.74-.18,29.6.11,44.36-.07,5.4-.33,10.82-.03,16.18.16,1.94.02,4.13.76,5.96ZM348.18,320.76v-.08c-.57-6.57.26-13.27.04-19.87.07-2.38-.32-5.59,1.77-7.26,3.94-2.81,10-2.46,10.66,2.88.39,4.16.07,8.45-.02,12.67-.31,3.41.26,7.42-2.17,10.22-1.65,1.95-4.06,2.93-6.43,3.49-2.16.56-3.65.47-3.85-2.04Z"/>
        <path class="cls-3" d="M389.92,356.24l.08-.02c1.48-.51,2.96-1.12,4.49-1.41,1.56-.34,3.49-.65,4.54-1.78.95-.99,1.06-2.45,1.15-3.78.08-1.76.3-3.51.34-5.27.04-1.87-.16-3.71-.18-5.56-.02-7.61.33-15.25.71-22.89-.53-11.27.14-22.67-.28-33.95-.07-2.69-.1-5.37.07-8.08.06-2.58.78-6.46-2.27-6.96-2.13-.25-5,.37-7.22,1.09-3.52,1.23-5.53,2.87-5.43,6.71-.15,4.77-.24,9.51.14,14.22.48,13.29-.49,26.66-.25,39.96-.3,6.49-.27,12.95-.07,19.4.03,1.54-.26,3.07-.26,4.62,0,2.58,1.74,4.7,4.42,3.69Z"/>
        <path class="cls-3" d="M426.02,347.32h.09c3.87.03,7.5-.85,11.22-2,5.4-1.45,9.91-5.06,12.83-10.01,3.02-4.85,4.82-10.21,5.7-15.67.29-2.31.85-4.82.39-7.07-.43-1.82-2.22-3.03-4.1-2.96-1.46.02-2.86.86-4.21,1.35-1.42.61-3.38.59-4.35,1.96-.76,1.41-.7,3.18-.97,4.71-.56,4.05-.87,8.67-4.12,11.77-2.21,2.19-5.71,3.5-8.59,2.53-3.97-1.27-4.45-9.15-4.85-12.93-.66-12.38-.89-24.87,1.44-37.4.67-3.65,1.77-7.38,4.92-9.87,2.75-2.28,6.93-2.77,8.74.11,1.46,1.78,2.13,4.06,1.69,6.48-.27,2.13-.05,4.26.38,6.3.33,1.5.84,2.28,1.86,2.53,1.7.36,4.94-.37,6.89-1.25,3.4-1.49,4.85-4.74,4.76-8.16.1-5.33.11-10.86-2.35-15.49-3.11-5.85-9.04-9.36-15.62-8.65-4.76.67-9.59,3.02-13.19,6.03-4.15,3.45-7.47,8.21-9.65,13.1-6.73,17.07-5.68,35.24-4.51,52.51.23,2.32.65,4.58,1.23,6.78,2.01,7.58,5.33,15.3,14.4,15.27Z"/>
        <path class="cls-3" d="M285.52,315.09l.08-.03c2.15-.9,4.46-1.49,6.7-2.16,3.84-1.35,3.84,1.02,4.17,4.05.3,4.05.05,8.09.06,12.15.28,15.3.13,30.65.23,45.97.03,2.86-1.25,7.33,1.95,8.56,3.38.47,8.04-.88,10.8-3.31,1.45-1.17,1.93-2.92,1.79-4.63-.08-2.14.37-4.26.38-6.4.04-2.54-.28-5.02-.31-7.52.07-5.22.03-10.43.17-15.65-.02-2.96-.31-5.88-.35-8.83-.05-2.92.2-5.88.16-8.79-.38-6.32-.36-12.67-.4-19.02-.04-1.74,1.18-3.01,2.72-3.63,2.54-1.17,5.14-1.71,7.78-2.35,2.41-.53,3.01-2,2.95-4.28.04-1.51.27-3.04.22-4.52-.07-1.6-.26-3.98-.93-5.19-.34-.51-.88-.59-1.8-.48-2.02.33-4.19.76-6.21,1.32-2.75.8-5.42,1.92-8.17,2.74-6.98,2.07-13.8,4.85-20.84,6.67-1.36.37-3.05.91-3.98,1.96-1.86,2.15-1,5.73-.9,8.35.02,2.55.28,6.2,3.74,5.01Z"/>
      </g>
      <path class="cls-2" d="M269.54,417.6c3.45.24,6.32,1.66,8.82,4.05,2.13,2.04,3.5,4.54,4.74,7.14.38.79.65,1.66,1.68,1.65.92-.1.99-.72.99-1.35.03-6.77,2.94-12.08,8.33-16.03,1.56-1.14,1.13-1.69-.37-2.12-2.8-.81-5.36-1.99-7.42-4.15-2.56-2.68-4.61-5.65-5.82-9.19-.27-.79-.71-1.73-1.79-1.64-1.34.11-.92,1.25-.98,2.04-.6,7.03-1.71,13.77-8.94,17.41-.51.25-1.05.79-.8,1.49.25.68.94.66,1.56.7Z"/>
      <path class="cls-3" d="M1076.81,361.38c-.48-5.88-3.36-12.26-8.55-15.59-.37-.22-1.67.36-2.04.15.03-6.59-.96-13.05-1.95-19.55-.99-6.51-1.01-13.25-2.97-19.52-1.96-6.29-5.22-12.11-8.1-18.02-2.89-5.92-6.28-11.51-10.04-16.91-3.76-5.4-8.38-9.98-12.97-14.71-4.57-4.71-9.2-9.21-14.53-13.11-2.38-1.84-4.19-4.25-5.95-6.61-3.45-4.4-4.92-10.02-8.81-13.7-4.01-4-9.13-5.74-14.5-6.96-5.1-1.11-10.06-3.1-15.17-4.17-5.19-1.09-10.23-2.66-15.27-3.72-.16-.03-.19.06-.35.03-5.13-1.08-10.39-2.11-15.66-3.23-5.21-1.11-10.6-1.46-15.81-2.53-4.54-.87-9.15-.95-13.68.19-6.44,1.34-9.94,7.44-15.43,10.4-2.13,1.18-4.86.31-7.27.9-6.08,1.33-11.83,4.2-17.63,6.47-5.78,2.26-11.11,5.53-16.51,8.65-5.37,3.1-11.6,5.15-16.5,9-4.88,3.83-9.56,8.23-13.88,12.72-5.26,5.45-9.14,12.06-13.29,18.24-4.15,6.19-7,13.49-10.03,20.41-5.29,1.04-9.49,3.4-12.37,8.42-3.21,5.38-7.96,9.92-10.62,15.59-2.67,5.67-4.23,11.82-6.33,17.72-2.1,5.9-5.21,11.55-6.73,17.62-1.53,6.08-1.1,12.57-2.04,18.77-.94,6.19-3.25,12.28-3.58,18.53s2.01,12.52,2.29,18.77c.29,6.26-1.5,12.72-.58,18.92.97,5.75,2,11.77,3.72,17.44,1.71,5.66,4.56,11.11,7.36,16.26,2.8,5.16,6.09,10.35,10.3,14.58,3.77,3.76,7.4,3.78,5.66-2.38-1.35-4.9-2.05-10.14-2.13-15.25.56-3.76,3.65,12.07,4.78,13.41,2.51,5.34,6.98,10.06,10.7,15.15,3.64,4.98,8.15,9.23,12.8,13.16,4.78,4.04,9.65,7.9,15.36,9.99,5.75,2.11,11.73,2.56,17.8,2.24.81-.04,1.6-.34,2.17-.91,1.47-1.46.51-3.5-.18-5.22-1.24-3.13-1.53-6.54-2.12-9.86-.15-.84.96-1.28,1.42-.56,6.31,9.97,14.06,20.14,23.37,26.98,5.66,4.16,11.34,8.14,17.97,9.42,6.25,1.21,13.19.65,20.41-1.14,5.91-1.46,11.36-5.6,17.97-9.34,4.37-2.5,8.29-5.02,12.27-7.9,2.34-1.75,7.89-3.43,4.48,1.17-2.56,3.53-8.14,5.79-11.14,9.18-.67.71-1.39,3.7-1.07,4.68,1.28,3.27,7.44,5.11,13.19,6.26,5.51,1.1,11.26-.15,14.25-.55,6.72-.58,13.27-.76,19.23-3.39,5.98-2.64,11.95-5.74,17.29-9.65,5.33-3.9,10.25-8.46,15.07-12.84,5.33-4.76,3.16.59.13,4.54-2.24,3.58-14.41,14.34-4.13,11.67,5.04-1.7,8.78-6.38,13.19-9.45,4.41-3.07,9.29-5.54,12.95-9.34,4.3-4.61,7.37-10.14,10.94-15.29,3.58-5.16,6.78-10.44,9.69-16.01,4.61-8.97,8.72-18.08,11.77-27.65.72-2.23,1.66-4.35,2.51-6.5,2.68-6.33,2.77-13.56,4.05-20.29,1.02-5.81,3.7-11.76,3.7-17.72.6-6.3,1.31-12.65,1.27-19-.04-6.31.51-12.77-.18-19.11ZM1013.57,441.45c-4.31,5.2-8.44,10.08-13.46,14.29-5.13,4.3-9.8,9.18-15.58,12.38s-11.83,6.38-18.19,8.4-13.1,1.94-19.8,2.71c-3.48.23-8.41,2.15-11.14-.4-2.2-2.08-1.42-7.87-2.55-11.28-1.15-3.91-4.71-3.73-8.97-4.09-10.43-.75-7.08,8.43-11.88,13.34-3.38,2.78-13.44.28-22.87-2.79-8.89-2.89-18.2-5.89-21.77-7.82-5.96-3.11-11.54-7.1-17.04-10.95-5.52-3.86-10.14-8.84-14.9-13.58-4.74-4.71-8.55-10.07-12.26-15.77-3.97-6.33-7.46-12.95-10.17-20.04s-4.7-14.24-5.56-21.69c-.16-11.34,7.8-6.85,13.22-2,4.32,3.42,9.14,6.04,13.76,8.98,4.62,2.94,9.18,5.89,14.14,8.29,4.77,2.03,5.6,5.5,4.08,10.88-.05.17,1,.47.96.64-1.4,6.1-.77,9.2,5.54,12.24,4.06,1.93,10.15,7,14.3,5.35,5.65-2.42,3.6-12.75,10.57-13.09,2.63,0,5.35.1,7.89.86,6.55,2.09,13.42,2.96,20.11,4.51,6.7,1.56,13.42,2.24,20.27,2.97,3.49.47,7.54,2.07,9.18,5.73,1.52,3.26.65,8.38,2.34,11.75,1.37,3.08,4.48,5.07,8.17,5.31,3.71.2,7.54-1.15,10.08-3.05,6.04-5.42.91-13.89,12.92-14.11,6.31-.17,12.41-2.94,18.65-3.65,6.25-.72,12.84.64,18.99-.75,1.96-.4,3.64-.61,5.58-.45,10.24,1.67-1.65,12.51-4.63,16.87ZM842.96,344.22c5.19-3.97,10.21-8.11,15.67-11.7,5.43-3.52,12.21-9.75,18.38-8.11,7.77,2.25,9.89,11.97,11.42,18.82,1.56,9.2,2.17,18.97.89,28.2-1.26,7.82-8.62,8.6-15.65,6.32-.18-.06-.2.05-.38,0-5-1.49-10.23-2.6-15.11-4.51-4.88-1.91-9.6-4.33-14.31-6.58-7.58-3.33-10.97-7.44-11.24-11.12-.28-3.77,3.91-6.69,10.32-11.3ZM950.54,387.47c.18-1.43.62-2.87,1.03-4.21,1.02-3.33,2.56-6.48,4.41-9.42,2.79-4.44,4.88-9.47,7.55-13.4,4.19-5.15,9.14-13.06,16.43-13.3,4.94,0,9.94,7.34,14.71,14.31,4.43,6.48,9.05,13.26,11.48,17.1,4.17,7.12,5.6,12.69,3.65,16.04-1.88,3.25-7.26,5.67-15.72,5.6-5.19.04-10.53-.32-15.81-.53-2.81-.37-5.64-1.04-8.47-1.19-2.99-.16-6,.23-8.97-.29-2.19-.39-4.29-1.27-6.13-2.52-1.39-.94-2.67-2.12-3.47-3.59-.79-1.45-.9-3.02-.7-4.6ZM877.19,286c-6.09-.4-12.26-.12-18.34-.22-6.09-.1-12.18,1.31-18.27,1.46-6.08.15-12.96.53-19.04.89,2.67-5.07,6.97-10.09,10.44-14.56,3.5-4.5,6.71-9.26,10.9-13.11,4.18-3.83,8.67-7.45,13.44-10.59,4.73-3.11,9.5-6.52,14.69-8.91,5.14-2.37,10.73-4.1,16.21-5.71,3.22-.93,6.97-.67,10.06.47,4.65,1.81,8.79,4.38,13.85,5.43,6.02,1.42,11.94,3.27,18,4.53,6.05,1.26,11.93,3.4,17.97,4.71,6.05,1.24,11.99,3.06,18.03,4.35,6.05,1.3,12.13,2.47,18.2,3.61,5.1,1.15,10.27-.68,15.29-.47,3.14.19,6.13,1.16,8.6,3.18,4.4,3.67,9.03,7.19,12.83,11.42,3.83,4.27,7.11,9.07,10.22,13.82,3.13,4.79,4.43,10.52,6.73,15.73,2.31,5.21,5.15,10.15,6.54,15.7,1.37,5.5,2.64,11.5,3,17.25-5.81-3.02-11.34-7.53-17.29-10.26-5.95-2.73-12.08-5.23-18.16-7.68-6.08-2.44-12.64-3.69-18.83-5.85-6.18-2.16-12.73-3.16-19.01-5.04s-12.68-3.1-19.03-4.7c-6.35-1.6-12.27-5.05-18.68-6.37-6.42-1.32-13.03-1.62-19.5-2.67-6.47-1.05-12.79-3.28-19.29-4.06-6.51-.78-13.05-1.86-19.57-2.37Z"/>
    </g>
  </g>
</svg>