<?xml version="1.0" encoding="UTF-8"?>
<svg id="Layer_1" xmlns="http://www.w3.org/2000/svg" version="1.1" viewBox="0 0 637 65.9">
  <!-- Generator: Adobe Illustrator 29.6.1, SVG Export Plug-In . SVG Version: 2.1.1 Build 9)  -->
  <defs>
    <style>
      .st0 {
        fill: #fff;
      }

      .st1 {
        fill: #7a4f9f;
      }
    </style>
  </defs>
  <path class="st1" d="M634.9,40.1l-13.2,20.4c-2.2,3.4-5.9,5.4-9.8,5.4H25.1c-3.9,0-7.6-2-9.8-5.4L2.1,40.1c-2.8-4.3-2.8-10,0-14.3L15.3,5.4c2.2-3.4,5.9-5.4,9.8-5.4h586.7c3.9,0,7.6,2,9.8,5.4l13.2,20.4c2.8,4.3,2.8,10,0,14.3Z"/>
  <rect class="st0" x="159.8" y="15" width="124.6" height="41.3" rx="10.5" ry="10.5"/>
  <path class="st0" d="M146.5,49.5c-.5,0-.9-.1-1.4-.4-1.1-.8-1.4-2.3-.7-3.4l5.2-7.8-5.2-7.8c-.8-1.1-.4-2.6.7-3.4s2.6-.5,3.4.7l6.1,9.1c.6.8.6,1.9,0,2.7l-6.1,9.1c-.5.7-1.2,1.1-2,1.1h0Z"/>
  <path class="st0" d="M132.4,52.7c-.6,0-1.2-.2-1.7-.5-1.4-1-1.8-2.9-.9-4.3l6.6-9.9-6.6-9.9c-1-1.4-.6-3.4.9-4.3s3.4-.6,4.3.9l7.7,11.6c.7,1,.7,2.4,0,3.5l-7.7,11.6c-.6.9-1.6,1.4-2.6,1.4h0Z"/>
  <path class="st1" d="M123,45.5c0,3.2-2.6,5.7-5.7,5.7h0c-1.3,0-2.6-.5-3.6-1.2-.6,1.2-1.5,1.9-2.3,2.3-1.3.7-2.8.7-4.2.7h-.3c-1.4,0-2.8,0-4-.5-1.9-.8-3-2.5-3-4.8,0-1,.2-2,.7-2.8h-1.8v3c0,1.2-.3,2.1-.8,3-.5.8-1.7,2.1-4.2,2.1h0c-3,0-4.9-1.5-5.3-4.1-1.6,1.5-3.6,2.2-5.9,2.2h0c-3.2,0-5.8-1.4-7.4-4.1-1.7,2.6-4.2,4-7.4,4h0c-3.1,0-5.5-1.3-7.2-3.7-.4.5-.8,1-1.2,1.3-1.7,1.5-4,2.4-6.5,2.4h0c-3.4,0-5.8-1.3-7.3-3-1.3,1.5-3.6,3-7.4,3h0c-3.4,0-5.9-1.1-7.6-3.2-1.2-1.5-1.9-3.5-1.9-5.3s1-3.8,3.2-4.6c-1.8-.8-2.9-2.4-2.9-4.4,0-3.5,2.8-8.4,9-8.4h0c3.3,0,5.9,1.3,7.5,3.5.8-1.6,2.3-3,5.3-3h5.9c1.3,0,2.4.4,3.2,1,.4.3.9.8,1.3,1.5,1.6-1.9,3.9-3,6.6-3h0c3.2,0,5.8,1.5,7.4,4.1,1.6-2.6,4.2-4.1,7.4-4.1h0c2.8,0,5,1.1,6.7,3,.2-.4.5-.7.7-1,.8-.8,2.1-1.8,4.5-1.8h13.8c2,0,3.5.6,4.6,1.7.7-.8,2-1.9,4.4-1.9h0c1.6,0,2.8.4,3.8,1.2.8.7,1.8,1.9,1.8,4.1v3.8c0,.2,0,.3,0,.5l-.9,5.9c0,.4-.1.8-.2,1.1.9,1,1.3,2.3,1.3,3.7h0s0,0,0,0Z"/>
  <path class="st1" d="M54.3,15.4v.9c0,1-.6,1.6-1.5,1.6,0,.1,0,.2,0,.3.9.4,1.1,1.4,1.1,2v1.4c0,2.2-1.7,2.2-2.8,2.2s-1.1,0-1.4-.2c-.3.4-.8.6-1.4.6-1.1,0-1.7-.6-1.7-1.7v-1.4h-.4v1c0,1.2-.8,1.7-1.7,1.7s-1.1-.2-1.4-.6c-.3.4-.8.7-1.4.7h-5c-.8,0-1.9-.1-2.7-.8h0c-.4.5-.8.9-1.5.9s-1.8-.8-1.8-1.8.4-1.1,1-1.6c.1-.1.3-.2.4-.4v-1.1c-.8-.1-1.4-.8-1.4-1.6s.6-1.7,1.7-1.7h.3s0,0,0,0c-.2-.2-.4-.4-.7-.6-.2-.1-.4-.3-.5-.4-.2-.2-.6-.6-.6-1.3s.8-1.7,1.7-1.7.9.2,1.7.8c.3-.4.7-.6,1.3-.6h5c1.8,0,2,1.2,2,1.7s0,.2,0,.3c.2-.4.6-.7,1.2-.8,0-.8.8-1.4,1.8-1.4s1.1.4,1.3.7c.3-.5.8-.8,1.5-.8s1.3.4,1.5.8c.2-.4.6-.8,1.4-.8s1.7.6,1.7,1.5c1.2.3,1.4,1.3,1.4,2.3h0s0,0,0,0Z"/>
  <path class="st0" d="M43.8,16.9c.5,0,.7-.3.7-.7v-.8c0-.2,0-.3.3-.3h6.7c.3,0,.3.1.3.3v.8c0,.5.3.7.7.7s.7-.2.7-.7v-.9c0-1.1-.2-1.4-1.3-1.4h-.6c0,0,.2-.3.2-.3.2-.2.2-.4.2-.5,0-.4-.5-.5-.8-.5-.4,0-.5.1-.7.5-.2.4-.3.6-.5.9h-1v-.8c0-.5-.3-.6-.7-.6s-.7.3-.7.6v.8h-1c-.1-.2-.3-.5-.5-.8-.2-.4-.3-.5-.7-.5s-.8.2-.8.5,0,.2.1.3c.2.2.2.4.3.5h-.5c-1.1,0-1.3.2-1.3,1.4v.9c0,.5.3.7.7.7h0Z"/>
  <path class="st0" d="M32.2,21.4c-.5.4-.6.5-.6.8s.3.8.8.8.4-.1.8-.5c.4-.4.5-.5.7-.8.2.3.8,1.3,2.8,1.3h5c.7,0,.7-.6.7-.7,0-.2,0-.7-.7-.7h-5c-2,0-2.2-1-2.3-1.5v-2.1c0-1-.2-1.3-1.3-1.3h-.8c-.5,0-.7.2-.7.7s.2.6.7.6h.5c.3,0,.3.3.3.3v2.2c-.2.2-.5.5-.8.7h0Z"/>
  <path class="st0" d="M42.1,35.6c1.2-.8,1.7-2.2,1.7-3.6,0-3.3-2.3-5.6-6.1-5.6s-6,3.8-6,5.4,1.4,1.9,2.4,1.9c2,0,2.2-1.1,2.3-1.7.2-1,.5-1.4,1.4-1.4s1.2.6,1.2,1.6-.3,1.9-1.2,1.8c-.7,0-1.9,0-1.9,2,0,2,1.3,2,1.9,2,1.7,0,1.7,1.6,1.7,2.2,0,1.4-.8,1.9-1.7,1.9-1.4,0-1.5-.9-1.7-1.8-.2-1.4-2-1.4-2.4-1.5-1.8,0-2.4,1-2.4,2s.4,2.4,1.3,3.4c1.3,1.6,3.2,2.1,5.3,2.1,6.1,0,6.5-4.7,6.5-6,0-.8-.1-3-2.3-4.7h0s0,0,0,0Z"/>
  <path class="st0" d="M117.2,40.2c1.3,0,1.5-.9,1.6-1.7l.9-5.9v-3.8c0-1.6-.9-2.2-2.6-2.2-2.5,0-2.5,1.6-2.5,2.2v3.8l.9,5.9c.1,1,.4,1.7,1.7,1.7h0Z"/>
  <path class="st0" d="M32,13.9c.3.3.9.8,1.2,1.1.3.3.4.4.7.4s.7-.4.7-.8,0-.4-.8-1c-1-.9-1.3-.9-1.5-.9-.4,0-.7.4-.7.7s.1.4.3.5h0Z"/>
  <path class="st0" d="M34.8,13.5c0-.6.4-.6.6-.6h5c.4,0,1,0,1,.7s-.2.8-1.8,1.6h1c1,0,1.3.2,1.3,1.2v3.6c0,1.1-.3,1.2-1.4,1.2s-1,0-1-.6,0-.4.3-.5h.5c.1,0,.3,0,.3-.3v-.5h-1.5v1.2c0,.5-.2.6-.7.6s-.6-.4-.6-.6v-1.2h-1.5v1.3c0,.5-.2.6-.7.6-.7,0-.7-.5-.7-.7v-4.2c0-1.1.3-1.2,1.3-1.2h.8c-.2-.1-.4-.3-.6-.4-.2-.1-.2-.2-.2-.4s0-.3.2-.4h-1c-.3,0-.6,0-.6-.6h0,0Z"/>
  <rect class="st1" x="36.3" y="17.8" width="1.5" height=".6"/>
  <path class="st1" d="M37.7,16.3h-1.2c-.2,0-.3.1-.3.3v.4h1.5v-.6h0Z"/>
  <rect class="st1" x="39" y="17.8" width="1.5" height=".6"/>
  <path class="st1" d="M39,16.3v.6h1.5v-.4c0-.2,0-.3-.3-.3h-1.2,0Z"/>
  <path class="st1" d="M37.4,14.1c.3.2,1,.7,1,.8.3-.2.5-.3.9-.5,0,0,.2-.1.2-.2s0,0-.2,0h-2,0Z"/>
  <path class="st0" d="M47.5,20.2h-2.1c-.2,0-.3.1-.3.3v1.6c0,.2,0,.7-.7.7s-.8-.3-.8-.7v-1.9c0-.9.4-1.2,1.2-1.2h2.6v-.5h-1.8c-.9,0-1.1-.2-1.1-1.1v-.5c0-.9.2-1.1,1.1-1.1h5c.9,0,1.1.2,1.1,1.1v.5c0,.9-.2,1.1-1.1,1.1h-1.8v.5h2.6c.8,0,1.2.2,1.2,1.2v1.4c0,1.2-.7,1.2-1.8,1.2s-.9,0-1,0c-.2-.1-.3-.4-.3-.6,0-.6.4-.6.7-.6s.7,0,.8,0c.2,0,.2-.2.2-.3v-.7c0-.2-.1-.3-.3-.3h-2.1v2.4c0,.2,0,.7-.7.7s-.8-.3-.8-.7v-2.4h0Z"/>
  <path class="st1" d="M50.3,17.5c.1,0,.2,0,.2-.2v-.4c0-.2,0-.2-.2-.2h-4c-.2,0-.2,0-.2.2v.4c0,.1,0,.2.2.2h4Z"/>
  <path class="st0" d="M117.1,41c-1.5,0-2.8,1.2-2.8,2.7,0,1.5,1.2,2.8,2.7,2.8,1.5,0,2.8-1.2,2.8-2.7,0-1.5-1.2-2.8-2.7-2.8Z"/>
  <path class="st0" d="M74.1,36.5c0,3.2-.7,10-6.6,10-5.9,0-6.5-6.8-6.5-10,0-3.3.7-10,6.6-10,5.9,0,6.5,6.7,6.5,10Z"/>
  <path class="st1" d="M69.1,36.5c0-1.7-.1-5.7-1.6-5.7-1.5,0-1.6,4-1.6,5.7s.1,5.7,1.6,5.7c1.5,0,1.6-4,1.6-5.7Z"/>
  <path class="st0" d="M53.4,33c-1.3,0-1.9.3-2.3.6l.2-1.9c0-.3.2-.5.5-.5h4.5c1,0,2.2-.3,2.2-2.1s-1.2-2.2-2.2-2.2h-5.9c-1.6,0-2.8.2-3,2.7l-.7,6.9c-.2,1.9,1.6,2,2.2,2,1,0,1.5-.3,2.1-.8.5-.4,1-.4,1.4-.4,1.3,0,1.8,1,1.8,2.3,0,1.3-.3,2.5-1.8,2.5s-1.3-.5-1.5-.9c-.2-.7-.6-1.6-2.5-1.6s-2.3.5-2.3,1.9,1.6,4.9,6.4,4.9c3.2,0,6.7-1.9,6.7-7.1,0-4.1-2.8-6.3-5.8-6.3h0Z"/>
  <path class="st0" d="M88.9,36.5c0,3.2-.7,10-6.6,10-5.9,0-6.5-6.8-6.5-10,0-3.3.7-10,6.6-10,5.9,0,6.5,6.7,6.5,10Z"/>
  <path class="st1" d="M83.9,36.5c0-1.7-.1-5.7-1.6-5.7-1.5,0-1.6,4-1.6,5.7s.1,5.7,1.6,5.7c1.5,0,1.6-4,1.6-5.7Z"/>
  <path class="st0" d="M111.3,30v15c0,3.2-2.1,3.2-4.5,3.2-2.4,0-4,0-4-2.2s.8-2.3,2.2-2.3,1.3,0,1.5,0c.5,0,.5-.2.5-.6v-3h-11.3s0,5.9,0,5.9c0,.8-.2,2.1-2,2.1-1.7,0-2.4-.6-2.4-2.1v-16.4c0-1.8.9-3,3-3h13.8c2,0,3.2.7,3.2,3.3h0Z"/>
  <path class="st1" d="M99.1,31h-3c-.3,0-.4.2-.4.4v4.6h3.4v-5.1h0Z"/>
  <path class="st1" d="M106.9,31.5c0-.2-.1-.4-.4-.4h-3.1v5.1h3.5v-4.6h0Z"/>
  <path class="st1" d="M387.5,41.8c0,2.6-2.2,4.9-4.7,4.9s-1.3-.1-1.8-.3c-1.4,1.6-3.7,2.6-6.5,2.6s-3.9-.5-5.3-1.3c-.8.8-2,1.3-3.4,1.3s-2.6-.5-3.5-1.4c-.7,1.1-1.8,1.6-2.5,1.9h0c-1.1.4-2.2.4-4.2.4s-2.9-.4-3.7-1c-.9.5-2.1.7-3.5.7h-5.6c-3.8,0-5.7-1.7-5.9-5.2-.4,0-.8.1-1.3.1h-5.2v1c0,2.8-1.8,4.6-4.6,4.6s-4.7-1.8-4.7-4.6v-1h-5.1c-2.7,0-4.6-1.8-4.6-4.5s1-3.6,2.6-4.3c-.2-.7-.3-1.4-.3-2.2v-5.8c0-3.8,2.2-5.9,5.9-5.9h12.4c2.5,0,4.2.9,5.2,2.6,1-1,2.5-1.6,4.5-1.6.8-1.1,2.1-1.8,3.7-1.8s3.2.8,4,1.8c1,0,1.8.1,2.5.4.7-.4,1.5-.6,2.3-.6s.6,0,.9,0c.8-1,2.1-1.6,3.6-1.6s3.2.8,4,2.2c1.2-1.1,2.7-1.3,3.2-1.3s.5,0,.8,0c1.9.2,3.9,1.5,4,4.3h.3c.9,0,1.5,0,2,0,0-1.5.7-2.4,1.2-3,.6-.6,1.7-1.4,3.5-1.4,3,0,4.4,2,4.7,4.1,2.7,0,4.6,1.9,4.6,4.6s-1.7,3.7-2.4,4.1c-.7.3-1.4.5-2,.5v.4c1.6,1,2.5,1.9,2.9,2.3,1.2,1.1,1.9,2.5,1.9,3.9h0,0Z"/>
  <path class="st0" d="M536.7,18.4h-134.5c-3.8,0-6.8,3.1-6.8,6.8v21.3c0,3.8,3.1,6.8,6.8,6.8h134.5c3.8,0,6.8-3.1,6.8-6.8v-21.3c0-3.8-3.1-6.8-6.8-6.8Z"/>
  <path class="st1" d="M607.3,39.7c.2-.4.2-.8.3-1.3l.7-6.8v-5.2c0-2.8-2-4.8-4.9-4.8s-3.3.8-4.1,2.1c-.2-.2-.5-.3-.7-.4-1-.5-2.1-.5-3-.5-2.5,0-16.1.5-17.5.6-1.1.1-2,.5-2.7,1-.6-.3-1.3-.4-2.1-.4h-.8c-.4,0-1.7,0-3,.1-.7-1.6-2.3-2.6-4.3-2.6s-2.9.7-3.5,1.4c-.3.3-.7.8-.9,1.4h0c-1.3,0-2.6,0-3.1,0h-1.3c-3.6,0-4.8,2.4-4.8,4.5s.3,2,.8,2.6c-.3.6-.5,1.4-.5,2.2,0,1.8.8,2.8,1.5,3.4-1,1.3-1.4,2.8-1.4,4.3,0,5.2,5,7.6,9.9,7.6s5.8-1.1,7.1-3.2c.2.2.4.3.5.4.8.8,1.9,1.8,3.8,1.8s4.8-2.3,4.8-4.9-.7-2.8-2.2-4c-.3-.3-.9-.8-1.8-1.3.4,0,.8-.2,1.3-.4.7-.3,2.4-1.4,2.4-4s0-.3,0-.5c.3,0,.5,0,.8,0s.6,0,1.6-.1c-.9,1.7-1.4,3.5-1.4,5.5,0,3.8,2,7.2,5.2,8.6,1.4.6,4.4,1.7,9,1.7s2.1,0,3.2-.5c1.4-.6,2.3-1.7,2.6-3.1-.3-.6-.5-1.3-.5-2.1s0-.9.2-1.3c-.5-1.2-1.6-2.1-3-2.4-.6-.2-1.1-.2-1.8-.2h-1.4c-1.7,0-2.7-.2-3.2-.3-.6-.2-.7-.3-.7-.3,0,0,0-.1,0-.4,0-1.1.7-2.1,1.5-3,0,0,0,0,0,.1,0,.1.1.3.2.4.1.2.2.5.3.7.7,1.3,2,2.1,3.4,2.1s2.2-.5,2.9-1.2c.9,0,1.8-.5,2.4-1l.2,2c0,.5.2,1,.3,1.4-.5.6-.9,1.3-1.1,2,.3.6.5,1.3.5,2s0,1-.2,1.4c.8,1.8,2.6,3,4.7,3s5.2-2.3,5.2-5.2-.5-2.5-1.3-3.4h0Z"/>
  <path class="st1" d="M598.5,41.7c-.1.4-.2.9-.2,1.3,0,.8.2,1.5.5,2.1.1-.4.2-.9.2-1.4,0-.8-.2-1.4-.5-2h0Z"/>
  <path class="st1" d="M598.5,41.7c-.1.4-.2.9-.2,1.3,0,.8.2,1.5.5,2.1.1-.4.2-.9.2-1.4,0-.8-.2-1.4-.5-2h0Z"/>
  <path class="st0" d="M327.5,37.3h8.3c.6,0,1.4.1,1.4,1.3s-.3,1.5-1.4,1.5h-8.3v4.1c0,.8-.2,1.4-1.5,1.4s-1.6-.4-1.6-1.4v-4.1h-8.2c-.5,0-1.4,0-1.4-1.3s.3-1.5,1.4-1.5h8.2v-2.2h-4.6c-1.9,0-2.8-.6-2.8-2.8v-5.8c0-2.2,1-2.8,2.8-2.8h12.4c1.8,0,2.8.6,2.8,2.8v5.8c0,2.1-.9,2.8-2.8,2.8h-4.8v2.2h0ZM332,28.2v-1.1c0-.5-.3-.8-.8-.8h-10.4c-.6,0-.8.3-.8.8v1.1h12,0ZM332,30.5h-12v1.2c0,.5.3.8.8.8h10.4c.6,0,.8-.3.8-.8v-1.2h0Z"/>
  <path class="st0" d="M347.1,30.6v1.2h3.2c.2,0,1.2,0,1.2,1s-1,1-1.2,1h-3.2v1.2h4.3c.4,0,1.2,0,1.2,1.1s-.5,1.1-1.2,1.1h-11.4c-.5,0-1.2,0-1.2-1.1s.4-1.1,1.2-1.1h4.3v-1.2h-3.3c-.9,0-1.1-.5-1.1-1,0-1,1-1,1.2-1h3.2v-1.2h-2.3c-.3,0-.9,0-1.1-.6-.1,0-.3,0-.5,0-1.2,0-1.2-.9-1.2-1.3v-1.2c0-2.3.5-2.8,2.9-2.8h2.2v-.6c0-.4,0-1.2,1.3-1.2s1.5.3,1.5,1.2v.6h2.1c2.4,0,2.9.5,2.9,2.8v1.2c0,.3,0,1.3-1.2,1.3s-.3,0-.5,0c-.3.6-.8.6-1.1.6h-2.3ZM351.2,42.5c0,2.2-.5,2.7-2.7,2.7h-5.6c-2.3,0-2.8-.5-2.8-2.7v-1.5c0-2.2.5-2.7,2.8-2.7h5.6c2.2,0,2.7.4,2.7,2.7v1.6ZM344.3,28.1c0-.3.2-.9,1-1h-3c-.5,0-.7.2-.7.7v1c0,0,.2,0,.4,0h2.3v-.6h0ZM348.5,40.9c0-.3-.1-.6-.6-.6h-4.3c-.4,0-.6.2-.6.6v1.4c0,.4.2.6.6.6h4.3c.4,0,.6-.2.6-.6v-1.4ZM349.4,28.6c.2,0,.2,0,.4,0v-1c0-.5-.2-.7-.7-.7h-3c.4,0,1.1.2,1.1,1v.6h2.3ZM355.7,39c0,.4,0,1.3-1.3,1.3s-1.4-.7-1.4-1.3v-13.2c0-.4,0-1.3,1.3-1.3s1.4.9,1.4,1.3v13.2ZM357.5,24.4c0-.5,0-1.4,1.4-1.4s1.4.7,1.4,1.4v18.2c0,.6,0,2.1-1.4,2.6-.6.2-1.3.2-3.2.2s-2.4,0-2.4-1.7,1.1-1.5,1.5-1.5c.7,0,2,0,2.1,0,.5,0,.5-.5.5-.9v-16.9h0Z"/>
  <path class="st0" d="M367.7,25.3c0,.3-.5,3.2-.5,3.8-.2,2-.3,4.1-.3,6.1s.2,4.9.4,6.5c0,.3.2,1.1.2,1.4,0,1-.7,1.4-1.5,1.4s-1.3,0-1.5-1.1c-.4-1.5-.6-5.3-.6-8.4,0-5.4.8-9.5.9-9.9.1-.5.4-1.3,1.9-1.1,1.1.1,1.2.8,1.2,1.4h0ZM376.3,25.5c0-.6,0-1.7,1.6-1.7s1.6,1,1.6,1.6v2.6c2.6,0,2.9-.1,3-.1.4,0,1.5,0,1.5,1.5s-.9,1.5-2.4,1.5c-.3,0-1.8,0-2.1,0v5.3c2.3,1.2,3.6,2.4,4,2.7.6.6.9,1.1.9,1.6,0,.9-.8,1.7-1.6,1.7s-.7-.1-1.7-1.2c-.4-.4-.8-.8-1.6-1.4,0,1,0,2-.5,2.7-.9,1.9-3.5,2-4.5,2-4.1,0-5.7-2.2-5.7-4.7s2.3-4.7,5.6-4.7,1.6.1,2.1.2v-4.2c-2.7,0-3.8,0-6.1,0s-1.6,0-1.6-1.5,1-1.5,1.9-1.5c2.7,0,3,0,5.6,0v-2.6h0ZM374.5,37.7c-.8,0-2.9.2-2.9,2.2s2.1,2,2.7,2,1.8,0,2.2-1c.2-.5.2-1.4.2-2.7-.5-.2-1.1-.4-2.1-.4h0Z"/>
  <path class="st0" d="M566.9,31.1c.9,0,4.8-.1,5.6-.1.3,0,.5,0,.6,0,.5,0,1.4,0,1.4,1.4s-.9,1.3-2,1.3c-.9,0-4.8.1-5.5.2v2.8c3,1,5.7,2.9,6.8,3.8,1,.8,1,1.3,1,1.5,0,.9-.8,1.8-1.6,1.8s-1-.3-1.7-1c-.6-.6-1.8-1.4-2.9-2.2-.6-.4-1.1-.7-1.5-.9-.1,2.4-.6,4.9-5.3,4.9s-6.7-1.5-6.7-4.5,2.3-4.5,6.6-4.5,1.8.1,2.3.2v-2c-1.9,0-4.8,0-6.6,0s-2.3,0-2.3-1.4.7-1.3,1.4-1.3c2.1,0,5.4,0,7.4,0v-2.2c-1.9,0-4.9,0-6.7,0s-2.3,0-2.3-1.4,1.1-1.3,1.7-1.3h1.3c1,0,5.2,0,6,0v-1.4c0-1.1.8-1.4,1.5-1.4s1.5.3,1.6,1.4v1.3c1,0,5.1-.1,6-.2.3,0,.5,0,.6,0,.3,0,1.4,0,1.4,1.4s-.9,1.4-2,1.4c-2.7,0-3,0-5.9.2v2.1h0,0ZM561.4,38.2c-1,0-3.5.2-3.5,2s1.6,1.9,3.4,1.9,2.4-.5,2.5-1.5c0-.4,0-.7,0-2-.5-.1-1.2-.4-2.4-.4h0Z"/>
  <path class="st0" d="M580.3,28.6c-.3,0-1.5.1-1.8.1-1.4,0-1.6-1-1.6-1.6,0-1,.4-1.5,1.5-1.6,1.2-.1,14.6-.6,17.1-.6s2.5,0,2.5,1.5-1.1,1.6-2.4,1.6c-1.9,0-3.4.4-5.8,1.9-1.6,1-4.8,3.6-4.8,7.1s2.8,4.2,7.2,4.2,2.1,0,2.5,0c.8.2,1,.8,1,1.4,0,1.8-1.4,1.8-2.9,1.8-3.4,0-6-.7-7.7-1.4-2.4-1.1-3.4-3.5-3.4-5.8s.4-4,3-6.6c1.4-1.4,2.3-1.9,3.3-2.5-2.6.2-5.3.3-7.9.5h0ZM591.9,31.5c0-.1-.1-.3-.1-.5,0-.5.5-.7.9-.7s.6.2,1.1,1.1c.3.5.9,1.7.9,2.1,0,.6-.6.8-.9.8s-.5-.2-.6-.5c-.2-.3-.4-.8-.5-1.1,0-.2-.5-1-.6-1.1h0ZM594.5,30.3c0-.2-.1-.3-.1-.5,0-.4.5-.7.8-.7s.6.3,1,1c.2.3.9,1.5.9,2.1s-.5.7-.9.7-.5-.3-.6-.4c0-.2-.5-1-.6-1.2,0-.2-.5-1-.6-1.1h0Z"/>
  <path class="st0" d="M605.4,41.9c0,1.1-.9,2-2,2s-2-.9-2-2,.9-2,2-2,2,.9,2,2ZM604.5,36.8c0,.7-.3,1.2-1,1.2s-1-.4-1.1-1.2l-.7-6.6v-5c0-.8.3-1.6,1.7-1.6s1.8.6,1.8,1.6v5l-.7,6.6h0Z"/>
  <path class="st1" d="M194.4,27.4c-1.7,0-1.9,4.8-1.9,6.8s.1,6.8,1.9,6.8,1.9-4.8,1.9-6.8-.1-6.8-1.9-6.8Z"/>
  <path class="st1" d="M258.3,27.8h-3.7v6s4.2,0,4.2,0v-5.5c0-.2-.1-.5-.5-.5h0Z"/>
  <path class="st1" d="M229.7,27.5c-1.7,0-1.9,4.8-1.9,6.8s.1,6.8,1.9,6.8,1.9-4.8,1.9-6.8-.1-6.8-1.9-6.8Z"/>
  <path class="st1" d="M245.4,28.3v5.5h4.1v-6s-3.6,0-3.6,0c-.4,0-.5.3-.5.5h0Z"/>
  <path class="st1" d="M212,27.4c-1.7,0-1.9,4.8-1.9,6.8s.1,6.8,1.9,6.8,1.9-4.8,1.9-6.8-.1-6.8-1.9-6.8Z"/>
  <g>
    <rect class="st0" x="274.5" y="9.7" width="28.9" height="16.8" rx="4.1" ry="4.1"/>
    <g>
      <path class="st1" d="M292.2,14.9c0-.1,0-.4.5-.5h-1.5c-.2,0-.3.1-.4.4v.5s.1,0,.2,0h1.1v-.3h0Z"/>
      <g>
        <path class="st1" d="M293.6,15.2h1.3v-.5c0-.2-.1-.3-.4-.3h-1.5c.2,0,.5.1.5.5v.3h0Z"/>
        <path class="st1" d="M294,20.9h-2.1c-.2,0-.3.1-.3.3v.7c0,.2.1.3.3.3h2.1c.2,0,.3-.1.3-.3v-.7c0-.2,0-.3-.3-.3h0Z"/>
        <path class="st1" d="M286.2,16.7v-.6h-5.8v.6c0,.2.1.4.4.4h5c.3,0,.4-.2.4-.4Z"/>
        <path class="st1" d="M286.2,14.5c0-.2-.1-.4-.4-.4h-5c-.3,0-.4.2-.4.4v.5h5.8v-.5h0Z"/>
        <path class="st1" d="M299.3,11.5c-.8,0-1.2.4-1.3.7,0,0,0,.2-.1.2-.2-.1-.4-.2-.8-.2s-.8.1-1,.4c-.4-.2-.8-.3-1.4-.3h-.3c-.1-.4-.5-.9-1.5-.9s-1,.3-1.2.6c0,.1-.1.2-.2.3h-.3c-.6,0-1.3,0-1.7.5-.5.5-.5,1.1-.5,1.7v.6c0,.1,0,.5.2.8,0,.1.2.3.4.4-.1.2-.2.5-.2.7,0,.1,0,.3,0,.4-.3.2-.6.5-.6,1-.2,0-.4,0-.6,0h0c.3-.4.5-.9.5-1.6v-2.8c0-1-.4-2.2-2.2-2.2h-6c-.4,0-1.1.1-1.6.6-.4.4-.6.9-.6,1.7v2.8c0,.5.1,1.1.5,1.5h0c-.5,0-.9.2-1.2.5-.3.4-.3.8-.3,1.1,0,.9.6,1.5,1.6,1.5h3.1s0,1.1,0,1.1c0,.2,0,.8.5,1.2.4.3.9.4,1.2.4.6,0,1-.2,1.3-.5s.3-.8.3-1v-1.1h3.2c.2,0,.7,0,1-.3,0,0,.2-.1.2-.2h0v.9c0,.6,0,1.2.5,1.7.5.5,1.1.5,1.7.5h2.7c.6,0,1.2,0,1.7-.5,0,0,0,0,0,0,.3.4.9.7,1.7.7,1,0,1.4,0,1.9-.2.2,0,.4-.1.5-.3.4-.3.7-.9.7-1.8v-8.8c0-1-.7-1.6-1.6-1.6h0ZM296.4,13.8c0-.2,0-.6.6-.6s.7.4.7.6v6.4c0,.2,0,.6-.6.6-.6,0-.7-.3-.7-.6v-6.4s0,0,0,0ZM289.6,18.8c0-.4.2-.5.6-.5h2.1v-.6h-1.6c-.4,0-.5-.3-.5-.5,0-.5.5-.5.6-.5h1.6v-.6h-1.1c-.1,0-.4,0-.5-.3,0,0-.1,0-.3,0-.6,0-.6-.4-.6-.6v-.6c0-1.1.2-1.4,1.4-1.4h1.1v-.3c0-.2,0-.6.6-.6s.7.1.8.6v.3h1c1.1,0,1.4.2,1.4,1.4v.6c0,.2,0,.6-.6.6-.1,0-.1,0-.2,0-.1.3-.4.3-.5.3h-1.1v.6h1.6c.1,0,.6,0,.6.5s-.5.5-.6.5h-1.6v.6h2.1c.2,0,.6,0,.6.5s-.2.5-.6.5h-5.5c-.2,0-.6,0-.6-.5h0ZM288.1,20.8h-4v2c0,.4,0,.7-.7.7-.6,0-.8-.2-.8-.7v-2h-4c-.2,0-.7,0-.7-.6s.1-.7.7-.7h4v-1.1h-2.2c-.9,0-1.4-.3-1.4-1.3v-2.8c0-1.1.4-1.4,1.3-1.4h6c.9,0,1.3.2,1.4,1.3v2.8c0,1-.4,1.4-1.3,1.4h-2.3v1.1h4c.3,0,.7,0,.7.6s-.1.7-.7.7h0ZM294.3,23.2h-2.7c-1.1,0-1.4-.2-1.4-1.3v-.8c0-1.1.2-1.3,1.3-1.3h2.7c1.1,0,1.3.2,1.3,1.3v.8c0,1.1-.2,1.3-1.3,1.3h0ZM300,13.1v8.8c0,.3,0,1-.6,1.3-.3,0-.6.1-1.6.1s-1.1,0-1.1-.8.5-.7.7-.7c.4,0,1,0,1,0,.2,0,.3-.3.3-.5v-8.2c0-.2,0-.7.6-.7s.7.3.7.7h0Z"/>
      </g>
    </g>
  </g>
  <path class="st1" d="M276.1,38.2l1.1-7c0-.1,0-.3,0-.5v-4.5c0-4.2-3.1-5.7-6.1-5.7h0c-2.4,0-4.3,1-5.2,2.6-.2-.3-.5-.5-.7-.8-1.2-1-2.8-1.6-4.8-1.6h-16.4s0,0,0,0c-2.6,0-4.1,1.1-4.9,2-.4.4-.8,1-1.1,1.8-2.5-3.5-6.1-4-8-4h0c-3.9,0-6.9,1.9-8.8,5.3-2.5-4.7-6.6-5.4-8.8-5.4h0c-3.9,0-6.9,1.9-8.8,5.3-2.5-4.7-6.6-5.4-8.8-5.4h0c-3.8,0-6.8,1.8-8.6,5-1.6-3.1-5-5-9.2-5h0c-4.3,0-6.7,2-8.1,3.6-1.6,2-2.1,4.3-2.1,5.8,0,1.9.9,3.5,2.4,4.4.7.4,1.5.7,2.4.8v.2c-2.6.2-5.3,1.9-5.3,5.3s.8,4.2,2.2,6c1.9,2.4,4.8,3.6,8.6,3.6h0c5.2,0,7.8-2.4,9.1-4.4v-.2c2,3,4.8,4.6,8.5,4.6h0c3.9,0,7-1.9,8.8-5.3,1.8,3.5,4.8,5.4,8.8,5.4h0c3.9,0,7-1.9,8.8-5.3,1.8,3.5,4.8,5.4,8.8,5.4h0c3.1,0,5.6-1.2,7.5-3.3h0c0,1.8.6,3.2,1.7,4.2,1,.9,2.4,1.3,4.2,1.3h0c2.7,0,4-1.4,4.6-2.3.6-.9.9-2,.9-3.2v-4h3.7c-.8,1-1.3,2.3-1.3,3.8,0,3.4,2,4.7,3.2,5.2,1.4.5,2.9.5,4.6.6h.2c2.3,0,6.3-.1,7.7-3.9,1.1,1.1,2.7,1.8,4.4,1.8h0c1.7,0,3.3-.7,4.4-1.8,1.1-1.1,1.9-2.7,1.9-4.4s-.6-3.2-1.7-4.3c.2-.5.3-1,.4-1.5h0ZM176.8,46c-2.5,0-4.7-.5-6.2-2.5-1-1.3-1.5-2.8-1.5-4.1s.7-2.3,2.8-2.3,2.6,0,2.9,1.7c.2,1,.3,2.1,2,2.1s2-.6,2-2.2c0-.7,0-2.6-2.1-2.6s-2.3,0-2.3-2.3c0-2.3,1.4-2.3,2.3-2.3s1.4-.9,1.4-2.2-.6-1.9-1.4-1.9-1.5.4-1.7,1.6c0,.7-.3,2-2.7,2s-2.8-.4-2.8-2.3c0-1.9,1.5-6.4,7.2-6.4,4.5,0,7.3,2.7,7.2,6.7,0,1.7-.6,3.3-2,4.3,2.6,2,2.7,4.6,2.7,5.6,0,1.5-.5,7.2-7.8,7.2h0s0,0,0,0ZM194.4,46c-7,0-7.7-8.1-7.7-11.9,0-3.9.8-11.8,7.8-11.8,7,0,7.8,7.9,7.8,11.9,0,3.9-.8,11.8-7.8,11.8h0ZM212,46c-7,0-7.7-8.1-7.7-11.9,0-3.9.8-11.8,7.8-11.8,7,0,7.8,7.9,7.8,11.9,0,3.9-.8,11.8-7.8,11.8h0ZM229.6,46.1c-7,0-7.7-8.1-7.7-11.9,0-3.9.8-11.8,7.8-11.8,7,0,7.8,7.9,7.8,11.9,0,3.9-.8,11.8-7.8,11.8h0ZM264,44.5c0,3.9-2.4,3.9-5.3,3.8-2.8,0-4.8,0-4.8-2.7s.9-2.7,2.6-2.7,1.5,0,1.7,0c.6,0,.6-.2.6-.7v-3.5h-13.4s0,7.1,0,7.1c0,1-.2,2.5-2.4,2.5-2,0-2.8-.7-2.8-2.5v-19.5c0-2.1,1.1-3.6,3.6-3.6h16.4c2.4,0,3.8.9,3.8,3.9v17.8s0,0,0,0h0ZM268,25.1c0-.7,0-2.6,3-2.6s3.1.7,3.1,2.6v4.6l-1.1,7c-.1.9-.4,2-1.9,2s-1.9-.8-2-2l-1-7v-4.5h0ZM271,46.2c-1.8,0-3.3-1.5-3.3-3.3s1.5-3.3,3.3-3.3,3.3,1.5,3.3,3.3-1.5,3.3-3.3,3.3Z"/>
  <g>
    <path class="st1" d="M403,32.3c-.7,0-1.4-.5-1.4-1.6s.8-1.4,1.8-1.5c.5,0,2.2-.4,3-2.5.3-.8.5-1.4,1.8-1.4s1.7.7,1.7,1.3v17.4c0,.8-.2,1.9-1.9,1.9s-2.1-.3-2.1-1.9v-11.7h-2.8Z"/>
    <path class="st1" d="M429.6,35.6c0,3.6-.7,10.3-6.8,10.3s-6.8-6.7-6.8-10.3.2-5.5,1.9-8c1.3-1.9,3.7-2.3,4.8-2.3,6,0,6.8,6.5,6.8,10.3ZM420,35.6c0,1.6,0,6.9,2.7,6.9s2.7-5.4,2.7-6.9,0-6.9-2.7-6.9-2.7,5.4-2.7,6.9Z"/>
    <path class="st1" d="M437.4,40.3c-.2,1.8-.4,3.4-1.2,5.2-1,2.1-1.6,2.2-2.3,2.2-1.2,0-2.3-.8-2.3-1.8s.2-.9.6-1.6c.7-1.2,1.9-3.2,1.9-8.3v-7.2c0-2.5,1.2-3.2,3.2-3.2h10.9c2,0,3.2.6,3.2,3.2v15.4c0,3.3-1.8,3.3-5.1,3.3s-2.2,0-2.7-.2c-1-.3-1.2-1.2-1.2-1.9,0-1.8,1.1-1.8,1.8-1.8s1.7,0,2.2,0c.8,0,1.3,0,1.3-.8v-2.6h-10.3ZM447.7,31.4v-1.4c0-.5-.2-.7-.7-.7h-8.4c-.6,0-.7.3-.7.7v1.4h9.9ZM437.7,34.7v2.2h9.9v-2.2h-9.9Z"/>
    <path class="st1" d="M462.2,32.4c4.1,0,6,3.2,6,6.6s-2.1,7-6.6,7-4.2-1.2-5-2.3c-.9-1.1-2-2.9-2-7.5s.8-10.8,7.3-10.8,6,3.1,6,4.4-.4,1.6-2,1.6-1.7-.6-2-1.5c-.3-.8-1-1.2-2-1.2s-2.9.3-3.1,5c.8-.7,1.5-1.3,3.4-1.3ZM458.8,39.1c0,2.4,1.2,3.4,2.7,3.4s2.6-.9,2.6-3.5-1.3-3.4-2.6-3.4-2.7,1.2-2.7,3.5Z"/>
    <path class="st1" d="M490.1,43.6c0,2.5-1.2,3.3-3.3,3.3h-12.1c-2.1,0-3.3-.7-3.3-3.3v-14.6c0-2.5,1.2-3.3,3.3-3.3h12.1c2.1,0,3.3.7,3.3,3.3v14.6ZM486.2,34.4v-4.3c0-.6-.4-.8-.8-.8h-9.3c-.6,0-.8.4-.8.8v4.3h10.9ZM475.3,37.9v4.7c0,.4.2.8.8.8h9.3c.5,0,.8-.3.8-.8v-4.7h-10.9Z"/>
    <path class="st1" d="M503.6,25.7c.5-.5,1.1-.9,1.8-.9s1.6.6,1.6,1.5-.2.8-.9,1.6c-1,1-3.1,3.3-3.1,8.5s2.2,7.5,3.1,8.5c.7.7.9,1,.9,1.6s-.7,1.5-1.6,1.5-1.3-.3-2.7-1.9c-2.3-2.7-3.5-6.1-3.5-9.6s1.6-7.9,4.3-10.6Z"/>
    <path class="st1" d="M514.7,40.3c-.2,1.8-.4,3.4-1.2,5.2-1,2.1-1.6,2.2-2.3,2.2-1.2,0-2.3-.8-2.3-1.8s.2-.9.6-1.6c.7-1.2,1.9-3.2,1.9-8.3v-7.2c0-2.5,1.2-3.2,3.2-3.2h10.9c2,0,3.2.6,3.2,3.2v15.4c0,3.3-1.8,3.3-5.1,3.3s-2.2,0-2.7-.2c-1-.3-1.2-1.2-1.2-1.9,0-1.8,1.1-1.8,1.8-1.8s1.7,0,2.2,0c.8,0,1.3,0,1.3-.8v-2.6h-10.3ZM525,31.4v-1.4c0-.5-.2-.7-.7-.7h-8.4c-.6,0-.7.3-.7.7v1.4h9.9ZM515,34.7v2.2h9.9v-2.2h-9.9Z"/>
    <path class="st1" d="M535.2,46.8c-.5.5-1.1.9-1.8.9s-1.6-.6-1.6-1.5.2-.8.9-1.6c1-1,3.1-3.3,3.1-8.5s-2.2-7.5-3.1-8.5c-.7-.7-.9-1-.9-1.6s.7-1.5,1.6-1.5,1.3.3,2.7,1.9c2.3,2.7,3.5,6.1,3.5,9.6s-1.6,7.9-4.3,10.6Z"/>
  </g>
</svg>