<?xml version="1.0" encoding="UTF-8"?>
<svg id="Layer_1" xmlns="http://www.w3.org/2000/svg" version="1.1" viewBox="0 0 458 127">
  <!-- Generator: Adobe Illustrator 29.6.1, SVG Export Plug-In . SVG Version: 2.1.1 Build 9)  -->
  <defs>
    <style>
      .st0 {
        fill: #f7f0e5;
      }

      .st1 {
        fill: #7a4f9f;
      }
    </style>
  </defs>
  <path class="st0" d="M454,49.8l-25.5-39.3C424.2,3.9,417.2,0,409.7,0H48.4C40.9,0,33.8,3.9,29.5,10.5L4,49.8c-5.3,8.3-5.3,19.2,0,27.5l25.5,39.3c4.3,6.5,11.3,10.4,18.8,10.4h361.3c7.5,0,14.6-3.9,18.8-10.4l25.5-39.3c5.4-8.3,5.4-19.2,0-27.5h0Z"/>
  <rect class="st1" x="221.2" y="18.3" width="158.5" height="52.5" rx="13.4" ry="13.4"/>
  <path class="st1" d="M204.3,62.3c-.6,0-1.2-.2-1.7-.5-1.4-1-1.8-2.9-.9-4.3l6.6-9.8-6.6-9.8c-1-1.4-.6-3.4.9-4.3s3.4-.6,4.3.9l7.7,11.6c.7,1,.7,2.4,0,3.5l-7.7,11.6c-.6.9-1.6,1.4-2.6,1.4h0Z"/>
  <path class="st1" d="M186.4,66.3c-.8,0-1.5-.2-2.2-.7-1.8-1.2-2.3-3.7-1.1-5.5l8.4-12.6-8.4-12.6c-1.2-1.8-.7-4.3,1.1-5.5s4.3-.7,5.5,1.1l9.8,14.8c.9,1.3.9,3.1,0,4.4l-9.8,14.8c-.8,1.2-2,1.8-3.3,1.8h0Z"/>
  <path class="st1" d="M174.4,57.2c0,4-3.3,7.3-7.3,7.3h0c-1.7,0-3.3-.6-4.5-1.6-.8,1.5-1.9,2.4-3,3-1.7.9-3.6.9-5.3.9h-.4c-1.8,0-3.5,0-5.1-.6-2.4-1-3.8-3.2-3.8-6.1,0-1.3.3-2.5.9-3.6h-2.3v3.8c0,1.5-.3,2.7-1,3.8-.6,1-2.2,2.7-5.3,2.7h0c-3.8,0-6.2-1.9-6.7-5.2-2,1.9-4.6,2.8-7.5,2.8h0c-4.1,0-7.3-1.8-9.4-5.2-2.1,3.3-5.4,5.1-9.4,5.1h0c-3.9,0-7.1-1.7-9.2-4.8-.5.7-1,1.2-1.5,1.7-2.2,1.9-5.1,3-8.3,3h0c-4.3,0-7.4-1.7-9.3-3.9-1.7,1.9-4.5,3.8-9.4,3.8h0c-4.3,0-7.5-1.3-9.7-4.1-1.5-1.9-2.5-4.5-2.5-6.7s1.3-4.9,4.1-5.9c-2.2-1-3.6-3-3.6-5.6,0-4.4,3.6-10.7,11.5-10.7h0c4.2,0,7.5,1.7,9.6,4.4,1-2.1,2.9-3.8,6.8-3.8h7.5c1.6,0,3,.4,4.1,1.3.5.3,1.1,1,1.6,1.9,2.1-2.4,4.9-3.8,8.4-3.8h0c4.1,0,7.3,1.9,9.4,5.2,2.1-3.3,5.3-5.2,9.4-5.2h0c3.5,0,6.4,1.4,8.5,3.9.3-.5.6-.9.9-1.2,1-1,2.7-2.3,5.7-2.3h17.6c2.5,0,4.5.8,5.9,2.2.8-1,2.5-2.5,5.7-2.5h0c2,0,3.6.5,4.8,1.5,1.1.8,2.3,2.4,2.3,5.2v4.9c0,.2,0,.4,0,.6l-1.2,7.5c0,.5-.2,1-.3,1.4,1.1,1.3,1.7,3,1.7,4.7h0s0,0,0,0Z"/>
  <path class="st1" d="M87.1,18.8v1.2c0,1.2-.8,2-2,2.1,0,.1,0,.3,0,.4,1.2.5,1.4,1.7,1.4,2.5v1.8c0,2.8-2.2,2.8-3.5,2.8s-1.4,0-1.8-.2c-.4.6-1.1.8-1.7.8-1.4,0-2.2-.8-2.2-2.2v-1.7h-.5v1.2c0,1.5-1.1,2.2-2.1,2.2s-1.4-.3-1.8-.8c-.4.6-1,.9-1.8.9h-6.4c-1.1,0-2.4-.2-3.5-1,0,0,0,0,0,0-.5.6-1,1.1-1.9,1.1s-2.3-1.1-2.3-2.3.5-1.4,1.3-2c.1-.1.3-.3.5-.5v-1.5c-1-.1-1.8-1-1.8-2.1s.8-2.2,2.2-2.2h.4s0,0,0-.1c-.2-.2-.6-.5-.9-.8-.2-.2-.4-.4-.6-.5-.2-.2-.8-.7-.8-1.6s1-2.2,2.2-2.2,1.2.2,2.2,1.1c.3-.4.9-.8,1.7-.8h6.4c2.3,0,2.5,1.5,2.5,2.1s0,.2,0,.3c.3-.6.8-.9,1.5-1.1,0-1.1,1-1.8,2.2-1.8s1.4.5,1.7.9c.3-.6,1-1,1.8-1s1.7.5,2,1.1c.3-.5.8-1,1.8-1s2.2.8,2.2,1.9c1.6.4,1.8,1.7,1.8,2.9h0s0,0,0,0Z"/>
  <path class="st0" d="M73.7,20.8c.6,0,.8-.3.8-.8v-1c0-.3.1-.4.4-.4h8.6c.3,0,.4.2.4.4v1c0,.7.4.8.9.8s.8-.3.8-.8v-1.2c0-1.4-.3-1.8-1.7-1.8h-.7c0,0,.2-.4.3-.4.2-.3.3-.5.3-.7,0-.5-.6-.7-.9-.7-.5,0-.6.2-.9.7-.3.6-.4.7-.7,1.1h-1.3v-1c0-.6-.3-.8-.9-.8s-.8.4-.8.8v1h-1.3c-.1-.3-.4-.7-.6-1.1-.3-.5-.4-.7-.9-.7s-1,.2-1,.7,0,.3.2.4c.2.3.3.4.4.6h-.7c-1.4,0-1.7.3-1.7,1.8v1.2c0,.7.4.8.9.8h0,0Z"/>
  <path class="st0" d="M58.9,26.6c-.7.6-.8.6-.8,1.1s.4,1.1,1,1.1.5-.2,1-.7c.5-.5.6-.7.9-1,.2.4,1,1.6,3.5,1.6h6.4c.9,0,.9-.8.9-.9,0-.3,0-.8-.9-.8h-6.4c-2.5,0-2.8-1.2-2.9-1.9v-2.7c0-1.3-.3-1.6-1.6-1.6h-1c-.7,0-.9.3-.9.9s.2.8.8.8h.6c.3,0,.3.3.3.4v2.8c-.2.2-.7.7-1,.9h0Z"/>
  <path class="st0" d="M71.5,44.6c1.5-1.1,2.2-2.8,2.2-4.6,0-4.2-3-7.1-7.8-7.1-6,0-7.7,4.8-7.7,6.9s1.7,2.4,3,2.4c2.6,0,2.8-1.5,2.9-2.2.2-1.3.7-1.7,1.8-1.7.9,0,1.5.7,1.5,2s-.3,2.4-1.6,2.3c-.9,0-2.4,0-2.4,2.5,0,2.5,1.7,2.5,2.4,2.5,2.2,0,2.2,2,2.2,2.7,0,1.8-1,2.4-2.1,2.4-1.8,0-2-1.2-2.1-2.2-.3-1.8-2.5-1.8-3-1.8-2.3,0-3,1.2-3,2.5s.5,3,1.6,4.3c1.7,2.1,4,2.7,6.7,2.7,7.8,0,8.3-6,8.3-7.6,0-1.1-.1-3.8-2.9-6h0s0,0,0,0Z"/>
  <path class="st0" d="M167,50.4c1.7,0,1.9-1.1,2.1-2.1l1.2-7.5v-4.9c0-2.1-1.2-2.8-3.3-2.8-3.1,0-3.2,2.1-3.2,2.8v4.9l1.1,7.5c.2,1.3.5,2.1,2.2,2.1h0Z"/>
  <path class="st0" d="M58.7,17c.4.4,1.1,1,1.5,1.4.4.4.6.5.9.5s.9-.5.9-1,0-.5-1-1.2c-1.3-1.1-1.6-1.2-1.9-1.2-.5,0-.9.5-.9.9s.2.5.4.7h0Z"/>
  <path class="st0" d="M62.3,16.5c0-.7.6-.7.8-.7h6.4c.5,0,1.2,0,1.2.8s-.2,1-2.3,2.1h1.2c1.3,0,1.6.3,1.6,1.6v4.5c0,1.5-.4,1.6-1.8,1.6s-1.2,0-1.2-.8,0-.5.4-.6c0,0,.6,0,.6,0,.1,0,.4,0,.4-.4v-.6h-1.9v1.6c0,.6-.3.8-.9.8s-.8-.5-.8-.8v-1.6h-1.8v1.6c0,.6-.3.8-.8.8-.8,0-.8-.6-.8-.9v-5.3c0-1.4.4-1.6,1.6-1.6h1c-.2-.2-.5-.4-.8-.6-.2-.1-.3-.2-.3-.4s.1-.3.3-.5h-1.3c-.3,0-.8,0-.8-.7h0Z"/>
  <rect class="st1" x="64.1" y="22" width="1.8" height=".8"/>
  <path class="st1" d="M65.9,20h-1.5c-.2,0-.3.1-.3.3v.4h1.8v-.8h0,0Z"/>
  <rect class="st1" x="67.6" y="22" width="1.9" height=".8"/>
  <path class="st1" d="M67.6,20v.8h1.9v-.4c0-.2-.1-.3-.3-.3h-1.6Z"/>
  <path class="st1" d="M65.5,17.2c.4.3,1.2.9,1.3,1,.4-.2.6-.3,1.1-.6,0,0,.2-.1.2-.2s-.1,0-.2,0h-2.5,0Z"/>
  <path class="st0" d="M78.4,25h-2.7c-.3,0-.4.1-.4.4v2.1c0,.2,0,.9-.9.9s-.9-.4-.9-.9v-2.5c0-1.2.5-1.6,1.6-1.6h3.3v-.6h-2.2c-1.1,0-1.4-.3-1.4-1.5v-.7c0-1.2.2-1.5,1.4-1.5h6.3c1.1,0,1.4.3,1.4,1.5v.7c0,1.2-.3,1.5-1.4,1.5h-2.3v.6h3.3c1,0,1.6.3,1.6,1.6v1.8c0,1.6-.9,1.6-2.3,1.6s-1.1,0-1.2-.1c-.3-.1-.4-.5-.4-.8,0-.8.5-.8.9-.8s.9,0,1,0c.2,0,.2-.2.2-.4v-.9c0-.3-.2-.4-.4-.4h-2.7v3c0,.2,0,.9-.9.9s-.9-.4-.9-.9v-3h0s0,0,0,0Z"/>
  <path class="st1" d="M81.9,21.6c.2,0,.3,0,.3-.3v-.5c0-.2-.1-.3-.3-.3h-5.2c-.2,0-.3.1-.3.3v.5c0,.2,0,.3.3.3h5.2Z"/>
  <path class="st0" d="M166.9,51.5c-1.9,0-3.5,1.5-3.5,3.5,0,1.9,1.6,3.5,3.5,3.5,1.9,0,3.5-1.6,3.5-3.5,0-2-1.6-3.5-3.5-3.5Z"/>
  <path class="st0" d="M112.2,45.7c0,4.1-.9,12.7-8.4,12.7-7.5,0-8.3-8.7-8.3-12.7,0-4.2.8-12.7,8.3-12.7,7.5,0,8.3,8.5,8.3,12.7Z"/>
  <path class="st1" d="M105.8,45.7c0-2.1-.1-7.2-2-7.3-1.9,0-2,5.1-2,7.2s.1,7.2,2,7.3c1.9,0,2-5.1,2-7.2Z"/>
  <path class="st0" d="M85.9,41.3c-1.7,0-2.4.4-2.9.8l.2-2.4c0-.4.3-.6.7-.6h5.8c1.3,0,2.7-.4,2.7-2.7s-1.5-2.7-2.7-2.7h-7.5c-2,0-3.5.3-3.8,3.4l-.9,8.7c-.3,2.4,2,2.5,2.7,2.5,1.3,0,1.9-.4,2.6-1,.6-.5,1.3-.5,1.8-.5,1.6,0,2.3,1.3,2.3,3,0,1.6-.4,3.2-2.3,3.2s-1.6-.6-1.9-1.2c-.3-.9-.8-2.1-3.2-2.1s-2.9.6-2.9,2.4,2,6.3,8.2,6.3c4.1,0,8.5-2.5,8.5-9,0-5.2-3.6-8-7.4-8h0Z"/>
  <path class="st0" d="M131.1,45.7c0,4.1-.9,12.7-8.4,12.7-7.5,0-8.3-8.7-8.3-12.7,0-4.2.8-12.7,8.3-12.7,7.5,0,8.3,8.5,8.3,12.7Z"/>
  <path class="st1" d="M124.7,45.7c0-2.1-.1-7.2-2-7.3-1.9,0-2,5.1-2,7.2s.1,7.2,2,7.3c1.9,0,2-5.1,2-7.2Z"/>
  <path class="st0" d="M159.5,37.5v19.1c0,4.1-2.6,4.1-5.8,4.1-3,0-5.1,0-5.1-2.9s1-2.9,2.8-2.9,1.6,0,1.9,0c.6,0,.6-.2.6-.7v-3.8h-14.3s0,7.5,0,7.5c0,1-.2,2.7-2.6,2.7-2.2,0-3-.8-3-2.7v-20.9c0-2.3,1.1-3.8,3.9-3.8h17.6c2.5,0,4.1,1,4.1,4.2h0,0Z"/>
  <path class="st1" d="M144,38.8h-3.9c-.4,0-.6.3-.6.5v5.9h4.4v-6.4h0Z"/>
  <path class="st1" d="M153.9,39.3c0-.3-.2-.6-.6-.6h-4v6.4h4.5v-5.9h0s0,0,0,0Z"/>
  <rect class="st1" x="367.1" y="11.6" width="36.8" height="21.3" rx="5.2" ry="5.2"/>
  <path class="st0" d="M265.2,34.1c-2.2,0-2.4,6.1-2.4,8.6s.1,8.6,2.4,8.6,2.4-6.1,2.4-8.6-.1-8.6-2.4-8.6Z"/>
  <path class="st0" d="M346.5,34.7h-4.7v7.6s5.3,0,5.3,0v-7c0-.3-.2-.7-.6-.7h0Z"/>
  <path class="st0" d="M310.1,34.2c-2.2,0-2.4,6.1-2.4,8.6s.1,8.6,2.4,8.6,2.4-6.1,2.4-8.6-.1-8.6-2.4-8.6Z"/>
  <path class="st0" d="M330.2,35.3v7h5.2v-7.6s-4.6,0-4.6,0c-.5,0-.7.3-.7.7h0Z"/>
  <path class="st0" d="M287.7,34.2c-2.2,0-2.4,6.1-2.4,8.6s.1,8.6,2.4,8.6,2.4-6.1,2.4-8.6-.1-8.6-2.4-8.6Z"/>
  <g>
    <path class="st0" d="M389.7,18.2c0-.2.1-.6.6-.6h-1.9c-.3,0-.4.1-.4.4v.6c0,0,.1,0,.2,0h1.4v-.4h0Z"/>
    <g>
      <path class="st0" d="M391.4,18.6h1.4c.1,0,.1,0,.2,0v-.6c0-.3-.2-.4-.5-.4h-1.9c.2,0,.7.1.7.6v.4h0Z"/>
      <path class="st0" d="M392,25.8h-2.7c-.3,0-.4.1-.4.4v.8c0,.2.1.4.4.4h2.7c.3,0,.4-.2.4-.4v-.8c0-.2,0-.4-.4-.4h0Z"/>
      <path class="st0" d="M382.1,20.5v-.7h-7.4v.8c0,.3.2.5.5.5h6.4c.4,0,.5-.2.5-.6h0Z"/>
      <path class="st0" d="M382,17.7c0-.3-.2-.5-.5-.5h-6.4c-.4,0-.5.2-.5.5v.7h7.4v-.7h0Z"/>
      <path class="st0" d="M398.6,13.9c-1,0-1.5.6-1.7.9,0,.1-.1.2-.1.3-.2-.1-.6-.2-1-.2s-1,.2-1.3.5c-.5-.2-1-.3-1.8-.3h-.3c-.2-.5-.7-1.1-1.9-1.1s-1.3.4-1.6.7c0,.1-.2.3-.2.4h-.4c-.8,0-1.6,0-2.2.7-.6.6-.7,1.4-.7,2.2v.7c0,.2,0,.6.3,1.1,0,.1.2.4.5.5-.2.3-.2.6-.2.9,0,.2,0,.4,0,.5-.4.3-.7.7-.8,1.2-.2,0-.5-.1-.8-.1h0c.4-.5.6-1.1.6-2v-3.6c0-1.3-.5-2.8-2.9-2.8h-7.6c-.6,0-1.4.1-2,.7-.5.5-.8,1.2-.8,2.2v3.6c0,.7.2,1.4.6,2h0c-.7,0-1.2.2-1.5.6-.4.5-.4,1-.4,1.4,0,1.2.8,1.9,2,1.9h4s0,1.4,0,1.4c0,.2,0,1,.6,1.5.5.4,1.1.5,1.5.5.7,0,1.2-.2,1.6-.7s.4-1,.4-1.3v-1.4h4c.3,0,.9,0,1.3-.4.1,0,.2-.2.3-.3h0v1.1c0,.8.1,1.6.7,2.1.6.6,1.4.6,2.1.6h3.4c.8,0,1.6-.1,2.1-.7,0,0,0,0,0,0,.4.6,1.1.9,2.2.8,1.3,0,1.8,0,2.4-.2.2,0,.4-.2.6-.4.5-.4.9-1.1.9-2.3v-11.2c0-1.2-.8-2-2.1-2h0ZM395,16.9c0-.2,0-.8.8-.8s.8.5.8.8v8.1c0,.2,0,.8-.8.8-.8,0-.8-.4-.8-.8,0,0,0-8.1,0-8.1ZM386.3,23.2c0-.5.3-.7.8-.7h2.7v-.8h-2c-.6,0-.7-.3-.7-.6,0-.6.6-.6.7-.6h2v-.8h-1.4c-.2,0-.6,0-.7-.4,0,0-.2,0-.3,0-.7,0-.8-.5-.8-.8v-.7c0-1.4.3-1.8,1.8-1.8h1.4v-.4c0-.3,0-.7.8-.7s.9.2,1,.7v.4h1.3c1.5,0,1.8.3,1.8,1.7v.7c0,.2,0,.8-.8.8-.1,0-.2,0-.3,0-.2.4-.5.4-.7.4h-1.4v.8h2c.1,0,.7,0,.7.6s-.6.6-.7.6h-2v.8h2.7c.3,0,.7,0,.7.7,0,.5-.3.7-.7.7h-7c-.3,0-.8,0-.8-.6h0s0,0,0,0ZM379.3,24h5.1c.4,0,.9,0,.9.8s-.1.9-.9.9h-5.1s0,2.6,0,2.6c0,.5-.1.9-.9.9-.7,0-1-.2-1-.9v-2.5s-5.1,0-5.1,0c-.3,0-.9,0-.9-.8s.2-.9.9-.9h5.1v-1.4h-2.9c-1.1,0-1.7-.4-1.7-1.7v-3.6c0-1.3.5-1.7,1.7-1.7h7.6c1.1,0,1.7.3,1.7,1.6v3.6c0,1.3-.5,1.7-1.7,1.7h-2.9v1.4M392.3,28.8h-3.4c-1.4,0-1.7-.2-1.7-1.6v-1c0-1.4.3-1.7,1.7-1.7h3.4c1.4,0,1.7.2,1.7,1.6v1c0,1.4-.3,1.7-1.7,1.7h0ZM399.5,15.9v11.2c0,.4,0,1.3-.8,1.6-.4.1-.8.1-2,.1-.7,0-1.5,0-1.5-1,0-.9.7-.9.9-.9.5,0,1.2,0,1.3,0,.3,0,.3-.3.3-.6v-10.4c0-.3,0-.9.8-.9s.9.4.9.9h0Z"/>
    </g>
  </g>
  <path class="st0" d="M369.1,47.9l1.4-8.9c0-.2,0-.4,0-.6v-5.8c0-5.3-4-7.2-7.8-7.2h0c-3.1,0-5.4,1.2-6.6,3.3-.3-.4-.6-.7-.9-1-1.5-1.3-3.5-2-6.1-2h-20.8s0,0,0,0c-3.3,0-5.2,1.4-6.3,2.5-.5.5-1,1.2-1.4,2.2-3.2-4.4-7.7-5.1-10.2-5.1h0c-5,0-8.8,2.4-11.2,6.8-3.1-5.9-8.5-6.8-11.2-6.8h0c-5,0-8.8,2.4-11.2,6.8-3.1-5.9-8.5-6.8-11.2-6.8h0c-4.9,0-8.6,2.3-11,6.4-2.1-4-6.3-6.4-11.7-6.4h0c-5.4,0-8.6,2.5-10.2,4.6-2,2.5-2.7,5.5-2.7,7.4,0,2.4,1.1,4.5,3.1,5.6.9.5,1.9.9,3.1,1v.2c-3.4.2-6.7,2.4-6.8,6.8,0,2.6,1,5.4,2.8,7.6,2.5,3.1,6.1,4.6,11,4.6h0c6.6,0,9.9-3,11.6-5.5v-.2c2.5,3.8,6.1,5.8,10.8,5.8h0c4.9,0,8.9-2.4,11.2-6.8,2.3,4.4,6.1,6.8,11.2,6.8h0c4.9,0,8.9-2.4,11.2-6.8,2.3,4.4,6.1,6.8,11.2,6.8h0c3.9,0,7.2-1.5,9.5-4.3h0c0,2.3.7,4.1,2.1,5.3,1.3,1.2,3,1.7,5.3,1.7h0c3.4,0,5.1-1.8,5.8-2.9.7-1.2,1.1-2.5,1.1-4.1v-5.2h4.7c-1,1.3-1.7,2.9-1.7,4.9,0,4.3,2.6,5.9,4.1,6.6,1.8.7,3.7.7,5.8.7h.3c2.9,0,8.1-.2,9.8-5,1.4,1.4,3.4,2.3,5.6,2.3h0c2.2,0,4.2-.9,5.6-2.3,1.4-1.4,2.4-3.5,2.4-5.6s-.8-4-2.1-5.5c.2-.7.4-1.3.5-1.9h0,0ZM242.8,57.8c-3.2,0-6-.7-7.9-3.2-1.3-1.6-1.9-3.6-1.9-5.2s.9-3,3.6-3,3.3,0,3.6,2.2c.2,1.2.4,2.7,2.5,2.7s2.5-.8,2.5-2.9c0-.9,0-3.3-2.6-3.3s-2.9,0-2.9-3c0-3,1.8-3,2.9-3s1.8-1.2,1.8-2.8-.7-2.4-1.8-2.4-1.9.4-2.1,2c-.1.8-.4,2.6-3.4,2.6s-3.6-.5-3.6-2.9c0-2.4,2-8.2,9.1-8.1,5.7,0,9.2,3.5,9.2,8.5,0,2.2-.8,4.2-2.6,5.5,3.3,2.5,3.4,5.8,3.4,7.1,0,2-.7,9.1-9.9,9.1h0s0,0,0,0ZM265.2,57.8c-8.9,0-9.8-10.3-9.8-15.1,0-5,1-15.1,9.9-15,8.9,0,9.9,10.1,9.9,15.1,0,4.9-1,15.1-9.9,15,0,0,0,0,0,0ZM287.6,57.9c-8.9,0-9.8-10.3-9.8-15.1,0-5,1-15.1,9.9-15,8.9,0,9.9,10.1,9.9,15.1,0,4.9-1,15.1-9.9,15h0ZM310.1,57.9c-8.9,0-9.8-10.3-9.8-15.1,0-5,1-15.1,9.9-15,8.9,0,9.9,10.1,9.9,15.1,0,4.9-1,15.1-9.9,15h0ZM353.7,55.8c0,4.9-3.1,4.9-6.8,4.9-3.6,0-6.1,0-6.1-3.4s1.1-3.5,3.3-3.5,1.9,0,2.2,0c.8,0,.8-.3.8-.9v-4.5h-17s0,9,0,9c0,1.2-.3,3.2-3,3.2-2.6,0-3.6-.9-3.6-3.2v-24.8c0-2.7,1.4-4.5,4.6-4.5h20.9c3,0,4.9,1.1,4.9,4.9v22.7s0,0,0,0h0ZM358.8,31.2c0-.9,0-3.4,3.8-3.4,2.5,0,3.9.9,3.9,3.4v5.8l-1.4,8.9c-.2,1.2-.5,2.5-2.5,2.5s-2.4-1-2.6-2.5l-1.3-8.9v-5.8h0,0ZM362.6,58c-2.3,0-4.1-1.9-4.1-4.2s1.9-4.2,4.2-4.2,4.1,1.8,4.1,4.2-1.9,4.2-4.2,4.2Z"/>
  <path class="st1" d="M156.5,102.8c0,2.6-2.2,4.9-4.7,4.9s-1.3-.1-1.8-.3c-1.4,1.6-3.7,2.6-6.5,2.6s-3.9-.5-5.3-1.3c-.8.8-2,1.3-3.4,1.3s-2.6-.5-3.5-1.4c-.7,1.1-1.8,1.6-2.5,1.9h0c-1.1.4-2.2.4-4.2.4s-2.8-.4-3.7-.9c-.9.5-2.1.7-3.5.7h-5.6c-3.8,0-5.7-1.7-5.9-5.2-.4,0-.8.1-1.3.1h-5.2v.9c0,2.8-1.8,4.6-4.6,4.6s-4.7-1.8-4.7-4.6v-.9h-5.1c-2.7,0-4.6-1.8-4.6-4.5s1-3.6,2.6-4.3c-.2-.7-.3-1.4-.3-2.2v-5.8c0-3.8,2.2-5.9,5.9-5.9h12.4c2.4,0,4.2.9,5.2,2.6,1-1,2.5-1.6,4.5-1.6.8-1.1,2.1-1.8,3.7-1.8s3.2.8,3.9,1.8c.9,0,1.8.2,2.5.4.7-.4,1.5-.6,2.3-.6s.6,0,.9,0c.8-1,2.1-1.7,3.6-1.7s3.2.8,4,2.2c1.2-1.1,2.7-1.3,3.2-1.3s.5,0,.8,0c1.9.2,3.9,1.5,3.9,4.3h.3c.9,0,1.5,0,2,0,0-1.5.7-2.4,1.2-3,.6-.6,1.7-1.4,3.5-1.4,2.9,0,4.4,1.9,4.7,4.1,2.7,0,4.6,1.9,4.6,4.7s-1.7,3.7-2.4,4.1-1.4.5-2,.5v.4c1.6,1,2.6,1.9,2.9,2.3,1.2,1.1,1.9,2.4,1.9,3.9h0Z"/>
  <path class="st1" d="M305.6,79.5h-134.5c-3.8,0-6.8,3.1-6.8,6.8v21.3c0,3.8,3.1,6.8,6.8,6.8h134.5c3.8,0,6.8-3.1,6.8-6.8v-21.3c0-3.8-3.1-6.8-6.8-6.8Z"/>
  <path class="st1" d="M376.2,100.7c.1-.4.2-.8.3-1.3l.7-6.8v-5.2c0-2.8-2-4.8-4.9-4.8s-3.3.8-4.1,2.1c-.2-.2-.5-.3-.7-.4-1-.4-2.1-.4-3-.4-2.5,0-16.1.5-17.5.6-1.1.1-2,.5-2.7,1-.6-.3-1.3-.4-2.1-.4h-.8c-.4,0-1.7,0-3,0-.7-1.6-2.3-2.6-4.3-2.6s-2.9.7-3.5,1.3c-.3.3-.7.8-.9,1.4h0c-1.3,0-2.6,0-3.1,0h-1.3c-3.6,0-4.8,2.4-4.8,4.5s.3,2,.8,2.6c-.4.6-.5,1.4-.5,2.2,0,1.8.8,2.8,1.5,3.4-1,1.3-1.4,2.8-1.4,4.3,0,5.2,5,7.6,9.9,7.6s5.8-1.1,7.1-3.2c.2.2.4.3.5.4.8.8,1.9,1.8,3.9,1.8s4.8-2.3,4.8-4.9-.7-2.8-2.1-4c-.3-.3-.9-.8-1.8-1.3.4,0,.9-.2,1.3-.4.7-.3,2.4-1.4,2.4-4s0-.3,0-.5c.3,0,.5,0,.8,0s.6,0,1.6-.1c-.9,1.7-1.4,3.5-1.4,5.5,0,3.8,2,7.2,5.2,8.6,1.4.6,4.4,1.7,9,1.7s2.1,0,3.2-.5c1.4-.6,2.3-1.7,2.6-3.1-.3-.6-.5-1.3-.5-2.1s0-.9.2-1.3c-.5-1.2-1.6-2.1-3-2.4-.6-.2-1.1-.2-1.9-.2h-1.4c-1.7,0-2.7-.2-3.2-.3-.6-.2-.7-.3-.7-.3,0,0,0-.1,0-.4,0-1.1.7-2.1,1.5-3,0,0,0,0,0,.1,0,.1.1.3.2.4.1.2.2.5.4.7.7,1.3,2,2.1,3.4,2.1s2.2-.4,2.9-1.2c.9,0,1.8-.5,2.4-1.1l.2,2c0,.5.1,1,.3,1.4-.5.6-.9,1.3-1.1,2,.3.6.5,1.3.5,2.1s0,1-.2,1.4c.8,1.8,2.6,3,4.7,3s5.1-2.3,5.1-5.2-.5-2.5-1.3-3.4h0Z"/>
  <path class="st1" d="M367.4,102.8c-.1.4-.2.9-.2,1.3,0,.8.2,1.5.5,2.1.1-.4.2-.9.2-1.4,0-.8-.1-1.4-.5-2.1h0Z"/>
  <path class="st1" d="M367.4,102.8c-.1.4-.2.9-.2,1.3,0,.8.2,1.5.5,2.1.1-.4.2-.9.2-1.4,0-.8-.1-1.4-.5-2.1h0Z"/>
  <path class="st0" d="M96.4,98.3h8.3c.6,0,1.4.1,1.4,1.3s-.3,1.5-1.4,1.5h-8.3v4.1c0,.8-.2,1.4-1.5,1.4s-1.6-.4-1.6-1.4v-4.1h-8.2c-.5,0-1.4,0-1.4-1.3s.3-1.5,1.4-1.5h8.2v-2.2h-4.6c-1.9,0-2.8-.6-2.8-2.8v-5.8c0-2.2.9-2.8,2.8-2.8h12.4c1.8,0,2.8.6,2.8,2.8v5.8c0,2.1-.9,2.8-2.8,2.8h-4.8v2.2h0ZM100.9,89.2v-1.1c0-.5-.3-.8-.8-.8h-10.4c-.6,0-.8.3-.8.8v1.1s12,0,12,0ZM100.9,91.5h-12v1.2c0,.5.3.8.8.8h10.4c.6,0,.8-.3.8-.8v-1.2h0Z"/>
  <path class="st0" d="M116,91.7v1.2h3.2c.2,0,1.2,0,1.2,1s-.9,1-1.2,1h-3.2v1.2h4.3c.4,0,1.2,0,1.2,1.1s-.5,1.1-1.2,1.1h-11.4c-.5,0-1.2,0-1.2-1.1s.4-1.1,1.2-1.1h4.3v-1.2h-3.3c-.9,0-1.1-.6-1.1-1,0-1,.9-1,1.2-1h3.2v-1.2h-2.3c-.3,0-.9,0-1.1-.6-.1,0-.3,0-.6,0-1.2,0-1.2-.9-1.2-1.3v-1.2c0-2.3.6-2.8,2.9-2.8h2.2v-.6c0-.4,0-1.2,1.3-1.2s1.5.3,1.5,1.2v.6h2.2c2.4,0,2.9.5,2.9,2.8v1.2c0,.3,0,1.3-1.2,1.3s-.3,0-.5,0c-.3.6-.8.6-1.1.6h-2.3ZM120.2,103.5c0,2.2-.5,2.7-2.7,2.7h-5.6c-2.3,0-2.8-.5-2.8-2.7v-1.6c0-2.2.5-2.7,2.8-2.7h5.6c2.2,0,2.7.4,2.7,2.7v1.6ZM113.2,89.1c0-.3.2-.9,1.1-1h-3.1c-.5,0-.7.2-.7.7v.9c0,0,.2,0,.4,0h2.3v-.6h0ZM117.4,102c0-.3-.1-.6-.6-.6h-4.3c-.4,0-.6.2-.6.6v1.4c0,.4.2.6.6.6h4.3c.4,0,.6-.2.6-.6v-1.4ZM118.3,89.7c.2,0,.2,0,.3,0v-.9c0-.5-.2-.7-.7-.7h-3c.3,0,1.1.2,1.1,1v.6h2.3ZM124.6,100.1c0,.4,0,1.3-1.3,1.3s-1.4-.7-1.4-1.3v-13.2c0-.3,0-1.3,1.3-1.3s1.4.9,1.4,1.3v13.2ZM126.4,85.4c0-.5,0-1.4,1.4-1.4s1.4.7,1.4,1.4v18.2c0,.6,0,2.1-1.4,2.6-.6.2-1.3.2-3.2.2s-2.4,0-2.4-1.7,1.2-1.5,1.5-1.5c.7,0,2,0,2.1,0,.5,0,.6-.5.6-.9v-16.9h0Z"/>
  <path class="st0" d="M136.6,86.3c0,.3-.5,3.2-.6,3.8-.2,2-.3,4.2-.3,6.1s.2,4.9.4,6.5c0,.3.2,1.1.2,1.4,0,1-.7,1.4-1.5,1.4s-1.3,0-1.5-1.1c-.4-1.5-.6-5.3-.6-8.4,0-5.3.8-9.5.9-9.9.1-.5.4-1.3,1.9-1.2,1.1.1,1.2.8,1.2,1.4h0ZM145.2,86.6c0-.6,0-1.7,1.6-1.7s1.6,1.1,1.6,1.6v2.6c2.6,0,2.9-.1,3-.1.4,0,1.5,0,1.5,1.5s-.9,1.5-2.4,1.5c-.3,0-1.8,0-2.1,0v5.3c2.3,1.2,3.6,2.4,4,2.7.6.6.9,1.1.9,1.6,0,.9-.8,1.7-1.6,1.7s-.7-.1-1.7-1.2c-.4-.4-.8-.8-1.6-1.4,0,1.1,0,2-.5,2.7-.9,1.9-3.5,2.1-4.5,2.1-4.1,0-5.7-2.2-5.7-4.7s2.3-4.7,5.6-4.7,1.6.1,2.1.2v-4.2c-2.7,0-3.8,0-6.1,0s-1.6,0-1.6-1.5,1-1.5,1.9-1.5c2.7,0,3,0,5.6,0v-2.7h0ZM143.4,98.8c-.8,0-2.9.2-2.9,2.2s2.1,2.1,2.7,2.1,1.8,0,2.2-1.1c.2-.6.2-1.4.2-2.7-.6-.2-1.1-.4-2.1-.4h0Z"/>
  <path class="st0" d="M335.8,92.1c.9,0,4.8-.1,5.6-.1.3,0,.5,0,.6,0,.5,0,1.4,0,1.4,1.4s-.9,1.3-2,1.3c-.9,0-4.8.1-5.5.2v2.8c3,.9,5.7,2.9,6.8,3.8,1,.8,1,1.3,1,1.6,0,.9-.8,1.8-1.6,1.8s-1-.3-1.7-.9c-.6-.6-1.8-1.4-2.9-2.2-.6-.4-1.1-.7-1.5-.9-.1,2.4-.6,4.9-5.4,4.9s-6.7-1.6-6.7-4.5,2.3-4.5,6.6-4.5,1.8.1,2.3.2v-2.1c-1.9,0-4.8,0-6.6,0s-2.3,0-2.3-1.4.7-1.3,1.4-1.3c2.1,0,5.4,0,7.4,0v-2.2c-1.9,0-4.9,0-6.7,0s-2.3,0-2.3-1.4,1.1-1.3,1.7-1.3h1.3c1,0,5.1,0,6,0v-1.4c0-1.2.8-1.4,1.5-1.4s1.5.3,1.6,1.4v1.3c1,0,5.1-.1,6-.2.3,0,.5,0,.6,0,.4,0,1.4,0,1.4,1.4s-.9,1.4-2,1.4c-2.6,0-3,0-5.9.2v2.2h0,0ZM330.4,99.2c-1,0-3.5.2-3.5,2s1.6,1.9,3.4,1.9,2.4-.6,2.5-1.5c0-.4,0-.7,0-2-.5-.1-1.2-.4-2.4-.4h0Z"/>
  <path class="st0" d="M349.2,89.6c-.3,0-1.5.1-1.8.1-1.4,0-1.6-1-1.6-1.6,0-1,.4-1.5,1.5-1.6,1.2-.1,14.6-.6,17.1-.6s2.5,0,2.5,1.5-1.1,1.6-2.4,1.6c-1.9,0-3.4.4-5.8,1.9-1.6,1-4.8,3.6-4.8,7.1s2.8,4.2,7.2,4.2,2.1,0,2.5,0c.8.2,1,.8,1,1.4,0,1.8-1.4,1.8-2.9,1.8-3.4,0-6-.7-7.7-1.4-2.4-1.1-3.4-3.5-3.4-5.8s.4-4,3-6.7c1.4-1.4,2.3-1.9,3.3-2.5-2.6.2-5.3.3-7.9.5h0ZM360.8,92.5c0-.1-.1-.3-.1-.5,0-.5.5-.7.9-.7s.6.2,1.1,1.1c.3.5.9,1.7.9,2.1,0,.6-.6.8-.9.8s-.5-.2-.6-.5c-.2-.3-.4-.8-.5-1.1,0-.2-.5-.9-.6-1.1h0ZM363.4,91.4c0-.2-.1-.3-.1-.5,0-.4.5-.7.8-.7s.6.3,1,1c.2.3.9,1.5.9,2.1s-.5.7-.9.7-.5-.3-.6-.4c0-.2-.5-1-.6-1.2,0-.2-.5-.9-.6-1.1h0Z"/>
  <path class="st0" d="M374.4,102.9c0,1.1-.9,2-2,2s-2-.9-2-2,.9-2,2-2,2,.9,2,2ZM373.4,97.9c0,.7-.3,1.2-1,1.2s-1-.4-1.1-1.2l-.7-6.6v-5c0-.8.4-1.6,1.7-1.6s1.8.6,1.8,1.6v5l-.7,6.6h0Z"/>
  <g>
    <path class="st0" d="M173.5,92.7c-.6,0-1.3-.5-1.3-1.5s.8-1.3,1.8-1.5c.5,0,2.1-.3,2.9-2.4.3-.8.5-1.4,1.7-1.4s1.6.7,1.6,1.2v16.7c0,.8-.2,1.8-1.9,1.8s-2-.3-2-1.8v-11.2h-2.7Z"/>
    <path class="st0" d="M199,95.8c0,3.5-.7,9.9-6.5,9.9s-6.5-6.4-6.5-9.9.2-5.2,1.9-7.7c1.3-1.8,3.6-2.2,4.7-2.2,5.7,0,6.5,6.3,6.5,9.9ZM189.8,95.8c0,1.5,0,6.7,2.6,6.7s2.6-5.1,2.6-6.7,0-6.6-2.6-6.6-2.6,5.1-2.6,6.6Z"/>
    <path class="st0" d="M206.5,100.4c-.2,1.7-.4,3.2-1.2,5-.9,2-1.6,2.1-2.2,2.1-1.1,0-2.2-.8-2.2-1.7s.2-.8.6-1.5c.7-1.2,1.8-3.1,1.8-8v-6.9c0-2.4,1.1-3.1,3.1-3.1h10.5c1.9,0,3.1.6,3.1,3.1v14.8c0,3.1-1.7,3.1-4.9,3.1s-2.1,0-2.6-.2c-.9-.3-1.1-1.2-1.1-1.8,0-1.7,1.1-1.7,1.7-1.7s1.6,0,2.1,0c.7,0,1.2,0,1.2-.8v-2.5h-9.9ZM216.4,91.8v-1.3c0-.5-.2-.7-.7-.7h-8.1c-.5,0-.7.3-.7.7v1.3h9.5ZM206.8,95v2.1h9.5v-2.1h-9.5Z"/>
    <path class="st0" d="M230.4,92.8c3.9,0,5.7,3.1,5.7,6.3s-2,6.7-6.3,6.7-4-1.2-4.8-2.2c-.9-1.1-1.9-2.8-1.9-7.2s.7-10.4,7-10.4,5.8,3,5.8,4.3-.4,1.6-1.9,1.6-1.6-.6-1.9-1.4c-.3-.8-.9-1.2-1.9-1.2s-2.8.3-3,4.8c.8-.7,1.5-1.2,3.3-1.2ZM227,99.2c0,2.3,1.1,3.3,2.6,3.3s2.5-.9,2.5-3.3-1.3-3.3-2.5-3.3-2.6,1.1-2.6,3.3Z"/>
    <path class="st0" d="M257,103.6c0,2.4-1.1,3.2-3.1,3.2h-11.6c-2,0-3.2-.7-3.2-3.2v-14c0-2.4,1.1-3.1,3.2-3.1h11.6c2,0,3.1.7,3.1,3.1v14ZM253.4,94.7v-4.1c0-.6-.3-.8-.8-.8h-9c-.6,0-.8.4-.8.8v4.1h10.5ZM242.9,98.1v4.5c0,.4.2.8.8.8h9c.5,0,.8-.3.8-.8v-4.5h-10.5Z"/>
    <path class="st0" d="M270.1,86.3c.4-.4,1-.9,1.8-.9s1.5.6,1.5,1.4-.2.8-.9,1.5c-.9,1-3,3.1-3,8.2s2.1,7.2,3,8.2c.7.7.9.9.9,1.5s-.7,1.4-1.5,1.4-1.3-.3-2.6-1.8c-2.2-2.6-3.3-5.8-3.3-9.3s1.5-7.6,4.2-10.2Z"/>
    <path class="st0" d="M280.7,100.4c-.2,1.7-.4,3.2-1.2,5-.9,2-1.6,2.1-2.2,2.1-1.1,0-2.2-.8-2.2-1.7s.2-.8.6-1.5c.7-1.2,1.8-3.1,1.8-8v-6.9c0-2.4,1.1-3.1,3.1-3.1h10.5c1.9,0,3.1.6,3.1,3.1v14.8c0,3.1-1.7,3.1-4.9,3.1s-2.1,0-2.6-.2c-.9-.3-1.1-1.2-1.1-1.8,0-1.7,1.1-1.7,1.7-1.7s1.6,0,2.1,0c.7,0,1.2,0,1.2-.8v-2.5h-9.9ZM290.5,91.8v-1.3c0-.5-.2-.7-.7-.7h-8.1c-.5,0-.7.3-.7.7v1.3h9.5ZM281,95v2.1h9.5v-2.1h-9.5Z"/>
    <path class="st0" d="M300.3,106.6c-.5.4-1,.9-1.8.9s-1.5-.6-1.5-1.4.2-.8.9-1.5c.9-1,3-3.1,3-8.2s-2.1-7.2-3-8.2c-.7-.7-.9-.9-.9-1.5s.7-1.4,1.5-1.4,1.3.3,2.6,1.8c2.2,2.6,3.3,5.8,3.3,9.3s-1.5,7.6-4.2,10.2Z"/>
  </g>
</svg>