<?xml version="1.0" encoding="UTF-8"?>
<svg id="Layer_1" data-name="Layer 1" xmlns="http://www.w3.org/2000/svg" xmlns:xlink="http://www.w3.org/1999/xlink" viewBox="0 0 1925 7">
  <defs>
    <style>
      .cls-1 {
        fill: none;
      }

      .cls-2 {
        fill: #7a4f9f;
      }

      .cls-3 {
        clip-path: url(#clippath);
      }
    </style>
    <clipPath id="clippath">
      <rect class="cls-1" width="1925" height="7"/>
    </clipPath>
  </defs>
  <g class="cls-3">
    <path class="cls-2" d="M0-247V3.87c5.62,1.78,9.13,3.28,19.64,3.28C35.68,7.15,35.68.96,51.72.96s16.03,6.19,32.06,6.19S99.81.96,115.85.96s16.03,6.19,32.06,6.19S163.94.96,179.97.96s16.03,6.19,32.06,6.19S228.06.96,244.09.96s16.03,6.19,32.06,6.19,16.03-6.19,32.06-6.19,16.03,6.19,32.06,6.19,16.03-6.19,32.05-6.19,16.03,6.19,32.05,6.19,16.03-6.19,32.06-6.19,16.03,6.19,32.05,6.19,16.03-6.19,32.06-6.19,16.03,6.19,32.06,6.19,16.03-6.19,32.06-6.19,16.03,6.19,32.06,6.19,16.03-6.19,32.06-6.19,16.03,6.19,32.06,6.19,16.03-6.19,32.06-6.19,16.03,6.19,32.06,6.19,16.03-6.19,32.05-6.19,16.03,6.19,32.06,6.19,16.03-6.19,32.06-6.19,16.03,6.19,32.05,6.19,16.03-6.19,32.06-6.19,16.03,6.19,32.05,6.19,16.03-6.19,32.06-6.19,16.03,6.19,32.05,6.19,16.03-6.19,32.06-6.19,16.03,6.19,32.05,6.19,16.03-6.19,32.05-6.19,16.03,6.19,32.05,6.19,16.02-6.19,32.05-6.19,16.03,6.19,32.05,6.19,16.03-6.19,32.05-6.19,16.02,6.19,32.05,6.19,16.03-6.19,32.05-6.19,16.03,6.19,32.05,6.19,16.02-6.19,32.04-6.19,16.02,6.19,32.05,6.19,16.03-6.19,32.06-6.19,16.02,6.19,32.05,6.19,16.02-6.19,32.04-6.19,16.02,6.19,32.05,6.19,16.03-6.19,32.05-6.19,16.02,6.19,32.04,6.19,16.02-6.19,32.04-6.19,16.02,6.19,32.04,6.19,16.03-6.19,32.05-6.19,16.02,6.19,32.05,6.19,16.03-6.19,32.05-6.19,16.03,6.19,32.05,6.19,16.03-6.19,32.05-6.19,16.03,6.19,32.05,6.19,16.03-6.19,32.05-6.19,16.02,6.19,32.05,6.19,16.03-6.19,32.05-6.19c6.63,0,10.63,1.51,14.18,3.09v-251.05H0Z"/>
  </g>
</svg>