<?xml version="1.0" encoding="UTF-8"?>
<svg id="Layer_1" data-name="Layer 1" xmlns="http://www.w3.org/2000/svg" xmlns:xlink="http://www.w3.org/1999/xlink" viewBox="0 0 145 831">
  <defs>
    <style>
      .cls-1 {
        fill: none;
      }

      .cls-2 {
        clip-path: url(#clippath-1);
      }

      .cls-3 {
        clip-path: url(#clippath);
      }

      .cls-4 {
        fill: #76cee1;
      }
    </style>
    <clipPath id="clippath">
      <rect class="cls-1" width="145" height="831"/>
    </clipPath>
    <clipPath id="clippath-1">
      <rect class="cls-1" x="0" y="0" width="1051.36" height="1080"/>
    </clipPath>
  </defs>
  <g class="cls-3">
    <g class="cls-2">
      <g>
        <path class="cls-4" d="M126.35-1.71h924.65v1647.71H116.31c1.19-1.24,2.42-2.57,3.67-4.12,3.65-4.51,6.27-10.11,6.15-15.91-.18-8.41-6.75-16.26-15-17.9-15.19-3.03-22.46,15.06-35.01,20.54-12.23,5.34-24.04,4.14-30.37-8.88-5.4-13.46-.23-26.99,8.79-37.44,4.77-5.52,8.46-6.9,14.41-9.45,5.38-2.3,10.88-2.65,11.95-10.07.85-5.89-3.47-12.05-9.3-13.25-4.59-.94-9.31.91-13.36,3.27-4.06,2.36-7.86,5.28-12.3,6.78-4.44,1.5-9.91,1.26-13.17-2.13-4.4-4.56-2.41-12.74,2.54-16.7,4.96-3.95,11.72-4.67,18.06-4.61,6.34.06,12.83.7,18.9-1.1,6.08-1.81,11.76-6.92,11.78-13.27,0-5.9-4.94-10.88-10.5-12.83-12.84-4.52-25,2.31-36.16-8.61-8.94-8.75-7.39-20.55-.91-30.38,5.61-8.52,14.23-15.01,23.97-18.04,5.9-1.84,12.1-2.43,18.17-3.6,6.07-1.17,12.21-3.01,16.99-6.92,4.78-3.91,7.96-10.27,6.64-16.3-4.3-19.63-41.34.82-40.03-30.05.95-22.38,25.29-6.78,36.18-14.8,5.24-3.86,8.52-14.71,2.53-18.96-1.78-1.26-3.84-2.53-4.44-4.64-.72-2.55,1.02-5.07,2.53-7.26,4.14-5.98,3.35-14.96-1.95-19.91-5.6-5.23-13.82-6.68-21.48-6.34-7.66.34-15.19,2.21-22.84,2.61-7.66.4-15.87-.9-21.61-5.98-5.74-5.09-7.76-14.78-2.71-20.54,3.09-3.53,8.1-4.91,12.79-4.68,4.69.23,9.19,1.86,13.61,3.46,6.65,2.42,13.31,4.84,19.96,7.26,3.13,1.14,6.38,2.3,9.71,2.09,3.33-.2,6.8-2.13,7.73-5.33,1.56-5.34-25.6-21.88-29.17-29.98-5.03-11.41-2.92-26.85,7.69-33.39,5.18-3.2,11.51-3.87,17.61-3.98,6.09-.11,12.27.26,18.2-1.15,16.03-3.83,13.16-13.28,11.27-25.49-1.71-11.08,7.93-11.72,14.08-18.76,3.72-4.26,5.98-10.22,4.41-15.65-6.91-23.9-34.31-.39-46.12,2.77-20.02,5.35-42.57-8.82-21.16-27.07,6.44-5.49,14.5-8.7,21.55-13.39,7.05-4.69,13.48-11.79,13.61-20.26.1-6.51-3.7-12.66-8.89-16.61-5.18-3.94-11.61-5.94-18.03-7.04-12.67-2.17-26.45,3.11-38.04-2.46-9.44-4.54-16.34-14.07-16.31-24.77.04-12.11,9.28-23.59,21.12-26.2,12.3-2.71,24.6,3.32,36.81,6.43,12.21,3.11,28.14,1.55,33.21-9.98,2.4-5.47,1.58-11.17-.14-16.98-1.74-5.86-4.38-11.82-5.54-17.74-7.87-40.18,66.4-51.62,45.44-97.96-7.45-16.46-28.4-25.35-45.42-19.27-3.93,1.41-7.73,3.51-11.9,3.74-4.17.21-8.94-2.37-9.2-6.54-.23-3.6,2.82-6.45,4.46-9.66,2.67-5.26,1.19-12.29-3.37-16.02-7.48-6.13-15.07.49-23.01.07-8.26-.45-17.68-6.28-21.13-13.81-4.36-9.49-.14-20.88,6.37-29.05,8.79-11.01,40.72-33.15,8.05-38.19-4.75-.73-10.1-2.18-12.2-6.5-2.65-5.44,1.51-11.68,5.89-15.85,4.38-4.17,9.64-8.68,9.65-14.72.01-8.7-10.75-13.21-19.44-12.83-8.7.38-17.84,3.21-25.81-.28-14.72-6.44-15.24-32.47-8.75-44.69,4.36-8.21,12.47-14.32,21.56-16.26,4.1-.87,8.38-.94,12.35-2.28,3.97-1.35,7.77-4.44,8.21-8.61,1.14-10.83-15.33-5.69-20.7-7.43-5.68-1.84-7.88-9.46-5.45-14.92,2.43-5.45,8.13-8.8,13.9-10.33,5.78-1.52,11.82-1.58,17.73-2.47,2.42-.37,4.91-.91,6.84-2.41,1.93-1.5,3.12-4.21,2.18-6.47-1.12-2.69-4.74-3.53-7.48-2.57-9.99,3.53-10.97,9.42-21.34-.28-7.3-6.84-11.09-17.68-11.46-27.5-1.09-29.28,22.21-57.5,51.17-61.96,5.13-.79,10.43-.93,15.29-2.78,4.85-1.85,9.33-5.95,9.63-11.13.94-15.67-17.16-2.76-23.04-1.57-7.22,1.47-16.37-.82-18.54-7.87-2.01-6.56,3.58-13.49,10.14-15.5,6.57-2.01,13.63-.47,20.32,1.08,6.34,1.46,12.67,2.92,19,4.39,4.04.93,8.19,1.87,12.28,1.24,4.09-.64,8.16-3.23,9.27-7.22,1.02-3.66-.68-7.64-3.34-10.35-8.14-8.27-21.04-8.08-26.75-18.92-6.94-13.17,2.45-22.9,5.33-35.22,5.06-21.61-22.05-32.58-36.46-41.72-17.78-11.27-33.81-27-37.75-48.5-3.24-17.64,3.22-38.33,21.39-44.58,7.99-2.75,16.77-2.11,24.73.37,7.39,2.3,19.53,12.23,25.69,2.62,2.84-4.44,1.89-10.53-1.06-14.9-6.93-10.21-18.98-13.96-24.76-25.58-12.33-24.79,8.03-39.64,4.1-63.35-1.99-12.06-10.27-22.9-21.37-28.01-2.71-1.25-5.62-2.2-7.97-4.06-2.34-1.85-4.04-4.96-3.18-7.82,1.14-3.79,5.75-5.07,9.62-5.92,20.15-4.4,1.02-18.3-8.76-20.9-7.2-1.92-15.67-5.66-16.32-13.09-.57-6.53,6.1-11.94,12.65-12.22,6.55-.28,12.67,3.17,17.97,7.03,2.9,2.11,5.73,4.42,9.07,5.74,3.33,1.33,7.37,1.51,10.32-.52,2.88-1.97,4.14-5.54,6.28-8.29,10.69-13.79,38.98.02,35.63-25.66-1.03-7.88-7.45-13.75-11.88-20.35-4.43-6.6-6.31-16.91.2-21.47,4.07-2.86,9.53-2.06,14.5-2.12,4.98-.07,10.96-2.17,11.71-7.09.71-4.62-3.74-8.34-7.97-10.32-1.68-.79-3.47-1.52-5.15-2.39Z"/>
        <path class="cls-4" d="M103.96,1183.92c-6.97,5.01-4.47,16.21,4,17.7,9.52,3.3,18.66-10.76,12.54-18.39-.21-.26-.42-.5-.64-.72-4.44-4.46-11.52-1.74-15.9,1.41ZM28.27,1128.53c-8.06,3.87-9.92,17.06.01,19.74,7.54,2.15,15.48-5.04,14.74-12.68-.72-7.03-8.92-10.46-14.76-7.06ZM106.81,898.93c-20.69,5.62-34.11,29.59-19.19,47.84,5.03,7.58,14.78,9.85,23.35,8.49,8.8-2.04,14.45-7.8,19.87-14.48.91-1.12,1.78-2.24,2.6-3.35,3.63-4.98,6.1-10.08,5.77-16.89-.8-16.37-16.91-27.1-32.41-21.61ZM39.75,873.14c-4.07,5.51-5.81,11.92-3.91,18.68,1.86,6.58,6.79,11.43,13.35,13.26,6.26,1.75,12.75-.33,17.31-4.84,3.24-3.2,5.46-7.44,6.2-11.93.58-3.5.29-7.13-.75-10.48-2.07-6.66-7.13-12.21-14.44-13.47-7.69-1.32-13.48,2.97-17.77,8.77ZM30.67,771.16c-3.6,2.64-4.85,7.97-2.92,12,1.92,4.03,6.72,6.41,11.13,5.67,6.71-1.14,8.91-5.31,8.37-9.53-.87-6.82-8.9-13.75-16.57-8.14ZM87.04,1003.26c-17.16,4.03-18.99,31.95-.63,35.38,10.71,2.01,18.99-7.82,20.74-17.49.56-3.11.48-5.86-.44-8.33-.78-2.09-2.17-3.98-4.29-5.72-4.21-3.46-10.02-5.1-15.38-3.85ZM35.38,1193.67c9.92,5.36,24.24-2.69,24.27-14.11.17-7.61-4.95-15.48-12.7-16.68-17.3-2.69-27.73,22-11.57,30.79ZM10.46,1251.87c14.59,7.89,35.67-3.95,35.71-20.76.26-11.19-7.28-22.78-18.68-24.55-25.46-3.95-40.8,32.38-17.02,45.31ZM42.11,9.01c-15.17,6.94-14.69,23.44-7.85,36.41,8.54,16.2,22.5,27.71,40.18,33.39,4.14,1.33,8.71,2.26,12.9,1.5,1.32-.24,2.61-.65,3.84-1.27,5.93-3,8.69-10.26,8.33-16.89-.65-12.07-8.69-26.38-15.78-35.85-9.26-13.24-25.22-23.01-41.62-17.28ZM51.87,33.04c-4.98,12.19-13.8-2.53-7.06-7.61,7.41-5.59,9.78.95,7.06,7.61ZM51.49,170.95c-6.27,3.66-7.46,12.24-4.98,18.58,2.57,5.97,9.52,8,15.36,6.48,3.39-.88,6.42-2.96,7.99-6.15,5.82-11.97-6.03-25.58-18.38-18.91ZM48.81,387c-7.85.58-14.29,7.25-12.79,15.03,1.46,7.56,6.95,14.52,12.63,19.47,9.83,8.57,22.9,13.96,35.95,14.56,14.43.67-2.01-16.37-4.94-19.95-5.51-6.73-11.69-13.27-16.69-20.39-1.98-2.82-3.93-5.34-6.48-6.95-2.06-1.3-4.52-2.01-7.68-1.77ZM76.38,1344.01c-3.79,2.84-7,9.12-4.27,13.56,3.2,5.19,12.48,7.17,17.55,3.6,1.23-.86,2.21-2.05,2.8-3.59,3.48-9.14-7.41-20.07-16.08-13.57Z"/>
      </g>
    </g>
  </g>
</svg>