<?xml version="1.0" encoding="UTF-8"?>
<svg id="Layer_1" data-name="Layer 1" xmlns="http://www.w3.org/2000/svg" xmlns:xlink="http://www.w3.org/1999/xlink" viewBox="0 0 1925 27.04">
  <defs>
    <style>
      .cls-1 {
        fill: none;
      }

      .cls-2 {
        fill: #f7f0e5;
      }

      .cls-3 {
        fill: #7a4f9f;
      }

      .cls-4 {
        clip-path: url(#clippath);
      }
    </style>
    <clipPath id="clippath">
      <rect class="cls-1" y="0" width="1925" height="27.04"/>
    </clipPath>
  </defs>
  <g class="cls-4">
    <path class="cls-2" d="M1878.77,6.19C1862.75,6.19,1862.75,0,1846.72,0s-16.03,6.19-32.05,6.19S1798.64,0,1782.62,0s-16.03,6.19-32.05,6.19S1734.54,0,1718.51,0s-16.03,6.19-32.05,6.19S1670.44,0,1654.41,0s-16.02,6.19-32.05,6.19S1606.34,0,1590.32,0s-16.02,6.19-32.04,6.19S1542.26,0,1526.24,0s-16.03,6.19-32.05,6.19S1478.16,0,1462.14,0s-16.02,6.19-32.04,6.19S1414.07,0,1398.05,0s-16.03,6.19-32.06,6.19S1349.97,0,1333.95,0s-16.02,6.19-32.04,6.19S1285.88,0,1269.85,0s-16.03,6.19-32.05,6.19S1221.78,0,1205.76,0s-16.02,6.19-32.05,6.19S1157.68,0,1141.65,0s-16.02,6.19-32.05,6.19S1093.58,0,1077.55,0s-16.03,6.19-32.05,6.19S1029.48,0,1013.45,0s-16.03,6.19-32.06,6.19S965.37,0,949.35,0s-16.03,6.19-32.06,6.19S901.26,0,885.24,0s-16.03,6.19-32.06,6.19S837.15,0,821.12,0s-16.03,6.19-32.06,6.19S773.04,0,757.01,0s-16.03,6.19-32.05,6.19S708.93,0,692.9,0s-16.03,6.19-32.06,6.19S644.81,0,628.79,0s-16.03,6.19-32.06,6.19S580.7,0,564.67,0s-16.03,6.19-32.06,6.19S516.59,0,500.56,0s-16.03,6.19-32.06,6.19S452.47,0,436.44,0s-16.03,6.19-32.06,6.19S388.36,0,372.33,0s-16.03,6.19-32.05,6.19S324.24,0,308.22,0s-16.03,6.19-32.06,6.19S260.12,0,244.09,0s-16.03,6.19-32.06,6.19S196,0,179.97,0s-16.03,6.19-32.07,6.19S131.88,0,115.85,0s-16.03,6.19-32.07,6.19S67.75,0,51.72,0s-16.04,6.19-32.08,6.19C9.13,6.19,5.62,4.69,0,2.91v21.91h1925V3.09C1921.45,1.51,1917.45,0,1910.82,0c-16.03,0-16.03,6.19-32.05,6.19Z"/>
    <path class="cls-3" d="M0,267.67V16.8c5.62-1.78,9.13-3.28,19.64-3.28,16.04,0,16.04,6.19,32.08,6.19s16.03-6.19,32.06-6.19,16.03,6.19,32.07,6.19,16.03-6.19,32.06-6.19,16.03,6.19,32.07,6.19,16.03-6.19,32.06-6.19,16.03,6.19,32.06,6.19,16.03-6.19,32.06-6.19,16.03,6.19,32.06,6.19,16.03-6.19,32.06-6.19,16.03,6.19,32.05,6.19,16.03-6.19,32.05-6.19,16.03,6.19,32.06,6.19,16.03-6.19,32.05-6.19,16.03,6.19,32.06,6.19,16.03-6.19,32.06-6.19,16.03,6.19,32.06,6.19,16.03-6.19,32.06-6.19,16.03,6.19,32.06,6.19,16.03-6.19,32.06-6.19,16.03,6.19,32.06,6.19,16.03-6.19,32.06-6.19,16.03,6.19,32.05,6.19,16.03-6.19,32.06-6.19,16.03,6.19,32.06,6.19,16.03-6.19,32.05-6.19,16.03,6.19,32.06,6.19,16.03-6.19,32.05-6.19,16.03,6.19,32.06,6.19,16.03-6.19,32.05-6.19,16.03,6.19,32.06,6.19,16.03-6.19,32.05-6.19,16.03,6.19,32.05,6.19,16.03-6.19,32.05-6.19,16.02,6.19,32.05,6.19,16.03-6.19,32.05-6.19,16.03,6.19,32.05,6.19,16.02-6.19,32.05-6.19,16.03,6.19,32.05,6.19,16.03-6.19,32.05-6.19,16.02,6.19,32.04,6.19,16.02-6.19,32.05-6.19,16.03,6.19,32.06,6.19,16.02-6.19,32.05-6.19,16.02,6.19,32.04,6.19,16.02-6.19,32.05-6.19,16.03,6.19,32.05,6.19,16.02-6.19,32.04-6.19,16.02,6.19,32.04,6.19,16.02-6.19,32.04-6.19,16.03,6.19,32.05,6.19,16.02-6.19,32.05-6.19,16.03,6.19,32.05,6.19,16.03-6.19,32.05-6.19,16.03,6.19,32.05,6.19,16.03-6.19,32.05-6.19,16.03,6.19,32.05,6.19,16.02-6.19,32.05-6.19,16.03,6.19,32.05,6.19c6.63,0,10.63-1.51,14.18-3.09v251.05H0Z"/>
    <rect class="cls-1" y="0" width="1925" height="27.04"/>
  </g>
</svg>