<?xml version="1.0" encoding="UTF-8"?>
<svg id="Layer_1" data-name="Layer 1" xmlns="http://www.w3.org/2000/svg" xmlns:xlink="http://www.w3.org/1999/xlink" viewBox="0 0 1400.29 1118.22">
  <defs>
    <style>
      .cls-1 {
        fill: #f7f0e5;
      }

      .cls-2 {
        fill: url(#linear-gradient);
      }
    </style>
    <linearGradient id="linear-gradient" x1="700.15" y1="188.18" x2="700.15" y2="930.04" gradientUnits="userSpaceOnUse">
      <stop offset=".29" stop-color="#0795cf"/>
      <stop offset=".6" stop-color="#038abb"/>
      <stop offset="1" stop-color="#0080a6"/>
    </linearGradient>
  </defs>
  <polygon class="cls-1" points="850.66 265.7 586.99 256.91 513.46 354.96 392.37 422.57 379.93 461.11 374.07 676.31 403.37 851.73 480.8 861.98 972.19 854.66 1036.28 637.83 1028.96 453.23 922.01 375.58 850.66 265.7"/>
  <path class="cls-2" d="M480.63,695.07c0,3.03,0,5.27,0,7.52.03,8.61-3.87,12.2-11.79,14.38-3.84,1.06-7.89,1.37-11.86,1.86-3.58.44-4.49-.52-4.6-4.11-.44-14.67-.86-29.35-1.45-44.01-.11-2.65.73-3.36,3.27-3.51,3.99-.23,8-.67,11.91-1.49,8.97-1.9,13.39,2.85,13.66,10.57.23,6.53,1.49,13.02.87,18.8ZM557.46,561.9c.97-3.83,1.7-7.8,1.36-11.89-.42-5.21-.45-10.45-.28-15.69.5-16.07-.62-32.14-.31-47.74,0-6.66.03-12.83-.01-19.01-.02-3.59-1.86-5.73-5.4-6.3-3.79-.61-7.36.56-11.03,1.24-2.75.51-4.12,2.17-5.08,4.28-.88,1.92-1.33,4.02-1.31,6.25.06,6.26.49,12.51.54,18.75.19,21.99.03,43.97-.04,65.96,0,2.2.38,4.27,1.13,6.3.78,2.12,2.25,3.25,4.56,3.58,2.73.39,5.47.27,8.08-.18,3.35-.58,6.88-1.97,7.79-5.57ZM1093.6,652.63c-1.02.42-1.44-.62-1.91-1.26-6.07-8.33-12.59-16.26-20.32-23.14-1.39-1.23-2.61-2.65-3.9-3.99,3.46,12.57,7.26,24.94,9.23,37.77,1.44,9.39,2.48,18.84,3.64,28.27,1.57,12.78,1.39,25.55,1,38.35-.06,1.92-.31,4.48-2.04,5.2-1.99.83-2.85-1.78-3.73-3.11-5.12-7.73-11.08-14.82-16.53-22.3-1.25-1.72-2.66-3.33-4.46-5.55,1.5,5.8,2.96,10.91,4.13,16.08,1.81,7.99,3.56,15.99,4.51,24.15,1.48,12.67,1.8,25.43.98,38.11-.49,7.6-.12,15.35-2.08,22.84-.12.45-.25.91-.41,1.34-.88,2.37-1.72,2.62-3.15.53-3.06-4.47-5.78-9.19-8.84-13.66-3.52-5.15-7.26-10.14-10.84-15.11-.82.28-.79.69-.8,1.05-.19,8.8-.48,17.59-.52,26.39-.07,14.99-3.15,29.46-6.92,43.87-2.89,11.04-6.12,21.97-10.05,32.67-1.18,3.21-1.73,6.75-4.14,9.45-.48.53-.5,1.69-1.37,1.6-1.08-.12-1.24-1.28-1.51-2.15-1.49-4.91-2.94-9.84-4.42-14.75-1.02-3.39-2.06-6.77-3.09-10.11-.46-.1-.52.18-.53.44-.2,7.11-.38,14.22-.59,21.33-.36,12.25-.79,24.5-1.1,36.75-.07,2.84-1.78,3.47-4.04,3.53-4.58.12-9.17.25-13.75.41-12.63.42-25.27.43-37.91.81-18.81.57-37.62.82-56.43,1.21-9.83.21-19.66.38-29.49.39-3.26,0-6.53-.4-9.79-.63-1.88-.13-2.72-1.45-3.32-3-3.96-10.28-7.04-20.85-10.29-31.37-.38-1.24-.83-2.46-1.38-4.09-1.82,3.09-4.54,3.05-7.41,3.26-9.81.7-19.38-.5-28.86-2.85-3.08-.76-6.14-1.6-9.21-2.39-.76-.2-1.73-1.02-2.24-.07-.45.84.61,1.47,1.18,2.02,2.91,2.78,5.56,5.83,8.74,8.33.78.61,1.85,1.25,1.5,2.46-.3,1.05-1.46,1.07-2.33,1.3-7.56,1.93-15.24,1.46-22.87.79-6.5-.57-12.99-1.27-19.43-2.42-9.12-1.62-18-4.05-26.64-7.37-1.79-.69-3.56-1.39-5.75-2.25.96,3.04,2.26,5.36,4.11,7.34,1.87,2,3.25,4.35,4.77,6.59,1.03,1.51.78,2.6-1.11,3.15-1.53.45-3.07.85-4.67.89-9.84.25-19.57-.73-29.33-1.94-10.12-1.26-20.02-3.27-29.8-6.1-11.68-3.37-22.51-8.6-32.96-14.69-.4-.24-.77-.56-1.2-.71-1.01-.36-2.07-1.94-2.88-1.11-1.03,1.06-.22,2.61.53,3.87,3.05,5.16,6.08,10.32,9.09,15.49.59,1.02,1.71,2.09,1.11,3.3-.65,1.33-2.18.75-3.33.76-7.25.04-14.28-1.6-21.37-2.82-14.69-2.54-28.37-7.9-41.69-14.39-3.78-1.84-7.72-3.35-11.52-5.13-1.51-.71-2.18-.38-2.66,1.15-1.71,5.44-2.42,11.1-3.74,16.62-1.28,5.34-2.23,10.77-4.22,15.92-.57,1.48-1.17,2.97-1.95,4.34-1.87,3.32-4.2,5.08-8.6,5.34-19.3,1.14-38.56-.39-57.84-.36-13.47.02-26.95-.56-40.42-.91-14.03-.36-28.07-.72-42.1-1.14-6.61-.2-6.78-.44-6.8-7.17-.04-13.58-.03-27.16-.13-40.73-.03-4.73-.78-9.44-.82-14.25-1.52,5.09-3.38,10.01-4.94,15.02-.64,2.05-1.22,4.13-1.99,6.13-.48,1.26-.82,2.91-2.55,3.02-1.92.12-2.37-1.58-2.95-2.93-2.81-6.54-5.04-13.28-7.13-20.08-3.27-10.63-6.02-21.39-8.62-32.19-3.47-14.4-3.83-29.05-4.14-43.73-.08-3.96-.23-7.92.11-12.42-2.51,2-3.58,4.33-5.1,6.28-4.76,6.14-9.04,12.62-13.23,19.16-.83,1.3-1.64,3.25-3.34,3.04-1.8-.23-1.31-2.43-1.73-3.77-.57-1.78-.73-3.65-.79-5.54-.31-9.33-1.5-18.62-1.48-27.98.01-7.2.69-14.37,1.32-21.53.74-8.37,2.58-16.57,4.12-24.82.92-4.94,2.24-9.81,3.45-14.7.32-1.27.57-2.52.55-4.79-2.84,4.51-6.46,7.29-9.14,10.94-4.37,5.95-8.74,11.91-13.12,17.85-.64.87-1.12,2.21-2.52,1.79-1.35-.4-1.16-1.73-1.23-2.85-.31-4.48-1.09-8.97-.89-13.43.4-8.76.21-17.54,1.19-26.29.66-5.92.62-11.93,1.39-17.86,1.07-8.23,2.46-16.39,4.42-24.46,1.83-7.53,4.13-14.91,6.77-22.19.24-.67.77-1.32.31-2.04-.49-.25-.81-.07-1.08.21-8.08,8.1-15.76,16.53-22.3,25.95-.21.31-.42.62-.67.9-.59.7-1.1,1.75-2.19,1.46-1.17-.31-.92-1.47-.96-2.38-.59-12.78.9-25.36,3.71-37.8,4.1-18.17,9.55-35.92,17.71-52.72,3.56-7.32,7.35-14.53,11.02-21.79.58-1.15,1.13-2.33,1.94-4.02-3.08,1.03-5.34,2.43-7.52,3.91-4.02,2.73-7.93,5.64-11.89,8.46-.65.46-1.19,1.48-2.13.92-.85-.5-.46-1.53-.51-2.33-1.49-23.1,5.52-43.83,17.47-63.25,5.2-8.44,9.47-17.45,15.48-25.39,2.59-3.43,5.43-6.68,8.13-10.02.63-.78,1.54-1.39,1.67-2.73-3.1.6-5.98,1.59-8.76,2.8-7.63,3.31-15.67,5.49-23.4,8.51-.66.26-1.31.39-1.77-.25-.48-.66.02-1.23.34-1.79,4.96-8.82,10.02-17.61,16.84-25.14,21.07-23.29,46.26-40.92,74.66-54.17,9.32-4.35,18.94-8.04,28.03-12.88,2.97-1.59,5.77-3.38,8.13-6.43-7.39.71-14.45.39-21.51.49-.84.01-1.69,0-2.53-.02-.46-.01-.99.03-1.23-.46-.32-.65.21-1.04.59-1.42.66-.67,1.32-1.33,2.02-1.95,12.61-11.16,25.11-22.45,37.89-33.42,7.24-6.22,14.24-12.7,21.27-19.15.41-.38.85-.75,1.32-1.04,2.83-1.71,2.78-1.62-.04-3.77-8.08-6.18-12.9-14.67-16.59-23.9-4.64-11.61-6.14-23.7-4.54-36.02,2.58-19.89,11.3-35.91,30.29-44.74,3.07-1.43,6.59-1.9,9.5.61,3.04,2.61,2.96,6.02,1.85,9.55-.39,1.24-.76,2.5-1.12,3.75-2.26,7.9-.84,15.35,2.91,22.44,6.51,12.3,17.35,16.99,30.65,16.84,14.04-.16,9.4,1.4,20.2-7.98,13.55-11.77,28.94-20.54,45.73-26.86,8.14-3.06,16.52-5.36,24.99-7.12,10.73-2.23,21.65-3.02,32.63-2.5.09,0,.19-.01.28.01,2.14.73,5.31.28,6,2.76.6,2.19-2.26,3.08-3.8,4.31-3.5,2.8-7.1,5.48-10.62,8.27-2.82,2.23-5.02,5.02-6.95,8.03-.3.46-.83.91-.38,1.47.43.53,1.03.18,1.57.07,3.86-.85,7.48-2.4,11.04-4.05,14.53-6.75,29.45-12.49,44.94-16.57,9.18-2.42,18.53-4.22,28.14-4.41,4.66-.09,9.3-.76,13.95.16,1.83.36,3.7.51,5.38,1.46,2.55,1.45,2.62,2.07.14,3.52-6.24,3.65-11.73,8.3-17.2,13.16,3.84-1.08,7.66-2.25,11.53-3.21,7.33-1.82,14.75-3.05,22.29-3.85,8.36-.89,16.62-.47,24.88.63,5.94.79,11.77,2.09,17.38,4.28,2.99,1.16,4.96,3.63,7.38,5.51.96.75.58,1.42-.14,2.08-1.12,1.03-2.43,1.74-3.81,2.33-5.07,2.15-9.71,5.06-14.62,7.76.94.93,1.93,1.02,2.8,1,9.16-.2,17.52,2.92,25.48,6.81,10.26,5.02,20.68,4.2,30.84,1.05,10.4-3.23,18.35-9.93,20.64-21.29,1.44-7.17,2.12-14.48-1.51-21.38-.97-1.84-.97-3.84-.71-5.77.3-2.29,1.78-3.51,4.19-3.75,6.37-.64,11.74,1.59,16.6,5.48,10.8,8.64,17.78,19.64,21.25,33.07,2.39,9.26,2.27,18.37.67,27.7-1.61,9.42-4.54,18.26-9.43,26.46-3.5,5.86-8.42,10.4-13.52,14.57,11.02,7.95,20.63,17.51,30.98,26.2,11.54,9.68,22.78,19.7,34.02,29.72,1.13,1.01,3.7,1.37,3.18,3.08-.6,1.96-3.16,1.2-4.74,1.2-7.46.02-14.91-.38-22.27-1.77-.5,1.16.49,1.36,1,1.72,6.64,4.63,13.97,7.95,21.31,11.26,19.55,8.82,38.81,18.23,56.37,30.67,13.61,9.64,25.17,21.51,35.47,34.56,5.05,6.4,8.89,13.61,12.41,20.96.21.43.54.87.23,1.29-.5.68-1.19.27-1.8.12-5.2-1.25-10.1-3.36-15.11-5.16-4.6-1.66-9.03-3.83-14.13-5.03.35,1.63,1.23,2.57,2.06,3.53,10.88,12.67,19.32,26.82,25.87,42.17,4.12,9.64,7.63,19.49,10.19,29.62,1.92,7.59,3.18,15.37,2.64,23.29-.09,1.26-.34,2.54-1.46,3.19-1.24.73-2.03-.52-2.91-1.11-4.29-2.84-8.56-5.72-12.84-8.58-1.24-.83-2.62-1.28-4.41-1.64.48,4.25,2.09,7.8,3.78,11.31,4.4,9.1,9.07,18.08,12.71,27.51,4.82,12.46,9.1,25.1,12.57,38.01,3.39,12.61,5.04,25.42,4.87,38.47-.01.8.32,1.87-.64,2.26ZM859.3,593.5c.07,2.61.75,3.56,3.48,3.67,8.12.32,16.23.96,24.35,1.46,9.7.59,19.36,1.78,29.09,1.95,1.36.02,2.27.12,2.41-1.72.72-9.05,1.3-18.09,1.13-27.18-.04-2.17-.71-3.02-2.93-2.94-8.6.3-17.1-1.88-25.73-1.13-1.77.15-2.6-.81-2.69-2.48-.08-1.49-.12-2.99-.09-4.49.16-8.14.37-16.28.51-24.42.06-3.46.63-4.15,3.96-3.38,7.36,1.71,14.92.86,22.31,2.04,1.54.25,2.22-.42,2.42-1.93,1.12-8.49.55-17.02.41-25.53-.05-3.17-1.25-4.02-4.53-3.97-6.94.09-13.78-1.34-20.72-1.29-2.29.02-3.43-1.06-3.13-3.52.72-5.87.35-11.79.51-17.68,0-4.78,0-9.55,0-14.33,0-1.3.07-2.55,1.97-2.2,8.82,1.65,17.8,1.87,26.7,2.8,2.47.26,3.33-.59,3.27-3.09-.18-8.14.14-16.28-.45-24.42-.26-3.57-1.05-4.5-4.75-4.69-2.24-.11-4.47.04-6.72-.35-6.26-1.06-12.63-1.1-18.94-1.79-7.11-.78-14.29-.98-21.36-2.31-1.18-.22-2.43-.11-3.64-.13-1.48-.03-2.24.64-2.25,2.19-.05,8.29-.21,16.55-.93,24.85-.8,9.28-.08,18.66-.65,28.01-.63,10.26.25,20.58-.79,30.85-.92,9.04-.65,18.14-.8,27.19-.29,16.65-1.85,33.26-1.42,49.93ZM650.91,313.36c-4.85-8.2-11.81-12.85-21.35-13.14-5.86-.18-11.75-.3-17.4,2.03-8.87,3.64-13.99,10.28-15.09,19.59-.75,6.35-.75,12.81,2.36,18.9,4.54,8.88,11.87,15.25,23.67,14.08,3.13.39,6.7,0,10.16-.64,5-.92,9.06-3.92,12.59-7.42,2.17-2.15,4.01-4.7,5.69-7.27,1.48-2.26,2.44-4.8,2.48-7.63.1-6.36.33-12.66-3.12-18.49ZM790.04,308.97c-4.37-6.15-9.89-10.87-17.26-13.21-4.5-1.43-8.75-3.6-13.49-4.35-1.5-.24-2.98-.32-4.46-.28-13.12.29-24.28,4.63-32.31,15.56-3.94,5.37-4.87,11.58-5.34,16.57.23,11.09,1.77,20.42,8.28,28.14,4.19,4.97,9.62,8.3,15.63,10.56,9.55,3.58,19.28,4.43,29.02.77,9.2-3.45,15.32-9.98,19.8-18.77,3.55-6.98,3.68-14.45,4.7-21.72.65-4.58-1.78-9.32-4.58-13.27ZM413.18,622.93c.74.79,1.9,1.17,2.97.95,1.06-.21,1.99-1.01,2.36-2.03.59-1.61-.67-3.97-.99-5.59-.1-.51-.94-6.02-.61-6.07,3.21-.5,3.16-.47,3.29-4.21.42-11.71-1.33-23.35-1.02-35.05.25-9.46-1.09-18.88-.74-28.34.03-.73-.2-1.48-.31-2.22-1.34-9.18-.26-18.51-1.73-27.68-.11-.72-.13-1.76.68-1.97,1.21-.3,1.17.98,1.39,1.67,1.62,5.15,3.36,10.28,4.71,15.51,4.18,16.42,10.13,32.48,17.13,47.84.81,1.78,1.88,3.96,2.97,5.28,3.44,4.1,5.41-2.45,6.47-5.39,3.01-9.19,5.28-18.66,7.39-28.1,3.18-14.37,6.54-28.68,9.22-43.16.3-1.61-.08-3.57,1.4-4.96,1.29.97.97,2.26.93,3.42-.06,1.77-.37,3.55-.31,5.32.29,8.22.88,16.43.98,24.65.27,22.55-.43,45.11.47,67.67.1,2.58.94,3.25,3.45,3.41,6.68.42,13.15-1.74,19.81-1.27,1.96.14,1.94-1.32,1.93-2.68-.17-17.41.71-34.8,1.05-52.2.37-18.99.52-37.98,1-56.97.49-19.64.46-39.29.64-58.94.03-3.2-.18-3.36-3.13-2.46-1.46.44-2.93.51-4.43.54-2.06.03-4.15-.1-6.16.24-5.97,1-11.9,2.14-17.99,2.09-1.58-.01-3.16.32-4.73.5-1.64.19-2.34,1.08-2.54,2.78-.34,2.96-.95,5.89-1.48,8.82-.97,5.4-2.17,10.77-2.92,16.2-1.25,9.13-2.95,18.18-4.87,27.18-1.5,6.99-3.5,13.88-5.25,20.82-.2.8-.12,1.91-1.22,1.9-1.23,0-1.2-1.18-1.41-2.08-1.04-4.45-1.89-8.96-3.23-13.31-2.4-7.76-3.87-15.74-5.65-23.63-2.25-9.99-3.93-20.11-5.84-30.18-.23-1.19-.91-1.88-2.08-1.87-1.4,0-2.83.02-4.18.31-8.37,1.79-16.81,3.2-25.3,4.26-1.44.18-2.27.59-2.3,2.16-.16,10.29-1.16,20.66-.25,30.86.72,8.06.38,16.05.47,24.05.12,10.94-.33,21.87.3,32.82.59,10.26.63,20.56.78,30.84.15,10.05.21,20.11.31,30.16h-.14c.05.24.1.49.15.73.03,3.64.07,7.28.12,10.92.02,1.44-.47,3.54.06,4.92.19.49.47.71.96.88.62.21.96-.13,1.29.56.09.47.11.95.07,1.43.21,3.09.23,6.19.09,9.29-.22,4.82-.84,9.63-1.82,14.36-.41,2-1.19,3.83-.59,5.87.48,1.63,1.58,3.1,3.07,3.94,2.32,1.3,5.44,1,7.47-.73,1.24-1.06,2.02-2.61,2.22-4.22.22-1.78-.53-2.85-.99-4.47-.34-1.2-.65-2.42-.92-3.64-.56-2.48-.97-4.98-1.25-7.51-.42-4.85-.56-9.64-.14-14.5.33-.65.96-1,1.66-1.12,2.52-.55,5.16-.61,7.72-.81-.05,2.33-.27,4.65-.67,6.95-.18,1-.54,2.05-.56,3.04-.02.77.16,1.52.8,2.2ZM513.45,689.19c-.29-9.45.48-20.58-1.06-31.68-.76-5.5-1.8-10.8-4.59-15.67-5.16-9.03-12.69-14.78-23.16-15.74-10.37-.95-20.72.7-31.08,1.18-8.49.39-16.96,1.18-25.46,1.56-3.28.15-6.53.39-9.77.84-4.2.59-4.31.79-3.93,4.92.71,7.64,1.09,15.28,1.09,22.95,0,12.35.53,24.68.93,37.01.63,19.35,1.54,38.69,1.89,58.05.08,4.2.04,8.44.62,12.59,1.86,13.36.28,26.86,2.06,40.24.82,6.18.44,12.52.61,18.78.03,1.11-.13,2.47,1.62,2.28,2.8-.3,5.56.31,8.4.01,6.87-.73,13.75-1.46,20.68-1.37,1.3.02,2.6-.2,3.89-.4,1.23-.2,1.61-.95,1.51-2.22-.94-12.29-1.92-24.58-1.61-36.93.03-1.21-.16-2.42-.25-3.63-.67-9.59-1.8-19.15-1.42-28.79.06-1.45.54-2.29,2.01-2.51,1.38-.22,2.75-.65,4.14-.74,9.99-.64,19.88-1.93,29.39-5.14,7.92-2.67,14.7-7.07,18.57-14.85,3.25-6.53,4.89-13.51,4.91-20.83.02-6.09,0-12.17,0-19.91ZM633.78,819.16c-.14-4.67-.61-9.32-.83-13.99-.13-2.64-.58-5.4-1.25-7.99-1.46-5.7-2.21-11.52-2.89-17.3-.77-6.56-1.81-13.1-2.75-19.62-.93-6.42-1.65-12.91-2.77-19.33-.46-2.65-1.03-5.3-1.38-7.98-1.16-8.87-2.45-17.72-3.7-26.58-.96-6.83-1.93-13.65-2.92-20.48-.76-5.26-1.15-10.62-2.24-15.78-1.79-8.51-2.5-17.16-3.94-25.71-1.17-6.96-2.04-13.98-3.25-20.94-.34-1.98-1.08-2.66-3.1-2.54-4.68.27-9.36.46-14.05.67-3.13.14-8.38,1.51-11.21-.1-1.32-.75-2.34-1.93-3.28-3.13-2.95-3.74-5.52-7.96-6.31-12.65-1.04-6.18,1.64-9.94,5.28-14.43s6.35-9.89,8.29-15.33c3.79-10.68,5.24-23.17,4.26-34.46-2.48-28.44,5.71-88.44-12.42-108.15-8.88-8.05-24.03-5.28-34.83-3.27-23.19,5.41-29.83,25.67-29.13,47.22.34,30.44-2.77,61.14,1.2,91.4,1.54,8.39,2.95,18.45,10.89,23.28,4.67,2.84,10.08,4.35,15.44,5.17,2.59.4,5.19.6,7.79.79,2.26.16,5.18-.42,7.26.63.78.39,1.41,1.02,1.99,1.68,4.8,5.47,6.3,13.26,5.44,20.49-.09.72-.21,1.47-.67,2.03-.92,1.11-4.28.54-5.57.58-2.48.09-4.97.19-7.45.35-2.34.15-3.5.92-3.77,3.1-.92,7.32-2.41,14.57-3.28,21.88-1.05,8.79-2.49,17.53-3.66,26.3-1.26,9.43-2.89,18.81-4,28.27-.43,3.61-.69,7.24-1.21,10.84-.95,6.63-2.38,13.23-2.89,19.89-.71,9.22-2.08,18.36-3.21,27.5-1.06,8.58-1.57,17.25-3.54,25.74-1.36,5.87-2.04,11.91-2.79,17.9-.57,4.52-1.68,8.99-1.35,13.63.15,2.07.67,3.08,2.92,3.08,10.3,0,20.6.05,30.9.2,2.48.04,3.61-.96,3.83-3.35.59-6.4,1.24-12.8,1.85-19.19.58-6.13,1.68-12.16,2.37-18.26.11-1.01.58-1.49,1.59-1.56,4.65-.31,9.2-1.38,13.93-1.22,4.75.16,9.55-.15,14.29-.62,2.21-.22,2.42.56,2.64,2.37.55,4.63.79,9.3,1.33,13.91.81,6.83,2.54,13.54,2.52,20.48,0,1.39.36,2.78.56,4.17.25,1.79,1.25,2.57,3.07,2.51,8.61-.31,17.21.45,25.81.37,2.53,0,5.07-.17,7.57.05,2.11.19,2.65-.67,2.6-2.53ZM655.9,589.03c1.68,4.59,5.62,3.34,9.65,3.25,5.66-.13,11.32-.26,16.97-.39,3.13-.07,3.54-.19,3.56-3.4,0-.56,0-1.12,0-1.69.33-30.23-.57-60.46.34-90.7.51-16.74.09-33.5.09-50.25h.54c0-6.18.02-12.36-.01-18.54,0-2.11-.46-4.03-3.13-4.1-8.05-.19-16.08.09-24.08,1.11-1.35.17-1.88.74-1.8,2.23.5,8.31.17,16.64.57,24.96.44,9.25.1,18.54.15,27.81.01,2.61.14,5.22.27,7.83.34,6.63.23,13.28.28,19.93,0,.45,0,1.03-.55,1.17-.77.19-.92-.51-1.07-1.01-.49-1.7-.8-3.46-1.39-5.12-2.56-7.12-5.1-14.24-7.82-21.3-6.95-18.05-14-36.05-20.95-54.09-.93-2.4-2.67-2.66-4.76-2.26-7.62,1.47-15.41,1.03-23.08,2.05-2.04.27-2.8.85-2.73,2.88.14,4.2,0,8.39.51,12.6,1.04,8.65.68,17.38.92,26.06.45,16,.12,32.02.14,48.03.01,12.36-.02,24.71-.3,37.07-.27,11.42-.14,22.85.01,34.27.03,2.19-.64,4.93.81,6.54,2.26,2.53,8.03.6,10.87.45,3.75-.19,15.65.95,15.55-4.73-.23-13.66-.51-27.31.43-40.96.81-11.86.43-23.76.47-35.64,0-.47,0-.94.04-1.4.05-.44.02-1.02.66-1.05.61-.03.67.51.81.95.86,2.77,1.64,5.55,2.59,8.29,8.02,23.22,16.98,46.1,25.42,69.17ZM757.92,816.47c-.28-3.11-.85-6.2-1.62-9.23-1.31-4.41-3.1-8.67-4.5-13.06-5.33-16.71-10.57-33.44-15.93-50.14-2.59-8.06-2.56-7.89,4.08-13.12,7.04-5.55,12.02-12.38,13.19-21.69.79-6.26.74-12.5.72-18.76-.05-12.82.47-25.64-.35-38.46-.41-6.4-1.92-12.34-5.97-17.46-3.82-4.83-8.1-9.2-14.2-10.9-8.48-2.37-17.22-3.34-26.01-3.11-6.43.17-12.88.15-19.3.23-12.16.16-24.3.86-36.46.82-4.18-.02-4.19,0-4.19,4.22,0,32.02,0,64.04,0,96.07h.17c0,30.8,0,61.61,0,92.41,0,8.28,0,8.15,8.36,8.23,7.79-.03,15.56-1.13,23.33-.97,1.02.01,2.11.03,3.08-.14,4.01-.61,3.65-4.74,3.6-8.23-.02-1.26-.02-2.52-.03-3.78-.02-4.69-.03-9.39-.06-14.08-.08-13.1-.19-26.21-.29-39.31-.01-1.84.8-2.78,2.71-2.75,2.53.04,5.06.09,7.58,0,1.84-.07,2.78.78,3.19,2.46,1.64,6.79,3.84,13.42,5.89,20.09,4.3,13.99,8.62,27.98,12.9,41.98.69,2.24,1.83,3.34,4.45,3.21,6.16-.32,12.33-.17,18.5.18,4.47.2,9.02.44,13.51.22,3.07-.12,4-2.09,3.64-4.9ZM769.32,577.74c2.79-6.43,4.13-13.13,4.28-20.09.08-3.67-.97-7.82-.81-11.68.1-2.47,2.85-3.9,4.94-2.57,3,1.91,6.09,3.64,9.32,5.13.26.12.54.21.83.26,2.33.37,4.74-.02,6.9-.96,2.37-1,4.71-2.88,6.24-2.9,3.18.04,1.57,7.09,1.45,9.16-.07,3.98-.12,7.95-.16,11.93-.07,7.78-.09,15.56-.15,23.34-.03,3.56,1.42,4.97,5,4.83,6.48-.25,12.88.62,19.31,1.01,3.35.2,4.42-.59,4.44-4.05.08-15.25-.14-30.5.65-45.75.62-12.05-.02-24.12.46-36.2.58-14.77.88-29.56.59-44.35-.06-3.22.63-4,3.76-3.04,3.91,1.2,8.01.58,11.9,1.73,1.68.5,2.41-.28,2.39-2.03-.05-4.77-.02-9.55-.02-14.32-.01,0-.03,0-.04,0,0-4.68-.07-9.36.03-14.04.05-2.15-.5-3.02-2.9-3.33-5.5-.7-11.02-.52-16.51-1.07-14.24-1.43-28.5-2.45-42.82-2.17-3.78.08-3.78.02-3.78,3.93.01,7.4.03,14.79.04,22.19.01,5.61.63,5.35,8.29,5.58,2.47.08,4.95-.01,7.42-.09,2.54-.08,3.43,1.06,3.35,3.48-.08,2.43.01,4.87,0,7.3-.09,17.96-.79,35.92-.57,53.89.03,2.1.88,7.51-.32,9.3-.26.38-.65.64-1.04.88-4.97,3.01-11.07,3.9-16.74,2.81-2.9-.56-5.71-1.63-8.2-3.21-3.2-2.03-2.51-4.15-3.06-7.68-.87-5.63-3.42-10.28-7.57-13.98-5.03-4.47-10.38-8.57-15.45-13-5.28-4.62-11.38-8.22-16.24-13.36-3-3.16-6.05-6.42-6.34-10.92-.36-5.82-.07-11.69-.11-17.53,0-1.56.92-2.96,2.35-3.6,3.68-1.66,7.53-1.32,11.27-.85,3.36.43,5.03,2.99,5.31,6.53.46,5.7.55,11.39.09,17.1-.23,2.89.99,3.95,3.83,4.27,6.53.74,13.09.48,19.62.91,2.48.16,3.07-.55,3.1-2.86.07-6.65-.94-13.26-.61-19.91.32-6.29-.81-12.43-1.89-18.6-1.59-9.16-8.18-12.88-15.48-14.95-4.27-1.21-8.54-.79-12.8-1.16-9.33-.81-18.62-.66-27.88,1.09-10.99,2.09-15.43,8.49-15.72,19.77-.12,4.48.13,8.98-.06,13.46-.21,4.9,1.58,9.56,1.25,14.49-.33,4.94-.09,9.92-.06,14.88,0,1.06.11,2.12.35,3.16,1.63,6.91,5.51,12.6,10.21,17.68,8.53,9.19,18.68,16.38,29.42,22.75,2.53,1.5,4.55,3.56,5.33,6.29,2.36,8.28,1.86,16.64-.12,24.91-.51,2.13-2.04,3.59-4.56,4-2.02.33-3.91-.18-5.85-.23-4.87-.1-8.04-3.3-8.14-8.15-.07-3.37-.01-6.74-.01-10.11h.04c0-3.37-.05-6.74.02-10.11.04-1.81-.33-2.77-2.44-3.24-6.93-1.54-14.07-1.51-20.98-3.1-2.06-.47-2.91.54-2.76,2.63.69,9.29-.95,18.54.27,27.96.95,7.37,2.22,14.14,6.82,19.99,3.79,4.83,8.64,8.22,14.63,9.75,6.86,1.75,13.93,1.15,20.89,1.8,7.95.74,13.8-3.34,19.7-7.4,2.67-1.84,4.72-4.45,6.08-7.58ZM863.02,659.61c-.08-9.93-.06-19.85-.04-29.78,0-1.34-.32-2.58-.68-3.85-.45-1.58-1.37-2.25-3.06-2.23-16.38.17-32.74-.34-49.09-1.02-5.98-.25-11.98-.04-17.98-.04-7.12,0-14.23,0-21.35,0-3.6,0-4.07.41-4.11,4.01-.07,6.65-.04,13.3-.04,19.95,0,3.65-.05,7.31.07,10.96.05,1.59.31,3.06,2.63,3.19,4.62.27,6.19-.63,6.89,4.3.39,2.74.23,5.58.15,8.34-.15,4.89-2.03,9.94-2.03,14.7,0,2.73,2.21,4.94,4.94,4.94s4.94-2.21,4.94-4.94c0-.92-.71-2.2-.96-3.11-1.59-6.29-2.19-12.82-1.5-19.3.25-4.75,4.04-4.85,8.34-4.61,4.41.01,4.56.13,4.59,4.54.08,15.44-.36,30.86-.96,46.29-.68,17.38-.18,34.79-1.18,52.19-.74,12.89-.43,25.83-.6,38.75,0,.56,0,1.13-.1,1.68-.96,4.96-1.03,9.97-1.02,14.99,0,1.55.71,2.16,2.21,2.21,11.32.31,22.63.82,33.95.61,1.67-.03,2.41-.64,2.34-2.33-.21-4.96.41-9.86.83-14.8.68-8.09.9-16.26,1.05-24.34.41-23.3.81-46.6,1.41-69.9.4-15.62.02-31.26,1.09-46.87.15-2.16.73-3.04,3.05-2.68,3.69.57,7.42.86,11.18.78,4.02-.09,8.09-.28,12.07.16,2.64.29,3-.57,2.98-2.79ZM987.53,632.3c-3.33-.44-6.67-1.05-10.01-1.1-6.09-.09-12.15-.68-18.18-1.32-5.22-.55-4.86-1.51-7.23,4.68-.07.17-.09.36-.15.54-3.93,11.67-7.84,23.35-11.8,35.01-3.42,10.08-6.89,20.14-10.35,30.2-.26.75-.27,1.89-1.37,1.85-1.2-.04-1.24-1.17-1.45-2.08-2.78-11.77-5.6-23.54-8.37-35.31-2.83-12.06-5.67-24.12-8.38-36.21-.44-1.98-1.41-2.32-3.23-2.62-7.98-1.32-16.07-.62-24.06-1.48-2.5-.27-4.98-.94-7.53-.67-.9.1-1.91.21-1.44,1.42.96,2.42.36,4.99,1,7.48,1.95,7.59,4.44,15.01,6.7,22.51,4.66,15.45,9.09,30.97,13.78,46.41,2.74,9.01,5.18,18.11,8.06,27.08,1.96,6.1,4.55,12.11,4.83,18.64.25,5.87-.38,11.76-.39,17.6-.04,16.39-1.98,32.69-1.92,49.07,0,3,.08,6-.03,8.99-.07,2.08.78,2.87,2.83,2.77,4.49-.22,8.98-.41,13.47-.48,5.71-.1,11.43-.09,17.14-.09,1.57,0,2.82-.2,2.8-2.21-.09-7.78,1.52-15.51,1.48-23.22-.1-17.25,1.96-34.38,1.9-51.61-.01-2.96.77-5.72,1.85-8.43,11.63-29.37,23.59-58.6,34.83-88.13,2.09-5.5,4.21-10.99,6.27-16.51.42-1.14.93-2.53-1.02-2.79ZM1007.06,481.09c.71-3.79-.1-7.42-.92-11.04-1.6-7.08-5.13-13.1-9.8-18.66-5.36-6.37-12.21-9.49-20.2-10.1-5.5-.42-10.94-1.24-16.43-1.66-6.79-.52-13.56-1.28-20.34-2.03-1.38-.15-1.72.19-1.87,1.57-1.04,9.68-.85,19.42-.91,29.1-.12,18.82-1.26,37.62-.89,56.44.01.56-.02,1.12-.08,1.68-1.7,16.94-.84,34.01-2.59,50.95-.5,4.83.49,9.76-.67,14.55-.7,2.88-.43,5.77-.52,8.66-.04,1.16.44,1.95,1.74,2.11,6.02.74,12.02,1.84,18.07,2.17,6.4.35,5.86.98,5.91-5.71,0-.47.02-.94.06-1.4,1.18-13.13.65-26.35,1.93-36.74.22-11.98-1.41-10.44,8.18-10.59.28,0,.56.02.84.01,1.21-.01,1.85.53,2.09,1.78.67,3.48,1.54,6.92,2.14,10.42,1.34,7.72,3.05,15.37,4.3,23.12,1.08,6.7,3.76,13.07,4.35,19.92.2,2.27,1.19,3.69,4.06,3.99,2.75.29,7.91-.23,10.25,1.4,2.06,1.43,2.07,6.35,2.37,8.77.87,7.14.63,14.41-.74,21.47-.53,2.74-1.13,5.92.69,8.05,1.25,1.47,3.5,1.94,5.27,1.17,1.77-.77,2.94-2.69,2.9-4.62-.02-.98-.32-1.92-.6-2.86-1.99-6.86-2.5-14.13-1.55-21.2.48-3.6,1.71-6.89,2.51-10.39.75-3.26-.55-7.32-1.24-10.66-1.3-6.29-2.66-12.58-4.03-18.86-1.61-7.36-3.26-14.72-4.89-22.07-1.17-5.27-2.4-10.53-3.49-15.81-.4-1.98-.32-3.89,1.94-5.02,8.28-4.12,10.64-11.87,11.21-20.06.75-10.81,1.2-21.67.74-32.53-.07-1.77-.14-3.6.19-5.32ZM687.13,710.04c1.11,1.87,7.76.44,9.87.33,7.21-.95,15.68-3.38,18.71-10.57.98-2.27,1.35-4.86,1.44-7.32.03-1.91,0-3.48-2.06-3.05-8.17,2.89-15.45,8.06-22.06,13.57-1.54,1.5-6.44,4.78-5.92,6.98l.02.05ZM974.74,470.18c-2.85-1.52-5.91-.63-8.8-1.26-2.63-.57-3.25.54-3.37,2.9-.6,11.28-.1,22.6-1.26,33.86,0,2.43,0,4.87,0,7.3,0,1.07.12,2.02,1.45,2.36,2.62.68,5.21,1.37,7.98,1.16,6-.44,12.09-5.78,11.81-11.16-.38-7.41.34-14.77.5-22.15.14-6.53-3.06-10.21-8.32-13.02ZM716.13,677.36c1.38-3.97.79-10.92-1.26-14.44-1.77-3.15-5.1-5.04-8.49-6-5.21-1.49-10.65-1.56-16.05-1.32-3.46.02-5.57,1.13-5.45,4.91-.04,9.68.43,19.38.1,29.08-.62,8.64.44,9.16,7.98,5.12,7-3.22,13.38-7.66,19.19-12.74,1.48-1.32,3.14-2.67,3.95-4.51l.04-.09ZM583.37,708.31c-2-12.05-2.96-24.24-5.38-36.22-.91-4.47-1.25-9.06-2.85-13.38-.22-.61-.27-1.45-1.07-1.46-.8,0-.94.81-1.07,1.44-.95,4.63-1.94,9.26-2.78,13.91-.96,5.3-1.44,10.7-2.73,15.92-1.34,5.44-1.94,10.98-2.7,16.48-1.52,10.98-2.5,22.04-3.84,33.05-.28,2.32.2,3.22,2.67,3.28,5.44.14,10.82-.42,16.23-.79.66,0,1.31,0,1.97,0,5.25,0,5.54-.05,4.99-5.36-.92-8.98-1.95-17.96-3.43-26.86Z"/>
</svg>