<?xml version="1.0" encoding="UTF-8"?>
<svg xmlns="http://www.w3.org/2000/svg" xmlns:xlink="http://www.w3.org/1999/xlink" viewBox="0 0 1920 1440">
  <defs>
    <style>
      .cls-1 {
        fill: none;
      }

      .cls-2 {
        fill: url(#_ÂÁ_Ï_ÌÌ_È_ËÂÌÚ_8-2);
        opacity: .21;
      }

      .cls-2, .cls-3, .cls-4, .cls-5, .cls-6, .cls-7, .cls-8, .cls-9, .cls-10, .cls-11, .cls-12, .cls-13, .cls-14, .cls-15, .cls-16, .cls-17, .cls-18, .cls-19 {
        mix-blend-mode: multiply;
      }

      .cls-3 {
        fill: url(#_ÂÁ_Ï_ÌÌ_È_ËÂÌÚ_9-9);
      }

      .cls-3, .cls-4, .cls-5, .cls-6, .cls-7, .cls-8, .cls-9, .cls-10, .cls-18 {
        opacity: .58;
      }

      .cls-4 {
        fill: url(#_ÂÁ_Ï_ÌÌ_È_ËÂÌÚ_9-7);
      }

      .cls-5 {
        fill: url(#_ÂÁ_Ï_ÌÌ_È_ËÂÌÚ_9-8);
      }

      .cls-6 {
        fill: url(#_ÂÁ_Ï_ÌÌ_È_ËÂÌÚ_9-3);
      }

      .cls-7 {
        fill: url(#_ÂÁ_Ï_ÌÌ_È_ËÂÌÚ_9-4);
      }

      .cls-8 {
        fill: url(#_ÂÁ_Ï_ÌÌ_È_ËÂÌÚ_9-2);
      }

      .cls-9 {
        fill: url(#_ÂÁ_Ï_ÌÌ_È_ËÂÌÚ_9-5);
      }

      .cls-10 {
        fill: url(#_ÂÁ_Ï_ÌÌ_È_ËÂÌÚ_9-6);
      }

      .cls-11 {
        fill: url(#_ÂÁ_Ï_ÌÌ_È_ËÂÌÚ_8-3);
        opacity: .15;
      }

      .cls-12 {
        fill: url(#_ÂÁ_Ï_ÌÌ_È_ËÂÌÚ_12);
      }

      .cls-12, .cls-13, .cls-14, .cls-16, .cls-17 {
        opacity: .56;
      }

      .cls-13 {
        fill: url(#_ÂÁ_Ï_ÌÌ_È_ËÂÌÚ_10);
      }

      .cls-14 {
        fill: url(#_ÂÁ_Ï_ÌÌ_È_ËÂÌÚ_11);
      }

      .cls-20 {
        fill: url(#_ÂÁ_Ï_ÌÌ_È_ËÂÌÚ_13);
      }

      .cls-20, .cls-21, .cls-22, .cls-23, .cls-24, .cls-25, .cls-26, .cls-27, .cls-28, .cls-29, .cls-30, .cls-31, .cls-32, .cls-33, .cls-34, .cls-35, .cls-36, .cls-37, .cls-38, .cls-39 {
        mix-blend-mode: screen;
      }

      .cls-40 {
        isolation: isolate;
      }

      .cls-15 {
        fill: #89c0e8;
        opacity: .22;
      }

      .cls-41 {
        clip-path: url(#clippath-1);
      }

      .cls-42 {
        fill: #fff;
      }

      .cls-21 {
        fill: url(#_ÂÁ_Ï_ÌÌ_È_ËÂÌÚ_6-13);
      }

      .cls-22 {
        fill: url(#_ÂÁ_Ï_ÌÌ_È_ËÂÌÚ_6-16);
      }

      .cls-23 {
        fill: url(#_ÂÁ_Ï_ÌÌ_È_ËÂÌÚ_6-14);
      }

      .cls-24 {
        fill: url(#_ÂÁ_Ï_ÌÌ_È_ËÂÌÚ_6-15);
      }

      .cls-25 {
        fill: url(#_ÂÁ_Ï_ÌÌ_È_ËÂÌÚ_6-18);
      }

      .cls-26 {
        fill: url(#_ÂÁ_Ï_ÌÌ_È_ËÂÌÚ_6-17);
      }

      .cls-27 {
        fill: url(#_ÂÁ_Ï_ÌÌ_È_ËÂÌÚ_6-19);
      }

      .cls-28 {
        fill: url(#_ÂÁ_Ï_ÌÌ_È_ËÂÌÚ_6-12);
      }

      .cls-29 {
        fill: url(#_ÂÁ_Ï_ÌÌ_È_ËÂÌÚ_6-11);
      }

      .cls-30 {
        fill: url(#_ÂÁ_Ï_ÌÌ_È_ËÂÌÚ_6-10);
      }

      .cls-43 {
        opacity: .8;
      }

      .cls-44 {
        opacity: .39;
      }

      .cls-31 {
        fill: url(#_ÂÁ_Ï_ÌÌ_È_ËÂÌÚ_6);
      }

      .cls-32 {
        fill: url(#_ÂÁ_Ï_ÌÌ_È_ËÂÌÚ_6-3);
      }

      .cls-33 {
        fill: url(#_ÂÁ_Ï_ÌÌ_È_ËÂÌÚ_6-6);
      }

      .cls-34 {
        fill: url(#_ÂÁ_Ï_ÌÌ_È_ËÂÌÚ_6-4);
      }

      .cls-35 {
        fill: url(#_ÂÁ_Ï_ÌÌ_È_ËÂÌÚ_6-9);
      }

      .cls-36 {
        fill: url(#_ÂÁ_Ï_ÌÌ_È_ËÂÌÚ_6-8);
      }

      .cls-37 {
        fill: url(#_ÂÁ_Ï_ÌÌ_È_ËÂÌÚ_6-7);
      }

      .cls-38 {
        fill: url(#_ÂÁ_Ï_ÌÌ_È_ËÂÌÚ_6-2);
      }

      .cls-39 {
        fill: url(#_ÂÁ_Ï_ÌÌ_È_ËÂÌÚ_6-5);
      }

      .cls-16 {
        fill: #3096cc;
      }

      .cls-45 {
        clip-path: url(#clippath);
      }

      .cls-46 {
        fill: url(#_ÂÁ_Ï_ÌÌ_È_ËÂÌÚ_15);
      }

      .cls-17 {
        fill: url(#_ÂÁ_Ï_ÌÌ_È_ËÂÌÚ_8);
      }

      .cls-18 {
        fill: url(#_ÂÁ_Ï_ÌÌ_È_ËÂÌÚ_9);
      }

      .cls-19 {
        fill: url(#_ÂÁ_Ï_ÌÌ_È_ËÂÌÚ_7);
        opacity: .26;
      }
    </style>
    <clipPath id="clippath">
      <rect class="cls-1" width="1920" height="1440"/>
    </clipPath>
    <clipPath id="clippath-1">
      <rect class="cls-1" x="-1562.31" y="-102.4" width="4814.1" height="2415.09" transform="translate(1349.28 -191.14) rotate(58.66)"/>
    </clipPath>
    <linearGradient id="_ÂÁ_Ï_ÌÌ_È_ËÂÌÚ_15" data-name="¡ÂÁ˚ÏˇÌÌ˚È „‡‰ËÂÌÚ 15" x1="415.71" y1="-519.48" x2="3851.51" y2="2916.32" gradientTransform="translate(1049.39 -1562.72) rotate(58.66)" gradientUnits="userSpaceOnUse">
      <stop offset=".3" stop-color="#4ec1c0"/>
      <stop offset=".47" stop-color="#4abcc1"/>
      <stop offset=".66" stop-color="#41afc4"/>
      <stop offset=".86" stop-color="#3299cb"/>
      <stop offset=".88" stop-color="#3096cc"/>
    </linearGradient>
    <linearGradient id="_ÂÁ_Ï_ÌÌ_È_ËÂÌÚ_9" data-name="¡ÂÁ˚ÏˇÌÌ˚È „‡‰ËÂÌÚ 9" x1="2117.53" y1="840.08" x2="2274.66" y2="840.08" gradientTransform="translate(1049.39 -1562.72) rotate(58.66)" gradientUnits="userSpaceOnUse">
      <stop offset=".16" stop-color="#3096cc"/>
      <stop offset=".24" stop-color="#3799cd"/>
      <stop offset=".37" stop-color="#4aa3d2"/>
      <stop offset=".51" stop-color="#6ab3da"/>
      <stop offset=".68" stop-color="#97cae5"/>
      <stop offset=".85" stop-color="#d0e7f3"/>
      <stop offset=".98" stop-color="#fff"/>
    </linearGradient>
    <linearGradient id="_ÂÁ_Ï_ÌÌ_È_ËÂÌÚ_9-2" data-name="¡ÂÁ˚ÏˇÌÌ˚È „‡‰ËÂÌÚ 9" x1="1764" y1="919.4" x2="2357.8" y2="919.4" xlink:href="#_ÂÁ_Ï_ÌÌ_È_ËÂÌÚ_9"/>
    <linearGradient id="_ÂÁ_Ï_ÌÌ_È_ËÂÌÚ_9-3" data-name="¡ÂÁ˚ÏˇÌÌ˚È „‡‰ËÂÌÚ 9" x1="2486.43" y1="1332.1" x2="2614.96" y2="1332.1" xlink:href="#_ÂÁ_Ï_ÌÌ_È_ËÂÌÚ_9"/>
    <linearGradient id="_ÂÁ_Ï_ÌÌ_È_ËÂÌÚ_9-4" data-name="¡ÂÁ˚ÏˇÌÌ˚È „‡‰ËÂÌÚ 9" x1="2030.52" y1="1639.68" x2="2117.86" y2="1639.68" xlink:href="#_ÂÁ_Ï_ÌÌ_È_ËÂÌÚ_9"/>
    <linearGradient id="_ÂÁ_Ï_ÌÌ_È_ËÂÌÚ_9-5" data-name="¡ÂÁ˚ÏˇÌÌ˚È „‡‰ËÂÌÚ 9" x1="794.58" y1="1528.34" x2="1262.32" y2="1528.34" xlink:href="#_ÂÁ_Ï_ÌÌ_È_ËÂÌÚ_9"/>
    <linearGradient id="_ÂÁ_Ï_ÌÌ_È_ËÂÌÚ_9-6" data-name="¡ÂÁ˚ÏˇÌÌ˚È „‡‰ËÂÌÚ 9" x1="1165.72" y1="1578.75" x2="1352.48" y2="1578.75" xlink:href="#_ÂÁ_Ï_ÌÌ_È_ËÂÌÚ_9"/>
    <linearGradient id="_ÂÁ_Ï_ÌÌ_È_ËÂÌÚ_9-7" data-name="¡ÂÁ˚ÏˇÌÌ˚È „‡‰ËÂÌÚ 9" x1="1674.38" y1="1774.2" x2="1803.66" y2="1774.2" xlink:href="#_ÂÁ_Ï_ÌÌ_È_ËÂÌÚ_9"/>
    <linearGradient id="_ÂÁ_Ï_ÌÌ_È_ËÂÌÚ_9-8" data-name="¡ÂÁ˚ÏˇÌÌ˚È „‡‰ËÂÌÚ 9" x1="2140.97" y1="1702.82" x2="2288.3" y2="1702.82" xlink:href="#_ÂÁ_Ï_ÌÌ_È_ËÂÌÚ_9"/>
    <linearGradient id="_ÂÁ_Ï_ÌÌ_È_ËÂÌÚ_6" data-name="¡ÂÁ˚ÏˇÌÌ˚È „‡‰ËÂÌÚ 6" x1="810.56" y1="1583.99" x2="1273.76" y2="1583.99" gradientTransform="translate(1049.39 -1562.72) rotate(58.66)" gradientUnits="userSpaceOnUse">
      <stop offset="0" stop-color="#4ec1c0"/>
      <stop offset="1" stop-color="#000"/>
    </linearGradient>
    <linearGradient id="_ÂÁ_Ï_ÌÌ_È_ËÂÌÚ_6-2" data-name="¡ÂÁ˚ÏˇÌÌ˚È „‡‰ËÂÌÚ 6" x1="1176.98" y1="1610.08" x2="1390.92" y2="1610.08" xlink:href="#_ÂÁ_Ï_ÌÌ_È_ËÂÌÚ_6"/>
    <linearGradient id="_ÂÁ_Ï_ÌÌ_È_ËÂÌÚ_6-3" data-name="¡ÂÁ˚ÏˇÌÌ˚È „‡‰ËÂÌÚ 6" x1="645.99" y1="1190.27" x2="1439.04" y2="1190.27" xlink:href="#_ÂÁ_Ï_ÌÌ_È_ËÂÌÚ_6"/>
    <linearGradient id="_ÂÁ_Ï_ÌÌ_È_ËÂÌÚ_13" data-name="¡ÂÁ˚ÏˇÌÌ˚È „‡‰ËÂÌÚ 13" x1="1800.99" y1="996.14" x2="2359.69" y2="996.14" gradientTransform="translate(1049.39 -1562.72) rotate(58.66)" gradientUnits="userSpaceOnUse">
      <stop offset=".25" stop-color="#4ec1c0"/>
      <stop offset="1" stop-color="#000"/>
    </linearGradient>
    <linearGradient id="_ÂÁ_Ï_ÌÌ_È_ËÂÌÚ_6-4" data-name="¡ÂÁ˚ÏˇÌÌ˚È „‡‰ËÂÌÚ 6" x1="2032.82" y1="1659.86" x2="2119.16" y2="1659.86" xlink:href="#_ÂÁ_Ï_ÌÌ_È_ËÂÌÚ_6"/>
    <linearGradient id="_ÂÁ_Ï_ÌÌ_È_ËÂÌÚ_6-5" data-name="¡ÂÁ˚ÏˇÌÌ˚È „‡‰ËÂÌÚ 6" x1="2145.37" y1="1730.28" x2="2295.63" y2="1730.28" xlink:href="#_ÂÁ_Ï_ÌÌ_È_ËÂÌÚ_6"/>
    <linearGradient id="_ÂÁ_Ï_ÌÌ_È_ËÂÌÚ_6-6" data-name="¡ÂÁ˚ÏˇÌÌ˚È „‡‰ËÂÌÚ 6" x1="2487.84" y1="1362.41" x2="2614.17" y2="1362.41" xlink:href="#_ÂÁ_Ï_ÌÌ_È_ËÂÌÚ_6"/>
    <linearGradient id="_ÂÁ_Ï_ÌÌ_È_ËÂÌÚ_6-7" data-name="¡ÂÁ˚ÏˇÌÌ˚È „‡‰ËÂÌÚ 6" x1="1674.85" y1="1790.11" x2="1803.4" y2="1790.11" xlink:href="#_ÂÁ_Ï_ÌÌ_È_ËÂÌÚ_6"/>
    <linearGradient id="_ÂÁ_Ï_ÌÌ_È_ËÂÌÚ_6-8" data-name="¡ÂÁ˚ÏˇÌÌ˚È „‡‰ËÂÌÚ 6" x1="2981.58" y1="-1127.45" x2="2609.06" y2="2254.9" gradientTransform="translate(1878.28 -1275.02) rotate(97.37)" xlink:href="#_ÂÁ_Ï_ÌÌ_È_ËÂÌÚ_6"/>
    <linearGradient id="_ÂÁ_Ï_ÌÌ_È_ËÂÌÚ_6-9" data-name="¡ÂÁ˚ÏˇÌÌ˚È „‡‰ËÂÌÚ 6" x1="1721.66" y1="-257.03" x2="1440.88" y2="2292.3" gradientTransform="translate(1878.28 -1275.02) rotate(97.37)" xlink:href="#_ÂÁ_Ï_ÌÌ_È_ËÂÌÚ_6"/>
    <linearGradient id="_ÂÁ_Ï_ÌÌ_È_ËÂÌÚ_12" data-name="¡ÂÁ˚ÏˇÌÌ˚È „‡‰ËÂÌÚ 12" x1="1401.35" y1="2333.3" x2="2483.57" y2="2333.3" gradientTransform="translate(1049.39 -1562.72) rotate(58.66)" gradientUnits="userSpaceOnUse">
      <stop offset=".31" stop-color="#3096cc"/>
      <stop offset="1" stop-color="#fff"/>
    </linearGradient>
    <linearGradient id="_ÂÁ_Ï_ÌÌ_È_ËÂÌÚ_11" data-name="¡ÂÁ˚ÏˇÌÌ˚È „‡‰ËÂÌÚ 11" x1="1479.4" y1="2285.21" x2="3223.79" y2="2285.21" gradientTransform="translate(1049.39 -1562.72) rotate(58.66)" gradientUnits="userSpaceOnUse">
      <stop offset=".41" stop-color="#3096cc"/>
      <stop offset="1" stop-color="#fff"/>
    </linearGradient>
    <linearGradient id="_ÂÁ_Ï_ÌÌ_È_ËÂÌÚ_10" data-name="¡ÂÁ˚ÏˇÌÌ˚È „‡‰ËÂÌÚ 10" x1="211.07" y1="-2582.6" x2="2870.88" y2="735.63" gradientTransform="translate(1878.28 -1275.02) rotate(97.37)" gradientUnits="userSpaceOnUse">
      <stop offset="0" stop-color="#fff"/>
      <stop offset=".59" stop-color="#3096cc"/>
    </linearGradient>
    <linearGradient id="_ÂÁ_Ï_ÌÌ_È_ËÂÌÚ_9-9" data-name="¡ÂÁ˚ÏˇÌÌ˚È „‡‰ËÂÌÚ 9" x1="2431.54" y1="2269.13" x2="2431.54" y2="-1129.62" gradientTransform="translate(1878.28 -1275.02) rotate(97.37)" xlink:href="#_ÂÁ_Ï_ÌÌ_È_ËÂÌÚ_9"/>
    <linearGradient id="_ÂÁ_Ï_ÌÌ_È_ËÂÌÚ_6-10" data-name="¡ÂÁ˚ÏˇÌÌ˚È „‡‰ËÂÌÚ 6" x1="2288.82" y1="2269.16" x2="2288.82" y2="-1129.82" gradientTransform="translate(1878.28 -1275.02) rotate(97.37)" xlink:href="#_ÂÁ_Ï_ÌÌ_È_ËÂÌÚ_6"/>
    <linearGradient id="_ÂÁ_Ï_ÌÌ_È_ËÂÌÚ_8" data-name="¡ÂÁ˚ÏˇÌÌ˚È „‡‰ËÂÌÚ 8" x1="2313.1" y1="784.93" x2="2295.59" y2="393.48" gradientTransform="translate(1049.39 -1562.72) rotate(58.66)" gradientUnits="userSpaceOnUse">
      <stop offset="0" stop-color="#3096cc"/>
      <stop offset=".52" stop-color="#fff"/>
    </linearGradient>
    <linearGradient id="_ÂÁ_Ï_ÌÌ_È_ËÂÌÚ_8-2" data-name="¡ÂÁ˚ÏˇÌÌ˚È „‡‰ËÂÌÚ 8" x1="2860.53" y1="672.4" x2="4050.65" y2="672.4" xlink:href="#_ÂÁ_Ï_ÌÌ_È_ËÂÌÚ_8"/>
    <linearGradient id="_ÂÁ_Ï_ÌÌ_È_ËÂÌÚ_8-3" data-name="¡ÂÁ˚ÏˇÌÌ˚È „‡‰ËÂÌÚ 8" x1="-255.2" y1="982.04" x2="1702.58" y2="982.04" xlink:href="#_ÂÁ_Ï_ÌÌ_È_ËÂÌÚ_8"/>
    <linearGradient id="_ÂÁ_Ï_ÌÌ_È_ËÂÌÚ_7" data-name="¡ÂÁ˚ÏˇÌÌ˚È „‡‰ËÂÌÚ 7" x1="1188.88" y1="1725.03" x2="4579.22" y2="1725.03" gradientTransform="translate(1049.39 -1562.72) rotate(58.66)" gradientUnits="userSpaceOnUse">
      <stop offset="0" stop-color="#3096cc"/>
      <stop offset=".37" stop-color="#fff"/>
    </linearGradient>
    <linearGradient id="_ÂÁ_Ï_ÌÌ_È_ËÂÌÚ_6-11" data-name="¡ÂÁ˚ÏˇÌÌ˚È „‡‰ËÂÌÚ 6" x1="1702.78" y1="819.06" x2="1383.84" y2="819.06" xlink:href="#_ÂÁ_Ï_ÌÌ_È_ËÂÌÚ_6"/>
    <linearGradient id="_ÂÁ_Ï_ÌÌ_È_ËÂÌÚ_6-12" data-name="¡ÂÁ˚ÏˇÌÌ˚È „‡‰ËÂÌÚ 6" x1="1479.18" y1="1147.66" x2="1226.73" y2="1147.66" xlink:href="#_ÂÁ_Ï_ÌÌ_È_ËÂÌÚ_6"/>
    <linearGradient id="_ÂÁ_Ï_ÌÌ_È_ËÂÌÚ_6-13" data-name="¡ÂÁ˚ÏˇÌÌ˚È „‡‰ËÂÌÚ 6" x1="2995.03" y1="1014.71" x2="2819.41" y2="1014.71" xlink:href="#_ÂÁ_Ï_ÌÌ_È_ËÂÌÚ_6"/>
    <linearGradient id="_ÂÁ_Ï_ÌÌ_È_ËÂÌÚ_6-14" data-name="¡ÂÁ˚ÏˇÌÌ˚È „‡‰ËÂÌÚ 6" x1="2436.53" y1="760.99" x2="2102.03" y2="760.99" xlink:href="#_ÂÁ_Ï_ÌÌ_È_ËÂÌÚ_6"/>
    <linearGradient id="_ÂÁ_Ï_ÌÌ_È_ËÂÌÚ_6-15" data-name="¡ÂÁ˚ÏˇÌÌ˚È „‡‰ËÂÌÚ 6" x1="1270.58" y1="1698.3" x2="1174.59" y2="1698.3" xlink:href="#_ÂÁ_Ï_ÌÌ_È_ËÂÌÚ_6"/>
    <linearGradient id="_ÂÁ_Ï_ÌÌ_È_ËÂÌÚ_6-16" data-name="¡ÂÁ˚ÏˇÌÌ˚È „‡‰ËÂÌÚ 6" x1="1242.15" y1="1606.49" x2="1216.55" y2="1606.49" xlink:href="#_ÂÁ_Ï_ÌÌ_È_ËÂÌÚ_6"/>
    <linearGradient id="_ÂÁ_Ï_ÌÌ_È_ËÂÌÚ_6-17" data-name="¡ÂÁ˚ÏˇÌÌ˚È „‡‰ËÂÌÚ 6" x1="1616.65" y1="1571.03" x2="1267.52" y2="1571.03" xlink:href="#_ÂÁ_Ï_ÌÌ_È_ËÂÌÚ_6"/>
    <linearGradient id="_ÂÁ_Ï_ÌÌ_È_ËÂÌÚ_6-18" data-name="¡ÂÁ˚ÏˇÌÌ˚È „‡‰ËÂÌÚ 6" x1="5179.52" y1="-2122.05" x2="1345.08" y2="951.54" gradientTransform="translate(1878.28 -1275.02) rotate(97.37)" xlink:href="#_ÂÁ_Ï_ÌÌ_È_ËÂÌÚ_6"/>
    <linearGradient id="_ÂÁ_Ï_ÌÌ_È_ËÂÌÚ_6-19" data-name="¡ÂÁ˚ÏˇÌÌ˚È „‡‰ËÂÌÚ 6" x1="6227.71" y1="-1869.89" x2="-8765.23" y2="10148.13" gradientTransform="translate(1878.28 -1275.02) rotate(97.37)" xlink:href="#_ÂÁ_Ï_ÌÌ_È_ËÂÌÚ_6"/>
  </defs>
  <g class="cls-40">
    <g id="Layer_1" data-name="Layer 1">
      <g class="cls-43">
        <g class="cls-45">
          <g class="cls-41">
            <g>
              <path class="cls-46" d="M761.15,1792.35c509.48,664.35,818.2,1698.61,818.2,1698.61l724.19-301.08s-268.45-102.31-779.28-637.91c-415.78-435.93-883.82-1102.09-150.53-1085.95,742.16,16.34,1503.03,601.07,1503.03,601.07l-208.76-512.61s-60.32,33.6-589.55-48.05c-521.15-80.4-710.64-317.54-524.5-506.45,183.09-185.81,527.25-265.64,527.25-265.64l-26.12-40.63c-344.99,45.56-559.42,140.78-774.06-325.03-203.91-442.55-237.75-1270.91-237.75-1270.91,0,0-59.51-652.21-12.53,60.71,51.16,776.31-85.96,930.62-206.94,433.38-114.45-470.4-14.91-893.71-14.91-893.71,0,0-340.77-870.6-147.03-173.6C873.72-713.26,300.26,29.11,128.66-280.31c-306.94-553.47,102.35-1154.51,102.35-1154.51L-455.27-920.07S80.86-512.34,174.58,45.61C309.38,848.05-96.72,1957.78-96.72,1957.78l340.54,625.9S140.82-278.95,356.26,644.95c239.48,1026.97-112.44,1938.73-112.44,1938.73,0,0,371.96,485.58,367.36,475.83-4.6-9.74-324.93-1886.42,149.97-1267.16ZM1750.2,3101.82c-6.36,54.16-176.38-200.89-146.79-241.05,18.51-25.12,153.14,186.89,146.79,241.05ZM1717.35,2860.83c-23.84,55.22-214.75-175.72-177.01-196.31,33.1-18.06,200.85,141.08,177.01,196.31ZM2718.26,1762.84c14.37,64.88-204.28-22.86-204.57-67.58-.21-32.61,190.21,2.7,204.57,67.58ZM1982.91,1519.8c188.94-.56,550.03,133.7,502.13,170.16-48.05,36.56-760.27-169.39-502.13-170.16ZM-45.17-887.71c26.75-11.47,34.82,126.06,18.73,144.83-16.08,18.77-58.6-127.73-18.73-144.83ZM-98.22-777.22c32.59-4.84,106.53,142.49,83.63,181.57-22.89,39.08-147.86-172.03-83.63-181.57ZM1249.29,1228.31c43.88-2.07-1.77,174.86-45.98,173.05-44.2-1.81,11.55-171.42,45.98-173.05ZM1450.4,672.63c15.19-4.36,68.01,150.29,34.61,162.1-33.4,11.81-72.97-151.1-34.61-162.1ZM1423.54,968.9c-122.04,103.3-258.83-483.55-210.22-563.68,50.89-83.88,331.19,461.29,210.22,563.68ZM1054.33-203.79c-27.68,3.69-1.97-166.41,11.51-169.83,13.48-3.42,16.17,166.14-11.51,169.83ZM1047.31-177.97c12.98-4.99,11.63,34.82-1.66,40.52-13.29,5.7-19.68-32.31,1.66-40.52ZM818.15-196.45c21.61,3.46-.11,196.42-17.47,197.41-17.35.99-18.34-203.13,17.47-197.41ZM713.74-820.08c-20.13,6.27-1.64-104.36,15.03-109.72,16.66-5.36,5.1,103.45-15.03,109.72ZM707.37-803.03c17.88-7.67,22.45,54.57-.94,71.21-23.39,16.64-19-62.66.94-71.21ZM268.68,377.79c-97.58-91.3-90.9-558.56-3.81-521.12,87.56,37.65,69.42,582.5,3.81,521.12ZM344.78,448.59c-28.17-2-20.93-220.72,9.53-222.51,20.53-1.2,18.64,224.51-9.53,222.51ZM611.42,375.94c-315.54-41.43-46.63-1179.06,96.03-923.12,147.21,264.11,34.02,940.2-96.03,923.12ZM442.3,918.41c-20.48,7.65-56.43-126.1-18.99-139.32,15.24-5.38,39.47,131.66,18.99,139.32ZM519.65,1370.2c-172.08-95.05,72.98-1072.4,195.9-1037.46,123.61,35.14-73.2,1105.24-195.9,1037.46ZM717.2,1016.76c17.4-9.45,25.73,94.5,6.93,97.55-18.8,3.06-34.29-82.69-6.93-97.55ZM728.29,1139.3c24.56-15.9,61.86,129.34,23.03,158.38-38.83,29.03-58.17-135.63-23.03-158.38ZM992.73-80.81c130.74,92.34,461.21,1362.05,37.05,1601.6-431.94,243.95-298.45-1786.22-37.05-1601.6Z"/>
              <g>
                <path class="cls-18" d="M1489.25,831.91c.37-.09.74-.08,1.1-.21,33.4-11.81-19.42-166.46-34.61-162.1-2.02.58-3.79,1.67-5.39,3.05,14.5-4.16,62.92,135.43,38.9,159.26Z"/>
                <path class="cls-8" d="M1423.54,968.9c-2.23,1.88-4.46,3.47-6.69,4.9,4.02-1.95,8.03-4.55,12.03-7.93,36.39-30.8,36.44-101.67,17.38-183.42-2.76-8.85-5.16-18.2-7.04-27.59-49.23-178.64-176.71-391.94-216.35-357.63,68.99-21.19,315.45,474.52,200.66,571.67Z"/>
                <path class="cls-6" d="M1216.61,1396.77c41.41-17.25,79.27-173.43,38.02-171.49-2.9.14-5.96,1.55-9.09,3.88,1.27-.47,2.53-.79,3.75-.85,39.46-1.86,6.51,141-32.68,168.46Z"/>
                <path class="cls-7" d="M728.44,1111.3c.34,0,.69.04,1.03-.02,18.8-3.06,10.47-107.01-6.93-97.56-1.24.67-2.35,1.54-3.42,2.48,14.61-1.07,21.74,78.42,9.32,95.09Z"/>
                <path class="cls-9" d="M270.21-146.35c-8.45-3.63-16.13-2.46-23.05,2.6,5.48-2.28,11.37-2.3,17.71.42,78.85,33.9,71.97,478.96,21.92,522.44,54.81-15.26,64.99-490.4-16.58-525.47Z"/>
                <path class="cls-10" d="M359.65,223.06c-2.02.12-3.92,1.24-5.73,3.14,19.44-1.23,19.17,192.8-3.45,219.3,27.83.09,29.63-223.64,9.19-222.44Z"/>
                <path class="cls-4" d="M428.65,776.06c-1.92.68-3.59,1.74-5.14,3.01,14.33-3.87,36.31,115.77,22,136.58.72.05,1.43-.02,2.12-.27,20.48-7.65-3.75-144.7-18.99-139.32Z"/>
                <path class="cls-5" d="M733.63,1136.28c-.85.55-1.64,1.25-2.43,1.97,24.31-3.68,57.09,130.11,20.66,158.96,1.57-.56,3.16-1.32,4.81-2.55,38.83-29.04,1.53-174.28-23.03-158.38Z"/>
              </g>
              <g>
                <path class="cls-31" d="M268.68,377.79C191.3,305.39,179.5-3.36,221.34-109.45c-75.19,175.47,5.43,471.96,16.85,492.15,11.08,19.58,25.61,46.52,55.11-11.74-7.17,12.13-15.42,15.44-24.61,6.84Z"/>
                <path class="cls-38" d="M367.75,339.43c-1.54,55.42-9.04,110.15-22.97,109.16-22.83-1.62-22.4-145.52-5.21-201.01-45.75,135.82-17.84,222.01,4.03,243.33,21.55,21.01,24.04-143.19,24.15-151.48Z"/>
                <path class="cls-32" d="M611.42,375.94c-241.87-31.76-140.34-707.59-15.49-906.17-207.53,300.34-164.65,756.07-93.25,869.5,53.85,85.55,113.64,53.97,146.87,22.13-12.38,10.97-25.16,16.24-38.12,14.54Z"/>
                <path class="cls-20" d="M1203.6,452.02c-7.54,105.57,29.27,271.1,68.69,396.12,43.7,138.61,110.41,167.22,153.9,118.39-.68.51-1.61,1.5-2.65,2.38-107.83,91.27-227.13-356.15-219.94-516.88Z"/>
                <path class="cls-34" d="M724.13,1114.31c-16.68,2.71-30.72-64.4-14.6-89.99-19.12,27.5-12.33,77.35-.79,90.52,7.92,9.05,14.99,2.7,18.78-2.44-1.01,1.03-2.14,1.7-3.38,1.91Z"/>
                <path class="cls-39" d="M751.33,1297.68c-34.94,26.13-54.08-104.55-31.96-147.56-36.99,64.84-3.55,145.71,11.09,160.39,13.59,13.62,28.85-21.05,31.57-27.6-2.61,6.23-6.11,11.33-10.7,14.77Z"/>
                <path class="cls-33" d="M1234.49,1237.39c-37.45,35.19-61.61,136.1-54.95,155.39,6.66,19.29,30.11,7.64,30.11,7.64-2.1.57-4.22,1.02-6.34.93-38.24-1.57-1.68-128.63,31.17-163.96Z"/>
                <path class="cls-37" d="M416.48,783.66c-13.79,13.91-17.69,46.6-6.1,90.7,12.28,46.7,28.7,46.8,31.91,44.05-19.04,7.11-51.4-107.86-25.82-134.75Z"/>
                <path class="cls-36" d="M1179.86,1334.36c-33.07,82.53-81.78,147.85-150.09,186.42-128.07,72.33-206.43-55.27-246.49-265.77,26.57,157.87,71.1,285.19,141.85,304.96,70.74,19.77,196.51-57.74,254.72-225.62Z"/>
                <path class="cls-35" d="M969.55-91.52c-77.9-21.59-159.81,41.98-205.04,605.92,30.65-339.62,107.35-627.4,205.04-605.92Z"/>
              </g>
              <path class="cls-12" d="M195.51,597.99C151.97,1278.12-96.72,1957.78-96.72,1957.78l34.85,64.05C111.83,1381.6,182.35,984.94,195.51,597.99Z"/>
              <path class="cls-16" d="M174.58,45.61c5.19,30.87,9.48,62.25,13.12,93.96-.03-.55-.06-1.1-.09-1.65-27.25-462.09-429.04-925.94-592.02-1096.13l-50.85,38.14S80.86-512.34,174.58,45.61Z"/>
              <path class="cls-14" d="M344.86,598.43c3.69,14.34,7.49,29.73,11.4,46.52,239.48,1026.97-112.44,1938.73-112.44,1938.73,0,0,25.05,32.7,62.03,80.91,6.63-27.89,13.62-57.71,20.99-89.69,222.98-966.79,114.65-1644.05,18.02-1976.46Z"/>
              <path class="cls-13" d="M1508.09,1060.21c11.28-20.44,26.5-40.59,45.84-60.21,183.09-185.81,527.25-265.64,527.25-265.64l-14.66-22.8c-130.01,32.94-460.86,154.59-558.43,348.65Z"/>
              <path class="cls-3" d="M744.56,656.2c-33.95,320.79-145.1,758.08-224.91,714-4.9-2.71-9.42-6.22-13.66-10.32.26.26.5.55.76.8,120.8,115.87,208.87-396.83,237.81-704.48Z"/>
              <path class="cls-30" d="M657.44,373.55c-146.49,202.45-289.18,838.05-154.91,982.69-117.01-128.91,34.35-806.83,154.91-982.69Z"/>
              <path class="cls-17" d="M1670.99,767.57c106.18-14.38-85.35,87.89,48.91,45.1,134.27-42.79-300.64,237.49-74.07,110.56,187-131.25,435.34-188.88,435.34-188.88l-26.12-40.63c-244.94,32.35-424.06,89.66-584.18-46.5,60.67,61.46,141.5,128.27,200.11,120.34Z"/>
              <path class="cls-2" d="M1644.53,1449.34c103.98,44-94.05,22.98-14.32,43.36,34.43,6.18,68.69,13.31,102.72,21.27.48.09.92.17,1.4.27,3.41.64,6.68,1.48,9.88,2.4,605,145.12,1132.54,550.46,1132.54,550.46l-208.76-512.61s-60.32,33.6-589.55-48.05c-117.96-18.2-218.87-44.45-302.34-76.33,233.63,90.84-257.34-33.99-131.57,19.23ZM2718.26,1762.84c14.37,64.88-204.28-22.86-204.57-67.58-.21-32.61,190.21,2.7,204.57,67.58ZM1982.91,1519.8c188.94-.56,550.03,133.7,502.13,170.16-48.05,36.56-760.27-169.39-502.13-170.16Z"/>
              <path class="cls-11" d="M706.99-1188.1C734.67-541.88,278.5-10.13,128.66-280.31,29.46-459.2,5.13-643.03,17.56-809.95c1.94-230.4-65-316.42-83.51-206.97-18.51,109.44-42.46-163.3-83.04,43.38-29.12,148.35-104.68-47.54-127.93-80.3l-6.82,5.12c.48,10.5,3.47,30.26,9.66,62.76,44.99,236.06-48.21,170.34-171.17,73.78C-371.51-853.19,88.43-467.28,174.58,45.61c16.19,96.4,24.51,197.27,26.74,300.08,9.72,90.7,52.86,76.39,82.64,35.43-4.75,2.6-9.85,1.75-15.28-3.33-97.58-91.3-90.9-558.56-3.81-521.12,69.06,29.69,72.35,374.81,38.48,489.26,10.55-26.13,18.9-40.76,26.58-43.66,4.07-41.33,12.42-75.49,24.38-76.19,12.49-.73,16.66,82.43,11.69,147.29,23.27,86.37,31.28-59.71,46.24,92.64,14.96,152.36,43.05-51.2,65.98,102.45,22.93,153.65,115.92-134.04,71.91,65.66,33.85-114.47,72.95-211.79,109.14-263.17-2.64-3.87-5.31-7.74-7.82-11.3-12.97,12.16-26.41,18.07-40.04,16.28-315.54-41.43-46.63-1179.06,96.03-923.12,77.28,138.64,82.78,390.78,51.77,596.61-.05.32-.08.6-.12.93-27.62,200.13,8.96,81.81-5.35,189.9-14.3,108.02,54.61-81.49,32.91,88.89,41.93-276.33,116.49-473.23,206.08-409.95,46.21,32.64,117.37,212.36,171.34,441.69-21.59-98.24,19.32-86.89-24.77-246.23-36.98-133.62,57.19,64.46,47.13-16.2-10.21-37.69-19.75-76.16-28.61-115.06-7.93-26.86-11.82-45.25-12.34-56.47-84.85-403.9-102.23-829.14-102.23-829.14,0,0-59.51-652.21-12.53,60.71,51.16,776.31-85.96,930.62-206.94,433.38-80.15-329.44-55.35-635.75-33.29-789.77,15.06-137.89-61.74,233.38-83.51,9.79ZM-45.17-887.71c26.75-11.47,34.82,126.06,18.73,144.83-16.08,18.77-58.6-127.73-18.73-144.83ZM-98.22-777.22c32.59-4.84,106.53,142.49,83.63,181.57-22.89,39.08-147.86-172.03-83.63-181.57ZM1054.33-203.79c-27.68,3.69-1.97-166.41,11.51-169.83,13.48-3.42,16.17,166.14-11.51,169.83ZM1047.31-177.97c12.98-4.99,11.63,34.82-1.66,40.52-13.29,5.7-19.68-32.31,1.66-40.52ZM818.15-196.45c21.61,3.46-.11,196.42-17.47,197.41-17.35.99-18.34-203.13,17.47-197.41ZM707.37-803.03c17.88-7.67,22.45,54.57-.94,71.21-23.39,16.64-19-62.66.94-71.21ZM728.77-929.8c16.66-5.36,5.1,103.45-15.03,109.72-20.13,6.27-1.64-104.36,15.03-109.72Z"/>
              <path class="cls-19" d="M761.15,1792.35c169.5,221.02,316.76,482.98,437.85,734.18-5.02-36.38,298.68,488.42,244.34,328.76-66.83-196.36,66.46-4.56,183.72,211.37,117.26,215.93,305.09,201.41,130.7-50.86-174.39-252.27,10.41-57.92,216.39,83.73,183.4,126.12,184.14,40.58-28.59-150.53-27.81-22.91-57.22-47.89-88.19-75.07-4.13-3.35-7.94-6.75-11.65-10.26-93.37-82.59-200.63-185.01-321.47-311.71-415.78-435.93-883.82-1102.09-150.53-1085.95,85.65,1.88,171.54,11.42,256.5,26.67-79.73-20.38,118.3.63,14.32-43.36-125.77-53.22,365.2,71.61,131.57-19.23-3.45-1.32-6.91-2.63-10.3-3.97-277.07-109.51-354.01-281.88-211.86-426.15,27.56-27.97,58.77-53.51,91.91-76.77-226.58,126.93,208.33-153.35,74.07-110.56-134.27,42.79,57.27-59.48-48.91-45.1-58.61,7.94-139.44-58.88-200.11-120.34-65.4-55.62-127.64-143.45-189.88-278.54-36.81-79.88-68.04-172.36-94.57-270.24,10.05,80.65-84.11-117.43-47.13,16.2,44.09,159.33,3.19,147.99,24.77,246.23.97,4.1,1.93,8.21,2.88,12.34.5,2,.9,3.8,1.26,5.51,95.69,418.09,131.95,989.36-138.43,1142.06-283.9,160.34-323.53-661.73-243.12-1191.65,21.7-170.38-47.22,19.14-32.91-88.89,14.31-108.08-22.27,10.23,5.35-189.9.05-.33.08-.61.12-.93-21.87,145.19-61.9,267.27-107.76,310.24,2.51,3.56,5.18,7.43,7.82,11.3,20.13-28.59,39.36-43.03,56.28-38.22,123.61,35.14-73.2,1105.24-195.9,1037.46-105.85-58.47-53.85-450.7,30.45-735.88,44.04-199.9-48.94,87.8-71.87-65.85-22.93-153.65-77.43,58.51-112.22-195.09-3.2,41.79-10.19,76-21.23,75.22-17.11-1.22-21.14-82.37-14.85-146.32-7.68,2.9-16.03,17.53-26.58,43.66-5.52,18.65-12.02,31.16-19.39,35.19-29.78,40.96-72.92,55.27-82.64-35.43,16.27,753-298.04,1612.08-298.04,1612.08l8.07,14.83,7.26,10.56c90.55-311.35,72.58,209.62,144.38-18.48,71.81-228.1,102.46,7.04,121.12-143.2,18.66-150.24,38.53-73.8,40.56,30.79-14.07-777.4-10.6-1817.12,131.6-1207.32,142.74,612.11,75.37,1183.24-2.34,1544.83-1.93,10.92-4.4,22.31-7.52,34.25-3.87,17.11-7.57,33.1-11.27,48.57-28.98,150.62,86.48-45.11,65.85,101.64-22.45,159.73,61.26-89.98,58.65,136.68-2.6,226.66,101.63,290.63,76.75,25.58-57.09-506.3-81.16-1143.05,224.76-744.14ZM1750.2,3101.82c-6.36,54.16-176.38-200.89-146.79-241.05,18.51-25.12,153.14,186.89,146.79,241.05ZM1717.35,2860.83c-23.84,55.22-214.75-175.72-177.01-196.31,33.1-18.06,200.85,141.08,177.01,196.31ZM1450.4,672.63c15.19-4.36,68.01,150.29,34.61,162.1-33.4,11.81-72.97-151.1-34.61-162.1ZM1213.33,405.23c50.89-83.88,331.19,461.29,210.22,563.68-122.04,103.3-258.83-483.55-210.22-563.68ZM1203.32,1401.36c-44.2-1.81,11.55-171.42,45.98-173.05,43.88-2.07-1.77,174.86-45.98,173.05ZM442.3,918.41c-20.48,7.65-56.43-126.1-18.99-139.32,15.24-5.38,39.47,131.66,18.99,139.32ZM724.13,1114.31c-18.8,3.06-34.29-82.69-6.93-97.55,17.4-9.45,25.73,94.5,6.93,97.55ZM728.29,1139.3c24.56-15.9,61.86,129.34,23.03,158.38-38.83,29.03-58.17-135.63-23.03-158.38Z"/>
              <g class="cls-44">
                <path class="cls-29" d="M1150.16,73.5c-43.12-78.67-73.19-61.21-25.25,29.31,30.4,57.39,25.28,127.91,17.47,171.86,7.47,27.83,14.75,56.69,21.74,86.4-21.63-98.44,19.27-87.1-24.82-246.43-36.98-133.62,57.19,64.46,47.13-16.2-3.48-12.85-6.9-25.77-10.22-38.79,2.22,31.33-.18,61.04-26.05,13.84Z"/>
                <path class="cls-28" d="M786.65,329.14c2.67-17.6,5.47-34.88,8.4-51.79-1.28-17.22-4.29-38.89-11.26-29.87-11.05,14.3-26.28,3.04-11.67-55.54,14.61-58.58-23.19-49.59-13.03-141.59-27.62,200.13,8.96,81.81-5.35,189.9-14.3,108.02,54.61-81.49,32.91,88.89Z"/>
                <path class="cls-21" d="M1644.53,1449.34c-122.36-51.77,338.96,64.95,148.88-12.35-23.94,8.11-144.15-6.48-188.53-18.58-57.04-15.55-10.8,21.43,27.81,33.35,30.64,9.46-7.15,27.06-53.03,32.52,16.88,2.55,33.72,5.39,50.54,8.41-79.73-20.38,118.3.64,14.33-43.36Z"/>
                <path class="cls-23" d="M1650.5,772.26c54.59-5.71,26.32,29.46,6.92,52.65-19.4,23.19,22.03,2.75,43.56-3.18,21.53-5.93,34.2.13,7.43,23.01-26.77,22.89-158.23,99.95-152.83,120.6,2.23,8.54,30.03-3.82,61.86-21.23,9.27-7.16,18.76-14.12,28.4-20.89-226.57,126.93,208.34-153.35,74.07-110.56-134.27,42.79,57.27-59.48-48.91-45.1-58.61,7.93-139.44-58.88-200.11-120.34-1.26-1.07-2.51-2.13-3.77-3.22,98.73,119.95,128.82,133.95,183.39,128.25Z"/>
                <path class="cls-24" d="M283.96,381.13c-1.24.68-2.51,1.17-3.8,1.35-14.4,22.3-47.8,17.92-65.71-16.15-4.85-9.23-9.39-22.3-13.54-37.12.16,5.49.29,11,.41,16.5,9.72,90.68,52.86,76.38,82.64,35.41Z"/>
                <path class="cls-22" d="M303.35,345.93c10.55-26.13,18.9-40.76,26.58-43.66.08-.79.15-1.57.23-2.36-5.25,2.7-12.25,6.95-19.12,12.9-2.29,12.44-4.86,23.57-7.69,33.11Z"/>
                <path class="cls-26" d="M366,373.37c34.79,253.6,89.29,41.44,112.22,195.09,22.93,153.65,115.92-134.04,71.91,65.66,5.43-18.32,11.03-36.42,16.74-53.91,11.69-72.76-63,50.98-80.54-43.64-17.55-94.67-61.11-11.87-88.33-57.55-26.51-44.49-30.02-137.83-30.18-142.66-.3,12.54-.91,25.06-1.83,37h0Z"/>
              </g>
              <path class="cls-25" d="M1729.58,1410.99c-211.9-93.88-289.4-227.51-221.58-350.63-113.25,195.19,67.79,291.35,221.58,350.63Z"/>
              <path class="cls-27" d="M320.03,515.95c-15.01-47.57-32.24-77.14-50.71-63.31-47.72,35.73-47.44,130.19-48.05,584.42,6.89-413.01,32.56-700.92,98.76-521.11Z"/>
            </g>
            <g>
              <path class="cls-15" d="M1415.91,1289.24c8.26-8.94,28.51,19.16,19.47,26.03-9.03,6.87-27.73-17.09-19.47-26.03Z"/>
              <path class="cls-15" d="M1443.64,1314.97c5.17,6.98,11.29,3.47,8.74-1.83-2.54-5.3-11.92-2.45-8.74,1.83Z"/>
              <path class="cls-15" d="M1568.9,1389.08c-1.16-9.16,17.32-8.08,16.8,4.57-.52,12.65-15.64,4.59-16.8-4.57Z"/>
              <path class="cls-15" d="M391.29,32.56c2.24-16.49,24.87-7.49,22.07,9.62-2.79,17.1-24.31,6.88-22.07-9.62Z"/>
              <path class="cls-15" d="M436.7,47.06c4,4.52-7.19,9.65-10.84,3.08-3.65-6.57,6.84-7.6,10.84-3.08Z"/>
              <path class="cls-15" d="M398.13,79.13c7.14,7.31,15.54-1.87,12.35-8.15-3.19-6.29-19.49.84-12.35,8.15Z"/>
              <path class="cls-15" d="M639.9,1379.98c-1.28-12.33,13.81-14.83,13.61-3.62-.19,11.21-13.04,9.13-13.61,3.62Z"/>
              <path class="cls-15" d="M1209.6,228.69c3.22,14.11-42.06,33.6-43.25,10.64-1.19-22.96,40.03-24.75,43.25-10.64Z"/>
              <path class="cls-15" d="M1212.1,258.78c9.86,6.34,17.5,1.89,11.89-7.24-5.61-9.13-17.84,3.41-11.89,7.24Z"/>
              <path class="cls-15" d="M1133.91,5.43c8.7,8.4,27.63-2.15,15.8-12.57-11.82-10.41-24.51,4.16-15.8,12.57Z"/>
              <path class="cls-15" d="M1595.64,847.76c9.38,5.46,2.89,15.58-5.86,9.94-8.75-5.63-3.52-15.4,5.86-9.94Z"/>
              <path class="cls-15" d="M1589.91,800.28c.75,5.06-8.44,21.85-13.25-3.9-4.8-25.75,9.25-22.92,13.25,3.9Z"/>
              <path class="cls-15" d="M1303.3,1054.25c19.07,1.75,3.43,36.92-12.85,27.66-16.28-9.27-1.77-28.99,12.85-27.66Z"/>
              <path class="cls-15" d="M1340.11,1044.61c9.38,5.46,2.89,15.58-5.86,9.94-8.75-5.63-3.52-15.4,5.86-9.94Z"/>
              <path class="cls-15" d="M1334.39,997.13c.75,5.06-8.45,21.85-13.25-3.9-4.8-25.75,9.25-22.91,13.25,3.9Z"/>
            </g>
            <g>
              <path class="cls-42" d="M503.52,558.98c6.15-2.94,20.01,38.86,3.14,44.08-16.87,5.22-13.96-38.91-3.14-44.08Z"/>
              <path class="cls-42" d="M1492.86,1258.45c-1.95,10.49-16.5,3-14.16-1.74,2.34-4.74,15.29-4.36,14.16,1.74Z"/>
              <path class="cls-42" d="M1247.36,1383.18c9.59-4.69,12.24,11.45,7.04,12.4-5.2.95-12.62-9.68-7.04-12.4Z"/>
              <path class="cls-42" d="M1165.77,94.62c-3.89-.09-20.79-17.77-10.85-18.74,9.93-.97,14.74,18.83,10.85,18.74Z"/>
              <path class="cls-42" d="M1486.93,1275.07c6.49-3.51,46.27,11.7,30.48,22.78-15.8,11.07-36.97-19.26-30.48-22.78Z"/>
              <path class="cls-42" d="M397.27,465.12c8.29-.97,19.56,21.43,15.78,29.48-3.78,8.05-32.08-27.56-15.78-29.48Z"/>
              <path class="cls-42" d="M230.72,385.95c-2.23,10.44-16.57,2.56-14.11-2.12,2.46-4.68,15.4-3.95,14.11,2.12Z"/>
              <path class="cls-42" d="M225.68,348.08c7.28-7.55,16.94,10.95,13.55,23.6-3.39,12.65-27.86-8.76-13.55-23.6Z"/>
              <path class="cls-42" d="M1339.63,957.58c9.17,5.45-2.87,16.52-6.52,12.69-3.65-3.83,1.18-15.86,6.52-12.69Z"/>
              <path class="cls-42" d="M1302.14,950.24c-4.83-9.31,15.79-12.55,26.7-5.29,10.9,7.26-17.21,23.59-26.7,5.29Z"/>
            </g>
          </g>
        </g>
      </g>
    </g>
  </g>
</svg>