<?xml version="1.0" encoding="UTF-8"?>
<svg id="Layer_1" data-name="Layer 1" xmlns="http://www.w3.org/2000/svg" viewBox="0 0 109.56 92.21">
  <defs>
    <style>
      .cls-1 {
        fill: #f7f0e5;
      }
    </style>
  </defs>
  <circle class="cls-1" cx="44.53" cy="51.37" r="3.09"/>
  <circle class="cls-1" cx="106.47" cy="16.33" r="3.09"/>
  <path class="cls-1" d="M63.03,20.97c3.14,1.05,4.83,4.45,3.78,7.59-1.05,3.14-4.45,4.83-7.59,3.78-3.14-1.05-4.83-4.45-3.78-7.59,1.05-3.14,4.45-4.83,7.59-3.78Z"/>
  <path class="cls-1" d="M53.75,80.51c-.12-.64-.11-1.37-.36-1.97-.45-1.07-1.26.09-1.54.67-1.03,1.92-2.28,3.64-4.43,4.35-.66.24-2.24.59-1.34,1.48.24.25.59.49.87.72,1.36,1.04,2.19,2.69,2.51,4.35.18.65.12,1.75.78,2.08h.02c.51.04.89-.72,1.16-1.13.91-1.56,2.21-2.69,3.87-3.41.43-.2.91-.34,1.3-.61.12-.08.31-.28.31-.43.03-.64-.8-1.17-1.19-1.66-1.11-1.23-1.7-2.85-1.98-4.45Z"/>
  <path class="cls-1" d="M.88,12.45c2.45,1.54,4.01,3.73,4.9,6.49.76,2.35.78,4.74.67,7.15-.03.73-.18,1.49.59,1.88.72.29,1.02-.14,1.27-.6,2.71-4.99,6.96-7.75,12.52-8.53,1.6-.22,1.5-.8.57-1.71-1.75-1.71-3.17-3.6-3.83-6.01-.82-2.99-1.16-6-.65-9.09.11-.69.16-1.56-.67-1.92-1.04-.45-1.17.56-1.54,1.12C11.47,6.18,7.97,10.72,1.19,10.53c-.48-.01-1.09.17-1.18.78-.09.6.43.86.87,1.14Z"/>
</svg>
