<?xml version="1.0" encoding="UTF-8"?>
<svg id="Layer_1" data-name="Layer 1" xmlns="http://www.w3.org/2000/svg" viewBox="0 0 66.29 89.88">
  <defs>
    <style>
      .cls-1 {
        fill: #f7f0e5;
      }
    </style>
  </defs>
  <circle class="cls-1" cx="3.63" cy="60.6" r="3.63"/>
  <path class="cls-1" d="M41.21,2.52c.32-.69.51-1.53.96-2.14.82-1.1,1.41.45,1.56,1.2.63,2.48,1.59,4.79,3.83,6.2.68.45,2.39,1.29,1.11,2.06-.34.22-.81.4-1.2.58-1.84.81-3.25,2.45-4.08,4.26-.39.69-.63,1.96-1.47,2.16h-.03c-.6-.1-.81-1.08-1-1.62-.6-2.03-1.77-3.69-3.46-4.97-.44-.35-.94-.65-1.3-1.06-.12-.13-.27-.4-.24-.58.15-.74,1.24-1.11,1.82-1.56,1.61-1.09,2.73-2.78,3.5-4.52Z"/>
  <path class="cls-1" d="M64.81,75.76c-3.35.59-6.02,2.27-8.21,4.86-1.87,2.22-2.95,4.8-3.91,7.47-.29.81-.47,1.7-1.48,1.78-.91,0-1.04-.61-1.11-1.22-.72-6.62-4.11-11.51-9.8-14.83-1.64-.96-1.28-1.53.14-2.11,2.66-1.08,5.04-2.49,6.84-4.82,2.23-2.89,3.93-6,4.75-9.58.18-.8.52-1.77,1.59-1.79,1.33-.03,1.03,1.13,1.17,1.89,1.3,6.82,3.08,13.3,10.53,16.12.52.2,1.11.66.93,1.37-.17.69-.85.74-1.45.84Z"/>
</svg>