<?xml version="1.0" encoding="UTF-8"?><svg id="Layer_1" xmlns="http://www.w3.org/2000/svg" viewBox="0 0 85.04 86.61"><defs><style>.cls-1{fill:#c53b30;stroke-width:0px;}</style></defs><path class="cls-1" d="M40.27,59.63c0,.75.15,2.39,1.69,2.39.51,0,1.32-.26,2.2-.82-.81-2.5-1.17-5.11-1.25-6.98-.59.49-2.64,2.28-2.64,5.41Z"/><path class="cls-1" d="M26.65,39.58c0,2.35,1.46,2.87,2.92,2.87s5.55-.91,5.55-5.79v-2.01c-1.03.48-2.07.67-3.9,1.05-3.01.67-4.56,1.29-4.56,3.88Z"/><path class="cls-1" d="M49.14,56.01c1.1-1.61,1.91-3.66,2.38-4.82-1.61.04-2.05.11-2.64.26,0,2.54.15,3.7.26,4.55Z"/><path class="cls-1" d="M42.52,0C19.04,0,0,19.39,0,43.3s19.04,43.3,42.52,43.3,42.52-19.39,42.52-43.3S66,0,42.52,0ZM54.79,68.81c-2.31,0-3.12-1.38-3.12-3.02,0-2.54,1.43-2.69,3.19-2.87,3.59-.34,6.01-1.64,6.01-5.56,0-1.75-.51-2.84-1.1-3.62-.88-1.12-1.76-1.38-2.53-1.6-1.5,3.73-3.63,7.32-6.01,9.89.11.26.37.82.37,1.53,0,1.6-1.43,3.17-3.26,3.17-1.1,0-1.5-.41-1.83-.71-1.28.86-3.48,1.72-5.39,1.72-3.56,0-6.52-2.91-6.52-7.88,0-6.87,5.13-10.34,8.21-11.8,0-.52.07-2.72.07-3.17h-.52l-18.17,17.8c-.17.17-.39.25-.62.25-.23,0-.47-.09-.64-.28-.34-.36-.33-.93.02-1.28l13.64-13.36c-.7-.52-1.05-1.31-1.29-2.41-1.08,1.15-3.24,3.16-8.23,3.16-8.18,0-9.36-6.51-9.36-9.48,0-7.57,6.58-8.57,11.47-9.29,4.61-.67,6.07-.86,6.07-2.68,0-.57-.28-2.59-3.81-2.59-2.87,0-3.34.81-4.7,3.21-.8,1.39-2.45,1.87-4.04,1.87-1.27,0-4.18-.34-4.18-3.21,0-2.16,1.97-8.81,13.02-8.81,2.02,0,12.18,0,12.18,9.53v13.71l14.23-13.94c.35-.35.92-.34,1.26.02.34.36.33.93-.02,1.28l-9.73,9.53c0,.27,0,.53-.02.79,1.5-.04,3.15-.04,5.57-.15,1.28-.04,7.33-.41,8.06-.41.81,0,3.23,0,3.23,3.1,0,1.53-.66,2.65-2.31,2.91-2.09.3-11.91.52-14.88.6,0,.26-.07,1.31-.07,1.53.59-.07,1.83-.26,3.7-.26,6.05,0,8.58,1.34,10.45,2.76,3.63,2.8,4.14,6.46,4.14,8.81,0,8.77-7.37,11.2-12.54,11.2Z"/></svg>