<?xml version="1.0" encoding="UTF-8"?><svg id="Layer_1" xmlns="http://www.w3.org/2000/svg" viewBox="0 0 89.44 91.09"><defs><style>.cls-1{fill:#c53b30;stroke-width:0px;}</style></defs><path class="cls-1" d="M43.4,60.05c-.31-1.33-1.24-2.24-2.59-2.5-.38-.07-.96.15-1.22.44-1.43,1.57-2.78,3.21-4.17,4.82-.46.54-.69,1.11-.45,1.83.3.93,1.69,2.03,2.78,2.25.41-.28.9-.48,1.22-.84,1.28-1.45,2.54-2.92,3.74-4.43.35-.44.79-1.12.68-1.57Z"/><path class="cls-1" d="M43.19,64.12c-1.02,1.15-1.96,2.36-2.95,3.53-.45.53-.45,1.09-.17,1.65.43.87,1.11,1.41,2.32,1.51.16-.07.6-.14.83-.41,1.01-1.15,1.98-2.35,2.94-3.55.77-.96.66-1.71-.37-2.66-.86-.8-1.89-.87-2.6-.08Z"/><path class="cls-1" d="M42.85,50.89c.2-.24.31-.57.46-.86-.06-1.41-.82-2.26-1.79-2.91-1.31-.89-2.38-.62-3.34.59-1.11,1.41-2.28,2.77-3.45,4.14-1.7,2.01-3.43,3.99-5.1,6.01-.22.26-.29.75-.26,1.11.14,1.47,1.07,2.33,2.33,2.87,1.08.46,1.73.27,2.48-.65.4-.49.81-.97,1.21-1.46,2.48-2.95,4.97-5.9,7.45-8.85Z"/><path class="cls-1" d="M29.14,44.28c.86-1.05,1.81-1.95,3.25-1.78.86.1,1.69.46,2.5.68-.09-.12-.24-.33-.38-.54-.9-1.38-1-3.46.08-4.76,1.9-2.31,3.85-4.57,5.79-6.84,1.14-1.34,1.15-1.33-.21-2.44-.02-.02-.04-.03-.06-.05-3.02-2.74-6.55-3.97-10.58-3.71-3.08.2-5.75,1.43-7.86,3.7-4.18,4.52-4.17,10.93-1.32,15.89,1.13,1.97,2.69,3.53,4.45,5,1.45-1.72,2.92-3.42,4.34-5.15Z"/><path class="cls-1" d="M34.99,48.42c.47-.54.4-1.07.22-1.63-.1-.32-.34-.6-.52-.9-.95-1.57-2.72-1.75-3.89-.4-1.93,2.23-3.86,4.44-5.75,6.7-.46.55-1.07,1.21-1.11,1.86-.11,1.52,1.72,3.12,2.99,3.17.36-.2.8-.34,1.08-.62.61-.61,1.14-1.31,1.7-1.97,1.76-2.07,3.49-4.16,5.28-6.2Z"/><path class="cls-1" d="M66.53,26.8c-3.43-3.09-7.42-4.38-11.97-3.81-2.72.34-5.19,1.36-7.23,3.25-1.13,1.05-2.14,2.25-3.16,3.43-2.44,2.82-4.86,5.66-7.28,8.51-.55.65-1.14,1.28-1.08,2.29.06,1.11.99,2.16,1.9,1.89,1.82-.54,3.46-1.49,4.78-2.87,1.23-1.28,2.33-2.69,3.49-4.04.99-1.14,1.16-1.14,2.44-.34,4.08,2.57,8.45,3.81,13.23,2.73,2.33-.53,4.61-1.26,6.9-1.97.72-.22,1.13.12,1.33.64.2.52-.09.97-.65,1.2-2.55,1.07-5.18,1.89-7.92,2.22-1.61.19-3.24.25-4.86.37,4.14,3.71,8.31,7.44,12.61,11.29.83-1.1,1.84-2.26,2.65-3.56,1.69-2.68,2.32-5.66,2.1-8.85-.24-3.55-1.56-6.64-3.9-9.25-1.03-1.14-2.24-2.11-3.39-3.14Z"/><path class="cls-1" d="M48.42,64.19c.79,2.18-.3,3.7-1.65,5.09.48.43.89.8,1.31,1.15,1.13.97,2.31.87,3.3-.1.95-.93,1.01-2.54.14-3.32-1.04-.94-2.07-1.88-3.1-2.83Z"/><path class="cls-1" d="M44.72,0C20.02,0,0,20.39,0,45.54s20.02,45.54,44.72,45.54,44.72-20.39,44.72-45.54S69.42,0,44.72,0ZM72.76,50.05c-.91,1.27-1.95,2.43-2.92,3.66-.19.24-.4.53-.42.81-.19,2.65-2.26,4.46-4.9,4.24-.24-.02-.47,0-.71-.01.1,2.97-1.89,4.69-4.74,4.54-.19,3.11-1.71,4.95-4.97,5.06-.02,1.19-.31,2.27-1.11,3.16-1.9,2.09-4.49,2.12-6.5.2-.02-.02-.03-.05-.04-.07-.82-.84-.85-.87-1.59-.05-1.07,1.18-2.36,1.51-3.8,1.03-1.47-.49-2.57-1.44-2.95-3.06-.06-.23-.13-.46-.2-.74-1.26-.12-2.39-.55-3.36-1.48-.78-.75-1.28-1.6-1.58-2.63-.07-.24-.33-.57-.53-.59-2.4-.26-4.7-2.22-5.05-4.94-2.45-.16-4.23-1.28-5.19-3.68-.75-1.88.07-3.24,1.26-4.48-.95-.96-1.88-1.9-2.81-2.85-1.73-1.78-2.85-3.95-3.55-6.3-1.34-4.55-.89-8.94,1.76-12.93,2.04-3.08,4.9-5,8.5-5.79,4.78-1.05,9.06.16,12.99,2.94.7.5,1.31,1.13,1.95,1.72.32.3.56.34.85-.04,1.06-1.41,2.24-2.71,3.66-3.76,1.57-1.16,3.31-1.99,5.17-2.52,4.8-1.38,9.36-.68,13.52,2,2.82,1.81,5.37,4.06,7.31,6.88,4.02,5.85,4.15,13.88-.04,19.68Z"/><path class="cls-1" d="M62.37,48.27c-2.64-2.34-5.26-4.69-7.9-7.03-.87-.77-1.7-1.62-2.67-2.21-1.27-.77-2.66-1.35-4.02-1.96-.19-.09-.58-.02-.71.13-.65.7-1.24,1.45-1.85,2.19-2.37,2.88-5.13,5.02-9.03,5.06.26.44.53.91.82,1.4.2-.13.41-.22.55-.37.84-.99,1.99-1.04,3.07-.8,2.3.51,3.89,1.9,4.5,4.31.08.32.27.67.51.89,1.26,1.16,2.55,2.28,3.83,3.42,2.27,2.01,4.53,4.03,6.81,6.03.87.77,1.67,1.64,2.87,1.93,1.56.38,2.89-.85,2.66-2.46-.16-1.15-.9-1.83-1.69-2.53-2.23-1.96-4.45-3.93-6.66-5.91-1.82-1.63-3.62-3.29-5.45-4.92-.55-.49-.54-.94-.09-1.45.43-.49.88-.39,1.32,0,.94.81,1.88,1.63,2.81,2.45,2.25,1.99,4.48,4,6.73,5.98,1.45,1.28,2.9,2.58,4.4,3.8,1.12.91,2.78.71,3.62-.23,1.19-1.32.68-3.18-.38-4.16-1.32-1.22-2.7-2.36-4.04-3.55Z"/><path class="cls-1" d="M49.21,55.7c-1.47-1.31-2.94-2.61-4.44-3.94-1.07,1.28-2.11,2.53-3.02,3.61,1.02.85,1.95,1.58,2.81,2.38.87.82,1.64,1.76,2.51,2.58,1.6,1.49,3.23,2.93,4.87,4.37.61.54,1.21,1.16,1.93,1.47,1.13.48,2.29-.14,2.9-1.33.51-.98.17-2.28-.7-3.05-2.3-2.02-4.58-4.06-6.86-6.09Z"/></svg>