<?xml version="1.0" encoding="UTF-8"?><svg id="Layer_1" xmlns="http://www.w3.org/2000/svg" viewBox="0 0 305.02 259.97"><defs><style>.cls-1{fill:#000;}.cls-1,.cls-2,.cls-3{stroke-width:0px;}.cls-2{fill:#595857;}.cls-3{fill:#c53b30;}</style></defs><path class="cls-2" d="M19.29,92.03c-5.24-1.02-7.98-6.1-10.09-13.62-1.01,1.57-2.71.43-3.52-2.66-1.57-5.95-1.65-14.48.7-21.28,2.35-6.81,7.28-12.91,13.38-17.84,6.1-4.93,10.01-7.51,14.48-9.62,4.46-2.11,8.3-2.9,12.05-2.42,3.75.47,6.57,1.25,8.68,2.89,4.46-1.64,9.23-1.95,14.16-.08,4.93,1.88,8.09,5.2,12.99,10.56,4.93,5.4,9.78,14.16,12.91,21.52-3.21-2.19-7-1.93-8.61,1.88-.62,1.49-.94,5.79-.47,7.9-2.11-.08-4.46,1.57-5.4,3.44-1.41-5.32-2.97-10.72-3.68-12.6-.7-1.88-1.28-2.73-2.19-3.28-2.58-1.57-3.99-1.8-6.18-2.11-2.58-3.52-5.32-6.73-7.43-13.15-4.46.47-9.55.78-16.12-2.74-4.23,6.89-6.89,10.01-9.94,12.83-3.05,2.82-7.28,6.02-10.64,3.75-2.43,5.24-2.82,6.65-4.15,9.47-1.07,2.26-2.74,4.31-4.93,7.04.71,5.64,2.11,13.85,3.99,20.11h0Z"/><path class="cls-3" d="M96.05,169.26c2.93-6.46,3.29-12.91,3.52-17.84,3.52-2.7,9.68-4.66,12.09-7.99,2.82-3.87,8.39-8.26,14.2-10.91,5.4-2.46,10.33-5.05,13.15-6.92,4.62,2.27,6.22,2.7,9.5,2.23,3.29-.47,8.22-1.41,8.22-1.41,11.62,5.28,32.04,19.13,37.21,22.89-.47,11.73-5.28,19.83-8.57,25.82-3.24,5.9-4.58,8.69-8.8,12.91,10.8,5.63,19.25,9.27,26.76,12.21,6.91,2.7,9.75,2.83,13.61,3.28l5.28,3.29c-11.5,13.03-18.89,21.13-26.88,28.4-8.34,7.61-18.19,16.2-24.18,24.75h-29.81c-6.92-14.06-20.89-29.79-28.17-44.93-5.41-11.25-14.12-35.61-17.14-45.77h0Z"/><path class="cls-1" d="M125.4,5.26c8.15-2.52,14.85-1.56,19.02-.31,5.06,1.52,9.5,3.7,11.59,5.7.35.34.81.51,1.27.51.49,0,.97-.19,1.33-.57.7-.73.67-1.9-.06-2.6-2.53-2.41-7.41-4.86-13.07-6.56-6.69-2.01-14.01-1.9-21.17.32-.97.3-1.51,1.33-1.21,2.3.3.97,1.33,1.51,2.3,1.21h0Z"/><path class="cls-1" d="M160.85,15.54c3.42,1.39,7.81,5.83,10.68,10.8,2.39,4.13,4.74,11.02,5.73,16.76,1.01,5.88,1.18,10.55.49,13.52-.81,3.5-1.87,7.42-4.28,9.82-.72.72-.72,1.88,0,2.6.36.36.83.54,1.3.54s.94-.18,1.3-.54c3.1-3.08,4.35-7.6,5.27-11.59.81-3.49.66-8.52-.45-14.97-.89-5.17-3.14-12.73-6.16-17.98-2.74-4.74-7.66-10.4-12.48-12.36-.93-.38-2.01.07-2.4,1.01-.38.94.07,2.01,1.01,2.4h0Z"/><path class="cls-1" d="M170.55,53.97c.18.08.38.12.57.12.55,0,1.07-.32,1.3-.84,1.83-4.17,1.41-9.21.73-12.7-1.04-5.3-4.58-13.03-9.01-19.68-.43-.65-1.31-.83-1.96-.39-.65.43-.83,1.31-.39,1.96,4.24,6.37,7.62,13.69,8.59,18.65.6,3.09,1,7.52-.54,11.01-.32.71,0,1.55.73,1.86h0Z"/><path class="cls-1" d="M149.48,27.98c-3.48-5.45-7.07-11.39-9.43-18.8-.24-.75-1.04-1.16-1.78-.92-.75.24-1.16,1.03-.92,1.78,2.47,7.73,6.32,14.1,9.74,19.46,4.06,6.36,7.53,10.03,10.68,13.04.27.26.63.4.98.4.37,0,.74-.15,1.02-.44.54-.57.52-1.46-.04-2-3.02-2.89-6.36-6.41-10.25-12.52h0Z"/><path class="cls-1" d="M123.6,56.77c-1.31.19-2.22,1.41-2.03,2.72.19,1.31,1.41,2.22,2.72,2.03,1.31-.19,2.22-1.41,2.03-2.72-.19-1.31-1.41-2.22-2.72-2.03h0Z"/><path class="cls-1" d="M104.4,62.64c-.93.42-1.33,1.77-.89,3.01.45,1.24,1.58,1.91,2.51,1.49.94-.42,1.33-1.77.89-3.01-.45-1.24-1.57-1.91-2.51-1.49h0Z"/><path class="cls-1" d="M110.23,75.36c.08.01.15.02.21.02.5,0,.94-.35,1.04-.85.38-1.9.48-3.35.33-4.85-.06-.58-.58-1.01-1.16-.95-.58.06-1,.58-.95,1.16.13,1.28.04,2.55-.3,4.23-.11.57.26,1.13.83,1.25h0Z"/><path class="cls-1" d="M128.77,75.4c-.4-.67-1.27-.89-1.94-.48-3.23,1.94-11.9,4.48-16.09,4.27-.75-.05-1.44.57-1.48,1.35-.03.78.57,1.44,1.35,1.48.18,0,.37.01.56.01,3.57,0,9.17-1.37,13.31-2.94-.59,1.88-3.33,3.87-5.52,4.34-2.75.58-4.47-.67-4.93-1.07-.44-.38-1.11-.34-1.5.1-.38.44-.33,1.11.11,1.5,1.31,1.13,3.07,1.74,4.92,1.74.61,0,1.23-.07,1.84-.2,2.82-.6,7.05-3.36,7.33-6.78.02-.19-.03-.36-.11-.53.63-.29,1.19-.58,1.66-.86.67-.41.89-1.27.48-1.94h0Z"/><path class="cls-1" d="M178.92,69.29c-.17,1,.51,1.95,1.51,2.12.76.13,1.9.26,3.28.42,5.17.61,14.81,1.75,19.53,4.65,2.74,1.68,6.32,4.34,10.12,7.15,4.98,3.68,10.62,7.86,15.35,10.55,13.76,7.83,28.63,25.12,35.24,34.1,1.99,2.7,4.17,6.04,6.29,9.27,2.79,4.27,5.43,8.31,7.32,10.38,2.13,2.34,1.57,3.85.44,6.85l-.33.91c-1,2.73-5.32,7.13-10.84,9.77-8.51,4.07-13.48,6.38-16.75,6.6-1.01.07-1.78.94-1.71,1.96.07.97.87,1.72,1.83,1.72.04,0,.08,0,.12,0,3.95-.26,8.92-2.56,18.1-6.95,5.9-2.82,11.24-7.8,12.71-11.83l.32-.88c1.16-3.1,2.48-6.61-1.16-10.61-1.69-1.86-4.25-5.78-6.96-9.92-2.14-3.27-4.36-6.66-6.41-9.44-6.79-9.21-22.09-26.97-36.38-35.11-4.54-2.58-10.08-6.69-14.98-10.31-3.86-2.86-7.51-5.56-10.38-7.32-5.41-3.33-15.19-4.48-21.03-5.17-1.31-.15-2.39-.28-3.1-.4-1-.17-1.95.51-2.12,1.51h0Z"/><path class="cls-1" d="M64.67,41.26c-.1-.77-.82-1.32-1.59-1.21-6.66.91-11.2.49-13.85-1.29-.65-.43-1.53-.25-1.96.4-.43.65-.26,1.53.39,1.96,2.22,1.48,5.33,2.21,9.42,2.21,1.91,0,4.04-.16,6.39-.48.78-.11,1.32-.82,1.21-1.59h0Z"/><path class="cls-1" d="M42.83,39.78c-.93-.43-2.02-.02-2.44.91-2.53,5.54-9.59,12.92-13.72,14.37-.15.05-.26.15-.38.23.03-.06.07-.12.1-.18.51-.88.22-2-.66-2.51-.87-.52-2-.22-2.51.66-1.81,3.08-3.1,5.91-4.25,8.41-1.46,3.19-2.61,5.71-4.2,7.42-.69.74-.65,1.91.1,2.6.35.33.8.49,1.25.49.5,0,.99-.2,1.35-.59,1.99-2.14,3.32-5.04,4.85-8.39.89-1.95,1.89-4.12,3.14-6.41,0,.21.01.42.09.62.26.76.97,1.23,1.74,1.23.2,0,.41-.03.6-.1,5.62-1.97,13.14-10.38,15.85-16.31.42-.92.02-2.01-.9-2.44h0Z"/><path class="cls-1" d="M36.76,83.91c-.08-1.01-1-1.78-1.99-1.67-5.9.51-9.86,2.31-12.12,5.48-.59.83-.4,1.97.42,2.57.33.23.7.34,1.07.34.57,0,1.14-.27,1.5-.77,1.6-2.25,4.69-3.54,9.45-3.95,1.01-.09,1.76-.98,1.67-2h0Z"/><path class="cls-1" d="M62.24,65.65c-5.91,1.41-10.94,4.72-12.8,8.44-.45.91-.08,2.01.82,2.47.26.13.55.19.82.19.67,0,1.33-.37,1.65-1.01,1.35-2.7,5.61-5.38,10.35-6.51.99-.24,1.6-1.23,1.36-2.22-.24-.99-1.23-1.6-2.21-1.36h0Z"/><path class="cls-1" d="M49.63,118.53c.07,0,.13,0,.19-.01,5.43-.74,7.94-1.73,12.66-3.72,4.82-2.03,7.33-4.05,10.82-7.54.56-.55.56-1.45,0-2-.55-.55-1.45-.55-2,0-3.23,3.22-5.53,5.08-9.92,6.93-4.6,1.94-6.85,2.83-11.94,3.52-.77.11-1.32.82-1.21,1.59.1.71.71,1.23,1.4,1.23h0Z"/><path class="cls-1" d="M49.88,103.47s.1,0,.15-.01c.58-.08.98-.62.9-1.2-.53-3.72-1.61-6.95-3.49-10.48-.28-.51-.92-.71-1.44-.43-.51.27-.71.91-.44,1.43,1.76,3.3,2.77,6.32,3.26,9.78.08.53.53.91,1.05.91h0Z"/><path class="cls-1" d="M34.93,96.38c1.59,0,2.89-1.29,2.89-2.89s-1.3-2.9-2.89-2.9-2.9,1.3-2.9,2.9,1.3,2.89,2.9,2.89h0Z"/><path class="cls-1" d="M61.7,75.88c-1.59,0-2.89,1.3-2.89,2.9s1.3,2.89,2.89,2.89,2.9-1.3,2.9-2.89-1.3-2.9-2.9-2.9h0Z"/><path class="cls-1" d="M107.46,109.24c.32.21.67.31,1.02.31.59,0,1.18-.29,1.53-.82.56-.84.33-1.99-.51-2.55-5.03-3.36-9.26-10.97-10.87-15.27-.36-.95-1.41-1.43-2.37-1.08-.95.35-1.43,1.41-1.08,2.36,1.53,4.08,6.07,12.9,12.28,17.05h0Z"/><path class="cls-1" d="M85.9,157.58c-5.41,2.79-20.57,10.66-22.27,11.59-1.67.92-2.83,2.48-3.26,4.4-.08.33-.12.78-.16,1.33-.06.75-.13,1.67-.41,2.69-.29,1.08-1.45,1.91-3.82,3.54l-.31.21c-.25.17-.46.42-.6.69l-.08.17c-.36.73-1.48,2.97-2.37,3.55-.75.49-1.58.2-1.72.08-.14-.13-.31-.2-.47-.27-.01-.04-.02-.08-.03-.13.34-.5.5-1.08.42-1.69-.13-1.13-.6-2.49-1.52-3.47,1.16.05,2.17.04,2.81-.06,2.7-.43,4.3-1.84,5.16-2.94.36-.46.28-1.13-.18-1.49-.46-.36-1.13-.28-1.49.18-.63.81-1.81,1.83-3.83,2.16-1.89.3-8.82-.49-10.2-.75-.32-.06-.64.03-.89.24-.86.74-2.44,1.59-4.95,1.42-.37-.01-.73.15-.94.46-.21.31-.25.7-.09,1.04.17.37.16.69.07,1.52-.44.27-.78.71-.87,1.27-.16.99.53,1.93,1.51,2.12.5.09,1.52,1.8,1.52,3.04,0,.18-.14.33-.26.42-.26.19-.55.22-.62.2-1.3-.49-1.98-1.36-3-2.69-.26-.34-.53-.69-.83-1.06-.3-.37-.57-.68-.81-.95-.9-1.05-1.06-1.24-1.23-2.22-.02-.5.58-2.15.9-3.03l.26-.71c.51-1.42,1.09-3.03,2.3-5.02.25-.42.47-.8.67-1.16.84-1.46,1.18-2.07,2.58-2.92,1.88-1.16,4.18-1.89,7.05-2.64,2.57-.67,5.21-1.46,7.13-2.69,5.38-3.48,12.53-10.67,18.27-16.45,1.81-1.83,3.46-3.48,4.82-4.79,5.44-5.23,17.24-14.64,23.79-19.79,6.16-4.84,14.65-10.14,22.3-14.76,4.28,2.08,14.9,8.01,21.81,12.7-3.59,2.85-9.58,6.31-18.28,10.51-5.75,2.78-8.59,5.48-10.67,7.44l-.76.72c-.98.9-1.73,1.79-2.39,2.57-.83.99-1.49,1.77-2.28,2.19-.76.42-1.61.78-2.52,1.17-1.16.5-2.37,1.01-3.57,1.71-.74.43-2.1,1.39-3.98,2.72-3.53,2.49-8.36,5.91-11.71,7.64h0ZM48.58,184.33c-.32.31-1.11.51-1.71.43-1.09-.15-5.89-.96-8.24-1.38-.5-.56-1.08-1.01-1.73-1.3.03-.33.06-.63.06-.92,1.41-.08,2.52-.43,3.42-.87.04,0,.08,0,.12,0,.89-.26,1.64-.1,2.36.48.25.2.58.28.91.21.92-.22,1.83-.26,3.23.23,1,.35,1.59,1.68,1.71,2.78.01.14-.02.23-.13.34h0ZM46.97,187.35c-.18.21-1.08.6-2.19.29-.58-.16-.98-.68-1.2-1.26,1.35.23,2.51.42,3,.48.18.02.38.03.58.03.03,0,.07,0,.09,0-.08.18-.17.33-.28.46h0ZM96.38,61.52c.09.01.19.04.29.04.19,0,.39-.03.58-.09.16-.05.28-.15.41-.23.03.17.07.34.09.51.13.89.16,1.75.19,2.66.02.4.03.81.06,1.24-.42-1.53-.95-2.94-1.62-4.13h0ZM95.89,52.82c-.23-.49-.45-.97-.68-1.44.43.29.88.55,1.35.8-.28.17-.52.38-.67.65h0ZM129.39,244.82c-5.86-7.09-11.47-15.58-18.2-27.52-6.96-12.35-12.9-30.2-15.9-41.8-.25-2.14,1.26-5.39,2.73-8.52,1.64-3.5,3.19-6.82,2.91-9.66-.1-1.01-1.01-1.74-2.01-1.66-1.01.1-1.75,1-1.65,2.01.18,1.84-1.23,4.84-2.58,7.75-.1.21-.2.42-.3.64-.88-2.49-2.31-6.03-2.99-7.43,2.83-1.79,5.89-3.94,8.34-5.67,1.66-1.18,3.1-2.19,3.7-2.55,1-.58,2.1-1.05,3.16-1.5.94-.41,1.91-.82,2.83-1.32,1.39-.75,2.33-1.87,3.33-3.05.62-.73,1.26-1.5,2.07-2.24l.8-.75c2.01-1.9,4.51-4.26,9.75-6.8,9.57-4.63,16.03-8.43,19.77-11.61.74.57,1.41,1.1,1.91,1.57.42.39.34.57.3.66-.2.45-.98.91-1.73.85-1-.08-1.91.65-2,1.66-.09,1.01.65,1.91,1.66,2,.16.01.33.02.49.02.62,0,1.22-.11,1.79-.31,4.13-.52,15.53-2.5,23.33-4.45,4.5-1.12,10.08-2.74,13.35-5.25.81-.62.96-1.78.34-2.58-.62-.81-1.77-.96-2.58-.34-2.74,2.11-7.85,3.57-12,4.61-5.85,1.46-13.74,2.94-18.96,3.78.04-1.2-.46-2.38-1.5-3.34-5.56-5.16-24.22-15.55-28.68-17.55-.05-.02-.1-.01-.16-.03-.12-.04-.24-.07-.37-.08-.12-.01-.23-.02-.34-.02-.12,0-.23.03-.33.06-.13.03-.24.07-.36.13-.05.02-.1.02-.15.05-.36.22-.74.45-1.11.67.1-.12.2-.25.26-.41,1.47-3.22,5.67-7.31,8.89-9.4,5.14-3.34,10.75-6.46,16.69-9.27,6.62-3.14,11.02-4.84,16.37-6.74.77-.27,1.5-.52,2.2-.76,3.78-1.3,6.77-2.32,10.44-4.86.83-.58,1.04-1.73.46-2.56-.58-.83-1.72-1.05-2.56-.47-1.61,1.12-3.08,1.9-4.58,2.56-.12-.26-.31-.5-.58-.65-1.5-.82-4.79-4.81-5.09-5.78-.09-.28-.28-.5-.5-.67.31-.15.61-.31.92-.5,2.03-1.28,3.03-2.7,4.43-6.34.04-.11.04-.22.06-.33.53-.17,1.1-.4,1.78-.68l-1.12-2.6c-2.65,1.13-2.87,1.23-7.39-.26-4.65-1.53-8.94-5.27-12.76-11.13-.43-.66-1.31-.83-1.96-.41-.66.42-.84,1.3-.42,1.96.37.56.75,1.08,1.12,1.61-4.43.59-11.11-1.98-15.19-4.72-4.72-3.17-10.93-8.34-13.73-14.99-.4-.94-1.48-1.38-2.41-.98-.94.39-1.38,1.47-.98,2.41,3.15,7.5,9.93,13.18,15.06,16.62,4.26,2.86,10.79,5.43,15.97,5.43.66,0,1.3-.04,1.9-.13.63-.09,1.11-.5,1.37-1.04,3.4,4.04,7.13,6.75,11.14,8.07,2.02.67,3.39,1.05,4.5,1.19-1.01,2.41-1.7,3.19-2.89,3.94-1.7,1.08-3.3,1.06-4.86-.06-.64-.46-1.52-.31-1.98.33-.45.64-.31,1.52.33,1.98,1.29.92,2.66,1.38,4.07,1.38.29,0,.57-.03.86-.07-.09.27-.13.57-.03.87.49,1.57,3.39,5.05,5.44,6.72-.65.23-1.31.46-2.02.7-.71.24-1.45.5-2.23.77-3.2,1.13-6.16,2.24-9.48,3.63.56-1,1.03-1.95,1.26-2.73.23-.75-.19-1.54-.93-1.77-.75-.23-1.54.19-1.77.94-.45,1.45-2.05,3.99-3.4,5.69-.78.35-1.58.73-2.41,1.12-5.56,2.64-10.83,5.54-15.72,8.64-.29-.37-.73-.64-1.24-.7-5.68-.67-11.24-4.26-14.55-7.41-3.53-3.36-6.88-8.48-8.15-12.45-.92-2.89-.99-4.79-1.06-6.63-.04-.97-.07-1.97-.23-3.05-.16-1.06-.38-2.06-.63-3.02.96-1.03,2.73-2.16,3.81-2.32.58-.08.98-.62.9-1.2-.08-.58-.62-1-1.2-.9-1.17.17-2.84,1.02-4.16,2.12-.22-.68-.43-1.33-.63-1.93l-.22-.65c.13.05.25.1.39.14.18.06.36.08.54.08.79,0,1.51-.51,1.76-1.3.3-.97-.25-2-1.21-2.3-5.21-1.61-8.17-5.48-8.12-10.62,0-.58.02-1.16.06-1.74,1.21,2.6,3.1,4.9,5.38,6.25,2.46,1.47,6.06,1.93,9.22,1.93,2.78,0,5.21-.36,6.22-.72.74-.26,1.12-1.07.86-1.81-.26-.74-1.08-1.12-1.81-.86-1.79.63-9.53,1.12-13.05-.98-3.13-1.86-5.41-5.96-5.41-9.74,0-.18-.04-.35-.1-.51.84-2.5,2.16-5.49,4.24-9.43,2.95-5.64,11.11-12.92,22.7-16.46.97-.3,1.51-1.33,1.22-2.3-.3-.97-1.33-1.52-2.3-1.22-10.9,3.34-20.9,10.69-24.88,18.27-4.45,8.5-5.97,13.36-6.03,19.27,0,.16,0,.31.01.46-2.92-5.21-8.32-12.06-14.98-15.99-7.06-4.19-12.47-3.83-16.4-3.04-1,.2-1.64,1.17-1.44,2.16.2,1,1.16,1.64,2.16,1.44,3.28-.65,7.82-.95,13.81,2.59,6.13,3.64,11.25,10.29,13.78,14.88.42.75.87,1.56,1.35,2.41,2.32,4.14,5.16,9.2,7.14,14.57-1.11-1.14-2.29-1.79-3.55-1.96-1.61-.21-3.23.38-4.79,1.76-2.34,2.08-2.12,5.7-1.93,8.89.01.21.02.42.04.63-.62-.18-1.32-.05-1.81.44l-.74.74c-1.15-3.69-3.05-9.74-3.74-11.45-1.36-3.41-5.92-4.71-8.42-4.96-1.07-.88-4.08-5.18-4.66-7.09-.29-.97-1.32-1.52-2.29-1.23-.97.29-1.52,1.32-1.23,2.29.47,1.58,1.89,3.92,3.06,5.59,2.79,3.98,3.92,4.05,4.53,4.09,2.25.15,5.04,1.26,5.6,2.68.93,2.32,4.5,13.97,4.53,14.08.19.62.69,1.09,1.32,1.25.15.03.3.05.44.05.48,0,.95-.19,1.3-.54l2.82-2.82c.32.27.73.46,1.19.46,1.01,0,1.84-.83,1.84-1.84,0-.82-.05-1.69-.11-2.59-.14-2.24-.31-5.03.7-5.92.72-.65,1.36-.93,1.85-.87.75.1,1.67.96,2.62,2.42,1.99,3.08,2.68,9.7,3.09,13.65.08.84.17,1.59.25,2.22.2,1.61.61,6.96-2.48,8.19-.94.38-1.41,1.45-1.03,2.39.29.72.98,1.16,1.71,1.16.23,0,.46-.04.68-.13,3.79-1.52,5.52-5.91,4.76-12.06-.08-.6-.15-1.33-.24-2.14-.12-1.18-.26-2.52-.45-3.91,1.73,5.21,5.75,10.65,9.03,13.77,1.66,1.58,7.3,6.47,14.59,8.04-3.12,2.51-6.46,6.07-7.9,9.24-.42.92,0,2.01.91,2.43.25.11.5.17.76.17.14,0,.27-.03.4-.06-7.4,4.49-15.41,9.56-21.38,14.24-4.57,3.59-11.67,9.24-17.46,14.14-.33-.45-.72-.94-1.15-1.41,5.31-3.59,10.31-9.5,12.16-14.6,1.96-5.38,3.49-13.6,3.49-18.72,0-1.01-.82-1.84-1.83-1.84s-1.84.83-1.84,1.84c0,4.67-1.47,12.51-3.27,17.46-1.81,4.96-7.36,11.1-12.65,13.96-5.24,2.84-11.69,3.07-17.25.62-6.16-2.71-13.06-7.43-18.46-12.63-3.62-3.49-8.1-10.35-9.99-15.3-1-2.62-2.13-4.86-3.22-7.01-1.07-2.1-2.07-4.08-2.87-6.27-1.25-3.39-1.89-6.49-2.76-10.79-.27-1.32-.56-2.74-.9-4.31-.21-.99-1.19-1.62-2.18-1.41-.99.22-1.63,1.19-1.41,2.19.33,1.56.63,2.97.89,4.27.75,3.66,1.33,6.49,2.26,9.41-.53-.43-1.12-.9-1.82-1.44-2.69-2.07-3.97-7.5-4.79-12.02-.18-1-1.14-1.65-2.14-1.48-1,.18-1.66,1.14-1.48,2.14,0,.08.03.15.04.23-.92-1.28-2.06-3.78-2.7-6.6-.66-2.9-.98-7.99-.21-12.84.66-4.16,2.61-12.06,8.27-18.2,4.78-5.18,16.26-13.53,22.84-15.88,6.56-2.34,13.52-1.56,15.43,0,.78.65,1.94.53,2.58-.26.65-.78.53-1.94-.25-2.58-3.41-2.8-12.12-3.08-19-.62-7.24,2.58-19.22,11.33-24.31,16.84C3.38,43.86,1.22,52.55.49,57.13c-.74,4.68-.64,10.27.26,14.23.77,3.4,2.47,7.59,4.53,9.3.34.29.76.42,1.17.42.47,0,.93-.19,1.29-.54,1.03,4.41,2.55,8.43,5.42,10.64,3.02,2.32,4.02,3.26,5.1,4.78.36.5.92.77,1.5.77.12,0,.24-.03.35-.05.27.54.54,1.07.81,1.59,1.05,2.08,2.14,4.22,3.07,6.66,2.08,5.47,6.86,12.78,10.87,16.64,5.69,5.48,12.99,10.47,19.53,13.34,3.03,1.33,6.28,2,9.51,2,3.4,0,6.78-.74,9.86-2.19,0,.01.01.03.03.04.52.41,1.13,1.18,1.62,1.88-1.44,1.27-2.75,2.44-3.81,3.47-1.38,1.33-3.05,3-4.88,4.85-5.62,5.66-12.61,12.7-17.65,15.95-1.49.96-3.9,1.66-6.06,2.23-3.19.83-5.78,1.66-8.05,3.07-2.19,1.34-2.91,2.62-3.84,4.23-.19.33-.39.69-.63,1.08-1.39,2.31-2.06,4.17-2.6,5.67l-.25.7c-.79,2.14-1.28,3.64-1.08,4.87.34,2.03,1.07,2.88,2.07,4.05.22.25.47.54.75.89.27.33.52.66.77.98,1.15,1.49,2.34,3.04,4.63,3.89.42.16.88.24,1.35.24.9,0,1.83-.29,2.63-.84,1.18-.82,1.87-2.08,1.87-3.46,0-.82-.21-1.77-.57-2.7.17.03.33.06.51.09.2,1.84,1.33,3.91,3.47,4.49.51.15,1.05.22,1.57.22,1.41,0,2.75-.5,3.52-1.39.03-.03.05-.06.07-.09.7.39,1.56.63,2.48.63.97,0,2-.26,2.95-.88,1.46-.95,2.57-2.82,3.53-4.74,2.64-1.82,4.55-3.15,5.2-5.55.37-1.36.46-2.53.53-3.38.02-.33.04-.61.08-.81.2-.9.69-1.56,1.44-1.98,1.64-.91,16.93-8.84,22.18-11.55.2-.1.42-.23.63-.34.72,1.55,2.27,5.43,3.04,7.74.24.74.9,1.2,1.63,1.25-.91,2.3-1.5,4.54-1.24,6.56,0,.04.03.07.04.11,0,.04,0,.07,0,.1,3.04,11.82,9.13,30.13,16.3,42.85,6.84,12.13,12.57,20.78,18.57,28.05,3.81,4.61,6.49,8.5,8.68,12.81h4.08c-2.47-5.24-5.5-9.79-9.93-15.15h0Z"/><path class="cls-1" d="M300.58,232.61c-1.91,1.53-1.91,3.95-1.91,5.71,0,.67-1.25,1.42-1.84,1.78-1.84,1.11-2.43,2.95-2.92,4.9-.25,1.01-.51,1.65-2.55,1.99-3.09.52-4.39,1.18-6.01,3.08-1.01,1.18-2,1.93-4.04,2.24-1.41.21-2.72,1.04-3.99,1.83-.6.37-1.14.7-1.6.95,1.31-3.02,1.93-4.99,2.28-7.08l.05-.29c.45-2.68,1.01-6.02-2.73-9.49-.97-.9-1.4-1.85-1.91-2.96-.86-1.89-1.93-4.24-5.8-6.02-2.14-.98-5.46-2.69-8.97-4.51-5.28-2.73-11.27-5.83-15.46-7.58-6.69-2.81-19.11-10.55-22.38-13.16-2.38-1.91-3.58-2.13-5.65-2.39-1.05-.14-2.34-.3-4.41-.86-5.29-1.42-23.78-9.39-31-13.23,4.66-5.55,12.16-18.82,14.99-29.47,6.26,3.09,16.71,6.38,25.29,9.07,5.47,1.72,10.19,3.2,12.4,4.18,1.52.67,2.85,1.21,4.09,1.7,3.73,1.49,6.43,2.57,10.66,6.3,5.65,4.99,19.19,17.81,24.98,25.65,4.04,5.46,5.94,7.23,7.46,8.64.7.66,1.26,1.17,1.92,1.97.5.6.91,1.12,1.26,1.57,1.25,1.61,2.08,2.67,4.75,4.39.31.2.65.29.99.29.61,0,1.2-.3,1.55-.84.44-.68.35-1.53-.13-2.13,2.27-.17,4.39-.72,5.8-2.36,1.07-1.25,2.46-3.1,3.61-5.02,1.41.8,1.4,1.27,1.22,2.43-.15.94-.34,1.83-.52,2.68-.41,1.86-.78,3.61-.61,5.39.15,1.45.48,2.61.86,3.95.26.91.56,1.93.83,3.2.57,2.63-.11,3.17-.56,3.53h0ZM304.22,214.43c.7-4.53-2.38-5.95-4.85-7.09-.91-.42-1.97-.04-2.41.84-1.08,2.16-2.83,4.53-4,5.89-.86,1-2.95,1.15-5.09,1.15-.55,0-1.03.26-1.37.65-.25-.3-.5-.62-.8-1-.38-.48-.8-1.02-1.33-1.66-.82-.98-1.51-1.62-2.24-2.31-1.41-1.31-3.17-2.94-7.01-8.13-6.45-8.73-20.94-22.19-25.51-26.22-4.71-4.16-7.81-5.39-11.73-6.95-1.2-.48-2.49-1-3.96-1.65-2.4-1.07-7.21-2.58-12.79-4.33-8.88-2.79-19.8-6.22-25.58-9.28.33-2.03.43-3.9.22-5.51-.07-.51-.34-.98-.77-1.27l-1.49-1.05c-7.59-5.33-21.73-15.25-29.38-18.39-.94-.39-2.01.06-2.4,1-.39.94.06,2.01,1,2.4,7.27,2.99,21.19,12.76,28.67,18.01l.8.56c.52,10.16-12.04,32.58-16.59,36.48-4.71,4.04-6.13,3.85-8.65,3.09-.73-.22-2.24-.7-4.23-1.33-7.57-2.4-21.66-6.87-26.41-7.71l-1.38-.24c-6.08-1.04-16.27-2.78-22.06-8.77-3.9-4.04-5.77-9.31-5.13-14.46.13-1.01-.59-1.93-1.6-2.05-1-.12-1.92.59-2.05,1.59-.78,6.26,1.46,12.63,6.14,17.47,6.62,6.86,17.56,8.72,24.09,9.84l1.35.23c4.51.8,18.98,5.39,25.94,7.6,2.01.64,3.55,1.12,4.28,1.34,1.23.37,2.33.57,3.39.57,2.44,0,4.65-1.08,7.7-3.55,6.78,3.81,26.97,12.54,32.81,14.11,2.32.63,3.82.82,4.91.95,1.63.21,2.13.27,3.81,1.62,3.49,2.79,16.18,10.71,23.25,13.68,4.06,1.7,9.97,4.76,15.2,7.46,3.55,1.84,6.91,3.58,9.13,4.59,2.62,1.2,3.2,2.46,3.99,4.2.58,1.28,1.25,2.74,2.75,4.14,2.29,2.12,2.01,3.74,1.6,6.18l-.05.3c-.38,2.26-1.17,4.45-3.14,8.68-.36.78-.13,1.72.56,2.24.84.64,1.71.89,2.57.89,1.79,0,3.53-1.09,4.92-1.97.91-.57,1.93-1.21,2.58-1.31,2.7-.4,4.52-1.41,6.3-3.48.99-1.16,1.43-1.44,3.83-1.84,3.12-.52,4.82-1.98,5.51-4.73.42-1.68.72-2.33,1.24-2.64,1.18-.71,3.64-2.18,3.63-4.94,0-1.57.08-2.48.53-2.83,1.98-1.58,2.57-3.86,1.86-7.17-.3-1.39-.61-2.48-.89-3.44-.35-1.22-.63-2.18-.74-3.3-.12-1.19.18-2.6.54-4.24.2-.92.41-1.89.57-2.91h0Z"/><path class="cls-1" d="M282.61,157.21c9.55,8.62,15.14,22.78,16.56,30.2,1.03,5.35.72,12.1-.75,16.4-.33.96.19,2,1.15,2.33.2.07.4.1.59.1.77,0,1.48-.48,1.75-1.25,1.66-4.85,2.02-12.37.88-18.29-1.52-7.91-7.49-23.02-17.71-32.24-.75-.68-1.92-.62-2.6.13-.68.75-.62,1.92.13,2.6h0Z"/><path class="cls-1" d="M271.87,252.59c.81-.61.98-1.76.37-2.58-.61-.81-1.76-.98-2.58-.37-3.76,2.83-9.49,6.64-16.02,10.33h7.24c4.4-2.7,8.22-5.31,10.98-7.39h0Z"/><path class="cls-1" d="M189.54,243.03c1.55-1.43,3.08-2.83,4.53-4.21,9.75-9.25,18.3-17.51,24.13-25.03.62-.8.48-1.96-.33-2.58-.8-.63-1.96-.48-2.58.32-5.68,7.31-14.12,15.47-23.76,24.62-1.43,1.36-2.95,2.75-4.49,4.17-6.87,6.32-13.97,12.84-17.73,19.64h0s4.32,0,4.32,0c3.7-5.69,9.88-11.4,15.9-16.94h0Z"/><path class="cls-1" d="M125.46,48.94c-3.44-.61-9.14.14-11.94,1.59-.52.27-.73.91-.46,1.43.19.36.56.58.95.58.16,0,.33-.04.48-.12,2.43-1.25,7.57-1.92,10.6-1.39.58.1,1.13-.28,1.23-.86.1-.58-.28-1.13-.86-1.23h0Z"/></svg>