<?xml version="1.0" encoding="UTF-8"?><svg id="Layer_1" xmlns="http://www.w3.org/2000/svg" viewBox="0 0 183.12 243.55"><defs><style>.cls-1{fill:#000;}.cls-1,.cls-2{stroke-width:0px;}.cls-2{fill:#c53b30;}</style></defs><path class="cls-2" d="M133.12,182.18c0,1.5-1.22,2.72-2.73,2.72s-2.72-1.22-2.72-2.72,1.22-2.73,2.72-2.73,2.73,1.22,2.73,2.73h0Z"/><path class="cls-2" d="M147.74,182.18c0,1.5-1.22,2.72-2.72,2.72s-2.73-1.22-2.73-2.72,1.22-2.73,2.73-2.73,2.72,1.22,2.72,2.73h0Z"/><path class="cls-2" d="M162.15,183.24c-.41.98-1.38,1.66-2.51,1.66-1.5,0-2.72-1.22-2.72-2.72,0-.11,0-.22.02-.33,1.63.33,3.52.88,5.22,1.39h0Z"/><path class="cls-2" d="M53.07,193.83c0,1.5-1.22,2.72-2.72,2.72s-2.73-1.22-2.73-2.72,1.22-2.73,2.73-2.73,2.72,1.22,2.72,2.73h0Z"/><path class="cls-2" d="M111.56,193.83c0,1.5-1.22,2.72-2.72,2.72s-2.73-1.22-2.73-2.72,1.22-2.73,2.73-2.73,2.72,1.22,2.72,2.73h0Z"/><path class="cls-2" d="M126.18,193.83c0,1.5-1.22,2.72-2.72,2.72s-2.73-1.22-2.73-2.72,1.22-2.73,2.73-2.73,2.72,1.22,2.72,2.73h0Z"/><path class="cls-2" d="M140.81,193.83c0,1.5-1.22,2.72-2.73,2.72s-2.72-1.22-2.72-2.72,1.22-2.73,2.72-2.73,2.73,1.22,2.73,2.73h0Z"/><path class="cls-2" d="M155.43,193.83c0,1.5-1.22,2.72-2.72,2.72s-2.73-1.22-2.73-2.72,1.22-2.73,2.73-2.73,2.72,1.22,2.72,2.73h0Z"/><path class="cls-2" d="M170.05,193.83c0,1.5-1.22,2.72-2.73,2.72s-2.72-1.22-2.72-2.72,1.22-2.73,2.72-2.73,2.73,1.22,2.73,2.73h0Z"/><path class="cls-2" d="M19.74,204.74c0,1.5-1.22,2.72-2.72,2.72s-2.73-1.22-2.73-2.72,1.22-2.73,2.73-2.73,2.72,1.22,2.72,2.73h0Z"/><path class="cls-2" d="M41.64,207.26c-.12.32.66.2,1.03.2,1.5,0,2.73-1.22,2.73-2.72,0-.94-.68-2.96-1.2-2.26-1.12,1.51-2.02,3.35-2.56,4.79h0Z"/><path class="cls-2" d="M60.01,204.74c0,1.5-1.22,2.72-2.73,2.72s-2.72-1.22-2.72-2.72,1.22-2.73,2.72-2.73,2.73,1.22,2.73,2.73h0Z"/><path class="cls-2" d="M103.88,204.74c0,1.5-1.22,2.72-2.72,2.72s-2.73-1.22-2.73-2.72,1.22-2.73,2.73-2.73,2.72,1.22,2.72,2.73h0Z"/><path class="cls-2" d="M118.5,204.74c0,1.5-1.22,2.72-2.73,2.72s-2.72-1.22-2.72-2.72,1.22-2.73,2.72-2.73,2.73,1.22,2.73,2.73h0Z"/><path class="cls-2" d="M133.12,204.74c0,1.5-1.22,2.72-2.73,2.72s-2.72-1.22-2.72-2.72,1.22-2.73,2.72-2.73,2.73,1.22,2.73,2.73h0Z"/><path class="cls-2" d="M147.74,204.74c0,1.5-1.22,2.72-2.72,2.72s-2.73-1.22-2.73-2.72,1.22-2.73,2.73-2.73,2.72,1.22,2.72,2.73h0Z"/><path class="cls-2" d="M162.37,204.74c0,1.5-1.22,2.72-2.73,2.72s-2.72-1.22-2.72-2.72,1.22-2.73,2.72-2.73,2.73,1.22,2.73,2.73h0Z"/><path class="cls-2" d="M176.99,204.74c0,1.5-1.22,2.72-2.72,2.72s-2.73-1.22-2.73-2.72,1.22-2.73,2.73-2.73,2.72,1.22,2.72,2.73h0Z"/><path class="cls-2" d="M12.18,216.38c0,1.5-1.22,2.72-2.72,2.72s-2.72-1.22-2.72-2.72,1.22-2.73,2.72-2.73,2.72,1.22,2.72,2.73h0Z"/><path class="cls-2" d="M53.07,216.38c0,1.5-1.22,2.72-2.72,2.72s-2.73-1.22-2.73-2.72,1.22-2.73,2.73-2.73,2.72,1.22,2.72,2.73h0Z"/><path class="cls-2" d="M67.7,216.38c0,1.5-1.22,2.72-2.73,2.72s-2.72-1.22-2.72-2.72,1.22-2.73,2.72-2.73,2.73,1.22,2.73,2.73h0Z"/><path class="cls-2" d="M96.94,216.38c0,1.5-1.23,2.72-2.73,2.72s-2.72-1.22-2.72-2.72,1.22-2.73,2.72-2.73,2.73,1.22,2.73,2.73h0Z"/><path class="cls-2" d="M111.56,216.38c0,1.5-1.22,2.72-2.72,2.72s-2.73-1.22-2.73-2.72,1.22-2.73,2.73-2.73,2.72,1.22,2.72,2.73h0Z"/><path class="cls-2" d="M126.18,216.38c0,1.5-1.22,2.72-2.72,2.72s-2.73-1.22-2.73-2.72,1.22-2.73,2.73-2.73,2.72,1.22,2.72,2.73h0Z"/><path class="cls-2" d="M140.81,216.38c0,1.5-1.22,2.72-2.73,2.72s-2.72-1.22-2.72-2.72,1.22-2.73,2.72-2.73,2.73,1.22,2.73,2.73h0Z"/><path class="cls-2" d="M155.43,216.38c0,1.5-1.22,2.72-2.72,2.72s-2.73-1.22-2.73-2.72,1.22-2.73,2.73-2.73,2.72,1.22,2.72,2.73h0Z"/><path class="cls-2" d="M170.05,216.38c0,1.5-1.22,2.72-2.73,2.72s-2.72-1.22-2.72-2.72,1.22-2.73,2.72-2.73,2.73,1.22,2.73,2.73h0Z"/><path class="cls-2" d="M16.15,227.29c0,1.5-1.22,2.72-2.73,2.72s-2.72-1.22-2.72-2.72,1.22-2.73,2.72-2.73,2.73,1.22,2.73,2.73h0Z"/><path class="cls-2" d="M45.39,227.29c0,1.5-1.22,2.72-2.73,2.72s-2.72-1.22-2.72-2.72,1.22-2.73,2.72-2.73,2.73,1.22,2.73,2.73h0Z"/><path class="cls-2" d="M60.01,227.29c0,1.5-1.22,2.72-2.73,2.72s-2.72-1.22-2.72-2.72,1.22-2.73,2.72-2.73,2.73,1.22,2.73,2.73h0Z"/><path class="cls-2" d="M74.63,227.29c0,1.5-1.22,2.72-2.72,2.72s-2.73-1.22-2.73-2.72,1.22-2.73,2.73-2.73,2.72,1.22,2.72,2.73h0Z"/><path class="cls-2" d="M89.26,227.29c0,1.5-1.22,2.72-2.73,2.72s-2.72-1.22-2.72-2.72,1.22-2.73,2.72-2.73,2.73,1.22,2.73,2.73h0Z"/><path class="cls-2" d="M103.88,227.29c0,1.5-1.22,2.72-2.72,2.72s-2.73-1.22-2.73-2.72,1.22-2.73,2.73-2.73,2.72,1.22,2.72,2.73h0Z"/><path class="cls-2" d="M118.5,227.29c0,1.5-1.22,2.72-2.73,2.72s-2.72-1.22-2.72-2.72,1.22-2.73,2.72-2.73,2.73,1.22,2.73,2.73h0Z"/><path class="cls-2" d="M133.12,227.29c0,1.5-1.22,2.72-2.73,2.72s-2.72-1.22-2.72-2.72,1.22-2.73,2.72-2.73,2.73,1.22,2.73,2.73h0Z"/><path class="cls-2" d="M147.74,227.29c0,1.5-1.22,2.72-2.72,2.72s-2.73-1.22-2.73-2.72,1.22-2.73,2.73-2.73,2.72,1.22,2.72,2.73h0Z"/><path class="cls-2" d="M162.37,227.29c0,1.5-1.22,2.72-2.73,2.72s-2.72-1.22-2.72-2.72,1.22-2.73,2.72-2.73,2.73,1.22,2.73,2.73h0Z"/><path class="cls-2" d="M176.99,227.29c0,1.5-1.22,2.72-2.72,2.72s-2.73-1.22-2.73-2.72,1.22-2.73,2.73-2.73,2.72,1.22,2.72,2.73h0Z"/><path class="cls-2" d="M9.21,238.93c0,1.5-1.22,2.72-2.72,2.72s-2.73-1.22-2.73-2.72,1.22-2.73,2.73-2.73,2.72,1.22,2.72,2.73h0Z"/><path class="cls-2" d="M23.83,238.93c0,1.5-1.22,2.72-2.73,2.72s-2.72-1.22-2.72-2.72,1.22-2.73,2.72-2.73,2.73,1.22,2.73,2.73h0Z"/><path class="cls-2" d="M34.66,241.44c.33.14.69.21,1.07.21,1.5,0,2.72-1.22,2.72-2.72s-1.22-2.73-2.72-2.73c-.17,1.82-.62,3.68-1.07,5.24h0Z"/><path class="cls-2" d="M53.07,238.93c0,1.5-1.22,2.72-2.72,2.72s-2.73-1.22-2.73-2.72,1.22-2.73,2.73-2.73,2.72,1.22,2.72,2.73h0Z"/><path class="cls-2" d="M67.7,238.93c0,1.5-1.22,2.72-2.73,2.72s-2.72-1.22-2.72-2.72,1.22-2.73,2.72-2.73,2.73,1.22,2.73,2.73h0Z"/><path class="cls-2" d="M82.32,238.93c0,1.5-1.22,2.72-2.72,2.72s-2.73-1.22-2.73-2.72,1.22-2.73,2.73-2.73,2.72,1.22,2.72,2.73h0Z"/><path class="cls-2" d="M96.94,238.93c0,1.5-1.23,2.72-2.73,2.72s-2.72-1.22-2.72-2.72,1.22-2.73,2.72-2.73,2.73,1.22,2.73,2.73h0Z"/><path class="cls-2" d="M111.56,238.93c0,1.5-1.22,2.72-2.72,2.72s-2.73-1.22-2.73-2.72,1.22-2.73,2.73-2.73,2.72,1.22,2.72,2.73h0Z"/><path class="cls-2" d="M126.18,238.93c0,1.5-1.22,2.72-2.72,2.72s-2.73-1.22-2.73-2.72,1.22-2.73,2.73-2.73,2.72,1.22,2.72,2.73h0Z"/><path class="cls-2" d="M140.81,238.93c0,1.5-1.22,2.72-2.73,2.72s-2.72-1.22-2.72-2.72,1.22-2.73,2.72-2.73,2.73,1.22,2.73,2.73h0Z"/><path class="cls-2" d="M155.43,238.93c0,1.5-1.22,2.72-2.72,2.72s-2.73-1.22-2.73-2.72,1.22-2.73,2.73-2.73,2.72,1.22,2.72,2.73h0Z"/><path class="cls-2" d="M170.05,238.93c0,1.5-1.22,2.72-2.73,2.72s-2.72-1.22-2.72-2.72,1.22-2.73,2.72-2.73,2.73,1.22,2.73,2.73h0Z"/><path class="cls-1" d="M63.57,55.62c-.95-.27-1.94.28-2.21,1.23-1.28,4.54-1.72,15.78.79,25.08.21.8.94,1.32,1.73,1.32.15,0,.31-.02.47-.06.96-.26,1.52-1.24,1.26-2.2-2.5-9.29-1.74-19.84-.8-23.17.27-.95-.28-1.94-1.23-2.21h0Z"/><path class="cls-1" d="M68.1,59.67c-.87.47-1.2,1.56-.73,2.43,3.13,5.79,6.08,16.9,6.94,21.07.18.85.92,1.43,1.75,1.43.12,0,.24,0,.37-.03.97-.2,1.59-1.15,1.39-2.12-.9-4.34-3.98-15.91-7.29-22.05-.47-.87-1.56-1.2-2.43-.73h0Z"/><path class="cls-1" d="M100.37,88.51c.71,0,1.37-.41,1.66-1.1.38-.92-.05-1.97-.97-2.35-13.87-5.77-18.51-15.12-22.6-23.37l-.67-1.35c-.44-.89-1.52-1.24-2.41-.8-.89.44-1.24,1.52-.8,2.41l.66,1.33c2.83,5.72,6.14,12.38,12.75,18.04.02.14.05.28.11.42,4.92,12.23,7.08,24.75,8.8,39.78.96,8.37.79,19.61-1.37,24.89-.37.92.06,1.96.98,2.34.22.09.45.13.68.13.71,0,1.38-.42,1.66-1.11,2.5-6.11,2.58-18.11,1.61-26.66-1.54-13.42-3.43-24.91-7.29-36.03,1.94,1.19,4.1,2.3,6.5,3.3.23.09.46.13.69.13h0Z"/><path class="cls-1" d="M37.39,121.23c.12,0,.25-.01.38-.04.97-.21,1.58-1.17,1.36-2.14-1.16-5.27-1.45-10.24-1-17.17.4-6.18,1.05-10.61,2.07-17.32,1.55-10.2,3.74-20.96,9.3-30.6,5.5-9.54,14.46-11.42,18.81-10.36.97.23,1.93-.36,2.17-1.32.23-.96-.36-1.93-1.32-2.17-6.73-1.63-16.99,2.04-22.76,12.06-5.85,10.15-8.13,21.31-9.74,31.85-1.04,6.81-1.69,11.3-2.1,17.62-.47,7.19-.14,12.62,1.08,18.17.18.84.93,1.41,1.75,1.41h0Z"/><path class="cls-1" d="M75.84,42.61c3.73-3.58,15-4.48,24.16,2.27,8.15,6.01,14.31,13.69,19.38,24.18,3.91,8.08,6.23,16.22,7.77,27.23.19,1.4.38,2.7.56,3.92,1,6.97,1.6,11.18,1.6,17.63,0,3.55-1.64,6.34-3.38,9.3-1.43,2.43-2.91,4.95-3.53,7.99-.11.54-.2,1.09-.29,1.66-.65,4.02-1.32,8.19-10.74,11.53-.94.33-1.42,1.36-1.09,2.29.26.74.95,1.2,1.69,1.2.2,0,.4-.03.6-.1.62-.22,1.21-.45,1.77-.68,1.98,9.06,5.33,16.24,9.97,21.36.36.39.84.59,1.33.59.43,0,.86-.15,1.21-.46.73-.67.79-1.8.12-2.53-4.34-4.79-7.47-11.67-9.29-20.47,0-.03-.02-.06-.03-.09,6.65-3.8,7.41-8.47,7.99-12.05.08-.52.16-1.03.26-1.51.5-2.45,1.77-4.61,3.11-6.9,1.9-3.24,3.87-6.59,3.87-11.11,0-6.71-.62-11.01-1.64-18.14-.17-1.21-.36-2.51-.55-3.91-1.6-11.39-4.02-19.85-8.09-28.29-5.34-11.03-11.84-19.14-20.48-25.51-9.98-7.35-23.42-7.11-28.77-1.97-.71.69-.74,1.82-.05,2.53.69.71,1.82.74,2.53.05h0Z"/><path class="cls-1" d="M51.62,97.81c-1.44.45-2.24,2.17-1.78,3.83s2.01,2.66,3.46,2.22c1.44-.45,2.24-2.16,1.78-3.83-.46-1.67-2.01-2.66-3.46-2.22h0Z"/><path class="cls-1" d="M83.55,95.56c-.18-1.73-1.73-2.98-3.46-2.8-1.72.18-2.98,1.73-2.79,3.45.18,1.73,1.73,2.98,3.45,2.8,1.73-.18,2.98-1.73,2.8-3.45h0Z"/><path class="cls-1" d="M58.29,126.74c-.25.7.11,1.47.82,1.72,2.01.72,3.91.96,5.73.96,1.51,0,2.97-.16,4.37-.35,4.34-.58,8.05-2.58,11.11-4.46.63-.39.83-1.21.44-1.85-.39-.63-1.22-.83-1.85-.44-2.96,1.82-6.23,3.57-10.06,4.09-3.46.47-6.02.54-8.84-.47-.7-.25-1.47.11-1.72.81h0Z"/><path class="cls-1" d="M45.88,151.5c.16.04.32.06.48.06.78,0,1.5-.52,1.72-1.31,1.92-6.87-1.74-14.4-5.27-21.68-.88-1.81-1.71-3.53-2.45-5.22-.4-.91-1.46-1.32-2.37-.92-.91.39-1.32,1.45-.92,2.36.77,1.75,1.65,3.58,2.51,5.34,3.24,6.68,6.6,13.59,5.05,19.16-.27.96.29,1.94,1.24,2.21h0Z"/><path class="cls-1" d="M63.42,115.62s.06,0,.09,0c.7,0,1.29-.55,1.34-1.25.16-2.43.28-7.72-.44-10.36-.19-.72-.94-1.14-1.65-.95-.72.2-1.14.94-.95,1.65.52,1.88.57,6.28.35,9.47-.05.74.51,1.38,1.25,1.43h0Z"/><path class="cls-1" d="M85.05,88.33c.3-.68,0-1.47-.68-1.77-2.92-1.3-9.91-1.69-13.34-.32-.69.27-1.03,1.06-.75,1.75.28.69,1.06,1.03,1.75.75,2.65-1.06,8.96-.74,11.25.28.18.08.36.12.55.12.51,0,1.01-.3,1.23-.8h0Z"/><path class="cls-1" d="M117.63,90.64c.12,0,.24-.01.36-.05.72-.19,1.14-.94.94-1.65-6.03-21.93-18.7-35.37-28.6-38.97-.7-.26-1.47.1-1.72.8-.25.7.11,1.47.81,1.72,12.75,4.64,22.9,22.51,26.92,37.16.16.59.7.99,1.29.99h0Z"/><path class="cls-1" d="M23.8,204.97c.83-5.39.62-9.5-.63-12.58-1.65-4.05-6.85-14.35-8.4-17.41-1.21-2.38-2.48-5.63-2.44-7.17.06-2.16.48-3.72,2.39-4.85,1.19-.7,2.34-1.35,3.45-1.97,1.59-.9,3.1-1.74,4.58-2.67,2.15-1.36,4.59-2.91,7.02-4.32.85-.49,2.81-1.37,4.32-.16-2.3.89-4.84,2-6.14,2.81-.63.39-.82,1.23-.43,1.85.39.63,1.22.82,1.85.43,1.87-1.17,7.48-3.37,9.44-3.89.37-.1,1.08-.02,1.93.47.63.37,1.18.88,1.6,1.46-2.99.03-6.68.78-10.08,2.1-.69.27-1.03,1.05-.76,1.74.27.69,1.05,1.04,1.74.76,4.17-1.63,8.92-2.34,11.57-1.71,1.14.27,1.75,1.62,1.75,2.75,0,.95-.17,2.95-.41,4.81-.1-.57-.22-1.09-.35-1.53-.71-2.41-2.27-3.68-4.77-3.89-1.76-.14-3.55.23-6.55.92-.73.16-1.18.89-1.01,1.61.16.73.88,1.18,1.61,1.02,2.74-.63,4.36-.98,5.73-.87,1.22.1,1.97.45,2.42,1.97.61,2.09.98,6.63.74,9.17-.05.5-.07,1.03-.09,1.55-.05,1.23-.14,2.08-.32,2.67-1.18-1.95-2.37-3.61-3.2-4.75-.22-.3-.43-.58-.64-.84-.03-1.42.48-3.69,1.85-4.77.58-.46.69-1.3.22-1.89-.46-.58-1.3-.69-1.89-.23-1.43,1.13-2.28,2.9-2.65,4.64-.96-.58-2.12-1.05-3.77-1.62-.94-.32-1.96.17-2.28,1.11-.32.94.17,1.96,1.11,2.28,3.21,1.11,3.74,1.46,5.14,3.41,1.03,1.42,2.49,3.45,3.78,5.8.03.06.05.12.09.17.71,1.29,1.36,2.68,1.85,4.11,1.26,3.67,1.24,7.23-.09,11.52-.52,1.68-1.7,3.85-2.95,6.15-1.66,3.05-3.53,6.5-4.5,9.95-1.53,5.42-5.8,16.65-8.72,23.01-.64-.38-1.29-.82-1.89-1.33-3.34-2.81-7.68-8.32-9.13-11.48,1.87-4.06,7.36-16.79,7.91-20.33h0ZM33.11,238.46c-.09.14-.16.3-.21.47-.12.22-.26.44-.45.65-.24.27-1.11.26-2.25-.05.78-1.69,1.63-3.68,2.5-5.82.54,1.38.98,3.22.4,4.75h0ZM6.25,239.08c.52-1.04,1.11-2.17,1.71-3.34,1.52-2.92,3.18-6.14,4.53-9.28,1.59,3.67,6.34,9.79,10.22,13.06,2.38,2.01,6.03,3.79,8.96,3.79.15,0,.31,0,.46-.02,0,.08-.02.16-.04.25h3.63c.2-1.27.4-2.43.58-3.4,1.17-2.58.82-5.93-1.05-9.5-.22-.41-.58-.7-.98-.85,2-5.12,3.87-10.4,4.81-13.73.86-3.06,2.63-6.32,4.2-9.21,1.34-2.46,2.6-4.79,3.22-6.8,1.55-5,1.57-9.38.06-13.75-.43-1.24-.96-2.44-1.54-3.59,1.35-1.37,1.45-3.53,1.52-5.23.02-.48.04-.96.08-1.41.1-1.04.11-2.32.05-3.64.06,0,.12.02.18.02.58,0,1.12-.38,1.29-.98.56-1.94,1.1-7.02,1.1-8.86,0-2.2-1.29-4.72-3.75-5.34-.59-1.66-1.83-3.17-3.41-4.08-1.35-.79-2.8-1.06-3.97-.74-.11.03-.24.06-.38.11-2.19-3.17-6.02-3.82-9.76-1.65-2.49,1.44-4.96,3.01-7.2,4.42-1.34.85-2.8,1.67-4.35,2.53-1.14.64-2.31,1.29-3.53,2.01-4,2.37-4.11,6.2-4.15,7.84-.08,2.92,2.15,7.54,2.83,8.89,3.17,6.24,7.01,14.02,8.28,17.14.99,2.43,1.13,6.02.41,10.68-.38,2.52-4.44,12.25-6.78,17.52-.21-.32-.51-.59-.9-.73-.93-.33-1.96.15-2.29,1.09-1.02,2.82-2.5,5.92-4,8.87.65-5.8,1.97-11.41,3.76-15.63,2.62-6.17,5.85-10.9,9.62-14.05.76-.64.86-1.77.22-2.52-.63-.76-1.76-.86-2.52-.22-4.2,3.52-7.77,8.7-10.61,15.4-2.73,6.45-4.41,15.49-4.49,24.18,0,.2.04.38.09.56-.67,1.34-1.49,2.97-2.34,4.67h4.01c.85-1.69,1.63-3.25,2.24-4.47h0Z"/><path class="cls-1" d="M64.11,193.64c-.14-5.32,0-12.9.46-15.28.53-2.8,1.52-5.14,2.63-6.25.49-.5,1.42-.66,2.92-.51,2.5.25,3.67-1.25,4.49-2.75.56-1.03,2.25-2.42,3.69-2.34,3.32.16,3.95-2.68,4.19-3.75.15-.68,1.31-2.43,2.44-2.94,1-.45,2.46-.54,2.92.03,1.12,1.36,2.49,3.73,3.05,5.97.24.96,1.21,1.54,2.17,1.3.96-.24,1.54-1.22,1.3-2.18-.59-2.35-1.8-4.62-2.92-6.24.88-.91,2.13-1.36,3.09-1.33,1.07.03,3.68.32,4.72,2.41,1.14,2.27,1.58,3.99,2.2,6.38l.14.53c.44,1.71.98,3.46,1.5,5.15.46,1.5.89,2.92,1.21,4.16.26,1.72.19,4.56-.58,6.81-1.25,3.64-3.3,7.88-6.1,12.6-1.2,2.04-2.17,3.61-2.98,4.91-1.08,1.76-1.86,3.03-2.55,4.34-1.54,2.91-2.37,5.62-2.44,8.03v.5c-.07,1.86-.11,2.89-.03,5.47-.83.01-1.62.09-2.28.15l-.62.06c-3.16.28-7.15.75-14.41,2.66-1.39.37-2.67.75-3.86,1.15-.08-1.17-.14-2.59-.2-4.08-.15-3.88-.31-7.89-.97-10.05-1.22-4.07-3.07-10.23-3.19-14.9h0ZM103.94,152.35c.69.06.96.29,1.12.48.34.42.86,1.65.44,5.13l-.05.45c-.24,1.97-.48,4.07-.69,6.12-.57-2.18-1.1-4.02-2.28-6.37-.48-.96-1.1-1.71-1.79-2.3.41-1.23,1.46-3.68,3.25-3.52h0ZM60.49,186.96c-1.45-1.77-2.19-4.08-2.28-5.96-.01-.23-.07-.44-.16-.64,1-.63,1.96-1.24,2.87-1.83-.25,1.99-.38,5.21-.43,8.42h0ZM60.64,238.42c-.04-1.39-.16-5.63.63-7.35.57-1.24,2.89-3.68,11.98-6.07,7.58-2,11.48-2.36,13.81-2.56l.66-.06c3.77-.37,4.44,0,4.6,1.03.29,1.93.67,9.94.97,16.38.06,1.29.12,2.56.18,3.77h3.59c-.06-1.25-.12-2.58-.19-3.94-.33-7.2-.68-14.63-1.01-16.76-.3-1.97-1.32-3.04-2.61-3.61-.1-3-.07-4.01-.01-5.96v-.5c.07-1.86.76-4.04,2.04-6.46.64-1.21,1.39-2.43,2.45-4.14.81-1.32,1.79-2.91,3.01-4.96,1.59-2.69,2.95-5.23,4.07-7.62,5.83-1.71,16.97-7.48,25.43-13.92,5.72,3.32,12.9,4.56,18.23,5.48,1.22.21,2.33.4,3.28.59,6.34,1.3,11.49,2.83,15.99,6.06,4.52,3.23,8.26,7.91,9.76,12.21,2.2,6.29,2.65,14.47,1.22,21.87-.8,4.14-2.67,12.58-4.87,21.66h3.68c2.2-9.15,4.02-17.4,4.71-20.97,1.55-8,1.04-16.87-1.35-23.73-1.76-5.04-5.9-10.26-11.06-13.95-5.02-3.6-10.57-5.26-17.36-6.65-.99-.2-2.13-.4-3.4-.62-5.36-.92-12.71-2.19-17.97-5.62-.02,0-.04-.01-.05-.02-.05-.03-.11-.06-.17-.09-.05-.02-.1-.05-.15-.07-.05-.01-.11-.03-.16-.04-.06-.01-.11-.03-.17-.04-.05,0-.11,0-.16,0-.06,0-.12,0-.18,0-.05,0-.11,0-.16.02-.06,0-.12.01-.18.03-.05,0-.1.03-.15.04-.06.02-.12.04-.17.07-.05.02-.09.04-.13.07-.06.03-.12.07-.17.11-.01,0-.03.01-.05.03-7.39,5.82-16.59,10.72-22.3,13.02.14-.39.29-.79.42-1.17,1.06-3.08,1.05-6.57.72-8.62h0c-.46-3.01.75-13.16,1.16-16.5l.05-.45c.45-3.75.06-6.24-1.22-7.82-.28-.35-.62-.63-.98-.88,9.52-8.47,11.39-22.34,11.95-32.32.04-.74-.52-1.37-1.26-1.42-.75-.03-1.37.53-1.42,1.27-.55,9.93-2.46,23.9-12.38,31.53-2.72,0-4.99,1.98-6.27,5.44-1.13-.32-2.16-.41-2.82-.43-1.86-.04-4.17.74-5.83,2.51-1.67-.67-3.74-.48-5.37.26-2.32,1.06-4.1,3.88-4.45,5.43-.11.49-.2.81-.28.95-.04,0-.12,0-.23,0-1.7-.09-3.24.55-4.47,1.43.44-4.28-.45-9.56-1.53-14.32h.03c1.36,0,2.75-.14,4.17-.42,6.18-1.23,11.21-3.09,16.34-6.02.86-.49,1.16-1.59.67-2.45-.49-.86-1.59-1.16-2.45-.67-4.78,2.73-9.48,4.46-15.26,5.62-4.75.95-8.89.03-12.68-2.81-3.66-2.75-7.8-8.92-10.8-16.11-2.83-6.8-4.5-12.44-5.08-17.24-.25-2.07-.12-4.88,0-7.61.12-2.52.24-5.14.08-7.38-.02-.29-.03-.56-.05-.85.22.14.47.23.72.23.36,0,.72-.14.99-.43,1.14-1.24,4.28-2.49,6.62-2.24.73.07,1.4-.45,1.48-1.2.08-.74-.45-1.4-1.19-1.48-2.89-.32-6.81,1.01-8.72,2.92-.24-8.28,1.24-14.71,4.87-21.42-.68,5.71-.73,11.3.12,13.92.25.76.95,1.23,1.7,1.23.18,0,.37-.02.56-.09.94-.3,1.45-1.32,1.15-2.26-1.49-4.57.58-22.09,3.64-26.26.59-.8.42-1.92-.38-2.5-.8-.59-1.92-.41-2.5.38-1.73,2.35-3.13,7.63-3.96,13.18-.15-.27-.38-.51-.67-.67-.87-.48-1.96-.17-2.44.69-4.64,8.31-6.28,16.41-5.5,27.1.15,2.03.03,4.53-.08,6.95-.13,2.87-.27,5.84.01,8.21.63,5.13,2.38,11.08,5.33,18.19,1.72,4.13,3.83,7.97,6.05,11.13.92,6.64-.01,10.7-2.93,12.76-.61.42-.75,1.26-.32,1.87.26.37.68.57,1.1.57.26,0,.54-.08.77-.24,3.67-2.59,4.51-6.99,4.41-11.15.97,1.06,1.94,1.96,2.88,2.67,2.36,1.77,4.89,2.92,7.57,3.49.37,1.56.94,4.04,1.34,6.73-4.81.92-13.77.76-18.36-.16-.73-.15-1.43.32-1.58,1.06-.14.73.33,1.43,1.06,1.58,2.64.53,6.59.83,10.49.83,3.19,0,6.34-.2,8.72-.63.29,3.12.22,6.19-.76,8.14-.12.25-.18.52-.18.79-1.54-.04-3.4.2-4.8,1.61-1.05,1.05-1.82,2.45-2.39,3.85-.13.05-.25.11-.38.19-1.89,1.28-4.85,3.15-7.7,4.95-2.21,1.39-4.38,2.76-6.05,3.86-.83.54-1.06,1.65-.52,2.48.34.53.92.81,1.5.81.34,0,.68-.09.98-.29,1.31-.86,2.94-1.89,4.65-2.97.46,3.02,2.07,6.81,5.45,9.06.09.06.18.09.28.13.01.75.02,1.46.04,2.1.14,5.14,2.07,11.57,3.35,15.83.52,1.73.68,5.85.82,9.17.08,1.99.15,3.86.29,5.26-3.69,1.62-6,3.46-6.97,5.57-.8,1.73-1.09,4.49-.96,8.96.04,1.07.13,2.88.26,5.02h3.59c-.13-2.21-.23-4.07-.26-5.13h0Z"/><path class="cls-1" d="M141.05,215.54c.72-.68.75-1.81.07-2.53-.68-.72-1.81-.75-2.53-.07-8.64,8.17-18.12,21.44-23.08,30.61h4.1c5-8.77,13.59-20.57,21.45-28.01h0Z"/><path class="cls-1" d="M25.57,41.43c-.4,0-.81-.13-1.15-.4-4.44-3.49-9.16-6.71-14.03-9.59-.89-.52-1.19-1.66-.66-2.55.52-.89,1.67-1.19,2.55-.66,5.01,2.95,9.86,6.27,14.44,9.86.81.64.95,1.81.31,2.62-.37.47-.91.72-1.47.72h0Z"/><path class="cls-1" d="M44.08,23.92c-.61,0-1.21-.3-1.57-.86L31.43,5.87c-.56-.87-.31-2.02.56-2.58.87-.56,2.02-.31,2.58.55l11.08,17.19c.56.87.31,2.03-.56,2.58-.31.2-.66.3-1.01.3h0Z"/><path class="cls-1" d="M69.29,14.62c-.87,0-1.65-.61-1.83-1.49l-2.2-10.89c-.2-1.01.45-2,1.46-2.2,1.01-.2,2,.45,2.2,1.46l2.2,10.89c.2,1.01-.45,2-1.46,2.2-.12.02-.25.03-.37.03h0Z"/></svg>