<?xml version="1.0" encoding="UTF-8"?><svg id="Layer_1" xmlns="http://www.w3.org/2000/svg" xmlns:xlink="http://www.w3.org/1999/xlink" viewBox="0 0 1919.07 184.17"><defs><style>.cls-1{fill:none;}.cls-1,.cls-2{stroke-width:0px;}.cls-3{clip-path:url(#clippath-1);}.cls-4{clip-path:url(#clippath);}.cls-2{fill:#f49b4f;}</style><clipPath id="clippath"><rect class="cls-1" width="1919.07" height="184.17"/></clipPath><clipPath id="clippath-1"><rect class="cls-1" x="1938.77" width="1919.07" height="109.65"/></clipPath></defs><g class="cls-4"><path class="cls-2" d="M2028.9,169.44L566.31.15c-7.11-1.24-13.05,5.17-10.87,11.73l41.58,125.39c2.11,6.36-3.43,12.66-10.38,11.8L-99,64.31c-5.74-.71-10.82,3.54-10.82,9.05v516.61c0,4.72,3.77,8.65,8.7,9.09l1112.78,110.41c8.26.73,13.52-8.19,8.58-14.53l-58.79-75.4c-4.93-6.33.3-15.23,8.55-14.53l1042.63,76.17"/></g><g class="cls-3"><path class="cls-2" d="M3931.32-430.42l-1462.59-169.28c-7.11-1.24-13.05,5.17-10.87,11.73l41.58,125.39c2.11,6.36-3.43,12.66-10.38,11.8l-685.64-84.77c-5.74-.71-10.82,3.54-10.82,9.05V-9.89c0,4.72,3.77,8.65,8.7,9.09l1112.78,110.41c8.26.73,13.52-8.19,8.58-14.53l-58.79-75.4c-4.93-6.33.3-15.23,8.55-14.53l1042.63,76.17"/></g></svg>