<?xml version="1.0" encoding="UTF-8"?>
<svg id="Layer_1" data-name="Layer 1" xmlns="http://www.w3.org/2000/svg" xmlns:xlink="http://www.w3.org/1999/xlink" viewBox="0 0 113.45 113.45">
  <defs>
    <style>
      .cls-1 {
        clip-path: url(#clippath);
      }

      .cls-2 {
        fill: none;
      }

      .cls-2, .cls-3 {
        stroke-width: 0px;
      }

      .cls-3 {
        fill: #fff;
      }
    </style>
    <clipPath id="clippath">
      <rect class="cls-2" x="6.62" y="20.99" width="100.2" height="71.46"/>
    </clipPath>
  </defs>
  <g class="cls-1">
    <g id="Group_148" data-name="Group 148">
      <path id="Path_249" data-name="Path 249" class="cls-3" d="M56.64,42.1c-.54.56-1.05,1.12-1.59,1.66-3.2,3.21-6.41,6.42-9.62,9.63-.25.24-.39.58-.37.92,0,11.03.01,22.07.01,33.1.07,2.62-1.99,4.8-4.62,4.87-2.44.07-4.54-1.73-4.84-4.16-.04-.38-.07-.77-.07-1.15v-13.67c0-.29-.02-.57-.06-.85-.15-.75-.86-1.25-1.61-1.14-.72,0-1.3.58-1.3,1.29,0,0,0,.02,0,.02-.03,2.25-.03,4.49-.03,6.74,0,2.7,0,5.4,0,8.09.15,2.61-1.85,4.85-4.46,5-1.8.1-3.5-.82-4.39-2.39-.46-.86-.7-1.83-.68-2.82,0-6.07,0-12.13,0-18.2v-13.64c-.02-.2-.02-.4,0-.59.1-.56-.12-1.12-.59-1.45-2.34-2.3-4.66-4.6-6.96-6.92-2.39-2.39-4.79-4.78-7.18-7.17-.78-.68-1.32-1.58-1.57-2.59-.43-1.86.33-3.8,1.92-4.87,1.54-1.18,3.66-1.24,5.27-.16.37.22.71.48,1.01.78,3.58,3.56,7.14,7.12,10.7,10.7.98,1.06,2.12,1.96,3.4,2.64,4.02,2,8.85,1.36,12.22-1.62,1.09-.97,2.09-2.02,3.12-3.05,2.93-2.93,5.92-5.8,8.76-8.81,2.08-1.91,5.28-1.89,7.34.04,3.72,3.86,7.54,7.62,11.36,11.39,4.14,3.96,10.63,4.06,14.89.24,1.66-1.55,3.27-3.18,4.87-4.79,2.38-2.36,4.73-4.74,7.11-7.09,1.89-1.83,4.9-1.79,6.74.09.69.71,1.14,1.62,1.29,2.6.29,1.47-.18,2.99-1.27,4.02-2.18,2.22-4.38,4.4-6.58,6.6-2.72,2.72-5.45,5.44-8.17,8.14-.16.16-.21.39-.14.6.64,2.66,1.27,5.32,1.91,7.98,1.31,5.47,2.62,10.94,3.93,16.41.02.1.03.19.05.33h-5.91v8.45c.05,1.17-.3,2.31-1.01,3.25-1.08,1.46-2.92,2.15-4.69,1.75-1.86-.29-3.33-1.73-3.68-3.58-.12-.53-.17-1.06-.17-1.6-.01-2.7,0-5.39,0-8.09,0-.19-.07-.26-.24-.26l-2.54-.02c-.25,0-.23.18-.23.35,0,1.42,0,2.84,0,4.26,0,1.38.01,2.75,0,4.13.01,1.36-.56,2.67-1.56,3.59-1.94,1.75-4.93,1.59-6.68-.34-.5-.55-.86-1.21-1.05-1.92-.14-.51-.21-1.03-.2-1.56-.02-2.75-.02-5.51-.01-8.26,0-.27-.03-.37-.35-.37-1.78.02-3.57.01-5.36.01-.07,0-.15,0-.25-.01,0-.09,0-.18.02-.27,1.2-5.08,2.41-10.16,3.61-15.25.7-2.96,1.4-5.93,2.11-8.89.11-.31.01-.65-.24-.86-2.02-1.98-4.02-3.99-6.02-5.99l-5.13-5.1s-.1-.09-.24-.21"/>
      <path id="Path_250" data-name="Path 250" class="cls-3" d="M45.18,32.09c.02,6.15-4.95,11.15-11.1,11.17-6.15.02-11.15-4.95-11.17-11.1-.02-6.15,4.95-11.15,11.1-11.17.02,0,.05,0,.07,0,6.13,0,11.1,4.97,11.1,11.09h0"/>
      <path id="Path_251" data-name="Path 251" class="cls-3" d="M90.53,32.12c-.03,6.15-5.05,11.11-11.2,11.08-6.06-.03-10.99-4.91-11.08-10.97-.09-6.15,4.82-11.21,10.97-11.3,6.15-.09,11.21,4.82,11.3,10.97,0,.07,0,.15,0,.22"/>
    </g>
  </g>
</svg>