<?xml version="1.0" encoding="UTF-8"?>
<svg id="Layer_1" data-name="Layer 1" xmlns="http://www.w3.org/2000/svg" viewBox="0 0 471.38 51.9">
  <defs>
    <style>
      .cls-1 {
        stroke-width: 1.86px;
      }

      .cls-1, .cls-2, .cls-3, .cls-4 {
        stroke: #113a33;
      }

      .cls-1, .cls-5, .cls-6, .cls-7 {
        fill: #fff;
      }

      .cls-1, .cls-5, .cls-7 {
        stroke-miterlimit: 10;
      }

      .cls-2 {
        stroke-width: 5.68px;
      }

      .cls-2, .cls-3, .cls-8, .cls-4 {
        fill: none;
        stroke-linejoin: round;
      }

      .cls-3 {
        stroke-width: 5.62px;
      }

      .cls-5 {
        stroke-width: 3px;
      }

      .cls-5, .cls-7 {
        stroke: #123a33;
      }

      .cls-7 {
        stroke-width: 2.15px;
      }

      .cls-9 {
        fill: #123a33;
      }

      .cls-8 {
        stroke: #0f3932;
        stroke-width: 5.87px;
      }

      .cls-8, .cls-4 {
        stroke-linecap: round;
      }

      .cls-4 {
        stroke-width: 4.6px;
      }
    </style>
  </defs>
  <g>
    <g>
      <path class="cls-5" d="M247.21,35.39h6.67c.46,0,1.15.09,1.15,1.03,0,.76-.21,1.2-1.15,1.2h-6.67v3.29c0,.63-.16,1.15-1.17,1.15-.94,0-1.26-.3-1.26-1.15v-3.29h-6.59c-.42,0-1.15-.07-1.15-1.05,0-.76.23-1.19,1.15-1.19h6.59v-1.77h-3.69c-1.49,0-2.22-.52-2.22-2.22v-4.63c0-1.74.76-2.21,2.22-2.21h9.92c1.43,0,2.22.46,2.22,2.21v4.63c0,1.7-.74,2.22-2.22,2.22h-3.81v1.77h.01ZM250.82,28.12v-.87c0-.4-.21-.65-.65-.65h-8.29c-.46,0-.65.25-.65.65v.87h9.59-.01ZM250.82,29.95h-9.59v.94c0,.42.21.67.65.67h8.29c.46,0,.65-.25.65-.67v-.94h.01Z"/>
      <path class="cls-5" d="M262.92,30.05v.96h2.6c.18,0,.96,0,.96.78s-.76.78-.96.78h-2.6v.99h3.46c.34,0,.96.05.96.88,0,.69-.4.88-.96.88h-9.11c-.37,0-.99-.05-.99-.88,0-.63.34-.88.99-.88h3.47v-.99h-2.64c-.73,0-.9-.44-.9-.78,0-.78.76-.78.96-.78h2.58v-.96h-1.86c-.21,0-.73-.02-.9-.52-.09.02-.21.06-.44.06-.96,0-.99-.69-.99-1.01v-.96c0-1.86.44-2.27,2.35-2.27h1.78v-.52c0-.34.05-.94,1.03-.94.86,0,1.22.23,1.22.94v.52h1.72c1.89,0,2.35.4,2.35,2.27v.96c0,.27,0,1.01-.99,1.01-.18,0-.25-.02-.37-.04-.21.5-.67.5-.9.5h-1.84ZM266.27,39.55c0,1.76-.39,2.14-2.2,2.14h-4.45c-1.81,0-2.22-.37-2.22-2.14v-1.24c0-1.76.39-2.14,2.22-2.14h4.45c1.77,0,2.2.34,2.2,2.14v1.24ZM260.74,28c0-.25.16-.74.84-.82h-2.45c-.39,0-.57.18-.57.55v.76c.07,0,.18-.02.32-.02h1.86v-.48h0ZM264.05,38.33c0-.27-.09-.46-.46-.46h-3.47c-.34,0-.48.18-.48.46v1.08c0,.3.16.48.48.48h3.47c.34,0,.46-.19.46-.48v-1.08ZM264.76,28.48c.14,0,.16,0,.28.02v-.76c0-.39-.19-.55-.57-.55h-2.41c.28.04.86.18.86.82v.48h1.85ZM269.82,36.79c0,.3,0,1.03-1.07,1.03-.97,0-1.08-.55-1.08-1.03v-10.55c0-.29,0-1.05,1.07-1.05s1.08.71,1.08,1.05v10.55ZM271.25,25.08c0-.39.04-1.15,1.11-1.15.98,0,1.13.57,1.13,1.15v14.56c0,.48,0,1.68-1.08,2.06-.46.16-1.07.18-2.6.18-.87,0-1.89,0-1.89-1.36,0-1.17.92-1.17,1.22-1.17.59,0,1.59,0,1.68-.02.39-.05.44-.42.44-.74v-13.52Z"/>
      <path class="cls-5" d="M279.45,25.8c0,.27-.39,2.58-.44,3.06-.17,1.56-.27,3.33-.27,4.85,0,1.99.16,3.94.34,5.21.04.29.14.88.14,1.15,0,.82-.53,1.11-1.22,1.11-.46,0-1.01-.07-1.22-.9-.29-1.17-.5-4.27-.5-6.71,0-4.29.63-7.62.71-7.95.11-.42.32-1.07,1.49-.92.92.11.97.67.97,1.08h0ZM286.35,25.96c-.02-.46.04-1.33,1.28-1.33s1.28.84,1.28,1.31l.02,2.04c2.06-.07,2.29-.09,2.39-.09.32,0,1.22,0,1.22,1.2,0,1.13-.71,1.19-1.89,1.22-.27.02-1.44.05-1.68.05l.06,4.22c1.81.97,2.81,1.91,3.12,2.2.52.48.69.88.69,1.26,0,.73-.62,1.38-1.26,1.38-.46,0-.55-.09-1.38-.97-.32-.34-.67-.62-1.28-1.08-.02.84-.05,1.56-.37,2.2-.73,1.51-2.77,1.65-3.61,1.65-3.25,0-4.55-1.79-4.55-3.76,0-2.32,1.86-3.76,4.49-3.76.78,0,1.31.11,1.66.19l-.07-3.4c-2.11.05-2.96.07-4.84.07-.4,0-1.28,0-1.28-1.2s.78-1.17,1.54-1.19c2.14-.02,2.39-.02,4.52-.07l-.06-2.12h-.01ZM284.89,35.76c-.63,0-2.34.18-2.34,1.74s1.68,1.65,2.14,1.65c.39,0,1.42-.07,1.74-.84.19-.44.18-1.15.14-2.2-.44-.18-.87-.34-1.68-.34h0Z"/>
      <path class="cls-5" d="M308.56,36.93c-1.13,0-1.72-.88-1.72-1.84,0-.53.23-1.01.4-1.3l4.84-8.17c.34-.57.97-1.22,1.97-1.22,1.28,0,1.76.92,1.76,1.59v8.68h.52c.37,0,1.24.07,1.24,1.11,0,1.15-.99,1.15-1.24,1.15h-.52v2.46c0,.76-.37,1.28-1.3,1.28-.82,0-1.4-.29-1.4-1.28v-2.46h-4.55ZM313.1,34.68v-6.17c0-.07-.04-.34-.28-.34-.14,0-.23.07-.29.19l-3.4,5.76c-.05.09-.09.19-.09.29,0,.23.19.28.32.28,0,0,3.74,0,3.74,0Z"/>
      <path class="cls-5" d="M323.5,35.92c-.07.96-.28,3.15-1.49,5.07-.59.94-.87,1.07-1.38,1.07-.8,0-1.49-.63-1.49-1.2,0-.34.16-.62.44-1.07.9-1.42,1.72-3.19,1.72-6.56v-6.25c0-1.88.82-2.39,2.37-2.39h8.66c1.51,0,2.37.5,2.37,2.39v12.48c0,.46,0,1.74-1.07,2.16-.57.23-1.13.23-2.79.23-.67,0-1.7,0-1.99-.09-.67-.23-.76-.9-.76-1.24,0-1.19.82-1.19,1.17-1.19.32,0,1.72.06,2,.06.52,0,.99-.04.99-.73v-2.73h-8.75.02ZM332.25,29.22v-1.54c0-.46-.23-.71-.71-.71h-7.13c-.5,0-.71.25-.71.71v1.54h8.55ZM323.71,31.42v2.29h8.54v-2.29h-8.54Z"/>
      <path class="cls-5" d="M339.02,40.26c-1.33,0-1.53-1.11-1.53-1.49,0-2.18,2.89-4.28,3.84-4.96,3.1-2.25,3.79-2.75,3.79-4.59,0-1.47-.82-2.54-2.34-2.54-2.11,0-2.41,2.02-2.45,2.52-.06.53-.09,1.24-1.28,1.24-.32,0-1.36-.09-1.36-1.28,0-1.53,1.17-4.73,5.07-4.73,2.77,0,5.05,1.72,5.05,4.96,0,2.79-1.47,3.83-3.9,5.51-.8.57-2.91,2.04-2.91,2.83,0,.23.27.27.46.27h5.1c.37,0,1.24.09,1.24,1.13,0,1.15-.99,1.15-1.24,1.15h-7.55.02Z"/>
      <path class="cls-5" d="M354.07,35c-2.35,0-4.61-1.63-4.61-5.18,0-3.25,1.93-5.41,4.98-5.41,1.76,0,3.1.78,3.81,1.63.67.8,1.63,2.23,1.63,6.1,0,1.65,0,8.54-5.6,8.54-3.26,0-4.57-2.45-4.57-3.49,0-.53.42-1.11,1.3-1.11.97,0,1.15.44,1.38,1.07.09.29.46,1.26,1.89,1.26,2.58,0,2.77-3.25,2.85-4.7-.42.42-1.28,1.3-3.06,1.3h0ZM352.22,29.74c0,.46,0,3.06,2.41,3.06,1.3,0,2.48-.94,2.48-3.06,0-1.99-1.01-3.08-2.52-3.08-2.06,0-2.37,2.02-2.37,3.08Z"/>
      <path class="cls-5" d="M377.18,38.91c0,1.95-.82,2.57-2.57,2.57h-9.41c-1.72,0-2.57-.59-2.57-2.57v-11.57c0-1.97.82-2.57,2.57-2.57h9.41c1.72,0,2.57.59,2.57,2.57v11.57ZM374.66,31.86v-3.92c0-.52-.27-.82-.84-.82h-7.82c-.48,0-.82.23-.82.82v3.92h9.49ZM365.18,34.14v4.18c0,.55.3.84.82.84h7.82c.53,0,.84-.28.84-.84v-4.18h-9.49Z"/>
      <path class="cls-5" d="M387.58,25.29c1.13-1.28,1.61-1.44,1.99-1.44.53,0,.99.4.99.94,0,.39-.14.53-.63,1.05-.5.53-1.11,1.28-1.61,2.25-.73,1.45-1.08,3.21-1.08,4.89,0,4.3,1.97,6.38,2.98,7.46.21.23.34.44.34.74,0,.53-.46.94-.99.94-.4,0-.88-.18-2-1.45-1.59-1.84-2.85-4.57-2.85-7.69s1.19-5.77,2.87-7.7h-.02Z"/>
      <path class="cls-5" d="M396.59,35.92c-.07.96-.28,3.15-1.49,5.07-.59.94-.87,1.07-1.38,1.07-.8,0-1.49-.63-1.49-1.2,0-.34.16-.62.44-1.07.9-1.42,1.72-3.19,1.72-6.56v-6.25c0-1.88.82-2.39,2.37-2.39h8.66c1.51,0,2.37.5,2.37,2.39v12.48c0,.46,0,1.74-1.07,2.16-.57.23-1.13.23-2.79.23-.67,0-1.7,0-1.99-.09-.67-.23-.76-.9-.76-1.24,0-1.19.82-1.19,1.17-1.19.32,0,1.72.06,2,.06.52,0,.99-.04.99-.73v-2.73h-8.75.02ZM405.35,29.22v-1.54c0-.46-.23-.71-.71-.71h-7.13c-.5,0-.71.25-.71.71v1.54h8.55ZM396.81,31.42v2.29h8.54v-2.29h-8.54Z"/>
      <path class="cls-5" d="M413.46,40.7c-1.11,1.28-1.61,1.43-1.99,1.43-.51,0-.99-.39-.99-.94,0-.39.14-.52.63-1.05.67-.71,2.69-2.87,2.69-7.14s-2.02-6.45-2.69-7.14c-.5-.53-.63-.67-.63-1.05,0-.55.48-.94.99-.94.41,0,.9.18,2,1.45,1.59,1.81,2.85,4.55,2.85,7.69s-1.2,5.79-2.87,7.71h.01Z"/>
      <path class="cls-5" d="M439.01,30.43c.71-.02,3.86-.09,4.52-.11.23-.02.4-.02.48-.02.37,0,1.13.05,1.13,1.08s-.69,1.05-1.65,1.07c-.71.02-3.81.11-4.43.14l.04,2.23c2.34.76,4.55,2.35,5.44,3.08.78.63.78,1.05.78,1.24,0,.74-.62,1.43-1.28,1.43-.5,0-.78-.23-1.36-.76-.51-.48-1.42-1.15-2.34-1.74-.52-.32-.9-.53-1.24-.71-.09,1.89-.52,3.95-4.28,3.95-3.12,0-5.39-1.24-5.39-3.58,0-2.02,1.84-3.61,5.31-3.61.87,0,1.45.09,1.81.14l-.04-1.65c-1.47.02-3.81.05-5.28.05-1.13,0-1.86,0-1.86-1.08,0-.86.57-1.07,1.15-1.07,1.66,0,4.3-.04,5.94-.04l-.04-1.74c-1.49.02-3.86.05-5.35.05-1.15,0-1.88,0-1.88-1.11s.88-1.07,1.33-1.07h1.03c.76,0,4.13-.04,4.82-.04l-.02-1.08c-.02-.92.65-1.13,1.26-1.13.73,0,1.24.25,1.26,1.13l.02,1.03c.74-.02,4.05-.09,4.73-.14.23,0,.42-.02.48-.02.29,0,1.15.02,1.15,1.08s-.71,1.08-1.59,1.11c-2.12.07-2.37.06-4.73.14l.04,1.72v.04ZM434.64,36.11c-.82,0-2.83.16-2.83,1.59,0,1.03,1.26,1.49,2.69,1.49s1.91-.44,2.02-1.2c.05-.34.05-.55.05-1.56-.37-.11-.94-.3-1.95-.3h.01Z"/>
      <path class="cls-5" d="M449.73,28.41c-.23.02-1.24.11-1.45.11-1.11,0-1.26-.78-1.26-1.31,0-.82.32-1.22,1.24-1.31.99-.09,11.68-.46,13.72-.46,1.08,0,1.97,0,1.97,1.22s-.88,1.28-1.93,1.28c-1.53.02-2.69.32-4.62,1.51-1.31.8-3.84,2.87-3.84,5.67,0,2.62,2.22,3.35,5.76,3.35,1.53,0,1.7-.02,1.99.05.64.16.82.62.82,1.13,0,1.47-1.15,1.47-2.32,1.47-2.71,0-4.84-.55-6.13-1.15-1.91-.88-2.73-2.79-2.73-4.63,0-1.4.34-3.21,2.45-5.33,1.08-1.08,1.86-1.54,2.68-2.02-2.11.14-4.22.27-6.33.42h-.03ZM459.05,30.71c-.05-.11-.09-.25-.09-.37,0-.37.42-.57.69-.57.3,0,.46.16.88.87.23.39.71,1.33.71,1.65,0,.48-.5.62-.73.62s-.4-.19-.52-.4c-.14-.25-.3-.63-.44-.88-.07-.14-.42-.76-.5-.9v-.02ZM461.09,29.82c-.07-.16-.09-.27-.09-.39,0-.34.4-.55.67-.55.34,0,.48.23.84.82.14.21.74,1.21.74,1.66,0,.4-.4.59-.71.59-.25,0-.44-.21-.5-.3-.07-.16-.4-.82-.46-.94-.07-.16-.44-.76-.5-.9h.01Z"/>
      <path class="cls-5" d="M469.88,39.07c0,.88-.73,1.61-1.61,1.61s-1.61-.73-1.61-1.61.73-1.61,1.61-1.61,1.61.71,1.61,1.61ZM469.11,35.02c-.06.53-.23.96-.82.96s-.8-.3-.87-.94l-.53-5.3v-4.04c0-.67.28-1.3,1.36-1.3.97,0,1.4.48,1.4,1.3v4.04l-.53,5.28h0Z"/>
    </g>
    <rect class="cls-9" x="301.6" y="19.03" width="118.69" height="28.03" rx="5.48" ry="5.48"/>
    <g>
      <path class="cls-6" d="M247.21,35.39h6.67c.46,0,1.15.09,1.15,1.03,0,.76-.21,1.2-1.15,1.2h-6.67v3.29c0,.63-.16,1.15-1.17,1.15-.94,0-1.26-.3-1.26-1.15v-3.29h-6.59c-.42,0-1.15-.07-1.15-1.05,0-.76.23-1.19,1.15-1.19h6.59v-1.77h-3.69c-1.49,0-2.22-.52-2.22-2.22v-4.63c0-1.74.76-2.21,2.22-2.21h9.92c1.43,0,2.22.46,2.22,2.21v4.63c0,1.7-.74,2.22-2.22,2.22h-3.81v1.77h.01ZM250.82,28.12v-.87c0-.4-.21-.65-.65-.65h-8.29c-.46,0-.65.25-.65.65v.87h9.59-.01ZM250.82,29.95h-9.59v.94c0,.42.21.67.65.67h8.29c.46,0,.65-.25.65-.67v-.94h.01Z"/>
      <path class="cls-6" d="M262.92,30.05v.96h2.6c.18,0,.96,0,.96.78s-.76.78-.96.78h-2.6v.99h3.46c.34,0,.96.05.96.88,0,.69-.4.88-.96.88h-9.11c-.37,0-.99-.05-.99-.88,0-.63.34-.88.99-.88h3.47v-.99h-2.64c-.73,0-.9-.44-.9-.78,0-.78.76-.78.96-.78h2.58v-.96h-1.86c-.21,0-.73-.02-.9-.52-.09.02-.21.06-.44.06-.96,0-.99-.69-.99-1.01v-.96c0-1.86.44-2.27,2.35-2.27h1.78v-.52c0-.34.05-.94,1.03-.94.86,0,1.22.23,1.22.94v.52h1.72c1.89,0,2.35.4,2.35,2.27v.96c0,.27,0,1.01-.99,1.01-.18,0-.25-.02-.37-.04-.21.5-.67.5-.9.5h-1.84ZM266.27,39.55c0,1.76-.39,2.14-2.2,2.14h-4.45c-1.81,0-2.22-.37-2.22-2.14v-1.24c0-1.76.39-2.14,2.22-2.14h4.45c1.77,0,2.2.34,2.2,2.14v1.24ZM260.74,28c0-.25.16-.74.84-.82h-2.45c-.39,0-.57.18-.57.55v.76c.07,0,.18-.02.32-.02h1.86v-.48h0ZM264.05,38.33c0-.27-.09-.46-.46-.46h-3.47c-.34,0-.48.18-.48.46v1.08c0,.3.16.48.48.48h3.47c.34,0,.46-.19.46-.48v-1.08ZM264.76,28.48c.14,0,.16,0,.28.02v-.76c0-.39-.19-.55-.57-.55h-2.41c.28.04.86.18.86.82v.48h1.85ZM269.82,36.79c0,.3,0,1.03-1.07,1.03-.97,0-1.08-.55-1.08-1.03v-10.55c0-.29,0-1.05,1.07-1.05s1.08.71,1.08,1.05v10.55ZM271.25,25.08c0-.39.04-1.15,1.11-1.15.98,0,1.13.57,1.13,1.15v14.56c0,.48,0,1.68-1.08,2.06-.46.16-1.07.18-2.6.18-.87,0-1.89,0-1.89-1.36,0-1.17.92-1.17,1.22-1.17.59,0,1.59,0,1.68-.02.39-.05.44-.42.44-.74v-13.52Z"/>
      <path class="cls-6" d="M279.45,25.8c0,.27-.39,2.58-.44,3.06-.17,1.56-.27,3.33-.27,4.85,0,1.99.16,3.94.34,5.21.04.29.14.88.14,1.15,0,.82-.53,1.11-1.22,1.11-.46,0-1.01-.07-1.22-.9-.29-1.17-.5-4.27-.5-6.71,0-4.29.63-7.62.71-7.95.11-.42.32-1.07,1.49-.92.92.11.97.67.97,1.08h0ZM286.35,25.96c-.02-.46.04-1.33,1.28-1.33s1.28.84,1.28,1.31l.02,2.04c2.06-.07,2.29-.09,2.39-.09.32,0,1.22,0,1.22,1.2,0,1.13-.71,1.19-1.89,1.22-.27.02-1.44.05-1.68.05l.06,4.22c1.81.97,2.81,1.91,3.12,2.2.52.48.69.88.69,1.26,0,.73-.62,1.38-1.26,1.38-.46,0-.55-.09-1.38-.97-.32-.34-.67-.62-1.28-1.08-.02.84-.05,1.56-.37,2.2-.73,1.51-2.77,1.65-3.61,1.65-3.25,0-4.55-1.79-4.55-3.76,0-2.32,1.86-3.76,4.49-3.76.78,0,1.31.11,1.66.19l-.07-3.4c-2.11.05-2.96.07-4.84.07-.4,0-1.28,0-1.28-1.2s.78-1.17,1.54-1.19c2.14-.02,2.39-.02,4.52-.07l-.06-2.12h-.01ZM284.89,35.76c-.63,0-2.34.18-2.34,1.74s1.68,1.65,2.14,1.65c.39,0,1.42-.07,1.74-.84.19-.44.18-1.15.14-2.2-.44-.18-.87-.34-1.68-.34h0Z"/>
      <path class="cls-6" d="M308.82,29.61c-.29,0-.94-.19-.94-1.03s.44-.9,1.59-1.11c1.19-.21,1.91-1.03,2.29-2.09.19-.53.34-.97,1.17-.97.71,0,1.11.46,1.11.88v14.1c0,.3,0,1.28-1.3,1.28-.76,0-1.38-.25-1.38-1.28v-9.78h-2.54.01Z"/>
      <path class="cls-6" d="M320.61,40.26c-1.33,0-1.53-1.11-1.53-1.49,0-2.18,2.89-4.28,3.84-4.96,3.1-2.25,3.79-2.75,3.79-4.59,0-1.47-.82-2.54-2.34-2.54-2.11,0-2.41,2.02-2.45,2.52-.06.53-.09,1.24-1.28,1.24-.32,0-1.36-.09-1.36-1.28,0-1.53,1.17-4.73,5.07-4.73,2.77,0,5.05,1.72,5.05,4.96,0,2.79-1.47,3.83-3.9,5.51-.8.57-2.91,2.04-2.91,2.83,0,.23.27.27.46.27h5.1c.37,0,1.24.09,1.24,1.13,0,1.15-.99,1.15-1.24,1.15h-7.55.02Z"/>
      <path class="cls-6" d="M335.54,35.92c-.07.96-.28,3.15-1.49,5.07-.59.94-.87,1.07-1.38,1.07-.8,0-1.49-.63-1.49-1.2,0-.34.16-.62.44-1.07.9-1.42,1.72-3.19,1.72-6.56v-6.25c0-1.88.82-2.39,2.37-2.39h8.66c1.51,0,2.37.5,2.37,2.39v12.48c0,.46,0,1.74-1.07,2.16-.57.23-1.13.23-2.79.23-.67,0-1.7,0-1.99-.09-.67-.23-.76-.9-.76-1.24,0-1.19.82-1.19,1.17-1.19.32,0,1.72.06,2,.06.52,0,.99-.04.99-.73v-2.73h-8.75.02ZM344.29,29.22v-1.54c0-.46-.23-.71-.71-.71h-7.13c-.5,0-.71.25-.71.71v1.54h8.55ZM335.75,31.42v2.29h8.54v-2.29h-8.54Z"/>
      <path class="cls-6" d="M351.05,40.26c-1.33,0-1.53-1.11-1.53-1.49,0-2.18,2.89-4.28,3.84-4.96,3.1-2.25,3.79-2.75,3.79-4.59,0-1.47-.82-2.54-2.34-2.54-2.11,0-2.41,2.02-2.45,2.52-.06.53-.09,1.24-1.28,1.24-.32,0-1.36-.09-1.36-1.28,0-1.53,1.17-4.73,5.07-4.73,2.77,0,5.05,1.72,5.05,4.96,0,2.79-1.47,3.83-3.9,5.51-.8.57-2.91,2.04-2.91,2.83,0,.23.27.27.46.27h5.1c.37,0,1.24.09,1.24,1.13,0,1.15-.99,1.15-1.24,1.15h-7.55.02Z"/>
      <path class="cls-6" d="M377.18,38.91c0,1.95-.82,2.57-2.57,2.57h-9.41c-1.72,0-2.57-.59-2.57-2.57v-11.57c0-1.97.82-2.57,2.57-2.57h9.41c1.72,0,2.57.59,2.57,2.57v11.57ZM374.66,31.86v-3.92c0-.52-.27-.82-.84-.82h-7.82c-.48,0-.82.23-.82.82v3.92h9.49ZM365.18,34.14v4.18c0,.55.3.84.82.84h7.82c.53,0,.84-.28.84-.84v-4.18h-9.49Z"/>
      <path class="cls-6" d="M387.58,25.29c1.13-1.28,1.61-1.44,1.99-1.44.53,0,.99.4.99.94,0,.39-.14.53-.63,1.05-.5.53-1.11,1.28-1.61,2.25-.73,1.45-1.08,3.21-1.08,4.89,0,4.3,1.97,6.38,2.98,7.46.21.23.34.44.34.74,0,.53-.46.94-.99.94-.4,0-.88-.18-2-1.45-1.59-1.84-2.85-4.57-2.85-7.69s1.19-5.77,2.87-7.7h-.02Z"/>
      <path class="cls-6" d="M396.59,35.92c-.07.96-.28,3.15-1.49,5.07-.59.94-.87,1.07-1.38,1.07-.8,0-1.49-.63-1.49-1.2,0-.34.16-.62.44-1.07.9-1.42,1.72-3.19,1.72-6.56v-6.25c0-1.88.82-2.39,2.37-2.39h8.66c1.51,0,2.37.5,2.37,2.39v12.48c0,.46,0,1.74-1.07,2.16-.57.23-1.13.23-2.79.23-.67,0-1.7,0-1.99-.09-.67-.23-.76-.9-.76-1.24,0-1.19.82-1.19,1.17-1.19.32,0,1.72.06,2,.06.52,0,.99-.04.99-.73v-2.73h-8.75.02ZM405.35,29.22v-1.54c0-.46-.23-.71-.71-.71h-7.13c-.5,0-.71.25-.71.71v1.54h8.55ZM396.81,31.42v2.29h8.54v-2.29h-8.54Z"/>
      <path class="cls-6" d="M413.46,40.7c-1.11,1.28-1.61,1.43-1.99,1.43-.51,0-.99-.39-.99-.94,0-.39.14-.52.63-1.05.67-.71,2.69-2.87,2.69-7.14s-2.02-6.45-2.69-7.14c-.5-.53-.63-.67-.63-1.05,0-.55.48-.94.99-.94.41,0,.9.18,2,1.45,1.59,1.81,2.85,4.55,2.85,7.69s-1.2,5.79-2.87,7.71h.01Z"/>
      <path class="cls-6" d="M439.01,30.43c.71-.02,3.86-.09,4.52-.11.23-.02.4-.02.48-.02.37,0,1.13.05,1.13,1.08s-.69,1.05-1.65,1.07c-.71.02-3.81.11-4.43.14l.04,2.23c2.34.76,4.55,2.35,5.44,3.08.78.63.78,1.05.78,1.24,0,.74-.62,1.43-1.28,1.43-.5,0-.78-.23-1.36-.76-.51-.48-1.42-1.15-2.34-1.74-.52-.32-.9-.53-1.24-.71-.09,1.89-.52,3.95-4.28,3.95-3.12,0-5.39-1.24-5.39-3.58,0-2.02,1.84-3.61,5.31-3.61.87,0,1.45.09,1.81.14l-.04-1.65c-1.47.02-3.81.05-5.28.05-1.13,0-1.86,0-1.86-1.08,0-.86.57-1.07,1.15-1.07,1.66,0,4.3-.04,5.94-.04l-.04-1.74c-1.49.02-3.86.05-5.35.05-1.15,0-1.88,0-1.88-1.11s.88-1.07,1.33-1.07h1.03c.76,0,4.13-.04,4.82-.04l-.02-1.08c-.02-.92.65-1.13,1.26-1.13.73,0,1.24.25,1.26,1.13l.02,1.03c.74-.02,4.05-.09,4.73-.14.23,0,.42-.02.48-.02.29,0,1.15.02,1.15,1.08s-.71,1.08-1.59,1.11c-2.12.07-2.37.06-4.73.14l.04,1.72v.04ZM434.64,36.11c-.82,0-2.83.16-2.83,1.59,0,1.03,1.26,1.49,2.69,1.49s1.91-.44,2.02-1.2c.05-.34.05-.55.05-1.56-.37-.11-.94-.3-1.95-.3h.01Z"/>
      <path class="cls-6" d="M449.73,28.41c-.23.02-1.24.11-1.45.11-1.11,0-1.26-.78-1.26-1.31,0-.82.32-1.22,1.24-1.31.99-.09,11.68-.46,13.72-.46,1.08,0,1.97,0,1.97,1.22s-.88,1.28-1.93,1.28c-1.53.02-2.69.32-4.62,1.51-1.31.8-3.84,2.87-3.84,5.67,0,2.62,2.22,3.35,5.76,3.35,1.53,0,1.7-.02,1.99.05.64.16.82.62.82,1.13,0,1.47-1.15,1.47-2.32,1.47-2.71,0-4.84-.55-6.13-1.15-1.91-.88-2.73-2.79-2.73-4.63,0-1.4.34-3.21,2.45-5.33,1.08-1.08,1.86-1.54,2.68-2.02-2.11.14-4.22.27-6.33.42h-.03ZM459.05,30.71c-.05-.11-.09-.25-.09-.37,0-.37.42-.57.69-.57.3,0,.46.16.88.87.23.39.71,1.33.71,1.65,0,.48-.5.62-.73.62s-.4-.19-.52-.4c-.14-.25-.3-.63-.44-.88-.07-.14-.42-.76-.5-.9v-.02ZM461.09,29.82c-.07-.16-.09-.27-.09-.39,0-.34.4-.55.67-.55.34,0,.48.23.84.82.14.21.74,1.21.74,1.66,0,.4-.4.59-.71.59-.25,0-.44-.21-.5-.3-.07-.16-.4-.82-.46-.94-.07-.16-.44-.76-.5-.9h.01Z"/>
      <path class="cls-6" d="M469.88,39.07c0,.88-.73,1.61-1.61,1.61s-1.61-.73-1.61-1.61.73-1.61,1.61-1.61,1.61.71,1.61,1.61ZM469.11,35.02c-.06.53-.23.96-.82.96s-.8-.3-.87-.94l-.53-5.3v-4.04c0-.67.28-1.3,1.36-1.3.97,0,1.4.48,1.4,1.3v4.04l-.53,5.28h0Z"/>
    </g>
  </g>
  <g>
    <polyline class="cls-4" points="102.9 28.09 108.18 36 102.9 43.92"/>
    <polyline class="cls-8" points="90.63 25.92 97.35 36 90.63 46.09"/>
    <g>
      <path class="cls-3" d="M14.19,39.54c0,1.13-.39,5.24-5.69,5.23-1.84,0-3.45-.41-4.58-1.82-.73-.92-1.11-2.08-1.11-2.97s.5-1.71,2.06-1.71c.4,0,1.91.05,2.09,1.26.12.71.21,1.53,1.45,1.54.76,0,1.46-.44,1.46-1.65,0-.52,0-1.87-1.51-1.87-.54,0-1.67,0-1.67-1.7s1.04-1.71,1.66-1.71c.82,0,1.06-.68,1.06-1.61,0-.88-.42-1.37-1.01-1.37-.73,0-1.08.26-1.21,1.17-.06.48-.2,1.47-1.97,1.47-.9,0-2.07-.31-2.07-1.66s1.12-4.7,5.25-4.69c3.26,0,5.31,2,5.31,4.87,0,1.23-.46,2.41-1.48,3.14,1.89,1.46,1.98,3.35,1.98,4.09v-.02Z"/>
      <path class="cls-3" d="M16.94,30.26c.22-2.13,1.26-2.36,2.61-2.36h5.1c.85,0,1.87.32,1.87,1.89s-1,1.83-1.87,1.83h-3.94c-.26,0-.45.15-.48.43l-.17,1.63c.4-.24.88-.52,2.01-.51,2.57,0,5.03,1.95,5.02,5.49,0,4.46-3,6.15-5.78,6.14-4.22,0-5.59-3.2-5.59-4.29,0-1.25,1.04-1.65,1.97-1.65,1.67,0,1.99.82,2.21,1.42.16.42.57.82,1.27.82,1.33,0,1.59-1.11,1.59-2.21,0-1.16-.49-2.01-1.59-2.01-.32,0-.8.04-1.21.38-.52.42-.9.71-1.8.71-.48,0-2.05-.06-1.87-1.71l.63-5.97h0Z"/>
      <path class="cls-3" d="M40.01,36.17c0,2.83-.59,8.66-5.71,8.65-5.14,0-5.66-5.9-5.65-8.68,0-2.85.57-8.66,5.69-8.65,5.1,0,5.66,5.8,5.67,8.68ZM32.94,36.15c0,1.46.09,4.96,1.36,4.96s1.38-3.49,1.38-4.96-.09-4.96-1.36-4.96-1.38,3.5-1.38,4.96Z"/>
      <path class="cls-3" d="M52.91,36.2c0,2.83-.59,8.66-5.71,8.65-5.14,0-5.66-5.9-5.65-8.68,0-2.85.57-8.66,5.69-8.65,5.1,0,5.66,5.81,5.67,8.68ZM45.84,36.18c0,1.46.09,4.96,1.36,4.96s1.38-3.49,1.38-4.96-.09-4.96-1.36-4.96-1.38,3.5-1.38,4.96Z"/>
      <path class="cls-3" d="M58.73,39.46v5.18c0,.7-.18,1.84-1.77,1.83-1.49,0-2.07-.52-2.07-1.84l.03-14.26c0-1.56.76-2.6,2.61-2.6l11.99.03c1.73,0,2.81.62,2.8,2.82l-.03,13.04c0,2.83-1.78,2.83-3.91,2.82-2.05,0-3.49,0-3.49-1.96,0-1.21.66-1.99,1.9-1.98.19,0,1.09.04,1.28.05.44-.02.44-.16.44-.5v-2.59l-9.79-.02v-.02ZM61.74,35.85v-4.4h-2.62c-.26,0-.38.19-.38.38v4.02h3ZM65.45,35.86h3.09v-4.01c0-.18-.12-.38-.38-.38h-2.71s0,4.39,0,4.39Z"/>
      <path class="cls-3" d="M79.81,42.53c0,1.32-1.08,2.39-2.39,2.38-1.32,0-2.39-1.08-2.38-2.39,0-1.33,1.1-2.39,2.39-2.38,1.32,0,2.39,1.06,2.38,2.39ZM75.22,29.51c0-.52.05-1.93,2.2-1.93,1.46,0,2.27.52,2.26,1.94v3.33l-.8,5.14c-.1.68-.26,1.46-1.42,1.46s-1.37-.6-1.49-1.46l-.77-5.14v-3.33h.02Z"/>
    </g>
    <rect class="cls-6" x="195.07" y="7.37" width="41" height="30.19" rx="7.35" ry="7.35" transform="translate(63.98 177.37) rotate(-51.57)"/>
    <g>
      <path class="cls-6" d="M14.1,38.04c0,1.13-.39,5.24-5.69,5.23-1.84,0-3.45-.41-4.58-1.83-.73-.92-1.11-2.08-1.11-2.97s.5-1.71,2.06-1.71c.4,0,1.91.05,2.09,1.26.12.71.21,1.54,1.45,1.54.76,0,1.46-.44,1.46-1.65,0-.52,0-1.87-1.51-1.87-.54,0-1.67,0-1.67-1.7s1.04-1.71,1.66-1.71c.82,0,1.06-.68,1.06-1.61,0-.88-.42-1.37-1.01-1.37-.73,0-1.08.26-1.21,1.17-.06.48-.2,1.47-1.97,1.46-.9,0-2.07-.31-2.07-1.66s1.12-4.7,5.25-4.69c3.26,0,5.31,2,5.31,4.87,0,1.23-.46,2.41-1.48,3.14,1.89,1.46,1.98,3.35,1.98,4.09h0Z"/>
      <path class="cls-6" d="M16.85,28.77c.22-2.13,1.26-2.36,2.61-2.36h5.1c.85,0,1.87.32,1.87,1.89s-1,1.83-1.87,1.83h-3.94c-.26,0-.45.15-.48.43l-.17,1.63c.4-.24.88-.52,2.01-.51,2.57,0,5.03,1.95,5.02,5.49,0,4.46-3,6.15-5.78,6.14-4.22,0-5.59-3.2-5.59-4.29,0-1.25,1.04-1.65,1.97-1.65,1.67,0,1.99.82,2.21,1.42.16.42.57.82,1.27.82,1.33,0,1.59-1.11,1.59-2.21,0-1.16-.49-2.01-1.59-2.01-.32,0-.8.04-1.21.38-.52.42-.9.71-1.8.71-.48,0-2.05-.06-1.87-1.71l.63-5.97h0Z"/>
      <path class="cls-6" d="M39.92,34.68c0,2.83-.59,8.66-5.71,8.65-5.14,0-5.66-5.9-5.65-8.68,0-2.85.57-8.66,5.69-8.65,5.1,0,5.66,5.8,5.67,8.68ZM32.84,34.66c0,1.46.09,4.96,1.36,4.96s1.38-3.49,1.38-4.96-.09-4.96-1.36-4.96-1.38,3.5-1.38,4.96Z"/>
      <path class="cls-6" d="M52.82,34.7c0,2.83-.59,8.66-5.71,8.65-5.14,0-5.66-5.9-5.65-8.68,0-2.85.57-8.66,5.69-8.65,5.1,0,5.66,5.81,5.67,8.68ZM45.75,34.68c0,1.46.09,4.96,1.36,4.96s1.38-3.49,1.38-4.96-.09-4.96-1.36-4.96-1.38,3.5-1.38,4.96Z"/>
      <path class="cls-6" d="M58.65,37.96v5.18c0,.7-.18,1.84-1.77,1.83-1.49,0-2.07-.52-2.07-1.84l.03-14.26c0-1.56.76-2.6,2.61-2.6l11.99.03c1.73,0,2.81.62,2.8,2.82l-.03,13.04c0,2.83-1.78,2.83-3.91,2.82-2.05,0-3.49,0-3.49-1.96,0-1.21.66-1.99,1.9-1.98.19,0,1.09.05,1.28.05.44-.02.44-.16.44-.5v-2.59l-9.79-.02v-.02ZM61.66,34.36v-4.4h-2.62c-.26,0-.38.19-.38.38v4.02h3ZM65.36,34.37h3.09v-4.01c0-.18-.12-.38-.38-.38h-2.71v4.39s0,0,0,0Z"/>
      <path class="cls-6" d="M79.73,41.03c0,1.32-1.08,2.39-2.39,2.38s-2.39-1.08-2.38-2.39c0-1.33,1.1-2.39,2.39-2.38,1.32,0,2.39,1.06,2.38,2.39ZM75.13,28.01c0-.52.05-1.93,2.2-1.93,1.46,0,2.27.52,2.26,1.94v3.33l-.8,5.14c-.1.68-.26,1.46-1.42,1.45-1.16,0-1.37-.6-1.49-1.46l-.77-5.14v-3.33h.02Z"/>
    </g>
    <rect class="cls-6" x="114.75" y="15.65" width="107.58" height="36.24" rx="8.81" ry="8.81"/>
    <g>
      <path class="cls-2" d="M136.02,37.66c0,1.35-.46,6.22-6.76,6.21-2.18,0-4.1-.48-5.44-2.16-.87-1.09-1.32-2.47-1.32-3.53s.59-2.03,2.44-2.03c.47,0,2.27.06,2.48,1.49.14.85.26,1.83,1.72,1.83.9,0,1.72-.52,1.73-1.97,0-.61,0-2.22-1.8-2.22-.64,0-1.98,0-1.98-2.01s1.23-2.03,1.97-2.03c.97,0,1.25-.81,1.26-1.91,0-1.04-.49-1.63-1.21-1.63-.87,0-1.28.31-1.45,1.39-.07.57-.24,1.75-2.35,1.74-1.07,0-2.46-.36-2.46-1.97s1.33-5.58,6.24-5.57c3.88,0,6.31,2.38,6.3,5.78,0,1.46-.55,2.86-1.76,3.74,2.24,1.73,2.35,3.98,2.35,4.86h0Z"/>
      <path class="cls-2" d="M151.35,33.62c0,3.36-.7,10.29-6.79,10.28-6.11,0-6.73-7.02-6.72-10.31,0-3.38.69-10.29,6.77-10.28,6.06,0,6.73,6.9,6.75,10.31ZM142.95,33.6c0,1.72.1,5.9,1.62,5.9s1.64-4.13,1.65-5.89c0-1.72-.1-5.9-1.62-5.9s-1.64,4.16-1.64,5.89h0Z"/>
      <path class="cls-2" d="M166.68,33.66c0,3.36-.7,10.29-6.79,10.28-6.11,0-6.73-7.02-6.72-10.31,0-3.38.69-10.29,6.77-10.28,6.06,0,6.73,6.9,6.75,10.31ZM158.29,33.64c0,1.72.1,5.9,1.62,5.9s1.64-4.13,1.65-5.89c0-1.72-.1-5.9-1.62-5.9s-1.64,4.16-1.64,5.89h0Z"/>
      <path class="cls-2" d="M182.01,33.68c0,3.36-.7,10.29-6.79,10.28-6.11,0-6.73-7.02-6.72-10.31,0-3.38.69-10.29,6.77-10.28,6.06,0,6.73,6.9,6.75,10.31h0ZM173.62,33.67c0,1.72.1,5.9,1.62,5.9s1.64-4.13,1.64-5.89-.1-5.9-1.62-5.9-1.64,4.16-1.64,5.89Z"/>
      <path class="cls-2" d="M188.94,37.56v6.15c-.02.82-.2,2.18-2.1,2.17-1.77,0-2.46-.62-2.46-2.18l.04-16.94c0-1.84.91-3.1,3.11-3.1l14.25.03c2.06,0,3.34.74,3.33,3.35l-.04,15.5c0,3.36-2.11,3.36-4.64,3.35-2.44,0-4.14,0-4.13-2.33,0-1.45.79-2.36,2.25-2.36.23,0,1.3.06,1.51.06.52-.03.52-.19.52-.59v-3.08l-11.63-.03h0ZM192.52,33.29v-5.23h-3.11c-.31,0-.45.23-.45.44v4.78h3.57ZM196.92,33.29h3.67v-4.77c0-.21-.13-.45-.44-.45h-3.22v5.22s-.02,0-.02,0Z"/>
      <path class="cls-2" d="M213.99,41.21c0,1.57-1.28,2.84-2.85,2.84s-2.84-1.28-2.84-2.85,1.31-2.84,2.85-2.84,2.84,1.26,2.84,2.85ZM208.53,25.74c0-.61.06-2.3,2.6-2.29,1.72,0,2.7.62,2.7,2.3v3.95l-.95,6.1c-.12.81-.32,1.72-1.69,1.72s-1.63-.71-1.77-1.73l-.91-6.11v-3.95h0Z"/>
    </g>
    <g>
      <path class="cls-6" d="M135.92,36.73c0,1.35-.46,6.22-6.76,6.21-2.18,0-4.1-.48-5.44-2.17-.87-1.09-1.32-2.47-1.32-3.53s.59-2.03,2.44-2.03c.47,0,2.27.06,2.48,1.49.14.85.26,1.83,1.72,1.83.9,0,1.72-.52,1.73-1.97,0-.61,0-2.22-1.8-2.22-.64,0-1.98,0-1.98-2.01s1.23-2.03,1.97-2.03c.97,0,1.25-.81,1.26-1.91,0-1.04-.49-1.63-1.21-1.63-.87,0-1.28.31-1.45,1.39-.07.57-.24,1.75-2.35,1.74-1.07,0-2.46-.36-2.46-1.97s1.33-5.58,6.24-5.57c3.88,0,6.31,2.38,6.3,5.78,0,1.46-.55,2.86-1.76,3.74,2.24,1.73,2.35,3.98,2.35,4.86h0Z"/>
      <path class="cls-6" d="M151.25,32.7c0,3.36-.7,10.29-6.79,10.28-6.11,0-6.73-7.02-6.72-10.31,0-3.38.69-10.29,6.77-10.28,6.06,0,6.73,6.9,6.75,10.31ZM142.85,32.68c0,1.72.1,5.9,1.62,5.9s1.64-4.13,1.65-5.89c0-1.72-.1-5.9-1.62-5.9s-1.64,4.16-1.64,5.89h0Z"/>
      <path class="cls-6" d="M166.58,32.73c0,3.36-.7,10.29-6.79,10.28-6.11,0-6.73-7.02-6.72-10.31,0-3.38.69-10.29,6.77-10.28,6.06,0,6.73,6.9,6.75,10.31ZM158.18,32.71c0,1.72.1,5.9,1.62,5.9s1.64-4.13,1.65-5.89c0-1.72-.1-5.9-1.62-5.9s-1.64,4.16-1.64,5.89h0Z"/>
      <path class="cls-6" d="M181.91,32.77c0,3.36-.7,10.29-6.79,10.28-6.11,0-6.73-7.02-6.72-10.31,0-3.38.69-10.29,6.77-10.28,6.06,0,6.73,6.9,6.75,10.31h0ZM173.51,32.75c0,1.72.1,5.9,1.62,5.9s1.64-4.13,1.64-5.89-.1-5.9-1.62-5.9-1.64,4.16-1.64,5.89Z"/>
      <path class="cls-6" d="M188.84,36.63v6.15c-.02.82-.2,2.18-2.1,2.17-1.77,0-2.46-.62-2.46-2.18l.04-16.94c0-1.84.91-3.1,3.11-3.1l14.25.03c2.06,0,3.34.74,3.33,3.35l-.04,15.5c0,3.36-2.11,3.36-4.64,3.35-2.44,0-4.14,0-4.13-2.33,0-1.45.79-2.36,2.25-2.36.23,0,1.3.05,1.51.06.52-.03.52-.19.52-.59v-3.08l-11.63-.03h0ZM192.42,32.36v-5.23h-3.11c-.31,0-.45.23-.45.44v4.78h3.57ZM196.82,32.37h3.67v-4.77c0-.21-.13-.45-.44-.45h-3.22v5.22s-.02,0-.02,0Z"/>
      <path class="cls-6" d="M213.87,40.28c0,1.57-1.28,2.84-2.85,2.84s-2.84-1.28-2.84-2.85,1.31-2.84,2.85-2.84,2.84,1.26,2.84,2.85ZM208.42,24.82c0-.61.06-2.3,2.6-2.29,1.72,0,2.7.62,2.7,2.3v3.95l-.95,6.1c-.12.81-.32,1.72-1.69,1.72s-1.63-.71-1.77-1.73l-.91-6.11v-3.95h0Z"/>
    </g>
    <g>
      <g>
        <path class="cls-6" d="M11.71,21.82c.54,0,.6.36.6.57,0,.07,0,.61-.6.61h-4.36c-1.74,0-2.26-.83-2.42-1.09-.17.26-.28.39-.59.71-.34.35-.47.47-.7.47-.38,0-.68-.37-.68-.73,0-.29.06-.34.55-.72.2-.17.53-.47.68-.64v-1.92c0-.06,0-.29-.22-.29h-.4c-.41,0-.57-.23-.57-.56,0-.44.17-.63.61-.63h.68c.91,0,1.1.19,1.1,1.1v1.83c.06.44.27,1.28,1.97,1.28,0,0,4.37,0,4.37,0ZM3.77,14.06c.19,0,.4.05,1.28.82.59.52.66.64.66.85,0,.34-.31.69-.63.69-.24,0-.38-.12-.63-.36-.27-.28-.76-.67-1.04-.94-.13-.11-.26-.22-.26-.45,0-.3.3-.62.62-.62h0ZM7.75,16.25c-.17-.13-.34-.27-.51-.39-.13-.1-.18-.16-.18-.31,0-.13.07-.22.19-.32h-.88c-.23,0-.52-.05-.52-.49,0-.49.38-.49.52-.49h4.37c.32,0,.84,0,.84.58,0,.46-.17.71-1.59,1.42h.84c.88,0,1.1.19,1.1,1.08v3.1c0,.99-.3,1.08-1.23,1.08-.51,0-.85,0-.85-.53,0-.18.06-.37.26-.43.03,0,.37,0,.43,0,.1,0,.25,0,.25-.28v-.39h-1.29v1.08c0,.44-.21.55-.61.55-.5,0-.54-.35-.54-.55v-1.08h-1.26v1.09c0,.43-.21.56-.57.56-.57,0-.58-.44-.58-.57v-3.62c0-.94.26-1.08,1.13-1.08h.69v-.02ZM8.34,17.68v-.54h-1.03c-.17,0-.22.09-.22.23v.31h1.26,0ZM8.34,18.5h-1.26v.54h1.26v-.54ZM8.05,15.24c.31.19.83.61.89.66.27-.14.44-.22.78-.44.04-.02.15-.1.15-.16,0-.05-.07-.06-.13-.06h-1.69ZM9.49,17.68h1.29v-.31c0-.16-.07-.23-.23-.23h-1.05v.54h0ZM10.78,18.5h-1.29v.54h1.29v-.54Z"/>
        <path class="cls-6" d="M20.77,15.14c.94,0,1.13.26,1.13,1.23v.79c0,.35-.14.57-.58.57-.39,0-.64-.11-.64-.57v-.69c0-.18-.06-.3-.3-.3h-5.85c-.21,0-.3.11-.3.3v.69c0,.34-.15.57-.58.57-.38,0-.63-.12-.63-.57v-.79c0-1.01.2-1.23,1.17-1.23h.48c-.06-.13-.13-.23-.27-.44-.06-.07-.11-.16-.11-.3,0-.3.36-.45.68-.45s.39.12.6.45c.16.27.32.53.41.73h.86v-.69c0-.31.12-.55.57-.55.41,0,.64.11.64.55v.69h.91c.18-.27.23-.35.44-.75.17-.32.23-.45.59-.45.23,0,.65.1.65.45,0,.14-.06.23-.19.45-.03.04-.17.24-.19.3h.5ZM15.31,19.11c-.77,0-.95-.18-.95-1v-.46c0-.81.16-1,.95-1h4.34c.78,0,.95.19.95,1v.46c0,.82-.18,1-.95,1h-1.57v.43h2.29c.67,0,1.08.2,1.08,1.07v1.2c0,1.08-.59,1.08-1.56,1.08-.7,0-.77-.03-.85-.07-.19-.1-.26-.32-.26-.51,0-.52.35-.52.59-.52.11,0,.6.02.68,0,.15-.03.17-.17.17-.27v-.62c0-.19-.11-.28-.29-.28h-1.84v2.06c0,.15,0,.61-.59.61-.52,0-.65-.24-.65-.61v-2.06h-1.82c-.18,0-.28.09-.28.28v1.42c0,.15,0,.61-.59.61-.53,0-.65-.26-.65-.61v-1.68c0-.81.34-1.06,1.07-1.06h2.27v-.44h-1.53v-.02ZM19.43,17.7c0-.14-.07-.19-.19-.19h-3.52c-.14,0-.19.06-.19.19v.35c0,.12.06.19.19.19h3.52c.12,0,.19-.05.19-.19v-.35Z"/>
      </g>
      <g>
        <path class="cls-1" d="M11.71,21.82c.54,0,.6.36.6.57,0,.07,0,.61-.6.61h-4.36c-1.74,0-2.26-.83-2.42-1.09-.17.26-.28.39-.59.71-.34.35-.47.47-.7.47-.38,0-.68-.37-.68-.73,0-.29.06-.34.55-.72.2-.17.53-.47.68-.64v-1.92c0-.06,0-.29-.22-.29h-.4c-.41,0-.57-.23-.57-.56,0-.44.17-.63.61-.63h.68c.91,0,1.1.19,1.1,1.1v1.83c.06.44.27,1.28,1.97,1.28,0,0,4.37,0,4.37,0ZM3.77,14.06c.19,0,.4.05,1.28.82.59.52.66.64.66.85,0,.34-.31.69-.63.69-.24,0-.38-.12-.63-.36-.27-.28-.76-.67-1.04-.94-.13-.11-.26-.22-.26-.45,0-.3.3-.62.62-.62h0ZM7.75,16.25c-.17-.13-.34-.27-.51-.39-.13-.1-.18-.16-.18-.31,0-.13.07-.22.19-.32h-.88c-.23,0-.52-.05-.52-.49,0-.49.38-.49.52-.49h4.37c.32,0,.84,0,.84.58,0,.46-.17.71-1.59,1.42h.84c.88,0,1.1.19,1.1,1.08v3.1c0,.99-.3,1.08-1.23,1.08-.51,0-.85,0-.85-.53,0-.18.06-.37.26-.43.03,0,.37,0,.43,0,.1,0,.25,0,.25-.28v-.39h-1.29v1.08c0,.44-.21.55-.61.55-.5,0-.54-.35-.54-.55v-1.08h-1.26v1.09c0,.43-.21.56-.57.56-.57,0-.58-.44-.58-.57v-3.62c0-.94.26-1.08,1.13-1.08h.69v-.02ZM8.34,17.68v-.54h-1.03c-.17,0-.22.09-.22.23v.31h1.26,0ZM8.34,18.5h-1.26v.54h1.26v-.54ZM8.05,15.24c.31.19.83.61.89.66.27-.14.44-.22.78-.44.04-.02.15-.1.15-.16,0-.05-.07-.06-.13-.06h-1.69ZM9.49,17.68h1.29v-.31c0-.16-.07-.23-.23-.23h-1.05v.54h0ZM10.78,18.5h-1.29v.54h1.29v-.54Z"/>
        <path class="cls-1" d="M20.77,15.14c.94,0,1.13.26,1.13,1.23v.79c0,.35-.14.57-.58.57-.39,0-.64-.11-.64-.57v-.69c0-.18-.06-.3-.3-.3h-5.85c-.21,0-.3.11-.3.3v.69c0,.34-.15.57-.58.57-.38,0-.63-.12-.63-.57v-.79c0-1.01.2-1.23,1.17-1.23h.48c-.06-.13-.13-.23-.27-.44-.06-.07-.11-.16-.11-.3,0-.3.36-.45.68-.45s.39.12.6.45c.16.27.32.53.41.73h.86v-.69c0-.31.12-.55.57-.55.41,0,.64.11.64.55v.69h.91c.18-.27.23-.35.44-.75.17-.32.23-.45.59-.45.23,0,.65.1.65.45,0,.14-.06.23-.19.45-.03.04-.17.24-.19.3h.5ZM15.31,19.11c-.77,0-.95-.18-.95-1v-.46c0-.81.16-1,.95-1h4.34c.78,0,.95.19.95,1v.46c0,.82-.18,1-.95,1h-1.57v.43h2.29c.67,0,1.08.2,1.08,1.07v1.2c0,1.08-.59,1.08-1.56,1.08-.7,0-.77-.03-.85-.07-.19-.1-.26-.32-.26-.51,0-.52.35-.52.59-.52.11,0,.6.02.68,0,.15-.03.17-.17.17-.27v-.62c0-.19-.11-.28-.29-.28h-1.84v2.06c0,.15,0,.61-.59.61-.52,0-.65-.24-.65-.61v-2.06h-1.82c-.18,0-.28.09-.28.28v1.42c0,.15,0,.61-.59.61-.53,0-.65-.26-.65-.61v-1.68c0-.81.34-1.06,1.07-1.06h2.27v-.44h-1.53v-.02ZM19.43,17.7c0-.14-.07-.19-.19-.19h-3.52c-.14,0-.19.06-.19.19v.35c0,.12.06.19.19.19h3.52c.12,0,.19-.05.19-.19v-.35Z"/>
      </g>
      <g>
        <path class="cls-6" d="M11.71,21.82c.54,0,.6.36.6.57,0,.07,0,.61-.6.61h-4.36c-1.74,0-2.26-.83-2.42-1.09-.17.26-.28.39-.59.71-.34.35-.47.47-.7.47-.38,0-.68-.37-.68-.73,0-.29.06-.34.55-.72.2-.17.53-.47.68-.64v-1.92c0-.06,0-.29-.22-.29h-.4c-.41,0-.57-.23-.57-.56,0-.44.17-.63.61-.63h.68c.91,0,1.1.19,1.1,1.1v1.83c.06.44.27,1.28,1.97,1.28,0,0,4.37,0,4.37,0ZM3.77,14.06c.19,0,.4.05,1.28.82.59.52.66.64.66.85,0,.34-.31.69-.63.69-.24,0-.38-.12-.63-.36-.27-.28-.76-.67-1.04-.94-.13-.11-.26-.22-.26-.45,0-.3.3-.62.62-.62h0ZM7.75,16.25c-.17-.13-.34-.27-.51-.39-.13-.1-.18-.16-.18-.31,0-.13.07-.22.19-.32h-.88c-.23,0-.52-.05-.52-.49,0-.49.38-.49.52-.49h4.37c.32,0,.84,0,.84.58,0,.46-.17.71-1.59,1.42h.84c.88,0,1.1.19,1.1,1.08v3.1c0,.99-.3,1.08-1.23,1.08-.51,0-.85,0-.85-.53,0-.18.06-.37.26-.43.03,0,.37,0,.43,0,.1,0,.25,0,.25-.28v-.39h-1.29v1.08c0,.44-.21.55-.61.55-.5,0-.54-.35-.54-.55v-1.08h-1.26v1.09c0,.43-.21.56-.57.56-.57,0-.58-.44-.58-.57v-3.62c0-.94.26-1.08,1.13-1.08h.69v-.02ZM8.34,17.68v-.54h-1.03c-.17,0-.22.09-.22.23v.31h1.26,0ZM8.34,18.5h-1.26v.54h1.26v-.54ZM8.05,15.24c.31.19.83.61.89.66.27-.14.44-.22.78-.44.04-.02.15-.1.15-.16,0-.05-.07-.06-.13-.06h-1.69ZM9.49,17.68h1.29v-.31c0-.16-.07-.23-.23-.23h-1.05v.54h0ZM10.78,18.5h-1.29v.54h1.29v-.54Z"/>
        <path class="cls-6" d="M20.77,15.14c.94,0,1.13.26,1.13,1.23v.79c0,.35-.14.57-.58.57-.39,0-.64-.11-.64-.57v-.69c0-.18-.06-.3-.3-.3h-5.85c-.21,0-.3.11-.3.3v.69c0,.34-.15.57-.58.57-.38,0-.63-.12-.63-.57v-.79c0-1.01.2-1.23,1.17-1.23h.48c-.06-.13-.13-.23-.27-.44-.06-.07-.11-.16-.11-.3,0-.3.36-.45.68-.45s.39.12.6.45c.16.27.32.53.41.73h.86v-.69c0-.31.12-.55.57-.55.41,0,.64.11.64.55v.69h.91c.18-.27.23-.35.44-.75.17-.32.23-.45.59-.45.23,0,.65.1.65.45,0,.14-.06.23-.19.45-.03.04-.17.24-.19.3h.5ZM15.31,19.11c-.77,0-.95-.18-.95-1v-.46c0-.81.16-1,.95-1h4.34c.78,0,.95.19.95,1v.46c0,.82-.18,1-.95,1h-1.57v.43h2.29c.67,0,1.08.2,1.08,1.07v1.2c0,1.08-.59,1.08-1.56,1.08-.7,0-.77-.03-.85-.07-.19-.1-.26-.32-.26-.51,0-.52.35-.52.59-.52.11,0,.6.02.68,0,.15-.03.17-.17.17-.27v-.62c0-.19-.11-.28-.29-.28h-1.84v2.06c0,.15,0,.61-.59.61-.52,0-.65-.24-.65-.61v-2.06h-1.82c-.18,0-.28.09-.28.28v1.42c0,.15,0,.61-.59.61-.53,0-.65-.26-.65-.61v-1.68c0-.81.34-1.06,1.07-1.06h2.27v-.44h-1.53v-.02ZM19.43,17.7c0-.14-.07-.19-.19-.19h-3.52c-.14,0-.19.06-.19.19v.35c0,.12.06.19.19.19h3.52c.12,0,.19-.05.19-.19v-.35Z"/>
      </g>
    </g>
    <g>
      <path class="cls-7" d="M215.47,13.39l3.67,2.85c.25.19.59.55.19,1.06-.32.42-.63.57-1.14.18l-3.67-2.85-1.41,1.81c-.27.34-.57.57-1.13.13-.52-.4-.57-.7-.2-1.17l1.41-1.81-3.62-2.82c-.23-.18-.6-.53-.19-1.07.32-.42.63-.56,1.14-.16l3.62,2.82.76-.97-2.03-1.58c-.82-.64-1-1.23-.27-2.17l1.97-2.54c.74-.95,1.37-.89,2.17-.27l5.45,4.24c.79.61,1.02,1.2.27,2.17l-1.97,2.54c-.72.94-1.35.9-2.17.27l-2.09-1.62-.76.97h0ZM219.78,11.95l-5.27-4.1-.4.52c-.18.23-.17.45.07.65l4.56,3.54c.25.19.46.14.64-.09,0,0,.4-.52.4-.52ZM220.56,10.95l.37-.47c.18-.22.17-.44-.08-.63l-4.56-3.54c-.25-.19-.46-.14-.63.08l-.37.47,5.27,4.1h0Z"/>
      <path class="cls-7" d="M224.16,23.82c-.75.96-1.12,1.01-2.12.24l-2.45-1.9c-1-.78-1.07-1.15-.31-2.12l.53-.69c.75-.96,1.12-1.01,2.13-.23l2.45,1.9c.97.76,1.06,1.13.3,2.11l-.53.69h0ZM223.47,22.21c.11-.15.14-.3-.06-.44l-1.91-1.48c-.19-.15-.33-.11-.45.05l-.46.6c-.13.17-.12.32.06.46l1.91,1.48c.19.15.33.09.45-.06l.46-.6ZM226.39,17.18l-.41.53,1.43,1.11c.09.07.53.41.19.84s-.75.1-.86.02l-1.43-1.11-.43.55,1.9,1.47c.19.15.5.44.15.89-.3.38-.59.32-.9.07l-5.01-3.89c-.19-.16-.52-.45-.17-.91.27-.34.57-.33.92-.06l1.91,1.48.43-.55-1.45-1.13c-.4-.31-.31-.62-.16-.82.33-.43.75-.1.86-.02l1.42,1.1.41-.53-1.02-.79c-.11-.09-.39-.32-.27-.67-.06-.03-.14-.06-.27-.16-.53-.41-.25-.81-.11-.98l.41-.53c.79-1.02,1.21-1.07,2.26-.24l.97.76.22-.29c.15-.19.44-.49.96-.07.47.37.57.65.27,1.04l-.22.29.95.73c1.04.81,1.12,1.22.32,2.25l-.41.53c-.11.15-.44.56-.98.13-.09-.07-.13-.12-.19-.18-.32.19-.58,0-.7-.11l-1.01-.79h0ZM233.09,18c.17-.21.51-.61,1.1-.16.54.42.37.8.13,1.11l-6.22,8.01c-.2.26-.72.93-1.48.67-.32-.11-.66-.36-1.5-1.02-.47-.37-1.04-.81-.46-1.56.5-.64,1-.25,1.17-.12.32.25.87.68.94.7.23.13.42-.05.56-.22l5.77-7.42h0ZM226.06,15.12c.1-.14.4-.34.82-.09l-1.34-1.05c-.21-.17-.39-.15-.55.06l-.32.42s.1.06.19.13l1.02.79.2-.26h0ZM227.3,23.83c-.13.17-.44.57-1.03.11-.54-.42-.36-.77-.16-1.03l4.5-5.8c.12-.16.44-.57,1.04-.12.58.45.3.85.15,1.05l-4.5,5.8h0ZM228.07,17.09c.07.06.08.06.15.13l.32-.42c.17-.21.13-.39-.07-.55l-1.33-1.03c.14.14.4.46.12.82l-.2.26,1.01.79h0Z"/>
    </g>
    <g>
      <path class="cls-6" d="M215.47,13.39l3.67,2.85c.25.19.59.55.19,1.06-.32.42-.63.57-1.14.18l-3.67-2.85-1.41,1.81c-.27.34-.57.57-1.13.13-.52-.4-.57-.7-.2-1.17l1.41-1.81-3.62-2.82c-.23-.18-.6-.53-.19-1.07.32-.42.63-.56,1.14-.16l3.62,2.82.76-.97-2.03-1.58c-.82-.64-1-1.23-.27-2.17l1.97-2.54c.74-.95,1.37-.89,2.17-.27l5.45,4.24c.79.61,1.02,1.2.27,2.17l-1.97,2.54c-.72.94-1.35.9-2.17.27l-2.09-1.62-.76.97h0ZM219.78,11.95l-5.27-4.1-.4.52c-.18.23-.17.45.07.65l4.56,3.54c.25.19.46.14.64-.09,0,0,.4-.52.4-.52ZM220.56,10.95l.37-.47c.18-.22.17-.44-.08-.63l-4.56-3.54c-.25-.19-.46-.14-.63.08l-.37.47,5.27,4.1h0Z"/>
      <path class="cls-6" d="M224.16,23.82c-.75.96-1.12,1.01-2.12.24l-2.45-1.9c-1-.78-1.07-1.15-.31-2.12l.53-.69c.75-.96,1.12-1.01,2.13-.23l2.45,1.9c.97.76,1.06,1.13.3,2.11l-.53.69h0ZM223.47,22.21c.11-.15.14-.3-.06-.44l-1.91-1.48c-.19-.15-.33-.11-.45.05l-.46.6c-.13.17-.12.32.06.46l1.91,1.48c.19.15.33.09.45-.06l.46-.6ZM226.39,17.18l-.41.53,1.43,1.11c.09.07.53.41.19.84s-.75.1-.86.02l-1.43-1.11-.43.55,1.9,1.47c.19.15.5.44.15.89-.3.38-.59.32-.9.07l-5.01-3.89c-.19-.16-.52-.45-.17-.91.27-.34.57-.33.92-.06l1.91,1.48.43-.55-1.45-1.13c-.4-.31-.31-.62-.16-.82.33-.43.75-.1.86-.02l1.42,1.1.41-.53-1.02-.79c-.11-.09-.39-.32-.27-.67-.06-.03-.14-.06-.27-.16-.53-.41-.25-.81-.11-.98l.41-.53c.79-1.02,1.21-1.07,2.26-.24l.97.76.22-.29c.15-.19.44-.49.96-.07.47.37.57.65.27,1.04l-.22.29.95.73c1.04.81,1.12,1.22.32,2.25l-.41.53c-.11.15-.44.56-.98.13-.09-.07-.13-.12-.19-.18-.32.19-.58,0-.7-.11l-1.01-.79h0ZM233.09,18c.17-.21.51-.61,1.1-.16.54.42.37.8.13,1.11l-6.22,8.01c-.2.26-.72.93-1.48.67-.32-.11-.66-.36-1.5-1.02-.47-.37-1.04-.81-.46-1.56.5-.64,1-.25,1.17-.12.32.25.87.68.94.7.23.13.42-.05.56-.22l5.77-7.42h0ZM226.06,15.12c.1-.14.4-.34.82-.09l-1.34-1.05c-.21-.17-.39-.15-.55.06l-.32.42s.1.06.19.13l1.02.79.2-.26h0ZM227.3,23.83c-.13.17-.44.57-1.03.11-.54-.42-.36-.77-.16-1.03l4.5-5.8c.12-.16.44-.57,1.04-.12.58.45.3.85.15,1.05l-4.5,5.8h0ZM228.07,17.09c.07.06.08.06.15.13l.32-.42c.17-.21.13-.39-.07-.55l-1.33-1.03c.14.14.4.46.12.82l-.2.26,1.01.79h0Z"/>
    </g>
  </g>
</svg>