<?xml version="1.0" encoding="UTF-8"?>
<svg id="Layer_1" data-name="Layer 1" xmlns="http://www.w3.org/2000/svg" xmlns:xlink="http://www.w3.org/1999/xlink" viewBox="0 0 2128.71 175.29">
  <defs>
    <style>
      .cls-1 {
        clip-path: url(#clippath);
      }

      .cls-2 {
        fill: none;
      }

      .cls-2, .cls-3, .cls-4, .cls-5 {
        stroke-width: 0px;
      }

      .cls-3 {
        fill: url(#linear-gradient);
      }

      .cls-4 {
        fill: #00362f;
      }

      .cls-5 {
        fill: #267c59;
      }
    </style>
    <clipPath id="clippath">
      <rect class="cls-2" width="2128.71" height="175.29"/>
    </clipPath>
    <linearGradient id="linear-gradient" x1="-100.99" y1="72.03" x2="2027.72" y2="72.03" gradientUnits="userSpaceOnUse">
      <stop offset=".07" stop-color="#cb7e2b"/>
      <stop offset=".09" stop-color="#d38936"/>
      <stop offset=".13" stop-color="#e29f4a"/>
      <stop offset=".19" stop-color="#eeb05a"/>
      <stop offset=".25" stop-color="#f6bc65"/>
      <stop offset=".34" stop-color="#fbc36c"/>
      <stop offset=".6" stop-color="#fdc56e"/>
      <stop offset=".66" stop-color="#fcc670"/>
      <stop offset=".7" stop-color="#fccc7a"/>
      <stop offset=".74" stop-color="#fcd58a"/>
      <stop offset=".78" stop-color="#fce1a1"/>
      <stop offset=".82" stop-color="#fcf2be"/>
      <stop offset=".83" stop-color="#fcf8c8"/>
    </linearGradient>
  </defs>
  <g class="cls-1">
    <rect class="cls-5" x="0" y="38.94" width="2128.71" height="223.79"/>
    <g>
      <path class="cls-4" d="M2103.47,14.77C1412.76,63.1,718.82,63.16,28.1,14.96L0,13v106.01l28.1,1.96c690.72,48.2,1384.66,48.14,2075.37-.19l25.24-1.77V13l-25.24,1.77Z"/>
      <path class="cls-3" d="M2103.47,1.77C1412.76,50.1,718.82,50.16,28.1,1.96L0,0v106.01l28.1,1.96c690.72,48.2,1384.66,48.14,2075.37-.19l25.24-1.77V0l-25.24,1.77Z"/>
    </g>
  </g>
  <g>
    <path class="cls-4" d="M595.04,74.41c0-2.51.12-3.95,4.36-4.4.74-.08,4.07-.41,4.77-.53,1.44-.21,2.88-.53,4.36-.86.21-.04,1.19-.25,1.77-.25,1.89,0,3.08,1.77,3.08,3.58,0,3.12-2.34,3.58-10.11,4.28-1.64.16-1.93.58-1.93,1.11v2.59h9.21c1.77,0,3.37.53,3.37,3.12s-.82,3.58-3.49,3.58v17.39c0,1.69-.53,3.25-2.96,3.25-2.26,0-3.49-.58-3.49-3.25v-17.39h-2.63v1.81c0,5.96-1.07,12.09-2.84,15.46-1.23,2.38-2.18,3-3.7,3-2.14,0-3.7-1.52-3.7-3.25,0-.82.29-1.32.7-2.01-.66.37-1.11.37-1.32.37-1.23,0-1.81-.86-2.51-1.81v3.82c0,1.15-.21,3.25-2.84,3.25-2.1,0-3.29-.66-3.29-3.25v-3c-1.6,1.89-2.67,3.12-4.11,3.12-1.89,0-3.66-1.52-3.66-3.7,0-.95.33-1.85,1.85-2.92,1.85-1.32,2.92-2.1,4.69-4.03h-2.71c-.74,0-3.29,0-3.29-2.75,0-2.06.86-3.08,3.29-3.08h3.95v-1.64h-4.23c-1.23,0-3.29,0-3.29-2.84s1.52-3.12,3.21-3.12h.7c-.12-.82-.16-1.07-.74-3.49-1.89-.04-2.38-1.4-2.38-2.71,0-2.59,1.03-3.25,3-3.25h3.74c0-.74,0-2.75,2.96-2.75,2.34,0,3.37.7,3.37,2.75h3.58c.86,0,3.04,0,3.04,2.96,0,1.85-.53,3-2.59,3-.12.58-.78,3-.86,3.49,1.44,0,3.41,0,3.41,2.88s-1.69,3.08-3.25,3.08h-3.54v1.64h3.17c.74,0,3.25,0,3.25,2.75,0,2.06-.86,3.08-3.25,3.08h-1.81c.99,1.19,1.56,1.69,3.08,3.08.45.45,1.03.99,1.15,1.93.58-1.4,1.48-4.77,1.48-10.11v-13.98ZM585.71,80.04c.41-1.93.49-2.26.66-3.49h-3.08c.08.58.62,3.12.7,3.49h1.73Z"/>
    <path class="cls-4" d="M632.17,100.47c0,.99.7.99,1.4.99.86,0,4.77,0,5.02-.04.45-.08.45-.37.53-1.11.16-2.14,2.22-2.18,2.92-2.18,3.33,0,3.33,2.34,3.33,3.12,0,5.43-3.12,5.47-4.89,5.47h-10.15c-4.48,0-4.77-1.64-4.77-5.34v-1.97c0-1.48.37-3.33,3.25-3.33.58,0,.9.04,1.15.12-.12-.25-.21-.49-.21-.9,0-.74.25-1.23.37-1.48h-1.44c-3.66,0-4.27-.66-4.27-4.28v-1.6c0-3.62.62-4.28,4.27-4.28h4.6c3,0,4.28.29,4.28,3.82.33-.21,1.73-1.15,2.01-1.36-1.23-2.92-1.85-6.29-2.26-9.5h-12.33c-.58,0-.99.25-.99.99v6.37c0,4.52-1.11,8.76-2.38,10.48.16-.04.37-.08.62-.08,1.03,0,3.54.78,3.54,2.88,0,1.36-1.32,4.4-1.81,5.43-1.27,2.59-2.22,4.19-4.19,4.19-2.14,0-3.86-1.69-3.86-3.29,0-.99.41-1.6,1.89-3.91.45-.74.99-1.56,1.4-2.43.7-1.4.74-1.56.82-1.73-.16.04-.37.08-.66.08-2.06,0-3.86-1.52-3.86-3.25,0-.7.16-1.11.86-2.84.66-1.64,1.23-3.37,1.23-8.76v-3.82c0-4.52,2.18-5.67,5.71-5.67h13.52c-.04-1.6.29-3.29,3.33-3.29,2.59,0,3.49.95,3.58,3.29h1.73c-.41-.49-.62-.82-.62-1.36,0-1.48,2.18-1.97,3.33-1.97,2.26,0,3.91,2.3,3.86,3.33.66,0,2.59.04,2.59,2.63s-1.56,2.71-2.75,2.71h-7.85c.16,2.01.37,3.21.7,4.28.25-.45,1.32-2.43,1.56-2.84.25-.37.86-1.32,2.3-1.32,1.69,0,3.21,1.32,3.21,2.84s-2.18,4.85-4.27,7.36c.21.21.62.62,1.07.62.41,0,.82-.33,1.15-.86.45-.78.82-1.44,1.97-1.44s3.17.86,3.17,2.63c0,2.06-1.81,6.54-5.14,7.15.62.45,4.77,5.55,4.77,7.93s-2.38,3.41-3.82,3.41c-1.85,0-2.26-.82-3.99-4.36-.58-1.23-1.11-1.97-1.48-2.59-.62-.95-.74-1.36-.74-1.89,0-1.44,1.15-2.43,2.59-2.88-2.01-.7-3.25-1.97-4.23-3.12-1.48,1.19-2.3,1.89-3.45,1.89-1.23,0-1.73-.53-2.18-1.03-.12.25-.29.53-.74.86,2.63,1.32,3.66,1.85,3.66,3.41,0,1.89-1.48,3.54-2.96,3.54-.9,0-1.64-.45-3.33-1.48-.78-.45-1.32-.74-1.93-1.07.12.37.29.78.29,1.52v1.27ZM634.92,77.62c.82,0,2.75.04,2.75,2.51,0,2.26-1.52,2.55-2.75,2.55h-8.1c-1.07,0-2.71-.16-2.71-2.38,0-1.52.33-2.67,2.71-2.67h8.1ZM632.66,88.14c0-.49-.29-.66-.66-.66h-2.01c-.37,0-.66.16-.66.66v.86c0,.49.29.66.66.66h2.01c.37,0,.66-.21.66-.66v-.86Z"/>
    <path class="cls-4" d="M673.24,72.56c-.37-.58-.78-1.19-.78-1.85,0-1.52,2.06-2.92,4.15-2.92,1.07,0,1.73.21,3.08,2.47.82,1.36.86,1.89.82,2.3h3.45c.45-.78,1.11-2.1,1.52-2.88.49-.95.95-1.56,2.75-1.56s4.03.74,4.03,2.43c0,.82-.41,1.48-.82,2.1,3.86,0,3.91,2.55,3.91,5.3v1.69c0,.78-.04,3.37-3.25,3.37-.21,0-1.44,0-2.34-.53.08.78.08.95.08,2.26v7.56c0,2.51-.04,3.95-1.6,4.85-.9.53-2.06.53-4.32.53v2.1c0,1.07.08,1.07,2.3,1.07,2.55,0,2.84,0,3.04-1.23.04-.41.29-2.34.41-2.67.37-.9,1.23-1.23,2.67-1.23,2.55,0,3.54.74,3.54,2.88,0,.49-.21,5.1-1.15,6.58-.82,1.23-1.93,1.6-3.21,1.64-1.44.08-6.12.08-6.7.08-6.62,0-7.65-.12-7.65-5.43v-3.78h-2.14c-2.88,7.56-11.59,9.45-14.92,9.45-1.11,0-1.93-.12-2.47-.82-.7-.9-.99-1.97-.99-2.8,0-2.26,1.48-2.51,3.74-2.84,4.97-.74,5.96-1.81,7.03-3-4.56,0-4.89-1.52-4.89-5.39v-7.56c0-1.32,0-1.44.08-2.18-.62.33-1.27.45-1.93.45-2.84,0-3.49-1.44-3.49-3.37v-1.69c0-2.96,0-5.22,3.99-5.39-.29-.45-.62-.9-.62-1.48,0-1.6,2.06-2.84,4.19-2.84.78,0,1.44.08,2.8,1.77.33.41,1.23,1.52,1.32,2.55h4.36ZM663.99,79.63c0,.12-.04.16-.04.37.95-.66,2.43-.66,3.99-.66h16.52c1.85,0,3.17,0,4.15.78v-1.77c0-.41-.25-.66-.66-.66h-23.31c-.45,0-.66.25-.66.66v1.27ZM683.55,84.52v-.66c0-.45-.21-.66-.66-.66h-13.36c-.45,0-.66.25-.66.66v.66h14.68ZM683.55,87.85h-14.68v1.32h14.68v-1.32ZM683.55,92.5h-14.68v.66c0,.45.25.66.66.66h13.36c.45,0,.66-.21.66-.66v-.66Z"/>
    <path class="cls-4" d="M708.71,99.9c0,2.38-1.97,4.28-4.27,4.28s-4.28-1.93-4.28-4.28,1.93-4.28,4.28-4.28,4.27,1.85,4.27,4.28ZM706.78,90.56c-.21,1.32-.37,2.71-2.26,2.71s-2.18-1.07-2.43-2.71l-1.6-10.81v-7.44c0-1.4.29-3.62,3.91-3.62,2.88,0,3.99,1.23,3.99,3.62v7.44l-1.6,10.81Z"/>
    <path class="cls-4" d="M724.96,84.27c-.95,0-2.38-.08-2.75-2.14-.53.33-1.36.78-2.22,1.23-1.27.66-2.63,1.27-3.74,1.27-2.01,0-3.41-1.97-3.41-4.03s1.23-2.71,2.79-3.29c5.84-2.26,8.76-4.6,11.55-7.19,1.48-1.4,2.59-2.43,5.43-2.43s4.03,1.11,5.43,2.43c2.79,2.55,5.8,4.97,11.72,7.28,1.48.58,2.63,1.15,2.63,3.21,0,2.18-1.52,4.03-3.41,4.03-1.69,0-4.81-1.77-6.62-2.88-.25,2.14-1.32,2.51-2.8,2.51h-14.59ZM717.35,93.07c-2.47,0-3.25-1.48-3.25-3.17,0-2.34,1.07-3.45,3.25-3.45h27.54c2.67,0,5.22.21,5.22,3.78,0,4.73-5.34,9.54-7.07,10.98-6.99,5.67-15.04,6.37-15.46,6.37-2.18,0-3.41-2.18-3.41-3.99s1.15-2.51,2.8-2.92c4.97-1.27,6.45-1.64,9-3.08,3.29-1.89,4.44-3.82,4.44-4.19,0-.33-.33-.33-.7-.33h-22.36ZM737.16,78.07c-1.44-1.19-2.55-2.3-3.41-3.17-.62-.58-.86-.74-1.15-.74-.33,0-.7.29-.95.58-.74.7-2.18,2.14-3.62,3.33h9.13Z"/>
    <path class="cls-4" d="M788.68,71.12c.82,0,3.33,0,3.33,3.08,0,2.51-1.03,3.49-3.33,3.49h-8.88v3.33h7.6c1.36,0,3.25.29,3.25,2.96,0,2.22-.66,3.41-3.25,3.41h-7.6v4.81h10.32c1.27,0,3.29.16,3.29,3.25s-1.85,3.25-3.29,3.25h-10.32v5.39c0,1.4-.21,3.25-3.33,3.25-2.96,0-3.66-1.07-3.66-3.25v-5.39h-15.5c-1.07,0-3.29-.04-3.29-3.21s2.06-3.29,3.29-3.29h2.34v-6.04c0-.86.04-1.23.12-1.64-.37.29-.78.62-1.69.62-2.1,0-4.23-1.93-4.23-4.07,0-1.32.04-1.36,3.21-4.56,2.34-2.38,3.74-4.77,4.89-6.7.66-1.15,1.23-1.89,2.92-1.89,1.81,0,4.23,1.07,4.15,3.21h19.65ZM765.66,77.7c-.33.49-1.4,2.01-2.67,3.49.78-.12,1.32-.16,1.81-.16h8.02v-3.33h-7.15ZM772.81,92.21v-4.81h-5.34c-.62,0-.95.33-.95.95v3.86h6.29Z"/>
    <path class="cls-4" d="M812.56,97.1c-2.18,3.37-4.65,5.06-8.02,5.06-6.25,0-8.63-6.33-8.63-12.21,0-14.02,10.61-19.69,19.98-19.69,2.79,0,8.76.53,12.99,4.48,3.54,3.33,4.85,8.55,4.85,12.83,0,5.14-1.64,10.32-5.63,13.52-4.23,3.45-9.91,4.32-11.84,4.32-3.49,0-3.62-3.21-3.62-3.74,0-2.88,1.73-3.17,3.99-3.54,3.21-.49,9.54-1.64,9.54-10.98,0-6.95-3.99-9.7-7.52-10.03-.7,5.84-2.96,15.25-6.08,19.98ZM802.86,90.03c0,3.04,1.11,4.36,2.14,4.36,1.36,0,2.22-1.73,2.75-2.84.49-1.11,2.71-6.37,3.82-14.26-5.18,1.52-8.71,5.88-8.71,12.74Z"/>
    <path class="cls-4" d="M866.26,74.49c4.19,0,4.52,2.51,4.52,4.07,0,1.97-1.56,13.36-10.85,20.64-5.96,4.69-15.13,6.7-17.06,6.7-2.34,0-3.49-1.93-3.49-3.86,0-2.34,1.23-2.63,3.86-3.21,6.12-1.36,13.48-3.58,17.55-11.96,1.07-2.22,1.77-4.73,1.77-5.14,0-.58-.33-.58-1.19-.58h-10.85c-2.67,3.37-5.14,5.55-6.58,6.62-.95.74-1.97,1.23-3.04,1.23-2.18,0-3.66-1.97-3.66-3.66,0-1.36.25-1.52,3.25-3.86.53-.41,4.23-3.37,7.28-9.25.99-1.93,1.6-3.08,3.82-3.08,1.44,0,3.99.74,3.99,2.75,0,.74-.16,1.27-.82,2.59h11.51Z"/>
    <path class="cls-4" d="M885.37,89.99c0,1.73-.62,3.45-3.78,3.45-2.3,0-3.82-.82-3.82-3.45v-16.32c0-1.77.62-3.45,3.78-3.45,2.3,0,3.82.82,3.82,3.45v16.32ZM905.64,87.65c0,4.6-.74,9.08-5.06,12.87-4.85,4.32-13.28,5.14-15.83,5.14-.82,0-2.01,0-3-1.15-.74-.9-.95-1.97-.95-2.75,0-2.92,1.97-3.08,4.15-3.29,11.14-.99,12.99-5.18,12.99-10.52v-14.76c0-2.3,1.15-3.49,3.78-3.49,2.14,0,3.9.66,3.9,3.49v14.47Z"/>
    <path class="cls-4" d="M917.03,77.74c-1.56,0-3.54-.62-3.54-3.45,0-2.3,1.27-3.49,3.54-3.49h19.73c1.69,0,5.06.12,5.06,4.03,0,2.84-2.67,9-6.29,14.1,3.78,2.67,6.58,5.02,9.62,7.73,1.56,1.4,2.43,2.34,2.43,3.95,0,2.3-2.01,4.11-4.19,4.11-1.6,0-2.43-.9-3.41-2.01-2.22-2.51-5.96-6.21-8.67-8.55-4.69,5.1-12.62,10.98-15.66,10.98-1.93,0-3.49-1.97-3.49-3.99,0-1.64.74-2.06,3.33-3.49,13.56-7.52,17.51-18.95,17.51-19.44,0-.45-.45-.45-.86-.45h-15.09Z"/>
    <path class="cls-4" d="M983.75,72.11c2.47,0,4.23.9,4.23,3.45,0,5.18-5.84,13.03-14.1,18.7.86.82,3.21,3.21,3.21,3.21,1.23,1.23,2.06,2.14,2.06,3.58,0,2.26-2.26,4.15-4.4,4.15-1.52,0-2.18-.7-3.91-2.67-3.58-4.07-5.76-6.58-10.11-10.07-2.43-1.97-3.08-2.59-3.08-3.95,0-2.01,2.1-3.82,3.95-3.82,1.19,0,1.89.49,2.63,1.03,1.15.78,2.67,2.06,4.52,3.62,1.44-.9,5.84-3.54,8.67-7.77.37-.58,1.15-1.73,1.15-2.22,0-.33-.41-.33-.9-.33h-22.24c-2.26,0-3.58-1.15-3.58-3.45,0-2.84,1.97-3.45,3.58-3.45h28.32Z"/>
    <path class="cls-4" d="M997.78,77.74c-1.56,0-3.54-.62-3.54-3.45,0-2.3,1.27-3.49,3.54-3.49h19.73c1.69,0,5.06.12,5.06,4.03,0,2.84-2.67,9-6.29,14.1,3.78,2.67,6.58,5.02,9.62,7.73,1.56,1.4,2.43,2.34,2.43,3.95,0,2.3-2.01,4.11-4.19,4.11-1.6,0-2.43-.9-3.41-2.01-2.22-2.51-5.96-6.21-8.67-8.55-4.69,5.1-12.62,10.98-15.66,10.98-1.93,0-3.49-1.97-3.49-3.99,0-1.64.74-2.06,3.33-3.49,13.56-7.52,17.51-18.95,17.51-19.44,0-.45-.45-.45-.86-.45h-15.09Z"/>
    <path class="cls-4" d="M1041.72,72.56c0,.49-.82,5.71-.95,6.78-.33,3.21-.45,6.41-.45,9.66,0,4.36.25,7.85.66,10.98.16,1.23.25,2.26.25,2.67,0,2.14-1.27,3.08-3.45,3.08-.78,0-2.71,0-3.37-2.1-.58-1.93-1.07-8.59-1.07-14.84,0-7.85.82-13.81,1.23-16.07.29-1.56.9-3.17,3.37-3.17.12,0,.49,0,.99.04,1.93.25,2.8,1.15,2.8,2.96ZM1054.63,73.3c-.04-1.32.04-3.78,3.62-3.78s3.7,2.38,3.7,3.78l.04,3.04c.58,0,3.45-.12,3.66-.12.9,0,3.45,0,3.45,3.41,0,3.21-2.26,3.29-3.62,3.37-.37,0-3.37.16-3.45.16l.12,7.73c6.45,3.49,7.4,5.39,7.4,7.07,0,1.93-1.64,3.95-3.62,3.95-1.27,0-1.77-.53-2.96-1.89-.08-.08-1.07-.99-1.27-1.19-.08.99-.12,2.14-.9,3.54-1.73,2.96-5.55,3.41-7.81,3.41-7.48,0-10.15-4.4-10.15-8.59,0-4.73,3.49-8.39,9.78-8.39,1.11,0,1.81.08,2.38.16l-.12-5.51c-1.36.04-7.23.12-8.47.12s-3.7,0-3.7-3.45c0-2.92,1.97-3.17,2.63-3.29.37-.04,8.22-.16,9.37-.16l-.08-3.37ZM1052.49,94.67c-.99,0-3.54.21-3.54,2.67,0,2.3,2.34,2.59,3.21,2.59.78,0,2.38-.25,2.8-1.48.16-.45.16-.7.16-3.25-.74-.29-1.4-.53-2.63-.53Z"/>
    <path class="cls-4" d="M1096.32,70.01c.62-.58,1.44-1.32,2.67-1.32,2.01,0,4.23,2.22,4.23,3.95,0,1.11-.45,2.1-1.27,2.88l-9.54,8.84,10.77,13.48c.29.33.9,1.27.9,2.34,0,1.93-2.22,3.99-4.28,3.99-1.03,0-1.97-.45-2.63-1.23l-10.61-13.2-3.58,3.37v7.4c0,1.44-.29,3.66-3.9,3.66-2.88,0-3.99-1.23-3.99-3.66v-28.2c0-1.4.29-3.62,3.91-3.62,2.8,0,3.99,1.11,3.99,3.62v9.99l13.32-12.29Z"/>
    <path class="cls-4" d="M1116.26,72.68c0,2.22-1.77,4.03-4.03,4.03s-4.03-1.81-4.03-4.03,1.85-3.99,4.03-3.99,4.03,1.77,4.03,3.99ZM1115.97,100.68c0,1.69-.45,3.49-3.58,3.49-2.43,0-3.95-.66-3.95-3.49v-19.61c0-1.69.49-3.49,3.62-3.49,2.38,0,3.91.66,3.91,3.49v19.61Z"/>
    <path class="cls-4" d="M1138.05,72.19c0-1.69.49-3.49,3.62-3.49,2.43,0,3.95.62,3.95,3.49v28.49c0,2.22-.9,3.49-3.78,3.49-2.43,0-3.78-.74-3.78-3.17-.82,1.03-2.75,3.17-6.5,3.17-6.99,0-10.65-6.78-10.65-13.57,0-5.92,3-13.03,10.4-13.03,4.23,0,6.04,2.01,6.74,2.84v-8.22ZM1128.71,90.85c0,1.19.04,6.99,4.69,6.99s4.65-5.76,4.65-6.99c0-1.07,0-6.95-4.65-6.95s-4.69,5.88-4.69,6.95Z"/>
    <path class="cls-4" d="M1173.57,84.6c0,1.6-1.36,2.71-3.74,2.71s-3.08-.86-3.37-1.64c-.37-1.07-.82-2.34-4.15-2.34-1.89,0-3.45.62-3.45,1.69,0,1.23,1.23,1.48,6.54,2.67,3.95.9,8.96,2.22,8.96,7.81,0,7.23-7.07,8.67-11.8,8.67-8.39,0-11.96-4.4-11.96-7.44,0-1.89,1.32-3.12,3.66-3.12,2.47,0,2.84.82,3.62,2.59.53,1.15,1.36,2.01,4.65,2.01s4.27-.66,4.27-1.81-1.6-1.52-2.63-1.77c-6.29-1.48-8.8-2.06-10.73-3.78-1.23-1.11-2.01-3-2.01-4.93,0-4.52,3.49-8.34,10.98-8.34,11.02,0,11.18,6.86,11.18,7.03Z"/>
    <path class="cls-4" d="M1200.99,90.61c0,1.56,0,6.66,6,6.66s6-5.1,6-6.66v-18.29c0-1.73.53-3.62,3.86-3.62,2.51,0,4.03.82,4.03,3.62v18.54c0,2.43-.21,7.52-4.44,10.56-2.84,2.06-6.21,2.75-9.5,2.75-5.3,0-9.25-1.97-11.39-4.6-1.32-1.6-2.47-4.36-2.47-8.71v-18.54c0-1.27.21-3.62,3.86-3.62,2.43,0,4.03.78,4.03,3.62v18.29Z"/>
    <path class="cls-4" d="M1236.02,100.51c0,1.44-.29,3.66-3.91,3.66-2.8,0-3.99-1.15-3.99-3.66v-25.03c0-4.52,2.1-5.92,5.92-5.92h7.56c4.93,0,6.74.99,7.48,1.44,2.59,1.56,5.14,4.65,5.14,9.54,0,4.4-2.1,7.93-4.81,9.7-2.59,1.69-6.91,1.69-7.81,1.69h-5.59v8.59ZM1236.02,85.14h5.22c3.95,0,4.89-2.06,4.89-4.4,0-2.71-1.36-4.36-4.89-4.36h-4.07c-.74,0-1.15.45-1.15,1.15v7.6Z"/>
    <path class="cls-4" d="M1266.89,79.05c-.78.04-4.36.33-5.06.33-1.64,0-3.33-1.03-3.33-3.74,0-1.52.37-3.49,3.08-3.78,1.32-.16,18.33-.86,29.02-.86,2.26,0,4.81,0,4.81,3.41,0,3.66-2.47,3.7-4.77,3.74-8.22.12-16.48,7.4-16.48,13.98,0,5.02,4.89,5.59,10.52,5.59h3.78c1.81,0,3.25.95,3.25,3.41,0,4.27-3.37,4.27-6.37,4.27-4.07,0-8.14-.49-11.88-2.06-3.82-1.56-6.74-5.06-6.74-10.44,0-4.77,2.22-8.14,3.9-10.11,1.93-2.3,3.7-3.45,5.22-4.44-1.89.16-5.59.49-8.96.7ZM1283.74,83.25c-.04-.12-.12-.41-.12-.7,0-.82,1.03-1.36,1.69-1.36s1.19.45,2.01,2.1c.12.21,1.23,2.34,1.23,3.37,0,1.11-1.19,1.4-1.69,1.4-.86,0-.99-.25-2.1-2.8-.16-.33-.95-1.69-1.03-2.01ZM1287.98,81.31c-.04-.12-.12-.41-.12-.7,0-.82,1.07-1.36,1.73-1.36.7,0,1.19.53,2.01,2.14.25.49,1.19,2.34,1.19,3.33s-.99,1.4-1.69,1.4c-.86,0-.95-.21-2.1-2.8-.16-.33-.95-1.73-1.03-2.01Z"/>
    <path class="cls-4" d="M1335.17,69.6c.62,0,2.71,0,2.71,2.63,0,1.4-.7,2.1-1.23,2.26-.33.12-.78.12-1.07.12-.9,2.51-1.89,3.7-2.51,4.4,1.07.37,2.88.95,3.25,1.11,1.07.53,1.27,1.4,1.27,2.18,0,1.15-.58,3-2.38,3.33.9.16,1.11.82,1.11,1.44,0,1.44-1.23,1.44-1.6,1.44h-12.74v.99h10.73c.41,0,1.6,0,1.6,1.4s-1.23,1.4-1.6,1.4h-10.73v.99h10.77c.33,0,1.56,0,1.56,1.36s-1.23,1.32-1.56,1.32h-10.77v.99h10.69c1.64,0,4.52,0,4.52,3.58,0,1.81-.66,4.89-2.38,5.96-1.03.66-2.06.66-5.18.66-2.84,0-4.19-.08-4.44-1.97-.25.04-.45.08-.78.08-1.11,0-1.4-.49-1.56-.82-.12-.25-.82-2.06-.82-2.67,0-1.32,1.03-1.64,1.6-1.81h-4.69c.33.08.86.25,1.27.99.49.9.82,3,.82,3.7,0,2.34-2.43,2.34-2.84,2.34-1.07,0-2.1-.37-2.34-1.48-.08-.37-.53-3.25-.53-3.62,0-1.07.58-1.69,1.69-1.93h-5.06c.33.08.9.25,1.27.82.41.62.78,2.38.78,3.86,0,.82,0,2.71-2.88,2.71s-2.84-1.56-2.84-5.3c0-1.32.49-1.81,1.56-2.1h-5.18c1.03.53,1.64,1.23,1.64,2.26,0,.41-.78,5.3-3.86,5.3-1.73,0-3.7-1.27-3.7-3.17,0-.7.12-.9,1.23-2.84,1.07-1.85,1.23-2.1,2.3-2.1-1.56-.95-1.56-2.55-1.56-4.81v-3.66c0-4.56.82-5.34,5.39-5.34h4.93c-.37-.12-.82-.29-1.15-.82h-6.08c-.7,0-2.75,0-2.75-2.67-.16.08-.45.16-.78.16-1.36,0-2.34-1.4-2.34-2.71,0-.99.58-1.52,1.07-1.93,1.52-1.36,1.69-1.52,3.21-3.21-.04-.21-.04-.33-.04-.53h-1.6c-.58,0-2.26,0-2.26-2.14s1.73-2.14,2.26-2.14h1.6c0-1.44,1.44-1.73,3.08-1.73.58,0,2.71,0,2.71,1.73h2.59c0-1.44,1.32-1.73,3-1.73s2.59.58,2.59,1.73h1.69c.82,0,2.22.12,2.22,2.14,0,.37-.04.78-.25,1.23,1.64-1.48,1.81-1.69,3.54-3.78.53-.62,1.23-1.48,2.84-1.48.53,0,1.27.12,1.85.45.7.41.9.99.9,1.44h6.25ZM1312.73,80.7c.16-.29.53-1.73.53-2.34,0-.37-.25-.58-.58-.58h-6.95c-.25.29-.33.45-.7.82h4.32c.82,0,2.51.04,2.71,2.38.25,0,.49-.08.66-.29ZM1307.59,82.3c.58,0,.58-.45.58-.7s-.08-.62-.58-.62h-1.93c-.33,0-.58.29-.58.62s.16.7.58.7h1.93ZM1307.88,88.34c-.62,0-.62.41-.62,1.15h8.3v-1.15h-7.69ZM1315.57,92.13h-8.3v1.15h8.3v-1.15ZM1307.26,95.78c0,.74,0,1.15.62,1.15h7.69v-1.15h-8.3ZM1310.71,75.07c-.16-.45-.16-.9-.16-1.4h-2.59c0,.53,0,.9-.16,1.4h2.92ZM1334.11,85.59c-.41-.04-2.75-.53-6.04-2.55-2.06,1.23-5.18,2.34-6.78,2.34-2.22,0-2.63-2.06-2.63-2.92s.25-1.56,1.19-2.01c.45-.25,2.96-.99,3.54-1.15-.29-.33-.53-.53-1.03-1.15-.29.16-.82.45-1.48.45-1.52,0-2.55-1.73-2.55-3.21,0-.99.41-1.4.66-1.69-.25.08-.49.16-1.15.16h-1.69c0,.62-.04.9-.21,1.23,2.75.25,2.75,2.38,2.75,3.21,0,1.15-.25,4.15-.7,5.43-.49,1.27-1.03,1.64-1.85,1.85h17.96ZM1325.88,99.94c.95.53,1.32,1.36,1.56,2.34.21,0,1.27.04,1.52.04,1.27,0,1.36-1.27,1.36-1.77,0-.62-.49-.62-.86-.62h-3.58ZM1326.21,74.61c.41.58,1.81,1.77,2.1,1.97.58-.53,1.03-1.23,1.4-1.97h-3.49Z"/>
    <path class="cls-4" d="M1355.2,71.74c0-2.63,3.04-3.04,4.07-3.04,2.59,0,2.96,1.32,3.82,4.32,2.1-.12,2.8-.16,5.34-.49.66-.08,1.69-.21,2.3-.21.82,0,3,.04,3,3.08,0,.45,0,2.14-1.93,2.71-1.27.37-3.25.53-6.91.82.49,1.32.58,1.56.78,1.93,2.38-.16,4.69-.45,6.12-.66,1.48-.25,1.69-.25,2.06-.25,2.75,0,2.75,2.59,2.75,3.04,0,1.73-1.07,2.59-2.43,2.88-1.48.33-5.18.66-5.43.7.12.25,1.32,2.1,2.01,2.88,1.11,1.27,1.64,1.93,1.64,3.21,0,2.06-1.73,3.58-3.66,3.58-.25,0-.7-.04-1.85-.41-2.92-.99-5.47-1.81-9.95-1.81-.95,0-3.91,0-5.47.82-.49.25-1.44.86-1.44,1.81,0,2.51,5.55,2.67,7.89,2.67s5.3-.16,9.66-1.15c2.1-.45,2.51-.58,3.04-.58,1.81,0,3,1.44,3,3.41,0,2.67-1.81,3.12-3.08,3.49-2.71.74-6.12,1.32-11.22,1.32-6.25,0-16.65-.49-16.65-8.51,0-6.78,7.32-8.51,13.61-8.51,3.66,0,4.89.29,5.88.53-.53-.78-.82-1.23-1.4-2.34-9.33.37-10.36.41-12.83.41-1.15,0-4.93,0-5.88-.25-.58-.16-1.64-.82-1.64-2.75,0-2.63,1.81-2.92,3.17-2.92.82,0,4.4.08,5.1.08,3.17,0,6.37,0,9.54-.21-.53-1.27-.66-1.6-.86-2.06-6.04.16-6.21.16-8.47.16-4.89,0-5.22-.08-5.8-.45-.99-.62-1.19-1.77-1.19-2.59,0-3.04,1.97-3.04,4.19-3.04,1.15,0,6.12.12,7.15.08.86,0,1.4-.04,2.22-.08-.12-.45-.29-1.03-.29-1.64Z"/>
    <path class="cls-4" d="M1396.6,97.1c-2.18,3.37-4.65,5.06-8.02,5.06-6.25,0-8.63-6.33-8.63-12.21,0-14.02,10.61-19.69,19.98-19.69,2.79,0,8.76.53,12.99,4.48,3.54,3.33,4.85,8.55,4.85,12.83,0,5.14-1.64,10.32-5.63,13.52-4.23,3.45-9.91,4.32-11.84,4.32-3.49,0-3.62-3.21-3.62-3.74,0-2.88,1.73-3.17,3.99-3.54,3.21-.49,9.54-1.64,9.54-10.98,0-6.95-3.99-9.7-7.52-10.03-.7,5.84-2.96,15.25-6.08,19.98ZM1386.9,90.03c0,3.04,1.11,4.36,2.14,4.36,1.36,0,2.22-1.73,2.75-2.84.49-1.11,2.71-6.37,3.82-14.26-5.18,1.52-8.71,5.88-8.71,12.74Z"/>
    <path class="cls-4" d="M1434.75,81.15c-.78,0-3.29,0-3.29-3,0-2.38.95-3.41,3.29-3.41h6.95v-3.54c0-.99.08-3.33,3.08-3.33,2.43,0,3.49.86,3.49,3.33v3.54h8.06c.74,0,3.33,0,3.33,3.04,0,2.59-1.23,3.37-3.33,3.37h-5.67c2.84,5.47,5.55,8.47,7.89,11.02.99,1.07,1.23,1.64,1.23,2.75,0,2.43-2.01,4.07-3.62,4.07-1.36,0-2.06-.9-2.63-1.64,0,.21.04.41.04.82,0,2.96-1.77,3.08-2.92,3.08h-2.38v2.8c0,1.27-.25,3.33-3.04,3.33-2.34,0-3.54-.74-3.54-3.33v-2.8h-2.38c-.95,0-3.66,0-3.21-3.78-1.07,1.19-1.6,1.64-2.59,1.64-1.4,0-2.22-.86-2.59-1.27v6.17c0,.74,0,3.37-3.17,3.37-2.92,0-3.54-1.52-3.54-3.37v-14.47c-.16.04-.41.12-.78.12-1.93,0-3.58-1.73-3.58-4.23,0-1.23.21-1.56,2.38-4.89,2.18-3.29,3.33-7.81,3.86-9.95.37-1.44.9-2.55,3.08-2.55,1.4,0,3.58.49,3.58,2.67,0,.99-.41,3.37-1.85,7.65v13.98c3.45-3.29,6.5-7.03,8.84-11.18h-5.02ZM1441.7,95.09v-5.92c-1.32,2.59-2.3,4.15-3.74,6.04.41-.04.62-.12,1.36-.12h2.38ZM1450.66,95.09c.78,0,.99.08,1.4.21-2.63-3.91-2.67-3.99-3.78-6.08v5.88h2.38Z"/>
    <path class="cls-4" d="M1465.13,95.5c0,1.85-.12,5.59-.62,8.34-.16.82-.49,1.56-1.6,1.56-.78,0-1.6-.45-1.6-1.6,0-.58.58-3.08.66-3.62.25-1.56.29-1.89.49-4.77.04-.95.12-1.89,1.4-1.89s1.27,1.19,1.27,1.97ZM1492.35,82.22v1.15h1.81c4.56,0,5.39.78,5.39,5.34v2.38c0,4.23-.58,5.34-5.1,5.34,1.19,2.22,2.67,3.21,3.58,3.78,2.47,1.6,2.88,1.81,2.88,3.33,0,1.36-.95,3.66-3.41,3.66-1.73,0-5.51-2.75-7.89-7.03-2.92,5.06-6.45,7.03-7.89,7.03-2.26,0-3.33-1.97-3.41-3.54-.9,3.41-3.37,3.54-6.25,3.54-2.67,0-4.4,0-4.4-3.33,0-1.77.7-2.92,2.63-2.92.37,0,2.1.04,2.43,0,.66-.04,1.4-.16,1.6-2.59.04-.33.29-3.82.29-4.28,0-.86-.25-.86-.95-.86h-5.96c-4.23,0-4.97-.78-4.97-5.34v-13.24c0-4.56.74-5.39,4.97-5.39h9.95c.82,0,2.63.04,2.63,2.88s-1.73,2.88-2.63,2.88h-2.96v1.32h1.89c.29,0,1.03,0,1.52.37.41-.53,2.8-2.22,3.25-2.63,1.6-1.56,1.97-1.97,3.95-4.52,1.27-1.69,3.49-1.69,4.07-1.69,2.67,0,3.58,1.03,4.23,1.81,2.67,3.12,2.96,3.45,6.12,6,.99.82,1.36,1.56,1.36,2.67,0,1.89-1.32,3.82-3.17,3.82-.9,0-1.64-.58-2.47-1.32-.62,1.27-1.6,1.36-2.55,1.36h-.53ZM1468.05,94.55c.08.45.25,2.06.25,4.69,0,1.93,0,3-1.32,3-.66,0-1.11-.29-1.11-1.07,0-.66.16-3.82.16-4.56,0-.33-.08-1.89-.04-2.18.16-.62.74-.7.86-.74.66-.08,1.11.29,1.19.86ZM1467.97,76.34h2.26v-1.32h-1.69c-.41,0-.58.29-.58.62v.7ZM1470.23,80.86h-2.26v1.32h2.26v-1.32ZM1467.97,86.7v.74c0,.33.16.62.58.62h1.69v-1.36h-2.26ZM1469.16,97.1c-.04-.37-.25-2.06-.25-2.43,0-.74.41-.95.82-.99.86-.08,1.03.41,1.15.99.12.74.33,2.51.33,4.6,0,.7,0,1.4-.99,1.4-1.07,0-1.07-.78-1.07-1.19v-2.38ZM1473.56,94.84c.16,1.03.37,2.59.37,4.19,0,.49,0,1.07-.95,1.07-.82,0-.82-.21-.9-2.26-.04-.58-.41-3.45-.41-3.54,0-.37.29-.7.86-.7.82,0,.9.37,1.03,1.23ZM1485.81,82.22c-1.03,0-1.81-.16-2.43-1.23-1.15,1.03-1.77,1.44-2.67,1.44-1.03,0-2.1-.66-2.75-1.85-.33.16-.53.29-1.4.29h-1.89v1.32h1.77c.62,0,2.38,0,2.38,2.22s-1.73,2.3-2.38,2.3h-1.77v1.36h.66c1.07,0,1.89,0,2.75.58,1.11.7,1.27,1.85,1.27,3.12,0,2.96-.33,7.44-.74,10.44.25-.53.82-.9,1.32-1.23,2.51-1.52,3.62-2.3,4.85-4.52-4.52,0-4.97-1.32-4.97-5.34v-2.38c0-4.56.78-5.34,5.34-5.34h1.44v-1.15h-.78ZM1485.23,88.8c-.45,0-.66.29-.66.66v.9c0,.41.21.66.66.66h1.15c.08-.49.12-.99.16-2.22h-1.32ZM1491.56,76.71c-.9-1.15-1.15-1.52-1.56-2.18-.16-.25-.29-.37-.53-.37s-.29.04-.58.53c-.53.82-1.4,1.89-1.48,2.01h4.15ZM1492.3,88.8c-.04,1.32-.08,1.77-.12,2.22h1.48c.41,0,.62-.25.62-.66v-.9c0-.37-.21-.66-.62-.66h-1.36Z"/>
    <path class="cls-4" d="M1517.1,70.54c.41-.9,1.15-1.69,3.29-1.69s3.66.78,3.66,2.59c0,.53-.21,1.07-.29,1.36,4.27-.12,6.91-.21,10.36-.37.53-.04,1.07-.04,1.23-.04,2.01,0,3.49.78,3.49,3.25,0,2.1-.95,2.92-2.71,3.17-1.11.16-12.58.53-16.11.58-.78,1.19-.9,1.36-1.52,2.47,2.47-1.19,4.44-1.23,4.89-1.23.99,0,2.43.25,3.66.99,1.36.78,2.06,1.89,2.3,2.3,3.12-1.11,6.41-2.01,7.85-2.01,2.38,0,3.12,2.14,3.12,3.7,0,2.88-2.01,3.25-4.85,3.78-2.3.41-3.95.86-4.65,1.07.12,1.64.16,3.17.16,3.86,0,1.52,0,4.07-3.41,4.07-1.11,0-2.51-.29-3.17-1.56-.33-.62-.33-1.77-.29-3.95-3.29,1.4-5.3,2.63-5.3,4.81,0,1.6,2.8,2.01,6.58,2.01,2.14,0,4.28-.16,8.63-.86.74-.12,1.32-.12,1.36-.12,2.47,0,2.75,2.47,2.75,3.29,0,2.55-1.48,2.96-2.92,3.37-.95.29-3.41.7-7.97.7-6.66,0-9.08-.33-11.63-1.32-2.55-1.03-4.4-3.17-4.4-6.08,0-6.29,6.95-9.95,11.3-12-.7-.45-1.44-.45-1.73-.45-4.73,0-7.89,4.28-10.07,7.19-.82,1.11-1.56,2.14-3.33,2.14-2.01,0-3.45-1.73-3.45-3.54,0-1.32.53-2.06,2.88-4.56,1.6-1.73,2.92-3.21,5.96-7.93-2.88.04-4.81.04-5.55-.16-1.52-.37-2.06-1.89-2.06-3.08,0-2.55,1.73-3.17,3.62-3.21,3.21-.04,5.06-.04,7.32-.12.16-.37.82-2.06.99-2.38Z"/>
    <path class="cls-4" d="M1554.63,99.9c0,2.38-1.97,4.28-4.27,4.28s-4.28-1.93-4.28-4.28,1.93-4.28,4.28-4.28,4.27,1.85,4.27,4.28ZM1552.7,90.56c-.21,1.32-.37,2.71-2.26,2.71s-2.18-1.07-2.43-2.71l-1.6-10.81v-7.44c0-1.4.29-3.62,3.91-3.62,2.88,0,3.99,1.23,3.99,3.62v7.44l-1.6,10.81Z"/>
  </g>
</svg>