<?xml version="1.0" encoding="UTF-8"?>
<svg id="Layer_1" data-name="Layer 1" xmlns="http://www.w3.org/2000/svg" viewBox="0 0 576 297.76">
  <defs>
    <style>
      .cls-1 {
        fill: #fff;
      }

      .cls-2 {
        fill: #0f7e3f;
      }
    </style>
  </defs>
  <g>
    <path class="cls-2" d="M481.37,141.24c0,.58,1.38,1.71,1.83,2.25,1.75,1.77,3.74,3.5,4.72,5.8.73,1.87,1.27,3.87,2.72,5.34,2.47,2.98,6.16,5.13,7.57,8.87,1.55,4.59-.39,9.75-4.48,12.39-3.81,2.91-8.91,1.84-13.37,2.54-2.85.19-3.93,2.4-5.01,4.87-1.98,3.55-1.29,4.84,1.61,7.55,2.27,2.29,4.53,4.59,6.83,6.84,5.41,4.74,6.44,8.6,3.73,15.61-5.43,13.05-21.24,36.61-37.35,34.41-5.42-.49-10.2-4.08-13.8-7.98-.88-.9-1.8-1.66-2.76-1.62-1,.02-1.89.76-2.68,1.4-1.18.98-2.38,1.9-3.64,2.76-4.3,2.96-9.28,5.12-14.34,6.27-1.18.23-2.8.77-1.73,2.14,3.54,3.88,7.45,7.48,11.13,11.27,4.62,4.13,7.19,10.22,3.93,16.09-3.49,6.18-9.65,11.22-16.74,12.45-7.46.94-10.46-8.94-17.27-10.77-14.27-4.92-29.61-4.61-44.51-4.16-30.73.52-61.19,6.71-90.79,14.61-15.18,4.05-30.97,9.91-46.81,6.42-5.04-1.06-9.9-3.17-14.05-6.41-6.38-5.45-11.93-11.8-18-17.59-2.32-2.27-4.69-4.66-6.45-7.39-1.36-2.08-2.44-4.3-3.27-6.69-.29-.76-.56-1.6-1.08-2.21-.85-1.15-2.41-1.11-3.75-1.16-4.36.01-7.84-2.28-10.68-5.47-2.12-2.11-4.23-4.25-6.35-6.34-1.54-1.64-2.87-.99-3.77.89-7.45,13.95-15.64,28.95-31.4,34.77-9.66,3.84-21.54,1.87-29.16-5.65-5.82-5.86-11.73-11.62-17.48-17.55-9.36-9.89-6.98-26.67,3.32-35.13,2.55-2.24,6.05-3.69,9.46-3.06,2.23.41,3.97,2.14,5.6,3.79,8.63,8.27,6.68,9.81,14.92.02.33-.42.68-.91.87-1.4.58-1.29-.21-2.5-1.12-3.43-5.09-5.41-10.8-10.26-15.56-15.96-7.54-10.52-5.61-24.96,1.16-35.36,1.19-1.82.47-3.14-1.09-4.14-4.43-3.09-8.01-7.27-11.88-11.03-6.5-6.78-14.58-13.03-18.03-21.96-11.6-30.32,9.91-73.88,30.02-96.63C96.26,14.97,124.23-7.29,146.9,2.33c3.88,1.61,7.01,4.33,9.89,7.32,3.78,3.77,7.55,7.55,11.33,11.33,2.68,3.05,4.73-.08,7.42-1.18,7.42-3.18,12.98.77,17.84,6.1,3.34,3.34,6.67,6.68,10.01,10.01,1.68,1.73,3.54,3.34,4.97,5.29,1.07,1.46,1.35,3.35,3.22,3.75,1.98.27,4.09.16,5.87,1.17,1.67.81,3.11,2.1,4.44,3.41,4.05,4,7.91,8.12,12.09,11.95,1.62,1.33,3.54,2.25,5.08,3.69,1.58,1.44,3.06,3.03,4.58,4.49.83.82,1.9,1.45,2.76.39,2.4-3.81,3.86-8.55,7.52-11.32.54-.47,1.14-.96,1.47-1.57.54-.88.4-2.11.23-3.16-1.74-9.93,10.91-20.23,19.74-14.05,3.31,2.53,6.03,5.75,9.03,8.63,1.23,1.18,2.5,2.83,4,3.05,1.25.3,2.74-.66,2.09-2.07-.21-.54-.55-1.04-.86-1.55-2.83-4.04-1.82-8.95,1.56-12.24,9.46-9.42,24.46-7.07,36.5-5.91.95.11,1.96.19,2.83-.16,1.06-.39,1.75-1.49,2.32-2.72,1.56-3.08,2.6-7.14,5.79-8.94,4.87-2.7,11.43-2.31,15.72,1.41,4.15,3.82,7.95,8.02,12.04,11.91.53.48,1.1.97,1.74,1.25,3.73,1.55,6.52-3.27,9.71-4.12,2.8-.87,5.41,1.14,7.28,3.07,5.48,5.36,10.81,10.81,16.21,16.22,1.65,1.57,3.55,2.82,5.18,4.4,1.85,1.8,3.55,3.77,5.5,5.5,1.38,1.39,2.86.78,3.96-.63,3.01-3.48,6.55-6.56,10.67-8.75,4.67-2.5,10.04-3.73,15.4-2.85,1.74.22,3.3,1.25,5.04,1.21,2.46-.21,4.56-2.14,7.05-2.36,3.5-.58,7.26.33,10.18,2.47,1.4,1.01,2.56,2.4,3.83,3.52,2,1.88,2.99-.62,4.1-2.46,5.29-9.16,17.61-13.66,27.39-8.99,1.94.91,3.68,2.22,5.22,3.7,4.9,4.84,9.69,9.81,14.65,14.6,3.07,2.84,5.77,6.22,6.73,10.37,2.49,9.37-1.9,20.88-11.55,23.81-2.21,1.05.07,3.43.66,5.24,5.67,12.49,4,28.17-6.16,37.63-6.92,7.02-16.47,9.77-25.98,7.22-1.03-.28-1.75-.45-1.8-.18v.03ZM276.56,174.91c.2-.31-.54-1.49-.72-2.04-1.54-3.42-1.81-6.87-.9-10.28,1.61-6.69,7.92-12.74,15.14-10.67,2.77.75,5.28,3.07,7.21,5.14,4.64,4.84,9.37,9.53,14.07,14.29,1.9,1.77,3.32,3.95,4.7,6.1.84,1.08,2.04,2.58,3.16,3.13,1.01.46,1.66-.82,2.02-1.69,6.02-14.43,12.29-28.83,19.91-42.51.95-2.17-.67-1.65-1.94-.86-1.67,1-3.51,1.73-5.44,2.01-2.79.42-5.93-.17-8.36-1.6-1.43-.55-3.27-3.34-4.77-2.22-.93.79-1.51,2.1-2.31,3.05-3.95,5.11-9.5,9.15-15.8,10.75-9.15,2.47-16.49-1.19-22.6-7.98-3.42-3.95-4.08-2.29-7.76-.09-4.35,2.52-9.46,3.99-14.45,2.61-1.84-.51-3.48-1.46-4.93-2.72-1.58-1.54-2.83-1.9-4.58-.33-2.26,1.68-3.47,2.57-1.04,4.82,5.66,5.31,6.92,9.81,2.6,16.7-1.17,2.01-2.33,3.99-3.44,5.97-.35.62-.85,1.56-.43,2.16.68.79,1.96.75,2.91,1.06,1.38.34,2.68,1.07,3.95.96,2.1-.28,3.93-1.79,6.05-2.17,3.88-.92,8.44-.91,11.88,1.21,2,1.14,4.16,4.06,5.84,5.2h.02ZM418.99,157.31c.5-.39.46-1.64.48-2.43.12-4.97,3.38-9.61,8-11.25,2.63-.93,5.47-1.02,8.24-.98,7.02.32,8.37.34,10.6-6.87.57-1.5,1.26-2.95,2.13-4.3,1-1.39,1.97-3.07.43-4.48-2.23-2.35-4.47.45-6.52,1.55-6.36,3.82-15.53,4.68-21.23-.79-1.47-1.45-2.79-1.68-4.37-.14-6.78,6.29-15.82,8.64-22.86,1.37-1.65-1.59-3.18-3.26-4.8-4.84-.54-.52-1.46-1.39-2.15-.97-.96.67-.81,2.2-.24,3.17,2.73,3.49,6.2,6.37,9.17,9.67,5.45,5.29,5.39,13.6,3.39,20.42-.29,1.03-.62,2.03-.98,3.04-.29.81-.47,1.48-.32,1.76.28.46,1.25-.14,1.74-.37,5.47-2.99,11.1-4.5,17.18-3.39.67.11,1.6.26,2.08-.12l.05-.04ZM130.94,88.06c1.49.01,2.96.5,4.19,1.35,2.63,1.98,2.47.83.8-.81-5.04-4.97-10.01-10.01-15.03-15.01-1.16-1.18-2.39-1.27-3.33.25-7.76,12.74-14.49,26.42-17.31,41.18-.21,1.07-.48,2.89,1.15,2.42,1.94-.69,3.72-2,5.38-3.21,5.91-4.52,10.47-10.36,14.18-16.75,2.37-4.03,4.41-9.56,9.86-9.41h.1ZM201.82,63.08c-.14,0-.29.12-.45.35-.61,1.01-1.18,2.25-1.76,3.3-.63,1.3-1.93,2.86-1.39,4.13.32.76,1,1.33,1.6,1.87.56.49,1.08.68,1.54.06.51-.74.79-1.7,1.17-2.52.45-1.15,1.17-2.32,1.01-3.41-.19-1.1-.84-2.12-1.19-3.16-.15-.35-.31-.58-.48-.61h-.05Z"/>
    <path class="cls-2" d="M277.17,174.48c.06.06.16.21.14.32-.01.1-.06.31-.09.27-.03-.06-.15-.23-.22-.35-.09-.12.07-.21.12-.25h.05Z"/>
    <path class="cls-2" d="M480.48,140.64s-.12-.1-.11-.11c.08-.11.14-.06.19.03-.03.03-.05.05-.08.08Z"/>
    <polygon class="cls-2" points="277.23 175.06 277.28 175.03 277.24 175.07 277.23 175.06"/>
  </g>
  <path class="cls-1" d="M161.6,190.26c2.77-2.91,3.97-6.05,5.67-8.84,5.49-8.98,10.84-18.05,17.14-26.49,5.41-7.25,11.13-14.25,18.31-19.89,5.89-4.63,12.73-6.23,20.08-5.97,1.57.06,3.12.37,4.53,1.12,3.51,1.87,4.38,4.81,2.33,8.15-13.59,22.24-23.82,46.02-32.18,70.64-2.38,7.01-4.03,14.21-4.77,21.6-.34,3.44,0,6.83,1.11,10.05,1.79,5.22,6.22,7.38,11.15,8.37,8.87,1.79,17.83,1.35,26.77.34,13.06-1.48,25.85-4.59,38.88-6.22,12.25-1.54,24.47-3.32,36.76-4.44,16.02-1.47,32.11-2.08,48.2-1.42,11.73.48,23.48,1.01,34.85,4.4,4.22,1.26,8.04,3.38,11.49,6.04,4.37,3.37,4.65,8.01,1.21,12.26-2.81,3.47-6.15,6.14-10.36,7.64-1.84.66-3.73.83-4.9-1.1-4.24-7.05-11.06-9.34-18.61-11.12-15.24-3.61-30.65-2.74-46-2.28-22.68.68-44.89,5.15-66.99,9.91-11.29,2.43-22.32,6-33.53,8.84-7.07,1.79-14.18,3.46-21.61,3.16-7.49-.31-14.38-1.96-20.4-6.73-6-4.76-8.85-11.16-9.77-18.43-1.34-10.56.83-20.74,4.05-30.77,5.44-16.88,13.45-32.62,21.06-48.55,2.28-4.79,4.36-9.67,6.44-14.55.36-.84,1.44-2.06.27-2.72-.92-.51-1.52.88-2.07,1.6-6.62,8.54-12.51,17.57-18.28,26.69-7.82,12.35-15.55,24.75-22.49,37.62-1.49,2.76-2.94,5.54-4.23,8.39-2.33,5.14-10.03,5.83-13.48,4.28-2.5-1.12-2.67-3.28-2.02-5.54,1.38-4.85,2.86-9.67,4.31-14.51,4.72-15.8,7.5-32,10.07-48.24.13-.85.1-1.72-.26-2.77-2.3,3.82-4.79,7.54-6.85,11.48-6.78,12.94-13.65,25.85-20.01,39-4.17,8.62-8.62,17.07-13.56,25.23-4.86,8.03-10.93,15.11-19.7,19.26-7.81,3.7-15.77,3.36-23.05-.83-8.78-5.06-10.46-18.45-4.02-27.03,2.11-2.8,4.22-5.6,7.91-6.41,2.32-.51,3.38.55,3.36,2.91-.03,3.43.04,7.04,3.53,8.92,4.12,2.22,9.69,1.49,12.65-1.67,6.13-6.55,11.91-13.41,16.31-21.28,9.42-16.85,18.69-33.79,28.86-50.21,2.06-3.33,4.41-6.47,6.6-9.72.41-.61,1.21-1.24.63-2.08-.51-.75-1.43-.54-2.18-.45-5.95.7-11.48,2.89-16.91,5.21-6.83,2.93-13.22,6.69-18.63,11.86-4.8,4.59-7.73,10.23-8.4,16.91-.17,1.66.01,3.33.86,4.82,1.2,2.1,2.76,3.44,5.48,3.06,3-.42,4.18,1.17,3.31,4.11-2.07,7.08-9.96,11.11-17.12,8.95-6.92-2.09-9.99-7.38-11.2-13.8-1.96-10.41,2.58-19.05,8.54-27.02,5.12-6.83,12.08-11.38,19.69-15.1,16.01-7.83,32.96-11.4,50.67-11.75,1.94-.04,3.82.32,5.67.82,4.74,1.29,6.22,3.68,5.23,8.54-.76,3.75-1.85,7.44-2.45,11.21-1.75,10.94-4.96,21.53-7.48,32.28-.12.5-.21,1.01-.45,2.24ZM351.5,169.31c5.26-4.83,10.49-9.67,15.2-15.06,5.39-6.17,10.02-12.82,11.47-21.06,1.73-9.88-3.27-15.6-13.03-13.8-2,.37-3.87,1.02-5.64,1.96-5.67,3.02-9.45,7.94-12.7,13.21-7.8,12.61-13.77,26.14-19.72,39.69-4.43,10.09-7.91,20.68-14.9,29.48-2.87,3.62-5.78,7.2-9.66,9.82-.85.57-1.8,1.26-2.89.67-1.19-.64-1.15-1.84-1.11-2.99.04-1.35.65-2.51,1.23-3.68,3.57-7.26,7.16-14.52,10.67-21.81,2.62-5.46,1.18-8.73-4.58-10.65-2.14-.71-4.36-1.22-6.47-2.02-5.53-2.12-6.83-1.31-5.72-9.11.41-2.85-.42-5.75-3.29-7.45-2.51-1.49-4.9-.93-7.1.61-4.23,2.98-5.54,10.04-2.53,14.27,1.48,2.08,1.82,4.04.81,6.33-5.5,12.46-11.68,24.51-20.65,34.92-1.61,1.87-3.44,3.47-5.63,4.6-2.08,1.08-3.05.44-3.19-1.87-.09-1.51.26-2.94.67-4.36,1.8-6.13,4.58-11.84,7.67-17.4,3.09-5.55,5.51-11.45,8.94-16.83.86-1.36,1.32-2.93-.55-4.08-3.7-2.27-11.21-1.02-13.95,2.43-.83,1.04-1.44,1.35-2.47.29-1.87-1.93-4.27-2.49-6.87-2.71-7.31-.61-13.64,1.94-19,6.53-12.49,10.72-19.86,24.67-22.94,40.57-1.71,8.83,2.53,15.32,11.59,15.47,4.48.08,8.77-1.12,12.54-3.81,2.21-1.58,4.17-3.41,6.03-5.37,2.33-2.45,2.36-2.45,3.3.66.41,1.35.95,2.59,1.82,3.72,3.73,4.83,10.4,4.42,15.88,1.05,6.97-4.3,12.02-10.63,16.48-17.23,6.77-10.02,12.68-20.59,16.6-32.14.41-1.2.97-2.33,2.51-2.2,2.17.18,4.33.39,6.33,1.4,1.56.79,2.02,1.7.91,3.28-3.45,4.93-6.42,10.15-9.24,15.46-3.09,5.83-6.49,11.53-7.84,18.13-1.84,8.94,4.9,15.19,13.65,12.55,2.87-.86,5.46-2.29,7.66-4.34,1.51-1.41,2.94-2.89,4.64-4.57-.14,1.4-.31,2.48-.35,3.56-.04,1.48.49,2.73,1.8,3.55,3.58,2.24,11.49.23,13.47-3.49,2.18-4.08,3.73-8.43,5.12-12.83.97-3.07,2.09-6.09,3.49-9,.28-.58.4-1.55,1.28-1.39.79.14.8,1.07.95,1.72.3,1.27.5,2.56.71,3.85.68,4.22,1.65,8.36,3.2,12.36,2.87,7.39,8.14,10.01,15.77,8,7.51-1.98,12.55-7.19,17.2-12.93,1.13-1.39,2.14-2.89,3.83-4.23.2,4.19,1.94,7.55,4.22,10.45,4.89,6.2,11.57,6.03,18.36,4.22,9.08-2.42,16.06-8.07,22.09-15.06.82-.96,1.49-2.08,2.7-2.68.79.99.41,1.98.49,2.9.38,4.02.87,7.95,4.3,10.82,5.56,4.65,12.55,4.8,18.74.33,7.04-5.09,12.34-11.73,16.81-19.07,2.35-3.86,4.64-7.79,5.81-12.22.55-2.08.69-4.59-1.43-5.6-2.43-1.16-3.35,1.41-4.41,3.01-2.21,3.33-3.97,6.97-6.62,10-3.33,3.81-6.69,7.62-11.56,9.55-2.97,1.18-5.48-.87-5.08-4.03.4-3.11,1.2-6.09,2.3-9.07,2.11-5.72,4.43-11.34,6.97-16.88,3.01-6.56,6.19-13.05,9.28-19.58.52-1.09,1.19-1.85,2.52-1.93,3.64-.23,7.29-.89,10.91-.73,2.81.13,4.39-1.36,5.94-3.05,1.45-1.59,1.5-3.93,1.05-5.68-.42-1.63-2.7-1.55-4.36-1.54-2.52.02-5.04.07-7.57.15-1.52.05-2.19-.39-1.43-1.98,1.05-2.2,2.12-4.39,3.07-6.63,1.04-2.47.25-4.76-1.94-6.1-4.46-2.72-10.88-.78-13,3.95-.68,1.51-1.59,2.97-1.95,4.55-1.51,6.53-5.97,8.04-11.94,7.58-2.76-.21-5.58-.22-8.32.42-2.86.66-5.6,4.76-5.18,7.64.37,2.56,2.28,3.45,6.44,3.09,2.6-.23,5.21-.36,7.81-.55,1.72-.13,1.94.62,1.32,2.04-3.82,8.77-7.25,17.74-11.51,26.3-5.49,11.03-13.5,19.8-25.25,24.55-7.24,2.93-12.58-1-12.01-8.76.12-1.6.65-2.36,2.35-2.34,8.38.1,15.41-3.28,21.45-8.8,4.75-4.34,8.91-9.23,9.83-15.89,1.27-9.14-3.82-15.01-13.55-13.78-4.15.53-7.81,2.29-11.23,4.63-10.73,7.31-17.95,17.28-22.36,29.4-.35.97-.86,1.91-1.46,2.75-3.47,4.86-7.72,8.95-12.54,12.46-2.54,1.85-5.4,2.76-8.56,2.7-2.25-.05-4.14-1.07-5.36-2.82-1.49-2.14-2.38-4.62-3.01-7.18-.36-1.45.28-1.76,1.59-1.89,12.45-1.23,21.37-7.82,27.18-18.63,2.27-4.22,2.26-8.81-.87-12.81-2.98-3.81-7.08-4.37-11.57-3.4-2.24.48-4.32,1.29-6.26,2.52-2.07,1.31-4.17,2.57-6.58,4.06.15-1.82,1.21-2.41,1.99-3.13ZM225.79,201.84c3.49-6.31,6.88-12.7,12.74-17.28,1.84-1.44,3.91-2.29,6.16-2.61,3.88-.55,5.61,1.65,4.17,5.3-.99,2.5-2.19,4.92-3.33,7.36-3.34,7.07-6.69,14.14-11.92,20.1-2.15,2.45-4.5,4.6-7.63,5.7-3.51,1.22-5.35-.17-5.24-4.78.63-4.36,2.52-9.2,5.06-13.78ZM336.17,193.52c-.42-.83.51-1.38,1.02-1.92,4.94-5.17,10.45-9.69,16.35-13.7,1.06-.72,2.29-1.26,3.5-1.7,1.04-.37,2.26-.81,3.17.23.96,1.08.95,2.41.46,3.69-2.25,5.89-6.48,9.82-12.37,11.83-3.2,1.09-6.59,1.56-9.98,1.85-.74-.12-1.73.56-2.16-.28ZM351.24,153.01c2.71-5.44,5.62-10.79,8.54-16.12,1.3-2.38,2.98-4.53,5.27-6.04,2.06-1.35,3.29-.61,3.37,1.84.05,1.33-.33,2.57-.81,3.8-3.56,9.02-9.61,16.25-16.45,22.92-1.54,1.5-3.04,3.03-4.88,4.87,1.07-4.35,3.2-7.74,4.96-11.27ZM411.23,180.57c-3.89,5.38-8.88,9.21-15.67,10.21-.78.11-1.59.38-2.1-.47-.43-.71,0-1.36.34-1.94,2.92-5.03,5.93-9.99,10.48-13.79,1.69-1.41,3.44-2.66,5.64-3.07,2.63-.48,3.56.36,3.44,3.35.02,1.94-.88,3.97-2.14,5.71ZM476.3,78.29c1.48,3.99,3.52,7.78,4.49,11.95.8,3.47.9,6.95-1.19,10.07-1.35,2.01-3.27,3.28-5.77,2.63-2.46-.64-3.18-2.74-3.39-5.04-.17-1.97.4-3.81,1.1-5.59.71-1.81.32-3.22-1.14-4.41-1.46-1.19-2.96-.64-4.06.34-4.94,4.42-9.5,9.2-9.27,16.46.25,7.91,4.33,13.95,12.12,14.94,10.1,1.28,19.57-5.14,23.53-12.62,5.08-9.6,4.46-19.62-.58-29.28-2.49-4.77-5.74-9.21-6.79-14.6-.61-3.13-1.07-6.43.83-9.38,1.34-2.08,3.41-2.43,5.53-1.65,1.98.73,2.51,2.55,2.27,4.52-.25,1.99-.84,3.91-1.66,5.75-.91,2.04-1.32,3.99.9,5.56,2.13,1.51,4.03.78,5.7-.66,4.93-4.26,6.35-9.7,5.3-16.01-.8-4.81-3.62-7.81-8.06-9.37-6.29-2.22-14.26.15-18.43,5.37-2.36,2.96-4.06,6.2-4.98,9.94-2.76,11.19-9.56,20.19-16.22,29.24-2.06,2.8-4.35,5.45-7.28,7.42-.85.57-1.72,1.36-2.85.66-1.19-.74-1.15-1.94-.79-3.04,1.01-3.14,1.9-6.36,3.25-9.36,4.3-9.51,8.78-18.94,13.22-28.38.97-2.07.46-3.46-1.55-4.49-4.44-2.29-9.86-.78-12.21,3.45-.2.35-.47.67-.89,1.28-2.18-3.81-5.64-4.92-9.43-4.73-4.69.23-8.94,1.91-12.77,4.76-6.93,5.15-11.2,12.26-15.12,19.69-3.74,7.08-7.37,14.24-12.71,20.31-1.17,1.33-2.56,3.39-4.48,2.23-1.99-1.2-.63-3.38.05-4.95,2.59-5.99,5.38-11.89,8.03-17.86,1.69-3.81,3.37-7.63,3.87-11.86.7-5.9-3.53-10.13-9.48-9.36-3.2.41-5.92,1.83-8.51,3.72-2.53,1.85-4.24,4.49-6.64,6.82-.42-1.18-.73-2.07-1.05-2.96-1.51-4.27-4.48-5.96-8.88-5.23-3.46.57-6.01,2.56-8.42,4.9-.92.89-1.53,2.23-3.09,2.67-.19-2.05.88-4.29-1.87-5.27-3.77-1.35-7.9-.19-10.03,3.19-.97,1.54-1.75,3.21-2.46,4.89-4.58,10.74-9.96,21.07-15.93,31.1-.92,1.54-2.29,2.84-3.54,4.16-.82.87-1.91,1.31-3.08.75-1.05-.51-.93-1.59-.94-2.53-.02-2.37.49-4.65,1.14-6.93,1.07-3.71,2.97-7.05,4.55-10.53,4.89-10.77,9.81-21.52,14.68-32.3.74-1.63,1.73-2.06,3.51-1.74,3.67.67,7.39,1.23,11.11,1.56,5.22.47,10.44.53,15.46-1.43,4.32-1.69,9.14-8,9.21-12.14.02-.96.1-2.01-.96-2.51-1.06-.51-1.58.45-2.16,1.03-1.63,1.65-3.54,2.83-5.74,3.5-7.32,2.26-14.75,2.06-22.21.89-1.75-.27-2.11-1.32-1.32-2.83,1.05-2,2.14-3.98,3.16-6,.97-1.91,1.7-3.92.39-5.94-2.46-3.79-11.68-3.53-12.96.86-.84,2.89-2.54,5.52-3.8,8.29-.77,1.69-1.85,2.51-3.87,2.29-8.2-.92-16.37-2.23-24.68-1.22-5.29.64-10.01,2.21-13.38,6.59-1.71,2.22-.76,4.38.64,6.23,1.28,1.69,3.28,2.68,5.3,1.64,8.22-4.25,16.92-4.17,25.75-3.17,3.21.36,3.57.72,2.33,3.71-4.24,10.2-8.64,20.33-12.93,30.51-2.4,5.69-5.16,11.22-7.3,17.03-1.28,3.49-1.9,7.03-1.75,10.74.14,3.42,1.13,6.43,4.32,8.1,3.21,1.68,6.47,1.18,9.41-.78,2.14-1.42,4.11-3.1,6.28-4.76-.14,3.35.71,4.74,3.73,5.57,4.17,1.14,8.65.26,10.64-5.19,3.94-10.79,8.43-21.38,14.4-31.24,2.34-3.87,5.12-7.48,9-10.01.88-.57,1.95-1.24,2.88-.45,1.02.87.16,1.94-.25,2.85-3.33,7.38-6.73,14.72-10.01,22.11-1.97,4.45-3.97,8.91-5.59,13.5-1.48,4.22.72,7.05,5.12,7.2,4.58.15,6.99-1.39,8.55-5.74,3.07-8.52,6.75-16.8,10.37-25.09,2.81-6.43,7.52-11.44,12.94-15.79.65-.52,1.49-1.28,2.34-.66.92.67.2,1.64-.12,2.37-1.7,3.91-3.52,7.77-5.21,11.68-2.75,6.38-5.9,12.64-6.87,19.65-.53,3.85.72,7.05,3.83,9.42,2.98,2.27,6.2,2.53,9.58.94,2.47-1.16,4.68-2.68,6.53-4.69,1.86-2.02,3.69-4.07,5.71-6.29.29.97.47,1.63.68,2.29,1.82,5.94,5.01,8.19,11.2,7.76,6.08-.43,10.32-4.18,14.42-8.16.42-.41.61-1.27,1.28-1.17.88.13.68,1.07.86,1.7,1.6,5.54,5.78,7.94,11.41,6.63,3.37-.78,5.94-2.81,8.38-5.08,4.55-4.25,8-9.39,11.63-14.38,3.78-5.2,7.53-10.42,11.45-15.86,1.42,1.75,1.68,3.61,2.31,5.3ZM420.06,82.22c2.73-6.91,5.81-13.61,11.06-19.06,2.43-2.52,5.44-3.97,8.85-4.72,1.88-.42,2.76.35,3.17,2.1.39,1.66.37,3.26-.18,4.88-3.13,9.11-7.31,17.69-13.35,25.24-1.89,2.37-4.11,4.55-6.87,5.91-3.2,1.57-5.59-.05-5.6-3.82.29-3.52,1.53-7.04,2.91-10.53ZM282.78,83.09c1.47,6.82,5.08,13.01,4.54,20.16-.18,2.35-1.09,4.38-2.95,5.88-1.16.94-2.51,1.28-3.9.58-1.41-.71-1.89-2.03-1.68-3.52.19-1.37.59-2.71.85-4.07.23-1.25.11-2.5-.98-3.32-1.13-.85-2.34-.47-3.41.22-1.68,1.08-3.3,2.24-4.95,3.37-.75,1.06-1.48,2.14-2.26,3.18-3.37,4.51-3.67,9.31-1.09,14.21,1.92,3.64,9.03,6.72,13.45,6.09,15.18-2.16,24.73-17.39,20.21-32-1.65-5.33-3.74-10.49-5.57-15.74-1.22-3.5-1.52-7.15-1.09-10.81.29-2.45,2.25-4.07,4.42-3.97,2.15.1,3.46,1.63,3.72,4.26.27,2.73-.35,5.15-2.13,7.3-1.17,1.42-1.86,2.96-.36,4.68,1.54,1.77,3.35,1.61,5.23.8,2.19-.95,3.5-2.77,4.61-4.8,4.24-7.71,1.25-17.5-6.3-20.58-5.85-2.39-12.18-.72-16.26,4.16-1.88,2.25-3.16,4.82-4.21,7.48-4.21,10.66-10.7,19.88-17.84,28.72-2.76,3.41-5.86,6.44-9.71,8.61-.88.5-1.88,1.15-2.89.28-.86-.75-.55-1.72-.36-2.68,1.01-5.19,3.35-9.88,5.53-14.62,2.72-5.93,5.71-11.73,8.52-17.61.59-1.22,1.65-2.6.89-3.92-1.25-2.17-2.65-4.41-5.48-4.83-2.81-.41-4.88.89-6.47,3.08-1.75,2.41-2.87,5.17-4.21,7.8-4.28,8.46-8.22,17.1-13.72,24.89-2.02,2.86-4.18,5.61-6.91,7.77-1.69,1.34-3.84,3.51-5.98,1.75-1.93-1.59-.51-4.11.36-6.04,2.25-5,4.74-9.88,7-14.88,1.96-4.35,4.23-8.58,5.07-13.38.48-2.75-.71-4.3-3.13-5.21-2.85-1.08-5.81-1.79-8.74-2.61-4.8-1.33-7.01-1.7-5.51-7.53.06-.25.03-.52.03-.78-.03-2.54-1.68-4.97-4.02-5.9-2.54-1.01-4.62-.06-6.38,1.71-3.18,3.2-3.84,8.83-1.56,12.76.75,1.29,1.52,2.5.8,4.13-4.89,11.07-9.52,22.27-16.66,32.16-2.76,3.83-6.15,7.1-10.14,9.67-1.03.67-2.27,1.75-3.55.61-1.31-1.16-.31-2.44.26-3.56,2.25-4.42,4.61-8.79,6.83-13.22,2.7-5.37,5.19-10.83,6.53-16.74,1.65-7.31-1.59-11.48-8.98-11.36-5.01.08-9.19,2.47-13.09,5.3-2.29,1.66-4.31,3.69-6.85,5.91.43-1.02.62-1.57.88-2.09,3.68-7.1,7.32-14.21,11.07-21.27,4.24-7.99,8.56-15.95,12.9-23.89,1.14-2.08.62-3.62-1.15-4.98-4.07-3.14-9.59-2.39-12.81,2.22-3.73,5.34-6.51,11.26-9.45,17.08-5.1,10.1-9.75,20.4-14.36,30.72-3.19,7.15-6.44,14.27-9.83,21.32-4.45,9.25-8.89,18.51-12.9,27.96-.72,1.69-.46,3.04.93,4.19,3.91,3.22,11.89,1.5,13.92-3.07,5.91-13.32,12.97-26,21.4-37.9,1.77-2.5,3.72-4.81,6.14-6.72.99-.79,2.06-1.28,3.3-1.43,2.96-.38,3.55.37,2.42,3.09-2.01,4.83-4.56,9.4-6.77,14.12-2.73,5.81-5.78,11.52-6.64,18.04-1.12,8.41,4.4,13.64,12.55,11.71,5.96-1.41,10.33-5.31,14.24-9.69,11.05-12.41,19.67-26.31,25.32-41.99,1.44-4,3.03-4.69,7.12-3.19,2.86,1.05,3.29,2.09,1.7,4.67-5.12,8.32-9.28,17.13-13.43,25.95-1.63,3.45-2.37,7.1-2.34,10.88.04,4.63,4.1,8.69,8.67,9.28,6.22.81,11-1.83,15.22-5.9,1.77-1.71,3.23-3.74,4.83-5.62.62.5.42,1.06.46,1.55.45,5.85,4.47,9.15,10.22,8.33,3.63-.52,6.73-2.23,9.61-4.42,4.95-3.76,8.75-8.67,13.16-12.98,4.72-6.52,10.11-12.56,14.15-19.77ZM53.89,115.79c2.06,19.5,17.79,33.22,40.08,26.43,8.92-2.72,16.85-7.44,22.55-15.24,1.74-2.38,3.83-4.5,5.62-6.85,4.56-5.99,8.41-12.38,10.6-19.65.5-1.66.99-3.37.58-5.13-.33-1.39-.83-2.77-2.45-3.07-1.72-.32-2.74.71-3.49,2.14-3.42,6.59-7.42,12.79-12.69,18.09-5.07,5.1-10.86,9-18.03,10.41-9.13,1.79-15.7-1.88-18.04-9.97-1.33-4.59-1.44-9.3-.76-13.97,1.91-12.99,6.85-24.95,13.03-36.4,7.45-13.78,16.45-26.44,28.2-36.94,5.17-4.62,10.71-8.61,18.04-9.11,3.13-.22,5.86,2.3,5.73,5.43-.3,7.45-2.89,14.19-6.88,20.27-2.55,3.89-5.44,8.01-11.06,8.09-1.28.02-2.25.97-2.95,1.99-.99,1.43-1.92,2.91-2.71,4.45-2.23,4.4-1.07,9.09,2.87,12.06,3.75,2.82,10.93,2.72,15-.27,4.67-3.43,8.64-7.59,11.83-12.4,5.6-8.43,8.62-17.62,9.26-27.85.73-11.79-7.06-22.05-18.7-23.86-8.97-1.39-16.95,1.6-24.51,5.53-14.96,7.78-26.43,19.61-36.36,33.02-8.17,11.04-14.7,22.98-19.29,35.95-3.59,10.16-5.71,20.59-5.92,30.85.16,2.35.23,4.18.42,5.99ZM270.02,42.16c-4.87-.57-10.71,5.21-10.25,10.14.37,3.98,3.75,6.89,7.16,6.17,4.52-.95,8.5-5.91,8.4-10.47-.06-3-2.33-5.49-5.31-5.84Z"/>
</svg>