<?xml version="1.0" encoding="UTF-8"?>
<svg id="Layer_1" data-name="Layer 1" xmlns="http://www.w3.org/2000/svg" viewBox="0 0 241.91 168.96">
  <defs>
    <style>
      .cls-1, .cls-2 {
        fill-rule: evenodd;
      }

      .cls-1, .cls-3 {
        fill: #faf4f4;
      }

      .cls-4 {
        fill: #fff;
      }

      .cls-2, .cls-5 {
        fill: #10a256;
      }
    </style>
  </defs>
  <path class="cls-3" d="M118.88,34.95c-.81-.14-1.63-.27-2.44-.43-4.2-.8-7.19-3.86-7.92-8.09-.73-4.25,1.28-8.97,4.84-10.85,2.33-1.22,4.8-1.15,7.13.18,1.07.61,1.66,1.62,1.84,2.85.17,1.13.03,2.23-.17,3.35-.21,1.2-.53,1.62-1.89.99-2.63-1.21-5.26-.08-5.92,2.35-.46,1.68.24,3.03,1.43,4.15,1.84,1.73,4.19,2.2,6.58,2.46,4.04.43,7.94-.21,11.68-1.78,4.09-1.71,6.41-5.19,8.5-8.83,1.66-2.89,2.79-6.02,3.67-9.23.23-.82.29-1.82,1.62-1.6,1.32.22.77,1.22.77,1.88.03,5.15.03,10.3-.04,15.45-.02,1.26.35,1.52,1.54,1.22,1.76-.45,1.8-.39,1.79,1.35-.02,2.19.47,2.06-1.97,2.5-.89.16-1.2.5-1.22,1.45-.17,10.96-.01,21.91,0,32.87,0,1.52.26,2.98.93,4.35.71,1.45,1.93,2.16,3.53,1.98,2.28-.26,4.1-1.24,5.11-3.42.13-.29.17-.65.67-.78.51,1.35.32,2.62-.35,3.86-1.09,2.02-2.9,3.16-4.98,3.87-7.09,2.43-12.3-.86-13.33-8.28-.71-5.13-.49-10.28-.55-15.43-.08-6.56-.26-13.11-.43-19.66-.03-1.27-.47-1.38-1.5-1.11-3.66.96-7.3,1.97-11.22,2.63,1.7.92,3.38,1.5,4.87,2.47,1.39.9,1.43,1.04.51,2.36-1.39,1.99-2.75,4.01-4.15,6-.26.37-.52.98-.98.88-.59-.12-.5-.84-.54-1.31-.12-1.35-.05-2.71-.32-4.06-.62-3.11-2.77-4.56-5.68-3.79-3.15.82-4.88,3.65-3.91,6.49.75,2.22,2.38,3.77,4.14,5.2,3.35,2.72,7.18,4.75,10.56,7.42,2.21,1.74,4.37,3.55,5.73,6.09,3.31,6.16,1.1,14.13-5.1,17.91-5.24,3.2-10.85,3.91-16.7,1.75-6.41-2.38-8.78-9.9-4.87-15.51,1.81-2.59,4.34-3.79,7.46-3.67,3.81.15,7.2,4.53,6.43,8.23-.05.22-.02.5-.31.55-.25.05-.46-.09-.58-.31-.85-1.56-2.19-1.86-3.71-1.28-1.61.61-2.56,1.87-2.75,3.6-.26,2.26.08,4.42,2.2,5.67,2.05,1.21,4.17.8,6.11-.44,4.45-2.83,5.34-8.84,1.96-13.17-2.02-2.59-4.66-4.44-7.45-6.1-2.29-1.37-4.59-2.72-6.76-4.28-7-5-6.08-14.12.55-18.35,1.72-1.09,3.56-1.85,5.54-2.62Z"/>
  <path class="cls-3" d="M44.44,73.91c2.62,6.61,1.09,12.61-3.04,18.11-2.48,3.29-5.8,5.47-9.66,6.85-1.63.6-4.45,1.06-6.15,1.28-6.41.83-12.02-.93-16.6-5.55-4.81-4.86-7.34-10.93-8.2-17.56-2.12-16.26-.04-31.94,7.55-46.64,2.47-4.79,5.7-9.09,10.29-12.04,5.19-3.33,10.96-4.31,16.97-2.87,5.81,1.39,10.09,6.67,10.86,12.95.76,6.15-.87,11.58-4.85,16.32-3.83,4.55-9.46,5.65-14.22,2.77-4.87-2.95-5.69-10.49-1.52-14.21.33-.29.65-.85,1.14-.66.43.16.26.74.32,1.14.26,1.67.64,3.31,1.46,4.81,1.08,1.98,2.66,3.28,5.03,3.25,2.3-.03,3.65-1.43,4.59-3.37,2.28-4.73,1.17-12.73-2.3-16.6-2-2.23-5.06-2.86-8.12-1.67-3.84,1.49-6.53,4.29-8.59,7.75-3.61,6.05-5.19,12.78-6.3,19.63-1.23,7.59-1.45,15.24-.85,22.87.44,5.57,1.12,11.17,3.52,16.35,1.49,3.22,3.42,6.05,7.2,6.84,2.15.45,4.28.21,6.37-.46.44-.14,1.73-.96,2.18-1.07h0c.22-.16.46-.29.68-.44,4.7-3.16,6.94-9.91,5.06-15.31-.84-2.41-2.96-3.86-5.73-3.92-1.08-.02-2.14.1-3.19.37-.33.09-.78.43-1,.03-.13-.25.03-.74.21-1.05,1.01-1.79,2.52-3.04,4.41-3.82,5.37-2.23,10.46.83,12.48,5.92Z"/>
  <path class="cls-3" d="M103.38,105.89c-1.44,6.81-5.76,11.39-11.4,14.96-3.42,2.17-7.11,3.75-11.04,4.74-.87.22-1.26.6-1.25,1.61.02,7.44-.04,14.88-.07,22.33,0,1.61.17,3.19,1.34,4.45.53.56.23.87-.29,1.17-.95.55-2,.79-3.04,1.07-2.8.74-5.6,1.5-8.42,2.19-.49.12-.81.42-1.2.66-.34-.92.02-1.83.03-2.74.92-1.37,1.2-2.95,1.23-4.54.14-6.55.19-13.1.31-19.66.16-9.03.36-18.06.28-27.1-.02-1.84-.1-3.63-1.41-5.15-.74-.86.39-.88.73-1.01,2.53-.97,5.09-1.87,7.64-2.79,1.01-.37,2.01-.77,3.03-1.1.44-.14.98-.28.83.58-.87,4.82-.55,9.71-.71,14.56-.12,3.46-.05,6.93-.12,10.39-.02,1.07.31,1.29,1.32.99,1.98-.6,3.89-1.36,5.66-2.44,3.1-1.88,4.91-4.69,5.7-8.17,1-4.44.86-8.85-.84-13.11-1.87-4.7-5.23-7.62-10.4-7.98-6.77-.48-13.19.87-18.87,4.65-4.45,2.96-7.17,7.2-7.65,12.65-.28,3.17.6,6.09,2.63,8.39,1.4,1.59,3.96,1.55,5.23-.16.81-1.09.92-2.39.33-3.93-.26-.69-.61-1.34-.96-2.1,1.42-.25,2.38.33,3.13,1.39,1.96,2.79,1.45,6.96-1.16,9.5-.01.01-.02.02-.04.03-2.31,2.22-5.66,3.04-8.73,2.13-3.92-1.17-7.29-4.47-7.92-8.8-1.2-8.31,2.26-14.75,8.5-19.74,6.64-5.3,14.58-7.25,22.89-7.79,4.49-.29,8.97-.07,13.39.98,9.2,2.17,13.19,9.92,11.3,18.87Z"/>
  <path class="cls-3" d="M181.76,90.04c-1.04.92-1.54,2.11-1.56,3.47-.05,2.62-.05,5.24-.04,7.87.01,8.2-.11,16.4.09,24.59.19,7.63-2.23,14.44-5.83,20.96-.23.41-.42.85-.71,1.21-.59.73-.39,1.35.3,1.76,4.14,2.47,5.16,11.57,2.74,15.72-.69,1.19-1.64,2.15-2.91,2.77-3.17,1.55-6.79-.18-7.58-3.62-.16-.69.22-.71.67-.69,2.59.12,4.65-.78,5.64-3.28,1.14-2.89.71-5.69-.9-8.33-.54-.89-.88-.25-1.23.16-1.78,2.06-3.61,4.12-5.95,5.53-7.79,4.7-15.98,6.29-24.39,1.86-6.58-3.46-7.24-11.9-1.74-16.93,6.05-5.53,15.95-6.04,22.97-2.84,2.53,1.15,4.73,2.81,6.95,4.61,2.91-5.66,4.14-11.56,3.92-18.02-1.38,1.37-2.73,2.55-4.27,3.46-1.9,1.13-3.84,1.93-6.12,1.22-2.02-.63-3.24-1.98-3.76-3.99-.28-1.09-.33-2.22-.33-3.35-.07-8.24-.16-16.48-.21-24.73-.01-1.77-.22-3.45-1.38-4.89-.28-.35-.54-.76.16-.91,3.59-.81,7.18-1.59,11.14-2.46-2.13,3.58-1.58,7.19-1.58,10.71,0,6.46.09,12.92.16,19.39,0,.75.06,1.5.15,2.24.23,1.91,1.33,2.57,3.15,1.91,1.94-.71,3-2.35,3.05-4.9.05-2.76.02-5.53,0-8.29-.02-5.25-.02-10.49-.07-15.74-.02-1.98-.45-3.82-2.19-5.07-.18-.13-.44-.26-.33-.54.15-.37.53-.34.83-.4,2.94-.58,5.88-1.15,8.82-1.73.94.13,1.81.39,2.34,1.27ZM150.91,157.34c6.66-.18,11.42-3.6,15.11-8.86.42-.6.2-.87-.28-1.23-1.65-1.24-3.42-2.31-5.29-3.16-4.83-2.2-9.73-2.78-14.61-.24-2.67,1.39-4.44,3.63-4.21,6.74.22,3.11,2.29,5.02,5.14,6.05,1.33.48,2.7.76,4.14.7Z"/>
  <path class="cls-3" d="M152.81,65.83c1.82-3.41,1.48-7.14,1.49-10.82.02-7.4,0-14.79.07-22.19.01-1.24-.21-2.29-1.12-3.17-.99-.96-.47-1.35.59-1.62,2.59-.67,5.23-1.06,7.84-1.57.73-.14.91.17.88.81-.03.55,0,1.1,0,1.95,1-1.06,1.82-1.98,2.69-2.85,1.53-1.54,3.38-2.11,5.52-1.67,1.31.27,2.37.86,2.85,2.2.33.93.74.82,1.19.08.81-1.32,1.76-2.52,2.98-3.51,1.98-1.59,4.18-1.93,6.45-.94,2.06.9,2.68,2.81,2.78,4.93.42,8.8.1,17.6.21,26.4.02,1.39-.18,2.82.69,4.07.35.51-.1.66-.47.74-2.52.5-5.05.98-7.58,1.48-1.14.23-1.05-.51-1.05-1.24.02-8.57.03-17.13.03-25.7,0-.98,0-1.97-.14-2.94-.12-.89-.64-1.58-1.6-1.73-.97-.16-1.56.4-2.01,1.2-.38.68-.52,1.39-.52,2.15.02,8.43.02,16.85.04,25.28,0,.99.19,1.98.58,2.87.32.74.16.99-.56,1.15-2.46.57-4.92,1.15-7.37,1.75-.93.23-1.17-.04-.9-.97.5-1.77.53-3.6.54-5.43.03-7.91.06-15.82.09-23.73,0-.33,0-.66,0-.98,0-.85-.22-1.63-1.08-1.95-.84-.31-1.44.27-1.95.82-1.08,1.16-1.41,2.61-1.43,4.15-.02,2.39-.05,4.77-.05,7.16,0,5.71.03,11.42.04,17.13,0,1.33.17,2.61.72,3.83.19.41.51.89-.29,1.05-3.25.66-6.51,1.33-9.76,1.99-.07.01-.16-.07-.38-.17Z"/>
  <path class="cls-3" d="M238.33,41.44c-2.3-2.9-4.75-5.65-7.33-8.3-2.34-2.4-4.83-4.72-6.07-7.97-.8-2.12-.89-4.23.25-6.23,1.42-2.5,4.09-2.49,5.57-.02.93,1.55,1.37,3.26,1.74,5.01.17.79.26,1.61.89,2.53,1.72-3.81,3.69-7.18,6.12-10.28.43-.54-.02-.74-.4-.92-4.35-2.12-8.86-3.06-13.74-2.26-7.1,1.16-10.64,7.6-10.93,12.38-.31,5.06,2.01,8.9,5.34,12.34,2.99,3.09,6.52,5.62,9.21,9.03,1.72,2.17,3.1,4.48,3.17,7.33.17,6.2-5.48,11.9-12.18,12.38-.6.04-1.54-.37-1.74.37-.14.53.73.97,1.18,1.42.42.42,1.1.83.71,1.47-.43.73-.42,1.51-.63,2.26-.78,2.72-2.2,4.97-4.39,6.41.68.67,1.09,1.77,1.09,2.71,0,.24-.03.48-.07.73.82-.33,1.6-.76,2.34-1.34,2.41-1.89,3.76-4.36,4.07-7.4,0-.84-.46-1.51-.87-2.19-.47-.79-.28-.97.62-1,3.71-.15,7.16-1.2,10.44-2.94,8.93-4.74,12.41-16.92,5.6-25.49Z"/>
  <path class="cls-3" d="M56.18,33.44v20.21c.82-.33.93-.97,1.21-1.44,1.87-3.04,4.29-5.2,8.13-5.07,2.85.1,4.41,1.56,4.6,4.42.16,2.38.2,4.77.22,7.16.05,5.99.06,11.99.07,17.98,0,1.7.26,3.34,1.08,4.86.51.94.66,1.56-.81,1.83-2.91.53-5.78,1.29-8.68,1.94-.26.06-.55,0-.96,0,1.38-2.4,1.46-4.96,1.49-7.52.07-6.18.12-12.36.19-18.54.01-1.23-.15-2.42-.54-3.59-.34-1-.96-1.72-2.05-1.83-1.09-.1-1.9.52-2.41,1.4-.65,1.13-1.06,2.37-1.16,3.7-.52,7.16-.16,14.32-.22,21.48-.02,1.7.19,3.34.97,4.87.3.58.17.83-.49.91-2.91.37-5.76,1.05-8.62,1.67-.82.18-1.31,0-.9-1.01.73-1.8.83-3.71.82-5.63-.02-5.81-.04-11.61-.05-17.42-.01-6.72-.02-13.44,0-20.16,0-1.14-.07-2.25-.6-3.28-.33-.64-.17-1.1.41-1.4,2.85-1.49,5.67-3.04,8.28-5.56Z"/>
  <path class="cls-3" d="M214.41,52.06c.45-3.04,2.34-5.12,5.38-5.96,2.15-.59,4.42.63,5.41,2.58,1,1.95.81,4.19.22,6.11-1.3,4.25-4.35,6.97-8.75,6.84-5.36-.15-8.74-2.86-11.84-6.85-.53-.69-.49-1.99-1.47-2.11-.98-.12-1.21,1.24-1.84,1.8-2.02,1.79-4.21,2.85-7,2.5-2.3-.29-3.7-1.74-4.08-4.11-1.08-6.82,1.03-12.42,6.01-17.22,1.34-1.29,2.95-2.19,4.43-3.48,2.31-2.02,3.12-5.07,2-7.98-.35-.92-1.07-1.28-1.95-1.4-.88-.12-1.49.41-1.94,1.09-.83,1.27-.94,2.9-.97,4.28-.04,2-.41,2.76-2.35,3.14-1.86.36-3.6-.36-4.21-2.25-1.26-3.88.2-7.32,3.8-9.22,2.39-1.27,5-1.94,7.71-1.95,4.46-.01,7.68,2.65,8.09,7.15.66,7.22.32,14.46.54,21.66.06,1.93-.05,4.02.45,5.81.88,3.14,3.29,5.47,6.59,4.66,2.62-.64,3.06-3.61,1.73-5.73-.83-1.32-2.46-1.61-3.87-.76-.68.41-1.3,1.12-2.1,1.36ZM203.19,34.4c-4.43,3.63-6.66,9.78-4.77,15.19.68,1.96,2.28,1.69,3.64.78.71-.47,1.1-1.36,1.12-2.28.06-2.66.06-5.37.06-8.07,0-1.84-.04-3.79-.06-5.62Z"/>
  <path class="cls-3" d="M110,142.11c-.9,1.36-1.28,2.86-2.32,4.06-3.32,3.84-8.5,3.16-10.41-1.52-2.24-5.47-.82-10.37,2.89-14.71,1.88-2.19,4.29-3.77,6.78-5.16,3.41-1.9,3.57-5.21,2.48-8.13-.37-1-1.1-1.66-2.23-1.6-1.09.05-1.65.83-1.95,1.76-.48,1.53-.49,3.14-.6,4.72-.12,1.73-.61,2.35-2.23,2.64-1.83.33-3.38-.29-3.91-1.7-.74-1.99-.66-3.96.53-5.78,1.25-1.91,2.86-3.47,4.78-4.69,3.24-2.07,7.7-1.75,10.64.71,1.22,1.02,1.8,2.35,1.96,3.91.58,5.55.32,11.13.5,16.7.08,2.66-.13,5.34.25,7.99.05.32.12.64.2.96.65,2.65.65,2.64-2.09,3.23-1.37.3-2.74.6-4.09.98-.85.24-1.22.08-1.18-.87.05-1.17.01-2.34.01-3.51ZM109.66,126.66c-2.47,1.84-4.24,3.85-5.16,6.48-.84,2.43-1.01,4.94-.4,7.46.21.87.56,1.78,1.59,1.93,1.12.16,1.86-.54,2.34-1.46.32-.61.56-1.29.7-1.97.84-4,.87-8.06.93-12.44Z"/>
  <path class="cls-3" d="M156.57,127.55c.35,1.51-.55,2.53-1.16,3.42-1.79,2.64-4.1,4.78-7.45,5.27-3.37.49-5.66-1.45-5.7-4.88-.06-4.96-.04-9.92-.04-14.88,0-4.87-.03-9.74.02-14.6.01-1.14-.3-1.47-1.43-1.29-2.68.43-2.68.39-2.57-2.45.02-.58,0-1.21.68-1.39,3.45-.92,4.84-3.78,6.16-6.63.8-1.73,1.48-3.55,1.98-5.39.38-1.42,1.41-1.62,2.51-1.78.88-.12.6.67.61,1.09.04,3.14.1,6.27.03,9.41-.03,1.26.27,1.79,1.55,1.37,1.31-.43,1.53.16,1.56,1.37.04,1.49-.12,2.58-1.93,2.63-.97.03-.88.78-.87,1.43.05,6.04.11,12.07.15,18.11.02,2.95-.03,5.9.02,8.85.02,1.29-.05,2.79,1.39,3.42,1.42.62,2.16-.72,3.05-1.47.49-.42.87-.97,1.43-1.61Z"/>
  <path class="cls-3" d="M83.07,48.57c.45-.91.88-1.82,1.34-2.72,1.43-2.79,3.91-4.27,6.67-4,1.84.18,3.1,1.32,3.21,3.12.19,2.89-.09,5.81.48,8.68.09.47-.23.67-.6.81-1.43.53-2.68,1.32-3.72,2.44-.32.34-.62.45-1.11.22-1.67-.8-2.47-2.36-2.06-4.17.15-.64.39-1.26.48-1.9.18-1.19-.47-1.8-1.65-1.59-1.16.21-1.9.96-2.36,2-.57,1.26-.76,2.59-.76,3.97.01,6.32,0,12.64-.01,18.97,0,1.75.25,3.45,1.11,4.99.38.68.19,1-.5,1.17-2.99.7-5.99,1.42-8.98,2.11-.47.11-1.17.39-.87-.61,1.19-4,.97-8.12,1-12.22.05-5.81,0-11.61-.02-17.42,0-2.01.03-4.05-1.36-5.74-.4-.49-.14-.75.37-.89,2.66-.74,5.32-1.46,7.98-2.22.81-.23,1.01.17,1.01.85,0,1.35,0,2.71,0,4.06.12.03.24.07.36.1Z"/>
  <path class="cls-3" d="M128.04,110.08c.92-1.77,1.52-3.5,2.68-4.93,1.31-1.61,2.92-2.6,5.02-2.7,2.24-.11,3.61,1.02,3.69,3.27.09,2.48,0,4.96,0,7.44,0,.54-.19.82-.72,1.03-.9.37-1.79.79-2.56,1.43-.5.41-.88,1.33-1.7.9-.99-.52-1.96-1.18-2.09-2.46-.09-.85.02-1.67.32-2.48.21-.57.4-1.26-.19-1.67-.62-.43-1.16.08-1.63.44-1.51,1.16-2.2,2.78-2.32,4.62-.44,7.16-.26,14.32-.25,21.48,0,1.28.55,2.46,1.12,3.59.25.49.34.83-.35,1.04-2.86.89-5.7,1.83-8.56,2.72-.45.14-.92.3-.79-.58.74-5.21.45-10.47.52-15.7.07-4.96,0-9.93.04-14.89.01-1.91-.29-3.65-1.99-4.83-.7-.49-.33-.76.21-.9,2.81-.71,5.63-1.38,8.45-2.07.72-.18.74.27.78.78.11,1.42-.05,2.86.31,4.46Z"/>
  <path class="cls-3" d="M95.88,77.79c1.96-8.82.65-17.77,1.08-26.65.09-1.87.02-3.74-.03-5.61-.04-1.31-.18-2.63-1.14-3.66-.58-.61-.24-.93.35-1.08,2.9-.75,5.8-1.46,8.7-2.2.77-.2.89.24.86.84-.07,1.59-.18,3.18-.19,4.76-.03,8.65.08,17.31-.19,25.96-.05,1.78.24,3.45,1.3,4.92.41.57.24.77-.4.89-3.39.65-6.78,1.34-10.17,2.02-.06-.06-.11-.13-.17-.18Z"/>
  <path class="cls-3" d="M95.79,30.6c0-3.68,3.41-6.36,6.98-5.47,1.19.3,1.95,1.01,2.27,2.22.84,3.21-1.39,6.75-4.64,7.33-2.65.47-4.6-1.26-4.61-4.08Z"/>
  <path class="cls-5" d="M211.19,82.71c.08.06.16.12.24.18-.21.12-.21-.05-.24-.18Z"/>
  <path class="cls-3" d="M96.06,77.98c-.08,0-.17,0-.25,0,.03-.06.05-.12.08-.18.06.06.12.12.17.18Z"/>
  <path class="cls-5" d="M195.88,155.8s-.03.06-.05.08c-.04-.03-.08-.06-.13-.09.03-.03.06-.08.09-.08.03,0,.06.05.08.08Z"/>
  <g>
    <path class="cls-3" d="M187.1,132.08c-.83-1.73-.94-3.58.09-5.32.38-.65.61-1.41,1.25-1.89.1.04.19.08.29.12,3.27,1.65,6.62,1.85,10.04.51,1.8-.7,3.27-1.87,4.58-3.25.11.26-.07.45-.19.65-1.86,3.18-3.71,6.37-5.58,9.54-1.66,2.07-2.97,2.87-5.63,2.96-2.24-.2-3.91-1.34-4.86-3.32Z"/>
    <path class="cls-4" d="M192.68,135.53s.11-.08.12-.05c.01.03-.07.08-.11.06h-.01Z"/>
    <path class="cls-4" d="M195.04,134.92s.11-.08.12-.05c.01.03-.07.08-.11.06h-.01Z"/>
    <path class="cls-5" d="M210.4,87.35c-.18-.27.06-.44.17-.62.82-1.42,1.64-2.85,2.49-4.25.54-.9,1.02-1.82,1.12-2.89,2.74-.05,5.21-.88,7.38-2.57,1.31-1.02,2.27-2.33,3.15-3.71,1.53,3.65,1.71,7.37.52,11.15-.1.31-.22.59-.42.84-.1.08-.21.15-.3.23-2.12,1.99-4.63,3.11-7.55,3.3-2.34.15-4.5-.43-6.56-1.48Z"/>
    <path class="cls-5" d="M203.36,122.26c-1.32,1.38-2.78,2.54-4.58,3.25-3.43,1.34-6.77,1.14-10.04-.51-.09-.05-.19-.08-.29-.12-.14-.18-.01-.32.07-.46,1.72-2.94,3.44-5.87,5.16-8.81.05-.09.14-.15.22-.22.16.1.31.22.48.3,4.64,2.38,10.29,1.45,13.93-2.29.17-.18.29-.43.57-.48.05.16-.04.29-.12.41-1.48,2.53-2.96,5.06-4.45,7.58-.28.47-.63.9-.94,1.35Z"/>
    <path class="cls-5" d="M199.42,106.11c-.14-.18-.02-.32.07-.46,1.72-2.94,3.44-5.87,5.16-8.81.05-.09.14-.15.22-.22.16.1.31.22.48.3,4.63,2.38,10.29,1.45,13.93-2.29.17-.18.29-.43.57-.48.05.16-.04.29-.12.41-1.48,2.53-2.96,5.06-4.45,7.58-.28.47-.63.9-.94,1.36-.11.1-.22.2-.32.3-2.18,2.29-4.83,3.58-8,3.79-2.35.15-4.52-.42-6.58-1.48Z"/>
    <path class="cls-3" d="M199.42,106.11c2.07,1.06,4.24,1.63,6.58,1.48,3.17-.21,5.82-1.49,8-3.79.1-.11.22-.2.32-.3.11.26-.07.45-.19.65-1.52,2.6-3.03,5.2-4.56,7.79-.2.34-.48.65-.72.97-.28.06-.4.31-.57.48-3.64,3.74-9.29,4.68-13.93,2.29-.17-.09-.32-.2-.48-.3.23-.6.6-1.12.92-1.67,1.37-2.35,2.74-4.7,4.12-7.05.13-.21.2-.48.49-.56Z"/>
    <path class="cls-3" d="M219.85,94.15c-.28.06-.4.31-.57.48-3.64,3.74-9.29,4.67-13.93,2.29-.17-.09-.32-.2-.48-.3.33-.59.65-1.19.99-1.78,1.35-2.31,2.7-4.63,4.06-6.93.13-.21.2-.48.49-.56,2.06,1.05,4.23,1.63,6.56,1.48,2.92-.19,5.42-1.3,7.55-3.3.09-.09.2-.16.3-.23-.04.75-.46,1.36-.8,1.98-1.07,1.91-2.19,3.8-3.31,5.68-.25.42-.56.79-.85,1.19Z"/>
    <path class="cls-5" d="M212.19,76.08c-1.28-.57-2.56-.67-3.85-.06-.07.03-.16,0-.25-.01-.58-1.16-1.42-2.12-2.4-2.95-2.33-1.99-5-3.02-8.09-2.89-.11-.18.03-.28.12-.38,3.67-4.47,8.39-6.44,14.15-5.96.06,0,.12.04.18.07.02.06.03.13.06.18,2.24,3.99,2.24,7.99.08,12.01Z"/>
    <path class="cls-3" d="M212.19,76.08c2.16-4.02,2.16-8.02-.08-12.01-.03-.05-.04-.12-.06-.18,1.75.08,3.37.66,4.94,1.37,1.91.86,3.5,2.13,4.9,3.67,1.18,1.3,2.11,2.76,2.8,4.37-.88,1.38-1.84,2.69-3.15,3.71-2.17,1.69-4.64,2.52-7.38,2.57-.06-1.51-.8-2.63-1.98-3.51Z"/>
    <path class="cls-3" d="M197.6,70.16c3.09-.13,5.77.91,8.09,2.89.98.83,1.82,1.79,2.4,2.95-1.17,1.06-1.82,2.49-2.69,3.77-1.57,2.3-4.71,3.02-7.29,1.84-3.27-1.49-4.33-5.47-2.58-8.42.43-.73.86-1.47,1.29-2.21.2-.33.42-.64.77-.83Z"/>
  </g>
  <g>
    <g>
      <path class="cls-5" d="M41,135.06c-.19,3.08-1,6.19-2,8.89-.01,0-.01.02-.01.03-1.03,2.76-2.52,5.26-4.07,7.75-.22.36-.44.71-.67,1.07-.89,1.42-1.68,2.91-2.71,4.24-.1.13-.16.18-.21.19h0c-.05,0-.12-.06-.22-.19-1.04-1.32-1.84-2.8-2.75-4.22-1.81-2.83-3.62-5.64-4.82-8.8-.86-2.23-1.58-4.73-1.92-7.27-.43-3.12-.3-6.3.85-9.11.04-.08.07-.16.1-.24.89-2.01,2.43-3.62,3.9-5.22.09-.09.17-.19.25-.28,1.08-1.19,2.22-2.23,2.7-3.77-.05.02-.1.05-.16.08-.1.05-.26.09-.35.02-.12-.09-.04-.29.01-.41.24-.45.35-.96.47-1.46.11-.42.21-.86.24-1.3.01-.14.01-.28.07-.41s.19-.12.31-.14c.14-.02.28-.03.41-.04.02.03.03.06.05.09.08.12.15.25.24.38.09.14.19.28.31.4h0s.01.01.01.02c.07.06.15.05.24-.01.01,0,.01-.01.02-.02h.01c.17-.14.38-.46.55-.8.01-.02.02-.03.03-.05.17.01.33.03.5.05.11.02.24.04.3.15.04.07.04.16.04.24.06,1.04.45,2.03.84,2.98.05.13.08.33-.12.34-.17.01-.33-.07-.46-.16.53,1.62,1.51,2.58,2.63,3.78,1.62,1.75,3.36,3.47,4.3,5.7.97,2.32,1.25,4.9,1.09,7.5Z"/>
      <path class="cls-5" d="M31.29,118.33s-.01.02-.02.02c-.09.06-.17.07-.24.01t-.01-.01h0c.1-.02.19-.02.28-.02Z"/>
      <g>
        <path class="cls-5" d="M32.37,110.2c-.19-.24-.45-.42-.75-.5-.05-.02-.1-.03-.16-.03-.2-.04-.4-.03-.6.03-.08,0-.15.03-.23.06-1.36.52-1.18,2.31-.82,3.35.17.51.35.92.59,1.36.02.03.03.06.05.09.08.12.15.25.24.38.09.14.19.28.31.4h0s.01.01.01.02c.07.06.15.05.24-.01.01,0,.01-.01.02-.02h.01c.17-.14.38-.46.55-.8.01-.02.02-.03.03-.05.22-.42.4-.87.44-.96.41-1.01.82-2.37.06-3.32ZM32.27,112.81c-.18.56-.4,1.13-.7,1.65-.01.02-.03.05-.04.07-.1.18-.22.35-.35.52-.01,0-.22-.29-.37-.51-.02-.03-.04-.06-.06-.09-.06-.08-.09-.14-.11-.15-.25-.45-.43-.95-.58-1.44-.14-.5-.25-1.03-.19-1.55.07-.57.4-1.17.99-1.33h.01c.18-.06.4-.07.6-.03.24.04.47.15.61.34.56.72.44,1.71.19,2.52Z"/>
        <path class="cls-5" d="M31.87,114.48s-.02.03-.03.05c-.17.34-.38.66-.55.8h-.01s-.01.02-.02.02c-.09.06-.17.07-.24.01t-.01-.01h0c-.12-.13-.22-.27-.31-.41-.09-.13-.16-.26-.24-.38-.02-.03-.03-.06-.05-.09.12-.01.23-.02.34-.02.28-.01.55-.01.82,0,.1,0,.21.01.31.02Z"/>
      </g>
      <path class="cls-5" d="M31.46,92.28c0-.39-.6-.39-.6,0v17.65c0,.39.6.39.6,0v-17.65Z"/>
    </g>
    <g>
      <path class="cls-5" d="M59.24,143.09s.04.04.06.06c0,0,0,0,0,0,.08.06.17.06.27,0,.03-.02.06-.04.1-.07-.15,0-.29,0-.44,0Z"/>
      <g>
        <path class="cls-5" d="M60.84,131.86c-.21-.24-.51-.42-.85-.51-.08-.02-.17-.04-.25-.04-.17-.02-.34-.01-.51.02-.12.02-.24.05-.36.09-1.54.54-1.34,2.37-.93,3.45.21.55.42,1,.73,1.48.08.13.17.26.27.4.08.12.19.25.3.35.02.03.04.04.06.06,0,0,0,0,0,0,.08.06.17.06.27,0,.03-.02.06-.04.1-.07.19-.16.39-.46.57-.77h0c.26-.46.48-.95.53-1.05.46-1.03.92-2.43.06-3.41ZM60.72,134.54c-.21.61-.47,1.21-.83,1.77,0,0,0,0,0,0-.12.18-.25.36-.4.53-.01,0-.25-.29-.42-.52h0c-.1-.12-.17-.23-.19-.25-.29-.46-.49-.97-.66-1.48-.17-.51-.28-1.06-.21-1.6.08-.58.45-1.2,1.11-1.36.04,0,.07-.02.11-.03.16-.03.34-.04.51-.01.3.03.59.15.76.36.63.74.5,1.76.21,2.59Z"/>
        <path class="cls-5" d="M60.25,136.31h0c-.18.32-.39.62-.57.78-.03.03-.06.05-.1.07-.1.06-.19.07-.27,0,0,0,0,0,0,0-.02-.02-.04-.04-.06-.06-.11-.11-.21-.23-.3-.35-.1-.13-.19-.26-.27-.4.13,0,.26-.01.4-.01.27-.01.55-.02.82-.02.12,0,.24,0,.36,0Z"/>
      </g>
      <path class="cls-5" d="M69.67,158.15c-2.49,3.81-7.3,5.77-11.76,5.22-5.4-.67-9.67-5.26-10.41-10.58-.77-5.55,2.75-10.76,8.02-12.49.76-.25,1.68-.3,2.1-.64,0,0-.01,0-.02,0-.1.01-.19-.03-.19-.13-.04-.47-.05-.94-.06-1.4-.01-.52-.05-1.06.02-1.58,0-.08.06-.13.15-.14.38-.02.76-.05,1.15-.06.08.13.17.26.27.4.08.12.19.25.3.35.02.03.04.04.06.06,0,0,0,0,0,0,.08.06.17.06.27,0,.03-.02.06-.04.1-.07.19-.16.39-.46.57-.77h0c.35,0,.71.03,1.06.06.12.01.28,0,.35.12.05.08.05.16.05.25,0,.92.03,1.84-.05,2.76,0,.08-.07.13-.15.13.48.39,1.32.36,2.09.62,2.1.7,3.99,1.87,5.39,3.59,3.26,3.99,3.48,10.02.67,14.31Z"/>
      <path class="cls-5" d="M59.72,116.6c0-.33-.51-.33-.51,0,0,4.18.02,10.56.02,15.04,0,.33.51.33.51,0,0-4.4-.02-10.69-.02-15.04Z"/>
    </g>
  </g>
  <g>
    <path class="cls-2" d="M168.93,69.86c-1.27.81-1.36,3.27-.14,4.03,1.37.84,3.18-.16,3.67-2,.14-.53.13-.73-.06-1.17-.29-.67-.79-.93-2.03-1.04-.84-.07-1.07-.04-1.44.19ZM170.78,71.16c.44.49-.13,1.37-.8,1.27-.41-.06-.51-.7-.19-1.2.27-.41.66-.44.98-.07Z"/>
    <path class="cls-1" d="M100.81,161.2c1.33.71,3.51-.42,3.58-1.84.06-1.61-1.69-2.7-3.54-2.22-.53.13-.7.24-.99.62-.45.58-.43,1.14.08,2.28.35.77.49.95.87,1.17ZM101.03,158.95c.21-.62,1.26-.56,1.5.08.15.39-.36.79-.95.75-.49-.03-.71-.36-.54-.82Z"/>
    <path class="cls-2" d="M188.78,141.68c-.36.14-.36.17-.77,2.07-.81,3.83-2.43,6.24-5.27,7.94-1.07.63-1.28.88-1.28,1.47,0,.49.36.69,2,1.14,2.61.73,3.53,1.84,4.27,5.17.29,1.3.59,1.77,1.08,1.77s.8-.47.93-1.53c.24-1.84.93-3.4,2.03-4.57.76-.79,1.36-1.17,2.68-1.74,2.21-.94,2.13-1.6-.37-2.87-2.57-1.28-3.13-2.33-3.93-7.21-.13-.83-.27-1.23-.5-1.46-.36-.36-.41-.37-.87-.19Z"/>
    <path class="cls-2" d="M65.56.23c-.2.19-.4.77-.67,2.04-.66,3.07-1.71,5.3-3.65,7.64-1.1,1.33-2.7,2.7-3.77,3.25-.31.16-1.08.5-1.71.76-1.34.56-1.63.86-1.26,1.33.2.23.57.36,1.51.53,3.08.53,4.9,1.8,6.17,4.34.63,1.24.96,2.36,1.5,5.07.24,1.26.54,2.43.66,2.6.24.37.93.44,1.18.13.1-.11.3-1.18.46-2.37.33-2.56.76-3.95,1.67-5.41,1.64-2.65,4.13-4.11,7.59-4.44,1.44-.14,1.8-.34,1.63-.91-.14-.54-.74-.91-2.18-1.37-4.11-1.31-5.92-3.81-7.29-10.06-.56-2.54-.67-2.88-1.04-3.14-.39-.27-.43-.27-.79.03Z"/>
    <path class="cls-1" d="M50.67,8.62c-.34.34-.37.81-.06,1.26.29.4.79.4,1.17-.01.83-.87-.27-2.08-1.11-1.24Z"/>
    <path class="cls-1" d="M158.61,14.42c-.31.44-.29.91.06,1.26.54.54,1.43.19,1.43-.59,0-.84-1.04-1.31-1.48-.67Z"/>
    <path class="cls-1" d="M85.33,23.44c-.31.44-.29.91.06,1.26.54.54,1.43.19,1.43-.59,0-.84-1.04-1.31-1.48-.67Z"/>
    <path class="cls-1" d="M181.09,75.51c-.31.44-.29.91.06,1.26.54.54,1.43.19,1.43-.59,0-.84-1.04-1.31-1.48-.67Z"/>
    <path class="cls-1" d="M202.21,136.51c-.51.49-.51,1.31,0,1.84,1,1,2.73-.06,2.2-1.34-.37-.88-1.5-1.14-2.2-.5Z"/>
    <path class="cls-1" d="M208.06,150.17c-.31.44-.29.91.06,1.26.54.54,1.43.19,1.43-.59,0-.84-1.04-1.31-1.48-.67Z"/>
    <path class="cls-1" d="M192.59,4.78c-.17.69.28,1.38,1,1.55,1.38.3,2.26-1.52,1.12-2.32-.79-.54-1.88-.15-2.12.77Z"/>
    <path class="cls-1" d="M209.46,11.05c-.02.54.25.92.73,1.03.75.16,1.3-.62.88-1.26-.46-.71-1.59-.54-1.61.24Z"/>
    <path class="cls-2" d="M129.49,12.97c-1.44.86-1.38,2.8.11,3.58.6.31,1.7.26,2.26-.13.8-.53,1.07-1.03,1.07-1.91,0-.69-.06-.83-.4-1.13-.21-.19-.56-.34-.73-.34-.19,0-.41-.1-.51-.21-.27-.33-1.14-.26-1.8.14ZM131.02,14.19c.14.09.27.24.27.37,0,.26-.61.56-.91.44-.27-.1-.3-.54-.06-.79.21-.21.34-.21.7-.03Z"/>
    <path class="cls-2" d="M114.96,89.17c-.1.19-.24.56-.29.84-.23,1.28-2.06,3.33-3.77,4.18-1.18.6-1.44.94-1.11,1.44.16.24.41.37.88.44,1.16.17,2.95,1.6,3.43,2.7.1.26.26.86.33,1.36.16.98.46,1.43.96,1.43.43,0,.71-.46.84-1.36.13-.94.47-1.57,1.37-2.56.79-.86,1.64-1.44,2.47-1.67.61-.17,1.23-.87,1.13-1.27-.07-.3-.71-.71-1.07-.71-.44,0-1.94-.86-2.43-1.4-.66-.73-.84-1.1-1.26-2.46-.17-.59-.39-1.11-.49-1.17-.31-.21-.8-.11-1,.2Z"/>
    <path class="cls-1" d="M219.39,117.14c-.1.19-.24.56-.29.84-.23,1.28-2.06,3.33-3.77,4.18-1.18.6-1.44.94-1.11,1.44.16.24.41.37.88.44,1.16.17,2.95,1.6,3.43,2.7.1.26.26.86.33,1.36.16.98.46,1.43.96,1.43.43,0,.71-.46.84-1.36.13-.94.47-1.57,1.37-2.56.79-.86,1.64-1.44,2.47-1.67.61-.17,1.23-.87,1.13-1.27-.07-.3-.71-.71-1.07-.71-.44,0-1.94-.86-2.43-1.4-.66-.73-.84-1.1-1.26-2.46-.17-.59-.39-1.11-.49-1.17-.31-.21-.8-.11-1,.2Z"/>
    <path class="cls-2" d="M173.86,5.38c-.1.19-.24.56-.29.84-.23,1.28-2.06,3.33-3.77,4.18-1.18.6-1.44.94-1.11,1.44.16.24.41.37.88.44,1.16.17,2.95,1.6,3.43,2.7.1.26.26.86.33,1.36.16.98.46,1.43.96,1.43.43,0,.71-.46.84-1.36.13-.94.47-1.57,1.37-2.56.79-.86,1.64-1.44,2.47-1.67.61-.17,1.23-.87,1.13-1.27-.07-.3-.71-.71-1.07-.71-.44,0-1.94-.86-2.43-1.4-.66-.73-.84-1.1-1.26-2.46-.17-.59-.39-1.11-.49-1.17-.31-.21-.8-.11-1,.2Z"/>
    <path class="cls-2" d="M52.52,27.41c-.94.36-1.18,1.6-.44,2.33,1.07,1.07,2.51.39,2.24-1.07-.17-.9-1.08-1.54-1.8-1.26Z"/>
    <path class="cls-2" d="M114.93,154.11c-.71.5-.11,1.64.76,1.43.47-.11.71-.7.49-1.13-.31-.57-.71-.67-1.24-.3Z"/>
  </g>
</svg>