<?xml version="1.0" encoding="UTF-8"?>
<svg id="Layer_1" data-name="Layer 1" xmlns="http://www.w3.org/2000/svg" xmlns:xlink="http://www.w3.org/1999/xlink" viewBox="0 0 576 209">
  <defs>
    <style>
      .cls-1 {
        filter: url(#outer-glow-1);
      }

      .cls-1, .cls-2 {
        fill: #fff;
      }

      .cls-2 {
        filter: url(#outer-glow-2);
      }

      .cls-3 {
        fill: #cd2b27;
      }
    </style>
    <filter id="outer-glow-1" x="0" y="79" width="455" height="130" filterUnits="userSpaceOnUse">
      <feOffset dx="0" dy="0"/>
      <feGaussianBlur result="blur" stdDeviation="4.91"/>
      <feFlood flood-color="#cd2a28" flood-opacity="1"/>
      <feComposite in2="blur" operator="in"/>
      <feComposite in="SourceGraphic"/>
    </filter>
    <filter id="outer-glow-2" x="18" y="0" width="558" height="206" filterUnits="userSpaceOnUse">
      <feOffset dx="0" dy="0"/>
      <feGaussianBlur result="blur-2" stdDeviation="4.91"/>
      <feFlood flood-color="#cd2a28" flood-opacity="1"/>
      <feComposite in2="blur-2" operator="in"/>
      <feComposite in="SourceGraphic"/>
    </filter>
  </defs>
  <path class="cls-1" d="M430.69,173.98c-4.05,3.17-8.45,3.62-12.57,3.62l-.45-.02c-3.22-.07-6.89-1.04-10.55-2.75-1.06,2.63-1.06,3.05-.57,3.78,1.42,2.23,1.49,5.04.16,7.46-1.42,2.62-4.12,4.24-7.01,4.24-.09,0-.29-.02-.36-.02-7.83-.35-14.72-3.19-20.47-8.43-2.25-2.04-3.24-5.06-2.67-8-3.91,1.89-8.3,2.94-12.85,2.94l-.45-.02c-11.57-.17-20.78-5.82-25.91-15.67-.33.74-.76,1.44-1.28,2.11-1.8,2.3-4.76,3.71-7.9,3.71-.74,0-1.45-.09-2.15-.24-.94-.21-1.94-.36-3-.54-1.68-.26-3.43-.54-5.25-1.09l-.29-.09c-2.41-.73-5.42-1.65-7.95-4.02-.43-.4-.81-.81-1.16-1.25-1.06.62-2.23,1.04-3.48,1.21-.62.09-1.28.12-1.99.12-.62,0-1.25-.03-1.87-.07-.4-.02-.8-.03-1.18-.05h-.24c-3.91-.24-8.11-.66-12.21-2.03-3.58-1.23-5.37-3.38-6.25-5.35-.5.31-1.02.62-1.56.92-3.46,1.9-7.43,2.82-12.12,2.82,0,0-.59,0-.88-.02-6.74-.35-12.87-2.08-18.32-5.14-.26-.14-.5-.29-.74-.45-1.42,1.71-3.48,2.81-5.92,3.05l-.33.03c-3.15.28-6.43.57-9.75.57-1.19,0-2.32-.03-3.43-.1-3.15-.21-5.91-2.04-7.69-5.21-.12-.21-.24-.4-.36-.61-.92,2.55-2.94,4.52-5.56,5.32-4.12,1.26-8.23,1.91-12.21,1.91-1.97,0-3.93-.16-5.84-.47-1.44-.24-2.74-.68-3.86-1.32-2.74,2.55-6.81,3.98-11.33,3.98s-8.3-1.26-11.15-3.48c-.71,1.52-1.9,2.84-3.46,3.76-4.12,2.44-8.66,3.1-12.61,3.53-.76.07-1.51.12-2.06.14l-.42.02c-.14.02-.29.02-.43.02-.03,0-1.45-.02-1.45-.02-.73,0-1.3-.02-1.87-.05-4-.26-6.68-1.87-8.04-4.8-5.18,8.05-14.25,13.44-24.44,13.44l-.81-.02c-8.04,0-15.97-3.48-21.65-9.58-1.39-1.49-2.6-3.1-3.65-4.81.29,4.9.5,9.51.52,14.24,0,2.25-.45,4.23-.95,6.04-1.06,3.83-4.28,6.39-8.04,6.39-1.99,0-3.97-.76-5.56-2.11-3.15-2.72-5.85-5.73-8.45-8.64-.17-.19-.35-.38-.52-.57.05.64.12,1.28.17,1.9.16,1.54.29,3.07.42,4.59.12,1.32.19,2.77.21,4.4.1,3.81-1.8,7.03-5.23,8.83-1.23.64-2.56.99-3.93.99-3.24,0-5.49-1.97-6.23-2.61-4.28-3.74-8.12-7.85-11.85-11.81-1.23-1.32-2.46-2.63-3.72-3.93-3-3.13-5.94-6.39-8.76-9.54l-2.49-2.75c-.28-.31-.61-.52-1.35-.59-3.78-.33-6.7-2.7-7.81-6.34-1.04-3.55.09-7.15,2.96-9.44,5.33-4.23,11.48-7.01,18.31-8.26.54-.1,1.09-.14,1.63-.14.66,0,1.3.07,1.9.21.61-.87,1.35-1.63,2.25-2.27,5.14-3.67,11.17-6.03,17.91-7,.48-.07.95-.09,1.39-.09.68,0,1.32.07,1.94.21.73-1.51,1.89-2.79,3.43-3.67,3.69-2.13,8.19-4.31,13.47-4.47l.33-.02c3.22,0,6.04,1.4,7.74,3.76,5.07-8.45,14.34-13.84,25.28-13.84.26,0,.52,0,.78.02,5.73.14,11.01,1.91,15.47,4.87-.19-.68-.28-1.37-.28-2.1.02-2.98,1.73-5.72,4.68-7.53,1.84-1.14,3.95-1.82,6.62-2.15,6.04-.69,12.11-2.08,17.75-3.46,2.37-.59,4.5-.87,6.55-.87,2.72,0,5.33.52,7.72,1.54,5.14,2.2,9.06,6.84,10.44,12.43,1.11,4.43.59,8.92-1.4,12.75,3.48,2.08,5.94,5.46,7.05,9.78l.28,1.06c.42,1.71.69,2.65,1.06,3.24.1-.21.14-.36.16-.59.38-8.49.14-16.8-.71-24.77-.07-.73-.29-1.28-1.21-2.08-2.81-2.42-4.09-5.77-3.45-8.94.62-3.13,3.05-5.68,6.46-6.81,3.41-1.13,6.96-1.68,10.58-1.68,2.77,0,5.61.33,8.42.99,1.35.31,2.56.88,3.6,1.66,1.47-1.26,3.39-2.11,5.63-2.44,1.89-.28,3.74-.42,5.39-.54.68-.03,1.33-.09,1.96-.14.16-.02.29-.02.43-.02h.36l1.75.12c1.51.09,2.94.19,4.43.38,6.44.85,8.78,5.16,8.83,8.9.03,2.23-.71,7.57-8.23,8.76-2.91.45-4.95,2.22-7.26,5.11,3.53,3.62,6.51,7.57,9.39,11.38,1.16,1.52,2.3,3.05,3.48,4.54.28.35.55.68.85,1,.02-.42.03-.85.07-1.28.26-3.17,1.89-5.61,4.45-6.75-1.06-1.92-1.8-3.97-2.23-6.11-1.09-5.72.24-11.43,3.81-16.09,4.02-5.28,11.62-8.69,19.36-8.69,4.1,0,7.9.95,11,2.79.36.21,1.52.87,1.84.87.02,0,.09,0,.23-.05.87-.35,1.78-.52,2.68-.52,2.81,0,5.33,1.58,6.94,4.31.12.21.24.43.36.64,1.61-2.03,3.95-3.29,6.6-3.5,1.02-.07,2.01-.1,3-.1,5,0,10.22.94,15.52,2.81,1.91.64,3.5,1.82,4.61,3.33,1.07-.47,2.37-.76,3.95-.76l.38.02c6.32.17,11.46.94,16.16,2.39,2.16.69,4.59,1.71,6.37,4.14,1.75,2.34,2.27,5.32,1.4,7.93-.14.47-.33.9-.55,1.32,5.07-3.46,11.22-5.37,17.51-5.37,5.91,0,11.52,1.65,16.23,4.75,5.18,3.41,8.95,8.68,10.93,14.76.17-.9.5-1.8,1.02-2.68,1.7-2.84,4.5-4.55,7.52-4.55.68,0,1.37.09,2.04.28.55.14,1.13.26,1.7.4,3.08.73,6.58,1.56,9.91,3.97,2.62,1.91,6.03,3,9.65,4.17,5.54,1.78,9.47,4.47,12.12,8.21,6.39,8.99,4.14,21.25-5.21,28.52Z"/>
  <path class="cls-2" d="M551.85,118.79c.81,1.25,1.21,2.55,1.39,3.71.43,2.93.71,7.27-1.99,11.52-2.79,4.45-6.63,5.4-9.35,5.4-.85,0-1.71-.09-2.63-.28,3.76,4,4.49,7.98,2.34,12.85,5.7,4.76,6.41,9.28,2.7,16.16.05.23.16.83.17.92.64-.16,1.33-.4,1.85-.57l.24-.09c.88-.33,2.2-.81,3.74-.81.47,0,.92.05,1.37.14,3.05.64,5.25,2.37,6.1,4.76.8,2.27.24,4.76-1.51,6.88-4.24,5.16-9.68,7.91-16.16,8.17-.21.33-.45.66-.73.95-1.18,1.25-2.82,1.96-4.64,1.96-.05,0-.64-.02-.64-.02-.47,0-.92.02-1.37.05-.64.03-1.28.07-1.9.07-.36,0-.74-.02-1.11-.03-2.06-.14-4.92-1.02-6.7-4.49-.76-1.37-1.04-2.89-1.13-3.69-.17-1.97-.87-3.81-1.68-5.92-.17-.45-.35-.92-.52-1.39-4.14-1.8-6.18-4.61-6.88-9.33-1.59-1.06-3.15-2.22-4.71-3.43h-.38c-.57,0-1.13-.09-1.66-.28-.1,0-.19-.02-.29-.02-.47-.03-.8-.09-1.13-.12-.16-.03-.31-.05-.47-.07-.17.02-.35.03-.52.03-.29,0-.57-.03-.87-.09h-.29c-.59,0-1.16-.1-1.71-.29-1.07-.29-2.15-.55-3.24-.81-1.78-.43-3.62-.88-5.49-1.45-.57-.17-1.11-.4-1.56-.61-.35.45-.76.97-1.3,1.45-2.6,2.41-5.51,4.21-8.64,5.37-.23.43-.45.88-.74,1.3-.17.28-.33.54-.48.8-.55.92-1.26,2.08-2.41,3.17-2.48,2.36-5.32,3.5-8.66,3.5-.48,0-.97-.03-1.49-.07-.24.16-.9.61-.99.68.02,0,.03.02.03.02.1.05.24.1.38.16.45.17,1.07.42,1.77.81,3.29,2.03,3.86,4.64,3.76,6.48-.12,3.17-2.04,5.72-5.06,6.53-2.29.61-4.33.9-6.3.9-4.76,0-8.9-1.75-12.64-5.33-.16.02-.31.02-.45.02-1.68,0-3.26-.62-4.57-1.82l-.17-.14c-.52-.42-1.23-1-1.85-1.8-4.05-5.2-3.98-9.72.26-14.67.57-.69,1-1.25,1.32-1.89,1.68-3.27,4.02-5.78,6.48-8.28.05-.07.1-.21.21-.76,1.21-6.25,4.68-9.91,10.6-11.17,1.09-2.41,2.2-5.06,3.48-8.24-.33-.62-.64-1.23-.94-1.84-2.08.33-4.23.48-6.39.48-21.2,0-40.04-15.6-42.01-34.79-.05-.54-.1-1.06-.14-1.56-.68,1.52-1.54,3.05-2.58,4.49-3.83,5.35-9.68,9.28-16.09,10.79-2.11.5-4.35.76-6.6.76-4.61,0-9.46-1.06-14.41-3.15-3.13-1.33-6.3-3.08-9.44-5.2-2.94-2.01-6.17-4.57-7.9-8.52-1.75-3.93-1.44-8.14-.99-11.38.29-2.01.68-3.98,1.14-5.89.33-1.33,1.09-4.45,4.04-6.18,1.11-.66,2.41-1.02,3.72-1.02.26,0,.54.02.8.05-.9-2.75-1.3-5.61-1.14-8.43-3.72,2.96-7.98,4.94-12.75,5.89-.12.02-.26.05-.38.09-.68.17-1.58.42-2.67.42-.45,0-.88-.03-1.3-.12.52,3.38,1.13,6.77,1.71,10.08l.33,1.82c.05.05.1.1.19.17,5.37,4.04,5.07,8.35,3.9,11.26-.97,2.32-3.46,6.17-9.61,6.17-.33,0-.68-.02-1-.03-.07,0-.14-.02-.19-.02l-.97-.02c-.1,0-.21,0-.31-.02-7.39-.71-14.58-2.53-21.39-5.4-1.61-.68-3.12-1.65-4.36-2.79-2.36-2.1-3.26-5.35-2.37-8.66.29-1,.88-2.39,2.15-3.55-1.32-.33-2.74-.55-4.24-.71.69,1.49.97,3.38.07,5.66-1.35,3.5-4.45,5.72-8.26,5.94-.8.05-1.61.07-2.41.07-5.09,0-10.17-.92-15.5-2.82-2.03-.73-4.43-2.36-5.3-6.06-.83,1.56-2.37,3.01-5.07,3.9-.07.02-.24.09-.4.14-.85.33-2.01.78-3.41.87-2.75.19-5.26.29-7.62.29-7.26,0-13.53-.97-19.21-2.98-4.28-1.49-6.48-4.21-6.49-8.07-.09-4.33,2.72-8.02,6.79-8.92.52-.1.66-.23.66-.23.1-.1.36-.57.64-2.63.99-7.1,1.61-14.65,1.94-23.05-.19.29-.36.57-.55.85-2.67,4.07-6.23,4.94-8.76,4.94-.87,0-1.77-.1-2.67-.29-3.86-.87-8.36-3.53-7.86-11.4.03-.54.1-1.07.17-1.58-.19.09-.4.17-.61.24-.28.1-.38.19-.38.19-.03.09-.19.52-.26,2.13-.19,5.65.05,11.5.28,17.15.16,3.9.33,7.93.35,11.93.02,1.56.09,3.12.14,4.68.05,1.32.1,2.63.12,3.95.12,4.78-2.34,8.8-6.74,11-1.28.64-2.67.99-4.05.99-3.64,0-6.15-2.3-7.52-3.55-8.71-7.93-16.14-14.41-23.29-20.28.23,2.18.62,4.43,1.25,6.79,3.41,1.13,5.65,3.84,6.2,7.52.54,3.58-1.26,6.86-4.81,8.76-4.57,2.48-9.65,3.76-15.07,3.76-1.13,0-2.27-.07-3.43-.17-1.87-.16-3.57-.78-4.97-1.77-1.51,1.7-3.52,2.96-5.91,3.71-6.62,2.08-13.82,3.36-21.42,3.79-.23.02-.5.02-.76.02-1.18,0-2.41-.16-3.84-.48-3.71-.88-6.22-3.52-6.81-7.07-.19-1.14-.17-2.51.38-3.91-1.09.21-2.16.47-3.24.76,1.59,1.39,2.11,3.13,2.27,4.33.47,3.19-.59,6.08-2.96,8.07-2.51,2.15-5.39,3.1-7.9,3.81-2.39.68-4.78,1.25-7.1,1.8-.94.23-1.87.45-2.79.68-.38.1-.78.14-1.18.14-.05,0-1-.02-1-.02-.33.07-.64.1-.97.1-.36,0-.71-.03-1.07-.12-2.3-.55-3.76-1.84-4.68-3.17-2.06,3.72-4.92,6.81-8.52,9.23-7.53,5.07-15.76,7.65-24.44,7.65l-.57-.02c-7.41-.09-11.4-3.95-13.44-7.17-.71-1.13-1.54-2.23-2.42-3.43-.69-.92-1.39-1.85-2.04-2.79-2.32-3.43-2.3-7.2.05-10.13.35-.45.74-.83,1.16-1.18-5.28-2.89-9.23-7.59-10.96-13.23-2.25-7.34-.59-15.14,4.54-21.35,6.11-7.41,14.5-11.31,24.87-11.59,1.75-.05,1.85-.17,1.99-.31,1.65-1.75,3.88-2.72,6.27-2.72,1.51,0,3.01.38,4.5,1.11,4.05,2.04,7.41,5.09,10.04,9.07,2.51,3.84,2.48,8.23-.12,11.74-.38.5-.8.97-1.25,1.39,4.43,1.63,8.14,4.68,10.63,8.81,1.68,2.79,2.7,5.92,3.07,9.18.5-1.63.81-3.5.97-5.7.42-5.56.99-11.17,1.56-16.59.29-2.87.59-5.75.87-8.62.19-2.08.36-4.24-.03-6.06-1.47-6.98,1.04-12.99,6.7-16.12,2.41-1.33,5.04-1.99,7.81-1.99s5.84.74,8.57,2.18c3.67,1.96,6.34,4.81,8.49,7.12,5.61,5.97,10.29,12.61,14.82,19.03,1.66,2.36,3.33,4.69,5.02,7.01,1.4,1.89,2.82,3.76,4.24,5.63l1.28,1.68c.45.61.83.8,1.28.92.71.19,1.35.43,1.96.73.48-.57,1.02-1.11,1.65-1.61.19-.14.47-.38.42-1.44-.61-10.74-1.84-20.26-3.72-29.08-.23-1.06-.57-1.21-1.11-1.39-4.55-1.44-7.2-5.23-6.91-9.87.31-4.8,3.45-8.4,8.16-9.4,3.91-.87,7.48-1.3,10.93-1.3.85,0,1.7.03,2.55.09,2.63.16,5.11,1.09,7.55,2.89,7.85,5.7,15.53,11.81,22.98,17.73-.07-1.33-.26-2.74-.54-4.23-.03-.02-.07-.03-.12-.05-3.97-1.56-6.17-4.76-6.06-8.78.12-4.28,2.39-7.57,6.22-9.09,4.47-1.78,8.97-2.01,13.18-2.08h.02c2.87,0,5.32.29,7.55.92,3.69.99,6.15,3.39,6.93,6.65.28-.4.54-.8.81-1.18.36-.54.74-1.07,1.09-1.61,2.13-3.15,5.33-4.81,9.25-4.81.71,0,1.45.05,2.22.17l1.44.21c9.44,1.39,19.22,2.81,28.75,2.81,2.49,0,4.94-.09,7.26-.28.4-.03.81-.05,1.19-.05,4.23,0,7.72,2.01,9.85,5.7,3.48,6.01,4.43,12.23,2.87,18.5-1.11,4.43-4.55,7.31-9.23,7.69-.43.03-.83.05-1.23.05-4.36,0-7.72-2.11-9.46-5.96l-.45-1.02-1.65,15.53-.07,1.42c-.12,2.96-.24,5.77-.09,8.54.02.33.05.55.07.73,2.13.78,4.4,2.48,5.11,6.18.95-1.66,2.58-2.96,4.64-3.55,3.29-.99,5.11-3.58,7.79-7.72l.87-1.33c5.14-7.79,10.08-15.53,15.53-24.12.62-1,1.42-2.27,1.65-3.19,1.56-6.25,6.91-10.34,13.65-10.34,3.86,0,7.72,1.42,10.62,3.88,3.6,3.07,5.2,7.05,6.08,9.78,1.94,6.15,3.12,12.38,4.09,18.53.43-.31.88-.59,1.39-.85l.24-.12c1.44-.74,2.79-1.45,4.02-2.23-1.26-2.06-2.56-4.61-2.7-7.83-.29-5.66,2.37-10.11,7.52-12.47,1.71-.78,3.6-1.19,5.49-1.19,3.41,0,6.63,1.28,9.04,3.6,2.96,2.84,4.61,6.62,4.73,10.91v.02c3.98-2.34,9.07-3.79,15.36-3.79,5.94,0,11.67,1.52,16.12,4.28.85.54,1.71,1.13,2.56,1.71,2.08,1.44,4.04,2.81,5.68,2.86h.29c.76,0,1.92,0,3.22.48,3.29,1.21,4.49,4.24,4.88,5.25.45,1.14.83,2.32,1.09,3.53,6.29-7.9,15.88-12.83,27.47-14.06,1.73-.17,3.52-.26,5.3-.26,8.88,0,18.32,2.15,28.07,6.39,4.83,2.1,9.42,4.99,13.75,8.64-.4-1.32-.52-2.74-.31-4.26.68-5.13,4.85-8.57,10.39-8.57.19,0,.38,0,.55.02,3.84.19,6.65,1.85,8.38,4.97.68-.14,1.39-.24,2.15-.33,1.3-.14,2.6-.19,3.84-.19,4.31,0,8.54.78,12.9,2.41.35.14.78.26,1.37.38,5.28,1.21,9.02,3.41,12.12,7.17,2.79,3.38,2.44,6.98,1.99,8.95.16.29.29.55.42.8l.16.31c1.07,2.04.92,4.38-.23,6.08.62.9.97,1.91,1.04,3.03.05.07.1.14.16.21,1.23,1.63,1.28,3.41,1.14,4.71.8.68,1.63,1.42,2.34,2.08,2.13,1.92,2.37,3.93,2.2,5.28-.05.33-.14.71-.28,1.11.95,2.13,1.4,4.29,1.42,6.75,0,2.15-.71,4-2.01,5.35-.36,3.34-1.58,6.1-3.78,8.61-.57.69-1.51,1.45-2.65,1.94Z"/>
  <g>
    <path class="cls-3" d="M217.93,19.9c2.1,0,4.18.2,6.19.74,1.85.5,3.35,1.6,3.54,3.66.19,2.01-.46,3.98-2.43,4.73-3.28,1.24-3.72,3.81-3.82,6.73-.33,9.78.55,19.53.62,29.29.02,2.89.21,5.79.27,8.68.06,3.03-1.41,5.19-4.05,6.52-2.52,1.27-4.36-.26-6.05-1.79-7.95-7.25-16.04-14.36-24.38-21.16-.91-.74-1.79-1.56-2.79-2.15-2.69-1.59-4.51-.67-4.55,2.38-.05,4.27.59,8.48,1.68,12.6.42,1.6,1.51,2.63,3.11,3.12,1.77.54,2.64,1.9,2.9,3.6.27,1.78-.89,2.94-2.27,3.69-4.9,2.66-10.22,3.55-15.72,3.04-2.12-.2-3.92-1.39-4.55-3.69-.57-2.07.12-3.74,1.74-5.05,1.79-1.45,2.37-3.4,2.25-5.56-.56-10.03-1.72-19.99-3.83-29.83-.53-2.45-1.91-4.23-4.42-5.03-2.34-.74-3.65-2.4-3.49-4.88.17-2.65,1.71-4.36,4.29-4.93,3.99-.87,8.02-1.35,12.12-1.11,1.87.11,3.44.85,4.96,1.95,8.56,6.23,16.81,12.85,25.09,19.43.64.51,1.24,1.07,1.94,1.47,1.74,1,3.02.54,3.39-1.48.69-3.78.42-7.57-.37-11.31-.34-1.64-1.49-2.58-3.04-3.18-1.81-.71-3.01-1.94-2.94-4.09.07-2.23,1.05-3.82,3.11-4.65,3.68-1.47,7.56-1.67,11.46-1.74Z"/>
    <path class="cls-3" d="M375.76,106.23c-3.02-1.28-5.91-2.91-8.59-4.74-2.49-1.7-4.96-3.68-6.17-6.43-1.19-2.7-1.01-5.79-.6-8.71.26-1.82.61-3.62,1.04-5.41.29-1.2.7-2.51,1.77-3.13,1.67-.98,3.81.38,4.8,2.04,1.41,2.36,1.57,5.24,2.52,7.82,1.61,4.36,5.65,7.74,10.23,8.54,1.73.3,3.6.23,5.09-.69s2.43-2.87,1.78-4.5c-.3-.75-.87-1.34-1.45-1.9-4.4-4.23-9.81-7.47-13.38-12.41-2.7-3.73-4.21-8.39-3.76-12.97,1.54-15.91,23.2-19.18,34.58-12.12,3.43,2.13,6.65,5.18,10.69,5.3.67.02,1.36-.04,1.99.19,1.01.38,1.59,1.43,1.99,2.44,1.09,2.74,1.49,5.75,1.15,8.68-.22,1.87-.77,3.76-1.98,5.2s-3.2,2.33-5.02,1.87c-1.54-.39-2.73-1.66-3.52-3.04s-1.28-2.92-2-4.34c-1.19-2.35-3.01-4.38-5.22-5.81-1.58-1.02-3.45-1.76-5.33-1.55s-3.7,1.55-4.02,3.41c-.32,1.84.83,3.6,2.09,4.97,3.15,3.43,7.28,5.81,10.52,9.15,3.24,3.34,5.56,7.83,5.36,12.48-.14,3.22-1.46,6.32-3.34,8.94-3.16,4.41-7.95,7.62-13.23,8.86-6.01,1.42-12.22.3-17.97-2.13Z"/>
    <path class="cls-3" d="M68,89.48c-5.4.5-10.75.72-16.08-.84-12.97-3.81-17.59-18.37-8.99-28.81,5.47-6.64,12.76-9.59,21.21-9.81,2.07-.05,3.86-.19,5.4-1.82,1.4-1.47,3.26-1.49,5.03-.6,3.39,1.7,6.08,4.24,8.15,7.37,1.27,1.92,1.5,4.13.03,6.11-1.47,1.99-3.62,2.3-5.86,1.71-2.36-.63-4.67-1.42-6.99-2.18-2.73-.89-5.5-1.19-8.26-.31-2.21.71-3.95,2.03-3.83,4.63.12,2.59,1.97,3.79,4.22,4.28,3.13.69,6.31.25,9.46-.03,3.16-.28,6.34-.48,9.47.08,10.24,1.82,15.84,12.41,12.42,23.08-1.61,5.03-4.49,9.01-8.85,11.94-6.71,4.52-14.09,6.9-22.21,6.8-3.89-.05-7.14-1.4-9.34-4.88-1.4-2.21-3.09-4.24-4.57-6.4-.93-1.35-1.3-2.88-.17-4.28,1.11-1.39,2.67-1.37,4.23-.88,1.57.49,3,1.26,4.29,2.27,5.07,3.95,10.48,3.32,15.89,1,2.68-1.15,3.81-3.39,3.21-5.63-.71-2.69-2.85-2.96-5.14-2.91-.9.02-1.81.07-2.71.11Z"/>
    <path class="cls-3" d="M75.16,144.08c.01-.81.04-1.63.04-2.44,0-4.3-.05-4.36-4.24-5.51-1.56-.43-2.91-1.14-3.26-2.87-.34-1.68.28-3.17,1.71-3.99,3.46-1.99,7.08-3.7,11.16-3.83,3.31-.1,5.57,2.52,4.02,5.31-3.22,5.78-1.64,11.63-1.23,17.49.54,7.67,1.05,15.33,1.1,23.02,0,1.65-.36,3.19-.78,4.71-.76,2.73-3.57,3.64-5.67,1.83-4.61-3.96-8.31-8.79-12.55-13.12-1.22-1.24-2.4-3.59-4.16-2.85-1.78.75-.93,3.25-.82,4.97.26,4.15.72,8.29,1.07,12.43.11,1.35.17,2.71.2,4.06.04,1.99-.83,3.47-2.6,4.4-1.83.96-3.31.22-4.69-.99-5.45-4.77-10.23-10.21-15.23-15.43-3.81-3.98-7.47-8.1-11.18-12.18-1.22-1.34-2.72-2.02-4.52-2.18-1.8-.16-3.05-1.16-3.56-2.88-.48-1.63.04-3.17,1.3-4.17,4.75-3.77,10.2-6.18,16.13-7.28,2.45-.45,4.36,1.36,3.96,3.88-.56,3.51,1.19,5.65,3.41,7.75,1.84,1.74,3.62,3.54,5.52,5.21,1.42,1.26,2.37.87,2.85-1.01,1.07-4.18-1.08-9.88-6.5-11.49-1.56-.46-2.87-1.31-3.15-3.01-.28-1.7.21-3.34,1.64-4.36,4.72-3.37,10.07-5.32,15.76-6.13,2.95-.42,4.86,1.77,4.24,4.8-.52,2.55.29,4.37,1.94,6.11,1.61,1.71,3.12,3.51,4.71,5.25.59.64,1.13,1.66,2.19,1.2.94-.41.93-1.47.97-2.38.05-1.44.06-2.89.08-4.34.05,0,.09,0,.14,0Z"/>
    <path class="cls-3" d="M341.5,94.98c-6.76-.66-13.49-2.33-19.95-5.04-1.06-.45-2.09-1.11-2.95-1.88-1.08-.98-1.33-2.35-.95-3.76.39-1.42,1.53-1.88,2.88-2.06,1.26-.18,2.94.25,3.25-1.67.3-1.87-.77-3.21-2.28-3.96-4.89-2.41-10.19-2.99-15.56-2.95-1.27.01-2.38.88-2.82,2.23-.46,1.39.42,2.2,1.36,2.96,1.21.97,2.56,1.92,1.83,3.8-.7,1.78-2.12,2.71-3.97,2.82-5.5.33-10.82-.65-15.98-2.48-1.75-.62-2.25-2.09-2.35-3.89-.1-1.66,1.15-2.46,2.1-2.75,5.78-1.72,8.43-6.59,11.39-11.07,5.29-7.99,10.42-16.09,15.56-24.18.91-1.44,1.86-2.98,2.27-4.6,1.88-7.55,11.12-8.39,16.33-3.94,2.36,2.02,3.67,4.69,4.58,7.56,2.93,9.27,4.08,18.89,5.5,28.46.75,5.05,1.66,10.08,2.54,15.11.21,1.21,1.08,2.07,2.03,2.79,1.84,1.39,3.3,2.93,2.26,5.48-1.06,2.6-3.21,3.22-5.75,3.06-.36-.02-.72-.01-1.31-.02ZM320.95,65.33c1.07-.21,2.68.54,2.45-1.33-.48-3.94-1.04-7.89-2.75-11.54-.87-1.86-2.11-2.17-3.49-.48-2.24,2.76-3.85,5.88-5.06,9.2-.49,1.35-.22,2.49,1.53,2.79,2.49.42,4.97.91,7.32,1.35Z"/>
    <path class="cls-3" d="M101.81,97.39h-.15s-.05.12-.05.12c-2.24-.54-2.38-2.58-3.05-4.25,4.52-4.07,6.03-9.32,6.46-15.21.61-8.38,1.61-16.73,2.41-25.1.24-2.52.41-5.09-.12-7.57-.98-4.61.36-8.63,4.27-10.79,3.59-1.99,7.87-1.8,11.72.25,2.84,1.5,5.02,3.78,7.2,6.1,7.37,7.88,13.12,16.98,19.48,25.62,1.82,2.47,3.7,4.91,5.56,7.36,1.01,1.33,2.25,2.24,3.93,2.7,3.2.87,4.05,3.21,2.25,5.98-1.02,1.58-2.56,2.55-4.33,3.1-6.59,2.07-13.35,3.18-20.24,3.58-1.07.06-2.18-.1-3.22-.35-1.61-.38-2.78-1.38-3.06-3.08-.26-1.58.79-2.48,2.01-3.22,1.14-.69,2.62-1.22,2.09-3-.49-1.65-1.88-2.06-3.42-2.14-4.89-.25-9.49,1.07-14.01,2.71-1.6.58-2.76,1.83-2.59,3.73.16,1.82,1.65,2.22,3.1,2.5,1.23.24,2.32.6,2.52,2.03.2,1.42-.09,2.7-1.25,3.67-1.77,1.51-3.93,2.24-6.1,2.85-3.21.91-6.48,1.63-9.72,2.43-.57,0-1.14-.02-1.7-.03ZM115.92,63.58s.06,0,.08,0c-.01.81-.06,1.62-.04,2.43.07,3.11.77,3.7,3.79,2.99,2.1-.49,4.17-1.14,6.23-1.76,1.29-.39,1.76-1.18,1.03-2.46-1.89-3.3-4.1-6.36-6.88-8.95-1.78-1.66-3.08-1.15-3.48,1.3-.35,2.13-.51,4.29-.75,6.44Z"/>
    <path class="cls-3" d="M270.17,57.95c-.13,3.53-.35,7.05-.15,10.58.13,2.28.64,4.2,3.21,5.06,1.88.63,2.19,2.32,2.16,4.22-.03,1.87-1.14,2.48-2.57,2.95-.86.28-1.71.71-2.58.78-8.44.61-16.8.45-24.91-2.42-1.73-.61-3.19-1.35-3.22-3.47-.03-2.09,1.13-3.71,2.94-4.09,3.98-.85,4.68-3.76,5.12-7.02,1.2-8.79,1.81-17.62,2.07-26.48.03-1.17.02-2.36-.17-3.51-.21-1.3-.83-2.38-2.28-2.74-1.42-.34-2.54.17-3.32,1.28-1.34,1.92-2.58,3.92-3.87,5.88-1.51,2.3-3.56,3.17-6.29,2.56-3.34-.75-4.25-2.76-4.02-6.28.33-5.17,3.41-8.82,6.05-12.74,1.54-2.29,3.84-2.94,6.66-2.53,12.78,1.86,25.57,3.86,38.56,2.77,2.8-.23,4.98.78,6.38,3.21,2.68,4.64,3.68,9.58,2.36,14.85-.62,2.49-2.4,3.79-4.89,4-2.52.21-4.64-.49-5.79-3.04-1-2.23-1.95-4.5-3.19-6.6-1.5-2.52-3.97-2.33-5.31.25-.59,1.14-.84,2.37-.98,3.64-.66,6.29-1.33,12.58-2,18.87Z"/>
    <path class="cls-3" d="M299.53,156.02c-3.7-.21-7.39-.58-10.94-1.77-2.04-.69-3.48-1.9-3.73-4.18-.25-2.25.98-3.58,2.85-4.44,1.98-.91,3.06-2.44,3.47-4.54,1.59-8.07,3.17-16.14,4.81-24.2.38-1.87.02-3.34-1.54-4.55-1.26-.98-2.23-2.2-1.51-3.97.71-1.75,2.1-2.85,3.89-2.98,5.66-.42,11.18.56,16.51,2.42,1.88.65,3.12,2.2,3.21,4.33.09,2.11-1.23,3.21-3,4.07-2.11,1.02-4.39,7.11-3.6,9.29.27.74.89,1.16,1.57,1.41,2.48.92,5.08,1.28,7.69,1.52.49.04,1.11-.18,1.49-.49,2.05-1.68,2.33-8.99.33-10.76-1.43-1.26-1.87-2.69-1.17-4.35.7-1.65,1.99-2.2,3.91-2.15,5.05.14,10.01.67,14.84,2.19,1.47.46,2.91,1.03,3.88,2.35,1.55,2.09.96,4.79-1.45,5.53-2.39.74-3.52,2.32-4.02,4.56-1.84,8.2-3.64,16.41-5.5,24.61-.42,1.84-.36,3.54.68,5.21,1.07,1.73.84,3.55-.35,5.08-1.26,1.63-3.58,2.07-5.1,1.71-2.62-.61-5.33-.76-7.91-1.55-2.26-.68-4.53-1.33-6.31-2.99-2.32-2.15-2.2-4.6.45-6.31,4.28-2.77,4.49-7.31,4.54-11.52.03-2.49-3.14-2.35-5.05-2.6-1.87-.24-4.81-1.68-5.55.89-1.14,3.94-3.43,8.07-.14,12.35,1.76,2.28.01,5.48-2.91,5.88-1.41.19-2.88-.01-4.33-.04Z"/>
    <path class="cls-3" d="M227.75,99.58c2.14.16,4.04.22,5.92.47,2.99.39,4.52,1.85,4.55,4.11.03,2.77-2.04,3.52-4.11,3.84-5.1.8-8.25,4.16-11.14,7.97-1.24,1.63-1.13,3.14.33,4.58,5.06,4.97,9,10.84,13.36,16.38,1.69,2.15,3.64,4.02,5.83,5.64,1.5,1.1,2.06,2.51,1.67,4.25-.39,1.78-1.61,2.86-3.41,3.02-4.22.38-8.45.8-12.69.5-1.67-.12-2.9-1.22-3.77-2.74-2.44-4.26-5.52-8.04-8.72-11.74-.61-.71-1.17-1.86-2.37-1.37-.98.4-1.37,1.43-1.45,2.46-.19,2.45-.28,4.71,2.13,6.53,2.37,1.78,1.6,5.7-1.23,6.56-5.15,1.57-10.51,2.14-15.81,1.28-4.57-.75-5.64-4.38-2.72-7.98.9-1.1,1.36-2.31,1.42-3.72.36-8.51.16-16.99-.74-25.46-.23-2.19-1.21-3.82-2.9-5.28-2.99-2.58-2.38-6.13,1.36-7.35,5.34-1.75,10.88-1.86,16.33-.57,3.53.84,4.37,4.43,1.93,7.12-2.15,2.38-2.56,6.34-.99,9,.66,1.12,1.24.47,1.66-.04,1.6-1.95,3.17-3.94,4.67-5.97.84-1.13.61-2.25-.03-3.53-1.82-3.63-.2-6.68,3.84-7.28,2.41-.36,4.85-.46,7.05-.66Z"/>
    <path class="cls-3" d="M150.76,157.91c-1.41-.02-2.23,0-3.04-.06-1.58-.1-3.18-.4-3.9-1.99-.73-1.61.05-2.98,1.2-4.14.98-1,1.17-2.22,1-3.52-1.25-9.33-3.18-18.52-5.89-27.54-.53-1.77-1.7-3.09-3.32-4.12-2.96-1.89-2.82-4.82.18-6.66,1.42-.87,3.02-1.26,4.63-1.45,6.21-.74,12.29-2.1,18.35-3.59,3.74-.91,7.48-1.15,11.18.43,7.84,3.34,10.61,13.82,5.25,20.5-1.42,1.77-1.79,2.54.85,3.35,3.8,1.16,6.16,3.95,7.17,7.84.85,3.28,1.29,6.66,5.04,8.41,1.82.85,1.39,3.85-.41,5.7-4.07,4.18-14.07,3.68-17.65-.91-2.31-2.97-3.4-6.56-4.94-9.92-.75-1.65-1.45-3.32-2.81-4.59-1.21-1.13-2.72-1.23-4.05-.62-1.29.6-.5,1.95-.35,2.93.37,2.41.89,4.8,1.36,7.19.38,1.96.79,3.63,3.23,4.38,2.41.73,2.32,3.94-.04,5.33-3.26,1.93-6.95,2.48-10.65,2.88-.99.11-1.98.13-2.38.15ZM163.32,121.7c0-2.48-.43-4.86-1.96-6.9-1.15-1.54-2.71-1.58-4.39-1.04-1.65.53-1.91,1.86-1.7,3.26.43,2.85.98,5.68,1.53,8.5.25,1.3,1.15,1.66,2.42,1.56,2.64-.22,4.02-1.97,4.1-5.38Z"/>
    <path class="cls-3" d="M114.27,166.47c-12.7,0-26.23-10.58-25-28.53.97-14.15,12.5-22.9,25.16-22.58,14.04.36,24.93,12.69,24.56,27.81-.32,13.15-11.48,23.66-24.73,23.29ZM124.17,148.93c-1.02-7.39-4.73-14.53-11.09-20.22-1.96-1.76-4.39-2.71-6.97-1.16-2.57,1.55-2.43,4.11-1.88,6.53,1.66,7.3,5.15,13.63,10.53,18.87.57.56,1.27,1.03,1.98,1.41,4.03,2.15,7.28.25,7.43-5.43Z"/>
    <path class="cls-3" d="M362.96,171.89c-11.23-.17-19.68-6.48-23.4-17.16-3.42-9.85,1.26-22.01,9.29-28.26,8.51-6.61,20.77-7.18,29.47-1.45,7.93,5.22,11.85,15.82,9.73,26.36-2.41,12.01-13.03,20.69-25.1,20.51ZM356.57,147.08c-.11,3.54.14,7.03,1.44,10.38.9,2.3,2.14,4.25,4.88,4.45,2.73.21,4-1.79,5.11-3.77,2.21-3.95,2.9-8.33,3.22-12.75.24-3.34.1-6.7-1.31-9.83-1.14-2.54-3-4.36-5.94-4.44-2.92-.08-4.21,2.08-5.28,4.35-1.74,3.68-2.06,7.63-2.12,11.62Z"/>
    <path class="cls-3" d="M266.35,152.37c-5.69-.29-11.06-1.71-16.04-4.52-1.49-.84-2.62-2.03-3.08-3.64-.95-3.33-1.19-6.77-.91-10.21.1-1.29.62-2.5,2.08-2.87,1.5-.37,2.65.24,3.55,1.4.85,1.09,1.22,2.41,1.65,3.69,1.57,4.61,6.67,7.61,11.39,6.7,1.63-.32,2.84-1.16,3.25-2.86.41-1.67-.4-2.87-1.75-3.63-3.23-1.81-6.6-3.38-9.78-5.27-8.78-5.22-11.19-15.94-5.39-23.55,4.96-6.5,16.81-8.86,23.98-4.66,2.03,1.19,3.85,2.13,6.32,1.16,1.47-.57,2.78.29,3.62,1.7,1.58,2.64,2.27,5.51,2.24,8.55-.02,1.7-.59,3.23-2.37,3.93-1.67.65-3.28.4-4.55-.81-1.17-1.11-2.11-2.46-3.16-3.7-1.76-2.09-3.91-3.54-6.71-3.66-1.79-.07-3.42.46-4.22,2.33-.79,1.85.19,3.11,1.41,4.3,1.52,1.48,3.45,2.29,5.3,3.24,1.45.74,2.92,1.43,4.37,2.17,4.9,2.47,8.6,5.9,8.44,11.85-.18,6.94-2.84,12.7-9.16,16.17-3.22,1.77-6.83,2.29-10.51,2.21Z"/>
    <path class="cls-3" d="M417.71,172.68c-2.81-.06-6.31-1.12-9.66-2.86-3.06-1.58-3.77-1.32-4.99,1.95-1.14,3.06-2.88,6-.64,9.49,1.11,1.73-.67,4.23-2.87,4.13-6.61-.3-12.48-2.69-17.39-7.16-2.13-1.94-1.45-5.7,1.97-6.4,2.61-.53,3.97-2.15,4.96-4.47,3.19-7.48,6.8-14.78,9.61-22.42.75-2.03.84-3.85-.77-5.52-1.08-1.13-1.62-2.44-.73-3.93.92-1.54,2.42-2.47,4.1-2.04,3.41.87,6.89,1.36,9.95,3.59,3.28,2.39,7.23,3.65,11.11,4.9,3.76,1.21,7.21,3.04,9.55,6.35,4.88,6.88,2.94,16.22-4.23,21.8-2.73,2.13-5.74,2.62-9.97,2.58ZM419.92,154.56c.13-1.61-.35-2.99-1.5-4.16-2.42-2.46-3.84-2.33-5.5.65-1.22,2.2-2.27,4.5-3.53,6.68-1.28,2.21-.3,3.3,1.71,4.07,4.41,1.7,8.4-1.56,8.82-7.24Z"/>
    <path class="cls-3" d="M369.82,47.07c.02,1.11-.13,2.19-.66,3.16-4.13,7.67-9.97,13.26-18.8,15.03-1.28.26-3.05,1.12-3.69-.91-.53-1.7.43-2.91,1.96-3.71,1.6-.84,3.22-1.66,4.74-2.63,3.35-2.14,3.58-3.2,1.5-6.6-1.05-1.72-1.93-3.47-2.03-5.53-.18-3.66,1.38-6.29,4.68-7.81,3.01-1.38,6.69-.8,9.07,1.49,2.13,2.04,3.14,4.58,3.23,7.5Z"/>
    <g>
      <g>
        <path class="cls-3" d="M552.89,95.51c.14-.11.36-.24.52-.32,1.05-.52,1.17-.97.25-1.81-.92-.83-2.05-1.83-3-2.63s-1.22-1.84-1.04-2.91c.33-2.03.12-2.28-1.82-2.49.07-.16.19-.41.25-.56.72-1.93.48-2.51-1.4-3.38-.39-.18-.52-.3-.3-.82.55-1.31.45-2.55,1.76-3.51.28-.2.22-.82.03-1.18-.3-.57-.6-1.28-1-1.8-.5-.65-.39-1.13-.19-1.85.56-2.03.6-3.85-.79-5.54-2.57-3.12-5.53-4.62-9.41-5.5-.69-.16-1.35-.32-2.01-.57-4.84-1.81-9.4-2.46-14.53-1.93-1.66.17-3.24.59-4.87.84-.81.12-1.03-.08-1.24-.86-.75-2.83-2-4.45-5.13-4.6-2.84-.13-5.47,1.28-5.88,4.31-.43,3.18,1.74,4.8,4.53,5.68.73.23,1.38.49,1.76,1.17.93,1.65,1.19,3.39,1.21,5.23.04,3.54.31,6.86,1.31,10.26.07.25.14.56-.05.8-.79-.15-1.43-.6-2.03-1.1-2.47-2.07-4.68-4.58-6.74-7-5.63-6.61-12.29-12.12-20.25-15.59-9.69-4.23-20.51-6.82-30.89-5.74-10.96,1.15-20.78,6.08-26.42,15.52-6.35,10.61-8.38,17.28-6.95,31.3,2.03,19.91,24.78,34.22,45.2,29.49.93-.22,1.33.36,1.63.95.83,1.64,1.64,3.43,2.6,5.07.23.39.48.7.26,1.27-1.52,3.82-3.12,7.68-4.86,11.49-.36.79-.91,1.12-1.86,1.26-4.59.68-6.89,2.87-7.76,7.44-.26,1.38-.6,2.32-1.56,3.3-2.12,2.17-4.22,4.38-5.57,7.04-.57,1.14-1.29,2.04-1.99,2.87-2.75,3.23-2.66,5.21-.11,8.47.37.47.96.9,1.41,1.3.86.76,1.78.73,2.57.02.59-.54.67-.47,1.12.06.29.34.4.76.72,1.1,4.38,4.64,8.94,5.6,15.02,3.97,1.03-.28,1.41-1.08,1.45-2.04s-.61-1.51-1.38-1.98c-.64-.39-1.36-.55-2.03-.92s-1.54-.42-2.14-1.03c-2.19-2.21-1.82-4.33.47-6.37.78-.69,1.83-1.3,2.64-1.93.81-.63,1.43-.68,2.41-.57,2.72.31,4.71-.15,6.74-2.07.93-.88,1.44-1.97,2.19-3.09.75-1.12.93-2.46,2.46-2.97,2.87-.95,5.42-2.5,7.65-4.57,1.17-1.09,1.71-2.87,3.34-3.2,1.63-.33,2.88.78,4.34,1.23,2.89.88,5.83,1.46,8.73,2.26.12-.05.18-.03.24.08.47-.28.81-.21,1.27.07.79-.09,1.51.11,2.3.17.59.05,1.14-.08,1.66.3.35-.25.65-.18,1.05-.11.47-.06.93,0,1.3.3,1.95,1.59,3.97,3.09,6.05,4.46,1.04.68,1.35,1.54,1.5,2.69.46,3.5,1.58,4.98,4.94,6.2.46.17.96.2,1.18.86,1.09,3.34,2.71,6.43,3.04,10.04.05.62.27,1.38.59,1.98.6,1.14,1.34,1.74,2.68,1.83,1.52.1,3.05-.15,4.61-.09,1.15.04,1.6-.75,1.54-1.81-.07-1.26.11-1.23,1.35-1.14,6.11.46,11.1-1.68,14.95-6.36,1.65-2.01.21-3.26-1.78-3.68-.88-.18-1.92.27-2.8.58-1.56.55-3.3,1.1-4.97.98-1.67-.12-2.48-.84-2.93-2.4-.32-1.09-.43-2.21-.67-3.35-.2-.92-.02-1.36.48-2.26,2.99-5.39,2.57-7.44-2.41-11.18-.74-.56-1.36-.72-1.81-1.63-.13-.25-.27-.17.07-.69,3.39-5.28,2.95-7.91-2-11.94-.53-.43-1.1-.36-1.3-1.22-.37-1.6.12-3.75,1.19-4.98.86-.99,1.24-1.42,1.51-2.61,1.4.68,2.73,1.86,4.24,2.27,3.34.9,5.9.27,7.8-2.74,1.58-2.51,1.7-5.26,1.27-8.14-.3-2.02-1.63-3.04-3.51-3.66-1.02-.33-2.23-.43-3.24-.83-.89-.36-1.59-1.06-1.16-2.01.56-1.24,1.01-2.32,1.18-3.65,1.14.78,1.86,2.11,2.46,3.23.65,1.23,1.16,1.25,2.2.51.45-.32.64-.74.99-1.29.6-.94.74-1.65,2.18-1.22.34.1.99-.32,1.33-.71,1.81-2.07,2.56-4.22,2.67-7.02.02-.45-.21-.98.37-1.2,1.13-.42,1.53-1.33,1.52-2.45-.03-2.93-.87-5.06-2.49-7.43ZM508.1,61.81c-1.63.01-2.87-1.22-2.85-2.83.02-1.93,1.5-3.05,3.32-3.07,1.7-.02,3,.81,2.98,2.63s-1.62,3.26-3.44,3.27ZM513.74,83.52c.86-4.87,2.27-9.1,5.42-12.99,3.15-3.89,6.96-6.03,11.67-7.54.7-.22,1.42-.08,2.13-.23,3.03.42,5.9.13,8.61,1.85,2.06,1.3,3.41,3.02,3.99,5.52.16.7.08,1.26-1.11,1-5.01-1.12-9.69-.67-14.36,1.78-5.71,2.99-10.31,6.9-14.81,11.46-.31.31-.49.96-1.07.68-.57-.28-.57-.96-.47-1.52ZM465.34,124.05c-1,1.77-2.85,2.29-4.72,2.52-4.97.62-11.14-.22-15.6-1.62-12.88-4.05-23.23-14.87-24.4-27.59-1.1-11.98.64-18.87,7.06-28.69,7.68-11.75,18.87-15.85,32.97-14.4,14.1,1.46,25.76,6.73,36.52,15.66,1.91,1.58,3.32,3.7,5.14,5.44.36.35.71.8.53,1.35-6.51-4.72-13.53-8.13-20.94-11.19-.09.14-.18.29-.27.43.67.39,1.34.77,2.03,1.12,7.17,3.69,13.99,7.82,20.37,12.77,4.2,3.26,8.68,6.22,12.59,9.88,2.48,2.32,4.43,5.03,6.36,7.86.15.21.21.74-.02.99-5.5-6.61-12.35-11.06-20.56-13.59.28.6.99.78,1.5,1.02,6.05,2.92,11.27,6.2,16.1,10.85.52.5.94,1.05,1.42,1.61.3.35.69.78.21,1.19-.49.41-.85.17-1.3-.26-1.4-1.33-2.79-2.95-4.34-4.15-7.87-6.1-16.92-7.82-26.42-5.32-2.79.73-5.18,1.71-7.42,2.92.09.36.14.73.14,1.07,0,.38-.07.83-.2,1.27,3.52-1.48,7.14-2.71,10.88-3.68-1.67,1.43-3.44,2.94-4.87,4.58-2.59,2.99-4.4,6.07-5.75,9.75-.18.49-.19,1.01-.44,1.44-1.56,2.64-2.54,5.31-3.61,8.19-.51,1.38-1.69,1.89-3.05,2.53-2.11.99-4.42,1.87-6.61,2.9-1.41.66-2.49,1.74-3.27,3.14ZM526.09,127.44c-.44.25-.84.52-1.37.51-.04-.65.47-1.02.75-1.54,1.95-3.64,2.53-6.88,2.22-11.02-.04-.55-.48-1.16.5-1.35,1.16-.22,1.96-1.3,3.08,0,.71.83,1.46,2.16,2.17,3.12.34.46.81.95,1.38.55s.12-.89-.15-1.32c-.91-1.45-1.93-2.79-2.98-4.09,3.63,1.22,6.7,4.21,7.36,7.86.36,2.01-.88,2.04-1.77,3.27-.26.36-.68.28-1.02.11-1.34-.64-2.55-.29-3.77.36-2.21,1.18-4.23,2.32-6.38,3.52ZM526.94,137.15c.17-.53.16-1,.85-1.12.83-.14,1.85-.16,2.72-.29-.51,1.61-1.72,2.5-3.37,2.06-.44-.12-.29-.36-.19-.65ZM513.66,106.64c-1.1-1.65-.93-3.14,1.08-3.61,2-.47,3.73-.08,5.22,1.47,2.74,2.83,3.61,6.29,4.15,10.13-.17.84.02,1.59-.26,2.43-1.27,3.78-3.53,5.33-7.56,4.37-.97-.23-1.21-.61-.79-1.83,1.62-4.68.94-8.78-1.84-12.95ZM505.03,121.28c2.9.64,4.27-.1,6.93-.49.34-.05.62-.22.91.14-6.09,2.13-11.58,1.53-16.46-3.06-4.53-4.26-5.53-10.27-4.14-16.14.06,1.28-.02,3.15.05,4.39.46,8.11,5.05,13.48,12.72,15.17ZM503.77,107.34c1.63-2.31,3.91-2,6.41-1.37-2.28.09-4.33.4-6.41,1.37ZM512.15,134.96c.21.06.37.05.63.13.8.27,1.63-.15,1.55,1.13-.06,1.09-.73,1.96-2,1.78-.13-.02-.3,0-.46-.04-11.71-2.68-20.97-8.39-28.7-17.57-.57-.67-1.1-1.58-1.5-2.31-.35-.63-.39-1.29.14-1.69.67-.51,1.08.33,1.45.72,8.37,8.62,17.25,14.56,28.89,17.85ZM515.5,138.95c.74-1.47,1.6-3.08,2.39-4.54.37-.68.85-.96,1.61-.79,1.61.36,3.27.76,4.86,1.22.77.22,1.16.68.86,1.52-.57,1.58-1.53,3.1-2.49,4.49-.3.43-.78.5-1.26.42-1.77-.3-3.64-.59-5.36-.98-.82-.19-.97-.59-.6-1.33ZM524.5,127.98s.1,0,.17,0c-.05.05-.11.11-.15.13-.04.02-.06-.12-.02-.13ZM526.16,112.83c-.74.1-.55-.38-.64-.75-.84-3.38-1.97-6.19-4.26-8.79-.42-.48-.42-.84.04-1.22,1.87-1.53,3.67-2.37,6.11-2.29.73.02,1.58.31,1.93.92,1.15,1.98,2.1,3.87,2.8,6.02-.75,3.31-2.59,5.67-5.98,6.11ZM453.64,173.2c.93-.18,1.85-.36,2.78-.53-.92.67-1.68.82-2.78.53ZM472.67,165.1c-1.1,1.38-2.75,2.29-4.52,1.78-5.67-1.61-9.11-4.08-11.65-9.48-.38-.81-.49-1.81-.34-2.8.18-1.25.92-2.55,2.03-3.24,1.46-.9,2.37-.73,2.87.96.93,3.11,2.56,5.41,5.1,7.37,1.92,1.49,4.08,2.47,6.13,3.5,1.05.53,1.03,1.1.39,1.9ZM534.36,176.41c-.09-.1-.18-.2-.27-.3.97-.82,1.94-1.64,2.91-2.46-.62,1.24-1.51,2-2.64,2.76ZM536.49,157.83c.56-.75.99-.69,1.54-.16,1.65,1.58,1.92,3.47,1.07,5.51-.36.86-.91,1.49-1.67,1.95-3.92,2.36-7.95,3.55-12.45,4.27-1.14-.19-2.35-.26-3.36-.84-1.01-.58-1.77-1.15-1.78-2.43,0-1.28.36-1.96,1.86-2.13,3.89-.45,7.76-1.41,11.33-3.23,1.37-.7,2.59-1.79,3.45-2.94ZM532.45,143.65c1.61-.49,2.19-.26,2.82,1.3.63,1.56.34,3.3-.12,4.86-.29.99-1.27,1.23-2.11,1.49-7.74,2.39-15.51,3.78-23.61,3.72-15.45-1.77-30.43-7.93-38.91-21.66-.75-1.21-1.62-2.72-2.1-4.2-1.1-3.46.08-6.21,3.54-7.33.78-.25,1.2.48,1.51.86,7.3,9.17,11.65,17.14,22.83,21.57,12.82,5.07,23.9,3.11,36.16-.6ZM535.19,125.92c-.24.96-.74,1.7-1.63,2.12-2.04.96-4.1,1.09-6.31,1.2,2.23-1.39,4.46-2.72,6.61-4.26.29-.2.63-.43.98-.18.35.24.44.73.34,1.13ZM540.68,121.13c.12-.61.41-.55.71-.5,1.29.22,2.65.31,3.75.82,1.64.76,1.53,1.97,1.8,3.52-.27,2.63-.83,4.89-2.64,6.86-.84.92-1.81,1.19-3,.95-1.93-.39-3.63-1.33-5.24-2.44-.69-.47-.8-.98-.28-1.69.61-.83,1.18-1.69,1.16-2.79,0-.44.29-.62.62-.79,1.69-.87,2.74-2.14,3.1-3.93ZM553.52,102.73c-.46.32-.72-.18-1.06-.41-.78-.51-1.53-.91-2.44-1.05-.3.44.16.77.31,1.09,1.58,3.29,1.79,6.19.07,9.36-.6,1.11-1.06.85-1.59-.07-.3-.53-.67-1.37-1.06-1.94-.16-.23-.38-.58-.73-.44-.35.14-.32.49-.31.81.05,1.51-.22,2.83-.77,4.23-.14.35-.29.74-.7.74-.41,0-.36-.44-.51-.71-1.05-1.83-2.37-3.02-4.19-4.08-.27-.16-.59-.33-.87-.08-.28.25-.1.57.04.85.05.09.11.21.13.3.17.75.6,1.79-.29,2.22-.78.38-1.18-.57-1.64-1.11-.37-.44-.77-.82-1.22-1.29-1.76-1.86-2.96-3.17-3.4-5.91-.26-1.61-1.21-3.44-2.13-4.92-.77-1.24-2.03-1.87-3.4-2.05-1.53-.21-1.78-.7-1.89-2.14-.03-.44,0-1.03-.09-1.48-.15.06-.49.28-.58.38-.39.48-.45,1.59-1.23,1.44s-.86-1.12-1.08-1.8c-.49-1.52-.49-3.02-.34-4.62.03-.35.22-.73-.11-1.02-.54.21-.67.69-1,1.12-.33.44-.65.89-1.25.58-.61-.31-.94-.83-.74-1.56.37-1.39,1.11-2.64,1.78-3.95.1-.19.18-.52.01-.74-1.19.86-1.99,1.84-2.94,3.01-.38.47-.68,1.09-1.44.54-.66-.48-.98-1.12-.5-1.93.18-.3.36-.66.62-.92,5.54-5.69,11.3-10.54,18.99-13.03,2.71-.88,5.41-.38,8.06.5-.36.77-1.54.99-1.06,2.02.48,1.03,1.28,1.52,2.52,1.32.4-.06,1.07.17,1.26.63-1.31.58-1.89,1.66-3.19,2.41-.61.35-.76,1.4-.53,2.13.22.73.64,1.15,1.39,1.33.37.09.75.08,1.12.17.49.12,1.21-.07,1.33.6.12.67-.23,1.22-.88,1.57-2.01,1.11-4.12.65-5.59-.99-.78-.87-.66-.89-1.5-.15-2.18,1.91-4.41,2.68-7.18,1.35-1.37-.66-1.24-2-.83-3.3.11-.36.68-1.09.11-1.36-.69-.33-1.16.33-1.4.9-.83,1.91-.69,3.86,1.29,4.89,2.81,1.46,5.12,1.15,7.93-.19.4-.19.64-.66,1.23-.3,2.12,1.32,4.25,1.48,6.72,1.26.47-.04,1.04-.31,1.31.2.27.51.02,1.02-.34,1.49-1.21,1.56-2.93,1.97-4.74,1.29-.57-.21-.37-.5-.19-.87.18-.37.46-.64.07-.98-.39-.34-.74.05-1.07.27-.53.34-1.07.81-1.62,1.06-3.43,1.54-5.79,1.25-8.79-.92-.49-.36-1.06-1.34-1.62-.83-.73.67.18,1.31.7,1.75,2.89,2.43,5.63,3.36,9.43,3.56.85.05,1.61-.47,1.44-1.47-.08-.49.41-.42.66-.33,2.2.75,3.81.54,5.83-.45.38-.19.59-.08.85.15,1.04.89,2.06,1.73,2.91,2.78-1.28.89-1.46,1-.33,2.35,1.29,1.54,2.15,3.49,2.4,5.57.05.4.2.93-.17,1.18Z"/>
        <path class="cls-3" d="M535.07,76.19c-.82-.45-1.09-1.03-.53-1.86.65-.97,1.52-1.62,2.73-1.61,1.06,0,1.95.59,2.44,1.5.58,1.09.2,1.68-1.02,1.8-.89.08-1.73.27-2.55.78-.68.42-1.13.24-1.08-.62.2-.23.42-.45.63-.68.76-.27,1.52-.53,2.28-.8-1.07-.24-1.77-.25-2.26.83-.41.07-.49.33-.64.68Z"/>
        <path class="cls-3" d="M539.39,79.74c-.03.95-.57,1.61-1.55,1.55-.97-.06-1.51-.77-1.46-1.7.05-.93.58-1.46,1.53-1.46.94,0,1.51.67,1.48,1.61Z"/>
        <path class="cls-3" d="M530.87,78.26c-.2.26-.39.57-.62.79-.91.84-1.81,1.65-2.74,2.46-.21.18-.46.31-.71.12-.25-.18-.1-.45.04-.67.77-1.2,1.64-2.2,2.77-3.08.26-.2.57-.27.89-.1.16.09.27.33.38.48Z"/>
      </g>
      <path class="cls-3" d="M520.83,139.83c-1.11-.27-2.16-.41-3.28-.75-.28-.08-.69.01-.62-.54.22-1.73,1.54-3.09,3.33-3.22.33-.02.56.1.78.17,2.64.87,2.83,1.81,1.14,3.96-.29.37-.9.39-1.35.38Z"/>
    </g>
  </g>
</svg>