<?xml version="1.0" encoding="UTF-8"?>
<svg id="Layer_1" data-name="Layer 1" xmlns="http://www.w3.org/2000/svg" viewBox="0 0 1151.25 201.18">
  <defs>
    <style>
      .cls-1 {
        fill: #032741;
      }
    </style>
  </defs>
  <path class="cls-1" d="M1136.65,194.23c-13.1,4.88-26.75.61-40.17-.21-23.04-.59-46.57,1.23-69.59,1.52-36.4.42-71.47,5.75-107.33,4.59-7.05-.51-13.97-2.16-21.03-1.97-8.49-.07-16.41,2.06-25.38,2.6-82.7,1.92-153.35-3.25-240.1-4.85-169.22-2.56-353.97-4.3-526.86-2.48-17.99.74-37.62.51-55.06,2.04-14.11,1.56-31.85,4.93-43.25-4.89-8.34-7.7-4.36-20.28-.76-29.51,4.54-11.51,9.11-22.54,13.99-33.81,10.59-23.04,11.46-34.53-.55-56.61-5.22-10.12-10.98-19.63-16-29.93C-.59,30.52-3.07,16.83,6.43,8.84,13.16,2.93,23.95,2.31,32.98,2.21,115.13,1.55,196.43-.02,278.25,0c11.32.59,21.63,3.69,33.08,3.73,3.97,0,7.99-.08,11.98-.09,19.97.47,39.95-1.26,59.87-.98,8.45.2,16.85,1.05,25.27,1.62,14.74,1.19,29.45-.53,44.18-.87,88.78.48,177.34,5.04,266.04,6.23,9.38.37,18.27-1.67,26.96-1.9,5.97-.26,12.03,1.01,18,1.33,7.46.41,14.65-.73,22.1-.9,3.53-.1,7.13.12,10.67.34,13.76.66,27.09-2.26,40.81-1.1,13.61.86,26.1,1.96,39.73,1.72,43.47-.15,88.47-.04,130.78-1,40.48-1.01,76.28-4.54,115.44-4.7,15.83-.14,30.97,4.95,27.6,23.69-1.01,5.88-3.35,11.55-5.76,17-4.61,10.28-9.29,20.12-13.92,30.36-2.73,6.16-5.46,12.53-6.81,19.14-2.79,11.92,1.82,23.7,6.79,34.39,5.32,11.64,10.83,23.02,15.69,34.93,5.25,12.98,6.06,25.64-9.93,31.22l-.18.07Z"/>
</svg>