<?xml version="1.0" encoding="UTF-8"?>
<svg id="Layer_1" data-name="Layer 1" xmlns="http://www.w3.org/2000/svg" xmlns:xlink="http://www.w3.org/1999/xlink" viewBox="0 0 576 107">
  <defs>
    <style>
      .cls-1 {
        fill: none;
      }

      .cls-2 {
        fill: #f79d75;
      }

      .cls-3 {
        clip-path: url(#clippath-1);
      }

      .cls-4 {
        clip-path: url(#clippath-2);
      }

      .cls-5 {
        clip-path: url(#clippath);
      }

      .cls-6 {
        fill: #78cee3;
      }
    </style>
    <clipPath id="clippath">
      <rect class="cls-1" x="-596" y="0" width="576" height="122"/>
    </clipPath>
    <clipPath id="clippath-1">
      <rect class="cls-1" width="576" height="107"/>
    </clipPath>
    <clipPath id="clippath-2">
      <rect class="cls-1" x="596" width="576" height="92"/>
    </clipPath>
  </defs>
  <g class="cls-5">
    <path class="cls-6" d="M-647.75,1486.96c-41.15-434.77-51.31-869.53-30.49-1304.3C-673.58,85.26-596.12,6.86-498.75,1.68-348.12-6.34-197.85,23.92-47.94,92.46,16.52,121.93,59.31,184.84,62.91,255.63c19.7,387.26,10.55,774.52-27.46,1161.78-6.55,66.69-47.68,125.13-108.36,153.57-129.89,60.89-259.46,90.39-388.7,88.47-96.92-1.43-177.01-76-186.14-172.5Z"/>
  </g>
  <g class="cls-3">
    <path class="cls-6" d="M-26.75-66.04c-41.15-434.77-51.31-869.53-30.49-1304.3,4.66-97.4,82.13-175.8,179.5-180.99,150.62-8.02,300.89,22.25,450.8,90.79,64.46,29.47,107.25,92.38,110.85,163.17,19.7,387.26,10.55,774.52-27.46,1161.78-6.55,66.69-47.68,125.13-108.36,153.57-129.89,60.89-259.46,90.39-388.7,88.47C62.46,105.02-17.62,30.46-26.75-66.04Z"/>
  </g>
  <g class="cls-4">
    <path class="cls-2" d="M498.04,1524.83c-1.05-88.87-5.85-177.83-4.93-266.7.92-88.83,13.02-177.24,15.9-266.08,2.88-88.71,1.14-177.77,5.98-266.48,4.83-88.52,14.61-176.47,21.39-264.99,6.76-88.24,12.77-176.64,21.47-264.89,6.14-62.3,35.55-120.81,80.04-137.32,75.56-28.03,152.11-43.6,227.42-52.35,76.74-8.92,153.86-7,230.35,4.1,52.72,7.65,95.73,66.14,102.74,137.78,9.26,94.62,18.52,189.13,25.72,283.75,7.23,94.9,13.94,189.84,19.09,284.75,5.17,95.11,12.76,190.13,15.85,285.24,3.09,95.24-4.91,190.92-3.91,286.16,1.01,95.28-.98,190.36-2.06,285.64-.88,77.74-38.57,134.68-95.14,144.56-64.3,11.23-127.8,26.51-191.98,26.3-64.28-.21-129.08-2.03-193.24-13.72-63.2-11.51-125.29-36.93-188.38-59.57-49.79-17.87-85.49-76.01-86.32-146.18Z"/>
  </g>
</svg>