<?xml version="1.0" encoding="UTF-8"?>
<svg id="Layer_1" data-name="Layer 1" xmlns="http://www.w3.org/2000/svg" viewBox="0 0 1319.49 476.12">
  <defs>
    <style>
      .cls-1 {
        fill: #a4c782;
      }
    </style>
  </defs>
  <path class="cls-1" d="M96.79,13.98C152.18,10.17,229.46,1.98,292.74.94c63.27-1.04,130.96-1.46,194.39-.01,63.43,1.44,126.78,8.47,189.25,9.98,62.47,1.5,124.83.17,186.17.75,61.34.58,123.31-1.17,183.25-1.58s128.4-.31,182.58-.9c46.63-.51,88.49,22.7,89.87,63.42,1.44,42.52,2.53,72.63-2.08,111.66-4.5,38.06-8.2,72.33-19.45,110.56-10.87,36.93-22.1,70.32-43.31,108.63-13.3,24.03-51.96,34.89-87.32,38.01-58.03,5.12-126.97,19.33-189.33,23.8-62.36,4.47-127.52,7.51-189.83,9.76-62.31,2.25-125.04.57-186.35-.55-61.31-1.12-123.08-3.66-182.89-6.26-59.81-2.6-122.9-4.51-178.96-6.86-36.64-1.54-72.22-17.19-88.67-40.17-27.24-38.05-43.39-71.76-63.75-108.13-20.92-37.37-44.26-68.07-58.84-107.45C12.65,165.57,4.3,133.74.18,86.87-3.41,46.07,48.15,17.32,96.79,13.98Z"/>
</svg>