<?xml version="1.0" encoding="UTF-8"?>
<svg id="Layer_1" data-name="Layer 1" xmlns="http://www.w3.org/2000/svg" xmlns:xlink="http://www.w3.org/1999/xlink" viewBox="0 0 576 122">
  <defs>
    <style>
      .cls-1 {
        fill: none;
      }

      .cls-2 {
        fill: #a5c883;
      }

      .cls-3 {
        fill: #f79d75;
      }

      .cls-4 {
        clip-path: url(#clippath-1);
      }

      .cls-5 {
        clip-path: url(#clippath-2);
      }

      .cls-6 {
        clip-path: url(#clippath);
      }
    </style>
    <clipPath id="clippath">
      <rect class="cls-1" x="-596" y="15" width="576" height="74"/>
    </clipPath>
    <clipPath id="clippath-1">
      <rect class="cls-1" width="576" height="122"/>
    </clipPath>
    <clipPath id="clippath-2">
      <rect class="cls-1" x="596" y="7.5" width="576" height="107"/>
    </clipPath>
  </defs>
  <g class="cls-6">
    <path class="cls-3" d="M-678.84-126.12c-1.03-87.11-5.73-174.3-4.83-261.41.9-87.07,12.76-173.73,15.59-260.8,2.82-86.95,1.12-174.24,5.86-261.2,4.73-86.76,14.32-172.97,20.97-259.73,6.63-86.49,12.52-173.14,21.05-259.63,6.02-61.06,34.84-118.42,78.45-134.59,74.06-27.47,149.09-42.74,222.91-51.31,75.22-8.74,150.8-6.86,225.78,4.02,51.67,7.5,93.83,64.83,100.7,135.04,9.08,92.74,18.15,185.38,25.21,278.12,7.08,93.02,13.66,186.08,18.72,279.1,5.06,93.23,12.51,186.35,15.53,279.58,3.03,93.35-4.82,187.14-3.83,280.48.99,93.39-.96,186.58-2.02,279.97C60.37-2.28,23.43,53.53-32.02,63.22c-63.03,11.01-125.26,25.99-188.17,25.78-63.01-.21-126.52-1.99-189.41-13.44-61.95-11.28-122.81-36.2-184.64-58.39-48.8-17.52-83.79-74.5-84.6-143.28Z"/>
  </g>
  <g class="cls-4">
    <path class="cls-2" d="M-51.75,1486.96c-41.15-434.77-51.31-869.53-30.49-1304.3C-77.58,85.26-.12,6.86,97.25,1.68c150.62-8.02,300.89,22.25,450.8,90.79,64.46,29.47,107.25,92.38,110.85,163.17,19.7,387.26,10.55,774.52-27.46,1161.78-6.55,66.69-47.68,125.13-108.36,153.57-129.89,60.89-259.46,90.39-388.7,88.47-96.92-1.43-177.01-76-186.14-172.5Z"/>
  </g>
  <g class="cls-5">
    <path class="cls-2" d="M569.25-58.54c-41.15-434.77-51.31-869.53-30.49-1304.3,4.66-97.4,82.13-175.8,179.5-180.99,150.62-8.02,300.89,22.25,450.8,90.79,64.46,29.47,107.25,92.38,110.85,163.17,19.7,387.26,10.55,774.52-27.46,1161.78-6.55,66.69-47.68,125.13-108.36,153.57-129.89,60.89-259.46,90.39-388.7,88.47-96.92-1.43-177.01-76-186.14-172.5Z"/>
  </g>
</svg>