<?xml version="1.0" encoding="UTF-8"?>
<svg id="Layer_1" data-name="Layer 1" xmlns="http://www.w3.org/2000/svg" xmlns:xlink="http://www.w3.org/1999/xlink" viewBox="0 0 576 92">
  <defs>
    <style>
      .cls-1 {
        fill: none;
      }

      .cls-2 {
        fill: #a5c883;
      }

      .cls-3 {
        fill: #f79d75;
      }

      .cls-4 {
        clip-path: url(#clippath-1);
      }

      .cls-5 {
        clip-path: url(#clippath-2);
      }

      .cls-6 {
        clip-path: url(#clippath);
      }
    </style>
    <clipPath id="clippath">
      <rect class="cls-1" x="-596" width="576" height="92"/>
    </clipPath>
    <clipPath id="clippath-1">
      <rect class="cls-1" width="576" height="74"/>
    </clipPath>
    <clipPath id="clippath-2">
      <rect class="cls-1" x="596" y="-15" width="576" height="122"/>
    </clipPath>
  </defs>
  <g class="cls-6">
    <path class="cls-3" d="M-693.96,1524.83c-1.05-88.87-5.85-177.83-4.93-266.7.92-88.83,13.02-177.24,15.9-266.08,2.88-88.71,1.14-177.77,5.98-266.48,4.83-88.52,14.61-176.47,21.39-264.99,6.76-88.24,12.77-176.64,21.47-264.89,6.14-62.3,35.55-120.81,80.04-137.32C-478.54,30.34-402,14.77-326.68,6.02-249.94-2.9-172.82-.98-96.33,10.12-43.62,17.77-.61,76.26,6.41,147.9c9.26,94.62,18.52,189.13,25.72,283.75,7.23,94.9,13.94,189.84,19.09,284.75,5.17,95.11,12.76,190.13,15.85,285.24,3.09,95.24-4.91,190.92-3.91,286.16,1.01,95.28-.98,190.36-2.06,285.64-.88,77.74-38.57,134.68-95.14,144.56-64.3,11.23-127.8,26.51-191.98,26.3-64.28-.21-129.08-2.03-193.24-13.72-63.2-11.51-125.29-36.93-188.38-59.57-49.79-17.87-85.49-76.01-86.32-146.18Z"/>
  </g>
  <g class="cls-4">
    <path class="cls-3" d="M-82.84-141.12c-1.03-87.11-5.73-174.3-4.83-261.41.9-87.07,12.76-173.73,15.59-260.8,2.82-86.95,1.12-174.24,5.86-261.2,4.73-86.76,14.32-172.97,20.97-259.73,6.63-86.49,12.52-173.14,21.05-259.63,6.02-61.06,34.84-118.42,78.45-134.59,74.06-27.47,149.09-42.74,222.91-51.31,75.22-8.74,150.8-6.86,225.78,4.02,51.67,7.5,93.83,64.83,100.7,135.04,9.08,92.74,18.15,185.38,25.21,278.12,7.08,93.02,13.66,186.08,18.72,279.1,5.06,93.23,12.51,186.35,15.53,279.58,3.03,93.35-4.82,187.14-3.83,280.48.99,93.39-.96,186.58-2.02,279.97-.86,76.2-37.81,132.01-93.26,141.69-63.03,11.01-125.26,25.99-188.17,25.78-63.01-.21-126.52-1.99-189.41-13.44C124.46,49.27,63.6,24.36,1.76,2.16-47.04-15.35-82.03-72.33-82.84-141.12Z"/>
  </g>
  <g class="cls-5">
    <path class="cls-2" d="M544.25,1471.96c-41.15-434.77-51.31-869.53-30.49-1304.3,4.66-97.4,82.13-175.8,179.5-180.99,150.62-8.02,300.89,22.25,450.8,90.79,64.46,29.47,107.25,92.38,110.85,163.17,19.7,387.26,10.55,774.52-27.46,1161.78-6.55,66.69-47.68,125.13-108.36,153.57-129.89,60.89-259.46,90.39-388.7,88.47-96.92-1.43-177.01-76-186.14-172.5Z"/>
  </g>
</svg>