<?xml version="1.0" encoding="UTF-8"?>
<svg id="Layer_1" data-name="Layer 1" xmlns="http://www.w3.org/2000/svg" viewBox="0 0 1320 580.4">
  <defs>
    <style>
      .cls-1 {
        fill: #f79d75;
      }
    </style>
  </defs>
  <path class="cls-1" d="M1153.88,576.58c-67.27.79-134.6,4.42-201.87,3.73-67.24-.69-134.16-9.85-201.4-12.04-67.15-2.18-134.56-.86-201.71-4.53-67-3.65-133.58-11.06-200.58-16.19-66.79-5.12-133.71-9.67-200.5-16.25-47.15-4.65-91.45-26.91-103.94-60.58-21.22-57.19-33-115.13-39.63-172.14-6.75-58.09-5.3-116.46,3.11-174.35,5.79-39.9,50.06-72.46,104.29-77.76,71.62-7.01,143.16-14.02,214.78-19.47,71.84-5.47,143.7-10.55,215.53-14.45,71.99-3.91,143.91-9.66,215.9-11.99,72.09-2.34,144.51,3.72,216.6,2.96,72.12-.76,144.09.74,216.21,1.56,58.84.67,101.94,29.2,109.42,72.02,8.5,48.67,20.07,96.73,19.91,145.31-.16,48.66-1.54,97.7-10.38,146.27-8.71,47.84-27.95,94.84-45.09,142.59-13.53,37.69-57.53,64.71-110.65,65.33Z"/>
</svg>