<?xml version="1.0" encoding="UTF-8"?>
<svg id="Layer_1" data-name="Layer 1" xmlns="http://www.w3.org/2000/svg" viewBox="0 0 104.24 104.24">
  <defs>
    <style>
      .cls-1 {
        fill: #032741;
      }
    </style>
  </defs>
  <path class="cls-1" d="M96.28,45.26c-.66-4.24,5.48-10.48,3.78-14.31-1.72-3.89-10.49-3.54-13.14-6.84-2.65-3.29-.44-11.78-3.87-14.29-3.38-2.48-10.79,2.18-14.79.63C64.39,8.95,62.08.49,57.76.02c-4.32-.47-8.4,7.3-12.5,7.94-4.24.66-10.48-5.48-14.31-3.78-3.89,1.72-3.54,10.49-6.84,13.14-3.29,2.65-11.78.44-14.29,3.87-2.48,3.38,2.18,10.79.63,14.79C8.95,39.84.49,42.16.02,46.48c-.47,4.32,7.3,8.4,7.94,12.5.66,4.24-5.48,10.48-3.78,14.31,1.72,3.89,10.49,3.54,13.14,6.84,2.65,3.29.44,11.78,3.87,14.29,3.38,2.48,10.79-2.18,14.79-.63,3.87,1.5,6.19,9.96,10.51,10.43,4.32.47,8.4-7.3,12.5-7.94,4.24-.66,10.48,5.48,14.31,3.78,3.89-1.72,3.54-10.49,6.84-13.14,3.29-2.65,11.78-.44,14.29-3.87,2.48-3.38-2.18-10.79-.63-14.79,1.5-3.87,9.96-6.19,10.43-10.51.47-4.32-7.3-8.4-7.94-12.5ZM54.69,75.08c-.88.26-1.75.54-2.53,1.04-1.71,1.1-2.82,2.62-3.36,4.57-.11.4-.21.8-.49,1.13-.91,1.07-2.56.78-3.01-.55-.34-1.02-.63-2.05-1.26-2.94-1.05-1.5-2.43-2.54-4.18-3.06-.27-.08-.53-.15-.8-.24-.74-.25-1.24-.94-1.24-1.68,0-.75.48-1.45,1.24-1.67,1.26-.36,2.45-.82,3.48-1.68,1.28-1.07,2.13-2.39,2.56-3.99.14-.54.3-1.07.78-1.42,1.04-.75,2.39-.3,2.78.97.28.93.57,1.85,1.11,2.67,1.04,1.57,2.45,2.65,4.27,3.2.3.09.6.17.89.28.69.26,1.13.91,1.13,1.64,0,.82-.5,1.47-1.38,1.73ZM56.15,39.99c-.13.74-.58,1.23-1.29,1.41-1.34.34-2.67.72-3.91,1.36-4.6,2.34-7.55,6-8.83,11-.15.58-.3,1.14-.82,1.51-1.01.73-2.36.26-2.74-.98-.27-.89-.45-1.81-.81-2.68-2.2-5.3-6.08-8.67-11.64-10.1-.25-.06-.51-.12-.74-.23-.63-.29-1.07-1.03-1.03-1.67.05-.72.56-1.39,1.29-1.6,1.05-.3,2.11-.55,3.11-.99,4.95-2.18,8.15-5.88,9.61-11.08.08-.3.14-.61.24-.9.25-.78.93-1.25,1.72-1.24.81,0,1.48.55,1.7,1.41.24.96.49,1.91.88,2.82,2.2,5.12,6,8.39,11.39,9.81.37.1.76.14,1.07.37.61.44.93,1.02.8,1.79ZM80.43,56.56c-1.26.31-2.44.78-3.52,1.49-2.37,1.56-3.84,3.74-4.51,6.48-.24.98-.89,1.53-1.76,1.53-.86,0-1.52-.54-1.75-1.48-.42-1.73-1.17-3.29-2.34-4.63-1.48-1.69-3.32-2.79-5.5-3.34-.32-.08-.64-.15-.91-.36-.53-.43-.87-.96-.74-1.67.13-.74.56-1.27,1.3-1.47.87-.24,1.73-.47,2.54-.88,2.9-1.47,4.75-3.79,5.57-6.93.14-.53.3-1.03.76-1.37,1.08-.79,2.45-.28,2.8,1.07.28,1.1.64,2.15,1.23,3.13,1.52,2.53,3.72,4.14,6.57,4.88.51.13,1,.29,1.34.73.82,1.06.3,2.49-1.07,2.83Z"/>
</svg>