<?xml version="1.0" encoding="UTF-8"?>
<svg id="Layer_1" data-name="Layer 1" xmlns="http://www.w3.org/2000/svg" viewBox="0 0 104.24 104.24">
  <defs>
    <style>
      .cls-1 {
        fill: #032741;
      }
    </style>
  </defs>
  <path class="cls-1" d="M71.48,43.01c-.23-.14-.51-.22-.83-.23-.73-.02-1.47-.03-2.2-.03-.73,0-1.47.01-2.2.04-.71.03-1.19.42-1.34,1.02-.03.14-.05.29-.04.45,0,.1.01.19.03.28.12.63.59,1.04,1.36,1.05.75,0,1.5,0,2.25,0,.71,0,1.43.01,2.14,0h0c.28,0,.53-.06.73-.15.08-.04.16-.08.22-.14.14-.1.24-.24.32-.39.08-.16.12-.34.14-.55,0-.05,0-.11,0-.16,0-.27-.06-.51-.16-.71-.1-.2-.25-.36-.44-.48Z"/>
  <path class="cls-1" d="M52.21,44.54c-5.52,0-10.06,4.55-10.02,10.03.04,5.71,4.49,10.15,10.13,10.12,5.44-.03,9.95-4.58,9.92-10.02-.03-5.64-4.48-10.14-10.03-10.13ZM52.27,61.64c-3.81.06-7.03-3.16-7.03-7.03,0-3.91,3.09-6.95,7.04-6.94,3.86.01,6.93,3.09,6.93,6.95,0,3.82-3.1,6.96-6.94,7.02Z"/>
  <path class="cls-1" d="M96.28,45.26c-.66-4.24,5.48-10.48,3.78-14.31-1.72-3.89-10.49-3.54-13.14-6.84-2.65-3.29-.44-11.78-3.87-14.29-3.38-2.48-10.79,2.18-14.79.63C64.39,8.95,62.08.49,57.76.02c-4.32-.47-8.4,7.3-12.5,7.94-4.24.66-10.48-5.48-14.31-3.78-3.89,1.72-3.54,10.49-6.84,13.14-3.29,2.65-11.78.44-14.29,3.87-2.48,3.38,2.18,10.79.63,14.79C8.95,39.84.49,42.16.02,46.48c-.47,4.32,7.3,8.4,7.94,12.5.66,4.24-5.48,10.48-3.78,14.31,1.72,3.89,10.49,3.54,13.14,6.84s.44,11.78,3.87,14.29c3.38,2.48,10.79-2.18,14.79-.63,3.87,1.5,6.19,9.96,10.51,10.43,4.32.47,8.4-7.3,12.5-7.94,4.24-.66,10.48,5.48,14.31,3.78,3.89-1.72,3.54-10.49,6.84-13.14,3.29-2.65,11.78-.44,14.29-3.87,2.48-3.38-2.18-10.79-.63-14.79,1.5-3.87,9.96-6.19,10.43-10.51.47-4.32-7.3-8.4-7.94-12.5ZM56.5,27.97c1.29-1.32,2.6-2.61,3.9-3.91.22-.22.49-.36.77-.34.54-.02.89.21,1.09.64.23.48.12.92-.24,1.29-.86.87-1.73,1.74-2.6,2.61-.43.43-.86.88-1.3,1.3-.53.5-1.18.52-1.64.06-.47-.47-.49-1.11.03-1.64ZM52.12,21.9c.67,0,1.11.48,1.11,1.25,0,.94,0,1.88,0,2.81,0,.92,0,1.84,0,2.76,0,.71-.46,1.21-1.1,1.23-.65.02-1.14-.5-1.14-1.24,0-1.86,0-3.72,0-5.57,0-.76.45-1.25,1.12-1.24ZM41.96,24.38c.19-.43.54-.67,1.06-.65.34-.02.62.16.87.41,1.25,1.25,2.51,2.49,3.75,3.75.58.59.61,1.22.12,1.73-.48.5-1.14.46-1.72-.11-1.27-1.26-2.53-2.52-3.79-3.79-.38-.38-.52-.83-.3-1.33ZM76.4,68.13c-.78,2.08-2.29,2.82-4.48,2.82-13.14-.05-26.28-.05-39.41,0-2.19,0-3.71-.72-4.48-2.82v-26.88c.62-1.98,1.96-2.98,4.06-2.91.12-1.06,0-2.25,1.45-2.29,1.75-.05,3.51-.03,5.26,0,.79.01,1.24.48,1.3,1.28.02.31.05.62.08,1.06,1.2,0,2.34.05,3.47-.03.38-.03.86-.31,1.07-.63.75-1.13,1.33-2.38,2.13-3.46.35-.47,1.07-.9,1.64-.92,2.47-.1,4.94-.02,7.41-.05.82-.01,1.36.32,1.76.99.62,1.05,1.28,2.07,1.83,3.14.38.72.84.99,1.67.98,3.62-.05,7.23-.02,10.85-.02,2.64,0,3.42.51,4.39,2.87v26.88Z"/>
</svg>