<?xml version="1.0" encoding="UTF-8"?>
<svg id="Layer_2" data-name="Layer 2" xmlns="http://www.w3.org/2000/svg" xmlns:xlink="http://www.w3.org/1999/xlink" viewBox="0 0 429.36 343.68">
  <defs>
    <style>
      .cls-1 {
        fill-rule: evenodd;
      }

      .cls-1, .cls-2, .cls-3 {
        fill: #fff;
      }

      .cls-4 {
        filter: url(#outer-glow-2);
      }

      .cls-5 {
        fill: #91bfd9;
      }

      .cls-6 {
        fill: #142941;
      }

      .cls-7 {
        fill: #e47e07;
      }

      .cls-8 {
        fill: #1d1d1b;
      }

      .cls-3 {
        filter: url(#outer-glow-1);
      }

      .cls-9 {
        fill: #f9af24;
      }
    </style>
    <filter id="outer-glow-1" x="0" y="43.92" width="429.36" height="299.76" filterUnits="userSpaceOnUse">
      <feOffset dx="0" dy="0"/>
      <feGaussianBlur result="blur" stdDeviation="5.15"/>
      <feFlood flood-color="#354441" flood-opacity=".3"/>
      <feComposite in2="blur" operator="in"/>
      <feComposite in="SourceGraphic"/>
    </filter>
    <filter id="outer-glow-2" x="89.76" y="0" width="230.16" height="92.4" filterUnits="userSpaceOnUse">
      <feOffset dx="0" dy="0"/>
      <feGaussianBlur result="blur-2" stdDeviation="5.87"/>
      <feFlood flood-color="#354441" flood-opacity=".3"/>
      <feComposite in2="blur-2" operator="in"/>
      <feComposite in="SourceGraphic"/>
    </filter>
  </defs>
  <path class="cls-3" d="M291.2,327.95c-3-.31-5.89-1.24-8.72-2.28-4.01-1.55-8.39-2.2-11.58-4.86-2.73-2.23-4.55-5.54-6.13-8.6-1.59-3.35-4.49-5.51-7.43-7.66-2.58-1.94-4.55-4.63-6.37-7.34-2.12-3.07-3.85-6.35-7.15-7.54-5.78-1.13-6.1,7.1-8.65,10.51-1.09,1.82-2.3,3.66-3.53,5.45-3.49,4.78-7.39,10.95-13.01,13.58-7.5,3.43-17.53,2.21-22.33-4.97-3.53-4.59-7.83-8.13-11.7-12.61-2.85-2.89-5.08-8.15-9.05-8.9-7.15-.48-14.88.08-22.28.06-8.38-.2-15.49,1.13-23.3,2.93-4.21.93-8.74.28-12.58,2.49-4.83,2.78-9.42,6.91-14.53,9.05-3.32,1.27-7.12,2.51-10.31,2.38-3.85-.27-7.73-2.5-10.36-5.34-2.14-2.35-2.96-5.71-4.82-8.28-2.92-4.45-6.9-2.82-9.32,1.15-7.52,11.26-15.26,29.57-31.66,25.24-5.71-1.17-8.24-5.33-11.2-10.14-1.49-2.07-3.09-4.16-4.63-6.25-3.81-4.74-6.59-11.05-4.17-17.05,2.05-5.19,6.9-8.61,10.21-13.01,9.96-12.07,8.22-9.47,8.99-24.2.47-4.06,2.06-7.6,4.99-10.3,2.2-2.07,5.15-2.97,6.89-5.14,1.59-1.97.48-4.12-2.17-4.82-3.34-.94-7.74-.48-11-1.78-3.86-1.34-6.73-5.04-7.57-9-.88-3.92,1.06-7.76,2.24-11.55,1.56-5.47,3.77-11.28,1.25-16.6-1.09-2.46-3.1-4.48-4.12-6.98-2.17-5.38,1.24-12.33,5.88-15.67,3.46-2.46,7.87-2.45,11.94-2.62,7.61-.2,8.56-5.63,4.1-10.55-1.83-1.94-4.64-2.73-7.01-4.01-4.3-2.19-7.36-6.31-8.86-10.75-2.02-7.15-9.18-10.94-12.31-17.49-2.07-4.15-2.49-9.93-2.83-13.79-.31-4.88-1.11-9.81-.96-14.75.84-14.66,15.17-20.75,27.94-15.75,8.18,2.67,15.65,2.8,24.44,3.23,5.96.49,12.33.3,18.08.39,4.18,0,8.29,2.02,12.42,2.37,3.12.08,5.74-1.73,8.71-2.52,2.79-.74,5.73-1.34,8.62-1.41s5.71.68,8.58.96c5.33.51,10.66,1.02,16,1.53,4.67.45,9.14-.31,13.81-.31,3.2.33,7.03,1.25,9.9,3.08,2.96,1.79,4.85,5.4,7.91,6.66,3.64,1.6,7.39-1.12,11.19-1.41,9.14-.07,19.82,2.33,28.12,2,4.16-.36,8.72-.03,12.94-1.18,7.82-3.08,17.48-1.84,23.44,4.19,2.12,1.71,4.29,1.42,6.66.2,2.59-1.35,5.05-3.21,7.83-4.24,7.06-2.3,14.6,2.56,21.39-.42,4.67-1.92,9.5-3.55,14.48-2.88,2.4.44,4.61,1.75,7.07,1.79,4.21-.01,8.68-1.53,12.88-.86,9.83,1.22,7.23-5.87,7.85-12.57.98-8.76,7.76-16.87,16.47-18.51,3.09-.64,6.82-.89,10.08-.86,3.61,0,6.56-.34,10.02.74,9.62,3.5,12.43,11.42,11.02,21.12-.71,5.5,1.36,8.45,6.7,9.66,7.83,2.05,13.5,10.14,13.83,18.06.06,4.13-1.26,8.1-2.13,12.1-1.56,8.57-3.78,17.84-12.64,21.19-5.89,2.04-8.19,2.02-7.71,9.2-.36,6.18,3.13,6.76,8.63,8.21,3.21.94,6.89,2.67,10.05,1,2.24-1.09,4.39-3.23,6.97-3.61,2.79-.49,5.82.69,8.12,2.38,7.65,5.57,9.89,16.69,6.32,25.24-1.09,2.75-2.72,5.22-4.77,7.35-2.15,2.43-5.59,4.12-7.57,6.56-2.29,2.97-4.98,10.46-2.23,13.84,1.03,1.36,2.83,2.38,4.26,3.4,2.55,1.67,4.4,4.18,5.18,7.13,2.62,9.03-2.08,17.04-10.17,21.07-3.32,2.2-6.83,5.63-8.13,9.31-1.05,3.21,2.32,5.37,4.36,7.3,6.8,5.9,6.02,16.65,4.3,24.91-.48,3.2-.77,6.67-1.74,9.8-2.63,8.85-11.32,14.31-20.07,11.31-6.11-.93-18.44-2.3-27.45-3.39-12.29-1.71-19.98,2.98-30.92-5.62-6.46-3.42-5.94,9.09-6.81,12.84-.66,4.21-2.83,8.36-5.82,11.13-3.92,3.29-7.75,7.16-13.08,6.34l-.18-.02Z"/>
  <path class="cls-8" d="M102.93,111.63c.89,1.57.69,3.41-.49,4.55-1.33,1.23-2.65,2.47-3.98,3.72-2.44,2.75-14.5,14.34-18.59,18.54,1.1,1.35,2.21,2.68,3.31,4.01.73.91,1.07,2.02.99,3.07-.12,1.19-.65,2.19-1.5,2.82-3.66,2.85-7.33,5.79-10.99,8.81-.6.52-1.43.82-2.31.82-.58,0-1.12-.13-1.62-.41-1.37-.66-1.97-1.7-4.38-6.25-1.14-2.18-3.52-6.77-4.56-8.03-1.87-2.2-5.94-5.13-10.63-7.72-1.08-.63-1.86-1.71-2.2-2.99-.32-1.38-.14-2.69.43-3.68,2.13-3.67,4.26-7.27,6.38-10.81.73-1.17,1.91-1.75,3.2-1.58.6.07,1.21.32,1.77.73,1.39,1.03,5.14,4.75,7.93,7.49,2.84-3.01,5.7-6.26,8.18-9.27-.4-.03-.83-.06-1.23-.06-3.69-.15-7.46-.35-10.34-.54-8.19-.46-13.27-.51-15.09-.07-1.58.54-6.25,1.86-9.85,2.89-.44.14-.85.17-1.25.12-.76-.11-1.45-.43-2.05-1-.91-.8-1.54-2.09-1.71-3.46-.86-6.88-1.71-13.81-2.55-20.8-.15-1.32.11-2.61.77-3.47.71-.91,1.7-1.3,2.8-1.1,4.81.91,9.62,1.74,14.45,2.53,1.62.27,3.24.54,4.86.8,3.24.52,6.49,1.04,9.74,1.54,11.53,1.46,20.88,1.92,28.48,1.65.29-.03.54.03.72.05,1.32.21,2.59,1.16,3.29,2.42,2.67,4.99,5.35,9.88,8.02,14.69Z"/>
  <path class="cls-8" d="M383.13,100.61c-.69-1-1.77-1.45-2.83-1.25-3,.45-6.01.88-9.02,1.3-2.81-.23-5.62-.47-8.43-.69.46-12.41,1.45-22.19,2-26.13.3-2.21-.73-3.97-2.48-4.2-.98-.12-3.39-.01-14.22,1.14-.09,0-.31.06-.4.08-1,.25-1.94.92-2.61,1.8-.81,1.01-1.24,2.28-1.2,3.43.32,16.5.52,27.83.47,33.67-.09,11.24-.6,22.24-1.44,30.21-1.01,2.56-2.03,5.09-3.04,7.61-.78,1.87-.21,3.98,1.35,5.09,3.42,2.37,6.85,4.8,10.28,7.31.63.47,1.34.71,2.13.71.36,0,.74-.05,1.12-.19,1.04-.36,1.89-1.2,2.33-2.27,2.28-5.37,4.98-12.54,4.99-15.43.03-5.64.15-11.76.43-19.13,6.16.76,11.02,1.28,15.14,1.54.29.02.51,0,.65-.02,1.87-.21,3.48-2.1,3.75-4.44.6-5.54,1.2-11.11,1.8-16.71.16-1.36-.13-2.65-.75-3.42Z"/>
  <path class="cls-6" d="M116.63,171.56c-.6,0-1.24-.06-1.83-.17-.11-.02-.22-.04-.32-.07-3.2-.75-5.79-2.84-7.09-5.74-.99-2.11-6.29-16.12-6.5-16.72-1.01-2.76-.78-5.8.64-8.32,1.44-2.66,4.1-4.52,7.15-4.99,4.72-.72,10.34-4.52,16.79-11.33-1.48.26-3.32.61-5.62,1.09-.12.02-.24.05-.37.06-.65.1-1.21.16-1.81.16-.26,0-.53-.01-.8-.04-2.06-.19-3.99-.97-5.6-2.26-.72-.55-1.37-1.21-1.93-1.94-.49,1.46-1.31,2.82-2.46,3.94-1.35,1.26-2.61,2.43-3.86,3.6-1.59,1.75-5.29,5.39-10.65,10.66-1.36,1.33-2.7,2.65-3.92,3.86,1.56,2.16,2.26,4.64,2.08,7.14-.33,3.16-1.76,5.74-4.05,7.45-3.57,2.78-7.22,5.71-10.75,8.62-1.65,1.43-3.94,2.27-6.35,2.27h-.04c-1.62,0-3.15-.38-4.53-1.12-3.19-1.59-4.43-3.93-7.08-8.93-2.1-4.03-3.38-6.33-3.89-7.01-.96-1.12-4.19-3.62-8.75-6.14-2.67-1.56-4.5-3.99-5.28-6.92-.73-3.14-.33-6.1,1.08-8.52.56-.97,1.12-1.93,1.68-2.88-.49.14-3.48.99-3.48.99-.78.24-1.71.39-2.64.39-.4,0-.79-.03-1.18-.08-2.14-.31-4.02-1.21-5.54-2.62-2-1.8-3.35-4.47-3.73-7.34-.86-6.92-1.71-13.86-2.56-20.86-.35-3.02.39-5.96,2.04-8.12,1.8-2.32,4.45-3.64,7.3-3.64.56,0,1.13.05,1.7.15,4.67.88,9.34,1.7,14.33,2.51,1.64.28,6.85,1.12,6.85,1.12,2.56.41,5.13.82,7.69,1.22,8.63,1.09,16.5,1.65,23.23,1.65,1.4,0,2.75-.02,4.04-.07.14,0,.29-.01.39-.01.51,0,.97.05,1.36.11,3.43.54,6.37,2.63,8.05,5.62,2,3.74,3.98,7.37,5.94,10.93l-1.05-8.67c-.29-3.14.68-5.97,2.64-7.95,1.83-1.84,4.31-2.85,6.99-2.85.26,0,.53,0,.8.03.12,0,.23.02.34.04,1.93.25,9.73,1.23,9.73,1.23,2.96.36,5.76.72,8.35,1.05,4.31.59,6.86.85,7.77.94h0c2.44,0,8.59-1.03,10.61-1.36.81-.13,1.36-.17,1.89-.17.27,0,.54.01.81.03,2.48.21,4.82,1.25,6.63,2.94.07.07,2.44,2.47,3.55,3.59,2.05,2.1,4.22,4.3,6.45,6.42,3.63,3.51,4.13,8.86,1.24,12.77-2.58,3.38-5.79,7.45-9.49,12.14-.78.99-1.59,2.02-2.42,3.06,1.88,1.5,3.13,2.43,3.96,3,1-.03,2.37-.11,4.13-.21.1,0,.74-.02.74-.02.1,0,.24,0,.34,0,2.73.05,5.51,1.32,7.44,3.48.47.54.87,1.12,1.2,1.71.39-.78.88-1.51,1.48-2.18,1.92-2.13,4.72-3.34,7.69-3.34.09,0,.22,0,.31,0,11.01.48,16.74.55,19.18.55,1.02,0,1.68-.01,2.15-.04.14,0,.27-.01.41-.01,1.62,0,4.07-.09,6.94-.25l.45-2.55c-5.72.09-11.49.14-17.22.14h-2.56c-1.43.34-3.73.78-8.45,1.54-.79.12-1.25.14-1.75.14-2.28-.04-4.3-.68-5.98-1.85-2.32-1.67-3.77-3.98-4.18-6.57l-2.13-14.12c-.42-2.98.53-5.89,2.6-8.02,1.98-1.98,4.58-3.02,7.39-3.02.06,0,.45,0,.53.01,11.86.76,21.26.92,27.05.92,1.42,0,2.76,0,4.02-.03,3.12-.05,5.85-.14,8.11-.28,2.59-.5,5.17-1.02,7.76-1.55.84-.2,1.52-.22,1.83-.23h.47c3.03,0,5.87,1.28,7.78,3.52.59.73,1.16,1.48,1.86,2.47l1.79,2.51c1.03,1.44,2.27,3.17,3.81,5.21.75-1.54,1.87-2.84,3.31-3.85,2.98-2.13,6-4.33,9.02-6.57,1.51-1.17,3.46-1.91,5.53-2.08.3-.03.6-.04.91-.04.67,0,1.33.07,1.97.19,2.04.38,3.91,1.42,5.3,2.92,1.02-.75,2.19-1.33,3.45-1.69,3.91-1.13,7.82-2.3,11.71-3.51.51-.16,1.21-.36,2.06-.43.27-.03.67-.05,1.06-.05,2.05,0,4,.6,5.64,1.73.08.05.16.11.23.17,1.39,1.06,2.43,2.43,3.08,3.98.9-1.63,2.23-3.04,3.87-4.05,1.18-.78,2.7-1.34,4.25-1.54.41-.06.87-.09,1.33-.09,1.29,0,2.52.24,3.67.73,4,1.51,7.99,3.04,11.99,4.61,2.72,1.05,4.81,3.34,5.68,6.28.71,2.46.47,5.11-.66,7.52-1.68,3.45-3.32,6.78-4.96,10.06-5.44,14.54-14.6,28.05-24.56,36.19-1.24,1.04-3.1,2.33-5.67,4.05l-1.55,1.06c-1.7,1.15-3.68,1.76-5.74,1.77-.01,0-.02,0-.04,0-2.94,0-5.73-1.23-7.66-3.39-2.17-2.41-4.35-4.81-6.54-7.18-2.18-2.34-3.07-5.61-2.37-8.74.64-3.05,2.75-5.67,5.68-7.03,2.12-.98,4.1-2.38,5.92-3.98-1.98-.32-3.77-1.21-5.17-2.52-1.48,1.01-2.94,2.01-4.4,3-1.59,1.07-3.47,1.69-5.43,1.78h-.55c-.7.01-1.36-.05-2.01-.19-2.64-.5-4.97-2.09-6.42-4.38-2.15-3.42-4.29-6.79-6.43-10.13l-3.04-2.9c-1.98,8.94-4.85,21.13-8.53,36.23-1.1,4.45-5.17,7.55-9.91,7.57,0,0-.05,0-.07,0-.41,0-1.02-.02-1.76-.15l-11.19-1.54c-1.67-.19-3.29-.82-4.68-1.83-5.51.15-11.02.29-16.53.43l-6.94,1.4c-1.13.2-1.6.21-2.03.22-2.02-.02-3.85-.52-5.46-1.45-2.46-1.46-4.13-3.78-4.65-6.41l-2-9.09c-.83,2.66-2.39,7.48-5.01,14.56-1.17,3.01-3.56,5.18-6.6,6.07-.77.26-1.83.42-2.95.43-2.22,0-4.32-.66-6.1-1.91-3.49-2.57-10.14-8.15-17.94-15.01-2.98,2.73-6.18,5.5-9.69,8.37-.92.8-2.19,1.83-3.78,3.09-1.24,1.01-2.53,2.06-3.81,3.13-1.83,1.49-4.11,2.31-6.45,2.33-.02,0-.13,0-.14,0ZM349.18,171.56c-2.17,0-4.57,3.08-6.3,1.78-3.24-2.37-6.66-4.8-10.07-7.16-4.09-2.89-5.21-11.9-3.27-16.55.88-2.17,1.78-4.42,2.68-6.69.76-7.55,1.24-17.94,1.32-28.72.05-5.82-.17-17.56-.47-33.5-.08-2.6.87-5.37,2.6-7.54,1.47-1.93,3.64-3.39,6.02-3.99.05-.01.1-.02.14-.04.26-.07.74-.18,1.33-.22,9.33-.99,12.32-1.2,13.92-1.2.7,0,1.19.04,1.57.09,2.45.32,4.59,1.56,6.07,3.5,1.65,2.15,2.33,4.95,1.94,7.88-.42,3.05-1.17,10.08-1.67,19.43l1.61.13c2.73-.38,5.45-.78,8.17-1.18.51-.09,1.02-.13,1.53-.13,2.93,0,5.7,1.44,7.45,3.87,1.59,2.09,2.3,4.97,1.96,7.94-.59,5.56-1.2,11.14-1.8,16.68-.61,5.32-4.55,9.54-9.37,10.08-.13.02-.56.07-1.12.07-.21,0-.43,0-.67-.02-2.47-.16-5.23-.4-8.57-.76-.11,4.13-.18,8.06-.2,12.03,0,1.23-.02,4.98-5.5,17.88-1.08,2.68-3.32,4.84-6.1,5.8-.93.34-2.04.54-3.2.55h-.02Z"/>
  <path class="cls-9" d="M102.93,111.63c.89,1.57.69,3.41-.49,4.55-1.33,1.23-2.65,2.47-3.98,3.72-2.44,2.75-14.5,14.34-18.59,18.54,1.1,1.35,2.21,2.68,3.31,4.01.73.91,1.07,2.02.99,3.07-.12,1.19-.65,2.19-1.5,2.82-3.66,2.85-7.33,5.79-10.99,8.81-.6.52-1.43.82-2.31.82-.58,0-1.12-.13-1.62-.41-1.37-.66-1.97-1.7-4.38-6.25-1.14-2.18-3.52-6.77-4.56-8.03-1.87-2.2-5.94-5.13-10.63-7.72-1.08-.63-1.86-1.71-2.2-2.99-.32-1.38-.14-2.69.43-3.68,2.13-3.67,4.26-7.27,6.38-10.81.73-1.17,1.91-1.75,3.2-1.58.6.07,1.21.32,1.77.73,1.39,1.03,5.14,4.75,7.93,7.49,2.84-3.01,5.7-6.26,8.18-9.27-.4-.03-.83-.06-1.23-.06-3.69-.15-7.46-.35-10.34-.54-8.19-.46-13.27-.51-15.09-.07-1.58.54-6.25,1.86-9.85,2.89-.44.14-.85.17-1.25.12-.76-.11-1.45-.43-2.05-1-.91-.8-1.54-2.09-1.71-3.46-.86-6.88-1.71-13.81-2.55-20.8-.15-1.32.11-2.61.77-3.47.71-.91,1.7-1.3,2.8-1.1,4.81.91,9.62,1.74,14.45,2.53,1.62.27,3.24.54,4.86.8,3.24.52,6.49,1.04,9.74,1.54,11.53,1.46,20.88,1.92,28.48,1.65.29-.03.54.03.72.05,1.32.21,2.59,1.16,3.29,2.42,2.67,4.99,5.35,9.88,8.02,14.69ZM280.74,122.35c-1.79-3.55-3.4-7.02-4.88-10.25-.34-.73-.68-1.45-1.02-2.18-.82-1.74-1.66-3.51-2.57-5.3-.42-.92-1.32-1.57-2.42-1.78-.34-.07-.7-.08-1.06-.05-.84.07-1.63.37-2.27.86-3.05,2.26-6.1,4.48-9.14,6.65-.91.64-1.48,1.53-1.63,2.62-.1.98.26,1.9.95,2.57,1.38,1.32,2.77,2.63,4.15,3.96,2.29,3.57,4.57,7.17,6.86,10.8.51.81,1.39,1.38,2.28,1.54.45.1.81.08,1.04.07.77-.03,1.51-.26,2.15-.69,2.08-1.4,4.16-2.82,6.24-4.26,1.54-1.09,2.12-3.03,1.33-4.57ZM378.64,100.61c-.68-1.03-1.73-1.35-2.81-1.25-3.03.26-6.1,1.15-9.03,1.23-2.92.08-5.62-.5-8.44-.66-.03-7.9,1.46-18.61,1.8-25.65.19-3.94.68-3.22-2.84-4.59-1.97-.77-10.54.93-13.63,1.09-.03,0-.37.08-.46.1-1.04.2-1.87,1.11-2.6,1.77-.72.66-1.2,2.81-1.19,3.44.18,8.99.52,25.78.48,32.67-.06,13.26-.5,19.2-1.26,30.84-.77,1.9-1.93,4.6-2.63,6.6-.7,2-.04,3.46,1.53,4.59,3.42,2.46,6.93,4.79,10.25,7.37.61.48,1.41.72,2.09.72s.48,0,1.24-.19c.76-.18,1.88-1.39,2.21-2.17,1.69-3.93,4.27-10.17,4.36-13.88.18-7.26.08-12.47.42-19.27,4.97.7,10.1,1.32,15.04,1.73.35.03.5.03.66,0,2.24-.58,3.43-2.12,3.73-4.42.7-5.44,1.21-11.17,1.82-16.62.15-1.32-.07-2.4-.74-3.43ZM281.69,115.52c.95,3.86,1.89,7.74,2.83,11.64.39,1.62,1.93,2.67,3.69,2.57.11,0,.25-.01.29-.04.11,0,.23,0,.34-.04,2.3-.49,4.6-1,6.9-1.51,2.05-.44,3.46-2.36,3.24-4.34-.57-5.17-.85-9.39-.91-13.65-.01-2.23-.03-4.46-.04-6.69.01-1.07-.45-2.02-1.3-2.67-.69-.48-1.57-.68-2.49-.57-.2.02-.43.07-.74.17-3.94,1.23-7.89,2.42-11.84,3.55-1.15.33-2.15,1.13-2.66,2.14-.51.95-.58,2.04-.16,3.01.96,2.13,1.91,4.28,2.87,6.43ZM326.43,105.29c-4.01-1.58-8.03-3.12-12.05-4.64-.54-.25-1.16-.31-1.79-.22-.63.08-1.21.31-1.71.64-1.06.66-1.84,1.73-2.07,2.89-.71,3.4-2.36,11.27-2.72,13.29-1.28,4.19-2.96,7.84-5.15,11.16-4.22,6.25-10.06,13.7-17.86,17.33-1.11.52-1.93,1.51-2.14,2.6-.26,1.09.05,2.24.82,3.07,2.2,2.39,4.4,4.81,6.6,7.25.71.79,1.76,1.26,2.91,1.26.79,0,1.53-.22,2.19-.67.53-.36,1.06-.72,1.58-1.08,2.56-1.71,4.17-2.84,5.19-3.69,9.16-7.49,17.67-20.09,22.74-33.8,1.68-3.37,3.37-6.77,5.05-10.23.48-1.02.58-2.11.32-3.01-.3-1.02-.97-1.8-1.9-2.16ZM240.68,106.43c-.36-.51-.72-1.02-1.08-1.52-.61-.86-1.1-1.51-1.51-2.02-.74-.87-1.88-1.33-3.1-1.28-.18,0-.43,0-.73.09-2.79.57-5.57,1.13-8.35,1.66-2.54.16-5.58.26-8.83.31-7.87.11-18.75-.08-31.57-.91-1.16-.03-2.22.36-2.94,1.09-.7.72-1.01,1.64-.87,2.64.71,4.7,1.41,9.39,2.12,14.07.14.88.69,1.73,1.52,2.33.66.46,1.47.69,2.31.71.23,0,.43,0,.77-.06,5.54-.89,7.57-1.32,8.66-1.63,9.4.03,18.81-.06,28.21-.29-.9,5.05-1.79,10.09-2.69,15.12-5.57.39-9.91.58-12.32.58-.56.04-1.35.05-2.41.06-3.77,0-10.31-.15-19.61-.55-1.17,0-2.28.44-3,1.24-.7.77-.99,1.78-.78,2.77.96,4.33,1.91,8.66,2.86,12.98.16.89.77,1.69,1.6,2.19.65.38,1.4.58,2.16.59.2,0,.43-.02.88-.09,2.5-.5,4.99-1,7.49-1.5,6.63-.16,13.26-.34,19.89-.52.09.2.2.38.34.55.63.8,1.55,1.3,2.56,1.42,3.78.52,7.57,1.04,11.35,1.56.34.07.63.07.79.07,1.78,0,3.36-1.13,3.75-2.71,4-16.41,7.04-29.39,9-38.37.21-.92.01-1.87-.57-2.57-2.62-3.39-4.49-6.05-5.88-7.98ZM170.09,137.13c-.07,0-.32,0-.38.01-3.25.2-5.16.27-6.22.24-.04,0-.08,0-.11,0-2.31-1.26-7.07-5.13-11-8.43,6.34-8.08,11.81-14.92,15.65-19.95.99-1.34.77-3.12-.5-4.36-2.23-2.12-4.42-4.33-6.59-6.56-1.12-1.13-2.24-2.26-3.36-3.41-.78-.72-1.75-1.17-2.77-1.25-.34-.03-.66-.02-1.06.05-2.74.46-10.01,1.68-12.38,1.44-.43-.04-3.12-.3-7.87-.95-2.6-.33-5.42-.69-8.45-1.06-3.02-.39-6.23-.78-9.74-1.23-1.08-.08-2.09.25-2.78.94-.64.65-.95,1.6-.85,2.71.63,5.23,1.26,10.44,1.9,15.63.15,1.11.79,2.17,1.6,2.77.66.54,1.43.86,2.26.94.41.04.76-.03,1.12-.08,9.39-1.94,12.09-2.01,12.81-1.94,2.63.2,5.26.38,7.9.56-11.09,14.56-20.76,22.81-29.62,24.16-1.12.17-2.06.84-2.54,1.78-.53.9-.61,2.03-.21,3.11.32.91,5.46,14.43,6.31,16.23.48,1.07,1.44,1.85,2.74,2.16.25.04.54.07.79.06.88,0,1.75-.31,2.44-.87,1.3-1.07,2.6-2.14,3.9-3.2,1.54-1.23,2.76-2.21,3.63-2.97,4.84-3.96,9.43-8.01,13.67-12.15.26.24.53.48.79.72,9.76,8.69,17.45,15.15,20.93,17.72.72.51,1.53.76,2.41.75.43,0,.83-.05,1.19-.17,1.12-.33,1.99-1.1,2.41-2.18,2.94-7.93,4.47-12.82,5.29-15.47.13-.43.27-.86.4-1.3.33-1.07.08-2.18-.69-3.08-.75-.84-1.86-1.34-3.01-1.36Z"/>
  <path class="cls-6" d="M291.08,320.47c-.52,0-1.04-.04-1.56-.12-1.01-.16-2.04-.5-3.12-1.04-3.35-1.75-6.6-3.39-9.85-5-2.53-1.31-4.41-3.38-5.39-5.89-.03-.08-.06-.16-.09-.24-.94-2.73-.79-5.54.44-7.95.02-.05.04-.09.07-.14-1.1.38-2.18.56-3.29.56-.32,0-.64-.01-.97-.04-.76-.08-1.68-.21-2.76-.63-2.33-.83-4.45-2.69-5.69-5.06-2.24-4.41-4.44-8.69-6.65-12.92-.6-1.12-.97-2.33-1.11-3.57-1.88,1.79-4.39,2.8-7.02,2.8,0,0-.41,0-.51-.01-2.93-.14-5.87-.26-8.82-.38-1.07,4.13-2.76,8.18-5.1,12.25-1.34,2.3-5.15,8.42-12.01,16.57-1.57,2-4.21,3.33-7.12,3.53-.22.02-.46.03-.64.03-.17,0-.36,0-.56-.02-2.56-.13-4.96-1.14-6.78-2.85-2.6-2.5-4.64-4.82-6.36-6.8l-1-1.1c-1.19-1.31-2.42-2.67-3.71-3.93-2.48-2.41-3.5-5.96-2.64-9.27.03-.13.07-.25.11-.37,1.04-3.19,3.63-5.64,6.93-6.55,2.03-.54,3.39-.93,4.32-1.21.08-.1.15-.2.23-.3-2,.17-4.01.38-5.99.61,0,0-.43.04-.62.05-.21.02-.44.03-.6.03h-.09s0,0,0,0c-2.24-.02-4.45-.75-6.22-2.08-.58-.44-1.11-.94-1.57-1.47-1,4.35-5.1,7.61-9.97,7.62,0,0-.17,0-.24,0-3.14,0-25.17.37-33.83.77l-2.95.1c-1.47.22-4.41.62-6.96.96l-3.41.46-.79.12c-.22.03-.43.05-.65.06l-.91.03c-2.95,0-5.61-1.19-7.44-3.14-.63,1.41-1.62,2.71-2.87,3.74-4.18,3.39-8.33,6.8-12.49,10.28-1.65,1.42-3.84,2.32-6.1,2.5-.25.02-.58.04-.82.04-.03,0-.19,0-.23,0-.22,0-.54-.02-.82-.05h0c-3.12-.31-5.79-1.92-7.35-4.44-.57-.87-1.97-3.11-3.62-5.91-1.2-2.02-3.56-6.1-5.75-10.45-1.75-3.36-3.37-6.6-4.85-9.7-6.36,15.37-14.22,29.07-22.99,40.01-1.79,2.19-4.29,3.64-6.9,4.04-.11.02-.28.04-.39.05-.38.04-.75.06-1.11.06-2.88,0-5.47-1.14-7.28-3.2-3.28-3.89-6.48-7.73-9.69-11.63-1.79-2.03-2.55-5.1-1.93-8.1.49-2.59,2.06-5.01,4.32-6.64l.83-.58c2.21-1.54,4.48-3.11,5.93-4.12,3.9-5.74,6.93-11.17,8.29-14.86.09-2.28.13-6.62.1-12.22-.06-3.31,1.61-6.5,4.48-8.45,1.64-1.1,3.48-1.72,5.38-1.84.13,0,.47-.02.61-.02,1.18,0,2.37.22,3.55.64.09.03.19.07.28.11,4.29,1.78,8.58,3.53,12.87,5.26,1.01-1.22,2.32-2.24,3.9-2.94,3.33-1.53,4.72-2.28,8.15-4.19,1.54-.81,3.13-1.25,4.72-1.32.1,0,.39-.01.49-.01.22,0,.43,0,.64.02.4-1.98,1.11-3.93,2.14-5.81.04-.07.08-.15.13-.22,3.71-6.17,9.63-9.68,16.66-9.9,0,0,1-.03,1.27-.03,3.49,0,6.8.74,9.56,2.13,7.22,3.82,11.05,10.17,10.89,17.94-.09,4.37-1.35,8.34-3.68,11.64,1.99-.09,4.31-.17,6.87-.25,11.74-.4,28.05-.58,31.17-.6,2.41-.31,11.21-1.41,12.28-1.54.34-.05.77-.07,1.08-.08.13,0,.13,0,.26,0,2.4,0,4.64.75,6.43,2.12.5-1.25,1.28-2.41,2.29-3.38.69-.68,1.48-1.25,2.34-1.71l-1.95-10.47c-.6-2.88.25-5.93,2.29-8.2,1.87-2.12,4.67-3.39,7.64-3.44,10.62-.34,22.55-.91,35.4-1.71.14-.02,1.3-.21,4.79-.9l2.24-.4c.59-.09.98-.12,1.32-.14.07,0,.51-.02.56-.02,2.21,0,4.31.68,6.06,1.96.1.07.2.15.3.23,2.17,1.79,3.51,4.36,3.67,7.05l.72,11.45c.17,1.94-.33,3.95-1.4,5.7.99,1.16,1.72,2.55,2.09,4.09.99,4.26,1.95,8.46,2.92,12.69.08.36.15.72.19,1.09,1.73-1.66,4.04-2.69,6.5-2.81,2.08-.07,4.28-.28,6.62-.64,5.15-2.66,21.49-13.29,24.11-15.56.68-.8,3.24-4.01,4.21-5.37,2.06-2.73,5.01-4.22,8.2-4.22,3.61.05,6.76,1.85,8.6,4.82,2.59,4.12,5.2,8.36,7.81,12.69.55.89.96,1.87,1.22,2.9,1.64-1.14,3.66-1.77,5.78-1.77.05,0,.22,0,.28,0,2.29.1,5.2.28,8.49.5,11.49.74,27.37,2.11,30.89,2.44,2.48-.16,11.01-.74,11.95-.81.19-.02.49-.03.76-.03.38,0,.69.02.93.05,2.63.2,5.23,1.62,7.01,3.87,1.61,1.92,2.55,4.75,2.46,7.63l-.81,15.9c-.24,5.54-4.4,9.76-9.66,9.76,0,0,0,0,0,0-.49,0-.99-.04-1.49-.12-1.53-.25-24.57-3.42-33.61-4.43l-2.89-.35c-.55,0-1.28.01-2.12.01-2.58,0-6.19-.04-8.07-.07,0,0-.89,0-.9,0-.27,0-.54-.02-.81-.05l-.32-.04c-4.66-.57-8.34-4-9.25-8.55-.83-4.31-1.65-8.55-2.47-12.76-.2.15-.41.29-.63.42-3.52,2.12-7.54,4.63-12.81,8.01-.15,6.49-.22,13.56-.2,21.95-.02,2.23-.53,3.67-2.08,7.53-1.82,4.38-3.54,7.15-7,8.57-1.33.5-2.5.71-3.69.71ZM107.93,268.6c1.64,1.14,4.28,2.95,6.32,4.32l-.91-4.23c-.27-1.42-.24-2.81.07-4.12-1.14.28-2.32.46-3.52.52-.1,0-.75.02-.75.02-1.14,0-2.25-.06-3.31-.18.76,1.33,1.48,2.57,2.12,3.66Z"/>
  <path class="cls-9" d="M70.67,255.62c-6.68,18.41-15.45,34.54-25.33,46.85-.75.92-1.81,1.57-2.9,1.73-.02,0-.04,0-.07,0-1.23.12-2.29-.24-2.96-1.01-3.18-3.77-6.36-7.59-9.55-11.47-.61-.7-.84-1.75-.6-2.82.17-1,.85-2.03,1.8-2.71.26-.18.51-.36.77-.54,2.77-1.94,5.66-3.93,6.85-4.76,4.8-6.93,8.52-13.62,10.02-18.2.03-.47.21-2.91.16-13.48-.02-1.23.6-2.41,1.69-3.16.66-.44,1.4-.69,2.19-.74.52-.03,1.05.06,1.59.25,4.84,2.01,9.67,3.98,14.5,5.92,1.67.65,2.46,2.41,1.84,4.11ZM121.83,240.49c-.08,3.77-1.36,7.07-3.73,9.58-2.23,2.53-5.23,4-8.58,4.17-.02,0-.04,0-.07,0-7.58.09-12.72-2.98-14.93-9.04-1.52-3.73-1.28-7.73.75-11.43,2.61-4.33,6.54-6.67,11.4-6.82.15,0,.3-.01.45-.01,2.74-.09,5.27.41,7.32,1.44,5.05,2.67,7.5,6.74,7.39,12.12ZM109.67,244c3.47-2.06.62-8.56-3.26-6.61-3.57,1.97-1,8.59,3.11,6.69l.15-.09ZM103.14,268.52c-3.08-5.22-10.93-19.01-12.95-23.64-.36-.86-1.16-1.55-2.14-1.84-.4-.14-.85-.19-1.34-.17-.67.03-1.33.21-1.92.52-3.45,1.93-5.02,2.78-8.69,4.46-1.88.83-2.82,2.84-2.11,4.54,2.52,6.14,5.85,13.18,9.86,20.89,1.76,3.51,3.82,7.17,5.55,10.08,1.71,2.91,3.1,5.1,3.51,5.74.5.83,1.45,1.39,2.59,1.5.13.02.2.02.34,0,.07.02.31,0,.4-.01.92-.07,1.83-.45,2.51-1.03,4.18-3.5,8.36-6.93,12.54-10.32.87-.71,1.36-1.71,1.36-2.63.02-.98-.48-1.89-1.34-2.5-2.66-1.79-6.8-4.63-8.17-5.61ZM382.44,265.79c-.7-.89-1.66-1.41-2.64-1.48-.13-.01-.34-.03-.6,0-1.03.08-11.09.75-12.52.84-1.7-.18-19.06-1.68-31.21-2.47-3.23-.22-6.08-.4-8.23-.49-1.19-.03-2.27.45-2.95,1.29-.68.82-.94,1.9-.75,3.01.89,4.57,1.78,9.17,2.67,13.81.36,1.83,1.9,3.24,3.71,3.46.14.02.28.03.43.05.34,0,.67,0,1.01,0,2.62.04,8.62.1,10.39.05,1.1.13,2.19.26,3.29.4,9.2,1.03,32.7,4.25,33.89,4.46,2,.32,3.7-1.28,3.8-3.67.27-5.25.53-10.51.8-15.78.04-1.29-.36-2.6-1.09-3.47ZM306.9,245.36c-.69-1.1-1.85-1.79-3.11-1.81-1.21-.03-2.34.55-3.09,1.55-1.21,1.7-4.44,5.73-4.83,6.11-2,2.1-21.89,15.05-26.74,17.26-2.91.49-5.66.78-8.25.87-1.28.06-2.44.8-3.02,1.83-.57,1.04-.59,2.28,0,3.4,2.22,4.25,4.43,8.55,6.65,12.92.49.93,1.36,1.71,2.32,2.06.43.16.81.21,1.06.23.72.07,1.4-.05,2.08-.38,3.74-1.98,7.04-3.67,9.78-5.1.23-.11.47-.23.7-.34-.11,4.02-.36,6.96-.76,8.71-.07.38-.74,2.28-2.49,5.92-.46.86-.49,1.94-.12,3.02.42,1.06,1.24,1.96,2.27,2.49,3.3,1.62,6.59,3.29,9.88,5.01.45.22.87.38,1.28.45.61.1,1.21.04,1.82-.19.93-.38,1.83-1.02,3.51-5.06,1.52-3.78,1.61-4.27,1.62-5.14-.02-9.32.06-17.67.29-25.5,5.97-3.85,11.13-7.12,15.74-9.89.88-.55,1.52-1.47,1.76-2.65.17-1.1-.05-2.26-.6-3.15-2.59-4.29-5.17-8.49-7.77-12.62ZM244.77,253.54c-.41-1.66-1.93-2.82-3.68-2.85-.11,0-.31,0-.56.03-10.26,1-22.36,1.39-35.92,1.38-4.28,0-8.31-.03-12.41-.14-1.13,0-2.19.44-2.86,1.13-.75.7-1.13,1.68-1.01,2.6.36,3.97.73,7.93,1.09,11.91.12.88.58,1.67,1.32,2.23.69.51,1.57.81,2.47.82.14,0,.25-.02.25-.02.09,0,.18,0,.27-.02,5.74-.67,11.82-1.12,17.03-1.25-.11,1.13-.2,1.44-.22,1.51-1.5,4.18-3.84,8.16-6.6,11.27-.54.19-2.07.7-6.33,1.84-1.23.34-2.19,1.21-2.57,2.38-.29,1.11.05,2.27.92,3.11,1.67,1.63,3.16,3.31,4.6,4.9.16.17.31.34.47.51,1.78,2.05,3.65,4.16,5.9,6.32.71.67,1.68,1.07,2.72,1.13.05,0,.11,0,.16,0,.09.01.16,0,.25,0,1.16-.07,2.16-.55,2.73-1.28,6.51-7.73,10.11-13.5,11.36-15.63,2.98-5.19,4.76-10.35,5.39-15.66,4.79.17,9.57.37,14.36.59,1.19.06,2.3-.41,3.08-1.31.66-.84.92-1.92.69-2.94-.97-4.22-1.93-8.41-2.9-12.59ZM193.69,246.75c.14.88.72,1.7,1.54,2.18.6.39,1.36.59,2.2.6.2,0,.59,0,.95-.1,4.09-.94,6.6-1.61,7.82-1.95,11.31-.4,22.62-.74,33.92-1.05,1.08.01,2.12-.45,2.81-1.2.71-.72,1.05-1.68.98-2.6-.24-3.83-.48-7.65-.72-11.47-.06-.94-.54-1.84-1.36-2.52-.69-.5-1.52-.75-2.4-.73-.18.01-.41.02-.65.05-.71.13-1.43.26-2.14.38-2.03.4-4.66.91-5.63,1-13.16.81-25.2,1.39-35.68,1.72-1.21.02-2.3.52-3.01,1.32-.69.77-1,1.77-.79,2.69.72,3.88,1.45,7.76,2.18,11.66ZM176.21,256.16c-.11,0-.34,0-.61.04-1.15.14-11.2,1.39-12.62,1.58-1.71,0-19.2.18-31.4.6-3.24.1-6.1.21-8.26.31-1.19.08-2.28.6-2.98,1.42-.69.79-.96,1.78-.78,2.74.85,3.96,1.71,7.92,2.56,11.87.35,1.55,1.88,2.57,3.71,2.49.14,0,.29-.01.43-.02.35-.05.69-.1,1.04-.15,2.62-.36,8.67-1.14,10.46-1.43,1.09-.04,2.18-.08,3.27-.12,9.22-.42,33.12-.82,34.34-.77,2.03,0,3.75-1.4,3.85-3.2.26-3.97.51-7.94.77-11.91.04-.98-.37-1.93-1.11-2.52-.71-.62-1.67-.94-2.67-.93Z"/>
  <path class="cls-6" d="M348.42,197.98c-.32-7.23.93-14.85,3.32-22.25-3.23,0-6.47.02-9.69.03-.89-.02-1.76-.05-2.64-.05h-94.19c-.59,0-1.16.03-1.73.05-1.26-.15-2.54-.12-3.81-.02-8.36,0-16.74-.02-25.12-.02-.05-.03-.1-.03-.13,0-22.87,0-45.72,0-68.57.02-3.46,0-6.9.03-10.34.05-2.87-.2-5.76-.1-8.65-.03-2.92-.08-5.86-.1-8.78,0-3.96-.08-7.91-.1-11.85.02-.42-.03-.84-.07-1.26-.07-22.23-.02-44.48.03-66.71-.05-4.01-.02-6.31,3.51-4.43,7.03,2.15,4,3.98,8.18,6.06,12.22,1.54,2.96,1.54,5.78.02,8.75-2.15,4.18-4.18,8.43-6.23,12.66-1.46,3.02.23,6.11,3.56,6.5,1.21.13,2.43.15,3.66-.03,1.96,0,3.93-.02,5.89-.02h16.82c11.67.02,23.34.03,35.01.05.91,0,1.83-.03,2.74-.05.39.03.76.08,1.14.08h84.89c17.81.02,35.61.02,53.43.03.54,0,1.07-.05,1.61-.07,2.67.15,5.36.2,8.04-.02h2.25c2.01.2,4.01.2,6.03,0,.81.02,1.61.03,2.42.03,29.16,0,58.35.02,87.53,0,1.36,0,2.72,0,4.08,0-2.59-8.04-3.98-16.51-4.35-24.85Z"/>
  <path class="cls-9" d="M405.95,178c-.68,7.71-6.77,14.56-14.6,15.44-1.24.11-1.59.23-1.68,1.73-.92,6.88-1.04,14.55-2.46,21.28-.24.36-.62.61-1.09.82-3.01,1.15-5.7,3.56-6.87,6.63-2.28,5.13-.27,11.7,4.4,14.6.49.34.89.72,1.06,1.23.84,12.93-13.67,9.39-21.96,9.25-1.08,0-1.61.39-2.34,1.23-1.88,1.99-4.87,5.16-6.49,6.87-1.54,2.11-3.94,2.07-4.36-.67-.43-2.17-1.3-6.8-1.63-8.32-.18-.76-.87-.82-1.55-.92-5.9-.91-13.13-1.42-17.27-6.19-1.91-3.27-.7-6.24-.59-10.09,1.05-14.67,2.61-29.2,4.75-43.73.15-.84.09-1.74-.66-2.25-6.89-3.36-10.74-11.26-9.31-18.61.77-4.78,4.47-9.19,9.13-10.49,1.18-.34,2.69.02,2.89,1.42.2,1.04-.2,2.09-.38,3.11-.48,2.16.11,4.81,1.45,6.77.31.43.73.87,1.23.57,2.99-3.96,6.2-6.06,11.38-5.29,11.42,1.18,22.72,3.33,33.8,6.4,3.35.87,7.16,2.56,8.17,6.14.29,1,.79,1.34,1.57.82,2.11-1.42,3.74-4.15,3.87-6.58.18-1.35-.09-3.26,1.21-4.08,1.01-.46,2.26.26,3.11.85,3.51,2.54,5.69,7.36,5.27,11.81l-.02.23Z"/>
  <g>
    <path class="cls-6" d="M352.93,230.53c1.2.15,2.6.76,2.32,2.98-.28,2.25-1.75,2.47-2.98,2.32l-10.57-1.31c-2.68-.33-2.64-2.73-2.57-3.33.36-2.94,2.92-5.11,6.4-7.08,3.77-2.14,4.92-2.78,5.2-5.09.07-.54.28-2.51-1.37-2.72-1.85-.23-2.25,1.57-2.51,2.76-.19.79-1.22,1.64-3.1,1.41-1.57-.19-3.02-1.1-2.78-3.04.27-2.17,2.54-7.24,8.96-6.44,4.76.59,7.53,4.2,6.95,8.85-.53,4.3-3.06,5.81-6.83,8.01-.69.41-2.57,1.59-2.61,1.88-.01.11.13.13.39.16l5.1.63Z"/>
    <path class="cls-6" d="M359.63,232.49c-1.74-.21-2.78-1.85-2.53-3.84.14-1.17.64-2.12.98-2.57l8.44-10.91c1-1.27,2.37-1.82,3.73-1.65,2.37.29,2.87,2.06,2.75,3.06l-1.48,12c.73.15,2.34.46,2.04,2.91-.31,2.51-1.92,2.42-2.7,2.39l-.26,2.14c-.13,1.08-.59,2.65-3.29,2.31-1.94-.24-2.97-1.03-2.72-3.06l.26-2.14-5.22-.65ZM365.7,227.86l.71-5.73c.01-.11-.03-.21-.12-.22-.11-.01-.15.04-.22.12l-3.79,4.91c-.1.13-.17.21-.18.3-.02.14.06.18.23.2l3.36.42Z"/>
  </g>
  <path class="cls-6" d="M342.14,207.3c-.53-.12-.9-.37-1.1-.76-.25-.48-.31-.96-.16-1.41.13-.4.42-.75.8-.94.24-.13.5-.16.63-.17l32.95-3.06s.23-.01.51.05c.53.12.9.37,1.1.76.25.47.3.94.15,1.38-.14.4-.45.75-.85.96-.27.14-.46.18-.58.19l-32.95,3.06s-.23.01-.51-.05Z"/>
  <path class="cls-6" d="M356.83,174.16c.69-3.01,2.21-3.17,4.15-2.93l7.3.9c1.23.15,2.63.76,2.35,3.01-.27,2.19-1.75,2.45-3,2.29l-5.64-.7c-.37-.05-.68.15-.76.54l-.52,2.31c.61-.27,1.35-.59,2.97-.39,3.68.45,6.87,3.66,6.24,8.73-.79,6.38-5.36,8.28-9.35,7.79-6.04-.75-7.44-5.55-7.25-7.12.22-1.8,1.77-2.18,3.11-2.02,2.39.3,2.71,1.52,2.91,2.41.15.63.68,1.27,1.68,1.39,1.91.24,2.48-1.31,2.67-2.88.2-1.65-.36-2.97-1.92-3.16-.46-.06-1.15-.08-1.81.33-.82.51-1.41.87-2.69.71-.68-.08-2.93-.45-2.38-2.78l1.94-8.44Z"/>
  <path class="cls-6" d="M399.17,229.35c-.61,4.92-5.08,8.42-10.01,7.81-4.9-.61-8.42-5.07-7.81-10.01.62-4.98,5.12-8.41,10.01-7.81,4.9.61,8.42,5.05,7.81,10.01ZM391.72,224.59l.37-2.99c.08-.66-.37-.85-.94-.92-.49-.06-.95.07-1.02.68l-.37,2.99-4.13-.51c-.28-.03-.9-.09-1.02.81-.11.9.53.98.79,1.01l4.13.51-.7,5.68-4.89-.6c-.56-.07-.93.11-1.02.83-.11.88.57.97.79,1l11.67,1.44c.36.04.91.06,1.02-.81.11-.9-.55-.98-.79-1.01l-4.83-.6.7-5.68,4.17.52c.26.03.9.11,1.02-.81.11-.9-.57-.99-.79-1.01l-4.17-.52Z"/>
  <g>
    <path class="cls-2" d="M66.83,204.44c.16.2.47.65.47,1.2,0,.98-1.1,2.16-2.43,2.16-.47,0-.94-.22-1.26-.63l-4.77-5.98-1.12,1.02v3.69c0,.53-.04,1.9-2.16,1.9-1.43,0-2.22-.51-2.22-1.9v-13.27c0-.53.04-1.9,2.16-1.9,1.43,0,2.22.51,2.22,1.9v3.85l5.51-5.08c.47-.43.78-.67,1.35-.67,1.1,0,2.28,1.26,2.28,2.14,0,.59-.24,1.14-.67,1.53l-4.26,3.92,4.89,6.12Z"/>
    <path class="cls-2" d="M73.5,192.38c0,1.22-.98,2.24-2.24,2.24s-2.22-1-2.22-2.24,1.02-2.24,2.22-2.24,2.24.98,2.24,2.24ZM73.38,205.97c0,.67-.14,1.82-2.04,1.82-1.26,0-2.18-.31-2.18-1.82v-9.14c0-.67.14-1.82,2.02-1.82,1.28,0,2.2.31,2.2,1.82v9.14Z"/>
    <path class="cls-2" d="M83.19,192.55c0-.67.14-1.82,2.02-1.82,1.26,0,2.2.33,2.2,1.82v13.42c0,1.28-.65,1.82-2.14,1.82-1.39,0-1.88-.43-2.06-1.28-.47.55-1.22,1.28-2.61,1.28-3.16,0-5.06-3.04-5.06-6.51,0-2.98,1.53-6.28,4.94-6.28.77,0,1.9.2,2.71,1.12v-3.57ZM79.89,201.4c0,.73.08,2.75,1.63,2.75s1.67-2.02,1.67-2.75c0-.67-.08-2.75-1.65-2.75s-1.65,2.12-1.65,2.75Z"/>
    <path class="cls-2" d="M100.56,198.22c0,.71-.57,1.43-1.94,1.43-.84,0-1.45-.22-1.75-.8-.26-.53-.53-.79-1.71-.79-.8,0-1.39.27-1.39.65,0,.43,1.55.79,2.9,1.1,1.75.39,4.26,1.02,4.26,3.77,0,3.26-2.92,4.22-5.69,4.22-4,0-5.73-1.98-5.73-3.39,0-.98.67-1.65,1.9-1.65,1.04,0,1.35.27,1.9,1.28.24.41.82.61,1.88.61,1.45,0,1.81-.29,1.81-.69,0-.43-.26-.49-2.83-1.08-2.35-.55-4.28-1.33-4.28-3.83,0-.9.35-4.04,5.47-4.04,4.34,0,5.18,2.43,5.18,3.22Z"/>
    <path class="cls-2" d="M118.37,192.63c0-.53.04-1.9,2.16-1.9,1.43,0,2.22.51,2.22,1.9v8.65c0,2.04-.49,3.96-2.14,5.18-1.37,1-3,1.33-4.55,1.33-2.53,0-4.45-.96-5.48-2.26-.82-1.04-1.18-2.61-1.18-4.24v-8.67c0-.53.04-1.9,2.16-1.9,1.43,0,2.22.51,2.22,1.9v8.54c0,.71,0,2.71,2.3,2.71s2.3-2.04,2.3-2.71v-8.54Z"/>
    <path class="cls-2" d="M130.3,205.9c0,.53-.04,1.9-2.16,1.9-1.43,0-2.22-.51-2.22-1.9v-11.75c0-2.28,1.1-2.98,2.98-2.98h3.39c1.65,0,2.83.18,3.65.69,1.37.84,2.53,2.37,2.53,4.65s-1.1,3.92-2.37,4.75c-.96.63-2.33.8-3.81.8h-2v3.85ZM130.3,198.18h1.82c1.41,0,1.86-.61,1.86-1.59s-.55-1.55-1.86-1.55h-1.41c-.27,0-.41.14-.41.39v2.75Z"/>
    <path class="cls-2" d="M148.24,204.46c-1.06,1.61-2.28,2.49-3.94,2.49-3.04,0-4.26-3-4.26-5.97,0-6.71,5.08-9.46,9.6-9.46,5.22,0,8.58,3.04,8.58,8.34,0,2.47-.79,4.96-2.71,6.52-2.02,1.65-4.71,2.08-5.71,2.08-1.81,0-1.88-1.67-1.88-1.96,0-1.53.98-1.69,2.06-1.86,1.61-.26,4.3-.84,4.3-4.96,0-2.16-.9-4.1-3.16-4.49-.31,2.41-1.33,6.95-2.87,9.28ZM143.71,201.03c0,1.28.43,1.84.8,1.84.67,0,1.2-1.37,1.49-2.18.88-2.51,1.18-4.28,1.35-5.38-2.53.98-3.65,3-3.65,5.71Z"/>
    <path class="cls-2" d="M164.11,207.58c0,.43,0,1.81-1.73,1.81-1.55,0-1.75-1.06-1.75-1.81v-6.42c-1-.12-1.77-1.06-1.77-2.18,0-.73.2-1.08.9-2.35.82-1.49,1.08-2.75,1.45-4.61.14-.63.29-1.47,1.69-1.47.14,0,.75.02,1.24.31.57.33.65.77.65,1.3,0,1.22-.45,2.9-.69,3.73v11.7ZM172.75,207.6c0,.43,0,1.81-1.75,1.81-1.51,0-1.94-.67-1.94-1.81v-3.61h-1.94c-1.79,0-2.53-.77-2.53-2.55v-5.55c0-1.82.78-2.53,2.53-2.53h1.94v-1.06c0-.43,0-1.81,1.73-1.81,1.55,0,1.96.69,1.96,1.81v1.06h2.18c1.61,0,2.53.59,2.53,2.53v5.55c0,1.98-.94,2.55-2.53,2.55h-2.18v3.61ZM169.06,200.46v-3.69h-.71c-.2,0-.35.14-.35.33v3.02c0,.2.14.33.35.33h.71ZM172.75,200.46h.8c.22,0,.35-.14.35-.33v-3.02c0-.2-.16-.33-.35-.33h-.8v3.69Z"/>
    <path class="cls-2" d="M182.38,207.82c0,.41,0,1.55-1.57,1.55-1.31,0-1.79-.47-1.79-1.55v-14.17c0-2.02.94-2.61,2.61-2.61h3.41c1.61,0,2.61.55,2.61,2.61v2.88c0,2.06-1,2.61-2.61,2.61h-2.67v8.67ZM184.46,194.04v-.41c0-.14-.1-.22-.2-.22h-1.67c-.1,0-.22.04-.22.22v.41h2.08ZM182.38,196.2v.63h1.86c.12,0,.22-.08.22-.22v-.41h-2.08ZM185.74,207.64c-1.75,0-2.61-.69-2.61-2.61v-2.85c0-2.02.96-2.63,2.61-2.63h4.42c1.73,0,2.61.65,2.61,2.63v2.85c0,.18,0,.31-.02.55.57-.02.63-.02.73-.08.08-.06.08-.18.08-.45v-5.91h-2.75c-1.71,0-2.61-.63-2.61-2.61v-2.88c0-2.02.96-2.61,2.61-2.61h3.49c1.53,0,2.61.49,2.61,2.61v12.5c0,2.04-.14,3.1-3.38,3.1-2.67,0-3.36-.2-3.61-1.61h-4.18ZM186.4,202.58h3.04v-.39c0-.22-.18-.24-.22-.24h-2.63c-.12,0-.2.1-.2.24v.39ZM186.4,204.42v.41c0,.14.08.22.2.22h2.63c.1,0,.22-.04.22-.22v-.41h-3.04ZM191.55,194.04h2v-.41c0-.12-.08-.22-.22-.22h-1.57c-.12,0-.22.08-.22.22v.41ZM193.55,196.2h-2v.41c0,.16.1.22.22.22h1.79v-.63Z"/>
    <path class="cls-2" d="M205.01,191.45c.24-.29.61-.59,1.55-.59.37,0,1.94.06,1.94,1.33,0,.18-.02.31-.08.51,2.51-.08,2.79-.08,4.24-.14.22-.02.75-.04.92-.04.39,0,1.84,0,1.84,1.73,0,1.45-1.14,1.63-1.43,1.67-.59.1-6,.25-7.5.27-.16.26-.31.51-.49.8.88-.25,1.41-.37,2.1-.37,1.55,0,2.24.59,2.71,1.28,1.33-.45,2.69-.88,3.61-.88,1.69,0,1.71,1.75,1.71,1.9,0,1.47-1.14,1.73-1.83,1.86-1.83.39-2.02.41-2.63.59.06.63.08,1.28.08,1.59,0,.71,0,2.12-1.83,2.12-.92,0-1.65-.47-1.79-1.18-.06-.31-.06-.82-.04-1.26-.67.29-2.06.98-2.06,1.82,0,.51.39.88,2.77.88,1,0,1.84-.08,3.16-.26.24-.04,1.49-.22,1.61-.22,1.24,0,1.53,1.12,1.53,1.77,0,.86-.41,1.41-1.08,1.65-1.37.49-3.81.49-4.4.49-2.69,0-7.54,0-7.54-3.69,0-3.34,4.06-5.24,5.12-5.73-.08-.04-.2-.08-.37-.08-2.16,0-4.06,2.57-4.71,3.43-.41.55-.82,1.08-1.71,1.08-.94,0-1.94-.82-1.94-1.81,0-.67.22-.9,1.53-2.33.92-1,1.43-1.65,2.59-3.41-2,.02-2.22.02-2.63-.22-.51-.27-.8-.86-.8-1.51,0-1.26.75-1.71,1.9-1.71.84,0,2.43-.02,3.34-.04.43-1.08.49-1.2.59-1.33Z"/>
    <path class="cls-2" d="M233.4,190.94c1.55,0,2.51.53,2.51,2.57,0,.43-.2,3.59-.47,4.53-.55,1.79-1.69,1.79-3.36,1.79-.98,0-1.29,0-1.71-.22-.53-.29-.75-.96-.75-1.55-.84,1.28-2.14,2.26-3.1,2.26-.59,0-1.1-.33-1.45-.8.27,1.14.29,1.28.29,1.53,0,.47-.31.8-.79.94.2.14.31.27.41.98.14.92.18,2.47.18,3.47,0,.35,0,1.14-.98,1.14-.18,0-.45-.04-.71-.27-.22-.2-.22-.55-.25-1.63-.02-.41-.14-2.9-.14-2.92,0-.37.16-.63.53-.8-.26-.14-.37-.37-.43-.69-.26.06-.28.06-.39.06v6.57c0,.33,0,1.47-1.32,1.47s-1.33-1.12-1.33-1.47v-6.22c-.69.1-.94.12-1.33.12-.41,0-1.47-.02-1.47-1.69,0-1.33.84-1.43,1.35-1.49.2-.25.25-.33.8-1.02-.24-.33-.59-.8-.9-1.18-.92-1.02-1.1-1.2-1.1-1.84,0-.92.73-1.9,1.73-1.75.33-.53.41-.63.96-1.53.37-.61.55-.82,1.14-.82.76,0,1.53.55,1.53,1.29,0,.35-.18.67-.41,1.04-.2.31-.53.82-1.22,1.73.04.06.24.27.27.33.18-.27,1-1.49,1.14-1.71.41-.57.63-.75,1.1-.75.18,0,.75.04,1.18.47-.06-.65.12-1.06.2-1.22.31-.61.94-.73,1.57-.73h6.71ZM219.8,202.95c0,.65-.12,2.67-.22,3.73-.04.43-.14,1.49-1.06,1.49-.06,0-1.18,0-1.18-1.16,0-.27.18-1.55.2-1.83.04-.37.14-2.02.18-2.35.08-.98.79-1,1.1-1,.8-.02.98.65.98,1.12ZM221.67,198.46c.16-.02.86-.06,1-.08-.12-.57-.14-.65-.16-.86-.29.31-.57.63-.84.94ZM226.69,194.3c-.9,0-1.22-.27-1.41-.49-.02.26-.08.49-.53,1.08-.39.53-1.04,1.28-1.41,1.71.94-.14,1.1.47,1.39,1.49.08-.53.24-.65,1.18-1.29.82-.59,1.37-1.08,1.43-2.49h-.65ZM235.6,206.45c0,2.1-1.1,2.53-2.53,2.53h-5.1c-1.43,0-2.53-.43-2.53-2.53v-3.75c0-1.84.8-2.53,2.53-2.53h5.1c1.67,0,2.53.65,2.53,2.53v3.75ZM232.2,203.76c0-.2-.12-.33-.35-.33h-2.69c-.2,0-.33.12-.33.33v1.53c0,.2.12.33.33.33h2.69c.24,0,.35-.12.35-.33v-1.53ZM230.93,194.3c-.08.88-.25,1.55-.51,2.26.25-.1.51-.12.77-.12.76,0,.88,0,1.06-.31.14-.24.22-1.2.22-1.45,0-.27-.18-.37-.41-.37h-1.12Z"/>
    <path class="cls-2" d="M251.71,207.6c0,.67-.16,1.79-1.83,1.79-1.37,0-2.08-.45-2.08-1.79v-8.61c0-.92.31-1.92,2.3-1.77-1.1-.73-2.32-1.65-3.2-2.47-.35-.31-.43-.39-.63-.39s-.25.06-.75.49c-.35.29-1.9,1.65-3.14,2.43,2-.08,2.1,1.08,2.1,1.79v2.08c0,3.67-.98,5.42-2.32,6.69-.51.49-1.65,1.45-2.94,1.45s-1.98-1.31-1.98-2.18.53-1.22,1.43-1.75c1.67-.96,2-2.06,2-4.53v-1.77c0-.43.06-.67.08-.79-.79.45-1.51.82-2.18.82-1.1,0-1.84-1.14-1.84-2.24,0-.67.24-1.26.92-1.59,3.12-1.57,3.24-1.65,5.93-3.89.67-.55,1.33-1.06,2.69-1.06s2.04.53,2.87,1.24c.96.82,2.65,2.26,4.89,3.3,1.08.49,1.73.8,1.73,2.02s-.8,2.22-1.84,2.22c-.65,0-1.39-.35-2.3-.9.06.22.1.35.1.79v8.61Z"/>
    <path class="cls-2" d="M270.33,200.24c.16.49.41,1.24.41,2.41,0,3.39-2.08,4.77-4.06,5.44-1.39.47-3.3.71-4.73.71-1.18,0-2.02-.59-2.02-1.84,0-1.53,1.22-1.55,2.06-1.55,3.24-.02,4-.59,4.55-.98-.33.12-.79.27-2.04.27-4.42,0-5.14-2.67-5.14-3.96,0-1.92,1.47-3.96,5.14-3.96,1.04,0,1.65.16,2.08.25l-.02-.8c-1.29.02-3.63.08-6.42.08-1.69,0-2.2,0-2.61-.22-.61-.33-.77-.96-.77-1.49,0-1.69,1.37-1.69,2.12-1.69h3.57c1.33,0,2.69-.04,4.02-.06,0-.61-.04-2,1.92-2s1.92,1.35,1.92,1.9c.51,0,1.92-.08,2.35-.08.59,0,1.88.08,1.88,1.69s-1.24,1.69-1.9,1.71c-.16,0-1.71.04-2.33.06v4.12ZM266.6,200.76c0-1.16-1.65-1.18-1.77-1.18-.61,0-1.79.22-1.79,1.16,0,1.1,1.57,1.14,1.77,1.14.63,0,1.79-.22,1.79-1.12Z"/>
    <path class="cls-2" d="M293.56,202.38c0,4.71-4.04,6.44-8.08,6.44-.96,0-5.77,0-5.77-3.79,0-2.41,2-3.67,4.4-3.67s4.24,1.22,4.06,3.73c.96-.47,1.43-1.31,1.43-2.37,0-2.63-2.77-2.63-3.43-2.63-1.24,0-3.43.16-5.85,2.35-1.35,1.24-1.55,1.37-2.12,1.37-.9,0-1.96-.8-1.96-2.02,0-.75.41-1.14,1-1.57,2.98-2.12,3.38-2.41,6.97-5.16-1.67.1-2.02.14-3.79.27-.16.02-.41.04-.59.04-.96,0-1.92-.37-1.92-1.84s1.12-1.83,2.02-1.83c2.85,0,5.69-.08,7.57-.16.33-.02,1.08-.04,1.26-.04,1.3,0,2.22.35,2.22,1.67,0,1-.57,1.47-1.12,1.79-1.86,1.08-1.9,1.1-3.02,1.86,3.63-.27,6.73,1.59,6.73,5.55ZM285.12,205.29c0-.77-.55-.98-1.12-.98-.45,0-1.14.18-1.14.69,0,.47.77.73,1.65.73.24,0,.39-.04.59-.06,0-.1.02-.26.02-.37Z"/>
    <path class="cls-2" d="M306.37,200.4c2.69,1.02,4.59,2.3,5.42,2.96.77.65,1.16,1.1,1.16,1.86,0,1.2-.98,2.32-2.12,2.32-.84,0-1.32-.47-2.24-1.35-.65-.65-1.41-1.26-2.33-1.81,0,3.24-1.88,4.26-5.02,4.26-2.81,0-5.91-1.08-5.91-4.4,0-3.1,2.84-4.85,7.1-4.59l-.22-6.65c-.04-1.33.65-2.02,1.94-2.02,1.41,0,2.08.59,2.08,2.02v.9c1.06,0,2.14-.04,3.22-.1.43-.02,1.24-.04,1.29-.04,1.37,0,1.77,1.02,1.77,1.86,0,1.82-1.39,1.9-1.94,1.92-.24.02-2.08.1-4.26.1l.06,2.75ZM301.49,202.99c-.16,0-2.41,0-2.41,1.22,0,.94,1.33,1.02,1.86,1.02,1.53,0,1.53-.43,1.53-2.12-.31-.06-.57-.12-.98-.12Z"/>
    <path class="cls-2" d="M319.56,205.45c0,1.29-1.06,2.35-2.35,2.35s-2.35-1.06-2.35-2.35,1.08-2.35,2.35-2.35,2.35,1.04,2.35,2.35ZM315.01,192.63c0-.51.04-1.9,2.16-1.9,1.43,0,2.24.51,2.24,1.9v3.28l-.76,5.06c-.1.67-.25,1.43-1.39,1.43s-1.35-.59-1.47-1.43l-.77-5.06v-3.28Z"/>
  </g>
  <g class="cls-4">
    <g>
      <g>
        <path class="cls-1" d="M202.98,27.99c-.06.17-.05.66-.02.86.04.05.15.41.19.51.13.31.33.61.56.82.11.1.24.21.37.3l.04.02s.04,0,.06.04c.07.01.15.05.24.08.09.03.18.05.27.06.23.04.38.02.6.03.03-.03.03-.02.08-.03.1-.02.21-.07.26-.12.09-.1.1-.07.17-.23.18-.41-.1-.38-.19-.5-.03-.04-.08-.2-.12-.26-.1-.19-.2-.31-.34-.45-.08-.07-.11-.12-.2-.2-.04-.04-.05-.05-.1-.09-.04-.04-.07-.05-.1-.09-.17-.16-.7-.6-.89-.68-.12-.05-.31-.04-.32-.05-.08-.04-.08-.13-.25-.14-.14,0-.21.07-.29.1"/>
        <path class="cls-1" d="M203.22,27.05c.06.03.03.06.07.15.03.06.06.08.11.11.09.05.3.36.61.17.23-.15.12-.12.25-.2.28-.16.33-.17.51-.39.35-.43.24-.48.52-.83.06-.08.13-.22.19-.27.05-.03.1-.04.14-.08.04-.04.07-.08.11-.13.2-.21.24-.4.53-.23.12.07.4.31.62.05.09-.11.11-.15.11-.34v-.15c-.26-.11-1.03-.09-1.37,0-.59.15-1.28.53-1.68.96-.03.04-.06.06-.09.1-.24.28-.36.45-.53.79-.05.1-.07.18-.11.27"/>
        <path class="cls-1" d="M207.15,31.6c-.65,0-.85-.01-1.49-.28-.25-.11-.65-.31-.89-.45-.08-.05-.22-.14-.3-.16-.05-.01,0,0-.04-.02,0,0-.03-.03-.03-.03.05,0,.05,0,.08.03.39.09.41.06.78,0h0c-.22-.02-.37,0-.6-.04-.09-.02-.18-.04-.27-.06-.08-.03-.16-.07-.23-.08-.02.01-.05.04-.05,0-.01,0-.02,0-.03-.01,0,0,0,0-.01,0,0,0,0,0-.01,0-.24-.14-.46-.33-.61-.5-.09-.11-.16-.17-.24-.31-.04-.06-.16-.35-.18-.37.07.41.36.87.55,1.14.25.36.45.64.81.87.3.2.86.36,1.28.41.52.06,1.02.03,1.48-.14"/>
        <path class="cls-1" d="M202.99,27.12s.21-.45.26-.53c.51-.92,1.2-1.47,2.21-1.8.59-.19.82-.08,1.43-.07-.06-.17-.4-.25-.58-.28-.94-.15-1.81.36-2.43.97-.13.12-.28.32-.38.48-.18.28-.43.83-.51,1.22"/>
        <path class="cls-1" d="M208.38,25.55h.01s-.02-.03-.06-.06c-.03-.03-.03-.03-.08-.05.02.02.02.04.05.06.04.03.03.01.07.05"/>
        <path class="cls-1" d="M207.43,25.31c-.06.09-.14.18-.21.27-.15.2-.12.3-.32.43-.07.05-.08.06-.13.12-.21.21-.04.08-.31.2-.45.19-.6.49-.7.54-.06.04-.11.05-.16.09-.06.05-.05.08-.1.15-.05.06-.08.06-.12.13-.1.19.02.65.11.81.06.11.12.2.18.32.07.14.13.16.26.24.39.23.42.07.58-.21.05-.08.07-.06.14-.12.15-.12.25-.37.32-.43.09.07.19.16.34.19-.01.12-.11.27-.15.6-.03.24,0,.48,0,.73-.3-.04-.42-.11-.65.28-.04.06-.14.14-.23.26-.07.1-.12.21-.15.35-.15.71.41,1.02,1.01.72.1-.05.37-.21.46-.28.21-.18.19-.22.46-.3.15-.04.19-.13.36-.14.37-.03.48-.16.64-.36.08-.1.13-.18.19-.31.05-.1.09-.3.15-.36.15-.2.19-.81.17-1.1-.04-.68-.27-1.35-.61-1.91-.09-.16-.44-.62-.57-.68-.04-.04-.04-.03-.07-.05-.03-.02-.03-.04-.05-.06l-.22-.14c-.07-.04-.16-.09-.24-.11-.06.02-.12.03-.19.05-.06.02-.11.05-.18.07"/>
        <path class="cls-2" d="M254.29,32.21h0c1.73,0,3.14,1.4,3.14,3.14v15c0,2.03.24,3.51.72,4.44.74,1.65,2.37,2.48,4.87,2.48s4.11-.83,4.85-2.48c.48-.93.72-2.42.72-4.44v-15c0-1.73,1.4-3.14,3.14-3.14s3.13,1.4,3.13,3.14v15.01c0,3.14-.49,5.58-1.46,7.33-1.81,3.21-5.27,4.81-10.38,4.81s-8.57-1.6-10.4-4.81c-.97-1.75-1.46-4.19-1.46-7.33v-15.01c0-1.73,1.4-3.14,3.13-3.14"/>
        <path class="cls-2" d="M299.5,49.13c-1.75,1.46-4.26,2.19-7.51,2.19h-3.13c-1.72,0-3.11,1.39-3.11,3.11v4.55c0,1.72-1.39,3.11-3.11,3.11s-3.11-1.39-3.11-3.11v-23.72c0-1.72,1.39-3.11,3.11-3.11h9.75c2.96,0,5.33.77,7.09,2.32,1.76,1.54,2.64,3.93,2.64,7.17,0,3.53-.88,6.03-2.63,7.49M294.73,38.34c-.79-.66-1.9-1-3.33-1h-2.53c-1.72,0-3.11,1.39-3.11,3.11v2.6c0,1.72,1.39,3.11,3.11,3.11h2.53c1.43,0,2.54-.36,3.33-1.08.79-.72,1.19-1.85,1.19-3.41s-.4-2.67-1.19-3.33"/>
        <path class="cls-2" d="M194.41,36.77c-3.3,4.56-5.75,8.29-7.35,11.2l-.79,1.53-.08.12.04.39c.13,0,.26.01.39.04.29.03.68.07,1.18.12.45.05.73.08.86.08,1,.18,2,.41,3.01.69,1.01.28,1.81.51,2.42.71.6.2,1.49.51,2.67.94,1.18.43,2.03.73,2.55.88.26.11.45.28.57.51s.13.48.04.75c-.09.26-.26.45-.49.57-.24.12-.49.14-.75.06l-2.59-.94-2.59-.9c-.58-.21-1.34-.44-2.3-.69-.96-.25-1.91-.45-2.85-.61-.08-.03-.31-.05-.71-.08-.52-.05-.93-.09-1.22-.12l-.12-.04c.18,3.72.3,6.43.35,8.14,0,.26-.09.5-.27.71-.18.21-.41.31-.67.31s-.5-.09-.71-.28c-.21-.18-.31-.41-.31-.67-.05-1.65-.18-4.55-.39-8.69-.16-.1-.29-.22-.39-.35-.16-.18-.22-.41-.2-.67,0-.08.01-.16.04-.24.03-.05.05-.12.08-.2.03-.1.08-.24.16-.39l.24-.47c-.08-1.73-.14-3.25-.2-4.56-.03-.97,0-3.21.08-6.72.05-2.83-.01-5-.2-6.52-.03-.26.05-.5.22-.73.17-.22.39-.35.65-.37.26-.03.5.05.73.22.22.17.35.39.37.65.21,1.63.28,3.89.2,6.8-.08,3.46-.11,5.66-.08,6.6l.04,1.22c1.55-2.67,3.81-6.07,6.8-10.18.16-.21.37-.33.63-.37.26-.04.5.02.73.18.22.16.35.37.39.63.04.26-.02.51-.18.75"/>
        <path class="cls-2" d="M207.3,33.98c.63,6.81.94,15.92.94,27.32,0,.26-.1.49-.3.69-.2.2-.43.29-.69.29s-.49-.1-.69-.29c-.2-.2-.3-.43-.3-.69,0-11.42-.31-20.48-.94-27.16-.03-.26.05-.5.22-.71.17-.21.39-.33.67-.35.28-.03.52.05.73.22.21.17.33.4.35.69"/>
        <path class="cls-2" d="M225.26,30.24c.08.89.13,1.8.16,2.73.03.93.03,2.06,0,3.38-.03,1.32-.04,2.2-.04,2.61,0,2.44-.07,9.12-.22,14.01-.14,4.89-.22,5.52-.22,7.96,0,.26-.1.49-.3.69s-.43.3-.69.3-.49-.1-.69-.3c-.2-.2-.3-.43-.3-.69,0-1.62.03-.42.08-2.44-1.65.68-3.46.75-5.42.2-1.31-.37-2.39-.95-3.24-1.75-.85-.8-1.42-1.68-1.71-2.63-.29-.96-.38-1.93-.27-2.93.1-1,.39-1.91.86-2.75.47-.86,1.12-1.57,1.95-2.12.83-.55,1.75-.84,2.77-.86,1.78-.05,3.56.73,5.35,2.36.05-2.25.08-7.28.08-9.04,0-.5.01-1.39.04-2.67.03-1.28.03-2.37.02-3.26-.01-.89-.07-1.74-.18-2.56-.03-.29.05-.54.22-.75.17-.21.39-.33.67-.35.27-.03.52.05.73.22.21.17.33.39.35.65M223.18,50.64c-1.81-2.07-3.52-3.08-5.15-3.03-1.31.03-2.33.69-3.07,2-.34.6-.55,1.26-.63,1.98-.08.72,0,1.42.22,2.08.22.67.64,1.29,1.26,1.87.62.58,1.41,1,2.38,1.26,1.83.52,3.43.37,4.8-.47.05,0,.09-.01.12-.04.03-.71.06-1.7.1-2.99.04-1.28.06-2.15.06-2.59l-.08-.08Z"/>
        <path class="cls-2" d="M239.18,38.22c-.45-1.36-1.09-2.36-1.95-3.01-.85-.64-1.73-.93-2.63-.86-.9.07-1.72.48-2.46,1.24-.73.76-1.21,1.87-1.41,3.34-.29,1.76-.24,3.12.16,4.09.26.63.61,1.28,1.04,1.97.43.68,1.03,1.55,1.81,2.59.77,1.05,1.32,1.81,1.63,2.28,1.02,1.49,1.79,2.91,2.32,4.24.52,1.34.68,2.71.47,4.13-.24,1.52-1.05,2.67-2.44,3.46-1.02.58-1.99.75-2.91.51-.79-.21-1.48-.71-2.08-1.49-.84-1.1-1.42-2.63-1.73-4.6-.03-.26.04-.5.2-.73.16-.22.37-.35.63-.39.26-.04.5.02.73.18.22.16.36.37.41.63.26,1.65.71,2.9,1.34,3.73.31.42.64.67.98.75.42.11.92,0,1.49-.31.81-.47,1.28-1.15,1.42-2.04.16-1.05.02-2.13-.41-3.24-.43-1.11-1.11-2.35-2.02-3.71-.24-.34-.76-1.06-1.57-2.16-.81-1.1-1.46-2.04-1.95-2.81-.48-.77-.87-1.53-1.16-2.26-.52-1.28-.63-2.99-.31-5.11.29-1.83.96-3.31,2-4.42,1.05-1.11,2.28-1.72,3.69-1.83,1.39-.1,2.69.31,3.91,1.24,1.22.93,2.12,2.26,2.69,3.99.08.26.06.51-.06.75-.12.24-.31.4-.57.49-.26.09-.51.08-.75-.04-.24-.12-.41-.31-.51-.57"/>
      </g>
      <g>
        <path class="cls-2" d="M137.35,17.62c-16.52,0-29.92,12.75-29.92,28.49s13.4,28.49,29.92,28.49,30.06-12.76,30.06-28.49-13.4-28.49-30.06-28.49"/>
        <path class="cls-7" d="M141.38,38.48c-.04.05-.09.28-.08.38v.15s.02.04.03.05c.1.27.2.24.24.25.01-.02-.04-.34-.08-.4-.04-.06-.04-.1-.05-.15,0-.02-.05-.27-.05-.28"/>
        <path class="cls-7" d="M144.2,31.98c.06,0,.11-.01.17-.02.14-.02.29-.04.43-.05.17-.35.37-.69.57-.98,0,0,.01-.02.02-.02,0,0,0,0,.01-.01h0s-.06-.05-.08-.08c-.34-.4-.3-.64-.11-.9-.42.24-.79,1.34-1,2.07"/>
        <path class="cls-7" d="M145.39,44.51c-.65.13-1.39.35-2.11.65.79.01,1.58.03,2.36.04.02-.1.05-.19.09-.27.1-.22-.09-.47-.33-.42"/>
        <path class="cls-7" d="M156.53,60.71c.27-.17.58-.28.88-.35.2-.28.39-.57.57-.87,1.22-1.91,2.17-4.06,2.85-6.32.33-1.14.59-2.3.76-3.49.07-.59.15-1.19.18-1.79.02-.3.05-.6.05-.9l.02-.81c-.33.03-.73.07-1.2.1-.7.05-1.54.12-2.51.18-.04,0-.08,0-.12,0-1.55,2.31-3.05,2.37-4.87.43-.14-.15-.4-.12-.49.07-.34.69-.97,2.17-.85,3.34.16,1.6,3.25,3.53,3.85,3.74.61.22-.19.86-.84,1.11-.65.27.9,1.14,1.17,2.36.17.8.13,2.12.09,2.91-.01.24.25.4.45.27"/>
        <path class="cls-7" d="M146.35,58.86c.54.15,1.07.29,1.59.43.05.02.11.03.16.05.05-.17.1-.34.15-.51-1.37-.14-2.69-.55-3.38-1.1-.58-.45-1.71-.05-2.37.44.74.09,1.47.19,2.16.35.57.12,1.14.21,1.68.34"/>
        <path class="cls-7" d="M144.25,50.77c.96-1.21,1.17-2.6,1.24-3.76-1.1.02-2.22.04-3.36.06-.5,0-.99.01-1.49.02-.29.43-.46.91-.45,1.44.03,1.21.75,1.33-1.06,2.21-.26.13-.53.23-.78.27-.01,1.15-.03,2.28-.06,3.4.56.85.51,2.78,1.99,2.63,2.47-.27.42-3.05-.51-3.57-.75-.41,2.21.2,4.48-2.69"/>
        <path class="cls-7" d="M142.25,38.33s0,.03.02.04c.03.04.05.07.08.12.01.02.05.04.07.03l.18-.03s.04,0,.05.02c.03.05.07.08.13.09.11-.61-.21-1.29-.77-2.16-.42-.66-.72-1.5-.92-2.27-.61.08-1.23.1-1.85.12-.35.01-.7.02-1.06.04.03.79.05,1.6.07,2.42.04,1.49.07,3.03.08,4.59.02,1.24.02,2.5.03,3.76.5,0,.99,0,1.49,0,.85-1.79,5.63-3.05,8.23-3.68.28-.07.31-.46.04-.57-.32-.13-.67-.29-.99-.5-.9-.59-1.27-1.15-1.77-1.6-.03.26-.11.5-.24.72-.38,1.11-1.43,1.3-1.88,1.38-.18.03-.39.01-.61-.05-.12.03-.22.05-.31.06-.11.02-.23.02-.36,0-.57-.08-1.29-.54-1.52-1.24-.22-.7.5-1.22.88-1.3l.04.09c.05-.5.59-.81.93-.92l.14.25c-.19.17-.21.41-.19.58"/>
        <path class="cls-7" d="M137.37,19.12v1.55s.25,0,.71-.01c.04,0,.08,0,.13,0,0-.01.02-.02.04-.02h.02c.15,0,.31,0,.49-.01h0c.18,0,.38,0,.59.01.21,0,.44.01.69.02.25.01.5.04.78.06,1.1.08,2.43.27,3.93.66,1.5.38,4.53,1.34,6.24,2.2h0c1.72,1.12,2.12,1.57,3.8,3,.21.19.42.37.63.56.21.19.43.38.62.58.19.19.39.39.59.58.22.23.4.43.6.65.78.86,1.52,1.8,2.19,2.81.67,1,1.3,2.07,1.84,3.2.54,1.12,1.03,2.3,1.39,3.52.37,1.22.82,2.27,1.02,3.55.19,1.26.13,2.84.14,4.05l-.03.99c0,.32-.04.65-.06.97-.04.65-.13,1.29-.21,1.93-.19,1.28-.49,2.53-.85,3.75-.36,1.23-.76,2.87-1.3,4-.53,1.13-1.25,1.72-1.92,2.73-.04.05-.07.11-.11.16.62.47.43,1.42-1.85,2.67-.14.07-.28.14-.43.2-.71.78-1.48,1.48-2.23,2.15-1.68,1.44-3.45,2.56-5.17,3.41-1.71.86-3.38,1.43-4.88,1.81-1.5.38-2.83.58-3.93.66-.28.02-.53.05-.78.06-.24,0-.48.01-.69.02-.21,0-.41,0-.59.01-.18,0-.34-.01-.49-.01,0,0-.01,0-.02,0-.02,0-.03,0-.04-.02-.05,0-.09,0-.13,0-.46-.01-.71-.01-.71-.01v1.55c15.72,0,28.46-12.1,28.45-27,0-14.91-12.76-26.98-28.48-26.97"/>
        <path class="cls-7" d="M142.93,69.81c-.99.71-1.96,1.16-2.79,1.42.21-.03.42-.08.65-.12,1.07-.19,2.35-.52,3.77-1,1.42-.49,2.97-1.17,4.56-2.08,1.58-.92,3.19-2.09,4.72-3.51.25-.25.51-.49.76-.75-.36-.23-.42-.72-.45-1.32-.12-.04-.24-.07-.36-.12-.31-.1-.63-.21-.98-.33-.34-.13-.73-.21-1.12-.32-.4-.11-.8-.24-1.24-.34-.33-.08-.68-.15-1.03-.23-.07.17-.15.35-.26.55-.17.41-.44.97-.62,1.36-.75,1.56-1.15,2.49-2.09,3.68-.93,1.19-2.51,2.38-3.51,3.1"/>
        <path class="cls-7" d="M138.28,71.42c.06-.02.13-.03.19-.05.13-.04.28-.07.44-.11.16-.03.32-.1.5-.17.18-.07.36-.13.56-.21.77-.34,1.63-.89,2.5-1.66.86-.77,1.72-1.77,2.51-2.96.79-1.19,1.5-2.57,2.13-4.09.15-.38.31-.76.45-1.16.03-.09.06-.18.09-.26-.02,0-.03,0-.05,0-.51-.09-1.03-.19-1.56-.28-.53-.08-1.08-.14-1.64-.21-.28-.04-.56-.07-.84-.11-.14-.02-.28-.04-.42-.05l-.43-.03c-.57-.04-1.15-.08-1.72-.13-.57-.06-1.19-.05-1.79-.07-.35,0-.71-.02-1.06-.03-.04,1.33-.11,2.59-.17,3.76-.05,1.19-.12,2.28-.19,3.25-.06.97-.13,1.81-.18,2.51-.05.7-.11,1.24-.14,1.62-.04.37-.06.57-.06.57,0,0,.24-.04.7-.1.06,0,.12-.02.18-.03"/>
        <path class="cls-7" d="M139.39,21.12c-.18-.07-.34-.13-.5-.17-.16-.04-.31-.08-.44-.11-.07-.02-.13-.03-.2-.05-.06,0-.12-.02-.18-.03-.45-.06-.7-.1-.7-.1,0,0,.02.2.06.57.03.37.09.92.14,1.61.05.7.12,1.54.18,2.51.06.97.14,2.06.19,3.25.06,1.17.13,2.43.17,3.76.35-.01.7-.02,1.05-.03.53-.02,1.05-.01,1.57-.05-.05-1.07.51-2.38,1.61-2.99.62-.87,1.58-1.35,2.69-1.25.06,0,.13,0,.19.02.61.08.95.4,1.13.63.04-.01.07-.03.11-.04-.47-.99-.98-1.9-1.53-2.72-.79-1.18-1.64-2.18-2.51-2.95-.87-.76-1.73-1.31-2.5-1.65-.19-.09-.38-.15-.56-.21"/>
        <path class="cls-7" d="M152.01,60.79c.2.09.38.18.57.26.09.04.18.08.27.12.09.05.17.09.25.14.37.2.71.39,1.02.56-.03-.52-.1-1.08-.36-1.57-.44-.87-.87-1.68-1.1-2.12-.09-.16-.3-.21-.45-.1-.5.39-1.19.62-1.97.73-.04.09-.08.18-.11.28-.1.27-.19.54-.29.82.32.12.63.23.93.34.43.17.85.37,1.23.54"/>
        <path class="cls-7" d="M161.59,42.51c-.17-1.18-.43-2.35-.76-3.48-.69-2.26-1.63-4.42-2.86-6.32-.3-.48-.62-.94-.94-1.39-.16-.23-.34-.44-.5-.66-.16-.22-.34-.43-.51-.64-.17-.2-.34-.42-.5-.59-.09.06-.19.13-.3.21.57.47,1.04,1.11,1.38,1.95.08.2.16.49.11,1.03l-.13.68c-.02.24-.18.31-.19.47-.24,2.7,1.43,3.73-1.1,5.94,0,0-.01,0-.01.01-.08.06-.33.27-.5.39-.05.04-.1.08-.12.09-.83.6-2.03.84-2.71.78-.05,0-.1,0-.15.02-.05.02-.1.05-.13.07.02.16.04.32.05.49.14.17.37.39.68.68,1.43,1.34,1.27,1.43,1.79,3.25,0,0,0,.01,0,.02.24.01.47.02.7.04.72.03,1.41.07,2.05.11.65-.35.84-.6.82-.88-.03-.22.18-.79.52-1.13.11-.11,1.3-.48,1.71-.29.46.19.53.81.25,1.43-.21.48-.59.81-.95,1.02.5.04.96.07,1.37.1.47.03.87.07,1.2.1-.01-1.23-.09-2.33-.25-3.49"/>
        <path class="cls-7" d="M154.37,28.22c-.19-.18-.37-.36-.55-.54-1.53-1.41-3-2.75-4.72-3.5,0,0,0,0,0,0-1.59-.91-3.14-1.59-4.56-2.08-1.42-.48-2.7-.81-3.77-.99-.22-.04-.44-.08-.64-.12.83.26,1.8.71,2.78,1.41,1.01.71,2.03,1.69,2.96,2.88.81,1.02,1.56,2.19,2.23,3.49.75-.26,1.57-.32,2.63-.35,1.58-.04,3.07.2,4.22,1.01.15-.06.29-.11.42-.16-.15-.16-.29-.32-.44-.48-.19-.21-.37-.39-.56-.57"/>
        <path class="cls-5" d="M118.74,30.03l-.27.33-.25.32c-.16.22-.33.43-.49.65-.32.45-.65.91-.94,1.39-1.22,1.9-2.17,4.06-2.85,6.32-.33,1.14-.59,2.3-.76,3.49-.16,1.15-.24,2.32-.24,3.49.32-.03.71-.07,1.16-.1.45-.7,1.36-1.2,1.93-1.18.34.01,1.24-.22,1.53-.72.91-1.56,3.38-1.75,5.46-2.02.05-.62.12-1.23.2-1.84.06-.39.12-.78.18-1.17-.12-.1-.18.79-.57.42-.02-.02-.94-.63-1.11-2.29-.12-1.19-.56-3.06.1-5.1.1-.29.21-.59.35-.87-.08-.04-.16-.07-.24-.11-.09-.05-.17-.09-.25-.14-.66-.37-1.24-.68-1.7-.97-.29-.19-.54-.36-.74-.5-.17.19-.34.39-.5.59"/>
        <path class="cls-5" d="M126.52,40.44c-.06-.04-.13-.09-.19-.13-.01,0-.03-.02-.04-.02-.41-.1-.73-.18-1-.25-.03.1-.05.21-.08.31-.08.28-.12.56-.12.85,0,.13,0,.26,0,.39.05-.02.11-.04.16-.06.55-.22,1.06-.64,1.29-.86.07-.06.06-.18-.02-.23"/>
        <path class="cls-5" d="M122.85,45.05c-.51.09-1.27.24-2.02.46.65-.03,1.32-.06,2.01-.09,0-.12,0-.24,0-.37"/>
        <path class="cls-5" d="M126.45,58.57c.08.27.16.53.24.79.06-.02.11-.03.17-.05.51-.14,1.03-.28,1.56-.43.24-.06.48-.11.73-.16-.47-2.16-1.63-4.15-3.75-5.05.2,1.23.44,2.44.72,3.6.11.43.22.87.34,1.29"/>
        <path class="cls-5" d="M129.33,40.7c-.15,0-.19.2-.06.27,1.8,1,1.2,2.42,2.54,4.19.28,0,.56,0,.84,0,1.24-.02,2.5-.02,3.76-.03,0-1.26,0-2.52.02-3.76.01-1.56.05-3.1.08-4.59.02-.82.04-1.63.07-2.42-.35-.01-.7-.02-1.05-.04-.31-.01-.63-.02-.94-.04.11,1.13.32,2.25.04,3.2-.77,2.63-3.13,3.14-5.3,3.23"/>
        <path class="cls-5" d="M130.1,47.71c-.32-1.65-1.36,3.18-.1,4.86,1.81,1.23,2.11,3.38,2.25,5.62.48-.06.96-.11,1.44-.16.56-.07,1.12-.1,1.68-.12.01-.2.03-.42.07-.66.1-.67.56-1.52,1.07-2.18-.03-1.37-.06-2.78-.08-4.21,0-.17,0-.35,0-.52-.06,0-.11.02-.17.03-2.19.74-1.91.8-4.42-.73-.59-.36-1.61-1.31-1.74-1.92"/>
        <path class="cls-5" d="M131.84,22.41c.98-.71,1.96-1.16,2.79-1.42-.21.03-.42.08-.65.12-1.07.18-2.35.51-3.77.99-1.42.49-2.97,1.17-4.56,2.08-1.58.92-3.19,2.09-4.72,3.51-.52.51-1.05,1.03-1.55,1.59.22.08.48.18.77.31.24.11.53.18.83.29.31.1.63.21.98.33.2.07.41.13.62.19,1.02-1.62,2.72-2.94,4.98-3.37.03,0,.06,0,.09.01.39-.62.81-1.21,1.23-1.75.93-1.19,1.95-2.17,2.95-2.88"/>
        <path class="cls-5" d="M136.41,48.65c0-.52,0-1.03,0-1.55-.8,0-1.6,0-2.39-.01.44.28.94.56,1.53.86.78.39.5,1.01.87.7"/>
        <path class="cls-5" d="M113,47.93c.03.58.11,1.19.18,1.78.09.63.21,1.25.34,1.86,1.18-1.31,1.42.8,2.27,2.08.61.94,2.34,1.65,3.29,1.29,1.4-.53,2.5-2.35,2.5-2.93s-.27-1.26.77-3.46c.25-.53.39-1.05.48-1.52,0-.07,0-.14,0-.21-1.03-.04-2.02-.09-2.94-.14-.44-.02-.87-.04-1.28-.07-.79.67-.54.25-1.13.02-1.17-.47-.82,3.28-3.04,1.3-.61-.55-.71-1.13-.53-1.64-.38-.03-.7-.06-.98-.09l.02.82c0,.32.03.6.05.9"/>
        <path class="cls-5" d="M117.75,60.91c.16.23.34.44.5.66.16.22.34.44.51.64.17.2.34.42.5.59.2-.14.44-.31.73-.5.45-.29,1.03-.6,1.7-.97.08-.04.17-.09.26-.14.09-.04.18-.08.27-.12.18-.08.37-.17.56-.26.39-.17.79-.36,1.22-.54.36-.13.73-.27,1.11-.41-.09-.26-.19-.53-.29-.8-.15-.44-.27-.89-.41-1.34-.15-.45-.25-.91-.37-1.37-.06-.23-.11-.47-.17-.7,0-.03-.01-.05-.02-.08-1.42,2.13-4.04,3.06-6.67,2.07-1.03-.38-1.79-1.27-2.32-1.85.54,1.31,1.18,2.56,1.93,3.72.3.48.62.94.94,1.39"/>
        <path class="cls-5" d="M136.49,20.8c-.06.01-.13.03-.19.05-.13.03-.28.07-.44.11-.16.03-.32.1-.5.17-.18.07-.36.13-.56.21-.77.34-1.63.89-2.5,1.66-.86.77-1.72,1.77-2.51,2.96-.12.18-.24.37-.36.57.27-.08.55-.13.86-.13.13,0,.13.38.04.48-.12.14-.16.31-.14.5.02.15.17.07.28-.03.3-.26.9-.09,1.52-.18.24-.04.18.17.09.25,0,0,0,0,0,0-.09.09-.16.19-.03.2,2.05.19.31,1.88,3.63,1.6,1.01-.09.83,1.6-.88,2.6-.04.03-.09.05-.1.1-.04.14-.07.28-.1.43.32,0,.65.01.98.02.35,0,.71.02,1.06.03.04-1.33.11-2.6.17-3.76.05-1.19.12-2.28.19-3.25.06-.97.13-1.81.18-2.51.05-.7.11-1.24.14-1.61.04-.37.06-.57.06-.57,0,0-.24.03-.7.1-.06,0-.12.02-.18.03"/>
        <path class="cls-5" d="M137.4,71.55s-.31.01-.9.03c-.15,0-.31,0-.49.02-.18,0-.38,0-.59-.01-.21,0-.44-.01-.69-.02-.25-.01-.5-.04-.78-.06-1.1-.08-2.43-.27-3.93-.66-1.5-.38-3.16-.94-4.88-1.8-1.72-.85-3.49-1.97-5.17-3.4-.21-.19-.42-.37-.63-.56-.21-.19-.43-.38-.62-.58-.2-.19-.39-.39-.59-.58-.23-.23-.4-.43-.6-.65-.78-.86-1.51-1.8-2.19-2.81-.67-1.01-1.3-2.07-1.84-3.2-.07-.15-.14-.3-.21-.45-.09.2-.15.39-.19.55-.15.66-1.23,1.36-1.1-1.12.03-.59.13-1.27.29-1.92-.06-.19-.12-.38-.18-.57-.37-1.22-.66-2.48-.86-3.75-.08-.64-.18-1.28-.22-1.94-.02-.33-.06-.67-.06-.97l-.03-.96c.01-1.3.11-2.59.3-3.87.19-1.28.49-2.53.85-3.75.36-1.22.85-2.4,1.38-3.52.53-1.13,1.16-2.2,1.83-3.2.33-.51.69-.99,1.05-1.46.18-.24.38-.47.57-.7l.29-.34.29-.31c.77-.86,1.61-1.64,2.43-2.37,1.68-1.44,3.45-2.56,5.17-3.41,1.71-.86,3.38-1.43,4.88-1.81,1.5-.38,2.83-.58,3.93-.66.28-.02.53-.05.78-.06.24,0,.47-.01.69-.02.21,0,.41,0,.59-.01.18,0,.34,0,.49.01.59.02.9.03.9.03v-1.55c-15.7.04-28.4,12.12-28.39,27.01,0,14.89,12.73,26.95,28.42,26.97v-1.55Z"/>
        <path class="cls-5" d="M120.4,64c.19.18.37.36.55.54,1.53,1.41,3.14,2.58,4.73,3.5,1.59.91,3.14,1.59,4.56,2.08,1.42.48,2.7.81,3.77.99.22.04.44.08.64.12-.83-.26-1.8-.71-2.78-1.41-1-.71-2.02-1.68-2.96-2.88-.94-1.19-1.81-2.58-2.56-4.15-.18-.39-.38-.8-.55-1.2-.07-.17-.14-.34-.21-.52-.42.1-.83.19-1.23.28-.44.11-.85.24-1.25.35-.39.12-.78.2-1.12.33-.35.12-.67.23-.97.33-.3.1-.59.18-.83.29-.29.12-.55.22-.77.31.15.16.29.32.44.48.19.21.37.39.56.57"/>
        <path class="cls-5" d="M135.39,71.09c.18.07.34.14.5.17.16.04.31.08.44.11.07.02.13.04.19.05.06.01.12.02.18.03.45.06.7.1.7.1,0,0-.02-.2-.06-.57-.03-.37-.09-.92-.14-1.61-.05-.7-.12-1.54-.18-2.51-.06-.97-.14-2.06-.19-3.25-.06-1.16-.13-2.43-.17-3.76-.35,0-.71.02-1.06.03-.6.02-1.19.01-1.77.08-.49.04-.99.08-1.47.11.02.32.05.64.09.96.03.26,1.14-.66,2.78.41,1.02.66-6.2,3.2-5.95,1.43.11-.78.15-1.62.1-2.46-.2.02-.4.05-.6.08-.54.1-1.07.19-1.59.29-.01,0-.03,0-.04,0,.03.09.06.18.1.28.14.41.3.77.45,1.16.63,1.51,2.79,2.19,3.58,3.38.79,1.19.2,2.89,1.06,3.65.87.77,1.73,1.31,2.5,1.66.19.08.38.14.56.21"/>
      </g>
    </g>
  </g>
</svg>