<?xml version="1.0" encoding="UTF-8"?>
<svg id="Layer_1" data-name="Layer 1" xmlns="http://www.w3.org/2000/svg" xmlns:xlink="http://www.w3.org/1999/xlink" viewBox="0 0 725.68 775.37">
  <defs>
    <style>
      .cls-1 {
        fill: none;
      }

      .cls-2 {
        fill: #e6dbc4;
      }

      .cls-3 {
        fill: #261210;
      }

      .cls-4 {
        fill: #f2732f;
      }

      .cls-5 {
        fill: #fff;
      }

      .cls-6 {
        fill: #d94849;
      }

      .cls-7 {
        fill: #d74e27;
      }

      .cls-8 {
        clip-path: url(#clippath);
      }
    </style>
    <clipPath id="clippath">
      <rect class="cls-1" width="725.68" height="775.37"/>
    </clipPath>
  </defs>
  <g class="cls-8">
    <g>
      <rect class="cls-5" x="148.53" y="345.87" width="396.39" height="165.02"/>
      <g id="_3EmIkr" data-name="3EmIkr">
        <g>
          <path class="cls-3" d="M571.25,1082.34c-7.15-2.07-14.13-3.8-21.84-1.98-10.56,2.5-20.96.61-31.06-3.22-15.39-5.84-29.49-13.82-41.43-25.23-8.64-8.26-13.21-18.59-13.66-30.59-.14-3.75-1.64-6.36-4.82-8.36-10.41-6.56-21.22-12.52-30.7-20.49-6.4-5.38-12.95-10.64-18.44-16.96-7.58-8.74-16.7-10.95-27.79-8.62-15.49,3.25-31.19,5.11-47.09,4.52-2.71-.1-5.42-.35-8.14-.54-1.49-.1-2.71.41-3.38,1.76-3.4,6.88-8.61,12.42-13.4,18.28-2.65,3.24-2.66,3.42.48,6.34,1.79,1.66,2.76,3.74,3.31,6.04,3.62,15.18-.31,27.82-12.65,37.65-5.26,4.19-10.73,8.1-16.97,10.64-15.07,6.14-30.07,12.49-45.75,16.98-7.53,2.16-15.29,2.57-23.03,3.28-5.02.46-10.01,1.43-15.09.59-.63-.1-1.39.02-1.99.28-7.99,3.47-16.26,2.95-24.29.82-11.15-2.95-22.43-5.36-33.55-8.46-8.77-2.44-11.89-8.32-12.54-16.4-.63-7.83.67-15.51,2.68-23.05,1.07-4.02,3.65-7.26,6.29-10.38,2.77-3.28,5.96-6.12,9.19-8.94,4.96-4.33,6.18-9.27,4-15.49-1.57-4.49-4.41-8.18-7.41-11.76-4.63-5.53-9.91-10.43-15.2-15.31-7.57-6.99-13.65-14.82-17.6-24.61-3.22-7.98-7.61-15.46-9.22-24.07-1.23-6.62-1.2-13.35-1.71-20.03-.63-8.24-1.2-16.48-1.46-24.74-.37-11.83,1.94-23.07,7.73-33.35,7.98-14.15,13.94-29.19,20.03-44.18.88-2.18,1.82-4.53,1.19-6.79-1.79-6.48-1.56-13.09-1.82-19.68-.21-5.18-2.22-10.05-2.58-15.2-.46-6.61-.34-13.22.3-19.81.45-4.68-.09-5.23-4.61-4.46-14.22,2.44-28.42,2.46-42.59-.42-2.51-.51-4.92-1.33-6.89-2.96-4.55-3.76-9.71-6.46-15.14-8.56-5.14-1.99-7.83-5.48-8.06-10.94-.06-1.46-.56-2.65-1.77-3.49-14.4-10.08-21.85-24.71-26.29-41.07-7.21-26.55-6.74-52.89,2.4-79.1,5.5-15.77,10.89-31.57,19.22-46.09,7.03-12.25,16.33-22.72,27.68-31.15,4.59-3.41,8.59-7.19,11.96-11.78,4.03-5.48,8.23-10.86,14-14.72,2.12-1.42,1.08-2.74-.04-4.09-7.44-9-12.2-19.3-14.86-30.62-.24-1.04-.48-2.08-.67-3.13-1-5.66-.56-10.3,5.21-13.97,6.65-4.23,13.02-8.79,20.71-10.94,1.95-.55,2.42-1.81,2.07-3.52-.83-4.12,1.13-6.82,4.25-9.14,4.56-3.38,9.64-5.46,15.22-6.1,2.61-.3,2.46-1.27,1.65-3.13-1.46-3.35-3.66-6.16-6.05-8.86-2.57-2.91-5.14-5.8-7.12-9.2-3.53-6.04-5.42-12.37-4.53-19.46.62-4.91.09-9.92.92-14.83.27-1.61-.54-2.81-1.79-3.74-16.06-11.93-27.31-27.99-38.37-44.27-5.54-8.16-7.49-17.35-9.02-26.77-1.61-9.95-2.03-19.9.03-29.86,3.04-14.77,11.47-25.98,23.38-34.65,10.88-7.92,21.22-16.37,30.42-26.22,3.04-3.25,6.58-6.05,9.9-9.04,21.23-19.06,34.14-42.62,37.23-71.05,1.75-16.14,0-32.21-4.08-47.96-.71-2.74-1.35-5.51-.69-8.34,1.43-6.05,7.2-8.96,14.04-7.17,11.21,2.94,19.08,9.9,24.34,20.07,8.18,15.82,13.71,32.63,17.7,49.89,5.14,22.28,5.4,44.7-.82,66.88-4.11,14.65-12.2,26.98-23.22,37.4-4.66,4.41-9.45,8.68-14.07,13.14-4.43,4.28-8.2,9.09-10.59,14.83-2.13,5.13-1.54,7.98,2.08,10.55,5.37,3.8,8.87,3.88,13.01-.21,17.45-17.27,36.45-32.7,56.05-47.43,2.49-1.87,5.05-3.57,7.89-4.89,2.86-1.33,3.84-3.34,2.61-5.86-4.48-9.19-6.24-19.11-8.29-28.98-1.58-7.6-4.2-14.9-6.45-22.31-.28-.92-.58-1.85-.75-2.8-.68-3.62,1.31-5.89,4.91-5.12,13.37,2.89,26.54,6.44,38.79,12.73,2.87,1.48,5.2,3.71,7.47,5.99,1.45,1.46,2.53,1.19,3.13-.79,6.02-19.92,19.74-33.98,35.45-46.5,5.09-4.06,10.19-8.08,15.67-11.62,10.63-6.88,22.52-9.59,34.88-10.75,1.65-.16,3.07.39,3.82,2.05.61,1.34.34,2.56-.8,3.39-6.31,4.58-8.64,11.17-9.72,18.51-1.45,9.88-1.97,19.72.91,29.45.29.98.21,2.28,1.53,2.54,1.38.28,1.69-.97,2.25-1.85,2.79-4.34,6.64-5.51,11.28-3.23,7.41,3.65,13.22,9.15,17.69,16.04,3.85,5.94,7.28,12.15,9.69,18.8,1.27,3.53,3.47,5.28,6.85,6.34,14.11,4.42,28.24,8.77,41.95,14.37,23.27,9.5,43.85,23.42,63.62,38.68,9.79,7.56,18.39,16.46,27.86,24.38,5.51,4.61,11.36,8.76,18.11,11.44,3.94,1.57,7.97,2.25,12.24,1.67,10.26-1.39,15.88-9.9,12.99-19.9-1.81-6.27-6.03-11.01-10.31-15.64-8.02-8.69-17.17-16.4-23.07-26.91-2.24-3.99-5.01-7.64-8.01-11.08-11.25-12.92-18.58-27.8-22.24-44.47-3.63-16.53-4.72-33.23-2.72-50.1,1.16-9.73,1.96-19.53,5.71-28.7,4.11-10.02,10.02-19.04,16.33-27.77,3.77-5.22,9.07-8.7,15.11-10.98,3.63-1.37,7.2-1.24,10.74.3,5.58,2.44,7.95,6.24,7,12.23-2.1,13.32-2.02,26.73-1.58,40.13.38,11.54,3.3,22.64,8.09,33.12,13.34,29.21,33.24,52.96,59.92,70.9,7.9,5.31,16.34,9.74,25.19,13.2,23.02,8.99,35.8,26.47,42.07,49.58,1.91,7.05,2.59,14.28,3.19,21.52,0,2.93,0,5.87.01,8.8-.88,4.45-1.81,8.89-2.64,13.35-4.37,23.4-15.04,43.06-33.69,58.31-15.66,12.81-32.35,23.68-51.65,30.14-2.56.86-3.03,2.63-2.91,4.98.5,9.61.97,19.22,1.39,28.83.25,5.68,2.86,9.52,8.4,11.21.92.28,1.79.72,2.69,1.07,14.45,5.59,28.3,12.17,39.54,23.25,5.02,4.95,5.61,7.21,2.78,13.62-5.56,12.6-12.71,24.2-22.24,34.22-2.93,3.09-3.58,6.39-2.24,10.4,2.05,6.13,4.37,12.24,5.69,18.55,2.89,13.82.36,19.35-12.27,22.43-12.96,3.16-25.71,7.18-39.09,8.48-4.3.42-4.79,1.08-4.9,5.57-.18,7.71-3.18,13.46-10.65,16.41-2.64,1.04-5.32,1.73-8.17,1.89-3.76.2-3.87.49-2.2,3.84,2.89,5.83,2.13,9.12-3.02,13.11-.23.18-.48.32-.72.49-1.6,1.15-2,2.52-.81,4.23,3.98,5.72,3.06,11.28-.56,16.77-2.62,3.98-2.63,4.09,1.04,7.07,7.37,5.99,13.72,12.93,19.11,20.72,1.93,2.79,4.23,4.96,7.11,6.71,5.39,3.27,10.86,6.43,15,11.41,3.11,3.74,3.31,4.75.74,9-3.53,5.84-3.8,6.18,1.55,10.53,6.83,5.57,7.07,12.49,3.7,20.49-.64,1.52-1.4,2.98-3.26,3.46-1.32.34-1.29,1.51-1.3,2.61-.13,8.01-1.62,15.8-3.9,23.44-5.78,19.41-15.91,36.51-28.1,52.48-2.16,2.83-2.58,5.48-1.16,8.61,4.87,10.75,8.9,21.85,13.49,32.71,8.59,20.33,17.4,40.56,24.52,61.48,1.52,4.48,3.49,8.89,6.34,12.73,4.29,5.76,5.06,12.27.78,17.56-4.54,5.61-3.93,10.89-2.36,16.82.17.65.2,1.35.24,2.02.23,4.76-.77,8.82-5.59,11.17-2.22,1.08-3.56,3.15-4.45,5.54-1.07,2.9-2.26,5.77-3.65,8.52-4.57,9.1-4.51,18.23-.53,27.48,4.37,10.18,11.28,18.52,19.02,26.23,7.38,7.35,11.9,16.02,13.55,26.39,2.27,14.31-3.7,25.53-17.07,31.11-4.55,1.9-9.27,2.67-14.2,2.34-3.14-.21-6.45-.33-8.56,2.47-2.37,3.14-5.6,4.29-9.18,5.05-5.33,1.13-10.65,2.34-15.98,3.51h-13.42ZM395.69,191.2c-.48-2,.41-3.5,1.55-5.07,4.03-5.55,4.09-11.44.22-17.02-1.39-2.01-2.51-4.15-3.46-6.38-2.61-6.16-5.21-12.32-7.79-18.49-1.19-2.84-2.96-5.21-5.29-7.21-3.94-3.37-5.81-2.94-8.07,1.81-2.32,4.86-.79,9.24,1.58,13.55.44.81,1.19,1.65.49,2.68-.74,1.09-1.84,1.29-3.07,1.27-1.41-.02-2.32-.85-3.2-1.79-7.5-8.03-13.64-16.76-16.6-27.63-3.36-12.31-4.89-24.33,1.58-36.12.44-.81,1.51-1.79.84-2.57-.76-.88-1.98-.15-2.96.25-.36.15-.72.29-1.08.43-15.55,6.28-27.8,16.71-38.11,29.76-7.35,9.31-13.54,19.15-16.72,30.69-1.56,5.69-1.73,11.22.81,16.72,1.35,2.92,1.73,6.14,2.14,9.31.16,1.23-.23,2.36-1.49,2.87-1.21.5-2.04-.23-2.74-1.1-.49-.6-.94-1.23-1.39-1.86-3.19-4.52-6.59-8.88-10.09-13.18-7.77-9.55-18.54-14.85-28.97-20.63-2.19-1.22-4.63-1.32-7.09-1.06-1.23.13-2.16.71-1.94,2.02.53,3.14.45,6.38,1.45,9.45,2.73,8.39,5.56,16.73,8.84,24.92,4.61,11.51,9.19,23.03,12.6,34.98.34,1.18,1.35,2.46.11,3.82-1.31,1.44-2.54.21-3.76-.02-3.04-.56-6-1.46-9.16-.51-2.39.71-3.98,1.87-4.11,4.55-.13,2.69.68,4.82,3.37,5.8,1.54.56,3.13,1,4.72,1.41,3.78.98,7.45,2.18,10.46,4.82,1.1.97,2.23,1.93,2.1,3.62-7.57-3.88-15.89-5.44-23.94-7.87-1.75-.53-3.6-.89-5.22-1.71-3.93-1.99-5.17-6.39-2.46-9.12,3.83-3.87,7.92-7.51,13.36-9.04,1.48-.42,2.24-.97,1.51-2.62-.46-1.06-.61-2.25-1.1-3.29-.98-2.07-2.41-2.56-4.44-1.19-3.38,2.28-6.88,4.37-10.26,6.65-16.75,11.34-31.27,25.3-45.35,39.64-11.03,11.22-20.79,23.62-29.44,36.83-.78,1.19-1.61,3.26-3.49,2.06-1.63-1.05-.32-2.66.3-3.88,2.22-4.32,4.56-8.58,6.79-12.89.52-1.01,1.9-2.2.28-3.26-1.35-.89-2.1.46-2.82,1.31-5.5,6.55-10.81,13.26-14.72,20.92-2.04,4-5.08,6.37-9.43,7.51-5.43,1.42-10.82,3.03-15.83,5.66-2.94,1.54-5.63,3.37-5.64,7.11,0,3.47,2.95,4.48,5.41,5.8,4.37,2.35,4.59,2.69,1.87,7.03-3.64,5.8-5.96,12.23-8.03,18.6-2.23,6.83-1.9,14.17-1.02,21.35.44,3.57,1.69,6.75,4.28,9.33.77.77,1.69.99,2.66.6.87-.35.8-1.21.84-2,.32-7.08,1.35-14.05,2.92-20.97,2.43-10.78,6.03-21.08,11.61-30.64.99-1.69,1.97-4.02,4.61-2.81,2.63,1.2.87,3.31.4,4.81-5.05,16.29-10.05,32.56-11.13,49.75-.46,7.37-.97,14.55,5.16,20.3,1.94,1.82,2.97,4.5,4.1,6.99,2.15,4.74,2.85,9.81,3.71,14.86,1.62,9.56,3.2,19.12,1.39,28.86-.87,4.68-1.38,9.46-5.33,12.83-3.53-.5-4.36-1.5-3.52-5,2.97-12.41,3.13-24.79-.03-37.18.36-2.97-.9-5.47-2.35-7.88-.57-.95-1.47-1.62-2.66-1.42-5.29.89-10.76,1.05-15.54,3.97-5.07,3.09-5.55,5.48-1.94,10.23.4,3.34-1.8,4.62-4.42,5.56-6.89,2.5-13.91,4.67-20.4,8.2-1.87,1.02-2.65,2.17-2.2,4.41,2.6,12.66,5.99,25.01,13.39,35.86,1.74,2.55,1.71,4.95.18,7.57-2.73,4.67-6.42,8.51-10.23,12.27-1.14,1.13-2.47,2.15-2.72,3.94,1.09.28,2.02.1,2.98-.1,4.65-.98,8.74-3.09,12.41-6.05,5.29-4.27,11.16-6.43,18.06-5.52,2.97.39,5.99.3,8.99.69,11.59,1.53,22.43,5.15,32.11,11.71,11.07,7.51,14.29,24.02,6.78,34.23-2.05,2.79-2.46,5.45-1.59,8.68,1.53,5.68,1.97,11.45.67,17.26-.97,4.3-.64,5.17,3.27,7.21,7.32,3.82,14.3,8.15,20.74,13.35,1.72,1.39,3.64,2.62,5.64,3.56,16.77,7.85,32.98,17.02,51.02,21.92.98.27,1.95.54,1.9,1.78-.05,1.13-.84,1.65-1.86,1.94-2.4.68-4.8.45-7.21.15-7.33-.94-14.19-3.59-21.14-5.9-6.47-2.15-12.79-4.64-19.92-2.04-4.91,1.79-10.13,2.65-13.39,7.38-.84,1.22-2.02,2.31-1.22,3.87.71,1.39,2.19.9,3.42.93,1.64.04,3.53-.16,4.39,1.58.79,1.6-.4,2.98-1.24,4.26-2.95,4.48-5.32,9.18-6.4,14.5-.42,2.07-.84,4.11.86,5.72,1.73,1.65,3.64.57,5.46-.02,6.01-1.96,12.21-3.02,18.51-3.25,4.85-.18,8.48,4.45,6.86,8.73-1.96,5.18-4.6,10.05-8.76,13.9-.8.74-1.67,1.3-2.71,1.64-1.08.36-1.92-.08-2.64-.74-1-.92.08-1.51.45-2.22.76-1.46,1.51-2.92,2.26-4.38.83-1.62.14-2.99-.74-4.33-.89-1.35-2.21-1.05-3.43-.82-2.51.46-4.7,1.78-6.85,3.05-4.96,2.91-9.58,2.77-13.77-1.31-1.89-1.84-3.2-1.43-4.78.4-5.58,6.48-11.32,12.82-16.87,19.32-19.75,23.15-30.44,49.91-31.18,80.37-.52,21.53,2.65,42.41,12.17,62.08,4.88,10.08,8.59,20.74,15.91,29.52,1.2,1.44,1.92,3.35,2.65,5.12,1.8,4.35,4.22,8.29,7.43,11.72,12.56,13.4,25.07,26.86,37.77,40.13,7.86,8.21,16.11,16.03,26.61,20.96,1.81.85,3.33,2.32,4.98,3.53,17.49,12.82,35.55,24.56,56.73,30.57,24.77,7.03,49.6,13.59,75.76,10.21,9.89-1.28,19.7-2.97,29.27-5.86,2.01.33,3.52,1.41,4.92,2.86,3.92,4.05,7.91,8.04,11.92,12.01,19.66,19.47,42.19,34.73,67.53,45.82,1.09.48,1.92,1,1.67,2.31-.23,1.22-1.04,1.8-2.28,1.8-1.94,0-3.89-.04-5.83.03-1.76.07-2.7.93-2.39,2.82,1.64,10.12,4.87,19.37,13.56,25.81,1.79,1.32,3.31,3,5.03,4.43,12.85,10.69,27.29,17.26,44.34,17.09,3.41-.03,6.07-1.4,7.67-4.39,4.02-7.47,4.62-15.09.75-22.86-.47-.94-1.94-1.94-.74-3.03,1.05-.94,2.42-.18,3.5.44,4.07,2.35,6.67,5.89,7.88,10.39,1.35,5.03,1.58,10.11.49,15.26-.59,2.77.5,3.96,3.28,4.18,1.26.1,2.51.21,3.76.42,5.91.96,11.72,2.25,17.86,1.41,9.63-1.32,15.84-6.79,17.41-16.33.9-5.49-1.26-10.47-2.75-15.57-1.65-5.65-4.45-10.08-10.75-11.34-2.03-.41-3-1.92-2.32-3.94.64-1.91,2.4-2.26,4.1-1.83,10.12,2.59,17.57,8.36,21.45,18.3,2.03,5.2,2.04,10.63,1.6,16.08-.22,2.65.16,4.86,3.12,5.76,7.02,2.13,17.34-4.02,18.49-11.26.63-3.93.58-7.94-.81-11.8-2.6-7.26-6.66-13.77-10.94-20.07-3.04-4.48-7.49-7.86-10.73-12.27-5.43-7.39-9.17-15.47-10.69-24.55-.65-3.93-2.16-4.5-5.14-1.99-1.51,1.27-3.15,2.28-5,2.9-1.51.5-3.6,1.93-4.53.58-.85-1.21,1.33-2.53,2.38-3.54,9.27-8.82,15.98-19.26,19.69-31.51,1.12-3.68,2.65-6.42,6.1-8.6,5.89-3.71,7.11-8.67,4.75-15.15-.76-2.1-1.42-4.24-2.27-6.3-.8-1.94-.34-3.15,1.41-4.39,6.8-4.83,6.83-5.26,2.68-12.57-.14-.25-.29-.5-.43-.76-5.35-9.68-11.64-18.95-15.39-29.39-5.8-16.16-12.97-31.74-19.53-47.57-4.08-9.85-7.87-19.86-13.16-29.19-1.22-2.15-2.39-2.78-4.57-1.34-8.05,5.31-16.86,9.16-25.68,12.94-8.91,3.81-17.87,7.48-27.63,8.55-1.58.17-2.84.88-3.63,2.51-4.24,8.74-10.9,15.53-18.02,21.89-2.6,2.32-5.34,4.48-7.95,6.82-6.47,5.8-13.84,9.38-22.92,9.03-6.18-.24-11.77-1.91-17.13-4.78-4.7-4.04-9.74-6.37-15.94-3.36-.58.28-1.29.39-1.95.42-8.7.42-16.75-1.41-23.7-6.97-.53-.42-1.12-.77-1.72-1.09-7.02-3.76-11.89-9.57-12.73-17.35-.79-7.31-3.16-13.65-6.94-19.76-3.98-6.43-6.45-13.46-4.84-21.05,1.42-6.71,3.53-13.29,5.62-19.84,1.38-4.33,4.54-7.39,8.44-9.66,1.93-1.12,3.9-2.17,5.82-3.31,5.27-3.12,9.24-7.28,11.18-13.27,1.17-3.62,3.17-6.86,5.49-9.89,4.04-5.27,8.71-9.94,13.65-14.35,3.98-3.55,8.07-6.96,12.12-10.44.61-.28,1.28-.47,1.81-.86,6.88-4.93,14.19-9.15,21.68-13.07,4.34-2.27,4.41-2.57,2.87-7.23-2.32-7.03-.17-15.7,5.01-20.06.93-.78,1.91-2.04,3.28-1.19,1.31.81.77,2.19.55,3.45-1.3,7.36-1.44,14.64,1.45,21.75,1.95,4.8,1.09,6.75-3.66,8.92-1.32.6-2.67,1.16-4,1.73-12.8,5.55-24.16,13.17-33.92,23.19-9.02,9.26-16.64,19.47-22.04,31.27-1.51,3.29-3.67,5.84-7.39,6.89-6.37,1.8-11.47,5.46-15.28,10.92-4.88,6.97-5.12,14.82-4.39,22.85.25,2.72.89,5.35,2.61,7.62,1.13,1.5,2.1,1.62,3.07-.06.39-.67.62-1.44,1.05-2.07,3.39-4.94,6.32-10.31,11.94-13.23,1.35-.7,2.79-1.81,4.18-.17,1.33,1.57.3,3-.67,4.18-5.56,6.74-7.96,14.7-9.45,23.12-2.27,12.88,8.51,26.38,21.53,26.84,2.51.09,5.03.4,7.52.77,2.91.44,3.39-.04,2.48-2.8-.3-.92-.61-1.84-.92-2.76-2.72-8.19-1.11-13.18,5.89-18.17.77-.55,1.56-1.45,2.58-.86.9.52.51,1.59.44,2.41-.65,7.14,1.46,13.61,4.81,19.76,3.66,6.72,11.81,10.59,19.43,9.42,9.22-1.42,17.36-5.41,24.91-10.65,6.02-4.18,10.26-10,13.85-16.31,2.71-4.77,6.41-8.25,11.94-9.45,11.14-2.43,21.6-6.68,31.87-11.59,28.3-13.53,48.29-34.66,59.6-63.99,3.41-8.84,6.41-17.71,5.15-27.42-.32-2.43,1.24-3.92,2.95-5.34,3.73-3.08,3.94-7.39.57-10.83-.95-.97-2-1.85-3.05-2.71-2.51-2.04-4.58-4.46-6.42-7.12-1.29-1.86-1.46-3.27.23-5.11,2.52-2.75,2.37-5.51-.32-7.94-3.24-2.92-6.37-6.04-10.19-8.23-2.35-1.35-4.18-3.11-5.76-5.24-5.69-7.67-12.18-14.63-19.12-21.18-10.33-9.74-22.12-16.98-35.79-21.03-4.17-1.23-4.26-1.21-4.26,3.03,0,.97.01,1.95,0,2.92-.09,5.02-1.84,7.49-6.6,9.06-3.61,1.19-7.3,1.87-11.13,1.83-5.33-.06-10.66-.3-15.92,1.08-2.43.64-3.16,1.67-1.82,3.87,1,1.65,1.53,3.38.72,5.25-1.25,2.85-2.73,5.59-4.7,8.01-1.6,1.96-3.71,3.15-6.24,3.34-3.58.27-7.18.61-10.76.53-2.64-.06-3.7.82-4.26,3.44-1.59,7.56-4.66,14.57-9.03,20.97-2.17,3.18-3.39,3.58-6.72,1.94-1.53-.75-1.8-.02-2.27,1.04-1.04,2.39-2.14,4.76-3.22,7.14-.69,1.53-1.79,2.51-3.55,2.55-.67-.49-1.12-1.19-1.06-1.98.41-5.43.95-10.81,4.35-15.43,1.45-1.98,3.13-2.83,5.48-1.86,2.55,1.05,4.04,0,4.99-2.37,1.77-4.44,1.92-9.1,1.67-13.76-.13-2.29-2.3-2.3-3.94-2.72-1.52-.39-2.39.4-2.84,1.77-.89,2.67-1.91,5.33-3.59,7.58-9.51,12.69-20.27,24.07-34.25,31.97-6.28,3.55-13.03,5.53-20.32,4.67-3.94-.46-7.2.65-10.24,3.08-5.2,4.16-11.11,6.98-17.45,8.97-4.63,1.45-9,1.32-12.87-1.96-1.88-1.59-3.61-1.36-5.54-.08-3.15,2.09-6.32,4.16-9.6,6.03-3.54,2.02-7.31,3.55-11.43,3.91-1.88.16-3.8.27-4.55-2.06-.76-2.37.76-3.76,2.46-4.71,9.76-5.47,19-11.67,27.55-18.91,1.74-1.48,3.27-.82,4.35.96.61.99.79,2.13.9,3.32.45,4.93,2.2,6.01,6.65,4.03,8.53-3.79,16.65-8.3,24.21-13.8,4.65-3.38,8.92-7.18,12.95-11.28,2.06-2.09,3.78-1.49,4.46,1.38.31,1.31-.05,2.51-.57,3.67-.52,1.14-1.17,2.23-1.75,3.35-.3.58-.84,1.19-.09,1.79.49.39,1.12.4,1.66.13,5.07-2.55,10.59-4.16,14.87-8.27,4.44-4.26,8.49-8.83,12.28-13.63,5.01-6.36,9.47-12.98,10.11-21.46.21-2.83,1.92-3.6,4.52-2.35,1.49.71,2.89,1.5,4.62,1.58,7.86.34,15.71.81,23.58,1.1,2.41.09,4.87.17,7.23-.54,2.61-.78,3.35-2.26,2.62-4.86-.57-2.01-1.8-3.64-2.88-5.36-1.5-2.41-2.51-4.88-.85-7.6,1.6-2.62,4.18-2.56,6.73-2.2,9.62,1.37,19.19.17,28.77-.53,3.1-.23,3.58-1.29,1.72-3.9-1.83-2.57-2.27-5.5-2.78-8.45-.38-2.16.36-3.54,2.66-3.98,4.01-.77,7.18-3.3,10.6-5.28,1.84-1.07,1.68-2.52.12-3.73-1.94-1.51-4.21-2.39-6.64-2.72-1.92-.26-3.87-.31-5.79-.57-1.91-.26-3.2-1.49-3.79-3.22-.55-1.61,1.08-2.04,2.01-2.8,4.77-3.89,5.36-9.68,7.51-15.54-3.24,1.74-5.79,3.12-8.35,4.47-4.38,2.31-8.88,4.3-13.79,5.2-1.23.23-2.97.74-3.59-.17-.84-1.22.14-2.77.97-3.99,1.05-1.55,2.45-2.76,4.04-3.72,1.74-1.05,3.46-2.18,5.32-2.97,11.42-4.85,21.68-11.6,31.58-18.97,1.24-.92,2.55-1.78,3.88-2.56.43-.25,1.12-.59,1.58,0,.34.43,0,.9-.16,1.36-1.17,3.57-3.62,6.14-6.53,8.35q-5.39,4.09-3.04,10.21c.1.27.11.57.17.86-1.47,5.52-2.71,11.12-6.52,15.69-1.25,1.5.15,2.12,1.28,2.38,3.8.89,7.24,2.71,10.85,4.09,6.98,2.69,8.28,8.67,2.99,13.74-1.38,1.32-1.32,2.38.32,3.12,7.06,3.17,14.14,6.33,21.28,9.32,2.07.87,3.8,0,3.8-2.46-.01-5.49-.3-10.93-5.38-14.61-2.15-1.56-2-3.26.41-4.33,1.66-.74,3.5-1.1,5.23-1.7,3.64-1.25,4.5-2.5,4.07-6.27-.23-2.01-.79-3.99-1.08-6-.26-1.81-1.24-2.42-2.99-2.4-2.12.02-4.23.13-6.37-.4-5.97-1.47-11.39-4.31-17-6.65-.5-.21-.84-.76-1.26-1.16-.21-2.92,1.55-3.3,3.74-2.69,13.34,3.69,26.77,1.89,40.16.62,8.03-.76,7.47-2.27,6.02-9.58-1.03-5.2-3.25-9.89-6.37-14.16-.61-.84-1.53-1.69-.78-2.85.74-1.14,1.91-.59,2.93-.48.48.05.96.15,1.43.25,7,1.53,14.08,1.45,21.13.73,11.56-1.19,22.89-3.82,34.35-5.65,2.13-.34,3.28-1.42,3.32-3.66.06-3.6-.24-7.15-1.09-10.66-1.7-7.08-4.74-13.66-7.66-20.28-1.41-3.21-1.1-5.81,1.45-8.43,2.62-2.69,5.46-5.27,7.21-8.71.27-.11.63-.15.78-.34,5.23-6.52,10.29-13.17,13.98-20.72,1.65-3.38,1.19-6.53-1.18-9.49-5.34-6.66-11.83-11.73-19.85-14.76-9.47-3.58-18.49-8.58-28.91-9.23-1.73-.11-1.93-1.23-1.8-2.66,1.41-15.03-2.08-29.56-5.02-44.06-2.73-13.44-9.62-25.08-17.53-36.12-1.02-1.42-2.09-2.83-2.42-4.59-.14-.73-.53-1.62.25-2.17.7-.5,1.48-.19,2.17.23,4.86,2.94,10.32,5.08,13.1,10.66,1.01,2.02,2.71,2.12,4.63.77,4.76-3.34,5.24-6.75.99-10.68-5.35-4.95-10.87-9.71-16.4-14.45-3.75-3.22-3.94-4.79-.28-8.21,2.19-2.06,4.6-3.89,6.93-5.8.89-.73,2.19-1.34,1.8-2.69-.37-1.29-1.56-1.84-2.91-2.1-7.5-1.44-14.85-3.62-22.44-4.66-5.45-.74-10.34-2.17-11.7-8.53-.14-.63-.55-1.25-.97-1.78-9.54-12.01-17.93-24.95-28.64-36.02-10.86-11.22-23.86-19.89-35.97-29.62-9.43-7.58-20.73-12.18-30.86-18.65-12.79-8.16-26.72-13.08-41.47-16.11-8.3-1.71-16.17-1.43-23.37,3.68-2.1,1.49-4.21,1.1-6.19-.38ZM123.28,534.83c6.01-2.44,10.58-.8,13.82,4.88,1.58,2.77,3.34,4.71,6.88,4.01,3.11-.61,5.08-2.79,6.13-6.24,2.31-7.57-4.02-20.98-13.05-22.42-.87-.14-2.17-.32-2.07-1.6.11-1.36,1.22-1.88,2.5-1.92.68-.02,1.4-.1,2.03.09,7.36,2.19,14.49,4.68,17.54,12.83.83,2.22,2.43,2.44,4.08.86,3.93-3.77,5.65-8.41,4.29-13.74-2.1-8.27-8.42-12.75-15.55-16.25-4.92-2.42-10.28-3.13-15.71-3.78-11.76-1.39-22.34,1.22-31.72,8.45-3.7,2.85-7.53,5.48-11.49,7.94-1.58.98-2.89,1.24-3.38-1.16-.42-2.04-1.96-2-3.41-1.4-5.54,2.31-11.16,4.44-16.13,7.94-11.3,7.95-18.72,18.95-24.76,31.1-6.23,12.54-9.95,25.99-14.65,39.1-3.02,8.43-4.9,17.09-5.73,25.98-.96,10.3-.09,20.52,1.04,30.78,1.32,11.97,4.84,23.05,11.22,33.25,5.32,8.51,11.81,16.14,18.01,23.98,1.34,1.69,2.6,3.36,2.38,5.73-.27,2.98,1.45,4.47,4.16,5,3.13.62,6.27,1.18,9.41,1.72,1.13.19,2.08.45,2.19,1.85.38,5.02,3.22,6.21,7.84,6.26,10.97.12,21.97.73,32.91-.5,6.69-.75,11.96-3.8,14.88-10.13,1.01-2.19,1.95-4.43,2.74-6.71,2.59-7.53,5.38-14.97,9.86-21.61,12.18-18.04,24.98-35.63,39.13-52.18,4.65-5.44,5.25-10.21,1.75-16.43-1.68-2.97-1.51-5.59.58-8.33,2.85-3.76,6.65-6.19,10.74-8.28,2.81-1.44,5.63-2.86,8.62-4.38-.47-.43-.64-.68-.87-.79-6.43-2.77-12.63-5.93-18.19-10.25-1.96-1.52-3.92-1.12-5.89.2-5.42,3.65-10.15,8.14-15.12,12.33-1.2,1.01-1.88,2.38-2.16,4.01-.72,4.16-.19,8.35-.5,12.51-.72,9.61-3.13,18.68-8.47,26.84-1.02,1.56-2.3,2.88-3.73,4.07-.75.63-1.65.68-2.45.22-.69-.4-.71-1.25-.36-1.82,2.52-4.09,2.53-8.87,3.74-13.32,2.63-9.68,3.44-19.41,1.37-29.32-1.26-6.01-2.31-12.04-8.05-15.8-1.48-.97-.72-2.08.58-2.59,7.2-2.84,12.1-8.67,17.64-13.64,4.58-4.11,6.64-14.56,4.23-20.12-.49-1.13-1.26-1.98-2.62-1.96-1.2.01-1.57.88-1.94,1.84-.56,1.44-1.21,2.85-1.88,4.25-2.31,4.79-5.22,8.93-11.05,9.7-1.62.21-2.31,1.31-2.67,2.69-.29,1.12-.4,2.29-.68,3.41-1.78,7.19-5.1,13.25-13.09,14.62-5.58.96-8.56,3.57-9.29,9.3-.45,3.51-2.3,6.62-5.79,8.25-1.17.55-2.44,1.57-3.78.48-1.4-1.14-.89-2.66-.37-4.01,1.07-2.8,2.13-5.62,3.41-8.32,1.28-2.68.84-4.79-1.36-6.72-1.31-1.15-2.51-2.44-3.65-3.76-1.06-1.23-1.74-2.69-.67-4.23,1.18-1.7,2.74-1.1,4.15-.34,4.18,2.23,8.81,2.14,13.31,2.55,2.14.2,4.31-.76,5.39-2.86,3.02-5.91,4.6-12.12,3.14-18.78-1.22-5.59-4.86-9.58-9.42-13.29ZM134.6,808.88c-.66.72-1,1.05-1.29,1.41-15.49,19.53-22.31,42.25-24.01,66.69-.81,11.74.27,23.44,2.83,34.97,2.66,11.98,6,23.69,14.09,33.35,4.18,4.99,8.45,9.91,12.89,14.67,13.79,14.76,27.44,29.71,45.47,39.59,1.16.63,1.37,1.36.27,2.19-4.39,3.32-8.22,7.54-13.78,9-6.15,1.61-11.67,4.58-17.34,7.3-10.7,5.14-15.97,16.64-12.45,28.89.91,3.15,4.34,6.14,7.3,6.22,2.92.08,4.91-1.66,6.25-5.47,2-5.7,4.29-11.28,8.39-15.82,4.6-5.1,9.72-9.52,16.99-10.25,1.72-.17,3.39,0,4.1,1.94.74,2.01-.39,3.33-1.89,4.43-2.27,1.66-4.56,3.29-6.82,4.97-5.1,3.79-7.47,8.78-7.63,15.22-.21,8.17,3.53,15.45,14.4,14.38,4.12-.41,5.67-1.39,6.8-5.4,1.89-6.74,5.13-12.75,9.87-17.9,3.89-4.23,8.69-6.41,14.52-6.01.91.06,2.06-.2,2.38,1.12.27,1.08-.58,1.53-1.26,2.07-2.6,2.07-4.94,4.4-6.81,7.15-2.1,3.09-2.96,6.46-.91,9.82,2.2,3.63,6.02,5.05,9.83,4.22,9-1.98,17.87-4.59,26.78-6.95-1.21-.68-2.35-.64-3.48-.7-.73-.04-1.87.24-1.98-.68-.12-.99.22-2.16,1.44-2.58.73-.25,1.49-.41,2.25-.57,13.59-2.83,26.81-6.9,39.55-12.39,12.79-5.52,17.79-20.27,11.19-32.17-1.16-2.08-2.35-2.69-4.31-1.1-1.8,1.46-3.86,2.14-6.21,2.03-1.38-.07-2.91.08-3.4-1.56-.5-1.68.95-2.41,2.07-3.11,11.35-7.1,18.83-17.8,26.46-28.37,1.37-1.89.95-3.22-1.21-4.03-2.72-1.02-5.44-2.01-8.16-3.04-18.92-7.18-36.51-17.04-54.02-27.01-15.88-9.04-30.66-19.45-44.19-32.01-24.41-22.65-43.84-48.68-58.03-78.71-2.4-5.07-4.53-10.26-6.95-15.78ZM565.76,41.65c.13-1.73-.28-3.32-2.04-4.07-2.45-1.05-4.38.1-5.97,1.81-12.43,13.34-19.73,29.04-21.48,47.23-.65,6.77-1.18,13.55-1.57,20.33-.46,7.96-.65,15.95,1.4,23.75,3.8,14.49,10.86,27.47,18.95,39.93,5.83,8.98,13.18,16.8,19.53,25.39,2.54,3.43,4.15,7.69,7.53,10.3,4.94,3.8,8.44,8.8,12.58,13.28,7.25,7.85,10.77,16.8,9.9,27.57-.59,7.23-2.95,13.28-8.87,17.83-7.21,5.54-14.84,9.89-24.25,9.99-2.58.03-2.92,1.27-1.98,3.39,1.39,3.13,3.76,5.21,6.95,6.18,2.67.82,5.47,1.24,8.21,1.82,7.41,1.58,14.71,3.44,20.95,8.08,7.04,5.23,7.97,12.71,2.4,19.41-2.53,3.04-2.59,3.89.73,5.89,7.75,4.67,11.26,11.97,13.27,20.32.75,3.09.21,5.94-1.47,8.62-1.13,1.8-2.35,3.58-3.22,5.5-1.23,2.72.46,4.96,1.99,6.86,1.3,1.62,2.86-.07,4.17-.62,3.22-1.35,6.27-3.08,9.15-5.06,5.68-3.91,11.5-7.56,17.5-10.96,27.1-15.35,55.82-53.39,50.69-93.45-1.18-9.22-3.65-17.81-9.16-25.36-6.87-9.42-16.15-15.89-26.46-20.91-19.74-9.6-37.16-22.41-53.02-37.47-7.22-6.86-12.79-15.14-19.53-22.41-4.79-5.16-8.44-11.07-11.75-17.27-11.38-21.33-17.14-44.01-16.58-68.2.14-5.91.94-11.81,1.44-17.71ZM113.05,327.23c.62-1.19,1.05-2.05,1.51-2.91q2.71-5.07-1.18-9.02c-5.6-5.69-5.67-9.05-.47-15.02,4.08-4.68,9.28-7.63,15.01-9.67,5.99-2.13,10.6-5.72,14.05-11.16,3.74-5.9,7.96-11.5,12.03-17.19,2.49-3.49,2.66-3.64-.83-6.06-5.26-3.64-6.82-8.72-6.33-14.71.84-10.3,4.85-19.29,11.4-27.22,4.42-5.35,9.5-10.02,14.74-14.51,15.36-13.18,26.19-28.84,27.57-49.78.38-5.71,1.45-11.39,1.15-17.13-.34-6.4-1.15-12.79-1.37-19.19-.55-15.58-4.4-30.27-11.17-44.25-3.81-7.88-7.89-15.58-13.86-22.09-1.26-1.38-2.55-2.61-4.65-2.6-1.93,0-2.73.44-1.87,2.54.91,2.22,1.74,4.52,2.27,6.86,2.17,9.58,2.92,19.34,3.75,29.1.84,9.86.78,19.65-2.41,29.08-7.09,20.91-17.72,39.88-33.16,55.74-14.62,15.02-29.07,30.27-46.96,41.71-9.11,5.82-15.27,14.2-17.8,24.97-.57,2.44-1.25,4.89-2.21,7.19-3.79,9.03-3.41,18.09-.57,27.24,6.74,21.7,19.96,38.99,36.73,53.84,1.51,1.34,3.4,2.25,4.66,4.25ZM171.91,570.9c-1.71-1.39-3.19-2.63-4.7-3.81-.94-.74-2.01-.95-2.86.03-3.17,3.68-6.62,7.05-10.55,9.93-1.25.91-.42,1.88.19,2.74.67.94,1.41.79,2.21.09.87-.76,1.78-1.49,2.7-2.2,3.85-2.96,8.37-4.66,13.01-6.78Z"/>
          <path class="cls-6" d="M715.34,271.78l-.22-.04s-.08-.22-.07-.22c0-2.94,0-5.87-.01-8.8.01-.2.11-.29.31-.28v9.34Z"/>
          <path class="cls-2" d="M648.94,479.69c-1.75,3.44-4.59,6.02-7.21,8.71-2.55,2.62-2.86,5.22-1.45,8.43,2.91,6.62,5.96,13.19,7.66,20.28.84,3.51,1.15,7.06,1.09,10.66-.04,2.24-1.2,3.32-3.32,3.66-11.46,1.83-22.79,4.47-34.35,5.65-7.05.72-14.13.8-21.13-.73-.47-.1-.95-.2-1.43-.25-1.02-.11-2.19-.66-2.93.48-.75,1.15.17,2,.78,2.85,3.11,4.28,5.34,8.97,6.37,14.16,1.45,7.31,2.02,8.82-6.02,9.58-13.39,1.27-26.82,3.07-40.16-.62-2.19-.61-3.95-.23-3.74,2.69-3.44.13-6.28-2.17-9.63-2.38-.05-.29-.06-.59-.17-.86q-2.35-6.12,3.04-10.21c2.91-2.21,5.36-4.78,6.53-8.35.15-.45.5-.92.16-1.36-.47-.59-1.15-.26-1.58,0-1.34.78-2.64,1.63-3.88,2.56-9.9,7.37-20.16,14.12-31.58,18.97-1.86.79-3.59,1.91-5.32,2.97-1.59.96-2.99,2.18-4.04,3.72-.83,1.22-1.81,2.77-.97,3.99.62.91,2.36.39,3.59.17,4.91-.9,9.41-2.89,13.79-5.2,2.56-1.35,5.11-2.73,8.35-4.47-2.15,5.86-2.74,11.65-7.51,15.54-.93.76-2.56,1.19-2.01,2.8.59,1.72,1.88,2.96,3.79,3.22,1.92.26,3.87.31,5.79.57,2.43.33,4.7,1.21,6.64,2.72,1.55,1.21,1.72,2.66-.12,3.73-3.42,1.98-6.59,4.51-10.6,5.28-2.3.44-3.03,1.81-2.66,3.98.51,2.95.95,5.88,2.78,8.45,1.86,2.61,1.38,3.67-1.72,3.9-9.58.7-19.15,1.9-28.77.53-2.56-.36-5.14-.42-6.73,2.2-1.66,2.72-.66,5.2.85,7.6,1.08,1.72,2.31,3.35,2.88,5.36.73,2.6,0,4.08-2.62,4.86-2.36.71-4.82.63-7.23.54-7.86-.29-15.72-.76-23.58-1.1-1.73-.08-3.13-.87-4.62-1.58-2.61-1.25-4.31-.48-4.52,2.35-.64,8.48-5.1,15.11-10.11,21.46-3.79,4.81-7.84,9.38-12.28,13.63-4.28,4.11-9.81,5.72-14.87,8.27-.54.27-1.17.27-1.66-.13-.75-.6-.21-1.21.09-1.79.58-1.12,1.23-2.21,1.75-3.35.53-1.15.89-2.36.57-3.67-.68-2.87-2.41-3.47-4.46-1.38-4.03,4.1-8.31,7.9-12.95,11.28-7.56,5.5-15.68,10.01-24.21,13.8-4.45,1.98-6.2.9-6.65-4.03-.11-1.19-.29-2.33-.9-3.32-1.09-1.77-2.61-2.44-4.35-.96-8.54,7.24-17.79,13.44-27.55,18.91-1.7.95-3.22,2.34-2.46,4.71.75,2.33,2.67,2.22,4.55,2.06,4.13-.36,7.89-1.89,11.43-3.91,3.28-1.87,6.45-3.94,9.6-6.03,1.93-1.28,3.67-1.51,5.54.08,3.87,3.27,8.25,3.41,12.87,1.96,6.34-1.98,12.25-4.81,17.45-8.97,3.04-2.43,6.3-3.55,10.24-3.08,7.29.86,14.04-1.12,20.32-4.67,13.97-7.89,24.74-19.27,34.25-31.97,1.68-2.25,2.7-4.91,3.59-7.58.46-1.37,1.33-2.17,2.84-1.77,1.64.42,3.81.43,3.94,2.72.26,4.66.11,9.32-1.67,13.76-.94,2.37-2.44,3.42-4.99,2.37-2.36-.97-4.03-.12-5.48,1.86-3.4,4.62-3.94,10-4.35,15.43-.06.79.39,1.49,1.06,1.98-.4,1.79-.86,3.58-1.19,5.38-.61,3.41-2.37,6.61-1.93,10.22-4.04,3.47-8.14,6.89-12.12,10.44-4.94,4.41-9.61,9.08-13.65,14.35-2.32,3.02-4.32,6.27-5.49,9.89-1.94,5.99-5.91,10.15-11.18,13.27-1.92,1.14-3.89,2.18-5.82,3.31-3.9,2.27-7.05,5.33-8.44,9.66-2.09,6.55-4.21,13.13-5.62,19.84-1.61,7.6.86,14.62,4.84,21.05,3.78,6.11,6.15,12.44,6.94,19.76.84,7.78,5.71,13.59,12.73,17.35.6.32,1.19.67,1.72,1.09,6.95,5.56,15,7.39,23.7,6.97.66-.03,1.37-.14,1.95-.42,6.2-3.02,11.24-.68,15.94,3.35-.82,5.52.12,11.48-4.06,16.15-2.14-.88-3.8.05-5.2,1.52-1,1.04-1.86,2.23-2.71,3.41-8.99,12.42-14.61,26.49-19.88,40.74-1.23,3.32-1.99,6.66-1.68,10.21-5.77,9.86-9,20.56-10.56,31.82-9.57,2.89-19.38,4.59-29.27,5.86-26.16,3.38-50.99-3.18-75.76-10.21-21.18-6.01-39.24-17.74-56.73-30.57-1.64-1.2-3.16-2.68-4.98-3.53-10.51-4.93-18.75-12.75-26.61-20.96-12.7-13.27-25.21-26.73-37.77-40.13-3.21-3.43-5.64-7.37-7.43-11.72-.73-1.78-1.45-3.68-2.65-5.12-7.32-8.77-11.03-19.44-15.91-29.52-9.53-19.67-12.69-40.55-12.17-62.08.74-30.46,11.43-57.22,31.18-80.37,5.55-6.5,11.3-12.84,16.87-19.32,1.58-1.83,2.89-2.24,4.78-.4,4.19,4.08,8.81,4.22,13.77,1.31,2.15-1.26,4.34-2.58,6.85-3.05,1.22-.23,2.54-.53,3.43.82.88,1.34,1.56,2.71.74,4.33-.75,1.46-1.49,2.93-2.26,4.38-.37.71-1.46,1.3-.45,2.22.72.66,1.57,1.1,2.64.74,1.04-.34,1.92-.91,2.71-1.64,4.15-3.86,6.8-8.72,8.76-13.9,1.62-4.28-2.01-8.91-6.86-8.73-6.29.23-12.49,1.29-18.51,3.25-1.82.59-3.73,1.67-5.46.02-1.69-1.61-1.28-3.65-.86-5.72,1.08-5.31,3.45-10.02,6.4-14.5.84-1.28,2.03-2.66,1.24-4.26-.86-1.73-2.75-1.54-4.39-1.58-1.23-.03-2.71.46-3.42-.93-.8-1.56.38-2.65,1.22-3.87,3.26-4.74,8.48-5.59,13.39-7.38,7.13-2.6,13.45-.1,19.92,2.04,6.96,2.31,13.81,4.96,21.14,5.9,2.41.31,4.81.53,7.21-.15,1.03-.29,1.82-.81,1.86-1.94.05-1.25-.91-1.52-1.9-1.78-18.04-4.9-34.25-14.07-51.02-21.92-2-.94-3.92-2.17-5.64-3.56-6.44-5.2-13.42-9.53-20.74-13.35-3.91-2.04-4.23-2.91-3.27-7.21,1.31-5.81.86-11.58-.67-17.26-.87-3.24-.46-5.89,1.59-8.68,7.52-10.21,4.29-26.72-6.78-34.23-9.68-6.56-20.52-10.19-32.11-11.71-3-.39-6.02-.3-8.99-.69-6.9-.91-12.77,1.25-18.06,5.52-3.66,2.96-7.76,5.07-12.41,6.05-.97.2-1.89.39-2.98.1.25-1.79,1.58-2.82,2.72-3.94,3.81-3.76,7.5-7.59,10.23-12.27,1.53-2.62,1.56-5.02-.18-7.57-7.4-10.85-10.79-23.2-13.39-35.86-.46-2.23.33-3.39,2.2-4.41,6.48-3.54,13.51-5.7,20.4-8.2,2.61-.95,4.81-2.22,4.42-5.56,3.91-1.38,7.24-3.62,10.09-6.64,2.48-2.62,4.65-2.97,7.81-1.23,1.6.87,3.07,1.97,4.6,2.96,3.16,12.39,3,24.77.03,37.18-.84,3.5,0,4.5,3.52,5-.96,4.05-1.89,8.1-2.87,12.15-1.3,5.37-1.18,5.58,4.05,7.67,13.44,5.35,26.69,11.05,38.44,19.69.77.56,1.94,1.22,2.03,1.95.31,2.4,1.82,2.27,3.5,2.13,1.44-.12,2.9-.17,4.33-.35,8.26-1.06,16.5-2.3,24.86-1.63-.33,1.13.29,1.6,1.27,1.81,2.84.61,5.68,1.21,8.52,1.84,2.15.48,3.65,0,3.92-2.48,2.15.33,4.39.09,6.47.92-.68,1.26-.76,2.28.73,3.13,7.26,4.15,15.19,2.35,19.94-4.51,1.17-1.7,1.53-3.29.3-5.06,5.33-7.45,11.19-14.38,19.06-19.34,2.13-1.34,4.38-2,6.9-1.72,4,.44,5.43,2.38,4.49,6.23-.44,1.78-1.05,3.51-1.57,5.27-1.66,5.64-4,11.12-4.05,17.14-.21.44-.43.87-.62,1.31-2.51,5.66-.45,9.43,5.69,10.37,2.71.42,4.87,1.74,6.66,3.79,1.97,2.26,3.78,4.69,6.21,6.52,6.6,4.98,14.24,3.97,19.02-2.61,2.03-2.8,4.69-4.59,7.99-5.42,1.97-.5,3.99-.78,5.97-1.24,4.2-.98,6.28-3.34,6.74-7.65.14-1.35.1-2.71.14-4.07,1.17-.52,1.58-1.68,2.16-2.66,2.71-4.53,4.56-9.41,5.72-14.55.54-2.39,1.39-4.66,2.83-6.64,2.64-3.64,9.14-3.8,12.01-.36.87,1.04,1.72,2.1,2.68,3.06,7.2,7.21,14.42,14.39,21.64,21.58-.92,1.03-2.5,1.83-1.41,3.61,4.27,6.99,11.77,9.72,19.25,7.36,4.31-1.36,8.44-3.29,12.89-4.3,1.46-.33,3.08-.81,3.24-2.8,2.85-.03,5.65-.96,8.53-.6-.56,2.96,1.52,3.23,3.49,3.09,4.61-.34,9.16-1.13,13.52-2.73,1.05-.39,2.27-.71,2.4-2.17,9.14-.58,18.24.78,27.38.61,11.09-.22,22.06,1.22,33.03,2.7,3.74.51,7.49,1.21,11.31.8,2.05-.22,3.61-1.25,3.83-3.35.22-2.02-1.11-3.19-3.01-3.72-2.24-.62-4.5-1.19-6.72-1.88-2.38-.74-3.31-2.58-2.7-4.99.77-3.07,3.23-4.32,5.87-5.08,4.71-1.35,8.71-3.72,11.99-7.34,1.11.65,2.19.53,3.24-.16,2.96-1.95,5.91-3.92,8.89-5.85,1.71-1.1,2.29-2.48,1.3-4.37,1.73-1.18,3.45-2.35,5.18-3.53,1.29,1.98,2.94,1.08,4.34.36,3.01-1.53,6.04-3,9.16-4.32,2.54-1.07,4.1-1.04,5.31,2.06,1.99,5.1,5.03,6.32,9.45,3.78,8.32-4.78,15.99-10.52,22.93-17.2.47-.45,1.17-.88.92-1.67-.32-1.01-1.34-.46-2.01-.73,4.24-2.81,9.05-4.38,13.75-6.13,1.78-.66,3.87-.45,5.76.06,11.12,2.96,21.6,7.44,31.46,13.37,1.55.94,2.75,2.17,2.83,4.13.22,5.29-.17,10.45-2.69,15.28-1.02,1.96-2.05,3.97-1.91,6.31ZM322.8,555.81c8.47-.13,16.88.34,25.23,1.88,4.26.79,8.3,2.71,12.79,2.4,4.2-.29,7.52,1.44,9.92,4.93,1.05,1.52,2.21,2.95,3.77,4.01,3.11,2.11,5.73,1.84,8.26-.98,1.85-2.07,2.98-4.57,3.65-7.21,1.01-4,3.56-6.22,7.38-7.45,3.59-1.15,7.16-2.44,10.62-3.94,6.56-2.86,12.45-6.77,17.31-12.09,2.92-3.2,2.55-6.59-.84-8.95-2.64-1.84-5.12-1.36-7.79,1.89-11.88,14.46-28.28,19.33-45.85,21.54-8.66,1.09-17.19-.68-25.73-1.96-10.22-1.53-20.44-1.77-30.71.06-8.85,1.58-17.63,3.66-26.7,3.94-9.2.29-17.6-1.06-24.77-7.71-5.03-4.67-10.83-8.52-16.34-12.65-2.2-1.65-4.56-1.55-6.71.16-2.2,1.75-1.63,3.85-.59,6.02,1.81,3.75,4.78,6.32,8.35,8.24,4.43,2.39,8.94,4.64,13.39,7,5.58,2.97,9.82,7.07,11.9,13.29,1.41,4.24,5.33,5.37,9.19,3.06,1.28-.76,2.25-1.83,3.12-3.02,1.75-2.39,3.81-4.55,6.52-5.69,4.7-1.99,9.44-4.02,14.35-5.37,6.61-1.82,13.5-1.19,20.28-1.39ZM261.43,698.24c-.08,4.69.15,9.4,2.44,13.58,4.34,7.92,11.03,12.71,20.22,5.09,4.33-3.6,8.55-7.34,12.76-11.08,3.46-3.07,7.22-4.87,11.95-3.31,2.37.78,3.19-.58,3.48-2.59.73-5.13-3.82-8.97-9.12-7.76-7.15,1.64-12.94,5.48-17.78,10.91-2.32,2.61-4.69,5.2-8.04,6.57-3.91,1.61-5.48.85-6.58-3.22-2.19-8.11-.68-15.98,1.5-23.81,1.51-5.43,4.79-9.25,10.23-11,2.42-.78,4.16-2.43,5.86-4.18.93-.96,1.11-2.06.45-3.19-.6-1.04-1.64-1.37-2.77-1.13-1.03.22-2.06.55-3.04.95-5.18,2.1-10.66,2.78-16.13,3.31-3.81.36-6.42-1.22-7.42-3.86-.95-2.53.11-4.9,3.37-7.32,2.03-1.5,4.12-2.92,6.18-4.37,1.85-1.29,3.05-2.91,1.77-5.16-1.22-2.13-3.04-1.38-4.86-.73-7.18,2.56-13.9,6.3-21.33,8.23-5.21,1.35-10.43,2.12-15.82,1.17-2.27-.4-5.58,1.25-5.79,2.86-.37,2.89,1.88,3.37,3.92,4.15,3.48,1.33,7.01,1.34,10.6.75,2.88-.47,5.78-.65,8.7-.52,1.2.06,2.24.48,1.68,1.97-1.05,2.82.49,4.64,2.31,6.36,3.14,2.97,7.06,4.35,11.17,5.2,2.05.42,2.7,1.19,2.21,3.39-1.37,6.16-2.02,12.43-2.14,18.74ZM448.77,588.79c.21-2.82.1-5.36-3.05-6.19-1.4-.37-2.8-.83-4.23-.94-10.18-.76-18.37,3.81-25.84,10.02-3.06,2.55-5.94,5.29-9.74,6.76-11.2,4.34-22.81,6.61-34.8,7.18-5.22.25-10.41.89-15.38,2.73-1.52.57-3.19,1.03-3.02,2.95.17,1.84,1.77,2.35,3.42,2.55,7.65.94,15.32,1,22.97.14,5.11-.57,10.17-1.52,15.28-2.13,2.91-.34,3.52.59,2.48,3.34-.65,1.72-1.47,3.36-2.13,5.08-1.21,3.16-.54,5.27,2.1,7.4,1.6,1.29,3.25,1.03,4.93.38,1.6-.62,1.53-2.03,1.53-3.43,0-1.16-.06-2.37.24-3.47,3.87-14.12,13.65-22.88,26.44-28.8,1.5-.7,3.33-.52,4.65.75,1.3,1.25,1.57,2.77.88,4.54-.53,1.34-.84,2.78-1.14,4.2-.37,1.74-.42,3.51.55,5.09.87,1.42,2.26,2.17,3.89,2.2,1.66.02,1.46-1.54,1.83-2.54.99-2.68,2.72-4.67,5.3-5.92,2.72-1.31,5.23-2.97,7.58-4.87,3.94-3.19,8.28-5.71,12.9-7.84,4.31-1.98,8.9-3.38,12.84-6.14.77-.54,1.93-.86,1.52-2.13-.46-1.43-1.68-1.09-2.7-.86-2.75.62-5.49,1.29-8.33,1.06-6.63-.54-12.1,1.99-17.02,6.17-1.14.97-2.12,2.21-3.95,2.73ZM284.74,840.36c.56,3.79-.15,7.53.3,11.32.47,3.98,2.03,7.71,2.59,11.62.77,5.36,3.95,9.17,7.32,12.95.49.55,1.23,1.25,1.96.66.6-.48.01-1.24-.21-1.87-3.61-9.91-6.17-20-5.42-30.7.21-3,.19-6.02.21-9.03.01-2.62,0-5.25-.14-7.86-.09-1.88-1.01-3.4-2.83-4.05-1.82-.65-3.11.42-4.35,1.63-.83.81-1.3,2.16-2.87,2.26-1-4.82-.42-9.31,1.32-13.78,2.44-6.29,6.59-11.63,9.46-17.67,1.13-2.37.59-3.25-1.99-2.97-3.74.4-6.62,2.48-8.45,5.59-7.36,12.48-11.28,25.7-7.88,40.31.64,2.75,2.08,5.01,4.41,6.64,2.23,1.56,3.97,1.13,5.18-1.34.58-1.18.95-2.47,1.42-3.71ZM310.27,615.19c5.55-.36,10.83.55,15.99-.84,1.29-.34,2.95-.53,2.67-2.4-.27-1.81-1.57-2.44-3.42-2.34-2.52.13-5.18.54-7.54-.08-13.36-3.55-27.18-2.64-40.69-4.53-1.18-.16-2.39-.21-2.85,1.28-.4,1.33.19,2.24,1.3,2.91,2.08,1.25,4.24,2.31,6.63,2.85,9.3,2.1,18.66,3.6,27.91,3.14ZM313.81,905.2c-.14-.41-.21-.89-.45-1.28-2.91-4.7-5.83-9.39-8.81-14.05-.45-.71-1.15-1.35-1.87-1.78-1.11-.66-1.78-.23-1.98,1.08-.84,5.63,7.03,15.69,12.75,16.24.08,0,.16-.1.36-.22Z"/>
          <path class="cls-4" d="M648.94,479.69c-.15-2.34.89-4.35,1.91-6.31,2.52-4.83,2.9-9.99,2.69-15.28-.08-1.96-1.28-3.2-2.83-4.13-9.86-5.93-20.34-10.41-31.46-13.37-1.89-.5-3.98-.72-5.76-.06-4.7,1.75-9.51,3.32-13.75,6.13-4.42.92-8.41,2.92-12.32,5.07-3.74,2.05-7.48,4.11-11.2,6.2-1.81,1.02-3.1,1.47-3.41-1.45-.2-1.85-1.29-3.47-3.42-3.88-5.84-1.14-16.53,4.18-19.14,9.55-.33.68-.41,1.48-.61,2.22-1.73,1.18-3.45,2.35-5.18,3.53-1.69-.77-3.19-.13-4.64.66-2.72,1.48-4.93,3.63-7.27,5.63-1.3,1.11-1.83,2.41-1.52,4.07-3.28,3.62-7.28,5.99-11.99,7.34-2.64.76-5.1,2.01-5.87,5.08-.61,2.41.33,4.26,2.7,4.99,2.22.69,4.48,1.26,6.72,1.88,1.9.52,3.23,1.7,3.01,3.72-.23,2.09-1.78,3.12-3.83,3.35-3.82.42-7.56-.29-11.31-.8-10.96-1.48-21.94-2.92-33.03-2.7-9.14.18-18.23-1.18-27.38-.61-.64-1.02-1.67-1.18-2.74-1.29-5.86-.6-11.47.1-16.66,3.11-2.88-.36-5.67.57-8.53.6-.81-.68-1.77-.71-2.74-.6-4.21.48-8.43.9-12.62,1.48-3.53.49-6.84.29-10.08-1.48-2.67-1.45-5.24-3.35-8.53-3.27-7.21-7.19-14.44-14.37-21.64-21.58-.95-.96-1.81-2.02-2.68-3.06-2.87-3.44-9.38-3.28-12.01.36-1.44,1.99-2.29,4.25-2.83,6.64-1.16,5.14-3.02,10.02-5.72,14.55-.58.98-.99,2.14-2.16,2.65-3.68-5.42-9.11-7.35-15.33-8.14-6-.77-11.98-.71-17.97-.46-8.81.37-17.26,2.08-24.49,7.6.05-6.02,2.39-11.5,4.05-17.14.52-1.76,1.14-3.49,1.57-5.27.94-3.85-.49-5.79-4.49-6.23-2.51-.28-4.76.38-6.9,1.72-7.87,4.96-13.73,11.88-19.06,19.34-1.28-.21-2.58-.23-3.57.71-4.9,4.67-10.92,5.89-17.4,5.73-2.08-.84-4.31-.59-6.47-.92-4.32-3.23-8.98-2.62-13.71-1.18-8.37-.66-16.61.58-24.86,1.63-1.44.18-2.89.23-4.33.35-1.68.14-3.19.27-3.5-2.13-.09-.73-1.26-1.39-2.03-1.95-11.75-8.64-25.01-14.34-38.44-19.69-5.24-2.08-5.36-2.29-4.05-7.67.98-4.04,1.92-8.1,2.87-12.15,3.96-3.37,4.47-8.16,5.33-12.83,1.81-9.74.23-19.3-1.39-28.86-.85-5.04-1.56-10.12-3.71-14.86-1.13-2.49-2.15-5.17-4.1-6.99-6.13-5.75-5.62-12.92-5.16-20.3,1.08-17.19,6.09-33.46,11.13-49.75.46-1.5,2.23-3.61-.4-4.81-2.64-1.2-3.62,1.12-4.61,2.81-5.58,9.56-9.18,19.87-11.61,30.64-1.56,6.92-2.6,13.89-2.92,20.97-.04.79.03,1.65-.84,2-.97.39-1.89.17-2.66-.6-2.59-2.58-3.84-5.76-4.28-9.33-.88-7.18-1.2-14.52,1.02-21.35,2.08-6.37,4.39-12.8,8.03-18.6,2.72-4.34,2.51-4.68-1.87-7.03-2.45-1.32-5.41-2.33-5.41-5.8,0-3.74,2.7-5.57,5.64-7.11,5.02-2.62,10.41-4.24,15.83-5.66,4.35-1.13,7.38-3.51,9.43-7.51,3.91-7.66,9.22-14.37,14.72-20.92.72-.86,1.47-2.2,2.82-1.31,1.62,1.07.24,2.25-.28,3.26-2.23,4.31-4.57,8.57-6.79,12.89-.63,1.22-1.93,2.83-.3,3.88,1.88,1.2,2.71-.87,3.49-2.06,8.65-13.21,18.42-25.6,29.44-36.83,14.09-14.34,28.6-28.3,45.35-39.64,3.37-2.28,6.88-4.37,10.26-6.65,2.04-1.37,3.47-.88,4.44,1.19.49,1.04.64,2.24,1.1,3.29.73,1.65-.03,2.21-1.51,2.62-5.44,1.53-9.53,5.17-13.36,9.04-2.71,2.73-1.47,7.13,2.46,9.12,1.61.82,3.46,1.18,5.22,1.71,8.04,2.43,16.37,3.98,23.94,7.87,3.58,2.68,7.36,4.96,11.7,6.2-.18,1.6,1,2.45,1.92,3.41,5.3,5.58,11.33,10.36,17.11,15.41.76.66,1.62,1.09,2.6,1.21,9.89,1.2,19.45.52,27.84-5.59,3.8-2.77,6.61-6.28,6.82-11.28.53-.8.9-1.81,1.62-2.38,5.35-4.19,9.93-9.12,14.6-14.04,9.95-10.46,19.82-21.08,31.17-30.1,2.93-2.33,5.04-5.73,8.84-6.94,1.98,1.48,4.09,1.87,6.19.38,7.2-5.1,15.07-5.39,23.37-3.68,14.74,3.04,28.67,7.95,41.47,16.11,10.13,6.46,21.42,11.07,30.86,18.65,12.11,9.73,25.11,18.4,35.97,29.62,10.7,11.07,19.1,24,28.64,36.02.42.52.83,1.14.97,1.78,1.36,6.36,6.25,7.78,11.7,8.53,7.58,1.03,14.93,3.21,22.44,4.66,1.34.26,2.54.81,2.91,2.1.39,1.36-.91,1.96-1.8,2.69-2.33,1.91-4.73,3.74-6.93,5.8-3.66,3.43-3.47,4.99.28,8.21,5.53,4.74,11.05,9.51,16.4,14.45,4.24,3.92,3.77,7.34-.99,10.68-1.92,1.35-3.63,1.25-4.63-.77-2.78-5.58-8.24-7.72-13.1-10.66-.7-.42-1.47-.73-2.17-.23-.78.55-.39,1.44-.25,2.17.33,1.77,1.4,3.17,2.42,4.59,7.91,11.04,14.8,22.68,17.53,36.12,2.95,14.51,6.43,29.03,5.02,44.06-.13,1.43.06,2.55,1.8,2.66,10.41.65,19.43,5.65,28.91,9.23,8.02,3.03,14.51,8.1,19.85,14.76,2.37,2.96,2.83,6.12,1.18,9.49-3.7,7.55-8.75,14.2-13.98,20.72-.16.2-.52.23-.78.34ZM194.39,302.72c-4.52-.02-8.42,2.06-12.46,3.68-7.93-.06-13.38,4.05-17.15,10.59-2.26,3.92-.45,7.38,3.99,8.59,2.05.56,4.13,1.15,6.03,2.06,9.95,4.76,20.2,8.86,29.83,14.31,9.14,5.17,18.53,10.04,26.14,17.34,15.05,14.45,28.75,30.02,37.71,49.19.51,1.1.98,2.61,2.65,2.11,1.73-.52,1.55-2.07,1.32-3.42-1.13-6.59-1.98-13.24-4.09-19.64-.91-2.75-1.07-5.65.29-8.24,4.07-7.75,3.33-15.75,1.64-23.87-.29-1.4-.99-2.02-2.33-2.1.09-1.67-.27-3.25-.81-4.82-1.99-5.77-4.59-11.28-7.75-16.49-2.13-3.52-3.92-7.34-7.2-10.07-.14-.95-.19-1.92-.45-2.84-1.69-6.14-5.55-10.71-10.37-14.69-13.75-11.36-33.4-12.12-46.98-1.71ZM414.03,299.76c-1.79-.19-3.37.4-4.99,1.14-3.02,1.39-5.45,3.62-8.22,5.36-2.91-.44-5.34.55-7.47,2.46-8.69,7.82-15.85,16.81-20.77,27.46-4.04,8.74-4.83,17.63-1.01,26.74,1.35,3.21,3.41,5.01,6.97,5.15,2.8.11,3.34.94,2.05,3.49-5.39,10.74-7.92,22.2-8.77,34.09-.08,1.16-.71,2.7,1.04,3.21,1.51.43,2.29-.67,2.97-1.8,1.69-2.77,2.61-5.83,3.47-8.92,3.25-11.6,8.22-21.82,18.26-29.57,12.36-9.55,24.66-18.8,39.97-23.13,9.52-2.69,18.9-5.93,28.92-6.24,5.38-.17,10.54-1.34,15.64-3.06,3.57-1.21,7.36-1.7,11.16-1.93,5.6-.34,10.21-3.95,11.89-9.27.48-1.53.57-3.08-.37-4.49-3.21-4.83-7.21-8.39-13.45-8.33-.37-1.05-1.38-1.29-2.22-1.73-2.49-1.29-5.06-2.43-7.48-3.83-9.48-5.48-19.91-7.45-30.61-8.49-1.29-1.75-3.11-2.61-5.17-2.94-6.56-1.06-13.17-.66-19.75-.27-3.29.2-6.48,1.06-9.53,2.4-1.18.52-2.33,1.03-2.55,2.51ZM388.58,462.77c.31,3.32,2.02,6.19,3.02,9.28-1.61.89-1.49,1.99-.52,3.34,2.04,2.86,4.16,5.62,7.04,7.7,2.66,1.92,4.64,4.34,5.8,7.47,1.78,4.81,2.94,5.47,8.04,4.49,5.71-1.09,11.42-2.21,17.08-3.53,17-3.95,34.14-4.91,51.47-2.8,7.15.87,14.34.91,21.53.68,1.34-.04,2.92-.03,3.38-1.65.39-1.39-.66-2.34-1.64-3.18-1.55-1.33-3.54-1.53-5.41-1.96-2.13-.5-1.82-1.21-.49-2.34,1.7-1.45,3.38-2.93,5.01-4.46,10.64-9.97,16.71-22.72,21.83-36.05,2.86-7.44,4.52-15.09,3.74-23.07-.75-7.62-1.72-15.23-2.75-22.82-1.22-9-3.55-17.67-8.22-25.58-1.07-1.81-2.49-2.89-4.59-3.14-14.03-1.71-28.02-1.99-42.03.5-28.95,5.15-53.03,18.53-71.21,41.92-11.32,14.56-16.66,30.92-14.48,49.44.28,2.35,1,4.57,3.39,5.74ZM263.16,454.61c0-2.24.13-4.48-.04-6.7-.18-2.31-.56-4.62-1-6.9-4.54-23.26-15.99-42.22-35.21-56.26-3.76-2.74-7.72-5.23-11.71-7.63-14.99-9.05-30.72-11.1-47.38-5.04-3.83,1.39-5.86,3.85-6.6,7.71-1.06,5.52-2.09,11.04-3.44,16.51-3.77,15.24-1.51,30.56.28,45.77,1.08,9.2,6.2,17.07,10.13,25.3,2.27,4.77,5.66,8.28,10.23,10.79,2.3,1.26,4.53,2.62,6.8,3.93,3.03,1.76,3.08,2.19.42,4.5-.75.65-1.64,1.24-1.09,2.39.49,1.03,1.51,1.23,2.5,1.02,1.79-.39,3.58-.84,5.32-1.42,13.13-4.36,26.53-5.3,40.19-3.36,5.65.8,11.37,1.14,16.84,2.98,1.15.39,2.41.15,3.15-.92.59-.85,1.16-1.85.15-2.89-.9-.92-.14-1.56.47-2.19,7.46-7.69,10.67-16.94,9.99-27.57Z"/>
          <path class="cls-4" d="M439.46,699.03c-.44-3.61,1.31-6.81,1.93-10.22.33-1.81.78-3.59,1.19-5.38,1.77-.04,2.86-1.02,3.56-2.55,1.08-2.38,2.17-4.75,3.22-7.14.46-1.06.74-1.79,2.27-1.04,3.34,1.65,4.56,1.24,6.72-1.94,4.37-6.4,7.43-13.4,9.03-20.97.55-2.62,1.61-3.5,4.26-3.44,3.58.08,7.18-.26,10.76-.53,2.53-.19,4.64-1.38,6.24-3.34,1.98-2.42,3.46-5.16,4.7-8.01.81-1.87.28-3.6-.72-5.25-1.34-2.21-.61-3.23,1.82-3.87,5.26-1.38,10.59-1.14,15.92-1.08,3.84.04,7.53-.64,11.13-1.83,4.76-1.57,6.52-4.04,6.6-9.06.02-.97,0-1.94,0-2.92,0-4.23.09-4.26,4.26-3.03,13.67,4.04,25.46,11.28,35.79,21.03,6.94,6.55,13.43,13.5,19.12,21.18,1.58,2.13,3.41,3.89,5.76,5.24,3.81,2.19,6.95,5.3,10.19,8.23,2.7,2.43,2.84,5.19.32,7.94-1.69,1.84-1.51,3.25-.23,5.11,1.84,2.66,3.91,5.07,6.42,7.12,1.05.86,2.1,1.74,3.05,2.71,3.37,3.44,3.16,7.75-.57,10.83-1.71,1.42-3.27,2.91-2.95,5.34,1.26,9.71-1.75,18.58-5.15,27.42-11.3,29.33-31.3,50.46-59.6,63.99-10.27,4.91-20.73,9.16-31.87,11.59-5.52,1.2-9.23,4.68-11.94,9.45-3.58,6.31-7.83,12.13-13.85,16.31-7.55,5.24-15.69,9.23-24.91,10.65-7.62,1.17-15.76-2.7-19.43-9.42-3.35-6.15-5.46-12.62-4.81-19.76.07-.82.46-1.89-.44-2.41-1.02-.59-1.81.31-2.58.86-7,4.99-8.61,9.98-5.89,18.17.31.92.61,1.84.92,2.76.91,2.77.43,3.24-2.48,2.8-2.49-.37-5.01-.68-7.52-.77-13.03-.45-23.8-13.96-21.53-26.84,1.49-8.42,3.89-16.39,9.45-23.12.97-1.17,2-2.61.67-4.18-1.39-1.64-2.83-.53-4.18.17-5.62,2.92-8.55,8.29-11.94,13.23-.43.63-.66,1.4-1.05,2.07-.97,1.68-1.94,1.56-3.07.06-1.72-2.27-2.36-4.89-2.61-7.62-.73-8.02-.49-15.87,4.39-22.85,3.82-5.46,8.91-9.12,15.28-10.92,3.72-1.05,5.89-3.6,7.39-6.89,5.4-11.8,13.02-22.02,22.04-31.27,9.76-10.01,21.12-17.64,33.92-23.19,1.33-.58,2.68-1.13,4-1.73,4.75-2.17,5.61-4.12,3.66-8.92-2.89-7.11-2.75-14.39-1.45-21.75.22-1.27.76-2.64-.55-3.45-1.37-.85-2.35.42-3.28,1.19-5.19,4.37-7.33,13.04-5.01,20.06,1.54,4.66,1.46,4.96-2.87,7.23-7.49,3.92-14.8,8.14-21.68,13.07-.53.38-1.2.58-1.81.86Z"/>
          <path class="cls-4" d="M123.28,534.83c4.56,3.72,8.2,7.7,9.42,13.29,1.46,6.66-.12,12.87-3.14,18.78-1.08,2.1-3.24,3.06-5.39,2.86-4.5-.41-9.13-.32-13.31-2.55-1.41-.75-2.98-1.35-4.15.34-1.07,1.54-.39,3,.67,4.23,1.14,1.32,2.34,2.61,3.65,3.76,2.2,1.94,2.63,4.05,1.36,6.72-1.29,2.7-2.35,5.52-3.41,8.32-.51,1.35-1.03,2.87.37,4.01,1.34,1.09,2.6.07,3.78-.48,3.48-1.63,5.34-4.75,5.79-8.25.73-5.74,3.71-8.35,9.29-9.3,7.99-1.37,11.31-7.43,13.09-14.62.28-1.12.39-2.29.68-3.41.36-1.38,1.05-2.48,2.67-2.69,5.84-.77,8.74-4.91,11.05-9.7.67-1.39,1.32-2.8,1.88-4.25.37-.96.74-1.83,1.94-1.84,1.36-.01,2.13.84,2.62,1.96,2.41,5.57.35,16.01-4.23,20.12-5.53,4.97-10.44,10.79-17.64,13.64-1.3.51-2.06,1.62-.58,2.59,5.74,3.76,6.79,9.79,8.05,15.8,2.08,9.9,1.26,19.64-1.37,29.32-1.21,4.45-1.22,9.23-3.74,13.32-.36.58-.34,1.42.36,1.82.8.46,1.7.41,2.45-.22,1.42-1.19,2.7-2.51,3.73-4.07,5.34-8.15,7.75-17.23,8.47-26.84.31-4.16-.21-8.35.5-12.51.28-1.63.96-3,2.16-4.01,4.98-4.19,9.7-8.68,15.12-12.33,1.97-1.33,3.93-1.73,5.89-.2,5.56,4.32,11.76,7.48,18.19,10.25.24.1.4.36.87.79-2.99,1.52-5.81,2.94-8.62,4.38-4.09,2.09-7.88,4.52-10.74,8.28-2.08,2.74-2.25,5.36-.58,8.33,3.51,6.22,2.91,10.99-1.75,16.43-14.16,16.56-26.95,34.14-39.13,52.18-4.48,6.64-7.27,14.08-9.86,21.61-.79,2.28-1.73,4.52-2.74,6.71-2.93,6.33-8.2,9.38-14.88,10.13-10.95,1.23-21.94.62-32.91.5-4.62-.05-7.46-1.23-7.84-6.26-.11-1.4-1.05-1.65-2.19-1.85-3.14-.54-6.28-1.1-9.41-1.72-2.71-.53-4.43-2.02-4.16-5,.21-2.38-1.04-4.04-2.38-5.73-6.2-7.85-12.69-15.47-18.01-23.98-6.38-10.2-9.9-21.28-11.22-33.25-1.13-10.26-2-20.48-1.04-30.78.83-8.89,2.71-17.55,5.73-25.98,4.69-13.1,8.41-26.56,14.65-39.1,6.04-12.15,13.46-23.15,24.76-31.1,4.97-3.5,10.6-5.62,16.13-7.94,1.45-.61,2.99-.64,3.41,1.4.49,2.4,1.81,2.14,3.38,1.16,3.96-2.46,7.8-5.09,11.49-7.94,9.38-7.23,19.96-9.85,31.72-8.45,5.43.64,10.79,1.36,15.71,3.78,7.13,3.5,13.45,7.98,15.55,16.25,1.35,5.33-.36,9.97-4.29,13.74-1.65,1.58-3.25,1.37-4.08-.86-3.05-8.14-10.18-10.63-17.54-12.83-.63-.19-1.35-.11-2.03-.09-1.28.04-2.39.56-2.5,1.92-.1,1.28,1.2,1.46,2.07,1.6,9.03,1.43,15.36,14.84,13.05,22.42-1.05,3.44-3.02,5.62-6.13,6.24-3.54.7-5.3-1.24-6.88-4.01-3.24-5.68-7.81-7.32-13.82-4.88ZM91.87,609.21c3.31-.48,5.75-2.19,8.04-4.17,1.05-.91,1.88-2.02,1.92-3.46.03-1.05-.29-2.11-1.68-1.58-3.79,1.46-7.6,2.89-11.28,4.6-1.86.86-1.72,2.91.12,3.81.93.45,2.03.58,2.9.81Z"/>
          <path class="cls-2" d="M565.76,41.65c-.5,5.9-1.3,11.8-1.44,17.71-.57,24.19,5.2,46.87,16.58,68.2,3.31,6.2,6.96,12.12,11.75,17.27,6.75,7.27,12.31,15.55,19.53,22.41,15.86,15.06,33.28,27.87,53.02,37.47,10.31,5.01,19.59,11.49,26.46,20.91,5.5,7.55,7.98,16.14,9.16,25.36,5.13,40.05-23.6,78.09-50.69,93.45-6,3.4-11.82,7.06-17.5,10.96-2.88,1.98-5.93,3.71-9.15,5.06-1.31.55-2.87,2.24-4.17.62-1.53-1.91-3.22-4.14-1.99-6.86.87-1.93,2.09-3.7,3.22-5.5,1.68-2.68,2.22-5.53,1.47-8.62-2.02-8.35-5.53-15.65-13.27-20.32-3.32-2-3.26-2.85-.73-5.89,5.57-6.69,4.64-14.17-2.4-19.41-6.24-4.64-13.54-6.49-20.95-8.08-2.74-.59-5.54-1.01-8.21-1.82-3.18-.97-5.56-3.05-6.95-6.18-.94-2.13-.6-3.37,1.98-3.39,9.41-.1,17.04-4.45,24.25-9.99,5.92-4.55,8.28-10.61,8.87-17.83.88-10.77-2.65-19.72-9.9-27.57-4.14-4.48-7.65-9.48-12.58-13.28-3.38-2.61-4.99-6.87-7.53-10.3-6.36-8.58-13.71-16.41-19.53-25.39-8.09-12.46-15.15-25.44-18.95-39.93-2.05-7.8-1.86-15.79-1.4-23.75.39-6.79.92-13.57,1.57-20.33,1.75-18.19,9.05-33.9,21.48-47.23,1.59-1.7,3.52-2.85,5.97-1.81,1.76.75,2.17,2.34,2.04,4.07Z"/>
          <path class="cls-7" d="M395.69,191.2c-3.8,1.22-5.91,4.62-8.84,6.94-11.35,9.02-21.21,19.63-31.17,30.1-4.68,4.91-9.25,9.85-14.6,14.04-.72.56-1.09,1.57-1.62,2.38-1.17-.71-2.23-.15-3.31.29-4.02,1.64-8.04,3.33-12.08,4.91-9.32,3.64-18.21,2.83-26.51-2.84-4.38-2.99-8.96-5.32-14.39-5.51-4.34-1.24-8.12-3.52-11.7-6.2.13-1.69-1-2.65-2.1-3.62-3.01-2.64-6.68-3.83-10.46-4.82-1.59-.41-3.18-.85-4.72-1.41-2.69-.99-3.5-3.11-3.37-5.8.13-2.68,1.73-3.84,4.11-4.55,3.16-.94,6.12-.05,9.16.51,1.22.22,2.45,1.46,3.76.02,1.23-1.36.22-2.64-.11-3.82-3.41-11.94-7.99-23.46-12.6-34.98-3.28-8.19-6.11-16.54-8.84-24.92-1-3.08-.93-6.31-1.45-9.45-.22-1.31.72-1.89,1.94-2.02,2.46-.26,4.9-.15,7.09,1.06,10.43,5.79,21.19,11.08,28.97,20.63,3.5,4.3,6.9,8.66,10.09,13.18.45.63.9,1.26,1.39,1.86.7.87,1.53,1.59,2.74,1.1,1.26-.52,1.65-1.65,1.49-2.87-.41-3.17-.79-6.39-2.14-9.31-2.55-5.5-2.38-11.04-.81-16.72,3.18-11.55,9.37-21.39,16.72-30.69,10.31-13.05,22.56-23.48,38.11-29.76.36-.15.72-.29,1.08-.43.98-.4,2.2-1.13,2.96-.25.67.78-.39,1.76-.84,2.57-6.47,11.79-4.94,23.82-1.58,36.12,2.97,10.86,9.1,19.6,16.6,27.63.88.94,1.78,1.77,3.2,1.79,1.23.02,2.33-.19,3.07-1.27.7-1.03-.04-1.87-.49-2.68-2.37-4.31-3.89-8.68-1.58-13.55,2.26-4.75,4.13-5.18,8.07-1.81,2.33,1.99,4.11,4.37,5.29,7.21,2.58,6.17,5.18,12.33,7.79,18.49.95,2.24,2.06,4.37,3.46,6.38,3.87,5.58,3.81,11.47-.22,17.02-1.14,1.57-2.03,3.07-1.55,5.07Z"/>
          <path class="cls-2" d="M113.05,327.23c-1.26-1.99-3.14-2.91-4.66-4.25-16.77-14.85-29.99-32.13-36.73-53.84-2.84-9.15-3.22-18.21.57-27.24.97-2.3,1.64-4.75,2.21-7.19,2.54-10.77,8.69-19.15,17.8-24.97,17.89-11.44,32.34-26.69,46.96-41.71,15.44-15.87,26.07-34.83,33.16-55.74,3.2-9.43,3.25-19.21,2.41-29.08-.83-9.76-1.58-19.52-3.75-29.1-.53-2.34-1.36-4.63-2.27-6.86-.86-2.1-.06-2.54,1.87-2.54,2.1,0,3.39,1.22,4.65,2.6,5.97,6.52,10.05,14.22,13.86,22.09,6.77,13.99,10.63,28.68,11.17,44.25.23,6.41,1.04,12.79,1.37,19.19.3,5.74-.78,11.42-1.15,17.13-1.38,20.94-12.21,36.6-27.57,49.78-5.24,4.5-10.32,9.17-14.74,14.51-6.55,7.93-10.56,16.92-11.4,27.22-.49,5.99,1.07,11.07,6.33,14.71,3.49,2.42,3.32,2.56.83,6.06-4.06,5.69-8.28,11.29-12.03,17.19-3.45,5.43-8.06,9.02-14.05,11.16-5.73,2.04-10.92,4.99-15.01,9.67-5.2,5.97-5.14,9.33.47,15.02q3.89,3.95,1.18,9.02c-.46.85-.89,1.72-1.51,2.91Z"/>
          <path class="cls-4" d="M533.45,562.88c3.35.21,6.19,2.51,9.63,2.38.42.39.77.95,1.26,1.16,5.62,2.34,11.03,5.18,17,6.65,2.13.52,4.24.42,6.37.4,1.74-.02,2.73.6,2.99,2.4.29,2.01.85,3.98,1.08,6,.43,3.77-.43,5.02-4.07,6.27-1.74.59-3.57.95-5.23,1.7-2.41,1.08-2.56,2.78-.41,4.33,5.08,3.68,5.37,9.12,5.38,14.61,0,2.46-1.72,3.33-3.8,2.46-7.14-3-14.22-6.15-21.28-9.32-1.64-.74-1.7-1.79-.32-3.12,5.29-5.08,3.98-11.06-2.99-13.74-3.6-1.39-7.04-3.21-10.85-4.09-1.12-.26-2.53-.88-1.28-2.38,3.81-4.57,5.05-10.17,6.52-15.69Z"/>
          <path class="cls-4" d="M139.43,410.64c-1.53-.99-3.01-2.09-4.6-2.96-3.16-1.73-5.33-1.39-7.81,1.23-2.85,3.02-6.18,5.26-10.09,6.64-3.61-4.75-3.12-7.14,1.94-10.23,4.79-2.92,10.25-3.08,15.54-3.97,1.2-.2,2.09.47,2.66,1.42,1.46,2.41,2.71,4.91,2.35,7.88Z"/>
          <path class="cls-3" d="M322.8,555.81c-6.78.19-13.68-.44-20.28,1.39-4.91,1.36-9.65,3.38-14.35,5.37-2.71,1.15-4.77,3.31-6.52,5.69-.87,1.19-1.84,2.25-3.12,3.02-3.86,2.31-7.78,1.18-9.19-3.06-2.07-6.22-6.31-10.32-11.9-13.29-4.45-2.36-8.95-4.61-13.39-7-3.57-1.92-6.54-4.49-8.35-8.24-1.04-2.16-1.61-4.26.59-6.02,2.15-1.71,4.51-1.8,6.71-.16,5.51,4.14,11.31,7.99,16.34,12.65,7.17,6.65,15.56,8,24.77,7.71,9.07-.28,17.85-2.36,26.7-3.94,10.27-1.83,20.49-1.59,30.71-.06,8.54,1.28,17.07,3.05,25.73,1.96,17.57-2.22,33.97-7.08,45.85-21.54,2.67-3.25,5.14-3.73,7.79-1.89,3.39,2.36,3.77,5.75.84,8.95-4.86,5.32-10.75,9.23-17.31,12.09-3.46,1.51-7.03,2.79-10.62,3.94-3.82,1.22-6.37,3.45-7.38,7.45-.67,2.64-1.79,5.14-3.65,7.21-2.52,2.82-5.15,3.09-8.26.98-1.56-1.06-2.72-2.49-3.77-4.01-2.41-3.49-5.72-5.21-9.92-4.93-4.49.31-8.53-1.61-12.79-2.4-8.35-1.55-16.76-2.02-25.23-1.88ZM276.89,560.65c-4.12,0-4.36.13-4.41,2.29-.05,2.51,1.89,4.7,4.11,4.66,2.08-.04,4.35-2.58,4.25-5.09-.13-3.2-2.77-1.26-3.96-1.85ZM377.83,557.78c-2.4-.29-4.15.38-4.17,3.09-.02,2.45,1.82,4.49,3.74,4.37,1.83-.11,3.6-2.56,3.59-4.99,0-2.18-1.15-2.93-3.16-2.48Z"/>
          <path class="cls-3" d="M261.43,698.24c.12-6.31.77-12.58,2.14-18.74.49-2.2-.16-2.97-2.21-3.39-4.11-.85-8.03-2.23-11.17-5.2-1.82-1.72-3.37-3.53-2.31-6.36.55-1.49-.48-1.91-1.68-1.97-2.92-.14-5.82.04-8.7.52-3.59.59-7.12.58-10.6-.75-2.04-.78-4.29-1.26-3.92-4.15.21-1.62,3.52-3.26,5.79-2.86,5.38.95,10.61.18,15.82-1.17,7.42-1.93,14.15-5.67,21.33-8.23,1.82-.65,3.64-1.4,4.86.73,1.29,2.25.08,3.86-1.77,5.16-2.07,1.45-4.16,2.87-6.18,4.37-3.26,2.41-4.32,4.78-3.37,7.32.99,2.64,3.61,4.23,7.42,3.86,5.48-.52,10.96-1.21,16.13-3.31.98-.4,2-.72,3.04-.95,1.13-.24,2.16.09,2.77,1.13.66,1.13.48,2.24-.45,3.19-1.7,1.75-3.44,3.4-5.86,4.18-5.44,1.75-8.72,5.56-10.23,11-2.18,7.83-3.69,15.7-1.5,23.81,1.1,4.07,2.67,4.83,6.58,3.22,3.35-1.38,5.71-3.97,8.04-6.57,4.84-5.43,10.62-9.26,17.78-10.91,5.31-1.22,9.86,2.63,9.12,7.76-.29,2.01-1.11,3.37-3.48,2.59-4.73-1.56-8.49.24-11.95,3.31-4.21,3.74-8.43,7.48-12.76,11.08-9.19,7.62-15.88,2.83-20.22-5.09-2.29-4.18-2.52-8.89-2.44-13.58Z"/>
          <path class="cls-3" d="M448.77,588.79c1.83-.52,2.82-1.77,3.95-2.73,4.91-4.18,10.38-6.72,17.02-6.17,2.83.23,5.58-.44,8.33-1.06,1.02-.23,2.24-.57,2.7.86.41,1.27-.75,1.6-1.52,2.13-3.94,2.75-8.53,4.15-12.84,6.14-4.61,2.13-8.95,4.64-12.9,7.84-2.35,1.9-4.85,3.56-7.58,4.87-2.58,1.24-4.31,3.24-5.3,5.92-.37,1-.18,2.56-1.83,2.54-1.64-.02-3.02-.77-3.89-2.2-.97-1.58-.92-3.35-.55-5.09.3-1.42.61-2.86,1.14-4.2.7-1.76.42-3.29-.88-4.54-1.32-1.27-3.15-1.45-4.65-.75-12.79,5.92-22.56,14.68-26.44,28.8-.3,1.1-.25,2.31-.24,3.47,0,1.4.07,2.81-1.53,3.43-1.68.66-3.33.92-4.93-.38-2.64-2.13-3.31-4.24-2.1-7.4.66-1.71,1.48-3.36,2.13-5.08,1.04-2.75.43-3.68-2.48-3.34-5.1.6-10.17,1.55-15.28,2.13-7.65.86-15.32.8-22.97-.14-1.65-.2-3.26-.71-3.42-2.55-.17-1.92,1.49-2.38,3.02-2.95,4.97-1.85,10.16-2.48,15.38-2.73,11.99-.57,23.6-2.84,34.8-7.18,3.8-1.47,6.67-4.21,9.74-6.76,7.46-6.21,15.66-10.78,25.84-10.02,1.43.11,2.83.57,4.23.94,3.16.83,3.26,3.37,3.05,6.19Z"/>
          <path class="cls-3" d="M283.3,497.66c7.23-5.53,15.68-7.23,24.49-7.6,5.99-.25,11.97-.31,17.97.46,6.22.8,11.65,2.72,15.33,8.14-.04,1.36,0,2.73-.14,4.07-.46,4.31-2.54,6.66-6.74,7.65-1.98.46-4,.75-5.97,1.24-3.3.83-5.96,2.62-7.99,5.42-4.77,6.57-12.42,7.59-19.02,2.61-2.43-1.83-4.24-4.25-6.21-6.52-1.79-2.05-3.94-3.37-6.66-3.79-6.14-.95-8.2-4.72-5.69-10.37.2-.44.41-.87.62-1.31Z"/>
          <path class="cls-3" d="M549.62,464.39c.2-.74.28-1.54.61-2.22,2.61-5.38,13.3-10.69,19.14-9.55,2.13.41,3.22,2.03,3.42,3.88.31,2.92,1.6,2.47,3.41,1.45,3.72-2.09,7.46-4.15,11.2-6.2,3.92-2.15,7.9-4.15,12.32-5.07.67.27,1.68-.28,2.01.73.25.78-.46,1.22-.92,1.67-6.93,6.68-14.6,12.42-22.93,17.2-4.42,2.54-7.46,1.32-9.45-3.78-1.21-3.11-2.76-3.13-5.31-2.06-3.12,1.31-6.15,2.78-9.16,4.32-1.41.72-3.06,1.62-4.34-.36Z"/>
          <path class="cls-3" d="M310.27,615.19c-9.25.46-18.61-1.04-27.91-3.14-2.39-.54-4.55-1.6-6.63-2.85-1.11-.67-1.71-1.58-1.3-2.91.45-1.49,1.67-1.45,2.85-1.28,13.52,1.89,27.34.97,40.69,4.53,2.36.63,5.03.21,7.54.08,1.85-.09,3.15.53,3.42,2.34.28,1.87-1.38,2.06-2.67,2.4-5.16,1.38-10.44.48-15.99.84Z"/>
          <path class="cls-3" d="M388.14,499.09c3.29-.08,5.86,1.82,8.53,3.27,3.24,1.77,6.55,1.97,10.08,1.48,4.2-.58,8.41-1.01,12.62-1.48.97-.11,1.93-.08,2.74.6-.16,1.99-1.78,2.47-3.24,2.8-4.45,1-8.58,2.94-12.89,4.3-7.49,2.36-14.98-.37-19.25-7.36-1.09-1.78.49-2.58,1.41-3.61Z"/>
          <path class="cls-3" d="M237.51,496.52c6.48.16,12.5-1.06,17.4-5.73.99-.94,2.29-.92,3.57-.71,1.22,1.77.87,3.36-.3,5.06-4.75,6.86-12.68,8.66-19.94,4.51-1.49-.85-1.4-1.87-.73-3.13Z"/>
          <path class="cls-3" d="M430.64,502.36c5.19-3,10.8-3.7,16.66-3.11,1.07.11,2.1.27,2.74,1.29-.12,1.47-1.34,1.79-2.4,2.17-4.36,1.6-8.91,2.39-13.52,2.73-1.96.15-4.04-.13-3.49-3.09Z"/>
          <path class="cls-3" d="M531,478.29c-.31-1.66.23-2.96,1.52-4.07,2.33-2,4.54-4.15,7.27-5.63,1.46-.79,2.96-1.43,4.64-.66.99,1.88.4,3.26-1.3,4.37-2.98,1.93-5.93,3.9-8.89,5.85-1.05.69-2.12.81-3.24.16Z"/>
          <path class="cls-3" d="M217.33,494.41c4.73-1.44,9.38-2.05,13.71,1.18-.27,2.46-1.77,2.95-3.92,2.47-2.84-.63-5.68-1.23-8.52-1.84-.98-.21-1.6-.68-1.27-1.81Z"/>
          <path class="cls-3" d="M388.58,462.77c-2.39-1.17-3.12-3.39-3.39-5.74-2.19-18.53,3.16-34.88,14.48-49.44,18.18-23.39,42.26-36.77,71.21-41.92,14-2.49,27.99-2.2,42.03-.5,2.1.26,3.53,1.33,4.59,3.14,4.67,7.92,7,16.58,8.22,25.58,1.03,7.59,2,15.2,2.75,22.82.78,7.98-.88,15.63-3.74,23.07-5.12,13.33-11.19,26.07-21.83,36.05-1.63,1.53-3.31,3.01-5.01,4.46-1.33,1.14-1.64,1.85.49,2.34,1.86.43,3.86.63,5.41,1.96.98.84,2.03,1.79,1.64,3.18-.46,1.62-2.04,1.61-3.38,1.65-7.19.23-14.39.19-21.53-.68-17.33-2.11-34.47-1.16-51.47,2.8-5.66,1.32-11.37,2.43-17.08,3.53-5.1.98-6.26.32-8.04-4.49-1.16-3.13-3.13-5.55-5.8-7.47-2.88-2.08-5-4.85-7.04-7.7-.97-1.36-1.08-2.45.53-3.34,4.67.67,8.34,3.02,11.86,6.15,7.07,6.28,15.82,5.94,24.51,5.48-.29-.58-.65-.89-1.06-1.12-13.2-7.16-18.3-19.63-21.37-33.23-1.37-6.06-.39-12.4-1.05-18.57-.07-.64.21-1.46-.52-1.83-.91-.45-1.41.33-1.93.87-2.31,2.41-4.11,5.22-5.02,8.39-2.4,8.33-6.97,15.92-8.43,24.57ZM494.27,428.35c0-2.83-.01-5.63-.63-8.41-1.45-6.54-7.45-11.05-13.38-9.76-6.08,1.32-10.01,8.1-8.35,13.62.98,3.26.61,6.7-.43,10.02-.81,2.58-1.66,5.17-2.19,7.82-1.57,7.85-6.48,12.18-14,14.23-9.89,2.7-16.64-.72-20.07-10.42-1.4-3.96-2.27-7.98-2.27-12.21,0-4.96-1.83-6.05-6.38-3.92-1.84.86-3.66,1.82-5.33,2.97-5.59,3.85-8.46,10.94-6.73,17.02,2.33,8.2,5.99,15.77,11.57,22.3,3.98,4.66,8.6,8.6,14.83,9.63,12.54,2.08,23.91-.15,33.13-9.7,2.64-2.73,5.2-5.53,7.33-8.67,7.09-10.46,13.18-21.31,12.92-34.52ZM478.02,480.2c5.88,2.77,9.86-.26,13.92-3.84,9.87-8.7,16.72-19.2,21.86-31.39,4.92-11.68,5.46-23.05,1.97-34.83-2.73-9.22-7.19-17.53-14.67-23.89-1.99-1.69-5.2-1.89-6.7-.45-2.05,1.97-.12,3.57.8,5.09,8.33,13.68,10.67,28.44,6.71,43.8-4.37,16.95-10.69,33.11-23.89,45.51ZM441.55,418.33c1.72.16,3.65-.44,5.48-1.4,6.26-3.28,10.79-8.14,13.39-14.75,1.91-4.87,1.18-8.7-2.29-11.95-3.14-2.94-7.3-3.38-11.87-1.15-6.69,3.27-12.42,7.88-17.83,12.92-1.78,1.66-2.22,3.66-1.41,6.08,1.93,5.78,7.85,10.16,14.52,10.24Z"/>
          <path class="cls-3" d="M263.16,454.61c.68,10.63-2.53,19.88-9.99,27.57-.61.63-1.38,1.27-.47,2.19,1.02,1.04.45,2.04-.15,2.89-.74,1.07-2,1.31-3.15.92-5.47-1.84-11.19-2.18-16.84-2.98-13.66-1.94-27.06-1-40.19,3.36-1.74.58-3.53,1.03-5.32,1.42-.99.22-2.01.02-2.5-1.02-.55-1.15.34-1.74,1.09-2.39,2.66-2.32,2.61-2.74-.42-4.5-2.26-1.32-4.5-2.68-6.8-3.93-4.57-2.51-7.96-6.02-10.23-10.79-3.92-8.23-9.04-16.1-10.13-25.3-1.79-15.21-4.05-30.53-.28-45.77,1.35-5.47,2.38-10.99,3.44-16.51.74-3.86,2.77-6.32,6.6-7.71,16.66-6.06,32.39-4.01,47.38,5.04,3.99,2.41,7.95,4.89,11.71,7.63,19.22,14.04,30.67,33,35.21,56.26.44,2.28.83,4.59,1,6.9.17,2.22.04,4.47.04,6.7ZM165.86,417.11c.11,1.29.18,2.45.31,3.61.84,8,1.95,15.98,2.5,24,.99,14.47,8.17,24.91,20.28,32.26,4.99,3.03,10.43,3.24,16,1.76,2-.53,2.2-1.4.52-2.58-3.13-2.18-5.12-5.28-6.89-8.52-9.74-17.86-12-37.04-9.73-56.94.73-6.38,2.91-12.43,5.62-18.26.68-1.46,1.63-2.96.68-4.67-2.41-4.38-9.91-5.85-13.84-2.77-10.47,8.2-14.4,19.5-15.43,32.1ZM233.91,479.03c.3,0,1.27-.03,2.24,0,8.55.27,19.61-10.19,18.43-19.62-.51-4.04-1.21-8.03-1.81-12.05-.17-1.12.1-2.54-1.47-2.77-1.44-.21-1.56,1.21-2.04,2.09-4.36,7.97-14.23,10.69-21.72,5.88-4.84-3.1-6.71-8.04-8.12-13.31-1.24-4.66-2.01-9.57-5.45-13.32-2.24-2.44-4.39-4.9-5.95-7.86-1.05-2-2.99-2.68-5.15-2.67-2.09,0-3.04,1.52-3.76,3.17-2.85,6.5-3.36,13.27-2.08,20.19,2.03,10.93,6.91,20.5,14.01,28.98,5.78,6.92,12.69,11.68,22.86,11.29ZM226.24,425.34c.29,0,.58.01.87,0,6.84-.33,9.44-4.86,6.14-10.68-3.51-6.19-9.22-10.15-14.62-14.41-1.13-.89-2.32-.75-3.48.1-3.17,2.33-5.93,11.14-4.25,14.58,3.1,6.32,8.38,9.66,15.33,10.41Z"/>
          <path class="cls-7" d="M400.82,306.27c2.77-1.73,5.2-3.97,8.22-5.36,1.62-.75,3.19-1.33,4.99-1.14.7.98,1.53,1.17,2.76.89,4.82-1.12,9.73-1.38,14.67-1.38,5.51,0,11.02-.03,16.52.54,1.39.14,2.81.19,3.05-1.74,10.7,1.03,21.13,3.01,30.61,8.49,2.42,1.4,4.99,2.54,7.48,3.83.84.43,1.85.68,2.22,1.73-1.91,2.49.62,3.67,1.64,5.18,2.76,4.07,2.12,6.73-2.33,8.78-.7.32-1.44.58-2.18.8-8.27,2.43-16.67,4.24-25.17,5.64-11.36,1.87-22.71,3.74-33.59,7.73-9.9,3.63-18.77,9.24-28.05,14.06-3.7,1.92-7.39,3.84-11.29,5.35-6.85,2.65-12.92-4.95-12.06-9.78,1.26-7.12,3.44-13.89,7.22-20.14,4.04-6.68,8.97-12.67,13.83-18.73,1.13-1.4,2.2-2.76,1.47-4.72Z"/>
          <path class="cls-7" d="M252.19,321.95c3.28,2.72,5.06,6.55,7.2,10.07,3.15,5.21,5.75,10.71,7.75,16.49.54,1.57.9,3.15.81,4.82-2.3,1.34-2.36,3.57-2.4,5.85-.06,4.14-.67,8.15-3.42,11.47-3.01,3.64-6.98,3.78-9.87.06-10.89-13.99-25.07-23.9-40.05-32.88-10.41-6.24-21.4-11.35-32.43-16.39-2.14-.98-4.18-2.08-5.22-4.39-1.34-2.97-.75-4.39,2.28-5.66,1.34-.56,2.67-1.17,3.93-1.88,1.19-.68,1.95-1.65,1.16-3.12,4.04-1.63,7.94-3.71,12.46-3.68.63,1.38,1.84,1.24,2.99,1.09,1.43-.19,2.85-.48,4.28-.73,15.71-2.79,29.71.35,41.48,11.71,2.76,2.66,5.56,5.39,9.05,7.18Z"/>
          <path class="cls-3" d="M400.82,306.27c.73,1.95-.34,3.31-1.47,4.72-4.86,6.06-9.79,12.05-13.83,18.73-3.78,6.25-5.96,13.02-7.22,20.14-.86,4.84,5.21,12.43,12.06,9.78,3.9-1.51,7.59-3.43,11.29-5.35,9.28-4.82,18.16-10.43,28.05-14.06,10.89-3.99,22.24-5.86,33.59-7.73,8.5-1.4,16.9-3.21,25.17-5.64.74-.22,1.48-.47,2.18-.8,4.45-2.05,5.08-4.71,2.33-8.78-1.02-1.5-3.55-2.69-1.64-5.18,6.24-.06,10.24,3.5,13.45,8.33.94,1.41.85,2.96.37,4.49-1.68,5.31-6.29,8.92-11.89,9.27-3.8.23-7.58.72-11.16,1.93-5.1,1.73-10.25,2.89-15.64,3.06-10.02.32-19.4,3.55-28.92,6.24-15.32,4.33-27.61,13.58-39.97,23.13-10.03,7.76-15.01,17.97-18.26,29.57-.86,3.09-1.79,6.15-3.47,8.92-.68,1.12-1.46,2.23-2.97,1.8-1.76-.51-1.13-2.05-1.04-3.21.85-11.89,3.38-23.35,8.77-34.09,1.28-2.56.74-3.38-2.05-3.49-3.57-.14-5.63-1.94-6.97-5.15-3.82-9.1-3.02-18,1.01-26.74,4.92-10.65,12.08-19.64,20.77-27.46,2.13-1.91,4.57-2.9,7.47-2.46Z"/>
          <path class="cls-3" d="M181.94,306.4c.79,1.48.03,2.45-1.16,3.12-1.26.72-2.59,1.32-3.93,1.88-3.03,1.27-3.61,2.69-2.28,5.66,1.04,2.3,3.07,3.41,5.22,4.39,11.02,5.04,22.02,10.15,32.43,16.39,14.97,8.97,29.16,18.89,40.05,32.88,2.89,3.72,6.87,3.58,9.87-.06,2.74-3.32,3.36-7.33,3.42-11.47.03-2.28.1-4.51,2.4-5.85,1.34.07,2.04.7,2.33,2.1,1.69,8.12,2.43,16.11-1.64,23.87-1.36,2.59-1.2,5.49-.29,8.24,2.11,6.39,2.96,13.05,4.09,19.64.23,1.35.41,2.91-1.32,3.42-1.67.5-2.14-1-2.65-2.11-8.95-19.17-22.66-34.74-37.71-49.19-7.61-7.31-16.99-12.17-26.14-17.34-9.64-5.45-19.89-9.55-29.83-14.31-1.9-.91-3.98-1.5-6.03-2.06-4.44-1.21-6.25-4.68-3.99-8.59,3.77-6.54,9.22-10.66,17.15-10.59Z"/>
          <path class="cls-3" d="M283.17,241.5c5.43.19,10.01,2.52,14.39,5.51,8.3,5.67,17.2,6.48,26.51,2.84,4.05-1.58,8.06-3.26,12.08-4.91,1.08-.44,2.14-1,3.31-.29-.22,5-3.02,8.51-6.82,11.28-8.4,6.11-17.95,6.79-27.84,5.59-.98-.12-1.85-.54-2.6-1.21-5.78-5.05-11.8-9.83-17.11-15.41-.92-.96-2.1-1.82-1.92-3.41Z"/>
          <path class="cls-3" d="M252.19,321.95c-3.49-1.79-6.29-4.51-9.05-7.18-11.77-11.35-25.76-14.49-41.48-11.71-1.43.25-2.85.55-4.28.73-1.15.15-2.37.29-2.99-1.09,13.58-10.41,33.23-9.65,46.98,1.71,4.82,3.98,8.68,8.55,10.37,14.69.25.92.3,1.89.45,2.84Z"/>
          <path class="cls-3" d="M451.03,298.06c-.24,1.94-1.66,1.88-3.05,1.74-5.49-.56-11-.53-16.52-.54-4.94,0-9.85.26-14.67,1.38-1.23.29-2.06.1-2.76-.89.22-1.48,1.37-1.99,2.55-2.51,3.05-1.33,6.24-2.2,9.53-2.4,6.58-.39,13.18-.79,19.75.27,2.06.33,3.88,1.19,5.17,2.94Z"/>
          <path class="cls-3" d="M91.87,609.21c-.87-.23-1.96-.35-2.9-.81-1.84-.9-1.98-2.95-.12-3.81,3.68-1.7,7.49-3.14,11.28-4.6,1.39-.54,1.71.53,1.68,1.58-.04,1.45-.87,2.56-1.92,3.46-2.29,1.98-4.73,3.69-8.04,4.17Z"/>
          <path class="cls-2" d="M276.89,560.65c1.19.6,3.83-1.34,3.96,1.85.1,2.51-2.17,5.05-4.25,5.09-2.23.05-4.17-2.15-4.11-4.66.05-2.16.29-2.29,4.41-2.29Z"/>
          <path class="cls-2" d="M377.83,557.78c2.01-.45,3.15.3,3.16,2.48,0,2.43-1.76,4.87-3.59,4.99-1.92.12-3.76-1.92-3.74-4.37.02-2.72,1.77-3.39,4.17-3.09Z"/>
          <path class="cls-6" d="M494.27,428.35c.27,13.21-5.83,24.06-12.92,34.52-2.12,3.14-4.69,5.93-7.33,8.67-9.22,9.55-20.59,11.78-33.13,9.7-6.23-1.03-10.85-4.97-14.83-9.63-5.58-6.53-9.24-14.1-11.57-22.3-1.73-6.08,1.14-13.17,6.73-17.02,1.67-1.15,3.49-2.11,5.33-2.97,4.55-2.13,6.37-1.04,6.38,3.92,0,4.23.87,8.25,2.27,12.21,3.43,9.7,10.18,13.12,20.07,10.42,7.52-2.05,12.43-6.38,14-14.23.53-2.65,1.37-5.24,2.19-7.82,1.04-3.32,1.41-6.76.43-10.02-1.66-5.52,2.27-12.3,8.35-13.62,5.93-1.29,11.94,3.21,13.38,9.76.62,2.78.62,5.58.63,8.41Z"/>
          <path class="cls-6" d="M233.91,479.03c-10.17.39-17.08-4.37-22.86-11.29-7.09-8.48-11.98-18.05-14.01-28.98-1.28-6.92-.77-13.69,2.08-20.19.72-1.65,1.66-3.16,3.76-3.17,2.16,0,4.1.67,5.15,2.67,1.56,2.96,3.71,5.42,5.95,7.86,3.43,3.74,4.2,8.66,5.45,13.32,1.41,5.27,3.28,10.21,8.12,13.31,7.49,4.8,17.35,2.09,21.72-5.88.48-.88.6-2.3,2.04-2.09,1.57.23,1.3,1.65,1.47,2.77.6,4.02,1.31,8.01,1.81,12.05,1.18,9.43-9.88,19.88-18.43,19.62-.97-.03-1.94,0-2.24,0Z"/>
        </g>
      </g>
    </g>
  </g>
</svg>