<?xml version="1.0" encoding="UTF-8"?>
<svg id="Layer_1" data-name="Layer 1" xmlns="http://www.w3.org/2000/svg" viewBox="0 0 384.9 566.69">
  <defs>
    <style>
      .cls-1 {
        fill: #503952;
      }

      .cls-2 {
        fill: #9892ad;
      }

      .cls-3 {
        fill: #00773d;
      }

      .cls-4 {
        fill: #ea3e60;
      }

      .cls-5 {
        fill: #f27226;
      }

      .cls-6 {
        fill: #ee3a42;
      }

      .cls-7 {
        fill: #fff;
      }

      .cls-8 {
        fill: #83d2e5;
      }

      .cls-9 {
        fill: #ec4624;
      }

      .cls-10 {
        fill: #f0f2dd;
      }

      .cls-11 {
        fill: #f6b2c3;
      }

      .cls-12 {
        fill: #f37630;
      }

      .cls-13 {
        fill: #f26c21;
      }
    </style>
  </defs>
  <path class="cls-7" d="M379.5,340.71c-6.18,13.27-16.23,22.51-29.88,27.5-.74,3.41-1.46,6.87-2.16,10.25l-1.01,4.83c-1.22,5.94-2.55,10.5-4.31,14.79-.3.73-.57,1.57-.83,2.55l-.42,3.12c-.21,1.7-.44,3.41-.67,5.12-.78,5.59-1.76,12.09-3.77,18.67-.13.86-.25,1.74-.34,2.61-.64,5.8-3.3,10.37-6.09,14.45-2.12,3.14-4.3,6.26-6.04,8.76-4.51,7.12-9.53,13.92-14.4,20.48l-.9,1.22c-1.58,2.12-3.15,4.24-4.7,6.39l-14.48,19.99-.14-.65c-7.68,10.2-16.25,21.39-25.58,31.63-1.48,1.62-3.24,3.51-5.46,5.21-3.47,2.65-7.49,4.04-11.64,4.04-.64,0-1.27-.04-1.91-.1-6.84-.73-12.5-5.14-15.15-11.79-1.73-4.32-3.7-9.45-5.28-14.73-1.75-5.86-3.41-11.8-5.03-17.55l-.73-2.63c-.43.19-.87.37-1.31.54-2.17.81-3.58,2.1-4.88,4.45-4.96,8.94-11.39,17.57-19.66,26.4-1.6,1.7-3.12,3.55-4.73,5.52l-.31.38c-2.22,2.72-4.75,5.8-7.7,8.73l-.5.49c-4.97,4.94-10.1,10.03-16.39,14.24-11.01,7.36-22.3,11.1-33.58,11.1-1.81,0-3.64-.1-5.44-.3-5.67-.6-11.38-2.15-16.97-4.61-11.05-4.82-19.95-11.18-27.22-19.45-4.31-4.9-7.33-10.32-9.7-14.97-4.91-9.6-9.15-18.38-11.41-28.66-1.9-8.66-.63-16.71.49-23.83.76-4.73,3.19-8.16,5.22-10.61,2.31-2.79,5.05-5.83,8.52-8.54-7.88-.91-15.27-4.05-21.98-9.36l-.66-.53c-1.53-1.2-3.24-2.55-4.93-4.11-6.52-1.23-9.16-6.62-10.04-8.42l-.05-.08c-.05-.11-.1-.22-.16-.33-1.56-2.91-2.96-6.05-4.24-9.56-3.04-.46-6.99-2.15-9.8-7.36-3.89-7.24-4.55-14.86-1.88-22.04.25-.68.52-1.36.79-2.03-3.29-2.66-4.58-5.76-5.08-8.01-.8-3.63-.52-9.15,5.34-14.96,1.2-2.6,2.95-4.84,5.2-6.68,2-1.62,3.64-4.1,5.55-6.97l.1-.16c.84-1.25,1.78-2.64,2.87-4.05-4.24-.91-7.59-3.17-10.1-5.13-.28-.21-.45-.33-.56-.41l-.28-.03c-1.06-.11-2.03-.27-2.88-.41l-.51-.08c-.38-.06-.77-.12-1.15-.17-4.39-.54-8.22-2.67-10.78-6.02-2.73-3.55-4.85-7.02-6.48-10.61-1.62-3.54-1.73-7.45-.3-10.81-.06-.24-.24-1.08-.29-1.28l-.09-.41c-1.96-9.24,1.41-18.18,9.23-24.56,1.65-1.35,3.28-2.46,4.84-3.54l.6-.41c.42-.3.86-.6,1.27-.9,1.61-3.4,4.91-7.53,11.72-9.21,2.08-2.69,5.84-5.61,12.37-5.61.45,0,.9,0,1.38.04.33.03.68.04,1.03.04,2.17,0,4.59-.36,7.14-.77.71-2.28,2.03-4.4,3.87-6.19.33-.32.68-.71,1.04-1.09.29-.3.58-.63.9-.96-.66-3.64-.04-6.84,1.94-9.84-3.92-1.32-7.2-3.3-9.9-4.95l-.66-.4c-.36-.21-.71-.42-1.07-.64-8.13-4.79-11.12-12.48-8.32-21.22-2.88-3.48-5.23-7.59-7.18-12.52-3.97-9.95-1.06-19.29,7.59-24.42.04-.05.06-.08.1-.13-.97-4.68-.11-8.97.78-12.64.72-2.96,3.85-12.54,14.42-12.81.04-3.56.12-6.88.24-10.09-1.35-.87-2.55-1.89-3.57-3.05-3.52-3.98-5.07-8.13-4.61-12.36-5.56-7.26-8.96-15.16-11.97-22.64-3.76-9.33-3.25-19.02,1.48-28.02,4.31-8.2,10.86-15.11,20.03-21.1,8.79-5.76,18.1-9.78,27.09-13.68,4.17-1.81,7.1-4.19,8.96-7.28.69-1.14,1.04-2.05,1.11-2.85.11-1.46.28-2.88.43-4.25l.06-.55c.25-2.09.44-3.81.5-5.44-.44-1.81-.84-2.79-1.37-3.35-3.07-3.2-4.37-7.36-3.87-12.37-.43-3.71.63-7.41,3.02-10.45,2.74-3.52,7.11-5.53,11.99-5.53.64,0,1.27.04,1.91.1,2.58.28,5.13,1.13,7.36,2.47,4.3,2.56,9.25,5.68,13.68,10.2,3.54,3.63,6.32,7.62,8.27,11.9,1.01.27,2.03.66,3.02,1.14.57.29,2.08.47,3.52.65l.19.03c.99.12,2.11.27,3.29.46,3.69.66,7.17,1.69,10.59,3.14,9.37-16,23.63-25.66,42.42-28.74,1.54-.26,3.07-.38,4.69-.38,1.17,0,2.4.07,3.65.2,2.49.27,4.83.76,6.98,1.25,5.11,1.17,8.89,4.69,10.09,9.42,1.12,4.34-.15,8.8-3.37,12.18,3.19.78,6.11,2.06,8.57,3.79,1.52,1.07,6.14,4.3,6.25,10.43.06,2.87-.87,5.48-2.74,7.79.24,2.29.36,4.3.4,6.27.03,2.33-.15,4.6-.51,6.76,1.93.76,3.66,1.54,5.27,2.38,9.82,5.16,19.89,11.02,28.8,18.95-.78-1.38-1.55-2.77-2.31-4.14l-.91-1.66c-4.79-8.66-6.18-17.98-6.9-25.95-.86-9.52.56-18.22,4.36-26.6,4-8.9,10.42-14.74,19.05-17.36.55-.17,1.1-.36,1.63-.55l.12-.05c1.72-.6,3.86-1.35,6.39-1.73,1.02-.17,2.06-.25,3.06-.25.65,0,1.29.04,1.91.1,4.36.46,8.12,2.57,10.57,5.91,1.83,2.49,3.75,6.78,2.49,13.05-.31,1.52-.83,3.04-1.61,4.63-2.75,5.69-2.4,11.67,1.13,19.39,4.09,8.94,10.66,16.06,20.08,21.75,1.42.85,2.86,1.7,4.31,2.54l.08.05c1.73,1.02,3.53,2.06,5.34,3.17.36.21.78.45,1.17.7,1.58.95,3.02,1.88,4.4,2.84.06.04.16.1.24.17,2.6,1.78,4.9,3.56,7,5.42,10.75,9.5,15.71,21.74,14.74,36.38l2.96,2.69-.66,2.33c3.85,2.97,7.09,6.3,10.02,9.49,10.42,11.23,8.14,25.7,7.39,30.45-.06.31-.08.6-.12.89l-.05.31c-.19,1.56-.46,3.62-1.19,5.86,3.77,9.71,2.58,19.09.9,27.03-.58,2.73-1.64,6.8-4.23,10.67-1.02,1.55-1.65,3.69-2.03,6.97-.79,6.68-2.11,13.09-3.4,19.3-1.1,5.3-2.23,10.77-2.93,16.14-.73,5.6-1.76,11.08-2.76,16.38l-.04.22c-.49,2.57-.97,5.13-1.41,7.69-.05.23-.07.44-.1.65,3.79,3.9,4.91,5.06,5.26,5.43,2.63,2.2,4.8,4.51,6.9,6.75l1.32,1.4c3.64,3.8,5.9,9.03,6.54,15.12.96,9.3,1.5,23.23-4.82,36.74Z"/>
  <g>
    <g>
      <path class="cls-7" d="M79.94,142.19l-9.64,23s1.19,42.58,1.64,47.93c.45,5.35,29.74,44.84,37.89,46.86,8.16,2.02,75.06,10.88,75.06,10.88l23.49-14.53s30.14-14.69,30.24-15.55,12-25.25,12-25.25l2.89-60.35s-4.58-38.31-7.58-42.67c-3-4.36-19.84-11.64-21.29-11.51-1.46.13-134.05,2.27-135.8,8.29-1.75,6.02-18.53,55.89-18.53,55.89"/>
      <g>
        <path class="cls-8" d="M368.66,331.4c-.51.62-1.08,1.2-1.72,1.71-1.81,1.47-2.85,3.39-4.11,5.31-4.57,6.95-9.96,13.11-19.08,14.02-1.42.14-2.83.44-4.25.66-.9,2.57-1.62,5.23-2.76,7.68-1.44,3.1-1.78,6.32-1.82,9.63.27.47.5.95.69,1.42.49-1.69,1.02-3.35,1.63-4.98,1.95-5.25,4.68-10.04,9.54-13.03,2.05-1.26,4.24-2.24,6.36-3.37,2.56-1.36,4.88-3.1,7-5.08,4.09-3.82,6.96-8.53,8.77-13.65-.09-.1-.18-.21-.25-.34Z"/>
        <path class="cls-8" d="M324.81,427.43c2.4-6.51,3.5-13.23,4.45-20.08.73-5.29,1.35-10.59,2.18-15.86-1.59,4.76-3.04,9.57-4.34,14.42-.69,2.56-2.53,5.17-1.48,7.9.98,2.57.53,4.77-.44,7.06-.91,2.15-1.22,4.4-1.57,6.69-.56,3.73-1.99,7.09-4.21,10.22-4.98,7.04-10.75,13.47-15.61,20.6-2.67,3.91-5.43,7.77-7.77,11.87-.81,1.42-1.33,3.08-1,4.68,7.34-10.13,15.13-19.97,21.59-30.7,3.21-5.35,6.05-10.94,8.21-16.8Z"/>
        <path class="cls-8" d="M351.86,124.04c.26.51.3,1.13,0,1.83.25-.56.41-1.02.52-1.39-.13-.12-.27-.23-.4-.35-.03-.03-.07-.06-.12-.09Z"/>
        <path class="cls-8" d="M291.52,90.72c-.25-.27-.49-.54-.74-.8l.04.05c-1.12-.41-2.18-.86-3.18-1.4,4.18,5.16,7.63,10.6,7.2,15.83.19.17.35.37.48.58.1-.4.21-.79.39-1.15,1.25-2.47,1.16-4.82-.31-7.18-1.25-2-1.82-4.46-3.88-5.93Z"/>
        <path class="cls-8" d="M281.62,77.65l.05.06c-.27-.34-.55-.67-.82-1.01-2.3-4.15-4.91-8.14-6.46-12.67-.1-.15-.2-.3-.29-.44-.02.1-.05.2-.09.31-.59,1.6-.65,3.21-.36,4.78.16.28.31.53.47.73.55.7.61,1.45.39,2.1.44,1.05.99,2.07,1.58,3.04,1.4,2.27,3.54,4.78,5.89,7.45-.49-1.42-.62-2.8-.36-4.34Z"/>
        <path class="cls-8" d="M287.91,44.33c1.68,3.37,3.36,6.74,5.05,10.11.71.47,1.37.99,1.99,1.53-2.65-5.26-4.11-11.14-4.67-17.08-.56-5.93-.2-11.83.07-17.76.02-.35.07-.86.11-1.39-.08,0-.15,0-.23,0,.03.65-.17,1.3-.77,1.97-2.03,2.25-1.96,4.97-1.68,7.65.51,5-.57,9.99.13,14.98Z"/>
        <path class="cls-8" d="M341.58,95.51c-.45,1.77-.12,3.39,1.15,4.82.98,1.1.61,2.44.37,3.72.77,1.82,1.54,3.65,2.32,5.47,1.96,4.61,1.38,7.3-2.21,10.35,1.89,1.89,2.12,4.66,3.59,6.77,3.09,2.33,6.15,4.7,9.27,7-1.6-1.3-3.19-2.61-4.78-3.93-.78-.66-2.16-1.57-3.07-2.65-1.31-.28-2.36-1.48-1.59-3,4.91-9.64,2.6-22.54-4.12-30.71-8.22-9.99-20.83-14.31-31.64-21.04.01.07.02.14,0,.19-.54,2.15,1.43,3.27,1.94,4.97,1.09,1.39,2.55,2.07,4.28,2.21,5.08-.14,9.03,2.72,12.95,5.28,3.36,2.19,6.34,4.95,9.8,7.04,1.35.82,2.17,1.78,1.73,3.51Z"/>
        <path class="cls-8" d="M177.52,24.88c-6.56,5.68-12.1,13.22-14.67,21.53-.04.12-.09.24-.15.35.05.26.05.52.01.77.7-.48,1.37-1.06,2.01-1.68.1-.18.21-.36.34-.53.58-2.02,1.05-4.08,1.78-6.04.77-2.07,2.15-3.62,4.61-3.69.46-.25.92-.5,1.39-.75l.06-.33.33-.03c.06-.23.19-.42.39-.56-.02-.64.26-1.12.74-1.5-.03-.29.03-.56.2-.8.62-2.5,1.63-4.74,2.96-6.74Z"/>
        <path class="cls-8" d="M148.33,42.55c-.28-.12-.56-.22-.84-.33,3.46,2.01,6.72,4.35,9.96,6.73.48.06.94.06,1.38.03-3.35-2.4-6.91-4.45-10.51-6.43Z"/>
        <path class="cls-8" d="M196.51,30.65c1.41-4.08,3.57-7.86,6.9-10.54,1.23-.99,2.49-1.93,3.72-2.92-.42-.33-.69-.85-.78-1.43-.4,1.14-1.56,2.05-3.03,1.53-1.51-.53-3.02-.84-4.53-.98-.45,1.16-1.09,2.15-1.59,3.2.06.35.12.7.18,1.05,1.41,3.22-.57,5.71-1.81,8.36.39.57.7,1.15.93,1.73Z"/>
        <path class="cls-8" d="M212.61,67.55c.61.32,1.23.57,1.86.79-1.66-1.55-.16-4.84,2.22-3.98,1.42-1.72,2-3.66,1.98-6.12-.02-2.95-.54-5.93-.16-8.88.33-2.48,1.3-4.76,2.17-7.08.57-1.5,1.27-2.96-.16-4.11-.99-.8-2.15-1.31-3.42-1.6-.11.91-.31,1.82-.46,2.73,0,1.78.18,3.57-.53,5.28,2.26,6.22.85,12.12-1.89,17.75-.84,1.73-.45,3.7-1.61,5.24Z"/>
        <path class="cls-8" d="M277.23,104.69c.23.48.37,1.01.42,1.64.34-.25.75-.43,1.19-.5-.54-.38-1.08-.76-1.61-1.14Z"/>
        <path class="cls-8" d="M269.89,50.31c-1.03-4.12-.66-8.12,1.11-11.98.07-.65.13-1.31.2-1.96l-.28-.29.34-.21c.36-2.72.8-5.43,1.65-8.02-.23.21-.49.38-.79.49-.23.38-.44.76-.64,1.15.56.91.61,2.16-.37,3.09-.44.41-.84.79-1.28,1.12-.19.61-.54,1.01-.98,1.21-.62,5.85.05,12.01.82,17.71.37,2.74.82,5.48,1.42,8.18.14-.04.28-.06.43-.07-.41-.52-.69-1.13-.77-1.87-.31-2.84-.58-5.7-.86-8.54Z"/>
        <path class="cls-8" d="M367.73,146.79c-.07,2.71,1.9,5.03,1.87,7.85-.01,1.31.26,2.56-.76,3.6-.64.65-1.01,1.37-.86,2.3.44,2.72-1.33,3.81-3.45,4.64.86.97,1.68,1.95,2.41,2.96.68-3.74,2.42-7.3,2.94-11.09.57-4.22-.3-8.19-2.29-11.8.09.48.14,1,.12,1.54Z"/>
        <path class="cls-8" d="M351.93,258.8c.09-.63.17-1.26.26-1.89-.13.62-.2,1.25-.26,1.89Z"/>
        <path class="cls-8" d="M350.04,274.35c-.06-.22-.12-.43-.17-.65,0,.47.04.93.09,1.39.03-.25.05-.49.08-.74Z"/>
        <path class="cls-8" d="M364.09,291.23c-.88-1.14-1.86-2.2-2.87-3.21-.39.68-1.12,1.14-2.13,1.01.06.14.09.3.08.49.52.08.76.42.83.92.27.23.54.47.8.7,4.24,3.76,5.44,8.98,6.76,14.13.28,1.11.3,2.41.92,3.28,1.1,1.54,1.81,3.13,2.24,4.74.13-.58.25-1.15.34-1.73,1.24-7.43-2.53-14.59-6.98-20.34Z"/>
        <path class="cls-12" d="M215.46,424.63c1.17,6.82,3.21,13.4,5.3,19.99,1.55,4.89,3.11,9.95,1.37,15.22-.37,1.11.4,1.86.97,2.71,3.25,4.89,1.47,10.97-3.76,13.6-3.04,1.53-6.25,2.49-9.55,2.16-2.87-.29-3.76.98-4.5,3.33-1.3,4.11-3.16,8.01-4.99,11.93-2.35,5.03-5.85,9.23-9.25,13.49-1.79,2.24-3.65,4.55-5.92,6.26-5.72,4.32-9.56,10.15-13.94,15.65-5.55,6.97-12.22,12.9-20.05,17.49-5.21,3.06-10.7,4.76-16.63,5.29-1.46.13-3,.05-4.23-.6-3.12-1.65-6.5-1.41-9.72-1.25-6.26.31-11.76-1.1-16.06-5.78-2.47-2.68-5.46-4.64-8.4-6.66-3.74-2.57-7.03-5.46-8.57-9.94-.32-.92-.88-1.87-1.59-2.52-4.95-4.53-6.21-10.57-6.81-16.8-.18-1.84-.67-3.24-1.94-4.57-5.08-5.29-7.43-12.06-6.92-18.97.67-9.03,2.74-14.73,12.67-17.14,1.1-.27,2.28-.31,3.13-1.29,3.06-3.54,7.15-5.27,11.56-6.23,2.47-.53,3.37-1.76,4.07-4.19,2.34-8.14,5.24-16.1,8.16-24.33-2.18,1.38-4.46,2.12-6.96,2.11-.52,0-1.34.21-1.53.58-2.01,4.01-5.97,4.24-9.58,4.73-6.4.88-12.86,1.61-19.24-.35-1.23-.38-2.48-.63-3.59-1.4-1.82-1.27-3.89-1.68-6.12-1.75-6.28-.19-10.53-3.28-12.53-9.28-.48-1.45-1.19-2.24-2.76-2.85-2.57-1-4.34-2.88-5.07-5.93-.84-3.53-1.08-7.07-1.28-10.78-1.42.09-2.67.15-3.92.26-3.61.33-6.25-2.66-5.16-6.16,1.29-4.11,2.65-8.2,3.72-12.38.46-1.78.71-2.84-1.65-3.93-5.25-2.43-6.19-9.81-1.67-13.5,3.35-2.74,5.6-6.14,7.89-9.6,2.16-3.26,4.48-6.39,7.59-8.79,4.17-3.23,6.59-7.96,10.24-11.64,3.14-3.17,5.81-6.79,10.51-7.88,1.21-.28,1.95-1.19,1.64-2.63-2.75-.94-5.08-.7-7.49,1.37-2.61,2.24-5.96,3.04-9.26,1.48-1.35-.64-2.09-.12-3.14.33-2.24.96-4.31,2.23-6.66,3.02-3.04,1.01-5.61.77-8.03-1.3-2.14-1.82-4.35-2.72-7.41-2.14-4.62.88-7.9-2.18-10.83-5.15-1.41-1.43-1.36-3.69-1.35-5.72.01-2.66-.16-5.1-1.77-7.59-2.26-3.49-.58-9.22,2.85-12.01.78-.64,1.57-1.37,2.48-1.72,3.11-1.19,4.51-3.81,6.49-6.26,4.3-5.31,9.37-10.1,17.34-9.26,2.18.23,4.55-.54,6.73-1.2,3.28-1,6.44-1.56,9.61.25,1.83,1.05,2.94-.26,4.14-1.28,1.09-.92,1.66-1.85.84-3.34-.47-.85-.5-1.93-.79-2.89-1.23-4.02-.72-6,2.7-8.57,1.7-1.27,2.72-2.43,2.75-4.83.06-5.93,4.62-9.82,10.74-9.66.95.26,2.13-.48,2.88.34,2.83,3.03,5.89,5.81,9.28,8.24-7.03-.67-8.12-.25-10.03,4.02-1.39.64-.55,1.7-.45,2.58.4,3.46-.31,6.47-3.19,8.73-.51.4-1.23.73-1.14,1.86,1.93.72,2.73,2.93,4.59,3.99.28,1.09.69,2.17.82,3.29.35,3.11,1.8,5.21,4.85,6.31,2.33.84,4.01,2.65,5.5,4.59.02,2.85.04,5.7.06,8.54-.83,2.13-1.97,4.1-3.15,6.05-2.43,4.01-5.27,7.78-7.14,12.12-.07.28-.14.55-.21.83,0,0,.05-.06.05-.06-3.23,1.31-5.96,2.88-5.29,7.18.19,1.19-.1,2.45.06,3.75.38,3.01-.14,6.14-1.72,8.66-1.21,1.94-.93,3.38-.15,5.1-.59,3.51-1.31,6.98-.99,10.6.54,6.03,1.28,11.93,5.46,16.77,1.71,1.98,2.27,4.58,3.35,6.91,1.56,3.36,2.29,7.14,4.91,9.96,2.27,2.44,3.75,5.38,5.5,8.18,2.41,3.84,4.96,7.7,9.46,9.54,1.51,3.02,4.01,5.24,6.33,7.56,1.71,1.71,2.29,3.56,2,5.82-.11.87-.28,1.73-.5,3.08.76-.76,1-1.19,1.36-1.33,3.47-1.34,5.82-3.42,5.55-7.56-.05-.79.52-1.63.81-2.44,2.47-.19,3.8-1.71,4.67-3.88,1.03-2.57,2.53-4.56,5.14-6.05,8.6-4.91,17.34-9.62,25.45-15.37,1.83-1.29,3.93-2.74,6.35-2.36,5.11.8,9.98-.41,14.94-1.23,2.87-.47,4.65-1.9,5.93-4.36,2.25-4.34,4.59-8.63,6.88-12.95.95-1.8,2.15-3.11,4.43-2.39,1.56.49,2.44-.22,3.06-1.56,4.16-9,8.52-17.94,9.29-28.06.09-1.16.25-2.31.86-3.31,1.22-1.98,1.1-4.04.72-6.22-.44-2.53-1.5-5.13-.7-7.66,1.49-4.72.92-9.39-.05-14.01-.44-2.08.2-2.86,2-3.46,2.86-.96,5.67-2.07,8.5-3.14,1.62-.62,3.69-1.22,4.03-2.94.66-3.34,3.07-3.68,5.45-3.47,2.19.19,4.23-.97,6.38-.3,2.69,4.04,2.54,8.54-.82,12.19-1.69,1.84-.11,4.86.08,7.27.7,8.67-3.93,15.76-6.66,23.85-.83,2.47-2.94,4.44-3.7,6.63-.72,2.06.43,5.01.15,7.58-.14,1.28-.23,2.78-.95,3.73-1.78,2.37-1.55,5.19-2.21,7.8-.35,1.39-.35,2.88-.77,4.25-2.21,7.2-3.14,14.6-3.66,22.08-1,5.01-1.55,10.17-3.11,15-1.5,4.64-.7,8.23,2.53,11.57-.26.82-.2,1.57.43,2.21.1.27.19.55.29.82-.03,1.9.99,3.52,1.42,5.3ZM141.67,502.04c.68-3.18-.33-6.24-1.21-9.26-.42-1.44-1.38-2.62-2.91-3.53-4.37-2.61-8.94-2.92-13.71-1.84-1.55.35-2.84.6-3.51-1.24-1.06-2.88-3.34-4.38-5.93-5.85-5.38-3.04-10.11-1.37-11.85,4.63-.56,1.93-1.76,2.9-3.45,2.04-2.34-1.19-5.01-1.04-7.33-2.43-3.06-1.84-6.37,0-6.95,3.55-.47,2.9-.32,5.61,1.25,8.32,1.32,2.27,2.8,4.39,4.56,6.26,2.74,2.91,5.72,5.59,5.46,10.09-.02.26.16.55.28.81,3.59,7.6,7.44,14.91,15.54,18.91,1.5.74,3.09,1.41,4.56,2.29,4.85,2.91,12.83,1.63,16.48-2.72,2.91-3.46,5.06-7.2,5.15-12.01.05-2.75-.16-5.46-.42-8.15-.17-1.75-.11-3.01,1.35-4.15,1.8-1.41,2.62-3.38,2.65-5.73Z"/>
        <path class="cls-10" d="M83.15,324.52c1.87-4.34,4.71-8.11,7.14-12.12,1.19-1.96,2.32-3.92,3.15-6.05,1.57.18,3.13.41,4.7.52,1.3.09,1.76-.61,1.58-1.89-.55-3.79-3.25-5.65-6.34-7.17-1.49-1.95-3.17-3.75-5.5-4.59-3.04-1.1-4.49-3.2-4.85-6.31-.13-1.11-.54-2.19-.82-3.29-.03-2.15.8-3.8,2.62-5.03,1.07-.73,2.26-1.84,1.24-3.15-2.09-2.68-2.08-6.14-3.67-8.97,1.91-4.28,3-4.69,10.03-4.02-3.39-2.43-6.45-5.21-9.28-8.24-.76-.81-1.93-.07-2.88-.34.05-1.07-.31-1.94-1.19-2.61-1.25-.95-2.44-1.98-3.7-2.91-3.32-2.47-6.72-4.84-9.07-8.37-1.57-2.35-3.95-3.09-6.66-3.27-2.52-.17-5.24.04-7.01-2.42-.73-2.99-.1-5.98.04-8.97.07-.29.25-.47.53-.56.87.16,1.7.01,2.46-.43.56-.32,1.52-.5,1.12-1.41-.33-.77-1.23-.48-1.92-.53-.31-1.05-1.08-1.56-2.02-2.04-6-3.01-8.52-8.81-10.4-14.56-.85-2.59.5-6.1,3.63-7.84,5.17.13,6.23-.91,5.82-5.7,1.18-2.8-1.12-5.34-.62-8.09,1.34-1.44.05-3.72,1.67-5.11.92.31,1.84.69,2.8.94,4.71,1.24,8,4.13,9.95,8.55.67,1.53,1.17,3.14,1.75,4.72,1.57,4.78,3.11,9.57,4.72,14.34.46,1.37.82,2.48-1.13,2.91-.81.18-1.87.58-1.61,1.64.31,1.25,1.44.99,2.5.99,3.46,0,6.86.37,10.25,1.24,7.55,1.94,14.9,4.42,21.78,8.1,1.57.84,2.55.67,3.76-.54,1.93-1.94,4.05-3.68,6.03-5.57,3.03-2.91,6.61-5.09,9.95-7.59,1.97-1.47,3.37-.81,4.28,1.51.83,2.1.71,4.13.1,6.32-.69,2.49-1.21,5.17,1.12,7.29.52,1.27,1.69,1.87,2.67,2.7,1.93,1.63,4.39,2.68,5.66,5.06,1.06,2.21,2.33,1.31,2.98-.09,1.35-2.89,3.57-4.29,6.56-4.85.49-.09.9-.63,1.35-.96,1.81.95,2.29-.57,2.78-1.66,1.28-2.86,2.48-5.76,3.59-8.69,1.27-3.33,4.51-4.61,6.9-6.75,1.04-.93,2.74-.14,4.08.44.61,1.75,1.03,3.56,2.33,5.02,2.68,3.02,4.73,6.49,6.89,9.88,1.55,2.44,3.4,4.58,5.62,6.47,1.99,1.7,3.97,2.36,6.68,1.96,4.94-.73,9.85-1.9,14.94-1.43,10.86,1,21.78.38,32.66.84,1.59.07,3.16-.07,4.48-1.11,2.26-1.04,2.64-2.66,1.71-4.9-.51-1.22-1.64-2.71-.23-3.93,2.94-2.56,5.67-5.51,9.75-6.35.55.77,1.51,1.29.91,2.58-.53,1.15-.72,2.46-1.06,3.69-1.63,4.99-2.59,11.75-2.01,14.27,1.09-.81.67-2.53,1.95-3.21-.21,2.89-.72,5.71-1.96,8.35-1.44,1.73-3.59,3.32-3.77,5.5-.4,4.7-2.25,9.09-2.49,13.78-.63.52-1.26,1.03-1.89,1.55-1.33,1.81-2.67,3.62-4,5.43-2.46,2.54-2.5,3.31.06,5.26,1.23.94,2.49,1.93,4.05,2.33.9,3.43.28,6.7-1.07,9.89-.77,1.82-1.5,3.66-2.26,5.49-2.28.43-3.89,1.65-4.65,3.89-2.15-.67-4.19.48-6.38.3-2.39-.2-4.8.13-5.45,3.47-.34,1.72-2.41,2.32-4.03,2.94-2.82,1.07-5.63,2.19-8.5,3.14-1.8.6-2.44,1.38-2,3.46.98,4.63,1.55,9.29.05,14.01-.8,2.53.26,5.13.7,7.66.38,2.18.5,4.24-.72,6.22-.62,1-.78,2.15-.86,3.31-.77,10.12-5.13,19.06-9.29,28.06-.62,1.35-1.5,2.05-3.06,1.56-2.28-.72-3.48.59-4.43,2.39-2.29,4.32-4.63,8.61-6.88,12.95-1.28,2.47-3.06,3.89-5.93,4.36-4.96.82-9.83,2.03-14.94,1.23-2.42-.38-4.53,1.06-6.35,2.36-8.11,5.74-16.85,10.46-25.45,15.37-2.61,1.49-4.11,3.48-5.14,6.05-.87,2.17-2.2,3.69-4.67,3.88-4.78-.28-9.57-.46-13.21-4.34-.5-.53-1.55-.54-2.35-.79-4.49-1.84-7.05-5.7-9.46-9.54-1.75-2.79-3.23-5.73-5.5-8.18-2.62-2.82-3.35-6.6-4.91-9.96-1.08-2.32-1.64-4.92-3.35-6.91-4.18-4.85-4.92-10.74-5.46-16.77-.32-3.62.4-7.09.99-10.6,2.67-1.99,4.42-4.81,4.24-7.96-.19-3.38.22-6.46,1.08-9.69.62-2.33,1.81-4.55,1.78-7.05,0,0-.05.06-.05.06.13-.06.29-.08.38-.18.21-.22.14-.45-.17-.65ZM114.68,248.58c-.04.57-.11,1.14-.13,1.71-.06,2.14,1.52,4.98,3.35,5.32,2.1.38,2.87-1.35,3.51-2.98.51-1.29,2.48-1.59,2.31-3.34-.92-.94-2.42.4-3.43-.1-1.29-.61-4.85-1.15-6.17-1.67-2.27-.89.22-1.93.56,1.06ZM165.61,253.25c-.02-.61-.74-.08-1.35-.1-2.14-.05-3.81-1.14-6.06-1.12.37,1.36,1.4,1.47,1.92,2.12.43,1.34,1.43,2.42,1.6,3.92.15,1.3,1.15,2.02,2.46,1.73,1.91-.42,3.86-.44,5.7-1.49,2.11-1.2,2.8-2.58,2.02-5.1-2.16.8-4.23.36-6.3.03Z"/>
        <path class="cls-3" d="M356.25,232.45c1.09-9.92,2.71-19.74,5.52-29.33-1.34-2.39-2.96-4.61-4.45-6.91-.55-.84-1.32-1.56-1.01-2.71-2.27-5.33-6.81-8.43-11.53-11.12-11.07-6.32-22.72-11.05-35.55-12.45-2.4-.26-4.76-1.06-7.09-1.77-4.8-1.47-9.44-1.9-14.27.29-4.42,2.01-9.3,2.81-13.88,4.52-3.77,1.4-7.9,1.12-11.92.89-1.32,1.48-2.65,2.95-3.97,4.43-.13,4.53-.25,9.05-.38,13.58.83,3.77-.5,7.37-.9,11.04-1.4,8.88-3.3,17.65-5.37,26.39.07,1.14-.26,2.14-1.03,2.99.11.2.11.4,0,.59-.2,2.88-.71,5.7-1.96,8.35-1.62,6.5-3.23,13-4.85,19.5-1.49,4.69-2.06,9.59-3.19,14.36.9,3.43.28,6.7-1.07,9.89-.77,1.82-1.5,3.66-2.26,5.49-.24,6.62-2.09,13.02-2.72,19.59-.34,3.56-1.03,7.1-.64,10.7.44,4.06-1.66,7.52-2.82,11.17-4.17,13.17-7.61,26.54-8.29,40.33-.27,5.47-1.75,9.92-4.78,14.16-.83,1.16-1.66,2.33-2.48,3.5-.13,1.14.13,2.57-.46,3.35-2.33,3.09-.36,6.06.04,9.01.28,2.02,5.05,4.71,7.12,4.1,1.59-.46,3.05-.67,4.6-.13,2.99-.42,3.38-3.69,5.5-5.05,2.03-3.94,5.17-7.06,7.66-11.31,1.93,3.89,3.1,7.34,4.09,10.85,2.46,3.86,5.32,7.33,9.28,9.76,3.55,1.01,7.26,4.15,10.84,5.04,4.93,1.23,9.64-.54,14.18-3.47.52-.7,1.16-1.21,2.06-1.3,3.4-2.31,6.81-4.62,10.6-7.2,2.74,6.47,7.05,11.6,11.17,16.86v.06c1.18.35,1.83,1.25,2.33,2.3.83.5,1.79.87,2.47,1.53,2.48,2.43,5.42,3.84,8.83,4.31,2.7.4,3.82-2.16,5.82-3.08,1.41-.65,1.83-1.69,1.1-3.15-.94-1.88-.61-3.68-.28-5.75.72-4.52,2.83-8.69,3.14-13.27.44-6.45,1.94-12.63,4.41-18.63,1.91-4.63,2.25-9.76,4.15-14.42.54-4.23,2.1-8.45,0-12.7-.46-.93.27-1.69.87-2.26,1.05-.99,2.06-2,2.83-3.23-.2-.38-.51-.73-.59-1.13-.78-3.7-2.88-5.49-6.69-6.66-4.75-1.45-8.8-4.63-11.69-8.93-1.77-1.41-1.87-3.77-3.12-5.5-.44-.6.11-1.34.93-1.59-.36-3.09.22-5.98,1.81-8.67-.26-.77-.65-1.53-.36-2.38-.5-.64-.7-1.38-.71-2.18,0,0,.02,0,.02,0-1.82-1.55-2.12-3.75-2.55-5.9-.29-2.21-1.95-4.71,1.33-6.15.91-2,1.51-4.18,3.22-5.73.42-2.43,1.49-4.4,3.45-6.05,1.45-1.21,2.45-2.95,3.66-4.45,0,0-.06.07-.06.07-.16-.73.23-1.04.88-1.14,1.38-1.23,2.92-2.33,4.11-3.73,2.97-3.5,6.72-5.08,11.22-5.15,3.81-4.42,7.42-8.95,8.24-15.02.09-.69.38-1.33.97-1.78.06-.43.12-.86.18-1.29.06-.64.12-1.27.26-1.89,1.14-8.19,2.47-16.34,4.06-24.45Z"/>
        <path class="cls-13" d="M277.65,106.33c-.05-.63-.19-1.16-.42-1.64-.64-.45-1.26-.92-1.89-1.38-.33.04-.68.03-1.06-.08-2.33-.64-4.5-1.53-6.55-2.61-2.28-.47-4.12-1.82-5.93-3.54-.5-.48-1.01-.96-1.51-1.43-3.45-2.78-6.66-5.94-9.86-9.04-2.75-2.4-5.56-4.73-8.48-6.93-3.26-1.8-6.59-3.46-10.07-4.79-4.73-1.81-9.62-3.21-14.33-5.09-1.13.44-2.28-.24-2.79-1.23-.11-.07-.21-.15-.29-.23-.63-.22-1.25-.47-1.86-.79-4.57,2.74-9.27,5.15-14.55,6.27-1.69.36-3.16,1.28-4.61,2.28-4.96,3.41-10.08,6.6-15,10.07-3.29,2.32-5.85,5.5-8.55,8.45-1.42,1.55-2.74,2.42-4.81,1.96-2.18-.48-3.97-.28-5.87,1.42-2.18,1.94-4.32,1.36-6.58-1.59-2.45-3.19-5.45-5.41-9.03-7.13-1.72-.82-3.37-1.47-5.26-1.72-2.06-.28-3.97-1.05-4.32-3.5-.49-3.41,2.27-5.76,5.71-4.78,1.36.39,2.6,1.24,4.13.91.26-.89-.78-1.08-.92-1.7-1.4-6.33-5.18-11.78-6.65-18.1-.72-3.12-1.18-6.19-.59-9.38.53-2.84-.07-5.39-2.13-7.52-1.3.67-1.61,1.86-1.86,3.19-1.03,5.69-.08,11.07,2.2,16.31.69,1.58,1.27,3.22,1.7,4.88,1.49,5.82,1.5,5.93-3.99,8.45-9.26,4.25-17.28,10.19-24.56,17.25-1.99,1.93-4.13,3.77-6.71,4.97-.38-.52-.58-.73-.7-.98-2.51-4.97-5.64-5.34-9.15-1.06-.36.44-.69.87-1.34.78.06.19.12.38.13.57,0,.1-.14.21-.22.31-1.06,1.51-2.81,1.9-4.35,2.56-2.46,1.05-3.77,2.87-4.14,5.47-.1.69-.3,1.37-.43,2.06-1.19,6.31-2.14,7.07-8.65,6.97-.57,0-1.14-.01-1.71-.02-2.56,2.53-2.49,5.5-1.74,8.75.89,3.83.76,3.86-2.65,5.86-4.6,2.69-5.87,11.23-1.63,13.45,3.01,1.57,2.78,3.27,2.46,5.77-.21,1.68.08,3.42.14,5.14.14,4.15-.43,8.48.61,12.39,1.24,4.68,1.31,9.25,1.16,13.94.43,2.86,2.04,5.47,1.6,8.56-.26,1.78-.72,3.22-2.28,4.18,1.57,4.78,3.1,9.57,4.72,14.34.46,1.37.82,2.48-1.13,2.91-.81.18-1.87.58-1.61,1.64.31,1.25,1.44.99,2.5.99,3.46,0,6.86.37,10.25,1.24,7.55,1.94,14.9,4.42,21.78,8.1,1.57.84,2.55.67,3.76-.54,1.93-1.94,4.05-3.68,6.03-5.57,3.03-2.91,6.61-5.09,9.95-7.59,1.97-1.47,3.37-.81,4.28,1.51.83,2.1.71,4.13.1,6.32-.69,2.49-1.21,5.17,1.12,7.29,1.47-4.83,2.51-5.53,7.61-5.01,1.7.17,3.39.55,5.09.68,3.72.27,6.21,1.85,6.59,5.84,0,0-.07.36-.07.36,1.81.95,2.29-.57,2.78-1.66,1.28-2.86,2.48-5.76,3.59-8.69,1.27-3.33,4.51-4.61,6.9-6.75,1.04-.93,2.74-.14,4.08.44,3.43-2.07,4.2-1.97,6.15,1.03,1,1.54,2.24,3.06,2.74,4.78,1.26,4.32,4.54,4.92,8.24,5.04-1.5-1.71-3.18-3.28-4.45-5.14-2.77-4.07-4.24-8.36-2.01-13.33,1.29-2.88,2.1-5.97,2.69-9.1.16-.85.32-1.69.91-2.39,5.46-6.41,10.07-13.49,17.25-18.44,4.31-2.97,8.46-6.03,13.57-7.11,5.13-1.08,10.44-2.28,15.61-.24,2.3.91,4.5.99,6.74.41,1.52-.4,2.95-.49,4.01.63,2.88,3.05,6.43,5.75,6.34,10.59-.04,2.2.34,4.28,1.28,6.29,1.3,2.79,1.52,5.83,1.84,8.84.06.57.2,1.25-.03,1.71-2.75,5.37-2.14,11.88-5.84,16.95-1.96,2.68-3.6,5.54-6.96,6.82-.87.33-1.62,1.2-2.22,1.98-1.74,2.29-3.38,4.65-5.06,6.99.44,1.04,1.31,1.4,2.36,1.51,1.55.16,3.1.49,4.64.47,2.64-.02,4.62.92,5.81,3.34,2.26-1.04,2.64-2.66,1.71-4.9-.51-1.22-1.64-2.71-.23-3.93,2.94-2.56,5.67-5.51,9.75-6.35.15-1.57.19-3.14,1.17-4.52,1.78-2.49,2.31-5.55,3.68-8.23,1.42-3.5,1.23-7.33,2.26-10.91.13-4.53.26-9.05.38-13.58-.21-.67-.34-1.38-.65-1.99-1.11-2.16-.61-3.75,1.56-4.81,2.69-6.46,2.92-13.37,3.72-20.17-.69-2.19.97-3.8,1.49-5.68,1.48-5.42,2.12-10.93,2.44-16.51-.82-.92-.73-1.71.18-2.57,2.28-2.14,2.93-4.49,1.68-7.64-1.65-4.16,1.87-7.52,6.95-6.96.87-.71,1.43-1.59,1.81-2.59-1.01-1.1-.57-2.34.38-3.04ZM113.58,210.91c-1.38,2.91-4.34,3.61-6.51,5.39-1.56,1.28-3.34-.07-4.95-.42-7.18-1.57-13.98-4.32-20.87-6.81-1.83-.66-2.49-1.61-1.93-3.54.46-1.58.15-3.06-.88-4.47-1.88-2.56-2.24-5.6-1.98-8.64.52-6.18.86-12.32-1.09-18.36-.54-1.67-.43-3.22.54-4.92,1.58-2.78,1.99-6,1.79-9.19-.09-1.5.14-2.44,1.7-2.95,3.78-1.23,6.44-4.13,9.28-6.67,1.27-1.14,2.15-1.15,3.33-.22.91.72,1.61,1.6,2.31,2.53,1.29,1.72,2.76,3.34,3.98,5.05,4.5,6.32,10.66,11.16,15.2,17.41.6.82,1.4,1.67,1.31,2.66-.36,4.07,1,7.98,1.04,12,0,.8.17,1.67-.34,2.41.59-.03.5.5.61.86.18.7.36,1.4.54,2.11.35,5.53-.7,10.74-3.09,15.77ZM122.94,148.71c-2.23,1.05-4.53.86-6.46-.71-2.21-1.8-4.3-3.77-6.38-5.73-2.55-2.4-5.85-3.59-8.79-5.32-2.35-1.38-4.65-2.83-6.97-4.26-1.51-.93-2.72-2.17-3.24-3.89-1.41-4.66-.57-6.37,3.96-8.29,1.83-.78,4.91-1.28,7.36-1.05,2.22,1.03,5.22.64,8.15.96,4.54.49,7.94,3.29,10.28,7.07,3.15,5.09,4.16,10.91,4.86,16.76.26,2.14-.99,3.6-2.78,4.44ZM239.24,139.75c-.6,1.58-2.25,2.02-3.62,1.68-6.64-1.67-12.74.73-18.98,2.19-1.39.33-2.83.43-4.25.68-2.23.39-4.62.4-5.5,3.25-.31,1.01-1.56,1.2-2.5,1.54-5.14,1.85-10.14,4.08-15.46,5.42-1.63.41-3.11,1.4-4.74-.29-2.4-2.49-3.26-4.2-2.83-6.72.3-.65.66-1.28.16-2.01-1.73-2.48-.68-4.72.82-6.73,3.43-4.6,6.9-8.96,12.47-11.53,3.76-1.73,7.2-4.09,11.37-4.88,2.2-.42,4.28-.5,6.08,1.13,1.42,1.28,3.26.93,4.93,1.22,4.05.71,8.15.61,12.06,2.72,3.67,1.98,5.91,5.39,9.31,7.54,1.65,1.04,1.29,3.14.66,4.78Z"/>
        <path class="cls-10" d="M243.91,400.75c2.46,3.86,5.32,7.33,9.28,9.76.47,2.57,2.77,2.62,4.57,2.99,2,.41,3.79,1.15,5.49,2.21,3.4,2.12,11.05,1.36,13.9-1.37.66-.63,1.01-1.36,1.07-2.25.52-.7,1.16-1.21,2.06-1.3,1.13,0,2.23.21,3.4-.19,5.14-1.76,7.74-.96,11.15,3.24,1.45,1.79,2.88,3.6,4.34,5.37.74.9,1.49,1.84,2.88,1.23,0,0-.01.06-.02.07-.25,1.81.97,2.14,2.34,2.3.83.5,1.79.87,2.47,1.53,2.48,2.43,5.42,3.84,8.83,4.31-.45,3.37-.31,6.79-1.05,10.16-.45,2.09-1.36,3.54-3.32,4.04-5.26,1.34-7.07,5.91-8.4,10.09-1.12,3.51-2.58,6.69-4.69,9.49-5.44,7.23-10.21,14.87-14.68,22.71-.84,1.48-1.37,3.13-2.13,4.67-1.03,2.1-2.58,3.33-5.11,3.18-2.23-.14-4.53.91-6.72-.42-.15-.09-.67.44-1.01.68-1.01-1.33-1.44-3.03-2.99-4.04-3.25-2.12-6.74-3.74-10.37-5.02-1.72-.61-3.88-.93-5.34.23-1.87,1.48-3.94,1.4-5.99,1.77-2.17-.69-4.6-.07-6.64-1.51-2.74-1.94-4.71-4.1-5.63-7.66-1.82-7.1-2.38-14.39-3.95-21.52-.09-.41.05-.89-.07-1.29-3.13-9.55-6.78-18.92-10.48-28.26-.22-.56-1.08-.87-1.64-1.3-.43-1.78-1.45-3.4-1.42-5.3.75-.57.15-.67-.29-.82-.63-.64-.69-1.4-.43-2.21.48-1.17,1.27-2.19,1.39-3.52.21-2.31,1.9-3.56,3.83-4.03,2.16-.53,4.2-1.8,6.58-1.31.82.17,1.25-.49,1.53-1.18,2.99-.42,3.38-3.69,5.5-5.05,3.91-.42,7.79-1.4,11.75-.46Z"/>
        <path class="cls-9" d="M216.12,44.57c-.68-2.21-.12-4.95-2.94-6.26-.33-.15-.26-1.16-.28-1.99-2.54.22-5.14,1-7.35,2.05-1.02,1.08-1.92,2.34-2.88,3.48-3.79,4.45-7.14,9.24-10.49,14.15-.09-4.75.86-9.36.25-14.02-.31-2.4.05-4.92-.45-7.27-.76-3.61,0-6.62,2.77-8.92,1.71-1.43,2.33-3.18,2.63-5.21-.06-.35-.12-.7-.18-1.05-.47-.27-.94-.54-1.4-.81-2.43,1.04-4.45,3.02-7.32,3.06-.51,0-1.22.33-1.49.74-1.46,2.14-3.75,2.96-5.96,3.85-2.72,1.09-4.29,3.54-6.46,5.27-.16.24-.23.51-.2.8.04.64-.08,1.21-.74,1.5-.2.14-.33.32-.39.56-.03.22-.15.34-.38.36-.46.25-.93.5-1.39.75-1.48,3.67-4.07,6.61-6.39,9.73-.12.17-.24.35-.34.53-.04,3.06-.07,6.12-.12,9.88-2.98-2.34-5.25-4.36-7.15-6.79-3.24-2.38-6.5-4.72-9.96-6.73-2.34-.93-4.77-1.67-7.26-2.23-.72.6-1.73.75-2.67-.05-.03-.03-.07-.06-.1-.09,0,0-.02,0-.03,0-1.12.14-2.33.32-2.81,1.63.17.6-.03,1.03-.58,1.32-.25.17-.4.4-.46.7,2.05,2.13,2.65,4.69,2.13,7.52-.59,3.19-.14,6.25.59,9.38,1.47,6.32,5.25,11.76,6.65,18.1.14.62,1.18.8.92,1.7-1.53.33-2.77-.52-4.13-.91-3.44-.98-6.19,1.37-5.71,4.78.35,2.44,2.27,3.22,4.32,3.5,1.89.26,3.55.9,5.26,1.72,3.58,1.71,6.58,3.94,9.03,7.13,2.26,2.95,4.4,3.53,6.58,1.59,1.9-1.7,3.7-1.9,5.87-1.42,2.08.46,3.4-.41,4.81-1.96,2.7-2.95,5.25-6.13,8.55-8.45,4.92-3.47,10.04-6.66,15-10.07,1.45-1,2.92-1.92,4.61-2.28,5.28-1.12,9.98-3.54,14.55-6.27,1.16-1.54.77-3.51,1.61-5.24,2.74-5.63,4.15-11.53,1.89-17.75Z"/>
        <path class="cls-10" d="M89.09,98.18c-1.06,1.51-2.81,1.9-4.35,2.56-2.46,1.05-3.77,2.87-4.14,5.47-.1.69-.3,1.37-.43,2.06-1.19,6.31-2.14,7.07-8.65,6.97-.57,0-1.14-.01-1.71-.02-.48-1.12.37-.45-1.15.08-1.24.43-.46.32-.68,1.85-.16,1.13-1.45,1.98-1.19,3.05.42,1.75-.37,4.59-.57,6.29-.13,1.09-1.78.55-3.32.82-1.32.23-2.65,0-3.49-1.19-.73-1.06-2.73-1.42-3.37-2.54-1.61-2.83-1.53-6.63-4.56-8.39-1.15-.67-1.45-2.09-1.95-3.29-.8-1.95-1.14-4.14-3.67-4.95-1.21-.39-1.15-1.83-1.06-3.03.15-1.93,1.07-3.58,1.96-5.21,5.35-9.81,12.29-18.29,21.24-25.07,2.56-1.94,5.3-3.81,8.39-4.26,5.86-.86,10.23-4.41,14.81-7.5,4.39-2.96,8.5-6.39,12.09-10.38,1.64-1.82,2.53-3.55,2.07-6.18-.61-3.52.76-7.09,0-10.72-1.03-4.93-1.54-9.99-5.26-13.88-.99-1.04-.99-2.32-.85-3.65.34-3.1,1.66-3.96,4.61-3.23,3.08.76,5.36,2.63,7.48,4.81,3.32,3.41,6.8,6.82,8.53,11.28,2.84,7.33,3.75,14.74.91,22.57-2.84,7.84-6.23,15.11-12.68,20.63-.54.46-1.02,1.22-1.63,1.34-2.96.58-4.52,3-6.42,4.86-2.67,2.62-5.23,5.33-8.61,7.09-1.14.59-2.04,1.86-1.4,2.81,2.08,3.08-.49,5.4-.93,8.06,0,0,.02-.1.02-.1-.91.27-.51.63-.06.99Z"/>
        <path class="cls-1" d="M243.87,486.17c2.05-.37,4.12-.29,5.99-1.77,1.46-1.15,3.62-.83,5.34-.23,3.63,1.28,7.12,2.9,10.37,5.02,1.55,1.01,1.99,2.71,2.99,4.04,2.03,4.33.42,8.08-1.91,11.7-.3.47-.77,1.23-1.13,1.21-3.65-.17-3.66,2.96-4.77,5.1-2.05,3.96-4.04,7.96-7.1,11.26-2.7,2.9-4.09,2.95-7.44.82-2.24-1.42-5.04-2.11-6.03-5.03-.09-.26-.43-.46-.47-.71-.89-6.34-3.89-12.24-3.59-18.86.26-5.78,3.18-9.59,7.75-12.55Z"/>
        <path class="cls-12" d="M68.16,180.51c.43,2.86,2.04,5.47,1.6,8.56-.26,1.78-.72,3.22-2.28,4.18-.58-1.57-1.08-3.18-1.75-4.71-1.95-4.42-5.24-7.32-9.95-8.55-.96-.25-1.88-.63-2.8-.94-1.62,1.39-.33,3.68-1.67,5.11-2.08-3.94-1.08-7.34,2.53-8.88.99-.42,1.81-.63,2.81-.06,2.27,1.28,4.93,1.37,7.32,2.28.28,3.14.47,3.31,3.11,2.79.36.08.72.15,1.08.23Z"/>
        <path class="cls-10" d="M334.01,370.34c.54-4.23,2.1-8.45,0-12.7-.46-.93.27-1.69.87-2.26,1.05-.99,2.06-2,2.83-3.23.66.2,1.39.26,1.8.95-.9,2.57-1.62,5.23-2.76,7.68-1.44,3.1-1.78,6.32-1.82,9.63-.31-.02-.61-.05-.92-.07Z"/>
        <path class="cls-12" d="M51.92,192.24c.41,4.79-.65,5.83-5.82,5.7.49-3.38,3.32-4.37,5.82-5.7Z"/>
        <path class="cls-11" d="M52.7,225.31c-.14,2.99-.77,5.98-.04,8.97-3.92-2.83-3.91-4.59.04-8.97Z"/>
        <path class="cls-12" d="M54.9,222.38c.68.05,1.58-.24,1.92.53.4.91-.56,1.09-1.12,1.41-.76.44-1.59.58-2.46.43.56-.79,1.11-1.58,1.67-2.37Z"/>
        <path class="cls-13" d="M67.07,180.28c-2.64.52-2.83.35-3.11-2.79,1.67.22,2.1,1.83,3.11,2.79Z"/>
        <path class="cls-13" d="M134.62,41.49c.17.6-.03,1.03-.58,1.32-.03-.54.14-.99.58-1.32Z"/>
        <path class="cls-12" d="M370.73,313.3c-.43-1.61-1.14-3.2-2.24-4.74-.62-.87-.64-2.18-.92-3.28-1.32-5.16-2.52-10.37-6.76-14.13-.48,0-.72-.28-.83-.71-.45-.14-.77-.39-.82-.9-.44-.06-.69-.27-.76-.63-2.46-.47-4.56-1.63-6.27-3.51-.07-.08-.14-.16-.21-.24-.12-.03-.24-.05-.36-.07-.97-.14-1.22-1.42-1.77-2.23-.34-.24-.6-.58-.75-1-1.72-2.18-3.69-4.08-6.47-4.98-4.5.06-8.25,1.64-11.22,5.14-1.18,1.4-2.73,2.5-4.11,3.73-.14.48-.15,1.07-.83,1.13-.51,1.88-1.26,3.74-1.44,5.65-.35,3.58-2.58,4.59-5.65,4.79-1.71,1.55-2.31,3.73-3.22,5.73.15,2.09-.4,4.11-.7,6.15,1,1.85,1.89,3.74,1.93,5.9,0,0-.02,0-.02,0,.74.6,1.4,1.24,1.31,2.31.44.81,2.07,1.74-.24,2.26-1.59,2.68-2.17,5.58-1.81,8.67.84,2.33,2.3,4.46,2.18,7.08,2.89,4.3,6.94,7.47,11.69,8.93,3.81,1.17,5.91,2.95,6.69,6.66.08.4.39.75.59,1.13.66.2,1.39.26,1.8.95,1.42-.23,2.82-.52,4.25-.66,9.12-.91,14.5-7.07,19.08-14.02,1.26-1.91,2.29-3.84,4.11-5.31.63-.51,1.21-1.09,1.72-1.71-.12-.2-.22-.42-.29-.67-1.62-5.96,1.06-11.66,2.36-17.43Z"/>
        <path class="cls-2" d="M365.66,195c.49-2.57.84-5.12,1.52-7.66.94-3.55,1.25-6.6.49-10.22-.3-1.4-.66-2.78-.86-4.19-.19-.04-.38-.06-.58-.07-3.02-.09-2.5-4.75.5-4.66.07,0,.14.01.21.02,0-.03,0-.06.01-.09-.73-1.02-1.56-1.99-2.41-2.96-6.45-4.51-13.09-8.72-19.97-12.53-5.9-3.27-12.03-5.94-18.88-6.69-4.41-.48-8.66-1.8-12.94-2.95-1.39.74-2.89.42-4.21.06-6.27-1.72-12.59-1.77-18.99-1.14-1.11.11-2.25-.16-3.38-.26-.28.65-.86.67-1.45.66-3.42.95-6.54,2.79-10.08,3.35-3.48,2.92-7.93,3.8-11.92,5.65-.8,6.81-1.03,13.72-3.72,20.17,1.25.49,2.97.37,3.05,2.37,4.02.23,8.15.51,11.92-.89,4.58-1.71,9.46-2.51,13.88-4.52,4.82-2.19,9.46-1.76,14.27-.29,2.33.71,4.69,1.51,7.09,1.77,12.83,1.4,24.49,6.13,35.55,12.45,4.72,2.69,9.25,5.79,11.53,11.12,2.66.5,4.88,2.8,7.88,1.91.49-.14.98-.28,1.47-.42Z"/>
        <path class="cls-10" d="M343.11,104.05c-2.54-3.6-4.92-7.33-7.67-10.77-1.97-2.47-3.16-5.63-6.46-7.01-3.01-1.26-5.83-2.99-8.76-4.44-1.15-.57-2.36-1.01-3.11-2.15-1.73-.14-3.19-.82-4.28-2.21-3.33-.6-5.88-2.74-8.37-4.71-1.89-1.5-1.3-4.11-1.53-6.34-.48-.44-.96-.88-1.43-1.34-2.72-2.7-4.87-5.78-6.55-9.11-.62-.54-1.28-1.06-1.99-1.53-1.89,1.42-2.85.31-3.48-1.36-1.05-2.81-1.26-5.79-1.57-8.74-.7-4.98.39-9.98-.13-14.98-.28-2.68-.35-5.4,1.68-7.65.6-.67.8-1.32.77-1.97-.54-.05-1.07-.31-1.51-.88-3.23-4.23-8.07-.34-10.9,2.42-1.4,1.36-2.81,2.92-4.07,4.63,0,.7-.3,1.44-.84,1.94-.86,2.59-1.29,5.3-1.65,8.02-.02.17-.04.34-.06.5-.07.65-.13,1.31-.2,1.96-.4,2.4-.39,4.8.38,7.1.56,1.7.31,3.34.11,5.01-.41,2.54-.06,5,.77,7.42.37,1.06.81,2.12.76,3.25.74.44,1.26,1.24,1.14,2.22.14.2.22.43.25.7,1.55,4.53,4.15,8.53,6.45,12.68.26.32.52.64.78.97,3.32,3.08,5.81,6.85,8.67,10.32.47.57.57,1.27.51,1.99.23.25.47.51.7.76,2.07,1.47,2.63,3.93,3.88,5.93,1.47,2.36,1.57,4.71.31,7.18-.18.36-.29.75-.39,1.15.41.69.46,1.58-.2,2.42-.06.08-.13.16-.2.24-.01,2.18.58,4.33.43,6.51,3.15,1.11,6.29,1.95,9.41-.09.22-.93.59-1.61,1.76-1.2,6.64,2.32,13.62,3.11,20.47,4.5,2.77.56,5.45,1.73,8.09,2.82,2.81,1.17,5.49,1.62,8.13-.32,3.59-3.04,4.17-5.74,2.21-10.35-.77-1.82-1.55-3.65-2.32-5.47Z"/>
        <path class="cls-4" d="M367.99,160.53c-.15-.93.22-1.65.86-2.3,1.02-1.04.75-2.29.76-3.6.02-2.82-1.94-5.13-1.87-7.85.01-.55-.03-1.06-.12-1.54-.42-.76-.88-1.5-1.4-2.23-1.81-2.55-4.08-4.37-6.48-6.38-1.21-1.01-2.43-2.01-3.65-3-3.11-2.3-6.17-4.67-9.27-7-4.9-1.49-9.77-3.01-14.49-5.04-7.88-3.4-16.18-5.43-24.65-6.83-.98-.16-1.93-.46-2.9-.7-3.12,2.04-6.26,1.19-9.41.09-6.91,2.87-12.8,7.37-18.71,11.81-2.08,2.33-3.38,5.3-6.03,7.15-1.08,1.57-1.17,3.42-1.59,5.2-.37,1.55.61,2.7.78,4.07.24,1.93,2,1.56,3.28,1.97.6.19,1.05.87,1.57,1.32,3.55-.56,6.67-2.4,10.08-3.35.23-.74.85-.69,1.43-.69,1.25-1.44,3.07-1.53,4.71-1.65,7.49-.55,14.85.12,21.88,3.03,4.28,1.14,8.54,2.47,12.94,2.95,6.85.75,12.98,3.42,18.88,6.69,6.88,3.81,13.52,8.02,19.97,12.53,2.12-.83,3.89-1.92,3.45-4.64Z"/>
        <path class="cls-5" d="M202.41,40.23c-1.76,1.33-3.41,3.13-5.42,4.08-2.14,1.02-4.09-.37-4.05-2.68.02-1.14.7-1.77,1.53-1.96.39-2.97,1.02-6.08,2.04-9.02-.23-.58-.54-1.15-.93-1.73,1.23-2.65,3.22-5.14,1.81-8.36-.3,2.03-.92,3.78-2.63,5.21-2.76,2.31-3.53,5.31-2.77,8.92.5,2.35.13,4.87.45,7.27.61,4.66-.34,9.27-.25,14.02,3.35-4.91,6.7-9.7,10.49-14.15.97-1.13,1.86-2.39,2.88-3.48-1.18.56-2.26,1.2-3.14,1.86Z"/>
        <path class="cls-5" d="M193.33,16.61s-.08,0-.12,0c-.61.11-1.21.26-1.82.42-.48.27-.96.55-1.43.85-.65.41-1.33.47-1.94.31-3.52,1.46-6.81,3.61-9.7,6.02-.27.23-.54.46-.8.69-1.34,2-2.35,4.24-2.96,6.74,2.17-1.73,3.74-4.17,6.46-5.27,2.22-.89,4.5-1.71,5.96-3.85.28-.41.98-.74,1.49-.74,2.87-.04,4.89-2.02,7.32-3.06-.06-1.59-1.43-1.64-2.46-2.09Z"/>
        <path class="cls-10" d="M346.81,126.64c-4.9-1.49-9.77-3.01-14.49-5.04-7.88-3.4-16.18-5.43-24.65-6.83-.98-.16-1.93-.46-2.9-.7.22-.93.59-1.61,1.76-1.2,6.64,2.32,13.62,3.11,20.47,4.5,2.77.56,5.45,1.73,8.09,2.82,2.81,1.17,5.49,1.62,8.13-.32,1.89,1.89,2.12,4.66,3.59,6.77Z"/>
        <path class="cls-10" d="M348.92,280.82l.16-1.51c.1-.95.64-1.55,1.32-1.83-.37-.41-.58-1-.5-1.76.02-.21.05-.43.07-.64-.05-.46-.08-.92-.09-1.39-.72-3.02-.31-6.18,1.31-9.28,0-.01.02-.03.02-.04,0-.03,0-.05.01-.08.18-1.4.36-2.81.54-4.21-.59.45-.87,1.09-.97,1.78-.81,6.07-4.42,10.6-8.24,15.02,2.78.9,4.76,2.79,6.47,4.98-.11-.3-.15-.65-.11-1.04Z"/>
        <path class="cls-10" d="M350.4,283.18c-.22-.08-.43-.19-.62-.32.55.8.8,2.09,1.77,2.23.12.02.24.04.36.07-.48-.55-1.02-1.23-1.51-1.97Z"/>
        <path class="cls-10" d="M363.48,197.74c.35-1.01,1.12-1.45,1.93-1.46.05-.23.1-.46.15-.69.04-.2.08-.39.11-.59-.49.14-.98.27-1.47.42-3,.88-5.22-1.41-7.88-1.91-.31,1.14.47,1.87,1.01,2.71,1.49,2.3,3.11,4.51,4.45,6.91.53-1.8,1.09-3.6,1.71-5.38Z"/>
        <path class="cls-10" d="M162.72,47.53c-.22,1.56-1.94,2.85-3.62,1.63-.09-.06-.17-.12-.26-.18-.44.03-.9.03-1.38-.03,1.9,2.43,4.17,4.45,7.15,6.79.05-3.76.08-6.82.12-9.88-.64.62-1.31,1.2-2.01,1.68Z"/>
        <path class="cls-5" d="M171.46,35.6c-1.48,3.67-4.07,6.61-6.39,9.73.58-2.02,1.05-4.08,1.78-6.04.77-2.07,2.15-3.62,4.61-3.69Z"/>
        <path class="cls-10" d="M193.36,16.58s-.02.02-.02.03c1.03.45,2.4.5,2.46,2.09.47.27.94.54,1.4.81.5-1.05,1.14-2.04,1.59-3.2-1.83-.16-3.65-.06-5.44.26Z"/>
        <path class="cls-10" d="M271.52,60.72c.51-.03,1.05.11,1.5.38.05-1.13-.39-2.18-.76-3.25-.83-2.41-1.18-4.88-.77-7.42-.53-.04-1.06-.08-1.6-.12.28,2.85.55,5.7.86,8.54.08.73.36,1.34.77,1.87Z"/>
        <path class="cls-5" d="M213.89,36.26c-.33,0-.66.03-.99.06.02.83-.05,1.83.28,1.99,2.81,1.31,2.25,4.05,2.94,6.26.71-1.71.52-3.5.53-5.28-.99-.95-2.23-1.7-2.76-3.03Z"/>
        <path class="cls-5" d="M174.36,32.42c.04.64-.08,1.21-.74,1.5-.02-.64.26-1.12.74-1.5Z"/>
        <path class="cls-10" d="M360,290.44c-.47-.14-.81-.4-.85-.93.54.07.78.42.85.93Z"/>
        <path class="cls-10" d="M360.8,291.14c-.49,0-.72-.29-.83-.73.28.24.56.48.83.73Z"/>
        <path class="cls-5" d="M173.23,34.49c-.03.22-.15.34-.38.36,0,0,.06-.33.06-.33l.33-.03Z"/>
        <path class="cls-9" d="M141.67,502.04c-.02,2.35-.85,4.32-2.65,5.73-1.46,1.14-1.52,2.4-1.35,4.15.25,2.69.47,5.4.42,8.15-.08,4.81-2.24,8.55-5.15,12.01-3.65,4.35-11.63,5.63-16.48,2.72-1.46-.88-3.06-1.55-4.56-2.29-8.1-3.99-11.95-11.31-15.54-18.91-.12-.26-.3-.55-.28-.81.26-4.5-2.73-7.18-5.46-10.09-1.76-1.87-3.24-3.99-4.56-6.26-1.57-2.71-1.73-5.42-1.25-8.32.58-3.55,3.89-5.4,6.95-3.55,2.31,1.39,4.98,1.24,7.33,2.43,1.69.86,2.9-.11,3.45-2.04,1.74-6,6.47-7.67,11.85-4.63,2.6,1.47,4.87,2.96,5.93,5.85.68,1.84,1.96,1.59,3.51,1.24,4.77-1.08,9.34-.77,13.71,1.84,1.53.91,2.49,2.09,2.91,3.53.88,3.01,1.89,6.07,1.21,9.26Z"/>
        <path class="cls-10" d="M213.91,389.73c.48.06.96.13,1.45.19-.13,1.14.13,2.57-.46,3.35-2.33,3.09-.36,6.06.04,9.01.28,2.02,5.05,4.71,7.12,4.1,1.59-.46,3.05-.67,4.6-.13-.28.69-.7,1.35-1.53,1.18-2.39-.49-4.43.78-6.58,1.31-1.93.47-3.62,1.73-3.83,4.03-.12,1.34-.92,2.35-1.39,3.52-3.23-3.34-4.03-6.93-2.53-11.57,1.57-4.83,2.12-9.99,3.11-15Z"/>
        <path class="cls-10" d="M213.75,418.51c.44.15,1.04.25.29.82-.1-.27-.19-.55-.29-.82Z"/>
        <path class="cls-12" d="M165.79,209.08c3.43-2.07,4.2-1.97,6.15,1.03,1,1.54,2.24,3.06,2.74,4.78,1.26,4.32,4.54,4.92,8.24,5.04,1.27.9,1.3,3.25,3.15,3.28,4.07.07,7.91,1.8,11.84,1.89,7.43.16,14.85.61,22.27.84,2.17.07,4.3.01,6.4-.55.44,1.04,1.31,1.4,2.36,1.51,1.55.16,3.1.49,4.64.47,2.64-.02,4.62.92,5.81,3.34-1.33,1.05-2.89,1.18-4.48,1.11-10.88-.46-21.79.16-32.66-.84-5.09-.47-10,.7-14.94,1.43-2.71.4-4.68-.25-6.68-1.96-2.22-1.89-4.07-4.04-5.62-6.47-2.16-3.39-4.21-6.86-6.89-9.88-1.3-1.46-1.72-3.27-2.33-5.02Z"/>
        <path class="cls-10" d="M250.61,215.53c.15-1.57.19-3.14,1.17-4.52,1.78-2.49,2.31-5.55,3.68-8.23.45.04.91.09,1.36.13-1.4,8.88-3.3,17.65-5.37,26.39-.21-.04-.42-.07-.64-.09-.12-2.47-.23-4.94-.35-7.41.34-1.24.54-2.54,1.06-3.69.59-1.29-.36-1.81-.91-2.58Z"/>
        <path class="cls-10" d="M243.6,260.73c-.47-.07-.94-.14-1.41-.22.23-4.69,2.09-9.08,2.49-13.78.18-2.19,2.33-3.77,3.77-5.5-1.62,6.5-3.23,13-4.85,19.5Z"/>
        <path class="cls-12" d="M250.46,221.81c.12,2.47.23,4.94.35,7.41-.13,1.02-.26,2.05-.4,3.07.11.2.11.4,0,.59-1.28.67-.86,2.39-1.95,3.2-.58-2.52.37-9.28,2.01-14.27Z"/>
        <path class="cls-12" d="M137.55,231.63c.23-.17.55-.3.67-.53,2.15-4.24,6.25-4.94,10.3-5.72,0,0-.07.36-.07.36-.45.33-.86.87-1.35.96-2.99.56-5.21,1.95-6.56,4.85-.65,1.39-1.93,2.29-2.98.09Z"/>
        <path class="cls-12" d="M240.3,262.06q-.56,4.68-4,5.43c1.33-1.81,2.67-3.62,4-5.43Z"/>
        <path class="cls-10" d="M302.05,420.44c-1.39.6-2.15-.33-2.88-1.23-1.46-1.78-2.89-3.59-4.34-5.37-3.41-4.2-6.01-5-11.15-3.24-1.17.4-2.26.19-3.4.19,3.4-2.31,6.81-4.62,10.6-7.2,2.74,6.47,7.05,11.6,11.17,16.86Z"/>
        <path class="cls-10" d="M243.91,400.75c-3.96-.94-7.84.04-11.75.46,2.03-3.94,5.17-7.06,7.66-11.31,1.93,3.89,3.1,7.34,4.09,10.85Z"/>
        <path class="cls-10" d="M326.41,286.84c-.51,1.9-1.27,3.78-1.46,5.71-.35,3.58-2.58,4.59-5.65,4.79.42-2.43,1.49-4.4,3.45-6.05,1.45-1.21,2.45-2.95,3.66-4.45Z"/>
        <path class="cls-10" d="M259.01,171.5c1.25.49,2.97.37,3.05,2.37-1.32,1.48-2.64,2.95-3.97,4.43-.21-.66-.33-1.37-.65-1.99-1.11-2.16-.61-3.75,1.56-4.81Z"/>
        <path class="cls-10" d="M316.56,328.35c.84,2.33,2.3,4.46,2.18,7.08-1.77-1.41-1.87-3.77-3.11-5.5-.44-.6.11-1.34.93-1.59Z"/>
        <path class="cls-10" d="M256.82,202.91c-.45-.04-.91-.09-1.36-.13,1.42-3.5,1.23-7.33,2.26-10.91.84,3.77-.5,7.37-.9,11.04Z"/>
        <path class="cls-10" d="M316.09,303.07c.15,2.09-.4,4.11-.7,6.15-.21-.07-.42-.07-.62,0-.29-2.21-1.95-4.71,1.33-6.15Z"/>
        <path class="cls-11" d="M314.76,309.22c.21-.07.41-.08.62,0,1,1.85,1.89,3.74,1.93,5.9-1.82-1.55-2.12-3.75-2.55-5.9Z"/>
        <path class="cls-10" d="M318.6,317.42c.44.81,2.07,1.74-.24,2.26-.26-.77-.65-1.53-.36-2.38.2.04.4.08.6.12Z"/>
        <path class="cls-10" d="M304.38,422.81c-1.37-.16-2.59-.49-2.34-2.3,1.19.35,1.84,1.25,2.34,2.3Z"/>
        <path class="cls-11" d="M318.6,317.42c-.2-.04-.4-.08-.6-.12-.5-.64-.7-1.38-.71-2.18.74.59,1.39,1.24,1.31,2.3Z"/>
        <path class="cls-10" d="M250.41,232.29c.13-1.02.26-2.05.4-3.07.21.02.43.05.64.09.07,1.14-.26,2.14-1.03,2.99Z"/>
        <path class="cls-10" d="M327.23,285.76c-.15.49-.14,1.1-.88,1.14-.16-.73.23-1.04.88-1.14Z"/>
        <path class="cls-9" d="M181.37,147.5c.3-.65.66-1.28.16-2.01-1.73-2.48-.68-4.72.82-6.73,3.43-4.6,6.9-8.96,12.47-11.53,3.76-1.73,7.2-4.09,11.37-4.88,2.2-.42,4.28-.5,6.08,1.13,1.42,1.28,3.26.93,4.93,1.22,4.05.71,8.15.61,12.06,2.72,3.67,1.98,5.91,5.39,9.31,7.54,1.65,1.04,1.29,3.14.66,4.78-.6,1.58-2.25,2.02-3.62,1.68-6.64-1.67-12.74.73-18.98,2.19-1.39.33-2.83.43-4.25.68-2.23.39-4.62.4-5.5,3.25-.31,1.01-1.56,1.2-2.5,1.54-5.14,1.85-10.14,4.08-15.46,5.42-1.63.41-3.11,1.4-4.74-.29-2.4-2.49-3.26-4.2-2.83-6.72Z"/>
        <path class="cls-9" d="M102.43,119.48c2.22,1.03,5.22.64,8.15.96,4.54.49,7.94,3.29,10.28,7.07,3.15,5.09,4.16,10.91,4.86,16.76.26,2.14-.99,3.6-2.78,4.44-2.23,1.05-4.53.86-6.46-.71-2.21-1.8-4.3-3.77-6.38-5.73-2.55-2.4-5.85-3.59-8.79-5.32-2.35-1.38-4.65-2.83-6.97-4.26-1.51-.93-2.72-2.17-3.24-3.89-1.41-4.66-.57-6.37,3.96-8.29,1.83-.78,4.91-1.28,7.36-1.05Z"/>
        <path class="cls-6" d="M116.67,195.13c-1.21,2.15-1.54,4.59-2.24,6.91-2.12,7.01-7.88,9.01-14.13,5.3-6.7-3.99-10.02-9.6-9.82-17.43.07-2.57-.52-5.14-.63-7.72-.11-2.59-.04-5.19,1.06-7.63.91-2,2.36-2.73,4.05-1.59,2.26,1.52,4.42,3.27,4.48,6.45.03,1.72.29,3.44.4,5.16.1,1.46.12,2.9,1.9,3.47,1.25.41,1.13,1.5,1.04,2.52-.07.86-.47,1.86-.17,2.55.66,1.51.91,3.77,2.86,3.95,1.54.15,2.01-1.82,2.65-3.03,2.16-4.07,2.24-4.13,7.35-1.78,0,0-.03-.09-.03-.09.23.28.46.57.69.85.18.7.36,1.4.54,2.11Z"/>
        <path class="cls-10" d="M275.47,111.96c-.02,1.64,1.23,1.55,2.35,1.89,2.99.91,3.46,2.18,2.29,5.11-.76,1.92-1.81,3.58-3.41,4.89-.81.66-.95,1.4-.04,2.12-2.08,2.33-3.38,5.3-6.03,7.15-1.4-1.25-3.19-2.11-3.97-3.98-.82-.92-.73-1.71.18-2.57,2.28-2.14,2.93-4.49,1.68-7.64-1.65-4.16,1.87-7.52,6.95-6.96Z"/>
        <path class="cls-10" d="M286.14,141.66c1.25-1.48,3.09-1.56,4.74-1.68,7.49-.55,14.85.12,21.88,3.03-1.39.75-2.9.42-4.21.06-6.27-1.72-12.59-1.77-18.99-1.14-1.12.11-2.28-.17-3.43-.27Z"/>
        <path class="cls-10" d="M284.74,142.32c.24-.76.87-.68,1.47-.69-.27.69-.86.71-1.47.69Z"/>
        <path class="cls-6" d="M231.37,199.18c-.99,3.59-1.93,7.65-3.24,11.58-1.34,4.03-4.89,6.33-8.52,7.3-7.01,1.85-13.98,1.98-20.7-2.23-7.01-4.39-9.07-15.65-6.12-20.95.49-.87.94-1.79,1.58-2.55,1.18-1.4,2.77-1.48,4.34-.86,1.47.59,2.28,1.73,1.94,3.41-.33,1.62.08,3.15.53,4.66,1.39,4.67,3.19,5.84,8.14,5.36.14-.01.29,0,.43-.04,1.63-.38,3.46.84,4.94-.65,1.57-1.59,2.34-3.56,2.88-5.69.61-2.37,1.21-4.72,1.43-7.17.17-1.87.64-3.67,1.46-5.38,1.53-3.22,5.17-3.79,7.63-1.12,1.7,1.85,2.76,4.09,3.04,6.55.27,2.41.17,4.86.25,7.76Z"/>
      </g>
    </g>
    <g>
      <path d="M159.89,45.21c1.3-2.73,2.32-5.1,3.53-7.37,7.69-14.48,19.72-22.91,35.85-25.56,3.75-.62,7.44.13,11.08.95,2.06.47,2.47,2.03.9,3.42-.95.84-2.17,1.43-3.34,1.95-1.48.65-3.01,1.32-3.76,2.77-2.58,4.96-5.4,9.84-6.71,15.35-.19.82-.1,1.7-.14,2.72,1.94.29,2.94-1.1,4.11-1.98,5.32-4.01,14.98-4.31,20.33-.56,1.99,1.39,2.1,1.69.06,3.23-1.69,1.28-1.73,2.86-1.5,4.61.34,2.57.59,5.14.63,7.74.06,4.71-.98,9.1-3.77,13.47,5.15,1.69,9.99,2.98,14.45,5.32,13.22,6.94,25.83,14.67,35.27,26.58,2.52,3.19,5.88,4.42,9.69,5,2.76.42,2.75.49,2.12,3.21-.85,3.67-.51,4.14,3.18,5.39,6.72,2.27,11.22-2.26,10.65-8.17-.21-2.2-.55-4.3-1.7-6.18-.97-1.59-1.93-3.26-3.23-4.58-6.67-6.77-11.04-15.09-15.56-23.26-3.67-6.64-4.87-14.03-5.56-21.58-.67-7.38.38-14.32,3.41-21.04,2.49-5.5,6.22-9.53,12.18-11.34,2.2-.67,4.3-1.63,6.6-1.98,4.24-.65,6.37,1.5,5.52,5.68-.14.7-.42,1.38-.73,2.02-4.72,9.78-3.24,19.44,1.03,28.79,5.24,11.45,13.64,20.12,24.43,26.62,7.13,4.31,14.6,8.1,20.94,13.69,10.11,8.93,12.63,20.14,10.34,32.87-.68,3.76-.86,4.06,2.47,5.85,5.31,2.86,9.5,7.11,13.47,11.39,5.53,5.97,5.78,13.62,4.58,21.21-.39,2.48-.44,5.18-1.94,7.45-.59.89-.42,1.92.09,2.89,3.89,7.5,3.18,15.3,1.51,23.17-.51,2.42-1.23,4.77-2.6,6.82-2.39,3.6-3.34,7.68-3.83,11.82-1.4,11.9-4.77,23.43-6.32,35.3-1.05,8.01-2.76,15.89-4.14,23.83-.91,5.21-.14,10.53,5.43,13.88,4.19,2.52,7.48,6.32,10.85,9.85,2.21,2.32,3.23,5.57,3.55,8.68,1.09,10.56.78,21.01-3.83,30.89-5.37,11.51-14.28,19.01-26.32,22.67-2.65.81-3.33,2.46-3.79,4.58-1.29,5.91-2.5,11.83-3.74,17.75-.91,4.37-2.02,8.69-3.72,12.84-1.93,4.71-2.45,9.78-3.23,14.73-1.08,6.81-2.82,13.49-3.57,20.38-.37,3.41-2.26,6.5-4.23,9.38-11.37,16.67-23.23,32.99-35.36,49.11-9.61,12.76-19.12,25.64-29.91,37.47-1.26,1.38-2.56,2.77-4.04,3.9-4.27,3.26-9.68,1.83-11.66-3.16-1.81-4.55-3.56-9.14-4.97-13.82-2.77-9.24-5.26-18.57-7.92-27.84-2.32-8.08-2.49-8.12-8.32-2.56-1.58,1.51-3.22,2.79-5.31,3.57-4.74,1.77-8.15,4.86-10.69,9.45-4.9,8.84-11.14,16.81-18.05,24.19-4.34,4.63-7.96,9.87-12.47,14.35-4.81,4.78-9.64,9.64-15.24,13.38-14.12,9.45-29.05,12.4-45.4,5.25-9.07-3.96-16.85-9.24-23.35-16.63-3.38-3.84-5.86-8.22-8.15-12.7-4.27-8.34-8.43-16.75-10.46-25.99-1.45-6.61-.41-13.18.62-19.73.32-2.06,1.52-3.72,2.82-5.29,3.24-3.91,6.79-7.51,11.42-9.77,4.23-2.06,7.77-5.58,12.8-5.93.93-.06,1.54-.73,1.75-1.68.61-2.82,1.19-5.64,1.84-8.45.41-1.77-.48-2.39-2.03-2.45-1-.04-2.05-.14-3.01.06-4.95,1.05-10,1.22-15.01,1.68-8.57.79-16.18-1.81-22.89-7.11-2.37-1.87-4.79-3.71-6.83-5.97-.47-.52-1.03-1.33-1.74-1.07-2.87,1.04-3.42-1.18-4.35-2.92-3.08-5.75-5.07-11.9-6.66-18.19-1.64-.08-2.31,1.22-3.31,1.92-2.04,1.43-2.99,1.34-4.12-.74-2.21-4.11-2.91-8.42-1.25-12.91,1.15-3.11,2.66-6.05,4.29-8.95,1.62-2.89,1.39-3.21-1.79-3.55-.7-.08-1.43-.18-2.09-.41-5.03-1.79-5.68-4.38-1.87-8.12,7.58-7.44,13.12-16.37,18.78-25.23.38-3.99,3.6-5.91,6.05-8.43,1.39-1.43,2.88-2.83,3.91-4.85-1.96-1.43-4.02-1.67-6.35-1.16-3.35.73-6.72,1.18-9.93,2.69-3.75,1.76-7.15-.41-9.92-2.56-1.94-1.51-3.74-2.46-6.11-2.66-1.57-.13-3.13-.48-4.7-.67-1.36-.17-2.56-.71-3.36-1.76-2.01-2.63-3.79-5.42-5.17-8.44-.31-.68-.46-1.48-.1-2.1,1.61-2.73.79-5.25.17-8.17-1.15-5.41,1.08-10.12,5.39-13.64,2.12-1.73,4.45-3.18,6.66-4.8,1.04-.77,2.28-1.51,2.65-2.78.98-3.36,3.58-4.29,6.56-4.64,1.74-.2,3.03-.89,3.69-2.54.93-2.33,2.78-2.54,4.96-2.42,6.38.37,12.54-1.53,18.86-1.9,1-.06,1.57-.64,1.35-1.73-.2-.99-.28-2.03-.65-2.94-.6-1.45-.13-2.5.87-3.49,1.54-1.51,2.92-3.24,4.65-4.49,2.07-1.49,2.16-2.93,1.2-5.15-1.42-3.3-1.13-3.86,1.66-6.3.98-.85,2.02-1.63,3.04-2.43,2.48-1.97,2.44-1.93.66-4.27-2.67-3.53-5.85-6.14-10.32-7.3-3.91-1.01-7.32-3.37-10.78-5.41-4.13-2.43-4.77-5.02-2.9-9.52.17-.4.29-.83.53-1.18,1.46-2.13,1.19-3.81-.77-5.64-3.52-3.29-5.87-7.43-7.65-11.91-1.82-4.6-1.17-8.42,3.04-10.87,4.74-2.76,6.62-6.04,5.29-11.5-.63-2.59-.02-5.47.62-8.14.97-4.01,2.63-4.96,6.59-4,.42.1.84.21,1.25.33,3.9,1.11,6.88-.83,6.87-4.93-.03-7.19.08-14.37.51-21.54.11-1.91-.73-2.97-2.47-3.5-1.53-.46-3.02-.98-4.12-2.23-1.18-1.34-2.36-2.86-1.74-4.64.91-2.62-.27-4.44-1.73-6.26-5.02-6.27-8.2-13.56-11.16-20.9-2.53-6.29-2.25-12.51,1.02-18.75,3.83-7.3,9.6-12.6,16.27-16.97,7.97-5.21,16.7-9,25.45-12.78,5.71-2.47,10.72-6.22,14.04-11.73,1.42-2.35,2.44-4.87,2.66-7.69.37-4.58,1.26-9.1,1.01-13.76-.22-4.04-1.48-7.59-3.56-10.94-1.14-1.82-2.71-3.59-.99-5.81,1.16-1.48,4.36-1.76,6.85-.27,4.07,2.43,8.07,5.01,11.44,8.44,9.03,9.22,10.21,20.27,7.26,32.12-2.31,9.29-6.86,17.26-14.29,23.62-4.48,3.84-8.76,7.92-13.19,11.83-.32.29-.71.52-.98.85-.95,1.17-2.75,1.97-2.15,3.87.36,1.14,4.53,1.98,6,1.34.39-.17.75-.43,1.08-.71,8.24-7.11,17.76-12.28,26.96-17.94,4.9-3.01,5.03-3.44,3.79-9.11-1.57-7.21-1.46-14.6-2.31-21.88-.23-2.01-.61-3.96-.93-5.94-.43-2.73.73-3.98,3.01-2.84,3.23,1.61,6.72,1.56,10.06,2.15,5.69,1.01,10.71,3.21,15.45,6.33.47.31.99.54,1.88,1.01ZM244.35,376.58h-.02c-.45,3.24.04,6.5-.12,9.73-.16,3.21.46,5.79,2.15,8.79,3.63,6.43,8.59,11.52,13.75,16.54,1.35,1.32,2.93,2.43,4.88,2.59,3.76.29,7.59.35,10.96-1.61,5.45-3.16,11.26-5.86,14.99-11.36,1.39-2.05,2.47-1.89,3.75.44,1.94,3.54,3.82,7.11,5.5,10.78,2.24,4.91,5.92,8.5,10.24,11.45,4.46,3.05,6.92,2.06,8.62-3.14.18-.55.3-1.11.46-1.67,4.05-13.7,5.65-27.94,9.39-41.71,2.42-8.91,3.67-18.06,5.58-27.08.92-4.35,1.07-4.42-3.54-4.87-3.39-.34-6.59-1.15-9.13-3.47-3.56-3.25-6.25-7.08-7.55-11.86-1.01-3.71-1.05-7.11,1.56-10.18.94-1.1,1.15-2.16.42-3.52-3.17-5.94-2.79-11.78.43-17.64,1.12-2.03,2.01-4.15,3.91-5.6,1.46-1.12,2.05-2.58,2.37-4.4.68-3.89,2.73-6.9,6.42-8.68,1.94-.94,3.85-1.99,5.64-3.19,2.35-1.57,4.91-2.61,7.67-2.48,2.38.12,3.08-1.22,3.44-2.99.41-1.97.61-3.99.86-5.99.52-4.29.88-8.61,1.98-12.81,3.9-14.93,6.27-30.17,9.18-45.3.68-3.54,1.16-7.54-1.52-10.79-4.42-5.35-9.04-10.48-15.79-13.03-.67-.25-1.5-.4-1.95-.89-3-3.23-7.21-4.04-11.01-5.69-2.8-1.22-5.86-1.49-8.69-2.56-8.49-3.21-17.33-4.16-26.33-4.09-5.22.04-5.22,0-7.58,4.36-1.09-3.75-1.1-3.79-4.71-2.97-4.65,1.07-9.07,2.82-13.39,4.82-1.22.56-2.1,1.3-2.42,2.77-1.5,6.89-3.74,13.59-4.87,20.58-2.08,12.79-5.48,25.32-8.1,38-2.42,11.69-4.37,23.48-6.59,35.22-2.25,11.88-5.46,23.55-7.59,35.47-2.01,11.28-5.98,22.15-7.52,33.56-.6,4.42-1.64,8.78-2.58,13.14-1.95,9-4.03,17.98-5.96,26.99-1.3,6.06-3.07,11.99-4.94,17.89-.9,2.84.43,4.52,3.37,4.38,4.26-.21,8.27-1.16,11.08-4.85,1.22-1.6,2.51-3.18,3.95-4.58,2.92-2.83,4.41-6.32,5.16-10.23.4-2.12,1.25-4.23,1.23-6.34-.03-2.65,1.34-2.27,2.95-1.95ZM213.14,61.86c2.39-.47,2.68-2.36,2.97-4.22.87-5.63.09-11.18-.84-16.73-.27-1.65-1.1-2.22-2.61-2.16-4.98.2-9.45,1.47-12.09,6.17-2.25,4.02-4.51,8.04-5.66,12.56-.32,1.25-.68,2.51-1.2,3.69-.51,1.17-1.52.89-1.98.07-.55-.97-.88-2.15-.98-3.26-.25-3.01-.51-6.04-.43-9.05.25-9.08.54-18.18,5.81-26.18.97-1.47.41-2.32-1.37-2.41-1.34-.07-2.53.45-3.76.88-2.75.98-5.06,2.75-7.57,4.15-7.6,4.23-12.15,10.87-14.51,19.03-1.24,4.28-.95,8.54,1.87,12.36.9,1.21,2.08,2.45,1.45,4.26-3.01.45-5.17-.77-7.27-2.86-3.46-3.46-7.11-6.76-11.11-9.59-3.81-2.7-7.87-4.79-12.75-4.65-3.08.09-4.24.87-4.86,3.8-.26,1.24-.2,2.57-.16,3.86.19,5.54,2,10.72,3.39,16.02,1.28,4.89,3.39,8.62,8.68,10.2,2.76.83,5.19,2.77,6.97,6.66-7.11-4.06-13.52-5.62-20.22-1.5,1.11,2.38,2.91,2.66,4.6,2.67,6.88.07,10.1,6.85,16.04,8.61.12.03.19.21.28.32,2.99,3.74,4.72,4.07,8.37,1.4,2.44-1.79,4.73-3.77,6.87-5.93.74-.75,1.39-1.97,2.96-1.4.62,1.99-.24,3.55-1.54,5-1.63,1.83-3.4,3.55-4.85,5.52-2.25,3.06-5.4,4.71-8.73,6.1-2.58,1.08-3.7.62-4.64-2.02-.7-1.96-1.76-3.48-3.19-5.01-5.93-6.32-13.65-8.78-21.76-10.47-1-.21-2.09-.12-2.36-1.41-.24-1.19.57-1.87,1.38-2.49,1.95-1.47,3.94-2.89,5.89-4.36,1.2-.9,1.89-1.99.89-3.98-17.71,11.54-34.16,24.18-48.09,39.81-1.09-1.01-.81-1.71-.47-2.32.69-1.26,1.4-2.52,2.22-3.7,2.4-3.42,4.86-6.79,7.28-10.19.58-.81,1.33-1.76-.11-2.47-1.53-.76-4.29-.12-4.45,1.31-.36,3.34-2.85,3.57-5.16,4.26-.69.21-1.39.42-2.03.75-2.41,1.23-2.73,2.71-.9,4.87.64.76.93,1.39.55,2.29-1.42,3.29-7.94,7.17-11.67,6.94-2.74-.17-3.34.22-3.88,2.66-.47,2.15-.25,4.3.18,6.44.31,1.52.98,2.99.65,5.04-3.01-.53-5.13,1.08-6.9,3.31-1.58,2-1.39,3.88.45,5.21,2.21,1.6,5,1.25,6.25-.77.78-1.25,1.18-2.86,3.2-3.55.59,4.07-.77,7.66-.94,11.32-.04.86-.7.96-1.52,1.04-2.85.28-2.9.37-1.98,2.83.49,1.31.8,2.77,2.03,3.72.79-3.15.92-3.39,3.21-2.16,4.17,2.24,7.57,1.38,11.02-1.58,2.38-2.05,5.1-3.77,8.36-4.32,4.33-.72,8.78,1.8,9.84,5.74-2.21-.83-3.77-2.77-6.11-3.2-1.16-.21-2.54-.4-3,.93-.43,1.24.92,1.66,1.77,2.06,3.42,1.63,6.45,3.72,8.95,6.63,3.21,3.74,5.84,7.85,8.18,12.17,4.71,8.71,6.87,17.96,6.05,27.87-.23,2.78-.96,5.36-2.44,7.75-2.39,3.86-5.03,5.11-9.4,4.13-1.01-.23-1.97-.27-2.97-.32-4.97-.22-8.65-2.42-11.28-6.75-3.59-5.89-4.81-12.44-4.85-19.04-.04-6.93-.67-14.24,4.13-20.29.9-1.14.51-2.12-.45-3.02-2.19-2.07-4.33-1.94-6.21.57-.86,1.14-1.49,2.46-2.15,3.73-3.77,7.33-3.77,15.29-3.78,23.23,0,5.51.66,10.9,2.98,16,.89,1.95,2.21,3.15,4.11,4.15,5.01,2.64,10.53,3.86,15.75,5.9,2.92,1.14,5.93.96,8.72-.8.61-.39,1.23-1.46,2.18-.45-1.74,4.35-5.45,6.46-9.31,5.05-6.63-2.41-13.17-5.08-19.81-7.45-3.05-1.08-5.95-1.93-5.17-6.15.09-.48-.35-1.08-.58-1.61-1.06-2.41-1.42-4.96-1.73-7.55-1.17-9.87-.92-19.82-1.82-29.7-.04-.42-.11-.94.08-1.27,1.64-2.91-.37-4.03-2.53-5.49-.77,2.2-1.06,4.14-1.31,6.11-.84,6.45-.65,12.94-.73,19.41-.01,1.29.04,2.32-1.42,2.63-1.44.31-1.64-1.02-1.95-1.82-1.49-3.87-4.7-5.71-8.22-7.13-3.71-1.49-5.02-.51-4.85,3.6.06,1.57.38,3.14.59,4.71.22,1.71.52,3.42.66,5.13.22,2.84-.6,5.06-3.58,6.14-1.34.48-2.56,1.32-3.78,2.08-2.29,1.43-3.23,3.29-2.74,6.17.57,3.37,2.15,5.91,4.69,7.97,2.91,2.36,5.89,4.63,9.16,6.49,1.54.87,1.75,1.98.14,2.89-1.84,1.04-3.07,2.63-4.17,4.3-1.52,2.33-.99,4.1,1.49,5.26.9.42,1.91.64,2.9.81,3.57.63,4,.22,3.58-3.33-.08-.71-.21-1.41.35-2,.26.08.65.07.77.25.57.83,1.14,1.66,1.56,2.57,4.3,9.25,11.07,16.43,18.91,22.72.56.45,1.13.89,1.69,1.35.36.3.48.69.33,1.13-.16.47-.59.67-1.02.63-1.72-.15-3.38-.66-5.06-.97-2.85-.52-5.47.54-7.32,2.79-1.32,1.61-.61,3.6,1.82,6.39.17.2.22.5.47,1.1-2.52,1.47-5.46,2.37-7.71,4.4-2.24,2.02-2.74,3.63-1.58,5.58,1.27,2.12,3.56,3.09,5.93,2.21,2.15-.8,4.2-1.88,6.26-2.92.61-.31,1.61-1.04,1.53-1.35-.71-2.85-.33-5.54.58-8.28.16-.49-.97-1.34-1.33-2.11-.87-1.85-.39-2.59,1.73-2.73.71-.05,1.43.08,2.14.16,3.72.4,7.44.89,11.16,1.19,1.39.11,3.39.84,3.23-1.98-.04-.74.83-1.04,1.61-1.11,4.13-.38,9.35,3.71,10.58,8.42-2.47.13-3.33-1.95-4.73-3.25-.98-.9-1.76-2.92-3.36-1.79-1.45,1.02.37,2.22.66,3.36.05.2-.17.48-.3.78-1.31.07-2.46-.58-3.68-.95-2.47-.75-4.9-1.71-7.49-2-1.12-.13-2.57-.62-3.13.66-.67,1.53,1.37,1.51,1.89,2.44.11.2.07.49.11.8-.42.08-.83.17-1.25.23-1.56.19-2.78.88-3.21,2.47-.43,1.58,1.05,2.2,1.78,3.21,1.26,1.73,3.51,1.2,5.35,1.83-1.34,1.15-2.28,2.02-3.29,2.82-1.03.82-1.9,1.78-2.54,2.92-.79,1.41-1.4,2.81,1.28,2.61,1.01-.07,1.17.71.99,1.45-.17.68-.59,1.31-.87,1.96-2.27,5.22-1.4,6.68,4.39,7,2.86.16,5.63.72,8.48,1.27-.07.62-.02,1.07-.18,1.43-.23.52-.69.94-.92,1.45-.44,1-.55,2.3.55,2.65,4.33,1.39,6.13,4.13,5.34,8.64-.08.45.45,1.02.73,1.52.44.8.49,1.65.4,2.52-.09.8.21,1.93-1,2.02-.84.07-.97-.79-1.2-1.5-.7-2.19-1.68-4.28-3.18-6.03-2.12-2.48-3.82-2.49-6.14-.19-1.96,1.94-3.55,4.16-4.94,6.53-4.79,8.17-7.19,17.25-9.71,26.26-1.48,5.28-2.18,10.69-1.92,16.24.16,3.51-.97,6.85-2.11,10.52-2.11-1.7-2.45-3.57-2.52-5.65-.26-8.25.55-16.4,2.09-24.5.34-1.78.79-3.6-.1-5.34-2.01.04-3.08,1.32-4.28,2.28-2.37,1.88-4.58,3.97-7,5.78-4.77,3.57-9.51,7.11-10.92,13.41-.06.26-.32.48-.45.73-3.12,6.06-7.73,11.08-11.65,16.59-1.09,1.54-2.64,2.62-4.08,3.82-1.21,1-3.68,1.5-2.96,3.67.73,2.2,2.87,1.17,4.52,1.12,3.6-.09,4.06.65,2.34,4.01-2.23,4.36-4.65,8.62-6.32,13.25-.49,1.37-.87,2.75-.99,4.19-.1,1.2.14,2.44,1.24,3.02,1.29.68,2.5.18,3.46-.9,1.1-1.24,2.21-2.47,4.22-2.99-.1.89-.2,1.45-.21,2.01-.02,6.42,1.02,12.65,4.09,18.35,1.5,2.79,2.14,2.71,4.53.4,2.49,2.58,4.92,5.21,7.47,7.74,3.54,3.51,7.61,6.1,12.52,7.33,9.5,2.37,18.3.25,26.6-4.31,3.13-1.72,6.27-3.55,9.02-5.91,1.41-1.21,1.86-2.51.77-4.14-.72-1.08-1.35-2.22-2.14-3.24-2.93-3.75-5.95-7.42-8.86-11.18-1.32-1.7-2.48-3.53-3.68-5.32-.32-.48-.5-1.09.05-1.55.78-.66,1.3-.1,1.77.48.55.67,1.05,1.38,1.62,2.02,4.96,5.57,10.78,9.89,17.74,12.7,2.65,1.07,4.63.54,6.65-1.34,2.42-2.26,4.99-4.36,7.63-6.37,1.27-.97,2.74-2.18,4.86-.58-1.64,1.9-3.24,3.72-4.81,5.57-6.14,7.27-11.95,14.76-15.97,23.48-2.42,5.27-4.21,10.65-3.97,16.39.31.25.4.38.52.41.28.06.57.08.86.09,10.28.27,17.84,5.55,23.99,13.25,1.18,1.48,2.26,2.17,3.97,1.04,2.81-1.87,5.6-1.05,8.18.34,4.06,2.19,7.93,4.72,11.17,8.07,2.83,2.92,5.82,5.97,6.49,10.04,1.14,6.97,1.4,14.05-.15,21.05-.19.87-.25,2-1.73,2.19,0-.76-.02-1.47-.01-2.17.05-7.71-2.54-14.72-5.95-21.46-2.58-5.11-7.2-8.14-11.9-10.99-.7-.42-1.65-.65-2.47-.62-4.34.16-8.64.52-12.36,3.17-.85.6-1.7,1.72-3.11.78-.26-1.74.48-3.33.94-4.98.51-1.82.94-3.72-.29-5.42-2.68-3.71-5.94-6.65-10.57-7.71-1.68-.39-3.38-.73-5.05-1.19-5.48-1.51-11.99,1.3-14.67,6.23-1.08,1.98-1.66,4.25-3.18,6.04-3.33-3.54-3.73-3.56-8.06-1.3-3.92,2.05-6.44,5.2-7.89,9.33-2.02,5.76-2.14,11.46,0,17.24,3.67,9.9,7.96,19.52,13.76,28.33,4.61,6.99,9.99,13.46,17.62,17.5,3.18,1.68,6.36,3.46,9.74,4.63,10.63,3.67,20.96,4.39,30.88-2.69,8.94-6.38,17.81-12.81,25.08-21.09,7.03-8.01,13.64-16.39,20.55-24.5,5.25-6.15,8.7-13.19,10.98-20.87.12-.41.2-.84.35-1.25,1.13-3.03,2.94-3.83,6.69-2.97.18,1.88-2.72,2.8-1.53,5.14.54-.17,1.11-.25,1.58-.51,3.85-2.08,6.4-5.74,9.89-8.28.98-.71.62-1.79.39-2.79-1.24-5.33-2.43-10.67-3.68-16-2.59-11.09-5.98-21.96-9.08-32.91-.95-3.35-1.42-6.72-1.37-10.23.13-8.02,2.67-15.59,4.53-23.22,2.42-9.93,3.92-20.04,6.52-29.92.34-1.28.47-2.57.03-3.84-1.68-4.76-3.58-9.43-6.15-13.8-.57-.97-1.06-1.3-2.38-.86-2.78.94-3.22.68-4.08-1.99-1.34-4.15-1.94-8.42-1.44-12.79.19-1.67.55-3.33,2.11-4.34,1,.72,1.12,1.58,1.11,2.44-.02,2.02-.12,4.03-.19,6.05-.04,1.09.33,2.52,1.34,2.31,2.9-.59,3.65,1.7,4.98,3.21,1.44,1.64,3.03,3.08,4.88,4.24,3.3,2.08,4.02,1.87,5.01-1.78,2.91-10.7,5.23-21.53,6.54-32.56.33-2.82.29-2.82-2.55-3.24-3.55-.52-3.58-.53-4.88,2.71-.46,1.13-1.08,2.05-2.29,2.39-4.02,1.14-8.09,2.14-12.29,2.27-.91.03-2.08.2-2.67-1.16,2.49-1.15,5.37-.87,7.77-2.23,4.56-2.58,5.8-2.33,3.71-8.2-.07-.2.17-.51.33-.94,2.81.06,5.68.16,8.55.17,5.1.02,7.02-1.6,7.76-6.72.35-2.43.78-4.82,1.39-7.19,1.62-6.3,1.47-6.43-4.86-5.56-1.99.27-4.16,1.08-5.91-.12-2.67-1.83-4.9-.79-7.27.4-1.28.64-2.79,1.92-3.97,1.31-2.19-1.12-3.19.09-4.42,1.32-.4.4-.83.82-1.33,1.06-.33.15-.86.09-1.2-.08-.43-.22-.4-.77-.22-1.15.62-1.3,1.29-2.58,2.41-3.55.7-.6,1.54-1.09,2.3-.38,1.54,1.46,2.88.67,4.29-.13,1.75-1,3.54-1.92,5.28-2.94,1.47-.86,3.55-1.48,4.45-.39,1.96,2.4,3.43.9,5.12.07,1.17-.57,2.25-1.38,3.48-1.73,4.02-1.17,5.46-4.25,6.51-7.89,3.48-12.05,5.93-24.32,8.13-36.64,2.38-13.32,5.18-26.56,8.03-39.79.45-2.11.55-3.97-.6-5.79-1.22-1.95-1.34-4.03-1-6.24.36-2.43,1.07-4.79,1.46-7.19,1.03-6.33,3.45-12.54,1.81-19.14-.23-.93-.54-2.15.64-2.69,1.24-.56,2.21.05,2.85,1.21.26.47.48,1.04,1.28,1.11,1.91-1.67,2.4-3.59,1.18-6.03-1.37-2.74-1.64-5.79-2.25-8.76-.42-2.05.15-3,2.21-3.2.55-.05,1.07-.42,1.62-.56,2.05-.51,2.75-1.8,2.49-3.84-.22-1.71-.21-3.44-.39-5.16-.19-1.81.34-3.01,2.22-3.56,1.57-.46,2.62-1.69,3.69-2.89.84-.95,1.36-1.95.8-3.12-.52-1.11-1.66-.97-2.67-.87-1.43.14-2.86.28-4.27.55-1.51.29-2.43-.25-2.06-1.74.54-2.18-1.09-2.86-2.31-3.64-2.83-1.82-5.1-4.23-7.22-6.74-1.69-2-3.6-3.72-5.6-5.34-3.02-2.45-6.14-4.76-9.24-7.11-4.38-3.31-9.11-6.06-13.99-8.56-1.14-.58-2.47-1.3-3.65-1.19-2.55.24-4.83-.69-7.16-1.25-2.28-.55-4.47-.77-6.81-.6-4.12.3-8.16-.4-12.61-1.18,1.11-1.96,2.75-2.42,4.14-2.57,5.42-.57,7.89-4.17,9.57-8.73.36-.97.64-2.03,1.78-2.68,1.16,2.44-.42,4.62.43,6.75ZM312.92,433.22c.53-1.44-.74-2.06-2.52-2.47-6.87-1.57-11.32-5.95-14.07-12.28-.4-.92-.79-1.86-1.3-2.73-2-3.47-3.48-3.96-7.02-1.98-3.53,1.98-7.15,3.74-10.99,5.01-10.86,3.6-20.8.38-28.45-8.04-1.75-1.93-3.04-4.19-4.41-6.4-2.76-4.44-3.96-4.59-8.01-1.11-.22.19-.43.39-.63.59-4.38,4.58-9.6,7.26-16.07,7.14-.95-.02-1.88.24-1.61,1.4.85,3.66.37,7.46,1.38,11.12,5.22,19.02,10.69,37.98,15.13,57.21,1.27,5.48,1.44,5.44,6.63,3.43,5.12-1.99,10.61-2.91,15.6-.81,4.59,1.93,9.69,3.55,12.98,7.86,1.03,1.35,2.15,1.23,3.24.02.48-.54,1.03-1.03,1.41-1.63,5.61-8.92,13.12-16.43,18.74-25.34,4.08-6.47,9.16-12.21,13.48-18.51,2.53-3.68,4.89-7.47,6.47-12.51ZM21.8,311.28c-2.09,2.58-3.8,5.05-4.74,7.96-1.9,5.9.2,9.39,6.32,10.42,3.17.53,6.02.12,7.93-2.91.53-.85,1.2-1.63,1.9-2.34.56-.57,1.21-1.48,2.15-.77.69.52.24,1.29-.07,1.94-.43.91-.89,1.81-1.24,2.75-.62,1.69-.95,3.46.72,4.73,1.71,1.3,3.48,2.68,5.85,1.3,1.37-.79,2.82-1.44,4.18-2.25,3-1.81,5.96-3.68,9.12-5.64-.26,4.36-.16,4.49,3.85,3.94,12.05-1.65,21.66-7.05,27.69-18.01,1.38-2.52,3.02-4.9,4.57-7.32q3.39-5.31-2.54-6.32c-3.56-.61-4.63-1.97-4.45-5.85.06-1.33-.07-2.62-.7-3.77-.71-1.31-1.15-2.65-1.02-4.12.19-2.15-1.02-2.39-2.69-2.08-.71.13-1.42.25-2.11.44-10.22,2.8-20.63,3.59-31.17,2.79-.83-.06-1.93-.37-2.4.48-1.43,2.61-4.15,2.2-6.38,2.95-1.23.41-2.85.09-3.68,1.55,1.15,1.14,2.49-.73,3.47.5-2.16,1.24-4.33,2.35-6.34,3.69-2.03,1.35-4,2.83-5.85,4.42-1.96,1.68-3.88,3.45-5.56,5.4-1.27,1.47-1.64,3.49-.92,5.3.77,1.94,2.62-.21,4.1.83ZM300.44,142.95c-4.24.1-9.42-.93-14.56.32-6.49,1.58-12.58,4.16-18.3,7.54-2.29,1.36-4.65,3.04-5.28,5.89-.72,3.22-1.24,6.47-.96,9.84.56,6.83.46,6.81,7.02,4.22,5.9-2.33,11.81-4.54,18.36-4.14,5.89.36,11.79.47,17.69.78,4.75.25,9.51.64,14.09,1.98,13.85,4.06,26.41,10.58,37.45,19.94,1.43,1.21,2.82,2.46,3.9,4.01,1.69,2.39,2.45,2.46,4.43.51.97-.96,1.47-2.15,1.77-3.41,1.06-4.4.52-8.88.54-13.33,0-.77-.59-1.63-1.1-2.29-3.55-4.61-6.38-9.91-12.04-12.51-.76-.35-1.33-1.09-2.04-1.58-8.79-6.07-17.73-11.91-28.33-14.3-7.14-1.62-14.39-2.79-22.63-3.46ZM343.26,299.35c-2.15.32-3.3-1.27-4.84-1.91-8.21-3.4-14.67-2.68-19.13,4.76-2.34,3.91-1.28,7.8-.58,11.73.51,2.85,3.14,2.99,5.22,3.85.92.38,1.7,1.09,2.59,1.55,1.18.61,2.07,1.67,3.85.66,1.22-.69,2.06.79,2.39,2.77-3.24-1.91-6.18-.62-9.1-.66-4.52-.06-5.31,1.53-4.44,6.07.21,1.11.67,2.22,1.24,3.21,4.54,7.96,11.1,12.62,20.57,12.52.85,0,2-.69,2.54.65-.69,1.17-1.84,1.35-2.95,1.68-2.06.61-1.79,2.52-1.72,3.93.09,1.7,1.61,1.04,2.71,1.03,6.83-.09,11.31-4.49,15.8-8.73,6.9-6.53,8.79-15.23,10.32-24.14,1.78-10.4-1.6-18.94-8.71-26.32-.78-.81-1.45-1.93-2.71-1.99-1.41-.07-.3,2.38-2.22,2.16-1.36-3.35-3-6.69-5.15-9.73-1.46-2.07-3.32-4-6.04-3.41-4.2.92-8.35,2.13-11.87,4.89-2.1,1.65-3.01,3.77-3.32,6.28-.15,1.26-.11,2.15,1.62,2.28,2.14.16,4.28.61,6.35,1.17,3.21.86,6.16,2.17,7.58,5.7ZM297.69,112.87c8.15.05,15.87.58,23.5,1.76,7.87,1.21,14.71,5.35,21.99,8.61.28-2.59.64-4.7.7-6.82.29-10.08-2.97-18.68-11.1-24.99-5.25-4.07-11.1-7.19-16.99-10.24-4.07-2.11-8.31-4.21-11.27-7.82-5.38-6.56-10.82-13.12-14.31-20.99-3.55-8.01-5.91-16.21-4.95-25.11.22-2.05,1-3.89,1.56-5.81.26-.88.06-1.71-.74-2.3-.85-.64-1.64-.29-2.37.19-.6.39-1.13.89-1.7,1.33-6.73,5.14-9.04,12.57-9.72,20.41-.94,10.89,1.64,21.17,7.33,30.58,4.7,7.77,9.75,15.3,15.29,22.49.97,1.26,1.76,2.59,2.43,4.05,2.14,4.67,2.4,9.39.35,14.66ZM81.6,97.06c-.65-1.97.45-3.01,1.32-4.13,1.43-1.85,3.22-3.36,5.21-4.51,7.19-4.14,13.01-9.97,19.31-15.23,4.43-3.71,7.63-8.13,10.16-13.25,5.86-11.85,4.75-23.41-1.16-34.79-1.93-3.71-5.42-5.89-8.94-7.93-.5-.29-1.08-.5-1.6-.08-.67.54-.51,1.28-.28,1.97.14.4.4.76.61,1.14,6.48,11.26,4.05,30.93-8.5,40.23-6.39,4.73-12.94,9.11-20.2,12.41-7.52,3.42-14.34,7.88-20.37,13.62-7.92,7.53-11.37,18.78-4.67,28.84,1.28,1.92,2.25,4.03,3.51,5.96.94,1.44,1.98,2.87,3.21,4.05,1.37,1.31,3.26,2.44,5.07,1.56,1.9-.92,1.2-3.05.86-4.69-.7-3.46.37-6.12,2.9-8.53,1.54-1.47,3.15-1.72,4.64-.72,1.73,1.16,3.06,1.33,4.46-.23,1.14-1.27,2.78-2.47,2-4.44-1.47-3.68.85-5.36,3.42-6.87,1.6-.95,3.38-1.59,5.03-2.44,1.66-.86,1.9-2.82.7-4.8-.97-1.6-2.15-.94-3.36-.4-1.38.62-1.96,2.06-3.32,3.27ZM272.13,143.36c1.86.66,3.37-.02,4.79-.54,12.29-4.47,25.04-3.46,37.52-2.22,9.69.96,18.9,4.85,27.63,9.4,6.29,3.28,11.74,7.79,17.23,12.23.96.78,1.61,2.1,3.67,1.91-.26-1.63-.16-3.29.17-4.95,1.24-6.32.42-12.28-3.59-17.59-2.21-2.92-4.84-5.31-7.95-7.21-4.56-2.79-9.49-4.84-14.27-7.17-7.43-3.62-15.18-6.12-23.54-6.54-3.87-.19-7.73-.63-11.55-1.51-6.12-1.42-11.98-.93-17.22,3.09-4.91,3.77-8.61,8.49-11.06,14.11-.94,2.17-1.8,4.51-1.82,6.97ZM255.36,497.05c-.5-2.25.11-4.21.38-6.17.25-1.86-.53-2.69-2.25-2.89-3.76-.45-7.44.02-11.09.97-1.43.37-2.14,1.3-2.3,2.75-.2,1.73-.07,3.44.22,5.15.87,5.09,1.64,10.2,2.7,15.26.7,3.36,1.75,6.66,2.77,9.95.49,1.59,1.53,2.07,2.83.67.78-.84,1.58-1.68,2.25-2.61,4.31-5.92,8.67-11.8,12.84-17.82,3.42-4.94,1.92-8.87-4.04-11.17-1.54,1.77-1.08,4.91-4.31,5.92ZM90.77,184.36c-.84,5.47,2.67,16.05,6.64,19.9,1.55,1.5,3.26,2.8,5.19,3.83,1.33.71,2.62.82,4.13.69,6.21-.54,7.56-6.57,7.58-11.68,0-1.21-.49-2.33-1.74-2.73-1.23-.39-1.68.8-2.36,1.48-4.35,4.31-8.41,3.47-10.45-2.38-1.31-3.77-2.86-7.57-2-11.76.2-.98-.04-2-.51-2.93-.54-1.09-1.2-1.98-2.56-1.97-1.21,0-1.74.88-2.18,1.8-.89,1.83-1.45,3.76-1.73,5.77ZM271.14,130.85c4.26-4.07,5.09-9.86,8.74-13.9.56-.62.26-1.4-.6-1.66-2.14-.63-4.2-1.8-6.46.06-2.22,1.82-1.08,3.54-.33,5.37.05.13.09.27.14.41.8,2.44,1.28,4.7-1.59,6.31-1.51.85-.99,2.12.11,3.4ZM98.38,173.43c-.27,2.9.86,4.76,2.95,4.85,2.28.1,4.49-1.63,4.64-3.64.15-2.06-2.27-5.24-4.17-5.49-1.57-.2-3.19,1.82-3.42,4.27Z"/>
      <path d="M225.08,213.19c.3-2.04.96-3.86,1.82-5.65,1.38-2.87,2.32-5.89,2.83-9.04.52-3.17-.27-6.04-2.02-8.61-1.99-2.92-4.71-2.72-6.4.38-.34.62-.72,1.35-.69,2.01.22,4.43-2.32,7.94-3.96,11.7-2.21,5.07-8.49,6.22-12.69,2.57-3.23-2.81-4.59-6.51-5.06-10.67-.12-1.11.69-2.86-1.3-3.17-1.95-.3-3.35.72-4.2,2.39-3.75,7.44.37,18.45,7.92,22.15,4.12,2.01,8.37,2.45,12.83,2.42-3.97,2.33-8.15,2.41-12.35,1.17-5.36-1.58-9.43-4.94-11.88-9.97-2.2-4.53-4.31-9.15-3.65-14.44.07-.57.06-1.16-.02-1.73-.22-1.45-1.07-1.64-2.09-.78-1.79,1.51-3.01,3.48-4.09,5.52-1.27,2.4-2.15,5.01-3.86,7.3-1.03-2.31-.96-5.63.02-9.01,1.21-4.2,3.28-7.98,5.69-11.58,6.37-9.51,14.06-17.48,25.02-21.77,5.84-2.28,11.8-3.57,18.06-3.59,1.24,0,2.58.17,3.82-.81-3.07-2.27-6.66-2.72-10.38-3.33.73-1.5,1.88-1.41,2.92-1.4,4.93.04,9.38,1.72,13.34,4.47,4.14,2.87,8.66,3.68,13.49,3.4,1.24-.07,2.3-.1,2.97,1.12.58,1.05.12,1.96-.5,2.79-.85,1.16-1.67,2.36-2.65,3.41-1.35,1.44-2.25,2.61.17,3.96,1.06.59.83,2,.87,3.18.23,6.23-.67,12.34-1.65,18.46-.57,3.56-1.04,7.07-2.59,10.43-2.32,5.04-5.06,9.63-9.46,13.21-3.82,3.1-3.69,3.26-.13,6.41-2.08,1.32-4.28,1.51-6.54,1.26-7.04-.78-14.1-.5-21.14-.26-3.92.13-7.72-.67-11.59-.84-4.01-.17-8.07.84-12.03-.42-.27-.09-.57-.04-.86-.08-1.17-.14-2.99-.68-2.61-1.58.47-1.13.85-2.7,2.21-3.44.4-.22.86-.48,1.14-.16,3.71,4.16,8.79,3.12,13.4,3.29,3.74.14,7.48.3,11.21.52,4.95.3,9.75-.51,14.56-1.37,2.28-.41,4.39-1.42,6.26-2.8,6.43-4.76,11.2-10.62,13.11-18.67,1.21-5.09,2.5-10.02,1.08-15.3-.93-3.46-2.81-6.28-5-8.97-.77-.95-1.85-1.48-3.07-.86-1.13.57-.93,1.66-.76,2.67.86,5.11,1.81,10.2.75,15.43-1.18,5.87-3.22,11.35-6.66,16.26-.81,1.16-1.58,2.45-3.6,2.4ZM201.76,177.79c-1.68-.06-5.82,3.86-5.99,5.68-.25,2.78,2.4,6.07,4.94,6.1,2.68.04,5.97-3.48,5.99-6.4.01-2.04-2.99-5.3-4.94-5.37Z"/>
      <path d="M137.06,516.77c3.84,9-.41,18.94-9.42,21.97-.67.22-1.41.37-2.11.33-11.76-.58-21.57-4.77-27.71-15.4-4.82-8.34-8.6-17.25-13.71-25.45-2.22-3.56-2.82-7.48-1.63-11.62.58-2.01,1.45-3.76,3.17-4.98,5.6-3.97,6-3.47,9.57.04.41.4.92.7,1.37,1.04,1.16.88,2.24.85,2.66-.65.45-1.6,1.03-3.09,2.59-3.76,2.25-.97,4.69-1.54,7.12-1.4,7.45.45,15.51,10,15.2,15.93-.04.83.16,1.7-.48,2.39-2-.09-2.26-1.62-2.6-3-1.22-5.03-4.79-8.11-8.95-10.58-2.32-1.38-5.05-1.73-7.36-.06-2.14,1.55-3.47,3.7-3.09,6.68.26,2.08.81,4.23.1,6.57-1.99-.18-2.02-1.86-2.42-3.07-1.59-4.84-5.3-6.89-9.93-7.81-1.66-.33-2.48.29-3.14,2.01-1.85,4.83-1.31,9.07,2.51,12.6,1.73,1.6,2.66,4.2,5.48,4.57.81.11.91.98.98,1.72,1.12,10.8,6.53,19.06,15.04,25.53,3.04,2.32,6.64,3.39,10.12,4.72,1.08.41,2.26.34,3.4-.03.96-.31,2.05-.95,2.89-.73,4.09,1.1,5.61-1.75,7.18-4.45,2.37-4.05,3.89-8.33,3.15-13.15h0Z"/>
      <path d="M114.92,324.64c-2.26.89-4.5,1.78-6.76,2.65-1.11.43-2.4.79-3.07-.5-.62-1.21.35-2.18,1.17-3,.38-.39.89-.8,1.4-.9,4.19-.79,7.23-3.34,10.07-6.28.65-.68,1.31-1.58,3.09-1.35-.45,2.59-.9,5.19-1.36,7.78-.35,1.98-1.08,3.92-.82,5.96.31,2.43,1.63,3.28,3.9,2.29,4.62-2.02,9.15-4.27,13.13-7.42,3.84-3.04,7.64-6.13,11.48-9.18.75-.59,1.34-1.58,2.72-1.25.38,1.74-.97,2.85-1.63,4.19-.44.9-1.04,1.73-1.43,2.66-1.15,2.75-.08,4.17,2.93,3.73,2.87-.42,5.58-1.44,8.1-2.89,6.01-3.49,11.77-7.27,15.64-13.3.52-.81,1.01-1.78,2.3-1.78,1.08.78.63,1.91.21,2.67-1.45,2.62-.97,5.3-.57,8.01.37,2.54.93,2.97,3.34,2.56,4.8-.81,8.54-3.3,11.36-7.22.84-1.17,1.88-2.31,2.31-3.63,1.02-3.13,4.15-3.71,6.24-5.53.67-.58,2.02-.56,2.19,1.01.28,2.6-1.52,5.73-4.23,6.59-1.53.49-1.91,1.68-2.55,2.7-4.41,7.04-11.64,8.4-18.98,9.51-1.38.21-2.36-.57-3.17-1.79-1.59-2.39-2.41-2.63-4.66-.8-3.68,2.97-8.04,4.43-12.29,6.19-3.29,1.36-6.78,1.11-10.21,1.33-.6.04-1.34-.07-1.44-.67-.53-3.12-1.85-2.01-3.31-.72-4.94,4.39-10.7,7.23-17.08,8.87-5.3,1.36-6.7.36-7.2-5.21-.15-1.69.18-3.46-.82-5.29Z"/>
      <path d="M179.91,157.51c-.11-.23-.14-.38-.23-.49-4.83-5.44-4.11-8.48-.03-15.1.54-.87,1.16-2.41,2.56-1.67,1.04.55.41,1.83.14,2.74-.65,2.23-1.14,4.43-.71,6.78.71,3.92,2.7,4.94,6.43,3.37,11.4-4.83,22.81-9.61,35.17-11.54,3.87-.6,7.74-.22,11.61-.46,1.83-.12,3.3.02,3.84-2.38.38-1.69,1.68-1.87,2.79-.59,1.1,1.28,2.45,2.61,1.61,4.59-.8,1.9-2.17,2.85-4.32,2.94-6.31.25-12.61.2-18.91,1.18-7.49,1.16-14.5,3.6-21.29,6.72-5.48,2.52-11.08,4.82-16.17,8.17-1.23.81-2.72,1.78-4.38.61-.41-.29-.72.06-1.09.32-.41.28.26,1.88-1.02.93-.41-.3-.27-1.1.14-1.58,1.29-1.53,2.6-3.05,3.87-4.54Z"/>
      <path d="M137.1,247.31c-1.08.22-2.36.4-3.59.77-1.93.58-3.83,1.26-5.73,1.93-2.33.82-4.22,1.86-5.48,4.38-2.09,4.2-4.73,4.28-7.23.13-3.41-5.66-8.16-10.42-10.93-16.49-.35-.76-.99-1.41-1.58-2.04-.59-.63-1.43-1.16-.73-2.14.56-.78,1.47-.84,2.35-.72,2,.27,2.18,1.89,2.68,3.43,2.1,6.38,6.3,10.46,13.1,11.59,1.32.22,2.55.12,3.82-.3,2.33-.76,4.75-1.26,7-2.19,4.85-2,9.54-1.9,14.14.6,5.63,3.05,11.54,5.15,17.94,5.87,8.53.96,16.38.11,21.96-7.53,1.1-1.51,2.34-3.03,4.56-2.7.72.11,1.42.5,1.66,1.22.26.79-.25,1.56-.93,1.69-2.04.4-3.01,2.12-4.46,3.25-3.06,2.39-6.04,4.94-9.93,5.94-1.75.45-3.02,1.52-4.18,2.88-1.39,1.63-2.72,3.39-4.82,4.24-2.31.93-3.93.66-4.49-1.6-1.11-4.49-4.38-5.65-8.2-6.4-5.25-1.04-9.8-4.16-15.08-5.15-.56-.1-1.08-.38-1.86-.65ZM166.4,254.9c-1.25.27-3.3-.78-3.59,1.6-.13,1.04.27,2.28,1.74,2.53,1.63.27,3.81-1.06,3.93-2.49.11-1.4-.92-1.54-2.07-1.64ZM115.58,250.62c1.1,2.88,1.42,3.44,2.12,4.01.59.47,1.26.81,1.96.45.71-.36.77-1.16.79-1.87.07-2.29-.75-2.75-4.88-2.59Z"/>
      <path d="M138.17,218.06c3.55.64,6.71,1.58,9.71,3.02.89.43,1.73,1.07,2.4,1.8,1.76,1.91,1.52,3.57-.65,4.95-.72.46-1.51,1.04-2.31,1.09-2.74.19-4.82,1.12-6.58,3.44-1.54,2.03-3.67,1.79-5.57-.08-.92-.9-1.74-1.93-2.47-3-.91-1.33-1.9-2.39-3.48-3.06-2.08-.87-3.08-2.94-2.62-4.81.51-2.09,2.06-3.15,4.07-3.28,2.58-.17,5.17-.07,7.49-.08ZM137.37,222.66c2.17,2.13,4.55,2.67,7.17,2.57.61-.02,1.11-.45,1.3-.99.29-.8-.19-1.47-.86-1.74-2.38-.98-4.81-1.61-7.61.15ZM134.34,222.12c-1.14-1.08-2.16-1.19-3.23-.54-.11.07-.12.59,0,.73.94,1.03,1.92.52,3.22-.2Z"/>
      <path d="M125.29,163.63c-1.67.06-2.48-1.12-3.21-2.38-4.16-7.18-9.66-13.16-16.14-18.29-.45-.35-.9-.75-1.21-1.22-.48-.72-.89-1.57-.33-2.39.62-.91,1.55-.58,2.32-.23,2.22,1.02,4.34,2.2,6.08,3.99,1.8,1.85,3.64,3.67,5.57,5.39,2.08,1.85,3.27,1.5,3.74-1.27.55-3.24.73-6.54,1.09-9.81.07-.65-.22-1.55.75-1.77,1.07-.24,1.58.58,1.86,1.39,1.42,4.13,2.26,8.42.84,12.64-1.34,3.97-2.71,7.78-.91,11.95.26.59.25,1.42-.46,1.99Z"/>
      <path d="M202.28,274.42c-.24,1.83-4.92,4.77-6.53,4.11-.33-.14-.73-.59-.75-.91-.21-3.21-1.99-1.97-3.57-1.3-6.74,2.85-13.14,6.48-20.2,8.59-1.24.37-2.45.84-3.76.86-.67,0-1.63.19-1.61-.84.05-2.51-1.7-2.13-2.91-1.6-3.37,1.46-6.47,2.11-9.43-.9-.86-.88-2.21.04-3.33,0-.59-.01-1.27-.06-1.45-.63-.23-.7.05-1.36.7-1.87,2.01-1.54,4.2-1.68,6.4-.23.63.41,1.17.73,1.96.6,8.2-1.44,16.6-1.3,24.77-3.04,2.97-.63,5.73-1.83,8.49-3.07,2.26-1.02,4.66-2.4,7.18-.48.97.74,1.54-.27,2.29-.46,1.07-.26,1.65.13,1.76,1.17Z"/>
      <path d="M156.19,439c-.65-1.09-.92-1.58-1.23-2.05-1.76-2.69-2.71-2.99-5.7-1.91-2.7.97-5.44,1.87-8.14,2.85-1.4.51-2.63.33-3.42-.94-3.27-5.28-2.83-12.36,1.21-16.41.25-.25.77-.22,1.19-.33.8,1.76-.2,3.18-.75,4.54-1.76,4.38,2.19,10.13,7.84,8.19,2.46-.85,4.88-1.65,7.13-2.99,1.42-.84,2.45-.58,2.6,1.37.17,2.37.98,4.77-.73,7.69Z"/>
      <path d="M136.54,281.58c-2.32.47-3.69-.79-5.19-1.52-1.93-.95-3.7-2.24-5.65-3.15-1.24-.58-2.65-1.73-4.01-.86-1.51.96.36,2.34,0,3.54-.08.26-.22.51-.33.76-3.69-.51-4.02-.68-6.81-3.45,1.05-.98,2.52-.1,3.71-.9.48-1.84-1.48-2.12-2.16-3.22-.68-1.1-.45-1.95.99-2.07.57-.05,1.18,0,1.71.16,3.3,1.02,6.64,1.94,9.86,3.17,3.45,1.32,6.11,3.65,7.86,7.54Z"/>
      <path d="M115.22,341.72c-1.38,2.73-2.5,4.85-3.53,7.02-.49,1.03-.88,2.12-1.17,3.23-.31,1.23-.19,1.97,1.51,2.31,3.13.63,3.2,1.01,2.3,4.09-.71,2.41-1.51,4.79-2.44,7.73-2.23-3.01.82-5.45-.38-7.82-.19-.13-.41-.41-.63-.41-5.21.02-6.46-1.91-4.2-6.59,1-2.07,1.99-4.17,3.22-6.11,1.04-1.65,2.17-3.43,5.32-3.45Z"/>
      <path d="M137.06,516.75c-.07-1.14,0-2.31-.23-3.41-.64-2.99-.62-5.54,1.23-8.45,3.51-5.52,2.94-9.83-.77-14.24-2.02-2.4-2.93-2.81-7.81-3.41,1.14-1.42,2.57-1.11,3.85-1.03,6.4.43,10.53,6.45,8.6,12.44-.42,1.29-1.37,2.61.61,3.67.95.51.33,1.6-.17,2.27-2.72,3.66-3.78,8.02-5.31,12.18,0,0,0-.01,0-.01Z"/>
      <path d="M116.7,301.69c-1.06-2.47,1.02-3.71.8-5.72-1.89.06-3.84.11-5.78.17-1.62.05-2.29-.85-1.45-2.14,3.27-4.99,8.17-7.49,13.89-8.55.43-.08.81.22.95.67.17.54-.25.86-.61.98-1.5.48-3.03.85-4.53,1.32-1.93.61-3.81,1.32-5.38,2.65-.67.57-1.33,1.26-.75,2.18.43.69,1.25.7,1.94.39,2.66-1.18,5.69-.79,8.33-2.05.77-.37,1.82-.36,2.14.71.28.92-.7,1.13-1.27,1.43-3.37,1.79-5.24,5.17-8.28,7.97Z"/>
      <path d="M208.14,124.71c.98-2.65,3.06-3,5.02-3,5.81-.02,11.35,1.25,16.41,4.24.49.29.97.63,1.37,1.03.43.44.49,1.04.15,1.57-.37.58-.97.58-1.49.29-2.43-1.32-5.1-1.81-7.73-2.49-3.64-.95-7.29-1.44-11.04-1.11-.86.08-1.72.08-2.68-.53Z"/>
      <path d="M176.36,387.04c-.21,1.31-1.33,1.78-2.41,2.08-2.35.67-4.74,1.19-7.11,1.76-3.07.74-6.26.87-9.27,1.95-.76.27-1.83.46-2.16-.64-.26-.88.64-1.18,1.27-1.47,5.38-2.47,10.96-4.36,16.86-5.07,1.61-.19,2.75.45,2.81,1.38Z"/>
      <path d="M192.88,164.42c-5.81,6.16-9.4,13.93-14.98,20.76.41-7.17,8.02-17.85,14.98-20.76Z"/>
      <path d="M93.32,122.12c-.36,2.39-2.31,4.16-1.63,6.4.58,1.93,3.12,2.55,3.58,4.92-.95.65-1.85.27-2.65-.24-.97-.61-1.85-1.37-2.77-2.06-4.09-3.06-4.09-4.64.04-7.73.9-.67,1.73-1.58,3.44-1.29Z"/>
      <path d="M109.14,119.05c3.31.5,6.26,1.86,8.92,3.84.7.52,1.33,1.21.68,2.14-.52.74-1.25.49-1.88.08-3.01-1.96-6.19-3.48-9.77-4.1-.67-.12-1.45-.54-1.34-1.38.12-.9.97-.89,1.69-.84.57.04,1.13.16,1.69.25Z"/>
      <path d="M109.13,159.4c5.1,3.41,8.83,9.51,9.98,15.76-2.88-2.66-3.64-5.71-5.22-8.19-1.61-2.51-3.18-5.05-4.76-7.57Z"/>
      <path d="M161.66,441.22c-.79-.13-1.35-.63-1.56-1.33-.16-.56.22-1.14.71-1.45,2.29-1.48,4.58-2.97,6.93-4.34.74-.43,1.48.03,1.44.94-.09,2.35-5.29,6.57-7.53,6.19Z"/>
      <path d="M74.94,129.1c.12-4.34,2.45-7.46,5.51-10.13.43-.38,1.06-.38,1.58.02.43.34.38.88.15,1.16-2.4,2.94-3.97,6.54-7.25,8.94Z"/>
      <path d="M261.82,112.12c-.97,2.81-1.96,5.61-2.92,8.42-.2.58-.47,1.12-1.14.98-.6-.13-.99-.75-.91-1.3.49-3.35,1.23-6.6,4.97-8.1Z"/>
      <path d="M141.87,280.17c-3.06-.75-4.41-2.76-6.6-3.01-.68-.08-1.1-.99-.85-1.74.34-.99,1.2-1.22,2.1-.82,2.17.96,3.72,2.57,5.35,5.57Z"/>
      <path d="M203.32,315.56c.81,3.09-.4,4.64-1.87,7.18-.61-3.13.12-4.85,1.87-7.18Z"/>
      <path d="M256.24,131.91c2.08,1.82,2.47,3.56,2.41,5.67q-2.21-1.3-2.41-5.67Z"/>
      <path d="M43.72,386.03c-.49-.72-.65-.85-.64-.95.28-1.66.63-3.3,2.45-4,.17-.06.64.17.69.35.67,2.29-1.37,2.96-2.5,4.59Z"/>
      <path d="M76.13,371.71c-.11-1.79-.63-3.89,2.28-4.26.28,2.05-.81,3.23-2.28,4.26Z"/>
      <path d="M108.44,375.32c-.1-2.82-.3-4.81,1.97-6.67.3,2.59-.49,4.3-1.97,6.67Z"/>
      <path d="M174.51,65.21c-2.06.84-3.41.43-4.76.09-.52-.13-.58-.58-.57-1.01.01-.53.48-.79.86-.78,1.43.05,2.8.35,4.47,1.69Z"/>
      <path d="M127.13,169.57c-.35-.38-.53-.5-.52-.58.15-1.15-.99-2.53.55-3.42.15-.09.61.06.72.24.84,1.3.29,2.4-.75,3.77Z"/>
      <path d="M68.74,191.8c-.74-.01-1.13-.24-1.15-.68-.07-1.2.71-1.77,1.75-1.94.26-.04.82.39.87.66.22,1.3-.98,1.46-1.46,1.96Z"/>
      <path d="M204.85,122.44c.45,1.68.58,2.8-.98,3.69-.51-1.46-.26-2.48.98-3.69Z"/>
      <path d="M214.3,47.38c-.63,2.53-1.72,2.79-3.36,2.73.49-1.52,1.84-1.52,3.36-2.73Z"/>
      <path d="M210.25,156.59c1.21-1.21,2.12-1.64,3.28-.62-.82,1.16-1.81,1.17-3.28.62Z"/>
      <path d="M147.77,396.12c-.67-.06-1.1-.35-1.04-1.01.07-.73.44-1.27,1.27-1.25.48,0,.72.38.75.79.05.74-.25,1.3-.99,1.47Z"/>
      <path d="M151.3,392.99c.26-.62.4-1.44,1.34-1.35.85.07.67.79.61,1.31-.07.59-.41,1.14-1.05,1.16-.64.02-1.03-.38-.9-1.12Z"/>
      <path d="M68.82,194.86c-.48-.03-.78-.37-.57-.83.15-.33.56-.68.91-.75.52-.1.73.33.64.83-.09.5-.5.65-.98.75Z"/>
      <path d="M79.11,375.96c-.7-1.08-.38-1.69.07-2.22.21-.24.68-.09.63.17-.11.63-.41,1.23-.7,2.05Z"/>
      <path d="M115.66,340.82c-.44-.15-1.12-.17-.99-.96.07-.43.34-.79.89-.63.56.15,1.14.37,1.11,1.06-.02.5-.49.58-1,.54Z"/>
      <path d="M201.06,123.63c.16.18.45.35.46.54.04.46-.2.83-.72.66-.15-.05-.3-.47-.26-.68.04-.2.33-.34.51-.51Z"/>
      <path d="M275.33,224.88c1.6,2.73,1.31,4.8.76,6.85-2.92,11-4.19,22.39-8.02,33.18-1.1,3.1-1.55,6.44-2.32,9.66-.12.51-.11,1.16-1.4,1.39,2.5-17.2,6.12-33.94,10.99-51.08Z"/>
      <path d="M314.47,287.05c-1.48-1.07-.92-2.59-.7-3.92,1.71-10.63,3.67-21.21,6.28-31.66.11-.44.34-.76,1.37-.82-.43,11.63-3.71,22.76-5.29,34.13-.14.99-.42,1.98-1.66,2.27Z"/>
      <path d="M297.9,375.37c-1.17-2.5-.38-4.82.08-7.13.96-4.78,2.01-9.54,3.05-14.3.12-.55.37-1.09,1.12-.98.76.11.86.75.81,1.29-.74,7.25-2.24,14.33-5.05,21.12Z"/>
      <path d="M257.51,309.88c-.37,6.28-1.83,12.52-4.48,18.58.32-1.93.58-3.87.97-5.78.46-2.24.97-4.48,1.58-6.69.56-2.06,1.28-4.08,1.93-6.11Z"/>
      <path d="M323.73,239.94c-.81-2.85-.7-5.6.97-9.09,1.25,3.81-.66,6.38-.97,9.09Z"/>
      <path d="M244.35,376.58c-.98-1.27-1.16-2.81-1.47-4.3-.12-.56-.16-1.14.61-1.25.68-.1,1.03.39,1.23.91.6,1.6.82,3.18-.39,4.64,0,0,.02,0,.02,0Z"/>
      <path d="M245.82,369.38c-1.28-1.02-1.34-2.14-1.56-3.77,2.14.94,2.38,2,1.56,3.77Z"/>
      <path d="M303.95,350.1c0,.5-.29.78-.75.72-.7-.1-.76-.67-.73-1.24.03-.47.31-.79.77-.73.73.09.67.72.71,1.26Z"/>
      <path d="M347.71,302.38c-.34.39-.77.36-1.14.15-.74-.41-1.5-.89-1.16-1.9.14-.4.7-.44,1.1-.27.86.39,1.19,1.12,1.2,2.02Z"/>
    </g>
  </g>
</svg>