<?xml version="1.0" encoding="UTF-8"?>
<svg id="Layer_1" data-name="Layer 1" xmlns="http://www.w3.org/2000/svg" viewBox="0 0 424.04 365.58">
  <defs>
    <style>
      .cls-1 {
        fill: #fff;
      }

      .cls-2 {
        fill: #ea78ab;
      }
    </style>
  </defs>
  <g>
    <path class="cls-1" d="M170.85,365.58c-4.87,0-13.83-2.45-18.52-7.89,0,0-.24-.29-.33-.39-1.81-.88-3.78-2.3-5.75-4.74-8.08-9.94-6.2-19.38-3.2-25.54.14-.28.27-.55.41-.81-2.49-3.11-4.45-6.2-6.11-9.59-.14-.29-.27-.58-.4-.88-2.28-1-4.79-2.64-6.75-5.42-1.89-2.69-2.72-5.38-3.04-7.72-.1-.11-.2-.22-.29-.33-1.4-1.63-2.34-3.38-2.95-5.12-1.7-.39-3.18-.95-4.38-1.47-.31.02-.64.04-.98.04h-.21c-10.77,0-23.34-6.53-25.44-18.62-.48-2.82-.2-5.47.16-7.57-1.21-1.61-2.5-3.54-3.32-5.89-1.73-5.01-1.87-9.95-.44-14.37-3.56-1.18-6.58-3.16-8.85-5.79-9.96-1.1-20.46-5.26-29.52-11.8C17.12,207.26,7.21,175.02,1.53,143.82c-2.57-14.05-1.34-29.79-.39-37.93,1.04-8.96,2.58-16.66,4.73-23.63-2.41-2.88-3.95-6.13-4.52-9.62-.84-5.09.43-10.14,3.68-14.61.35-.48.72-.93,1.11-1.35.35-5.6,2.77-9.41,4.89-11.72,5.18-5.61,12.45-6.81,18.37-7.16,4.27-4.2,9.92-6.44,16.49-6.44,10.11,0,20.1,5.44,26.71,9.03l.29.16c24.34,13.25,54.87,37.47,68.31,61.78,3.61.81,6.08,2.81,7.02,3.57.8.65,1.51,1.37,2.25,2.22.67.17,1.33.38,1.98.62,5.27-3.95,11.13-7.44,17.41-10.36.43-1.87,1.13-3.61,2.11-5.19-1.66-6.03-1.63-12.51.2-18.84,3.39-11.77,12.6-21.81,24.04-26.21,5.06-1.95,11.33-3.07,17.18-3.07,7.89,0,14.72,1.98,19.75,5.71,3.95,2.92,11.67,10.97,12.43,20.43.33,4.15-.73,8.06-3.01,11.26.26,1.19.44,2.49.52,3.92,0,.13.01.26.02.39,0,.04.02.08.02.12.68.08,1.43.19,2.21.34,9.24,1.79,18.25,5.55,25.76,9.31.86-.63,1.75-1.16,2.7-1.58.02-.02.03-.05.05-.07,2.02-2.73,4.34-4.79,6.92-6.17,5.25-16.32,14.8-30.65,21.92-40.47,9.81-13.54,27.25-30.87,40.57-40.31,4.18-2.97,12.58-7.98,21.68-7.98,3.96,0,7.59.94,10.8,2.78l.12.07c.51.3.98.62,1.4.93,1.62-.24,3.57-.5,5.73-.5,3.9,0,7.44.88,10.53,2.62,3.08,1.72,7.2,5.62,8.83,10.07.28.78.49,1.55.64,2.3,4.64,4.08,7.36,9.15,7.73,14.51.26,3.68-.63,7.26-2.53,10.42,18.33,33.01,21.27,86.86,6.21,122.43-7.5,17.71-23.67,39.56-42.89,48.45-1.83.85-3.69,1.4-5.19,1.83-.11.03-.23.07-.36.1-.64.96-1.5,2.15-2.67,3.32-1.03,1.02-2.31,2.1-3.87,3.09.22.4.43.8.62,1.22,2.74,5.8,2.78,13.2.22,19.83.82,2.27,1.27,4.72,1.29,7.14.11,9.34-6.64,17.54-13.37,20.8-2.06.99-3.87,1.43-5.07,1.73-.19.05-.38.09-.57.14-.32.18-.92.57-1.46.92-1.69,1.11-3.95,2.58-6.93,3.64-.44,1.78-1.16,3.32-1.96,4.6.03.29.05.6.05.91.08,3.28-.72,8.52-5.76,12.5,0,.07-.02.13-.02.2-.7,5.28-2.85,9.94-5.21,14.01,3.93,4.86,5.96,10.52,5.68,16.14-.32,6.45-3.65,12.17-9.36,16.11l-.09.06c-.69.46-1.36.84-1.97,1.14-1.77,2.51-4.37,5.18-9.35,7.09-4.11,1.58-7.43,1.6-9.41,1.61-.02,0-.19,0-.25,0-.12.06-.25.13-.38.19-1.85.91-4.64,2.27-8.33,2.81-1.21.18-2.49.27-3.8.27-9.87,0-22.28-5.48-28.42-14.88-8.5,3.33-17.49,5.02-26.75,5.02-4.06,0-8.1-.33-12.11-.99-1.93,4.94-5.47,9.51-10.31,13.2-5.34,4.07-11.91,6.78-18.03,7.44-1.06.12-2.2.18-3.34.18-2.47,0-4.61-.28-6.33-.51-.64-.08-1.29-.17-1.8-.22-.07.02-.13.03-.2.05-1.35.31-3.19.74-5.35.8-.16,0-.34,0-.52,0Z"/>
    <path class="cls-2" d="M393.09,42.17c.15.8,2.18,2.8,2.77,3.76,18.63,30.08,21.19,82.61,7.47,115.02-6.62,15.63-21.18,34.98-36.87,42.23-2.43,1.13-6.04,1.6-7.92,2.93-1.58,1.11-2.33,3.31-3.74,4.72-4.61,4.55-11.23,3.57-16.94,2.05-1.29-.34-2.18-1.29-3.49-1.1.91,2.6-4.01,6.1-4.22,7.45-.1.66,3.55,4.4,3.07,6.23,3.48-.61,6.91-1.85,10.44-1.03,7.37,1.72,7.64,10.32,4.82,16.03-.39.77-2.6,3.78-2.33,4.1,2.23-.23,3.37,4.44,3.39,6.18.05,3.87-3.23,8.24-6.61,9.88-1.7.82-3.47.89-5.14,1.63-3.39,1.53-5.82,4.43-10.3,4.86l-6.55.65c.64,1.87,1.71,4.43,1.67,6.41-.06,2.78-3.21,4.11-3.35,5.08-.1.68.96,3.39.99,4.43.1,4.05-5.07,3.95-5.66,5.06-.19.36.12,4.58-.04,5.8-.84,6.35-5.67,12.46-8.89,17.76.05.54,2.85,1.98,3.68,2.68,5.58,4.72,8.54,12.54,1.42,17.44-.9.6-2.34.96-2.94,1.49-2.36,2.06-1.72,3.85-5.97,5.49-3.45,1.33-5.59.45-8.18,1.06-2.18.52-4.47,2.42-7.6,2.87-7.49,1.11-18.63-4.22-21.54-11.37-.67-1.65-1.22-6.28-1.86-7.15-.23-.29-1.03-.42-1.36-.36-1.06.13-4.95,2.72-6.39,3.38-15.2,7.09-32.32,7.62-48,1.86-.83.25-.47,6.78-.65,7.92-1.27,8.33-11.35,14.89-19.17,15.73-4.13.46-7.54-.65-10.81-.65-1.31.02-3.46.84-5.25.89-2.67.08-7.86-1.69-9.61-3.72-.64-.76-.67-1.64-1.65-2.36-1.67-1.21-2.25-.08-4.15-2.46-3.31-4.08-4.13-7.92-1.77-12.76,1.46-3,3.17-3.89,5.71-5.73.19-.15.69-.08.39-.66-.29-.53-3.22-2.82-3.92-3.56-3.24-3.42-5.8-6.73-7.88-10.99-.51-1.07-1.76-4.94-2.12-5.34-.56-.64-4.49-.47-5.99-2.6-2.09-2.97-.25-5.83-.88-7.22-.2-.45-2.52-.98-3.16-1.73-2.42-2.82-.02-9.1-.82-9.89-.4-.1-.74.43-.85.45-1.96.18-4.48.66-6.36.62-2.84-.06-5.84-2.37-7.46-2.42-.69-.01-1.29.5-1.99.51-5.22.06-12.76-2.9-13.76-8.67-.47-2.75,1.2-6.74.81-8.45-.39-1.67-3.7-4.72-4.45-6.89-3.63-10.48,6.52-14.6,15.26-14.02.21-.25-.81-5.67-1.07-6.42-.66-1.86-2.97-3.48-3.35-5.63-2.65,1.05-4.54,2.83-7.45,3.76-5.99,1.92-15.5,2.2-16.64-5.69-10.3.72-21.63-3.79-29.89-9.75-28.19-20.35-38.57-46.88-44.64-80.28-1.94-10.6-1.54-23.65-.27-34.38,1.15-9.85,3.1-19.66,6.93-28.81,0-.62-1.42-.9-2.1-1.38-4.19-2.95-6.57-7.31-3.16-12.01.69-.96,3.74-3.15,3.87-3.66.25-1.06-.45-1.91-.49-2.74-.51-9.49,10.71-8.81,17.35-9.09,6.51-12.38,22.86-3.3,31.7,1.5,22.28,12.13,51.29,34.77,63.62,57.18,1.27,2.31,2.68,4.82,3.17,7.43,3.09-1.12,3.62-3,6.72-.48.95.78,3.44,4.28,3.7,4.4.24.1,2.09-.11,3.01.09,2.27.49,4.39,2.7,4.93,4.9,8.24-8.08,18.83-14.28,29.6-18.28-1.31-4.65-.48-9.09,5.2-9.08-10.17-13.58-1.26-32.29,13.41-37.93,7.11-2.74,19.07-3.67,25.46,1.07,3.66,2.7,10.51,11.37,6.36,15.62-3.02,3.09-5.11.4-7.82-.38-5.97-1.7-14.28,3.03-12.39,9.97.52,1.92,3.73,5.58,5.83,4.65.63-.29.92-2.04,1.4-2.77,1.89-2.89,6.18-5.95,9.8-4.8,2.35.73,1.72,4.18,2.12,6.12.36,1.81.8,4,1.53,5.68,2.14,4.92,5.84,3.68,10.26,4.53,10.87,2.11,21.78,7.49,31.34,12.92.8-1.7,2.69-5.43,4.5-6.11.83-.3,2.47-.11,2.86-.42.14-.11,1.14-2.58,1.69-3.32,1.85-2.49,3.76-3.77,7-3.34,3.57-15.74,12.56-30.5,21.95-43.45,8.97-12.37,25.33-28.73,37.79-37.56,4.9-3.48,13.74-7.93,19.56-4.58,1.1.65,1.29,1.53,2.13,2.16,3.27,2.46,10.47-1.96,15.74,1.01,1.16.65,2.99,2.49,3.45,3.73.5,1.37.22,4.66.45,4.96.26.35,1.7.8,2.28,1.23,4.16,3.04,7.2,8.07,2.8,12.35-.76.74-3.71,2.42-3.5,3.53Z"/>
  </g>
  <g>
    <path class="cls-1" d="M189.56,142.32l50.76-7.07s2.12-.9,3.51,2c1.21,2.53,8.6,23.94,10.45,29.33.35,1.03.55,2.09.56,3.18.02,2.95-.69,8.62-5.9,12.56-7.33,5.55-15.1,6.67-26.92,11.32-9.52,2.75-4.07,10.45-6.72,20.8-.2.77-.8,1.34-1.57,1.52-4.17.96-12.13-.7-14.11-4.35-2.19-4.07-5.87-19.36-4.13-24.09.88-2.68,5.41-3.55,15.18-7.18,9.82-3.65,19.94-5.21,19.4-9.78-1.51-12.93-1.17-15.06-2.3-14.95-9.94.98-41.49,11.36-44.36,10.26-2.87-1.1-10.4-18.86-6.91-20.81,1.13-.63,13.04-2.73,13.04-2.73Z"/>
    <path class="cls-1" d="M197.61,228.48c.09-1.18.89-2.18,2.02-2.52,4.62-1.39,16.25-3.22,21.05-3.08,5.76.16,2.1,13.98.18,15-4.48,2.39-11.33,4.74-17.7,2.72-2.99-.95-5.82-8.71-5.55-12.12Z"/>
  </g>
</svg>