<?xml version="1.0" encoding="UTF-8"?>
<svg id="Layer_1" data-name="Layer 1" xmlns="http://www.w3.org/2000/svg" viewBox="0 0 503.2 485.72">
  <defs>
    <style>
      .cls-1 {
        fill: #fff;
      }

      .cls-2 {
        fill: #19bcd5;
      }
    </style>
  </defs>
  <g>
    <path class="cls-1" d="M304.14,482.51c-4.76.44-9.82.24-14.65-.58-1.17-.2-2.41-.54-3.82-.94-.47.27-.95.53-1.46.77-4.41,2.08-9.02,3.35-13.69,3.79-15.03,1.4-29.9-5.82-40.81-19.8-3.17-4.06-5.45-8.32-7.46-12.07-.44-.82-.87-1.63-1.31-2.42-.11.18-.23.35-.34.51-1.34,1.93-7.85,10.46-12.93,13.81-7.62,5.05-19.18,6.46-22.54,6.77-3.66.34-9.01.52-13.71-.53-.56-.12-1.11-.28-1.68-.48-.99.52-1.81.9-2.63,1.21-2.84,1.05-5.64,1.7-8.37,1.95-5.18.48-10.28-.43-15.16-2.73-1.14-.53-2.28-1.25-3.72-2.25-.58.16-1.19.29-1.82.39-.82.13-1.67.25-2.5.32-10.45.97-17.17-3.15-20.96-6.78-6.46-6.19-9.77-16.13-9.35-28.06-8.79.46-17.63-2.85-25.02-9.39-.26-.23-.5-.46-.73-.69-1.64-.2-3.31-.41-4.83-.81-10.4-2.7-18.85-9.31-24.45-19.1-.44-.77-.83-1.59-1.25-2.51-.09-.04-.18-.07-.27-.11-21.56-9.19-37.49-29.98-44.85-58.52-6.96-26.92-3.7-45.77,3.82-67.45.51-1.46,1.25-3.18,2.12-5.16.39-.9.97-2.24,1.45-3.4-.1-.25-.2-.5-.28-.71-.89-2.23-1.81-4.55-2.25-6.86-1.32-7.05-.84-18.3,3.3-26.39,1.73-3.37,3.73-5.43,5.73-6.82.06-.62.13-1.25.25-1.9.77-4.46,4.49-18.7,11.25-25.34,4.65-4.57,11-7.26,18.88-7.99,14.25-1.33,30.43,4.15,37.74,7.6,1.62.77,2.92,1.5,3.97,2.08.49.27,1.12.63,1.48.81.05,0,.11,0,.19-.01.21-.02.42-.05.65-.09,2.77-.46,5.33-1.33,8.3-2.34,4.48-1.52,9.56-3.23,16.24-3.86.71-.07,1.44-.12,2.19-.16,1.16-.06,2.23,0,3.16.06.87-.71,1.95-1.52,3.24-2.24,3.17-1.76,6.55-2.81,10.04-3.14,2.6-.24,5.09-.05,7.43.39,1.66-2.52,3.66-4.77,5.78-6.69-3.32-1.54-6.37-3.24-8.98-5.04-18-12.43-26.57-27.77-26.96-48.29-.42-21.17,24.45-52.72,24.7-53.03,1.35-1.7,2.92-3.37,4.58-5.15,1.66-1.77,4.62-4.92,5.64-6.63,0-10.65,6.96-13.95,10.73-14.96.75-.99,1.49-1.7,1.99-2.13l.14-.12c2.1-1.75,4.99-2.99,7.73-3.32l.36-.04c10.92-1.02,25.88,12.47,28.76,15.18,6.33,5.96,11.7,13.24,16.06,21.78.71-.67,1.41-1.28,2.05-1.84.79-.69,1.54-1.34,1.97-1.82,2.35-2.55,3.77-5.79,5.4-9.54,3.01-6.9,7.13-16.35,18.73-22.64,5.38-2.91,10.17-4.33,14.4-5.09-.36-3.97.28-7.9,2.94-11.21.22-.28.46-.55.7-.81-.61-2.86-.9-6.39,0-10.61,1.1-5.15,4.21-14.12,12.67-16.71,1.27-.39,2.56-.65,3.82-.77,6.9-.64,12.41,2.62,16.37,9.69.17.3.39.7.48.84,3.37,4.83,7.03,8.42,12.17,11.89,2.9-3.27,8.83-8.76,16.42-9.47,5.24-.49,10.25,1.47,13.75,5.37,2.84,3.13,3.79,6.85,4.35,9.08.08.31.15.62.24.9.66,1.38,4.96,6.3,17.31,13.17,3.84,2.14,7.86,3.95,12.11,5.87,4.41,1.99,8.91,4.01,13.4,6.5.68-2.62,1.34-5.22,1.96-7.71l.03-.14c.55-2.17,1.03-4.28,1.5-6.32,2.41-10.5,4.69-20.41,13.68-31.79,1.77-2.23,7.1-8.93,15.08-9.68,3.51-.33,6.91.53,9.84,2.48,1.06.7,2.3,1.73,3.37,3.18,3.4,1.38,5.36,3.76,6.41,5.43,2.68,1.68,9.22,4.73,12.92,6.45,4.34,2.02,8.09,3.76,10.65,5.27,25.68,15.09,45.19,44.7,30.85,76.83-4.62,10.33-9.91,18.92-15.96,25.87,6.76,2.65,12.64,7.2,14.97,14.66.36,1.14.59,2.34.76,3.48,1.77,1.62,3.03,2.81,4.05,4.09,6.07,7.52,11.51,20.58,10.16,30.98-.22,1.67-.66,3.1-1,4.14.1.67.25,1.52.36,2.16.3,1.74.65,3.72.78,5.64,1.89,29.38-8.38,48.59-32.32,60.43-.06.17-.13.34-.2.51l-.05.12c-3.4,7.91-10.21,12.76-13.96,14.95-1.37.81-2.71,1.4-3.89,1.92-.09.04-.19.08-.29.13-1.73,7.3-5.12,11.07-8.33,13.08,7.24,2.63,13.37,6.76,19.06,10.6,1.3.88,2.62,1.76,3.95,2.63,1.02.66,2.31,1.38,3.67,2.15,1.75.98,3.57,1.99,5.35,3.18,4.21,2.8,7,7.09,7.84,12.07.82,4.86-.29,10.31-2.99,15.15,1.14,2.77,4.54,12.19,1.76,20.06-1.26,3.58-3.38,5.98-5.43,7.58-1.75,11.12-5.83,21.98-11.94,31.71l-.37.6c-.95,1.54-2.11,3.43-3.56,5.15,2.44,1.95,4.8,4.26,6.92,7.12,7.56,10.21,10.46,25.56,7.05,37.33-2.55,8.82-8.46,15.42-16.63,18.58-1.47.57-2.79.94-4.1,1.14-.58.8-1.25,1.64-2.06,2.46-6.36,6.36-13.43,7.69-18.19,8.13-1.79.17-3.53.23-5.22.29l-.54.02c-3.48.12-6.83.21-9.52-.08-1.84-.2-3.33-.68-4.38-1.06-.9.19-2.16.66-3.49,1.15-2.06.76-4.63,1.71-7.56,2.27-1.23.23-2.46.4-3.67.51-15.59,1.45-31.31-6.47-41.05-20.4-.19,1.58-.53,3.18-1.04,4.78-3.48,10.94-16.43,19.28-26.33,20.2-.86.08-1.72.11-2.56.09-1.37-.03-2.69-.24-3.98-.57-1.71,1.36-3.01,2.32-4.38,3.07-4.76,2.58-10.27,4.17-16.4,4.74Z"/>
    <path class="cls-2" d="M489.74,181.93c-.05,2.47,1.07,6.68,1.27,9.59,1.48,22.94-5.05,38.91-26.27,49.16-.9.44-3.36,1.05-3.86,1.56-.32.32-1.07,3.77-1.49,4.77-1.68,3.9-5.36,7.22-8.99,9.33-2.61,1.53-6.43,2.42-8.15,4.96-2.51,3.7-.82,10.03-6.92,11.06-3.37.57-6.14-1.02-9.46.7-1.95,1-6.81,8.15-7.76,10.35-.35.82-2.42,6.45-2.41,6.9,0,1.5,1.04,1.53,1.61,2.41,1.57.37,4.63-.37,5.9.14,0-1.87,2.41-1.67,3.82-1.73,13.55-.6,22.79,7.09,33.36,13.99,2.81,1.83,6.22,3.46,8.93,5.26,4.62,3.07,2.65,9.48-.15,13.17-.69.92-2.66,2.32-2.66,3.2,0,.89,2.48,3.82,3.06,5.08,1.36,2.93,2.76,8.78,1.69,11.84-1.17,3.35-4.69,3.03-5.34,4.43-.91,11.52-4.75,22.72-10.87,32.48-.91,1.46-2.05,3.42-3.17,4.66s-6.51,5.73-7.91,5.74c-.75,0-1.61-.53-2.33-.46-.84.08-3.03,1.08-3.28,2.03,7.01,4.7,15.01,7.42,20.19,14.43,7.57,10.22,10.16,32-4.26,37.59-2.7,1.04-2.66.15-4.69.28-2.36.15-3.91,4.31-5.63,6.04-4.53,4.53-9.46,4.69-15.46,4.91-2.3.08-6.05.23-8.24,0-1.49-.17-2.84-1.15-4.37-1.21-5.27-.24-9.6,2.77-14.56,3.7-14.04,2.62-27.45-5.84-34.38-17.64-2.5-4.24-5.89-14.51-9.46-16.85-3.76-2.46-11.65-3.2-16-2.5-9.65,1.55-2.95,5.29.12,9.81,3.71,5.48,6.85,13.65,4.75,20.22-1.89,5.94-10.99,12.1-17.19,11.95-2.01-.04-5.95-2.05-6.32-1.98-1.07.18-6.14,4.89-8.07,5.95-6.78,3.67-15.81,4.14-23.28,2.86-1.73-.29-6.4-1.93-7.61-1.85-.99.07-3.54,2.06-4.8,2.65-15.28,7.19-30.36-.27-39.93-12.54-4.88-6.25-7.49-13.76-11.92-19.61-.97-1.28-2.61-3.03-4.29-3.21-1.24-.14-6.95.38-7.76,1.03-.64.5-3.35,6.77-4.44,8.35-1.89,2.72-7.06,8.91-9.69,10.65-5.98,3.96-20.12,6.09-26.99,4.54-1.16-.26-4.66-1.98-5.02-1.95-.45.04-4.86,2.68-6.12,3.15-4.89,1.81-9.48,1.84-14.24-.39-1.43-.67-6.07-4.28-6.53-4.37-1.25-.25-4.43,1.28-6.03,1.53-15.08,2.49-19.5-10.32-18.88-22.94.45-8.99,3.41-9.36,7.13-15.95,1.78-3.15-1.45-4.06-2.99-6.13-.77-.04-2.93,1.1-3.37,1.01.5,2.11-.3,3.09-1.76,4.4-8.66,7.75-19.9,5.82-28.09-1.44-.76-.67-2.03-2.55-2.7-2.85-1.2-.56-5.84-.77-7.81-1.28-7.58-1.97-13.19-6.71-17.04-13.44-.8-1.4-2.49-5.88-3.43-6.54-.75-.53-2.69-.69-3.79-1.16-20.73-8.84-32.5-29.38-37.94-50.48-5.89-22.8-4.03-38.69,3.54-60.52.99-2.84,4.5-9.92,4.74-12.24.19-1.79-2.74-7.37-3.25-10.04-1.02-5.47-.37-13.69,2.19-18.7,1.78-3.48,3.13-2.58,5.45-4.35,1.52-1.16,1.31-5.69,1.67-7.8.86-5,4.27-15.33,7.84-18.83,9.35-9.19,32.5-3.09,43.09,1.9,5.21,2.46,6.84,4.85,13.37,3.77,8.97-1.5,14.9-5.66,25.4-6.21,1.77-.09,4.13.48,5.84.15,2.08-.41,3.89-2.78,5.74-3.81,6.79-3.76,13.11-.76,19.28,2.54-.91-6.28,3.8-12.13,8.63-15.49,3.79-2.64,10.67-4.69,15.29-4.76,4.75-.06,9.45,2.17,14.22,2.16.05-1.4-1.27-8.53-2.22-8.98-.85-.4-4.67.39-6.02.39-10.02.06-25.63-5-33.88-10.71-13.95-9.63-21.46-21.24-21.79-38.65-.25-12.67,14.21-35.42,22.1-45.34,3.67-4.62,11.77-11.47,12.73-16.99.45-2.52-.88-5.67,2.6-5.71,1.41,0,6.42,1.48,6.76,1.43,1.84-.35-2.78-4.19-.71-5.97.33-.27,1.04-.57,1.48-.62,4.41-.47,16.13,8.83,19.47,11.97,9.87,9.29,16.21,21.96,20.05,34.84l1.02-.25c3.22-4.18,6.84-8.06,10.49-11.89,1.71-1.79,3.88-3.37,5.56-5.19,9.14-9.9,7.59-22.47,21.03-29.76,7.56-4.09,13.31-4.38,21.61-4.83,4.41-.25,1.92-2.07.97-4.6-.74-1.99-2.91-8.27-1.6-9.9,1.06-1.32,2.89-.46,4.33-.82,4.09-1.01.02-5.65-.74-8.1-.83-2.66-1.09-4.81-.52-7.53.49-2.3,2.04-6.98,4.44-7.71,4.7-1.45,5.36,2.34,7.32,5.13,4.51,6.47,9.44,11.12,16,15.45,1.44.95,7.32,4.68,8.58,4.95,3.14.64,3.66-3.72,5.33-6.06,2.41-3.38,9.49-9.7,13.36-5.39,1.36,1.49,1.55,4.33,2.34,6.34,2.98,7.52,15.64,15.38,22.65,19.28,11,6.13,22.63,9.53,33.01,17.1.76.55,4.36,3.83,4.71,3.88.73.09,1.09-1.57,1.25-2.09,2.22-6.85,4.25-14.91,6.01-21.94,3.3-13.14,4.1-22.38,12.96-33.6,1.79-2.25,5.73-6.73,8.85-4.64,1.8,1.2-1.67,5.63-.42,7.67.91.79,3.3-4.32,5.82-3.4,1.02.37,1.13,1.55,1.86,2.36,3.35,3.75,20.95,10.69,26.66,14.05,21.57,12.68,37.19,36.46,25.98,61.59-7.03,15.73-17.25,30.54-33.73,37.27-1.18.49-6.83,2.1-7.13,2.65-.3.55.21,4.23.61,4.46,3.72-1.62,7.08-3.85,11.18-4.51,7.71-1.24,24.82.28,27.58,9.13.46,1.47.67,4.99,1.17,5.85.51.87,4.58,4.19,5.76,5.66,4.24,5.25,8.49,15.15,7.61,21.91-.21,1.58-1.17,3.33-1.2,4.71Z"/>
  </g>
  <g>
    <path class="cls-1" d="M266.22,108.72l82.27-11.04s3.44-1.44,5.67,3.27c1.94,4.11,13.73,38.84,16.68,47.59.56,1.67.88,3.39.89,5.15.01,4.78-1.19,13.95-9.65,20.3-11.91,8.93-24.52,10.68-43.7,18.11-15.44,4.37-6.68,16.89-11.06,33.63-.33,1.24-1.31,2.17-2.56,2.45-6.76,1.52-19.65-1.23-22.81-7.16-3.52-6.6-9.35-31.41-6.48-39.05,1.44-4.33,8.79-5.7,24.65-11.5,15.93-5.82,32.33-8.28,31.5-15.69-2.35-20.96-1.77-24.4-3.6-24.23-16.1,1.5-67.29,18.05-71.92,16.25-4.64-1.8-16.68-30.63-11.02-33.76,1.83-1.01,21.14-4.32,21.14-4.32Z"/>
    <path class="cls-1" d="M278.56,248.34c.16-1.91,1.46-3.52,3.3-4.06,7.49-2.21,26.35-5.08,34.11-4.82,9.33.3,3.28,22.65.17,24.3-7.27,3.83-18.4,7.59-28.69,4.26-4.84-1.56-9.35-14.16-8.88-19.67Z"/>
  </g>
</svg>