<?xml version="1.0" encoding="UTF-8"?>
<svg id="Layer_1" data-name="Layer 1" xmlns="http://www.w3.org/2000/svg" viewBox="0 0 263.45 294.43">
  <defs>
    <style>
      .cls-1 {
        fill: #78af58;
      }

      .cls-2 {
        fill: #fff;
      }
    </style>
  </defs>
  <path class="cls-2" d="M169.2,294.37c-2.7-.21-5.35-.88-7.88-2.01-.87.03-1.73.01-2.59-.05-14.43-1.1-22.32-14.86-24.91-19.38l-.29-.51c-.42-.73-.88-1.54-1.36-2.42-4.76.47-9.52.53-14.22.17-5.18-.4-10.35-1.3-15.47-2.71-4.06,5.67-11.35,9.74-18.51,13.43l-.16.08c-3.16,1.61-7.1,3.21-12.38,2.8-1.23-.09-2.45-.29-3.74-.6-.65-.16-1.26-.35-1.83-.55-.23.05-.47.09-.71.13-1.91.29-3.7.36-5.41.23-5.37-.41-10.21-2.79-14-6.88-.49-.53-.93-1.07-1.32-1.6-.24-.11-.48-.22-.72-.34l-.11-.06c-4.85-2.51-8.37-6.87-9.93-12.28-.1-.34-.19-.68-.27-1.02-3.09-.3-6.85-1.03-10.15-3.41-3.56-2.58-5.88-6.52-6.41-10.84-.34-2.68-.05-5.32.2-7.65.07-.66.18-1.66.19-2,0-1.11-.15-2.61-.31-4.2-.26-2.6-.56-5.55-.41-8.84.12-2.5.47-4.71.79-6.66.15-.94.3-1.83.38-2.58.14-1.28.26-2.73.4-4.24.27-3.03.55-6.26,1.01-9.5-4.09-.84-9.32-2.61-13.11-6.34-4.35-4.26-6.45-10-5.86-16.13.35-3.63,1.57-6.91,3.26-9.76-1.73-6.94-.83-14.32,2.72-19.99,1.37-2.19,3.08-4.05,5.05-5.53-1.61-2.58-3.08-5.4-4.34-8.59C-2.83,110.13-.38,84.6,13.5,64.48c7.5-10.85,16.16-18.45,25.81-22.67-.38-12.9,3.28-29.54,14.23-38.03C57.05,1.05,61.39-.28,65.74.05c6.78.52,12.82,4.95,15.77,11.57.88,2,1.59,3.97,2.28,5.88.58,1.61,1.36,3.79,2.1,5.34,0,0,.25.03.25.03,1.67.24,3.12.72,4.32,1.27.88-.17,1.81-.38,2.46-.52,1.27-.28,2.47-.54,3.59-.72l.65-.1c3.39-.55,7.03-1.13,10.84-1.46.19-.34.4-.68.62-1.03,3.78-5.97,10.17-9.23,17.07-8.71,1.44.11,2.88.38,4.31.8,3.46-3.19,7.74-6.27,12.34-7.56,2.75-.77,5.53-1.05,8.27-.84,5.91.45,11.24,3.26,14.62,7.7,1.55,2.03,2.65,4.33,3.27,6.77,2.39,1.91,4.34,4.4,5.64,7.31.26.59.49,1.18.69,1.78,4.21,1.71,7.85,3.78,11.22,5.7,1.63.93,3.18,1.81,4.73,2.62.18,0,.38,0,.58,0,2.02-2.18,4.5-5.31,5.45-7.03.1-.19.19-.4.28-.61,3.42-7.54,8.82-11.62,16.06-12.12.99-.06,1.91-.06,2.81,0,9.44.72,13.74,7.84,15.35,10.52l.26.42c5.86,9.6,7.66,21.6,5.15,32.65,8.3,5.55,15.38,15,18.76,22.13,3.55,7.5,8.44,25.87,7.92,35.9-.75,14.3-8.1,35.07-19.51,48.36,5.64,5.73,5.61,12.04,4.83,17.11-.47,3.09-1.29,7.18-3.19,11.29,1.24,5.98.06,11.95-3.39,16.72-4.03,5.56-10.87,9.07-18.59,9.61-.21,1.57-.49,3.25-.81,5.07-.16.93-.38,2.19-.43,2.61-.21,2.18-.41,4.42-.6,6.66-.46,5.32-.93,10.82-1.76,16.41l-.26,1.77c-.47,3.19-.99,6.81-1.81,10.02-2.11,8.31-8.94,13.61-17.59,13.78-.03.08-.07.15-.1.23-3.96,8.98-11.44,11.06-14.92,11.93-.57.48-1.26,1.01-2.08,1.53-4.23,2.68-9.07,3.89-14.02,3.52Z"/>
  <path class="cls-1" d="M235.16,181.15c-.56,3.63-1.53,7.53-3.79,10.47-.36.46-.93.58-1,1.26-.06.6,1.16,2.44,1.43,3.3,2.37,7.22-3.92,11-10.34,11-1.92,0-4.22-.93-5.86.21-3.65,2.56-5.13,4.16-9.79,5.33-.87.22-2.35.23-3.05.47-.47.17-.72.82-1.13,1.1-.93.67-2.15,1-3.3.77.31,4.11.9,7.76.11,11.9-1.02,5.44-6.03,12.22-9.69,16.32-1.57,1.75-5.04,4.39-5.31,6.63-.32,2.54,2.15,5.23,3.21,7.46,1.96,4.23,2.92,10.11.99,14.5-1.93,4.38-5.62,3.61-9.09,5.19-.9.41-1.72,1.59-2.66,2.17-2.97,1.9-6.43,1.91-9.53.32-.62-.31-1.95-1.45-2.35-1.5-.48-.06-1.69.45-2.38.52-7.38.87-12.69-6.85-15.91-12.48-1.96-3.43-4.5-7.6-3.87-11.67-.18-.21-4.55.94-5.28,1.09-14.5,2.66-28.46.66-41.85-5.44l-.32,3.18c-.04.4-2.48,5.21-2.88,5.87-2.22,3.57-10.07,7.59-13.96,9.6-2.37,1.21-3.96,1.74-6.69,1.08-1.22-.3-3.18-1.87-3.85-1.89-.65-.04-2.95,1.09-4.03,1.26-2.9.44-5.19-.26-7.19-2.42-.77-.83-1.94-3.37-2.42-3.67-.76-.48-2.4-.65-3.49-1.2-5.37-2.78-3.45-11.67-.95-15.92,2.76-4.72,8.07-6.86,5.75-13.22-2.51-6.91-7.01-10.71-7.93-18.74-.5-4.31.29-6.47.71-10.45.03-.28,0-1.87-.03-2.11-.14-.92-1.59-1.58-2.2-2.35-.97-1.21-.99-2.96-2.06-3.87-1.81-1.53-5.81-2.78-8.1-4.2-1.01-.62-4.08-3.34-4.61-3.52-.85-.26-3.46.4-4.66.38-2.85-.06-8.15-1.1-10.24-3.15-4.35-4.25-.24-10.93,3.86-13.63.16-.62-.91-1.45-1.25-2.02-4.06-6.94-2.06-18.56,8.26-16.01,1.16.29,4.74,2.06,5.16,2.07.66-.01,1.16-1.43,1.19-1.99.09-1.6-1.68-4.76-1.42-6.7-4.98-5.34-9.1-10.13-11.82-17-7.59-19.27-6.69-39.9,5.24-57.21,6.12-8.86,14.16-16.75,24.81-19.55,1.04-.27,4.52-.55,4.89-1.42.43-1.02-.5-2.33-.74-3.36-2.18-9.58-.08-26.9,8.18-33.31,2.73-2.13,5.78-.19,7.02,2.57,2.19,4.97,3.74,11.85,7.41,16.14.45.51,4.2,3.82,4.59,3.86.72.01,1.87-.92,3.22-.75,1.14.16,1.84,1.28,2.79,1.58,2.38.74,8.88-1.12,11.72-1.58,7.08-1.14,14.36-2.38,21.52-1.19-.86-2.74-1.72-4.92-.02-7.58,2.31-3.64,5.9-2.57,9.02-.66.75.45,3.22,2.92,3.65,2.84.27-.05,2.96-3.76,3.51-4.37,2.26-2.52,6.43-6.51,9.69-7.43,5.19-1.45,10.35,1.12,9.18,7.07-.18.89-1.34,2.67.07,3.04.59.16,1.46-.1,2.2-.02,3.47.4,5.9,4.94,3.8,7.9-.35.48-1.94,1.36-1.36,1.83.42.32,2.47.28,3.19.44,8.83,1.74,15.05,6.69,22.78,10.49,2.75,1.34,3.23.66,5.85.85,2.54.2,2.43,1.47,4.9-.16,3.82-2.5,9.97-9.98,12.19-14.02,1.32-2.38,1.8-5.42,5.26-5.66,3.19-.21,4.3,2.05,5.75,4.41,4.86,7.96,5.6,18.27,2.06,26.96-.32.81-2.39,4.33-2.26,4.66.42,1.12,6.4,3.56,7.69,4.24,6.12,3.25,12.78,11.44,15.72,17.64,2.99,6.32,6.97,22.44,6.62,29.3-.72,13.8-9.06,33.97-19.34,43.38-.86.8-4.2,3.02-4.55,3.56-.48.75-.76,2.7-1.18,3.75-.52,1.24-1.31,2.47-2.17,3.53-.52.67-2.64,2.42-2.81,2.74-.14.25,0,.42.29.36,4.19-1.53,8.8-2.63,12.7.14,2.85,2.04,3.04,3.25,2.52,6.65ZM210.02,214.32c-.71-1.93-3.05-1.03-4.43-.51-.67.24-1.26.45-1.85.83-5.16,3.32-2.65,7.15-3.48,12.08-.9,5.3-6.49,13.52-10.14,17.5-1.21,1.34-3.85,3.17-4.31,4.86-.43,1.56.72,3.78,1.37,5.25.44,1,2.13,4.68,3.1,4.83.1,3.2,2.2,3.58,4.84,3.84,1.39.14,3.08.39,4.41.45,2.55.1,4.41-.86,5.07-3.43.78-3.08,1.31-7.22,1.8-10.42,1.1-7.46,1.54-14.98,2.28-22.46.29-2.87,2.14-10.6,1.35-12.79ZM52.16,239.53c.38-.4.87-.43,1.36-1.06,1.37-1.81.74-4.3-.22-6.16-.76-1.47-2.36-2.72-3.34-4.14-3.33-4.84-6.21-14.63-5.15-20.42.17-.87,1.34-3.63,1.27-4.04-.05-.3-2.99-4.49-3.45-5.08-1.31-1.73-2.36-2.91-4.01-4.3-.1-.09-.19-.44-.51-.68-2.02-1.44-2.88-1.28-3.69,1.09-2.08,6.19-2.42,14.83-3.12,21.42-.31,2.75-.97,5.51-1.1,8.32-.19,4.18.74,8.34.74,12.52-.02,2.29-.73,5.94-.49,7.85.07.55.35,1.05.8,1.38,1.78,1.27,8.12,1.05,10.52,1.1.86,0,1.81.29,2.63.25,1.37-.08,2.48-2.45,3.36-3.42,1.36-1.5,2.95-3.18,4.39-4.64Z"/>
  <g>
    <path class="cls-2" d="M110.83,67.66l52.34,3.2s2.31-.47,3.11,2.72c.7,2.79,3.77,25.75,4.53,31.53.15,1.1.13,2.21-.08,3.3-.57,2.96-2.44,8.5-8.46,11.4-8.47,4.08-16.5,3.62-29.29,5.89-10.1.82-6.2,9.65-10.96,19.49-.35.73-1.07,1.18-1.89,1.21-4.38.12-12.03-3.16-13.26-7.23-1.38-4.52-1.96-20.61.75-24.99,1.42-2.51,6.15-2.46,16.68-4.12,10.58-1.66,21.05-1.18,21.44-5.88,1.1-13.28,1.88-15.34.73-15.45-10.16-1.04-43.91,2.98-46.56,1.29-2.65-1.68-6.6-21.02-2.71-22.27,1.26-.41,13.63-.09,13.63-.09Z"/>
    <path class="cls-2" d="M101.43,155.7c.33-1.16,1.34-2,2.54-2.12,4.91-.45,16.95.07,21.73,1.17,5.75,1.33-.73,14.44-2.86,15.08-4.97,1.49-12.33,2.46-18.3-.86-2.81-1.56-4.07-9.92-3.11-13.28Z"/>
  </g>
</svg>