<?xml version="1.0" encoding="UTF-8"?><svg xmlns="http://www.w3.org/2000/svg" viewBox="0 0 1920 1920"><defs><style>.cls-1{fill:#91f7ff;}.cls-1,.cls-2,.cls-3,.cls-4{stroke-width:0px;}.cls-2,.cls-3{fill:#78e3eb;}.cls-3{opacity:.56;}.cls-5{opacity:.66;}.cls-4{fill:#fff;}</style></defs><g id="Layer_1"><rect class="cls-2" x="-3.86" y="-2.5" width="1927" height="1925"/></g><g id="Layer_2"><path class="cls-4" d="M527.18-7.44c0,4.63,3.75,8.39,8.39,8.39s8.39-3.75,8.39-8.39c0-4.63-3.75-8.39-8.39-8.39-4.63,0-8.39,3.75-8.39,8.39Z"/><path class="cls-4" d="M1006.91,80.92c0,4.63,3.75,8.39,8.39,8.39,4.63,0,8.39-3.75,8.39-8.39,0-4.63-3.75-8.39-8.39-8.39-4.63,0-8.39,3.75-8.39,8.39Z"/><path class="cls-4" d="M1323.57,72.53c0,4.63,3.75,8.39,8.39,8.39s8.39-3.75,8.39-8.39-3.75-8.39-8.39-8.39-8.39,3.75-8.39,8.39Z"/><path class="cls-4" d="M1087.59,195.93c0-4.63-3.75-8.39-8.39-8.39-4.63,0-8.39,3.75-8.39,8.39,0,4.63,3.75,8.39,8.39,8.39,4.63,0,8.39-3.75,8.39-8.39Z"/><path class="cls-4" d="M1176.92,252.86c0-4.63-3.75-8.39-8.39-8.39-4.63,0-8.39,3.75-8.39,8.39,0,4.63,3.75,8.39,8.39,8.39,4.63,0,8.39-3.75,8.39-8.39Z"/><path class="cls-4" d="M1213.89,252.86c0-4.63-3.75-8.39-8.39-8.39-4.63,0-8.39,3.75-8.39,8.39,0,4.63,3.75,8.39,8.39,8.39,4.63,0,8.39-3.75,8.39-8.39Z"/><path class="cls-4" d="M1375.83,151.83c0-4.63-3.75-8.39-8.39-8.39-4.63,0-8.39,3.75-8.39,8.39s3.75,8.39,8.39,8.39c4.63,0,8.39-3.75,8.39-8.39Z"/><path class="cls-4" d="M778.85,212.71c0-4.63-3.75-8.39-8.39-8.39s-8.39,3.75-8.39,8.39,3.75,8.39,8.39,8.39c4.63,0,8.39-3.75,8.39-8.39Z"/><path class="cls-4" d="M426.62,212.71c0-4.63-3.75-8.39-8.39-8.39-4.63,0-8.39,3.75-8.39,8.39,0,4.63,3.75,8.39,8.39,8.39,4.63,0,8.39-3.75,8.39-8.39Z"/><path class="cls-4" d="M1447.27,212.71c0-4.63-3.75-8.39-8.39-8.39-4.63,0-8.39,3.75-8.39,8.39,0,4.63,3.75,8.39,8.39,8.39,4.63,0,8.39-3.75,8.39-8.39Z"/><path class="cls-4" d="M874.84,261.37c0-4.63-3.75-8.39-8.39-8.39s-8.39,3.75-8.39,8.39c0,4.63,3.75,8.39,8.39,8.39s8.39-3.75,8.39-8.39Z"/><circle class="cls-4" cx="233.74" cy="210.94" r="8.39"/><path class="cls-4" d="M286.7,210.94c0-4.63-3.75-8.39-8.39-8.39-4.63,0-8.39,3.75-8.39,8.39,0,4.63,3.75,8.39,8.39,8.39,4.63,0,8.39-3.75,8.39-8.39Z"/><path class="cls-4" d="M1640.94,212.71c0-4.63-3.75-8.39-8.39-8.39s-8.39,3.75-8.39,8.39c0,4.63,3.75,8.39,8.39,8.39,4.63,0,8.39-3.75,8.39-8.39Z"/><path class="cls-4" d="M896.1,63.47c0-4.63-3.75-8.39-8.39-8.39-4.63,0-8.39,3.75-8.39,8.39,0,4.63,3.75,8.39,8.39,8.39,4.63,0,8.39-3.75,8.39-8.39Z"/><path class="cls-4" d="M534.09,244.34c0-4.63-3.75-8.39-8.39-8.39-4.63,0-8.39,3.75-8.39,8.39,0,4.63,3.75,8.39,8.39,8.39s8.39-3.75,8.39-8.39Z"/><path class="cls-4" d="M579.44,71.85c0-4.63-3.75-8.39-8.39-8.39s-8.39,3.75-8.39,8.39,3.75,8.39,8.39,8.39,8.39-3.75,8.39-8.39Z"/><path class="cls-4" d="M1242.58,195.93c0-4.63-3.75-8.39-8.39-8.39-4.63,0-8.39,3.75-8.39,8.39s3.75,8.39,8.39,8.39,8.39-3.75,8.39-8.39Z"/><path class="cls-4" d="M801.55,143.89c0,4.63,3.75,8.39,8.39,8.39,4.63,0,8.39-3.75,8.39-8.39,0-4.63-3.75-8.39-8.39-8.39-4.63,0-8.39,3.75-8.39,8.39Z"/><path class="cls-4" d="M705.79,160.42c0,4.63,3.75,8.39,8.39,8.39,4.63,0,8.39-3.75,8.39-8.39,0-4.63-3.75-8.39-8.39-8.39-4.63,0-8.39,3.75-8.39,8.39Z"/><path class="cls-4" d="M742.28,64.02c0,4.63,3.75,8.39,8.39,8.39,4.63,0,8.39-3.75,8.39-8.39s-3.75-8.39-8.39-8.39-8.39,3.75-8.39,8.39Z"/><path class="cls-4" d="M522.49,141.17c0,4.63,3.75,8.39,8.39,8.39s8.39-3.75,8.39-8.39-3.75-8.39-8.39-8.39c-4.63,0-8.39,3.75-8.39,8.39Z"/><path class="cls-4" d="M1119.47,80.29c0,4.63,3.75,8.39,8.39,8.39,4.63,0,8.39-3.75,8.39-8.39s-3.75-8.39-8.39-8.39c-4.63,0-8.39,3.75-8.39,8.39Z"/><path class="cls-4" d="M1471.7,80.29c0,4.63,3.75,8.39,8.39,8.39,4.63,0,8.39-3.75,8.39-8.39,0-4.63-3.75-8.39-8.39-8.39-4.63,0-8.39,3.75-8.39,8.39Z"/><path class="cls-4" d="M451.05,80.29c0,4.63,3.75,8.39,8.39,8.39,4.63,0,8.39-3.75,8.39-8.39s-3.75-8.39-8.39-8.39c-4.63,0-8.39,3.75-8.39,8.39Z"/><path class="cls-4" d="M1074.9,80.29c0,4.63,3.75,8.39,8.39,8.39s8.39-3.75,8.39-8.39c0-4.63-3.75-8.39-8.39-8.39s-8.39,3.75-8.39,8.39Z"/><circle class="cls-4" cx="1664.59" cy="82.06" r="8.39"/><path class="cls-4" d="M1611.63,82.06c0,4.63,3.75,8.39,8.39,8.39,4.63,0,8.39-3.75,8.39-8.39s-3.75-8.39-8.39-8.39-8.39,3.75-8.39,8.39Z"/><path class="cls-4" d="M257.39,80.29c0,4.63,3.75,8.39,8.39,8.39s8.39-3.75,8.39-8.39c0-4.63-3.75-8.39-8.39-8.39-4.63,0-8.39,3.75-8.39,8.39Z"/><path class="cls-4" d="M1002.22,229.53c0,4.63,3.75,8.39,8.39,8.39,4.63,0,8.39-3.75,8.39-8.39,0-4.63-3.75-8.39-8.39-8.39-4.63,0-8.39,3.75-8.39,8.39Z"/><path class="cls-4" d="M1364.23,48.66c0,4.63,3.75,8.39,8.39,8.39s8.39-3.75,8.39-8.39c0-4.63-3.75-8.39-8.39-8.39s-8.39,3.75-8.39,8.39Z"/><path class="cls-4" d="M1318.88,221.15c0,4.63,3.75,8.39,8.39,8.39s8.39-3.75,8.39-8.39c0-4.63-3.75-8.39-8.39-8.39s-8.39,3.75-8.39,8.39Z"/><path class="cls-4" d="M655.74,97.07c0,4.63,3.75,8.39,8.39,8.39s8.39-3.75,8.39-8.39-3.75-8.39-8.39-8.39c-4.63,0-8.39,3.75-8.39,8.39Z"/><path class="cls-4" d="M996.6,317.01c0-4.63-3.75-8.39-8.39-8.39s-8.39,3.75-8.39,8.39c0,4.63,3.75,8.39,8.39,8.39s8.39-3.75,8.39-8.39Z"/><path class="cls-4" d="M1077.67,317.01c0-4.63-3.75-8.39-8.39-8.39-4.63,0-8.39,3.75-8.39,8.39,0,4.63,3.75,8.39,8.39,8.39,4.63,0,8.39-3.75,8.39-8.39Z"/><path class="cls-4" d="M1150.44,361.08c0-4.63-3.75-8.39-8.39-8.39-4.63,0-8.39,3.75-8.39,8.39,0,4.63,3.75,8.39,8.39,8.39s8.39-3.75,8.39-8.39Z"/><path class="cls-4" d="M1371.15,300.44c0-4.63-3.75-8.39-8.39-8.39-4.63,0-8.39,3.75-8.39,8.39s3.75,8.39,8.39,8.39c4.63,0,8.39-3.75,8.39-8.39Z"/><path class="cls-4" d="M774.16,361.32c0-4.63-3.75-8.39-8.39-8.39s-8.39,3.75-8.39,8.39,3.75,8.39,8.39,8.39c4.63,0,8.39-3.75,8.39-8.39Z"/><path class="cls-4" d="M421.93,361.32c0-4.63-3.75-8.39-8.39-8.39-4.63,0-8.39,3.75-8.39,8.39,0,4.63,3.75,8.39,8.39,8.39,4.63,0,8.39-3.75,8.39-8.39Z"/><path class="cls-4" d="M1442.59,361.32c0-4.63-3.75-8.39-8.39-8.39-4.63,0-8.39,3.75-8.39,8.39,0,4.63,3.75,8.39,8.39,8.39,4.63,0,8.39-3.75,8.39-8.39Z"/><path class="cls-4" d="M818.73,361.32c0-4.63-3.75-8.39-8.39-8.39s-8.39,3.75-8.39,8.39c0,4.63,3.75,8.39,8.39,8.39s8.39-3.75,8.39-8.39Z"/><circle class="cls-4" cx="356.67" cy="291.61" r="8.39"/><path class="cls-4" d="M409.63,291.61c0-4.63-3.75-8.39-8.39-8.39-4.63,0-8.39,3.75-8.39,8.39,0,4.63,3.75,8.39,8.39,8.39s8.39-3.75,8.39-8.39Z"/><path class="cls-4" d="M1636.25,361.32c0-4.63-3.75-8.39-8.39-8.39s-8.39,3.75-8.39,8.39c0,4.63,3.75,8.39,8.39,8.39,4.63,0,8.39-3.75,8.39-8.39Z"/><path class="cls-4" d="M891.42,212.08c0-4.63-3.75-8.39-8.39-8.39-4.63,0-8.39,3.75-8.39,8.39,0,4.63,3.75,8.39,8.39,8.39,4.63,0,8.39-3.75,8.39-8.39Z"/><path class="cls-4" d="M529.4,392.96c0-4.63-3.75-8.39-8.39-8.39s-8.39,3.75-8.39,8.39c0,4.63,3.75,8.39,8.39,8.39s8.39-3.75,8.39-8.39Z"/><path class="cls-4" d="M574.75,220.47c0-4.63-3.75-8.39-8.39-8.39s-8.39,3.75-8.39,8.39c0,4.63,3.75,8.39,8.39,8.39s8.39-3.75,8.39-8.39Z"/><path class="cls-4" d="M1187.4,361.08c0-4.63-3.75-8.39-8.39-8.39-4.63,0-8.39,3.75-8.39,8.39,0,4.63,3.75,8.39,8.39,8.39s8.39-3.75,8.39-8.39Z"/><g class="cls-5"><path class="cls-1" d="M805.42,150.45c0,4.63,3.75,8.39,8.39,8.39s8.39-3.75,8.39-8.39c0-4.63-3.75-8.39-8.39-8.39-4.63,0-8.39,3.75-8.39,8.39Z"/><path class="cls-1" d="M724.35,150.45c0,4.63,3.75,8.39,8.39,8.39,4.63,0,8.39-3.75,8.39-8.39,0-4.63-3.75-8.39-8.39-8.39-4.63,0-8.39,3.75-8.39,8.39Z"/><path class="cls-1" d="M687.39,150.45c0,4.63,3.75,8.39,8.39,8.39,4.63,0,8.39-3.75,8.39-8.39s-3.75-8.39-8.39-8.39-8.39,3.75-8.39,8.39Z"/><path class="cls-1" d="M517.18,194.56c0,4.63,3.75,8.39,8.39,8.39s8.39-3.75,8.39-8.39c0-4.63-3.75-8.39-8.39-8.39-4.63,0-8.39,3.75-8.39,8.39Z"/><path class="cls-1" d="M1114.16,133.68c0,4.63,3.75,8.39,8.39,8.39,4.63,0,8.39-3.75,8.39-8.39s-3.75-8.39-8.39-8.39c-4.63,0-8.39,3.75-8.39,8.39Z"/><path class="cls-1" d="M1466.39,133.68c0,4.63,3.75,8.39,8.39,8.39,4.63,0,8.39-3.75,8.39-8.39s-3.75-8.39-8.39-8.39c-4.63,0-8.39,3.75-8.39,8.39Z"/><path class="cls-1" d="M445.74,133.68c0,4.63,3.75,8.39,8.39,8.39,4.63,0,8.39-3.75,8.39-8.39s-3.75-8.39-8.39-8.39c-4.63,0-8.39,3.75-8.39,8.39Z"/><path class="cls-1" d="M1069.59,133.68c0,4.63,3.75,8.39,8.39,8.39s8.39-3.75,8.39-8.39c0-4.63-3.75-8.39-8.39-8.39s-8.39,3.75-8.39,8.39Z"/><circle class="cls-1" cx="1659.28" cy="135.45" r="8.39"/><path class="cls-1" d="M1606.32,135.45c0,4.63,3.75,8.39,8.39,8.39,4.63,0,8.39-3.75,8.39-8.39,0-4.63-3.75-8.39-8.39-8.39s-8.39,3.75-8.39,8.39Z"/><path class="cls-1" d="M252.08,133.68c0,4.63,3.75,8.39,8.39,8.39s8.39-3.75,8.39-8.39c0-4.63-3.75-8.39-8.39-8.39-4.63,0-8.39,3.75-8.39,8.39Z"/><path class="cls-1" d="M996.91,282.92c0,4.63,3.75,8.39,8.39,8.39,4.63,0,8.39-3.75,8.39-8.39,0-4.63-3.75-8.39-8.39-8.39-4.63,0-8.39,3.75-8.39,8.39Z"/><path class="cls-1" d="M1358.92,102.04c0,4.63,3.75,8.39,8.39,8.39s8.39-3.75,8.39-8.39c0-4.63-3.75-8.39-8.39-8.39s-8.39,3.75-8.39,8.39Z"/><path class="cls-1" d="M1313.57,274.53c0,4.63,3.75,8.39,8.39,8.39s8.39-3.75,8.39-8.39-3.75-8.39-8.39-8.39-8.39,3.75-8.39,8.39Z"/><path class="cls-1" d="M650.43,150.45c0,4.63,3.75,8.39,8.39,8.39s8.39-3.75,8.39-8.39-3.75-8.39-8.39-8.39c-4.63,0-8.39,3.75-8.39,8.39Z"/><path class="cls-1" d="M1077.59,397.93c0-4.63-3.75-8.39-8.39-8.39-4.63,0-8.39,3.75-8.39,8.39,0,4.63,3.75,8.39,8.39,8.39,4.63,0,8.39-3.75,8.39-8.39Z"/><path class="cls-1" d="M1166.92,454.86c0-4.63-3.75-8.39-8.39-8.39-4.63,0-8.39,3.75-8.39,8.39,0,4.63,3.75,8.39,8.39,8.39,4.63,0,8.39-3.75,8.39-8.39Z"/><path class="cls-1" d="M1203.89,454.86c0-4.63-3.75-8.39-8.39-8.39-4.63,0-8.39,3.75-8.39,8.39,0,4.63,3.75,8.39,8.39,8.39,4.63,0,8.39-3.75,8.39-8.39Z"/><path class="cls-1" d="M1365.83,353.83c0-4.63-3.75-8.39-8.39-8.39-4.63,0-8.39,3.75-8.39,8.39s3.75,8.39,8.39,8.39c4.63,0,8.39-3.75,8.39-8.39Z"/><path class="cls-1" d="M768.85,414.71c0-4.63-3.75-8.39-8.39-8.39s-8.39,3.75-8.39,8.39,3.75,8.39,8.39,8.39c4.63,0,8.39-3.75,8.39-8.39Z"/><path class="cls-1" d="M416.62,414.71c0-4.63-3.75-8.39-8.39-8.39-4.63,0-8.39,3.75-8.39,8.39,0,4.63,3.75,8.39,8.39,8.39,4.63,0,8.39-3.75,8.39-8.39Z"/><path class="cls-1" d="M1437.27,414.71c0-4.63-3.75-8.39-8.39-8.39-4.63,0-8.39,3.75-8.39,8.39,0,4.63,3.75,8.39,8.39,8.39,4.63,0,8.39-3.75,8.39-8.39Z"/><path class="cls-1" d="M864.84,463.37c0-4.63-3.75-8.39-8.39-8.39s-8.39,3.75-8.39,8.39c0,4.63,3.75,8.39,8.39,8.39s8.39-3.75,8.39-8.39Z"/><circle class="cls-1" cx="223.74" cy="412.94" r="8.39"/><path class="cls-1" d="M276.7,412.94c0-4.63-3.75-8.39-8.39-8.39-4.63,0-8.39,3.75-8.39,8.39,0,4.63,3.75,8.39,8.39,8.39,4.63,0,8.39-3.75,8.39-8.39Z"/><path class="cls-1" d="M1630.94,414.71c0-4.63-3.75-8.39-8.39-8.39s-8.39,3.75-8.39,8.39c0,4.63,3.75,8.39,8.39,8.39,4.63,0,8.39-3.75,8.39-8.39Z"/><path class="cls-1" d="M886.1,265.47c0-4.63-3.75-8.39-8.39-8.39-4.63,0-8.39,3.75-8.39,8.39,0,4.63,3.75,8.39,8.39,8.39,4.63,0,8.39-3.75,8.39-8.39Z"/><path class="cls-1" d="M524.09,446.34c0-4.63-3.75-8.39-8.39-8.39-4.63,0-8.39,3.75-8.39,8.39,0,4.63,3.75,8.39,8.39,8.39s8.39-3.75,8.39-8.39Z"/><path class="cls-1" d="M569.44,273.85c0-4.63-3.75-8.39-8.39-8.39s-8.39,3.75-8.39,8.39,3.75,8.39,8.39,8.39,8.39-3.75,8.39-8.39Z"/><path class="cls-1" d="M1232.58,397.93c0-4.63-3.75-8.39-8.39-8.39-4.63,0-8.39,3.75-8.39,8.39s3.75,8.39,8.39,8.39,8.39-3.75,8.39-8.39Z"/><path class="cls-1" d="M791.55,345.89c0,4.63,3.75,8.39,8.39,8.39,4.63,0,8.39-3.75,8.39-8.39,0-4.63-3.75-8.39-8.39-8.39-4.63,0-8.39,3.75-8.39,8.39Z"/><path class="cls-1" d="M695.79,362.42c0,4.63,3.75,8.39,8.39,8.39,4.63,0,8.39-3.75,8.39-8.39,0-4.63-3.75-8.39-8.39-8.39-4.63,0-8.39,3.75-8.39,8.39Z"/><path class="cls-1" d="M732.28,266.02c0,4.63,3.75,8.39,8.39,8.39,4.63,0,8.39-3.75,8.39-8.39s-3.75-8.39-8.39-8.39-8.39,3.75-8.39,8.39Z"/><path class="cls-1" d="M512.49,343.17c0,4.63,3.75,8.39,8.39,8.39s8.39-3.75,8.39-8.39-3.75-8.39-8.39-8.39c-4.63,0-8.39,3.75-8.39,8.39Z"/><path class="cls-1" d="M1109.47,282.29c0,4.63,3.75,8.39,8.39,8.39,4.63,0,8.39-3.75,8.39-8.39s-3.75-8.39-8.39-8.39c-4.63,0-8.39,3.75-8.39,8.39Z"/><path class="cls-1" d="M1461.7,282.29c0,4.63,3.75,8.39,8.39,8.39,4.63,0,8.39-3.75,8.39-8.39,0-4.63-3.75-8.39-8.39-8.39-4.63,0-8.39,3.75-8.39,8.39Z"/><path class="cls-1" d="M441.05,282.29c0,4.63,3.75,8.39,8.39,8.39,4.63,0,8.39-3.75,8.39-8.39s-3.75-8.39-8.39-8.39c-4.63,0-8.39,3.75-8.39,8.39Z"/><path class="cls-1" d="M1064.9,282.29c0,4.63,3.75,8.39,8.39,8.39s8.39-3.75,8.39-8.39c0-4.63-3.75-8.39-8.39-8.39s-8.39,3.75-8.39,8.39Z"/><circle class="cls-1" cx="1654.59" cy="284.06" r="8.39"/><path class="cls-1" d="M1601.63,284.06c0,4.63,3.75,8.39,8.39,8.39,4.63,0,8.39-3.75,8.39-8.39s-3.75-8.39-8.39-8.39-8.39,3.75-8.39,8.39Z"/><path class="cls-1" d="M247.39,282.29c0,4.63,3.75,8.39,8.39,8.39s8.39-3.75,8.39-8.39c0-4.63-3.75-8.39-8.39-8.39-4.63,0-8.39,3.75-8.39,8.39Z"/><path class="cls-1" d="M992.22,431.53c0,4.63,3.75,8.39,8.39,8.39,4.63,0,8.39-3.75,8.39-8.39,0-4.63-3.75-8.39-8.39-8.39-4.63,0-8.39,3.75-8.39,8.39Z"/><path class="cls-1" d="M1354.23,250.66c0,4.63,3.75,8.39,8.39,8.39s8.39-3.75,8.39-8.39c0-4.63-3.75-8.39-8.39-8.39s-8.39,3.75-8.39,8.39Z"/><path class="cls-1" d="M1308.88,423.15c0,4.63,3.75,8.39,8.39,8.39s8.39-3.75,8.39-8.39c0-4.63-3.75-8.39-8.39-8.39s-8.39,3.75-8.39,8.39Z"/><path class="cls-1" d="M645.74,299.07c0,4.63,3.75,8.39,8.39,8.39s8.39-3.75,8.39-8.39-3.75-8.39-8.39-8.39c-4.63,0-8.39,3.75-8.39,8.39Z"/><path class="cls-1" d="M986.6,519.01c0-4.63-3.75-8.39-8.39-8.39s-8.39,3.75-8.39,8.39c0,4.63,3.75,8.39,8.39,8.39s8.39-3.75,8.39-8.39Z"/><path class="cls-1" d="M1067.67,519.01c0-4.63-3.75-8.39-8.39-8.39-4.63,0-8.39,3.75-8.39,8.39,0,4.63,3.75,8.39,8.39,8.39,4.63,0,8.39-3.75,8.39-8.39Z"/><path class="cls-1" d="M1140.44,563.08c0-4.63-3.75-8.39-8.39-8.39-4.63,0-8.39,3.75-8.39,8.39,0,4.63,3.75,8.39,8.39,8.39s8.39-3.75,8.39-8.39Z"/><path class="cls-1" d="M1361.15,502.44c0-4.63-3.75-8.39-8.39-8.39-4.63,0-8.39,3.75-8.39,8.39s3.75,8.39,8.39,8.39c4.63,0,8.39-3.75,8.39-8.39Z"/><path class="cls-1" d="M764.16,563.32c0-4.63-3.75-8.39-8.39-8.39s-8.39,3.75-8.39,8.39,3.75,8.39,8.39,8.39c4.63,0,8.39-3.75,8.39-8.39Z"/><path class="cls-1" d="M411.93,563.32c0-4.63-3.75-8.39-8.39-8.39-4.63,0-8.39,3.75-8.39,8.39,0,4.63,3.75,8.39,8.39,8.39,4.63,0,8.39-3.75,8.39-8.39Z"/><path class="cls-1" d="M1432.59,563.32c0-4.63-3.75-8.39-8.39-8.39-4.63,0-8.39,3.75-8.39,8.39,0,4.63,3.75,8.39,8.39,8.39,4.63,0,8.39-3.75,8.39-8.39Z"/><path class="cls-1" d="M808.73,563.32c0-4.63-3.75-8.39-8.39-8.39s-8.39,3.75-8.39,8.39c0,4.63,3.75,8.39,8.39,8.39s8.39-3.75,8.39-8.39Z"/><circle class="cls-1" cx="346.67" cy="493.61" r="8.39"/><path class="cls-1" d="M399.63,493.61c0-4.63-3.75-8.39-8.39-8.39-4.63,0-8.39,3.75-8.39,8.39,0,4.63,3.75,8.39,8.39,8.39s8.39-3.75,8.39-8.39Z"/><path class="cls-1" d="M1626.25,563.32c0-4.63-3.75-8.39-8.39-8.39s-8.39,3.75-8.39,8.39c0,4.63,3.75,8.39,8.39,8.39,4.63,0,8.39-3.75,8.39-8.39Z"/><path class="cls-1" d="M881.42,414.08c0-4.63-3.75-8.39-8.39-8.39-4.63,0-8.39,3.75-8.39,8.39,0,4.63,3.75,8.39,8.39,8.39,4.63,0,8.39-3.75,8.39-8.39Z"/><path class="cls-1" d="M519.4,594.96c0-4.63-3.75-8.39-8.39-8.39s-8.39,3.75-8.39,8.39c0,4.63,3.75,8.39,8.39,8.39s8.39-3.75,8.39-8.39Z"/><path class="cls-1" d="M564.75,422.47c0-4.63-3.75-8.39-8.39-8.39s-8.39,3.75-8.39,8.39c0,4.63,3.75,8.39,8.39,8.39s8.39-3.75,8.39-8.39Z"/><path class="cls-1" d="M1177.4,563.08c0-4.63-3.75-8.39-8.39-8.39-4.63,0-8.39,3.75-8.39,8.39,0,4.63,3.75,8.39,8.39,8.39s8.39-3.75,8.39-8.39Z"/></g><path class="cls-1" d="M1132.58,451.13c0-4.63-3.75-8.39-8.39-8.39s-8.39,3.75-8.39,8.39c0,4.63,3.75,8.39,8.39,8.39,4.63,0,8.39-3.75,8.39-8.39Z"/><path class="cls-1" d="M1213.65,451.13c0-4.63-3.75-8.39-8.39-8.39-4.63,0-8.39,3.75-8.39,8.39,0,4.63,3.75,8.39,8.39,8.39,4.63,0,8.39-3.75,8.39-8.39Z"/><path class="cls-1" d="M1250.61,451.13c0-4.63-3.75-8.39-8.39-8.39-4.63,0-8.39,3.75-8.39,8.39,0,4.63,3.75,8.39,8.39,8.39s8.39-3.75,8.39-8.39Z"/><path class="cls-1" d="M1420.82,407.03c0-4.63-3.75-8.39-8.39-8.39s-8.39,3.75-8.39,8.39c0,4.63,3.75,8.39,8.39,8.39,4.63,0,8.39-3.75,8.39-8.39Z"/><path class="cls-1" d="M823.84,467.91c0-4.63-3.75-8.39-8.39-8.39-4.63,0-8.39,3.75-8.39,8.39,0,4.63,3.75,8.39,8.39,8.39,4.63,0,8.39-3.75,8.39-8.39Z"/><path class="cls-1" d="M471.61,467.91c0-4.63-3.75-8.39-8.39-8.39-4.63,0-8.39,3.75-8.39,8.39,0,4.63,3.75,8.39,8.39,8.39,4.63,0,8.39-3.75,8.39-8.39Z"/><path class="cls-1" d="M1492.26,467.91c0-4.63-3.75-8.39-8.39-8.39-4.63,0-8.39,3.75-8.39,8.39s3.75,8.39,8.39,8.39c4.63,0,8.39-3.75,8.39-8.39Z"/><path class="cls-1" d="M868.41,467.91c0-4.63-3.75-8.39-8.39-8.39s-8.39,3.75-8.39,8.39c0,4.63,3.75,8.39,8.39,8.39s8.39-3.75,8.39-8.39Z"/><circle class="cls-1" cx="278.72" cy="466.14" r="8.39"/><path class="cls-1" d="M331.68,466.14c0-4.63-3.75-8.39-8.39-8.39-4.63,0-8.39,3.75-8.39,8.39,0,4.63,3.75,8.39,8.39,8.39s8.39-3.75,8.39-8.39Z"/><path class="cls-1" d="M1685.92,467.91c0-4.63-3.75-8.39-8.39-8.39s-8.39,3.75-8.39,8.39c0,4.63,3.75,8.39,8.39,8.39,4.63,0,8.39-3.75,8.39-8.39Z"/><path class="cls-1" d="M941.09,318.67c0-4.63-3.75-8.39-8.39-8.39-4.63,0-8.39,3.75-8.39,8.39,0,4.63,3.75,8.39,8.39,8.39,4.63,0,8.39-3.75,8.39-8.39Z"/><path class="cls-1" d="M579.08,499.54c0-4.63-3.75-8.39-8.39-8.39s-8.39,3.75-8.39,8.39c0,4.63,3.75,8.39,8.39,8.39s8.39-3.75,8.39-8.39Z"/><path class="cls-1" d="M624.43,327.05c0-4.63-3.75-8.39-8.39-8.39s-8.39,3.75-8.39,8.39,3.75,8.39,8.39,8.39,8.39-3.75,8.39-8.39Z"/><path class="cls-1" d="M1287.57,451.13c0-4.63-3.75-8.39-8.39-8.39s-8.39,3.75-8.39,8.39c0,4.63,3.75,8.39,8.39,8.39,4.63,0,8.39-3.75,8.39-8.39Z"/><path class="cls-1" d="M860.41,203.65c0,4.63,3.75,8.39,8.39,8.39s8.39-3.75,8.39-8.39c0-4.63-3.75-8.39-8.39-8.39-4.63,0-8.39,3.75-8.39,8.39Z"/><path class="cls-1" d="M771.08,146.73c0,4.63,3.75,8.39,8.39,8.39,4.63,0,8.39-3.75,8.39-8.39,0-4.63-3.75-8.39-8.39-8.39-4.63,0-8.39,3.75-8.39,8.39Z"/><path class="cls-1" d="M734.11,146.73c0,4.63,3.75,8.39,8.39,8.39,4.63,0,8.39-3.75,8.39-8.39s-3.75-8.39-8.39-8.39-8.39,3.75-8.39,8.39Z"/><path class="cls-1" d="M572.17,247.76c0,4.63,3.75,8.39,8.39,8.39,4.63,0,8.39-3.75,8.39-8.39,0-4.63-3.75-8.39-8.39-8.39-4.63,0-8.39,3.75-8.39,8.39Z"/><path class="cls-1" d="M1169.15,186.88c0,4.63,3.75,8.39,8.39,8.39s8.39-3.75,8.39-8.39-3.75-8.39-8.39-8.39c-4.63,0-8.39,3.75-8.39,8.39Z"/><path class="cls-1" d="M1521.38,186.88c0,4.63,3.75,8.39,8.39,8.39,4.63,0,8.39-3.75,8.39-8.39,0-4.63-3.75-8.39-8.39-8.39-4.63,0-8.39,3.75-8.39,8.39Z"/><path class="cls-1" d="M500.73,186.88c0,4.63,3.75,8.39,8.39,8.39,4.63,0,8.39-3.75,8.39-8.39,0-4.63-3.75-8.39-8.39-8.39-4.63,0-8.39,3.75-8.39,8.39Z"/><path class="cls-1" d="M1073.16,138.22c0,4.63,3.75,8.39,8.39,8.39s8.39-3.75,8.39-8.39c0-4.63-3.75-8.39-8.39-8.39s-8.39,3.75-8.39,8.39Z"/><circle class="cls-1" cx="1714.26" cy="188.65" r="8.39"/><path class="cls-1" d="M1661.3,188.65c0,4.63,3.75,8.39,8.39,8.39,4.63,0,8.39-3.75,8.39-8.39,0-4.63-3.75-8.39-8.39-8.39-4.63,0-8.39,3.75-8.39,8.39Z"/><path class="cls-1" d="M307.06,186.88c0,4.63,3.75,8.39,8.39,8.39s8.39-3.75,8.39-8.39c0-4.63-3.75-8.39-8.39-8.39-4.63,0-8.39,3.75-8.39,8.39Z"/><path class="cls-1" d="M1051.9,336.12c0,4.63,3.75,8.39,8.39,8.39,4.63,0,8.39-3.75,8.39-8.39,0-4.63-3.75-8.39-8.39-8.39-4.63,0-8.39,3.75-8.39,8.39Z"/><path class="cls-1" d="M1413.91,155.24c0,4.63,3.75,8.39,8.39,8.39,4.63,0,8.39-3.75,8.39-8.39s-3.75-8.39-8.39-8.39-8.39,3.75-8.39,8.39Z"/><path class="cls-1" d="M1368.56,327.73c0,4.63,3.75,8.39,8.39,8.39s8.39-3.75,8.39-8.39c0-4.63-3.75-8.39-8.39-8.39s-8.39,3.75-8.39,8.39Z"/><path class="cls-1" d="M705.42,203.65c0,4.63,3.75,8.39,8.39,8.39,4.63,0,8.39-3.75,8.39-8.39s-3.75-8.39-8.39-8.39-8.39,3.75-8.39,8.39Z"/><path class="cls-1" d="M1146.45,255.69c0-4.63-3.75-8.39-8.39-8.39-4.63,0-8.39,3.75-8.39,8.39,0,4.63,3.75,8.39,8.39,8.39,4.63,0,8.39-3.75,8.39-8.39Z"/><path class="cls-1" d="M1242.21,239.17c0-4.63-3.75-8.39-8.39-8.39-4.63,0-8.39,3.75-8.39,8.39,0,4.63,3.75,8.39,8.39,8.39,4.63,0,8.39-3.75,8.39-8.39Z"/><path class="cls-1" d="M1205.72,335.57c0-4.63-3.75-8.39-8.39-8.39-4.63,0-8.39,3.75-8.39,8.39s3.75,8.39,8.39,8.39,8.39-3.75,8.39-8.39Z"/><path class="cls-1" d="M1425.51,258.41c0-4.63-3.75-8.39-8.39-8.39s-8.39,3.75-8.39,8.39,3.75,8.39,8.39,8.39c4.63,0,8.39-3.75,8.39-8.39Z"/><path class="cls-1" d="M828.53,319.29c0-4.63-3.75-8.39-8.39-8.39-4.63,0-8.39,3.75-8.39,8.39s3.75,8.39,8.39,8.39c4.63,0,8.39-3.75,8.39-8.39Z"/><path class="cls-1" d="M476.3,319.29c0-4.63-3.75-8.39-8.39-8.39-4.63,0-8.39,3.75-8.39,8.39,0,4.63,3.75,8.39,8.39,8.39,4.63,0,8.39-3.75,8.39-8.39Z"/><path class="cls-1" d="M1496.95,319.29c0-4.63-3.75-8.39-8.39-8.39-4.63,0-8.39,3.75-8.39,8.39,0,4.63,3.75,8.39,8.39,8.39,4.63,0,8.39-3.75,8.39-8.39Z"/><path class="cls-1" d="M873.1,319.29c0-4.63-3.75-8.39-8.39-8.39s-8.39,3.75-8.39,8.39c0,4.63,3.75,8.39,8.39,8.39s8.39-3.75,8.39-8.39Z"/><circle class="cls-1" cx="283.41" cy="317.52" r="8.39"/><path class="cls-1" d="M336.37,317.52c0-4.63-3.75-8.39-8.39-8.39-4.63,0-8.39,3.75-8.39,8.39,0,4.63,3.75,8.39,8.39,8.39s8.39-3.75,8.39-8.39Z"/><path class="cls-1" d="M1690.61,319.29c0-4.63-3.75-8.39-8.39-8.39s-8.39,3.75-8.39,8.39,3.75,8.39,8.39,8.39c4.63,0,8.39-3.75,8.39-8.39Z"/><path class="cls-1" d="M945.78,170.05c0-4.63-3.75-8.39-8.39-8.39-4.63,0-8.39,3.75-8.39,8.39,0,4.63,3.75,8.39,8.39,8.39,4.63,0,8.39-3.75,8.39-8.39Z"/><path class="cls-1" d="M583.77,350.93c0-4.63-3.75-8.39-8.39-8.39s-8.39,3.75-8.39,8.39c0,4.63,3.75,8.39,8.39,8.39s8.39-3.75,8.39-8.39Z"/><path class="cls-1" d="M629.12,178.44c0-4.63-3.75-8.39-8.39-8.39s-8.39,3.75-8.39,8.39c0,4.63,3.75,8.39,8.39,8.39s8.39-3.75,8.39-8.39Z"/><path class="cls-1" d="M1292.26,302.52c0-4.63-3.75-8.39-8.39-8.39s-8.39,3.75-8.39,8.39c0,4.63,3.75,8.39,8.39,8.39,4.63,0,8.39-3.75,8.39-8.39Z"/><path class="cls-1" d="M951.4,82.58c0,4.63,3.75,8.39,8.39,8.39s8.39-3.75,8.39-8.39c0-4.63-3.75-8.39-8.39-8.39s-8.39,3.75-8.39,8.39Z"/><path class="cls-1" d="M870.33,82.58c0,4.63,3.75,8.39,8.39,8.39,4.63,0,8.39-3.75,8.39-8.39,0-4.63-3.75-8.39-8.39-8.39-4.63,0-8.39,3.75-8.39,8.39Z"/><path class="cls-1" d="M797.56,38.51c0,4.63,3.75,8.39,8.39,8.39,4.63,0,8.39-3.75,8.39-8.39,0-4.63-3.75-8.39-8.39-8.39s-8.39,3.75-8.39,8.39Z"/><path class="cls-1" d="M576.85,99.14c0,4.63,3.75,8.39,8.39,8.39,4.63,0,8.39-3.75,8.39-8.39s-3.75-8.39-8.39-8.39c-4.63,0-8.39,3.75-8.39,8.39Z"/><path class="cls-1" d="M1173.84,38.26c0,4.63,3.75,8.39,8.39,8.39s8.39-3.75,8.39-8.39c0-4.63-3.75-8.39-8.39-8.39-4.63,0-8.39,3.75-8.39,8.39Z"/><path class="cls-1" d="M1526.07,38.26c0,4.63,3.75,8.39,8.39,8.39,4.63,0,8.39-3.75,8.39-8.39,0-4.63-3.75-8.39-8.39-8.39-4.63,0-8.39,3.75-8.39,8.39Z"/><path class="cls-1" d="M505.41,38.26c0,4.63,3.75,8.39,8.39,8.39,4.63,0,8.39-3.75,8.39-8.39,0-4.63-3.75-8.39-8.39-8.39-4.63,0-8.39,3.75-8.39,8.39Z"/><path class="cls-1" d="M1129.27,38.26c0,4.63,3.75,8.39,8.39,8.39s8.39-3.75,8.39-8.39c0-4.63-3.75-8.39-8.39-8.39s-8.39,3.75-8.39,8.39Z"/><circle class="cls-1" cx="1591.33" cy="107.97" r="8.39"/><path class="cls-1" d="M1538.37,107.97c0,4.63,3.75,8.39,8.39,8.39,4.63,0,8.39-3.75,8.39-8.39,0-4.63-3.75-8.39-8.39-8.39s-8.39,3.75-8.39,8.39Z"/><path class="cls-1" d="M311.75,38.26c0,4.63,3.75,8.39,8.39,8.39s8.39-3.75,8.39-8.39c0-4.63-3.75-8.39-8.39-8.39-4.63,0-8.39,3.75-8.39,8.39Z"/><path class="cls-1" d="M1056.58,187.5c0,4.63,3.75,8.39,8.39,8.39,4.63,0,8.39-3.75,8.39-8.39,0-4.63-3.75-8.39-8.39-8.39-4.63,0-8.39,3.75-8.39,8.39Z"/><path class="cls-1" d="M1418.6,6.63c0,4.63,3.75,8.39,8.39,8.39,4.63,0,8.39-3.75,8.39-8.39,0-4.63-3.75-8.39-8.39-8.39s-8.39,3.75-8.39,8.39Z"/><path class="cls-1" d="M1373.25,179.11c0,4.63,3.75,8.39,8.39,8.39s8.39-3.75,8.39-8.39-3.75-8.39-8.39-8.39-8.39,3.75-8.39,8.39Z"/><path class="cls-1" d="M760.6,38.51c0,4.63,3.75,8.39,8.39,8.39,4.63,0,8.39-3.75,8.39-8.39s-3.75-8.39-8.39-8.39-8.39,3.75-8.39,8.39Z"/><path class="cls-4" d="M807.42,485.45c0,4.63,3.75,8.39,8.39,8.39s8.39-3.75,8.39-8.39c0-4.63-3.75-8.39-8.39-8.39-4.63,0-8.39,3.75-8.39,8.39Z"/><path class="cls-4" d="M726.35,485.45c0,4.63,3.75,8.39,8.39,8.39,4.63,0,8.39-3.75,8.39-8.39,0-4.63-3.75-8.39-8.39-8.39-4.63,0-8.39,3.75-8.39,8.39Z"/><path class="cls-4" d="M677.39,437.45c0,4.63,3.75,8.39,8.39,8.39,4.63,0,8.39-3.75,8.39-8.39s-3.75-8.39-8.39-8.39-8.39,3.75-8.39,8.39Z"/><path class="cls-4" d="M519.18,529.56c0,4.63,3.75,8.39,8.39,8.39s8.39-3.75,8.39-8.39c0-4.63-3.75-8.39-8.39-8.39-4.63,0-8.39,3.75-8.39,8.39Z"/><path class="cls-4" d="M1116.16,468.68c0,4.63,3.75,8.39,8.39,8.39,4.63,0,8.39-3.75,8.39-8.39s-3.75-8.39-8.39-8.39c-4.63,0-8.39,3.75-8.39,8.39Z"/><path class="cls-4" d="M1468.39,468.68c0,4.63,3.75,8.39,8.39,8.39,4.63,0,8.39-3.75,8.39-8.39s-3.75-8.39-8.39-8.39c-4.63,0-8.39,3.75-8.39,8.39Z"/><path class="cls-4" d="M447.74,468.68c0,4.63,3.75,8.39,8.39,8.39,4.63,0,8.39-3.75,8.39-8.39s-3.75-8.39-8.39-8.39c-4.63,0-8.39,3.75-8.39,8.39Z"/><path class="cls-4" d="M1071.59,468.68c0,4.63,3.75,8.39,8.39,8.39s8.39-3.75,8.39-8.39c0-4.63-3.75-8.39-8.39-8.39s-8.39,3.75-8.39,8.39Z"/><circle class="cls-4" cx="1661.28" cy="470.45" r="8.39"/><path class="cls-4" d="M1608.32,470.45c0,4.63,3.75,8.39,8.39,8.39,4.63,0,8.39-3.75,8.39-8.39,0-4.63-3.75-8.39-8.39-8.39s-8.39,3.75-8.39,8.39Z"/><path class="cls-4" d="M254.08,468.68c0,4.63,3.75,8.39,8.39,8.39s8.39-3.75,8.39-8.39c0-4.63-3.75-8.39-8.39-8.39-4.63,0-8.39,3.75-8.39,8.39Z"/><path class="cls-4" d="M998.91,617.92c0,4.63,3.75,8.39,8.39,8.39,4.63,0,8.39-3.75,8.39-8.39,0-4.63-3.75-8.39-8.39-8.39-4.63,0-8.39,3.75-8.39,8.39Z"/><path class="cls-4" d="M1360.92,437.04c0,4.63,3.75,8.39,8.39,8.39s8.39-3.75,8.39-8.39c0-4.63-3.75-8.39-8.39-8.39s-8.39,3.75-8.39,8.39Z"/><path class="cls-4" d="M1315.57,609.53c0,4.63,3.75,8.39,8.39,8.39s8.39-3.75,8.39-8.39-3.75-8.39-8.39-8.39-8.39,3.75-8.39,8.39Z"/><path class="cls-4" d="M652.43,485.45c0,4.63,3.75,8.39,8.39,8.39s8.39-3.75,8.39-8.39-3.75-8.39-8.39-8.39c-4.63,0-8.39,3.75-8.39,8.39Z"/><path class="cls-4" d="M1069.59,697.93c0-4.63-3.75-8.39-8.39-8.39-4.63,0-8.39,3.75-8.39,8.39,0,4.63,3.75,8.39,8.39,8.39,4.63,0,8.39-3.75,8.39-8.39Z"/><path class="cls-4" d="M1158.92,754.86c0-4.63-3.75-8.39-8.39-8.39-4.63,0-8.39,3.75-8.39,8.39,0,4.63,3.75,8.39,8.39,8.39,4.63,0,8.39-3.75,8.39-8.39Z"/><path class="cls-4" d="M1195.89,754.86c0-4.63-3.75-8.39-8.39-8.39-4.63,0-8.39,3.75-8.39,8.39,0,4.63,3.75,8.39,8.39,8.39,4.63,0,8.39-3.75,8.39-8.39Z"/><path class="cls-4" d="M1357.83,653.83c0-4.63-3.75-8.39-8.39-8.39-4.63,0-8.39,3.75-8.39,8.39s3.75,8.39,8.39,8.39c4.63,0,8.39-3.75,8.39-8.39Z"/><path class="cls-4" d="M760.85,714.71c0-4.63-3.75-8.39-8.39-8.39s-8.39,3.75-8.39,8.39,3.75,8.39,8.39,8.39c4.63,0,8.39-3.75,8.39-8.39Z"/><path class="cls-4" d="M408.62,714.71c0-4.63-3.75-8.39-8.39-8.39-4.63,0-8.39,3.75-8.39,8.39,0,4.63,3.75,8.39,8.39,8.39,4.63,0,8.39-3.75,8.39-8.39Z"/><path class="cls-4" d="M1429.27,714.71c0-4.63-3.75-8.39-8.39-8.39-4.63,0-8.39,3.75-8.39,8.39,0,4.63,3.75,8.39,8.39,8.39,4.63,0,8.39-3.75,8.39-8.39Z"/><path class="cls-4" d="M856.84,763.37c0-4.63-3.75-8.39-8.39-8.39s-8.39,3.75-8.39,8.39c0,4.63,3.75,8.39,8.39,8.39,4.63,0,8.39-3.75,8.39-8.39Z"/><circle class="cls-4" cx="215.74" cy="712.94" r="8.39"/><path class="cls-4" d="M268.7,712.94c0-4.63-3.75-8.39-8.39-8.39-4.63,0-8.39,3.75-8.39,8.39,0,4.63,3.75,8.39,8.39,8.39,4.63,0,8.39-3.75,8.39-8.39Z"/><path class="cls-4" d="M1622.94,714.71c0-4.63-3.75-8.39-8.39-8.39s-8.39,3.75-8.39,8.39c0,4.63,3.75,8.39,8.39,8.39,4.63,0,8.39-3.75,8.39-8.39Z"/><path class="cls-4" d="M878.1,565.47c0-4.63-3.75-8.39-8.39-8.39-4.63,0-8.39,3.75-8.39,8.39,0,4.63,3.75,8.39,8.39,8.39,4.63,0,8.39-3.75,8.39-8.39Z"/><path class="cls-4" d="M516.09,746.34c0-4.63-3.75-8.39-8.39-8.39-4.63,0-8.39,3.75-8.39,8.39,0,4.63,3.75,8.39,8.39,8.39s8.39-3.75,8.39-8.39Z"/><path class="cls-4" d="M561.44,573.85c0-4.63-3.75-8.39-8.39-8.39s-8.39,3.75-8.39,8.39,3.75,8.39,8.39,8.39,8.39-3.75,8.39-8.39Z"/><path class="cls-4" d="M1224.58,697.93c0-4.63-3.75-8.39-8.39-8.39-4.63,0-8.39,3.75-8.39,8.39s3.75,8.39,8.39,8.39,8.39-3.75,8.39-8.39Z"/><path class="cls-4" d="M783.55,645.89c0,4.63,3.75,8.39,8.39,8.39,4.63,0,8.39-3.75,8.39-8.39,0-4.63-3.75-8.39-8.39-8.39-4.63,0-8.39,3.75-8.39,8.39Z"/><path class="cls-4" d="M687.79,662.42c0,4.63,3.75,8.39,8.39,8.39,4.63,0,8.39-3.75,8.39-8.39,0-4.63-3.75-8.39-8.39-8.39-4.63,0-8.39,3.75-8.39,8.39Z"/><path class="cls-4" d="M724.28,566.02c0,4.63,3.75,8.39,8.39,8.39,4.63,0,8.39-3.75,8.39-8.39s-3.75-8.39-8.39-8.39-8.39,3.75-8.39,8.39Z"/><path class="cls-4" d="M504.49,643.17c0,4.63,3.75,8.39,8.39,8.39s8.39-3.75,8.39-8.39-3.75-8.39-8.39-8.39c-4.63,0-8.39,3.75-8.39,8.39Z"/><path class="cls-4" d="M1101.47,582.29c0,4.63,3.75,8.39,8.39,8.39,4.63,0,8.39-3.75,8.39-8.39s-3.75-8.39-8.39-8.39c-4.63,0-8.39,3.75-8.39,8.39Z"/><path class="cls-4" d="M1453.7,582.29c0,4.63,3.75,8.39,8.39,8.39,4.63,0,8.39-3.75,8.39-8.39,0-4.63-3.75-8.39-8.39-8.39-4.63,0-8.39,3.75-8.39,8.39Z"/><path class="cls-4" d="M433.05,582.29c0,4.63,3.75,8.39,8.39,8.39,4.63,0,8.39-3.75,8.39-8.39s-3.75-8.39-8.39-8.39c-4.63,0-8.39,3.75-8.39,8.39Z"/><path class="cls-4" d="M1056.9,582.29c0,4.63,3.75,8.39,8.39,8.39s8.39-3.75,8.39-8.39c0-4.63-3.75-8.39-8.39-8.39s-8.39,3.75-8.39,8.39Z"/><circle class="cls-4" cx="1646.59" cy="584.06" r="8.39"/><path class="cls-4" d="M1593.63,584.06c0,4.63,3.75,8.39,8.39,8.39,4.63,0,8.39-3.75,8.39-8.39s-3.75-8.39-8.39-8.39-8.39,3.75-8.39,8.39Z"/><path class="cls-4" d="M239.39,582.29c0,4.63,3.75,8.39,8.39,8.39s8.39-3.75,8.39-8.39c0-4.63-3.75-8.39-8.39-8.39-4.63,0-8.39,3.75-8.39,8.39Z"/><path class="cls-4" d="M984.22,731.53c0,4.63,3.75,8.39,8.39,8.39,4.63,0,8.39-3.75,8.39-8.39,0-4.63-3.75-8.39-8.39-8.39-4.63,0-8.39,3.75-8.39,8.39Z"/><path class="cls-4" d="M1346.23,550.66c0,4.63,3.75,8.39,8.39,8.39s8.39-3.75,8.39-8.39c0-4.63-3.75-8.39-8.39-8.39s-8.39,3.75-8.39,8.39Z"/><path class="cls-4" d="M1300.88,723.15c0,4.63,3.75,8.39,8.39,8.39s8.39-3.75,8.39-8.39c0-4.63-3.75-8.39-8.39-8.39s-8.39,3.75-8.39,8.39Z"/><path class="cls-4" d="M637.74,599.07c0,4.63,3.75,8.39,8.39,8.39s8.39-3.75,8.39-8.39-3.75-8.39-8.39-8.39c-4.63,0-8.39,3.75-8.39,8.39Z"/><path class="cls-4" d="M978.6,819.01c0-4.63-3.75-8.39-8.39-8.39s-8.39,3.75-8.39,8.39c0,4.63,3.75,8.39,8.39,8.39s8.39-3.75,8.39-8.39Z"/><path class="cls-4" d="M1059.67,819.01c0-4.63-3.75-8.39-8.39-8.39-4.63,0-8.39,3.75-8.39,8.39,0,4.63,3.75,8.39,8.39,8.39,4.63,0,8.39-3.75,8.39-8.39Z"/><path class="cls-4" d="M1132.44,863.08c0-4.63-3.75-8.39-8.39-8.39-4.63,0-8.39,3.75-8.39,8.39,0,4.63,3.75,8.39,8.39,8.39s8.39-3.75,8.39-8.39Z"/><path class="cls-4" d="M1353.15,802.44c0-4.63-3.75-8.39-8.39-8.39-4.63,0-8.39,3.75-8.39,8.39s3.75,8.39,8.39,8.39c4.63,0,8.39-3.75,8.39-8.39Z"/><path class="cls-4" d="M756.16,863.32c0-4.63-3.75-8.39-8.39-8.39s-8.39,3.75-8.39,8.39,3.75,8.39,8.39,8.39c4.63,0,8.39-3.75,8.39-8.39Z"/><path class="cls-4" d="M403.93,863.32c0-4.63-3.75-8.39-8.39-8.39-4.63,0-8.39,3.75-8.39,8.39,0,4.63,3.75,8.39,8.39,8.39,4.63,0,8.39-3.75,8.39-8.39Z"/><path class="cls-4" d="M1424.59,863.32c0-4.63-3.75-8.39-8.39-8.39-4.63,0-8.39,3.75-8.39,8.39,0,4.63,3.75,8.39,8.39,8.39s8.39-3.75,8.39-8.39Z"/><path class="cls-4" d="M800.73,863.32c0-4.63-3.75-8.39-8.39-8.39s-8.39,3.75-8.39,8.39c0,4.63,3.75,8.39,8.39,8.39s8.39-3.75,8.39-8.39Z"/><circle class="cls-4" cx="338.67" cy="793.61" r="8.39"/><path class="cls-4" d="M391.63,793.61c0-4.63-3.75-8.39-8.39-8.39-4.63,0-8.39,3.75-8.39,8.39,0,4.63,3.75,8.39,8.39,8.39s8.39-3.75,8.39-8.39Z"/><path class="cls-4" d="M1618.25,863.32c0-4.63-3.75-8.39-8.39-8.39s-8.39,3.75-8.39,8.39c0,4.63,3.75,8.39,8.39,8.39,4.63,0,8.39-3.75,8.39-8.39Z"/><path class="cls-4" d="M873.42,714.08c0-4.63-3.75-8.39-8.39-8.39-4.63,0-8.39,3.75-8.39,8.39,0,4.63,3.75,8.39,8.39,8.39,4.63,0,8.39-3.75,8.39-8.39Z"/><path class="cls-4" d="M511.4,894.96c0-4.63-3.75-8.39-8.39-8.39s-8.39,3.75-8.39,8.39c0,4.63,3.75,8.39,8.39,8.39s8.39-3.75,8.39-8.39Z"/><path class="cls-4" d="M556.75,722.47c0-4.63-3.75-8.39-8.39-8.39s-8.39,3.75-8.39,8.39c0,4.63,3.75,8.39,8.39,8.39s8.39-3.75,8.39-8.39Z"/><path class="cls-4" d="M1169.4,863.08c0-4.63-3.75-8.39-8.39-8.39-4.63,0-8.39,3.75-8.39,8.39,0,4.63,3.75,8.39,8.39,8.39s8.39-3.75,8.39-8.39Z"/><g class="cls-5"><path class="cls-1" d="M787.42,660.45c0,4.63,3.75,8.39,8.39,8.39s8.39-3.75,8.39-8.39c0-4.63-3.75-8.39-8.39-8.39-4.63,0-8.39,3.75-8.39,8.39Z"/><path class="cls-1" d="M706.35,660.45c0,4.63,3.75,8.39,8.39,8.39,4.63,0,8.39-3.75,8.39-8.39,0-4.63-3.75-8.39-8.39-8.39-4.63,0-8.39,3.75-8.39,8.39Z"/><path class="cls-1" d="M669.39,660.45c0,4.63,3.75,8.39,8.39,8.39,4.63,0,8.39-3.75,8.39-8.39s-3.75-8.39-8.39-8.39-8.39,3.75-8.39,8.39Z"/><path class="cls-1" d="M499.18,704.56c0,4.63,3.75,8.39,8.39,8.39s8.39-3.75,8.39-8.39c0-4.63-3.75-8.39-8.39-8.39-4.63,0-8.39,3.75-8.39,8.39Z"/><path class="cls-1" d="M1096.16,643.68c0,4.63,3.75,8.39,8.39,8.39,4.63,0,8.39-3.75,8.39-8.39s-3.75-8.39-8.39-8.39c-4.63,0-8.39,3.75-8.39,8.39Z"/><path class="cls-1" d="M1448.39,643.68c0,4.63,3.75,8.39,8.39,8.39,4.63,0,8.39-3.75,8.39-8.39s-3.75-8.39-8.39-8.39c-4.63,0-8.39,3.75-8.39,8.39Z"/><path class="cls-1" d="M427.74,643.68c0,4.63,3.75,8.39,8.39,8.39,4.63,0,8.39-3.75,8.39-8.39s-3.75-8.39-8.39-8.39c-4.63,0-8.39,3.75-8.39,8.39Z"/><path class="cls-1" d="M1051.59,643.68c0,4.63,3.75,8.39,8.39,8.39s8.39-3.75,8.39-8.39c0-4.63-3.75-8.39-8.39-8.39s-8.39,3.75-8.39,8.39Z"/><circle class="cls-1" cx="1641.28" cy="645.45" r="8.39"/><path class="cls-1" d="M1588.32,645.45c0,4.63,3.75,8.39,8.39,8.39,4.63,0,8.39-3.75,8.39-8.39,0-4.63-3.75-8.39-8.39-8.39s-8.39,3.75-8.39,8.39Z"/><path class="cls-1" d="M234.08,643.68c0,4.63,3.75,8.39,8.39,8.39s8.39-3.75,8.39-8.39c0-4.63-3.75-8.39-8.39-8.39-4.63,0-8.39,3.75-8.39,8.39Z"/><path class="cls-1" d="M978.91,792.92c0,4.63,3.75,8.39,8.39,8.39,4.63,0,8.39-3.75,8.39-8.39,0-4.63-3.75-8.39-8.39-8.39-4.63,0-8.39,3.75-8.39,8.39Z"/><path class="cls-1" d="M1340.92,612.04c0,4.63,3.75,8.39,8.39,8.39s8.39-3.75,8.39-8.39c0-4.63-3.75-8.39-8.39-8.39s-8.39,3.75-8.39,8.39Z"/><path class="cls-1" d="M1295.57,784.53c0,4.63,3.75,8.39,8.39,8.39,4.63,0,8.39-3.75,8.39-8.39s-3.75-8.39-8.39-8.39c-4.63,0-8.39,3.75-8.39,8.39Z"/><path class="cls-1" d="M632.43,660.45c0,4.63,3.75,8.39,8.39,8.39s8.39-3.75,8.39-8.39-3.75-8.39-8.39-8.39c-4.63,0-8.39,3.75-8.39,8.39Z"/><path class="cls-1" d="M1059.59,907.93c0-4.63-3.75-8.39-8.39-8.39s-8.39,3.75-8.39,8.39c0,4.63,3.75,8.39,8.39,8.39,4.63,0,8.39-3.75,8.39-8.39Z"/><path class="cls-1" d="M1148.92,964.86c0-4.63-3.75-8.39-8.39-8.39-4.63,0-8.39,3.75-8.39,8.39,0,4.63,3.75,8.39,8.39,8.39,4.63,0,8.39-3.75,8.39-8.39Z"/><path class="cls-1" d="M1185.89,964.86c0-4.63-3.75-8.39-8.39-8.39-4.63,0-8.39,3.75-8.39,8.39,0,4.63,3.75,8.39,8.39,8.39,4.63,0,8.39-3.75,8.39-8.39Z"/><path class="cls-1" d="M1347.83,863.83c0-4.63-3.75-8.39-8.39-8.39-4.63,0-8.39,3.75-8.39,8.39s3.75,8.39,8.39,8.39c4.63,0,8.39-3.75,8.39-8.39Z"/><path class="cls-1" d="M750.85,924.71c0-4.63-3.75-8.39-8.39-8.39s-8.39,3.75-8.39,8.39,3.75,8.39,8.39,8.39c4.63,0,8.39-3.75,8.39-8.39Z"/><path class="cls-1" d="M398.62,924.71c0-4.63-3.75-8.39-8.39-8.39-4.63,0-8.39,3.75-8.39,8.39,0,4.63,3.75,8.39,8.39,8.39,4.63,0,8.39-3.75,8.39-8.39Z"/><path class="cls-1" d="M1419.27,924.71c0-4.63-3.75-8.39-8.39-8.39-4.63,0-8.39,3.75-8.39,8.39,0,4.63,3.75,8.39,8.39,8.39s8.39-3.75,8.39-8.39Z"/><path class="cls-1" d="M846.84,973.37c0-4.63-3.75-8.39-8.39-8.39s-8.39,3.75-8.39,8.39c0,4.63,3.75,8.39,8.39,8.39,4.63,0,8.39-3.75,8.39-8.39Z"/><circle class="cls-1" cx="205.74" cy="922.94" r="8.39"/><path class="cls-1" d="M258.7,922.94c0-4.63-3.75-8.39-8.39-8.39-4.63,0-8.39,3.75-8.39,8.39,0,4.63,3.75,8.39,8.39,8.39s8.39-3.75,8.39-8.39Z"/><path class="cls-1" d="M1612.94,924.71c0-4.63-3.75-8.39-8.39-8.39s-8.39,3.75-8.39,8.39c0,4.63,3.75,8.39,8.39,8.39,4.63,0,8.39-3.75,8.39-8.39Z"/><path class="cls-1" d="M868.1,775.47c0-4.63-3.75-8.39-8.39-8.39-4.63,0-8.39,3.75-8.39,8.39,0,4.63,3.75,8.39,8.39,8.39,4.63,0,8.39-3.75,8.39-8.39Z"/><path class="cls-1" d="M506.09,956.34c0-4.63-3.75-8.39-8.39-8.39s-8.39,3.75-8.39,8.39c0,4.63,3.75,8.39,8.39,8.39s8.39-3.75,8.39-8.39Z"/><path class="cls-1" d="M551.44,783.85c0-4.63-3.75-8.39-8.39-8.39s-8.39,3.75-8.39,8.39,3.75,8.39,8.39,8.39c4.63,0,8.39-3.75,8.39-8.39Z"/><path class="cls-1" d="M1214.58,907.93c0-4.63-3.75-8.39-8.39-8.39-4.63,0-8.39,3.75-8.39,8.39s3.75,8.39,8.39,8.39,8.39-3.75,8.39-8.39Z"/><path class="cls-1" d="M773.55,855.89c0,4.63,3.75,8.39,8.39,8.39s8.39-3.75,8.39-8.39c0-4.63-3.75-8.39-8.39-8.39-4.63,0-8.39,3.75-8.39,8.39Z"/><path class="cls-1" d="M677.79,872.42c0,4.63,3.75,8.39,8.39,8.39,4.63,0,8.39-3.75,8.39-8.39,0-4.63-3.75-8.39-8.39-8.39-4.63,0-8.39,3.75-8.39,8.39Z"/><path class="cls-1" d="M714.28,776.02c0,4.63,3.75,8.39,8.39,8.39,4.63,0,8.39-3.75,8.39-8.39s-3.75-8.39-8.39-8.39-8.39,3.75-8.39,8.39Z"/><path class="cls-1" d="M494.49,853.17c0,4.63,3.75,8.39,8.39,8.39,4.63,0,8.39-3.75,8.39-8.39s-3.75-8.39-8.39-8.39c-4.63,0-8.39,3.75-8.39,8.39Z"/><path class="cls-1" d="M1091.47,792.29c0,4.63,3.75,8.39,8.39,8.39,4.63,0,8.39-3.75,8.39-8.39s-3.75-8.39-8.39-8.39c-4.63,0-8.39,3.75-8.39,8.39Z"/><path class="cls-1" d="M1443.7,792.29c0,4.63,3.75,8.39,8.39,8.39,4.63,0,8.39-3.75,8.39-8.39,0-4.63-3.75-8.39-8.39-8.39-4.63,0-8.39,3.75-8.39,8.39Z"/><path class="cls-1" d="M423.05,792.29c0,4.63,3.75,8.39,8.39,8.39,4.63,0,8.39-3.75,8.39-8.39s-3.75-8.39-8.39-8.39c-4.63,0-8.39,3.75-8.39,8.39Z"/><path class="cls-1" d="M1046.9,792.29c0,4.63,3.75,8.39,8.39,8.39s8.39-3.75,8.39-8.39c0-4.63-3.75-8.39-8.39-8.39s-8.39,3.75-8.39,8.39Z"/><circle class="cls-1" cx="1636.59" cy="794.06" r="8.39"/><path class="cls-1" d="M1583.63,794.06c0,4.63,3.75,8.39,8.39,8.39,4.63,0,8.39-3.75,8.39-8.39s-3.75-8.39-8.39-8.39-8.39,3.75-8.39,8.39Z"/><path class="cls-1" d="M229.39,792.29c0,4.63,3.75,8.39,8.39,8.39s8.39-3.75,8.39-8.39c0-4.63-3.75-8.39-8.39-8.39s-8.39,3.75-8.39,8.39Z"/><path class="cls-1" d="M974.22,941.53c0,4.63,3.75,8.39,8.39,8.39,4.63,0,8.39-3.75,8.39-8.39,0-4.63-3.75-8.39-8.39-8.39-4.63,0-8.39,3.75-8.39,8.39Z"/><path class="cls-1" d="M1336.23,760.66c0,4.63,3.75,8.39,8.39,8.39s8.39-3.75,8.39-8.39c0-4.63-3.75-8.39-8.39-8.39-4.63,0-8.39,3.75-8.39,8.39Z"/><path class="cls-1" d="M1290.88,933.15c0,4.63,3.75,8.39,8.39,8.39s8.39-3.75,8.39-8.39c0-4.63-3.75-8.39-8.39-8.39s-8.39,3.75-8.39,8.39Z"/><path class="cls-1" d="M627.74,809.07c0,4.63,3.75,8.39,8.39,8.39s8.39-3.75,8.39-8.39-3.75-8.39-8.39-8.39c-4.63,0-8.39,3.75-8.39,8.39Z"/><path class="cls-1" d="M968.6,1029.01c0-4.63-3.75-8.39-8.39-8.39s-8.39,3.75-8.39,8.39c0,4.63,3.75,8.39,8.39,8.39s8.39-3.75,8.39-8.39Z"/><path class="cls-1" d="M1049.67,1029.01c0-4.63-3.75-8.39-8.39-8.39-4.63,0-8.39,3.75-8.39,8.39,0,4.63,3.75,8.39,8.39,8.39,4.63,0,8.39-3.75,8.39-8.39Z"/><path class="cls-1" d="M1122.44,1073.08c0-4.63-3.75-8.39-8.39-8.39-4.63,0-8.39,3.75-8.39,8.39,0,4.63,3.75,8.39,8.39,8.39s8.39-3.75,8.39-8.39Z"/><path class="cls-1" d="M1343.15,1012.44c0-4.63-3.75-8.39-8.39-8.39-4.63,0-8.39,3.75-8.39,8.39s3.75,8.39,8.39,8.39c4.63,0,8.39-3.75,8.39-8.39Z"/><path class="cls-1" d="M746.16,1073.32c0-4.63-3.75-8.39-8.39-8.39s-8.39,3.75-8.39,8.39,3.75,8.39,8.39,8.39c4.63,0,8.39-3.75,8.39-8.39Z"/><path class="cls-1" d="M393.93,1073.32c0-4.63-3.75-8.39-8.39-8.39-4.63,0-8.39,3.75-8.39,8.39,0,4.63,3.75,8.39,8.39,8.39,4.63,0,8.39-3.75,8.39-8.39Z"/><path class="cls-1" d="M1414.59,1073.32c0-4.63-3.75-8.39-8.39-8.39-4.63,0-8.39,3.75-8.39,8.39,0,4.63,3.75,8.39,8.39,8.39s8.39-3.75,8.39-8.39Z"/><path class="cls-1" d="M790.73,1073.32c0-4.63-3.75-8.39-8.39-8.39s-8.39,3.75-8.39,8.39c0,4.63,3.75,8.39,8.39,8.39s8.39-3.75,8.39-8.39Z"/><circle class="cls-1" cx="328.67" cy="1003.61" r="8.39"/><path class="cls-1" d="M381.63,1003.61c0-4.63-3.75-8.39-8.39-8.39-4.63,0-8.39,3.75-8.39,8.39,0,4.63,3.75,8.39,8.39,8.39s8.39-3.75,8.39-8.39Z"/><path class="cls-1" d="M1608.25,1073.32c0-4.63-3.75-8.39-8.39-8.39s-8.39,3.75-8.39,8.39c0,4.63,3.75,8.39,8.39,8.39,4.63,0,8.39-3.75,8.39-8.39Z"/><path class="cls-1" d="M863.42,924.08c0-4.63-3.75-8.39-8.39-8.39-4.63,0-8.39,3.75-8.39,8.39,0,4.63,3.75,8.39,8.39,8.39,4.63,0,8.39-3.75,8.39-8.39Z"/><path class="cls-1" d="M501.4,1104.96c0-4.63-3.75-8.39-8.39-8.39s-8.39,3.75-8.39,8.39c0,4.63,3.75,8.39,8.39,8.39s8.39-3.75,8.39-8.39Z"/><path class="cls-1" d="M546.75,932.47c0-4.63-3.75-8.39-8.39-8.39-4.63,0-8.39,3.75-8.39,8.39,0,4.63,3.75,8.39,8.39,8.39s8.39-3.75,8.39-8.39Z"/><path class="cls-1" d="M1159.4,1073.08c0-4.63-3.75-8.39-8.39-8.39-4.63,0-8.39,3.75-8.39,8.39,0,4.63,3.75,8.39,8.39,8.39s8.39-3.75,8.39-8.39Z"/></g><path class="cls-1" d="M1114.58,961.13c0-4.63-3.75-8.39-8.39-8.39s-8.39,3.75-8.39,8.39c0,4.63,3.75,8.39,8.39,8.39,4.63,0,8.39-3.75,8.39-8.39Z"/><path class="cls-1" d="M1195.65,961.13c0-4.63-3.75-8.39-8.39-8.39-4.63,0-8.39,3.75-8.39,8.39,0,4.63,3.75,8.39,8.39,8.39,4.63,0,8.39-3.75,8.39-8.39Z"/><path class="cls-1" d="M1232.61,961.13c0-4.63-3.75-8.39-8.39-8.39-4.63,0-8.39,3.75-8.39,8.39,0,4.63,3.75,8.39,8.39,8.39,4.63,0,8.39-3.75,8.39-8.39Z"/><path class="cls-1" d="M1402.82,917.03c0-4.63-3.75-8.39-8.39-8.39-4.63,0-8.39,3.75-8.39,8.39,0,4.63,3.75,8.39,8.39,8.39,4.63,0,8.39-3.75,8.39-8.39Z"/><path class="cls-1" d="M805.84,977.91c0-4.63-3.75-8.39-8.39-8.39s-8.39,3.75-8.39,8.39c0,4.63,3.75,8.39,8.39,8.39,4.63,0,8.39-3.75,8.39-8.39Z"/><path class="cls-1" d="M453.61,977.91c0-4.63-3.75-8.39-8.39-8.39-4.63,0-8.39,3.75-8.39,8.39,0,4.63,3.75,8.39,8.39,8.39,4.63,0,8.39-3.75,8.39-8.39Z"/><path class="cls-1" d="M1474.26,977.91c0-4.63-3.75-8.39-8.39-8.39-4.63,0-8.39,3.75-8.39,8.39s3.75,8.39,8.39,8.39c4.63,0,8.39-3.75,8.39-8.39Z"/><path class="cls-1" d="M850.41,977.91c0-4.63-3.75-8.39-8.39-8.39s-8.39,3.75-8.39,8.39c0,4.63,3.75,8.39,8.39,8.39s8.39-3.75,8.39-8.39Z"/><circle class="cls-1" cx="260.72" cy="976.14" r="8.39"/><path class="cls-1" d="M313.68,976.14c0-4.63-3.75-8.39-8.39-8.39-4.63,0-8.39,3.75-8.39,8.39,0,4.63,3.75,8.39,8.39,8.39s8.39-3.75,8.39-8.39Z"/><path class="cls-1" d="M1667.92,977.91c0-4.63-3.75-8.39-8.39-8.39s-8.39,3.75-8.39,8.39c0,4.63,3.75,8.39,8.39,8.39,4.63,0,8.39-3.75,8.39-8.39Z"/><path class="cls-1" d="M923.09,828.67c0-4.63-3.75-8.39-8.39-8.39-4.63,0-8.39,3.75-8.39,8.39,0,4.63,3.75,8.39,8.39,8.39,4.63,0,8.39-3.75,8.39-8.39Z"/><path class="cls-1" d="M561.08,1009.54c0-4.63-3.75-8.39-8.39-8.39s-8.39,3.75-8.39,8.39c0,4.63,3.75,8.39,8.39,8.39s8.39-3.75,8.39-8.39Z"/><path class="cls-1" d="M606.43,837.05c0-4.63-3.75-8.39-8.39-8.39-4.63,0-8.39,3.75-8.39,8.39s3.75,8.39,8.39,8.39c4.63,0,8.39-3.75,8.39-8.39Z"/><path class="cls-1" d="M1269.57,961.13c0-4.63-3.75-8.39-8.39-8.39s-8.39,3.75-8.39,8.39c0,4.63,3.75,8.39,8.39,8.39,4.63,0,8.39-3.75,8.39-8.39Z"/><path class="cls-1" d="M842.41,713.65c0,4.63,3.75,8.39,8.39,8.39s8.39-3.75,8.39-8.39c0-4.63-3.75-8.39-8.39-8.39-4.63,0-8.39,3.75-8.39,8.39Z"/><path class="cls-1" d="M753.08,656.73c0,4.63,3.75,8.39,8.39,8.39,4.63,0,8.39-3.75,8.39-8.39,0-4.63-3.75-8.39-8.39-8.39-4.63,0-8.39,3.75-8.39,8.39Z"/><path class="cls-1" d="M716.11,656.73c0,4.63,3.75,8.39,8.39,8.39,4.63,0,8.39-3.75,8.39-8.39s-3.75-8.39-8.39-8.39-8.39,3.75-8.39,8.39Z"/><path class="cls-1" d="M554.17,757.76c0,4.63,3.75,8.39,8.39,8.39,4.63,0,8.39-3.75,8.39-8.39,0-4.63-3.75-8.39-8.39-8.39-4.63,0-8.39,3.75-8.39,8.39Z"/><path class="cls-1" d="M1151.15,696.88c0,4.63,3.75,8.39,8.39,8.39s8.39-3.75,8.39-8.39-3.75-8.39-8.39-8.39c-4.63,0-8.39,3.75-8.39,8.39Z"/><path class="cls-1" d="M1503.38,696.88c0,4.63,3.75,8.39,8.39,8.39,4.63,0,8.39-3.75,8.39-8.39,0-4.63-3.75-8.39-8.39-8.39-4.63,0-8.39,3.75-8.39,8.39Z"/><path class="cls-1" d="M482.73,696.88c0,4.63,3.75,8.39,8.39,8.39,4.63,0,8.39-3.75,8.39-8.39,0-4.63-3.75-8.39-8.39-8.39-4.63,0-8.39,3.75-8.39,8.39Z"/><path class="cls-1" d="M1055.16,648.22c0,4.63,3.75,8.39,8.39,8.39s8.39-3.75,8.39-8.39c0-4.63-3.75-8.39-8.39-8.39s-8.39,3.75-8.39,8.39Z"/><circle class="cls-1" cx="1696.26" cy="698.65" r="8.39"/><path class="cls-1" d="M1643.3,698.65c0,4.63,3.75,8.39,8.39,8.39,4.63,0,8.39-3.75,8.39-8.39,0-4.63-3.75-8.39-8.39-8.39-4.63,0-8.39,3.75-8.39,8.39Z"/><path class="cls-1" d="M289.06,696.88c0,4.63,3.75,8.39,8.39,8.39s8.39-3.75,8.39-8.39c0-4.63-3.75-8.39-8.39-8.39-4.63,0-8.39,3.75-8.39,8.39Z"/><path class="cls-1" d="M1033.9,846.12c0,4.63,3.75,8.39,8.39,8.39,4.63,0,8.39-3.75,8.39-8.39,0-4.63-3.75-8.39-8.39-8.39-4.63,0-8.39,3.75-8.39,8.39Z"/><path class="cls-1" d="M1395.91,665.24c0,4.63,3.75,8.39,8.39,8.39,4.63,0,8.39-3.75,8.39-8.39s-3.75-8.39-8.39-8.39-8.39,3.75-8.39,8.39Z"/><path class="cls-1" d="M1350.56,837.73c0,4.63,3.75,8.39,8.39,8.39s8.39-3.75,8.39-8.39c0-4.63-3.75-8.39-8.39-8.39-4.63,0-8.39,3.75-8.39,8.39Z"/><path class="cls-1" d="M687.42,713.65c0,4.63,3.75,8.39,8.39,8.39,4.63,0,8.39-3.75,8.39-8.39s-3.75-8.39-8.39-8.39-8.39,3.75-8.39,8.39Z"/><path class="cls-1" d="M1128.45,765.69c0-4.63-3.75-8.39-8.39-8.39s-8.39,3.75-8.39,8.39c0,4.63,3.75,8.39,8.39,8.39,4.63,0,8.39-3.75,8.39-8.39Z"/><path class="cls-1" d="M1224.21,749.17c0-4.63-3.75-8.39-8.39-8.39-4.63,0-8.39,3.75-8.39,8.39,0,4.63,3.75,8.39,8.39,8.39,4.63,0,8.39-3.75,8.39-8.39Z"/><path class="cls-1" d="M1187.72,845.57c0-4.63-3.75-8.39-8.39-8.39-4.63,0-8.39,3.75-8.39,8.39s3.75,8.39,8.39,8.39,8.39-3.75,8.39-8.39Z"/><path class="cls-1" d="M1407.51,768.41c0-4.63-3.75-8.39-8.39-8.39-4.63,0-8.39,3.75-8.39,8.39s3.75,8.39,8.39,8.39c4.63,0,8.39-3.75,8.39-8.39Z"/><path class="cls-1" d="M810.53,829.29c0-4.63-3.75-8.39-8.39-8.39-4.63,0-8.39,3.75-8.39,8.39s3.75,8.39,8.39,8.39c4.63,0,8.39-3.75,8.39-8.39Z"/><path class="cls-1" d="M458.3,829.29c0-4.63-3.75-8.39-8.39-8.39-4.63,0-8.39,3.75-8.39,8.39,0,4.63,3.75,8.39,8.39,8.39,4.63,0,8.39-3.75,8.39-8.39Z"/><path class="cls-1" d="M1478.95,829.29c0-4.63-3.75-8.39-8.39-8.39-4.63,0-8.39,3.75-8.39,8.39,0,4.63,3.75,8.39,8.39,8.39,4.63,0,8.39-3.75,8.39-8.39Z"/><path class="cls-1" d="M855.1,829.29c0-4.63-3.75-8.39-8.39-8.39s-8.39,3.75-8.39,8.39c0,4.63,3.75,8.39,8.39,8.39s8.39-3.75,8.39-8.39Z"/><circle class="cls-1" cx="265.41" cy="827.52" r="8.39"/><path class="cls-1" d="M318.37,827.52c0-4.63-3.75-8.39-8.39-8.39-4.63,0-8.39,3.75-8.39,8.39,0,4.63,3.75,8.39,8.39,8.39s8.39-3.75,8.39-8.39Z"/><path class="cls-1" d="M1672.61,829.29c0-4.63-3.75-8.39-8.39-8.39s-8.39,3.75-8.39,8.39,3.75,8.39,8.39,8.39,8.39-3.75,8.39-8.39Z"/><path class="cls-1" d="M927.78,680.05c0-4.63-3.75-8.39-8.39-8.39-4.63,0-8.39,3.75-8.39,8.39,0,4.63,3.75,8.39,8.39,8.39,4.63,0,8.39-3.75,8.39-8.39Z"/><path class="cls-1" d="M565.77,860.93c0-4.63-3.75-8.39-8.39-8.39s-8.39,3.75-8.39,8.39c0,4.63,3.75,8.39,8.39,8.39s8.39-3.75,8.39-8.39Z"/><path class="cls-1" d="M611.12,688.44c0-4.63-3.75-8.39-8.39-8.39s-8.39,3.75-8.39,8.39c0,4.63,3.75,8.39,8.39,8.39s8.39-3.75,8.39-8.39Z"/><path class="cls-1" d="M1274.26,812.52c0-4.63-3.75-8.39-8.39-8.39s-8.39,3.75-8.39,8.39c0,4.63,3.75,8.39,8.39,8.39,4.63,0,8.39-3.75,8.39-8.39Z"/><path class="cls-1" d="M933.4,592.58c0,4.63,3.75,8.39,8.39,8.39s8.39-3.75,8.39-8.39c0-4.63-3.75-8.39-8.39-8.39s-8.39,3.75-8.39,8.39Z"/><path class="cls-1" d="M852.33,592.58c0,4.63,3.75,8.39,8.39,8.39,4.63,0,8.39-3.75,8.39-8.39,0-4.63-3.75-8.39-8.39-8.39-4.63,0-8.39,3.75-8.39,8.39Z"/><path class="cls-1" d="M779.56,548.51c0,4.63,3.75,8.39,8.39,8.39,4.63,0,8.39-3.75,8.39-8.39,0-4.63-3.75-8.39-8.39-8.39s-8.39,3.75-8.39,8.39Z"/><path class="cls-1" d="M558.85,609.14c0,4.63,3.75,8.39,8.39,8.39,4.63,0,8.39-3.75,8.39-8.39s-3.75-8.39-8.39-8.39c-4.63,0-8.39,3.75-8.39,8.39Z"/><path class="cls-1" d="M1155.84,548.26c0,4.63,3.75,8.39,8.39,8.39s8.39-3.75,8.39-8.39c0-4.63-3.75-8.39-8.39-8.39-4.63,0-8.39,3.75-8.39,8.39Z"/><path class="cls-1" d="M1508.07,548.26c0,4.63,3.75,8.39,8.39,8.39,4.63,0,8.39-3.75,8.39-8.39,0-4.63-3.75-8.39-8.39-8.39-4.63,0-8.39,3.75-8.39,8.39Z"/><path class="cls-1" d="M487.41,548.26c0,4.63,3.75,8.39,8.39,8.39,4.63,0,8.39-3.75,8.39-8.39,0-4.63-3.75-8.39-8.39-8.39-4.63,0-8.39,3.75-8.39,8.39Z"/><path class="cls-1" d="M1111.27,548.26c0,4.63,3.75,8.39,8.39,8.39s8.39-3.75,8.39-8.39c0-4.63-3.75-8.39-8.39-8.39s-8.39,3.75-8.39,8.39Z"/><circle class="cls-1" cx="1573.33" cy="617.97" r="8.39"/><path class="cls-1" d="M1520.37,617.97c0,4.63,3.75,8.39,8.39,8.39,4.63,0,8.39-3.75,8.39-8.39,0-4.63-3.75-8.39-8.39-8.39s-8.39,3.75-8.39,8.39Z"/><path class="cls-1" d="M293.75,548.26c0,4.63,3.75,8.39,8.39,8.39s8.39-3.75,8.39-8.39c0-4.63-3.75-8.39-8.39-8.39-4.63,0-8.39,3.75-8.39,8.39Z"/><path class="cls-1" d="M1038.58,697.5c0,4.63,3.75,8.39,8.39,8.39,4.63,0,8.39-3.75,8.39-8.39,0-4.63-3.75-8.39-8.39-8.39-4.63,0-8.39,3.75-8.39,8.39Z"/><path class="cls-1" d="M1400.6,516.63c0,4.63,3.75,8.39,8.39,8.39,4.63,0,8.39-3.75,8.39-8.39,0-4.63-3.75-8.39-8.39-8.39s-8.39,3.75-8.39,8.39Z"/><path class="cls-1" d="M1355.25,689.11c0,4.63,3.75,8.39,8.39,8.39s8.39-3.75,8.39-8.39-3.75-8.39-8.39-8.39-8.39,3.75-8.39,8.39Z"/><path class="cls-1" d="M742.6,548.51c0,4.63,3.75,8.39,8.39,8.39,4.63,0,8.39-3.75,8.39-8.39s-3.75-8.39-8.39-8.39-8.39,3.75-8.39,8.39Z"/><path class="cls-4" d="M911.42,898.45c0,4.63,3.75,8.39,8.39,8.39s8.39-3.75,8.39-8.39c0-4.63-3.75-8.39-8.39-8.39-4.63,0-8.39,3.75-8.39,8.39Z"/><path class="cls-4" d="M734.35,905.45c0,4.63,3.75,8.39,8.39,8.39,4.63,0,8.39-3.75,8.39-8.39,0-4.63-3.75-8.39-8.39-8.39-4.63,0-8.39,3.75-8.39,8.39Z"/><path class="cls-4" d="M640.39,967.45c0,4.63,3.75,8.39,8.39,8.39,4.63,0,8.39-3.75,8.39-8.39s-3.75-8.39-8.39-8.39c-4.63,0-8.39,3.75-8.39,8.39Z"/><path class="cls-4" d="M527.18,949.56c0,4.63,3.75,8.39,8.39,8.39,4.63,0,8.39-3.75,8.39-8.39,0-4.63-3.75-8.39-8.39-8.39-4.63,0-8.39,3.75-8.39,8.39Z"/><path class="cls-4" d="M1124.16,888.68c0,4.63,3.75,8.39,8.39,8.39s8.39-3.75,8.39-8.39-3.75-8.39-8.39-8.39c-4.63,0-8.39,3.75-8.39,8.39Z"/><path class="cls-4" d="M1476.39,888.68c0,4.63,3.75,8.39,8.39,8.39,4.63,0,8.39-3.75,8.39-8.39s-3.75-8.39-8.39-8.39c-4.63,0-8.39,3.75-8.39,8.39Z"/><path class="cls-4" d="M455.74,888.68c0,4.63,3.75,8.39,8.39,8.39,4.63,0,8.39-3.75,8.39-8.39s-3.75-8.39-8.39-8.39c-4.63,0-8.39,3.75-8.39,8.39Z"/><path class="cls-4" d="M1079.59,888.68c0,4.63,3.75,8.39,8.39,8.39s8.39-3.75,8.39-8.39c0-4.63-3.75-8.39-8.39-8.39s-8.39,3.75-8.39,8.39Z"/><circle class="cls-4" cx="1669.28" cy="890.45" r="8.39"/><path class="cls-4" d="M1616.32,890.45c0,4.63,3.75,8.39,8.39,8.39,4.63,0,8.39-3.75,8.39-8.39,0-4.63-3.75-8.39-8.39-8.39s-8.39,3.75-8.39,8.39Z"/><path class="cls-4" d="M262.08,888.68c0,4.63,3.75,8.39,8.39,8.39s8.39-3.75,8.39-8.39c0-4.63-3.75-8.39-8.39-8.39-4.63,0-8.39,3.75-8.39,8.39Z"/><path class="cls-4" d="M1006.91,1037.92c0,4.63,3.75,8.39,8.39,8.39,4.63,0,8.39-3.75,8.39-8.39,0-4.63-3.75-8.39-8.39-8.39-4.63,0-8.39,3.75-8.39,8.39Z"/><path class="cls-4" d="M1368.92,857.04c0,4.63,3.75,8.39,8.39,8.39s8.39-3.75,8.39-8.39c0-4.63-3.75-8.39-8.39-8.39s-8.39,3.75-8.39,8.39Z"/><path class="cls-4" d="M1323.57,1029.53c0,4.63,3.75,8.39,8.39,8.39,4.63,0,8.39-3.75,8.39-8.39s-3.75-8.39-8.39-8.39c-4.63,0-8.39,3.75-8.39,8.39Z"/><path class="cls-4" d="M619.43,890.45c0,4.63,3.75,8.39,8.39,8.39s8.39-3.75,8.39-8.39-3.75-8.39-8.39-8.39c-4.63,0-8.39,3.75-8.39,8.39Z"/><path class="cls-4" d="M1087.59,1152.93c0-4.63-3.75-8.39-8.39-8.39s-8.39,3.75-8.39,8.39c0,4.63,3.75,8.39,8.39,8.39,4.63,0,8.39-3.75,8.39-8.39Z"/><path class="cls-4" d="M1176.92,1209.86c0-4.63-3.75-8.39-8.39-8.39-4.63,0-8.39,3.75-8.39,8.39,0,4.63,3.75,8.39,8.39,8.39,4.63,0,8.39-3.75,8.39-8.39Z"/><path class="cls-4" d="M1213.89,1209.86c0-4.63-3.75-8.39-8.39-8.39-4.63,0-8.39,3.75-8.39,8.39,0,4.63,3.75,8.39,8.39,8.39,4.63,0,8.39-3.75,8.39-8.39Z"/><path class="cls-4" d="M1375.83,1108.83c0-4.63-3.75-8.39-8.39-8.39-4.63,0-8.39,3.75-8.39,8.39s3.75,8.39,8.39,8.39c4.63,0,8.39-3.75,8.39-8.39Z"/><path class="cls-4" d="M778.85,1169.71c0-4.63-3.75-8.39-8.39-8.39s-8.39,3.75-8.39,8.39,3.75,8.39,8.39,8.39c4.63,0,8.39-3.75,8.39-8.39Z"/><path class="cls-4" d="M426.62,1169.71c0-4.63-3.75-8.39-8.39-8.39-4.63,0-8.39,3.75-8.39,8.39,0,4.63,3.75,8.39,8.39,8.39,4.63,0,8.39-3.75,8.39-8.39Z"/><path class="cls-4" d="M1447.27,1169.71c0-4.63-3.75-8.39-8.39-8.39-4.63,0-8.39,3.75-8.39,8.39,0,4.63,3.75,8.39,8.39,8.39s8.39-3.75,8.39-8.39Z"/><path class="cls-4" d="M874.84,1218.37c0-4.63-3.75-8.39-8.39-8.39s-8.39,3.75-8.39,8.39c0,4.63,3.75,8.39,8.39,8.39,4.63,0,8.39-3.75,8.39-8.39Z"/><circle class="cls-4" cx="233.74" cy="1167.94" r="8.39"/><path class="cls-4" d="M286.7,1167.94c0-4.63-3.75-8.39-8.39-8.39-4.63,0-8.39,3.75-8.39,8.39,0,4.63,3.75,8.39,8.39,8.39s8.39-3.75,8.39-8.39Z"/><path class="cls-4" d="M1640.94,1169.71c0-4.63-3.75-8.39-8.39-8.39s-8.39,3.75-8.39,8.39c0,4.63,3.75,8.39,8.39,8.39,4.63,0,8.39-3.75,8.39-8.39Z"/><path class="cls-4" d="M896.1,1020.47c0-4.63-3.75-8.39-8.39-8.39-4.63,0-8.39,3.75-8.39,8.39,0,4.63,3.75,8.39,8.39,8.39,4.63,0,8.39-3.75,8.39-8.39Z"/><path class="cls-4" d="M534.09,1201.34c0-4.63-3.75-8.39-8.39-8.39s-8.39,3.75-8.39,8.39c0,4.63,3.75,8.39,8.39,8.39s8.39-3.75,8.39-8.39Z"/><path class="cls-4" d="M579.44,1028.85c0-4.63-3.75-8.39-8.39-8.39s-8.39,3.75-8.39,8.39,3.75,8.39,8.39,8.39c4.63,0,8.39-3.75,8.39-8.39Z"/><path class="cls-4" d="M1242.58,1152.93c0-4.63-3.75-8.39-8.39-8.39-4.63,0-8.39,3.75-8.39,8.39s3.75,8.39,8.39,8.39,8.39-3.75,8.39-8.39Z"/><path class="cls-4" d="M801.55,1100.89c0,4.63,3.75,8.39,8.39,8.39s8.39-3.75,8.39-8.39c0-4.63-3.75-8.39-8.39-8.39-4.63,0-8.39,3.75-8.39,8.39Z"/><path class="cls-4" d="M705.79,1117.42c0,4.63,3.75,8.39,8.39,8.39,4.63,0,8.39-3.75,8.39-8.39,0-4.63-3.75-8.39-8.39-8.39-4.63,0-8.39,3.75-8.39,8.39Z"/><path class="cls-4" d="M742.28,1021.02c0,4.63,3.75,8.39,8.39,8.39,4.63,0,8.39-3.75,8.39-8.39s-3.75-8.39-8.39-8.39-8.39,3.75-8.39,8.39Z"/><path class="cls-4" d="M522.49,1098.17c0,4.63,3.75,8.39,8.39,8.39,4.63,0,8.39-3.75,8.39-8.39s-3.75-8.39-8.39-8.39c-4.63,0-8.39,3.75-8.39,8.39Z"/><path class="cls-4" d="M1119.47,1037.29c0,4.63,3.75,8.39,8.39,8.39,4.63,0,8.39-3.75,8.39-8.39s-3.75-8.39-8.39-8.39c-4.63,0-8.39,3.75-8.39,8.39Z"/><path class="cls-4" d="M1471.7,1037.29c0,4.63,3.75,8.39,8.39,8.39,4.63,0,8.39-3.75,8.39-8.39,0-4.63-3.75-8.39-8.39-8.39-4.63,0-8.39,3.75-8.39,8.39Z"/><path class="cls-4" d="M451.05,1037.29c0,4.63,3.75,8.39,8.39,8.39,4.63,0,8.39-3.75,8.39-8.39s-3.75-8.39-8.39-8.39c-4.63,0-8.39,3.75-8.39,8.39Z"/><path class="cls-4" d="M1006.9,986.29c0,4.63,3.75,8.39,8.39,8.39s8.39-3.75,8.39-8.39c0-4.63-3.75-8.39-8.39-8.39s-8.39,3.75-8.39,8.39Z"/><circle class="cls-4" cx="1664.59" cy="1039.06" r="8.39"/><path class="cls-4" d="M1611.63,1039.06c0,4.63,3.75,8.39,8.39,8.39,4.63,0,8.39-3.75,8.39-8.39s-3.75-8.39-8.39-8.39-8.39,3.75-8.39,8.39Z"/><path class="cls-4" d="M257.39,1037.29c0,4.63,3.75,8.39,8.39,8.39s8.39-3.75,8.39-8.39c0-4.63-3.75-8.39-8.39-8.39s-8.39,3.75-8.39,8.39Z"/><path class="cls-4" d="M1002.22,1186.53c0,4.63,3.75,8.39,8.39,8.39,4.63,0,8.39-3.75,8.39-8.39,0-4.63-3.75-8.39-8.39-8.39-4.63,0-8.39,3.75-8.39,8.39Z"/><path class="cls-4" d="M1364.23,1005.66c0,4.63,3.75,8.39,8.39,8.39s8.39-3.75,8.39-8.39c0-4.63-3.75-8.39-8.39-8.39-4.63,0-8.39,3.75-8.39,8.39Z"/><path class="cls-4" d="M1318.88,1178.15c0,4.63,3.75,8.39,8.39,8.39s8.39-3.75,8.39-8.39c0-4.63-3.75-8.39-8.39-8.39s-8.39,3.75-8.39,8.39Z"/><path class="cls-4" d="M655.74,1054.07c0,4.63,3.75,8.39,8.39,8.39s8.39-3.75,8.39-8.39-3.75-8.39-8.39-8.39c-4.63,0-8.39,3.75-8.39,8.39Z"/><path class="cls-4" d="M996.6,1274.01c0-4.63-3.75-8.39-8.39-8.39s-8.39,3.75-8.39,8.39c0,4.63,3.75,8.39,8.39,8.39s8.39-3.75,8.39-8.39Z"/><path class="cls-4" d="M1077.67,1274.01c0-4.63-3.75-8.39-8.39-8.39-4.63,0-8.39,3.75-8.39,8.39,0,4.63,3.75,8.39,8.39,8.39,4.63,0,8.39-3.75,8.39-8.39Z"/><path class="cls-4" d="M1150.44,1318.08c0-4.63-3.75-8.39-8.39-8.39-4.63,0-8.39,3.75-8.39,8.39,0,4.63,3.75,8.39,8.39,8.39s8.39-3.75,8.39-8.39Z"/><path class="cls-4" d="M1371.15,1257.44c0-4.63-3.75-8.39-8.39-8.39-4.63,0-8.39,3.75-8.39,8.39s3.75,8.39,8.39,8.39c4.63,0,8.39-3.75,8.39-8.39Z"/><path class="cls-4" d="M774.16,1318.32c0-4.63-3.75-8.39-8.39-8.39s-8.39,3.75-8.39,8.39,3.75,8.39,8.39,8.39c4.63,0,8.39-3.75,8.39-8.39Z"/><path class="cls-4" d="M421.93,1318.32c0-4.63-3.75-8.39-8.39-8.39-4.63,0-8.39,3.75-8.39,8.39,0,4.63,3.75,8.39,8.39,8.39,4.63,0,8.39-3.75,8.39-8.39Z"/><path class="cls-4" d="M1442.59,1318.32c0-4.63-3.75-8.39-8.39-8.39-4.63,0-8.39,3.75-8.39,8.39,0,4.63,3.75,8.39,8.39,8.39s8.39-3.75,8.39-8.39Z"/><path class="cls-4" d="M818.73,1318.32c0-4.63-3.75-8.39-8.39-8.39s-8.39,3.75-8.39,8.39c0,4.63,3.75,8.39,8.39,8.39s8.39-3.75,8.39-8.39Z"/><circle class="cls-4" cx="356.67" cy="1248.61" r="8.39"/><path class="cls-4" d="M409.63,1248.61c0-4.63-3.75-8.39-8.39-8.39-4.63,0-8.39,3.75-8.39,8.39,0,4.63,3.75,8.39,8.39,8.39s8.39-3.75,8.39-8.39Z"/><path class="cls-4" d="M1636.25,1318.32c0-4.63-3.75-8.39-8.39-8.39s-8.39,3.75-8.39,8.39c0,4.63,3.75,8.39,8.39,8.39,4.63,0,8.39-3.75,8.39-8.39Z"/><path class="cls-4" d="M891.42,1169.08c0-4.63-3.75-8.39-8.39-8.39-4.63,0-8.39,3.75-8.39,8.39,0,4.63,3.75,8.39,8.39,8.39,4.63,0,8.39-3.75,8.39-8.39Z"/><path class="cls-4" d="M529.4,1349.96c0-4.63-3.75-8.39-8.39-8.39s-8.39,3.75-8.39,8.39c0,4.63,3.75,8.39,8.39,8.39s8.39-3.75,8.39-8.39Z"/><path class="cls-4" d="M574.75,1177.47c0-4.63-3.75-8.39-8.39-8.39-4.63,0-8.39,3.75-8.39,8.39,0,4.63,3.75,8.39,8.39,8.39s8.39-3.75,8.39-8.39Z"/><path class="cls-4" d="M1187.4,1318.08c0-4.63-3.75-8.39-8.39-8.39-4.63,0-8.39,3.75-8.39,8.39,0,4.63,3.75,8.39,8.39,8.39s8.39-3.75,8.39-8.39Z"/><g class="cls-5"><path class="cls-1" d="M805.42,1116.45c0,4.63,3.75,8.39,8.39,8.39s8.39-3.75,8.39-8.39c0-4.63-3.75-8.39-8.39-8.39-4.63,0-8.39,3.75-8.39,8.39Z"/><path class="cls-1" d="M724.35,1116.45c0,4.63,3.75,8.39,8.39,8.39,4.63,0,8.39-3.75,8.39-8.39,0-4.63-3.75-8.39-8.39-8.39-4.63,0-8.39,3.75-8.39,8.39Z"/><path class="cls-1" d="M687.39,1116.45c0,4.63,3.75,8.39,8.39,8.39,4.63,0,8.39-3.75,8.39-8.39s-3.75-8.39-8.39-8.39c-4.63,0-8.39,3.75-8.39,8.39Z"/><path class="cls-1" d="M517.18,1160.56c0,4.63,3.75,8.39,8.39,8.39,4.63,0,8.39-3.75,8.39-8.39,0-4.63-3.75-8.39-8.39-8.39-4.63,0-8.39,3.75-8.39,8.39Z"/><path class="cls-1" d="M1114.16,1099.68c0,4.63,3.75,8.39,8.39,8.39s8.39-3.75,8.39-8.39-3.75-8.39-8.39-8.39c-4.63,0-8.39,3.75-8.39,8.39Z"/><path class="cls-1" d="M1466.39,1099.68c0,4.63,3.75,8.39,8.39,8.39,4.63,0,8.39-3.75,8.39-8.39s-3.75-8.39-8.39-8.39c-4.63,0-8.39,3.75-8.39,8.39Z"/><path class="cls-1" d="M445.74,1099.68c0,4.63,3.75,8.39,8.39,8.39,4.63,0,8.39-3.75,8.39-8.39s-3.75-8.39-8.39-8.39c-4.63,0-8.39,3.75-8.39,8.39Z"/><path class="cls-1" d="M1069.59,1099.68c0,4.63,3.75,8.39,8.39,8.39s8.39-3.75,8.39-8.39c0-4.63-3.75-8.39-8.39-8.39s-8.39,3.75-8.39,8.39Z"/><circle class="cls-1" cx="1659.28" cy="1101.45" r="8.39"/><path class="cls-1" d="M1606.32,1101.45c0,4.63,3.75,8.39,8.39,8.39,4.63,0,8.39-3.75,8.39-8.39,0-4.63-3.75-8.39-8.39-8.39s-8.39,3.75-8.39,8.39Z"/><path class="cls-1" d="M252.08,1099.68c0,4.63,3.75,8.39,8.39,8.39s8.39-3.75,8.39-8.39c0-4.63-3.75-8.39-8.39-8.39-4.63,0-8.39,3.75-8.39,8.39Z"/><path class="cls-1" d="M996.91,1248.92c0,4.63,3.75,8.39,8.39,8.39,4.63,0,8.39-3.75,8.39-8.39,0-4.63-3.75-8.39-8.39-8.39-4.63,0-8.39,3.75-8.39,8.39Z"/><path class="cls-1" d="M1358.92,1068.04c0,4.63,3.75,8.39,8.39,8.39s8.39-3.75,8.39-8.39c0-4.63-3.75-8.39-8.39-8.39s-8.39,3.75-8.39,8.39Z"/><path class="cls-1" d="M1313.57,1240.53c0,4.63,3.75,8.39,8.39,8.39,4.63,0,8.39-3.75,8.39-8.39s-3.75-8.39-8.39-8.39c-4.63,0-8.39,3.75-8.39,8.39Z"/><path class="cls-1" d="M650.43,1116.45c0,4.63,3.75,8.39,8.39,8.39s8.39-3.75,8.39-8.39-3.75-8.39-8.39-8.39c-4.63,0-8.39,3.75-8.39,8.39Z"/><path class="cls-1" d="M1077.59,1363.93c0-4.63-3.75-8.39-8.39-8.39s-8.39,3.75-8.39,8.39c0,4.63,3.75,8.39,8.39,8.39,4.63,0,8.39-3.75,8.39-8.39Z"/><path class="cls-1" d="M1166.92,1420.86c0-4.63-3.75-8.39-8.39-8.39-4.63,0-8.39,3.75-8.39,8.39,0,4.63,3.75,8.39,8.39,8.39,4.63,0,8.39-3.75,8.39-8.39Z"/><path class="cls-1" d="M1203.89,1420.86c0-4.63-3.75-8.39-8.39-8.39-4.63,0-8.39,3.75-8.39,8.39,0,4.63,3.75,8.39,8.39,8.39,4.63,0,8.39-3.75,8.39-8.39Z"/><path class="cls-1" d="M1365.83,1319.83c0-4.63-3.75-8.39-8.39-8.39-4.63,0-8.39,3.75-8.39,8.39s3.75,8.39,8.39,8.39c4.63,0,8.39-3.75,8.39-8.39Z"/><path class="cls-1" d="M768.85,1380.71c0-4.63-3.75-8.39-8.39-8.39s-8.39,3.75-8.39,8.39,3.75,8.39,8.39,8.39c4.63,0,8.39-3.75,8.39-8.39Z"/><path class="cls-1" d="M416.62,1380.71c0-4.63-3.75-8.39-8.39-8.39-4.63,0-8.39,3.75-8.39,8.39,0,4.63,3.75,8.39,8.39,8.39,4.63,0,8.39-3.75,8.39-8.39Z"/><path class="cls-1" d="M1437.27,1380.71c0-4.63-3.75-8.39-8.39-8.39-4.63,0-8.39,3.75-8.39,8.39,0,4.63,3.75,8.39,8.39,8.39s8.39-3.75,8.39-8.39Z"/><path class="cls-1" d="M864.84,1429.37c0-4.63-3.75-8.39-8.39-8.39s-8.39,3.75-8.39,8.39c0,4.63,3.75,8.39,8.39,8.39,4.63,0,8.39-3.75,8.39-8.39Z"/><circle class="cls-1" cx="223.74" cy="1378.94" r="8.39"/><path class="cls-1" d="M276.7,1378.94c0-4.63-3.75-8.39-8.39-8.39-4.63,0-8.39,3.75-8.39,8.39,0,4.63,3.75,8.39,8.39,8.39s8.39-3.75,8.39-8.39Z"/><path class="cls-1" d="M1630.94,1380.71c0-4.63-3.75-8.39-8.39-8.39s-8.39,3.75-8.39,8.39c0,4.63,3.75,8.39,8.39,8.39,4.63,0,8.39-3.75,8.39-8.39Z"/><path class="cls-1" d="M886.1,1231.47c0-4.63-3.75-8.39-8.39-8.39-4.63,0-8.39,3.75-8.39,8.39,0,4.63,3.75,8.39,8.39,8.39,4.63,0,8.39-3.75,8.39-8.39Z"/><path class="cls-1" d="M524.09,1412.34c0-4.63-3.75-8.39-8.39-8.39s-8.39,3.75-8.39,8.39c0,4.63,3.75,8.39,8.39,8.39s8.39-3.75,8.39-8.39Z"/><path class="cls-1" d="M569.44,1239.85c0-4.63-3.75-8.39-8.39-8.39s-8.39,3.75-8.39,8.39,3.75,8.39,8.39,8.39c4.63,0,8.39-3.75,8.39-8.39Z"/><path class="cls-1" d="M1232.58,1363.93c0-4.63-3.75-8.39-8.39-8.39-4.63,0-8.39,3.75-8.39,8.39s3.75,8.39,8.39,8.39,8.39-3.75,8.39-8.39Z"/><path class="cls-1" d="M791.55,1311.89c0,4.63,3.75,8.39,8.39,8.39s8.39-3.75,8.39-8.39c0-4.63-3.75-8.39-8.39-8.39-4.63,0-8.39,3.75-8.39,8.39Z"/><path class="cls-1" d="M695.79,1328.42c0,4.63,3.75,8.39,8.39,8.39,4.63,0,8.39-3.75,8.39-8.39,0-4.63-3.75-8.39-8.39-8.39-4.63,0-8.39,3.75-8.39,8.39Z"/><path class="cls-1" d="M732.28,1232.02c0,4.63,3.75,8.39,8.39,8.39,4.63,0,8.39-3.75,8.39-8.39s-3.75-8.39-8.39-8.39-8.39,3.75-8.39,8.39Z"/><path class="cls-1" d="M512.49,1309.17c0,4.63,3.75,8.39,8.39,8.39,4.63,0,8.39-3.75,8.39-8.39s-3.75-8.39-8.39-8.39c-4.63,0-8.39,3.75-8.39,8.39Z"/><path class="cls-1" d="M1109.47,1248.29c0,4.63,3.75,8.39,8.39,8.39,4.63,0,8.39-3.75,8.39-8.39s-3.75-8.39-8.39-8.39c-4.63,0-8.39,3.75-8.39,8.39Z"/><path class="cls-1" d="M1461.7,1248.29c0,4.63,3.75,8.39,8.39,8.39,4.63,0,8.39-3.75,8.39-8.39,0-4.63-3.75-8.39-8.39-8.39-4.63,0-8.39,3.75-8.39,8.39Z"/><path class="cls-1" d="M441.05,1248.29c0,4.63,3.75,8.39,8.39,8.39,4.63,0,8.39-3.75,8.39-8.39s-3.75-8.39-8.39-8.39c-4.63,0-8.39,3.75-8.39,8.39Z"/><path class="cls-1" d="M1064.9,1248.29c0,4.63,3.75,8.39,8.39,8.39s8.39-3.75,8.39-8.39c0-4.63-3.75-8.39-8.39-8.39s-8.39,3.75-8.39,8.39Z"/><circle class="cls-1" cx="1654.59" cy="1250.06" r="8.39"/><path class="cls-1" d="M1601.63,1250.06c0,4.63,3.75,8.39,8.39,8.39,4.63,0,8.39-3.75,8.39-8.39s-3.75-8.39-8.39-8.39-8.39,3.75-8.39,8.39Z"/><path class="cls-1" d="M247.39,1248.29c0,4.63,3.75,8.39,8.39,8.39s8.39-3.75,8.39-8.39c0-4.63-3.75-8.39-8.39-8.39s-8.39,3.75-8.39,8.39Z"/><path class="cls-1" d="M992.22,1397.53c0,4.63,3.75,8.39,8.39,8.39,4.63,0,8.39-3.75,8.39-8.39,0-4.63-3.75-8.39-8.39-8.39-4.63,0-8.39,3.75-8.39,8.39Z"/><path class="cls-1" d="M1354.23,1216.66c0,4.63,3.75,8.39,8.39,8.39s8.39-3.75,8.39-8.39c0-4.63-3.75-8.39-8.39-8.39-4.63,0-8.39,3.75-8.39,8.39Z"/><path class="cls-1" d="M1308.88,1389.15c0,4.63,3.75,8.39,8.39,8.39s8.39-3.75,8.39-8.39c0-4.63-3.75-8.39-8.39-8.39s-8.39,3.75-8.39,8.39Z"/><path class="cls-1" d="M645.74,1265.07c0,4.63,3.75,8.39,8.39,8.39s8.39-3.75,8.39-8.39-3.75-8.39-8.39-8.39c-4.63,0-8.39,3.75-8.39,8.39Z"/><path class="cls-1" d="M986.6,1485.01c0-4.63-3.75-8.39-8.39-8.39s-8.39,3.75-8.39,8.39c0,4.63,3.75,8.39,8.39,8.39s8.39-3.75,8.39-8.39Z"/><path class="cls-1" d="M1067.67,1485.01c0-4.63-3.75-8.39-8.39-8.39-4.63,0-8.39,3.75-8.39,8.39,0,4.63,3.75,8.39,8.39,8.39,4.63,0,8.39-3.75,8.39-8.39Z"/><path class="cls-1" d="M1140.44,1529.08c0-4.63-3.75-8.39-8.39-8.39-4.63,0-8.39,3.75-8.39,8.39,0,4.63,3.75,8.39,8.39,8.39s8.39-3.75,8.39-8.39Z"/><path class="cls-1" d="M1361.15,1468.44c0-4.63-3.75-8.39-8.39-8.39-4.63,0-8.39,3.75-8.39,8.39s3.75,8.39,8.39,8.39c4.63,0,8.39-3.75,8.39-8.39Z"/><path class="cls-1" d="M764.16,1529.32c0-4.63-3.75-8.39-8.39-8.39s-8.39,3.75-8.39,8.39,3.75,8.39,8.39,8.39c4.63,0,8.39-3.75,8.39-8.39Z"/><path class="cls-1" d="M411.93,1529.32c0-4.63-3.75-8.39-8.39-8.39-4.63,0-8.39,3.75-8.39,8.39,0,4.63,3.75,8.39,8.39,8.39,4.63,0,8.39-3.75,8.39-8.39Z"/><path class="cls-1" d="M1432.59,1529.32c0-4.63-3.75-8.39-8.39-8.39-4.63,0-8.39,3.75-8.39,8.39,0,4.63,3.75,8.39,8.39,8.39s8.39-3.75,8.39-8.39Z"/><path class="cls-1" d="M808.73,1529.32c0-4.63-3.75-8.39-8.39-8.39s-8.39,3.75-8.39,8.39c0,4.63,3.75,8.39,8.39,8.39s8.39-3.75,8.39-8.39Z"/><circle class="cls-1" cx="346.67" cy="1459.61" r="8.39"/><path class="cls-1" d="M399.63,1459.61c0-4.63-3.75-8.39-8.39-8.39-4.63,0-8.39,3.75-8.39,8.39,0,4.63,3.75,8.39,8.39,8.39s8.39-3.75,8.39-8.39Z"/><path class="cls-1" d="M1626.25,1529.32c0-4.63-3.75-8.39-8.39-8.39s-8.39,3.75-8.39,8.39c0,4.63,3.75,8.39,8.39,8.39,4.63,0,8.39-3.75,8.39-8.39Z"/><path class="cls-1" d="M881.42,1380.08c0-4.63-3.75-8.39-8.39-8.39-4.63,0-8.39,3.75-8.39,8.39,0,4.63,3.75,8.39,8.39,8.39,4.63,0,8.39-3.75,8.39-8.39Z"/><path class="cls-1" d="M519.4,1560.96c0-4.63-3.75-8.39-8.39-8.39s-8.39,3.75-8.39,8.39c0,4.63,3.75,8.39,8.39,8.39s8.39-3.75,8.39-8.39Z"/><path class="cls-1" d="M564.75,1388.47c0-4.63-3.75-8.39-8.39-8.39-4.63,0-8.39,3.75-8.39,8.39,0,4.63,3.75,8.39,8.39,8.39s8.39-3.75,8.39-8.39Z"/><path class="cls-1" d="M1177.4,1529.08c0-4.63-3.75-8.39-8.39-8.39-4.63,0-8.39,3.75-8.39,8.39,0,4.63,3.75,8.39,8.39,8.39s8.39-3.75,8.39-8.39Z"/></g><path class="cls-1" d="M1132.58,1438.13c0-4.63-3.75-8.39-8.39-8.39s-8.39,3.75-8.39,8.39c0,4.63,3.75,8.39,8.39,8.39,4.63,0,8.39-3.75,8.39-8.39Z"/><path class="cls-1" d="M1213.65,1438.13c0-4.63-3.75-8.39-8.39-8.39-4.63,0-8.39,3.75-8.39,8.39,0,4.63,3.75,8.39,8.39,8.39,4.63,0,8.39-3.75,8.39-8.39Z"/><path class="cls-1" d="M1250.61,1438.13c0-4.63-3.75-8.39-8.39-8.39-4.63,0-8.39,3.75-8.39,8.39,0,4.63,3.75,8.39,8.39,8.39,4.63,0,8.39-3.75,8.39-8.39Z"/><path class="cls-1" d="M1420.82,1394.03c0-4.63-3.75-8.39-8.39-8.39-4.63,0-8.39,3.75-8.39,8.39,0,4.63,3.75,8.39,8.39,8.39,4.63,0,8.39-3.75,8.39-8.39Z"/><path class="cls-1" d="M823.84,1454.91c0-4.63-3.75-8.39-8.39-8.39s-8.39,3.75-8.39,8.39c0,4.63,3.75,8.39,8.39,8.39,4.63,0,8.39-3.75,8.39-8.39Z"/><path class="cls-1" d="M471.61,1454.91c0-4.63-3.75-8.39-8.39-8.39-4.63,0-8.39,3.75-8.39,8.39,0,4.63,3.75,8.39,8.39,8.39,4.63,0,8.39-3.75,8.39-8.39Z"/><path class="cls-1" d="M1492.26,1454.91c0-4.63-3.75-8.39-8.39-8.39-4.63,0-8.39,3.75-8.39,8.39s3.75,8.39,8.39,8.39c4.63,0,8.39-3.75,8.39-8.39Z"/><path class="cls-1" d="M868.41,1454.91c0-4.63-3.75-8.39-8.39-8.39s-8.39,3.75-8.39,8.39c0,4.63,3.75,8.39,8.39,8.39s8.39-3.75,8.39-8.39Z"/><circle class="cls-1" cx="278.72" cy="1453.14" r="8.39"/><path class="cls-1" d="M331.68,1453.14c0-4.63-3.75-8.39-8.39-8.39-4.63,0-8.39,3.75-8.39,8.39,0,4.63,3.75,8.39,8.39,8.39s8.39-3.75,8.39-8.39Z"/><path class="cls-1" d="M1685.92,1454.91c0-4.63-3.75-8.39-8.39-8.39s-8.39,3.75-8.39,8.39c0,4.63,3.75,8.39,8.39,8.39,4.63,0,8.39-3.75,8.39-8.39Z"/><path class="cls-1" d="M941.09,1305.67c0-4.63-3.75-8.39-8.39-8.39-4.63,0-8.39,3.75-8.39,8.39,0,4.63,3.75,8.39,8.39,8.39,4.63,0,8.39-3.75,8.39-8.39Z"/><path class="cls-1" d="M579.08,1486.54c0-4.63-3.75-8.39-8.39-8.39s-8.39,3.75-8.39,8.39c0,4.63,3.75,8.39,8.39,8.39s8.39-3.75,8.39-8.39Z"/><path class="cls-1" d="M624.43,1314.05c0-4.63-3.75-8.39-8.39-8.39-4.63,0-8.39,3.75-8.39,8.39s3.75,8.39,8.39,8.39c4.63,0,8.39-3.75,8.39-8.39Z"/><path class="cls-1" d="M1287.57,1438.13c0-4.63-3.75-8.39-8.39-8.39s-8.39,3.75-8.39,8.39c0,4.63,3.75,8.39,8.39,8.39,4.63,0,8.39-3.75,8.39-8.39Z"/><path class="cls-1" d="M860.41,1190.65c0,4.63,3.75,8.39,8.39,8.39s8.39-3.75,8.39-8.39c0-4.63-3.75-8.39-8.39-8.39-4.63,0-8.39,3.75-8.39,8.39Z"/><path class="cls-1" d="M771.08,1133.73c0,4.63,3.75,8.39,8.39,8.39,4.63,0,8.39-3.75,8.39-8.39,0-4.63-3.75-8.39-8.39-8.39-4.63,0-8.39,3.75-8.39,8.39Z"/><path class="cls-1" d="M734.11,1133.73c0,4.63,3.75,8.39,8.39,8.39,4.63,0,8.39-3.75,8.39-8.39s-3.75-8.39-8.39-8.39c-4.63,0-8.39,3.75-8.39,8.39Z"/><path class="cls-1" d="M572.17,1234.76c0,4.63,3.75,8.39,8.39,8.39,4.63,0,8.39-3.75,8.39-8.39,0-4.63-3.75-8.39-8.39-8.39-4.63,0-8.39,3.75-8.39,8.39Z"/><path class="cls-1" d="M1169.15,1173.88c0,4.63,3.75,8.39,8.39,8.39s8.39-3.75,8.39-8.39-3.75-8.39-8.39-8.39c-4.63,0-8.39,3.75-8.39,8.39Z"/><path class="cls-1" d="M1521.38,1173.88c0,4.63,3.75,8.39,8.39,8.39,4.63,0,8.39-3.75,8.39-8.39,0-4.63-3.75-8.39-8.39-8.39-4.63,0-8.39,3.75-8.39,8.39Z"/><path class="cls-1" d="M500.73,1173.88c0,4.63,3.75,8.39,8.39,8.39,4.63,0,8.39-3.75,8.39-8.39,0-4.63-3.75-8.39-8.39-8.39s-8.39,3.75-8.39,8.39Z"/><path class="cls-1" d="M1073.16,1125.22c0,4.63,3.75,8.39,8.39,8.39s8.39-3.75,8.39-8.39c0-4.63-3.75-8.39-8.39-8.39-4.63,0-8.39,3.75-8.39,8.39Z"/><circle class="cls-1" cx="1714.26" cy="1175.65" r="8.39"/><path class="cls-1" d="M1661.3,1175.65c0,4.63,3.75,8.39,8.39,8.39,4.63,0,8.39-3.75,8.39-8.39,0-4.63-3.75-8.39-8.39-8.39s-8.39,3.75-8.39,8.39Z"/><path class="cls-1" d="M307.06,1173.88c0,4.63,3.75,8.39,8.39,8.39s8.39-3.75,8.39-8.39c0-4.63-3.75-8.39-8.39-8.39-4.63,0-8.39,3.75-8.39,8.39Z"/><path class="cls-1" d="M1051.9,1323.12c0,4.63,3.75,8.39,8.39,8.39,4.63,0,8.39-3.75,8.39-8.39,0-4.63-3.75-8.39-8.39-8.39-4.63,0-8.39,3.75-8.39,8.39Z"/><path class="cls-1" d="M1413.91,1142.24c0,4.63,3.75,8.39,8.39,8.39s8.39-3.75,8.39-8.39-3.75-8.39-8.39-8.39-8.39,3.75-8.39,8.39Z"/><path class="cls-1" d="M1368.56,1314.73c0,4.63,3.75,8.39,8.39,8.39s8.39-3.75,8.39-8.39c0-4.63-3.75-8.39-8.39-8.39-4.63,0-8.39,3.75-8.39,8.39Z"/><path class="cls-1" d="M705.42,1190.65c0,4.63,3.75,8.39,8.39,8.39,4.63,0,8.39-3.75,8.39-8.39s-3.75-8.39-8.39-8.39-8.39,3.75-8.39,8.39Z"/><path class="cls-1" d="M1146.45,1242.69c0-4.63-3.75-8.39-8.39-8.39s-8.39,3.75-8.39,8.39c0,4.63,3.75,8.39,8.39,8.39,4.63,0,8.39-3.75,8.39-8.39Z"/><path class="cls-1" d="M1242.21,1226.17c0-4.63-3.75-8.39-8.39-8.39-4.63,0-8.39,3.75-8.39,8.39,0,4.63,3.75,8.39,8.39,8.39,4.63,0,8.39-3.75,8.39-8.39Z"/><path class="cls-1" d="M1205.72,1322.57c0-4.63-3.75-8.39-8.39-8.39-4.63,0-8.39,3.75-8.39,8.39s3.75,8.39,8.39,8.39,8.39-3.75,8.39-8.39Z"/><path class="cls-1" d="M1425.51,1245.41c0-4.63-3.75-8.39-8.39-8.39-4.63,0-8.39,3.75-8.39,8.39s3.75,8.39,8.39,8.39c4.63,0,8.39-3.75,8.39-8.39Z"/><path class="cls-1" d="M828.53,1306.29c0-4.63-3.75-8.39-8.39-8.39-4.63,0-8.39,3.75-8.39,8.39s3.75,8.39,8.39,8.39c4.63,0,8.39-3.75,8.39-8.39Z"/><path class="cls-1" d="M476.3,1306.29c0-4.63-3.75-8.39-8.39-8.39-4.63,0-8.39,3.75-8.39,8.39,0,4.63,3.75,8.39,8.39,8.39,4.63,0,8.39-3.75,8.39-8.39Z"/><path class="cls-1" d="M1496.95,1306.29c0-4.63-3.75-8.39-8.39-8.39-4.63,0-8.39,3.75-8.39,8.39,0,4.63,3.75,8.39,8.39,8.39,4.63,0,8.39-3.75,8.39-8.39Z"/><path class="cls-1" d="M873.1,1306.29c0-4.63-3.75-8.39-8.39-8.39s-8.39,3.75-8.39,8.39c0,4.63,3.75,8.39,8.39,8.39s8.39-3.75,8.39-8.39Z"/><circle class="cls-1" cx="283.41" cy="1304.52" r="8.39"/><path class="cls-1" d="M336.37,1304.52c0-4.63-3.75-8.39-8.39-8.39-4.63,0-8.39,3.75-8.39,8.39,0,4.63,3.75,8.39,8.39,8.39s8.39-3.75,8.39-8.39Z"/><path class="cls-1" d="M1690.61,1306.29c0-4.63-3.75-8.39-8.39-8.39s-8.39,3.75-8.39,8.39,3.75,8.39,8.39,8.39,8.39-3.75,8.39-8.39Z"/><path class="cls-1" d="M945.78,1157.05c0-4.63-3.75-8.39-8.39-8.39-4.63,0-8.39,3.75-8.39,8.39,0,4.63,3.75,8.39,8.39,8.39,4.63,0,8.39-3.75,8.39-8.39Z"/><path class="cls-1" d="M583.77,1337.93c0-4.63-3.75-8.39-8.39-8.39s-8.39,3.75-8.39,8.39c0,4.63,3.75,8.39,8.39,8.39s8.39-3.75,8.39-8.39Z"/><path class="cls-1" d="M629.12,1165.44c0-4.63-3.75-8.39-8.39-8.39s-8.39,3.75-8.39,8.39c0,4.63,3.75,8.39,8.39,8.39s8.39-3.75,8.39-8.39Z"/><path class="cls-1" d="M1292.26,1289.52c0-4.63-3.75-8.39-8.39-8.39s-8.39,3.75-8.39,8.39c0,4.63,3.75,8.39,8.39,8.39,4.63,0,8.39-3.75,8.39-8.39Z"/><path class="cls-1" d="M951.4,1069.58c0,4.63,3.75,8.39,8.39,8.39s8.39-3.75,8.39-8.39c0-4.63-3.75-8.39-8.39-8.39s-8.39,3.75-8.39,8.39Z"/><path class="cls-1" d="M870.33,1069.58c0,4.63,3.75,8.39,8.39,8.39,4.63,0,8.39-3.75,8.39-8.39,0-4.63-3.75-8.39-8.39-8.39-4.63,0-8.39,3.75-8.39,8.39Z"/><path class="cls-1" d="M797.56,1025.51c0,4.63,3.75,8.39,8.39,8.39s8.39-3.75,8.39-8.39c0-4.63-3.75-8.39-8.39-8.39s-8.39,3.75-8.39,8.39Z"/><path class="cls-1" d="M576.85,1086.14c0,4.63,3.75,8.39,8.39,8.39,4.63,0,8.39-3.75,8.39-8.39s-3.75-8.39-8.39-8.39c-4.63,0-8.39,3.75-8.39,8.39Z"/><path class="cls-1" d="M1173.84,1025.26c0,4.63,3.75,8.39,8.39,8.39,4.63,0,8.39-3.75,8.39-8.39,0-4.63-3.75-8.39-8.39-8.39-4.63,0-8.39,3.75-8.39,8.39Z"/><path class="cls-1" d="M1526.07,1025.26c0,4.63,3.75,8.39,8.39,8.39,4.63,0,8.39-3.75,8.39-8.39,0-4.63-3.75-8.39-8.39-8.39-4.63,0-8.39,3.75-8.39,8.39Z"/><path class="cls-1" d="M505.41,1025.26c0,4.63,3.75,8.39,8.39,8.39,4.63,0,8.39-3.75,8.39-8.39,0-4.63-3.75-8.39-8.39-8.39s-8.39,3.75-8.39,8.39Z"/><path class="cls-1" d="M1129.27,1025.26c0,4.63,3.75,8.39,8.39,8.39s8.39-3.75,8.39-8.39c0-4.63-3.75-8.39-8.39-8.39s-8.39,3.75-8.39,8.39Z"/><circle class="cls-1" cx="1591.33" cy="1094.97" r="8.39"/><path class="cls-1" d="M1538.37,1094.97c0,4.63,3.75,8.39,8.39,8.39,4.63,0,8.39-3.75,8.39-8.39,0-4.63-3.75-8.39-8.39-8.39s-8.39,3.75-8.39,8.39Z"/><path class="cls-1" d="M311.75,1025.26c0,4.63,3.75,8.39,8.39,8.39s8.39-3.75,8.39-8.39c0-4.63-3.75-8.39-8.39-8.39-4.63,0-8.39,3.75-8.39,8.39Z"/><path class="cls-1" d="M1056.58,1174.5c0,4.63,3.75,8.39,8.39,8.39,4.63,0,8.39-3.75,8.39-8.39,0-4.63-3.75-8.39-8.39-8.39-4.63,0-8.39,3.75-8.39,8.39Z"/><path class="cls-1" d="M1418.6,993.63c0,4.63,3.75,8.39,8.39,8.39s8.39-3.75,8.39-8.39c0-4.63-3.75-8.39-8.39-8.39s-8.39,3.75-8.39,8.39Z"/><path class="cls-1" d="M1373.25,1166.11c0,4.63,3.75,8.39,8.39,8.39,4.63,0,8.39-3.75,8.39-8.39s-3.75-8.39-8.39-8.39-8.39,3.75-8.39,8.39Z"/><path class="cls-1" d="M760.6,1025.51c0,4.63,3.75,8.39,8.39,8.39,4.63,0,8.39-3.75,8.39-8.39s-3.75-8.39-8.39-8.39-8.39,3.75-8.39,8.39Z"/><path class="cls-4" d="M797.42,1373.45c0,4.63,3.75,8.39,8.39,8.39s8.39-3.75,8.39-8.39c0-4.63-3.75-8.39-8.39-8.39-4.63,0-8.39,3.75-8.39,8.39Z"/><path class="cls-4" d="M716.35,1373.45c0,4.63,3.75,8.39,8.39,8.39,4.63,0,8.39-3.75,8.39-8.39,0-4.63-3.75-8.39-8.39-8.39-4.63,0-8.39,3.75-8.39,8.39Z"/><path class="cls-4" d="M760.39,1258.45c0,4.63,3.75,8.39,8.39,8.39,4.63,0,8.39-3.75,8.39-8.39s-3.75-8.39-8.39-8.39c-4.63,0-8.39,3.75-8.39,8.39Z"/><path class="cls-4" d="M509.18,1417.56c0,4.63,3.75,8.39,8.39,8.39,4.63,0,8.39-3.75,8.39-8.39,0-4.63-3.75-8.39-8.39-8.39-4.63,0-8.39,3.75-8.39,8.39Z"/><path class="cls-4" d="M1106.16,1356.68c0,4.63,3.75,8.39,8.39,8.39s8.39-3.75,8.39-8.39-3.75-8.39-8.39-8.39c-4.63,0-8.39,3.75-8.39,8.39Z"/><path class="cls-4" d="M1458.39,1356.68c0,4.63,3.75,8.39,8.39,8.39,4.63,0,8.39-3.75,8.39-8.39s-3.75-8.39-8.39-8.39c-4.63,0-8.39,3.75-8.39,8.39Z"/><path class="cls-4" d="M437.74,1356.68c0,4.63,3.75,8.39,8.39,8.39,4.63,0,8.39-3.75,8.39-8.39s-3.75-8.39-8.39-8.39c-4.63,0-8.39,3.75-8.39,8.39Z"/><path class="cls-4" d="M1061.59,1356.68c0,4.63,3.75,8.39,8.39,8.39s8.39-3.75,8.39-8.39c0-4.63-3.75-8.39-8.39-8.39s-8.39,3.75-8.39,8.39Z"/><circle class="cls-4" cx="1651.28" cy="1358.45" r="8.39"/><path class="cls-4" d="M1598.32,1358.45c0,4.63,3.75,8.39,8.39,8.39,4.63,0,8.39-3.75,8.39-8.39,0-4.63-3.75-8.39-8.39-8.39s-8.39,3.75-8.39,8.39Z"/><path class="cls-4" d="M244.08,1356.68c0,4.63,3.75,8.39,8.39,8.39s8.39-3.75,8.39-8.39c0-4.63-3.75-8.39-8.39-8.39-4.63,0-8.39,3.75-8.39,8.39Z"/><path class="cls-4" d="M988.91,1505.92c0,4.63,3.75,8.39,8.39,8.39,4.63,0,8.39-3.75,8.39-8.39,0-4.63-3.75-8.39-8.39-8.39-4.63,0-8.39,3.75-8.39,8.39Z"/><path class="cls-4" d="M1350.92,1325.04c0,4.63,3.75,8.39,8.39,8.39s8.39-3.75,8.39-8.39c0-4.63-3.75-8.39-8.39-8.39s-8.39,3.75-8.39,8.39Z"/><path class="cls-4" d="M1305.57,1497.53c0,4.63,3.75,8.39,8.39,8.39,4.63,0,8.39-3.75,8.39-8.39s-3.75-8.39-8.39-8.39c-4.63,0-8.39,3.75-8.39,8.39Z"/><path class="cls-4" d="M642.43,1373.45c0,4.63,3.75,8.39,8.39,8.39s8.39-3.75,8.39-8.39-3.75-8.39-8.39-8.39c-4.63,0-8.39,3.75-8.39,8.39Z"/><path class="cls-4" d="M1069.59,1620.93c0-4.63-3.75-8.39-8.39-8.39s-8.39,3.75-8.39,8.39c0,4.63,3.75,8.39,8.39,8.39,4.63,0,8.39-3.75,8.39-8.39Z"/><path class="cls-4" d="M1158.92,1677.86c0-4.63-3.75-8.39-8.39-8.39-4.63,0-8.39,3.75-8.39,8.39,0,4.63,3.75,8.39,8.39,8.39,4.63,0,8.39-3.75,8.39-8.39Z"/><path class="cls-4" d="M1195.89,1677.86c0-4.63-3.75-8.39-8.39-8.39-4.63,0-8.39,3.75-8.39,8.39,0,4.63,3.75,8.39,8.39,8.39,4.63,0,8.39-3.75,8.39-8.39Z"/><path class="cls-4" d="M1357.83,1576.83c0-4.63-3.75-8.39-8.39-8.39-4.63,0-8.39,3.75-8.39,8.39s3.75,8.39,8.39,8.39c4.63,0,8.39-3.75,8.39-8.39Z"/><path class="cls-4" d="M760.85,1637.71c0-4.63-3.75-8.39-8.39-8.39s-8.39,3.75-8.39,8.39,3.75,8.39,8.39,8.39c4.63,0,8.39-3.75,8.39-8.39Z"/><path class="cls-4" d="M408.62,1637.71c0-4.63-3.75-8.39-8.39-8.39-4.63,0-8.39,3.75-8.39,8.39,0,4.63,3.75,8.39,8.39,8.39,4.63,0,8.39-3.75,8.39-8.39Z"/><path class="cls-4" d="M1429.27,1637.71c0-4.63-3.75-8.39-8.39-8.39-4.63,0-8.39,3.75-8.39,8.39,0,4.63,3.75,8.39,8.39,8.39s8.39-3.75,8.39-8.39Z"/><path class="cls-4" d="M856.84,1686.37c0-4.63-3.75-8.39-8.39-8.39s-8.39,3.75-8.39,8.39c0,4.63,3.75,8.39,8.39,8.39,4.63,0,8.39-3.75,8.39-8.39Z"/><circle class="cls-4" cx="215.74" cy="1635.94" r="8.39"/><path class="cls-4" d="M268.7,1635.94c0-4.63-3.75-8.39-8.39-8.39-4.63,0-8.39,3.75-8.39,8.39,0,4.63,3.75,8.39,8.39,8.39s8.39-3.75,8.39-8.39Z"/><path class="cls-4" d="M1622.94,1637.71c0-4.63-3.75-8.39-8.39-8.39s-8.39,3.75-8.39,8.39c0,4.63,3.75,8.39,8.39,8.39,4.63,0,8.39-3.75,8.39-8.39Z"/><path class="cls-4" d="M878.1,1488.47c0-4.63-3.75-8.39-8.39-8.39-4.63,0-8.39,3.75-8.39,8.39,0,4.63,3.75,8.39,8.39,8.39,4.63,0,8.39-3.75,8.39-8.39Z"/><path class="cls-4" d="M516.09,1669.34c0-4.63-3.75-8.39-8.39-8.39s-8.39,3.75-8.39,8.39c0,4.63,3.75,8.39,8.39,8.39s8.39-3.75,8.39-8.39Z"/><path class="cls-4" d="M561.44,1496.85c0-4.63-3.75-8.39-8.39-8.39s-8.39,3.75-8.39,8.39,3.75,8.39,8.39,8.39c4.63,0,8.39-3.75,8.39-8.39Z"/><path class="cls-4" d="M1224.58,1620.93c0-4.63-3.75-8.39-8.39-8.39-4.63,0-8.39,3.75-8.39,8.39s3.75,8.39,8.39,8.39,8.39-3.75,8.39-8.39Z"/><path class="cls-4" d="M783.55,1568.89c0,4.63,3.75,8.39,8.39,8.39s8.39-3.75,8.39-8.39c0-4.63-3.75-8.39-8.39-8.39-4.63,0-8.39,3.75-8.39,8.39Z"/><path class="cls-4" d="M687.79,1585.42c0,4.63,3.75,8.39,8.39,8.39,4.63,0,8.39-3.75,8.39-8.39,0-4.63-3.75-8.39-8.39-8.39-4.63,0-8.39,3.75-8.39,8.39Z"/><path class="cls-4" d="M724.28,1489.02c0,4.63,3.75,8.39,8.39,8.39,4.63,0,8.39-3.75,8.39-8.39s-3.75-8.39-8.39-8.39-8.39,3.75-8.39,8.39Z"/><path class="cls-4" d="M504.49,1566.17c0,4.63,3.75,8.39,8.39,8.39,4.63,0,8.39-3.75,8.39-8.39s-3.75-8.39-8.39-8.39c-4.63,0-8.39,3.75-8.39,8.39Z"/><path class="cls-4" d="M1101.47,1505.29c0,4.63,3.75,8.39,8.39,8.39,4.63,0,8.39-3.75,8.39-8.39s-3.75-8.39-8.39-8.39c-4.63,0-8.39,3.75-8.39,8.39Z"/><path class="cls-4" d="M1453.7,1505.29c0,4.63,3.75,8.39,8.39,8.39,4.63,0,8.39-3.75,8.39-8.39,0-4.63-3.75-8.39-8.39-8.39-4.63,0-8.39,3.75-8.39,8.39Z"/><path class="cls-4" d="M433.05,1505.29c0,4.63,3.75,8.39,8.39,8.39,4.63,0,8.39-3.75,8.39-8.39s-3.75-8.39-8.39-8.39c-4.63,0-8.39,3.75-8.39,8.39Z"/><path class="cls-4" d="M1056.9,1505.29c0,4.63,3.75,8.39,8.39,8.39s8.39-3.75,8.39-8.39c0-4.63-3.75-8.39-8.39-8.39s-8.39,3.75-8.39,8.39Z"/><circle class="cls-4" cx="1646.59" cy="1507.06" r="8.39"/><path class="cls-4" d="M1593.63,1507.06c0,4.63,3.75,8.39,8.39,8.39,4.63,0,8.39-3.75,8.39-8.39s-3.75-8.39-8.39-8.39-8.39,3.75-8.39,8.39Z"/><path class="cls-4" d="M239.39,1505.29c0,4.63,3.75,8.39,8.39,8.39s8.39-3.75,8.39-8.39c0-4.63-3.75-8.39-8.39-8.39s-8.39,3.75-8.39,8.39Z"/><path class="cls-4" d="M984.22,1654.53c0,4.63,3.75,8.39,8.39,8.39,4.63,0,8.39-3.75,8.39-8.39,0-4.63-3.75-8.39-8.39-8.39-4.63,0-8.39,3.75-8.39,8.39Z"/><path class="cls-4" d="M1346.23,1473.66c0,4.63,3.75,8.39,8.39,8.39s8.39-3.75,8.39-8.39c0-4.63-3.75-8.39-8.39-8.39-4.63,0-8.39,3.75-8.39,8.39Z"/><path class="cls-4" d="M1300.88,1646.15c0,4.63,3.75,8.39,8.39,8.39s8.39-3.75,8.39-8.39c0-4.63-3.75-8.39-8.39-8.39s-8.39,3.75-8.39,8.39Z"/><path class="cls-4" d="M637.74,1522.07c0,4.63,3.75,8.39,8.39,8.39s8.39-3.75,8.39-8.39-3.75-8.39-8.39-8.39c-4.63,0-8.39,3.75-8.39,8.39Z"/><path class="cls-4" d="M978.6,1742.01c0-4.63-3.75-8.39-8.39-8.39s-8.39,3.75-8.39,8.39c0,4.63,3.75,8.39,8.39,8.39s8.39-3.75,8.39-8.39Z"/><path class="cls-4" d="M1059.67,1742.01c0-4.63-3.75-8.39-8.39-8.39-4.63,0-8.39,3.75-8.39,8.39,0,4.63,3.75,8.39,8.39,8.39,4.63,0,8.39-3.75,8.39-8.39Z"/><path class="cls-4" d="M1132.44,1786.08c0-4.63-3.75-8.39-8.39-8.39-4.63,0-8.39,3.75-8.39,8.39,0,4.63,3.75,8.39,8.39,8.39s8.39-3.75,8.39-8.39Z"/><path class="cls-4" d="M1353.15,1725.44c0-4.63-3.75-8.39-8.39-8.39-4.63,0-8.39,3.75-8.39,8.39s3.75,8.39,8.39,8.39c4.63,0,8.39-3.75,8.39-8.39Z"/><path class="cls-4" d="M756.16,1786.32c0-4.63-3.75-8.39-8.39-8.39s-8.39,3.75-8.39,8.39,3.75,8.39,8.39,8.39c4.63,0,8.39-3.75,8.39-8.39Z"/><path class="cls-4" d="M403.93,1786.32c0-4.63-3.75-8.39-8.39-8.39-4.63,0-8.39,3.75-8.39,8.39,0,4.63,3.75,8.39,8.39,8.39,4.63,0,8.39-3.75,8.39-8.39Z"/><path class="cls-4" d="M1424.59,1786.32c0-4.63-3.75-8.39-8.39-8.39-4.63,0-8.39,3.75-8.39,8.39,0,4.63,3.75,8.39,8.39,8.39s8.39-3.75,8.39-8.39Z"/><path class="cls-4" d="M800.73,1786.32c0-4.63-3.75-8.39-8.39-8.39s-8.39,3.75-8.39,8.39c0,4.63,3.75,8.39,8.39,8.39s8.39-3.75,8.39-8.39Z"/><circle class="cls-4" cx="338.67" cy="1716.61" r="8.39"/><path class="cls-4" d="M391.63,1716.61c0-4.63-3.75-8.39-8.39-8.39-4.63,0-8.39,3.75-8.39,8.39,0,4.63,3.75,8.39,8.39,8.39s8.39-3.75,8.39-8.39Z"/><path class="cls-4" d="M1618.25,1786.32c0-4.63-3.75-8.39-8.39-8.39s-8.39,3.75-8.39,8.39c0,4.63,3.75,8.39,8.39,8.39,4.63,0,8.39-3.75,8.39-8.39Z"/><path class="cls-4" d="M873.42,1637.08c0-4.63-3.75-8.39-8.39-8.39-4.63,0-8.39,3.75-8.39,8.39,0,4.63,3.75,8.39,8.39,8.39,4.63,0,8.39-3.75,8.39-8.39Z"/><path class="cls-4" d="M511.4,1817.96c0-4.63-3.75-8.39-8.39-8.39s-8.39,3.75-8.39,8.39c0,4.63,3.75,8.39,8.39,8.39s8.39-3.75,8.39-8.39Z"/><path class="cls-4" d="M556.75,1645.47c0-4.63-3.75-8.39-8.39-8.39-4.63,0-8.39,3.75-8.39,8.39,0,4.63,3.75,8.39,8.39,8.39s8.39-3.75,8.39-8.39Z"/><path class="cls-4" d="M1169.4,1786.08c0-4.63-3.75-8.39-8.39-8.39-4.63,0-8.39,3.75-8.39,8.39,0,4.63,3.75,8.39,8.39,8.39s8.39-3.75,8.39-8.39Z"/><path class="cls-1" d="M787.42,1605.45c0,4.63,3.75,8.39,8.39,8.39s8.39-3.75,8.39-8.39c0-4.63-3.75-8.39-8.39-8.39-4.63,0-8.39,3.75-8.39,8.39Z"/><path class="cls-1" d="M706.35,1605.45c0,4.63,3.75,8.39,8.39,8.39,4.63,0,8.39-3.75,8.39-8.39,0-4.63-3.75-8.39-8.39-8.39-4.63,0-8.39,3.75-8.39,8.39Z"/><path class="cls-1" d="M669.39,1605.45c0,4.63,3.75,8.39,8.39,8.39,4.63,0,8.39-3.75,8.39-8.39s-3.75-8.39-8.39-8.39c-4.63,0-8.39,3.75-8.39,8.39Z"/><path class="cls-1" d="M499.18,1649.56c0,4.63,3.75,8.39,8.39,8.39,4.63,0,8.39-3.75,8.39-8.39,0-4.63-3.75-8.39-8.39-8.39-4.63,0-8.39,3.75-8.39,8.39Z"/><path class="cls-1" d="M1096.16,1588.68c0,4.63,3.75,8.39,8.39,8.39s8.39-3.75,8.39-8.39-3.75-8.39-8.39-8.39c-4.63,0-8.39,3.75-8.39,8.39Z"/><path class="cls-1" d="M1448.39,1588.68c0,4.63,3.75,8.39,8.39,8.39,4.63,0,8.39-3.75,8.39-8.39s-3.75-8.39-8.39-8.39c-4.63,0-8.39,3.75-8.39,8.39Z"/><path class="cls-1" d="M427.74,1588.68c0,4.63,3.75,8.39,8.39,8.39,4.63,0,8.39-3.75,8.39-8.39s-3.75-8.39-8.39-8.39c-4.63,0-8.39,3.75-8.39,8.39Z"/><path class="cls-1" d="M1051.59,1588.68c0,4.63,3.75,8.39,8.39,8.39s8.39-3.75,8.39-8.39c0-4.63-3.75-8.39-8.39-8.39s-8.39,3.75-8.39,8.39Z"/><circle class="cls-1" cx="1641.28" cy="1590.45" r="8.39"/><path class="cls-1" d="M1588.32,1590.45c0,4.63,3.75,8.39,8.39,8.39,4.63,0,8.39-3.75,8.39-8.39,0-4.63-3.75-8.39-8.39-8.39s-8.39,3.75-8.39,8.39Z"/><path class="cls-1" d="M234.08,1588.68c0,4.63,3.75,8.39,8.39,8.39s8.39-3.75,8.39-8.39c0-4.63-3.75-8.39-8.39-8.39-4.63,0-8.39,3.75-8.39,8.39Z"/><path class="cls-1" d="M978.91,1737.92c0,4.63,3.75,8.39,8.39,8.39,4.63,0,8.39-3.75,8.39-8.39,0-4.63-3.75-8.39-8.39-8.39-4.63,0-8.39,3.75-8.39,8.39Z"/><path class="cls-1" d="M1340.92,1557.04c0,4.63,3.75,8.39,8.39,8.39s8.39-3.75,8.39-8.39c0-4.63-3.75-8.39-8.39-8.39s-8.39,3.75-8.39,8.39Z"/><path class="cls-1" d="M1295.57,1729.53c0,4.63,3.75,8.39,8.39,8.39,4.63,0,8.39-3.75,8.39-8.39s-3.75-8.39-8.39-8.39c-4.63,0-8.39,3.75-8.39,8.39Z"/><path class="cls-1" d="M632.43,1605.45c0,4.63,3.75,8.39,8.39,8.39s8.39-3.75,8.39-8.39-3.75-8.39-8.39-8.39c-4.63,0-8.39,3.75-8.39,8.39Z"/><path class="cls-1" d="M1059.59,1852.93c0-4.63-3.75-8.39-8.39-8.39s-8.39,3.75-8.39,8.39c0,4.63,3.75,8.39,8.39,8.39,4.63,0,8.39-3.75,8.39-8.39Z"/><path class="cls-1" d="M1148.92,1909.86c0-4.63-3.75-8.39-8.39-8.39-4.63,0-8.39,3.75-8.39,8.39,0,4.63,3.75,8.39,8.39,8.39,4.63,0,8.39-3.75,8.39-8.39Z"/><path class="cls-1" d="M1185.89,1909.86c0-4.63-3.75-8.39-8.39-8.39-4.63,0-8.39,3.75-8.39,8.39,0,4.63,3.75,8.39,8.39,8.39,4.63,0,8.39-3.75,8.39-8.39Z"/><path class="cls-1" d="M1347.83,1808.83c0-4.63-3.75-8.39-8.39-8.39-4.63,0-8.39,3.75-8.39,8.39s3.75,8.39,8.39,8.39c4.63,0,8.39-3.75,8.39-8.39Z"/><path class="cls-1" d="M750.85,1869.71c0-4.63-3.75-8.39-8.39-8.39s-8.39,3.75-8.39,8.39,3.75,8.39,8.39,8.39c4.63,0,8.39-3.75,8.39-8.39Z"/><path class="cls-1" d="M398.62,1869.71c0-4.63-3.75-8.39-8.39-8.39-4.63,0-8.39,3.75-8.39,8.39,0,4.63,3.75,8.39,8.39,8.39,4.63,0,8.39-3.75,8.39-8.39Z"/><path class="cls-1" d="M1419.27,1869.71c0-4.63-3.75-8.39-8.39-8.39-4.63,0-8.39,3.75-8.39,8.39,0,4.63,3.75,8.39,8.39,8.39s8.39-3.75,8.39-8.39Z"/><path class="cls-1" d="M846.84,1918.37c0-4.63-3.75-8.39-8.39-8.39s-8.39,3.75-8.39,8.39c0,4.63,3.75,8.39,8.39,8.39,4.63,0,8.39-3.75,8.39-8.39Z"/><circle class="cls-1" cx="205.74" cy="1867.94" r="8.39"/><path class="cls-1" d="M258.7,1867.94c0-4.63-3.75-8.39-8.39-8.39-4.63,0-8.39,3.75-8.39,8.39,0,4.63,3.75,8.39,8.39,8.39s8.39-3.75,8.39-8.39Z"/><path class="cls-1" d="M1612.94,1869.71c0-4.63-3.75-8.39-8.39-8.39s-8.39,3.75-8.39,8.39c0,4.63,3.75,8.39,8.39,8.39,4.63,0,8.39-3.75,8.39-8.39Z"/><path class="cls-1" d="M868.1,1720.47c0-4.63-3.75-8.39-8.39-8.39-4.63,0-8.39,3.75-8.39,8.39,0,4.63,3.75,8.39,8.39,8.39,4.63,0,8.39-3.75,8.39-8.39Z"/><path class="cls-1" d="M506.09,1901.34c0-4.63-3.75-8.39-8.39-8.39s-8.39,3.75-8.39,8.39c0,4.63,3.75,8.39,8.39,8.39s8.39-3.75,8.39-8.39Z"/><path class="cls-1" d="M551.44,1728.85c0-4.63-3.75-8.39-8.39-8.39s-8.39,3.75-8.39,8.39,3.75,8.39,8.39,8.39c4.63,0,8.39-3.75,8.39-8.39Z"/><path class="cls-1" d="M1214.58,1852.93c0-4.63-3.75-8.39-8.39-8.39-4.63,0-8.39,3.75-8.39,8.39s3.75,8.39,8.39,8.39,8.39-3.75,8.39-8.39Z"/><path class="cls-1" d="M773.55,1800.89c0,4.63,3.75,8.39,8.39,8.39s8.39-3.75,8.39-8.39c0-4.63-3.75-8.39-8.39-8.39-4.63,0-8.39,3.75-8.39,8.39Z"/><path class="cls-1" d="M677.79,1817.42c0,4.63,3.75,8.39,8.39,8.39,4.63,0,8.39-3.75,8.39-8.39,0-4.63-3.75-8.39-8.39-8.39-4.63,0-8.39,3.75-8.39,8.39Z"/><path class="cls-1" d="M714.28,1721.02c0,4.63,3.75,8.39,8.39,8.39,4.63,0,8.39-3.75,8.39-8.39s-3.75-8.39-8.39-8.39-8.39,3.75-8.39,8.39Z"/><path class="cls-1" d="M494.49,1798.17c0,4.63,3.75,8.39,8.39,8.39,4.63,0,8.39-3.75,8.39-8.39s-3.75-8.39-8.39-8.39c-4.63,0-8.39,3.75-8.39,8.39Z"/><path class="cls-1" d="M1091.47,1737.29c0,4.63,3.75,8.39,8.39,8.39,4.63,0,8.39-3.75,8.39-8.39s-3.75-8.39-8.39-8.39c-4.63,0-8.39,3.75-8.39,8.39Z"/><path class="cls-1" d="M1443.7,1737.29c0,4.63,3.75,8.39,8.39,8.39,4.63,0,8.39-3.75,8.39-8.39,0-4.63-3.75-8.39-8.39-8.39-4.63,0-8.39,3.75-8.39,8.39Z"/><path class="cls-1" d="M423.05,1737.29c0,4.63,3.75,8.39,8.39,8.39,4.63,0,8.39-3.75,8.39-8.39s-3.75-8.39-8.39-8.39c-4.63,0-8.39,3.75-8.39,8.39Z"/><path class="cls-1" d="M1046.9,1737.29c0,4.63,3.75,8.39,8.39,8.39s8.39-3.75,8.39-8.39c0-4.63-3.75-8.39-8.39-8.39s-8.39,3.75-8.39,8.39Z"/><circle class="cls-1" cx="1636.59" cy="1739.06" r="8.39"/><path class="cls-1" d="M1583.63,1739.06c0,4.63,3.75,8.39,8.39,8.39,4.63,0,8.39-3.75,8.39-8.39s-3.75-8.39-8.39-8.39-8.39,3.75-8.39,8.39Z"/><path class="cls-1" d="M229.39,1737.29c0,4.63,3.75,8.39,8.39,8.39s8.39-3.75,8.39-8.39c0-4.63-3.75-8.39-8.39-8.39s-8.39,3.75-8.39,8.39Z"/><path class="cls-1" d="M974.22,1886.53c0,4.63,3.75,8.39,8.39,8.39,4.63,0,8.39-3.75,8.39-8.39,0-4.63-3.75-8.39-8.39-8.39-4.63,0-8.39,3.75-8.39,8.39Z"/><path class="cls-1" d="M1336.23,1705.66c0,4.63,3.75,8.39,8.39,8.39s8.39-3.75,8.39-8.39c0-4.63-3.75-8.39-8.39-8.39-4.63,0-8.39,3.75-8.39,8.39Z"/><path class="cls-1" d="M1290.88,1878.15c0,4.63,3.75,8.39,8.39,8.39s8.39-3.75,8.39-8.39c0-4.63-3.75-8.39-8.39-8.39s-8.39,3.75-8.39,8.39Z"/><path class="cls-1" d="M627.74,1754.07c0,4.63,3.75,8.39,8.39,8.39s8.39-3.75,8.39-8.39-3.75-8.39-8.39-8.39c-4.63,0-8.39,3.75-8.39,8.39Z"/><path class="cls-1" d="M999.68,965.88c4.63,0,8.39-3.75,8.39-8.39s-3.75-8.39-8.39-8.39c-4.63,0-8.39,3.75-8.39,8.39s3.75,8.39,8.39,8.39Z"/><path class="cls-1" d="M999.68,1046.95c4.63,0,8.39-3.75,8.39-8.39,0-4.63-3.75-8.39-8.39-8.39-4.63,0-8.39,3.75-8.39,8.39,0,4.63,3.75,8.39,8.39,8.39Z"/><path class="cls-1" d="M955.61,1119.71c4.63,0,8.39-3.75,8.39-8.39,0-4.63-3.75-8.39-8.39-8.39-4.63,0-8.39,3.75-8.39,8.39s3.75,8.39,8.39,8.39Z"/><path class="cls-1" d="M955.37,743.44c4.63,0,8.39-3.75,8.39-8.39s-3.75-8.39-8.39-8.39-8.39,3.75-8.39,8.39c0,4.63,3.75,8.39,8.39,8.39Z"/><path class="cls-1" d="M955.37,391.21c4.63,0,8.39-3.75,8.39-8.39,0-4.63-3.75-8.39-8.39-8.39-4.63,0-8.39,3.75-8.39,8.39,0,4.63,3.75,8.39,8.39,8.39Z"/><path class="cls-1" d="M955.36,1411.86c4.63,0,8.39-3.75,8.39-8.39,0-4.63-3.75-8.39-8.39-8.39-4.63,0-8.39,3.75-8.39,8.39s3.75,8.39,8.39,8.39Z"/><path class="cls-1" d="M955.37,788.01c4.63,0,8.39-3.75,8.39-8.39s-3.75-8.39-8.39-8.39c-4.63,0-8.39,3.75-8.39,8.39s3.75,8.39,8.39,8.39Z"/><path class="cls-1" d="M955.36,1605.53c4.63,0,8.39-3.75,8.39-8.39s-3.75-8.39-8.39-8.39c-4.63,0-8.39,3.75-8.39,8.39,0,4.63,3.75,8.39,8.39,8.39Z"/><path class="cls-1" d="M863.42,1869.08c0-4.63-3.75-8.39-8.39-8.39-4.63,0-8.39,3.75-8.39,8.39,0,4.63,3.75,8.39,8.39,8.39,4.63,0,8.39-3.75,8.39-8.39Z"/><path class="cls-1" d="M923.73,498.68c4.63,0,8.39-3.75,8.39-8.39s-3.75-8.39-8.39-8.39c-4.63,0-8.39,3.75-8.39,8.39s3.75,8.39,8.39,8.39Z"/><path class="cls-1" d="M546.75,1877.47c0-4.63-3.75-8.39-8.39-8.39-4.63,0-8.39,3.75-8.39,8.39,0,4.63,3.75,8.39,8.39,8.39s8.39-3.75,8.39-8.39Z"/><path class="cls-1" d="M955.61,1156.68c4.63,0,8.39-3.75,8.39-8.39,0-4.63-3.75-8.39-8.39-8.39-4.63,0-8.39,3.75-8.39,8.39s3.75,8.39,8.39,8.39Z"/><path class="cls-1" d="M1114.58,1906.13c0-4.63-3.75-8.39-8.39-8.39s-8.39,3.75-8.39,8.39c0,4.63,3.75,8.39,8.39,8.39,4.63,0,8.39-3.75,8.39-8.39Z"/><path class="cls-1" d="M1195.65,1906.13c0-4.63-3.75-8.39-8.39-8.39-4.63,0-8.39,3.75-8.39,8.39,0,4.63,3.75,8.39,8.39,8.39,4.63,0,8.39-3.75,8.39-8.39Z"/><path class="cls-1" d="M1232.61,1906.13c0-4.63-3.75-8.39-8.39-8.39-4.63,0-8.39,3.75-8.39,8.39,0,4.63,3.75,8.39,8.39,8.39,4.63,0,8.39-3.75,8.39-8.39Z"/><path class="cls-1" d="M1402.82,1862.03c0-4.63-3.75-8.39-8.39-8.39-4.63,0-8.39,3.75-8.39,8.39,0,4.63,3.75,8.39,8.39,8.39,4.63,0,8.39-3.75,8.39-8.39Z"/><path class="cls-1" d="M805.84,1922.91c0-4.63-3.75-8.39-8.39-8.39s-8.39,3.75-8.39,8.39c0,4.63,3.75,8.39,8.39,8.39,4.63,0,8.39-3.75,8.39-8.39Z"/><path class="cls-1" d="M453.61,1922.91c0-4.63-3.75-8.39-8.39-8.39-4.63,0-8.39,3.75-8.39,8.39,0,4.63,3.75,8.39,8.39,8.39,4.63,0,8.39-3.75,8.39-8.39Z"/><path class="cls-1" d="M1474.26,1922.91c0-4.63-3.75-8.39-8.39-8.39-4.63,0-8.39,3.75-8.39,8.39s3.75,8.39,8.39,8.39c4.63,0,8.39-3.75,8.39-8.39Z"/><path class="cls-1" d="M850.41,1922.91c0-4.63-3.75-8.39-8.39-8.39s-8.39,3.75-8.39,8.39c0,4.63,3.75,8.39,8.39,8.39s8.39-3.75,8.39-8.39Z"/><circle class="cls-1" cx="260.72" cy="1921.14" r="8.39"/><path class="cls-1" d="M313.68,1921.14c0-4.63-3.75-8.39-8.39-8.39-4.63,0-8.39,3.75-8.39,8.39,0,4.63,3.75,8.39,8.39,8.39s8.39-3.75,8.39-8.39Z"/><path class="cls-1" d="M1667.92,1922.91c0-4.63-3.75-8.39-8.39-8.39s-8.39,3.75-8.39,8.39c0,4.63,3.75,8.39,8.39,8.39,4.63,0,8.39-3.75,8.39-8.39Z"/><path class="cls-1" d="M923.09,1773.67c0-4.63-3.75-8.39-8.39-8.39-4.63,0-8.39,3.75-8.39,8.39,0,4.63,3.75,8.39,8.39,8.39,4.63,0,8.39-3.75,8.39-8.39Z"/><path class="cls-1" d="M606.43,1782.05c0-4.63-3.75-8.39-8.39-8.39-4.63,0-8.39,3.75-8.39,8.39s3.75,8.39,8.39,8.39c4.63,0,8.39-3.75,8.39-8.39Z"/><path class="cls-1" d="M1269.57,1906.13c0-4.63-3.75-8.39-8.39-8.39s-8.39,3.75-8.39,8.39c0,4.63,3.75,8.39,8.39,8.39,4.63,0,8.39-3.75,8.39-8.39Z"/><path class="cls-1" d="M842.41,1658.65c0,4.63,3.75,8.39,8.39,8.39s8.39-3.75,8.39-8.39c0-4.63-3.75-8.39-8.39-8.39-4.63,0-8.39,3.75-8.39,8.39Z"/><path class="cls-1" d="M753.08,1601.73c0,4.63,3.75,8.39,8.39,8.39,4.63,0,8.39-3.75,8.39-8.39,0-4.63-3.75-8.39-8.39-8.39-4.63,0-8.39,3.75-8.39,8.39Z"/><path class="cls-1" d="M716.11,1601.73c0,4.63,3.75,8.39,8.39,8.39,4.63,0,8.39-3.75,8.39-8.39s-3.75-8.39-8.39-8.39c-4.63,0-8.39,3.75-8.39,8.39Z"/><path class="cls-1" d="M554.17,1702.76c0,4.63,3.75,8.39,8.39,8.39,4.63,0,8.39-3.75,8.39-8.39,0-4.63-3.75-8.39-8.39-8.39-4.63,0-8.39,3.75-8.39,8.39Z"/><path class="cls-1" d="M1151.15,1641.88c0,4.63,3.75,8.39,8.39,8.39s8.39-3.75,8.39-8.39-3.75-8.39-8.39-8.39c-4.63,0-8.39,3.75-8.39,8.39Z"/><path class="cls-1" d="M1503.38,1641.88c0,4.63,3.75,8.39,8.39,8.39,4.63,0,8.39-3.75,8.39-8.39,0-4.63-3.75-8.39-8.39-8.39-4.63,0-8.39,3.75-8.39,8.39Z"/><path class="cls-1" d="M482.73,1641.88c0,4.63,3.75,8.39,8.39,8.39,4.63,0,8.39-3.75,8.39-8.39,0-4.63-3.75-8.39-8.39-8.39s-8.39,3.75-8.39,8.39Z"/><path class="cls-1" d="M1055.16,1593.22c0,4.63,3.75,8.39,8.39,8.39s8.39-3.75,8.39-8.39c0-4.63-3.75-8.39-8.39-8.39-4.63,0-8.39,3.75-8.39,8.39Z"/><circle class="cls-1" cx="1696.26" cy="1643.65" r="8.39"/><path class="cls-1" d="M1643.3,1643.65c0,4.63,3.75,8.39,8.39,8.39,4.63,0,8.39-3.75,8.39-8.39,0-4.63-3.75-8.39-8.39-8.39s-8.39,3.75-8.39,8.39Z"/><path class="cls-1" d="M289.06,1641.88c0,4.63,3.75,8.39,8.39,8.39s8.39-3.75,8.39-8.39c0-4.63-3.75-8.39-8.39-8.39-4.63,0-8.39,3.75-8.39,8.39Z"/><path class="cls-1" d="M1033.9,1791.12c0,4.63,3.75,8.39,8.39,8.39,4.63,0,8.39-3.75,8.39-8.39,0-4.63-3.75-8.39-8.39-8.39-4.63,0-8.39,3.75-8.39,8.39Z"/><path class="cls-1" d="M1395.91,1610.24c0,4.63,3.75,8.39,8.39,8.39s8.39-3.75,8.39-8.39-3.75-8.39-8.39-8.39-8.39,3.75-8.39,8.39Z"/><path class="cls-1" d="M1350.56,1782.73c0,4.63,3.75,8.39,8.39,8.39s8.39-3.75,8.39-8.39c0-4.63-3.75-8.39-8.39-8.39-4.63,0-8.39,3.75-8.39,8.39Z"/><path class="cls-1" d="M687.42,1658.65c0,4.63,3.75,8.39,8.39,8.39,4.63,0,8.39-3.75,8.39-8.39s-3.75-8.39-8.39-8.39-8.39,3.75-8.39,8.39Z"/><path class="cls-1" d="M1128.45,1710.69c0-4.63-3.75-8.39-8.39-8.39s-8.39,3.75-8.39,8.39c0,4.63,3.75,8.39,8.39,8.39,4.63,0,8.39-3.75,8.39-8.39Z"/><path class="cls-1" d="M1224.21,1694.17c0-4.63-3.75-8.39-8.39-8.39-4.63,0-8.39,3.75-8.39,8.39,0,4.63,3.75,8.39,8.39,8.39,4.63,0,8.39-3.75,8.39-8.39Z"/><path class="cls-1" d="M1187.72,1790.57c0-4.63-3.75-8.39-8.39-8.39-4.63,0-8.39,3.75-8.39,8.39s3.75,8.39,8.39,8.39,8.39-3.75,8.39-8.39Z"/><path class="cls-1" d="M1407.51,1713.41c0-4.63-3.75-8.39-8.39-8.39-4.63,0-8.39,3.75-8.39,8.39s3.75,8.39,8.39,8.39c4.63,0,8.39-3.75,8.39-8.39Z"/><path class="cls-1" d="M810.53,1774.29c0-4.63-3.75-8.39-8.39-8.39-4.63,0-8.39,3.75-8.39,8.39s3.75,8.39,8.39,8.39c4.63,0,8.39-3.75,8.39-8.39Z"/><path class="cls-1" d="M458.3,1774.29c0-4.63-3.75-8.39-8.39-8.39-4.63,0-8.39,3.75-8.39,8.39,0,4.63,3.75,8.39,8.39,8.39,4.63,0,8.39-3.75,8.39-8.39Z"/><path class="cls-1" d="M1478.95,1774.29c0-4.63-3.75-8.39-8.39-8.39-4.63,0-8.39,3.75-8.39,8.39,0,4.63,3.75,8.39,8.39,8.39,4.63,0,8.39-3.75,8.39-8.39Z"/><path class="cls-1" d="M855.1,1774.29c0-4.63-3.75-8.39-8.39-8.39s-8.39,3.75-8.39,8.39c0,4.63,3.75,8.39,8.39,8.39s8.39-3.75,8.39-8.39Z"/><circle class="cls-1" cx="265.41" cy="1772.52" r="8.39"/><path class="cls-1" d="M318.37,1772.52c0-4.63-3.75-8.39-8.39-8.39-4.63,0-8.39,3.75-8.39,8.39,0,4.63,3.75,8.39,8.39,8.39s8.39-3.75,8.39-8.39Z"/><path class="cls-1" d="M1672.61,1774.29c0-4.63-3.75-8.39-8.39-8.39s-8.39,3.75-8.39,8.39,3.75,8.39,8.39,8.39,8.39-3.75,8.39-8.39Z"/><path class="cls-1" d="M927.78,1625.05c0-4.63-3.75-8.39-8.39-8.39-4.63,0-8.39,3.75-8.39,8.39,0,4.63,3.75,8.39,8.39,8.39,4.63,0,8.39-3.75,8.39-8.39Z"/><path class="cls-1" d="M565.77,1805.93c0-4.63-3.75-8.39-8.39-8.39s-8.39,3.75-8.39,8.39c0,4.63,3.75,8.39,8.39,8.39s8.39-3.75,8.39-8.39Z"/><path class="cls-1" d="M611.12,1633.44c0-4.63-3.75-8.39-8.39-8.39s-8.39,3.75-8.39,8.39c0,4.63,3.75,8.39,8.39,8.39s8.39-3.75,8.39-8.39Z"/><path class="cls-1" d="M1274.26,1757.52c0-4.63-3.75-8.39-8.39-8.39s-8.39,3.75-8.39,8.39c0,4.63,3.75,8.39,8.39,8.39,4.63,0,8.39-3.75,8.39-8.39Z"/><path class="cls-1" d="M933.4,1537.58c0,4.63,3.75,8.39,8.39,8.39s8.39-3.75,8.39-8.39c0-4.63-3.75-8.39-8.39-8.39s-8.39,3.75-8.39,8.39Z"/><path class="cls-1" d="M852.33,1537.58c0,4.63,3.75,8.39,8.39,8.39,4.63,0,8.39-3.75,8.39-8.39,0-4.63-3.75-8.39-8.39-8.39-4.63,0-8.39,3.75-8.39,8.39Z"/><path class="cls-1" d="M779.56,1493.51c0,4.63,3.75,8.39,8.39,8.39s8.39-3.75,8.39-8.39c0-4.63-3.75-8.39-8.39-8.39s-8.39,3.75-8.39,8.39Z"/><path class="cls-1" d="M558.85,1554.14c0,4.63,3.75,8.39,8.39,8.39,4.63,0,8.39-3.75,8.39-8.39s-3.75-8.39-8.39-8.39c-4.63,0-8.39,3.75-8.39,8.39Z"/><path class="cls-1" d="M1155.84,1493.26c0,4.63,3.75,8.39,8.39,8.39,4.63,0,8.39-3.75,8.39-8.39,0-4.63-3.75-8.39-8.39-8.39-4.63,0-8.39,3.75-8.39,8.39Z"/><path class="cls-1" d="M1508.07,1493.26c0,4.63,3.75,8.39,8.39,8.39,4.63,0,8.39-3.75,8.39-8.39,0-4.63-3.75-8.39-8.39-8.39-4.63,0-8.39,3.75-8.39,8.39Z"/><path class="cls-1" d="M487.41,1493.26c0,4.63,3.75,8.39,8.39,8.39,4.63,0,8.39-3.75,8.39-8.39,0-4.63-3.75-8.39-8.39-8.39s-8.39,3.75-8.39,8.39Z"/><path class="cls-1" d="M1111.27,1493.26c0,4.63,3.75,8.39,8.39,8.39s8.39-3.75,8.39-8.39c0-4.63-3.75-8.39-8.39-8.39s-8.39,3.75-8.39,8.39Z"/><circle class="cls-1" cx="1573.33" cy="1562.97" r="8.39"/><path class="cls-1" d="M1520.37,1562.97c0,4.63,3.75,8.39,8.39,8.39,4.63,0,8.39-3.75,8.39-8.39,0-4.63-3.75-8.39-8.39-8.39s-8.39,3.75-8.39,8.39Z"/><path class="cls-1" d="M293.75,1493.26c0,4.63,3.75,8.39,8.39,8.39s8.39-3.75,8.39-8.39c0-4.63-3.75-8.39-8.39-8.39-4.63,0-8.39,3.75-8.39,8.39Z"/><path class="cls-1" d="M1038.58,1642.5c0,4.63,3.75,8.39,8.39,8.39,4.63,0,8.39-3.75,8.39-8.39,0-4.63-3.75-8.39-8.39-8.39-4.63,0-8.39,3.75-8.39,8.39Z"/><path class="cls-1" d="M1400.6,1461.63c0,4.63,3.75,8.39,8.39,8.39s8.39-3.75,8.39-8.39c0-4.63-3.75-8.39-8.39-8.39s-8.39,3.75-8.39,8.39Z"/><path class="cls-1" d="M1355.25,1634.11c0,4.63,3.75,8.39,8.39,8.39,4.63,0,8.39-3.75,8.39-8.39s-3.75-8.39-8.39-8.39-8.39,3.75-8.39,8.39Z"/><path class="cls-1" d="M742.6,1493.51c0,4.63,3.75,8.39,8.39,8.39,4.63,0,8.39-3.75,8.39-8.39s-3.75-8.39-8.39-8.39-8.39,3.75-8.39,8.39Z"/><rect class="cls-3" width="1928" height="2206"/></g></svg>