<?xml version="1.0" encoding="UTF-8"?><svg id="Layer_1" xmlns="http://www.w3.org/2000/svg" viewBox="0 0 366.96 132.93"><defs><style>.cls-1{fill:#ed8a66;}.cls-1,.cls-2,.cls-3{stroke-width:0px;}.cls-4,.cls-5{stroke-miterlimit:10;}.cls-4,.cls-5,.cls-6{stroke:#016775;stroke-linecap:round;}.cls-4,.cls-6{fill:none;stroke-width:4px;}.cls-5{fill:#016775;stroke-width:.75px;}.cls-2{fill:#f3d475;}.cls-6{stroke-linejoin:round;}.cls-3{fill:#ffc05a;}</style></defs><path class="cls-2" d="M33.33,20.73c16.37-5.76,88.32,2.63,88.32,2.63,0,0,53.31,12.6,72.08,9.98s69.35-24.68,95.89-23.11c26.54,1.58,63.57,5.25,69.82,25.99s13.32,58.1-23.37,65.38c-34.38,6.83-127.8,7.55-186.04-5.78-53.96-12.35-80.44-9.18-92.77-5.08-14.39,4.79-55.66,1.93-57.19-24.67C-1.04,46.77,9.95,28.96,33.33,20.73Z"/><path class="cls-5" d="M26.33,42.57l.14.1c1.18.82,2.47,1.59,3.87,2.31,1.59.82,2.97,1.43,4.13,1.82.44.15.67.31.68.48,0,.15-.12.27-.38.38-.73.3-1.31.46-1.74.49-.36.02-.85-.16-1.49-.54-2.32-1.35-4.62-2.97-6.9-4.87l-1.62.17c-1.32,1.95-3.28,3.73-5.89,5.34-1.41.88-2.29,1.33-2.62,1.35-.39.02-.59-.17-.61-.56-.01-.2.08-.38.26-.53.07-.06.28-.18.61-.36,2.29-1.27,4.26-2.94,5.92-5.01l-5.16.54c-.17.02-.33-.02-.47-.1-.24-.13-.37-.32-.38-.56-.01-.26.09-.47.3-.63.1-.07.21-.11.33-.12l6.45-.68c.37-.64.66-1.27.87-1.88-2.63.39-4.18.6-4.66.63-.43.02-.74-.12-.92-.44-.15-.27-.24-.52-.25-.76-.01-.22.06-.41.21-.59.05-.07.22-.23.52-.47,1.44-1.18,2.76-2.49,3.99-3.91.31-.37.61-.56.89-.57.19,0,.37.05.54.18.22.15.33.35.34.59.02.29-.16.62-.52.98-1.29,1.28-2.57,2.4-3.85,3.35,3.8-.39,6.88-.83,9.24-1.33-.59-.5-1.1-.89-1.53-1.19-.24-.17-.37-.36-.38-.6,0-.15.04-.3.14-.43.12-.16.28-.25.46-.26.17,0,.44.1.8.32,2.66,1.65,4.01,2.83,4.05,3.54.01.2-.05.38-.18.53-.19.23-.41.35-.67.36-.27.01-.59-.19-.96-.6-.17-.19-.36-.4-.58-.62-1.52.36-3.1.67-4.74.94-.08.01-.15.02-.23.04.07.14.11.26.11.38.01.27-.16.8-.54,1.58l8.19-.87h.05c.19-.03.37.03.53.17.15.13.22.3.24.5.02.32-.11.56-.37.72-.07.05-.16.08-.25.08l-5.98.62ZM29.3,48.8c.24-.01.45.08.63.28.15.16.23.34.24.55.01.26-.12.52-.41.78-1.23,1.1-2.93,2.12-5.1,3.05-1.78.77-3.58,1.33-5.39,1.68-.13.02-.23.04-.29.04-.43.02-.65-.18-.67-.62-.01-.21.07-.37.25-.48.07-.05.42-.15,1.04-.31,1.56-.41,3.28-1.11,5.16-2.11,1.34-.71,2.61-1.55,3.79-2.5.27-.22.52-.34.75-.35ZM24.84,44.23c.23-.01.43.08.61.27.15.17.23.35.24.53.01.22-.1.45-.34.7s-.67.6-1.3,1.03c-1.44,1.01-3.03,1.84-4.78,2.49-.21.07-.36.11-.47.12-.25.01-.43-.1-.54-.33-.06-.12-.09-.23-.1-.32,0-.16.07-.3.22-.42.07-.06.32-.17.73-.34,1.14-.45,2.42-1.24,3.83-2.36.42-.34.81-.67,1.15-.99.26-.25.51-.38.75-.39ZM26.78,46.5c.19,0,.37.07.55.24.16.15.25.34.26.56.01.29-.16.59-.51.9-.76.65-1.82,1.34-3.17,2.06-1.46.77-2.85,1.36-4.19,1.75-.15.05-.28.07-.37.08-.44.02-.67-.19-.7-.65-.01-.21.04-.36.15-.44.11-.09.45-.23,1.01-.42,1.98-.69,4.01-1.89,6.07-3.6.37-.31.67-.47.89-.48Z"/><path class="cls-5" d="M43.81,40.24c-.52,2.07-1.02,3.71-1.52,4.91-1.15,2.79-2.6,5.05-4.35,6.75-.28.27-.52.4-.74.39-.13,0-.25-.07-.36-.18-.17-.16-.25-.34-.24-.55,0-.16.21-.46.6-.89,1.38-1.49,2.6-3.64,3.68-6.46.39-1.01.77-2.28,1.16-3.81l-3.41.3c-.06,0-.11,0-.14,0-.5-.02-.73-.29-.71-.81.02-.47.28-.73.78-.77l3.84-.31c.31-1.5.54-2.79.67-3.87.07-.58.39-.86.94-.83s.84.3.81.83c0,.19-.04.42-.1.72-.07.36-.22,1.2-.46,2.53-.03.19-.06.35-.09.48l2.05-.17c.12-.01.23-.01.34,0,1.11.05,1.65.66,1.59,1.83-.04.98-.21,2.41-.49,4.32-.52,3.51-1.17,6.1-1.96,7.76-.36.77-.89,1.14-1.6,1.1-.57-.03-1.32-.26-2.24-.71-.84-.42-1.26-.8-1.24-1.16.02-.39.22-.58.62-.57.13,0,.31.06.53.17.64.31,1.2.48,1.68.5.32.01.55-.08.69-.27.22-.31.5-1.05.82-2.23.41-1.46.72-2.92.94-4.38.34-2.3.52-3.67.54-4.13s-.18-.67-.6-.69c-.02,0-.05,0-.1,0l-1.93.17ZM57.1,49.24c.53.04.79.31.77.82s-.28.74-.78.76l-5.76.13v.03c-.03.6-.33.89-.91.87-.49-.02-.73-.32-.74-.88l-.07-10.75c.02-.6.31-.89.88-.87.42.02.68.21.8.58l5.01-.37c.12-.01.28-.01.47,0,.91.04,1.35.55,1.3,1.53,0,.12-.01.2-.02.25l-.93,7.89ZM55.52,49.27l.73-7.45c0-.21,0-.36-.03-.44-.05-.2-.21-.3-.46-.31-.08,0-.15,0-.22,0l-4.23.34v7.97s4.2-.11,4.2-.11Z"/><path class="cls-5" d="M64.61,43.81c-.79,1.71-1.72,3.4-2.8,5.08-.19.29-.4.44-.63.44-.13,0-.25-.05-.35-.14-.14-.12-.21-.25-.21-.41s.16-.5.49-1.03c1.19-1.94,2.25-4.22,3.21-6.82l-2.37.29c-.06,0-.12.01-.19.01-.5,0-.74-.23-.74-.7s.24-.7.73-.77l2.86-.36v-4.61c0-.49.26-.73.78-.73.26,0,.46.09.63.27.11.12.16.28.16.46v4.42l1.77-.22s.08-.01.15-.01c.48,0,.72.25.72.76,0,.43-.24.67-.71.73l-1.93.23v1.48c1.19.82,2.06,1.46,2.59,1.93.29.26.44.52.44.79,0,.18-.07.33-.2.46-.16.17-.34.26-.53.26-.26,0-.56-.19-.91-.58-.29-.33-.75-.81-1.39-1.44v10.19c0,.18-.05.33-.16.46-.16.17-.36.26-.63.26-.52,0-.78-.24-.78-.72v-9.97ZM75.96,47.93v5.96c0,.19-.05.35-.16.49-.16.21-.38.31-.67.31-.35,0-.6-.13-.74-.4-.07-.12-.1-.25-.1-.41v-5.87l-4.86.24c-.62.03-.93-.21-.93-.73s.27-.78.81-.81l4.97-.27v-2.49c0-.26.09-.46.26-.62.17-.15.37-.22.59-.22.19,0,.37.06.52.17.21.16.31.38.31.66v2.39l5.47-.3h.06c.58.02.87.27.87.76,0,.53-.28.81-.84.84l-5.57.28ZM75.06,36.62l1.72-.16c.13,0,.23-.01.29-.01.95,0,1.42.41,1.42,1.22,0,.16-.03.38-.08.69-.21,1.18-.31,2.15-.31,2.93,0,.4.08.66.23.78.1.07.33.1.69.1.53,0,.88-.03,1.05-.1.19-.07.31-.24.35-.52.04-.24.06-.77.06-1.59,0-.46.16-.7.49-.7s.53.19.6.56c.21,1.12.31,1.94.31,2.45,0,.58-.27.96-.8,1.14-.5.17-1.22.26-2.14.26-.8,0-1.37-.07-1.72-.2-.53-.19-.79-.67-.79-1.43,0-.93.1-2.01.3-3.23.04-.22.06-.38.06-.48,0-.26-.16-.38-.49-.38h-.17l-1.35.13c-.47,1.94-1.33,3.55-2.57,4.85-.46.47-.95.88-1.48,1.22-.25.16-.46.23-.64.23-.15,0-.27-.06-.38-.19-.09-.11-.14-.22-.14-.33,0-.17.19-.42.56-.76,1.39-1.25,2.35-2.88,2.89-4.87l-2.37.21s-.08.01-.1.01c-.47,0-.71-.24-.71-.72,0-.43.26-.66.78-.71l2.71-.24c.12-.68.22-1.48.3-2.38.06-.64.35-.95.87-.95h.05c.16,0,.32.05.46.15.2.14.3.35.3.64,0,.44-.08,1.24-.24,2.39Z"/><path class="cls-5" d="M88.44,49.31c.5-1.16.88-1.97,1.12-2.42.13-.26.29-.38.48-.38.1,0,.19.02.27.07.19.11.28.25.28.43,0,.09-.04.24-.13.45-.6,1.53-.97,2.79-1.12,3.76-.05.35-.16.63-.34.85-.18.21-.38.31-.59.31-.44,0-.81-.32-1.09-.95-.5-1.14-.76-2.84-.76-5.09,0-1.91.21-4.8.64-8.65.06-.58.12-.95.17-1.12.14-.39.42-.58.84-.58.29,0,.53.11.7.33.12.16.19.35.19.59,0,.12-.03.37-.09.77-.24,1.49-.46,3.51-.66,6.03-.08,1.04-.12,1.89-.12,2.57,0,.78.07,1.79.22,3.02ZM94.53,47.27c.22,0,.43.12.62.36.88,1.14,2.89,1.71,6.03,1.71.33,0,.61-.01.86-.03.13,0,.21-.01.27-.01.35,0,.62.12.8.35.13.16.19.34.19.55,0,.33-.13.6-.4.8-.18.13-.54.2-1.07.2-1.64,0-3.14-.17-4.5-.52-1.31-.33-2.3-.89-2.96-1.7-.33-.4-.5-.74-.5-1.02,0-.19.06-.34.17-.46.13-.14.3-.21.5-.21ZM101.03,39.5c-1.44,0-3.32.35-5.66,1.06-.22.07-.4.1-.51.1-.36,0-.6-.15-.72-.45-.05-.12-.07-.22-.07-.31,0-.27.23-.5.7-.7,1.31-.54,2.67-.95,4.09-1.21.77-.14,1.45-.21,2.05-.21,1.15,0,1.73.31,1.73.93,0,.53-.34.8-1.02.8h-.58Z"/><path class="cls-5" d="M110.1,49.67l.08-.19c.55-1.25.9-2.01,1.06-2.3.12-.22.27-.33.45-.33.1,0,.19.02.27.07.19.11.28.25.28.43,0,.09-.04.24-.13.45-.6,1.54-.97,2.8-1.12,3.76-.05.35-.16.63-.34.85-.18.21-.38.31-.59.31-.43,0-.79-.3-1.07-.91-.5-1.09-.75-2.78-.75-5.08,0-1.87.17-4.59.5-8.16.11-1.17.19-1.86.24-2.07.12-.5.42-.76.88-.76.29,0,.53.11.7.33.12.16.19.35.19.58,0,.11-.03.37-.09.78-.25,1.72-.47,3.91-.66,6.58-.08,1.09-.12,1.97-.12,2.63,0,.78.07,1.79.22,3.01ZM120.14,39.27v-3.45c0-.52.28-.78.85-.78s.84.26.84.78v3.29l.21-.02,1.59-.15c.57-.05.89-.07.94-.07.54,0,.8.27.8.81,0,.41-.19.67-.58.77-.07.02-.75.09-2.03.21-.05,0-.36.03-.93.09,0,2.59.04,5.14.12,7.65,1.46.67,2.56,1.26,3.28,1.77.4.29.6.59.6.91,0,.27-.1.5-.3.67-.13.12-.29.17-.46.17-.23,0-.49-.11-.8-.34-.64-.49-1.41-.97-2.31-1.45-.23,1.53-1.37,2.29-3.42,2.29-1.47,0-2.66-.38-3.58-1.15-.68-.57-1.02-1.19-1.02-1.88s.32-1.3.95-1.73c.55-.38,1.27-.57,2.15-.57s1.94.21,3.23.62c-.08-2.73-.12-4.99-.12-6.79-1.22.12-2.76.29-4.61.49-.14.02-.24.02-.31.02-.55,0-.83-.28-.83-.84,0-.38.2-.62.6-.73.07-.02.96-.12,2.67-.31l2.14-.23.34-.03ZM120.28,49.31c-1.38-.53-2.45-.8-3.21-.8-.92,0-1.38.28-1.38.84,0,.36.21.67.62.95.53.36,1.27.55,2.23.55.81,0,1.32-.16,1.53-.46.14-.2.21-.52.21-.96v-.1Z"/><path class="cls-5" d="M131.37,36.64v16.74c0,.18-.06.33-.19.45-.17.17-.39.26-.65.26-.33,0-.57-.12-.74-.35-.07-.1-.11-.22-.11-.36v-16.59c-.38-.09-.57-.33-.57-.73,0-.43.25-.67.75-.72l4.88-.5c.09,0,.19-.01.29-.01.81,0,1.21.32,1.21.96,0,.32-.22.87-.65,1.65-.69,1.22-1.29,2.17-1.8,2.84.81.72,1.43,1.55,1.85,2.5.34.76.51,1.48.51,2.17,0,.46-.11.85-.31,1.16-.3.45-.74.67-1.33.67-.69,0-1.45-.25-2.28-.76-.31-.19-.46-.39-.46-.58,0-.35.19-.52.57-.52.13,0,.31.03.52.1.29.09.58.14.87.14.45,0,.67-.28.67-.84,0-.5-.14-1.03-.43-1.6-.36-.73-.9-1.4-1.64-2.01-.13-.11-.2-.24-.2-.4,0-.33.17-.53.5-.63.43-.66.85-1.48,1.27-2.45.12-.29.17-.47.17-.56,0-.2-.13-.3-.4-.3h-.12l-2.21.26ZM139.34,44.14v8.48c.81-.26,1.82-.76,3.03-1.48.29-.17.53-.26.72-.26.16,0,.3.07.42.2.12.13.19.27.19.43,0,.21-.11.4-.31.58-.79.67-1.92,1.39-3.39,2.14-.61.31-1.01.46-1.21.46-.23,0-.48-.14-.75-.42-.23-.24-.35-.6-.35-1.09v-16.41c-.53,0-.79-.24-.79-.73,0-.43.26-.68.79-.73l7.66-.78c.12-.02.22-.02.29-.02.94,0,1.41.49,1.41,1.48,0,.09,0,.16-.01.21l-.62,7.49c-.04.48-.31.72-.8.72-.52,0-.78-.26-.79-.79l-5.47.51ZM139.34,38.92l5.88-.53.14-1.87c0-.37-.16-.53-.45-.49h-.05s-5.52.58-5.52.58v2.31ZM139.34,42.73l5.58-.55.19-2.42-5.76.56v2.41ZM144.71,48.54c1.6,1.58,3.23,2.82,4.91,3.72.52.28.78.52.78.72,0,.16-.16.29-.48.4-.64.22-1.16.33-1.58.33-.3,0-.57-.09-.79-.28-1.98-1.61-3.98-3.73-5.99-6.34-.87-1.13-1.3-1.81-1.3-2.05,0-.19.09-.34.27-.48.15-.1.29-.15.44-.15.19,0,.36.09.52.28.05.05.26.33.63.86.44.64,1,1.32,1.68,2.07.03-.03.07-.07.12-.1.84-.65,1.75-1.55,2.72-2.68.31-.36.6-.55.87-.55.25,0,.46.1.65.29.19.2.28.42.28.66,0,.22-.16.48-.48.78-1.01.92-2.1,1.77-3.27,2.53Z"/><path class="cls-5" d="M156.18,43.7c.62-1.34,1.1-2.01,1.44-2.01.09,0,.17.02.26.07.17.11.25.26.25.46,0,.12-.16.53-.48,1.24-.39.88-.64,1.47-.75,1.78-.22.57-.51.85-.88.85s-.69-.22-.93-.65c-.46-.84-.7-2.08-.7-3.73,0-1.88.16-3.83.49-5.86.1-.67.41-1.01.93-1.01s.81.27.81.81c0,.08-.02.28-.07.6-.33,2.28-.5,4.16-.5,5.65,0,.6.04,1.19.13,1.79ZM163.45,34.59c.49,0,.82.24.98.72.32.98.48,2.51.48,4.61,0,4.94-.65,8.52-1.96,10.74-.63,1.07-1.45,1.97-2.46,2.7-.32.22-.6.34-.84.34-.18,0-.33-.07-.44-.2-.08-.09-.11-.19-.11-.3,0-.24.14-.49.42-.76,1.1-1.03,1.91-2.2,2.42-3.52.78-2.05,1.17-5.06,1.17-9.04,0-1.35-.12-2.7-.35-4.06-.03-.16-.05-.3-.05-.41,0-.55.25-.83.76-.83Z"/><path class="cls-5" d="M175.45,40.51c.66-1.78,1.16-3.27,1.52-4.45.17-.57.49-.86.95-.86.11,0,.21.02.3.05.36.11.53.36.53.74,0,.23-.49,1.69-1.48,4.37.28-.02.56-.02.85-.02,2.36,0,3.53,1.01,3.53,3.02s-.38,4.06-1.15,6.17c-.42,1.14-.95,2.13-1.58,2.99-.4.53-.9.8-1.48.8s-1.26-.51-2.08-1.52c-.46-.56-.68-.94-.68-1.14,0-.12.06-.24.18-.35s.25-.16.38-.16.32.11.57.33c.77.66,1.25.99,1.43.99.29,0,.66-.47,1.13-1.41.41-.82.74-1.71.99-2.67.36-1.35.53-2.6.53-3.76,0-.58-.13-1-.4-1.25-.28-.27-.75-.41-1.42-.41-.35,0-.84.03-1.46.08-1.03,2.57-2.24,5.17-3.61,7.79-.15.3-.24.47-.27.5-.18.28-.44.42-.79.42-.19,0-.35-.05-.5-.15-.23-.16-.35-.38-.35-.65,0-.21.14-.56.43-1.05,1.07-1.83,2.15-4.06,3.25-6.69-.91.1-1.82.21-2.72.34-.15.02-.27.03-.35.03-.57,0-.86-.26-.86-.77s.27-.81.83-.91c.7-.12,1.95-.24,3.76-.38ZM185.27,39.28c.23,0,.5.15.81.44,1.29,1.19,2.44,2.63,3.46,4.32.19.32.29.62.29.91,0,.36-.14.62-.43.79-.18.11-.36.16-.53.16-.28,0-.5-.11-.68-.34-.08-.09-.19-.29-.35-.58-.86-1.66-1.89-3.14-3.08-4.46-.14-.16-.21-.33-.21-.53s.07-.38.21-.5c.14-.14.31-.21.5-.21ZM187.12,36.73c.19,0,.41.09.64.26.96.66,1.69,1.38,2.18,2.17.14.22.21.41.21.59,0,.21-.08.38-.24.52-.14.12-.31.17-.5.17-.22,0-.43-.17-.64-.5-.53-.82-1.11-1.55-1.75-2.2-.23-.22-.34-.41-.34-.58,0-.29.15-.44.44-.44ZM189.17,35.27c.38,0,1.01.39,1.89,1.17.74.66,1.1,1.19,1.1,1.59,0,.25-.08.44-.26.57-.15.11-.3.16-.45.16-.22,0-.43-.15-.64-.45-.53-.77-1.12-1.46-1.75-2.07-.23-.22-.34-.4-.34-.55,0-.29.15-.43.44-.43Z"/><path class="cls-5" d="M196.52,47.15c.28,0,.56.23.85.69.61,1,1.58,1.68,2.91,2.05.91.25,2.06.37,3.44.37,1.15,0,2.32-.09,3.51-.28.15-.02.26-.03.33-.03.38,0,.65.14.8.43.06.11.09.24.09.38,0,.53-.28.85-.84.96-.9.19-2.18.29-3.85.29-2.97,0-5.12-.57-6.45-1.7-.63-.54-1.1-1.16-1.38-1.85-.1-.24-.15-.43-.15-.57,0-.29.12-.51.36-.64.12-.07.25-.1.38-.1ZM199.99,36.75c2.15,0,4.09.3,5.81.89,1.02.35,1.53.84,1.53,1.48,0,.41-.28.74-.85.99-.54.24-1.31.63-2.31,1.17-.42.22-.72.34-.92.34-.34,0-.51-.17-.51-.5,0-.22.13-.41.4-.59.81-.56,1.37-.92,1.66-1.09.16-.09.24-.17.24-.24s-.11-.14-.34-.21c-.37-.12-.91-.24-1.63-.37-1.1-.19-2.11-.29-3.03-.29-.74,0-1.53.06-2.38.19-.25.03-.41.05-.49.05-.18,0-.34-.04-.49-.12-.26-.13-.38-.34-.38-.64,0-.42.24-.69.73-.83.57-.15,1.55-.22,2.95-.22ZM208.55,36.37c.19,0,.4.09.64.26.96.66,1.69,1.38,2.18,2.17.14.22.21.41.21.59,0,.21-.08.38-.24.52-.14.12-.31.17-.5.17-.22,0-.43-.17-.64-.5-.51-.79-1.1-1.52-1.75-2.2-.23-.22-.34-.42-.34-.58,0-.29.15-.44.44-.44ZM210.6,34.92c.38,0,1.01.39,1.89,1.16.74.66,1.1,1.19,1.1,1.59,0,.25-.08.44-.26.57-.15.11-.3.16-.45.16-.22,0-.43-.15-.64-.45-.55-.79-1.13-1.48-1.75-2.06-.23-.22-.34-.4-.34-.55,0-.29.15-.43.44-.43Z"/><path class="cls-5" d="M223.34,39.32c-.6-.97-1.23-2.11-1.88-3.43-.12-.24-.17-.44-.17-.59,0-.31.14-.53.41-.67.16-.08.33-.12.5-.12.38,0,.69.26.94.79.58,1.25,1.24,2.46,1.96,3.64,1.95-.45,3.34-.83,4.18-1.14.24-.09.43-.13.57-.13.3,0,.53.13.67.4.08.13.12.29.12.46,0,.38-.25.65-.74.81-1.06.36-2.37.72-3.94,1.1.98,1.6,1.93,2.88,2.85,3.86.36.38.53.76.53,1.15,0,.18-.08.35-.24.52-.22.22-.51.34-.87.34-.08,0-.24-.02-.45-.07-1.35-.29-2.25-.46-2.71-.52-.43-.05-.65-.23-.65-.52,0-.35.26-.52.79-.52.37,0,1,.03,1.87.09-.88-1.05-1.82-2.37-2.81-3.95-2.33.53-4.52.93-6.56,1.22-.84.12-1.34.17-1.51.17-.61,0-.92-.3-.92-.91,0-.36.2-.6.59-.72.09-.03.32-.07.67-.1,1.68-.18,3.95-.57,6.81-1.16ZM226.24,51.58h.2c.17,0,.32.03.45.1.32.17.48.44.48.8,0,.59-.37.88-1.12.88-2.35,0-4.22-.5-5.61-1.5-.56-.41-1.01-.88-1.34-1.39-.45-.74-.67-1.47-.67-2.21,0-.58.22-.87.65-.87.41,0,.67.26.78.79.22,1.05.77,1.83,1.63,2.35,1.15.7,2.67,1.05,4.56,1.05ZM230.44,35.53c.19,0,.4.08.64.24.95.67,1.68,1.39,2.18,2.18.14.22.21.41.21.58,0,.22-.08.4-.24.53-.14.12-.3.17-.5.17-.22,0-.43-.17-.64-.5-.52-.81-1.1-1.54-1.76-2.2-.22-.22-.34-.42-.34-.58,0-.29.15-.44.44-.44ZM232.49,34.09c.38,0,1.01.39,1.89,1.17.74.65,1.1,1.18,1.1,1.58,0,.25-.09.44-.26.57-.15.11-.3.16-.45.16-.22,0-.43-.15-.64-.45-.57-.81-1.15-1.5-1.76-2.06-.22-.21-.34-.39-.34-.55,0-.29.15-.43.44-.43Z"/><path class="cls-5" d="M238.94,37.98c.58,0,.87.38.87,1.14,0,2.17.22,4.19.67,6.08.43,1.79,1.02,3.17,1.79,4.14.17.22.32.33.45.33.14,0,.28-.15.42-.45.74-1.57,1.3-2.36,1.67-2.36.11,0,.22.03.34.08.2.11.3.28.3.52,0,.11-.05.28-.15.51-.33.76-.72,1.77-1.16,3.04-.25.7-.64,1.05-1.17,1.05s-1.15-.4-1.83-1.19c-.76-.89-1.4-2.06-1.93-3.52-.46-1.29-.78-2.72-.95-4.29-.19-1.81-.29-3.08-.29-3.83,0-.83.32-1.24.97-1.24ZM251.1,38.12c.21,0,.41.11.62.34.86.99,1.8,2.35,2.81,4.09.87,1.49,1.31,2.48,1.31,2.95,0,.33-.15.59-.44.78-.19.12-.38.19-.58.19-.33,0-.58-.14-.77-.43-.04-.05-.14-.27-.29-.64-.94-2.35-2-4.3-3.17-5.84-.19-.25-.29-.48-.29-.69,0-.18.07-.33.2-.45.19-.19.39-.29.6-.29Z"/><path class="cls-5" d="M267.58,37.63v-2.54c0-.56.27-.84.83-.84s.84.28.84.84v2.45c1.22-.05,2.16-.08,2.85-.08.84,0,1.27.27,1.27.81s-.36.84-1.08.84c-.88,0-1.89.02-3.03.07v3.59c.94-.09,1.68-.2,2.21-.33.19-.05.34-.07.46-.07.54,0,.8.29.8.87,0,.42-.25.68-.76.78-.73.15-1.63.28-2.72.4v4.57c1.43.56,2.8,1.22,4.11,1.98.44.25.66.56.66.93,0,.13-.03.26-.09.38-.14.32-.39.48-.74.48-.15,0-.37-.09-.66-.28-1.03-.65-2.2-1.28-3.51-1.89-.34,1-.96,1.68-1.85,2.05-.68.27-1.55.41-2.61.41-1.29,0-2.35-.34-3.2-1.01-.69-.56-1.03-1.18-1.03-1.86,0-.39.19-.76.57-1.13.81-.8,1.92-1.2,3.31-1.2.91,0,2.03.19,3.38.58v-3.88c-.86.05-1.64.07-2.32.07-1.14,0-1.91-.03-2.32-.08-.5-.07-.75-.34-.75-.8,0-.54.25-.81.77-.81.09,0,.23,0,.4.02.39.04.91.06,1.56.06.96,0,1.86-.03,2.68-.1v-3.61c-2.28.17-4.13.38-5.57.64-.12.02-.24.03-.34.03-.57,0-.85-.27-.85-.8,0-.46.31-.75.94-.86,1.64-.29,3.57-.5,5.81-.65ZM267.44,49.96c-1.34-.46-2.43-.7-3.25-.7-.68,0-1.24.15-1.68.44-.25.16-.37.33-.37.5,0,.26.17.51.51.76.51.36,1.16.55,1.96.55,1.4,0,2.29-.36,2.66-1.07.05-.1.11-.26.17-.48Z"/><path class="cls-5" d="M288.54,38.11c-.03-1.06-.05-1.7-.07-1.92-.04-.59-.06-1.02-.06-1.28,0-.65.29-.98.86-.98.52,0,.82.24.89.73,0,.08.04.83.08,2.27l.02.78v.26c3.35-.29,5.27-.44,5.75-.44.6,0,.9.28.9.85,0,.41-.19.68-.56.81-.11.03-.37.05-.79.07-1.19.05-2.81.15-4.85.29l-.45.03c.04,1.7.06,3.04.06,4.04v1.86c0,.64-.12,1.16-.36,1.55-.1,2.52-.89,4.45-2.36,5.8-.74.68-1.32,1.02-1.72,1.02-.17,0-.31-.06-.42-.17-.11-.12-.16-.26-.16-.41,0-.23.21-.53.62-.89,1.01-.91,1.7-2.07,2.09-3.49-.31.12-.6.19-.86.19-.57,0-1.2-.29-1.92-.88-1.13-.91-1.7-1.98-1.7-3.2,0-.75.37-1.5,1.12-2.24.84-.83,1.65-1.24,2.44-1.24.56,0,1.07.22,1.53.66,0-.67-.02-1.43-.05-2.27v-.19c-3.32.3-6.32.63-9.03.99-.18.02-.31.03-.4.03-.64,0-.95-.3-.95-.89,0-.5.28-.77.84-.84,2.02-.24,5.19-.54,9.49-.91ZM288.28,46.96c0-1.34-.08-2.31-.26-2.91-.19-.67-.51-1-.94-1-.48,0-.95.27-1.41.81-.33.38-.49.74-.49,1.09,0,.7.28,1.32.85,1.87.46.45.88.67,1.24.67s.68-.18,1-.55Z"/><path class="cls-5" d="M309.84,38.47c.17.36.26.88.26,1.58,0,2.32-.91,4.92-2.72,7.8-1.35,2.14-2.61,3.21-3.79,3.21-.83,0-1.57-.42-2.21-1.27-.82-1.07-1.23-2.46-1.23-4.18s.69-3.46,2.07-5.01c1.08-1.22,2.43-2.16,4.03-2.8,1.45-.59,2.95-.88,4.51-.88,2.18,0,4,.66,5.44,1.98,1.55,1.41,2.32,3.23,2.32,5.45,0,2.01-.63,3.77-1.89,5.26-.95,1.13-2.16,1.99-3.63,2.58-.25.1-.46.15-.65.15-.24,0-.42-.08-.53-.24-.08-.12-.13-.23-.13-.35,0-.17.08-.33.23-.49.08-.07.39-.26.93-.57.85-.47,1.61-1.14,2.27-2,1-1.29,1.5-2.73,1.5-4.31,0-1.85-.66-3.35-1.99-4.51-1.1-.95-2.38-1.43-3.83-1.43l-.88.03h-.07ZM308.26,38.75c-2.3.64-4.05,1.8-5.25,3.5-.77,1.08-1.15,2.19-1.15,3.32,0,1.23.26,2.25.79,3.06.33.51.65.77.97.77.57,0,1.26-.64,2.09-1.91.84-1.29,1.52-2.7,2.03-4.22.39-1.19.59-2.27.59-3.22,0-.26-.02-.7-.07-1.3Z"/><path class="cls-5" d="M334.35,38.72c-3.02.62-6.06,1.15-9.12,1.59-1.16.17-1.81.26-1.95.26-.64,0-.95-.32-.95-.96,0-.36.18-.6.53-.74.12-.05.54-.12,1.25-.19,1.43-.14,3.43-.41,5.98-.81,2.44-.39,4.6-.77,6.49-1.16.25-.05.47-.08.64-.08.44,0,.75.16.93.49.12.21.17.41.17.62,0,.32-.28.59-.84.83-1.45.6-2.72,1.59-3.82,2.95-1.3,1.6-1.95,3.25-1.95,4.93,0,1.29.45,2.39,1.36,3.31.76.77,1.69,1.31,2.79,1.62.56.16.84.48.84.96,0,.57-.31.86-.94.86s-1.45-.31-2.44-.92c-2.28-1.39-3.42-3.28-3.42-5.67,0-1.22.3-2.46.91-3.71.76-1.55,1.94-2.94,3.54-4.16ZM338.86,34.67c.19,0,.4.09.65.26.96.66,1.69,1.39,2.18,2.18.14.22.21.41.21.58,0,.22-.08.4-.24.53-.14.12-.31.17-.5.17-.22,0-.43-.17-.65-.5-.52-.81-1.1-1.55-1.75-2.2-.22-.23-.34-.43-.34-.59,0-.29.15-.44.44-.44ZM340.9,33.23c.39,0,1.02.39,1.89,1.17.74.66,1.1,1.19,1.1,1.59,0,.25-.08.44-.25.57-.15.11-.3.16-.45.16-.22,0-.43-.15-.64-.45-.53-.77-1.12-1.46-1.75-2.07-.22-.22-.34-.4-.34-.55,0-.29.15-.43.44-.43Z"/><path class="cls-5" d="M346.33,48.81c.23,0,.5.12.8.35,1.39,1.06,2.44,2.15,3.17,3.27.19.28.28.54.28.78,0,.37-.14.65-.42.85-.21.15-.42.22-.63.22-.3,0-.61-.22-.92-.65-.96-1.38-1.89-2.48-2.79-3.29-.23-.21-.35-.43-.35-.67,0-.19.08-.37.23-.53.19-.21.39-.31.62-.31Z"/><path class="cls-5" d="M82,67.78c-.02-1.02-.03-1.91-.03-2.68,0-.71.06-1.15.19-1.32.15-.2.36-.3.65-.3.59,0,.88.33.88.98v2.93c.98-.25,1.68-.45,2.13-.59.22-.08.4-.12.53-.12.37,0,.63.16.77.46.06.13.09.27.09.42,0,.38-.24.65-.72.8-.52.18-1.45.44-2.8.79,0,.38,0,.98.02,1.81.03,1.5.05,2.49.05,2.96,2.09-.85,4.18-1.28,6.26-1.28,1.27,0,2.34.24,3.2.72,1.34.74,2.01,1.88,2.01,3.42s-.43,2.63-1.3,3.42c-.9.81-2.16,1.22-3.79,1.22-.55,0-.95-.04-1.21-.12-.39-.11-.58-.34-.58-.69,0-.4.21-.59.63-.59h.55c1.19.01,2.13-.25,2.82-.77.68-.5,1.02-1.26,1.02-2.28,0-.88-.33-1.57-.99-2.09-.62-.5-1.46-.74-2.51-.74-1.92,0-3.96.48-6.11,1.45.04,1.66.06,3.15.06,4.47,0,.72-.1,1.23-.31,1.52-.28.4-.72.59-1.32.59-1.01,0-2.04-.43-3.1-1.28-.78-.62-1.17-1.23-1.17-1.84,0-1.39,1.4-2.85,4.19-4.38v-.43s-.02-1.41-.02-1.41l-.02-1.44-.02-1.44v-.44c-1.78.42-2.94.63-3.46.63-.61,0-.92-.29-.92-.86,0-.49.34-.78,1.03-.87.91-.13,2.01-.34,3.32-.64ZM82.11,76.42c-1.69.98-2.53,1.82-2.53,2.51,0,.33.31.69.94,1.08.52.33.94.49,1.27.49.18,0,.28-.1.31-.3.02-.11.03-.43.03-.95,0-.5,0-1.34-.02-2.53v-.29ZM90.85,64.92c.58,0,1.52.48,2.82,1.44.51.38.91.72,1.19,1.01.22.22.33.46.33.71,0,.27-.13.5-.38.7-.16.12-.32.17-.49.17-.28,0-.6-.19-.96-.58-.65-.69-1.5-1.41-2.54-2.16-.34-.25-.51-.49-.51-.73,0-.37.19-.56.56-.56Z"/><path class="cls-5" d="M108.29,76.9l-4.37.29.03.3c0,.05.01.1.01.14,0,.21-.07.38-.22.52-.16.16-.36.23-.63.23-.52,0-.81-.25-.87-.76l-1.25-10.21c-.02-.13-.02-.22-.02-.26,0-.31.14-.53.42-.66.14-.07.29-.1.44-.1.5,0,.81.2.93.6l5.53-.48v-3.45c0-.21.06-.38.19-.52.16-.19.38-.29.66-.29.35,0,.6.13.76.4.07.12.1.26.1.42v3.31l5.59-.49c.12,0,.21-.01.27-.01,1.07,0,1.6.55,1.6,1.66,0,.15,0,.26-.01.35l-.79,9.1c-.04.5-.32.76-.85.76-.38,0-.64-.15-.78-.44-.07-.14-.1-.3-.08-.49l.02-.36-4.97.33v5.73c0,.2-.06.38-.19.52-.16.19-.38.28-.66.28-.35,0-.6-.13-.76-.4-.07-.12-.1-.25-.1-.41v-5.61ZM108.29,70.83v-2.85l-5.36.46.31,2.78,5.04-.4ZM108.29,72.23l-4.88.37.35,3.15,4.53-.3v-3.22ZM110,70.7l5.47-.43.16-2.01c0-.09.01-.17.01-.22,0-.43-.21-.64-.64-.64h-.15l-4.86.43v2.87ZM110,75.35l5.1-.35.26-3.31-5.36.42v3.24Z"/><path class="cls-5" d="M126.34,79c1.24.02,2.85.24,4.83.64,3.85.77,7.77,1.23,11.75,1.37.91.04,1.37.16,1.37.35,0,.13-.21.36-.64.67-.74.56-1.46.84-2.16.84-.23,0-.65-.04-1.27-.12-2.89-.37-6.21-1.02-9.95-1.93-1.55-.38-2.94-.57-4.17-.57-.62,0-1.47.17-2.56.5-.15.05-.27.07-.38.07-.28,0-.48-.12-.6-.37-.06-.13-.09-.27-.09-.41,0-.35.2-.58.6-.7.33-.09.8-.17,1.39-.24,1.57-1.49,2.36-2.48,2.36-2.94,0-.19-.2-.39-.59-.62-.43-.26-.64-.57-.64-.95,0-.49.38-1.55,1.14-3.2l-2.97.7c-.14.03-.26.05-.36.05-.31,0-.53-.12-.65-.37-.08-.16-.12-.29-.12-.42,0-.4.22-.65.67-.73l4.17-.79c.12-.02.25-.03.38-.03.33,0,.59.1.77.29.15.16.22.35.22.58,0,.33-.17.72-.5,1.15-.34.46-.69,1.07-1.05,1.81-.11.23-.16.42-.16.57,0,.2.18.39.55.57.11.05.33.16.67.34.48.25.72.53.72.84,0,.34-.24.76-.73,1.27-.39.4-1.06,1-2.01,1.79ZM124.47,63.25c.2,0,.44.08.72.24,1.3.79,2.24,1.44,2.8,1.95.29.26.44.53.44.81,0,.18-.07.36-.2.55-.17.24-.41.36-.72.36-.33,0-.66-.19-1-.58-.51-.57-1.25-1.27-2.23-2.1-.26-.22-.38-.44-.38-.65,0-.39.19-.58.57-.58ZM135.96,71.07c-1.15,2.61-2.81,4.83-4.97,6.65-.64.53-1.06.8-1.29.8-.15,0-.27-.06-.38-.19-.13-.14-.2-.29-.2-.44s.07-.31.2-.45c.03-.04.24-.23.63-.58,1.25-1.14,2.37-2.57,3.38-4.29.74-1.25,1.29-2.5,1.65-3.73-.59-1.43-1.12-2.94-1.58-4.53-.08-.26-.12-.44-.12-.55,0-.25.12-.43.35-.56.16-.09.33-.13.49-.13.26,0,.45.12.58.35.05.09.22.63.49,1.62,1.46,5.37,3.96,9.39,7.51,12.07.57.43.86.74.86.92,0,.13-.13.23-.38.3-.47.14-.95.21-1.42.21-.42,0-.79-.15-1.1-.45-1.57-1.53-3.13-3.87-4.68-7.02Z"/><path class="cls-5" d="M156.98,65.71c-.87.26-2.08.5-3.64.73-1.05.16-1.69.23-1.92.23-.53,0-.8-.28-.8-.85,0-.33.1-.56.3-.7.14-.09.46-.15.95-.17,1.81-.08,3.48-.32,5.03-.72.26-.07.48-.1.69-.1.38,0,.68.14.91.41.24.29.36.57.36.86,0,.26-.11.62-.34,1.08-1.01,2.05-2.13,4.22-3.37,6.5,2.17.14,4.36.51,6.59,1.12.18-.73.33-1.58.45-2.57.06-.56.36-.84.89-.84s.81.3.81.89c0,.79-.15,1.8-.45,3.03.81.29,1.43.52,1.86.71.43.19.64.48.64.87,0,.16-.04.31-.12.46-.15.27-.37.41-.66.41-.15,0-.31-.04-.5-.13-.48-.21-1.05-.45-1.72-.71-.91,2.39-2.19,4.18-3.83,5.38-.36.26-.68.4-.93.4-.33,0-.49-.17-.49-.5,0-.19.16-.43.46-.73,1.32-1.26,2.36-2.97,3.13-5.11-2.5-.74-4.82-1.15-6.97-1.24-1.34,2.31-2.25,3.74-2.74,4.3-.79.93-1.56,1.39-2.31,1.39-.47,0-.92-.23-1.35-.69-.65-.72-.98-1.62-.98-2.71,0-2.3,2.16-3.56,6.47-3.78,1.32-2.42,2.53-4.8,3.61-7.16l-.05-.07ZM152.55,74.47c-1.19.09-2.13.31-2.8.69-.77.42-1.15.95-1.15,1.6,0,.53.09.96.28,1.29.14.26.31.4.52.4.4,0,.86-.38,1.38-1.13.44-.65,1.03-1.6,1.77-2.85Z"/><path class="cls-5" d="M172.15,78.23l.08-.19c.55-1.25.9-2.01,1.06-2.3.12-.22.27-.33.45-.33.1,0,.19.02.27.07.19.11.28.25.28.43,0,.09-.04.24-.13.45-.6,1.54-.97,2.8-1.12,3.76-.05.35-.16.63-.34.85-.18.21-.38.31-.59.31-.43,0-.79-.3-1.07-.91-.5-1.09-.75-2.78-.75-5.08,0-1.87.17-4.59.5-8.16.11-1.17.19-1.86.24-2.07.12-.5.42-.76.88-.76.29,0,.53.11.7.33.12.16.19.35.19.58,0,.11-.03.37-.09.78-.25,1.72-.47,3.91-.66,6.58-.08,1.09-.12,1.97-.12,2.63,0,.78.07,1.79.22,3.01ZM182.19,67.83v-3.45c0-.52.28-.78.85-.78s.84.26.84.78v3.29l.21-.02,1.59-.15c.57-.05.89-.07.94-.07.54,0,.8.27.8.81,0,.41-.19.67-.58.77-.07.02-.75.09-2.03.21-.05,0-.36.03-.93.09,0,2.59.04,5.14.12,7.65,1.46.67,2.56,1.26,3.28,1.77.4.29.6.59.6.91,0,.27-.1.5-.3.67-.13.12-.29.17-.46.17-.23,0-.49-.11-.8-.34-.64-.49-1.41-.97-2.31-1.45-.23,1.53-1.37,2.29-3.42,2.29-1.47,0-2.66-.38-3.58-1.15-.68-.57-1.02-1.19-1.02-1.88s.32-1.3.95-1.73c.55-.38,1.27-.57,2.15-.57s1.94.21,3.23.62c-.08-2.73-.12-4.99-.12-6.79-1.22.12-2.76.29-4.61.49-.14.02-.24.02-.31.02-.55,0-.83-.28-.83-.84,0-.38.2-.62.6-.73.07-.02.96-.12,2.67-.31l2.14-.23.34-.03ZM182.32,77.87c-1.38-.53-2.45-.8-3.21-.8-.92,0-1.38.28-1.38.84,0,.36.21.67.62.95.53.36,1.27.55,2.23.55.81,0,1.32-.16,1.53-.46.14-.2.21-.52.21-.96v-.1Z"/><path class="cls-5" d="M195.75,67.78c-.02-1.02-.04-1.91-.04-2.68,0-.71.06-1.15.19-1.32.15-.2.36-.3.65-.3.59,0,.88.33.88.98v2.93c.98-.25,1.68-.45,2.13-.59.22-.08.39-.12.53-.12.37,0,.63.16.77.46.06.13.09.27.09.42,0,.38-.24.65-.72.8-.52.18-1.45.44-2.8.79,0,.38,0,.98.02,1.81.03,1.5.05,2.49.05,2.96,2.09-.85,4.18-1.28,6.26-1.28,1.27,0,2.34.24,3.2.72,1.34.74,2.01,1.88,2.01,3.42s-.43,2.63-1.3,3.42c-.9.81-2.16,1.22-3.79,1.22-.55,0-.95-.04-1.21-.12-.39-.11-.58-.34-.58-.69,0-.4.21-.59.63-.59h.55c1.19.01,2.13-.25,2.82-.77.68-.5,1.02-1.26,1.02-2.28,0-.88-.33-1.57-.99-2.09-.62-.5-1.46-.74-2.51-.74-1.92,0-3.96.48-6.11,1.45.04,1.66.06,3.15.06,4.47,0,.72-.11,1.23-.31,1.52-.28.4-.72.59-1.32.59-1.01,0-2.04-.43-3.1-1.28-.78-.62-1.17-1.23-1.17-1.84,0-1.39,1.4-2.85,4.2-4.38v-.43s-.02-1.41-.02-1.41l-.02-1.44-.02-1.44v-.44c-1.78.42-2.94.63-3.46.63-.61,0-.92-.29-.92-.86,0-.49.34-.78,1.03-.87.91-.13,2.02-.34,3.32-.64ZM195.86,76.42c-1.69.98-2.53,1.82-2.53,2.51,0,.33.31.69.94,1.08.52.33.94.49,1.27.49.18,0,.28-.1.31-.3.02-.11.04-.43.04-.95,0-.5,0-1.34-.02-2.53v-.29ZM204.6,64.92c.58,0,1.52.48,2.82,1.44.51.38.91.72,1.19,1.01.22.22.33.46.33.71,0,.27-.13.5-.38.7-.15.12-.32.17-.49.17-.28,0-.6-.19-.97-.58-.65-.69-1.5-1.41-2.55-2.16-.34-.25-.51-.49-.51-.73,0-.37.19-.56.56-.56Z"/><path class="cls-5" d="M223.92,72.76v2.73l8.72-.57c.14,0,.26.04.35.09.26.15.38.38.38.7,0,.48-.23.74-.68.77l-8.76.56v5.46c0,.2-.07.37-.21.51-.19.19-.42.29-.7.29-.37,0-.64-.14-.8-.42-.07-.12-.1-.24-.1-.38v-5.35l-8.54.56c-.11,0-.21,0-.3-.05-.31-.13-.46-.38-.46-.74,0-.47.24-.72.72-.76l8.59-.56v-2.71l-3.82.28v.08c0,.25-.11.45-.31.6-.16.12-.35.19-.56.19-.53,0-.82-.26-.87-.79l-.93-8.85c0-.07-.01-.11-.01-.12,0-.3.14-.52.42-.66.15-.07.3-.1.46-.1.36,0,.61.15.77.45l11.43-.89s.12-.01.21-.01c1.03,0,1.54.48,1.54,1.44,0,.07,0,.16-.02.28l-1.02,7.92c-.07.53-.36.79-.86.79-.25,0-.46-.08-.62-.23-.13-.14-.2-.31-.2-.51,0-.05,0-.09.01-.14v-.14s-3.81.28-3.81.28ZM228.39,67.04l.22-1.96s.01-.07.01-.1c0-.16-.06-.27-.17-.34-.11-.06-.21-.09-.31-.07h-.05s-10.61.85-10.61.85l.24,2.42,10.67-.79ZM228.21,68.48l-10.34.74.27,2.51,9.78-.72.29-2.53Z"/><path class="cls-5" d="M247.36,67.55c.28-1.15.49-2.24.63-3.28.07-.55.37-.83.89-.83.63,0,.94.28.94.85,0,.46-.22,1.54-.66,3.23,2.21.26,3.87,1.15,4.98,2.66.91,1.23,1.37,2.73,1.37,4.51s-.56,3.3-1.67,4.68c-.86,1.07-1.96,1.93-3.31,2.58-.26.13-.5.2-.71.2-.24,0-.42-.09-.55-.27-.07-.11-.11-.22-.11-.34,0-.18.08-.34.24-.5.06-.06.33-.25.81-.56,1.28-.81,2.24-1.95,2.89-3.4.36-.8.54-1.61.54-2.43,0-1.97-.69-3.47-2.07-4.52-.76-.57-1.72-.92-2.88-1.05-.99,3.04-2.23,5.67-3.73,7.88.42.79.79,1.41,1.12,1.86.22.29.33.56.33.8,0,.26-.11.48-.33.64-.16.12-.33.19-.5.19-.28,0-.54-.17-.78-.5-.33-.47-.64-1-.93-1.57-1.51,1.78-2.77,2.67-3.78,2.67-.61,0-1.17-.27-1.67-.81-.86-.94-1.29-2.17-1.29-3.71,0-2.09,1.12-4.12,3.36-6.08-.39-1.36-.73-2.45-1.02-3.28-.05-.13-.07-.25-.07-.36,0-.26.12-.49.36-.69.16-.13.34-.2.53-.2.38,0,.64.17.77.51.09.22.29.89.59,2.01.07.26.16.58.27.98,1.72-1.06,3.53-1.69,5.43-1.89ZM241.01,72.09c-1.46,1.47-2.2,2.94-2.2,4.42,0,.92.2,1.7.6,2.32.25.38.52.57.81.57.63,0,1.58-.84,2.85-2.53-.81-1.6-1.5-3.19-2.07-4.78ZM246.93,69.14c-1.66.26-3.18.86-4.57,1.8.52,1.56,1.12,3.05,1.8,4.45,1.1-1.87,2.02-3.96,2.77-6.25Z"/><path class="cls-5" d="M262.57,77.87c.5-1.16.87-1.97,1.12-2.42.13-.26.29-.38.48-.38.1,0,.19.02.27.07.19.11.28.25.28.43,0,.09-.04.24-.13.45-.6,1.53-.97,2.79-1.12,3.76-.05.35-.16.63-.34.85-.18.21-.38.31-.59.31-.44,0-.81-.32-1.09-.95-.5-1.14-.76-2.84-.76-5.09,0-1.91.21-4.8.64-8.65.06-.58.12-.95.17-1.12.14-.39.42-.58.84-.58.29,0,.53.11.7.33.12.16.19.35.19.59,0,.12-.03.37-.09.77-.24,1.49-.46,3.51-.66,6.03-.08,1.04-.12,1.89-.12,2.57,0,.78.07,1.79.22,3.02ZM268.66,75.82c.22,0,.43.12.62.36.88,1.14,2.89,1.71,6.03,1.71.33,0,.61-.01.86-.03.12,0,.21-.01.27-.01.35,0,.62.12.8.35.12.16.19.34.19.55,0,.33-.14.6-.41.8-.18.13-.54.2-1.07.2-1.64,0-3.13-.17-4.5-.52-1.31-.33-2.3-.89-2.96-1.7-.33-.4-.5-.74-.5-1.02,0-.19.06-.34.17-.46.13-.14.3-.21.5-.21ZM275.16,68.06c-1.43,0-3.32.35-5.66,1.06-.22.07-.4.1-.51.1-.36,0-.6-.15-.72-.45-.05-.12-.07-.22-.07-.31,0-.27.23-.5.7-.7,1.31-.54,2.67-.95,4.09-1.21.78-.14,1.46-.21,2.05-.21,1.15,0,1.73.31,1.73.93,0,.53-.34.8-1.02.8h-.58Z"/><path class="cls-5" d="M285.21,79.18c.29,0,.57.08.84.24.53.32.8.79.8,1.41,0,.42-.14.79-.43,1.1-.33.36-.74.53-1.23.53-.27,0-.53-.07-.77-.2-.57-.32-.86-.8-.86-1.45,0-.47.17-.87.5-1.19.33-.3.71-.45,1.15-.45ZM285.99,76.5c-.04.58-.3.87-.78.87s-.77-.29-.79-.87l-.52-12.57v-.08c0-.26.08-.47.22-.64.26-.33.62-.49,1.09-.49.43,0,.77.14,1.03.43.19.21.28.47.27.78l-.52,12.57Z"/><path class="cls-1" d="M340.07,98.15c.27-.34.41-.76.32-1.32-.35-2.08-8.64-7.83-5.97-10.03.5-.41.65.03,1.18,0,2.16-.16,4.77,1.58,6.6,2.52,1.72.89,3.94,3.22,5.98,3.07.73-.06,1.42-.33,2.1-.61,2.61-1.05,5.21-2.1,7.82-3.15.69-.28,1.41-.56,2.15-.51.74.05,1.51.54,1.62,1.27.09.58-.24,1.14-.55,1.64-1.01,1.61-2.02,3.22-3.04,4.83-2.19,3.48.29,4.34,3.1,5.9,1.22.68,5.15,1.95,5.57,3.52.59,2.23-9.6.52-11.4.37-2.15-.17-1.69.95-1.94,2.77-.22,1.59-.53,3.21-1.04,4.73-.87,2.6-2.66,5.16-4.73,1.82-1.25-2.02-1.43-5.11-3.16-6.88-2.48-2.53-6.71-.65-9.74-.79-.97-.04-5.03.02-5.66-.93-1.39-2.08,7.49-5.95,8.84-6.84.67-.44,1.51-.78,1.98-1.36Z"/><path class="cls-3" d="M28.64,11.52c.27-.34.41-.76.32-1.32-.35-2.08-8.64-7.83-5.97-10.03.5-.41.65.03,1.18,0,2.16-.16,4.77,1.58,6.6,2.52,1.72.89,3.94,3.22,5.98,3.07.73-.06,1.42-.33,2.1-.61,2.61-1.05,5.21-2.1,7.82-3.15.69-.28,1.41-.56,2.15-.51.74.05,1.51.54,1.62,1.27.09.58-.24,1.14-.55,1.64-1.01,1.61-2.02,3.22-3.04,4.83-2.19,3.48.29,4.34,3.1,5.9,1.22.68,5.15,1.95,5.57,3.52.59,2.23-9.6.52-11.4.37-2.15-.17-1.69.95-1.94,2.77-.22,1.59-.53,3.21-1.04,4.73-.87,2.6-2.66,5.16-4.73,1.82-1.25-2.02-1.43-5.11-3.16-6.88-2.48-2.53-6.71-.65-9.74-.79-.97-.04-5.03.02-5.66-.93-1.39-2.08,7.49-5.95,8.84-6.84.67-.44,1.51-.78,1.98-1.36Z"/><path class="cls-4" d="M295.4,88.62c11.77,6.18,8.6,23.26-2.59,39.11"/><path class="cls-6" d="M291.2,120.32c.08,1.72-.86,10.46.73,10.61,1.07.1,6.31-3.38,7.88-5.81"/></svg>