<?xml version="1.0" encoding="UTF-8"?><svg id="Layer_1" xmlns="http://www.w3.org/2000/svg" xmlns:xlink="http://www.w3.org/1999/xlink" viewBox="0 0 85.04 86.61"><defs><style>.cls-1{fill:#016775;}.cls-1,.cls-2,.cls-3{stroke-width:0px;}.cls-2{fill:none;}.cls-3{fill:#f3d475;}.cls-4{clip-path:url(#clippath);}</style><clipPath id="clippath"><rect class="cls-2" width="85.04" height="86.61"/></clipPath></defs><g id="Group_796"><circle id="Ellipse_22" class="cls-3" cx="41.5" cy="43.5" r="34.5"/><g id="Group_415"><g class="cls-4"><g id="Group_414"><path id="Path_453" class="cls-1" d="m40.27,59.63c0,.75.15,2.39,1.69,2.39.79-.08,1.55-.36,2.2-.82-.72-2.26-1.13-4.61-1.25-6.98-1.65,1.32-2.62,3.3-2.64,5.41"/><path id="Path_454" class="cls-1" d="m26.65,39.58c0,2.35,1.46,2.87,2.92,2.87,3.04.03,5.53-2.42,5.56-5.46,0-.11,0-.22,0-.33v-2.01c-1.26.5-2.56.85-3.9,1.05-3.01.67-4.56,1.29-4.56,3.88"/><path id="Path_455" class="cls-1" d="m49.14,56.01c.95-1.52,1.75-3.13,2.38-4.82-.89-.03-1.77.06-2.64.26-.02,1.52.06,3.04.26,4.55"/><path id="Path_456" class="cls-1" d="m42.52,0C19.04,0,0,19.39,0,43.3s19.04,43.3,42.52,43.3,42.52-19.38,42.52-43.3S66,0,42.52,0m12.27,68.81c-1.51.2-2.9-.86-3.11-2.38-.03-.21-.03-.43,0-.65,0-2.54,1.43-2.69,3.19-2.87,3.59-.34,6.01-1.64,6.01-5.56.06-1.3-.33-2.57-1.1-3.62-.63-.82-1.52-1.39-2.53-1.6-1.41,3.62-3.44,6.97-6.01,9.89.23.48.35,1,.37,1.53-.07,1.76-1.5,3.15-3.26,3.17-.69.05-1.36-.21-1.83-.71-1.61,1.04-3.47,1.63-5.39,1.72-3.56,0-6.53-2.91-6.53-7.88,0-6.87,5.13-10.34,8.21-11.8,0-.52.07-2.72.07-3.17h-.52l-18.17,17.8c-.34.34-.9.34-1.24,0,0,0-.01-.01-.02-.02-.34-.36-.33-.93.02-1.28l13.64-13.36c-.72-.61-1.18-1.47-1.29-2.41-1.08,1.15-3.24,3.16-8.23,3.16-8.18,0-9.36-6.51-9.36-9.48,0-7.57,6.58-8.57,11.47-9.29,4.61-.67,6.07-.86,6.07-2.68,0-.57-.28-2.59-3.81-2.59-2.87,0-3.34.81-4.7,3.21-.92,1.3-2.46,2.01-4.04,1.87-1.27,0-4.18-.33-4.18-3.21,0-2.16,1.98-8.81,13.02-8.81,2.02,0,12.18,0,12.18,9.53v13.72l14.23-13.94c.35-.34.9-.34,1.24,0,0,0,.01.01.01.02.34.36.33.93-.03,1.28l-9.73,9.53c0,.27,0,.53-.02.79,1.5-.04,3.15-.04,5.57-.15,1.28-.04,7.33-.41,8.06-.41.81,0,3.23,0,3.23,3.1.18,1.42-.83,2.73-2.25,2.91-.02,0-.04,0-.06,0-2.09.3-11.91.52-14.88.6,0,.26-.07,1.31-.07,1.53,1.23-.18,2.46-.26,3.7-.26,6.05,0,8.58,1.34,10.44,2.76,2.73,2.09,4.27,5.37,4.14,8.81,0,8.77-7.37,11.2-12.53,11.2"/></g></g></g></g></svg>