<?xml version="1.0" encoding="UTF-8"?>
<svg id="Layer_1" data-name="Layer 1" xmlns="http://www.w3.org/2000/svg" xmlns:xlink="http://www.w3.org/1999/xlink" viewBox="0 0 1920 200">
  <defs>
    <style>
      .cls-1 {
        fill: none;
      }

      .cls-2 {
        fill: url(#linear-gradient-5);
      }

      .cls-3 {
        fill: url(#linear-gradient-4);
      }

      .cls-4 {
        fill: url(#linear-gradient-3);
      }

      .cls-5 {
        fill: url(#linear-gradient-2);
      }

      .cls-6 {
        fill: url(#linear-gradient);
      }

      .cls-7 {
        fill: #763718;
      }

      .cls-8 {
        clip-path: url(#clippath);
      }
    </style>
    <clipPath id="clippath">
      <rect class="cls-1" width="1920" height="200"/>
    </clipPath>
    <linearGradient id="linear-gradient" x1="2160.55" y1="139.27" x2="114.26" y2="139.27" gradientTransform="translate(2097.23 -21.97) rotate(179.9) scale(1 -.89)" gradientUnits="userSpaceOnUse">
      <stop offset="0" stop-color="#f9a72f"/>
      <stop offset=".28" stop-color="#d17b28"/>
      <stop offset=".57" stop-color="#f9ca51"/>
      <stop offset=".62" stop-color="#f5ba3b"/>
      <stop offset=".69" stop-color="#f2ad28"/>
      <stop offset=".74" stop-color="#f2a922"/>
      <stop offset=".75" stop-color="#eea523"/>
      <stop offset=".89" stop-color="#d98a2c"/>
      <stop offset=".96" stop-color="#d28030"/>
    </linearGradient>
    <linearGradient id="linear-gradient-2" x1="114.26" y1="149.75" x2="1052.08" y2="149.75" xlink:href="#linear-gradient"/>
    <linearGradient id="linear-gradient-3" x1="1114.7" y1="118.94" x2="2160.55" y2="118.94" xlink:href="#linear-gradient"/>
    <linearGradient id="linear-gradient-4" x1="1137.39" y1="152.11" x2="2160.54" y2="152.11" gradientTransform="translate(2096.94 -190.5) rotate(173.54) scale(1.01 -.88) skewX(5.6)" xlink:href="#linear-gradient"/>
    <linearGradient id="linear-gradient-5" x1="1091.61" y1="88.18" x2="114.25" y2="88.18" gradientTransform="translate(2097.25 -7.34) rotate(-179.1) scale(1 -.89) skewX(-.88)" xlink:href="#linear-gradient"/>
  </defs>
  <g class="cls-8">
    <path class="cls-7" d="M-195.87,88.7l390.64-2.53,453.81-52.99,220.69,64.57c122.37,7.77,259.83,25.29,339.35-.15C1466.29,46.73,1674.92,2.49,1825.48,0l202.04,38.92,88.35,364.8-2271.09-26.7-40.66-288.32Z"/>
    <g>
      <path class="cls-6" d="M-63.15,81.89c60.31,1.15,120.77.64,180.94-1.24,76.27-2.47,152.39-7.05,227.72-14.64,114.04-10.89,228.89-28.39,345.77-32.32,73.87-2.38,153.63,2.86,216.06,27.57,20.6,7.83,38.62,18.01,56.19,27.85,55.99,31.33,109.42,50.92,190.4,48.24,13.89-.4,29.21-1.76,43.05-2.69,77.77-6.45,153.48-20.56,228.6-34.6,57.11-10.7,119.18-23.86,176.54-35.15,121.58-22.59,256.17-31.74,380.97-12.86l.05,28.98c-65.71-7.98-135.03-3.06-204.39,7.54-110.64,16.94-214.62,45.23-325.06,63.16-81.97,13.65-166.95,23.56-253.39,22.59-13.02-.1-26.47-.89-39.36-2.01-97.55-8.74-147.69-35.52-211.96-74.89-81.5-53.86-197.53-53.94-311.94-42.37-113.58,11.81-225.4,33.02-338.15,47.46-119.33,14.73-240.35,25.88-361.97,31.72l-.09-52.33Z"/>
      <path class="cls-5" d="M1778.77,88.56c-110.64,16.94-214.62,45.23-325.06,63.16-81.97,13.65-166.95,23.56-253.39,22.59-13.02-.1-26.47-.89-39.36-2.01-47.33-4.24-83.48-12.74-115.52-24.85,31.54,10.89,66.29,16.41,108.54,14.78,13.89-.46,29.21-2.07,43.05-3.16,77.76-7.58,153.48-24.18,228.59-40.7,57.1-12.59,119.18-28.07,176.53-41.36,121.57-26.58,256.16-37.32,380.96-15.04l.03,19.07c-65.71-7.98-135.03-3.06-204.39,7.54Z"/>
      <path class="cls-4" d="M117.82,95.1c76.27-2.88,152.39-8.26,227.72-17.18,114.04-12.8,228.88-33.38,345.76-37.98,73.87-2.78,153.63,3.41,216.07,32.56,20.6,9.23,38.62,21.23,56.2,32.83,6.42,4.23,12.81,8.28,19.21,12.13-11.04-6.25-22.17-12.94-33.77-20.04-81.5-53.86-197.53-53.94-311.94-42.37-113.58,11.81-225.4,33.02-338.15,47.46-119.33,14.73-240.35,25.88-361.97,31.72l-.06-37.71c60.31,1.37,120.77.79,180.94-1.41Z"/>
      <path class="cls-3" d="M336.72,113.31c111.56-15.39,223.91-36.84,338.24-46.03,72.26-5.71,150.28-4.77,211.35,14.76,20.15,6.15,37.78,14.55,54.96,22.67,6.28,2.96,12.53,5.78,18.78,8.45-10.79-4.3-21.68-8.94-33.02-13.87-79.71-37.71-193.21-32.18-305.13-17.72-111.11,14.6-220.5,36.39-330.8,53-116.73,17.14-235.12,31.6-354.09,41.97l-.04-21.17s130.15-5.99,399.75-42.05Z"/>
      <path class="cls-2" d="M1604.95,36.15C1776.06-2.22,1917.85-1.84,1983.02,1.28l.06,36.96c-74.73-10.61-186.05-17.72-315.47,4.09-96.33,16.23-198,39.32-309.06,58.3-71.89,12.29-144.23,24.49-218.92,24-11.25-.03-22.87-.74-34.01-1.79-40.89-3.98-72.13-12.27-99.81-24.21,143.73,56.97,422.25-22.82,599.13-62.49Z"/>
    </g>
  </g>
</svg>