<?xml version="1.0" encoding="UTF-8"?>
<svg id="Layer_1" data-name="Layer 1" xmlns="http://www.w3.org/2000/svg" xmlns:xlink="http://www.w3.org/1999/xlink" viewBox="0 0 1920 338.77">
  <defs>
    <style>
      .cls-1 {
        fill: none;
      }

      .cls-2 {
        fill: #773718;
      }

      .cls-3 {
        clip-path: url(#clippath);
      }
    </style>
    <clipPath id="clippath">
      <rect class="cls-1" width="1920" height="338.77" transform="translate(1920 338.77) rotate(180)"/>
    </clipPath>
  </defs>
  <g class="cls-3">
    <g>
      <path class="cls-2" d="M129.41,132.22c58.05,33,99.4,9.68,121.83-11.7,9.65-9.19,17.49-20.1,23.44-32.03,13.72-27.44,27.96-46.53,40.83-59.79,27.16-27.98,72.91-25.27,96.18,6.02,7.19,9.67,11.22,18.55,13.06,23.28,2.14,5.47,4.55,10.83,7.37,15.99,38.03,69.67,125.09,102.93,232.33,19.77,49.39-38.3,90.68-51.45,121.55-54.1,42.55-3.64,77.79,32.29,73.36,74.76-4.59,44.01-30.98,75.48-30.98,75.48-12.72,17.27-21.29,32.76-26.81,46.57-4.16,13.15-5.83,18.87-7.78,29.94-4.26,50.47,52.56,85.36,95.57,55.39,27.49-19.16,40.33-54.97,45.2-72.57,2.81-10.16,6.64-20.02,11.59-29.33,13.22-24.84,27.97-41.96,41.48-53.7,32.01-27.84,79.54-28.68,112.18-1.59,3.07,2.54,5.13,4.61,6.15,5.69,1.67,1.76,3.36,3.51,5.09,5.22,8.93,8.85,17.76,16.21,26.17,22.34,49.43,35.99,119.88,15.02,140.8-42.43,2.79-7.66,5.04-16.11,6.57-25.45,5.77-35.18,18.07-59.97,30.49-76.94,18.94-25.88,54.52-33.09,81.86-16.31,17.26,10.6,27.06,22.4,27.06,22.4,121.62,134.6,206.09,36.05,206.09,36.05V-990.15H-6.09l-.69,1154.57s44.85-84.12,136.19-32.21"/>
      <path class="cls-2" d="M2968.04,131.74c-58.05,33-99.4,9.68-121.83-11.7-9.65-9.19-17.49-20.1-23.44-32.03-13.72-27.44-27.96-46.53-40.83-59.79-27.16-27.98-72.91-25.27-96.18,6.02-7.19,9.67-11.22,18.55-13.06,23.28-2.14,5.47-4.55,10.83-7.37,15.99-38.03,69.67-125.09,102.93-232.33,19.77-49.39-38.3-90.68-51.45-121.55-54.1-42.55-3.64-77.79,32.29-73.36,74.76,4.59,44.01,30.98,75.48,30.98,75.48,12.72,17.27,21.29,32.76,26.81,46.57,4.16,13.15,5.83,18.87,7.78,29.94,4.26,50.47-52.56,85.36-95.57,55.39-27.49-19.16-40.33-54.97-45.2-72.57-2.81-10.16-6.64-20.02-11.59-29.33-13.22-24.84-27.97-41.96-41.48-53.7-32.01-27.84-79.54-28.68-112.18-1.59-3.07,2.54-5.13,4.61-6.15,5.69-1.67,1.76-3.36,3.51-5.09,5.22-8.93,8.85-17.76,16.21-26.17,22.34-49.43,35.99-119.88,15.02-140.8-42.43-2.79-7.66-5.04-16.11-6.57-25.45-5.77-35.18-18.07-59.97-30.49-76.94-18.94-25.88-54.52-33.09-81.86-16.31-17.26,10.6-27.06,22.4-27.06,22.4-121.62,134.6-206.09,36.05-206.09,36.05V-990.63h1636.18s.69,1154.57.69,1154.57c0,0-44.85-84.12-136.19-32.21"/>
    </g>
  </g>
</svg>