<?xml version="1.0" encoding="UTF-8"?>
<svg id="Layer_1" data-name="Layer 1" xmlns="http://www.w3.org/2000/svg" xmlns:xlink="http://www.w3.org/1999/xlink" viewBox="0 0 1180 247.08">
  <defs>
    <style>
      .cls-1 {
        fill: none;
      }

      .cls-2 {
        fill: url(#linear-gradient-5);
      }

      .cls-3 {
        fill: url(#linear-gradient-6);
      }

      .cls-4 {
        fill: url(#linear-gradient-4);
      }

      .cls-5 {
        fill: url(#linear-gradient-3);
      }

      .cls-6 {
        fill: url(#linear-gradient-2);
      }

      .cls-7 {
        fill: url(#linear-gradient);
      }

      .cls-8 {
        clip-path: url(#clippath-1);
      }

      .cls-9 {
        clip-path: url(#clippath-3);
      }

      .cls-10 {
        clip-path: url(#clippath-2);
      }

      .cls-11 {
        fill: #763718;
      }

      .cls-12 {
        clip-path: url(#clippath);
      }
    </style>
    <clipPath id="clippath">
      <rect class="cls-1" x="-2480" y="-37.92" width="1180" height="285"/>
    </clipPath>
    <clipPath id="clippath-1">
      <rect class="cls-1" x="-3324.98" y="-89.16" width="3232.66" height="336.74"/>
    </clipPath>
    <linearGradient id="linear-gradient" x1="-2651.25" y1="64.58" x2="-6096.56" y2="64.58" gradientTransform="translate(-6082.59 35.54) rotate(179.9) scale(1 -.89)" gradientUnits="userSpaceOnUse">
      <stop offset="0" stop-color="#f8a62f"/>
      <stop offset=".28" stop-color="#d07b28"/>
      <stop offset=".57" stop-color="#f8c951"/>
      <stop offset=".62" stop-color="#f4b93b"/>
      <stop offset=".69" stop-color="#f1ac28"/>
      <stop offset=".74" stop-color="#f1a822"/>
      <stop offset=".75" stop-color="#eea522"/>
      <stop offset=".88" stop-color="#d98a2c"/>
      <stop offset=".96" stop-color="#d18030"/>
    </linearGradient>
    <linearGradient id="linear-gradient-2" x1="-6096.56" y1="82.22" x2="-4517.57" y2="82.22" xlink:href="#linear-gradient"/>
    <linearGradient id="linear-gradient-3" x1="-4451.01" y1="-53.06" x2="-6096.57" y2="-53.06" gradientTransform="translate(-6082.71 -20.73) rotate(-179.1) scale(1 -.89) skewX(-.88)" xlink:href="#linear-gradient"/>
    <clipPath id="clippath-2">
      <rect class="cls-1" x="-1240" y="-37.92" width="1180" height="285" transform="translate(-1300 209.16) rotate(180)"/>
    </clipPath>
    <clipPath id="clippath-3">
      <rect class="cls-1" x="-2447.68" y="-38.42" width="3232.66" height="336.74" transform="translate(-1662.69 259.9) rotate(180)"/>
    </clipPath>
    <linearGradient id="linear-gradient-4" x1="-2327.76" y1="-524.71" x2="-5773.06" y2="-524.71" gradientTransform="translate(3218.21 -349.83) rotate(-.1) scale(1 -.89)" xlink:href="#linear-gradient"/>
    <linearGradient id="linear-gradient-5" x1="-4088.64" y1="-558.93" x2="-2327.76" y2="-558.93" gradientTransform="translate(3218.21 -349.83) rotate(-.1) scale(1 -.89)" xlink:href="#linear-gradient"/>
    <linearGradient id="linear-gradient-6" x1="-4050.42" y1="-397.24" x2="-2327.77" y2="-397.24" gradientTransform="translate(3217.74 -637.68) rotate(-6.46) scale(1.01 -.88) skewX(5.6)" xlink:href="#linear-gradient"/>
  </defs>
  <path class="cls-11" d="M.07,0l-.07,125.63s32.33-60.65,98.18-23.22c41.85,23.79,71.66,6.98,87.83-8.43,6.96-6.63,12.6-14.49,16.9-23.09,9.89-19.78,20.15-33.54,29.43-43.1,19.58-20.17,52.56-18.22,69.34,4.34,5.18,6.97,8.09,13.38,9.42,16.78,1.54,3.94,3.28,7.81,5.31,11.53,27.42,50.23,90.18,74.2,167.49,14.25,35.61-27.61,65.37-37.09,87.62-39,30.67-2.62,56.08,23.27,52.88,53.89-3.31,31.72-22.33,54.41-22.33,54.41-9.17,12.45-15.35,23.61-19.33,33.57-2.99,9.48-4.2,13.6-5.61,21.59-3.07,36.38,37.89,61.53,68.89,39.93,19.82-13.81,29.07-39.63,32.58-52.32,2.03-7.33,4.78-14.43,8.36-21.14,9.53-17.91,20.16-30.24,29.9-38.71,23.08-20.07,57.34-20.68,80.87-1.15,2.21,1.83,3.7,3.32,4.44,4.1,1.2,1.27,2.42,2.53,3.67,3.77,6.44,6.38,12.81,11.69,18.87,16.1,35.64,25.95,86.42,10.83,101.51-30.59,2.01-5.52,3.63-11.62,4.74-18.35,4.16-25.36,13.03-43.23,21.98-55.47,13.65-18.66,39.31-23.86,59.01-11.76,12.44,7.64,19.51,16.15,19.51,16.15,87.68,97.03,148.57,25.99,148.57,25.99V0H.07Z"/>
  <g class="cls-12">
    <g class="cls-8">
      <path class="cls-11" d="M-3654.77,60.19l657.72-4.26,764.06-89.21,371.58,108.72c206.04,13.08,437.46,42.58,571.35-.26C-856.22-10.49-504.96-84.97-251.46-89.16L88.7-23.62l148.76,614.21-3823.78-44.96-68.45-485.44Z"/>
      <g>
        <path class="cls-7" d="M-3431.31,48.72c101.54,1.94,203.34,1.07,304.65-2.1,128.41-4.15,256.58-11.87,383.41-24.65,192.01-18.34,385.38-47.79,582.17-54.42,124.37-4,258.66,4.81,363.77,46.42,34.68,13.19,65.02,30.32,94.61,46.88,94.27,52.75,184.23,85.74,320.58,81.22,23.39-.67,49.17-2.97,72.48-4.53,130.93-10.86,258.42-34.62,384.89-58.26,96.15-18.02,200.67-40.16,297.24-59.18C-422.8-17.91-196.19-33.31,13.92-1.53l.08,48.79c-110.63-13.44-227.35-5.16-344.12,12.7-186.28,28.52-361.35,76.15-547.29,106.34-138,22.97-281.09,39.67-426.63,38.03-21.92-.17-44.57-1.5-66.27-3.39-164.25-14.72-248.66-59.8-356.87-126.09C-1864.4-15.84-2059.75-15.97-2252.39,3.5c-191.24,19.88-379.51,55.59-569.34,79.91-200.91,24.79-404.68,43.57-609.44,53.41l-.15-88.1Z"/>
        <path class="cls-6" d="M-330.12,59.95c-186.28,28.52-361.35,76.15-547.29,106.34-138,22.97-281.09,39.67-426.63,38.03-21.92-.17-44.57-1.5-66.27-3.39-79.68-7.14-140.56-21.45-194.5-41.84,53.1,18.34,111.6,27.63,182.75,24.88,23.39-.78,49.17-3.48,72.48-5.32,130.93-12.76,258.41-40.72,384.87-68.53,96.14-21.2,200.65-47.27,297.23-69.64C-422.78-4.28-196.17-22.35,13.95,15.15l.05,32.1c-110.63-13.44-227.35-5.16-344.12,12.7Z"/>
        <path class="cls-5" d="M-622.77-28.29C-334.67-92.9-95.94-92.26,13.77-87l.11,62.23c-125.81-17.86-313.25-29.83-531.15,6.88-162.2,27.33-333.36,66.2-520.36,98.16-121.04,20.69-242.84,41.23-368.59,40.41-18.94-.05-38.51-1.25-57.26-3.02-68.85-6.7-121.44-20.67-168.05-40.75,242,95.92,710.94-38.43,1008.75-105.21Z"/>
      </g>
    </g>
  </g>
  <g class="cls-10">
    <g class="cls-9">
      <path class="cls-11" d="M1114.77,148.97l-657.72,4.26-764.06,89.21-371.58-108.72c-206.04-13.08-437.46-42.58-571.35.26-433.84,85.66-785.1,160.15-1038.6,164.34l-340.16-65.54-148.76-614.21,3823.78,44.96,68.45,485.44Z"/>
      <g>
        <path class="cls-4" d="M891.31,160.44c-101.54-1.94-203.34-1.07-304.65,2.1-128.41,4.15-256.58,11.87-383.41,24.65-192.01,18.34-385.38,47.79-582.17,54.42-124.37,4-258.66-4.81-363.77-46.42-34.68-13.19-65.02-30.32-94.61-46.88-94.27-52.75-184.23-85.74-320.58-81.22-23.39.67-49.17,2.97-72.48,4.53-130.93,10.86-258.42,34.62-384.89,58.26-96.15,18.02-200.67,40.16-297.24,59.18-204.7,38.04-431.31,53.43-641.43,21.66l-.08-48.79c110.63,13.44,227.35,5.16,344.12-12.7,186.28-28.52,361.35-76.15,547.29-106.34,138-22.97,281.09-39.67,426.63-38.03,21.92.17,44.57,1.5,66.27,3.39,164.25,14.72,248.66,59.8,356.87,126.09,137.22,90.68,332.58,90.81,525.21,71.34,191.24-19.88,379.51-55.59,569.34-79.91,200.91-24.79,404.68-43.57,609.44-53.41l.15,88.1Z"/>
        <path class="cls-2" d="M586.62,138.2c-128.41,4.86-256.57,13.91-383.4,28.93-192,21.55-385.37,56.2-582.16,63.95-124.37,4.68-258.66-5.75-363.79-54.81-34.68-15.55-65.03-35.75-94.62-55.27-10.81-7.13-21.56-13.94-32.34-20.42,18.58,10.53,37.33,21.79,56.85,33.75,137.22,90.68,332.58,90.81,525.21,71.34,191.24-19.88,379.51-55.59,569.34-79.91,200.91-24.79,404.68-43.57,609.44-53.41l.11,63.48c-101.54-2.31-203.34-1.33-304.65,2.38Z"/>
        <path class="cls-3" d="M218.06,107.55c-187.82,25.92-376.99,62.03-569.49,77.5-121.66,9.61-253.03,8.02-355.84-24.84-33.92-10.35-63.6-24.5-92.54-38.17-10.57-4.99-21.09-9.73-31.62-14.23,18.18,7.24,36.51,15.04,55.6,23.35,134.2,63.5,325.3,54.18,513.74,29.84,187.08-24.58,371.26-61.27,556.96-89.23C491.41,42.91,690.74,18.57,891.04,1.1l.06,35.65s-219.14,10.09-673.04,70.8Z"/>
      </g>
    </g>
  </g>
</svg>