<?xml version="1.0" encoding="UTF-8"?>
<svg id="Layer_1" data-name="Layer 1" xmlns="http://www.w3.org/2000/svg" xmlns:xlink="http://www.w3.org/1999/xlink" viewBox="0 0 1180 285">
  <defs>
    <style>
      .cls-1 {
        fill: none;
      }

      .cls-2 {
        fill: url(#linear-gradient-8);
      }

      .cls-3 {
        fill: url(#linear-gradient-7);
      }

      .cls-4 {
        fill: url(#linear-gradient-5);
      }

      .cls-5 {
        fill: url(#linear-gradient-6);
      }

      .cls-6 {
        fill: url(#linear-gradient-4);
      }

      .cls-7 {
        fill: url(#linear-gradient-3);
      }

      .cls-8 {
        fill: url(#linear-gradient-2);
      }

      .cls-9 {
        fill: url(#linear-gradient);
      }

      .cls-10 {
        clip-path: url(#clippath-1);
      }

      .cls-11 {
        clip-path: url(#clippath-3);
      }

      .cls-12 {
        clip-path: url(#clippath-2);
      }

      .cls-13 {
        fill: #763718;
      }

      .cls-14 {
        clip-path: url(#clippath);
      }
    </style>
    <clipPath id="clippath">
      <rect class="cls-1" x="-1240" width="1180" height="285"/>
    </clipPath>
    <clipPath id="clippath-1">
      <rect class="cls-1" x="-2084.98" y="-51.24" width="3232.66" height="336.74"/>
    </clipPath>
    <linearGradient id="linear-gradient" x1="-1411.25" y1="102.5" x2="-4856.56" y2="102.5" gradientTransform="translate(-3602.65 37.65) rotate(179.9) scale(1 -.89)" gradientUnits="userSpaceOnUse">
      <stop offset="0" stop-color="#f8a62f"/>
      <stop offset=".28" stop-color="#d07b28"/>
      <stop offset=".57" stop-color="#f8c951"/>
      <stop offset=".62" stop-color="#f4b93b"/>
      <stop offset=".69" stop-color="#f1ac28"/>
      <stop offset=".74" stop-color="#f1a822"/>
      <stop offset=".75" stop-color="#eea522"/>
      <stop offset=".88" stop-color="#d98a2c"/>
      <stop offset=".96" stop-color="#d18030"/>
    </linearGradient>
    <linearGradient id="linear-gradient-2" x1="-4856.56" y1="120.14" x2="-3277.57" y2="120.14" xlink:href="#linear-gradient"/>
    <linearGradient id="linear-gradient-3" x1="-3211.01" y1="-15.14" x2="-4856.57" y2="-15.14" gradientTransform="translate(-3602.73 2.88) rotate(-179.1) scale(1 -.89) skewX(-.88)" xlink:href="#linear-gradient"/>
    <clipPath id="clippath-2">
      <rect class="cls-1" width="1180" height="285" transform="translate(1180 285) rotate(180)"/>
    </clipPath>
    <clipPath id="clippath-3">
      <rect class="cls-1" x="-1207.68" y="-.5" width="3232.66" height="336.74" transform="translate(817.31 335.74) rotate(180)"/>
    </clipPath>
    <linearGradient id="linear-gradient-4" x1="-1087.76" y1="-486.79" x2="-4533.06" y2="-486.79" gradientTransform="translate(3218.27 -276.1) rotate(-.1) scale(1 -.89)" xlink:href="#linear-gradient"/>
    <linearGradient id="linear-gradient-5" x1="-4533.06" y1="-469.15" x2="-2954.07" y2="-469.15" gradientTransform="translate(3218.27 -276.1) rotate(-.1) scale(1 -.89)" xlink:href="#linear-gradient"/>
    <linearGradient id="linear-gradient-6" x1="-2848.64" y1="-521.01" x2="-1087.76" y2="-521.01" gradientTransform="translate(3218.27 -276.1) rotate(-.1) scale(1 -.89)" xlink:href="#linear-gradient"/>
    <linearGradient id="linear-gradient-7" x1="-2810.42" y1="-359.32" x2="-1087.77" y2="-359.32" gradientTransform="translate(3218.03 -425.57) rotate(-6.46) scale(1.01 -.88) skewX(5.6)" xlink:href="#linear-gradient"/>
    <linearGradient id="linear-gradient-8" x1="-2887.51" y1="-598.12" x2="-4533.07" y2="-598.12" gradientTransform="translate(3218.34 -241.33) rotate(.9) scale(1 -.89) skewX(-.88)" xlink:href="#linear-gradient"/>
  </defs>
  <g class="cls-14">
    <g class="cls-10">
      <path class="cls-13" d="M-2414.77,98.11l657.72-4.26L-992.99,4.64l371.58,108.72c206.04,13.08,437.46,42.58,571.35-.26C383.78,27.44,735.04-47.05,988.54-51.24L1328.7,14.3l148.76,614.21-3823.78-44.96-68.45-485.44Z"/>
      <g>
        <path class="cls-9" d="M-2191.31,86.64c101.54,1.94,203.34,1.07,304.65-2.1,128.41-4.15,256.58-11.87,383.41-24.65,192.01-18.34,385.38-47.79,582.17-54.42,124.37-4,258.66,4.81,363.77,46.42,34.68,13.19,65.02,30.32,94.61,46.88,94.27,52.75,184.23,85.74,320.58,81.22,23.39-.67,49.17-2.97,72.48-4.53,130.93-10.86,258.42-34.62,384.89-58.26,96.15-18.02,200.67-40.16,297.24-59.18,204.7-38.04,431.31-53.43,641.43-21.66l.08,48.79c-110.63-13.44-227.35-5.16-344.12,12.7-186.28,28.52-361.35,76.15-547.29,106.34-138,22.97-281.09,39.67-426.63,38.03-21.92-.17-44.57-1.5-66.27-3.39-164.25-14.72-248.66-59.8-356.87-126.09C-624.4,22.08-819.75,21.95-1012.39,41.42c-191.24,19.88-379.51,55.59-569.34,79.91-200.91,24.79-404.68,43.57-609.44,53.41l-.15-88.1Z"/>
        <path class="cls-8" d="M909.88,97.88c-186.28,28.52-361.35,76.15-547.29,106.34-138,22.97-281.09,39.67-426.63,38.03-21.92-.17-44.57-1.5-66.27-3.39-79.68-7.14-140.56-21.45-194.5-41.84,53.1,18.34,111.6,27.63,182.75,24.88,23.39-.78,49.17-3.48,72.48-5.32,130.93-12.76,258.41-40.72,384.87-68.53,96.14-21.2,200.65-47.27,297.23-69.64,204.69-44.76,431.3-62.83,641.42-25.33l.05,32.1c-110.63-13.44-227.35-5.16-344.12,12.7Z"/>
        <path class="cls-7" d="M617.23,9.63c288.11-64.6,526.84-63.96,636.55-58.71l.11,62.23c-125.81-17.86-313.25-29.83-531.15,6.88-162.2,27.33-333.36,66.2-520.36,98.16-121.04,20.69-242.84,41.23-368.59,40.41-18.94-.05-38.51-1.25-57.26-3.02-68.85-6.7-121.44-20.67-168.05-40.75C-149.52,210.76,319.42,76.41,617.23,9.63Z"/>
      </g>
    </g>
  </g>
  <g class="cls-12">
    <g class="cls-11">
      <path class="cls-13" d="M2354.77,186.89l-657.72,4.26-764.06,89.21-371.58-108.72c-206.04-13.08-437.46-42.58-571.35.26-433.84,85.66-785.1,160.15-1038.6,164.34l-340.16-65.54-148.76-614.21,3823.78,44.96,68.45,485.44Z"/>
      <g>
        <path class="cls-6" d="M2131.31,198.36c-101.54-1.94-203.34-1.07-304.65,2.1-128.41,4.15-256.58,11.87-383.41,24.65-192.01,18.34-385.38,47.79-582.17,54.42-124.37,4-258.66-4.81-363.77-46.42-34.68-13.19-65.02-30.32-94.61-46.88-94.27-52.75-184.23-85.74-320.58-81.22-23.39.67-49.17,2.97-72.48,4.53-130.93,10.86-258.42,34.62-384.89,58.26-96.15,18.02-200.67,40.16-297.24,59.18-204.7,38.04-431.31,53.43-641.43,21.66l-.08-48.79c110.63,13.44,227.35,5.16,344.12-12.7,186.28-28.52,361.35-76.15,547.29-106.34C-284.59,57.81-141.5,41.12,4.04,42.76c21.92.17,44.57,1.5,66.27,3.39,164.25,14.72,248.66,59.8,356.87,126.09,137.22,90.68,332.58,90.81,525.21,71.34,191.24-19.88,379.51-55.59,569.34-79.91,200.91-24.79,404.68-43.57,609.44-53.41l.15,88.1Z"/>
        <path class="cls-4" d="M-969.88,187.12c186.28-28.52,361.35-76.15,547.29-106.34C-284.59,57.81-141.5,41.12,4.04,42.76c21.92.17,44.57,1.5,66.27,3.39,79.68,7.14,140.56,21.45,194.5,41.84-53.1-18.34-111.6-27.63-182.75-24.88-23.39.78-49.17,3.48-72.48,5.32-130.93,12.76-258.41,40.72-384.87,68.53-96.14,21.2-200.65,47.27-297.23,69.64-204.69,44.76-431.3,62.83-641.42,25.33l-.05-32.1c110.63,13.44,227.35,5.16,344.12-12.7Z"/>
        <path class="cls-5" d="M1826.62,176.12c-128.41,4.86-256.57,13.91-383.4,28.93-192,21.55-385.37,56.2-582.16,63.95-124.37,4.68-258.66-5.75-363.79-54.81-34.68-15.55-65.03-35.75-94.62-55.27-10.81-7.13-21.56-13.94-32.34-20.42,18.58,10.53,37.33,21.79,56.85,33.75,137.22,90.68,332.58,90.81,525.21,71.34,191.24-19.88,379.51-55.59,569.34-79.91,200.91-24.79,404.68-43.57,609.44-53.41l.11,63.48c-101.54-2.31-203.34-1.33-304.65,2.38Z"/>
        <path class="cls-3" d="M1458.06,145.47c-187.82,25.92-376.99,62.03-569.49,77.5-121.66,9.61-253.03,8.02-355.84-24.84-33.92-10.35-63.6-24.5-92.54-38.17-10.57-4.99-21.09-9.73-31.62-14.23,18.18,7.24,36.51,15.04,55.6,23.35,134.2,63.5,325.3,54.18,513.74,29.84,187.08-24.58,371.26-61.27,556.96-89.23,196.54-28.85,395.87-53.2,596.17-70.67l.06,35.65s-219.14,10.09-673.04,70.8Z"/>
        <path class="cls-2" d="M-677.23,275.37c-288.11,64.6-526.84,63.96-636.55,58.71l-.11-62.23c125.81,17.86,313.25,29.83,531.15-6.88,162.2-27.33,333.36-66.2,520.36-98.16,121.04-20.69,242.84-41.23,368.59-40.41,18.94.05,38.51,1.25,57.26,3.02,68.85,6.7,121.44,20.67,168.05,40.75-242-95.92-710.94,38.43-1008.75,105.21Z"/>
      </g>
    </g>
  </g>
</svg>