<?xml version="1.0" encoding="UTF-8"?>
<svg id="Layer_1" data-name="Layer 1" xmlns="http://www.w3.org/2000/svg" xmlns:xlink="http://www.w3.org/1999/xlink" viewBox="0 0 1180 285">
  <defs>
    <style>
      .cls-1 {
        fill: none;
      }

      .cls-2 {
        fill: url(#linear-gradient-8);
      }

      .cls-3 {
        fill: url(#linear-gradient-7);
      }

      .cls-4 {
        fill: url(#linear-gradient-5);
      }

      .cls-5 {
        fill: url(#linear-gradient-6);
      }

      .cls-6 {
        fill: url(#linear-gradient-4);
      }

      .cls-7 {
        fill: url(#linear-gradient-3);
      }

      .cls-8 {
        fill: url(#linear-gradient-2);
      }

      .cls-9 {
        fill: url(#linear-gradient);
      }

      .cls-10 {
        clip-path: url(#clippath-1);
      }

      .cls-11 {
        clip-path: url(#clippath-3);
      }

      .cls-12 {
        clip-path: url(#clippath-2);
      }

      .cls-13 {
        fill: #763718;
      }

      .cls-14 {
        clip-path: url(#clippath);
      }
    </style>
    <clipPath id="clippath">
      <rect class="cls-1" width="1180" height="285"/>
    </clipPath>
    <clipPath id="clippath-1">
      <rect class="cls-1" x="-844.98" y="-51.24" width="3232.66" height="336.74"/>
    </clipPath>
    <linearGradient id="linear-gradient" x1="-171.25" y1="102.5" x2="-3616.56" y2="102.5" gradientTransform="translate(-1122.65 35.55) rotate(179.9) scale(1 -.89)" gradientUnits="userSpaceOnUse">
      <stop offset="0" stop-color="#f8a62f"/>
      <stop offset=".28" stop-color="#d07b28"/>
      <stop offset=".57" stop-color="#f8c951"/>
      <stop offset=".62" stop-color="#f4b93b"/>
      <stop offset=".69" stop-color="#f1ac28"/>
      <stop offset=".74" stop-color="#f1a822"/>
      <stop offset=".75" stop-color="#eea522"/>
      <stop offset=".88" stop-color="#d98a2c"/>
      <stop offset=".96" stop-color="#d18030"/>
    </linearGradient>
    <linearGradient id="linear-gradient-2" x1="-3616.56" y1="120.14" x2="-2037.57" y2="120.14" xlink:href="#linear-gradient"/>
    <linearGradient id="linear-gradient-3" x1="-1932.14" y1="68.28" x2="-171.25" y2="68.28" xlink:href="#linear-gradient"/>
    <linearGradient id="linear-gradient-4" x1="-1893.92" y1="270.57" x2="-171.27" y2="270.57" gradientTransform="translate(-1122.65 46.65) rotate(173.54) scale(1.01 -.88) skewX(5.6)" xlink:href="#linear-gradient"/>
    <linearGradient id="linear-gradient-5" x1="-1971.01" y1="-15.14" x2="-3616.57" y2="-15.14" gradientTransform="translate(-1122.69 22.28) rotate(-179.1) scale(1 -.89) skewX(-.88)" xlink:href="#linear-gradient"/>
    <clipPath id="clippath-2">
      <rect class="cls-1" x="1240" width="1180" height="285" transform="translate(3660 285) rotate(180)"/>
    </clipPath>
    <clipPath id="clippath-3">
      <rect class="cls-1" x="32.32" y="-.5" width="3232.66" height="336.74" transform="translate(3297.31 335.74) rotate(180)"/>
    </clipPath>
    <linearGradient id="linear-gradient-6" x1="152.24" y1="-486.79" x2="-3293.06" y2="-486.79" gradientTransform="translate(3218.27 -274) rotate(-.1) scale(1 -.89)" xlink:href="#linear-gradient"/>
    <linearGradient id="linear-gradient-7" x1="-3293.06" y1="-469.15" x2="-1714.07" y2="-469.15" gradientTransform="translate(3218.27 -274) rotate(-.1) scale(1 -.89)" xlink:href="#linear-gradient"/>
    <linearGradient id="linear-gradient-8" x1="-1647.51" y1="-598.12" x2="-3293.07" y2="-598.12" gradientTransform="translate(3218.3 -260.73) rotate(.9) scale(1 -.89) skewX(-.88)" xlink:href="#linear-gradient"/>
  </defs>
  <g class="cls-14">
    <g class="cls-10">
      <path class="cls-13" d="M-1174.77,98.11l657.72-4.26L247.01,4.64l371.58,108.72c206.04,13.08,437.46,42.58,571.35-.26C1623.78,27.44,1975.04-47.05,2228.54-51.24l340.16,65.54,148.76,614.21-3823.78-44.96-68.45-485.44Z"/>
      <g>
        <path class="cls-9" d="M-951.31,86.64c101.54,1.94,203.34,1.07,304.65-2.1,128.41-4.15,256.58-11.87,383.41-24.65C-71.25,41.56,122.13,12.11,318.92,5.48c124.37-4,258.66,4.81,363.77,46.42,34.68,13.19,65.02,30.32,94.61,46.88,94.27,52.75,184.23,85.74,320.58,81.22,23.39-.67,49.17-2.97,72.48-4.53,130.93-10.86,258.42-34.62,384.89-58.26,96.15-18.02,200.67-40.16,297.24-59.18,204.7-38.04,431.31-53.43,641.43-21.66l.08,48.79c-110.63-13.44-227.35-5.16-344.12,12.7-186.28,28.52-361.35,76.15-547.29,106.34-138,22.97-281.09,39.67-426.63,38.03-21.92-.17-44.57-1.5-66.27-3.39-164.25-14.72-248.66-59.8-356.87-126.09C615.6,22.08,420.25,21.95,227.61,41.42,36.37,61.3-151.9,97.01-341.72,121.33c-200.91,24.79-404.68,43.57-609.44,53.41l-.15-88.1Z"/>
        <path class="cls-8" d="M2149.88,97.88c-186.28,28.52-361.35,76.15-547.29,106.34-138,22.97-281.09,39.67-426.63,38.03-21.92-.17-44.57-1.5-66.27-3.39-79.68-7.14-140.56-21.45-194.5-41.84,53.1,18.34,111.6,27.63,182.75,24.88,23.39-.78,49.17-3.48,72.48-5.32,130.93-12.76,258.41-40.72,384.87-68.53,96.14-21.2,200.65-47.27,297.23-69.64,204.69-44.76,431.3-62.83,641.42-25.33l.05,32.1c-110.63-13.44-227.35-5.16-344.12,12.7Z"/>
        <path class="cls-7" d="M-646.62,108.88c128.41-4.86,256.57-13.91,383.4-28.93C-71.22,58.4,122.15,23.75,318.94,16c124.37-4.68,258.66,5.75,363.79,54.81,34.68,15.55,65.03,35.75,94.62,55.27,10.81,7.13,21.56,13.94,32.34,20.42-18.58-10.53-37.33-21.79-56.85-33.75C615.6,22.08,420.25,21.95,227.61,41.42,36.37,61.3-151.9,97.01-341.72,121.33c-200.91,24.79-404.68,43.57-609.44,53.41l-.11-63.48c101.54,2.31,203.34,1.33,304.65-2.38Z"/>
        <path class="cls-6" d="M-278.06,139.53C-90.23,113.62,98.93,77.51,291.43,62.03c121.66-9.61,253.03-8.02,355.84,24.84,33.92,10.35,63.6,24.5,92.54,38.17,10.57,4.99,21.09,9.73,31.62,14.23-18.18-7.24-36.51-15.04-55.6-23.35-134.2-63.5-325.3-54.18-513.74-29.84C15.01,110.67-169.17,147.36-354.87,175.31c-196.54,28.85-395.87,53.2-596.17,70.67l-.06-35.65s219.14-10.09,673.04-70.8Z"/>
        <path class="cls-4" d="M1857.23,9.63c288.11-64.6,526.84-63.96,636.55-58.71l.11,62.23c-125.81-17.86-313.25-29.83-531.15,6.88-162.2,27.33-333.36,66.2-520.36,98.16-121.04,20.69-242.84,41.23-368.59,40.41-18.94-.05-38.51-1.25-57.26-3.02-68.85-6.7-121.44-20.67-168.05-40.75,242,95.92,710.94-38.43,1008.75-105.21Z"/>
      </g>
    </g>
  </g>
  <g class="cls-12">
    <g class="cls-11">
      <path class="cls-13" d="M3594.77,186.89l-657.72,4.26-764.06,89.21-371.58-108.72c-206.04-13.08-437.46-42.58-571.35.26-433.84,85.66-785.1,160.15-1038.6,164.34l-340.16-65.54-148.76-614.21,3823.78,44.96,68.45,485.44Z"/>
      <g>
        <path class="cls-5" d="M3371.31,198.36c-101.54-1.94-203.34-1.07-304.65,2.1-128.41,4.15-256.58,11.87-383.41,24.65-192.01,18.34-385.38,47.79-582.17,54.42-124.37,4-258.66-4.81-363.77-46.42-34.68-13.19-65.02-30.32-94.61-46.88-94.27-52.75-184.23-85.74-320.58-81.22-23.39.67-49.17,2.97-72.48,4.53-130.93,10.86-258.42,34.62-384.89,58.26-96.15,18.02-200.67,40.16-297.24,59.18-204.7,38.04-431.31,53.43-641.43,21.66l-.08-48.79c110.63,13.44,227.35,5.16,344.12-12.7,186.28-28.52,361.35-76.15,547.29-106.34,138-22.97,281.09-39.67,426.63-38.03,21.92.17,44.57,1.5,66.27,3.39,164.25,14.72,248.66,59.8,356.87,126.09,137.22,90.68,332.58,90.81,525.21,71.34,191.24-19.88,379.51-55.59,569.34-79.91,200.91-24.79,404.68-43.57,609.44-53.41l.15,88.1Z"/>
        <path class="cls-3" d="M270.12,187.12c186.28-28.52,361.35-76.15,547.29-106.34,138-22.97,281.09-39.67,426.63-38.03,21.92.17,44.57,1.5,66.27,3.39,79.68,7.14,140.56,21.45,194.5,41.84-53.1-18.34-111.6-27.63-182.75-24.88-23.39.78-49.17,3.48-72.48,5.32-130.93,12.76-258.41,40.72-384.87,68.53-96.14,21.2-200.65,47.27-297.23,69.64-204.69,44.76-431.3,62.83-641.42,25.33l-.05-32.1c110.63,13.44,227.35,5.16,344.12-12.7Z"/>
        <path class="cls-2" d="M562.77,275.37c-288.11,64.6-526.84,63.96-636.55,58.71l-.11-62.23c125.81,17.86,313.25,29.83,531.15-6.88,162.2-27.33,333.36-66.2,520.36-98.16,121.04-20.69,242.84-41.23,368.59-40.41,18.94.05,38.51,1.25,57.26,3.02,68.85,6.7,121.44,20.67,168.05,40.75-242-95.92-710.94,38.43-1008.75,105.21Z"/>
      </g>
    </g>
  </g>
</svg>