<?xml version="1.0" encoding="UTF-8"?>
<svg id="Layer_1" xmlns="http://www.w3.org/2000/svg" version="1.1" viewBox="0 0 324.3 43">
  <!-- Generator: Adobe Illustrator 29.6.1, SVG Export Plug-In . SVG Version: 2.1.1 Build 9)  -->
  <defs>
    <style>
      .st0 {
        fill: #fff;
      }

      .st1 {
        fill: #84bed5;
      }

      .st2, .st3 {
        fill: #f48120;
      }

      .st3 {
        fill-rule: evenodd;
      }
    </style>
  </defs>
  <g>
    <path class="st2" d="M181.4,27.6c1,1.2,2.2,2.2,6.9,3.4,1,.3,2,.6,2,2s-.6,2.6-2.3,2.6-8.4-2.2-11.1-7c-1.3,2-3.2,3.5-5.1,4.6-1.7.9-4.4,2.3-6.1,2.3s-2.3-1.8-2.3-2.7.2-1,.5-1.3c.5-.4.7-.5,3.6-1.3.5-.1,3-1,4.7-2.6h-7.3c-1.6,0-2.2-.7-2.2-2.2s1.5-2,2.2-2h.9v-3.1c0-2.8,1.3-3.6,3.6-3.6h5.2c0-1.5.3-2.4,2.4-2.4s2,1.5,2,2.4h5.2c2.2,0,3.6.7,3.6,3.6v3.1h.9c1.6,0,2.2.7,2.2,2.2s-1.5,2-2.2,2h-7.2ZM180.7,9.7v-.7c0-1.5,1.4-1.6,2-1.6,1.1,0,2.4.1,2.4,1.6v.7h3.6c.7,0,2.2,0,2.2,2s-.5,2.2-2.2,2.2h-3.6v.6c0,1.4-1,1.7-2.1,1.7s-2.3-.4-2.3-1.7v-.6h-7.8v.6c0,1.4-1.2,1.7-2.1,1.7s-2.2-.2-2.2-1.7v-.6h-3.6c-.6,0-2.2,0-2.2-2s.5-2.2,2.2-2.2h3.6v-.7c0-1.5,1.4-1.6,2-1.6.9,0,2.3,0,2.3,1.6v.7h7.8ZM174.6,20.6h-3.6c-.5,0-.8.3-.8.8v2h4.3c0-.4.2-1,.2-1.8v-1ZM179,21.3c0,.6,0,1.4-.1,2.1h4.4v-2c0-.5-.3-.8-.8-.8h-3.5v.7Z"/>
    <path class="st2" d="M203.2,12.6c.5,0,1.8,0,1.8,1.7s-.4,1.9-1.8,1.9h-8.2c-.6,0-1.8,0-1.8-1.8s.9-1.8,1.8-1.8c0,0,8.2,0,8.2,0ZM202.4,8.4c.5,0,1.8,0,1.8,1.7s-1,1.7-1.8,1.7h-6.7c-.6,0-1.8,0-1.8-1.6s1-1.7,1.8-1.7h6.7ZM202.2,17.1c.5,0,1.8,0,1.8,1.7s-1,1.7-1.8,1.7h-6.4c-.5,0-1.8,0-1.8-1.7s1.1-1.7,1.8-1.7h6.4ZM202.2,21.5c.5,0,1.8,0,1.8,1.7s-1.3,1.7-2,1.7h-6.3c-.5,0-1.8,0-1.8-1.7s1.2-1.7,1.8-1.7h6.4ZM204,31.6c0,2.8-.5,3.4-3.3,3.4h-3.3c-2.8,0-3.3-.6-3.3-3.4v-2.4c0-2.9.5-3.4,3.3-3.4h3.2c2.8,0,3.4.5,3.4,3.4v2.4h0ZM200.4,29.6c0-.3-.2-.5-.5-.5h-1.2c-.4,0-.6.2-.6.5v1.6c0,.4.2.6.6.6h1.2c.4,0,.5-.2.5-.6v-1.6ZM215.8,13.4c2.9,0,3.5.7,3.5,3.5v2.1h.4c1.3,0,1.6.9,1.6,1.7,0,1.7-1.1,1.9-1.8,1.9h-13.6c-.5,0-1.9,0-1.9-1.7s.7-1.9,1.9-1.9h1.6c0,0,.3-1,.6-2.4h-1c-.4,0-1.8,0-1.8-1.6s1.4-1.7,1.8-1.7h1.7c.1-.6.1-.9.2-1.5h-2.5c-.5,0-1.9,0-1.9-1.8s1.4-1.8,1.9-1.8h12.4c.5,0,1.9,0,1.9,1.8s-1.4,1.8-1.9,1.8h-5.6c-.1.7-.1.7-.3,1.5h2.6,0ZM220,31.2c0,3.1-.6,3.8-3.7,3.8h-6.9c-3.1,0-3.8-.6-3.8-3.8v-3.3c0-3.1.6-3.7,3.8-3.7h6.9c3.1,0,3.7.6,3.7,3.7v3.3ZM215.8,28.6c0-.5-.4-.7-.7-.7h-4.5c-.3,0-.7.2-.7.7v2c0,.5.4.7.7.7h4.5c.2,0,.7-.2.7-.7v-2ZM212.5,16.7c-.1.6-.3,1.3-.6,2.4h3.1v-1.7c0-.6-.5-.7-.7-.7h-1.8Z"/>
    <path class="st2" d="M181.4,27.6c1,1.2,2.2,2.2,6.9,3.4,1,.3,2,.6,2,2s-.6,2.6-2.3,2.6-8.4-2.2-11.1-7c-1.3,2-3.2,3.5-5.1,4.6-1.7.9-4.4,2.3-6.1,2.3s-2.3-1.8-2.3-2.7.2-1,.5-1.3c.5-.4.7-.5,3.6-1.3.5-.1,3-1,4.7-2.6h-7.3c-1.6,0-2.2-.7-2.2-2.2s1.5-2,2.2-2h.9v-3.1c0-2.8,1.3-3.6,3.6-3.6h5.2c0-1.5.3-2.4,2.4-2.4s2,1.5,2,2.4h5.2c2.2,0,3.6.7,3.6,3.6v3.1h.9c1.6,0,2.2.7,2.2,2.2s-1.5,2-2.2,2h-7.2ZM180.7,9.7v-.7c0-1.5,1.4-1.6,2-1.6,1.1,0,2.4.1,2.4,1.6v.7h3.6c.7,0,2.2,0,2.2,2s-.5,2.2-2.2,2.2h-3.6v.6c0,1.4-1,1.7-2.1,1.7s-2.3-.4-2.3-1.7v-.6h-7.8v.6c0,1.4-1.2,1.7-2.1,1.7s-2.2-.2-2.2-1.7v-.6h-3.6c-.6,0-2.2,0-2.2-2s.5-2.2,2.2-2.2h3.6v-.7c0-1.5,1.4-1.6,2-1.6.9,0,2.3,0,2.3,1.6v.7h7.8ZM174.6,20.6h-3.6c-.5,0-.8.3-.8.8v2h4.3c0-.4.2-1,.2-1.8v-1ZM179,21.3c0,.6,0,1.4-.1,2.1h4.4v-2c0-.5-.3-.8-.8-.8h-3.5v.7Z"/>
    <path class="st2" d="M203.2,12.6c.5,0,1.8,0,1.8,1.7s-.4,1.9-1.8,1.9h-8.2c-.6,0-1.8,0-1.8-1.8s.9-1.8,1.8-1.8c0,0,8.2,0,8.2,0ZM202.4,8.4c.5,0,1.8,0,1.8,1.7s-1,1.7-1.8,1.7h-6.7c-.6,0-1.8,0-1.8-1.6s1-1.7,1.8-1.7h6.7ZM202.2,17.1c.5,0,1.8,0,1.8,1.7s-1,1.7-1.8,1.7h-6.4c-.5,0-1.8,0-1.8-1.7s1.1-1.7,1.8-1.7h6.4ZM202.2,21.5c.5,0,1.8,0,1.8,1.7s-1.3,1.7-2,1.7h-6.3c-.5,0-1.8,0-1.8-1.7s1.2-1.7,1.8-1.7h6.4ZM204,31.6c0,2.8-.5,3.4-3.3,3.4h-3.3c-2.8,0-3.3-.6-3.3-3.4v-2.4c0-2.9.5-3.4,3.3-3.4h3.2c2.8,0,3.4.5,3.4,3.4v2.4h0ZM200.4,29.6c0-.3-.2-.5-.5-.5h-1.2c-.4,0-.6.2-.6.5v1.6c0,.4.2.6.6.6h1.2c.4,0,.5-.2.5-.6v-1.6ZM215.8,13.4c2.9,0,3.5.7,3.5,3.5v2.1h.4c1.3,0,1.6.9,1.6,1.7,0,1.7-1.1,1.9-1.8,1.9h-13.6c-.5,0-1.9,0-1.9-1.7s.7-1.9,1.9-1.9h1.6c0,0,.3-1,.6-2.4h-1c-.4,0-1.8,0-1.8-1.6s1.4-1.7,1.8-1.7h1.7c.1-.6.1-.9.2-1.5h-2.5c-.5,0-1.9,0-1.9-1.8s1.4-1.8,1.9-1.8h12.4c.5,0,1.9,0,1.9,1.8s-1.4,1.8-1.9,1.8h-5.6c-.1.7-.1.7-.3,1.5h2.6,0ZM220,31.2c0,3.1-.6,3.8-3.7,3.8h-6.9c-3.1,0-3.8-.6-3.8-3.8v-3.3c0-3.1.6-3.7,3.8-3.7h6.9c3.1,0,3.7.6,3.7,3.7v3.3ZM215.8,28.6c0-.5-.4-.7-.7-.7h-4.5c-.3,0-.7.2-.7.7v2c0,.5.4.7.7.7h4.5c.2,0,.7-.2.7-.7v-2ZM212.5,16.7c-.1.6-.3,1.3-.6,2.4h3.1v-1.7c0-.6-.5-.7-.7-.7h-1.8Z"/>
    <path class="st2" d="M242.6,19.9c.8,0,1.6.3,1.6,1.6s-.5,1.6-1.6,1.6h-6.7v6.6c0,1.1-.5,1.6-1.5,1.6s-1.6-.2-1.6-1.6v-6.6h-6.7c-.8,0-1.6-.3-1.6-1.6s.5-1.6,1.6-1.6h6.7v-6.7c0-1.1.5-1.6,1.5-1.6s1.6.2,1.6,1.6v6.7h6.7Z"/>
    <path class="st2" d="M252.4,9.7c0-.1-.1-.3-.2-.5-.1-.3-.2-.5-.2-.7,0-.8,1.1-.9,1.4-.9s.8,0,1.2,1.2c0,.2.2.6.2.8h1.1c.2-.4.3-.6.5-1.1.2-.6.4-.9,1.1-.9s1.3.2,1.3,1,0,.4-.4,1c.8.1,1.3.4,1.3,1.7v.9c0,.9-.5,1.1-1.1,1.1s-.4,0-.5,0c0,.7-.4,1-.8,1.2-.8.5-1.2.7-1.7.9h3.5c.3,0,1.1,0,1.1,1s-.7,1.1-1.1,1.1h-4.4v1.6c0,1.7-.8,1.8-2.5,1.8s-1.4,0-1.7,0c-.6-.1-.7-.8-.7-1.1,0-1,.7-1.1,1.1-1.1s.8,0,.9,0c.4,0,.4-.2.4-.6v-.6h-4.4c-.3,0-1.1,0-1.1-1.1s.5-1.1,1.1-1.1h4.4c0-.2,0-.5.5-.6.2,0,.8-.3.8-.5s0-.1-.1-.1h-3.7c-.3,0-.9,0-1-.9,0,0-.2,0-.4,0-.8,0-1.2-.3-1.2-1.1v-1c0-1.2.5-1.7,1.5-1.7,0,0-.2-.3-.2-.4-.2-.4-.2-.5-.2-.7,0-.5.6-1,1.3-1s.8,0,1.2,1.1c.1.3.3.6.3.9h1.5ZM249.4,12.4c0,0,.2,0,.3,0h7c.2,0,.6,0,.8,0v-.5c0-.1,0-.2-.2-.2h-7.6c-.1,0-.2,0-.2.2v.5h0Z"/>
    <path class="st2" d="M278.4,8.4c.2,0,.9,0,.9.8s-.8.8-.9.8h-.9c0,.2-.1.4-.2.6h1.9c.2,0,.9,0,.9.8s-.6.8-.9.8h-11.5c-.2,0-.9,0-.9-.8s.7-.8.9-.8h2c0-.3,0-.4-.2-.6h-1c-.2,0-.9,0-.9-.8s.7-.8.9-.8h3.8c0-.4,0-.9,1.1-.9s1.3.2,1.3.9h3.8ZM274.5,17.3h4.1c.4,0,.7,0,.7.7s-.3.7-.7.7h-4.1v.3h4.7c.3,0,.9,0,.9.8s-.6.8-.9.8h-11.5c-.2,0-.9,0-.9-.8s.7-.8.9-.8h4.7v-.3h-4.1c-.2,0-.7,0-.7-.6s.2-.7.7-.7h4.1v-.3h-2.6c-1.6,0-1.8-.3-1.8-1.8v-.6c0-1.6.3-1.8,1.8-1.8h7.5c1.6,0,1.8.3,1.8,1.8v.6c0,1.6-.3,1.8-1.8,1.8h-2.6s0,.3,0,.3ZM272.3,14.3v-.4h-1.9c-.2,0-.2,0-.2.2v.2h2.1ZM272.3,15.3h-2.1v.2c0,.1,0,.2.2.2h1.9v-.5ZM271.9,10.1c0,.2,0,.3.2.6h2.7c0-.3,0-.3.2-.6h-3.1ZM274.5,14.3h2.2v-.2c0-.1,0-.2-.2-.2h-1.9v.4h0ZM274.5,15.3v.5h1.9c.2,0,.2,0,.2-.2v-.2h-2.2Z"/>
    <path class="st2" d="M290,20c0,.3,0,1.1-1.1,1.1s-1.1-.7-1.1-1.1v-4.9c-.8.1-1.4-.6-1.4-1.4s.2-.7.5-1.2c1-1.5,1.4-3.1,1.5-3.9,0-.5.2-1,1.1-1s1.2.1,1.2.9-.2,1.4-.7,2.8v8.5h0ZM291.4,15.9c-.2,0-1.1,0-1.1-1s.4-1.1,1.1-1.1h2.6v-.7h-1.3c-1.1,0-1.8-.4-1.8-1.7v-1.5c0-1.4.6-1.8,1.8-1.8h4.8c1.1,0,1.7.4,1.7,1.8v1.5c0,1.4-.6,1.7-1.7,1.7h-1.3v.7h2.6c.3,0,1.1,0,1.1,1s-.4,1.1-1.1,1.1h-1.5c.8,1.1,1.2,1.5,2.2,2.4.4.4.4.6.4.8,0,.6-.6,1.3-1.2,1.3s-.7-.2-1.2-.9c-.6-.7-1.1-1.4-1.3-1.8v2.2c0,.3,0,1.1-1,1.1s-1.1-.3-1.1-1.1v-2.1c-.3.4-.9,1.2-1.9,2.1-.4.3-.6.4-.8.4-.7,0-1.2-.7-1.2-1.3s.3-.7.7-1c.9-.6,1.4-1,2.3-2.2h-1.6ZM297,10.3c0-.2-.1-.3-.3-.3h-3c-.2,0-.3.1-.3.3v.5c0,.2.1.3.3.3h3c.2,0,.3-.1.3-.3v-.5Z"/>
    <path class="st2" d="M316.8,13.3c.5,0,.8,0,1,.2-.2-.1-.2-.2-.9-.7-.5,0-1.2.1-3.1.2-.9,0-5.6.2-5.8.2-.8,0-1.1-.3-1.1-1s.3-.9,1-.9c.2,0,1.3,0,1.5,0,0,0,.3-.4.5-.8h-2.4c-.7,0-1-.3-1-1s.7-.9,1-.9h4.5c0-.7.4-.9,1.3-.9s1.2.3,1.2.9h4.6c.7,0,1,.3,1,1s-.7.9-1,.9h-1.6c2,1.3,2.2,1.7,2.2,2,0,.6-.5,1.2-1.2,1.2s-.4,0-.5-.1c.5.3.6.8.6,1.5v4.3c0,.5,0,1.1-.6,1.5-.2.2-.4.3-2.2.3s-2.1,0-2.1-1.1.8-1,1-1,1.1,0,1.2,0c.2,0,.4,0,.4-.3v-.3h-5.9v1.4c0,.7-.3,1.1-1.2,1.1s-1.1-.9-1.1-1.1v-4.9c0-1.4.6-1.8,1.8-1.8h7.1ZM310.3,15.4h5.9v-.2c0-.1,0-.2-.2-.2h-5.5c-.1,0-.2,0-.2.2v.2h0ZM316.2,16.7h-5.9v.4h5.9v-.4ZM312.5,10.4c0,.1-.5.7-.6.8,0,0,1.6,0,3,0,0,0,0-.2,0-.3s0-.3,0-.4h-2.4Z"/>
    <path class="st2" d="M247.8,34.3c-.8,0-1.1-.7-1.1-1.2s.4-.9.9-1c.5-.9.7-1.1,1.5-2.4-.5-.6-.7-.8-1.4-1.5-.7-.7-.9-1-.9-1.4,0-.7.5-1.2,1-1.2s.2,0,.3,0c.4-.8.7-1.5.9-2.2.4-.9.6-1.3,1.2-1.3s1.3.5,1.3,1.1-1.3,2.9-1.8,3.8c.1.1.2.2.5.6.2-.5.6-1.2.9-1.7.1-.2.3-.6.9-.6s.4,0,.6.1c.1-.6.4-.9,1.2-.9h.5v-1.5c0-.4,0-1.1,1-1.1s1.2.3,1.2,1.1v1.5h1.2c1.2,0,2.2,0,2.2,1.8s0,4.3-.3,6.4c-.3,2.4-.8,2.6-2.9,2.6s-.6,0-1,0c-.5-.1-.8-.6-.8-1.2s.4-1.2,1-1.2.7,0,.8,0c.4,0,.6,0,.7-1.4,0-.9.1-3.4.1-4.4s0-.3-.4-.3h-.7c0,4.5-1.6,6.5-2.1,7.3-.8,1-1.1,1.1-1.5,1.1-.6,0-1.3-.4-1.3-1.1s.1-.4.4-.9c-1.8.4-3.8.8-4.1.8M250.1,31.7c.5,0,1-.2,1.4-.2,0-.4-.3-1.1-.3-1.3s0-.2,0-.2c-.6.9-.7,1-1.1,1.7M253.6,27c-.1,0-.4,0-.7-.1-.1.3-.6,1.2-1.4,2.6.3-.3.7-.3.8-.3.7,0,.8.4,1.2,1.8.5-1.3.6-2.6.7-4h-.5Z"/>
    <path class="st2" d="M262.8,33.1c1-.3,1.9-.6,2.3-2.1.3-1.1.4-1.1.5-1.2.2-.2.6-.2.7-.2.3,0,.6,0,1,.3.2.1.3.3.3.6,0,.4-.3,2-1.3,3.2-1,1.3-2.5,1.8-3.3,1.8-1.1,0-1.2-1.1-1.2-1.3,0-.6.2-.9.9-1.1M264.9,28.8c0,.3,0,1.1-1.1,1.1s-1.3-.4-1.3-1.1v-5.5c0-.3,0-1.1,1.1-1.1s1.3.4,1.3,1.1v5.5ZM274.6,27.7c0,1.4-.6,1.8-1.8,1.8h-5c-1.1,0-1.8-.4-1.8-1.8v-3.4c0-1.4.6-1.7,1.8-1.7h5c1.1,0,1.8.4,1.8,1.7v3.4ZM268.3,25.1h3.9v-.4c0-.1,0-.2-.2-.2h-3.5c-.1,0-.2,0-.2.2v.4h0ZM268.3,26.8v.5c0,.1,0,.2.2.2h3.5c.1,0,.2,0,.2-.2v-.5h-3.9,0ZM271.3,32.8c0,.3.2.3.4.3h.7c.4,0,.4-.2.5-1.1,0-.5,0-1.1,1-1.1s1.2.8,1.2,1.3,0,1.8-.4,2.4c-.4.7-.7.7-3.1.7s-2.7,0-2.7-1.8v-3c0-.3,0-1.1,1.1-1.1s1.2.4,1.2,1.1v2.1h0Z"/>
    <path class="st2" d="M287.7,24.3c1.4,0,1.5.9,1.5,1.4s-.5,4.6-3.7,7c-2,1.6-5.2,2.3-5.8,2.3s-1.2-.7-1.2-1.3.4-.9,1.3-1.1c2.1-.5,4.6-1.2,6-4.1.4-.8.6-1.6.6-1.8s-.1-.2-.4-.2h-3.7c-.9,1.1-1.8,1.9-2.2,2.3-.3.3-.7.4-1,.4-.7,0-1.2-.7-1.2-1.2s0-.5,1.1-1.3c.2-.1,1.4-1.1,2.5-3.2.3-.7.5-1.1,1.3-1.1s1.4.3,1.4.9,0,.4-.3.9h3.9Z"/>
    <path class="st2" d="M293.9,28.9c-.2,0-1.1,0-1.1-1.1s.6-1.1,1.1-1.1h9.3c.7,0,1.4.2,1.4,1.3s-.5,4.1-3.8,5.9c-2.1,1.1-4.4,1.3-4.7,1.3s-.7,0-1-.4c-.2-.3-.3-.6-.3-.9,0-.9.6-1,1-1,2.2-.3,4.3-.6,5.5-2.6.3-.4.5-.9.5-1.1s0-.2-.3-.2h-7.6,0ZM302.7,23.1c.3,0,1.1,0,1.1,1.1s-.8,1.2-1.1,1.2h-7.7c-.3,0-1.1,0-1.1-1.1s.8-1.2,1.1-1.2h7.7Z"/>
    <path class="st2" d="M309.5,25.4c-.5,0-1.2-.2-1.2-1.2s.4-1.2,1.2-1.2h6.7c.6,0,1.7,0,1.7,1.4s-.9,3.1-2.1,4.8c1.3.9,2.2,1.7,3.3,2.6.5.5.8.8.8,1.3,0,.8-.7,1.4-1.4,1.4s-.8-.3-1.2-.7c-.8-.9-2-2.1-3-2.9-1.6,1.7-4.3,3.7-5.3,3.7s-1.2-.7-1.2-1.4.3-.7,1.1-1.2c4.6-2.6,6-6.5,6-6.6s-.2-.2-.3-.2h-5.1Z"/>
  </g>
  <path class="st3" d="M67.2,6.8c0,.1,0,.5,0,.7,0,0,.1.3.1.4,0,.2.3.5.4.6,0,0,.2.2.3.2h0s0,0,0,0c0,0,.1,0,.2,0,0,0,.1,0,.2,0,.2,0,.3,0,.5,0,0,0,0,0,0,0,0,0,.2,0,.2,0,0,0,0,0,.1-.2.1-.3,0-.3-.1-.4,0,0,0-.2,0-.2,0-.1-.2-.2-.3-.3,0,0,0,0-.2-.1,0,0,0,0,0,0,0,0,0,0,0,0-.1-.1-.5-.5-.7-.5,0,0-.2,0-.2,0,0,0,0-.1-.2-.1-.1,0-.2,0-.2,0"/>
  <path class="st3" d="M67.3,6.1s0,0,0,.1c0,0,0,0,0,0,0,0,.2.3.5.1.2-.1,0,0,.2-.2.2-.1.3-.1.4-.3.3-.3.2-.4.4-.6,0,0,0-.2.1-.2,0,0,0,0,.1,0,0,0,0,0,0,0,.2-.2.2-.3.4-.2,0,0,.3.2.5,0,0,0,0-.1,0-.3h0c-.2-.2-.8-.2-1-.1-.5.1-1,.4-1.3.7,0,0,0,0,0,0-.2.2-.3.3-.4.6,0,0,0,.1,0,.2"/>
  <path class="st3" d="M70.3,9.6c-.5,0-.6,0-1.1-.2-.2,0-.5-.2-.7-.3,0,0-.2-.1-.2-.1,0,0,0,0,0,0h0s0,0,0,0c.3,0,.3,0,.6,0h0c-.2,0-.3,0-.5,0,0,0-.1,0-.2,0,0,0-.1,0-.2,0,0,0,0,0,0,0,0,0,0,0,0,0,0,0,0,0,0,0,0,0,0,0,0,0-.2-.1-.3-.2-.5-.4,0,0-.1-.1-.2-.2,0,0-.1-.3-.1-.3,0,.3.3.7.4.9.2.3.3.5.6.7.2.1.7.3,1,.3.4,0,.8,0,1.1-.1"/>
  <path class="st3" d="M67.2,6.2s.2-.3.2-.4c.4-.7.9-1.1,1.7-1.4.5-.1.6,0,1.1,0,0-.1-.3-.2-.4-.2-.7-.1-1.4.3-1.9.7,0,0-.2.2-.3.4-.1.2-.3.6-.4.9"/>
  <path class="st3" d="M71.3,5h0s0,0,0,0c0,0,0,0,0,0,0,0,0,0,0,0,0,0,0,0,0,0"/>
  <path class="st3" d="M70.6,4.8c0,0-.1.1-.2.2-.1.2,0,.2-.2.3,0,0,0,0,0,0-.2.2,0,0-.2.1-.3.1-.5.4-.5.4,0,0,0,0-.1,0,0,0,0,0,0,.1,0,0,0,0,0,0,0,.1,0,.5,0,.6,0,0,0,.2.1.2,0,.1,0,.1.2.2.3.2.3,0,.4-.2,0,0,0,0,.1,0,.1,0,.2-.3.2-.3,0,0,.1.1.3.1,0,0,0,.2-.1.5,0,.2,0,.4,0,.6-.2,0-.3,0-.5.2,0,0-.1.1-.2.2,0,0,0,.2-.1.3-.1.5.3.8.8.5,0,0,.3-.2.3-.2.2-.1.1-.2.3-.2.1,0,.1-.1.3-.1.3,0,.4-.1.5-.3,0,0,.1-.1.1-.2,0,0,0-.2.1-.3.1-.2.1-.6.1-.8,0-.5-.2-1-.5-1.4,0-.1-.3-.5-.4-.5,0,0,0,0,0,0,0,0,0,0,0,0h-.2c0-.1-.1-.2-.2-.2,0,0,0,0-.1,0s0,0-.1,0"/>
  <path class="st2" d="M106.3,10.7h0c1.3,0,2.4,1.1,2.4,2.4v11.4c0,1.5.2,2.7.5,3.4.6,1.3,1.8,1.9,3.7,1.9s3.1-.6,3.7-1.9c.4-.7.5-1.8.5-3.4v-11.4c0-1.3,1.1-2.4,2.4-2.4s2.4,1.1,2.4,2.4v11.4c0,2.4-.4,4.2-1.1,5.6-1.4,2.4-4,3.6-7.9,3.6s-6.5-1.2-7.9-3.6c-.7-1.3-1.1-3.2-1.1-5.6v-11.4c0-1.3,1.1-2.4,2.4-2.4"/>
  <path class="st2" d="M140.8,23.5c-1.3,1.1-3.2,1.7-5.7,1.7h-2.4c-1.3,0-2.4,1.1-2.4,2.4v3.4c0,1.3-1.1,2.4-2.4,2.4s-2.4-1.1-2.4-2.4V13c0-1.3,1.1-2.4,2.4-2.4h7.4c2.3,0,4.1.6,5.4,1.8,1.3,1.2,2,3,2,5.4s-.7,4.6-2,5.7M137.1,15.4c-.6-.5-1.4-.8-2.5-.8h-1.9c-1.3,0-2.4,1.1-2.4,2.4v2c0,1.3,1.1,2.4,2.4,2.4h1.9c1.1,0,1.9-.3,2.5-.8.6-.5.9-1.4.9-2.6s-.3-2-.9-2.5"/>
  <path class="st2" d="M60.6,14.2c-2.5,3.5-4.4,6.3-5.6,8.5l-.6,1.2h0c0,0,0,.4,0,.4,0,0,.2,0,.3,0,.2,0,.5,0,.9,0,.3,0,.6,0,.7,0,.8.1,1.5.3,2.3.5.8.2,1.4.4,1.8.5.5.1,1.1.4,2,.7.9.3,1.5.6,1.9.7.2,0,.3.2.4.4s0,.4,0,.6-.2.3-.4.4c-.2,0-.4.1-.6,0l-2-.7-2-.7c-.4-.2-1-.3-1.8-.5-.7-.2-1.5-.3-2.2-.5,0,0-.2,0-.5,0-.4,0-.7,0-.9,0h0c.1,2.8.2,4.8.3,6.1,0,.2,0,.4-.2.5-.1.2-.3.2-.5.2s-.4,0-.5-.2-.2-.3-.2-.5c0-1.2-.1-3.4-.3-6.6-.1,0-.2-.2-.3-.3-.1-.1-.2-.3-.2-.5,0,0,0-.1,0-.2,0,0,0,0,0-.1,0,0,0-.2.1-.3l.2-.4c0-1.3-.1-2.5-.2-3.5,0-.7,0-2.4,0-5.1,0-2.1,0-3.8-.2-4.9,0-.2,0-.4.2-.6.1-.2.3-.3.5-.3.2,0,.4,0,.6.2.2.1.3.3.3.5.2,1.2.2,2.9.2,5.1,0,2.6,0,4.3,0,5v.9c1.2-2,2.9-4.6,5.2-7.7.1-.2.3-.3.5-.3.2,0,.4,0,.6.1s.3.3.3.5,0,.4-.1.6"/>
  <path class="st2" d="M70.5,12c.5,5.2.7,12.1.7,20.7s0,.4-.2.5c-.1.1-.3.2-.5.2s-.4,0-.5-.2c-.2-.1-.2-.3-.2-.5,0-8.6-.2-15.5-.7-20.6,0-.2,0-.4.2-.5.1-.2.3-.2.5-.3s.4,0,.6.2c.2.1.2.3.3.5"/>
  <path class="st2" d="M84.1,9.2c0,.7,0,1.4.1,2.1s0,1.6,0,2.6c0,1,0,1.7,0,2,0,1.8,0,6.9-.2,10.6-.1,3.7-.2,4.2-.2,6s0,.4-.2.5-.3.2-.5.2-.4,0-.5-.2c-.2-.1-.2-.3-.2-.5,0-1.2,0-.3,0-1.8-1.3.5-2.6.6-4.1.1-1-.3-1.8-.7-2.5-1.3-.7-.6-1.1-1.3-1.3-2-.2-.7-.3-1.5-.2-2.2,0-.8.3-1.4.7-2.1.4-.7.9-1.2,1.5-1.6.6-.4,1.3-.6,2.1-.7,1.4,0,2.7.6,4.1,1.8,0-1.7,0-5.5,0-6.8s0-1.1,0-2c0-1,0-1.8,0-2.5,0-.7,0-1.3-.1-1.9,0-.2,0-.4.2-.6.1-.2.3-.2.5-.3.2,0,.4,0,.6.2.2.1.2.3.3.5M82.6,24.7c-1.4-1.6-2.7-2.3-3.9-2.3-1,0-1.8.5-2.3,1.5-.3.5-.4,1-.5,1.5,0,.5,0,1.1.2,1.6.2.5.5,1,1,1.4.5.4,1.1.8,1.8,1,1.4.4,2.6.3,3.7-.4,0,0,0,0,0,0,0-.5,0-1.3,0-2.3,0-1,0-1.6,0-2,0,0,0,0,0,0Z"/>
  <path class="st2" d="M94.8,15.3c-.3-1-.8-1.8-1.5-2.3-.7-.5-1.3-.7-2-.7-.7,0-1.3.4-1.9.9s-.9,1.4-1.1,2.5c-.2,1.3-.2,2.4.1,3.1.2.5.5,1,.8,1.5.3.5.8,1.2,1.4,2,.6.8,1,1.4,1.2,1.7.8,1.1,1.4,2.2,1.8,3.2.4,1,.5,2.1.4,3.1-.2,1.2-.8,2-1.9,2.6-.8.4-1.5.6-2.2.4-.6-.2-1.1-.5-1.6-1.1-.6-.8-1.1-2-1.3-3.5,0-.2,0-.4.2-.6s.3-.3.5-.3c.2,0,.4,0,.6.1.2.1.3.3.3.5.2,1.2.5,2.2,1,2.8.2.3.5.5.7.6.3,0,.7,0,1.1-.2.6-.4,1-.9,1.1-1.5.1-.8,0-1.6-.3-2.5-.3-.8-.8-1.8-1.5-2.8-.2-.3-.6-.8-1.2-1.6-.6-.8-1.1-1.5-1.5-2.1-.4-.6-.7-1.2-.9-1.7-.4-1-.5-2.3-.2-3.9.2-1.4.7-2.5,1.5-3.3.8-.8,1.7-1.3,2.8-1.4,1.1,0,2.1.2,3,.9s1.6,1.7,2.1,3c0,.2,0,.4,0,.6,0,.2-.2.3-.4.4-.2,0-.4,0-.6,0-.2,0-.3-.2-.4-.4"/>
  <path class="st0" d="M0,21.5C0,33.4,9.9,43,22.1,43s22.1-9.6,22.1-21.5S34.3,0,22.1,0,0,9.6,0,21.5"/>
  <path class="st2" d="M22.1,41.6c11.5,0,20.8-9,20.8-20.1S33.6,1.3,22.1,1.3"/>
  <path class="st1" d="M22.1,1.3C10.7,1.3,1.4,10.4,1.4,21.5s9.3,20.1,20.8,20.1"/>
  <path class="st0" d="M22.1,3.2s0,0,0,0c0,0,0,0,0,0C11.9,2.6,2.9,11.1,2.9,21.3c0,10.3,8.9,19.1,19.2,18.4h0,0,0s0,0,0,0c0,0,0,0,0,0h0,0,0c10.2.6,19.2-8.2,19.2-18.4,0-10.3-8.9-18.8-19.2-18.1M39.9,21.3c-2.2-.2-4.4-.3-6.6-.4,0-3.3-.8-6.5-2.3-9.4,1.4-.7,2.7-1.5,3.9-2.5,3.5,3.5,5.1,8,5.1,12.4M22.1,3.2h0c3.3,1.8,5.7,4.6,7.4,7.7-2.2.6-4.5,1-6.9,1-.1-2.9-.3-5.9-.5-8.8M21.4,20.7c-3,0-6.1,0-9.1.2,0-3.1.7-6.1,2-8.9,2.3.9,4.8,1.4,7.3,1.4,0,2.4,0,4.9-.1,7.3M21.4,22c0,1.9,0,3.7,0,5.6-2.7,0-5.4.6-7.8,1.6-.9-2.4-1.3-4.9-1.4-7.4,3.1.1,6.1.2,9.1.2M22.8,22c3,0,6.1,0,9.1-.2,0,2.6-.5,5.1-1.4,7.5-2.4-1-5.1-1.6-7.8-1.7,0-1.9,0-3.7,0-5.6M22.8,20.7c0-2.4,0-4.9-.1-7.3,2.5,0,5-.6,7.3-1.5,1.3,2.8,1.9,5.8,2,8.9-3.1-.1-6.1-.2-9.1-.2M29,4.9c2.3,1.1,4.2,2.4,5.7,3.9-1.3.7-2.7,1.3-4.2,1.8,0,0,0-.1-.1-.2-1.9-3.2-4.8-6-8.3-7.2,2.4.2,4.7.7,6.9,1.7M22.1,3.2s0,0,0,0h0c-.3,2.9-.4,5.8-.5,8.8-2.3,0-4.7-.4-6.9-1,1.6-3.2,4.1-6,7.4-7.8h0,0s0,0,0,0M22.1,3.2c-3.5,1.2-6.4,4-8.3,7.2,0,0,0,.2-.1.3-1.5-.5-2.9-1.1-4.2-1.8,3-3.1,7.3-5.3,12.7-5.7M9.3,9c1.2,1,2.5,1.8,3.9,2.5-1.5,2.9-2.2,6.1-2.3,9.4-2.2.1-4.4.2-6.6.4,0-4.5,1.8-8.9,5-12.3M15.2,37.8c-7.5-3.6-11-10-10.9-16.4,2.2.2,4.4.3,6.6.4,0,2.7.6,5.5,1.7,8-1.4.7-2.7,1.6-3.8,2.7,1.3-.8,2.7-1.4,4.2-1.9.3.6.5,1.1.9,1.7,1.9,3.2,4.8,6.3,8.3,7.6-2.4-.2-4.7-1-6.8-2M22.1,39.7c-3.3-1.8-5.7-4.9-7.4-8.1-.3-.5-.5-1-.7-1.5,2.4-.7,5-1.1,7.5-1.2,0,3.5.3,7.3.6,10.8,0,0,0,0,0,0M22.1,39.8c.3-3.4.5-7.2.6-10.8,2.5,0,5.1.5,7.5,1.2-.2.5-.4,1-.7,1.4-1.6,3.2-4.1,6.3-7.4,8.1,0,0,0,0,0,0M22.2,39.7c3.5-1.3,6.4-4.3,8.3-7.6.3-.5.6-1,.8-1.6,1.5.5,2.9,1.2,4.2,2-1.1-1.1-2.4-2-3.9-2.8,1.1-2.5,1.6-5.3,1.7-8.1,2.2-.1,4.4-.2,6.6-.4,0,8.7-6.6,17.6-17.7,18.4"/>
  <path class="st0" d="M33.6,22s.8,1.1,1.9,1.1c1.1,0,2-1.3,2.2-1.8,0,0,.2-.2.3-.2.3,0,.5,0,.7-.3.7-.6.6-1.7-.2-2-.6-.2-.7.5-1.2,1-.3.3-.3.6-.2.7,0,.1,0,.2,0,.3-.2.3-.6.7-1.3.8-.8,0-1.1-.4-1.2-.6,0,0,0-.1,0-.2-.1-2.3-1.9-2.7-1.9-3,0-.2.2-.2.2-.2,4.3-.5,3.5-3.5,3.5-3.5-.3-1-.1-1.8-.1-1.9,0,0,0,0,0,0,1-4.1-4.4-4.5-5.8-3.6-.2,0-.4,0-.5,0-.1-.1-.3-.2-.5-.2s-.3,0-.4,0c-.1,0-.3,0-.4,0-.5-.3-1.5-.7-2.7.7-1.6,1.9-1.1,3.9.1,5.5.3.4.4.7.4,1,0,0,0,0,0,0,0,0,0,.1,0,.2,0,.1-.2.2-.3.2h0s0,0,0,0c0,0,0,0,0,0,0,0,0,0,0,0,0,0-.1,0-.1-.1,0,0,0,0,0,0,0,0,0,0,0,0,0-.1,0-.4.1-.7,0,0-.4.2-.6.6-.2.4.2.9.2.9-.9-.1-.3-1-.3-1,0,0-.3.1-.4.3-.7.6-.3,1.4.2,1.6.6.2,1,.1,1.1,0,0,0,.2,0,.2,0,1.4.4,1.7-.9,1.7-1.3h0s0,0,0,0c0,0,0,0,0,0,.2.5.4,1.4,1.8,1.4,0,0,0,0,0,0,0,0,0,0,0,0,.1,0,.2,0,.2.2s0,.2-.1.2h0s-1.4-.2-3,.4c-.5.2-1.9.9-2.7,1.8-.5.6-.8,1.3-.9,1.4,0,0,0,0,0,0-.7.1-1.1.9-1.2,1.1,0,0,0,0,0,0-.2,0-.4,0-.5.2-.2.2-.4.2-.6,0-.5-.5-1.6-.6-2.2-1.5-.8-1.3-1-3-2.1-3.4-.6-.2-.7,0-.7-.2,0-.2.8-.3.9-.3,0,0,0,0,0,0h.8c3.4-.9,2.5-3.8,2.5-3.8,0,0-.4-2.6,0-2.7.3,0,1.1-.6,1.2-1.3.1-.7-.5-.5-.5-.5,0,0-1.5.6-1.5-.4,0-1-1.3-.4-1.1-.7.2-.3,0-.5,0-.5,0,0-.1-.2-.4,0-.2.1-.8.5-.8.5,0,0-.1,0-.1,0,0-.1,0-.4,0-.8,0-.7-1.3.3-1.8.7,0,0-.1,0-.1,0,0-.7-1.5.1-1.5.1-3.4,1.4-3.2,5.4-3.1,6.8,0,1.3.8,2,1.1,2,.3,0,.3-.4.3-.4.3.7,2.1.9,2.3,1.3.2.4-.5.1-2.2.2-1.2,0-3,.7-3.9,1.8-.3.3-.3.5-.5.8-.2.2-.7.3-.9.3s-.4,0-.6,0c-1.8.7-.9,2-.9,2,0,0,.4.7,1.2.6.6-.1.2-.5.9-.9.1,0,.6,0,1-.3,0,0,1.6-1.3,2.9-1.2.4,0,.7.4.6.7,0,.7-.6,1.7-.9,2-.9,1.1-.4,2.3-.4,2.5,0,0,0,0,0,0,0,.2-.8,1.7-2.1,2-1.3.4-2.4-1.5-2.4-1.5,0,0,.5-1.1-.8-1.3-1.7-.3-1.9,4-1.9,4.1,0,.4.4.8.6.8.7,0,.9-1.7,1.1-1.8.1-.2.3-.2.4,0,1,1.4,2.9,1.8,2.9,1.8,0,0,0,0,0,0,3.1.6,4.4-2.7,4.6-3.2,0,0,0,0,.1,0,3,.9,3.3,4.4,3.2,6.1-.1,1.7.9,1.3,2.5.8s1.8-.6,1.4-1.3c-.3-.6-1.2-.3-1.6-.2,0,0-.1,0-.1,0,.4-3.5-1-5.2-2.1-6.9-.5-.7.1-2.6.2-2.7,0,0,.1,0,.1,0,.3.9,1.7,2,3.1,2.4.9.3,1.7,0,2,0,.2,0,.3,0,.4,0,.5.4,1.5,0,1.9-.5,0,0,.3-.2,0-1.2-.3-.6.4-1.1.4-1.1,2.8-2.8,3.7-1.6,3.7-1.6t0,0c.5,4.9-3.4,6-4.2,6.1,0,0,0,0,0,.1,1.2,1.2,1.5,2.2.4,2.6-.4.1-.8,0-1.1-.6-.2-.5-.3-1.2-.6-1.4-.4-.3-1,.4-1.5,1.1-1.1,1.6-.8,2.9-.1,3,.6.1.8-.5,1-1.3.1-.6.1-.3.8.5.7.9,1.9,1.1,2.3.3.8-1.6,2.2-1.2,2.3-1.1,0,0,0,0,0,0,2.5,1.4,4.7.9,5.5.6.3-.1.6,0,.7.2.3.4.5,1.1.5,1.5,0,.2,0,.5,0,.7,0,.2-.1.4,0,.6.2,1.5,2.7.7,3.8-.1.7-.5.4-1.1.2-1.3-.6-.6-1.6,0-2,0s-.3-.2-.3-.2c.3-2.3-.6-3.1-.9-3.4-.3-.3,0-.4,0-.4,0,0,.3,0,.6-.4s0-.4,0-.4c0,0-.9-.4-2.2-1.6-1.3-1.3-.3-2.8,0-3.3.2-.6.4-.3.4-.3"/>
</svg>