<?xml version="1.0" encoding="UTF-8"?>
<svg id="Layer_1" data-name="Layer 1" xmlns="http://www.w3.org/2000/svg" viewBox="0 0 70.76 48.02">
  <defs>
    <style>
      .cls-1 {
        fill: #f7f0e5;
      }
    </style>
  </defs>
  <circle class="cls-1" cx="4.22" cy="43.8" r="4.22"/>
  <path class="cls-1" d="M69.02,23.66c-3.9.65-7.03,2.58-9.61,5.58-2.2,2.56-3.49,5.56-4.63,8.66-.34.94-.56,1.97-1.74,2.06-1.06,0-1.21-.72-1.28-1.43-.77-7.72-4.66-13.44-11.25-17.37-1.9-1.13-1.47-1.8.19-2.45,3.1-1.23,5.9-2.85,8.01-5.54,2.62-3.34,4.63-6.94,5.63-11.1C54.57,1.14,54.97.01,56.22,0c1.54-.02,1.18,1.33,1.34,2.22,1.45,7.95,3.45,15.52,12.09,18.87.61.24,1.28.79,1.07,1.61-.21.8-1,.85-1.7.97Z"/>
</svg>