<?xml version="1.0" encoding="UTF-8"?>
<svg id="Layer_1" data-name="Layer 1" xmlns="http://www.w3.org/2000/svg" viewBox="0 0 69.42 72.13">
  <defs>
    <style>
      .cls-1 {
        fill: #f7f0e5;
      }
    </style>
  </defs>
  <path class="cls-1" d="M64.35,12.72c3.17.39,5.42,3.27,5.03,6.44-.39,3.17-3.27,5.42-6.44,5.03-3.17-.39-5.42-3.27-5.03-6.44.39-3.17,3.27-5.42,6.44-5.03Z"/>
  <path class="cls-1" d="M27.2,2.12c-.24-.58-.37-1.27-.72-1.79-.64-.93-1.17.32-1.32.93-.6,2.01-1.46,3.88-3.35,4.96-.58.35-2.01.98-.98,1.65.27.19.65.35.96.51,1.49.72,2.59,2.11,3.21,3.63.29.58.45,1.63,1.14,1.82h.02c.49-.07.7-.86.88-1.3.56-1.64,1.57-2.97,3-3.97.37-.27.79-.5,1.11-.83.1-.1.24-.32.21-.47-.1-.61-.98-.95-1.44-1.34-1.29-.95-2.15-2.37-2.73-3.82Z"/>
  <path class="cls-1" d="M1.22,60.55c2.75.48,4.95,1.85,6.75,3.98,1.54,1.82,2.43,3.94,3.22,6.13.24.66.39,1.39,1.22,1.46.75,0,.86-.5.91-1,.58-5.44,3.36-9.46,8.02-12.19,1.35-.79,1.05-1.26-.12-1.73-2.18-.88-4.15-2.04-5.62-3.95-1.83-2.37-3.23-4.92-3.92-7.86-.15-.65-.43-1.45-1.31-1.47-1.09-.02-.84.93-.96,1.56-1.06,5.6-2.51,10.93-8.63,13.25-.43.16-.91.55-.76,1.13.14.57.7.61,1.19.69Z"/>
</svg>