<?xml version="1.0" encoding="UTF-8"?>
<svg id="Layer_1" data-name="Layer 1" xmlns="http://www.w3.org/2000/svg" xmlns:xlink="http://www.w3.org/1999/xlink" viewBox="0 0 2060.01 304.11">
  <defs>
    <style>
      .cls-1, .cls-2 {
        fill: none;
      }

      .cls-3 {
        fill: #f79531;
      }

      .cls-4 {
        fill: #e6e4d0;
      }

      .cls-2 {
        stroke: #fff;
        stroke-miterlimit: 10;
        stroke-width: 6.3px;
      }

      .cls-5 {
        fill: #94181b;
      }

      .cls-6 {
        fill: #fff;
      }

      .cls-7 {
        fill: #fcb42a;
      }

      .cls-8 {
        fill: #fff58a;
      }

      .cls-9 {
        fill: #91c5ea;
      }

      .cls-10 {
        fill: #f05c22;
      }

      .cls-11 {
        clip-path: url(#clippath);
      }
    </style>
    <clipPath id="clippath">
      <rect class="cls-1" x="0" y="0" width="2060.01" height="304.46"/>
    </clipPath>
  </defs>
  <g class="cls-11">
    <path class="cls-9" d="M0,133.54l.97,4.92c103.88,79.62,245.87,139.43,352.08,157.68,232.44,37.87,470.4-65.31,666.25-179.31,76.77-45.06,125.46-90.22,218.43-100.7,103.78-14.94,214.03,9.07,307.43,57.67,54.53,27.27,104.97,60.66,158.95,88.78,111.33,59.71,200.63,68.39,355.9,51.31v-1425.11s-426.92,0-426.92,0v6.24H-.01s0,1338.52,0,1338.52H0Z"/>
    <g>
      <g>
        <path class="cls-6" d="M1284.13,188.37c.79,2.83,2.23,5.29,4.3,7.37,3.27,3,7.29,4.89,11.82,4.89,2.3.09,4.45-.39,6.44-1.44,2.07-.67,3.86-1.83,5.38-3.45,1.63-1.51,2.78-3.31,3.46-5.38,1.05-1.99,1.53-4.14,1.44-6.44-.2-1.48-.4-2.96-.6-4.44-.79-2.83-2.23-5.29-4.3-7.37-3.27-3-7.29-4.89-11.82-4.89-2.3-.09-4.45.39-6.44,1.44-2.07.67-3.86,1.83-5.38,3.45-1.63,1.51-2.78,3.31-3.46,5.38-1.05,1.99-1.53,4.14-1.44,6.44.2,1.48.4,2.96.6,4.44Z"/>
        <path class="cls-6" d="M1163.69,215.16c6.21,5.7,13.85,9.3,22.45,9.3,8.14,0,16.69-3.54,22.45-9.3,5.51-5.51,9.65-14.54,9.3-22.45-.37-8.21-3.07-16.73-9.3-22.45-6.21-5.7-13.85-9.3-22.45-9.3-8.14,0-16.69,3.54-22.45,9.3-5.51,5.51-9.65,14.54-9.3,22.45.37,8.21,3.07,16.73,9.3,22.45Z"/>
        <path class="cls-6" d="M1778.11,124.27c-1.72-4.55-2.4-9.3-1.97-14.01.76-8.31,7.23-17.72,15.73-22.88,6.54-3.97,13.36-4.84,19.2-2.45,3.56,1.46,5.45,4.52,7.13,7.22,1.31,2.11,2.54,4.1,4.4,5.25,2.99,1.84,5.38-.46,8.69-4.19.64-.72,1.24-1.4,1.85-2,.43-.43.86-.86,1.29-1.3,4.11-4.12,8.36-8.39,13.25-10.92,5.72-2.96,11.48-3.1,17.61-.43,10.86,4.74,14.72,17.88,12.84,27.83h0c-1.71,9.08-7.44,17.91-17.02,26.25-7.29,6.34-15.57,11.3-23.94,14.32-9.4,3.4-18.62,4.35-27.42,2.84-9.15-1.58-18.05-6.59-24.42-13.77-3.22-3.63-5.65-7.61-7.22-11.77ZM1873.44,92.43c-1.72-4.56-4.86-8.54-9.57-10.6-11.38-4.97-18.92,2.59-26.91,10.59-.43.44-.87.87-1.3,1.3-.52.52-1.09,1.16-1.69,1.84-2.97,3.35-7.46,8.41-13.22,4.86-2.58-1.59-4.1-4.04-5.56-6.41-1.52-2.46-2.96-4.78-5.45-5.8-4.76-1.95-10.45-1.17-16,2.2-7.48,4.54-13.38,13.01-14.04,20.16-1.65,17.92,14.52,32.93,30.66,35.71,15.73,2.71,33.37-3.25,48.41-16.34,8.96-7.8,14.3-15.95,15.86-24.22.79-4.18.43-8.99-1.19-13.3Z"/>
        <path class="cls-6" d="M1714.64,49.75c-1.98-5.25-2.06-10.67-.19-15.49,2.85-7.33,8.69-11.06,17.35-11.09,7.05-.02,14.79,2.37,21,4.29.76.23,1.5.46,2.21.68h0c.23.07.46.14.69.21,7.55,2.25,13.3,8.33,14.65,15.48,1.19,6.32-1.21,12.35-6.6,16.55-8.1,6.32-22.21,8.83-32.11,5.72-6.83-2.15-12.85-7.46-16.1-14.23-.34-.7-.64-1.4-.9-2.11ZM1753.99,31.54c-.72-.22-1.46-.45-2.22-.68-15.13-4.67-29.12-7.83-33.98,4.69-1.76,4.54-1.42,9.78.98,14.77,2.83,5.89,8.05,10.51,13.96,12.37,8.75,2.75,21.7.45,28.85-5.13,4.36-3.4,6.23-8.04,5.29-13.08-1.1-5.85-5.88-10.85-12.16-12.72-.23-.07-.47-.14-.71-.21h0Z"/>
        <path class="cls-6" d="M1779.12,42.35c-.88-2.34-1-4.79-.3-7.05.8-2.6,2.65-4.44,5.36-5.33,5.75-1.88,13.85.91,18.86,4.64,5.25,3.9,7.08,8.64,4.91,12.69-3.25,6.05-14.11,5.12-18.02,4.26-4.01-.89-7.8-3.67-9.88-7.25-.37-.64-.68-1.29-.93-1.95ZM1801.98,36.04l-1.06,1.43c-4.83-3.59-11.7-5.4-15.63-4.11-1.6.52-2.6,1.5-3.06,2.99-.77,2.49.07,4.73.9,6.17,1.6,2.75,4.5,4.88,7.57,5.56,3.98.88,12.21,1.07,14.11-2.46,1.82-3.38-2.12-6.82-3.9-8.14l1.06-1.43Z"/>
        <path class="cls-6" d="M1520.56,250.35c-2.71,0-5.34-.6-7.71-1.79-7.74-3.89-11.21-10.61-9.52-18.44.92-4.25,3.3-8.33,6.71-11.51,3.54-3.3,7.8-5.2,11.99-5.37h0c3.6-.15,7.11,1.02,10.14,3.36,5.73,4.42,9.02,13.33,7.34,19.86-1.34,5.19-5.21,9.58-10.61,12.03-2.73,1.24-5.57,1.86-8.33,1.86ZM1522.16,216.56c-6.95.28-13.94,6.68-15.58,14.26-.79,3.66-.84,10.45,7.77,14.77,3.83,1.93,8.76,1.88,13.18-.13,4.42-2.01,7.7-5.69,8.77-9.84,1.36-5.27-1.46-12.78-6.15-16.4-2.44-1.88-5.13-2.78-7.98-2.67h0Z"/>
        <path class="cls-6" d="M1590.51,265.69c-7.42,0-14.25-1.67-18.75-4.64-7.09-4.69-14.03-12.81-18.12-21.17l-.02-.04c-6.72-13.8-5.82-31.14,2.27-44.17,3.76-6.05,8.47-10.09,13.63-11.7,6.66-2.07,13.97.42,17,5.8,2.03,3.6,1.93,7.63,1.84,11.52-.07,3.03-.14,5.89.74,8.46,1.9,5.58,7.48,8.38,13.39,11.34,4.24,2.13,8.62,4.32,11.94,7.7,3.48,3.54,5.56,8.63,5.7,13.98.15,5.35-1.65,10.55-4.93,14.27-4.19,4.76-11.9,7.87-21.16,8.52-1.2.08-2.38.13-3.56.13ZM1574.25,186.58c-1.29,0-2.57.19-3.74.55-5.55,1.73-9.48,6.55-11.8,10.28-7.51,12.09-8.34,28.17-2.11,40.97v.02c3.86,7.87,10.36,15.49,16.98,19.87,9.42,6.24,31.25,5.52,39.14-3.43,5.71-6.48,5.4-17.57-.65-23.73-2.93-2.98-7.07-5.06-11.06-7.06-6.25-3.13-12.71-6.37-15.05-13.24-1.07-3.13-.99-6.43-.91-9.61.09-3.61.17-7.01-1.41-9.82-1.85-3.29-5.7-4.81-9.39-4.81Z"/>
      </g>
      <g>
        <path class="cls-6" d="M284.96,168.29c-3.34-4.47-5.6-9.5-6.62-14.83-1.79-9.41,2.36-21.84,10.1-30.23,5.96-6.46,13.2-9.58,20.4-8.8,4.39.48,7.45,3.26,10.16,5.71,2.11,1.91,4.11,3.72,6.52,4.4,3.89,1.08,5.79-2.22,8.26-7.38.48-1,.93-1.94,1.4-2.8.34-.61.68-1.23,1.02-1.84,3.23-5.85,6.56-11.91,11.15-16.25,5.37-5.08,11.68-7.07,19.29-6.06,13.48,1.79,21.91,15.05,23,26.63h0c.99,10.56-2.52,22.12-10.45,34.37-6.03,9.31-13.59,17.41-21.86,23.4-9.29,6.73-19.16,10.71-29.36,11.83-10.59,1.17-22.01-1.55-31.31-7.44-4.71-2.98-8.65-6.61-11.7-10.69ZM380.03,102.91c-3.34-4.48-8.07-7.89-13.93-8.66-14.14-1.87-20.06,8.86-26.32,20.23-.34.62-.68,1.24-1.02,1.85-.41.74-.84,1.63-1.28,2.57-2.21,4.64-5.56,11.65-13.05,9.56-3.35-.93-5.8-3.16-8.17-5.3-2.46-2.23-4.79-4.34-7.85-4.67-5.88-.64-11.9,2.03-16.95,7.51-6.81,7.38-10.63,18.6-9.09,26.69,3.87,20.29,26.48,31.73,45.16,29.67,18.21-2,35.79-14.17,48.23-33.39,7.41-11.45,10.72-22.14,9.81-31.76-.46-4.86-2.38-10.06-5.54-14.29Z"/>
        <path class="cls-6" d="M191.29,106.22c-3.85-5.16-5.66-11.12-5.12-17.03.82-8.99,6.07-14.96,15.63-17.74,7.77-2.26,17.07-2.08,24.53-1.94.91.02,1.8.03,2.65.05h0c.28,0,.56,0,.83,0,9.05.09,17.32,4.96,21.07,12.43,3.32,6.59,2.58,14.01-2.03,20.35-6.94,9.54-21.7,16.79-33.61,16.5-8.22-.2-16.55-4.16-22.28-10.58-.59-.66-1.15-1.35-1.67-2.04ZM228.92,73.64c-.86-.01-1.75-.03-2.67-.05-18.18-.35-34.61.61-36.01,15.96-.5,5.57,1.54,11.24,5.77,15.98,4.99,5.6,12.22,9.05,19.32,9.22,10.53.25,24.08-6.39,30.21-14.82,3.73-5.13,4.33-10.85,1.68-16.1-3.07-6.11-9.93-10.1-17.46-10.18-.28,0-.56,0-.85,0h0Z"/>
        <path class="cls-6" d="M260.07,77.59c-1.72-2.31-2.62-4.97-2.57-7.69.06-3.12,1.52-5.74,4.22-7.58,5.75-3.9,15.56-3.39,22.29-.87,7.03,2.64,10.56,7.29,9.44,12.44-1.67,7.71-13.94,10.13-18.53,10.42-4.71.29-9.77-1.57-13.2-4.86-.61-.59-1.16-1.21-1.65-1.86ZM283.29,63.37l-.72,1.91c-6.47-2.43-14.62-2.24-18.55.42-1.6,1.09-2.39,2.48-2.43,4.27-.06,2.99,1.58,5.19,2.96,6.52,2.63,2.52,6.51,3.95,10.12,3.73,4.68-.29,13.81-2.7,14.79-7.2.93-4.31-4.5-6.85-6.88-7.75l.72-1.91Z"/>
      </g>
      <g>
        <path class="cls-6" d="M756.4,232.89c-.98-2.33-1.96-4.65-2.94-6.98-.02-.05-.05-.11-.07-.16-.06-.14-.12-.27-.18-.41-.05-.11-.09-.22-.15-.33-.55-1.24-1.37-2.32-2.47-3.23-2.2-3.39-5.11-6.06-8.74-8.02-2.48-1.05-4.96-2.09-7.44-3.14-2.76-.37-5.52-.74-8.28-1.11-2.76.37-5.52.74-8.28,1.11-2.48,1.05-4.96,2.09-7.44,3.14-3.63,1.96-6.54,4.63-8.74,8.02-1.93,1.94-3.26,4.23-4,6.87-1.41,2.43-2.12,5.05-2.13,7.86-.74,2.76-.74,5.52,0,8.28.19,4.14,1.42,8,3.7,11.58,1.62,2.1,3.25,4.2,4.87,6.3,2.1,1.62,4.2,3.25,6.3,4.87,2.48,1.05,4.96,2.09,7.44,3.14l8.28,1.11c4.29.16,8.29-.73,12-2.68,2.64-.74,4.93-2.07,6.87-4,3.39-2.2,6.06-5.11,8.02-8.74.11-.24.22-.49.33-.73.55-1.24,1.05-2.46,1.58-3.73,1.83-3.48,2.67-7.23,2.52-11.25-.35-2.59-.7-5.18-1.04-7.76Z"/>
        <path class="cls-6" d="M791.11,168.01c2.02-1.07,3.21-3.1,3.96-5.15.47-1.28.93-2.55,1.4-3.83,1.17-3.19-.14-7.55-2.59-9.8-1.97-1.81-4.39-2.95-7.12-2.95-2.58,0-5.3,1.12-7.12,2.95-2.38,2.38-3.8,6.5-2.59,9.8.47,1.28.93,2.55,1.4,3.83.66,1.81,1.53,3.28,3.09,4.48,1.45,1.12,3.34,1.94,5.22,1.85,1.53-.07,3-.46,4.35-1.18Z"/>
        <path class="cls-6" d="M899.96,183.28c.07-.53.14-1.06.21-1.59.1-2.56-.44-4.95-1.6-7.17-.75-2.31-2.03-4.3-3.85-5.99-1.69-1.82-3.68-3.1-5.99-3.85-2.22-1.16-4.61-1.7-7.17-1.6-2.56-.1-4.95.44-7.17,1.6-2.31.75-4.3,2.03-5.99,3.85-.97,1.26-1.94,2.51-2.91,3.77-1.68,2.9-2.53,6.03-2.54,9.39.22,1.65.44,3.3.66,4.95.88,3.15,2.48,5.89,4.79,8.21,1.26.97,2.51,1.94,3.77,2.91,2.14,1.36,4.44,2.1,6.92,2.21,1.59.36,3.19.43,4.78.24,1.94.27,3.88.15,5.82-.37,2.43-.68,4.54-1.91,6.33-3.69,1.78-1.79,3.01-3.9,3.69-6.33.59-2.18.67-4.36.25-6.54Z"/>
      </g>
      <g>
        <path class="cls-3" d="M592.65,75.84c-1.14,2.24-2.04,5.11-.34,7.33.73.95,1.81,1.5,3.02,1.32,1.45-.21,2.6-1.31,3.6-2.31,2.34-2.36,4.58-4.84,6.73-7.37.55-.65,1.12-1.29,1.67-1.94.17-.19.38-.27.58-.27.02.04.04.09.05.13.13.03.24.12.3.28,1.9,4.77,3.82,9.55,5.73,14.32,1.63,4.07,3.27,8.13,5.12,12.1,3.6,7.74,8.06,15.37,14.63,20.97,3.17,2.7,6.75,4.78,10.64,6.25,3.76,1.42,7.75,2.3,11.74,2.72,9.04.94,18.21-.6,26.84-3.27,4.32-1.34,8.62-2.89,12.73-4.76,3.28-1.49,6.5-3.31,9.08-5.86,2.63-2.6,4.23-5.97,4.09-9.71-.09-2.28-.66-4.51-1.22-6.71-.63-2.46-1.33-4.89-2.09-7.31-1.51-4.79-3.26-9.5-5.27-14.11-1.88-4.31-4.07-8.54-6.69-12.45-4.67-6.97-11.02-12.94-19.09-15.63-3.81-1.27-7.85-1.7-11.84-1.15-4.7.66-9.14,2.45-13.54,4.16-4.74,1.84-9.5,3.65-14.25,5.46-4.81,1.84-9.59,3.76-14.43,5.5-2.32.83-4.63,1.66-6.97,2.44-.17.06-.29-.19-.12-.26.28-.13.57-.25.85-.38-.07-.21-.15-.42-.22-.63-.27-.79-.55-1.59-.86-2.37-.61-1.54-1.26-3.06-2.05-4.52-1.62-3-3.67-5.74-5.73-8.45-1.24-1.63-3.11-4.06-5.45-3.68-2.43.4-2.81,3.41-2.48,5.39.47,2.77,2.41,5.04,2.88,7.81.52,3.05-1.29,5.66-2.73,8.18-.85,1.5-1.71,2.99-2.55,4.49-.81,1.42-1.65,2.83-2.39,4.28Z"/>
        <path class="cls-10" d="M651.99,50.33c1.49-.56,2.98-1.1,4.5-1.56,4.28-1.32,8.7-2.04,13.17-1.41,4.19.58,8.16,2.17,11.75,4.41-.22-.46-.44-.92-.67-1.37-2.03-3.94-4.73-7.65-8.03-10.61-3.07-2.75-6.87-4.82-11.09-4.82-2.04,0-4.13.52-5.85,1.65-1.6,1.04-2.86,2.56-3.66,4.29-1.4,3.02-1.29,6.41-.13,9.44Z"/>
        <path class="cls-10" d="M613.28,62.52c-1.66-5.05-4.3-9.77-7.72-13.84-.78-.93-1.64-1.85-2.73-2.38-1.1-.53-2.49-.61-3.48.11-1.21,1.27-1.31,3.26-.91,4.98.4,1.71,1.22,3.31,1.6,5.02.88,3.96-.66,8.04-2.52,11.65-1.86,3.6-4.11,7.12-4.82,11.11-.35,1.95-.04,4.41,1.78,5.19,2.04.87,4.17-1.05,5.29-2.96,1.12-1.91,2.19-4.23,4.34-4.77-2.39-2.97-2.37-7.65-.25-10.82,2.12-3.17,5.75-4.37,9.41-3.29Z"/>
        <path class="cls-10" d="M640.58,100.83c.56,2.26,1.47,4.49,2.94,6.33,1.22,1.53,2.82,2.68,4.53,3.62,1.91,1.04,3.93,1.84,5.89,2.77.34.16.69.33,1.03.5.68-1.27,1.88-2.13,3.25-2.46-1.1-1.95-2.07-3.99-3.09-5.98-1.18-2.29-2.35-4.59-3.52-6.88-1.06-2.08-2.02-4.34-3.56-6.12-1.3-1.52-3.26-2.64-5.32-2.23-2.02.39-2.84,2.31-2.95,4.17-.13,2.08.3,4.28.8,6.29Z"/>
        <path class="cls-7" d="M643.75,53.04c10.57-4.52,22.94-7.1,33.41-2.35,7.77,3.53,13.43,10.72,16.68,18.61,1.35,3.29,2.35,6.84,1.99,10.38-.36,3.54-2.3,7.08-5.53,8.58-3,1.41-6.52.88-9.79.33-13.06-2.22-26.17-4.46-38.91-8.18-6.31-1.84-12.52-4.03-18.5-6.76-1.97-.9-7.8-2.7-8.91-4.57-1.93-3.25,3.21-3.72,5.7-4.73,8.16-3.32,15.76-7.85,23.85-11.31Z"/>
        <path class="cls-8" d="M652.84,41.82c.74-1.78,1.97-3.44,3.52-4.6,1.6-1.2,3.5-1.96,5.5-2.16,1.09-.11,2.21-.12,3.28.16.9.23,1.8.51,2.66.89,2.02.89,3.9,2.26,5.21,4.05.16.22-.1.53-.34.36-1.44-1.04-2.96-1.91-4.65-2.47-.82-.28-1.67-.47-2.53-.55-.49-.05-.9-.01-1.29-.02-.21,0-.43-.02-.64-.03-.27,0-.21,0-.51.01-.4.02-.81.07-1.2.14-.21.04-.42.08-.63.13-.1.02-.2.05-.31.08,0,0-.19.06-.23.07-.38.13-.75.28-1.11.45-.18.09-.36.19-.53.28-.02,0-.06.03-.08.05-.09.06-.19.12-.28.18-.32.22-.62.45-.91.7-.15.13-.3.27-.45.4-.09.08-.17.17-.26.25-.02.02-.04.04-.05.05-.01.01-.02.03-.04.05-.26.3-.52.61-.75.94-.12.16-.23.33-.33.5-.04.07-.08.14-.12.2-.03.05-.06.1-.09.16,0,0,0,0,0,.01-.21.41-.39.82-.54,1.25-.07.21-.14.42-.19.64,0,.01,0,.03,0,.05-.02.13-.05.27-.08.4-.07.44-.1.89-.14,1.34-.05.51-.05,1.01-.3,1.48-.25.47-.89.83-1.38.41-1.58-1.36-.86-4.19-.18-5.84Z"/>
        <path class="cls-8" d="M614.9,66.94c.14-.26.28-.63.45-.84.34-.43.78-.72,1.29-.9.44-.16.89-.3,1.33-.45.89-.3,1.78-.6,2.66-.9,1.75-.59,3.49-1.19,5.24-1.78,3.52-1.2,7.04-2.41,10.55-3.63,6.9-2.41,13.8-4.83,20.81-6.94,1.84-.55,3.75-.97,5.66-1.22.94-.12,1.93-.04,2.88,0,.92.05,1.78.17,2.67.44.35.1.23.59-.07.65-.8.16-1.61.32-2.41.51-.77.18-1.49.49-2.24.71-1.46.43-3.05.98-4.53,1.59-3.22,1.33-6.49,2.57-9.73,3.86-3.42,1.36-6.91,2.56-10.37,3.82-3.43,1.26-6.86,2.52-10.28,3.81-1.91.72-3.83,1.44-5.74,2.16-.96.36-1.91.72-2.87,1.08-.49.19-.98.37-1.48.56-.36.13-.73.28-1.1.35-.55.11-1.07-.08-1.56-.29-.91-.39-1.65-1.6-1.14-2.59Z"/>
        <path class="cls-8" d="M626.37,72.31c.96-.05,1.82-.01,2.68.49.15.09.3.19.43.3.37.31.57.64.78,1.05.35.69.04,1.39-.48,1.84-.16.2-.36.35-.6.44-.14.07-.52.28.07-.07-.26.16-.52.3-.78.44-.03.02-.05.04-.08.06-1.33,1.02-3.31.6-3.99-.96-.63-1.43.29-3.5,1.99-3.59Z"/>
        <path class="cls-8" d="M636.82,77.94c-.13-.47-.15-1,.05-1.46.16-.36.39-.68.69-.95.48-.43,1.1-.5,1.71-.5.98,0,2.27.74,2.75,1.67.21.28.4.56.44.94.06.65-.09,1.14-.55,1.62-.3.32-.66.44-1.05.53-.98.39-2.46.06-3.2-.61-.39-.36-.69-.7-.84-1.23Z"/>
        <path class="cls-8" d="M638.22,70.53c.05-.42.24-.8.53-1.11.5-.53,1.42-.83,2.12-.49.55.27.92.59,1.31,1.06.03.04.09.09.12.13.04.04.09.09.13.13.09.1.16.22.24.33.28.36.37.79.26,1.23-.12.47-.39.71-.79.95-.5.3-1.07.35-1.64.28-.43-.06-.84-.19-1.21-.42-.42-.26-.7-.66-.94-1.08-.15-.27-.19-.71-.15-1.01Z"/>
        <g>
          <path class="cls-8" d="M633.66,65.16c.36.28.78.3,1.2.21h0s-.07.02-.1.03c.05-.01.09-.02.14-.02-.01,0-.02,0-.03,0,0,0,.02,0,.03,0h.03s0,0,.01,0c0,0,0,0,.01,0,.02,0,.04,0,.05,0-.02,0-.03,0-.04,0,.09.03.18.05.27.06.11.04.22.05.35.04.25-.04.5-.21.59-.45.17-.24.25-.49.2-.82-.03-.19-.1-.39-.19-.56-.16-.29-.32-.51-.6-.7-.29-.19-.57-.27-.91-.34-.91-.18-1.7.77-1.57,1.62.06.39.27.71.57.95Z"/>
          <path class="cls-8" d="M634.93,65.38s0,0,0,0c-.02,0-.04,0-.05,0,0,0,.01,0,.02,0,0,0,.02,0,.02,0Z"/>
        </g>
        <g>
          <path class="cls-8" d="M656.05,68.01s-.06,0-.08-.01c.03,0,.05,0,.07,0,0,0,0,0,0,0Z"/>
          <path class="cls-8" d="M653.74,65.33c.25-.99,1.19-1.66,2.22-1.56.62.06,1.18.3,1.66.69.43.35.95.84,1.15,1.37.2.53.3,1.04.16,1.59-.15.6-.54,1.11-1.21,1.09-.16,0-.26-.03-.4-.07-.03,0-.14-.03-.24-.05-.25-.06-.51-.16-.74-.26-.09-.04-.18-.08-.28-.12.02,0,.04,0,.05,0-.01,0-.04,0-.06,0h0c-.23-.08-.17-.04-.07,0-.09-.01-.19-.04-.24-.05-.26-.05-.51-.13-.76-.21-.98-.31-1.47-1.47-1.24-2.41Z"/>
        </g>
        <g>
          <path class="cls-8" d="M654.11,76.94c.42.07.78.01,1.15-.09.13-.02.37-.04.14-.04.02,0,.05-.01.07-.02.04,0,.07,0,.11,0-.01,0-.03,0-.06-.01,0,0,0,0,.01,0,.03,0,.06.01.09.02.02,0,.04,0,.06,0-.02,0-.03,0-.05,0,.16.03.32.06.49.05.37.02.74-.09,1.05-.34.38-.31.53-.7.56-1.14.28-2.32-2.96-4.12-4.81-2.49-.7.61-1,1.52-.74,2.42.27.92,1.01,1.5,1.93,1.66ZM655.45,76.79s-.05.01-.07.02c-.02,0-.04,0-.06,0-.36,0-.13-.01.13-.02Z"/>
          <path class="cls-8" d="M655.64,76.79s-.03,0-.04,0c0,0,0,0-.01,0,.02,0,.03,0,.05,0,0,0,0,0,.01,0Z"/>
          <path class="cls-8" d="M655.52,76.8s.05,0,.07,0c.06.02.04.02-.07,0Z"/>
        </g>
        <path class="cls-8" d="M663.7,57.83c.5-.93,1.64-1.14,2.5-.57.51.33.88.8,1.14,1.35.08.17.14.34.17.52.02.12.02.66.01.38,0-.18,0-.1,0,.25-.03.1-.05.21-.08.31-.04.13-.27.53-.1.2-.18.35-.57.7-1,.61-.17-.04-.33-.04-.5-.1-.06-.02-.12-.04-.18-.06-.08-.03-.35-.17-.41-.2,0,0,0,0,0,0-.07-.03-.14-.05-.2-.08-.16-.06-.31-.13-.47-.19-.98-.33-1.34-1.55-.87-2.42Z"/>
        <path class="cls-8" d="M668.75,55.97c.23-.52.82-.98,1.42-.86.42.08.76.24,1.04.57.15.17.28.38.36.59.17.4.16.85-.03,1.22-.04.13-.1.24-.17.34,0,0,0,0,0,.01-.2.46-.75.51-1.06.19-.02,0-.04-.01-.06-.02-.09-.01-.18-.04-.26-.08-.05-.02-.21-.07-.24-.1-.05-.01-.1-.02-.16-.04-.14-.05-.26-.12-.37-.22-.45-.37-.72-1.02-.47-1.6Z"/>
        <path class="cls-7" d="M628.94,94.28c-.23-.64-.12-1.37.44-1.81.31-.25.7-.4,1.09-.48.52-.1,1.03.13,1.47.37.23.13.45.27.67.41.16.1.32.22.44.37.04.07.09.14.13.22-.03-.06,0-.04.07.04.31.31.35.87.2,1.26-.17.45-.55.69-1,.8h0c-.47.18-1.03.18-1.53.14-.84-.06-1.68-.49-1.97-1.33Z"/>
        <path class="cls-7" d="M633.7,86.48c-.12-.58.48-1.25,1.08-1.12.31.07.61.13.85.35.2.19.39.42.5.67.16.36.33.87.27,1.26-.03.22-.2.4-.42.43-.4.06-.86-.09-1.23-.25-.26-.11-.48-.29-.68-.48-.24-.24-.32-.53-.39-.86Z"/>
        <path class="cls-7" d="M623.05,85.66c-.03-.32.02-.69.23-.95.47-.56,1.18-.69,1.81-.29.54.34.85,1.02.76,1.64-.05.35-.27.69-.61.82-.15.06-.27.09-.44.08-.24,0-.39-.1-.59-.2.08.04.19.1.04.04-.04-.02-.07-.04-.1-.05,0,0-.01,0-.02-.01-.52-.12-1.03-.51-1.08-1.09Z"/>
        <path class="cls-7" d="M629.47,104.71c-.06-.54.21-1.19.77-1.39.43-.15.86-.23,1.3-.06.28.11.57.34.76.57.14.16.26.36.34.55.09.22.15.46.12.7-.02.2-.09.38-.21.54.01-.03.02-.05.03-.07-.22.46-.77.73-1.24.51-.13-.03-.26-.09-.38-.17,0,0-.02,0-.02,0,0,0,.01,0,.02,0,0,0,0,0,0,0-.09,0-.19-.02-.29-.05-.11-.03-.21-.07-.32-.1.03,0,.07.02.1.03-.21-.06-.4-.15-.57-.31-.21-.19-.37-.46-.4-.75Z"/>
        <path class="cls-5" d="M704.97,87.58c.59,1.71,1.15,3.43,1.68,5.16,1.24-.47,2.38-1.17,3.38-2.05,2.3-2.05,3.49-5.01,3.6-8.06.08-2.27-.41-4.41-1.33-6.35-.83.58-1.63,1.2-2.36,1.91-1.22,1.18-2.25,2.54-3.05,4.03-.9,1.67-1.56,3.49-1.91,5.36Z"/>
        <path class="cls-4" d="M704,84.88c.14.38.28.75.41,1.13.91-2.92,2.5-5.63,4.65-7.82.89-.91,1.89-1.74,2.99-2.39-1.83-3.52-5.07-6.33-8.74-7.98-1.7-.76-3.49-1.31-5.34-1.53-.89-.1-1.77-.11-2.66-.08,1.02,1.63,1.96,3.31,2.82,5.01,2.24,4.42,4.16,9.02,5.87,13.66Z"/>
        <g>
          <path class="cls-8" d="M592.12,83.48c.42.54.95,1.02,1.54,1.36.65.37,1.6.33,2.19-.14.14-.11.22-.35.12-.51-.16-.27-.33-.49-.53-.73-.25-.31-.52-.52-.83-.77-.06-.05-.13-.11-.19-.16,0-.01-.02-.02-.03-.04-.1-.11-.2-.22-.29-.33-.07-.09-.13-.18-.2-.27-.01-.01-.04-.05-.05-.08-.06-.11-.12-.22-.18-.33-.08-.15-.14-.31-.21-.47-.02-.05-.13-.39-.12-.35-.08-.32-.14-.64-.17-.96,0-.1-.01-.19-.02-.29,0-.01,0-.02,0-.03,0-.17,0-.34.03-.51.02-.18.05-.36.08-.54.02-.11.05-.22.07-.34,0-.01.02-.1.03-.13.38-1.44,1.03-2.48,1.91-3.66.9-1.21,1.92-2.31,2.89-3.46,1.03-1.24,1.99-2.55,2.66-4.03.62-1.36.9-2.86.91-4.35.03-2.91-.69-5.77-1.1-8.63-.1-.7-.17-1.4-.18-2.11,0-.05,0-.14,0-.17,0-.09,0-.18,0-.27,0-.17,0-.34.02-.52.02-.33.07-.65.12-.98.02-.11.05-.22.06-.33,0,0,0-.01,0-.02.04-.14.08-.29.13-.43.06-.16.13-.32.2-.47,0,0,0-.01,0-.02.03-.06.07-.11.11-.17.05-.07.11-.14.16-.21.03,0,.05-.02.06-.02.17-.08.34-.18.5-.28,0,0,.04-.04.09-.07,0,0,.02,0,.03-.01.08-.03.15-.06.23-.09.74-.29,1.08-1.17.87-1.89-.23-.79-.95-1.2-1.74-1.14-.59.05-1.27.23-1.72.63-.03.02-.3.37-.4.47.03-.03.07-.06.1-.09-.09.1-.19.2-.28.3-.12.13-.23.27-.33.42-.55.83-.86,1.78-1.01,2.76-.26,1.72.19,3.51.52,5.2.58,2.96,1.47,5.9,1.1,8.83-.1.79-.22,1.25-.49,2-.29.78-.6,1.37-1.03,2.03-.9,1.37-2.01,2.58-3.08,3.81-2.09,2.4-4.17,5.23-4.01,8.57.07,1.43.6,2.87,1.48,4Z"/>
          <path class="cls-8" d="M599.16,45.65s-.03.03-.03.03c.01,0,.02-.02.03-.03Z"/>
        </g>
        <path class="cls-8" d="M642.35,103.32c-.06-1.54.02-3.12.35-4.63.31-1.41.8-2.76,1.55-4,.37-.62.8-1.18,1.3-1.69.43-.44,1.25-.87,1.88-.84.36.02.5.4.42.7-.08.29-.3.54-.46.79-.17.28-.33.51-.54.76-.41.48-.79.98-1.12,1.52-.6,1.01-1.02,2.16-1.26,3.31-.29,1.39-.34,2.8-.36,4.21,0,.71,0,1.43.03,2.14.03.74-.07,1.47-.22,2.19-.07.34-.56.47-.71.11-.61-1.46-.79-3-.86-4.57Z"/>
        <path class="cls-5" d="M610.16,80.4c-.93-2.33-1.85-4.67-2.79-7-.23-.58.66-.98.9-.39,1.91,4.77,3.82,9.55,5.73,14.32,1.63,4.07,3.27,8.13,5.12,12.1,3.6,7.74,8.06,15.37,14.63,20.97,3.17,2.7,6.75,4.78,10.64,6.25,3.76,1.42,7.75,2.3,11.75,2.72,9.04.94,18.21-.6,26.84-3.27,4.32-1.34,8.62-2.89,12.73-4.76,3.28-1.49,6.5-3.31,9.08-5.86,2.63-2.6,4.23-5.97,4.09-9.71-.09-2.28-.66-4.51-1.22-6.71-.63-2.46-1.32-4.89-2.09-7.31-1.51-4.79-3.26-9.5-5.27-14.11-1.88-4.31-4.07-8.54-6.69-12.45-4.67-6.97-11.02-12.94-19.09-15.63-3.81-1.27-7.85-1.7-11.84-1.15-4.7.66-9.14,2.45-13.54,4.16-4.74,1.84-9.5,3.64-14.25,5.46-4.81,1.84-9.59,3.76-14.43,5.5-2.32.83-4.63,1.66-6.97,2.44-.17.06-.29-.19-.12-.26,4.76-2.11,9.6-4.01,14.44-5.91,4.84-1.9,9.69-3.8,14.53-5.7,2.45-.96,4.89-1.92,7.34-2.86,2.25-.87,4.5-1.73,6.81-2.45,4.28-1.32,8.71-2.04,13.17-1.41,8.05,1.12,15.28,5.94,20.55,11.96,3.14,3.58,5.76,7.66,7.91,11.91,2.24,4.42,4.16,9.02,5.87,13.66,1.78,4.82,3.29,9.74,4.54,14.73.54,2.16,1.05,4.35,1.06,6.58.01,1.91-.39,3.81-1.22,5.54-1.55,3.22-4.33,5.65-7.3,7.53-3.4,2.15-7.14,3.65-10.88,5.09-8.91,3.42-18.31,6.05-27.91,6.18-8.19.11-16.5-1.57-23.62-5.74-3.71-2.17-7.03-4.86-9.91-8.06-2.92-3.25-5.37-6.92-7.48-10.74-4.5-8.15-7.69-16.97-11.12-25.6Z"/>
        <path class="cls-5" d="M687.83,124.5c-.21-1.17.1-2.56.46-3.67.37-1.15.95-2.25,1.69-3.21.74-.96,1.63-1.81,2.64-2.47.9-.59,2.22-1.35,3.32-1.12.12.02.17.17.07.25-.43.36-.94.54-1.43.78-.47.24-.93.51-1.37.81-.93.64-1.73,1.44-2.39,2.35-.65.89-1.15,1.88-1.49,2.94-.16.52-.28,1.05-.34,1.6-.07.57-.03,1.14-.06,1.72-.04.64-.99.62-1.1.02Z"/>
        <path class="cls-5" d="M590.67,78.71c.31-1.46.97-2.8,1.68-4.1.87-1.57,1.77-3.13,2.66-4.69.91-1.6,1.81-3.2,2.72-4.8.76-1.34,1.58-2.73,1.79-4.28.43-3.21-1.94-5.8-2.79-8.71-.63-2.17-.57-5.22,1.42-6.71.97-.73,2.22-.89,3.37-.56,1.17.34,2.16,1.16,3,2.02,1.04,1.07,1.91,2.32,2.8,3.51,1.09,1.47,2.13,2.96,3.09,4.52,1.83,2.98,3.32,6.2,4.11,9.62.06.24.1.48.14.72-.14.05-.28.09-.42.14-.08-.24-.17-.48-.25-.71-.27-.8-.55-1.59-.86-2.37-.61-1.54-1.26-3.06-2.05-4.52-1.62-3-3.67-5.74-5.73-8.45-1.24-1.63-3.11-4.06-5.45-3.68-2.43.4-2.81,3.41-2.48,5.39.47,2.77,2.41,5.04,2.88,7.82.52,3.05-1.29,5.66-2.73,8.18-.85,1.5-1.7,3-2.55,4.49-.81,1.42-1.65,2.83-2.39,4.29-1.14,2.24-2.04,5.11-.34,7.33.73.95,1.81,1.5,3.02,1.32,1.45-.21,2.6-1.31,3.6-2.31,2.34-2.36,4.58-4.84,6.73-7.37.55-.65,1.11-1.29,1.67-1.94.17-.19.38-.27.58-.27.18.43.35.85.52,1.28-2.28,2.73-4.74,5.31-7.27,7.81-1.92,1.9-4.79,4.89-7.79,3.51-2.4-1.1-3.22-4.08-2.71-6.49Z"/>
        <g>
          <path class="cls-5" d="M597.39,45.98s.03-.04.04-.07c0,0,.01-.01.02-.02,3.61,3.52,7.01,7.28,10.03,11.32.03.05-.03.1-.07.06-3.14-3.95-6.45-7.74-10.03-11.29,0,0,0,0,0,0Z"/>
          <path class="cls-5" d="M596.98,51.57c.32.27.65.53.97.8,2.07,1.7,4.19,3.35,6.18,5.13.1.09-.01.25-.12.17-2.13-1.62-4.15-3.38-6.21-5.09-.23-.19-.46-.38-.69-.57-.04-.15-.09-.29-.13-.44Z"/>
        </g>
        <g>
          <path class="cls-5" d="M590.62,80.67s0-.04,0-.05c0-.08.02-.15.02-.23,1.2-1.62,2.45-3.2,3.68-4.79,1.54-2,3.11-3.97,4.67-5.96.07-.08.2.01.13.1-1.52,2.02-3.02,4.04-4.55,6.04-1.31,1.71-2.59,3.44-3.94,5.11,0-.07,0-.15-.01-.22Z"/>
          <path class="cls-5" d="M593.86,84.29s-.1-.05-.14-.07c-.14-.07-.28-.14-.41-.21.36-.66.75-1.31,1.14-1.95,1.29-2.09,2.82-3.95,4.51-5.73.05-.05.13.03.09.08-1.5,1.87-2.84,3.89-4.08,5.93-.39.64-.75,1.29-1.11,1.95Z"/>
        </g>
        <path class="cls-5" d="M599.69,32.82c2.27.79,4.37,1.88,6.19,3.47,1.81,1.58,3.31,3.48,4.43,5.61.63,1.2,1.2,2.49,1.31,3.86.03.4-.5.57-.68.2-.63-1.31-1.09-2.7-1.79-3.99-.7-1.29-1.56-2.47-2.52-3.57-1.91-2.17-4.4-4.07-7.09-5.15-.27-.11-.11-.52.16-.42Z"/>
        <path class="cls-5" d="M608.19,29.67c1.89,1.76,3.64,3.64,5.09,5.78,1.43,2.11,2.75,4.37,3.44,6.84.09.32-.39.41-.52.15-1.18-2.22-2.24-4.51-3.63-6.61-1.38-2.07-2.91-4.08-4.67-5.84-.17-.17.12-.49.3-.32Z"/>
        <path class="cls-5" d="M579.51,84.52c-.05-.23.3-.27.36-.05.67,2.41,2.3,4.4,4.39,5.74,1,.64,2.14,1.1,3.3,1.35.6.13,1.2.22,1.81.24.28.01.56.01.85,0,.35-.01.6.03.93.13.31.09.24.49.01.62-.84.5-2.07.28-2.99.11-1-.19-1.97-.53-2.88-1-1.82-.94-3.38-2.32-4.49-4.06-.6-.95-1.04-1.98-1.3-3.07Z"/>
        <path class="cls-5" d="M580.2,93.24c1.11.56,2.27,1.03,3.44,1.46,1.17.43,2.4.71,3.52,1.25.3.15.2.59-.14.57-1.27-.06-2.51-.56-3.68-1.05-1.18-.49-2.3-1.1-3.39-1.76-.27-.16-.02-.62.26-.48Z"/>
        <path class="cls-5" d="M650.93,42.21c1.14-3.95,4.3-6.97,8.35-7.75,9.22-1.78,16.86,6.52,21.07,13.66,1,1.7,1.88,3.47,2.62,5.3-.36-.28-.74-.54-1.14-.76-.34-.77-.7-1.52-1.08-2.27-2.03-3.94-4.73-7.65-8.03-10.61-3.07-2.75-6.87-4.83-11.09-4.82-2.04,0-4.13.52-5.85,1.65-1.6,1.04-2.86,2.56-3.66,4.28-1.47,3.16-1.28,6.73.05,9.86-.15.07-.31.15-.45.23-1.27-2.72-1.64-5.81-.79-8.78Z"/>
        <g>
          <path class="cls-5" d="M665.92,35.36c1.21,2.08,2.42,4.16,3.63,6.25.86,1.48,1.82,2.96,2.49,4.54.05.12-.12.24-.2.13-.88-1.18-1.59-2.51-2.32-3.79-.76-1.32-1.52-2.64-2.27-3.97-.67-1.16-1.33-2.32-2-3.48.22.12.44.23.67.33Z"/>
          <path class="cls-5" d="M659.15,34.71c.35.53.69,1.07,1.02,1.61.73,1.19,1.43,2.39,2.1,3.62.7,1.27,1.4,2.55,1.85,3.93.07.22-.23.45-.37.23-.76-1.17-1.35-2.42-2.01-3.65-.67-1.25-1.35-2.5-2.07-3.72-.37-.63-.75-1.26-1.13-1.88.2-.05.4-.09.6-.13Z"/>
          <path class="cls-5" d="M651.96,40.57c.07-.17.13-.34.19-.52,1.66,1.48,3.22,3.05,4.61,4.77.1.13-.08.33-.2.21-1.56-1.44-3.09-2.9-4.64-4.35.02-.04.03-.08.05-.12Z"/>
        </g>
        <path class="cls-5" d="M654.83,114.34c.81-1.8,2.64-2.87,4.59-2.9,1.11-.01,2.17.23,3.1.84.06.04,0,.13-.06.09-2.03-1.28-4.91-.89-6.47.97-1.55,1.85-1.38,4.38-.19,6.36.1.16-.15.28-.27.17-1.37-1.41-1.47-3.79-.69-5.52Z"/>
        <path class="cls-5" d="M639.96,101.72c-.61-2.17-1.04-4.51-1-6.77.03-1.86.6-3.85,2.29-4.85,1.73-1.02,3.98-.63,5.61.41,1.95,1.24,3.09,3.42,4.09,5.42,1.37,2.73,2.75,5.46,4.12,8.19,1.25,2.49,2.6,4.96,3.73,7.52-.17.02-.33.05-.49.09-1.13-1.99-2.12-4.07-3.16-6.11-1.18-2.29-2.35-4.59-3.52-6.88-1.06-2.08-2.02-4.34-3.56-6.12-1.3-1.52-3.26-2.64-5.32-2.23-2.02.39-2.84,2.31-2.95,4.17-.13,2.08.3,4.27.8,6.29.56,2.26,1.47,4.49,2.94,6.33,1.22,1.53,2.82,2.68,4.53,3.62,1.91,1.04,3.93,1.84,5.89,2.77.42.2.84.4,1.25.61-.18.23-.31.49-.39.77-.38-.2-.77-.4-1.16-.59-1.84-.87-3.73-1.63-5.54-2.58-1.79-.94-3.49-2.06-4.83-3.58-1.63-1.84-2.65-4.11-3.3-6.45Z"/>
        <g>
          <path class="cls-5" d="M641.45,90.22c.93,1.2,1.85,2.4,2.77,3.61,1.69,2.23,3.41,4.45,4.94,6.8.09.14-.09.3-.2.17-1.82-2.13-3.44-4.41-5.1-6.67-.92-1.26-1.84-2.52-2.75-3.79.11-.04.23-.08.34-.12Z"/>
          <path class="cls-5" d="M639.18,94.12c2.19,1.78,4.37,3.72,6.12,5.93.07.09-.05.18-.13.1-1.07-1.07-2.09-2.19-3.18-3.24-.91-.88-1.85-1.72-2.81-2.53,0-.09,0-.18,0-.27Z"/>
        </g>
        <path class="cls-10" d="M650,76.34c-.52-2.71.56-5.69,3.31-6.68.79-.28,1.64-.38,2.46-.25-1.44-1.55-2.45-3.48-2.82-5.58-.01-.07.02-.15.07-.18,1.07-.77,2.69-.82,3.64.18.07.07-.04.17-.11.12-.95-.66-2.23-.78-3.18-.07.64,2.46,2.05,4.67,4.1,6.19.35.26-.03.78-.4.55-2.03-1.29-4.85-.25-5.9,1.82-1.2,2.4-.3,5.19,1.52,6.99.54.53,1.15.99,1.8,1.39.35.21.71.39,1.08.57.35.17.61.4.89.67.16.15.03.47-.19.48-.83.03-1.45-.29-2.16-.71-.71-.42-1.37-.93-1.96-1.51-1.09-1.07-1.88-2.48-2.17-3.98Z"/>
        <path class="cls-10" d="M635.68,76.19c.35-1.41,1.66-2.69,3.11-2.84-1.01-1.13-1.62-2.56-1.66-4.1,0-.1.14-.13.16-.02.33,1.79,1.36,3.4,2.9,4.38.39.25.03.81-.37.68-1.53-.51-3.13.83-3.35,2.33-.14.95.2,1.94.75,2.71.3.42.66.79,1.05,1.12.33.28.81.53.92.96.04.16-.11.3-.25.33-.53.14-1.17-.49-1.53-.82-.43-.41-.81-.86-1.12-1.36-.6-.99-.92-2.21-.63-3.35Z"/>
        <path class="cls-10" d="M623.69,73.91c.11-.68.38-1.35.86-1.87.46-.5,1.01-.73,1.65-.88.16-.04.24.23.08.28-1.04.32-1.69,1.53-1.83,2.56-.07.54-.03,1.1.17,1.61.21.53.62.88.93,1.34.13.19.01.49-.24.45-1.45-.23-1.81-2.3-1.62-3.48Z"/>
        <path class="cls-10" d="M627.97,92.89c.4-1.35,1.76-2.08,3.11-1.87.19.03.16.3-.03.3-1.02-.02-2.11.82-2.35,1.82-.12.51,0,1.04.22,1.5.22.45.62.77.95,1.14.17.19-.01.51-.26.47-1.44-.2-2.01-2.14-1.64-3.36Z"/>
        <path class="cls-10" d="M632.31,62.38c.47-.8,1.2-1.35,2.09-1.6.17-.05.22.21.08.28-.71.35-1.32.95-1.69,1.65-.38.71-.34,1.43-.49,2.18-.04.19-.28.23-.37.06-.42-.79-.05-1.86.37-2.57Z"/>
        <path class="cls-10" d="M661.85,59.7c-.19-.79-.02-1.66.4-2.35.84-1.36,2.44-1.58,3.95-1.37-.25-.6-.25-1.3.14-1.86.81-1.19,2.9-.74,3.29.59.01.04-.04.07-.06.03-.42-1.07-2.19-1.38-2.72-.23-.29.62.03,1.4.6,1.74.2.06.4.12.59.19.48.17.29.92-.21.86-.21-.02-.4-.09-.58-.17-1.34-.39-3.18-.63-4.09.56-.34.44-.5,1.04-.43,1.59.07.59.41.92.82,1.29.18.16.16.54-.14.55-.84.04-1.38-.67-1.56-1.42Z"/>
        <path class="cls-5" d="M706.33,92.86c1.36-.47,2.61-1.21,3.68-2.17,2.3-2.05,3.49-5.01,3.6-8.06.25-6.66-4.48-12.2-10.31-14.82-1.7-.76-3.49-1.31-5.34-1.53-.91-.11-1.82-.11-2.74-.08-.12,0-.24,0-.37.01-.13-.24-.26-.47-.4-.7.07-.02.15-.04.23-.05.82-.18,1.69-.2,2.53-.15,1.77.1,3.51.51,5.17,1.12,3.32,1.22,6.39,3.27,8.64,6.01,2.14,2.61,3.46,5.86,3.57,9.24.1,3.27-.9,6.57-3.15,9-1.25,1.34-2.77,2.41-4.49,3.06-.08.03-.15.06-.23.09-.13-.33-.26-.65-.4-.98Z"/>
        <path class="cls-5" d="M696.6,56.72c.13.03.33-.1.47-.13.12-.03.23-.02.35-.01.27,0,.53.01.8.03.5.03,1,.1,1.51.13.5.03,1.01.08,1.51.13.5.05.99.15,1.35.52.16.17.09.44-.06.58-.38.37-.96.39-1.46.38-.54-.01-1.06-.06-1.59-.15-.5-.09-1-.18-1.49-.32-.25-.07-.5-.17-.74-.27-.11-.04-.23-.08-.33-.15-.14-.1-.24-.33-.4-.37-.2-.05-.12-.41.09-.36Z"/>
        <path class="cls-5" d="M672.06,69.53c.77-.88,1.58-1.59,2.58-2.2.81-.49,2.15-1.4,3.09-.88.21.11.23.4.17.59-.15.51-.71.75-1.15.98-.47.24-.95.47-1.41.72-.93.48-1.86.94-2.79,1.41-.35.18-.77-.31-.5-.62Z"/>
        <g>
          <path class="cls-4" d="M671.47,96.92c1.75,3.22,4.88,5.58,8.65,6.4,3.69.8,7.46.16,10.58-1.65,3.14-1.83,5.42-4.9,6.3-8.26.78-2.99.51-6.2-.61-9.16-1-2.66-2.69-5.14-4.92-7.1-1.29-.84-2.63-1.65-4.09-2.18-1.46-.54-3.05-.77-4.6-.74-3.32.07-6.35,1.31-8.6,3.49-4.96,4.82-6.06,13.05-2.71,19.2Z"/>
          <path class="cls-5" d="M680,98.67c.07,1.59.28,3.18.65,4.75,3.53.64,7.09-.03,10.05-1.76,3.14-1.83,5.42-4.9,6.3-8.26.78-2.99.51-6.2-.61-9.16-.24-.65-.53-1.28-.85-1.9-3.46-.63-7.14.23-9.89,2.21-4.49,3.23-5.88,8.99-5.65,14.12Z"/>
          <path class="cls-5" d="M672.14,100.18c2.69,2.98,6.66,4.63,10.75,4.73,1.97.05,3.95-.29,5.74-.97,1.91-.73,3.55-1.9,5-3.23,2.73-2.51,4.44-5.92,4.73-9.53.27-3.32-.56-6.74-2.26-9.74-.99-1.75-2.27-3.35-3.8-4.72-.01-.05-.03-.1-.07-.15-.46-.74-1.02-1.29-1.74-1.82-2.28-1.63-5.3-2.26-8.14-2.14-.23,0-.45.02-.67.04-.52.04-1.03.11-1.52.21-3.74.71-6.88,2.8-8.94,5.71-2.13,3.02-3.15,6.62-3.16,10.28-.02,3.93,1.27,8.21,4.1,11.33ZM674.18,77.72c2.24-2.18,5.28-3.42,8.6-3.49,1.55-.03,3.14.2,4.6.74,1.46.54,2.81,1.34,4.09,2.18,2.23,1.96,3.92,4.43,4.92,7.1,1.12,2.96,1.39,6.17.61,9.16-.88,3.37-3.16,6.43-6.3,8.26-3.11,1.82-6.88,2.46-10.58,1.65-3.77-.82-6.9-3.18-8.65-6.4-3.35-6.15-2.26-14.38,2.71-19.2Z"/>
          <path class="cls-6" d="M685.5,99.57c-.04-.16-.09-.32-.13-.48-.04-.32,0-.63.14-.93.09-.13.17-.27.26-.4.22-.25.5-.44.83-.55.25-.09.51-.12.78-.09.26,0,.51.05.75.16.25.1.46.24.62.43.21.17.35.37.45.62.04.16.09.32.13.48.04.32,0,.63-.14.93-.09.13-.17.27-.26.4-.22.25-.5.44-.83.55-.25.09-.51.12-.78.09-.26,0-.51-.05-.75-.16-.25-.1-.46-.24-.62-.43-.21-.17-.35-.37-.45-.62Z"/>
          <path class="cls-6" d="M680.69,86.28c.11-.65.38-1.23.81-1.74.07-.07.15-.13.22-.2.24-.22.49-.43.73-.65.43-.31.91-.5,1.45-.56.33-.11.68-.14,1.03-.08.52-.01,1.02.09,1.5.32.29.17.59.34.88.51l.73.7c.35.41.57.86.66,1.36.18.47.22.95.12,1.44,0,.1,0,.19,0,.29-.11.65-.38,1.23-.81,1.74-.45.52-1.02.9-1.71,1.13-.18.05-.36.08-.55.11-.18.04-.36.08-.54.11-.71.05-1.39-.07-2.05-.35-.66-.28-1.2-.7-1.64-1.24-.1-.15-.19-.3-.28-.46-.1-.15-.2-.31-.28-.47-.28-.65-.36-1.31-.26-1.98Z"/>
        </g>
        <path class="cls-6" d="M707.98,86.96c.73-.32,1.7.01,2,.78.3.77,0,1.66-.78,2-.73.32-1.7-.01-2-.78-.3-.77,0-1.66.78-2Z"/>
        <path class="cls-6" d="M705.84,78.89c-.06-.21-.12-.43-.18-.64-.06-.43-.01-.85.14-1.26.1-.19.2-.37.3-.56.26-.36.6-.63,1.01-.81.31-.15.63-.21.96-.19.32-.03.63.02.94.15.31.11.57.28.79.52.26.21.45.47.58.79.06.21.12.43.18.64.06.43.01.85-.14,1.26-.1.19-.2.37-.3.56-.26.36-.6.63-1.01.81-.31.15-.63.21-.96.19-.32.03-.63-.02-.94-.15-.31-.11-.57-.28-.79-.52-.26-.21-.45-.47-.58-.79Z"/>
        <path class="cls-10" d="M682.43,114.74c-.12-.31-.2-.63-.23-.96-.12-1.32.5-2.45,1.11-3.57.56-1.02,1.2-2.04,2.15-2.75,1.07-.8,2.43-1.21,3.74-.83.58.17,1.12.53,1.48,1.02.47.64.54,1.43.5,2.2-.11,2.37-1.77,4.41-3.66,5.69-1.05.71-2.39,1.71-3.72,1.3-1.03-.32-1.38-1.18-1.38-2.1Z"/>
      </g>
    </g>
    <path class="cls-2" d="M-102.21,291.08c185.95-3.55,376.61-5.84,551.01-53.15,152.38-39.55,281.94-112.13,425.6-161.99,170.3-60.26,344.97-68.53,531.89-41.93,175.26,24.62,341.81,74.65,492.44,139.49,94.11,40.49,181.97,85.76,271.75,130.96"/>
    <path class="cls-2" d="M2064.74,61.21c-80.68,5.87-160.72,12.17-239.49,24.37-85.05,12.87-166.7,32.64-247.07,55.72-104.87,30.09-208.48,63.38-317.97,85.24-63.3,12.85-128.08,22.11-193.66,27.8-167.32,14.51-336.84,7.18-505.2,2.33-188.65-6.31-377.48-7.79-566.29-6.75"/>
    <rect class="cls-1" y="0" width="2060.01" height="304.11"/>
  </g>
</svg>