<?xml version="1.0" encoding="UTF-8"?>
<svg id="Layer_1" data-name="Layer 1" xmlns="http://www.w3.org/2000/svg" viewBox="0 0 47.67 52.4">
  <defs>
    <style>
      .cls-1 {
        fill: #deb663;
      }

      .cls-2 {
        fill: #a91f24;
      }

      .cls-3 {
        fill: #117f40;
      }

      .cls-4 {
        fill: #10a256;
      }

      .cls-5 {
        fill: #cd2b27;
      }
    </style>
  </defs>
  <path class="cls-1" d="M47.65,17.03l.02,6.08c0,2.51-1.2,3.79-2.22,4.41v.8s0,.11,0,.11c0,0,0,.02,0,.03.01.13.01.27,0,.41l.09,17.98c.01,2.49-1.29,4.41-3.47,5.12-.58.19-1.21.29-1.88.29l-10.95.04-10.49.05-3.16.02c-2.73.02-5.45.03-8.18.03-2.71,0-4.97-2.26-5-5.05-.02-1.15-.02-2.3-.02-3.45l-.07-14.72c0-.16,0-.33,0-.49v-.05s0-.09,0-.09v-.83C.88,26.86.04,25.31.03,23.33L0,17.24c-.01-2.1,1.08-3.8,2.89-4.56-.46-1.97.16-4,1.84-5.67.67-.67,1.47-1.25,2.42-1.77.04-.03.13-.07.26-.13,0-2.09,1.45-4.06,3.58-4.75,1.32-.43,2.72-.31,3.95.33,1.05.55,2.02,1.22,2.87,2,1.78,1.6,3.47,3.5,5.16,5.75.29,0,.59,0,.89,0,1.6-2.22,3.57-4.6,6.08-6.63.58-.47,1.48-1.13,2.64-1.51.31-.1.63-.17.95-.22,1.36-.23,2.79.17,3.93,1.09,1.13.92,1.81,2.22,1.87,3.59,0,.07,0,.15,0,.22.06.02.14.06.2.09.98.52,2.41,1.39,3.47,2.9.93,1.33,1.26,2.84.98,4.32,2.16.53,3.63,2.37,3.66,4.76Z"/>
  <path class="cls-4" d="M29.22,49.46c-3.5.02-7,.03-10.49.05-.03-6.73-.06-13.45-.09-20.18,0-.27-.01-.53-.02-.8,0-1,0-2-.01-3l-.04-10.48c.44-.06.89.06,1.32-.08.06.02.11.04.17.06,2.26-.01,4.52-.02,6.78-.03.06-.02.11-.03.17-.05.69.13,1.38,0,2.07.06.02,3.49.04,6.99.06,10.48,0,1,0,2,.01,3,0,.19-.01.37-.01.56.03,6.8.06,13.61.09,20.41Z"/>
  <path class="cls-5" d="M18.61,28.54c0,.27.02.53.02.8.03,6.73.06,13.45.09,20.18-3.77.02-7.55.06-11.32.05-1.21,0-2.16-1.02-2.18-2.25-.02-1.61-.02-3.21-.03-4.82-.02-4.45-.04-8.89-.06-13.34,0-.19,0-.37.01-.56,4.49-.02,8.98-.04,13.46-.06Z"/>
  <path class="cls-5" d="M29.22,49.46c-.03-6.8-.06-13.61-.09-20.41,0-.19,0-.37.01-.56,4.49-.02,8.98-.04,13.46-.06,0,.16.02.31.02.47.03,5.99.06,11.98.08,17.97,0,1.64-.9,2.56-2.53,2.57-3.65.01-7.3.02-10.95.03Z"/>
  <path class="cls-5" d="M18.56,15.05c.01,3.49.02,6.99.04,10.48-4.5.02-8.99.05-13.49.07-1.52-.02-2.24-.76-2.25-2.29,0-2.03-.02-4.06-.03-6.09,0-1.3.79-2.11,2.09-2.12,1.03,0,2.06-.02,3.09-.03.23,0,.47,0,.7,0,3.28-.01,6.57-.02,9.85-.03Z"/>
  <path class="cls-5" d="M29.12,25.49c-.02-3.49-.04-6.99-.06-10.48.37,0,.75-.01,1.12-.02,2.9-.02,5.79-.04,8.69-.05,1.26,0,2.53,0,3.79,0,1.33,0,2.14.79,2.15,2.11.01,2.03.02,4.06.03,6.08,0,1.53-.71,2.27-2.23,2.31-4.5.02-8.99.04-13.49.05Z"/>
  <path class="cls-4" d="M25.35,11.24c1.85-2.65,3.84-5.18,6.38-7.23.67-.54,1.39-1.01,2.27-1.15,1.18-.19,2.46.83,2.51,2.01,0,.16.01.31,0,.47-.03.83.34,1.43,1.04,1.86.15.09.37.12.37.36,0,0,0,0,0,0-.17-.07-.34,0-.5.05-.84.23-1.69.44-2.51.72-2.97,1-5.82,2.22-8.12,4.43.02-.59-.03-1.14-.69-1.42-.25-.11-.52-.04-.77-.1Z"/>
  <path class="cls-4" d="M8.88,7.69c0-.2.16-.24.29-.31.77-.45,1.22-1.11,1.09-2.01-.23-1.57,1.71-3.04,3.36-2.18.84.44,1.6.96,2.3,1.59,2.13,1.92,3.94,4.12,5.58,6.46-.23.03-.47.02-.68.08-.69.21-.79.78-.79,1.4-.45-.36-.87-.75-1.34-1.09-2.44-1.75-5.19-2.8-8.06-3.59-.58-.16-1.14-.4-1.76-.36h0Z"/>
  <path class="cls-3" d="M38.88,14.94c-2.9.02-5.79.03-8.69.05-.37,0-.75.01-1.12.02-.69-.05-1.38.07-2.07-.06,1.18-.44,2.35-.92,3.48-1.47,2.26-1.11,4.45-2.34,6.22-4.18.5-.52.96-1.06,1.24-1.74,0,0,0,0,0,0,.1-.09.19-.07.29,0,.96.51,1.84,1.12,2.47,2.02.71,1.02.76,2.08.17,3.17-.41.75-1.01,1.34-1.65,1.89-.12.1-.23.21-.34.31Z"/>
  <path class="cls-3" d="M18.56,15.05c-3.28.01-6.57.02-9.85.03-.23,0-.47,0-.7,0-.51-.48-1.07-.9-1.52-1.45-1.3-1.59-1.22-3.16.24-4.61.52-.52,1.13-.93,1.77-1.28.12-.06.24-.16.38-.04,0,0,0,0,0,0,.08.15.14.31.23.45.69,1.06,1.6,1.91,2.61,2.66,2.49,1.85,5.28,3.12,8.17,4.17-.43.14-.88.02-1.32.08Z"/>
  <path class="cls-2" d="M5.11,25.6c4.5-.02,8.99-.05,13.49-.07,0,1,0,2,.01,3-4.49.02-8.98.04-13.46.06-.01-1-.02-1.99-.04-2.99Z"/>
  <path class="cls-2" d="M29.12,25.49c4.5-.02,8.99-.04,13.49-.05,0,1,0,1.99,0,2.99-4.49.02-8.98.04-13.46.06,0-1,0-2-.01-3Z"/>
  <path class="cls-3" d="M20.03,12.73c0-.61.09-1.18.79-1.4.22-.07.45-.06.68-.08,1.28.05,2.57.03,3.85-.01.25.06.52,0,.77.1.65.28.7.82.69,1.42,0,.75.01,1.5.02,2.25-2.26.01-4.52.02-6.78.03,0-.77-.01-1.53-.02-2.3Z"/>
</svg>