<?xml version="1.0" encoding="UTF-8"?>
<svg id="Layer_1" data-name="Layer 1" xmlns="http://www.w3.org/2000/svg" viewBox="0 0 33.06 38.49">
  <defs>
    <style>
      .cls-1 {
        fill-rule: evenodd;
      }

      .cls-1, .cls-2 {
        fill: #deb663;
      }
    </style>
  </defs>
  <path class="cls-1" d="M14.98,35.45c-.74.62-.6,2.18.23,2.57.94.43,2.01-.35,2.17-1.56.05-.35.02-.47-.13-.74-.23-.4-.57-.53-1.37-.5-.54.02-.68.06-.9.23ZM16.26,36.13c.32.27.03.88-.41.87-.27,0-.38-.4-.21-.75.14-.28.38-.33.62-.12Z"/>
  <path class="cls-1" d="M13.36,23.88c-.29.35-.22.87.14,1.17.71.56,1.73-.25,1.29-1.03-.31-.53-1.04-.61-1.44-.14Z"/>
  <path class="cls-1" d="M27.28.22c-.19.23-.18.52.06.76.21.22.53.18.74-.1.46-.59-.33-1.23-.8-.66Z"/>
  <path class="cls-1" d="M18.95,28.31c-.16.31-.11.6.14.79.39.3.92,0,.86-.48-.07-.53-.77-.75-1-.31Z"/>
  <path class="cls-1" d="M31.76,6.14c-.57.3-.63,1.11-.1,1.51.76.6,1.63.05,1.34-.86-.18-.56-.81-.89-1.24-.66Z"/>
  <path class="cls-2" d="M5.62,26.41c1.13.39,1.54,2.49,2.41,3.32.94.34,5.56-.89,3.79,1.36-.63.78-1.46,1.49-1.99,2.32-.01.92.63,1.89.87,2.8.16.43.34.86.06,1.25-.12.13-.29.21-.46.22-.87-.15-1.8-.74-2.67-1.07-.3-.12-.6-.32-.87-.28-.82.35-1.56,1.18-2.33,1.7-.41.42-1.24.77-1.52.05-.12-.45.06-1.1.08-1.69.04-.7.23-1.41.14-2.08-.78-.83-2.29-1.42-3.04-2.26-.75-1.45,3.14-1.25,3.84-1.81.27-.41.38-1.22.57-1.74.31-.72.24-1.82.99-2.08h.12Z"/>
  <path class="cls-2" d="M16.36,10.02c.94-.16,1.78.9,2.74.94.39-.14.74-.5,1.13-.75.43-.25.81-.78,1.34-.58.38.25.14.9.11,1.37-.04.48-.2,1-.15,1.42.11.33.63.56.96.85,1.27.82,1.73,1.53-.21,1.74-.47.11-1.11.13-1.41.32-.21.22-.3.77-.46,1.17-.38,1.47-.93,2.08-1.72.32-.23-.38-.4-.87-.68-1.16-.72-.36-1.86.04-2.64-.22-1.01-.76,1.38-1.82,1.45-2.62,0-.72-.95-2.15-.54-2.74l.09-.05Z"/>
</svg>