<?xml version="1.0" encoding="UTF-8"?>
<svg id="Layer_1" data-name="Layer 1" xmlns="http://www.w3.org/2000/svg" xmlns:xlink="http://www.w3.org/1999/xlink" viewBox="0 0 2511.89 294.78">
  <defs>
    <style>
      .cls-1 {
        fill: none;
      }

      .cls-2 {
        fill: #15a457;
      }

      .cls-3 {
        clip-path: url(#clippath);
      }
    </style>
    <clipPath id="clippath">
      <rect class="cls-1" x="-33.28" y="-1623.33" width="2511.94" height="1147.81"/>
    </clipPath>
  </defs>
  <g class="cls-3">
    <path class="cls-2" d="M2500.78-434.14l-1.2-4.63-1.2-4.63-1.2-4.63-1.2-4.63-1.2-4.63-1.2-4.63-1.2-4.63-1.2-4.63-1.2-4.63-1.2-4.63-1.2-4.63-1.2-4.63-1.2-4.63-1.2-4.63-1.2-4.63-1.2-4.63-1.2-4.63-1.2-4.63-1.2-4.63-1.2-4.63-1.2-4.63-1.2-4.63-1.2-4.63-1.2-4.63-1.2-4.63-1.2-4.63-1.2-4.63-1.2-4.63-1.2-4.63-1.2-4.63-1.2-4.63-1.2-4.63,1.08.85,1.08.85,1.08.85,1.08.85,1.08.85,1.08.85,1.08.85,1.08.85,1.08.85,1.08.85,1.08.85,1.08.85,1.08.85,1.08.85,1.08.85,1.08.85,1.08.85,1.08.85,1.08.85,1.08.85,1.08.85,1.08.85,1.08.85,1.08.85,1.08.85,1.08.85,1.08.85,1.08.85,1.08.85,1.08.85,1.08.85,1.08.85-1.16-3.76-1.16-3.76-1.16-3.76-1.16-3.76-1.16-3.76-1.16-3.76-1.16-3.76-1.16-3.76-1.16-3.76-1.16-3.76-1.16-3.76-1.16-3.76-1.16-3.76-1.16-3.76-1.16-3.76-1.16-3.76-1.16-3.76-1.16-3.76-1.16-3.76-1.16-3.76-1.16-3.76-1.16-3.76-1.16-3.76-1.16-3.76-1.16-3.76-1.16-3.76-1.16-3.76-1.16-3.76-1.16-3.76-1.16-3.76-1.16-3.76-1.16-3.76.9.62.9.62.9.62.9.62.9.62.9.62.9.62.9.62.9.62.9.62.9.62.9.62.9.62.9.62.9.62.9.62.9.62.9.62.9.62.9.62.9.62.9.62.9.62.9.62.9.62.9.62.9.62.9.62.9.62.9.62.9.62.9.62-.91-3.12-.91-3.12-.91-3.12-.91-3.12-.91-3.12-.91-3.12-.91-3.12-.91-3.12-.91-3.12-.91-3.12-.91-3.12-.91-3.12-.91-3.12-.91-3.12-.91-3.12-.91-3.12-.91-3.12-.91-3.12-.91-3.12-.91-3.12-.91-3.12-.91-3.12-.91-3.12-.91-3.12-.91-3.12-.91-3.12-.91-3.12-.91-3.12-.91-3.12-.91-3.12-.91-3.12-.91-3.12.62.41.62.41.62.41.62.41.62.41.62.41.62.41.62.41.62.41.62.41.62.41.62.41.62.41.62.41.62.41.62.41.62.41.62.41.62.41.62.41.62.41.62.41.62.41.62.41.62.41.62.41.62.41.62.41.62.41.62.41.62.41.62.41-.58-3.93-.58-3.93-.58-3.93-.58-3.93-.58-3.93-.58-3.93-.58-3.93-.58-3.93-.58-3.93-.58-3.93-.58-3.93-.58-3.93-.58-3.93-.58-3.93-.58-3.93-.58-3.93-.58-3.93-.58-3.93-.58-3.93-.58-3.93-.58-3.93-.58-3.93-.58-3.93-.58-3.93-.58-3.93-.58-3.93-.58-3.93-.58-3.93-.58-3.93-.58-3.93-.58-3.93-.58-3.93-2.86,2.76-2.86,2.76-2.86,2.76-2.86,2.76-2.86,2.76-2.86,2.76-2.86,2.76-2.86,2.76-2.86,2.76-2.86,2.76-2.86,2.76-2.86,2.76-2.86,2.76-2.86,2.76-2.86,2.76-2.86,2.76-2.86,2.76-2.86,2.76-2.86,2.76-2.86,2.76-2.86,2.76-2.86,2.76-2.86,2.76-2.86,2.76-2.86,2.76-2.86,2.76-2.86,2.76-2.86,2.76-2.86,2.76-2.86,2.76-2.86,2.76-2.86,2.76.74.05.74.05.74.05.74.05.74.05.74.05.74.05.74.05.74.05.74.05.74.05.74.05.74.05.74.05.74.05.74.05.74.05.74.05.74.05.74.05.74.05.74.05.74.05.74.05.74.05.74.05.74.05.74.05.74.05.74.05.74.05.74.05-2.62,1.91-2.62,1.91-2.62,1.91-2.62,1.91-2.62,1.91-2.62,1.91-2.62,1.91-2.62,1.91-2.62,1.91-2.62,1.91-2.62,1.91-2.62,1.91-2.62,1.91-2.62,1.91-2.62,1.91-2.62,1.91-2.62,1.91-2.62,1.91-2.62,1.91-2.62,1.91-2.62,1.91-2.62,1.91-2.62,1.91-2.62,1.91-2.62,1.91-2.62,1.91-2.62,1.91-2.62,1.91-2.62,1.91-2.62,1.91-2.62,1.91-2.62,1.91,1.09.06,1.09.06,1.09.06,1.09.06,1.09.06,1.09.06,1.09.06,1.09.06,1.09.06,1.09.06,1.09.06,1.09.06,1.09.06,1.09.06,1.09.06,1.09.06,1.09.06,1.09.06,1.09.06,1.09.06,1.09.06,1.09.06,1.09.06,1.09.06,1.09.06,1.09.06,1.09.06,1.09.06,1.09.06,1.09.06,1.09.06,1.09.06-3.21,2.27-3.21,2.27-3.21,2.27-3.21,2.27-3.21,2.27-3.21,2.27-3.21,2.27-3.21,2.27-3.21,2.27-3.21,2.27-3.21,2.27-3.21,2.27-3.21,2.27-3.21,2.27-3.21,2.27-3.21,2.27-3.21,2.27-3.21,2.27-3.21,2.27-3.21,2.27-3.21,2.27-3.21,2.27-3.21,2.27-3.21,2.27-3.21,2.27-3.21,2.27-3.21,2.27-3.21,2.27-3.21,2.27-3.21,2.27-3.21,2.27-3.21,2.27,1.42.17,1.42.17,1.42.17,1.42.17,1.42.17,1.42.17,1.42.17,1.42.17,1.42.17,1.42.17,1.42.17,1.42.17,1.42.17,1.42.17,1.42.17,1.42.17,1.42.17,1.42.17,1.42.17,1.42.17,1.42.17,1.42.17,1.42.17,1.42.17,1.42.17,1.42.17,1.42.17,1.42.17,1.42.17,1.42.17,1.42.17,1.42.17-3.03,2.23-3.03,2.23-3.03,2.23-3.03,2.23-3.03,2.23-3.03,2.23-3.03,2.23-3.03,2.23-3.03,2.23-3.03,2.23-3.03,2.23-3.03,2.23-3.03,2.23-3.03,2.23-3.03,2.23-3.03,2.23-3.03,2.23-3.03,2.23-3.03,2.23-3.03,2.23-3.03,2.23-3.03,2.23-3.03,2.23-3.03,2.23-3.03,2.23-3.03,2.23-3.03,2.23-3.03,2.23-3.03,2.23-3.03,2.23-3.03,2.23-3.03,2.23c-.56-.21-1.12-.42-1.69-.63-.56-.21-1.12-.42-1.69-.63-.56-.21-1.12-.42-1.69-.62s-1.12-.42-1.69-.62c-.56-.21-1.12-.41-1.69-.62-.56-.21-1.12-.41-1.69-.62-.56-.21-1.12-.41-1.69-.62s-1.12-.41-1.69-.62c-.56-.21-1.12-.41-1.69-.62-.56-.21-1.12-.41-1.69-.62-.56-.21-1.12-.41-1.69-.62-.56-.21-1.12-.41-1.69-.62-.56-.2-1.12-.41-1.68-.61s-1.12-.41-1.68-.61-1.12-.41-1.68-.61c-.56-.2-1.12-.41-1.68-.61-.56-.2-1.12-.41-1.68-.61-.56-.2-1.12-.41-1.68-.61-.56-.2-1.12-.41-1.68-.61-.56-.2-1.12-.41-1.68-.61s-1.12-.4-1.68-.61-1.12-.4-1.68-.61c-.56-.2-1.12-.4-1.68-.6-.56-.2-1.12-.4-1.68-.6-.56-.2-1.12-.4-1.68-.6-.56-.2-1.12-.4-1.68-.6-.56-.2-1.12-.4-1.68-.6-.56-.2-1.12-.4-1.68-.6-.56-.2-1.12-.4-1.68-.6-.56-.2-1.12-.4-1.68-.6s-1.12-.4-1.68-.6c-.56-.2-1.12-.4-1.68-.6.15.04.29.07.43.11.14.04.28.07.42.11.14.04.27.07.41.1.13.03.26.07.39.1s.26.07.38.1.25.06.37.09c.12.03.24.06.36.09.12.03.23.06.34.09s.22.06.33.08c.11.03.21.05.32.08.1.03.2.05.3.08.1.03.2.05.29.07s.19.05.28.07c.09.02.18.05.26.07.09.02.17.04.25.06.08.02.16.04.24.06.08.02.15.04.22.06.07.02.14.04.21.05.07.02.13.03.2.05.06.02.12.03.18.05.06.01.11.03.17.04.05.01.1.03.15.04.05.01.09.02.14.04.04.01.09.02.12.03.04.01.08.02.11.03.03,0,.07.02.1.02.03,0,.06.01.08.02.02,0,.05.01.07.02s.04,0,.05.01c.01,0,.03,0,.04,0s.02,0,.02,0c0,0,0,0,0,0l-2.14-6.39-2.14-6.39-2.14-6.39-2.14-6.39-2.14-6.39-2.14-6.39-2.14-6.39-2.14-6.39-2.14-6.39-2.14-6.39-2.14-6.39-2.14-6.39-2.14-6.39-2.14-6.39-2.14-6.39-2.14-6.39-2.14-6.39-2.14-6.39-2.14-6.39-2.14-6.39-2.14-6.39-2.14-6.39-2.14-6.39-2.14-6.39-2.14-6.39-2.14-6.39-2.14-6.39-2.14-6.39-2.14-6.39-2.14-6.39-2.14-6.39-2.14-6.39,1.43.96,1.43.96,1.43.96,1.43.96,1.43.96,1.43.96,1.43.96,1.43.96,1.43.96,1.43.96,1.43.96,1.43.96,1.43.96,1.43.96,1.43.96,1.43.96,1.43.96,1.43.96,1.43.96,1.43.96,1.43.96,1.43.96,1.43.96,1.43.96,1.43.96,1.43.96,1.43.96,1.43.96,1.43.96,1.43.96,1.43.96,1.43.96-1.77-4.6-1.77-4.6-1.77-4.6-1.77-4.6-1.77-4.6-1.77-4.6-1.77-4.6-1.77-4.6-1.77-4.6-1.77-4.6-1.77-4.6-1.77-4.6-1.77-4.6-1.77-4.6-1.77-4.6-1.77-4.6-1.77-4.6-1.77-4.6-1.77-4.6-1.77-4.6-1.77-4.6-1.77-4.6-1.77-4.6-1.77-4.6-1.77-4.6-1.77-4.6-1.77-4.6-1.77-4.6-1.77-4.6-1.77-4.6-1.77-4.6-1.77-4.6,1.18.69,1.18.69,1.18.69,1.18.69,1.18.69,1.18.69,1.18.69,1.18.69,1.18.69,1.18.69,1.18.69,1.18.69,1.18.69,1.18.69,1.18.69,1.18.69,1.18.69,1.18.69,1.18.69,1.18.69,1.18.69,1.18.69,1.18.69,1.18.69,1.18.69,1.18.69,1.18.69,1.18.69,1.18.69,1.18.69,1.18.69,1.18.69-1.41-3.82-1.41-3.82-1.41-3.82-1.41-3.82-1.41-3.82-1.41-3.82-1.41-3.82-1.41-3.82-1.41-3.82-1.41-3.82-1.41-3.82-1.41-3.82-1.41-3.82-1.41-3.82-1.41-3.82-1.41-3.82-1.41-3.82-1.41-3.82-1.41-3.82-1.41-3.82-1.41-3.82-1.41-3.82-1.41-3.82-1.41-3.82-1.41-3.82-1.41-3.82-1.41-3.82-1.41-3.82-1.41-3.82-1.41-3.82-1.41-3.82-1.41-3.82.81.46.81.46.81.46.81.46.81.46.81.46.81.46.81.46.81.46.81.46.81.46.81.46.81.46.81.46.81.46.81.46.81.46.81.46.81.46.81.46.81.46.81.46.81.46.81.46.81.46.81.46.81.46.81.46.81.46.81.46.81.46.81.46-1.06-4.86-1.06-4.86-1.06-4.86-1.06-4.86-1.06-4.86-1.06-4.86-1.06-4.86-1.06-4.86-1.06-4.86-1.06-4.86-1.06-4.86-1.06-4.86-1.06-4.86-1.06-4.86-1.06-4.86-1.06-4.86-1.06-4.86-1.06-4.86-1.06-4.86-1.06-4.86-1.06-4.86-1.06-4.86-1.06-4.86-1.06-4.86-1.06-4.86-1.06-4.86-1.06-4.86-1.06-4.86-1.06-4.86-1.06-4.86-1.06-4.86-1.06-4.86-3.33,3.7-3.33,3.7-3.33,3.7-3.33,3.7-3.33,3.7-3.33,3.7-3.33,3.7-3.33,3.7-3.33,3.7-3.33,3.7-3.33,3.7-3.33,3.7-3.33,3.7-3.33,3.7-3.33,3.7-3.33,3.7-3.33,3.7-3.33,3.7-3.33,3.7-3.33,3.7-3.33,3.7-3.33,3.7-3.33,3.7-3.33,3.7-3.33,3.7-3.33,3.7-3.33,3.7-3.33,3.7-3.33,3.7-3.33,3.7-3.33,3.7-3.33,3.7h.93s.93,0,.93,0h.93s.93,0,.93,0h.93s.93,0,.93,0h.93s.93,0,.93,0h.93s.93,0,.93,0h.93s.93,0,.93,0h.93s.93,0,.93,0h.93s.93,0,.93,0h.93s.93,0,.93,0h.93s.93,0,.93,0h.93s.93,0,.93,0h.93s.93,0,.93,0h.93s.93,0,.93,0h.93s.93,0,.93,0h.93s.93,0,.93,0h.93s.93,0,.93,0l-3.12,2.62-3.12,2.62-3.12,2.62-3.12,2.62-3.12,2.62-3.12,2.62-3.12,2.62-3.12,2.62-3.12,2.62-3.12,2.62-3.12,2.62-3.12,2.62-3.12,2.62-3.12,2.62-3.12,2.62-3.12,2.62-3.12,2.62-3.12,2.62-3.12,2.62-3.12,2.62-3.12,2.62-3.12,2.62-3.12,2.62-3.12,2.62-3.12,2.62-3.12,2.62-3.12,2.62-3.12,2.62-3.12,2.62-3.12,2.62-3.12,2.62-3.12,2.62h1.37s1.37-.03,1.37-.03h1.37s1.37-.03,1.37-.03h1.37s1.37-.03,1.37-.03h1.37s1.37-.03,1.37-.03h1.37s1.37-.03,1.37-.03h1.37s1.37-.03,1.37-.03h1.37s1.37-.03,1.37-.03h1.37s1.37-.03,1.37-.03h1.37s1.37-.03,1.37-.03h1.37s1.37-.03,1.37-.03h1.37s1.37-.03,1.37-.03h1.37s1.37-.03,1.37-.03h1.37s1.37-.03,1.37-.03h1.37s1.37-.03,1.37-.03h1.37s1.37-.03,1.37-.03h1.37s1.37-.03,1.37-.03l-3.82,3.11-3.82,3.11-3.82,3.11-3.82,3.11-3.82,3.11-3.82,3.11-3.82,3.11-3.82,3.11-3.82,3.11-3.82,3.11-3.82,3.11-3.82,3.11-3.82,3.11-3.82,3.11-3.82,3.11-3.82,3.11-3.82,3.11-3.82,3.11-3.82,3.11-3.82,3.11-3.82,3.11-3.82,3.11-3.82,3.11-3.82,3.11-3.82,3.11-3.82,3.11-3.82,3.11-3.82,3.11-3.82,3.11-3.82,3.11-3.82,3.11-3.82,3.11,1.79.1,1.79.1,1.79.1,1.79.1,1.79.1,1.79.1,1.79.1,1.79.1,1.79.1,1.79.1,1.79.1,1.79.1,1.79.1,1.79.1,1.79.1,1.79.1,1.79.1,1.79.1,1.79.1,1.79.1,1.79.1,1.79.1,1.79.1,1.79.1,1.79.1,1.79.1,1.79.1,1.79.1,1.79.1,1.79.1,1.79.1,1.79.1-4.72,4.01-4.72,4.01-4.72,4.01-4.72,4.01-4.72,4.01-4.72,4.01-4.72,4.01-4.72,4.01-4.72,4.01-4.72,4.01-4.72,4.01-4.72,4.01-4.72,4.01-4.72,4.01-4.72,4.01-4.72,4.01-4.72,4.01-4.72,4.01-4.72,4.01-4.72,4.01-4.72,4.01-4.72,4.01-4.72,4.01-4.72,4.01-4.72,4.01-4.72,4.01-4.72,4.01-4.72,4.01-4.72,4.01-4.72,4.01-4.72,4.01-4.72,4.01c-1.33-.31-2.66-.61-3.99-.92-1.33-.31-2.66-.61-3.99-.91-1.33-.3-2.66-.61-3.99-.91-1.33-.3-2.66-.6-3.99-.9-1.33-.3-2.66-.6-3.98-.9-1.33-.3-2.66-.6-3.98-.89-1.33-.3-2.65-.59-3.98-.89s-2.65-.59-3.98-.89-2.65-.59-3.98-.88c-1.33-.29-2.65-.59-3.97-.88-1.32-.29-2.65-.58-3.97-.87-1.32-.29-2.65-.58-3.97-.87-1.32-.29-2.65-.58-3.97-.86-1.32-.29-2.64-.57-3.97-.86-1.32-.29-2.64-.57-3.96-.85s-2.64-.57-3.96-.85c-1.32-.28-2.64-.56-3.96-.84s-2.64-.56-3.96-.84c-1.32-.28-2.64-.56-3.95-.84-1.32-.28-2.63-.55-3.95-.83-1.32-.28-2.63-.55-3.95-.83-1.32-.27-2.63-.55-3.95-.82-1.32-.27-2.63-.55-3.94-.82s-2.63-.54-3.94-.81c-1.31-.27-2.63-.54-3.94-.81-1.31-.27-2.63-.54-3.94-.8-1.31-.27-2.62-.53-3.94-.8-1.31-.27-2.62-.53-3.93-.79-1.31-.26-2.62-.53-3.93-.79-1.31-.26-2.62-.52-3.93-.79-1.31-.26-2.62-.52-3.93-.78-1.31-.26-2.62-.52-3.92-.78l-1.12-2.46-1.12-2.46-1.12-2.46-1.12-2.46-1.12-2.46-1.12-2.46-1.12-2.46-1.12-2.46-1.12-2.46-1.12-2.46-1.12-2.46-1.12-2.46-1.12-2.46-1.12-2.46-1.12-2.46-1.12-2.46-1.12-2.46-1.12-2.46-1.12-2.46-1.12-2.46-1.12-2.46-1.12-2.46-1.12-2.46-1.12-2.46-1.12-2.46-1.12-2.46-1.12-2.46-1.12-2.46-1.12-2.46-1.12-2.46-1.12-2.46-1.12-2.46.78.41.78.41.78.41.78.41.78.41.78.41.78.41.78.41.78.41.78.41.78.41.78.41.78.41.78.41.78.41.78.41.78.41.78.41.78.41.78.41.78.41.78.41.78.41.78.41.78.41.78.41.78.41.78.41.78.41.78.41.78.41.78.41-1.15-2.25-1.15-2.25-1.15-2.25-1.15-2.25-1.15-2.25-1.15-2.25-1.15-2.25-1.15-2.25-1.15-2.25-1.15-2.25-1.15-2.25-1.15-2.25-1.15-2.25-1.15-2.25-1.15-2.25-1.15-2.25-1.15-2.25-1.15-2.25-1.15-2.25-1.15-2.25-1.15-2.25-1.15-2.25-1.15-2.25-1.15-2.25-1.15-2.25-1.15-2.25-1.15-2.25-1.15-2.25-1.15-2.25-1.15-2.25-1.15-2.25-1.15-2.25.64.29.64.29.64.29.64.29.64.29.64.29.64.29.64.29.64.29.64.29.64.29.64.29.64.29.64.29.64.29.64.29.64.29.64.29.64.29.64.29.64.29.64.29.64.29.64.29.64.29.64.29.64.29.64.29.64.29.64.29.64.29.64.29-.92-1.87-.92-1.87-.92-1.87-.92-1.87-.92-1.87-.92-1.87-.92-1.87-.92-1.87-.92-1.87-.92-1.87-.92-1.87-.92-1.87-.92-1.87-.92-1.87-.92-1.87-.92-1.87-.92-1.87-.92-1.87-.92-1.87-.92-1.87-.92-1.87-.92-1.87-.92-1.87-.92-1.87-.92-1.87-.92-1.87-.92-1.87-.92-1.87-.92-1.87-.92-1.87-.92-1.87-.92-1.87.44.19.44.19.44.19.44.19.44.19.44.19.44.19.44.19.44.19.44.19.44.19.44.19.44.19.44.19.44.19.44.19.44.19.44.19.44.19.44.19.44.19.44.19.44.19.44.19.44.19.44.19.44.19.44.19.44.19.44.19.44.19.44.19-.8-2.42-.8-2.42-.8-2.42-.8-2.42-.8-2.42-.8-2.42-.8-2.42-.8-2.42-.8-2.42-.8-2.42-.8-2.42-.8-2.42-.8-2.42-.8-2.42-.8-2.42-.8-2.42-.8-2.42-.8-2.42-.8-2.42-.8-2.42-.8-2.42-.8-2.42-.8-2.42-.8-2.42-.8-2.42-.8-2.42-.8-2.42-.8-2.42-.8-2.42-.8-2.42-.8-2.42-.8-2.42-1.5,2.06-1.5,2.06-1.5,2.06-1.5,2.06-1.5,2.06-1.5,2.06-1.5,2.06-1.5,2.06-1.5,2.06-1.5,2.06-1.5,2.06-1.5,2.06-1.5,2.06-1.5,2.06-1.5,2.06-1.5,2.06-1.5,2.06-1.5,2.06-1.5,2.06-1.5,2.06-1.5,2.06-1.5,2.06-1.5,2.06-1.5,2.06-1.5,2.06-1.5,2.06-1.5,2.06-1.5,2.06-1.5,2.06-1.5,2.06-1.5,2.06-1.5,2.06.48-.05.47-.05.48-.05.47-.05.48-.05.47-.05.48-.05.47-.05.48-.05.47-.05.48-.05.47-.05.48-.05.47-.05.48-.05.48-.05.47-.05.48-.05.47-.05.48-.05.47-.05.48-.05.47-.05.48-.05.47-.05.48-.05.47-.05.48-.05.47-.05.48-.05.47-.05.48-.05-1.45,1.5-1.45,1.5-1.45,1.5-1.45,1.5-1.45,1.5-1.45,1.5-1.45,1.5-1.45,1.5-1.45,1.5-1.45,1.5-1.45,1.5-1.45,1.5-1.45,1.5-1.45,1.5-1.45,1.5-1.45,1.5-1.45,1.5-1.45,1.5-1.45,1.5-1.45,1.5-1.45,1.5-1.45,1.5-1.45,1.5-1.45,1.5-1.45,1.5-1.45,1.5-1.45,1.5-1.45,1.5-1.45,1.5-1.45,1.5-1.45,1.5-1.45,1.5.7-.08.7-.08.7-.08.7-.08.7-.08.7-.08.7-.08.7-.08.7-.08.7-.08.7-.08.7-.08.7-.08.7-.08.7-.08.7-.08.7-.08.7-.08.7-.08.7-.08.7-.08.7-.08.7-.08.7-.08.7-.08.7-.08.7-.08.7-.08.7-.08.7-.08.7-.08.7-.08-1.78,1.79-1.78,1.79-1.78,1.79-1.78,1.79-1.78,1.79-1.78,1.79-1.78,1.79-1.78,1.79-1.78,1.79-1.78,1.79-1.78,1.79-1.78,1.79-1.78,1.79-1.78,1.79-1.78,1.79-1.78,1.79-1.78,1.79-1.78,1.79-1.78,1.79-1.78,1.79-1.78,1.79-1.78,1.79-1.78,1.79-1.78,1.79-1.78,1.79-1.78,1.79-1.78,1.79-1.78,1.79-1.78,1.79-1.78,1.79-1.78,1.79-1.78,1.79.91-.05.92-.05.91-.05.91-.05.92-.05.91-.05.91-.05.92-.05.91-.05.91-.05.91-.05.92-.05.91-.05.91-.05.92-.05.91-.05.91-.05.92-.05.91-.05.91-.05.92-.05.91-.05.91-.05.92-.05.91-.05.91-.05.91-.05.92-.05.91-.05.91-.05.92-.05.91-.05-1.73,1.81-1.73,1.81-1.73,1.81-1.73,1.81-1.73,1.81-1.73,1.81-1.73,1.81-1.73,1.81-1.73,1.81-1.73,1.81-1.73,1.81-1.73,1.81-1.73,1.81-1.73,1.81-1.73,1.81-1.73,1.81-1.73,1.81-1.73,1.81-1.73,1.81-1.73,1.81-1.73,1.81-1.73,1.81-1.73,1.81-1.73,1.81-1.73,1.81-1.73,1.81-1.73,1.81-1.73,1.81-1.73,1.81-1.73,1.81-1.73,1.81-1.73,1.81c-1.67-.24-3.35-.49-5.02-.73-1.67-.24-3.34-.48-5.01-.72-1.67-.24-3.34-.48-5.01-.71-1.67-.24-3.34-.47-5-.71-1.67-.23-3.33-.47-5-.7-1.66-.23-3.33-.46-4.99-.69s-3.32-.46-4.99-.69-3.32-.45-4.98-.68c-1.66-.23-3.32-.45-4.98-.67-1.66-.22-3.31-.45-4.97-.67-1.66-.22-3.31-.44-4.96-.66-1.65-.22-3.31-.44-4.96-.65-1.65-.22-3.3-.43-4.95-.65-1.65-.21-3.3-.43-4.95-.64-1.65-.21-3.3-.42-4.94-.63s-3.29-.42-4.94-.63c-1.65-.21-3.29-.41-4.93-.62-1.64-.21-3.29-.41-4.93-.61-1.64-.2-3.28-.41-4.92-.61-1.64-.2-3.28-.4-4.92-.6-1.64-.2-3.27-.4-4.91-.59-1.64-.2-3.27-.39-4.91-.59-1.63-.19-3.27-.39-4.9-.58-1.63-.19-3.26-.38-4.89-.58-1.63-.19-3.26-.38-4.89-.57-1.63-.19-3.26-.38-4.88-.56-1.63-.19-3.25-.37-4.88-.56-1.62-.18-3.25-.37-4.87-.55-1.62-.18-3.25-.36-4.87-.54s-3.24-.36-4.86-.54c-1.62-.18-3.24-.36-4.85-.53-1.62-.18-3.23-.35-4.85-.53l-2.15-3.73-2.15-3.73-2.15-3.73-2.15-3.73-2.15-3.73-2.15-3.73-2.15-3.73-2.15-3.73-2.15-3.73-2.15-3.73-2.15-3.73-2.15-3.73-2.15-3.73-2.15-3.73-2.15-3.73-2.15-3.73-2.15-3.73-2.15-3.73-2.15-3.73-2.15-3.73-2.15-3.73-2.15-3.73-2.15-3.73-2.15-3.73-2.15-3.73-2.15-3.73-2.15-3.73-2.15-3.73-2.15-3.73-2.15-3.73-2.15-3.73-2.15-3.73,1.27.53,1.27.53,1.27.53,1.27.53,1.27.53,1.27.53,1.27.53,1.27.53,1.27.53,1.27.53,1.27.53,1.27.53,1.27.53,1.27.53,1.27.53,1.27.53,1.27.53,1.27.53,1.27.53,1.27.53,1.27.53,1.27.53,1.27.53,1.27.53,1.27.53,1.27.53,1.27.53,1.27.53,1.27.53,1.27.53,1.27.53,1.27.53-2.11-3.32-2.11-3.32-2.11-3.32-2.11-3.32-2.11-3.32-2.11-3.32-2.11-3.32-2.11-3.32-2.11-3.32-2.11-3.32-2.11-3.32-2.11-3.32-2.11-3.32-2.11-3.32-2.11-3.32-2.11-3.32-2.11-3.32-2.11-3.32-2.11-3.32-2.11-3.32-2.11-3.32-2.11-3.32-2.11-3.32-2.11-3.32-2.11-3.32-2.11-3.32-2.11-3.32-2.11-3.32-2.11-3.32-2.11-3.32-2.11-3.32-2.11-3.32,1.04.35,1.04.35,1.04.35,1.04.35,1.04.35,1.04.35,1.04.35,1.04.35,1.04.35,1.04.35,1.04.35,1.04.35,1.04.35,1.04.35,1.04.35,1.04.35,1.04.35,1.04.35,1.04.35,1.04.35,1.04.35,1.04.35,1.04.35,1.04.35,1.04.35,1.04.35,1.04.35,1.04.35,1.04.35,1.04.35,1.04.35,1.04.35-1.7-2.76-1.71-2.76-1.7-2.76-1.71-2.76-1.7-2.76-1.7-2.76-1.71-2.76-1.7-2.76-1.71-2.76-1.7-2.76-1.7-2.76-1.71-2.76-1.7-2.76-1.71-2.76-1.7-2.76-1.7-2.76-1.71-2.76-1.7-2.76-1.71-2.76-1.7-2.76-1.71-2.76-1.7-2.76-1.7-2.76-1.71-2.76-1.7-2.76-1.71-2.76-1.7-2.76-1.7-2.76-1.71-2.76-1.7-2.76-1.71-2.76-1.7-2.76.71.23.71.23.71.23.71.23.71.23.71.23.71.23.71.23.71.23.71.23.71.23.71.23.71.23.71.23.71.23.71.23.71.23.71.23.71.23.71.23.71.23.71.23.71.23.71.23.71.23.71.23.71.23.71.23.71.23.71.23.71.23.71.23-1.6-3.64-1.6-3.64-1.6-3.64-1.6-3.64-1.6-3.64-1.6-3.64-1.6-3.64-1.6-3.64-1.6-3.64-1.6-3.64-1.6-3.64-1.6-3.64-1.6-3.64-1.6-3.64-1.6-3.64-1.6-3.64-1.6-3.64-1.6-3.64-1.6-3.64-1.6-3.64-1.6-3.64-1.6-3.64-1.6-3.64-1.6-3.64-1.6-3.64-1.6-3.64-1.6-3.64-1.6-3.64-1.6-3.64-1.6-3.64-1.6-3.64-1.6-3.64-2.02,3.42-2.02,3.42-2.02,3.42-2.02,3.42-2.02,3.42-2.02,3.42-2.02,3.42-2.02,3.42-2.02,3.42-2.02,3.42-2.02,3.42-2.02,3.42-2.02,3.42-2.02,3.42-2.02,3.42-2.02,3.42-2.02,3.42-2.02,3.42-2.02,3.42-2.02,3.42-2.02,3.42-2.02,3.42-2.02,3.42-2.02,3.42-2.02,3.42-2.02,3.42-2.02,3.42-2.02,3.42-2.02,3.42-2.02,3.42-2.02,3.42-2.02,3.42.73-.15.73-.15.73-.15.73-.15.73-.15.73-.15.73-.15.73-.15.73-.15.73-.15.73-.15.73-.15.73-.15.73-.15.73-.15.73-.15.73-.15.73-.15.73-.15.73-.15.73-.15.73-.15.73-.15.73-.15.73-.15.73-.15.73-.15.73-.15.73-.15.73-.15.73-.15.73-.15-2.02,2.54-2.02,2.54-2.02,2.54-2.02,2.54-2.02,2.54-2.02,2.54-2.02,2.54-2.02,2.54-2.02,2.54-2.02,2.54-2.02,2.54-2.02,2.54-2.02,2.54-2.02,2.54-2.02,2.54-2.02,2.54-2.02,2.54-2.02,2.54-2.02,2.54-2.02,2.54-2.02,2.54-2.02,2.54-2.02,2.54-2.02,2.54-2.02,2.54-2.02,2.54-2.02,2.54-2.02,2.54-2.02,2.54-2.02,2.54-2.02,2.54-2.02,2.54,1.07-.23,1.07-.23,1.07-.23,1.07-.23,1.07-.23,1.07-.23,1.07-.23,1.07-.23,1.07-.23,1.07-.23,1.07-.23,1.07-.23,1.07-.23,1.07-.23,1.07-.23,1.07-.23,1.07-.23,1.07-.23,1.07-.23,1.07-.23,1.07-.23,1.07-.23,1.07-.23,1.07-.23,1.07-.23,1.07-.23,1.07-.23,1.07-.23,1.07-.23,1.07-.23,1.07-.23,1.07-.23-2.49,3.04-2.49,3.04-2.49,3.04-2.49,3.04-2.49,3.04-2.49,3.04-2.49,3.04-2.49,3.04-2.49,3.04-2.49,3.04-2.49,3.04-2.49,3.04-2.49,3.04-2.49,3.04-2.49,3.04-2.49,3.04-2.49,3.04-2.49,3.04-2.49,3.04-2.49,3.04-2.49,3.04-2.49,3.04-2.49,3.04-2.49,3.04-2.49,3.04-2.49,3.04-2.49,3.04-2.49,3.04-2.49,3.04-2.49,3.04-2.49,3.04-2.49,3.04,1.41-.21,1.41-.21,1.41-.21,1.41-.21,1.41-.21,1.41-.21,1.41-.21,1.41-.21,1.41-.21,1.41-.21,1.41-.21,1.41-.21,1.41-.21,1.41-.21,1.41-.21,1.41-.21,1.41-.21,1.41-.21,1.41-.21,1.41-.21,1.41-.21,1.41-.21,1.41-.21,1.41-.21,1.41-.21,1.41-.21,1.41-.21,1.41-.21,1.41-.21,1.41-.21,1.41-.21,1.41-.21-2.51,3.19-2.51,3.19-2.51,3.19-2.51,3.19-2.51,3.19-2.51,3.19-2.51,3.19-2.51,3.19-2.51,3.19-2.51,3.19-2.51,3.19-2.51,3.19-2.51,3.19-2.51,3.19-2.51,3.19-2.51,3.19-2.51,3.19-2.51,3.19-2.51,3.19-2.51,3.19-2.51,3.19-2.51,3.19-2.51,3.19-2.51,3.19-2.51,3.19-2.51,3.19-2.51,3.19-2.51,3.19-2.51,3.19-2.51,3.19-2.51,3.19-2.51,3.19c-1.32-.04-2.64-.08-3.95-.12-1.32-.04-2.63-.08-3.95-.12-1.31-.04-2.63-.08-3.94-.11s-2.62-.07-3.94-.11c-1.31-.04-2.62-.07-3.93-.11-1.31-.03-2.62-.07-3.92-.1s-2.61-.07-3.92-.1c-1.3-.03-2.61-.06-3.91-.1-1.3-.03-2.6-.06-3.9-.09-1.3-.03-2.6-.06-3.9-.09-1.3-.03-2.6-.06-3.89-.08s-2.59-.05-3.89-.08c-1.29-.03-2.59-.05-3.88-.08-1.29-.03-2.58-.05-3.87-.07-1.29-.02-2.58-.05-3.87-.07-1.29-.02-2.58-.05-3.86-.07-1.29-.02-2.57-.04-3.86-.06-1.28-.02-2.57-.04-3.85-.06-1.28-.02-2.56-.04-3.84-.06-1.28-.02-2.56-.04-3.84-.05-1.28-.02-2.55-.03-3.83-.05-1.28-.02-2.55-.03-3.82-.05-1.27-.01-2.55-.03-3.82-.04-1.27-.01-2.54-.03-3.81-.04-1.27-.01-2.54-.02-3.8-.04-1.27-.01-2.53-.02-3.8-.03-1.27-.01-2.53-.02-3.79-.03-1.26,0-2.52-.02-3.79-.03s-2.52-.02-3.78-.02c-1.26,0-2.52-.01-3.77-.02-1.26,0-2.51-.01-3.77-.02-1.25,0-2.51,0-3.76-.01l-3.32-4.64-3.32-4.64-3.32-4.64-3.32-4.64-3.32-4.64-3.32-4.64-3.32-4.64-3.32-4.64-3.32-4.64-3.32-4.64-3.32-4.64-3.32-4.64-3.32-4.64-3.32-4.64-3.32-4.64-3.32-4.64-3.32-4.64-3.32-4.64-3.32-4.64-3.32-4.64-3.32-4.64-3.32-4.64-3.32-4.64-3.32-4.64-3.32-4.64-3.32-4.64-3.32-4.64-3.32-4.64-3.32-4.64-3.32-4.64-3.32-4.64-3.32-4.64,1.7.52,1.7.52,1.7.52,1.7.52,1.7.52,1.7.52,1.7.52,1.7.52,1.7.52,1.7.52,1.7.52,1.7.52,1.7.52,1.7.52,1.7.52,1.7.52,1.7.52,1.7.52,1.7.52,1.7.52,1.7.52,1.7.52,1.7.52,1.7.52,1.7.52,1.7.52,1.7.52,1.7.52,1.7.52,1.7.52,1.7.52,1.7.52-3.14-4-3.14-4-3.14-4-3.14-4-3.14-4-3.14-4-3.14-4-3.14-4-3.14-4-3.14-4-3.14-4-3.14-4-3.14-4-3.14-4-3.14-4-3.14-4-3.14-4-3.14-4-3.14-4-3.14-4-3.14-4-3.14-4-3.14-4-3.14-4-3.14-4-3.14-4-3.14-4-3.14-4-3.14-4-3.14-4-3.14-4-3.14-4,1.38.32,1.38.32,1.38.32,1.38.32,1.38.32,1.38.32,1.38.32,1.38.32,1.38.32,1.38.32,1.38.32,1.38.32,1.38.32,1.38.32,1.38.32,1.38.32,1.38.32,1.38.32,1.38.32,1.38.32,1.38.32,1.38.32,1.38.32,1.38.32,1.38.32,1.38.32,1.38.32,1.38.32,1.38.32,1.38.32,1.38.32,1.38.32-2.54-3.34-2.54-3.34-2.54-3.34-2.54-3.34-2.54-3.34-2.54-3.34-2.54-3.34-2.54-3.34-2.54-3.34-2.54-3.34-2.54-3.34-2.54-3.34-2.54-3.34-2.54-3.34-2.54-3.34-2.54-3.34-2.54-3.34-2.54-3.34-2.54-3.34-2.54-3.34-2.54-3.34-2.54-3.34-2.54-3.34-2.54-3.34-2.54-3.34-2.54-3.34-2.54-3.34-2.54-3.34-2.54-3.34-2.54-3.34-2.54-3.34-2.54-3.34.94.21.94.21.94.21.94.21.94.21.94.21.94.21.94.21.94.21.94.21.94.21.94.21.94.21.94.21.94.21.94.21.94.21.94.21.94.21.94.21.94.21.94.21.94.21.94.21.94.21.94.21.94.21.94.21.94.21.94.21.94.21.94.21-2.52-4.47-2.52-4.47-2.52-4.47-2.52-4.47-2.52-4.47-2.52-4.47-2.52-4.47-2.52-4.47-2.52-4.47-2.52-4.47-2.52-4.47-2.52-4.47-2.52-4.47-2.52-4.47-2.52-4.47-2.52-4.47-2.52-4.47-2.52-4.47-2.52-4.47-2.52-4.47-2.52-4.47-2.52-4.47-2.52-4.47-2.52-4.47-2.52-4.47-2.52-4.47-2.52-4.47-2.52-4.47-2.52-4.47-2.52-4.47-2.52-4.47-2.52-4.47-2.17,4.65-2.17,4.65-2.17,4.65-2.17,4.65-2.17,4.65-2.17,4.65-2.17,4.65-2.17,4.65-2.17,4.65-2.17,4.65-2.17,4.65-2.17,4.65-2.17,4.65-2.17,4.65-2.17,4.65-2.17,4.65-2.17,4.65-2.17,4.65-2.17,4.65-2.17,4.65-2.17,4.65-2.17,4.65-2.17,4.65-2.17,4.65-2.17,4.65-2.17,4.65-2.17,4.65-2.17,4.65-2.17,4.65-2.17,4.65-2.17,4.65-2.17,4.65.92-.28.92-.28.92-.28.92-.28.92-.28.92-.28.92-.28.92-.28.92-.28.92-.28.92-.28.92-.28.92-.28.92-.28.92-.28.92-.28.92-.28.92-.28.92-.28.92-.28.92-.28.92-.28.92-.28.92-.28.92-.28.92-.28.92-.28.92-.28.92-.28.92-.28.92-.28.92-.28-2.28,3.52-2.28,3.52-2.28,3.52-2.28,3.52-2.28,3.52-2.28,3.52-2.28,3.52-2.28,3.52-2.28,3.52-2.28,3.52-2.28,3.52-2.28,3.52-2.28,3.52-2.28,3.52-2.28,3.52-2.28,3.52-2.28,3.52-2.28,3.52-2.28,3.52-2.28,3.52-2.28,3.52-2.28,3.52-2.28,3.52-2.28,3.52-2.28,3.52-2.28,3.52-2.28,3.52-2.28,3.52-2.28,3.52-2.28,3.52-2.28,3.52-2.28,3.52,1.35-.43,1.35-.43,1.35-.43,1.35-.43,1.35-.43,1.35-.43,1.35-.43,1.35-.43,1.35-.43,1.35-.43,1.35-.43,1.35-.43,1.35-.43,1.35-.43,1.35-.43,1.35-.43,1.35-.43,1.35-.43,1.35-.43,1.35-.43,1.35-.43,1.35-.43,1.35-.43,1.35-.43,1.35-.43,1.35-.43,1.35-.43,1.35-.43,1.35-.43,1.35-.43,1.35-.43,1.35-.43-2.82,4.23-2.82,4.23-2.82,4.23-2.82,4.23-2.82,4.23-2.82,4.23-2.82,4.23-2.82,4.23-2.82,4.23-2.82,4.23-2.82,4.23-2.82,4.23-2.82,4.23-2.82,4.23-2.82,4.23-2.82,4.23-2.82,4.23-2.82,4.23-2.82,4.23-2.82,4.23-2.82,4.23-2.82,4.23-2.82,4.23-2.82,4.23-2.82,4.23-2.82,4.23-2.82,4.23-2.82,4.23-2.82,4.23-2.82,4.23-2.82,4.23-2.82,4.23,1.79-.45,1.79-.45,1.79-.45,1.79-.45,1.79-.45,1.79-.45,1.79-.45,1.79-.45,1.79-.45,1.79-.45,1.79-.45,1.79-.45,1.79-.45,1.79-.45,1.79-.45,1.79-.45,1.79-.45,1.79-.45,1.79-.45,1.79-.45,1.79-.45,1.79-.45,1.79-.45,1.79-.45,1.79-.45,1.79-.45,1.79-.45,1.79-.45,1.79-.45,1.79-.45,1.79-.45,1.79-.45-3.07,4.81-3.07,4.81-3.07,4.81-3.07,4.81-3.07,4.81-3.07,4.81-3.07,4.81-3.07,4.81-3.07,4.81-3.07,4.81-3.07,4.81-3.07,4.81-3.07,4.81-3.07,4.81-3.07,4.81-3.07,4.81-3.07,4.81-3.07,4.81-3.07,4.81-3.07,4.81-3.07,4.81-3.07,4.81-3.07,4.81-3.07,4.81-3.07,4.81-3.07,4.81-3.07,4.81-3.07,4.81-3.07,4.81-3.07,4.81-3.07,4.81-3.07,4.81c-.89.09-1.79.18-2.68.27-.89.09-1.78.18-2.67.27-.89.09-1.77.18-2.66.27s-1.77.18-2.65.27c-.88.09-1.76.18-2.64.27-.88.09-1.76.18-2.63.27-.88.09-1.75.18-2.63.27s-1.75.18-2.62.28c-.87.09-1.74.18-2.61.28-.87.09-1.74.18-2.6.28-.87.09-1.73.19-2.59.28-.86.09-1.72.19-2.58.28-.86.09-1.72.19-2.58.28-.86.09-1.71.19-2.57.28-.85.09-1.71.19-2.56.28-.85.09-1.7.19-2.55.28s-1.7.19-2.54.28-1.69.19-2.53.28c-.84.09-1.68.19-2.52.28-.84.09-1.68.19-2.52.28-.84.09-1.67.19-2.51.29-.83.1-1.67.19-2.5.29-.83.1-1.66.19-2.49.29s-1.66.19-2.48.29-1.65.19-2.47.29c-.82.1-1.64.19-2.46.29-.82.1-1.64.19-2.45.29-.82.1-1.63.19-2.45.29s-1.63.19-2.44.29c-.81.1-1.62.19-2.43.29-.81.1-1.61.19-2.42.29-.81.1-1.61.19-2.41.29l-1.71-1.95-1.71-1.95-1.71-1.95-1.71-1.95-1.71-1.95-1.71-1.95-1.71-1.95-1.71-1.95-1.71-1.95-1.71-1.95-1.71-1.95-1.71-1.95-1.71-1.95-1.71-1.95-1.71-1.95-1.71-1.95-1.71-1.95-1.71-1.95-1.71-1.95-1.71-1.95-1.71-1.95-1.71-1.95-1.71-1.95-1.71-1.95-1.71-1.95-1.71-1.95-1.71-1.95-1.71-1.95-1.71-1.95-1.71-1.95-1.71-1.95-1.71-1.95,1.04.21,1.04.21,1.04.21,1.04.21,1.04.21,1.04.21,1.04.21,1.04.21,1.04.21,1.04.21,1.04.21,1.04.21,1.04.21,1.04.21,1.04.21,1.04.21,1.04.21,1.04.21,1.04.21,1.04.21,1.04.21,1.04.21,1.04.21,1.04.21,1.04.21,1.04.21,1.04.21,1.04.21,1.04.21,1.04.21,1.04.21,1.04.21-2.09-2.18-2.09-2.18-2.09-2.18-2.09-2.18-2.09-2.18-2.09-2.18-2.09-2.18-2.09-2.18-2.09-2.18-2.09-2.18-2.09-2.18-2.09-2.18-2.09-2.18-2.09-2.18-2.09-2.18-2.09-2.18-2.09-2.18-2.09-2.18-2.09-2.18-2.09-2.18-2.09-2.18-2.09-2.18-2.09-2.18-2.09-2.18-2.09-2.18-2.09-2.18-2.09-2.18-2.09-2.18-2.09-2.18-2.09-2.18-2.09-2.18-2.09-2.18.83.11.83.11.83.11.83.11.83.11.83.11.83.11.83.11.83.11.83.11.83.11.83.11.83.11.83.11.83.11.83.11.83.11.83.11.83.11.83.11.83.11.83.11.83.11.83.11.83.11.83.11.83.11.83.11.83.11.83.11.83.11.83.11-1.7-1.83-1.7-1.83-1.7-1.83-1.7-1.83-1.7-1.83-1.7-1.83-1.7-1.83-1.7-1.83-1.7-1.83-1.7-1.83-1.7-1.83-1.7-1.83-1.7-1.83-1.7-1.83-1.7-1.83-1.7-1.83-1.7-1.83-1.7-1.83-1.7-1.83-1.7-1.83-1.7-1.83-1.7-1.83-1.7-1.83-1.7-1.83-1.7-1.83-1.7-1.83-1.7-1.83-1.7-1.83-1.7-1.83-1.7-1.83-1.7-1.83-1.7-1.83.57.07.57.07.57.07.57.07.57.07.57.07.57.07.57.07.57.07.57.07.57.07.57.07.57.07.57.07.57.07.57.07.57.07.57.07.57.07.57.07.57.07.57.07.57.07.57.07.57.07.57.07.57.07.57.07.57.07.57.07.57.07.57.07-1.75-2.5-1.75-2.5-1.75-2.5-1.75-2.5-1.75-2.5-1.75-2.5-1.75-2.5-1.75-2.5-1.75-2.5-1.75-2.5-1.75-2.5-1.75-2.5-1.75-2.5-1.75-2.5-1.75-2.5-1.75-2.5-1.75-2.5-1.75-2.5-1.75-2.5-1.75-2.5-1.75-2.5-1.75-2.5-1.75-2.5-1.75-2.5-1.75-2.5-1.75-2.5-1.75-2.5-1.75-2.5-1.75-2.5-1.75-2.5-1.75-2.5-1.75-2.5-1.01,2.88-1.01,2.88-1.01,2.88-1.01,2.88-1.01,2.88-1.01,2.88-1.01,2.88-1.01,2.88-1.01,2.88-1.01,2.88-1.01,2.88-1.01,2.88-1.01,2.88-1.01,2.88-1.01,2.88-1.01,2.88-1.01,2.88-1.01,2.88-1.01,2.88-1.01,2.88-1.01,2.88-1.01,2.88-1.01,2.88-1.01,2.88-1.01,2.88-1.01,2.88-1.01,2.88-1.01,2.88-1.01,2.88-1.01,2.88-1.01,2.88-1.01,2.88.53-.22.53-.22.53-.22.53-.22.53-.22.53-.22.53-.22.53-.22.53-.22.53-.22.53-.22.53-.22.53-.22.53-.22.53-.22.53-.22.53-.22.53-.22.53-.22.53-.22.53-.22.53-.22.53-.22.53-.22.53-.22.53-.22.53-.22.53-.22.53-.22.53-.22.53-.22.53-.22-1.14,2.22-1.14,2.22-1.14,2.22-1.14,2.22-1.14,2.22-1.14,2.22-1.14,2.22-1.14,2.22-1.14,2.22-1.14,2.22-1.14,2.22-1.14,2.22-1.14,2.22-1.14,2.22-1.14,2.22-1.14,2.22-1.14,2.22-1.14,2.22-1.14,2.22-1.14,2.22-1.14,2.22-1.14,2.22-1.14,2.22-1.14,2.22-1.14,2.22-1.14,2.22-1.14,2.22-1.14,2.22-1.14,2.22-1.14,2.22-1.14,2.22-1.14,2.22.77-.33.77-.33.77-.33.77-.33.77-.33.77-.33.77-.33.77-.33.77-.33.77-.33.77-.33.77-.33.77-.33.77-.33.77-.33.77-.33.77-.33.77-.33.77-.33.77-.33.77-.33.77-.33.77-.33.77-.33.77-.33.77-.33.77-.33.77-.33.77-.33.77-.33.77-.33.77-.33-1.42,2.67-1.42,2.67-1.42,2.67-1.42,2.67-1.42,2.67-1.42,2.67-1.42,2.67-1.42,2.67-1.42,2.67-1.42,2.67-1.42,2.67-1.42,2.67-1.42,2.67-1.42,2.67-1.42,2.67-1.42,2.67-1.42,2.67-1.42,2.67-1.42,2.67-1.42,2.67-1.42,2.67-1.42,2.67-1.42,2.67-1.42,2.67-1.42,2.67-1.42,2.67-1.42,2.67-1.42,2.67-1.42,2.67-1.42,2.67-1.42,2.67-1.42,2.67,1.03-.37,1.03-.37,1.03-.37,1.03-.37,1.03-.37,1.03-.37,1.03-.37,1.03-.37,1.03-.37,1.03-.37,1.03-.37,1.03-.37,1.03-.37,1.03-.37,1.03-.37,1.03-.37,1.03-.37,1.03-.37,1.03-.37,1.03-.37,1.03-.37,1.03-.37,1.03-.37,1.03-.37,1.03-.37,1.03-.37,1.03-.37,1.03-.37,1.03-.37,1.03-.37,1.03-.37,1.03-.37-1.2,2.36-1.2,2.36-1.2,2.36-1.2,2.36-1.2,2.36-1.2,2.36-1.2,2.36-1.2,2.36-1.2,2.36-1.2,2.36-1.2,2.36-1.2,2.36-1.2,2.36-1.2,2.36-1.2,2.36-1.2,2.36-1.2,2.36-1.2,2.36-1.2,2.36-1.2,2.36-1.2,2.36-1.2,2.36-1.2,2.36-1.2,2.36-1.2,2.36-1.2,2.36-1.2,2.36-1.2,2.36-1.2,2.36-1.2,2.36-1.2,2.36-1.2,2.36c-1.18.23-2.33.46-3.48.69-1.14.23-2.27.45-3.37.67-1.11.22-2.2.44-3.27.66-1.07.22-2.13.43-3.16.64-1.04.21-2.06.42-3.06.63-1,.21-1.99.41-2.95.61-.97.2-1.92.4-2.85.59-.93.19-1.85.39-2.74.58-.9.19-1.78.37-2.64.56-.86.18-1.7.36-2.53.54-.83.18-1.63.35-2.42.52-.79.17-1.56.34-2.31.5s-1.49.32-2.21.48-1.42.31-2.1.46c-.68.15-1.34.3-1.99.44-.64.14-1.27.28-1.88.42-.61.14-1.2.27-1.77.4-.57.13-1.12.25-1.66.37-.53.12-1.05.24-1.55.35-.5.11-.97.22-1.43.33-.46.11-.9.21-1.32.3-.42.1-.83.19-1.21.28s-.75.17-1.1.26c-.35.08-.67.16-.98.23-.31.07-.6.14-.87.21s-.52.12-.75.18c-.23.06-.45.11-.64.15-.19.05-.37.09-.52.13s-.29.07-.41.1c-.12.03-.21.05-.29.07-.08.02-.14.03-.18.04-.04,0-.06.01-.06.01l.95,26.85.95,26.85.95,26.85.95,26.85.95,26.85.95,26.85.95,26.85.95,26.85.95,26.85.95,26.85.95,26.85.95,26.85.95,26.85.95,26.85.95,26.85.95,26.85.95,26.85.95,26.85.95,26.85.95,26.85.95,26.85.95,26.85.95,26.85.95,26.85.95,26.85.95,26.85.95,26.85.95,26.85.95,26.85.95,26.85.95,26.85.95,26.85,90.57-3.48,90.57-3.48,90.57-3.48,90.57-3.48,90.57-3.48,90.57-3.48,90.57-3.48,90.57-3.48,90.57-3.48,90.57-3.48,90.57-3.48,90.57-3.48,90.57-3.48,90.57-3.48,90.57-3.48,90.57-3.48,90.57-3.48,90.57-3.48,90.57-3.48,90.57-3.48,90.57-3.48,90.57-3.48,90.57-3.48,90.57-3.48,90.57-3.48,90.57-3.48,90.57-3.48,90.57-3.48,90.57-3.48,90.57-3.48,90.57-3.48,90.57-3.48-.3-7.7-.3-7.7-.3-7.7-.3-7.7-.3-7.7-.3-7.7-.3-7.7-.3-7.7-.3-7.7-.3-7.7-.3-7.7-.3-7.7-.3-7.7-.3-7.7-.3-7.7-.3-7.7-.3-7.7-.3-7.7-.3-7.7-.3-7.7-.3-7.7-.3-7.7-.3-7.7-.3-7.7-.3-7.7-.3-7.7-.3-7.7-.3-7.7-.3-7.7-.3-7.7-.3-7.7-.3-7.7c-3.71-2.29-7.42-4.56-11.13-6.83-3.71-2.27-7.42-4.53-11.14-6.78-3.71-2.25-7.43-4.49-11.14-6.73-3.71-2.23-7.43-4.46-11.14-6.68-3.71-2.22-7.43-4.43-11.14-6.63-3.72-2.2-7.43-4.39-11.15-6.58-3.72-2.18-7.43-4.36-11.15-6.53-3.72-2.17-7.43-4.33-11.15-6.48-3.72-2.15-7.44-4.29-11.15-6.43-3.72-2.13-7.44-4.26-11.16-6.38s-7.44-4.23-11.16-6.33c-3.72-2.1-7.44-4.19-11.16-6.28-3.72-2.08-7.44-4.16-11.16-6.23-3.72-2.07-7.44-4.13-11.16-6.18-3.72-2.05-7.44-4.09-11.16-6.13s-7.44-4.06-11.16-6.08c-3.72-2.02-7.44-4.03-11.16-6.03-3.72-2-7.44-4-11.16-5.98-3.72-1.99-7.44-3.97-11.17-5.94-3.72-1.97-7.44-3.93-11.17-5.89-3.72-1.96-7.44-3.9-11.17-5.84-3.72-1.94-7.44-3.87-11.17-5.79-3.72-1.92-7.44-3.84-11.16-5.75-3.72-1.91-7.44-3.81-11.16-5.7-3.72-1.89-7.44-3.78-11.16-5.65-3.72-1.88-7.44-3.74-11.16-5.61-3.72-1.86-7.44-3.71-11.16-5.56-3.72-1.85-7.44-3.68-11.16-5.51-3.72-1.83-7.44-3.65-11.16-5.47-3.72-1.81-7.44-3.62-11.16-5.42-3.72-1.8-7.44-3.59-11.16-5.38-3.72-1.78-7.44-3.56-11.15-5.33Z"/>
  </g>
  <path class="cls-2" d="M2511.89,0H0v43.98c309.3,116.12,742.82,204.47,1226.3,237.33,503.01,34.19,960.57,1.55,1285.59-78.3V0Z"/>
</svg>